<svg height="512" viewBox="0 0 64 64" width="512" xmlns="http://www.w3.org/2000/svg"><g id="AC"><rect fill="#d4effc" height="28" rx="4" width="62" x="1" y="11"/><path d="m5 39a4 4 0 0 1 -4-4v-4h62v4a4 4 0 0 1 -4 4z" fill="#ade1fa"/><path d="m47 39v-8h16v4a4 4 0 0 1 -4 4z" fill="#86d1ef"/><path d="m5 39a4 4 0 0 1 -4-4v-4h16v8z" fill="#86d1ef"/><path d="m9 17a2 2 0 0 1 -2-2v-4h50v4a2 2 0 0 1 -2 2z" fill="#ade1fa"/><g fill="#38383d"><path d="m59 10h-54a5.006 5.006 0 0 0 -5 5v20a5.006 5.006 0 0 0 5 5h54a5.006 5.006 0 0 0 5-5v-20a5.006 5.006 0 0 0 -5-5zm-3 2v3a1 1 0 0 1 -1 1h-46a1 1 0 0 1 -1-1v-3zm-54 3a3 3 0 0 1 3-3h1v3a3 3 0 0 0 3 3h46a3 3 0 0 0 3-3v-3h1a3 3 0 0 1 3 3v15h-60zm0 20v-3h14v6h-11a3 3 0 0 1 -3-3zm16-3h28v6h-28zm44 3a3 3 0 0 1 -3 3h-11v-6h14z"/><path d="m23 28h18a1 1 0 0 0 0-2h-18a1 1 0 0 0 0 2z"/><path d="m55 36h3a1 1 0 0 0 0-2h-3a1 1 0 0 0 0 2z"/><path d="m34 43a1 1 0 0 0 -2 0 2.585 2.585 0 0 1 -.781 1.875 4.615 4.615 0 0 0 0 6.25 2.585 2.585 0 0 1 .781 1.875 1 1 0 0 0 2 0 4.529 4.529 0 0 0 -1.219-3.125 2.641 2.641 0 0 1 0-3.75 4.529 4.529 0 0 0 1.219-3.125z"/><path d="m40 43a1 1 0 0 0 -2 0 2.585 2.585 0 0 1 -.781 1.875 4.615 4.615 0 0 0 0 6.25 2.585 2.585 0 0 1 .781 1.875 1 1 0 0 0 2 0 4.529 4.529 0 0 0 -1.219-3.125 2.641 2.641 0 0 1 0-3.75 4.529 4.529 0 0 0 1.219-3.125z"/><path d="m46 43a1 1 0 0 0 -2 0 2.585 2.585 0 0 1 -.781 1.875 4.615 4.615 0 0 0 0 6.25 2.585 2.585 0 0 1 .781 1.875 1 1 0 0 0 2 0 4.529 4.529 0 0 0 -1.219-3.125 2.641 2.641 0 0 1 0-3.75 4.529 4.529 0 0 0 1.219-3.125z"/><path d="m52 43a1 1 0 0 0 -2 0 2.585 2.585 0 0 1 -.781 1.875 4.615 4.615 0 0 0 0 6.25 2.585 2.585 0 0 1 .781 1.875 1 1 0 0 0 2 0 4.529 4.529 0 0 0 -1.219-3.125 2.641 2.641 0 0 1 0-3.75 4.529 4.529 0 0 0 1.219-3.125z"/><path d="m16 43a1 1 0 0 0 -2 0 2.585 2.585 0 0 1 -.781 1.875 4.615 4.615 0 0 0 0 6.25 2.585 2.585 0 0 1 .781 1.875 1 1 0 0 0 2 0 4.529 4.529 0 0 0 -1.219-3.125 2.641 2.641 0 0 1 0-3.75 4.529 4.529 0 0 0 1.219-3.125z"/><path d="m22 43a1 1 0 0 0 -2 0 2.585 2.585 0 0 1 -.781 1.875 4.615 4.615 0 0 0 0 6.25 2.585 2.585 0 0 1 .781 1.875 1 1 0 0 0 2 0 4.529 4.529 0 0 0 -1.219-3.125 2.641 2.641 0 0 1 0-3.75 4.529 4.529 0 0 0 1.219-3.125z"/><path d="m28 43a1 1 0 0 0 -2 0 2.585 2.585 0 0 1 -.781 1.875 4.615 4.615 0 0 0 0 6.25 2.585 2.585 0 0 1 .781 1.875 1 1 0 0 0 2 0 4.529 4.529 0 0 0 -1.219-3.125 2.641 2.641 0 0 1 0-3.75 4.529 4.529 0 0 0 1.219-3.125z"/></g></g></svg>