<?xml version="1.0" encoding="iso-8859-1"?>
<!-- Generator: Adobe Illustrator 19.0.0, SVG Export Plug-In . SVG Version: 6.00 Build 0)  -->
<svg version="1.1" id="Layer_1" xmlns="http://www.w3.org/2000/svg" xmlns:xlink="http://www.w3.org/1999/xlink" x="0px" y="0px"
	 viewBox="0 0 512 512" style="enable-background:new 0 0 512 512;" xml:space="preserve">
<g>
	<rect x="456" y="392" style="fill:#5D4037;" width="16" height="24"/>
	<rect x="44" y="392" style="fill:#5D4037;" width="16" height="24"/>
</g>
<polygon style="fill:#BD8150;" points="508,96 508,112 492,112 256,112 20,112 4,112 4,96 "/>
<g>
	<circle style="fill:#D6BA9B;" cx="290.8" cy="250" r="10"/>
	<circle style="fill:#D6BA9B;" cx="222.8" cy="250" r="10"/>
</g>
<path style="fill:#895129;" d="M222.8,260c5.6,0,10-4.4,10-10s-4.4-10-10-10s-10,4.4-10,10S217.2,260,222.8,260z M256,112v280H60H44
	h-7.2C28,392,20,384.8,20,376V112H256z"/>
<path style="fill:#9F633C;" d="M290.8,260c5.6,0,10-4.4,10-10s-4.4-10-10-10s-10,4.4-10,10S285.2,260,290.8,260z M492,112v264
	c0,8.8-6.4,16-15.2,16H472h-16H256V112H492z"/>
<path d="M472,420h-16c-2.4,0-4-1.6-4-4v-24c0-2.4,1.6-4,4-4s4,1.6,4,4v20h8v-20c0-2.4,1.6-4,4-4s4,1.6,4,4v24
	C476,418.4,474.4,420,472,420z"/>
<path d="M44,396h-7.2c-11.2,0-20.8-9.2-20.8-20V112c0-2.4,1.6-4,4-4s4,1.6,4,4v264c0,6.4,6,12,12.8,12H44c2.4,0,4,1.6,4,4
	S46.4,396,44,396z"/>
<path d="M456,396H60c-2.4,0-4-1.6-4-4s1.6-4,4-4h396c2.4,0,4,1.6,4,4S458.4,396,456,396z"/>
<path d="M476.8,396H472c-2.4,0-4-1.6-4-4s1.6-4,4-4h4.8c6.4,0,11.2-5.2,11.2-12V112c0-2.4,1.6-4,4-4s4,1.6,4,4v264
	C496,387.2,487.6,396,476.8,396z"/>
<path d="M256,396c-2.4,0-4-1.6-4-4V112c0-2.4,1.6-4,4-4s4,1.6,4,4v280C260,394.4,258.4,396,256,396z"/>
<path d="M472,136h-16c-2.4,0-4-1.6-4-4s1.6-4,4-4h16c2.4,0,4,1.6,4,4S474.4,136,472,136z"/>
<path d="M440,136h-16c-2.4,0-4-1.6-4-4s1.6-4,4-4h16c2.4,0,4,1.6,4,4S442.4,136,440,136z"/>
<path d="M472,192c-2.4,0-4-1.6-4-4v-56c0-2.4,1.6-4,4-4s4,1.6,4,4v56C476,190.4,474.4,192,472,192z"/>
<path d="M40,292c-2.4,0-4-1.6-4-4v-8c0-2.4,1.6-4,4-4s4,1.6,4,4v8C44,290.4,42.4,292,40,292z"/>
<path d="M40,372c-2.4,0-4-1.6-4-4v-60c0-2.4,1.6-4,4-4s4,1.6,4,4v60C44,370.4,42.4,372,40,372z"/>
<path d="M60,420H44c-2.4,0-4-1.6-4-4v-24c0-2.4,1.6-4,4-4s4,1.6,4,4v20h8v-20c0-2.4,1.6-4,4-4s4,1.6,4,4v24
	C64,418.4,62.4,420,60,420z"/>
<path d="M222.8,264c-7.6,0-14-6.4-14-14s6.4-14,14-14s14,6.4,14,14S230.4,264,222.8,264z M222.8,244c-3.2,0-6,2.8-6,6s2.8,6,6,6
	s6-2.8,6-6S226,244,222.8,244z"/>
<path d="M290.8,264c-7.6,0-14-6.4-14-14s6.4-14,14-14s14,6.4,14,14S298.4,264,290.8,264z M290.8,244c-3.2,0-6,2.8-6,6s2.8,6,6,6
	s6-2.8,6-6S294,244,290.8,244z"/>
<path d="M508,116H4c-2.4,0-4-1.6-4-4V96c0-2.4,1.6-4,4-4h504c2.4,0,4,1.6,4,4v16C512,114.4,510.4,116,508,116z M8,108h496v-8H8V108z
	"/>
<path d="M60,396H44c-2.4,0-4-1.6-4-4s1.6-4,4-4h16c2.4,0,4,1.6,4,4S62.4,396,60,396z"/>
<path d="M474,396h-18c-2.4,0-4-1.6-4-4s1.6-4,4-4h18c2.4,0,4,1.6,4,4S476.4,396,474,396z"/>
<g>
</g>
<g>
</g>
<g>
</g>
<g>
</g>
<g>
</g>
<g>
</g>
<g>
</g>
<g>
</g>
<g>
</g>
<g>
</g>
<g>
</g>
<g>
</g>
<g>
</g>
<g>
</g>
<g>
</g>
</svg>
