<svg height="512" viewBox="0 0 50 60" width="512" xmlns="http://www.w3.org/2000/svg"><g id="Page-1" fill="none" fill-rule="evenodd"><g id="019---Book-Shelf" fill-rule="nonzero"><path id="Shape" d="m47 1h-44c-1.10320187.0032948-1.9967052.89679813-2 2v50c.0032948 1.1032019.89679813 1.9967052 2 2h44c1.1032019-.0032948 1.9967052-.8967981 2-2v-50c-.0032948-1.10320187-.8967981-1.9967052-2-2zm-2 49c0 .5522847-.4477153 1-1 1h-38c-.55228475 0-1-.4477153-1-1v-10c0-.5522847.44771525-1 1-1h38c.5522847 0 1 .4477153 1 1zm0-17c0 .5522847-.4477153 1-1 1h-38c-.55228475 0-1-.4477153-1-1v-10c0-.5522847.44771525-1 1-1h38c.5522847 0 1 .4477153 1 1zm0-17c0 .5522847-.4477153 1-1 1h-38c-.55228475 0-1-.4477153-1-1v-10c0-.55228475.44771525-1 1-1h38c.5522847 0 1 .44771525 1 1z" fill="#ff9701"/><path id="Shape" d="m47 1h-3c1.1032019.0032948 1.9967052.89679813 2 2v50c-.0032948 1.1032019-.8967981 1.9967052-2 2h3c1.1032019-.0032948 1.9967052-.8967981 2-2v-50c-.0032948-1.10320187-.8967981-1.9967052-2-2z" fill="#f47c00"/><rect id="Rectangle-path" fill="#9f522d" height="12" rx="1" width="40" x="5" y="5"/><path id="Shape" d="m44 5h-3c.5522847 0 1 .44771525 1 1v10c0 .5522847-.4477153 1-1 1h3c.5522847 0 1-.4477153 1-1v-10c0-.55228475-.4477153-1-1-1z" fill="#783e22"/><rect id="Rectangle-path" fill="#9f522d" height="12" rx="1" width="40" x="5" y="22"/><path id="Shape" d="m44 22h-3c.5522847 0 1 .4477153 1 1v10c0 .5522847-.4477153 1-1 1h3c.5522847 0 1-.4477153 1-1v-10c0-.5522847-.4477153-1-1-1z" fill="#783e22"/><rect id="Rectangle-path" fill="#9f522d" height="12" rx="1" width="40" x="5" y="39"/><path id="Shape" d="m44 39h-3c.5522847 0 1 .4477153 1 1v10c0 .5522847-.4477153 1-1 1h3c.5522847 0 1-.4477153 1-1v-10c0-.5522847-.4477153-1-1-1z" fill="#783e22"/><path id="Shape" d="m3 55h6v1c0 1.6568542-1.34314575 3-3 3s-3-1.3431458-3-3z" fill="#7f8d93"/><path id="Shape" d="m41 55h6v1c0 1.6568542-1.3431458 3-3 3s-3-1.3431458-3-3z" fill="#7f8d93"/><path id="Shape" d="m10 9h2c.5522847 0 1 .44771525 1 1v7h-4v-7c0-.55228475.44771525-1 1-1z" fill="#ee314c"/><path id="Shape" d="m14 9h2c.5522847 0 1 .44771525 1 1v7h-4v-7c0-.55228475.4477153-1 1-1z" fill="#02a8f3"/><path id="Shape" d="m18 9h2c.5522847 0 1 .44771525 1 1v7h-4v-7c0-.55228475.4477153-1 1-1z" fill="#ffdb00"/><path id="Shape" d="m10 26h3v8h-4v-7c0-.5522847.44771525-1 1-1z" fill="#02a8f3"/><path id="Rectangle-path" d="m13 22h4v12h-4z" fill="#ee314c"/><path id="Rectangle-path" d="m17 26h4v8h-4z" fill="#02a8f3"/><path id="Rectangle-path" d="m21 22h4v12h-4z" fill="#60a817"/><path id="Shape" d="m25 26h3c.5522847 0 1 .4477153 1 1v7h-4z" fill="#ffdb00"/><path id="Rectangle-path" d="m25 39h4v12h-4z" fill="#60a817"/><path id="Rectangle-path" d="m29 43h4v8h-4z" fill="#ee314c"/><path id="Rectangle-path" d="m33 39h4v12h-4z" fill="#ffdb00"/><path id="Shape" d="m37 43h3c.5522847 0 1 .4477153 1 1v7h-4z" fill="#02a8f3"/><path id="Shape" d="m30.892 14.411-1.307 2.589-8.091-4.422c-.458657-.2683618-.6273203-.8485812-.384-1.321l.872-1.732c.1078647-.22736777.3046124-.40027291.5439531-.47803498.2393406-.07776206.5001431-.05351553.7210469.06703498l7.253 3.977c.4610359.2656389.6333209.8457824.392 1.32z" fill="#ee314c"/><path id="Shape" d="m15.108 48.411 1.307 2.589 8.091-4.422c.458657-.2683618.6273203-.8485812.384-1.321l-.872-1.732c-.1078647-.2273678-.3046124-.4002729-.5439531-.478035-.2393406-.077762-.5001431-.0535155-.7210469.067035l-7.253 3.977c-.4610359.2656389-.6333209.8457824-.392 1.32z" fill="#02a8f3"/><g fill="#000"><path id="Shape" d="m2 55.816v.184c0 2.209139 1.790861 4 4 4s4-1.790861 4-4h30c0 2.209139 1.790861 4 4 4s4-1.790861 4-4v-.184c1.1943509-.4222546 1.9947486-1.5492146 2-2.816v-50c0-1.65685425-1.3431458-3-3-3h-44c-1.65685425 0-3 1.34314575-3 3v50c.00525139 1.2667854.80564914 2.3937454 2 2.816zm4 2.184c-1.1045695 0-2-.8954305-2-2h4c0 1.1045695-.8954305 2-2 2zm38 0c-1.1045695 0-2-.8954305-2-2h4c0 1.1045695-.8954305 2-2 2zm-42-55c0-.55228475.44771525-1 1-1h44c.5522847 0 1 .44771525 1 1v50c0 .5522847-.4477153 1-1 1h-44c-.55228475 0-1-.4477153-1-1z"/><path id="Shape" d="m6 18h38c1.1045695 0 2-.8954305 2-2v-10c0-1.1045695-.8954305-2-2-2h-38c-1.1045695 0-2 .8954305-2 2v10c0 1.1045695.8954305 2 2 2zm16-4.006 3.672 2.006h-3.672zm8-.034-.841 1.666-7.159-3.919.842-1.673 7.158 3.916zm-10 2.04h-2v-6h2zm-4 0h-2v-6h2zm-4 0h-2v-6h2zm-6-10h38v10h-12.791l.575-1.138c.4813171-.9548445.1294931-2.1193822-.8-2.648l-7.253-3.974c-.4489477-.25246073-.9819473-.30923206-1.474-.157-.3163643.09964965-.6013639.2798852-.827.523-.3749779-.38725178-.8909524-.6059095-1.43-.606h-2c-.3521367.00199983-.6973555.09797065-1 .278-.3026445-.18002935-.6478633-.27600017-1-.278h-2c-.3521367.00199983-.6973555.09797065-1 .278-.3026445-.18002935-.6478633-.27600017-1-.278h-2c-1.1045695 0-2 .8954305-2 2v6h-2z"/><path id="Shape" d="m6 35h38c1.1045695 0 2-.8954305 2-2v-10c0-1.1045695-.8954305-2-2-2h-38c-1.1045695 0-2 .8954305-2 2v10c0 1.1045695.8954305 2 2 2zm22-2h-2v-6h2zm-10-6h2v6h-2zm2-2h-2v-2h2zm-8 8h-2v-6h2zm32 0h-14v-6c0-1.1045695-.8954305-2-2-2h-2v-2h18zm-20-10v10h-2v-10zm-8 0v10h-2v-10zm-10 0h6v2h-2c-1.1045695 0-2 .8954305-2 2v6h-2z"/><path id="Shape" d="m6 52h38c1.1045695 0 2-.8954305 2-2v-10c0-1.1045695-.8954305-2-2-2h-38c-1.1045695 0-2 .8954305-2 2v10c0 1.1045695.8954305 2 2 2zm34-2h-2v-6h2zm-10-6h2v6h-2zm2-2h-2v-2h2zm-8 3.715-7.158 3.912-.842-1.667-.02.008 7.175-3.934.845 1.616zm0 2.279v2.006h-3.672zm20 2.006h-2v-6c0-1.1045695-.8954305-2-2-2h-2v-2h6zm-8-10v10h-2v-10zm-8 0v10h-2v-10zm-22 0h18v2.191c-.0829616-.0421258-.1688506-.0782192-.257-.108-.4908719-.1508565-1.0220156-.0952507-1.471.154l-7.251 3.977c-.9294931.5286178-1.2813171 1.6931555-.8 2.648l.57 1.138h-8.791z"/></g></g></g></svg>