<svg height="512" viewBox="0 0 64 64" width="512" xmlns="http://www.w3.org/2000/svg"><g id="Toilet"><path d="m23 63a4 4 0 0 0 4-4v-5h8v5a4 4 0 0 0 4 4z" fill="#86d1ef"/><path d="m25 54a7.009 7.009 0 0 1 -7-7v-7h26v7a7.009 7.009 0 0 1 -7 7z" fill="#ade1fa"/><path d="m35 1h6v7h-6z" fill="#86d1ef"/><path d="m21 28h20v6h-20z" fill="#ade1fa"/><path d="m17 8h28v20h-28z" fill="#d4effc"/><rect fill="#d4effc" height="6" rx="2" width="32" x="15" y="34"/><path d="m17 8h28v4h-28z" fill="#ade1fa"/><g fill="#38383d"><path d="m49 14.063h-3v-6.063a1 1 0 0 0 -1-1h-3v-6a1 1 0 0 0 -1-1h-6a1 1 0 0 0 -1 1v6h-17a1 1 0 0 0 -1 1v20a1 1 0 0 0 1 1h3v4h-3a3 3 0 0 0 -3 3v2a3 3 0 0 0 3 3v6a8.009 8.009 0 0 0 8 8h1v4a3 3 0 0 1 -3 3 1 1 0 0 0 0 2h16a1 1 0 0 0 0-2 3 3 0 0 1 -3-3v-4h1a8.009 8.009 0 0 0 8-8v-6a3 3 0 0 0 3-3v-2a3 3 0 0 0 -3-3h-3v-4h3a1 1 0 0 0 1-1v-11.937h2v2.937a1 1 0 0 0 2 0v-3.937a1 1 0 0 0 -1-1zm-13-12.063h4v5h-4zm-18 7h26v2h-26zm17 53h-8a4.973 4.973 0 0 0 1-3v-4h6v4a4.973 4.973 0 0 0 1 3zm8-15a6.006 6.006 0 0 1 -6 6h-12a6.006 6.006 0 0 1 -6-6v-6h24zm3-11v2a1 1 0 0 1 -1 1h-28a1 1 0 0 1 -1-1v-2a1 1 0 0 1 1-1h28a1 1 0 0 1 1 1zm-6-3h-18v-4h18zm4-6h-26v-14h26z"/><path d="m25 51a1 1 0 0 0 0-2 2 2 0 0 1 -2-2v-1a1 1 0 0 0 -2 0v1a4 4 0 0 0 4 4z"/></g></g></svg>