<svg height="512" viewBox="0 0 64 64" width="512" xmlns="http://www.w3.org/2000/svg"><g id="q"><g><g><path d="m61 19h-58l-2-6h62z" fill="#d46120"/><path d="m3 19h58v44h-58z" fill="#ad4d19"/><path d="m7 23h22v36h-22z" fill="#d46120"/><path d="m35 23h22v15h-22z" fill="#753511"/><path d="m35 44h22v15h-22z" fill="#753511"/><g fill="#71d6fc"><path d="m39 53h14c0 3.311-2.689 6-6 6h-2c-3.311 0-6-2.689-6-6z"/><path d="m52 38h-4l-1-6h6z"/><path d="m39 28h4v10h-4z"/></g></g><g><path d="m63.811 12.416c-.188-.261-.49-.416-.812-.416h-61.999c-.321 0-.623.154-.812.416-.188.261-.239.596-.137.901l1.948 5.845v43.838c0 .553.447 1 1 1h58.001c.553 0 1-.447 1-1v-43.839l1.948-5.845c.103-.305.051-.64-.137-.901zm-2.199 1.584-1.333 4h-56.558l-1.333-4zm-1.612 48h-56v-42h56z"/><path d="m7 60h22c.553 0 1-.447 1-1v-36c0-.552-.447-1-1-1h-22c-.553 0-1 .448-1 1v36c0 .553.447 1 1 1zm1-36h20v34h-20z"/><path d="m35 39h22c.553 0 1-.447 1-1v-15c0-.552-.447-1-1-1h-22c-.553 0-1 .448-1 1v15c0 .553.447 1 1 1zm5-2v-8h2v8zm8.847 0-.666-4h3.639l-.666 4zm-12.847-13h20v13h-2.82l.806-4.835c.049-.29-.033-.586-.224-.811-.189-.224-.469-.354-.763-.354h-6c-.294 0-.573.129-.763.354s-.272.521-.224.811l.806 4.835h-2.82v-9c0-.552-.447-1-1-1h-4c-.553 0-1 .448-1 1v9h-2v-13z"/><path d="m35 60h22c.553 0 1-.447 1-1v-15c0-.553-.447-1-1-1h-22c-.553 0-1 .447-1 1v15c0 .553.447 1 1 1zm10-2c-2.415 0-4.435-1.721-4.899-4h11.799c-.465 2.279-2.484 4-4.899 4h-2zm-9-13h20v13h-4.111c1.3-1.272 2.111-3.042 2.111-5 0-.553-.447-1-1-1h-14c-.553 0-1 .447-1 1 0 1.958.81 3.728 2.111 5h-4.111z"/><path d="m25 36c-.553 0-1 .447-1 1v8c0 .553.447 1 1 1s1-.447 1-1v-8c0-.553-.447-1-1-1z"/></g></g></g></svg>