<svg enable-background="new 0 0 256 256" height="512" viewBox="0 0 256 256" width="512" xmlns="http://www.w3.org/2000/svg"><g id="Layer_41"><g><g><g><path d="m47.988 171.372v77.041c0 2.809 2.277 5.086 5.086 5.086s5.086-2.277 5.086-5.086v-77.041z" fill="#dae6f1"/></g></g><g><g><path d="m200.206 44.21h-144.412c-7.304 0-13.247-5.942-13.247-13.247v-15.215c0-7.304 5.942-13.247 13.247-13.247h144.412c7.304 0 13.247 5.942 13.247 13.247v15.216c0 7.304-5.943 13.246-13.247 13.246z" fill="#dae6f1"/></g></g><g><path d="m202.991 109.317h-52.195c.122.661.194 1.339.194 2.035 0 6.18-5.01 11.19-11.19 11.19s-11.19-5.01-11.19-11.19c0-.696.072-1.374.194-2.035h-47.185c.122.661.194 1.339.194 2.035 0 6.18-5.01 11.19-11.19 11.19s-11.19-5.01-11.19-11.19c0-.696.072-1.374.194-2.035h-7.434c-2.322 0-4.204 1.882-4.204 4.204v47.678h159.207v-47.678c-.001-2.322-1.883-4.204-4.205-4.204z" fill="#3a70bf"/></g><g><path d="m208.093 161.199h-160.186c-2.809 0-5.086 2.277-5.086 5.086s2.277 5.086 5.086 5.086h160.185c2.809 0 5.086-2.277 5.086-5.086.001-2.809-2.276-5.086-5.085-5.086z" fill="#dae6f1"/></g><g><g><path d="m200.206 44.21h-144.412c-1.204 0-2.366-.176-3.475-.478v65.585h7.308c.958-5.207 5.512-9.156 10.997-9.156 5.484 0 10.039 3.948 10.997 9.156h47.183c.958-5.207 5.512-9.156 10.997-9.156 5.484 0 10.039 3.948 10.997 9.156h51.869v-65.345c-.8.151-1.62.238-2.461.238z" fill="#29589f"/></g></g><g><g><path d="m197.022 171.372v77.041c0 2.809 2.277 5.086 5.086 5.086s5.086-2.277 5.086-5.086v-77.041z" fill="#dae6f1"/></g></g><g><g><path d="m58.161 171.372h138.861v76.297h-138.861z" fill="#3a70bf"/></g></g><g><path d="m55.794 12.674c-1.666 0-3.074 1.408-3.074 3.074v15.216c0 1.666 1.408 3.074 3.074 3.074h21.531l-12.567-21.364z" fill="#5290db"/></g><g><path d="m64.758 12.674 12.567 21.363h14.162l-12.567-21.363z" fill="#ef4460"/></g><g><path d="m79 12.674 12.567 21.363h14.162l-12.566-21.363z" fill="#f5c84c"/></g><g><path d="m200.206 12.674h-107.043l12.567 21.363h94.477c1.666 0 3.074-1.408 3.074-3.074v-15.215c-.001-1.666-1.409-3.074-3.075-3.074z" fill="#5290db"/></g><g><path d="m78.461 171.372h-14.162l44.88 76.297h14.163z" fill="#f5c84c"/></g><g><path d="m95.216 247.669h13.963l-44.88-76.297h-6.138v13.304z" fill="#ef4460"/></g><g><path d="m186.904 53.366h-118.825c-3.647 0-6.604 2.957-6.604 6.604v32.57c0 3.647 2.957 7.622 6.604 7.622h118.826c3.647 0 6.604-3.974 6.604-7.622v-32.57c-.001-3.648-2.957-6.604-6.605-6.604z" fill="#70d6f9"/></g><g><path d="m184.253 79.939c-7.05 0-7.05-5.329-14.1-5.329-7.049 0-7.049 5.329-14.098 5.329-7.048 0-7.048-5.329-14.097-5.329-7.046 0-7.046 5.329-14.092 5.329-7.048 0-7.048-5.329-14.096-5.329-7.047 0-7.047 5.329-14.094 5.329s-7.047-5.329-14.094-5.329c-7.046 0-7.046 5.329-14.092 5.329-5.337 0-6.639-3.05-10.016-4.532v17.133c0 3.647 2.957 7.622 6.604 7.622h118.826c3.647 0 6.604-3.974 6.604-7.622v-16.756c-2.844 1.568-4.338 4.155-9.255 4.155z" fill="#b2e26d"/></g><g><path d="m61.474 89.708v2.832c0 3.647 2.957 7.622 6.604 7.622h118.826c3.647 0 6.604-3.974 6.604-7.622v-2.832z" fill="#fca265"/></g><g><circle cx="95.038" cy="124.844" fill="#f5c84c" r="6.438"/></g><g><circle cx="95.038" cy="145.672" fill="#f5c84c" r="6.438"/></g><g><circle cx="115.384" cy="124.844" fill="#3caadc" r="6.438"/></g><g><circle cx="115.384" cy="145.672" fill="#3caadc" r="6.438"/></g><g><circle cx="164.214" cy="124.844" fill="#f5c84c" r="6.438"/></g><g><circle cx="164.214" cy="145.672" fill="#f5c84c" r="6.438"/></g><g><circle cx="184.56" cy="124.844" fill="#3caadc" r="6.438"/></g><g><circle cx="184.56" cy="145.672" fill="#3caadc" r="6.438"/></g><g><path d="m70.623 122.542c-2.005 0-3.883-.534-5.51-1.458v11.631c0 3.031 2.48 5.51 5.51 5.51 3.031 0 5.51-2.48 5.51-5.51v-11.631c-1.627.924-3.505 1.458-5.51 1.458z" fill="#dae6f1"/></g><g><path d="m139.799 122.542c-2.005 0-3.883-.534-5.51-1.458v11.631c0 3.031 2.48 5.51 5.51 5.51s5.51-2.48 5.51-5.51v-11.631c-1.627.924-3.505 1.458-5.51 1.458z" fill="#dae6f1"/></g><g><circle cx="70.623" cy="111.351" fill="#ef4460" r="11.19"/></g><g><circle cx="139.799" cy="111.351" fill="#ef4460" r="11.19"/></g><g><path d="m238.637 65.309c-4.536-.845-8.112-4.347-8.974-8.791-.043-.223-.355-.223-.398 0-.862 4.444-4.438 7.947-8.974 8.791-.228.042-.228.348 0 .39 4.536.845 8.112 4.347 8.974 8.791.043.223.355.223.398 0 .862-4.444 4.438-7.947 8.974-8.791.228-.043.228-.348 0-.39z" fill="#f5c84c"/></g><g><path d="m32.435 110.736h-2.35v2.35c0 1.759-1.426 3.184-3.184 3.184s-3.184-1.426-3.184-3.184v-2.35h-2.349c-1.759 0-3.184-1.426-3.184-3.184s1.426-3.184 3.184-3.184h2.349v-2.35c0-1.759 1.426-3.184 3.184-3.184s3.184 1.426 3.184 3.184v2.35h2.35c1.759 0 3.184 1.426 3.184 3.184s-1.426 3.184-3.184 3.184z" fill="#3caadc"/></g><g><circle cx="34.457" cy="135.239" fill="#ef4460" r="3.406"/></g><g><circle cx="224.457" cy="24.239" fill="#ef4460" r="3.406"/></g><g><circle cx="215.457" cy="89.239" fill="#87d147" r="3.406"/></g><g><g><path d="m200.206 46.71h-144.412c-8.683 0-15.747-7.064-15.747-15.747v-15.215c0-8.683 7.064-15.747 15.747-15.747h144.412c8.683 0 15.747 7.064 15.747 15.747v15.216c0 8.682-7.064 15.746-15.747 15.746zm-144.412-41.709c-5.926 0-10.747 4.821-10.747 10.747v15.216c0 5.926 4.821 10.747 10.747 10.747h144.412c5.926 0 10.747-4.821 10.747-10.747v-15.216c0-5.926-4.821-10.747-10.747-10.747z"/></g></g><g><path d="m207.195 163.699h-159.207c-1.381 0-2.5-1.119-2.5-2.5v-47.678c0-3.696 3.007-6.704 6.704-6.704h7.435c.742 0 1.446.33 1.921.9s.672 1.322.538 2.052c-.103.558-.152 1.075-.152 1.582 0 4.792 3.898 8.69 8.69 8.69s8.69-3.898 8.69-8.69c0-.509-.05-1.026-.152-1.582-.135-.73.062-1.482.538-2.052.475-.571 1.179-.9 1.921-.9h47.183c.742 0 1.446.33 1.921.9s.672 1.322.538 2.052c-.103.558-.152 1.075-.152 1.582 0 4.792 3.898 8.69 8.69 8.69s8.69-3.898 8.69-8.69c0-.507-.05-1.024-.152-1.582-.135-.73.062-1.482.538-2.052.475-.571 1.179-.9 1.921-.9h52.196c3.696 0 6.704 3.007 6.704 6.704v47.678c-.003 1.381-1.122 2.5-2.503 2.5zm-156.707-5h154.207v-45.178c0-.939-.764-1.704-1.704-1.704h-49.51c-.246 7.334-6.29 13.225-13.683 13.225s-13.436-5.891-13.682-13.225h-41.811c-.246 7.334-6.289 13.225-13.682 13.225s-13.437-5.891-13.683-13.225h-4.749c-.939 0-1.704.764-1.704 1.704v45.178z"/></g><g><path d="m208.093 173.872h-160.186c-4.183 0-7.586-3.403-7.586-7.586 0-4.184 3.403-7.587 7.586-7.587h160.186c4.183 0 7.586 3.403 7.586 7.587 0 4.183-3.403 7.586-7.586 7.586zm-160.186-10.173c-1.426 0-2.586 1.161-2.586 2.587s1.16 2.586 2.586 2.586h160.186c1.426 0 2.586-1.16 2.586-2.586s-1.16-2.587-2.586-2.587z"/></g><g><g><path d="m202.664 111.817h-51.869c-1.206 0-2.24-.861-2.458-2.048-.758-4.119-4.349-7.108-8.538-7.108s-7.78 2.989-8.538 7.108c-.218 1.187-1.252 2.048-2.458 2.048h-47.183c-1.206 0-2.24-.861-2.459-2.048-.757-4.119-4.348-7.108-8.538-7.108s-7.78 2.989-8.538 7.108c-.218 1.187-1.252 2.048-2.458 2.048h-7.308c-1.381 0-2.5-1.119-2.5-2.5v-65.585c0-.779.363-1.514.982-1.986.62-.474 1.424-.631 2.175-.426.951.259 1.899.39 2.819.39h144.412c.639 0 1.311-.065 1.995-.194.731-.138 1.486.057 2.059.532s.904 1.181.904 1.925v65.345c-.001 1.38-1.12 2.499-2.501 2.499zm-49.952-5h47.452v-60.107h-144.37c-.324 0-.649-.011-.976-.032v60.139h2.892c1.892-5.412 7.028-9.156 12.913-9.156s11.021 3.744 12.913 9.156h43.35c1.892-5.412 7.027-9.156 12.913-9.156s11.021 3.744 12.913 9.156z"/></g></g><g><path d="m184.46 25.855h-66.125c-1.381 0-2.5-1.119-2.5-2.5s1.119-2.5 2.5-2.5h66.125c1.381 0 2.5 1.119 2.5 2.5s-1.119 2.5-2.5 2.5z"/></g><g><g><path d="m202.108 255.999c-4.183 0-7.586-3.403-7.586-7.586v-77.041c0-1.381 1.119-2.5 2.5-2.5h10.173c1.381 0 2.5 1.119 2.5 2.5v77.041c0 4.183-3.403 7.586-7.587 7.586zm-2.586-82.127v74.541c0 1.426 1.16 2.586 2.586 2.586s2.586-1.16 2.586-2.586v-74.541z"/></g></g><g><g><path d="m53.075 255.999c-4.183 0-7.586-3.403-7.586-7.586v-77.041c0-1.381 1.119-2.5 2.5-2.5h10.173c1.381 0 2.5 1.119 2.5 2.5v77.041c-.001 4.183-3.404 7.586-7.587 7.586zm-2.587-82.127v74.541c0 1.426 1.16 2.586 2.586 2.586s2.586-1.16 2.586-2.586v-74.541z"/></g></g><g><g><path d="m197.022 250.169h-138.861c-1.381 0-2.5-1.119-2.5-2.5v-76.297c0-1.381 1.119-2.5 2.5-2.5h138.861c1.381 0 2.5 1.119 2.5 2.5v76.297c0 1.381-1.119 2.5-2.5 2.5zm-136.361-5h133.861v-71.297h-133.861z"/></g></g><g><path d="m117.745 221.627c-.857 0-1.691-.441-2.157-1.233l-16.056-27.296c-.7-1.19-.303-2.722.887-3.422 1.19-.701 2.723-.303 3.422.887l16.056 27.296c.7 1.19.303 2.722-.887 3.422-.398.235-.835.346-1.265.346z"/></g><g><path d="m77.325 36.537h-21.531c-3.021 0-5.574-2.552-5.574-5.574v-15.215c0-3.021 2.552-5.574 5.574-5.574h8.964c.886 0 1.706.469 2.155 1.232l12.566 21.364c.455.773.46 1.73.015 2.509-.444.778-1.272 1.258-2.169 1.258zm-21.531-21.363c-.284 0-.574.29-.574.574v15.216c0 .284.29.574.574.574h17.16l-9.625-16.363h-7.535z"/></g><g><path d="m91.487 36.537h-14.162c-.886 0-1.706-.469-2.155-1.232l-12.566-21.364c-.455-.773-.46-1.73-.015-2.509.445-.778 1.273-1.259 2.17-1.259h14.161c.886 0 1.706.469 2.155 1.232l12.567 21.365c.455.773.46 1.73.015 2.509-.445.778-1.273 1.258-2.17 1.258zm-12.733-5h8.362l-9.625-16.363h-8.361z"/></g><g><path d="m105.729 36.537h-14.162c-.886 0-1.706-.469-2.155-1.232l-12.567-21.364c-.455-.773-.46-1.73-.015-2.509.445-.778 1.273-1.259 2.17-1.259h14.163c.886 0 1.706.469 2.155 1.232l12.566 21.363c.455.773.46 1.73.015 2.509-.445.78-1.273 1.26-2.17 1.26zm-12.732-5h8.361l-9.625-16.363h-8.362z"/></g><g><path d="m200.206 36.537h-94.477c-.886 0-1.706-.469-2.155-1.232l-12.566-21.364c-.455-.773-.46-1.73-.015-2.509.445-.778 1.273-1.259 2.17-1.259h107.043c3.021 0 5.574 2.552 5.574 5.574v15.216c0 3.022-2.552 5.574-5.574 5.574zm-93.047-5h93.047c.284 0 .574-.29.574-.574v-15.215c0-.284-.29-.574-.574-.574h-102.672z"/></g><g><path d="m123.342 250.169h-14.163c-.886 0-1.706-.469-2.155-1.232l-44.88-76.297c-.455-.773-.46-1.73-.015-2.509.445-.778 1.273-1.259 2.17-1.259h14.162c.886 0 1.706.469 2.155 1.232l44.881 76.297c.455.773.46 1.73.015 2.509-.445.778-1.273 1.259-2.17 1.259zm-12.733-5h8.362l-41.939-71.297h-8.362z"/></g><g><path d="m109.179 250.169h-13.963c-.886 0-1.706-.469-2.155-1.232l-37.055-62.993c-.226-.384-.345-.822-.345-1.268v-13.304c0-1.381 1.119-2.5 2.5-2.5h6.138c.886 0 1.706.469 2.155 1.232l44.88 76.297c.455.773.46 1.73.015 2.509-.445.778-1.273 1.259-2.17 1.259zm-12.533-5h8.163l-41.939-71.297h-2.208v10.124z"/></g><g><path d="m186.904 102.661h-118.825c-5.21 0-9.104-5.344-9.104-10.122v-32.569c0-5.02 4.084-9.104 9.104-9.104h118.826c5.02 0 9.104 4.084 9.104 9.104v32.57c-.001 4.777-3.894 10.121-9.105 10.121zm-118.825-46.795c-2.263 0-4.104 1.841-4.104 4.104v32.57c0 2.306 1.894 5.122 4.104 5.122h118.826c2.21 0 4.104-2.816 4.104-5.122v-32.57c0-2.263-1.841-4.104-4.104-4.104z"/></g><g><path d="m186.904 102.661h-118.825c-5.21 0-9.104-5.344-9.104-10.122v-17.132c0-.844.426-1.631 1.133-2.093s1.599-.535 2.372-.196c1.414.62 2.501 1.44 3.461 2.164 1.661 1.252 2.862 2.157 5.549 2.157 2.684 0 3.881-.905 5.539-2.159 1.868-1.413 4.192-3.17 8.554-3.17s6.687 1.758 8.555 3.17c1.657 1.253 2.854 2.159 5.539 2.159s3.882-.905 5.539-2.159c1.868-1.413 4.192-3.17 8.555-3.17s6.688 1.758 8.556 3.17c1.657 1.253 2.855 2.159 5.54 2.159 2.684 0 3.881-.905 5.538-2.158 1.868-1.413 4.192-3.171 8.555-3.171s6.688 1.758 8.556 3.17c1.658 1.253 2.855 2.159 5.541 2.159s3.883-.905 5.541-2.159c1.869-1.413 4.193-3.17 8.557-3.17s6.689 1.758 8.557 3.17c1.658 1.253 2.856 2.159 5.542 2.159 2.69 0 3.892-.905 5.554-2.159.754-.568 1.535-1.156 2.495-1.686.774-.426 1.717-.413 2.478.037s1.229 1.268 1.229 2.152v16.757c-.002 4.777-3.895 10.121-9.106 10.121zm-122.929-22.618v12.497c0 2.306 1.894 5.122 4.104 5.122h118.826c2.21 0 4.104-2.816 4.104-5.122v-11.987c-1.607 1.011-3.674 1.886-6.755 1.886-4.363 0-6.689-1.758-8.557-3.17-1.658-1.253-2.856-2.159-5.542-2.159s-3.883.905-5.541 2.159c-1.869 1.413-4.193 3.17-8.557 3.17-4.363 0-6.688-1.758-8.556-3.17-1.658-1.253-2.855-2.159-5.541-2.159-2.684 0-3.881.905-5.539 2.159-1.868 1.413-4.192 3.17-8.554 3.17-4.363 0-6.688-1.758-8.556-3.17-1.657-1.253-2.855-2.159-5.54-2.159s-3.882.905-5.54 2.159c-1.868 1.413-4.192 3.17-8.555 3.17s-6.687-1.758-8.555-3.17c-1.657-1.253-2.854-2.159-5.539-2.159-2.684 0-3.881.905-5.539 2.159-1.868 1.413-4.192 3.17-8.554 3.17-3.589 0-5.801-1.189-7.514-2.396z"/></g><g><path d="m186.904 102.661h-118.825c-5.21 0-9.104-5.344-9.104-10.122v-2.832c0-1.381 1.119-2.5 2.5-2.5h132.034c1.381 0 2.5 1.119 2.5 2.5v2.832c-.001 4.778-3.894 10.122-9.105 10.122zm-122.929-10.453v.332c0 2.306 1.894 5.122 4.104 5.122h118.826c2.21 0 4.104-2.816 4.104-5.122v-.332z"/></g><g><path d="m95.038 133.782c-4.929 0-8.938-4.01-8.938-8.938 0-4.929 4.01-8.938 8.938-8.938s8.938 4.01 8.938 8.938c.001 4.928-4.009 8.938-8.938 8.938zm0-12.876c-2.172 0-3.938 1.767-3.938 3.938s1.767 3.938 3.938 3.938 3.938-1.767 3.938-3.938c.001-2.172-1.766-3.938-3.938-3.938z"/></g><g><path d="m95.038 154.61c-4.929 0-8.938-4.01-8.938-8.938s4.01-8.938 8.938-8.938 8.938 4.01 8.938 8.938-4.009 8.938-8.938 8.938zm0-12.877c-2.172 0-3.938 1.767-3.938 3.938s1.767 3.938 3.938 3.938 3.938-1.767 3.938-3.938-1.766-3.938-3.938-3.938z"/></g><g><path d="m115.384 133.782c-4.929 0-8.938-4.01-8.938-8.938 0-4.929 4.01-8.938 8.938-8.938s8.938 4.01 8.938 8.938-4.01 8.938-8.938 8.938zm0-12.876c-2.172 0-3.938 1.767-3.938 3.938s1.767 3.938 3.938 3.938 3.938-1.767 3.938-3.938c0-2.172-1.766-3.938-3.938-3.938z"/></g><g><path d="m115.384 154.61c-4.929 0-8.938-4.01-8.938-8.938s4.01-8.938 8.938-8.938 8.938 4.01 8.938 8.938-4.01 8.938-8.938 8.938zm0-12.877c-2.172 0-3.938 1.767-3.938 3.938s1.767 3.938 3.938 3.938 3.938-1.767 3.938-3.938-1.766-3.938-3.938-3.938z"/></g><g><path d="m164.214 133.782c-4.929 0-8.938-4.01-8.938-8.938 0-4.929 4.01-8.938 8.938-8.938s8.938 4.01 8.938 8.938-4.009 8.938-8.938 8.938zm0-12.876c-2.172 0-3.938 1.767-3.938 3.938s1.767 3.938 3.938 3.938 3.938-1.767 3.938-3.938c0-2.172-1.766-3.938-3.938-3.938z"/></g><g><path d="m164.214 154.61c-4.929 0-8.938-4.01-8.938-8.938s4.01-8.938 8.938-8.938 8.938 4.01 8.938 8.938-4.009 8.938-8.938 8.938zm0-12.877c-2.172 0-3.938 1.767-3.938 3.938s1.767 3.938 3.938 3.938 3.938-1.767 3.938-3.938-1.766-3.938-3.938-3.938z"/></g><g><path d="m184.56 133.782c-4.929 0-8.938-4.01-8.938-8.938 0-4.929 4.01-8.938 8.938-8.938s8.938 4.01 8.938 8.938c.001 4.928-4.009 8.938-8.938 8.938zm0-12.876c-2.172 0-3.938 1.767-3.938 3.938s1.767 3.938 3.938 3.938 3.938-1.767 3.938-3.938c.001-2.172-1.766-3.938-3.938-3.938z"/></g><g><path d="m184.56 154.61c-4.929 0-8.938-4.01-8.938-8.938s4.01-8.938 8.938-8.938 8.938 4.01 8.938 8.938-4.009 8.938-8.938 8.938zm0-12.877c-2.172 0-3.938 1.767-3.938 3.938s1.767 3.938 3.938 3.938 3.938-1.767 3.938-3.938-1.766-3.938-3.938-3.938z"/></g><g><path d="m70.623 140.725c-4.417 0-8.011-3.593-8.011-8.01v-11.631c0-.89.473-1.712 1.242-2.161.768-.447 1.718-.453 2.492-.014 2.609 1.48 5.943 1.48 8.553 0 .773-.439 1.722-.434 2.492.014.769.448 1.242 1.271 1.242 2.161v11.631c0 4.417-3.593 8.01-8.01 8.01zm-3.011-16.021v8.011c0 1.66 1.351 3.01 3.011 3.01s3.01-1.351 3.01-3.01v-8.011c-1.97.447-4.049.447-6.021 0z"/></g><g><path d="m139.799 140.725c-4.417 0-8.01-3.593-8.01-8.01v-11.631c0-.89.473-1.712 1.242-2.161.768-.447 1.718-.453 2.492-.014 2.609 1.48 5.944 1.48 8.553 0 .773-.439 1.722-.434 2.492.014.769.448 1.242 1.271 1.242 2.161v11.631c0 4.417-3.594 8.01-8.011 8.01zm-3.01-16.021v8.011c0 1.66 1.351 3.01 3.01 3.01 1.66 0 3.011-1.351 3.011-3.01v-8.011c-1.972.447-4.051.447-6.021 0z"/></g><g><path d="m70.623 125.042c-7.549 0-13.69-6.141-13.69-13.69s6.142-13.69 13.69-13.69 13.69 6.142 13.69 13.69-6.141 13.69-13.69 13.69zm0-22.381c-4.792 0-8.69 3.898-8.69 8.69s3.898 8.69 8.69 8.69 8.69-3.898 8.69-8.69c0-4.791-3.898-8.69-8.69-8.69z"/></g><g><path d="m139.799 125.042c-7.549 0-13.69-6.141-13.69-13.69s6.141-13.69 13.69-13.69 13.69 6.142 13.69 13.69-6.141 13.69-13.69 13.69zm0-22.381c-4.792 0-8.69 3.898-8.69 8.69s3.898 8.69 8.69 8.69 8.69-3.898 8.69-8.69c0-4.791-3.898-8.69-8.69-8.69z"/></g></g></g></svg>