<svg height="512" viewBox="0 0 64 64" width="512" xmlns="http://www.w3.org/2000/svg"><g id="Bathtub"><path d="m49 63-4-5h9v5z" fill="#dbaaa2"/><path d="m10 63v-5h9l-4 5z" fill="#dbaaa2"/><path d="m10 58a5.006 5.006 0 0 1 -5-5v-9a11.809 11.809 0 0 0 -2.969-7.64 3.2 3.2 0 0 0 1.189.66 100.177 100.177 0 0 0 28.78 4.22 100.18 100.18 0 0 0 28.78-4.22 3.192 3.192 0 0 0 1.19-.66 11.838 11.838 0 0 0 -2.97 7.64v9a5.006 5.006 0 0 1 -5 5z" fill="#f2cac1"/><path d="m54 9a4 4 0 0 0 -8 0v2.54a3.986 3.986 0 0 0 -4 0v-2.54a8 8 0 0 1 16 0v22.44c-1.336.391-2.682.745-4 1.051z" fill="#f2cac1"/><path d="m32 41.257a100.463 100.463 0 0 1 -28.783-4.235 3.087 3.087 0 0 1 -1.858-1.522 3.04 3.04 0 0 1 -.218-2.352 3.092 3.092 0 0 1 2.924-2.148 2.994 2.994 0 0 1 .855.125 94.647 94.647 0 0 0 27.08 3.963 94.659 94.659 0 0 0 27.081-3.961 2.977 2.977 0 0 1 .854-.127 3.092 3.092 0 0 1 2.924 2.15 3.04 3.04 0 0 1 -.218 2.352 3.087 3.087 0 0 1 -1.858 1.518 100.469 100.469 0 0 1 -28.783 4.237z" fill="#f9e0dc"/><path d="m14 48v-16a2 2 0 0 1 2-2h4a2 2 0 0 1 2 2v16z" fill="#d4effc"/><path d="m14 45h8v4h-8z" fill="#ade1fa"/><path d="m40 18v-3a4 4 0 0 1 8 0v3z" fill="#f9e0dc"/><g fill="#38383d"><path d="m64 34.06a4.193 4.193 0 0 0 -.186-1.209 4.057 4.057 0 0 0 -4.814-2.719v-21.132a9 9 0 0 0 -18 0v2.026a4.977 4.977 0 0 0 -2 3.974v3a1 1 0 0 0 1 1h8a1 1 0 0 0 1-1v-3a4.977 4.977 0 0 0 -2-3.974v-2.026a3 3 0 0 1 6 0v22.692a93.283 93.283 0 0 1 -21 2.418c-2.248 0-4.579-.087-6.927-.257a1 1 0 1 0 -.146 1.994c2.4.174 4.777.263 7.073.263a98.215 98.215 0 0 0 27.367-4.022 2.053 2.053 0 0 1 2.535 1.35 2.191 2.191 0 0 1 .1.622 2.078 2.078 0 0 1 -1.507 2 99.629 99.629 0 0 1 -35.425 3.959 1.015 1.015 0 0 0 -1.066.93 1 1 0 0 0 .93 1.067c2.341.16 4.719.242 7.068.242a101.1 101.1 0 0 0 27.354-3.8 12.28 12.28 0 0 0 -1.356 5.542v9a4 4 0 0 1 -4 4h-44a4 4 0 0 1 -4-4v-9a12.269 12.269 0 0 0 -1.355-5.544c2.005.565 4.055 1.093 6.146 1.544a.945.945 0 0 0 .21.023 1 1 0 0 0 .208-1.978c-2.634-.565-5.225-1.231-7.7-1.981a2.089 2.089 0 0 1 -1.257-1.022 2.057 2.057 0 0 1 2.388-2.95c2.16.641 4.17 1.171 6.145 1.617a1 1 0 1 0 .44-1.951c-1.93-.437-3.9-.954-6-1.58a3.935 3.935 0 0 0 -1.175-.178 4.063 4.063 0 0 0 -3.567 5.982 4.108 4.108 0 0 0 .765.989c.015.017.02.038.036.054a10.8 10.8 0 0 1 2.716 6.975v9a6.006 6.006 0 0 0 5 5.91v4.09a1 1 0 0 0 1 1h5a1 1 0 0 0 .781-.375l3.7-4.625h25.038l3.7 4.625a1 1 0 0 0 .781.375h5a1 1 0 0 0 1-1v-4.09a6.006 6.006 0 0 0 5-5.91v-9a10.884 10.884 0 0 1 2.693-6.95 4.05 4.05 0 0 0 1.307-2.99zm-17-17.06h-6v-2a2.992 2.992 0 0 1 1.588-2.631 2.942 2.942 0 0 1 2.824 0 2.993 2.993 0 0 1 1.588 2.631zm3-13a5.006 5.006 0 0 0 -5 5v1.1a5 5 0 0 0 -2 0v-1.1a7 7 0 0 1 14 0v21.672c-1.11.308-.546.17-2 .539v-22.211a5.006 5.006 0 0 0 -5-5zm-35.48 58h-3.52v-3h5.919zm38.48 0h-3.52l-2.4-3h5.92z"/><path d="m44 23a1 1 0 0 0 1-1v-1a1 1 0 0 0 -2 0v1a1 1 0 0 0 1 1z"/><path d="m40 23a1 1 0 0 0 1-1v-1a1 1 0 0 0 -2 0v1a1 1 0 0 0 1 1z"/><path d="m48 23a1 1 0 0 0 1-1v-1a1 1 0 0 0 -2 0v1a1 1 0 0 0 1 1z"/><path d="m43 26a1 1 0 0 0 2 0v-1a1 1 0 0 0 -2 0z"/><path d="m40 27a1 1 0 0 0 1-1v-1a1 1 0 0 0 -2 0v1a1 1 0 0 0 1 1z"/><path d="m47 26a1 1 0 0 0 2 0v-1a1 1 0 0 0 -2 0z"/><path d="m43 30a1 1 0 0 0 2 0v-1a1 1 0 0 0 -2 0z"/><path d="m40 31a1 1 0 0 0 1-1v-1a1 1 0 0 0 -2 0v1a1 1 0 0 0 1 1z"/><path d="m47 30a1 1 0 0 0 2 0v-1a1 1 0 0 0 -2 0z"/><path d="m14 53a1 1 0 0 0 1-1v-2h2v2a1 1 0 0 0 2 0v-2h2v2a1 1 0 0 0 2 0v-20a3 3 0 0 0 -3-3h-4a3 3 0 0 0 -3 3v20a1 1 0 0 0 1 1zm1-7h6v2h-6zm1-15h4a1 1 0 0 1 1 1v12h-6v-12a1 1 0 0 1 1-1z"/></g></g></svg>