<svg height="512" viewBox="0 0 64 64" width="512" xmlns="http://www.w3.org/2000/svg"><g id="Bed"><path d="m7 32v-10a4 4 0 0 1 4-4 2 2 0 0 0 2-2 4 4 0 0 1 4-4h2.61l.246-.643a13 13 0 0 1 24.288 0l.246.643h2.61a4 4 0 0 1 4 4 2 2 0 0 0 2 2 4 4 0 0 1 4 4v10z" fill="#d4effc"/><path d="m11 32v-10a6.006 6.006 0 0 0 6-6h5.955l.09-.9a9 9 0 0 1 17.91 0l.09.9h5.955a6.006 6.006 0 0 0 6 6v10z" fill="#ade1fa"/><path d="m17 32v-3a3 3 0 0 1 3-3h6a3 3 0 0 1 3 3v3z" fill="#86d1ef"/><path d="m35 32v-3a3 3 0 0 1 3-3h6a3 3 0 0 1 3 3v3z" fill="#86d1ef"/><path d="m3 48v-12a4 4 0 0 1 4-4h50a4 4 0 0 1 4 4v12z" fill="#f9e0dc"/><path d="m53 61-4-7h10v7z" fill="#e2b2aa"/><path d="m5 61v-7h10l-4 7z" fill="#e2b2aa"/><path d="m3 38v-2a4 4 0 0 1 4-4h50a4 4 0 0 1 4 4v2z" fill="#f2cac1"/><path d="m1 48h62v6h-62z" fill="#f2cac1"/><path d="m63 47h-1v-11a5.009 5.009 0 0 0 -4-4.9v-9.1a5.006 5.006 0 0 0 -5-5 1 1 0 0 1 -1-1 5.006 5.006 0 0 0 -5-5h-1.922a14 14 0 0 0 -26.156 0h-1.922a5.006 5.006 0 0 0 -5 5 1 1 0 0 1 -1 1 5.006 5.006 0 0 0 -5 5v9.1a5.009 5.009 0 0 0 -4 4.9v11h-1a1 1 0 0 0 -1 1v6a1 1 0 0 0 1 1h3v6a1 1 0 0 0 1 1h6a1 1 0 0 0 .868-.5l3.712-6.5h32.84l3.712 6.5a1 1 0 0 0 .868.5h6a1 1 0 0 0 1-1v-6h3a1 1 0 0 0 1-1v-6a1 1 0 0 0 -1-1zm-55-25a3 3 0 0 1 3-3 3 3 0 0 0 3-3 3 3 0 0 1 3-3h2.629a1 1 0 0 0 .952-.692 12 12 0 0 1 22.838 0 1 1 0 0 0 .952.692h2.629a3 3 0 0 1 3 3 3 3 0 0 0 3 3 3 3 0 0 1 3 3v9h-2v-9a1 1 0 0 0 -1-1 5.006 5.006 0 0 1 -5-5 1 1 0 0 0 -1-1h-5.05a10 10 0 0 0 -19.9 0h-5.05a1 1 0 0 0 -1 1 5.006 5.006 0 0 1 -5 5 1 1 0 0 0 -1 1v9h-2zm38 9h-10v-2a2 2 0 0 1 2-2h6a2 2 0 0 1 2 2zm-2-6h-6a4 4 0 0 0 -4 4v2h-4v-2a4 4 0 0 0 -4-4h-6a4 4 0 0 0 -4 4v2h-4v-8.071a7.018 7.018 0 0 0 5.929-5.929h5.071a1 1 0 0 0 1-1 8 8 0 0 1 16 0 1 1 0 0 0 1 1h5.071a7.018 7.018 0 0 0 5.929 5.929v8.071h-4v-2a4 4 0 0 0 -4-4zm-16 6h-10v-2a2 2 0 0 1 2-2h6a2 2 0 0 1 2 2zm-21 2h50a3 3 0 0 1 3 3v1h-56v-1a3 3 0 0 1 3-3zm-3 6h56v8h-56zm6.42 21h-4.42v-5h7.277zm47.58 0h-4.42l-2.857-5h7.277zm4-7h-60v-4h60z" fill="#38383d"/></g></svg>