<svg height="512" viewBox="0 0 64 64" width="512" xmlns="http://www.w3.org/2000/svg"><g id="Book_shelf" data-name="Book shelf"><path d="m55 63a6.006 6.006 0 0 0 -6-6h13v6z" fill="#f2cac1"/><path d="m2 63v-6h13a6.006 6.006 0 0 0 -6 6z" fill="#f2cac1"/><path d="m2 57v-52a4 4 0 0 1 4-4h52a4 4 0 0 1 4 4v52z" fill="#f9e0dc"/><path d="m34 5h24v48h-24z" fill="#f2cac1"/><path d="m6 5h24v48h-24z" fill="#f2cac1"/><path d="m17.983 29a5.715 5.715 0 0 1 -3.427-1.054 3.878 3.878 0 0 1 -1.556-3.172 6.96 6.96 0 0 1 1.525-4.241l.45-.57-1.975-2.963h10l-1.975 2.963.45.57a6.96 6.96 0 0 1 1.525 4.241c0 2.774-2.523 4.226-5.017 4.226z" fill="#bc8079"/><path d="m38 17h16v6h-16z" fill="#d4effc"/><path d="m38 23h16v6h-16z" fill="#ade1fa"/><path d="m45 24h6v4h-6z" fill="#86d1ef" transform="matrix(0 1 -1 0 74 -22)"/><path d="m45 18h6v4h-6z" fill="#ade1fa" transform="matrix(0 1 -1 0 68 -28)"/><path d="m10 47h16v6h-16z" fill="#ade1fa"/><path d="m10 41h16v6h-16z" fill="#d4effc"/><path d="m18 47h4v6h-4z" fill="#86d1ef"/><path d="m18 41h4v6h-4z" fill="#ade1fa"/><path d="m38 37h6v16h-6z" fill="#d4effc"/><path d="m38 41h6v4h-6z" fill="#ade1fa"/><path d="m45.959 36.491h6v16h-6z" fill="#ade1fa" transform="matrix(.967 -.256 .256 .967 -9.769 14.037)"/><path d="m45.446 40.558h6v4h-6z" fill="#86d1ef" transform="matrix(.967 -.256 .256 .967 -9.29 13.841)"/><g fill="#38383d"><path d="m58 0h-52a5.006 5.006 0 0 0 -5 5v58a1 1 0 0 0 1 1h7a1 1 0 0 0 1-1 5.006 5.006 0 0 1 5-5h34a5.006 5.006 0 0 1 5 5 1 1 0 0 0 1 1h7a1 1 0 0 0 1-1v-58a5.006 5.006 0 0 0 -5-5zm-49.929 62h-5.071v-4h7.105a6.991 6.991 0 0 0 -2.034 4zm-5.071-6v-51a3 3 0 0 1 3-3h52a3 3 0 0 1 3 3v51zm58 6h-5.071a6.991 6.991 0 0 0 -2.029-4h7.1z"/><path d="m34 54h24a1 1 0 0 0 1-1v-48a1 1 0 0 0 -1-1h-24a1 1 0 0 0 -1 1v48a1 1 0 0 0 1 1zm11.231-15.762 3.869-1.026.512 1.933-3.868 1.025zm-2.231 5.762h-4v-2h4zm7.636-.988-3.866 1.025-.513-1.937 3.866-1.025zm.513 1.933 1.538 5.8-3.867 1.025-1.538-5.8zm-6.149.222 1.812 6.833h-1.812zm-2-5.167h-4v-2h4zm-4 12v-6h4v6zm15.736 0a.986.986 0 0 0 .14-.8l-4.1-15.465a1 1 0 0 0 -1.222-.711l-4.837 1.283a1 1 0 0 0 -.717-.307h-6a1 1 0 0 0 -1 1v15h-2v-22h22v22zm-1.736-34v4h-2v-4zm-6 6h2v4h-2zm4 0h2v4h-2zm-2-2h-2v-4h2zm-4 0h-6v-4h6zm-6 2h6v4h-6zm18-18v22h-2v-11a1 1 0 0 0 -1-1h-16a1 1 0 0 0 -1 1v11h-2v-22z"/><path d="m30 54a1 1 0 0 0 1-1v-48a1 1 0 0 0 -1-1h-24a1 1 0 0 0 -1 1v48a1 1 0 0 0 1 1zm-11-2v-4h2v4zm0-10h2v4h-2zm-2 4h-6v-4h6zm8-4v4h-2v-4zm-2 10v-4h2v4zm6-46v22h-6.176a4.775 4.775 0 0 0 1.176-3.226 7.928 7.928 0 0 0 -1.74-4.861l1.572-2.358a1 1 0 0 0 -.832-1.555h-10a1 1 0 0 0 -.832 1.555l1.572 2.358a7.928 7.928 0 0 0 -1.74 4.861 4.882 4.882 0 0 0 1.164 3.226h-6.164v-22zm-15 18.774a6.044 6.044 0 0 1 1.679-4.04 1 1 0 0 0 .153-1.289l-.963-1.445h6.262l-.963 1.445a1 1 0 0 0 .153 1.289 5.937 5.937 0 0 1 1.679 4.04c0 2.217-2.082 3.226-4.017 3.226-1.483 0-3.983-.679-3.983-3.226zm-7 5.226h22v22h-2v-11a1 1 0 0 0 -1-1h-16a1 1 0 0 0 -1 1v11h-2zm4 18h6v4h-6z"/></g></g></svg>