<svg height="512" viewBox="0 0 64 64" width="512" xmlns="http://www.w3.org/2000/svg"><g id="Cabinet"><path d="m8 57v-40a6.954 6.954 0 0 0 -2.05-4.95 6.954 6.954 0 0 0 -4.95-2.05h62a7 7 0 0 0 -7 7v40z" fill="#f9e0dc"/><path d="m14 20h36v32h-36z" fill="#d4effc"/><path d="m32 20h18v32h-18z" fill="#ade1fa"/><path d="m47 62-4-5h10v5z" fill="#f2cac1"/><path d="m11 62v-5h10l-4 5z" fill="#f2cac1"/><path d="m14 52h36v5h-36z" fill="#f9e0dc"/><path d="m50 57v-47h13a7.008 7.008 0 0 0 -7 7v40z" fill="#f2cac1"/><path d="m8 57v-40a7.008 7.008 0 0 0 -7-7h13v47z" fill="#f2cac1"/><path d="m1 4h62v6h-62z" fill="#dbaaa2"/><g fill="#38383d"><path d="m63 3h-62a1 1 0 0 0 -1 1v6a1 1 0 0 0 1 1 6.006 6.006 0 0 1 6 6v39h-2a1 1 0 0 0 0 2h5v4a1 1 0 0 0 1 1h6a1 1 0 0 0 .781-.375l3.699-4.625h21.04l3.7 4.625a1 1 0 0 0 .78.375h6a1 1 0 0 0 1-1v-4h5a1 1 0 0 0 0-2h-2v-39a6.006 6.006 0 0 1 6-6 1 1 0 0 0 1-1v-6a1 1 0 0 0 -1-1zm-61 2h60v4h-60zm13 51v-3h34v3zm34-35v30h-16v-30zm-18 30h-16v-30h16zm18-32h-34v-8h34zm-42.714-8h6.714v45h-4v-39a7.984 7.984 0 0 0 -2.714-6zm10.234 50h-4.52v-3h6.919zm35.48 0h-4.52l-2.4-3h6.92zm3-44v39h-4v-45h6.714a7.984 7.984 0 0 0 -2.714 6z"/><path d="m24.105 16.447a1 1 0 0 0 .895.553h14a1 1 0 0 0 .9-.553l1-2a1 1 0 1 0 -1.79-.894l-.728 1.447h-12.764l-.718-1.447a1 1 0 0 0 -1.79.894z"/><path d="m36 38a1 1 0 0 0 1-1v-2a1 1 0 0 0 -2 0v2a1 1 0 0 0 1 1z"/><path d="m28 38a1 1 0 0 0 1-1v-2a1 1 0 0 0 -2 0v2a1 1 0 0 0 1 1z"/></g></g></svg>