<svg height="512" viewBox="0 0 64 64" width="512" xmlns="http://www.w3.org/2000/svg"><g id="Candle_light" data-name="Candle light"><g fill="#d4effc"><path d="m26 59a4 4 0 0 0 4-4v-4h-12a7.008 7.008 0 0 1 -7-7v-4h4v4a3 3 0 0 0 3 3h12v-11h4v11h12a3 3 0 0 0 3-3v-4h4v4a7.008 7.008 0 0 1 -7 7h-12v4a4 4 0 0 0 4 4z"/><path d="m28 15h8v16h-8z"/><path d="m47 19h8v16h-8z"/><path d="m9 19h8v16h-8z"/></g><path d="m32 11a4 4 0 0 1 -4-4c0-1.525 2.009-4.112 4-6 1.991 1.888 4 4.475 4 6a4 4 0 0 1 -4 4z" fill="#f98080"/><path d="m51 15a4 4 0 0 1 -4-4c0-1.525 2.009-4.112 4-6 1.991 1.888 4 4.475 4 6a4 4 0 0 1 -4 4z" fill="#f98080"/><path d="m13 15a4 4 0 0 1 -4-4c0-1.525 2.009-4.112 4-6 1.991 1.888 4 4.475 4 6a4 4 0 0 1 -4 4z" fill="#f98080"/><path d="m23 63v-1a3 3 0 0 1 3-3h12a3 3 0 0 1 3 3v1z" fill="#ade1fa"/><path d="m26 31h12v5h-12z" fill="#ade1fa"/><path d="m45 35h12v5h-12z" fill="#ade1fa"/><path d="m7 35h12v5h-12z" fill="#ade1fa"/><path d="m57 34h-1v-15a1 1 0 0 0 -1-1h-3v-2.1a5.009 5.009 0 0 0 4-4.9c0-2.512-3.592-6.043-4.312-6.726a1 1 0 0 0 -1.376 0c-.72.683-4.312 4.214-4.312 6.726a5.009 5.009 0 0 0 4 4.9v2.1h-3a1 1 0 0 0 -1 1v15h-1a1 1 0 0 0 -1 1v5a1 1 0 0 0 1 1h3v3a2 2 0 0 1 -2 2h-11v-9h3a1 1 0 0 0 1-1v-5a1 1 0 0 0 -1-1h-1v-15a1 1 0 0 0 -1-1h-3v-2.1a5.009 5.009 0 0 0 4-4.9c0-2.512-3.592-6.043-4.312-6.726a1 1 0 0 0 -1.376 0c-.72.683-4.312 4.214-4.312 6.726a5.009 5.009 0 0 0 4 4.9v2.1h-3a1 1 0 0 0 -1 1v15h-1a1 1 0 0 0 -1 1v5a1 1 0 0 0 1 1h3v9h-11a2 2 0 0 1 -2-2v-3h3a1 1 0 0 0 1-1v-5a1 1 0 0 0 -1-1h-1v-15a1 1 0 0 0 -1-1h-3v-2.1a5.009 5.009 0 0 0 4-4.9c0-2.512-3.592-6.043-4.312-6.726a1 1 0 0 0 -1.376 0c-.72.683-4.312 4.214-4.312 6.726a5.009 5.009 0 0 0 4 4.9v2.1h-3a1 1 0 0 0 -1 1v15h-1a1 1 0 0 0 -1 1v5a1 1 0 0 0 1 1h3v3a8.009 8.009 0 0 0 8 8h11v3a3 3 0 0 1 -3 3 4 4 0 0 0 -4 4h-4a1 1 0 0 0 0 2h28a1 1 0 0 0 0-2h-4a4 4 0 0 0 -4-4 3 3 0 0 1 -3-3v-3h11a8.009 8.009 0 0 0 8-8v-3h3a1 1 0 0 0 1-1v-5a1 1 0 0 0 -1-1zm-9-23c0-1.049 1.583-3.106 3-4.588 1.417 1.48 3 3.537 3 4.588a3 3 0 0 1 -6 0zm-19-4c0-1.049 1.583-3.106 3-4.588 1.417 1.48 3 3.537 3 4.588a3 3 0 0 1 -6 0zm-19 4c0-1.049 1.583-3.106 3-4.588 1.417 1.48 3 3.537 3 4.588a3 3 0 0 1 -6 0zm38 9h6v14h-6zm-19-4h6v14h-6zm-2 16h10v3h-10zm-17-12h6v14h-6zm-2 16h10v3h-10zm32 26h-16a2 2 0 0 1 2-2h12a2 2 0 0 1 2 2zm12-18a6.007 6.007 0 0 1 -6 6h-12a1 1 0 0 0 -1 1v4a4.98 4.98 0 0 0 1 3h-4a4.98 4.98 0 0 0 1-3v-4a1 1 0 0 0 -1-1h-12a6.007 6.007 0 0 1 -6-6v-3h2v3a4 4 0 0 0 4 4h12a1 1 0 0 0 1-1v-10h2v10a1 1 0 0 0 1 1h12a4 4 0 0 0 4-4v-3h2zm4-5h-10v-3h10z" fill="#38383d"/></g></svg>