<svg height="512" viewBox="0 0 64 64" width="512" xmlns="http://www.w3.org/2000/svg"><g id="Ceiling_lamp" data-name="Ceiling lamp"><path d="m30 11h4v14h-4z" fill="#ade1fa"/><path d="m19 11-3-5h32l-3 5z" fill="#f2cac1"/><path d="m28 25h8v5h-8z" fill="#86d1ef"/><path d="m26 30h12v5h-12z" fill="#ade1fa"/><path d="m32 54a6.006 6.006 0 0 1 -6-6h12a6.006 6.006 0 0 1 -6 6z" fill="#ade1fa"/><path d="m1 1h62v5h-62z" fill="#f9e0dc"/><path d="m19.044 48a1 1 0 0 1 -.789-1.613l5.745-7.387v-4h16v4l5.745 7.386a1 1 0 0 1 -.789 1.614z" fill="#d4effc"/><g fill="#38383d"><path d="m63 5h-62a1 1 0 0 0 0 2h14.434l2.709 4.515a1 1 0 0 0 .857.485h10v12h-1a1 1 0 0 0 -1 1v4h-1a1 1 0 0 0 -1 1v4h-1a1 1 0 0 0 -1 1v3.657l-5.534 7.115a2 2 0 0 0 1.578 3.228h6.036a6.991 6.991 0 0 0 13.84 0h6.036a2 2 0 0 0 1.578-3.228l-5.534-7.115v-3.657a1 1 0 0 0 -1-1h-1v-4a1 1 0 0 0 -1-1h-1v-4a1 1 0 0 0 -1-1h-1v-12h10a1 1 0 0 0 .857-.485l2.709-4.515h14.434a1 1 0 0 0 0-2zm-31 48a5.008 5.008 0 0 1 -4.9-4h9.8a5.008 5.008 0 0 1 -4.9 4zm12.956-6h-25.911l5.745-7.386a1 1 0 0 0 .21-.614v-3h14v3a1 1 0 0 0 .21.614zm-17.956-13v-3h10v3zm2-5v-3h6v3zm4-5h-2v-12h2zm11.434-14h-24.868l-1.8-3h28.468z"/><path d="m1 2h62a1 1 0 0 0 0-2h-62a1 1 0 0 0 0 2z"/><path d="m32 57a1 1 0 0 0 -1 1v5a1 1 0 0 0 2 0v-5a1 1 0 0 0 -1-1z"/><path d="m36.9 57.553a1 1 0 1 0 -1.79.894l2 4a1 1 0 0 0 1.79-.894z"/><path d="m28.447 57.105a1 1 0 0 0 -1.342.448l-2 4a1 1 0 1 0 1.79.894l2-4a1 1 0 0 0 -.448-1.342z"/></g></g></svg>