<svg height="512" viewBox="0 0 64 64" width="512" xmlns="http://www.w3.org/2000/svg"><g id="Chest_of_Drawer" data-name="Chest of Drawer"><path d="m10 53v-5h9l-3 5z" fill="#f2cac1"/><path d="m48 53-3-5h9v5z" fill="#f2cac1"/><path d="m6 48v-28a4 4 0 0 0 -4-4h60a4 4 0 0 0 -4 4v28z" fill="#f9e0dc"/><path d="m32 20h22v24h-22z" fill="#dbaaa2"/><path d="m1 11h62v5h-62z" fill="#f2cac1"/><path d="m10 20h18v24h-18z" fill="#f2cac1"/><path d="m19 20h9v24h-9z" fill="#dbaaa2"/><path d="m32 20h22v8h-22z" fill="#f2cac1"/><path d="m32 36h22v8h-22z" fill="#f2cac1"/><g fill="#38383d"><path d="m63 10h-62a1 1 0 0 0 -1 1v5a1 1 0 0 0 1 1h1a3 3 0 0 1 3 3v28a1 1 0 0 0 1 1h3v4a1 1 0 0 0 1 1h6a1 1 0 0 0 .857-.485l2.709-4.515h24.868l2.709 4.515a1 1 0 0 0 .857.485h6a1 1 0 0 0 1-1v-4h3a1 1 0 0 0 1-1v-28a3 3 0 0 1 3-3h1a1 1 0 0 0 1-1v-5a1 1 0 0 0 -1-1zm-47.566 42h-4.434v-3h6.234zm37.566 0h-4.434l-1.8-3h6.234zm4-32v27h-50v-27a4.98 4.98 0 0 0 -1-3h52a4.98 4.98 0 0 0 -1 3zm-55-5v-3h60v3z"/><path d="m10 45h18a1 1 0 0 0 1-1v-24a1 1 0 0 0 -1-1h-18a1 1 0 0 0 -1 1v24a1 1 0 0 0 1 1zm17-2h-7v-22h7zm-16-22h7v22h-7z"/><path d="m32 45h22a1 1 0 0 0 1-1v-24a1 1 0 0 0 -1-1h-22a1 1 0 0 0 -1 1v24a1 1 0 0 0 1 1zm1-2v-6h20v6zm0-14h20v6h-20zm20-8v6h-20v-6z"/><path d="m22 34a1 1 0 0 0 1-1v-2a1 1 0 0 0 -2 0v2a1 1 0 0 0 1 1z"/><path d="m16 30a1 1 0 0 0 -1 1v2a1 1 0 0 0 2 0v-2a1 1 0 0 0 -1-1z"/><path d="m44 31h-2a1 1 0 0 0 0 2h2a1 1 0 0 0 0-2z"/><path d="m44 39h-2a1 1 0 0 0 0 2h2a1 1 0 0 0 0-2z"/><path d="m42 25h2a1 1 0 0 0 0-2h-2a1 1 0 0 0 0 2z"/></g></g></svg>