<svg height="512" viewBox="0 0 64 64" width="512" xmlns="http://www.w3.org/2000/svg"><g id="Table-2" data-name="Table"><ellipse cx="32" cy="52" fill="#dbaaa2" rx="24" ry="8"/><path d="m21 52a6.006 6.006 0 0 0 6-6v-20.08c1.78.055 3.416.081 5 .081s3.221-.026 5-.081v20.08a6.006 6.006 0 0 0 6 6z" fill="#f2cac1"/><path d="m32 26c-14.909 0-31-2.294-31-6v-10c0 3.309 13.907 6 31 6s31-2.691 31-6v10c0 3.706-16.092 6-31 6z" fill="#f9e0dc"/><ellipse cx="32" cy="10" fill="#f2cac1" rx="31" ry="6"/><path d="m32 3c-11.068 0-32 1.463-32 7v10c0 4.644 14.721 6.421 26 6.874v16.371c-9.606.821-19 3.793-19 8.755 0 5.846 12.88 9 25 9s25-3.154 25-9c0-4.962-9.394-7.934-19-8.755v-16.371c11.279-.453 26-2.23 26-6.874v-10c0-5.537-20.932-7-32-7zm0 2c19.411 0 30 3.3 30 5s-10.589 5-30 5-30-3.3-30-5 10.589-5 30-5zm11 48a1 1 0 0 0 0-2 5.006 5.006 0 0 1 -5-5v-.74c10.657.929 17 4.1 17 6.74 0 3.311-9.445 7-23 7s-23-3.689-23-7c0-2.64 6.342-5.81 17-6.74v.74a5.006 5.006 0 0 1 -5 5 1 1 0 0 0 0 2 7.008 7.008 0 0 0 7-7v-19.059c1.425.04 2.775.059 4 .059s2.575-.019 4-.059v19.059a7.008 7.008 0 0 0 7 7zm-11-28c-19.411 0-30-3.3-30-5v-7.3c5.494 3.334 21.005 4.3 30 4.3s24.506-.966 30-4.3v7.3c0 1.7-10.589 5-30 5z" fill="#38383d"/></g></svg>