<svg height="512" viewBox="0 0 64 64" width="512" xmlns="http://www.w3.org/2000/svg"><g id="Coat_Hat" data-name="Coat Hat"><g fill="#f2cac1"><path d="m44.4 63a2 2 0 0 1 -1.511-.69l-10.889-12.566v-6.107l13.914 16.053a2 2 0 0 1 -1.514 3.31z"/><path d="m15.6 63a2 2 0 0 1 -1.512-3.31l13.912-16.053v6.107l-10.889 12.566a2 2 0 0 1 -1.511.69z"/><path d="m32 30.49 11.93-7.2 2.34 3.25-14.27 8.61z"/><path d="m32 13.49 17.427-10.52a3.992 3.992 0 0 1 -1.354 5.485l-16.073 9.694z"/><path d="m11.929 30.455a3.99 3.99 0 0 1 -1.353-5.485l17.424 10.52v4.659z"/><path d="m11.929 13.455a3.99 3.99 0 0 1 -1.353-5.485l17.424 10.52v4.659z"/></g><path d="m44.629 18.237 2.137-1.537a2.605 2.605 0 0 1 1.53-.494 2.767 2.767 0 0 1 .433.035 2.611 2.611 0 0 1 1.709 1.061l3.069 4.274a2.632 2.632 0 0 1 -.6 3.673l-2.137 1.533z" fill="#d4effc"/><path d="m40.244 18.147 2.85-2.046 9.209 12.822-2.85 2.046z" fill="#ade1fa"/><path d="m30 63a2 2 0 0 1 -2-2v-58a2 2 0 0 1 4 0v58a2 2 0 0 1 -2 2z" fill="#f9e0dc"/><path d="m54.32 21-3.07-4.275a3.632 3.632 0 0 0 -5.067-.83l-1.325.951-.951-1.324a1 1 0 0 0 -1.4-.23l-2.849 2.047a1 1 0 0 0 -.23 1.395l3.06 4.26-9.488 5.723v-10l15.588-9.4a4.994 4.994 0 0 0 1.693-6.86 1 1 0 0 0 -1.372-.339l-15.909 9.6v-8.718a3 3 0 0 0 -6 0v13.718l-15.908-9.6a1 1 0 0 0 -1.373.339 4.993 4.993 0 0 0 1.692 6.86l15.589 9.397v10l-15.906-9.601a1 1 0 0 0 -1.373.339 4.993 4.993 0 0 0 1.692 6.86l15.587 9.402v2.549l-13.667 15.772a3 3 0 0 0 2.267 4.965 3 3 0 0 0 2.268-1.035l9.132-10.54v8.575a3 3 0 0 0 6 0v-8.574l9.134 10.539a3 3 0 0 0 2.266 1.035 3 3 0 0 0 2.266-4.965l-13.666-15.771v-7.55l13-7.842 2.643 3.68a1 1 0 0 0 1.4.229l2.849-2.046a.994.994 0 0 0 .4-.65 1.006 1.006 0 0 0 -.174-.745l-.952-1.325 1.326-.952a3.632 3.632 0 0 0 .828-5.063zm-5.377-16.57a3 3 0 0 1 -1.386 3.17l-14.557 8.778v-2.323zm-36.497 8.17a3 3 0 0 1 -1.385-3.17l15.939 9.625v2.323zm0 17a3 3 0 0 1 -1.385-3.169l15.939 9.624v2.323zm3.91 32.055a1 1 0 0 1 -.756.345 1 1 0 0 1 -.755-1.654l12.155-14.029v3.054zm14.644-.655a1 1 0 0 1 -2 0v-58a1 1 0 1 1 2 0zm14.157-.654a1 1 0 0 1 -.757 1.654 1 1 0 0 1 -.756-.346l-10.644-12.282v-3.054zm-12.157-26.968v-2.324l10.656-6.431 1.167 1.621zm16.68-3.8-8.042-11.2 1.226-.88 8.042 11.2zm3.3-6.195a1.616 1.616 0 0 1 -.657 1.06l-1.323.947-4.973-6.923 1.325-.951a1.628 1.628 0 0 1 2.275.372l3.07 4.275a1.618 1.618 0 0 1 .283 1.215z" fill="#38383d"/></g></svg>