<svg height="512" viewBox="0 0 64 64" width="512" xmlns="http://www.w3.org/2000/svg"><g id="Couch_armchair" data-name="Couch armchair"><path d="m42 62-3-6h8a8.274 8.274 0 0 0 1-.06v6.06z" fill="#dbaaa2"/><path d="m16 62v-6.06a8.274 8.274 0 0 0 1 .06h8l-3 6z" fill="#dbaaa2"/><path d="m17 48v-18a7.981 7.981 0 0 0 -5-7.42v-12.58a8.009 8.009 0 0 1 8-8h24a8.009 8.009 0 0 1 8 8v12.58a7.981 7.981 0 0 0 -5 7.42v18z" fill="#f9e0dc"/><path d="m17 48v-4a5.006 5.006 0 0 1 5-5h20a5.006 5.006 0 0 1 5 5v4z" fill="#dbaaa2"/><path d="m17 56a8.009 8.009 0 0 1 -8-8v-9.951l-.89-.1a7.946 7.946 0 0 1 -5.285-2.863 8.058 8.058 0 0 1 -1.669-6.686 7.953 7.953 0 0 1 6.24-6.24 8.316 8.316 0 0 1 1.586-.16 8 8 0 0 1 8.018 8v18h30v-18a8 8 0 0 1 8.018-8 8.324 8.324 0 0 1 1.586.154 7.953 7.953 0 0 1 6.24 6.24 8.055 8.055 0 0 1 -1.669 6.691 7.944 7.944 0 0 1 -5.285 2.864l-.89.1v9.951a8.009 8.009 0 0 1 -8 8z" fill="#f2cac1"/><circle cx="55" cy="30" fill="#dbaaa2" r="3"/><circle cx="9" cy="30" fill="#dbaaa2" r="3"/><g fill="#38383d"><path d="m55 26a4 4 0 1 0 4 4 4 4 0 0 0 -4-4zm0 6a2 2 0 1 1 2-2 2 2 0 0 1 -2 2z"/><path d="m63.825 28.205a8.959 8.959 0 0 0 -7.03-7.031 9.213 9.213 0 0 0 -3.8.062v-11.236a9.01 9.01 0 0 0 -9-9h-23.995a9.01 9.01 0 0 0 -9 9v11.236a9.213 9.213 0 0 0 -3.795-.062 8.959 8.959 0 0 0 -7.03 7.031 9.008 9.008 0 0 0 7.825 10.74v9.055a9.01 9.01 0 0 0 7 8.768v5.232a1 1 0 0 0 1 1h6a1 1 0 0 0 .895-.553l2.723-5.447h12.764l2.723 5.447a1 1 0 0 0 .895.553h6a1 1 0 0 0 1-1v-5.232a9.01 9.01 0 0 0 7-8.768v-9.055a9.008 9.008 0 0 0 7.825-10.74zm-50.825-18.205a7.008 7.008 0 0 1 7-7h24a7.008 7.008 0 0 1 7 7v11.94a8.973 8.973 0 0 0 -5 8.06v9.54a5.969 5.969 0 0 0 -4-1.54h-20a5.969 5.969 0 0 0 -4 1.54v-9.54a8.973 8.973 0 0 0 -5-8.06zm5 34a4 4 0 0 1 4-4h20a4 4 0 0 1 4 4v3h-28zm3.382 17h-4.382v-4h6.382zm25.618 0h-4.382l-2-4h6.382zm13.4-26.549a6.978 6.978 0 0 1 -5.4 2.549 1 1 0 0 0 -1 1v10a7.008 7.008 0 0 1 -6.214 6.953c-.7.076-.433.047-8.786.047h-14c-8.419 0-8.081.029-8.786-.047a7.008 7.008 0 0 1 -6.214-6.953v-10a1 1 0 0 0 -1-1 6.978 6.978 0 0 1 -5.4-2.549 7.061 7.061 0 0 1 -1.459-5.865 6.941 6.941 0 0 1 5.448-5.448 7.274 7.274 0 0 1 1.391-.138 6.992 6.992 0 0 1 7.02 7v18a1 1 0 0 0 1 1h30a1 1 0 0 0 1-1v-18a6.983 6.983 0 0 1 2.549-5.4 7.061 7.061 0 0 1 5.865-1.458 6.941 6.941 0 0 1 5.448 5.448 7.061 7.061 0 0 1 -1.462 5.861z"/><path d="m9 26a4 4 0 1 0 4 4 4 4 0 0 0 -4-4zm0 6a2 2 0 1 1 2-2 2 2 0 0 1 -2 2z"/><circle cx="32" cy="11" r="1"/><circle cx="32" cy="20" r="1"/><circle cx="32" cy="29" r="1"/><circle cx="41" cy="11" r="1"/><circle cx="41" cy="20" r="1"/><circle cx="41" cy="29" r="1"/><circle cx="23" cy="11" r="1"/><circle cx="23" cy="20" r="1"/><circle cx="23" cy="29" r="1"/></g></g></svg>