<svg height="512" viewBox="0 0 64 64" width="512" xmlns="http://www.w3.org/2000/svg"><g id="Curtain"><path d="m11 10v47a3 3 0 0 0 6 0 3 3 0 0 0 6 0 3 3 0 0 0 6 0v-47z" fill="#d4effc"/><g fill="#ade1fa"><path d="m17 10h6a0 0 0 0 1 0 0v47a3 3 0 0 1 -3 3 3 3 0 0 1 -3-3v-47a0 0 0 0 1 0 0z"/><path d="m44 43c-6.315-3.157-8-22.229-8-33h17v33z"/><path d="m39 60c0-9.816 3.962-11.98 4-12h10v12z"/></g><rect fill="#d4effc" height="5" rx="1" width="15" x="40" y="43"/><path d="m8.46 10a3.974 3.974 0 0 0 0-4h47.08a3.975 3.975 0 0 0 0 4z" fill="#f9e0dc"/><circle cx="59" cy="8" fill="#f2cac1" r="4"/><circle cx="5" cy="8" fill="#f2cac1" r="4"/><path d="m59 3a4.977 4.977 0 0 0 -3.974 2h-46.052a5 5 0 1 0 0 6h1.026v46a3.983 3.983 0 0 0 7 2.618 3.947 3.947 0 0 0 6 0 3.983 3.983 0 0 0 7-2.618v-46h5.007c.061 5.106.672 24.192 6.283 31h-.29a2 2 0 0 0 -2 2v3a2 2 0 0 0 1.649 1.965c-1.249 1.775-2.649 5.09-2.649 11.035a1 1 0 0 0 1 1h14a1 1 0 0 0 1-1v-11a2 2 0 0 0 2-2v-3a2 2 0 0 0 -2-2v-31h1.026a4.991 4.991 0 1 0 3.974-8zm-54 8a3 3 0 0 1 0-6 3 3 0 0 1 0 6zm9 48a2 2 0 0 1 -2-2v-46h4v46a2 2 0 0 1 -2 2zm6 0a2 2 0 0 1 -2-2v-46h4v46a2 2 0 0 1 -2 2zm8-2a2 2 0 0 1 -4 0v-46h4zm24 2h-11.985c.207-7.156 2.627-9.494 3.285-10h1.838c-.932 1.542-2.138 3.934-2.138 6a1 1 0 0 0 2 0c0-1.955 1.619-4.7 2.516-6h1.459a5.91 5.91 0 0 0 -.975 3 1 1 0 0 0 2 0 5.436 5.436 0 0 1 1.442-3h.558zm2-12h-13v-3h13zm-2-5h-.823a42.351 42.351 0 0 1 -1.956-6.206 1 1 0 0 0 -1.961.4 41.134 41.134 0 0 0 1.773 5.806h-1.017c-.95-1.369-4.016-6.089-4.016-10a1 1 0 0 0 -2 0c0 3.708 2.226 7.8 3.616 10h-1.343c-5.718-3.236-7.159-22.546-7.266-31h14.993zm-42.1-33a5 5 0 0 0 0-2h44.2a5 5 0 0 0 0 2zm49.1 2a3 3 0 1 1 3-3 3.033 3.033 0 0 1 -3 3z" fill="#38383d"/></g></svg>