<svg height="512" viewBox="0 0 64 64" width="512" xmlns="http://www.w3.org/2000/svg"><g id="Desk_Lamp" data-name="Desk Lamp"><path d="m24.38 28-4.24-4h10.61l3 4z" fill="#f9e0dc"/><path d="m4.771 15h5.83l33.399 31.503-.004 5.497z" fill="#e5bab3"/><path d="m44 56v-14.333l-20-26.667h5l19 25.333v15.667z" fill="#f2cac1"/><path d="m39 63 4.543-7h4.914l4.543 7z" fill="#f9e0dc"/><path d="m53.477 25.139a5.107 5.107 0 0 1 -4.1-2.057l8.174-6.068a5.091 5.091 0 0 1 -4.074 8.125z" fill="#86d1ef"/><path d="m3 15a2 2 0 0 1 0-4h35.38a6.71 6.71 0 0 0 .532.832l2.348 3.168z" fill="#f9e0dc"/><path d="m6 57h10v6h-10z" fill="#d4effc"/><path d="m44.98 20.006-6.068-8.173a6.8 6.8 0 0 1 1.4-9.5 6.722 6.722 0 0 1 4.037-1.333 6.924 6.924 0 0 1 1.005.073 6.746 6.746 0 0 1 4.457 2.668l6.068 8.175 7.121 1.052-19.069 14.157z" fill="#d4effc"/><path d="m44.98 20.006 10.899-8.09 7.121 1.052-19.069 14.157z" fill="#ade1fa"/><path d="m63.97 12.725a1 1 0 0 0 -.823-.746l-6.712-.992-5.822-7.841a7.785 7.785 0 0 0 -10.893-1.611 7.8 7.8 0 0 0 -2.815 8.465h-33.905a3 3 0 0 0 0 6h1.373l20.627 19.457v18.543a5.006 5.006 0 0 1 -5 5h-3v-2a1 1 0 0 0 -1-1h-10a1 1 0 0 0 -1 1v2h-4a1 1 0 0 0 0 2h4v2a1 1 0 0 0 1 1h10a1 1 0 0 0 1-1v-2h3a7.008 7.008 0 0 0 7-7v-16.656l16 15.092v3.244l-4.813 6.739a1 1 0 0 0 .813 1.581h14a1 1 0 0 0 .814-1.581l-4.814-6.739v-15.346a1 1 0 0 0 -.2-.6l-17.8-23.734h9.761l3.17 4.27-.992 6.711a1 1 0 0 0 1.584.949l4.717-3.5a6.05 6.05 0 0 0 3.333 1.644 6.269 6.269 0 0 0 .9.066 6.086 6.086 0 0 0 5.4-8.865l4.718-3.5a1 1 0 0 0 .379-1.05zm-48.97 49.275h-8v-4h8zm40.9-38.668a4.092 4.092 0 0 1 -5.028-.116l6.371-4.729a4.1 4.1 0 0 1 -1.343 4.845zm-12.9 26.352-35.712-33.684h2.912l32.8 30.935zm-19.5-33.684 5.25 7h-8.21l-7.421-7zm19.5 28.185-16.1-15.185h6.35l9.75 13zm-11.25-17.185h-6.969l-2.121-2h7.59zm9.193 35 3.572-5h2.97l3.572 5zm6.057-21.333v14.333h-2v-13.333a1 1 0 0 0 -.2-.6l-18.8-25.067h2.5zm-44-26.667a1 1 0 0 1 0-2h34.824c.092.144.182.29.285.429l1.167 1.571zm36.715-2.763a5.8 5.8 0 0 1 1.2-8.1 5.789 5.789 0 0 1 8.1 1.2l5.472 7.371-9.293 6.9zm5.556 13.649.638-4.324 10.233-7.6 4.324.639z" fill="#38383d"/></g></svg>