<?xml version="1.0" encoding="UTF-8"?>
<svg xmlns="http://www.w3.org/2000/svg" viewBox="0 0 64 64" width="512" height="512"><g id="Doorknob"><path d="M8,63a6.006,6.006,0,0,0-6-6V7A6.006,6.006,0,0,0,8,1H34a6.006,6.006,0,0,0,6,6V57a6.006,6.006,0,0,0-6,6Z" style="fill:#6ebbe5"/><path d="M11.17,59A10.174,10.174,0,0,0,6,53.83V10.17A10.174,10.174,0,0,0,11.17,5H30.83A10.174,10.174,0,0,0,36,10.17V53.83A10.174,10.174,0,0,0,30.83,59Z" style="fill:#86d1ef"/><path d="M17.32,53a1,1,0,0,1-.96-1.269l1.629-5.713-.44-.417A4.918,4.918,0,0,1,16,42a5,5,0,0,1,10,0,4.918,4.918,0,0,1-1.549,3.6l-.44.417,1.628,5.711A1,1,0,0,1,24.68,53Z" style="fill:#ade1fa"/><circle cx="21" cy="21" r="9" style="fill:#ade1fa"/><path d="M57.992,40.2a3.938,3.938,0,0,1-1.513-.3l-37-15.2a4,4,0,1,1,3.042-7.4l37,15.2a4,4,0,0,1-1.528,7.7Z" style="fill:#d4effc"/><path d="M15.4,51.455A2,2,0,0,0,17.321,54H24.68A2,2,0,0,0,26.6,51.455l-1.462-5.129A5.92,5.92,0,0,0,27,42a6,6,0,0,0-12,0,5.919,5.919,0,0,0,1.861,4.326ZM21,38a4,4,0,0,1,4,4,3.955,3.955,0,0,1-1.6,3.182,1,1,0,0,0-.36,1.073L24.677,52l-7.354.005,1.64-5.75a1,1,0,0,0-.361-1.073A3.957,3.957,0,0,1,17,42,4,4,0,0,1,21,38Z" style="fill:#38383d"/><path d="M59.9,31.577,41,23.812V7a1,1,0,0,0-1-1,5.006,5.006,0,0,1-5-5,1,1,0,0,0-1-1H8A1,1,0,0,0,7,1,5.006,5.006,0,0,1,2,6,1,1,0,0,0,1,7V57a1,1,0,0,0,1,1,5.006,5.006,0,0,1,5,5,1,1,0,0,0,1,1H34a1,1,0,0,0,1-1,5.006,5.006,0,0,1,5-5,1,1,0,0,0,1-1V34.623l15.1,6.2a5,5,0,1,0,3.8-9.249ZM39,56.071A7.014,7.014,0,0,0,33.072,62H8.929A7.014,7.014,0,0,0,3,56.071V7.929A7.014,7.014,0,0,0,8.929,2H33.072A7.014,7.014,0,0,0,39,7.929V22.99l-2-.822v-12a1,1,0,0,0-.6-.916A9.158,9.158,0,0,1,31.747,4.6a1,1,0,0,0-.916-.6H11.171a1,1,0,0,0-.917.6A9.158,9.158,0,0,1,5.6,9.254a1,1,0,0,0-.6.916V53.83a1,1,0,0,0,.6.916A9.158,9.158,0,0,1,10.254,59.4a1,1,0,0,0,.917.6h19.66a1,1,0,0,0,.916-.6A9.158,9.158,0,0,1,36.4,54.746a1,1,0,0,0,.6-.916V32.979l2,.822ZM30.894,19.659a10.009,10.009,0,1,0-3.8,9.251L35,32.158V53.2A11.03,11.03,0,0,0,30.2,58H11.8A11.033,11.033,0,0,0,7,53.2V10.8A11.033,11.033,0,0,0,11.8,6H30.2A11.03,11.03,0,0,0,35,10.8V21.346ZM19.1,25.625l5.762,2.367a8,8,0,1,1,3.8-9.249L22.9,16.375a5,5,0,0,0-3.8,9.25ZM60.775,37.342a3.005,3.005,0,0,1-3.916,1.635L27.366,26.859l-.006,0-7.5-3.082a3,3,0,1,1,2.281-5.55l37,15.2A3,3,0,0,1,60.775,37.342Z" style="fill:#38383d"/></g></svg>
