<svg height="512" viewBox="0 0 64 64" width="512" xmlns="http://www.w3.org/2000/svg"><g id="Door"><path d="m13 59v-54a4 4 0 0 1 4-4h30a4 4 0 0 1 4 4v54z" fill="#f2cac1"/><path d="m17 5h30v54h-30z" fill="#f9e0dc"/><path d="m1 59h62v4h-62z" fill="#dbaaa2"/><path d="m21 39h22v16h-22z" fill="#f2cac1"/><path d="m25 43v8l-4 4v-16z" fill="#dbaaa2"/><path d="m43 39-4 4h-14l-4-4z" fill="#cc9a96"/><path d="m43 39v16l-4-4v-8z" fill="#dbaaa2"/><path d="m43 55h-22l4-4h14z" fill="#cc9a96"/><path d="m21 9h22v16h-22z" fill="#f2cac1"/><path d="m25 13v8l-4 4v-16z" fill="#dbaaa2"/><path d="m43 9-4 4h-14l-4-4z" fill="#cc9a96"/><path d="m43 9v16l-4-4v-8z" fill="#dbaaa2"/><path d="m43 25h-22l4-4h14z" fill="#cc9a96"/><circle cx="24" cy="32" fill="#f2cac1" r="3"/><g fill="#38383d"><path d="m63 62h-62a1 1 0 0 0 0 2h62a1 1 0 0 0 0-2z"/><path d="m1 60h62a1 1 0 0 0 0-2h-11v-53a5.006 5.006 0 0 0 -5-5h-30a5.006 5.006 0 0 0 -5 5v53h-11a1 1 0 0 0 0 2zm17-2v-52h28v52zm-4-53a3 3 0 0 1 3-3h30a3 3 0 0 1 3 3v53h-2v-53a1 1 0 0 0 -1-1h-30a1 1 0 0 0 -1 1v53h-2z"/><path d="m24 36a4 4 0 0 0 3.858-3h2.142a1 1 0 0 0 0-2h-2.142a3.993 3.993 0 1 0 -3.858 5zm0-6a2 2 0 1 1 -2 2 2 2 0 0 1 2-2z"/><path d="m43 8h-22a1 1 0 0 0 -1 1v16a1 1 0 0 0 1 1h22a1 1 0 0 0 1-1v-16a1 1 0 0 0 -1-1zm-17 6h12v6h-12zm12.586-2h-13.172l-2-2h17.172zm-14.586 1.414v7.172l-2 2v-11.172zm1.414 8.586h13.172l2 2h-17.172zm14.586-1.414v-7.172l2-2v11.172z"/><path d="m43 38h-22a1 1 0 0 0 -1 1v16a1 1 0 0 0 1 1h22a1 1 0 0 0 1-1v-16a1 1 0 0 0 -1-1zm-17 6h12v6h-12zm12.586-2h-13.172l-2-2h17.172zm-14.586 1.414v7.172l-2 2v-11.172zm1.414 8.586h13.172l2 2h-17.172zm14.586-1.414v-7.172l2-2v11.172z"/></g></g></svg>