<svg height="512" viewBox="0 0 64 64" width="512" xmlns="http://www.w3.org/2000/svg"><g id="Dressing_Table" data-name="Dressing Table"><path d="m16 37h32v8h-32z" fill="#dbaaa2"/><path d="m16 32v-15a16 16 0 0 1 32 0v15z" fill="#d4effc"/><path d="m20 32v-15a12 12 0 0 1 24 0v15z" fill="#ade1fa"/><path d="m48 37h5v26h-5z" fill="#f2cac1"/><path d="m11 37h5v26h-5z" fill="#f2cac1"/><path d="m36 63-1-9h4v9z" fill="#ade1fa"/><path d="m25 63v-9h4l-1 9z" fill="#ade1fa"/><path d="m8 32h48v5h-48z" fill="#f9e0dc"/><path d="m25 54v-3a2 2 0 0 1 2-2h10a2 2 0 0 1 2 2v3z" fill="#d4effc"/><g fill="#38383d"><path d="m36.293 14.293-10 10a1 1 0 0 0 1.414 1.414l10-10a1 1 0 0 0 -1.414-1.414z"/><path d="m36.308 20.278-4.167 4a1 1 0 0 0 1.385 1.444l4.166-4a1 1 0 0 0 -1.384-1.444z"/><path d="m27.692 19.722 4.167-4a1 1 0 0 0 -1.385-1.444l-4.166 4a1 1 0 0 0 1.384 1.444z"/><path d="m56 31h-7v-14a17 17 0 0 0 -34 0v14h-7a1 1 0 0 0 -1 1v5a1 1 0 0 0 1 1h2v25a1 1 0 0 0 1 1h5a1 1 0 0 0 1-1v-17h30v17a1 1 0 0 0 1 1h5a1 1 0 0 0 1-1v-25h2a1 1 0 0 0 1-1v-5a1 1 0 0 0 -1-1zm-39-14a15 15 0 0 1 30 0v14h-2v-14a13 13 0 0 0 -26 0v14h-2zm26 14h-22v-14a11 11 0 0 1 22 0zm-28 31h-3v-24h3zm2-18v-6h30v6zm35 18h-3v-24h3zm3-26h-46v-3h46z"/><path d="m34 40h-4a1 1 0 0 0 0 2h4a1 1 0 0 0 0-2z"/><path d="m37 48h-10a3 3 0 0 0 -3 3v12a1 1 0 0 0 1 1h3a1 1 0 0 0 .994-.89l.906-8.11h4.2l.9 8.11a1 1 0 0 0 1 .89h3a1 1 0 0 0 1-1v-12a3 3 0 0 0 -3-3zm-11 3a1 1 0 0 1 1-1h10a1 1 0 0 1 1 1v2h-12zm1.105 11h-1.105v-7h1.883zm10.895 0h-1.1l-.778-7h1.878z"/></g></g></svg>