<svg height="512" viewBox="0 0 64 64" width="512" xmlns="http://www.w3.org/2000/svg"><g id="Extractor_Hood" data-name="Extractor Hood"><path d="m50 33.63a99.788 99.788 0 0 0 -36 0v-11.63l6-8v-8h24v8l6 8z" fill="#ade1fa"/><path d="m49.7 48a92.3 92.3 0 0 0 -35.4 0l-3.28-5.89a92.109 92.109 0 0 1 41.95 0z" fill="#ade1fa"/><path d="m1 36.907a100.375 100.375 0 0 1 62 0l-2.363 7.323a92.72 92.72 0 0 0 -57.27 0z" fill="#d4effc"/><path d="m1 1h62v5h-62z" fill="#f2cac1"/><g fill="#38383d"><path d="m63 7a1 1 0 0 0 0-2h-62a1 1 0 0 0 0 2h18v6.667l-5.8 7.733a1 1 0 0 0 -.2.6v10.815a103.082 103.082 0 0 0 -12.307 3.14 1 1 0 0 0 -.645 1.259l2.363 7.323a1 1 0 0 0 1.259.646q3.4-1.1 6.845-1.923l2.911 5.226a1 1 0 0 0 .874.514.959.959 0 0 0 .191-.019 91.319 91.319 0 0 1 35.018 0 .993.993 0 0 0 1.065-.5l2.9-5.228q3.446.83 6.853 1.926a1.022 1.022 0 0 0 .307.047 1 1 0 0 0 .952-.693l2.363-7.323a1 1 0 0 0 -.645-1.259 103.082 103.082 0 0 0 -12.304-3.136v-10.815a1 1 0 0 0 -.2-.6l-5.8-7.733v-6.667zm-13.823 39.882a93.237 93.237 0 0 0 -34.355 0l-2.269-4.075a91.4 91.4 0 0 1 38.887 0zm10.813-3.905a93.663 93.663 0 0 0 -55.98 0l-1.749-5.42a99.3 99.3 0 0 1 59.478 0zm-16.79-28.377 5.8 7.733v10.126a100.86 100.86 0 0 0 -34 0v-10.126l5.8-7.733a1 1 0 0 0 .2-.6v-7h22v7a1 1 0 0 0 .2.6z"/><path d="m1 2h62a1 1 0 0 0 0-2h-62a1 1 0 0 0 0 2z"/><path d="m34 51a1 1 0 0 0 -2 0c0 .561-.217.8-.707 1.291a3.479 3.479 0 0 0 0 5.413c.49.49.707.732.707 1.294s-.217.8-.707 1.294a3.565 3.565 0 0 0 -1.293 2.708 1 1 0 0 0 2 0c0-.562.217-.8.707-1.294a3.482 3.482 0 0 0 0-5.416c-.49-.49-.707-.731-.707-1.29s.217-.8.707-1.291a3.56 3.56 0 0 0 1.293-2.709z"/><path d="m44 51a1 1 0 0 0 -2 0c0 .561-.217.8-.707 1.291a3.479 3.479 0 0 0 0 5.413c.49.49.707.732.707 1.294s-.217.8-.707 1.294a3.565 3.565 0 0 0 -1.293 2.708 1 1 0 0 0 2 0c0-.562.217-.8.707-1.294a3.482 3.482 0 0 0 0-5.416c-.49-.49-.707-.731-.707-1.29s.217-.8.707-1.291a3.56 3.56 0 0 0 1.293-2.709z"/><path d="m24 51a1 1 0 0 0 -2 0c0 .561-.217.8-.707 1.291a3.479 3.479 0 0 0 0 5.413c.49.49.707.732.707 1.294s-.217.8-.707 1.294a3.565 3.565 0 0 0 -1.293 2.708 1 1 0 0 0 2 0c0-.562.217-.8.707-1.294a3.482 3.482 0 0 0 0-5.416c-.49-.49-.707-.731-.707-1.29s.217-.8.707-1.291a3.56 3.56 0 0 0 1.293-2.709z"/></g></g></svg>