<svg height="512" viewBox="0 0 64 64" width="512" xmlns="http://www.w3.org/2000/svg"><g id="Fireplace"><path d="m7 13h50v38h-50z" fill="#f9e0dc"/><path d="m15 51v-13a17 17 0 0 1 34 0v13z" fill="#dbaaa2"/><path d="m19 51v-13a13 13 0 0 1 26 0v13z" fill="#bc8079"/><path d="m32.2 51a7.255 7.255 0 0 1 -6.588-5.055c-1.265-3.522-.561-9.034 5.208-13.945-.08.271-1.924 6.636 1.2 8.565a2.252 2.252 0 0 0 1.207.37 2.162 2.162 0 0 0 .639-.1c1.82-.564 3.069-3.345 3.12-3.463 2.2 3.585 2.563 7.584.937 10.436a6.27 6.27 0 0 1 -5.605 3.192z" fill="#f98080"/><path d="m1 57a6.036 6.036 0 0 0 4.8-2.4 5.913 5.913 0 0 0 1.2-3.6h50a5.912 5.912 0 0 0 1.2 3.6 6.034 6.034 0 0 0 4.8 2.4z" fill="#f2cac1"/><path d="m7 13a5.906 5.906 0 0 0 -1.2-3.6 6.03 6.03 0 0 0 -4.8-2.4h62a6.036 6.036 0 0 0 -4.8 2.4 5.913 5.913 0 0 0 -1.2 3.6z" fill="#f2cac1"/><path d="m1 1h62v6h-62z" fill="#dbaaa2"/><path d="m1 57h62v6h-62z" fill="#dbaaa2"/><g fill="#38383d"><path d="m63 8a1 1 0 0 0 1-1v-6a1 1 0 0 0 -1-1h-62a1 1 0 0 0 -1 1v6a1 1 0 0 0 1 1 5.006 5.006 0 0 1 5 5v38a5.006 5.006 0 0 1 -5 5 1 1 0 0 0 -1 1v6a1 1 0 0 0 1 1h62a1 1 0 0 0 1-1v-6a1 1 0 0 0 -1-1 5.006 5.006 0 0 1 -5-5v-38a5.006 5.006 0 0 1 5-5zm-61-6h60v4h-60zm3.9 6h52.21a6.991 6.991 0 0 0 -2.034 4h-48.147a6.991 6.991 0 0 0 -2.029-4zm25.6 33.416a3.159 3.159 0 0 0 2.669.373 5.792 5.792 0 0 0 2.791-2.344c1.258 2.824 1.318 5.727.1 7.867a5.225 5.225 0 0 1 -4.849 2.688 6.264 6.264 0 0 1 -5.658-4.393c-.971-2.7-.635-6.726 2.723-10.668-.193 2.276.065 5.147 2.224 6.477zm7.3 6.886c1.807-3.169 1.441-7.559-.952-11.455a1 1 0 0 0 -1.768.12c-.284.642-1.355 2.556-2.505 2.913a1.16 1.16 0 0 1 -1.022-.165c-2.059-1.272-1.252-5.8-.768-7.43a1 1 0 0 0 -1.607-1.047c-6.156 5.241-6.878 11.208-5.5 15.044a9 9 0 0 0 2.502 3.718h-7.18v-12a12 12 0 0 1 24 0v12h-6.538a7.438 7.438 0 0 0 1.331-1.7zm-6.8-24.302a14.015 14.015 0 0 0 -14 14v12h-2v-12a16 16 0 0 1 32 0v12h-2v-12a14.015 14.015 0 0 0 -14-14zm0-4a18.021 18.021 0 0 0 -18 18v12h-6v-36h48v36h-6v-12a18.021 18.021 0 0 0 -18-18zm30 42h-60v-4h60zm-3.9-6h-52.2a6.991 6.991 0 0 0 2.034-4h48.137a6.991 6.991 0 0 0 2.034 4z"/><path d="m36 16h-8a1 1 0 0 0 0 2h8a1 1 0 0 0 0-2z"/></g></g></svg>