<svg height="512" viewBox="0 0 64 64" width="512" xmlns="http://www.w3.org/2000/svg"><g id="Frame"><path d="m10.09 25 16.43-15.56a6.013 6.013 0 0 0 2.75 2.9l-13.36 12.66z" fill="#ade1fa"/><path d="m48.09 25-13.361-12.66a6 6 0 0 0 2.75-2.9l16.431 15.56z" fill="#ade1fa"/><circle cx="32" cy="7" fill="#d4effc" r="6"/><circle cx="32" cy="7" fill="#ade1fa" r="2"/><path d="m3 25h58v38h-58z" fill="#d4effc"/><path d="m11 59a4 4 0 0 0 -4-4v-22a4 4 0 0 0 4-4h42a4 4 0 0 0 4 4v22a4 4 0 0 0 -4 4z" fill="#ade1fa"/><path d="m41 59-8.5-8.5 8-8 13.68 13.68a4 4 0 0 0 -1.18 2.82z" fill="#48b37b"/><circle cx="48" cy="38" fill="#fecb71" r="3"/><path d="m11 59a4 4 0 0 0 -4-4v-5l12.5-12.5 21.5 21.5z" fill="#75c68a"/><g fill="#38383d"><path d="m32 10a3 3 0 1 0 -3-3 3 3 0 0 0 3 3zm0-4a1 1 0 1 1 -1 1 1 1 0 0 1 1-1z"/><path d="m61 24h-6.692l-15.657-14.828a7 7 0 1 0 -13.3 0l-15.659 14.828h-6.692a1 1 0 0 0 -1 1v38a1 1 0 0 0 1 1h58a1 1 0 0 0 1-1v-38a1 1 0 0 0 -1-1zm-23.287-12.961 13.687 12.961h-2.912l-12.147-11.511a7.9 7.9 0 0 0 1.372-1.45zm-5.713 2.961a6.961 6.961 0 0 0 2.523-.478l11.058 10.478h-27.162l11.057-10.478a6.963 6.963 0 0 0 2.524.478zm0-12a5 5 0 1 1 -5 5 5.006 5.006 0 0 1 5-5zm-5.714 9.038a7.606 7.606 0 0 0 1.373 1.45l-12.147 11.512h-2.912zm33.714 50.962h-56v-36h56z"/><path d="m53 28h-42a1 1 0 0 0 -1 1 3 3 0 0 1 -3 3 1 1 0 0 0 -1 1v22a1 1 0 0 0 1 1 3 3 0 0 1 3 3 1 1 0 0 0 1 1h42a1 1 0 0 0 1-1 3 3 0 0 1 3-3 1 1 0 0 0 1-1v-22a1 1 0 0 0 -1-1 3 3 0 0 1 -3-3 1 1 0 0 0 -1-1zm-45 26.1v-3.686l11.5-11.5 19.086 19.086h-26.686a5.013 5.013 0 0 0 -3.9-3.9zm33.414 3.9-7.5-7.5 6.586-6.586 12.339 12.339a4.951 4.951 0 0 0 -.739 1.747zm14.586-24.1v20.2a4.943 4.943 0 0 0 -1.747.738l-13.046-13.045a1.029 1.029 0 0 0 -1.414 0l-7.293 7.293-12.293-12.293a1 1 0 0 0 -1.414 0l-10.793 10.793v-13.686a5.013 5.013 0 0 0 3.9-3.9h40.2a5.013 5.013 0 0 0 3.9 3.9z"/><path d="m48 34a4 4 0 1 0 4 4 4 4 0 0 0 -4-4zm0 6a2 2 0 1 1 2-2 2 2 0 0 1 -2 2z"/></g></g></svg>