<svg height="512" viewBox="0 0 64 64" width="512" xmlns="http://www.w3.org/2000/svg"><g id="Fridge"><rect fill="#d4effc" height="57" rx="2" width="38" x="13" y="1"/><path d="m13 6h38v20h-38z" fill="#ade1fa"/><path d="m17 63v-5h9l-3 5z" fill="#86d1ef"/><path d="m41 63-3-5h9v5z" fill="#86d1ef"/><path d="m13 6v-3a2 2 0 0 1 2-2h34a2 2 0 0 1 2 2v3z" fill="#86d1ef"/><path d="m15 58a2 2 0 0 1 -2-2v-2h38v2a2 2 0 0 1 -2 2z" fill="#ade1fa"/><g fill="#38383d"><path d="m49 0h-34a3 3 0 0 0 -3 3v53a3 3 0 0 0 3 3h1v4a1 1 0 0 0 1 1h6a1 1 0 0 0 .857-.485l2.709-4.515h10.868l2.709 4.515a1 1 0 0 0 .857.485h6a1 1 0 0 0 1-1v-4h1a3 3 0 0 0 3-3v-53a3 3 0 0 0 -3-3zm1 25h-36v-18h36zm-36 2h36v26h-36zm0-24a1 1 0 0 1 1-1h34a1 1 0 0 1 1 1v2h-36zm8.434 59h-4.434v-3h6.234zm23.566 0h-4.434l-1.8-3h6.234zm4-6a1 1 0 0 1 -1 1h-34a1 1 0 0 1 -1-1v-1h36z"/><path d="m17 23h12a1 1 0 0 0 .707-.293l1.5-1.5a1 1 0 0 0 -1.414-1.414l-1.207 1.207h-11.586a1 1 0 0 0 0 2z"/><path d="m29.707 29.293a1 1 0 0 0 -.707-.293h-12a1 1 0 0 0 0 2h11.586l1.207 1.207a1 1 0 0 0 1.414-1.414z"/><path d="m30 11h4a1 1 0 0 0 0-2h-4a1 1 0 0 0 0 2z"/></g></g></svg>