<svg height="512" viewBox="0 0 64 64" width="512" xmlns="http://www.w3.org/2000/svg"><g id="Hand_Mirror" data-name="Hand Mirror"><path d="m31.984 63a6.291 6.291 0 0 1 -.711-.041 6.055 6.055 0 0 1 -5.2-5 5.965 5.965 0 0 1 1.236-4.7 8.306 8.306 0 0 0 1.691-5.193v-6.187a8.181 8.181 0 0 0 -3.938-6.918c-4.973-3.118-8.062-9.234-8.062-15.961 0-9.925 6.729-18 15-18s15 8.075 15 18c0 6.727-3.089 12.843-8.062 15.961a8.181 8.181 0 0 0 -3.938 6.918v6.457a8.642 8.642 0 0 0 1.831 5.109 5.995 5.995 0 0 1 -.845 8.039 6.01 6.01 0 0 1 -4.002 1.516z" fill="#d4effc"/><ellipse cx="32" cy="19" fill="#ade1fa" rx="11" ry="14"/><circle cx="32" cy="57" fill="#ade1fa" r="2"/><g fill="#38383d"><path d="m36.555 12.168a1 1 0 0 0 -1.387.278l-8 12a1 1 0 0 0 1.664 1.109l8-12a1 1 0 0 0 -.277-1.387z"/><path d="m35.957 18.763-3.164 4.745a1 1 0 0 0 1.664 1.11l3.164-4.745a1 1 0 0 0 -1.664-1.11z"/><path d="m27.624 19.063a1 1 0 0 0 .833-.445l3.164-4.745a1 1 0 0 0 -1.664-1.11l-3.164 4.745a1 1 0 0 0 .831 1.555z"/><path d="m29 57a3 3 0 1 0 3-3 3 3 0 0 0 -3 3zm4 0a1 1 0 1 1 -1-1 1 1 0 0 1 1 1z"/><path d="m32 0c-8.822 0-16 8.524-16 19 0 7.068 3.269 13.509 8.53 16.809a7.186 7.186 0 0 1 3.47 6.07v6.188a7.307 7.307 0 0 1 -1.47 4.571 6.955 6.955 0 0 0 -1.443 5.478 7.069 7.069 0 0 0 6.07 5.835 7.181 7.181 0 0 0 .827.049 7 7 0 0 0 7.016-7 6.93 6.93 0 0 0 -1.366-4.149 7.659 7.659 0 0 1 -1.634-4.514v-6.458a7.186 7.186 0 0 1 3.47-6.07c5.261-3.3 8.53-9.741 8.53-16.809 0-10.476-7.178-19-16-19zm6.407 34.115a9.171 9.171 0 0 0 -4.407 7.764v6.458a9.639 9.639 0 0 0 2.026 5.7 4.947 4.947 0 0 1 .974 2.963 5 5 0 1 1 -8.908-3.112 9.31 9.31 0 0 0 1.908-5.821v-6.188a9.171 9.171 0 0 0 -4.407-7.764c-4.684-2.938-7.593-8.729-7.593-15.115 0-9.374 6.28-17 14-17s14 7.626 14 17c0 6.386-2.909 12.177-7.593 15.115z"/><path d="m32 4c-6.617 0-12 6.729-12 15s5.383 15 12 15 12-6.729 12-15-5.383-15-12-15zm0 28c-5.514 0-10-5.831-10-13s4.486-13 10-13 10 5.832 10 13-4.486 13-10 13z"/></g></g></svg>