<svg height="512" viewBox="0 0 64 64" width="512" xmlns="http://www.w3.org/2000/svg"><g id="Lamp-2" data-name="Lamp"><ellipse cx="32" cy="57" fill="#f2cac1" rx="19" ry="6"/><path d="m24 57a5.006 5.006 0 0 0 5-5v-30l6-.081v30.081a5.006 5.006 0 0 0 5 5z" fill="#f9e0dc"/><path d="m32 26c-7.168 0-13-1.346-13-3l5-20 .063.338.256.226c.804.713 3.701 1.436 7.681 1.436s6.877-.723 7.681-1.436l.257-.228.062-.336 5 20c0 1.654-5.832 3-13 3z" fill="#d4effc"/><circle cx="23" cy="39" fill="#d4effc" r="2"/><ellipse cx="32" cy="3" fill="#ade1fa" rx="8" ry="2"/><path d="m36 50.142v-23.3c4.171-.3 10-1.2 10-3.846a.984.984 0 0 0 -.03-.242l-5-20c-.617-2.454-6.441-2.754-8.97-2.754s-8.351.3-8.97 2.758l-5 20a.984.984 0 0 0 -.03.242c0 1.447 1.741 2.37 4 2.96v10.224a3 3 0 1 0 2 0v-9.8c1.349.229 2.748.374 4 .464v23.3c-8.114.539-16 2.817-16 6.858 0 4.547 10.305 7 20 7s20-2.453 20-7c0-4.047-7.886-6.325-16-6.864zm-13-10.142a1 1 0 1 1 1-1 1 1 0 0 1 -1 1zm9-38a17.475 17.475 0 0 1 6.728 1 17.475 17.475 0 0 1 -6.728 1 17.475 17.475 0 0 1 -6.728-1 17.475 17.475 0 0 1 6.728-1zm-7.433 2.855c2.281 1.067 6.365 1.145 7.433 1.145s5.152-.078 7.433-1.145l4.531 18.124c-.656.765-4.97 2.021-11.964 2.021s-11.308-1.256-11.964-2.021zm7.433 57.145c-11.152 0-18-2.912-18-5 0-1.685 4.861-4.229 13.985-4.852a4 4 0 0 1 -3.985 3.852 1 1 0 0 0 0 2 6.006 6.006 0 0 0 6-6v-25.043c.982.043 1.714.043 2 .043s1.018 0 2-.043v25.043a6.006 6.006 0 0 0 6 6 1 1 0 0 0 0-2 4 4 0 0 1 -3.985-3.852c9.124.623 13.985 3.167 13.985 4.852 0 2.088-6.848 5-18 5z" fill="#38383d"/></g></svg>