<svg height="512" viewBox="0 0 64 64" width="512" xmlns="http://www.w3.org/2000/svg"><g id="Mirror"><path d="m24.23 10.91a8 8 0 1 1 15.54 0 16.83 16.83 0 0 0 -15.54 0z" fill="#ade1fa"/><path d="m35.97 9.482a16.679 16.679 0 0 0 -7.937 0 3.26 3.26 0 0 1 -.033-.482 4 4 0 0 1 8 0 3.769 3.769 0 0 1 -.03.482z" fill="#69d3ff"/><ellipse cx="32" cy="36" fill="#d4effc" rx="21" ry="27"/><ellipse cx="32" cy="36" fill="#ade1fa" rx="17" ry="23"/><g fill="#38383d"><path d="m40.879 10.39a9 9 0 1 0 -17.758 0c-7.721 4.353-13.121 14.191-13.121 25.61 0 15.439 9.869 28 22 28s22-12.561 22-28c0-11.419-5.4-21.257-13.121-25.61zm-15.879-1.39a7 7 0 0 1 14 0c0 .151-.017.3-.027.45a18.415 18.415 0 0 0 -2-.72 4.979 4.979 0 0 0 -9.946 0 18.415 18.415 0 0 0 -2 .72c-.01-.15-.027-.299-.027-.45zm9.893-.75a16.864 16.864 0 0 0 -5.786 0 2.985 2.985 0 0 1 5.786 0zm-2.893 53.75c-11.028 0-20-11.663-20-26s8.972-26 20-26 20 11.663 20 26-8.972 26-20 26z"/><path d="m32 12c-9.925 0-18 10.767-18 24s8.075 24 18 24 18-10.767 18-24-8.075-24-18-24zm0 46c-8.822 0-16-9.869-16-22s7.178-22 16-22 16 9.869 16 22-7.178 22-16 22z"/><path d="m38.479 24.122a1 1 0 0 0 -1.357.4l-12 22a1 1 0 0 0 1.756.958l12-22a1 1 0 0 0 -.399-1.358z"/><path d="m30.087 25.34a1 1 0 0 0 -1.357.4l-6.421 11.773a1 1 0 1 0 1.755.957l6.422-11.77a1 1 0 0 0 -.399-1.36z"/><path d="m40.844 33.952a1 1 0 0 0 -1.357.4l-6.1 11.176a1 1 0 1 0 1.755.957l6.1-11.176a1 1 0 0 0 -.398-1.357z"/></g></g></svg>