<svg height="512" viewBox="0 0 64 64" width="512" xmlns="http://www.w3.org/2000/svg"><g id="Table"><path d="m15.82 29 1.18-10h30l1.18 10z" fill="#dbaaa2"/><path d="m51 53-4-34h9v34z" fill="#f2cac1"/><path d="m8 53v-34h9l-4 34z" fill="#f2cac1"/><path d="m1 11h62v8h-62z" fill="#f9e0dc"/><path d="m63 10h-62a1 1 0 0 0 -1 1v8a1 1 0 0 0 1 1h6v33a1 1 0 0 0 1 1h5a1 1 0 0 0 .993-.883l2.72-23.117h30.574l2.72 23.117a1 1 0 0 0 .993.883h5a1 1 0 0 0 1-1v-33h6a1 1 0 0 0 1-1v-8a1 1 0 0 0 -1-1zm-50.89 42h-3.11v-32h6.875l-.016.132c-.091.779-3.601 30.615-3.749 31.868zm4.838-24 .941-8h28.222l.941 8zm38.052 24h-3.11c-.214-1.817-3.277-27.86-3.749-31.868l-.016-.132h6.875zm7-34h-60v-6h60z" fill="#38383d"/></g></svg>