<svg height="512" viewBox="0 0 64 64" width="512" xmlns="http://www.w3.org/2000/svg"><g id="Tv"><path d="m46 49-5-7h8l5 7z" fill="#69d3ff"/><path d="m10 49 5-7h8l-5 7z" fill="#69d3ff"/><rect fill="#f9e0dc" height="9" rx="2" width="62" x="1" y="49"/><path d="m3 58a2 2 0 0 1 -2-2v-5a2 2 0 0 1 2-2h29v9z" fill="#f2cac1"/><rect fill="#d4effc" height="36" rx="4" width="52" x="6" y="6"/><path d="m10 42a4 4 0 0 1 -4-4v-2h52v2a4 4 0 0 1 -4 4z" fill="#ade1fa"/><path d="m10 10h44v22h-44z" fill="#ade1fa"/><g fill="#38383d"><path d="m61 48h-6.486l-3.571-5h3.057a5.006 5.006 0 0 0 5-5v-28a5.006 5.006 0 0 0 -5-5h-44a5.006 5.006 0 0 0 -5 5v28a5.006 5.006 0 0 0 5 5h3.057l-3.571 5h-6.486a3 3 0 0 0 -3 3v5a3 3 0 0 0 3 3h58a3 3 0 0 0 3-3v-5a3 3 0 0 0 -3-3zm-8.943 0h-5.543l-3.571-5h5.543zm-32.114 0 3.571-5h16.972l3.571 5zm-12.943-38a3 3 0 0 1 3-3h44a3 3 0 0 1 3 3v25h-50zm0 28v-1h50v1a3 3 0 0 1 -3 3h-44a3 3 0 0 1 -3-3zm8.514 5h5.543l-3.571 5h-5.543zm-13.514 13v-5a1 1 0 0 1 1-1h28v7h-28a1 1 0 0 1 -1-1zm60 0a1 1 0 0 1 -1 1h-28v-7h28a1 1 0 0 1 1 1z"/><path d="m50.293 52.293-.707.707h-4.172l-.707-.707a1 1 0 0 0 -1.414 1.414l1 1a1 1 0 0 0 .707.293h5a1 1 0 0 0 .707-.293l1-1a1 1 0 0 0 -1.414-1.414z"/><path d="m19.293 52.293-.707.707h-4.172l-.707-.707a1 1 0 0 0 -1.414 1.414l1 1a1 1 0 0 0 .707.293h5a1 1 0 0 0 .707-.293l1-1a1 1 0 0 0 -1.414-1.414z"/><path d="m54 9h-44a1 1 0 0 0 -1 1v22a1 1 0 0 0 1 1h44a1 1 0 0 0 1-1v-22a1 1 0 0 0 -1-1zm-1 22h-42v-20h42z"/><path d="m34 38h-4a1 1 0 0 0 0 2h4a1 1 0 0 0 0-2z"/><path d="m26 27a1 1 0 0 0 .64-.232l12-10a1 1 0 1 0 -1.282-1.536l-12 10a1 1 0 0 0 .642 1.768z"/><path d="m37.375 21.219-5 4a1 1 0 0 0 1.25 1.562l5-4a1 1 0 1 0 -1.25-1.562z"/><path d="m26 21a1 1 0 0 0 .624-.219l5-4a1 1 0 0 0 -1.25-1.562l-5 4a1 1 0 0 0 .626 1.781z"/></g></g></svg>