<svg height="512" viewBox="0 0 64 64" width="512" xmlns="http://www.w3.org/2000/svg"><g id="stairs"><path d="m4 61v-23.64l44.326-34.365 14.674.005v4h-13.32l-1.68 1.3v22.7h-4v-19.59l-9 6.98v20.61h-4v-17.51l-10 7.76v17.75h-4v-14.65l-9 6.98v21.67z" fill="#f2cac1"/><path d="m12 61v-14h14v-8h14v-8h13v-8h10v38z" fill="#f9e0dc"/><path d="m50.021 8h12.979a1 1 0 0 0 0-2h-13.32a1.007 1.007 0 0 0 -.613.209l-1.679 1.3a1 1 0 0 0 -.388.791v21.7h-2v-18.59a1 1 0 0 0 -1.613-.79l-9 6.98a1 1 0 0 0 -.387.79v19.61h-2v-16.51a1 1 0 0 0 -1.613-.79l-10 7.76a1 1 0 0 0 -.387.79v16.75h-2v-13.65a1 1 0 0 0 -1.613-.79l-9 6.98a1 1 0 0 0 -.387.79v20.67h-2v-22.153l43.376-33.632.282-.215h14.342a1 1 0 0 0 0-2h-14.68a1 1 0 0 0 -.606.205l-40.326 31.264-4 3.1a1 1 0 0 0 -.388.791v22.64h-2a1 1 0 0 0 0 2h62a1 1 0 0 0 0-2h-50v-12h13a1 1 0 0 0 1-1v-7h13a1 1 0 0 0 1-1v-7h12a1 1 0 0 0 1-1v-7h9a1 1 0 0 0 0-2h-10a1 1 0 0 0 -1 1v7h-3v-21.209zm-38.021 38a1 1 0 0 0 -1 1v13h-2v-20.18l7-5.429v11.609zm14-8a1 1 0 0 0 -1 1v7h-3v-16.26l8-6.208v14.468zm14-8a1 1 0 0 0 -1 1v7h-3v-19.12l7-5.429v16.549z" fill="#38383d"/></g></svg>