<svg height="512" viewBox="0 0 64 64" width="512" xmlns="http://www.w3.org/2000/svg"><g id="Stool"><path d="m12.09 45 2.64-6h34.54l2.64 6z" fill="#dbaaa2"/><path d="m55 52-12.35-28h7l12.35 28z" fill="#f2cac1"/><path d="m2 52 12.35-28h7l-12.35 28z" fill="#f2cac1"/><rect fill="#f9e0dc" height="12" rx="4" width="62" x="1" y="12"/><path d="m64 20v-4a5.006 5.006 0 0 0 -5-5h-54a5.006 5.006 0 0 0 -5 5v4a5.006 5.006 0 0 0 5 5h7.816l-11.731 26.6a1 1 0 0 0 .915 1.4h7a1 1 0 0 0 .915-.6l2.824-6.4h38.522l2.824 6.4a1 1 0 0 0 .915.6h7a1 1 0 0 0 .915-1.4l-11.731-26.6h7.816a5.006 5.006 0 0 0 5-5zm-62 0v-4a3 3 0 0 1 3-3h54a3 3 0 0 1 3 3v4a3 3 0 0 1 -3 3h-54a3 3 0 0 1 -3-3zm40 5 5.733 13h-31.465l5.732-13zm-33.652 26h-4.814l11.466-26h4.813c-.72 1.638-11.429 25.917-11.465 26zm42.03-7h-36.756c.447-1.015.1-.223 1.764-4h33.228c1.666 3.776 1.317 2.985 1.764 4zm10.088 7h-4.814c-1.052-2.379-10.222-23.176-11.467-26h4.815z" fill="#38383d"/></g></svg>