<svg height="512" viewBox="0 0 64 64" width="512" xmlns="http://www.w3.org/2000/svg"><g id="wall_clock" data-name="wall clock"><path d="m20 58v-30.41a16.013 16.013 0 0 0 24 0v30.41z" fill="#f9e0dc"/><circle cx="32" cy="17" fill="#f2cac1" r="16"/><circle cx="32" cy="17" fill="#dbaaa2" r="12"/><path d="m20 63v-1a4 4 0 0 0 -4-4h32a4 4 0 0 0 -4 4v1z" fill="#f2cac1"/><path d="m27 54a3 3 0 0 0 -3-3v-15.67a20.085 20.085 0 0 0 16 0v15.67a3 3 0 0 0 -3 3z" fill="#f2cac1"/><circle cx="32" cy="48" fill="#bc8079" r="2"/><g fill="#38383d"><path d="m32 30a13 13 0 1 0 -13-13 13.015 13.015 0 0 0 13 13zm0-24a11 11 0 1 1 -11 11 11.013 11.013 0 0 1 11-11z"/><path d="m48 57h-3v-29.068a17 17 0 1 0 -26 0v29.068h-3a1 1 0 0 0 0 2 3 3 0 0 1 3 3v1a1 1 0 0 0 1 1h24a1 1 0 0 0 1-1v-1a3 3 0 0 1 3-3 1 1 0 0 0 0-2zm-16-55a15 15 0 1 1 -15 15 15.017 15.017 0 0 1 15-15zm-11 27.938a16.925 16.925 0 0 0 22 0v27.062h-22zm22 32.062h-22a4.973 4.973 0 0 0 -1-3h24a4.973 4.973 0 0 0 -1 3z"/><path d="m40.548 34.493a1 1 0 0 0 -.947-.08 19.027 19.027 0 0 1 -7.539 1.576c-.022 0-.04-.012-.062-.012s-.04.011-.062.012a19.027 19.027 0 0 1 -7.538-1.576 1 1 0 0 0 -1.4.917v15.67a1 1 0 0 0 1 1 2 2 0 0 1 2 2 1 1 0 0 0 1 1h10a1 1 0 0 0 1-1 2 2 0 0 1 2-2 1 1 0 0 0 1-1v-15.67a1 1 0 0 0 -.452-.837zm-8.548 12.507a1 1 0 1 1 -1 1 1 1 0 0 1 1-1zm7 3.127a4.014 4.014 0 0 0 -2.873 2.873h-8.254a4.014 4.014 0 0 0 -2.873-2.873v-13.327a20.915 20.915 0 0 0 6 1.155v7.23a3 3 0 1 0 2 0v-7.23a20.915 20.915 0 0 0 6-1.155z"/><path d="m32 10a1 1 0 0 0 1-1v-1a1 1 0 0 0 -2 0v1a1 1 0 0 0 1 1z"/><path d="m27.134 10.572a1 1 0 1 0 1.732-1l-.5-.866a1 1 0 0 0 -1.732 1z"/><path d="m23.706 13.366.866.5a1 1 0 1 0 1-1.732l-.866-.5a1 1 0 0 0 -1 1.732z"/><path d="m25 17a1 1 0 0 0 -1-1h-1a1 1 0 0 0 0 2h1a1 1 0 0 0 1-1z"/><path d="m25.572 21.866a1 1 0 1 0 -1-1.732l-.866.5a1 1 0 1 0 1 1.732z"/><path d="m27 25.66a1 1 0 0 0 1.366-.366l.5-.866a1 1 0 1 0 -1.732-1l-.5.866a1 1 0 0 0 .366 1.366z"/><path d="m32 27a1 1 0 0 0 1-1v-1a1 1 0 0 0 -2 0v1a1 1 0 0 0 1 1z"/><path d="m36.866 23.428a1 1 0 1 0 -1.732 1l.5.866a1 1 0 0 0 1.732-1z"/><path d="m38.428 21.866.866.5a1 1 0 1 0 1-1.732l-.866-.5a1 1 0 0 0 -1 1.732z"/><path d="m39 17a1 1 0 0 0 1 1h1a1 1 0 0 0 0-2h-1a1 1 0 0 0 -1 1z"/><path d="m38.929 14a.992.992 0 0 0 .5-.134l.866-.5a1 1 0 0 0 -1-1.732l-.866.5a1 1 0 0 0 .5 1.866z"/><path d="m35.5 10.938a1 1 0 0 0 1.366-.366l.5-.866a1 1 0 1 0 -1.732-1l-.5.866a1 1 0 0 0 .366 1.366z"/><path d="m31.5 17.866 2.408 1.391a1 1 0 0 0 1-1.733l-1.908-1.101v-3.423a1 1 0 0 0 -2 0v4a1 1 0 0 0 .5.866z"/></g></g></svg>