<svg height="512" viewBox="0 0 64 64" width="512" xmlns="http://www.w3.org/2000/svg"><g id="Windows"><path d="m55 51v-44h-46v44h-4v-44a4 4 0 0 1 4-4h46a4 4 0 0 1 4 4v44z" fill="#f9e0dc"/><path d="m11 61-2-5h46l-2 5z" fill="#86d1ef"/><path d="m9 7h46v44h-46z" fill="#d4effc"/><path d="m35 43v-28l20-8v44z" fill="#f2cac1"/><path d="m39 40.292v-22.584l12-4.8v32.184z" fill="#dbaaa2"/><path d="m9 7 20 8v28l-19.999 8z" fill="#f2cac1"/><path d="m1 51h62v5h-62z" fill="#ade1fa"/><path d="m13 12.908 12 4.8v22.584l-12 4.8z" fill="#dbaaa2"/><g fill="#38383d"><path d="m63 50h-3v-43a5.006 5.006 0 0 0 -5-5h-46a5.006 5.006 0 0 0 -5 5v43h-3a1 1 0 0 0 -1 1v5a1 1 0 0 0 1 1h7.323l1.748 4.372a1 1 0 0 0 .929.628h42a1 1 0 0 0 .929-.628l1.748-4.372h7.323a1 1 0 0 0 1-1v-5a1 1 0 0 0 -1-1zm-57-43a3 3 0 0 1 3-3h46a3 3 0 0 1 3 3v43h-2v-43a1.009 1.009 0 0 0 -1-1h-46a1.01 1.01 0 0 0 -1 1v43h-2zm22 8.677v26.646l-18 7.2v-41.046zm1.371 28.252a1 1 0 0 0 .629-.929v-28a1 1 0 0 0 -.629-.929l-15.178-6.071h35.614l-15.178 6.071a1 1 0 0 0 -.629.929v28a1 1 0 0 0 .629.929l15.178 6.071h-35.614zm24.629-35.452v41.046l-18-7.2v-26.646zm-1.677 51.523h-40.646l-1.2-3h43.046zm9.677-5h-60v-3h60z"/><path d="m38.629 41.221 12 4.8a1 1 0 0 0 1.371-.929v-32.184a1 1 0 0 0 -1.371-.929l-12 4.8a1 1 0 0 0 -.629.929v22.584a1 1 0 0 0 .629.929zm1.371-11.221h4v11.215l-4-1.6zm6 12.015v-12.015h4v13.615zm4-14.015h-4v-12.015l4-1.6zm-6-11.215v11.215h-4v-9.615z"/><path d="m12.439 45.92a1 1 0 0 0 .932.1l6.018-2.408 5.981-2.392a1 1 0 0 0 .63-.928v-22.584a1 1 0 0 0 -.629-.929l-5.981-2.392-6.018-2.408a1 1 0 0 0 -1.372.929v32.184a1 1 0 0 0 .439.828zm1.561-15.92h4v12.015l-4 1.6zm6 11.215v-11.215h4v9.615zm4-13.215h-4v-11.215l4 1.6zm-6-12.015v12.015h-4v-13.615z"/></g></g></svg>