<svg id="Capa_1" enable-background="new 0 0 512 512" height="512" viewBox="0 0 512 512" width="512" xmlns="http://www.w3.org/2000/svg"><g><g><path d="m235.337 215.919h60.743v64.129h-60.743z" fill="#dad8db"/><path d="m408.306 95.677h-128.258l8.016 128.258-50.444 50.445c-5.05 5.05-1.473 13.684 5.668 13.684h165.019c4.427 0 8.016-3.589 8.016-8.016v-176.354c0-4.428-3.589-8.017-8.017-8.017z" fill="#eceaec"/><path d="m288.065 159.806h64.129v64.129h-64.129z" fill="#5d5360"/><path d="m352.194 159.806h64.129v-56.113c0-4.427-3.589-8.016-8.016-8.016h-56.113z" fill="#5d5360"/><path d="m352.194 223.935h64.129v56.113c0 4.427-3.589 8.016-8.016 8.016h-56.113z" fill="#5d5360"/><path d="m288.065 223.935h-128.258v-192.387h120.242c4.427 0 8.016 3.589 8.016 8.016z" fill="#eceaec"/><path d="m109.017 7.72c-7.882 1.282-13.339 8.684-13.339 16.67v480.11h32.065v-480.968c-.001-9.737-8.682-17.447-18.726-15.812z" fill="#ecbd83"/><g fill="#5d5360"><path d="m159.806 31.548h64.129v64.129h-64.129z"/><path d="m159.806 159.806h64.129v64.129h-64.129z"/><path d="m223.935 95.677h64.129v64.129h-64.129z"/><path d="m243.288 288.065h44.777v-64.129l-50.445 50.444c-5.05 5.05-1.473 13.685 5.668 13.685z"/></g></g><path d="m408.307 88.177h-88.178c-4.142 0-7.5 3.358-7.5 7.5s3.358 7.5 7.5 7.5h24.565v49.129h-24.565c-4.142 0-7.5 3.358-7.5 7.5s3.358 7.5 7.5 7.5h24.565v49.129h-24.565c-4.142 0-7.5 3.358-7.5 7.5s3.358 7.5 7.5 7.5h24.565v49.129h-49.129v-16.548c0-4.142-3.358-7.5-7.5-7.5s-7.5 3.358-7.5 7.5v16.548h-37.276c-.177 0-.345 0-.477-.319-.132-.318-.014-.437.112-.562l50.444-50.444c1.358-1.357 2.198-3.233 2.198-5.305v-184.37c0-8.556-6.96-15.516-15.516-15.516h-144.808v-.516c0-12.975-10.557-23.532-23.533-23.532s-23.532 10.557-23.532 23.532v480.968c0 4.142 3.358 7.5 7.5 7.5s7.5-3.358 7.5-7.5v-480.968c0-4.705 3.828-8.532 8.532-8.532s8.532 3.828 8.532 8.532v480.968c0 4.142 3.358 7.5 7.5 7.5s7.5-3.358 7.5-7.5v-273.064h134.716l-37.642 37.642c-4.453 4.453-5.773 11.09-3.363 16.909s8.037 9.579 14.335 9.579h165.019c8.556 0 15.516-6.96 15.516-15.516v-176.357c.001-8.555-6.96-15.516-15.515-15.516zm-127.743 64.13h-49.129v-49.129h49.129zm-64.128 0h-49.129v-49.129h49.129zm-49.129-64.13v-49.129h49.129v49.129zm0 79.13h49.129v49.129h-49.129zm64.129 0h49.129v49.129h-49.129zm49.128-127.743v48.613h-49.129v-49.129h48.613c.285 0 .516.232.516.516zm-145.322-.516h17.065v177.387h-17.065zm224.452 64.129h48.613c.285 0 .516.231.516.516v48.613h-49.129zm0 64.13h49.129v49.129h-49.129zm48.613 113.257h-48.613v-49.129h49.129v48.613c0 .285-.232.516-.516.516z"/></g></svg>