<svg id="Capa_1" enable-background="new 0 0 513.41 513.41" height="512" viewBox="0 0 513.41 513.41" width="512" xmlns="http://www.w3.org/2000/svg"><g><g><g><path d="m263.655 87.36v15.41c0 15.4-12.49 27.89-27.9 27.89-15.4 0-27.89-12.49-27.89-27.89v-15.41c0-7.7 3.12-14.67 8.17-19.72s12.02-8.17 19.72-8.17c15.41 0 27.9 12.49 27.9 27.89z" fill="#ffcebf"/><path d="m235.755 59.47c-4.695 0-9.116 1.165-12.998 3.216 8.857 4.675 14.896 13.969 14.896 24.674v15.41c0 10.705-6.039 20-14.896 24.674 3.882 2.05 8.303 3.216 12.998 3.216 15.41 0 27.9-12.49 27.9-27.89v-15.41c0-15.4-12.49-27.89-27.9-27.89z" fill="#ffb09e"/><path d="m263.655 87.36v5.07h-55.79v-5.07c0-7.7 3.12-14.67 8.17-19.72s12.02-8.17 19.72-8.17c15.41 0 27.9 12.49 27.9 27.89z" fill="#99e6fc"/><path d="m235.755 59.47c-4.695 0-9.116 1.165-12.998 3.216 8.857 4.675 14.896 13.969 14.896 24.674v5.07h26.002v-5.07c0-15.4-12.49-27.89-27.9-27.89z" fill="#62dbfb"/><path d="m286.188 158.471-5 132.874h-92.857l-5-132.874z" fill="#fef48b"/><path d="m260.186 158.471-5 132.874h26.002l5-132.874z" fill="#fef056"/><path d="m286.188 158.471h19.181l-10.642-16.38c-5.265-8.104-2.595-18.971 5.827-23.711 7.321-4.121 16.562-2.179 21.604 4.541l45.215 60.251c4.933 6.574 4.803 15.651-.317 22.08-3.18 3.993-7.901 6.453-12.995 6.771l-70.053 4.379z" fill="#fef48b"/><g fill="#fef056"><path d="m367.055 205.25c-1.59 1.99-3.57 3.61-5.78 4.76s-4.67 1.85-7.21 2.01l-19.86 1.24c1.06-.32 2.09-.74 3.07-1.25 2.21-1.15 4.19-2.77 5.78-4.76 5.12-6.43 5.25-15.51.32-22.08l-45.22-60.25c-.71-.95-1.5-1.8-2.36-2.53 1.28-1.58 2.87-2.95 4.76-4.01 2.58-1.45 5.41-2.15 8.2-2.15 5.12 0 10.14 2.34 13.4 6.69l45.22 60.25c4.93 6.57 4.8 15.65-.32 22.08z"/><path d="m183.331 158.471 5 132.875h-38.459l-3.399-94.67c-.749-20.875 15.97-38.205 36.858-38.205z"/></g></g><path d="m444.62 59.47h-373.829c-7.41 0-13.417-6.007-13.417-13.417v-25.136c0-7.41 6.007-13.417 13.417-13.417h373.829c7.41 0 13.417 6.007 13.417 13.417v25.137c-.001 7.409-6.008 13.416-13.417 13.416z" fill="#b98080"/><path d="m458.035 20.92v25.13c0 7.41-6.01 13.42-13.42 13.42h-26c7.41 0 13.42-6.01 13.42-13.42v-25.13c0-7.41-6.01-13.42-13.42-13.42h26c7.41 0 13.42 6.01 13.42 13.42z" fill="#ae6c6c"/><path d="m457.036 470.521h-400.662v-197.146c0-7.41 6.007-13.417 13.417-13.417h373.829c7.41 0 13.417 6.007 13.417 13.417v197.146z" fill="#b98080"/><path d="m457.035 273.37v197.15h-26v-197.15c0-7.41-6.01-13.41-13.42-13.41h26c7.41 0 13.42 6 13.42 13.41z" fill="#ae6c6c"/><g><g><path d="m87.354 59.47h27v200.488h-27z" fill="#9e9797"/></g><g><path d="m399.056 59.47h27v200.488h-27z" fill="#8c8585"/></g></g><path d="m489.963 505.91h-260.576c-9.429 0-17.072-7.643-17.072-17.072v-120.257h292.89v122.086c0 8.419-6.824 15.243-15.242 15.243z" fill="#c59191"/><path d="m479.203 368.581v122.086c0 8.418-6.824 15.243-15.242 15.243h26.002c8.418 0 15.243-6.824 15.243-15.243v-122.086z" fill="#b98080"/><path d="m23.448 505.91h171.796c9.429 0 17.072-7.643 17.072-17.072v-55.055h-204.111v56.885c0 8.418 6.824 15.242 15.243 15.242z" fill="#fcd18a"/><path d="m186.313 433.783v55.055c0 9.428-7.643 17.072-17.072 17.072h26.002c9.428 0 17.072-7.643 17.072-17.072v-55.055z" fill="#fbc56d"/><path d="m8.205 344.495h204.11v89.288h-204.11z" fill="#fcd18a" transform="matrix(-1 0 0 -1 220.52 778.278)"/><path d="m186.313 344.495h26.002v89.288h-26.002z" fill="#fbc56d"/><g fill="#80d261"><path d="m49.027 433.783h-40.822v-18.786c0-10.553 4.354-20.638 12.035-27.875l8.376-7.892 8.376 7.892c7.681 7.237 12.035 17.322 12.035 27.875z"/><path d="m89.849 433.783h-40.822v-18.786c0-10.553 4.354-20.638 12.035-27.875l8.376-7.892 8.376 7.892c7.681 7.237 12.035 17.322 12.035 27.875z"/><path d="m130.671 433.783h-40.822v-18.786c0-10.553 4.354-20.638 12.035-27.875l8.376-7.892 8.376 7.892c7.681 7.237 12.035 17.322 12.035 27.875z"/><path d="m171.493 433.783h-40.822v-18.786c0-10.553 4.354-20.638 12.035-27.875l8.376-7.892 8.376 7.892c7.681 7.237 12.035 17.322 12.035 27.875z"/><path d="m212.315 433.783h-40.822v-18.786c0-10.553 4.354-20.638 12.035-27.875l8.376-7.892 8.376 7.892c7.681 7.237 12.035 17.322 12.035 27.875z"/></g><g fill="#68ca44"><path d="m36.992 387.122-8.376-7.892-8.376 7.892c-1.31 1.234-2.514 2.556-3.625 3.944 5.406 6.751 8.41 15.178 8.41 23.931v18.786h24.002v-18.786c0-10.553-4.354-20.638-12.035-27.875z"/><path d="m77.814 387.122-8.376-7.892-8.376 7.892c-1.309 1.234-2.514 2.556-3.625 3.944 5.406 6.751 8.41 15.178 8.41 23.931v18.786h24.002v-18.786c0-10.553-4.354-20.638-12.035-27.875z"/><path d="m118.636 387.122-8.376-7.892-8.376 7.892c-1.309 1.234-2.514 2.556-3.625 3.944 5.406 6.751 8.41 15.178 8.41 23.931v18.786h24.002v-18.786c0-10.553-4.354-20.638-12.035-27.875z"/><path d="m159.458 387.122-8.376-7.892-8.376 7.892c-1.309 1.234-2.514 2.556-3.625 3.944 5.406 6.751 8.41 15.178 8.41 23.931v18.786h24.002v-18.786c0-10.553-4.354-20.638-12.035-27.875z"/><path d="m200.28 387.122-8.376-7.892-8.376 7.892c-1.309 1.234-2.514 2.556-3.625 3.944 5.406 6.751 8.41 15.178 8.41 23.931v18.786h24.002v-18.786c0-10.553-4.354-20.638-12.035-27.875z"/></g><g fill="#80d261"><path d="m49.027 344.495h-40.822v-18.786c0-10.553 4.354-20.638 12.035-27.875l8.376-7.892 8.376 7.892c7.681 7.237 12.035 17.322 12.035 27.875z"/><path d="m89.849 344.495h-40.822v-18.786c0-10.553 4.354-20.638 12.035-27.875l8.376-7.892 8.376 7.892c7.681 7.237 12.035 17.322 12.035 27.875z"/><path d="m130.671 344.495h-40.822v-18.786c0-10.553 4.354-20.638 12.035-27.875l8.376-7.892 8.376 7.892c7.681 7.237 12.035 17.322 12.035 27.875z"/><path d="m171.493 344.495h-40.822v-18.786c0-10.553 4.354-20.638 12.035-27.875l8.376-7.892 8.376 7.892c7.681 7.237 12.035 17.322 12.035 27.875z"/><path d="m212.315 344.495h-40.822v-18.786c0-10.553 4.354-20.638 12.035-27.875l8.376-7.892 8.376 7.892c7.681 7.237 12.035 17.322 12.035 27.875z"/></g><g fill="#68ca44"><path d="m36.992 297.834-8.376-7.892-8.376 7.892c-1.31 1.234-2.514 2.556-3.625 3.944 5.406 6.751 8.41 15.177 8.41 23.931v18.785h24.002v-18.785c0-10.553-4.354-20.638-12.035-27.875z"/><path d="m77.814 297.834-8.376-7.892-8.376 7.892c-1.309 1.234-2.514 2.556-3.625 3.944 5.406 6.751 8.41 15.177 8.41 23.931v18.785h24.002v-18.785c0-10.553-4.354-20.638-12.035-27.875z"/><path d="m118.636 297.834-8.376-7.892-8.376 7.892c-1.309 1.234-2.514 2.556-3.625 3.944 5.406 6.751 8.41 15.177 8.41 23.931v18.785h24.002v-18.785c0-10.553-4.354-20.638-12.035-27.875z"/><path d="m159.458 297.834-8.376-7.892-8.376 7.892c-1.309 1.234-2.514 2.556-3.625 3.944 5.406 6.751 8.41 15.177 8.41 23.931v18.785h24.002v-18.785c0-10.553-4.354-20.638-12.035-27.875z"/><path d="m200.28 297.834-8.376-7.892-8.376 7.892c-1.309 1.234-2.514 2.556-3.625 3.944 5.406 6.751 8.41 15.177 8.41 23.931v18.785h24.002v-18.785c0-10.553-4.354-20.638-12.035-27.875z"/></g><g fill="#d1f19e"><path d="m212.315 368.581h97.63v-6.226c0-14.515-11.767-26.281-26.281-26.281v-3.62c0-13.256-10.746-24.001-24.001-24.001-8.741 0-16.791 4.752-21.015 12.406z"/><path d="m309.945 368.581h97.63v-6.226c0-14.515-11.767-26.281-26.281-26.281v-3.62c0-13.256-10.746-24.001-24.001-24.001-8.741 0-16.791 4.752-21.015 12.406z"/><path d="m407.575 368.581h97.63v-6.226c0-14.515-11.767-26.281-26.281-26.281v-3.62c0-13.256-10.746-24.001-24.001-24.001-8.741 0-16.791 4.752-21.015 12.406z"/></g><path d="m283.664 336.074v-3.62c0-13.256-10.746-24.001-24.001-24.001-4.694 0-9.183 1.381-12.993 3.836 6.612 4.274 10.992 11.706 10.992 20.165v3.62c14.515 0 26.281 11.766 26.281 26.281v6.226h26.002v-6.226c0-14.514-11.766-26.281-26.281-26.281z" fill="#bbec6c"/><path d="m381.294 336.074v-3.62c0-13.256-10.746-24.001-24.001-24.001-4.694 0-9.183 1.381-12.993 3.836 6.612 4.274 10.992 11.706 10.992 20.165v3.62c14.515 0 26.281 11.766 26.281 26.281v6.226h26.002v-6.226c0-14.514-11.766-26.281-26.281-26.281z" fill="#bbec6c"/><path d="m478.924 336.074v-3.62c0-13.256-10.746-24.001-24.001-24.001-4.695 0-9.183 1.381-12.993 3.836 6.612 4.274 10.992 11.706 10.992 20.165v3.62c14.515 0 26.281 11.766 26.281 26.281v6.226h26.002v-6.226c0-14.514-11.767-26.281-26.281-26.281z" fill="#bbec6c"/></g><path d="m486.275 329.38c-1.232-12.663-9.996-23.146-21.74-26.918v-29.092c0-11.53-9.385-20.91-20.92-20.91h-10.06v-185.489h11.063c11.533 0 20.917-9.384 20.917-20.917v-25.137c.001-11.533-9.383-20.917-20.916-20.917h-373.828c-11.533 0-20.917 9.384-20.917 20.917v25.137c0 11.533 9.384 20.917 20.917 20.917h9.063v185.489h-10.06c-11.535 0-20.92 9.38-20.92 20.91v27.039c-1.923-2.908-4.171-5.614-6.739-8.034l-8.376-7.892c-2.889-2.721-7.398-2.721-10.287 0l-8.376 7.892c-9.146 8.619-14.392 20.769-14.392 33.334v164.958c0 12.541 10.202 22.743 22.742 22.743h171.796c6.628 0 12.647-2.643 17.072-6.924 4.424 4.281 10.443 6.924 17.072 6.924h260.576c12.54 0 22.742-10.202 22.742-22.743v-122.086-6.226c.001-16.103-11.325-29.61-26.429-32.975zm-348.104 96.902v-11.285c0-8.451 3.527-16.621 9.679-22.416l3.232-3.046 3.233 3.046c6.15 5.795 9.678 13.965 9.678 22.416v11.285zm-40.821 0v-11.285c0-8.452 3.527-16.622 9.679-22.417l3.231-3.045 3.233 3.046c6.15 5.795 9.678 13.965 9.678 22.416v11.285zm-40.823 0v-11.285c0-8.451 3.527-16.621 9.679-22.416l3.232-3.046 3.233 3.046c6.15 5.795 9.678 13.965 9.678 22.416v11.285zm-40.822 0v-11.285c0-8.451 3.527-16.621 9.679-22.416l3.232-3.046 3.233 3.046c6.15 5.795 9.678 13.965 9.678 22.416v11.285zm40.822-100.573c0-8.45 3.527-16.621 9.679-22.416l3.232-3.046 3.232 3.046c6.151 5.795 9.679 13.966 9.679 22.416v11.286h-25.822zm40.823 0c0-8.451 3.527-16.621 9.679-22.417l3.231-3.045 3.232 3.046c6.151 5.795 9.679 13.966 9.679 22.416v11.286h-25.821zm40.821 0c0-8.45 3.527-16.621 9.679-22.416l3.232-3.046 3.232 3.046c6.151 5.795 9.679 13.966 9.679 22.416v11.286h-25.822zm40.822 0c0-8.45 3.527-16.621 9.679-22.416l3.232-3.046 3.232 3.046c6.151 5.795 9.679 13.966 9.679 22.416v11.286h-25.822zm104.671 17.865c9.928 0 18.081 7.743 18.738 17.507h-77.382l20.194-36.599c2.903-5.261 8.439-8.529 14.448-8.529 9.1 0 16.502 7.402 16.502 16.501v3.62c0 4.143 3.357 7.5 7.5 7.5zm97.63 0c9.928 0 18.081 7.743 18.738 17.507h-77.383l20.194-36.599c2.903-5.261 8.439-8.529 14.448-8.529 9.1 0 16.502 7.402 16.502 16.501v3.62c.001 4.143 3.358 7.5 7.501 7.5zm116.411 51.488h-277.89v-18.98h277.89zm-292.89-43.067v16.586 12.509l-7.768-7.318c-2.889-2.721-7.398-2.721-10.287 0l-8.375 7.892c-2.636 2.484-4.936 5.268-6.892 8.264-1.956-2.996-4.256-5.781-6.892-8.264l-8.376-7.892c-2.889-2.721-7.398-2.721-10.287 0l-8.375 7.892c-2.636 2.484-4.936 5.268-6.892 8.264-1.956-2.996-4.256-5.781-6.892-8.264l-8.376-7.892c-2.891-2.721-7.398-2.722-10.287.001l-8.374 7.891c-2.636 2.483-4.937 5.268-6.893 8.264-1.956-2.996-4.256-5.78-6.892-8.264l-8.376-7.892c-2.889-2.721-7.398-2.721-10.287 0l-8.375 7.892c-2.636 2.484-4.936 5.268-6.892 8.264-1.956-2.996-4.256-5.781-6.892-8.264l-8.376-7.892c-2.889-2.721-7.398-2.721-10.287 0l-7.768 7.319v-29.096zm-25.822 63.002c0-8.451 3.527-16.621 9.679-22.416l3.232-3.046 3.233 3.046c6.15 5.795 9.678 13.965 9.678 22.416v11.285h-25.822zm40.822-4.935h277.89v18.979h-277.89zm251.609-77.608v3.62c0 4.143 3.357 7.5 7.5 7.5 9.928 0 18.081 7.743 18.738 17.507h-77.383l20.195-36.6c2.902-5.261 8.438-8.528 14.447-8.528 9.1 0 16.503 7.402 16.503 16.501zm-52.868-79.996h-12v-185.487h12zm-353.682-206.404v-25.137c0-3.263 2.654-5.917 5.917-5.917h373.828c3.263 0 5.917 2.654 5.917 5.917v25.137c0 3.263-2.654 5.917-5.917 5.917h-373.828c-3.263 0-5.917-2.655-5.917-5.917zm191.121 38.874h-40.47c1.209-10.092 9.805-17.947 20.216-17.957h.039c10.409.009 19.005 7.864 20.215 17.957zm-40.63 15h40.789c.915 32.058-42.794 29.17-40.789 0zm-101.011-12.92c-4.143 0-7.5 3.357-7.5 7.5v157.95h-12v-185.487h112.004c-3.642 5.146-5.944 11.3-6.4 17.957h-13.341c-4.143 0-7.5 3.357-7.5 7.5s3.357 7.5 7.5 7.5h13.248c.083 52.686 72.454 48.513 70.789 0h12.852c4.143 0 7.5-3.357 7.5-7.5s-3.357-7.5-7.5-7.5h-12.945c-.455-6.657-2.757-12.811-6.4-17.957h126.894v185.489h-101.402l1.091-28.995 63.286-3.956c7.198-.451 13.902-3.945 18.394-9.585 7.246-9.099 7.431-21.951.449-31.255l-45.216-60.251c-7.275-9.692-20.724-12.517-31.281-6.574-13.822 7.305-15.908 26.943-5.323 39.127-.134 0-4.198 0-5.367 0h-102.851c-12.158 0-23.502 4.818-31.943 13.567-8.44 8.75-12.849 20.261-12.412 32.411l1.992 55.511h-19.117v-157.952c-.001-4.143-3.358-7.5-7.501-7.5zm80.025 165.452-3.256-86.489h37.137v18.407c0 4.143 3.357 7.5 7.5 7.5s7.5-3.357 7.5-7.5v-18.407h35.138l-3.256 86.489zm-38.398 0-2.011-56.049c-.289-8.045 2.63-15.666 8.218-21.458 3.88-4.022 8.688-6.789 13.957-8.105l3.223 85.612zm145.535-86.489 12.115 16.909c1.465 2.044 3.767 3.133 6.103 3.133 1.513 0 3.039-.456 4.362-1.404 3.367-2.412 4.141-7.098 1.729-10.465l-24.809-36.139c-2.074-3.362-2.351-9.469 3.217-13.089 4.023-2.268 9.152-1.189 11.927 2.506l45.215 60.251c2.884 3.842 2.807 9.149-.186 12.907-1.854 2.329-4.623 3.771-7.596 3.958l-61.778 3.861 1.596-42.429h8.105zm-231.721 101.489h373.82c3.265 0 5.92 2.651 5.92 5.91v28.064c-9.316 1.618-17.534 7.356-22.193 15.801l-16.19 29.342c-4.568-8.609-12.746-15.022-22.506-17.197-1.55-15.933-15.021-28.427-31.354-28.427-11.471 0-22.039 6.238-27.581 16.282l-16.19 29.341c-4.568-8.609-12.745-15.022-22.506-17.197-1.55-15.933-15.021-28.427-31.354-28.427-11.471 0-22.039 6.238-27.581 16.282l-12.266 22.229v-13.756c0-12.565-5.245-24.715-14.392-33.334l-8.376-7.892c-2.889-2.721-7.398-2.721-10.287 0l-8.376 7.892c-2.636 2.484-4.936 5.268-6.892 8.264-1.956-2.996-4.256-5.78-6.892-8.264l-8.376-7.892c-2.889-2.721-7.398-2.721-10.287 0l-8.376 7.892c-2.636 2.484-4.936 5.268-6.892 8.264-1.956-2.996-4.256-5.78-6.892-8.264l-8.376-7.892c-2.891-2.721-7.398-2.722-10.287.001l-8.375 7.891c-2.636 2.484-4.936 5.268-6.892 8.264-1.956-2.996-4.256-5.78-6.891-8.264l-8.376-7.892c-2.889-2.721-7.398-2.721-10.287 0l-.42.396v-11.507c.003-3.259 2.658-5.91 5.923-5.91zm-54.09 58.249c0-8.45 3.527-16.621 9.679-22.416l3.232-3.046 3.232 3.046c6.151 5.795 9.679 13.966 9.679 22.416v11.286h-25.822zm179.538 172.701h-171.796c-4.27 0-7.742-3.474-7.742-7.743v-49.385h189.11v47.556c0 5.278-4.294 9.572-9.572 9.572zm294.72 0h-260.576c-5.277 0-9.571-4.294-9.571-9.572v-10.817h194.428c4.143 0 7.5-3.357 7.5-7.5s-3.357-7.5-7.5-7.5h-194.429v-18.979h277.89v18.979h-48.09c-4.143 0-7.5 3.357-7.5 7.5s3.357 7.5 7.5 7.5h48.09v12.646c0 4.27-3.474 7.743-7.742 7.743z"/></g></svg>