<svg id="Capa_1" enable-background="new 0 0 512 512" viewBox="0 0 512 512" xmlns="http://www.w3.org/2000/svg"><g><path d="m52.5 97.5h407v240h-407z" fill="#fac05c"/><path d="m37.5 52.5h30v452h-30z" fill="#f9a262"/><path d="m444.5 52.5h30v452h-30z" fill="#f88567"/><path d="m444.5 7.5h-30l60 60h30c0-33.137-26.863-60-60-60z" fill="#f2416c"/><path d="m414.5 7.5h-347c-33.137 0-60 26.863-60 60h467c0-33.137-26.863-60-60-60z" fill="#f7676d"/><path d="m384.5 127.5-30 90 30 90h30v-180z" fill="#f7676d"/><path d="m384.5 157.5v-30h-287v180h287v-30l-15-15 15-15v-30l-30-30z" fill="#f88567"/><path d="m241 157.5h-30l-30 60 60-30z" fill="#5dd4a1"/><path d="m127.5 157.5v30l83.5 30v-60z" fill="#60f07b"/><path d="m211 187.5-30 45 30 45h30v-90z" fill="#f2f2f2"/><path d="m127.5 187.5h83.5v90h-83.5z" fill="#fff"/><path d="m354.5 247.5-15 15 15 15h30v-30z" fill="#f2f2f2"/><path d="m271 247.5h83.5v30h-83.5z" fill="#fff"/><path d="m354.5 157.5-30 30 30 30h30v-60z" fill="#f2f2f2"/><path d="m271 157.5h83.5v60h-83.5z" fill="#fff"/><path d="m444.5 0h-377c-37.22 0-67.5 30.28-67.5 67.5 0 4.142 3.358 7.5 7.5 7.5h22.5v429.5c0 4.142 3.358 7.5 7.5 7.5h30c4.142 0 7.5-3.358 7.5-7.5v-68.5c0-4.142-3.358-7.5-7.5-7.5s-7.5 3.358-7.5 7.5v61h-15v-422h15v331c0 4.142 3.358 7.5 7.5 7.5s7.5-3.358 7.5-7.5v-61h362v159.5c0 4.142 3.358 7.5 7.5 7.5h30c4.142 0 7.5-3.358 7.5-7.5v-68.5c0-4.142-3.358-7.5-7.5-7.5s-7.5 3.358-7.5 7.5v61h-15v-422h15v331c0 4.142 3.358 7.5 7.5 7.5s7.5-3.358 7.5-7.5v-331h22.5c4.142 0 7.5-3.358 7.5-7.5 0-37.22-30.28-67.5-67.5-67.5zm-369.5 330v-225h362v225zm362-240h-362v-15h362zm-421.466-30c3.65-25.409 25.563-45 51.966-45h377c26.402 0 48.315 19.591 51.966 45z"/><path d="m414.5 120h-317c-4.142 0-7.5 3.358-7.5 7.5v180c0 4.142 3.358 7.5 7.5 7.5h317c4.142 0 7.5-3.358 7.5-7.5v-180c0-4.142-3.358-7.5-7.5-7.5zm-7.5 180h-302v-165h302z"/><path d="m127.5 285h113.5c4.142 0 7.5-3.358 7.5-7.5v-120c0-4.142-3.358-7.5-7.5-7.5h-113.5c-4.142 0-7.5 3.358-7.5 7.5v120c0 4.142 3.358 7.5 7.5 7.5zm7.5-15v-75h98.5v75zm98.5-105v15h-98.5v-15z"/><path d="m271 285h113.5c4.142 0 7.5-3.358 7.5-7.5v-30c0-4.142-3.358-7.5-7.5-7.5h-113.5c-4.142 0-7.5 3.358-7.5 7.5v30c0 4.142 3.358 7.5 7.5 7.5zm7.5-30h98.5v15h-98.5z"/><path d="m271 225h113.5c4.142 0 7.5-3.358 7.5-7.5v-60c0-4.142-3.358-7.5-7.5-7.5h-113.5c-4.142 0-7.5 3.358-7.5 7.5v60c0 4.142 3.358 7.5 7.5 7.5zm7.5-60h98.5v45h-98.5z"/></g><g/><g/><g/><g/><g/><g/><g/><g/><g/><g/><g/><g/><g/><g/><g/></svg>