<svg id="Capa_1" enable-background="new 0 0 512 512" height="512" viewBox="0 0 512 512" width="512" xmlns="http://www.w3.org/2000/svg"><g><g><g><path d="m358.191 281.389h137.065v95.718h-137.065z" fill="#ffe5c2"/></g><g><path d="m358.191 281.389h24v95.718h-24z" fill="#fed2a4"/></g><g><path d="m364.356 80.392h63.867v77.454h-63.867z" fill="#ffe5c2"/></g><g><path d="m364.356 80.392h24v77.454h-24z" fill="#fed2a4"/></g><g><path d="m433.434 80.392h-74.291c-2.772 0-5.019-2.247-5.019-5.019v-24.5c0-2.772 2.247-5.019 5.019-5.019h74.291c2.772 0 5.019 2.247 5.019 5.019v24.5c0 2.772-2.247 5.019-5.019 5.019z" fill="#d6694b"/></g><g><path d="m386.125 75.373v-24.5c0-2.772 2.247-5.019 5.019-5.019h-32c-2.772 0-5.019 2.247-5.019 5.019v24.5c0 2.772 2.247 5.019 5.019 5.019h32c-2.772 0-5.019-2.247-5.019-5.019z" fill="#c4573a"/></g><g><path d="m358.191 377.106h137.065v89.04h-137.065z" fill="#9c9c9c"/></g><g><path d="m358.191 377.106h24v89.04h-24z" fill="#838383"/></g><g><path d="m358.191 349.281h137.065v27.825h-137.065z" fill="#d6694b"/></g><g><path d="m358.191 349.281h24v27.825h-24z" fill="#c4573a"/></g><g><path d="m317.847 157.846 40.344 29.312v94.231h141.287c3.41 0 5.827-3.327 4.773-6.57l-36.889-113.505c-.672-2.068-2.599-3.468-4.773-3.468z" fill="#d6694b"/></g><g><path d="m349.847 157.846h-32l40.344 29.312v94.231h32v-86.588c0-4.802-2.299-9.313-6.183-12.135z" fill="#c4573a"/></g><g><path d="m192.522 66.792-165.669 120.366v268.95c0 5.544 4.494 10.038 10.038 10.038h321.301v-278.988z" fill="#fff3de"/></g><g><path d="m66.853 464.108v-268.95l151.174-109.835-25.506-18.531-165.668 120.366v268.95c0 5.544 4.494 10.038 10.038 10.038h30.17c-.136-.658-.208-1.34-.208-2.038z" fill="#ffe5c2"/></g><g fill="#cecece"><path d="m26.853 401.051v55.057c0 5.544 4.494 10.038 10.038 10.038h83.407v-65.095z"/><path d="m264.746 401.051h93.445v65.095h-93.445z"/></g><g><path d="m66.853 401.051h-40v55.057c0 5.544 4.494 10.038 10.038 10.038h30.17c-.136-.658-.208-1.34-.208-2.038z" fill="#bfbfbf"/></g><g><path d="m120.298 466.146h144.449v-149.749c0-1.657-1.343-3-3-3h-138.449c-1.657 0-3 1.343-3 3z" fill="#d6694b"/></g><g><path d="m163.298 313.397h-40c-1.657 0-3 1.343-3 3v149.749h40v-149.749c0-1.657 1.343-3 3-3z" fill="#c4573a"/></g><g><path d="m145.392 466.146h94.259v-124.654c0-1.657-1.343-3-3-3h-88.259c-1.657 0-3 1.343-3 3z" fill="#e9b665"/></g><g><path d="m180.392 338.492h-32c-1.657 0-3 1.343-3 3v124.654h32v-124.654c0-1.657 1.343-3 3-3z" fill="#d8aa5e"/></g></g><g><path d="m137.362 187.158h110.32v93.658h-110.32z" fill="#d6694b"/></g><g><path d="m137.362 187.158h32v93.658h-32z" fill="#c4573a"/></g><g><path d="m162.362 252.815v-37.658c0-1.657 1.343-3 3-3h54.32c1.657 0 3 1.343 3 3v37.658c0 1.657-1.343 3-3 3h-54.32c-1.657 0-3-1.343-3-3z" fill="#ffe177"/></g><g><path d="m186.362 252.815v-37.658c0-1.657 1.343-3 3-3h-24c-1.657 0-3 1.343-3 3v37.658c0 1.657 1.343 3 3 3h24c-1.657 0-3-1.343-3-3z" fill="#ffd15b"/></g><g><path d="m88.1 374.945h-29c-1.657 0-3-1.343-3-3v-55.549c0-1.657 1.343-3 3-3h29c1.657 0 3 1.343 3 3v55.549c0 1.657-1.343 3-3 3z" fill="#ffe177"/></g><g><path d="m72.1 371.945v-55.549c0-1.657 1.343-3 3-3h-16c-1.657 0-3 1.343-3 3v55.549c0 1.657 1.343 3 3 3h16c-1.657 0-3-1.343-3-3z" fill="#ffd15b"/></g><g><path d="m326.1 374.945h-29c-1.657 0-3-1.343-3-3v-55.549c0-1.657 1.343-3 3-3h29c1.657 0 3 1.343 3 3v55.549c0 1.657-1.343 3-3 3z" fill="#ffe177"/></g><g><path d="m310.1 371.945v-55.549c0-1.657 1.343-3 3-3h-16c-1.657 0-3 1.343-3 3v55.549c0 1.657 1.343 3 3 3h16c-1.657 0-3-1.343-3-3z" fill="#ffd15b"/></g><g><path d="m391.793 136.018h13.05c4.143 0 7.5-3.358 7.5-7.5s-3.357-7.5-7.5-7.5h-13.05c-4.143 0-7.5 3.358-7.5 7.5s3.357 7.5 7.5 7.5z"/><path d="m454.976 196.794c0-4.142-3.357-7.5-7.5-7.5h-12c-4.143 0-7.5 3.358-7.5 7.5s3.357 7.5 7.5 7.5h12c4.143 0 7.5-3.357 7.5-7.5z"/><path d="m391.476 220.294c-4.143 0-7.5 3.358-7.5 7.5s3.357 7.5 7.5 7.5h20c4.143 0 7.5-3.358 7.5-7.5s-3.357-7.5-7.5-7.5z"/><path d="m444.976 257.294h13c4.143 0 7.5-3.358 7.5-7.5s-3.357-7.5-7.5-7.5h-13c-4.143 0-7.5 3.358-7.5 7.5s3.358 7.5 7.5 7.5z"/><path d="m290.476 430.961h10c4.143 0 7.5-3.358 7.5-7.5s-3.357-7.5-7.5-7.5h-10c-4.143 0-7.5 3.358-7.5 7.5s3.358 7.5 7.5 7.5z"/><path d="m322.476 450.961h10c4.143 0 7.5-3.358 7.5-7.5s-3.357-7.5-7.5-7.5h-10c-4.143 0-7.5 3.358-7.5 7.5s3.358 7.5 7.5 7.5z"/><path d="m84.476 430.961h10c4.142 0 7.5-3.358 7.5-7.5s-3.358-7.5-7.5-7.5h-10c-4.142 0-7.5 3.358-7.5 7.5s3.358 7.5 7.5 7.5z"/><path d="m52.476 450.961h10c4.142 0 7.5-3.358 7.5-7.5s-3.358-7.5-7.5-7.5h-10c-4.142 0-7.5 3.358-7.5 7.5s3.358 7.5 7.5 7.5z"/><path d="m511.39 272.5-13.266-40.82c-1.28-3.94-5.51-6.092-9.451-4.815-3.939 1.28-6.095 5.511-4.814 9.451l12.21 37.573h-130.378v-72.012l7.444 5.409c1.331.967 2.873 1.433 4.402 1.433 2.318 0 4.606-1.072 6.073-3.092 2.435-3.351 1.692-8.041-1.659-10.476l-41.022-29.804h119.857l12.222 37.606c1.03 3.169 3.97 5.184 7.131 5.184.769 0 1.55-.119 2.32-.369 3.939-1.28 6.095-5.512 4.814-9.451l-12.779-39.319c-1.681-5.174-6.466-8.65-11.906-8.65h-26.866v-62.675c5.813-1.079 10.231-6.179 10.231-12.3v-24.5c0-6.903-5.616-12.519-12.52-12.519h-74.29c-6.903 0-12.52 5.616-12.52 12.519v24.5c0 6.121 4.418 11.22 10.231 12.3v62.673h-36.572l-123.352-89.622c-2.628-1.909-6.188-1.909-8.816 0l-185.022 134.426c-3.351 2.435-4.094 7.125-1.66 10.476 2.435 3.352 7.125 4.094 10.476 1.66l7.444-5.408v254.231c0 9.67 7.868 17.538 17.538 17.538h458.366c4.143 0 7.5-3.358 7.5-7.5v-177.713c2.724-.742 5.166-2.38 6.857-4.708 2.348-3.231 3.012-7.429 1.777-11.226zm-90.668-175.573h-5.549c-4.143 0-7.5 3.358-7.5 7.5s3.357 7.5 7.5 7.5h5.549v38.419h-48.866v-38.419h5.549c4.143 0 7.5-3.358 7.5-7.5s-3.357-7.5-7.5-7.5h-5.549v-9.035h48.866zm-59.097-43.573h69.329v19.538h-69.329zm50.721 235.535h28.756v52.893h-28.756zm-46.655 0h31.655v52.893h-31.655zm-59.289-130.088 28.707 20.857h-28.707zm0 54.226 38.165 60.288h-38.165zm-51.22-91.44 36.22 26.315v31.755h-36.22zm36.22 73.071v78.658h-36.22v-78.658zm-91.38-113.146 37.341 27.13-37.341 54.354zm40.16 49.518v48.628h-33.408zm-55.16-49.518v81.484l-37.342-54.354zm-40.16 49.517 33.408 48.628h-33.408zm0 63.629h95.32v78.658h-95.32zm-51.22-46.755 36.22-26.315v58.07h-36.22zm-7.5 84.597c4.142 0 7.5-3.358 7.5-7.5v-30.342h36.22v78.658h-36.22v-13.316c0-4.142-3.358-7.5-7.5-7.5s-7.5 3.358-7.5 7.5v13.315h-38.165l38.165-60.289v11.974c0 4.142 3.358 7.5 7.5 7.5zm-7.5-73.699v20.857h-28.707zm-44.289 35.857h38.165l-38.165 60.288zm78.444 263.987h-75.906c-1.399 0-2.538-1.138-2.538-2.538v-47.557h78.445v50.095zm119.354 0h-79.259v-23.497h79.259zm0-85.065h-11.151c-4.142 0-7.5 3.358-7.5 7.5s3.358 7.5 7.5 7.5h11.151v31.569h-79.259v-31.569h33.108c4.142 0 7.5-3.358 7.5-7.5s-3.358-7.5-7.5-7.5h-33.108v-27.588h79.259zm25.096 85.065h-10.095v-117.153c0-5.79-4.71-10.5-10.5-10.5h-88.259c-5.79 0-10.5 4.71-10.5 10.5v117.154h-10.095v-137.75h129.449zm93.444 0h-78.444v-50.095h78.444zm0-65.094h-78.444v-77.154c0-5.79-4.71-10.5-10.5-10.5h-138.45c-5.79 0-10.5 4.71-10.5 10.5v77.154h-78.444v-105.236h316.338zm0-138.605-38.165-60.288h38.165zm15 135.976 47.265 30.704-47.265 30.704zm17.813-6.316h86.439l-43.219 28.076zm0 74.039 43.219-28.076 43.219 28.076zm104.252-6.316-47.265-30.704 47.265-30.704zm0-82.723h-122.065v-12.825h122.065zm0-27.825h-31.654v-52.893h31.654z"/><path d="m219.682 204.658h-54.32c-5.79 0-10.5 4.71-10.5 10.5v37.658c0 5.79 4.71 10.5 10.5 10.5h54.32c5.79 0 10.5-4.71 10.5-10.5v-37.658c0-5.79-4.71-10.5-10.5-10.5zm-4.5 43.657h-45.32v-28.658h45.32z"/><path d="m59.1 382.445h29c5.79 0 10.5-4.71 10.5-10.5v-55.549c0-5.79-4.71-10.5-10.5-10.5h-29c-5.79 0-10.5 4.71-10.5 10.5v55.549c0 5.79 4.711 10.5 10.5 10.5zm4.5-61.549h20v46.549h-20z"/><path d="m297.1 382.445h29c5.79 0 10.5-4.71 10.5-10.5v-55.549c0-5.79-4.71-10.5-10.5-10.5h-29c-5.79 0-10.5 4.71-10.5 10.5v55.549c0 5.79 4.71 10.5 10.5 10.5zm4.5-61.549h20v46.549h-20z"/></g></g></svg>