<svg id="icon" height="512" viewBox="0 0 340 340" width="512" xmlns="http://www.w3.org/2000/svg"><path d="m250.071 174.476h-32.107a6.43 6.43 0 0 0 -6.43 6.43v54.416l45.882 1.363z" fill="#ffc362"/><path d="m211.535 189.562h45.882v7h-45.882z" fill="#fa883e"/><path d="m211.535 212.994h45.882v7h-45.882z" fill="#fa883e"/><path d="m268.459 180.906a6.43 6.43 0 0 0 -6.43-6.43h-11.958v59.431h-38.537v62.759h56.925z" fill="#fa883e"/><path d="m307.829 221.529h-32.94a6.43 6.43 0 0 0 -6.43 6.43v29.4l45.152 6.28z" fill="#ffc362"/><path d="m268.458 236.685h40.936v7h-40.936z" fill="#fa883e"/><path d="m318.954 221.529h-11.125v35.827h-39.37v39.31h56.924v-68.707a6.429 6.429 0 0 0 -6.429-6.43z" fill="#fa883e"/><path d="m76.73 151.339c-4.4 7.536-10.9 18.393-17.827 28.9-19.863 30.133-69.05 86.266-31.562 129.961a55.349 55.349 0 0 0 42.1 18.938h70.475a55.173 55.173 0 0 0 17.811-2.894c17.164-5.85 47.891-22.01 37.22-60.983-14.557-53.165-48.58-111.393-48.58-111.393z" fill="#ffe9d3"/><path d="m146.337 153.815-7.407-16.084-56.572 3.774s-2.157 3.883-5.628 9.834l59.146 7.661z" fill="#ce917e"/><path d="m140.735 10.529a81.018 81.018 0 0 1 4.514 25.271h-32.828s9.145-18.769 28.314-25.271z" fill="#ce917e"/><path d="m37.66 47.8s-14.96-11.542 13.753-24a59.819 59.819 0 0 1 24.853-4.855 72.183 72.183 0 0 0 23.9-3.522 106.064 106.064 0 0 1 40.572-4.891s.187 5.42-17.939 19.248c0 0 2.03 3.856 27.856 2.055 33.635-2.346 26.773 13.244 26.773 13.244l-20.996 27.49-83.6 1.121z" fill="#874f4f"/><path d="m72.828 60.958s-9.3-9.3 16.563-20.42c0 0-29.5-2.042-51.731 7.261 0 0 32.446 33.58 43.563 64.437h22.689s-4.912-35.027-31.084-51.278z" fill="#ce917e"/><path d="m147.022 63.227s3.63-7.26-1.362-12.479c0 0 22.916 2.269 31.765-5.672 0 0-19.059 55.588-39.025 67.16h-11.345z" fill="#ce917e"/><path d="m72.828 60.958a60.641 60.641 0 0 0 23.6-2.8l15.2 9.383s18.378 2.269 35.395-4.311l-15.2 49.009h-32.675s-5.9-32.902-26.32-51.281z" fill="#ffe9d3"/><ellipse cx="298.512" cy="298.841" fill="#ffc362" rx="25.28" ry="32.936" transform="matrix(.838 -.546 .546 .838 -114.786 211.661)"/><path d="m283.152 269.82a19.781 19.781 0 0 0 -2.635 1.436c-11.694 7.629-13.116 26.164-3.177 41.4a38.619 38.619 0 0 0 18.254 15.206c7.493-12.744 6.255-31.859-4.432-48.239a58.829 58.829 0 0 0 -8.01-9.803z" fill="#fa883e"/><path d="m107.341 112.236h10.759a220.7 220.7 0 0 0 -6.471-44.7l-1.362-16.79a44.814 44.814 0 0 1 -13.84 7.4c7.51 17.015 10.09 42.383 10.914 54.09z" fill="#ce917e"/><path d="m145.262 131.405s11.3 25.6 3.44 49.193-25.442 35.383-17.8 65.687c0 0-29.1-20.148-1.883-73.222.001 0 13.786-25.656 16.243-41.658z" fill="#874f4f"/><rect fill="#d88783" height="16.336" rx="8.168" width="76.462" x="74.19" y="108.833"/><path d="m74.19 133.337a8.168 8.168 0 0 0 8.168 8.168h58.842l-7.493-16.336h-51.349a8.168 8.168 0 0 0 -8.168 8.168z" fill="#874f4f"/><path d="m133.711 125.169s2.46 16.41-10.375 36.715c-15.225 24.087-39.236 86.628 22.114 107.583a6.729 6.729 0 0 0 7.926-2.889 6.728 6.728 0 0 0 -2.812-9.52c-14.717-7.24-45.739-29.908-17.141-84.511 0 0 12.457-19.979 13.638-40.7a6.362 6.362 0 0 0 -6.38-6.673z" fill="#d88783"/><path d="m123.018 260.045a55.429 55.429 0 0 1 10.559-17.572 7.394 7.394 0 0 1 10.467-.232 7.432 7.432 0 0 1 1.269 9.2 136.169 136.169 0 0 0 -7.629 14.535 7.481 7.481 0 0 1 -9.323 4.092q-.593-.2-1.189-.435a7.413 7.413 0 0 1 -4.154-9.588z" fill="#874f4f"/><ellipse cx="261.702" cy="298.841" fill="#ffc362" rx="25.28" ry="32.936" transform="matrix(.838 -.546 .546 .838 -120.766 191.548)"/><path d="m221.077 243.016h-33.661a6.429 6.429 0 0 0 -6.429 6.429v68.14a9.71 9.71 0 0 0 9.71 9.711h30.38c3.145-26.457 2.815-54.722 0-84.28z" fill="#ffc362"/><g fill="#fa883e"><path d="m180.987 256.322h50.539v7h-50.539z"/><path d="m180.987 276.593h50.539v7h-50.539z"/><path d="m180.987 296.865h50.539v7h-50.539z"/><path d="m231.481 243.015h-10.4v84.285h7.119a9.71 9.71 0 0 0 9.71-9.711v-68.14a6.43 6.43 0 0 0 -6.429-6.434z"/></g><path d="m47.532 190.541c-11.3 16.045-25.366 36.014-32.62 57.17-16.237 41.889 10.921 84.789 54.526 84.929h70.475c14.542-.3 24.438-4.013 37.89-12.212a13.229 13.229 0 0 0 12.897 10.372h37.5a13.222 13.222 0 0 0 13.064-11.349c10.56 12.949 31.376 19.694 44.145 6.807 24.376 17.775 50.444-.628 43.2-29.531a3.489 3.489 0 0 0 .276-1.365v-67.4a9.941 9.941 0 0 0 -9.929-9.931h-44.067a9.894 9.894 0 0 0 -2.931.443v-37.569a9.94 9.94 0 0 0 -9.929-9.929h-44.065a9.94 9.94 0 0 0 -9.929 9.929v58.611h-17.671a579.02 579.02 0 0 0 -35.37-77.244 88.258 88.258 0 0 0 -4.68-27.319c.368-2.851.5-5.937-1.109-8.431a11.694 11.694 0 0 0 0-19.04c16.8-18.964 30.653-58.732 31.5-61.2 4.527-16.017-13.694-19.6-32.45-17.8-1.693-12.959-3.589-18.208-4.958-20.315a3.576 3.576 0 0 0 -2.322-1.127 109.875 109.875 0 0 0 -41.908 5.06 68.376 68.376 0 0 1 -22.739 3.346 62.555 62.555 0 0 0 -26.309 5.144c-16.995 6.994-26.165 19-14.746 29.781 2.048 2.149 28.314 30.019 40.283 57.172-5.7 3.842-6.522 12.838-1.516 17.63-5.549 5.393-3.858 15.248 3.04 18.56-5.229 9.331-19.393 32.975-29.548 46.808zm136.955 58.9a2.932 2.932 0 0 1 2.929-2.929h44.066a2.933 2.933 0 0 1 2.93 2.929v11.939h-49.925zm49.925 32.21h-49.925v-13.267h49.925zm-49.925 7h49.925v13.273h-49.925zm43.713 35.149h-37.5a6.218 6.218 0 0 1 -6.211-6.211v-8.657h49.925v8.657a6.218 6.218 0 0 1 -6.214 6.211zm49.585-.3c-13.052 8.112-30.009-3.277-36.374-16.238v-29.076c21.865-25.294 62.303 25.581 36.375 45.307zm-62.75-122.5h49.923v17.03h-49.923zm56.923 48.787h49.925v32.254c-12.237-17.492-33.971-23.555-47.078-10.587q-1.4-1.017-2.847-1.891zm50.761 58.526c-1.261 17.824-18.892 23.064-33.147 12.313 5.139-9.694 4.151-21.806-.686-32 7.73-10.271 27.03 13.636 17.572 22.181-3.819 2.581-.055 8.313 3.824 5.863 17.415-13.052-9.042-48.59-25.016-34.35a45.483 45.483 0 0 0 -5.156-6.294c17.646-15.312 44.89 10.456 42.609 32.285zm-47.83-83.283h44.065a2.933 2.933 0 0 1 2.929 2.931v14.826h-49.925v-14.828a2.935 2.935 0 0 1 2.931-2.931zm-56.925-47.052h44.065a2.932 2.932 0 0 1 2.929 2.929v13.093h-49.923v-13.095a2.932 2.932 0 0 1 2.929-2.929zm-2.929 47.052h49.923v17.757h-15.112a3.5 3.5 0 0 0 0 7h15.112v16.478c-8.2-2.828-16.789-2.333-23.546 2.338v-19.158a9.941 9.941 0 0 0 -9.93-9.929h-16.447zm-69.654-45.536c-4.992 15.158-15.684 26.165-19.513 41.7-2.329-13.241 1.2-28.931 10.6-46.913a112.373 112.373 0 0 0 10.52-23.589c1.34 8.377 1.706 18.86-1.607 28.8zm.049 78.785c2.5 1.513 6.943 2.68 4.951 6.49-1.943 3.108-5.647.586-8.171-.254 1.031-2.153 2.141-4.277 3.22-6.238zm-3.124-8.627a140.511 140.511 0 0 0 -7.831 14.929c-1.019 2.425-3.844 2.942-6.032 1.794a3.91 3.91 0 0 1 -2.159-5.069 51.922 51.922 0 0 1 9.85-16.442c3.166-3.295 8.541.859 6.172 4.786zm-59.948-111.647c-6.166-.195-6.171-9.14 0-9.336h48.042a47.654 47.654 0 0 1 -.979 9.336zm-4.668-21.005a4.674 4.674 0 0 1 4.668-4.669h60.126a4.669 4.669 0 0 1 0 9.337h-60.126a4.673 4.673 0 0 1 -4.668-4.668zm30.448-49.18c.277 1.956 4.143 8.963 4.264 24a3.5 3.5 0 0 0 7 0 75.258 75.258 0 0 0 -2.772-20.44 88.041 88.041 0 0 0 25.048-2.737l-11.378 36.689h-29.16c-2.4-9.054-8.272-26.93-19.977-40.77 6.909-.391 16.883-2.028 26.105-7.5zm29.262 60.849h3.278a2.876 2.876 0 0 1 2.886 2.974c-1.114 19.553-13 38.861-13.114 39.053-18.248 36.006-13.79 56.466-2.252 72.755a57.374 57.374 0 0 0 -5.523 8.777c-31.941-31.243 2.109-86.089 3.616-88.474 9.736-15.396 11.121-28.697 11.109-35.085zm4.247-23.386c-.016.015-.026.034-.041.049h-3.983l12.677-40.845a17.128 17.128 0 0 0 1.214-9.921c5.273.092 12.92-.221 19.5-2.263-5.354 13.773-16.937 40.897-29.364 52.98zm-2.017-86.027a84.445 84.445 0 0 1 1.616 9.521 83.357 83.357 0 0 1 -11.128-.359 77.721 77.721 0 0 0 9.515-9.162zm-102.322 20.31c1.284-9.029 26.342-18.28 38.9-17.125 22.471.564 32.825-9.624 58.854-8.658-2.135 2.718-6.3 7.042-14.387 13.211a3.5 3.5 0 0 0 -.973 4.413c.765 1.453 3.093 5.876 31.2 3.916 17.929-1.076 24.435 2.36 23.5 7.714-6.772 5.068-22.651 4.793-28.402 4.228a3.5 3.5 0 0 0 -2.872 5.9c2.28 2.384 1.738 5.59 1.2 7.311-11.745 4.167-24.062 4.1-29.461 3.807l-1.121-13.82a3.5 3.5 0 0 0 -5.674-2.45c-12.104 9.687-28.135 9.815-33.217 9.579-.715-3.207 2.075-7.692 15.918-13.838a3.513 3.513 0 0 0 -1.14-6.707c-1.2-.082-28.695-1.866-51.075 6.629a5.719 5.719 0 0 1 -1.25-4.11zm6.472 9.679c10.959-3.651 23.11-4.892 32.078-5.256-8.139 5.651-10.6 13.907-5.5 19.444 13.608 12.165 20.616 31.5 23.527 41.9-.315.007-11.3-.012-11.644.006-10.213-23.568-30.247-47.027-38.461-56.094zm40.625 95.76h5.238c-1.115 5.332-4.642 18.269-14.781 34.334a29.842 29.842 0 0 0 -3.861 7.9c-2.223 6.256 3.048 13.122 9.517 13 7.231-.2 13.317-7.931 13-18.032-.243-4.614-7.024-4.4-7 .223.143 4.507-1.216 7.818-4.153 10.124a2.972 2.972 0 0 1 -4.685-3.224 22.73 22.73 0 0 1 2.893-5.946c11.724-18.343 15.364-33.468 16.21-38.38h10.977a57.783 57.783 0 0 1 -3.309 12.685 3.5 3.5 0 1 0 6.492 2.619 65.389 65.389 0 0 0 3.89-15.3h12.727a68.515 68.515 0 0 1 -7.184 15.009c-14.875 22.586-31.454 72.7-.688 98.965-4.129 11.377 10.866 20.066 19.033 11.661 6.194 2.987 13.282 4.619 17.65-2.253a10.3 10.3 0 0 0 -4.263-14.47c-1.1-.541-2.179-1.128-3.242-1.738 4.51-9.758-6.612-19.547-15.735-13.831q-.5-.686-.963-1.384c-3.827-24.052 17.887-39.306 21.654-62.111 8.327 15.968 20.13 40.2 29.433 65.589a9.931 9.931 0 0 0 -5.769 9v62.616c-12.122 8.788-24.271 13.461-37.574 13.579h-70.475a51.718 51.718 0 0 1 -39.437-17.717c-34.361-41.68 8.834-91.2 31.828-125.763 10.178-15.448 19.561-31.819 22.577-37.155z" fill="#3c3c4f"/><path d="m263.131 280.6c-6.207-2.7-12.479-1.681-16.136 3.376a3.5 3.5 0 0 0 5.7 4.058c1.682-2.67 5.781-1.971 7.624-1.022 6.127 2.534 11.8 11.231 11.652 17.861.076 5.642-3.7 8.16-8.873 5.81a3.5 3.5 0 0 0 -2.8 6.416c9.2 4.438 18.952-1.516 18.672-12.215.194-9.361-7.195-20.69-15.839-24.284z" fill="#3c3c4f"/></svg>