<?xml version="1.0"?>
<svg xmlns="http://www.w3.org/2000/svg" viewBox="0 0 64 64"><g id="Fill_1" data-name="Fill 1"><path d="M32,42h0L15.7573,58.2427a6,6,0,0,1-8.4853,0L5.7573,56.7279a6,6,0,0,1,0-8.4853L22,32,5.7573,15.7574a6,6,0,0,1,0-8.4853L7.272,5.7573a6,6,0,0,1,8.4853,0L32,22h0L48.2427,5.7573a6,6,0,0,1,8.4853,0l1.5147,1.5148a6,6,0,0,1,0,8.4853L42,32,58.2427,48.2426a6,6,0,0,1,0,8.4853L56.728,58.2427a6,6,0,0,1-8.4853,0L32,42Z" style="fill:#e32728"/></g><g id="Effect_Line" data-name="Effect Line"><path d="M52.4849,56.9985a2.9922,2.9922,0,0,1-2.1211-.8759L36.293,42.05a1,1,0,1,1,1.414-1.4141l14.07,14.0718a1.0041,1.0041,0,0,0,1.4156,0,1,1,0,0,1,1.4131,1.4151A2.9925,2.9925,0,0,1,52.4849,56.9985Z" style="fill:#aa1d1e"/><path d="M24,20.6563a.9967.9967,0,0,1-.707-.293L12.2227,9.292a1.0094,1.0094,0,0,0-.9668-.2578,1,1,0,0,1-.5118-1.9336,3.0119,3.0119,0,0,1,2.8921.7768L24.707,18.9492A1,1,0,0,1,24,20.6563Z" style="fill:#ee7d7e"/><path d="M8.585,54.8994a.9957.9957,0,0,1-.7076-.2934,3.0061,3.0061,0,0,1,0-4.2422L21.95,36.293a1,1,0,1,1,1.4141,1.414L9.292,51.7773a1.0036,1.0036,0,0,0,.0005,1.4156,1,1,0,0,1-.7075,1.7065Z" style="fill:#aa1d1e"/><path d="M44.3438,25a1,1,0,0,1-.7071-1.707l11.0713-11.07a1.0071,1.0071,0,0,0,.2578-.9668,1,1,0,0,1,1.9336-.5118,3.0134,3.0134,0,0,1-.7768,2.8921L45.0508,24.707A.9969.9969,0,0,1,44.3438,25Z" style="fill:#ee7d7e"/><circle cx="8" cy="11" r="1" style="fill:#ee7d7e"/><circle cx="53" cy="8" r="1" style="fill:#ee7d7e"/></g><g id="Line"><path d="M52.4854,60.9966a6.978,6.978,0,0,1-4.95-2.0469L32,43.4141,16.4644,58.95a7.0076,7.0076,0,0,1-9.9,0L5.05,57.4351a7.0076,7.0076,0,0,1,0-9.8995L20.5859,32,5.05,16.4644a7.0076,7.0076,0,0,1,0-9.9L6.5649,5.05a7.0076,7.0076,0,0,1,9.9,0L32,20.5859,47.5356,5.05a7.0076,7.0076,0,0,1,9.8995,0L58.95,6.5649a7.0076,7.0076,0,0,1,0,9.9L43.4141,32,58.95,47.5356a7.0076,7.0076,0,0,1,0,9.8995L57.4351,58.95A6.9779,6.9779,0,0,1,52.4854,60.9966ZM32,41a.9967.9967,0,0,1,.707.293L48.95,57.5356a5,5,0,0,0,7.0713,0l1.5146-1.5146a5,5,0,0,0,0-7.0713L41.293,32.707a.9994.9994,0,0,1,0-1.414L57.5356,15.05a5,5,0,0,0,0-7.0713L56.021,6.4644a5,5,0,0,0-7.0713,0L32.707,22.707a.9994.9994,0,0,1-1.414,0L15.05,6.4644a5,5,0,0,0-7.0713,0L6.4644,7.979a5,5,0,0,0,0,7.0713L22.707,31.293a.9994.9994,0,0,1,0,1.414L6.4644,48.95a5,5,0,0,0,0,7.0713L7.979,57.5356a5,5,0,0,0,7.0713,0L31.293,41.293A.9967.9967,0,0,1,32,41Z"/></g></svg>
