<svg clip-rule="evenodd" fill-rule="evenodd" height="512" image-rendering="optimizeQuality" shape-rendering="geometricPrecision" text-rendering="geometricPrecision" viewBox="0 0 1.70666 1.70666" width="512" xmlns="http://www.w3.org/2000/svg"><g id="Layer_x0020_1"><path d="m.533417.312031h-.0932638c-.0110394 0-.02-.00896063-.02-.0199961v-.0838622c0-.0110394.00896063-.02.02-.02h.0932638c.0110394 0 .02.00896063.02.02v.0838622c0 .0110354-.00894488.0199961-.02.0199961zm-.0732638-.0399961h.0532638v-.0438622h-.0532638z"/><path d="m1.2665.323504h-.0932638c-.0110394 0-.02-.00896063-.02-.02v-.0838622c0-.0110394.00897244-.02.02-.02l.0932638.00000394c.0110394 0 .02.00896063.02.02v.0838622c0 .0110512-.00896063.0199961-.02.0199961zm-.073248-.04h.053248v-.0438622l-.053248.00000394v.0438583z"/><path d="m1.19782.549429h-.688972c-.00805906 0-.0153189-.0048189-.0184291-.012252l-.0686811-.163303c-.00259843-.00616929-.00193307-.0132323.00176378-.0188189.00370472-.00558268.00995669-.00892913.0166654-.00892913h.82635c.00669291 0 .0129606.00335039.0166496.00892913.00372047.00558661.00437402.0126496.00177953.0188189l-.0686811.163303c-.0031378.00743307-.0104055.012252-.0184449.012252zm-.675693-.04h.662402l.0518465-.123303h-.76611l.0518622.123303z"/><path d="m1.22224.792185c-.00006693 0-.00017717.00001575-.00027559 0h-.0965118c-.0110394 0-.02-.00896063-.02-.02v-.108665c0-.0110394.0089685-.0199961.02-.0199961h.0857008c.0102795 0 .018878.0077874.0199016.0180118l.0104882.105358c.00045669.00169685.00070866.00346063.00070866.00527559-.00001181.0110709-.00897244.0200157-.0200118.0200157zm-.0767913-.04h.0544134l-.0068189-.0686654h-.0475945z"/><path d="m1.24409 1.01196c-.00007087 0-.0001811 0-.00027953 0h-.136941c-.0110394 0-.02-.00897244-.02-.02v-.108665c0-.0110394.0089685-.02.02-.02h.126134c.0102756 0 .018874.00780709.0198976.0180276l.0104882.105374c.00045669.00167717.00070866.00344094.00070866.00527559-.00001181.0110157-.00895669.0199882-.0200079.0199882zm-.11722-.0400157h.0948425l-.0068189-.0686496h-.0880236z"/><path d="m1.26593 1.23172c-.00006693.00001575-.00017717.00001575-.00027559 0h-.109299c-.0110394 0-.02-.00897244-.02-.02v-.108665c0-.0110394.0089685-.02.02-.02h.0984961c.0102756 0 .018874.00780709.0198976.0180276l.0104882.10537c.00045669.0016811.00070866.00344488.00070866.00527559-.00001575.0110354-.00895276.0199921-.0200157.0199921zm-.0895669-.0400157h.0672126l-.0068189-.0686496h-.0603937z"/><path d="m1.28778 1.45148c-.00005906 0-.00016929.00001575-.00027953 0h-.186689c-.0110394 0-.02-.0089685-.02-.02v-.108677c0-.0110394.00897244-.02.02-.02h.175886c.0102795 0 .018878.00780315.0199016.0180236l.0104882.10539c.00045669.0016811.00070866.00344488.00070866.00527559 0 .0110354-.00896063.0199882-.0200157.0199882zm-.166953-.0399961h.144594l-.0068189-.0686654h-.137776v.0686654z"/><path d="m.581346.792185h-.0966378c-.00565354 0-.0110276-.00238976-.0148189-.00658268-.0037874-.00417717-.0056378-.00977953-.00507874-.0154016l.0108031-.108665c.00101181-.0102205.00962598-.0180118.0198976-.0180118h.0858346c.0110394 0 .02.00895669.02.0199961v.108665c0 .0110551-.00896063.02-.02.02zm-.0745512-.04h.0545551v-.0686654h-.0477362z"/><path d="m.599929 1.01196h-.137083c-.00565354 0-.0110276-.00240551-.0148189-.00658268-.0037874-.00419685-.0056378-.00977953-.00507874-.0154016l.0108031-.108665c.00101181-.0102205.00962598-.0180236.0198976-.0180236l.12628-.00000787c.0110394 0 .02.00897244.02.02v.108665c0 .0110433-.00894488.0200157-.02.0200157zm-.114984-.0400157h.0949961v-.0686496h-.0881772z"/><path d="m.550429 1.23172h-.109425c-.00565354 0-.0110276-.00240551-.0148189-.00658268-.0037874-.00419685-.0056378-.00977953-.00507874-.0154016l.0108031-.108665c.00101181-.0102205.00962598-.0180276.0198976-.0180276l.0986378-.00000394c.0110394 0 .02.00897244.02.02v.108665c-.00001575.0110591-.00896063.0200157-.0200157.0200157zm-.0873465-.0400157h.0673465v-.0686496h-.0605276z"/><path d="m.605984 1.45148h-.186827c-.00565354 0-.0110276-.00240157-.0148189-.00658268-.00379134-.00419291-.0056378-.00977953-.00508268-.0154016l.0108031-.108677c.00101575-.0102205.00962992-.0180276.0199016-.0180276h.176024c.0110394 0 .02.00897244.02.02v.108681c0 .0110551-.00895669.0200079-.02.0200079zm-.164748-.0399961h.144748v-.0686654h-.137913l-.00683465.0686654z"/><path d="m.99113.98585h-.275591c-.0110394 0-.02-.00897244-.02-.02v-.176469c0-.0870118.0707756-.157787.157787-.157787.0870118 0 .157803.0707756.157803.157787v.176469c0 .0110394-.00896063.02-.02.02zm-.255591-.0400157h.235575v-.156453c0-.0649449-.0528425-.117787-.117787-.117787-.0649449 0-.117787.0528425-.117787.117787v.156453z"/><path d="m.99113 1.46343h-.275591c-.0110394 0-.02-.00897244-.02-.02v-.176484c0-.0870118.0707756-.157787.157787-.157787.0870118 0 .157803.0707913.157803.157787v.176484c0 .0110236-.00896063.02-.02.02zm-.255591-.0400157h.235575v-.156484c0-.0649606-.0528425-.117776-.117787-.117776-.0649449 0-.117787.0528307-.117787.117776v.156484z"/><path d="m1.37 1.70664h-1.03335c-.0110354 0-.0199961-.00897244-.0199961-.02v-.121079c0-.0110394.00896063-.02.0199961-.02h1.03335c.0110354 0 .0199961.00897244.0199961.02v.121079c.00001181.0110433-.00896063.02-.0199961.02zm-1.01335-.04h.993331v-.0810669l-.993331.00000394v.081063z"/><path d="m.735539.945835h.235575v-.156453c0-.0649449-.0528425-.117787-.117787-.117787-.0649449 0-.117787.0528425-.117787.117787v.156453z" fill="#4b4b51"/><path d="m.971114 1.26693c0-.0649606-.0528425-.117776-.117787-.117776-.0649449 0-.117787.0528307-.117787.117776v.156484h.235575v-.156484z" fill="#4b4b51"/><path d="m.853327 1.10915c.0870118 0 .157803.0707913.157803.157787v.176484c0 .0110236-.00896063.02-.02.02h-.275591c-.0110394 0-.02-.00897244-.02-.02v-.176484c0-.0870118.0707756-.157787.157787-.157787zm.24748.193646h.153811l-.00706693-.0710787h-.0912008c-.0110394 0-.02-.00897244-.02-.02v-.108665c0-.0110394.0089685-.02.02-.02h.0764173l-.00706693-.0710945h-.118835c-.0110394 0-.02-.00897244-.02-.02v-.108665c0-.0110394.0089685-.02.02-.02h.104051l-.00707087-.0711102h-.0783976c-.0110394 0-.02-.00896063-.02-.02v-.108665c0-.0110394.0089685-.0199961.02-.0199961h.0636142l-.00935433-.0940945h-.652764l-.00935433.0940945h.0637559c.0110394 0 .02.00895669.02.0199961v.108665c0 .0110551-.00896063.02-.02.02h-.0785394l-.00706693.0711024.104189-.00000787c.0110394 0 .02.00897244.02.02v.108665c0 .0110433-.00894488.0200157-.02.0200157h-.118972l-.00706693.0710827.0765551-.00000394c.0110394 0 .02.00897244.02.02v.108665c-.00001575.0110591-.00896063.0200157-.0200157.0200157h-.0913228l-.00706693.0710669h.153945c.0110394 0 .02.00897244.02.02v.108681c0 .0110551-.00895669.0200079-.02.0200079h-.168728l-.00935433.0940984h.850858l-.00935827-.0940984h-.168594c-.0110394 0-.02-.0089685-.02-.02v-.108677c0-.0110394.00897244-.02.02-.02zm-.109677-.316949h-.275591c-.0110394 0-.02-.00897244-.02-.02v-.176469c0-.0870118.0707756-.157787.157787-.157787.0870118 0 .157803.0707756.157803.157787v.176469c0 .0110394-.00896063.02-.02.02z" fill="#eaa86a"/><path d="m1.30083 1.58559h-.895024c-.00023228 0-.00046063-.00000394-.00069291-.00001181h-.0484606v.081063h.993331v-.0810669h-.0480827c-.00026378.00001181-.00052756.00001575-.00079528.00001575-.00006693.00001575-.00016535.00001575-.00027559 0z" fill="#7a5c52"/><g fill="#f0c092"><path d="m1.12082 1.41148h.1446l-.00682-.06867h-.13778z"/><path d="m1.17636 1.1917h.06721l-.00682-.06864h-.06039z"/><path d="m1.12687.971945h.09484l-.00682-.06865h-.08802z"/><path d="m1.14544.752185h.05442l-.00682-.068665h-.0476z"/><path d="m.56135.752185v-.068665h-.047736l-.006819.068665z"/><path d="m.579941.903295h-.088177l-.006819.06865h.094996z"/><path d="m.585984 1.34281h-.137913l-.006835.06867h.144748z"/><path d="m.463083 1.1917h.067346v-.06864h-.060527z"/></g><path d="m.522126.509429h.662404l.05184-.123303h-.766106z" fill="#ec975f"/><path d="m.460154.346126h.786331v-.022622h-.073248c-.0110394 0-.02-.00896063-.02-.02v-.0838622c0-.0110394.00897244-.02.02-.02l.073248.00000394v-.155594c0-.0021811-.00184646-.00404331-.00402756-.00404331h-.123634v.142594c0 .0110394-.00897244.02-.02.02h-.150248c-.0110394 0-.02-.00896063-.02-.02v-.142579h-.15048v.142594c0 .0110394-.00896063.02-.02.02h-.150248c-.0110394 0-.02-.00896063-.02-.02v-.142594h-.123862c-.00206693 0-.0038189.00174803-.0038189.00382283v.144327h.073252c.0110394 0 .02.00896063.02.02v.0838622c0 .0110354-.00894488.0199961-.02.0199961h-.073248l-.00001575.0340945z" fill="#eaa86a"/><path d="m1.30111 1.58559c-.00006693.00001575-.00016535.00001575-.00027559 0h-.895024c-.00565354 0-.0110276-.00240551-.014815-.00658268-.00379134-.00419685-.0056378-.00977953-.00508268-.0154016l.103028-1.03615c.00101181-.0102205.00962598-.0180157.0198976-.0180157l.688972.00000394c.0102795 0 .018878.00779134.0199016.0180157l.102705 1.03285c.00045669.0016811.00070866.00344488.00070866.00527559 0 .0110236-.00896063.0199961-.0200157.0199961zm-.873205-.0400118h.850858l-.0990512-.996146h-.652764l-.0990433.996146z"/><path d="m1.19325.283504h.05325v-.043862l-.05325.000004z" fill="#f0c092"/><path d="m.513417.272035v-.043862h-.053263v.043862z" fill="#f0c092"/><path d="m1.2665.386126h-.826346c-.0110394 0-.02-.00896063-.02-.02v-.32228c0-.0241693.0196693-.0438228.0438228-.0438228h.143854c.0110394 0 .02.00896063.02.02v.142594h.110248v-.142594c0-.0110394.00896063-.02.02-.02h.190496c.0110394 0 .02.00896063.02.02v.142594h.110232v-.142594c0-.0110394.00897244-.02.02-.02h.14365c.0242795 0 .0440433.019748.0440433.0440276v.322075c0 .0110433-.00896063.02-.02.02zm-.806346-.04h.786331v-.302075c0-.0021811-.00184646-.00404331-.00402756-.00404331h-.123634v.142594c0 .0110394-.00897244.02-.02.02h-.150248c-.0110394 0-.02-.00896063-.02-.02v-.142579h-.15048v.142594c0 .0110394-.00896063.02-.02.02h-.150248c-.0110394 0-.02-.00896063-.02-.02v-.142594h-.123862c-.00206693 0-.0038189.00174803-.0038189.00382283l.00000394.30228h-.00001575z"/></g></svg>