<svg id="Capa_1" enable-background="new 0 0 512 512" height="512" viewBox="0 0 512 512" width="512" xmlns="http://www.w3.org/2000/svg"><g><g><path d="m362.482 280.771h140.134v70.917h-140.134z" fill="#ffe5c2"/><g><path d="m363.483 281.772h24.362v69.917h-24.362z" fill="#fed2a4"/></g><g fill="#c4573a"><path d="m447.758 280.771h15v70.917h-15z"/><path d="m403.342 280.771h15v70.917h-15z"/></g><path d="m369.74 76.742h64.831v80.623h-64.831z" fill="#ffe5c2"/><g><path d="m369.74 77.742h24.362v78.623h-24.362z" fill="#fed2a4"/></g><path d="m382.986 109.64c4.143 0 7.5-3.358 7.5-7.5s-3.357-7.5-7.5-7.5h-13.246v15z" fill="#fff3de"/><path d="m434.571 94.64h-13.246c-4.143 0-7.5 3.358-7.5 7.5s3.357 7.5 7.5 7.5h13.246z" fill="#fff3de"/><g><path d="m410.838 134.094h-13.247c-4.143 0-7.5-3.358-7.5-7.5s3.357-7.5 7.5-7.5h13.247c4.143 0 7.5 3.358 7.5 7.5s-3.358 7.5-7.5 7.5z" fill="#fff3de"/></g><g><path d="m439.861 77.742h-75.411c-2.814 0-5.095-2.281-5.095-5.095v-24.87c0-2.814 2.281-5.095 5.095-5.095h75.412c2.814 0 5.095 2.281 5.095 5.095v24.87c-.001 2.814-2.282 5.095-5.096 5.095z" fill="#d6694b"/></g><g><path d="m391.838 72.647v-24.87c0-2.814 2.281-5.095 5.095-5.095h-32.483c-2.814 0-5.095 2.281-5.095 5.095v24.87c0 2.814 2.281 5.095 5.095 5.095h32.483c-2.814 0-5.095-2.281-5.095-5.095z" fill="#c4573a"/></g><path d="m362.482 378.934v90.383h129.944c5.628 0 10.19-4.562 10.19-10.19v-80.193z" fill="#9c9c9c"/><g><path d="m363.483 378.934h24.362v90.383h-24.362z" fill="#838383"/></g><path d="m489.617 377.934-.769 1-55.799 36.248-55.799-36.248-.906-1h-12.047l-.815 1v8.944l55.798 36.248-55.798 36.248v8.944h13.767l55.799-36.248 55.799 36.248h3.578c5.222 0 9.52-3.93 10.114-8.993l-55.723-36.198 55.799-36.248v-8.944l-.952-1h-12.046z" fill="#a74b30"/><path d="m362.482 350.689h140.134v28.245h-140.134z" fill="#d6694b"/><g><path d="m363.483 350.689h24.362v28.245h-24.362z" fill="#c4573a"/></g><path d="m511.747 275.102-37.446-115.217c-.682-2.099-2.638-3.52-4.845-3.52h-135.868l53.359 38.767c2.899 2.106 3.545 6.18 1.438 9.079-1.219 1.678-3.187 2.68-5.265 2.68-1.377 0-2.696-.43-3.814-1.242l-16.824-12.223v87.345l1 1h143.419c3.462.001 5.916-3.377 4.846-6.669z" fill="#d6694b"/><path d="m389.689 181.559-34.676-25.194h-21.425l53.359 38.767c2.899 2.106 3.545 6.18 1.438 9.079-1.219 1.678-3.187 2.68-5.265 2.68-1.377 0-2.696-.43-3.814-1.242l-15.824-11.496v87.618h32.483v-87.895c.001-4.873-2.333-9.452-6.276-12.317z" fill="#c4573a"/><g><path d="m122.999 404.24v-79.977c0-4.971 4.029-9 9-9h126.629c4.971 0 9 4.029 9 9v79.977h95.855v-115.55l-.143-.66c-1.486-6.88-1.438-14.003.143-20.861v-73.016l-168.17-122.182-168.169 122.182v210.087z" fill="#fff3de"/></g><path d="m131.821 192.619h126.985v82.071h-126.985z" fill="#d6694b"/><g><path d="m159.814 255.817v-44.325c0-1.95 1.581-3.531 3.531-3.531h63.938c1.95 0 3.531 1.581 3.531 3.531v44.325c0 1.95-1.581 3.531-3.531 3.531h-63.938c-1.951 0-3.531-1.581-3.531-3.531z" fill="#ffe177"/></g><g><path d="m188.063 255.817v-44.325c0-1.95 1.581-3.531 3.531-3.531h-28.249c-1.95 0-3.531 1.581-3.531 3.531v44.325c0 1.95 1.581 3.531 3.531 3.531h28.249c-1.95 0-3.531-1.581-3.531-3.531z" fill="#ffd15b"/></g><g><path d="m67.748 404.24v-210l147.926-107.476-20.361-14.793-168.169 122.182v210.087z" fill="#ffe5c2"/></g><g fill="#cecece"><path d="m122.999 403.24h-95.855v55.888c0 5.627 4.562 10.189 10.189 10.189h85.666z"/><path d="m267.628 403.24h95.855v66.077h-95.855z"/></g><g><path d="m67.748 403.24h-40.604v55.887c0 5.628 4.562 10.19 10.19 10.19h30.625c-.138-.668-.211-1.36-.211-2.069z" fill="#bfbfbf"/></g><g><path d="m258.628 314.263h-126.629c-5.523 0-10 4.477-10 10v145.054h19.786l-.812-1v-125.535c0-5.272 4.273-9.545 9.545-9.545h89.591c5.272 0 9.545 4.274 9.545 9.545v125.535l-.812 1h19.786v-145.054c0-5.523-4.477-10-10-10z" fill="#d6694b"/></g><g><path d="m150.518 332.237h12.085v-14.929c0-1.682 1.363-3.045 3.045-3.045h-33.649c-5.523 0-10 4.477-10 10v145.054h17.974v-126.535c0-5.815 4.73-10.545 10.545-10.545z" fill="#c4573a"/></g><path d="m153.973 346.237h82.682v123.08h-82.682z" fill="#e9b665"/><path d="m153.973 346.237h25.983v123.08h-25.983z" fill="#d8aa5e"/><g fill="#ffd15b"><path d="m153.973 422.739h82.682v15h-82.682z"/><path d="m153.973 375.467h82.682v15h-82.682z"/></g><g><path d="m454.115 203.401h-12.182c-4.143 0-7.5-3.358-7.5-7.5s3.357-7.5 7.5-7.5h12.182c4.143 0 7.5 3.358 7.5 7.5s-3.357 7.5-7.5 7.5z" fill="#a74b30"/></g><g><path d="m417.571 234.869h-20.301c-4.143 0-7.5-3.358-7.5-7.5s3.357-7.5 7.5-7.5h20.302c4.143 0 7.5 3.358 7.5 7.5s-3.358 7.5-7.501 7.5z" fill="#a74b30"/></g><g><path d="m464.773 257.201h-13.196c-4.143 0-7.5-3.358-7.5-7.5s3.357-7.5 7.5-7.5h13.196c4.143 0 7.5 3.358 7.5 7.5s-3.357 7.5-7.5 7.5z" fill="#a74b30"/></g><g><g><path d="m304.896 433.488h-10.151c-4.143 0-7.5-3.358-7.5-7.5s3.357-7.5 7.5-7.5h10.151c4.143 0 7.5 3.358 7.5 7.5s-3.357 7.5-7.5 7.5z" fill="#acacac"/></g><g><path d="m337.379 453.79h-10.15c-4.143 0-7.5-3.358-7.5-7.5s3.357-7.5 7.5-7.5h10.15c4.143 0 7.5 3.358 7.5 7.5s-3.358 7.5-7.5 7.5z" fill="#acacac"/></g></g><g><g><path d="m95.788 433.488h-10.151c-4.142 0-7.5-3.358-7.5-7.5s3.358-7.5 7.5-7.5h10.151c4.142 0 7.5 3.358 7.5 7.5s-3.358 7.5-7.5 7.5z" fill="#acacac"/></g><g><path d="m63.305 453.79h-10.151c-4.142 0-7.5-3.358-7.5-7.5s3.358-7.5 7.5-7.5h10.151c4.142 0 7.5 3.358 7.5 7.5s-3.358 7.5-7.5 7.5z" fill="#acacac"/></g></g></g><path d="m363.483 267.169-46.56-73.55h45.824l-20.646-15h-31.303v-22.743l-15-10.898v33.641h-36.993v-60.518l-17.252-12.534-38.74 56.39v-84.537l-7.5-5.449-7.5 5.449v84.537l-38.741-56.39-17.252 12.534v60.518h-36.992v-33.641l-15 10.898v22.743h-31.303l-20.646 15h45.824l-46.56 73.549v7.522h12.991l39.693-62.702v62.702h15v-81.071h200.971v81.071h15v-62.702l39.692 62.702h12.992v-7.521zm-216.662-88.55v-49.84l34.241 49.84zm96.985 0h-34.24l34.24-49.84z" fill="#c4573a"/><g><path d="m27.144 273.69h336.339v15h-336.339z" fill="#a74b30"/></g><g><path d="m89.316 376.74h-29.438c-1.682 0-3.045-1.363-3.045-3.045v-56.387c0-1.682 1.363-3.045 3.045-3.045h29.438c1.682 0 3.045 1.363 3.045 3.045v56.387c0 1.682-1.363 3.045-3.045 3.045z" fill="#ffe177"/></g><g><path d="m73.074 373.695v-56.387c0-1.682 1.363-3.045 3.045-3.045h-16.241c-1.682 0-3.045 1.363-3.045 3.045v56.387c0 1.682 1.363 3.045 3.045 3.045h16.242c-1.682 0-3.046-1.363-3.046-3.045z" fill="#ffd15b"/></g><g><path d="m89.316 384.24h-29.438c-5.815 0-10.545-4.73-10.545-10.545v-56.387c0-5.815 4.73-10.545 10.545-10.545h29.438c5.815 0 10.545 4.73 10.545 10.545v56.387c0 5.815-4.73 10.545-10.545 10.545zm-24.983-15h20.528v-47.478h-20.528z" fill="#c4573a"/></g><g><path d="m330.907 376.74h-29.437c-1.682 0-3.045-1.363-3.045-3.045v-56.387c0-1.682 1.363-3.045 3.045-3.045h29.438c1.682 0 3.045 1.363 3.045 3.045v56.387c0 1.682-1.364 3.045-3.046 3.045z" fill="#ffe177"/></g><g><path d="m314.666 373.695v-56.387c0-1.682 1.363-3.045 3.045-3.045h-16.241c-1.682 0-3.045 1.363-3.045 3.045v56.387c0 1.682 1.363 3.045 3.045 3.045h16.241c-1.682 0-3.045-1.363-3.045-3.045z" fill="#ffd15b"/></g><g><path d="m330.907 384.24h-29.437c-5.814 0-10.545-4.73-10.545-10.545v-56.387c0-5.815 4.73-10.545 10.545-10.545h29.438c5.815 0 10.546 4.73 10.546 10.545v56.387c-.001 5.815-4.731 10.545-10.547 10.545zm-24.982-15h20.528v-47.478h-20.528z" fill="#c4573a"/></g><g><path d="m383.122 207.892c-1.529 0-3.071-.466-4.402-1.433l-183.406-133.252-183.405 133.252c-3.351 2.436-8.041 1.692-10.476-1.659s-1.691-8.041 1.66-10.476l187.813-136.455c2.628-1.91 6.188-1.91 8.816 0l187.813 136.454c3.352 2.435 4.094 7.125 1.659 10.476-1.466 2.02-3.754 3.093-6.072 3.093z" fill="#a74b30"/></g><path d="m240.109 332.237h-89.591c-5.815 0-10.545 4.73-10.545 10.545v126.535h15v-122.08h80.682v122.08h15v-126.535c-.001-5.815-4.731-10.545-10.546-10.545z" fill="#a74b30"/></g></svg>