<svg id="_x33_0" enable-background="new 0 0 62 62" height="512" viewBox="0 0 62 62" width="512" xmlns="http://www.w3.org/2000/svg"><g><g><g><path d="m49 37c-5.23 0-9.67 3.34-11.32 8h-8.68v-22h4 16 4 6v6l-2 2v9.05c-2.12-1.9-4.92-3.05-8-3.05z" fill="#ecc19c"/></g><g><path d="m29 23v22h-16-4v-22h4z" fill="#ecc19c"/></g><g><path d="m9 23v22h-4v-14l-2-2v-6z" fill="#d3a06c"/></g><g><path d="m61 15v4h-8v-10h2c3.31 0 6 2.69 6 6z" fill="#d3a06c"/></g><g><path d="m33 9h16v10h-16z" fill="#d3a06c"/></g><g><path d="m13 9h16v10h-16z" fill="#d3a06c"/></g><g><path d="m9 9v10h-8v-4c0-3.31 2.69-6 6-6z" fill="#d3a06c"/></g><g><path d="m61 19v4h-2-6v-4z" fill="#cf9e76"/></g><g><path d="m33 19h16v4h-16z" fill="#cf9e76"/></g><g><path d="m13 19h16v4h-16z" fill="#cf9e76"/></g><g><path d="m9 19v4h-6-2v-4z" fill="#cf9e76"/></g><g><path d="m13 27h12v12h-12z" fill="#e6e9ed"/></g><g><path d="m35 27h16v6h-16z" fill="#e6e9ed"/></g><g><path d="m13 19v4h-4v-4-10-3c0-.55.45-1 1-1h2c.55 0 1 .45 1 1v3z" fill="#b27946"/></g><g><path d="m55 4c0 .55-.45 1-1 1h-1-4-16-4-1c-.55 0-1-.45-1-1v-2c0-.55.45-1 1-1h26c.55 0 1 .45 1 1z" fill="#d3a06c"/></g><g><path d="m53 19v4h-4v-4-10-4h4v4z" fill="#b27946"/></g><g><path d="m33 19v4h-4v-4-10-4h4v4z" fill="#b27946"/></g><g><path d="m29 45h8.68c-.44 1.25-.68 2.6-.68 4h-17.07c-1.38-2.39-3.97-4-6.93-4z" fill="#b27946"/></g><g><path d="m9 45h4c-2.96 0-5.55 1.61-6.93 4h-5.07v-4h4z" fill="#b27946"/></g><g><path d="m57 40.05c2.46 2.2 4 5.39 4 8.95 0 6.63-5.37 12-12 12s-12-5.37-12-12c0-1.4.24-2.75.68-4 1.65-4.66 6.09-8 11.32-8 3.08 0 5.88 1.15 8 3.05zm-2.34 14.61c1.44-1.45 2.34-3.45 2.34-5.66s-.9-4.21-2.34-5.66c-1.45-1.44-3.45-2.34-5.66-2.34s-4.21.9-5.66 2.34c-1.44 1.45-2.34 3.45-2.34 5.66s.9 4.21 2.34 5.66c1.45 1.44 3.45 2.34 5.66 2.34s4.21-.9 5.66-2.34z" fill="#969faa"/></g><g><path d="m19.93 49c.68 1.17 1.07 2.54 1.07 4 0 4.42-3.58 8-8 8s-8-3.58-8-8c0-1.46.39-2.83 1.07-4 1.38-2.39 3.97-4 6.93-4s5.55 1.61 6.93 4z" fill="#969faa"/></g><g><path d="m50.41 47.59c.37.36.59.86.59 1.41s-.22 1.05-.59 1.41c-.36.37-.86.59-1.41.59s-1.05-.22-1.41-.59c-.37-.36-.59-.86-.59-1.41s.22-1.05.59-1.41c.36-.37.86-.59 1.41-.59s1.05.22 1.41.59z" fill="#ccd1d9"/></g><g><circle cx="13" cy="53" fill="#ccd1d9" r="4"/></g></g><g><path d="m49 40c-4.963 0-9 4.037-9 9s4.037 9 9 9 9-4.037 9-9-4.037-9-9-9zm0 10c-.552 0-1-.448-1-1s.448-1 1-1 1 .448 1 1-.448 1-1 1zm1.285-3.699c-.093-.044-.188-.082-.285-.116v-4.105c1.183.17 2.269.636 3.184 1.322zm-2.285-.117c-.098.035-.193.072-.285.116l-2.899-2.899c.915-.686 2.001-1.151 3.184-1.322zm-1.699 1.531c-.044.093-.082.188-.116.285h-4.105c.17-1.183.636-2.269 1.322-3.184zm-.117 2.285c.035.098.072.193.116.285l-2.899 2.899c-.685-.915-1.151-2.001-1.321-3.184zm1.531 1.699c.093.044.188.081.285.116v4.104c-1.183-.17-2.269-.636-3.184-1.322zm2.285.117c.098-.035.193-.072.285-.116l2.899 2.899c-.915.685-2.001 1.151-3.184 1.321zm1.699-1.531c.044-.093.082-.188.116-.285h4.104c-.17 1.183-.636 2.269-1.322 3.184zm.117-2.285c-.035-.098-.072-.193-.116-.285l2.899-2.899c.686.915 1.151 2.001 1.322 3.184z"/><path d="m13 48c-2.757 0-5 2.243-5 5s2.243 5 5 5 5-2.243 5-5-2.243-5-5-5zm2.816 4h-1.816v-1.816c.847.302 1.514.969 1.816 1.816zm-3.816-1.816v1.816h-1.816c.302-.847.969-1.514 1.816-1.816zm-1.816 3.816h1.816v1.816c-.847-.302-1.514-.969-1.816-1.816zm3.816 1.816v-1.816h1.816c-.302.847-.969 1.514-1.816 1.816z"/><path d="m60 29.414v-5.414h2v-9c0-3.859-3.141-7-7-7h-1v-2c1.103 0 2-.897 2-2v-2c0-1.103-.897-2-2-2h-26c-1.103 0-2 .897-2 2v2c0 1.103.897 2 2 2v2h-14v-2c0-1.103-.897-2-2-2h-2c-1.103 0-2 .897-2 2v2h-1c-3.859 0-7 3.141-7 7v9h2v5.414l2 2v12.586h-4v6h4.525c-.334.94-.525 1.947-.525 3 0 4.963 4.037 9 9 9s9-4.037 9-9c0-1.053-.191-2.06-.525-3h14.576c.514 6.701 6.119 12 12.949 12 7.168 0 13-5.832 13-13 0-3.675-1.54-6.992-4-9.359v-8.227zm-6-7.414v-2h6v2zm1-12c2.757 0 5 2.243 5 5v3h-6v-8zm-3 12h-2v-16h2zm-18-12h14v8h-14zm14-2h-14v-2h14zm-14 12h14v2h-14zm-6-18h26l.002 2h-.002-6-14-6zm4 4v16h-2v-16zm-22 38v-20h18v20zm4-22v-2h14v2zm14-12v8h-14v-8zm-16-4v16h-2v-16zm-10 16v-2h6v2zm5-12h1v8h-6v-3c0-2.757 2.243-5 5-5zm-3 18.586v-4.586h4v20h-2v-13.414zm-2 19.414v-2h5.355c-.706.571-1.326 1.244-1.834 2zm11 12c-3.859 0-7-3.141-7-7s3.141-7 7-7 7 3.141 7 7-3.141 7-7 7zm5.645-14h17.719c-.154.65-.26 1.317-.313 2h-15.573c-.507-.756-1.127-1.429-1.833-2zm41.355 3c0 6.065-4.935 11-11 11s-11-4.935-11-11 4.935-11 11-11 11 4.935 11 11zm-11-13c-5.397 0-10.034 3.307-11.997 8h-7.003v-20h28v4.586l-2 2v7.477c-2.023-1.299-4.422-2.063-7-2.063z"/><path d="m34 34h18v-8h-18zm16-2h-6v-4h6zm-14-4h6v4h-6z"/><path d="m12 26v14h14v-14zm8.586 4-1.586 1.586-1.586-1.586 1.586-1.586zm-4.586 1.414 1.586 1.586-1.586 1.586-1.586-1.586zm3 3 1.586 1.586-1.586 1.586-1.586-1.586zm3 .172-1.586-1.586 1.586-1.586 1.586 1.586zm2-4-2.586-2.586h2.586zm-7.414-2.586-2.586 2.586v-2.586zm-2.586 7.414 2.586 2.586h-2.586zm7.414 2.586 2.586-2.586v2.586z"/><path d="m34 36h2v2h-2z"/><path d="m38 36h2v2h-2z"/></g></g></svg>