<svg id="Capa_1" enable-background="new 0 0 512 512" height="512" viewBox="0 0 512 512" width="512" xmlns="http://www.w3.org/2000/svg"><g><g><g><path clip-rule="evenodd" d="m504.5 45.464c0 11.537-9.439 20.977-21.005 20.977h-40.535l-11.339-20.438 11.339-21.516h40.536c11.565 0 21.004 9.44 21.004 20.977z" fill="#aa6a51" fill-rule="evenodd"/></g></g><g><g><path clip-rule="evenodd" d="m483.495 66.442c11.565 0 21.005-9.44 21.005-20.977 0-3.175-.709-6.151-1.984-8.844-3.345 7.144-10.63 12.104-19.021 12.104h-50.343l9.808 17.717z" fill="#935b44" fill-rule="evenodd"/></g></g><g><g><path clip-rule="evenodd" d="m69.012 24.487 11.339 21.346-11.339 20.609h-40.536c-11.537 0-20.976-9.44-20.976-20.977s9.439-20.977 20.976-20.977h40.536z" fill="#aa6a51" fill-rule="evenodd"/></g></g><g><g><path clip-rule="evenodd" d="m69.012 66.442 9.723-17.717h-50.259c-8.391 0-15.647-4.961-19.021-12.104-1.246 2.692-1.955 5.669-1.955 8.843 0 11.537 9.439 20.977 20.976 20.977h40.536z" fill="#935b44" fill-rule="evenodd"/></g></g><g><g><path clip-rule="evenodd" d="m423.259 353.77v87.735h-19.191-24.69-246.785-24.69-19.162v-251.214l33.591-5.783-33.591-44.675v-69.338h19.162 296.165 19.191v238.826l-32.996 12.076z" fill="#faf7f7" fill-rule="evenodd"/></g></g><g><g><path clip-rule="evenodd" d="m423.259 441.505v-87.735l-32.995-32.373 32.995-12.076v-248.804h-19.191-11.338-284.827-19.162v47.198h9.666 273.629c20.58 0 20.693 14.004 20.693 32.599v150.524l-21.657 13.805c-9.468 6.038-11.395 7.2-3.317 16.697l24.973 29.538v90.626h11.339 19.192z" fill="#dedbee" fill-rule="evenodd"/></g></g><g><g><path clip-rule="evenodd" d="m504.5 466.535c0 11.537-9.439 20.977-21.005 20.977h-40.535l-6.321-20.977 6.321-20.977h40.536c11.565 0 21.004 9.44 21.004 20.977z" fill="#aa6a51" fill-rule="evenodd"/></g></g><g><g><path clip-rule="evenodd" d="m442.96 69.248c0 6.18-5.046 11.254-11.254 11.254h-8.447-19.191l-18.794-35.633 18.794-34.442h27.638c6.208 0 11.254 5.046 11.254 11.254z" fill="#eb5569" fill-rule="evenodd"/></g></g><g><g><path clip-rule="evenodd" d="m107.903 10.427 22.677 35.009-22.677 35.066h-19.162-8.476c-6.18 0-11.254-5.074-11.254-11.254v-2.806-41.955-2.806c0-6.208 5.074-11.254 11.254-11.254z" fill="#eb5569" fill-rule="evenodd"/></g></g><g><g><path clip-rule="evenodd" d="m79.018 445.558v41.954h-50.542c-11.537 0-20.976-9.44-20.976-20.977s9.439-20.977 20.976-20.977z" fill="#aa6a51" fill-rule="evenodd"/></g></g><g><g><path clip-rule="evenodd" d="m107.903 80.502 14.485-22.366h-33.647-8.476c-6.151 0-11.225-5.046-11.254-11.197v19.503 2.806c0 6.18 5.074 11.254 11.254 11.254h8.476z" fill="#e53950" fill-rule="evenodd"/></g></g><g><g><path clip-rule="evenodd" d="m442.96 66.442v-19.588c0 6.208-5.046 11.282-11.254 11.282h-8.447-31.011l11.821 22.366h19.191 8.447c6.208 0 11.254-5.074 11.254-11.254v-2.806z" fill="#e53950" fill-rule="evenodd"/></g></g><g><g><path clip-rule="evenodd" d="m79.018 487.513v-19.305-2.806h-50.542c-7.483 0-14.088-3.969-17.83-9.922-1.984 3.232-3.146 7.002-3.146 11.055 0 11.537 9.439 20.977 20.976 20.977h50.542z" fill="#935b44" fill-rule="evenodd"/></g></g><g><g><path clip-rule="evenodd" d="m504.5 466.535c0-4.054-1.162-7.824-3.175-11.055-3.713 5.953-10.318 9.922-17.83 9.922h-46.517l5.981 22.111h40.536c11.566 0 21.005-9.44 21.005-20.978z" fill="#935b44" fill-rule="evenodd"/></g></g><g><g><path clip-rule="evenodd" d="m107.903 431.498 27.213 36.71-27.213 33.365h-27.637c-6.18 0-11.254-5.046-11.254-11.254v-2.806-41.954-2.806c0-6.18 5.074-11.254 11.254-11.254h8.476 19.161z" fill="#eb5569" fill-rule="evenodd"/></g></g><g><g><path clip-rule="evenodd" d="m107.903 501.573 18.028-22.111h-45.665c-6.18 0-11.254-5.046-11.254-11.254v19.305 2.806c0 6.208 5.074 11.254 11.254 11.254z" fill="#e53950" fill-rule="evenodd"/></g></g><g><g><path clip-rule="evenodd" d="m442.96 445.558v19.134 22.82 2.806c0 6.18-5.046 11.254-11.254 11.254h-27.638l-18.794-33.365 18.794-36.71h19.191 8.447c6.208 0 11.254 5.074 11.254 11.254z" fill="#eb5569" fill-rule="evenodd"/></g></g><g><g><path clip-rule="evenodd" d="m442.96 487.513v-19.305c0 6.208-5.046 11.254-11.254 11.254h-40.082l12.444 22.111h27.638c6.208 0 11.254-5.074 11.254-11.254z" fill="#e53950" fill-rule="evenodd"/></g></g><g><g><path clip-rule="evenodd" d="m107.903 10.427h296.165v70.075h-296.165z" fill="#fec165" fill-rule="evenodd"/></g></g><g><g><path clip-rule="evenodd" d="m404.068 58.136h-296.165v22.366h284.827 11.338z" fill="#fdb441" fill-rule="evenodd"/></g></g><g><g><path clip-rule="evenodd" d="m404.068 501.573h-296.165v-70.075h24.69 246.785 24.69z" fill="#fec165" fill-rule="evenodd"/></g></g><g><g><path clip-rule="evenodd" d="m107.903 479.462h296.165v22.111h-296.165z" fill="#fdb441" fill-rule="evenodd"/></g></g><g><g><path d="m309.731 380.116h-107.944c-4.142 0-7.5 3.357-7.5 7.5s3.358 7.5 7.5 7.5h107.944c4.142 0 7.5-3.357 7.5-7.5s-3.358-7.5-7.5-7.5z"/></g><g><path d="m347.999 336.235h-93.317c-4.142 0-7.5 3.357-7.5 7.5s3.358 7.5 7.5 7.5h93.317c4.142 0 7.5-3.357 7.5-7.5s-3.358-7.5-7.5-7.5z"/></g><g><path d="m222.298 343.735c0-4.143-3.358-7.5-7.5-7.5h-32.23c-4.142 0-7.5 3.357-7.5 7.5s3.358 7.5 7.5 7.5h32.23c4.142 0 7.5-3.357 7.5-7.5z"/></g><g><path d="m284.717 299.882c0-4.143-3.358-7.5-7.5-7.5h-114.576c-4.142 0-7.5 3.357-7.5 7.5s3.358 7.5 7.5 7.5h114.577c4.141 0 7.499-3.358 7.499-7.5z"/></g><g><path d="m347.999 292.382h-30.897c-4.142 0-7.5 3.357-7.5 7.5s3.358 7.5 7.5 7.5h30.897c4.142 0 7.5-3.357 7.5-7.5s-3.358-7.5-7.5-7.5z"/></g><g><path d="m162.641 248.5c-4.142 0-7.5 3.357-7.5 7.5s3.358 7.5 7.5 7.5h185.358c4.142 0 7.5-3.357 7.5-7.5s-3.358-7.5-7.5-7.5z"/></g><g><path d="m158.559 175.765h185.387c4.142 0 7.5-3.357 7.5-7.5s-3.358-7.5-7.5-7.5h-185.387c-4.142 0-7.5 3.357-7.5 7.5s3.358 7.5 7.5 7.5z"/></g><g><path d="m158.559 131.884h137.396c4.142 0 7.5-3.357 7.5-7.5s-3.358-7.5-7.5-7.5h-137.396c-4.142 0-7.5 3.357-7.5 7.5s3.358 7.5 7.5 7.5z"/></g><g><path d="m158.559 219.618h30.898c4.142 0 7.5-3.357 7.5-7.5s-3.358-7.5-7.5-7.5h-30.898c-4.142 0-7.5 3.357-7.5 7.5s3.358 7.5 7.5 7.5z"/></g><g><path d="m343.945 219.618c4.142 0 7.5-3.357 7.5-7.5s-3.358-7.5-7.5-7.5h-114.576c-4.142 0-7.5 3.357-7.5 7.5s3.358 7.5 7.5 7.5z"/></g><g><path d="m483.495 438.059h-33.654c-2.092-8.073-9.417-14.061-18.135-14.061h-.947v-70.228c0-2.014-.81-3.943-2.248-5.354l-24.52-24.057 21.845-7.995c2.957-1.082 4.922-3.895 4.922-7.043v-221.319h.947c8.718 0 16.043-5.988 18.135-14.061h33.654c15.718 0 28.505-12.774 28.505-28.477s-12.787-28.478-28.505-28.478h-33.654c-2.092-8.073-9.417-14.061-18.135-14.061h-351.439c-8.718 0-16.043 5.988-18.135 14.061h-33.654c-15.703.001-28.477 12.777-28.477 28.479s12.774 28.477 28.477 28.477h33.654c2.092 8.073 9.417 14.061 18.135 14.061h.976v51.831c0 1.626.528 3.208 1.505 4.507l26.211 34.86-21.489 3.699c-3.598.62-6.228 3.74-6.228 7.392v233.707h-.976c-8.718 0-16.043 5.988-18.135 14.061h-33.653c-15.703-.001-28.477 12.773-28.477 28.475s12.774 28.478 28.477 28.478h33.654c2.092 8.073 9.417 14.061 18.135 14.061h351.44c8.718 0 16.043-5.988 18.135-14.061h33.654c15.718 0 28.505-12.775 28.505-28.478s-12.787-28.476-28.505-28.476zm13.505-392.594c0 7.431-6.058 13.477-13.505 13.477h-33.036v-26.955h33.036c7.447 0 13.505 6.046 13.505 13.478zm-61.541-23.784v47.567c0 2.035-1.719 3.754-3.753 3.754h-20.138v-55.075h20.138c2.07 0 3.753 1.683 3.753 3.754zm-420.459 23.784c0-7.432 6.045-13.478 13.477-13.478h33.036v26.954h-33.036c-7.432 0-13.477-6.045-13.477-13.476zm61.512 23.783v-47.567c0-2.035 1.719-3.754 3.753-3.754h20.138v55.075h-20.137c-2.035 0-3.754-1.719-3.754-3.754zm19.729 127.362 27.363-4.711c2.576-.443 4.735-2.196 5.699-4.625.964-2.43.594-5.185-.977-7.273l-32.085-42.673v-49.326h143.105c4.142 0 7.5-3.357 7.5-7.5s-3.358-7.5-7.5-7.5h-123.943v-55.075h281.165v55.075h-122.582c-4.142 0-7.5 3.357-7.5 7.5s3.358 7.5 7.5 7.5h141.773v216.078l-28.073 10.274c-2.417.884-4.211 2.946-4.754 5.461-.542 2.516.242 5.134 2.079 6.936l30.748 30.167v67.08h-141.603c-4.142 0-7.5 3.357-7.5 7.5s3.358 7.5 7.5 7.5h122.413v55.075h-281.166v-55.075h124.255c4.142 0 7.5-3.357 7.5-7.5s-3.358-7.5-7.5-7.5h-143.417zm-81.241 269.925c0-7.431 6.045-13.477 13.477-13.477h33.036v26.954h-33.036c-7.432.001-13.477-6.045-13.477-13.477zm61.512 23.784v-47.567c0-2.035 1.719-3.754 3.753-3.754h20.138v55.075h-20.137c-2.035 0-3.754-1.719-3.754-3.754zm358.947 0c0 2.035-1.719 3.754-3.753 3.754h-20.138v-55.075h20.138c2.035 0 3.753 1.719 3.753 3.754zm48.036-10.306h-33.036v-26.954h33.036c7.447 0 13.505 6.046 13.505 13.477s-6.058 13.477-13.505 13.477z"/></g></g></g></svg>