<svg id="Capa_1" enable-background="new 0 0 512.023 512.023" height="512" viewBox="0 0 512.023 512.023" width="512" xmlns="http://www.w3.org/2000/svg"><g><g><path d="m256.013 23.799c-128.241 0-232.201 103.96-232.201 232.201s103.96 232.201 232.201 232.201 232.202-103.96 232.202-232.201-103.96-232.201-232.202-232.201zm0 416.828c-101.967 0-184.628-82.66-184.628-184.627s82.661-184.627 184.628-184.627 184.628 82.66 184.628 184.627-82.661 184.627-184.628 184.627z" fill="#c9f6b0"/><g fill="#9be69d"><path d="m241.013 71.981c-4.948-.398-9.949-.609-15-.609-101.967 0-184.628 82.66-184.628 184.627s82.661 184.627 184.628 184.627c5.051 0 10.052-.211 15-.609-94.95-7.634-169.627-87.101-169.627-184.017s74.677-176.383 169.627-184.019z"/><path d="m256.013 23.799c-5.041 0-10.039.179-15 .495 121.249 7.733 217.202 108.506 217.202 231.706s-95.953 223.973-217.201 231.706c4.961.316 9.959.495 15 .495 128.241 0 232.201-103.96 232.201-232.201s-103.96-232.201-232.202-232.201z"/></g><g><g fill="#ffe5c2"><path d="m307.281 151.051v64.94c0 9.438-7.651 17.089-17.089 17.089-9.438 0-17.089-7.651-17.089-17.089v-64.94z"/><path d="m238.924 151.051v64.94c0 9.438-7.651 17.089-17.089 17.089-9.438 0-17.089-7.651-17.089-17.089v-64.94z"/><path d="m204.745 110.036v58.224c0 3.709-3.007 6.715-6.715 6.715-15.168 0-27.463-12.296-27.463-27.463v-54.565c0-47.191 38.256-85.447 85.447-85.447 47.191 0 85.447 38.256 85.447 85.447v105.954c0 9.438-7.651 17.089-17.089 17.089-9.438 0-17.089-7.651-17.089-17.089v-17.85l-102.536-12.79v-58.225z"/><path d="m170.566 147.512c0 15.168 12.296 27.463 27.463 27.463 3.709 0 6.715-3.007 6.715-6.715v-65.28h-34.179v44.532z"/></g><path d="m196.608 102.979c-4.494 0-8.138 3.643-8.138 8.138v57.144c0 1.658-.604 3.173-1.6 4.344 3.411 1.519 7.185 2.371 11.16 2.371 3.709 0 6.715-3.007 6.715-6.715v-57.144c0-4.494-3.643-8.138-8.137-8.138z" fill="#fed2a4"/><g><path d="m256.013 7.5c-3.22 0-6.394.194-9.522.541 42.707 4.737 75.925 40.935 75.925 84.906v105.954c0 5.913-3.004 11.123-7.568 14.191 2.721 1.829 5.996 2.898 9.522 2.898 9.438 0 17.089-7.651 17.089-17.089v-105.954c.001-47.191-38.255-85.447-85.446-85.447z" fill="#fed2a4"/></g><path d="m273.103 168.14v64.94c0 9.438-7.651 17.089-17.089 17.089-9.438 0-17.089-7.651-17.089-17.089v-64.94z" fill="#ffe5c2"/><path d="m298.088 143.863c-5.077 0-9.193 4.116-9.193 9.193v62.934c0 6.05-3.153 11.354-7.896 14.39 2.973 1.903 6.564 2.927 10.415 2.656 9.017-.635 15.867-8.423 15.867-17.463v-62.518c0-5.076-4.116-9.192-9.193-9.192z" fill="#fed2a4"/><path d="m229.731 143.863c-5.077 0-9.193 4.116-9.193 9.193v62.934c0 6.05-3.153 11.354-7.896 14.39 2.973 1.903 6.564 2.927 10.416 2.656 9.017-.635 15.867-8.423 15.867-17.463v-62.518c-.001-5.076-4.117-9.192-9.194-9.192z" fill="#fed2a4"/><path d="m263.909 143.863c-5.077 0-9.193 4.116-9.193 9.193v80.024c0 6.05-3.153 11.354-7.896 14.39 2.973 1.903 6.564 2.927 10.415 2.656 9.017-.635 15.867-8.423 15.867-17.463v-79.607c.001-5.077-4.115-9.193-9.193-9.193z" fill="#fed2a4"/></g><g><path d="m293.393 414.219 65.254 65.254c33.369 33.369 87.471 33.369 120.84 0 33.369-33.369 33.369-87.471 0-120.84l-29.002-29.002z" fill="#ffbd86"/><g fill="#ea9b58"><path d="m424.813 376.464c6.674-6.674 6.674-17.494 0-24.168l-5.747-5.747-62.837 33.835 24.667 24.667c6.674 6.674 17.494 6.674 24.168 0 6.674-6.674 6.674-17.494 0-24.168l-4.419-4.419c6.674 6.674 17.495 6.674 24.168 0z"/><path d="m300.016 410.653c-.89 5.27.684 10.875 4.751 14.941l21.751 21.751c6.674 6.674 17.494 6.674 24.168 0s6.674-17.493.001-24.167l6.041 6.042c6.674 6.674 17.494 6.674 24.168 0s6.674-17.494 0-24.168l-24.667-24.667z"/></g><path d="m479.486 358.633-29.002-29.002-19.5 10.5 18.502 18.502c33.369 33.369 33.369 87.471 0 120.84-12.853 12.853-28.785 20.734-45.42 23.686 26.553 4.711 54.904-3.169 75.42-23.686 33.37-33.369 33.37-87.471 0-120.84z" fill="#f6a96c"/><path d="m385.645 361.464-33.835-33.835c-6.674-6.674-6.674-17.494 0-24.168 6.674-6.674 17.494-6.674 24.168 0l33.835 33.835c6.674 6.674 6.674 17.494 0 24.168-6.673 6.674-17.494 6.674-24.168 0z" fill="#ffbd86"/><path d="m409.813 337.296-33.835-33.835c-6.674-6.674-17.494-6.674-24.168 0-2.535 2.535-4.102 5.67-4.711 8.947 5.634-1.411 11.844.066 16.25 4.472l33.835 33.835c4.139 4.138 5.705 9.871 4.711 15.221 2.9-.727 5.651-2.205 7.918-4.473 6.674-6.673 6.674-17.493 0-24.167z" fill="#f6a96c"/><path d="m311.519 432.345-21.751-21.751c-6.674-6.674-6.674-17.494 0-24.168 6.674-6.674 17.494-6.674 24.168 0l21.751 21.751c6.674 6.674 6.674 17.494 0 24.168-6.674 6.674-17.495 6.674-24.168 0z" fill="#ffbd86"/><path d="m335.687 408.177-21.751-21.751c-6.674-6.674-17.494-6.674-24.168 0-.225.225-.423.466-.633.7.384.322.762.654 1.122 1.014l21.751 21.751c6.449 6.449 6.647 16.758.633 23.468 6.714 5.631 16.733 5.299 23.046-1.014 6.673-6.673 6.673-17.494 0-24.168z" fill="#f6a96c"/><path d="m341.729 414.219-33.835-33.835c-6.674-6.674-6.674-17.494 0-24.168 6.674-6.674 17.494-6.674 24.168 0l33.835 33.835c6.674 6.674 6.674 17.494 0 24.168-6.674 6.674-17.495 6.674-24.168 0z" fill="#ffbd86"/><path d="m365.897 390.052-33.835-33.835c-6.674-6.674-17.494-6.674-24.168 0-.525.525-.994 1.084-1.437 1.656.495.396.978.816 1.437 1.275l33.835 33.835c6.149 6.148 6.618 15.809 1.437 22.511 6.709 5.36 16.516 4.939 22.731-1.275 6.674-6.673 6.674-17.494 0-24.167z" fill="#f6a96c"/><path d="m365.897 390.051-45.919-45.919c-6.674-6.674-6.674-17.494 0-24.168 6.674-6.674 17.494-6.674 24.168 0l45.919 45.919c6.674 6.674 6.674 17.494 0 24.168-6.674 6.674-17.494 6.674-24.168 0z" fill="#ffbd86"/><path d="m390.065 365.883-45.919-45.919c-6.674-6.674-17.494-6.674-24.168 0-1.942 1.942-3.301 4.239-4.113 6.678 5.205-.809 10.71.773 14.72 4.783l45.919 45.919c4.732 4.732 6.091 11.544 4.113 17.49 3.458-.537 6.784-2.119 9.448-4.783 6.674-6.673 6.674-17.494 0-24.168z" fill="#f6a96c"/><path d="m450.485 329.631-26.168-26.168c-8.239-8.239-21.596-8.239-29.834 0l-53.683 53.683c-2.156 2.156-2.156 5.652 0 7.809l2.42 2.42c8.52 8.52 22.334 8.52 30.855 0l20.754-20.81c4.654-4.667 12.212-4.672 16.873-.011l22.997 22.997z" fill="#ffbd86"/><path d="m343.219 367.374c1.828 1.828 3.909 3.24 6.121 4.284l41.795-41.795c8.239-8.239 21.596-8.239 29.834 0l21.085 21.085 8.43-21.316-26.168-26.168c-8.239-8.239-21.596-8.239-29.834 0l-53.683 53.683c-2.156 2.156-2.156 5.652 0 7.809z" fill="#f6a96c"/></g><g><path d="m111.532 344.189 36.891-73.265c4.245-8.43 14.519-11.823 22.949-7.578 8.43 4.245 11.823 14.519 7.578 22.949l-30.98 61.526c-.58 1.151-.642 2.495-.172 3.695 1.239 3.163 5.387 3.892 7.63 1.341l49.269-56.01c4.851-5.513 12.455-7.157 18.936-4.681 1.852.708 3.609 1.757 5.18 3.138 7.083 6.231 7.774 17.032 1.543 24.116l-46.504 52.86-3.603 4.099-33.794 50.448z" fill="#ffe5c2"/><path d="m228.813 295.305c-1.57-1.381-3.328-2.43-5.18-3.138-.936-.358-1.897-.619-2.868-.806 2.117 5.705 1.116 12.361-3.183 17.249l-46.504 52.86-25.769 29.319c-3.385 3.852-2.54 9.814 1.781 12.574 3.48 2.222 8.061 1.573 10.786-1.528l25.975-29.554 46.504-52.86c6.232-7.084 5.541-17.885-1.542-24.116z" fill="#fed2a4"/><path d="m146.455 426.828 26.186-52.004c1.668-3.312 5.705-4.646 9.018-2.978 13.547 6.821 18.999 23.333 12.178 36.881l-24.54 48.736c-21.224 42.149-72.597 59.113-114.746 37.889-42.149-21.223-59.113-72.597-37.889-114.746l32.28-64.107 62.591 27.69z" fill="#ffe5c2"/><path d="m181.659 371.847c-.464-.234-.943-.402-1.427-.521 3.49 7.385 3.672 16.241-.286 24.102l-24.54 48.736c-21.223 42.149-72.597 59.113-114.746 37.889-4.8-2.417-9.255-5.242-13.382-8.383 7.285 8.77 16.44 16.228 27.274 21.683 42.149 21.223 93.523 4.26 114.746-37.889l24.54-48.736c6.82-13.548 1.368-30.06-12.179-36.881z" fill="#fed2a4"/><g><path d="m161.888 320.181 17.063-33.886c4.245-8.43.852-18.705-7.578-22.949-1.446-.728-2.948-1.216-4.463-1.508 1.601 4.301 1.494 9.224-.733 13.646l-23.454 46.579c-4.414 8.767-2.245 19.417 5.248 25.758z" fill="#fed2a4"/></g><path d="m42.792 328.71 13.834-27.474c4.245-8.43 14.519-11.823 22.949-7.578 8.43 4.245 11.823 14.519 7.578 22.949l-13.834 27.474c-4.245 8.43-14.519 11.823-22.949 7.578-8.43-4.245-11.822-14.519-7.578-22.949z" fill="#ffe5c2"/><path d="m79.576 293.658c-1.198-.603-2.435-1.035-3.685-1.338 1.364 4.148 1.149 8.815-.97 13.023l-13.834 27.474c-3.641 7.232-11.719 10.74-19.265 8.915 1.368 4.162 4.326 7.801 8.548 9.926 8.43 4.245 18.705.852 22.949-7.578l13.834-27.474c4.245-8.429.853-18.704-7.577-22.948z" fill="#fed2a4"/><path d="m73.319 344.081 21.52-42.738c4.245-8.43 14.519-11.823 22.949-7.578 8.43 4.245 11.823 14.519 7.578 22.949l-21.52 42.738c-4.245 8.43-14.519 11.823-22.949 7.578-8.43-4.244-11.822-14.519-7.578-22.949z" fill="#ffe5c2"/><path d="m117.789 293.765c-1.356-.683-2.762-1.147-4.181-1.446 1.876 4.454 1.871 9.668-.473 14.322l-21.52 42.738c-3.562 7.074-11.368 10.58-18.768 9.024 1.521 3.612 4.276 6.726 8.051 8.627 8.43 4.245 18.705.852 22.949-7.578l21.52-42.738c4.244-8.429.852-18.704-7.578-22.949z" fill="#fed2a4"/></g></g><path d="m484.79 353.33-6.785-6.785c11.747-28.741 17.709-59.174 17.709-90.544 0-30.515-5.659-60.248-16.82-88.373-1.528-3.85-5.887-5.731-9.738-4.205-3.85 1.528-5.732 5.888-4.205 9.738 10.459 26.356 15.763 54.228 15.763 82.84 0 27.275-4.801 53.79-14.276 78.978l-10.649-10.649-15.119-15.12c4.956-17.237 7.473-35.114 7.473-53.21 0-70.317-37.947-134.38-99.332-168.262-.841-15.143-5.324-29.329-12.585-41.698 20.089 7.664 38.934 18.176 56.239 31.422 23.421 17.929 42.83 39.909 57.687 65.328 1.395 2.386 3.904 3.717 6.482 3.717 1.285 0 2.588-.331 3.778-1.026 3.576-2.09 4.781-6.684 2.69-10.26-15.845-27.109-36.542-50.549-61.519-69.669-24.803-18.987-52.574-32.72-82.558-40.866-16.576-15.314-38.719-24.686-63.012-24.686-24.291 0-46.431 9.37-63.007 24.681-104.128 28.29-176.693 123.134-176.693 231.319 0 27.823 4.709 54.965 13.988 80.84l-20.34 40.393c-22.976 44.882-4.67 101.714 41.215 124.818 22.217 11.187 47.451 13.001 70.945 5.243 17.073-5.638 31.797-15.865 42.871-29.489 28.879 11.875 59.468 17.895 91.02 17.895 31.371 0 61.803-5.962 90.544-17.709l6.785 6.785c18.12 18.12 41.922 27.18 65.723 27.18 23.802 0 47.604-9.06 65.724-27.18 36.242-36.239 36.242-95.207.002-131.446zm-306.723-260.383c0-42.98 34.967-77.947 77.947-77.947s77.947 34.967 77.947 77.947v39.337c0 4.142 3.358 7.5 7.5 7.5s7.5-3.358 7.5-7.5v-27.1c52.229 32.172 84.183 88.862 84.183 150.816 0 13.881-1.606 27.618-4.773 40.989-5.236-4.656-11.907-7.206-18.972-7.206-7.638 0-14.819 2.975-20.22 8.376l-3.95 3.95-3.953-3.953c-4.641-4.641-10.814-7.197-17.383-7.197-6.568 0-12.742 2.556-17.379 7.193-3.023 3.019-5.157 6.688-6.284 10.689-2.588-.907-5.339-1.382-8.167-1.382-6.575 0-12.752 2.556-17.397 7.201-8.3 8.312-9.393 21.128-3.308 30.636-3.198 1.193-6.202 3.049-8.769 5.616-6.399 6.4-8.503 15.474-6.358 23.656-4.42 1.029-8.479 3.265-11.768 6.554-4.645 4.644-7.202 10.819-7.202 17.387s2.558 12.743 7.202 17.387l12.47 12.47c-13.344 3.16-27.058 4.763-40.92 4.763-20.892 0-41.291-3.6-60.687-10.685l5.209-10.345c4.2-8.341 4.901-17.819 1.973-26.687-1.712-5.185-4.552-9.792-8.277-13.57l41.756-47.469c4.335-4.93 6.492-11.254 6.074-17.809-.418-6.557-3.365-12.556-8.291-16.887-2.226-1.961-4.735-3.482-7.459-4.521-9.544-3.638-20.491-.932-27.244 6.737l-34.007 38.661 20.595-40.894c2.223-4.432 3.057-9.361 2.412-14.256-1.064-8.082-6.041-15.095-13.323-18.767-12.109-6.082-26.923-1.186-33.021 10.912l-12.873 25.566c-2.069-2.444-4.651-4.521-7.686-6.05-5.866-2.953-12.531-3.447-18.769-1.387-4.528 1.495-8.423 4.218-11.355 7.836-2.173-2.703-4.898-4.95-8.089-6.556-.488-.246-.982-.468-1.48-.679-1.716-9.916-2.586-20.08-2.586-30.28 0-61.954 31.954-118.644 84.183-150.816v42.329c0 19.016 15.262 34.523 34.179 34.943v33.534c0 13.559 11.031 24.589 24.589 24.589 3.626 0 7.067-.795 10.169-2.21 2.427 11.024 12.268 19.299 24.01 19.299s21.583-8.276 24.01-19.299c3.102 1.415 6.543 2.21 10.169 2.21 11.742 0 21.583-8.276 24.01-19.299 3.102 1.415 6.543 2.21 10.169 2.21 13.559 0 24.589-11.031 24.589-24.589v-31.617c0-4.142-3.358-7.5-7.5-7.5s-7.5 3.358-7.5 7.5v31.617c0 5.288-4.302 9.589-9.589 9.589s-9.589-4.302-9.589-9.589v-47.85c0-4.142-3.358-7.5-7.5-7.5s-7.5 3.358-7.5 7.5v64.939c0 5.288-4.302 9.589-9.589 9.589s-9.589-4.302-9.589-9.589v-64.939c0-4.142-3.358-7.5-7.5-7.5s-7.5 3.358-7.5 7.5v82.029c0 5.288-4.302 9.589-9.589 9.589s-9.589-4.302-9.589-9.589v-82.029c0-4.142-3.358-7.5-7.5-7.5s-7.5 3.358-7.5 7.5v64.939c0 5.288-4.302 9.589-9.589 9.589s-9.589-4.302-9.589-9.589v-105.953c0-4.142-3.358-7.5-7.5-7.5s-7.5 3.358-7.5 7.5v57.425c-10.646-.414-19.179-9.203-19.179-19.948v-54.566zm196.556 219.769-13.559 13.559-3.948-3.948c-1.814-1.814-2.813-4.224-2.813-6.786 0-2.559.998-4.965 2.812-6.777 1.809-1.808 4.215-2.804 6.777-2.804s4.969.996 6.777 2.803zm-61.426 62.365c-3.739-3.739-3.739-9.823 0-13.562 1.811-1.811 4.219-2.809 6.78-2.809 2.552 0 4.951.991 6.76 2.79l33.853 33.853c.005.005.01.01.015.014 3.726 3.74 3.723 9.814-.012 13.549-3.739 3.738-9.822 3.738-13.562 0zm17.186 51.961c-3.788 3.789-10.208 3.654-13.808-.247-.001-.001-.003-.003-.004-.004l-21.501-21.5c-3.706-3.67-3.689-9.874 0-13.562 3.688-3.687 9.883-3.71 13.558-.004l21.756 21.756c3.693 3.659 3.688 9.872-.001 13.561zm-5.107-88.215c-3.736-3.737-3.735-9.823 0-13.563 1.808-1.808 4.218-2.803 6.787-2.803 2.567 0 4.972.993 6.777 2.803l11.618 11.618-13.563 13.563zm-245.258 8.627 21.52-42.738c2.321-4.676 8.217-6.599 12.877-4.252 4.705 2.369 6.613 8.11 4.277 12.823l-21.544 42.792c-2.378 4.724-8.155 6.631-12.877 4.253-4.723-2.378-6.631-8.155-4.253-12.878zm-13.397-6.746c-2.318 4.66-8.238 6.588-12.877 4.252-4.658-2.345-6.62-8.226-4.254-12.873l13.836-27.479c2.321-4.677 8.216-6.599 12.877-4.252 4.721 2.377 6.629 8.151 4.254 12.873zm109.189-294.685c-7.267 12.373-11.754 26.564-12.595 41.714-61.384 33.883-99.332 97.946-99.332 168.263 0 9.757.741 19.487 2.193 29.034-.635.156-1.268.33-1.896.537-6.237 2.06-11.298 6.424-14.252 12.291l-10.015 19.889c-5.703-19.969-8.6-40.648-8.6-61.751 0-93.927 58.342-177.132 144.497-209.977zm-13.212 408.067c-19.094 37.768-65.159 54.462-104.675 34.563-38.388-19.33-53.893-66.287-34.563-104.675l15.946-31.668c2.104 2.48 4.699 4.541 7.691 6.047 5.764 2.903 12.267 3.414 18.384 1.498 2.027 5.819 6.219 10.89 12.143 13.874 11.898 5.991 26.854 1.351 33.021-10.904l21.52-42.738c.018-.036.033-.072.051-.108l23.002-45.681c2.379-4.722 8.165-6.63 12.882-4.261 2.836 1.43 4.777 4.169 5.193 7.327.251 1.907-.077 3.834-.943 5.561l-31 61.556c-1.518 3.051-1.676 6.613-.43 9.786 2.035 5.154 7.291 8.245 12.788 7.527 2.882-.379 5.529-1.794 7.451-3.981l49.267-56.009c2.637-2.995 6.914-4.054 10.638-2.632 1.042.397 2.015.99 2.896 1.767 1.92 1.688 3.067 4.025 3.23 6.582.163 2.558-.678 5.025-2.368 6.947l-43.464 49.414c-6.064-1.136-12.407 1.789-15.317 7.569l-26.186 52.004c-1.863 3.7-.374 8.209 3.326 10.072s8.209.375 10.072-3.326l25.826-51.29c4.413 2.438 7.695 6.39 9.285 11.205 1.672 5.063 1.272 10.475-1.126 15.238zm93.415 26.61c-28.494 0-56.14-5.249-82.321-15.578.8-1.405 1.571-2.831 2.303-4.286l12.544-24.911c21.539 8.092 44.23 12.205 67.474 12.205 18.102 0 35.975-2.52 53.203-7.481l25.775 25.775c-25.188 9.476-51.702 14.276-78.978 14.276zm218.17-6.53c-30.391 30.392-79.842 30.392-110.234 0l-31.109-31.11c3.014-1.221 5.782-3.043 8.15-5.411 3.289-3.289 5.525-7.347 6.554-11.768 2.053.538 4.159.832 6.269.832 6.297 0 12.594-2.396 17.387-7.19 4.688-4.688 7.068-10.814 7.171-16.972 6.432-.099 12.457-2.645 16.992-7.194 4.65-4.643 7.211-10.818 7.211-17.388 0-1.493-.139-2.964-.398-4.404 4.872-.886 9.36-3.221 12.941-6.802 1.048-1.048 1.985-2.179 2.815-3.373l11.462 11.462c2.928 2.929 7.677 2.929 10.606 0s2.929-7.678 0-10.606l-19.78-19.78c-.039-.041-.079-.079-.119-.119l-3.098-3.098c-3.669-3.669-8.545-5.689-13.733-5.689h-.014c-5.193.004-10.073 2.031-13.74 5.708l-12.016 12.049s0 0 0 0l-8.73 8.753c-2.704 2.704-6.3 4.193-10.124 4.193s-7.419-1.489-10.124-4.193l-1.021-1.021 52.284-52.284c2.568-2.568 5.982-3.982 9.614-3.982s7.046 1.415 9.614 3.982l55.17 55.17c30.392 30.393 30.392 79.843 0 110.235zm-107.567-94.006c4.777-1.342 9.159-3.885 12.768-7.494l3.427-3.436 1.949 1.949c1.814 1.814 2.813 4.224 2.813 6.786 0 2.559-.998 4.965-2.822 6.786-1.803 1.809-4.207 2.805-6.768 2.805-2.557 0-4.962-.996-6.776-2.803-.003-.003-.005-.006-.008-.009zm27.248-22.013 6.274-6.291c.835-.837 1.946-1.299 3.129-1.3h.003c1.335-.024 2.731.688 3.584 1.752-.457 1.435-1.251 2.751-2.344 3.844-1.814 1.814-4.221 2.813-6.776 2.813-1.356.001-2.665-.286-3.87-.818z"/></g></svg>