<svg height="512" viewBox="0 0 512 512" width="512" xmlns="http://www.w3.org/2000/svg"><g id="Layer_2"><g><g><g><path d="m357.102 305.896-29.733 11.861-8.626-21.623-46.432 18.523 55.299 138.624c16.753 41.997 64.551 62.535 106.549 45.781 41.997-16.753 62.535-64.551 45.781-106.548l-16.29-40.835c-16.753-41.999-64.55-62.536-106.548-45.783zm74.693 100.846c6.659 16.694-1.774 35.735-18.777 41.939-16.363 5.971-34.487-2.671-40.941-18.85l-20.04-50.237c-2.448-6.136.542-13.094 6.678-15.541l18.624-7.429c16.421-6.551 35.043 1.451 41.593 17.872z" fill="#68c0e0"/><g><path d="m350.919 453.281-55.299-138.623 26.324-10.501-3.2-8.022-46.432 18.523 55.299 138.623c14.31 35.871 51.266 56.063 87.913 50.759-28.096-4.052-53.354-22.554-64.605-50.759z" fill="#3282a1"/></g><path d="m204.129 8.822c-26.35 10.511-40.431 39.295-32.556 66.549l54.84 189.807c1.173 4.06 4.362 7.225 8.43 8.368l34.313 9.641c2.891.812 5.239 2.924 6.352 5.713l8.425 21.12 34.81-13.886z" fill="#cdcdc6"/></g><g><path d="m48.349 351.678-16.29 40.835c-16.753 41.997 3.784 89.795 45.781 106.548 41.998 16.754 89.796-3.784 106.549-45.781l55.299-138.624-46.432-18.523-8.626 21.623-29.733-11.861c-41.997-16.752-89.794 3.785-106.548 45.783zm44.72 22.817c6.551-16.421 25.173-24.422 41.593-17.872l18.624 7.429c6.136 2.448 9.125 9.406 6.678 15.541l-20.04 50.237c-6.454 16.179-24.578 24.821-40.941 18.85-17.003-6.204-25.437-25.245-18.777-41.939z" fill="#68c0e0"/><path d="m101.149 499.062c-41.997-16.753-62.535-64.551-45.781-106.549l16.29-40.835c11.252-28.205 36.51-46.708 64.605-50.759-36.647-5.305-73.604 14.888-87.914 50.759l-16.29 40.835c-16.753 41.997 3.784 89.795 45.781 106.549 13.793 5.502 28.206 6.959 41.945 4.978-6.259-.907-12.509-2.534-18.636-4.978z" fill="#3282a1"/><path d="m307.871 8.822c26.35 10.511 40.431 39.295 32.556 66.549l-54.84 189.807c-1.173 4.06-4.362 7.225-8.43 8.368l-34.313 9.641c-2.891.812-5.239 2.924-6.352 5.713l-8.425 21.12-34.81-13.886z" fill="#cdcdc6"/></g></g><g><g fill="none"><path d="m226.214 314.665-30.166-12.034-6.773 16.979c-1.023 2.564-3.934 3.814-6.497 2.792l-29.733-11.861c-9.203-3.671-18.839-5.504-28.472-5.504-10.329 0-20.652 2.106-30.442 6.313-18.92 8.13-33.53 23.11-41.138 42.182l-16.29 40.835c-15.732 39.437 3.553 84.32 42.99 100.052 19.072 7.609 39.995 7.321 58.915-.809 18.92-8.129 33.53-23.109 41.138-42.181l53.447-133.979-6.977-2.783c0-.002-.001-.002-.002-.002zm-61.607 66.781-20.041 50.237c-5.864 14.699-20.172 23.856-35.042 23.856-4.098 0-8.238-.695-12.257-2.162-9.481-3.46-16.975-10.443-21.1-19.663-4.127-9.225-4.343-19.462-.608-28.826l12.864-32.247c3.663-9.183 10.683-16.389 19.766-20.292 9.083-3.902 19.143-4.035 28.325-.372l18.624 7.429c4.208 1.679 7.511 4.896 9.299 9.058 1.789 4.164 1.849 8.774.17 12.982z"/><path d="m280.783 263.791 54.84-189.807c6.726-23.278-3.96-47.533-25.052-58.438l-110.818 277.797 4.441 1.771 21.081 8.41 6.573-16.476c1.677-4.206 5.282-7.449 9.643-8.674l34.313-9.641c2.421-.68 4.282-2.527 4.979-4.942zm-24.783-20.001c-3.047 0-5.517-2.47-5.517-5.517s2.47-5.517 5.517-5.517 5.517 2.47 5.517 5.517-2.47 5.517-5.517 5.517z"/><path d="m459.007 353.531c-7.608-19.072-22.217-34.052-41.138-42.182-18.919-8.129-39.842-8.417-58.914-.809l-29.733 11.861c-2.564 1.023-5.474-.226-6.497-2.792l-6.773-16.979-30.166 12.034c-.001 0-.001 0-.002 0l-6.977 2.783 53.447 133.979c7.608 19.071 22.218 34.051 41.138 42.181 18.92 8.129 39.844 8.417 58.915.809 39.437-15.732 58.722-60.615 42.99-100.052zm-23.175 80.184c-4.125 9.22-11.618 16.203-21.1 19.663-4.018 1.466-8.16 2.162-12.257 2.162-14.872 0-29.178-9.156-35.042-23.856l-20.041-50.237c-1.679-4.208-1.618-8.818.17-12.98 1.788-4.163 5.091-7.379 9.299-9.058l18.624-7.429c9.182-3.663 19.242-3.532 28.325.372 9.083 3.903 16.103 11.109 19.766 20.292l12.864 32.247c3.735 9.361 3.518 19.599-.608 28.824z"/></g><path d="m423.576 372.642c-3.663-9.183-10.683-16.389-19.766-20.292s-19.143-4.035-28.325-.372l-18.624 7.429c-4.208 1.679-7.511 4.896-9.299 9.058-1.789 4.162-1.849 8.772-.17 12.98l20.041 50.237c5.864 14.7 20.17 23.856 35.042 23.856 4.097 0 8.239-.696 12.257-2.162 9.481-3.46 16.975-10.443 21.1-19.663 4.127-9.225 4.343-19.462.608-28.826zm3.127 56.989c-3.011 6.73-8.479 11.828-15.399 14.353-13.573 4.954-29.086-2.227-34.583-16.005l-20.041-50.237c-.689-1.727-.664-3.619.07-5.327s2.089-3.029 3.816-3.718l18.624-7.429c3.24-1.292 6.628-1.938 10.014-1.938 3.618 0 7.233.737 10.658 2.209 6.629 2.848 11.752 8.107 14.425 14.809l12.864 32.247c2.725 6.829 2.566 14.301-.448 21.036z"/><path d="m484.585 390.661-16.29-40.835c-8.598-21.553-25.104-38.48-46.478-47.664-21.374-9.185-45.015-9.507-66.567-.909l-25.089 10.008-6.773-16.979-23.781-59.613 45.624-157.91c8.627-29.861-6.638-61.064-35.508-72.581-1.232-.491-2.608-.473-3.826.05-1.219.523-2.179 1.509-2.67 2.741l-47.227 118.387-47.227-118.386c-.491-1.232-1.452-2.218-2.67-2.741s-2.594-.542-3.826-.05c-28.87 11.517-44.135 42.72-35.508 72.581l45.624 157.91-23.781 59.613-6.773 16.979-25.089-10.008c-21.552-8.598-45.193-8.275-66.567.909-21.375 9.184-37.88 26.111-46.478 47.664l-16.29 40.835c-17.775 44.558 4.015 95.27 48.573 113.045 10.404 4.15 21.292 6.222 32.179 6.222 11.667 0 23.332-2.38 34.389-7.13 21.374-9.184 37.88-26.111 46.478-47.664l55.3-138.624c1.023-2.565-.227-5.474-2.792-6.497l-6.978-2.784 6.573-16.477c.532-1.334 1.676-2.363 3.06-2.752l11.803-3.316 11.804 3.316c1.384.389 2.528 1.418 3.06 2.752l6.573 16.476-6.978 2.784c-2.565 1.023-3.815 3.932-2.792 6.497l55.3 138.624c8.598 21.552 25.104 38.479 46.478 47.664 11.058 4.751 22.721 7.13 34.389 7.13 10.886 0 21.776-2.072 32.179-6.222 44.557-17.775 66.347-68.487 48.572-113.045zm-308.209-316.677c-6.726-23.278 3.96-47.533 25.052-58.438l49.189 123.305-32.187 80.685zm3.37 377.444c-7.608 19.071-22.218 34.051-41.138 42.181s-39.843 8.417-58.915.809c-39.437-15.732-58.722-60.615-42.99-100.052l16.29-40.835c7.608-19.072 22.217-34.052 41.138-42.182 9.79-4.207 20.114-6.313 30.442-6.313 9.632 0 19.269 1.833 28.472 5.504l29.733 11.861c2.563 1.023 5.473-.227 6.497-2.792l6.773-16.979 30.166 12.034h.002l6.977 2.783zm61.745-173.054c-4.361 1.226-7.966 4.468-9.643 8.674l-6.573 16.476-21.081-8.41-4.441-1.771 110.819-277.798c21.091 10.905 31.777 35.161 25.052 58.438l-54.84 189.807c-.697 2.415-2.559 4.262-4.979 4.942zm38.661 8.675c-1.245-3.123-3.556-5.709-6.446-7.339l4.803-1.35c5.775-1.622 10.216-6.031 11.881-11.794l4.694-16.246 17.162 43.022-4.441 1.771-21.081 8.41zm152.155 207.368c-19.071 7.608-39.995 7.321-58.915-.809-18.92-8.129-33.53-23.109-41.138-42.181l-53.447-133.979 6.977-2.783h.002l30.166-12.034 6.773 16.979c1.023 2.565 3.932 3.814 6.497 2.792l29.733-11.861c19.072-7.608 39.995-7.321 58.914.809 18.92 8.13 33.53 23.11 41.138 42.182l16.29 40.835c15.732 39.435-3.553 84.319-42.99 100.05z"/><path d="m155.138 359.408-18.624-7.429c-9.182-3.664-19.241-3.53-28.325.372-9.083 3.903-16.103 11.109-19.766 20.292l-12.864 32.247c-3.735 9.363-3.519 19.601.608 28.826 4.125 9.22 11.618 16.203 21.1 19.663 4.019 1.466 8.159 2.162 12.257 2.162 14.87 0 29.178-9.157 35.042-23.856l20.041-50.237c1.679-4.208 1.618-8.818-.17-12.98-1.788-4.164-5.091-7.381-9.299-9.06zm.181 18.333-20.041 50.237c-5.497 13.777-21.01 20.958-34.583 16.005-6.919-2.525-12.388-7.622-15.399-14.353-3.014-6.735-3.173-14.207-.448-21.037l12.864-32.247c2.673-6.701 7.796-11.96 14.425-14.809s13.97-2.944 20.672-.271l18.624 7.429c1.727.689 3.083 2.009 3.816 3.718.734 1.709.759 3.601.07 5.328z"/><path d="m256 232.756c-3.047 0-5.517 2.47-5.517 5.517s2.47 5.517 5.517 5.517 5.517-2.47 5.517-5.517-2.47-5.517-5.517-5.517z"/></g></g></g></svg>