<svg id="Capa_1" enable-background="new 0 0 512 512" height="512" viewBox="0 0 512 512" width="512" xmlns="http://www.w3.org/2000/svg"><g><g><g><path d="m494.5 256c0 2.51 9.89 7.5 9.89 7.5-1.87 62.96-27.16 120.03-67.45 162.83 0 0-9.711-4.008-11.289-2.419-1.948 1.96.679 13.029.679 13.029-8.11 7.63-16.73 14.73-25.81 21.22-154.54 22.193-302.607-113.502-302.607-248.982 0-70.01 64.824-164.561 143.687-201.268 2.29-.13 4.59-.23 6.9-.3 0 0 4.99 7.694 7.5 7.694s7.5-7.694 7.5-7.694c62.96 1.87 120.03 27.16 162.83 67.45 0 0-2.57 10.493-1.132 11.914 2.12 2.096 11.742-1.304 11.742-1.304 40.29 42.8 65.58 99.87 67.45 162.83 0 0-9.89 4.99-9.89 7.5z" fill="#f9ee80"/><path d="m400.52 458.16c-38.83 27.81-85.99 44.71-137.02 46.23 0 0-4.99-9.89-7.5-9.89s-7.5 9.89-7.5 9.89c-62.96-1.87-120.03-27.16-162.83-67.45 0 0 1.474-9.926-.446-11.856-1.607-1.616-10.163 1.246-10.163 1.246-40.291-42.8-65.581-99.87-67.451-162.83 0 0 10.942-4.785 10.942-7.295s-10.942-7.705-10.942-7.705c1.87-62.96 27.16-120.03 67.45-162.83 0 0 9.902 3.546 11.793 1.662 1.653-1.647-1.183-12.272-1.183-12.272 41.23-38.81 95.71-63.71 155.93-67.15-43.5 48.16-69.98 111.97-69.98 181.98 0 135.48 99.18 247.79 228.9 268.27z" fill="#f9d171"/></g><g><path d="m454.5 256c0 81.83-49.77 152.25-120.63 182.58-108.456-20.606-186.251-129.553-186.251-240.652 0-45.04 10.079-80.94 54.371-132.958 17.18-4.87 35.3-7.47 54.01-7.47 109.45 0 198.5 89.05 198.5 198.5z" fill="#fab658"/><path d="m333.87 438.58c-23.92 10.25-50.25 15.92-77.87 15.92-109.45 0-198.5-89.05-198.5-198.5 0-90.74 61.2-167.45 144.49-191.03-19.41 37.39-30.37 79.88-30.37 124.92 0 111.1 66.71 206.63 162.25 248.69z" fill="#ff9c20"/></g><g><path d="m407.92 226.58c-11.28 18.13-27.18 39.53-47.18 61.62-3.86 4.26-5.77 9.94-5.24 15.67 2.33 25.33 3.27 47.95 3.01 66.65-.19 13.77-13.74 23.37-26.82 19.04-20.31-6.71-42.66-13.72-68.19-23.89-4.81-1.92-10.19-1.92-15 0-3.12 1.24-6.18 2.44-9.21 3.59-51.343-34.597-83.952-83.998-83.952-152.748 0-2.8 0-11.889 16.412-34.992 4.02-.85 8.11-1.68 12.27-2.5 5.95-1.18 11.06-4.91 14-10.22 14.39-26.02 29.23-49.02 42.18-64.82 8.18-9.97 23.42-9.97 31.6 0 12.95 15.8 27.79 38.8 42.18 64.82 2.94 5.31 8.05 9.04 14 10.22 27 5.31 51.45 11.33 69.33 17.54 12.34 4.28 17.5 18.93 10.61 30.02z" fill="#f9ee80"/><path d="m239.29 369.26c-21.75 8.29-41.15 14.41-58.98 20.3-13.08 4.33-26.63-5.27-26.82-19.04-.26-18.7.68-41.32 3.01-66.65.53-5.73-1.38-11.41-5.24-15.67-20.01-22.09-35.9-43.49-47.18-61.62-6.89-11.09-1.73-25.74 10.61-30.02 15.13-5.25 34.96-10.37 57.06-15.04-.09 2.78-.13 5.57-.13 8.37 0 68.75 25.54 131.53 67.67 179.37z" fill="#f9d171"/></g><g><path d="m206.043 248.795c-.04 12.848-13.152 23.222-29.285 23.171s-29.179-10.506-29.139-23.354 13.151-23.222 29.285-23.172c16.133.051 29.179 10.507 29.139 23.355z" fill="#ffa1ac"/><path d="m305.957 249.108c-.04 12.848 13.006 23.304 29.139 23.354 16.133.051 29.245-10.323 29.285-23.171s-13.006-23.304-29.139-23.355c-16.133-.05-29.245 10.324-29.285 23.172z" fill="#ffa1ac"/><path d="m279.608 231.151c.046-14.555-10.495-15.956-23.502-15.997s-23.556 1.294-23.602 15.849c-.045 14.555 10.462 26.387 23.469 26.428 13.008.042 23.589-11.725 23.635-26.28z" fill="#666667"/></g></g><g><path d="m437.019 74.981c-48.353-48.352-112.64-74.981-181.019-74.981-87.089 0-167.426 43.674-214.901 116.827-2.255 3.475-1.267 8.119 2.208 10.375 3.476 2.254 8.119 1.266 10.375-2.208 7.952-12.254 16.892-23.62 26.664-34.041l24.87 24.87c-32.64 35.085-53.225 81.529-55.065 132.678h-35.028c.985-32.701 8.411-64.221 22.131-93.794 1.743-3.757.11-8.216-3.647-9.96-3.758-1.741-8.216-.11-9.959 3.647-15.692 33.82-23.648 70.024-23.648 107.606 0 68.379 26.629 132.666 74.981 181.019 48.353 48.352 112.64 74.981 181.019 74.981s132.666-26.629 181.019-74.981c48.352-48.353 74.981-112.64 74.981-181.019s-26.629-132.666-74.981-181.019zm59.854 173.519h-35.023c-1.841-51.149-22.426-97.592-55.066-132.677l24.841-24.841c40.498 43.036 63.454 98.452 65.248 157.518zm-233.373-233.373c59.066 1.794 114.482 24.75 157.518 65.248l-24.841 24.841c-35.085-32.639-81.528-53.224-132.677-55.065zm-172.563 65.204c42.395-39.923 98.088-63.391 157.563-65.215v35.035c-51.149 1.841-97.592 22.426-132.677 55.065zm-40.786 183.169c1.841 51.149 22.426 97.592 55.065 132.677l-24.84 24.841c-40.499-43.036-63.455-98.452-65.249-157.518zm198.349 233.373c-59.066-1.794-114.482-24.75-157.518-65.248l24.841-24.841c35.085 32.639 81.529 53.225 132.677 55.065zm15 0v-35.013c19.173-.689 38.035-4.017 56.174-9.929 3.938-1.284 6.09-5.517 4.807-9.455-1.284-3.939-5.516-6.091-9.455-4.807-18.997 6.192-38.856 9.331-59.026 9.331-105.318 0-191-85.682-191-191s85.682-191 191-191 191 85.682 191 191c0 70.465-38.703 135.004-101.006 168.431-3.65 1.958-5.021 6.505-3.063 10.155 1.959 3.65 6.505 5.022 10.155 3.063 15.874-8.517 30.315-18.918 43.132-30.824l24.8 24.8c-43.036 40.498-98.452 63.454-157.518 65.248zm168.125-75.855-24.787-24.787c33.284-35.762 53.21-82.641 55.024-132.731h35.011c-1.794 59.066-24.75 114.482-65.248 157.518z"/><path d="m173.81 398.123c-5.698 0-11.292-1.768-16.12-5.205-7.311-5.205-11.575-13.331-11.699-22.294-.271-19.54.78-42.86 3.041-67.44.334-3.619-.879-7.243-3.33-9.947-18.769-20.721-35.364-42.4-47.99-62.694-4.502-7.246-5.449-16.012-2.6-24.053 2.844-8.026 9.083-14.228 17.12-17.015 17.28-6.001 41.604-12.162 70.34-17.813 3.772-.749 7.016-3.116 8.886-6.494 15.073-27.255 29.922-50.058 42.941-65.941 5.331-6.498 13.204-10.223 21.601-10.223s16.27 3.725 21.598 10.221c4.223 5.143 8.769 11.212 13.511 18.037 2.363 3.402 1.522 8.075-1.879 10.439-3.401 2.362-8.075 1.522-10.439-1.879-4.515-6.498-8.817-12.244-12.788-17.081-2.471-3.011-6.116-4.737-10.003-4.737s-7.533 1.726-10.001 4.734c-12.273 14.974-26.982 37.594-41.416 63.693-4.016 7.253-10.978 12.335-19.104 13.947-28.072 5.521-51.696 11.491-68.328 17.268-3.709 1.286-6.587 4.148-7.9 7.854-1.318 3.72-.881 7.774 1.2 11.123 8.477 13.625 23.405 35.193 46.368 60.543 5.264 5.808 7.87 13.607 7.15 21.396-2.213 24.06-3.244 46.833-2.979 65.855.057 4.133 2.025 7.881 5.399 10.283 3.394 2.417 7.608 3.05 11.564 1.742 3.018-.997 6.077-2 9.184-3.018 17.37-5.692 37.057-12.143 58.587-20.72 6.625-2.645 13.927-2.644 20.556.001 21.526 8.575 41.213 15.026 58.583 20.718 3.107 1.018 6.166 2.021 9.18 3.016 3.96 1.311 8.174.675 11.569-1.74 3.374-2.402 5.342-6.149 5.399-10.282.265-19.022-.765-41.796-2.979-65.859-.72-7.785 1.886-15.584 7.151-21.393 22.986-25.388 37.903-46.938 46.369-60.546 2.078-3.345 2.515-7.399 1.197-11.119-1.313-3.706-4.191-6.568-7.896-7.853-16.636-5.778-40.259-11.749-68.32-17.267-8.138-1.614-15.1-6.696-19.114-13.946-3.373-6.097-6.759-12.008-10.065-17.57-2.117-3.561-.946-8.163 2.614-10.279 3.562-2.117 8.163-.945 10.279 2.614 3.386 5.696 6.85 11.742 10.296 17.972 1.869 3.375 5.112 5.743 8.896 6.494 28.724 5.649 53.049 11.81 70.332 17.812 8.033 2.786 14.273 8.988 17.117 17.014 2.849 8.041 1.902 16.807-2.597 24.049-12.609 20.266-29.203 41.945-47.99 62.696-2.453 2.707-3.667 6.331-3.332 9.946 2.261 24.583 3.312 47.904 3.041 67.445-.124 8.963-4.388 17.089-11.699 22.293-7.331 5.22-16.434 6.591-24.978 3.762-2.999-.991-6.046-1.989-9.142-3.004-17.578-5.76-37.501-12.289-59.467-21.039-3.047-1.216-6.4-1.217-9.444-.001-21.971 8.752-41.894 15.281-59.472 21.041-3.096 1.015-6.143 2.013-9.146 3.005-2.915.963-5.898 1.439-8.852 1.439z"/><g><path d="m256.042 264.932c-.031 0-.062 0-.093 0-8.455-.026-16.344-3.681-22.214-10.291-5.659-6.372-8.76-14.775-8.732-23.661.074-23.422 21.821-23.354 31.125-23.326 8.11.025 14.62.61 20.036 3.377 5.013 2.562 10.98 8.136 10.943 20.143-.028 8.886-3.181 17.269-8.88 23.605-5.888 6.55-13.765 10.153-22.185 10.153zm-.377-42.278c-14.998 0-15.643 2.586-15.661 8.373-.016 5.193 1.741 10.042 4.948 13.654 2.996 3.373 6.918 5.238 11.045 5.251h.043c4.111 0 8.028-1.839 11.035-5.182 3.229-3.591 5.017-8.429 5.033-13.622.017-5.315-1.727-6.207-2.769-6.739-2.936-1.5-8.349-1.718-13.256-1.734-.141-.001-.281-.001-.418-.001z"/><path d="m207.839 230.986c-.008 0-.016 0-.024 0-4.142-.013-7.489-3.382-7.476-7.524.005-1.71-.656-3.321-1.861-4.534s-2.812-1.884-4.522-1.89c-.007 0-.014 0-.02 0-3.522 0-6.394 2.859-6.404 6.384-.013 4.134-3.369 7.477-7.5 7.477-.008 0-.016 0-.024 0-4.142-.013-7.489-3.381-7.477-7.523.037-11.779 9.632-21.337 21.403-21.337h.068c5.717.018 11.085 2.261 15.116 6.316 4.03 4.056 6.239 9.438 6.221 15.155-.013 4.134-3.369 7.476-7.5 7.476z"/><path d="m332.128 231.375c-.008 0-.016 0-.024 0-4.142-.013-7.489-3.381-7.477-7.523.011-3.531-2.853-6.413-6.385-6.424-.007 0-.014 0-.02 0-3.522 0-6.393 2.86-6.404 6.385-.013 4.134-3.369 7.476-7.5 7.476-.008 0-.016 0-.024 0-4.142-.013-7.489-3.382-7.476-7.524.038-11.779 9.633-21.337 21.403-21.337h.068c11.802.038 21.374 9.669 21.337 21.471-.011 4.133-3.367 7.476-7.498 7.476z"/></g></g></g></svg>