<svg id="Layer_1" enable-background="new 0 0 500 500" viewBox="0 0 500 500" xmlns="http://www.w3.org/2000/svg"><g><g><path d="m319.89 324.282c-1.792 6.149-8.278 9.741-14.467 7.937-6.189-1.803-9.73-8.317-7.938-14.467.309-1.058.773-2.069 1.372-2.957-.027 5.049 3.289 9.713 8.381 11.196 5.092 1.484 10.394-.668 13.084-4.941.028 1.071-.124 2.174-.432 3.232z" fill="#a90000"/><path d="m320.322 321.05c-2.69 4.273-7.992 6.425-13.084 4.941s-8.408-6.147-8.381-11.196c2.662-4.324 7.964-6.475 13.096-4.98 5.131 1.495 8.446 6.158 8.369 11.235z" fill="#d55"/><path d="m320.322 321.05c-2.69 4.273-7.992 6.425-13.084 4.941s-8.408-6.147-8.381-11.196c2.662-4.324 7.964-6.475 13.096-4.98 5.131 1.495 8.446 6.158 8.369 11.235z" fill="#d40909"/><path d="m312.818 314.052c-1.249.305-2.981-.2-3.87-1.128s-.597-1.929.651-2.235c1.249-.306 2.982.199 3.87 1.128s.597 1.929-.651 2.235z" fill="#a90000"/></g><g><path d="m365.724 266.275c1.289 6.274-2.768 12.48-9.082 13.777s-12.488-2.808-13.777-9.082c-.222-1.079-.284-2.191-.169-3.256 2.335 4.477 7.445 7.051 12.64 5.984 5.196-1.067 8.878-5.446 9.259-10.482.526.934.907 1.981 1.129 3.059z" fill="#a90000"/><path d="m364.596 263.217c-.382 5.035-4.064 9.414-9.259 10.482-5.195 1.067-10.305-1.507-12.64-5.984.334-5.067 4.016-9.446 9.251-10.521 5.235-1.077 10.344 1.498 12.648 6.023z" fill="#d55"/><path d="m364.596 263.217c-.382 5.035-4.064 9.414-9.259 10.482-5.195 1.067-10.305-1.507-12.64-5.984.334-5.067 4.016-9.446 9.251-10.521 5.235-1.077 10.344 1.498 12.648 6.023z" fill="#d40909"/><path d="m354.691 260.535c-.961.854-2.729 1.217-3.949.811s-1.43-1.426-.468-2.28c.961-.853 2.729-1.216 3.949-.811 1.22.406 1.43 1.427.468 2.28z" fill="#a90000"/></g><g><path d="m153.595 266.839c-1.989 6.088-8.588 9.469-14.715 7.467s-9.457-8.626-7.467-14.715c.342-1.047.839-2.043 1.466-2.911-.189 5.045 2.974 9.813 8.016 11.461 5.041 1.647 10.41-.333 13.236-4.517-.008 1.07-.195 2.168-.536 3.215z" fill="#a90000"/><path d="m154.13 263.623c-2.826 4.184-8.195 6.164-13.236 4.517-5.042-1.647-8.205-6.415-8.016-11.461 2.8-4.236 8.168-6.216 13.249-4.556 5.08 1.661 8.244 6.428 8.003 11.5z" fill="#d55"/><path d="m154.13 263.623c-2.826 4.184-8.195 6.164-13.236 4.517-5.042-1.647-8.205-6.415-8.016-11.461 2.8-4.236 8.168-6.216 13.249-4.556 5.08 1.661 8.244 6.428 8.003 11.5z" fill="#d40909"/><path d="m146.855 256.387c-1.258.265-2.973-.296-3.832-1.252-.859-.957-.535-1.947.723-2.213 1.258-.265 2.973.295 3.832 1.252.858.957.535 1.947-.723 2.213z" fill="#a90000"/></g><g><path d="m379.38 125.723c0 17.072-13.841 30.89-30.89 30.89-17.072 0-30.89-13.817-30.89-30.89 0-2.315.241-4.558.748-6.704 3.038 13.841 15.385 24.186 30.142 24.186 14.734 0 27.104-10.345 30.142-24.186.507 2.146.748 4.389.748 6.704z" fill="#7bb85a"/><path d="m378.632 119.019c-3.038 13.841-15.409 24.186-30.142 24.186-14.757 0-27.104-10.345-30.142-24.186.458-2.074 1.109-4.076 1.977-5.957 4.823-10.754 15.626-18.23 28.165-18.23 12.515 0 23.342 7.476 28.165 18.23.868 1.881 1.519 3.883 1.977 5.957z" fill="#89d263"/><path d="m376.655 113.062c-1.374 2.532-3.81 4.944-7.306 6.969-1.568.916-3.232 1.688-5.04 2.339-11.381 4.196-26.718 3.4-36.677-2.339-3.497-2.026-5.932-4.413-7.307-6.969 4.823-10.754 15.626-18.23 28.165-18.23 12.515 0 23.342 7.476 28.165 18.23z" fill="#99e871"/></g><g><path d="m188.105 213.617c0 27.72-22.473 50.154-50.154 50.154-27.72 0-50.153-22.434-50.153-50.154 0-3.758.392-7.4 1.214-10.884 4.933 22.473 24.978 39.269 48.939 39.269 23.922 0 44.007-16.796 48.939-39.269.823 3.484 1.215 7.126 1.215 10.884z" fill="#7bb85a"/><path d="m186.891 202.733c-4.933 22.473-25.018 39.269-48.939 39.269-23.961 0-44.007-16.796-48.939-39.269.744-3.367 1.801-6.617 3.21-9.671 7.83-17.461 25.37-29.599 45.729-29.599 20.32 0 37.899 12.137 45.73 29.599 1.408 3.054 2.465 6.304 3.209 9.671z" fill="#89d263"/><path d="m183.681 193.062c-2.232 4.111-6.186 8.026-11.863 11.315-2.545 1.488-5.246 2.741-8.183 3.798-18.479 6.813-43.38 5.521-59.55-3.798-5.677-3.289-9.631-7.165-11.863-11.315 7.83-17.461 25.37-29.599 45.729-29.599 20.32 0 37.899 12.138 45.73 29.599z" fill="#99e871"/></g><g><path d="m269.972 271.646v191.914c0 2.922-1.927 5.845-5.782 8.083-7.741 4.477-20.269 4.477-27.978 0-3.855-2.238-5.782-5.161-5.782-8.083v-191.914z" fill="#946c45"/><path d="m264.178 279.746c-7.722 4.458-20.242 4.458-27.964 0s-7.723-11.687-.001-16.145 20.242-4.458 27.964 0c7.723 4.459 7.723 11.687.001 16.145z" fill="#c4996d"/></g><g><path d="m350.928 240.618c0 55.67-45.134 100.726-100.725 100.726-55.67 0-100.725-45.056-100.725-100.726 0-7.548.786-14.861 2.437-21.859 9.907 45.134 50.166 78.866 98.288 78.866 48.043 0 88.381-33.732 98.288-78.866 1.65 6.997 2.437 14.31 2.437 21.859z" fill="#7bb85a"/><path d="m348.49 218.759c-9.907 45.134-50.244 78.866-98.288 78.866-48.122 0-88.381-33.732-98.288-78.866 1.494-6.763 3.617-13.289 6.448-19.422 15.726-35.069 50.953-59.445 91.84-59.445 40.809 0 76.115 24.376 91.841 59.445 2.83 6.133 4.953 12.659 6.447 19.422z" fill="#89d263"/><path d="m342.043 199.337c-4.482 8.256-12.424 16.119-23.825 22.725-5.111 2.988-10.536 5.504-16.434 7.626-37.113 13.683-87.123 11.087-119.597-7.626-11.401-6.605-19.343-14.39-23.825-22.725 15.726-35.069 50.953-59.445 91.84-59.445 40.809 0 76.115 24.375 91.841 59.445z" fill="#99e871"/></g><g><path d="m187.556 202.344c-1.989 6.088-8.588 9.469-14.715 7.467s-9.457-8.626-7.467-14.715c.342-1.047.839-2.043 1.466-2.911-.19 5.045 2.974 9.813 8.015 11.461 5.042 1.647 10.41-.333 13.236-4.517-.006 1.07-.192 2.168-.535 3.215z" fill="#a90000"/><path d="m188.092 199.129c-2.827 4.184-8.195 6.164-13.236 4.517-5.041-1.648-8.205-6.415-8.015-11.461 2.8-4.236 8.168-6.216 13.249-4.556 5.079 1.66 8.243 6.427 8.002 11.5z" fill="#d55"/><path d="m188.092 199.129c-2.827 4.184-8.195 6.164-13.236 4.517-5.041-1.648-8.205-6.415-8.015-11.461 2.8-4.236 8.168-6.216 13.249-4.556 5.079 1.66 8.243 6.427 8.002 11.5z" fill="#d40909"/><path d="m180.817 191.892c-1.258.265-2.973-.295-3.832-1.252-.858-.957-.535-1.947.723-2.213 1.258-.265 2.973.295 3.832 1.252.858.957.535 1.947-.723 2.213z" fill="#a90000"/></g><g><path d="m383.832 138.409c-.326 6.397-5.809 11.388-12.246 11.06-6.438-.327-11.386-5.849-11.06-12.246.056-1.1.275-2.192.653-3.194 1.138 4.919 5.44 8.692 10.737 8.961 5.297.27 9.959-3.047 11.592-7.825.272 1.035.379 2.144.324 3.244z" fill="#a90000"/><path d="m383.507 135.165c-1.633 4.778-6.295 8.095-11.592 7.825-5.297-.269-9.599-4.042-10.737-8.961 1.593-4.821 6.256-8.138 11.593-7.867 5.338.272 9.639 4.045 10.736 9.003z" fill="#d55"/><path d="m383.507 135.165c-1.633 4.778-6.295 8.095-11.592 7.825-5.297-.269-9.599-4.042-10.737-8.961 1.593-4.821 6.256-8.138 11.593-7.867 5.338.272 9.639 4.045 10.736 9.003z" fill="#d40909"/><path d="m374.59 130.086c-1.145.586-2.947.494-4.026-.205-1.079-.698-1.026-1.739.118-2.325 1.145-.585 2.947-.494 4.026.205 1.08.699 1.026 1.74-.118 2.325z" fill="#a90000"/></g><g><path d="m275.739 51.144c-.326 6.397-5.809 11.388-12.246 11.06-6.438-.328-11.386-5.849-11.06-12.246.056-1.1.275-2.192.653-3.194 1.138 4.919 5.44 8.692 10.737 8.962s9.959-3.047 11.591-7.826c.274 1.035.381 2.144.325 3.244z" fill="#a90000"/><path d="m275.413 47.9c-1.632 4.779-6.294 8.095-11.591 7.826-5.297-.27-9.599-4.043-10.737-8.962 1.593-4.821 6.256-8.138 11.593-7.866 5.338.271 9.64 4.044 10.735 9.002z" fill="#d55"/><path d="m275.413 47.9c-1.632 4.779-6.294 8.095-11.591 7.826-5.297-.27-9.599-4.043-10.737-8.962 1.593-4.821 6.256-8.138 11.593-7.866 5.338.271 9.64 4.044 10.735 9.002z" fill="#d40909"/><path d="m266.497 42.821c-1.145.585-2.947.494-4.026-.205-1.079-.698-1.026-1.739.118-2.324 1.145-.585 2.947-.494 4.026.205 1.079.698 1.027 1.738-.118 2.324z" fill="#a90000"/></g><g><path d="m412.202 200.202c0 36.087-29.256 65.292-65.292 65.292-36.086 0-65.292-29.206-65.292-65.292 0-4.893.51-9.633 1.58-14.17 6.422 29.257 32.518 51.123 63.712 51.123 31.143 0 57.291-21.866 63.712-51.123 1.071 4.537 1.58 9.277 1.58 14.17z" fill="#7bb85a"/><path d="m410.622 186.033c-6.422 29.257-32.57 51.123-63.712 51.123-31.194 0-57.29-21.866-63.712-51.123.968-4.384 2.344-8.614 4.18-12.59 10.194-22.732 33.028-38.533 59.532-38.533 26.453 0 49.339 15.801 59.533 38.533 1.835 3.976 3.211 8.206 4.179 12.59z" fill="#89d263"/><path d="m406.443 173.443c-2.905 5.352-8.053 10.449-15.444 14.73-3.313 1.937-6.83 3.568-10.652 4.944-24.058 8.869-56.474 7.187-77.525-4.944-7.391-4.282-12.539-9.327-15.444-14.73 10.194-22.732 33.028-38.533 59.532-38.533 26.453 0 49.339 15.8 59.533 38.533z" fill="#99e871"/></g><g><path d="m344.01 103.544c0 31.301-25.377 56.633-56.633 56.633-31.301 0-56.633-25.332-56.633-56.633 0-4.244.442-8.355 1.37-12.29 5.57 25.377 28.206 44.342 55.262 44.342 27.012 0 49.692-18.966 55.262-44.342.93 3.935 1.372 8.047 1.372 12.29z" fill="#7bb85a"/><path d="m342.639 91.254c-5.57 25.377-28.249 44.342-55.262 44.342-27.056 0-49.692-18.966-55.262-44.342.84-3.802 2.034-7.472 3.625-10.92 8.842-19.717 28.648-33.423 51.637-33.423 22.945 0 42.795 13.706 51.637 33.423 1.592 3.449 2.786 7.118 3.625 10.92z" fill="#89d263"/><path d="m339.015 80.334c-2.52 4.642-6.985 9.063-13.396 12.777-2.874 1.68-5.925 3.095-9.24 4.288-20.867 7.693-48.984 6.234-67.243-4.288-6.411-3.714-10.876-8.09-13.396-12.777 8.842-19.717 28.648-33.423 51.637-33.423 22.945.001 42.796 13.706 51.638 33.423z" fill="#99e871"/></g><g><path d="m259.852 63.086c0 21.05-17.066 38.086-38.086 38.086-21.049 0-38.085-17.036-38.085-38.086 0-2.854.297-5.619.921-8.265 3.746 17.066 18.969 29.82 37.164 29.82 18.166 0 33.418-12.755 37.165-29.82.624 2.646.921 5.411.921 8.265z" fill="#7bb85a"/><path d="m258.931 54.821c-3.746 17.066-18.998 29.82-37.165 29.82-18.195 0-33.418-12.755-37.164-29.82.565-2.557 1.368-5.025 2.438-7.344 5.947-13.26 19.266-22.477 34.726-22.477 15.431 0 28.781 9.217 34.727 22.477 1.07 2.319 1.873 4.787 2.438 7.344z" fill="#89d263"/><path d="m256.493 47.477c-1.695 3.122-4.698 6.095-9.009 8.593-1.933 1.13-3.984 2.081-6.214 2.884-14.033 5.174-32.942 4.192-45.222-2.884-4.311-2.498-7.314-5.441-9.008-8.593 5.947-13.26 19.266-22.477 34.726-22.477 15.431 0 28.781 9.217 34.727 22.477z" fill="#99e871"/></g><g><path d="m253.397 139.892c0 36.087-29.257 65.292-65.293 65.292-36.086 0-65.292-29.206-65.292-65.292 0-4.893.51-9.633 1.58-14.169 6.422 29.256 32.519 51.122 63.712 51.122 31.143 0 57.291-21.866 63.712-51.122 1.071 4.535 1.581 9.276 1.581 14.169z" fill="#7bb85a"/><path d="m251.817 125.723c-6.422 29.256-32.57 51.122-63.712 51.122-31.193 0-57.29-21.866-63.712-51.122.969-4.384 2.344-8.614 4.18-12.59 10.194-22.732 33.029-38.533 59.532-38.533 26.454 0 49.339 15.801 59.533 38.533 1.834 3.975 3.21 8.206 4.179 12.59z" fill="#89d263"/><path d="m247.637 113.132c-2.905 5.352-8.053 10.449-15.444 14.731-3.313 1.937-6.83 3.568-10.653 4.944-24.058 8.869-56.474 7.187-77.525-4.944-7.391-4.282-12.538-9.328-15.444-14.731 10.194-22.732 33.029-38.533 59.532-38.533 26.455 0 49.34 15.801 59.534 38.533z" fill="#99e871"/></g><g><g><path d="m220.434 286.57c-3.442 5.402-10.674 7.035-16.111 3.572s-7.013-10.708-3.571-16.111c.592-.928 1.322-1.77 2.145-2.455-1.439 4.84.439 10.245 4.912 13.095s10.165 2.267 13.944-1.082c-.273 1.035-.727 2.052-1.319 2.981z" fill="#a90000"/><path d="m221.753 283.589c-3.779 3.349-9.471 3.931-13.944 1.082-4.473-2.85-6.351-8.255-4.912-13.095 3.766-3.406 9.458-3.988 13.966-1.116 4.507 2.871 6.385 8.276 4.89 13.129z" fill="#d55"/><path d="m221.753 283.589c-3.779 3.349-9.471 3.931-13.944 1.082-4.473-2.85-6.351-8.255-4.912-13.095 3.766-3.406 9.458-3.988 13.966-1.116 4.507 2.871 6.385 8.276 4.89 13.129z" fill="#d40909"/><path d="m216.507 274.769c-1.284-.056-2.807-1.026-3.4-2.166-.594-1.14-.034-2.02 1.25-1.963 1.284.056 2.807 1.026 3.4 2.166.594 1.141.034 2.019-1.25 1.963z" fill="#a90000"/></g><g><path d="m290.38 252.203c.067 6.405-5.099 11.723-11.545 11.791s-11.723-5.14-11.79-11.545c-.012-1.101.14-2.204.456-3.228 1.438 4.84 5.963 8.342 11.266 8.286 5.304-.056 9.754-3.652 11.09-8.522.337 1.017.512 2.117.523 3.218z" fill="#a90000"/><path d="m289.857 248.986c-1.336 4.869-5.786 8.466-11.09 8.522-5.303.055-9.828-3.446-11.266-8.286 1.295-4.91 5.745-8.506 11.089-8.563 5.345-.057 9.869 3.445 11.267 8.327z" fill="#d55"/><path d="m289.857 248.986c-1.336 4.869-5.786 8.466-11.09 8.522-5.303.055-9.828-3.446-11.266-8.286 1.295-4.91 5.745-8.506 11.089-8.563 5.345-.057 9.869 3.445 11.267 8.327z" fill="#d40909"/><path d="m280.646 244.463c-1.106.654-2.911.674-4.031.042-1.12-.631-1.131-1.673-.024-2.327s2.911-.673 4.031-.042c1.119.631 1.131 1.673.024 2.327z" fill="#a90000"/></g><g><path d="m232.955 203.682c-1.792 6.149-8.278 9.741-14.467 7.937-6.189-1.803-9.73-8.317-7.938-14.467.309-1.058.773-2.069 1.372-2.957-.027 5.049 3.289 9.713 8.381 11.196 5.092 1.484 10.394-.668 13.084-4.941.028 1.071-.124 2.175-.432 3.232z" fill="#a90000"/><path d="m233.387 200.451c-2.69 4.273-7.992 6.425-13.084 4.941s-8.407-6.147-8.381-11.196c2.662-4.324 7.964-6.475 13.096-4.98 5.13 1.495 8.446 6.158 8.369 11.235z" fill="#d55"/><path d="m233.387 200.451c-2.69 4.273-7.992 6.425-13.084 4.941s-8.407-6.147-8.381-11.196c2.662-4.324 7.964-6.475 13.096-4.98 5.13 1.495 8.446 6.158 8.369 11.235z" fill="#d40909"/><path d="m225.882 193.452c-1.249.305-2.981-.2-3.87-1.128s-.597-1.929.651-2.235c1.249-.306 2.982.199 3.87 1.128.889.929.598 1.93-.651 2.235z" fill="#a90000"/></g><g><path d="m287.169 164.461c1.289 6.274-2.768 12.481-9.082 13.777-6.314 1.297-12.488-2.809-13.777-9.083-.221-1.079-.283-2.191-.169-3.256 2.335 4.477 7.446 7.051 12.641 5.984s8.877-5.446 9.259-10.481c.526.934.907 1.981 1.128 3.059z" fill="#a90000"/><path d="m286.042 161.403c-.382 5.035-4.064 9.414-9.259 10.481s-10.306-1.507-12.641-5.984c.334-5.066 4.016-9.446 9.251-10.521s10.345 1.499 12.649 6.024z" fill="#d55"/><path d="m286.042 161.403c-.382 5.035-4.064 9.414-9.259 10.481s-10.306-1.507-12.641-5.984c.334-5.066 4.016-9.446 9.251-10.521s10.345 1.499 12.649 6.024z" fill="#d40909"/><path d="m276.137 158.721c-.961.853-2.73 1.216-3.949.811-1.22-.405-1.43-1.426-.468-2.28.961-.854 2.729-1.217 3.949-.811s1.429 1.427.468 2.28z" fill="#a90000"/></g><g><path d="m210.355 122.674c1.289 6.274-2.768 12.48-9.082 13.777s-12.488-2.809-13.777-9.082c-.221-1.079-.283-2.191-.169-3.256 2.335 4.477 7.445 7.051 12.641 5.984 5.195-1.067 8.877-5.446 9.26-10.481.524.933.906 1.979 1.127 3.058z" fill="#a90000"/><path d="m209.227 119.615c-.382 5.035-4.064 9.414-9.26 10.481s-10.306-1.507-12.641-5.984c.334-5.066 4.016-9.446 9.251-10.521 5.237-1.075 10.346 1.499 12.65 6.024z" fill="#d55"/><path d="m209.227 119.615c-.382 5.035-4.064 9.414-9.26 10.481s-10.306-1.507-12.641-5.984c.334-5.066 4.016-9.446 9.251-10.521 5.237-1.075 10.346 1.499 12.65 6.024z" fill="#d40909"/><path d="m199.323 116.934c-.961.854-2.73 1.217-3.949.811-1.22-.406-1.43-1.426-.468-2.28.961-.853 2.729-1.216 3.949-.811 1.219.405 1.428 1.426.468 2.28z" fill="#a90000"/></g><g><path d="m304.703 92.487c1.288 6.274-2.768 12.481-9.082 13.777-6.315 1.297-12.489-2.809-13.777-9.083-.221-1.079-.283-2.191-.169-3.256 2.336 4.477 7.446 7.051 12.641 5.984s8.877-5.447 9.259-10.481c.525.934.906 1.98 1.128 3.059z" fill="#a90000"/><path d="m303.575 89.429c-.382 5.035-4.064 9.414-9.259 10.481s-10.305-1.507-12.641-5.984c.334-5.066 4.016-9.446 9.251-10.521s10.345 1.499 12.649 6.024z" fill="#d55"/><path d="m303.575 89.429c-.382 5.035-4.064 9.414-9.259 10.481s-10.305-1.507-12.641-5.984c.334-5.066 4.016-9.446 9.251-10.521s10.345 1.499 12.649 6.024z" fill="#d40909"/><path d="m293.67 86.747c-.961.853-2.729 1.216-3.949.811-1.22-.406-1.429-1.427-.468-2.28s2.729-1.216 3.949-.811c1.219.406 1.429 1.427.468 2.28z" fill="#a90000"/></g><g><path d="m377.519 209.31c-.858 6.348-6.737 10.864-13.126 10.001-6.388-.863-10.859-6.778-10.001-13.126.147-1.091.457-2.161.917-3.128.725 4.997 4.697 9.115 9.953 9.825s10.178-2.206 12.203-6.832c.187 1.055.202 2.168.054 3.26z" fill="#a90000"/><path d="m377.465 206.051c-2.025 4.625-6.947 7.542-12.203 6.832s-9.228-4.828-9.953-9.825c1.99-4.672 6.912-7.589 12.209-6.873 5.296.715 9.268 4.833 9.947 9.866z" fill="#d55"/><path d="m377.465 206.051c-2.025 4.625-6.947 7.542-12.203 6.832s-9.228-4.828-9.953-9.825c1.99-4.672 6.912-7.589 12.209-6.873 5.296.715 9.268 4.833 9.947 9.866z" fill="#d40909"/><path d="m369.003 200.246c-1.189.488-2.977.247-3.995-.54-1.017-.786-.878-1.818.311-2.306s2.978-.246 3.995.54c1.018.786.879 1.818-.311 2.306z" fill="#a90000"/></g><g><path d="m131.748 216.779c-2.362 5.954-9.156 8.921-15.148 6.544s-8.906-9.194-6.544-15.148c.406-1.024.964-1.988 1.643-2.815-.501 5.024 2.362 9.978 7.293 11.934 4.93 1.956 10.41.311 13.49-3.69-.073 1.067-.328 2.151-.734 3.175z" fill="#a90000"/><path d="m132.481 213.603c-3.079 4.001-8.56 5.646-13.49 3.69-4.93-1.955-7.793-6.909-7.293-11.934 3.056-4.055 8.537-5.699 13.505-3.729 4.969 1.971 7.832 6.926 7.278 11.973z" fill="#d55"/><path d="m132.481 213.603c-3.079 4.001-8.56 5.646-13.49 3.69-4.93-1.955-7.793-6.909-7.293-11.934 3.056-4.055 8.537-5.699 13.505-3.729 4.969 1.971 7.832 6.926 7.278 11.973z" fill="#d40909"/><path d="m125.667 205.931c-1.272.187-2.95-.479-3.747-1.486-.798-1.008-.414-1.977.858-2.164s2.949.479 3.747 1.486c.798 1.008.414 1.976-.858 2.164z" fill="#a90000"/></g></g></g></svg>