<svg id="Layer_1" enable-background="new 0 0 500 500" viewBox="0 0 500 500" xmlns="http://www.w3.org/2000/svg"><g><g><g enable-background="new"><g><g><g><g><path d="m282.948 471.988-18.293-10.63c-7.137-4.148-10.448-11.186-10.763-11.857l18.292 10.63c.316.671 3.626 7.709 10.764 11.857z" fill="#996b3e"/></g></g></g></g><g><g><g><g><path d="m272.184 460.132-18.292-10.63 9.352-38.298 18.292 10.629z" fill="#996b3e"/></g></g></g></g><g><g><g><g><path d="m281.536 421.833-18.292-10.63c2.543-10.337 3.511-20.337 2.656-29.189l18.293 10.63c.854 8.853-.113 18.853-2.657 29.189z" fill="#996b3e"/></g></g></g></g><g><g><g><g><path d="m284.705 134.496 40.266-23.248c.108 38.081-12.8 51.352-12.761 65.156.04 13.804.79 278.534.829 292.467-.366.223-.725.435-1.086.643-27.804 16.053-39.171-8.11-39.769-9.382l9.352-38.299c2.544-10.336 3.511-20.336 2.656-29.188-5.894-59.248.192-248.204.513-258.149z" fill="#7f4d31"/></g></g></g></g><g><g><g><g><path d="m284.705 134.496-18.292-10.631 40.266-23.247 18.292 10.63z" fill="#c99666"/></g></g></g></g><g><g><g><g><path d="m284.193 392.646-18.293-10.63c-5.894-59.249.193-248.205.513-258.15l18.292 10.63c-.321 9.945-6.407 198.901-.512 258.15z" fill="#996b3e"/></g></g></g></g></g></g><g><g enable-background="new"><g><g><g><g><path d="m276.965 70.849-20.452-11.887 58.824-33.962 20.453 11.885z" fill="#5d7280"/></g></g></g></g><g><g><g><g><path d="m192.443 215.599 6.094 19.152-16.251 19.298-10.303-32.21c-10.446-33.083-10.591-74.725-.29-119.85l10.012-43.819 18.428 2.467-8.125 35.113c-10.158 45.124-10.158 86.766.435 119.849z" fill="#5d7280"/></g></g></g><g><g><g><path d="m335.943 109.823-62.537 36.129-74.869 88.799-6.094-19.152c-10.593-33.083-10.593-74.725-.435-119.85l8.125-35.113 76.9 10.157 12.334-7.11 46.43-26.843v5.659z" fill="#2c353b"/></g></g></g></g><g><g><g><g><path d="m181.725 58.129 74.788.833 20.452 11.887z" fill="#5d7280"/></g></g></g></g></g></g></g></svg>