<svg id="Layer_1" enable-background="new 0 0 500 500" viewBox="0 0 500 500" xmlns="http://www.w3.org/2000/svg"><g><g><path d="m110.044 163.997c-1.689.768-3.916 1.075-6.68.691-14.281-1.997-14.588-36.009-14.588-38.696 0-.077 0-.153 0-.153 10.212 3.839 27.639 23.571 27.639 23.571s1.153 11.44-6.371 14.587z" fill="#a46c41"/></g><g><path d="m112.538 151.158s-14.369-42.427-18.62-53.903c-4.249-11.475 13.713-57.528 26.011-72.255 0 0-14.96 59.08-18.36 66.305 0 0 20.994 46.608 18.36 54.118-2.633 7.511-7.391 5.735-7.391 5.735z" fill="#a46c41"/></g><g><path d="m110.044 163.997c-1.689.768-3.916 1.075-6.68.691-14.281-1.997-14.588-36.009-14.588-38.696.692 2.611 8.446 32.017 21.268 38.005z" fill="#854e31"/></g><g><path d="m422.976 362.166s2.188 13.463.763 15.956c-1.424 2.493-10.327 4.808-12.108 2.137-1.78-2.671 3.459-19.092 11.345-18.093z" fill="#854e31"/></g><g><path d="m398.856 406.421s-1.647 24.761 1.024 25.474c2.671.712 3.739-2.137 5.876-.89 2.136 1.246 4.629 2.849 8.19 2.315s3.476-19.397 3.476-19.397-16.919-6.624-18.566-7.502z" fill="#854e31"/></g><g><path d="m377.633 143.942s9.5-8.729 23.574 0c14.075 8.73 11.628 58.947 11.628 58.947s-43.961-36.565-35.202-58.947z" fill="#a46c41"/></g><g><path d="m188.223 312.011s17.263 107.15 14.882 116.079c0 0 13.096 4.763 17.263-2.976s-1.191-60.123 0-69.647c1.19-9.525 10.119-25.923 0-43.455-10.12-17.533-26.651-10.903-32.145-.001z" fill="#854e31"/></g><g><path d="m405.51 251.13s14.098 52.399 22.02 57.389c0 0-5.801 45.537-4.554 53.647 1.248 8.11-17.466 5.614-17.466 5.614l-14.558-78.599z" fill="#854e31"/></g><g><path d="m427.517 210.908c-.768 12.438-5.144 25.49-11.593 37.621-10.825 20.422-81.23 37.851-88.294 44.914-7.063 7.064-70.021 48.37-100.578 49.444-30.557.998-83.61-48.216-86.989-71.94-.614-4.529-1.766-9.75-3.301-15.355-2.457-9.136-5.758-19.194-9.137-28.868-5.527-15.892-11.286-30.711-13.819-38.695-4.991-15.893 11.44-55.97 40.385-30.25.077.077.077.077.077.077 6.296 5.528 28.561 30.941 35.701 38.849 7.217 7.908 32.246 19.348 38.389 17.658 6.142-1.612 24.262-8.676 40.539-18.119 16.2-9.52 32.707-13.052 40.231-16.814s31.017-32.324 53.974-36.93c22.88-4.607 51.978 25.797 60.423 44.07 3.378 7.448 4.606 15.739 3.992 24.338z" fill="#d49b6b"/></g><g><path d="m138.835 213.212c-3.916 3.225-7.601 8.215-11.21 13.512-5.527-15.892-11.286-30.711-13.819-38.695-4.991-15.893 11.44-55.97 40.385-30.25.077.077.077.077.077.077 22.341 31.401-4.069 45.912-15.433 55.356z" fill="#a46c41"/></g><g><path d="m126.704 208.298c-13.206 6.526-28.254 28.177-37.16 29.175-2.61.231-5.451-.307-8.062-1.535-6.296-2.764-11.133-8.906-7.524-13.589 5.22-6.527 18.887-35.702 20.73-41.844 1.92-6.142 5.528-33.398 26.565-37.083 24.415-4.376 33.014 14.434 33.014 14.434 14.665 35.701-14.357 43.839-27.563 50.442z" fill="#d49b6b"/></g><g><path d="m427.529 210.893s-2.5 76.69-20.931 93.337c0 0 2.5 45.781 10.466 53.51 0 0-2.614 50.537 0 55.294 2.615 4.756-6.898 4.162-14.628 0-7.729-4.162-6.54-49.943-6.54-56.483s-22.593-49.349-26.161-59.456-26.755-36.268-8.324-68.969c18.432-32.699 51.376-27.927 66.118-17.233z" fill="#a46c41"/></g><g><path d="m245.451 294.546c1.953 6.762 7.289 13.988 11.953 18.553 3.9 3.818 3.994 12.922 3.746 18.374-.285 6.271-1.801 17.076-.766 20.525 1.961 6.536-4.927 67.632-.352 73.514 4.575 5.883 4.575 24.837 3.268 28.105s-11.765 7.19-16.994 4.575c-5.229-2.614-7.19-50.981-8.497-61.439s-31.373-49.674-30.719-84.315c.235-12.475 4.624-19.694 10.144-23.826 9.418-7.047 24.954-5.367 28.217 5.934z" fill="#a46c41"/></g><g><path d="m427.517 210.908c-.768 12.438-5.144 25.49-11.593 37.621-10.825 20.422-81.23 37.851-88.294 44.914-7.063 7.064-70.021 48.37-100.578 49.444-30.557.998-83.61-48.216-86.989-71.94-.614-4.529-1.766-9.75-3.301-15.355 14.127 13.513 36.776 33.245 51.441 36.085 22.649 4.376 45.068-24.185 75.856-7.294 30.787 16.891 69.713-27.179 76.546-35.624 6.757-8.522 32.861-75.087 86.912-37.851z" fill="#a46c41"/></g><g><path d="m88.7 226.724c.691 5.221-5.682 2.611-4.607 6.527.538 1.689-.844 2.457-2.61 2.687-6.296-2.764-11.133-8.906-7.524-13.589 5.681.152 14.28.921 14.741 4.375z" fill="#37474f"/></g><g><path d="m127.518 180.771c-3.04-3.04-12.234 6.429-13.018 9.373-.784 2.943 8.559 5.704 13.018 4.43 4.459-1.275 5.734-8.07 0-13.803z" fill="#a46c41"/></g><g><path d="m125.015 190.102c0 1.075.461 1.996 1.229 2.534-.614.614-1.459.998-2.38.998-1.919 0-3.532-1.612-3.532-3.532 0-1.996 1.613-3.532 3.532-3.532.921 0 1.766.384 2.38.921-.768.538-1.229 1.536-1.229 2.611z" fill="#37474f"/></g><g><path d="m243.59 452.001c-.386-.17.528 19.703 3.253 21.854s4.446-.574 5.593 0c1.148.573 4.876 1.681 8.175.841s5.45-3.996 5.45-3.996l-2.008-21.512c0-.001-9.518 7.635-20.463 2.813z" fill="#854e31"/></g><g><path d="m203.105 428.09s-1.807 13.597 0 15.378 1.693-1.246 3.976 0 9.583 3.29 12.61.577 1.083-19.929 1.083-19.929z" fill="#854e31"/></g><g><path d="m173.155 132.98s-1.843 37.774-18.887 36.315c-1.152-.077-2.227-.23-3.225-.461-13.129-2.38-9.06-11.823-9.06-11.823s15.125-24.031 31.172-24.031z" fill="#a46c41"/></g><g><path d="m173.155 132.98s-1.843 37.774-18.887 36.315c-1.152-.077-2.227-.23-3.225-.461 2.303-9.98 22.112-35.854 22.112-35.854z" fill="#854e31"/></g><g><path d="m131.355 156.531s4.58-20.154 10.032-26.392 35.683-26.872 39.522-34.55c3.839-7.677-5.279-50.385 0-63.821 0 0 6.238 53.264 9.117 59.022s-18.235 26.392-24.473 30.711-24.281 23.344-24.167 31.671c.001 0 1.837 9.117-10.031 3.359z" fill="#a46c41"/></g><g><path d="m176.8 104.056s-32.573-11.901-35.413-35.703c0 0 9.106 15.301 15.884 16.151 0 0 3.154-18.283-.985-24.23 0 0 8.188 12.751 8.613 21.891 0 0-1.968 11.592 13.892 16.317z" fill="#a46c41"/></g><g><path d="m141.387 134.658s-5.235-8.926 0-18.701c0 0 1.835 11.051 5.236 13.176 3.4 2.125-5.236 5.525-5.236 5.525z" fill="#a46c41"/></g><g><path d="m99.41 76.043s-12.901-10.676-18.036-15.769-10.562-23.034-8.651-28.506c0 0 8.009 19.883 10.898 18.92s-.314-9.629 2.25-9.95.68 8.682 2.906 13.167 10.634 14.755 10.634 14.755v7.383z" fill="#a46c41"/></g><g><path d="m102.628 113.915s-12.581 3.21-16.757-1.605c0 0 11.356-.321 13.54-4.493 2.183-4.172 4.597 1.906 3.217 6.098z" fill="#a46c41"/></g></g></svg>