<svg id="Layer_1" enable-background="new 0 0 500 500" viewBox="0 0 500 500" xmlns="http://www.w3.org/2000/svg"><g><g><path d="m214.875 428.734c-1.808 0-3.27-1.463-3.27-3.271v-362.007c0-1.808 1.463-3.271 3.27-3.271 1.808 0 3.271 1.463 3.271 3.271v362.007c0 1.808-1.463 3.271-3.271 3.271z" fill="#587380"/></g><g><g enable-background="new"><g><path d="m222.263 470.265-8.083 4.735c-1.848-6.005-3.926-12.24-5.081-18.014l7.044-4.158 1.039-.577c.231.924.347 1.732.578 2.655l.115.116c1.155 4.966 2.886 10.162 4.388 15.243z" fill="#a46c41"/></g><g><path d="m228.845 421.42c-1.039.577-2.078 1.27-3.002 2.194-.231 0-.462.231-.577.462h-.116c-.115 0-.115.115-.115.115-1.386 1.27-2.656 2.656-3.811 4.272-.577.809-1.039 1.617-1.385 2.426-1.27 1.963-2.078 4.041-2.771 6.235 0 .116-.116.347-.116.462-.462 1.617-.693 3.349-.693 5.312-.116 2.887.23 6.005.923 9.354l-1.039.577-7.044 4.158c-1.155-4.966-1.385-9.585-.578-13.395 0-.577.231-1.155.346-1.732.462-1.501 1.04-3.002 1.732-4.387 0-.116.115-.231.115-.347.116-.231.231-.346.347-.577v-.115c.115-.231.115-.231.231-.347 0-.115.115-.231.231-.346.463-.924.924-1.732 1.501-2.541.115-.115.115-.115.115-.231.347-.231.462-.577.693-.808.924-1.27 1.963-2.31 3.002-3.234.231-.231.462-.462.809-.577.808-.693 1.617-1.27 2.424-1.847.578-.347 1.155-.693 1.732-1.04.116 0 .116-.115.231-.115h.116l3.464-2.078z" fill="#a46c41"/></g><g><path d="m220.601 412.48 8.139-4.729c12.678-7.368 27.079-10.351 38.648-17.099l-8.138 4.729c-11.571 6.748-25.971 9.731-38.649 17.099z" fill="#a46c41"/></g><g><path d="m267.661 390.494-8.139 4.729c-.091.053-.182.106-.273.157l8.138-4.729c.092-.052.183-.104.274-.157z" fill="#a46c41"/></g><g><path d="m281.988 404.645-8.139 4.729c5.563-3.233 10.724-8.008 12.881-17.644l8.139-4.729c-2.157 9.636-7.318 14.411-12.881 17.644z" fill="#a46c41"/></g><g><path d="m287.13 381.1 8.138-4.729c.432 3.898.2 7.498-.399 10.631l-8.139 4.729c.6-3.133.831-6.733.4-10.631z" fill="#a46c41"/></g><g><path d="m286.048 371.905 8.139-4.729c.36 3.093.796 5.72 1.082 9.195l-8.138 4.729c-.287-3.474-.723-6.101-1.083-9.195z" fill="#a46c41"/></g><g><path d="m287.284 196.374 8.139-4.729c.579 3.899.79 7.754.411 11.183-.378 3.091-.753 5.251-1.204 7.876-.827 5.038-1.8 9.907-2.774 14.691-4.116 19.007-8.3 36.447-3.56 57.343.437 2.035.432 3.898-.015 5.337-4.843 15.278-.771 37.57 3.223 61.175.943 5.975 1.886 11.95 2.682 17.925l-8.139 4.729c-.795-5.975-1.739-11.95-2.682-17.925-3.995-23.605-8.067-45.897-3.223-61.175.447-1.439.452-3.303.015-5.337-4.741-20.896-.556-38.336 3.56-57.343.973-4.784 1.947-9.652 2.774-14.691.451-2.624.826-4.784 1.204-7.875.379-3.429.168-7.285-.411-11.184z" fill="#a46c41"/></g><g><path d="m269.309 155.109 8.138-4.729c7.203 11.796 15.214 25.416 17.976 41.265l-8.139 4.729c-2.761-15.849-10.772-29.469-17.975-41.265z" fill="#a46c41"/></g><g><path d="m283.694 230.081c-4.041 19.053-8.313 36.489-3.58 57.39.462 2.079.462 3.926 0 5.312-4.85 15.243-.693 37.645 3.234 61.201.923 6.005 1.847 11.894 2.656 17.898.461 3.118.809 5.774 1.155 9.238.346 3.926.115 7.505-.462 10.623-.346 1.847-.924 3.464-1.617 4.965-.346 1.154-.809 2.194-1.386 3.118-.577 1.155-1.27 2.078-2.078 3.002-1.616 2.194-3.579 3.81-5.658 5.312-2.426 1.501-4.966 2.771-7.506 3.926-13.856 6.12-29.445 6.928-42.494 11.778-.23 0-.462.115-.693.231h-.116c-.115 0-.115.115-.115.115-.693.116-1.386.462-1.964.693-.346.231-.577.347-.923.462h-.116c-.115 0-.115.115-.231.115-.577.347-1.154.693-1.732 1.04-.923.462-1.731 1.155-2.424 1.731v.116c-.347.115-.577.347-.809.577-1.04.924-2.078 1.964-3.002 3.234-.231.231-.346.577-.693.808 0 .116 0 .116-.115.231-.461.809-1.155 1.616-1.501 2.541-.116.115-.231.231-.231.346-.115.115-.115.115-.231.347v.115c-.231.231-.347.462-.347.577 0 .116-.115.231-.115.347-.693 1.385-1.27 2.887-1.732 4.387-.115.578-.346 1.155-.346 1.732-.808 3.811-.577 8.429.578 13.395 1.155 5.773 3.233 12.008 5.081 18.014-2.541-6.005-5.427-12.01-7.506-18.361-2.079-6.235-3.118-12.817-2.54-18.36.346-2.887.923-5.542 1.847-7.968.462-1.385 1.039-2.771 1.617-4.041.346-.693.693-1.386 1.039-2.079.809-1.27 1.617-2.656 2.541-3.811.923-1.27 1.963-2.424 3.117-3.464.809-.924 1.732-1.617 2.772-2.31.807-.577 1.616-1.039 2.424-1.386.347-.346.693-.461 1.156-.693l2.655-1.617c.231-.115.462-.231.693-.346 2.078-1.04 4.156-2.079 6.351-2.887 1.617-.809 3.349-1.501 4.965-2.078 2.541-.924 5.081-1.964 7.622-2.887 2.886-1.155 5.658-2.194 8.429-3.349 2.771-1.27 5.312-2.425 7.852-3.926.809-.462 1.501-.924 2.31-1.385.461-.347.924-.693 1.27-.924.115-.116.115-.116.115-.116 4.503-3.464 7.968-7.852 8.776-13.164.116-1.731.231-3.464 0-5.311-.347-2.194-.808-5.427-1.385-8.199-.924-5.658-1.963-11.432-3.118-17.436-2.424-11.778-4.618-23.787-5.889-36.258-1.27-11.433-.923-22.864 1.271-32.679-2.194-12.471-2.425-24.019-1.155-34.065 1.386-10.854 3.696-20.439 6.121-29.445 1.154-4.504 2.309-9.007 3.233-13.626.462-2.194 1.04-4.735 1.386-6.582.347-1.617.231-3.349 0-5.427-.923-7.737-6.004-18.937-12.24-29.792-12.586-21.941-28.522-43.188-41.917-67.783v-.113c-1.154-1.964-2.194-4.042-3.117-6.121-.578-1.27-1.155-2.54-1.732-3.811-.924-2.309-1.847-4.503-2.54-6.697-.346-.924-.693-1.732-.924-2.541-.231-.808-.577-1.617-.809-2.424-.693-2.194-1.385-4.388-1.963-6.698-.809-3.349-1.386-6.697-1.617-9.931-.693-6.236.462-11.547 2.54-15.474 2.194-3.81 5.081-6.466 7.506-9.699-3.695 7.852-7.968 15.705-5.312 27.02.347 1.501.693 3.002 1.155 4.619.577 2.194 1.386 4.388 2.194 6.582.462 1.385.923 2.655 1.501 4.041.923 2.194 1.847 4.272 2.772 6.467.693 1.154 1.27 2.309 1.847 3.579 1.04 1.963 2.194 3.927 3.349 5.889.462.693.807 1.386 1.27 2.078 13.394 21.478 30.369 41.34 45.15 65.127 7.275 11.778 15.243 25.404 18.014 41.224.578 3.926.809 7.737.462 11.201-.462 3.118-.809 5.197-1.271 7.853-.81 5.083-1.734 9.932-2.774 14.667z" fill="#854e31"/></g><g><path d="m277.459 150.404-8.199 4.735c-14.78-23.787-31.755-43.649-45.15-65.127-.462-.693-.808-1.386-1.27-2.078-1.155-1.963-2.31-3.926-3.349-5.889-.577-1.27-1.154-2.425-1.847-3.579-.924-2.194-1.848-4.273-2.772-6.467-.578-1.386-1.039-2.656-1.501-4.041-.808-2.194-1.617-4.388-2.194-6.582-.463-1.617-.809-3.118-1.155-4.619-2.656-11.316 1.617-19.168 5.312-27.02l8.199-4.737c-3.811 7.852-8.083 15.705-5.427 27.021.231 1.039.462 2.194.809 3.348.577 2.194 1.27 4.388 2.078 6.582.231.808.577 1.731.924 2.54v.115c.808 2.194 1.731 4.272 2.655 6.467.577 1.27 1.156 2.54 1.732 3.811 1.039 1.963 2.194 4.041 3.233 6.005.924 1.501 1.732 3.001 2.656 4.388 13.511 21.479 30.37 41.34 45.266 65.127z" fill="#a46c41"/></g></g></g><g fill="#b1b7f5"><g><path d="m220.993 61.952-7.621 6.005-4.504 3.58c-.693-2.194-1.385-4.388-1.963-6.698l4.272-3.464 7.737-6.005c.577 2.194 1.27 4.388 2.079 6.582z"/><path d="m224.572 71.074-6.928 7.391-4.504 4.734c-.924-2.309-1.847-4.503-2.54-6.697l4.272-4.504 7.044-7.391c.809 2.195 1.732 4.273 2.656 6.467z"/><path d="m229.537 80.89-6.697 7.044-4.851 5.197c-1.154-1.964-2.194-4.042-3.117-6.121l4.618-4.965 6.813-7.159c1.041 1.962 2.196 4.04 3.234 6.004z"/></g><g><path d="m225.842 423.614.115.231c-.23 0-.462.115-.693.231h-.116c-.115 0-.115.115-.115.115-1.386 1.27-2.656 2.656-3.811 4.272l-1.155-1.963-5.774-9.584c.809-.924 1.732-1.617 2.772-2.31.807-.577 1.616-1.039 2.424-1.386l6.121 10.046z"/><path d="m217.644 428.348 2.194 2.541c-1.27 1.963-2.078 4.041-2.771 6.235 0 .116-.116.347-.116.462l-3.811-4.619-5.542-6.697c.346-.693.693-1.386 1.039-2.079.809-1.27 1.617-2.656 2.541-3.811l6.467 7.852v.116z"/><path d="m217.76 454.907-1.617-2.079-7.621-9.237-4.387-5.312c.346-2.887.923-5.542 1.847-7.968l5.081 6.121v.115l5.196 6.351c-.116 2.887.23 6.005.923 9.354.231.923.346 1.731.578 2.655z"/></g></g></g></svg>