<svg id="Layer_1" enable-background="new 0 0 512 512" height="512" viewBox="0 0 512 512" width="512" xmlns="http://www.w3.org/2000/svg"><g><path d="m63.52 310.511 217.996 125.862 145.058-83.743 17.012-23.181-216.079-120.569z" fill="#b9b5b5"/><path d="m72.85 315.898 10.263-6.213v-126.815c-4.652-.052-9.238-.25-13.656-.489z" fill="#ffda97"/><path d="m63.52 310.511 9.33 5.387v-133.346c-3.211-.152-6.326-.328-9.33-.505z" fill="#bc9658"/><path d="m409.432 182.323c-.431 14.281-.428 28.528.937 42.413l6.802-3.926v126.391l9.403 5.429 9.581-16.388v-143.854l-4.108 1.993z" fill="#bc9658"/><path d="m401.464 178.491c-50.495 26.286-98.69 58.461-146.098 90.951l26.149 12.126v154.804l18.984-10.959v-126.386l126.075-72.789v126.392l18.983-10.96v-143.854l-4.108 1.992z" fill="#ffda97"/><path d="m371.494 206.615 89.306-3.795v-5.776l-89.306 2.54z" fill="#de6e00"/><g><path d="m193.97 194.152-.174-.112-.016.034c-3.203-1.714-7.54-1.429-12.345 1.342-9.834 5.678-17.815 19.494-17.815 30.859 0 5.523 1.914 9.409 4.97 11.332l-.009.026.147.077c.08.053.166.096.253.148l244.053 141.518 26.133-42.979-245.077-142.184z" fill="#ab5e1b"/><path d="m425.991 337.254c-9.843 5.679-17.816 19.495-17.816 30.852 0 11.356 7.972 15.971 17.816 10.274 9.842-5.678 17.815-19.485 17.815-30.851-.001-11.357-7.973-15.962-17.815-10.275z" fill="#fdd18f"/><g fill="#e3aa55"><g><path d="m422.66 360.322c-.033-.288-.455-.048-.421.243-.006.317.415.074.421-.243z"/><path d="m427.526 352.186c-2.694 1.411-5.22 5.188-5.286 8.378-.034-.291.388-.531.421-.243.063-3.013 2.982-7.38 5.583-7.906 2.122-.429 3.998 1.1 3.297 4.223-1.548 6.902-8.282 8.9-8.88 3.683-.007.317-.428.561-.421.243.305 2.661 2.28 4.191 4.865 2.932 2.537-1.236 4.983-5.002 4.97-8.067-.013-2.842-1.945-4.607-4.549-3.243z"/></g><g><path d="m433.079 345.77c-3.303-.429-6.818 2.642-10.423 5.234-.016.011-.01.033-.024.046.23-.133.329.196.08.399 3.169-2.286 6.763-5.576 9.705-5.195 2.108.274 3.764 1.754 4.375 4.197.653 2.61.457 6.548-1.775 9.97-1.786 2.739-4.343 4.975-6.618 6.513-2.159 1.459-4.993 3.217-6.611 2.167-1.242-.807-2.118-2.249-2.635-3.951-1.122-3.691-1.235-9.802 3.559-13.701-.018.013-.037.028-.056.041-.253.182-.245-.23-.024-.44-.015.009-.015-.018-.031-.005-4.928 4.007-5.169 10.646-3.854 14.469.664 1.933 1.618 3.69 3.262 4.341 1.779.703 4.849-1.335 6.964-2.844 5.295-3.777 9.841-10.464 8.36-16.386-.624-2.491-2.024-4.565-4.254-4.855z"/><path d="m422.656 351.49c.018-.013.037-.028.056-.041.249-.203.15-.532-.08-.399-.221.21-.229.623.024.44z"/></g><g><path d="m434.706 340.037c-4.033.327-8.553 3.085-12.721 6.862.259-.246.369.16.112.405 4.032-3.654 9.232-7.12 13.001-6.72 2.904.308 4.891 2.609 5.724 5.879.85 3.341.963 7.886-.949 12.463-1.789 4.286-4.874 7.971-8.059 10.699-7.065 6.053-15.39 9.405-17.779 1.628-2.193-7.14.66-16.909 8.061-23.95-.262.237-.372-.168-.112-.405-3.612 3.436-6.545 7.565-8.101 12.551-1.459 4.671-1.367 9.63-.05 12.732 1.369 3.223 3.817 5.131 7.554 4.056 3.598-1.036 7.562-3.422 11.118-6.725 3.331-3.095 6.797-7.219 8.23-11.942 1.364-4.498 1.431-8.843.326-12.028-1.075-3.094-3.104-5.768-6.355-5.505z"/><path d="m422.096 347.304c.258-.245.147-.651-.112-.405-.26.236-.15.642.112.405z"/></g><g><path d="m426.499 357.499c-.033.046-.003.07-.018.114.149-.11.273-.037.183.198.019-.018.028.013.047-.014.387-.541 1.015-1.013 1.398-.83.389.186.216 1.019-.234 1.557-.366.438-.851.649-1.181.553-.4-.116-.329-.649-.029-1.225.01-.02-.009-.022-.002-.041-.165.16-.259.025-.183-.198-.04.029-.077-.001-.113.067-.458.877-.544 1.749.065 1.926.498.144 1.243-.197 1.762-.928.541-.762.807-1.943.26-2.204-.538-.256-1.368.205-1.955 1.025z"/><path d="m426.664 357.811c.09-.235-.034-.308-.183-.198-.077.223.018.358.183.198z"/></g></g></g><g><path d="m152.293 217.851-.173-.112-.017.033c-3.203-1.713-7.54-1.428-12.345 1.342-9.834 5.678-17.815 19.494-17.815 30.86 0 5.523 1.914 9.41 4.97 11.332l-.009.025.146.078c.08.052.166.095.253.148l244.052 141.517 26.133-42.979-245.073-142.183z" fill="#b5631c"/><path d="m384.314 360.953c-9.843 5.679-17.815 19.495-17.815 30.852 0 11.356 7.972 15.971 17.815 10.274 9.843-5.678 17.815-19.486 17.815-30.851.001-11.357-7.971-15.961-17.815-10.275z" fill="#fdd18f"/><g fill="#e3aa55"><g><path d="m385.85 375.886c-2.694 1.411-5.22 5.187-5.287 8.378-.033-.291.388-.532.421-.243.063-3.013 2.982-7.381 5.583-7.906 2.123-.429 3.998 1.1 3.298 4.222-1.548 6.902-8.283 8.901-8.881 3.684-.007.317-.427.561-.421.243.305 2.661 2.28 4.191 4.866 2.931 2.537-1.236 4.983-5.002 4.97-8.067-.013-2.842-1.944-4.606-4.549-3.242z"/><path d="m380.984 384.021c-.033-.289-.454-.048-.421.243-.006.318.415.074.421-.243z"/></g><g><path d="m391.404 369.469c-3.302-.428-6.817 2.643-10.423 5.234-.016.012-.01.033-.024.046.23-.132.329.196.08.399 3.168-2.286 6.763-5.576 9.705-5.195 2.107.274 3.764 1.753 4.375 4.197.653 2.609.456 6.547-1.776 9.97-1.786 2.738-4.342 4.975-6.617 6.513-2.158 1.459-4.993 3.218-6.611 2.167-1.243-.807-2.118-2.25-2.635-3.95-1.122-3.691-1.235-9.803 3.56-13.701-.019.014-.038.029-.056.042-.253.182-.245-.231-.024-.44-.015.009-.015-.019-.032-.005-4.927 4.007-5.168 10.646-3.853 14.469.664 1.932 1.617 3.689 3.262 4.34 1.778.704 4.849-1.334 6.964-2.843 5.295-3.778 9.842-10.464 8.36-16.386-.625-2.493-2.025-4.567-4.255-4.857z"/><path d="m380.981 375.19c.018-.013.037-.028.056-.042.249-.202.149-.531-.08-.399-.222.21-.23.623.024.441z"/></g><g><path d="m393.029 363.736c-4.032.326-8.553 3.084-12.721 6.862.259-.246.37.159.112.404 4.032-3.654 9.232-7.12 13.001-6.72 2.903.309 4.892 2.61 5.724 5.88.851 3.341.963 7.886-.949 12.463-1.789 4.285-4.874 7.971-8.059 10.699-7.066 6.053-15.391 9.405-17.779 1.629-2.192-7.14.66-16.91 8.061-23.951-.261.237-.372-.168-.112-.404-3.612 3.436-6.544 7.565-8.101 12.55-1.459 4.672-1.367 9.631-.05 12.732 1.369 3.223 3.818 5.132 7.555 4.056 3.598-1.036 7.562-3.422 11.117-6.725 3.331-3.095 6.797-7.218 8.23-11.942 1.364-4.497 1.432-8.843.325-12.027-1.073-3.095-3.102-5.769-6.354-5.506z"/><path d="m380.42 371.002c.258-.245.148-.65-.112-.404-.26.236-.149.642.112.404z"/></g><g><path d="m384.823 381.199c-.033.046-.002.069-.018.113.149-.11.273-.036.183.199.019-.018.028.012.047-.015.387-.54 1.015-1.012 1.398-.829.389.186.216 1.019-.234 1.557-.366.439-.851.65-1.181.554-.4-.117-.329-.65-.028-1.226.01-.021-.009-.022-.002-.041-.165.16-.26.024-.183-.199-.04.03-.077 0-.112.067-.458.877-.545 1.75.064 1.927.497.145 1.243-.197 1.761-.928.542-.762.807-1.943.261-2.204-.538-.258-1.368.204-1.956 1.025z"/><path d="m384.988 381.511c.09-.234-.034-.309-.183-.199-.077.222.018.358.183.199z"/></g></g></g><g><path d="m171.425 168.435-.174-.112-.017.034c-3.203-1.713-7.539-1.428-12.344 1.343-9.834 5.678-17.815 19.494-17.815 30.859 0 5.523 1.914 9.409 4.97 11.332l-.009.025.147.078c.08.052.166.095.253.148l244.053 141.518 26.133-42.979-245.076-142.185z" fill="#c7742c"/><path d="m403.446 311.536c-9.843 5.679-17.815 19.495-17.815 30.852 0 11.356 7.972 15.971 17.815 10.274 9.843-5.677 17.815-19.485 17.815-30.851 0-11.357-7.972-15.961-17.815-10.275z" fill="#fdd18f"/><g fill="#e3aa55"><g><path d="m400.116 334.604c-.033-.288-.454-.048-.421.243-.006.318.415.074.421-.243z"/><path d="m404.982 326.469c-2.694 1.411-5.22 5.188-5.287 8.378-.033-.291.388-.531.421-.243.063-3.013 2.982-7.38 5.584-7.906 2.122-.429 3.997 1.1 3.297 4.222-1.548 6.902-8.283 8.902-8.881 3.684-.007.317-.427.561-.421.243.305 2.661 2.28 4.191 4.865 2.931 2.537-1.236 4.983-5.002 4.97-8.067-.012-2.842-1.944-4.606-4.548-3.242z"/></g><g><path d="m410.536 320.053c-3.303-.428-6.817 2.642-10.423 5.234-.016.012-.01.033-.024.046.229-.132.328.195.08.398 3.168-2.285 6.763-5.575 9.705-5.194 2.108.274 3.764 1.754 4.374 4.197.653 2.609.456 6.548-1.775 9.97-1.786 2.738-4.343 4.974-6.617 6.512-2.159 1.46-4.993 3.218-6.612 2.167-1.243-.807-2.117-2.249-2.635-3.95-1.122-3.691-1.235-9.803 3.56-13.701v-.001c-.019.014-.038.029-.056.042-.254.182-.245-.23-.024-.439-.015.009-.015-.019-.032-.005-4.927 4.006-5.168 10.646-3.853 14.468.664 1.933 1.617 3.69 3.262 4.34 1.779.704 4.848-1.334 6.964-2.843 5.295-3.777 9.842-10.463 8.36-16.385-.624-2.492-2.024-4.567-4.254-4.856z"/><path d="m400.113 325.773c.018-.013.037-.028.056-.042.248-.202.149-.529-.08-.398-.221.21-.23.622.024.44z"/></g><g><path d="m399.552 321.586c.258-.245.147-.651-.112-.404-.26.236-.15.641.112.404z"/><path d="m412.161 314.319c-4.032.326-8.553 3.085-12.721 6.862.259-.247.37.159.112.404 4.032-3.653 9.232-7.12 13.001-6.72 2.903.308 4.891 2.61 5.724 5.879.851 3.341.963 7.886-.949 12.463-1.79 4.285-4.874 7.971-8.058 10.699-7.066 6.053-15.391 9.405-17.779 1.629-2.193-7.14.66-16.91 8.061-23.95-.262.238-.372-.168-.112-.404-3.612 3.436-6.545 7.566-8.101 12.551-1.459 4.672-1.367 9.631-.05 12.732 1.369 3.223 3.818 5.131 7.555 4.056 3.598-1.036 7.562-3.422 11.117-6.725 3.331-3.095 6.797-7.219 8.23-11.943 1.364-4.497 1.431-8.843.325-12.027-1.074-3.095-3.103-5.769-6.355-5.506z"/></g><g><path d="m404.121 332.093c.089-.234-.035-.308-.183-.198-.077.223.017.358.183.198z"/><path d="m403.955 331.782c-.033.045-.003.07-.018.113.148-.11.273-.036.183.198.019-.018.028.013.047-.014.386-.54 1.016-1.013 1.398-.829.389.186.216 1.019-.234 1.557-.366.438-.852.649-1.182.554-.4-.117-.329-.65-.028-1.226.011-.021-.009-.022-.002-.041-.165.16-.26.025-.183-.198-.04.03-.077-.001-.113.067-.458.878-.544 1.75.065 1.927.497.144 1.242-.197 1.761-.929.541-.762.807-1.942.261-2.204-.537-.257-1.367.205-1.955 1.025z"/></g></g></g><g><path d="m114.116 247.256-.174-.112-.016.033c-3.203-1.713-7.54-1.428-12.345 1.343-9.834 5.678-17.815 19.494-17.815 30.859 0 5.523 1.914 9.409 4.97 11.332l-.009.025.147.078c.08.052.166.095.253.148l244.051 141.518 26.133-42.979-245.074-142.184z" fill="#ab5e1b"/><path d="m346.137 390.358c-9.843 5.679-17.815 19.495-17.815 30.852 0 11.356 7.972 15.97 17.815 10.274 9.842-5.677 17.815-19.485 17.815-30.85 0-11.359-7.972-15.963-17.815-10.276z" fill="#fdd18f"/><g fill="#e3aa55"><g><path d="m347.672 405.29c-2.694 1.411-5.22 5.188-5.286 8.378-.034-.291.388-.531.421-.243.063-3.013 2.982-7.38 5.583-7.906 2.122-.429 3.998 1.1 3.297 4.223-1.548 6.902-8.283 8.901-8.881 3.683-.006.317-.428.561-.421.243.304 2.661 2.279 4.191 4.865 2.931 2.537-1.235 4.983-5.002 4.97-8.067-.011-2.842-1.943-4.606-4.548-3.242z"/><path d="m342.807 413.425c-.033-.288-.455-.048-.421.243-.007.318.415.074.421-.243z"/></g><g><path d="m342.803 404.595c.018-.013.037-.028.055-.041l.001-.001c.249-.202.15-.53-.08-.399-.221.21-.229.623.024.441z"/><path d="m353.226 398.874c-3.302-.428-6.817 2.642-10.423 5.234-.015.012-.009.033-.023.046.229-.131.329.197.08.399l-.001.001c3.169-2.285 6.764-5.577 9.706-5.196 2.108.274 3.764 1.754 4.375 4.197.653 2.609.457 6.547-1.775 9.97-1.786 2.738-4.343 4.975-6.618 6.513-2.158 1.459-4.993 3.218-6.611 2.167-1.243-.807-2.118-2.249-2.635-3.95-1.123-3.691-1.236-9.802 3.558-13.701-.018.013-.037.028-.055.041-.253.182-.245-.231-.023-.441-.015.009-.015-.019-.032-.005-4.928 4.007-5.168 10.646-3.854 14.47.665 1.932 1.618 3.689 3.262 4.34 1.779.704 4.849-1.334 6.964-2.843 5.295-3.778 9.841-10.464 8.36-16.386-.625-2.492-2.025-4.567-4.255-4.856z"/></g><g><path d="m354.852 393.141c-4.033.326-8.553 3.085-12.721 6.863.259-.246.369.159.112.404 4.032-3.654 9.232-7.12 13.001-6.72 2.904.309 4.892 2.61 5.724 5.88.851 3.341.963 7.886-.949 12.463-1.79 4.285-4.874 7.971-8.059 10.699-7.066 6.053-15.39 9.405-17.779 1.629-2.193-7.14.66-16.91 8.061-23.951-.262.238-.373-.168-.112-.404-3.612 3.436-6.545 7.565-8.102 12.55-1.459 4.672-1.366 9.631-.049 12.732 1.369 3.223 3.817 5.131 7.554 4.056 3.598-1.036 7.562-3.422 11.117-6.725 3.331-3.095 6.798-7.219 8.23-11.943 1.365-4.497 1.432-8.843.326-12.027-1.073-3.095-3.103-5.769-6.354-5.506z"/><path d="m342.243 400.407c.258-.245.148-.65-.112-.404-.261.236-.15.642.112.404z"/></g><g><path d="m346.811 410.915c.089-.234-.034-.308-.183-.198-.077.222.017.357.183.198z"/><path d="m346.645 410.604c-.032.045-.002.069-.017.113.149-.11.272-.036.183.198.018-.018.028.013.047-.014.387-.54 1.015-1.012 1.398-.829.389.186.215 1.019-.234 1.558-.366.438-.852.649-1.181.553-.401-.117-.329-.65-.028-1.226.011-.021-.009-.023-.002-.042-.166.16-.26.025-.183-.198-.041.03-.077-.001-.113.067-.457.877-.544 1.75.065 1.927.497.145 1.243-.196 1.762-.928.541-.762.807-1.943.26-2.204-.539-.258-1.369.204-1.957 1.025z"/></g></g></g><g><path d="m126.085 197.742-.173-.112-.017.033c-3.203-1.713-7.54-1.428-12.345 1.343-9.834 5.678-17.815 19.494-17.815 30.859 0 5.523 1.913 9.409 4.97 11.332l-.009.026.146.078c.08.052.166.095.253.148l244.053 141.518 26.133-42.98-245.075-142.185z" fill="#c7742c"/><path d="m358.106 340.843c-9.843 5.678-17.814 19.494-17.814 30.852 0 11.356 7.971 15.971 17.814 10.274 9.843-5.677 17.815-19.486 17.815-30.851 0-11.357-7.972-15.961-17.815-10.275z" fill="#fdd18f"/><g fill="#e3aa55"><g><path d="m354.776 363.911c-.033-.288-.455-.048-.421.243-.007.318.415.074.421-.243z"/><path d="m359.642 355.776c-2.695 1.411-5.22 5.187-5.287 8.378-.034-.291.388-.531.421-.243.063-3.013 2.981-7.38 5.583-7.906 2.123-.429 3.997 1.1 3.297 4.222-1.548 6.902-8.283 8.901-8.88 3.684-.007.317-.428.561-.421.243.305 2.661 2.28 4.191 4.865 2.931 2.537-1.236 4.983-5.002 4.97-8.067-.013-2.842-1.943-4.606-4.548-3.242z"/></g><g><path d="m354.772 355.08c.019-.014.038-.028.056-.042.249-.203.15-.53-.08-.398-.22.21-.229.622.024.44z"/><path d="m365.195 349.36c-3.302-.429-6.817 2.642-10.423 5.234-.016.012-.01.033-.024.046.23-.132.329.195.08.398 3.169-2.285 6.763-5.575 9.705-5.194 2.107.274 3.764 1.754 4.375 4.196.653 2.61.456 6.548-1.776 9.971-1.785 2.738-4.342 4.974-6.616 6.513-2.16 1.459-4.994 3.218-6.612 2.166-1.243-.806-2.117-2.248-2.635-3.95-1.122-3.691-1.235-9.802 3.56-13.701v-.001c-.018.014-.037.028-.056.042-.253.183-.245-.23-.024-.44-.015.009-.015-.019-.032-.005-4.927 4.007-5.168 10.646-3.853 14.469.665 1.933 1.618 3.69 3.262 4.34 1.778.704 4.848-1.334 6.965-2.843 5.295-3.777 9.841-10.463 8.36-16.385-.626-2.492-2.026-4.567-4.256-4.856z"/></g><g><path d="m366.821 343.626c-4.033.326-8.553 3.084-12.721 6.862.26-.246.37.16.112.404 4.032-3.653 9.232-7.119 13.001-6.72 2.903.308 4.891 2.61 5.724 5.88.851 3.341.963 7.886-.949 12.463-1.79 4.285-4.874 7.97-8.058 10.698-7.066 6.054-15.391 9.405-17.78 1.629-2.193-7.14.66-16.909 8.061-23.95-.261.238-.373-.168-.112-.404-3.612 3.436-6.545 7.565-8.101 12.55-1.458 4.672-1.367 9.631-.05 12.732 1.369 3.223 3.818 5.132 7.555 4.056 3.598-1.036 7.562-3.421 11.118-6.725 3.331-3.095 6.797-7.218 8.23-11.942 1.364-4.497 1.431-8.843.326-12.028-1.075-3.094-3.104-5.768-6.356-5.505z"/><path d="m354.212 350.892c.258-.244.148-.65-.112-.404-.261.237-.149.642.112.404z"/></g><g><path d="m358.615 361.089c-.032.046-.002.07-.018.113.149-.11.273-.036.184.198.018-.018.028.013.047-.014.386-.54 1.015-1.012 1.398-.829.389.186.216 1.019-.234 1.557-.366.438-.852.649-1.181.553-.4-.116-.329-.65-.028-1.226.01-.021-.009-.022-.002-.041-.166.16-.26.024-.184-.198-.04.03-.077-.001-.112.067-.458.877-.545 1.75.064 1.927.498.144 1.243-.197 1.762-.928.541-.762.806-1.943.261-2.204-.54-.258-1.37.205-1.957 1.025z"/><path d="m358.781 361.4c.089-.234-.035-.308-.184-.198-.077.223.018.358.184.198z"/></g></g></g><g><path d="m143.463 148.869-.173-.112-.017.034c-3.203-1.714-7.54-1.429-12.345 1.342-9.834 5.678-17.815 19.494-17.815 30.86 0 5.522 1.914 9.409 4.97 11.331l-.009.026.147.077c.08.053.166.095.253.148l244.053 141.517 26.133-42.979-245.076-142.183z" fill="#ca7c38"/><path d="m375.484 291.97c-9.843 5.679-17.815 19.495-17.815 30.853 0 11.356 7.972 15.97 17.815 10.274 9.843-5.677 17.815-19.485 17.815-30.851 0-11.358-7.972-15.962-17.815-10.276z" fill="#fdd18f"/><g fill="#e3aa55"><g><path d="m372.154 315.038c-.033-.288-.455-.049-.421.243-.007.318.415.074.421-.243z"/><path d="m377.02 306.903c-2.694 1.411-5.22 5.188-5.287 8.378-.034-.292.388-.531.421-.243.063-3.013 2.982-7.38 5.583-7.906 2.122-.429 3.998 1.1 3.297 4.222-1.548 6.902-8.283 8.901-8.881 3.684-.007.317-.428.56-.421.243.305 2.661 2.28 4.191 4.865 2.931 2.537-1.236 4.983-5.002 4.97-8.067-.011-2.842-1.943-4.606-4.547-3.242z"/></g><g><path d="m372.15 306.207c.019-.013.038-.028.056-.042.248-.203.149-.53-.08-.399-.221.211-.229.623.024.441z"/><path d="m382.574 300.487c-3.302-.429-6.817 2.642-10.424 5.234-.015.011-.01.033-.023.046.229-.131.328.195.08.399 3.169-2.285 6.763-5.575 9.705-5.195 2.107.274 3.764 1.754 4.375 4.197.652 2.61.456 6.548-1.776 9.971-1.786 2.738-4.343 4.974-6.617 6.512-2.158 1.46-4.993 3.218-6.612 2.167-1.243-.807-2.117-2.249-2.635-3.951-1.122-3.691-1.235-9.802 3.56-13.701v-.001c-.018.014-.038.029-.056.042-.253.182-.244-.23-.023-.44-.015.009-.015-.019-.032-.005-4.928 4.007-5.168 10.647-3.854 14.469.665 1.933 1.617 3.69 3.262 4.341 1.779.703 4.849-1.335 6.965-2.844 5.295-3.777 9.841-10.464 8.36-16.385-.626-2.492-2.026-4.566-4.255-4.856z"/></g><g><path d="m371.59 302.02c.257-.245.147-.651-.112-.405-.261.237-.149.642.112.405z"/><path d="m384.199 294.753c-4.033.327-8.552 3.085-12.721 6.862.259-.246.369.16.112.405 4.032-3.654 9.232-7.121 13.001-6.72 2.903.308 4.892 2.609 5.724 5.879.851 3.341.962 7.886-.949 12.463-1.79 4.286-4.874 7.971-8.059 10.699-7.066 6.053-15.39 9.406-17.779 1.629-2.193-7.14.66-16.909 8.061-23.95-.261.237-.373-.168-.112-.405-3.612 3.436-6.545 7.566-8.101 12.551-1.458 4.671-1.367 9.63-.049 12.732 1.368 3.223 3.817 5.131 7.554 4.056 3.598-1.036 7.562-3.422 11.117-6.724 3.331-3.095 6.798-7.219 8.23-11.943 1.364-4.498 1.432-8.843.326-12.028-1.074-3.095-3.103-5.769-6.355-5.506z"/></g><g><path d="m376.158 312.528c.09-.234-.035-.308-.184-.198-.076.223.019.358.184.198z"/><path d="m375.993 312.216c-.033.046-.003.071-.018.114.149-.11.273-.036.184.198.019-.018.028.013.047-.014.387-.541 1.015-1.013 1.398-.83.39.186.216 1.019-.233 1.557-.366.438-.852.649-1.181.553-.4-.116-.328-.649-.028-1.225.011-.02-.009-.022-.002-.041-.166.16-.26.025-.184-.198-.04.03-.077-.001-.112.067-.458.877-.545 1.749.064 1.926.497.144 1.243-.197 1.762-.928.541-.762.807-1.943.26-2.203-.54-.258-1.371.204-1.957 1.024z"/></g></g></g><path d="m272.114 281.479v149.465l9.402 5.428 9.581-16.387v-126.386l3.58-2.067c-5.943-3.97-12.151-7.495-18.84-9.262-1.245-.329-2.484-.568-3.723-.791z" fill="#bc9658"/><path d="m305.892 235.445c-16.981 11.135-33.806 22.539-50.526 33.997l26.149 12.127v154.804l18.984-10.959v-126.387l54.332-31.369c-3.521-2.083-7.044-4.163-10.533-6.286-13.238-8.055-25.582-17.35-38.406-25.927z" fill="#ffda97"/><path d="m51.2 191.978 210.275 121.417 110.019-113.811-210.277-121.417z" fill="#ff9600"/><path d="m161.217 78.167 210.275 121.417 89.308-2.54-210.277-121.417z" fill="#f68800"/><g fill="#de6e00"><path d="m261.475 318.498 110.019-111.883v-7.031l-110.019 113.812z"/><path d="m51.2 196.902 210.275 121.596v-5.102l-210.275-121.418z"/></g></g></svg>