<svg id="Layer_1" enable-background="new 0 0 500 500" viewBox="0 0 500 500" xmlns="http://www.w3.org/2000/svg"><g><path d="m164.754 132.595c-11.648-6.628-29.573-3.492-36.42 6.07-6.368 8.892 1.988 16.16-2.698 33.722-4.571 17.136-15.455 21.197-12.814 30.35 2.386 8.27 13.268 11.863 20.233 14.163 5.97 1.971 21.374 7.058 33.048-.675 12.535-8.304 12.692-26.04 12.814-39.791.134-15.103.315-35.601-14.163-43.839z" fill="#7bb85a"/><path d="m367.084 90.308c-13.985-4.373-34.947 11.084-37.094 29-1.705 14.227 9.039 25.13 15.512 31.699 7.608 7.72 25.76 22.132 35.745 16.186 9.501-5.658 6.044-26.438 4.046-38.443-2.68-16.109-5.747-34.546-18.209-38.442z" fill="#7bb85a"/><path d="m263.382 462.508c0 3.217-2.107 6.433-6.322 8.873-8.429 4.825-22.072 4.825-30.502 0-4.215-2.441-6.322-5.657-6.322-8.873 0 0 .055-.333.111-.887.056-.277.111-.555.167-.943 0 0 0-.055 0-.111.832-5.268 3.05-20.02 4.325-28.061.111-.665.167-1.442.277-2.329.444.277.943.61 1.442.887 8.43 4.825 22.072 4.825 30.502 0 1.553-.887 2.828-1.885 3.771-2.995 1.054 14.363 2.107 28.838 2.44 33.164.056.832.111 1.275.111 1.275z" fill="#57423a"/><path d="m260.831 428.069c-.943 1.109-2.218 2.107-3.771 2.995-8.429 4.825-22.072 4.825-30.502 0-.499-.277-.998-.61-1.442-.887.611-7.653.055-23.846-.277-37.933v-.055c-.222-9.816-.388-18.634 0-22.682.111-1.109.222-2.496.388-4.271.277-3.937.61-9.428.998-15.472 1.053-16.804 2.329-38.099 3.383-43.312.665-3.438 1.885-14.197 3.161-25.621 1.664-14.752 3.549-30.557 4.714-33.219 2.107-4.714 11.036-8.43 15.75-9.428 2.329-.499 3.771 22.626 4.547 47.582.111 5.102.222 10.315.333 15.362v.111c.333 20.02.277 38.265-.166 43.09-.055.832-.111 1.774-.222 2.828v.222c-.166 2.606-.277 5.712-.333 9.039-.277 13.531.055 31.333.943 41.038.5 5.546 1.498 18.024 2.496 30.613z" fill="#846e63"/><path d="m257.947 344.329c-.055.832-.111 1.774-.222 2.828v.222c-.166 2.606-.277 5.712-.333 9.039-5.213-2.218-11.813-4.603-22.516-5.878-2.883-.333-5.823-.61-8.651-.776 1.053-16.804 2.329-38.099 3.383-43.312.665-3.438 1.885-14.197 3.161-25.621 5.657 1.109 12.921 2.495 23.625 4.658.499.111.943.167 1.386.277.111 5.102.222 10.315.333 15.362v.111c.333 20.02.278 38.265-.166 43.09z" fill="#57423a"/><path d="m358.325 262.085c-12.866 27.507-30.058 44.033-39.153 52.629-16.027 15.14-26.508 25.011-41.815 25.621-14.863.555-17.358-8.485-42.48-11.479-14.641-1.775-31.056-.777-32.332-.665 0 0-14.585.943-31.056-.665-2.551-.277-7.985-.887-12.81-4.714-2.662-2.163-4.325-4.714-5.379-6.766-15.029-28.671-16.859-70.819-16.859-70.819-.554-13.088-1.109-26.01 0-44.532 1.165-19.909 2.995-48.747 14.142-83.629 5.49-17.247 10.481-32.442 20.852-48.081 1.83-2.829 3.882-5.657 6.156-8.54 7.487-9.595 16.526-21.185 30.335-28.339 41.537-21.573 95.331 12.589 99.823 15.528 22.183 14.474 36.602 33.94 46.141 53.183 14.086 28.45 17.358 56.345 18.578 66.826 1.551 13.142 5.6 52.184-14.143 94.442z" fill="#99e871"/><path d="m359.49 259.535c-.388.832-.777 1.719-1.165 2.551-12.866 27.507-30.058 44.033-39.153 52.629-16.027 15.14-26.508 25.011-41.815 25.621-14.863.555-17.358-8.485-42.48-11.479-14.641-1.775-31.056-.777-32.332-.665 0 0-14.585.943-31.056-.665-2.551-.277-7.985-.887-12.81-4.714-2.662-2.163-4.325-4.714-5.379-6.766-15.029-28.671-16.859-70.819-16.859-70.819-.554-13.088-1.109-26.01 0-44.532.222-4.436.555-9.317.943-14.585 1.497-18.467 4.547-41.926 13.199-69.045 5.49-17.247 10.481-32.442 20.852-48.081 2.107 17.358 5.435 43.256 27.063 62.279 21.795 19.188 55.513 25.344 82.243 18.19 12.589-3.383 25.011-12.367 49.246-30.169 9.816-7.209 17.58-13.31 23.902-18.467 14.086 28.45 17.358 56.345 18.578 66.826 1.497 12.864 5.434 50.63-12.977 91.891z" fill="#89d263"/><path d="m359.49 259.535c-.388.832-.777 1.719-1.165 2.551-12.866 27.507-30.058 44.033-39.153 52.629-16.027 15.14-26.508 25.011-41.815 25.621-14.863.555-17.358-8.485-42.48-11.479-14.641-1.775-31.056-.777-32.332-.665 0 0-14.585.943-31.056-.665-2.551-.277-7.985-.887-12.81-4.714-2.662-2.163-4.325-4.714-5.379-6.766-15.029-28.671-16.859-70.819-16.859-70.819-.554-13.088-1.109-26.01 0-44.532.222-4.436.555-9.317.943-14.585 3.605 19.687 11.257 37.877 26.675 48.303 9.594 6.489 29.559 14.918 48.58 20.242 12.09 3.383 17.636 3.771 43.756 9.151 29.282 6.045 36.768 8.54 43.922 9.761 21.794 3.768 41.981-3.996 59.173-14.033z" fill="#7bb85a"/><path d="m385.61 257.094c-1.997 6.544-5.435 12.645-9.095 17.192-11.646 14.474-23.126 9.927-35.049 23.624-13.365 15.307-4.548 27.396-16.194 41.815-13.254 16.415-43.645 24.013-60.726 12.145-17.58-12.311-14.252-40.816-11.424-64.774.998-8.651 2.107-18.024 4.048-27.174 3.827-18.19 11.091-35.77 27.618-46.307 34.938-22.294 94.666-2.718 101.875 25.621 1.442 5.713.832 11.925-1.053 17.858z" fill="#99e871"/><path d="m385.61 257.094c-1.997 6.544-5.435 12.645-9.095 17.192-10.593 13.199-21.074 10.592-31.888 20.408-1.053.887-2.107 1.997-3.161 3.216-13.365 15.307-4.548 27.396-16.194 41.815-13.254 16.415-43.645 24.013-60.726 12.145-12.755-8.929-14.475-26.342-13.421-44.366.388-6.877 1.22-13.809 1.997-20.408.998-8.651 2.107-18.024 4.048-27.174 7.709 5.157 16.637 8.984 26.952 6.877 13.255-2.773 16.305-12.866 34.384-16.859 11.701-2.551 20.131-.444 33.053 2.052 14.086 2.662 25.233 4.215 34.051 5.102z" fill="#89d263"/><path d="m344.627 294.694c-1.053.887-2.107 1.997-3.161 3.216-13.365 15.307-4.548 27.396-16.194 41.815-13.254 16.415-43.645 24.013-60.726 12.145-12.755-8.929-14.475-26.342-13.421-44.366 11.979 6.211 26.786 20.353 42.425 15.306 17.912-5.823 16.526-30.058 32.387-33.052 5.824-1.108 12.479.888 18.69 4.936z" fill="#7bb85a"/><path d="m191.232 322.201c-5.046 5.546-17.192 18.911-29.892 17.247-21.961-2.829-45.253-50.688-35.548-88.621 1.331-5.434 3.383-10.648 6.211-15.472 13.143-22.516 42.258-35.936 52.351-28.727 10.26 7.265-4.27 32.11 12.09 58.619 1.996 3.272 3.715 5.324 5.158 7.265 1.719 2.385 3.05 4.492 3.993 8.263 4.992 19.631-11.812 38.598-14.363 41.426z" fill="#99e871"/><path d="m191.232 322.201c-1.109 1.22-2.551 2.828-4.27 4.547-6.1 6.155-15.694 13.975-25.622 12.7-14.807-1.941-30.335-24.401-35.77-50.522-2.607-12.478-2.939-25.843.222-38.1 5.324 1.387 10.98 3.549 16.582 6.933 12.478 7.542 12.645 13.92 22.405 18.356 14.419 6.599 26.231-1.885 36.824-3.605 1.719 2.385 3.05 4.492 3.993 8.263 4.991 19.633-11.813 38.6-14.364 41.428z" fill="#89d263"/><path d="m186.962 326.749c-6.1 6.155-15.694 13.975-25.622 12.7-14.807-1.941-30.335-24.401-35.77-50.522 7.653-1.275 17.691.776 24.845 5.047 8.374 4.991 7.598 9.871 17.247 19.52 7.21 7.21 13.92 10.815 19.3 13.255z" fill="#7bb85a"/></g></svg>