<svg id="Capa_1" enable-background="new 0 0 512 512" viewBox="0 0 512 512" xmlns="http://www.w3.org/2000/svg"><g><g><path d="m444.494 192.026c0 35.332-28.642 63.974-63.974 63.974h-252.571v-127.948h252.571c35.332 0 63.974 28.642 63.974 63.974z" fill="#e19974"/><path d="m408.205 134.338c4.028 8.378 6.286 17.768 6.286 27.685 0 35.332-28.642 63.974-63.974 63.974h-222.568v47.699l252.572-17.696c35.331 0 63.973-28.642 63.973-63.974 0-25.415-14.82-47.366-36.289-57.688z" fill="#dc8758"/><ellipse cx="127.949" cy="192.026" fill="#fedba6" rx="63.974" ry="63.974" transform="matrix(.707 -.707 .707 .707 -98.308 146.716)"/><ellipse cx="127.949" cy="192.027" fill="#e19974" rx="24.037" ry="24.037" transform="matrix(.707 -.707 .707 .707 -98.308 146.717)"/><path d="m376.384 199.526h-144.666c-4.143 0-7.5-3.358-7.5-7.5s3.357-7.5 7.5-7.5h144.666c4.684 0 8.493-3.81 8.493-8.494 0-4.683-3.81-8.493-8.493-8.493h-47.93c-4.143 0-7.5-3.358-7.5-7.5s3.357-7.5 7.5-7.5h47.93c12.954 0 23.493 10.539 23.493 23.493.001 12.955-10.538 23.494-23.493 23.494z" fill="#e8ad8c"/><g><path d="m127.949 223.564c-17.39 0-31.537-14.147-31.537-31.537s14.147-31.537 31.537-31.537 31.537 14.148 31.537 31.538c0 17.388-14.148 31.536-31.537 31.536zm0-48.075c-9.118 0-16.537 7.418-16.537 16.537s7.419 16.537 16.537 16.537 16.537-7.418 16.537-16.537c0-9.118-7.419-16.537-16.537-16.537z" fill="#fece85"/></g><g fill="#e8ad8c"><path d="m351.754 231.513h-62.219c-4.143 0-7.5-3.358-7.5-7.5s3.357-7.5 7.5-7.5h62.219c4.143 0 7.5 3.358 7.5 7.5s-3.358 7.5-7.5 7.5z"/><path d="m231.944 256c6.698-5.42 12.462-12.071 16.896-19.735 2.074-3.585.849-8.173-2.736-10.248-3.582-2.073-8.172-.85-10.248 2.736-8.301 14.349-22.487 24.214-38.463 27.247z"/><path d="m248.46 128.052h-36.65c17.054 2.397 32.364 12.549 41.124 27.691 1.391 2.403 3.909 3.746 6.499 3.746 1.274 0 2.566-.326 3.749-1.009 3.585-2.074 4.811-6.663 2.736-10.248-4.557-7.876-10.521-14.68-17.458-20.18z"/></g></g><g><path d="m63.974 256h127.949v127.947h-127.949z" fill="#9e5528"/></g><path d="m127.947 319.973c0 35.332-28.642 63.974-63.974 63.974-35.331 0-63.973-28.642-63.973-63.974s28.642-63.973 63.974-63.973c35.331 0 63.973 28.642 63.973 63.973z" fill="#fedba6"/><ellipse cx="63.974" cy="319.973" fill="#dc8758" rx="24.037" ry="24.037" transform="matrix(.707 -.707 .707 .707 -207.518 138.954)"/><path d="m63.974 351.51c-17.39 0-31.537-14.147-31.537-31.537s14.147-31.537 31.537-31.537c17.389 0 31.537 14.147 31.537 31.537s-14.148 31.537-31.537 31.537zm0-48.074c-9.119 0-16.537 7.418-16.537 16.537s7.418 16.537 16.537 16.537c9.118 0 16.537-7.418 16.537-16.537s-7.419-16.537-16.537-16.537z" fill="#fece85"/><g><g><g><path d="m512 319.973c0 35.332-28.642 63.974-63.974 63.974h-256.104v-127.947h71.214c13.294 0 22.638 1.839 22.638 1.839s6.674-1.839 13.527-1.839h148.725c35.332 0 63.974 28.642 63.974 63.973z" fill="#c86d36"/><path d="m475.711 262.285c4.028 8.378 6.286 17.768 6.286 27.685 0 35.332-28.642 63.974-63.974 63.974h-226.101v30.003h256.104c35.332 0 63.974-28.642 63.974-63.974 0-25.414-14.82-47.366-36.289-57.688z" fill="#ac5e2e"/></g><ellipse cx="191.922" cy="319.974" fill="#fee8c7" rx="63.974" ry="63.974" transform="matrix(.707 -.707 .707 .707 -170.043 229.428)"/><ellipse cx="191.923" cy="319.973" fill="#e19974" rx="24.037" ry="24.037" transform="matrix(.383 -.924 .924 .383 -177.14 374.838)"/><g><path d="m191.923 351.51c-17.39 0-31.537-14.148-31.537-31.538s14.147-31.537 31.537-31.537 31.537 14.147 31.537 31.537-14.148 31.538-31.537 31.538zm0-48.074c-9.118 0-16.537 7.418-16.537 16.537s7.419 16.538 16.537 16.538 16.537-7.419 16.537-16.538-7.419-16.537-16.537-16.537z" fill="#fedba6"/></g></g><g fill="#d77f4a"><path d="m362.466 295.486h80.546c4.143 0 7.5-3.358 7.5-7.5s-3.357-7.5-7.5-7.5h-80.546c-4.143 0-7.5 3.358-7.5 7.5s3.357 7.5 7.5 7.5z"/><path d="m459.883 312.473h-118.77c-.927 0-1.719-.672-1.843-1.562-2.89-20.755-17.345-42.917-39.969-54.912h-36.165s21.303 4.729 41.095 21.91c10.961 9.515 18.326 21.738 20.182 35.071 1.151 8.262 8.331 14.492 16.7 14.492l65.391.001c4.683 0 8.492 3.81 8.492 8.493s-3.81 8.493-8.492 8.493h-103.17c-4.143 0-7.5 3.358-7.5 7.5s3.357 7.5 7.5 7.5h103.17c12.954 0 23.492-10.539 23.492-23.493 0-2.995-.569-5.858-1.596-8.494h31.483c4.143 0 7.5-3.358 7.5-7.5s-3.357-7.499-7.5-7.499z"/></g></g></g><g/><g/><g/><g/><g/><g/><g/><g/><g/><g/><g/><g/><g/><g/><g/></svg>