<svg id="Layer_1" enable-background="new 0 0 512.527 512.527" height="512" viewBox="0 0 512.527 512.527" width="512" xmlns="http://www.w3.org/2000/svg"><g><path d="m183.514 336.883c6.249 6.249 6.248 16.379 0 22.628-90.631 90.624-120.745 120.749-120.846 120.836-12.506 12.295-32.658 12.231-45.06-.19-12.405-12.424-12.5-32.538-.19-45.06.086-.1-4.06 4.061 120.84-120.85 6.24-6.24 16.38-6.24 22.62 0z" fill="#aa7569"/><path d="m183.514 336.883-22.636-22.636c-6.24-6.24-16.38-6.24-22.62 0l-8.69 8.69 13.946 13.946c6.249 6.249 6.248 16.379 0 22.627-131.514 131.504-121.18 121.315-123.275 122.996 12.496 10.022 30.768 9.306 42.429-2.159.1-.086-3.709 3.709 120.846-120.836 6.249-6.249 6.249-16.38 0-22.628z" fill="#9a6758"/><path d="m489.738 24.027c0 4.138-1.596 8.131-4.5 11.13-.581.581-265.615 265.605-266.2 266.19-19.678-8.39-42.967-2.747-56.54 14.52l-1.61-1.61c322.989-322.999 302.225-302.946 306.08-304.73 10.569-4.925 22.77 2.769 22.77 14.5z" fill="#d9b3af"/><path d="m478.514 8.751c1.681 5.389.536 11.592-4.145 16.275l-265.83 265.82c-6.272-2.674-13.104-4.023-20.47-3.771l-27.18 27.181 1.61 1.61c13.6-17.302 36.911-22.889 56.54-14.52l265.83-265.82c8.991-8.994 4.782-23.299-6.355-26.775z" fill="#c4928a"/><circle cx="200.238" cy="345.527" fill="#edebfd" r="48"/><path d="m184.234 300.267c18.689 6.599 32.004 24.395 32.004 45.259 0 20.898-13.359 38.667-32 45.258 31.096 10.996 64-12.045 64-45.258 0-33.049-32.73-56.313-64.004-45.259z" fill="#d2d2fc"/><circle cx="488.238" cy="424.527" fill="#e48c9b" r="16"/><circle cx="200.238" cy="344.527" fill="#595965" r="16"/><path d="m496.238 401.903c0-18.05 0-365.053 0-369.541.99-2.667 1.5-5.46 1.5-8.335 0-20.91-25.313-32.132-40.787-17.157l-297.023 297.035c-8.718-4.178-19.784-2.858-27.331 4.69l-120.315 120.324c-15.065 13.947-16.678 40.546-.32 56.904 15.806 15.746 41.377 15.236 56.563-.01 3.895-3.911 90.96-90.961 96.66-96.66 20.014 16.113 48.3 16.516 68.739 1.075l11.05 11.248-10.393 10.393c-5.054 5.055-1.407 13.657 5.657 13.657 2.047 0 4.095-.781 5.657-2.343l32.001-32c3.124-3.125 3.124-8.189 0-11.314-3.125-3.123-8.189-3.123-11.314 0l-10.293 10.293-11.091-11.29c16.638-22.374 14.3-53.656-5.82-73.346h8.862c39.701 0 72-32.299 72-72v-16h16c39.701 0 72-32.299 72-72v-16h16c22.6 0 42.79-10.475 56-26.815v299.191c-21.277 7.547-21.288 37.697 0 45.248v37.376c0 6.617-5.383 12-12 12s-12-5.383-12-12v-4c7.065 0 10.711-8.602 5.657-13.657l-8-8c-5.022-5.02-13.657-1.464-13.657 5.657v20c0 15.439 12.561 28 28 28s28-12.561 28-28v-37.376c21.275-7.546 21.286-37.696-.002-45.247zm-28.342-383.349c3.913-3.925 9.598-3.001 12.343.827v9.299c-.644.897 11.481-11.318-263.254 263.407-6.338-1.991-13.059-2.875-20.168-2.446zm-410.495 455.745c-9.25 9.25-23.726 9.824-34.129.208-8.825-8.825-9.797-23.481.001-33.959.148-.138-4.834 4.84 120.638-120.641 1.964-1.964 4.829-2.82 7.685-2.075-10.472 18.32-9.927 41.529 2.668 59.614zm176.39-107.036-11.992-12.206c7.735-15.774-3.751-34.53-21.561-34.53-13.234 0-24 10.767-24 24 0 17.592 18.348 29.144 34.147 21.743l12.2 12.418c-26.269 17.76-62.347-1.011-62.347-33.161 0-22.056 17.944-40 40-40 31.677 0 50.748 35.285 33.553 61.736zm-33.553-14.736c-4.411 0-8-3.589-8-8s3.589-8 8-8 8 3.589 8 8-3.589 8-8 8zm48-63h-6.065l62.065-62.063v6.063c0 30.879-25.121 56-56 56zm88-88h-6.062l62.062-62.06v6.06c0 30.879-25.121 56-56 56zm88-88h-6.058l62.058-62.056v6.056c0 30.879-25.121 56-56 56zm64 319c-4.411 0-8-3.589-8-8s3.589-8 8-8 8 3.589 8 8-3.588 8-8 8z"/></g></svg>