<?xml version="1.0" encoding="iso-8859-1"?>
<!-- Generator: Adobe Illustrator 19.0.0, SVG Export Plug-In . SVG Version: 6.00 Build 0)  -->
<svg version="1.1" id="Capa_1" xmlns="http://www.w3.org/2000/svg" xmlns:xlink="http://www.w3.org/1999/xlink" x="0px" y="0px"
	 viewBox="0 0 512.001 512.001" style="enable-background:new 0 0 512.001 512.001;" xml:space="preserve">
<path style="fill:#B99756;" d="M76.708,76.983L76.708,76.983c-7.329,7.329-19.213,7.329-26.544,0l-37.159-37.16
	c-7.329-7.329-7.329-19.213,0-26.543l0,0c7.329-7.329,19.213-7.329,26.543,0l37.16,37.16C84.038,57.77,84.038,69.653,76.708,76.983z
	"/>
<path style="fill:#F7C98A;" d="M76.708,50.44l-37.16-37.16c-7.329-7.329-19.213-7.329-26.544,0l0,0
	c-4.116,4.116-5.92,9.67-5.412,15.046c7.341-5.369,17.692-4.76,24.323,1.873l37.16,37.159c3.213,3.213,5.016,7.301,5.412,11.498
	c0.772-0.565,1.523-1.174,2.22-1.873l0,0C84.038,69.653,84.038,57.769,76.708,50.44z"/>
<path style="fill:#B99756;" d="M435.112,76.983L435.112,76.983c7.329,7.329,19.213,7.329,26.544,0l37.16-37.16
	c7.329-7.329,7.329-19.213,0-26.543l0,0c-7.329-7.329-19.213-7.329-26.543,0l-37.16,37.16
	C427.782,57.77,427.782,69.653,435.112,76.983z"/>
<path style="fill:#F7C98A;" d="M435.112,50.44l37.16-37.16c7.329-7.329,19.213-7.329,26.544,0l0,0
	c4.116,4.116,5.92,9.67,5.412,15.046c-7.341-5.369-17.692-4.76-24.323,1.873l-37.16,37.159c-3.213,3.213-5.016,7.301-5.412,11.498
	c-0.772-0.565-1.523-1.174-2.22-1.873l0,0C427.782,69.653,427.782,57.769,435.112,50.44z"/>
<path style="fill:#B99756;" d="M76.708,435.578L76.708,435.578c-7.329-7.329-19.213-7.329-26.544,0l-37.16,37.16
	c-7.329,7.329-7.329,19.213,0,26.543l0,0c7.329,7.329,19.213,7.329,26.543,0l37.16-37.16
	C84.038,454.792,84.038,442.908,76.708,435.578z"/>
<path style="fill:#F7C98A;" d="M76.708,462.122l-37.16,37.16c-7.329,7.329-19.213,7.329-26.544,0l0,0
	c-4.116-4.116-5.92-9.67-5.412-15.046c7.341,5.369,17.692,4.76,24.323-1.873l37.16-37.16c3.213-3.213,5.016-7.301,5.412-11.498
	c0.772,0.565,1.523,1.174,2.22,1.873l0,0C84.038,442.908,84.038,454.792,76.708,462.122z"/>
<path style="fill:#B99756;" d="M435.112,435.578L435.112,435.578c7.329-7.329,19.213-7.329,26.544,0l37.16,37.16
	c7.329,7.329,7.329,19.213,0,26.543l0,0c-7.329,7.329-19.213,7.329-26.543,0l-37.16-37.16
	C427.782,454.792,427.782,442.908,435.112,435.578z"/>
<path style="fill:#F7C98A;" d="M435.112,462.122l37.16,37.16c7.329,7.329,19.213,7.329,26.544,0l0,0
	c4.116-4.116,5.92-9.67,5.412-15.046c-7.341,5.369-17.692,4.76-24.323-1.873l-37.16-37.16c-3.213-3.213-5.016-7.301-5.412-11.498
	c-0.772,0.565-1.523,1.174-2.22,1.873l0,0C427.782,442.908,427.782,454.792,435.112,462.122z"/>
<path d="M504.317,466.869l-37.161-37.16c-8.587-8.586-21.681-9.971-31.729-4.167l-26.521-23.819
	c15.109-25.654,18.009-56.373,7.929-84.422l-14.336-39.892c-8.189-22.788-6.235-48.05,5.359-69.309l3.711-6.803
	c14.757-27.054,16.257-58.815,4.118-87.14l-3.376-7.877l21.108-21.108c4.525,3.199,9.838,4.806,15.156,4.806
	c6.728-0.001,13.457-2.563,18.581-7.684l37.161-37.16c10.244-10.245,10.244-26.915-0.001-37.161
	c-10.244-10.244-26.916-10.244-37.16,0l-37.159,37.16c-4.964,4.963-7.697,11.562-7.697,18.581c0,3.322,0.62,6.548,1.791,9.553
	L401.52,95.836c-25.364-14.396-55.477-17.011-83.015-7.114l-39.893,14.336c-22.792,8.19-48.052,6.235-69.309-5.359l-6.802-3.711
	c-27.054-14.758-58.817-16.259-87.141-4.119l-9.094,3.898L87.645,73.915c4.013-9.555,2.141-21.016-5.628-28.784l-37.16-37.16
	c-10.245-10.245-26.916-10.245-37.159,0C2.733,12.933,0,19.533,0,26.551s2.733,13.618,7.696,18.581l37.16,37.16
	c5.123,5.123,11.851,7.684,18.581,7.684c5.087,0,10.172-1.466,14.566-4.394l18.155,19.356l-0.143,0.234l6.385,14.899
	c10.314,24.065,9.038,51.05-3.499,74.035l-3.711,6.803c-13.649,25.021-15.948,54.755-6.308,81.578l14.336,39.892
	c8.644,24.052,6.059,50.417-7.091,72.333l-8.46,14.102l-12.49,15.974c-9.837-4.904-22.131-3.268-30.321,4.922L7.697,466.869
	C2.733,471.832,0,478.43,0,485.449s2.733,13.618,7.696,18.581c5.123,5.123,11.851,7.684,18.581,7.684
	c6.728,0,13.458-2.563,18.581-7.684l37.161-37.161c8.595-8.595,9.975-21.71,4.15-31.761l23.677-30.283
	c0.656-0.097,1.354-0.197,2.154-0.302c5.101-0.672,10.012-1.829,14.599-3.439c22.619-7.939,47.662-5.909,68.712,5.572l6.803,3.712
	c14.819,8.082,31.286,12.184,47.826,12.184c11.388,0,22.813-1.946,33.75-5.877l39.893-14.336
	c23.148-8.317,48.429-6.233,69.832,5.652l31.696,28.467c-1.833,3.626-2.809,7.653-2.809,11.833c0,7.019,2.733,13.618,7.696,18.581
	l37.16,37.16c5.123,5.123,11.851,7.684,18.581,7.684c6.729,0,13.459-2.562,18.582-7.684
	C514.562,493.785,514.562,477.114,504.317,466.869z M318.504,388.207l-14.403,5.176c2.373-6.273,4.097-12.732,5.159-19.287
	l18.339-6.591c-2.216,7.249-5.248,14.255-9.051,20.688C318.532,388.198,318.518,388.202,318.504,388.207z M103.011,277.407
	c-2.413-6.717-3.939-13.65-4.604-20.631l7.85-3.364c4.852-2.079,9.824-3.68,14.857-4.819c0.873,7.524,2.598,14.984,5.203,22.232
	l0.735,2.043c-3.871,1.124-7.703,2.479-11.472,4.084l-11.289,4.016L103.011,277.407z M102.786,220.683l10.98-4.706
	c3.205-1.373,6.463-2.535,9.756-3.499c-1.738,6.848-2.742,13.851-3.002,20.89c-6.842,1.352-13.602,3.425-20.175,6.242l-1.913,0.82
	C99.088,233.725,100.543,227.092,102.786,220.683z M252.143,134.686c1.449,3.381,2.662,6.823,3.654,10.301
	c-7.012-0.76-13.934-2.394-20.599-4.888c-1.11-6.445-2.864-12.828-5.265-19.063c5.958,1.216,12.012,1.886,18.084,2.003l-0.731,0.313
	L252.143,134.686z M407.22,169.709c-7.049-3.814-14.443-6.734-22.034-8.739c1.228-7.806,1.511-15.725,0.848-23.606
	c7.755,1.764,15.301,4.632,22.419,8.588C409.172,153.892,408.757,161.883,407.22,169.709z M370.401,158.244
	c-7.475-0.8-15.036-0.755-22.551,0.159c1.046-6.971,1.35-14.027,0.892-21.063c7.267-1.638,14.654-2.306,21.986-2.011
	C371.671,142.962,371.555,150.663,370.401,158.244z M379.058,308.446l-7.635-21.246c7.468,1.738,14.739,4.505,21.616,8.278
	l6.669,18.558C393.007,311.421,386.086,309.555,379.058,308.446z M154.784,305.639l-7.674-21.353
	c7.276-0.664,14.595-0.371,21.791,0.862l7.76,21.593c-7.133-0.775-14.333-0.766-21.491,0.024
	C155.042,306.39,154.919,306.013,154.784,305.639z M140.448,265.747c-2.244-6.244-3.721-12.676-4.452-19.158
	c7.569-0.336,15.15,0.354,22.563,2.06c0.813,6.973,2.365,13.89,4.666,20.636c-7.092-0.612-14.24-0.455-21.333,0.475L140.448,265.747
	z M349.428,270.032c-6.69,0.196-13.385,1.064-19.992,2.625l-1.809-5.033c-2.21-6.15-3.675-12.481-4.417-18.864
	c7.344-1.243,14.772-1.512,22.108-0.811C345.849,255.39,347.215,262.8,349.428,270.032z M229.657,320.654l-4.903-13.642
	c6.073,1.581,12.271,2.584,18.512,3.001l7.855,21.857c-6.59-0.787-13.092-2.345-19.368-4.667
	C231.128,325.008,230.435,322.823,229.657,320.654z M177.884,265.747c-1.375-3.826-2.456-7.722-3.262-11.657
	c1.914,0.869,3.808,1.804,5.673,2.821l6.802,3.711c2.956,1.613,5.98,3.059,9.055,4.354c0.632,4.859,1.629,9.687,2.983,14.445
	c-6.116-3.047-12.449-5.432-18.909-7.156L177.884,265.747z M176.044,214.168c4.008,1.459,7.939,3.224,11.759,5.307l6.803,3.712
	c1.43,0.781,2.882,1.513,4.341,2.218c-2.047,7.395-3.232,14.989-3.543,22.626c-0.372-0.196-0.747-0.388-1.117-0.59l-6.802-3.711
	c-4.734-2.582-9.615-4.749-14.594-6.518C172.88,229.438,173.94,221.682,176.044,214.168z M273.581,230.365
	c-1.725,6.548-2.776,13.242-3.147,19.978l-6.839,2.457c-5.093,1.83-10.31,3.15-15.578,3.973c0.579-7.463,2.146-14.848,4.68-21.953
	C259.749,234.091,266.749,232.611,273.581,230.365z M309.99,217.344c-1.436,6.49-2.221,13.102-2.345,19.736
	c-1.39,0.433-2.778,0.888-4.156,1.383l-17.467,6.277c0.933-7.083,2.765-14.057,5.473-20.75L309.99,217.344z M215.32,280.762
	c-1.247-3.47-2.255-6.999-3.034-10.562c6.87,1.597,13.881,2.458,20.918,2.58c0.69,7.274,2.174,14.504,4.475,21.553
	c-6.602-0.962-13.101-2.703-19.355-5.212L215.32,280.762z M232.911,257.768c-7.627-0.18-15.216-1.391-22.555-3.608
	c-0.19-7.817,0.702-15.635,2.653-23.225c7.747,2.385,15.735,3.817,23.784,4.271C234.633,242.569,233.336,250.142,232.911,257.768z
	 M252.756,292.024c-2.354-6.551-3.866-13.306-4.556-20.112c6.926-0.929,13.791-2.58,20.473-4.981l2.142-0.77
	c0.823,7.93,2.597,15.8,5.339,23.434l0.475,1.323c-7.42,2.46-15.079,3.858-22.759,4.213L252.756,292.024z M290.284,284.516
	c-2.758-7.674-4.359-15.627-4.837-23.614l23.113-8.306c0.938,6.802,2.577,13.542,4.936,20.106l1.59,4.424l-24.317,8.739
	L290.284,284.516z M322.809,233.617c0.46-7.321,1.867-14.579,4.207-21.584c7.55-1.626,15.221-2.199,22.82-1.747
	c-2.359,7.356-3.852,14.94-4.461,22.594C337.881,232.27,330.315,232.509,322.809,233.617z M323.515,184.323l-3.71,6.802
	c-1.486,2.723-2.828,5.505-4.044,8.329c-1.596,0.485-3.186,1.006-4.766,1.574l-9.624,3.458c2.952-6.015,5.268-12.236,6.944-18.581
	l17.595-6.323C325.162,181.18,324.368,182.761,323.515,184.323z M286.173,201.215l-3.71,6.802c-0.721,1.321-1.402,2.659-2.06,4.005
	l-9.3,3.342c-3.497,1.256-7.054,2.272-10.645,3.053l1.366-2.506c3.295-6.043,5.926-12.321,7.895-18.744
	c6.986-0.865,13.913-2.477,20.662-4.837C289.158,195.347,287.756,198.313,286.173,201.215z M248.645,208.722l-3.711,6.803
	c-0.868,1.592-1.69,3.203-2.465,4.832c-8.259,0.004-16.498-1.2-24.445-3.584c0.822-1.797,1.703-3.573,2.656-5.319l3.711-6.803
	c1.909-3.501,3.592-7.08,5.056-10.72c7.886,2.3,16.01,3.612,24.181,3.923C252.232,201.554,250.573,205.185,248.645,208.722z
	 M211.208,197.46l-3.711,6.803c-1.24,2.273-2.383,4.587-3.435,6.931c-0.761-0.385-1.518-0.78-2.268-1.189l-6.802-3.712
	c-4.431-2.416-8.99-4.47-13.638-6.174c0.6-1.239,1.226-2.467,1.888-3.682l3.71-6.802c2.187-4.009,4.075-8.123,5.679-12.312
	c3.463,1.339,6.868,2.907,10.185,4.717l6.802,3.711c1.896,1.034,3.82,2.002,5.767,2.905
	C214.17,191.644,212.778,194.583,211.208,197.46z M173.772,182.446l-3.71,6.802c-1.206,2.211-2.319,4.461-3.347,6.741
	c-6.467-1.301-13.03-1.95-19.604-1.941l2.406-4.411c3.142-5.761,5.678-11.738,7.615-17.847c7.031-0.429,14.083,0.025,21.01,1.361
	C176.88,176.308,175.427,179.412,173.772,182.446z M161.535,210.301c-2.077,7.475-3.272,15.153-3.574,22.876
	c-7.364-1.383-14.848-1.922-22.32-1.613c0.489-7.535,1.981-15,4.46-22.189C147.262,208.765,154.458,209.077,161.535,210.301z
	 M192.22,305.639l-5.532-15.391c2.925,1.198,5.803,2.564,8.621,4.1l6.803,3.711c1.4,0.764,2.821,1.48,4.25,2.173l6.331,17.62
	c-6.126-3.248-12.485-5.823-18.985-7.719C193.246,308.628,192.756,307.129,192.22,305.639z M255.955,347.344
	c1.671,7.5,2.305,15.123,1.921,22.684c-7.784-0.304-15.518-1.672-22.97-4.098c0.844-7.266,0.883-14.62,0.104-21.939
	C241.866,345.85,248.887,346.972,255.955,347.344z M267.091,331.915l-7.946-22.11c7.621-0.705,15.189-2.299,22.557-4.774
	l8.08,22.484c-7.341,2.629-14.938,4.2-22.574,4.742C267.168,332.143,267.132,332.029,267.091,331.915z M303.913,322.439
	l-8.066-22.442l24.317-8.739l7.668,21.337c0.132,0.366,0.251,0.742,0.377,1.112L303.913,322.439z M341.963,307.516l-7.409-20.619
	c6.663-1.431,13.42-2.044,20.139-1.856l7.976,22.195c-6.697,0.063-13.407,0.807-20.039,2.235
	C342.415,308.817,342.196,308.162,341.963,307.516z M365.556,270.873l-0.493-1.372c-2.182-6.073-3.638-12.323-4.388-18.625
	c7.009,2.022,13.808,4.959,20.224,8.808l0.5,0.3l1.825,0.74c0.62,5.13,1.64,10.228,3.064,15.249
	C379.547,273.521,372.598,271.82,365.556,270.873z M382.632,243.492c-7.172-3.668-14.68-6.428-22.37-8.257
	c0.508-7.703,2.058-15.334,4.647-22.671c7.433,1.825,14.663,4.668,21.49,8.517C384.292,228.4,383.03,235.921,382.632,243.492z
	 M357.242,193.002c-0.492,0.902-0.965,1.813-1.427,2.727c-7.084-0.79-14.249-0.815-21.381-0.064l2.264-4.151
	c3.056-5.602,5.534-11.407,7.449-17.34c7.507-1.418,15.114-1.806,22.634-1.184c-1.552,4.513-3.493,8.932-5.829,13.212
	L357.242,193.002z M331.992,161.657c-2.005,0.584-4,1.223-5.981,1.935l-14.754,5.302c0.522-6.218,0.45-12.479-0.212-18.707
	l22.856-8.214C334.041,148.577,333.407,155.179,331.992,161.657z M295.412,174.589l-9.293,3.339
	c-4.242,1.525-8.57,2.696-12.941,3.521c0.961-7.07,1.146-14.22,0.564-21.342c7.659-0.676,15.267-2.256,22.676-4.719
	C296.82,161.807,296.482,168.245,295.412,174.589z M258.687,160.302c0.709,7.553,0.384,15.153-0.95,22.617
	c-8.017,0.028-16.016-1.083-23.752-3.304c1.803-7.631,2.692-15.415,2.653-23.215C243.836,158.524,251.232,159.834,258.687,160.302z
	 M219.822,174.127c-1.011-0.501-2.018-1.015-3.012-1.558l-6.802-3.711c-4.248-2.317-8.614-4.307-13.063-5.969
	c1.675-7.694,2.414-15.535,2.226-23.376c3.799,1.416,7.527,3.112,11.153,5.091l6.803,3.712c1.397,0.762,2.814,1.477,4.239,2.169
	C221.973,158.396,221.454,166.347,219.822,174.127z M182.47,158.704c-7.187-1.503-14.498-2.2-21.814-2.082
	c1.1-7.285,1.383-14.665,0.84-22.019c7.487-0.74,15.023-0.468,22.431,0.802C184.529,143.202,184.041,151.035,182.47,158.704z
	 M145.159,158.098c-7.264,1.273-14.445,3.368-21.425,6.284c0.651-5.89,0.772-11.827,0.356-17.748l12.266-5.558
	c3.371-1.441,6.801-2.647,10.266-3.635C146.99,144.358,146.501,151.29,145.159,158.098z M120.059,182.279l8.723-3.738
	c3.716-1.592,7.501-2.906,11.33-3.947c-1.12,2.661-2.373,5.282-3.775,7.853l-3.71,6.802c-1.148,2.104-2.208,4.244-3.195,6.41
	c-5.677,1.038-11.299,2.581-16.814,4.623C115.706,194.464,118.189,188.438,120.059,182.279z M120.832,291.021l0.44-0.173
	c3.567-1.529,7.197-2.796,10.87-3.816l8.1,22.539c-4.605,1.237-9.156,2.811-13.623,4.725l-8.989,3.852
	c-0.098-0.282-0.182-0.567-0.283-0.849l-7.979-22.201L120.832,291.021z M121.536,332.811l10.998-4.713
	c3.843-1.648,7.761-2.995,11.724-4.052c1.348,7.265,1.731,14.624,1.169,21.904c-6.375,1.353-12.672,3.34-18.808,5.97l-3.38,1.449
	C123.394,346.513,122.813,339.627,121.536,332.811z M159.057,321.48c7.474-0.621,14.986-0.241,22.36,1.137
	c1.524,7.497,2.021,15.103,1.503,22.634c-7.372-1.281-14.854-1.721-22.319-1.311C160.938,336.46,160.426,328.928,159.057,321.48z
	 M197.386,327.271c3.118,1.251,6.186,2.691,9.184,4.325l6.803,3.712c1.834,1,3.693,1.939,5.575,2.816
	c1.406,7.134,1.883,14.364,1.441,21.53l-6.629-3.616c-5.205-2.839-10.586-5.183-16.081-7.038
	C198.375,341.793,198.282,334.509,197.386,327.271z M255.765,384.957c-1.827,7.798-4.772,15.378-8.819,22.519
	c-8.168-0.287-16.283-1.753-24.082-4.375c3.989-7.133,7.048-14.637,9.165-22.346C239.763,383.113,247.734,384.521,255.765,384.957z
	 M271.21,346.968c7.682-0.774,15.306-2.437,22.718-5.011c1.376,7.017,1.853,14.126,1.442,21.174l-5.499,1.976
	c-5.529,1.986-11.203,3.37-16.931,4.17C273.206,361.842,272.632,354.363,271.21,346.968z M329.765,350.771l-19.232,6.912
	c-0.04-6.961-0.814-13.94-2.329-20.831l23.258-8.358c0.808,7.008,0.734,14.37-0.181,21.756
	C330.774,350.423,330.269,350.59,329.765,350.771z M346.044,324.095c7.157-1.518,14.422-2.09,21.629-1.741
	c1.905,7.492,2.766,15.131,2.598,22.727c-7.803-0.526-15.675-0.124-23.466,1.21C347.341,338.753,347.095,331.28,346.044,324.095z
	 M383.558,324.653c7.743,1.889,15.262,4.89,22.341,8.973c1.507,7.123,2.075,14.352,1.732,21.525
	c-7.19-3.549-14.708-6.182-22.395-7.902C385.54,339.721,384.982,332.144,383.558,324.653z M405.364,370.938
	c-1.828,7.555-4.704,14.902-8.621,21.833c-6.665-3.324-13.616-5.861-20.724-7.61c3.427-7.368,5.913-15.058,7.447-22.908
	C391.048,364.094,398.415,366.996,405.364,370.938z M394.676,200.909c-1.067,1.957-2.057,3.946-2.985,5.957
	c-6.563-3.501-13.42-6.227-20.453-8.17l2.894-5.306c3.134-5.747,5.665-11.707,7.6-17.801c7.33,1.972,14.441,4.951,21.146,8.908
	c-1.289,3.265-2.782,6.475-4.491,9.61L394.676,200.909z M440.613,55.748l24.813-24.813l7.493,7.494l10.618-10.617l-7.494-7.494
	l1.73-1.731c2.194-2.195,5.078-3.293,7.962-3.293s5.769,1.098,7.963,3.293c4.391,4.391,4.391,11.536,0,15.926l-37.161,37.16
	c-4.389,4.39-11.535,4.39-15.924,0h-0.001c-2.127-2.127-3.298-4.955-3.298-7.963S438.485,57.875,440.613,55.748z M398.049,111.118
	l3.837,8.953c1.054,2.459,1.981,4.951,2.793,7.464c-6.89-2.794-14.022-4.792-21.272-5.981c-1.294-5.175-3.005-10.288-5.149-15.293
	l-2.135-5.005c6.857,2.017,13.508,4.915,19.792,8.686L398.049,111.118z M358.429,98.045l6.022,14.118
	c1.14,2.662,2.131,5.36,2.989,8.084c-6.955-0.006-13.932,0.715-20.823,2.182c-1.348-6.118-3.274-12.162-5.801-18.057l-2.315-5.401
	C345.12,97.872,351.805,97.565,358.429,98.045z M323.581,102.851c0.072-0.026,0.144-0.048,0.215-0.074l3.218,7.51
	c2.286,5.333,4,10.811,5.151,16.356l-23.881,8.582c-1.25-4.72-2.85-9.385-4.811-13.961l-4.155-9.694L323.581,102.851z
	 M283.688,117.187l1.475-0.53l4.51,10.522c1.844,4.302,3.31,8.699,4.415,13.148l-0.462,0.166c-7.233,2.6-14.716,4.173-22.239,4.745
	c-1.324-5.576-3.136-11.083-5.442-16.467l-2.821-6.582C270.081,121.264,276.976,119.599,283.688,117.187z M202.111,110.879
	c2.968,1.619,6.004,3.072,9.092,4.371l3.504,8.174c1.143,2.667,2.134,5.37,2.993,8.098l-0.185-0.101
	c-6.471-3.53-13.213-6.292-20.111-8.3c-1.14-5.911-2.821-11.761-5.052-17.486c0.992,0.492,1.98,0.998,2.958,1.532L202.111,110.879z
	 M173.157,98.808l4.115,9.602c1.608,3.751,2.933,7.572,3.979,11.438c-7.297-0.855-14.669-0.894-21.996-0.11
	c-1.338-5.84-3.203-11.61-5.618-17.242l-2.425-5.66C158.571,96.526,165.943,97.186,173.157,98.808z M121.273,103.669
	c4.738-2.03,9.589-3.605,14.5-4.739l4.063,9.479c1.968,4.593,3.512,9.291,4.638,14.048c-4.767,1.256-9.48,2.867-14.099,4.847
	l-8.601,3.896c-1.335-5.773-3.186-11.476-5.573-17.044l-3.01-7.022L121.273,103.669z M55.475,71.675L18.313,34.514
	c-2.127-2.127-3.298-4.955-3.298-7.963s1.171-5.836,3.299-7.963c2.194-2.195,5.078-3.293,7.962-3.293s5.768,1.098,7.962,3.293
	l1.73,1.731l-7.494,7.494l10.619,10.617l7.494-7.494l24.814,24.813c4.391,4.39,4.391,11.535,0.001,15.926
	C67.008,76.065,59.865,76.065,55.475,71.675z M71.4,456.252l-24.813,24.813l-7.494-7.494l-10.618,10.617l7.494,7.493l-1.73,1.731
	c-4.389,4.39-11.534,4.39-15.925,0c-2.127-2.127-3.298-4.955-3.298-7.963s1.171-5.836,3.299-7.963l37.16-37.16
	c2.194-2.195,5.078-3.293,7.962-3.293s5.769,1.098,7.963,3.293C75.791,444.716,75.791,451.862,71.4,456.252z M121.624,386.915
	c-1.827,0.642-3.727,1.192-5.687,1.65c2.385-5.865,4.181-11.908,5.404-18.049l11.192-4.797c3.295-1.412,6.646-2.599,10.032-3.578
	c-2.026,7.25-5.028,14.283-9.003,20.907l0.618,0.37C129.945,384.308,125.75,385.468,121.624,386.915z M154.657,381.295
	c-1.076,0-2.153,0.033-3.23,0.067c3.324-7.157,5.762-14.618,7.301-22.232c7.289-0.634,14.617-0.31,21.82,0.958
	c-1.98,7.843-5.097,15.453-9.335,22.596C165.742,381.766,160.205,381.295,154.657,381.295z M186.324,386.444
	c3.842-7.18,6.754-14.716,8.727-22.448c3.926,1.442,7.777,3.18,11.52,5.222l6.802,3.711c1.507,0.822,3.034,1.591,4.573,2.33
	c-1.921,7.548-4.898,14.875-8.912,21.778l-6.533-3.565C197.293,390.633,191.876,388.296,186.324,386.444z M264.342,406.297
	c3.128-7.003,5.417-14.283,6.854-21.705c7.247-0.729,14.444-2.255,21.461-4.587c-1.902,7.113-4.753,14.02-8.524,20.553l-5.523,1.985
	C273.94,404.222,269.165,405.467,264.342,406.297z M337.79,383.363c2.951-6.875,5.215-14.047,6.77-21.313
	c7.942-1.833,16.029-2.497,24.037-2.021c-1.588,7.798-4.28,15.404-8.069,22.598C352.978,382.002,345.353,382.245,337.79,383.363z
	 M493.7,493.411c-4.392,4.39-11.536,4.391-15.926,0l-1.73-1.731l7.494-7.493L472.92,473.57l-7.493,7.494l-24.814-24.814
	c-2.127-2.127-3.298-4.955-3.298-7.963s1.171-5.836,3.298-7.963h0.001c2.194-2.195,5.078-3.293,7.962-3.293
	c2.884,0,5.768,1.098,7.962,3.293l37.161,37.16C498.09,481.877,498.09,489.021,493.7,493.411z"/>
<rect x="422.294" y="229.25" style="fill:#1FB5F3;" width="15.015" height="15.015"/>
<rect x="437.309" y="244.265" style="fill:#B9ECFF;" width="15.015" height="15.015"/>
<rect x="467.339" y="313.715" style="fill:#0083AD;" width="15.015" height="15.015"/>
<rect x="219.59" y="71.592" style="fill:#1FB5F3;" width="15.015" height="15.015"/>
<rect x="234.606" y="52.827" style="fill:#7FDDFF;" width="15.015" height="15.015"/>
<g>
	<rect x="315.317" y="32.182" style="fill:#1FB5F3;" width="15.015" height="15.015"/>
	<rect x="60.06" y="156.057" style="fill:#1FB5F3;" width="15.015" height="15.015"/>
</g>
<rect x="35.661" y="199.22" style="fill:#0083AD;" width="15.015" height="15.015"/>
<rect x="16.892" y="214.235" style="fill:#7FDDFF;" width="15.015" height="15.015"/>
<rect x="167.038" y="424.446" style="fill:#B9ECFF;" width="15.015" height="15.015"/>
<rect x="182.053" y="446.969" style="fill:#1FB5F3;" width="15.015" height="15.015"/>
<rect x="275.897" y="476.999" style="fill:#B9ECFF;" width="15.015" height="15.015"/>
<g>
</g>
<g>
</g>
<g>
</g>
<g>
</g>
<g>
</g>
<g>
</g>
<g>
</g>
<g>
</g>
<g>
</g>
<g>
</g>
<g>
</g>
<g>
</g>
<g>
</g>
<g>
</g>
<g>
</g>
</svg>
