<svg id="Capa_1" enable-background="new 0 0 511.985 511.985" viewBox="0 0 511.985 511.985" xmlns="http://www.w3.org/2000/svg"><g><path d="m211.493 385.194c12.695 5.04 25.766 9.08 39.101 12.064l70.937-40.962-110.038-54.423z" fill="#3792db"/><path d="m157.151 274.995-51.925 51.925 66.637 38.473c12.666 7.753 25.929 14.361 39.631 19.801l77.723-44.88z" fill="#1fb0f0"/><path d="m283.624 114.729c-18.04 1.661-35.793 5.207-52.995 10.52v92.002l165.01-56.124z" fill="#3792db"/><path d="m230.628 125.249c-20.536 6.343-40.285 15.215-58.765 26.527l-66.638 38.542 51.925 51.925 195.441-66.475z" fill="#1fb0f0"/><path d="m39.32 166.76c-8.439-8.439-19.885-13.18-31.82-13.18v10.121c0 35.601 14.142 69.743 39.315 94.917-25.173 25.174-39.315 59.319-39.315 94.919v10.043c11.935 0 23.381-4.741 31.82-13.18l38.972-38.972.043-105.653z" fill="#1fb0f0"/><path d="m120.189 300.976.043-84.749c-11.759 6.789-26.612 4.834-36.213-4.768l-5.684-5.684-1.52.878c-18.785 10.846-30 30.271-30 51.962.002 21.694 11.217 41.116 30 51.961l1.476.852 5.684-5.684c9.602-9.601 24.455-11.557 36.214-4.768z" fill="#3792db"/><path d="m502.162 250.571c-18.083-28.457-42.246-52.677-70.663-70.839l.007 157.762c28.413-18.163 52.574-42.383 70.656-70.838 3.117-4.904 3.117-11.18 0-16.085z" fill="#0cc9fa"/><path d="m474.5 258.616c0-31.894-16.14-61.694-43.001-78.884-35.762-22.856-78.261-36.114-123.878-36.114-44.152 0-85.385 12.418-120.413 33.939l-95.392 55.075c-20 11.547-20 40.415 0 51.962l95.291 55.016c35.051 21.562 76.32 34.008 120.515 34.008 45.62 0 88.122-13.263 123.886-36.124 26.854-17.19 42.992-46.986 42.992-78.878z" fill="#57dcff"/><path d="m223.449 303.585c23.598 23.597 58.669 28.621 87.165 15.096v-30.191c-28.496-13.526-63.567-8.503-87.165 15.095z" fill="#0cc9fa"/><path d="m310.614 288.486c-10.974-5.2-23.614 2.956-23.614 15.099s12.641 20.298 23.614 15.099c7.733-3.664 14.982-8.695 21.386-15.099-6.403-6.403-13.652-11.435-21.386-15.099z" fill="#1fb0f0"/><circle cx="392" cy="258.585" fill="#fff" r="45"/><circle cx="392" cy="258.585" fill="#515985" r="15"/><path d="m508.492 246.549c-21.077-33.168-50.311-60.864-84.543-80.094-9.804-5.508-19.987-10.292-30.453-14.334l-107.003-44.322c-1.125-.465-2.347-.654-3.558-.539-40.559 3.733-80.292 16.898-114.908 38.07l-66.558 38.496c-2.018 1.167-3.378 3.205-3.681 5.516-.304 2.311.485 4.631 2.133 6.279l14.952 14.951c-8.521 4.042-18.795 2.341-25.552-4.416l-44.699-44.699c-9.914-9.916-23.098-15.377-37.122-15.377-4.142 0-7.5 3.358-7.5 7.5v10.121c0 35.409 12.898 68.838 36.471 94.918-23.573 26.08-36.471 59.509-36.471 94.918v10.043c0 4.142 3.358 7.5 7.5 7.5 14.023 0 27.207-5.461 37.123-15.377l44.656-44.656c6.771-6.77 17.072-8.462 25.603-4.389l-14.96 14.96c-1.649 1.649-2.437 3.971-2.133 6.282.305 2.312 1.667 4.351 3.686 5.516l66.555 38.425c25.023 15.306 52.25 26.319 80.926 32.736.542.122 1.09.181 1.638.181 1.307 0 2.602-.342 3.75-1.005l39.859-23.017c4.459.25 8.932.383 13.417.383 35.232 0 69.156-7.528 100.829-22.375 3.75-1.758 5.366-6.224 3.608-9.974s-6.223-5.366-9.974-3.608c-29.666 13.906-61.447 20.957-94.462 20.957-41.288 0-81.602-11.375-116.585-32.896-.06-.037-.119-.072-.18-.107l-95.291-55.016c-7.044-4.067-11.25-11.351-11.25-19.485s4.206-15.418 11.25-19.486l82.402-47.575c3.587-2.071 4.816-6.658 2.745-10.245s-6.658-4.816-10.245-2.745l-42.089 24.3-10.943-10.943 58.184-33.652c.054-.031.107-.063.161-.096 32.166-19.689 69.02-32.05 106.7-35.8l33.559 13.901c-2.802-.099-5.608-.154-8.417-.154-38.612 0-76.955 9.467-110.883 27.378-3.663 1.934-5.065 6.471-3.131 10.134s6.471 5.066 10.134 3.131c31.778-16.775 67.699-25.643 103.88-25.643 76.68 0 147.039 38.682 188.211 103.475 1.552 2.442 1.552 5.599 0 8.041-17.382 27.354-41.011 51.048-68.332 68.521-3.49 2.231-4.51 6.87-2.278 10.359 1.431 2.238 3.852 3.46 6.325 3.46 1.383 0 2.783-.382 4.034-1.183 29.151-18.642 54.363-43.924 72.911-73.112 4.657-7.331 4.657-16.802-.001-24.132zm-380.108 67.819 54.882 31.687c26.302 16.164 55.42 26.95 85.73 31.916l-19.598 11.317c-26.056-6.144-50.81-16.327-73.621-30.291-.055-.034-.11-.066-.166-.099l-58.172-33.585zm-40.319-88.23c-11.741 6.779-18.75 18.919-18.75 32.477 0 13.557 7.009 25.697 18.75 32.475l2.405 1.388c-4.316 1.836-8.335 4.499-11.798 7.962l-44.656 44.656c-5.281 5.281-11.859 8.793-19.017 10.238v-1.797c0-33.852 13.183-65.678 37.12-89.615 2.929-2.929 2.929-7.678 0-10.606-23.936-23.937-37.119-55.764-37.119-89.615v-1.875c7.157 1.445 13.736 4.957 19.017 10.238l44.699 44.699c3.464 3.465 7.487 6.122 11.805 7.958z"/><path d="m218.146 298.282c-1.407 1.406-2.197 3.314-2.197 5.303s.79 3.897 2.197 5.303c16.426 16.426 38.002 24.639 59.579 24.639 21.576 0 43.153-8.213 59.579-24.639 1.407-1.406 2.197-3.314 2.197-5.303s-.79-3.897-2.197-5.303c-15.926-15.926-37.084-24.697-59.579-24.697s-43.654 8.771-59.579 24.697zm16.546 5.299c12.206-9.721 27.218-14.997 43.032-14.997s30.826 5.275 43.032 14.997c-25.106 19.937-60.957 19.937-86.064 0z"/><path d="m444.5 258.585c0-28.949-23.551-52.5-52.5-52.5s-52.5 23.551-52.5 52.5 23.551 52.5 52.5 52.5 52.5-23.551 52.5-52.5zm-52.5 37.5c-20.678 0-37.5-16.822-37.5-37.5s16.822-37.5 37.5-37.5 37.5 16.822 37.5 37.5-16.822 37.5-37.5 37.5z"/><path d="m392 236.085c-12.407 0-22.5 10.093-22.5 22.5s10.093 22.5 22.5 22.5 22.5-10.093 22.5-22.5-10.093-22.5-22.5-22.5zm0 30c-4.136 0-7.5-3.364-7.5-7.5s3.364-7.5 7.5-7.5 7.5 3.364 7.5 7.5-3.364 7.5-7.5 7.5z"/></g><g/><g/><g/><g/><g/><g/><g/><g/><g/><g/><g/><g/><g/><g/><g/></svg>