<svg height="479pt" viewBox="0 -99 479.9896 479" width="479pt" xmlns="http://www.w3.org/2000/svg"><path d="m399.988281 160.496094-93.78125 46.886718c-33.027343 16.515626-69.441406 25.113282-106.363281 25.113282h-5.335938c-130.519531 0-186.519531-72-186.519531-72l6-12.496094 50 12.496094-48-24c40-48 115.441407-80 178.519531-80 35.214844-.003906 69.992188 7.816406 101.816407 22.894531l103.664062 49.105469zm0 0" fill="#e0e0de"/><path d="m326.605469 93.734375c-67.761719 72.121094-188.800781 99.050781-263.015625 109.007813 40.582031 20.378906 85.511718 30.589843 130.917968 29.753906h5.335938c36.9375.003906 73.367188-8.59375 106.402344-25.113282l93.742187-46.886718v-32zm0 0" fill="#d6d6d4"/><path d="m399.988281 128.496094-103.664062-49.105469c-31.824219-15.078125-66.601563-22.898437-101.816407-22.894531-63.078124 0-138.519531 32-178.519531 80l16 8h368zm0 0" fill="#348fd9"/><path d="m399.988281 128.496094 15.753907-35.449219c9.886718-22.21875 31.925781-36.539063 56.246093-36.550781l-32 88 32 88c-24.320312-.011719-46.359375-14.332032-56.246093-36.550782l-15.753907-35.449218zm0 0" fill="#3d4d63"/><path d="m87.988281 136.496094c-8.835937 0-16-7.164063-16-16 0-8.835938 7.164063-16 16-16 8.835938 0 16 7.164062 16 16 0 8.835937-7.164062 16-16 16zm0-16" fill="#3d4d63"/><path d="m113.332031 199.511719-7.6875-14.03125 6.296875-3.457031c13.589844-8.0625 21.8125-22.792969 21.542969-38.589844.0625-11.292969-4.042969-22.210938-11.527344-30.664063l-10.398437-11.386719 11.832031-10.773437 10.398437 11.382813c10.222657 11.371093 15.820313 26.152343 15.695313 41.441406.402344 21.675781-11.042969 41.847656-29.855469 52.621094zm0 0" fill="#2a71ad"/><path d="m167.988281 144.496094v24l40 16 64-40zm0 0" fill="#3d4d63"/><path d="m12.410156 143.648438 7.15625-14.3125 63.996094 32-7.152344 14.3125zm0 0" fill="#2a71ad"/><g fill="#ffb531"><path d="m194.507812 56.496094c6.273438 0 12.519532.335937 18.753907.800781 6.449219-17.191406 14.882812-33.566406 25.128906-48.800781-25.242187-.003906-49.066406 11.652344-64.5625 31.574218l-17.472656 19.5625c12.613281-2.070312 25.371093-3.117187 38.152343-3.136718zm0 0"/><path d="m149.804688 242.703125c15.496093 19.921875 39.320312 31.574219 64.558593 31.578125-9.480469-12.742188-16.957031-26.859375-22.15625-41.867188-18.199219-.09375-36.351562-1.753906-54.265625-4.957031zm0 0"/><path d="m319.988281 256.496094c-10.609375-13.304688-19.847656-27.648438-27.574219-42.808594-11.917968 5.039062-24.222656 9.097656-36.800781 12.136719 15.113281 14.390625 43.214844 30.671875 64.375 30.671875zm0 0"/></g><path d="m367.121094 113.011719 9.664062-20.003907 14.40625 6.960938-9.664062 20.003906zm0 0" fill="#3086cd"/><path d="m340.964844 100 9.996094-18.339844 14.050781 7.65625-9.996094 18.34375zm0 0" fill="#3086cd"/><path d="m315.804688 88.300781 9.339843-18.996093 14.359375 7.0625-9.34375 18.996093zm0 0" fill="#3086cd"/><path d="m319.988281 27.953125c-24.085937 0-46.808593 18.710937-62.304687 37.007813.335937.117187.671875.261718 1.015625.382812 12.34375 3.460938 24.382812 7.917969 36 13.328125 6.921875-17.617187 15.382812-34.589844 25.289062-50.71875zm0 0" fill="#ffb531"/><path d="m326.605469 93.734375c-19.796875 20.410156-42.707031 37.542969-67.878907 50.761719h141.261719v-16zm0 0" fill="#3086cd"/><path d="m478.542969 51.910156c-1.496094-2.136718-3.941407-3.414062-6.554688-3.414062-27.480469.015625-52.378906 16.195312-63.550781 41.304687l-12.433594 28-10.910156-5.167969 6.09375-12.609374-14.398438-6.976563-6.152343 12.738281-11.582031-5.488281 5.957031-10.929687-14.046875-7.664063-6.398438 11.738281-10.898437-5.160156 5.832031-11.882812-14.351562-7.101563-5.941407 12.078125-14.058593-6.65625c5.800781-14.601562 12.910156-28.648438 21.242187-41.96875 1.816406-2.421875 2.109375-5.664062.753906-8.375s-4.125-4.421875-7.15625-4.421875c-27.808593 0-51.757812 21.207031-65.207031 36.175781-9.878906-2.507812-19.902344-4.402344-30.015625-5.679687 5.371094-13.042969 12.082031-25.496094 20.023437-37.152344 1.816407-2.425781 2.109376-5.667969.753907-8.378906-1.355469-2.710938-4.125-4.421875-7.152344-4.421875-27.546875-.128906-53.597656 12.515625-70.539063 34.238281l-16.238281 18.203125c-54.878906 10.757812-110.105469 40.4375-141.777343 78.429688-1.558594 1.882812-2.175782 4.375-1.679688 6.769531.242188 1.15625.734375 2.25 1.441406 3.199219-1.214844.789062-2.1875 1.894531-2.816406 3.199218l-5.992188 12.496094c-1.3125 2.738281-.96875 5.980469.894532 8.375 1.976562 2.546875 42.203125 52.5625 131.898437 69.464844l9.910157 12.753906c16.960937 21.933594 43.152343 34.742188 70.882812 34.65625 3.027344 0 5.796875-1.714844 7.152344-4.421875 1.355468-2.710937 1.0625-5.957031-.753906-8.378906-6.730469-9.011719-12.386719-18.78125-16.847657-29.105469 16.648438-.28125 33.226563-2.253906 49.480469-5.886719 17.4375 15.351563 44.734375 30.007813 66.582031 30.007813 3.03125 0 5.800781-1.710938 7.15625-4.421875 1.355469-2.710938 1.0625-5.953125-.753906-8.378907-8.386719-10.90625-16.113281-22.304687-23.136719-34.136718 2.175782-1.007813 4.375-1.949219 6.527344-3.023438l86.289062-43.144531 12.359376 27.792969c11.171874 25.113281 36.074218 41.300781 63.558593 41.3125 2.609375-.003906 5.054688-1.277344 6.550781-3.414063 1.496094-2.136719 1.855469-4.871093.960938-7.320312l-31-85.265625 31-85.265625c.902344-2.449219.542969-5.183594-.957031-7.320313zm-206.402344 9.167969c9-9.523437 19.902344-17.046875 32-22.085937-4.800781 9.207031-9.40625 19.769531-13.496094 29.09375-.253906-.109376-.527343-.183594-.800781-.292969-5.464844-2.292969-11.007812-4.394531-16.621094-6.304688-.433594-.121093-.761718-.289062-1.121094-.410156zm-95.785156-11.886719 3.761719-4.207031c10.585937-13.738281 25.707031-23.265625 42.664062-26.886719-5.492188 9.957032-10.414062 20.222656-14.742188 30.742188-1.226562-.070313-2.449218-.054688-3.675781-.105469-2.949219-.132813-5.804687-.214844-8.542969-.238281-.4375 0-.878906 0-1.320312 0-.214844 0-.4375 0-.664062 0-5.902344 0-11.558594.246094-17.480469.695312zm-19.863281 189.089844c.800781.085938 1.601562.125 2.402343.214844 5.949219.625 12.046875 1.113281 18.398438 1.414062 3.113281.160156 6.214843.355469 9.367187.425782 3.230469 8.371093 7.136719 16.464843 11.679688 24.199218-16.566406-3.640625-31.359375-12.921875-41.847656-26.253906zm132-14.34375c4.003906 7.210938 8.402343 14.195312 13.175781 20.917969-10.320313-3.808594-20.078125-8.996094-29.007813-15.421875 1.050782-.320313 2.058594-.738282 3.097656-1.074219 3.679688-1.191406 7.328126-2.398437 10.941407-3.808594.570312-.214843 1.179687-.390625 1.769531-.613281zm14.160156-23.707031c-4.511719 2.257812-9.121094 4.320312-13.785156 6.273437-4.972657 2.097656-10.054688 4-15.199219 5.695313-1.292969.441406-2.582031.863281-3.886719 1.28125-4.902344 1.597656-9.839844 2.992187-14.816406 4.214843-18.035156 4.484376-36.542969 6.769532-55.128906 6.800782h-5.335938c-.734375 0-1.414062-.054688-2.152344-.0625h-.085937c-1.847657 0-3.664063-.105469-5.496094-.152344-2.824219-.066406-5.671875-.113281-8.425781-.25-3.511719-.167969-6.992188-.429688-10.453125-.726562-1.449219-.113282-2.890625-.25-4.3125-.386719-8.113281-.796875-16.152344-1.871094-24.21875-3.316407-.21875-.015624-.441407-.015624-.664063 0-71.695312-13.152343-110.398437-48.914062-121.199218-60.394531l.898437-1.910156 42.789063 10.695313 15.242187 7.625 7.152344-14.320313-16-8-38.65625-19.28125c35.734375-37.519531 96.070312-64.855469 151.519531-68.9375 4.710938-.292969 9.429688-.582031 14.0625-.582031 3.242188 0 6.472656.136718 9.714844.273437 2.503906.125 5.101562.277344 7.941406.503907 15.175781 1.164062 30.195312 3.820312 44.847656 7.925781 5.273438 1.488281 10.511719 3.199219 15.722656 5.105469 1.015626.367187 2.015626.800781 3.03125 1.136718 5.238282 1.992188 10.457032 4.109375 15.558594 6.488282.519532.238281 1.058594.445312 1.601563.695312l99.070312 46.933594v21.992187zm129.847656-58.46875c-.65625 1.761719-.65625 3.703125 0 5.46875l27.609375 75.921875c-16.453125-3.753906-30.171875-15.042969-37.023437-30.464844l-15.097657-33.886719v-28.609375l15.074219-33.886718c6.851562-15.421876 20.570312-26.710938 37.023438-30.464844zm0 0"/><path d="m103.988281 120.496094c0 8.835937-7.164062 16-16 16-8.835937 0-16-7.164063-16-16 0-8.835938 7.164063-16 16-16 8.835938 0 16 7.164062 16 16zm0 0"/><path d="m123.40625 90.609375-11.832031 10.773437 10.398437 11.386719c7.484375 8.453125 11.589844 19.371094 11.527344 30.664063.269531 15.796875-7.953125 30.527344-21.542969 38.589844l-6.296875 3.457031 7.6875 14.03125 6.296875-3.457031c18.8125-10.773438 30.257813-30.945313 29.855469-52.621094.125-15.289063-5.472656-30.070313-15.695312-41.441406zm0 0"/><path d="m271.988281 136.496094h-104v16h76.113281l-36.914062 23.0625-36.230469-14.496094-5.9375 14.867188 40 16c.945313.375 1.953125.570312 2.96875.566406 1.5-.003906 2.96875-.425782 4.242188-1.214844l64-40c3.023437-1.894531 4.433593-5.558594 3.449219-8.992188-.984376-3.429687-4.121094-5.792968-7.691407-5.792968zm0 0"/></svg>