<svg id="color_line" height="512" viewBox="0 0 64 64" width="512" xmlns="http://www.w3.org/2000/svg"><circle cx="4" cy="15" fill="#38aaff" r="2"/><circle cx="5" cy="5" fill="#38aaff" r="4"/><path d="m28.64 41.48c.63 2.73-1.58 5.83-6.64 7.52-4.38 1.46-5.56-5.08-5.88-8.71-.07-.84.17-1.65.66-2.28.3-.41.7-.74 1.17-.98l1-.51c.71-.35 1.51-.44 2.28-.25 1.87.46 5.34 1.59 6.77 3.73.31.47.53.96.64 1.47.01 0 .01 0 0 .01z" fill="#cab097"/><path d="m16.774 38.02c-.485.629-.723 1.434-.654 2.27.32 3.63 1.5 10.17 5.88 8.71 2.059-.688 3.637-1.61 4.753-2.645-4.557-.256-8.321-3.8-9.979-8.335z" fill="#a67c52"/><path d="m63 28.48v13.04c0 1.16-1.2 1.93-2.25 1.44l-9.07-4.18c.03-.17.06-.35.08-.52.16-1.06.24-2.15.24-3.26 0-1.29-.11-2.56-.32-3.78l9.07-4.18c1.05-.49 2.25.28 2.25 1.44z" fill="#cab097"/><path d="m51.994 35.17c-.008 1.051-.082 2.085-.234 3.09-.02.17-.05.35-.08.52l9.07 4.18c1.05.49 2.25-.28 2.25-1.44v-6.869c-.63.47-1.289.923-2 1.349-3.08 1.232-6.16.564-9.006-.83z" fill="#a67c52"/><path d="m53.75 25.08-2.39 4.6c.12.51.23 1.02.32 1.54.21 1.22.32 2.49.32 3.78 0 1.11-.08 2.2-.24 3.26-9.45 6.55-16.69 6.36-23.12 3.22.01-.01.01-.01 0-.01-.11-.51-.33-1-.64-1.47-1.43-2.14-4.9-3.27-6.77-3.73-.77-.19-1.57-.1-2.28.25l-1 .51c-.47.24-.87.57-1.17.98-3.82-.06-7.55.45-9.46.76-.11-.59-.18-1.18-.24-1.78-.05-.66-.08-1.32-.08-1.99 0-.24 0-.47.02-.7.08-2.82.69-5.5 1.71-7.97l-1.73-4.33h4.14c.85-1.19 1.8-2.3 2.86-3.3v-4.7l4.06 1.63c1-.59 2.04-1.1 3.12-1.53l.82-4.1 3.56 2.85c.71-.12 1.42-.22 2.15-.27l2.29-4.58 3.21 4.81c1.03.17 2.04.41 3.02.72l5.88-3.24-.1 6.01c.73.49 1.43 1.03 2.1 1.6l5.4-1.06-2.41 4.15c.91 1.14 1.7 2.36 2.38 3.66zm-35.75 5.92c0-1.66-1.34-3-3-3s-3 1.34-3 3 1.34 3 3 3 3-1.34 3-3z" fill="#fab03c"/><path d="m49.48 24.65c-.68-1.3-1.47-2.52-2.38-3.66l2.41-4.15-.067.013c-3.409 1.128-5.946 2.63-5.443 5.147 1 10-4 17-14 15-3.937-.908-8.332-2.549-12.769-4.009-.549.615-1.34 1.009-2.231 1.009-1.515 0-2.751-1.12-2.957-2.576-1.541-.412-3.067-.758-4.561-.999-.26 1.257-.424 2.549-.461 3.875-.021.23-.021.46-.021.7 0 .67.03 1.33.08 1.99.06.6.13 1.19.24 1.78 1.91-.31 5.64-.82 9.46-.76.3-.41.7-.74 1.17-.98l1-.51c.71-.35 1.51-.44 2.28-.25 1.87.46 5.34 1.59 6.77 3.73.31.47.53.96.64 1.47.01 0 .01 0 0 .01 6.43 3.14 13.67 3.33 23.12-3.22.16-1.06.24-2.15.24-3.26 0-1.29-.11-2.56-.32-3.78-.09-.52-.2-1.03-.32-1.54l2.39-4.6z" fill="#fd8f3e"/><path d="m51.27 40.68 2.43 6.01-4.61-.63c-1.12 1.98-2.52 3.76-4.16 5.31l-.32 5.83-4.05-2.61c-1.18.67-2.44 1.24-3.74 1.69l-3.82 5.72-2.27-4.53c-.41.02-.82.03-1.23.03-.68 0-1.35-.04-2.01-.09l-4.49 3.59-.95-4.77c-.86-.3-1.7-.65-2.5-1.05l-4.55 1.82v-4.8c-1.14-.96-2.18-2.03-3.11-3.2h-3.89l1.49-3.72c-.79-1.53-1.42-3.17-1.83-4.88-.14-.54-.25-1.08-.34-1.63 1.91-.31 5.64-.82 9.46-.76-.49.63-.73 1.44-.66 2.28.32 3.63 1.5 10.17 5.88 8.71 5.06-1.69 7.27-4.79 6.64-7.52 6.43 3.14 13.67 3.33 23.12-3.22-.02.17-.05.35-.08.52-.11.64-.24 1.28-.41 1.9z" fill="#f8f4e8"/><path d="m51.68 38.78c.03-.17.06-.35.08-.52-.991.687-1.953 1.284-2.897 1.827-6.58 8.338-16.132 14.446-26.863 12.913-6.212-1.775-9.273-8.274-11.98-14.607-1.08.128-2.011.265-2.7.377.09.55.2 1.09.34 1.63.41 1.71 1.04 3.35 1.83 4.88l-1.49 3.72h3.89c.93 1.17 1.97 2.24 3.11 3.2v4.8l4.55-1.82c.8.4 1.64.75 2.5 1.05l.95 4.77 4.49-3.59c.66.05 1.33.09 2.01.09.41 0 .82-.01 1.23-.03l2.27 4.53 3.82-5.72c1.3-.45 2.56-1.02 3.74-1.69l4.05 2.61.32-5.83c1.64-1.55 3.04-3.33 4.16-5.31l4.61.63-2.43-6.01c.17-.62.3-1.26.41-1.9z" fill="#d6d4ce"/><circle cx="15" cy="31" fill="#f8f4e8" r="3"/><path d="m18 31c0 1.66-1.34 3-3 3-1.36 0-2.5-.89-2.87-2.13.27.08.57.13.87.13 1.66 0 3-1.34 3-3 0-.3-.05-.6-.13-.87 1.24.37 2.13 1.51 2.13 2.87z" fill="#d6d4ce"/><path d="m7.32 38.77c.09.55.2 1.09.34 1.63-1.8 1.23-4.08 1.76-4.66.6-1.34-2.68 3-4 3-4l.01-.05c.59.05.99.05.99.05l.08-.01c.06.6.13 1.19.24 1.78z" fill="#7d7d7d"/><path d="m7.08 36.99-.08.01s-.4 0-.99-.05c-1.65-.15-4.75-.73-4.01-2.95.72-2.16 3.51-.69 5.02.3-.02.23-.02.46-.02.7 0 .67.03 1.33.08 1.99z" fill="#f8f4e8"/><circle cx="4" cy="4" fill="#60daff" r="1"/><g fill="#2e2442"><circle cx="15" cy="31" r="1"/><path d="m16.707 24.707 2.138-2.137 1.323 1.985c.192.289.51.445.833.445.19 0 .383-.054.554-.168.46-.306.584-.927.277-1.387l-2-3c-.166-.25-.436-.411-.733-.44-.301-.031-.594.077-.806.288l-3 3c-.391.391-.391 1.023 0 1.414s1.023.391 1.414 0z"/><path d="m27.707 20.707 2.138-2.137 1.323 1.985c.192.289.51.445.833.445.19 0 .383-.054.554-.168.46-.306.584-.927.277-1.387l-2-3c-.166-.25-.436-.411-.733-.44-.304-.03-.594.077-.806.288l-3 3c-.391.391-.391 1.023 0 1.414s1.023.391 1.414 0z"/><path d="m38.707 25.707 2.138-2.137 1.323 1.985c.192.289.51.445.833.445.19 0 .383-.054.554-.168.46-.306.584-.927.277-1.387l-2-3c-.166-.25-.436-.411-.733-.44-.302-.032-.594.077-.806.288l-3 3c-.391.391-.391 1.023 0 1.414s1.023.391 1.414 0z"/><path d="m41.293 33.707c.391.391 1.023.391 1.414 0l2.138-2.137 1.323 1.985c.192.289.51.445.833.445.19 0 .383-.054.554-.168.46-.306.584-.927.277-1.387l-2-3c-.166-.25-.436-.411-.733-.44-.303-.029-.594.077-.806.288l-3 3c-.391.391-.391 1.023 0 1.414z"/><path d="m31.962 35.625c-.391.391-.391 1.023 0 1.414s1.023.391 1.414 0l2.138-2.137 1.323 1.985c.192.289.51.445.833.445.19 0 .383-.054.554-.168.46-.306.584-.927.277-1.387l-2-3c-.166-.25-.436-.411-.733-.44-.301-.029-.594.077-.806.288z"/><path d="m34.293 48.293-2.138 2.137-1.323-1.985c-.306-.459-.927-.585-1.387-.277-.46.306-.584.927-.277 1.387l2 3c.166.25.436.411.733.44.034.004.067.005.099.005.264 0 .519-.104.707-.293l3-3c.391-.391.391-1.023 0-1.414s-1.023-.391-1.414 0z"/><path d="m44.431 45.098c-.498-.24-1.095-.027-1.333.472l-1.303 2.728-1.909-1.431c-.443-.332-1.068-.24-1.4.201-.331.442-.241 1.069.201 1.4l2.886 2.162c.175.131.386.2.6.2.08 0 .16-.01.239-.029.29-.072.534-.27.663-.541l1.828-3.829c.238-.498.027-1.096-.472-1.333z"/><path d="m32.099 24.005c-.304-.028-.594.077-.806.288l-3 3c-.391.391-.391 1.023 0 1.414s1.023.391 1.414 0l2.138-2.137 1.323 1.985c.192.289.51.445.833.445.19 0 .383-.054.554-.168.46-.306.584-.927.277-1.387l-2-3c-.166-.249-.436-.411-.733-.44z"/><path d="m15 35c2.206 0 4-1.794 4-4s-1.794-4-4-4-4 1.794-4 4 1.794 4 4 4zm0-6c1.103 0 2 .897 2 2s-.897 2-2 2-2-.897-2-2 .897-2 2-2z"/><path d="m62.802 26.295c-.747-.476-1.673-.536-2.471-.164l-7.891 3.637 2.202-4.227c.153-.294.15-.646-.007-.938-.158-.292-.45-.486-.78-.52l-3.746-.375c-.535-.974-1.14-1.911-1.805-2.797l2.068-3.575c.197-.34.177-.763-.052-1.083-.228-.319-.623-.474-1.007-.399l-4.925.97c-.451-.371-.908-.721-1.368-1.045l.091-5.47c.006-.356-.179-.689-.483-.873-.308-.184-.686-.191-.998-.02l-5.513 3.029c-.749-.218-1.525-.402-2.316-.548l-2.969-4.453c-.198-.296-.521-.471-.895-.443-.355.022-.673.232-.832.551l-2.04 4.079c-.411.042-.821.096-1.227.159l-3.214-2.572c-.274-.218-.641-.279-.967-.159-.328.119-.57.401-.639.743l-.715 3.571c-.794.338-1.571.72-2.321 1.142l-3.612-1.445c-.305-.122-.655-.085-.932.101-.273.187-.438.497-.438.829v4.276c-.857.846-1.651 1.76-2.368 2.724h-3.632c-.332 0-.642.165-.828.439s-.224.624-.101.932l1.583 3.958c-.805 2.027-1.313 4.137-1.53 6.299-1.427-.71-2.61-.911-3.527-.594-.514.179-1.199.61-1.546 1.65-.375 1.124-.04 1.933.307 2.414.424.588 1.094.993 1.828 1.274-.495.399-.946.885-1.206 1.488-.354.822-.311 1.717.125 2.587.277.554.765.935 1.41 1.102.251.065.516.095.789.095.894 0 1.873-.318 2.735-.737.36 1.165.807 2.308 1.353 3.42l-1.321 3.301c-.123.308-.085.657.101.932s.496.44.828.44h3.417c.792.953 1.658 1.844 2.583 2.658v4.342c0 .332.165.642.439.828.275.186.626.222.932.101l4.141-1.656c.541.254 1.098.49 1.664.705l.844 4.219c.068.342.311.624.639.743.327.118.693.059.967-.159l4.182-3.346c.818.061 1.569.078 2.321.056l1.978 3.956c.159.319.477.529.832.551.02.002.04.002.061.002.333 0 .646-.166.832-.445l3.631-5.445c1.05-.379 2.076-.834 3.06-1.357l3.544 2.288c.298.193.68.212.996.051.317-.162.525-.481.544-.837l.297-5.435c1.435-1.4 2.682-2.971 3.716-4.68l3.941.539c.358.049.705-.094.925-.376.219-.281.271-.658.139-.988l-2.299-5.704c.032-.13.054-.263.084-.393l7.918 3.649c.349.163.721.244 1.092.244.481 0 .961-.136 1.383-.405.749-.479 1.197-1.295 1.197-2.186v-13.04c0-.891-.448-1.707-1.198-2.185zm-53.141-.334-1.184-2.961h2.665c.324 0 .628-.157.815-.421.804-1.133 1.723-2.194 2.732-3.155.199-.189.311-.451.311-.725v-3.222l2.691 1.077c.287.115.613.09.88-.068.948-.56 1.95-1.052 2.979-1.461.314-.125.544-.401.61-.733l.497-2.484 2.279 1.824c.225.18.512.255.8.204.672-.119 1.362-.207 2.052-.261.35-.028.659-.236.816-.55l1.519-3.036 2.25 3.375c.153.23.396.387.668.432.997.166 1.97.396 2.89.684.26.083.543.055.78-.078l4.371-2.402-.071 4.283c-.006.339.161.658.443.847.674.452 1.35.967 2.009 1.53.232.199.543.28.843.221l3.23-.636-1.301 2.249c-.206.356-.173.803.083 1.125.865 1.084 1.629 2.26 2.271 3.496.156.3.452.5.788.534l2.808.281-1.712 3.286c-.112.215-.143.463-.085.698.406 1.667.612 3.379.612 5.086 0 .896-.058 1.789-.168 2.675-7.75 5.259-14.561 6.244-21.361 3.083-.152-.453-.36-.894-.639-1.313-1.608-2.413-5.301-3.635-7.358-4.148-.991-.247-2.045-.128-2.969.333l-1.006.503c-.454.227-.847.53-1.184.879-3.12-.007-6.163.331-8.155.619-.105-.866-.16-1.744-.16-2.631 0-2.866.557-5.653 1.655-8.283.101-.241.103-.513.006-.756zm17.9 17.528c-.642 1.868-2.783 3.531-5.877 4.562-.758.253-1.361.206-1.897-.147-1.347-.883-2.32-3.691-2.672-7.703-.084-.954.418-1.849 1.279-2.28l1.006-.503c.328-.164.687-.248 1.043-.248.184 0 .367.022.547.067 1.431.357 4.897 1.396 6.179 3.317.603.907.739 1.922.392 2.935zm-24.613-9.173c.108-.325.242-.371.306-.394.371-.128 1.304.055 2.753.926 0 .051-.007.101-.007.152 0 .317.014.631.026.945-1.226-.121-2.638-.451-3.046-1.017-.051-.073-.161-.224-.032-.612zm1.07 6.297c-.032-.008-.108-.031-.123-.061-.222-.442-.157-.714-.078-.901.356-.831 1.784-1.46 2.377-1.661.082.651.193 1.297.33 1.936-1.062.596-2.049.809-2.506.687zm45.211 4.455c-.413-.058-.805.142-1.006.499-1.064 1.881-2.404 3.589-3.982 5.078-.188.176-.299.417-.312.673l-.225 4.108-2.597-1.676c-.312-.202-.712-.215-1.035-.03-1.137.644-2.342 1.187-3.581 1.613-.207.071-.386.209-.507.391l-2.859 4.289-1.497-2.994c-.17-.34-.518-.553-.895-.553-.019 0-.036 0-.055.001-.992.054-1.97.043-3.098-.056-.258-.02-.511.054-.713.215l-3.209 2.567-.632-3.159c-.069-.346-.315-.63-.649-.747-.819-.288-1.622-.625-2.385-1.003-.255-.126-.551-.137-.814-.032l-3.178 1.271v-3.324c0-.294-.13-.574-.355-.764-1.081-.913-2.081-1.942-2.97-3.058-.19-.238-.478-.377-.782-.377h-2.415l.939-2.348c.107-.269.093-.572-.04-.83-.861-1.672-1.482-3.419-1.876-5.22 1.691-.245 4.136-.526 6.718-.584-.101.437-.138.893-.097 1.359.291 3.32 1.146 7.611 3.566 9.2.639.419 1.355.63 2.119.63.486 0 .992-.085 1.509-.258 3.744-1.248 6.278-3.312 7.136-5.811.124-.362.204-.728.25-1.094 2.516 1.027 5.029 1.55 7.58 1.55 4.186 0 8.475-1.392 13.033-4.195-.003.011-.005.022-.007.032-.054.208-.04.427.04.625l1.777 4.408zm12.771-3.548c0 .293-.19.446-.272.498-.08.051-.296.158-.559.034l-8.392-3.868c.143-1.054.223-2.117.223-3.184 0-1.063-.082-2.126-.226-3.183l8.399-3.871c.261-.12.476-.015.555.036.082.052.272.205.272.498z"/><path d="m59.629 30.071-5 2c-.513.206-.763.787-.558 1.3.157.391.533.629.929.629.124 0 .25-.023.371-.072l5-2c.513-.206.763-.787.558-1.3-.205-.512-.791-.76-1.3-.557z"/><path d="m59 34h-3c-.553 0-1 .448-1 1s.447 1 1 1h3c.553 0 1-.448 1-1s-.447-1-1-1z"/><path d="m59.447 38.105-4-2c-.494-.247-1.094-.047-1.342.447-.247.494-.047 1.095.447 1.342l4 2c.144.072.297.106.447.106.367 0 .72-.202.896-.553.247-.494.046-1.094-.448-1.342z"/><path d="m5 10c2.757 0 5-2.243 5-5s-2.243-5-5-5-5 2.243-5 5 2.243 5 5 5zm0-8c1.654 0 3 1.346 3 3s-1.346 3-3 3-3-1.346-3-3 1.346-3 3-3z"/><path d="m1 15c0 1.654 1.346 3 3 3s3-1.346 3-3-1.346-3-3-3-3 1.346-3 3zm4 0c0 .551-.448 1-1 1s-1-.449-1-1 .448-1 1-1 1 .449 1 1z"/><path d="m19.929 40.628c-.205-.513-.792-.761-1.3-.557-.513.206-.763.787-.558 1.3l2 5c.157.391.533.629.929.629.124 0 .25-.023.371-.072.513-.206.763-.787.558-1.3z"/><path d="m26.515 41.143-5-3c-.474-.285-1.089-.13-1.372.343-.284.474-.131 1.088.343 1.372l5 3c.16.096.338.142.513.142.34 0 .671-.173.858-.485.285-.474.131-1.088-.342-1.372z"/><path d="m23.895 42.553c-.247-.494-.848-.694-1.342-.447s-.694.848-.447 1.342l1 2c.175.35.528.552.895.552.15 0 .303-.034.446-.105.494-.247.694-.848.447-1.342z"/><path d="m23.707 31.707 1.293-1.293 1.293 1.293c.195.195.451.293.707.293s.512-.098.707-.293c.391-.391.391-1.023 0-1.414l-2-2c-.391-.391-1.023-.391-1.414 0l-2 2c-.391.391-.391 1.023 0 1.414s1.023.391 1.414 0z"/></g></svg>