<?xml version="1.0" encoding="iso-8859-1"?>
<!-- Generator: Adobe Illustrator 19.0.0, SVG Export Plug-In . SVG Version: 6.00 Build 0)  -->
<svg version="1.1" id="Layer_1" xmlns="http://www.w3.org/2000/svg" xmlns:xlink="http://www.w3.org/1999/xlink" x="0px" y="0px"
	 viewBox="0 0 512 512" style="enable-background:new 0 0 512 512;" xml:space="preserve">
<path style="fill:#A0AF64;" d="M397,270.997l-32,48c0,0-19-13-12.566-32.002c0.933-2.754,2.476-5.42,4.566-7.998
	C372,260.497,397,270.997,397,270.997z"/>
<path style="fill:#B9D778;" d="M349,286.997c-39.834,0-102.6,0-112,0c-32,0-107.333-24-128-24s-88.667,24-96,24s-8-1.334-8-8
	c0-6.667,32-25.334,32-32s-32-25.334-32-32s0.667-8,8-8s75.333,24,96,24s96-24,128-24c12,0,124,0,144,0
	c23.029,0,90.068,22.715,112.605,29.869c4.412,1.4,7.395,5.502,7.395,10.131l0,0c0,4.628-2.983,8.73-7.395,10.131
	c-20.316,6.449-76.8,25.545-104.603,29.244"/>
<path style="fill:#DCEB87;" d="M5,278.954c0-1.865,2.546-4.686,6.154-7.903c0.3-0.031,0.586-0.056,0.86-0.07
	c3.289-0.596,14.943-4.078,24.362-6.894c32.484-9.707,58.458-17.133,72.623-17.133c10.547,0,27.852,3.982,55.212,10.481
	c25.359,6.022,56.92,13.519,72.788,13.519h144c17.735,0,73.822-18.151,97.772-25.902c3.876-1.255,7.258-2.35,9.991-3.217
	c1.732-0.55,4.733-1.551,8.509-2.838c2.272,1.977,3.728,4.809,3.728,7.957c0,4.629-2.983,8.73-7.395,10.131
	c-22.537,7.154-89.577,29.869-112.605,29.869c-20,0-132,0-144,0c-32,0-107.333-24-128-24c-20.666,0-88.666,24-96,24
	C5.667,286.954,5,285.621,5,278.954z"/>
<path style="fill:#ACC36E;" d="M5,219.04c0,1.865,2.546,4.686,6.154,7.903c0.3,0.031,0.586,0.056,0.86,0.07
	c3.289,0.596,14.943,4.078,24.362,6.894C68.861,243.614,94.835,251.04,109,251.04c10.547,0,27.852-3.982,55.212-10.481
	c25.359-6.022,56.92-13.519,72.788-13.519h144c17.735,0,73.822,18.151,97.772,25.902c3.876,1.255,7.258,2.35,9.991,3.217
	c1.732,0.55,4.733,1.551,8.509,2.838c2.272-1.977,3.728-4.809,3.728-7.957c0-4.629-2.983-8.73-7.395-10.131
	C471.068,233.755,404.029,211.04,381,211.04c-20,0-132,0-144,0c-32,0-107.333,24-128,24c-20.666,0-88.666-24-96-24
	C5.667,211.04,5,212.373,5,219.04z"/>
<g>
	<path style="fill:#A0AF64;" d="M74.891,224.997c-28.264-6.605-56.284-18-61.891-18c-7.333,0-8,1.333-8,8c0,6.666,32,25.333,32,32
		c0,6.666-32,25.333-32,32c0,6.666,0.667,8,8,8c5.607,0,33.626-10.395,61.891-17c-6.514-4.021-10.891-14.781-10.891-23
		S68.377,229.019,74.891,224.997z"/>
	<path style="fill:#A0AF64;" d="M192,216c0,0-37.5-32-48-32s-48,10-48,16s16,32,16,32L192,216z"/>
	<path style="fill:#A0AF64;" d="M104,288c0,7.5,22.5,22,32,16s32-24,32-24l-50.589-13.623C108.411,274.377,104,280.5,104,288z"/>
	<path style="fill:#A0AF64;" d="M280,288.001c0,8.332-7.333,31.332-16,40c-0.235,0.234-16-18-16-40"/>
	<path style="fill:#A0AF64;" d="M400,272.001l-32,48c0,0-19-13-12.566-32.002c0.933-2.754,2.476-5.42,4.567-7.998
		C375,261.501,400,272.001,400,272.001z"/>
</g>
<path d="M499.026,230.244c-2.698-0.856-6.037-1.938-9.864-3.176c-23.492-7.603-63.236-20.462-89.112-25.22
	c-0.081-0.018-0.162-0.031-0.243-0.046C393.587,200.667,388.171,200,384,200H240c-11.74,0-28.624,2.975-46.489,6.833
	c-3.754-3.104-9.97-8.141-16.779-13.237C156.018,178.091,148.562,176,144,176c-5.503,0-15.037,1.942-23.554,4.196
	c-0.104,0.023-0.206,0.053-0.309,0.082c-2.239,0.596-4.407,1.211-6.403,1.817C94.975,187.801,88,192.653,88,200
	c0,3.898,2.938,11.198,8.726,21.741c-14.95-3.254-35.409-9.367-50.477-13.869C26.342,201.923,19.604,200,16,200
	c-4.28,0-9.137,0.313-12.612,4.057C0,207.704,0,212.499,0,216c0,6.883,6.527,12.371,19.034,22.272
	c3.479,2.754,8.755,6.931,11.601,9.728c-2.846,2.797-8.122,6.974-11.601,9.728C6.527,267.629,0,273.117,0,280
	c0,3.501,0,8.296,3.388,11.943C6.863,295.687,11.72,296,16,296c3.604,0,10.342-1.923,30.249-7.872
	c16.328-4.879,38.988-11.648,54.105-14.623C97.702,277.786,96,282.541,96,288c0,10.146,12.88,18.032,16.827,20.208
	c6.259,3.45,12.283,5.199,17.558,5.199c3.731-0.001,7.088-0.876,9.887-2.644c9.765-6.167,31.792-23.771,32.726-24.517
	c0.527-0.422,0.978-0.9,1.368-1.414C198.789,290.55,224.106,296,240,296h0.593c1.385,9.646,4.981,18.028,8.113,23.833
	c0.746,1.383,7.43,13.573,12.21,15.556c0.991,0.411,2.034,0.611,3.069,0.611c2.087,0,4.142-0.813,5.672-2.344
	c8.478-8.478,14.964-25.925,17.348-37.656h59.058c-0.005,18.423,16.588,30.034,17.419,30.603c1.34,0.917,2.917,1.397,4.518,1.397
	c0.507,0,1.017-0.048,1.521-0.146c2.1-0.406,3.949-1.637,5.135-3.416l19.53-29.295c25.063-3.589,70.423-18.266,94.968-26.209
	c3.83-1.239,7.171-2.32,9.872-3.178C506.786,263.292,512,256.157,512,248S506.786,232.708,499.026,230.244z M143.862,192.001
	c4.163,0.641,16.848,9.263,29.762,19.34c-4.029,0.945-8.031,1.895-11.958,2.828c-4.234,1.006-8.42,2-12.477,2.947l-14.422-23.883
	C138.474,192.486,141.697,192.021,143.862,192.001z M118.575,197.371l14.157,23.444c-6.509,1.375-12.151,2.414-16.394,2.893
	c-4.711-7.934-9.384-16.559-11.389-21.317C107.944,200.882,112.997,199.063,118.575,197.371z M62.35,266.696
	c-7.037,2.025-14.073,4.127-20.683,6.102c-9.147,2.733-19.317,5.773-23.922,6.834c2.916-2.785,7.891-6.725,11.22-9.359
	C41.473,260.371,48,254.883,48,248s-6.527-12.371-19.034-22.272c-3.329-2.635-8.305-6.574-11.22-9.359
	c4.604,1.061,14.774,4.101,23.922,6.834c6.61,1.975,13.647,4.077,20.684,6.103C58.339,234.565,56,241.085,56,248
	C56,254.917,58.338,261.437,62.35,266.696z M131.733,297.233c-0.308,0.172-2.25,0.547-6.125-0.771
	c-6.552-2.229-12.276-7.011-13.585-9.166c0.229-3.376,2.241-7.264,9.888-14.201c8.571,1.438,20.313,4.135,32.903,7.111
	C147.535,285.884,137.222,293.767,131.733,297.233z M263.857,314.134c-2.718-4.634-5.686-10.961-7.066-18.134h13.84
	C269.193,301.556,266.744,308.479,263.857,314.134z M353.787,274.961c-1.332,1.642-2.487,3.325-3.465,5.039H240
	c-16.805,0-47.529-7.297-74.637-13.735C142.173,260.757,122.145,256,112,256c-7.066,0-18.4,2.333-31.099,5.601
	C75.536,259.258,72,253.923,72,248s3.538-11.259,8.903-13.6c12.691,3.267,24.019,5.597,31.084,5.6c0.007,0,0.013,0.001,0.02,0.001
	c0.007,0,0.013-0.002,0.02-0.002c10.153-0.008,30.166-4.761,53.336-10.264c8.23-1.955,16.793-3.988,25.2-5.873
	c2.085,0.379,4.272-0.08,6.046-1.334C213.649,218.834,229.527,216,240,216h144c0.536,0,1.11,0.019,1.702,0.046
	c-4.437,10.181-8.213,25.49-4.737,45.102C369.904,261.889,360.551,266.618,353.787,274.961z M366.627,307.637
	c-3.167-4.093-5.98-10.09-3.616-17.071c0.608-1.796,1.686-3.655,3.204-5.527c4.368-5.387,10.205-8.006,17.846-8.006
	c0.99,0,1.957,0.046,2.885,0.126L366.627,307.637z M494.185,250.506c-2.724,0.864-6.094,1.955-9.957,3.205
	c-19.721,6.383-53.149,17.199-77.601,22.771l0.029-0.044c1.324-1.986,1.692-4.459,1.004-6.745c-0.688-2.285-2.361-4.144-4.562-5.068
	c-0.412-0.173-2.405-0.977-5.446-1.78c-4.995-21.072,0.189-36.155,4.597-44.3c24.712,5.215,61.741,17.195,81.986,23.747
	c3.859,1.249,7.228,2.339,9.949,3.203c1.086,0.345,1.815,1.352,1.815,2.506S495.271,250.161,494.185,250.506z"/>
<path d="M440.03,232h-0.01c-4.418,0-7.995,3.583-7.995,8c0,4.418,3.587,8,8.005,8s8-3.582,8-8
	C448.03,235.583,444.448,232,440.03,232z"/>
<g>
</g>
<g>
</g>
<g>
</g>
<g>
</g>
<g>
</g>
<g>
</g>
<g>
</g>
<g>
</g>
<g>
</g>
<g>
</g>
<g>
</g>
<g>
</g>
<g>
</g>
<g>
</g>
<g>
</g>
</svg>
