<svg id="Capa_1" enable-background="new 0 0 512 512" viewBox="0 0 512 512" xmlns="http://www.w3.org/2000/svg"><g><g><g><path d="m90.32 315.797c-10.135 17.737-1.356 51.91 3.146 66.493.689 2.231 3.676 2.55 4.867.542 6.93-11.687 23.013-18.536 23.401-30.097.453-13.499-31.414-36.938-31.414-36.938z" fill="#adc0ed"/><path d="m93.109 217.015c.866-34.771 30.76-77.068 59.475-91.236 1.723-.85 3.799-.353 5.004 1.143 6.771 8.409 26.924 37.748 18.123 79.973z" fill="#f6ca56"/><g><path d="m298.066 228.759c34.239-29.515 59.342-36.992 69.269-38.878 2.798-.531 5.639.641 7.223 3.008 5.436 8.126 18.194 29.155 24.475 55.924z" fill="#fad989"/><path d="m324.23 233.068-86.89-23.12c-17.1-22.997 11.237-63.611 35.91-54.62 17.33 13.78 42.92 39.79 50.98 77.74z" fill="#fad989"/><path d="m237.34 209.948-48.73-12.96c23.53-36.51 54.75-49.12 64.66-52.34 1.98-.65 4.13-.39 5.91.7 2.94 1.82 8 5.15 14.07 9.98-20.35 2.62-36.83 30.72-35.91 54.62z" fill="#f6ca56"/></g><g><path d="m298.066 302.132c34.707 29.918 60.027 37.193 69.668 38.952 2.582.471 5.185-.644 6.649-2.822 5.333-7.929 18.301-29.124 24.65-56.184z" fill="#c5cff1"/><path d="m324.23 297.828c-7.55 35.53-30.47 60.6-47.59 74.97-29.493 0-26.037-48.348 8.84-64.66z" fill="#c5cff1"/><path d="m276.64 372.798c-7.7 6.46-14.23 10.75-17.65 12.86-1.66 1.02-3.67 1.25-5.52.65-9.67-3.11-41.16-15.64-64.86-52.41l96.87-25.76c-22.82 25.28-28.47 52.2-8.84 64.66z" fill="#adc0ed"/></g><path d="m351.681 264.586 117.481 73.49c5.84 3.653 13.602 1.76 16.983-4.241 24.898-44.187 24.011-95.655.107-138.301-3.411-6.085-11.18-8.135-17.095-4.435z" fill="#fad989"/><path d="m451.75 263.038s-75.77 8.91-146.98 21.49c-29.39 5.19-55.18 10.22-78.71 13.17-52.476-24.23-60.836-101.614-28.06-112.93 41.88 4.49 104.27 25.05 155.49 44.18 16.59 6.79 33.71 5.86 49.76.47 23.49-7.89 48.06 8.84 48.5 33.62z" fill="#ffeab7"/><path d="m226.06 297.698c-41.15 5.17-75.36 3.98-109.73-13.81 1.53-5.59 2.31-11.89 2.31-19.3 0-27.95-21.37-43.75-31.65-58.34 28.51-12.68 61.51-22.38 95.73-22.38 4.7 0 9.81.31 15.28.9-17.01 27.49-2.47 78.25 28.06 112.93z" fill="#fad989"/><g><path d="m451.76 265.648c-.28 24.99-24.82 42.06-48.51 34.1-16.05-5.39-33.17-6.31-49.76.48-26.7 9.97-56.44 20.33-84.72 28.59-27.547 1.063-49.765-17.184-51.69-42.42 23.45-3.36 48.72-9.01 83.64-15.17 71.21-12.58 151.03-8.19 151.03-8.19.02.87.02 1.74.01 2.61z" fill="#e8ecf9"/></g><path d="m268.77 328.818c-33.05 9.67-64.12 16.48-86.05 16.48-34.22 0-67.22-9.7-95.73-22.38 15.11-13.42 25.1-23.53 29.34-39.03 42.29 7.43 69.95 6.94 100.75 2.51 13.48 18.76 31.36 34.53 51.69 42.42z" fill="#c5cff1"/><path d="m133.58 264.588c0 27.94-20.42 52.26-46.59 58.33-30.01-13.33-55.04-29.96-71.3-42.05-10.92-8.12-10.92-24.44 0-32.57 16.26-12.09 41.29-28.72 71.3-42.05 26.17 6.07 46.59 30.39 46.59 58.34z" fill="#f6ca56"/><path d="m252.03 292.988c.26 6.93-15.47 17.89-34.15 23.44-22.82-1.835-26.328-37.646-5.06-42.96 22.3 3.45 38.88 10.95 39.21 19.52z" fill="#fad989"/><path d="m217.88 316.428c-18.78 5.58-40.54 5.7-51.99-9.24-.73-.95-.87-2.22-.37-3.31 3.83-8.41 3.51-19.79.76-27.57-.66-1.87.57-3.85 2.54-4.04 15.2-1.49 30.63-.88 44 1.2-12.11 13.62-7.48 32.06 5.06 42.96z" fill="#f6ca56"/></g></g><g><path d="m93.129 257.927v-12c0-4.142-3.357-7.5-7.5-7.5s-7.5 3.357-7.5 7.5v12c0 4.142 3.357 7.5 7.5 7.5s7.5-3.357 7.5-7.5z"/><path d="m510.253 241.481c-.635-4.094-4.462-6.899-8.559-6.264-4.094.635-6.898 4.467-6.264 8.559 4.569 29.501-.902 59.092-15.824 85.573-.812 1.442-2.11 1.957-2.811 2.136-1.258.321-2.559.118-3.66-.571l-41.212-25.78c3.099-1.277 6.086-2.911 8.904-4.914 11.513-8.181 18.223-20.983 18.427-35.139.685-14.415-5.802-28.225-17.37-36.963-3.108-2.347-6.471-4.233-9.988-5.669l41.234-25.793c1.082-.677 2.359-.875 3.596-.559 1.272.325 2.33 1.143 2.979 2.302 2.399 4.281 4.625 8.825 6.614 13.506 1.62 3.812 6.025 5.594 9.835 3.97 3.812-1.619 5.59-6.022 3.97-9.835-2.201-5.181-4.669-10.219-7.334-14.975-2.637-4.705-7.136-8.167-12.346-9.5-5.25-1.346-10.672-.501-15.268 2.374l-57.259 35.817c-3.125.465-6.206 1.467-9.233 2.44-9.048-22.723-20.181-37.593-20.693-38.269-1.468-1.942-3.801-3.082-6.219-2.974-.889.028-20.118.882-50.502 20.246-20.888-42.432-59.522-63.915-61.257-64.862-1.623-.887-3.516-1.144-5.318-.717-1.362.321-32.737 8.038-60.455 40.463-3.265-.267-6.364-.428-9.293-.483-3.246-35.047-23.164-56.203-24.067-57.145-2.161-2.253-5.492-2.933-8.363-1.702-27.63 11.826-55.086 46.347-63.963 79.816-7.561 3.227-15.18 6.823-22.851 10.786-3.68 1.901-5.122 6.426-3.221 10.105 1.9 3.681 6.427 5.121 10.105 3.221 4.706-2.432 9.388-4.714 14.045-6.854 22.994 5.445 39.451 26.096 39.451 49.954 0 23.871-16.476 44.532-39.489 49.964-27.644-12.689-50.858-28.123-66.423-39.698-3.286-2.443-5.17-6.184-5.17-10.265s1.884-7.822 5.17-10.264c7.282-5.416 14.892-10.67 22.617-15.615 3.489-2.232 4.507-6.871 2.273-10.359-2.232-3.489-6.87-4.506-10.359-2.273-8.019 5.133-15.92 10.587-23.482 16.21-7.13 5.3-11.22 13.428-11.22 22.3 0 7.131 2.645 13.777 7.383 18.866-2.806 14.361 1.406 24.701 4.874 33.156 3.514 8.562 5.834 14.219 2.079 22.922-1.641 3.803.112 8.216 3.916 9.857 3.711 1.627 8.214-.074 9.857-3.916 6.255-14.497 1.883-25.154-1.975-34.557-2.276-5.546-4.343-10.613-4.654-16.64 15.094 10.511 34.742 22.684 57.369 33.2-3.802 26.648 9.245 62.63 9.847 64.27 1.136 3.116 4.222 5.109 7.501 4.9 3.307-.204 6.09-2.555 6.843-5.783 1.297-5.557 6.373-10.171 11.747-15.056 6.612-6.01 14.107-12.823 14.442-22.817.082-2.423-.382-4.953-1.397-7.628 17.573 4.612 36.03 7.441 54.887 7.441 3.179 0 6.57-.134 10.168-.4 28.029 33.769 60.403 41.737 61.808 42.069 1.794.425 3.693.172 5.319-.717 1.735-.948 40.366-22.431 61.254-64.863 30.384 19.363 49.607 20.219 50.508 20.247 2.421.079 4.75-1.032 6.216-2.972.534-.706 12.156-16.224 21.3-39.8 2.829.928 5.73 1.798 8.628 2.249l57.262 35.82c4.545 2.846 10.143 3.712 15.317 2.391 5.22-1.329 9.544-4.635 12.177-9.308 16.587-29.443 22.666-62.373 17.577-95.231zm-141.773-44.971c3.367 5.073 9.628 15.298 15.221 28.685-9.612.854-18.773-.473-27.374-3.994-.072-.03-.146-.059-.218-.086-8.33-3.11-16.406-6.054-24.256-8.848 17.778-10.927 30.639-14.567 36.627-15.757zm-113.081-45.463c8.169 5.107 33.795 22.768 49.941 52.075-37.433-12.458-68.447-20.724-92.794-24.73 17.914-17.807 36.101-25.097 42.853-27.345zm-101.996-18.038c5.068 6.909 14.293 22.047 16.501 42.991-20.396 1.34-41.512 5.849-63.171 13.483 9.339-23.166 28.106-46.18 46.67-56.474zm-46.896 72.52c26.477-9.936 52-14.961 76.211-14.961 43.016.627 111.221 23.581 168.039 44.558 14.07 5.734 29.154 6.843 44.973 3.348 5.349-.967 10.698-3.509 16.177-4.158 7.399-.861 14.778 1.118 20.937 5.77 4.94 3.731 8.415 8.697 10.164 14.302-23.179-.709-86.432-1.447-143.596 8.648-14.323 2.529-27.227 5.01-38.612 7.198-6.058 1.164-11.809 2.267-17.345 3.299-18.393-8.746-50.439-12.679-79.682-9.057-5.119.488-8.255 6.624-5.649 11.057.806 1.466 1.455 3.302 1.923 5.338-6.638-.381-13.515-1.018-20.733-1.91 1.151-4.893 1.767-9.975 1.767-15.179 0-24.78-13.746-46.879-34.574-58.253zm68.361 72.965c15.376-.998 31.467.1 45.346 3.171 15.992 3.538 23.003 8.474 24.185 10.573-2.465 4.584-19.971 16.139-40.969 18.842-9.625 1.241-22.18.79-30.039-7.45 2.926-8.017 3.112-17.288 1.477-25.136zm-60.631 73.185c-.122 3.661-4.697 7.819-9.54 12.221-2.187 1.988-4.472 4.065-6.633 6.33-2.79-10.707-5.624-25.131-4.814-37.283 3.678 1.497 7.419 2.937 11.218 4.31 9.788 10.135 9.775 14.244 9.769 14.422zm141.164 26.558c-6.957-2.318-25.947-9.955-44.321-28.834 24.81-3.949 56.687-12.412 95.398-25.338-16.056 30.573-42.725 48.949-51.077 54.172zm113.082-45.465c-6.216-1.234-19.722-5.081-38.392-16.849 8.4-2.979 17.062-6.129 26.018-9.474.073-.027.146-.057.219-.086 8.803-3.606 18.195-4.904 28.056-3.924-5.76 14.2-12.399 25.058-15.901 30.333zm37.153-40.934c-3.124-1.05-6.22-1.906-9.292-2.608-.022-.005-.044-.01-.067-.015-16.01-3.644-31.287-2.58-45.523 3.224-56.358 20.851-125.55 44.049-168.037 44.557-26.734-.03-52.263-6.008-76.228-14.951 11.946-6.519 21.553-16.57 27.586-28.629 9.116 1.209 17.705 2.024 25.98 2.474-.448 1.883-1.076 3.659-1.929 5.207-1.351 2.451-1.224 5.45.329 7.778 7.778 11.668 21.035 17.742 37.452 17.742 8.147 0 17.072-1.496 26.491-4.546 13.078-4.234 37.667-15.991 37.124-30.178-.062-1.618-.427-3.644-1.482-5.855 1.839-.352 3.698-.709 5.591-1.073 11.333-2.179 24.178-4.647 38.39-7.157 57.008-10.067 120.421-9.087 141.809-8.387-1.27 7.478-5.377 14.086-11.691 18.572-7.742 5.499-17.402 6.901-26.503 3.845z"/></g></g><g/><g/><g/><g/><g/><g/><g/><g/><g/><g/><g/><g/><g/><g/><g/></svg>