<svg id="Capa_1" enable-background="new 0 0 512 512" height="512" viewBox="0 0 512 512" width="512" xmlns="http://www.w3.org/2000/svg"><g><g><path d="m373.454 406.444c-84.475 48.756-145.172 77.433-183.664 77.433s-74.492-77.617-74.492-105.191 31.497-69.447 31.497-69.447z" fill="#ffe733"/></g><g><path d="m404.389 170.659c-88.387-88.386-146.311-142.537-195.488-142.537s-98.199 141.713-93.603 161.628 35.422 61.952 35.422 61.952z" fill="#fff566"/></g><g><path d="m298.645 126.622c-116.72 0-129.551-71.042-129.592-71.271-32.45 42.19-57.073 120.023-53.756 134.399 4.596 19.915 35.422 61.952 35.422 61.952l147.925-47.259v-77.821z" fill="#ffe733"/></g><g><path d="m152.564 276.622-91.151 64.481c-7.449 5.27-17.533 4.852-24.48-1.066-12.498-10.646-29.433-31.045-29.433-63.415s16.935-52.769 29.433-63.415c6.946-5.917 17.03-6.335 24.48-1.066z" fill="#ffe733"/></g><g><path d="m7.5 276.622c0 32.37 16.936 52.769 29.433 63.415 6.946 5.917 17.03 6.335 24.479 1.065l61.305-43.368c-63.134 1.465-114.229-52.059-85.785-84.529-12.496 10.649-29.432 31.048-29.432 63.417z" fill="#ffc247"/></g><g><path d="m484.5 296.622c-20.235 0-37.084-15.401-39.036-35.542-5.75-59.303-44.524-115.372-116.329-131.084-9.954-2.178-20.134-3.374-30.49-3.374-97.873 0-165.865 106.819-184.709 140.173-3.448 6.102-3.448 13.551 0 19.654 18.845 33.354 86.837 140.173 184.709 140.173 10.355 0 20.536-1.196 30.49-3.374 37.787-8.268 66.426-27.715 85.919-52.927 16.288-21.067 41.171-33.699 67.801-33.699h1.646c11.046 0 20-8.954 20-20-.001-11.045-8.955-20-20.001-20z" fill="#ffff9c"/></g><g><path d="m298.645 426.622c10.355 0 20.536-1.196 30.49-3.374 16.522-3.615 31.295-9.368 44.319-16.804-126.609-29.944-208.539-133.97-236.764-175.209-10.402 14.533-18.087 27.301-22.754 35.56-3.448 6.102-3.448 13.551 0 19.654 18.845 33.354 86.837 140.173 184.709 140.173z" fill="#fff566"/></g><g><g><g><ellipse cx="389.278" cy="287.362" fill="#ff9b87" rx="29.355" ry="23.377"/></g></g><g><path d="m406.385 272.358c-4.142 0-7.5-3.358-7.5-7.5v-12c0-4.142 3.358-7.5 7.5-7.5s7.5 3.358 7.5 7.5v12c0 4.142-3.358 7.5-7.5 7.5z"/></g></g><g><path d="m248.992 328.599c0 24.742 16.913 45.453 40.133 50.748 6.648 1.516 13.609-.553 18.439-5.366l34.881-34.756c5.883-5.862 5.883-15.389 0-21.251l-34.881-34.756c-4.83-4.813-11.791-6.882-18.439-5.366-23.22 5.293-40.133 26.004-40.133 50.747z" fill="#fff566"/></g><g><path d="m248.992 328.599c0 24.742 16.913 45.453 40.133 50.748 6.648 1.516 13.609-.553 18.439-5.366l10.375-10.337c-50.509-20.892-28.814-85.792-28.814-85.792-23.22 5.293-40.133 26.004-40.133 50.747z" fill="#ffe733"/></g><g><path d="m74.124 245.614-14.489-3.882c-3.997-1.068-8.113 1.302-9.186 5.304-1.072 4.001 1.303 8.113 5.304 9.186l14.489 3.882c.65.174 1.303.257 1.946.257 3.311 0 6.342-2.21 7.24-5.561 1.071-4.002-1.303-8.114-5.304-9.186z"/><path d="m72.868 276.623c0-4.142-3.358-7.5-7.5-7.5h-25c-4.142 0-7.5 3.358-7.5 7.5s3.358 7.5 7.5 7.5h25c4.142 0 7.5-3.358 7.5-7.5z"/><path d="m70.242 293.142-14.489 3.882c-4.001 1.072-6.375 5.185-5.304 9.186.898 3.351 3.928 5.561 7.24 5.561.643 0 1.296-.083 1.946-.257l14.489-3.882c4.001-1.072 6.375-5.185 5.304-9.186-1.073-4.002-5.187-6.375-9.186-5.304z"/><path d="m484.5 289.123c-16.409 0-29.981-12.367-31.572-28.766-3.133-32.315-15.265-62.037-35.084-85.951-2.536-3.061-5.194-6.004-7.958-8.836-.066-.071-.125-.146-.194-.215-46.282-46.281-78.817-77.662-108.164-101.105-3.236-2.585-7.955-2.058-10.541 1.179-2.585 3.236-2.058 7.956 1.179 10.541 17.481 13.965 36.227 30.913 58.522 52.337-6.439-2.25-13.095-4.137-19.95-5.637-10.757-2.354-21.555-3.547-32.092-3.547-71.845 0-127.912 54.712-161.444 98.853-8.029-13.173-13.143-23.619-14.595-29.912-.984-4.265 2.668-24.274 13.632-53.677 11.501-30.841 26.141-58.641 40.167-76.271 11.706-14.715 22.943-22.493 32.496-22.493 17.018 0 36.508 7.485 59.584 22.884 3.446 2.298 8.103 1.37 10.402-2.076s1.37-8.103-2.076-10.402c-25.977-17.333-47.555-25.407-67.91-25.407-14.49 0-29.373 9.473-44.235 28.155-20.492 25.76-35.412 61.41-42.482 80.368-8.532 22.878-16.741 51.256-14.194 62.291 2.057 8.911 8.676 22.232 19.68 39.622-3.124 4.47-5.975 8.735-8.547 12.72l-53.378-37.76c-10.275-7.268-24.122-6.659-33.675 1.479-14.632 12.464-32.071 34.573-32.071 69.126s17.439 56.661 32.069 69.124c5.101 4.345 11.424 6.543 17.775 6.543 5.545 0 11.111-1.676 15.9-5.063l53.366-37.752c2.788 4.329 5.886 8.965 9.299 13.828-9.937 16.347-20.612 37.962-20.612 55.383 0 16.065 9.825 43.541 23.893 66.816 10.355 17.133 31.673 45.875 58.099 45.875 36.587 0 90.885-22.725 187.413-78.438.188-.109.366-.228.541-.35 16.797-9.689 31.394-22.356 43.243-37.681 15.126-19.565 37.676-30.787 61.867-30.787h1.646c15.164 0 27.5-12.336 27.5-27.5s-12.335-27.498-27.499-27.498zm-427.418 45.857c-4.672 3.304-10.957 3.035-15.285-.652-12.225-10.413-26.797-28.878-26.797-57.705 0-28.828 14.572-47.292 26.797-57.707 4.329-3.688 10.614-3.956 15.285-.651l54.124 38.288c-1.43 2.41-2.703 4.613-3.8 6.554-4.71 8.337-4.71 18.695 0 27.032 1.109 1.962 2.388 4.173 3.799 6.554zm427.418-5.857h-1.646c-28.87 0-55.745 13.344-73.734 36.612-19.686 25.461-47.898 42.815-81.589 50.188-9.705 2.124-19.423 3.201-28.886 3.201-15.682 0-31.5-2.956-47.017-8.785-3.877-1.455-8.201.506-9.659 4.383-1.457 3.878.506 8.202 4.384 9.659 17.209 6.465 34.803 9.743 52.292 9.743 3.264 0 6.555-.128 9.86-.356-56.633 29.536-93.543 42.611-118.715 42.611-13.924 0-30.422-14.082-45.262-38.635-14.114-23.352-21.73-47.856-21.73-59.057 0-10.18 5.379-24.95 15.261-42.213 19.854 25.995 47.276 55.234 81.04 74.88 3.581 2.083 8.171.871 10.254-2.71 2.083-3.58.87-8.171-2.71-10.254-54.924-31.959-92.549-91.509-106.176-115.628-2.139-3.786-2.139-8.49 0-12.275 18.074-31.989 84.338-136.362 178.18-136.362 9.462 0 19.181 1.077 28.886 3.2 28.758 6.293 51.102 18.985 67.966 35.055 1.188 1.187 2.38 2.378 3.587 3.584.074.074.155.139.231.209 24.03 24.862 35.886 56.8 38.682 85.633 2.339 24.125 22.331 42.318 46.501 42.318 6.893 0 12.5 5.607 12.5 12.5s-5.607 12.499-12.5 12.499z"/><path d="m312.858 277.904c-6.729-6.705-16.223-9.457-25.4-7.366-27.064 6.171-45.966 30.047-45.966 58.061s18.902 51.889 45.966 58.06c2.022.461 4.059.687 6.08.687 7.146 0 14.075-2.826 19.32-8.052l34.881-34.756c4.268-4.252 6.619-9.913 6.619-15.938s-2.351-11.686-6.619-15.939zm24.294 56.007-34.881 34.756c-3.059 3.049-7.35 4.31-11.478 3.366-20.196-4.604-34.301-22.466-34.301-43.435s14.105-38.831 34.3-43.436c.872-.199 1.757-.295 2.643-.295 3.245 0 6.468 1.302 8.836 3.662l34.881 34.756c1.423 1.417 2.207 3.304 2.207 5.313-.001 2.009-.784 3.896-2.207 5.313z"/><path d="m283.74 318.197 14.489 3.882c.65.174 1.303.257 1.946.257 3.311 0 6.342-2.21 7.24-5.561 1.072-4.001-1.303-8.113-5.304-9.186l-14.489-3.882c-3.998-1.073-8.113 1.302-9.186 5.304-1.072 4.002 1.303 8.114 5.304 9.186z"/><path d="m298.228 335.118-14.489 3.882c-4.001 1.072-6.375 5.185-5.303 9.186.898 3.351 3.928 5.561 7.24 5.561.643 0 1.296-.083 1.946-.257l14.489-3.882c4.001-1.072 6.375-5.185 5.303-9.186s-5.184-6.374-9.186-5.304z"/><path d="m237.635 115.184c2.382 0 4.725-1.132 6.18-3.241 2.352-3.409 1.496-8.08-1.914-10.433l-47.31-32.643c-3.409-2.352-8.08-1.495-10.433 1.914-2.352 3.409-1.496 8.08 1.914 10.433l47.31 32.643c1.301.896 2.784 1.327 4.253 1.327z"/><path d="m223.396 57.423c-2.421 3.361-1.659 8.048 1.702 10.469l53.924 38.846c1.326.956 2.859 1.415 4.377 1.415 2.33 0 4.626-1.082 6.092-3.117 2.421-3.361 1.659-8.048-1.702-10.469l-53.924-38.846c-3.361-2.42-8.047-1.658-10.469 1.702z"/><path d="m184.233 101.566c-3.378-2.396-8.061-1.601-10.457 1.778-2.396 3.378-1.601 8.06 1.778 10.457l26.018 18.456c1.317.935 2.832 1.383 4.333 1.383 2.348 0 4.662-1.1 6.124-3.161 2.396-3.378 1.601-8.06-1.778-10.457z"/><path d="m179.686 394.971c-2.147-3.541-6.758-4.673-10.302-2.525l-19.826 12.019c-3.542 2.147-4.673 6.759-2.525 10.302 1.411 2.327 3.885 3.613 6.421 3.613 1.324 0 2.666-.351 3.881-1.087l19.826-12.019c3.542-2.149 4.672-6.761 2.525-10.303z"/><path d="m194.994 417.044-27.505 18.978c-3.409 2.353-4.266 7.023-1.914 10.433 1.456 2.109 3.798 3.241 6.18 3.241 1.468 0 2.952-.43 4.252-1.327l27.505-18.978c3.409-2.353 4.266-7.023 1.914-10.433-2.352-3.409-7.022-4.266-10.432-1.914z"/></g></g></svg>