<?xml version="1.0" encoding="UTF-8"?>
<svg xmlns="http://www.w3.org/2000/svg" id="Layer_1" data-name="Layer 1" viewBox="0 0 512 512" width="512" height="512"><path d="M413.28,29.03C231.34,26.58,117.76,194.12,116.6,195.84l261.76,52.71c39.14-37.32,19.71-99.19-12-155.56-16.78-29.85,25.05-50.28,47.84-58.86A2.636,2.636,0,0,0,413.28,29.03Z" style="fill:#5083d6"/><path d="M405.18,37.783c3.194-1.39,6.249-2.61,9.02-3.653a2.636,2.636,0,0,0-.92-5.1C231.34,26.58,117.76,194.12,116.6,195.84l28.826,5.805C155.277,187.585,252.127,54.723,405.18,37.783Z" style="fill:#416eaf"/><path d="M492.66,408.21c-26.76,3.03-54.15,15.03-70.28-21.86-20.48-46.85-56.02-54.49-56.02-54.49L236.73,407.07s91.03,83.04,257.51,6.83A2.989,2.989,0,0,0,492.66,408.21Z" style="fill:#5083d6"/><path d="M264.3,453c-35.67-17.92-41.5-43.9-41.5-43.9l-28.91-.1a128.243,128.243,0,0,0,7,31.99h.01s33.53,17.75,63.06,14.06A1.088,1.088,0,0,0,264.3,453Z" style="fill:#ddd376"/><path d="M228.73,481.86c-14.36-11.11-22.85-26.85-27.84-40.87a128.243,128.243,0,0,1-7-31.99l-57.25-18.92s15.83,60.12,91.45,92.86A.633.633,0,0,0,228.73,481.86Z" style="fill:#5083d6"/><path d="M436,236.47c-14.97,11.52-26.42,17.19-34.66,19.89a20.317,20.317,0,0,1-22.98-7.81,319.36,319.36,0,0,0-38.07-45.85,220.529,220.529,0,0,0-22.77-19.63c-17.6-13.13-35.07-21.56-52.14-26.3a132.686,132.686,0,0,0-28.65-4.68c-19.38-1.02-38.01,2.24-55.47,8.16-18,6.09-34.76,15.02-49.79,25.01-5.17,3.43-10.13,6.98-14.87,10.58l-.01.01C89.95,216.1,70.32,238,61.03,248.78,45.31,267,27.27,279.45,18.77,284.8a5.863,5.863,0,0,0-1.65,8.42c4.22,5.77,13.36,15.29,31.94,24.75,15.78,8.03,43.97,47.6,87.58,72.11a163.97,163.97,0,0,0,20.64,9.83A141.537,141.537,0,0,0,193.89,409q4.26.465,8.64.66a141.848,141.848,0,0,0,20.27-.56q6.825-.66,13.93-2.03a172.718,172.718,0,0,0,25.9-7.16,213.745,213.745,0,0,0,25.79-11.27,298.544,298.544,0,0,0,42.76-27.15q10.305-7.74,21.03-16.96,6.99-6,14.15-12.67,4.215-3.93,8.51-8.1a20.269,20.269,0,0,1,23.61-3.38c11.27,5.96,27.17,15.58,38.26,27.29,25.81,27.25,47.27-5.89,53.1-51.55C491.31,250.46,471.4,209.22,436,236.47Z" style="fill:#fcf48b"/><ellipse cx="87.67" cy="270.43" rx="6.88" ry="6.87" style="fill:#5083d6"/><path d="M352.21,344.53q-10.725,9.24-21.03,16.96l-.03-.04c-39.87-72.52-26.99-140.53-13.63-178.38a220.529,220.529,0,0,1,22.77,19.63C328.95,239.02,323.47,289.53,352.21,344.53Z" style="fill:#80aaff"/><path d="M288.42,388.64a213.745,213.745,0,0,1-25.79,11.27C161.21,276,236.73,152.09,236.73,152.09a132.686,132.686,0,0,1,28.65,4.68C251.63,180.14,197.46,287.02,288.42,388.64Z" style="fill:#80aaff"/><path d="M193.89,409a141.537,141.537,0,0,1-36.61-9.09s-12.95-51.36,13.11-104.43a1.682,1.682,0,0,1,3.24.64c-.33,26.12-2.15,88.49,28.9,113.54Q198.15,409.465,193.89,409Z" style="fill:#80aaff"/><path d="M181.26,160.25c-29.17,20.78-35.55,93.98-40.23,120.03-.32,1.83-2.56,2.38-3.24.65-18.6-47.72-6.32-95.67-6.32-95.67C146.5,175.27,163.26,166.34,181.26,160.25Z" style="fill:#80aaff"/><path d="M47.12,293.22a5.863,5.863,0,0,1,1.65-8.42c8.5-5.35,26.54-17.8,42.26-36.02a390.064,390.064,0,0,1,36.832-37.531,154.464,154.464,0,0,1,3.608-25.989c-5.17,3.43-10.13,6.98-14.87,10.58l-.01.01C89.95,216.1,70.32,238,61.03,248.78,45.31,267,27.27,279.45,18.77,284.8a5.863,5.863,0,0,0-1.65,8.42c4.22,5.77,13.36,15.29,31.94,24.75,15.78,8.03,43.97,47.6,87.58,72.11a163.97,163.97,0,0,0,20.64,9.83,120.9,120.9,0,0,1-2.564-17.124c-36.89-24.4-61.364-57.543-75.656-64.816C60.48,308.51,51.34,298.99,47.12,293.22Z" style="fill:#d1c76f"/><path d="M244.582,152.743q-3.945-.442-7.852-.653c-19.38-1.02-38.01,2.24-55.47,8.16-7.27,5.179-13.124,13.614-17.889,23.764A213.849,213.849,0,0,1,211.26,160.25,156.969,156.969,0,0,1,244.582,152.743Z" style="fill:#d1c76f"/><path d="M195.694,402.924a51.238,51.238,0,0,0,6.836,6.736h0a141.848,141.848,0,0,0,20.27-.56c.335-.032.673-.075,1.009-.11A139.679,139.679,0,0,1,195.928,403C195.849,402.978,195.773,402.95,195.694,402.924Z" style="fill:#d1c76f"/><path d="M187.28,399.91a163.97,163.97,0,0,1-20.64-9.83c-4.111-2.31-8.084-4.755-11.924-7.294a120.837,120.837,0,0,0,2.564,17.124A141.537,141.537,0,0,0,193.89,409q4.26.465,8.64.66a51.238,51.238,0,0,1-6.836-6.736q-4.284-1.392-8.414-3.014Z" style="fill:#6893d8"/><path d="M146.6,195.84c4.74-3.6,9.7-7.15,14.87-10.58.629-.418,1.266-.832,1.9-1.246,4.765-10.15,10.619-18.585,17.889-23.764-18,6.09-34.76,15.02-49.79,25.01a154.464,154.464,0,0,0-3.608,25.989c5.764-5.1,12.023-10.3,18.728-15.4Z" style="fill:#6893d8"/><path d="M87.669,258.562A11.871,11.871,0,1,0,99.55,270.433,11.889,11.889,0,0,0,87.669,258.562Zm0,13.742a1.871,1.871,0,1,1,1.881-1.871A1.878,1.878,0,0,1,87.669,272.3Z" style="fill:#284268"/><path d="M491.819,403.275c-4.277.494-8.559,1.2-12.7,1.891-22.427,3.718-40.141,6.654-52.151-20.817-15.348-35.107-38.753-49.253-51.174-54.533.855-.821,1.71-1.641,2.566-2.473a15.233,15.233,0,0,1,17.788-2.541c11.012,5.823,26.364,15.113,36.965,26.3,11.794,12.453,22.118,12.5,28.7,10.352,8.358-2.73,15.889-10.744,21.779-23.174a123.276,123.276,0,0,0,8.569-26.238,110.069,110.069,0,0,0,2.343-31.553c-1.992-26.822-11.354-47.68-25.406-54.881-7.448-3.815-19.763-5.717-36.143,6.892-12.352,9.509-23.512,15.936-33.168,19.1a15.33,15.33,0,0,1-14.563-2.911c30.757-33.164,25.9-86.333-14.5-158.159-3.467-6.163-4.137-11.946-2.05-17.678,2.56-7.031,12.107-20.8,47.288-34.05a7.637,7.637,0,0,0-2.61-14.781c-42.414-.571-84.649,7.987-125.536,25.431-32.627,13.921-64.461,33.5-94.62,58.191-48.375,39.607-76.274,78.909-80.282,84.726a374.228,374.228,0,0,0-55.673,53.136,188.337,188.337,0,0,1-41.129,35.052,10.867,10.867,0,0,0-3.02,15.614A70.483,70.483,0,0,0,25.7,309.027a122.053,122.053,0,0,0,21.089,13.4c5.458,2.779,13.6,10.8,23.023,20.092,15.542,15.318,36.219,35.681,62.61,50.891,1.586,4.9,6.453,17.954,17.49,33.693,12.6,17.975,36.056,43.051,76.19,60.43,5.821,2.717,10.9-5.806,5.684-9.629-9.639-7.455-16.477-17.253-21.323-27.121,10.917,4.36,27.919,9.775,45.047,9.775a73.146,73.146,0,0,0,9.074-.546c5.825-.522,7.266-9.042,1.959-11.474-17.2-8.645-26.85-19.211-31.915-26.552a56.928,56.928,0,0,1-4.975-8.706c1.87-.262,3.743-.551,5.621-.882,6.438,5.255,28.855,21.795,66.531,31.509a232.855,232.855,0,0,0,58.225,7.18q11.948,0,24.2-1.123c35.893-3.294,73.608-13.9,112.1-31.516a7.857,7.857,0,0,0,4.421-9.239A8.2,8.2,0,0,0,491.819,403.275ZM402.9,261.108c10.736-3.521,22.9-10.479,36.151-20.681,9.82-7.558,18.393-9.548,25.482-5.916,8.584,4.4,15.151,17.042,18.309,33.712a110.044,110.044,0,0,1-3.372,52.928c-5.141,16.629-12.642,28.146-20.766,30.8-5.585,1.823-11.753-.774-18.335-7.722-11.537-12.179-27.875-22.094-39.55-28.267a25.2,25.2,0,0,0-29.434,4.212q-8.842,8.6-17.6,16.34c-18.9-39.241-22.661-80.828-11.178-123.83A303.3,303.3,0,0,1,374.256,251.4,25.468,25.468,0,0,0,402.9,261.108ZM280.4,387.027q-7.577,3.641-15.029,6.53c-.365.141-.728.266-1.093.4-21.375-26.831-36.038-55.74-43.561-85.991a207.251,207.251,0,0,1-4.166-77.364c4.9-37.239,18.3-64.612,22.882-73.121a132.034,132.034,0,0,1,18.085,3.1c-8.225,15.405-21.446,45.159-24.859,82.313C227.816,295.592,243.881,344.047,280.4,387.027Zm-37.783-143.21a211.4,211.4,0,0,1,24.757-80.431,164.031,164.031,0,0,1,43.951,22.358,234.246,234.246,0,0,0-11.95,73.529,215.816,215.816,0,0,0,25.358,100.748,296.607,296.607,0,0,1-35.155,22.342C253.768,341.045,237.963,294.455,242.615,243.817Zm66.758,15.426a224.063,224.063,0,0,1,10.419-67.184q7.425,5.836,14.677,12.641c-14.2,48.183-10.338,94.765,11.488,138.576q-6.6,5.571-13.143,10.647A205.75,205.75,0,0,1,309.373,259.243ZM199.762,115.2c29.41-24.046,60.411-43.091,92.141-56.61,35.631-15.179,72.3-23.39,109.162-24.464-17.69,7.935-36.076,19.622-41.79,35.315-3.1,8.519-2.183,17.267,2.73,26,37.486,66.645,43.148,115.46,16.932,145.261-42.607-59.41-90.353-90.9-141.99-93.606-31.544-1.656-64.1,7.4-97.021,26.941A467.05,467.05,0,0,1,199.762,115.2Zm-63.977,73.71a231.734,231.734,0,0,1,27.341-15.072c-14.933,25.48-20.939,65.616-24.843,91.789l-.014.1C128.475,230.525,133.947,197.828,135.785,188.905Zm22.59,232.847a136.112,136.112,0,0,1-12.355-21.244,152.427,152.427,0,0,0,35.224,11.622c2.669.523,5.353.959,8.048,1.327,1.1,9.514,5.154,33.342,19.159,53.868C183.543,452.509,167.762,435.044,158.375,421.752ZM168.5,312.734c.123,27.157,2.661,66.3,21.146,90.663-2.166-.313-4.326-.659-6.473-1.081a137.545,137.545,0,0,1-21.561-6.118C159.779,386.7,154.559,351.417,168.5,312.734Zm81.293,137.6c-19.822-1.5-39.011-10.093-44.789-12.881a130.926,130.926,0,0,1-5.462-22.97c3.022.191,6.056.3,9.1.3q5.286,0,10.621-.391C222.029,421.625,229.86,436.925,249.788,450.33Zm-45.355-45.642c-26.96-23.5-26.183-81.221-25.839-106.1l.032-2.4a6.6,6.6,0,0,0-5.067-6.559,6.753,6.753,0,0,0-7.662,3.645c-20.161,41.064-17.786,80.676-15.232,98.333C118.93,376.871,94.459,352.769,76.832,335.4c-8.242-8.124-15.111-14.887-21.006-19.09a83.614,83.614,0,0,0,15.566-2.216,5.162,5.162,0,0,0,4.04-5.625,5.005,5.005,0,0,0-6.109-4.162c-23.523,5.6-35.253-1.6-37.146-2.915a60.318,60.318,0,0,1-11.02-11.118.852.852,0,0,1,.273-1.239,198.633,198.633,0,0,0,43.382-36.99c20.5-23.772,40.525-41.761,59.457-55.328-2.517,17.8-4.493,51.761,8.865,86.032a6.511,6.511,0,0,0,6.07,4.235,6.971,6.971,0,0,0,6.752-5.813c.707-3.939,1.439-8.849,2.287-14.533,4.309-28.89,12.195-81.736,33.413-100.315A161.623,161.623,0,0,1,228.34,157.1a232.071,232.071,0,0,0-21.649,71.776,217.273,217.273,0,0,0,4.253,81.243c7.6,30.717,22.162,60.062,43.327,87.328A150.04,150.04,0,0,1,204.433,404.688Zm179.32,35.275c-27.623,2.581-54.153.7-78.855-5.589-27.455-6.99-46.576-17.972-56.613-24.816a187.729,187.729,0,0,0,20.691-6.674c31.619-12.23,64.774-34.218,98.706-65.439a67.838,67.838,0,0,1,16.637,8.523c9.759,6.717,23.49,19.525,33.484,42.387,14.55,33.279,38.608,30.657,60.365,27.1C445.741,428.9,414.042,437.133,383.753,439.963Z" style="fill:#284268"/></svg>
