<svg id="Capa_1" enable-background="new 0 0 513.596 513.596" height="512" viewBox="0 0 513.596 513.596" width="512" xmlns="http://www.w3.org/2000/svg"><g><g><path d="m246.801 258.098 2.9-1.917 12.27.416.625 1.501h74.357l2.834-1.954 12.278.34 1.219 1.626-.004.031c13.138.441 25.205 5.499 34.466 13.655h3.688l6.268 7.679-.159 3.701-.009.009c4.028 6.259 6.81 13.394 7.915 21.074l1.604.881.375 12.488-1.959 1.713-.005-.001c-1.068 7.634-3.739 14.752-7.662 21.007l-.006.024.433 2.157-7.998 9.997-3.139.232c-7.488 6.38-16.747 10.74-26.937 12.242v.001l-.716 1.103-14.266.919-.629-1.444-23.255-.015c-11.05-.01-22.01 1.9-32.41 5.65l-.6.21c-19.95 7.19-37.01 20.54-48.73 38.1-.109.163-.213.319-.321.48s-.487 5.067-.487 5.193-4.427 4.975-4.427 4.975l-8.306-.59-1.78-10.911c-6.965-9.813-18.277-15.707-30.449-15.707h-47.87c-5.46 0-8.68 6.13-5.56 10.62l19.81 28.56c2.39 3.45 2.45 8.01.14 11.52l-2.289 3.482.013.001-6.421 27.369 48.991-4.15 42.338-30.848h174.794l66.531-67.822 16.33-39.313 5.476-17.896c.016-.885.028-1.771.028-2.659 0-3.3-.122-6.571-.339-9.816l-1.352-.037-2.353-11.539 1.77-4.314c-5.326-29.785-19.731-56.424-40.256-76.949-1.6-1.6-3.238-3.161-4.91-4.684l-2.3 1.588-9.126-6.746-.672-4.724c-24.017-17.579-53.628-27.964-85.672-27.964h-6.885l-.225 1.694h-13.769l-1.676-1.694h-75.733l-.394 1.599h-13.184l-2.217-1.599h-153.528c-5.545 0-10.04 4.495-10.04 10.04v7.74c0 40.681 32.979 73.66 73.66 73.66z" fill="#f58a97"/><g><g><path d="m503.662 300.975c-12.619 67.75-72.87 118.807-144.294 118.807h-123.294c-2.652 0-5.073 1.51-6.24 3.892l-1.253 2.558c-6.27 12.81-19.29 20.93-33.55 20.93l-37.017-.002-17.614 26.817c-2.96 4.51.27 10.49 5.66 10.49h48.97c11.513 0 22.204-5.306 29.201-14.087l1.181-11.248 4.562-5.702 8.173-.57 1.085 4.218h105.229l.72-1.203 14.204.221.924.979c40.851-.257 77.975-17.208 104.544-44.403l-.233-1.653 6.653-8.292 4.319-2.348c19.106-24.478 30.515-55.14 30.509-88.529 0-3.3-.13-6.58-.348-9.825z" fill="#f07281"/><path d="m239.23 457.078v-47.06c-1.24 1.855-2.403 3.594-3.421 5.117-1.886 2.819-6.068 2.686-7.779-.242l-1.989-3.405c-.561-.959-1.175-1.907-1.811-2.803v61.695c1.67-2.095 3.133-4.384 4.341-6.852l1.253-2.558c1.167-2.382 3.588-3.892 6.24-3.892z" fill="#eb5569"/></g></g></g><ellipse cx="153.648" cy="177.891" fill="#acacac" rx="16.799" ry="16.832"/><ellipse cx="148.572" cy="172.856" fill="#f8f6f6" rx="9.343" ry="9.362"/><g><path d="m360.887 159.159h-196.858c-3.078-1.717-6.615-2.704-10.382-2.704s-7.304.987-10.382 2.704h-49.998c-6.562 0-12.285 3.628-15.292 8.978h-37.073c-8.515 0-16.082-4.132-20.806-10.495 4.724-6.363 12.291-10.494 20.806-10.494h359.192c18.667 0 34.298-13.237 38.009-30.817h9.491c26.108 0 47.349-21.241 47.349-47.349s-21.24-47.349-47.349-47.349h-29.887c-4.143 0-7.5 3.358-7.5 7.5s3.357 7.5 7.5 7.5h29.887c17.837 0 32.349 14.512 32.349 32.349s-14.512 32.349-32.349 32.349h-9.29c-3.294-18.106-19.169-31.881-38.21-31.881h-38.387c-4.143 0-7.5 3.358-7.5 7.5s3.357 7.5 7.5 7.5h38.387c10.727 0 19.82 7.12 22.808 16.881h-382c-22.553 0-40.902 18.349-40.902 40.902 0 5.449 1.08 10.649 3.023 15.408-1.943 4.76-3.023 9.959-3.023 15.409 0 22.554 18.349 40.903 40.902 40.903h40.406c11.834 30.198 41.242 51.648 75.584 51.648h30.616c4.143 0 7.5-3.358 7.5-7.5s-3.357-7.5-7.5-7.5h-30.616c-36.483 0-66.164-29.681-66.164-66.164v-7.74c0-1.399 1.139-2.538 2.538-2.538h39.318c-.214 1.215-.347 2.457-.347 3.732 0 11.82 9.604 21.437 21.409 21.437s21.409-9.617 21.409-21.437c0-1.275-.132-2.518-.347-3.732h74.391c6.905 25.389 6.937 51.053.035 76.442h-29.664c-4.143 0-7.5 3.358-7.5 7.5s3.357 7.5 7.5 7.5h132.755c25.512 0 46.268 20.756 46.268 46.268 0 12.355-4.813 23.969-13.552 32.702-8.731 8.726-20.336 13.53-32.679 13.53h-.032l-30.931-.021h-.068c-11.933 0-23.674 2.049-34.899 6.093l-.592.214c-21.591 7.776-39.721 21.95-52.431 40.987-.393.588-.778 1.166-1.154 1.729-8.09-13.359-22.729-21.628-38.375-21.628h-47.867c-5.328 0-10.173 2.933-12.644 7.653-2.471 4.721-2.119 10.373.917 14.75l19.807 28.559c.653.941.669 2.169.039 3.126l-19.91 30.292c-2.886 4.39-3.129 9.989-.635 14.613s7.307 7.496 12.561 7.496h48.97c17.003 0 32.819-9.868 40.293-25.141l1.099-2.244h124.477c84.204 0 152.709-68.505 152.709-152.71s-68.505-152.71-152.709-152.71zm-319.985-42.828h381.646c-3.304 9.21-12.12 15.817-22.453 15.817h-359.193c-9.812 0-18.826 3.475-25.881 9.256.441-13.9 11.877-25.073 25.881-25.073zm0 82.622c-14.004 0-25.44-11.174-25.881-25.073 7.056 5.781 16.069 9.256 25.881 9.256h34.826v1.301c0 4.956.471 9.802 1.326 14.516zm112.745-14.625c-3.534 0-6.409-2.888-6.409-6.437s2.875-6.437 6.409-6.437 6.409 2.887 6.409 6.437-2.874 6.437-6.409 6.437zm186.19 66.273h-75.252c6.263-25.406 6.291-51.036.033-76.442h75.766l.346 1.42c6.006 24.658 5.676 50.529-.893 75.022zm-115.607 204.741-2.392 4.886c-4.975 10.166-15.503 16.734-26.82 16.734h-47.618l19.168-29.161c4.009-6.1 3.911-13.917-.248-19.914l-19.013-27.413h46.474c10.571 0 20.451 5.671 25.783 14.8l4.666 7.989zm118.37-5.764h-103.37v-26.067c1.387-2.073 3.784-5.658 6.555-9.808 10.915-16.35 26.489-28.523 45.042-35.205l.593-.214c9.588-3.454 19.617-5.204 29.813-5.204h.059l21.666.014c-5.387 27.43-5.51 53.077-.358 76.484zm154.18-160.012c-27.837 11.73-55.936 16.869-83.698 15.307-1.116-9.77-4.536-18.847-9.707-26.676 21.868-18.542 39.286-40.865 51.898-66.505 21.523 20.29 36.526 47.417 41.507 77.874zm-103.128-22.79c-10.21-9.388-23.601-15.365-38.353-16.098 6.092-25.077 6.269-51.337.487-76.52h5.1c30.946 0 59.538 10.263 82.558 27.56-11.815 25.208-28.549 47.051-49.792 65.058zm74.609 131.21c-6.997-2.371-13.674-5.147-19.894-8.291-3.695-1.87-8.208-.388-10.077 3.309s-.388 8.208 3.31 10.077c5.02 2.538 10.302 4.852 15.782 6.931-24.867 24.454-58.947 39.566-96.495 39.566h-2.896c-5.674-23.109-5.569-48.881.316-76.771 12.114-1.18 23.47-5.899 32.858-13.65 6.287 9.307 13.709 17.722 22.178 25.073 1.42 1.232 3.17 1.836 4.913 1.836 2.098 0 4.184-.875 5.667-2.584 2.715-3.128 2.38-7.865-.748-10.58-8.319-7.221-15.511-15.599-21.436-24.95 6.059-8.272 9.896-17.873 11.22-28.065 3.295.173 6.593.27 9.894.27 25.176 0 50.496-5.048 75.573-15.054.109 2.242.168 4.498.168 6.767.002 32.562-11.367 62.516-30.333 86.116z"/><path d="m320.926 84.45h8.464c4.143 0 7.5-3.358 7.5-7.5s-3.357-7.5-7.5-7.5h-8.464c-4.143 0-7.5 3.358-7.5 7.5s3.357 7.5 7.5 7.5z"/></g></g></svg>