<?xml version="1.0" encoding="iso-8859-1"?>
<!-- Generator: Adobe Illustrator 19.0.0, SVG Export Plug-In . SVG Version: 6.00 Build 0)  -->
<svg version="1.1" id="Layer_1" xmlns="http://www.w3.org/2000/svg" xmlns:xlink="http://www.w3.org/1999/xlink" x="0px" y="0px"
	 viewBox="0 0 512 512" style="enable-background:new 0 0 512 512;" xml:space="preserve">
<path style="fill:#AFAA8C;" d="M497.508,275.981c3.33-3.329,17.316-11.321,0-23.975c-17.316-12.654-52.354-37.521-71.928-55.944
	c-7.6-7.153-17.307-12.196-28.353-15.753l4.377-0.23c-49.111-14.643-95.161-15.899-135.651,7.139
	c-8.406,3.332-18.392,6.547-32.18,8.845l-31.607,10.536c-23.557,11.726-42.131,29.029-64.296,37.416
	c-49.283,18.647-106.559-1.998-127.871,23.976c0,0,47.952,23.309,47.952,31.967s-7.992,55.277-7.992,55.943
	c0,6.33,34.02-20.621,55.943-55.943c11.988-19.314,38.628-29.304,71.928-15.984c21.151,8.461,38.909,21.187,71.928,31.969
	c65.268,21.312,147.218,15.143,175.823,7.991c26.64-6.659,74.592-25.308,71.928-39.96h-39.96c4.662-4.662,9.657-7.992,15.984-7.992
	C473.532,275.981,494.178,279.312,497.508,275.981z"/>
<g>
	<path style="fill:#9B9673;" d="M407.597,140.119c-6.66-2.664-20.646-4.662-39.96-15.984c0,0-51.947,10.656-87.911,15.984
		l-31.968,47.952c59.685-23.561,107.253-19.203,151.847-7.992C410.927,165.427,408.215,140.366,407.597,140.119z"/>
	<path style="fill:#9B9673;" d="M183.822,164.095c-12.654,0-49.95,18.648-55.943,47.951h55.943l47.952-15.983
		C231.773,196.063,191.814,164.095,183.822,164.095z"/>
</g>
<g>
	<path style="fill:#D7BC84;" d="M169.838,299.958c0,0,4.662,47.951,7.992,47.951c22.644,0,51.948-21.978,55.943-31.967
		l-23.976-15.984L169.838,299.958L169.838,299.958z"/>
	<path style="fill:#D7BC84;" d="M313.693,387.87c22.644,0,47.952-41.293,47.952-55.944h-55.944
		C305.701,331.926,313.027,387.87,313.693,387.87z"/>
</g>
<path style="fill:#FFCD7D;" d="M404.136,324.813c-11.189-7.553-26.116-11.815-42.116-43.815c0,0-112-24-217.735-5.916
	c10.075-0.725,21.447,1,33.735,5.916c21.172,8.468,38.948,21.206,72,32C302.832,330.241,366.526,329.506,404.136,324.813z"/>
<g>
	<path style="fill:#87966E;" d="M498.02,248.997c-8.256-6.033-20.557-14.867-33.271-24.43c-13.345,0.262-38.024,4.27-52.979,28.43
		c0,0,22.25,20,78.25,20c1.086,0,2.015-0.021,3.06-0.028C500.438,272.671,515.122,261.493,498.02,248.997z"/>
	<path style="fill:#87966E;" d="M394.59,251.317c6.089-8.457,23.43-34.32,54.753-38.615c-8.647-6.822-16.855-13.618-23.323-19.705
		c-22.666-21.334-64-24-104-24c-38.667,0-44,16.666-88,24c-40.771,6.795-64.836,36.207-96,48c-49.333,18.666-106.667-2-128,24
		c0,0,48,23.332,48,32c76.964-69.269,312-48,312-48c0.086,0.617,8,48,58.504,71.343c7.314-1.933,15.913-4.646,24.564-7.877
		C409.128,302.116,397.232,263.251,394.59,251.317z"/>
</g>
<path style="fill:#9B9673;" d="M83.999,251.864c-38.259,3.468-57.854-6.521-73.979,13.132c0,0,48,23.333,48,32
	c0,8.666-8,55.333-8,56c0,6.336,34.054-20.643,56-56C94.678,290.544,87.332,275.512,83.999,251.864z"/>
<g>
	<path style="fill:#5C6661;" d="M272.133,275.773l15.92-100.828c-12.098,4.594-22.827,10.893-41.621,15.486l13.475,85.342
		C261.007,282.737,271.033,282.737,272.133,275.773z"/>
	<path style="fill:#5C6661;" d="M322.02,168.997c-5.579,0-10.408,0.379-14.815,0.994l16.703,105.781
		c1.1,6.965,11.126,6.965,12.226,0l16.729-105.949C342.717,169.194,332.331,168.997,322.02,168.997z"/>
	<path style="fill:#5C6661;" d="M208.133,275.773l12.567-79.594c-12.923,3.965-24.172,10.076-34.724,16.699l9.931,62.895
		C197.007,282.737,207.033,282.737,208.133,275.773z"/>
	<path style="fill:#5C6661;" d="M150.538,235.21c-4.082,2.186-8.229,4.164-12.518,5.787c-3.645,1.379-7.341,2.488-11.056,3.473
		l4.943,31.303c0.089,0.562,0.318,1.004,0.513,1.475c3.703-1.106,7.639-1.86,11.821-2.164L150.538,235.21z"/>
	<path style="fill:#5C6661;" d="M394.59,251.317c2.283-3.173,6.149-8.791,11.741-14.803l8.179-51.795
		c-11.984-6.932-26.839-10.863-43.038-13.037l16.436,104.09c1.1,6.965,11.126,6.965,12.226,0l0.928-5.875
		C397.372,262.11,395.46,255.244,394.59,251.317z"/>
</g>
<path style="fill:#D7BC84;" d="M385.4,267.432c0,0-45.236-15.425-65.715-15.425c0,0-2.382,25.854,8.357,36.592
	c10.596,10.596,26.275,11.359,47.587,11.359"/>
<path d="M511.99,263.495c-0.222-6.456-4.069-12.327-11.761-17.948c-2.092-1.528-4.44-3.234-6.989-5.085
	c-18.847-13.687-47.33-34.37-64.176-50.225c-5.401-5.084-11.694-9.194-18.674-12.52c7.996-16.447,5.796-36.686,5.047-39.431
	c-0.973-3.565-3.471-5.037-4.869-5.596c-2.123-0.85-4.619-1.572-7.508-2.409c-7.604-2.202-18.019-5.218-31.376-13.049
	c-1.705-0.999-3.719-1.33-5.653-0.936c-0.518,0.106-52.14,10.673-87.477,15.907c-2.237,0.332-4.229,1.595-5.484,3.477
	l-31.968,47.951c-0.56,0.84-0.932,1.748-1.141,2.677c-1.923,0.437-3.927,0.855-6.041,1.25c-3.77-2.961-10.815-8.421-18.419-13.951
	c-22.221-16.16-28.003-17.514-31.679-17.514c-8.883,0-22.997,5.817-35.119,14.477c-15.487,11.063-25.666,25.223-28.662,39.872
	c-0.481,2.354,0.121,4.801,1.64,6.662s3.795,2.941,6.198,2.941h34.954c-9.97,6.58-19.576,12.62-29.793,16.485
	c-21.129,7.995-44.665,8.33-65.431,8.626c-26.654,0.381-51.831,0.739-65.794,17.758c-1.553,1.893-2.154,4.394-1.63,6.786
	s2.115,4.412,4.317,5.483c18.044,8.771,39.05,20.995,43.395,26.15c-0.56,8.524-5.257,37.337-6.866,47.204
	c-1.071,6.569-1.071,6.569-1.071,7.361c0,4.039,2.563,7.484,6.379,8.572c0.64,0.182,1.437,0.409,2.541,0.409
	c3.704,0,10.849-2.565,26.98-18.014c7.682-7.357,22.423-22.687,34.84-42.692c11.37-18.316,35.77-23.332,62.16-12.775
	c0.452,0.181,0.899,0.371,1.349,0.557h-6.37c-2.256,0-4.408,0.953-5.924,2.624c-1.516,1.671-2.256,3.904-2.038,6.15
	c0.012,0.121,1.197,12.263,2.778,24.248c0.942,7.139,1.844,12.863,2.68,17.017c1.116,5.54,2.802,13.913,10.496,13.913
	c23.775,0,54.482-20.792,62.301-34.808c2.306,0.823,4.68,1.639,7.144,2.443c16.411,5.359,33.645,9.018,50.754,11.393
	c0.573,4.354,2.016,15.252,3.493,26.044c1.116,8.151,2.034,14.652,2.729,19.323c0.419,2.815,0.764,5.01,1.024,6.521
	c0.427,2.474,1.561,9.043,8.418,9.043c25.67,0,50.115-37.112,55.048-57.452c25.949-0.856,47.265-3.843,58.78-6.723
	c5.064-1.266,11.572-3.152,18.661-5.529c0.117-0.034,0.231-0.074,0.346-0.114c9.49-3.193,20.001-7.261,29.519-11.913
	c21.977-10.744,31.297-20.784,29.332-31.595c-0.142-0.778-0.391-1.509-0.73-2.18C506.014,277.519,512.28,271.925,511.99,263.495z
	 M284.418,147.502c30.504-4.672,70.718-12.68,81.859-14.929c13.822,7.718,24.869,10.918,32.331,13.078
	c0.575,0.166,1.132,0.327,1.666,0.483c0.22,6.008-0.288,17.42-4.934,25.866c-22.25-6.655-48.991-7.914-75.656-7.914
	c-22.666,0-35.08,5.466-48.223,11.254c-2.565,1.129-5.154,2.268-7.863,3.389L284.418,147.502z M139.193,204.047
	c9.973-19.076,35.211-31.521,44.177-31.941c4.104,1.241,17.145,10.144,30.506,20.201c-9.82,3.244-18.713,7.607-26.945,12.367
	c-0.956-0.403-2.006-0.627-3.109-0.627L139.193,204.047L139.193,204.047z M58.44,341.112c3.025-18.871,5.511-35.596,5.511-41.154
	c0-6.354-4.579-12.673-27.981-26.162c-4.596-2.648-9.161-5.127-13.083-7.195c10.809-4.956,26.952-5.187,44.95-5.443
	c3.868-0.055,7.831-0.114,11.857-0.219c-1.158,8.468-1.832,24.1,16.711,35.897C84.219,316.144,68.863,332.091,58.44,341.112z
	 M181.122,339.467c-1.35-6.563-3.048-19.116-4.411-31.509h30.534c4.861,2.376,10.05,4.801,15.719,7.213
	C217.411,322.274,198.059,336.753,181.122,339.467z M318.134,378.357c-1.371-9.206-3.608-25.563-5.717-41.516
	c12.951,1.219,25.649,1.761,37.674,1.813C345.471,351.288,331.28,372.538,318.134,378.357z M491.974,268.436
	c-0.354,0.298-0.698,0.588-1.031,0.879c-2.924,0.45-10.958-0.075-18.137-1.229c-0.421-0.068-0.847-0.103-1.274-0.103
	c-10.132,0-17.203,5.897-21.64,10.334c-3.125,3.124-3.125,8.188-0.001,11.313s8.189,3.126,11.313,0.001
	c3.743-3.742,6.708-5.457,9.791-5.633c7.025,1.104,12.372,1.532,16.445,1.506c-1.058,2.118-6.508,7.784-23.067,15.524
	c-7.798,3.645-16.054,6.838-23.699,9.449c-32.866-0.635-43.714-26.428-47.292-43.566c-0.044-0.67-0.179-1.326-0.386-1.957
	c-0.78-4.22-1.12-7.783-1.266-10.108c3.788-4.144,13.359-13.501,26.828-18.888c4.103-1.641,6.098-6.296,4.457-10.398
	c-1.64-4.103-6.297-6.097-10.398-4.457c-21.752,8.699-34.779,25.304-35.323,26.006c-1.085,1.402-1.674,3.125-1.674,4.897
	c0,0.2,0.008,1.624,0.168,3.935c-15.292-4.701-41.235-11.935-56.104-11.935c-4.134,0-7.587,3.149-7.966,7.266
	c-0.279,3.029-2.351,29.968,10.667,42.985c12.719,12.719,30.09,13.701,53.244,13.701c4.418,0,8-3.582,8-8s-3.582-8-8-8
	c-19.882,0-33.542-0.628-41.93-9.016c-4.324-4.323-5.978-14.075-6.238-22.326c15.484,2.072,38.717,8.949,51.122,12.98
	c1.156,4.684,2.762,9.767,4.998,14.866c5.985,13.653,14.765,23.766,25.968,30.12c-35.382,5.724-104.388,7.687-159.308-10.246
	c-19.824-6.474-34.266-13.812-47.008-20.286c-8.24-4.187-16.024-8.142-24.432-11.505c-17.212-6.886-34.145-8.458-48.965-4.554
	c-8.813,2.323-16.714,6.581-23.164,12.362c-12.227-6.946-12.16-14.601-10.847-23.14c0.054-0.353,0.076-0.7,0.084-1.048
	c14.125-1.048,28.681-3.33,42.792-8.67c13.25-5.014,25.293-13.011,36.941-20.744c17.027-11.307,34.634-22.997,57.447-26.799
	c21.069-3.512,33.688-9.068,44.821-13.971c12.557-5.529,22.476-9.896,41.775-9.896c39.083,0,78.055,2.641,98.413,21.801
	c17.587,16.553,46.565,37.596,65.74,51.521c2.535,1.841,4.871,3.537,6.95,5.057c4.927,3.601,5.21,5.563,5.211,5.58
	C496.014,264.489,495.329,265.611,491.974,268.436z"/>
<path d="M455.549,244.004c-2.11,0-4.17,0.86-5.66,2.34c-1.49,1.49-2.34,3.561-2.34,5.66c0,2.11,0.85,4.17,2.34,5.66
	s3.56,2.34,5.66,2.34c2.11,0,4.17-0.85,5.66-2.34s2.34-3.55,2.34-5.66c0-2.1-0.85-4.16-2.34-5.66
	C459.719,244.864,457.659,244.004,455.549,244.004z"/>
<g>
</g>
<g>
</g>
<g>
</g>
<g>
</g>
<g>
</g>
<g>
</g>
<g>
</g>
<g>
</g>
<g>
</g>
<g>
</g>
<g>
</g>
<g>
</g>
<g>
</g>
<g>
</g>
<g>
</g>
</svg>
