<svg height="512" viewBox="0 0 60 60" width="512" xmlns="http://www.w3.org/2000/svg"><g id="Icons"><path d="m59 14c0 2.85-2.15 4.7-5.57 6.31h-.01a25.257 25.257 0 0 0 -3.93-3.02 1.989 1.989 0 0 0 -1.04-.29h-1.98a1.974 1.974 0 0 0 -.89.21l-13.02 6.51a2 2 0 0 0 -.38 3.34c.35.29.71.56 1.08.82v.01h-.01a2.718 2.718 0 0 0 -.25.11 76.686 76.686 0 0 0 -11.18 6.27 36.544 36.544 0 0 0 -6.82 5.73c-1.42 5.7-6.34 14.82-8.5 18.5a1 1 0 0 1 -1.86-.47c0-6.3 5.36-17.03 5.36-17.03-1.34.67-5.89 1.22-8.1 1a1 1 0 0 1 -.55-1.76c3.72-3.23 11.65-4.24 11.65-4.24 1.01-2.2 2.13-3.21 3.34-5.05a42.076 42.076 0 0 1 6.72-7.89c.17-.16.34-.32.52-.47a45.787 45.787 0 0 1 15.64-8.98h.01a46.715 46.715 0 0 1 13.77-2.61 7.5 7.5 0 0 1 6 3z" fill="#02a9f4"/><g fill="#0377bc"><path d="m32.56 23.72 13.02-6.51a2.02 2.02 0 0 1 .385-.14 2.018 2.018 0 0 0 -.515-.07h-1.98a1.974 1.974 0 0 0 -.89.21l-13.02 6.51a2 2 0 0 0 -.38 3.34c.35.29.71.56 1.08.82v.01h-.01a2.718 2.718 0 0 0 -.25.11 76.686 76.686 0 0 0 -11.18 6.27 36.544 36.544 0 0 0 -6.82 5.73c-1.188 4.769-4.821 11.92-7.242 16.288a14.32 14.32 0 0 0 -.118 1.742 1 1 0 0 0 1.86.47c2.16-3.68 7.08-12.8 8.5-18.5a36.544 36.544 0 0 1 6.82-5.73 76.686 76.686 0 0 1 11.18-6.27 2.718 2.718 0 0 1 .25-.11h.01v-.01c-.37-.26-.73-.53-1.08-.82a2 2 0 0 1 .38-3.34z"/><path d="m1.81 41.977a.846.846 0 0 0 .09.023 23.117 23.117 0 0 0 4.72-.212c.237-.501.38-.788.38-.788a18.237 18.237 0 0 1 -5.19.977z"/><path d="m53 11c-.416 0-1.06.022-1.889.088a7.533 7.533 0 0 1 4.889 2.912c0 2.285-1.4 3.922-3.708 5.313.368.306.748.638 1.128 1h.01c3.42-1.613 5.57-3.463 5.57-6.313a7.5 7.5 0 0 0 -6-3z"/></g><path d="m56.57 29.58c-3.46 1.29-12.6 3.93-20.76-.17a17.748 17.748 0 0 1 -2.55-1.53c-.37-.26-.73-.53-1.08-.82a2 2 0 0 1 .38-3.34l13.02-6.51a1.974 1.974 0 0 1 .89-.21h1.98a1.989 1.989 0 0 1 1.04.29 25.257 25.257 0 0 1 3.93 3.02h.01a13.887 13.887 0 0 1 4.39 6.97 2.008 2.008 0 0 1 -1.25 2.3z" fill="#9e9e9e"/><path d="m57.82 27.28a13.887 13.887 0 0 0 -4.39-6.97h-.01a25.257 25.257 0 0 0 -3.93-3.02 1.989 1.989 0 0 0 -1.04-.29h-1.98a2 2 0 0 0 -.5.07 1.955 1.955 0 0 1 .525.22 25.257 25.257 0 0 1 3.93 3.02h.01a13.887 13.887 0 0 1 4.39 6.97 2.008 2.008 0 0 1 -1.25 2.3 33.025 33.025 0 0 1 -9.38 1.98 31.74 31.74 0 0 0 12.38-1.98 2.008 2.008 0 0 0 1.245-2.3z" fill="#707070"/><path d="m39.22 13.61a45.787 45.787 0 0 0 -15.64 8.98c-12.4-6.41-11.36-20.74-9.58-21.59 2.98-1.42 18.69 8.87 25.22 12.61z" fill="#9e9e9e"/><path d="m37.1 37.68c-3.78 1.76-10.46 3.44-15.28-3.41a76.686 76.686 0 0 1 11.18-6.27 2.718 2.718 0 0 1 .25-.11h.01v-.01a17.748 17.748 0 0 0 2.55 1.53v.01l2.51 3.94a2.99 2.99 0 0 1 -1.22 4.32z" fill="#f5f5f5"/><path d="m38.32 33.36-2.51-3.94v-.01a17.748 17.748 0 0 1 -2.55-1.53v.01h-.01a2.718 2.718 0 0 0 -.25.11c-.509.235-1 .47-1.485.7q.641.383 1.3.705v.01l2.51 3.94a2.99 2.99 0 0 1 -1.22 4.32 16.656 16.656 0 0 1 -4.836 1.448 14.44 14.44 0 0 0 7.831-1.443 2.99 2.99 0 0 0 1.22-4.32z" fill="#cfd8dc"/><path d="m23.06 23.06a42.076 42.076 0 0 0 -6.72 7.89 6.671 6.671 0 0 1 -1.73-5.05 2.976 2.976 0 0 1 3-2.9h5.39z" fill="#f5f5f5"/></g><g id="Outlines"><path d="m53 10a46.834 46.834 0 0 0 -13.662 2.522c-1.247-.722-2.771-1.641-4.468-2.666-12.491-7.541-18.87-10.92-21.301-9.756-1.413.673-1.611 3.65-1.631 4.9a20.421 20.421 0 0 0 8.751 17h-3.084a4 4 0 0 0 -4 3.882 8.029 8.029 0 0 0 1.466 5.14c-.256.357-.509.7-.757 1.026a18.575 18.575 0 0 0 -1.985 3.038c-1.909.3-8.273 1.474-11.634 4.4a2.016 2.016 0 0 0 -.6 2.133 1.964 1.964 0 0 0 1.705 1.381 26.357 26.357 0 0 0 6.364-.436c-1.574 3.457-4.527 10.619-4.523 15.466a1.952 1.952 0 0 0 1.46 1.9 2.088 2.088 0 0 0 .544.07 1.984 1.984 0 0 0 1.72-.991c2.325-3.961 7.056-12.856 8.544-18.528a37.528 37.528 0 0 1 5.7-4.832 11.2 11.2 0 0 0 9.071 4.6 16.539 16.539 0 0 0 6.848-1.667 3.94 3.94 0 0 0 2.109-2.472 4.021 4.021 0 0 0 -.469-3.282l-.821-1.289a23.762 23.762 0 0 0 7.277 1.094 33.451 33.451 0 0 0 11.3-2.112 3.028 3.028 0 0 0 1.876-3.446 13.93 13.93 0 0 0 -3.7-6.492c2.493-1.342 4.9-3.303 4.9-6.583a1.006 1.006 0 0 0 -.168-.555 8.479 8.479 0 0 0 -6.832-3.445zm-38.782-1.627c-.626-3.54-.07-6 .285-6.5 2.123-.7 14.156 6.568 19.333 9.694 1.1.664 2.121 1.28 3.053 1.834-.527.205-1.043.425-1.558.645-6.7-3.35-13.985-7.2-15.112-8.112a1 1 0 0 0 -1.762-.023 1.1 1.1 0 0 0 -.082.822c.142.458.38 1.216 14.626 8.382q-1.765.867-3.424 1.863a1.123 1.123 0 0 0 -.152-.037 47.091 47.091 0 0 1 -8.183-.912 1 1 0 1 0 -.484 1.94 37.739 37.739 0 0 0 6.014.827c-1.149.81-2.25 1.674-3.306 2.582a18.341 18.341 0 0 1 -9.248-13.005zm3.387 15.627h3.06a43.313 43.313 0 0 0 -4.365 5.269 6.858 6.858 0 0 1 -.695-3.352 1.986 1.986 0 0 1 2-1.917zm19.873 9.9a2.024 2.024 0 0 1 .236 1.65 1.916 1.916 0 0 1 -1.037 1.219c-3.877 1.814-9.259 2.808-13.4-2.253a72.857 72.857 0 0 1 6.563-3.842 6.868 6.868 0 0 1 -1.544 3.618 1 1 0 1 0 1.414 1.414c1.781-1.781 2.178-4.8 2.267-6.1.395-.191.782-.387 1.186-.575a20.651 20.651 0 0 0 1.955 1.169zm18.743-5.256c-4.25 1.575-15.038 4.5-23.411-2.356a.98.98 0 0 1 -.356-.882.99.99 0 0 1 .549-.79l10.6-5.3c-2.547 4.395-4.68 6.684-5.603 6.684a1 1 0 0 0 0 2c2.775 0 6.207-5.424 8.6-9.974 0-.008 0-.018.007-.026h.864a17.388 17.388 0 0 1 2.529 9 1 1 0 0 0 2 0 19.314 19.314 0 0 0 -1.735-7.987c2.2 1.572 5.778 4.647 6.576 8.47a1.017 1.017 0 0 1 -.62 1.162zm-2.638-9.536a27.24 27.24 0 0 0 -3.563-2.665 2.969 2.969 0 0 0 -1.571-.443h-1.977a3.022 3.022 0 0 0 -1.342.316l-13.022 6.512a2.984 2.984 0 0 0 -.722 4.844 76.829 76.829 0 0 0 -10.134 5.775 37.3 37.3 0 0 0 -7.02 5.912 1 1 0 0 0 -.2.4c-1.36 5.437-6.082 14.309-8.389 18.271 0-5.987 5.2-16.476 5.254-16.581a1 1 0 0 0 -1.344-1.349 21.579 21.579 0 0 1 -7.544.887c3.439-2.987 11.041-3.987 11.117-3.995a1 1 0 0 0 .783-.575 15.454 15.454 0 0 1 2-3.159c.407-.536.828-1.09 1.267-1.758a41.351 41.351 0 0 1 6.571-7.712c.155-.146.31-.293.5-.45a44.564 44.564 0 0 1 15.234-8.759l.075-.023a46.3 46.3 0 0 1 13.444-2.556 6.484 6.484 0 0 1 4.988 2.321c-.135 1.859-1.497 3.325-4.405 4.788z"/><circle cx="53" cy="15" r="1"/></g></svg>