<svg height="512" viewBox="0 0 512 512" width="512" xmlns="http://www.w3.org/2000/svg"><g id="Layer_2"><g><g><g><path d="m429.315 302.785c6.467 4.694 3.297 15.049-4.694 15.122-3.803.035-7.264.862-9.653 4.179-7.005 9.727 9.225 21.414 2.221 31.142-7.005 9.727-23.234-1.96-30.239 7.767-7.005 9.728 9.225 21.415 2.22 31.143-7.006 9.729-23.236-1.958-30.242 7.771-2.365 3.284-2.082 6.791-.939 10.371 2.435 7.627-6.381 13.906-12.878 9.227l-21.88-18.649 84.135-116.838z" fill="#68c0e0"/></g><g><path d="m432.779 172.592h-237.559c-69.961 0-126.676 56.715-126.676 126.676h-61.02c0 73.728 59.768 133.496 133.496 133.496l88.267-.262c71.39-3.761 131.95-48.356 158.771-110.86 7.671-17.876 25.269-29.449 44.721-29.449z" fill="#3282a1"/></g><g><g><path d="m91.662 299.267c0-69.961 56.715-126.676 126.676-126.676h-23.118c-69.961 0-126.676 56.715-126.676 126.676z" fill="#68c0e0"/></g><g><path d="m30.642 299.268h-23.118c0 73.728 59.768 133.496 133.496 133.496l19.311-.057c-71.967-2.017-129.689-60.985-129.689-133.439z" fill="#68c0e0"/></g></g><g><circle cx="176.167" cy="224.202" fill="#494a47" r="27.662"/></g><g><path d="m171.813 224.202c0-11.113 6.556-20.689 16.008-25.088-3.543-1.649-7.489-2.575-11.654-2.575-15.278 0-27.662 12.385-27.662 27.662 0 15.278 12.385 27.662 27.662 27.662 4.165 0 8.112-.926 11.654-2.575-9.452-4.397-16.008-13.973-16.008-25.086z" fill="#333331"/></g><g><path d="m106.776 299.267h-38.067l19.034-41.29z" fill="#fff"/></g><g><path d="m144.844 299.267h-38.068l19.034-47.402z" fill="#fff"/></g><g><path d="m68.709 299.267h-38.067l19.033-34.984z" fill="#fff"/></g><g><path d="m264.256 471.197-39.892-36.375c-6.131-5.591-8.212-14.366-5.243-22.114l3.981-10.391c2.968-7.748 10.38-12.887 18.677-12.95l53.985-.409c20.663-.156 28.162 27.169 10.314 37.581-8.173 4.768-11.932 14.578-9.037 23.587 6.321 19.673-17.516 34.993-32.785 21.071z" fill="#68c0e0"/></g><g><path d="m485.421 312.284-52.642-20.252v-120.246l52.642-20.252 13.094 41.591c7.948 25.245 7.948 52.323 0 77.569z" fill="#68c0e0"/></g><g><path d="m195.274 158.242c.03-7.991 10.286-11.469 15.015-5.028 2.251 3.066 4.944 5.392 9.032 5.392 11.987 0 11.987-20 23.974-20s11.987 20 23.974 20 11.987-20 23.975-20c11.989 0 11.989 20 23.978 20 4.047 0 6.728-2.279 8.965-5.298 4.766-6.433 15.013-2.948 15.013 5.058v14.226h-143.98z" fill="#68c0e0"/></g><g><circle cx="46.429" cy="161.949" fill="#eead2c" r="38.905"/></g><g><path d="m30.832 161.949c0-17.426 11.458-32.174 27.25-37.127-3.68-1.154-7.594-1.778-11.654-1.778-21.486 0-38.905 17.418-38.905 38.905 0 21.486 17.418 38.905 38.905 38.905 4.06 0 7.975-.624 11.654-1.778-15.792-4.953-27.25-19.701-27.25-37.127z" fill="#d79522"/></g></g><path d="m176.167 191.54c-18.011 0-32.663 14.652-32.663 32.662s14.652 32.663 32.663 32.663c18.01 0 32.662-14.652 32.662-32.663 0-18.01-14.652-32.662-32.662-32.662zm0 55.325c-12.496 0-22.663-10.167-22.663-22.663s10.167-22.662 22.663-22.662 22.662 10.166 22.662 22.662-10.166 22.663-22.662 22.663z"/><path d="m279.207 424.416-32.401-12.414c-2.579-.988-5.47.302-6.458 2.88s.302 5.47 2.88 6.458l32.401 12.414c.589.226 1.193.333 1.788.333 2.011 0 3.907-1.223 4.67-3.213.988-2.579-.302-5.47-2.88-6.458z"/><path d="m243.94 424.049c-2.115-1.776-5.269-1.502-7.045.611-1.776 2.114-1.503 5.269.611 7.045l28.108 23.619c.938.788 2.079 1.172 3.214 1.172 1.426 0 2.842-.606 3.831-1.783 1.776-2.114 1.503-5.269-.611-7.045z"/><path d="m286.168 401.676-36.693-1.208c-2.72-.089-5.07 2.073-5.161 4.833s2.072 5.071 4.833 5.162l36.693 1.208c.056.002.111.003.167.003 2.686 0 4.905-2.132 4.994-4.835.091-2.761-2.072-5.072-4.833-5.163z"/><path d="m483.626 316.951c.578.223 1.188.333 1.795.333.744 0 1.487-.166 2.172-.496 1.243-.6 2.183-1.686 2.598-3.002l13.094-41.591c8.298-26.355 8.298-54.216 0-80.571l-13.094-41.591c-.415-1.316-1.354-2.403-2.598-3.002-1.244-.6-2.682-.658-3.967-.163l-52.642 20.251c-.323.124-.62.29-.903.472h-85.882v-9.226c0-5.875-3.616-10.864-9.212-12.711-5.542-1.831-11.358.007-14.819 4.676-2.014 2.718-3.435 3.275-4.947 3.275-2.85 0-4.615-2.424-7.699-7.57-3.145-5.246-7.451-12.43-16.278-12.43-8.826 0-13.132 7.184-16.276 12.43-3.084 5.146-4.849 7.57-7.698 7.57s-4.614-2.424-7.698-7.571c-3.145-5.245-7.45-12.429-16.275-12.429-8.826 0-13.132 7.184-16.276 12.43-3.084 5.146-4.849 7.57-7.698 7.57-1.525 0-2.96-.57-5.001-3.351-3.43-4.672-9.226-6.523-14.766-4.721-5.615 1.829-9.258 6.81-9.279 12.689l-.035 9.471c-8.388.314-16.579 1.41-24.499 3.229v-79.043c0-33.882-27.565-61.448-61.448-61.448-33.882 0-61.447 27.565-61.447 61.448v26.324c-22.537 1.831-40.32 20.745-40.32 43.746 0 24.209 19.695 43.905 43.904 43.905s43.904-19.696 43.904-43.905c0-22.029-16.31-40.316-37.488-43.431v-26.639c0-28.368 23.079-51.448 51.447-51.448 28.369 0 51.448 23.08 51.448 51.448v81.767c-47.916 15.093-84.098 56.893-91 107.866l-10.674-19.619c-.875-1.609-2.56-2.61-4.392-2.61s-3.517 1.001-4.392 2.61l-17.615 32.375h-20.146c-2.762 0-5 2.239-5 5 0 76.367 62.129 138.496 138.51 138.496l78.955-.234c.328.334.655.669 1.005.988l39.893 36.375c4.886 4.455 10.819 6.723 16.837 6.722 4.676 0 9.402-1.37 13.724-4.147 9.884-6.352 13.947-17.684 10.353-28.869-2.16-6.721.698-14.181 6.796-17.739 8.476-4.944 13.025-13.537 12.49-22.834.539-.346 1.071-.704 1.607-1.055l19.174 16.343c.104.088.211.173.321.252 2.372 1.708 5.09 2.562 7.81 2.562 2.746 0 5.494-.871 7.891-2.61 4.722-3.428 6.631-9.221 4.863-14.758-1.029-3.222-.65-4.7.233-5.928 1.666-2.313 4.667-2.329 10.644-1.825 6.097.514 14.441 1.217 19.599-5.946s1.844-14.854-.576-20.471c-2.374-5.51-3.31-8.359-1.645-10.671 1.664-2.312 4.666-2.326 10.642-1.823 6.096.514 14.439 1.218 19.598-5.944 5.157-7.163 1.844-14.854-.576-20.471-2.373-5.51-3.31-8.359-1.645-10.671.892-1.238 2.192-2.069 5.642-2.101 5.795-.054 10.686-3.674 12.459-9.224 1.774-5.555-.068-11.345-4.697-14.815l-1.887-1.613c.581-.03 1.163-.048 1.748-.055zm-45.847-141.732 44.471-17.108 11.495 36.515c7.68 24.391 7.68 50.175 0 74.565l-11.495 36.515-44.471-17.108zm-357.446-13.27c0 18.695-15.209 33.905-33.904 33.905s-33.904-15.209-33.904-33.905 15.209-33.905 33.904-33.905 33.904 15.209 33.904 33.905zm119.941-3.688c.008-2.271 1.82-3.037 2.376-3.218.675-.219 2.377-.548 3.607 1.129 1.35 1.839 5.455 7.434 13.063 7.434 8.826 0 13.132-7.184 16.276-12.43 3.084-5.146 4.849-7.57 7.698-7.57s4.613 2.424 7.697 7.57c3.145 5.246 7.45 12.43 16.276 12.43s13.132-7.184 16.276-12.43c3.084-5.146 4.849-7.57 7.698-7.57 2.851 0 4.616 2.425 7.701 7.571 3.144 5.246 7.45 12.429 16.276 12.429 7.557 0 11.641-5.51 12.982-7.321 1.256-1.697 2.969-1.358 3.649-1.135.55.182 2.347.951 2.347 3.216v9.226h-133.96zm-150.599 116.485 10.622 19.522h-12.452-8.791zm253.882 147.475c-10.119 5.903-14.861 18.283-11.276 29.436 2.632 8.19-1.716 14.49-6.239 17.397-4.522 2.908-12.06 4.245-18.416-1.552l-39.893-36.375c-4.645-4.234-6.191-10.762-3.943-16.63l3.981-10.392c2.248-5.869 7.761-9.691 14.046-9.738l53.984-.409h.138c8.515 0 13.186 5.995 14.602 11.151 1.421 5.184.446 12.777-6.984 17.112zm124.044-111.581c-.216.675-.943 2.249-3.025 2.268-2.28.021-9.221.084-13.665 6.257-5.157 7.163-1.844 14.854.576 20.471 2.373 5.51 3.31 8.359 1.645 10.671-1.664 2.312-4.662 2.326-10.642 1.823-6.096-.513-14.44-1.218-19.598 5.944-5.157 7.163-1.844 14.855.576 20.472 2.374 5.51 3.31 8.359 1.645 10.671-1.665 2.313-4.663 2.329-10.644 1.825-6.096-.514-14.44-1.217-19.599 5.946-4.415 6.133-2.33 12.666-1.645 14.813.642 2.011-.634 3.204-1.212 3.624-.457.333-2.062 1.3-3.846.12l-17-14.49c27.034-19.939 48.263-46.631 61.484-77.441 4.873-11.356 14.186-19.862 25.409-23.871l8.004 6.843c.101.086.205.168.313.246 1.838 1.334 1.401 3.252 1.224 3.808zm.178-23.216c-19.453 1.806-36.513 14.06-44.316 32.246-12.966 30.215-34.048 56.271-60.969 75.351-1.345.953-2.708 1.875-4.078 2.785-4.162-8.555-12.529-13.848-22.479-13.848-.07 0-.142 0-.213 0l-53.984.409c-10.429.079-19.577 6.422-23.308 16.161l-3.981 10.391c-2.103 5.488-2.204 11.322-.514 16.628l-72.918.216c-69.179 0-125.765-54.95-128.399-123.496h35.221.004 112.895c2.762 0 5-2.239 5-5s-2.238-5-5-5h-12.516l-17.775-44.266c-.761-1.895-2.598-3.137-4.64-3.137s-3.879 1.242-4.64 3.137l-14.71 36.635-14.177-30.753c-.817-1.772-2.59-2.907-4.541-2.907s-3.724 1.135-4.541 2.907l-5.555 12.051c13.857-51.957 61.313-90.344 117.575-90.344h7.936 121.55 103.073zm-351.259 6.844 11.223-24.347 11.224 24.347zm37.652 0 11.638-28.984 11.639 28.984z"/><path d="m449.667 231.909c0 2.761 2.238 5 5 5h32c2.762 0 5-2.239 5-5s-2.238-5-5-5h-32c-2.762 0-5 2.239-5 5z"/><path d="m454.669 192.911c.617 0 1.246-.116 1.855-.359l20-8c2.563-1.026 3.811-3.936 2.785-6.5-1.025-2.563-3.933-3.813-6.5-2.786l-20 8c-2.563 1.026-3.811 3.936-2.785 6.5.783 1.955 2.661 3.145 4.645 3.145z"/><path d="m476.524 279.267-20-8c-2.567-1.026-5.475.222-6.5 2.786s.222 5.474 2.785 6.5l20 8c.609.244 1.237.359 1.855.359 1.984 0 3.862-1.189 4.645-3.145 1.026-2.565-.221-5.475-2.785-6.5z"/></g></g></svg>