<svg id="Capa_1" enable-background="new 0 0 512 512" height="512" viewBox="0 0 512 512" width="512" xmlns="http://www.w3.org/2000/svg"><g><g><path d="m128.242 339.651-31.721 22.654c-3.743 2.673-2.195 8.556 2.379 9.041l17.026 1.804c9.821 1.04 17.412 9.094 17.871 18.959l.917 19.714c.147 3.166 3.165 5.398 6.236 4.611l19.201-4.919c8.916-2.284 18.239 1.811 22.589 9.922l7.973 14.866c2.239 4.175 8.489 3.185 9.327-1.479l8.312-46.243c.001.001-19.368-33.687-80.11-48.93z" fill="#c5bbff"/><path d="m393.911 154.959s16.956-87.471-92.678-121.221c-1.839-.566-3.335 1.558-2.185 3.102 7.831 10.512 24.537 36.811 22.078 67.126-.157 1.936-2.74 2.517-3.722.841-7.537-12.861-30.012-44.196-72.035-48.52-1.632-.168-2.752 1.608-1.914 3.018 4.637 7.804 15.055 28.268 12.341 50.778-.214 1.774-2.48 2.399-3.567.981-7.723-10.077-31.222-35.766-65.939-29.083-1.67.322-2.218 2.432-.907 3.516 6.583 5.44 20.569 19.654 21.606 42.894.08 1.789-2.085 2.753-3.377 1.513-7.681-7.369-28.681-22.189-65.699-11.191-1.719.511-1.97 2.851-.384 3.687 7.487 3.946 22.037 13.72 26.232 31.659.315 1.349-.832 2.597-2.205 2.415-6.943-.92-25.901-1.654-45.511 13.123-1.349 1.016-.949 3.135.688 3.549 8.927 2.257 29.339 9.697 27.784 30.336z" fill="#c5bbff"/><path d="m393.91 154.958h-30s12.96-66.85-57.03-106.21c-2.89-4.99-5.69-9.04-7.83-11.91-1.15-1.54.34-3.67 2.18-3.1 109.64 33.75 92.68 121.22 92.68 121.22z" fill="#a698f9"/><path d="m489.33 245.477h-10.896c-6.702 0-12.645-4.432-14.426-10.894-25.679-93.149-126.127-91.504-126.127-91.504-128.872 0-213.824 72.183-241.875 100.117-5.83 5.805-15.232 5.863-21.106.103l-43.167-42.323c-5.695-5.584-14.841 1.051-11.3 8.198l4.961 10.014c5.103 10.3 3.947 22.598-2.985 31.767l-10.816 14.305c-5.457 7.217-5.457 17.181 0 24.398l10.816 14.306c6.932 9.169 8.088 21.467 2.985 31.767l-5.048 10.19c-3.538 7.141 5.593 13.776 11.292 8.205l43.486-42.504c5.818-5.687 15.101-5.703 20.936-.032 28.4 27.603 112.873 100.252 215.274 100.252 181.03 0 193.166-129.957 193.166-129.957v-21.238c0-8.379-6.792-15.17-15.17-15.17z" fill="#ffdce1"/><path d="m504.5 260.648v21.24s-12.14 129.95-193.17 129.95c-4.38 0-8.72-.13-13.03-.4 164.83-7.84 176.2-129.55 176.2-129.55v-21.24c0-8.38-6.79-15.17-15.17-15.17h-10.9c-6.7 0-12.64-4.43-14.42-10.9-20.6-74.71-89.3-88.44-115.69-90.94 6.4-.37 12.92-.56 19.56-.56 0 0 100.45-1.64 126.13 91.5 1.78 6.47 7.72 10.9 14.42 10.9h10.9c8.38 0 15.17 6.79 15.17 15.17z" fill="#ffc0c6"/><path d="m299.331 429.214 19.293-.846c8.531-.374 16.359 4.71 19.486 12.656l5.376 13.658c1.913 4.86 7.243 7.429 12.236 5.898l13.579-4.163c7.525-2.307 15.704.014 20.896 5.931l12.545 14.297c3.043 3.468 8.758 1.316 8.758-3.298v-125.062c0-4.056-4.575-6.424-7.887-4.083l-107.388 75.933c-4.073 2.882-1.878 9.297 3.106 9.079z" fill="#c5bbff"/><path d="m411.5 348.288v125.06c0 4.61-5.72 6.76-8.76 3.3l-12.54-14.3c-2.39-2.72-5.41-4.68-8.7-5.78v-96.73l22.11-15.64c3.31-2.34 7.89.03 7.89 4.09z" fill="#a698f9"/></g><g><path d="m489.329 237.97h-10.896c-3.362 0-6.322-2.216-7.196-5.387-2.96-10.736-7.032-20.809-12.102-29.937-2.011-3.621-6.578-4.927-10.199-2.915s-4.927 6.577-2.915 10.199c4.493 8.088 8.111 17.052 10.755 26.641 2.663 9.656 11.568 16.4 21.657 16.4h10.896c4.229 0 7.67 3.441 7.67 7.67v20.832c-.577 4.825-9.414 67.444-78.004 101.22v-34.409c0-4.691-2.588-8.945-6.754-11.101-4.166-2.157-9.133-1.813-12.964.895l-68.557 48.476c-36.511-112.18-3.208-211.515 6.321-235.979.278-.001.553-.007.831-.007.041 0 .082 0 .123-.001.526.017 51.612-.445 87.932 33.562 3.023 2.83 7.77 2.676 10.601-.349 2.831-3.024 2.675-7.77-.349-10.601-10.774-10.087-22.576-17.473-34.152-22.88.73-8.812.834-26.209-6.299-45.866-9.218-25.404-32.713-59.536-92.303-77.881-3.935-1.208-8.172.239-10.546 3.606-2.375 3.366-2.317 7.846.142 11.146 5.408 7.259 16.241 23.824 19.728 43.982-12.706-15.16-34.277-33.147-66.628-36.477-3.586-.371-7.023 1.291-8.966 4.332-1.947 3.048-2.01 6.871-.164 9.979 3.244 5.459 9.636 17.767 11.321 32.347-12.898-12.42-34.562-26.427-63.458-20.867-3.657.704-6.501 3.381-7.423 6.987-.92 3.601.289 7.309 3.154 9.676 4.15 3.43 12.606 11.685 16.667 24.685-12.39-7.054-32.676-13.001-61.497-4.439-3.727 1.107-6.381 4.322-6.762 8.191-.38 3.857 1.589 7.515 5.016 9.321 5.681 2.994 14.887 9.164 19.882 19.53-10.4.157-26.244 2.882-42.386 15.045-2.959 2.231-4.342 5.869-3.609 9.497.73 3.61 3.403 6.412 6.973 7.314 8.026 2.028 20.9 7.144 22.102 19.149-21.667 15.085-37.33 29.406-46.281 38.32-2.906 2.896-7.645 2.923-10.565.062l-43.169-42.325c-5.18-5.078-12.897-5.65-18.769-1.391-5.871 4.259-7.724 11.774-4.503 18.275l4.961 10.013c3.866 7.805 3.006 16.969-2.247 23.916l-10.814 14.306c-7.445 9.846-7.445 23.6 0 33.446l10.817 14.306c5.253 6.948 6.114 16.111 2.247 23.915l-5.048 10.192c-3.218 6.494-1.37 14.007 4.494 18.268 5.863 4.26 13.578 3.697 18.762-1.369l43.488-42.506c2.931-2.864 7.529-2.872 10.467-.018 6.262 6.086 14.683 13.84 24.98 22.346l-23.65 16.891c-4.264 3.045-6.157 8.288-4.823 13.354 1.334 5.067 5.562 8.697 10.772 9.249l17.026 1.804c6.184.655 10.882 5.64 11.171 11.851l.917 19.713c.175 3.774 2.018 7.226 5.055 9.471 3.037 2.246 6.876 2.996 10.535 2.059l19.202-4.919c5.587-1.431 11.393 1.119 14.119 6.202l7.973 14.866c2.224 4.148 6.38 6.601 10.942 6.6.669 0 1.349-.053 2.031-.16 5.33-.845 9.392-4.823 10.347-10.135l6.638-36.929c22.816 9.285 47.726 16.264 74.117 18.929-1.681 3.012-2.071 6.653-.887 10.114 1.811 5.293 6.772 8.678 12.375 8.442l19.294-.846c5.315-.249 10.225 2.944 12.179 7.911l5.376 13.657c3.326 8.453 12.735 12.982 21.415 10.324l13.58-4.163c4.694-1.441 9.82.015 13.06 3.706l12.546 14.298c2.436 2.777 5.836 4.272 9.35 4.272 1.485 0 2.99-.268 4.451-.817 4.918-1.852 8.096-6.444 8.096-11.699v-19.857c0-4.143-3.358-7.5-7.5-7.5s-7.5 3.358-7.5 7.5v13.217l-8.166-9.307c-7.126-8.121-18.407-11.32-28.732-8.155l-13.58 4.163c-1.241.385-2.584-.267-3.059-1.475l-5.376-13.658c-4.3-10.922-15.059-17.9-26.795-17.403l-10.795.474 96.504-68.237v65.379c0 4.143 3.358 7.5 7.5 7.5s7.5-3.358 7.5-7.5v-19.241c43.597-19.381 66.467-49.347 78.018-71.337 12.89-24.537 14.876-44.5 14.954-45.338.022-.231.033-.465.033-.697v-21.239c-.004-12.505-10.174-22.676-22.675-22.676zm-187.039-7.399c-7.293 57.642-2.03 113.14 15.628 165.036l-12.298 8.696c-.219-.026-.439-.047-.664-.054-15.784-.478-31.097-2.695-45.803-6.178-21.871-50.524-29.245-104.037-21.903-159.07 5.435-40.743 17.356-69.388 21.773-78.955 19.146-4.699 39.783-7.937 61.862-9.049-5.205 14.54-13.947 42.834-18.595 79.574zm-89.86 151.726c-.653-.426-1.385-.749-2.173-.957-17.485-7.81-33.581-16.944-47.942-26.316-.082-.166-.164-.332-.26-.494-40.52-68.547-7.184-139.458-.09-152.977.141-.268.258-.541.363-.817 21.619-13.317 47.807-26.211 78.265-35.594-5.804 14.86-13.947 39.897-18.213 71.876-7.176 53.791-.951 106.206 18.48 156.003-9.816-3.104-19.306-6.733-28.43-10.724zm-82.69-212.519c13.686-7.038 25.669-6.563 30.807-5.881 3.09.411 6.189-.724 8.287-3.036 2.093-2.308 2.919-5.493 2.211-8.521-3.154-13.489-11.136-22.935-18.84-29.202 25.848-3.906 40.619 6.813 46.197 12.165 2.818 2.704 6.939 3.408 10.501 1.796 3.553-1.609 5.736-5.164 5.562-9.054-.803-17.999-8.561-31.229-15.619-39.652 24.188.625 40.841 18.643 47.416 27.221 2.358 3.076 6.298 4.402 10.04 3.379 3.743-1.023 6.462-4.173 6.927-8.024 2.157-17.884-3.127-34.453-8.12-45.465 31.774 7.513 49.362 32.075 55.813 43.08 2.105 3.593 6.249 5.383 10.316 4.455 4.062-.927 7.017-4.334 7.354-8.48 1.889-23.287-6.608-44.29-14.583-58.413 34.323 13.635 56.955 34.691 67.374 62.736 5.278 14.206 6.12 27.212 5.924 35.479-25.827-8.891-47.533-8.832-49.489-8.794-56.73.008-111.298 13.618-162.196 40.451-9.049 4.771-17.494 9.718-25.318 14.68-3.102-8.859-10.186-16.103-20.564-20.92zm-59.881 136.478-41.714 40.767 3.945-7.963c6.406-12.929 4.979-28.112-3.723-39.622l-10.817-14.306c-3.417-4.52-3.417-10.832 0-15.351l10.817-14.306c8.702-11.51 10.129-26.693 3.723-39.623l-3.852-7.781 41.388 40.579c8.752 8.582 22.951 8.518 31.651-.144 8.447-8.412 21.199-20.011 38.006-32.288-9.746 26.869-20.057 72.875-2.088 120.986-1.257-.965-2.487-1.924-3.701-2.877-.424-.421-.886-.787-1.383-1.088-13.04-10.336-23.491-19.881-30.846-27.029-8.817-8.57-22.613-8.549-31.406.046zm124.054 120.179-4.579-8.539c-5.996-11.182-18.767-16.793-31.062-13.644l-16.227 4.157-.774-16.646c-.635-13.665-10.97-24.629-24.575-26.071l-10.478-1.11 21.775-15.551c19.455 14.932 43.86 31.025 71.916 44.044z"/><path d="m381.993 231.953v15.001c0 4.143 3.358 7.5 7.5 7.5s7.5-3.358 7.5-7.5v-15.001c0-4.143-3.358-7.5-7.5-7.5s-7.5 3.357-7.5 7.5z"/></g></g></svg>