<svg id="Layer_1" enable-background="new 0 0 512 512" height="512" viewBox="0 0 512 512" width="512" xmlns="http://www.w3.org/2000/svg"><g id="XMLID_1_"><g id="XMLID_3933_"><path id="XMLID_1384_" d="m289.6 166s-64.7.2-142.1-35.7c-50.4-23.4-119.5-68-119.5-90.3s29.9-35 108.1-35 261.3 17.6 301.8 82.4c0 0 18.9 62-39.1 78.6z" fill="#e36415"/><path id="XMLID_426_" d="m382.8 46.4c.1.3 14.9 29.9 10.4 63.4 0 0-44.5-.4-76.1 56.2h81.7c58-16.5 39.1-78.6 39.1-78.6-10.4-16.6-30.1-30.1-55.1-41z" fill="#b24e10"/><path id="XMLID_1386_" d="m322.8 186.8c-82-57.8-250-110.7-240.7-138.3s232-7.2 342.7 83.6c0 0 3.6 30.6-31.8 49.1s-70.2 5.6-70.2 5.6z" fill="#ffc96f"/><path id="XMLID_443_" d="m374.2 171.2c-83.9-77.7-255.2-89.1-255.2-89.1 52.5 28.4 148.1 65.4 203.8 104.7 0 0 30.8 11.6 64.1-2.7-3.8-4.3-8-8.6-12.7-12.9z" fill="#ffb234"/><path id="XMLID_1388_" d="m452.7 146.1c0-35.1-14.8-58.5-14.8-58.5 0 150.7-337.8 93.7-374.8 132.6v54.8h215l201.3-79.9z" fill="#e36415"/><path id="XMLID_1922_" d="m63 220.2v54.8h132.3c-12.9-6.3-26.2-11.5-37.1-14.9-36.7-11.4-25.8-55.5-25.8-55.5-34.5 2.5-60.6 6.3-69.4 15.6z" fill="#b24e10"/><path id="XMLID_1387_" d="m224.4 330.4c219.4 0 282.6-59.2 282.6-104.4s-54.2-80.2-54.2-80.2c0 81.8-177.4 115.5-351.8 115.5l45.8 49.6z" fill="#ffc96f"/><path id="XMLID_434_" d="m503 204.5c-27 79.9-250.5 91.4-369.7 91.8l13.5 14.6 77.5 19.6c219.5-.1 282.7-59.3 282.7-104.5 0-7.5-1.5-14.7-4-21.5z" fill="#ffb234"/><path id="XMLID_1621_" d="m54.4 278c-19.2-36.3 8.6-57.8 8.6-57.8 43.5 72.2 194.4 121.1 214.5 133.8 20.2 12.7 17.1 46.9 17.1 46.9s-103 9.2-172.6-40-67.6-82.9-67.6-82.9z" fill="#e36415"/><path id="XMLID_1390_" d="m419.4 507c56.5 0 87.6-31.4 87.6-49.2s-58.8-50.8-131.2-50.8c-223 0-321.4-129-321.4-129s-49.4 18.4-49.4 70.5 108.5 158.5 414.4 158.5z" fill="#ffc96f"/><path id="XMLID_438_" d="m11.3 318.4c-3.8 8.5-6.3 18.4-6.3 30.1 0 48.6 94.4 144.4 355.3 157.1-216-47.3-349-187.2-349-187.2z" fill="#ffb234"/><path id="XMLID_1389_" d="m302 457s-73.9-24-106.6-24 15.4 74 46.2 74 60.4-50 60.4-50z" fill="#e36415"/><circle id="XMLID_1383_" cx="421" cy="451" fill="#275e87" r="15"/><g id="XMLID_1382_"><path id="XMLID_1921_" d="m207.6 440.7h10v41.6h-10z" fill="#b24e10" transform="matrix(.213 .977 -.977 .213 618.274 155.461)"/></g><g id="XMLID_1381_"><path id="XMLID_1920_" d="m225.6 473.8h10v29.6h-10z" fill="#b24e10" transform="matrix(.521 .854 -.854 .521 527.581 37.262)"/></g></g><g id="XMLID_3501_"><g id="XMLID_163_"><path id="XMLID_2199_" d="m419.4 512c-54.6 0-105.8-3.4-152.3-10.2l1.4-9.9c46 6.7 96.7 10.1 150.8 10.1 53.4 0 82.6-29.2 82.6-44.2 0-4.6-9.6-16.1-35.5-27.5-15.5-6.8-47.9-18.3-90.7-18.3-51.3 0-100.4-6.9-145.7-20.4-36.3-10.8-70.4-25.9-101.2-44.9-43.9-27-68.4-53.7-75.9-62.7-4.3 2.1-12.3 6.4-20.1 13.5-15.1 13.9-22.8 31-22.8 51 0 31.7 46.8 91.5 175.8 126.5l-2.6 9.7c-58.6-15.9-107-38.9-140-66.5-27.5-22.9-43.2-48.3-43.2-69.7 0-22.8 9.1-43 26.4-58.5 12.9-11.6 25.8-16.5 26.3-16.7 2.1-.8 4.4-.1 5.7 1.7.2.3 24.9 32.1 76.2 63.5 47.3 29 127.5 63.5 241.3 63.5 44.7 0 78.5 12 94.7 19.1 26 11.4 41.5 25.1 41.5 36.6s-9.5 25.1-24.8 35.4c-12.7 8.7-34.7 18.9-67.9 18.9z" fill="#213762"/></g><g id="XMLID_430_"><path id="XMLID_2196_" d="m241.6 512c-27.3 0-62.1-46.5-62.1-68.6 0-4.6 1.3-8.3 4-11.1 2.8-2.9 6.8-4.4 12-4.4 33.1 0 105.1 23.3 108.2 24.3 1.4.5 2.6 1.6 3.1 3s.4 3-.4 4.3c-1.4 2.2-31.7 52.5-64.8 52.5zm-46.2-74c-1.6 0-3.7.2-4.8 1.3-1 1-1.2 2.8-1.2 4.1 0 8.5 7.6 23.3 18.6 36.2 11.7 13.8 24.6 22.4 33.5 22.4 21.9 0 44.3-29.8 52.7-42.2-18.3-5.7-72.7-21.8-98.8-21.8z" fill="#213762"/></g><g id="XMLID_162_"><path id="XMLID_2195_" d="m299.7 401.4-10-.9c0-.3 2.5-31.3-14.8-42.2-4.1-2.6-14.9-7.2-28.7-13-51.7-21.9-146.5-62.1-184-117.2-6.1 7.1-16 23.7-3.3 47.6l-8.8 4.7c-20.9-39.6 9.7-63.9 10-64.1 1.1-.9 2.6-1.2 4-1 1.4.3 2.6 1.1 3.4 2.3 33.2 55.1 130.5 96.3 182.8 118.4 14.7 6.2 25.4 10.8 30.1 13.8 22.3 14.2 19.4 50 19.3 51.6z" fill="#213762"/></g><g id="XMLID_175_"><path id="XMLID_2194_" d="m224 335.4v-10c99 0 172.9-11.7 221.6-34.8 48.9-23.1 56.3-50.4 56.3-64.7 0-32.5-30.7-60-44.9-70.9-2.7 17.5-13.4 33.4-31.7 47.3-19.1 14.4-46.6 26.8-81.7 36.7-62.3 17.7-148.6 27.3-242.6 27.3v-10c93 0 178.4-9.6 239.9-26.9 48.8-13.7 106.9-39.4 106.9-83.6 0-1.8 1-3.5 2.6-4.4s3.6-.8 5.1.2c2.3 1.5 56.5 37 56.5 84.4 0 16.6-8.2 48.2-62.1 73.7-50.1 23.7-125.9 35.7-225.9 35.7z" fill="#213762"/></g><g id="XMLID_177_"><path id="XMLID_2192_" d="m66.7 223.6-7.2-6.9c13.6-14.3 56.5-16.6 115.9-19.7 108.7-5.7 257.6-13.5 257.6-109.6 0-2.2 1.5-4.2 3.6-4.8s4.4.3 5.6 2.2c.6 1 15.7 25.2 15.7 61.2h-10c0-16-3.3-29.8-6.7-39.5-3.5 17-11.9 31.8-25.1 44.3-15.4 14.6-37.1 25.8-66.1 34.4-52.3 15.4-117 18.8-174.1 21.8-50.6 2.7-98.3 5.2-109.2 16.6z" fill="#213762"/></g><g id="XMLID_178_"><path id="XMLID_2191_" d="m289.5 171c-4 0-67.5-.6-144.1-36.2-27-12.5-56.7-29.7-79.4-46-28.6-20.4-43-36.8-43-48.8 0-13.9 9.5-24.1 28.1-30.6 18.3-6.3 46.1-9.4 85-9.4 40.4 0 105.3 4.5 166 17 74.4 15.3 121.5 38.1 140 67.8l-8.5 5.3c-16.8-26.8-63-48.7-133.6-63.3-60-12.4-125.8-16.8-163.9-16.8-37.2 0-64.7 3-81.7 8.9-21.4 7.3-21.4 17.7-21.4 21.1 0 3 2.8 14.9 38.8 40.6 22.3 15.9 51.4 32.8 77.8 45.1 75.2 34.9 139 35.3 140 35.3v10s0 0-.1 0z" fill="#213762"/></g><g id="XMLID_1546_"><path id="XMLID_2190_" d="m319.9 190.9c-35.7-25.2-88.5-49.7-135.1-71.3-74.9-34.8-113.8-53.9-107.5-72.7 1.5-4.5 5.7-7.9 12.8-10.3 23.4-7.9 78.3-5.4 136.6 6.3 41 8.3 119.1 28.3 180.8 70.1l-5.6 8.3c-60.2-40.8-136.8-60.5-177.2-68.6-65.1-13-113.7-12.6-131.3-6.6-4.7 1.6-6.3 3.2-6.6 4-.4 1.1-.8 7.3 25.9 22.8 19.2 11.1 47 24 76.4 37.7 47 21.8 100.2 46.5 136.7 72.2z" fill="#213762"/></g><g id="XMLID_435_"><path id="XMLID_2186_" d="m421 471c-11 0-20-9-20-20s9-20 20-20 20 9 20 20-9 20-20 20zm0-30c-5.5 0-10 4.5-10 10s4.5 10 10 10 10-4.5 10-10-4.5-10-10-10z" fill="#213762"/></g><g id="XMLID_436_"><path id="XMLID_2185_" d="m207.6 440.7h10v41.6h-10z" fill="#213762" transform="matrix(.213 .977 -.977 .213 618.274 155.461)"/></g><g id="XMLID_437_"><path id="XMLID_2184_" d="m225.6 473.8h10v29.6h-10z" fill="#213762" transform="matrix(.521 .854 -.854 .521 527.581 37.262)"/></g></g></g></svg>