<?xml version="1.0" encoding="iso-8859-1"?>
<!-- Generator: Adobe Illustrator 19.0.0, SVG Export Plug-In . SVG Version: 6.00 Build 0)  -->
<svg version="1.1" id="Capa_1" xmlns="http://www.w3.org/2000/svg" xmlns:xlink="http://www.w3.org/1999/xlink" x="0px" y="0px"
	 viewBox="0 0 511.999 511.999" style="enable-background:new 0 0 511.999 511.999;" xml:space="preserve">
<path style="fill:#A86D38;" d="M203.204,399.184c11.268,7.512,18.27,13.641,31.433,13.641H482.75l-3.626-45.267
	c-4.81-57.392-52.797-101.525-110.392-101.525h-42.742c-45.389,0-82.183-36.794-82.183-82.183v-69.491H24.348v278.555h158.148
	C189.866,392.914,197.072,395.096,203.204,399.184z"/>
<g>
	<rect x="24.348" y="114.357" style="fill:#995F30;" width="20.001" height="278.557"/>
	<path style="fill:#995F30;" d="M368.733,266.033h-31.814c-16.44,17.411-26.539,40.875-26.539,66.713v80.079H482.75l-3.626-45.267
		C474.315,310.166,426.328,266.033,368.733,266.033z"/>
</g>
<path style="fill:#8E552B;" d="M356.921,266.033h-20.001c-16.44,17.411-26.539,40.875-26.539,66.713v80.079h20.001v-80.08
	C330.383,306.909,340.481,283.444,356.921,266.033z"/>
<path style="fill:#995F30;" d="M48.748,301.844H24.348v91.07h89.069v-26.4C113.418,330.798,84.464,301.844,48.748,301.844z"/>
<rect x="24.348" y="301.848" style="fill:#8E552B;" width="20.001" height="91.066"/>
<path style="fill:#A86D38;" d="M243.809,26.372H24.348c-9.091,0-16.528,7.437-16.528,16.528v56.93
	c0,9.091,7.437,16.528,16.528,16.528h219.46c9.091,0,16.528-7.437,16.528-16.528V42.9C260.337,33.809,252.899,26.372,243.809,26.372
	z"/>
<path style="fill:#995F30;" d="M27.822,99.831V42.9c0-9.091,7.437-16.528,16.528-16.528H24.348c-9.091,0-16.528,7.437-16.528,16.528
	v56.93c0,9.091,7.437,16.528,16.528,16.528H44.35C35.259,116.359,27.822,108.922,27.822,99.831z"/>
<path style="fill:#B78046;" d="M7.82,81.466V99.83c0,9.091,7.437,16.528,16.528,16.528h219.46c9.091,0,16.528-7.437,16.528-16.528
	V81.466H7.82z"/>
<path style="fill:#A86D38;" d="M27.822,99.831V81.466H7.82V99.83c0,9.091,7.437,16.528,16.528,16.528H44.35
	C35.259,116.359,27.822,108.922,27.822,99.831z"/>
<path style="fill:#4D5370;" d="M7.82,440.336c0,20.105,0,14.415,0,37.065c0,4.469,3.623,8.092,8.092,8.092h138.711
	c4.12,0,7.46-3.34,7.46-7.461v-6.712c0-5.319,6.221-7.662,11.908-3.871l17.662,11.775c6.132,4.087,13.338,6.269,20.707,6.269
	h276.502c8.812,0,15.955-7.143,15.955-15.955v-29.203H7.82V440.336z"/>
<path style="fill:#444A63;" d="M27.822,477.401c0-23.236,0-16.473,0-37.065H7.82c0,20.105,0,14.415,0,37.065
	c0,4.469,3.623,8.092,8.092,8.092h20.001C31.445,485.493,27.822,481.87,27.822,477.401z"/>
<path style="fill:#616584;" d="M504.82,442.336v-9.443c0-12.188-9.881-22.068-22.068-22.068H234.637
	c-23.07,0-28.566-19.911-52.141-19.911H16.486c-4.786,0-8.667,3.88-8.667,8.666c0,16.198,0,26.369,0,42.757L504.82,442.336
	L504.82,442.336z"/>
<path style="fill:#4D5370;" d="M27.822,399.579c0-4.786,3.88-8.666,8.667-8.666H16.487c-4.786,0-8.666,3.88-8.666,8.666
	c0,16.198,0,26.369,0,42.757h20.001C27.822,425.629,27.822,415.891,27.822,399.579z"/>
<path d="M489.4,404.228c-3.461-41.285-3.126-37.392-3.314-39.251c-5.351-53.012-45.132-94.809-95.693-104.33
	c-13.704-2.58-18.584-2.047-64.721-2.047c-10.227,0-19.977-2.07-28.862-5.807c-0.147-2.211-1.262-4.337-3.231-5.69
	c-2.485-1.707-5.629-1.706-8.063-0.268c-4.822-3.088-9.269-6.709-13.251-10.789c1.953-2.203,2.502-5.449,1.133-8.26
	c-1.812-3.724-6.299-5.272-10.027-3.46l-0.347,0.169c-3.223-4.959-5.873-10.321-7.857-15.996c4.1-0.342,7.165-3.927,6.854-8.038
	c-0.312-4.129-3.908-7.224-8.045-6.912l-2.32,0.176c-0.816-6.186-0.664-8.726-0.664-22.507h2.241c4.143,0,7.5-3.358,7.5-7.5
	c0-4.142-3.357-7.5-7.5-7.5h-2.241V122.72c9.587-3.158,16.528-12.194,16.528-22.823c0-6.932,0-51.401,0-56.93
	c0-13.25-10.779-24.028-24.028-24.028H141.207c-4.143,0-7.5,3.358-7.5,7.5s3.357,7.5,7.5,7.5h102.281
	c4.978,0,9.028,4.05,9.028,9.028v31.066H15.001V42.968c0-4.978,4.05-9.028,9.028-9.028h82.176c4.143,0,7.5-3.358,7.5-7.5
	s-3.357-7.5-7.5-7.5H24.028C10.779,18.938,0,29.718,0,42.968c0,5.525,0,49.996,0,56.93c0,10.631,6.941,19.665,16.528,22.823
	c0,11.148,0,252.816,0,260.759h-0.362C7.252,383.48,0,390.733,0,399.646c0,8.146,0,69.154,0,77.822
	c0,8.599,6.994,15.593,15.593,15.593h138.711c8.249,0,14.961-6.712,14.961-14.962v-4.494c11.673,6.515,22.702,19.456,42.778,19.456
	h276.501c12.934,0,23.455-10.522,23.455-23.455c0-20.481,0-15.751,0-36.646C512,419.056,502.35,407.371,489.4,404.228z
	 M258.568,243.347c5.238,5.907,11.241,11.12,17.854,15.482l-18.455,26.858c-2.346,3.414-1.479,8.083,1.935,10.43
	c3.416,2.347,8.083,1.479,10.43-1.935l19.333-28.136c9.691,4.265,20.271,6.869,31.381,7.437
	c-11.168,16.215-17.617,35.314-18.396,55.168c-0.162,4.139,3.062,7.626,7.2,7.788c4.146,0.146,7.626-3.061,7.788-7.2
	c0.807-20.56,8.689-40.193,22.272-55.638h28.503c53.262,0,98.468,41.576,102.917,94.652l2.945,35.139H317.562v-39.444
	c0-4.143-3.357-7.5-7.5-7.5s-7.5,3.357-7.5,7.5v39.444h-68.243c-19.984,0-25.719-19.911-52.142-19.911h-61.578l0.001-16.898
	c0-39.795-32.376-72.171-72.171-72.171H31.529V123.926h204.458v32.289h-29.689c-4.143,0-7.5,3.358-7.5,7.5
	c0,4.142,3.357,7.5,7.5,7.5h29.689c0,13.611-0.151,16.932,0.668,23.643l-29.479,2.232c-4.13,0.313-7.225,3.914-6.912,8.045
	c0.313,4.137,3.924,7.226,8.045,6.912l31.451-2.381c2.288,7.619,5.563,14.815,9.679,21.438l-27.663,13.467
	c-3.724,1.813-5.273,6.302-3.46,10.027c1.809,3.717,6.293,5.277,10.027,3.46L258.568,243.347z M105.598,366.582l-0.001,16.898
	H31.529v-74.068h16.898C79.952,309.412,105.598,335.057,105.598,366.582z M15.001,99.898V89.034h237.515v10.864
	c0,4.978-4.05,9.028-9.028,9.028H24.028C19.051,108.926,15.001,104.875,15.001,99.898z M496.999,469.605
	c0,4.661-3.792,8.455-8.455,8.455H212.043c-11.083,0-15.602-4.379-34.21-16.786c-11.205-7.467-23.568-0.757-23.568,10.113
	l0.04,6.673H15.593c-0.326,0-0.592-0.266-0.592-0.592v-27.565h481.998V469.605z M496.999,434.902H15.001v-35.256
	c0-0.643,0.522-1.165,1.165-1.165c7.424,0,159.889,0,166.01,0c20.597,0,25.881,19.911,52.142,19.911h248.114l0,0
	c8.033,0,14.567,6.534,14.567,14.567L496.999,434.902L496.999,434.902z"/>
<g>
</g>
<g>
</g>
<g>
</g>
<g>
</g>
<g>
</g>
<g>
</g>
<g>
</g>
<g>
</g>
<g>
</g>
<g>
</g>
<g>
</g>
<g>
</g>
<g>
</g>
<g>
</g>
<g>
</g>
</svg>
