<svg height="512" viewBox="0 0 60 60" width="512" xmlns="http://www.w3.org/2000/svg"><g id="Color"><circle cx="30" cy="30" fill="#e8edfc" r="29"/><path d="m30 1q-.755 0-1.5.038a29 29 0 0 1 0 57.924q.746.038 1.5.038a29 29 0 0 0 0-58z" fill="#cad9fc"/><g fill="#e8edfc"><circle cx="3" cy="7" r="2"/><circle cx="9" cy="21" r="2"/></g></g><g id="Color_copy" data-name="Color copy"><path d="m4 30a29 29 0 0 1 27.284-28.945c-.428-.019-.851-.055-1.284-.055a29 29 0 0 0 0 58c.486 0 .966-.019 1.444-.042a29 29 0 0 1 -27.444-28.958z" fill="#fff"/></g><g id="Outline"><path d="m1.154 21.832 1.925.544-.479 1.869c-.12.632-.2 1.272-.3 1.907l-.147.954-.05.965-.103 1.929h-2l.1-2.066.06-1.034.155-1.023c.109-.681.2-1.366.325-2.043z" fill="#fff"/><g fill="#428dff"><path d="m1.325 27.011a1 1 0 0 1 -.011-2h.011a1 1 0 0 1 0 2z"/><path d="m30 0a30.071 30.071 0 0 0 -18.076 6.1 30.392 30.392 0 0 0 -6.685 6.976 31.042 31.042 0 0 0 -4.085 8.76 1 1 0 0 0 1.925.544 29 29 0 0 1 3.81-8.18 28.239 28.239 0 0 1 23.111-12.2 28 28 0 1 1 -28 28 1 1 0 0 0 -2 0 30 30 0 1 0 30-30z"/><path d="m56 30a1 1 0 0 0 -2 0 24.028 24.028 0 0 1 -24 24 1 1 0 0 0 0 2 26.029 26.029 0 0 0 26-26z"/><path d="m0 7a3 3 0 1 0 3-3 3 3 0 0 0 -3 3zm4 0a1 1 0 1 1 -1-1 1 1 0 0 1 1 1z"/><path d="m6 21a3 3 0 1 0 3-3 3 3 0 0 0 -3 3zm4 0a1 1 0 1 1 -1-1 1 1 0 0 1 1 1z"/><path d="m14 18a1 1 0 0 0 2 0v-2a1 1 0 0 0 -2 0z"/><path d="m15 9a1 1 0 0 0 -1 1v2a1 1 0 0 0 2 0v-2a1 1 0 0 0 -1-1z"/><path d="m17 15h2a1 1 0 0 0 0-2h-2a1 1 0 0 0 0 2z"/><path d="m13 13h-2a1 1 0 0 0 0 2h2a1 1 0 0 0 0-2z"/></g></g></svg>