<svg id="Capa_1" enable-background="new 0 0 512 512" viewBox="0 0 512 512" xmlns="http://www.w3.org/2000/svg" xmlns:xlink="http://www.w3.org/1999/xlink"><linearGradient id="lg1"><stop offset="0" stop-color="#8b451c"/><stop offset=".3606" stop-color="#984c1f"/><stop offset="1" stop-color="#ba5c25"/></linearGradient><linearGradient id="SVGID_1_" gradientUnits="userSpaceOnUse" x1="256" x2="256" xlink:href="#lg1" y1="255.602" y2="487.206"/><linearGradient id="lg2"><stop offset="0" stop-color="#dea861"/><stop offset="1" stop-color="#ebcba0"/></linearGradient><linearGradient id="SVGID_00000182499199298322245730000010999112248682788251_" gradientUnits="userSpaceOnUse" x1="148.211" x2="261.361" xlink:href="#lg2" y1="139.395" y2="201.968"/><linearGradient id="lg3"><stop offset="0" stop-color="#d7d1eb"/><stop offset="1" stop-color="#e9e5f6"/></linearGradient><linearGradient id="SVGID_00000080903517299567853220000014727197141872308881_" gradientUnits="userSpaceOnUse" x1="245.386" x2="307.583" xlink:href="#lg3" y1="128.622" y2="163.017"/><linearGradient id="SVGID_00000171690766634114570960000012569939219899065526_" gradientUnits="userSpaceOnUse" x1="242.259" x2="242.259" xlink:href="#lg3" y1="212.596" y2="86.977"/><linearGradient id="SVGID_00000054986208352087213010000005393061212904089020_" gradientUnits="userSpaceOnUse" x1="176.695" x2="264.953" xlink:href="#lg1" y1="167.228" y2="167.228"/><linearGradient id="SVGID_00000007416553214998355590000001478480356480676247_" gradientUnits="userSpaceOnUse" x1="182.936" x2="277.692" xlink:href="#lg2" y1="89.146" y2="141.547"/><linearGradient id="SVGID_00000013890367608519085350000007254371509275176590_" gradientUnits="userSpaceOnUse" x1="248.209" x2="218.682" y1="69.56" y2="114.348"><stop offset="0" stop-color="#8b451c"/><stop offset="1" stop-color="#8b451c" stop-opacity="0"/></linearGradient><linearGradient id="SVGID_00000017489046322444339000000011783689736329289906_" gradientUnits="userSpaceOnUse" x1="206.654" x2="253.74" xlink:href="#lg2" y1="39.483" y2="66.668"/><linearGradient id="SVGID_00000078746250566065942940000002949871376904829876_" gradientUnits="userSpaceOnUse" x1="281.364" x2="303.661" xlink:href="#lg2" y1="226.632" y2="239.505"/><linearGradient id="SVGID_00000061471605795604678210000001466697980756759229_" gradientUnits="userSpaceOnUse" x1="281.544" x2="307.738" xlink:href="#lg3" y1="226.829" y2="241.314"/><linearGradient id="SVGID_00000093857253060929315250000009082737543502004913_" gradientUnits="userSpaceOnUse" x1="211.518" x2="211.518" xlink:href="#lg3" y1="326.065" y2="196.1"/><g><path d="m193.059 51.849s-8.267.648-14.265 11.834c-5.998 11.185 1.037 28.251 14.265 33.718s28.207-3.242 32.421-9.888c4.215-6.647-8.916-40.527-32.421-35.664z" fill="#43386b"/><path d="m296.469 217.222s26.298 42.645 34.827 81.025 20.612 116.563 19.901 127.224 1.422 54.728-62.546 76.761c-63.967 22.033-117.393 1.957-124.441-12.881s-2.073-113.633 4.324-159.12c6.397-45.488 41.579-95.811 41.579-95.811z" fill="url(#SVGID_1_)"/><path d="m257.499 295.323s10.846-1.893 11.602-12.472c1.896-26.521-16.818-14.427-16.818-14.427s-4.347 21.378 5.216 26.899z" fill="#a996eb"/><path d="m307.063 276.413s-5.068 6.275-15.28-4.262c-10.213-10.537-4.842-28.311-4.842-28.311s7.187-4.921 16.092 3.022c8.904 7.944 4.84 23.715 4.03 29.551z" fill="#a996eb"/><path d="m311.023 165.1c-1.422-12.32-14.212-60.888-19.424-66.574s-31.747-4.264-31.747-4.264l-52.598-19.19-1.288 37.04s-31.387 24.442-36.125 34.867c-4.739 10.424-8.902 94.927-7.609 110.992 1.022 12.699 7.34 13.464 7.34 13.464s14.227 6.436 35.076 8.569c12.951 1.325 28.173 3.106 37.85 4.266l14.59 1.741s16.584 8.055 21.796 8.055 13.741-1.185 14.926-4.502 3.791-15.4 3.791-15.4 3.554-3.08 4.738-5.449c1.185-2.369-.474-6.16-2.843-8.529s-18.953 0-18.953 0-3.317-5.449-6.633-6.573c-3.317-1.124-13.741 6.573-13.741 6.573l-23.28-4.098-40.614-12.388 2.446-49.698 23.75 40.393s96.257-17.967 98.022-14.281c-2.141-22.883-8.38-45.573-9.47-55.014z" fill="url(#SVGID_00000182499199298322245730000010999112248682788251_)"/><path d="m282.256 95.024c7.78-.19 14.706 4.885 16.994 12.324 3.412 11.09 8.9 29.266 12.525 42.981 5.593 21.155 8.717 69.787 8.717 69.787l-28.413-8.997s-39.603-115.175-10.072-116.087c.084-.003.166-.005.249-.008z" fill="url(#SVGID_00000080903517299567853220000014727197141872308881_)"/><path d="m282.007 95.031s19.077 48.12 21.446 61.861-2.062 27.956-2.062 27.956l-4.368 34.456s-2.265 7.241-26.905 13.874c-24.639 6.634-57.267 3.276-57.267 3.276l-14.131-42.451-18.354-61.42 2.168-2.42c6.635-7.405 14.578-13.525 23.431-18.052s16.533 20.377 38.566 12.559 17.731-30.501 17.731-30.501 12.016-1.285 19.745.862z" fill="url(#SVGID_00000171690766634114570960000012569939219899065526_)"/><path d="m301.737 186.347s5.365-17.338 1.231-34.845-20.96-56.47-20.96-56.47-8.733-1.857-13.961-1.243c0 0 14.704 16.507 23.952 48.207 3.738 12.812 4.572 23.64 4.186 32.107-.383 8.42-5.973 15.694-13.961 18.382-3.721 1.253-8.071 2.634-13.122 4.125-6.714 1.981-12.788 3.212-18.061 3.957-11.806 1.667-22.77-6.394-24.57-18.18-1.884-12.338-4.652-27.892-7.797-37.326-5.836-17.507-19.952-28.754-19.952-28.754s-4.202 1.804-7.242 3.993c-3.04 2.188-4.841 5.612-4.841 5.612s15.051 6.668 19.328 19.475 4.439 37.771 3.142 45.552-9.12 6.876-9.12 6.876 2.96 9.383 5.229 19.409 6.301 21.335 6.301 21.335 31.052 6.337 59.548-2.324c28.497-8.66 27.472-28.875 27.472-28.875z" fill="url(#SVGID_00000054986208352087213010000005393061212904089020_)"/><path d="m205.966 112.112s4.301 4.983 9.812 14.386c5.512 9.402 8.705 14.672 10.041 19.859s8.408 6.808 16.544 5.512c8.136-1.297 34.526-8.43 35.37-12.969s-.9-11.526-6.869-25.127c-4.672-10.645-8.206-16.372-8.206-16.372z" fill="url(#SVGID_00000007416553214998355590000001478480356480676247_)"/><path d="m247.713 113.612c11.172-4.989 16.51-11.731 16.51-11.731l-56.968-26.809-.966 27.796c8.466 16.823 30.123 15.79 41.424 10.744z" fill="url(#SVGID_00000013890367608519085350000007254371509275176590_)"/><path d="m274.493 42.37s1.703-11.365-1.85-20.605c-3.554-9.24-16.584-20.762-38.854-21.71s-36.19 10.294-40.73 21.155c-4.15 9.931-5.493 44.062 8.983 50.07 14.476 6.009 72.451-28.91 72.451-28.91z" fill="#43386b"/><path d="m212.466 64.411s7.107-3.317 8.055-7.108 2.132-11.135 7.582-15.873c5.449-4.738 30.088-18.716 35.3-17.058 5.212 1.659 10.661 5.686 10.898 12.794.237 7.107 1.422 32.931.237 39.802-1.185 6.87-6.16 22.981-12.083 26.298s-20.612 1.422-33.168-2.843c-12.557-4.264-22.033-20.138-22.033-20.138s-8.292-2.843-8.529-13.267c-.237-10.426 8.766-9.952 13.741-2.607z" fill="url(#SVGID_00000017489046322444339000000011783689736329289906_)"/><path d="m318.959 214.937c-5.176-8.529-16.324-5.686-16.324-5.686l-15.696 34.59s-10.898 1.895-14.215 3.554c-1.468.734-2.703 3.928-3.624 7.322 1.947-.909 3.744-.352 4.809.009 3.317 1.124 6.633 6.079 6.633 6.079s15.896-2.588 18.265-.219c.983.983 2.515 1.815 3.101 3.084 2.847-3.643 7.309-9.359 9.907-12.722 4.029-5.212 12.321-27.482 7.144-36.011z" fill="url(#SVGID_00000078746250566065942940000002949871376904829876_)"/><path d="m298.538 207.357s9.347-1.613 14.534 1.439 7.173 7.762 7.173 7.762 2.715 12.798 2.067 21.876-15.249 37.98-15.249 37.98.342-7.337-1.934-15.285c-3.881-13.555-18.189-17.288-18.189-17.288s-5.127-13.513 11.598-36.484z" fill="url(#SVGID_00000061471605795604678210000001466697980756759229_)"/><path d="m262.262 258.722c-4.359-5.34-10.569-8.845-17.394-9.816l-46.148-6.57v-48.331s4.12-9.134 2.336-30.14c-2.336-27.517-20.69-31.281-20.69-31.281-5.617 5.078-10.376 10.064-11.967 13.563-4.739 10.425-8.055 95.715-7.582 111.825.005.161.01.321.016.479.379 9.956 7.563 18.339 17.318 20.368l79.346 16.504c-6.54-14.995 4.765-36.601 4.765-36.601z" fill="url(#SVGID_00000093857253060929315250000009082737543502004913_)"/><path d="m274.245 235.165-1.832-39.55c-.872.266-1.775.536-2.695.809l1.837 39.648c.93-.29 1.824-.593 2.69-.907z" fill="#46230e"/><g><path d="m260.009 230.704c-.235 0-.465-.122-.59-.341-.189-.326-.077-.743.249-.932l18.868-10.894h-18.527c-.309 0-.58-.207-.66-.506-.08-.298.051-.613.318-.768l19.203-11.087-18.922-1.674c-.376-.033-.653-.364-.62-.74.033-.377.396-.664.74-.62l21.073 1.865c.297.026.542.242.606.532s-.068.589-.325.738l-18.868 10.894h18.527c.309 0 .579.207.659.506.08.298-.051.613-.318.767l-21.073 12.167c-.107.064-.224.093-.34.093z" fill="#46230e"/></g><g><path d="m283.336 224.886c-.013 0-.028-.001-.043-.001l-21.073-1.332c-.306-.019-.561-.24-.625-.539s.08-.604.352-.746l18.838-9.854-18.554-.856c-.294-.014-.548-.215-.626-.5-.077-.285.036-.587.282-.75l21.074-13.941c.309-.209.737-.122.945.193.208.314.121.737-.193.945l-19.328 12.787 18.984.876c.308.014.568.233.634.534.067.3-.077.609-.35.751l-18.91 9.892 18.637 1.179c.377.024.662.348.638.724-.024.36-.325.638-.682.638z" fill="#46230e"/></g></g><g/><g/><g/><g/><g/><g/><g/><g/><g/><g/><g/><g/><g/><g/><g/></svg>