<svg id="icons" height="512" viewBox="0 0 340 340" width="512" xmlns="http://www.w3.org/2000/svg"><path d="m110.759 75.666v-4.166a58.463 58.463 0 0 1 58.464-58.463 58.418 58.418 0 0 1 18.327 2.93c14.748 12.821 21.693 33.284 23 59.275z" fill="#ffc0af"/><path d="m227.686 75.243v-3.743a58.476 58.476 0 0 0 -40.141-55.518c6.662 8.215 13.244 24.032 13.244 54.491v4.867z" fill="#ce8176"/><path d="m210.5 168.874v67.956a26.393 26.393 0 0 1 -26.746 26.385c-4.335-.055-8.839-.182-13.213-.421 0 0-26.205.842-29.563 33.956a12.006 12.006 0 0 0 11.957 13.189h117.665a9.57 9.57 0 0 0 9.57-9.57v-131.5z" fill="#697cb7"/><rect fill="#697cb7" height="24.293" rx="7.241" width="84.008" x="203.474" y="147.016"/><path d="m200.79 70.468c-36.976-3.663-75.719 2.515-90.031 5.2v29.718h116.927z" fill="#f97dae"/><path d="m111.6 207.722c-.718-18.832-3.857-43.341-14.468-56.916a1.172 1.172 0 0 0 -2.1.709v56.171a9.689 9.689 0 0 1 -13.513 8.874 12.61 12.61 0 0 1 -7.753-11.81v-35.426s1.253-14.068-7.385-21.68a1.153 1.153 0 0 0 -1.509 0c-8.638 7.612-7.385 21.68-7.385 21.68v35.426a12.61 12.61 0 0 1 -7.753 11.81 9.689 9.689 0 0 1 -13.513-8.874v-56.169a1.172 1.172 0 0 0 -2.1-.713c-10.611 13.573-13.751 38.081-14.469 56.913a24.843 24.843 0 0 0 24.807 25.826 14.409 14.409 0 0 1 14.409 14.408v13.984h13.514v-13.984a14.409 14.409 0 0 1 14.409-14.408 24.841 24.841 0 0 0 24.809-25.821z" fill="#ebf6ff"/><path d="m243.391 201.385v52.468a26.394 26.394 0 0 1 -26.746 26.385c-4.335-.055-8.839-.183-13.213-.421 0 0-26.2.842-29.563 33.956a12.006 12.006 0 0 0 11.957 13.189h117.667a9.57 9.57 0 0 0 9.57-9.57v-116.007c-21.539-3.733-44.884-3.464-69.672 0z" fill="#93c3fc"/><path d="m243.391 185.897h69.672v15.489h-69.672z" fill="#697cb7"/><rect fill="#93c3fc" height="24.293" rx="7.241" width="84.008" x="236.363" y="164.039"/><path d="m58.187 243.59a14.411 14.411 0 0 1 .676 4.361v13.984h13.519v-13.984a14.329 14.329 0 0 1 2.715-8.395c-5.838 1.377-11.897 2.817-16.91 4.034z" fill="#b4cde0"/><path d="m52.64 313.8.014-1.018.673-49.86a9.2 9.2 0 0 1 9.2-9.067h3.5c10.072 5.945 10.026 40.451 0 59.517z" fill="#ffcb8a"/><path d="m227.686 75.243a164.529 164.529 0 0 0 -26.9-4.764v23.162a80.481 80.481 0 0 1 26.9 11.707z" fill="#d34f8f"/><path d="m43.056 118.007h198.167c-.505-12.715-16.573-19.921-40.434-24.367-9.7-.562-20.2-.879-31.566-.879 0 0-76.024-.4-126.909 21.618a1.89 1.89 0 0 0 .742 3.628z" fill="#ffc0af"/><path d="m297.83 114.439c-11.51-5.939-40.63-17.522-97.03-20.795.23.044 25.663 5.082 40.421 24.363h55.745a1.888 1.888 0 0 0 .864-3.568z" fill="#ce8176"/><path d="m78.605 313.8-.687-50.878a9.2 9.2 0 0 0 -9.2-9.067h-2.7c1.4 1.3 2.895 3.871 2.895 8.973v30.072a18.037 18.037 0 0 1 -8.893 15.547l-7.37 4.336-.01 1.017a12.984 12.984 0 1 0 25.965 0z" fill="#f29a68"/><g fill="#3e3e54"><path d="m170.534 266.3c4.017.216 8.45.356 13.177.416h.394a29.892 29.892 0 0 0 29.895-29.886v-62.021h4.548a3.5 3.5 0 0 0 0-7h-7.835a3.745 3.745 0 0 1 -3.741-3.74v-9.812a3.746 3.746 0 0 1 3.741-3.741h69.528a3.745 3.745 0 0 1 3.74 3.741 3.5 3.5 0 0 0 7 0 10.753 10.753 0 0 0 -10.74-10.741h-69.526a10.753 10.753 0 0 0 -10.741 10.741v9.812a10.749 10.749 0 0 0 7.026 10.065v62.7a22.891 22.891 0 0 1 -23.2 22.886c-4.7-.06-9.1-.2-13.067-.416-.1-.006-.2-.008-.3 0-.293.009-29.308 1.354-32.934 37.1a15.506 15.506 0 0 0 15.44 17.042h4.855a3.5 3.5 0 0 0 0-7h-4.855a8.549 8.549 0 0 1 -6.329-2.812 8.362 8.362 0 0 1 -2.146-6.524c2.909-28.717 24.066-30.69 26.07-30.81z"/><path d="m231.187 75.243v-3.743a61.964 61.964 0 0 0 -123.928 0v22.41c-24.719 3.566-52.416 9.86-74.266 20.976a3.5 3.5 0 0 0 1.587 6.62h269.287a3.5 3.5 0 0 0 2.118-6.287c-1.059-.8-20.9-15.358-74.8-22.314v-17.662zm-61.964-58.7a55.019 55.019 0 0 1 54.945 54.2c-40.255-9.524-90.019-2.713-109.908.739a55.025 55.025 0 0 1 54.963-54.944zm-117.823 97.964c49.317-18.357 117.036-18.255 117.823-18.246 66.273 0 103.186 10.977 120.361 18.246zm117.842-25.246a459.513 459.513 0 0 0 -54.983 3.7v-14.376c18.846-3.344 69.857-10.665 109.927-.639v14.123a501.023 501.023 0 0 0 -54.944-2.808z"/><path d="m24.062 228.368a28.068 28.068 0 0 0 20.393 8.675 10.921 10.921 0 0 1 10.908 10.908v4.641a12.71 12.71 0 0 0 -5.535 10.279l-.688 50.875a16.484 16.484 0 1 0 32.965 0l-.687-50.88a12.712 12.712 0 0 0 -5.536-10.276v-4.641a10.921 10.921 0 0 1 10.908-10.906 28.341 28.341 0 0 0 28.3-29.454c-.783-20.558-4.461-47.94-17.536-61.638a3.5 3.5 0 0 0 -6.031 2.417v59.318a6.14 6.14 0 0 1 -6.133 6.133c-3.551 0-8.133-2.974-8.133-6.133v-38.226c.138-1.894.886-17.054-9.477-25.2a3.5 3.5 0 0 0 -4.325 0c-10.363 8.142-9.615 23.3-9.477 25.2v38.226c0 3.159-4.582 6.133-8.133 6.133a6.14 6.14 0 0 1 -6.133-6.133v-59.318a3.5 3.5 0 0 0 -6.031-2.417c-13.075 13.7-16.753 41.08-17.536 61.638a28.16 28.16 0 0 0 7.917 20.779zm48.314 92.268a9.483 9.483 0 0 1 -16.236-6.793l.688-50.876a5.718 5.718 0 0 1 5.7-5.616h6.2a5.719 5.719 0 0 1 5.7 5.615l.687 50.879a9.412 9.412 0 0 1 -2.739 6.791zm-39.659-161.044v48.094a13.148 13.148 0 0 0 13.133 13.133c7.144 0 15.133-5.616 15.133-13.133v-38.363c0-.1 0-.207-.014-.31s-.859-10.523 4.651-17.135c5.467 6.59 4.666 17.026 4.656 17.135s-.014.207-.014.31v38.363c0 7.517 7.989 13.133 15.133 13.133a13.148 13.148 0 0 0 13.133-13.133v-48.094c6.759 13.375 8.984 32.814 9.573 48.264a21.342 21.342 0 0 1 -21.311 22.187 17.928 17.928 0 0 0 -17.908 17.908v2.408c-.054 0-.106-.008-.16-.008h-6.2c-.054 0-.106.007-.16.008v-2.408a17.928 17.928 0 0 0 -17.908-17.908 21.343 21.343 0 0 1 -21.311-22.187c.59-15.45 2.815-34.889 9.574-48.264z"/><path d="m185.826 330.462h117.667a13.085 13.085 0 0 0 13.07-13.07v-126.132a10.753 10.753 0 0 0 7.309-10.168v-9.812a10.753 10.753 0 0 0 -10.741-10.741h-69.531a10.752 10.752 0 0 0 -10.74 10.741v9.812a10.749 10.749 0 0 0 7.027 10.065v62.7a22.895 22.895 0 0 1 -23.2 22.886c-4.7-.061-9.1-.2-13.068-.417-.1 0-.2-.007-.3 0-.293.009-29.308 1.354-32.934 37.1a15.506 15.506 0 0 0 15.44 17.042zm-8.475-16.336c2.911-28.71 24.067-30.683 26.071-30.8 4.015.216 8.448.356 13.178.417h.393a29.894 29.894 0 0 0 29.9-29.887v-62.024h12.007a3.5 3.5 0 0 0 0-7h-15.3a3.744 3.744 0 0 1 -3.74-3.74v-9.812a3.744 3.744 0 0 1 3.74-3.741h69.527a3.745 3.745 0 0 1 3.741 3.741v9.812a3.745 3.745 0 0 1 -3.741 3.74h-20.527a3.5 3.5 0 0 0 0 7h16.964v125.56a6.077 6.077 0 0 1 -6.07 6.07h-117.668a8.545 8.545 0 0 1 -6.329-2.813 8.36 8.36 0 0 1 -2.146-6.523z"/><path d="m274.561 191.832h1.9a3.5 3.5 0 0 0 0-7h-1.9a3.5 3.5 0 0 0 0 7z"/></g></svg>