<svg id="icons" height="512" viewBox="0 0 340 340" width="512" xmlns="http://www.w3.org/2000/svg"><path d="m208.226 149.883s16.506-1.594 16.506 30.583v20.323s-.447 16.08 13.325 21.447c0 0 5.021 2.015 5.021 12.582v46.768h29.637s7.187-45.958-20.037-77.474a40.1 40.1 0 0 1 -9.827-23.773c-.632-10.452-2.471-24.751-7.524-36.672-10.231-24.138-46.389-18.9-49.138 7.168q-.073.691-.126 1.406z" fill="#93c3fc"/><path d="m131.774 149.883s-16.506-1.594-16.506 30.583v20.323s.447 16.08-13.325 21.447c0 0-5.021 2.015-5.021 12.582v46.768h-29.637s-7.185-45.958 20.037-77.474a40.1 40.1 0 0 0 9.827-23.773c.632-10.452 2.471-24.751 7.524-36.672 10.232-24.138 46.389-18.9 49.138 7.168q.073.691.126 1.406z" fill="#93c3fc"/><path d="m132.175 174.232c1.269 6.94 5.574 16.488 19.393 19.161l13.776 1.908s21.006-3.434 24.348-23.618z" fill="#e6f3ff"/><g fill="#697cb7"><path d="m218.5 98.7a3.5 3.5 0 0 1 -3.362-3.441q-.013-.807-.038-1.588a3.5 3.5 0 0 1 7-.226q.027.837.041 1.7a3.5 3.5 0 0 1 -3.451 3.555c-.065 0-.13 0-.19 0z"/><path d="m216.9 83.643a3.5 3.5 0 0 1 -3.282-2.748 39.161 39.161 0 0 0 -2.964-8.81 8.716 8.716 0 0 0 -4.168-4.112 3.5 3.5 0 0 1 2.96-6.343 15.638 15.638 0 0 1 7.493 7.37 46.1 46.1 0 0 1 3.517 10.393 3.5 3.5 0 0 1 -2.668 4.169 3.536 3.536 0 0 1 -.888.081z"/><path d="m191.42 73.629a3.5 3.5 0 0 1 -2.739-5.492q.658-.95 1.357-1.849a16.222 16.222 0 0 1 1.158-1.337 3.5 3.5 0 0 1 5.032 4.866 9.517 9.517 0 0 0 -.661.763q-.585.753-1.133 1.545a3.5 3.5 0 0 1 -3.014 1.504z"/><path d="m178.175 135.795a3.5 3.5 0 0 1 -3.36-3.368c-.041-1.118-.921-27.644 6.628-49.494a3.5 3.5 0 1 1 6.617 2.285c-7.115 20.593-6.259 46.692-6.25 46.952a3.5 3.5 0 0 1 -3.37 3.626c-.089.004-.178.004-.265-.001z"/><path d="m162.119 134.391c-.088.008-.176.013-.265.014a3.5 3.5 0 0 1 -3.55-3.449c-.235-16.195-2.851-29.645-7.778-39.974a7.778 7.778 0 0 0 -5.749-4.422 7.951 7.951 0 0 0 -6.944 2.019 3.5 3.5 0 0 1 -4.864-5.034 14.967 14.967 0 0 1 13.053-3.873 14.791 14.791 0 0 1 10.822 8.3c5.364 11.246 8.21 25.676 8.459 42.887a3.5 3.5 0 0 1 -3.184 3.532z"/><path d="m129.455 105.743a3.5 3.5 0 0 1 -3.785-3.926c.013-.1.137-1.043.486-2.627a3.5 3.5 0 1 1 6.836 1.507c-.28 1.271-.379 2.007-.379 2.014a3.507 3.507 0 0 1 -3.158 3.032z"/><path d="m166.774 83.318q-.076 0-.153 0a3.5 3.5 0 0 1 -3.346-3.647c1.126-26.158 7.863-45.7 20.023-58.074a3.5 3.5 0 0 1 4.994 4.906c-10.756 10.945-16.992 29.434-18.024 53.466a3.5 3.5 0 0 1 -3.494 3.349z"/><path d="m203.859 16.937a3.5 3.5 0 0 1 -.76-6.916 19.109 19.109 0 0 1 2.368-.4 3.5 3.5 0 0 1 .608 6.974 14.19 14.19 0 0 0 -1.448.258 3.483 3.483 0 0 1 -.768.084z"/></g><path d="m208.418 166.59c0-.028-16.554-.89-16.554-.89l-21.864-1.19-38.226 2.08a28.637 28.637 0 0 0 .405 7.641h49.426a3.039 3.039 0 0 1 2.834 4.171c-2.873 6.94-10.831 16.294-32.871 14.991a13.466 13.466 0 0 1 11.019 13.169v1.327a15.661 15.661 0 0 1 -1.358 6.549 13.413 13.413 0 0 1 -10.39 7.8h38.322a13.411 13.411 0 0 1 -10.389-7.8 15.646 15.646 0 0 1 -1.359-6.549v-1.327a13.272 13.272 0 0 1 11.036-13.172c21.82-3.479 19.971-26.784 19.969-26.8z" fill="#a5c0e2"/><rect fill="#e6f3ff" height="16.707" rx="8.354" width="93.16" x="123.42" y="149.883"/><path d="m111.206 244.891c2.338 5.037 7.824 10.073 20.416 10.073h15.109a11.152 11.152 0 0 1 11.152 11.153l28.9-11.29 10.961-12.292-78.291-1.8z" fill="#e6f3ff"/><path d="m230.323 234.818h-120.646a19.21 19.21 0 0 0 1.563 10.142h77.227a1.487 1.487 0 0 1 .695 2.8c-7.8 4.171-21.039 8.24-42.431 7.2a11.152 11.152 0 0 1 11.152 11.153v2.518s1.08 11.152-12.951 12.951h50.136c-14.031-1.8-12.951-12.951-12.951-12.951v-2.518a11.152 11.152 0 0 1 11.152-11.153h15.11c25.182.004 21.944-20.142 21.944-20.142z" fill="#a5c0e2"/><rect fill="#e6f3ff" height="16.707" rx="8.354" width="143.16" x="98.42" y="220.69"/><path d="m60.285 306.77a51.834 51.834 0 0 0 -2.479 9.672 9 9 0 0 0 8.877 10.45h144.817l26.39-24.285-115.587-.966z" fill="#e6f3ff"/><path d="m282.2 316.469c-2.188-13.4-7.219-18.377-8.608-19.523l-.009-.008c-.148-.121-.252-.2-.307-.238l-.015-.01-.033-.023-62.063-3.109-41.165-2.058-103.226 5.167s-3.695 2.411-6.593 10.4h151.645a5.517 5.517 0 0 1 5.5 5.86 22.76 22.76 0 0 1 -5.826 13.97h61.815a8.992 8.992 0 0 0 8.885-10.428z" fill="#a5c0e2"/><rect fill="#e6f3ff" height="16.707" rx="8.354" width="223.16" x="58.42" y="279.96"/><path d="m243.079 260.522a3.5 3.5 0 0 0 -3.5 3.5v.761a3.5 3.5 0 0 0 7 0v-.761a3.5 3.5 0 0 0 -3.5-3.5z" fill="#3e3e54"/><path d="m96.922 269.437a3.5 3.5 0 0 0 3.5-3.5v-.981a3.5 3.5 0 0 0 -7 0v.981a3.5 3.5 0 0 0 3.5 3.5z" fill="#3e3e54"/><path d="m57.162 325.986a12.474 12.474 0 0 0 9.521 4.406h206.634a12.5 12.5 0 0 0 12.331-14.515c-1.413-8.628-3.972-14.117-6.221-17.48a11.839 11.839 0 0 0 -2.706-21.41c1.019-13.184 1.3-48.89-21.394-75.163a36.375 36.375 0 0 1 -8.982-21.7c-.625-10.341-2.486-25.3-7.8-37.825a28.413 28.413 0 0 0 -24.095-17.557c-10.987-.924-21.74 4.2-27.406 13.063a3.5 3.5 0 0 0 5.9 3.771c4.284-6.7 12.494-10.567 20.921-9.859a21.251 21.251 0 0 1 18.235 13.317c4.922 11.61 6.662 25.722 7.254 35.516a43.317 43.317 0 0 0 10.671 25.85c20.988 24.3 20.672 57.735 19.712 70.06h-79.751a8.114 8.114 0 0 1 -4.385-7.487c.01-.113.016-.225.016-.338v-2.518a7.661 7.661 0 0 1 7.652-7.653h15.109c19.422 0 24.16-11.018 25.258-17.588a11.762 11.762 0 0 0 5.943-1.842v11.824a3.5 3.5 0 0 0 7 0v-16.04c0-10.966-4.929-14.619-6.7-15.579a11.8 11.8 0 0 0 -3.027-1.477c-8.744-5.2-8.632-16.382-8.62-16.974v-20.322c0-14.21-3.1-24.231-9.213-29.782a15.412 15.412 0 0 0 -10.893-4.3h-76.259a15.417 15.417 0 0 0 -10.886 4.3c-6.113 5.551-9.213 15.572-9.213 29.782v20.407c.011.514.123 11.687-8.641 16.9a11.824 11.824 0 0 0 -2.993 1.46c-1.716.92-6.713 4.546-6.713 15.589v14.3a3.5 3.5 0 0 0 7 0v-10.088a11.755 11.755 0 0 0 5.941 1.842c1.109 6.683 5.889 17.588 25.259 17.588h15.109a7.661 7.661 0 0 1 7.652 7.653v2.518c0 .085.007.213.013.3a8.108 8.108 0 0 1 -4.261 7.463c-.033.019-.059.045-.091.064h-79.786c-1-12.671-1.222-45.824 19.714-70.061a43.319 43.319 0 0 0 10.672-25.849c.592-9.794 2.331-23.906 7.253-35.517a21.255 21.255 0 0 1 18.189-13.309c8.408-.726 16.618 3.114 20.923 9.782a3.5 3.5 0 0 0 5.881-3.8c-5.693-8.818-16.447-13.906-27.407-12.959a28.42 28.42 0 0 0 -24.031 17.551c-5.31 12.526-7.17 27.484-7.8 37.825a36.383 36.383 0 0 1 -8.981 21.7c-22.635 26.2-22.453 61.606-21.4 75.164a11.838 11.838 0 0 0 -2.7 21.409c-2.249 3.363-4.808 8.852-6.221 17.48a12.478 12.478 0 0 0 2.813 10.108zm220.338-4.532a5.486 5.486 0 0 1 -4.186 1.938h-206.631a5.5 5.5 0 0 1 -5.423-6.384c1.742-10.64 5.347-15.313 6.829-16.841h203.821c1.478 1.523 5.086 6.189 6.83 16.841a5.49 5.49 0 0 1 -1.24 4.446zm-56.268-140.988v20.225a30.252 30.252 0 0 0 4.922 16.5h-40.6a9.75 9.75 0 0 1 -3.6-4.215 12.089 12.089 0 0 1 -1.038-5.086v-1.327a10.008 10.008 0 0 1 8.185-9.733c17.976-3.478 22.664-17.9 22.767-27.315a11.9 11.9 0 0 0 7.02-6.126c1.365 3.905 2.344 9.377 2.344 17.077zm-69 9.491c-14.313-2.77-16.773-13.9-17.032-19.866h69.623c-.23 5.6-2.517 17.053-17.055 19.865a17.02 17.02 0 0 0 -13.855 16.606v1.327a19.026 19.026 0 0 0 1.679 8.011c.2.445.426.872.659 1.29h-12.5c.233-.418.455-.845.659-1.29a19.026 19.026 0 0 0 1.679-8.011v-1.327a17.018 17.018 0 0 0 -13.857-16.605zm-20.458-36.574h76.452a4.854 4.854 0 1 1 0 9.708h-76.452a4.854 4.854 0 1 1 0-9.708zm-13.006 27.083c0-7.7.979-13.173 2.347-17.078a11.9 11.9 0 0 0 7.077 6.146c.176 6.955 2.747 23.433 22.711 27.3a10.007 10.007 0 0 1 8.184 9.733v1.327a12.089 12.089 0 0 1 -1.038 5.086 9.76 9.76 0 0 1 -3.6 4.215h-40.61a30.122 30.122 0 0 0 4.931-16.4zm-16.848 48.577a4.827 4.827 0 0 1 1.845-3.778q1.092-.456 2.082-.981a4.793 4.793 0 0 1 .927-.094h126.452a4.813 4.813 0 0 1 .912.092c.661.352 1.363.677 2.094.98a4.834 4.834 0 0 1 -3.006 8.635h-126.452a4.86 4.86 0 0 1 -4.854-4.854zm59.463 39.48v-2.406a14.669 14.669 0 0 0 -14.652-14.653h-15.109c-12.41 0-16.833-5.242-18.125-10.567h113c-1.293 5.3-5.7 10.567-18.121 10.567h-15.107a14.669 14.669 0 0 0 -14.652 14.653v2.406a15.787 15.787 0 0 0 1.816 7.937h-20.863a15.751 15.751 0 0 0 1.813-7.937zm-94.609 14.937h206.452a4.854 4.854 0 0 1 .007 9.707h-206.459a4.854 4.854 0 1 1 0-9.707z" fill="#3e3e54"/></svg>