<svg id="icons" height="512" viewBox="0 0 340 340" width="512" xmlns="http://www.w3.org/2000/svg"><path d="m136.662 41.181-29.2 41.333 71.719 149.586 69.478 9.727s18.226-80.185-3.573-166a17.281 17.281 0 0 0 -13.509-12.745l-29.856-5.669a197.534 197.534 0 0 0 -13.021-26.15 12.781 12.781 0 0 0 -14.462-5.6l-26.662 7.737a20.3 20.3 0 0 0 -10.914 7.781z" fill="#b4bee5"/><path d="m245.086 75.826a17.315 17.315 0 0 0 -8.256-10.81c-25.34 11.642-43.279 30.278-55.868 49.379a6.07 6.07 0 0 1 -9.957.32c-19.9-26.918-47.184-43.569-53.1-46.988l-10.445 14.787 52.512 109.527 19.208 40.059 69.479 9.727s18.226-80.181-3.573-166.001z" fill="#7984b2"/><path d="m172.434 232.616s5.21-96.311 53.877-141.393c0 0-13.832 48.156-12.3 82.992 0 0 6.3-22.815 35.515-55.9 16.109-18.244 23.378-41.149 28.577-57.814 0 0 4.25 63.6-21.365 115.85 0 0 28.482-23.641 38.215-42.346 0 0 4.611 35.6-12.807 61.212 0 0 12.3-4.611 24.59-18.955 0 0-1.537 55.84-18.955 85.04z" fill="#d3d882"/><path d="m48.936 73.553s77.5 30.653 74.03 171.773h-74.03l-22.856-52.863c-11.732-11.238-13.2-56.441-13.646-105.029z" fill="#b4bee5"/><path d="m26.08 192.463 22.856 52.863h74.03a306.813 306.813 0 0 0 -4.22-61.326h-8.621c-30.23-36.594-71.6-46.492-71.6-46.492v22.655c-11.194-6.551-19.37-15.643-24.788-23.179 1.519 27.082 4.818 48.272 12.343 55.479z" fill="#7984b2"/><path d="m38.526 70.083h55.838a32.6 32.6 0 0 1 18.872 5.975c20.272 14.387 67.271 55.987 77.71 137.986a17.185 17.185 0 0 0 15.961 14.946c24.449 1.544 73.081 8.285 93.037 37.157l-83.536 48.7h-50.689c-48.228-4.623-62.556-36.567-64.152-78.771 0-.004 35.28-94.276-63.041-165.993z" fill="#93c3fc"/><path d="m12.434 87.434v-27.579a10.132 10.132 0 0 1 13.282-9.63l16.23 5.31a12.4 12.4 0 0 1 8.205 9.694l9.2 55.171z" fill="#b4bee5"/><path d="m30.954 280.422s-22.373-22.6-18.52-69.371c0 0 8.61 10.359 20.106 16.649 0 0-22.992-32.5-24.974-76.5 0 0 11.467 16.136 23.9 25.047 23.323 16.717 27.633 22.917 33.975 32.431 0 0-.225-23.664-6.094-42.019 0 0 48.113 32.571 58.023 90.38z" fill="#d3d882"/><path d="m101.679 304.123h-69.714a10.2 10.2 0 0 1 -10.13-9.048l-.28-2.473a19.092 19.092 0 0 1 5.116-15.3c5.348-5.628 13.61-13.651 22.281-19.521a19.17 19.17 0 0 1 10.745-3.3h22.953a82.059 82.059 0 0 0 12.965-1.03l12.45-1.992a16.061 16.061 0 0 1 15.925 6.995c5.1 7.69 11.068 19.221 8.922 28.721z" fill="#7984b2"/><path d="m95.237 314.843h70.482a74.18 74.18 0 0 0 -4.7-15.037 16.929 16.929 0 0 0 -11.158-9.448c-9.475-2.469-27.6-5.929-45.911-2.529.002 0-12.124 7.419-8.713 27.014z" fill="#b4bee5"/><path d="m256.955 290.627 1.21-20a20.169 20.169 0 0 1 8.044-14.926l6.923-5.183a20.171 20.171 0 0 0 7.944-13.8l.843-7.214a20.172 20.172 0 0 1 10.026-15.17l19.237-10.992a13.077 13.077 0 0 1 16.115 2.5 19.462 19.462 0 0 1 5.137 13.175v54.053a18.088 18.088 0 0 1 -9.424 15.879l-16.269 8.878z" fill="#7984b2"/><path d="m216.408 314.843a95.811 95.811 0 0 1 14.284-19.991 17.626 17.626 0 0 1 10.308-5.433l15.55-2.283a17.5 17.5 0 0 0 8.766-3.959l5.388-4.562a17.5 17.5 0 0 1 13.68-3.983l13.093 1.791a13.952 13.952 0 0 1 11.814 11.307c.322 1.741.635 3.694.91 5.851a15.89 15.89 0 0 1 -10.462 16.99l-9.526 3.365a15.887 15.887 0 0 1 -5.29.907z" fill="#b4bee5"/><g fill="#697cb7"><path d="m130.179 242.927c-.094 0-.19 0-.286-.011a3.5 3.5 0 0 1 -3.206-3.771q.092-1.131.171-2.254a3.5 3.5 0 1 1 6.982.493q-.081 1.158-.176 2.326a3.5 3.5 0 0 1 -3.485 3.217z"/><path d="m130.942 223.317a3.5 3.5 0 0 1 -3.5-3.49 218.694 218.694 0 0 0 -4.719-44.754 3.5 3.5 0 1 1 6.847-1.455 225.744 225.744 0 0 1 4.872 46.189 3.5 3.5 0 0 1 -3.489 3.51z"/><path d="m121.589 160.163a3.5 3.5 0 0 1 -3.347-2.483q-.552-1.818-1.125-3.583a3.5 3.5 0 1 1 6.659-2.157q.591 1.824 1.164 3.705a3.5 3.5 0 0 1 -3.351 4.518z"/><path d="m113.245 137.508a3.5 3.5 0 0 1 -3.209-2.1c-9.9-22.661-20.422-35.114-20.527-35.237a3.5 3.5 0 0 1 5.323-4.545c.457.535 11.307 13.376 21.619 36.981a3.5 3.5 0 0 1 -3.206 4.9z"/><path d="m165.716 228.725a3.5 3.5 0 0 1 -3.49-3.287c-2.159-35.432-12.108-68.066-29.572-96.994a3.5 3.5 0 1 1 5.992-3.618c18.055 29.906 28.339 63.614 30.567 100.186a3.5 3.5 0 0 1 -3.281 3.707c-.073.004-.144.006-.216.006z"/><path d="m122.481 110.937a3.5 3.5 0 0 1 -2.767-1.352 158.014 158.014 0 0 0 -19.322-20.978 3.5 3.5 0 0 1 4.644-5.238 165.168 165.168 0 0 1 20.206 21.92 3.5 3.5 0 0 1 -2.761 5.648z"/><path d="m162.683 265.81a64.606 64.606 0 0 1 -18.372-2.736 3.5 3.5 0 0 1 2.171-6.654c.337.109 25.9 8.149 39.034-6.2a3.5 3.5 0 0 1 5.164 4.727c-7.875 8.605-18.753 10.863-27.997 10.863z"/><path d="m176.29 285.79c-3.465 0-5.706-.226-5.914-.248a3.5 3.5 0 0 1 .731-6.962c1.735.18 41.869 3.964 46.018-26.468a3.5 3.5 0 0 1 6.935.945c-2.116 15.518-12.234 26.062-29.262 30.491a75.08 75.08 0 0 1 -18.508 2.242z"/></g><circle cx="159.266" cy="57.412" fill="#6b74a2" r="3.899"/><circle cx="176.333" cy="49.614" fill="#6b74a2" r="3.899"/><circle cx="176.333" cy="67.068" fill="#6b74a2" r="3.899"/><circle cx="31.991" cy="77.452" fill="#6b74a2" r="3.899"/><circle cx="38.526" cy="91.12" fill="#6b74a2" r="3.899"/><circle cx="303.843" cy="228.257" fill="#586389" r="3.899"/><circle cx="317.115" cy="221.092" fill="#586389" r="3.899"/><circle cx="316.046" cy="236.055" fill="#586389" r="3.899"/><circle cx="67.757" cy="271.335" fill="#586389" r="3.899"/><circle cx="52.522" cy="280.422" fill="#586389" r="3.899"/><circle cx="67.757" cy="286.951" fill="#586389" r="3.899"/><circle cx="280.184" cy="289.504" fill="#6b74a2" r="3.899"/><circle cx="292.99" cy="295.503" fill="#6b74a2" r="3.899"/><path d="m173.266 22.3-26.666 7.743a23.88 23.88 0 0 0 -12.8 9.119l-16.7 23.645a3.5 3.5 0 1 0 5.717 4.039l16.704-23.646a16.856 16.856 0 0 1 9.031-6.436l26.666-7.744a9.3 9.3 0 0 1 10.5 4.071 195.559 195.559 0 0 1 12.75 25.615c.008.021.023.038.032.059s.016.058.029.087l8.722 19.311a3.5 3.5 0 1 0 6.38-2.881l-5.951-13.177 23.242 4.413a13.834 13.834 0 0 1 10.77 10.169c2.974 11.71 5.5 24.016 7.5 36.583-9.2 8.4-25.989 33.456-31.347 43.492 2.2-30.741 11.711-64.174 11.826-64.574a3.5 3.5 0 0 0 -5.743-3.533c-15.409 14.279-28.103 34.918-37.728 61.345a3.5 3.5 0 1 0 6.577 2.394c7.228-19.85 16.2-36.238 26.746-48.9-4.041 16.9-10.071 46.765-9.007 70.882a3.5 3.5 0 0 0 6.868.785c.062-.223 6.56-22.576 34.767-54.52 10.648-12.06 17.57-26.169 22.479-38.947-.891 22.822-5.012 60.441-21.033 93.125a3.5 3.5 0 0 0 5.378 4.234c.992-.824 20.77-17.327 33.01-33.9-.039 12.131-1.972 32.279-12.732 48.1a3.5 3.5 0 0 0 4.123 5.246c.441-.166 9.161-3.514 19.333-12.982-.194 2.623-.456 5.7-.806 9.095a3.5 3.5 0 1 0 6.963.717c1.143-11.086 1.361-18.649 1.37-18.966a3.5 3.5 0 0 0 -6.156-2.374 75.472 75.472 0 0 1 -12.842 11.922c10.64-24.284 7.356-51.05 7.188-52.351a3.5 3.5 0 0 0 -6.576-1.166c-5.321 10.225-16.7 22.2-25.51 30.6 18.592-48.733 15.42-100.335 15.26-102.724a3.5 3.5 0 0 0 -6.834-.809c-3.9 12.488-9.41 30.157-19.8 45.94-1.83-10.425-4-20.636-6.492-30.436a20.859 20.859 0 0 0 -16.244-15.323l-27.993-5.315a196.636 196.636 0 0 0 -12.549-24.893 16.326 16.326 0 0 0 -18.422-7.134z" fill="#3e3e54"/><path d="m199.734 311.343a3.5 3.5 0 1 0 0 7h1.272a3.5 3.5 0 1 0 0-7z" fill="#3e3e54"/><path d="m94.364 73.583a28.937 28.937 0 0 1 16.846 5.329c19.5 13.841 65.976 54.759 76.264 135.574a20.691 20.691 0 0 0 19.212 18c14.588.921 36.046 3.569 55.441 10.949a3.5 3.5 0 1 0 2.489-6.542c-20.216-7.693-42.416-10.445-57.488-11.393a13.683 13.683 0 0 1 -12.71-11.9c-10.639-83.565-58.9-126.023-79.157-140.4a35.9 35.9 0 0 0 -20.9-6.62h-40.436l-.321-1.93a15.916 15.916 0 0 0 -10.569-12.442l-16.23-5.308a13.632 13.632 0 0 0 -17.871 12.955v74.152a3.5 3.5 0 0 0 7 0v-74.152a6.632 6.632 0 0 1 8.694-6.3l16.181 5.293a8.9 8.9 0 0 1 5.891 6.952l9.2 55.172a3.5 3.5 0 1 0 6.9-1.151l-5.06-30.351a123.806 123.806 0 0 1 21.86 23.44c12.348 17.118 27.1 46.405 27.217 88.717a3.5 3.5 0 0 0 3.5 3.49h.01a3.5 3.5 0 0 0 3.49-3.51c-.128-44.344-15.7-75.093-28.748-93.079-14.2-19.579-28.278-28.544-28.871-28.916-.033-.021-.071-.032-.1-.052l-1-5.977z" fill="#3e3e54"/><path d="m15.126 208.814a3.5 3.5 0 0 0 -6.18 1.95c-2.126 25.8 3.632 44.444 8.837 55.538a3.343 3.343 0 0 0 4.655 1.682 3.6 3.6 0 0 0 1.682-4.655c-4.294-9.154-8.99-23.871-8.6-44a76.243 76.243 0 0 0 15.344 11.446 3.5 3.5 0 0 0 4.54-5.09c-.2-.288-18.5-26.607-23.317-63.147 4.561 5.323 10.783 11.85 17.344 16.553 23.143 16.588 27.105 22.531 33.1 31.528a3.5 3.5 0 0 0 6.412-1.975 187.371 187.371 0 0 0 -3.58-32.766c12.714 10.962 37.079 35.845 46.437 71.922a19.375 19.375 0 0 0 -4.286.2l-12.452 2a78.772 78.772 0 0 1 -12.412.987h-22.95a22.579 22.579 0 0 0 -12.707 3.9c-8.906 6.028-17.345 14.208-22.856 20.008a22.544 22.544 0 0 0 -6.06 18.105l.28 2.473a13.687 13.687 0 0 0 13.608 12.154h49a3.5 3.5 0 0 0 0-7h-49a6.69 6.69 0 0 1 -6.652-5.942l-.28-2.472a15.555 15.555 0 0 1 4.176-12.5c5.273-5.55 13.318-13.356 21.705-19.033a15.607 15.607 0 0 1 8.783-2.7h22.953a85.822 85.822 0 0 0 13.518-1.075l12.45-1.991a12.605 12.605 0 0 1 12.456 5.473c5.857 8.828 8.884 16.83 8.765 22.97a99.028 99.028 0 0 0 -26.526 1.029 3.476 3.476 0 0 0 -1.187.456c-.579.353-14.112 8.909-10.338 30.6a3.5 3.5 0 0 0 3.448 2.9h90.415a3.5 3.5 0 0 0 0-7h-17.112a75.306 75.306 0 0 0 -4.327-12.975 20.344 20.344 0 0 0 -13.466-11.4 129.362 129.362 0 0 0 -13.927-2.806c.459-9.67-4.946-20.162-9.912-27.647a19.568 19.568 0 0 0 -7.385-6.589c-12.318-54.565-56.339-84.9-58.213-86.174a3.5 3.5 0 0 0 -5.3 3.964c3.1 9.7 4.584 21.067 5.29 29.368-5.195-6.166-12.536-12.751-27.8-23.69-11.8-8.457-22.974-24.075-23.085-24.232a3.5 3.5 0 0 0 -6.35 2.186c1.222 27.107 10.095 49.755 17.067 63.631a74.461 74.461 0 0 1 -6.005-6.164zm142.7 92.429a66.409 66.409 0 0 1 3.489 10.1h-63.025c-1.245-12.9 5.221-18.814 7.037-20.206 17.484-3.066 34.81.3 43.653 2.608a13.38 13.38 0 0 1 8.85 7.498z" fill="#3e3e54"/><path d="m335.934 219.018a22.9 22.9 0 0 0 -6.061-15.544 16.5 16.5 0 0 0 -20.427-3.172l-19.237 10.992a23.764 23.764 0 0 0 -11.767 17.8l-.842 7.214a16.74 16.74 0 0 1 -6.566 11.408l-6.923 5.184a23.627 23.627 0 0 0 -9.44 17.516l-.821 13.584-13.35 1.956a21.21 21.21 0 0 0 -12.361 6.507 98.646 98.646 0 0 0 -14.855 20.812 3.5 3.5 0 0 0 3.129 5.068h68.518a19.358 19.358 0 0 0 6.455-1.106l9.527-3.366a19.491 19.491 0 0 0 12.768-20.732c-.263-2.061-.579-4.1-.941-6.047a17.428 17.428 0 0 0 -14.78-14.136l-13.094-1.792a21.037 21.037 0 0 0 -16.416 4.78l-5.388 4.562a14 14 0 0 1 -2.071 1.445l.673-11.109a16.64 16.64 0 0 1 6.647-12.336l6.924-5.183a23.5 23.5 0 0 0 2.346-2.023v6.133a3.5 3.5 0 0 0 7 0v-20.51l.82-7.014a16.73 16.73 0 0 1 8.285-12.537l19.238-10.992a9.529 9.529 0 0 1 11.8 1.832 15.923 15.923 0 0 1 4.213 10.806v54.052a14.582 14.582 0 0 1 -7.6 12.807l-1.017.554a3.5 3.5 0 0 0 1.68 6.574 13.853 13.853 0 0 0 2.691-.983 21.58 21.58 0 0 0 11.247-18.952zm-68.353 66.83 5.388-4.562a14 14 0 0 1 10.943-3.186l13.094 1.791a10.442 10.442 0 0 1 8.846 8.477c.338 1.822.634 3.725.88 5.656a12.451 12.451 0 0 1 -8.156 13.246l-9.527 3.366a12.341 12.341 0 0 1 -4.123.707h-62.453a94.741 94.741 0 0 1 10.776-14.1 14.188 14.188 0 0 1 8.263-4.359l15.55-2.284a20.966 20.966 0 0 0 10.519-4.752z" fill="#3e3e54"/></svg>