<svg id="icons" height="512" viewBox="0 0 340 340" width="512" xmlns="http://www.w3.org/2000/svg"><path d="m181.159 181.482h24.541s-3.186-19.756 16.888-25.81 34.412-14.972 41.738-26.767a39.321 39.321 0 0 1 -6.229 2.918 34.977 34.977 0 0 1 -15.718 1.9c-4.886-.483-13.734-.395-21.9 4.722a52.984 52.984 0 0 1 -13.179 6.215c-8.525 2.489-22.269 10.581-26.141 36.822z" fill="#527f7f"/><path d="m260.184 56.891s.319 50.983-42.7 69.146c0 0-22.974 9.739-27.583 41.817-14.324.875-18.8-10.483-15.76-26.051a71.883 71.883 0 0 1 22.02-23.803 59.525 59.525 0 0 0 18.568-20.121c7.38-13.268 21.799-32.901 45.455-40.988z" fill="#80afa7"/><path d="m189.919 167.857c-17.47-4.21-16.975-19.233-15.777-26.054a80.7 80.7 0 0 0 -10.508 39.679h25.491a82.444 82.444 0 0 1 .794-13.625z" fill="#527f7f"/><path d="m167.053 165.763c-.069-12.287 2.281-30.938 14.5-47.175a51.031 51.031 0 0 0 12.474-26.2 41.68 41.68 0 0 1 11.382-22.876c11.163-11.345 26.291-32.156 23.163-59.512 0 0-26.114 2.327-42.3 30.136a46.183 46.183 0 0 1 -8.92 11.082c-5.809 5.241-14.834 17.213-17.537 42.229a103.089 103.089 0 0 1 -3.971 18.831 140.254 140.254 0 0 0 -5.042 27.782l5.198 26.356c4.564 2.124 8.315 2.084 11.053-.653z" fill="#80afa7"/><path d="m167.056 165.763a7.013 7.013 0 0 1 -7.13-4.8 154.52 154.52 0 0 0 -9.117-20.907 260.8 260.8 0 0 0 -.371 39.192h17.767a75.81 75.81 0 0 1 -1.149-13.485z" fill="#527f7f"/><path d="m77.6 121.9a27.385 27.385 0 0 0 7.78 3.356 40.926 40.926 0 0 0 11.349 1.578 41.823 41.823 0 0 1 22.133 6.894 45.77 45.77 0 0 1 13.419 13.521c4.7 7.182 12.871 20.846 15.1 32.008h-20.392s-2.549-17.207-22.943-28.679-26.446-28.678-26.446-28.678z" fill="#527f7f"/><path d="m85.246 56.891s-10.574 34.744 16.841 57.236a40.554 40.554 0 0 1 13.544 20.561 34.884 34.884 0 0 0 9.56 16.268 39.833 39.833 0 0 1 5.136 5.769 70.777 70.777 0 0 1 5.4 8.914 14.32 14.32 0 0 0 19.3 1.7c-1.9-9.426-6.039-22.7-14.979-33.147a48.212 48.212 0 0 1 -10-19.595c-4.279-16.969-15.731-46.611-44.802-57.706z" fill="#80afa7"/><path d="m140.372 179.252h16.251a82.115 82.115 0 0 0 -1.6-11.908 23.131 23.131 0 0 1 -19.3-1.7 47.084 47.084 0 0 1 4.649 13.608z" fill="#527f7f"/><path d="m113.264 177.033h103.447a6.952 6.952 0 0 1 6.954 6.692c.74 19.837 3.19 78.118 7.06 97.036 0 0 6.516 29.991 34.663 39.615 0 0 9.122 3.089 10.164 9.624h-55.259a21.767 21.767 0 0 1 -12.984-4.3c-1.279-.951-2.711-1.972-4.208-2.967a20.282 20.282 0 0 0 -20.2-1.3 36.764 36.764 0 0 0 -6.313 3.921 16.161 16.161 0 0 1 -12.37 3.365c-13.763-2.111-42.969-5.614-60.176-.573a48.656 48.656 0 0 1 -13.683 1.854h-25.912s3.91-9.364 17.983-15.619c9.8-4.356 25.041-14.781 23.7-32.244-2.6-27.166-2.243-56.158 0-86.312l.177-11.937a6.958 6.958 0 0 1 6.957-6.855z" fill="#bf8397"/><path d="m100.36 206.949-3.646 2.651a8.739 8.739 0 0 0 -3.6 7.067v30.3a23.926 23.926 0 0 0 4.29 13.8c5.672 8.044 8.246 15.152 8.723 21.368v-86.31a14.015 14.015 0 0 1 -5.767 11.124z" fill="#3e3e54"/><g fill="#7a546a"><path d="m122.794 314.982a3.5 3.5 0 0 1 -1.945-6.412c2.477-1.652 3.791-8.545 3.9-12.683v-37.735a3.5 3.5 0 1 1 7 0v37.822c-.056 2.4-.654 14.179-7.015 18.42a3.482 3.482 0 0 1 -1.94.588z"/><path d="m128.247 246.342a3.5 3.5 0 0 1 -3.5-3.5v-.742a3.5 3.5 0 1 1 7 0v.743a3.5 3.5 0 0 1 -3.5 3.499z"/><path d="m128.247 231.31a3.5 3.5 0 0 1 -3.5-3.5v-31.984a3.5 3.5 0 1 1 7 0v31.984a3.5 3.5 0 0 1 -3.5 3.5z"/><path d="m155.307 302.92a3.5 3.5 0 0 1 -3.5-3.5v-102.52a3.5 3.5 0 0 1 7 0v102.52a3.5 3.5 0 0 1 -3.5 3.5z"/><path d="m185.063 242.49a3.5 3.5 0 0 1 -3.5-3.5v-43.164a3.5 3.5 0 0 1 7 0v43.164a3.5 3.5 0 0 1 -3.5 3.5z"/><path d="m185.063 293.865a3.5 3.5 0 0 1 -3.5-3.5v-30.313a3.5 3.5 0 0 1 7 0v30.313a3.5 3.5 0 0 1 -3.5 3.5z"/><path d="m222.742 320.778a3.486 3.486 0 0 1 -2.3-.862c-17.029-14.848-16.385-41.455-16.31-43.452v-80.638a3.5 3.5 0 0 1 7 0v80.707q0 .075 0 .15c-.011.246-.847 25.087 13.913 37.957a3.5 3.5 0 0 1 -2.3 6.138z"/><path d="m238.445 330c-25.676-4.355-28.064-23.975-40.413-30.58-7.44-3.979-14.879-1.705-19.619.733a4.277 4.277 0 0 1 -6.175-4.171 10.623 10.623 0 0 1 3.778-7.762s18.892-16.566 39.735 10.236a76.466 76.466 0 0 1 5.639 8.514 47.7 47.7 0 0 0 35.684 23.03z"/></g><path d="m223.594 159.023c21.341-6.437 36.045-15.948 43.706-28.27a3.5 3.5 0 0 0 -4.8-4.833 36.673 36.673 0 0 1 -5.629 2.625 31.234 31.234 0 0 1 -14.147 1.7c-5.082-.5-14.962-.488-24.106 5.239a59.177 59.177 0 0 1 -7.563 4.08 3.5 3.5 0 1 0 2.819 6.407 65.925 65.925 0 0 0 8.46-4.555c7.383-4.623 15.513-4.62 19.7-4.205a40.086 40.086 0 0 0 10.646-.324c-7.436 6.266-17.843 11.436-31.107 15.437-13.888 4.188-18.022 14.209-19.159 21.212h-9.6c2.42-33.659 25.056-43.85 26.029-44.271 18.522-7.82 32.153-22.843 39.421-43.445a93.813 93.813 0 0 0 5.417-28.949 3.5 3.5 0 0 0 -4.632-3.29c-24.177 8.266-39.111 27.73-47.381 42.6a55.655 55.655 0 0 1 -17.486 18.932c-1.746 1.194-3.457 2.468-5.085 3.787a3.5 3.5 0 0 0 4.407 5.439c1.481-1.2 3.039-2.36 4.629-3.448a63.424 63.424 0 0 0 19.652-21.308c7.082-12.736 19.365-29.078 38.566-37.454-1.312 13.049-7.839 47.007-40.235 60.685-1.159.491-27.775 12.237-30.31 50.718h-26.206a95.789 95.789 0 0 0 -6.01-23.289 3.546 3.546 0 0 0 .053-.36c.824-17.822 3.475-29.735 5.554-36.59a105.763 105.763 0 0 0 4.1-19.471c2.625-24.3 11.4-35.5 16.4-40.007a49.565 49.565 0 0 0 9.6-11.92c11.775-20.235 28.824-26.148 36.1-27.8 1.263 23.47-11.355 41.646-22.487 52.964a45 45 0 0 0 -12.345 24.789 48.068 48.068 0 0 1 -11.49 24.266 3.335 3.335 0 0 0 -.322.37c-12.16 16.153-14.975 34.523-15.195 47.088a3.5 3.5 0 0 0 3.442 3.56h.062a3.5 3.5 0 0 0 3.5-3.439c.2-11.484 2.738-28.216 13.66-42.828a54.641 54.641 0 0 0 13.265-27.937 38.044 38.044 0 0 1 10.419-20.963c10.464-10.635 27.513-32.881 24.144-62.365a3.507 3.507 0 0 0 -3.789-3.088c-1.139.1-28.112 2.821-45.01 31.861a42.588 42.588 0 0 1 -8.24 10.244c-7.011 6.329-15.941 19.177-18.671 44.454a98.9 98.9 0 0 1 -3.841 18.191 142.293 142.293 0 0 0 -5.037 27.072 59.218 59.218 0 0 0 -4.753-6.413 44.889 44.889 0 0 1 -9.271-18.174c-4.392-17.44-16.331-48.442-46.944-60.127a3.5 3.5 0 0 0 -4.6 2.251c-.113.37-10.922 37.259 17.969 60.962a36.932 36.932 0 0 1 12.389 18.781 38.111 38.111 0 0 0 10.529 17.886 36 36 0 0 1 4.693 5.257 61.876 61.876 0 0 1 7.827 14.781h-6.301c-2.491-6.806-8.592-17.773-23.237-26.01a60.171 60.171 0 0 1 -20.418-18.645 45.321 45.321 0 0 0 11.355 1.446c.94.007 1.916.06 2.9.156a3.5 3.5 0 1 0 .681-6.967c-1.193-.117-2.381-.18-3.531-.189a37.607 37.607 0 0 1 -10.38-1.433 25.725 25.725 0 0 1 -6.7-2.823 3.5 3.5 0 0 0 -5.371 3.983c.265.754 6.736 18.588 28.033 30.567 11.217 6.31 16.591 14.485 19.085 19.91h-8.152a10.5 10.5 0 0 0 -10.457 10.3l-.177 11.938a10.562 10.562 0 0 1 -4.328 8.344l-3.645 2.651a12.274 12.274 0 0 0 -5.04 9.9v30.3a27.271 27.271 0 0 0 4.93 15.817c5.181 7.349 7.893 14.241 8.135 20.582v1.449h.01a22.391 22.391 0 0 1 -.781 5.469c-3.3 11.941-15.714 18.592-20.9 20.9-15.171 6.743-19.61 17.034-19.792 17.468a3.5 3.5 0 0 0 3.23 4.849h25.909a52.234 52.234 0 0 0 14.669-2c16.835-4.93 46.632-1.172 58.662.674a19.787 19.787 0 0 0 15.05-4.063 33.209 33.209 0 0 1 5.712-3.544 16.836 16.836 0 0 1 16.713 1.08c1.3.867 2.669 1.829 4.057 2.861a25.1 25.1 0 0 0 15.071 4.987h55.259a3.5 3.5 0 0 0 3.457-4.052c-1.337-8.378-11.361-12-12.489-12.384-25.872-8.847-32.313-36.771-32.366-37-3.85-18.818-6.325-78.593-6.991-96.465a10.421 10.421 0 0 0 -10.451-10.061h-7.175c1.184-5.559 4.724-11.696 14.057-14.51zm-90.413-4.323a42.74 42.74 0 0 0 -5.582-6.282 31.218 31.218 0 0 1 -8.592-14.655 43.89 43.89 0 0 0 -14.7-22.341c-20.372-16.714-18.343-40.478-16.6-49.694 24.936 11.592 35.072 38.35 38.945 53.729a51.955 51.955 0 0 0 10.739 21.016c10.347 12.1 13.926 28.221 15.149 37.061h-9.887a65.311 65.311 0 0 0 -9.472-18.834zm-32.915 104.052a20.312 20.312 0 0 1 -3.65-11.783v-30.3a5.251 5.251 0 0 1 2.157-4.236l3.645-2.652c.075-.054.145-.114.219-.169l.031 52.8c-.746-1.212-1.537-2.433-2.402-3.66zm119.9-74.9c.861 23.08 3.28 78.792 7.138 97.649.284 1.3 7.276 32.037 36.95 42.183a18.819 18.819 0 0 1 5.046 2.816h-49a18.142 18.142 0 0 1 -10.9-3.606c-1.486-1.105-2.953-2.138-4.359-3.072a23.854 23.854 0 0 0 -23.684-1.528 40.28 40.28 0 0 0 -6.915 4.3 12.6 12.6 0 0 1 -9.688 2.667c-15.516-2.38-44.162-5.607-61.692-.473a45.187 45.187 0 0 1 -12.7 1.713h-19.286a37.487 37.487 0 0 1 12.776-8.921c6.1-2.709 20.717-10.61 24.806-25.431a29.824 29.824 0 0 0 .97-10.183v-86.089l.177-11.937a3.473 3.473 0 0 1 3.458-3.407h103.449a3.443 3.443 0 0 1 3.455 3.322z" fill="#3e3e54"/></svg>