<svg id="icons" height="512" viewBox="0 0 340 340" width="512" xmlns="http://www.w3.org/2000/svg"><path d="m288.143 271.1a113.282 113.282 0 0 1 13.327-13.052 91.9 91.9 0 0 0 17.177-17.92s4.34 28.867-10 45.038c0 0 12.039-3.3 18.443-9.956 0 0 4.611 25.225-13.064 40.661h-33.3z" fill="#8c9d78"/><path d="m273.805 254.462s8.434 9.183 15.363 17.932a13.757 13.757 0 0 1 2.881 10.061c-.913 8.216-3.6 23.48-11.328 33.416h-40.984z" fill="#7984b2"/><path d="m179.285 279.052s19.276-32.015 48.916-50.694a13.23 13.23 0 0 1 14.376.191c8.8 5.86 23.743 16.512 31.228 25.913 0 0 4.867 46.742-34.068 61.409h-32.275z" fill="#b4bee5"/><path d="m166.8 315.871h40.664s16.906-5.056 22.541-26.829c0 0-13.832.769-25.871 5.379 0 0 9.99-12.039 8.965-35.349 0 0-16.65 20.219-26.9 22.149 0 0 4.355-19.843-3.074-32.4 0 0-3.074 9.99-7.94 16.394s-23.949 20.876-8.385 50.656z" fill="#d3dd96"/><path d="m109.237 24.155a27.16 27.16 0 0 0 -11.386 3.464 11.807 11.807 0 0 0 -2.651 18.443c2.818 2.883 7.057 5.376 13.416 6.046 8.234.867 13.286-2.524 16.317-6.309a11.821 11.821 0 0 0 -1.714-16.326 22.07 22.07 0 0 0 -12.037-5.281 10.927 10.927 0 0 0 -1.945-.037z" fill="#7984b2"/><path d="m120.276 174.756s23.669-3.239 22.423-31.393c-.274-6.2-2.254-10.773-5.175-14.129l-54.241 1.893a30.278 30.278 0 0 0 -6.608 10.492s-5.83 26.41 23.868 34.632z" fill="#7984b2"/><path d="m102.7 174.756a104.551 104.551 0 0 0 -22.872-.092 18.155 18.155 0 0 0 -13.889 9.564 110.307 110.307 0 0 0 -8.394 20.45 10.8 10.8 0 0 0 1.555 9.222c2.963 4.134 8.969 9.438 20.5 10.184h16.76z" fill="#7984b2"/><path d="m113.445 221.147h16.912a14.678 14.678 0 0 1 13.547 9c7.241 17.29 22.051 56.057 22.894 85.722h-32.775z" fill="#7984b2"/><path d="m85.419 221.147h28.026a11.683 11.683 0 0 1 10.8 7.182c3.309 7.973 8.078 21.581 9.032 35.648 0 0 10.8 25.2 7.821 51.894h-49.173l-27.845-54.484c2.3-11.621 5.733-23.471 10.834-33.725a11.737 11.737 0 0 1 10.505-6.515z" fill="#b4bee5"/><path d="m87.388 221.147s-9.716-8.77-3.488-25.462c1.884-5.048 3.516-8.956 4.878-11.953a15.29 15.29 0 0 1 13.923-8.976h35a11.184 11.184 0 0 1 11.124 10.091c.9 9.072 1.815 21.854.6 27.78 0 0-2.156 8.52-19.069 8.52z" fill="#b4bee5"/><path d="m83.288 131.132c2.862 7.137 10.939 19.457 32.626 19.457 18.774 0 21.945-12.064 21.607-21.352-10.335-11.874-32.443-8.546-32.443-8.546s-12.704 1.053-21.79 10.441z" fill="#b4bee5"/><path d="m104.415 89.893 27.774-1.812a10.1 10.1 0 0 1 8.639 3.895 10.121 10.121 0 0 1 2.11 6.1c.075 7.3-1.448 23.313-15.962 25.825h-19.932s-12.238-2.2-13.783-17 11.154-17.008 11.154-17.008z" fill="#b4bee5"/><path d="m104.415 89.893-15.8 1.031a9.006 9.006 0 0 0 -8.306 7.51c-.712 4.305-1.24 9.805-.392 14.2 1.648 8.542 14.165 11.268 14.165 11.268h12.965c-7.858-5.187-7.876-12.671-7.876-22.355a14.842 14.842 0 0 1 5.244-11.654z" fill="#7984b2"/><path d="m95.691 90.462s-6.52-2-7.247-12.908l33.988-22.538s16.565 13.1 3.83 33.452z" fill="#7984b2"/><path d="m88.444 77.554s12.009 5.288 25.991-4.815 8-17.723 8-17.723-8.724-11.087-26.172 0c-14.015 8.903-7.819 22.538-7.819 22.538z" fill="#b4bee5"/><path d="m91.925 315.871s-4.27-33.157-27.832-54.526a66.06 66.06 0 0 0 -26.609-14.775s7.2 17.508 10.312 30.938c0 0-14.291-19.186-35.445-22.784a45.416 45.416 0 0 1 9.3 13.785c4.077 9 6.475 24.108 14.869 31.543 0 0-9.015-7.914-24.173-8.394 0 0 12.182 11.972 13.381 24.213z" fill="#d3dd96"/><g fill="#7984b2"><circle cx="110.416" cy="132.609" r="3.899"/><circle cx="106.517" cy="62.876" r="3.899"/><circle cx="125.001" cy="135.026" r="3.899"/><circle cx="133.644" cy="189.659" r="3.899"/><circle cx="118.036" cy="191.087" r="3.899"/><circle cx="127.577" cy="202.976" r="3.899"/><circle cx="91.456" cy="239.004" r="3.899"/><circle cx="82.346" cy="255.716" r="3.899"/><circle cx="98.95" cy="252.726" r="3.899"/><circle cx="235.837" cy="244.927" r="3.899"/><circle cx="248.459" cy="254.462" r="3.899"/><circle cx="231.938" cy="260.336" r="3.899"/></g><path d="m322.109 239.608a3.5 3.5 0 0 0 -6.323-1.5 89.135 89.135 0 0 1 -16.532 17.227c-1.743 1.427-3.507 2.977-5.241 4.608a3.5 3.5 0 0 0 4.8 5.1c1.618-1.522 3.26-2.965 4.879-4.29a108.342 108.342 0 0 0 12.059-11.414c.092 9.3-1.291 24-9.722 33.5a3.5 3.5 0 0 0 3.543 5.7 58.7 58.7 0 0 0 14.553-6.484c.092 7.91-1.525 21.678-12.4 31.177a3.5 3.5 0 0 0 4.605 5.272c18.955-16.554 14.407-42.816 14.2-43.926a3.5 3.5 0 0 0 -5.966-1.8 28.217 28.217 0 0 1 -7.092 5.065c7.728-16.752 4.792-37.203 4.637-38.235z" fill="#3e3e54"/><path d="m186.139 247.044a3.5 3.5 0 0 0 -6.357.752c-.029.094-2.96 9.487-7.381 15.306-.528.694-1.321 1.577-2.24 2.6-.83.926-1.772 1.976-2.756 3.15a3.5 3.5 0 0 0 5.368 4.494c.906-1.082 1.805-2.084 2.6-2.968 1.021-1.137 1.9-2.12 2.6-3.04a48.489 48.489 0 0 0 5.095-8.762c2.169 10.322-.254 21.751-.286 21.895a3.5 3.5 0 0 0 4.067 4.189c7.212-1.358 16.433-9.8 22.544-16.19-1.426 15.5-7.886 23.633-7.954 23.717a3.5 3.5 0 0 0 3.945 5.5 88.88 88.88 0 0 1 19.663-4.637c-5.962 15.376-18.043 19.3-18.588 19.465a3.5 3.5 0 0 0 1 6.853h73.259a3.5 3.5 0 0 0 2.763-1.35c8.256-10.613 11.089-26.6 12.044-35.181a17.163 17.163 0 0 0 -3.616-12.619c-6.787-8.57-15.077-17.634-15.492-18.087-7.892-9.826-23.356-20.809-31.9-26.5a16.746 16.746 0 0 0 -18.183-.237 149.4 149.4 0 0 0 -30.929 26.723 3.5 3.5 0 1 0 5.206 4.68 142.444 142.444 0 0 1 29.456-25.482 9.733 9.733 0 0 1 10.571.144c8 5.326 22.284 15.435 29.758 24.358.383 6.593 1.049 43.915-31.308 56.55h-19.082c5.092-4.445 10.554-11.511 13.386-22.452a3.5 3.5 0 0 0 -3.583-4.372 107.064 107.064 0 0 0 -18.251 2.9c2.772-6.3 5.622-16.183 5.036-29.527a3.5 3.5 0 0 0 -6.2-2.072c-4.777 5.8-13.214 14.516-19.8 18.672.75-7.331.896-19.431-4.455-28.472zm88.611 33.534a81.47 81.47 0 0 0 2.638-16.827c2.756 3.167 6.049 7.044 9.036 10.816a10.2 10.2 0 0 1 2.147 7.5c-.832 7.477-3.174 21.035-9.62 30.3h-25.294c10.194-7.328 17.397-18.099 21.093-31.789z" fill="#3e3e54"/><path d="m9.135 290.279a3.5 3.5 0 0 0 .76 3.873c.113.111 11.3 11.255 12.353 22.06a3.5 3.5 0 0 0 3.48 3.16c.114 0 .229-.006.344-.017a3.5 3.5 0 0 0 3.143-3.825c-.707-7.224-4.712-14.2-8.323-19.158a35.532 35.532 0 0 1 13.324 6.31 3.5 3.5 0 0 0 4.629-5.25c-5.15-4.562-7.949-13.066-10.419-20.569a100.908 100.908 0 0 0 -3.582-9.8 55.405 55.405 0 0 0 -3.062-5.818c12.332 5.462 20.887 15.464 22.8 17.834a46.68 46.68 0 0 1 1.37 8.986 3.5 3.5 0 0 0 7 0 56.234 56.234 0 0 0 -1.76-11.411 212.637 212.637 0 0 0 -7.7-24.3 62.757 62.757 0 0 1 18.247 11.582c22.29 20.214 26.673 52.064 26.714 52.382a3.5 3.5 0 0 0 3.472 3.053h49.175a3.5 3.5 0 0 0 3.478-3.112c2.836-25.405-6.214-49.085-7.849-53.1-1.045-13.981-5.592-27.36-9.249-36.172a15.178 15.178 0 0 0 -1.23-2.341h4.109a11.153 11.153 0 0 1 10.318 6.854c6.262 14.952 20.574 51.862 22.453 80.87h-8.976a3.5 3.5 0 0 0 0 7h12.646a3.5 3.5 0 0 0 3.5-3.6c-.839-29.552-14.873-67.177-23.163-86.975a18.157 18.157 0 0 0 -4.238-6.14c8.267-3.118 9.84-8.841 9.924-9.172.013-.051.025-.1.036-.155 1.034-5.042.851-14.742-.545-28.828a14.639 14.639 0 0 0 -14.614-13.244h-2.281c6-5.049 11.412-13.62 10.774-28.047-.289-6.531-2.319-12.006-6.033-16.273-.014-.016-.031-.027-.045-.043-10.665-12.189-31.357-10.2-35.02-9.736-2.425-3.844-2.431-9.094-2.431-15.611a11.4 11.4 0 0 1 3.239-8.243l26.51-1.729a6.593 6.593 0 0 1 7.023 6.538c.035 3.377-.307 9.805-2.983 14.907a3.5 3.5 0 1 0 6.2 3.251c3.219-6.137 3.834-13.3 3.784-18.231a13.578 13.578 0 0 0 -14.237-13.451 27.524 27.524 0 0 0 -7.355-32.121c-.2-.216-.492-.51-.873-.854a21.183 21.183 0 0 0 3.7-3.626 15.254 15.254 0 0 0 -2.172-21.169 25.438 25.438 0 0 0 -13.922-6.1 14.261 14.261 0 0 0 -2.576-.052 30.562 30.562 0 0 0 -12.892 3.918 15.246 15.246 0 0 0 -7.571 11.21 15.087 15.087 0 0 0 4.161 12.715 22.315 22.315 0 0 0 3.148 2.668c-.484.283-.97.57-1.465.885-12.917 8.207-12.293 21.219-10.138 27.038l.006.014c.009.024.018.051.027.075 0 .008.008.015.011.023a26.557 26.557 0 0 0 4.542 8.188l-.446.029a12.455 12.455 0 0 0 -11.532 10.434c-1.027 6.209-1.154 11.4-.375 15.432 1.057 5.485 5.328 8.993 9.3 11.132a35.249 35.249 0 0 0 -4.946 4.215c-.019.019-.042.032-.061.051a33.839 33.839 0 0 0 -7.371 11.693 3.469 3.469 0 0 0 -.143.479c-.118.536-2.812 13.274 4.943 24.632a3.5 3.5 0 0 0 5.782-3.948c-5.532-8.1-4.191-17.461-3.928-18.967a27.427 27.427 0 0 1 2.562-5c4.668 7.664 14.194 16.51 33.3 16.51 6.046 0 11.117-1.179 15.073-3.5a3.5 3.5 0 1 0 -3.547-6.035c-2.867 1.685-6.744 2.539-11.526 2.539-17.51 0-25.155-8.687-28.413-15.13a35.215 35.215 0 0 1 17.866-7.779c.079-.007.156-.015.233-.027.2-.03 20.312-2.923 29.282 7.382.006.007.014.012.02.019 2.637 3.041 4.085 7.066 4.3 11.965 1.038 23.485-16.979 27.351-19.209 27.738h-17.079a107.229 107.229 0 0 0 -23.516-.074 21.671 21.671 0 0 0 -16.56 11.41 114.372 114.372 0 0 0 -8.662 21.124 14.218 14.218 0 0 0 2.075 12.215 27.365 27.365 0 0 0 15.425 10.373 120.328 120.328 0 0 0 -7.568 19.974 3.5 3.5 0 0 0 6.728 1.934 112.913 112.913 0 0 1 7.21-19 8.189 8.189 0 0 1 7.37-4.574h28.027a8.157 8.157 0 0 1 7.569 5.024c3.506 8.449 7.874 21.3 8.771 34.543a3.512 3.512 0 0 0 .275 1.14c.1.234 9.572 22.756 7.845 47.017h-43.013c-1.684-8.925-8.168-35.227-28.447-53.618a69.72 69.72 0 0 0 -28-15.549 3.5 3.5 0 0 0 -4.195 4.7c.048.117 3.273 8 6.292 17.1-6.585-5.609-16.091-11.767-27.6-13.724a3.5 3.5 0 0 0 -2.962 6.021 42.691 42.691 0 0 1 8.487 12.655 96.625 96.625 0 0 1 3.311 9.1c1.236 3.757 2.546 7.739 4.212 11.513a47.3 47.3 0 0 0 -13.529-2.4 3.508 3.508 0 0 0 -3.326 2.111zm110.506-233.151a.337.337 0 0 1 -.029-.039l.008.009zm-21.935-13.512a8.132 8.132 0 0 1 -2.231-6.858 8.292 8.292 0 0 1 4.114-6.1 23.8 23.8 0 0 1 9.88-3.01 7.53 7.53 0 0 1 1.319.023 18.555 18.555 0 0 1 10.154 4.458 8.284 8.284 0 0 1 1.263 11.483 13.33 13.33 0 0 1 -5.189 4 21.819 21.819 0 0 0 -12.884-.042 16.167 16.167 0 0 1 -6.426-3.954zm-6.846 33.2c0-.013-.013-.024-.017-.037s-.005-.022-.009-.033c-.17-.469-4.045-11.563 7.3-18.774 14.023-8.91 20.938-1.492 21.514-.827 1.261 1.91 1.129 6.694-7.266 12.759a28.605 28.605 0 0 1 -11.611 5.147 3.5 3.5 0 0 0 .623 6.944 3.576 3.576 0 0 0 .631-.057 35.548 35.548 0 0 0 14.457-6.36c4.562-3.3 7.68-6.741 9.333-10.284 2.1 4.727 3.008 11.494-1.626 19.8l-20 1.305-5.355.349c-1.497-.727-5.666-3.281-7.974-9.934zm-7.509 35.155c-.612-3.169-.47-7.652.408-12.964a5.482 5.482 0 0 1 5.081-4.588l8.364-.546a19.169 19.169 0 0 0 -1.537 7.675c0 6.388.01 12.085 2.273 17.065a44.332 44.332 0 0 0 -4.339 1.532c-2.446-.754-9.301-3.278-10.25-8.176zm-6.484 108.3c-8.225-1.255-12.655-5.238-14.924-8.405a7.25 7.25 0 0 1 -1.029-6.234 107.435 107.435 0 0 1 8.125-19.777 14.67 14.67 0 0 1 11.217-7.716 80.357 80.357 0 0 1 8.4-.553 18.731 18.731 0 0 0 -3.065 4.7c-1.586 3.49-3.258 7.587-4.97 12.176a31.945 31.945 0 0 0 -1.95 16.4 3.5 3.5 0 0 0 6.908-1.13 25.072 25.072 0 0 1 1.6-12.824c1.655-4.439 3.266-8.384 4.784-11.728a11.823 11.823 0 0 1 10.737-6.924h35a7.66 7.66 0 0 1 7.64 6.936c1.271 12.82 1.516 22.226.691 26.544-.295.743-2.81 5.911-15.676 5.911h-44.937a15.167 15.167 0 0 0 -8.551 2.622z" fill="#3e3e54"/></svg>