<svg id="icons" height="512" viewBox="0 0 340 340" width="512" xmlns="http://www.w3.org/2000/svg"><path d="m19.234 106.15s.5 17.232 17.368 22.673a28.991 28.991 0 0 1 16.739 14.27q.5.966 1.067 1.959a38.36 38.36 0 0 0 35.41 18.93c18.981-.946 54.8 3.946 57.675 53.672h14.492s10.421-95.5-85.886-96.776a24.955 24.955 0 0 1 -17.06-7.077c-6.339-6.169-18.656-13.159-39.805-7.651z" fill="#527f7f"/><path d="m170.459 217.654s0-81.619 95.221-78.9a26.6 26.6 0 0 0 20.659-8.781 60.744 60.744 0 0 0 6.942-9.752 27.518 27.518 0 0 1 9.837-9.851c4.4-2.588 10.178-8.121 13.329-19.869 0 0 2.019-6.882 5.538-9.056 0 0-22.921-9.915-41.79 4.459a24.936 24.936 0 0 1 -13.736 4.9c-10.681.607-30.355 3.915-51.426 18.395a116.509 116.509 0 0 0 -41.946 53.173c-6.045 15.2-12.263 36-11.1 55.277z" fill="#527f7f"/><path d="m241.914 10a87.8 87.8 0 0 1 1.456 15.223 64.9 64.9 0 0 1 -21.147 48.885q-.789.723-1.593 1.449a39.865 39.865 0 0 0 -13.209 27.069c-.764 12.518-5.11 31.748-20.986 54.256 0 0-10.381 22.937-15.143 39.018 0 0-28.335-63.275-3.9-103.342 3.119-5.113 5.271-10.737 4.679-16.7l-.03-.309a54.12 54.12 0 0 1 26.546-51.86 103.677 103.677 0 0 1 43.327-13.689z" fill="#80afa7"/><path d="m19.234 15.047s-8.206 30.362 16.788 42.26a27.522 27.522 0 0 1 14.206 16.372c3.565 10.947 14.772 26.68 48.472 37.195a51.333 51.333 0 0 1 22.89 14.7c13.972 15.553 34.836 46.29 34.121 90.617h10.718s10.393-82.23-19.151-111.813a49.128 49.128 0 0 1 -11.166-18.1c-5.244-14.452-18.673-37.513-51.765-43.422a34.778 34.778 0 0 1 -20.378-11.9c-7.292-8.623-21.175-18.935-44.735-15.909z" fill="#80afa7"/><path d="m126.671 213.808h-40.177l23.441 108.258a10.065 10.065 0 0 0 9.837 7.934h12.45z" fill="#b4cde0"/><path d="m118.509 213.808 13.713 116.192h61.142a10.063 10.063 0 0 0 9.962-8.637l15.413-107.555z" fill="#ebf6ff"/><g fill="#3e3e54"><path d="m144.618 202.374a3.781 3.781 0 0 0 3.087-4.244c-4.261-30.241-23.522-50.26-58.77-61.132a3.5 3.5 0 0 0 -4.521 3.039 3.577 3.577 0 0 0 2.571 3.685c20.256 6.266 34.733 15.751 43.674 28.681-14-11.451-31.746-12.381-41.015-11.917-13.438.67-25.774-5.908-32.2-17.167-.354-.622-.688-1.237-1-1.84a32.7 32.7 0 0 0 -18.771-15.987c-10.558-3.406-13.664-12.141-14.572-16.66 17.437-3.682 27.8 1.93 33.493 7.477a28.319 28.319 0 0 0 19.456 8.069c21.007.277 38.374 5.219 51.621 14.688a3.391 3.391 0 0 0 .428.245 128.08 128.08 0 0 1 24.063 71h-16.624c-2.357-20.458-17.152-24.748-17.8-24.925a3.5 3.5 0 0 0 -1.878 6.743c.449.132 10.545 3.282 12.616 18.182h-41.876a3.657 3.657 0 0 0 -1.832.449 3.509 3.509 0 0 0 -1.7 3.791l23.441 108.257a13.642 13.642 0 0 0 13.263 10.692h73.592a13.632 13.632 0 0 0 13.427-11.64l15.414-107.555a3.5 3.5 0 0 0 -3.465-4h-39.274c7.463-25.157 33.541-32.782 33.889-32.88a3.5 3.5 0 0 0 -1.87-6.746c-1.091.3-22.549 6.484-34.005 26.527 6.914-22.913 27.41-56.692 88.1-54.957a29.944 29.944 0 0 0 23.374-9.954 64.581 64.581 0 0 0 7.348-10.312 24.132 24.132 0 0 1 8.589-8.6c4.9-2.88 11.464-9.032 14.911-21.894.669-2.252 2.4-6.035 3.994-7.052a3.447 3.447 0 0 0 1.317-1.38 3.532 3.532 0 0 0 -1.74-4.827c-1.011-.438-25.032-10.551-45.3 4.887a21.375 21.375 0 0 1 -11.813 4.194c-11.4.648-29.028 3.918-48.317 15.816a3.5 3.5 0 0 0 3.676 5.958c18.994-11.712 36.371-14.285 45.04-14.785a28.334 28.334 0 0 0 15.657-5.614c12.1-9.216 26.316-7.377 33.543-5.535a29.351 29.351 0 0 0 -2.793 6.442c-2.858 10.659-7.952 15.54-11.723 17.758a31.143 31.143 0 0 0 -11.085 11.1 57.644 57.644 0 0 1 -6.536 9.192 22.966 22.966 0 0 1 -17.942 7.607c-43.066-1.233-67.369 14.307-81.08 32.186a84.939 84.939 0 0 1 4.635-8.6q1.68-2.384 3.189-4.718c2.806-4.163 19.517-26.915 52.662-32.277a101.293 101.293 0 0 0 29.912-9.554 3.546 3.546 0 0 0 1.847-4.082 3.5 3.5 0 0 0 -4.977-2.179 94.194 94.194 0 0 1 -27.9 8.905 87.976 87.976 0 0 0 -40.025 17.178 94.567 94.567 0 0 0 6.87-29.275 36.143 36.143 0 0 1 12.062-24.686q.811-.732 1.61-1.464a68.439 68.439 0 0 0 22.285-51.524 90.748 90.748 0 0 0 -1.533-15.892 3.5 3.5 0 0 0 -3.729-2.761 106.672 106.672 0 0 0 -44.778 14.163 57.726 57.726 0 0 0 -28.268 55.212l.031.325a21.133 21.133 0 0 1 -4.044 14.315q-.387.543-.745 1.1a30.8 30.8 0 0 0 -4.521 11.836 3.581 3.581 0 0 0 2.22 3.982 3.5 3.5 0 0 0 4.668-2.734 23.888 23.888 0 0 1 3.511-9.283q.27-.419.563-.827a28.132 28.132 0 0 0 5.315-19.066l-.029-.308a50.708 50.708 0 0 1 24.824-48.5 99.482 99.482 0 0 1 38.645-12.903 95.013 95.013 0 0 1 .871 11.46 61.432 61.432 0 0 1 -20.01 46.247q-.781.714-1.576 1.433a43.1 43.1 0 0 0 -14.358 29.455c-.666 10.9-4.243 27.69-17.056 47.558-.352.524-.585.891-.7 1.082q-1.242 1.888-2.594 3.81l-.065.095a110.9 110.9 0 0 0 -11.774 26.441c-.022-3.367-.1-6.852-.266-10.41 5.111-69.347 43.337-120.02 43.724-120.525a3.5 3.5 0 0 0 -5.556-4.265c-1.41 1.839-30.2 39.947-41.371 96.446-3.11-15.988-8.735-30.953-18.516-40.747a45.417 45.417 0 0 1 -10.353-16.816c-5.209-14.358-19.211-39.383-54.44-45.673a31.373 31.373 0 0 1 -18.32-10.719c-8.1-9.572-22.971-20.309-47.852-17.116a3.5 3.5 0 0 0 -2.933 2.558c-.09.332-8.651 33.331 18.662 46.334a24.063 24.063 0 0 1 12.383 14.296c3.905 11.992 15.881 28.571 50.757 39.452a47.8 47.8 0 0 1 18.064 10.434c-11.442-4.627-24.677-7.074-39.576-7.27a21.353 21.353 0 0 1 -14.665-6.086c-7.3-7.112-20.716-14.365-43.125-8.531a3.5 3.5 0 0 0 -2.62 3.484c.2 6.812 4.584 21 19.793 25.908a25.652 25.652 0 0 1 14.709 12.555q.531 1.024 1.132 2.077c7.735 13.566 22.549 21.5 38.623 20.692 15.039-.746 41.069 2.566 50.36 32.265a3.789 3.789 0 0 0 4.266 2.631zm-91.062-129.774a31.089 31.089 0 0 0 -16.029-18.453c-18.519-8.815-16.646-29.034-15.406-35.9 20.284-1.823 32.463 7.032 39.179 14.965a38.385 38.385 0 0 0 22.43 13.088c31.772 5.673 44.4 28.23 49.092 41.171a52.334 52.334 0 0 0 11.978 19.378c23.911 23.941 20.284 85.9 18.715 103.46h-.409c-4.125-82.181-41.88-121.209-64.229-137.245a3.5 3.5 0 0 0 -4.08 5.688c16.371 11.744 41.41 36.507 53.953 83.253a139.89 139.89 0 0 0 -24.558-38.773 54.847 54.847 0 0 0 -24.451-15.7c-32.023-9.991-42.79-24.513-46.185-34.932zm146.306 248.267a6.6 6.6 0 0 1 -6.5 5.633h-58.029l-11.5-97.411a3.5 3.5 0 1 0 -6.951.82l11.4 96.591h-8.512a6.6 6.6 0 0 1 -6.416-5.175l-22.521-104.016h123.867z"/><path d="m68.635 132.638a3.5 3.5 0 0 0 -.635 6.972c.04 0 .566.053 1.5.176a3.5 3.5 0 1 0 .918-6.939c-1.153-.153-1.783-.209-1.783-.209z"/><path d="m81.966 63.1c-1.879-.852-2.967-1.244-3.084-1.285a3.5 3.5 0 0 0 -2.344 6.595c.008 0 .928.335 2.536 1.064a3.5 3.5 0 1 0 2.892-6.374z"/><path d="m291.243 101.672c.8-.681 1.2-1.075 1.2-1.075a3.5 3.5 0 0 0 -4.848-5.05c-.036.035-.345.326-.912.813a3.5 3.5 0 0 0 -.377 4.935c.694.805 3.181 1.876 4.937.377z"/></g></svg>