<svg id="icons" height="512" viewBox="0 0 340 340" width="512" xmlns="http://www.w3.org/2000/svg"><g fill="#515160"><path d="m171.284 72.907a3.5 3.5 0 0 1 -3.5-3.5v-41.785a23.034 23.034 0 0 1 23.008-23.008 22.8 22.8 0 0 1 21.092 13.756 22.561 22.561 0 0 1 -3.949 24.605 42.106 42.106 0 0 1 -4.955 4.619 3.5 3.5 0 1 1 -4.355-5.48 35.175 35.175 0 0 0 4.129-3.846 15.648 15.648 0 0 0 2.729-17.068 16.024 16.024 0 0 0 -30.7 6.419v41.788a3.5 3.5 0 0 1 -3.499 3.5z"/><path d="m139.844 161.64a3.5 3.5 0 0 1 -3.257-4.779l28.705-73.17a3.5 3.5 0 0 1 6.517 2.556l-28.709 73.171a3.5 3.5 0 0 1 -3.256 2.222z"/><path d="m197.9 147.359a3.5 3.5 0 0 1 -3.242-2.18l-24.83-60.94a3.5 3.5 0 1 1 6.482-2.641l24.83 60.939a3.5 3.5 0 0 1 -3.24 4.822z"/></g><rect fill="#3e3e54" height="15.562" rx="7.781" width="27.133" x="157.717" y="77.188"/><rect fill="#3e3e54" height="15.562" rx="7.781" width="27.133" x="157.717" y="61.626"/><path d="m205.234 191.282s.128-.095.37-.26a23.087 23.087 0 0 1 34.67 11.449c4.375 12.163 14.447 30.506 36.176 35.272a1.8 1.8 0 0 0 1.827-2.864 34.189 34.189 0 0 1 -5.979-13.353c-2.743-12.035-.127-22.817-3.087-32.108 0 0-18.83-31.887-63.977 1.864z" fill="#527f7f"/><path d="m165.784 235.114s-19.724-67.5 31.122-105.2c0 0 14.666-10.185 40.07-12.095a33.57 33.57 0 0 0 11.786-3.013 25.331 25.331 0 0 0 6.826-4.572 1.8 1.8 0 0 1 3.054 1.6c-1.231 6.192-5.117 15.531-17.027 22.027-19.287 10.52-36.82 44.709-36.82 44.709l-7.889 56.544z" fill="#527f7f"/><path d="m179.811 235.114s-9.069-74.953 45.873-81.528c26.4-3.16 38.3 15.546 43.527 35.832a26.246 26.246 0 0 0 -2.122-1.894c-20.9-17.033-52.406-5.6-58.011 20.767a81.28 81.28 0 0 0 -.776 26.823z" fill="#80afa7"/><path d="m173.064 235.114s-14.723-55.32-66.662-55.32c-40.527 0-47.191 38.343-48.163 55.194a1.8 1.8 0 0 0 3.341 1.035c4.746-8.033 14.669-21.03 31.361-26.391 16.633-5.341 33.657 7.252 33.9 24.72q0 .378 0 .762z" fill="#527f7f"/><path d="m66.976 142.719c21.86 4.439 76.726 22.513 80.323 92.4h35.58s-1.275-120.726-115.9-95.922a1.8 1.8 0 0 0 -.003 3.522z" fill="#80afa7"/><path d="m114.954 229.567s-10.666 29.942-5.846 68.064c4.593 36.328 46.768 34.24 46.768 34.24h21.79l-40.921-102.3z" fill="#b4cde0"/><path d="m218.587 229.567h-81.842s-10.666 29.942-5.846 68.064c4.593 36.328 46.767 34.24 46.767 34.24s42.174 2.088 46.767-34.24c4.82-38.122-5.846-68.064-5.846-68.064z" fill="#ebf6ff"/><path d="m71.137 190.335c-18.214 19.309-16.567 51.293-16.488 52.645a3.5 3.5 0 0 0 2.942 3.249 3.457 3.457 0 0 0 .554.044 3.506 3.506 0 0 0 3.256-2.218c.093-.236 9.58-23.694 32.61-31.09a21.917 21.917 0 0 1 17.8 1.894 23.006 23.006 0 0 1 9.838 11.209h-6.7a3.5 3.5 0 0 0 -3.3 2.325c-.447 1.255-10.89 31.17-6.021 69.677 4.507 35.647 42.335 37.314 49.312 37.314l20.671-.013c1.025.023 2.541.013 2.975.013 6.981 0 44.805-1.669 49.312-37.314 4.868-38.507-5.575-68.422-6.022-69.677a3.5 3.5 0 0 0 -3.3-2.325h-7.479a71.653 71.653 0 0 1 1.393-17.049 32.671 32.671 0 0 1 10.502-17.919 19.631 19.631 0 0 1 13.988 12.554c4.721 13.125 16.793 35.571 44.6 38.447.121.012.24.019.359.019a3.508 3.508 0 0 0 1.993-6.378c-.234-.166-5.758-4.184-8.222-15-1.257-5.515-1.315-10.834-1.37-15.978-.062-5.669-.126-11.027-1.738-16.216v-.01c-6.9-26.764-22.173-40.084-44.27-38.7 5.259-6.018 10.274-10.351 14.96-12.907 21.077-11.5 19.422-31.076 19.341-31.9a3.5 3.5 0 0 0 -6.64-1.17c-1.507 3.149-4.44 5.768-8.719 7.781a29.973 29.973 0 0 1 -10.558 2.69c-26.056 1.959-41.174 12.272-41.805 12.71l-.068.049-13-31.912a11.247 11.247 0 0 0 3.379-17.99 11.266 11.266 0 0 0 -8.147-19.062h-2.286v-30.5a16.024 16.024 0 0 1 30.7-6.419 15.648 15.648 0 0 1 -2.729 17.065 35.175 35.175 0 0 1 -4.129 3.846 3.5 3.5 0 1 0 4.355 5.48 42.106 42.106 0 0 0 4.955-4.619 22.561 22.561 0 0 0 3.949-24.6 22.8 22.8 0 0 0 -21.098-13.766 23.034 23.034 0 0 0 -23.008 23.008v30.5h-2.284a11.266 11.266 0 0 0 -8.148 19.062 11.248 11.248 0 0 0 3.425 18.016l-15.44 39.355a3.5 3.5 0 1 0 6.517 2.557l16.031-40.862h6.831l14.431 35.418a85.506 85.506 0 0 0 -24.1 34.852 80.537 80.537 0 0 0 -19.714-19.889c-22.165-15.5-51.824-18.409-88.152-8.661a3.5 3.5 0 0 0 .642 6.87 108.466 108.466 0 0 1 32.366 9.011c13.469 6.076 24.477 14.267 32.974 24.449a69.527 69.527 0 0 0 -16.759-2.006c-14.614 0-26.478 4.724-35.267 14.041zm149.824 106.857c-4.126 32.632-41.535 31.254-43.122 31.183-.043 0-.087 0-.131 0-.015 0-.028 0-.042 0h-3.3c-9.389-.325-36.514-3.672-39.992-31.179a164.259 164.259 0 0 1 2.185-53.128 3.5 3.5 0 0 0 -6.854-1.418 171.3 171.3 0 0 0 -2.275 55.424c1.942 15.367 10.078 24.419 19.264 29.746a56.158 56.158 0 0 1 -11.287-2.734c-13.418-4.85-21.1-14.234-22.824-27.89a163.284 163.284 0 0 1 4.935-64.124h98.511a163.277 163.277 0 0 1 4.932 64.12zm45.138-105.9c1.124 4.063 1.188 8.68 1.241 13.559a80.471 80.471 0 0 0 1.545 17.458 40.279 40.279 0 0 0 4.115 10.875c-16.56-5.438-25.092-19.836-29.431-31.9a26.6 26.6 0 0 0 -13.309-14.971 33.372 33.372 0 0 1 3.48-1.463 32.065 32.065 0 0 1 31.139 5.385c.514.422.921.778 1.221 1.052zm-100.599-102.042a4.281 4.281 0 1 1 0-8.562h11.57a4.281 4.281 0 0 1 0 8.562zm0-24.124h11.57a4.281 4.281 0 0 1 0 8.562h-11.57a4.281 4.281 0 1 1 0-8.562zm33.433 67.645c.809-.539 14.869-9.7 38.308-11.46a36.921 36.921 0 0 0 13.013-3.336 33.125 33.125 0 0 0 3.5-1.9c-1.981 4.823-5.944 10.423-13.816 14.716-6.955 3.795-14.344 10.747-21.962 20.663-17.168 4.313-29.679 16.279-36.417 34.979a3.5 3.5 0 0 0 6.586 2.373c6.8-18.862 19.565-29.542 37.955-31.742 17.108-2.047 29.35 5.791 36.491 23.325a39.027 39.027 0 0 0 -31.179-2.136 39.594 39.594 0 0 0 -25.758 29.314 78.478 78.478 0 0 0 -1.547 18.5h-18.358c-1.273-11.987-5.007-32.881-15.9-51.945a79.363 79.363 0 0 1 29.082-41.351zm-61.7 69.694a3.5 3.5 0 0 0 6.542-2.491c-8.943-23.484-26.557-41.675-50.939-52.608a120.875 120.875 0 0 0 -17.39-6.23c26.753-4.422 48.86-.665 65.877 11.232 27.985 19.564 35.419 56.012 37.389 73.7h-49.648a29.978 29.978 0 0 0 -13.772-17.283 28.855 28.855 0 0 0 -23.422-2.485c-14.127 4.537-23.635 14.064-29.472 22.069 1.345-10.186 4.859-23.735 13.852-33.253 7.411-7.845 17.556-11.822 30.152-11.822a59.986 59.986 0 0 1 23.714 4.686 86.685 86.685 0 0 1 7.114 14.485z" fill="#3e3e54"/><path d="m140.99 214.827a3.5 3.5 0 0 0 3.405 2.705 3.538 3.538 0 0 0 .8-.092 3.5 3.5 0 0 0 2.612-4.2l-.2-.83a3.5 3.5 0 0 0 -6.8 1.65z" fill="#3e3e54"/></svg>