<svg id="icons" height="512" viewBox="0 0 340 340" width="512" xmlns="http://www.w3.org/2000/svg"><path d="m176.428 265.889s-21.2 4.153-38.9-5.527a49.58 49.58 0 0 0 -22.964-6.064 36.754 36.754 0 0 1 -25.164-9.928c-7.405-6.978-8.915-15.815-8.335-23.424a36.355 36.355 0 0 0 -8.543-26.591 34.9 34.9 0 0 1 -8.435-24.355c.632-25.314 21.835-43.035 21.835-43.035s-13.083-33.436 19.262-53.879a44.409 44.409 0 0 0 18.66-23.406c2.919-8.807 9.968-18.661 26.635-21.766 0 0 9.177-17.914 23.1-17.914 11.937 0 33.176 18.747 43.781 40.247a45.483 45.483 0 0 0 13.6 16.274c10.338 7.736 24.9 24.895 19.2 58.228 0 0 24.051 13.291 25.633 34.81 0 0 2.532 25.75-15.822 35.027 0 0 11.708 26.366-3.8 41.556a40.069 40.069 0 0 1 -22.422 11.415 42.334 42.334 0 0 0 -18.371 7.138c-7.278 5.151-19.885 11.194-38.95 11.194z" fill="#8aacaf"/><path d="m259.973 194.586c-17.162 13.474-32.213 13.377-41.654 11.043a12.734 12.734 0 0 0 -14.015 5.75c-9.968 16.8-34.278 16.344-34.278 16.344-48.672 6.244-76.533-8.482-90.265-19.861a37.468 37.468 0 0 1 1.307 13.084c-.58 7.609.93 16.446 8.335 23.424a36.754 36.754 0 0 0 25.158 9.928 49.58 49.58 0 0 1 22.964 6.064c17.7 9.68 38.9 5.526 38.9 5.526 19.065 0 31.671-6.042 38.954-11.193a42.334 42.334 0 0 1 18.371-7.138 40.069 40.069 0 0 0 22.422-11.415c15.509-15.19 3.801-41.556 3.801-41.556z" fill="#668386"/><path d="m203.324 330h23.341s15.719-2.656 23.1-15.041c0 0-9.527 1.906-17.625 0a38.221 38.221 0 0 0 6.907-23.579s-12.385 9.527-21.912 12.385a28.929 28.929 0 0 0 3.573-19.212s-13.118 2.906-26.446 16.537c-1.262 13.269-1.045 23.566 9.062 28.91z" fill="#8c9d78"/><path d="m121.693 190.18c5.538 8.311 17.605 21.144 39.424 21.439 0 0-2.185-89.921 2.42-139.48a2.316 2.316 0 0 1 4.564-.308c4.75 20.752 13.325 62.929 12.867 95.233 0 0 20.121 0 22.693-30.664a9.654 9.654 0 0 1 8.406-8.793l2.34-.292s7.132 38.66-20.009 60.311a19.645 19.645 0 0 0 -7.44 14.838c-.7 27.034-.682 100.979 19.15 127.536h-26.026l-19.227-33.284c.377-19.862.335-43.54-1.486-55.831 0 0-43.681-19.656-49.8-54.6l.176-.065a10.144 10.144 0 0 1 11.948 3.96z" fill="#a36675"/><path d="m149.012 284.553a182.174 182.174 0 0 0 19.71 19.049c13.206 10.582 11.36 26.4 11.36 26.4h-46.5s-11.778-1.786-16.652-17.017a22.738 22.738 0 0 1 15.028 1.422s-7.514-14.621-19.089-21.12a69.453 69.453 0 0 1 34.726 9.342s-2.035-9.547 1.417-18.076z" fill="#d3dd96"/><g fill="#3e3e54"><path d="m182.853 333.5h23.147a3.607 3.607 0 0 0 2.548-.983 3.509 3.509 0 0 0 .367-4.611c-4.626-6.195-8.127-15.237-10.772-25.725a61.045 61.045 0 0 1 19.468-12.911 26.039 26.039 0 0 1 -3.4 12.586 3.5 3.5 0 0 0 3.939 5.262c5.78-1.734 12.377-5.642 17.029-8.718a35.136 35.136 0 0 1 -5.789 14.406 3.491 3.491 0 0 0 1.993 5.568 41.442 41.442 0 0 0 10.091.92 36.965 36.965 0 0 1 -15.393 7.256 3.5 3.5 0 0 0 .586 6.95 3.568 3.568 0 0 0 .587-.049c.706-.12 17.359-3.073 25.49-16.64a3.556 3.556 0 0 0 .4-2.812 3.508 3.508 0 0 0 -4.057-2.472 49.95 49.95 0 0 1 -11.187.714 41.673 41.673 0 0 0 4.656-20.936 3.608 3.608 0 0 0 -1.077-2.452 3.5 3.5 0 0 0 -4.557-.247 110.425 110.425 0 0 1 -13.339 8.6 31.273 31.273 0 0 0 .58-13.258 3.5 3.5 0 0 0 -4.2-2.809c-.506.112-11.41 2.63-23.591 13.177-6.655-32.953-6.324-75.676-5.906-91.754a16.136 16.136 0 0 1 6.127-12.2 54.754 54.754 0 0 0 11.275-12.212h.275a44.2 44.2 0 0 0 7.413-.611c2.6 5.893 9.059 13.455 21.224 13.455.116 0 2.616-.116 3.693-.3a3.5 3.5 0 1 0 -1.151-6.905c-.725.125-2.451.2-2.539.2-8.525 0-12.562-4.95-14.322-8.311 9.939-3.769 15.816-11.227 19.221-17.883a3.558 3.558 0 0 0 -.887-4.418 3.5 3.5 0 0 0 -5.3 1.151c-3.543 6.964-10.436 15.017-23.466 16.392 9.968-20.673 6.063-43 5.833-44.248a3.5 3.5 0 0 0 -3.877-2.837l-2.34.292a13.218 13.218 0 0 0 -11.459 11.974c-1.627 19.409-10.6 25.1-15.694 26.766-.121-14.46-1.817-30.413-4.066-45.413-2.034-18.136 6.7-27.739 7.059-28.13a3.142 3.142 0 0 0 .215-.247c10.037-12.7 10.84-25.586 10.869-26.128a3.5 3.5 0 0 0 -6.989-.388 44.03 44.03 0 0 1 -9.292 22.075 34.4 34.4 0 0 0 -5.822 9.766c-3.845-20.024-7.692-34.872-8.019-36.121a3.5 3.5 0 0 0 -6.849.375c-2.655 18.054-3.823 46.045-4.268 73.186a30.612 30.612 0 0 0 -14.248-7.638 25.657 25.657 0 0 1 -3.259-1.072c10.371-19.58-.848-37.352-1.35-38.127a3.5 3.5 0 1 0 -5.876 3.8c.1.154 9.381 14.858 1.165 30.8-8.141-6.475-10.056-16.418-10.155-16.962a3.5 3.5 0 0 0 -6.893 1.218c.156.89 4.057 21.875 24.638 27.124 14.186 3.618 15.652 13.369 15.8 15.406-.218 27.662.2 52.273.393 61.539a45.037 45.037 0 0 1 -8.8-1.642 12.286 12.286 0 0 1 -5.616-9.961c-.863-25.835-16.432-39.284-17.094-39.845a3.5 3.5 0 0 0 -4.528 5.339 40.163 40.163 0 0 1 6.81 8.5c-9.8.838-17.286-1.55-22.29-7.143a3.633 3.633 0 0 0 -4.876-.588 3.5 3.5 0 0 0 -.491 5.085c4.19 4.761 11.577 9.8 24.071 9.8a53.06 53.06 0 0 0 7.068-.5 53.5 53.5 0 0 1 4.334 19.579 19.633 19.633 0 0 0 .552 3.991 46.089 46.089 0 0 1 -12.066-12.321 13.616 13.616 0 0 0 -16.069-5.3l-.176.065a3.5 3.5 0 0 0 -2.234 3.886c5.7 32.667 41.46 52.125 50.014 56.355.588 4.79.99 11.392 1.205 19.584a49.674 49.674 0 0 1 -18.375-5.644 52.518 52.518 0 0 0 -24.531-6.374 32.936 32.936 0 0 1 -22.65-8.974c-5.457-5.143-7.895-12.077-7.245-20.609a39.664 39.664 0 0 0 -9.381-29.142 31.433 31.433 0 0 1 -7.591-21.984c.584-23.372 20.384-40.272 20.581-40.437a3.509 3.509 0 0 0 1.017-3.953c-.486-1.259-11.564-31.049 17.869-49.652a48.087 48.087 0 0 0 20.113-25.264c3.508-10.583 11.568-17.119 23.954-19.426a3.515 3.515 0 0 0 2.472-1.841c.082-.16 8.395-16.014 19.988-16.014 9.853 0 30.179 17.082 40.642 38.3a49.258 49.258 0 0 0 14.646 17.528c11.008 8.238 23.039 24.438 17.845 54.836a3.5 3.5 0 0 0 1.756 3.653c.225.123 22.41 12.6 23.843 32.083.022.234 2.041 23.5-13.919 31.567a3.5 3.5 0 0 0 -1.62 4.544c.107.241 10.565 24.3-3.047 37.634a36.458 36.458 0 0 1 -20.482 10.453 45.475 45.475 0 0 0 -19.883 7.744 53.867 53.867 0 0 1 -13.164 6.728 3.579 3.579 0 0 0 -2.443 3.776 3.5 3.5 0 0 0 4.636 2.873 60.9 60.9 0 0 0 15.013-7.663 38.558 38.558 0 0 1 16.858-6.532 43.766 43.766 0 0 0 24.364-12.378c13.994-13.709 8.423-34.773 5.694-42.522 17.265-11.2 15.067-35.805 14.967-36.818-1.429-19.435-19.063-32.347-25.3-36.329 4.993-34.116-10.864-51.724-20.927-59.254a42.229 42.229 0 0 1 -12.559-15.023c-10.893-22.086-33.257-42.2-46.92-42.2-13.452 0-22.627 13.638-25.371 18.3-17.6 3.848-24.77 14.978-27.687 23.776a41.071 41.071 0 0 1 -17.208 21.55c-29.272 18.5-23.777 47.349-21.406 55.747-5.339 5.062-20.759 21.587-21.32 44.037a38.236 38.236 0 0 0 9.285 26.727 32.711 32.711 0 0 1 7.7 24.042c-.807 10.593 2.452 19.665 9.425 26.236a40.294 40.294 0 0 0 27.502 10.885 46.414 46.414 0 0 1 21.427 5.681 57.328 57.328 0 0 0 21.563 6.376c.069 5.624.065 11.848-.014 18.634-3.487-3.575-5.789-6.19-5.835-6.243a3.5 3.5 0 0 0 -5.9 1.046 34.633 34.633 0 0 0 -2.245 13.256 72.03 72.03 0 0 0 -30.8-6.759 3.5 3.5 0 0 0 -1.5 6.578c5.452 3.077 9.993 8.244 13.1 12.5a26.03 26.03 0 0 0 -8.375.756 3.5 3.5 0 0 0 -2.336 4.422c5.473 17.1 18.892 19.324 19.461 19.41a3.5 3.5 0 0 0 1.081-6.916c-.352-.06-7.783-1.445-12.316-10.719a18.386 18.386 0 0 1 8.583 1.718 3.5 3.5 0 0 0 4.665-4.738 69.583 69.583 0 0 0 -10.929-15.018 66.347 66.347 0 0 1 21.543 7.778 3.679 3.679 0 0 0 3.091.354 3.505 3.505 0 0 0 2.243-4.013 34.357 34.357 0 0 1 -.238-10.272 168.94 168.94 0 0 0 15.757 14.7 27.457 27.457 0 0 1 10.145 21.123 6.111 6.111 0 0 0 1.561 3.974 6.174 6.174 0 0 0 4.621 2.072zm-69.087-144.376a6.72 6.72 0 0 1 5.014 3 51.067 51.067 0 0 0 27.472 20.758c.053.017.1.035.158.049a53.319 53.319 0 0 0 14.659 2.19 3.455 3.455 0 0 0 2.536-1.038 3.5 3.5 0 0 0 1.011-2.546c-.023-.932-1.91-81.326 1.763-131.267 4.8 22.224 11.49 58.519 11.089 86.747a3.5 3.5 0 0 0 3.5 3.55c.233 0 23.372-.387 26.18-33.871a6.206 6.206 0 0 1 4.238-5.364c.9 9.556 1.455 37.1-19.168 53.559a23.124 23.124 0 0 0 -8.759 17.489c-.73 28.1-.444 93.693 16.277 124.123h-16.093a34.334 34.334 0 0 0 -12.732-25.63c-2.232-1.788-4.443-3.725-6.53-5.651.466-26.3-.054-44.755-1.549-54.847a3.505 3.505 0 0 0 -2.025-2.678c-.407-.186-39.151-17.997-47.041-48.573z"/><path d="m96.424 147.506a3.5 3.5 0 0 0 -3.145 3.821c.01.108.071.691.25 1.626a3.5 3.5 0 0 0 3.434 2.844 3.555 3.555 0 0 0 .661-.063 3.5 3.5 0 0 0 2.78-4.095c-.109-.574-.152-.934-.159-1a3.5 3.5 0 0 0 -3.821-3.133z"/><path d="m251.128 183.039a3.5 3.5 0 0 0 2.911-1.553q.27-.4.522-.813a3.5 3.5 0 1 0 -5.961-3.673c-.123.2-.25.4-.382.595a3.5 3.5 0 0 0 2.906 5.447z"/></g></svg>