<svg id="icons" height="512" viewBox="0 0 340 340" width="512" xmlns="http://www.w3.org/2000/svg"><path d="m108.649 149.723s-13.355-12.923-36.618-12.923-28.431 24.985-28.431 24.985-32.741-1.292-30.156 40.926a24.223 24.223 0 0 0 -.789 27.33 17.321 17.321 0 0 1 2.522 10.42c-.778 10.078.946 29.805 25.838 32.039 0 0 7.323 11.655 34.033 11.655h80.989z" fill="#8c9d78"/><path d="m31.106 144.553s-9.477 30.516 16.607 37.269c0 0 15.473-26.752-16.607-37.269z" fill="#d3dd96"/><path d="m156.036 284.155s-53.462 3.958-54.061-31.3a32.918 32.918 0 0 0 -8.8-21.93c-7.51-8.045-14.555-21.177-4.293-37.4 0 0-18.619-29.141 14.975-50.593 0 0-12.547-26.308 18.618-39.26 0 0 15.785-39.664 65.164-32.784 0 0 19.507-15.074 40.084-3.8a47.2 47.2 0 0 0 25.21 5.691c16.561-.9 41.876 4.395 47.224 43.438 0 0 24.689 4.048 21.451 42.9 0 0 18.618 17.4 4.048 45.331 0 0 17.46 39.771-16.113 52.264a32.13 32.13 0 0 0 -16.819 14.449 23.993 23.993 0 0 1 -10.364 9.575 32.164 32.164 0 0 1 -14.709 3.421z" fill="#d3dd96"/><path d="m149.171 55.7s-13.3 24.837 15.3 39.639c.004.002 13.802-33.114-15.3-39.639z" fill="#8c9d78"/><path d="m323.141 109.657s-11.888-21.565-51.148-3.041c0 0 24.054 27.648 51.148 3.041z" fill="#8c9d78"/><path d="m300.7 148.528s-19.067 8.78-15.8 32.614c0 0 25.587 2.007 15.8-32.614z" fill="#8c9d78"/><path d="m280.382 234.329s-16.809 5.77-13.3 27.346c.003 0 24.84 1.756 13.3-27.346z" fill="#8c9d78"/><path d="m118.564 163.188s-9.283 21.717 14.049 30.247c0 0 10.287-25.622-14.049-30.247z" fill="#8c9d78"/><g fill="#3e3e54"><path d="m11.687 240.191c-.752 9.733.481 32.408 27.511 35.638 3.1 3.471 12.926 11.826 35.849 11.826a3.5 3.5 0 1 0 0-7c-24.059 0-31.03-9.961-31.069-10.017a3.5 3.5 0 0 0 -2.652-1.624c-20.394-1.831-23.579-16.391-22.66-28.284a20.691 20.691 0 0 0 -3.032-12.525 20.634 20.634 0 0 1 .543-23.308 3.5 3.5 0 0 0 .76-2.4c-.94-15.342 3.021-26.44 11.468-32.416a26.153 26.153 0 0 0 1.251 2.581c3.5 6.281 9.279 10.5 17.18 12.548a3.5 3.5 0 0 0 3.906-1.636c.3-.516 7.254-12.773 2.607-24.942-3.034-7.941-10.151-13.8-21.154-17.4a3.5 3.5 0 0 0 -4.432 2.287 47.45 47.45 0 0 0 -1.35 19.5c-8.622 5.101-17.58 15.881-16.531 38.633a27.846 27.846 0 0 0 -.207 30.226 13.732 13.732 0 0 1 2.012 8.313zm21.937-90.97c6.814 2.868 11.236 6.849 13.169 11.866 2.418 6.278.475 12.965-.948 16.484a18.489 18.489 0 0 1 -10.059-8.288c-3.763-6.729-3.018-15.289-2.162-20.062z"/><path d="m51.708 140.916a3.5 3.5 0 0 0 4.689 5.2 22.615 22.615 0 0 1 15.634-5.816 55.408 55.408 0 0 1 22.914 4.861c-12.6 10.776-15.061 22.659-14.668 31.266a42.587 42.587 0 0 0 4.567 17.027c-7.663 13.536-5.649 27.619 5.774 39.858a29.373 29.373 0 0 1 7.858 19.6c.152 8.97 3.411 16.425 9.687 22.155 12.4 11.319 33.319 12.732 42.988 12.732 2.941 0 4.841-.131 5.144-.154a3.5 3.5 0 0 0 -.516-6.981c-.285.022-28.983 1.951-42.907-10.777-4.858-4.441-7.278-10.032-7.4-17.094a36.368 36.368 0 0 0 -9.74-24.259c-9.832-10.534-11.132-21.684-3.89-33.145a3.5 3.5 0 0 0 -.009-3.755 34.756 34.756 0 0 1 -4.563-15.528c-.542-11.886 5.672-22.057 18.473-30.231a3.5 3.5 0 0 0 1.276-4.456c-.044-.092-4.344-9.307-.7-18.822 2.548-6.651 8.436-11.933 17.5-15.7a3.517 3.517 0 0 0 1.907-1.931 53.565 53.565 0 0 1 12.534-17.1 3.5 3.5 0 0 0 -4.748-5.145 61.823 61.823 0 0 0 -13.673 18.272c-10.181 4.511-16.924 10.933-20.056 19.1a31.99 31.99 0 0 0 -.832 19.21 62.321 62.321 0 0 0 -26.921-6 29.416 29.416 0 0 0 -20.322 7.613z"/><path d="m325.214 157.865c.786-11.828-.892-21.741-4.994-29.483a3.5 3.5 0 0 0 -6.186 3.278c3.642 6.872 5.018 16.012 4.088 27.164a3.53 3.53 0 0 0 1.088 2.838c.677.644 16.44 16.064 3.345 41.165a3.5 3.5 0 0 0 -.1 3.022c.081.187 8.062 18.81 1.92 33.274-2.79 6.57-8.189 11.383-16.047 14.307a35.674 35.674 0 0 0 -18.652 16.019 20.676 20.676 0 0 1 -8.909 8.171 28.792 28.792 0 0 1 -13.11 3.035 3.5 3.5 0 0 0 0 7 35.82 35.82 0 0 0 16.307-3.807 27.538 27.538 0 0 0 11.821-10.981 28.665 28.665 0 0 1 14.985-12.877c9.745-3.626 16.5-9.738 20.062-18.166 6.244-14.749.665-31.964-1.333-37.214 12.101-24.751-.199-42.01-4.285-46.745z"/><path d="m149.937 52.287a3.5 3.5 0 0 0 -3.852 1.763c-.248.463-6.03 11.489-2.189 23.874 2.627 8.464 9.009 15.37 18.97 20.525a3.283 3.283 0 0 0 2.806.181 3.42 3.42 0 0 0 2.033-1.943c.243-.584 4.77-11.679 3.2-22.88a73.819 73.819 0 0 1 16.251.54 3.51 3.51 0 0 0 2.617-.692c.727-.556 18.01-13.508 36.27-3.5a50.527 50.527 0 0 0 27.081 6.117c12.45-.672 28.74 2.423 37.722 20.248a85.518 85.518 0 0 0 -20.347 6.934 3.5 3.5 0 0 0 -1.147 5.463c.476.547 11.854 13.419 28.3 14.386q.983.058 1.956.058c9.063 0 17.762-3.732 25.887-11.11a3.5 3.5 0 0 0 .712-4.281c-.4-.731-7.717-13.4-28.038-12.354-8.132-18.152-24.191-27.5-45.425-26.334a43.638 43.638 0 0 1 -23.337-5.266c-19.522-10.7-37.8-.072-42.673 3.219a79.15 79.15 0 0 0 -17.671-.275c-.248-.59-.511-1.177-.809-1.753-3.426-6.618-9.589-10.964-18.317-12.92zm168.4 56.866c-6.505 5.147-13.288 7.553-20.216 7.163-8.657-.492-15.841-5.254-19.9-8.628 24.746-10.201 36.111-2.678 40.112 1.465zm-155.827-18.968c-6.159-3.913-10.156-8.7-11.9-14.262a25.947 25.947 0 0 1 .609-16.044c5.157 1.669 8.709 4.474 10.812 8.524 3.728 7.183 1.949 16.608.479 21.782z"/><path d="m304.071 147.576a3.5 3.5 0 0 0 -4.832-2.228c-.215.1-21.382 10.168-17.809 36.269a3.5 3.5 0 0 0 3.194 3.015c.074 0 .433.031 1.008.031 2.814 0 10.817-.607 16.119-7.073 5.331-6.5 6.111-16.599 2.32-30.014zm-7.7 25.531a13.055 13.055 0 0 1 -8.31 4.366c-.626-12.721 6-20 10.4-23.4 1.783 8.605 1.078 15.133-2.086 19.034z"/><path d="m279.245 231.018c-6.779 2.328-18.767 11.848-15.614 31.219a3.5 3.5 0 0 0 3.207 2.929c.076.006.435.028 1.009.028 2.9 0 11.277-.587 15.983-7.015 4.207-5.747 4.142-14.2-.194-25.14a3.5 3.5 0 0 0 -4.391-2.021zm-1.045 23c-2.008 2.766-5.53 3.711-8.019 4.026-.749-10.825 4.634-16.318 8.255-18.76 2.071 6.603 2 11.655-.236 14.735z"/><path d="m119.217 159.749a3.509 3.509 0 0 0 -3.872 2.063c-.187.438-4.528 10.827-.161 20.923 2.746 6.349 8.206 11.055 16.227 13.987a3.5 3.5 0 0 0 4.45-1.983c.226-.561 5.452-13.864-.245-24.278-3.078-5.625-8.595-9.228-16.399-10.712zm11.183 28.925c-4.258-2.164-7.2-5.07-8.772-8.667-2.031-4.651-1.425-9.617-.708-12.629 4.03 1.279 6.895 3.43 8.539 6.42 2.672 4.854 1.858 11.072.941 14.876z"/><path d="m200.509 284.221a3.5 3.5 0 0 0 3.5 3.434h.067a3.5 3.5 0 0 0 3.433-3.565c-.014-.719 0-2.6 0-2.86 0-35.28 4.159-44.745 8.975-55.7a117.993 117.993 0 0 0 5.394-14.026c2.091-6.858 1.644-13.067-1.325-18.454a26.745 26.745 0 0 0 -10.694-10.168c-.016-.009-.03-.021-.046-.03l-.042-.02a33.2 33.2 0 0 0 -6.133-2.622c-15.2-6.118-23.658-15.084-25.142-26.649a3.5 3.5 0 0 0 -6.943.891c1.127 8.78 6.169 20.546 23.016 29.29a31.526 31.526 0 0 0 -8.093 5.711c-10.637 10.089-22.847 3.433-23.391 3.128a3.5 3.5 0 0 0 -3.473 6.078 27.865 27.865 0 0 0 13.317 3.329 26.13 26.13 0 0 0 18.364-7.455c8.175-7.756 14.3-5.845 15.242-5.482a19.812 19.812 0 0 1 7.888 7.379c2.022 3.667 2.277 8.052.76 13.032a112.232 112.232 0 0 1 -5.107 13.251c-3.782 8.608-7.4 16.863-8.873 36.91-7.6-12.573-19.384-15.015-19.619-15.059-36.1-5.917-37.874-22.088-37.909-22.486a3.5 3.5 0 0 0 -6.994.277c.028.9 1.184 22.136 43.679 29.1.196.032 19.604 4.073 20.149 32.766z"/><path d="m175.838 131c-.046.082-.464.845-1.029 2.146a3.5 3.5 0 1 0 6.42 2.79c.419-.966.72-1.523.736-1.552a3.5 3.5 0 0 0 -6.127-3.384z"/><path d="m300.318 203.284a3.5 3.5 0 1 0 -5.5-4.327 12.314 12.314 0 0 1 -10.239 6.313c-17.406 1.16-26.874 9.773-31.725 17.265a22.654 22.654 0 0 1 -15.786 10.127c-13.827 1.985-19.946 9.942-20.2 10.279a3.5 3.5 0 0 0 2.8 5.586 3.522 3.522 0 0 0 2.781-1.357c.191-.245 4.809-6.027 15.617-7.58a29.648 29.648 0 0 0 20.666-13.25c5.749-8.877 14.548-13.431 26.129-14.076a18.71 18.71 0 0 0 15.457-8.98z"/><path d="m243.347 178.246a32.644 32.644 0 0 0 -11.687 9.413l-2.8 3.641a3.5 3.5 0 0 0 5.547 4.27l2.8-3.641a25.7 25.7 0 0 1 9.214-7.394c16.561-8.095 21.2-20.874 22.176-30.17a3.5 3.5 0 1 0 -6.961-.73c-1.151 10.965-7.304 19.242-18.289 24.611z"/><path d="m263.4 140.3a3.5 3.5 0 0 0 3.354-4.5c-.466-1.554-.834-2.473-.874-2.573a3.5 3.5 0 0 0 -6.488 2.627c0 .007.287.721.655 1.952a3.5 3.5 0 0 0 3.353 2.494z"/><path d="m69.205 263.725a28.41 28.41 0 0 1 14.343 10.06 25.246 25.246 0 0 1 4.607 10.928 3.5 3.5 0 1 0 6.91-1.116 32.183 32.183 0 0 0 -5.865-13.937 34.915 34.915 0 0 0 -17.526-12.479c-.2-.1-.4-.2-.595-.31a8.7 8.7 0 0 1 -4.138-5.384 9.881 9.881 0 0 1 1.043-7.538c9.628-16.331.4-33.456 0-34.177a3.5 3.5 0 0 0 -6.134 3.372c.078.142 7.674 14.409.1 27.251a16.934 16.934 0 0 0 -1.965 12.017c-15.35-8.039-16.033-17.591-16.058-18.162a3.535 3.535 0 0 0 -3.535-3.421 3.5 3.5 0 0 0 -3.464 3.535c.015.782.565 19.263 32.277 29.361z"/><path d="m42.069 215.4v-1.189a3.5 3.5 0 0 0 -7 0v1.189a3.5 3.5 0 0 0 7 0z"/></g></svg>