<svg id="icons" height="512" viewBox="0 0 340 340" width="512" xmlns="http://www.w3.org/2000/svg"><path d="m66.589 70.3c-5.809.886-13.046 4.18-17.65 14.156l-18.96 22.273 77.2 29.226 160.673-2.6c33.73 4.318 47.9-6.979 45.706-31.349a21.283 21.283 0 0 0 -11.758-8.47q-.641-.187-1.311-.358s21.447-33.806-53.8-45.075c0 0-10.178-23.265-41.8-16.358 0 0-5.792-25.9-67.191-11.05a66.123 66.123 0 0 0 -20.825 8.9c-6.626 4.357-13.585 10.72-16.312 19.24 0 0-15.445-1.833-22.12 12.5a15.793 15.793 0 0 1 -11.852 8.965z" fill="#8aacaf"/><path d="m22.766 105.537s-5.089 23.263 34.534 21.81c0 0-9.451 23.265 75.611 20.721 0 0 79.609-4.726 111.235 2.181a20.022 20.022 0 0 0 14.262-3.527 32.389 32.389 0 0 1 19.83-5.49c9.055.344 21.241-1.169 31.183-9.443a22.358 22.358 0 0 0 4.13-29.779c-5.255 23.7-29.307 23.592-29.307 23.592-58.088 14.018-58.088-14.532-58.088-14.532-24.161-10.795-47.435 4.838-47.435 4.838l-52.292-9.182c-23.557 20.027-43.037 11.584-52.334 5.025a29.361 29.361 0 0 0 -13.845-5.158c-22.106-2.363-11.31-22.14-11.31-22.14s-22.903-.727-26.174 21.084z" fill="#668386"/><path d="m233.03 90.794c3.532 17.706-.5 46.706-48.787 73.138l17.209-33.092s21.593-10.185 23.063-40.073c.232-4.722 7.59-4.609 8.515.027z" fill="#7a546a"/><path d="m145.269 211.307s-.28-8.444-8.855-19.883c-.731-.976-1.512-1.914-2.29-2.854-2.742-3.313-14.562-19.837 11.188-31.739 12.385-5.725 20.995-9.723 27.21-13.128a12.493 12.493 0 0 0 -1.791-22.717 74.037 74.037 0 0 0 -28.414-4.016s-44.438 2.579-33.366-33.7a36.346 36.346 0 0 1 1.633-4.337c4.282-9.481 18.919-3.76 15.515 6.071a17.274 17.274 0 0 1 -.761 1.848s-8.094 16.462 22.145 13.73c0 0 22.376-.215 43.435 8.8a25.807 25.807 0 0 1 8.608 41.381 92.936 92.936 0 0 1 -15.283 13.166s-17.314 10.062-.985 21.025c11.732 7.877 15.6 28.413 15.6 28.413z" fill="#bf8397"/><path d="m128.6 207.741h-32.011l23.442 108.259a10.065 10.065 0 0 0 9.836 7.934h12.45a1162.447 1162.447 0 0 0 -13.717-116.193z" fill="#b4cde0"/><path d="m128.6 207.741 13.712 116.191h61.148a10.063 10.063 0 0 0 9.962-8.636l15.413-107.555z" fill="#ebf6ff"/><g fill="#3e3e54"><path d="m304.662 72.654c-6.2-13.572-24.945-22.9-55.728-27.749-3.274-5.532-15.292-21.685-41.914-17.141a23.756 23.756 0 0 0 -8.649-8.844c-12.666-7.884-33.359-8.432-61.5-1.628a69.416 69.416 0 0 0 -21.926 9.373c-8.228 5.41-13.86 11.644-16.783 18.563-6.815.132-17.583 3.208-22.9 14.619a12.216 12.216 0 0 1 -9.2 6.991c-5.927.9-13.916 4.123-19.3 14.147-9.417.516-24.69 5.892-27.441 23.955a19.865 19.865 0 0 0 4.31 15.828c5.6 6.7 15.669 10.108 29.964 10.144a12.713 12.713 0 0 0 2.244 5.538c7.873 11.327 33.838 16.41 77.179 15.116a3.5 3.5 0 1 0 -.209-7c-54.818 1.642-67.938-7.743-71.034-11.853-1.6-2.125-1.3-3.739-1.2-4.1a3.3 3.3 0 0 0 -.278-3.284 3.477 3.477 0 0 0 -3.118-1.48c-13.786.505-23.5-2.081-28.1-7.481a12.719 12.719 0 0 1 -2.889-10.084c.017-.076.031-.152.042-.229 2.76-18.4 21.815-18.122 22.6-18.105a3.431 3.431 0 0 0 3.289-2.031c3.253-7.049 8.3-11.141 15-12.162a19.206 19.206 0 0 0 14.489-10.957c5.49-11.777 18.018-10.55 18.535-10.5a3.5 3.5 0 0 0 3.745-2.4c2.04-6.373 7.054-12.221 14.9-17.382a62.477 62.477 0 0 1 19.726-8.418c56.5-13.661 62.909 8.247 62.953 8.413a3.5 3.5 0 0 0 4.163 2.655c28.284-6.177 37.479 13.515 37.85 14.342a3.5 3.5 0 0 0 2.688 2.058c36.411 5.453 48.418 16.008 52.081 23.9a17.588 17.588 0 0 1 -.717 15.836 3.5 3.5 0 0 0 2.1 5.269c.407.1.8.211 1.19.324a18.005 18.005 0 0 1 12.718 13.869 18.568 18.568 0 0 1 -6.362 18.334c-9.24 7.691-20.775 8.945-28.81 8.636a35.652 35.652 0 0 0 -21.966 6.116 16.511 16.511 0 0 1 -11.512 2.978 136.311 136.311 0 0 0 -15.724-2.284 3.5 3.5 0 1 0 -.665 6.968 129.579 129.579 0 0 1 14.956 2.168 17.547 17.547 0 0 0 3.185.253 24.055 24.055 0 0 0 13.766-4.343 28.709 28.709 0 0 1 17.69-4.862c9.268.356 22.61-1.141 33.555-10.251a25.8 25.8 0 0 0 8.731-25.14 24.886 24.886 0 0 0 -15.085-18.286 24.176 24.176 0 0 0 -.639-18.399z"/><path d="m96.589 204.241a3.5 3.5 0 0 0 -3.42 4.241l23.441 108.256a13.641 13.641 0 0 0 13.258 10.694h73.592a13.632 13.632 0 0 0 13.427-11.64l15.413-107.555a3.5 3.5 0 0 0 -3.464-4h-28.87a63.652 63.652 0 0 0 -4.436-10.191.305.305 0 0 0 -.013-.032 41.259 41.259 0 0 0 -3.183-5.044c-.306-.411-.634-.8-.974-1.175a28.432 28.432 0 0 0 -6.151-5.748c-2.538-1.7-5.543-4.331-5.459-7.178.1-3.514 4.669-6.982 6.253-7.914 17.257-9.456 30.291-20.008 38.943-31.464.036-.044.082-.076.116-.122l6.252-8.446a17.138 17.138 0 0 1 10.825-6.672c7.011-1.253 16.711-4.706 23.1-14.04a3.5 3.5 0 1 0 -5.776-3.954c-5.02 7.333-12.862 10.085-18.557 11.1a24.537 24.537 0 0 0 -5.457 1.672 52.129 52.129 0 0 0 1.012-24.926 8 8 0 0 0 -8.621-6.314 7.111 7.111 0 0 0 -6.822 6.8 54.229 54.229 0 0 1 -1.428 10.095 12.607 12.607 0 0 0 -6.486-3.83c-12.823-2.967-12.6-12.239-12.526-13.314a3.5 3.5 0 0 0 -6.977-.578c-.486 5.617 2.634 17.174 17.925 20.712a5.584 5.584 0 0 1 3.669 2.8 5.9 5.9 0 0 1 .4 4.786l-.079.219a42.838 42.838 0 0 1 -3.275 5.208 3.5 3.5 0 1 0 5.637 4.149c6.16-8.368 9.569-18.428 10.133-29.9 0-.039 0-.069 0-.085a1.422 1.422 0 0 1 1 .015c.491.182.549.472.576.61 2.037 10.208 1.211 23.218-8.223 37.108l-1.939 2.62a3.386 3.386 0 0 0 -.245.412 83.348 83.348 0 0 1 -11.038 11.713 29.376 29.376 0 0 0 1.241-16.3 28.879 28.879 0 0 0 -17.1-20.87c-21.489-9.2-43.906-9.077-44.842-9.082-.095 0-.189.006-.281.014-13.85 1.248-17.613-1.857-18.589-3.252a3.811 3.811 0 0 1 -.533-1.133l.482-.518a26.175 26.175 0 0 1 18.748-8.182c9.313-.143 17.326-3.214 23.171-8.882a3.5 3.5 0 0 0 -4.873-5.026c-4.607 4.468-10.8 6.792-18.406 6.909a33.661 33.661 0 0 0 -17.06 4.957 11.618 11.618 0 0 0 -7.53-10.464c-5.252-2.09-12.151-.7-15.175 6a39.783 39.783 0 0 0 -1.792 4.756c-3.318 10.874-2.352 19.756 2.871 26.4a22.718 22.718 0 0 0 2.087 2.3c-24.993 3.134-30.437-12.681-30.674-13.417a3.5 3.5 0 0 0 -6.687 2.061c.068.225 7.225 22.491 38.839 18.231a35.331 35.331 0 0 1 11.338.263 60.086 60.086 0 0 0 19.1 2.372 70.749 70.749 0 0 1 27.073 3.812 9 9 0 0 1 1.291 16.359c-6.007 3.291-14.17 7.09-26.991 13.017-10.495 4.851-16.547 11.122-17.987 18.638-2 10.445 5.906 18.923 6.244 19.279.036.038.073.075.111.112a32.167 32.167 0 0 1 8.462 12.558zm113.369 110.559a6.6 6.6 0 0 1 -6.5 5.632h-58.03l-11.109-94.139a3.5 3.5 0 1 0 -6.951.82l11.012 93.319h-8.512a6.6 6.6 0 0 1 -6.416-5.175l-22.524-104.016h123.872zm-72.811-128.082c-.515-.574-5.7-6.563-4.408-13.151 1.009-5.157 5.733-9.719 14.042-13.559 12.955-5.989 21.21-9.832 27.416-13.232a16 16 0 0 0 -2.293-29.088 77.672 77.672 0 0 0 -29.786-4.212 56.892 56.892 0 0 1 -12.641-1.043 39.812 39.812 0 0 0 -4.535-1.17c-4.21-1.356-8.278-3.515-10.975-6.952-3.715-4.738-4.277-11.472-1.669-20.018a33.094 33.094 0 0 1 1.476-3.918 4.561 4.561 0 0 1 6.208-2.375c.71.282 4.183 1.893 2.809 5.862a13.907 13.907 0 0 1 -.593 1.447 14.193 14.193 0 0 0 -1.333 6.347v.027a11.188 11.188 0 0 0 1.922 6.1c3.707 5.4 11.837 7.457 24.852 6.3 1.819 0 22.6.258 41.9 8.517a22.309 22.309 0 0 1 7.431 35.778 89.689 89.689 0 0 1 -14.606 12.6c-1.413.844-9.357 5.929-9.608 13.653a11.383 11.383 0 0 0 .641 4.139c-3.935-2.134-6.992-4.535-7.7-6.806-.224-.716-.322-1.741.913-3.333.144-.186.3-.363.459-.534a3.5 3.5 0 0 0 -5.1-4.8c-.313.333-.612.679-.893 1.041-3.006 3.875-2.781 7.422-2.063 9.716 2.719 8.686 17.272 14.1 23.4 16.023a8.45 8.45 0 0 1 3.743 2.426 45.806 45.806 0 0 1 6.367 11.735h-44.545c-1.215-4.688-4.106-11.016-10.831-17.52z"/><path d="m267.382 92.179a3.671 3.671 0 0 0 .4.023 3.5 3.5 0 0 0 3.473-3.1c.058-.505.11-1.018.153-1.539a3.5 3.5 0 0 0 -6.977-.577q-.056.671-.131 1.32a3.5 3.5 0 0 0 3.082 3.873z"/><path d="m176.748 160.7.765-.485a3.5 3.5 0 1 0 -3.72-5.93l-.817.518a3.5 3.5 0 0 0 -1.063 4.833 3.894 3.894 0 0 0 4.835 1.064z"/></g></svg>