<svg id="icons" height="512" viewBox="0 0 340 340" width="512" xmlns="http://www.w3.org/2000/svg"><path d="m264.031 190.984s4.621-19.9 34.287-24.56c0 0 .3 32.341-29.292 31.517z" fill="#8c9d78"/><path d="m229.744 168.855s31.541-3.8 41.844 21.847a16.9 16.9 0 0 1 1.2 6.293v34.912l-11.188 2.361v-29.112a9.543 9.543 0 0 0 -7.592-9.354c-8.684-1.802-22.002-7.721-24.264-26.947z" fill="#d3dd96"/><path d="m275.561 228.009c-15.908 0-29.838 13.256-39.624 26.148l18.97 24.083h75.093s-23.472-50.231-54.439-50.231z" fill="#86656f"/><path d="m52.909 190.984s4.62-19.9 34.287-24.56c0 0 .3 32.341-29.292 31.517z" fill="#8c9d78"/><path d="m18.622 168.855s31.54-3.8 41.843 21.847a16.88 16.88 0 0 1 1.2 6.293v34.912l-11.186 2.361v-29.112a9.543 9.543 0 0 0 -7.592-9.354c-8.687-1.802-22.003-7.721-24.265-26.947z" fill="#d3dd96"/><path d="m64.439 228.009c-30.967 0-54.439 50.231-54.439 50.231h77.2l16.074-25.115c-9.742-12.558-23.352-25.116-38.835-25.116z" fill="#86656f"/><path d="m174.965 146.85s57.65-21.147 59.161-85.09c0 0-62.937 13.594-65.2 68.474z" fill="#8c9d78"/><path d="m89.624 69.564s60.888 1.652 85.323 69.851a39.205 39.205 0 0 1 2.284 13.217v60.93h-15.86v-62.056a13.529 13.529 0 0 0 -3.466-9.225 11.829 11.829 0 0 0 -7.107-3.739s-59.916-9.818-61.174-68.978z" fill="#d3dd96"/><path d="m170 209.482c-48.3 0-84.907 68.758-84.907 68.758h169.814s-36.607-68.758-84.907-68.758z" fill="#c190a4"/><circle cx="156.787" cy="231.907" fill="#7c5a64" r="3.899"/><circle cx="140.028" cy="245.066" fill="#7c5a64" r="3.899"/><circle cx="158.525" cy="248.965" fill="#7c5a64" r="3.899"/><g fill="#515160"><circle cx="57.764" cy="247.76" r="3.899"/><circle cx="44.782" cy="259.157" r="3.899"/><circle cx="276.684" cy="243.861" r="3.899"/><circle cx="263.421" cy="250.259" r="3.899"/></g><path d="m297.775 162.966c-15.8 2.484-24.988 9.144-30.185 15-14.345-15.217-37.98-12.618-38.264-12.582a3.5 3.5 0 0 0 -3.057 3.883c2.554 21.714 18.03 28.094 27.027 29.964a6.071 6.071 0 0 1 4.8 5.927v24.027a65.948 65.948 0 0 0 -15.829 12.226 3.5 3.5 0 0 0 5 4.906c9.65-9.824 19.17-14.805 28.3-14.805 28.37 0 51.042 47.732 51.268 48.214a3.5 3.5 0 0 0 6.341-2.964c-.99-2.118-24.444-51.5-56.885-52.233v-23.565c20.352-3.419 25.631-23.9 25.532-34.573a3.5 3.5 0 0 0 -4.043-3.425zm-43.054 29.409c-8.052-1.674-17.873-6.582-20.884-20.242 8.095-.065 27.216 1.732 34.5 19.873a13.334 13.334 0 0 1 .946 4.989v28.12a36.387 36.387 0 0 0 -4.186 1.073v-21.033a13.1 13.1 0 0 0 -10.376-12.78zm21.311 1.507a20.015 20.015 0 0 0 -1.2-4.485 37.891 37.891 0 0 0 -2.9-5.741c3.73-4.609 10.521-10.159 22.565-12.934-.924 6.978-4.527 20.278-18.465 23.16z" fill="#3e3e54"/><path d="m8.518 281.41a3.5 3.5 0 0 0 4.652-1.687c.226-.482 22.9-48.214 51.268-48.214 8.631 0 17.636 4.47 26.765 13.286a3.5 3.5 0 1 0 4.862-5.036c-10.238-9.887-20.63-15-30.9-15.228v-23.575c20.335-3.421 25.629-23.856 25.535-34.565a3.5 3.5 0 0 0 -4.044-3.425c-15.7 2.469-24.9 9.044-30.185 15-14.349-15.22-37.985-12.621-38.271-12.585a3.5 3.5 0 0 0 -3.057 3.883c2.554 21.714 18.029 28.094 27.027 29.964a6.07 6.07 0 0 1 4.8 5.927v24.017c-23.5 12.486-39.338 45.854-40.148 47.587a3.5 3.5 0 0 0 1.696 4.651zm74.875-110.693c-.9 6.977-4.468 20.281-18.483 23.169a20.048 20.048 0 0 0 -1.2-4.489 37.938 37.938 0 0 0 -2.9-5.741c3.808-4.704 10.619-10.188 22.583-12.939zm-39.793 21.658c-8.052-1.674-17.873-6.582-20.884-20.242 8.076-.065 27.216 1.732 34.5 19.873a13.314 13.314 0 0 1 .947 4.994v28.12a36.172 36.172 0 0 0 -4.186 1.071v-21.036a13.1 13.1 0 0 0 -10.377-12.78z" fill="#3e3e54"/><path d="m82 276.6a3.5 3.5 0 0 0 6.179 3.291c.357-.669 36.2-66.9 81.818-66.9s81.461 66.235 81.818 66.9a3.5 3.5 0 0 0 6.185-3.291c-1.423-2.672-32.991-61.025-77.266-69.565v-54.4a43.132 43.132 0 0 0 -.23-4.368c14.508-6.845 55.819-31.194 57.124-86.422a3.5 3.5 0 0 0 -4.238-3.5 110.686 110.686 0 0 0 -31.327 13.135c-18.152 11.161-29.938 26.271-34.521 44.076a102.663 102.663 0 0 0 -42.882-39.785c-18.744-9.167-34.289-9.688-34.942-9.706a3.5 3.5 0 0 0 -3.593 3.573c.682 32.089 18.131 50.086 32.649 59.534a90.351 90.351 0 0 0 31.515 12.833 8.283 8.283 0 0 1 5.05 2.657 9.976 9.976 0 0 1 2.532 6.844v55.811c-43.54 9.483-74.46 66.635-75.871 69.283zm148.4-210.186c-3.238 46.069-37.027 67.647-51.249 74.727-2.578-6.882-4.38-11.809-6.327-15.834 4.665-39.366 44.137-54.768 57.581-58.898zm-69.929 73.486a15.181 15.181 0 0 0 -9.1-4.812 84.867 84.867 0 0 1 -28.979-11.917c-17.849-11.692-27.621-28.417-29.092-49.755a92.659 92.659 0 0 1 28.57 8.782c23.26 11.472 40.01 31.12 49.783 58.4a35.6 35.6 0 0 1 2.079 12.037v53.485c-1.236-.084-7.166-.049-8.86.108v-54.722a16.952 16.952 0 0 0 -4.401-11.606z" fill="#3e3e54"/></svg>