<svg id="icons" height="512" viewBox="0 0 340 340" width="512" xmlns="http://www.w3.org/2000/svg"><path d="m175.52 195.117s20.856-34.76 53.628-38.98c0 0 2.98 10.427-7.2 19.49 0 0 33.766-.869 52.387-11.545 0 0-17.379 33.269-52.635 40.469 0 0-38.483 5.711-46.18-9.434z" fill="#8c9d78"/><path d="m118.6 95.765s43.028 45.225 51.2 114.3h15.374s-11.449-67.5-53.815-114.3z" fill="#3e3e54"/><path d="m107.137 66.629s-16.159-7.034-32-6.292a13.614 13.614 0 0 0 -13 14.483 47.383 47.383 0 0 0 8.329 23.81 13.64 13.64 0 0 0 17.105 4.484c7.4-3.538 17.117-9.88 22.478-20.292z" fill="#93c3fc"/><path d="m116.841 63.308s4.39-13.1 13.851-22.26a10.221 10.221 0 0 1 14.941.895c4.976 6 10.8 16.158 10.961 30.98a10.266 10.266 0 0 1 -9.508 10.38c-7.323.513-17.629-.541-24.971-8.536z" fill="#93c3fc"/><path d="m116.8 65.105a139.194 139.194 0 0 0 9.232-19.241 12.084 12.084 0 0 0 -12.837-16.3 89.145 89.145 0 0 0 -28.907 8.705 12.1 12.1 0 0 0 -.75 21.077 98.9 98.9 0 0 0 21.3 9.9z" fill="#718dcb"/><path d="m108.544 77.09s-11.5 7.2-9.991 30.789a9.33 9.33 0 0 0 10.492 8.615 75.735 75.735 0 0 0 29.668-10.054 9.367 9.367 0 0 0 2.68-13.391 59.005 59.005 0 0 0 -20.208-18.089z" fill="#718dcb"/><ellipse cx="112.064" cy="71.724" fill="#fff" rx="15.442" ry="9.976" transform="matrix(.996 -.093 .093 .996 -6.202 10.767)"/><path d="m220.406 69.245s-45.587 45.947-38.744 137.489h13.764s-7.126-82.869 28.654-126.024z" fill="#3e3e54"/><path d="m222.5 62.118s-17.5-9.652-35.46-10.488a15.437 15.437 0 0 0 -16.209 14.977 53.729 53.729 0 0 0 6.885 27.764 15.468 15.468 0 0 0 18.839 6.872c8.732-3.211 20.371-9.344 27.525-20.533z" fill="#f29b63"/><path d="m233.807 59.4s6.343-14.336 17.993-23.673a11.593 11.593 0 0 1 16.776 2.592c4.984 7.3 10.481 19.386 9.1 36.138a11.641 11.641 0 0 1 -11.833 10.714c-8.323-.2-19.848-2.476-27.292-12.28z" fill="#f29b63"/><path d="m233.566 61.419a157.886 157.886 0 0 0 12.46-20.747 13.7 13.7 0 0 0 -12.771-19.764 101.072 101.072 0 0 0 -33.555 6.769 13.72 13.72 0 0 0 -3.079 23.723 112.128 112.128 0 0 0 23 13.432z" fill="#ffc78f"/><path d="m222.981 74.079s-13.742 6.921-14.538 33.705a10.581 10.581 0 0 0 10.935 10.838c8.791-.293 21.856-1.962 34.561-8.214a10.622 10.622 0 0 0 4.443-14.836 66.915 66.915 0 0 0 -20.9-22.561z" fill="#ffc78f"/><ellipse cx="227.523" cy="68.393" fill="#fff" rx="17.511" ry="11.313"/><path d="m192.155 202.911s-13.273-42.305-63.12-51.74c0 0 3.036 13.159 16.692 30.042 0 0-37.739-19.641-62.567-22.11 0 0 19.118 36.159 54.5 47.631z" fill="#d3dd96"/><path d="m146.349 202.911h-40.178l23.442 108.257a10.063 10.063 0 0 0 9.836 7.935h12.451z" fill="#b4cde0"/><path d="m138.187 202.911 13.713 116.189h61.142a10.065 10.065 0 0 0 9.958-8.634l15.413-107.555z" fill="#ebf6ff"/><g fill="#3e3e54"><path d="m277.438 165.7a3.5 3.5 0 0 0 -4.843-4.656c-12.277 7.038-31.9 9.644-42.8 10.58a22.3 22.3 0 0 0 2.718-16.45 3.5 3.5 0 0 0 -3.813-2.51c-13.313 1.715-26.228 8.258-38.387 19.449a3.5 3.5 0 1 0 4.74 5.15c9.969-9.175 20.383-14.9 31.007-17.068-.078 3.083-1.158 7.984-6.211 12.6l-4.056 2.35a3.5 3.5 0 1 0 3.507 6.055l3.64-2.108c4.581-.179 24.884-1.275 41.834-7.02-6.812 8.789-18.989 21.271-36.42 27.078a3.531 3.531 0 0 0 -.577.258h-33.171c-3.75-9.507-20.025-43.182-64.92-51.679a3.5 3.5 0 0 0 -4.061 4.226c.1.438 2.044 8.562 9.3 20.16-13.382-6.1-34.933-14.858-51.416-16.5a3.5 3.5 0 0 0 -3.441 5.119c.567 1.072 12.522 23.317 35.081 38.672h-8.976a3.5 3.5 0 0 0 -3.421 4.241l23.441 108.257a13.641 13.641 0 0 0 13.256 10.696h73.592a13.633 13.633 0 0 0 13.428-11.641l15.412-107.554a3.5 3.5 0 0 0 -.441-2.243c23.724-12.399 35.445-34.401 35.998-35.462zm-148.628 33.639c-19.359-9.625-32.58-26.5-38.691-35.614 22.321 4.562 50.786 18.951 53.726 20.456l9.383 7.208a3.5 3.5 0 0 0 4.264-5.551l-9.292-7.138a94.429 94.429 0 0 1 -13.812-22.75c33.761 8.728 48.014 33.216 52.62 43.46.001.001-58.157-.05-58.198-.071zm90.73 110.63a6.6 6.6 0 0 1 -6.5 5.634h-58.03l-11.053-93.66a3.5 3.5 0 0 0 -6.952.82l10.956 92.84h-8.512a6.6 6.6 0 0 1 -6.416-5.175l-22.523-104.017h123.869z"/><path d="m62.91 62.6a16.84 16.84 0 0 0 -4.258 12.466 51.164 51.164 0 0 0 8.948 25.558 17.009 17.009 0 0 0 14.017 7.354 17.3 17.3 0 0 0 7.474-1.706q3.048-1.458 5.836-3.153-.024 2.432.137 4.982a12.841 12.841 0 0 0 14.427 11.865 79.289 79.289 0 0 0 31.057-10.543 12.644 12.644 0 0 0 5.818-8.313 13 13 0 0 0 -2.11-10.08c-.9-1.28-1.992-2.714-3.255-4.227.974.067 1.959.111 2.966.111q1.655 0 3.368-.12a13.774 13.774 0 0 0 12.763-13.91c-.176-15.91-6.5-26.822-11.767-33.175a13.842 13.842 0 0 0 -9.869-4.967 13.6 13.6 0 0 0 -8.711 2.566 15.7 15.7 0 0 0 -2.808-5.462 15.377 15.377 0 0 0 -14.211-5.753 91.507 91.507 0 0 0 -30.053 9.065 15.638 15.638 0 0 0 -6.379 21.654c-.442.009-.892.009-1.326.03a17.09 17.09 0 0 0 -12.064 5.758zm39.79 5.87a17.057 17.057 0 0 1 8.76-3.193c.631-.059 1.26-.088 1.883-.088a16.141 16.141 0 0 1 7.317 1.6c1.961 1.021 3.161 2.415 3.293 3.823.132 1.408-.788 3-2.525 4.368a18.4 18.4 0 0 1 -17.961 1.683c-1.961-1.021-3.161-2.415-3.293-3.824s.788-3.002 2.526-4.369zm35.376-26.739a6.816 6.816 0 0 1 4.863 2.448c4.549 5.481 10 14.924 10.155 28.782a6.766 6.766 0 0 1 -6.253 6.85 31.322 31.322 0 0 1 -14.719-2.149 3.5 3.5 0 0 0 -.75-.224q-.882-.69-1.816-1.364a10.587 10.587 0 0 0 1.367-6.117c-.358-3.821-2.92-7.239-7.029-9.38-.169-.087-.349-.16-.521-.243 1.67-3.269 3.6-7.346 5.342-11.742a43.683 43.683 0 0 1 4.411-5.03 6.523 6.523 0 0 1 4.95-1.831zm-52.184-.356a84.554 84.554 0 0 1 27.76-8.343 8.454 8.454 0 0 1 7.8 3.161 8.563 8.563 0 0 1 1.3 8.428 130.26 130.26 0 0 1 -6.252 13.763 26.734 26.734 0 0 0 -5.693-.077 23.857 23.857 0 0 0 -12.438 4.663c-.03.024-.055.05-.085.074a100.662 100.662 0 0 1 -12.923-6.686 8.6 8.6 0 0 1 .531-14.983zm-.9 22.911h.062c2.932 1.66 5.893 3.161 8.858 4.492a10.272 10.272 0 0 0 -.707 4.711c.358 3.821 2.92 7.239 7.029 9.379a22.942 22.942 0 0 0 10.525 2.392q1.27 0 2.562-.121a24.424 24.424 0 0 0 11.384-3.9 57.575 57.575 0 0 1 13.829 13.829 5.9 5.9 0 0 1 .971 4.633 5.705 5.705 0 0 1 -2.624 3.757 72.242 72.242 0 0 1 -28.278 9.565 5.8 5.8 0 0 1 -4.468-1.3 5.7 5.7 0 0 1 -2.09-4.067 47.229 47.229 0 0 1 1.517-16.382 3.5 3.5 0 1 0 -6.71-1.994 43.621 43.621 0 0 0 -1.125 4.839 56.038 56.038 0 0 1 -9.659 5.837 10.1 10.1 0 0 1 -12.719-3.319 43.578 43.578 0 0 1 -7.715-22.063 9.9 9.9 0 0 1 2.507-7.323 10.147 10.147 0 0 1 7.165-3.417 56.234 56.234 0 0 1 9.686.452z"/><path d="m271.467 36.346a15.231 15.231 0 0 0 -10.3-6.454 15.018 15.018 0 0 0 -10.393 2.269 17.283 17.283 0 0 0 -2.63-6.964 17 17 0 0 0 -15.025-7.787 103.307 103.307 0 0 0 -34.734 7.022 17.264 17.264 0 0 0 -8.885 23.868c-.773-.066-1.543-.127-2.3-.162a18.948 18.948 0 0 0 -13.894 5.1 18.632 18.632 0 0 0 -5.977 13.293 57.571 57.571 0 0 0 7.334 29.562 18.831 18.831 0 0 0 16.452 9.632 19.211 19.211 0 0 0 6.645-1.192 74.572 74.572 0 0 0 7.648-3.306c-.234 2.028-.4 4.171-.467 6.458a14.08 14.08 0 0 0 14.088 14.448c.154 0 .308 0 .462-.008 9.087-.3 22.706-2.035 35.99-8.571a13.87 13.87 0 0 0 7.207-8.488 14.267 14.267 0 0 0 -1.274-11.231c-1.027-1.789-2.3-3.831-3.847-6a50.778 50.778 0 0 0 8.189.845h.356a15.156 15.156 0 0 0 15.048-13.93c1.475-17.85-4.46-30.737-9.693-38.404zm-43.944 39.859c-8.257 0-14.012-4.117-14.012-7.812s5.755-7.813 14.012-7.813 14.011 4.118 14.011 7.813-5.754 7.812-14.011 7.812zm28.477 26.814a6.937 6.937 0 0 1 -3.6 4.249c-12.166 5.987-24.732 7.577-33.132 7.856a7.017 7.017 0 0 1 -5.253-2.075 6.934 6.934 0 0 1 -2.067-5.161c.394-13.255 4.058-21.2 7.511-25.783a29.415 29.415 0 0 0 8.071 1.1 26.985 26.985 0 0 0 13.359-3.3 65.5 65.5 0 0 1 14.465 17.411 7.149 7.149 0 0 1 .646 5.703zm18.19-28.85a8.165 8.165 0 0 1 -8.263 7.5 36.431 36.431 0 0 1 -16.062-3.751 3.454 3.454 0 0 0 -1.1-.343q-1.221-1.174-2.549-2.326a11.584 11.584 0 0 0 2.327-6.859c0-8.306-9.229-14.813-21.011-14.813s-21.012 6.507-21.012 14.813c0 4.28 2.463 8.073 6.451 10.753a43.039 43.039 0 0 0 -5.849 13.091 63.79 63.79 0 0 1 -11.767 5.722 11.918 11.918 0 0 1 -14.58-5.305 49.875 49.875 0 0 1 -6.436-25.967 11.683 11.683 0 0 1 3.753-8.335 12.007 12.007 0 0 1 8.794-3.226 63.455 63.455 0 0 1 10.685 1.484c.122.026.243.028.364.042 1.691 1.182 3.4 2.321 5.108 3.395a3.5 3.5 0 1 0 3.721-5.929c-2.7-1.7-5.409-3.557-8.037-5.524a10.22 10.22 0 0 1 2.29-17.672 96.359 96.359 0 0 1 32.384-6.517 10.044 10.044 0 0 1 8.883 4.608 10.171 10.171 0 0 1 .609 10.116c-1.185 2.412-2.536 4.942-4.017 7.519a3.5 3.5 0 0 0 6.07 3.487c1.29-2.247 2.483-4.459 3.569-6.6a3.525 3.525 0 0 0 .435-.379 49.26 49.26 0 0 1 5.048-4.694 7.88 7.88 0 0 1 6.145-1.643 8.205 8.205 0 0 1 5.552 3.477c4.588 6.733 9.795 18.074 8.491 33.876z"/></g></svg>