<svg id="icons" height="512" viewBox="0 0 340 340" width="512" xmlns="http://www.w3.org/2000/svg"><path d="m146.686 107.021v-13.068a58.46 58.46 0 0 1 58.461-58.46h84.366a45.164 45.164 0 0 1 45.164 45.163v136.638a35.535 35.535 0 0 1 -35.535 35.534h-22.064v-32.1h17.249a16.047 16.047 0 0 0 16.048-16.048v-116.687a26.364 26.364 0 0 0 -26.364-26.365h-69.923a33.472 33.472 0 0 0 -33.472 33.472v10.545z" fill="#697cb7"/><path d="m72 160.754-13.17 19.938-6.408-1.424s-25.293-.759-41.556-8.459a9.571 9.571 0 0 1 -4.514-12.959 95.51 95.51 0 0 1 33.969-37.14 9.58 9.58 0 0 1 13.711 3.817z" fill="#ebf6ff"/><path d="m285.1 131.985v-16.8a12.522 12.522 0 0 0 -12.522-12.523h-140.698a12.522 12.522 0 0 0 -12.522 12.523v16.8a12.522 12.522 0 0 0 12.522 12.522 12.522 12.522 0 0 0 -12.522 12.522v41.705l-47.358-37.98-19.578 18.514c6.17 14.542 19.671 35.567 33.4 55.25 0 0 26.126 35.956 33.532 45.564v11.9a12.522 12.522 0 0 0 12.522 12.522h140.7a12.522 12.522 0 0 0 12.524-12.519v-23.12a17.291 17.291 0 0 0 -5.681-12.815l-2.345-2.126 1.379-1.077a17.293 17.293 0 0 0 6.647-13.628v-82.19a12.522 12.522 0 0 0 -12.522-12.522 12.522 12.522 0 0 0 12.522-12.522z" fill="#93c3fc"/><g fill="#697cb7"><path d="m272.582 148.007h-103.819a3.5 3.5 0 1 1 0-7h103.819a3.5 3.5 0 0 1 0 7z"/><path d="m274.736 257.621h-138.225a3.5 3.5 0 0 1 0-7h138.225a3.5 3.5 0 1 1 0 7z"/><path d="m152.214 148.007h-1.466a3.5 3.5 0 0 1 0-7h1.466a3.5 3.5 0 0 1 0 7z"/><path d="m85.826 234.518c10.759 16.1 26.758 37.212 33.532 45.564v-81.348l-11.448-9.181z"/></g><path d="m289.513 31.993h-84.366a62.031 62.031 0 0 0 -61.961 61.96v5.21h-11.306a16.04 16.04 0 0 0 -16.022 16.022v16.8a16 16 0 0 0 6.038 12.522 16 16 0 0 0 -6.038 12.523v34.41l-41.058-32.933-17.632-35.535a13.079 13.079 0 0 0 -18.718-5.22 99.639 99.639 0 0 0 -35.22 38.515 12.869 12.869 0 0 0 -.7 10.066 13.079 13.079 0 0 0 6.836 7.639c14.063 6.658 34.07 8.313 40.728 8.69 12.778 28.364 49.5 77.468 65.762 98.612v10.711a16.04 16.04 0 0 0 16.022 16.022h140.7a16.04 16.04 0 0 0 16.022-16.022v-23.12a20.839 20.839 0 0 0 -6.208-14.822 20.644 20.644 0 0 0 6.208-14.825v-14.986h5.723a19.571 19.571 0 0 0 19.549-19.548v-116.691a29.9 29.9 0 0 0 -29.865-29.865h-69.919a37.013 37.013 0 0 0 -36.972 36.972v4.063h-26.93v-5.21a55.023 55.023 0 0 1 54.961-54.96h84.366a41.711 41.711 0 0 1 41.664 41.663v136.637a32.072 32.072 0 0 1 -32.035 32.036h-3.954a3.5 3.5 0 0 0 0 7h3.954a39.079 39.079 0 0 0 39.035-39.036v-136.637a48.719 48.719 0 0 0 -48.664-48.663zm-280.358 132.073a5.928 5.928 0 0 1 .319-4.634 92.53 92.53 0 0 1 32.717-35.764 6.081 6.081 0 0 1 8.706 2.415l16.82 33.907-16.617 15.71c-5.459-.3-25.474-1.778-38.734-8.056a6.135 6.135 0 0 1 -3.211-3.578zm272.445-32.081a9.032 9.032 0 0 1 -9.022 9.022 3.5 3.5 0 0 0 0 7 9.033 9.033 0 0 1 9.022 9.023v82.188a13.709 13.709 0 0 1 -5.3 10.871l-1.379 1.078a3.5 3.5 0 0 0 -.195 5.351l2.345 2.125a13.817 13.817 0 0 1 4.531 10.222v23.12a9.033 9.033 0 0 1 -9.022 9.022h-140.7a9.033 9.033 0 0 1 -9.022-9.022v-11.9a3.5 3.5 0 0 0 -.728-2.137c-15.661-20.321-52.745-69.711-65.512-97.829l15.574-14.725 43.666 35.022v13.984a3.5 3.5 0 0 0 7 0v-57.37a9.033 9.033 0 0 1 9.022-9.023 3.5 3.5 0 0 0 0-7 9.032 9.032 0 0 1 -9.022-9.022v-16.8a9.032 9.032 0 0 1 9.022-9.022h140.7a9.032 9.032 0 0 1 9.022 9.022zm-97.484-36.885a30.005 30.005 0 0 1 29.972-29.972h69.923a22.891 22.891 0 0 1 22.865 22.865v116.691a12.563 12.563 0 0 1 -12.549 12.548h-5.727v-60.2a16 16 0 0 0 -6.037-12.523 16 16 0 0 0 6.037-12.522v-16.8a16.04 16.04 0 0 0 -16.022-16.022h-88.462z" fill="#3e3e54"/></svg>