<svg id="icons" height="512" viewBox="0 0 340 340" width="512" xmlns="http://www.w3.org/2000/svg"><path d="m214.17 46.783 14.99 6.336a13.446 13.446 0 0 1 8.149 13.742c-1.931 19.026-2.451 61.36 26.537 84.762a10.216 10.216 0 0 1 3 12.135l-2.15 4.787s-33.463-6.679-41.471-52.26a18.385 18.385 0 0 0 -5.036-9.885 14.994 14.994 0 0 0 -10.838-4.546v-16.926z" fill="#90b5f6"/><path d="m234.5 57.212a13.414 13.414 0 0 0 -5.342-4.093l-14.99-6.336-4.444 24.854c5.637-4.656 14.31-10.802 24.776-14.425z" fill="#597bc6"/><path d="m179.594 73.813 27.755 11.115v16.926h-30.061a112 112 0 0 1 2.306-28.041z" fill="#5d80c1"/><path d="m233.369 15.963h6.947a11.747 11.747 0 0 1 11.747 11.747 11.747 11.747 0 0 1 -11.747 11.747h-9.473z" fill="#5d80c1"/><path d="m83.98 63.932s47.885-66.456 148.626-53.307a4.056 4.056 0 0 1 3.544 4.013v25.9a4.033 4.033 0 0 1 -2.693 3.809c-6.91 2.436-25.8 9.979-40.986 24.245q-21.93-35.7-61.743-15.818a80.846 80.846 0 0 0 -29.516 16z" fill="#90b5f6"/><path d="m74.516 61.325-2.235 10.056s42.085 6.331 61.451 28.677v-27.188s-27.56-11.545-59.216-11.545z" fill="#5d80c1"/><path d="m175.511 42.521c-25.525-11.572-44.782 10.251-44.782 10.251v.006c13.912-4.143 24.433-3.326 24.433-3.326l21.399 40.548a70.581 70.581 0 0 1 15.9-21.408c-1.967-10.902-6.68-21.416-16.95-26.071z" fill="#5d80c1"/><path d="m178.028 69.179a22.581 22.581 0 0 0 -22.428-20.179h-.869a22.58 22.58 0 0 0 -22.432 20.183c-2.324 21.439-1.374 45.958-1.374 45.958h48.475s.952-24.523-1.372-45.962z" fill="#90b5f6"/><path d="m223.234 208.484a54.515 54.515 0 0 0 -16.224-32.084c-12.272-11.757-25.531-29.4-27.609-61.263a169.53 169.53 0 0 0 -24.24-1.731l-17.146 26.122-38.524 79.333c-2.882 40.441 5.973 77.574 23.523 112.256h64.294a37.993 37.993 0 0 0 37.927-35.693c1.465-24.071 2.065-56.817-2.001-86.94z" fill="#e5fdff"/><path d="m197.239 193.215c-23.8 1.232-48.519 2.3-69.249-3.616.3-.334.59-.669.894-.995 12.635-13.565 19.617-31.117 23.151-42.8a73.525 73.525 0 0 0 3.126-21.3v-11.1a169.53 169.53 0 0 0 -24.24 1.731c-.192 28.746-15.341 49.511-27.613 61.268a54.161 54.161 0 0 0 -16.183 31.813c-4.108 30.191-3.5 63.053-2.038 87.194a38 38 0 0 0 37.927 35.705h9.97c-13.34-9.584-17.544-32.5-17.544-32.5-5.866-27.572-2.473-62.667.538-83.463l.017-.118a12.509 12.509 0 0 1 13.2-10.521c18.261 1.1 45.722.966 68.928-6.573a2.427 2.427 0 0 0 -.884-4.725z" fill="#b3cdfe"/><path d="m155.161 109.906a171.453 171.453 0 0 0 -24.8 1.776 3.5 3.5 0 0 0 -2.943 3.432c-.2 29.2-16.705 49.346-26.529 58.759a58.2 58.2 0 0 0 -17.271 34.143c-4.19 31.011-3.415 64.765-2.027 87.62a41.555 41.555 0 0 0 41.421 38.981h64.294a41.554 41.554 0 0 0 41.419-38.981c1.388-22.858 2.163-56.614-2.026-87.62a58.2 58.2 0 0 0 -17.271-34.143c-10.373-9.938-24.4-26.843-26.525-58.8.033-.916.152-4.515.185-9.715h24.262a11.535 11.535 0 0 1 8.37 3.528 14.786 14.786 0 0 1 4.055 8.008c8.327 47.4 42.772 54.8 44.235 55.088a3.559 3.559 0 0 0 .685.068 3.5 3.5 0 0 0 3.193-2.067l2.149-4.788a13.745 13.745 0 0 0 -3.992-16.291c-27.981-22.588-26.983-64.65-25.254-81.686a16.865 16.865 0 0 0 -10.269-17.318l-.833-.352c4.467-1.826 7.354-2.708 7.456-2.739a3.5 3.5 0 0 0 2.5-3.355v-.492h.666a15.247 15.247 0 0 0 0-30.494h-.666v-1.351a3.5 3.5 0 0 0 -2.99-3.462c-39.342-5.8-75.48-.483-107.4 15.8-24.27 12.38-39.185 27.784-45.122 34.71-3.152-.218-6.367-.341-9.622-.341a3.5 3.5 0 0 0 -3.411 2.742l-2.235 10.056a3.5 3.5 0 0 0 2.894 4.22c.362.054 35.92 5.616 55.493 23.6-.018 1.744-.025 3.4-.023 4.92a3.5 3.5 0 0 0 3.5 3.5 3.5 3.5 0 0 0 3.5-3.505 326.129 326.129 0 0 1 1.545-33.791 19.061 19.061 0 0 1 18.953-17.066h.869a19.06 19.06 0 0 1 18.952 17.061c1.732 15.976 1.615 33.895 1.459 41.59a179.874 179.874 0 0 0 -20.846-1.245zm49.428 69.022a51.168 51.168 0 0 1 15.176 30.025c4.113 30.446 3.345 63.713 1.977 86.259a34.544 34.544 0 0 1 -34.433 32.405h-64.294a34.544 34.544 0 0 1 -34.434-32.405c-1.369-22.544-2.137-55.809 1.977-86.259a51.168 51.168 0 0 1 15.176-30.025c10.281-9.85 27.331-30.6 28.613-60.728a168.11 168.11 0 0 1 41.78.018c2.879 32.662 17.542 50.247 28.462 60.71zm.072-98.846-6.591-2.64a3.5 3.5 0 1 0 -2.6 6.5l8.38 3.358v11.054h-20.773c-.039-3.826-.137-8.077-.329-12.516.014-.022.035-.037.049-.06 6.488-10.639 16.023-18.85 25.3-24.938zm23.139-23.74a9.9 9.9 0 0 1 6.028 10.166c-1.843 18.169-2.82 63.1 27.822 87.838a6.74 6.74 0 0 1 2 7.978l-.914 2.036c-7.727-2.605-29.807-13.057-36.066-48.681a21.744 21.744 0 0 0 -6.015-11.761 18.683 18.683 0 0 0 -9.805-5.235v-13.444l5.22-29.2c1.7-.935 3.346-1.787 4.932-2.573zm12.518-36.879a8.247 8.247 0 0 1 0 16.494h-.666v-16.494zm-163.828 49.111.826-3.718c22.652.5 42.945 6.846 50.958 9.692-.415 5.064-.677 10.153-.833 14.918-17.46-13.341-41.741-19.096-50.951-20.892zm52.52-1.181c-3.369-1.152-8.159-2.661-13.965-4.14a80.614 80.614 0 0 1 19.387-8.034 26.046 26.046 0 0 0 -5.422 12.174zm26.59-21.893h-.341c-2.078-.11-26.107-.979-49.786 15.579-3.972-.8-8.224-1.509-12.672-2.064a146.42 146.42 0 0 1 39.644-29.32c29.791-15.2 63.492-20.418 100.209-15.53v26.744c-8.158 2.812-33.988 12.984-50.588 33.771-.161-1.968-.344-3.933-.555-5.878a26.048 26.048 0 0 0 -25.911-23.302z" fill="#3e3e54"/></svg>