<svg id="icons" height="512" viewBox="0 0 340 340" width="512" xmlns="http://www.w3.org/2000/svg"><path d="m32.636 47.01h13.827a23.348 23.348 0 0 1 17.79 8.227l82.536 97.11h-19.931l-69.514-84.118a15.2 15.2 0 0 0 -11.718-5.518h-6.8s-9.806 0-8.527 9.379c.001 0-13.227-15.735 2.337-25.08z" fill="#8c9ec3"/><rect fill="#8d97c6" height="115.936" rx="18.087" width="133.715" x="25.055" y="146.264"/><path d="m158.77 244.113v-79.762a18.087 18.087 0 0 0 -18.088-18.087h-94.722l40.814 54.936s-35.774 16.19-29.607 61h83.515a18.087 18.087 0 0 0 18.088-18.087z" fill="#6772a7"/><path d="m25.055 201.195h70.927v19.999h-70.927z" fill="#6772a7"/><path d="m72.987 211.291h-55.257a5.852 5.852 0 0 1 -5.852-5.852v-8.489a5.852 5.852 0 0 1 5.852-5.85h61.542l14.978 10.973z" fill="#8d97c6"/><path d="m80.019 205.313a58.893 58.893 0 0 0 -7.032 5.978h50.7v-20.191h-44.415l2.389 3.215a7.823 7.823 0 0 1 -1.642 10.998z" fill="#6772a7"/><path d="m191.452 152.347h85.507v63.005h-85.507z" fill="#b5b9da"/><path d="m259.836 155.429h20.695a0 0 0 0 1 0 0v20.937a6.257 6.257 0 0 1 -6.257 6.257h-8.181a6.257 6.257 0 0 1 -6.257-6.257v-20.937a0 0 0 0 1 0 0z" fill="#858ab2"/><path d="m209.046 195.361h40.547a6.709 6.709 0 0 1 6.709 6.709v14.32a0 0 0 0 1 0 0h-53.965a0 0 0 0 1 0 0v-14.32a6.709 6.709 0 0 1 6.709-6.709z" fill="#858ab2"/><path d="m332.185 245.98c-2.945-19.342-13.336-42.012-44.729-48.526a30.724 30.724 0 0 0 -22.133 4.012c-7.144 4.331-19.29 9.528-36.437 9.528-17.978 0-30.567-6.253-37.633-11.11-10.781-7.411-24.1-10.476-36.857-7.58a42.138 42.138 0 0 0 -17.273 8.295l13.727 65.721h175.859z" fill="#fe7d87"/><path d="m333.184 257.708a92.152 92.152 0 0 0 -1.006-11.727c-8.749 10.787-23.763 9.229-23.763 9.229h-104.756a46.762 46.762 0 0 1 -36.34-17.331l-18.91-23.346-27.249 8.85c-.414 1.029-.818 2.08-1.2 3.173l13.256 49.566h182.03a17.964 17.964 0 0 0 17.938-18.414z" fill="#c94f59"/><circle cx="276.959" cy="255.421" fill="#3e3e54" r="38.819"/><circle cx="276.959" cy="255.421" fill="#fff" r="17.692"/><path d="m10.756 74.631 120.531 153.555a10.95 10.95 0 0 0 15.738 1.554 10.951 10.951 0 0 0 1.384-15.207l-117.617-145.213a20.684 20.684 0 0 1 -4.5-9.98 13.17 13.17 0 0 1 6.339-12.33h-6.6c-16.093 0-24.781 15.51-15.275 27.621z" fill="#e4efff"/><circle cx="110.089" cy="255.421" fill="#3e3e54" r="38.819"/><circle cx="110.088" cy="255.421" fill="#fff" r="17.692"/><path d="m187.879 155.429h49.334a0 0 0 0 1 0 0v20.937a6.257 6.257 0 0 1 -6.257 6.257h-36.82a6.257 6.257 0 0 1 -6.257-6.257v-20.937a0 0 0 0 1 0 0z" fill="#858ab2"/><path d="m200.032 112.592h69.549a21.539 21.539 0 0 1 21.539 21.539v16.726a8.182 8.182 0 0 1 -8.182 8.182h-96.262a8.182 8.182 0 0 1 -8.182-8.182v-16.726a21.539 21.539 0 0 1 21.538-21.539z" fill="#515160"/><circle cx="134.631" cy="214.68" fill="#8c9ec3" r="3.899"/><g fill="#3e3e54"><path d="m288.167 194.027a32.775 32.775 0 0 0 -7.708-.662v-9.459a9.743 9.743 0 0 0 3.572-7.54v-13.883a11.7 11.7 0 0 0 10.589-11.627v-16.725a25.066 25.066 0 0 0 -25.038-25.038h-69.55a25.066 25.066 0 0 0 -25.038 25.038v16.725a11.7 11.7 0 0 0 11.682 11.683h1.276v25.3a3.5 3.5 0 1 0 7 0v-25.3h38.762v13.827a2.761 2.761 0 0 1 -2.758 2.757h-26.773a3.5 3.5 0 0 0 0 7h41.742a3.5 3.5 0 0 0 0-7h-5.614a9.73 9.73 0 0 0 .4-2.757v-2.846h5.211a3.5 3.5 0 0 0 0-7h-5.211v-3.981h15.623v13.827a9.768 9.768 0 0 0 9.757 9.757h7.365v8.212a35.623 35.623 0 0 0 -9.95 4.137c-1.139.691-2.423 1.4-3.828 2.111a10.217 10.217 0 0 0 -10.088-8.722h-40.544a10.216 10.216 0 0 0 -10.067 8.586 56.3 56.3 0 0 1 -5.744-3.447c-11.885-8.169-26.324-11.126-39.614-8.11a45.886 45.886 0 0 0 -15.887 6.9l-37.281-46.028h40.23a14.6 14.6 0 0 1 14.587 14.587v13.561a3.5 3.5 0 0 0 7 0v-13.559a21.605 21.605 0 0 0 -18.87-21.4l-76.48-89.981a26.806 26.806 0 0 0 -20.457-9.46h-20.431c-9.219 0-17.185 4.6-20.79 12.015-3.337 6.862-2.304 14.813 2.758 21.267l51.784 65.972h-16.642a21.611 21.611 0 0 0 -21.587 21.587v23.249h-3.825a9.363 9.363 0 0 0 -9.352 9.353v8.488a9.363 9.363 0 0 0 9.352 9.352h3.825v29.322a21.611 21.611 0 0 0 21.587 21.585h14.99a3.5 3.5 0 1 0 0-7h-14.99a14.6 14.6 0 0 1 -14.587-14.587v-29.322h67.028a3.5 3.5 0 1 0 0-7h-77.853a2.355 2.355 0 0 1 -2.352-2.352v-8.488a2.356 2.356 0 0 1 2.352-2.351h82.744l15.879 20.231a41.071 41.071 0 1 0 34.8 40.592 40.8 40.8 0 0 0 -5.617-20.694 14.446 14.446 0 0 0 5.588-22.4l-8.967-11.071a38.984 38.984 0 0 1 13.009-5.542c11.391-2.586 23.819-.014 34.1 7.052 7.783 5.349 20.973 11.725 39.616 11.725 17.932 0 30.7-5.457 38.251-10.035a27.157 27.157 0 0 1 19.607-3.578c34.588 7.176 42.442 34.907 42.94 56.907a14.506 14.506 0 0 1 -9.424 13.941 3.5 3.5 0 1 0 2.433 6.563 21.5 21.5 0 0 0 13.989-20.663c-.449-20.087-7.358-55.063-48.511-63.601zm-106.173-43.171v-16.725a18.058 18.058 0 0 1 18.038-18.038h69.55a18.058 18.058 0 0 1 18.038 18.038v16.725a4.688 4.688 0 0 1 -4.682 4.683h-96.262a4.688 4.688 0 0 1 -4.682-4.683zm81.343 25.51v-13.827h13.694v13.827a2.76 2.76 0 0 1 -2.757 2.757h-8.18a2.76 2.76 0 0 1 -2.757-2.757zm-229.014-108.247c1.33-1.83 4.485-1.907 4.5-1.908h6.805a11.665 11.665 0 0 1 9.02 4.247l59.752 72.306h-19.616zm27.263-10.619 72.466 85.26h-10.572l-63.438-76.76a18.64 18.64 0 0 0 -14.416-6.788h-6.8a13.9 13.9 0 0 0 -8.253 2.788 15.607 15.607 0 0 1 -.812-3.166c-.365-2.5 1.141-6.34 3.9-8.325h12.8a19.815 19.815 0 0 1 15.125 6.991zm-33.031 130.1v-23.249a14.6 14.6 0 0 1 14.587-14.587h22.14l29.698 37.836zm81.534 101.89a34.07 34.07 0 1 1 34.069-34.069 34.107 34.107 0 0 1 -34.069 34.069zm34.658-62.408a7.356 7.356 0 0 1 -3.479 1.652 41.326 41.326 0 0 0 -13.1-10.176c-.013-.016-.02-.035-.032-.05l-114.626-146.038c-3.424-4.361-4.143-9.422-1.973-13.884 2.253-4.633 7.215-7.634 13.142-8.031a15.889 15.889 0 0 0 -1.846 9.288 24.18 24.18 0 0 0 5.239 11.68l117.617 145.213a7.411 7.411 0 0 1 -.942 10.346zm61.09-23.591v-1.421a3.213 3.213 0 0 1 3.209-3.209h40.547a3.213 3.213 0 0 1 3.209 3.209v1.449a70.637 70.637 0 0 1 -23.915 3.975 65.756 65.756 0 0 1 -23.05-4.003z"/><path d="m152.787 276.123a3.5 3.5 0 0 0 3.5 3.5h87.52a40.987 40.987 0 1 0 -4.127-7h-83.393a3.5 3.5 0 0 0 -3.5 3.5zm124.172-54.772a34.07 34.07 0 1 1 -34.069 34.07 34.108 34.108 0 0 1 34.069-34.07z"/><path d="m276.959 282.068a26.648 26.648 0 1 0 -26.647-26.647 26.677 26.677 0 0 0 26.647 26.647zm0-44.25a17.6 17.6 0 1 1 -17.6 17.6 17.622 17.622 0 0 1 17.6-17.6z"/><path d="m110.089 231.025a24.4 24.4 0 1 0 24.394 24.4 24.423 24.423 0 0 0 -24.394-24.4zm0 40.509a16.114 16.114 0 1 1 16.111-16.113 16.132 16.132 0 0 1 -16.111 16.113z"/></g></svg>