<svg id="icons" height="512" viewBox="0 0 340 340" width="512" xmlns="http://www.w3.org/2000/svg"><path d="m215.993 67.2s.335 17.374-4.648 28.73-11.63 43.117-5.409 80.1l3.124 21.556 18.887-.09s-7.06-54.526-3.662-81.235-8.292-49.061-8.292-49.061z" fill="#8c9d78"/><path d="m223.1 197.645s1.414-34.5 31.051-44.069c12.884-4.16 20.643-10.283 25.3-15.877 0 0-2.979 14.549-18.494 25.759a29.559 29.559 0 0 0 -11.741 17.642 53.5 53.5 0 0 0 -.931 16.544z" fill="#8c9d78"/><path d="m217.69 197.509.612-38.621a58.529 58.529 0 0 1 6.06-11.279c14.643-21.215 38.529-48.609 39.032-61.017 0 0 10.164 21.649-12.591 57.656-21.4 33.87-16.634 53.4-16.634 53.4z" fill="#d3dd96"/><path d="m219.822 155.478c-.544 1.136-1.059 2.273-1.52 3.41l-.612 38.621 11.928.1c.925-17.681-5.642-33.829-9.796-42.131z" fill="#8c9d78"/><path d="m182.18 133.014s39.913 15.606 39.411 64.545h-25.936s5.032-38.017-13.475-64.545z" fill="#d3dd96"/><path d="m107.064 141.058s-22.453 5.342-22.453 31.508v41.681h90.589s2.038-46.77-13.4-63.49z" fill="#fcf2f8"/><path d="m102.979 266.962-3.809 16.183c-.643 11.812-2.2 28.222-5.936 42.705h38.406v-58.888z" fill="#fcf2f8"/><path d="m99.168 283.145c5.847.941 17.547 2.632 32.472 3.808v-19.991h-32.028s.079 6.573-.444 16.183z" fill="#d3bbbb"/><path d="m129.474 116.952v29.529c2.626 3.5 11.274 8.825 15.934 13.012a12.827 12.827 0 0 0 8.567 3.278c5.327 0 10.3-7.3 7.825-12.014-1.354-2.583-3.209-4.047-4.606-6.438s-3.261-4.7-3.261-7.453v-7.011z" fill="#ffd0d3"/><path d="m153.933 129.855v-16.517l-24.459-16.315v19.929s7.047 12.442 24.459 12.903z" fill="#e08690"/><path d="m108.674 37.824s-22.108-19.11-38.174 5.17a24.724 24.724 0 0 0 -4.045 13.652v47.315s0 17.863-5.905 21.554c0 0 36.464 5.02 36.464-23.325v-36.169z" fill="#f29a68"/><path d="m178.372 70.768s16.291-22.576 1.409-43.338c-14.27-19.907-29.949-10.922-29.949-10.922s-28.187-12.332-48.447 18.321 2.643 57.784 16.56 60.955z" fill="#ffcb8a"/><path d="m165.007 43.105c.393.709-3.039 32.7-34.473 39.776 0 0-1.944-8.309-10.253-8.309 0 0-7.955-1.061-7.955 11.491v8.242c0 6.814 7.42 11.394 13.275 7.909a8.443 8.443 0 0 0 3.873-5.191s3.889 23.512 26.163 23.512a26.164 26.164 0 0 0 26.163-26.163v-21.481a34.368 34.368 0 0 0 -15.559-29.024q-.6-.387-1.234-.762z" fill="#ffd0d3"/><path d="m121.378 134.648a13.342 13.342 0 0 1 12.265 6.166 64.544 64.544 0 0 1 10.251 34.125v20.534a11.08 11.08 0 0 0 11.132 11.027 11.079 11.079 0 0 0 11.131-11.027v-20.3a46.245 46.245 0 0 0 -1.4-11.323c-1.522-6.034-4.485-15.319-9.208-22.221l.095.232a19.615 19.615 0 0 1 15.927 7.785 50.117 50.117 0 0 1 9.854 30.651l4.627 145.549h-61.945s.2-33.241 0-49.993c0 0-14.7-.8-25.114-3.622a7.764 7.764 0 0 1 -5.759-7.482v-2.764a7.792 7.792 0 0 1 7.828-7.755h25.994l-.59-78.892s-2.166-26.878-19.266-34.28a24.371 24.371 0 0 1 14.178-6.41z" fill="#ff97bf"/><path d="m183.345 240.8h-56.389l.1 13.436h-25.994a7.822 7.822 0 0 0 -7.317 5.016c4.082 4.642 14.463 11.247 40.529 11.247h50.015z" fill="#e770a2"/><path d="m127.173 223.689.059 1.336a6.933 6.933 0 0 0 6.915 6.427h25.543v27.383s-45.894 3.347-56.462-4.6c-4.693-3.528-6.742-12.558-7.595-21.146 8.931-5.256 19.806-7.904 31.54-9.4z" fill="#ffd0d3"/><path d="m244.684 288.4h-46.709a14.229 14.229 0 0 1 -14.206-13.417l-.256-4.487a101.786 101.786 0 0 0 -2.19-38.32l-2.144-37.532a2.594 2.594 0 0 1 2.589-2.742h79.123a2.594 2.594 0 0 1 2.59 2.742l-4.59 80.339a14.23 14.23 0 0 1 -14.207 13.417z" fill="#ebf6ff"/><path d="m181.816 240.8 1.7 29.7h8.77s26.557 2.337 24.189-29.7z" fill="#b4cde0"/><path d="m155.472 220.57 4.218 38.265h38.745a18.036 18.036 0 0 0 18.037-18.035v-2.41a15.493 15.493 0 0 0 -14.665-15.471 8.34 8.34 0 0 1 -7.586-6.084 9.26 9.26 0 0 0 -8.918-6.768 9.259 9.259 0 0 0 -9.018 7.155l-1 4.271z" fill="#93c3fc"/><g fill="#e08690"><path d="m159.637 105.089a20.108 20.108 0 0 1 -10.662-3.107 3 3 0 0 1 3.4-4.944 13.679 13.679 0 0 0 14.435-.08 3 3 0 0 1 3.138 5.114 19.468 19.468 0 0 1 -10.311 3.017z"/><circle cx="169.396" cy="82.184" r="3.899"/><circle cx="155.631" cy="82.184" r="3.899"/><path d="m126.757 214.247h-31.526a133.2 133.2 0 0 0 .4 18.841l31.54-9.4z"/></g><path d="m244.684 288.4a14.23 14.23 0 0 0 14.207-13.417l4.59-80.339a2.594 2.594 0 0 0 -2.59-2.742h-21.137l-3.892 83.258s-.158 8.038-5.548 13.24z" fill="#b4cde0"/><rect fill="#697cb7" height="40.668" rx="14.315" width="28.63" x="248.074" y="216.017"/><path d="m60.071 128.983a52.745 52.745 0 0 0 6.651.381c7.034 0 18.12-1.2 25.7-7.808 5.366-4.678 8.087-11.193 8.087-19.366v-5.56a3.5 3.5 0 0 0 -7 0v5.56c0 6.137-1.856 10.741-5.672 14.077-5.812 5.078-14.89 6.06-20.846 6.086 2.771-6.714 2.959-16.015 2.959-18.391v-47.316a21.144 21.144 0 0 1 3.464-11.72c6.293-9.51 14.2-12.716 23.534-9.6-6.424 10.808-8.53 22.281-6.077 33.344a44.378 44.378 0 0 0 18.009 26.765 12.684 12.684 0 0 0 6.362 9.854 11.963 11.963 0 0 0 10.729.657v25.554a16.637 16.637 0 0 0 -4.867-.339 27.922 27.922 0 0 0 -15.617 6.714c-4.2 1.306-24.379 8.93-24.379 34.693v41.681a3.5 3.5 0 0 0 3.5 3.5h6.974c-.193 7.6.051 24.128 5.163 33.84a11.269 11.269 0 0 0 -7.014 10.4v2.764a11.274 11.274 0 0 0 6.278 10.068c-.329 11.773-1.585 32.4-6.168 50.154a3.5 3.5 0 1 0 6.779 1.749c4.529-17.551 5.921-37.662 6.333-49.974a159.575 159.575 0 0 0 17.682 2.371c.14 17.247-.029 46.4-.031 46.708a3.5 3.5 0 0 0 3.479 3.521h.021a3.5 3.5 0 0 0 3.5-3.48c0-.332.194-33.463 0-50.054a3.5 3.5 0 0 0 -3.309-3.454c-.144-.008-14.463-.817-24.39-3.5a4.278 4.278 0 0 1 -3.174-4.1v-2.764a4.3 4.3 0 0 1 4.328-4.254h.925c.057 0 .111-.015.168-.017 7.162 4.334 23.257 5.347 36.721 5.347 10.1 0 40.822-.73 40.822-.73l2.854 63.672a3.5 3.5 0 0 0 3.494 3.343h.159a3.5 3.5 0 0 0 3.34-3.653l-1.657-36.965a17.633 17.633 0 0 0 10.087 3.175h46.709a17.741 17.741 0 0 0 17.7-16.719l.86-15.043a17.821 17.821 0 0 0 16.96-17.772v-12.05a17.844 17.844 0 0 0 -14.259-17.457l1.187-20.771a3.5 3.5 0 0 0 -3.5-3.7h-11.95a50.455 50.455 0 0 1 .951-6.57 26 26 0 0 1 10.37-15.54c16.431-11.872 19.74-27.246 19.873-27.894a3.5 3.5 0 0 0 -6.119-2.941c-5.39 6.477-13.358 11.452-23.683 14.785-.791.256-1.558.553-2.327.847.94-1.622 1.937-3.277 3.01-4.975 23.509-37.2 13.249-60.058 12.8-61.012a3.5 3.5 0 0 0 -6.654 1.346c-.321 7.908-13.34 25.267-24.827 40.583-4.681 6.241-9.52 12.693-13.588 18.588a62.1 62.1 0 0 0 -6.5 12.169 68.96 68.96 0 0 0 -8.056-10.931c-.166-24.973 4.708-42.868 7.629-49.524a57.145 57.145 0 0 0 3.737-13.753 84.429 84.429 0 0 1 2.525 32.241c-.459 3.613-.756 7.9-.881 12.752a3.5 3.5 0 0 0 7 .181c.119-4.615.4-8.669.828-12.05 3.5-27.483-8.166-50.177-8.664-51.13a3.5 3.5 0 0 0 -6.6 1.688c0 .167.255 16.756-4.353 27.258-3.79 8.638-7.536 25.619-8.137 45.626a64.335 64.335 0 0 0 -16.549-10.394 3.5 3.5 0 0 0 -4.145 5.262c12.457 17.856 13.7 41.653 13.434 53.389h-13.731a3.5 3.5 0 0 0 -3.494 3.7l.374 6.547a3.5 3.5 0 1 0 6.988-.4l-.162-2.847h77.2l-1 17.454a17.842 17.842 0 0 0 -14.361 17.473v12.037a17.831 17.831 0 0 0 11.72 16.719l-.9 15.7a10.737 10.737 0 0 1 -10.703 10.112h-46.709a10.738 10.738 0 0 1 -10.711-10.109l-.559-12.459h11.73a21.561 21.561 0 0 0 21.537-21.532v-2.411a18.992 18.992 0 0 0 -17.972-18.966 4.837 4.837 0 0 1 -4.4-3.531 12.76 12.76 0 0 0 -24.715.533l-.335 1.435-16.907-.786a3.5 3.5 0 0 0 -3.642 3.879l.772 7h-18.626a3.446 3.446 0 0 1 -3.424-3.182l-.757-49.454c0-.085 0-.17-.011-.255-.086-1.069-2.1-23.948-16.375-34.355a19.575 19.575 0 0 1 8.069-2.569 9.824 9.824 0 0 1 9.043 4.558c3.623 5.685 9.7 17.435 9.7 32.244v20.534a14.632 14.632 0 0 0 29.263 0v-20.3a49.8 49.8 0 0 0 -1.507-12.174 91.914 91.914 0 0 0 -5.683-16.212 15.878 15.878 0 0 1 6.306 4.968 46.421 46.421 0 0 1 9.1 26.058 3.5 3.5 0 0 0 6.993-.319 53.4 53.4 0 0 0 -10.494-29.947 23.2 23.2 0 0 0 -16.5-9.045 4.177 4.177 0 0 1 -.427-1.635v-12.89a29.7 29.7 0 0 0 27.868-29.6v-21.487a39.64 39.64 0 0 0 -.523-6.327c4.121-8.632 9.216-25.313-2.152-41.173-13.203-18.403-28.105-14.571-32.936-12.652-6.233-2.059-30.122-7.814-48.691 16.6-8.377-3.31-22.3-5.1-33.427 11.719a28.123 28.123 0 0 0 -4.626 15.584v47.318c-.007 7.7-1.721 17-4.26 18.588a3.5 3.5 0 0 0 1.378 6.435zm195.158 27.923a69.888 69.888 0 0 0 13.708-6.008 47.825 47.825 0 0 1 -10.029 9.723 32.992 32.992 0 0 0 -13.115 19.747 57.56 57.56 0 0 0 -1.134 8.037h-7.268c.506-5.81 2.308-14.793 7.715-26.5a37.979 37.979 0 0 1 10.123-4.999zm-27.987-7.306c3.991-5.781 8.788-12.178 13.428-18.364 8.4-11.2 16.511-22.015 21.434-31 0 9.357-2.657 23.783-14.259 42.143-12.914 20.435-16.739 35.953-17.481 46.027h-5.676a75.027 75.027 0 0 0 -5.308-21.826 56.917 56.917 0 0 1 7.862-16.98zm-35.8-7.273c9.947 7.162 23.672 21.35 26.231 46.081h-17.928c.27-11.632-.857-29.598-8.304-46.084zm60.132 100.045v-12.04a10.816 10.816 0 0 1 21.631 0v12.037a10.816 10.816 0 1 1 -21.631 0zm-76.447-17.381a3.487 3.487 0 0 0 3.57-2.7l1-4.271a5.76 5.76 0 0 1 11.156-.24 11.833 11.833 0 0 0 10.77 8.637 11.992 11.992 0 0 1 11.352 11.975v2.408a14.553 14.553 0 0 1 -14.537 14.536h-35.61l-3.428-31.079zm-40.979 9.964h19.389l2.274 20.626c-17.523 1-44.012.722-50.479-4.141-5.634-4.237-7.089-21.68-6.751-33.69h24.61l.551 7.534a10.474 10.474 0 0 0 10.405 9.668zm-11.18-59.438.264 35.233h-35.121v-38.184c0-20.171 14.62-26.433 18.734-27.8 13.52 6.89 15.955 28.996 16.122 30.748zm10.177-40.5a22.218 22.218 0 0 1 -.17-2.63v-19.28a27.577 27.577 0 0 0 17.459 10.506v13.253a12.736 12.736 0 0 0 2.1 6.546 3.55 3.55 0 0 0 .232.339c.02.032.035.065.056.1a55.781 55.781 0 0 1 5.683 11.6c-.886 2.089-2.886 3.828-4.528 3.828a9.3 9.3 0 0 1 -6.227-2.381c-1.515-1.362-3.008-2.823-4.444-4.339a71.474 71.474 0 0 0 -6.709-13.619 17.054 17.054 0 0 0 -3.453-3.923zm29.513 60.456a7.632 7.632 0 0 1 -15.263 0v-20.534a62.193 62.193 0 0 0 -.913-10.5 16.312 16.312 0 0 0 7.494 1.83 10.941 10.941 0 0 0 7.062-2.8c.116.436.226.856.324 1.242a42.831 42.831 0 0 1 1.3 10.466zm15.642-101.101a22.689 22.689 0 0 1 -22.664 22.663c-18.972 0-22.568-19.752-22.71-20.583a3.5 3.5 0 0 0 -3.261-2.923c-.065 0-.129-.006-.194-.006a3.5 3.5 0 0 0 -3.368 2.554 4.974 4.974 0 0 1 -7.4 3.123 5.583 5.583 0 0 1 -2.879-4.895v-8.242c0-3.453.7-6.011 1.983-7.2a3.047 3.047 0 0 1 2.011-.821 1.7 1.7 0 0 0 .461.03c5.277 0 6.707 5.058 6.846 5.606a3.5 3.5 0 0 0 4.5 2.528c25.247-8.275 33.3-27.52 35.795-37.141a30.881 30.881 0 0 1 10.88 23.826zm-29.871-74.658a3.558 3.558 0 0 0 3.12-.156c.535-.3 13.24-7.035 25.387 9.911 6.577 9.176 6.326 18.838 4.394 26.263a36.9 36.9 0 0 0 -13.2-14.814q-.651-.417-1.337-.823a3.5 3.5 0 0 0 -5.27 2.686c-.1 1.067-2.735 25.367-29.019 35.675a13.637 13.637 0 0 0 -12.062-7.383 9.994 9.994 0 0 0 -7.169 2.457c-2.951 2.583-4.446 6.8-4.446 12.533v.395a38.082 38.082 0 0 1 -11.119-19.307c-2.217-10 .064-20.507 6.6-30.392 18.315-27.716 43.092-17.49 44.121-17.045z" fill="#3e3e54"/></svg>