<svg id="icons" height="512" viewBox="0 0 340 340" width="512" xmlns="http://www.w3.org/2000/svg"><path d="m179.473 150.979s18.415 27.9-5.4 48.966l75.617 115.785s17.875 18.636 40.385 9.861l-85.912-128.6s13.862-30.354-8.862-57.226z" fill="#8c9ec3"/><path d="m181.728 153.295 17.034-11.655a4.671 4.671 0 0 0 1.083-6.681l-12.532-16.508-25.549 16.7 13.668 17.194a4.672 4.672 0 0 0 6.296.95z" fill="#3e3e54"/><path d="m177.389 134.309 11.812-9.593a7.208 7.208 0 0 0 1.28-9.843l-68.348-93.728-25.902 1.755c14.446 33.222 29.008 64.722 44.54 81.862 13.293 20.619 25.729 32.76 36.618 29.547z" fill="#fe7d87"/><path d="m150.788 182.33s21.047 13.412 40.111 1.48a19.62 19.62 0 0 1 20.886-.023l104.861 66.107s18.92 17.573 10.508 40.221l-125.247-80.793a11.207 11.207 0 0 0 -9.447-1.275c-9.534 3-31.92 7.241-52.632-9.711z" fill="#e4efff"/><path d="m153.141 184.548-11.38 17.219a4.672 4.672 0 0 1 -6.663 1.19l-16.707-12.265 16.289-25.814 17.411 13.39a4.672 4.672 0 0 1 1.05 6.28z" fill="#3e3e54"/><path d="m128.858 187.169c-18.615 1.444-80.225-40.881-106.237-79.119l24.615-11.489 91.749 65.52c3.345 2.39-10.127 25.088-10.127 25.088z" fill="#fe7d87"/><circle cx="200.4" cy="195.146" fill="#8c9ec3" r="3.899"/><path d="m169.38 140.814 8.009-6.5c-3.125-1.538-6.664-4.313-10.337-9.152l-54.88-73.969s-12.755-16.793 9.961-30.048l-.558-.765a20.321 20.321 0 0 0 -28.6-4.293 20.321 20.321 0 0 0 -4.166 28.34l70.228 95.073a7.209 7.209 0 0 0 10.343 1.314z" fill="#c94f59"/><path d="m19.278 126.536 95.586 67.381a7.209 7.209 0 0 0 9.821-1.438l4.173-5.31a35.979 35.979 0 0 1 -8-4.362l-74.688-53.893s-17.632-12.434 1.066-32.353l-4.436-3.171a20.321 20.321 0 1 0 -23.517 33.146z" fill="#c94f59"/><path d="m319.027 247.329a3.6 3.6 0 0 0 -.515-.4l-104.86-66.106a22.484 22.484 0 0 0 -1.983-1.1 57.61 57.61 0 0 0 -9.43-36.54 8.14 8.14 0 0 0 .395-10.344l-7.828-10.312a10.692 10.692 0 0 0 -1.5-9.72l-68.906-94.489a23.821 23.821 0 1 0 -38.4 28.189l70.227 95.074a10.618 10.618 0 0 0 7.264 4.261 11.065 11.065 0 0 0 1.379.087c.322 0 .642-.016.959-.045l6.868 8.64a8.175 8.175 0 0 0 6.314 3.072 42.776 42.776 0 0 1 3.6 13.189 3.5 3.5 0 0 0 3.479 3.164 3.252 3.252 0 0 0 .34-.017 3.5 3.5 0 0 0 3.147-3.819 49.658 49.658 0 0 0 -4.08-15.151l11.121-7.609a50.528 50.528 0 0 1 8.174 30.214 23.331 23.331 0 0 0 -15.744 3.277c-11.966 7.489-25.1 3.7-31.647.914a8.166 8.166 0 0 0 -3.17-6.264l-8.754-6.733a10.8 10.8 0 0 0 -.075-2.332 10.618 10.618 0 0 0 -4.377-7.2l-96.196-68.688a23.821 23.821 0 1 0 -27.568 38.859l95.587 67.381a10.68 10.68 0 0 0 9.744 1.34l10.434 7.661a8.138 8.138 0 0 0 10.328-.552 57.42 57.42 0 0 0 35.786 8.881l67.62 103.537a3.613 3.613 0 0 0 .4.509c.641.667 13.026 13.32 30.536 13.32a37.292 37.292 0 0 0 13.646-2.622 3.5 3.5 0 0 0 1.638-5.2l-60.343-90.345 92.619 59.745a3.5 3.5 0 0 0 5.179-1.722c9.122-24.556-10.565-43.222-11.408-44.004zm-157.174-109.907-70.227-95.075a16.861 16.861 0 0 1 3.447-23.458 16.681 16.681 0 0 1 10.043-3.36 17.106 17.106 0 0 1 2.536.19 16.7 16.7 0 0 1 11.094 6.723l68.907 94.494a3.706 3.706 0 0 1 -.653 5.064l-19.821 16.1a3.709 3.709 0 0 1 -5.321-.675zm10.528 5.463 17.993-14.614 6.684 8.8a1.174 1.174 0 0 1 -.272 1.677l-17.033 11.654a1.177 1.177 0 0 1 -1.581-.238zm-55.5 48.171-95.587-67.381a16.821 16.821 0 1 1 19.467-27.437l96.189 68.692a3.708 3.708 0 0 1 .761 5.309l-15.777 20.077a3.707 3.707 0 0 1 -5.053.74zm21.96 8.781a1.173 1.173 0 0 1 -1.672.3l-8.909-6.537 14.321-18.225 7.377 5.674a1.176 1.176 0 0 1 .263 1.574zm79.675 24.936 66.054 98.879c-17.009 4.012-30.253-8.269-32.143-10.133l-65.6-100.447a62.169 62.169 0 0 0 6.685-1.687 7.691 7.691 0 0 1 6.5.878l18.114 11.685a3.421 3.421 0 0 0 .39.825zm106.61 59.868-121.321-78.26a14.664 14.664 0 0 0 -12.4-1.672c-9.095 2.864-26.6 5.839-43.969-5.185l7.427-11.237c7.824 3.288 23.352 7.591 37.89-1.51a16.217 16.217 0 0 1 17.164-.029l104.559 65.916c1.914 1.878 14.389 14.919 10.65 31.977z" fill="#3e3e54"/></svg>