<svg id="icons" height="512" viewBox="0 0 340 340" width="512" xmlns="http://www.w3.org/2000/svg"><path d="m134.263 220.179c19.007-11.272 52.354-34.909 69.216-69.89a14.336 14.336 0 0 1 22.294-4.48c29.163 25.263 89.892 85.841 102.923 161.775a16.378 16.378 0 0 1 -16.481 19.151c-37.319-.84-122.636-11.405-181.9-85.229a14.366 14.366 0 0 1 3.948-21.327z" fill="#e4efff"/><path d="m252.09 219.39a7.8 7.8 0 0 0 5.484-12.422 385.521 385.521 0 0 0 -25.409-29.646 16.751 16.751 0 0 0 -25.6 1.3c-10.6 13.945-23.8 27.087-29.074 32.175-47.561 34.071 26.3 76.374 57.464 85.961a5.445 5.445 0 0 0 4.893-9.554c-4.4-3.321-9.1-7.163-13.752-11.449a25.79 25.79 0 0 1 -7.758-12.981c-1.453-6.2-.793-13.81 4.266-22.816 8.388-14.93 20.196-19.542 29.486-20.568z" fill="#8c9ec3"/><path d="m134.923 146.768a134.111 134.111 0 0 1 18.94 16.482 46.339 46.339 0 0 1 11.908 22.111c1.708 8.133 15.385 29.457 39.279 44.079 5.938 3.634 12.058-4.5 6.925-9.208-13.248-12.139-26.967-27.738-31.237-43.173a50.02 50.02 0 0 0 -6.152-13.54c-6.279-9.829-17.057-23.993-30.165-30.187z" fill="#8c9ec3"/><path d="m111.063 134.259a50.7 50.7 0 0 0 16.946 13.941 12.12 12.12 0 0 0 12.408-.741 24.879 24.879 0 0 0 6.835-7.039 12.208 12.208 0 0 0 -.032-13.038c-3.422-5.5-9.524-13.324-18.088-16.75z" fill="#3e3e54"/><path d="m75.851 51.793c-5.056-12.48-16.62-31.572-41.27-37.922-14.131-3.641-26.854 9.673-22.72 23.668a75.107 75.107 0 0 0 3.423 9.307s11.5 23.032 38.066 33.349c6.975 2.708 14.187 9.326 17.023 16.249 5.036 12.292 15.883 28.16 40.69 31.982 20.774 3.2 16.791-29.7 12.208-36.288-6.7-9.636-16.819-18.766-32.057-25.006a27.981 27.981 0 0 1 -15.363-15.339z" fill="#fe7d87"/><path d="m123.271 92.138c-.809 11.223-4.98 21.671-18.451 18.492-14.122-3.332-22.36-13.539-27-22.483a32.161 32.161 0 0 0 -22.672-16.864c-21.548-4.033-33.372-14.417-39.862-24.438 6 13.454 17.274 27.667 38.359 36.3a27.946 27.946 0 0 1 15.3 15.225c5.036 12.292 16.487 31.046 40.745 37.492a18.983 18.983 0 0 0 23.095-24.011 71.085 71.085 0 0 0 -9.514-19.713z" fill="#c94f59"/><path d="m52.319 86.384a24.582 24.582 0 0 1 13.381 13.316c4.824 11.775 16.836 32.572 43.085 39.548a23.452 23.452 0 0 0 2.315.481 56.479 56.479 0 0 0 15.3 11.58 15.689 15.689 0 0 0 7.216 1.764 15.486 15.486 0 0 0 3.391-.377 131.274 131.274 0 0 1 14.311 12.96 42.8 42.8 0 0 1 11.028 20.429 31.06 31.06 0 0 0 2.878 7.328 218.683 218.683 0 0 1 -32.746 23.758 17.951 17.951 0 0 0 -8.512 12.237 17.758 17.758 0 0 0 3.617 14.293c26.162 32.587 60.052 56.5 100.73 71.086a269.719 269.719 0 0 0 83.824 15.45h.453a19.879 19.879 0 0 0 19.556-23.247c-5.764-33.584-21.255-67.69-46.046-101.37a391.948 391.948 0 0 0 -58.039-62.456 17.819 17.819 0 0 0 -15.387-4.009 17.538 17.538 0 0 0 -12.351 9.615 124.193 124.193 0 0 1 -12.6 20.526 3.5 3.5 0 1 0 5.6 4.2 131.139 131.139 0 0 0 13.307-21.69 10.59 10.59 0 0 1 7.462-5.8 10.869 10.869 0 0 1 9.387 2.445c26.26 22.748 88.745 83.848 101.765 159.72a12.876 12.876 0 0 1 -12.952 15.061c-34.258-.772-120.3-10.491-179.252-83.921a10.752 10.752 0 0 1 -2.188-8.66 10.949 10.949 0 0 1 5.195-7.466 226.422 226.422 0 0 0 32.793-23.632 111.133 111.133 0 0 0 34.38 32.868 9.315 9.315 0 0 0 4.877 1.4 9.342 9.342 0 0 0 6.241-16.175c-16.423-15.047-26.876-29.406-30.228-41.524a53.519 53.519 0 0 0 -6.576-14.492c-5.453-8.537-14.17-20.159-24.926-27.568a16.021 16.021 0 0 0 -2.418-8.536c-2.864-4.6-7.647-10.924-14.23-15.232-4.774-15.124-16.179-35.248-43.421-46.407a24.606 24.606 0 0 1 -13.445-13.409c-4.858-11.99-16.987-33.13-43.641-40a22.005 22.005 0 0 0 -21.553 6.131 22.171 22.171 0 0 0 -5.4 21.921c4.589 15.524 15.912 36.429 43.819 47.854zm119.318 79.016a46.548 46.548 0 0 1 5.728 12.59c3.756 13.577 14.6 28.657 32.246 44.819a2.292 2.292 0 0 1 -2.734 3.643c-23.147-14.165-36.154-34.543-37.68-41.812a49.809 49.809 0 0 0 -12.789-23.8 136.038 136.038 0 0 0 -12.54-11.625 28.244 28.244 0 0 0 6.326-6.907q.3-.463.56-.944c8.846 6.776 16.151 16.636 20.883 24.036zm-27.389-36.175a8.729 8.729 0 0 1 .061 9.295 21.337 21.337 0 0 1 -5.877 6.051 8.573 8.573 0 0 1 -8.815.515 50.07 50.07 0 0 1 -8.872-5.889 22.545 22.545 0 0 0 16.28-19.077 49.23 49.23 0 0 1 7.223 9.108zm-125.309-107.754a15.117 15.117 0 0 1 10.923-4.7 15.411 15.411 0 0 1 3.846.492c22.5 5.795 33.57 22.693 38.9 35.847a31.65 31.65 0 0 0 17.28 17.261c25.022 10.248 35.319 28.773 39.55 42.509a15.482 15.482 0 0 1 -18.851 19.6c-22.156-5.888-33.114-22.519-38.406-35.436a31.616 31.616 0 0 0 -17.21-17.137c-25.336-10.373-35.6-29.3-39.754-43.359a15.251 15.251 0 0 1 3.722-15.077z" fill="#3e3e54"/></svg>