<svg id="icons" height="512" viewBox="0 0 340 340" width="512" xmlns="http://www.w3.org/2000/svg"><path d="m250.589 249.762s-13.222 61.423 41.009 81.654c0 0-40.941 10.518-57.667-27.437 0 0-5.756-14.6-6.216-28.154a17.736 17.736 0 0 0 -16.123-16.982c-.144-.013-.29-.025-.436-.036 0 0 23.778-10.007 39.433-9.045z" fill="#8c9ec3"/><path d="m314.623 279.52q5.5 7.11 11.474 14.211s-42.035 15.4-79.279-28.076l15.639-17.111z" fill="#e4efff"/><g fill="#8c9ec3"><path d="m314.624 279.519a272.882 272.882 0 0 1 -21.837-32.319l-30.33 1.343c12.235 27.219 39.777 30.807 52.167 30.976z"/><path d="m284.368 261.554-21.911-13.01-27.27 1.207a133.936 133.936 0 0 0 11.634 15.9z"/><path d="m252.76 153.016s6.984 42.283 25.132 79.413l-35.543-9.59a142.46 142.46 0 0 0 -13.349-12.662 12.589 12.589 0 0 1 -1.805-17.595c3.617-4.5 6.6-10.018 5.485-15.172-2.427-11.186-27.807-20.792-27.807-20.792z"/></g><path d="m292.787 247.2s-14.477-31.309-38.581-38.5c-14.94-4.46-21.792 4.08-24.843 11.217a12.8 12.8 0 0 1 -15.281 7.4c-.091-.026-.182-.053-.272-.081a16.15 16.15 0 0 0 -14.292 2.7 36.125 36.125 0 0 1 -3.022 2.019l-10.914 15.579 9.625 13.749c22.493-3.531 63.432-9.783 97.58-14.083z" fill="#e4efff"/><path d="m252.643 158.9-46.179 3.31a18.93 18.93 0 0 1 -20.238-18.31c-.587-17.319-5.52-43.244-26.131-66.489-10.238-11.55-18.595-20.494-25.365-27.731 10.142-10.31 22.6-9.222 37.493 3.836l38.343 62.842c9.026 9.382 20.271 15.145 35.329 14.683l6.028.118a13.89 13.89 0 0 1 13.617 13.829 13.89 13.89 0 0 1 -12.897 13.912z" fill="#fe7d87"/><circle cx="251.483" cy="231.209" fill="#8c9ec3" r="8.409"/><path d="m200.433 86.064a200.219 200.219 0 0 0 -22.311-36.324c-6.523-8.434-14.715-18.492-24.047-28.8-8.693-9.606-16.961-13.062-23.967-13.57-12.564-.909-20.129 13.652-12.284 23.507 3.982 5 9.493 10.882 16.906 18.807 11.47-4.276 35.762-6.614 48.713 27.694 9.2 24.379 21.191 39.974 29.1 48.4a21.924 21.924 0 0 0 18.191 6.8l15.163-1.528a31.222 31.222 0 0 1 -20.789-8.272c-10.732-10.078-19.343-25.533-24.675-36.714z" fill="#c94f59"/><path d="m178.322 263.967s6.467-1.05 16.885-2.685c-2.412-12.978-.8-22.861 1.286-29.333a31.371 31.371 0 0 1 -21.934 4.069z" fill="#8c9ec3"/><path d="m180.448 238.1 3.706 27.692a8.083 8.083 0 0 1 -8.723 9.124 13.785 13.785 0 0 1 -8.717-4.173c-4.017-4.17-10.353-11.1-13.992-16.869-49.579-9.747-84.543-43.8-65.367-54.36 13.037 10.892 34.578 21 68.928 18.729a22.912 22.912 0 0 1 24.165 19.857z" fill="#fe7d87"/><path d="m89.245 216.488c-4.272-7.363-4.173-12.869-1.886-16.98a69 69 0 0 1 -11.369-12.052 37.97 37.97 0 0 0 -28.056-15.376 112.692 112.692 0 0 0 -19.951.475 15.9 15.9 0 0 0 -14.08 15.9v1.4a15.941 15.941 0 0 0 16.657 15.858l.251-.011a49.856 49.856 0 0 1 40.64 17.961c29.865 36.089 81.271 30.21 81.271 30.21l-3.928-5.949a13 13 0 0 0 -9.47-5.779c-11.97-1.267-38.814-6.245-50.079-25.657z" fill="#c94f59"/><path d="m226.145 218.537a9.3 9.3 0 0 1 -11.087 5.414l-.224-.066a19.71 19.71 0 0 0 -17.4 3.24 28.686 28.686 0 0 1 -14.6 5.767 26.476 26.476 0 0 0 -26.774-18.143c-46.195 3.047-68.219-17.086-77.239-29.36a41.607 41.607 0 0 0 -31-16.825 116.206 116.206 0 0 0 -20.218.512 19.357 19.357 0 0 0 -17.203 19.392l.006 1.4a19.47 19.47 0 0 0 20.4 19.337l.152-.006a46.968 46.968 0 0 1 37.9 16.829c27.563 33.159 71.7 32.232 82.087 31.511a136.321 136.321 0 0 0 13.241 15.632 17.3 17.3 0 0 0 10.93 5.23c.347.03.692.046 1.036.046a11.557 11.557 0 0 0 11.518-12.434c5.9-.937 14.054-2.219 23.6-3.685a14.219 14.219 0 0 1 12.942 13.617c.475 14 6.214 28.7 6.458 29.318.017.043.035.085.054.127 11.532 26.17 34.022 30.783 48.441 30.783a60.28 60.28 0 0 0 13.3-1.367 3.5 3.5 0 0 0 .352-6.669c-20.575-7.676-33.425-22.383-38.193-43.713a3.5 3.5 0 1 0 -6.831 1.527c4.3 19.223 14.963 34.014 31.122 43.37h-.169c-12.5 0-31.593-4.086-41.586-26.683-.388-1.006-5.533-14.581-5.952-26.932a21.089 21.089 0 0 0 -7.378-15.289c4.183-.631 8.528-1.28 12.982-1.938 20.605 29.056 43.788 38.1 59.709 40.542a74.425 74.425 0 0 0 11.256.859 61.27 61.27 0 0 0 19.519-2.863 3.5 3.5 0 0 0 1.477-5.536c-4.071-4.851-7.9-9.591-11.375-14.088l-.01-.015a267.568 267.568 0 0 1 -21.5-31.8c-.863-1.832-8.283-17.081-21.094-28.657a338.053 338.053 0 0 1 -16.867-55.67 17.382 17.382 0 0 0 -5.937-33.59l-6.03-.119a27.634 27.634 0 0 1 -18.461-7.324c-10.329-9.694-18.7-24.743-23.91-35.66a204.227 204.227 0 0 0 -22.7-36.958c-7.929-10.251-16.078-20.012-24.221-29.012-8.23-9.094-17.082-14.044-26.31-14.712a17.669 17.669 0 0 0 -17.11 9.512 17.825 17.825 0 0 0 1.836 19.666c4.013 5.04 9.364 10.761 16.769 18.678 6.8 7.264 15.252 16.305 25.621 28 19.828 22.361 24.676 47.3 25.252 64.286a22.368 22.368 0 0 0 7.444 16.009 22.132 22.132 0 0 0 14.9 5.734q.817 0 1.642-.058l8.09-.58c8.385 4.591 13.651 9.335 14.453 13.032.885 4.079-2.118 8.906-4.793 12.237a15.976 15.976 0 0 0 -2.585 15.552 3.5 3.5 0 0 0 6.583-2.381 9.029 9.029 0 0 1 1.459-8.787c5.28-6.573 7.357-12.665 6.177-18.106-.9-4.137-4.111-8.284-9.574-12.387l24.521-1.758a356.162 356.162 0 0 0 13.3 46.757 44.4 44.4 0 0 0 -9.142-3.937c-13.196-3.945-23.788.865-29.056 13.192zm-19.931-59.819a15.215 15.215 0 0 1 -11.36-3.9 15.422 15.422 0 0 1 -5.13-11.041c-.615-18.135-5.8-44.774-27.011-68.7-10.43-11.762-18.922-20.842-25.745-28.135-7.3-7.8-12.567-13.435-16.4-18.256a10.933 10.933 0 0 1 -1.121-12.041 10.593 10.593 0 0 1 9.552-5.827c.284 0 .571.01.861.032 7.369.533 14.645 4.714 21.625 12.426 8.023 8.867 16.055 18.488 23.874 28.6a197.229 197.229 0 0 1 21.919 35.69c5.466 11.459 14.316 27.31 25.438 37.75a33.254 33.254 0 0 0 5.24 4.01l-7.393.745a3.5 3.5 0 0 0 .346 6.983 3.551 3.551 0 0 0 .356-.018l24.779-2.5 5.816.115a10.389 10.389 0 0 1 .538 20.75zm-26.758 111.312a4.564 4.564 0 0 1 -3.717 1.4 10.3 10.3 0 0 1 -6.5-3.113c-3.534-3.67-10-10.668-13.552-16.31-.009-.013-.02-.025-.029-.039l-.011-.022-7.462-11.3a3.5 3.5 0 1 0 -5.841 3.857l4.085 6.186c-14 .214-49.718-2.113-72.177-29.134a53.891 53.891 0 0 0 -43.569-19.348l-.181.008a12.457 12.457 0 0 1 -9.24-3.445 12.294 12.294 0 0 1 -3.849-8.929l-.006-1.4a12.368 12.368 0 0 1 10.969-12.4 108.953 108.953 0 0 1 18.993-.484 34.623 34.623 0 0 1 25.808 13.984c9.2 12.521 30.637 32.529 73.635 32.527q4.677 0 9.706-.327a19.439 19.439 0 0 1 20.465 16.829l3.706 27.692a4.558 4.558 0 0 1 -1.233 3.768zm117.771 22.015c-20.031-3.178-37.706-14.848-52.6-34.712 5.631-.819 11.376-1.643 17.141-2.452 13.525 23.717 38.986 27.643 51.107 28.092q3.324 4.26 7 8.746a65.537 65.537 0 0 1 -22.648.326zm-27.912-38.212c7.316-1.006 14.583-1.974 21.6-2.867a263.493 263.493 0 0 0 16.3 24.574c-12.015-1.395-27.924-6.36-37.9-21.707zm18.027-9.467c-37.4 4.815-81.026 11.6-100.556 14.7l-2.586-19.291a36.185 36.185 0 0 0 17.4-7.031 12.716 12.716 0 0 1 11.227-2.152l.267.08a16.3 16.3 0 0 0 19.483-9.383c3.926-9.187 10.672-12.209 20.623-9.239 17.11 5.107 29.327 23.782 34.142 32.316z" fill="#3e3e54"/></svg>