<svg id="icons" height="512" viewBox="0 0 340 340" width="512" xmlns="http://www.w3.org/2000/svg"><path d="m13.928 32.149 137.165 123.227c10.158-1.015 18.636-3.379 24.96-7.476l-145.661-133.979a12.281 12.281 0 0 0 -16.965.493 12.281 12.281 0 0 0 .501 17.735z" fill="#f9b9b2"/><path d="m183.253 184.268 13.358-17.46-20.558-18.908-24.96 7.476z" fill="#aa7073"/><path d="m185.566 182.148 10.367-12.227a15.808 15.808 0 0 1 14.442-5.4l34.248 5.227s-8.6 40.344-49.706 63.889l-12.265-36.188a15.811 15.811 0 0 1 2.914-15.301z" fill="#c2e1ff"/><path d="m332.945 190.188a14.566 14.566 0 0 0 -11.827-11.26l-75.742-12.6a158.227 158.227 0 0 0 -42.023-4.555 16.852 16.852 0 0 0 -5.719 1.217l-164.898-151.667a15.781 15.781 0 0 0 -21.148 23.43l167.479 150.459a17.187 17.187 0 0 0 -.564 8.731 187.817 187.817 0 0 0 13.645 41.257l29.284 78.3a11.565 11.565 0 0 1 -3.319 12.921l-.18.149a3.5 3.5 0 1 0 4.49 5.371l.182-.151a18.58 18.58 0 0 0 5.384-20.742l-8.4-22.462a159.407 159.407 0 0 0 24.972-13.96l13.267 20.344a10.783 10.783 0 0 1 1.471 8.407 21.72 21.72 0 0 1 -2.256 5.7 3.5 3.5 0 1 0 6.066 3.492 28.7 28.7 0 0 0 2.991-7.532 17.814 17.814 0 0 0 -2.409-13.889l-13.423-20.583c2.822-2.1 5.693-4.383 8.562-6.858a131.12 131.12 0 0 0 15.422-15.675l19.818 16.335a9.547 9.547 0 0 1 2.667 11.311q-.255.555-.554 1.129a3.5 3.5 0 1 0 6.2 3.255q.39-.743.722-1.468a16.554 16.554 0 0 0 -4.579-19.629l-19.969-16.465a102.35 102.35 0 0 0 15.043-29.3l22.057 7.838a8.079 8.079 0 0 1 5.414 7.689 31.436 31.436 0 0 1 -.293 3.913 3.5 3.5 0 0 0 2.984 3.949 3.645 3.645 0 0 0 .487.033 3.5 3.5 0 0 0 3.462-3.018 38.808 38.808 0 0 0 .36-4.783 15.079 15.079 0 0 0 -10.071-14.384l-22.523-8a97.246 97.246 0 0 0 2.655-24.232l21.833 3.631a7.521 7.521 0 0 1 6.124 5.791c.214 1.024.4 2.1.554 3.206a3.5 3.5 0 0 0 6.934-.963c-.171-1.264-.385-2.5-.632-3.682zm-319.556-166.898a8.782 8.782 0 0 1 14.634-6.79l163.667 150.538a17.458 17.458 0 0 0 -1.389 1.631l-7.684 10.323-166.341-149.439a8.707 8.707 0 0 1 -2.887-6.263zm173.8 161.289 8.732-11.731a9.984 9.984 0 0 1 7.678-4.075 154.659 154.659 0 0 1 36.695 3.548c-8.329 27.143-34.158 48.972-43.481 56.154a178.487 178.487 0 0 1 -11.437-35.88 10.169 10.169 0 0 1 1.809-8.016zm29.939 97.421-17.521-46.845c2.587-1.914 7.141-5.455 12.486-10.326l28.634 43.91a157.006 157.006 0 0 1 -23.599 13.261zm37.287-23.742c-2.664 2.3-5.341 4.438-7.983 6.414l-29.18-44.748c3.229-3.2 6.587-6.8 9.878-10.743l41.76 34.421a127.312 127.312 0 0 1 -14.475 14.659zm18.792-20.171-41.732-34.4a116.1 116.1 0 0 0 6.84-10.144l48.785 17.342a93.2 93.2 0 0 1 -13.893 27.205zm15.721-33.985-47.2-16.77a82.274 82.274 0 0 0 5.438-13.61l43.945 7.309a91.59 91.59 0 0 1 -2.183 23.074z" fill="#3e3e54"/></svg>