<svg id="icons" height="512" viewBox="0 0 340 340" width="512" xmlns="http://www.w3.org/2000/svg"><path d="m220.421 221.991s3.884 29.6-25.548 40.636l26.75 27.714s26.088 27.03 55.42 30.562a36.171 36.171 0 0 0 40.224-38.824c-2.492-29.439-28.582-56.467-28.582-56.467l-26.75-27.712c-12.066 29.021-41.514 24.091-41.514 24.091z" fill="#c2e1ff"/><path d="m93.135 104 150.345 155.76s11.648 11.306 21.019 7.9c3.737-9.245-7.149-21.285-7.149-21.285l-150.35-155.766z" fill="#e4efff"/><path d="m93.135 103.996 17.279 17.902 19.592-7.458-23.002-23.831z" fill="#8c9ec3"/><path d="m61.979 23.44 11.683 8.454c22.165 13.838 9.507 47.9 9.507 47.9s-34.488 11.443-47.533-11.194l-8.036-11.978s-12.011 10.185 1.192 23.865l5.79 6a41.267 41.267 0 0 0 33.158 12.692q.785-.069 1.589-.166a18.752 18.752 0 0 1 7.034.475s11.1 1.536 19.486-6.558a24.663 24.663 0 0 0 7.4-18.618 18.728 18.728 0 0 1 -.378-7.67q.124-.8.222-1.583a41.268 41.268 0 0 0 -11.517-33.586l-5.789-6c-13.204-13.673-23.808-2.033-23.808-2.033z" fill="#fe7d87"/><path d="m71.371 22.086c-.1-.064-.194-.128-.293-.191a8.765 8.765 0 0 0 -10.762 1.2l-16.5 15.929-16.506 15.924a8.765 8.765 0 0 0 -1.574 10.713c.059.1.119.2.18.3a14.169 14.169 0 0 0 21.884 2.644l12.72-12.277 12.72-12.277a14.169 14.169 0 0 0 -1.869-21.965z" fill="#3e3e54"/><path d="m109.4 92.879a6.174 6.174 0 0 0 .154-8.73l-1.888-1.956a17.864 17.864 0 0 1 -4.413-7.883 47.968 47.968 0 0 1 -10.712 15.19 40.915 40.915 0 0 1 -16.179 9.991 17.881 17.881 0 0 1 8.338 4.864l1.889 1.956a6.174 6.174 0 0 0 8.73.154l7.039-6.794z" fill="#c94f59"/><path d="m106.563 65.49a44.52 44.52 0 0 0 -12.463-36.448l-5.789-6c-9.377-9.714-18.049-8.164-22.38-6.374a3.459 3.459 0 0 0 -.777.461 12.434 12.434 0 0 0 -7.263 3.44l-33.011 31.86a12.434 12.434 0 0 0 -3.643 6.86c-.052.083-.113.156-.158.244-2.25 4.392-4.566 13.271 5.194 23.384l5.79 6a44.5 44.5 0 0 0 35.989 13.75q.835-.075 1.7-.178a14.638 14.638 0 0 1 12.434 4.3l1.887 1.956a9.657 9.657 0 0 0 10.841 2.132l120.751 125.1c-3.041 11.163-10.433 19.029-22.017 23.37a3.5 3.5 0 0 0 -1.29 5.708l26.75 27.715c1.1 1.141 27.3 27.968 57.52 31.605a39.67 39.67 0 0 0 44.129-42.593c-2.566-30.33-28.45-57.463-29.551-58.6l-26.75-27.714a3.5 3.5 0 0 0 -5.75 1.087c-3.366 8.1-8.512 14.094-15.295 17.826a3.5 3.5 0 0 0 3.375 6.133 40.324 40.324 0 0 0 16.139-16.553l23.243 24.081c.253.262 25.26 26.512 27.614 54.333a32.671 32.671 0 0 1 -36.318 35.054c-27.72-3.338-53.068-29.257-53.319-29.517l-23.245-24.083a39.881 39.881 0 0 0 20.279-22.137l19.786 20.5c.026.027.054.055.081.081.462.449 9.935 9.517 19.748 9.517a14.261 14.261 0 0 0 4.9-.842 3.5 3.5 0 0 0 2.049-1.978c4.507-11.148-7.294-24.385-7.8-24.943-.025-.028-.05-.056-.077-.083l-146.049-151.317a9.681 9.681 0 0 0 -1.747-10.909l-1.887-1.956a14.649 14.649 0 0 1 -3.859-12.576q.135-.859.239-1.696zm-26.143 11.46c-5.432 1.467-23.1 5.325-34.823-2.612a17.793 17.793 0 0 0 4.634-3.214l25.44-24.554a17.8 17.8 0 0 0 3.382-4.5c7.476 11.977 3.016 29.506 1.367 34.88zm-50.679-19.484 33.006-31.858a5.457 5.457 0 0 1 3.775-1.531 4.928 4.928 0 0 1 2.662.761l.246.162a10.453 10.453 0 0 1 4.623 7.807 10.728 10.728 0 0 1 -3.245 8.726l-25.438 24.553a10.726 10.726 0 0 1 -8.836 2.936 10.457 10.457 0 0 1 -7.634-4.894l-.149-.248a5.29 5.29 0 0 1 .99-6.414zm231.943 207.28c-5.782.657-13.131-4.968-15.729-7.462l-145.583-150.829 8.833-8.526 145.585 150.832c2.253 2.51 7.751 10.206 6.894 15.985zm-154.65-178.166a2.676 2.676 0 0 1 -.067 3.781l-14.079 13.589a2.68 2.68 0 0 1 -3.782-.067l-1.887-1.956a21.866 21.866 0 0 0 -18.308-6.388c-.5.059-1 .11-1.479.154a37.549 37.549 0 0 1 -30.332-11.639l-5.789-6a21.433 21.433 0 0 1 -3.957-5.454 17.5 17.5 0 0 0 8.3 3.364c.411.052.821.087 1.231.111 7.55 7.95 18.037 10.134 27.239 10.133a70.237 70.237 0 0 0 20.145-3.095 3.507 3.507 0 0 0 2.178-2.1c.468-1.258 11.157-30.772-5.359-47.607-.009-.408-.027-.817-.065-1.228a17.5 17.5 0 0 0 -3.069-8.419 21.408 21.408 0 0 1 5.312 4.149l5.789 6a37.545 37.545 0 0 1 10.56 30.721c-.059.485-.129.974-.207 1.47a21.6 21.6 0 0 0 5.739 18.525z" fill="#3e3e54"/></svg>