<svg id="icons" height="512" viewBox="0 0 340 340" width="512" xmlns="http://www.w3.org/2000/svg"><path d="m105.757 254.274a37.811 37.811 0 1 0 37.81 37.81 37.811 37.811 0 0 0 -37.81-37.81zm0 55.559a17.749 17.749 0 1 1 17.748-17.749 17.748 17.748 0 0 1 -17.748 17.749z" fill="#3e3e54"/><path d="m105.981 296.417c-.086 0-.171 0-.257 0a7 7 0 0 1 -6.743-7.249l2.338-64.485a7 7 0 0 1 13.991.508l-2.337 64.485a7 7 0 0 1 -6.992 6.741z" fill="#e4efff"/><path d="m218.828 269.013a16.586 16.586 0 0 1 -9.264-2.827l-67-45.068a7 7 0 0 1 7.813-11.617l67 45.068a2.6 2.6 0 0 0 4.052-2.116l1.565-64.293c.063-3.826 2.79-13.746 6.6-13.746h.117a7 7 0 0 1 6.884 7.114l-1.17 71.155a16.606 16.606 0 0 1 -16.6 16.329z" fill="#8c9ec3"/><path d="m217.656 194.007 20.575-7.269a30.616 30.616 0 0 0 20.321-26.42l6.974-86.928a16.777 16.777 0 0 1 7.274-12.521l15.557-10.6-7.4-15.616-17.882 10.339a30.62 30.62 0 0 0 -15.158 23.628l-8.206 86.855a16.776 16.776 0 0 1 -10.9 14.162l-19.518 7.2z" fill="#e4efff"/><path d="m43.7 194.323 40.2 40.377a13.069 13.069 0 0 0 13.738 3.058l89.91-32.772 2.612-74.189z" fill="#93c3fc"/><path d="m274.562 41.2 7.388 12.858a8.365 8.365 0 0 0 11.187 3.231 292.132 292.132 0 0 0 29.62-18.055 14.1 14.1 0 0 0 4.032-18.759 14.075 14.075 0 0 0 -17.753-5.689c-8.615 3.784-20.688 9.3-31.165 14.852a8.368 8.368 0 0 0 -3.309 11.562z" fill="#3e3e54"/><path d="m43.7 194.323 117.062-45.283a17.812 17.812 0 0 1 24.2 15.478l2.583 40.464 30.108-10.975v-94.433l-183.984 84.673z" fill="#697cb7"/><path d="m15.825 171.863 195.717-83.526a6.762 6.762 0 0 1 9.4 6.744l-.3 3.828a11.661 11.661 0 0 1 -7 9.8l-183.419 79.291a14.473 14.473 0 0 1 -17.458-4.735l-.15-.208a7.489 7.489 0 0 1 3.21-11.194z" fill="#93c3fc"/><path d="m24.387 192.72a18.183 18.183 0 0 0 7.225-1.507l2.834-1.225 46.973 47.178a16.56 16.56 0 0 0 15.786 4.368l-1.721 47.5a10.5 10.5 0 0 0 10.081 10.871c.14.007.278.009.416.009a10.461 10.461 0 0 0 10.489-10.114l2.027-55.922 23.839-8.69 65.275 43.905a20.1 20.1 0 0 0 31.316-16.349l1.035-62.927a34.144 34.144 0 0 0 22.079-29.217l6.973-86.928a13.211 13.211 0 0 1 5.759-9.908l6.9-4.7a11.719 11.719 0 0 0 13.116 1.32 292.837 292.837 0 0 0 29.975-18.284 17.585 17.585 0 0 0 -17.136-30.518c-8.438 3.705-20.735 9.31-31.4 14.964a11.725 11.725 0 0 0 -5.82 7.174 11.93 11.93 0 0 0 -.462 3.25l-8.627 4.988a34.179 34.179 0 0 0 -16.887 26.332l-8.2 86.856a13.335 13.335 0 0 1 -7.542 10.754 3.5 3.5 0 1 0 2.992 6.328 20.361 20.361 0 0 0 11.518-16.428l8.2-86.852a27.164 27.164 0 0 1 13.426-20.925l7.218-4.174 5.491 9.557-6.706 4.571a20.183 20.183 0 0 0 -8.793 15.133l-6.974 86.927a27.149 27.149 0 0 1 -18 23.4l-15.909 5.62v-81.974a15.123 15.123 0 0 0 2.974-7.9l.3-3.828a10.263 10.263 0 0 0 -14.26-10.236l-195.716 83.526a10.977 10.977 0 0 0 -6.287 7.155 10.857 10.857 0 0 0 1.6 9.279l.174.242a17.809 17.809 0 0 0 14.449 7.399zm252.75-157.056a4.789 4.789 0 0 1 2.374-2.93c10.473-5.554 22.6-11.081 30.932-14.739a10.585 10.585 0 0 1 10.3 18.376 286.093 286.093 0 0 1 -29.263 17.837 4.893 4.893 0 0 1 -6.5-1.89l-7.38-12.859a4.851 4.851 0 0 1 -.463-3.795zm-190.757 196.563-45.028-45.227 172.8-74.7v79.258l-117.713 42.908a9.606 9.606 0 0 1 -10.059-2.239zm23.1 57.317a3.486 3.486 0 0 1 -3.494 3.373h-.131a3.5 3.5 0 0 1 -3.371-3.624l1.821-50.239 7.1-2.588zm115.414-25.519a13.085 13.085 0 0 1 -13.372-.743l-61.046-41.061 8.134-2.965 56.815 38.215c1.04.7 4.124 1.666 6.231.348a6.379 6.379 0 0 0 3.277-5.281l1.125-46.2a3.5 3.5 0 1 0 -7-.17l-1.088 44.582-51.23-34.459 52.084-18.985 14.1-4.979-.992 60.3a13.089 13.089 0 0 1 -7.043 11.398zm-209.994-86.325a4.022 4.022 0 0 1 2.3-2.618l195.716-83.527a3.267 3.267 0 0 1 4.534 3.255l-.3 3.828a8.143 8.143 0 0 1 -4.9 6.857l-183.415 79.292a11.052 11.052 0 0 1 -13.274-3.628l-.093-.13a3.856 3.856 0 0 1 -.568-3.329z" fill="#3e3e54"/></svg>