<svg id="icons" height="512" viewBox="0 0 340 340" width="512" xmlns="http://www.w3.org/2000/svg"><path d="m141.417 77.935h17.845v139.531h-17.845z" fill="#e4efff" transform="matrix(.707 -.707 .707 .707 -60.407 149.566)"/><path d="m236.219 185.252-13.043 13.042-13.762-13.762a8.336 8.336 0 0 0 -11.788 0l-10.455 10.455a8.336 8.336 0 0 0 0 11.788l13.762 13.762-13.043 13.043a21.167 21.167 0 0 0 0 29.934l13.432 13.432 2.8 2.8 49.5 49.495 2.849-2.849a12.748 12.748 0 0 0 0-18.028l-53.7-53.7a7.231 7.231 0 0 1 0-10.226l.066-.066a7.229 7.229 0 0 1 10.225 0l62.712 62.711 2.85-2.849a12.748 12.748 0 0 0 0-18.028l-53.7-53.7a7.229 7.229 0 0 1 0-10.225 7.229 7.229 0 0 1 10.225 0l62.711 62.719 2.849-2.849a12.748 12.748 0 0 0 0-18.028l-53.7-53.7a7.231 7.231 0 0 1 0-10.226l.066-.066a7.229 7.229 0 0 1 10.225 0l62.712 62.711 2.85-2.849a12.748 12.748 0 0 0 0-18.028l-40.483-40.482-2.8-2.8-13.432-13.432a21.165 21.165 0 0 0 -29.928.001z" fill="#c2e1ff"/><path d="m111.545 96.288-19.654-19.654-12.618 12.619 15.856 15.856z" fill="#8c9ec3"/><path d="m49.116 15.2 10.952 7.633c20.742 12.447 9.584 44.181 9.584 44.181s-31.733 11.157-44.179-9.585l-7.633-10.952s-10.951 9.623 1.494 22.07l5.456 5.453a38.2 38.2 0 0 0 30.9 11.207q.724-.076 1.468-.18a17.356 17.356 0 0 1 6.684.366s10.82.068 17.541-6.653 6.652-17.54 6.652-17.54a17.361 17.361 0 0 1 -.366-6.685c.069-.495.128-.984.18-1.468a38.2 38.2 0 0 0 -11.207-30.9l-5.456-5.447c-12.446-12.45-22.07-1.5-22.07-1.5z" fill="#fe7d87"/><path d="m57.787 13.8c-.091-.058-.182-.116-.274-.172a8.113 8.113 0 0 0 -9.942 1.282l-15.014 15.009-15.014 15.013a8.113 8.113 0 0 0 -1.281 9.942c.056.092.113.183.171.274a13.116 13.116 0 0 0 20.3 2.09l11.572-11.572 11.572-11.572a13.116 13.116 0 0 0 -2.09-20.294z" fill="#3e3e54"/><path d="m94.144 70.613-1.78-1.779a16.551 16.551 0 0 1 -4.326-7.634 35.041 35.041 0 0 1 -24.2 24.2 16.552 16.552 0 0 1 7.631 4.326l1.78 1.78a5.716 5.716 0 0 0 8.083 0l6.4-6.4 6.412-6.406a5.716 5.716 0 0 0 0-8.087z" fill="#c94f59"/><path d="m268.627 182.777a24.665 24.665 0 0 0 -34.883 0l-10.568 10.567-11.287-11.287a11.839 11.839 0 0 0 -12.378-2.751l-100.964-100.965a9.2 9.2 0 0 0 -1.928-10.2l-1.78-1.781a13.3 13.3 0 0 1 -3.703-11.36c.073-.531.138-1.056.193-1.578a41.459 41.459 0 0 0 -12.213-33.745l-5.456-5.457c-9.088-9.088-17.3-7.321-21.4-5.459a3.539 3.539 0 0 0 -.559.326 11.773 11.773 0 0 0 -6.601 3.343l-30.032 30.028a11.773 11.773 0 0 0 -3.351 6.667 3.569 3.569 0 0 0 -.389.66c-1.8 4.063-3.48 12.226 5.532 21.237l5.456 5.456a41.458 41.458 0 0 0 33.738 12.212c.523-.055 1.054-.119 1.585-.193a13.3 13.3 0 0 1 11.361 3.703l1.781 1.781a9.21 9.21 0 0 0 10.2 1.922l100.958 100.965a11.8 11.8 0 0 0 2.761 12.382l11.287 11.288-10.568 10.567a24.694 24.694 0 0 0 0 34.884l65.725 65.725a3.5 3.5 0 0 0 4.949 0l2.85-2.849a16.246 16.246 0 0 0 0-22.977l-53.7-53.7a3.7 3.7 0 0 1 -1.092-2.637 3.8 3.8 0 0 1 6.435-2.7l62.714 62.708a3.5 3.5 0 0 0 4.949 0l2.85-2.85a16.243 16.243 0 0 0 0-22.976l-53.7-53.7a3.731 3.731 0 0 1 5.276-5.276l62.711 62.712a3.6 3.6 0 0 0 4.949 0l2.85-2.849a16.246 16.246 0 0 0 0-22.977l-53.7-53.7a3.7 3.7 0 0 1 -1.093-2.637 3.8 3.8 0 0 1 6.435-2.7l62.711 62.712a3.5 3.5 0 0 0 4.949 0l2.85-2.85a16.243 16.243 0 0 0 0-22.976zm-82.538 8.343-99.709-99.71 7.669-7.669 99.709 99.71zm-119.236-126.907c-5.071 1.443-20.772 5.069-31.538-1.6a16.753 16.753 0 0 0 3.893-2.9l23.144-23.144a16.749 16.749 0 0 0 2.886-3.913c6.688 10.769 3.062 26.488 1.615 31.557zm-46.835-16.806 30.029-30.028a4.787 4.787 0 0 1 3.368-1.4 4.308 4.308 0 0 1 2.26.626l.222.14a9.42 9.42 0 0 1 4.29 6.96 9.677 9.677 0 0 1 -2.787 7.915l-23.141 23.143a9.661 9.661 0 0 1 -7.92 2.786 9.42 9.42 0 0 1 -6.964-4.3l-.132-.209a4.634 4.634 0 0 1 .775-5.633zm53.929 39.843a20.506 20.506 0 0 0 -17.275-5.686q-.682.095-1.352.165a34.508 34.508 0 0 1 -28.055-10.2l-5.456-5.456a21.053 21.053 0 0 1 -3.16-3.943 16.512 16.512 0 0 0 6.936 2.379c.345.038.688.04 1.032.056 6.911 6.988 16.251 8.966 24.574 8.966a65.06 65.06 0 0 0 19.623-3.216 3.5 3.5 0 0 0 2.14-2.141c.416-1.181 9.853-28.76-5.752-44.194-.016-.344-.017-.687-.054-1.032a16.516 16.516 0 0 0 -2.379-6.938 21.113 21.113 0 0 1 3.942 3.159l5.456 5.457a34.494 34.494 0 0 1 10.2 28.051q-.07.673-.166 1.36a20.519 20.519 0 0 0 5.687 17.271s3.245 3.015 1.78 4.913l-12.807 12.809c-2.137 1.77-4.914-1.78-4.914-1.78zm246.443 170.266-.375.374-60.236-60.237a10.8 10.8 0 0 0 -18.385 7.655 10.655 10.655 0 0 0 3.143 7.587l53.7 53.7a9.248 9.248 0 0 1 0 13.077l-.375.374-60.237-60.237a10.731 10.731 0 0 0 -15.175 15.176l53.7 53.7a9.245 9.245 0 0 1 0 13.077l-.375.374-60.241-60.236a10.8 10.8 0 0 0 -18.384 7.655 10.655 10.655 0 0 0 3.143 7.587l53.7 53.7a9.246 9.246 0 0 1 0 13.078l-.375.374-63.25-63.25a17.691 17.691 0 0 1 0-24.986l13.042-13.042a3.5 3.5 0 0 0 0-4.949l-13.764-13.767a4.834 4.834 0 0 1 0-6.837l10.454-10.457a4.842 4.842 0 0 1 6.839 0l13.761 13.763a3.5 3.5 0 0 0 4.95 0l13.043-13.043a17.688 17.688 0 0 1 24.984 0l56.712 56.713a9.245 9.245 0 0 1 0 13.077z" fill="#3e3e54"/></svg>