<svg id="icons" height="512" viewBox="0 0 340 340" width="512" xmlns="http://www.w3.org/2000/svg"><path d="m95.8 200.779a129.4 129.4 0 0 1 40.95-3.8l2.977-20.573 19.029-.831.32-21.029 20.507-.867-.612-19.467 20.073.068.575-19.139 19.638 1.581 4.1-21.74 18.6 3.272 2.165-18.594 18.642 2.318 5.408-19.178 16.8 2.56 5.5-16.006 16 1.715 4.523-13.01 15.072 2.761 1.2-26.83s-130.851 35.871-227.908 129.889z" fill="#e4efff"/><path d="m70.424 235.868 28.967-33.4a16.557 16.557 0 0 0 4.006-12.027l-4.038-46.559c-24.533 22.775-44.111 44.876-44.111 44.876s1.61 33.842 15.176 47.11z" fill="#3e3e54"/><path d="m55.248 188.755 15.176 47.113s-13.868 13.566-3.919 45.822q.932 3.024 1.541 5.814c-.8 9.839-2.7 18.9-11.678 22.983l-34.2-2.616c-6.378-13.839-8.3-28.7-6.228-44.472 9.844-42.425 39.308-74.644 39.308-74.644z" fill="#fe7d87"/><circle cx="41.645" cy="287.554" fill="#c94f59" r="5.081"/><path d="m68.067 287.613c-5.151 11.564-15.771 16.4-25.032 16.865-24.335 1.228-28.265-23.715-27.075-41.078-.771 3.327-1.437 6.708-1.943 10.149-6.968 47.331 15.71 52.456 29.883 52.456 13.26 0 30.222-10.572 24.167-38.392z" fill="#c94f59"/><path d="m43.9 329.505a28.641 28.641 0 0 0 23.066-11.349c4.649-6.3 8.926-17.919 2.888-37.5-9.1-29.519 2.545-41.8 3.021-42.289.048-.046.087-.1.132-.148.02-.022.045-.038.065-.061l28.967-33.4a20.185 20.185 0 0 0 1.64-2.208 132.539 132.539 0 0 1 32.852-2.077 3.493 3.493 0 0 0 3.682-2.992l2.563-17.7 16.131-.7a3.5 3.5 0 0 0 3.348-3.444l.269-17.724 17.2-.728a3.5 3.5 0 0 0 3.35-3.606l-.5-15.845 16.449.055h.012a3.5 3.5 0 0 0 3.5-3.394l.465-15.46 15.97 1.284a3.5 3.5 0 0 0 3.719-2.84l3.458-18.342 15.2 2.673a3.5 3.5 0 0 0 4.083-3.043l1.756-15.089 15.143 1.882a3.511 3.511 0 0 0 3.8-2.522l4.572-16.2 13.742 2.094a3.494 3.494 0 0 0 3.837-2.332l4.59-13.365 13.224 1.418a3.52 3.52 0 0 0 3.679-2.331l3.538-10.176 12.12 2.219a3.5 3.5 0 0 0 4.127-3.285l1.206-26.829a3.5 3.5 0 0 0 -4.421-3.534c-.33.091-33.509 9.283-78.1 29.884-41.152 19.013-100.8 51.939-151.283 100.83-23.976 22.26-43.484 44.151-44.291 45.059-1.433 1.565-35.069 38.81-42.115 86.651-3.149 21.386-.663 36.959 7.387 46.277 5.919 6.855 14.409 10.187 25.959 10.187zm207.139-282.584a593.4 593.4 0 0 1 72.512-28.18l-.806 17.917-11.124-2.037a3.486 3.486 0 0 0 -3.936 2.293l-3.611 10.386-13.234-1.422a3.508 3.508 0 0 0 -3.684 2.344l-4.548 13.242-13.908-2.12a3.489 3.489 0 0 0 -3.9 2.509l-4.6 16.282-15.66-1.947a3.5 3.5 0 0 0 -3.908 3.069l-1.732 14.908-14.948-2.63a3.5 3.5 0 0 0 -4.046 2.8l-3.506 18.647-16.5-1.327a3.5 3.5 0 0 0 -3.779 3.382l-.473 15.733-16.665-.057h-.012a3.5 3.5 0 0 0 -3.5 3.61l.5 16.006-17.047.721a3.5 3.5 0 0 0 -3.353 3.444l-.268 17.73-15.732.686a3.5 3.5 0 0 0 -3.311 3l-2.522 17.418a140.2 140.2 0 0 0 -27.093 1.6 20.427 20.427 0 0 0 .24-4.791l-3.893-44.884c49.487-47.553 107.742-79.7 148.047-98.332zm-154.539 104.451 3.41 39.316a12.97 12.97 0 0 1 -3.159 9.484l-24.9 28.709-12.651-39.281c4.372-4.849 19.125-20.949 37.3-38.228zm-79.02 122.689c5.321-36.145 27.284-66.8 36.38-78.2l12.64 39.249c-3.613 4.831-11.916 19.81-3.342 47.612 4.1 13.287 3.465 24.1-1.83 31.277a21.62 21.62 0 0 1 -17.428 8.506c-9.39 0-16.147-2.539-20.658-7.763-6.664-7.711-8.601-21.399-5.762-40.681z" fill="#3e3e54"/></svg>