<svg id="icons" height="512" viewBox="0 0 340 340" width="512" xmlns="http://www.w3.org/2000/svg"><path d="m115.621 233.448a3.5 3.5 0 0 1 -2.136-6.274c42.931-33.024 38.278-109.658 38.226-110.428a3.5 3.5 0 0 1 6.984-.473 202.284 202.284 0 0 1 -3 44.615c-5.757 32.328-18.879 57.168-37.945 71.835a3.486 3.486 0 0 1 -2.129.725z" fill="#8c9d78"/><path d="m196.015 222.749s30.769-31.083 30.558-77.735a1.193 1.193 0 0 1 2.245-.584c3.378 6.394 9.363 20.63 11.016 43.531 0 0-.334-19.688 12.042-42.457 9.422-17.334 8.569-43.049 7.625-54.339a1.2 1.2 0 0 1 2.272-.611c4.411 9.427 11.659 32.888 4.821 77.337 0 0-3.72 21.016 5.27 37.871 0 0 1.013-17.988 9.227-34.079a1.192 1.192 0 0 1 2.03-.143c3.515 4.94 13.969 21.145 14.247 39.5 0 0 .334-17.394 9.366-43.82a94.353 94.353 0 0 0 4.575-38.22 1.2 1.2 0 0 1 2.292-.572c7.654 18.277 24.142 67.193 11.53 126.072h-129.068z" fill="#8c9d78"/><path d="m34.671 102.708c11.362 11.762 41.286 48.928 35.572 109.337l-12.377 12.042-16.39-31.777s8.506-45.04-8.765-88.31a1.2 1.2 0 0 1 1.96-1.292z" fill="#d3dd96"/><path d="m18.73 254.5s-8.514-9.437-8.514-29.881c0 0 2.863-18.249.806-30.272a1.2 1.2 0 0 1 2.014-1.045 47.484 47.484 0 0 1 13.694 25.979s4.439-38.083-7.471-67.011a1.192 1.192 0 0 1 1.992-1.252c11 12.434 36.166 45.051 42.368 89.152l-11.556 14.33z" fill="#8c9d78"/><path d="m52.063 254.5s-9.174-18.82 8.993-47.078a99.293 99.293 0 0 0 11.937-26.665c4.855-17.144 9.552-43.9 4.5-74.354a1.194 1.194 0 0 1 2.176-.862c7.656 11.857 25.667 46.456 12.843 94.189 0 0 19.4-13.618 34.725-44.035a1.193 1.193 0 0 1 2.254.381c1.454 12.265 4.238 50.6-13.868 73.876 0 0 80.488-46.776 75.689-137.045a1.193 1.193 0 0 1 2.313-.477c6.569 18.2 18.95 70.353-23.4 133.078 0 0 22.3-12.775 32.9-32.754a1.2 1.2 0 0 1 2.244.342c1.669 9.614 4.76 37.335-9.3 61.4z" fill="#d3dd96"/><path d="m108.42 168.577a3.5 3.5 0 0 1 -3.635-4.511c5.469-17.915.7-37.5.652-37.7a3.5 3.5 0 0 1 6.789-1.7c.22.874 5.3 21.624-.746 41.443a3.5 3.5 0 0 1 -3.06 2.468z" fill="#8c9d78"/><path d="m295.174 170.874c-.059 0-.119 0-.178 0a3.5 3.5 0 0 1 -3.321-3.672 159.519 159.519 0 0 0 -8.351-59.2 3.5 3.5 0 0 1 6.522-2.542c.431 1.107 10.555 27.507 8.821 62.091a3.5 3.5 0 0 1 -3.493 3.323z" fill="#d3dd96"/><g fill="#3e3e54"><path d="m308.9 117.433a3.5 3.5 0 0 0 -2.247 4c4.742 23.074-3.11 44.343-3.189 44.551-.014.037-.026.073-.039.109a206.265 206.265 0 0 0 -6.653 23.934 86.34 86.34 0 0 0 -12.047-22.2 3.5 3.5 0 0 0 -5.811.495 88.932 88.932 0 0 0 -8.375 22.981 70.626 70.626 0 0 1 -.483-22.876c9.49-61.68-7.675-84.168-8.41-85.1a3.5 3.5 0 0 0 -6.21 2.673c.052.36 5.052 36.33-6.635 57.83a107.112 107.112 0 0 0 -8.812 21.44c-4.176-17.779-10.362-26.4-10.713-26.879a3.5 3.5 0 0 0 -6.318 2.236 106.186 106.186 0 0 1 -8.279 45.992 3.5 3.5 0 0 0 6.466 2.682 115.514 115.514 0 0 0 8.508-34.209 121.956 121.956 0 0 1 6.682 33.017c.02 2.28.433 28.721 9.162 44.464a3.5 3.5 0 0 0 6.122-3.394c-8.059-14.535-8.283-40.971-8.285-41.237v-.019c0-.006 0-.012 0-.018 0-.189-.125-19.128 11.617-40.731 6.428-11.826 8.323-27.081 8.59-39.527 2.572 12.623 3.874 31.89-.393 59.632-.161.906-3.8 22.31 5.565 40 .188.4 2.71 5.829 4 9.511a3.5 3.5 0 0 0 6.606-2.317c-1.146-3.266-3.073-7.561-3.9-9.356a96.64 96.64 0 0 1 7.067-28.212c4.242 6.739 11.152 19.866 11.376 34.16 0 .586-.112 9.949-1.168 14.84a3.5 3.5 0 1 0 6.843 1.477c1.213-5.622 1.319-15.5 1.325-16.28.006-.255.483-17.292 9.162-42.7a95.272 95.272 0 0 0 5.016-26.027c7.711 23.126 16.789 64.116 6.664 111.386a3.5 3.5 0 1 0 6.845 1.466c16.137-75.336-14.087-133.692-15.382-136.139a3.5 3.5 0 0 0 -4.267-1.655z"/><path d="m26.816 222.78a3.5 3.5 0 0 0 3.391-3.093c.173-1.489 3.349-29.984-3.685-56.663a180.56 180.56 0 0 1 27.084 50.328c-12.864 25.241-5.061 41.914-4.688 42.677a3.5 3.5 0 0 0 6.3-3.046c-.333-.707-7.963-17.627 8.778-43.669a102.757 102.757 0 0 0 12.366-27.614 177.531 177.531 0 0 0 6.13-63.754c7.7 16.169 16.343 44.737 6.636 80.869a3.5 3.5 0 0 0 5.391 3.773c.785-.551 17.411-12.426 32.17-38.46 1.041 15.969.576 45.143-13.833 63.67a3.5 3.5 0 0 0 4.522 5.175c.888-.517 21.995-12.93 42.162-37.354 15.46-18.719 32.627-47.654 35.148-85.619 4.619 24.35 4.809 65.884-27.372 113.541a3.5 3.5 0 0 0 4.64 5c.908-.52 19.609-11.374 31.169-28.95.862 6.683.866 14.855-2.527 19.662a3.5 3.5 0 0 0 5.719 4.037c8.346-11.823 1.977-33.761 1.7-34.688a3.5 3.5 0 0 0 -6.549-.439c-4.4 9.791-12.091 18.038-18.945 23.991 19.392-34.931 22.453-65.6 21.25-86.188-1.5-25.678-9.6-41.426-9.943-42.084a3.5 3.5 0 0 0 -6.583 1.98c3.947 38.4-7.14 73.76-32.951 105.113a180.249 180.249 0 0 1 -27.775 27.042c12.084-28.528 6.182-64.651 5.88-66.432a3.5 3.5 0 0 0 -6.615-.911 138.17 138.17 0 0 1 -27.483 39.353c10.206-54.568-17.816-89.629-19.088-91.184a3.5 3.5 0 0 0 -6.14 2.908 165.686 165.686 0 0 1 -1.007 68.336c-8.677-47.941-38.018-72.978-39.388-74.122a3.5 3.5 0 0 0 -5.434 4.127c10.076 22.291 12.519 45.659 12.794 61.338a3.5 3.5 0 0 0 3.5 3.438h.06a3.5 3.5 0 0 0 3.438-3.56 172.509 172.509 0 0 0 -6.972-46.859 133.859 133.859 0 0 1 26.99 71.658 3.462 3.462 0 0 0 .212.926 94.292 94.292 0 0 1 -9.09 18.38c-14.405-37.975-38.622-61.413-39.697-62.44a3.5 3.5 0 0 0 -5.5 4.194c9.114 16.87 10.991 39.285 11.033 54.535a47.761 47.761 0 0 0 -11.735-13.692 3.5 3.5 0 0 0 -5.413 3.838c3.213 10.651-.074 32.009-.108 32.224a3.644 3.644 0 0 0 -.042.542c0 21.543 9.031 31.8 9.415 32.227a3.491 3.491 0 0 0 4.917.261 3.512 3.512 0 0 0 .3-4.933c-.076-.086-7.558-8.826-7.628-27.292a140.144 140.144 0 0 0 1.472-23.791 43.414 43.414 0 0 1 8.089 18.77 3.475 3.475 0 0 0 3.535 2.924z"/></g></svg>