<svg id="icons" height="512" viewBox="0 0 340 340" width="512" xmlns="http://www.w3.org/2000/svg"><path d="m60.681 205.66h205.43v77.971h-205.43z" fill="#efa5a7"/><g fill="#a06a7a"><path d="m107.613 242.111a3.5 3.5 0 0 0 -3.5 3.5v33.206a3.5 3.5 0 0 0 7 0v-33.206a3.5 3.5 0 0 0 -3.5-3.5z"/><path d="m107.613 200.992a3.5 3.5 0 0 0 -3.5 3.5v23.968a3.5 3.5 0 0 0 7 0v-23.968a3.5 3.5 0 0 0 -3.5-3.5z"/><path d="m163.4 207.131a3.5 3.5 0 0 0 -3.5 3.5v68.186a3.5 3.5 0 0 0 7 0v-68.186a3.5 3.5 0 0 0 -3.5-3.5z"/><path d="m219.432 256.762a3.5 3.5 0 0 0 -3.5 3.5v18.555a3.5 3.5 0 0 0 7 0v-18.555a3.5 3.5 0 0 0 -3.5-3.5z"/><path d="m219.432 241.225a3.5 3.5 0 0 0 -3.5 3.5v.886a3.5 3.5 0 0 0 7 0v-.886a3.5 3.5 0 0 0 -3.5-3.5z"/><path d="m219.432 207.131a3.5 3.5 0 0 0 -3.5 3.5v20.255a3.5 3.5 0 0 0 7 0v-20.255a3.5 3.5 0 0 0 -3.5-3.5z"/><path d="m60.681 268.345h205.43v15.286h-205.43z"/><path d="m60.681 205.661h205.43v14.888h-205.43z"/></g><path d="m228.5 89.9s-35.406 27.9-37.292 79.942h16.016s-.7-43.6 25.276-64.554l3.543-17.488z" fill="#3e3e54"/><path d="m200.353 90.339c3.834-7.134 10.62-8.554 17.748-11.781-10 .463-18.61 1.278-23.432-2.928a13.6 13.6 0 0 1 -5.447-10.342 11.459 11.459 0 0 1 3.994-9.991 14.457 14.457 0 0 1 14.767-2.291c2.135.845 4.792 1.9 7.593 3l-4.59-3.617a15.357 15.357 0 0 1 -5.964-11.264 13.6 13.6 0 0 1 4.487-10.794 11.468 11.468 0 0 1 10.242-3.3 14.459 14.459 0 0 1 11.186 9.908l2 6.139c.315-.116.629-.229.945-.333l-1.416-5.839a15.358 15.358 0 0 1 2.28-12.563 13.6 13.6 0 0 1 10.181-5.7 11.463 11.463 0 0 1 10.093 3.729 14.457 14.457 0 0 1 2.679 14.7c-.715 1.957-1.587 4.345-2.513 6.884l.223.1 2.972-3.983a15.369 15.369 0 0 1 11.484-6.3 13.607 13.607 0 0 1 10.54 4.223 11.789 11.789 0 0 1 3.569 10.151c-1.013 9.915-13.627 14.459-18.666 16.251 0 0 13.658-3.95 22.259 1.527 2.938 1.871 5.284 5.415 5.55 10.7a11.464 11.464 0 0 1 -4.2 9.9 14.46 14.46 0 0 1 -14.817 1.994l-6.25-2.625c-.07.114-.146.224-.218.336l3.452 2.84a15.358 15.358 0 0 1 5.725 11.388 13.606 13.606 0 0 1 -4.714 10.7 11.511 11.511 0 0 1 -11.053 2.921 14.455 14.455 0 0 1 -10.223-9.955l-.13-.413a15.368 15.368 0 0 1 -2.207 12.908 13.6 13.6 0 0 1 -9.86 5.63 11.464 11.464 0 0 1 -10.17-3.514 14.459 14.459 0 0 1 -2.989-14.642c.743-2.174 1.666-4.877 2.638-7.727l-3.395 4.757a15.355 15.355 0 0 1 -11 6.494 13.6 13.6 0 0 1 -10.966-3.972 12.266 12.266 0 0 1 -3.312-5.037 10.549 10.549 0 0 1 .925-8.269z" fill="#ffc78f"/><path d="m109.494 96.769s13.526 33.69 11.051 73.071h19.794s-4.044-50.626-19.958-77.855z" fill="#3e3e54"/><path d="m141.7 66.833c-6.195-5.217-13.026-4.034-20.842-4.405 9.469-3.259 17.769-5.676 20.7-11.363a13.6 13.6 0 0 0 1.25-11.623 11.464 11.464 0 0 0 -7.4-7.813 14.458 14.458 0 0 0 -14.571 3.316c-1.674 1.574-3.755 3.53-5.951 5.591l2.933-5.055a15.354 15.354 0 0 0 1.389-12.669 13.6 13.6 0 0 0 -8.152-8.379 11.465 11.465 0 0 0 -10.736.71 14.46 14.46 0 0 0 -6.744 13.335c.116 1.854.255 4.074.4 6.445-.335.009-.669.019-1 .039l-.838-5.95a15.354 15.354 0 0 0 -6.752-10.836 13.6 13.6 0 0 0 -11.565-1.542 11.465 11.465 0 0 0 -8.006 7.189 14.455 14.455 0 0 0 2.932 14.652l4.874 5.472c-.056.059-.113.118-.169.178l-4.231-2.607a15.369 15.369 0 0 0 -13-1.618 13.6 13.6 0 0 0 -8.24 7.812 11.785 11.785 0 0 0 .426 10.751c4.6 8.843 18 8.415 23.344 8.222 0 0-14.153 1.366-20.128 9.629-2.041 2.822-2.914 6.981-1.211 11.994a11.464 11.464 0 0 0 7.56 7.656 14.458 14.458 0 0 0 14.5-3.624c1.385-1.359 3.058-3 4.84-4.744.107.079.219.154.327.232l-2.161 3.913a15.354 15.354 0 0 0 -1.121 12.7 13.6 13.6 0 0 0 8.327 8.2 11.508 11.508 0 0 0 11.35-1.361 14.453 14.453 0 0 0 5.831-13.023l-.047-.564.016.132a15.367 15.367 0 0 0 6.812 11.184 13.6 13.6 0 0 0 11.241 1.6 11.466 11.466 0 0 0 8.157-7.018 14.458 14.458 0 0 0 -2.622-14.711l-5.3-6.21 4.91 3.169a15.354 15.354 0 0 0 12.616 1.982 13.6 13.6 0 0 0 8.729-7.737 12.271 12.271 0 0 0 1.221-5.9 10.551 10.551 0 0 0 -3.898-7.351z" fill="#93c3fc"/><circle cx="96.257" cy="63.487" fill="#fff" r="10.1"/><path d="m62.544 178.6s-15.444-5.286-15.683-22.842c0 0 7.958 6.087 18.258 4.916 0 0-10.768-9.831-10.3-23.642 0 0 2.341 6.086 13.811 6.554s24.578 10.534 24.578 10.534-5.852-16.62-12.406-22c0 0 29.728-1.872 47.519 29.729 0 0 2.808-13.109 20.364-22 8.223-4.166 12.749-9.36 15.237-13.7 0 0 12.151 11.459 4.426 31.962 0 0 11.236-5.384 16.386-16.619a21.842 21.842 0 0 1 3.979 18.726 56.407 56.407 0 0 1 22.238-11.7 46.468 46.468 0 0 0 15.461-7.24 19.482 19.482 0 0 1 -2.908 17.774s7.11-9.832 25.836-12.641a48.7 48.7 0 0 0 25.678-12.226s6.391 18.078-9.761 27.676a67.606 67.606 0 0 1 21.536-5.384s-.936 18.726-19.429 23.408z" fill="#d3dd96"/><path d="m50.712 178.6h225.367a0 0 0 0 1 0 0v22.786a7.833 7.833 0 0 1 -7.833 7.833h-209.702a7.833 7.833 0 0 1 -7.833-7.833v-22.786a0 0 0 0 1 .001 0z" fill="#efa5a7"/><path d="m77.77 307.129h47.352a0 0 0 0 1 0 0v12.03a7.4 7.4 0 0 1 -7.4 7.4h-32.55a7.4 7.4 0 0 1 -7.4-7.4v-12.03a0 0 0 0 1 -.002 0z" fill="#a06a7a"/><path d="m209.071 307.129h32.548a7.4 7.4 0 0 1 7.4 7.4v12.03a0 0 0 0 1 0 0h-47.35a0 0 0 0 1 0 0v-12.03a7.4 7.4 0 0 1 7.402-7.4z" fill="#a06a7a" transform="matrix(-1 0 0 -1 450.69 633.691)"/><path d="m58.544 280.071a7.833 7.833 0 0 0 -7.832 7.833v22.786h225.367v-22.79a7.832 7.832 0 0 0 -7.832-7.833z" fill="#efa5a7"/><circle cx="241.361" cy="70.469" fill="#fff" r="10.1"/><path d="m296.616 76.461c-.3-5.939-2.844-10.727-7.166-13.479a22.069 22.069 0 0 0 -8.334-3.027 17.439 17.439 0 0 0 6.343-11.443 15.3 15.3 0 0 0 -4.587-12.992 17.236 17.236 0 0 0 -13.172-5.234 18.111 18.111 0 0 0 -7.571 2.069 17.494 17.494 0 0 0 -4.525-12.339 15 15 0 0 0 -13.019-4.853 17.185 17.185 0 0 0 -12.683 7.143 17.982 17.982 0 0 0 -2.7 5.632 17.329 17.329 0 0 0 -8.883-4.357 15 15 0 0 0 -13.23 4.219 17.183 17.183 0 0 0 -5.564 13.481 18.123 18.123 0 0 0 1.854 7.168 17.553 17.553 0 0 0 -12.454 4.2 14.99 14.99 0 0 0 -5.194 12.885 17.181 17.181 0 0 0 6.733 12.814c2.774 2.375 6.262 3.447 10.273 3.866a19.986 19.986 0 0 0 -5.467 6.466 14.081 14.081 0 0 0 -1.156 11.027 15.778 15.778 0 0 0 4.222 6.47 17.165 17.165 0 0 0 13.695 4.921 18.088 18.088 0 0 0 7.107-2.2 17.505 17.505 0 0 0 4.784 12.242 14.773 14.773 0 0 0 10.985 4.7 18.092 18.092 0 0 0 2.134-.129 17.2 17.2 0 0 0 12.285-7.061 17.908 17.908 0 0 0 2.323-4.416 17.2 17.2 0 0 0 6.563 3.231 15 15 0 0 0 14.253-3.742 17.184 17.184 0 0 0 5.847-13.36 18.09 18.09 0 0 0 -1.7-7.207 17.5 17.5 0 0 0 12.541-3.933 14.994 14.994 0 0 0 5.463-12.762zm-9.935 7.387a11.025 11.025 0 0 1 -11.221 1.444l-6.251-2.626a3.5 3.5 0 0 0 -4.335 1.394l-.187.286a3.5 3.5 0 0 0 .726 4.588l3.451 2.839a11.823 11.823 0 0 1 4.45 8.769 10.112 10.112 0 0 1 -3.581 8.033 8.078 8.078 0 0 1 -7.853 2.1 10.964 10.964 0 0 1 -7.707-7.571l-.164-.541a3.5 3.5 0 0 0 -6.731 1.919l.032.12a11.8 11.8 0 0 1 -1.664 9.967 10.115 10.115 0 0 1 -7.436 4.2 8.038 8.038 0 0 1 -7.219-2.454 11.026 11.026 0 0 1 -2.212-11.095l2.639-7.73a3.5 3.5 0 0 0 -6.162-3.163l-3.4 4.757a11.821 11.821 0 0 1 -8.464 5.043 10.1 10.1 0 0 1 -8.239-3.024 8.888 8.888 0 0 1 -2.4-3.6 7.077 7.077 0 0 1 .683-5.503c2.493-4.637 6.638-6.327 11.887-8.465 1.365-.555 2.775-1.13 4.222-1.785a3.5 3.5 0 0 0 -1.606-6.684l-2.384.115c-8.165.407-15.213.757-18.585-2.185-.062-.053-.126-.105-.192-.155a10.109 10.109 0 0 1 -4.065-7.8 8.034 8.034 0 0 1 2.794-7.1 11.035 11.035 0 0 1 11.187-1.682l7.6 3a3.5 3.5 0 0 0 3.452-6l-4.591-3.617a11.818 11.818 0 0 1 -4.633-8.673 10.109 10.109 0 0 1 3.41-8.108 8.042 8.042 0 0 1 7.246-2.376 11.028 11.028 0 0 1 8.434 7.542l2 6.14a3.5 3.5 0 0 0 4.531 2.2c.277-.1.553-.2.831-.293a3.5 3.5 0 0 0 2.311-4.15l-1.415-5.84a11.816 11.816 0 0 1 1.723-9.7 10.11 10.11 0 0 1 7.678-4.255 8.014 8.014 0 0 1 7.167 2.606 11.026 11.026 0 0 1 1.976 11.14l-2.514 6.885a3.5 3.5 0 0 0 1.832 4.383l.173.08a3.5 3.5 0 0 0 4.312-1.067l2.972-3.983a11.809 11.809 0 0 1 8.843-4.9 10.149 10.149 0 0 1 7.912 3.212 8.291 8.291 0 0 1 2.556 7.315c-.794 7.775-12.1 11.8-16.357 13.309a3.5 3.5 0 0 0 2.14 6.662c.122-.035 12.271-3.431 19.412 1.115 2.355 1.5 3.753 4.315 3.935 7.927a8.04 8.04 0 0 1 -2.949 7.035z" fill="#3e3e54"/><path d="m236.345 57.828a13.6 13.6 0 1 0 17.655 7.625 13.617 13.617 0 0 0 -17.655-7.625zm11.075 15.258a6.6 6.6 0 1 1 .076-5.051 6.557 6.557 0 0 1 -.076 5.051z" fill="#3e3e54"/><path d="m55.093 36.589a17.207 17.207 0 0 0 -10.31 9.721 15.3 15.3 0 0 0 .528 13.767 17.427 17.427 0 0 0 10.117 8.3 22.078 22.078 0 0 0 -6.628 5.886c-3 4.151-3.6 9.539-1.69 15.172a15 15 0 0 0 9.79 9.857 17.5 17.5 0 0 0 13.107-.969 18.088 18.088 0 0 0 1.076 7.326 17.177 17.177 0 0 0 10.359 10.261 16.374 16.374 0 0 0 5.855 1.131 14.951 14.951 0 0 0 8.773-2.909 17.2 17.2 0 0 0 4.909-5.422 17.927 17.927 0 0 0 3.788 3.247 17.217 17.217 0 0 0 14.023 2.033 15 15 0 0 0 10.51-9.09 17.5 17.5 0 0 0 -.067-13.143 18.127 18.127 0 0 0 7.416-.582 17.187 17.187 0 0 0 10.911-9.625 15.8 15.8 0 0 0 1.538-7.571 14.077 14.077 0 0 0 -5.142-9.823 19.991 19.991 0 0 0 -7.466-3.994c3.574-1.868 6.421-4.151 8.123-7.382a17.182 17.182 0 0 0 1.534-14.392 15 15 0 0 0 -9.581-10.064 17.5 17.5 0 0 0 -13.124.693 18.1 18.1 0 0 0 -.921-7.347 17.178 17.178 0 0 0 -10.143-10.478 14.991 14.991 0 0 0 -13.86.956 17.3 17.3 0 0 0 -6.65 7.324 18.019 18.019 0 0 0 -4.585-4.24 17.18 17.18 0 0 0 -14.423-1.96 14.993 14.993 0 0 0 -10.312 9.311 17.5 17.5 0 0 0 .346 13.138 18.038 18.038 0 0 0 -7.801.868zm12.3 7.909 4.232 2.607a3.5 3.5 0 0 0 4.382-.58l.084-.088.075-.078a3.5 3.5 0 0 0 .077-4.741l-4.876-5.471a11.029 11.029 0 0 1 -2.272-11.083 8.035 8.035 0 0 1 5.699-5.064 10.11 10.11 0 0 1 8.706 1.121 11.813 11.813 0 0 1 5.178 8.379l.839 5.95a3.5 3.5 0 0 0 3.672 3.006c.293-.017.589-.026.886-.034a3.5 3.5 0 0 0 3.4-3.716l-.4-6.446a11.021 11.021 0 0 1 5.058-10.119 8.026 8.026 0 0 1 7.611-.464 10.109 10.109 0 0 1 6.161 6.277 11.822 11.822 0 0 1 -1.109 9.771l-2.932 5.054a3.5 3.5 0 0 0 5.423 4.309l5.952-5.592a11.028 11.028 0 0 1 11.019-2.564 8.038 8.038 0 0 1 5.215 5.566 10.108 10.108 0 0 1 -.9 8.748c-.043.071-.083.142-.121.215-2.049 3.978-8.73 6.251-16.467 8.885l-2.261.772a3.5 3.5 0 0 0 .973 6.806c1.586.075 3.109.089 4.581.1 5.668.052 10.145.092 14.172 3.484a7.073 7.073 0 0 1 2.661 4.866 8.879 8.879 0 0 1 -.9 4.234 10.111 10.111 0 0 1 -6.542 5.85 11.824 11.824 0 0 1 -9.728-1.565l-4.911-3.169a3.5 3.5 0 0 0 -4.56 5.212l5.3 6.211a11.026 11.026 0 0 1 2.037 11.129 8.036 8.036 0 0 1 -5.807 4.947 10.121 10.121 0 0 1 -8.461-1.162 11.8 11.8 0 0 1 -5.223-8.66l-.016-.132a3.5 3.5 0 0 0 -6.962.717l.047.563a10.965 10.965 0 0 1 -4.371 9.879 8.072 8.072 0 0 1 -8.075.942 10.1 10.1 0 0 1 -6.29-6.145 11.819 11.819 0 0 1 .9-9.792l2.161-3.913a3.5 3.5 0 0 0 -1.018-4.533l-.291-.2a3.5 3.5 0 0 0 -4.531.314l-4.842 4.745a11.025 11.025 0 0 1 -10.962 2.8 8.039 8.039 0 0 1 -5.332-5.452c-1.162-3.425-.9-6.557.734-8.82 4.961-6.86 17.507-8.182 17.628-8.2a3.5 3.5 0 0 0 -.462-6.981c-4.514.163-16.507.594-20.113-6.34a8.29 8.29 0 0 1 -.324-7.735 10.116 10.116 0 0 1 6.17-5.9 11.8 11.8 0 0 1 10.024 1.282z" fill="#3e3e54"/><path d="m96.257 77.088a13.6 13.6 0 1 0 -13.6-13.6 13.616 13.616 0 0 0 13.6 13.6zm0-20.2a6.6 6.6 0 1 1 -6.6 6.6 6.608 6.608 0 0 1 6.6-6.601z" fill="#3e3e54"/><path d="m290.289 156.636a3.5 3.5 0 0 0 -1.055-2.683 3.45 3.45 0 0 0 -2.709-.981 68.992 68.992 0 0 0 -9.487 1.413 28.672 28.672 0 0 0 1.28-21.385 3.5 3.5 0 0 0 -5.675-1.4 45.288 45.288 0 0 1 -23.822 11.336 53.4 53.4 0 0 0 -17.979 5.852 21.816 21.816 0 0 0 -1.182-8.827 3.5 3.5 0 0 0 -5.275-1.552 43.309 43.309 0 0 1 -14.283 6.7 58.418 58.418 0 0 0 -17.37 7.714 24.5 24.5 0 0 0 -5.4-13.687 3.5 3.5 0 0 0 -5.78.888 30.463 30.463 0 0 1 -7.465 9.832c2.3-16.524-7.284-25.811-7.764-26.263a3.5 3.5 0 0 0 -5.439.807c-2.858 4.991-7.494 9.136-13.78 12.321-10.792 5.468-16.466 12.483-19.367 17.589-18.761-27.127-45.932-25.761-47.155-25.685a3.5 3.5 0 0 0 -2 6.2c2.454 2.017 4.986 6.249 7.072 10.472-4.887-2.538-11.009-4.963-16.88-5.2-8.268-.337-10.435-3.861-10.7-4.367a3.374 3.374 0 0 0 -3.749-2.275 3.584 3.584 0 0 0 -3 3.467 34.022 34.022 0 0 0 6.017 19.778 25.3 25.3 0 0 1 -8.352-3.713 3.5 3.5 0 0 0 -5.625 2.827 27.216 27.216 0 0 0 7.769 19.3h-.419a3.5 3.5 0 0 0 -3.5 3.5v22.786a11.344 11.344 0 0 0 9.97 11.242v64.032a11.344 11.344 0 0 0 -9.97 11.241v22.775a3.5 3.5 0 0 0 3.5 3.5h23.555v4.969a10.915 10.915 0 0 0 10.9 10.9h32.55a10.915 10.915 0 0 0 10.9-10.9v-4.969h69.547v4.969a10.915 10.915 0 0 0 10.9 10.9h32.548a10.915 10.915 0 0 0 10.9-10.9v-4.969h23.558a3.5 3.5 0 0 0 3.5-3.5v-22.79a11.343 11.343 0 0 0 -9.969-11.241v-64.029a11.343 11.343 0 0 0 9.969-11.242v-22.788a3.489 3.489 0 0 0 -.113-.842c10.045-8.076 10.798-20.52 10.829-21.122zm-228.048 18.017a21.266 21.266 0 0 1 -10.906-12.542 29.422 29.422 0 0 0 14.179 2.04 3.5 3.5 0 0 0 1.971-6.055 33.418 33.418 0 0 1 -7.964-12.772 26.91 26.91 0 0 0 8.966 1.759c10.2.417 22.469 9.721 22.59 9.814a3.5 3.5 0 0 0 5.433-3.939 94.041 94.041 0 0 0 -7.882-16.745c9.38 1.63 25.41 7.4 36.643 27.349a3.5 3.5 0 0 0 6.472-.984c.024-.115 2.642-11.568 18.525-19.615a41.268 41.268 0 0 0 13.808-10.854c2.567 4.354 5.521 12.749 1 24.756a3.5 3.5 0 0 0 4.788 4.391 42.866 42.866 0 0 0 14.836-12.774 19.325 19.325 0 0 1 .6 10.958 3.5 3.5 0 0 0 5.789 3.338 52.916 52.916 0 0 1 20.711-10.878 48.722 48.722 0 0 0 12.1-4.9 16.28 16.28 0 0 1 -3.23 9.977l-.006.008-.006.008-.006.009-.076.111-.006.01v.008.007.007.006a3.5 3.5 0 0 0 5.785 3.934c.272-.364 6.7-8.726 23.534-11.251a52.43 52.43 0 0 0 22.853-9.307c.41 5.223-.645 13.177-9.243 18.286a3.5 3.5 0 0 0 3.286 6.172 64.254 64.254 0 0 1 15.781-4.53 21.937 21.937 0 0 1 -11.309 14.278 3.5 3.5 0 0 0 -.553.346h-207.79a3.492 3.492 0 0 0 -.673-.426zm1.94 101.918v-63.85h198.429v63.85zm57.441 42.588a3.907 3.907 0 0 1 -3.9 3.9h-32.55a3.907 3.907 0 0 1 -3.9-3.9v-4.969h40.352zm123.9 0a3.907 3.907 0 0 1 -3.9 3.9h-32.551a3.907 3.907 0 0 1 -3.9-3.9v-4.969h40.352zm27.057-31.259v19.29h-218.368v-19.29a4.338 4.338 0 0 1 4.333-4.332h209.7a4.337 4.337 0 0 1 4.335 4.332zm0-86.515a4.337 4.337 0 0 1 -4.332 4.333h-209.703a4.338 4.338 0 0 1 -4.333-4.333v-19.285h218.368z" fill="#3e3e54"/></svg>