<svg id="icons" height="512" viewBox="0 0 340 340" width="512" xmlns="http://www.w3.org/2000/svg"><path d="m192.7 239.884s-8.043 53.011 1.493 83.209c2.724 8.626 14.938 8.9 18.049.407 3.212-8.773 5.322-22.348 2.572-42.828l-4.486-40.35-18.284-.438z" fill="#697cb7"/><path d="m203.451 241.452s1.836 58.805 31.915 85.555a8.321 8.321 0 0 0 13.847-5.346c.592-5.771.06-14.006-3.284-25.482l-23.606-57.828z" fill="#759cdd"/><path d="m222.9 261.25c8.413 20.89 24.9 52.3 50.986 63.475a9.134 9.134 0 0 0 12.754-9.215 92.4 92.4 0 0 0 -8.294-29.6c-11.3-24.519-31.957-59.506-31.957-59.506z" fill="#93c3fc"/><path d="m243.3 245.257a8.263 8.263 0 0 0 -.865-9.245l-4.469-5.43-21.885 10.87a185.222 185.222 0 0 0 6.816 19.8c6.48-2.252 15.345-6.865 20.403-15.995z" fill="#759cdd"/><path d="m258.059 48.617s8.591 16.792-8.636 37.491l-101.036 40.292s34.328-65.428 109.672-77.783z" fill="#bcd7fe"/><path d="m143.564 106.7s65.72-79.9 124.506-96.421c0 0 11.238 24.172-16.69 43.767s-60.486 16.584-102.993 72.354z" fill="#697cb7"/><path d="m39.5 81.463s31.759 18.4 57.318 20.868l-1.9-23.525z" fill="#f28545"/><path d="m97.657 56.579s-39.248 17.628-70.714 23.093a1.224 1.224 0 0 0 .14 2.426l61.933 4.01z" fill="#ffc069"/><path d="m169.43 229.218-16.43-66.858c-9.2-5.86-21.013-7.918-20.165 21.16.855 29.344-19.278 29.475-34.627 25.38.086.095.167.191.254.286 29.722 32.266 70.968 20.032 70.968 20.032z" fill="#d3bbbb"/><path d="m86.189 65.008s-7.757 22.817 7.332 36.892c8.017 7.478 10.454 19.323 5.163 28.925q-.689 1.25-1.517 2.543s-28.433 43.554 1.292 75.82 70.971 20.032 70.971 20.032l-34.784-141.52s-22.171-25.354-48.457-22.692z" fill="#e3f8ff"/><path d="m147.646 140.591-30.507 7.562s-8.742 44.682 49.594 70.092z" fill="#bcd7fe"/><path d="m86.189 65.008s47.458 8.586 50.474 93.668c0 0-11.2 100.375 90.682 90.682 0 0 19.94-.949 21.432-18.854a25.508 25.508 0 0 0 -3.718-15.194c-7.54-12.552-33.511-49.195-71.61-80.776a39.7 39.7 0 0 1 -14.181-31.682 71.324 71.324 0 0 0 -9.568-37.637 41.521 41.521 0 0 0 -21.571-18.646 33.421 33.421 0 0 0 -22.949-.311c-15.753 5.542-18.991 18.75-18.991 18.75z" fill="#93c3fc"/><path d="m86.189 65.008s34.351 6.214 46.46 60.462l9.811 78.755c9.172 25.081 31.511 50.211 84.885 45.133 0 0 19.94-.949 21.432-18.854a25.508 25.508 0 0 0 -3.718-15.194c-1.333-2.218-3.242-5.19-5.691-8.753l-65.919-72.023a39.7 39.7 0 0 1 -14.181-31.682 71.324 71.324 0 0 0 -9.568-37.637 41.521 41.521 0 0 0 -21.571-18.646 33.421 33.421 0 0 0 -22.949-.311c-15.753 5.542-18.991 18.75-18.991 18.75z" fill="#93c3fc"/><path d="m239.366 206.559a373.479 373.479 0 0 0 -60.826-67.7l-43.215 2.429c.656 5.412 1.118 11.193 1.338 17.392 0 0-2.53 22.752 5.8 45.546 11.383 8.6 26.3 16.282 45.873 21.5a32.182 32.182 0 0 0 37.514-17.246q.3-.641.587-1.309s4.848 1.519 12.929-.612z" fill="#759cdd"/><circle cx="109.111" cy="76.022" fill="#e3f8ff" r="10.758"/><path d="m112.665 143.225c126.774-52.364 185.312-40.894 185.312-40.894s.9 21.8-23.271 30.085c0 0 .888 23.5-25.849 32.446 0 0-4.584 21.034-31.66 27.747 0 0-10.054 28.866-47.767 14.769a102.371 102.371 0 0 1 -30.642-18.384z" fill="#e3f8ff"/><path d="m275.139 128.942c-21.379-2.66-52.206-1.171-78.056 1.034-1.147-12.9 9.317-18.8 18.072-21.475-28.948 5.913-65.386 16.347-109.17 34.432 2.611 9.541 13.8 29.771 32.8 46.061-5.111-8.3-2.225-13.18 1.283-15.864 3.975.452 8.38 1.046 13.091 1.829a3.441 3.441 0 0 0 .578.048 3.5 3.5 0 0 0 .569-6.954c-2.894-.481-5.664-.89-8.3-1.244a14.324 14.324 0 0 1 6.732-10.834c11.457-.825 26.793-1.143 37.909 1.588 4.121 1.014 8.33 2.113 12.4 3.177 15.284 3.993 29.812 7.79 41.787 7.79q2.221 0 4.323-.182a3.5 3.5 0 0 0 -.613-6.973c-11.5 1.011-27.157-3.078-43.728-7.409-4.094-1.069-8.327-2.176-12.5-3.2a94.04 94.04 0 0 0 -18.511-2.28c.1-4.778 3.025-7.878 6.814-9.886 27.813-2.861 68.2-5.878 93.646-2.711a3.5 3.5 0 1 0 .866-6.947z" fill="#bcd7fe"/><path d="m218.929 189.567a169.368 169.368 0 0 0 -33.777-14.316 3.5 3.5 0 0 0 -2.064 6.69 162.259 162.259 0 0 1 32.378 13.71 3.5 3.5 0 0 0 3.463-6.084z" fill="#bcd7fe"/><path d="m171.489 171.523-1.261-.3a3.5 3.5 0 1 0 -1.6 6.814l1.223.291a3.5 3.5 0 0 0 1.634-6.807z" fill="#bcd7fe"/><path d="m169.43 130.681c42.8-20.248 102.961-28.354 128.547-28.35a38.887 38.887 0 0 0 26.333-15.6 11.107 11.107 0 0 0 -9.789-17.769c-128.941 11.008-208.536 73.971-208.536 73.971s20.648 7.996 63.445-12.252z" fill="#93c3fc"/><g fill="#3e3e54"><circle cx="109.111" cy="76.022" r="6.135"/><path d="m271.244 8.806a3.5 3.5 0 0 0 -4.121-1.893c-36.083 10.142-74.393 43.216-100.176 69.176a3.5 3.5 0 0 0 4.967 4.934c24.427-24.595 60.238-55.691 93.949-66.426 1.735 6.453 3.45 22.594-16.492 36.587-8.382 5.881-17.381 9.731-26.908 13.809a227.017 227.017 0 0 0 -26.414 12.759 3.5 3.5 0 1 0 3.527 6.047 221.531 221.531 0 0 1 25.641-12.371c9.872-4.224 19.2-8.215 28.175-14.514 1.007-.706 1.963-1.42 2.877-2.138a28.383 28.383 0 0 1 .039 9.6 3.5 3.5 0 0 0 2.891 4.017 3.49 3.49 0 0 0 4.017-2.892 34.026 34.026 0 0 0 -1.071-16.023c18.616-19.414 9.21-40.434 9.099-40.672z"/><path d="m13.177 84.705 22.01 1.425a32.247 32.247 0 0 1 11.713 3.026c9.647 4.562 30.263 13.711 44.9 16.054.028.005.056 0 .084.007 6.4 6.565 7.962 16.246 3.735 23.918-.428.778-.9 1.564-1.383 2.319a90.651 90.651 0 0 0 -10.983 26.946c-4.7 20.7-.337 39.079 12.632 53.157 17.8 19.317 39.515 23.434 54.789 23.434 2.743 0 5.266-.136 7.534-.338.113.1.22.212.333.314a69.368 69.368 0 0 0 29.34 15.41c-2 18.981-3.956 51.83 2.971 73.768a12.854 12.854 0 0 0 12.138 9.07h.617a12.92 12.92 0 0 0 11.928-8.543 64.383 64.383 0 0 0 3.139-12.947 73.822 73.822 0 0 0 14.366 17.9 11.822 11.822 0 0 0 19.655-7.6 48.6 48.6 0 0 0 .153-7.285 68.3 68.3 0 0 0 19.655 13.21 12.831 12.831 0 0 0 5.057 1.048 12.636 12.636 0 0 0 7.683-2.619 12.843 12.843 0 0 0 4.845-11.519 95.93 95.93 0 0 0 -8.569-30.412c-8.738-18.971-22.967-44.032-29.2-54.817a28.955 28.955 0 0 0 -4.256-16.116c-1.435-2.389-4.67-7.536-10.216-15.164a3.5 3.5 0 0 0 -5.042-.656 3.631 3.631 0 0 0 -.509 4.926c5.32 7.326 8.4 12.223 9.767 14.5a21.869 21.869 0 0 1 3.23 13.1c-1.214 14.575-17.431 15.614-18.109 15.65l-.165.011c-54.158 5.158-75.264-21.588-83.062-48.315a102.72 102.72 0 0 0 24.252 13.1 58.593 58.593 0 0 0 20.383 4.11 35.528 35.528 0 0 0 15.273-3.252 33.742 33.742 0 0 0 15.883-15.956c22.875-6.347 30.1-22.372 31.972-28 21.88-8.169 25.7-25.969 26.353-32.669 18.713-7.457 22.478-22.954 23.223-29.588a42.047 42.047 0 0 0 25.8-16.466 14.606 14.606 0 0 0 -12.872-23.374 451.654 451.654 0 0 0 -151.415 40.308c-.047-.945-.067-1.892-.042-2.836a74.378 74.378 0 0 0 -10.034-39.471 45.1 45.1 0 0 0 -23.411-20.193 36.69 36.69 0 0 0 -25.306-.324 33.827 33.827 0 0 0 -18.516 14.951h-.007c-17.3 7-49.643 18.863-72.1 19.8a3.579 3.579 0 0 0 -3.4 2.7 3.5 3.5 0 0 0 3.184 4.298zm71.84 11.945a162.567 162.567 0 0 1 -25.117-8.92l22.115 1.432a33.165 33.165 0 0 0 3.002 7.488zm142.583 156.2c6.368-.329 17.394-3.662 22.293-13.385 7.042 12.367 18.071 32.277 25.271 47.906a88.827 88.827 0 0 1 7.99 28.478 5.441 5.441 0 0 1 -2.249 5.028 5.682 5.682 0 0 1 -5.644.63c-28.125-12.041-44.89-49.6-51.708-68.332 1.335-.092 2.681-.196 4.047-.325zm-11.369.638c4.366 12.4 13.655 34.884 28.556 52.675.009.083 0 .164.021.248a53 53 0 0 1 .926 14.893 4.734 4.734 0 0 1 -3.035 4.006 4.794 4.794 0 0 1 -5-.918c-17.786-15.818-25.42-43.5-28.691-63.93a3.5 3.5 0 0 0 -6.912 1.108c1.837 11.472 5.011 25.139 10.492 38.006 0 .02-.007.038-.007.057-.1 8.75-1.32 16.375-3.622 22.664a6.055 6.055 0 0 1 -11.424-.259c-6.633-21-4.4-54.182-2.766-70.149 6.009 1.074 20.714 1.611 21.46 1.599zm58.05-124.647c-28.153-3.32-71.986.309-99.691 3.324 38.443-17.153 91.778-25.56 119.612-26.278-.896 5.779-4.623 17.397-19.923 22.954zm40.54-56.394a7.606 7.606 0 0 1 6.7 12.163 35.263 35.263 0 0 1 -23.788 14.22c-22.838.047-84.139 7.083-129.8 28.686-26.271 12.43-43.9 13.882-53.107 13.344a357.238 357.238 0 0 1 48.794-27.728 444.364 444.364 0 0 1 151.199-40.685zm-208.483-22.887a29.852 29.852 0 0 1 20.592.3 38.1 38.1 0 0 1 19.731 17.1 67.465 67.465 0 0 1 9.107 35.805 44.59 44.59 0 0 0 .28 6.254c-7.89 3.861-14.934 7.609-21.1 11.093a109.866 109.866 0 0 0 -11.148-27.898 3.5 3.5 0 1 0 -6.045 3.53 104.429 104.429 0 0 1 10.882 28.008 241.471 241.471 0 0 0 -24.826 16.435 3.5 3.5 0 0 0 .908 6.009c.4.154 4.844 1.793 13.452 1.792 7.5 0 18.145-1.245 32.018-5.792 5.235-.722 79.568-10.792 120.821-6.668-.785 6.046-4.614 19.582-22.872 25.872-11.463.882-26.938-3.153-43.317-7.434-4.094-1.069-8.327-2.176-12.5-3.2-21.285-5.234-55.082-.276-56.51-.063a3.5 3.5 0 0 0 1.035 6.923c.336-.051 33.865-4.962 53.805-.063 4.121 1.014 8.33 2.113 12.4 3.177 14.849 3.879 28.977 7.563 40.75 7.77-2.762 5.835-9.754 15.866-26.158 20.353a170.694 170.694 0 0 0 -32.494-13.612 3.5 3.5 0 0 0 -2.064 6.69 165.707 165.707 0 0 1 29.528 12.146 26.682 26.682 0 0 1 -11.83 11.137c-8.027 3.727-18.167 3.347-30.13-1.125-19.9-7.44-34.345-20.833-43.694-32.117a254.826 254.826 0 0 1 26.2 2.977 3.441 3.441 0 0 0 .578.048 3.5 3.5 0 0 0 .569-6.954 247.275 247.275 0 0 0 -32.927-3.331c-2.141-3.007-3.827-5.657-5.054-7.713a3.5 3.5 0 0 0 -6.011 3.588c1.48 2.479 3.587 5.771 6.326 9.515.024.035.051.067.076.1a129.294 129.294 0 0 0 18.3 20.163c2.96 15.072 8.61 27.674 16.834 37.6-13.933.205-34.293-3.225-50.82-21.164-11.458-12.437-15.159-28.137-11-46.664a85.085 85.085 0 0 1 10.077-24.893c.583-.907 1.135-1.831 1.638-2.745 5.941-10.783 3.539-24.425-5.841-33.175-13.157-12.271-6.531-32.824-6.4-33.207.016-.049.02-.1.034-.147s.038-.093.051-.144c.028-.108 2.946-11.423 16.749-16.276zm-24.274 17.24a50.288 50.288 0 0 0 -1.257 15.271l-37.533-2.432a369.521 369.521 0 0 0 38.79-12.839z"/><path d="m168.632 178.039s1.772.388 2.043.388a3.5 3.5 0 0 0 .814-6.9l-1.261-.3a3.5 3.5 0 1 0 -1.6 6.814z"/></g></svg>