<svg id="icons" height="512" viewBox="0 0 340 340" width="512" xmlns="http://www.w3.org/2000/svg"><path d="m82.947 249.138a91 91 0 0 0 -34.281 18.108 26.224 26.224 0 0 1 -10.516 5.5 36.727 36.727 0 0 0 -19.971 13.064 7.832 7.832 0 0 0 6.142 12.682h85.616s60.535-6.941 83.284-62.849z" fill="#d2905f"/><path d="m101.694 64.223s-39.76-13.5-62.376 23.71-20.792 67.483 2.188 84.992z" fill="#af5a56"/><path d="m160.423 54.009s-45.232-20.427-71.131 18.239c-14.837 22.152-31.948 55.914-43.859 80.714 40.681 50.078 77.945-20.562 114.99-98.953z" fill="#d88178"/><path d="m160.423 54.009a72.717 72.717 0 0 0 -24.741-5.348l-53.514 96.174a26.19 26.19 0 0 1 -21.178 13.609c-10.542.609-15.55-5.474-15.556-5.481-4.458 9.282-8.193 17.318-10.8 23.009a42.245 42.245 0 0 0 -1.47 32.242c3.739 10.075 11.946 20.552 29.5 24.9z" fill="#af5a56"/><path d="m208.573 215.239 22.251-80.989s-1.8-48.141-33.181-79.876a56.9 56.9 0 0 0 -16.643-10.985 23.662 23.662 0 0 0 -29.951 10.467l-69.755 126.729s-6.112 33.668 14.24 50.86 113.039-16.206 113.039-16.206z" fill="#d88178"/><path d="m122.948 197.708c-30.052 3-39.057-10.46-41.654-17.123l-25.735 46.751a19.579 19.579 0 0 0 3.862 23.941c10.941 9.9 31.391 21.319 64.889 15.791 55.446-9.15 84.263-51.829 84.263-51.829l22.251-80.989a144.558 144.558 0 0 0 -9.565-42.418c-8.743 61.51-67.712 102.816-98.311 105.876z" fill="#af5a56"/><path d="m211.369 180.7c-13 33.1-43.213 91.5-101.432 117.791h122.791a37.807 37.807 0 0 0 24.935-9.245c16.78-14.7 41.081-48.074 18.617-108.258z" fill="#ffd6a3"/><g fill="#d2905f"><path d="m220.311 216.226c.5.209 8.592 3.5 21.765 3.5a87.1 87.1 0 0 0 23.59-3.357 3.5 3.5 0 1 0 -1.893-6.738c-24.1 6.765-40.573.216-40.772.135a3.5 3.5 0 0 0 -2.69 6.463z"/><path d="m269.617 240.147a3.5 3.5 0 0 0 -4.266-2.51l-1.076.274a3.5 3.5 0 1 0 1.7 6.789l1.131-.287a3.5 3.5 0 0 0 2.511-4.266z"/><path d="m203.771 244.141c.639.224 12.746 4.367 30.907 4.367a119.612 119.612 0 0 0 16.085-1.087 3.5 3.5 0 1 0 -.942-6.936c-25.032 3.395-43.559-2.889-43.743-2.953a3.5 3.5 0 0 0 -2.307 6.609z"/><path d="m251.167 268.758c-29.225 9.544-66.235.04-66.607-.058a3.5 3.5 0 0 0 -1.779 6.769 164.232 164.232 0 0 0 37.988 4.583c10.485 0 21.913-1.159 32.572-4.64a3.5 3.5 0 1 0 -2.174-6.654z"/><path d="m276.273 180.992a207.035 207.035 0 0 0 -9.408-21.306l-47.425-3.086a215.747 215.747 0 0 1 -8.074 24.1c4.8 3.2 14.693 9.482 34.63 9.482 13.013 0 24.29-4.526 30.277-9.19z"/></g><path d="m302.585 167.989a12.248 12.248 0 1 0 19.461 2.824c-.013-.024-.028-.047-.041-.071-9.294-16.8-28.21-29.443-36.654-34.445 0 0-.429 6.514-6.109 17.124 9.264 1.862 18.463 9.402 23.343 14.568z" fill="#ffd6a3"/><path d="m164.719 169.01a12.181 12.181 0 0 0 -1.754 8.028 12.251 12.251 0 1 0 23.356-6.513c6.486-8.909 18.045-12.123 25.045-13.072-6.942-11.036-8.6-19.615-8.6-19.615-25.586 8.291-38.047 31.171-38.047 31.172z" fill="#ffd6a3"/><path d="m295.39 43.771a13.739 13.739 0 0 0 -7.743 2.376l-.009.008a13.852 13.852 0 0 0 -3.122 2.938c-6.118 6.191-19.309 21.877-22.157 44.266a42.6 42.6 0 0 0 -34.081-1.272 135.433 135.433 0 0 0 -15.367-35.4 18.181 18.181 0 0 0 -13.926-8.706c-.236-.018-.477-.033-.721-.045-7.5-.357-14.336 5.312-14.671 12.812a13.451 13.451 0 0 0 21.866 11.112 69.714 69.714 0 0 1 7.354 30.729 42.4 42.4 0 0 0 -11.524 29.111 42.888 42.888 0 0 0 .447 6.142s1.507 8.849 8.45 19.885a42.8 42.8 0 0 0 13.536 11.473c2 .132 4.18 1.279 6.421 2.8a42.744 42.744 0 0 0 27.506-.028 9.546 9.546 0 0 1 6.527-2.871 42.767 42.767 0 0 0 16.062-15.313c5.68-10.61 5.864-17.015 5.864-17.015a42.957 42.957 0 0 0 .312-5.077 42.362 42.362 0 0 0 -8.681-25.752c-.779-9.711.124-25.087 10.864-36.361a13.8 13.8 0 1 0 6.793-25.812z" fill="#ffd6a3"/><circle cx="196.642" cy="61.118" fill="#3e3e54" r="6.149"/><circle cx="295.242" cy="57.935" fill="#3e3e54" r="6.149"/><path d="m232.727 301.992a41.275 41.275 0 0 0 27.242-10.111c17.7-15.5 43.63-51.082 18.417-115.178a3.5 3.5 0 1 0 -6.514 2.562c23.644 60.109-.2 93.059-16.515 107.35a34.276 34.276 0 0 1 -22.63 8.377h-108.235c51.661-29.5 78.856-83.671 90.846-114.842a3.5 3.5 0 0 0 -6.533-2.514c-6.951 18.07-19.16 44.093-38.456 68.185a3.444 3.444 0 0 0 -.675.322 124.891 124.891 0 0 1 -45.933 17.472c-31.791 5.243-51.241-5.225-61.972-14.933a15.989 15.989 0 0 1 -3.143-19.659l95.493-173.479a20.161 20.161 0 0 1 23.856-9.559 3.5 3.5 0 1 0 2.176-6.654 27.087 27.087 0 0 0 -28.793 8.053c-13.872-3.434-37.065-5.371-55.624 11.867-12.067-2.027-41.134-3.2-59.407 26.864-21.122 34.749-22.135 64.569-2.967 84.254-.686 1.485-1.326 2.875-1.908 4.145a46.017 46.017 0 0 0 -1.57 34.918 41.055 41.055 0 0 0 12.018 17.322 3.5 3.5 0 0 0 4.52-5.344 34.145 34.145 0 0 1 -9.976-14.41 38.977 38.977 0 0 1 1.371-29.567c9.617-20.988 34.167-73.055 54.385-103.233 16.083-24.015 40.147-23.724 54.993-20.587l-94.7 172.039a22.964 22.964 0 0 0 4.579 28.224q.958.867 2 1.739a93.085 93.085 0 0 0 -12.671 8.963 22.588 22.588 0 0 1 -9.108 4.782 40.1 40.1 0 0 0 -21.863 14.284 11.332 11.332 0 0 0 8.891 18.348zm-196.169-138.492c-14.768-17.251-12.8-43.227 5.751-73.752 13.79-22.689 34.1-25.419 47.574-24.2-1.2 1.486-2.366 3.06-3.5 4.752-17.53 26.172-38.157 68.32-49.825 93.2zm-16.125 129.056a4.255 4.255 0 0 1 .5-4.581 33.142 33.142 0 0 1 18.067-11.83 29.516 29.516 0 0 0 11.924-6.227 87.067 87.067 0 0 1 14.278-9.757c9.789 6.452 23.522 11.863 42.094 11.862a108.029 108.029 0 0 0 17.582-1.5 130.07 130.07 0 0 0 32.236-9.758 161.345 161.345 0 0 1 -47.968 34.229h-84.825a4.237 4.237 0 0 1 -3.888-2.438z" fill="#3e3e54"/><path d="m325.047 169.011c-8.908-16.077-25.177-27.9-35.251-34.1.079-1.091.118-2.156.118-3.219a45.618 45.618 0 0 0 -8.764-27.022c-.593-9.112.532-21.3 8.349-30.83a17.235 17.235 0 0 0 8.429.851 17.306 17.306 0 0 0 -2.538-34.424 17.221 17.221 0 0 0 -9.708 2.979c-.036.024-.071.049-.105.073a17.349 17.349 0 0 0 -3.688 3.448c-5.637 5.742-18.219 20.533-22.281 41.633a46.2 46.2 0 0 0 -28.967-.83 140.265 140.265 0 0 0 -14.755-32.72 21.724 21.724 0 0 0 -16.627-10.35c-.272-.022-.548-.038-.829-.052a18 18 0 0 0 -12.858 4.645 16.508 16.508 0 0 0 -5.472 11.507 16.945 16.945 0 0 0 23.82 16.263 65.571 65.571 0 0 1 5.387 24.378 45.871 45.871 0 0 0 -11.518 30.459c0 1.242.053 2.5.156 3.76-23.918 8.97-35.183 29.723-36.279 31.836a15.616 15.616 0 0 0 -2.174 10.185 15.752 15.752 0 0 0 31.375-2.01 15.591 15.591 0 0 0 -.6-4.3c5.13-6.029 12.483-8.6 18.469-9.674a46.057 46.057 0 0 0 73.073-3.692c6.424 2 12.26 6.725 16.116 10.451a15.752 15.752 0 0 0 11.531 24.031 16.044 16.044 0 0 0 1.776.1 15.751 15.751 0 0 0 13.893-23.234c-.025-.053-.051-.097-.078-.142zm-93.792-.331a109.392 109.392 0 0 1 11.571-11.768 8.806 8.806 0 0 1 11.029-.467 55.144 55.144 0 0 1 9.739 8.985 39.222 39.222 0 0 1 -32.339 3.25zm85.839 14.48a8.674 8.674 0 0 1 -6.858 2.166 8.749 8.749 0 0 1 -5.171-14.868 3.5 3.5 0 0 0 .064-4.873c-5.511-5.835-14.184-13.213-24.2-15.229a3.507 3.507 0 0 0 -3.681 1.612 39.459 39.459 0 0 1 -7.944 9.387 60.644 60.644 0 0 0 -11.291-10.542 15.771 15.771 0 0 0 -19.754.794 116.422 116.422 0 0 0 -13.645 14.106 39.227 39.227 0 0 1 -11.661-10.133 3.5 3.5 0 0 0 -3.238-1.325c-8.037 1.09-19.112 4.441-26.223 14.211a3.5 3.5 0 0 0 -.372 3.474 8.672 8.672 0 0 1 .747 3.527 8.751 8.751 0 1 1 -16.177-4.609c.056-.089.108-.182.156-.275.108-.216 11.165-21.7 34.969-29.415a3.5 3.5 0 0 0 2.385-3.831 39.7 39.7 0 0 1 -.411-5.641 38.907 38.907 0 0 1 10.577-26.713 3.493 3.493 0 0 0 .947-2.369 73.179 73.179 0 0 0 -7.721-32.314 3.5 3.5 0 0 0 -5.326-1.164 9.954 9.954 0 0 1 -16.178-8.223 9.561 9.561 0 0 1 3.2-6.648 10.886 10.886 0 0 1 7.806-2.825c.208.01.414.023.62.038a14.708 14.708 0 0 1 11.219 7.059 131.583 131.583 0 0 1 14.959 34.448 3.5 3.5 0 0 0 4.666 2.362 39.1 39.1 0 0 1 31.275 1.166 3.5 3.5 0 0 0 5-2.709c2.743-21.566 15.722-36.73 21.175-42.249a3.869 3.869 0 0 0 .267-.3 10.35 10.35 0 0 1 2.334-2.2l.057-.04a10.307 10.307 0 0 1 15.969 9.72 10.292 10.292 0 0 1 -15.308 7.81 3.5 3.5 0 0 0 -4.261.631c-11.4 11.965-12.718 27.841-11.819 39.054a3.511 3.511 0 0 0 .7 1.84 38.7 38.7 0 0 1 7.966 23.632 39.413 39.413 0 0 1 -.287 4.666 3.5 3.5 0 0 0 1.691 3.422c7.407 4.389 25.608 16.354 34.631 32.665.009.017.025.045.041.071l.006.011a8.641 8.641 0 0 1 1.02 4.1 8.761 8.761 0 0 1 -2.921 6.523z" fill="#3e3e54"/></svg>