<svg id="icons" height="512" viewBox="0 0 340 340" width="512" xmlns="http://www.w3.org/2000/svg"><path d="m295.908 90.132a19.048 19.048 0 1 1 -9.453-16.464l9.191 13.3a19.13 19.13 0 0 1 .262 3.164z" fill="#fff"/><path d="m262.013 180.835s7.059 27.778 39.912 32.165a21.327 21.327 0 0 0 14.675-3.645 9.523 9.523 0 0 1 8.845-1.335c7.582 2.774 7.4 11.836 7.4 11.836s-.185 4.438-3.329 6.287a11.884 11.884 0 0 1 4.993 11.836s-2.034 10.541-12.76 9.247a13.762 13.762 0 0 1 -8.545-4.21s-44.716 9.388-66.168-27.969z" fill="#ce9b76"/><path d="m294.842 146.672a59.549 59.549 0 0 0 -10.645 8.64c-8.358 6.815-15.577 13.835-15.437 22.174a55.62 55.62 0 0 0 -2.217 6.836c-6.741 26.483-40.749 115-186.842 58.775l-10.158-1.097-.274-20.042s160.331-103.501 161.153-103.776 64.42 28.49 64.42 28.49z" fill="#ffeee4"/><path d="m292.074 147.812a84.1 84.1 0 0 1 -62.26-8.1s-11.547 2.64-20.454 22.433c0 0-6.093 21.182-18.007 33.883a28.108 28.108 0 0 0 -6.658 11.125c-2.28 7.7-1.924 18.86 14.109 26.579 0 0 9.243 4.641 24.575 3.354 0 0 22.983-11.717 19.3 10.832a12.523 12.523 0 0 1 4.618 12.866c-1.979 8.247-7.917 7.917-7.917 7.917s.33 10.227-12.536 9.9c0 0-8.907.528-14.516-5.179 0 0-53.442 2.87-64.329-55.192-2.982-.6-6.7-.12-10.731.835a152.22 152.22 0 0 1 -24.311-.72 39.288 39.288 0 0 0 -11.473-2.094s-1.32 21.113-26.721 22.433l12.809 7.689c4.827 4.188 9.413 10.241 10.463 18.524a10.164 10.164 0 0 1 -9.654 11.323c-20.634 1.015-70.011-2.8-82.787-60.3 0 0-3.836-24.517 16.96-31.069l10.972-1.59s-24.082-33.98 13.2-73.237a113.591 113.591 0 0 1 58.374-33.319 82.344 82.344 0 0 1 33.745-.164c10.943 2.184 28.094 5.08 36.748 3.794 0 0 11.666-20.844 35.415-18.8a36.859 36.859 0 0 1 22.354 10.988 11.262 11.262 0 0 0 7.164 3.828 88.931 88.931 0 0 0 9.969-.326 7.162 7.162 0 0 0 5.571-3.388c.187-.294.638-1.209.638-1.209a15.922 15.922 0 0 1 7.618-5.744 7.284 7.284 0 0 1 9.664 6.42c.358 5.674 2.894 14.17 12.76 22.96a43.652 43.652 0 0 1 10.394 13.448c3.732 7.7 6.926 19.013 2.975 31.6a11.529 11.529 0 0 1 -8.041 7.7z" fill="#efbe97"/><circle cx="207.579" cy="97.927" fill="#fff" r="21.353"/><circle cx="207.579" cy="97.927" fill="#3e3e54" r="8.262"/><g fill="#af7456"><path d="m62.219 120.624a9.449 9.449 0 0 1 13.981 10.331 13.187 13.187 0 0 1 -1.506 3.893c-1.491 2.535-4.362 3.5-7.441 3.7-8.534.546-13.673-9.423-7.842-15.677a12.4 12.4 0 0 1 2.808-2.247z"/><path d="m111.788 114.635a21.342 21.342 0 0 0 -5.156 7.087 8.026 8.026 0 0 0 4.324 10.673 25.227 25.227 0 0 0 6.308 1.528 8.059 8.059 0 0 0 8.576-5.375c1.434-4.142 1.814-9.8-3.755-14.281a7.933 7.933 0 0 0 -10.297.368z"/><path d="m134.777 156.981a6.877 6.877 0 0 1 9.4 4.834 15.484 15.484 0 0 1 -2.627 13.024c-4.508 6.147-10.708 2.221-14.478-1.255a6.76 6.76 0 0 1 -1.308-8.3 19.041 19.041 0 0 1 9.013-8.303z"/><path d="m168.364 110a8.561 8.561 0 0 0 -9.828-6.437 12.218 12.218 0 0 0 -9.119 6.624c-2.763 5.427.46 9.319 3.615 11.616a8.53 8.53 0 0 0 9.2.493c3.568-2.023 7.605-5.819 6.132-12.296z"/><path d="m64.034 224.791a26.048 26.048 0 0 0 5.914 1.043 6.536 6.536 0 0 0 6.888-7.485 9.742 9.742 0 0 0 -7.567-8.545c-6.621-1.739-8.9 3.421-9.663 7.667a6.466 6.466 0 0 0 4.428 7.32z"/><path d="m153.564 186.08s14.421 3.518 11.171 14.518-17.751 4-17.751 4-.239-10.686 6.58-18.518z"/><path d="m45.435 196.434a1.409 1.409 0 0 0 .8-2.632 51.817 51.817 0 0 1 -12.751-10.465h-.092a37.716 37.716 0 0 0 -10.816 1.581c6.224 8.81 16.17 11.082 22.859 11.516z"/><path d="m87.59 246.388a44.019 44.019 0 0 0 -12.826-7.7c-18.164-.652-29.364-5.723-35.424-9.688a1.888 1.888 0 0 0 -2.524 2.736c5.084 6.802 18.005 15.603 50.774 14.652z"/><path d="m104.59 216.973c2.745.584 5.556 1.033 8.368 1.369-2.571-21.356-16.441-30.892-26.56-35.049a1.77 1.77 0 0 0 -1.785 3.021c7.85 6.176 17.781 16.7 16.872 29.937z"/><path d="m75.482 278.321a3.5 3.5 0 0 1 -3.482-3.176 15.452 15.452 0 0 0 -10.773-13.6 3.5 3.5 0 0 1 1.781-6.77 22.375 22.375 0 0 1 15.962 19.725 3.5 3.5 0 0 1 -3.16 3.81c-.11.006-.22.011-.328.011z"/><path d="m90.881 277.535a3.5 3.5 0 0 1 -3.483-3.2 23.107 23.107 0 0 0 -11.31-17.775 3.5 3.5 0 1 1 3.2-6.228 30.069 30.069 0 0 1 15.088 23.395 3.5 3.5 0 0 1 -3.184 3.791c-.107.013-.209.017-.311.017z"/><path d="m161.47 179.449a1.239 1.239 0 0 0 -1.378-2.03c-9.4 4.59-23.83 15.875-22.824 41.646 6.45-.294 10.732-.835 10.732-.835s-4.168-22.696 13.47-38.781z"/><path d="m187.18 163.345a10.862 10.862 0 0 1 -4.948-1.209l-.243-.127a3.5 3.5 0 1 1 3.31-6.168l.1.052a3.7 3.7 0 0 0 4.191-.461 4.074 4.074 0 0 0 1.309-4.347 7.53 7.53 0 0 0 -1.521-2.779 3.521 3.521 0 0 1 .08-4.934 3.479 3.479 0 0 1 4.9.015 14.307 14.307 0 0 1 3.25 5.7 11.111 11.111 0 0 1 -3.544 11.723 10.736 10.736 0 0 1 -6.884 2.535z"/><path d="m277.9 129.867a3.5 3.5 0 0 1 -2.971-1.645 9.148 9.148 0 0 0 -2.394-1.923 3.5 3.5 0 0 1 3.482-6.073 15.215 15.215 0 0 1 4.848 4.287 3.5 3.5 0 0 1 -2.965 5.354z"/><path d="m173.175 98.336a51.205 51.205 0 0 1 2.42-18 47.587 47.587 0 0 1 -9.264.18c-1.8 8.94.474 15.21 3.084 19.155a2.064 2.064 0 0 0 3.76-1.335z"/><path d="m61.258 178.069a3.7 3.7 0 0 1 -.417-.024c-6.881-.818-11.278-5.274-11.762-11.922-.528-7.261 6.1-10.653 9.679-11.433a3.5 3.5 0 0 1 1.511 6.835c-.217.051-4.427 1.08-4.208 4.09.087 1.2.353 4.855 5.606 5.479a3.5 3.5 0 0 1 -.409 6.975z"/><path d="m239.376 272.2a3.5 3.5 0 0 1 -3.474-3.116c-.422-3.824-2.531-5.939-7.051-7.069-1.906-.477-4.759.255-7.829 2a13.175 13.175 0 0 1 -6.9 1.748c-10.609-.283-15.719-3.946-16.267-4.363a3.5 3.5 0 0 1 4.2-5.6c.147.1 4.041 2.745 12.252 2.963a6 6 0 0 0 3.25-.832c3.315-1.89 8.262-3.9 12.992-2.714 7.415 1.854 11.557 6.258 12.311 13.092a3.5 3.5 0 0 1 -3.1 3.863 3.617 3.617 0 0 1 -.384.028z"/><path d="m216.606 252.471c-7.849 0-12.067-1.725-12.522-1.922a3.5 3.5 0 0 1 2.751-6.437c.116.046 3.466 1.359 9.772 1.359h.024a9.466 9.466 0 0 0 4.759-1.24 21.517 21.517 0 0 1 23.2.759 3.5 3.5 0 1 1 -3.827 5.861c-6.554-4.281-12.24-2.67-15.857-.568a16.483 16.483 0 0 1 -8.275 2.188z"/><circle cx="91.613" cy="98.187" r="3.899"/><circle cx="101.543" cy="172.336" r="3.899"/><circle cx="28.506" cy="209.458" r="3.899"/><circle cx="144.619" cy="136.42" r="3.899"/><circle cx="182.046" cy="242.624" r="3.899"/></g><path d="m295.624 86.968a19.043 19.043 0 0 0 -9.179-13.283 8.256 8.256 0 0 0 9.179 13.283z" fill="#3e3e54"/><path d="m336.341 219.927c.01-.472.124-11.6-9.694-15.195a12.91 12.91 0 0 0 -12 1.717 17.868 17.868 0 0 1 -12.261 3.082c-10.281-1.373-18.93-5.315-25.7-11.719a3.5 3.5 0 1 0 -4.808 5.088c7.864 7.433 17.818 12 29.586 13.569a24.83 24.83 0 0 0 17.088-4.207 6.028 6.028 0 0 1 5.692-.955c4.911 1.8 5.095 7.779 5.1 8.427-.056.725-.449 2.713-1.6 3.393a3.5 3.5 0 0 0 -.064 5.994 8.3 8.3 0 0 1 3.39 8.224c-.292 1.339-1.976 7.236-8.9 6.406a10.215 10.215 0 0 1 -6.43-3.15 3.494 3.494 0 0 0 -3.249-1.011c-.372.075-36.869 7.252-57.91-19.6a117.377 117.377 0 0 0 15.359-34.8 50.516 50.516 0 0 1 8.352-17.7c8.523-11.509 17.014-16.981 18.179-17.7a14.96 14.96 0 0 0 6.99-8.621c4.353-13.872.682-26.243-3.164-34.178a43.219 43.219 0 0 0 -3.618-6.091 22.552 22.552 0 0 0 -19.822-33.315c-.19 0-.38.014-.57.019a10.756 10.756 0 0 0 -13.116-5.216 19.351 19.351 0 0 0 -9.212 6.891l-.049.062c-.281.385-.541.762-.77 1.121a3.85 3.85 0 0 1 -2.927 1.815 77.9 77.9 0 0 1 -9.561.106 6.983 6.983 0 0 1 -4.726-2.243 40.225 40.225 0 0 0 -24.612-12.087c-21.988-1.886-34.346 13.836-37.785 19-6.6.532-18.543-.854-33.992-3.938a85.349 85.349 0 0 0 -35.18.178 117.509 117.509 0 0 0 -60.168 34.329c-20.171 21.242-22.837 41.147-21.521 54.1a56.383 56.383 0 0 0 5.119 18.429c-8.074 1.055-14.415 4.253-18.9 9.544-9.126 10.774-6.85 26.121-6.748 26.77.012.073.025.145.041.218 13.349 60.07 64.853 64.1 86.376 63.036a13.842 13.842 0 0 0 9.894-4.917 13.324 13.324 0 0 0 3.06-10.342c-1.519-11.978-9.435-19.685-16.071-24.135a27.989 27.989 0 0 0 18.781-19.844c15.973 3.33 33.8 2.227 40.99 1.566 3.657 16.491 10.78 27.94 18.755 35.884-15.849-.08-33.329-2.7-52.1-7.852a3.5 3.5 0 0 0 -1.851 6.752c19.672 5.391 38.032 8.11 54.707 8.11q3.756 0 7.4-.186a63.851 63.851 0 0 0 10.713 6.046 72.355 72.355 0 0 0 28.158 6.149c5.563 4.746 12.866 5.166 15.273 5.166.275 0 .486-.006.624-.011 5.266.128 9.362-1.293 12.226-4.177a13.038 13.038 0 0 0 3.414-6.245c3.072-1.053 6.69-3.867 8.18-10.077a15.649 15.649 0 0 0 -4.3-15.06c.712-6.563-.752-11.219-4.366-13.858-6.406-4.674-16.7-.394-19.591.966-13.65 1-22-3.01-22.121-3.069-10.985-5.289-15.114-12.837-12.271-22.432a24.545 24.545 0 0 1 5.854-9.724c11.78-12.558 17.974-32.466 18.745-35.058 6.384-14.059 14.076-18.588 16.867-19.829a86.968 86.968 0 0 0 51.507 9.909 115.284 115.284 0 0 1 -24.712 16.293c-15.28 7.147-22.555 15.381-22.858 15.728a3.5 3.5 0 0 0 5.272 4.6c.066-.074 6.72-7.521 20.552-13.992 2.892-1.353 5.657-2.838 8.244-4.358a58.441 58.441 0 0 0 -4.371 11.736 108.373 108.373 0 0 1 -18.908 38.948 3.5 3.5 0 0 0 5.519 4.307c.208-.267.4-.535.6-.8 21.162 25.3 53.6 22.124 61.722 20.855a17.244 17.244 0 0 0 9.24 3.933 18.615 18.615 0 0 0 2.236.139c9.445 0 13.528-7.777 14.381-12.2.006-.034.013-.068.018-.1a15 15 0 0 0 -3.46-12.566 13.373 13.373 0 0 0 1.833-6.047zm-43.933-129.795a15.571 15.571 0 0 1 -.759 4.781c-.824-.838-1.673-1.665-2.572-2.466-7.485-6.669-10.312-13.023-11.238-17.822a15.564 15.564 0 0 1 14.569 15.507zm-60.9 46.524a3.5 3.5 0 0 0 -2.479-.352c-.541.124-13.353 3.269-22.865 24.408a3.373 3.373 0 0 0 -.172.469c-.059.2-5.99 20.508-17.2 32.456a31.448 31.448 0 0 0 -7.461 12.525c-2.232 7.533-3.128 21.543 15.9 30.7.413.209 10.3 5.075 26.439 3.713a3.5 3.5 0 0 0 1.292-.367c2.989-1.512 10.088-3.956 12.945-1.867 1.606 1.176 2.073 4.378 1.316 9.014a3.554 3.554 0 0 0 1.42 3.413 9.019 9.019 0 0 1 3.249 9.2c-1.151 4.8-3.722 5.208-4.366 5.233a3.306 3.306 0 0 0 -2.589.9 3.476 3.476 0 0 0 -1.058 2.664 6.548 6.548 0 0 1 -1.792 4.27c-1.479 1.449-3.892 2.142-7.155 2.058-.092 0-.195 0-.284 0-.072.008-7.438.327-11.825-4.136a3.516 3.516 0 0 0 -2.5-1.047c-.059 0-.118 0-.177 0a64.83 64.83 0 0 1 -26.732-5.64c-18.273-8.218-29.7-23.928-33.973-46.694-.062-.343-4.373-25.657 18.315-40.07a3.5 3.5 0 1 0 -3.752-5.908c-21.043 13.367-22.264 34.858-21.816 43.482-7.15.621-24.387 1.6-39.183-1.614-.815-21.914-26.745-35.756-27.9-36.359a3.5 3.5 0 0 0 -3.248 6.2c.254.134 25.443 13.606 24.133 32.686v.011.01c-.046.735-1.378 17.994-23.379 19.154-20.537.733-33.644-9.183-33.829-9.326a3.5 3.5 0 0 0 -4.3 5.52c.586.459 14.129 10.845 35.952 10.845.561 0 1.135-.017 1.708-.03 3.085 1.249 18.532 8.224 20.424 23.143a6.4 6.4 0 0 1 -1.48 4.964 6.819 6.819 0 0 1 -4.874 2.422c-19.739.983-66.93-2.685-79.169-57.429-.154-1.176-1.531-13.187 5.213-21.111 3.866-4.542 9.854-6.993 17.764-7.351a34.515 34.515 0 0 0 10.255 7.411 3.5 3.5 0 1 0 2.943-6.351 27.313 27.313 0 0 1 -8.888-6.734c-1.514-2.216-21.242-32.735 12.932-68.724a110.532 110.532 0 0 1 56.591-32.311 78.348 78.348 0 0 1 32.311-.15c10.065 2.009 22.931 4.148 32.18 4.173a19.367 19.367 0 0 0 -.348 6.378 3.5 3.5 0 1 0 6.957-.773 11.961 11.961 0 0 1 1.539-7.45c.032-.047.05-.1.079-.147s.054-.066.076-.1c.436-.771 10.937-18.841 32.135-17.03a33.286 33.286 0 0 1 20.012 9.893c1.411 1.541 5.33 6.23 6.671 9.548a3.5 3.5 0 1 0 6.49-2.623 22.122 22.122 0 0 0 -1.148-2.364c2.508.05 5.149-.019 7.885-.208a10.356 10.356 0 0 0 1.656-.268 24.668 24.668 0 0 0 1.537 6.36 3.5 3.5 0 0 0 6.537-2.5c-1.946-5.083-1-8.654-.646-9.662a12.365 12.365 0 0 1 5.707-4.194 3.782 3.782 0 0 1 5.011 3.338c.4 6.258 3.134 15.736 13.926 25.353a40.091 40.091 0 0 1 9.573 12.36c3.293 6.795 6.45 17.348 2.785 29.029a8 8 0 0 1 -3.675 4.574l-.014.006-.063.038a8.066 8.066 0 0 1 -1.851.748 81.188 81.188 0 0 1 -59.662-7.779z" fill="#3e3e54"/><path d="m207.579 73.074a24.853 24.853 0 1 0 24.853 24.853 24.881 24.881 0 0 0 -24.853-24.853zm0 42.706a17.853 17.853 0 1 1 17.853-17.853 17.873 17.873 0 0 1 -17.853 17.853z" fill="#3e3e54"/><path d="m266.78 92.35a3.5 3.5 0 1 0 -5.05 4.845c.321.336 2.992 2.949 5.948.984 1.61-1.07 1.346-3.592-.03-4.951q-.448-.441-.868-.878z" fill="#3e3e54"/></svg>