<svg id="icons" height="512" viewBox="0 0 340 340" width="512" xmlns="http://www.w3.org/2000/svg"><path d="m141.893 16.669a274.272 274.272 0 0 1 17.1 24.718c1.464 3.568 3.015 6.7 4.882 8.266 11.564 20.38 22.931 46.511 28 76.3l-59.2-16.943s-19.792-41.026-14.307-76.628c1.962-5.042 3.7-9.994 4-14.374a11.791 11.791 0 0 1 19.525-1.339z" fill="#a4b6d5"/><path d="m151.749 65.746a156.807 156.807 0 0 1 7.317 15.685 3 3 0 0 0 5.609-2.127 158 158 0 0 0 -7.3-15.759 37.328 37.328 0 0 0 6.5-13.892q-2.445-4.311-4.885-8.264a32.438 32.438 0 0 1 -6.29 18.411c-10.08-2.563-19.364-9.4-24.232-17.854-4.6-7.975-5.8-17.984-6.08-23.925a12.008 12.008 0 0 0 -.848 1.8 66.142 66.142 0 0 0 -3.163 12.56 48.731 48.731 0 0 0 4.892 12.555c5.653 9.815 16.375 17.738 27.981 20.681z" fill="#a4b6d5"/><path d="m226.885 219.027s-7.539 3.4-7.114 16.144c.263 7.894-3.222 16.929-5.913 22.663a1.788 1.788 0 0 0 2.69 2.188c8.5-6.262 22.981-20.813 17.91-44.819z" fill="#7a7a89"/><path d="m197.424 190.774s5.317 19.019 25.985 31.775a8.41 8.41 0 0 0 5.1 1.278 8.169 8.169 0 0 0 4.9-2.184 7.427 7.427 0 0 0 -.363-11.034c-5.467-4.756-14.425-14.228-18.414-27.906z" fill="#7a7a89"/><path d="m68.687 245.525s.735 19.094 10.393 32.948a2.577 2.577 0 0 0 3.453.727 72.53 72.53 0 0 0 23.667-24.3 55.775 55.775 0 0 0 -37.513-9.375z" fill="#b98067"/><path d="m65.423 225.228a55.544 55.544 0 0 0 -1.578 20.052 2.578 2.578 0 0 0 2.32 2.29c3.556.322 11.4 1.138 20.5 2.758 0 0 11.652-5.249 5.077-22.489s-26.319-2.611-26.319-2.611z" fill="#ffd18d"/><path d="m113.971 221.945-42.336-12.118a60.6 60.6 0 0 0 -6.21 15.4l12.182 4.873a14.21 14.21 0 0 1 8.882 13.539c-.041 1.99 0 4.236.172 6.685a170.217 170.217 0 0 1 19.539 4.576z" fill="#b98067"/><path d="m78.132 191.544a70.322 70.322 0 0 0 -11.544 16.556 2.574 2.574 0 0 0 1.108 3.448 249.412 249.412 0 0 1 22.635 13.2s14.648-3.227 10.9-18.894-23.099-14.31-23.099-14.31z" fill="#ffd18d"/><path d="m90.33 224.755a109.222 109.222 0 0 1 15.6 12.2l16.613-19.293s-8.842-32.4-34.029-34.955a53.7 53.7 0 0 0 -10.383 8.842l13.28 11.469a10.173 10.173 0 0 1 2.431 12.371 43.49 43.49 0 0 0 -3.512 9.366z" fill="#b98067"/><path d="m105.233 159.17c-6.686 2.915-14.984 8.476-23.28 19.041a2.581 2.581 0 0 0 .3 3.519l23.8 21.226s22.791 3.356 21.33-15.212-22.15-28.574-22.15-28.574z" fill="#ffd18d"/><path d="m105.234 158.7 12.853 26.409a9.712 9.712 0 0 1 -4.277 12.878 40.9 40.9 0 0 0 -7.738 5.239l16.767 14.951 22.617-1.362 7.085-10.083-32.7-51.228s-5.986-.558-14.607 3.196z" fill="#b98067"/><path d="m163.33 166.136-17.143-15.058c-8.338-2.5-19.283-3.162-33.171.8a2.573 2.573 0 0 0 -1.544 3.707l25.273 46.075s22.613 8.167 26.585-35.524z" fill="#ffd18d"/><path d="m146.183 151.091a82 82 0 0 0 -.183 32.909 15.679 15.679 0 0 1 -1.425 10.805 15.19 15.19 0 0 1 -7.83 6.855l8.04 14.657s27.6 3.065 23.044-50.182c0 .001-6.562-10.519-21.646-15.044z" fill="#b98067"/><path d="m228.118 164.6v-23.17c0-15.29-12.674-27.814-27.944-27.038q-.751.039-1.531.106a50.472 50.472 0 0 0 -17.705 4.695l-23.3 29.9a68.655 68.655 0 0 0 -1.865 17.043s-4.29 33.028 36.172 29.55c34.297-2.947 36.173-31.086 36.173-31.086z" fill="#ffd18d"/><path d="m228.118 164.6v-23.17a27.234 27.234 0 0 0 -1.4-8.629c-9.843 9.269-10.885 23.374-10.622 31.011a18.141 18.141 0 0 1 -15.284 18.751q-.579.083-1.187.14c-14.575 1.394-18.009-10.11-18.009-10.11l-4.386 22.554a53.692 53.692 0 0 0 14.717.539c34.295-2.947 36.171-31.086 36.171-31.086z" fill="#b98067"/><path d="m223.831 156s-7.5 32.429 28.4 39.943a21.5 21.5 0 0 1 6.748 3.24 5.771 5.771 0 0 0 8.857-2.87c1.682-5.083 3.152-13.328 3.152-26.618 0-12.089-4.135-19.922-9.188-24.981-12.123-12.137-33.007-6.915-37.556 9.626q-.22.807-.413 1.66z" fill="#ffd18d"/><path d="m241.723 164.425a19.853 19.853 0 0 0 6.377 12.513 6.426 6.426 0 0 0 10.482-6.156c-.888-4.278-2.653-8.878-6.1-12a6.439 6.439 0 0 0 -10.759 5.643z" fill="#3e3e54"/><g fill="#7a7a89"><path d="m120.134 220.459s9.983 11.551 28.516 7.813c25.279-5.1 21.8-34.311 21.8-34.311l-5.129-11.261s-5.108 38.236-37.675 27.064c-4.773-1.637-9.569 2.142-8.574 7.089a21.741 21.741 0 0 0 1.062 3.606z"/><path d="m109.251 273.022s-4.864 7.921 2.042 15.969c8.128 9.471 10.607 20.593 8.915 34.017a1.785 1.785 0 0 0 3.043 1.486c7.41-7.665 20.559-27.853-8.837-55.941z"/><path d="m122.081 214.736a14.316 14.316 0 0 1 2.829 7.667 11.545 11.545 0 0 1 -1.509 6.456c-2.79 4.96-9.057 18.785-5.718 38.331a7.24 7.24 0 0 1 -3.4 7.462l-2.665 1.59a5.112 5.112 0 0 1 -7.522-2.92c-3.645-12.233-9.261-40.054 7.43-59.011a6.821 6.821 0 0 1 10.555.425z"/><path d="m170.079 231.559s-5.542 5.214 2.691 16.883a59.508 59.508 0 0 1 9.983 24.777 1.787 1.787 0 0 0 3.474.247c3.37-10.672 6.316-30.261-9.2-46.624z"/><path d="m168.722 171.507a102.549 102.549 0 0 0 -4.017 56.6 7.45 7.45 0 0 0 7.289 5.938 7.43 7.43 0 0 0 7.3-6.029c2.122-11.041 5.828-35.23 2.318-55.419-1.172-6.745-10.512-7.509-12.89-1.09z"/></g><path d="m195.845 149.14 1.579-7.416-20.786-10.052-12.388 2.064a48.679 48.679 0 0 0 -6.6 15.359 204.638 204.638 0 0 0 24.085-1.064 40.713 40.713 0 0 1 5.913-.273c2.712.089 6.261.403 8.197 1.382z" fill="#b98067"/><path d="m42.584 69.642c11.1 27.326 43.5 72.362 136.4 71.432a20.358 20.358 0 0 1 13.965 5.4l2.9 2.668c4.331 3.984 11.492 1.16 11.7-4.721a22.7 22.7 0 0 0 -.966-7.08 10.861 10.861 0 0 0 -8.74-7.68l-.2-.031a20.146 20.146 0 0 1 -13.825-8.974c-12.853-19.8-51.062-66.7-126.816-71.19a14.684 14.684 0 0 0 -14.418 20.176z" fill="#e4efff"/><path d="m164.626 114.091a123.187 123.187 0 0 0 -12.589-.014c-6.158-8.719-15.774-18.792-29.83-24.893-1.529-9.8-6.2-20.1-10.178-27.511q-4.266-1.745-8.8-3.3c3.514 5.823 9.85 17.323 12.395 28.354a68.688 68.688 0 0 0 -13.515-2.727 3 3 0 0 0 -3.284 3.34 3.1 3.1 0 0 0 2.965 2.645c29.315 1.73 45.91 27.3 50.3 35.541a3.2 3.2 0 0 1 -.244 3.486c-3.7 4.654-13.228 5.53-26.261-.758a66.07 66.07 0 0 1 -32.349-33.23 19.463 19.463 0 0 0 -12.144-10.7c-18.67-5.84-33.675-16.274-39.546-21.389a14.546 14.546 0 0 0 1.038 6.707q.573 1.413 1.227 2.886a112.254 112.254 0 0 0 36.758 18.378 8.519 8.519 0 0 1 5.812 5.619c2.835 8.921 10.171 24.543 33.4 35.962a56.6 56.6 0 0 0 14.892 5.023q1.834.342 3.714.653c3.957.6 8.772.787 12.462-.578l.323-.122a11.027 11.027 0 0 0 6.975-8.856 11.651 11.651 0 0 0 -1.512-7.264c-.256-.452-.526-.918-.8-1.389 2.436-.052 5.645-.058 8.563.135.067 0 .135.006.2.006a3 3 0 0 0 3-3.023 3.108 3.108 0 0 0 -2.972-2.981z" fill="#a4b6d5"/><path d="m131.282 15.716a8.2 8.2 0 0 1 7.848 3.1c11.661 14.985 32.913 46.026 44.232 85.547a3.5 3.5 0 0 0 6.728-1.928c-11.642-40.652-33.464-72.533-45.434-87.918a15.276 15.276 0 0 0 -26.407 4.106c-3.262 8.967-4.7 19.379-4.258 30.944a3.458 3.458 0 0 0 3.629 3.365 3.5 3.5 0 0 0 3.365-3.629c-.4-10.657.89-20.174 3.843-28.286a8.119 8.119 0 0 1 6.454-5.301z" fill="#3e3e54"/><path d="m235.342 207.967a58.486 58.486 0 0 1 -15.181-20.3 3.5 3.5 0 0 0 -5.229-4.577c-5.717 5.208-17.175 10.1-28.369 9.342a115.376 115.376 0 0 0 -1.5-20.438 10.032 10.032 0 0 0 -9.068-8.36 10.144 10.144 0 0 0 -10.554 6.659 103.047 103.047 0 0 0 -3.341 10.872 27.229 27.229 0 0 1 -2.856-14.577 3.7 3.7 0 0 0 .029-.481 66.8 66.8 0 0 1 1.4-14.612 3.5 3.5 0 1 0 -6.841-1.479c-.017.077-.028.158-.044.235-9.623-4.51-24.416-7.421-44.916-.766a3.5 3.5 0 0 0 -1.988 5.013l23.924 43.615a3.5 3.5 0 1 0 6.137-3.367l-21.838-39.814c17.607-4.735 29.888-1.517 37.558 2.581a79.051 79.051 0 0 0 -.394 8.44c-.214 2.055-1.123 14.728 7.6 24-1.838 5.3-5.21 12.006-11.129 15.654-5.322 3.281-12.039 3.567-19.961.849a10.176 10.176 0 0 0 -10.406 2.215 10.538 10.538 0 0 0 -1.323-.146 10.3 10.3 0 0 0 -8.152 3.475c-9.649 10.958-12.319 24.627-12.175 36.794a240.534 240.534 0 0 0 -29.483-4.64c-1.05-10.816 1.875-20.463 4.425-26.522 5.219 2.861 12.357 7 19.1 11.645a3.5 3.5 0 0 0 3.975-5.762 242.55 242.55 0 0 0 -24.615-14.65 66.667 66.667 0 0 1 10.334-14.688 3.5 3.5 0 1 0 -5.127-4.765 73.855 73.855 0 0 0 -13.043 19.554 3.5 3.5 0 0 0 1.64 4.6c.027.013.579.285 1.536.774-3.147 7.295-6.987 19.7-4.792 33.607a3.5 3.5 0 0 0 3.21 2.945c.033 0 .684.05 1.831.154.966 7.151 3.82 21.088 12.013 31.48.682.864 1.771 1.7 2.75 1.333 6.651-2.5 10.147-4.655 19-14.221.431 1.76.866 3.341 1.266 4.684a8.538 8.538 0 0 0 3.355 4.622 17.515 17.515 0 0 0 4.535 12.326c7.932 9.243 10.269 20.671 7.355 35.966a3.5 3.5 0 0 0 5.448 3.52c.531-.372 13.018-9.3 14.582-25.008 1.149-11.536-3.878-23.427-14.907-35.361a10.938 10.938 0 0 0 .018-3.787c-3.143-18.394 2.672-31.321 5.319-36.025.208-.371.4-.748.573-1.13a34.318 34.318 0 0 0 14.365 3.075 40.119 40.119 0 0 0 7.951-.817 33.942 33.942 0 0 0 5.53-1.6 3.5 3.5 0 1 0 -2.524-6.529 26.965 26.965 0 0 1 -4.39 1.264 28.525 28.525 0 0 1 -19.551-2.523c0-.054 0-.107 0-.161a17.745 17.745 0 0 0 -3.335-9.254 3.429 3.429 0 0 1 1.444.175c10.014 3.436 18.74 2.92 25.938-1.531a27.953 27.953 0 0 0 6.546-5.685 108.811 108.811 0 0 0 2.285 22.952 10.917 10.917 0 0 0 3.625 6.092c-.543 3.585.216 8.763 5.007 15.554 7.333 10.393 10.456 23.473 9.671 30.5a3.47 3.47 0 0 0 2.433 3.729 3.758 3.758 0 0 0 4.125-1.678c.664-1.23 15.828-30.057-3.327-54.772a216.623 216.623 0 0 0 3.544-28.805c1.893 0 9-.595 10.5-.836a66.041 66.041 0 0 0 21.586 24.866 25.409 25.409 0 0 0 -2.169 11.82c.385 11.551-8.345 26.413-8.433 26.559a3.255 3.255 0 0 0 .439 4.165 4.346 4.346 0 0 0 4.117.764c.313-.108 29.647-15 26.353-46.809-.011-.109-.044-.21-.065-.316a10.735 10.735 0 0 0 .506-3.381 11.193 11.193 0 0 0 -3.852-8.296zm-153.886 67.777c-5.3-7.989-7.59-17.783-8.557-23.928a222.363 222.363 0 0 1 24.241 4.258c.166 1.671.371 3.292.609 4.847a68.138 68.138 0 0 1 -16.293 14.823zm47.608 29.232a27.259 27.259 0 0 1 -4.9 12.895c.541-12.448-2.8-22.517-10.211-31.159a10.966 10.966 0 0 1 -2.841-6.514 10.163 10.163 0 0 0 6.3-3.474c8.588 9.806 12.515 19.299 11.652 28.252zm-8.714-77.833c-3.012 5.355-9.638 20.033-6.117 40.636a3.727 3.727 0 0 1 -1.737 3.867l-2.667 1.59a2.2 2.2 0 0 1 -2.373-.913c-3.219-10.8-9.009-37.856 6.7-55.7a3.276 3.276 0 0 1 2.471-1.106h.14a3.264 3.264 0 0 1 2.5 1.307 10.856 10.856 0 0 1 2.144 5.82 8.03 8.03 0 0 1 -1.061 4.499zm48.4-43.683a96.378 96.378 0 0 1 3.258-10.74 3.132 3.132 0 0 1 3.351-2.114 3.025 3.025 0 0 1 2.809 2.587c3.472 19.98-.458 44.531-2.307 54.159a3.939 3.939 0 0 1 -7.726.042 100.144 100.144 0 0 1 -.413-39.137 46.881 46.881 0 0 0 1.025-4.797zm15.91 82.109a63.68 63.68 0 0 0 -9.027-19.145c-2.815-3.99-3.716-6.9-3.855-8.892.073 0 .145.01.219.01a10.911 10.911 0 0 0 7.035-2.575c7.041 10.642 7.203 21.992 5.625 30.602zm19.24-68.569a42.638 42.638 0 0 0 10.631-4.828 66.033 66.033 0 0 0 16.222 21.081 4.189 4.189 0 0 1 1.442 3.1 3.572 3.572 0 0 1 -1.143 2.7 4.671 4.671 0 0 1 -2.835 1.282 4.911 4.911 0 0 1 -2.966-.77 59.368 59.368 0 0 1 -21.351-22.565zm15.891 55.773c2-5.389 3.679-11.785 3.482-17.715a19.059 19.059 0 0 1 1.3-8.186 11.746 11.746 0 0 0 3.307.486c.312 0 .621-.013.93-.039a11.548 11.548 0 0 0 3.153-.733c-.508 12-6.48 20.633-12.176 26.183z" fill="#3e3e54"/><path d="m101.944 164.772a3.5 3.5 0 1 0 -3.539-6.039c-7.509 4.4-14.487 10.9-20.739 19.326a3.5 3.5 0 0 0 .482 4.7l24.81 22.124a3.5 3.5 0 1 0 4.659-5.224l-22.378-19.959a61.883 61.883 0 0 1 16.705-14.928z" fill="#3e3e54"/><path d="m274.111 180.641q.375-5.065.379-10.946c0-11.433-3.436-20.67-10.211-27.455a26.214 26.214 0 0 0 -32.779-3.44 30.919 30.919 0 0 0 -9.452-19.68 29.555 29.555 0 0 0 -22.048-8.22c-.543.027-1.094.066-1.655.113a55.85 55.85 0 0 0 -14.665 3.218c-15.65-22.155-54.48-63.991-126.48-68.261a17.975 17.975 0 0 0 -14.218 5.653 18.166 18.166 0 0 0 -4.858 14.654 3.5 3.5 0 1 0 6.949-.844 11.178 11.178 0 0 1 3.009-9.014 10.88 10.88 0 0 1 8.7-3.46c74.07 4.39 111.453 50.136 124.088 69.6a23.616 23.616 0 0 0 16.216 10.527l.2.031a7.36 7.36 0 0 1 5.923 5.19 19.308 19.308 0 0 1 .831 5.99 3.214 3.214 0 0 1 -2.049 2.91 3.513 3.513 0 0 1 -3.782-.643l-2.9-2.668a23.806 23.806 0 0 0 -16.369-6.322c-72.327.712-106.765-27.009-122.928-50.4a3.5 3.5 0 0 0 -5.76 3.979c17.129 24.787 53.344 54.182 128.758 53.422a16.662 16.662 0 0 1 11.561 4.474l2.9 2.668a10.43 10.43 0 0 0 7.086 2.789 10.7 10.7 0 0 0 4.135-.84 10.2 10.2 0 0 0 6.345-9.123 26.347 26.347 0 0 0 -1.1-8.171 14.384 14.384 0 0 0 -11.549-10.172l-.229-.036a16.575 16.575 0 0 1 -10.359-5.964 49.653 49.653 0 0 1 11.143-2.216q.714-.063 1.407-.1a22.682 22.682 0 0 1 16.869 6.3 23.887 23.887 0 0 1 7.4 17.237v4.017a25.705 25.705 0 0 0 -3.746 7.963c-.163.587-.313 1.191-.454 1.81-.168.731-3.318 15.109 4.751 27.738 5.321 8.327 14.156 13.842 26.257 16.393a18.039 18.039 0 0 1 5.462 2.639 9 9 0 0 0 5.411 1.819 9.373 9.373 0 0 0 8.865-6.382 54.864 54.864 0 0 0 1.929-8.06c3.5 4.155 8.065 12.186 8.2 25.885a3.5 3.5 0 0 0 3.5 3.466h.035a3.5 3.5 0 0 0 3.466-3.534c-.22-21.687-10.474-31.639-14.184-34.534zm-9.6 14.573a2.3 2.3 0 0 1 -1.509 1.466 2.111 2.111 0 0 1 -1.932-.3 24.686 24.686 0 0 0 -7.988-3.83l-.135-.031c-10.207-2.136-17.557-6.6-21.844-13.27-6.535-10.166-3.891-22.346-3.863-22.468.117-.515.241-1.017.377-1.506a18.466 18.466 0 0 1 13.248-13.057 18.977 18.977 0 0 1 18.457 4.976c5.417 5.424 8.164 13 8.164 22.508.004 13.656-1.614 21.411-2.972 25.512z" fill="#3e3e54"/><path d="m284.149 173.748a3.5 3.5 0 0 0 -3.062 6.3 26.836 26.836 0 0 1 13.925 22.072 3.5 3.5 0 0 0 3.492 3.311h.193a3.5 3.5 0 0 0 3.303-3.694c-1.06-19.645-17.166-27.658-17.851-27.989z" fill="#3e3e54"/></svg>