<svg id="icons" height="512" viewBox="0 0 340 340" width="512" xmlns="http://www.w3.org/2000/svg"><path d="m218.279 117.615c20.843.24 50.586 1.047 77.185 3.491a14.848 14.848 0 0 0 1.7.059c3.111 1.191 6.406-.655 9.754-3.362a48.18 48.18 0 0 1 7.232-2.739 6.088 6.088 0 0 1 7.8 5.711 19.144 19.144 0 0 1 -1.793 8.829 15.325 15.325 0 0 0 -1.665 9.111c1.18 8.287 2.481 23.8-2.393 33.144 0 0-70.934 15.1-124.637 3.962z" fill="#f9b9b2"/><path d="m250.288 148.348c-11.354 0-26.176-.242-34.838-1a3 3 0 0 1 .52-5.978c9.811.854 29.548 1.108 43.15.918a1.9 1.9 0 0 0 1.861-1.9v-.21a3 3 0 0 1 6 0v.21a7.924 7.924 0 0 1 -7.776 7.894c-2.505.045-5.559.066-8.917.066z" fill="#aa7073"/><path d="m274.892 145.789a2.991 2.991 0 0 0 1.067-.2 41.056 41.056 0 0 0 8.444-4.843 73.856 73.856 0 0 0 22.514-22.942c-1.01.481-1.912.954-2.685 1.393a15.019 15.019 0 0 1 -7.07 1.955 64.828 64.828 0 0 1 -16.049 14.575c-.072.045-.144.094-.213.146a35.869 35.869 0 0 1 -7.076 4.109 3 3 0 0 0 1.068 5.8z" fill="#aa7073"/><path d="m317.162 154.5a16.932 16.932 0 0 0 -5.218.827 75.944 75.944 0 0 0 -10.081 4.11 17.078 17.078 0 0 1 -7.5 1.709c-.31 0-.625-.008-.936-.024-15.865-.821-47.4-1.173-63.853-1.305a10.676 10.676 0 0 1 -10.586-10.593c-.092-11.152-.356-21.812-.709-31.613-16.043-.185-26.815-.033-26.815-.033l2.579 56.645c1 .206 122.058-2.368 122.058-2.368 2.465-4.723 3.348-11.023 3.468-17.171a16.5 16.5 0 0 0 -2.407-.184z" fill="#aa7073"/><path d="m218.953 169.751c21.946-.01 51.986.225 73.957 1.362a27.956 27.956 0 0 0 4.419-.121c3.04.92 6.232-.331 9.514-2.853a65.73 65.73 0 0 1 8.179-3.293 6.905 6.905 0 0 1 8.784 8.4 31.077 31.077 0 0 1 -1.573 4.314 21.118 21.118 0 0 0 -1.7 10.616c.764 8.592 1.571 24.15-.984 36.529 0 0-32.451 25.272-128.083 9.19z" fill="#f9b9b2"/><path d="m320.374 209.53a16.8 16.8 0 0 0 -5.428.9 63.253 63.253 0 0 0 -15.278 7.7 15.11 15.11 0 0 1 -8.549 2.685 14.615 14.615 0 0 1 -1.464-.074c-19.248-1.941-42.929-2.621-62.442-2.8a9.725 9.725 0 0 1 -9.608-10.343c.774-12.626 1.193-25.392 1.348-37.851-16.845.008-28.925.16-28.925.16l1.436 63.98c1.892.318 19.908 2.9 23.563 3.3h.019c77.451 8.56 104.5-12.491 104.5-12.491a92.3 92.3 0 0 0 1.647-15.128c-.272-.009-.544-.038-.819-.038z" fill="#aa7073"/><path d="m189.565 230.9 26.468-3.014c20.814.014 49.938.52 72.618 2.808a24.665 24.665 0 0 0 4.521.038c3.535.993 7.178-.649 10.872-3.53q.645-.389 1.27-.815a53.593 53.593 0 0 1 12.859-6.492 6.892 6.892 0 0 1 9.066 6.968 32.088 32.088 0 0 1 -3.151 12.517 23.283 23.283 0 0 0 -2.712 12.866 96.167 96.167 0 0 1 -.013 19.26 24.4 24.4 0 0 0 1.4 11.8c.1.261-20.774 6.853-24.479 7.141-13.909 1.081-47.9 3.43-75.109 2.224l-25.969-2.254s-34.177-23.587-7.641-59.517z" fill="#f9b9b2"/><g fill="#aa7073"><path d="m212.719 201.284a3 3 0 0 1 -.228-5.991c4.982-.383 16.866-.515 25.014-.42a3 3 0 0 1 -.034 6h-.037c-8.026-.1-19.667.032-24.482.4-.078.008-.152.011-.233.011z"/><path d="m256.719 201.315h-.1l-3.329-.1a3 3 0 0 1 .085-6h.089l3.344.1a3 3 0 0 1 -.092 6z"/><path d="m274.888 201.844q.135 0 .273-.012a20.688 20.688 0 0 0 14.665-8.182l2.456-3.275a69.032 69.032 0 0 0 5.6-8.7 91.034 91.034 0 0 1 8.967-13.534c-.191.091-.385.184-.568.274a26.718 26.718 0 0 1 -8.948 2.564c-1.606 2.4-3.215 5.02-4.738 7.859a62.745 62.745 0 0 1 -5.109 7.937l-2.456 3.275a14.68 14.68 0 0 1 -10.4 5.806 3 3 0 0 0 .266 5.988z"/><path d="m242.125 264.309c-.039 0-.079 0-.118 0-12.205-.473-34.109-.918-34.328-.923a3 3 0 1 1 .121-6c.22 0 22.178.451 34.439.927a3 3 0 0 1 -.114 6z"/><path d="m293.172 230.73a208.882 208.882 0 0 0 -15.166 21.432c-2.4 3.906-7.095 5.308-9.679 5.8a67.158 67.158 0 0 1 -8.454 1.038 1.709 1.709 0 0 1 -1.824-1.7 3 3 0 0 0 -6 0 7.71 7.71 0 0 0 7.723 7.7c.155 0 .308 0 .461-.013a73.665 73.665 0 0 0 9.208-1.139c6.142-1.161 11-4.2 13.676-8.549a206.9 206.9 0 0 1 20.916-28.118 25.153 25.153 0 0 1 -10.861 3.549z"/><path d="m325.209 289.54c-.673-1.942-1.418-3.806-2.125-5.454-.111-.258-.2-.522-.305-.784a65.255 65.255 0 0 1 -17.958-3.082 27.793 27.793 0 0 0 -13.641-.823c-21.833 4.206-43.865 4.567-59.3 4.037a17.057 17.057 0 0 1 -15.165-10.4q-1.856-4.413-4.231-9a6.834 6.834 0 0 1 -.709-4.315c1.8-10.087 3.2-20.809 4.262-31.839-15.632-.01-26.579.258-26.579.258-21.539 36.185 6.6 64.9 6.6 64.9 6.853 1.8 16.357 2.791 26.916 3.259 27.253 1.208 61.533-1.091 75.4-2.17a23.516 23.516 0 0 1 10.713 1.792 33.785 33.785 0 0 0 9.311 2.262 6.522 6.522 0 0 0 6.811-8.641z"/></g><path d="m16.765 41.771s11.75 1.678 21.713 8.3a20.6 20.6 0 0 0 14.149 3.317c20.282-2.713 72.724-8.324 113.377-.414a20.481 20.481 0 0 0 13.763-2.092 87.53 87.53 0 0 1 23.9-9.114s.268 11.26-4.889 20.643a28.617 28.617 0 0 0 -3.6 15.781c2.046 29.208 6.835 116.808-4.078 177.839a27.786 27.786 0 0 0 2.74 17.682c3.3 6.366 7.307 15.6 8.218 24.339 0 0-15.53-.41-25.521-5.406a23.583 23.583 0 0 0 -16.72-1.613c-18.378 4.984-58.866 12.55-103.76-.914a23.859 23.859 0 0 0 -17.357 1.516 63.065 63.065 0 0 1 -25.954 6.417 50.365 50.365 0 0 1 8.46-22.222 27.625 27.625 0 0 0 4.676-20.184c-4.564-29.809-13.953-106.506-2.645-175.346a28.109 28.109 0 0 0 -1.862-15.666c-2.49-5.796-5.31-14.465-4.61-22.863z" fill="#f9b9b2"/><path d="m83.681 140.26c2.209 1.383 5.944 2.936 11.715 3.105a32.245 32.245 0 0 1 13.507 3.2c6.024 3.012 12.82 8.844 15.9 20.122l-3.856 15.037s-31-6.322-39.151-40.106a1.256 1.256 0 0 1 1.885-1.358z" fill="#697a7c"/><path d="m154.813 138.269c-4.738.917-20.865 5.438-33.476 25.775a23.835 23.835 0 0 0 -3.179 8.148c-1.4 7.457-3.688 23.854-.96 41.4l5.217-6.707a18.162 18.162 0 0 0 3.855-11.057 61.485 61.485 0 0 1 .948-10.908 13.029 13.029 0 0 1 9.557-10.13c9.177-2.373 24.589-10.137 19.677-35.412a1.4 1.4 0 0 0 -1.639-1.109z" fill="#697a7c"/><path d="m42.571 269.6a3 3 0 0 1 -2.58-4.527c4.21-7.122 1.6-17.308 1.577-17.41-2.377-9.412-4.041-23.032-4.953-40.515a3 3 0 0 1 5.992-.313c.892 17.094 2.5 30.325 4.77 39.325.128.476 3.284 12.653-2.22 21.966a3 3 0 0 1 -2.586 1.474z" fill="#aa7073"/><path d="m45.391 193.846h-1.271a8.259 8.259 0 0 1 -8.218-8.08c-.123-7.255-.149-14.98-.078-22.961a3 3 0 0 1 3-2.973h.027a3 3 0 0 1 2.974 3.027c-.07 7.929-.045 15.6.078 22.8a2.23 2.23 0 0 0 2.218 2.182h1.271a3 3 0 0 1 0 6z" fill="#aa7073"/><path d="m39.074 150.367h-.074a3 3 0 0 1 -2.925-3.072l.049-2a3 3 0 0 1 3-2.924h.076a3 3 0 0 1 2.923 3.075l-.049 1.99a3 3 0 0 1 -3 2.931z" fill="#aa7073"/><path d="m22.914 69.433a28.41 28.41 0 0 1 .323 10.867c-.024.144-.046.288-.069.431a93.075 93.075 0 0 1 13.749 42.278c-.033.663-.153 3.118-.3 6.933a3 3 0 0 0 2.881 3.116h.119a3 3 0 0 0 3-2.882c.174-4.449.308-7.029.309-7.039a3.036 3.036 0 0 0 0-.357 100.472 100.472 0 0 0 -20.012-53.347z" fill="#aa7073"/><path d="m210.548 121.047c22.463.135 55.374.859 84.595 3.545a18.4 18.4 0 0 0 10.818-2.35 43.165 43.165 0 0 1 9.165-3.818 2.617 2.617 0 0 1 2.305.418 2.462 2.462 0 0 1 1.021 1.973 15.472 15.472 0 0 1 -1.412 7.2 18.793 18.793 0 0 0 -2.011 11.191c.7 4.928 1.634 13.975.562 21.934a10.36 10.36 0 0 0 -1.647.374 69.432 69.432 0 0 0 -9.213 3.758 23.655 23.655 0 0 1 -11.64 2.344c-23.868-1.235-57-1.42-80.611-1.357a3.5 3.5 0 0 0 .01 7h.01c23.507-.063 56.517.121 80.229 1.347a30.614 30.614 0 0 0 15.092-3.053 62.373 62.373 0 0 1 8.278-3.379 3.38 3.38 0 0 1 3.436.813 3.248 3.248 0 0 1 .9 3.292 27.418 27.418 0 0 1 -1.393 3.827 24.664 24.664 0 0 0 -2 12.374 181.071 181.071 0 0 1 .724 18.094 3.5 3.5 0 0 0 3.451 3.549h.05a3.5 3.5 0 0 0 3.5-3.451c.1-7.384-.351-14.306-.752-18.812a17.671 17.671 0 0 1 1.4-8.858 34.616 34.616 0 0 0 1.751-4.8 10.3 10.3 0 0 0 -2.772-10.25 10.522 10.522 0 0 0 -1.928-1.452c1.212-8.426.42-17.735-.512-24.282a11.848 11.848 0 0 1 1.319-7.029 22.32 22.32 0 0 0 2.174-10.457 9.426 9.426 0 0 0 -3.852-7.516 9.564 9.564 0 0 0 -8.431-1.515 49.786 49.786 0 0 0 -10.665 4.451 11.446 11.446 0 0 1 -6.72 1.466c-29.469-2.708-62.595-3.438-85.195-3.574a3.5 3.5 0 1 0 -.041 7z" fill="#3e3e54"/><path d="m317.044 216.586a56.715 56.715 0 0 0 -13.706 6.915 21.6 21.6 0 0 1 -14.338 3.713c-25.043-2.525-57.566-2.918-80.457-2.809a3.5 3.5 0 1 0 .035 7c22.708-.115 54.979.279 79.719 2.774a28.619 28.619 0 0 0 18.989-4.9 49.749 49.749 0 0 1 12.013-6.068 3.392 3.392 0 0 1 4.445 3.419 28.125 28.125 0 0 1 -2.759 11.128 26.791 26.791 0 0 0 -3.1 14.8 93.272 93.272 0 0 1 0 18.525 27.845 27.845 0 0 0 1.979 14.384c.773 1.8 1.457 3.554 2.031 5.209a3.036 3.036 0 0 1 -.487 2.918 2.95 2.95 0 0 1 -2.652 1.119 30.246 30.246 0 0 1 -8.314-2.006 27.167 27.167 0 0 0 -12.419-2.05c-15.009 1.166-52.906 3.681-80.545 1.846a3.5 3.5 0 0 0 -.465 6.984c28.1 1.867 66.392-.672 81.553-1.852a20.321 20.321 0 0 1 9.241 1.557 37.186 37.186 0 0 0 10.239 2.485 10.215 10.215 0 0 0 1.031.053 10.03 10.03 0 0 0 9.432-13.348c-.63-1.813-1.374-3.723-2.213-5.677a20.862 20.862 0 0 1 -1.464-10.768 100.125 100.125 0 0 0 .026-20 19.833 19.833 0 0 1 2.325-10.932 34.948 34.948 0 0 0 3.544-13.907 10.391 10.391 0 0 0 -13.687-10.515z" fill="#3e3e54"/><path d="m9.259 297.747a3.5 3.5 0 0 0 3.486 3.805h.1a66.807 66.807 0 0 0 27.4-6.774 20.3 20.3 0 0 1 14.81-1.306c45.1 13.525 85.569 6.394 105.681.94a20.056 20.056 0 0 1 14.239 1.365c10.565 5.284 26.329 5.757 26.994 5.775a3.406 3.406 0 0 0 2.662-1.122 3.5 3.5 0 0 0 .912-2.739c-.974-9.333-5.21-19.066-8.594-25.589a24.415 24.415 0 0 1 -2.4-15.454c10.795-60.363 6.48-145.077 4.124-178.7a25.127 25.127 0 0 1 3.175-13.85c5.548-10.093 5.333-21.914 5.321-22.412a3.5 3.5 0 0 0 -4.186-3.35 91.014 91.014 0 0 0 -24.893 9.477 17.017 17.017 0 0 1 -11.412 1.726c-41.064-7.99-93.759-2.395-114.51.381a17.108 17.108 0 0 1 -11.751-2.76 62.638 62.638 0 0 0 -23.157-8.854 3.5 3.5 0 0 0 -3.984 3.174c-.76 9.113 2.237 18.372 4.883 24.535a24.573 24.573 0 0 1 1.623 13.718c-11.382 69.309-1.947 146.48 2.639 176.443a23.994 23.994 0 0 1 -4.07 17.628 53.654 53.654 0 0 0 -9.092 23.943zm20.082-42.63c-4.536-29.633-13.873-105.929-2.651-174.249a31.566 31.566 0 0 0 -2.1-17.615 51.929 51.929 0 0 1 -4.395-17.2 53.917 53.917 0 0 1 16.345 6.935 24.121 24.121 0 0 0 16.551 3.872c20.407-2.73 72.2-8.239 112.245-.448a24.026 24.026 0 0 0 16.112-2.458 89.294 89.294 0 0 1 18.464-7.687 39.62 39.62 0 0 1 -4.2 14.462 32.111 32.111 0 0 0 -4.023 17.711c1.825 26.027 6.924 115.711-4.032 176.975a31.455 31.455 0 0 0 3.078 19.909 78.393 78.393 0 0 1 7.183 18.942c-5.086-.472-13.693-1.691-19.813-4.75a27.04 27.04 0 0 0 -19.2-1.861c-19.391 5.258-58.407 12.136-101.839-.889a27.281 27.281 0 0 0 -19.9 1.727 60.007 60.007 0 0 1 -20.212 5.784 46.6 46.6 0 0 1 7.113-16.421 30.954 30.954 0 0 0 5.274-22.739z" fill="#3e3e54"/></svg>