<svg id="icons" height="512" viewBox="0 0 340 340" width="512" xmlns="http://www.w3.org/2000/svg"><path d="m286.6 47.518a24.97 24.97 0 0 0 -32.747-.615c-32.487 27.22-92.946 86.392-64.023 142.373 0 0 19.161-5.843 42.733-26.083a11.569 11.569 0 0 0 3.815-10.94l-3.318-17.4 18.376 9.648c14.628-16.612 29.466-38.962 41.512-68.813a25.155 25.155 0 0 0 -6.348-28.17z" fill="#80afa7"/><path d="m188.532 186.632c28.632-46.589 36.648-100.892 38.284-114.64-28.994 30.146-57.643 73.114-38.284 114.64z" fill="#527f7f"/><path d="m138.123 194.472s22.473-21.991-2.1-78.594c-17.984-41.431-41.8-55.535-60.958-58.412a25.306 25.306 0 0 0 -27.953 17.87c-4.31 14.725-3.362 37.711 24.844 64.489l17.416-5.909-4.219 12.869a14.31 14.31 0 0 0 1.585 12.265c6.737 10.355 23.688 31.073 51.385 35.422z" fill="#80afa7"/><path d="m136.027 115.878a153.765 153.765 0 0 0 -11.645-22.058c-3.14 13.939-10.13 57.886 13.764 100.628.77-.778 22.009-22.982-2.119-78.57z" fill="#527f7f"/><path d="m199.615 68.024 18.42-7.736a205.143 205.143 0 0 0 .74-24.458 24.2 24.2 0 0 0 -38.046-19.086c-26.911 18.8-39.11 51.436-39.11 51.436l14.973 17.82-19.3-1.347a163.237 163.237 0 0 0 -2.979 48.094 109.306 109.306 0 0 0 18.653 51.5 97.575 97.575 0 0 1 5.3 8.819c37.735-41.369 52.578-84.428 58-118.549z" fill="#80afa7"/><path d="m128.45 211.486h-32.016l23.442 108.257a10.064 10.064 0 0 0 9.836 7.934h12.45a920 920 0 0 0 -13.712-116.191z" fill="#b4cde0"/><path d="m128.45 211.486 13.712 116.191h61.138a10.064 10.064 0 0 0 9.963-8.636l15.417-107.555z" fill="#ebf6ff"/><path d="m288.943 44.916a28.6 28.6 0 0 0 -37.337-.7c-9.445 7.912-18.147 15.936-25.865 23.847a3.5 3.5 0 0 0 5.011 4.889c7.555-7.745 16.084-15.608 25.349-23.371a21.493 21.493 0 0 1 33.6 24.79c-10.176 25.229-23.32 47.329-39.091 65.74l-15.923-8.361a3.5 3.5 0 0 0 -5.065 3.754l3.318 17.4a8.08 8.08 0 0 1 -2.657 7.629 147.943 147.943 0 0 1 -35.125 22.867c25.022-62.6 62.433-101.707 62.86-102.148a3.5 3.5 0 0 0 -5.025-4.873c-.5.512-49.779 51.96-73.872 131.612h-16.775c-6.211-105.928 35.831-172.974 36.254-173.643a3.5 3.5 0 0 0 -5.892-3.779c-.455.71-11.262 17.723-21.327 48.465a347.006 347.006 0 0 0 -16.613 101.591 105.853 105.853 0 0 1 -16.968-48.183 159.263 159.263 0 0 1 2.317-44.078l16.231 1.136a3.5 3.5 0 0 0 2.924-5.743l-13.613-16.211c3.015-7.056 15.019-32.526 37.075-47.933a20.7 20.7 0 0 1 32.543 16.322 201.632 201.632 0 0 1 -.551 21.947l-16.467 6.918a3.5 3.5 0 0 0 .083 6.488l14.008 5.467a220.63 220.63 0 0 1 -43.25 97.956 3.5 3.5 0 1 0 5.55 4.266c23.89-31.078 39.055-66.036 45.073-103.9a3.5 3.5 0 0 0 -2.183-3.811l-8.6-3.357 10.454-4.392a3.5 3.5 0 0 0 2.131-2.914 209.106 209.106 0 0 0 .753-24.877 27.7 27.7 0 0 0 -43.549-21.85c-27.488 19.2-39.87 51.706-40.384 53.08a3.5 3.5 0 0 0 .6 3.476l9.667 11.509-11.073-.773a3.5 3.5 0 0 0 -3.668 2.771 166.783 166.783 0 0 0 -3.04 49.124 111.438 111.438 0 0 0 12.264 41.426 44.023 44.023 0 0 1 -3.906 12.115c-17.689-49.788-55.724-96.392-57.57-98.636a3.5 3.5 0 1 0 -5.405 4.447c.446.543 39.335 48.177 56.655 97.393-23.624-6.061-37.911-24.544-43.193-32.666a10.76 10.76 0 0 1 -1.193-9.266l4.217-12.869a3.5 3.5 0 0 0 -4.45-4.405l-15.4 5.225c-25.516-24.994-26.3-46.1-22.38-59.507a21.809 21.809 0 0 1 24.08-15.393c11.856 1.78 29.338 8.838 45.3 32.355a3.5 3.5 0 1 0 5.792-3.93c-17.38-25.613-36.81-33.359-50.049-35.347a28.834 28.834 0 0 0 -31.836 20.348c-4.548 15.537-3.766 39.947 25.794 68.011a3.5 3.5 0 0 0 3.534.776l10.783-3.659-2.037 6.219a17.726 17.726 0 0 0 1.977 15.263c6.059 9.318 23.031 31.161 51.6 36.585 1.055 3.491 1.987 6.977 2.773 10.443h-41.747a3.5 3.5 0 0 0 -3.421 4.24l23.442 108.257a13.639 13.639 0 0 0 13.257 10.694h73.588a13.632 13.632 0 0 0 13.428-11.64l15.413-107.555a3.5 3.5 0 0 0 -3.465-4h-42.235q2.488-8.031 5.294-15.655c4.1-1.411 21.793-8.181 43.108-26.484a15.094 15.094 0 0 0 4.973-14.25l-1.959-10.276 11.952 6.275a3.5 3.5 0 0 0 4.254-.786c17.1-19.417 31.271-42.906 42.131-69.816a28.779 28.779 0 0 0 -7.251-32.079zm-146.909 150.339a40.415 40.415 0 0 0 6.073-12.032q.956 1.507 1.959 2.992c2.253 3.329 4 6.443 4.722 7.778q.135 6.87.548 13.993h-10c-.905-4.233-2.017-8.486-3.302-12.731zm67.766 123.289a6.6 6.6 0 0 1 -6.5 5.633h-58.02l-10.876-94.983a3.5 3.5 0 1 0 -6.954.8l10.785 94.186h-8.527a6.6 6.6 0 0 1 -6.408-5.18l-22.527-104.014h123.87z" fill="#3e3e54"/></svg>