<svg id="icons" height="512" viewBox="0 0 340 340" width="512" xmlns="http://www.w3.org/2000/svg"><path d="m10.383 260.013h68.921v17.741h-68.921z" fill="#a06a7a" transform="matrix(0 1 -1 0 313.728 224.041)"/><path d="m24.287 218.51h76.6a0 0 0 0 1 0 0v17.741a0 0 0 0 1 0 0h-69.281a7.32 7.32 0 0 1 -7.32-7.32v-10.421a0 0 0 0 1 0 0z" fill="#efa5a7"/><path d="m84.04 315.278s-1.676-21.431-18.715-34.278l-2.74 14.525s-13.461-20.953-43.07-20.672a105.649 105.649 0 0 1 10.893 20.212 39.459 39.459 0 0 0 -20.408-2.614s10.634 10.335 11.751 22.827z" fill="#d3dd96"/><path d="m80.888 218.51h19.995v17.741h-19.995z" fill="#a06a7a"/><path d="m267 315.278s6.983-49.364 49.441-61.934c0 0-6.983 22.905-12.569 35.475a34.19 34.19 0 0 1 21.229-4.508s-1.956 10.933-8.38 16.8c0 0 10.913 4.168 13.277 14.168z" fill="#8c9d78"/><path d="m190.798 55.466-93.069 65.604v194.208h93.069 93.069v-194.208z" fill="#efa5a7"/><path d="m128.233 141.438h125.13v173.84h-125.13z" fill="#a06a7a"/><path d="m97.841 120.991h185.914l-9.93-7h-166.054z" fill="#a06a7a"/><path d="m97.729 121.07v26.754l94.143-68.554 91.995 67.059v-25.259l-93.069-65.604z" fill="#a06a7a"/><path d="m190.798 24.721-129.594 99.924 14.388 18.277 115.206-87.456 115.206 87.456 14.388-18.277z" fill="#efa5a7"/><g fill="#a06a7a"><path d="m97.729 156.57h186.137v7h-186.137z"/><path d="m97.729 196.792h186.137v7h-186.137z"/><path d="m97.729 241.403h186.137v7h-186.137z"/><path d="m97.729 283.336h186.137v7h-186.137z"/></g><path d="m190.798 153.57h-48.575v114.524l19.375 47.184h29.2 48.575v-104.956l-13.525-56.752z" fill="#efa5a7"/><path d="m172.157 151.333h7v163.945h-7z" fill="#a06a7a"/><path d="m207.871 151.333h7v163.945h-7z" fill="#a06a7a"/><path d="m214.965 153.57-72.742 114.524v17.134l19.375 30.05h11.202l66.573-104.956v-17.662l-13.525-39.09z" fill="#a06a7a"/><path d="m142.223 285.228v30.05h19.375l77.775-122.618v-39.09h-13.525z" fill="#efa5a7"/><circle cx="191.872" cy="234.424" fill="#a06a7a" r="3.899"/><circle cx="159.442" cy="288.836" fill="#a06a7a" r="3.899"/><circle cx="220.963" cy="191.78" fill="#a06a7a" r="3.899"/><path d="m18.263 315.59a3.5 3.5 0 0 0 3.483 3.188c.1 0 .21 0 .315-.014a3.5 3.5 0 0 0 3.175-3.8c-.7-7.828-4.662-14.768-8-19.345a36.315 36.315 0 0 1 11.7 2.617 3.5 3.5 0 0 0 4.734-4.442 101.872 101.872 0 0 0 -7.539-15.13c22.622 2.436 33.043 18.036 33.509 18.751a3.5 3.5 0 0 0 6.384-1.243l1.6-8.5c11.463 11.736 12.91 27.7 12.924 27.88a3.5 3.5 0 0 0 6.979-.552c-.073-.939-2.007-23.16-20.1-36.8a3.5 3.5 0 0 0 -5.547 2.145l-1.374 7.284a54.888 54.888 0 0 0 -21.038-13.139v-34.739h10.746v30.613a3.5 3.5 0 0 0 7 0v-30.613h37.015v75.527a3.5 3.5 0 0 0 3.5 3.5h186.138a3.5 3.5 0 0 0 3.5-3.5v-37.94a60.084 60.084 0 0 1 23.613-18.316c-2.483 7.7-6.718 20.3-10.307 28.376a3.5 3.5 0 0 0 5.125 4.343 30.942 30.942 0 0 1 14.827-4.144c-1.059 3.307-3.02 7.966-6.264 10.928a3.507 3.507 0 0 0 1.1 5.85c.092.036 9.235 3.686 11.131 11.708a3.5 3.5 0 0 0 6.813-1.61c-1.737-7.343-7.195-11.953-11.132-14.41a41.75 41.75 0 0 0 6.273-15.136 3.5 3.5 0 0 0 -3.039-4.092 37.689 37.689 0 0 0 -15.157 1.365c4.69-12.295 9.207-27.069 9.44-27.833a3.5 3.5 0 0 0 -4.341-4.376 65.278 65.278 0 0 0 -28.082 16.818v-133.642l16.521 12.542a3.5 3.5 0 0 0 4.866-.622l14.387-18.277a3.5 3.5 0 0 0 -.613-4.937l-129.593-99.924a3.5 3.5 0 0 0 -4.273 0l-129.594 99.924a3.5 3.5 0 0 0 -.613 4.937l14.387 18.277a3.5 3.5 0 0 0 4.866.622l16.521-12.541v81.842h-69.942a3.5 3.5 0 0 0 -3.5 3.5v10.422a10.831 10.831 0 0 0 10.819 10.819h.867v32.83a61.468 61.468 0 0 0 -12.991-1.23 3.5 3.5 0 0 0 -2.819 5.528 107.078 107.078 0 0 1 7.426 12.6 41.818 41.818 0 0 0 -14.61-.489 3.5 3.5 0 0 0 -1.924 5.967c.098.095 9.724 9.625 10.708 20.633zm127.46-29.359c.011-.016.026-.027.036-.043l82.011-129.118h8.1v34.578a.315.315 0 0 1 -.022.029l-76.178 120.1h-13.95zm0-13.041v-116.12h73.755zm22.24 38.588 67.91-107.066v107.066zm-91.748-173.724-10.074-12.8 124.659-96.114 124.657 96.118-10.074 12.8-112.468-85.38a3.5 3.5 0 0 0 -4.233 0zm114.585-78.194 89.569 67.994v183.924h-37.496v-158.208a3.5 3.5 0 0 0 -3.5-3.5h-97.15a3.5 3.5 0 0 0 -3.5 3.5v158.208h-37.494v-183.924zm-163.013 169.072v-6.922h66.442v10.741h-62.623a3.822 3.822 0 0 1 -3.819-3.819z" fill="#3e3e54"/></svg>