<svg id="icons" height="512" viewBox="0 0 340 340" width="512" xmlns="http://www.w3.org/2000/svg"><path d="m170 49.91-39.467 34.305 7.478 59.284h63.978l7.478-59.284z" fill="#efa5a7"/><path d="m150.736 92.595h38.528v50.904h-38.528z" fill="#fff5eb"/><path d="m124.085 285.22s39.235 4.293 47.535 40.749h-42.193s-7.759-7.3-9.412-15.947c0 0 9.921-.89 15.517 2.162a45.266 45.266 0 0 1 -11.447-26.964z" fill="#8c9d78"/><path d="m160.218 152.221h19.565v169.375h-19.565z" fill="#efa5a7"/><path d="m156.645 325.969s1.145-25.867 26.074-36.806c0 0 2.936 10.478 0 18.4 0 0 15.946-10.856 27.356-22.346 0 0 3.072 16.024-4.081 25.693l11.447-2.544s-.254 12.687-9.539 17.6z" fill="#d3dd96"/><path d="m179.783 182.064v-29.843h-19.565v21.148z" fill="#a06a7a"/><path d="m130.533 84.215 1.659 13.154c10.783-5.675 25.6-15.326 37.808-30.091 12.208 14.765 27.025 24.416 37.808 30.091l1.659-13.154-39.467-34.305z" fill="#a06a7a"/><path d="m179.726 25.94v-11.909h-19.452v11.909a26.471 26.471 0 0 1 -5.1 15.717c-16.807 22.8-45.7 35.7-45.7 35.7l3.89 14.481c34.158-11.238 56.636-41.928 56.636-41.928s22.479 30.69 56.629 41.931l3.89-14.481s-28.89-12.9-45.7-35.7a26.466 26.466 0 0 1 -5.093-15.72z" fill="#efa5a7"/><path d="m121.8 141.77.658 10.4a7.129 7.129 0 0 0 7.114 6.678h80.854a7.128 7.128 0 0 0 7.114-6.678l.658-10.4z" fill="#efa5a7"/><g fill="#3e3e54"><path d="m151.085 295.6a3.5 3.5 0 0 0 -1.194-4.8 68.876 68.876 0 0 0 -25.425-9.055 3.5 3.5 0 0 0 -3.873 3.719 48.869 48.869 0 0 0 6.507 21.072 47.3 47.3 0 0 0 -7.4 0 3.5 3.5 0 0 0 -3.125 4.143c1.845 9.653 10.1 17.509 10.452 17.839a3.5 3.5 0 0 0 4.8-5.095 35.631 35.631 0 0 1 -7.076-10c3.051.1 6.742.548 9.1 1.836a3.5 3.5 0 0 0 4.158-5.54 42.184 42.184 0 0 1 -9.86-20.188 63.739 63.739 0 0 1 18.128 7.265 3.5 3.5 0 0 0 4.808-1.196z"/><path d="m179.726 10.531h-19.452a3.5 3.5 0 0 0 -3.5 3.5v11.909a23.117 23.117 0 0 1 -4.414 13.641c-12.8 17.361-32.952 28.847-41.024 32.98a8.313 8.313 0 0 0 -4.215 9.507l2.87 10.681a3.5 3.5 0 0 0 1.717 2.172 6.789 6.789 0 0 0 2.758.245 98.61 98.61 0 0 0 13.234-5.484l6.129 48.588h-12.029a3.5 3.5 0 0 0 -3.493 3.721l.658 10.4a10.648 10.648 0 0 0 10.607 9.956h27.145v148.789a47.627 47.627 0 0 0 -3.569 14.678 3.5 3.5 0 0 0 6.993.309c.01-.222 1.155-20.989 20.029-31.768.465 3.364.7 8.122-.734 12a3.5 3.5 0 0 0 5.251 4.109 236.829 236.829 0 0 0 22.539-17.706c.061 4.921-.631 11.462-4.046 16.078a3.5 3.5 0 0 0 3.572 5.5l6.48-1.44c-.862 3.382-2.767 7.764-6.967 9.986a3.5 3.5 0 1 0 3.273 6.187c10.979-5.809 11.39-20.021 11.4-20.623a3.5 3.5 0 0 0 -4.259-3.487l-4.289.954c3.248-9.862 1.229-20.773 1.12-21.345a3.5 3.5 0 0 0 -5.921-1.807 190.765 190.765 0 0 1 -20.077 17.038 44.99 44.99 0 0 0 -1.426-11.573 3.5 3.5 0 0 0 -4.777-2.261 46.007 46.007 0 0 0 -17.594 13.291v-136.912h12.565v113.534a3.5 3.5 0 0 0 7 0v-113.534h27.145a10.649 10.649 0 0 0 10.607-9.956l.658-10.4a3.5 3.5 0 0 0 -3.493-3.721h-12.021l6.129-48.582a99.039 99.039 0 0 0 13.23 5.478 3.5 3.5 0 0 0 4.474-2.417l2.869-10.681a8.311 8.311 0 0 0 -4.214-9.507c-8.071-4.133-28.225-15.619-41.024-32.98a23.117 23.117 0 0 1 -4.414-13.641v-11.906a3.5 3.5 0 0 0 -3.5-3.5zm34.322 141.415a3.634 3.634 0 0 1 -3.62 3.4h-80.855a3.635 3.635 0 0 1 -3.621-3.4l-.422-6.676h88.941zm-28.284-55.846v17h-12.264v-17zm-12.264 42.17v-18.178h12.264v18.178zm-7-25.178h-12.264v-17h12.264zm-12.264 7h12.264v18.178h-12.264zm44.884 18.178h-6.356v-45.67a3.5 3.5 0 0 0 -3.5-3.5h-38.528a3.5 3.5 0 0 0 -3.5 3.5v45.67h-6.356l-6.58-52.194a142.227 142.227 0 0 0 35.7-30.533 141.332 141.332 0 0 0 35.7 30.568zm26.353-59.478a1.26 1.26 0 0 1 .645 1.46l-1.888 7.029c-30.7-11.608-51.2-39.153-51.406-39.439a3.5 3.5 0 0 0 -2.824-1.431 3.5 3.5 0 0 0 -2.822 1.429c-.148.2-15.028 20.252-38.346 33.321-.027.015-.054.028-.08.043a96.566 96.566 0 0 1 -12.982 6.077l-1.888-7.029a1.26 1.26 0 0 1 .645-1.46c8.511-4.359 29.787-16.5 43.468-35.058a30.159 30.159 0 0 0 5.779-17.794v-8.409h12.452v8.409a30.165 30.165 0 0 0 5.779 17.794c13.681 18.559 34.957 30.699 43.468 35.058z"/></g></svg>