<svg id="icons" height="512" viewBox="0 0 340 340" width="512" xmlns="http://www.w3.org/2000/svg"><path d="m77.469 311.4c-1.537-9.477-5.635-13.064-5.635-13.064-5.892 4.867-8.71 12.552-8.71 12.552-7.94-13.832-26.64-23.054-26.64-23.054a116.52 116.52 0 0 1 2.5 21.718c-16.29-11.115-30.521-7.373-30.521-7.373 10.537 10.929 14.189 26.271 14.189 26.271h63.948c-8.336-5.222-9.131-17.05-9.131-17.05z" fill="#8c9d78"/><path d="m119.3 24.812a57.032 57.032 0 0 1 -28.5 4.239c-18.7-2.024-50.8-1.669-67.481 20.622 0 0-9.778 11.333 0 28.222a46.665 46.665 0 0 0 -8.765 10.066c1.4 20.112 6.473 37.364 28.375 41.489l152.993 24.285c42.178 2.04 75.678-12.535 102.286-40.285 0 0 28.836-.547 32.92-18.844a19.218 19.218 0 0 0 -.937-10.9c-3.547-9.472-15.8-30.978-55.539-40.7 0 0-65.371-56.521-155.352-18.194z" fill="#8aacaf"/><path d="m158.573 263.556h110.437v19.352h-110.437z" fill="#a06a7a" transform="matrix(0 1 -1 0 487.023 59.44)"/><path d="m249.233 263.556h110.437v19.352h-110.437z" fill="#a06a7a" transform="matrix(0 1 -1 0 577.683 -31.22)"/><g fill="#efa5a7"><path d="m187.621 210.675h143.002v18.269h-143.002z"/><path d="m187.621 244.745h143.002v18.269h-143.002z"/><path d="m187.621 278.815h143.002v15.212h-143.002z"/></g><path d="m247.56 110.794c-117.315 51.177-156.945 4.259-156.945 4.259-55.437 14.226-71.796-15.163-76.055-27.089-4.942 7.609-9.07 18.936-3.241 31.936 10.667 23.777 38 21.111 38 21.111s-4.219 34.439 48.222 37.55c29.8 1.768 49.264-2.131 60.521-5.829a51.947 51.947 0 0 1 27.89-1.324c25.384 5.849 75.551 13.09 101.589-12.624 0 0 21.111-18 10.667-45.334-37.141 18.01-50.648-2.656-50.648-2.656z" fill="#668386"/><path d="m63.708 75.283a2.729 2.729 0 0 1 5.2.428c3.55 16.567 17.781 50.943 74.753 50.943 57.55 0 90.89-13.423 103.312-19.685a2.729 2.729 0 0 1 3.631 3.722c-5.485 10.336-25.972 29.128-102.241 33.323a30.819 30.819 0 0 0 -23.92 13.633c-14.677 21.934-36.847 82.2-15.666 170.8h-45.736s-16.9-119.018 28.516-179.459a12.027 12.027 0 0 0 -3.311-17.532c-14.841-8.956-35.852-27.41-24.538-56.173z" fill="#a36675"/><path d="m143.176 313.96c6.4-9.478 2.049-19.933 2.049-19.933-10.246 13.879-26.9 18.14-26.9 18.14 3.586-10.759 0-21.517 0-21.517-33.265 13.845-38.164 37.8-38.164 37.8h70.951c15.626-5.489 16.906-16.8 16.906-16.8a58.919 58.919 0 0 0 -24.842 2.31z" fill="#d3dd96"/><path d="m187.621 275.315a3.5 3.5 0 0 0 -3.5 3.5v15.211a3.5 3.5 0 0 0 3.5 3.5h13v30.924a3.5 3.5 0 0 0 3.5 3.5h19.352a3.5 3.5 0 0 0 3.5-3.5v-30.924h64.307v30.924a3.5 3.5 0 0 0 3.5 3.5h19.352a3.5 3.5 0 0 0 3.5-3.5v-30.924h13a3.5 3.5 0 0 0 3.5-3.5v-15.211a3.5 3.5 0 0 0 -3.5-3.5h-13v-8.8h13a3.5 3.5 0 0 0 3.5-3.5v-18.27a3.5 3.5 0 0 0 -3.5-3.5h-13v-8.8h13a3.5 3.5 0 0 0 3.5-3.5v-18.271a3.5 3.5 0 0 0 -3.5-3.5h-143a3.5 3.5 0 0 0 -3.5 3.5v18.269a3.5 3.5 0 0 0 3.5 3.5h13v8.8h-13a3.5 3.5 0 0 0 -3.5 3.5v18.269a3.5 3.5 0 0 0 3.5 3.5h13v8.8zm32.347 49.635h-12.352v-27.424h12.352zm90.659 0h-12.352v-27.424h12.352zm16.5-34.424h-136v-8.211h136zm-35.848-24.012v8.8h-64.311v-8.8zm19.352 8.8h-12.356v-8.8h12.352zm0-34.07h-12.356v-8.8h12.352zm-19.352-8.8v8.8h-64.311v-8.8zm-100.158-18.27h136v11.269h-136zm16.5 18.269h12.352v8.8h-12.357zm-16.5 15.8h136v11.269h-136zm16.5 18.269h12.352v8.8h-12.357z" fill="#3e3e54"/><path d="m169.3 50.991a3.5 3.5 0 0 0 -3.74 3.242c-.576 8.059 3.116 24.857 21.209 30.758a3.5 3.5 0 1 0 2.171-6.655c-17.321-5.649-16.446-22.846-16.4-23.614a3.5 3.5 0 0 0 -3.24-3.731z" fill="#3e3e54"/><path d="m7.576 298.792a3.5 3.5 0 0 0 -1.631 5.813c9.709 10.079 13.269 24.516 13.3 24.657a3.5 3.5 0 1 0 6.809-1.623 69.9 69.9 0 0 0 -10.624-22.582 39.965 39.965 0 0 1 21.584 7.384 3.5 3.5 0 0 0 5.473-2.869 108.2 108.2 0 0 0 -1.262-14.951c4.909 3.142 11.645 8.152 16.369 14.328.4 6.165 1.016 13.1 1.981 19.987a3.5 3.5 0 0 0 3.466 3.014h10.228a13.3 13.3 0 0 0 12.12-7.779c3.132-6.931 11.178-19.5 30.491-28.608a32.814 32.814 0 0 1 -.871 15.5 3.5 3.5 0 0 0 4.188 4.5 58.331 58.331 0 0 0 23.979-13.864 17.337 17.337 0 0 1 -2.9 10.307 3.5 3.5 0 0 0 4.067 5.259 56.7 56.7 0 0 1 18.947-2.51c-1.619 3.108-5.259 7.562-13.334 10.4a3.5 3.5 0 1 0 2.32 6.6c17.495-6.146 19.162-19.154 19.224-19.7a3.5 3.5 0 0 0 -3.011-3.863 61.334 61.334 0 0 0 -19.157.618 27.119 27.119 0 0 0 -.876-16.122 3.5 3.5 0 0 0 -6.047-.733c-5.78 7.829-13.9 12.4-19.285 14.751a42.628 42.628 0 0 0 -1.475-17.156 3.5 3.5 0 0 0 -4.665-2.125c-24.291 10.111-34.218 25.561-37.974 33.87a6.29 6.29 0 0 1 -5.741 3.662h-7.161a327.563 327.563 0 0 1 -2.223-37.1c0-.046 0-.093 0-.14-1.15-34.092 1.287-97.185 30.525-136.693a15.709 15.709 0 0 0 2.79-12.369 15.42 15.42 0 0 0 -7.138-10.191 79.765 79.765 0 0 1 -10.162-7.208c-.042-.046-.074-.1-.119-.142a19.762 19.762 0 0 0 -1.821-1.564c-10.212-9.335-17.232-22.105-12.416-38.8a56.331 56.331 0 0 0 12.756 25.561c.012.015.027.028.038.043.277.311.545.623.832.932 12.893 13.858 32.895 20.885 59.45 20.885 2.556 0 5.054-.032 7.527-.078h.017.227c.191 0 .494-.007.883-.028 54.78-1.168 88.766-13.155 101.413-18.567a16.86 16.86 0 0 1 -2.539 4.657c-4.336 5.771-15.6 14.441-44.793 20.394a37.578 37.578 0 0 0 -3.825.592l-4.518.948a382.514 382.514 0 0 1 -44.816 4.424 33.925 33.925 0 0 0 -26.449 14.865c-12.519 18.577-32.251 60.031-23.74 128.953a3.5 3.5 0 0 0 6.947-.858c-8.231-66.661 10.625-106.417 22.6-124.183a26.9 26.9 0 0 1 20.968-11.785 390.791 390.791 0 0 0 45.051-4.419 3.654 3.654 0 0 0 .371-.04l.533-.112q4.107-.69 7.863-1.45a33.292 33.292 0 0 1 17.695 3.246 53.47 53.47 0 0 0 23.57 5.113 73.306 73.306 0 0 0 16.291-1.918 3.5 3.5 0 1 0 -1.553-6.825c-16.759 3.814-28.418.655-35.247-2.665q-1.569-.764-3.189-1.384c18.455-5.765 27.69-12.9 32.2-19.185 5.667-7.9 4.055-14.31 3.853-15.016a3.5 3.5 0 0 0 -5.014-2.121c-.324.173-28.2 14.7-81.112 19.149 8.9-5.524 19.484-14.751 30.315-30.187a16.031 16.031 0 0 1 14.719-6.265c15.556 1.846 36.812 1.518 49.719-10.54a3.5 3.5 0 1 0 -4.779-5.115c-11.52 10.764-32.584 10.072-44.114 8.7a22.971 22.971 0 0 0 -5.371 0c9.025-10.511 15.917-15.165 20.516-17.192a3.5 3.5 0 1 0 -2.824-6.4c-10.19 4.491-21.48 15.5-33.554 32.728-22.693 32.379-43.873 35.213-47.538 35.459-2.723.058-5.48.1-8.305.1-24.382 0-42.582-6.2-54.109-18.432-.046-5.731 3.778-9.5 7.707-11.865h.013a17.571 17.571 0 0 1 13.461.131 55.038 55.038 0 0 0 21.033 4.461 43.013 43.013 0 0 0 27.034-9.418 3.5 3.5 0 0 0 -4.307-5.518c-15.428 12.043-32.336 7.69-41.043 4.024-.141-.06-.284-.111-.426-.168 14.869-7.72 19.68-20.177 19.9-20.777a3.5 3.5 0 0 0 -6.558-2.449c-.051.136-5.276 13.662-22.463 19.522-6.2 1.42-16.247 6.057-19.932 14.815a52.65 52.65 0 0 1 -7.7-28.252 3.5 3.5 0 0 0 -6.525-2c-9.127 15.86-10.185 30.83-3.145 44.495a47.235 47.235 0 0 0 3.63 5.894q-.561.032-1.124.095c-19.851 2.291-26.432-6.406-26.756-6.853a3.5 3.5 0 0 0 -5.777 3.954c.351.518 8.872 12.672 33.335 9.853a12.312 12.312 0 0 1 10.026 3.45c.016.016.036.027.052.042a84.228 84.228 0 0 0 11.5 8.287 8.292 8.292 0 0 1 3.888 5.557 8.691 8.691 0 0 1 -1.547 6.843 126.714 126.714 0 0 0 -13.717 23.884c-24.246-9.018-22.364-28.477-22.271-29.309a3.5 3.5 0 0 0 -3.806-3.91c-1.018.094-24.995 2.072-34.474-19.06-9.417-20.973 10.163-37.162 10.995-37.839a3.5 3.5 0 0 0 .836-4.482c-8.328-14.384-.69-23.809-.379-24.182.053-.061.1-.125.153-.189 15.778-21.085 47.062-21.103 64.306-19.24a60.7 60.7 0 0 0 30.243-4.5c45.34-19.313 84.107-13.528 108.646-5.275 26.709 8.983 42.888 22.761 43.046 22.9a3.5 3.5 0 0 0 1.458.753c38.417 9.4 49.927 30.074 53.092 38.527a15.714 15.714 0 0 1 .8 8.911c-3.433 15.38-29.313 16.1-29.57 16.107a3.5 3.5 0 0 0 -3.2 4.748c9.4 24.607-8.891 40.752-9.668 41.421-.064.056-.127.114-.188.174-24.547 24.242-72.151 17.738-98.344 11.7a55.472 55.472 0 0 0 -29.768 1.409 123.86 123.86 0 0 1 -26.281 5.215 3.5 3.5 0 0 0 .339 6.984 3.409 3.409 0 0 0 .348-.018 130.7 130.7 0 0 0 27.778-5.531 48.472 48.472 0 0 1 26.012-1.238c27.572 6.352 77.831 13.04 104.776-13.487 1.747-1.577 20.175-18.994 12.989-44.736 8.983-1.045 28.025-5.149 31.613-21.227a22.689 22.689 0 0 0 -1.075-12.891c-3.533-9.434-16.158-32.386-57.192-42.675-3.4-2.784-19.281-15.067-44.436-23.582-25.755-8.719-66.422-14.859-113.918 5.373a53.725 53.725 0 0 1 -26.747 3.979c-18.706-2.023-52.737-1.859-70.609 21.929-1.11 1.354-9.891 12.89-1.616 29.658-5.756 5.688-20.356 22.942-10.83 44.169 9.065 20.209 29.264 22.985 37.708 23.227.509 7.616 4.277 24.242 26.516 32.639-15.007 38.159-16.379 83.442-15.465 110.688 0 .653-.011 4.471.175 10.105a87.653 87.653 0 0 0 -19.028-13.293 3.5 3.5 0 0 0 -4.977 3.839 126.724 126.724 0 0 1 2.111 14.68c-14.886-7.612-27.019-4.57-27.59-4.42z" fill="#3e3e54"/></svg>