<svg id="icons" height="512" viewBox="0 0 340 340" width="512" xmlns="http://www.w3.org/2000/svg"><path d="m100.564 160.346s-27.58 18.256-34.711 46.78 29.115 45.355 47.076 42.217l9.821-65.135s-8.012-19.583-22.186-23.862z" fill="#73816f"/><path d="m239.438 160.346s27.58 18.256 34.711 46.78-29.115 45.355-47.076 42.217l-9.821-65.135s8.013-19.583 22.186-23.862z" fill="#73816f"/><path d="m124.328 299.831v13.978a19.536 19.536 0 0 0 -9.683 3.939c-5.1 4.017-2.145 12.252 4.355 12.252h28.9a10.092 10.092 0 0 0 10.092-10.092v-23.669z" fill="#3e3e54"/><path d="m112.929 270.166s-10.467 32.518 19.863 36.226 33.11-23.675 33.11-23.675-21.586-16.545-52.973-12.551z" fill="#93c3fc"/><path d="m215.674 299.831v13.978a19.536 19.536 0 0 1 9.683 3.939c5.1 4.017 2.142 12.252-4.35 12.252h-28.9a10.092 10.092 0 0 1 -10.092-10.092v-23.669z" fill="#3e3e54"/><path d="m227.073 270.166s10.467 32.518-19.863 36.226-33.11-23.675-33.11-23.675 21.586-16.545 52.973-12.551z" fill="#93c3fc"/><path d="m102.939 198.79c-4.022 8.917-4.265 20.861 9.99 33.6 0 0 20.629 10.13 57.072 10.13s57.072-10.13 57.072-10.13c14.256-12.742 14.012-24.686 9.99-33.6z" fill="#8fa58a"/><path d="m237.062 198.79c-4.262-9.445-12.762-15.49-12.762-15.49h-108.6s-8.5 6.048-12.759 15.493c5.229 6.357 13.872 11.166 28.146 10.457 0 0 6.6 19.535 38.915 19.535s38.915-19.535 38.915-19.535c14.273.706 22.916-4.103 28.145-10.46z" fill="#73816f"/><path d="m240.419 256.694c-9.957-6.677-13.346-13.132-13.346-13.132h-114.144s-3.389 6.455-13.346 13.132a8.9 8.9 0 0 0 .926 15.4c5.348 2.595 13.247 4.324 24.757 2.977a28.214 28.214 0 0 1 19.843 5.111c5.047 3.661 13.036 7.282 24.892 7.282s19.845-3.621 24.892-7.282a28.214 28.214 0 0 1 19.843-5.111c11.51 1.347 19.409-.382 24.757-2.977a8.9 8.9 0 0 0 .926-15.4z" fill="#8fa58a"/><path d="m250.845 135.289a21.772 21.772 0 0 0 -12.629-13.146c1.376-17.426-13.987-22.012-13.987-22.012a34.715 34.715 0 0 1 -14.992-10.588l-39.237-2.482-39.236 2.482a34.715 34.715 0 0 1 -14.992 10.588s-15.363 4.586-13.987 22.012a21.774 21.774 0 0 0 -12.629 13.146 25.674 25.674 0 0 0 14.371 32.279 34.26 34.26 0 0 0 3.99 1.352l3.32 16.886c3.642 7.547 11.183 14.611 26.718 13.839 0 0 5.5 16.287 32.445 16.287s32.445-16.287 32.445-16.287c15.593.774 23.132-6.345 26.759-13.924l3.279-16.8a34.26 34.26 0 0 0 3.99-1.352 25.674 25.674 0 0 0 14.372-32.28z" fill="#ebf6ff"/><path d="m217.278 96.7a34.855 34.855 0 0 1 -8.041-7.161l-39.237-2.478-39.236 2.482a34.855 34.855 0 0 1 -8.041 7.161z" fill="#b4cde0"/><path d="m222.506 127.714c-3.964-8.378-11.757-15.325-13.818-17.071-.445-.377-.883-.753-1.309-1.151-9.663-9.022-16.4-23.577-16.4-23.577h-41.959s-6.734 14.555-16.4 23.577c-.426.4-.864.774-1.309 1.151-2.061 1.746-9.854 8.693-13.818 17.071a17.007 17.007 0 0 0 -.877 13.063c1.777 4.884 6.348 10.1 17.956 8.423 0 0 13.528-.688 22.012-15.362h26.828c8.484 14.674 22.012 15.362 22.012 15.362 11.608 1.677 16.179-3.539 17.956-8.423a17.007 17.007 0 0 0 -.874-13.063z" fill="#ffd0d3"/><path d="m197.05 96.7a98.8 98.8 0 0 1 -6.068-10.789h-41.962a98.8 98.8 0 0 1 -6.068 10.789z" fill="#e08690"/><path d="m183.229 19.4c-1.665-2.037-3.235-3.884-4.673-5.525a11.373 11.373 0 0 0 -17.11 0c-10.014 11.434-26.469 32.8-36.238 59.219 12.959 8.108 27.386 13.459 45.736 11.446 29.608-9.874 29.429-33.57 12.285-65.14z" fill="#f97dae"/><path d="m170 236.289c-22.416 0-57.072-3.9-57.072-3.9v11.169c14.807 10.915 57.072 11.175 57.072 11.175s42.266-.26 57.072-11.171v-11.169s-34.655 3.896-57.072 3.896z" fill="#3e3e54"/><path d="m179.066 118.475h-18.13a11.281 11.281 0 0 0 -11.409 11 13.336 13.336 0 0 0 .4 3.23 11.115 11.115 0 0 0 8.264 8.051 53.057 53.057 0 0 0 23.628 0 11.115 11.115 0 0 0 8.264-8.051 13.336 13.336 0 0 0 .4-3.23 11.281 11.281 0 0 0 -11.417-11z" fill="#f97dae"/><path d="m135.517 168.377a46.006 46.006 0 0 1 -28 .543 37.484 37.484 0 0 0 3.33 16.882c14.524-.608 23.009-7.662 27.549-13.408a2.579 2.579 0 0 0 -2.879-4.017z" fill="#b4cde0"/><path d="m201.33 172.323c4.335 5.57 12.682 12.4 27.865 13.393a37.35 37.35 0 0 0 3.322-15.7l-.033-1.094a45.985 45.985 0 0 1 -28.21-.619 2.586 2.586 0 0 0 -2.944 4.02z" fill="#b4cde0"/><circle cx="157.261" cy="104.009" fill="#e08690" r="4.023"/><circle cx="182.741" cy="104.009" fill="#e08690" r="4.023"/><path d="m216.866 79.1c-8.1-25.276-22.844-46.486-33.638-59.695a139.774 139.774 0 0 1 6.469 31.54 20.591 20.591 0 0 1 -20.59 22.155h-43.894c-.73 1.974-1.427 3.973-2.076 6a8.007 8.007 0 0 0 7.628 10.443h78.472a8.008 8.008 0 0 0 7.629-10.443z" fill="#d6609a"/><path d="m254.135 134.1a25.7 25.7 0 0 0 -12.335-14.2 24.029 24.029 0 0 0 -16.5-23.1 29.986 29.986 0 0 1 -9.657-5.7 11.578 11.578 0 0 0 2.889-2.789 11.378 11.378 0 0 0 1.668-10.279c-9.634-30.07-28.576-54.546-39.009-66.46a14.874 14.874 0 0 0 -22.375 0c-10.436 11.913-29.377 36.389-39.016 66.46a11.384 11.384 0 0 0 1.664 10.284 11.582 11.582 0 0 0 2.89 2.789 29.942 29.942 0 0 1 -9.654 5.695 24.031 24.031 0 0 0 -16.5 23.1 25.7 25.7 0 0 0 -12.333 14.2 29.209 29.209 0 0 0 5.543 28.921c-9.418 8.023-23.916 23.115-28.953 43.261-5.242 20.966 10.767 37.054 28.958 43.7a3.5 3.5 0 0 0 2.4-6.576c-14.129-5.16-29.041-17.533-24.568-35.423 4.7-18.794 18.707-32.951 27.4-40.22a28.4 28.4 0 0 0 5.553 3.05q.882.361 1.8.683a40.81 40.81 0 0 0 3.227 14.817c-5.01 5.433-10.529 13.789-10.143 24 .312 8.262 4.47 16.2 12.346 23.615v8.658c-1.108 1.689-4.588 6.374-11.8 11.208a12.391 12.391 0 0 0 -5.521 11.269 12.13 12.13 0 0 0 6.868 10.185 36.26 36.26 0 0 0 8.9 2.906c-.624 6.677 0 15.065 5.067 21.747a23.252 23.252 0 0 0 7.884 6.582v4.436a23.011 23.011 0 0 0 -8.348 4.081 10.173 10.173 0 0 0 -3.336 11.465 10.314 10.314 0 0 0 9.856 7.035h28.9a13.608 13.608 0 0 0 13.592-13.592v-19.365a32.6 32.6 0 0 0 5.846-9.645c.87.04 1.756.065 2.668.065s1.8-.025 2.668-.065a32.627 32.627 0 0 0 5.846 9.648v19.362a13.608 13.608 0 0 0 13.587 13.592h28.9a10.314 10.314 0 0 0 9.851-7.036 10.173 10.173 0 0 0 -3.335-11.464 23.022 23.022 0 0 0 -8.349-4.086v-4.441a23.265 23.265 0 0 0 7.782-6.445c5.185-6.735 5.781-15.259 5.165-21.878a36.313 36.313 0 0 0 8.9-2.907 12.133 12.133 0 0 0 6.867-10.185 12.391 12.391 0 0 0 -5.521-11.269c-7.217-4.84-10.7-9.534-11.795-11.205v-8.662c7.96-7.493 12.12-15.517 12.355-23.872.281-10.027-5.066-18.235-10.152-23.742a40.845 40.845 0 0 0 3.225-14.819c.61-.214 1.211-.442 1.8-.683a28.354 28.354 0 0 0 5.551-3.049c7.735 6.49 22.6 21.031 27.4 40.219 3.019 12.075-3 20.753-8.583 25.906a38.166 38.166 0 0 1 -16.8 8.829l-.557.137a3.5 3.5 0 0 0 .833 6.9 3.548 3.548 0 0 0 .837-.1l.558-.137a45.184 45.184 0 0 0 19.876-10.483c9.857-9.1 13.631-20.731 10.626-32.749-5.019-20.074-19.345-35.088-28.952-43.262a29.21 29.21 0 0 0 5.546-28.917zm-127.666-53.932c9.25-28.868 27.531-52.479 37.61-63.983a7.874 7.874 0 0 1 11.844 0c10.077 11.504 28.36 35.115 37.609 63.983a4.508 4.508 0 0 1 -4.3 5.875h-78.467a4.509 4.509 0 0 1 -4.3-5.875zm21.431 246.332h-28.9a3.35 3.35 0 0 1 -3.237-2.327 3.215 3.215 0 0 1 1.053-3.675 16.249 16.249 0 0 1 7.763-3.2 3.5 3.5 0 0 0 3.254-3.491v-4.786a39.957 39.957 0 0 0 4.539.843 48.161 48.161 0 0 0 5.858.371 32.113 32.113 0 0 0 16.262-3.99v13.661a6.6 6.6 0 0 1 -6.592 6.594zm-14.678-23.582c-6.726-.822-11.67-3.262-14.694-7.252-3.812-5.028-4.1-11.871-3.685-16.7a65.94 65.94 0 0 0 10.834-.417 24.631 24.631 0 0 1 17.382 4.468 41.761 41.761 0 0 0 17.035 7.06c-3.494 7.541-10.956 14.788-26.877 12.841zm82.19 14.38a16.249 16.249 0 0 1 7.784 3.2 3.212 3.212 0 0 1 1.053 3.674 3.351 3.351 0 0 1 -3.237 2.328h-28.9a6.6 6.6 0 0 1 -6.592-6.592v-13.659a32.1 32.1 0 0 0 16.261 3.988 48.177 48.177 0 0 0 5.859-.371 39.738 39.738 0 0 0 4.539-.843v4.786a3.52 3.52 0 0 0 3.228 3.491zm6-21.541c-3.029 3.936-7.95 6.345-14.624 7.161-15.928 1.951-23.384-5.3-26.872-12.844a41.749 41.749 0 0 0 17.034-7.06 24.645 24.645 0 0 1 17.382-4.468 66.043 66.043 0 0 0 10.842.417c.466 5.271.026 11.873-3.765 16.794zm17.058-36.157a5.465 5.465 0 0 1 2.435 4.969 5.136 5.136 0 0 1 -2.939 4.374c-5.864 2.845-13.542 3.735-22.823 2.65a31.591 31.591 0 0 0 -22.306 5.754c-6.051 4.389-13.733 6.615-22.836 6.615s-16.786-2.226-22.837-6.615a31.606 31.606 0 0 0 -22.3-5.754c-9.282 1.085-16.961.194-22.823-2.65a5.139 5.139 0 0 1 -2.94-4.373 5.467 5.467 0 0 1 2.437-4.97 52.135 52.135 0 0 0 12.386-11.279c17.348 9.556 54.4 9.9 56.1 9.91 1.666-.01 38.712-.354 56.061-9.91a52.115 52.115 0 0 0 12.385 11.279zm-122.041-17.9v-5.411c9.736 1.008 35.644 3.5 53.572 3.5s43.836-2.495 53.572-3.5v5.411c-14.913 9.177-53.2 9.529-53.55 9.531-10.994-.066-41.147-1.931-53.594-9.531zm119.5-31.844c-.182 6.5-3.681 12.949-10.383 19.185-6.111.66-35.828 3.751-55.547 3.751s-49.437-3.092-55.546-3.751c-6.638-6.176-10.134-12.562-10.377-19-.264-6.968 3.252-13.031 6.909-17.411a26.475 26.475 0 0 0 1.922 2.222c5.431 5.547 12.94 8.351 22.348 8.351h.118c2.823 5.075 11.644 16.228 34.626 16.228s31.8-11.153 34.627-16.228h.117c9.407 0 16.917-2.8 22.348-8.351a26.42 26.42 0 0 0 1.927-2.227c3.682 4.406 7.105 10.375 6.913 17.228zm-.785-45.523a30.886 30.886 0 0 1 -3.583 1.213c-.044.012-.083.033-.126.047s-.068.012-.1.024c-.167.057-16.863 5.639-32.378-3.705a3.5 3.5 0 1 0 -3.611 6 45.786 45.786 0 0 0 23.818 6.457 51.363 51.363 0 0 0 9.7-.925c-.414 4.479-1.876 11.544-6.8 16.55-4.436 4.51-10.987 6.578-19.441 6.163a3.553 3.553 0 0 0 -3.478 2.343c-.2.569-5.3 13.939-29.141 13.939s-28.936-13.37-29.129-13.907a3.5 3.5 0 0 0 -3.49-2.375c-8.471.414-15.005-1.653-19.44-6.163-4.925-5.007-6.387-12.073-6.8-16.55a51.363 51.363 0 0 0 9.7.925 45.793 45.793 0 0 0 23.818-6.457 3.5 3.5 0 1 0 -3.611-6c-15.493 9.332-32.167 3.777-32.377 3.705-.035-.012-.07-.014-.105-.025s-.08-.034-.122-.046a31.031 31.031 0 0 1 -3.584-1.213 22.228 22.228 0 0 1 -12.409-27.847 18.223 18.223 0 0 1 10.394-11 3.5 3.5 0 0 0 2.434-3.612c-1.128-14.292 11-18.228 11.5-18.384.044-.012.087-.026.13-.041a38.247 38.247 0 0 0 15.482-10.4h8.734a69.2 69.2 0 0 1 -10.883 13.89c-.385.359-11.673 10.343-15.9 19.283a20.379 20.379 0 0 0 -1 15.758c1.581 4.345 5.837 11.047 17.036 11.047a32.774 32.774 0 0 0 4.581-.338 31.581 31.581 0 0 0 19.15-9.735 14.8 14.8 0 0 0 3.278 1.217 56.566 56.566 0 0 0 25.251 0 14.748 14.748 0 0 0 3.28-1.218 31.6 31.6 0 0 0 19.149 9.736 32.76 32.76 0 0 0 4.58.338c11.2 0 15.456-6.7 17.038-11.048a20.38 20.38 0 0 0 -1-15.757c-4.228-8.933-15.518-18.922-15.9-19.282a56.842 56.842 0 0 1 -6.857-7.876 3.5 3.5 0 1 0 -5.642 4.142 63.683 63.683 0 0 0 7.72 8.849c.468.437 10.633 9.3 14.354 17.162a13.443 13.443 0 0 1 .752 10.369c-1.908 5.243-6.535 7.257-14.168 6.156-.092-.013-.207-.024-.3-.03-.336-.021-7.684-.585-14.393-7.331a14.042 14.042 0 0 0 2.246-4.833 16.919 16.919 0 0 0 .5-4.075 14.615 14.615 0 0 0 -10.124-13.714 3.5 3.5 0 1 0 -2.219 6.639 7.621 7.621 0 0 1 5.343 7.1 9.983 9.983 0 0 1 -.3 2.387 7.645 7.645 0 0 1 -5.677 5.48 49.564 49.564 0 0 1 -22 0 7.637 7.637 0 0 1 -5.677-5.479 9.92 9.92 0 0 1 -.3-2.385 7.619 7.619 0 0 1 5.342-7.1 3.5 3.5 0 1 0 -2.219-6.639 14.611 14.611 0 0 0 -10.123 13.714 16.992 16.992 0 0 0 .5 4.075 14.034 14.034 0 0 0 2.246 4.833c-6.709 6.747-14.056 7.309-14.372 7.33-.108 0-.216.016-.323.031-7.62 1.1-12.258-.912-14.166-6.156a13.439 13.439 0 0 1 .751-10.369c3.724-7.869 13.884-16.723 14.353-17.161 6.091-5.687 11-13.269 14.225-19.007h58.379a38.185 38.185 0 0 0 15.483 10.4c.03.011.08.027.111.036.517.161 12.646 4.1 11.518 18.389a3.531 3.531 0 0 0 2.409 3.605 18.212 18.212 0 0 1 10.418 11.01 22.227 22.227 0 0 1 -12.433 27.838z" fill="#3e3e54"/></svg>