<svg id="icons" height="512" viewBox="0 0 340 340" width="512" xmlns="http://www.w3.org/2000/svg"><path d="m145.651 111.346a37.548 37.548 0 0 0 16.639 18.543 10.959 10.959 0 0 1 5.688 9.981 31.3 31.3 0 0 0 6.186 19.742 10.968 10.968 0 0 1 2.1 8.365c-1.239 7.624-2.276 23.029 5.766 37.028l22.261 5.617s7.157-19.56-3.275-43.106a11.129 11.129 0 0 1 -.907-5.453 44.03 44.03 0 0 0 -11.236-32.989 11.387 11.387 0 0 1 -2.467-4.412c-2.272-7.8-11-31.209-33.885-31.209z" fill="#ffaac0"/><path d="m185.409 177.792a7.975 7.975 0 0 1 4.8-8.7 15.548 15.548 0 0 0 3.906-2.512 1.061 1.061 0 0 0 -.821-1.855 24.1 24.1 0 0 1 -4.016.178 4.5 4.5 0 0 1 -4.167-3.556 14.054 14.054 0 0 0 -3.379-6.441 23.716 23.716 0 0 1 -5.168-8.936 7.346 7.346 0 0 1 2.782-8.31 15.491 15.491 0 0 0 4.9-5.474 1.061 1.061 0 0 0 -1.418-1.449 23.779 23.779 0 0 1 -4.717 1.869 3.567 3.567 0 0 1 -4.215-2.151 14.164 14.164 0 0 0 -5.57-6.6 15.655 15.655 0 0 1 -3.451-2.918 8.383 8.383 0 0 1 -1.65-8.233 27.838 27.838 0 0 0 .235-17.215 29.588 29.588 0 0 0 -10.95-2.03l-6.866 17.893a37.548 37.548 0 0 0 16.639 18.543 10.959 10.959 0 0 1 5.688 9.981 31.3 31.3 0 0 0 6.186 19.742 10.968 10.968 0 0 1 2.1 8.365c-1.239 7.624-2.276 23.029 5.766 37.028l22.262 5.617a52.841 52.841 0 0 0 2.388-16.4c-14.462-1.604-19.773-8.917-21.264-16.436z" fill="#f26e8a"/><path d="m10 215.281s13.95-12.367 37.08-19.523c26.849-8.306 56.138-5.017 79.769 10.2q.928.6 1.858 1.227s41.6-19.622 85.639 2.32a59.385 59.385 0 0 0 19.523 5.9 78.817 78.817 0 0 0 19.962-.116c-45.621 44.041-94.066 63.595-180.436 66.785h-63.395z" fill="#b28f96"/><path d="m253.831 215.281a78.825 78.825 0 0 1 -19.963.116 57.861 57.861 0 0 1 -11.555-2.608q-5.85 4.322-11.355 9.265a22.872 22.872 0 0 1 -11.781 5.578c-12.121 1.886-31.574 7.516-45.11 24.254a9.84 9.84 0 0 1 -4.329 3.173l-.258.091a63.17 63.17 0 0 1 -20.747 3.423c-1.969 0-3.972-.088-5.954-.261-3.944-.345-7.882-.52-11.7-.52-23.684 0-44.894 9.1-51.874 24.274h14.189c86.37-3.19 134.815-22.744 180.437-66.785z" fill="#7c5a64"/><path d="m35.76 252.559s8.128-9.25 28.029-9.25a22.785 22.785 0 0 0 2.69-18.441 10.88 10.88 0 0 1 .338-6.855c1.754-4.67 3.781-13.926-.35-26.687a11.058 11.058 0 0 1 .885-8.722c1.933-3.521 3.967-9.466 2.633-17.753a11.135 11.135 0 0 1 1.923-8.317c2.3-3.161 5.078-8.218 5.139-14.243a11.012 11.012 0 0 1 4.474-8.577c5-3.8 12.243-10.8 15.062-21.021h5.326s1.681-23.824-12.894-21.862c0 0-21.015-.105-28.195 24.53a10.927 10.927 0 0 1 -3.495 5.408c-3.463 2.847-9.252 9.487-9.815 22.335a11.4 11.4 0 0 1 -3.063 7.227c-3.928 4.249-9.567 14.262-3.92 34.029a37.587 37.587 0 0 0 -3.519 30.353 11.1 11.1 0 0 1 -.7 8.119c-2.389 4.939-5.138 14.768-.548 29.727z" fill="#ffaac0"/><path d="m330 196.292s-66.3-14.982-119.811 40.4c0 0-30.523-.552-48.345 21.486a19.8 19.8 0 0 1 -8.792 6.321l-.284.1a74.369 74.369 0 0 1 -30.859 3.68c-12.5-1.093-40.382-1.656-48.514 13.792h256.605z" fill="#b28f96"/><path d="m231.406 89.827c3.019 7.456 11.111 15.74 32.16 15.74 0 0-3.817 10.087 4.164 20.652a10.293 10.293 0 0 1 1.8 9.054c-1.263 4.322-1.783 11.179 3.2 18.913a10.32 10.32 0 0 1 1.29 8.187c-1.388 5.3-2.674 14.474 1.594 22.961a10.341 10.341 0 0 1 .616 7.915 38.825 38.825 0 0 0 1.728 28.185s-10.993 12.282-2.064 30.141c0 0 16.375-8.367 32.251-6.351 0 0 3.078-9.761-2.449-24.492 0 0 4.968-9.935-.571-26.886a10.3 10.3 0 0 1 .045-6.379c1.544-4.76 3.374-14.6-2.148-26.276a10.211 10.211 0 0 1 -.788-6.174c.9-5.015 1.629-15.138-4.109-24.917a10.056 10.056 0 0 1 -1.447-5.285c.257-12.613-1.188-62.458-40.137-62.434 0 0-10.646-.71-18.82 5.06a18.644 18.644 0 0 0 -6.315 22.386z" fill="#ffaac0"/><circle cx="253.633" cy="81.396" fill="#f26e8a" r="3.899"/><path d="m89.015 90.831a26.22 26.22 0 0 0 -7.724 1.5 35.344 35.344 0 0 0 2.629 18.993 8.164 8.164 0 0 1 -1.226 8.39c-1.913 2.3-4.28 6.953-9.1 7.367-3.25.279-7.093-3.056-8.651-4.769a1.06 1.06 0 0 0 -1.825.879 19.026 19.026 0 0 0 6.282 11.782c-.014 5.121 1.17 16.431-6.957 19.011-3.58 1.137-7.958-.981-9.94-2.323a1.059 1.059 0 0 0 -1.567 1.283 19.209 19.209 0 0 0 10 10.544c.7 4.908 1.273 15.716-4.191 20.287-2.6 2.176-8.011 2.227-9.965 1.628a1.059 1.059 0 0 0 -1.121 1.686 18.727 18.727 0 0 0 6.355 5.209 9.485 9.485 0 0 1 5.38 7.75c.651 9.993-3 21.83-22.214 25.519-1.941 5.467-3.277 14.408.585 26.992 0 0 8.128-9.25 28.029-9.25a22.781 22.781 0 0 0 2.686-18.455 10.8 10.8 0 0 1 .332-6.816c1.756-4.661 3.8-13.926-.339-26.708a11.04 11.04 0 0 1 .877-8.712c1.925-3.5 3.956-9.414 2.658-17.65a11.458 11.458 0 0 1 1.953-8.5 25.158 25.158 0 0 0 5.091-14.176 11.012 11.012 0 0 1 4.474-8.577c5-3.8 12.243-10.8 15.062-21.021h5.326s1.676-23.825-12.899-21.863z" fill="#f26e8a"/><path d="m305.7 220.732s1.843-3.7 2.03-10.422c-7.851.274-12.624-1.9-15.5-4.892a5.038 5.038 0 0 1 1.622-8.111 21.631 21.631 0 0 0 7.178-4.9 1.479 1.479 0 0 0 -1.346-2.486c-3.047.637-10.877 1.39-13.229-2.941-4.873-8.971-3.639-17.846-2.239-23.645a21.958 21.958 0 0 0 13.661-3.286 1.479 1.479 0 0 0 -.725-2.733c-3.247-.1-11.317-1.172-13.752-5.268a34.69 34.69 0 0 1 -3.76-8.5 7.285 7.285 0 0 1 4.662-8.9 21.705 21.705 0 0 0 9.7-6.312 1.479 1.479 0 0 0 -1.459-2.422c-3.49.9-12.214 1.985-15.879-1.447a12.606 12.606 0 0 1 -2.825-3.911 7.3 7.3 0 0 1 2.393-8.884 21.052 21.052 0 0 0 6.681-8.2 1.856 1.856 0 0 0 -2.64-2.348c-7.436 4.3-16.7 4.443-16.7 4.443a21.117 21.117 0 0 0 -.287 11.369c0 .023 0 .047.01.071a24.857 24.857 0 0 0 4.44 9.21 10.471 10.471 0 0 1 1.762 9.194c-1.233 4.328-1.69 11.123 3.242 18.775a10.32 10.32 0 0 1 1.29 8.187c-1.387 5.3-2.673 14.466 1.589 22.95a10.33 10.33 0 0 1 .627 7.906 38.826 38.826 0 0 0 1.722 28.2s-10.993 12.282-2.064 30.141c0 0 16.375-8.367 32.251-6.351-.007.005 3.071-9.756-2.455-24.487z" fill="#f26e8a"/><path d="m95.953 112.462a8.243 8.243 0 0 0 10.018 2.846 51.786 51.786 0 0 1 19.125-3.757c7.487 0 12.44 2.154 15.368 4.554 3.021 2.476 6.661 2.713 9.164-.285 2.12-2.538 4.938-5.213 6.3-9.665a31.947 31.947 0 0 0 1.371-9.264 16.793 16.793 0 0 0 -8.38-14.581c-5.891-3.421-15.411-7.165-28.859-7.165-17.482 0-26.25 6.535-29.894 10.377a9.212 9.212 0 0 0 -2.5 6.126 30.805 30.805 0 0 0 2.1 11.666s3.398 5.592 6.187 9.148z" fill="#ffaac0"/><path d="m150.194 116.68a29.972 29.972 0 0 0 5.733-10.525c-6.086 2.885-12.491.405-12.491.405-18.341-8.03-32.279-3.5-36.377-1.8a22.911 22.911 0 0 1 -4.993 1.5c-5.863 1-9.758-.69-12.3-2.956a38.6 38.6 0 0 0 5.734 10.063 9.256 9.256 0 0 0 10.809 2.859 49.84 49.84 0 0 1 18.744-3.632c7.595 0 12.439 2.5 15.354 4.936a6.985 6.985 0 0 0 9.787-.85z" fill="#f26e8a"/><g fill="#7c5a64"><circle cx="128.859" cy="227.291" r="3.899"/><circle cx="144.274" cy="237.24" r="3.899"/><circle cx="157.987" cy="219.493" r="3.899"/><circle cx="188.708" cy="257.972" r="3.899"/><circle cx="207.171" cy="252.326" r="3.899"/><circle cx="202.783" cy="266.89" r="3.899"/><circle cx="42.602" cy="268.248" r="3.899"/><circle cx="86.367" cy="213.754" r="3.899"/><circle cx="303.857" cy="266.89" r="3.899"/><path d="m24.868 262.949a3.5 3.5 0 0 1 -.861-6.892c1.715-.437 4.74-2.308 8.094-5.006.607-.488 1.191-1 1.774-1.516 2.069-1.831 7.942-6.325 17.791-8.521a39.5 39.5 0 0 1 22.545 1.471c.41.155.813.314 1.207.48a23.68 23.68 0 0 0 10.828 2.009 19.707 19.707 0 0 0 5.983-1.27 3.5 3.5 0 1 1 2.6 6.5 26.7 26.7 0 0 1 -8.108 1.755 30.637 30.637 0 0 1 -14.021-2.543c-.31-.13-.629-.257-.952-.379a32.528 32.528 0 0 0 -18.559-1.191 33.542 33.542 0 0 0 -14.676 6.931c-.665.589-1.335 1.173-2.027 1.729-2.983 2.4-7.271 5.447-10.751 6.334a3.559 3.559 0 0 1 -.867.109z"/><path d="m235.836 262.161a3.5 3.5 0 0 1 -2.642-5.793c5.625-6.49 14.022-8.784 23.646-6.459a23.606 23.606 0 0 0 13.9-.893c2.148-.807 3.645-1.515 3.661-1.522.772-.357 18.293-8.333 34.119-6.669a54.62 54.62 0 0 1 13.028 3 3.5 3.5 0 1 1 -2.455 6.555 48.253 48.253 0 0 0 -11.234-2.586c-14-1.476-30.328 5.966-30.491 6.041-.034.016-1.722.816-4.166 1.735a30.567 30.567 0 0 1 -18 1.144c-4.918-1.188-11.81-1.418-16.713 4.24a3.493 3.493 0 0 1 -2.653 1.207z"/></g><path d="m10 218.779a3.5 3.5 0 0 0 2.318-.876 96.863 96.863 0 0 1 19.505-12.322 41.452 41.452 0 0 0 2.84 13.02c-2.64 4.121-7.679 14.969-2.9 32.723-2.444 1.938-5.764 4.224-7.759 4.733a3.5 3.5 0 0 0 .86 6.892 3.545 3.545 0 0 0 .867-.109c4.947-1.26 11.591-7 12.333-7.65.061-.054.107-.119.164-.176s.095-.076.136-.121c.3-.328 7.5-7.993 25.126-8.08 1.188.224 5.83.876 9.207 2.6 8.407 4.3 19.72 1.751 22.127.788a3.5 3.5 0 1 0 -2.6-6.5 19.707 19.707 0 0 1 -5.983 1.27 23.68 23.68 0 0 1 -10.828-2.009 47.506 47.506 0 0 0 -6.456-2.1 25.879 25.879 0 0 0 .111-19.236c2.129-4.378 6.483-16.694-.413-34.586 2.689-3.631 7.452-12.407 4.121-26 2.956-3.358 9.045-11.718 7.54-22.221 4.114-2.625 12.673-9.052 17.487-19.416a12.858 12.858 0 0 0 9.829.054 46.466 46.466 0 0 1 17.418-3.371c6.68 0 10.762 2.2 13.01 4.04a10.662 10.662 0 0 0 9.841 2 39.048 39.048 0 0 0 16.991 12.774c-.912 5.892-1.334 18.465 8.522 29.282a65.777 65.777 0 0 0 .885 31.467 110.557 110.557 0 0 0 -45.244 7.562l-.313-.2a96.485 96.485 0 0 0 -47.415-15.077 3.5 3.5 0 1 0 -.347 6.991 89.8 89.8 0 0 1 40.064 11.613l-7.052 2.889a27.76 27.76 0 0 1 -9.18 2.046 3.5 3.5 0 0 0 .169 6.995h.174a34.743 34.743 0 0 0 11.492-2.56l13.386-5.484c.022-.009.039-.023.059-.032s.07-.024.1-.04c.4-.188 40.667-18.6 82.587 2.285a63.983 63.983 0 0 0 13.871 5.026 147.552 147.552 0 0 0 -17.95 15.542c-6.711.2-33.027 2.306-49.575 22.768a16.326 16.326 0 0 1 -7.239 5.222l-.263.092a70.4 70.4 0 0 1 -29.406 3.5 3.5 3.5 0 0 0 -.609 6.974q3.628.318 7.2.317a76.369 76.369 0 0 0 25.151-4.193l.253-.088a23.325 23.325 0 0 0 10.355-7.422c16.5-20.4 45.278-20.188 45.56-20.188a3.388 3.388 0 0 0 2.58-1.067 133.524 133.524 0 0 1 49.65-32.854 3.5 3.5 0 0 0 -2.442-6.561 136.42 136.42 0 0 0 -25 12.357c-.2-.064-13.095-2.748-19.008-5.694-2.144-1.069-4.279-2.024-6.406-2.91a68.443 68.443 0 0 0 -6.118-39.167 47.182 47.182 0 0 0 -13.144-38.886c-1.364-5.454-8.659-29.947-30.389-34.668a20.376 20.376 0 0 0 -9.171-11.453c-6-3.485-16.184-7.639-30.616-7.639-18.755 0-28.37 7.185-32.433 11.468a12.575 12.575 0 0 0 -2.793 4.676c-7.152 1.343-22.64 6.812-28.015 29-3.8 2.551-13.142 10.725-12.848 29.194-4.219 3.444-13.517 14.1-7.215 37.872a41.209 41.209 0 0 0 -4.569 13.825c-15.266 6.888-24.134 14.653-24.511 14.987a3.5 3.5 0 0 0 2.321 6.112zm43.545-26.236a28.165 28.165 0 0 0 9.1-1.573c6.3 17.726-.1 28.113-.377 28.55a3.5 3.5 0 0 0 -.252 3.4 19.158 19.158 0 0 1 -.245 16.917c-11.763.36-19.533 3.822-23.976 6.658-2.5-11.823.1-19.285 1.953-22.773 2.454 1.017 6.311 1.97 12.194 1.97a3.5 3.5 0 0 0 0-7c-6.445 0-9.424-1.295-10.438-1.875a34.175 34.175 0 0 1 .252-27.339 23.908 23.908 0 0 0 11.79 3.065zm143.063-26.175a61.623 61.623 0 0 1 6.164 34.561 102.444 102.444 0 0 0 -20.931-4.678c-4.074-11.388-2.981-22.779-2-28.442a34.957 34.957 0 0 0 7.207.646 3.5 3.5 0 0 0 0-7c-4.922 0-7.03-.805-7.573-1.059a28.079 28.079 0 0 1 -7.745-23.986c.339.014.691.023 1.066.023a23.556 23.556 0 0 0 13.961-4.442 39.724 39.724 0 0 1 9.559 32.1 3.489 3.489 0 0 0 .293 2.277zm-13.483-40.41a16.886 16.886 0 0 1 -13.288 3.219 31.812 31.812 0 0 1 -16.237-11.136 33.913 33.913 0 0 0 7.166-19.817c14.621 4.793 20.698 21.951 22.36 27.734zm-91.963-34.222a5.713 5.713 0 0 1 1.544-3.805c3.29-3.468 11.218-9.286 27.355-9.286 12.875 0 21.843 3.639 27.1 6.692a13.322 13.322 0 0 1 6.639 11.538 27.037 27.037 0 0 1 -6.229 17.485 3.622 3.622 0 0 1 -5.069.36c-3.131-2.566-8.7-5.626-17.447-5.626a53.559 53.559 0 0 0 -20.062 3.889 5.718 5.718 0 0 1 -6.654-1.668c-6.469-8.249-7.273-15.807-7.177-19.579zm-33.2 33.176a18.263 18.263 0 0 0 7.992 9.253 3.5 3.5 0 0 0 3.346-6.149c-4.228-2.3-5.516-7.284-5.829-8.891 3.865-16.978 14.167-22.372 20.818-24.066a38.627 38.627 0 0 0 7.911 19.725c-4.962 12.558-17.283 19.123-17.4 19.187a3.5 3.5 0 0 0 -1.777 3.991c2.231 8.552-3.253 15.905-5.549 18.517-13.61-.988-16.111-7.961-16.448-9.2-.557-12.25 3.69-19.022 6.933-22.367zm-11.646 28.558c2.61 3.948 8.17 8.867 19.818 9.917 2.644 11.786-2.183 18.481-3.573 20.108-10.139 4.4-16.868.442-18.94-1.11-4.45-16.48-.455-25.051 2.695-28.915z" fill="#3e3e54"/><path d="m308.141 190.954c-.139-.405-.26-.8-.41-1.211 1.789-4.338 5.754-17.306-2.5-32.873 1.1-4.531 3.38-18.225-5.106-31.1.3-6.777.739-38.614-15.683-56.215-7.167-7.679-16.52-11.581-27.8-11.6-1.388-.07-12.268-.419-20.938 5.7a22.133 22.133 0 0 0 -7.544 26.56c3.1 7.657 11.041 16.69 31.132 17.811-.559 5.124.085 13.764 8 22.17-2.714 5.938-4.1 16.541 4.224 27.4-1.758 5.137-5.255 18.886 2.41 30.92a41.463 41.463 0 0 0 .031 31.487c-2.78 4.088-8.23 14.66-2.7 28.8-.172.066-.341.132-.522.2a23.606 23.606 0 0 1 -13.9.893c-9.624-2.325-18.021-.031-23.646 6.459a3.5 3.5 0 1 0 5.289 4.585c4.9-5.658 11.795-5.428 16.713-4.24a30.567 30.567 0 0 0 18-1.144c2.444-.919 4.132-1.719 4.2-1.753.015-.007.028-.019.044-.027s.029-.008.043-.015c.153-.079 15.65-7.852 30.22-6h.08s.044.01.067.012c3.858.33 14.88 2.368 19.483 7.761a3.5 3.5 0 0 0 5.324-4.545c-5.3-6.212-15.036-8.719-20.416-9.666a48.379 48.379 0 0 0 -2.8-21.467c1.1-3.083 3.045-10.744.663-21.92a102.522 102.522 0 0 1 19.123 1.751 3.5 3.5 0 0 0 1.54-6.829 109.8 109.8 0 0 0 -22.621-1.904zm-27.807-5.454c-5.8-8.4-4.191-18.542-2.762-23.723a32.464 32.464 0 0 0 11.507 2.165 29.488 29.488 0 0 0 10.83-2.066c5.685 12.1 2.727 21.821 1.44 25-9.689 3.501-18.622-.22-21.015-1.376zm-13.988-77.512a37.662 37.662 0 0 0 12.494-3.207 3.5 3.5 0 1 0 -3.059-6.3c-5.247 2.549-12.038 2.662-12.229 2.664-15.318 0-25.313-4.689-28.9-13.554a15.161 15.161 0 0 1 5.092-18.213c7.018-4.954 16.485-4.432 16.568-4.427s.155.008.232.008a.28.28 0 0 1 .029 0c9.29 0 16.943 3.15 22.745 9.361 15.98 17.107 13.787 51.854 13.763 52.2a3.5 3.5 0 0 0 .634 2.263c7.4 10.461 5.663 22.181 4.79 26.088a24.093 24.093 0 0 1 -20.716-.647c-7.378-8.928-5.857-16.706-4.4-20.393a26.872 26.872 0 0 0 6.51.785 29 29 0 0 0 4.369-.334 3.5 3.5 0 0 0 -1.059-6.92 19.712 19.712 0 0 1 -9.62-.773c-7.772-7.405-7.803-15.016-7.243-18.602zm11.329 138.022c-3.6-9.528-.953-16.819 1.1-20.5a20.3 20.3 0 0 0 9.952 2.332 29.746 29.746 0 0 0 3.013-.158 3.5 3.5 0 0 0 -.713-6.964c-6.221.637-9.225-1.422-10.108-2.185-4.921-11.584-2.835-21.1-1.194-25.664a36.415 36.415 0 0 0 13.068 2.5 31.99 31.99 0 0 0 9.025-1.289c4.927 15.106.918 23.806.746 24.168a3.5 3.5 0 0 0 -.147 2.794c3.358 8.95 3.28 15.907 2.869 19.5-11.386-.551-22.28 3.239-27.611 5.466z" fill="#3e3e54"/></svg>