<svg width="160" height="160" viewBox="0 0 160 160" xmlns="http://www.w3.org/2000/svg">
  <defs>
    <radialGradient id="pixieBody" cx="50%" cy="42%" r="72%">
      <stop offset="0%" stop-color="#ecfeff"/>
      <stop offset="55%" stop-color="#5eead4"/>
      <stop offset="100%" stop-color="#0f766e"/>
    </radialGradient>
    <linearGradient id="pixieGlow" x1="0" y1="0" x2="1" y2="1">
      <stop offset="0%" stop-color="#67e8f9"/>
      <stop offset="100%" stop-color="#14b8a6"/>
    </linearGradient>
  </defs>
  <rect x="28" y="132" width="104" height="16" rx="8" fill="#0f766e" opacity="0.25"/>
  <ellipse cx="80" cy="136" rx="40" ry="12" fill="#14b8a6" opacity="0.25"/>
  <g stroke="#0f766e" stroke-width="3" stroke-linecap="round" stroke-linejoin="round">
    <path d="M44 58c0-20 16-36 26-36 8 0 18 10 18 10s10-10 18-10c10 0 26 16 26 36" fill="#ecfeff"/>
    <path d="M80 46c-18 0-36 18-36 40s16 40 36 40 36-18 36-40-18-40-36-40z" fill="url(#pixieBody)"/>
    <path d="M60 88c6-8 12-12 20-12s14 4 20 12" stroke="#ecfeff"/>
    <path d="M70 102c6 6 14 6 20 0" stroke="#ecfeff"/>
  </g>
  <g fill="#0f766e">
    <circle cx="66" cy="78" r="6"/>
    <circle cx="94" cy="78" r="6"/>
    <path d="M78 88c2 3 4 3 6 0" stroke="#0f766e" stroke-width="3" fill="none" stroke-linecap="round"/>
  </g>
  <circle cx="80" cy="56" r="10" fill="url(#pixieGlow)" opacity="0.6"/>
  <path d="M54 46c6-8 32-8 38 0" stroke="#5eead4" stroke-width="6" stroke-linecap="round"/>
  <text x="80" y="154" font-size="16" text-anchor="middle" fill="#0f766e" font-family="'Baloo 2', 'Comic Sans MS', cursive">Tide Pixie</text>
</svg>
