<svg id="Layer_1" enable-background="new 0 0 512 512" viewBox="0 0 512 512" xmlns="http://www.w3.org/2000/svg"><g><g><g><g><g><path d="m396.291 7.5-30.935 479.291 60.294 3.892 11.151-197.002 4.487-283.277z" fill="#fcad42"/></g></g><g><g><path d="m239.342 280.098-129.826-271.861-27.42 12.057 165.381 344.964z" fill="#fee95d"/></g></g><g><g><path d="m247.477 365.258-165.381-344.964-41.276 18.151 193.331 439.659 23.133-10.172z" fill="#fcad42"/></g></g><g><g><path d="m248.712 455.125-187.224-425.769-20.668 9.089 193.331 439.659 23.133-10.172-1.519-15.908z" fill="#f69500"/></g></g><g><g><path d="m275.252 20.643-60.145 5.745 45.671 478.112 44.886-4.288z" fill="#fcad42"/></g></g><g><g><path d="m305.664 500.212-1.425-22.466-23.203 2.216-44.531-455.714-21.398 2.14 45.671 478.112z" fill="#f69500"/></g></g><g><g><path d="m304.753 17.824-29.501 2.819 30.412 479.569 29.819-2.848z" fill="#fee95d"/></g></g><g><g><path d="m333.464 475.256-29.206 2.789 1.406 22.167 29.819-2.848z" fill="#f7d700"/></g></g><g><g><path d="m243.625 97.118-1.5-14.925 14.925-1.5 1.5 14.925zm-3.008-29.951-1.341-14.94 14.94-1.341 1.341 14.94z" fill="#fff"/></g></g><g><g><path d="m441.288 10.404-15.638 480.279 29.573 1.909 15.957-480.259z" fill="#fee95d"/></g></g><g><g><path d="m426.65 468.725-1 21.958 29.573 1.909.73-21.975z" fill="#f7d700"/></g></g><g><g><path d="m387.684 465.898 29.499-457.05-20.892-1.348-30.935 479.291 60.294 3.892.726-22.288z" fill="#f69500"/></g></g></g></g><g><path d="m303.729 10.344-89.655 8.564-6.753 8.18 20.207 211.539-111.572-233.637-9.788-3.634-68.704 30.211-3.847 9.886 43.2 98.241 13.733-6.039-40.181-91.375 27.764-12.209 161.778 338.194 9.076 95.012-11.306 4.972-140.51-319.537-13.733 6.039 143.53 326.403 9.886 3.847 13.636-5.996 2.507 26.242 8.18 6.753 74.712-7.137 6.772-7.946-30.733-479.586zm-211.857 13.686 13.68-6.015 126.133 264.131 4.077 42.684zm131.095 9.098 44.976-4.296 29.465 464.637-30.192 2.884zm89.382 458.914-29.465-464.637 14.568-1.391 29.773 464.608z"/><path d="m471.369 4.834-74.897-4.834-7.968 7.002-30.938 479.338 7.002 7.968 89.876 5.8 7.979-7.236 15.959-480.305zm-23.681 479.806-14.603-.942 5.94-182.44-14.994-.488-5.925 181.961-45.087-2.91 29.972-464.368 30.266 1.954-8.738 268.361 14.994.488 8.723-267.883 14.912.962z"/></g></g><g/><g/><g/><g/><g/><g/><g/><g/><g/><g/><g/><g/><g/><g/><g/></svg>