<svg id="Layer_1" enable-background="new 0 0 512 512" viewBox="0 0 512 512" xmlns="http://www.w3.org/2000/svg"><g><g><g><g><g><path d="m263.681 68.564h-15.17c-62.032 0-112.319 50.287-112.319 112.319h239.808c0-62.032-50.287-112.319-112.319-112.319z" fill="#b6e6fa"/></g></g><g><g><path d="m373.744 158.383h-212.316c10.171-50.014 53.577-87.947 106.157-89.744-70.048-7.098-130.961 41.131-131.394 112.244h239.809c0-7.706-.778-15.231-2.256-22.5z" fill="#8ad8f6"/></g></g><g><g><path d="m264.104 7.5c-12.786 0-23.152 10.365-23.152 23.152v150.231h30.096v-142.383h74.952v-31z" fill="#fee95d"/></g></g><g><g><g><path d="m240.952 158.383h30.096v22.5h-30.096z" fill="#f7d700"/></g></g></g><g><g><path d="m153.872 438.688 5.128 65.812h195l4.633-61.635z" fill="#e3edf6"/></g></g><g><g><path d="m136.191 211.798 17.681 226.89 204.761 4.177 17.367-231.067z" fill="#fff"/></g></g><g><g><path d="m177.23 445.82-22.837-.442 4.607 59.122h22.803z" fill="#c5d9ec"/></g></g><g><g><path d="m158.994 211.798h-22.803l18.202 233.58 22.837.442z" fill="#e3edf6"/></g></g><g><g><path d="m294.662 270.836c-10.02 0-17.467 1.055-23.662 2.624l-89.033 7.136c-11.194-4.394-19.57-9.534-40.946-9.753l12.89 167.841c1.512 19.693 17.933 34.901 37.684 34.901h129.669c19.775 0 36.206-15.243 37.688-34.962l11.41-151.807c-36.699-.625-37.477-15.98-75.7-15.98z" fill="#f88fa4"/></g></g><g><g><path d="m192.595 450.085c-7.943 0-14.642-6.204-15.25-14.123l-12.536-162.242c-5.872-1.632-13.952-2.776-23.788-2.877l12.89 167.841c1.512 19.693 17.933 34.901 37.684 34.901h129.669c15.342 0 28.666-10.178 34.563-23.5z" fill="#f05475"/></g></g><g><g><path d="m240.952 210.883h30.048v195h-30.048z" fill="#fee95d"/></g></g><g><g><path d="m121 180.883h270v30h-270z" fill="#54c9f3"/></g></g><g><g><path d="m251.318 442.897c14.956.066 37.687-1.789 62.863-11.952.139-.056.279-.113.417-.169 17.514-7.126 21.982-29.896 8.612-43.266l-16.867-16.867c-13.381-13.381-36.041-8.842-43.282 8.642-.221.534-.441 1.072-.658 1.615-10.067 25.107-11.427 47.694-11.085 61.997z" fill="#f05475"/></g></g><g><g><path d="m284.36 380.9c.218-.542.437-1.081.658-1.615 2.75-6.639 7.724-11.406 13.568-14.039-13.093-5.985-29.552-.382-35.525 14.039-.221.534-.441 1.072-.658 1.615-10.066 25.107-11.427 47.694-11.085 61.997 6.125.027 13.57-.281 21.937-1.337-.226-14.351 1.342-36.308 11.105-60.66z" fill="#e21743"/></g></g><g><g><path d="m240.961 270.034c-8.141-15.509-29.417-18.966-42.158-6.226l-16.867 16.867c-13.381 13.381-8.842 36.041 8.642 43.282.534.221 1.073.441 1.615.658 18.371 7.366 35.393 10.07 48.807 10.857z" fill="#f05475"/></g></g><g><g><path d="m202.872 290.689 16.867-16.867c5.265-5.265 11.987-7.756 18.638-7.782-9.426-12.015-28.013-13.792-39.574-2.232l-16.867 16.867c-13.381 13.381-8.842 36.041 8.642 43.282.534.221 1.073.441 1.615.658 3.73 1.495 7.4 2.79 10.999 3.924-10.224-9.859-11.233-26.938-.32-37.85z" fill="#e21743"/></g></g><g><g><path d="m166 143.383h15v15h-15z" fill="#fff"/></g></g><g><g><path d="m196 143.383h15v15h-15z" fill="#fff"/></g></g><g><g><circle cx="316" cy="323.581" fill="#e21743" r="15"/></g></g><g><g><circle cx="196" cy="390.883" fill="#e21743" r="15"/></g></g></g></g><g><path d="m398.5 173.383h-15.242c-3.578-57.63-48.071-104.356-104.711-111.397v-15.986h74.953v-46h-89.396c-16.901 0-30.651 13.75-30.651 30.651v31.356c-56.549 7.122-100.946 53.81-104.519 111.375h-15.434v45h15.682l22.88 293.618h148.938v-15h-135.062l-2.078-26.665c8.266 6.719 18.76 10.75 30.064 10.75h124.941c11.367 0 21.906-4.066 30.188-10.839l-2.011 26.754h-31.042v15h44.958l22.069-293.617h15.473zm-30.266 0h-89.687v-96.264c48.354 6.896 86.181 46.912 89.687 96.264zm-119.782-142.732c0-8.63 7.021-15.651 15.651-15.651h74.397v16h-74.952v30.064h-15.037c-.02 0-.039.001-.059.001zm-15 46.494v43.738h15v-44.818c.02 0 .039-.001.059-.001h15.037v97.319h-15.096v-37.5h-15v37.5h-89.495c3.502-49.287 41.233-89.264 89.495-96.238zm35.913 306.543c3.94-13.277 22.042-17.942 31.674-7.743l16.868 16.868c4.6 4.6 6.498 10.902 5.207 17.289-1.275 6.31-5.41 11.313-11.343 13.727l-.397.162c-16.707 6.744-34.353 10.524-52.558 11.27.433-17.852 3.971-35.166 10.549-51.573zm-5.817-18.351c-8.577 8.697-11.708 21.616-15.096 32.982v-179.936h15.096zm-76.309-79.358 16.867-16.868c7.988-8.506 23.304-6.956 29.346 2.938v55.249c-13.269-1.487-26.177-4.716-38.471-9.645-13.295-3.916-17.917-22.123-7.742-31.674zm46.213-33.572c-12.903-6.87-29.706-4.462-39.953 6.098l-13.29 13.29c-8.566-3.512-17.451-7.095-32.455-8.146l-3.527-45.266h89.225zm118.15 183.31c-1.28 17.028-15.659 30.368-32.736 30.368h-124.941c-17.03 0-31.406-13.299-32.729-30.277l-.026.002-12.235-157.014c9.168.871 15.5 2.89 21.43 5.207-9.477 17.533.046 41.298 19.036 47.575 14.065 5.639 28.852 9.262 44.05 10.809v70.933h12.309c-1.527 9.748-2.182 19.684-1.942 29.756l7.464 7.321c22.77.105 44.918-4.103 65.725-12.504 22.354-8.008 28.768-39.438 11.505-55.685l-16.868-16.868c-8.603-8.645-21.353-12.022-33.098-8.73v-77.065c4.857-.814 10.1-1.209 16.115-1.209 18.03 0 26.842 3.613 36.171 7.439 8.402 3.446 17.068 6.982 31.472 8.152l-10.657 141.794zm11.828-156.752c-12.083-1.007-19.326-3.961-26.905-7.069-10.263-4.208-20.876-8.561-41.863-8.561-5.791 0-11.123.347-16.115 1.041v-45.994h89.436zm20.07-75.582h-255v-15h.191 254.809z"/><path d="m316 301.082c-12.407 0-22.5 10.093-22.5 22.5s10.093 22.5 22.5 22.5c12.406 0 22.5-10.093 22.5-22.5s-10.094-22.5-22.5-22.5zm0 29.999c-4.136 0-7.5-3.364-7.5-7.5 0-4.135 3.364-7.5 7.5-7.5 4.135 0 7.5 3.364 7.5 7.5s-3.365 7.5-7.5 7.5z"/><path d="m196 368.383c-12.407 0-22.5 10.093-22.5 22.5s10.093 22.5 22.5 22.5 22.5-10.093 22.5-22.5c0-12.406-10.093-22.5-22.5-22.5zm0 30c-4.136 0-7.5-3.364-7.5-7.5 0-4.135 3.364-7.5 7.5-7.5s7.5 3.364 7.5 7.5-3.364 7.5-7.5 7.5z"/></g></g><g/><g/><g/><g/><g/><g/><g/><g/><g/><g/><g/><g/><g/><g/><g/></svg>