<svg id="Layer_1" enable-background="new 0 0 512 512" viewBox="0 0 512 512" xmlns="http://www.w3.org/2000/svg"><g><g><g><g><g><path d="m238.097 187.153c-25.197.259-47.786 3.125-75.333-24.421s-26.232-51.688-24.421-75.333l-78.178-78.178c-68.934 67.885-71.255 184.12 0 254.558 70.294 70.294 184.264 70.294 254.558 0z" fill="#f05475"/></g></g><g><g><path d="m77.645 247.299c-65.461-64.71-66.092-167.576-16.485-237.083l-.995-.995c-68.934 67.885-71.255 184.12 0 254.558 70.294 70.294 184.264 70.294 254.558 0l-1.06-1.06c-70.59 54.427-171.309 49.29-236.018-15.42z" fill="#e21743"/></g></g><g><g><path d="m81.378 30.434c-58.579 58.579-58.579 153.553 0 212.132s153.553 58.579 212.132 0l-55.413-55.413c-25.197.259-47.786 3.125-75.333-24.421s-26.232-51.688-24.421-75.333z" fill="#fef2e2"/></g></g><g><g><path d="m98.102 225.843c-52.888-52.888-58.019-135.44-15.407-194.092l-1.317-1.317c-58.579 58.579-58.579 153.553 0 212.132s153.553 58.579 212.132 0l-1.317-1.317c-58.652 42.612-141.204 37.481-194.091-15.406z" fill="#ffe1ba"/></g></g><g><g><path d="m375.209 272.126c.259 25.197 3.125 47.786-24.421 75.333s-51.688 26.232-75.333 24.421l-78.179 78.179c67.885 68.934 184.12 71.255 254.558 0 70.294-70.294 70.294-184.264 0-254.558z" fill="#f05475"/></g></g><g><g><g><path d="m213.362 433.973-16.085 16.085c67.885 68.934 184.12 71.255 254.558 0 2.596-2.596 5.084-5.258 7.489-7.969-70.992 62.837-180.769 58.085-245.962-8.116z" fill="#e21743"/></g></g></g><g><g><path d="m218.49 428.845c58.579 58.579 153.553 58.579 212.132 0s58.579-153.553 0-212.132l-55.413 55.413c.259 25.197 3.125 47.786-24.421 75.333s-51.688 26.232-75.333 24.421z" fill="#fef2e2"/></g></g><g><g><g><path d="m233.809 413.526-15.319 15.319c58.579 58.579 153.553 58.579 212.132 0 2.576-2.576 5.032-5.226 7.382-7.937-58.928 51.077-148.192 48.621-204.195-7.382z" fill="#ffe1ba"/></g></g></g></g></g><g><path d="m241.211 181.007c-27.296.087-47.03 3.904-73.104-22.192-26.816-27.132-23.682-49.091-21.983-72.894l-85.92-85.921c-12.829 12.335-24.498 26.155-33.527 41.379l12.855 7.729c5.947-9.892 12.921-19.21 20.786-27.781l10.619 10.619c-26.464 29.049-40.954 66.38-40.954 105.94 0 42.07 16.383 81.622 46.131 111.369 29.748 29.748 69.3 46.131 111.37 46.131 39.56 0 76.891-14.49 105.94-40.953l10.619 10.619c-67.592 62.02-173.053 60.292-238.535-5.189-51.627-51.628-65.172-130.549-33.705-196.386l-13.533-6.469c-34.204 71.563-19.482 157.346 36.632 213.46 36.553 36.553 84.568 54.83 132.583 54.83 50.323.282 101.267-20.85 137.886-60.133zm-53.727 99.379c-38.063 0-73.848-14.823-100.763-41.737-26.915-26.915-41.737-62.7-41.737-100.763 0-35.552 12.935-69.115 36.573-95.32l49.089 49.089c-1.605 21.985-2.097 48.814 26.855 77.766 28.866 28.602 52.476 27.032 77.572 26.661l47.73 47.73c-26.205 23.638-59.767 36.574-95.319 36.574z"/><path d="m148.164 190.919h15v21.213h-15z"/><path d="m113.237 162.206h21.213v15h-21.213z"/><path d="m367.62 270.772c.088 27.296 3.904 47.031-22.192 73.104-27.13 26.816-49.088 23.684-72.895 21.982l-85.92 85.921c35.935 38.326 85.233 60.381 137.886 60.221 50.083 0 97.169-19.503 132.583-54.917s54.917-82.5 54.917-132.583c.167-52.645-21.912-101.977-60.221-137.886zm78.855 175.703c-32.58 32.581-75.898 50.524-121.976 50.524-43.567 0-84.67-16.042-116.56-45.333l10.624-10.624c29.947 27.251 67.94 40.883 105.937 40.883 40.332 0 80.665-15.353 111.37-46.057 35.636-35.636 52.132-86.656 44.127-136.479l-14.811 2.38c7.244 45.084-7.681 91.249-39.924 123.492-53.782 53.782-140.21 55.502-196.083 5.164l49.088-49.089c21.984 1.604 48.814 2.097 77.768-26.855 28.601-28.866 27.031-52.478 26.66-77.572l47.718-47.718c15.022 16.69 25.944 36.703 31.731 58.327l14.49-3.878c-6.467-24.164-18.727-46.505-35.603-65.067l10.635-10.635c29.291 31.89 45.333 72.992 45.333 116.56 0 46.077-17.942 89.396-50.524 121.977z"/><path d="m377.533 348.82h21.213v15h-21.213z"/><path d="m348.82 377.533h15v21.213h-15z"/></g></g><g/><g/><g/><g/><g/><g/><g/><g/><g/><g/><g/><g/><g/><g/><g/></svg>