<svg id="Layer_1" enable-background="new 0 0 512 512" viewBox="0 0 512 512" xmlns="http://www.w3.org/2000/svg"><g><g><g><g><g><path d="m281.647 206.362c-20.516-14.044-25.762-42.06-11.718-62.575l16.953-24.765c14.044-20.516 42.06-25.762 62.575-11.718 20.516 14.044 25.762 42.06 11.718 62.575l-16.953 24.764c-14.043 20.517-42.059 25.763-62.575 11.719z" fill="#c3f839"/></g></g><g><g><path d="m367.966 154.244c-29.587-12.333-64.291.412-81.281 26.097-12.176-12.93-15.614-32-8.655-48.387l-8.101 11.833c-14.137 20.515-8.602 48.742 11.718 62.575 11.497 7.967 26.694 10.029 39.912 5.477 13.079-4.023 21.451-14.414 28.668-25.968 5.053-7.387 17.393-29.201 17.739-31.627z" fill="#abe700"/></g></g><g><g><path d="m494.764 431.311c-.281-.192-.567-.374-.857-.548-7.347-4.381-12.802-11.273-14.889-19.569-6.775-26.936-28.297-49.044-57.306-55.154l-29.367-6.185c-19.67-4.143-39.15-.152-54.983 9.667-3.844-18.229-14.422-35.068-31.009-46.423l-24.765-16.953c-16.587-11.355-36.112-15.122-54.497-12.11 3.424-18.313.096-37.918-10.883-54.755l-16.392-25.139c-10.979-16.838-27.576-27.791-45.714-32.043 10.171-15.608 14.599-34.995 10.899-54.752l-5.524-29.498c-5.646-30.151-28.595-52.682-56.658-59.259-6.358-1.49-11.649-5.766-14.412-11.683-6.808-14.587-27.853-11.677-30.138 5.047-.852 6.241-4.755 11.656-10.203 14.818-26.705 15.498-42.087 46.614-36.08 78.695l5.524 29.499c5.64 30.121 28.555 52.623 56.58 59.227-15.693 24.139-16.706 56.24.031 81.909l16.392 25.139c16.738 25.67 46.52 37.69 74.938 33.066-5.261 28.307 6.087 58.352 31.375 75.662l24.764 16.953c25.287 17.31 57.402 17.019 81.887 1.872 5.745 27.094 26.305 49.791 54.552 57.101l15.764 3.401 16.991 3.579c30.487 6.421 60.538-6.659 77.206-30.779 4.691-6.789 11.737-11.744 19.889-13.026 2.048-.322 4.033-.927 5.89-1.966 9.47-5.223 10.261-19.586.995-25.793z" fill="#54e072"/></g></g><g><g><path d="m450.299 438.735c-5.124 24.328-29 39.896-53.328 34.773l-29.367-6.185c-24.328-5.124-39.896-29-34.772-53.328 5.124-24.328 29-39.896 53.328-34.772l29.367 6.185c24.328 5.123 39.896 28.999 34.772 53.327z" fill="#c3f839"/></g></g><g><g><path d="m402.716 451.55-29.367-6.185c-21.235-4.472-35.793-23.232-35.744-44.109-2.175 3.882-3.807 8.155-4.773 12.739-5.124 24.328 10.444 48.204 34.772 53.328l29.367 6.185c24.328 5.124 48.204-10.444 53.328-34.772.651-3.093.965-6.178.972-9.219-9.366 16.72-28.811 26.192-48.555 22.033z" fill="#abe700"/></g></g><g><g><path d="m301.119 400.439c-14.044 20.516-42.06 25.762-62.575 11.718l-24.764-16.953c-20.516-14.044-25.762-42.06-11.718-62.575 14.044-20.516 42.06-25.762 62.575-11.718l24.764 16.953c20.515 14.044 25.762 42.06 11.718 62.575z" fill="#c3f839"/></g></g><g><g><path d="m249.522 392.37-24.764-16.953c-16.063-10.996-22.763-30.558-18.174-48.378-1.627 1.716-3.144 3.577-4.523 5.59-14.044 20.516-8.798 48.531 11.718 62.575l24.765 16.953c20.516 14.044 48.531 8.798 62.575-11.718 3.048-4.452 5.184-9.258 6.456-14.197-14.952 15.764-39.551 18.793-58.053 6.128z" fill="#abe700"/></g></g><g><g><path d="m177.949 307.969c-20.826 13.58-48.717 7.705-62.296-13.121l-16.392-25.138c-13.579-20.826-7.705-48.717 13.121-62.296 20.826-13.579 48.717-7.705 62.296 13.121l16.392 25.139c13.579 20.825 7.705 48.716-13.121 62.295z" fill="#c3f839"/></g></g><g><g><path d="m133.015 280.168-16.392-25.139c-10.358-15.885-9.386-35.874.895-50.494-1.749.841-3.467 1.79-5.135 2.878-20.826 13.579-26.7 41.471-13.121 62.296l16.392 25.139c13.58 20.826 41.47 26.7 62.296 13.121 4.941-3.222 9.029-7.255 12.226-11.803-20.073 9.651-44.67 3.159-57.161-15.998z" fill="#abe700"/></g></g><g><g><path d="m99.542 175.404c-24.437 4.576-47.957-11.524-52.533-35.962l-5.524-29.498c-4.576-24.438 11.524-47.958 35.961-52.534 24.437-4.576 47.957 11.524 52.533 35.962l5.524 29.498c4.577 24.438-11.524 47.957-35.961 52.534z" fill="#c3f839"/></g></g><g><g><path d="m69.055 132.58-5.524-29.498c-3.501-18.697 5.11-36.847 20.291-46.396-2.11.092-4.239.325-6.375.725-24.437 4.576-40.538 28.096-35.962 52.533l5.524 29.498c4.576 24.437 28.096 40.538 52.533 35.962 5.74-1.075 11.011-3.205 15.671-6.137-22.029.963-41.982-14.386-46.158-36.687z" fill="#abe700"/></g></g><g><g><path d="m71.417 143.257-2.969-14.703 14.703-2.969 2.969 14.703zm-5.937-29.406-2.969-14.703 14.703-2.969 2.969 14.703z" fill="#fff"/></g></g><g><g><path d="m357.25 290.858c-24.437 4.576-47.957-11.524-52.533-35.962l-5.524-29.498c-4.576-24.437 11.524-47.957 35.962-52.533 24.437-4.576 47.957 11.524 52.533 35.962l5.524 29.498c4.575 24.437-11.525 47.957-35.962 52.533z" fill="#c3f839"/></g></g><g><g><path d="m325.564 248.747-5.524-29.499c-3.589-19.167 5.545-37.766 21.442-47.106-2.095.094-4.207.325-6.327.722-24.437 4.576-40.538 28.096-35.962 52.533l5.524 29.499c4.576 24.437 28.096 40.538 52.533 35.962 5.27-.987 10.149-2.859 14.52-5.427-22.048.987-42.027-14.367-46.206-36.684z" fill="#abe700"/></g></g></g></g><g><path d="m417.118 378.06-29.366-6.185c-27.502-6.391-56.963 12.824-62.21 40.563-6.389 27.501 12.823 56.963 40.563 62.21l29.366 6.185c27.626 6.054 56.392-12.086 62.21-40.564 5.967-28.335-12.229-56.242-40.563-62.209zm-71.613 65.691c-5.473-8.394-7.35-18.417-5.285-28.222 3.713-19.812 24.882-33.559 44.441-28.978l29.366 6.185c20.241 4.263 33.24 24.199 28.978 44.442h-.001c-3.748 19.817-24.795 33.541-44.44 28.977l-29.366-6.185c-9.805-2.064-18.22-7.824-23.693-16.219z"/><path d="m209.599 401.384 24.762 16.952c23.607 16.238 56.544 10.392 72.997-13.67 16.353-23.893 10.223-56.64-13.669-72.997l-24.763-16.952c-23.892-16.356-56.64-10.224-72.996 13.67-16.427 22.962-9.952 57.534 13.669 72.997zm-1.293-64.525c11.755-17.19 35.282-21.365 52.148-9.765l24.763 16.952c17.068 11.685 21.449 35.078 9.765 52.147-11.687 17.07-35.08 21.451-52.149 9.765l-24.762-16.952c-16.875-11.047-21.499-35.743-9.765-52.147z"/><path d="m109.432 298.94c14.959 23.951 49.242 31.23 72.671 15.306 23.963-14.929 31.212-49.346 15.306-72.672l-16.392-25.137c-14.929-23.964-49.343-31.212-72.671-15.306-24.255 15.815-31.121 48.415-15.306 72.672zm7.107-85.244c16.737-11.377 41.228-6.174 51.914 10.934l16.392 25.137c11.362 16.664 6.185 41.25-10.935 51.914-16.663 11.363-41.25 6.185-51.914-10.934l-16.392-25.137c-11.298-17.327-6.392-40.616 10.935-51.914z"/><path d="m100.984 182.777c28.461-5.33 47.281-32.822 41.951-61.283l-5.524-29.497c-4.624-27.854-33.641-47.718-61.283-41.951-27.852 4.622-47.719 33.646-41.951 61.282l5.524 29.497c5.204 28.629 33.491 47.367 61.283 41.952zm-46.539-44.712-5.524-29.497c-4.122-19.743 10.071-40.477 29.969-43.778 19.654-4.143 40.513 10.08 43.778 29.969l5.524 29.497c3.807 20.332-9.636 39.972-29.968 43.779-20.334 3.809-39.972-9.638-43.779-29.97z"/><path d="m277.463 212.551c4.22 2.889 8.761 5.102 13.546 6.645.105 2.523.389 5.055.862 7.582l5.524 29.497c4.571 27.843 33.771 47.748 61.283 41.951 28.46-5.33 47.28-32.821 41.95-61.282l-5.523-29.497c-2.973-15.876-12.847-28.745-25.933-36.102 14.09-23.597 7.552-54.489-15.431-70.222-23.893-16.356-56.641-10.225-72.996 13.67l12.376 8.472c11.685-17.069 35.079-21.45 52.148-9.765 8.268 5.66 13.838 14.202 15.683 24.051 1.862 9.931-.3 20.007-6.063 28.307-6.732-1.507-13.867-1.71-21.065-.362-13.788 2.582-25.745 10.378-33.668 21.953-3.474 5.076-5.99 10.612-7.503 16.391-2.339-.981-4.583-2.204-6.717-3.665-17.069-11.684-21.449-35.078-9.765-52.147l7.738-11.304-12.376-8.472-7.738 11.304c-7.923 11.575-10.866 25.542-8.284 39.329 2.581 13.786 10.378 25.743 21.952 33.666zm35.07-16.63c5.66-8.269 14.201-13.838 24.051-15.682 2.324-.436 4.637-.645 6.921-.645 17.691 0 33.486 12.605 36.857 30.613l5.523 29.497c3.807 20.332-9.636 39.971-29.968 43.778-20.325 3.807-39.972-9.637-43.778-29.969l-5.524-29.497c-1.844-9.849.257-19.827 5.918-28.095z"/><path d="m499.032 425.104c-6.266-3.531-11.106-9.076-12.699-15.749-7.764-30.864-31.916-54.107-63.031-60.66l-29.366-6.185c-17.616-3.711-35.677-1.595-51.792 5.929-5.698-16.848-16.648-31.364-31.504-41.533l-24.763-16.952c-14.857-10.171-32.346-15.124-50.118-14.342 1.184-17.746-3.378-35.347-13.212-50.429l-16.392-25.137c-9.833-15.081-24.098-26.354-40.814-32.429 7.883-15.943 10.406-33.95 7.091-51.646l-5.524-29.497c-6.016-32.132-30.477-57.716-62.314-65.178-4.139-.97-7.54-3.723-9.328-7.554-4.557-9.759-14.22-15.043-24.627-13.466-10.491 1.591-18.238 9.706-19.736 20.673-.517 3.776-2.96 7.27-6.537 9.346-30.154 17.499-46.103 52.284-39.685 86.558l5.524 29.497c5.397 28.827 25.669 52.398 52.794 62.318-12.75 25.915-11.115 56.96 4.904 81.526l16.391 25.138c16.021 24.568 43.757 38.585 72.623 37.371-1.862 28.822 11.529 56.878 35.73 73.444l24.763 16.952c24.199 16.565 55.194 18.899 81.383 6.74 8.863 26.235 30.142 46.246 57.407 53.301l3.758-14.521c-24.927-6.451-43.738-26.144-49.092-51.394l-11.282-4.823c-22.734 14.065-51.663 13.406-73.702-1.682l-24.763-16.952c-22.037-15.085-33.119-41.816-28.235-68.099l-8.578-8.773c-26.379 4.294-52.861-7.387-67.449-29.758l-16.391-25.138c-14.587-22.37-14.597-51.307-.025-73.721l-4.568-11.388c-26.021-6.131-46.01-27.054-50.925-53.304l-5.524-29.497c-5.251-28.044 7.798-56.506 32.471-70.824 18.554-10.942 9.314-25.982 20.993-28.163 11.558-1.462 7.478 15.846 28.283 20.795 26.054 6.107 46.071 27.042 50.993 53.335l5.524 29.497c3.211 17.141-.273 34.64-9.81 49.274l4.571 11.396c17.006 3.988 31.617 14.228 41.141 28.837l16.392 25.138c9.526 14.608 13.003 32.109 9.792 49.277l8.585 8.78c17.237-2.823 34.654 1.047 49.045 10.897l24.763 16.952c14.39 9.851 24.301 24.688 27.905 41.779l11.291 4.826c14.843-9.206 32.415-12.296 49.481-8.701l29.366 6.185c25.46 5.363 45.222 24.384 51.576 49.642 5.887 22.769 22.849 21.777 22.054 31.206-.712 12.168-17.606 2.631-31.976 23.599-15.515 22.451-42.793 33.324-69.487 27.702l-16.99-3.578-3.092 14.677 16.99 3.578c32.067 6.885 66-6.289 84.917-33.852 7.511-10.765 13.93-8.128 23.23-12.687 14.304-7.252 15.221-30.115 1.6-38.553z"/></g></g><g/><g/><g/><g/><g/><g/><g/><g/><g/><g/><g/><g/><g/><g/><g/></svg>