<svg id="Layer_1" enable-background="new 0 0 512 512" viewBox="0 0 512 512" xmlns="http://www.w3.org/2000/svg"><g><g><g><g><g><path d="m255.465 203.119-138.465-169.869-42.426 42.426 132.073 132.074 28.299-.028c6.019-.006 11.982-1.165 17.565-3.413z" fill="#fcad42"/></g></g><g><g><path d="m217.553 188.367-127.835-127.835-15.144 15.144 132.073 132.074 28.299-.028c6.019-.006 11.982-1.165 17.565-3.413l2.954-1.19-12.046-14.777z" fill="#f69500"/></g></g><g><g><g><path d="m76.361 270.908c-15.782 9.333-27.931 24.344-33.809 42.031h427.959c-7.46-22.645-25.19-40.622-47.675-48.437-11.584-28.668-37.379-50.07-68.668-55.437-1.153-15.368-6.136-29.668-13.997-41.948l-20.039-22.199c-15.483-12.312-35.084-19.667-56.403-19.667h-22.729v4.876c9.391 3.694 17.813 10.376 24.288 18.709 18.622 23.963 1.014 58.915-29.334 58.915h-61.279c-4.484 0-8.892.325-13.201.954l-48.742 23.499c-6.611 6.186-12.296 13.35-16.823 21.262z" fill="#fef2e2"/></g></g></g><g><g><path d="m235.954 214.532h21.863c30.348 0 47.957-41.733 29.334-65.697-6.476-8.333-14.897-15.015-24.288-18.709v-4.876h-21.863v4.876c9.391 3.694 17.813 10.376 24.288 18.709 18.623 23.963 1.014 65.697-29.334 65.697z" fill="#ffe1ba"/></g></g><g><g><path d="m457.857 289.449h-337.843c9.031-11.268 9.675-29.755 1.36-41.651 4.696-6.237 9.764-12.36 13.222-15.595l48.742-23.499c4.31-.628 8.717-.954 13.201-.954-8.866.141-26.541-.543-35.064.954l-48.742 23.499c-1.326 1.241-2.605 2.532-3.855 3.85-4.992 5.262-9.351 11.124-12.969 17.411l-19.548 17.443c-6.406 3.803-12.222 8.566-17.278 14.033.002.003.004.006.006.01-7.421 8.004-13.077 17.634-16.537 27.988h427.959c-2.835-8.605-7.156-16.533-12.654-23.489z" fill="#ffe1ba"/></g></g><g><g><path d="m7.5 432.75h497v46h-497z" fill="#ffdaaa"/></g></g><g><g><path d="m28.926 457.324v-24.574h-21.426v46h497v-21.426z" fill="#ffb680"/></g></g><g><g><path d="m407.351 432.75h-302.702c-44.817 0-81.149-36.332-81.149-81.149v-38.851h465v38.851c0 44.817-36.332 81.149-81.149 81.149z" fill="#8ad8f6"/></g></g><g><g><path d="m450.643 410.749h-345.284c-33.059 0-59.858-26.799-59.858-59.858v-38.141h-22.001v38.851c0 44.817 36.332 81.149 81.149 81.149h302.702c22.352 0 42.59-9.039 57.266-23.658-4.485 1.073-9.16 1.657-13.974 1.657z" fill="#54c9f3"/></g></g><g><g><path d="m45.715 121.605-31.031 51.352 169.649 102.517 41.286-18.501z" fill="#c3f839"/></g></g><g><g><path d="m184.811 249.744-158.422-95.733 19.502-32.274-.176-.132-31.031 51.352 169.649 102.517 41.286-18.501-18.791-14.139c-2.642-.011-6.136.248-10.083 1.315-5.364 1.45-9.379 3.804-11.934 5.595z" fill="#abe700"/></g></g><g><g><circle cx="91" cy="267.639" fill="#00ca0f" r="15"/></g></g><g><g><circle cx="271" cy="252.639" fill="#00ca0f" r="15"/></g></g><g><g><circle cx="331" cy="267.639" fill="#00ca0f" r="15"/></g></g><g><g><circle cx="331" cy="155.25" fill="#00ca0f" r="15"/></g></g><g><g><circle cx="411.404" cy="221.75" fill="#00ca0f" r="15"/></g></g><g><g><path d="m61 335.165h14.83v15h-14.83z" fill="#fff"/></g></g><g><g><path d="m91 335.165h45v15h-45z" fill="#fff"/></g></g></g></g><g><path d="m456.638 424.152c23.72-15.926 39.362-42.994 39.362-73.649v-46.351h-20.341c-8.645-21.198-25.829-38.237-47.184-46.655-2.491-5.594-5.502-10.898-8.949-15.868 8.403-3.265 14.378-11.434 14.378-20.977 0-12.407-10.094-22.5-22.5-22.5-9.975 0-18.451 6.528-21.391 15.534-8.888-5.477-18.658-9.564-28.963-11.975-1.64-12.183-5.585-24.01-11.576-34.737 2.535-3.641 4.027-8.06 4.027-12.823 0-12.407-10.094-22.5-22.5-22.5-3.945 0-7.655 1.024-10.882 2.815-16.549-11.663-35.917-17.815-56.39-17.815h-30.229v17.485c24.29 7.54 44.497 34.692 22.709 56.925l-72.648-89.124-11.627 9.478 70.857 86.927c-4.517 1.5-27.963.569-33.036.81l-124.575-124.574 31.253-31.252 45.292 55.564 11.627-9.478-50.538-62-11.117-.564-42.427 42.427v10.606l119.271 119.271c-6.982.054-18.178-.277-24.993.631l-113.322-85.27-10.929 2.114-31.032 51.353 2.54 10.298 90.009 54.391c-3.144 3.588-6.02 7.397-8.612 11.404-12.587-.713-23.379 9.304-23.685 21.837-13.996 9.377-24.843 22.698-31.164 38.241h-21.353v46.351c0 30.655 15.642 57.723 39.362 73.649h-55.362v61h421v-15h-406v-31h482v31h-61v15h76v-61h-55.362zm-45.235-211c4.136 0 7.5 3.364 7.5 7.5s-3.364 7.5-7.5 7.5-7.5-3.364-7.5-7.5 3.365-7.5 7.5-7.5zm-80.403-66.5c4.136 0 7.5 3.364 7.5 7.5s-3.364 7.5-7.5 7.5-7.5-3.364-7.5-7.5 3.364-7.5 7.5-7.5zm-95.046 67.5c17.083 0 32.376-9.567 39.913-24.968 10.568-20.422 1.693-44.371-15.839-57.532 17.935-.576 35.415 4.111 50.094 14.128-7.252 16.685 9.689 35.512 27.064 30.001 6.426 11.795 9.4 25.208 9.94 38.588 31.535 3.573 59.269 24.933 70.031 55.001 18.057 5.5 33.421 18.113 41.981 34.783h-291.057c16.486-29.511 49.852-44.131 83.418-41.411 3.89 6.746 11.172 11.299 19.501 11.299 12.406 0 22.5-10.093 22.5-22.5s-10.094-22.5-22.5-22.5c-11.111 0-20.361 8.098-22.173 18.701-6.383-.007-14.363-.142-20.6.71l-45.584-34.3zm27.546 37.388c0-4.136 3.364-7.5 7.5-7.5s7.5 3.364 7.5 7.5-3.364 7.5-7.5 7.5-7.5-3.364-7.5-7.5zm-215.659-120.049 161.14 121.25c-8.986 2.975-17.44 7.221-25.129 12.58l-158.87-96.003zm43.159 127.549c4.136 0 7.5 3.364 7.5 7.5s-3.364 7.5-7.5 7.5-7.5-3.364-7.5-7.5 3.364-7.5 7.5-7.5zm-17.444 21.692c4.129 5.066 10.414 8.308 17.444 8.308 12.406 0 22.5-10.093 22.5-22.5 0-6.522-2.792-12.402-7.24-16.515 2.308-3.331 4.853-6.491 7.625-9.458l57.703 34.869c-8.336 8.112-15.284 17.788-20.412 28.715h-97.333c4.728-9.156 11.458-17.16 19.713-23.419zm31.093 143.42c-40.61 0-73.649-33.039-73.649-73.649v-31.351h450v31.351c0 40.61-33.039 73.649-73.649 73.649z"/><path d="m331 289.04c12.406 0 22.5-10.093 22.5-22.5s-10.094-22.5-22.5-22.5-22.5 10.093-22.5 22.5 10.094 22.5 22.5 22.5zm0-30c4.136 0 7.5 3.364 7.5 7.5s-3.364 7.5-7.5 7.5-7.5-3.364-7.5-7.5 3.364-7.5 7.5-7.5z"/></g></g><g/><g/><g/><g/><g/><g/><g/><g/><g/><g/><g/><g/><g/><g/><g/></svg>