<svg id="Layer_1" enable-background="new 0 0 512 512" viewBox="0 0 512 512" xmlns="http://www.w3.org/2000/svg"><g><g><g><g><g><path d="m486.24 294.791c-13.671-25.732-20.927-54.381-20.927-83.519v-51.093c0-58.032-46.597-105.938-104.629-106.139-58.16-.201-105.371 46.886-105.371 105v52.476c0 8.217-.597 16.386-1.757 24.459l14.116 233.253c25.501 22.017 58.697 35.27 94.548 34.8 77.822-1.02 140.593-64.423 140.593-142.487-.001-24.121-5.995-46.839-16.573-66.75z" fill="#54e072"/></g></g><g><g><path d="m469.249 453.395c-43.393 38.879-117.664 44.695-166.655 11.883 34.446-42.495 45.729-101.073 28.893-153.23-8.1-25.679-22.474-49.175-41.567-67.948-4.676-4.598-9.049-9.479-13.096-14.601 1.645-12.207.752-57.405.957-70.459 0-54.192 41.055-98.788 93.758-104.398-61.564-6.939-116.611 42.432-116.226 104.398v50.793c-.067 8.821-.471 17.472-1.757 26.142 1.288 21.278 12.53 207.048 14.116 233.253 28.18 25.655 66.224 37.061 103.948 34.359-1.049-.085 56.784-2.927 97.629-50.192z" fill="#00ca0f"/></g></g><g><g><path d="m459.207 307.795c-16.033-29.475-23.894-62.704-23.894-96.258v-51.557c0-41.355-33.078-75.633-74.431-75.939-41.682-.309-75.569 33.387-75.569 74.998v51.68c0 18.21-2.278 36.327-6.885 53.819l9.524 182.885c19.213 16.219 43.884 26.154 70.763 26.527 62.864.873 114.098-49.825 114.098-112.489-.001-19.434-4.93-37.716-13.606-53.666z" fill="#c3f839"/></g></g><g><g><path d="m447.765 432.225c-33.831 29.098-90.89 33.358-128.901 8.669 21.7-39.584 26.237-85.805 12.624-128.846-6.152-20.309-16.667-38.621-29.825-54.898 7.088-27.023 4.768-70.033 5.097-98.11 0-37.743 27.881-68.973 64.171-74.221-44.707-6.758-85.985 29.037-85.617 74.222-.261 31.532 2.247 75.246-6.885 105.499l9.524 182.885c22.664 20.16 53.307 28.667 83.159 26.02-.667-.066 44.526-3.424 76.653-41.22z" fill="#abe700"/></g></g><g><g><path d="m465.61 7.961c-34.188 0-63.548 20.673-76.26 50.2 9.215 2.745 26.742 9.315 43.21 25.092 14.441 13.836 21.663 28.617 25.127 37.283 8.257-4.622 33.091-19.78 42.395-49.697 2.424-7.795 3.73-16.083 3.73-24.676v-38.202z" fill="#c3f839"/></g></g><g><g><path d="m360.312 301.461c-19.789 0-37.34 9.58-48.269 24.355l.091 71.413c10.935 14.706 28.444 24.232 48.178 24.232 33.137 0 60-26.863 60-60s-26.863-60-60-60z" fill="#aa4b30"/></g></g><g><g><path d="m457.687 120.536c3.789-2.121 11.068-6.467 18.734-13.431-14.487-32.092-41.676-57.2-75.034-68.704-4.878 5.955-8.952 12.594-12.037 19.761 9.215 2.745 26.742 9.315 43.21 25.092 14.442 13.835 21.663 28.616 25.127 37.282z" fill="#abe700"/></g></g><g><g><path d="m376.202 405.572c-15.17 0-29.012-5.645-39.577-14.93 4.81-26.861 2.896-54.735-6.034-81.292-7.218 4.157-13.582 9.777-18.547 16.466l.091 71.413c4.991 6.679 11.366 12.314 18.617 16.434 25.732 15.697 63.51 6.414 79.182-18.469-9.613 6.547-21.224 10.378-33.732 10.378z" fill="#8d3d27"/></g></g><g><g><path d="m310.029 318.815c-7.255-23.002-19.805-42.865-35.883-58.672-20.778-20.428-36.316-45.568-45.081-73.356l-15.369-48.727c-17.456-55.344-76.306-87.015-131.71-69.75-55.528 17.304-86.388 76.411-68.907 131.834 4.601 14.587 11.158 35.377 15.785 50.046 8.797 27.889 10.201 57.471 4.994 86.248-3.994 22.073-2.82 45.416 4.429 68.292 23.721 74.858 105.948 116.867 180.521 92.266 73.911-24.383 114.703-103.732 91.221-178.181z" fill="#57758d"/></g></g><g><g><path d="m316.275 372.135c-4.248 11.511-10.328 23.199-18.163 34.695-21.858 32.075-54.947 58.437-86.353 68.798-30.324 10.003-63.02 7.335-92.065-7.515-29.027-14.841-50.321-39.765-59.958-70.18-5.972-18.847-7.229-38.189-3.737-57.49 5.944-32.853 3.981-66.403-5.677-97.021l-15.785-50.046c-7.775-24.65-8.158-53.352-1.025-76.777 3.247-10.663 9-23.311 19.148-33.843-36.342 25.635-53.674 72.707-39.581 117.388 4.601 14.587 11.158 35.377 15.785 50.046 8.797 27.889 10.201 57.471 4.994 86.248-3.994 22.073-2.82 45.416 4.429 68.292 23.721 74.858 105.948 116.867 180.521 92.266 56.273-18.565 93.34-68.993 97.467-124.861z" fill="#4b6276"/></g></g><g><g><path d="m46.216 162.821-14.948-1.245c.457-5.491 1.472-10.944 3.018-16.208l14.393 4.226c-1.262 4.293-2.09 8.743-2.463 13.227zm7.54-25.684-13.246-7.038c2.575-4.847 5.658-9.458 9.162-13.703l11.568 9.548c-2.863 3.469-5.381 7.235-7.484 11.193z" fill="#fff"/></g></g></g></g><g><path d="m512 45.724v-45.724h-45.75c-34.274 0-65.351 19.24-80.742 49.476-8.029-1.876-16.381-2.885-24.956-2.914-60.662-1.507-114.28 51.923-113.014 112.554 0 0-.012 52.991-.013 53.235-4.679-8.89-8.577-18.171-11.594-27.73l-15.385-48.751c-18.804-59.583-82.164-93.09-141.241-74.691-58.314 16.842-93.358 83.858-73.904 141.319l4.306 13.641 14.32-4.515-4.305-13.64c-16.863-49.802 13.513-107.882 64.051-122.476 51.196-15.947 106.13 13.158 122.453 64.877l15.385 48.751c9.062 28.712 25.323 55.16 47.025 76.485 15.622 15.351 27.388 34.579 34.023 55.606 22.123 70.101-16.684 145.862-86.508 168.883-68.171 24.195-150.905-18.05-171.199-87.451-6.629-20.91-8.083-43.29-4.203-64.723 5.518-30.482 3.71-61.562-5.227-89.883l-6.687-21.189-14.32 4.514 6.687 21.188c8.208 26.007 9.858 54.603 4.772 82.697-4.313 23.827-2.7 48.699 4.665 71.928 22.673 77.21 114.154 124.053 190.217 97.17 17.155-5.656 32.863-14.194 46.602-25.141 27.101 21.482 60.508 33.003 94.703 32.553 39.687-.52 76.915-16.36 104.826-44.603 27.937-28.268 43.323-65.72 43.323-105.456 0-24.494-6.04-48.804-17.467-70.301-13.131-24.703-20.072-52.38-20.072-80.039v-51.118c0-12.654-2.066-24.837-5.874-36.224 27.965-16.188 45.103-45.671 45.103-78.308zm-191.988 282.027c9.939-11.726 24.698-18.64 40.144-18.64 28.979 0 52.554 23.563 52.554 52.525 0 28.963-23.576 52.525-52.554 52.525-15.62 0-30.018-6.702-40.028-18.496 5.177-22.226 5.181-45.369-.116-67.914zm159.571-29.297c10.279 19.336 15.712 41.211 15.712 63.26 0 73.505-59.811 134.09-133.33 135.053-29.877.423-59.052-9.38-83.062-27.666 3.535-3.468 6.903-7.115 10.089-10.935 20.577 15.198 45.634 23.549 71.18 23.528 31.779 0 61.672-12.24 84.33-34.574 23.072-22.741 35.778-53.1 35.778-85.484 0-20.003-5.025-39.81-14.533-57.278-15.051-27.654-23.006-59.716-23.006-92.719v-15.083h-15.016v15.083c0 35.501 8.587 70.042 24.831 99.891 8.313 15.274 12.707 32.6 12.707 50.106 0 28.336-11.118 54.9-31.307 74.799-20.184 19.895-46.944 30.614-75.298 30.241-21.787-.302-43.059-7.549-60.644-20.501 3.422-5.057 6.559-10.351 9.387-15.867 3.046-5.939 5.667-12.022 7.879-18.208 12.266 10.852 28.269 17.067 44.873 17.067 37.258 0 67.57-30.295 67.57-67.533s-30.312-67.533-67.57-67.533c-16.675 0-32.731 6.261-45.014 17.19-6.415-17.905-16.209-34.493-28.719-48.688 4.073-16.764 6.163-34.158 6.163-51.785v-51.705c-.769-36.495 31.586-68.563 68.083-67.531 36.975.274 67.057 30.991 67.057 68.473v21.491h15.016v-21.491c0-45.696-36.768-83.145-81.961-83.48-44.608-1.261-84.149 37.935-83.21 82.538v51.705c0 13.103-1.229 26.064-3.646 38.69-4.567-4.9-8.839-10.052-12.791-15.428.943-7.471 1.422-15.013 1.422-22.466v-52.501c-1.096-52.563 45.366-98.826 97.947-97.547 53.627.185 97.255 44.456 97.255 98.687v51.118c.001 30.109 7.549 60.22 21.828 87.083zm-18.457-188.46c-5.182-10.554-11.939-20.189-19.961-28.587l23.036-23.023-10.617-10.612-23.487 23.473c-8.985-7.215-19.082-13.072-29.982-17.27 13.218-23.892 38.424-38.969 66.136-38.969h30.734v30.717c-.001 26.531-13.579 50.561-35.859 64.271z"/></g></g><g/><g/><g/><g/><g/><g/><g/><g/><g/><g/><g/><g/><g/><g/><g/></svg>