<svg id="Layer_1" enable-background="new 0 0 512 512" viewBox="0 0 512 512" xmlns="http://www.w3.org/2000/svg"><g><g><g><g><g><g><path d="m158.84 202.925c-18.016-.28-40.521-6.018-59.532-15.824l-44.993-45.125c-1.439-7.497.05-15.011 3.596-22.518 4.553-11.694 37.509-41.767 37.509-41.767 16.107-15.437 38.389-21.592 57.283-2.102 4.605 4.605 9.518 10.954 14.279 18.377l5.583 68.522z" fill="#f05475"/></g></g></g><g><g><path d="m143.305 178.688c-10.237-1.956-21.014-5.467-30.669-10.087-7.842-7.91-45.594-45.774-52.864-52.684-4.734 8.132-7.147 17.382-5.458 26.057l44.993 45.126c19.011 9.806 41.516 15.544 59.532 15.824l13.725-40.438-3.499-42.947-13.224 26.156c-2.712 5.364-5.042 10.912-6.974 16.603z" fill="#e21743"/></g></g><g><g><path d="m143.861 244.668c-9.75-.489-19.416-3.057-30.464-14.106-15.893-15.892-15.135-29.82-14.089-43.462l-45.104-45.104c-6.287 6.287-11.6 13.18-15.937 20.49-21.246 35.806-19.11 81.634 6.406 115.425h89.155l17.298-33.315z" fill="#54e072"/></g></g><g><g><g><path d="m143.861 244.668c-5.84-.293-11.652-1.349-17.746-4.509l-7.736 14.909h-86.748c3.305 8.016 7.644 15.696 13.042 22.843h89.155l17.298-33.315z" fill="#00ca0f"/></g></g></g><g><g><path d="m261.229 30.204c-80.129 1.979-131.645 92.782-84.964 163.445 25.495 35.196 54.661 45.4 87.496 46.577 140.168-3.861 137.619-209.66-2.532-210.022z" fill="#fcad42"/></g></g><g><g><path d="m283.351 220.636c-32.836-1.177-62.001-11.382-87.496-46.577-27.169-41.127-21.067-89.07 4.573-122.359-40.943 31.479-57.302 91.785-24.163 141.949 25.495 35.196 54.661 45.4 87.496 46.577 38.315-1.055 65.966-17.2 83.057-40.113-16.234 12.085-37.376 19.804-63.467 20.523z" fill="#f69500"/></g></g><g><g><path d="m261.759 60.226c-57.221 1.413-94.009 66.256-60.674 116.717 18.206 25.133 39.034 32.421 62.482 33.261 100.095-2.757 98.275-149.72-1.808-149.978z" fill="#fef2e2"/></g></g><g><g><path d="m375.973 70.204-107.848 207.708h215.697z" fill="#f05475"/></g></g><g><g><path d="m303.99 255.069 83.985-161.75-12.002-23.115-107.848 207.708h215.697l-11.861-22.843z" fill="#e21743"/></g></g><g><g><path d="m90.973 457.835h330v30.138h-330z" fill="#8ad8f6"/></g></g><g><g><path d="m422.027 457.835h-332.054c-45.534 0-82.447-36.913-82.447-82.447v-97.476h496.947v97.476c0 45.534-36.912 82.447-82.446 82.447z" fill="#8ad8f6"/></g></g><g><g><path d="m466.893 435.47h-377.056c-33.107 0-59.945-26.838-59.945-59.945v-97.613h-22.365v97.476c0 45.534 36.913 82.447 82.447 82.447h332.053c22.593 0 43.056-9.095 57.948-23.813-4.213.937-8.587 1.448-13.082 1.448z" fill="#54c9f3"/></g></g><g><g><path d="m279.525 194.246c-8.192-.294-13.583-.658-21.135-3.011.067-.911-1.649-11.57-1.561-12.731l-52.124-52.124c-1.711-18.707 3.935-37.071 14.774-51.674-13.081 9.667-22.792 23.404-27.624 38.824l-.005-.005c-14.939 45.494 19.929 94.904 67.699 96.464 28.274 1.38 51.974-12 64.183-29.613-11.441 8.171-26.158 13.373-44.207 13.87z" fill="#ffe1ba"/></g></g><g><g><path d="m278.159 244.668c-9.75-.489-19.416-3.057-30.464-14.106-15.892-15.892-15.134-29.821-14.089-43.462l-45.104-45.104c-6.287 6.287-11.6 13.18-15.937 20.49-21.246 35.806-19.11 81.634 6.406 115.425h89.155l17.298-33.315z" fill="#54e072"/></g></g><g><g><g><path d="m278.159 244.668c-5.84-.293-11.652-1.349-17.746-4.509l-7.736 14.909h-86.748c3.305 8.016 7.644 15.696 13.042 22.843h89.155l17.298-33.315z" fill="#00ca0f"/></g></g></g><g><g><path d="m212.616 164.908c-27.57 27.57-27.57 72.269 0 99.838 5.477 5.477 11.63 9.866 18.19 13.167h37.319l17.298-33.315c-2.421.133-25.919 1.02-41.481-18.116-13.678-16.82-10.833-36.33-10.336-39.381-6.997-7.398-13.994-14.796-20.99-22.193z" fill="#c3f839"/></g></g><g><g><path d="m212.616 164.908c-34.057 32.83-24.165 92.514 18.19 113.005h37.319l11.683-22.5h-43.109c-25.348-15.271-29.84-53.492-8.606-74.141-5.159-5.455-10.318-10.91-15.477-16.364z" fill="#abe700"/></g></g><g><g><path d="m78.317 164.908c-27.57 27.57-27.57 72.269 0 99.838 5.477 5.477 11.63 9.866 18.19 13.167h82.463l-16.707-33.261-11.139-.054c-2.421.133-25.919 1.02-41.481-18.116-13.678-16.82-10.833-36.33-10.336-39.381-6.996-7.398-13.993-14.796-20.99-22.193z" fill="#c3f839"/></g></g><g><g><path d="m78.317 164.908c-34.057 32.83-24.165 92.514 18.19 113.005h82.463l-11.989-22.5h-64.581c-25.348-15.271-29.84-53.492-8.606-74.141-5.159-5.455-10.318-10.91-15.477-16.364z" fill="#abe700"/></g></g><g><g><path d="m46.026 300.327h14.83v15h-14.83z" fill="#fff"/></g></g><g><g><path d="m76.026 300.327h44.947v15h-44.947z" fill="#fff"/></g></g><g><g><path d="m81.496 27.404-10.221 10.22c-11.929 11.929-11.929 31.269 0 43.198l10.221 10.221 10.221-10.221c11.929-11.929 11.929-31.269 0-43.198z" fill="#54e072"/></g></g><g><g><path d="m86.287 65.811c-10.281-10.281-11.693-26.065-4.251-37.867l-.54-.54-10.22 10.221c-11.929 11.929-11.929 31.27 0 43.198l10.22 10.22 10.221-10.22c1.647-1.647 3.059-3.44 4.251-5.331z" fill="#00ca0f"/></g></g><g><g><path d="m17.856 91.043 10.221-10.221c11.929-11.929 31.269-11.929 43.198 0l10.221 10.221-10.221 10.221c-11.929 11.929-31.269 11.929-43.198 0z" fill="#54e072"/></g></g><g><g><path d="m43.657 85.684-9.549-9.55c-2.151 1.276-4.181 2.838-6.031 4.688l-10.221 10.22 10.221 10.221c11.929 11.929 31.27 11.929 43.198 0l10.22-10.221-.671-.671c-11.719 6.953-27.088 5.391-37.167-4.687z" fill="#00ca0f"/></g></g></g></g><g><path d="m488.402 270.279-105.759-203.686h-13.314l-7.279 14.019c-8.25-14.931-19.793-27.81-33.974-37.749-18.964-13.292-41.271-20.318-64.508-20.318-41.743 0-78.248 22.851-97.666 56.7-2.668-3.456-5.317-6.52-7.867-9.074-14.246-14.665-32.507-18.058-49.924-10.342.198-9.996-3.498-20.055-11.109-27.665l-15.524-15.527-15.526 15.526c-8.832 8.832-12.404 20.962-10.72 32.463-11.854-1.769-24.041 2.213-32.483 10.74l-15.526 15.525 15.526 15.525c7.364 7.366 17.29 11.379 27.709 11.125-3.26 7.4-4.625 14.636-4.078 21.584-33.095 34.24-39.653 90.135-15.608 131.153h-30.772v104.986c0 47.416 36.877 86.377 83.456 89.719v30.378h345.036v-30.375c46.603-3.315 83.508-42.287 83.508-89.721v-104.986zm-112.416-183.952 95.513 183.952h-191.026zm-152.103 80.303 32.185-18.582v54.095c-5.278-.58-10.432-1.782-15.417-3.585-.166-4.728.351-9.698.696-14.466zm24.684-31.574-35.666 20.592-16.728-16.728c-.642-10.693 1.421-21.563 5.56-30.904zm-39.319-40.023c10.902-14.758 27.663-24.928 46.82-27.056v54.088zm16.624 94.801c-4.705 25.484 18.063 58.983 47.37 61.816l-9.673 18.629h-30.909c-5.402-2.906-10.359-6.584-14.745-10.971-22.218-21.367-24.617-58.921-5.509-82.939zm19.555 25.711c5.911 1.328 11.971 2.019 18.141 2.019 10.498 0 20.796-2.016 30.393-5.818l-13.115 25.258c-12.917 1.269-27.79-8.365-35.419-21.459zm25.642-93.48v-54.088c19.157 2.128 35.917 12.299 46.82 27.056zm54.336-14.049c4.378 9.865 6.442 21.524 5.411 32.751l-9.769 18.813-42.477-24.524zm-11.278 64.891-7.203 13.872c-10.21 8.566-22.687 13.879-35.855 15.35v-54.081zm-50.558-135.361c39.059 0 74.755 23.834 89.876 59.639l-9.662 18.608c-8.702-36.23-41.353-63.244-80.214-63.244-46.744-.122-84.595 39.413-82.422 86.105-4.852 5.112-9.205 10.655-12.988 16.545-1.381-6.578-2.101-13.306-2.101-20.142.001-53.768 43.743-97.511 97.511-97.511zm-84.563 128.623c2.823-4.758 6.069-9.28 9.692-13.508l13.024 13.023c-24.846 30.759-22.837 76.241 5.963 104.594h-24.9c-21.598-30.953-23.177-71.416-3.779-104.109zm-70.928 69.559c18.423 18.064 33.009 16.413 48.707 16.289 2.202 6.317 4.977 12.424 8.299 18.262h-66.736c-33.64-16.973-43.895-64.674-20.254-93.91l13.465 13.465c-.875 13.056-.568 28.808 16.519 45.894zm42.653-14.515c.284 5.367.956 10.665 1.987 15.868-12.612.232-21.835.237-34.032-11.96-9.604-9.604-12.06-18.154-12.349-26.618 14.418 6.062 30.06 10.073 44.378 11.348-.181 3.768-.186 7.558.016 11.362zm-50.272-138.137c7.725-7.405 27.475-22.337 46.847-2.422 3.577 3.572 7.39 8.337 11.249 14.027-4.837 12.539-7.497 26.152-7.497 40.376 0 5.374.388 10.692 1.132 15.939l-14.951-14.951-10.608 10.608 15.151 15.152 10.462-10.462c1.154 7.964 3.142 15.762 5.987 23.319-2.574 6.566-4.51 13.352-5.789 20.282-15.621-1.351-33.626-6.546-48.711-14.153l-42.357-42.356c-.431-17.001 8.044-23.823 23.216-40.047 0-.001 12.438-12.18 15.869-15.312zm-23.899-40.305 4.918-4.918 4.918 4.918c8.986 8.986 8.986 23.608 0 32.595l-4.918 4.918-4.918-4.918c-8.987-8.987-8.987-23.609 0-32.595zm-43.203 53.038-4.917-4.917 4.917-4.918c8.579-8.942 24.016-8.941 32.595 0l4.918 4.918-4.918 4.917c-8.579 8.941-24.016 8.941-32.595 0zm21.029 56.852 13.023 13.023c-24.846 30.759-22.837 76.241 5.964 104.595h-24.9c-25.073-35.296-22.599-84.767 5.913-117.618zm359.104 327.7h-315.033v-15.14h315.033zm83.508-105.096c0 41.33-33.625 74.954-74.955 74.954h-332.086c-41.33 0-74.955-33.625-74.955-74.954v-89.985h481.997v89.985z"/><path d="m368.485 150.057h15.002v21.215h-15.002z"/><path d="m391.466 189.456h15.002v21.216h-15.002z"/><path d="m413.49 233.854h15.002v21.215h-15.002z"/><path d="m368.485 233.854h15.002v21.215h-15.002z"/><path d="m323.481 233.854h15.002v21.215h-15.002z"/><path d="m346.27 189.456h15.002v21.216h-15.002z"/><path d="m84.83 126.907h15.001v21.427h-15.001z" transform="matrix(.707 -.707 .707 .707 -70.27 105.596)"/><path d="m123.048 88.69h15.001v21.427h-15.001z" transform="matrix(.707 -.707 .707 .707 -32.052 121.426)"/></g></g><g/><g/><g/><g/><g/><g/><g/><g/><g/><g/><g/><g/><g/><g/><g/></svg>