<svg id="Layer_1" enable-background="new 0 0 512 512" viewBox="0 0 512 512" xmlns="http://www.w3.org/2000/svg"><g><g><g><g><g><path d="m354.884 7.862-202.642 16-10.987 28.723h229.49z" fill="#aa4b30"/></g></g><g><g><path d="m355.489 9.568-.605-1.706-202.642 16-10.987 28.723h22.213l10.987-28.723z" fill="#8d3d27"/></g></g><g><g><path d="m121 135.5 4.209 67.468h261.765l4.026-67.468z" fill="#fef2e2"/></g></g><g><g><path d="m121 135.5 4.209 67.468h21.83l-4.209-67.468z" fill="#ffe1ba"/></g></g><g><g><path d="m141.141 458.319 2.859 45.819h225l2.734-45.819-47.576-16.555z" fill="#8ad8f6"/></g></g><g><g><path d="m163.779 482.359-1.5-24.04h-21.138l2.859 45.819h225l1.3-21.779z" fill="#54c9f3"/></g></g><g><g><path d="m138.282 412.5 2.859 45.819h230.593l2.735-45.819z" fill="#fef2e2"/></g></g><g><g><path d="m138.282 412.5 2.859 45.819h21.218l-2.859-45.819z" fill="#ffe1ba"/></g></g><g><g><path d="m116.672 202.968 14.494 209.532h250.394l13.951-209.532z" fill="#c3f839"/></g></g><g><g><path d="m151.599 390.067-12.942-187.099h-21.985l14.494 209.532h250.394l1.493-22.433z" fill="#abe700"/></g></g><g><g><path d="m106 105.5h300v30h-300z" fill="#4b6276"/></g></g><g><g><path d="m391 52.862h-270l-15 22.638v30h300v-30z" fill="#57758d"/></g></g><g><g><path d="m406 83h-277.5v-.722l19.492-29.416h-26.992l-15 22.638v30h300z" fill="#4b6276"/></g></g><g><g><path d="m258.492 282.391-13.588-13.588c-14.788-14.788-38.763-14.788-53.551 0-14.788 14.788-14.788 38.763 0 53.551l20.319 20.319c13.82 13.82 35.666 14.724 50.536 2.712z" fill="#aa4b30"/></g></g><g><g><path d="m228.317 326.029-20.319-20.319c-11.881-11.881-14.208-29.69-6.997-43.903-3.477 1.764-6.741 4.09-9.648 6.997-14.788 14.788-14.788 38.763 0 53.551l20.319 20.319c13.82 13.82 35.666 14.724 50.536 2.712l-.521-8.842c-11.752 2.067-24.292-1.437-33.37-10.515z" fill="#8d3d27"/></g></g><g><g><path d="m293.871 359.968c-20.913 0-37.866-16.953-37.866-37.866v-28.736c0-20.913 16.953-37.866 37.866-37.866 20.913 0 37.866 16.953 37.866 37.866v28.736c0 20.913-16.953 37.866-37.866 37.866z" fill="#aa4b30"/></g></g><g><g><path d="m316 351.542c-20.913 0-37.866-16.953-37.866-37.866v-28.736c0-11.867 5.462-22.454 14.006-29.397-20.108.906-36.134 17.49-36.134 37.822v28.736c0 20.913 16.953 37.866 37.866 37.866 9.046 0 17.348-3.177 23.861-8.469-.576.027-1.152.044-1.733.044z" fill="#8d3d27"/></g></g></g></g><g><path d="m395.027 45.456h-18.886l-16.112-45.456-213.1 16.835-10.942 28.62h-19.015l-18.472 27.896v69.799h15.453l3.273 52.498-8.036 8.022 2.596 37.553 14.965-1.036-2.042-29.531h262.786l-12.953 194.643h-236.377l-10.389-150.283-14.965 1.036 10.872 157.269 7.482 6.986h.07l5.718 91.693h239.112l5.469-91.691h.025l7.483-7.006 13.951-209.652-8.06-8.003 3.132-52.498h15.435v-69.799zm-30.358 405.69h-33.669v15.009h32.774l-1.839 30.837h-210.888l-1.923-30.837h166.876v-15.009h-167.812l-1.923-30.837h220.244zm-207.114-420.094 192.184-15.183 10.488 29.587h-208.179zm240.945 97.089h-285v-15.009h285zm-18.592 67.507h-247.652l-3.273-52.498h254.057zm-266.408-97.524v-20.252l11.527-17.407h261.945l11.528 17.407v20.252z"/><path d="m151 158.159h15v15.009h-15z"/><path d="m181 158.159h15v15.009h-15z"/><path d="m238.461 361.581c8.206 0 16.434-2.234 23.734-6.745 8.523 8.325 19.745 12.911 31.676 12.911 25.013-.002 45.366-20.364 45.366-45.392v-28.752c0-25.029-20.352-45.392-45.366-45.392-16.032 0-30.137 8.371-38.208 20.967l-5.456-5.458c-16.886-17.61-47.272-17.609-64.156 0-17.601 16.896-17.599 47.298-.001 64.194l20.32 20.331c8.838 8.843 20.44 13.336 32.091 13.336zm47.91-97.422v58.297h15v-58.297c13.128 3.35 22.866 15.279 22.866 29.444v28.752c0 16.753-13.622 30.383-30.366 30.383-16.744 0-30.366-13.63-30.366-30.384v-28.752c0-14.164 9.738-26.094 22.866-29.443zm-46.77 10.173 9.884 9.89c-.639 3.028-.98 6.165-.98 9.381v21.994l-24.654-24.669-10.607 10.613 40.81 40.789c-11.671 6.581-27.288 5.096-37.077-4.698l-20.32-20.331c-11.781-11.271-11.761-31.725.001-42.969 11.301-11.787 31.64-11.787 42.943 0z"/></g></g><g/><g/><g/><g/><g/><g/><g/><g/><g/><g/><g/><g/><g/><g/><g/></svg>