<svg id="Layer_1" enable-background="new 0 0 512 512" viewBox="0 0 512 512" xmlns="http://www.w3.org/2000/svg"><g><g><g><g><g><path d="m166.064 473.884h179.936v30.617h-179.936z" fill="#8ad8f6"/></g></g><g><g><path d="m120.872 173.629 30.128 299.872h210l30-299.872z" fill="#fff"/></g></g><g><g><path d="m170.65 450.851-27.852-277.222h-21.926l30.128 299.872h210l2.266-22.65z" fill="#e3edf6"/></g></g><g><g><path d="m308.008 271.065c-10.362-17.981-29.764-30.095-52.008-30.095s-41.646 12.114-52.008 30.095h-73.928l10.723 104.905h63.26c10.376 17.929 29.749 30 51.953 30s41.578-12.071 51.953-30h62.795l10.504-104.905z" fill="#8ad8f6"/></g></g><g><g><g><path d="m130.064 271.065 10.723 104.905h22.517l-10.723-104.905z" fill="#54c9f3"/></g></g></g><g><g><path d="m124.327 11.892c-5.858-5.858-15.355-5.858-21.213 0s-5.858 15.355 0 21.213l72.865 72.865 42.181-.245z" fill="#c3f839"/></g></g><g><g><path d="m343.346 55.799c-.164.041-.327.082-.49.123-16.214 4.105-23.479 21.707-17.205 35.658l39.916 26.66c9.443-1.677 17.906-8.481 20.589-19.111.083-.33.166-.662.249-.994 4.664-18.836 6.259-35.632 6.589-49.016-13.501.298-30.533 1.887-49.648 6.68z" fill="#f05475"/></g></g><g><g><path d="m365.566 118.24c7.612-1.352 14.583-6.04 18.406-13.373-15.62-16.959-35.266-29.623-57.13-36.787-3.989 7.033-4.647 15.818-1.192 23.5z" fill="#e21743"/></g></g><g><g><path d="m295.309 84.366-36.062 2.447c-15.18 3.535-29.18 10.145-41.309 19.135h-52.447c-20.74 0-37.553 16.813-37.553 37.553l256.123-.003c-17.437-32.476-50.366-55.562-88.752-59.132z" fill="#fef2e2"/></g></g><g><g><g><path d="m187.665 105.947h-22.173c-20.74 0-37.553 16.813-37.553 37.553h22.173c0-20.74 16.813-37.553 37.553-37.553z" fill="#ffe1ba"/></g></g></g><g><g><path d="m91 143.501h330v30h-330z" fill="#8ad8f6"/></g></g><g><g><path d="m256 376.065c-16.569 0-30-13.431-30-30v-45c0-16.569 13.431-30 30-30 16.569 0 30 13.431 30 30v45c0 16.569-13.431 30-30 30z" fill="#fef2e2"/></g></g><g><g><path d="m248.175 340.321v-45c0-9.794 4.695-18.49 11.955-23.965-1.351-.186-2.728-.29-4.131-.29-16.569 0-30 13.431-30 30v45c0 16.569 13.431 30 30 30 6.774 0 13.023-2.247 18.045-6.035-14.612-2.014-25.869-14.544-25.869-29.71z" fill="#ffe1ba"/></g></g><g><g><path d="m278.221 64.182c-9.337 9.756-20.256 22.923-30.383 39.829-.087.145-.173.289-.259.434-10.262 17.219 2.273 39.056 22.317 39.056h16.571c20.079 0 32.573-21.88 22.281-39.121-.175-.293-.351-.586-.527-.879-10.021-16.618-20.77-29.622-30-39.319z" fill="#f05475"/></g></g><g><g><path d="m297.444 122.339h-16.571c-16.567 0-27.989-14.917-25.665-29.814-2.48 3.62-4.948 7.443-7.369 11.486-.087.145-.173.289-.259.434-10.262 17.219 2.273 39.056 22.318 39.056h16.571c15.12 0 25.934-12.408 25.961-25.898-4.144 2.948-9.254 4.736-14.986 4.736z" fill="#e21743"/></g></g></g></g><g><path d="m421 136.001h-32.556c-3.023-5.165-6.388-10.058-10.067-14.65 7.696-4.567 13.274-12.277 15.307-21.414 4.096-16.543 6.386-33.578 6.806-50.633l-7.662-7.683c-17.294.379-34.556 2.702-51.307 6.902-14.643 3.227-25.565 17.1-25.622 31.95-5.412-1.451-10.955-2.535-16.602-3.218-4.904-6.341-10.121-12.442-15.645-18.246l-10.851-.015c-6.398 6.686-12.382 13.769-17.937 21.17-12.808 3.292-24.837 8.632-35.877 15.908l-89.356-89.356c-21.635-20.378-52.193 10.101-31.82 31.819l60.492 60.492c-18.99 3.059-34.039 18.027-37.228 36.974h-30.075l-7.5 7.5v30l7.5 7.5h23.076l13.635 135.718 14.925-1.499-3.683-36.655h69.373c9.004-18.074 27.363-30.219 47.674-30.095 20.312-.123 38.671 12.021 47.673 30.095h69.291l-8.994 89.905h-60.342c-9.019 18.019-27.36 30.122-47.628 30-20.268.122-38.608-11.981-47.628-30h-60.387l-3.843-38.249-14.925 1.499 14.999 149.28h14.348v31h142.436v-15h-127.436v-16h164.936v16h-22.5v15h37.5v-31h14.287l30.013-299.999h23.2l7.5-7.5v-30zm-88.209-63.14c2.419-5.036 6.881-8.529 12.379-9.787 13.08-3.28 26.494-5.336 39.981-6.132-.814 13.28-2.834 26.494-6.026 39.386-1.35 6.913-6.354 11.671-11.28 13.497-10.552-10.15-22.84-18.273-36.278-23.97-1.166-4.265-.77-8.867 1.224-12.994zm37.84 63.14h-56.271c8.82-12.856 6.448-29.137-2.672-41.127 23.767 6.291 44.622 20.798 58.943 41.127zm-92.423-60.743c8.815 9.966 16.73 20.739 23.589 32.111 8.277 11.762-.948 29.008-15.329 28.63h-16.571c-13.995.495-23.513-16.522-15.625-28.135 6.93-11.568 14.962-22.507 23.936-32.606zm-159.184-57.936 81.125 81.124h-21.214l-70.518-70.518c-6.857-7.077 3.522-17.466 10.607-10.606zm46.468 96.124h54.924c6.402-4.889 13.285-9.162 20.515-12.47-6.4 10.944-5.956 24.423 1.067 35.025h-105.612c3.339-12.955 15.123-22.555 29.106-22.555zm-7.708 352.554-8.292-82.531h50.397c12.468 18.609 33.581 30 56.111 30 22.531 0 43.644-11.391 56.111-30h50.359l-8.257 82.531zm216.681-202.435h-62.291c-12.459-18.669-33.595-30.095-56.174-30.095-22.578 0-43.714 11.427-56.174 30.095h-62.38l-8.295-82.564h253.574zm39.035-97.564h-315v-15h315z"/><path d="m256 383.564c20.678 0 37.5-16.822 37.5-37.5v-45c0-20.678-16.822-37.5-37.5-37.5s-37.5 16.822-37.5 37.5v45c0 20.678 16.822 37.5 37.5 37.5zm-22.5-82.499c0-12.407 10.093-22.5 22.5-22.5s22.5 10.093 22.5 22.5v45c0 12.407-10.093 22.5-22.5 22.5s-22.5-10.093-22.5-22.5z"/><path d="m248.436 300.969h15v45h-15z"/><path d="m158.564 195.97h15v15h-15z"/><path d="m188.564 195.97h15v15h-15z"/></g></g><g/><g/><g/><g/><g/><g/><g/><g/><g/><g/><g/><g/><g/><g/><g/></svg>