<svg id="Layer_1" enable-background="new 0 0 512 512" viewBox="0 0 512 512" xmlns="http://www.w3.org/2000/svg"><g><g><g><g><g><path d="m60.001 430.529c-2.055 4.109-3.636 8.421-4.724 12.853l337.808 11.354 63.767-10.815c-1.091-4.621-2.716-9.116-4.854-13.392l-8.499-16.997v-315.064l8.499-16.997c2.083-4.165 3.679-8.539 4.768-13.034l-401.619-.358c1.091 4.621 2.716 9.116 4.854 13.392l8.499 16.997v315.064z" fill="#fef2e2"/></g></g><g><g><path d="m456.853 443.921-401.575-.539c-1.177 4.791-1.777 9.721-1.777 14.688v46.462h405v-46.462c-.001-4.78-.558-9.528-1.648-14.149z" fill="#c3f839"/></g></g><g><g><path d="m75.074 482.33v-24.26c0-4.956.599-9.877 1.771-14.659l-21.568-.029c-1.177 4.791-1.777 9.721-1.777 14.688v46.462h405v-22.202z" fill="#abe700"/></g></g><g><g><path d="m77.777 443.382c1.089-4.432 2.67-8.744 4.724-12.853l8.499-16.997v-315.064l-8.499-16.997c-2.135-4.27-3.758-8.758-4.849-13.372l-22.505-.02c1.091 4.621 2.716 9.116 4.854 13.392l8.499 16.997v315.064l-8.499 16.997c-2.055 4.109-3.636 8.421-4.724 12.853z" fill="#ffe1ba"/></g></g><g><g><path d="m53.5 7.468v46.462c0 4.78.557 9.528 1.647 14.149l401.619.358c1.147-4.734 1.733-9.603 1.733-14.507v-46.462z" fill="#c3f839"/></g></g><g><g><path d="m76.647 68.079c-1.09-4.621-1.647-9.369-1.647-14.149v-46.462h-21.5v46.462c0 4.78.557 9.528 1.647 14.149z" fill="#abe700"/></g></g><g><g><path d="m389.121 259.601c7.827-16.678 4.856-37.166-8.923-50.945-13.778-13.778-34.267-16.75-50.944-8.923-3.341-2.579-7.017-4.517-10.862-5.815l-56.895 133.439c1.315 4.927 3.896 9.586 7.761 13.452 11.716 11.716 30.711 11.716 42.427 0 .929-.929 1.776-1.908 2.557-2.921 10.081 2.798 21.336.241 29.261-7.684 3.292-3.292 5.658-7.158 7.1-11.277 12.273 2.954 25.746-.357 35.326-9.937 13.488-13.486 14.544-34.682 3.192-49.389z" fill="#54e072"/></g></g><g><g><path d="m193.608 193.918c-3.844 1.298-7.52 3.236-10.862 5.815-16.677-7.827-37.166-4.856-50.944 8.923-13.779 13.779-16.75 34.267-8.923 50.945-11.352 14.707-10.295 35.903 3.191 49.389 9.58 9.58 23.053 12.89 35.326 9.937 1.442 4.118 3.809 7.985 7.1 11.277 7.926 7.925 19.18 10.482 29.261 7.684.782 1.013 1.628 1.992 2.557 2.921 11.716 11.716 30.711 11.716 42.427 0 3.865-3.865 6.447-8.525 7.761-13.452z" fill="#54e072"/></g></g><g><g><path d="m227.112 324.604c-3.626 3.557-8.205 3.399-11.536-.455l-6.62-12.719-17.215 4.778c-3.731 1.121-7.871-1.067-9.11-4.718 0 0-6.725-19.198-6.725-19.198l-19.776 4.761c-5.138 1.234-10.427-.247-14.15-3.971-10.571-12.071-.128-20.949 7.104-30.604l-5.836-12.434c-6.277-17.461 1.545-44.945 19.474-54.551-31.832-.211-53.994 35.961-39.843 64.11-21.621 27.622 4.734 67.831 38.517 59.326 4.681 14.631 22.134 23.418 36.362 18.961 14.484 19.671 46.981 13.026 52.745-10.53l-40.41-94.776z" fill="#00ca0f"/></g></g><g><g><path d="m347.319 195.493c-6.187.146-12.35 1.559-18.065 4.241-3.341-2.579-7.017-4.517-10.862-5.815l-56.895 133.439c2.323 9.575 10.775 18.318 20.296 20.958 21.478-4.508 38.174-22.17 41.212-44.145 10.953-10.819 16.805-26.592 15.263-42.219 16.033-17.151 19.891-45.5 9.051-66.459z" fill="#00ca0f"/></g></g><g><g><path d="m331 221.947c0-19.072-14.241-34.807-32.667-37.18-6.258-17.328-22.847-29.714-42.333-29.714s-36.074 12.386-42.333 29.714c-18.426 2.373-32.667 18.108-32.667 37.18 0 13.548 7.186 25.416 17.953 32.006-1.892 3.932-2.953 8.339-2.953 12.994 0 11.208 6.151 20.974 15.257 26.125-.164 1.269-.257 2.56-.257 3.874 0 16.568 13.431 30 30 30 5.466 0 10.586-1.469 15-4.023 4.414 2.554 9.534 4.023 15 4.023 16.569 0 30-13.432 30-30 0-1.314-.094-2.605-.257-3.874 9.106-5.15 15.257-14.916 15.257-26.125 0-4.655-1.061-9.063-2.953-12.994 10.767-6.59 17.953-18.458 17.953-32.006z" fill="#54e072"/></g></g><g><g><g><path d="m301 296.945c0-1.01-.07-2.003-.17-2.987-2.409 10.866-25.476 12.427-33.562 9.489 0 .001-11.269-6.521-11.269-6.521-2.671 1.208-11.987 7.913-14.999 7.52-4.485.028-8.065-4.037-7.428-8.49 0 0 1.94-15.016 1.94-15.016l-13.179-7.453c-3.43-1.845-4.811-6.318-3.107-9.774 0 0 8.823-18.33 8.823-18.33l-17.351-10.62c-4.12-2.521-7.199-8.846-7.199-12.815 0-13.353 4.985-19.573 23.194-28.938l7.867-4.046 3.005-8.32c3.117-8.631 12.409-17.946 21.986-17.946 9.614 0 17.815.823 24.265 1.993-22.837-19.183-61.093-7.878-70.15 20.078-34.82 4.244-44.617 51.311-14.715 69.185-7.036 13.656-.908 32.21 12.304 39.119-3.867 23.981 24.265 42.488 44.743 29.851 19.062 11.69 45.635-3.392 45.002-25.979z" fill="#00ca0f"/></g></g></g></g></g><g><path d="m458.706 84.847c4.772-9.541 7.294-20.223 7.294-30.892v-53.955h-420v53.955c0 10.669 2.522 21.351 7.294 30.891l7.706 15.412v50.628h15v-54.169s-9.976-20.027-10.302-20.759h380.603c-.325.733-10.301 20.759-10.301 20.759v318.565s9.913 19.901 10.213 20.568h-47.713v14.998h51.995c.323 2.386.505 4.79.505 7.196v38.957h-30v-30.9h-15v30.9h-30v-30.9h-15v30.9h-30v-30.9h-15v30.9h-30v-30.9h-15v30.9h-30v-30.9h-15v30.9h-30v-30.9h-15v30.9h-30v-30.9h-15v30.9h-30v-30.9h-15v30.9h-30v-38.957c0-2.406.183-4.81.505-7.196h321.995v-14.998h-317.713c.3-.667 10.213-20.567 10.213-20.567v-249.399h-15v245.858l-7.706 15.411c-4.772 9.541-7.294 20.223-7.294 30.892v53.955h420v-53.955c0-10.669-2.522-21.351-7.294-30.891l-7.706-15.412v-311.484zm-397.229-23.887c-.305-2.323-.477-4.663-.477-7.005v-38.957h30v30.9h15v-30.9h30v30.9h15v-30.9h30v30.9h15v-30.9h30v30.9h15v-30.9h30v30.9h15v-30.9h30v30.9h15v-30.9h30v30.9h15v-30.9h30v30.9h15v-30.9h30v38.957c0 2.342-.172 4.682-.477 7.005z"/><path d="m114.38 258.704c-19.825 30.616 6.176 72.849 42.572 68.558 7.306 13.384 23.087 21.125 38.055 18.834.001.002.003.003.004.005 14.755 14.785 39.022 14.604 53.489-.486v11.319h15v-11.319c14.468 15.091 38.739 15.271 53.493.482 14.967 2.286 30.75-5.449 38.055-18.835 36.404 4.295 62.393-37.956 42.572-68.558 15.931-41.094-26.396-83.387-67.468-67.461-2.501-1.559-5.155-2.849-7.921-3.889-5.271-4.389-11.571-7.608-18.523-9.221-17.796-40.318-77.63-40.305-95.415 0-6.952 1.613-13.253 4.832-18.524 9.221-2.767 1.04-5.42 2.33-7.921 3.889-41.091-15.929-83.394 26.382-67.468 67.461zm260.515-44.739c12.527 12.318 14.101 31.607 5.492 46.594 23.102 26.324-1.659 61.333-34.619 49.484-1.734 5.019-3.494 11.172-7.567 14.85-7.257 7.413-17.501 7.845-26.812 4.411-8.431 14.037-26.474 17.701-37.896 5.041 19.521-1.288 35.011-17.57 35.008-37.41 12.199-8.96 17.891-25.597 13.589-40.224 14.904-11.759 20.539-33.774 13.214-51.374 13.625-5.061 29.19-1.772 39.591 8.628zm-82.061-22.336c34.96 2.276 42.192 44.558 10.514 59.466 2.324 4.775 5.431 10.368 5.152 15.85.113 10.37-6.825 17.92-15.838 22.076 4.75 18.524-10.36 35.204-29.162 29.12v-45.521l25.442-25.439-10.607-10.605-14.835 14.834v-29.459h-15v29.458l-15.082-15.08-10.607 10.605 25.689 25.687v45.521c-18.81 6.082-33.916-10.604-29.157-29.118-9.018-4.16-15.954-11.704-15.842-22.078-.283-5.467 2.83-11.097 5.152-15.849-31.306-13.225-23.887-58.483 10.515-59.467 10.537-38.541 63.138-38.521 73.666-.001zm-116.137 13.706c-7.324 17.604-1.691 39.612 13.214 51.375-4.301 14.629 1.389 31.262 13.589 40.224-.004 19.839 15.486 36.122 35.008 37.41-11.434 12.665-29.465 8.992-37.896-5.041-9.318 3.434-19.556 3.001-26.812-4.411-4.066-3.665-5.847-9.847-7.567-14.849-32.914 11.865-57.74-23.166-34.619-49.484-18.179-30.56 11.551-67.54 45.083-55.224z"/><path d="m106 105.891h15v14.998h-15z"/><path d="m136 105.891h15v14.998h-15z"/></g></g><g/><g/><g/><g/><g/><g/><g/><g/><g/><g/><g/><g/><g/><g/><g/></svg>