<svg id="Layer_1" enable-background="new 0 0 512 512" viewBox="0 0 512 512" xmlns="http://www.w3.org/2000/svg"><g><g><g><g><g><path d="m369.421 120.765-52.389-90.74c-7.906-13.694-22.518-22.13-38.33-22.13h-104.778c-15.813 0-30.424 8.436-38.33 22.13l-52.389 90.74c-7.906 13.694-7.906 30.566 0 44.26l52.389 90.74c7.906 13.694 22.518 22.13 38.33 22.13h104.778c15.813 0 30.424-8.436 38.33-22.13l52.389-90.74c7.906-13.694 7.906-30.566 0-44.26zm-110.513 40.949c-4.771 8.263-6.875 17.331-6.595 26.215-7.553-4.684-16.458-7.396-26-7.396s-18.446 2.712-26 7.396c.28-8.884-1.824-17.951-6.595-26.215-4.771-8.263-11.572-14.619-19.405-18.819 7.833-4.2 14.634-10.556 19.405-18.819s6.875-17.331 6.595-26.214c7.553 4.684 16.458 7.396 26 7.396s18.446-2.712 26-7.396c-.28 8.884 1.824 17.951 6.595 26.214s11.572 14.619 19.405 18.819c-7.833 4.199-14.634 10.555-19.405 18.819z" fill="#fee95d"/></g></g><g><g><path d="m317.713 254.585h-45.129l-5.48-9.492c-11.887-20.589-34.041-33.38-57.816-33.38h-73.638c-14.343-24.842-30.794-53.337-30.794-53.337-5.531-9.579-5.531-21.382 0-30.961l60.067-104.039c5.531-9.579 15.752-15.48 26.813-15.48-23.106-.91-43.063.089-56.142 22.131 0-.001-52.389 90.739-52.389 90.739-5.878 10.178-7.455 22.485-4.36 33.781-.491 3.209 56.744 101.209 56.744 101.209.001.003.004.007.005.01 7.907 13.694 22.519 22.13 38.331 22.13 6.22-.005 106.376-.032 107.171-.079 15.346-.815 29.263-9.629 36.617-23.232z" fill="#f7d700"/></g></g><g><g><path d="m498.098 233.978-52.389-90.74c-7.906-13.694-22.518-22.13-38.33-22.13h-104.778c-15.813 0-30.424 8.436-38.33 22.13l-52.389 90.74c-7.906 13.694-7.906 30.566 0 44.26l52.389 90.74c7.906 13.694 22.518 22.13 38.33 22.13h104.778c15.813 0 30.424-8.436 38.33-22.13l52.389-90.74c7.906-13.694 7.906-30.566 0-44.26zm-110.513 40.948c-4.771 8.263-6.875 17.331-6.595 26.215-7.553-4.684-16.458-7.396-26-7.396s-18.446 2.712-26 7.396c.28-8.884-1.824-17.951-6.595-26.215-4.771-8.263-11.572-14.619-19.405-18.819 7.833-4.2 14.634-10.556 19.405-18.819s6.875-17.331 6.595-26.214c7.553 4.684 16.458 7.396 26 7.396s18.446-2.712 26-7.396c-.28 8.884 1.824 17.951 6.595 26.214s11.572 14.619 19.405 18.819c-7.834 4.2-14.634 10.556-19.405 18.819z" fill="#fee95d"/></g></g><g><g><path d="m328.368 367.798c-.231-11.069-3.174-22.091-8.875-31.965l-52.388-90.74c-5.588-9.679-13.457-17.613-22.684-23.324 14.597-25.282 49.179-85.181 49.179-85.181 5.531-9.58 15.752-15.48 26.813-15.48-23.106-.91-43.063.089-56.142 22.131 0 0-25.008 43.314-40.467 70.091-6.73 12.209-19.011 28.691-17.831 43.384h.007c.046 3.717.552 7.433 1.542 11.046-.713 4.66 53.964 95.251 56.748 101.219 3.526 6.107 8.392 11.159 14.096 14.893 12.584 9.326 31.71 7.043 46.362 7.238 0-.001.001-.002.001-.003 28.269.001 73.233.008 82.649.003 16.284.027 31.276-9.002 39.011-23.31h-118.021z" fill="#f7d700"/></g></g><g><g><path d="m300.007 347.083-52.389-90.74c-7.906-13.694-22.518-22.13-38.33-22.13h-104.777c-15.813 0-30.424 8.436-38.33 22.13l-52.389 90.74c-7.906 13.694-7.906 30.566 0 44.26l52.389 90.74c7.906 13.694 22.518 22.13 38.33 22.13h104.778c15.813 0 30.424-8.436 38.33-22.13l52.389-90.74c7.906-13.694 7.906-30.566-.001-44.26zm-110.512 40.948c-4.771 8.263-6.875 17.331-6.595 26.215-7.553-4.684-16.458-7.396-26-7.396s-18.446 2.712-26 7.396c.28-8.884-1.824-17.951-6.595-26.215-4.771-8.263-11.572-14.619-19.405-18.819 7.833-4.2 14.634-10.556 19.405-18.819s6.875-17.331 6.595-26.214c7.553 4.684 16.458 7.396 26 7.396s18.446-2.712 26-7.396c-.28 8.884 1.824 17.951 6.595 26.214s11.572 14.619 19.405 18.819c-7.834 4.2-14.635 10.556-19.405 18.819z" fill="#fee95d"/></g></g><g><g><path d="m104.511 480.903c-8.341.09-16.091-4.433-20.255-11.662 0 0-48.814-84.548-48.814-84.548-5.531-9.579-5.531-21.382 0-30.961l60.067-104.039c5.531-9.579 15.752-15.48 26.813-15.48-23.106-.91-43.063.089-56.142 22.131 0-.001-52.389 90.739-52.389 90.739-5.878 10.178-7.455 22.485-4.361 33.781-.713 4.66 53.964 95.251 56.748 101.219 7.907 13.694 22.519 22.13 38.331 22.13 11.085-.009 91.784.007 104.777 0 16.284.027 31.276-9.002 39.011-23.31z" fill="#f7d700"/></g></g></g></g><g><path d="m218.813 68.629h15v15h-15z"/><path d="m161.334 101.814h15v15h-15z" transform="matrix(.5 -.866 .866 .5 -10.251 200.874)"/><path d="m161.334 168.186h15v15h-15z" transform="matrix(.866 -.5 .5 .866 -65.223 107.952)"/><path d="m505.087 230.056-52.389-90.74c-9.216-15.963-26.393-25.88-44.825-25.88h-33.796l-50.55-87.556c-9.216-15.963-26.392-25.88-44.825-25.88h-104.778c-18.433 0-35.609 9.917-44.825 25.88l-18.547 32.125 12.99 7.5 18.547-32.125c6.546-11.337 18.744-18.38 31.835-18.38h104.778c13.091 0 25.29 7.043 31.835 18.38l46.22 80.056h-53.662c-12.449 0-24.32 4.528-33.558 12.382-1.531-1.838-2.927-3.796-4.134-5.887-3.905-6.763-5.839-14.449-5.594-22.229l-11.449-6.61c-6.614 4.102-14.238 6.27-22.047 6.27s-15.433-2.168-22.047-6.27l-11.449 6.61c.245 7.779-1.689 15.465-5.594 22.228s-9.595 12.281-16.454 15.959v13.22c6.859 3.677 12.548 9.195 16.454 15.958 3.905 6.763 5.839 14.449 5.594 22.228l11.449 6.61c7.708-4.786 16.931-6.974 25.987-6.063l-22.607 39.158h-79.771l-38.174-66.12c-6.546-11.337-6.546-25.422 0-36.76l25.542-44.241-12.99-7.5-25.543 44.241c-9.217 15.963-9.217 35.797 0 51.76l33.845 58.62h-6.428c-18.433 0-35.609 9.917-44.825 25.88l-52.389 90.74c-9.217 15.963-9.217 35.796 0 51.76l52.389 90.74c9.216 15.963 26.392 25.88 44.824 25.88h104.778c18.433 0 35.609-9.917 44.825-25.88l50.624-87.684h73.088v-15h-66.33c3.684-13.237 2.031-27.649-4.994-39.816l-52.389-90.74c-6.678-11.566-17.536-19.955-30.021-23.7l47.553-82.364c6.545-11.337 18.744-18.38 31.835-18.38h104.778c13.091 0 25.29 7.043 31.835 18.38l52.389 90.74c6.546 11.337 6.546 25.423 0 36.76l-52.389 90.74c-6.545 11.337-18.744 18.38-31.835 18.38h-16.176v15h16.176c18.433 0 35.609-9.917 44.825-25.88l52.389-90.74c9.217-15.963 9.217-35.796 0-51.76zm-264.348 30.324 52.389 90.74c6.545 11.337 6.545 25.422 0 36.76l-52.389 90.74c-6.545 11.337-18.744 18.38-31.835 18.38h-104.778c-13.091 0-25.29-7.043-31.835-18.38l-52.389-90.74c-6.546-11.337-6.546-25.423 0-36.76l52.389-90.74c6.546-11.338 18.744-18.38 31.835-18.38h104.778c13.092 0 25.29 7.042 31.835 18.38zm-2.442-86.469c-3.924-.843-7.938-1.273-11.984-1.273-6.641 0-13.185 1.156-19.356 3.388-1.152-6.461-3.423-12.707-6.744-18.457-3.321-5.751-7.593-10.841-12.613-15.069 5.02-4.229 9.292-9.318 12.613-15.068s5.592-11.996 6.744-18.457c6.172 2.233 12.715 3.388 19.356 3.388s13.185-1.156 19.356-3.388c1.152 6.461 3.423 12.706 6.744 18.457 2.034 3.523 4.428 6.805 7.139 9.795-.441.686-21.255 36.684-21.255 36.684z"/><path d="m411.029 262.546v-13.22c-6.859-3.678-12.549-9.196-16.454-15.958-3.905-6.764-5.839-14.45-5.594-22.229l-11.449-6.61c-6.615 4.102-14.239 6.27-22.047 6.27-7.809 0-15.433-2.168-22.047-6.27l-11.449 6.61c.245 7.78-1.689 15.466-5.594 22.229-3.904 6.762-9.594 12.281-16.454 15.958v13.22c6.86 3.678 12.549 9.196 16.454 15.959s5.839 14.449 5.594 22.228l11.449 6.61c6.614-4.102 14.238-6.27 22.047-6.27s15.433 2.168 22.047 6.27l11.449-6.61c-.245-7.778 1.689-15.464 5.594-22.228 3.904-6.763 9.594-12.281 16.454-15.959zm-29.445 8.459c-3.32 5.751-5.592 11.996-6.744 18.457-6.171-2.232-12.715-3.388-19.356-3.388s-13.185 1.156-19.356 3.388c-1.152-6.462-3.423-12.706-6.744-18.457-3.32-5.751-7.593-10.84-12.612-15.069 5.02-4.229 9.292-9.317 12.612-15.068 3.321-5.751 5.592-11.996 6.744-18.457 6.171 2.232 12.715 3.388 19.356 3.388s13.184-1.155 19.356-3.388c1.152 6.461 3.423 12.706 6.744 18.458 3.321 5.751 7.593 10.839 12.613 15.068-5.02 4.228-9.292 9.316-12.613 15.068z"/><path d="m347.985 182.065h15v15h-15z"/><path d="m290.506 215.251h15v15h-15z" transform="matrix(.5 -.866 .866 .5 -43.905 369.454)"/><path d="m347.985 314.807h15v15h-15z"/><path d="m405.464 281.621h15v15h-15z" transform="matrix(.5 -.866 .866 .5 -43.902 502.203)"/><path d="m405.463 215.251h15v15h-15z" transform="matrix(.866 -.5 .5 .866 -56.049 236.319)"/><path d="m212.059 362.89c-6.86-3.678-12.549-9.196-16.454-15.959s-5.839-14.449-5.594-22.228l-11.449-6.61c-6.614 4.102-14.238 6.27-22.047 6.27s-15.433-2.168-22.048-6.27l-11.448 6.61c.245 7.778-1.689 15.464-5.594 22.228-3.905 6.763-9.594 12.281-16.454 15.959v13.22c6.859 3.677 12.548 9.195 16.454 15.958 3.905 6.763 5.839 14.45 5.594 22.228l11.449 6.61c6.614-4.102 14.238-6.27 22.047-6.27 7.81 0 15.434 2.168 22.047 6.27l11.449-6.609c-.245-7.78 1.689-15.466 5.594-22.228 3.905-6.763 9.594-12.282 16.453-15.959zm-29.444 21.679c-3.32 5.75-5.592 11.996-6.744 18.457-6.171-2.233-12.715-3.388-19.356-3.388s-13.185 1.156-19.356 3.388c-1.152-6.461-3.423-12.706-6.744-18.457s-7.593-10.841-12.613-15.069c5.02-4.229 9.292-9.318 12.613-15.069 3.32-5.751 5.592-11.997 6.744-18.457 6.172 2.233 12.715 3.388 19.356 3.388s13.184-1.155 19.356-3.388c1.152 6.461 3.423 12.706 6.744 18.457 3.32 5.751 7.592 10.84 12.612 15.069-5.019 4.229-9.291 9.317-12.612 15.069z"/><path d="m149.015 295.629h15v15h-15z"/><path d="m91.536 328.814h15v15h-15z" transform="matrix(.5 -.866 .866 .5 -241.74 253.929)"/><path d="m91.536 395.186h15v15h-15z" transform="matrix(.866 -.5 .5 .866 -188.076 103.469)"/><path d="m149.015 428.371h15v15h-15z"/><path d="m206.494 395.186h15v15h-15z" transform="matrix(.5 -.866 .866 .5 -241.739 386.665)"/><path d="m206.494 328.815h15v15h-15z" transform="matrix(.866 -.5 .5 .866 -139.488 152.056)"/></g></g><g/><g/><g/><g/><g/><g/><g/><g/><g/><g/><g/><g/><g/><g/><g/></svg>