<svg id="Layer_1" enable-background="new 0 0 512 512" viewBox="0 0 512 512" xmlns="http://www.w3.org/2000/svg"><g><g><g><g><g><path d="m471.594 200.246-53.804 100.993 42.923-.067 44.287-83.13z" fill="#fcad42"/></g></g><g><g><path d="m470.99 280.393-42.129.065-11.071 20.781 42.923-.067z" fill="#f69500"/></g></g><g><g><path d="m398.219 172.597-16.144 128.642 38.153-.034 13.991-111.487z" fill="#fcad42"/></g></g><g><g><path d="m422.83 280.459-38.151.032-2.604 20.748 38.153-.034z" fill="#f69500"/></g></g><g><g><path d="m359.897 181.172-37.419 5.703 17.428 114.364h38.278z" fill="#fcad42"/></g></g><g><g><path d="m375.024 280.494h-38.118l3 20.745h38.278z" fill="#f69500"/></g></g><g><g><path d="m73.25 121.517h-13.373c-10.228 0-20.038-4.063-27.27-11.296-5.858-5.858-15.355-5.858-21.213 0-5.858 5.858-5.858 15.355 0 21.213 7.233 7.233 11.296 17.042 11.296 27.271v13.373c0 47.515 14.135 91.729 38.431 128.665h242.859l-45.458-88.459c-42.892-55.229-109.931-90.767-185.272-90.767z" fill="#b071d2"/></g></g><g><g><path d="m292.163 277.75-104.653-38.03-14.14 38.91h-100.089c-21.269-37.179-31.373-82.455-29.656-127.585-.001-10.229-4.064-20.038-11.296-27.271-4.381-4.381-5.483-10.798-3.311-16.205-5.667-3.002-12.853-2.12-17.625 2.652-5.858 5.858-5.858 15.355 0 21.213 7.233 7.233 11.296 17.042 11.296 27.271-2.071 51.145 11.479 101.903 38.431 142.038h242.859z" fill="#923ec3"/></g></g><g><g><path d="m200.973 268.551-11.855 32.621h101.623z" fill="#f69500"/></g></g><g><g><path d="m268.83 191.456-19.424 39.518 45.597 69.955h44.903z" fill="#fcad42"/></g></g><g><g><path d="m326.43 280.737h-44.589l13.162 20.192h44.903z" fill="#f69500"/></g></g><g><g><path d="m7 301.172v5.119l53.5 99.881h390l53.5-99.881v-5.119z" fill="#e3edf6"/></g></g><g><g><path d="m74.287 383.672-44.19-82.5h-23.097v5.119l53.5 99.881h390l12.052-22.5z" fill="#c5d9ec"/></g></g></g></g><g><path d="m512 221.564-3.093-10.146-33.406-17.797-10.146 3.093-31.993 60.054 8.298-66.122-4.22-7.707-36-17.121-10.663 5.839-11.174 89.04-5.461-35.833-14.829 2.26 10.14 66.542h-23.113l-15.317-100.513 22.59-3.443 3.416 22.413 14.829-2.26-4.545-29.828-8.544-6.285-37.419 5.703-6.287 8.547 12.063 79.156-52.014-79.8-13.014.787-4.943 10.057c-20.917-24.262-46.716-44.435-75.255-58.721-33.756-16.898-70.146-25.466-108.161-25.466h-13.373c-8.298 0-16.1-3.231-21.967-9.1-8.772-8.771-23.047-8.772-31.819 0-8.773 8.772-8.773 23.047 0 31.82 5.867 5.868 9.099 13.669 9.099 21.967v13.373c0 43 11.28 84.766 32.732 121.595h-48.411v14.5l56.509 105.5h64.491v-15h-55.509l-48.207-90h477.433l-48.207 90h-310.51v15h319.491l56.509-105.5v-14.5h-38.412zm-36.933-11.178 20.168 10.744-38.643 72.537h-25.892zm-70.698-26.565 21.733 10.336-12.488 99.51h-23.031zm-77.868 109.846h-27.277l-41.206-63.22 11.727-23.857zm-278.579-34.69 66.723-66.723-10.606-10.606-61.873 61.872c-7.576-22.869-11.488-46.942-11.488-71.448v-13.373c.172-29.023-22.787-32.498-13.493-43.18 10.665-9.3 14.161 13.661 43.181 13.492h13.373c58.353 0 113.112 21.89 154.845 60.998l-76.199 76.199 10.606 10.606 76.199-76.2c3.702 3.954 7.281 8.055 10.729 12.303l-7.246 14.742.448 7.404 34.864 53.489-74.452-27.055-9.61 4.487-10.06 27.683h-117.889c-7.045-11.079-13.072-22.684-18.052-34.69zm200.221 34.69h-48.32l5.637-15.511z"/><path d="m60.5 323.667h15v15h-15z"/><path d="m90.533 323.667h15v15h-15z"/></g></g><g/><g/><g/><g/><g/><g/><g/><g/><g/><g/><g/><g/><g/><g/><g/></svg>