<svg id="Layer_1" enable-background="new 0 0 512 512" viewBox="0 0 512 512" xmlns="http://www.w3.org/2000/svg"><g><g><g><g><g><path d="m161.89 68.736-127.419 127.418 72.448 19.413c10.113-1.519 27.037-5.368 45.06-16.354 18.573-11.322 29.927-25.113 35.884-33.546-8.658-32.311-17.315-64.621-25.973-96.931z" fill="#ffdaaa"/></g></g><g><g><path d="m334.658 134.316-24.213 24.213 24.213 18.213 21.214-21.213z" fill="#54e072"/></g></g><g><g><path d="m175.235 180.757c4.41-4.396 9.728-10.893 12.628-15.09-1.994-7.442-3.988-14.884-5.982-22.326-6.838 3.1-12.803 7.872-17.313 13.856-11.234 2.008-21.15 8.243-27.857 17.143-11.233 2.008-21.151 8.244-27.857 17.143-1.534.274-3.04.634-4.52 1.062l-52.251-14.001-17.611 17.611 46.528 12.467 25.92 6.945c18.124-1.539 51.642-16.09 68.315-34.81z" fill="#ffb680"/></g></g><g><g><path d="m390.316 217.977c-.611-14.134-14.362-25.169-28.466-20.985-1.964-10.246-10.97-17.99-21.789-17.99-2.105 0-4.139.299-6.068.847-1.965-10.246-10.97-17.99-21.789-17.99-2.105 0-4.139.299-6.068.847-1.964-10.246-10.97-17.99-21.789-17.99-2.274 0-4.468.343-6.534.979-1.912-10.312-10.947-18.122-21.813-18.122-10.819 0-19.824 7.744-21.789 17.99-1.929-.547-3.963-.847-6.068-.847-10.819 0-19.824 7.744-21.789 17.99-1.929-.548-3.963-.847-6.068-.847-10.819 0-19.824 7.744-21.789 17.99-1.929-.547-3.963-.847-6.068-.847-10.819 0-19.825 7.744-21.789 17.99-1.929-.548-3.963-.847-6.068-.847-10.819 0-19.824 7.744-21.789 17.99-1.929-.547-3.963-.847-6.068-.847-10.819 0-19.824 7.744-21.789 17.99-1.929-.547-3.963-.847-6.068-.847-10.819 0-19.824 7.744-21.789 17.99-1.929-.547-3.963-.847-6.068-.847-12.256 0-22.191 9.936-22.191 22.191v7.5h434.872v-7.5c.064-12.846-11.088-23.142-23.85-22.129z" fill="#fee95d"/></g></g><g><g><path d="m43.856 255.674c-3.154 3.832-5.048 8.74-5.048 14.09v7.5h434.872v-7.5c.027-5.352-1.898-10.257-5.07-14.09h-396.802c-1.132-1.024-6.349-5.52-14.298-5.397-7.542.116-12.456 4.312-13.654 5.397z" fill="#f7d700"/></g></g><g><g><path d="m7.5 397.275h497v46h-497z" fill="#aa4b30"/></g></g><g><g><path d="m28.926 421.85v-24.575h-21.426v46h497v-21.425z" fill="#8d3d27"/></g></g><g><g><path d="m407.351 397.275h-302.702c-44.817 0-81.149-36.332-81.149-81.149v-38.851h465v38.851c0 44.817-36.332 81.149-81.149 81.149z" fill="#8ad8f6"/></g></g><g><g><path d="m450.643 375.274h-345.284c-33.059 0-59.858-26.799-59.858-59.858v-38.141h-22.001v38.851c0 44.817 36.332 81.149 81.149 81.149h302.702c22.352 0 42.59-9.039 57.266-23.658-4.485 1.073-9.16 1.657-13.974 1.657z" fill="#54c9f3"/></g></g><g><g><path d="m61 299.679h14.83v15h-14.83z" fill="#fff"/></g></g><g><g><path d="m149.205 165.706c-7.766-7.361-21.852-10.543-30.309-2.861-6.601 6.468-5.023 17.286 2.932 21.991 3.694 2.166 6.964 5.444 9.123 9.14 1.055 1.789 2.422 3.253 3.98 4.374l22.295-13.315c.12-7.175-2.687-14.235-8.021-19.329z" fill="#f05475"/></g></g><g><g><path d="m91 299.679h45v15h-45z" fill="#fff"/></g></g><g><g><path d="m185.581 272.52c-1.873 1.873-4.238 3.195-6.829 3.744-8.375 1.775-17.212-.618-23.48-6.605-6.551-6.257-9.291-15.478-7.475-24.235.545-2.628 1.869-5.033 3.767-6.931l.094-.094c6.484-6.484 17.208-4.907 21.868 2.991 1.105 1.873 2.455 3.624 4.041 5.203 1.546 1.539 3.256 2.855 5.082 3.937 7.906 4.684 9.527 15.396 3.029 21.893z" fill="#f05475"/></g></g><g><g><path d="m340.376 227.435c0 2.648-.737 5.256-2.181 7.476-4.668 7.177-12.608 11.734-21.273 11.933-9.056.208-17.514-4.375-22.422-11.851-1.473-2.244-2.237-4.881-2.237-7.565v-.133c0-9.17 8.698-15.638 17.578-13.348 2.106.543 4.299.827 6.536.822 2.182-.005 4.321-.284 6.377-.81 8.902-2.278 17.623 4.15 17.623 13.339v.137z" fill="#f05475"/></g></g><g><g><path d="m219.787 194.764h30v30h-30z" fill="#54e072" transform="matrix(.707 .707 -.707 .707 217.093 -104.581)"/></g></g><g><g><path d="m458.5 194.764h-21.521c-33.678 0-60.979 27.301-60.979 60.979v21.521h21.521c33.678 0 60.979-27.301 60.979-60.979z" fill="#c3f839"/></g></g><g><g><path d="m417.969 256.817h-21.521v-21.521c0-11.598 3.239-22.44 8.861-31.671-17.574 10.701-29.309 30.038-29.309 52.118v21.521h21.521c22.079 0 41.417-11.735 52.118-29.308-9.231 5.621-20.072 8.861-31.67 8.861z" fill="#abe700"/></g></g></g></g><g><path d="m456.638 388.666c23.72-15.926 39.362-42.994 39.362-73.649v-46.351h-14.819c0-13.009-8.413-24.083-20.082-28.086 3.15-7.858 4.901-16.422 4.901-25.393v-29.021h-29.021c-16.585 0-31.81 5.93-43.672 15.777-5.438-8.902-15.251-14.826-26.326-14.382-3.482-7.513-10.058-13.215-17.9-15.732l17.397-17.397-31.819-31.819-26.074 26.074c-5.705-8.046-15.34-13.056-25.654-12.534-9.952-22.626-43.858-22.642-53.851-.019-12.02-.402-22.976 6.606-27.857 17.143-2.875-.096-5.685.242-8.37.941l-23.719-88.52-12.548-3.362-25.89 25.89 10.606 10.606 16.705-16.705 21.372 79.763c-2.472 2.445-4.528 5.32-6.014 8.529-3.654-.122-7.206.449-10.523 1.587-10.033-28.446-56.732-31.24-55.403 2.176 1.087 11.919 10.088 13.758 16.505 21.715-2.598 2.503-4.751 5.478-6.293 8.808-3.929-.132-7.738.542-11.264 1.858l-57.427-15.389 80.987-80.986-10.607-10.607-90.172 90.172 3.362 12.548 59.297 15.889c-.759 1.164-1.442 2.383-2.032 3.657-12.02-.404-22.976 6.607-27.857 17.143-18.575-.014-29.58 12.995-30.749 29.677h-15.189v46.351c0 30.655 15.642 57.723 39.362 73.649h-55.362v61h421v-15h-406v-31h482v31h-61v15h76v-61h-55.362zm9.543-120h-25.961c5.186-4.149 9.757-9.032 13.555-14.495 7.016 1.103 12.406 7.173 12.406 14.495zm-29.202-67.5h14.021v14.021c.105 30.823-26.26 55.205-56.893 53.479l34.83-34.83-10.607-10.606-34.829 34.83c-1.727-30.635 22.655-57 53.478-56.894zm-91.714-46.736-9.931 9.931c-3.215-3.984-7.433-7.095-12.216-8.997l11.541-11.541zm-213.065 27.93c-2.925-3.707-9.203-4.886-9.879-10.053-.495-13.017 25.446-8.484 27.294 8.814-1.627 1.948-3.024 4.101-4.107 6.439-2.91-.097-5.755.248-8.47.964-1.52-2.115-2.817-4.458-4.838-6.164zm-71.2 71.614c2.845-.173 9.091 2.141 11.894 2.795l1.541-8.036c1.322-6.896 7.388-11.902 14.423-11.902 2.843-.171 9.092 2.139 11.893 2.796l1.541-8.036c1.323-6.897 7.389-11.902 14.423-11.902 2.845-.171 9.092 2.138 11.894 2.795l1.541-8.036c1.322-6.896 7.388-11.902 14.423-11.902 2.845-.171 9.092 2.14 11.893 2.798l1.541-8.039c1.322-6.896 7.388-11.902 14.423-11.902 2.845-.171 9.092 2.138 11.894 2.795l1.541-8.036c1.322-6.896 7.388-11.902 14.423-11.902 2.845-.171 9.092 2.14 11.893 2.797l1.541-8.038c1.322-6.896 7.388-11.902 14.423-11.902 2.845-.171 9.091 2.138 11.893 2.795l1.541-8.036c1.323-6.896 7.389-11.902 14.423-11.902 7.078 0 13.15 5.042 14.438 11.99l1.534 8.276c2.935-.763 9.332-3.328 12.374-3.123 7.035 0 13.101 5.006 14.423 11.902l1.542 8.039c2.753-.655 9.076-2.981 11.892-2.798 7.035 0 13.102 5.005 14.423 11.901l1.541 8.037c2.754-.654 9.078-2.977 11.894-2.795 7.035 0 13.101 5.006 14.423 11.902l1.542 8.038c2.753-.656 9.078-2.978 11.892-2.797 7.098-.053 12.368 4.794 14.25 11.095-8.579 11.438-13.667 25.637-13.667 41.003v14.021h-172.122c2.841-9.158-1.482-19.888-9.908-24.687-2.663-1.574-4.917-3.833-6.487-6.498-9.725-16.901-35.618-12.751-39.532 6.322-2.035 8.77-.001 17.659 4.64 24.863h-98.785c0-8.1 6.59-14.691 14.691-14.691zm107.32 14.692c-14.605-3.961-18.511-26.015-6.973-26.897 5.76.014 7.003 6.976 10.928 10.04 2.924 3.706 9.203 4.887 9.878 10.053.614 2.036-1.426 5.905-4.26 6.804zm-63.671 120c-40.61 0-73.649-33.039-73.649-73.649v-31.351h450v31.351c0 40.61-33.039 73.649-73.649 73.649z"/><path d="m316.349 253.252c22.378.725 43.928-26.336 23.336-43.808-7.554-6.005-14.586-4.543-23.325-3.274-8.845-1.221-15.664-2.836-23.377 3.236-20.68 17.529.98 44.521 23.366 43.846zm-10.129-33.366c6.054 1.187 12.327 1.992 18.393.239 5.352-1.641 10.502 4.343 7.296 9.598-6.849 11.222-24.217 11.209-31.139.056-2.894-4.458.788-10.171 5.45-9.893z"/><path d="m266.606 208.666-31.82-31.819-31.819 31.819 31.819 31.82zm-31.819-10.607 10.607 10.606-10.607 10.607-10.606-10.607z"/></g></g><g/><g/><g/><g/><g/><g/><g/><g/><g/><g/><g/><g/><g/><g/><g/></svg>