<svg id="Layer_1" enable-background="new 0 0 512 512" viewBox="0 0 512 512" xmlns="http://www.w3.org/2000/svg"><g><g><g><g><g><path d="m49.628 49.628c-58.262 58.262-53.693 159.841 12.678 214.926 12.418-12.408 32.836-29.879 62.054-43.712 30.743-14.555 58.56-19.084 76.439-20.599.941-16.887 4.53-43.96 18.243-74.052 14.191-31.141 33.101-52.076 45.512-63.885-68.066-79.093-167.433-60.171-214.926-12.678z" fill="#ffdaaa"/></g></g><g><g><path d="m139.273 205.93c-29.218 13.833-49.636 31.304-62.054 43.712-63.446-52.656-70.411-147.792-20.013-206.969-2.649 2.241-5.182 4.56-7.578 6.955-58.262 58.262-53.693 159.841 12.678 214.926 12.418-12.408 32.836-29.879 62.054-43.712 30.743-14.555 58.56-19.084 76.439-20.599.218-3.918.582-8.39 1.179-13.315-17.015 2.514-38.987 7.773-62.705 19.002z" fill="#ffb680"/></g></g><g><g><path d="m214.357 57.961-52.93-7.213 10.431 55.334 50.096-7.82z" fill="#8d3d27"/></g></g><g><g><path d="m200.695 190.805-50.589 3.959v-72.147h64.851z" fill="#8d3d27"/></g></g><g><g><path d="m157.858 48.191c-11.131-11.131-29.179-11.131-40.31 0-4.367 4.367-7.013 9.8-7.953 15.46-10.694-5.411-24.084-3.656-33.02 5.28-11.131 11.131-11.131 29.179 0 40.31 1.216 1.216 2.514 2.299 3.877 3.249l91.406-6.41-10.937-54.828z" fill="#54e072"/></g></g><g><g><path d="m199.29 86.929-33.708 33.708 44.943 22.472 3.985-3.984 18.132-35.519z" fill="#aa4b30"/></g></g><g><g><path d="m182.089 104.13-16.507 16.507 44.943 22.472 3.985-3.984 7.64-14.965z" fill="#8d3d27"/></g></g><g><g><path d="m94.723 95c-40.567 40.567-43.182 104.715-7.843 148.322l43.129-25.051-16.538-104.522z" fill="#c3f839"/></g></g><g><g><path d="m104.457 229.745c-30.692-37.872-32.737-91.229-6.175-131.185l-3.559-3.56c-40.567 40.567-43.182 104.715-7.843 148.322l43.129-25.051-.488-3.084z" fill="#abe700"/></g></g><g><g><path d="m139.666 72.25c-39.86 39.86-43.079 102.485-9.657 146.021 10.221-4.483 22.725-9.058 37.295-12.58 12.352-2.986 23.672-4.607 33.496-5.448-3.611-2-22.98-13.191-29.709-37.537-7.341-26.563 6.203-47.661 8.269-50.763-13.231-13.23-26.463-26.462-39.694-39.693z" fill="#c3f839"/></g></g><g><g><path d="m186.189 192.436c-14.57 3.522-27.073 8.097-37.294 12.58-28.801-37.518-30.366-89.2-4.747-128.284-1.494-1.494-2.988-2.988-4.482-4.482-39.86 39.86-43.079 102.485-9.657 146.021 10.221-4.483 22.725-9.058 37.295-12.58 12.352-2.986 23.672-4.607 33.496-5.448-1.606-.89-6.335-3.605-11.679-8.484-.975.223-1.944.438-2.932.677z" fill="#abe700"/></g></g><g><g><path d="m200.8 200.244c-51.291 4.385-100.709 26.457-138.494 64.31l277.717 238.44 67.083-67.083z" fill="#fef2e2"/></g></g><g><g><path d="m62.306 264.554 277.717 238.44 16.639-16.639-276.763-237.62c-6.098 4.923-11.977 10.192-17.593 15.819z" fill="#ffe1ba"/></g></g><g><g><path d="m264.554 62.306c-73.863 73.729-87.637 191.749-27.167 281.555 38.89 57.757 100.142 91.437 164.469 97.3l101.138-101.138z" fill="#fef2e2"/></g></g><g><g><path d="m253.212 328.036c-56.092-83.304-48.292-190.878 12.085-264.866l-.742-.865c-73.863 73.729-87.637 191.749-27.167 281.555 38.89 57.757 100.142 91.437 164.469 97.3l15.824-15.824c-64.327-5.863-125.58-39.543-164.469-97.3z" fill="#ffe1ba"/></g></g><g><g><circle cx="280.484" cy="168.124" fill="#fcad42" r="15.694"/></g></g><g><g><circle cx="302.956" cy="325.428" fill="#fcad42" r="15.694"/></g></g><g><g><circle cx="415.316" cy="347.9" fill="#fcad42" r="15.694"/></g></g><g><g><circle cx="180.794" cy="345.175" fill="#fcad42" r="15.694"/></g></g></g></g><g><path d="m512 338.957-197.254-229.747-11.397 9.785 94.885 110.515v41.492h15.021v-23.997l78.279 91.174-93.843 93.843c-63.424-6.802-120.013-40.848-155.672-93.806-55.928-83.063-46.928-193.861 20.651-266.602l30.663 35.713 11.397-9.785-41.372-48.053c-54.797-62.293-163.355-67.051-220.9-7.032-60.025 57.563-55.255 166.099 7.033 220.9l-.061.061c15.052 15.18 217.603 186.829 217.603 186.829l9.785-11.397-86.864-74.579c13.649-6.925 16.634-26.29 5.588-36.967h-.001c-11.559-12.142-33.322-7.044-38.346 8.842l-85.578-73.475c32.754-30.399 74.454-49.878 119.002-55.61-2.283 48.178 10.445 97.227 38.94 139.546 35.93 53.362 91.725 88.754 154.779 98.768l-46.16 46.16-49.822-42.777-9.785 11.397 60.386 51.845zm-338.685-1.031c7.768-7.495 19.1 3.862 11.605 11.603-7.76 7.488-19.093-3.843-11.605-11.603zm-68.887-269.414 10.799-5.471c.722-4.342 2.75-8.285 5.866-11.402 9.086-9.204 23.929-7.649 31.916 2.17l4.894 25.96-19.971-19.969-5.311 5.311c-9.988 9.988-17.845 21.4-23.542 33.625l-16.153-16.154s-12.221 12.686-15.288 16.649c-5.761-8.007-4.703-19.957 2.426-26.822 6.444-6.443 16.236-8.007 24.364-3.897zm102.502 63.491-30.368-15.184 22.559-22.559 20.899 10.449c-4.986 8.843-9.351 17.962-13.09 27.294zm-5.933-53.599-8.67 1.407-16.097 16.097-7.195-38.17 37.315 5.085 3.8 20.157zm-107.883 25.609 10.072 10.072c-10.088 32.904-5.729 69.542 13.762 99.546-10.519 5.126-20.644 11.05-30.278 17.727-27.427-38.904-24.765-91.357 6.444-127.345zm45.011-22.778 26.389 26.39-5.942 5.942 1.952 12.028 4.103 2.052c-8.558 20.707-4.012 44.876 12.219 61.106 1.581 1.581 3.247 3.044 4.977 4.411-17.559 2.799-34.656 7.597-50.959 14.249-26.409-38.681-23.336-90.793 7.261-126.178zm49.343 96.896c-11.627-11.627-15.078-28.813-9.367-43.748l23.668 11.834c-3.903 11.961-6.813 24.199-8.717 36.585-1.977-1.382-3.847-2.934-5.584-4.671zm-127.264 74.665c-27.235-24.952-43.707-60.217-45.449-97.796-1.792-38.626 12.178-75.775 38.325-101.922s63.303-40.11 101.921-38.325c37.578 1.742 72.843 18.215 97.794 45.45-9.347 9.918-18.667 21.511-25.944 32.63l-6.743-38.112-6.366-6.05-51.671-7.041c-17.072-18.612-49.541-12.785-59.165 10.48-11.882-2.708-24.543.758-33.463 9.679-13.774 13.216-14.018 36.919-.545 50.416-9.452 16.256-14.963 34.637-15.904 53.753-1.312 26.674 6.324 52.794 21.602 74.372-4.959 3.943-9.759 8.103-14.392 12.466z"/><path d="m113.82 266.919h15.021v15.021h-15.021z" transform="matrix(.707 -.707 .707 .707 -158.509 166.16)"/><path d="m135.194 245.545h15.021v15.021h-15.021z" transform="matrix(.707 -.707 .707 .707 -137.136 175.013)"/><path d="m295.369 150.006c-9.056-9.055-23.791-9.055-32.847.001-9.055 9.056-9.055 23.79.001 32.847 9.057 9.055 23.79 9.055 32.847 0 9.056-9.057 9.056-23.792-.001-32.848zm-10.62 22.225c-7.761 7.488-19.091-3.843-11.605-11.603 7.768-7.495 19.1 3.862 11.605 11.603z"/><path d="m301.45 300.727c-12.438-.284-23.504 10.763-23.226 23.226-.276 12.464 10.787 23.506 23.226 23.226 12.438.284 23.504-10.763 23.226-23.226.257-12.484-10.742-23.484-23.226-23.226zm8.205 23.226c.253 7.082-9.177 10.992-14.007 5.801-7.503-7.746 3.859-19.106 11.603-11.603 1.55 1.55 2.404 3.611 2.404 5.802z"/><path d="m430.39 362.88c9.01-8.645 9.01-24.201 0-32.846-22.225-21.083-53.932 10.623-32.847 32.847 9.058 9.055 23.79 9.055 32.847-.001zm-22.225-22.225c3.198-3.199 8.405-3.199 11.603 0h.001c7.496 7.744-3.841 19.097-11.604 11.603-3.199-3.199-3.199-8.404 0-11.603z"/><path d="m316.582 189.142h15.021v44.867h-15.021z"/><path d="m249.211 233.731h15.021v44.868h-15.021z"/><path d="m350.059 335.414h15.021v44.868h-15.021z"/></g></g><g/><g/><g/><g/><g/><g/><g/><g/><g/><g/><g/><g/><g/><g/><g/></svg>