<svg id="Layer_1" enable-background="new 0 0 512 512" viewBox="0 0 512 512" xmlns="http://www.w3.org/2000/svg"><g><g><g><g><g><path d="m500.119 266.773c-5.858-5.858-15.355-5.858-21.213 0l-176.929-176.928c1.641-25.158-4.657-47.083-19.834-62.26-46.578-48.782-152.615-.079-201.525 53.033-70.294 70.294-94.038 160.52-53.033 201.525 15.177 15.177 37.103 21.475 62.26 19.834l176.929 176.928c-5.858 5.858-5.858 15.355 0 21.213 5.858 5.858 15.355 5.858 21.213 0l212.132-212.132c5.858-5.857 5.858-15.355 0-21.213z" fill="#ffdaaa"/></g></g><g><g><path d="m500.119 266.773c-1.934-1.934-4.268-3.216-6.734-3.873l-205.399 205.399-189.437-189.438-10.169.664c-13.527.882-32.3-.706-44.886-13.292-14.999-14.999-21.395-45.107-16.689-78.577 5.484-39.018 25.183-77.948 54.043-106.809l.641-.668c4.827-5.242 10.577-10.853 17.009-16.652-6.538 5.564-12.549 11.301-17.88 17.09-70.294 70.294-94.038 160.52-53.033 201.525 15.177 15.177 37.103 21.475 62.26 19.834l176.929 176.928c-5.858 5.858-5.858 15.355 0 21.213 5.858 5.858 15.355 5.858 21.213 0l212.132-212.132c5.858-5.856 5.858-15.354 0-21.212z" fill="#ffb680"/></g></g><g><g><path d="m262.37 151.508c-26.14-12.229-59.104-10.593-87.144-2.748-8.892 2.011-16.201 3.501-24.422 2.748-6.992-.695-13.696-2.564-20.829-3.231l-.204-.02c-34.226-4.698-52.722 30.864-54.112 60.98-.489 8.255.133 16.234 1 24.351 4.721 40.671 9.02 89.062 40.814 116.025 7.127 5.922 15.885 9.915 25.184 10.467 18.254 1.032 34.901-7.983 50.591-16.702 7.84-4.23 16.379-8.992 24.607-9.884 6.784-.804 13.199 1.052 19.737 4.195 22.729 12.275 42.466 16.21 60.23 4.102 19.903-13.482 28.587-37.838 21.731-59.088-5.558-17.229-20.618-30.206-39.098-34.123-6.028-32.358-12.057-64.715-18.085-97.072z" fill="#fff"/></g></g><g><g><path d="m255.134 320.146c-6.538-3.144-12.953-4.999-19.737-4.195-8.228.892-16.768 5.654-24.607 9.884-15.69 8.719-32.337 17.734-50.591 16.702-9.299-.551-18.058-4.544-25.185-10.467-31.794-26.962-36.093-75.353-40.814-116.024-.866-8.117-1.489-16.096-1-24.351.61-13.223 4.519-27.494 11.608-38.948-18.259 10.251-28.148 34.784-29.15 56.49-.489 8.255.133 16.234 1 24.351 4.721 40.671 9.02 89.062 40.814 116.025 7.127 5.922 15.885 9.915 25.184 10.467 18.254 1.032 34.901-7.983 50.591-16.702 7.84-4.23 16.379-8.992 24.607-9.884 6.784-.804 13.199 1.052 19.737 4.195 22.729 12.275 42.466 16.21 60.23 4.102 6.6-4.471 11.957-10.141 15.932-16.493-17.344 10.812-36.574 6.754-58.619-5.152z" fill="#e3edf6"/></g></g><g><g><path d="m219.935 199.139c-23.568-19.319-58.408-17.977-80.41 4.025-23.431 23.431-23.431 61.421 0 84.853s61.421 23.431 84.853 0c3.386-3.386 6.283-7.076 8.69-10.982z" fill="#fcad42"/></g></g><g><g><path d="m155.514 272.028c-20.707-20.707-23.101-52.776-7.209-76.127-3.095 2.101-6.037 4.521-8.78 7.264-23.431 23.431-23.431 61.421 0 84.853s61.421 23.431 84.853 0c2.732-2.732 5.13-5.671 7.225-8.753-23.348 15.861-55.394 13.458-76.089-7.237z" fill="#f69500"/></g></g><g><g><path d="m233.821 278.513c17.574-17.574 46.066-17.574 63.64 0s17.574 46.066 0 63.64l53.033 53.033c46.863-46.863 46.863-122.843 0-169.706s-122.843-46.863-169.706 0z" fill="#c3f839"/></g></g><g><g><path d="m314.261 325.351c17.573-17.573 17.573-46.066 0-63.64s-46.066-17.573-63.64 0l-51.366-51.366c-6.522 4.34-12.715 9.382-18.468 15.135l53.033 53.033c17.573-17.573 46.066-17.573 63.64 0s17.573 46.066 0 63.64l53.033 53.033c5.752-5.752 10.794-11.946 15.135-18.468z" fill="#abe700"/></g></g><g><g><path d="m318.673 257.3c-29.289-29.289-76.777-29.289-106.066 0l21.213 21.213c17.426-17.478 45.007-18.395 62.21-3.692 19.053 16.284 20.77 47.794 1.43 67.332l21.213 21.213c29.29-29.29 29.29-76.777 0-106.066z" fill="#fee95d"/></g></g><g><g><path d="m314.3 325.313-16.84 16.84 21.213 21.213c5.889-5.889 10.573-12.522 14.094-19.586-6.155-6.156-12.311-12.312-18.467-18.467z" fill="#f7d700"/></g></g><g><g><path d="m232.194 243.206c-7.065 3.521-13.697 8.205-19.586 14.094l21.213 21.213 16.84-16.84z" fill="#f7d700"/></g></g><g><g><path d="m166.822 280.063c-5.723-2.589-10.734-6.598-14.491-11.591l11.985-9.02c2.248 2.988 5.253 5.389 8.689 6.944zm-21.644-28.699c-.269-1.813-.404-3.657-.404-5.483 0-4.438.784-8.805 2.331-12.981l14.066 5.212c-.928 2.502-1.397 5.116-1.397 7.769 0 1.094.082 2.2.242 3.288z" fill="#fff"/></g></g><g><g><path d="m287.216 225.118c17.574-17.574 46.066-17.574 63.64 0s17.574 46.066 0 63.64l53.033 53.033c46.863-46.863 46.863-122.843 0-169.706s-122.843-46.863-169.706 0z" fill="#c3f839"/></g></g><g><g><path d="m367.702 271.911c17.573-17.573 17.573-46.066 0-63.64s-46.066-17.573-63.64 0l-51.366-51.366c-6.522 4.34-12.715 9.382-18.468 15.135l53.033 53.033c17.573-17.573 46.066-17.573 63.64 0s17.573 46.066 0 63.64l53.033 53.033c5.752-5.752 10.794-11.946 15.135-18.468z" fill="#abe700"/></g></g><g><g><path d="m372.069 203.905c-29.289-29.289-76.777-29.289-106.066 0l21.213 21.213c17.426-17.478 45.007-18.395 62.21-3.692 19.053 16.284 20.77 47.794 1.43 67.332l21.213 21.213c29.289-29.29 29.289-76.777 0-106.066z" fill="#fee95d"/></g></g><g><g><path d="m367.741 271.872-16.84 16.84 21.213 21.213c5.889-5.889 10.573-12.522 14.094-19.586-6.156-6.156-12.311-12.312-18.467-18.467z" fill="#f7d700"/></g></g><g><g><path d="m285.634 189.765c-7.065 3.521-13.697 8.205-19.586 14.094l21.213 21.213 16.84-16.84z" fill="#f7d700"/></g></g></g></g><g><path d="m505.454 261.43c-6.509-6.705-17.273-8.498-25.614-4.402l-39.525-39.522c-6.001-18.572-16.362-36.029-31.086-50.752s-32.184-25.083-50.758-31.084l-48.791-48.786c1.031-26.742-6.608-49.029-22.191-64.611-32.52-32.517-93.644-29.201-155.719 8.447l7.779 12.823c43.507-25.833 100.625-44.034 137.332-10.665 13.836 13.402 19.773 35.801 17.432 59.85l37.373 37.37c-23.283-2.294-47.079 1.784-68.532 12.231v-36.322h-14.999v32.594c-9.326-2.305-19.431-3.461-29.999-3.47v-44.122h-14.999v44.858c-9.728.948-19.707 2.805-29.72 5.594-.094.021-.185.041-.278.063v-65.513h-14.999v68.078c-9.29.678-18.018-2.515-27.403-3.3-13.701-1.85-26.504 1.781-37.015 10.534-26.477 23.676-28.016 57.936-23.89 88.233 2.063 17.977 4.248 36.999 8.77 55.042-18.957-.687-34.615-6.735-45.681-17.8-17.867-17.865-22.58-47.185-13.271-82.556 9.684-36.794 33.23-75.269 66.302-108.337 12.622-12.621 26.17-23.968 40.268-33.725l-8.537-12.332c-14.836 10.268-29.081 22.195-42.338 35.452-34.92 34.917-59.851 75.803-70.2 115.125-10.723 40.744-4.626 75.185 17.169 96.978 14.757 14.817 35.986 22.526 60.754 22.268 9.09 26.988 30.65 57.889 61.864 57.919l112.167 112.156c-10.541 22.671 18.104 43.256 36.213 25.605l166.32-166.305-10.607-10.605-166.32 166.305c-7.078 6.853-17.456-3.511-10.605-10.606 0 0 5.302-5.302 5.302-5.302l-113.852-113.843c12.806-3.572 24.086-9.99 34.226-15.577 7.116-3.845 14.475-7.821 20.987-8.528 4.571-.539 9.344.518 15.451 3.433 4.201 2.263 8.891 4.587 13.921 6.595v55.049h14.999v-50.55c9.619 1.845 19.865 1.643 29.999-2.607v68.155h14.999v-58.333l42.742 42.738c19.321-17.896 33.571-41.057 39.356-66.7l13.675 13.674c30.936-28.091 46.134-68.972 41.962-108.056l33.052 33.049 5.302-5.302c7.083-6.86 17.465 3.528 10.606 10.605l-34.505 34.502 10.607 10.605 34.504-34.502c8.729-8.373 8.729-23.44.001-31.815zm-264.254 69.61c-8.757-4.305-16.634-5.955-24.108-5.052-26.006 4.199-46.564 28.326-73.943 26.553-7.158-.425-14.557-3.531-20.776-8.699-32.402-27.024-37.818-91.25-39.171-134.291.873-18.916 8.777-37.247 20.135-46.7 13.526-12.242 30.708-5.976 46.831-3.9 9.189.841 17.216-.744 26.76-2.901 24.304-6.839 48.34-7.775 67.927-2.807-7.495 5.23-14.739 12.148-21.233 18.814l13.675 13.673c-5.477 1.272-10.858 2.902-16.107 4.88-26.706-19.145-63.33-16.366-86.919 7.22-12.748 12.747-19.769 29.696-19.769 47.723 0 18.028 7.02 34.976 19.769 47.724s29.698 19.767 47.727 19.767 34.979-7.02 47.728-19.768c1.516-1.516 9.804-9.865 9.804-9.865 13.955-14.546 39.074-14.546 53.03 0 14.458 14.457 14.609 37.872.473 52.529-13.523 8.866-29.081 7.387-51.833-4.9zm119.922-42.704c15.385-20.545 13.744-49.889-4.925-68.556-18.671-18.668-48.017-20.307-68.563-4.925l-10.684-10.682c11.922-9.561 26.62-14.765 42.124-14.765 18.03 0 34.979 7.021 47.728 19.768s19.77 29.696 19.77 47.723c0 15.503-5.205 30.199-14.767 42.121zm-16.588-3.868c-3.963-12.259-10.781-23.499-20.155-32.872-9.545-9.544-20.873-16.233-32.916-20.113 14.409-15.574 39.128-16.166 54.128-1.098 15.051 14.983 14.485 39.669-1.057 54.083zm-41.367-11.662c-9.916-9.915-23.099-15.375-37.121-15.375-11.492 0-22.418 3.666-31.446 10.446l-10.678-10.677c26.477-21.181 65.329-19.521 89.85 5 24.153 23.211 26.345 64.193 5.004 89.845l-10.684-10.683c15.385-20.545 13.743-49.889-4.925-68.556zm-79.795 5.055c-18.277 24.585-56.83 26.474-78.495 4.811-6.451-6.45-15.376-23.097-15.376-37.119-1.011-37.86 42.177-64.535 75.218-47.366-10.525 5.773-20.258 13.026-28.827 21.593l-5.303 5.303zm56.923-49.135c-23.26-4.048-47.922 1.887-67.029 17.819l-21.294-21.292c16.469-14.467 36.388-23.606 58.166-26.68zm70.429 155.264-21.288-21.286c15.433-18.246 22.098-43.287 17.873-66.971l30.098 30.096c-3.074 21.777-12.213 41.692-26.683 58.161zm53.027-53.03-21.284-21.282c12.363-14.794 19.106-33.266 19.106-52.78 0-22.034-8.582-42.748-24.163-58.328s-36.298-24.161-58.334-24.161c-19.515 0-37.989 6.742-52.784 19.104l-21.284-21.282c44.138-38.654 111.536-36.948 153.615 5.128 42.077 42.076 43.785 109.467 5.128 153.601z"/></g><g><path d="m166.822 280.063c-5.723-2.589-10.734-6.598-14.491-11.591l11.985-9.02c2.248 2.988 5.253 5.389 8.689 6.944zm-21.644-28.699c-.922-6.206-.262-12.575 1.927-18.464l14.066 5.212c-1.314 3.532-1.706 7.338-1.155 11.057z"/></g></g><g/><g/><g/><g/><g/><g/><g/><g/><g/><g/><g/><g/><g/><g/><g/></svg>