<svg id="Layer_1" enable-background="new 0 0 512 512" viewBox="0 0 512 512" xmlns="http://www.w3.org/2000/svg"><g><g><g><g><g><path d="m149 186.887-87.851-87.851c-5.858-5.858-15.355-5.858-21.213 0s-5.858 15.355 0 21.213l92.384 92.384z" fill="#e3edf6"/></g></g><g><g><path d="m91.395 387.366h329.605v29.991h-329.605z" fill="#8ad8f6"/></g></g><g><g><path d="m244.641 205.671c-9.925-16.68-21.202-30.436-30.527-40.198-7.422 7.755-15.844 17.666-24.073 29.897l7.045 39.77 45.273.235c6.526-7.952 8.301-19.621 2.282-29.704z" fill="#f05475"/></g></g><g><g><path d="m246.912 210.531c-1.27 2.225-2.848 4.28-4.722 6.063h-39.998s-2.238-17.481-10.329-24.169c-1.48 2.122-2.907 4.297-4.263 6.504l-.004-.006c-2.637 4.317-5.002 8.766-6.917 13.434l16.406 25.233 43.105.137c7.082-6.74 10.168-17.304 6.722-27.196z" fill="#e21743"/></g></g><g><g><path d="m196.573 205.671c-9.925-16.68-21.202-30.436-30.527-40.198-9.679 10.696-25.918 28.336-33.452 46.885l16.406 25.233 43.105.137c8.26-7.862 11.113-20.926 4.468-32.057z" fill="#f05475"/></g></g><g><g><path d="m458.787 208.094c-14.226 0-26.111 10.024-28.978 23.394l28.978 35.879c16.368 0 29.636-13.269 29.636-29.636s-13.268-29.637-29.636-29.637z" fill="#b071d2"/></g></g><g><g><path d="m198.827 210.531c-1.27 2.225-2.848 4.28-4.722 6.063h-30.059c-5.271-9.319-12.177-17.481-20.268-24.169-1.48 2.122-2.907 4.297-4.263 6.504l-.004-.006c-2.637 4.317-5.002 8.766-6.917 13.434l16.406 25.234 43.105.137c7.082-6.741 10.168-17.305 6.722-27.197z" fill="#e21743"/></g></g><g><g><path d="m88.444 194.956c-35.509 0-64.296 28.786-64.296 64.295v8.115h88.406l36.446-29.775c-8.891-24.853-32.647-42.635-60.556-42.635z" fill="#c3f839"/></g></g><g><g><path d="m443.097 212.584c-6.684 4.179-11.582 10.948-13.288 18.903l28.978 35.879c5.138 0 9.97-1.309 14.183-3.61.1-1.318.166-2.639.166-3.965 0-20.851-12.309-38.874-30.039-47.207z" fill="#923ec3"/></g></g><g><g><path d="m421 230.156c-16.368 0-29.636 13.269-29.636 29.636 0 2.046.207 5.646.602 7.576h57.693c.637-2.418.977-4.957.977-7.576 0-16.368-13.268-29.636-29.636-29.636z" fill="#923ec3"/></g></g><g><g><path d="m47.427 245.068c5.447-25.544 26.058-44.746 51.967-49.173-33.88-6.219-67.277 17.15-73.823 49.895-1.588 6.674-1.47 14.704-1.423 21.577h88.406v-22.298h-65.127z" fill="#abe700"/></g></g><g><g><path d="m88.444 235.14c-13.316 0-24.111 10.795-24.111 24.111v8.115h48.222v-8.115c0-13.316-10.795-24.111-24.111-24.111z" fill="#fee95d"/></g></g><g><g><path d="m326.246 209.604c-32.905-.548-63.324 9.989-87.78 28.115h-84.577c-19.836 0-36.855 10.857-44.125 28.045h282.203l13.3-30.635c-22.548-15.66-49.749-25.037-79.021-25.525z" fill="#fef2e2"/></g></g><g><g><path d="m391.966 245.068h-264.478c-7.817 4.871-14.031 11.964-17.725 20.697h282.203l13.3-30.635c-2.286-1.588-4.632-3.093-7.01-4.548z" fill="#ffe1ba"/></g></g><g><g><path d="m420.605 387.366h-329.21c-46.334 0-83.895-37.561-83.895-83.895v-36.105h497v36.105c0 46.334-37.561 83.895-83.895 83.895z" fill="#8ad8f6"/></g></g><g><g><path d="m463.269 364.664h-369.134c-35.309 0-63.933-28.624-63.933-63.933v-33.365h-22.702v36.105c0 46.334 37.561 83.895 83.895 83.895h329.211c23.396 0 44.546-9.586 59.762-25.033-5.445 1.508-11.174 2.331-17.099 2.331z" fill="#54c9f3"/></g></g><g><g><path d="m46 289.781h14.83v15h-14.83z" fill="#fff"/></g></g><g><g><path d="m76 289.781h45v15h-45z" fill="#fff"/></g></g><g><g><path d="m386.246 149.604h-21.117c-21.474 0-38.883 17.409-38.883 38.883v21.117h21.117c21.474 0 38.883-17.408 38.883-38.883z" fill="#54e072"/></g></g><g><g><path d="m369.955 187.012h-21.117v-21.117c0-4.851.896-9.49 2.518-13.772-14.675 5.561-25.111 19.741-25.111 36.365v21.117h21.117c16.624 0 30.804-10.436 36.365-25.111-4.282 1.622-8.921 2.518-13.772 2.518z" fill="#00ca0f"/></g></g><g><g><path d="m266.246 149.604h21.117c21.474 0 38.883 17.409 38.883 38.883v21.117h-21.117c-21.474 0-38.883-17.408-38.883-38.883z" fill="#54e072"/></g></g><g><g><path d="m305.978 186.945c-9.981 0-18.073-8.092-18.073-18.073v-19.254c-.181-.002-.361-.014-.543-.014h-21.117v21.117c0 21.475 17.409 38.883 38.883 38.883h21.117v-21.117c0-.518-.019-1.03-.039-1.543h-20.228z" fill="#00ca0f"/></g></g></g></g><g><path d="m488.585 259.928c4.607-6.186 7.338-13.848 7.338-22.136 0-20.477-16.659-37.136-37.136-37.136-14.875 0-28.188 9.019-34.015 22.252-6.656-.709-13.663.542-19.46 3.297-10.492-6.781-21.689-12.169-33.354-16.124 13.073-8.212 21.788-22.752 21.788-39.298v-28.617h-28.617c-16.271 0-30.602 8.428-38.883 21.142-8.281-12.713-22.612-21.142-38.883-21.142h-28.617v28.617c0 15.798 7.945 29.769 20.042 38.148-7.886 2.458-15.558 5.578-22.965 9.332-.064-17.856-24.346-44.514-36.277-57.899l-10.851-.015c-6.66 6.959-12.905 14.372-18.658 22.117-5.732-7.733-11.924-15.132-18.558-22.102l-10.851-.015c-4.512 4.714-8.823 9.622-12.922 14.699l-39.453-39.453-10.606 10.606 40.949 40.949c-2.944 4.178-5.75 8.448-8.407 12.806l-84.95-84.949c-6.852-7.103 3.533-17.458 10.607-10.607l30.048 30.048 10.606-10.605-30.048-30.049c-21.539-20.431-52.243 10.303-31.82 31.82l62.427 62.427c-2.835-.344-5.711-.524-8.615-.524-39.806-.02-72.147 32.612-71.796 72.411h-16.648v43.605c0 47.87 36.995 87.258 83.895 91.085v30.3h277.105v-15h-262.105v-14.991h314.605v14.991h-37.5v15h52.5v-30.335c46.712-4.016 83.5-43.315 83.5-91.05v-43.605zm-29.798-44.273c12.206 0 22.136 9.93 22.136 22.136.021 12.447-10.361 22.492-22.789 22.136 0-.025.002-.05.002-.075 0-13.867-7.645-25.975-18.937-32.352 3.761-7.104 11.261-11.845 19.588-11.845zm-15.651 44.198c0 .025-.002.05-.002.075h-44.266c0-.025-.004-.05-.004-.075 0-12.206 9.93-22.136 22.136-22.136s22.136 9.93 22.136 22.136zm-338.081.075c-.072.135-33.222 0-33.222 0-.33-9.368 7.222-17.246 16.611-17.226 9.389-.02 16.941 7.858 16.611 17.226zm48.833-14.647h87.054c24.359-18.735 54.335-28.711 85.206-28.116 23.508.396 46.283 6.866 66.448 18.8-5.444 6.462-8.733 14.797-8.733 23.888 0 .025.002.05.002.075h-261.112c7.546-9.135 18.866-14.647 31.135-14.647zm211.24-88.116h13.617v13.617c0 17.305-14.078 31.383-31.383 31.383h-13.617v-13.617c.001-17.304 14.079-31.383 31.383-31.383zm-91.382 0h13.617c17.305 0 31.383 14.079 31.383 31.383v13.617h-13.617c-17.305 0-31.383-14.078-31.383-31.383zm-59.646 19.446c9.034 10.214 17.122 21.272 24.101 32.965 3.679 6.167 3.868 16.084-2.178 20.705h-30.256c3.322-9.16 2.533-19.536-2.749-28.384-1.271-2.13-2.584-4.253-3.922-6.34 4.644-6.57 9.65-12.92 15.004-18.946zm-48.068 0c9.036 10.216 17.124 21.275 24.101 32.965 4.505 7.546 2.638 15.53-1.339 20.705h-34.676c-3.226-7.291-7.603-13.873-12.864-19.572 7.037-12.167 15.456-23.555 24.778-34.098zm-27.728 55.371c-6.326 1.42-15.891 7.49-21.802 12.798-5.271-10.136-15.866-17.079-28.058-17.079-17.668-.039-31.973 14.685-31.611 32.226h-25.185c-.376-31.435 25.248-57.454 56.796-57.411 20.688.065 40.457 11.36 49.86 29.466zm358.696 71.551c0 42.125-34.271 76.395-76.395 76.395h-329.21c-42.124 0-76.395-34.271-76.395-76.395v-28.605h482z"/></g></g><g/><g/><g/><g/><g/><g/><g/><g/><g/><g/><g/><g/><g/><g/><g/></svg>