<svg id="Layer_1" enable-background="new 0 0 512 512" viewBox="0 0 512 512" xmlns="http://www.w3.org/2000/svg"><g><g><g><g><g><path d="m7.5 301.999v81.105c0 14.228 3.542 27.629 9.792 39.369l383.708 7.697 93.973-8.198c6.085-11.619 9.527-24.842 9.527-38.867v-81.105h-497z" fill="#8ad8f6"/></g></g><g><g><path d="m370.702 103.566c-27.576 0-51.676 14.882-64.706 37.053l26.283 14.51c7.905-12.933 22.156-21.564 38.423-21.564 24.853 0 45 20.147 45 45 0 17.548-10.044 32.749-24.696 40.17l-.75 46.206 34.736-34.63c12.832-13.459 20.71-31.682 20.71-51.745 0-41.421-33.578-75-75-75z" fill="#fef2e2"/></g></g><g><g><path d="m349.964 138.642c-7.642-8.149-17.265-14.127-27.502-17.495-6.531 5.493-12.118 12.073-16.466 19.472l26.283 14.51c4.268-6.983 10.398-12.693 17.685-16.487z" fill="#ffe1ba"/></g></g><g><g><path d="m341.406 202.968c7.658-16.316 4.75-36.36-8.729-49.84-13.48-13.48-33.524-16.387-49.84-8.729-14.388-11.105-35.125-10.072-48.318 3.122-3.906 3.906-6.747 8.474-8.522 13.342l68.791 111.122 53.617-53.36c-1.036-5.574-3.369-10.955-6.999-15.657z" fill="#54e072"/></g></g><g><g><path d="m111.735 237.607-53.033-53.033c-31.801 31.801-42.022 76.253-30.663 116.673h83.696c-17.574-17.574-17.574-46.066 0-63.64z" fill="#b071d2"/></g></g><g><g><path d="m100.004 280.74h-54.244c-2.977-29.643 5.168-59.925 24.423-84.685l-11.481-11.481c-31.431 31.517-42.124 75.429-30.663 116.673h83.696c-5.884-5.884-9.787-12.995-11.731-20.507z" fill="#923ec3"/></g></g><g><g><path d="m271.089 173.572c-7.087-12.996-17.384-23.773-29.65-31.483-2.463 1.496-4.791 3.303-6.92 5.432-3.906 3.906-6.747 8.474-8.522 13.342l68.791 111.122 28.64-28.503c-.681-32.412-22.217-60.382-52.339-69.91z" fill="#00ca0f"/></g></g><g><g><path d="m255.243 193.028c-8.758-24.249-31.973-41.583-59.243-41.583s-50.485 17.334-59.243 41.583c-17.855 2.299-32.902 13.563-40.469 29.135l15.447 15.444c-2.064 2.079-13.547 14.047-13.158 32.76.365 17.511 10.867 28.574 13.158 30.879 49.422.251 98.844.502 148.266.754l37.061-37.059c2.513-6.132 3.898-12.845 3.898-19.882 0-26.691-19.93-48.711-45.717-52.031z" fill="#c3f839"/></g></g><g><g><path d="m260.001 302 22.501-22.5h-159.124c-9.072-19.928 10.164-30.634 20.123-41.951l-21.545-21.541c5.512-7.992 16.724-14.556 24.391-15.543l13.624-1.754c2.562-17.222 16.194-40.436 35.03-39.645 10.251-.014 20.192-.213 31.433.21-32.357-19.179-78.4-1.269-89.676 33.751-17.855 2.299-32.902 13.563-40.469 29.135l15.447 15.444c-16.84 15.967-17.7 46.775 0 63.64 49.421.252 98.843.503 148.265.754z" fill="#abe700"/></g></g><g><g><path d="m466.246 188.952-113.049 113.048 105.004.005c2.804-2.107 5.493-4.436 8.045-6.988 29.29-29.288 29.29-76.776 0-106.065z" fill="#f05475"/></g></g><g><g><path d="m469.161 291.923c3.364-3.748 6.313-7.843 8.864-12.178l-68.138-.003c5.584-13.341 8.076-27.679 7.479-41.91l-64.169 64.168 43.628.002 61.376.003c3.907-2.928 7.668-6.381 10.96-10.082z" fill="#e21743"/></g></g><g><g><path d="m434.426 220.771-42.426 42.427c11.716 11.716 30.711 11.716 42.427 0 11.715-11.716 11.715-30.711-.001-42.427z" fill="#fcad42"/></g></g><g><g><path d="m409.004 202.191c-4.35 7.038-10.582 12.789-17.998 16.545l-.75 46.206 27.118-27.035c-.507-12.219-3.304-24.353-8.37-35.716z" fill="#ffe1ba"/></g></g><g><g><path d="m373.05 188.952-113.049 113.048 105.004.005c2.804-2.107 5.493-4.436 8.045-6.988 29.289-29.288 29.289-76.776 0-106.065z" fill="#f05475"/></g></g><g><g><path d="m282.261 279.74-22.26 22.26 105.004.005c2.804-2.107 5.493-4.436 8.045-6.988 4.676-4.675 8.596-9.818 11.779-15.273z" fill="#e21743"/></g></g><g><g><path d="m17.292 422.473c14.103 26.491 41.997 44.526 74.103 44.526h329.21c32.308 0 60.35-18.262 74.368-45.027z" fill="#fef2e2"/></g></g><g><g><path d="m90.522 444.567c-21.892 0-34.497-8.39-44.773-22.123l-28.457.03c14.103 26.491 41.997 44.526 74.103 44.526h329.21c22.056 0 42.119-8.515 57.094-22.432h-387.177z" fill="#ffe1ba"/></g></g><g><g><path d="m30.458 383.104v-81.105h-22.958v81.105c0 14.228 3.542 27.629 9.792 39.369l22.945-.024c-6.242-11.734-9.779-25.126-9.779-39.345z" fill="#54c9f3"/></g></g><g><g><path d="m46 324.627h14.83v15h-14.83z" fill="#fff"/></g></g><g><g><path d="m76 324.627h45v15h-45z" fill="#fff"/></g></g><g><g><path d="m341.23 220.771-42.427 42.426c11.716 11.716 30.711 11.716 42.427 0 11.715-11.715 11.715-30.71 0-42.426z" fill="#fcad42"/></g></g><g><g><path d="m85.988 157.013h8.531c17.393 0 31.494-14.1 31.494-31.494v-8.531h-8.531c-17.393 0-31.494 14.1-31.494 31.494z" fill="#aa4b30"/></g></g><g><g><circle cx="166" cy="92.001" fill="#fee95d" r="15"/></g></g><g><g><path d="m61 53.214h30v30h-30z" fill="#8d3d27" transform="matrix(-.707 .707 -.707 -.707 177.975 62.708)"/></g></g></g></g><g><path d="m476.841 295.053c12.218-14.75 18.872-33.119 18.872-52.515.248-24.718-11.231-47.311-29.467-63.64l-14.256 14.256c.788-4.599 1.212-9.288 1.212-14.035 0-45.491-37.009-82.5-82.5-82.5-27.513 0-53.364 13.938-68.597 36.669l-.002.027c-6.181-.076-12.409.95-18.37 3.142-19.811-12.643-47.825-6.507-60.471 13.69-33.194-13.497-75.547-1.282-91.91 36.737-14.824 3.045-27.811 11.538-36.555 23.733l-36.096-36.096c-33.458 30.446-49.177 76.374-40.157 120.532h-18.544v52.501h15v-37.501h482v73.605c0 11.386-2.522 22.188-7.008 31.905h-83.992v15h74.839c-13.993 17.928-35.782 29.49-60.234 29.49h-329.21c-24.452 0-46.241-11.561-60.234-29.49h359.839v-15h-368.992c-4.486-9.717-7.008-20.519-7.008-31.905v-21.104h-15v21.104c0 50.396 41 91.395 91.395 91.395h329.211c50.395 0 91.395-41 91.395-91.395v-88.605zm-442.96 0c-8.001-35.149 1.339-72.087 24.998-99.142l21.286 21.287c-18.063 21.688-23.728 51.145-15.214 77.855zm63.553 0h-16.561c-9.031-22.575-5.151-48.3 9.95-67.198l10.684 10.684c-12.374 16.524-13.725 38.737-4.073 56.514zm273.268-183.434c37.22 0 67.5 30.28 67.5 67.5 0 16.883-6.23 32.924-17.55 45.373l-18.138 18.138c0-.031.002-.061.002-.092 0-6.803-.823-13.478-2.412-19.917 14.39-9.695 23.098-25.827 23.098-43.501 0-28.949-23.551-52.5-52.5-52.5-14.885 0-28.647 6.157-38.473 16.806-4.19-3.101-8.788-5.506-13.611-7.195 12.719-15.379 31.846-24.612 52.084-24.612zm32.833 151.204 29.97-29.97c4.105 8.276 2.348 19.066-4.382 25.595-6.911 6.911-17.228 8.353-25.588 4.375zm-63.227-29.97c4.105 8.276 2.348 19.066-4.382 25.595-6.528 6.73-17.32 8.487-25.595 4.382zm2.535-78.848c7.042-7.851 17.044-12.385 27.859-12.385 20.678 0 37.5 16.822 37.5 37.5 0 11.262-4.961 21.637-13.327 28.667-4.844-10.912-13.02-20.601-21.826-28.887l-22.841 22.841c5.6-16.136 2.791-34.1-7.365-47.736zm-15.469 4.98c12.243 12.032 13.72 30.872 5.298 45.495 2.028 2.618 4.638 5.792 5.978 8.818l-30.236 30.236c-.956-27.655-20.885-51.106-47.766-56.648-5.553-12.772-14.042-22.627-24.118-29.583 10.382-15.299 32.438-16.214 45.348-3.616 14.554-8.375 33.416-6.982 45.496 5.298zm-123.874 136.068v-19.408l27.793-27.793-10.606-10.606-17.187 17.186v-41.878h-15v41.878l-17.189-17.189-10.606 10.606 27.795 27.795v19.408h-72.83c-15.703-17.617-11.179-42.479 6.672-56.892l-16.739-16.739c7.879-12.68 21.841-20.032 36.654-20.987 6.902-23.827 28.699-41.075 53.744-40.938 25.044-.139 46.848 17.127 53.744 40.938 24.004 1.167 43.861 20.773 43.715 45.177 0 5.419-.959 10.693-2.829 15.705l-33.736 33.736h-53.395zm158.932 0h-84.324l21.225-21.225c14.268 9.781 35.129 7.747 47.2-4.774 12.521-12.07 14.554-32.934 4.774-47.2l21.453-21.453c23.098 27.622 18.259 72.571-10.328 94.652zm93.178 0h-71.965c4.918-5.937 8.917-12.466 11.96-19.407 14.395 7.611 32.287 5.225 44.125-6.592 12.521-12.07 14.555-32.934 4.774-47.2l21.453-21.453c23.093 27.622 18.269 72.597-10.347 94.652z"/><path d="m78.488 149.035v16.031h16.031c21.501 0 38.994-17.493 38.994-38.994v-16.031h-16.031c-21.502.001-38.994 17.493-38.994 38.994zm40.024-23.993c.594 13.973-11.218 25.825-25.024 25.025-2.318-14.588 11.446-25.571 25.024-25.025z"/><path d="m166 115.054c12.407 0 22.5-10.093 22.5-22.5s-10.093-22.5-22.5-22.5-22.5 10.093-22.5 22.5 10.093 22.5 22.5 22.5zm0-30c4.136 0 7.5 3.364 7.5 7.5s-3.364 7.5-7.5 7.5-7.5-3.364-7.5-7.5 3.364-7.5 7.5-7.5z"/><path d="m107.82 68.767-31.82-31.82-31.82 31.82 31.82 31.82zm-31.82-10.607 10.607 10.607-10.607 10.607-10.607-10.607z"/></g></g><g/><g/><g/><g/><g/><g/><g/><g/><g/><g/><g/><g/><g/><g/><g/></svg>