<svg id="Layer_1" enable-background="new 0 0 512 512" viewBox="0 0 512 512" xmlns="http://www.w3.org/2000/svg"><g><g><g><g><g><path d="m7.5 283.719v51.104c0 46.333 37.561 83.895 83.895 83.895h329.21c46.334 0 83.895-37.561 83.895-83.895v-51.104l-121.086-12.735z" fill="#fcad42"/></g></g><g><g><path d="m215.792 146.965c-2.779-7.454-8.677-13.691-16.738-16.625-4.492-1.445-40.278-7.809-44.906-7.918-8.574 0-16.247 3.84-21.408 9.889-6.918-3.919-15.442-4.903-23.499-1.97-8.061 2.934-13.96 9.171-16.738 16.625-7.841-1.316-16.184.664-22.752 6.175-6.567 5.51-9.966 13.384-10.032 21.334-7.823 1.442-14.99 6.168-19.279 13.597-4.287 7.426-4.798 15.99-2.14 23.484-6.853 4.032-11.967 10.921-13.456 19.365s.96 16.667 6.021 22.8h207.129l.548-100.58c-6.565-5.512-14.909-7.492-22.75-6.176z" fill="#fff"/></g></g><g><g><path d="m46.193 231.587c1.267-8.663 6.534-15.918 13.555-20.033-6.131-15.395 5.023-34.7 21.418-37.081.056-8.117 3.669-16.279 10.509-21.712-.504-2.03-.973-4.072-1.538-6.083-15.559-1.87-30.873 12.203-30.417 27.795-16.399 2.381-27.548 21.689-21.418 37.081-5.086 2.993-9.211 7.562-11.61 13.169-4.255 9.575-2.301 21.414 4.175 28.995h207.129v-22.132h-191.803z" fill="#e3edf6"/></g></g><g><g><path d="m473.962 154.431c7.074-15.074 4.389-33.593-8.065-46.046-12.454-12.454-30.972-15.139-46.046-8.065-13.292-10.26-32.451-9.305-44.64 2.884-5.79 5.79-9.046 13.153-9.77 20.713l55.028 54.577-25.219 24.974 55.75 5.306c7.336-.842 14.45-4.076 20.078-9.703 12.189-12.189 13.144-31.347 2.884-44.64z" fill="#54e072"/></g></g><g><g><path d="m346 104.473-49.373 49.372v70.881l104.727-27.115 18.892-18.892z" fill="#57758d"/></g></g><g><g><path d="m381.864 171.219c-10.666 0-20.847 2.093-30.171 5.872l-39.156-39.156-15.91 15.91v70.88l104.727-27.114 18.374-18.374c-11.882-5.25-24.879-8.018-37.864-8.018z" fill="#4b6276"/></g></g><g><g><path d="m317.09 174.308-53.033-53.033c-21.374 21.374-32.999 48.805-34.876 76.768l74.803 10.677c-.709-12.365 3.66-24.966 13.106-34.412z" fill="#c3f839"/></g></g><g><g><path d="m303.984 208.72c-.448-7.823 1.142-15.738 4.758-22.891-5.443-.686-10.777-2.282-15.68-4.734-12.921-6.46-27.387-9.875-41.833-9.875-6.092 0-12.02.701-17.73 1.986-2.312 8.133-3.756 16.461-4.318 24.838z" fill="#abe700"/></g></g><g><g><path d="m314.771 208.719c-11.029 0-21.906-2.568-31.771-7.5s-20.742-7.5-31.771-7.5c-32.159 0-58.229 26.07-58.229 58.229v1.771h130.489l19.22-45z" fill="#f05475"/></g></g><g><g><path d="m334.615 208.719-10.126 23.709h-107.596c6.974-19.589 24.134-34.344 45.114-37.882-36.205-6.902-70.681 23.1-69.007 59.172h130.489l19.22-45h-8.094z" fill="#e21743"/></g></g><g><g><path d="m459.566 186.219-83.669-83.669c-6.162 5.77-9.72 13.541-10.456 21.368l55.028 54.577-25.219 24.974 55.75 5.306c12.218-1.077 24.332-10.665 28.133-22.555h-19.567z" fill="#00ca0f"/></g></g><g><g><path d="m445.405 208.719c-11.029 0-21.906-2.568-31.771-7.5s-20.742-7.5-31.771-7.5c-32.159 0-58.229 26.07-58.229 58.229v1.771h164.854v-45z" fill="#f88fa4"/></g></g><g><g><path d="m349.178 232.429c6.974-19.589 24.134-34.344 45.114-37.882-36.205-6.902-70.681 23.1-69.008 59.172h163.204v-21.291z" fill="#f05475"/></g></g><g><g><path d="m7.5 253.718h497v30.001h-497z" fill="#fef2e2"/></g></g><g><g><path d="m7.5 253.718h21.958v30.001h-21.958z" fill="#ffe1ba"/></g></g><g><g><path d="m462.539 395.872h-369.388c-35.239 0-63.806-28.567-63.806-63.806v-48.347h-21.845v51.104c0 46.333 37.561 83.895 83.895 83.895h329.21c23.638 0 44.978-9.791 60.227-25.521-5.796 1.732-11.933 2.675-18.293 2.675z" fill="#f69500"/></g></g><g><g><path d="m46 306.219h14.83v15h-14.83z" fill="#fff"/></g></g><g><g><path d="m76 306.219h45v15h-45z" fill="#fff"/></g></g><g><g><path d="m99.383 249.326c-5.858 5.858-15.355 5.858-21.213 0l-5.491-5.491c-5.858-5.858-5.858-15.355 0-21.213 5.858-5.858 15.355-5.858 21.213 0l5.491 5.491c5.858 5.857 5.858 15.355 0 21.213z" fill="#abe700"/></g></g><g><g><path d="m135.036 210.963c-5.858-5.858-5.858-15.355 0-21.213l5.491-5.491c5.858-5.858 15.355-5.858 21.213 0 5.858 5.858 5.858 15.355 0 21.213l-5.491 5.491c-5.858 5.858-15.355 5.858-21.213 0z" fill="#abe700"/></g></g><g><g><path d="m188.745 141.569c-5.858 5.858-15.355 5.858-21.213 0l-5.491-5.491c-5.858-5.858-5.858-15.355 0-21.213 5.858-5.858 15.355-5.858 21.213 0l5.491 5.491c5.858 5.858 5.858 15.355 0 21.213z" fill="#abe700"/></g></g></g></g><g><path d="m495.989 246.229v-44.999h-17.002c10.481-13.228 13.299-32.61 3.454-47.68 14.231-37.48-24.199-75.931-61.697-61.698-20.558-13.444-49.056-3.285-59.131 17.638l-15.613-15.612-49.373 49.372-32.57-32.57c-10.173 9.701-19.535 20.691-26.249 32.905-5.328-2.969-11.335-4.524-17.457-4.501-4.551-8.024-12.31-14.084-21.27-16.593-1.515-4.678-7.074-9.385-10.524-12.918-12.895-12.239-29.086-6.118-35.608 5.384-7.959.279-15.751 3.241-21.791 8.392-15.706-6.131-35.128.938-43.213 15.736-16.859-.39-32.663 12.868-35.206 29.542-15.976 5.392-26.313 23.291-23.001 39.824-11.142 8.892-15.203 24.452-11.285 37.78h-18.453v60.786h15v-15.787h361v-15h-361v-15.001h482v15.001h-106v15h106v30h-211v15h210.965c-.75 41.48-34.703 74.999-76.359 74.999h-329.211c-16.991 0-32.699-5.581-45.401-14.999h150.006v-15h-165.24c-9.873-12.873-15.76-28.956-15.76-46.396v-12.819h-15v12.819c0 50.395 41 91.395 91.395 91.395h329.21c50.396 0 91.395-41 91.395-91.395v-88.605zm-15 0h-48.406c-5.429-9.323-5.609-21.692-.481-31.123 6.279 1.179 13.357 1.182 19.752 1.125l.001.006c.018-.001.034-.005.052-.006h29.083v29.998zm-178.895 0c-5.23-7.976-5.557-22.835-.481-31.123 7.332 1.449 17.465 1.099 24.979 1.125-5.713 8.784-9.383 19.005-10.337 29.999h-14.161zm-51.669-44.978c-10.571 11.19-18.5 28.851-19.625 44.978h-29.968c2.828-25.021 23.923-44.575 49.593-44.978zm56.44-26.55c-5.26 7.039-8.653 15.292-9.904 23.964-4.985-1.348-9.579-3.68-14.239-5.836 2.105-10.615 6.684-20.396 13.451-28.82zm-19.954 36.408c-4.54 8.661-5.421 25.505-1.24 35.12h-39.795c1.274-16.616 12.215-34.056 23.648-42.296 6.093 1.662 11.501 4.983 17.387 7.176zm94.002-9.858c-4.638 5.105-9.195 11.485-12.825 19.328-3.715 8.023-6.018 16.769-6.799 25.65h-29.967c2.827-25.021 23.922-44.575 49.591-44.978zm36.487 9.858c-4.828 10.445-5.384 24.231-1.24 35.12h-39.796c1.265-16.668 12.306-34.142 23.648-42.296 6.094 1.662 11.502 4.983 17.388 7.176zm1.494-102.043c31.115-18.028 64.367 15.198 46.334 46.335 15.555 15.903 7.82 42.541-14.438 45.83-12.089.517-24.403-1.57-35.148-7.288l15.212-15.212-57.382-57.382c4.616-20.501 29.971-27.383 45.422-12.283zm-72.894 6.025 63.64 63.64-9.665 9.665c-20.62-5.371-44.318-.651-60.006 12.835-1.547-.025-27.632.075-28.209-.089 1.12-10.807 8.037-19.726 15.936-26.823l-20.462-20.462zm-81.767 16.979 21.277 21.276c-8.476 10.128-14.28 21.948-17.116 34.802-5.632-1.262-11.399-1.918-17.165-1.918-4.541 0-8.976.464-13.26 1.345 3.432-20.549 12.5-39.775 26.264-55.505zm-91.587-14.088c4.188-.428 8.059 5.316 10.795 7.688 2.91 2.792 2.909 7.815 0 10.606-6.661 5.894-11.598-1.015-16.098-5.491-4.744-4.414-1.17-13.034 5.303-12.803zm-125.207 96.909c-3.162-7.538-5.041-15.629-.502-23.06 4.277-7.731 12.007-10.013 20.231-11.093-.377-8.216.58-16.364 7.404-21.842 6.524-5.754 14.815-5.302 22.796-3.5 2.485-7.902 6.088-15.133 14.438-17.997 8.113-3.18 15.737.073 22.622 4.498 4.396-5.827 9.424-10.481 16.103-11.677.852 3.793 2.825 7.608 6.206 11.171 5.997 6.465 12.208 12.326 21.401 12.071 10.149.265 17.902-6.488 20.988-14.94 6.342 3.334 9.578 9.645 11.802 16.875 6.991-1.58 14.234-2.121 20.311 1.651-4.767 11.423-7.872 23.549-9.153 36.019-20.036 9.956-34.295 29.83-36.321 53.162h-75.982c2.808-7.744 1.702-16.902-5.097-23.409 0 0-5.491-5.491-5.491-5.491-20.569-19.523-49.53 7.663-34.241 28.899h-30.191c-7.178-12.054-.179-25.963 12.676-31.337zm40.574 31.338c-3.798-.596-7.013-4.686-10.031-7.687-4.744-4.415-1.17-13.035 5.303-12.804 4.187-.428 8.059 5.316 10.794 7.688 5.086 4.781.561 13.717-6.066 12.803z"/><path d="m145.643 222.868c9.284.277 15.515-5.764 21.401-12.082 14.168-13.619 3.71-38.823-15.91-38.409-9.287-.275-15.51 5.759-21.401 12.081-8.773 8.773-8.773 23.047 0 31.82 4.249 4.249 9.9 6.59 15.91 6.59zm-5.304-27.804c2.707-2.372 6.633-8.121 10.795-7.688 6.485-.197 10.043 8.343 5.303 12.803-4.502 4.475-9.43 11.386-16.097 5.492-2.91-2.791-2.91-7.815-.001-10.607z"/></g></g><g/><g/><g/><g/><g/><g/><g/><g/><g/><g/><g/><g/><g/><g/><g/></svg>