<svg id="Layer_1" enable-background="new 0 0 512 512" viewBox="0 0 512 512" xmlns="http://www.w3.org/2000/svg"><g><g><g><g><g><path d="m492.768 180.326c-34.946-111.707-149.713-186.782-267.997-170.877 49.046 69.119-19.734 163.348-100.881 137.4-19.499 32.564-68.586 44.564-101.252 23.604-37.712 98.154-2.828 218.087 79.319 280.555 192.454 150.334 463.73-37.356 390.811-270.682z" fill="#ffdaaa"/></g></g><g><g><g><path d="m117.212 435.753c-78.19-57.045-104.171-166.65-74.115-256.763-7.224-1.684-14.196-4.546-20.459-8.538-37.712 98.154-2.828 218.086 79.319 280.555 103.136 82.935 250.346 67.016 338.202-29.149-82.937 76.299-215.274 98.002-322.947 13.895z" fill="#ffb680"/></g></g></g><g><g><path d="m153.63 151.004-29.739-4.155-12.878 14.242c0 12.426 10.074 22.5 22.5 22.5s22.5-10.074 22.5-22.5c-.001-3.627-.859-7.053-2.383-10.087z" fill="#aa4b30"/></g></g><g><g><path d="m147.682 169.375c-12.374 0-22.412-9.99-22.496-22.345l-1.296-.181-12.878 14.242c0 12.426 10.074 22.5 22.5 22.5 9.942 0 18.372-6.451 21.348-15.393-2.255.76-4.667 1.177-7.178 1.177z" fill="#8d3d27"/></g></g><g><g><path d="m406 99.031h14.611c14.035 0 25.413-11.378 25.413-25.413v-14.612h-14.611c-14.035 0-25.413 11.378-25.413 25.414z" fill="#fef2e2"/></g></g><g><g><path d="m215.975 216.019h14.611c14.035 0 25.413-11.378 25.413-25.413v-14.611h-14.611c-14.035 0-25.413 11.378-25.413 25.413z" fill="#fef2e2"/></g></g><g><g><path d="m176.025 79.019v-14.612c0-14.035-11.378-25.413-25.413-25.413h-14.612v14.611c0 14.035 11.378 25.413 25.413 25.413h14.612z" fill="#ffe1ba"/></g></g><g><g><path d="m280.986 417.16h14.611c14.035 0 25.413-11.378 25.413-25.413v-14.611h-14.61c-14.035 0-25.413 11.378-25.413 25.413v14.611z" fill="#fef2e2"/></g></g><g><g><path d="m76 301.006v14.611c0 14.035 11.378 25.413 25.413 25.413h14.611v-14.61c0-14.035-11.378-25.413-25.413-25.413h-14.611z" fill="#fef2e2"/></g></g><g><g><path d="m61.934 410.982v14.611c0 14.035 11.378 25.413 25.413 25.413h14.611v-14.611c0-14.035-11.378-25.413-25.413-25.413z" fill="#fef2e2"/></g></g><g><g><path d="m370.988 280.993v14.611c0 14.035 11.378 25.413 25.413 25.413h14.611v-14.611c0-14.035-11.378-25.413-25.413-25.413z" fill="#fef2e2"/></g></g><g><g><circle cx="270.999" cy="292.571" fill="#aa4b30" r="22.5"/></g></g><g><g><path d="m286.484 299.585c-12.426 0-22.5-10.074-22.5-22.5 0-2.135.304-4.198.859-6.155-9.433 2.678-16.345 11.349-16.345 21.641 0 12.426 10.074 22.5 22.5 22.5 10.291 0 18.963-6.912 21.641-16.345-1.957.555-4.02.859-6.155.859z" fill="#8d3d27"/></g></g><g><g><circle cx="181" cy="397.148" fill="#aa4b30" r="22.5"/></g></g><g><g><path d="m196.486 404.162c-12.426 0-22.5-10.074-22.5-22.5 0-2.135.304-4.198.859-6.155-9.433 2.678-16.345 11.349-16.345 21.641 0 12.426 10.074 22.5 22.5 22.5 10.291 0 18.963-6.912 21.641-16.345-1.957.555-4.02.859-6.155.859z" fill="#8d3d27"/></g></g><g><g><circle cx="451" cy="406.006" fill="#aa4b30" r="22.5"/></g></g><g><g><path d="m466.486 413.021c-12.426 0-22.5-10.074-22.5-22.5 0-2.135.304-4.198.859-6.155-9.433 2.678-16.345 11.349-16.345 21.641 0 12.426 10.074 22.5 22.5 22.5 10.291 0 18.963-6.912 21.641-16.345-1.957.554-4.02.859-6.155.859z" fill="#8d3d27"/></g></g><g><g><circle cx="436" cy="206.091" fill="#aa4b30" r="22.5"/></g></g><g><g><path d="m451.486 213.106c-12.426 0-22.5-10.074-22.5-22.5 0-2.135.304-4.198.859-6.155-9.433 2.678-16.345 11.349-16.345 21.641 0 12.426 10.074 22.5 22.5 22.5 10.291 0 18.963-6.912 21.641-16.345-1.957.555-4.02.859-6.155.859z" fill="#8d3d27"/></g></g><g><g><circle cx="316" cy="106.006" fill="#aa4b30" r="22.5"/></g></g><g><g><path d="m331.486 113.021c-12.426 0-22.5-10.074-22.5-22.5 0-2.135.304-4.198.859-6.155-9.433 2.678-16.345 11.349-16.345 21.641 0 12.426 10.074 22.5 22.5 22.5 10.291 0 18.963-6.912 21.641-16.345-1.957.554-4.02.859-6.155.859z" fill="#8d3d27"/></g></g><g><g><path d="m46 76.506-15 30 15 15 35.946-7-5.946-32.574z" fill="#ffdaaa"/></g></g><g><g><path d="m46 76.506-15 30 15 15 35.946-7-5.946-32.574z" fill="#ffb680"/></g></g><g><g><circle cx="22.5" cy="22.994" fill="#8d3d27" r="15"/></g></g><g><g><path d="m32.619 287.029c-.701-5.092-1.235-10.283-1.587-15.429l14.965-1.023c.329 4.805.827 9.652 1.481 14.407zm12.881-30.928h-15v-.101c0-5.126.174-10.306.518-15.394l14.966 1.01c-.321 4.754-.484 9.593-.484 14.384z" fill="#fff"/></g></g></g></g><g><path d="m512 256c0-26.359-3.992-52.352-11.865-77.255l-14.303 4.521c7.411 23.439 11.168 47.911 11.168 72.734 0 43.393-11.584 85.661-33.551 122.722-3.795-1.739-8.009-2.716-12.449-2.716-16.542 0-30 13.458-30 30 0 7.201 2.552 13.815 6.796 18.992-45.143 45.843-107.322 72.002-171.796 72.002-53.624 0-104.209-17.167-146.541-49.668v-10.937c0-18.148-14.765-32.914-32.914-32.914h-11.152c-32.976-42.515-50.393-93.423-50.393-147.481 0-25.618 3.992-50.767 11.875-74.878 10.671 4.851 22.309 7.384 34.125 7.384v-15c-12.169 0-24.106-3.283-34.52-9.494l-10.883 3.858c-10.349 28.214-15.597 57.865-15.597 88.13 0 29.557 4.996 58.531 14.848 86.118 9.246 25.887 22.566 49.991 39.586 71.697v11.778c0 18.148 14.765 32.913 32.914 32.913h12.044c45.162 34.998 99.25 53.494 156.608 53.494 36.319 0 71.417-7.452 104.317-22.15 30.047-13.423 56.841-32.227 79.732-55.922 3.395 1.336 7.087 2.079 10.952 2.079 16.542 0 30-13.458 30-30.001 0-6.618-2.158-12.738-5.802-17.705 24.089-39.835 36.801-85.455 36.801-132.301zm-417.541 187.506h-7.111c-9.877 0-17.914-8.036-17.914-17.913v-7.111h7.111c9.877 0 17.914 8.036 17.914 17.914zm356.541-22.499c-8.271 0-15-6.729-15-15.001s6.729-15 15-15 15 6.729 15 15-6.729 15.001-15 15.001z"/><path d="m77.495 186.854c10.482-2.13 20.412-6.359 29.24-12.26 4.95 9.776 15.09 16.498 26.777 16.498 17.73.116 31.91-15.762 29.807-33.361 47.967-6.074 85.181-47.135 85.181-96.725 0-15.945-3.822-31.39-11.137-45.291 6.203-.476 12.438-.715 18.637-.715 53.7 0 106.011 18.048 148.186 50.949-3.586 5.271-5.686 11.63-5.686 18.471v22.111h22.111c7.204 0 13.869-2.333 19.295-6.273 17.372 20.479 31.092 43.471 40.806 68.464l13.981-5.434c-10.606-27.288-25.689-52.334-44.872-74.533 2.36-4.535 3.702-9.681 3.702-15.138v-22.109l-22.111-.002c-5.808 0-11.266 1.518-16.008 4.17-45.14-35.944-101.517-55.676-159.404-55.676-10.722 0-21.542.676-32.163 2.008l-5.21 11.743c9.73 13.895 14.873 30.234 14.873 47.255 0 45.49-37.009 82.5-82.5 82.5-8.481 0-16.843-1.281-24.854-3.809l-8.542 3.062c-9.836 15.114-25.544 25.829-43.097 29.396zm361.029-120.348v7.111c0 9.878-8.036 17.914-17.913 17.914h-7.111v-7.111c0-9.878 8.036-17.914 17.913-17.914zm-311.556 89.013c6.945 1.762 14.077 2.746 21.292 2.945 1.749 9.042-5.547 17.723-14.748 17.628-7.045 0-12.954-4.888-14.557-11.446 2.879-2.838 5.568-5.88 8.013-9.127z"/><path d="m263.5 190.605v-22.111h-22.111c-18.148 0-32.913 14.765-32.913 32.913v22.111h22.111c18.148.001 32.913-14.764 32.913-32.913zm-40.024 10.802c0-9.877 8.036-17.913 17.913-17.913h7.111v7.111c0 9.877-8.036 17.913-17.914 17.913h-7.111v-7.111z"/><path d="m161.414 86.519h22.111v-22.112c0-18.148-14.765-32.913-32.913-32.913h-22.112v22.111c0 18.149 14.765 32.914 32.914 32.914zm-17.914-40.025h7.111c9.877 0 17.913 8.036 17.913 17.913v7.111h-7.111c-9.877 0-17.914-8.036-17.914-17.913v-7.111z"/><path d="m328.511 391.746v-22.11h-22.111c-18.148 0-32.914 14.765-32.914 32.913v22.111h22.111c18.149 0 32.914-14.765 32.914-32.914zm-40.025 10.803c0-9.877 8.036-17.913 17.914-17.913h7.111v7.11c0 9.878-8.036 17.914-17.913 17.914h-7.111v-7.111z"/><path d="m90.611 293.506h-22.111v22.111c0 18.148 14.765 32.914 32.914 32.914h22.111v-22.111c-.001-18.149-14.765-32.914-32.914-32.914zm17.913 40.025h-7.111c-9.877 0-17.914-8.036-17.914-17.914v-7.111h7.111c9.877 0 17.913 8.036 17.913 17.914v7.111z"/><path d="m418.512 328.518v-22.111c0-18.148-14.765-32.913-32.913-32.913h-22.111v22.11c0 18.148 14.765 32.914 32.913 32.914zm-40.024-32.914v-7.11h7.111c9.877 0 17.913 8.036 17.913 17.913v7.111h-7.111c-9.878 0-17.913-8.037-17.913-17.914z"/><path d="m300.999 292.571c0-16.542-13.458-30-30-30s-30 13.458-30 30 13.458 30 30 30 30-13.458 30-30zm-45 0c0-8.271 6.729-15 15-15s15 6.729 15 15-6.729 15-15 15-15-6.728-15-15z"/><path d="m151 397.147c0 16.542 13.458 30 30 30s30-13.458 30-30-13.458-30-30-30-30 13.458-30 30zm30-15c8.271 0 15 6.729 15 15s-6.729 15-15 15-15-6.729-15-15 6.729-15 15-15z"/><path d="m466 206.092c0-16.542-13.458-30-30-30s-30 13.458-30 30 13.458 30 30 30 30-13.458 30-30zm-45 0c0-8.271 6.729-15 15-15s15 6.729 15 15-6.729 15-15 15-15-6.729-15-15z"/><path d="m316 136.007c16.542 0 30-13.458 30-30.001 0-16.542-13.458-30-30-30s-30 13.458-30 30c0 16.543 13.458 30.001 30 30.001zm0-45.001c8.271 0 15 6.729 15 15s-6.729 15.001-15 15.001-15-6.729-15-15.001 6.729-15 15-15z"/><path d="m24.292 103.151 1.405 8.658 15 15 6.737 2.058 35.946-7 5.944-8.708-5.946-32.574-6.043-6.033-30-5.426-8.043 4.025zm25.903-18.264 19.36 3.501 3.683 20.173-24.755 4.821-8.357-8.356z"/><path d="m22.5 45c12.407 0 22.5-10.094 22.5-22.5s-10.093-22.5-22.5-22.5-22.5 10.094-22.5 22.5 10.093 22.5 22.5 22.5zm0-30c4.136 0 7.5 3.364 7.5 7.5s-3.364 7.5-7.5 7.5-7.5-3.364-7.5-7.5 3.364-7.5 7.5-7.5z"/><path d="m331 192.899h15v21.213h-15z" transform="matrix(.707 -.707 .707 .707 -44.756 298.961)"/><path d="m278.5 36.642h15v21.213h-15z" transform="matrix(.707 -.707 .707 .707 50.357 216.072)"/><path d="m106 224.28h15v21.213h-15z" transform="matrix(.707 -.707 .707 .707 -132.851 149.065)"/><path d="m233.766 440.666h15v21.213h-15z" transform="matrix(.707 -.707 .707 .707 -248.433 302.776)"/><path d="m169.772 279.128h21.213v15h-21.213z" transform="matrix(.707 -.707 .707 .707 -149.845 211.499)"/><path d="m379.772 144.128h21.213v15h-21.213z" transform="matrix(.707 -.707 .707 .707 7.114 320.433)"/><path d="m364.772 369.128h21.213v15h-21.213z" transform="matrix(.707 -.707 .707 .707 -156.37 375.745)"/></g></g><g/><g/><g/><g/><g/><g/><g/><g/><g/><g/><g/><g/><g/><g/><g/></svg>