<svg id="Layer_1" enable-background="new 0 0 512 512" viewBox="0 0 512 512" xmlns="http://www.w3.org/2000/svg"><g><g><g><g><g><path d="m400.52 201.645-17.02-21.275v-22.404h-255v22.404l-17.02 21.275c-8.402 10.503-12.98 23.553-12.98 37.003v69.359h315v-69.359c0-13.451-4.578-26.501-12.98-37.003z" fill="#fff"/></g></g><g><g><path d="m133.438 209.645 17.722-21.275v-30.404h-22.66v22.404l-17.02 21.275c-8.402 10.503-12.98 23.553-12.98 37.003v69.359h21.958v-61.359c0-13.451 4.577-26.501 12.98-37.003z" fill="#e3edf6"/></g></g><g><g><path d="m128.5 97.965h255v60h-255z" fill="#b6e6fa"/></g></g><g><g><path d="m128.5 97.965h22.66v60h-22.66z" fill="#8ad8f6"/></g></g><g><g><path d="m98.5 248.582c11.643-.041 23.31 4.836 31.452 14.55 16.27-19.719 46.734-19.72 63.005 0 16.27-19.72 46.734-19.72 63.005 0 16.271-19.724 46.739-19.724 63.012 0 16.272-19.726 46.742-19.726 63.016 0 8.271-9.492 19.935-14.159 31.51-13.928v186.166h-67.293c-8.234 0-14.909 6.675-14.909 14.909v7.778c0 8.234-6.675 14.909-14.909 14.909-8.234 0-14.909-6.675-14.909-14.909v-7.778c0-8.234-6.675-14.909-14.909-14.909h-188.071z" fill="#ffdaaa"/></g></g><g><g><g><path d="m98.5 248.582v186.788h22.081v-180.437c-6.69-4.245-14.387-6.378-22.081-6.351z" fill="#ffb680"/></g></g></g><g><g><path d="m98.5 435.37h187.5c8.284 0 15 6.716 15 15v7.595c0 8.284 6.716 15 15 15 8.284 0 15-6.716 15-15v-7.595c0-8.284 6.716-15 15-15h67.5v10.186c0 32.639-26.459 59.099-59.099 59.099h-196.802c-32.639 0-59.099-26.459-59.099-59.099z" fill="#f05475"/></g></g><g><g><g><path d="m393.524 482.614h-230.968c-23.205 0-42.016-18.811-42.016-42.016v-5.229h-22.04v10.187c0 32.639 26.459 59.098 59.099 59.098h196.803c18.908 0 35.729-8.89 46.547-22.707-2.412.43-4.89.667-7.425.667z" fill="#e21743"/></g></g></g><g><g><path d="m364.176 77.429c-4.289-7.429-11.456-12.155-19.278-13.597-.066-7.95-3.464-15.823-10.032-21.333-6.567-5.511-14.911-7.49-22.752-6.175l-10.634 61.642h65.704c1.596-6.735.727-14.069-3.008-20.537z" fill="#fef2e2"/></g></g><g><g><path d="m361.709 73.839h-56.066l-4.162 24.127h65.704c1.595-6.736.726-14.069-3.008-20.538-.74-1.279-1.569-2.472-2.468-3.589z" fill="#ffe1ba"/></g></g><g><g><path d="m200.054 10.288c-4.984-2.877-11.124-2.877-16.107 0l-33.023 19.066c-4.984 2.877-8.054 8.195-8.054 13.95v54.662l85.407.002 4.8-68.613z" fill="#fee95d"/></g></g><g><g><path d="m166.77 74.065v-53.86l-15.847 9.149c-4.984 2.877-8.054 8.195-8.054 13.95v54.662l85.407.001 1.672-23.901z" fill="#f7d700"/></g></g><g><g><path d="m241.466 25.372c-29.842 6.318-40.864 43.455-19.213 65.024 0 0 7.569 7.569 7.569 7.569l71.658.001c10.099-27.874 12.164-61.229 12.975-82.406-19.929.492-44.94 2.868-72.989 9.812z" fill="#f05475"/></g></g><g><g><path d="m242.843 74.37s-7.569-7.569-7.569-7.569c-9.391-9.355-12.627-21.638-10.855-33.066-16.084 13.809-18.971 39.92-2.166 56.662 0 0 7.569 7.569 7.569 7.569l71.658.001c2.746-7.578 4.894-15.562 6.588-23.596z" fill="#e21743"/></g></g><g><g><path d="m145.988 295.357v14.611c0 14.035 11.378 25.413 25.413 25.413h14.611v-14.611c0-14.035-11.378-25.413-25.413-25.413z" fill="#aa4b30"/></g></g><g><g><path d="m246.012 355.357v14.611c0 14.035-11.378 25.413-25.413 25.413h-14.611v-14.611c0-14.035 11.378-25.413 25.413-25.413z" fill="#aa4b30"/></g></g><g><g><path d="m265.988 295.357v14.611c0 14.035 11.378 25.413 25.413 25.413h14.611v-14.611c0-14.035-11.378-25.413-25.413-25.413z" fill="#aa4b30"/></g></g><g><g><path d="m366.012 355.357v14.611c0 14.035-11.378 25.413-25.413 25.413h-14.611v-14.611c0-14.035 11.378-25.413 25.413-25.413z" fill="#aa4b30"/></g></g></g></g><g><path d="m406.376 196.959-15.376-19.22v-12.273h7.5v-15h-7.5v-15h7.5v-15h-7.5v-30h-15.53c-.481-14.21-9.905-27.857-23.593-32.493-2.306-15.274-15.524-27.242-30.462-29.295.259-4.314.443-8.632.538-12.952l-7.683-7.663c-27.332.897-54.938 4.188-81.168 12.006l-29.298-16.917c-7.281-4.203-16.326-4.203-23.607 0l-33.022 19.066c-7.281 4.203-11.805 12.037-11.805 20.444v47.803h-14.37v30h-7.5v15h7.5v15h-7.5v15h7.5v12.273l-15.376 19.22c-9.431 11.789-14.624 26.594-14.624 41.689v206.618c0 36.798 29.937 66.735 66.734 66.735h150.766v-15h-150.766c-29.436.075-52.992-24.794-51.734-54.13h180c4.136 0 7.5 3.364 7.5 7.5v7.595c.783 29.677 44.226 29.656 45 0v-7.595c0-4.136 3.364-7.5 7.5-7.5h60c1.258 29.336-22.298 54.205-51.734 54.13h-30.766v15h30.766c36.797 0 66.734-29.937 66.734-66.734v-206.619c0-15.095-5.193-29.9-14.624-41.688zm-68.927-126.874c12.139.663 22.559 8.655 22.993 20.381h-48.451c3.81-15.36 6.55-31.008 8.195-46.775 11.931 1.815 18.844 13.653 17.263 26.394zm-95.632-37.07c21.207-5.352 42.99-8.595 64.868-9.664-1.483 22.503-3.698 45.579-10.538 67.115h-63.219c-10.789-9.35-17.438-21.144-13.361-35.655 3.004-10.89 11.323-19.038 22.25-21.796zm-91.448 9.648c0-3.065 1.649-5.921 4.304-7.454l33.023-19.066c2.654-1.533 5.953-1.531 8.607 0l22.186 12.81c-6.314 5.722-10.992 13.203-13.382 21.87-3.85 13.961-1.087 28.33 7.337 39.644h-62.076v-47.804zm-14.369 92.803h30v-15h-30v-15h240v15h-195v15h195v15h-240zm-18.664 70.864 18.664-23.329v-17.535h240v17.535l18.664 23.329c8.15 10.054 11.913 22.979 11.336 35.838-8.785 1.217-17.027 4.805-23.867 10.41-8.702-7.535-19.874-11.741-31.651-11.741-11.713 0-22.827 4.16-31.508 11.618-8.681-7.457-19.793-11.616-31.506-11.616s-22.826 4.159-31.506 11.616c-8.681-7.455-19.792-11.613-31.503-11.613s-22.822 4.158-31.501 11.614c-8.68-7.456-19.791-11.614-31.501-11.614-.001 0 0 0-.001 0-11.729 0-22.859 4.173-31.544 11.65-6.797-5.759-15.06-9.501-23.911-10.845-.518-12.69 3.32-25.399 11.335-35.317zm228.664 221.54c-12.407 0-22.5 10.094-22.5 22.5v7.595c-.177 9.859-14.825 9.853-15 0v-7.595c0-12.406-10.093-22.5-22.5-22.5h-180v-170.996c7.072 1.572 13.475 5.434 18.204 11.076l11.533-.044c6.326-7.667 15.7-12.063 25.719-12.063 10.018 0 19.391 4.397 25.716 12.063h11.57c6.325-7.666 15.698-12.063 25.717-12.063s19.393 4.396 25.718 12.063l11.57-.001c6.326-7.668 15.701-12.065 25.721-12.065s19.395 4.397 25.721 12.065h11.571c6.326-7.669 15.701-12.067 25.722-12.067s19.396 4.398 25.722 12.067l11.44.155c4.829-5.543 11.279-9.242 18.356-10.684v170.494z"/><path d="m160.599 287.857h-22.111v22.111c0 18.148 14.765 32.913 32.913 32.913h22.111v-22.111c0-18.148-14.764-32.913-32.913-32.913zm17.913 40.025h-7.111c-9.877 0-17.913-8.036-17.913-17.913v-7.111h7.111c9.877 0 17.913 8.036 17.913 17.913z"/><path d="m198.488 380.771v22.111h22.111c18.148 0 32.913-14.765 32.913-32.913v-22.111h-22.111c-18.149-.001-32.913 14.764-32.913 32.913zm40.024-10.802c0 9.877-8.036 17.913-17.913 17.913h-7.111v-7.111c0-9.877 8.036-17.913 17.913-17.913h7.111z"/><path d="m280.599 287.857h-22.111v22.111c0 18.148 14.765 32.913 32.913 32.913h22.111v-22.111c0-18.148-14.764-32.913-32.913-32.913zm17.913 40.025h-7.111c-9.877 0-17.913-8.036-17.913-17.913v-7.111h7.111c9.877 0 17.913 8.036 17.913 17.913z"/><path d="m318.488 380.771v22.111h22.111c18.148 0 32.913-14.765 32.913-32.913v-22.111h-22.111c-18.149-.001-32.913 14.764-32.913 32.913zm40.024-10.802c0 9.877-8.036 17.913-17.913 17.913h-7.111v-7.111c0-9.877 8.036-17.913 17.913-17.913h7.111z"/><path d="m151.16 180.37h15v15h-15z"/><path d="m181 180.37h15v15h-15z"/><path d="m215.587 300.507h20.826v15h-20.826z" transform="matrix(.707 -.707 .707 .707 -151.605 250.054)"/><path d="m158.66 372.594h14.999v20.826h-14.999z" transform="matrix(.707 -.707 .707 .707 -222.157 229.666)"/><path d="m278.775 372.594h14.999v20.826h-14.999z" transform="matrix(.707 -.707 .707 .707 -186.978 314.599)"/><path d="m335.587 300.507h20.826v15h-20.826z" transform="matrix(.707 -.707 .707 .707 -116.45 334.915)"/></g></g><g/><g/><g/><g/><g/><g/><g/><g/><g/><g/><g/><g/><g/><g/><g/></svg>