<svg id="Layer_1" enable-background="new 0 0 512 512" viewBox="0 0 512 512" xmlns="http://www.w3.org/2000/svg"><g><g><g><g><g><path d="m61 409.678h390v30.008h-390z" fill="#8ad8f6"/></g></g><g><g><path d="m370.244 109.686c-18.711 0-34.858 10.973-42.359 26.835l8.699 33.165c25.863 0 46.83-20.966 46.83-46.83v-13.17z" fill="#c3f839"/></g></g><g><g><path d="m327.885 136.521 8.699 33.165c8.66 0 16.765-2.36 23.724-6.458.43-2.506.66-5.059.66-7.638 0-9.272-2.8-18.083-7.854-25.443.576-5.572.11-11.228-1.379-16.654-10.48 4.513-18.985 12.739-23.85 23.028z" fill="#abe700"/></g></g><g><g><path d="m327.969 136.561c3.784-6.705 4.031-15.177-.097-22.327-4.006-6.939-11.152-10.931-18.607-11.229-.075-7.699-4.097-15.159-11.247-19.287-6.939-4.007-15.123-3.891-21.729-.422-3.914-6.629-11.128-11.079-19.384-11.079-8.013 0-15.042 4.192-19.029 10.499-6.705-3.784-15.177-4.031-22.327.098-6.939 4.006-10.931 11.151-11.23 18.606-7.698.076-15.159 4.098-19.287 11.248-4.006 6.939-3.891 15.123-.422 21.729-6.629 3.915-11.079 11.128-11.079 19.384 0 6.009 2.358 11.466 6.198 15.5l152.929 1.392c3.61-3.99 5.81-9.279 5.81-15.084 0-8.013-4.192-15.042-10.499-19.028z" fill="#fff"/></g></g><g><g><path d="m335.273 144.052c-.76 1.117-1.629 2.203-2.615 3.293h-137.077c1.931-4.108 5.058-7.543 8.945-9.838-8.036-14.263 3.359-33.298 19.708-32.977.239-8.361 5.651-16.593 13.87-19.908-.131-.669-.267-1.338-.416-2.005-14.003-8.284-33.2 2.533-33.37 18.802-16.356-.321-27.741 18.719-19.708 32.977-3.425 2.022-6.261 4.931-8.209 8.403-4.836 8.25-3.381 19.741 3.328 26.481l152.929 1.392c6.467-6.701 7.715-18.671 2.615-26.62z" fill="#e3edf6"/></g></g><g><g><path d="m219.463 169.686h-106.926c-20.179 0-36.537 16.358-36.537 36.537v143.463h180v-143.463c0-20.179-16.358-36.537-36.537-36.537z" fill="#fef2e2"/></g></g><g><g><path d="m97.356 328.329v-143.463c0-4.523.828-8.852 2.33-12.85-13.837 5.201-23.686 18.551-23.686 34.207v143.463h180v-21.356h-158.644z" fill="#ffe1ba"/></g></g><g><g><path d="m399.92 169.686h-189.729 9.5c20.305 0 36.766 16.461 36.766 36.766v143.234h180v-143.463c0-20.179-16.358-36.537-36.537-36.537z" fill="#ffdaaa"/></g></g><g><g><path d="m256.458 328.329h180v21.356h-180z" fill="#ffb680"/></g></g><g><g><path d="m76 214.686h90c8.284 0 15 6.716 15 15v30c0 8.284 6.716 15 15 15 8.284 0 15-6.716 15-15v-30c0-8.284 6.716-15 15-15h210.915v-7.878c0-20.502-16.62-37.122-37.122-37.122h-286.671c-20.502 0-37.122 16.62-37.122 37.122z" fill="#aa4b30"/></g></g><g><g><g><path d="m134.643 169.686h-21.521c-20.502 0-37.122 16.62-37.122 37.122v7.878h21.521v-7.878c0-20.502 16.62-37.122 37.122-37.122z" fill="#8d3d27"/></g></g></g><g><g><path d="m7.5 349.686v23.267c0 20.283 16.442 36.725 36.725 36.725h423.55c20.283 0 36.725-16.442 36.725-36.725v-23.267z" fill="#8ad8f6"/></g></g><g><g><path d="m490.585 387.186h-443.504c-9.263 0-16.771-7.827-16.771-17.089v-20.411h-22.81v23.268c0 20.282 16.442 36.725 36.725 36.725h423.55c16.107 0 29.782-10.374 34.734-24.801-3.74 1.283-7.748 2.308-11.924 2.308z" fill="#54c9f3"/></g></g><g><g><path d="m46 372.182h15v15h-15z" fill="#fff"/></g></g><g><g><path d="m76 372.186h43.042v15h-43.042z" fill="#fff"/></g></g></g></g><g><path d="m443.5 342.186v-136.033c0-24.244-19.724-43.968-43.968-43.968h-25.525c10.403-9.903 16.907-23.867 16.907-39.33v-20.67h-20.67c-12.603 0-24.614 4.445-34.128 12.114-3.533-8.611-10.859-15.698-20.128-17.841-3.305-16.115-21.415-27-37.15-22.192-10.918-12.306-32.046-12.672-43.269-.645-15.608-5.198-34.089 5.048-37.794 21.076-16.116 3.305-26.998 21.416-22.193 37.15-8.407 7.52-11.286 19.737-8.336 30.338h-54.777c-24.244 0-43.968 19.724-43.968 43.968v53.532h15v-37.5h82.499c4.136 0 7.5 3.364 7.5 7.5v30c0 12.406 10.093 22.5 22.5 22.5s22.5-10.094 22.5-22.5v-30c0-4.136 3.364-7.5 7.5-7.5h22.5v120h-165v-67.5h-15v67.5h-68.5v30.768c0 24.386 19.839 44.225 44.225 44.225h9.275v30.008h322.904v-15h-307.904v-15.008h375v15.008h-52.5v15h67.5v-30.008h9.275c24.386 0 44.225-19.839 44.225-44.225v-30.768h-68.5zm-43.968-165c15.973 0 28.968 14.027 28.968 30h-165c0-11.089-4.135-22.257-10.933-30zm-29.288-60h5.67v5.67c0 18.656-13.061 34.308-30.516 38.322 1.696-9.421-.983-19.65-7.88-26.471 7.23-10.796 19.531-17.521 32.726-17.521zm-178.716-.767c4.429-7.733 12.106-7.768 19.999-7.569.055-7.663.224-15.324 7.772-19.541 7.631-4.483 14.424-.663 21.104 3.446 3.878-6.609 7.855-13.159 16.501-13.038 8.913-.032 12.781 6.6 16.554 13.537 6.604-3.774 13.457-7.468 20.809-3.041 7.733 4.429 7.766 12.106 7.568 19.999 7.662.055 15.325.225 19.541 7.771 3.603 9.921-.454 15.946-3.446 21.105 9.039 4.356 16.438 12.757 11.52 23.097h-145.856c-6.839-10.611.832-20.679 10.975-24.959-3.774-6.603-7.466-13.457-3.041-20.807zm34.472 90.767c-12.407 0-22.5 10.094-22.5 22.5v30c-.175 9.853-14.823 9.859-15 0v-30c0-12.406-10.093-22.5-22.5-22.5h-82.5c0-15.973 12.995-30 28.968-30h107.063c15.973 0 28.968 14.027 28.968 30zm37.5 15h165v120h-165zm233.5 150.767c0 16.114-13.11 29.225-29.225 29.225h-423.55c-16.115 0-29.225-13.111-29.225-29.225v-15.768h482z"/></g></g><g/><g/><g/><g/><g/><g/><g/><g/><g/><g/><g/><g/><g/><g/><g/></svg>