<svg id="Layer_1" enable-background="new 0 0 512 512" viewBox="0 0 512 512" xmlns="http://www.w3.org/2000/svg"><g><g><g><g><g><path d="m210.999 428.127-44.999 76.288h150l-45-76.287z" fill="#8ad8f6"/></g></g><g><g><path d="m204.681 481.053 31.218-52.926h-24.9l-44.999 76.288h150l-13.781-23.362z" fill="#54c9f3"/></g></g><g><g><path d="m411.496 75.628c-17.447 0-33.089 7.725-43.693 19.941l10.361 62.399c31.942 0 57.836-25.894 57.836-57.836v-24.504z" fill="#54e072"/></g></g><g><g><path d="m398.819 142.904c0-21.811-4.449-42.601-12.484-61.514-7.107 3.441-13.411 8.279-18.532 14.179l10.361 62.399c7.28 0 14.239-1.358 20.656-3.813v-11.251z" fill="#00ca0f"/></g></g><g><g><path d="m241 7.585c-56.556 0-105.009 34.696-125.234 83.963l-.003 66.725h260.556v-15.369c0-74.734-60.584-135.319-135.319-135.319z" fill="#fee95d"/></g></g><g><g><path d="m375.779 130.805c-9.239-15.061-25.852-25.133-44.779-25.133-12.672 0-24.309 4.512-33.39 12.015-5.841-2.791-12.376-4.354-19.27-4.354-16.531 0-31.001 8.991-38.776 22.341h-11.61c.886-27.688-24.632-55.093-42.129-74.886h-27.325c22.538-30.951 53.386-49.422 93.752-52.732-59.7-5.272-115.101 30.642-136.486 83.494l-.003 66.675v.05c14.681 0 260.556-.05 260.556-.05s-.189-23.449-.54-27.42z" fill="#f7d700"/></g></g><g><g><path d="m135.281 95.568c-18.812-4.777-36.514-6.53-50.01-6.837.296 13.5 1.886 30.532 6.679 49.647 2.767 11.944 13.025 19.328 23.814 19.896l42.736-.051-8.344-52.398c-3.342-4.841-8.399-8.622-14.875-10.257z" fill="#f05475"/></g></g><g><g><path d="m126.617 135.806c-10.789-.567-14.878-7.786-16.795-19.896-1.462-9.238-2.114-17.73-2.428-25.543-8.119-.998-15.613-1.488-22.123-1.636.296 13.5 1.886 30.532 6.679 49.647 2.767 11.944 13.025 19.328 23.814 19.896l42.736-.051-3.574-22.446z" fill="#e21743"/></g></g><g><g><path d="m76 188.224 135 239.904h60l135-239.904z" fill="#8ad8f6"/></g></g><g><g><path d="m76 188.224 135 239.904h24.894l-135-239.904z" fill="#54c9f3"/></g></g><g><g><path d="m368.5 158.223h-7.5c0-16.568-13.431-30-30-30s-30 13.432-30 30h-.319c0-12.338-10.002-22.34-22.341-22.34-12.338 0-22.34 10.002-22.34 22.34h-142.5c-12.426 0-22.5 10.074-22.5 22.5v7.5h300v-7.5c0-12.426-10.074-22.5-22.5-22.5z" fill="#fee95d"/></g></g><g><g><path d="m143.5 218.128h15v15h-15z" fill="#fff"/></g></g><g><g><path d="m173.5 218.128h45v15h-45z" fill="#fff"/></g></g><g><g><path d="m171.527 78.905c-9.337 9.756-20.256 22.923-30.383 39.829-.087.145-.173.289-.259.434-10.262 17.219 2.273 39.056 22.317 39.056h16.571c20.079 0 32.573-21.88 22.281-39.121-.175-.293-.351-.586-.527-.879-10.021-16.618-20.77-29.622-30-39.319z" fill="#f05475"/></g></g><g><g><path d="m163.202 135.724c-2.808.201-4.295-3.544-2.977-5.057 7.401-12.415 16.175-24.041 26.073-34.61-5.117-6.577-10.135-12.282-14.771-17.152-9.38 9.781-20.568 23.332-30.642 40.262-10.262 17.219 2.273 39.056 22.317 39.056h16.571c13.839 0 24.072-10.395 25.728-22.5h-42.299z" fill="#e21743"/></g></g></g></g><g><path d="m411.014 68.128c-15.041 0-29.471 5.193-41.003 14.493-22.754-48.751-72.239-82.621-129.493-82.621-56.248 0-106.593 32.501-129.852 83.286-8.518-1.152-17.102-1.841-25.692-2.053l-7.684 7.663c.384 17.474 2.75 34.908 7.03 51.813 1.667 6.586 5.229 12.267 10.02 16.563-6.894 5.501-11.323 13.966-11.323 23.451h-7.5l-6.536 11.178 38.305 68.07 13.072-7.355-32.015-56.893h304.348l-126.56 224.904h-51.229l-86.477-153.677-13.072 7.355 86.534 153.776-42.829 72.607 6.46 11.311h97.499v-15h-84.367l36.201-61.372h51.333l36.202 61.373h-24.369v15h37.501l6.46-11.311-42.829-72.606 132.906-236.182-6.536-11.178h-7.5c0-6.316-1.967-12.179-5.313-17.018 28.806-6.808 50.313-32.718 50.313-63.574v-32.003zm-170.496-53.128c70.479 0 127.819 57.339 127.819 127.818v7.905c-3.483-17.098-19.709-30.001-37.819-30.001-13.013 0-24.5 6.664-31.228 16.758-5.428-5.607-13.03-9.098-21.432-9.098-13.865 0-25.552 9.504-28.887 22.341h-41.787c7.109-10.747 7.475-24.426.828-35.464-8.914-14.935-19.527-28.908-31.535-41.525l-10.851-.015c-6.106 6.38-11.843 13.117-17.182 20.149-6.281-4.939-14.695-6.341-22.409-7.964 21.514-43.36 65.496-70.904 114.483-70.904zm-77.798 135.724c-13.778.487-23.351-16.092-15.871-27.723 6.989-11.722 15.102-22.801 24.183-33.02 9.035 10.217 17.124 21.276 24.102 32.966 7.5 11.637-2.029 28.262-15.842 27.776h-16.572zm-70.109-54.151c15.387 1.751 33.463 2.059 47.149 9.566-10.091 12.795-14.988 30.252-4.94 44.584h-19.788c-6.71-.572-14.34-5.351-16.29-14.17-3.279-13.077-5.334-26.491-6.131-39.98zm5.407 84.151c0-8.271 6.729-15 15-15h150v-7.501c0-8.183 6.657-14.84 14.841-14.84 8.183 0 14.84 6.657 14.84 14.841v7.5h15.319v-7.501c0-12.406 10.094-22.5 22.5-22.5s22.5 10.094 22.5 22.501v7.5h15c8.271 0 15 6.729 15 15zm330-80.592c0 25.843-19.579 47.19-44.681 50.011v-7.324c0-15.873-2.606-31.147-7.408-45.423 9.364-9.105 21.921-14.268 35.084-14.268h17.004v17.004z"/></g></g><g/><g/><g/><g/><g/><g/><g/><g/><g/><g/><g/><g/><g/><g/><g/></svg>