<svg id="Layer_1" enable-background="new 0 0 512 512" viewBox="0 0 512 512" xmlns="http://www.w3.org/2000/svg"><g><g><g><g><g><path d="m354.313 19.074-13.727 51.23 36.315 38.168 52.691-14.119z" fill="#aa4b30"/></g></g><g><g><path d="m398.971 102.558c-10.792-23.849-29.155-43.566-52.002-56.075l-6.383 23.821 36.315 38.167z" fill="#8d3d27"/></g></g><g><g><path d="m289.482 54.307-21.685 122.581 97.303 36.732c13.741-16.817 21.983-38.302 21.983-61.713 0-53.903-43.697-97.6-97.601-97.6z" fill="#c3f839"/></g></g><g><g><path d="m309.745 167.63c19.719-32.131 22.57-75.271 7.24-109.388-4.129-1.21-22.545-3.938-27.503-3.936l-21.685 122.582 97.303 36.732c5.044-6.173 9.338-12.979 12.764-20.274z" fill="#abe700"/></g></g><g><g><path d="m206.759 8.307c-53.903 0-97.6 43.697-97.6 97.6 0 3.48 1.061 8.247 1.416 11.632l161.634 61.014c19.404-17.838 32.151-44.21 32.151-72.646-.001-53.903-43.698-97.6-97.601-97.6z" fill="#f05475"/></g></g><g><g><path d="m278.465 172.241-.006-.002c10.229-11.28 18.052-25.118 22.305-40.314-5.249 9.489-11.96 18.023-19.747 25.182l-148.75-56.151c2.387-47.761 39.103-86.474 85.981-91.972-61.498-8.426-118.176 48.381-107.673 108.555l161.634 61.014c2.179-2.004 4.247-4.133 6.256-6.312z" fill="#e21743"/></g></g><g><g><path d="m82.408 106.907 170.886 402.786 129.657-289.336z" fill="#ffdaaa"/></g></g><g><g><path d="m110.575 117.539-28.167-10.632 170.886 402.786 12.152-27.116z" fill="#ffb680"/></g></g><g><g><path d="m146.759 106.907v60c0 8.284 6.716 15 15 15s15-6.716 15-15v-51.83z" fill="#f05475"/></g></g><g><g><path d="m161.759 159.502c-8.284 0-15-6.716-15-15v22.404c0 8.284 6.716 15 15 15s15-6.716 15-15v-22.404c0 8.285-6.716 15-15 15z" fill="#e21743"/></g></g><g><g><path d="m157.228 74.011-12.602-8.135c3.013-4.667 6.56-9.003 10.543-12.887l10.473 10.738c-3.18 3.101-6.011 6.561-8.414 10.284zm18.903-18.43-7.811-12.807c4.756-2.9 9.841-5.261 15.114-7.014l4.732 14.234c-4.197 1.397-8.246 3.276-12.035 5.587z" fill="#fff"/></g></g></g></g><g><path d="m435.712 88.25-75.286-75.285-12.549 3.363-10.889 40.641c-12.895-6.423-27.285-10.271-42.498-10.873-18.933-27.802-50.836-46.096-86.935-46.096-58.041-.009-105.263 47.317-105.107 105.361l-16.606-6.269-9.554 9.947 170.901 402.822 13.749.139 25.898-57.791-13.689-6.135-18.865 42.098-47.311-111.513 83.33 31.135-10.432 23.28 13.689 6.135 97.05-216.57-4.197-10.085-8.611-3.251c11.393-17.151 17.595-37.456 17.595-58.187 0-13.568-2.584-26.543-7.286-38.46l44.24-11.855zm-138.049 16.86c0 23.962-9.653 47.049-26.592 63.903l-86.018-32.47v-22.262h-15.001v51.834c0 4.136-3.365 7.501-7.501 7.501s-7.501-3.365-7.501-7.501v-60.005h-15.001v13.446l-22.399-8.456c-3.646-51.622 38.113-96.306 89.905-96.098 49.686-.001 90.108 40.422 90.108 90.108zm-98.765 254.517-27.516-64.857 145.8 55.037-20.733 46.267zm151.297-83.492-139.992-52.845-5.297 14.034 139.144 52.525-20.723 46.245-160.045-60.415-27.313-64.377 53.936 20.359 5.297-14.034-67.333-25.416-30.925-72.892 43.104 16.271v30.526c0 12.407 10.095 22.502 22.502 22.502s22.502-10.095 22.502-22.502v-13.537l188.607 71.196zm13.143-72.293-77.064-29.09c16.881-19.114 26.391-43.949 26.391-69.642 0-15.369-3.316-29.977-9.269-43.148 43.494 6.368 76.999 43.918 76.999 89.152-.001 18.937-6.035 37.454-17.057 52.728zm18.147-104.943c-7.749-13.482-18.405-25.088-31.101-33.968l8.62-32.171 56.912 56.912z"/></g></g><g/><g/><g/><g/><g/><g/><g/><g/><g/><g/><g/><g/><g/><g/><g/></svg>