<svg id="Layer_1" enable-background="new 0 0 512 512" viewBox="0 0 512 512" xmlns="http://www.w3.org/2000/svg"><g><g><g><g><g><path d="m123.668 122.083-31.049-31.049c-43.206 42.679-41.653 112.876 0 154.059l29.952-29.953c-25.414-25.415-24.318-67.642 1.097-93.057z" fill="#57758d"/></g></g><g><g><path d="m94.452 92.866-1.833-1.833c-43.206 42.679-41.653 112.875 0 154.059l17.008-17.008c-35.977-35.57-42.032-92.784-15.175-135.218z" fill="#4b6276"/></g></g><g><g><circle cx="228.686" cy="196.87" fill="#b071d2" r="65.864"/></g></g><g><g><path d="m224.816 224.936c-10.708-16.211-27.622-28.491-45.773-34.465-2.544-16.602 1.259-33.989 11.427-48.239-17.722 12.323-28.17 33.997-27.653 54.444-.924 68.489 96.917 93.454 126.518 25.881-20.927-7.292-44.07-6.502-64.519 2.379z" fill="#923ec3"/></g></g><g><g><circle cx="151.053" cy="274.492" fill="#b071d2" r="65.864"/></g></g><g><g><path d="m147.183 302.558c-10.708-16.211-27.622-28.491-45.773-34.465-2.544-16.602 1.259-33.989 11.427-48.239-17.722 12.323-28.17 33.997-27.653 54.444-.924 68.489 96.917 93.454 126.518 25.881-20.927-7.292-44.07-6.502-64.519 2.379z" fill="#923ec3"/></g></g><g><g><circle cx="260.372" cy="305.818" fill="#b071d2" r="65.864"/></g></g><g><g><path d="m256.502 333.884c-10.708-16.211-27.622-28.491-45.773-34.465-2.544-16.602 1.259-33.989 11.427-48.239-17.722 12.323-28.17 33.997-27.653 54.444-.924 68.489 96.917 93.454 126.518 25.881-20.927-7.292-44.07-6.502-64.519 2.379z" fill="#923ec3"/></g></g><g><g><circle cx="74.036" cy="352.114" fill="#b071d2" r="65.864"/></g></g><g><g><path d="m42.923 383.227c-23.087-23.087-25.437-59.042-7.08-84.766-2.936 2.095-5.746 4.445-8.381 7.08-25.722 25.722-25.722 67.425 0 93.146s67.425 25.722 93.146 0c2.635-2.635 4.985-5.445 7.08-8.381-25.724 18.358-61.678 16.008-84.765-7.079z" fill="#923ec3"/></g></g><g><g><path d="m201.311 195.08-14.971-.945c.388-6.141 2.053-11.991 4.951-17.39l13.217 7.094c-1.871 3.485-2.947 7.267-3.197 11.241zm10.803-20.138-9.087-11.934c4.887-3.721 10.407-6.287 16.408-7.626l3.267 14.641c-3.873.864-7.435 2.519-10.588 4.919z" fill="#fff"/></g></g><g><g><circle cx="182.473" cy="383.544" fill="#b071d2" r="65.864"/></g></g><g><g><path d="m151.36 414.657c-23.087-23.087-25.437-59.042-7.08-84.766-2.936 2.095-5.746 4.445-8.381 7.08-25.722 25.722-25.722 67.425 0 93.146s67.425 25.722 93.146 0c2.635-2.635 4.985-5.445 7.08-8.381-25.723 18.358-61.678 16.007-84.765-7.079z" fill="#923ec3"/></g></g><g><g><circle cx="290.772" cy="414.212" fill="#b071d2" r="65.864"/></g></g><g><g><path d="m259.659 445.325c-23.087-23.087-25.437-59.042-7.08-84.766-2.936 2.095-5.746 4.445-8.381 7.08-25.722 25.722-25.722 67.425 0 93.146s67.425 25.722 93.146 0c2.635-2.635 4.985-5.445 7.08-8.381-25.723 18.357-61.678 16.007-84.765-7.079z" fill="#923ec3"/></g></g><g><g><path d="m477.41 143.804c1.542-13.73 13.818-9.047 17.339-23.785 1.558-6.29-1.954-12.892 3.66-17.878 7.904-7.03 7.856-21.017.125-27.949-6.237-5.667-1.56-12.983-4.356-19.959-2.994-8.591-11.809-13.982-20.827-12.781-4.009.628-8.148-.506-10.978-3.421-6.936-7.716-20.916-7.801-27.951.124-4.941 5.605-11.616 2.103-17.879 3.658-5.877 1.4-10.484 5.337-12.94 10.374-1.983 4.289-6.324 6.445-10.846 6.965-14.81 3.805-10.695 14.718-20.827 18.978-15.973 6.953-7.8 18.8-18.629 24.359-5.037 2.455-8.975 7.063-10.374 12.94-1.557 6.29 1.954 12.892-3.659 17.878-2.625 2.498-4.58 5.759-5.482 9.546-1.641 6.893.622 13.801 5.359 18.405 2.917 2.83 4.049 6.973 3.42 10.982-1.949 12.398 9.869 23.907 22.125 21.707 11.984-1.671 12.326 12.337 29.019 8.829 8.52-1.525 10.74-10.486 20.045-8.827 8.122 1.408 17.026-3.417 20.32-10.688 1.748-3.586 5.201-6.062 9.148-6.639 16.707-3.124 12.067-14.957 22.525-19.303 5.648-2.265 10.147-7.145 11.663-13.515z" fill="#fcad42"/></g></g><g><g><path d="m450.645 172.762c-32.559 15.306-76.074 12.406-91.573-22.62-6.727-16.542-6.494-34.207-1.56-51.156-.966 1.323-2.284 2.514-4.21 3.502-5.037 2.456-8.975 7.063-10.374 12.94-1.557 6.29 1.954 12.892-3.659 17.878-2.625 2.498-4.58 5.759-5.482 9.546-1.641 6.894.622 13.801 5.359 18.405 2.917 2.83 4.049 6.973 3.42 10.982-.463 2.947-.141 5.841.773 8.516 3.558 5.108 7.873 9.257 12.717 12.553 2.727.893 5.667 1.17 8.635.637 9.608-1.339 11.739 7.392 20.806 9.102 1.572.121 3.153.2 4.744.224 1.076-.08 2.222-.234 3.469-.496 8.52-1.525 10.74-10.486 20.045-8.827 8.122 1.408 17.026-3.417 20.32-10.688 1.748-3.585 5.201-6.062 9.148-6.639 5.678-1.062 8.887-3.131 11.065-5.568-1.207.589-2.42 1.162-3.643 1.709z" fill="#f69500"/></g></g><g><g><path d="m501.304 304.394c-8.618-10.798 3.374-16.168-4.559-29.079-3.346-5.549-10.498-7.734-10.054-15.229.618-10.56-9.306-20.416-19.674-19.851-8.417.403-10.284-8.077-17.194-11.033-8.192-3.957-18.237-1.537-23.765 5.689-2.39 3.279-6.119 5.404-10.181 5.344-10.361-.552-20.306 9.273-19.677 19.852.469 7.457-6.726 9.701-10.055 15.229-3.166 5.145-3.639 11.187-1.814 16.485 1.63 4.435.086 9.03-2.744 12.594-7.782 13.162 2.845 17.97-1.308 28.147-6.379 16.211 7.778 18.809 4.052 30.397-1.826 5.298-1.352 11.34 1.814 16.485 3.346 5.549 10.498 7.735 10.054 15.23-.09 3.622.833 7.311 2.874 10.627 3.714 6.035 10.199 9.319 16.804 9.225 4.063-.061 7.794 2.067 10.184 5.347 7.389 10.145 23.883 9.926 30.993-.296 7.293-9.655 17.439.008 26.763-14.277 4.946-7.102.18-15.009 7.932-20.415 6.739-4.748 9.623-14.455 6.811-21.926-1.299-3.772-.609-7.964 1.774-11.164 9.605-14.023-2.043-19.108 2.278-29.577 2.393-5.596 2.123-12.228-1.308-17.804z" fill="#fcad42"/></g></g><g><g><path d="m430.341 395.378c-37.384-39.041-39.769-108.467-13.042-155.217-2.26.123-4.563-.029-6.744.685-5.576 5.017-10.34 10.929-14.358 17.467.83 5.984-2.732 9.684-6.75 13.092-2.379 5.552-4.335 11.37-5.9 17.335 3.217 9.337.411 11.257-3.649 19.049-.396 3.149-.696 6.302-.903 9.443 2.709 9.571 3.172 9.903-.083 20.005.175 2.991.427 5.936.765 8.814 3.659 7.95 7.236 10.303 3.846 20.121 1.517 5.83 3.375 11.482 5.643 16.89 4.6 3.965 7.686 7.122 7.126 13.906 3.661 5.951 7.954 11.492 13.02 16.482 6.336 1.934 12.301-.16 16.749 6.4 7.389 10.144 23.883 9.926 30.993-.296 4.582-6.066 10.291-4.509 16.214-6.054 2.779-2.649 5.321-5.476 7.715-8.576-16.832 8.233-35.853 5.007-50.642-9.546z" fill="#f69500"/></g></g></g></g><g><g><path d="m342.666 362.356c-6.431-6.431-13.854-11.502-21.914-15.111 7.397-10.825 11.836-23.531 12.677-36.721l-14.973-.955c-.765 11.996-5.265 23.491-12.756 32.815-4.857-.998-9.848-1.52-14.921-1.52-14.969 0-29.246 4.465-41.335 12.742-3.64-8.124-8.751-15.577-15.099-21.925-9.059-9.059-20.077-15.437-32.091-18.782-2.172-17.782 3.874-35.556 16.667-48.349 11.026-11.027 25.685-17.098 41.278-17.098s30.252 6.072 41.278 17.097c8.75 8.752 14.407 19.812 16.359 31.987l14.813-2.374c-2.454-15.315-9.565-29.222-20.564-40.222-6.697-6.697-14.468-11.925-22.916-15.555 33.55-47.481-2.245-115.708-60.501-114.906-41.077-1.014-76.67 37.074-73.245 77.78-10.576-.671-21.312 1.058-30.966 4.819-18.529-22.384-16.926-57.304 4.488-78.718v-10.609l-31.053-31.055h-10.609c-31.885 31.885-42.531 79.851-27.124 122.201l14.098-5.13c-12.563-34.531-5.239-73.351 18.528-100.959l20.514 20.514c-10.59 12.958-16.494 29.085-16.77 46.151-.267 16.471 4.778 31.983 14.327 44.607-7.625 4.979-14.557 11.666-19.801 19.144-3.968-4.844-7.48-10.023-10.476-15.491l-13.157 7.21c4.385 8.002 9.727 15.462 15.895 22.263-4.287 10.253-6.21 21.42-5.528 32.692-40.948-3.399-78.692 32.166-77.772 73.236-.825 39.451 33.96 74.19 73.396 73.379 15.034 0 29.445-4.536 41.614-12.95 11.084 26.442 38.661 44.751 67.452 44.386 14.894 0 29.193-4.457 41.301-12.736 3.609 8.061 8.681 15.485 15.113 21.918 13.859 13.859 32.287 21.491 51.887 21.491s38.027-7.632 51.887-21.491c28.466-27.316 28.464-76.461-.001-103.775zm-68.755-128.621c-19.129-3.704-39.717.655-55.473 11.758-8.458-20.077-26.828-36.113-47.73-41.699-4.406-34.283 23.357-65.651 57.961-65.311 48.212-1.074 76.662 58.867 45.242 95.252zm-86.951 76.606c-16.468-1.062-32.839 3.559-46.149 12.812-8.454-20.088-26.83-36.133-47.74-41.722-4.401-34.286 23.354-65.65 57.96-65.311 24.72-.327 47.818 16.544 55.359 39.824-13.754 14.825-20.674 34.444-19.43 54.397zm-154.843 83.07c-22.761-22.76-22.761-59.795 0-82.555 22.761-22.762 59.795-22.762 82.556 0 6.415 6.414 11.231 14.21 14.083 22.732-15.883 16.816-22.789 40.957-18.388 63.708-23.109 19.025-56.74 17.628-78.251-3.885zm109.064 31.435c-22.761-22.76-22.761-59.795 0-82.555 22.761-22.762 59.795-22.762 82.556 0 6.121 6.12 10.798 13.525 13.69 21.603-16.413 17.123-23.398 42.026-18.51 65.253-23.079 18.557-56.44 16.995-77.736-4.301zm190.876 30.674c-22.761 22.762-59.795 22.762-82.556 0-22.761-22.76-22.761-59.795 0-82.555 22.761-22.761 59.795-22.761 82.556 0s22.761 59.795 0 82.555z"/></g><g><g><path d="m388.656 210.837c-8.136 1.064-14.626-6.171-20.776-9.139-19.704 2.849-35.896-14.185-32.863-33.505-11.886-11.596-11.955-30.291.079-41.748-1.154-11.815 2.933-25.204 14.749-30.604 6.54-5.664 1.816-17.322 19.334-24.722 7.007-4.867 5.751-15.937 22.82-19.449 12.02-6.372 10.892-19.918 33.977-17.717 8.258-4.171 16.324-11.655 27.145-9.028 7.452-.015 13.022 8.694 19.063 9.079 19.727-3.21 32.994 15.709 30.872 33.302 4.824 5.773 9.342 12.339 8.915 21.02-.511 16.586-10.976 15.026-9.79 33.464-.53 11.885-14.882 13.966-17.359 23.738-1.96 8.405-7.976 15.375-15.96 18.663-8.392 6.638-5.763 16.267-24.151 19.786-9.526 8.575-16.125 20.656-32.404 17.369-5.995 1.515-14.437 11.298-23.651 9.491zm-21.748-24.532c12.996-.365 18.56 16.523 30.181 6.447 8.715-9.792 19.056-3.904 25.928-7.867 13.171-20.703 20.152-9.936 28.444-23.093 4.199-10.221 12.875-9.954 17.073-15.981 3.363-14.89 10.123-16.72 17.882-24.518 3.098-33.338 5.748-13.798 10.527-33.674-1.094-10.126-9.91-10.662-9.348-22.317 2.651-11.617-6.989-18.532-17.732-16.284-6.66.004-10.942-4.617-15.834-8.144-14.815-5.053-14.674 11.082-36.172 8.371-10.813 4.194-7.642 15.446-23.591 17.281-10.923 3.656-6.603 14.084-21.153 19.449-9.04 5.643-3.101 16.231-15.756 22.882-13.231 5.841-1.938 22.294-13.423 30.577-10.726 12.587 9.095 18.173 6.248 33.465-1.88 9.174 8.306 15.764 16.726 13.406z"/></g><g><path d="m397.824 140.072c-10.681.239-16.289-6.463-25.094-7.569l.647-14.989c11.726-.127 17.943 10.146 28.964 6.77 5.616-1.842 7.363-5.143 10.008-10.141 7.045-17.198 28.022-24.068 43.87-14.377 3.125 1.511 5.824 2.817 8.697 3.018l-1.047 14.966c-5.757-.402-10.235-2.569-14.185-4.48-28.868-14.201-18.073 26.284-51.86 26.802z"/></g><g><path d="m460.405 82.523c-14.087.387-25.423-15.334-36.732-2.342l-11.794-9.271c9.184-12.819 29.141-13.009 38.975-6.424 5.09 2.462 8.454 4.086 14.066 2.248l4.673 14.257c-3.34 1.094-6.394 1.532-9.188 1.532z"/></g><g><path d="m404.842 173.102c-12.681.62-18.612-10.165-30.155-6.781l-4.673-14.257c19.79-7.285 26.866 11.529 42.174 4.036l7.272 13.122c-4.171 2.38-10.197 3.971-14.618 3.88z"/></g></g><g><g><path d="m441.58 434.876c-8.619.064-16.954-4.214-21.932-11.238-15.517-2.483-32.197-11.361-30.763-30.016-8.616-8.234-16.415-19.882-11.605-32.637-6.797-19.08-5.789-16.391-4.141-37.337-4.946-10.261 1.272-19.211 4.418-29.041-4.419-11.366.583-24.363 9.85-31.401 3.051-7.138 2.001-16.708 9.353-22.462 9.4-9.949 17.692-6.168 22.293-9.255 15.394-18.665 32.79-12.332 48.212 1.236 14.107-.904 28.172 13.312 27.16 27.41 8.626 9.983 16.686 22.702 11.412 34.624 3.28 9.813 9.479 19.85 3.867 30.758 3.833 22.467 2.291 15.919-3.714 35.311 6.317 20.477-7.677 23.043-11.703 35.793-1.181 21.099-17.38 22.533-31.19 27.718-4.817 6.619-12.933 10.575-21.517 10.537zm-25.241-27.835c13.109-1.075 20.697 25.174 35.308 7.557 9.459-11.405 20.141-3.099 26.297-13.732 3.586-9.944-.523-14.676 11.424-23.709 7.661-8.64-3.929-18.847 5.063-29.713 6.945-9.443-3.948-15.61 1.361-27.831 3.687-15.124-8.227-10.718-4-37.716-19.626-22.744-6.404-13.632-16.084-30.772-7.696-6.659-13.602-.297-22.357-9.119-2.695-2.912-5.124-6.318-9.28-6.947-11.533-2.578-14.475 13.471-27.601 12.699-3.583-.33-6.832 1.149-9.357 3.897-6.366 7.515-.076 13.481-8.815 22.05-15.87 11.67 1.414 19.744-9.905 34.457-2.754 3.564-2.299 7.623-.685 11.553 4.663 12.157-5.187 17.74.772 26.933 3.506 5.325 5.47 12.212 3.198 18.596-3.636 10.974 7.07 13.732 10.937 22.149 1.737 7.987 1.893 20.454 13.724 19.648z"/></g><g><path d="m419.444 370.542-10.143-11.055c8.202-8.383 19.861-5.512 25.268-15.695 2.669-5.273 1.57-8.843-.094-14.247-7.179-17.143 2.794-36.832 20.854-41.187 3.279-1.141 6.111-2.127 8.284-4.016l9.843 11.323c-8.138 7.864-19.5 5.241-24.735 15.218-2.669 5.274-1.57 8.844.094 14.248 7.18 17.144-2.796 36.831-20.855 41.188-3.382 1.177-6.304 2.194-8.516 4.223z"/></g><g><path d="m407.573 299.306c-2.569-15.559 11.406-29.806 23.018-32.101 5.339-1.859 8.867-3.085 11.535-8.357l13.385 6.777c-8.466 19.963-33.286 10.68-33.042 31.898z"/></g><g><path d="m444.156 392.486-13.385-6.777c8.891-19.179 27.198-10.87 32.673-26.966l14.423 4.132c-7.427 24.337-26.129 16.364-33.711 29.611z"/></g></g></g></g><g/><g/><g/><g/><g/><g/><g/><g/><g/><g/><g/><g/><g/><g/><g/></svg>