<svg id="Layer_1" enable-background="new 0 0 512 512" viewBox="0 0 512 512" xmlns="http://www.w3.org/2000/svg"><g><g><g><g><g><path d="m344.339 151.002h60v45h-60z" fill="#f05475"/></g></g><g><g><path d="m344.339 151.001h20.936v45h-20.936z" fill="#e21743"/></g></g><g><g><path d="m464.339 241.001h-231.064l-31.424 119.997h262.488c5.336-10.005 15-31.338 15-59.997 0-28.66-9.664-49.994-15-60z" fill="#fee95d"/></g></g><g><g><path d="m294.499 338.233-37.694-97.231h-23.53l-31.424 119.997h262.488c3.32-6.225 7.66-22.766 7.66-22.766z" fill="#f7d700"/></g></g><g><g><path d="m119.339 361.002c-33.471 0-63.93-12.897-86.677-33.994l24.707-65.255c.649.061 1.305.1 1.97.1 11.516 0 20.851-9.335 20.851-20.851 0-6.927-3.391-13.046-8.589-16.838l44.738-118.162h64z" fill="#fcad42"/></g></g><g><g><path d="m119.339 361.001 25.366-106.041-39.173 82.638c-16.591-2.184-32.351-8.285-46.071-17.829l14.35-37.901c24.27-7.765 36.783-39.33 23.422-61.859l43.164-114.007h-24.058l-44.739 118.161c16.937 12.196 6.814 39.61-14.232 37.59l-24.707 65.255c22.748 21.096 53.207 33.993 86.678 33.993z" fill="#f69500"/></g></g><g><g><path d="m7.5 360.999h497v45h-497z" fill="#57758d"/></g></g><g><g><path d="m27.654 383.844v-22.845h-20.154v45h497v-22.155z" fill="#4b6276"/></g></g><g><g><path d="m223.947 218.492c-12.245-.21-22.109-10.195-22.109-22.49 0-6.442 2.712-12.249 7.052-16.35l-28.552-73.65h-3.819l-83.858 221.006c22.748 21.096 53.206 33.994 86.677 33.994s63.929-12.897 86.677-33.994z" fill="#fee95d"/></g></g><g><g><path d="m179.338 338.502c-21.608 0-42.411-6.577-59.897-18.746l70.877-188.012-9.98-25.743h-3.819l-83.858 221.007c44.554 44.681 128.803 44.677 173.354 0l-8.831-22.78c-20.179 21.525-48.182 34.455-77.846 34.274z" fill="#f7d700"/></g></g><g><g><path d="m149.339 315.46c-16.867 0-30.541 13.674-30.541 30.541 7.236 3.473 16.249 7.111 26.884 9.977 11.48 3.093 21.814 4.468 30.265 5.027.79-1.397 1.757-3.366 2.534-5.837.909-2.894 1.4-5.973 1.4-9.167-.001-16.867-13.675-30.541-30.542-30.541z" fill="#fcad42"/></g></g><g><g><path d="m151.809 333.747c-9.509-2.563-17.711-5.742-24.516-8.869-5.258 5.486-8.495 12.924-8.495 21.124 7.236 3.473 16.249 7.111 26.884 9.977 11.48 3.093 21.814 4.468 30.265 5.027.79-1.397 1.757-3.366 2.534-5.837.909-2.894 1.4-5.973 1.4-9.167 0-2.576-.323-5.077-.923-7.466-7.829-.677-17.043-2.066-27.149-4.789z" fill="#f69500"/></g></g><g><g><circle cx="179.339" cy="256.002" fill="#f69500" r="15"/></g></g><g><g><path d="m381.839 360.998h-75c-20.711 0-37.5-16.789-37.5-37.5 0-20.711 16.789-37.5 37.5-37.5h75c20.711 0 37.5 16.789 37.5 37.5 0 20.711-16.79 37.5-37.5 37.5z" fill="#fcad42"/></g></g><g><g><path d="m393.807 337.622h-75c-20.711 0-37.5-16.79-37.5-37.5 0-1.463.093-2.903.256-4.322-7.51 6.858-12.224 16.728-12.224 27.699 0 20.71 16.789 37.5 37.5 37.5h75c19.248 0 35.1-14.504 37.244-33.178-6.667 6.087-15.537 9.801-25.276 9.801z" fill="#f69500"/></g></g><g><g><path d="m301 308.502h15v15h-15z" fill="#fff"/></g></g><g><g><path d="m331 308.502h15v15h-15z" fill="#fff"/></g></g></g></g><g><path d="m476.192 353.498c5.608-13.318 10.646-31.195 10.646-52.496-.348-30.837-8.948-50.782-18-67.5h-117v-30h60v-60h-75v90h-99.028l-8.692-22.422c-18.231 3.216-27.054-19.559-11.413-29.44l-32.23-83.138h-74.316l-18.873 49.844 14.028 5.313 15.204-40.156h44.134l-81.795 215.568c10.014 9.687 21.317 18.173 33.55 24.409-27.984-.445-54.688-10.539-75.904-28.643l21.077-55.67c22.159-1.781 33.317-30.935 17.831-47.095l20.225-53.416-14.028-5.311-24.045 63.507c18.186 8.847 9.285 32.303-10.183 26.894l-28.52 75.327c10.023 9.695 21.336 18.185 33.581 24.424h-57.441v60h361v-15h-346v-30c.336.004 365.703 0 482 0v30h-120.894v15h135.894v-60h-35.808zm-124.354-194.996h45v30h-45zm107.904 90c5.921 12.199 12.097 30.258 12.097 52.5 0 22.249-6.182 40.296-12.105 52.496h-44.39c7.141-7.968 11.495-18.483 11.495-30 0-24.813-20.187-45-45-45h-75c-18.362 0-34.181 11.061-41.17 26.865l-22.043-56.861zm-281.259-126.536 21.773 56.163c-3.804 5.138-5.918 11.424-5.918 17.873 0 14.476 10.485 26.728 24.258 29.437l38.545 99.427c-19.84 16.919-44.472 26.833-70.463 28.409 4.737-23.098-13.734-45.569-37.34-45.314-16.683 0-30.882 10.8-35.999 25.772-4.101-2.706-8.056-5.669-11.833-8.893zm-7.263 231.263c-15.568-1.045-30.633-5.091-44.459-11.836 2.141-10.504 11.45-18.434 22.577-18.434 15.414-.261 26.926 15.748 21.882 30.27zm93.15-14.873c1.98 5.643 5.05 10.776 8.963 15.142h-32.097c8.159-4.214 15.912-9.276 23.134-15.142zm42.468 15.142c-16.542 0-30-13.458-30-30s13.458-30 30-30h75c16.542 0 30 13.458 30 30s-13.458 30-30 30z"/><path d="m179.338 278.502c12.407 0 22.5-10.094 22.5-22.5s-10.093-22.5-22.5-22.5-22.5 10.094-22.5 22.5 10.094 22.5 22.5 22.5zm0-30c4.136 0 7.5 3.364 7.5 7.5s-3.364 7.5-7.5 7.5-7.5-3.364-7.5-7.5 3.365-7.5 7.5-7.5z"/></g></g><g/><g/><g/><g/><g/><g/><g/><g/><g/><g/><g/><g/><g/><g/><g/></svg>