<svg id="Layer_1" enable-background="new 0 0 512 512" viewBox="0 0 512 512" xmlns="http://www.w3.org/2000/svg"><g><g><g><g><g><path d="m278.318 123.148c-64.197-64.198-179.754-128.396-243.951-64.198-67.159 68.539 7.224 187.33 64.198 243.952 27.007 27.006 63.143 39.319 98.474 36.939l117.927-139c-2.716-28.357-14.931-55.977-36.648-77.693z" fill="#fff"/></g></g><g><g><path d="m225.999 305.706-33.416 11.843c-29.148 1.145-57.454-9.902-78.158-30.605-40.198-41.697-134.01-166.732-73.609-233.867-77.974 66.156-1.14 191.719 57.748 249.824 27.006 27.007 63.142 39.32 98.473 36.939z" fill="#e3edf6"/></g></g><g><g><circle cx="182.859" cy="207.442" fill="#fee95d" r="75.002"/></g></g><g><g><path d="m145.668 243.633c-25.943-25.943-28.888-66.153-8.874-95.359-2.413 1.884-4.749 3.915-6.969 6.135-29.29 29.29-29.29 76.778 0 106.068s76.779 29.29 106.069 0c3.347-3.347 6.292-6.941 8.874-10.709-29.427 22.966-72.03 20.935-99.1-6.135z" fill="#f7d700"/></g></g><g><g><path d="m132.26 211.618c-.113-1.377-.171-2.783-.171-4.181 0-4.48.59-8.939 1.754-13.252l14.482 3.908c-.82 3.039-1.236 6.183-1.236 9.344 0 .988.04 1.98.12 2.95zm21.286-24.687-12.279-8.615c1.686-2.402 3.602-4.682 5.692-6.773 2.056-2.056 4.297-3.945 6.662-5.614l8.65 12.254c-1.668 1.178-3.251 2.512-4.704 3.966-1.48 1.479-2.833 3.088-4.021 4.782z" fill="#fff"/></g></g><g><g><path d="m477.633 198.461c-64.198-64.198-179.754 0-243.952 64.198-49.638 49.638-49.638 130.117 0 179.754s130.116 49.638 179.754 0c60.75-60.02 129.788-178.98 64.198-243.952z" fill="#fff"/></g></g><g><g><path d="m249.561 426.534c-47.633-47.633-49.548-123.662-5.762-173.588-3.492 3.227-6.873 6.47-10.117 9.713-49.638 49.638-49.638 130.117 0 179.754s130.116 49.638 179.754 0c3.352-3.312 6.73-6.813 10.108-10.465-49.92 44.144-126.224 42.345-173.983-5.414z" fill="#e3edf6"/></g></g><g><g><circle cx="329.141" cy="346.954" fill="#fcad42" r="75.002"/></g></g><g><g><path d="m293.326 382.769c-26.357-26.357-28.982-67.444-7.904-96.752-3.261 2.345-6.383 4.971-9.316 7.904-29.29 29.29-29.29 76.778 0 106.068s76.779 29.29 106.069 0c2.933-2.933 5.558-6.055 7.903-9.316-29.308 21.078-70.394 18.453-96.752-7.904z" fill="#f69500"/></g></g></g></g><g><path d="m271.334 288.683c-32.193 32.194-32.193 84.575 0 116.769 32.194 32.192 84.575 32.192 116.769 0 32.193-32.194 32.193-84.575 0-116.769-32.193-32.192-84.575-32.192-116.769 0zm106.153 106.153c-26.339 26.341-69.198 26.341-95.537 0-26.34-26.339-26.34-69.198 0-95.537 26.339-26.34 69.198-26.34 95.537 0 26.341 26.339 26.341 69.197 0 95.537z"/><path d="m483.638 193.148c-36.546-40.721-109.027-33.575-162.676-3.429-4.769-27.116-17.831-52.354-37.421-71.945-36.509-36.508-83.183-67.188-124.856-82.071-54.031-19.298-98.95-13.132-129.906 17.823-37.059 37.059-38.369 94.693-3.688 162.285l13.356-6.853c-18.22-35.511-42.325-101.545.948-144.817 33.557-33.559 80.645-26.299 114.241-14.301 39.682 14.172 84.277 43.537 119.289 78.55 18.627 18.627 30.601 42.997 34.022 69.007-14.99 8.677-29.915 18.809-44.152 29.989 6.718-27.177-.515-57.128-21.713-78.326-32.194-32.192-84.575-32.192-116.769 0-32.193 32.194-32.193 84.575 0 116.769 22.231 22.112 53.689 29.229 82.529 20.548-8.196 14.516-13.49 30.238-15.88 46.316-32.618.724-64.168-11.869-87.319-35.021-22.03-22.029-42.608-48.808-57.943-75.402l-13.005 7.498c15.973 27.701 37.399 55.586 60.331 78.52 25.64 25.633 60.509 39.827 96.554 39.435-1.311 36.122 11.78 72.674 39.294 100.188 52.525 52.524 137.988 52.524 190.513 0 11.366-11.366 22.321-23.871 32.56-37.167l-11.894-9.16c-9.847 12.787-20.371 24.801-31.282 35.711-46.67 46.672-122.611 46.672-169.281 0-46.672-46.671-46.672-122.61 0-169.281 57.61-54.473 161.807-127.578 233.531-64.248 58.149 58.148-3.24 156.218-23.44 184.891l12.272 8.646c37.376-48.832 79.416-150.978 21.785-204.155zm-348.708 62.065c-26.34-26.339-26.34-69.198 0-95.537 26.339-26.34 69.198-26.34 95.537 0 26.34 26.339 26.34 69.198 0 95.537-26.339 26.341-69.198 26.341-95.537 0z"/></g></g><g/><g/><g/><g/><g/><g/><g/><g/><g/><g/><g/><g/><g/><g/><g/></svg>