<svg id="Layer_1" enable-background="new 0 0 512 512" viewBox="0 0 512 512" xmlns="http://www.w3.org/2000/svg"><g><g><g><g><g><path d="m320.107 7.73v217.599h-120v279.401h270v-497z" fill="#aa4b30"/></g></g><g><g><g><path d="m223.16 464.78v-157.142l80.5-82.309h-103.553v279.401h270v-24.931h-232.327z" fill="#8d3d27"/></g></g></g><g><g><path d="m264.362 265.376 39.133-40.276h-67.682l-5.706 5.706v56.094h90v-21.524z" fill="#8d3d27"/></g></g><g><g><path d="m100.566 177.77h150v120h-150z" fill="#aa4b30" transform="matrix(.707 -.707 .707 .707 -116.707 193.785)"/></g></g><g><g><path d="m119.229 222.826h22.563v120h-22.563z" fill="#8d3d27" transform="matrix(.707 -.707 .707 .707 -161.763 175.123)"/></g></g><g><g><path d="m374.755 80.474-3.393-3.435v-37.11h-21.255v48.365l13.393 13.435h76.607v-21.255z" fill="#8d3d27"/></g></g><g><g><path d="m371.362 172.905v-40.276h-15.549l-5.706 5.706v56.094h90v-21.524z" fill="#8d3d27"/></g></g><g><g><path d="m371.362 265.376v-40.276h-15.549l-5.706 5.706v56.094h90v-21.524z" fill="#8d3d27"/></g></g><g><g><path d="m371.362 358.305v-40.276h-15.549l-5.706 5.706v56.094h90v-21.524z" fill="#8d3d27"/></g></g><g><g><path d="m371.362 451.234v-40.276h-15.549l-5.706 5.707v56.093h90v-21.524z" fill="#8d3d27"/></g></g><g><g><path d="m251.362 451.234v-40.276h-15.549l-5.706 5.707v56.093h90v-21.524z" fill="#8d3d27"/></g></g><g><g><path d="m251.362 358.305v-40.276h-15.549l-5.706 5.706v56.094h90v-21.524z" fill="#8d3d27"/></g></g><g><g><g><path d="m140.292 231.251h23.587v60h-23.587z" fill="#8d3d27" transform="matrix(.707 -.707 .707 .707 -140.187 184.058)"/></g></g></g><g><g><path d="m205.2 40.763h150v120h-150z" fill="#aa4b30" transform="matrix(.707 .707 -.707 .707 153.319 -168.619)"/></g></g><g><g><path d="m234.477 60.23h22.513v150h-22.513z" fill="#8d3d27" transform="matrix(.707 -.707 .707 .707 -23.649 213.368)"/></g></g><g><g><path d="m255.665 68.956h22.686v90h-22.686z" fill="#8d3d27" transform="matrix(.707 -.707 .707 .707 -2.374 222.18)"/></g></g><g><g><path d="m262.335 82.579h15v15h-15z" fill="#fff" transform="matrix(.707 -.707 .707 .707 15.338 217.186)"/></g></g><g><g><path d="m283.548 103.791h15v15h-15z" fill="#fff" transform="matrix(.707 -.707 .707 .707 6.554 238.406)"/></g></g><g><g><path d="m110.107 91.23h30v30h-30z" fill="#aa4b30"/></g></g><g><g><path d="m50.107 61.23h30v30h-30z" fill="#aa4b30" transform="matrix(.707 .707 -.707 .707 72.972 -23.71)"/></g></g></g></g><g><path d="m448.16 225.329-7.5-7.5h-90l-7.5 7.5v61.8l7.5 7.5h90l7.5-7.5zm-15 54.3h-75v-46.8h75z"/><path d="m448.16 318.029-7.5-7.5h-90l-7.5 7.5v61.8l7.5 7.5h90l7.5-7.5zm-15 54.3h-75v-46.8h75z"/><path d="m350.66 403.229-7.5 7.5v61.569l7.5 7.5h90l7.5-7.5v-61.569l-7.5-7.5zm82.5 61.57h-75v-46.569h75z"/><path d="m160.209 296.107h10.606l63.64-63.64v-10.607l-42.426-42.427h-10.606l-63.64 63.64v10.607zm26.517-100.763 31.82 31.82-53.033 53.033-31.82-31.82z"/><path d="m328.16 318.029-7.5-7.5h-90l-7.5 7.5v61.8l7.5 7.5h90l7.5-7.5zm-15 54.3h-75v-46.8h75z"/><path d="m230.66 403.229-7.5 7.5v61.569l7.5 7.5h90l7.5-7.5v-61.569l-7.5-7.5zm82.5 61.57h-75v-46.569h75z"/><path d="m478.16 388.528v-380.798l-7.5-7.5h-150l-7.5 7.5v30.532l-38.263-38.262h-10.606l-84.853 84.853v10.607l106.066 106.066h10.606l17.049-17.049v33.352h-40.309l-80.821-80.821h-10.606l-34.674 34.673 10.606 10.607 29.371-29.37 74.246 74.246-95.459 95.459-74.247-74.246 54.697-54.696-10.606-10.607-60 60v10.607l84.853 84.853h10.606l22.344-22.344v188.31l7.5 7.5h270l7.5-7.5v-101.143h-15v93.643h-255v-195.811l15-15 7.5 8.439h90l7.5-7.5v-61.8-55.852l15-15v39.952l7.5 7.5h90l7.5-7.5v-61.8l-7.5-7.5h-68.152l8.455-8.455v-7.444h59.697l7.5-7.5v-61.8l-7.5-7.5h-90l-7.5 7.5v28.334l-15-15v-38.033h135v373.298zm-165-108.899h-75v-8.439l38.361-38.361h36.639zm120-139.5v46.8h-75v-46.8zm-75-92.7h75v46.801h-64.034l-10.966-10.967zm6.893 63.941-74.246 74.246-95.459-95.46 74.246-74.246z"/><path d="m221.864 84.853v10.607l63.64 63.64h10.606l42.426-42.426v-10.607l-63.64-63.64h-10.606zm100.763 26.517-31.82 31.819-53.033-53.033 31.82-31.819z"/><path d="m148.16 83.73h-45v45h45zm-15 30h-15v-15h15z"/><path d="m65.66 44.411-31.82 31.819 31.82 31.82 31.82-31.82zm-10.607 31.819 10.607-10.606 10.606 10.606-10.606 10.607z"/></g></g><g/><g/><g/><g/><g/><g/><g/><g/><g/><g/><g/><g/><g/><g/><g/></svg>