<svg id="Layer_1" enable-background="new 0 0 512 512" viewBox="0 0 512 512" xmlns="http://www.w3.org/2000/svg"><g><g><g><g><g><path d="m349.776 7.806c-42.776 0-78.877 28.573-90.259 67.675l11.479 48.689 102.653-21.241c10.793-15.301 17.133-33.969 17.133-54.117v-41.006z" fill="#c3f839"/></g></g><g><g><path d="m238.313 43.271c-21.955-22.06-50.779-35.542-83.681-35.466l.207 30.363c47.622 0 86.157 38.535 86.157 86.157l14.977 12.915 15.023-13.071c0-31.45-12.445-59.966-32.683-80.898z" fill="#54e072"/></g></g><g><g><path d="m288.876 88.547c-3.65-13.842-9.413-27.021-17.149-39.112-5.32 7.914-9.482 16.672-12.211 26.045l11.479 48.689 102.653-21.241c4.467-6.333 8.157-13.25 10.965-20.602-31.897-8.289-65.512-6.199-95.737 6.221z" fill="#abe700"/></g></g><g><g><path d="m488.995 240.912c-1.988-20.033-5.106-60-50.951-104.079-51.846-48.388-131.98-50.211-182.157.367-50.18-50.578-130.312-48.754-182.156-.367-45.845 44.079-48.962 84.045-50.951 104.079-9.881 99.553 81.886 214.064 233.002 263.282 122.442-34.947 247.45-153.699 233.213-263.282z" fill="#f88fa4"/></g></g><g><g><path d="m41.354 226.338c1.988-20.033 5.106-60 50.951-104.079.036-.033.072-.065.108-.099-6.535 4.287-12.792 9.176-18.682 14.673-45.845 44.079-48.962 84.045-50.951 104.079-9.881 99.553 81.886 214.064 233.002 263.282l18.574-14.574c-151.116-49.218-242.883-163.729-233.002-263.282z" fill="#f05475"/></g></g><g><g><path d="m72.27 202.219-13.683-6.146c2.174-4.84 4.654-9.578 7.372-14.082l12.844 7.748c-2.407 3.989-4.605 8.188-6.533 12.48zm14.525-24.047-11.784-9.281c3.304-4.194 6.89-8.191 10.659-11.878l10.489 10.723c-3.308 3.236-6.459 6.747-9.364 10.436z" fill="#fff"/></g></g></g></g><g><path d="m496.626 239.971c-2.046-21.682-5.736-62.864-53.321-108.868-17.129-15.987-36.95-27.048-57.704-33.202 8.396-15.038 12.804-31.906 12.804-49.373v-48.528h-48.527c-22.423 0-43.68 7.164-61.474 20.717-12.507 9.526-22.664 21.961-29.602 35.972-4.347-6.717-9.372-13.055-15.043-18.92l-10.787 10.431c18.873 19.52 29.626 44.982 30.52 72.047-2.573 2.006-5.09 4.118-7.544 6.338-2.436-2.203-4.933-4.299-7.486-6.291-1.894-47.431-39.204-85.909-86.153-89.623l-.105-15.411c21.647 1.46 41.994 9.196 59.238 22.594l9.207-11.851c-21.895-17.012-48.176-26.003-76.001-26.003l-7.503 7.554.207 30.377 7.503 7.453c38.376 0 70.405 27.62 77.3 64.022-50.96-28.824-117.144-21.627-163.563 21.698-47.578 45.991-51.117 87.219-53.32 108.868-9.871 128.296 117.245 233.77 240.563 272.028 27.607-8.787 54.271-20.068 78.84-33.437l-7.167-13.184c-22.408 12.181-46.505 22.55-71.657 30.836-115.184-37.201-235.198-135.987-225.529-255.949 1.958-19.894 5.601-56.916 48.548-98.228 50.671-47.348 127.667-46.35 173.689 2.156 29.463 30.608 43.216 62.243 43.216 99.352h15.007c0-39.846-14.082-73.814-44.184-106.341 46.637-41.617 118.327-40.028 166.429 4.833 43.549 42.212 46.546 78.13 48.667 99.419 7.533 75.622-47.206 160.214-139.453 215.51l7.715 12.871c83.636-50.586 154.861-133.852 146.67-229.867zm-184.893-143.506 30.524-30.524-10.611-10.612-53.936 53.936c-1.455-12.397-4.754-24.393-9.752-35.654 11.834-34.694 44.973-58.605 81.922-58.605h33.521v33.521c0 16.33-4.519 32.043-13.087 45.753-19.561-3.488-39.554-2.763-58.581 2.185z"/></g></g><g/><g/><g/><g/><g/><g/><g/><g/><g/><g/><g/><g/><g/><g/><g/></svg>