<svg id="Layer_1" enable-background="new 0 0 512 512" viewBox="0 0 512 512" xmlns="http://www.w3.org/2000/svg"><g><g><g><g><g><path d="m8 263.67v107.117c0 23.684 19.199 42.883 42.883 42.883h199.234c9.095 0 17.53-2.832 24.469-7.662l27.268-142.338z" fill="#c3f839"/></g></g><g><g><path d="m273.414 390.374h-221.515c-11.378 0-20.602-9.224-20.602-20.603v-106.101h-23.297v107.117c0 23.684 19.199 42.883 42.883 42.883h199.234c9.095 0 17.53-2.832 24.469-7.662l3.036-15.847c-1.386.136-2.788.213-4.208.213z" fill="#abe700"/></g></g><g><g><path d="m248 98.67h-194.383l-45.617 105v60h293.854v-41.489z" fill="#ffdaaa"/></g></g><g><g><path d="m31.067 205.67 46.486-107h-23.936l-45.617 105v60h23.067z" fill="#ffb680"/></g></g><g><g><path d="m315.5 428.67h120v30h-120z" fill="#8ad8f6"/></g></g><g><g><g><path d="m441.361 199.543c-.14.035-.28.07-.419.105-7.886 1.997-13.297 7.727-15.51 14.493l49.653 29.13c1.273-1.966 2.264-4.198 2.888-6.671.071-.283.142-.566.213-.851 3.989-16.109 5.353-30.473 5.635-41.919-11.547.254-26.113 1.614-42.46 5.713z" fill="#e21743"/></g></g><g><g><path d="m310.629 199.648c-.139-.035-.279-.07-.419-.105-16.348-4.099-30.914-5.458-42.459-5.712.282 11.446 1.646 25.81 5.635 41.919.071.284.141.568.213.851.624 2.473 1.615 4.705 2.888 6.671l49.653-29.13c-2.214-6.767-7.625-12.497-15.511-14.494z" fill="#e21743"/></g></g></g><g><g><path d="m470.468 238.336c-6.567-5.511-14.911-7.49-22.752-6.175-2.779-7.453-8.677-13.69-16.738-16.625-8.057-2.933-16.581-1.949-23.499 1.97h-63.959c-6.918-3.919-15.442-4.903-23.499-1.97-8.061 2.934-13.959 9.171-16.738 16.625-7.841-1.315-16.184.664-22.752 6.175-6.567 5.51-9.966 13.384-10.032 21.334v4h210v-4c-.065-7.95-3.463-15.823-10.031-21.334z" fill="#fef2e2"/></g></g><g><g><path d="m277.594 241.202c-4.636 5.208-7.039 11.809-7.094 18.468v4h210v-4c-.055-6.66-2.458-13.26-7.094-18.468l-17.556-9.215-14.084 9.215h-133.043l-10.343-9.426z" fill="#ffe1ba"/></g></g><g><g><path d="m38 53.67h225v45h-225z" fill="#c3f839"/></g></g><g><g><path d="m150.84 158.67c-12.238 0-22.16-9.921-22.16-22.16v-82.84h44.32v82.84c0 12.239-9.921 22.16-22.16 22.16z" fill="#f05475"/></g></g><g><g><path d="m150.84 136.202c-12.238 0-22.159-9.921-22.159-22.16v22.468c0 12.238 9.921 22.16 22.159 22.16 12.239 0 22.16-9.921 22.16-22.16v-22.468c0 12.239-9.921 22.16-22.16 22.16z" fill="#e21743"/></g></g><g><g><path d="m38 53.67h22.5v45h-22.5z" fill="#abe700"/></g></g><g><g><path d="m203.065 263.381c0 28.995-23.505 52.5-52.5 52.5v-75.817c0-18.289 21.691-27.877 35.243-15.596 10.6 9.606 17.257 23.482 17.257 38.913z" fill="#fef2e2"/></g></g><g><g><path d="m172.983 240.064c0-7.959 4.11-14.268 9.867-17.846-13.527-8.635-32.286.837-32.286 17.846v75.817c8.021 0 15.619-1.806 22.418-5.022v-70.795z" fill="#ffe1ba"/></g></g><g><g><path d="m97.935 263.381c0 28.995 23.505 52.5 52.5 52.5v-75.817c0-18.289-21.691-27.877-35.243-15.596-10.6 9.606-17.257 23.482-17.257 38.913z" fill="#fef2e2"/></g></g><g><g><path d="m109.294 241.524c0-4.34.544-8.551 1.537-12.585-8.025 9.22-12.896 21.259-12.896 34.442 0 28.995 23.505 52.5 52.5 52.5v-23.103c-23.532-5.192-41.141-26.16-41.141-51.254z" fill="#ffe1ba"/></g></g><g><g><path d="m248.032 263.667v81.105c0 46.333 37.561 83.895 83.895 83.895h88.178c46.334 0 83.895-37.561 83.895-83.895v-81.105z" fill="#8ad8f6"/></g></g><g><g><path d="m463.641 406.193h-130.302c-34.702 0-62.839-28.131-62.839-62.833v-79.693h-22.468v81.105c0 46.333 37.561 83.895 83.895 83.895h88.178c23.098 0 44.012-9.337 59.184-24.439-5.003 1.282-10.246 1.965-15.648 1.965z" fill="#54c9f3"/></g></g><g><g><path d="m270.5 286.17h15v15h-15z" fill="#fff"/></g></g><g><g><path d="m300.5 286.17h45v15h-45z" fill="#fff"/></g></g><g><g><path d="m375.67 178.691c-10.05 10.479-22.036 24.997-32.829 43.136-10.994 18.447 2.435 41.843 23.91 41.843h17.754c21.512 0 34.897-23.442 23.871-41.913-10.635-17.869-22.714-32.609-32.706-43.066z" fill="#f05475"/></g></g><g><g><path d="m366.751 241.17c-4.237-.161-6.586-4.124-4.575-7.837 9.831-16.519 20.571-29.328 28.297-37.554-5.147-6.527-10.197-12.267-14.803-17.087-10.05 10.479-22.036 24.997-32.829 43.136-10.994 18.448 2.435 41.843 23.91 41.843h17.754c14.21 0 24.868-10.232 27.292-22.5h-45.046z" fill="#e21743"/></g></g></g></g><g><path d="m44.713 323.702h45v15h-45z"/><path d="m44.713 353.702h75v15h-75z"/><path d="m488.297 255.998c-.489-4.674-1.879-9.164-4.075-13.232 5.215-15.664 6.954-32.464 7.597-48.92l-7.662-7.683c-14.869.325-29.713 2.322-44.114 5.934-8.066 1.917-14.834 7.049-18.821 14.088-4.007.073-7.991.817-11.784 2.23-8.212-12.471-17.534-24.242-27.834-35.064l-10.851-.015c-10.372 10.837-19.741 22.638-27.983 35.16-3.674-1.395-7.529-2.169-11.414-2.302-7.035-13.571-23.49-15.541-37.155-17.768l-35.327-82.426h11.126v-60h-240v60h11.681l-14.994 34.512 13.758 5.977 17.591-40.489h62.645v30.341c0 16.354 13.306 29.659 29.66 29.659s29.659-13.305 29.659-29.659v-30.341h62.555l34.526 80.561c-2.886-.189-5.775-.334-8.667-.398l-7.662 7.684c1.068 18.791 5.488 43.936 7.367 48.324-2.387 4.225-3.903 8.922-4.416 13.827h-22.671v.002h-31.421c-1.733-14.236-8.531-27.529-19.267-37.26-11.966-11.471-30.21-8.702-40.344 1.943-10.133-10.645-28.375-13.416-40.343-1.943-10.737 9.731-17.535 23.024-19.268 37.26h-75.389v-50.941l18.929-43.57-13.758-5.977-20.171 46.429v168.676c0 27.781 22.602 50.383 50.383 50.383h199.234c8.583 0 16.885-2.15 24.299-6.244 9.96 8.321 21.712 14.563 34.584 18.058v33.186h135v-32.906c39.352-10.188 68.5-45.999 68.5-88.491v-88.604h-23.703zm-323.297-194.998v30h-29.319v-30zm-120 30v-30h75.681v30zm120 45.341c0 8.083-6.576 14.659-14.659 14.659-8.084 0-14.66-6.576-14.66-14.659v-30.341h29.319zm15-45.341v-30h75v30zm248.913 131.415c8.357 2.87 11.95 10.093 14.439 17.998l6.105-1.024c10.812-2.049 21.96 5.796 23.701 16.609h-59.3c7.161-10.083 8.457-23.233 3.484-34.316 3.812-.858 7.822-.632 11.571.733zm14.372-15.667c10.854-2.747 21.975-4.502 33.166-5.237-.648 9.54-2.029 19.034-4.123 28.354-5.821-3.791-12.615-5.794-19.554-5.764-3.55-6.208-8.888-11.202-15.343-14.338 1.652-1.404 3.621-2.45 5.854-3.015zm-93.232 18.299c7.545-12.595 16.305-24.494 26.104-35.464 9.864 11.097 18.686 23.125 26.28 35.85 8.24 12.785-2.198 31.056-17.372 30.565h-17.874c-15.474.393-25.762-18.073-17.138-30.951zm-41.174-18.401c2.264.515 4.344 1.541 6.046 2.939-6.616 3.124-12.083 8.192-15.699 14.515-6.74-.029-13.346 1.858-19.053 5.44-2.053-9.214-3.412-18.599-4.052-28.03 11.051.727 22.038 2.448 32.758 5.136zm-23.026 37.266c4.621-3.88 10.702-5.527 16.689-4.523l6.105 1.024 2.163-5.801c3.371-9.583 14.284-15.389 24.075-12.88-4.958 11.06-3.657 24.193 3.505 34.266h-59.55c.858-4.699 3.31-8.979 7.013-12.086zm-128.288-4.018c-.447-11.434 14.468-18.106 22.706-10.038 9.401 8.521 14.794 20.679 14.794 33.355 0 22.258-16.244 40.794-37.5 44.375zm-37.836-10.039c8.237-8.07 23.155-1.394 22.706 10.038v67.692c-21.256-3.581-37.5-22.117-37.5-44.375 0-12.676 5.392-24.834 14.794-33.355zm308.771 221.145h-105v-15.438c2.938.286 5.915.437 8.927.437h88.179c2.66 0 5.292-.121 7.895-.345v15.346zm68.5-106.397c0 42.125-34.271 76.396-76.395 76.396h-88.179c-42.124 0-76.395-34.271-76.395-76.396v-21.104h-15v21.104c0 22.437 8.131 43.006 21.595 58.929-4.106 1.625-8.502 2.468-13.01 2.468h-199.233c-19.51 0-35.383-15.873-35.383-35.383v-99.617h75.457c3.513 26.959 24.979 48.341 51.978 51.726v15.774h15v-15.289-.469c27.061-3.332 48.59-24.739 52.108-51.742h31.489v37.499h15v-37.499l240.968-.002z"/></g></g><g/><g/><g/><g/><g/><g/><g/><g/><g/><g/><g/><g/><g/><g/><g/></svg>