<svg id="Layer_1" enable-background="new 0 0 512 512" viewBox="0 0 512 512" xmlns="http://www.w3.org/2000/svg"><g><g><g><g><g><circle cx="189.039" cy="188.986" fill="#54e072" r="180"/></g></g><g><g><path d="m205.936 346.167c-99.411 0-180.993-73.675-180.993-173.086 0-45.658 17.009-87.338 45.024-119.071-37.358 32.982-60.928 81.223-60.928 134.976 0 99.411 80.589 180 180 180 53.753 0 101.994-23.57 134.976-60.929-31.734 28.015-72.421 38.11-118.079 38.11z" fill="#00ca0f"/></g></g><g><g><circle cx="188.039" cy="188.986" fill="#c3f839" r="150"/></g></g><g><g><path d="m203.445 323.579c-82.843 0-150-67.157-150-150 0-37.5 13.762-71.786 36.51-98.083-31.797 27.504-51.916 68.148-51.916 113.49 0 82.843 67.157 150 150 150 45.343 0 85.985-20.119 113.49-51.917-26.298 22.748-60.583 36.51-98.084 36.51z" fill="#abe700"/></g></g><g><g><path d="m172.889 179.29v-80.197c-42.497 7.831-74.701 45.047-74.701 89.809 0 10.696 1.856 20.956 5.233 30.494z" fill="#fef2e2"/></g></g><g><g><path d="m119.077 181.004c0-35.083 19.785-65.524 48.8-80.822-39.989 9.73-69.689 45.738-69.689 88.721 0 10.696 1.855 20.956 5.233 30.494l19.733-11.393c-2.641-8.534-4.077-17.598-4.077-27z" fill="#ffe1ba"/></g></g><g><g><path d="m203.189 179.29 69.467 40.107c3.378-9.539 5.233-19.798 5.233-30.494 0-44.762-32.204-81.978-74.701-89.809v80.196z" fill="#fef2e2"/></g></g><g><g><path d="m225.344 165.928v-59.709c-6.953-3.267-14.379-5.693-22.156-7.126v80.197l69.467 40.106c2.613-7.378 4.302-15.191 4.939-23.301z" fill="#ffe1ba"/></g></g><g><g><path d="m188.039 207.128-69.442 40.092c16.755 19.596 41.639 32.033 69.442 32.033s52.687-12.437 69.442-32.033z" fill="#fef2e2"/></g></g><g><g><path d="m200.294 261.111c-24.255 0-46.287-9.467-62.64-24.894l-19.057 11.003c16.755 19.596 41.639 32.033 69.442 32.033s52.687-12.437 69.442-32.033l-4.702-2.714c-14.849 10.455-32.944 16.605-52.485 16.605z" fill="#ffe1ba"/></g></g><g><g><circle cx="323.961" cy="323.961" fill="#54e072" r="180"/></g></g><g><g><path d="m339.866 488.057c-99.411 0-180-80.589-180-180 0-45.658 17.009-87.338 45.024-119.071-37.359 32.982-60.929 81.223-60.929 134.976 0 99.411 80.589 180 180 180 53.753 0 101.994-23.57 134.976-60.929-31.733 28.015-73.413 45.024-119.071 45.024z" fill="#00ca0f"/></g></g><g><g><circle cx="323.961" cy="323.961" fill="#c3f839" r="150"/></g></g><g><g><path d="m339.368 458.555c-82.843 0-150-67.157-150-150 0-37.5 13.762-71.786 36.51-98.083-31.797 27.505-51.917 68.148-51.917 113.49 0 82.843 67.157 150 150 150 45.343 0 85.985-20.119 113.49-51.917-26.297 22.747-60.583 36.51-98.083 36.51z" fill="#abe700"/></g></g><g><g><path d="m94.306 125.725-12.484-8.316c2.932-4.4 6.174-8.665 9.635-12.676l11.355 9.801c-3.057 3.54-5.918 7.306-8.506 11.191zm18.335-21.243-10.051-11.134c3.932-3.55 8.124-6.886 12.458-9.914l8.592 12.295c-3.827 2.673-7.527 5.619-10.999 8.753z" fill="#fff"/></g></g><g><g><path d="m308.811 314.265v-80.196c-42.497 7.831-74.701 45.047-74.701 89.809 0 10.696 1.855 20.956 5.233 30.494z" fill="#fef2e2"/></g></g><g><g><path d="m255 315.979c0-35.083 19.785-65.524 48.8-80.822-39.989 9.73-69.689 45.738-69.689 88.721 0 10.696 1.855 20.956 5.233 30.494l19.733-11.393c-2.641-8.534-4.077-17.597-4.077-27z" fill="#ffe1ba"/></g></g><g><g><path d="m339.111 314.265 69.467 40.107c3.378-9.539 5.233-19.798 5.233-30.494 0-44.762-32.204-81.978-74.701-89.809v80.196z" fill="#fef2e2"/></g></g><g><g><path d="m361.267 300.904v-59.709c-6.953-3.267-14.379-5.693-22.156-7.126v80.197l69.467 40.106c2.613-7.378 4.302-15.191 4.939-23.301z" fill="#ffe1ba"/></g></g><g><g><path d="m323.961 342.104-69.442 40.092c16.755 19.596 41.639 32.033 69.442 32.033s52.687-12.437 69.442-32.033z" fill="#fef2e2"/></g></g><g><g><path d="m336.217 396.087c-24.255 0-46.287-9.467-62.64-24.894l-19.057 11.003c16.755 19.596 41.639 32.033 69.442 32.033s52.687-12.437 69.442-32.033l-4.702-2.714c-14.849 10.455-32.944 16.605-52.485 16.605z" fill="#ffe1ba"/></g></g></g></g><g><path d="m324.5 167c-86.846 0-157.5 70.654-157.5 157.5s70.654 157.5 157.5 157.5 157.5-70.654 157.5-157.5-70.654-157.5-157.5-157.5zm0 300c-78.575 0-142.5-63.925-142.5-142.5s63.925-142.5 142.5-142.5 142.5 63.925 142.5 142.5-63.925 142.5-142.5 142.5z"/><path d="m369.558 142.486c-9.725-39.4-32.398-75.07-64.144-100.776-33.216-26.897-75.092-41.71-117.914-41.71-103.388 0-187.5 84.112-187.5 187.5 0 42.822 14.813 84.699 41.711 117.916 25.706 31.744 61.376 54.417 100.775 64.143 20.23 81.694 94.156 142.441 182.014 142.441 103.388 0 187.5-84.112 187.5-187.5 0-87.858-60.747-161.784-142.442-182.014zm-354.558 45.014c0-95.117 77.383-172.5 172.5-172.5 76.423 0 144.435 51.626 165.634 124.184-5.352-.824-10.781-1.407-16.27-1.766-10.104-30.086-29.578-57.02-55.125-76.124-27.374-20.473-59.962-31.294-94.239-31.294-86.846 0-157.5 70.654-157.5 157.5 0 34.411 10.898 67.102 31.517 94.537 19.095 25.409 45.928 44.754 75.901 54.823.359 5.49.942 10.921 1.766 16.273-72.558-21.198-124.184-89.21-124.184-165.633zm122.047 133.321c-55.424-20.853-92.047-73.323-92.047-133.321 0-78.575 63.925-142.5 142.5-142.5 59.909 0 112.455 36.647 133.32 92.047-15.94.309-31.397 2.617-46.135 6.683-13.78-27.982-39.821-47.812-70.675-53.498l-8.859 7.376v80.196l4.506 6.932c-4.471 3.998-8.736 8.217-12.806 12.621l-72.542 41.883-1.95 11.369c8.658 10.126 19.398 18.485 31.284 24.398-4.012 14.641-6.29 29.99-6.596 45.814zm123.17-172.467c-35.131 13.242-50.066 28.306-50.066 28.306v-69.542c21.537 6.435 39.55 21.244 50.066 41.236zm-130.155 99.112 33.747-19.484c-6.178 10.247-11.406 21.128-15.556 32.523-6.589-3.51-12.732-7.907-18.191-13.039zm194.438 249.534c-95.117 0-172.5-77.383-172.5-172.5s77.383-172.5 172.5-172.5 172.5 77.383 172.5 172.5-77.383 172.5-172.5 172.5z"/><path d="m316.85 314.804v-80.196l-8.859-7.376c-46.843 8.631-80.842 49.503-80.842 97.185 0 11.282 1.906 22.385 5.665 32.998l10.819 3.991 69.467-40.106zm-15-4.33-57.471 33.181c-1.482-6.286-2.23-12.727-2.23-19.238 0-37.372 24.619-69.812 59.701-80.3z"/><path d="m341.009 227.231-8.859 7.376v80.196l3.75 6.495 69.467 40.106 10.819-3.991c3.759-10.613 5.665-21.716 5.665-32.998 0-47.681-33.999-88.553-80.842-97.184zm63.611 116.423-57.471-33.181v-66.357c35.082 10.488 59.701 42.928 59.701 80.3.001 6.512-.747 12.952-2.23 19.238z"/><path d="m364.75 357.22-7.5 12.99 24.693 14.258c-15.489 14.584-35.97 22.799-57.443 22.799-21.475 0-41.955-8.215-57.444-22.799l57.444-33.166 17.749 10.248 7.5-12.99-21.499-12.413h-7.5l-69.442 40.093-1.95 11.369c18.832 22.025 46.221 34.658 75.143 34.658 28.921 0 56.31-12.633 75.142-34.658l-1.95-11.369z"/><path d="m317 369.5h15v22.5h-15z"/><path d="m361.963 288.875h22.5v15h-22.5z" transform="matrix(.866 -.5 .5 .866 -98.187 226.316)"/><path d="m268.286 285.125h15v22.5h-15z" transform="matrix(.5 -.866 .866 .5 -118.776 387.023)"/><path d="m90.149 187.417c0 11.282 1.906 22.385 5.665 32.998l10.819 3.991 69.467-40.106 3.75-6.495v-29.14h-15v24.81l-57.471 33.181c-1.482-6.286-2.23-12.727-2.23-19.238 0-37.372 24.619-69.812 59.701-80.3v26.548h15v-36.058l-8.859-7.376c-46.843 8.631-80.842 49.503-80.842 97.185z"/><path d="m131.287 148.125h15v22.5h-15z" transform="matrix(.5 -.866 .866 .5 -68.63 199.879)"/></g></g><g/><g/><g/><g/><g/><g/><g/><g/><g/><g/><g/><g/><g/><g/><g/></svg>