<svg id="Layer_1" enable-background="new 0 0 512 512" viewBox="0 0 512 512" xmlns="http://www.w3.org/2000/svg"><g><g><g><g><g><path d="m376 120.74c-62.132 0-112.5 50.368-112.5 112.5 0 29.143 11.081 55.028 29.26 75.011h167.084c17.82-19.905 28.656-46.192 28.656-75.011 0-62.133-50.368-112.5-112.5-112.5z" fill="#57758d"/></g></g><g><g><path d="m464.208 303.216c4.351-5.598 8.615-11.809 11.671-18.169-31.46.002-167.504-.004-173.459-.003-35.682-49.148-17.019-127.536 34.282-157.131-70.954 22.677-98.919 124.195-43.851 180.456 41.922-.042 124.867.046 166.984-.014 1.502-1.524 3.051-3.51 4.373-5.139z" fill="#4b6276"/></g></g><g><g><path d="m446.198 210.427c6.923-18.363-7.231-37.825-26.834-36.896-5.205-18.902-28.048-26.319-43.364-14.079-15.316-12.239-38.158-4.823-43.364 14.079-19.603-.929-33.758 18.533-26.834 36.896-16.402 10.778-16.402 34.848 0 45.625-6.923 18.364 7.231 37.825 26.834 36.896 1.826 6.63 5.821 11.847 10.901 15.298h64.925c5.08-3.451 9.076-8.668 10.902-15.298 19.603.929 33.758-18.533 26.834-36.896l.05-.033c16.359-10.803 16.331-34.825-.05-45.592z" fill="#fff"/></g></g><g><g><path d="m419.095 293.776c-1.677-3.036-3.398-5.466-5.114-8.54-59.028 6.66-106.362-57.257-83.328-111.726-4.871.11-9.354 1.486-13.202 3.773-4.672 4.659-8.785 9.877-12.221 15.553-1.691 5.483-1.689 11.593.572 17.59-16.344 10.684-16.403 34.891 0 45.625-6.923 18.364 7.231 37.825 26.834 36.896 1.826 6.63 5.821 11.847 10.901 15.298h64.925c4.863-3.302 8.71-8.239 10.633-14.469z" fill="#e3edf6"/></g></g><g><g><path d="m338.742 254.75 37.258 21.511 37.258-21.51v-43.021c-6.679 7.337-16.357 16.43-29.522 24.679-17.354 10.87-33.75 15.878-44.994 18.341z" fill="#f05475"/></g></g><g><g><path d="m376 190.218-37.258 21.511c5.693.652 16.55 2.691 27.534 10.277 7.692 5.312 12.61 11.384 15.492 15.609 5.653-3.417 11.998-7.791 18.537-13.357 5.225-4.448 9.519-8.758 12.952-12.529-12.419-7.17-24.838-14.34-37.257-21.511z" fill="#f7d700"/></g></g><g><g><path d="m338.742 211.729v43.021c10.781-2.355 26.37-7.073 43.026-17.135-2.817-4.256-8.426-11.523-17.937-17.415-10.215-6.328-19.924-7.967-25.089-8.471z" fill="#abe700"/></g></g><g><g><path d="m136 120.74c-62.132 0-112.5 50.368-112.5 112.5 0 29.143 11.081 55.028 29.26 75.011h167.084c17.82-19.905 28.656-46.192 28.656-75.011 0-62.133-50.368-112.5-112.5-112.5z" fill="#57758d"/></g></g><g><g><path d="m224.208 303.216c4.351-5.598 8.615-11.809 11.671-18.169-31.46.002-167.504-.004-173.459-.003-35.682-49.148-17.019-127.536 34.282-157.131-70.954 22.677-98.919 124.195-43.852 180.456 41.922-.042 124.867.046 166.984-.014 1.503-1.524 3.052-3.51 4.374-5.139z" fill="#4b6276"/></g></g><g><g><path d="m206.198 210.427c6.923-18.363-7.231-37.825-26.834-36.896-5.205-18.902-28.048-26.319-43.364-14.079-15.316-12.239-38.158-4.823-43.364 14.079-19.603-.929-33.758 18.533-26.834 36.896-16.402 10.778-16.402 34.848 0 45.625-6.923 18.364 7.231 37.825 26.834 36.896 1.826 6.63 5.821 11.847 10.901 15.298h64.925c5.08-3.451 9.076-8.668 10.902-15.298 19.603.929 33.758-18.533 26.834-36.896l.05-.033c16.359-10.803 16.331-34.825-.05-45.592z" fill="#fff"/></g></g><g><g><path d="m179.095 293.776c-1.677-3.036-3.398-5.466-5.114-8.54-59.028 6.66-106.362-57.257-83.328-111.726-4.871.11-9.354 1.486-13.202 3.773-4.672 4.659-8.785 9.877-12.221 15.553-1.691 5.483-1.689 11.593.572 17.59-16.344 10.684-16.403 34.891 0 45.625-6.923 18.364 7.231 37.825 26.834 36.896 1.826 6.63 5.821 11.847 10.901 15.298h64.925c4.863-3.302 8.71-8.239 10.633-14.469z" fill="#e3edf6"/></g></g><g><g><path d="m7.5 308.26v5.115l53.5 77.885h390l53.5-77.885v-5.115z" fill="#fcad42"/></g></g><g><g><path d="m461.927 368.333h-390l-41.265-60.073h-23.162v5.115l53.5 77.885h390l53.5-77.885v-5.115h-1.308z" fill="#f69500"/></g></g><g><g><path d="m61 330.739h15v15h-15z" fill="#fff"/></g></g><g><g><path d="m91.033 330.739h15v15h-15z" fill="#fff"/></g></g><g><g><path d="m98.742 254.75 37.258 21.511 37.258-21.51v-43.021c-6.679 7.337-16.357 16.43-29.522 24.679-17.354 10.87-33.75 15.878-44.994 18.341z" fill="#f05475"/></g></g><g><g><path d="m136 190.218-37.258 21.511c5.693.652 16.55 2.691 27.534 10.277 7.692 5.312 12.61 11.384 15.492 15.609 5.653-3.417 11.998-7.791 18.537-13.357 5.225-4.448 9.519-8.758 12.952-12.529-12.419-7.17-24.838-14.34-37.257-21.511z" fill="#f7d700"/></g></g><g><g><path d="m98.742 211.729v43.021c10.781-2.355 26.37-7.073 43.026-17.135-2.817-4.256-8.426-11.523-17.937-17.415-10.215-6.328-19.924-7.967-25.089-8.471z" fill="#abe700"/></g></g></g></g><g><path d="m475.205 300.761c13.493-19.802 20.795-43.27 20.795-67.522 0-41.42-20.932-79.372-55.992-101.521l-8.012 12.682c30.685 19.384 49.004 52.595 49.004 88.839 0 24.788-8.732 48.627-24.618 67.521 0 0-31.804.173-31.724 0 19.557-1.71 34.516-22.783 30.12-41.918 14.812-12.891 14.811-38.313 0-51.205 4.394-19.132-10.56-39.7-30.119-41.41-7.699-18.037-31.833-25.872-48.66-15.795-16.823-10.073-40.961-2.246-48.66 15.794-19.555 1.712-34.515 22.275-30.119 41.409-14.81 12.887-14.811 38.32 0 51.207-4.395 19.132 10.561 40.208 30.12 41.918.079.173-31.723 0-31.723 0-15.885-18.893-24.617-42.733-24.617-67.521 0-57.897 47.103-105 105-105 14.603 0 28.733 2.938 41.998 8.735l6.006-13.746c-15.17-6.628-31.321-9.989-48.004-9.989-66.168 0-120 53.832-120 120 0 24.252 7.302 47.72 20.795 67.521h-41.59c13.493-19.802 20.795-43.27 20.795-67.521 0-66.168-53.832-120-120-120s-120 53.832-120 120c0 24.278 7.293 47.724 20.787 67.521h-36.787v14.943l57.053 83.057h63.947v-15h-56.053l-46.71-68h475.525l-46.71 68h-311.052v15h318.947l57.053-83.056v-14.943zm-136.931-15.588c-8.996.947-17.287.073-22.936-7.85-5.787-7.755-4.071-16.023-.4-24.243-7.834-4.524-14.028-10.11-13.937-19.84-.089-9.737 6.095-15.309 13.936-19.842-3.668-8.209-5.385-16.494.4-24.243 5.653-7.918 13.938-8.794 22.936-7.85 1.896-8.835 5.3-16.446 14.569-19.358 9.149-3.098 16.48 1.086 23.157 7.105 6.668-6.015 14.016-10.201 23.158-7.105 9.273 2.917 12.668 10.515 14.568 19.359 8.992-.947 17.288-.069 22.936 7.85 5.786 7.755 4.071 16.022.401 24.242 7.824 4.522 14.018 10.102 13.937 19.82.099 9.716-6.079 15.337-13.943 19.85 3.671 8.213 5.395 16.502-.395 24.255-5.657 7.929-13.927 8.794-22.937 7.849-1.296 5.623-3.203 11.806-7.709 15.588h-60.033c-4.507-3.782-6.41-9.959-7.708-15.587zm-307.274-51.934c0-57.897 47.103-105 105-105s105 47.103 105 105c0 24.788-8.732 48.627-24.618 67.521 0 0-31.803.173-31.724 0 19.557-1.71 34.516-22.783 30.12-41.918 14.812-12.891 14.811-38.313 0-51.205 4.394-19.132-10.56-39.7-30.119-41.41-7.699-18.038-31.833-25.872-48.66-15.795-16.824-10.073-40.961-2.246-48.66 15.794-19.555 1.712-34.515 22.275-30.119 41.409-14.81 12.887-14.811 38.32 0 51.207-4.395 19.132 10.561 40.208 30.12 41.918.079.173-31.747 0-31.747 0-15.885-18.895-24.593-42.709-24.593-67.521zm67.274 51.934c-8.995.947-17.286.073-22.936-7.85-5.787-7.755-4.071-16.023-.4-24.243-7.834-4.524-14.028-10.11-13.937-19.84-.089-9.737 6.095-15.309 13.936-19.842-3.668-8.209-5.385-16.494.4-24.243 5.652-7.918 13.936-8.794 22.936-7.85 1.896-8.835 5.3-16.446 14.569-19.358 9.148-3.098 16.48 1.086 23.157 7.105 6.668-6.015 14.014-10.201 23.158-7.105 9.273 2.917 12.668 10.515 14.568 19.359 8.992-.947 17.289-.069 22.936 7.85 5.786 7.755 4.071 16.022.401 24.242 7.824 4.522 14.018 10.102 13.937 19.82.099 9.716-6.079 15.337-13.943 19.85 3.671 8.213 5.395 16.502-.395 24.255-5.656 7.929-13.925 8.794-22.937 7.849-1.295 5.623-3.202 11.807-7.709 15.588h-60.033c-4.507-3.782-6.41-9.959-7.708-15.587z"/><path d="m420.757 259.08v-51.681l-44.757-25.84-44.757 25.841v51.681l44.757 25.84zm-44.757 8.521-18.156-10.482c8.87-3.104 17.438-7.033 25.604-11.776 7.933-4.608 15.386-9.934 22.309-15.892v20.97zm-29.757-22.512v-24.675c7.765 1.575 18.026 7.937 23.032 15.54-7.386 3.752-15.085 6.812-23.032 9.135zm54.899-31.694c-5.823 5.566-12.135 10.579-18.866 15.01-5.569-8.458-14.559-15.833-23.555-19.549l17.279-9.977z"/><path d="m180.757 259.08v-51.681l-44.757-25.84-44.757 25.841v51.681l44.757 25.84zm-44.757 8.521-18.156-10.482c8.87-3.104 17.438-7.033 25.604-11.776 7.933-4.608 15.386-9.934 22.309-15.892v20.97zm-29.757-22.512v-24.675c7.765 1.575 18.026 7.937 23.032 15.54-7.386 3.752-15.085 6.812-23.032 9.135zm54.899-31.694c-5.823 5.566-12.135 10.579-18.866 15.01-5.569-8.458-14.559-15.833-23.555-19.549l17.279-9.977z"/></g></g><g/><g/><g/><g/><g/><g/><g/><g/><g/><g/><g/><g/><g/><g/><g/></svg>