<svg id="Layer_1" enable-background="new 0 0 512 512" viewBox="0 0 512 512" xmlns="http://www.w3.org/2000/svg"><g><g><g><g><g><path d="m416.686 176.04-22.432 83.717 44.078 10.801 57.473-15.4z" fill="#ffdaaa"/></g></g><g><g><path d="m284.128 211.541c-14.903-14.903-32.947-24.748-52.001-29.539-27.016-6.792-51.589-21.018-71.287-40.716l-24.154-24.154c-29.242-29.242-76.87-30.091-106.328-1.066-29.692 29.255-29.827 77.043-.404 106.466l24.817 24.817c19.615 19.615 33.954 44.029 40.635 70.953 4.815 19.403 14.864 37.773 30.152 52.864 35.232 34.777 88.307 41.479 130.399 19.983l60.467-112.201c-2.656-24.62-13.422-48.533-32.296-67.407z" fill="#54e072"/></g></g><g><g><path d="m145.698 359.135c-15.288-15.091-25.338-33.461-30.152-52.864-6.681-26.924-21.02-51.337-40.635-70.953l-1.763-12.019-19.892-21.883-7.216 5.031c-26.543-26.542-29.022-68.025-7.457-97.371-2.865 2.101-5.619 4.422-8.224 6.989-29.692 29.255-29.827 77.043-.404 106.466l24.817 24.817c19.615 19.615 33.954 44.029 40.635 70.953 4.815 19.403 14.864 37.773 30.152 52.864 35.232 34.777 88.307 41.479 130.399 19.983l6.233-11.566c-39.719 16.36-83.978 11.649-116.493-20.447z" fill="#00ca0f"/></g></g><g><g><g><path d="m242.691 364.28c-30.717 15.909-69.56 11.246-95.508-13.886-11.592-11.228-19.168-24.995-22.735-39.545-7.706-31.438-23.903-60.153-46.791-83.041l-26.489-26.489c-17.755-17.755-17.572-46.654.549-64.179 17.738-17.155 46.165-16.386 63.615 1.063l25.963 25.963c23.01 23.01 51.976 38.975 83.534 46.915 13.963 3.514 27.186 10.729 38.109 21.652 12.812 12.812 20.531 28.788 23.157 45.413z" fill="#c3f839"/></g></g></g><g><g><path d="m163.268 334.309c-11.592-11.228-19.168-24.995-22.735-39.545-7.706-31.438-23.903-60.153-46.791-83.041l-26.489-26.489c-14.783-14.783-17.118-37.286-7.031-54.523-3.021 1.757-5.882 3.892-8.505 6.429-18.12 17.525-18.303 46.424-.549 64.179l26.489 26.489c22.888 22.888 39.084 51.603 46.791 83.041 3.567 14.55 11.143 28.317 22.735 39.545 25.948 25.131 64.791 29.794 95.508 13.886l5.88-11.669c-28.749 10.233-62.155 4.118-85.303-18.302z" fill="#abe700"/></g></g><g><g><path d="m236.4 259.272c-17.573-17.574-46.066-17.574-63.64 0s-17.574 46.066 0 63.64c14.28 14.28 35.77 16.956 52.752 8.029l24.036-41.54c-.409-10.947-4.792-21.773-13.148-30.129z" fill="#aa4b30"/></g></g><g><g><path d="m188.874 306.798c-14.79-14.79-17.129-37.312-7.025-54.551-3.245 1.902-6.304 4.241-9.089 7.025-17.574 17.574-17.574 46.066 0 63.64 14.28 14.28 35.77 16.956 52.752 8.029l7.306-12.626c-15.134 4.218-32.042.384-43.944-11.517z" fill="#8d3d27"/></g></g><g><g><path d="m421.605 240.37 12.555-46.856-17.474-17.474-22.432 83.718 44.078 10.8 29.215-7.828c-13.532-10.562-29.183-18.207-45.942-22.36z" fill="#ffb680"/></g></g><g><g><path d="m394.036 259.281c-22.936-.382-44.141 6.963-61.188 19.598h-58.955c-18.436 0-33.38 14.945-33.38 33.38l240-.002c-16.638-30.985-49.14-52.354-86.477-52.976z" fill="#c3f839"/></g></g><g><g><g><path d="m297.393 278.879h-23.5c-18.436 0-33.38 14.945-33.38 33.38h23.5c-.001-18.435 14.944-33.38 33.38-33.38z" fill="#abe700"/></g></g></g><g><g><path d="m217.012 312.257v5.118l53.5 99.882h180l53.5-99.882v-5.118z" fill="#f05475"/></g></g><g><g><path d="m283.512 394.257-43.922-82h-22.578v5.118l53.5 99.882h180l12.32-23z" fill="#e21743"/></g></g><g><g><path d="m270.512 334.757h15v15h-15z" fill="#fff"/></g></g><g><g><path d="m300.546 334.757h15v15h-15z" fill="#fff"/></g></g><g><g><circle cx="345.512" cy="214.757" fill="#f05475" r="15"/></g></g><g><g><path d="m300.512 139.757h30v30h-30z" fill="#f7d700" transform="matrix(.707 .707 -.707 .707 201.842 -177.774)"/></g></g></g></g><g><path d="m484.869 304.755c-7.331-12.384-16.924-22.994-28.088-31.393l40.96-10.975 3.363-12.552-79.144-79.144-12.552 3.363-20.837 77.766c-21.047.686-41.008 7.393-58.209 19.546h-7.982c-7.181-46.078-43.618-85.781-89-96.68-25.411-6.39-48.867-19.792-67.834-38.759l-24.162-24.162c-32.307-32.306-84.763-32.802-116.932-1.106-32.425 30.638-32.632 86.276-.442 117.151l24.825 24.825c19.079 19.079 32.452 42.413 38.671 67.477 5.3 21.36 16.426 40.867 32.173 56.413 34.14 34.495 89.637 44.252 133.71 23.917l13.043 24.35h124.53v-15.005h-115.546l-48.222-90.028h267.517l-48.222 90.028h-40.522v15.005h49.506l56.527-105.533v-14.505h-27.131zm-64.329-114.265 60.767 60.766-42.177 11.301c-10.954-5.334-22.836-8.811-35.176-10.164zm-85.271 95.881c16.833-13.069 37.193-20.004 58.604-19.606 29.051.484 56.016 14.757 73.042 37.99h-217.873c3.225-10.626 13.11-18.384 24.776-18.384zm-205.049 79.475c-13.781-13.604-23.516-30.669-28.151-49.349-6.876-27.712-21.616-53.465-42.624-74.474l-24.825-24.824c-26.34-25.261-26.166-70.783.364-95.851 26.32-25.934 69.292-25.473 95.791 1.028l24.162 24.162c20.884 20.884 46.744 35.65 74.785 42.7 38.786 9.361 70.544 42.901 77.447 82.128h-14.819c-6.871-32.48-33.478-59.771-65.783-67.593-30.705-7.726-58.399-23.273-80.086-44.959l-25.971-25.971c-20.425-20.423-53.691-20.942-74.155-1.151-20.963 19.427-21.263 55.126-.638 74.898l6.574 6.574 10.61-10.611-6.574-6.574c-14.735-14.125-14.516-39.623.459-53.501 14.614-14.135 38.44-13.7 53.114.976l25.971 25.971c23.604 23.603 53.7 40.513 87.034 48.9 25.755 6.242 47.346 27.446 54 53.041-7.721-.325-15.613 1.161-22.102 4.706-2.466-8.284-6.95-15.885-13.187-22.122-20.476-20.475-53.793-20.475-74.269.001-9.919 9.919-15.382 23.107-15.382 37.135-.788 28.139 24.803 53.303 52.462 52.58 5.71 0 11.452-.963 17.01-2.874l10.721 20.015c-27.277 10.8-58.539 4.872-79.871-15.788-10.177-9.858-17.326-22.29-20.675-35.955-8.03-32.759-24.9-62.7-48.787-86.586l-8.43-8.43-10.61 10.609 8.43 8.431c21.947 21.946 37.447 49.454 44.824 79.548 4.022 16.411 12.601 31.336 24.809 43.161 26.066 25.271 64.515 32.126 97.437 18.315l6.995 13.06c-39.359 17.263-85.28 9.058-116.06-21.326zm79.685-61.091v14.505l4.324 8.072c-12.767 3.47-26.577-.027-36.27-9.722-7.085-7.084-10.987-16.504-10.987-26.524s3.902-19.44 10.987-26.525c14.625-14.627 38.423-14.627 53.049-.001 6.06 6.06 9.811 13.919 10.747 22.363-4.041 5.103-6.89 11.186-8.128 17.832z"/><path d="m322.953 214.727c0 12.41 10.096 22.507 22.507 22.507s22.507-10.097 22.507-22.507-10.097-22.507-22.507-22.507-22.507 10.097-22.507 22.507zm30.009 0c0 4.137-3.365 7.502-7.502 7.502s-7.502-3.365-7.502-7.502 3.365-7.502 7.502-7.502 7.502 3.365 7.502 7.502z"/><path d="m347.28 154.708-31.83-31.83-31.829 31.83 31.829 31.829zm-31.83-10.61 10.61 10.611-10.61 10.61-10.61-10.61z"/></g></g><g/><g/><g/><g/><g/><g/><g/><g/><g/><g/><g/><g/><g/><g/><g/></svg>