<svg id="Layer_1" enable-background="new 0 0 512 512" viewBox="0 0 512 512" xmlns="http://www.w3.org/2000/svg"><g><g><g><g><g><path d="m39.144 7.5h60v31.195h-60z" fill="#8ad8f6"/></g></g><g><g><path d="m24.144 38.695h90v30.063h-90z" fill="#abe700"/></g></g><g><g><path d="m8.144 68.625h301v435.875h-301z" fill="#fef2e2"/></g></g><g><g><path d="m8.144 68.625h22.649v435.875h-22.649z" fill="#ffe1ba"/></g></g><g><g><path d="m283.261 283.277c-19.805-9.188-40.799-16.246-62.688-20.878l-139.329 3.986c-25.584 6.98-50.785 17.315-73.099 30.503v207.612h301z" fill="#c3f839"/></g></g><g><g><path d="m31.097 480.547v-195.759c-7.904 3.713-15.588 7.748-22.953 12.101v207.611h301l-2.802-23.953z" fill="#abe700"/></g></g><g><g><path d="m149.861 259.523c-19.269-10.355-38.491-16.956-50.011-18.406-9.012-1.134-17.78 6.071-18.439 15.122-1.644 22.577 8.861 75.533 34.649 107.268 13.44 16.54 37.024 20.584 57.504 11.486z" fill="#fcad42"/></g></g><g><g><path d="m135.719 352.311c-25.787-31.735-36.292-84.691-34.648-107.268.091-1.255.353-2.469.735-3.636-.67-.109-1.33-.21-1.956-.289-9.012-1.134-17.78 6.071-18.439 15.122-1.644 22.577 8.861 75.533 34.649 107.268 13.44 16.54 37.024 20.584 57.504 11.486l-1.327-6.466c-14.066.283-27.55-5.181-36.518-16.217z" fill="#f69500"/></g></g><g><g><path d="m131.845 328.817c0 26.005 23.456 47.096 52.427 47.183 29.622.088 52.772-22.079 52.772-48.647 0-39.427-25.272-87.724-40.597-103.743-6.279-6.563-17.627-6.501-23.846.108-15.514 16.484-40.756 64.207-40.756 105.099z" fill="#fcad42"/></g></g><g><g><path d="m156.444 326.817c0-39.793 23.902-86.046 39.483-103.694-6.367-6.05-17.271-5.84-23.326.594-15.514 16.485-40.756 64.208-40.756 105.1 0 26.005 23.456 47.097 52.427 47.183 5.967.018 11.664-.881 16.969-2.523-25.349-3.385-44.797-22.982-44.797-46.66z" fill="#f69500"/></g></g><g><g><path d="m458.209 120.898c6.395-6.395 5.814-17.351-1.29-24.497-7.263-7.307-18.408-7.548-24.942-1.014-9.696 9.696-15.359 27.789-15.53 35.498-.07 3.158 2.736 5.934 5.891 5.838 7.87-.239 25.815-5.768 35.871-15.825z" fill="#f69500"/></g></g><g><g><path d="m365.38 72.387c6.395 6.395 17.351 5.814 24.497-1.29 7.307-7.263 7.548-18.408 1.014-24.942-9.696-9.696-27.789-15.359-35.498-15.53-3.158-.07-5.934 2.736-5.838 5.891.24 7.87 5.769 25.814 15.825 35.871z" fill="#f69500"/></g></g><g><g><path d="m54.144 113.709h90v30h-90z" fill="#8ad8f6"/></g></g><g><g><path d="m290.219 342.75 18.925 161.75h164.712l15.143-163.294z" fill="#b6e6fa"/></g></g><g><g><path d="m328.317 481.249-16.205-138.499h-19.173l-.002-.021-2.718.021 18.925 161.75h164.712l2.156-23.251z" fill="#8ad8f6"/></g></g><g><g><path d="m271.293 181 18.926 161.75 198.78-1.544 14.857-160.206z" fill="#fff"/></g></g><g><g><path d="m292.5 181h-21.207l18.926 161.75 21.187-.165z" fill="#e3edf6"/></g></g><g><g><path d="m300.025 422.159c2.434 20.799 20.056 36.48 40.997 36.48h99.526c21.32 0 39.132-16.236 41.101-37.465l18.034-195.174h-223.125z" fill="#fef2e2"/></g></g><g><g><path d="m459.295 433.892h-115.146c-20.941 0-22.944-15.681-25.378-36.48l-20.506-171.412h-21.707l23.466 196.159c2.434 20.799 20.056 36.48 40.997 36.48h99.526c18.939 0 35.1-12.817 39.855-30.56-6.195 3.694-13.42 5.813-21.107 5.813z" fill="#ffe1ba"/></g></g></g></g><g><path d="m422.188 144.225c22.253-.723 66.505-23.082 40.05-53.111-5.066-5.097-11.686-7.911-18.639-7.92-22.315-.894-34.094 34.055-34.65 47.526-.308 7.084 6.151 13.663 13.239 13.505zm15.093-43.535c8.992-8.59 23.659 6.396 15.624 14.905-7.781 7.781-21.646 12.491-28.787 13.453.97-7.134 5.892-21.087 13.163-28.358z"/><path d="m376.425 84.302c13.579.442 27.118-12.566 26.661-26.525.895-22.315-34.053-34.094-47.524-34.65-7.231-.319-13.88 6.393-13.501 13.616.593 13.349 12.303 48.315 34.364 47.559zm9.163-32.844c8.592 8.992-6.395 23.66-14.904 15.625-7.783-7.782-12.492-21.646-13.453-28.787 7.134.969 21.086 5.892 28.357 13.162z"/><path d="m174.748 342.285c-2.258-4.801-3.403-9.895-3.403-15.139 0-7.589.947-15.857 2.814-24.578l-14.668-3.141c-2.088 9.75-3.146 19.076-3.146 27.719 0 7.469 1.625 14.71 4.831 21.523z"/><path d="m214.544 327.353c0-21.985-7.233-44.322-13.302-59.188l-13.888 5.668c5.561 13.624 12.189 33.968 12.189 53.521h15.001z"/><path d="m151.645 106.209h-105v45h105zm-15 30h-75v-15h75z"/><path d="m181.293 421.223h90v15h-90z"/><path d="m211.293 451.223h60v15h-60z"/><path d="m46.293 166.287h15v15h-15z"/><path d="m76.293 166.287h15v15h-15z"/><path d="m512 173.5h-196v-112.375h-194.355v-29.931h-15v-31.194h-75v31.194h-15v29.931h-16.645v119.875h15v-104.875h286v97.375h-38.136l11.428 97.674c-15.718-6.466-31.99-11.602-48.563-15.323-11.211-20.891-21.945-44.896-41.143-44.628-18.554-.035-27.773 20.562-38.024 38.164-16.808-8.319-33.855-14.21-45.776-15.71-15.356-2.016-28.448 11.909-27.041 27.043-20.365 5.977-40.059 14.107-58.745 24.241v-88.961h-15v316h421.293v-15h-105.475l-4.822-41.214c8.317 6.503 18.762 10.353 30.026 10.353h99.443c11.447 0 21.974-3.891 30.303-10.473l-3.832 41.334h-30.643v15h44.316zm-465.355-158.5h45v16.194h-45zm-15 31.194h75v14.931h-75zm463.9 142.306-2.782 30h-209.531l-3.51-30zm-317.482 40.357c3.06-3.448 9.872-3.488 12.965-.063 13.442 14.051 38.517 60.283 38.517 98.559.232 23.406-21.999 41.767-45.249 41.147-24.785-.074-44.95-17.876-44.95-39.683-.001-39.163 24.821-85.194 38.717-99.96zm-89.171 27.928c.201-4.606 5.461-8.934 10.021-8.226 7.958 1.001 23.092 5.375 41.185 14.368-8.967 20.513-15.754 44.302-15.754 65.89 0 17.53 9.154 33.171 23.33 43.19-10.179-.947-19.508-5.492-25.795-13.229-24.696-30.393-34.461-81.771-32.987-101.993zm-73.892 240.215v-194.837c18.869-10.943 38.901-19.693 59.695-26.068 6.095 39.028 23.755 111.239 77.038 111.094 7.551-.001 15.281-1.467 22.736-4.456 3.185.487 6.449.757 9.78.768 31.33.834 60.721-24.654 60.294-56.147 0-17.81-4.739-36.871-11.369-54.221 14.752 3.919 29.193 9.032 43.132 15.252l24.41 208.615zm425.466-45.861h-99.443c-17.135 0-31.558-12.834-33.549-29.852l-22.487-187.787h206.385l-17.528 189.002c-2.506 16.461-16.51 28.637-33.378 28.637z"/></g></g><g/><g/><g/><g/><g/><g/><g/><g/><g/><g/><g/><g/><g/><g/><g/></svg>