<svg id="Layer_1" enable-background="new 0 0 512 512" viewBox="0 0 512 512" xmlns="http://www.w3.org/2000/svg"><g><g><g><g><g><g><path d="m345.349 197.916c-15.835-28.163-39.029-51.635-66.974-67.809l-90.034-24.101c-99.411 0-180 80.589-180 180-.586 97.438 79.853 180.33 180 180 10.821 0 21.418-.955 31.714-2.785l145.797-147.211c1.637-9.758 2.49-19.781 2.49-30.004-.002-32-8.352-62.05-22.993-88.09z" fill="#fcad42"/></g></g></g><g><g><path d="m204.976 449.372c-100.147.33-180.586-82.563-180-180 0-45.472 16.869-87 44.681-118.684-37.584 32.99-61.317 81.38-61.317 135.319-.586 97.438 79.853 180.33 180 180 10.821 0 21.418-.955 31.713-2.785l16.444-16.603c-10.234 1.808-20.767 2.753-31.521 2.753z" fill="#f69500"/></g></g><g><g><path d="m143.66 316.009c0 99.411 80.589 180 180 180s180-80.589 180-180z" fill="#fef2e2"/></g></g><g><g><path d="m344.106 490.009c-97.402 0-176.723-77.368-179.89-174h-20.556c0 99.411 80.589 180 180 180 21.356 0 41.839-3.729 60.845-10.554-12.987 2.978-26.509 4.554-40.399 4.554z" fill="#ffe1ba"/></g></g><g><g><path d="m464.801 316.012-282.823-.002c-.346 7.776 2.408 15.633 8.968 22.515-6.924 14.657-1.237 32.171 12.976 39.965-2.056 16.091 8.796 31.005 24.738 34.001 2.996 15.943 17.91 26.794 34.001 24.739 7.794 14.214 25.309 19.901 39.966 12.977 11.802 11.14 30.265 11.14 42.067 0 14.657 6.924 32.172 1.237 39.966-12.976 16.091 2.055 31.005-8.796 34.001-24.739 15.943-2.996 26.794-17.91 24.739-34.001 14.214-7.794 19.901-25.309 12.976-39.966 6.347-7.015 8.911-14.841 8.425-22.513z" fill="#f05475"/></g></g><g><g><path d="m293.66 316.009c0 16.568 13.431 30 30 30s30-13.432 30-30z" fill="#ffe1ba"/></g></g><g><g><path d="m182.861 316.011c0 3.226.119 6.423.332 9.595 1.37 4.5 3.901 8.877 7.753 12.919-2.398 5.077-3.281 10.497-2.823 15.737 1.325 4.706 2.89 9.311 4.679 13.802 2.686 4.23 6.437 7.858 11.121 10.426-.618 4.835-.063 9.562 1.439 13.893 3.369 5.208 7.075 10.177 11.083 14.882 3.538 2.545 7.669 4.372 12.216 5.227.81 4.313 2.499 8.249 4.842 11.663 5.348 4.463 11.029 8.542 17.006 12.183 3.845 1.081 7.958 1.429 12.153.893 1.972 3.596 4.567 6.643 7.579 9.081 6.803 2.792 13.869 5.071 21.157 6.78 3.791-.229 7.599-1.168 11.23-2.884 2.865 2.705 6.125 4.747 9.584 6.138 3.776.304 7.593.465 11.448.465 3.868 0 7.695-.173 11.484-.479 3.447-1.391 6.695-3.428 9.551-6.124 3.614 1.708 7.402 2.645 11.175 2.879 7.3-1.709 14.387-3.97 21.2-6.766 3.017-2.439 5.616-5.49 7.591-9.09 4.171.533 8.261.191 12.087-.874 5.998-3.65 11.707-7.726 17.072-12.204 2.342-3.413 4.031-7.348 4.841-11.661 4.544-.854 8.672-2.678 12.207-5.219 4.011-4.707 7.721-9.677 11.093-14.888.683-1.972 1.171-4.024 1.439-6.133-25.577 26.265-61.316 42.584-100.873 42.584-68.182 0-125.041-48.466-138.015-112.825h-21.651c0-.001 0 0 0 0z" fill="#e21743"/></g></g><g><g><path d="m291.772 15.991c-57.124 0-103.432 46.308-103.432 103.432v31.585h31.585c57.124 0 103.432-46.308 103.432-103.432v-31.585z" fill="#c3f839"/></g></g><g><g><path d="m242.452 128.483h-31.585v-31.586c0-22.814 7.392-43.899 19.904-61.002-25.72 18.816-42.43 49.218-42.43 83.528v31.585h31.585c34.31 0 64.712-16.71 83.528-42.43-17.103 12.512-38.188 19.905-61.002 19.905z" fill="#abe700"/></g></g><g><g><path d="m58.144 227.993-13.697-6.115c2.131-4.773 4.53-9.496 7.13-14.037l13.017 7.455c-2.352 4.107-4.523 8.379-6.45 12.697zm14.137-24.688-12.206-8.719c3.039-4.255 6.327-8.406 9.771-12.336l11.281 9.885c-3.117 3.558-6.094 7.316-8.846 11.17z" fill="#fff"/></g></g></g></g><g><path d="m421.219 308.495v14.996h36.075c-1.565 5.075-5.143 9.789-9.113 13.691 8.77 15.208 3.885 30.027-12.141 37.158 3.666 17.252-5.519 29.869-23.07 31.689-.652 6.298-2.704 11.513-5.857 15.451l-60.687-75.165c7.44-5.416 12.823-13.492 14.725-22.824h45.072v-14.996h-32.667c.889-7.444 1.346-14.977 1.346-22.496.417-61.478-31.496-121.242-82.477-155.303 22.986-20.334 37.506-50.033 37.506-83.064v-39.076h-39.075c-54.036 0-99.161 38.848-108.934 90.08-100.813 2.936-181.922 85.852-181.922 187.363 0 27.251 5.72 53.531 17.002 78.111l13.629-6.256c-10.375-22.603-15.635-46.779-15.635-71.855 0-92.629 73.41-168.422 165.104-172.287l-.148 44.823h39.075c22.423 0 43.309-6.695 60.775-18.183 49.579 31.521 80.102 86.672 80.102 145.648 0 7.526-.495 15.066-1.461 22.496h-221.48c-2.085 58.662 23.274 113.63 65.037 149.345-4.835.404-9.694.614-14.551.614-61.375 0-118.617-33.041-149.385-86.23l-12.981 7.51c32.602 57.252 96.346 94.235 162.366 93.717 10.536 0 21.093-.892 31.41-2.633 30.084 20.575 66.436 32.627 105.554 32.627 106.176.238 191.444-89.049 187.451-194.949h-90.645zm-215.666-164.957 69.327-69.327-10.604-10.605-69.328 69.328v-13.475c0-52.883 43.024-95.906 95.907-95.906h24.079v24.08c0 52.883-43.023 95.906-95.906 95.906h-13.475zm188.618 285.785c-3.875.808-8.21.768-12.89-.226-7.168 16.087-22.003 20.907-37.262 12.091-11.792 13.131-27.406 13.138-39.206 0-15.249 8.811-30.089 4.009-37.263-12.091-5.35 1.136-10.254 1.033-14.529-.169l63.244-76.349c5.117 1.171 10.868 1.198 16 .069zm-193.458-92.269c-4.107-3.829-7.844-8.474-9.546-13.563h96.512c1.88 9.222 7.156 17.222 14.46 22.635l-61.369 74.085c-2.615-3.765-4.323-8.538-4.907-14.183-17.539-1.817-26.738-14.424-23.07-31.688-16.105-7.177-20.905-22.018-12.08-37.286zm123.702 1.433c-9.775 0-18.109-6.269-21.204-14.996h42.409c-3.096 8.726-11.431 14.996-21.205 14.996zm0 149.96c-92.579 0-168.353-73.33-172.294-164.957h23.656c1.019 5.86 3.493 11.419 7.342 16.459-5.005 15.595.601 32.802 13.842 42.454.019 16.438 10.695 31.118 26.327 36.199 5.082 15.632 19.761 26.309 36.199 26.327 9.669 13.264 26.918 18.866 42.535 13.815 6.656 4.836 14.525 7.254 22.394 7.254 7.868 0 15.738-2.418 22.394-7.254 15.616 5.051 32.864-.55 42.535-13.815 16.438-.019 31.117-10.695 36.199-26.326 15.632-5.082 26.309-19.762 26.328-36.2 13.275-9.677 18.876-26.946 13.802-42.574 3.685-5.054 6.028-10.571 6.952-16.338h24.082c-3.94 91.626-79.715 164.956-172.293 164.956z"/></g></g><g/><g/><g/><g/><g/><g/><g/><g/><g/><g/><g/><g/><g/><g/><g/></svg>