<svg id="Layer_1" enable-background="new 0 0 512 512" viewBox="0 0 512 512" xmlns="http://www.w3.org/2000/svg"><g><g><g><g><g><path d="m469.208 282.859c-26.36-26.36-26.673 16.066-53.033 42.426-13.18 13.18-30.377 19.538-40.984 26.206h110.484c7.589-23.372 2.1-50.065-16.467-68.632z" fill="#fef2e2"/></g></g><g><g><path d="m410.266 330.555c-12.086 9.731-25.993 15.227-35.074 20.936h110.484c2.205-6.792 3.298-13.864 3.295-20.936z" fill="#ffe1ba"/></g></g><g><g><path d="m58.828 172.612c-11.716-11.715-30.711-11.715-42.426 0-11.716 11.716-11.716 30.711 0 42.427l11.422 11.422 41.064-43.789z" fill="#c3f839"/></g></g><g><g><path d="m42.121 207.649-11.422-11.422c-7.724-7.724-10.353-18.612-7.892-28.492-2.292 1.302-4.452 2.923-6.406 4.877-11.716 11.716-11.716 30.711 0 42.427l11.422 11.422 41.064-43.789-1.725-1.725z" fill="#abe700"/></g></g><g><g><path d="m222.36 295.112c-35.978-31.058-64.769-62.756-87.532-91.816-22.515-28.744-65.076-31.348-90.894-5.53-20.249 20.25-23.659 51.895-8.118 75.948 15.655 24.228 34.202 51.009 56.097 77.776h206.189c-24.308-15.5-49.928-34.094-75.742-56.378z" fill="#54e072"/></g></g><g><g><path d="m298.103 351.49c-10.779-6.873-21.817-14.358-33.015-22.5h-162.402c-15.904-20.074-31.664-42.251-47.971-67.487-9.742-13.562-14.842-54.87-2.481-66.36 3.139-3.14 16.653-12.471 29.956-14.988-13.883 1.069-27.517 6.873-38.255 17.611-20.249 20.25-23.659 51.895-8.118 75.948 15.655 24.228 34.202 51.009 56.097 77.776z" fill="#00ca0f"/></g></g><g><g><path d="m7.5 351.485v5.116l53.5 77.884h390l53.5-77.884v-5.116z" fill="#f05475"/></g></g><g><g><path d="m462.667 411.045h-390l-40.912-59.56h-24.255v5.116l53.5 77.884h390l53.5-77.884v-5.116h-.92z" fill="#e21743"/></g></g><g><g><path d="m61 373.965h15v15h-15z" fill="#fff"/></g></g><g><g><path d="m91.033 373.965h15v15h-15z" fill="#fff"/></g></g><g><g><path d="m379.99 285.93c-26.36 26.36-69.099 26.36-95.459 0s-26.36-69.099 0-95.459 26.673 16.066 53.033 42.426 68.786 26.672 42.426 53.033z" fill="#fef2e2"/></g></g><g><g><path d="m300.733 269.727c-23.33-23.33-25.995-59.482-8.029-85.761-2.431 1.34-5.127 3.457-8.174 6.504-26.36 26.36-26.36 69.099 0 95.459s69.099 26.36 95.459 0c3.047-3.047 5.165-5.743 6.505-8.174-26.279 17.967-62.431 15.303-85.761-8.028z" fill="#ffe1ba"/></g></g><g><g><path d="m395.406 77.514c37.279 0 67.5 30.221 67.5 67.5s-30.221 67.5-67.5 67.5-7.5-30.221-7.5-67.5-29.779-67.5 7.5-67.5z" fill="#fef2e2"/></g></g><g><g><path d="m410.885 145.015c0-32.957-23.264-60.393-2.904-66.313-4.076-.769-8.276-1.188-12.575-1.188-37.279 0-7.5 30.221-7.5 67.5s-29.779 67.5 7.5 67.5c4.299 0 8.499-.419 12.575-1.188-20.36-5.919 2.904-33.355 2.904-66.311z" fill="#ffe1ba"/></g></g></g></g><g><path d="m495.286 343.985c4.402-24.064-3.14-48.795-20.775-66.431-5.084-5.084-12.889-11.69-21.979-10.333-10.351 1.541-15.931 12.011-22.393 24.133-5.007 9.395-10.684 20.043-19.268 28.628-11.269 11.201-24.665 16.752-37.245 24.003h-73.306c-25.535-16.403-50.111-34.739-73.059-54.55-31.625-27.301-60.737-57.838-86.528-90.764-16.005-20.788-44.141-30.655-69.579-24.34l-7.023-7.023c-14.622-14.622-38.412-14.62-53.033 0-14.622 14.622-14.622 38.412 0 53.033l8.568 8.568c-3.045 16.838.571 34.527 9.851 48.874 14.677 22.715 30.587 44.922 47.388 66.201h-76.905v14.943l57.053 83.057h63.947v-15h-56.053l-46.71-68h475.525l-46.71 68h-311.052v15h318.947l57.053-83.055v-14.943h-16.714zm-73.808-13.396c10.165-10.165 16.671-22.371 21.898-32.179 3.583-6.72 8.488-15.924 11.366-16.353.277-.035 2.845-.213 9.163 6.104 14.763 14.763 20.68 35.741 16.064 55.823h-75.664c5.858-3.679 11.8-8.023 17.173-13.395zm-331.337-143.033c15.231.922 29.368 8.345 38.784 20.366 26.389 33.688 56.176 64.934 88.535 92.867 17.755 15.328 36.461 29.792 55.822 43.196h-41.089c-10.274-9.258-20.582-18.768-30.676-28.32-7.574-7.168-15.181-14.499-22.609-21.79l-10.508 10.705c7.493 7.354 15.166 14.749 22.805 21.979 6.171 5.84 12.425 11.661 18.699 17.426h-51.591c-31.583-32.8-62.258-66.644-91.221-100.694-18.311-21.528-20.748-36.491-18.692-39.345 11.69-3.978 33.515 10.774 53.552 31.743 17.718 19.412 36.172 38.725 54.85 57.401l10.606-10.607c-18.518-18.516-36.813-37.662-54.377-56.905-14.735-16.144-31.725-28.543-46.112-34.204 7.284-2.953 15.206-4.309 23.222-3.818zm-34.481-7.504c-13.547 6.873-24.786 18.757-30.983 32.657-11.002-9.104-13.228-24.175-2.973-34.792 9.631-9.753 25.413-8.258 33.956 2.135zm-13.544 89.592c-9.056-14.015-10.692-31.198-5.492-46.324 3.714 9.071 10.131 19.212 19.043 29.69 26.108 30.693 53.594 61.222 81.878 90.976h-41.422c-19.266-23.701-37.434-48.694-54.007-74.342z"/><path d="m449.378 313.615h15v14.999h-15z" transform="matrix(.966 -.259 .259 .966 -67.548 129.205)"/><path d="m395.627 269.255c-1.542-10.351-12.011-15.932-24.133-22.394-23.088-11.038-36.867-24.826-47.896-47.896-6.462-12.123-12.042-22.592-22.393-24.133-9.077-1.361-16.894 5.249-21.978 10.334-29.242 29.243-29.242 76.824 0 106.066 29.243 29.242 76.823 29.242 106.066 0 5.084-5.083 11.687-12.893 10.334-21.977zm-105.793-73.482c5.681-5.682 8.333-6.114 9.008-6.114.076 0 .126.006.154.01 2.877.429 7.783 9.632 11.365 16.353 11.897 25.125 28.98 42.192 54.077 54.077 6.72 3.582 15.924 8.488 16.353 11.365.041.272.214 2.845-6.104 9.162-23.395 23.396-61.458 23.395-84.853 0-23.394-23.394-23.394-61.458 0-84.853z"/><path d="m298.244 257.216h15v15h-15z" transform="matrix(.707 -.707 .707 .707 -97.631 293.746)"/><path d="m334.235 266.1h15v14.999h-15z" transform="matrix(.966 -.259 .259 .966 -59.165 97.763)"/><path d="m287.942 221.605h14.999v15h-14.999z" transform="matrix(.259 -.966 .966 .259 -2.329 455.176)"/><path d="m372.558 211.781c5.467 7.38 15.658 8.233 22.848 8.233 41.355 0 75-33.645 75-75s-33.645-75-75-75c-7.19 0-17.381.854-22.848 8.233-6.229 8.409-2.772 19.758 1.23 32.899 8.521 24.13 8.513 43.624 0 67.734-4.003 13.143-7.459 24.492-1.23 32.901zm15.579-105.005c-2.219-7.285-5.258-17.262-3.526-19.6.164-.221 1.86-2.162 10.795-2.162 33.084 0 60 26.916 60 60s-26.916 60-60 60c-8.935 0-10.631-1.941-10.795-2.162-1.731-2.338 1.307-12.314 3.526-19.6 9.354-26.177 9.342-50.327 0-76.476z"/><path d="m425.406 137.515h15v15h-15z"/><path d="m406.238 105.783h15v15h-15z" transform="matrix(.5 -.866 .866 .5 108.762 414.948)"/><path d="m407.51 169.98h15v15h-15z" transform="matrix(.866 -.5 .5 .866 -33.139 231.285)"/></g></g><g/><g/><g/><g/><g/><g/><g/><g/><g/><g/><g/><g/><g/><g/><g/></svg>