<svg id="Layer_1" enable-background="new 0 0 512 512" viewBox="0 0 512 512" xmlns="http://www.w3.org/2000/svg"><g><g><g><g><g><g><path d="m421.042 360.403v30.596h59.958v-30.085z" fill="#ffe1ba"/></g></g><g><g><path d="m31.042 390.999h59.958v-30.085l-59.958-.511z" fill="#ffe1ba"/></g></g></g><g><g><path d="m70.416 121.001h-24.416v24.416c0 22.207 12.389 41.52 30.633 51.404h40.059l9.236-35.661c-7.668-23.321-29.624-40.159-55.512-40.159z" fill="#c3f839"/></g></g><g><g><path d="m98.743 190.693c-18.244-9.885-30.633-29.197-30.633-51.404v-18.288h-22.11v24.416c0 22.207 12.389 41.52 30.633 51.404h40.059l1.587-6.127h-19.536z" fill="#abe700"/></g></g><g><g><path d="m252.871 173.674c-4.006-6.939-11.152-10.931-18.607-11.229-.075-7.699-4.097-15.159-11.247-19.287-6.939-4.007-15.123-3.891-21.729-.422-3.914-6.629-11.128-11.079-19.384-11.079-8.013 0-15.042 4.192-19.029 10.499-6.705-3.784-15.177-4.031-22.327.098-6.939 4.006-10.931 11.151-11.23 18.606-7.698.076-15.159 4.098-19.287 11.248-4.006 6.939-3.891 15.123-.422 21.729l81.232 23.331 62.126-21.167c3.786-6.705 4.033-15.177-.096-22.327z" fill="#fef2e2"/></g></g><g><g><path d="m187.302 189.203c-25.522-8.085-51.764-13.059-78.375-14.891-2.829 6.422-2.424 13.606.684 19.525l81.232 23.331 62.126-21.167c3.705-6.565 4.008-14.822.143-21.876-6.727-.407-13.473-.624-20.233-.624-16.456 0-32.43 5.599-45.577 15.702z" fill="#ffe1ba"/></g></g><g><g><path d="m467.736 275.749c-18.816-6.46-40.775-15.822-64.12-29.584-1.814-1.07-3.603-2.146-5.367-3.228-50.426-30.931-107.451-46.936-165.37-46.936-16.835 0-31.937 8.215-42.036 21.167l59.689 98.827 211.474.027c10.49 0 18.994-9.231 18.994-20.619 0-8.992-5.365-16.943-13.264-19.654z" fill="#f05475"/></g></g><g><g><path d="m477.919 284.168c-3.389 5.644-9.244 9.382-15.913 9.382l-105.67-.014c-.54-18.079-11.825-33.878-28.432-39.579-20.717-7.113-40.903-16.428-60-27.687-17.009-10.531-34.688-19.985-53.045-27.503-9.429 3.544-17.701 9.791-24.017 17.89l.178.294c-.058.074-.12.143-.178.216l59.689 98.827 211.474.027c14.982.501 24.124-19.329 15.914-31.853z" fill="#e21743"/></g></g><g><g><path d="m7.5 315.999h497v45h-497z" fill="#fcad42"/></g></g><g><g><path d="m7.5 315.999h23.634v45h-23.634z" fill="#f69500"/></g></g><g><g><path d="m314.868 316.022h-268.431c-4.922-8.65-15.698-30.174-15.696-60.019 0-.298.001-.596.003-.893.238-32.741 24.835-59.11 54.997-59.11 57.919 0 114.945 16.005 165.37 46.936 1.764 1.082 3.553 2.158 5.367 3.228 23.345 13.762 45.304 23.124 64.12 29.584 7.899 2.712 13.264 10.662 13.264 19.655 0 11.388-8.504 20.619-18.994 20.619z" fill="#f05475"/></g></g><g><g><g><path d="m314.868 316.022c10.49 0 18.994-9.231 18.994-20.619 0-.633-.033-1.26-.085-1.881h-273.284c-4.018-9.826-6.507-23.149-6.366-38.248.174-23.979 15.263-52.817 29.681-52.817 22.546 0 52.594.315 74.676 2.103-23.798-5.671-48.19-8.559-72.744-8.559-66.775 4.087-62.234 83.738-39.304 120.021z" fill="#e21743"/></g></g></g><g><g><path d="m57.128 283.322c-1.107-5.169-1.906-10.461-2.375-15.729l14.941-1.328c.415 4.66 1.121 9.343 2.101 13.915zm12.204-30.961-14.977-.834c.313-5.61 1.278-11.153 2.87-16.477l14.371 4.299c-1.255 4.198-2.016 8.576-2.264 13.012z" fill="#fff"/></g></g></g></g><g><path d="m512 308.499h-26.559c7.69-14.435.258-35.012-15.269-39.845-21.668-7.438-42.779-17.18-62.748-28.951-43.873-27.703-93.357-45.049-144.398-49.767 2.308-14.635-6.998-30.589-22.038-34.038-3.303-16.114-21.417-26.999-37.15-22.192-10.918-12.306-32.046-12.672-43.269-.645-12.424-4.137-26.658 1.515-33.822 12.074-11.762-19.371-32.905-31.635-56.33-31.635h-31.917v31.916c0 18.917 8.076 36.615 21.767 48.962-21.886 10.519-37.222 34.425-37.027 61.623-.001 21.536 5.2 39.32 11.029 52.497h-34.269v60h23.542v30h74.958v-30h262.5v-15h-346v-30h482v30h-120.894v15h37.437v30h74.957v-30h23.5zm-428.5 75h-44.958v-15h44.958zm275.066-75c17.802-15.699 34.293-32.88 49.218-51.309 18.453 10.255 37.761 18.869 57.517 25.652 12.291 4.595 10.074 24.76-2.89 25.657zm-208.234-98.082c19.39 4.188 38.378 10.256 56.706 18.124-10.839 6.063-21.433 12.639-31.635 19.673l8.514 12.35c12.819-8.837 26.272-16.944 40.066-24.149 7.888 3.962 15.631 8.268 23.208 12.915-16.307 21.763-37.721 41.516-59.002 59.17h-61.025c13.457-13.935 27.889-26.549 43.354-38.268l-9.038-11.971c-20.063 15.557-37.631 30.377-54.241 50.238h-13.59c2.522-18.31 9.595-37.125 20.692-54.882 9.046-14.48 20.844-28.641 35.991-43.2zm109.955 29.286c-4.259-2.512-8.389-5.12-12.669-7.562 7.138-8.583 15.368-17.171 24.94-26.038 27.028 3.542 53.514 10.675 78.777 21.225-17.538 9.667-34.387 20.686-50.281 32.888-13.972-5.913-27.621-12.763-40.767-20.513zm-7.357-35.534c-6.934 6.933-13.13 13.772-18.701 20.642-9-4.657-18.187-8.88-27.528-12.663 7.693-5.582 16.765-8.647 26.178-8.647 6.7 0 13.386.229 20.051.668zm-41.503 104.33c17.803-15.7 34.294-32.881 49.218-51.31 18.452 10.254 37.759 18.869 57.517 25.652 12.174 4.231 10.146 24.971-2.889 25.657h-103.846zm183.238-58.967c-16.461 20.092-34.851 38.629-54.828 55.265 5.91-17.423-5.262-34.393-22.341-38.124 16.18-11.819 33.303-22.379 51.092-31.505 8.762 4.302 25.965 14.296 26.077 14.364zm-250.366-100.782c7.631-4.482 14.424-.664 21.104 3.446 3.878-6.609 7.855-13.159 16.501-13.038 8.913-.031 12.78 6.6 16.553 13.537 6.604-3.774 13.458-7.466 20.809-3.041 7.734 4.429 7.768 12.105 7.568 19.999h7.13c9.627.077 16.33 10.435 13.943 19.212-5-.235-10.01-.363-15.028-.363-15.769 0-30.747 6.353-42.21 17.64-24.157-8.33-49.2-13.772-74.625-16.19-4.958-9.454 2.612-21.788 13.349-21.59l7.135-.07c.055-7.665.224-15.326 7.771-19.542zm-90.799-3.333v-16.916h16.916c19.512 0 36.972 11.011 45.51 28.042-11.536 5.876-18.276 19.571-15.996 32.285-7.23-.215-14.628-.745-21.814.194-15.242-9.209-24.616-25.697-24.616-43.605zm-15.26 110.586c-.254-28.693 21.239-52.553 47.5-52.502 15.665 0 31.26 1.214 46.659 3.594-12.507 12.849-22.648 25.557-30.782 38.573-12.622 20.199-20.518 41.775-23.081 62.831h-27.649c-6.184-11.964-12.648-29.881-12.647-52.496zm435.26 127.496h-44.957v-15h44.957z"/></g></g><g/><g/><g/><g/><g/><g/><g/><g/><g/><g/><g/><g/><g/><g/><g/></svg>