<svg id="Layer_1" enable-background="new 0 0 512 512" viewBox="0 0 512 512" xmlns="http://www.w3.org/2000/svg"><g><g><g><g><g><path d="m331.407 237.444c-12.883 12.883-12.883 33.77 0 46.652.267.267.542.519.815.775-2.443 1.412-4.746 3.157-6.836 5.247-12.883 12.883-12.883 33.77 0 46.652-12.883 12.883-12.883 33.77 0 46.652 12.883 12.883 33.769 12.883 46.652 0 12.883 12.883 33.769 12.883 46.652 0 2.09-2.09 3.835-4.393 5.247-6.836.256.273.508.548.775.815 12.883 12.883 33.77 12.883 46.652 0 10.176-10.176 12.306-25.343 6.407-37.618 6.199-1.221 12.116-4.231 16.919-9.035 12.883-12.883 12.883-33.77 0-46.652-6.969-6.969-16.28-10.16-25.4-9.589.571-9.12-2.62-18.431-9.589-25.4s-16.28-10.16-25.4-9.589c.571-9.12-2.62-18.431-9.589-25.4-12.883-12.883-33.77-12.883-46.652 0-4.803 4.803-7.813 10.72-9.035 16.919-12.275-5.899-27.442-3.769-37.618 6.407z" fill="#57758d"/></g></g><g><g><path d="m439.945 365.015c-69.084 1.606-115.443-75.039-89.038-136.984-27.218 2.48-39.304 38.461-18.685 56.84-18.579 10.4-22.174 37.022-6.836 51.899-29.99 31.557 15.125 76.629 46.652 46.652 14.877 15.338 41.501 11.741 51.899-6.836 19.266 21.269 55.887 7.743 57.007-20.602-12.462 5.791-26.351 9.031-40.999 9.031z" fill="#4b6276"/></g></g><g><g><path d="m181.347 414.531h-23.047v5.66c0 13.443 10.897 24.34 24.34 24.34-13.443 0-24.34 10.897-24.34 24.34v5.66h23.047c10.584 18.289 30.53 30.482 53.294 29.985 32.067-.7 58.191-27.031 58.652-59.103.482-33.542-26.563-60.883-59.994-60.883-22.203.001-41.576 12.072-51.952 30.001z" fill="#b071d2"/></g></g><g><g><path d="m249.088 488.025c-33.137 0-60-26.863-60-60 0-11.959 3.513-23.091 9.543-32.449-7.032 4.994-12.946 11.459-17.284 18.955h-23.047v5.66c0 13.443 10.897 24.34 24.34 24.34-13.443 0-24.34 10.897-24.34 24.34v5.66h23.047c10.584 18.289 30.53 30.482 53.294 29.985 20.429-.446 38.433-11.303 48.939-27.411-9.759 6.872-21.649 10.92-34.492 10.92z" fill="#923ec3"/></g></g><g><g><g><path d="m142.447 13.289c-12.576 0-23.962 5.097-32.203 13.339l-2.52 54.682 40.503-26.816c5.458-7.51 8.677-16.752 8.677-26.747v-14.458z" fill="#abe700"/></g></g><g><g><path d="m12.051 143.684v14.458h14.458c9.432 0 18.195-2.868 25.463-7.778l25.624-39.259h-51.825c-8.465 8.269-13.72 19.81-13.72 32.579z" fill="#abe700"/></g></g></g><g><g><path d="m278.99 180.902c-3.581-21.315-7.794-42.145-13.334-63.864-17.037-67.297-101.21-90.078-150.298-40.99l-40.581 40.581c-49.171 49.171-26.185 133.351 41.24 150.368 65.153 16.543 126.457 22.613 173.199 23.681-.658-31.314-3.45-68.709-10.226-109.776z" fill="#f05475"/></g></g><g><g><path d="m127.458 246.834c-55.093-13.905-80.506-72.648-61.138-120.497-37.633 49.826-13.471 124.717 49.696 140.66 65.153 16.543 126.457 22.613 173.199 23.681-.138-6.583-.378-13.449-.722-20.547-44.975-1.787-101.388-8.151-161.035-23.297z" fill="#e21743"/></g></g><g><g><path d="m95.084 11.469-10.223 10.223c-17.785 17.785-17.785 46.621 0 64.407l10.223 10.223 10.223-10.223c17.785-17.785 17.785-46.621 0-64.407z" fill="#c3f839"/></g></g><g><g><path d="m101.131 69.829c-15.718-15.718-17.535-40.061-5.472-57.785l-.575-.575-10.223 10.223c-17.785 17.785-17.785 46.621 0 64.407l10.223 10.223 10.223-10.223c2.068-2.068 3.885-4.29 5.472-6.622z" fill="#abe700"/></g></g><g><g><path d="m10.232 96.322 10.223-10.223c17.785-17.785 46.621-17.785 64.407 0l10.223 10.223-10.223 10.223c-17.785 17.785-46.621 17.785-64.407 0z" fill="#c3f839"/></g></g><g><g><path d="m35.893 91.106-9.796-9.796c-1.975 1.422-3.866 3.013-5.642 4.789l-10.224 10.223 10.223 10.223c17.785 17.786 46.621 17.786 64.407 0l10.223-10.223-.427-.427c-17.797 12.811-42.755 11.22-58.764-4.789z" fill="#abe700"/></g></g><g><g><path d="m125.503 358.626 16.297-16.297-4.002-4.002c-9.505-9.505-24.917-9.505-34.422 0 9.505-9.505 9.505-24.917 0-34.422l-4.002-4.002-16.297 16.297c-20.417-5.448-43.143.034-58.888 16.482-22.18 23.17-22.034 60.261.318 83.265 23.377 24.058 61.833 24.268 85.473.629 15.7-15.702 20.863-37.936 15.523-57.95z" fill="#b071d2"/></g></g><g><g><path d="m41.796 398.657c-19.771-20.348-22.154-51.71-7.095-74.718-3.744 2.454-7.277 5.363-10.513 8.743-22.18 23.17-22.034 60.261.318 83.265 23.376 24.059 61.833 24.268 85.473.629 2.962-2.962 5.547-6.157 7.76-9.525-23.514 15.446-55.497 12.648-75.943-8.394z" fill="#923ec3"/></g></g><g><g><path d="m384.076 155.48 16.297 16.297 4.002-4.002c9.505-9.505 9.505-24.917 0-34.422 9.505 9.505 24.917 9.505 34.422 0l4.002-4.002-16.297-16.297c5.448-20.417-.034-43.143-16.482-58.888-23.17-22.18-60.261-22.034-83.265.318-24.058 23.377-24.268 61.833-.629 85.473 15.702 15.701 37.936 20.864 57.95 15.523z" fill="#b071d2"/></g></g><g><g><g><path d="m400.009 138.161c-20.015 5.34-42.249.178-57.95-15.523-19.955-19.955-22.915-50.467-8.882-73.555-2.236 1.63-4.387 3.424-6.422 5.402-24.059 23.376-24.268 61.833-.629 85.473 15.701 15.701 37.935 20.864 57.95 15.523l16.297 16.296 4.002-4.002c4.995-4.995 7.339-11.621 7.083-18.164z" fill="#923ec3"/></g></g></g><g><g><path d="m46.476 374.143h-15c0-6.352 1.671-12.602 4.833-18.074l12.988 7.504c-1.846 3.194-2.821 6.849-2.821 10.57zm10.566-18.333-7.533-12.971c5.466-3.175 11.712-4.859 18.063-4.874l.033 15c-3.72.009-7.373.992-10.563 2.845z" fill="#fff"/></g></g></g></g><g><g><path d="m286.766 178.819-14.801 2.441c5.53 33.517 8.862 67.399 9.92 100.833-39.76-1.35-98.245-6.621-163.658-23.23-28.937-7.304-50.957-28.87-58.904-57.689-7.981-28.944-.082-58.89 21.134-80.104l40.581-40.581c21.219-21.22 51.184-29.122 80.152-21.146 28.753 7.918 50.274 29.852 57.571 58.678 4.025 15.849 7.593 32.128 10.604 48.385l14.75-2.732c-3.071-16.577-6.71-33.18-10.813-49.339-8.638-34.12-34.105-60.083-68.129-69.453-14.34-3.948-28.885-4.592-42.793-2.177 1.581-5.07 2.401-10.385 2.401-15.821v-21.957h-21.958c-11.635 0-22.695 3.728-31.828 10.607-.003-.002-.005-.005-.008-.008l-15.528-15.526-15.526 15.526c-13.668 13.668-18.295 33-13.897 50.51-17.51-4.397-36.841.229-50.51 13.896l-15.526 15.527 15.526 15.527s.001.001.002.002c-6.881 9.126-10.602 20.175-10.602 31.833v21.958h21.957c5.411 0 10.724-.816 15.795-2.396-2.415 13.904-1.77 28.444 2.183 42.778 9.4 34.092 35.455 59.604 69.684 68.243 71.23 18.087 134.413 22.985 174.874 23.909l7.669-7.655c-.769-36.692-4.242-73.984-10.322-110.839zm-143.945-158.892h6.958v6.957c0 7.636-2.232 14.942-6.466 21.222-5.893 2.355-11.576 5.309-16.975 8.841.739-10.075-1.378-20.316-6.354-29.404 6.552-4.939 14.488-7.616 22.837-7.616zm-52.281 6.206 4.919-4.92 4.92 4.919c14.827 14.828 14.832 38.947.02 53.781l-4.939 4.939-4.919-4.919c-14.834-14.832-14.834-38.967-.001-53.8zm-64.408 64.407c14.833-14.832 38.968-14.835 53.801 0l4.92 4.919-4.92 4.919c-14.832 14.834-38.968 14.833-53.8.001l-4.92-4.921zm.752 59.239h-6.957v-6.958c0-8.365 2.671-16.293 7.611-22.84 9.09 4.963 19.267 7.128 29.397 6.357-3.538 5.404-6.496 11.092-8.855 16.991-6.272 4.219-13.6 6.45-21.196 6.45z"/><path d="m77.02 168.989h15v21.98h-15z" transform="matrix(.707 -.707 .707 .707 -102.515 112.496)"/><path d="m108.839 137.169h15v21.98h-15z" transform="matrix(.707 -.707 .707 .707 -70.689 125.653)"/><path d="m140.659 105.349h15v21.98h-15z" transform="matrix(.707 -.707 .707 .707 -38.869 138.845)"/><path d="m172.479 73.529h15v21.98h-15z" transform="matrix(.707 -.707 .707 .707 -7.052 152.014)"/><path d="m183.086 211.416h15v21.98h-15z" transform="matrix(.707 -.707 .707 .707 -101.444 199.915)"/><path d="m214.906 179.595h15.001v21.981h-15.001z" transform="matrix(.707 -.707 .707 .707 -69.623 213.086)"/><path d="m129.686 189.835h15v21.98h-15z" transform="matrix(.707 -.707 .707 .707 -101.823 155.818)"/><path d="m161.505 158.015h15.001v21.981h-15.001z" transform="matrix(.707 -.707 .707 .707 -70.005 169.006)"/><path d="m235.751 232.262h15.001v21.98h-15.001z" transform="matrix(.707 -.707 .707 .707 -100.758 243.252)"/><path d="m193.325 126.195h15.001v21.981h-15.001z" transform="matrix(.707 -.707 .707 .707 -38.185 182.186)"/></g><g><path d="m400.373 182.383-18.66-18.659c-21.98 4.343-44.959-2.532-60.89-18.464-26.465-25.373-26.131-71.162.705-96.154 24.706-24.991 68.781-25.168 93.679-.357 16.729 16.014 24.01 39.404 19.54 61.943l18.658 18.659-9.305 9.306c-6.618 6.657-15.86 10.01-25.208 9.214.798 9.349-2.557 18.59-9.215 25.208zm-14.052-35.264 13.981 13.981c2.399-2.979 3.702-6.658 3.702-10.537 0-4.498-1.752-8.727-4.934-11.907l10.607-10.607c3.181 3.182 7.409 4.933 11.907 4.933 3.879 0 7.558-1.303 10.537-3.701l-13.981-13.981c6.514-19.566 1.781-41.451-13.308-55.715-20.154-19.294-52.835-19.167-72.853.279-20.875 19.442-21.137 55.053-.551 74.79 14.245 14.418 35.771 18.829 54.893 12.465z"/></g><g><path d="m150.801 481.999v-13.16c0-9.752 4.407-18.494 11.335-24.34-6.928-5.846-11.335-14.588-11.335-24.34v-13.16h26.39c12.468-18.609 33.58-30 56.11-30 36.656-.772 68.798 31.842 67.492 68.49-.289 20.102-9.536 38.925-25.371 51.643l-9.393-11.695c12.337-9.908 19.541-24.547 19.766-40.162 1.015-28.509-23.982-53.875-52.494-53.275-20.268-.122-38.608 11.981-47.628 30h-19.773c.92 8.423 8.076 15 16.74 15v15c-8.664 0-15.82 6.577-16.74 15h19.772c9.228 18.442 28.05 30.556 48.805 29.987 6.348-.139 12.545-1.422 18.419-3.813l5.656 13.893c-7.574 3.084-15.564 4.738-23.747 4.917-23.037.529-44.867-10.878-57.617-29.983h-26.387z"/></g><path d="m476.906 267.272c-.707-6.373-3.123-12.414-6.743-17.639l18.55-18.55-10.607-10.607-18.55 18.55c-5.225-3.62-11.266-6.037-17.639-6.743-5.175-40.462-61.134-48.373-77.334-10.879-35.638-8.69-63.796 31.875-42.893 62.234-14.854 13.127-17.368 37.228-5.699 53.137-25.508 37.067 19.035 82.081 56.429 56.427 6.777 4.797 14.854 7.382 23.326 7.382 11.368.015 22.116-4.713 29.805-13.085 30.343 20.895 70.924-7.233 62.234-42.892 37.475-16.192 29.605-72.148-10.879-77.335zm-57.117 58.172 10.607 10.607c10.209-10.5 28.367-9.674 37.538 1.635 17.832 21.178-7.113 52.064-31.438 38.86-5.16-2.929-9.276-7.637-13.61-12.469-2.731 4.393-5.531 10.726-9.412 14.34-9.379 9.438-25.866 9.487-35.312.142-1.657-1.639-4.088-4.103-5.743-5.744-6.407 6.979-13.261 12.992-23.325 12.768-19.875.42-31.429-22.356-22.185-38.214 6.702 4.381 14.426 6.576 22.151 6.576 10.368 0 20.736-3.946 28.63-11.839l-10.607-10.607c-19.648 18.897-50.531-.851-42.037-26.524 3.129-9.939 11.701-13.885 20.067-18.674-8.014-7.175-15.702-13.771-15.485-25.532-.541-18.209 20.339-31.329 36.531-22.973l8.735 4.198c1.412-7.624 2.698-17.128 8.85-22.574 16.209-16.559 45.176-3.461 43.453 19.627l-.531 8.485c10.474-1.063 20.191-1.225 28.113 6.875 8.112 7.937 7.937 17.612 6.876 28.114 8.509-.594 16.408-1.722 23.741 3.336 16.542 10.71 15.81 37.217-3.819 44.975-14.067-20.449-44.388-23.132-61.788-5.388z"/><g><g><path d="m18.497 327.494c16.014-16.729 39.401-24.013 61.943-19.539l18.66-18.659 9.306 9.305c6.892 6.892 9.957 16.184 9.197 25.21 9.354-.802 18.602 2.552 25.225 9.214l9.305 9.305-18.659 18.66c4.343 21.974-2.531 44.957-18.463 60.89-25.903 26.534-70.601 26.238-96.155-.706-24.994-24.707-25.167-68.788-.359-93.68zm11.115 83.226c19.444 20.875 55.044 21.142 74.79.552 14.419-14.246 18.829-35.772 12.466-54.891l13.981-13.981c-2.979-2.399-6.658-3.702-10.537-3.702-4.498 0-8.727 1.752-11.907 4.934l-10.607-10.607c6.127-6.126 6.537-15.837 1.231-22.444l-13.981 13.981c-19.389-6.48-41.397-1.858-55.715 13.307-19.294 20.153-19.168 52.835.279 72.851z"/></g></g></g></g><g/><g/><g/><g/><g/><g/><g/><g/><g/><g/><g/><g/><g/><g/><g/></svg>