<svg height="512pt" viewBox="-31 0 512 512" width="512pt" xmlns="http://www.w3.org/2000/svg"><path d="m386.195312 122.613281c-.179687-.21875-.449218-.34375-.730468-.34375h-41.585938v-63.046875l-55.402344-51.582031h-129.910156l-38.207031 76.417969h-43.941406l-40.121094 76.417968v91.703126h-28.65625v105.074218l94.570313 94.566406 20.058593.957032v43.9375l21.015625 7.644531h156.65625l88.835938-88.835937.953125-90.75 53.492187-26.742188v-106.988281zm0 0" fill="#dfb176"/><path d="m206.328125 309.492188-59.222656 63.046874-.769531.769532c-53.183594-53.183594-53.183594-139.40625 0-192.585938 42.542968-42.546875 111.523437-42.546875 154.066406 0 34.035156 34.035156 34.035156 89.21875 0 123.253906-27.230469 27.230469-71.375 27.230469-98.601563 0-21.785156-21.785156-21.785156-57.101562 0-78.882812 17.425781-17.425781 45.679688-17.425781 63.105469 0 13.941406 13.9375 13.941406 36.542969 0 50.484375-11.152344 11.152344-29.234375 11.152344-40.386719 0-8.925781-8.921875-8.925781-23.386719 0-32.308594" fill="#b99756"/><path d="m143.285156 504.359375-1.910156-49.671875-40.121094-.957031-66.867187-71.640625v-128h28.65625v-91.703125l40.121093-76.417969h43.941407l38.207031-76.417969h105.21875l-2.054688-1.910156h-129.910156l-38.207031 76.417969h-43.941406l-40.121094 76.417968v91.703126h-28.65625v105.074218l94.570313 94.566406 20.058593.957032v43.9375l21.015625 7.644531h21.492188zm0 0" fill="#b99756"/><path d="m223.367188 141.171875c-31.140626 0-60.417969 12.125-82.4375 34.144531-27.164063 27.164063-42.125 63.28125-42.125 101.699219s14.960937 74.53125 42.125 101.695313l5.40625 5.40625 6.175781-6.175782 55.457031-59.03125c30.066406 20.203125 71.285156 17.027344 97.839844-9.53125 36.960937-36.960937 36.960937-97.101562 0-134.0625-22.023438-22.019531-51.300782-34.144531-82.441406-34.144531zm71.632812 157.402344c-11.726562 11.726562-27.316406 18.183593-43.898438 18.183593-16.582031 0-32.171874-6.457031-43.898437-18.183593-18.769531-18.769531-18.769531-49.308594 0-68.078125 6.984375-6.984375 16.269531-10.828125 26.148437-10.828125 9.878907 0 19.164063 3.84375 26.148438 10.828125 10.941406 10.941406 10.941406 28.742187.003906 39.679687-3.953125 3.949219-9.207031 6.125-14.792968 6.125-5.589844 0-10.839844-2.171875-14.789063-6.125-2.875-2.871093-4.457031-6.691406-4.457031-10.75 0-4.0625 1.582031-7.878906 4.453125-10.753906l-10.804688-10.804687c-5.757812 5.757812-8.929687 13.414062-8.929687 21.558593s3.171875 15.800781 8.929687 21.558594c6.796875 6.796875 15.820313 10.554687 25.421875 10.597656v10.269531h15.285156v-13.554687c3.851563-1.773437 7.402344-4.226563 10.488282-7.3125 8.183594-8.1875 12.695312-19.070313 12.695312-30.644531 0-11.578125-4.511718-22.460938-12.695312-30.648438-.652344-.652344-1.324219-1.285156-2.007813-1.898437l7.503907-19.507813-9.148438-18.296875-13.671875 6.832031 6.136719 12.269532-3.875 10.078125c-6.777344-3.128907-14.207032-4.785157-21.894532-4.785157-13.960937 0-27.085937 5.4375-36.957031 15.308594-24.648437 24.648438-24.726562 64.710938-.230469 89.460938l-49.816406 53.03125c-20.859375-23.519532-32.257812-53.464844-32.257812-85.167969 0-3.671875.160156-7.320313.464844-10.941406l24.628906 1.644531 15.863281-20.398438-12.0625-9.382812-10.882813 13.988281-15.367187-1.023437c5.003906-24.375 17.003906-46.773438 35.003906-64.773438 19.132813-19.132812 44.570313-29.671875 71.628907-29.671875 27.058593 0 52.496093 10.535157 71.632812 29.671875 31 31 31 81.441406 0 112.445313zm0 0"/><path d="m229.253906 382.089844h-15.285156v27.402344l-33.730469 33.730468h-19.761719v15.285156h26.089844l43.941406-43.941406h21.671876v-15.28125h-22.925782zm0 0"/><path d="m133.074219 137.550781h14.03125v-15.28125h-20.359375l-22.925782 22.925781h-19.761718v15.28125h26.089844zm0 0"/><path d="m357.253906 152.835938h-15.285156v18.449218l17.195312 17.191406v17.851563h15.285157v-24.179687l-17.195313-17.195313zm0 0"/><path d="m392.0625 117.710938c-1.640625-1.960938-4.046875-3.085938-6.601562-3.085938h-33.9375v-58.726562l-60.039063-55.898438h-137.640625l-38.207031 76.417969h-43.835938l-43.144531 82.175781v85.945312h-28.65625v115.878907l99.042969 99.042969h15.582031v42.609374l27.3125 9.929688h161.167969l93.3125-93.3125v-88.710938l54.449219-27.222656v-114.476562zm4.355469 195.175781v-56.886719h-15.28125v83.871094l-41.050781-1.578125-11.1875-14.386719-12.0625 9.382812 15.554687 20.003907 48.746094 1.871093v57.195313l-15.585938 15.582031h-26.144531l-13.046875-13.046875-10.808594 10.808594 17.523438 17.519531h17.195312l-53.492187 53.492188h-31.835938l-11.425781-27.742188-14.132813 5.816406 9.027344 21.929688h-103.78125l-14.71875-5.355469v-31.898437h11.464844v-15.285156h-36l-51.582031-51.582032 14.984375-14.984375v-26.089843h-15.285156v19.757812l-10.507813 10.507812-27.699219-27.699218v-94.269532h45.542969l13.75-16.042968-11.605469-9.945313-9.171875 10.707031h-9.859375v-82.175781l37.09375-70.660156h105.53125l21.34375-21.34375-10.808594-10.808594-16.863281 16.867188h-47.515625l30.566406-61.132813h78.84375l-1.402343 22.445313 15.253906.957031 1.464844-23.402344h28.023437l50.765625 47.265625v52.074219h-6.386719l-35.96875-35.96875-10.808593 10.808594 40.445312 40.445312h58.8125l53.25 63.902344v28.25l-19.777343 14.382812 8.988281 12.359376 10.789062-7.84375v52.34375zm0 0"/></svg>