<svg id="Layer_1" enable-background="new 0 0 256 256" viewBox="0 0 256 256" xmlns="http://www.w3.org/2000/svg"><g><g><g><g><g><path d="m250.84 104.702v115.97c0 2.761-2.239 5-5 5h-52.488v-125.97h52.488c2.762 0 5 2.239 5 5z" fill="#c77b61"/></g></g><g><g><path d="m204.352 99.702h4.648v125.97h-4.648z" fill="#a86654"/></g></g><g><g><path d="m220.352 99.702h4.648v125.97h-4.648z" fill="#a86654"/></g></g><g><g><path d="m236.352 99.702h4.648v125.97h-4.648z" fill="#a86654"/></g></g></g><g><g><g><path d="m5.16 104.702v115.97c0 2.761 2.239 5 5 5h52.488v-125.97h-52.488c-2.762 0-5 2.239-5 5z" fill="#c77b61"/></g></g><g><g><path d="m47 99.702h4.648v125.97h-4.648z" fill="#a86654"/></g></g><g><g><path d="m31 99.702h4.648v125.97h-4.648z" fill="#a86654"/></g></g><g><g><path d="m15 99.702h4.648v125.97h-4.648z" fill="#a86654"/></g></g></g><g><g><g><path d="m128 31.379-65.352 53.109v149.185h130.704v-149.184z" fill="#fcc171"/></g></g><g><g><path d="m70.356 81.584h115.289v11.118h-115.289z" fill="#e59a5c"/></g></g><g><g><path d="m168.865 64.584h-81.718l-13.682 11.119h109.082z" fill="#e59a5c"/></g></g><g><g><g><path d="m161.628 58.703-13.681-11.119h-39.882l-13.681 11.119z" fill="#e59a5c"/></g></g></g><g><g><path d="m55 247.673v-12c0-1.105.895-2 2-2h142c1.105 0 2 .895 2 2v12c0 1.105-.895 2-2 2h-142c-1.105 0-2-.896-2-2z" fill="#c77b61"/></g></g><g><g><path d="m199 233.673h-20c1.105 0 2 .896 2 2v12c0 1.104-.895 2-2 2h20c1.105 0 2-.896 2-2v-12c0-1.105-.895-2-2-2z" fill="#a86654"/></g></g><g><g><path d="m208.885 68.897-73.975-60.118c-4.022-3.269-9.786-3.269-13.807 0l-74.277 60.364c-4.692 3.812-5.404 10.706-1.591 15.398 3.812 4.693 10.708 5.405 15.398 1.591l67.374-54.753 67.373 54.753c5.8 4.239 12.736 2.453 16.137-2.61 3.14-4.677 1.74-11.072-2.632-14.625z" fill="#c77b61"/></g></g></g><g><g><g><path d="m70.356 99.702h115.289v125.97h-115.289z" fill="#725246"/></g></g><g><g><g><g><path d="m115.773 215.11h-24.126v-26.234c0-1.105.895-2 2-2h20.126c1.105 0 2 .895 2 2z" fill="#b2b0ad"/></g></g></g><g><g><g><path d="m116.038 208.622h-.265v-2.983h.265c3.235 0 5.866-2.631 5.866-5.866s-2.631-5.866-5.866-5.866h-.265v-2.983h.265c4.879 0 8.849 3.969 8.849 8.849s-3.969 8.849-8.849 8.849z" fill="#827f7e"/></g></g></g><g><g><g><path d="m103.775 176.191h-.13c-1.172 0-2.122.95-2.122 2.122v14.077c0 1.172.95 2.122 2.122 2.122h.13c1.172 0 2.122-.95 2.122-2.122v-14.077c0-1.171-.95-2.122-2.122-2.122z" fill="#827f7e"/></g></g></g><g><g><path d="m83.663 190.722v6.333l7.984 3.47v-7.489z" fill="#827f7e"/></g></g><g><g><g><path d="m116.298 215.11h-25.177c-.955 0-1.728.774-1.728 1.728v.106c0 .955.774 1.728 1.728 1.728h25.177c.955 0 1.728-.774 1.728-1.728v-.106c.001-.954-.773-1.728-1.728-1.728z" fill="#827f7e"/></g></g></g><g><g><g><path d="m83.883 187.771-4.708 10.097c-.097.209.002.458.217.541 2.907 1.115 6.224-.195 7.56-3.06 1.336-2.866.208-6.248-2.515-7.759-.202-.112-.457-.028-.554.181z" fill="#b2b0ad"/></g></g></g><g><g><g><circle cx="103.71" cy="191.979" fill="#b2b0ad" r="1.193"/></g></g></g></g><g><g><g><path d="m115.303 134.301-2.932 23.354c-.11.876-.854 1.532-1.737 1.532h-17.244c-.882 0-1.627-.657-1.737-1.532l-2.932-23.354z" fill="#8dc8d8"/></g></g><g><g><path d="m113.08 131.959c-.552 0-1-.447-1-1v-4.674c0-2.206-1.794-4-4-4h-12.136c-2.206 0-4 1.794-4 4v4.674c0 .553-.448 1-1 1s-1-.447-1-1v-4.674c0-3.309 2.691-6 6-6h12.136c3.309 0 6 2.691 6 6v4.674c0 .553-.448 1-1 1z" fill="#8dc8d8"/></g></g><g><g><path d="m88.313 134.301h27.398c.923 0 1.671-.748 1.671-1.671 0-.923-.748-1.671-1.671-1.671h-27.398c-.923 0-1.671.748-1.671 1.671 0 .923.748 1.671 1.671 1.671z" fill="#6ea6af"/></g></g></g><g><g><g><path d="m167.516 203.073c0 4.46-1.956 8.691-5.338 11.599-2.422 2.081-5.128 4.001-6.875 4.001s-4.454-1.919-6.875-4.001c-3.383-2.907-5.338-7.138-5.338-11.599v-10.736c0-1.054.854-1.908 1.908-1.908h20.61c1.054 0 1.908.854 1.908 1.908z" fill="#b2b0ad"/></g></g><g><g><path d="m152.678 125.432h5.248v64.997h-5.248z" fill="#fcc171"/></g></g><g><g><path d="m152.678 125.432h5.248v6.56h-5.248z" fill="#cc628e"/></g></g><g><g><path d="m157.926 190.429h-5.248v7.005l1.799 5.098c.275.778 1.375.778 1.65 0l1.799-5.098z" fill="#827f7e"/></g></g><g><g><path d="m149.687 111c-1.258 0-2.264 1.061-2.185 2.316.522 8.324 3.815 14.74 7.8 14.74s7.278-6.416 7.8-14.74c.079-1.256-.927-2.316-2.185-2.316zm5.615 13.266c-2.415 0-4.373-4.242-4.373-9.476h8.747c0 5.233-1.958 9.476-4.374 9.476z" fill="#cc628e"/></g></g></g><g><g><g><path d="m70.356 99.702h115.289v7h-115.289z" fill="#5e3e2f"/></g></g><g><g><path d="m70.356 159.188h59.644v7h-59.644z" fill="#5e3e2f"/></g></g><g><g><path d="m70.356 218.673h115.289v7h-115.289z" fill="#5e3e2f"/></g></g><g><g><path d="m126.5 99.702h7v125.97h-7z" fill="#5e3e2f"/></g></g><g><g><path d="m178.644 99.702h7v125.97h-7z" fill="#5e3e2f"/></g></g><g><g><path d="m70.356 99.702h7v125.97h-7z" fill="#5e3e2f"/></g></g></g></g></g><g><g><path d="m199 251.673h-142c-2.206 0-4-1.794-4-4v-12c0-2.206 1.794-4 4-4h3.648v-4h-50.488c-3.86 0-7-3.141-7-7v-115.971c0-3.859 3.14-7 7-7h50.488v-9.121c-2.445 1.554-5.324 2.235-8.249 1.934-3.44-.355-6.536-2.029-8.716-4.714-2.181-2.683-3.187-6.055-2.831-9.495.355-3.439 2.029-6.534 4.713-8.715l74.277-60.363c4.729-3.848 11.598-3.848 16.33 0l73.975 60.117c5.312 4.317 6.643 11.913 3.03 17.292-2.012 2.995-5.158 5.063-8.632 5.675-3.123.553-6.34-.089-9.192-1.801v9.191h50.488c3.86 0 7 3.141 7 7v115.971c0 3.859-3.14 7-7 7h-50.488v4h3.647c2.206 0 4 1.794 4 4v12c0 2.206-1.794 4-4 4zm-142-16v12h142v-12h-5.648c-1.104 0-2-.896-2-2v-8c0-1.104.896-2 2-2h52.488c1.654 0 3-1.346 3-3v-115.971c0-1.654-1.346-3-3-3h-52.488c-1.104 0-2-.896-2-2v-15.213c0-.771.443-1.474 1.139-1.805s1.521-.234 2.12.25l2.027 1.642c2.185 1.595 4.707 2.238 7.213 1.796 2.408-.424 4.596-1.869 6.005-3.966 2.471-3.679 1.49-8.932-2.232-11.958l-73.975-60.117c-3.27-2.655-8.015-2.658-11.284 0l-74.278 60.363c-1.854 1.508-3.011 3.646-3.257 6.023-.246 2.376.449 4.706 1.957 6.561 1.507 1.855 3.646 3.012 6.023 3.258 2.377.245 4.708-.449 6.56-1.957l2.017-1.638c.599-.486 1.423-.587 2.121-.254.697.331 1.141 1.034 1.141 1.806v15.209c0 1.104-.896 2-2 2h-52.489c-1.654 0-3 1.346-3 3v115.971c0 1.654 1.346 3 3 3h52.488c1.104 0 2 .896 2 2v8c0 1.104-.896 2-2 2z" fill="#422618"/></g></g></g></svg>