<svg id="Capa_1" enable-background="new 0 0 512 512" height="512" viewBox="0 0 512 512" width="512" xmlns="http://www.w3.org/2000/svg"><g><g><path d="m501.356 221.031-210.387-210.387c-2.013-2.013-4.743-3.144-7.589-3.144h-54.759c-2.847 0-5.576 1.131-7.589 3.144l-210.388 210.387c-2.013 2.013-3.144 4.743-3.144 7.589v54.759c0 2.847 1.131 5.576 3.144 7.589l210.388 210.388c2.013 2.013 4.743 3.144 7.589 3.144h54.759c2.847 0 5.577-1.131 7.589-3.144l210.388-210.388c2.013-2.013 3.144-4.743 3.144-7.589v-54.759c-.001-2.846-1.132-5.576-3.145-7.589z" fill="#fe860a"/><path d="m256 256v-248.5h-27.379c-2.847 0-5.576 1.131-7.589 3.144l-210.388 210.387c-2.013 2.013-3.144 4.743-3.144 7.589v27.38z" fill="#fdb441"/><path d="m7.5 283.379c0 2.847 1.131 5.576 3.144 7.589l210.388 210.388c2.013 2.013 4.743 3.144 7.589 3.144h27.38v-239.884h-248.501z" fill="#fe7701"/><path d="m501.356 221.031-210.387-210.387c-2.013-2.013-4.743-3.144-7.589-3.144h-33c2.846 0 5.576 1.131 7.589 3.144l210.388 210.388c2.013 2.013 3.144 4.743 3.144 7.589v54.759c0 2.846-1.131 5.576-3.144 7.589l-210.388 210.387c-2.013 2.013-4.743 3.144-7.589 3.144h33c2.846 0 5.576-1.131 7.589-3.144l210.388-210.388c2.013-2.013 3.144-4.743 3.144-7.589v-54.759c-.001-2.846-1.132-5.576-3.145-7.589z" fill="#f46700"/><path d="m223.862 8.625-46.975 168.261 79.113 64.398 79.114-64.398-46.976-168.261c-1.514-.75-3.225-1.125-4.759-1.125h-54.759c-1.496 0-3.237.372-4.758 1.125z" fill="#fedbbd"/><path d="m300.606 53.281-12.468-44.656c-1.514-.75-3.226-1.125-4.759-1.125h-33c2.846 0 5.576 1.131 7.589 3.144z" fill="#fdb97e"/><path d="m503.375 223.861c.727 1.467 1.125 3.091 1.125 4.76v54.759c0 1.669-.399 3.292-1.125 4.76l-168.261 46.975-64.398-79.115 64.398-79.114z" fill="#fdb441"/><path d="m458.719 211.394 9.637 9.637c2.013 2.013 3.144 4.743 3.144 7.589v54.759c0 2.846-1.131 5.576-3.144 7.589l-9.637 9.637 44.655-12.467c.727-1.467 1.125-3.091 1.125-4.76v-54.759c0-1.669-.399-3.293-1.125-4.76z" fill="#fe860a"/><path d="m335.114 335.114-79.114-64.398-79.114 64.398 46.975 168.261c1.467.727 3.091 1.125 4.76 1.125h54.759c1.668 0 3.292-.399 4.76-1.125z" fill="#fdb97e"/><path d="m288.139 503.375 12.467-44.655-42.637 42.637c-2.013 2.013-4.743 3.144-7.589 3.144h33c1.668-.001 3.292-.4 4.759-1.126z" fill="#fea95c"/><path d="m8.625 288.139 168.261 46.975 64.398-79.114-64.398-79.114-168.26 46.975c-.729 1.471-1.125 3.148-1.125 4.76v54.759c-.001 1.546.379 3.254 1.124 4.759z" fill="#fe9738"/><path d="m175.613 177.976c13.981 52.016 13.981 104.032 0 156.048-.388 1.442.921 2.751 2.364 2.364 52.016-13.981 104.032-13.981 156.048 0 1.442.388 2.751-.921 2.364-2.364-13.981-52.016-13.981-104.032 0-156.048.388-1.442-.921-2.751-2.364-2.364-52.016 13.981-104.032 13.981-156.048 0-1.443-.387-2.752.922-2.364 2.364z" fill="#fedba6"/></g><path d="m506.66 215.728-210.388-210.388c-3.257-3.257-7.912-5.34-12.892-5.34h-54.76c-4.98 0-9.634 2.082-12.893 5.34l-52.017 52.018c-2.929 2.929-2.929 7.678 0 10.606 2.93 2.929 7.678 2.929 10.607 0l34.947-34.947-38.46 137.789-137.79 38.461 116.558-116.558c2.929-2.929 2.929-7.678 0-10.606-2.93-2.929-7.678-2.929-10.607 0l-133.625 133.626c-3.444 3.444-5.34 8.022-5.34 12.892v54.759c0 4.87 1.896 9.449 5.34 12.893l210.388 210.387c3.444 3.444 8.023 5.34 12.894 5.34h54.758c4.87 0 9.449-1.896 12.894-5.34l210.386-210.388c3.443-3.444 5.34-8.022 5.34-12.893v-54.759c0-4.869-1.896-9.447-5.34-12.892zm-186.686 173.617c-3.994-1.115-8.126 1.218-9.24 5.207l-28.601 102.448h-52.264l-43.283-155.07c46.098-11.288 92.734-11.288 138.832.001l-5.272 18.916c-1.33 4.771 2.257 9.516 7.229 9.516 3.282 0 6.297-2.172 7.221-5.488l6.598-23.676 137.791-38.464-176.249 176.247 22.445-80.397c1.114-3.989-1.218-8.126-5.207-9.24zm-149.903-202.759c11.287 46.098 11.287 92.734-.001 138.832l-155.07-43.286v-52.263zm59.795-171.586h52.268l43.281 155.071c-46.099 11.288-92.733 11.286-138.83 0zm112.064 310.418c-11.288-46.098-11.288-92.735-.001-138.832l155.071 43.283v52.263zm-156.761-140.249c47.047 11.177 94.615 11.177 141.662 0-11.177 47.047-11.177 94.614 0 141.662-46.765-11.111-94.334-11.245-141.662 0 11.177-47.047 11.177-94.614 0-141.662zm156.026-14.363-38.46-137.789 176.251 176.25zm-170.387 170.392 38.46 137.788-176.252-176.252z"/></g></svg>