<svg id="Capa_1" enable-background="new 0 0 512 512" height="512" viewBox="0 0 512 512" width="512" xmlns="http://www.w3.org/2000/svg"><g><path d="m10 33.5v445h492v-445h-71v50h-50v50h-50v50h-50v50h-50v-50h-50v-50h-50v-50h-50v-50z" fill="#f5c6af"/><g fill="#b278d3"><circle cx="100" cy="195" r="20"/><circle cx="270" cy="405" r="20"/><circle cx="420" cy="215" r="20"/></g><path d="m148.936 364-39.358-3.578-3.578-39.358 35.064-35.064 40.074 2.862 2.862 40.074z" fill="#a0e5a5"/><path d="m397.87 367.5-67.555-2.815-2.815-67.555 24.63-24.63 31.666 3.519 35.185 35.185 3.519 31.666z" fill="#80b6ff"/><g><circle cx="502" cy="370.5" r="10"/><path d="m509.07 26.43c-1.86-1.86-4.44-2.93-7.07-2.93h-71c-2.63 0-5.21 1.069-7.07 2.93-1.86 1.86-2.93 4.44-2.93 7.07v40h-40c-2.63 0-5.21 1.069-7.07 2.93-1.86 1.86-2.93 4.44-2.93 7.07v40h-40c-2.63 0-5.21 1.069-7.07 2.93-1.86 1.86-2.93 4.44-2.93 7.07v40h-40c-2.63 0-5.21 1.069-7.07 2.93-1.86 1.86-2.93 4.44-2.93 7.07v40h-30v-40c0-2.63-1.07-5.21-2.93-7.07s-4.44-2.93-7.07-2.93h-40v-40c0-2.63-1.07-5.21-2.93-7.07s-4.44-2.93-7.07-2.93h-40v-40c0-2.63-1.07-5.21-2.93-7.07s-4.44-2.93-7.07-2.93h-40v-40c0-2.63-1.07-5.21-2.93-7.07s-4.44-2.93-7.07-2.93h-71c-.206 0-.384.011-.549.028-5.255.288-9.451 4.648-9.451 9.972v445c0 2.63 1.07 5.21 2.93 7.069 1.86 1.86 4.44 2.931 7.07 2.931h492c2.64 0 5.21-1.07 7.07-2.931 1.86-1.859 2.93-4.439 2.93-7.069v-63c0-5.51-4.49-10-10-10s-10 4.49-10 10v53h-472v-425h51v40c0 2.63 1.07 5.21 2.93 7.069 1.86 1.861 4.44 2.931 7.07 2.931h40v40c0 .246.012.429.03.584.146 2.424 1.178 4.764 2.9 6.486 1.86 1.86 4.44 2.931 7.07 2.931h40v40c0 2.63 1.07 5.21 2.93 7.069 1.86 1.86 4.44 2.931 7.07 2.931h40v40c0 2.63 1.07 5.21 2.93 7.069 1.86 1.86 4.44 2.931 7.07 2.931h50c2.63 0 5.21-1.07 7.07-2.931 1.86-1.859 2.93-4.439 2.93-7.069v-40h40c2.63 0 5.21-1.07 7.07-2.931 1.86-1.859 2.93-4.43 2.93-7.069v-40h40c2.63 0 5.21-1.07 7.07-2.931 1.86-1.859 2.93-4.439 2.93-7.069v-40h40c2.63 0 5.21-1.07 7.07-2.931 1.86-1.86 2.93-4.44 2.93-7.07v-40h51v282c0 5.52 4.49 10 10 10s10-4.48 10-10v-292c0-2.63-1.07-5.21-2.93-7.07z"/><circle cx="435" cy="405" r="10"/><circle cx="253" cy="315" r="10"/><circle cx="65" cy="415" r="10"/><path d="m100 225c16.542 0 30-13.458 30-30s-13.458-30-30-30-30 13.458-30 30 13.458 30 30 30zm0-40c5.514 0 10 4.486 10 10s-4.486 10-10 10-10-4.486-10-10 4.486-10 10-10z"/><path d="m270 435c16.542 0 30-13.458 30-30s-13.458-30-30-30-30 13.458-30 30 13.458 30 30 30zm0-40c5.514 0 10 4.486 10 10s-4.486 10-10 10-10-4.486-10-10 4.486-10 10-10z"/><path d="m420 185c-16.542 0-30 13.458-30 30s13.458 30 30 30 30-13.458 30-30-13.458-30-30-30zm0 40c-5.514 0-10-4.486-10-10s4.486-10 10-10 10 4.486 10 10-4.486 10-10 10z"/><path d="m99.619 361.327c.437 4.808 4.246 8.616 9.054 9.054 0 0 39.962 3.619 40.263 3.619 2.64 0 5.187-1.045 7.071-2.929l35.064-35.064c2.05-2.051 3.11-4.891 2.903-7.784l-2.862-40.073c-.354-4.961-4.301-8.907-9.262-9.262l-40.073-2.862c-2.9-.203-5.733.853-7.784 2.903l-35.064 35.064c-2.098 2.099-3.156 5.021-2.888 7.977zm45.288-65.027 26.874 1.92 1.919 26.874-28.524 28.523-26.394-2.399-2.4-26.395z"/><path d="m432.439 341.766-3.519-31.666c-.251-2.257-1.262-4.361-2.868-5.967l-35.185-35.186c-1.606-1.605-3.71-2.617-5.967-2.867l-31.667-3.519c-3.02-.333-6.027.72-8.176 2.867l-24.629 24.63c-1.978 1.978-3.037 4.693-2.92 7.487l2.815 67.556c.216 5.196 4.379 9.358 9.575 9.575 0 0 67.834 2.823 67.973 2.823 2.646 0 5.191-1.05 7.071-2.929l24.629-24.63c2.148-2.147 3.203-5.155 2.868-8.174zm-38.537 15.56-53.979-2.249-2.25-53.979 18.128-18.128 23.403 2.601 30.225 30.225 2.6 23.402z"/></g></g></svg>