<svg id="Capa_1" enable-background="new 0 0 512 512" height="512" viewBox="0 0 512 512" width="512" xmlns="http://www.w3.org/2000/svg"><path d="m466.59 53.88v404.24c0 2.31-.92 4.4-2.42 5.93-.02.02-.04.04-.06.06-1.31 1.31-3.06 2.2-5.01 2.42-.32.04-.65.06-.98.06h-404.24c-.33 0-.66-.02-.98-.06-1.92-.22-3.64-1.08-4.95-2.37-.02-.01-.04-.03-.06-.05-1.24-1.24-2.09-2.85-2.37-4.65-.08-.44-.11-.89-.11-1.34v-404.24c0-.45.03-.9.11-1.34.28-1.8 1.13-3.41 2.37-4.65.02-.02.04-.04.06-.05 1.31-1.29 3.03-2.15 4.95-2.37.32-.04.65-.06.98-.06h404.24c.33 0 .66.02.98.06 1.95.22 3.7 1.11 5.01 2.42l.06.06c1.5 1.53 2.42 3.62 2.42 5.93z" fill="#fb8627"/><path d="m464.17 47.95-.06-.06c-1.31-1.31-3.06-2.2-5.01-2.42-.32-.04-.65-.06-.98-.06h-404.24c-.33 0-.66.02-.98.06-1.92.22-3.64 1.08-4.95 2.37-.02.01-.04.03-.06.05-1.24 1.24-2.09 2.85-2.37 4.65-.08.44-.11.89-.11 1.34v404.24c0 .45.03.9.11 1.34.28 1.8 1.13 3.41 2.37 4.65.02.02.04.04.06.05 1.31 1.29 3.03 2.15 4.95 2.37.32.04.65.06.98.06h404.24c.33 0 .66-.02.98-.06 1.95-.22 3.7-1.11 5.01-2.42.02-.02.04-.04.06-.06 1.5-1.53 2.42-3.62 2.42-5.93v-404.24c0-2.31-.92-4.4-2.42-5.93zm-341.419 47.62h194.576c8.909 0 13.371 10.771 7.071 17.071l-211.697 211.698c-6.3 6.3-17.071 1.838-17.071-7.071v-194.577c0-14.978 12.143-27.121 27.121-27.121zm266.628 320.86h-194.707c-8.909 0-13.371-10.771-7.071-17.071l211.828-211.828c6.3-6.3 17.071-1.838 17.071 7.071v194.707c0 14.978-12.143 27.121-27.121 27.121z" fill="#f2671f"/><path d="m77.5 77.5h357v89.25h-357z" fill="#fca62f"/><path d="m77.5 77.5v89.25h18.13v-44.059c0-14.979 12.143-27.121 27.121-27.121h194.577c8.909 0 13.371 10.771 7.071 17.071l-54.109 54.109h164.21v-89.25z" fill="#fb9927"/><path d="m77.5 256h357v89.25h-357z" fill="#fca62f"/><path d="m416.5 256h18v89.25h-18z" fill="#fb9927"/><path d="m181.04 256-68.339 68.339c-6.3 6.3-17.071 1.838-17.071-7.071v-61.268h-18.13v89.25h164.21l89.25-89.25z" fill="#fb9927"/><path d="m477.04 84.46-60.54 60.54-332.04 332.04-49.5-49.5 331.97-331.97 60.61-60.61z" fill="#fcc16d"/><path d="m477.04 84.46-49.5-49.5-60.61 60.61h22.449c14.979 0 27.121 12.143 27.121 27.121v22.309zm-381.41 282.41-60.67 60.67 49.5 49.5 60.61-60.61h-22.319c-14.979 0-27.121-12.143-27.121-27.121z" fill="#fca62f"/><path d="m7.5 27.5v457c0 11.046 8.954 20 20 20h457c11.046 0 20-8.954 20-20v-457c0-11.046-8.954-20-20-20h-457c-11.046 0-20 8.954-20 20zm427 407h-357v-357h357z" fill="#fcca9f"/><path d="m484.5 0h-457c-15.164 0-27.5 12.336-27.5 27.5v327.833c0 4.143 3.358 7.5 7.5 7.5s7.5-3.357 7.5-7.5c0 0 .057-329.013.138-329.588l54.862 54.862v350.786l-54.862 54.862c-.081-.575-.138-96.921-.138-96.921 0-4.143-3.358-7.5-7.5-7.5s-7.5 3.357-7.5 7.5v95.166c0 15.164 12.336 27.5 27.5 27.5h457c15.164 0 27.5-12.336 27.5-27.5v-457c0-15.164-12.336-27.5-27.5-27.5zm-42.5 431.393v-118.726c0-4.143-3.358-7.5-7.5-7.5s-7.5 3.357-7.5 7.5v25.083h-192.646l74.25-74.25h118.396v15.166c0 4.143 3.358 7.5 7.5 7.5s7.5-3.357 7.5-7.5v-198.059l54.862-54.862c.081.575.081 459.935 0 460.51zm-357-78.643h14.146l-14.146 14.146zm29.146-15h-29.146v-74.25h103.396zm89.25-89.25h-118.396v-74.25h192.646zm-118.396 139.609 303.109-303.109h38.891v38.89l-303.109 303.11h-38.891zm342-228.859h-14.146l14.146-14.146zm-29.146 15h29.146v74.25h-103.396zm-178.5 178.5h207.646v74.25h-281.896zm266.901-337.612-54.862 54.862h-229.393c-4.142 0-7.5 3.357-7.5 7.5s3.358 7.5 7.5 7.5h164.896l-74.25 74.25h-207.646v-74.25h83c4.142 0 7.5-3.357 7.5-7.5s-3.358-7.5-7.5-7.5h-87.393l-54.862-54.862c.575-.081 459.935-.081 460.51 0zm-460.51 481.724 54.862-54.862h350.786l54.862 54.862c-.575.081-459.935.081-460.51 0z"/><path d="m425.292 454.868-.104-.001c-4.107-.047-7.531 3.287-7.57 7.43-.039 4.142 3.287 7.531 7.429 7.57l.104.001h.072c4.109 0 7.459-3.312 7.498-7.43.039-4.141-3.287-7.531-7.429-7.57z"/><path d="m462.49 417.67-.104-.001c-4.106-.048-7.531 3.287-7.57 7.43-.039 4.142 3.287 7.531 7.429 7.57l.104.001h.072c4.109 0 7.459-3.312 7.498-7.43.039-4.141-3.287-7.531-7.429-7.57z"/><path d="m49.755 79.331-.104-.001c-.024 0-.048 0-.072 0-4.109 0-7.459 3.312-7.498 7.43-.039 4.142 3.287 7.531 7.429 7.57l.104.001h.072c4.109 0 7.459-3.312 7.498-7.43.039-4.141-3.287-7.531-7.429-7.57z"/><path d="m86.708 57.132.104.001h.072c4.109 0 7.459-3.312 7.498-7.43.039-4.142-3.287-7.531-7.429-7.57l-.104-.001c-.024 0-.048 0-.072 0-4.109 0-7.459 3.312-7.498 7.43-.039 4.141 3.287 7.531 7.429 7.57z"/><path d="m49.632 417.617c-4.142 0-7.5 3.357-7.5 7.5v.104c0 4.143 3.358 7.5 7.5 7.5s7.5-3.357 7.5-7.5v-.104c0-4.142-3.358-7.5-7.5-7.5z"/><path d="m86.831 454.816c-4.142 0-7.5 3.357-7.5 7.5v.104c0 4.143 3.358 7.5 7.5 7.5s7.5-3.357 7.5-7.5v-.104c0-4.142-3.358-7.5-7.5-7.5z"/><path d="m425.169 57.184c4.142 0 7.5-3.357 7.5-7.5v-.104c0-4.143-3.358-7.5-7.5-7.5s-7.5 3.357-7.5 7.5v.104c0 4.142 3.358 7.5 7.5 7.5z"/><path d="m462.368 94.383c4.142 0 7.5-3.357 7.5-7.5v-.104c0-4.143-3.358-7.5-7.5-7.5s-7.5 3.357-7.5 7.5v.104c0 4.142 3.358 7.5 7.5 7.5z"/></svg>