<svg id="Layer_1" enable-background="new 0 0 512 512" viewBox="0 0 512 512" xmlns="http://www.w3.org/2000/svg"><g><g><g><path d="m257.702 8.468h-151.702l-52.34 52.34h-22.649l-23.011 23.011v300.042l309-162.797v-152.298z" fill="#e3994b"/><path d="m435.298 8.468-59.298 60.298v138l128 115.262v-313.56z" fill="#e3994b"/><path d="m397.986 182.246v-134.466l38.66-39.312h-1.348l-59.298 60.298v138l21.885 19.707c39.899 5.133 72.23 34.768 81.38 73.282l24.735 22.273v-75.155c-22.823-35.852-61.463-60.687-106.014-64.627z" fill="#c38340"/><g fill="#c38340"><path d="m299.346 181.682c-48.123 0-92.138 24.254-117.873 64.126h-55.127c-37.291 0-71.229 14.621-96.388 38.43v-223.43l-21.958 23.011v300.041l23.084-12.162c6.995-46.292 47.049-81.89 95.261-81.89h60.172l28.986-15.271c17.133-30.231 48.91-48.855 83.842-48.855h8.888l8.766-4.618v-39.382z"/><path d="m135.958 8.468h-29.958l-52.34 52.34h-.692l15.67 14.979z"/></g><path d="m385.524 203.682h-86.178c-45.819 0-85.552 26.04-105.218 64.126h-67.782c-65.361 0-118.346 52.986-118.346 118.346 0 65.361 52.985 118.346 118.346 118.346h86.178c45.819 0 85.552-26.04 105.218-64.126h67.782c65.361 0 118.346-52.985 118.346-118.346-.001-65.361-52.986-118.346-118.346-118.346z" fill="#54c9f3"/><path d="m322.303 203.682h-22.958c-45.819 0-85.552 26.04-105.218 64.126l-3.851 7.744h22.958l3.851-7.744c19.666-38.086 59.399-64.126 105.218-64.126z" fill="#00adeb"/><g fill="#00adeb"><path d="m247.423 480.601c-23.61-1.203-125.861 3.447-146.732-3.982-122.495-37.361-67.614-212.656 48.613-208.81-66.978-6.226-125.959 29.746-139.174 95.933-14.529 71.898 42.736 141.558 116.216 140.757 15.674.041 69.694-.028 86.177.001 32.409 0 61.764-13.04 83.135-34.145-14.731 6.585-31.055 10.246-48.235 10.246z"/><path d="m390.423 416.474h-37.782c-4.464 8.644-9.97 16.659-16.338 23.899h49.22c61.38 0 111.843-46.729 117.762-106.552-15.139 47.916-59.941 82.653-112.862 82.653z"/></g><path d="m422 130.628 21.213-21.213 21.213 21.213c11.716 11.716 11.716 30.711 0 42.426-11.716 11.716-30.711 11.716-42.426 0-11.716-11.715-11.716-30.71 0-42.426z" fill="#00ce8b"/><path d="m218.5 459.5c-16.569 0-30 13.431-30 30v15h60v-15c0-16.569-13.431-30-30-30z" fill="#58565b"/><path d="m229.251 461.492c-3.338-1.282-6.961-1.992-10.75-1.992-16.569 0-30 13.431-30 30v15h21.501v-15c-.001-12.779 7.992-23.684 19.249-28.008z" fill="#474549"/><path d="m271 470.75c-12.426 0-22.5 10.074-22.5 22.5v11.25h45v-11.25c0-12.426-10.074-22.5-22.5-22.5z" fill="#474549"/><path d="m115.277 223.5c-16.569 0-30 13.431-30 30v15h60v-15c0-16.569-13.432-30-30-30z" fill="#58565b"/><path d="m126.027 225.492c-3.338-1.282-6.961-1.992-10.75-1.992-16.569 0-30 13.431-30 30v15h21.501v-15c0-12.779 7.993-23.684 19.249-28.008z" fill="#474549"/><path d="m167.777 234.75c-12.426 0-22.5 10.074-22.5 22.5v11.25h45v-11.25c-.001-12.426-10.074-22.5-22.5-22.5z" fill="#474549"/><path d="m439.807 406.218c-4.871 0-9.428 1.336-13.332 3.656-4.801-15.045-18.887-25.943-35.524-25.943-13.638 0-25.56 7.325-32.061 18.252-3.91-1.9-8.299-2.968-12.939-2.968-16.373 0-29.645 13.273-29.645 29.645s13.272 29.645 29.645 29.645h93.856c14.439 0 26.144-11.705 26.144-26.144s-11.706-26.143-26.144-26.143z" fill="#00ce8b"/><path d="m355.046 436.772c-16.249 0-29.437-13.074-29.636-29.276-5.609 5.394-9.105 12.969-9.105 21.365 0 16.372 13.272 29.645 29.645 29.645h93.856c12.935 0 23.669-9.396 25.766-21.734z" fill="#00a666"/><path d="m439.702 155.255c-11.715-11.715-12.184-30.144-.469-41.86l-17.233 17.233c-11.716 11.716-11.716 30.711 0 42.426 11.716 11.716 30.711 11.716 42.426 0 3.069-3.069 5.326-6.64 6.787-10.447-17.66 6.819-31.511-7.352-31.511-7.352z" fill="#00a666"/><path d="m218.787 187.748c-16.569 0-30-13.431-30-30v-30c0-16.569 13.431-30 30-30 16.569 0 30 13.431 30 30v30c0 16.568-13.431 30-30 30z" fill="#c3f839"/><path d="m210.912 157.748v-30c0-12.599 8.092-23.377 19.099-27.821-3.468-1.4-7.254-2.179-11.223-2.179-16.569 0-30 13.431-30 30v30c0 16.569 13.431 30 30 30 3.97 0 7.755-.778 11.223-2.179-11.007-4.444-19.099-15.222-19.099-27.821z" fill="#abe700"/><path d="m346 38.766c-16.569 0-30 13.431-30 30v179.872h60v-179.872c0-16.569-13.431-30-30-30z" fill="#b6e6fa"/><path d="m357.214 40.941c-3.465-1.398-7.248-2.175-11.214-2.175-16.569 0-30 13.431-30 30v179.872h22.661v-179.872c0-12.603 7.542-23.383 18.553-27.825z" fill="#8ad8f6"/><path d="m398.298 233.702c-12.394 0-22.751 8.633-25.445 20.208-2.843-11.575-13.772-20.208-26.853-20.208s-24.01 8.633-26.853 20.208c-2.694-11.575-13.051-20.208-25.445-20.208-14.441 0-26.149 11.707-26.149 26.149s11.707 26.149 26.149 26.149h104.596c14.441 0 26.149-11.707 26.149-26.149s-11.708-26.149-26.149-26.149z" fill="#e3edf6"/><path d="m302.288 266.617c-14.438 0-26.143-11.702-26.149-26.139-5.274 4.784-8.586 11.691-8.586 19.373 0 14.442 11.708 26.149 26.149 26.149h104.596c12.101 0 22.278-8.222 25.26-19.383z" fill="#c5d9ec"/><g><path d="m91 308.5h15v15h-15z" fill="#fff"/></g><g><path d="m121 308.5h15v15h-15z" fill="#fff"/></g><g><path d="m113.426 31h15v15h-15z" fill="#fff"/></g><g><path d="m143.426 31h15v15h-15z" fill="#fff"/></g></g></g><g><path d="m432.499 0-51.936 52.809c-5.83-13.208-19.045-22.454-34.387-22.454-15.07 0-28.088 8.921-34.07 21.756l-51.251-52.111h-158.261l-52.443 52.44h-22.693l-27.458 27.456v145.562h15.029v-139.338l18.654-18.652h16.467l48.638 48.634v79.299h15.029v-85.524l-49.926-49.923 44.928-44.925h145.737l54.047 54.955v125.876c-29.532-1.409-59.312 5.986-82.661 22.754v-24.722c17.129-3.491 30.058-18.671 30.058-36.815v-30.057c0-20.717-16.855-37.571-37.573-37.571s-37.573 16.854-37.573 37.571v30.057c0 18.144 12.929 33.324 30.059 36.815v37.066c-5.264 5.06-10.107 10.609-14.475 16.597-3.899-12.08-15.247-20.845-28.609-20.845-7.677 0-14.688 2.897-20.006 7.649-6.488-11.293-18.664-18.921-32.596-18.921-20.718 0-37.573 16.854-37.573 37.571v17.085c-26.799 11.184-48.934 31.315-62.622 56.624v-86.233h-15.032v145.705c0 69.373 56.657 125.81 126.297 125.81h174.791v-18.786c0-4.833-1.154-9.4-3.19-13.45 8.145-7.311 15.37-15.717 21.38-24.857 6.046 6.085 14.868 10.283 26.72 10.941h60.296v-15.028h-60.296c-12.235 0-22.188-9.953-22.188-22.187-.362-16.014 17.657-27.23 31.869-19.969l6.211 3.017s3.53-5.934 3.53-5.933c12.639-21.917 46.776-18.149 54.1 6.147l2.874 9.003c4.968-2.825 11.596-7.881 17.643-7.435 24.628.644 24.633 36.71 0 37.358h-18.843v15.028h18.843c31.277-1.735 39.328-30.611 29.363-49.963 27.159-23.91 42.6-57.865 42.6-94.218v-321.668zm-236.616 157.077v-30.057c0-12.43 10.113-22.543 22.544-22.543s22.544 10.112 22.544 22.543v30.057c0 9.796-6.283 18.148-15.029 21.25v-36.279h-15.029v36.279c-8.747-3.102-15.03-11.454-15.03-21.25zm203.024 83.615c9.233.105 17.205 7.319 18.23 16.493 1.289 11.277-7.536 20.873-18.561 20.873h-104.343c-10.118 0-18.748-7.853-19.13-17.964-.402-10.63 8.13-19.405 18.672-19.405 8.483-.164 16.001 6.449 18.176 14.436h14.617c2.099-8.551 10.161-14.436 19.607-14.436 9.445 0 17.508 5.884 19.607 14.436h14.618c2.195-8.091 9.949-14.695 18.507-14.433zm-52.731-195.308c12.431 0 22.544 10.112 22.544 22.543v165.544c-4.286-3.433-9.421-5.876-15.029-7.038v-61.088h-15.029v61.088c-5.608 1.163-10.744 3.605-15.029 7.038v-165.545c-.001-12.43 10.113-22.542 22.543-22.542zm-178.348 196.355c10.155.044 16.173 9.061 15.029 18.645h-30.059c-1.145-9.583 4.88-18.604 15.03-18.645zm-75.147 18.645v-7.373c0-12.43 10.114-22.543 22.544-22.543s22.544 10.112 22.544 22.543v7.373zm148.29 236.588h-45.088v-7.514c0-12.43 10.113-22.543 22.544-22.543s22.544 10.112 22.544 22.543zm45.088 0h-30.059c-2.344-24.957 32.409-24.94 30.059 0zm173.597-92.529c-7.14-5.141-16.91-7.466-29.005-4.678-13.903-27.87-55.444-31.774-74.491-6.947-35.206-7.911-52.519 23.25-45.493 47.34-5.922 10.524-13.64 20.161-22.649 28.277-4.837-3.326-10.688-5.279-16.989-5.279-7.677 0-14.688 2.897-20.006 7.649-6.488-11.293-18.664-18.921-32.596-18.921-20.718 0-37.573 16.854-37.573 37.571v7.514h-54.556c-61.353 0-111.268-49.696-111.268-110.78 0-59.207 46.894-107.713 105.644-110.639h77.213c19.959-42.347 64.353-67.767 110.716-64.665v18.186c-4.495-2.192-9.531-3.413-14.827-3.413-18.591 0-33.715 15.123-33.715 33.713 0 6.907 2.091 13.332 5.668 18.684h-39.788v15.028h240.292v-15.028h-39.61c3.578-5.352 5.668-11.778 5.668-18.684 0-18.589-15.124-33.713-33.715-33.713-5.296 0-10.332 1.221-14.827 3.413v-18.186c62.012-1.091 113.287 48.994 113.221 110.78.001 31.914-13.521 61.733-37.314 82.778zm-23.591-232.255c-15.344-5.027-20.151-25.981-8.426-37.177l15.94-15.94 15.94 15.94c11.726 11.197 6.916 32.151-8.426 37.177v-21.237h-15.029v21.237zm15.029 41.882v-26.299c17.038-3.179 30.377-19.398 30.059-36.821 0-10.035-3.909-19.47-11.005-26.566l-26.568-26.567-26.568 26.567c-7.096 7.096-11.005 16.531-11.005 26.566-.319 17.422 13.022 33.643 30.059 36.821v18.535c-15.958-6.973-33.882-10.703-52.315-10.447v-124.857l55.049-55.974h58.172v247.167c-10.72-19.819-26.616-36.466-45.878-48.125z"/><path d="m45.589 353.2h90.176v15.028h-90.176z"/><path d="m150.795 353.2h30.059v15.028h-30.059z"/><path d="m271.029 323.143h90.176v15.028h-90.176z"/><path d="m376.235 323.143h30.059v15.028h-30.059z"/><path d="m120.736 413.313h90.176v15.028h-90.176z"/><path d="m225.941 413.313h30.059v15.028h-30.059z"/><path d="m338.661 135.288h15.029v15.028h-15.029z"/></g></g><g/><g/><g/><g/><g/><g/><g/><g/><g/><g/><g/><g/><g/><g/><g/></svg>