<svg id="Layer_1" enable-background="new 0 0 512 512" viewBox="0 0 512 512" xmlns="http://www.w3.org/2000/svg"><g><g><g><path d="m451.366 79.047h-210.375c-29.054 0-52.607 23.603-52.607 52.657 0 29.054 23.553 52.607 52.607 52.607h-135.573c-53.775 0-97.368 43.593-97.368 97.368 0 53.775 43.593 97.368 97.368 97.368h68.902c-30.006 3.42-53.32 28.884-53.32 59.805 0 33.252 26.957 60.209 60.209 60.209h240.178c33.231 0 60.17-26.866 60.17-60.007s-26.939-60.007-60.17-60.007l-11.087-.637c-48.733-5.528-86.596-46.782-86.596-96.863 0-50.08 37.863-91.972 86.596-97.5h41.066c29.069 0 52.634-23.501 52.634-52.492v-.016c0-28.991-23.565-52.492-52.634-52.492z" fill="#54c9f3"/><path d="m473.366 163.047-51.346.14c-29.03 3.293-55.844 17.232-75.503 39.25-19.108 21.401-29.906 48.742-30.579 77.272 2.605.101 5.212.249 7.822.44 1.189-49.011 38.588-89.662 86.539-95.102h41.066c29.069 0 52.634-23.501 52.634-52.492.001 16.813-13.742 30.492-30.633 30.492z" fill="#00adeb"/><path d="m480.836 445.817c-2.854 18.167-18.675 32.11-37.708 32.11h-261.919c-21.068 0-38.209-17.141-38.209-38.209 0-19.436 18.328-35.749 37.603-37.946v-43.858h-75.186c-41.558 0-75.368-33.81-75.368-75.368 0-54.532 33.81-90.749 75.368-90.749h135.467v-28.618c-16.877 0-29.309-13.773-30.501-30.607-3.383-47.793 30.608-52.659 30.608-52.659-29.054 0-52.607 23.603-52.607 52.657 0 29.054 23.553 52.607 52.607 52.607h-135.573c-53.775 0-97.368 43.593-97.368 97.368 0 53.775 43.593 97.368 97.368 97.368h68.902c-30.006 3.42-53.32 28.884-53.32 59.805 0 33.252 26.957 60.209 60.209 60.209h240.178c31.211 0 56.868-23.701 59.872-54.041-.142-.021-.282-.046-.423-.069z" fill="#00adeb"/><g fill="#c38340"><path d="m98.957 100.338c8.284 0 15-6.716 15-15v-45c0-8.284-6.716-15-15-15-8.284 0-15 6.716-15 15v45c0 8.285 6.716 15 15 15z"/><path d="m451.013 302.256c8.284 0 15-6.716 15-15v-45c0-8.284-6.716-15-15-15-8.284 0-15 6.716-15 15v45c0 8.284 6.716 15 15 15z"/><path d="m61.093 423.174c8.284 0 15-6.716 15-15v-45c0-8.284-6.716-15-15-15-8.284 0-15 6.716-15 15v45c0 8.284 6.716 15 15 15z"/></g><path d="m211.515 275.436-23.172 3.205-.918-.918 2.792-23.954c-10.018-2.688-21.154-.11-29.015 7.751-11.716 11.716-11.716 30.711 0 42.426s30.711 11.716 42.426 0c7.729-7.729 10.356-18.625 7.887-28.51z" fill="#00a666"/><path d="m261.213 427.27 23.172-3.205.918.918-2.792 23.954c10.018 2.688 21.154.11 29.015-7.751 11.716-11.716 11.716-30.711 0-42.426s-30.711-11.716-42.426 0c-7.729 7.729-10.356 18.625-7.887 28.51z" fill="#abe700"/><path d="m304.676 124.463 18.651 14.119v1.298l-18.912 14.964c5.183 8.984 14.88 15.036 25.997 15.036 16.569 0 30-13.431 30-30s-13.431-30-30-30c-10.93.001-20.492 5.848-25.736 14.583z" fill="#abe700"/><g><path d="m226.064 102.147h15v15h-15z" fill="#fff"/></g><g><path d="m255.904 102.147h15v15h-15z" fill="#fff"/></g></g></g><g><path d="m127.831 439.921c0-29.009 23.674-52.61 52.772-52.61v-15.029h-51.506c3.212-13.376 15.266-23.35 29.614-23.35v-15.029c-22.664 0-41.506 16.662-44.93 38.38-10.088.184-20.818-.126-30.525-2.756v-6.636c0-9.792-6.276-18.141-15.016-21.247v-14.851h-15.03v14.842c-3.677 1.301-6.916 3.531-9.44 6.407-18.363-17.025-28.741-40.599-28.741-65.936 0-49.723 40.571-90.176 90.441-90.176h135.414v-15.03c-24.936 0-45.223-20.223-45.223-45.096 0-24.857 20.287-45.08 45.223-45.08h165.409v-15.03h-143.42c-3.614-21.493-22.344-37.925-44.848-37.925v15.029c14.185 0 26.136 9.747 29.508 22.895-35.396-3.032-67.099 24.194-66.901 60.125 0 17.933 7.912 34.057 20.438 45.08h-94.367c3.438-24.654 22.949-44.907 48.055-48.602l-2.188-14.869c-18.287 2.676-35.108 12.497-46.407 27.213v-34.879c8.747-3.102 15.03-11.455 15.03-21.252v-45.086c0-9.792-6.276-18.141-15.016-21.247v-14.323h-15.028v14.314c-8.753 3.098-15.043 11.454-15.043 21.256v45.088c0 9.796 6.282 18.149 15.028 21.251v34.88c-11.305-14.724-28.136-24.547-46.434-27.217l-2.182 14.87c25.467 3.738 45.166 24.511 48.197 49.64-14.545 2.04-28.149 7.045-40.17 14.39-6.176-17.801-23.104-30.62-42.981-30.62v15.029c14.924 0 27.367 10.791 29.956 24.979-22.929 19.313-37.52 48.183-37.52 80.392 0 31.641 13.862 60.921 38.168 80.995v44.878c0 9.796 6.282 18.149 15.028 21.251v34.88c-11.305-14.723-28.136-24.546-46.433-27.217l-2.183 14.87c27.716 4.068 48.616 28.308 48.616 56.385h15.029c0-27.089 19.464-50.606 45.729-55.877 5.836 31.417 33.492 55.877 66.649 55.877h29.908v-15.616h-29.908c-29.099 0-52.772-23.601-52.772-52.61zm-36.695-400.498c0-4.144 3.371-7.515 7.515-7.515s7.515 3.371 7.515 7.515v45.088c0 4.144-3.371 7.515-7.515 7.515s-7.515-3.371-7.515-7.515zm-37.939 323.467c0-4.144 3.371-7.515 7.515-7.515s7.515 3.371 7.515 7.515v45.088c0 4.144-3.371 7.515-7.515 7.515s-7.515-3.371-7.515-7.515zm15.029 101.219v-34.879c8.747-3.102 15.03-11.455 15.03-21.252v-23.027c13.835 3.566 40.351 2.078 54.778 2.359-14.719 11.876-24.368 29.767-25.171 49.886-16.246 2.811-35.544 13.653-44.637 26.913z"/><path d="m507.503 330.61-2.188-14.869c-18.287 2.676-35.108 12.497-46.407 27.214v-34.88c8.747-3.102 15.03-11.455 15.03-21.251v-45.089c0-9.792-6.276-18.141-15.016-21.247v-13.931h-15.029v13.922c-8.753 3.098-15.043 11.454-15.043 21.256v45.089c0 9.796 6.282 18.148 15.028 21.251v34.88c-11.305-14.724-28.136-24.547-46.433-27.218l-2.183 14.87c23.883 3.505 42.693 21.995 47.441 45.006-6.548-2.133-13.525-3.308-20.772-3.331-49.558.295-90.905-40.546-90.581-90.177 0-46.114 34.229-84.807 79.684-90.176h40.713c33.223 0 60.252-26.965 60.252-60.126 0-33.144-27.029-60.109-60.252-60.109h-30.425v15.029h30.425c24.936 0 45.223 20.223 45.223 45.096 0 24.857-20.287 45.08-45.223 45.08h-29.816c3.447-13.039 15.342-22.681 29.449-22.681v-15.028c-22.603 0-41.402 16.574-44.899 38.206-50.437 6.492-91.056 53.79-90.161 104.709-.366 57.783 47.66 105.416 105.388 105.205 29.099 0 52.773 23.601 52.773 52.61s-23.674 52.61-52.773 52.61h-36.894c3.35-13.18 15.315-22.959 29.523-22.959v-15.029c-22.527 0-41.272 16.464-44.86 37.989h-143.536v15.616h195.769c37.386 0 67.802-30.93 67.802-68.226 0-23.549-12.133-44.314-30.481-56.431 1.653-26.556 21.929-48.973 48.472-52.88zm-63.623-88.874c0-4.144 3.371-7.515 7.515-7.515s7.515 3.371 7.515 7.515v45.089c0 4.143-3.371 7.514-7.515 7.514s-7.515-3.371-7.515-7.514z"/><path d="m182.272 319.847c27.836-.237 44.276-27.477 34.813-53.235l-21.329 2.95 2.548-21.867c-39.083-15.205-71.561 30.267-42.6 61.165 7.324 7.325 16.946 10.987 26.568 10.987zm-.506-60.081-2.36 20.247 6.132 6.135 19.261-2.664c-.565 19.011-25.218 28.575-38.468 14.749-14.047-13.499-3.951-38.442 15.435-38.467z"/><path d="m290.33 457.359c33.17.186 50.262-40.691 26.619-64.126-30.785-28.819-75.941 3.158-61.382 42.248l21.329-2.95-2.548 21.867c4.919 1.351 10.905 3.131 15.982 2.961zm-22.478-38.75c.564-19.01 25.22-28.575 38.468-14.749 14.025 13.747 4.137 38.222-15.435 38.467l2.36-20.248-6.133-6.133z"/><path d="m368.132 139.161c-1.388-42.141-55.929-51.469-73.277-13.53l17.167 12.996-17.264 13.66c6.551 14.067 19.834 24.707 35.8 24.447 20.718 0 37.573-16.856 37.574-37.573zm-53.145 16.284 15.986-12.649v-8.673l-15.502-11.735c13.841-13.044 38.038-2.374 37.63 16.771.389 19.479-24.389 29.977-38.114 16.286z"/><path d="m90.677 214.072h60.117v15.029h-60.117z"/><path d="m165.824 214.072h30.059v15.029h-30.059z"/><path d="m210.816 349.336h60.117v15.029h-60.117z"/><path d="m285.963 349.336h30.059v15.029h-30.059z"/></g></g><g/><g/><g/><g/><g/><g/><g/><g/><g/><g/><g/><g/><g/><g/><g/></svg>