<svg id="Layer_1" enable-background="new 0 0 512 512" viewBox="0 0 512 512" xmlns="http://www.w3.org/2000/svg"><g><g><g><path d="m335.068 8.509h-105.508l-52.492 52.491h-59.999l-86.16 86.159v81.812l450.694.591v-74.519z" fill="#c6d2db"/><path d="m474.5 200.699c-4.097-20.335-24.475-38.875-46-38.875-1.582 0-3.145.086-4.685.248-13.846-37.741-63.449-49.483-92.815-25.593l60.119-58.479-30.119-1-52.383 51.383v18.588c-5.783 0-11.6 1.077-16.688 3.191-18.302-18.996-53.554-18.999-71.863-.015-8.71-3.61-19.557-4.205-28.707-1.5-26.144-37.43-87.524-29.236-103.174 13.426-13.314-1.486-25.914 3.286-35.032 11.801v-20.82l86.159-86.159 44.796.146 7.529 7.529 60.167-60.167h90.158l-6.894-6.894h-105.508l-52.492 52.491h-60l-86.159 86.159v81.812l8.091.011s4.552.006 12.731.017l1.422.001c75.561.099 428.275.561 428.449.562v-27.423c-3.008-1.498-3.799.458-7.102-.44z" fill="#a9baca"/><path d="m327.285 485.532h-141.166c-87.08 0-157.672-70.592-157.672-157.672 0-87.08 70.592-157.672 157.672-157.672h141.166c87.08 0 157.672 70.592 157.672 157.672 0 87.08-70.592 157.672-157.672 157.672z" fill="#54c9f3"/><path d="m437.979 383.66s-22.979 9.957-30.383 33.191c-12.511 5.396-14.167 15.018-14.167 15.018-7.588-3.517-16.03-5.494-24.929-5.494-19.596 0-37.011 9.523-47.858 24.184-3.86-1.096-7.935-1.684-12.142-1.684-5.856 0-11.445 1.148-16.571 3.212-9.344-8.948-22.001-14.463-35.929-14.463-13.925 0-26.591 5.503-35.935 14.448-5.123-2.062-10.714-3.197-16.565-3.197-4.209 0-8.278.6-12.14 1.697-10.847-14.667-28.259-24.198-47.86-24.198-8.899 0-17.341 1.977-24.929 5.494-3.789-5.147-8.562-9.549-14.076-12.873-2.119-10.606-7.48-20.053-14.995-27.274v-7.647c0-10.252-2.994-19.812-8.137-27.875l8.137-8.137v-9.113c0-10.284-3.013-19.872-8.186-27.951l8.186-8.186v-17.113h16v-45.125h22.5v-51.41l28.703-16.226c-73.02 13.781-128.257 77.896-128.257 154.921 0 87.08 70.592 157.672 157.672 157.672h141.166c55.316 0 116.815-28.485 154.321-71.587z" fill="#00adeb"/><path d="m474.5 263.699c16.569 0 30 13.431 30 30l-15 15h-30l-15-15c0-16.569 13.431-30 30-30z" fill="#58565b"/><path d="m501.75 288.018h-30l-15-15c0-1.242.084-2.463.231-3.665-7.557 5.447-12.481 14.319-12.481 24.346l15 15h30l15-15c0-2.585-.327-5.095-.942-7.488z" fill="#474549"/><path d="m474.5 308.949c16.569 0 30 13.431 30 30l-15 15h-30l-15-15c0-16.568 13.431-30 30-30z" fill="#58565b"/><path d="m501.75 333.268h-30l-15-15c0-1.242.084-2.463.231-3.665-7.557 5.447-12.481 14.319-12.481 24.346l15 15h30l15-15c0-2.585-.327-5.095-.942-7.488z" fill="#474549"/><path d="m37.5 263.699c16.569 0 30 13.431 30 30l-15 15h-30l-15-15c0-16.569 13.431-30 30-30z" fill="#58565b"/><path d="m64.75 288.018h-30l-15-15c0-1.242.084-2.463.231-3.665-7.557 5.447-12.481 14.319-12.481 24.346l15 15h30l15-15c0-2.585-.327-5.095-.942-7.488z" fill="#474549"/><path d="m474.5 354.074c-16.569 0-30 13.431-30 30v15h60v-15c0-16.568-13.431-30-30-30z" fill="#58565b"/><path d="m465.372 378.495v-15.293c0-2.783.387-5.474 1.096-8.031-12.667 3.513-21.969 15.118-21.969 28.904v15h60v-15c0-1.907-.186-3.77-.526-5.579h-38.601z" fill="#474549"/><path d="m458.5 399.199c-16.569 0-30 13.431-30 30v15h60v-15c0-16.568-13.432-30-30-30z" fill="#58565b"/><path d="m449.372 423.62v-15.293c0-2.783.387-5.474 1.096-8.031-12.667 3.513-21.969 15.118-21.969 28.904v15h60v-15c0-1.907-.186-3.77-.526-5.579h-38.601z" fill="#474549"/><path d="m458.5 218.699c-16.569 0-30 13.431-30 30v15h60v-15c0-16.568-13.432-30-30-30z" fill="#58565b"/><path d="m449.372 243.12v-15.293c0-2.783.387-5.474 1.096-8.031-12.667 3.513-21.969 15.118-21.969 28.904v15h60v-15c0-1.907-.186-3.77-.526-5.579h-38.601z" fill="#474549"/><path d="m143.5 147.449c-20.711 0-37.5 16.789-37.5 37.5v18.75h75v-18.75c0-20.711-16.789-37.5-37.5-37.5z" fill="#58565b"/><path d="m126.579 183.12v-18.75c0-5.008.99-9.783 2.771-14.15-13.694 5.586-23.35 19.026-23.35 34.729v18.75h75v-18.75c0-.613-.017-1.223-.046-1.829z" fill="#474549"/><path d="m368.5 147.449c-20.711 0-37.5 16.789-37.5 37.5v18.75h75v-18.75c0-20.711-16.789-37.5-37.5-37.5z" fill="#58565b"/><g fill="#474549"><path d="m351.579 183.12v-18.75c0-5.008.99-9.783 2.771-14.15-13.694 5.586-23.35 19.026-23.35 34.729v18.75h75v-18.75c0-.613-.017-1.223-.046-1.829z"/><path d="m203.5 169.949c-12.426 0-22.5 10.074-22.5 22.5v11.25h45v-11.25c0-12.426-10.074-22.5-22.5-22.5z"/><path d="m83.5 184.824c-12.426 0-22.5 10.074-22.5 22.5v11.25h45v-11.25c0-12.426-10.074-22.5-22.5-22.5z"/><path d="m308.5 169.949c-12.426 0-22.5 10.074-22.5 22.5v11.25h45v-11.25c0-12.426-10.074-22.5-22.5-22.5z"/><path d="m428.5 184.824c-12.426 0-22.5 10.074-22.5 22.5v11.25h45v-11.25c0-12.426-10.074-22.5-22.5-22.5z"/></g><path d="m256 158.699c-16.569 0-30 13.431-30 30v15h60v-15c0-16.568-13.431-30-30-30z" fill="#58565b"/><path d="m246.872 183.12v-15.293c0-2.783.387-5.474 1.096-8.031-12.666 3.512-21.968 15.118-21.968 28.903v15h60v-15c0-1.907-.186-3.77-.526-5.579z" fill="#474549"/><path d="m143.5 448.375c-20.711 0-37.5 16.789-37.5 37.5v18.75h75v-18.75c0-20.71-16.789-37.5-37.5-37.5z" fill="#58565b"/><path d="m126.579 484.046v-18.75c0-5.008.99-9.783 2.771-14.15-13.694 5.586-23.35 19.026-23.35 34.729v18.75h75v-18.75c0-.613-.017-1.223-.046-1.829z" fill="#474549"/><path d="m368.5 448.375c-20.711 0-37.5 16.789-37.5 37.5v18.75h75v-18.75c0-20.71-16.789-37.5-37.5-37.5z" fill="#58565b"/><path d="m351.579 484.046v-18.75c0-5.008.99-9.783 2.771-14.15-13.694 5.586-23.35 19.026-23.35 34.729v18.75h75v-18.75c0-.613-.017-1.223-.046-1.829z" fill="#474549"/><path d="m203.5 470.875c-12.426 0-22.5 10.074-22.5 22.5v11.25h45v-11.25c0-12.426-10.074-22.5-22.5-22.5z" fill="#474549"/><path d="m308.5 470.875c-12.426 0-22.5 10.074-22.5 22.5v11.25h45v-11.25c0-12.426-10.074-22.5-22.5-22.5z" fill="#474549"/><path d="m256 459.625c-16.569 0-30 13.431-30 30v15h60v-15c0-16.568-13.431-30-30-30z" fill="#58565b"/><path d="m246.872 484.046v-15.293c0-2.783.387-5.474 1.096-8.031-12.666 3.512-21.968 15.118-21.968 28.903v15h60v-15c0-1.907-.186-3.77-.526-5.579z" fill="#474549"/><path d="m53.5 218.699c-16.569 0-30 13.431-30 30v15h60v-15c0-16.568-13.431-30-30-30z" fill="#58565b"/><path d="m44.372 243.12v-15.293c0-2.783.387-5.474 1.096-8.031-12.666 3.512-21.968 15.118-21.968 28.903v15h60v-15c0-1.907-.186-3.77-.526-5.579z" fill="#474549"/><path d="m37.5 354.074c-16.569 0-30 13.431-30 30v15h60v-15c0-16.568-13.431-30-30-30z" fill="#58565b"/><path d="m28.372 378.495v-15.293c0-2.783.387-5.474 1.096-8.031-12.666 3.512-21.968 15.118-21.968 28.903v15h60v-15c0-1.907-.186-3.77-.526-5.579z" fill="#474549"/><path d="m53.5 399.199c-16.569 0-30 13.431-30 30v15h60v-15c0-16.568-13.431-30-30-30z" fill="#58565b"/><path d="m44.372 423.62v-15.293c0-2.783.387-5.474 1.096-8.031-12.666 3.512-21.968 15.118-21.968 28.903v15h60v-15c0-1.907-.186-3.77-.526-5.579z" fill="#474549"/><path d="m79.75 434.125c-14.497 0-26.25 11.752-26.25 26.25v13.125h52.5v-13.125c0-14.497-11.752-26.25-26.25-26.25z" fill="#58565b"/><path d="m73.206 453.795v-13.125c0-2.021.236-3.986.669-5.876-11.668 2.669-20.375 13.105-20.375 25.581v13.125h52.5v-13.125c0-2.272-.289-4.477-.832-6.58z" fill="#474549"/><path d="m432.25 434.125c-14.497 0-26.25 11.752-26.25 26.25v13.125h52.5v-13.125c0-14.497-11.753-26.25-26.25-26.25z" fill="#58565b"/><path d="m425.705 453.795v-13.125c0-2.021.236-3.986.669-5.876-11.667 2.669-20.374 13.105-20.374 25.581v13.125h52.5v-13.125c0-2.272-.289-4.477-.832-6.58z" fill="#474549"/><path d="m37.5 308.949c16.569 0 30 13.431 30 30l-15 15h-30l-15-15c0-16.568 13.431-30 30-30z" fill="#58565b"/><path d="m64.75 333.268h-30l-15-15c0-1.242.084-2.463.231-3.665-7.557 5.448-12.481 14.319-12.481 24.346l15 15h30l15-15c0-2.585-.327-5.095-.942-7.488z" fill="#474549"/></g></g><g><path d="m498.737 309.699 13.241-13.265c.458-16.223-6.336-27.543-15.999-33.974v-14.34c0-8.067-2.56-15.542-6.897-21.67v-75.26l-34.143-34.205-10.606 10.625 29.75 29.804v56.561c-4.754-2.189-10.036-3.419-15.601-3.419v-3.882c0-16.571-13.456-30.052-29.997-30.052-5.523 0-10.699 1.51-15.148 4.129-1.795-23.22-21.216-41.569-44.847-41.569-19.026 0-35.32 11.897-41.889 28.65-3.086-2.348-6.637-4.113-10.489-5.127v-32.957l47.943-47.113h35.386l32.871 32.931 10.606-10.625-104.75-104.941h-111.712l-52.487 52.582h-59.994l-90.546 90.709v29.79h14.999v-23.566l81.759-81.907h53.782l44.42 44.5v23.117h14.999v-29.34l-45.708-45.79 44.988-45.069h99.287l52.487 52.582h-26.516l-56.814 55.83v39.205c-4.745 1.208-9.04 3.553-12.583 6.725-6.474-11.291-18.626-18.918-32.53-18.918s-26.056 7.627-32.53 18.918c-5.307-4.752-12.304-7.648-19.966-7.648-6.797 0-13.07 2.28-18.106 6.111-6.57-16.753-22.863-28.65-41.889-28.65-23.631 0-43.052 18.348-44.847 41.569-4.449-2.62-9.625-4.129-15.148-4.129-18.197-.112-31.695 16.104-29.997 33.934-5.367 0-10.469 1.144-15.09 3.187v-25.818h-14.997v37.806c-4.651 6.257-7.409 14.007-7.409 22.39v14.338c-9.659 6.43-16.453 17.749-15.999 33.976l13.241 13.265c-8.164 6.666-13.65 17.305-13.241 31.938l13.355 13.379c-8.159 6.896-13.355 17.205-13.355 28.712v22.539h23.617c-4.777 6.304-7.618 14.157-7.618 22.664v22.539h31.133c-.738 2.775-1.136 5.687-1.136 8.691v20.661h52.496v31.178h314.973v-31.179h52.496v-20.661c0-3.004-.398-5.916-1.136-8.691h31.133v-22.539c0-8.507-2.842-16.36-7.618-22.664h23.617v-22.539c0-11.507-5.196-21.816-13.355-28.712l13.355-13.379c.413-14.63-5.074-25.27-13.241-31.937zm-46.565 25.903c3.646-25.872 40.965-25.89 44.619 0l-10.417 10.436h-23.785zm34.202-34.767h-23.785l-10.417-10.436c3.646-25.872 40.965-25.89 44.619 0zm-5.393-52.716v7.513h-44.996v-7.513c0-12.428 10.092-22.539 22.498-22.539 12.405 0 22.498 10.111 22.498 22.539zm-52.496-56.473c16.77 0 14.998 18.782 14.998 18.782h-29.997c0 .001-1.771-18.782 14.999-18.782zm-89.992-7.387c0-16.571 13.457-30.052 29.997-30.052s29.997 13.481 29.997 30.052v11.269h-59.995v-11.269zm-29.998-7.513c14.999 0 14.999 18.782 14.999 18.782h-29.997s0-18.782 14.998-18.782zm-74.993 11.269c0-12.428 10.092-22.539 22.498-22.539s22.498 10.111 22.498 22.539v7.513h-44.996zm-29.998-11.269c14.999 0 14.999 18.782 14.999 18.782h-29.997s0-18.782 14.998-18.782zm-89.992 7.513c0-16.571 13.457-30.052 29.997-30.052s29.997 13.481 29.997 30.052v11.269h-59.995v-11.269zm-29.998 7.387c14.999 0 14.999 18.782 14.999 18.782h-29.997c0 .001 0-18.782 14.998-18.782zm-7.499 56.473v7.513h-44.996v-7.513c0-12.428 10.092-22.539 22.498-22.539s22.498 10.111 22.498 22.539zm-16.187 42.28-10.417 10.436h-23.785l-10.417-10.436c3.646-25.873 40.964-25.89 44.619 0zm-10.417 55.639h-23.785l-10.417-10.436c3.646-25.872 40.965-25.89 44.619 0zm-34.391 37.69c0-12.428 10.092-22.539 22.498-22.539s22.498 10.111 22.498 22.539v7.513h-44.996zm15.999 52.715v-7.513c0-12.428 10.092-22.538 22.498-22.538 11.614 0 21.199 8.862 22.376 20.19-7.845.902-14.879 4.506-20.149 9.862h-24.725zm67.494 29.352h-37.497c-3.336-32.539 40.842-32.517 37.497 0zm74.994 31.179h-59.995v-11.27c0-16.571 13.457-30.051 29.997-30.051s29.997 13.481 29.997 30.051v11.27zm44.996 0h-29.997c-2.339-24.952 32.342-24.935 29.997 0zm59.995 0h-44.996v-7.513c0-12.428 10.092-22.539 22.498-22.539s22.498 10.111 22.498 22.539zm-22.498-45.078c-13.904 0-26.056 7.626-32.53 18.918-5.307-4.752-12.304-7.648-19.966-7.648-6.797 0-13.07 2.28-18.106 6.111-6.57-16.753-22.863-28.65-41.889-28.65-11.905 0-22.738 4.665-30.794 12.255-2.519-11.451-10.845-20.739-21.718-24.596-.211-12.439-6.482-23.419-15.982-30.104v-14.453c0-11.507-5.196-21.816-13.355-28.712l13.355-13.379c.413-14.63-5.075-25.27-13.241-31.938l13.241-13.265c.303-10.739-2.575-19.327-7.355-25.776h23.353v-22.539c0-8.507-2.841-16.36-7.618-22.664h30.116v-14.901h284.976v14.901h30.116c-4.777 6.304-7.618 14.157-7.618 22.664v22.539h23.354c-4.777 6.448-7.656 15.035-7.355 25.776l13.241 13.265c-8.164 6.666-13.65 17.305-13.241 31.938l13.355 13.379c-8.159 6.896-13.355 17.205-13.355 28.712v14.453c-9.5 6.686-15.771 17.666-15.982 30.104-10.873 3.857-19.199 13.145-21.718 24.596-8.056-7.59-18.888-12.255-30.794-12.255-19.026 0-35.32 11.897-41.889 28.65-5.036-3.832-11.309-6.111-18.106-6.111-7.662 0-14.658 2.896-19.965 7.648-6.474-11.291-18.626-18.918-32.53-18.918zm67.494 45.078h-29.997c-2.339-24.952 32.343-24.935 29.997 0zm74.994 0h-59.995v-11.27c0-16.571 13.457-30.051 29.997-30.051s29.997 13.481 29.997 30.051v11.27zm52.495-31.179h-37.497c-3.336-32.539 40.842-32.517 37.497 0zm29.998-29.352h-24.725c-5.27-5.356-12.304-8.96-20.149-9.862 1.176-11.328 10.762-20.19 22.376-20.19 12.406 0 22.498 10.111 22.498 22.538zm15.998-45.202h-44.996v-7.513c0-12.428 10.092-22.539 22.498-22.539s22.498 10.111 22.498 22.539z"/><path d="m165.507 240.606h-14.999c-.27 9.319-14.177 10.938-13.998 27.562-.184 16.615 13.745 18.269 13.999 27.564-.315 9.396-14.154 10.874-13.999 27.559h14.999c.271-9.317 14.178-10.937 13.998-27.559.184-16.615-13.745-18.27-13.999-27.564.315-9.398 14.154-10.875 13.999-27.562z"/><path d="m357.323 304.152c-3.901 3.84-9.243 9.098-9.243 19.138h14.999c.252-9.27 14.205-11.003 13.998-27.559.163-16.664-13.718-18.218-13.999-27.563.286-9.352 14.165-10.903 13.999-27.563h-14.999c0 3.597-1.373 5.092-4.756 8.423-12.301 10.288-12.274 28.021.001 38.28 6.446 5.624 6.447 11.221 0 16.844z"/><path d="m210.504 315.536h-14.999c-.27 9.32-14.177 10.938-13.998 27.563-.184 16.614 13.745 18.27 13.999 27.563-.315 9.396-14.154 10.874-13.999 27.559h14.999c.271-9.317 14.178-10.937 13.998-27.559.184-16.614-13.745-18.27-13.999-27.563.314-9.399 14.153-10.875 13.999-27.563z"/><path d="m301.496 398.221h14.999c.271-9.317 14.178-10.937 13.998-27.559.184-16.614-13.745-18.27-13.999-27.563.315-9.399 14.154-10.875 13.999-27.563h-14.999c-.27 9.32-14.177 10.938-13.998 27.563-.184 16.614 13.745 18.27 13.999 27.563-.315 9.396-14.153 10.874-13.999 27.559z"/><path d="m235.747 30.459h14.999v15.026h-14.999z"/><path d="m265.744 30.459h14.999v15.026h-14.999z"/></g></g><g/><g/><g/><g/><g/><g/><g/><g/><g/><g/><g/><g/><g/><g/><g/></svg>