<svg id="Layer_1" enable-background="new 0 0 512 512" viewBox="0 0 512 512" xmlns="http://www.w3.org/2000/svg"><g><g><g><path d="m0 307.979h512v204.021h-512z" fill="#f7bd83"/><path d="m14.949 497.051v-189.072h-14.949v204.021h512v-14.949z" fill="#f3a451"/><path d="m272.675 18.085c-7.307-13.016-26.043-13.016-33.35 0l-74.325 132.394 91 9.521 91-9.521z" fill="#c3f839"/><path d="m134.716 55.585c7.307-13.016 26.043-13.016 33.35 0l25.832 46.013-27.441 48.88-110.354 45.14z" fill="#00ce8b"/><path d="m178.807 128.479h-13.807c-16.997 0-33.444 2.386-49.036 6.823l44.753-79.717c1.021-1.818 2.27-3.373 3.675-4.683-8.649-8.069-23.389-6.514-29.675 4.683l-78.615 140.033 110.354-45.14z" fill="#00a666"/><path d="m378.74 55.585c-7.307-13.016-26.043-13.016-33.35 0l-25.832 46.013 27.442 48.881 110.354 45.14z" fill="#00ce8b"/><path d="m431.57 149.689c-21.72-11.651-46.101-18.953-71.974-20.758l-15.526-27.656 25.832-46.013c1.152-2.052 2.589-3.779 4.22-5.184-8.742-7.122-22.668-5.292-28.73 5.507l-25.832 46.013 27.44 48.881 110.354 45.14z" fill="#00a666"/><path d="m347 465.479h-182c-86.985 0-157.5-70.515-157.5-157.5 0-86.985 70.515-157.5 157.5-157.5h182c86.985 0 157.5 70.515 157.5 157.5 0 86.985-70.515 157.5-157.5 157.5z" fill="#abe700"/><path d="m346 180.479h-180c-70.416 0-127.5 57.084-127.5 127.5s57.084 127.5 127.5 127.5h28.904c21.316 0 38.596 17.28 38.596 38.596v37.925h45v-37.926c0-21.316 17.28-38.596 38.596-38.596h28.904c70.417 0 127.5-57.084 127.5-127.5s-57.083-127.499-127.5-127.499z" fill="#54c9f3"/><path d="m255.5 474.074c0-33.413-27.183-60.596-60.596-60.596h-28.904c-58.173 0-105.5-47.327-105.5-105.5 0-65 47.327-120.522 105.5-120.522h101.282l-.21-6.978h-101.072c-70.416 0-127.5 57.084-127.5 127.5s57.084 127.5 127.5 127.5h28.904c21.316 0 38.596 17.28 38.596 38.596v37.926h45v-14.277h-23z" fill="#00adeb"/><path d="m204.409 127.345 64.181-114.324c-8.699-7.643-23.078-5.957-29.266 5.064l-74.324 132.394h182l-12.987-23.133h-129.604z" fill="#abe700"/><g><path d="m236.61 100.652-13.08-7.343 7.343-13.08 13.08 7.343zm14.685-26.159-13.08-7.343 7.343-13.08 13.08 7.343z" fill="#fff"/></g><g><path d="m151 203.5h15v15h-15z" fill="#fff"/></g><g><path d="m181 203.5h15v15h-15z" fill="#fff"/></g></g></g><g><path d="m463.515 190.753-78.235-139.58c-4.777-8.523-13.456-13.612-23.215-13.612s-18.438 5.089-23.215 13.612l-19.292 34.418-40.344-71.979c-4.776-8.523-13.455-13.612-23.214-13.612s-18.438 5.089-23.215 13.612l-39.615 70.68-18.563-33.119c-4.778-8.523-13.456-13.612-23.215-13.612s-18.438 5.089-23.215 13.612l-20.459 36.502 13.08 7.355 20.459-36.502c2.085-3.721 5.875-5.943 10.135-5.943s8.049 2.222 10.135 5.943l23.042 41.11-23.992 42.805c-28.794.762-55.768 8.957-79.09 22.722l31.054-55.404-13.08-7.355-47.766 85.221c-31.813 30.146-51.695 72.8-51.695 120.023 0 91.128 74.019 165.266 165 165.266h61v39.084h15v-37.987c0-25.458-20.678-46.17-46.096-46.17h-28.904c-66.168 0-120-53.918-120-120.193s53.832-120.193 120-120.193h180c66.168 0 120 53.918 120 120.193s-53.832 120.193-120 120.193h-28.904c-25.417 0-46.096 20.712-46.096 46.17v37.987h15v-39.084h61c42.046 0 82.094-15.846 112.767-44.619l-10.254-10.966c-27.883 26.156-64.289 40.56-102.513 40.56h-56.501c5.458-9 15.338-15.024 26.597-15.024h28.904c74.439 0 135-60.658 135-135.218s-60.561-135.218-135-135.218h-180c-74.439 0-135 60.658-135 135.218s60.561 135.218 135 135.218h28.904c11.259 0 21.139 6.025 26.597 15.024h-56.501c-82.71 0-150-67.398-150-150.242-.006-82.947 67.47-150.274 150-150.242h46v-15.024h-33.188l68.054-121.417c2.085-3.721 5.874-5.943 10.135-5.943s8.049 2.221 10.135 5.943l68.054 121.417h-33.19v15.024h46c82.71 0 150 67.398 150 150.242 0 36.179-13.021 71.133-36.664 98.422l11.329 9.847c26.011-30.021 40.335-68.472 40.335-108.268 0-45.614-18.552-86.963-48.485-116.897zm-135.355-89.816 23.771-42.409c2.086-3.721 5.874-5.943 10.135-5.943s8.049 2.221 10.135 5.943l60.511 107.959c-23.818-14.562-51.584-23.258-81.287-24.044z"/><path d="m106 248.075h90v15.024h-90z"/><path d="m211 248.075h30v15.024h-30z"/><path d="m271 293.148h90v15.024h-90z"/><path d="m376 293.148h30v15.024h-30z"/><path d="m196 383.293h90v15.024h-90z"/><path d="m301 383.293h30v15.024h-30z"/></g></g><g/><g/><g/><g/><g/><g/><g/><g/><g/><g/><g/><g/><g/><g/><g/></svg>