<svg id="Layer_1" enable-background="new 0 0 512 512" viewBox="0 0 512 512" xmlns="http://www.w3.org/2000/svg"><g><g><g><path d="m8.583 171.931c0 2.446.45 4.872 1.331 7.154 6.127 15.873 21.573 27.141 39.668 27.141 20.006 0 36.774-13.774 41.272-32.312 4.517 18.541 21.284 32.312 41.288 32.312 20.006 0 36.774-13.774 41.289-32.317 4.5 18.545 21.266 32.317 41.271 32.317 20.006 0 36.774-13.774 41.289-32.317 4.5 18.545 21.266 32.317 41.271 32.317 20.006 0 36.774-13.774 41.272-32.312 4.517 18.541 21.284 32.312 41.288 32.312 20.006 0 36.774-13.774 41.289-32.317 4.5 18.545 21.266 32.317 41.271 32.317 18.095 0 34.541-11.268 40.668-27.141.881-2.281 1.331-4.708 1.331-7.154v102.766h-495.798z" fill="#b6e6fa"/><path d="m482.383 232.068-.192-.117c-3.185 7.167-11.358 12.294-19.806 12.294-8.338 0-15.658-4.8-18.82-12.177h-44.907c-3.174 7.379-10.498 12.177-18.833 12.177s-15.659-4.799-18.833-12.177h-44.905c-3.161 7.378-10.482 12.177-18.822 12.177-8.338 0-15.658-4.8-18.82-12.177h-44.907c-3.174 7.379-10.497 12.177-18.833 12.177-8.338 0-15.658-4.8-18.82-12.177h-44.907c-3.174 7.379-10.498 12.177-18.834 12.177-8.335 0-15.659-4.799-18.834-12.177h-44.906c-3.161 7.378-10.482 12.177-18.822 12.177-8.152 0-15.247-4.795-18.46-12.177v-30.197c-9.529-4.688-18.364-12.831-22.207-22.787-.881-2.281-1.331-4.708-1.331-7.153v102.766h496.8v-42.629z" fill="#8ad8f6"/><path d="m7.583 231.951c0 2.446.45 4.872 1.331 7.154 6.127 15.873 22.573 27.141 40.668 27.141 20.006 0 36.774-13.774 41.272-32.312 4.517 18.541 21.284 32.312 41.288 32.312 20.006 0 36.774-13.774 41.289-32.317 4.5 18.545 21.266 32.317 41.271 32.317 20.006 0 36.774-13.774 41.289-32.317 4.5 18.545 21.266 32.317 41.271 32.317 20.006 0 36.774-13.774 41.272-32.312 4.517 18.541 21.284 32.312 41.288 32.312 20.006 0 36.774-13.774 41.289-32.317 4.5 18.545 21.266 32.317 41.271 32.317 18.095 0 34.541-11.268 40.668-27.141.881-2.281 1.331-4.708 1.331-7.154v224.888h-496.798z" fill="#54c9f3"/><g><path d="m8.914 239.104c-.881-2.281-1.331-4.708-1.331-7.154v224.888h23.538v-195.416c-9.383-4.751-18.488-12.683-22.207-22.318z" fill="#00adeb"/></g><path d="m475.992 291.657c-90.211 0-178.827 23.814-256.269 68.868-17.833 10.375-36.641 19.364-55.898 26.719-43.458 16.595-90.582 25.222-137.294 25.22-5.65 0-11.304-.126-16.935-.38l-2.013-.091v44.844h41.862c44.569-2.398 88.995-11.731 130.433-27.555 21.524-8.221 42.544-18.267 62.474-29.861 70.578-41.061 151.369-62.765 233.64-62.765h5.891v120.181h22.5v-165.18z" fill="#00adeb"/><path d="m240.59 374.565h-119.78c-8.179 0-14.81-6.631-14.81-14.81 0-8.179 6.631-14.81 14.81-14.81h45.38c8.179 0 14.81-6.631 14.81-14.81v-1.167c0-8.179-6.631-14.81-14.81-14.81h-158.607v120.815h24.889c73.696 0 145.874-20.951 208.118-60.408z" fill="#009de6"/><path d="m8.583 434.561c34.745 1.566 94.874-.18 163.268-26.298 21.997-8.4 41.71-18.122 59.187-28.29 74.355-43.258 158.932-65.816 244.954-65.816h28.391v166.17h-495.8z" fill="#f7bd83"/><path d="m31.122 456.838v-21.905c-8.759.115-15.644-.061-22.538-.371v45.766h495.8v-23.489h-473.262z" fill="#f3a451"/><path d="m193.231 374.565c-9.635 4.637-19.458 8.88-29.406 12.679-42.035 16.051-87.462 24.623-132.666 25.167v-98.255h-23.576v120.815c81.853 3.232 163.8-15.855 233.007-60.408h-47.359z" fill="#0089cb"/><path d="m380.926 43.337c13.611 17.07 36.831 32.175 31.697 56.256l-12.579 9.525-17.408-11.358-51.177-57.152c14.413-12.906 36.56-11.685 49.467 2.729z" fill="#00a666"/><path d="m337.451 103.443c14.653-5.26 28.206-11.476 41.907-6.641l-14.605 34.293-49.458 16.66c-6.118-18.355 3.801-38.194 22.156-44.312z" fill="#00ce8b"/><path d="m360.44 103.443c6.463-2.32 12.711-4.824 18.853-6.486l.066-.155c-13.701-4.835-27.254 1.381-41.907 6.641-18.355 6.117-28.275 25.957-22.156 44.312l21.404-7.21c-1.803-16.078 7.774-31.781 23.74-37.102z" fill="#00a666"/><path d="m465.843 103.443c-14.653-5.26-28.206-11.476-41.907-6.641l14.605 34.293 49.458 16.66c6.118-18.355-3.801-38.194-22.156-44.312z" fill="#00ce8b"/><path d="m423.558 43.337c-13.611 17.07-36.831 32.175-31.697 56.256l12.579 9.525 17.409-11.357 51.177-57.152c-14.413-12.907-36.561-11.686-49.468 2.728z" fill="#00ce8b"/><path d="m423.936 96.802 14.605 34.293 19.874 6.695c3.446-5.838 5.431-12.641 5.431-19.911 0-5.895-1.309-11.482-3.638-16.499-12.527-4.62-24.344-8.788-36.272-4.578z" fill="#00a666"/><path d="m424.613 78.645c-13.981 0-26.245 7.319-33.194 18.329.114.862.253 1.733.442 2.619l12.579 9.525 17.409-11.357 15.28-17.064c-3.932-1.324-8.138-2.052-12.516-2.052z" fill="#00a666"/><path d="m425.679 316.985-44.43 6.207 9.296-192.628h27.811z" fill="#e3994b"/><path d="m382.384 299.672-1.135 23.52 44.429-6.207-.912-23.234z" fill="#c38340"/><circle cx="424.613" cy="117.878" fill="#c3f839" r="19.697"/><circle cx="384.542" cy="117.878" fill="#c3f839" r="19.697"/><g><path d="m31.159 336.861h15v15h-15z" fill="#fff"/></g><g><path d="m61.032 336.861h15v15h-15z" fill="#fff"/></g><circle cx="136" cy="67.51" fill="#fee95d" r="30.671"/><path d="m152.419 81.762c-16.939 0-30.671-13.732-30.671-30.671 0-4.208.849-8.218 2.383-11.869-11.045 4.64-18.802 15.557-18.802 28.288 0 16.939 13.732 30.672 30.671 30.672 12.731 0 23.649-7.757 28.289-18.802-3.652 1.533-7.661 2.382-11.87 2.382z" fill="#f7d700"/></g></g><g><path d="m512 171.838h-15.117-.055c-2.187 15.744-18.334 26.785-33.884 26.794-16.398 0-30.532-10.932-34.375-26.585l-1.452-27.164c4.904-.574 9.414-2.453 13.169-5.287l52.449 17.667c10.809-24.477 1.551-51.805-24.436-60.907-9.043-3.247-18.162-7.063-27.645-8.355l42.962-47.977c-17.482-19.497-47.709-21.827-65.646-1.691-4.588 5.758-10.631 11.644-15.911 17.363l-15.548-17.362c-18.551-20.265-47.523-17.955-65.615 1.664l21.116 23.836 11.229-9.947-10.55-11.907c10.698-5.431 24.747-2.758 32.646 6.361 0 0 17.086 19.08 17.086 19.08-4.276 6.154-7.527 12.896-8.502 20.534l-20.227-22.588-11.174 10.007 11.244 12.556c-9.702 1.227-18.927 5.151-28.135 8.422-26.005 9.099-35.259 36.437-24.451 60.913l55.673-18.753c4.085 3.508 9.216 5.831 14.858 6.417l-2.4 53.694c-16.041-.219-29.818-11.082-33.604-26.577l-14.616.007c-3.809 15.65-17.821 26.581-34.079 26.581-16.256 0-30.269-10.932-34.079-26.585l-14.616-.006c-3.823 15.656-17.845 26.591-34.097 26.591-16.256 0-30.269-10.932-34.079-26.585l-14.616-.006c-3.823 15.656-17.845 26.591-34.097 26.591-16.251 0-30.272-10.933-34.096-26.587l-14.616.007c-3.81 15.65-17.823 26.581-34.08 26.581-15.416.005-31.45-11.092-33.593-26.794h-.041-15v315.989h270.917v-15h-255.917v-30.545c3.83.108 7.663.182 11.501.182 72.851.016 145.499-19.328 208.309-56.01 72.865-42.392 156.265-64.799 241.183-64.799h20.891v151.17h-210.884v15h226zm-49.056 41.795c12.74 0 24.795-4.833 33.939-12.974v31.199c-2.262 15.502-18.382 26.909-33.952 26.794-14.307 0-26.989-8.303-32.551-21.201l-1.29-36.589c9.029 8.013 20.949 12.771 33.854 12.771zm-66.095-71.513c2.771-1.412 5.267-3.284 7.39-5.517 2.223 2.337 4.852 4.283 7.779 5.716l5.912 167.743c-9.642 1.133-19.238 2.554-28.777 4.245zm27.088-36.439c16.084.423 16.08 23.975 0 24.395-16.084-.423-16.081-23.975 0-24.395zm39.372 4.821c11.559 3.567 19.68 15.404 18.973 27.413l-32.693-11.012c2.556-6.913 1.855-15.533-1.687-21.87 4.905 1.522 10.333 3.651 15.407 5.469zm-45.133-50.019c3.784-3.954 7.695-8.041 11.102-12.29 8.402-9.25 21.733-11.464 32.466-6.228l-44.337 49.513c-5.109 1.264-9.65 3.977-13.167 7.675-1.635-1.719-3.488-3.229-5.521-4.476-.981-12.826 8.548-22.795 19.457-34.194zm-93.652 63.881c3.307-6.622 9.022-11.545 16.054-13.852 6.826-2.414 14.396-5.512 20.859-6.96-3.967 6.155-5.214 14.778-2.994 21.963l-36.811 12.4c-.215-4.64.758-9.282 2.892-13.551zm47.821-6.486c.423-16.084 23.974-16.081 24.395 0-.423 16.085-23.975 16.081-24.395 0zm-357.345 82.792c9.064 8.134 21.011 12.963 33.635 12.963 16.999 0 32.284-8.382 41.394-21.663 9.118 13.28 24.406 21.663 41.398 21.663s32.281-8.385 41.399-21.665c9.11 13.28 24.396 21.665 41.393 21.665 16.992 0 32.281-8.385 41.399-21.665 9.11 13.28 24.396 21.665 41.393 21.665 16.998 0 32.284-8.384 41.394-21.663 8.909 12.975 23.712 21.253 40.235 21.627l-2.007 44.912c-14.875-1.32-27.346-11.821-30.92-26.445l-14.616.007c-3.809 15.65-17.823 26.581-34.079 26.581s-30.27-10.932-34.079-26.585l-14.616-.006c-3.823 15.656-17.845 26.591-34.098 26.591-16.257 0-30.27-10.932-34.08-26.585l-14.616-.006c-3.823 15.656-17.845 26.591-34.098 26.591-16.252 0-30.273-10.933-34.097-26.587l-14.616.006c-3.81 15.65-17.823 26.581-34.08 26.581-15.416.005-31.451-11.092-33.594-26.794h-.044zm154.176 200.588c-48.73 18.607-101.905 27.567-154.176 26.032v-105.633h31v-15h-31v-45.968c9.064 8.134 21.011 12.963 33.636 12.963 16.999 0 32.285-8.382 41.395-21.663 9.118 13.28 24.406 21.663 41.399 21.663s32.281-8.385 41.4-21.665c9.111 13.28 24.397 21.665 41.394 21.665 16.992 0 32.281-8.385 41.4-21.665 9.111 13.28 24.397 21.665 41.394 21.665 16.998 0 32.285-8.384 41.395-21.663 8.424 12.268 22.117 20.341 37.551 21.502l-1.955 43.745c-47.254 9.899-92.89 26.65-135.313 49.827h-117.885c-9.61-.173-9.604-14.45 0-14.62h45.379c29.594-.662 29.573-45.134 0-45.787h-105.19v15h105.189c9.745-.009 9.74 15.797 0 15.787h-45.379c-29.428.776-29.407 43.853 0 44.62h90.898c-13.795 7.22-28.037 13.659-42.532 19.195zm306.816-94.601c-14.426 0-28.807.64-43.107 1.884l-1.614-45.803c8.763 6.932 19.826 10.914 31.66 10.914 12.745 0 24.805-4.835 33.952-12.978v45.983z"/><path d="m413.613 366.838h15v15h-15z"/><path d="m338.5 411.838h15v15h-15z"/><path d="m293.5 381.838h15v15h-15z"/><path d="m203.5 441.838h15v15h-15z"/><path d="m136 105.681c21.048 0 38.172-17.124 38.172-38.171s-17.124-38.172-38.172-38.172-38.172 17.124-38.172 38.171 17.124 38.172 38.172 38.172zm0-61.343c12.777 0 23.172 10.395 23.172 23.171s-10.395 23.172-23.172 23.172-23.172-10.395-23.172-23.171 10.395-23.172 23.172-23.172z"/></g></g><g/><g/><g/><g/><g/><g/><g/><g/><g/><g/><g/><g/><g/><g/><g/></svg>