<svg id="Layer_1" enable-background="new 0 0 512 512" viewBox="0 0 512 512" xmlns="http://www.w3.org/2000/svg"><g><g><g><path d="m395.085 36.553 25.915-25.915 25.915 25.915c14.312 14.312 14.312 37.517 0 51.83-14.312 14.312-37.517 14.312-51.83 0-14.312-14.312-14.312-37.517 0-51.83z" fill="#54c9f3"/><path d="m410.814 72.654c-14.312-14.312-14.312-37.516-.001-51.829l-15.728 15.728c-14.312 14.312-14.312 37.517 0 51.83 14.312 14.312 37.517 14.312 51.83 0 2.742-2.742 4.954-5.813 6.646-9.083-13.797 7.136-31.177 4.924-42.747-6.646z" fill="#00adeb"/><circle cx="420.489" cy="466" fill="#b6e6fa" r="23"/><path d="m436.766 472.723c-12.703 0-23-10.297-23-23 0-2.056.274-4.047.78-5.944-9.821 2.62-17.056 11.574-17.056 22.22 0 12.703 10.297 23 23 23 10.646 0 19.6-7.235 22.22-17.056-1.897.507-3.888.78-5.944.78z" fill="#8ad8f6"/><path d="m466.763 294.144h-105.616c-12.484 0-22.604-10.12-22.604-22.604 0-12.484 10.12-22.604 22.604-22.604h37.249c12.484 0 22.604-10.12 22.604-22.604 0-12.484-10.12-22.604-22.604-22.604h-284.665c-12.484 0-22.604 10.12-22.604 22.604 0 12.484 10.12 22.604 22.604 22.604h16.58c12.484 0 22.604 10.12 22.604 22.604 0 12.484-10.12 22.604-22.604 22.604h-84.074c-20.842 0-37.737 16.895-37.737 37.737 0 20.841 16.895 37.737 37.737 37.737h76.295c16.075 0 29.106 13.031 29.106 29.106 0 16.075-13.031 29.106-29.106 29.106h-14.902c-20.959 0-37.949 16.99-37.949 37.949 0 20.959 16.99 37.949 37.949 37.949h222.92c20.959 0 37.949-16.99 37.949-37.949 0-20.959-16.99-37.949-37.949-37.949h-44.806c-16.075 0-29.106-13.031-29.106-29.106 0-16.075 13.031-29.106 29.106-29.106h181.018c20.842 0 37.737-16.895 37.737-37.737.001-20.842-16.895-37.737-37.736-37.737z" fill="#b6e6fa"/><g fill="#8ad8f6"><g><path d="m112.799 202.963c-12.483 0-22.604 10.12-22.604 22.604 0 12.484 10.12 22.604 22.604 22.604h16.58c12.483 0 22.604 10.12 22.604 22.604s-10.12 22.604-22.604 22.604h-84.074c-20.842 0-37.737 16.895-37.737 37.737s16.895 37.737 37.737 37.737h76.294c16.075 0 29.106 13.031 29.106 29.106 0 7.541-2.868 14.411-7.572 19.581 8.61-4.243 14.817-10.206 14.976-18.593.544-28.63-22.587-52.095-51.097-52.095h-55.084c-12.891 0-23.341-10.45-23.341-23.34s10.45-23.341 23.341-23.341h76.66c24.958 0 45.815-5.217 45.388-30.171-.415-24.238-20.261-43.829-44.597-43.829h-10.694c-4.454 0-8.064-3.61-8.064-8.064 0-4.453 3.61-8.064 8.064-8.064z"/><path d="m376.412 226.17c-24.958 0-45.815 20.424-45.388 45.379l6.587-.775c0-12.484 10.12-22.604 22.604-22.604h37.249c12.281 0 22.267-9.796 22.588-22z"/></g><path d="m143.134 417.539c-8.745 4.31-19.97 6.844-29.87 8.33-1.692.254-3.33.657-4.9 1.196h13.235c8.535-.001 16.211-3.675 21.535-9.526z"/><path d="m489.97 346.851h-188.657c-27.984 0-51.424 22.139-51.955 50.119l6.347.988c0-16.075 13.031-29.106 29.106-29.106h181.019c17.456 0 32.136-11.854 36.448-27.95-2.885 3.62-7.328 5.949-12.308 5.949z"/><path d="m353.429 482.962h-236.248c-15.14 0-27.413-12.273-27.413-27.413v-.549c0-11.916 7.662-22.191 18.596-25.936h-1.667c-20.959 0-37.949 16.99-37.949 37.949s16.99 37.949 37.949 37.949h222.92c17.794 0 32.721-12.249 36.826-28.773-2.89 4.088-7.638 6.773-13.014 6.773z"/></g><circle cx="31" cy="226" fill="#b6e6fa" r="23"/><path d="m47.277 232.723c-12.703 0-23-10.297-23-23 0-2.056.274-4.047.78-5.944-9.822 2.621-17.057 11.574-17.057 22.221 0 12.703 10.297 23 23 23 10.646 0 19.6-7.235 22.22-17.056-1.896.506-3.887.779-5.943.779z" fill="#8ad8f6"/><path d="m325.814 80.452-69.814-69.814-69.814 69.814c-38.557 38.557-38.557 101.071 0 139.628 38.557 38.557 101.071 38.557 139.627 0 38.558-38.557 38.558-101.071.001-139.628z" fill="#54c9f3"/><path d="m202.873 203.393c-38.557-38.557-38.557-101.07-.001-139.627l-16.686 16.686c-38.557 38.557-38.557 101.071 0 139.628 38.557 38.557 101.071 38.557 139.627 0 2.826-2.826 5.418-5.793 7.83-8.857-38.746 30.495-95.039 27.902-130.77-7.83z" fill="#00adeb"/><g><path d="m219.442 100.648-10.607-10.606 10.606-10.606 10.607 10.606zm21.213-21.213-10.607-10.606 10.606-10.606 10.607 10.606z" fill="#fff"/></g><path d="m124.734 262.676 25.915-25.915 25.915 25.915c14.312 14.312 14.312 37.517 0 51.83-14.312 14.312-37.517 14.312-51.83 0-14.312-14.312-14.312-37.517 0-51.83z" fill="#54c9f3"/><path d="m140.463 298.777c-14.312-14.312-14.312-37.516-.001-51.829l-15.728 15.728c-14.312 14.312-14.312 37.517 0 51.83 14.312 14.312 37.517 14.312 51.83 0 2.742-2.742 4.954-5.813 6.646-9.083-13.797 7.136-31.177 4.924-42.747-6.646z" fill="#00adeb"/></g></g><g><path d="m466.212 287.062h-105.618c-8.226 0-14.919-6.786-14.919-15.127s6.693-15.128 14.919-15.128h37.125c16.278 0 29.982-13.036 30.549-29.06.956-16.566-13.42-31.597-30.01-31.242h-46.588c6.812-14.185 10.413-29.832 10.413-46.035 0-28.42-11.061-55.139-31.144-75.235l-23.617-23.631-10.618 10.623 23.617 23.631c17.249 17.259 26.748 40.205 26.748 64.612 1.017 49.099-42.218 92.388-91.32 91.375-49.104 1.014-92.336-42.278-91.32-91.375 0-24.407 9.498-47.353 26.748-64.612l64.572-64.612 29.161 29.179 10.618-10.623-39.78-39.802-75.19 75.235c-20.084 20.096-31.144 46.815-31.144 75.235 0 16.203 3.6 31.85 10.413 46.035h-46.049c-16.278 0-29.982 13.036-30.549 29.06-.956 16.566 13.419 31.597 30.01 31.242h6.746c-8.603 8.15-13.373 19.187-13.814 30.255h-59.886c-26.008-.56-48.975 24.026-45.531 50.032 2.441 23.064 22.086 40.456 45.696 40.456h74.725c30.052 1.248 29.936 43.173-.15 44.309h-14.656c-24.838 0-45.044 20.219-45.044 45.071s20.206 45.071 45.044 45.071h179.408v-15.024h-179.408c-16.558 0-30.029-13.479-30.029-30.047s13.471-30.047 30.029-30.047h14.635c50.12-2.065 50.157-72.219.15-74.356h-74.705c-15.909 0-29.135-11.613-30.765-27.015-2.306-17.398 13.252-33.806 30.601-33.425h61.809c2.049 6.661 5.694 12.933 10.953 18.195 17.23 17.241 45.267 17.241 62.496 0 8.347-8.351 12.944-19.456 12.944-31.267s-4.597-22.915-12.943-31.267l-31.249-31.267-15.296 15.305h-21.761c-8.318.174-15.486-7.383-15.005-15.688.284-8.032 7.257-14.567 15.544-14.567h54.855c19.716 28.239 52.625 45.547 87.115 45.34 34.488.209 67.402-17.104 87.115-45.34h55.396c8.317-.174 15.486 7.382 15.005 15.687-.284 8.033-7.257 14.568-15.544 14.568h-37.125c-16.505 0-29.933 13.526-29.933 30.151s13.428 30.151 29.933 30.151h105.618c17.351-.381 30.601 15.574 30.601 33.426 0 15.487-14.856 27.015-30.765 27.015h-179.509c-50.109 2.183-49.935 72.278.109 74.356h44.174c16.558 0 30.029 13.479 30.029 30.047s-13.471 30.047-30.029 30.047h-29.783v15.021h29.783c24.838 0 45.044-20.219 45.044-45.071s-20.206-45.071-45.044-45.071h-44.194c-30.058-1.152-30.186-43.077-.108-44.309h179.53c23.61 0 45.952-18.846 45.952-42.038-.002-25.639-15.811-48.449-45.79-48.449zm-295.285-18.693c11.377 11.383 11.377 29.905.001 41.288-11.377 11.381-29.885 11.384-41.265 0-11.319-10.867-11.318-30.421.001-41.288l20.631-20.644z"/><path d="m420.397 436.152c-16.834 0-30.53 13.704-30.53 30.548s13.696 30.548 30.53 30.548 30.53-13.704 30.53-30.548-13.696-30.548-30.53-30.548zm0 46.073c-8.555 0-15.515-6.964-15.515-15.524s6.96-15.524 15.515-15.524 15.515 6.964 15.515 15.524-6.96 15.524-15.515 15.524z"/><path d="m30.53 256.871c16.834 0 30.53-13.704 30.53-30.548s-13.696-30.548-30.53-30.548-30.53 13.704-30.53 30.548 13.696 30.548 30.53 30.548zm0-46.072c8.555 0 15.515 6.964 15.515 15.524s-6.96 15.524-15.515 15.524-15.515-6.964-15.515-15.524 6.959-15.524 15.515-15.524z"/><path d="m420.908 107.152c11.317 0 22.633-4.31 31.249-12.93 17.231-17.241 17.231-45.294 0-62.535l-31.249-31.267-31.249 31.267c-17.231 17.241-17.231 45.294.001 62.535 8.615 8.62 19.932 12.93 31.248 12.93zm-20.631-64.841 20.631-20.644 20.631 20.644c11.32 10.867 11.319 30.421.001 41.288-11.377 11.382-29.888 11.382-41.264 0-11.319-10.868-11.318-30.421.001-41.288z"/><path d="m298.399 264.569c-13.615 5.115-27.965 7.709-42.651 7.709-14.646 0-28.96-2.58-42.544-7.669l-5.265 14.07c15.275 5.721 31.36 8.622 47.809 8.622 16.495 0 32.621-2.916 47.929-8.667z"/></g></g><g/><g/><g/><g/><g/><g/><g/><g/><g/><g/><g/><g/><g/><g/><g/></svg>