<svg id="Layer_1" enable-background="new 0 0 512 512" viewBox="0 0 512 512" xmlns="http://www.w3.org/2000/svg"><g><g><g><path d="m7.442 7.5h497v497h-497z" fill="#79787d"/><path d="m504.325 435.687v-42.746h-22-.192c-3.185 7.167-11.358 12.294-19.806 12.294-8.338 0-15.658-4.917-18.82-12.294h-44.907c-3.174 7.379-10.498 12.294-18.833 12.294s-15.659-4.916-18.833-12.294h-44.905c-3.161 7.378-10.482 12.294-18.823 12.294-8.338 0-15.658-4.917-18.82-12.294h-44.907c-3.174 7.379-10.497 12.294-18.833 12.294-8.338 0-15.658-4.917-18.82-12.294h-44.907c-3.174 7.379-10.498 12.294-18.834 12.294-8.335 0-15.659-4.916-18.834-12.294h-44.905c-3.161 7.378-10.482 12.294-18.822 12.294-8.152 0-15.247-4.912-18.46-12.294v-385.441h-23.622v428.187z" fill="#58565b"/><path d="m293.186 83.521h-73.554l-106.37 106.369-.067 251.684h285.543v-251.684z" fill="#e3edf6"/><path d="m398.196 393.894h-.08c-3.174 7.379-10.498 12.294-18.833 12.294s-15.659-4.902-18.833-12.28h-44.905c-3.161 7.378-10.482 12.28-18.823 12.28-8.338 0-15.658-4.902-18.82-12.28h-44.907c-3.174 7.379-10.498 12.28-18.833 12.28-8.338 0-15.658-4.902-18.82-12.28h-29.533v-167.4h-30.623l.007-27.617 115.369-115.37h-30.93l-106.37 106.369-.608 246.749h.541 285v-42.745z" fill="#c5d9ec"/><path d="m436 226h-37.262v202h61.673v-177.589z" fill="#58565b"/><path d="m136.797 7.5v68.521l20.745 15h9.255v-83.521z" fill="#474549"/><path d="m53.592 7.5v177.863h10.528l19.482-19.482v-54.816l23.195-23.194v-80.371z" fill="#58565b"/><path d="m76.103 7.5h-22.511v177.863h10.528l11.983-12.067z" fill="#474549"/><path d="m376 7.5v68.521l-20.745 15h-9.255v-83.521z" fill="#474549"/><path d="m459.205 7.5v177.863h-10.528l-19.482-19.482v-54.816l-23.195-23.194v-80.371z" fill="#58565b"/><path d="m451.705 155.732v-54.815l-23.301-23.195v-70.222h-22.404v80.371l23.195 23.194v54.816l19.482 19.482h10.528v-22.025z" fill="#474549"/><path d="m132.677 248.507-19.482 19.482v54.816l-23.195 23.195v80.371h53.205v-177.864z" fill="#58565b"/><path d="m135.705 332.298v-54.816l7.5-7.524v-21.451h-10.528l-19.482 19.482v54.816l-23.195 23.195v80.371h53.205v-24.339c-3.211 2.037-7.015 3.204-11.062 3.204-8.335 0-15.659-4.916-18.834-12.294v-38.18z" fill="#474549"/><path d="m463.142 405.236c-8.335 0-15.659-4.916-18.834-12.294h-23.308v33.429h42.319z" fill="#474549"/><path d="m398.738 226h22.932v85.805l22.639 22.49v81.076h-45.571z" fill="#474549"/><path d="m379.188 248.507 19.482 19.482v54.816l23.195 23.195v80.371h-53.205v-177.864z" fill="#58565b"/><path d="m398.657 392.941c-1.598 3.716-4.185 6.805-7.487 8.958v-141.476l-11.982-11.916h-10.528v177.863h53.205v-33.429z" fill="#474549"/><path d="m8.583 393.705c0 2.445.45 4.872 1.331 7.154 6.127 15.873 21.573 27.141 39.668 27.141 20.006 0 36.774-13.774 41.272-32.312 4.517 18.54 21.284 32.312 41.288 32.312 20.006 0 36.774-13.774 41.289-32.317 4.5 18.545 21.266 32.317 41.271 32.317 20.006 0 36.774-13.774 41.289-32.317 4.5 18.545 21.266 32.317 41.271 32.317 20.006 0 36.774-13.774 41.272-32.312 4.519 18.54 21.285 32.312 41.29 32.312 20.006 0 36.774-13.774 41.289-32.317 4.5 18.545 21.266 32.317 41.271 32.317 18.095 0 34.541-11.268 40.668-27.141.881-2.281 1.331-4.708 1.331-7.154v110.825h-495.8z" fill="#54c9f3"/><path d="m31.179 480v-54.087c-9.71-4.657-17.371-12.88-21.265-22.968-.881-2.281-1.331-4.708-1.331-7.154v108.738h495.8v-24.529z" fill="#00adeb"/><path d="m39.076 458.5c-16.569 0-30 13.431-30 30v15h60v-15c0-16.569-13.431-30-30-30z" fill="#58565b"/><path d="m49.827 460.492c-3.338-1.282-6.961-1.992-10.75-1.992-16.569 0-30 13.431-30 30v15h21.501v-15c-.001-12.779 7.992-23.684 19.249-28.008z" fill="#474549"/><path d="m473.5 458.5c-16.569 0-30 13.431-30 30v15h60v-15c0-16.569-13.431-30-30-30z" fill="#58565b"/><g fill="#474549"><path d="m484.25 460.492c-3.338-1.282-6.961-1.992-10.75-1.992-16.569 0-30 13.431-30 30v15h21.501v-15c0-12.779 7.993-23.684 19.249-28.008z"/><path d="m91.576 469.75c-12.426 0-22.5 10.074-22.5 22.5v11.25h45v-11.25c0-12.426-10.073-22.5-22.5-22.5z"/><path d="m61.576 331.576v94.452l28.424-12.539v-67.489l23.195-23.195v-42.847z"/><path d="m421 469.75c-12.426 0-22.5 10.074-22.5 22.5v11.25h45v-11.25c0-12.426-10.074-22.5-22.5-22.5z"/></g><g><path d="m188.5 31h15v15h-15z" fill="#fff"/></g><g><path d="m218.5 31h15v15h-15z" fill="#fff"/></g></g></g><g><path d="m0 0v512h512v-512zm413.5 84.764v-69.764h38.205v162.785l-15.01-15.01v-54.816zm-60-69.764h15v57.189l-15 10.846zm-209.203 0h15v68.036l-15-10.846zm-83.205 0h38.205v69.764l-23.195 23.195v54.816l-15.01 15.01zm74.613 405.261c-17.4 2.118-34.05-9.196-38.205-26.064v-45.09l23.195-23.195.068-54.884 14.942-14.942zm-30.01-100.562-23.195 23.195v52.331c-2.233 7.829-7.058 14.387-13.424 18.861v-79.403l36.619-36.619zm-15.552 94.098c9.125 13.302 24.441 21.703 41.465 21.703 17.025 0 32.343-8.401 41.467-21.705 9.116 13.304 24.43 21.705 41.46 21.705 17.025 0 32.343-8.401 41.467-21.705 9.116 13.304 24.43 21.705 41.46 21.705 17.032 0 32.346-8.4 41.462-21.704 9.125 13.303 24.442 21.704 41.466 21.704 17.025 0 32.343-8.401 41.467-21.705 9.116 13.304 24.43 21.705 41.46 21.705 12.642 0 24.606-4.834 33.681-12.975v36.782c-6.435-5.19-14.608-8.307-23.5-8.307-13.905 0-26.058 7.614-32.533 18.885-5.308-4.744-12.305-7.635-19.967-7.635-18.636-.13-30 16.09-30 34.75h-269.422c0-18.851-11.367-34.882-30-34.75-7.662 0-14.659 2.891-19.967 7.635-6.475-11.272-18.627-18.885-32.533-18.885-9.159 0-17.557 3.305-24.076 8.779v-37.254c9.074 8.141 21.039 12.975 33.681 12.975 17.031 0 32.346-8.4 41.462-21.703zm316.094-180.297h26.656l20.018 20.018v165.44c-11.355-3.455-20.374-12.453-23.546-24.249v-51.815l-23.127-23.195v-86.199zm-.237 263.5s-1.021-19.75 15-19.75 15 19.75 15 19.75zm45 0v-8.5c0-12.407 10.093-22.5 22.5-22.5s22.5 10.093 22.5 22.5v8.5zm-389.424 0h-45v-8.5c0-12.407 10.093-22.5 22.5-22.5s22.5 10.093 22.5 22.5zm30-19.75c16.658 0 15 19.75 15 19.75h-30s-1.658-19.75 15-19.75zm376.335-57.074v-172.871l-28.805-28.805h-32.869v-31.699l-109.927-110.78h-79.785l-58.773 58.773 10.606 10.606 54.379-54.379h67.325l101.175 101.959v56.97l-8.943-8.943h-21.134v104.993h15v-89.914l15.01 15.01v54.815l23.195 23.195v45.598c-4.355 16.634-20.954 27.709-38.205 25.542v-59.246h-15v53.867c-7.306-4.709-12.78-12.073-14.955-20.963l-14.572.007c-3.816 15.655-17.867 26.588-34.169 26.588-16.301 0-30.352-10.935-34.168-26.592l-14.572-.006c-3.831 15.661-17.89 26.599-34.188 26.599-16.301 0-30.352-10.935-34.168-26.592l-14.572-.006c-2.188 8.946-7.717 16.346-15.091 21.051v-173.946h-21.135l-8.808 8.808v-56.818l36.338-36.338-10.606-10.606-40.731 40.732-.068 90.067-51.619 51.618v91.618c-16.051 2.579-33.284-6.866-39.076-21.941v-383.147h31.092v177.863h21.135l23.875-23.875v-54.816l23.195-23.195v-75.977h15v64.854l25.817 18.668h19.183v-83.522h164.203v83.521h19.183l25.817-18.667v-64.854h15v75.977l23.195 23.195v54.816l23.875 23.875h21.135v-177.863h30.295v378.706c0 11.103-13.574 26.47-29.089 26.47z"/></g></g><g/><g/><g/><g/><g/><g/><g/><g/><g/><g/><g/><g/><g/><g/><g/></svg>