<svg id="Layer_1" enable-background="new 0 0 512 512" viewBox="0 0 512 512" xmlns="http://www.w3.org/2000/svg"><g><g><g><path d="m504.5 240.42h-497v-89.925l46.436-5.915 450.564 5.915z" fill="#f7bd83"/><path d="m7.5 105.612h497v44.809h-497z" fill="#00ce8b"/><path d="m30.606 128.358v-22.746h-23.106v44.808h497v-22.062z" fill="#00a666"/><path d="m30.606 217.888v-67.393h-23.106v89.925h497v-22.532z" fill="#f3a451"/><path d="m7.5 390.452h497v75.957h-497z" fill="#79787d"/><path d="m30.606 443.391v-52.939h-23.106v75.958h497v-23.019z" fill="#58565b"/><path d="m444.041 45.612h-22.144c-20.908 0-37.856 16.949-37.856 37.856v22.144h22.144c20.908 0 37.856-16.949 37.856-37.856z" fill="#c3f839"/><path d="m428.781 83.016h-22.144v-22.144c0-4.559.807-8.929 2.284-12.977-14.516 5.297-24.88 19.224-24.88 35.573v22.144h22.144c16.349 0 30.276-10.364 35.573-24.88-4.048 1.477-8.418 2.284-12.977 2.284z" fill="#abe700"/><path d="m324.041 45.612h22.144c20.908 0 37.856 16.949 37.856 37.856v22.144h-22.144c-20.908 0-37.856-16.949-37.856-37.856z" fill="#c3f839"/><path d="m366.535 83.973c-11.518 0-20.856-9.337-20.856-20.856v-17.505h-21.638v22.144c0 20.907 16.949 37.856 37.856 37.856h22.144v-21.639z" fill="#abe700"/><path d="m8.583 240.42h495.8v83.559h-495.8z" fill="#b6e6fa"/><path d="m482.383 281.233h-.192c-3.185 7.167-11.358 12.294-19.806 12.294-8.338 0-15.658-4.917-18.82-12.294h-44.907c-3.174 7.379-10.498 12.294-18.833 12.294s-15.659-4.916-18.833-12.294h-44.905c-3.161 7.378-10.482 12.294-18.822 12.294-8.338 0-15.658-4.917-18.82-12.294h-44.907c-3.174 7.379-10.497 12.294-18.833 12.294-8.338 0-15.658-4.917-18.82-12.294h-44.907c-3.174 7.379-10.498 12.294-18.834 12.294-8.335 0-15.659-4.916-18.834-12.294h-44.906c-3.161 7.378-10.482 12.294-18.822 12.294-8.152 0-15.763-4.912-18.976-12.294v-40.813h-23.023v83.559h496.8v-42.746z" fill="#8ad8f6"/><path d="m7.583 281.233c0 2.446.45 4.872 1.331 7.154 6.127 15.873 22.573 27.141 40.668 27.141 20.006 0 36.774-13.774 41.272-32.312 4.517 18.541 21.284 32.312 41.288 32.312 20.006 0 36.774-13.774 41.289-32.317 4.5 18.545 21.266 32.317 41.271 32.317 20.006 0 36.774-13.774 41.289-32.317 4.5 18.545 21.266 32.317 41.271 32.317 20.006 0 36.774-13.774 41.272-32.312 4.517 18.541 21.284 32.312 41.288 32.312 20.006 0 36.774-13.774 41.289-32.317 4.5 18.545 21.266 32.317 41.271 32.317 18.095 0 34.541-11.268 40.668-27.141.881-2.281 1.331-4.708 1.331-7.154v109.219h-496.798z" fill="#54c9f3"/><g><path d="m30.606 367.473v-56.263c-9.859-4.683-17.839-12.841-21.692-22.823-.881-2.281-1.331-4.708-1.331-7.154v109.219h496.8v-22.979z" fill="#00adeb"/></g><path d="m188.041 45.612h-22.144c-20.908 0-37.856 16.949-37.856 37.856v22.144h22.144c20.908 0 37.856-16.949 37.856-37.856z" fill="#c3f839"/><path d="m172.781 83.016h-22.144v-22.144c0-4.559.807-8.929 2.284-12.977-14.516 5.297-24.88 19.224-24.88 35.573v22.144h22.144c16.349 0 30.276-10.364 35.573-24.88-4.048 1.477-8.418 2.284-12.977 2.284z" fill="#abe700"/><path d="m68.041 45.612h22.144c20.908 0 37.856 16.949 37.856 37.856v22.144h-22.144c-20.908 0-37.856-16.949-37.856-37.856z" fill="#c3f839"/><path d="m110.535 83.973c-11.518 0-20.856-9.337-20.856-20.856v-17.505h-21.638v22.144c0 20.907 16.949 37.856 37.856 37.856h22.144v-21.639z" fill="#abe700"/><g><path d="m30.606 337.899h15v15h-15z" fill="#fff"/></g><g><path d="m60.766 337.899h15v15h-15z" fill="#fff"/></g></g></g><g><path d="m512 75.438v-15c-22.396 0-41.042 16.304-44.727 37.663h-27.421c7.26-8.044 11.689-18.692 11.689-30.356v-29.644h-29.644c-15.801 0-29.733 8.127-37.856 20.415-8.123-12.288-22.055-20.415-37.856-20.415h-29.644v29.644c0 11.664 4.428 22.312 11.689 30.356h-144.377c7.26-8.044 11.689-18.692 11.689-30.356v-29.644h-29.644c-15.801 0-29.733 8.127-37.856 20.415-8.123-12.288-22.055-20.415-37.856-20.415h-29.644v29.644c0 11.664 4.428 22.312 11.689 30.356h-27.504c-3.685-21.359-22.332-37.663-44.727-37.663v15c14.089 0 25.968 9.636 29.399 22.663h-29.399v375.798h436.271v-15h-421.271v-60.958h482v60.958h-46v15h61v-375.798h-29.399c3.431-13.027 15.31-22.663 29.399-22.663zm-90.103-22.337h14.644v14.644c0 16.739-13.618 30.356-30.356 30.356h-14.644v-14.643c0-16.739 13.618-30.357 30.356-30.357zm-90.356 14.644v-14.644h14.644c16.738 0 30.356 13.618 30.356 30.356v14.644h-14.644c-16.738 0-30.356-13.618-30.356-30.356zm-165.643-14.644h14.644v14.644c0 16.739-13.618 30.356-30.356 30.356h-14.644v-14.643c0-16.739 13.617-30.357 30.356-30.357zm-90.356 14.644v-14.644h14.644c16.739 0 30.356 13.618 30.356 30.356v14.644h-14.644c-16.739 0-30.356-13.618-30.356-30.356zm-60.542 315.196v-73.039c9.074 8.141 21.039 12.975 33.681 12.975 17.031 0 32.346-8.4 41.462-21.703 9.125 13.302 24.441 21.703 41.465 21.703 17.025 0 32.343-8.401 41.467-21.705 9.116 13.304 24.43 21.705 41.46 21.705 17.025 0 32.343-8.401 41.467-21.705 9.116 13.304 24.429 21.705 41.46 21.705s32.347-8.4 41.462-21.703c9.125 13.302 24.441 21.703 41.466 21.703s32.343-8.401 41.467-21.706c9.116 13.304 24.431 21.706 41.461 21.706 12.642 0 24.606-4.834 33.681-12.975v73.039zm448.319-75.064c-16.301 0-30.352-10.935-34.168-26.593l-14.572-.006c-3.831 15.661-17.89 26.599-34.188 26.599-16.297 0-30.354-10.936-34.187-26.595l-14.572.007c-3.815 15.654-17.866 26.588-34.169 26.588-16.302 0-30.352-10.935-34.168-26.592l-14.572-.006c-3.831 15.661-17.89 26.599-34.188 26.599-16.301 0-30.352-10.935-34.168-26.592l-14.572-.006c-3.831 15.661-17.89 26.599-34.188 26.599-16.297 0-30.355-10.936-34.187-26.595l-14.57.006c-3.816 15.654-17.867 26.588-34.169 26.588-15.457.002-31.522-11.08-33.681-26.794v-33.174h482v33.173c0 15.146-19.215 26.794-33.681 26.794zm33.681-164.967h-436v15h436v75h-482v-75h31v-15h-31v-29.809h482z"/><path d="m68.192 202.888h15v15h-15z"/><path d="m98.198 172.888h15v15h-15z"/><path d="m128.25 202.888h15v15h-15z"/><path d="m158.255 172.888h15v15h-15z"/><path d="m188.182 202.888h15v15h-15z"/><path d="m218.188 172.888h15v15h-15z"/><path d="m248.239 202.888h15v15h-15z"/><path d="m278.244 172.888h15v15h-15z"/><path d="m308.249 202.888h15v15h-15z"/><path d="m338.255 172.888h15v15h-15z"/><path d="m368.307 202.888h15v15h-15z"/><path d="m398.312 172.888h15v15h-15z"/><path d="m428.771 202.888h15v15h-15z"/></g></g><g/><g/><g/><g/><g/><g/><g/><g/><g/><g/><g/><g/><g/><g/><g/></svg>