<svg id="Layer_1" enable-background="new 0 0 512 512" viewBox="0 0 512 512" xmlns="http://www.w3.org/2000/svg"><g><g><g><path d="m503.5 7.564h-142.207c-161.875 0-293.101 132.226-293.101 294.101v142.207h142.207c161.875 0 293.101-131.226 293.101-293.101z" fill="#00ce8b"/><path d="m416.218 166.561 19.782-19.782 19.782 19.782c10.925 10.925 10.925 28.639 0 39.564-10.925 10.925-28.639 10.925-39.564 0-10.925-10.925-10.925-28.638 0-39.564z" fill="#54c9f3"/><path d="m431.382 189.961c-9.408-9.408-10.707-23.846-3.912-34.652l-11.252 11.252c-10.925 10.925-10.925 28.639 0 39.564s28.639 10.925 39.564 0c3.009-3.01 5.185-6.535 6.536-10.291-10.23 4.445-22.571 2.492-30.936-5.873z" fill="#00adeb"/><path d="m232.995 421.277h-142.208v-142.208c0-75.188 28.324-143.753 74.868-195.638-59.819 53.662-97.463 131.547-97.463 218.233v142.208h142.208c86.687 0 164.572-37.644 218.234-97.463-51.886 46.544-120.451 74.868-195.639 74.868z" fill="#00a666"/><path d="m389.793 332.207 31.207-31.207 31.207 31.207c17.235 17.235 17.235 45.179 0 62.415-17.235 17.235-45.179 17.235-62.415 0-17.235-17.235-17.235-45.179.001-62.415z" fill="#b6e6fa"/><path d="m404.969 379.446c-17.236-17.235-17.236-45.179 0-62.415l-15.176 15.176c-17.235 17.235-17.235 45.179 0 62.415 17.235 17.235 45.179 17.235 62.415 0 2.618-2.618 4.832-5.485 6.654-8.522-16.958 10.177-39.276 7.963-53.893-6.654z" fill="#8ad8f6"/><path d="m74.793 137.207 31.207-31.207 31.207 31.207c17.235 17.235 17.235 45.179 0 62.415-17.235 17.235-45.179 17.235-62.415 0-17.235-17.235-17.235-45.179.001-62.415z" fill="#b6e6fa"/><path d="m89.969 184.446c-17.236-17.235-17.236-45.179 0-62.415l-15.176 15.176c-17.235 17.235-17.235 45.179 0 62.415 17.235 17.235 45.179 17.235 62.415 0 2.618-2.618 4.832-5.485 6.654-8.522-16.958 10.177-39.276 7.963-53.893-6.654z" fill="#8ad8f6"/><path d="m214.218 31.242 19.782-19.782 19.782 19.782c10.925 10.925 10.925 28.639 0 39.564-10.925 10.925-28.639 10.925-39.564 0-10.925-10.925-10.925-28.639 0-39.564z" fill="#54c9f3"/><path d="m229.382 54.642c-9.408-9.408-10.707-23.846-3.912-34.652l-11.252 11.252c-10.925 10.925-10.925 28.639 0 39.564s28.639 10.925 39.564 0c3.009-3.01 5.185-6.535 6.536-10.291-10.23 4.444-22.571 2.492-30.936-5.873z" fill="#00adeb"/><g fill="#8ad8f6"><circle cx="316" cy="286" r="15"/><circle cx="211" cy="136" r="15"/></g></g></g><g><path d="m512 .147h-60.109v15.052h45.082v134.666c0 59.385-17.806 115.997-51.558 164.305l-23.578-23.618-36.577 36.638c-15.608 15.637-19.125 38.861-10.572 57.928-48.3 33.946-104.979 51.859-164.347 51.859h-28.941v15.052h28.941c62.269 0 121.729-18.731 172.457-54.228 50.489 52.879 125.44-21.701 73.407-72.824 36.523-51.319 55.795-111.719 55.795-175.112zm-64.213 389.677c-14.309 14.333-37.592 14.333-51.901 0-14.31-14.334-14.31-37.656 0-51.989l25.951-25.995 25.95 25.995c14.31 14.333 14.31 37.655 0 51.989z"/><path d="m184.512 337.824h102.078v-15.052h-87.051l75.136-75.262h102.079v-15.052h-87.051l91.363-91.516-10.627-10.644-91.362 91.515v-86.194h-15.027v101.246l-75.137 75.263v-86.194h-15.027v101.246l-97.987 98.151v-123.019c0-29.168 4.349-57.853 12.907-85.401 18.622 6.598 39.514 2.352 54.034-12.125 23.053-22.975 18.558-59.449-6.087-79.374 18.492-23.663 40.359-44.09 65.146-60.906 9.251 22.644 40.719 28.782 57.729 11.013 11.697-11.717 13.519-29.637 5.468-43.288 31.169-11.294 63.897-17.032 97.436-17.032h74.332v-15.052h-74.332c-37.24 0-73.538 6.725-107.968 19.954l-20.068-20.101-25.132 25.173c-6.425 6.436-9.865 14.743-10.332 23.186-27.872 18.033-52.374 40.307-72.971 66.343l-19.799-19.832-36.577 36.638c-22.22 21.894-19.476 59.691 5.637 78.155-9.589 29.843-14.451 60.98-14.451 92.648v138.072l-60.871 60.973 10.627 10.644 59.87-59.97h96.173v-15.052h-81.146zm35.479-302.008 14.505-14.529 14.504 14.529c7.998 8.011 7.998 21.047.001 29.059-8 8.012-21.013 8.011-29.011 0-7.997-8.011-7.997-21.047.001-29.059zm-139.679 106.336 25.95-25.995 25.95 25.995c14.31 14.334 14.31 37.656 0 51.989-14.309 14.333-37.592 14.333-51.901 0s-14.309-37.655.001-51.989z"/><path d="m411.732 161.418c-13.856 13.88-13.856 36.465.001 50.345 13.857 13.881 36.404 13.88 50.262 0 13.856-13.88 13.856-36.465 0-50.345l-25.132-25.173zm39.637 39.701c-8 8.012-21.013 8.011-29.011 0s-7.998-21.047 0-29.058l14.505-14.53 14.505 14.53c7.998 8.011 7.998 21.047.001 29.058z"/><path d="m294.104 286.143c0 12.45 10.112 22.579 22.541 22.579s22.541-10.129 22.541-22.579-10.112-22.579-22.541-22.579-22.541 10.129-22.541 22.579zm30.055 0c0 4.15-3.37 7.526-7.514 7.526s-7.514-3.376-7.514-7.526 3.37-7.526 7.514-7.526 7.514 3.376 7.514 7.526z"/><path d="m188.913 135.619c0 12.45 10.112 22.579 22.541 22.579s22.541-10.129 22.541-22.579-10.112-22.579-22.541-22.579-22.541 10.129-22.541 22.579zm30.054 0c0 4.15-3.37 7.526-7.514 7.526-4.143 0-7.514-3.376-7.514-7.526s3.37-7.526 7.514-7.526c4.144-.001 7.514 3.376 7.514 7.526z"/></g></g><g/><g/><g/><g/><g/><g/><g/><g/><g/><g/><g/><g/><g/><g/><g/></svg>