<svg id="Layer_1" enable-background="new 0 0 512 512" viewBox="0 0 512 512" xmlns="http://www.w3.org/2000/svg"><g><g><g><path d="m512 278.947v-89.947h-369.468c-74.594 0-135.064 60.47-135.064 135.064 0 74.594 60.47 135.064 135.064 135.064h62.078c24.191 0 43.801 19.611 43.801 43.801v9.071h89.947v-8.56c0-74.149-60.11-134.259-134.259-134.259h-61.567c-24.917 0-45.117-20.2-45.117-45.117 0-24.917 20.2-45.117 45.117-45.117z" fill="#54c9f3"/><path d="m338.358 512-.666-14.596h-66.936l-1.62-7.404c-6.024-30.112-32.667-52.873-64.526-52.873h-45.446c-1.896 4.517-5.378 8.701-10.481 8.744-5.214.044-8.685-4.121-9.791-8.809-60.665-1.929-109.424-51.874-109.424-112.999 0-78.446 50.72-129.468 113.063-129.468v-5.595c-74.593 0-135.063 60.47-135.063 135.064 0 74.594 60.47 135.064 135.064 135.064h62.078c24.191 0 43.801 19.61 43.801 43.801v9.071z" fill="#00adeb"/><path d="m248.651 256c-4.843 5.472-11.171 13.583-19.466 10.59-4.524-1.632-9.08-6.009-12.005-10.59h-59.37c-37.008 0-67.117 31.055-67.117 68.064h6.723c0-24.917 20.2-45.117 45.117-45.117h369.467v-22.947z" fill="#00adeb"/><g fill="#c38340"><path d="m151 98.5c8.284 0 15-6.716 15-15v-45c0-8.284-6.716-15-15-15-8.284 0-15 6.716-15 15v45c0 8.284 6.716 15 15 15z"/><path d="m286.013 98.5c8.284 0 15-6.716 15-15v-45c0-8.284-6.716-15-15-15-8.284 0-15 6.716-15 15v45c0 8.284 6.716 15 15 15z"/><path d="m421.026 98.5c8.284 0 15-6.716 15-15v-45c0-8.284-6.716-15-15-15-8.284 0-15 6.716-15 15v45c0 8.284 6.716 15 15 15z"/><path d="m421.026 419.148c8.284 0 15-6.716 15-15v-45c0-8.284-6.716-15-15-15-8.284 0-15 6.716-15 15v45c0 8.284 6.716 15 15 15z"/></g><path d="m196 248.5c-16.569 0-30 13.431-30 30v15h60v-15c0-16.569-13.431-30-30-30z" fill="#58565b"/><path d="m206.75 250.492c-3.338-1.282-6.961-1.992-10.75-1.992-16.569 0-30 13.431-30 30v15h21.501v-15c0-12.779 7.993-23.684 19.249-28.008z" fill="#474549"/><path d="m346.013 248.5c-16.569 0-30 13.431-30 30v15h60v-15c0-16.569-13.432-30-30-30z" fill="#58565b"/><path d="m356.763 250.492c-3.338-1.282-6.961-1.992-10.75-1.992-16.569 0-30 13.431-30 30v15h21.501v-15c-.001-12.779 7.993-23.684 19.249-28.008z" fill="#474549"/><path d="m113.5 428.674c-16.569 0-30 13.431-30 30v15h60v-15c0-16.569-13.431-30-30-30z" fill="#58565b"/><path d="m124.251 430.666c-3.338-1.282-6.961-1.992-10.75-1.992-16.569 0-30 13.431-30 30v15h21.501v-15c-.001-12.779 7.992-23.684 19.249-28.008z" fill="#474549"/><path d="m248.5 259.75c-12.426 0-22.5 10.074-22.5 22.5v11.25h45v-11.25c0-12.426-10.074-22.5-22.5-22.5z" fill="#474549"/><path d="m166 439.924c-12.426 0-22.5 10.074-22.5 22.5v11.25h45v-11.25c0-12.426-10.074-22.5-22.5-22.5z" fill="#474549"/></g></g><g><path d="m203.686 451.627h-9.704c-4.345-11.221-15.246-19.203-27.982-19.203-7.662 0-14.659 2.891-19.967 7.635-6.475-11.272-18.628-18.885-32.533-18.885-12.559 0-23.688 6.212-30.497 15.719-41.539-21.97-68.035-65.522-68.035-112.829 0-70.339 57.225-127.563 127.563-127.563h68.251v-15h-51.481c4.277-26.608 25.537-48.315 52.789-52.326l-2.184-14.84c-20.446 2.975-39.213 14.294-51.408 31.059v-40.684c8.729-3.096 15-11.432 15-21.21v-45c0-9.777-6.271-18.114-15-21.21v-17.29h-15v17.29c-8.729 3.096-15 11.433-15 21.21v45c0 9.778 6.271 18.114 15 21.21v40.684c-12.202-16.774-30.979-28.094-51.437-31.063l-2.178 14.841c27.266 4.002 48.535 25.71 52.813 52.329-78.665-.098-142.701 63.895-142.696 142.563 0 53.203 29.952 102.159 76.88 126.557-.57 2.596-.88 5.288-.88 8.053v22.5h120v-14.546h7.686c24.873.271 40.086 21.58 37.559 45.373h15c3.28-31.51-20.172-60.592-52.559-60.374zm-60.186-413.127c0-4.135 3.364-7.5 7.5-7.5s7.5 3.365 7.5 7.5v45c0 4.136-3.364 7.5-7.5 7.5s-7.5-3.364-7.5-7.5zm-7.5 427.674h-45v-7.5c0-12.407 10.093-22.5 22.5-22.5s22.5 10.093 22.5 22.5zm45 0h-30c-2.339-24.909 32.346-24.892 30 0z"/><path d="m429.328 181.5c4.277-26.608 25.537-48.315 52.789-52.326l-2.184-14.84c-20.446 2.975-39.213 14.294-51.408 31.059v-40.683c8.729-3.096 15-11.432 15-21.21v-45c0-9.777-6.271-18.114-15-21.21v-17.29h-15v17.29c-8.729 3.096-15 11.433-15 21.21v45c0 9.778 6.271 18.114 15 21.21v40.684c-12.202-16.774-30.979-28.094-51.437-31.063l-2.178 14.841c27.266 4.002 48.535 25.71 52.813 52.329h-118.408c4.277-26.608 25.537-48.315 52.789-52.326l-2.184-14.84c-20.446 2.975-39.213 14.294-51.408 31.059v-40.684c8.729-3.096 15-11.432 15-21.21v-45c0-9.777-6.271-18.114-15-21.21v-17.29h-15v17.29c-8.729 3.096-15 11.433-15 21.21v45c0 9.778 6.271 18.114 15 21.21v40.684c-12.202-16.774-30.979-28.094-51.437-31.063l-2.178 14.841c27.266 4.002 48.535 25.71 52.813 52.329h-51.724v15h286.014v-15h-82.672zm-15.802-143c0-4.135 3.364-7.5 7.5-7.5s7.5 3.365 7.5 7.5v45c0 4.136-3.364 7.5-7.5 7.5s-7.5-3.364-7.5-7.5zm-135.013 0c0-4.135 3.364-7.5 7.5-7.5s7.5 3.365 7.5 7.5v45c0 4.136-3.364 7.5-7.5 7.5s-7.5-3.364-7.5-7.5z"/><path d="m305.93 428.126c18.196 24.144 25.102 45.746 25.102 83.874h15c1.263-33.397-7.945-66.069-28.062-92.82z"/><path d="m428.513 466.042v-40.684c8.729-3.096 15-11.432 15-21.21v-45c0-9.773-6.264-18.106-14.987-21.205v-21.986h-15v21.977c-8.736 3.092-15.013 11.432-15.013 21.214v45c0 9.778 6.271 18.114 15 21.21v40.684c-12.202-16.774-30.979-28.094-51.437-31.064l-2.179 14.841c30.566 4.486 53.615 31.219 53.615 62.181h15c0-30.951 23.04-57.681 53.591-62.178l-2.184-14.84c-18.305 2.694-31.685 9.273-51.406 31.06zm-15-106.894c0-4.136 3.364-7.5 7.5-7.5s7.5 3.364 7.5 7.5v45c0 4.136-3.364 7.5-7.5 7.5s-7.5-3.364-7.5-7.5z"/><path d="m375.992 256h29.995v-15h-59.974c-18.266 0-33.515 13.131-36.825 30.447h-32.708c-4.347-11.218-15.246-19.197-27.98-19.197-7.662 0-14.659 2.891-19.967 7.635-6.475-11.272-18.628-18.885-32.533-18.885-18.266 0-33.515 13.131-36.825 30.447h-15.904c-28.98 0-52.558 23.578-52.558 52.559s23.578 52.559 52.558 52.559h60.197c35.107 0 67.822 13.964 92.118 39.321l10.831-10.378c-27.153-28.337-63.714-43.943-102.949-43.943h-60.197c-20.709 0-37.558-16.849-37.558-37.559s16.849-37.559 37.558-37.559h15.229v14.553h120v-14.553h30.013v14.553h75v-14.553h128.487v-15h-129.162c-1.092-5.711-3.476-10.968-6.846-15.447zm-157.492 30h-45v-7.5c0-12.407 10.093-22.5 22.5-22.5s22.5 10.093 22.5 22.5zm45 0h-30c-2.338-24.909 32.345-24.892 30 0zm105.013 0h-45v-7.5c0-12.407 10.093-22.5 22.5-22.5s22.5 10.093 22.5 22.5z"/><path d="m436.026 211.075h59.974v15h-59.974z"/><path d="m210.783 211.075h59.974v15h-59.974z"/><path d="m45.858 267.236 12.976 7.525c5.85-10.087 13.388-18.975 22.402-26.414l-9.548-11.569c-10.393 8.577-19.083 18.825-25.83 30.458z"/><path d="m85.768 382.615 10.452-10.759c-8.077-7.848-14.104-17.644-17.427-28.329l-14.323 4.455c4.064 13.069 11.429 25.045 21.298 34.633z"/><path d="m275.597 417.922-9.675 11.463c8.617 7.273 15.873 15.88 21.565 25.582l12.938-7.591c-6.555-11.172-14.908-21.082-24.828-29.454z"/><path d="m204.124 437.103c17.175 0 33.508 6.491 45.989 18.278l10.299-10.905c-15.276-14.428-35.267-22.373-56.288-22.373z"/></g></g><g/><g/><g/><g/><g/><g/><g/><g/><g/><g/><g/><g/><g/><g/><g/></svg>