<svg id="Layer_1" enable-background="new 0 0 512 512" viewBox="0 0 512 512" xmlns="http://www.w3.org/2000/svg"><g><g><g><path d="m464.423 38.526-43.934 44.934h-45.791l-40.328 40.327v327.603h170.13v-412.864z" fill="#e3994b"/><path d="m451.5 376.39h-76.06c-4.478-7.006-10.714-12.799-18.092-16.749v-228.49l40.328-41.367h45.792l51.134-51.258h-30.179l-43.934 44.934h-45.792l-40.328 40.328v327.602h170.131v-53.016c-13.58-13.576-32.326-21.984-53-21.984z" fill="#c38340"/><path d="m47.576 38.526 43.934 44.934h45.792l40.328 40.327v327.603h-170.13v-412.864z" fill="#e3994b"/><path d="m60.5 376.39c-10.469 0-20.344 2.164-29.404 6.055v-343.919h-23.596v412.864h23.5v-9.515c4.026-12.452 15.725-21.485 29.5-21.485h117.13v-44z" fill="#c38340"/><path d="m458.277 248.084h-30.128v150.306l75.739 44.923v-149.618z" fill="#79787d"/><path d="m125.851 308.698h-34.851l-30.5 89.692h90.762l26.164-22.373z" fill="#79787d"/><path d="m126.524 23.887c-4.639 0-9.029 1.068-12.939 2.968-6.501-10.927-18.423-18.252-32.061-18.252-16.637 0-31.723 11.898-36.524 26.943l46.51 47.914h35.014c16.373 0 29.645-13.555 29.645-29.927 0-16.374-13.272-29.646-29.645-29.646z" fill="#00ce8b"/><path d="m147.781 61.619h-46.43l-43.287-44.593c-6.08 4.804-10.759 11.297-13.064 18.52l46.51 47.914h35.014c13.931 0 25.611-9.815 28.787-22.827-2.405.641-4.928.986-7.53.986z" fill="#00a666"/><path d="m384 23.887c4.639 0 9.029 1.068 12.939 2.968 6.501-10.927 18.423-18.252 32.061-18.252 16.637 0 31.724 11.898 36.524 26.943l-46.51 47.914h-35.014c-16.373 0-29.645-13.555-29.645-29.927 0-16.374 13.272-29.646 29.645-29.646z" fill="#00ce8b"/><path d="m395.447 62.013c-16.373 0-29.645-13.555-29.645-29.927 0-.675.031-1.342.075-2.006-7.006 5.422-11.522 13.907-11.522 23.452 0 16.372 13.272 29.927 29.645 29.927h35.014l20.819-21.447h-44.386z" fill="#00a666"/><path d="m295.344 83.762h-78.893c-21.553 0-39.025 17.472-39.025 39.025v275.603h156.944v-275.603c0-21.553-17.473-39.025-39.026-39.025z" fill="#b6e6fa"/><path d="m450.085 376.39v-128.306h-21.936v150.306l75.739 44.924v-45.524c-13.529-13.226-33.433-21.4-53.803-21.4z" fill="#58565b"/><path d="m451.5 504.39h-391c-29.271 0-53-23.729-53-53 0-29.271 23.729-53 53-53h391c29.271 0 53 23.729 53 53 0 29.271-23.729 53-53 53z" fill="#54c9f3"/><path d="m474.462 481.427h-405c-29.271 0-53-23.729-53-53 0-2.464.182-4.884.507-7.259-5.964 8.574-9.47 18.986-9.47 30.221 0 29.271 23.729 53 53 53h391c20.553 0 38.361-11.708 47.153-28.81-7.254 3.73-15.472 5.848-24.19 5.848z" fill="#00adeb"/><path d="m113.5 458.39c-16.569 0-30 13.431-30 30v15h60v-15c0-16.569-13.431-30-30-30z" fill="#58565b"/><path d="m124.25 460.382c-3.338-1.282-6.961-1.992-10.75-1.992-16.569 0-30 13.431-30 30v15h21.501v-15c0-12.779 7.993-23.685 19.249-28.008z" fill="#474549"/><path d="m398.5 458.39c-16.569 0-30 13.431-30 30v15h60v-15c0-16.569-13.431-30-30-30z" fill="#58565b"/><g fill="#474549"><path d="m409.25 460.382c-3.338-1.282-6.961-1.992-10.75-1.992-16.569 0-30 13.431-30 30v15h21.501v-15c0-12.779 7.993-23.685 19.249-28.008z"/><path d="m166 469.64c-12.426 0-22.5 10.074-22.5 22.5v11.25h45v-11.25c0-12.427-10.074-22.5-22.5-22.5z"/><path d="m346 469.64c-12.426 0-22.5 10.074-22.5 22.5v11.25h45v-11.25c0-12.427-10.074-22.5-22.5-22.5z"/></g><path d="m162.321 356.301c-10.777 3.528-19.89 10.721-25.845 20.089h-45.495l23.019-67.692h-23l-30.5 89.692h90.762l26.164-22.373z" fill="#58565b"/><path d="m308.733 360.595c-7.518-4.596-16.323-7.205-25.604-7.205-9.537 0-18.627 2.703-26.371 7.414-7.645-4.75-16.719-7.414-26.48-7.414-9.782 0-18.996 2.683-26.805 7.411-1.468-.916-2.99-1.753-4.555-2.51v-256.997c0-5.191 1.022-10.14 2.862-14.671-14.28 5.799-24.354 19.801-24.354 36.163v275.604h156.944v-45c-9.278 0-18.097 2.609-25.637 7.205z" fill="#8ad8f6"/><path d="m334.37 375.89c-12.288 0-22.626 8.237-25.697 19.434-2.996-11.187-13.294-19.434-25.543-19.434-12.526 0-23.993 8.633-26.714 20.208-2.873-11.575-12.918-20.208-26.138-20.208s-24.265 8.633-27.138 20.208c-2.722-11.575-13.189-20.208-25.714-20.208-14.594 0-26.426 11.707-26.426 26.149s11.832 26.149 26.426 26.149h156.944c14.707 0 26.63-11.394 26.63-25.947s-11.923-26.351-26.63-26.351z" fill="#e3edf6"/><path d="m190.067 406.546c-14.594 0-26.426-11.707-26.426-26.149 0-.228.011-.454.017-.681-7.591 4.595-12.658 12.873-12.658 22.323 0 14.442 11.832 26.149 26.426 26.149h156.944c13.221 0 24.186-9.209 26.269-21.641h-170.572z" fill="#c5d9ec"/><g><path d="m31.096 105.89h15v15h-15z" fill="#fff"/></g><g><path d="m61.224 105.89h15v15h-15z" fill="#fff"/></g></g></g><g><path d="m471.747 29.825c-10.545-32.675-56.24-40.337-77.105-13.245-40.426-11.04-65.214 42.693-31.199 66.349l-23.969 23.979c-6.172-18.472-23.615-31.828-44.128-31.828h-78.894c-20.457 0-37.86 13.283-44.077 31.676l-24.223-24.232c33.286-24.056 8.236-76.911-31.768-65.944-20.871-27.098-66.564-19.423-77.106 13.245h-39.278v165.933h15v-150.927h29.42l43.935 44.953h45.841l35.73 35.745v228.301l-40.373-52.72h-43.924l-30.588 89.987c-15.918 1.433-30.071 9.056-40.041 20.442v-200.775h-15v240.6c0 33.374 27.141 60.525 60.5 60.525h188v-15.006h-52.5v-4.752c0-16.549-13.458-30.012-30-30.012-7.662 0-14.659 2.892-19.967 7.638-6.475-11.276-18.627-18.893-32.533-18.893-20.678 0-37.5 16.829-37.5 37.516v8.504h-15.5c-25.089 0-45.5-20.42-45.5-45.519s20.411-45.519 45.5-45.519h83.229c1.933 16.753 16.302 30.215 33.677 30.215h156.964c17.576 0 32.087-13.252 33.929-30.215h83.201c25.089 0 45.5 20.42 45.5 45.519s-20.411 45.519-45.5 45.519h-15.5v-8.504c0-20.686-16.822-37.516-37.5-37.516-13.905 0-26.058 7.616-32.533 18.893-5.308-4.746-12.305-7.638-19.967-7.638-16.542 0-30 13.464-30 30.012v4.752h-52.5v15.006h188c33.359 0 60.5-27.151 60.5-60.525v-421.539zm-305.747 447.3c10.286.103 16.12 9.072 15 18.758h-30c-1.122-9.685 4.721-18.658 15-18.758zm-75 11.255c0-12.412 10.094-22.509 22.5-22.509s22.5 10.097 22.5 22.509v7.503h-45zm285 0c0-12.412 10.094-22.509 22.5-22.509s22.5 10.097 22.5 22.509v7.503h-45zm-30-11.255c15 0 15 18.758 15 18.758h-30s0-18.758 15-18.758zm38.5-446.939c5.451-.288 11.126 2.897 15.859 5.228l3.524-5.925c12.178-21.19 44.991-18.492 53.376 4.435l-39.927 40.853h-32.832c-29.209-.77-29.188-43.829 0-44.591zm-166 59.901v120.678h15v-120.678h61.845c17.383 0 31.525 14.148 31.525 31.538v247.539c-7.087 1.591-13.438 5.386-18.16 10.718-4.043-4.596-9.305-8.044-15.21-9.929v-114.17h-15v112.86c-8.635 1.127-16.452 5.341-21.97 11.54-5.662-6.642-13.803-10.893-23.03-11.701v-37.668h-15v39.419c-5.934 1.98-11.176 5.421-15.203 9.945-4.698-5.509-11.118-9.419-18.371-11.03v-247.523c0-21.778 25.691-31.538 33.574-31.538zm-164.462-56.879c8.605-22.288 41.334-24.571 53.102-3.717 0-.001 3.524 5.924 3.524 5.924l6.198-3.013c14.188-7.251 32.165 3.953 31.805 19.94 0 12.216-9.933 22.437-22.144 22.437h-31.856zm91.384 357.631h-74.45l25.399-74.722h25.777l42.033 54.886c-8.73 3.687-15.588 10.906-18.759 19.836zm188.968 30.215h-156.964c-10.436 0-18.926-8.774-18.926-19.061s8.49-18.657 18.926-18.657c8.845 0 16.417 5.428 18.414 13.924h14.58c2.088-8.414 10.439-13.924 19.858-13.924 9.268 0 16.67 5.103 18.858 13.924h14.58c1.934-8.227 10.279-13.924 19.413-13.924 8.586 0 16.11 5.751 18.298 13.924h14.478c2.248-8.198 9.841-13.924 18.465-13.924 10.548 0 19.13 8.46 19.13 18.859s-8.582 18.859-19.11 18.859zm117.11-30.215h-15.851v-75.031h-15v75.031h-54.129c-3.895-10.823-13.189-19.114-24.65-21.676v-243.43l35.934-35.95h45.842l43.934-44.953h29.42v231.271l-35.617-35.632h-40.733v60.331h15v-45.325h19.521l41.829 41.85v114.214c-11.098-12.673-27.375-20.7-45.5-20.7z"/><path d="m218.5 225.771h15v15.006h-15z"/><path d="m278.5 119.727h15v60.025h-15z"/></g></g><g/><g/><g/><g/><g/><g/><g/><g/><g/><g/><g/><g/><g/><g/><g/></svg>