<svg id="Layer_1" enable-background="new 0 0 512 512" viewBox="0 0 512 512" xmlns="http://www.w3.org/2000/svg"><g><g><g><path d="m478.263 233.351-30.54 28.986h-236.723v158.071l293.5.046v-187.103z" fill="#e3994b"/><path d="m68.345 262.89h-60.845v157.564l88.956-65.627v-69.873z" fill="#e3994b"/><path d="m96.456 345.396h-35.927c-10.471 0-20.445 2.163-29.507 6.055v-88.561h-23.522v157.564l88.956-65.628z" fill="#c38340"/><path d="m476.95 90.003-21.9 22.899h-32.863l-34.437 33.437v115.998h59.973l30.539-28.986h26.238v-143.348z" fill="#c3f839"/><path d="m470.22 211.944-27.279 25.892c.869-17.481-8.141-33.62-21.94-42.565v-24.946c0-15.825-5.638-30.358-15.011-41.696l-18.239 17.71v115.999h59.973l30.539-28.986h26.237v-21.407h-34.28z" fill="#abe700"/><path d="m451.471 345.396h-160.649c-3.647-5.436-8.357-10.111-13.822-13.654v-24.945c0-15.825-5.638-30.358-15.011-41.696h-37.926c12.192 9.875 19.79 24.583 19.686 40.378v39.917h-32.749v75.013l293.5.046v-53.058c-13.586-13.586-32.344-22.001-53.029-22.001z" fill="#c38340"/><path d="m206.563 112.902h-100.563l-21.899-22.899h-76.601v172.887h60.845l28.111 22.064h144.544v-138.615z" fill="#c3f839"/><path d="m169.807 60.615c-4.871 0-9.428 1.336-13.332 3.656-4.801-15.045-18.887-25.943-35.524-25.943-13.638 0-25.56 7.325-32.061 18.252-3.91-1.9-8.299-2.968-12.939-2.968-16.373 0-29.645 13.272-29.645 29.645v6.697l37.796.048 21.898 22.9h63.807c14.439 0 26.144-11.705 26.144-26.144s-11.706-26.143-26.144-26.143z" fill="#00ce8b"/><path d="m181.62 91.088h-66.195l-32.157-33.697s-10.155-3.644-25.081 2.13c-7.214 5.407-11.883 14.026-11.883 23.736v6.697l37.796.048 21.9 22.9h63.807c14.422 0 26.115-11.678 26.142-26.094-4.116 2.703-9.037 4.28-14.329 4.28z" fill="#00a666"/><path d="m212.958 240.378h-78.915c-15.383 0-29.549 4.803-40.783 13.659l-17.403-13.659h-45.257v-150.375h-23.1v172.887h60.845l28.111 22.064h144.544v-38.797c-8.518-4.012-18.02-5.779-28.042-5.779z" fill="#abe700"/><path d="m212.957 262.89h-78.915c-23.771 0-43.042 19.271-43.042 43.043v57.938h165v-57.938c0-23.772-19.271-43.043-43.043-43.043z" fill="#b6e6fa"/><path d="m251.87 322.954c-9.291 0-18.117 2.644-25.637 7.292-7.498-4.648-16.31-7.292-25.603-7.292-9.552 0-18.653 2.739-26.377 7.502-7.622-4.805-16.7-7.502-26.475-7.502-9.799 0-19.021 2.717-26.809 7.499-2.721-1.722-5.626-3.171-8.671-4.327v-20.193c0-23.772 19.271-43.043 43.043-43.043h-21.298c-23.772 0-43.043 19.271-43.043 43.043v57.938h165v-40.73c-1.363-.114-2.738-.187-4.13-.187z" fill="#8ad8f6"/><path d="m451.471 473.454h-390.942c-29.287 0-53.029-23.742-53.029-53.029 0-29.287 23.742-53.029 53.029-53.029h390.942c29.287 0 53.029 23.742 53.029 53.029 0 29.287-23.742 53.029-53.029 53.029z" fill="#54c9f3"/><path d="m474.355 450.284h-405.855c-66.2-.892-37.231-84.976 14.529-82.888h-22.5c-24.395-.015-44.958 16.531-51.113 38.907-9.598 33.061 16.612 67.666 51.113 67.151h390.941c20.541 0 38.34-11.687 47.148-28.766-7.272 3.751-15.516 5.596-24.263 5.596z" fill="#00adeb"/><path d="m361.5 427.454c-16.569 0-30 13.431-30 30v15h60v-15c0-16.568-13.431-30-30-30z" fill="#58565b"/><path d="m372.25 429.446c-3.338-1.282-6.961-1.992-10.75-1.992-16.569 0-30 13.431-30 30v15h21.501v-15c0-12.778 7.993-23.684 19.249-28.008z" fill="#474549"/><path d="m414 438.704c-12.426 0-22.5 10.074-22.5 22.5v11.25h45v-11.25c0-12.426-10.074-22.5-22.5-22.5z" fill="#474549"/><path d="m309 322.396c-16.569 0-30 13.431-30 30v15h60v-15c0-16.569-13.431-30-30-30z" fill="#58565b"/><path d="m319.75 324.388c-3.338-1.282-6.961-1.992-10.75-1.992-16.569 0-30 13.431-30 30v15h21.501v-15c0-12.779 7.993-23.685 19.249-28.008z" fill="#474549"/><path d="m361.5 333.646c-12.426 0-22.5 10.074-22.5 22.5v11.25h45v-11.25c0-12.426-10.074-22.5-22.5-22.5z" fill="#474549"/><path d="m251.87 344.954c-12.288 0-22.626 8.237-25.697 19.434-2.996-11.187-13.294-19.434-25.543-19.434-12.526 0-23.993 8.633-26.714 20.208-2.873-11.575-12.918-20.208-26.138-20.208s-24.265 8.633-27.138 20.208c-2.722-11.575-13.189-20.208-25.714-20.208-14.594 0-26.426 11.707-26.426 26.149s11.832 26.553 26.426 26.553h156.944c14.707 0 26.63-11.798 26.63-26.351s-11.923-26.351-26.63-26.351z" fill="#e3edf6"/><path d="m273.487 376.039h-169.274c-14.027 0-25.496-11.19-26.367-24.882-5.715 4.796-9.346 11.95-9.346 19.946 0 14.442 11.832 26.553 26.426 26.553h156.944c13.218 0 24.181-9.531 26.267-22.026-1.511.264-3.063.409-4.65.409z" fill="#c5d9ec"/><path d="m355.457 127.283h-78.915c-23.772 0-43.043 19.271-43.043 43.043v57.938h165v-57.938c.001-23.772-19.27-43.043-43.042-43.043z" fill="#b6e6fa"/><path d="m394.37 187.347c-9.291 0-18.117 2.644-25.637 7.292-7.498-4.648-16.31-7.292-25.603-7.292-9.552 0-18.653 2.739-26.377 7.502-7.622-4.805-16.7-7.502-26.475-7.502-9.799 0-19.021 2.717-26.809 7.499-2.721-1.722-5.626-3.171-8.671-4.327v-20.193c0-23.772 19.271-43.043 43.043-43.043h-21.298c-23.772 0-43.043 19.271-43.043 43.043v57.938h165v-40.73c-1.363-.115-2.738-.187-4.13-.187z" fill="#8ad8f6"/><path d="m394.37 209.347c-12.288 0-22.626 8.237-25.697 19.434-2.996-11.187-13.294-19.434-25.543-19.434-12.526 0-23.993 8.633-26.714 20.208-2.873-11.575-12.918-20.208-26.138-20.208-13.219 0-24.265 8.633-27.138 20.208-2.722-11.575-13.189-20.208-25.714-20.208-14.594 0-26.426 11.707-26.426 26.149s11.832 26.553 26.426 26.553h156.944c14.707 0 26.63-11.798 26.63-26.351s-11.923-26.351-26.63-26.351z" fill="#e3edf6"/><path d="m415.987 240.431h-169.274c-14.027 0-25.496-11.19-26.367-24.882-5.715 4.796-9.346 11.95-9.346 19.946 0 14.442 11.832 26.553 26.426 26.553h156.944c13.218 0 24.181-9.532 26.267-22.026-1.511.264-3.063.409-4.65.409z" fill="#c5d9ec"/><g><path d="m30.6 134.954h15v15h-15z" fill="#fff"/></g><g><path d="m61 134.954h15v15h-15z" fill="#fff"/></g></g></g><g><path d="m473.745 82.503-17.023 17.801c-5.46-18.946-22.942-32.849-43.622-32.849v15c14.192 0 26.141 9.777 29.473 22.948h-23.428l-29.179 28.332c-9.041-8.465-21.176-13.663-34.508-13.663h-78.915c-14.145 0-26.945 5.849-36.128 15.246l-30.81-29.915h-11.81c17.438-25.408-7.701-59.915-37.358-50.957-13.878-27.824-55.339-31.709-74.346-6.934-22.894-6.827-47.16 11.119-47.267 34.992h-38.824v97.452h15v-82.453h65.896l21.899 22.899h100.726l28.034 27.22c-3.542 6.903-5.555 14.714-5.555 22.992v33.49c-13.102 4.663-22.5 17.101-22.5 31.68 0 7.296 2.306 14.058 6.213 19.606h-75.671c-15.823 0-29.964 7.313-39.239 18.732l-23.866-18.732h-24.407c3.336-13.165 15.283-22.936 29.47-22.936v-15c-22.491 0-41.204 16.443-44.776 37.936h-16.224v-60.436h-15v225.5c0 33.36 27.14 60.5 60.5 60.5h188v-15h-188c-25.089 0-45.5-20.411-45.5-45.5s20.411-45.5 45.5-45.5h.723c1.913 16.969 16.294 30.202 33.703 30.202h156.944c17.576 0 32.088-13.247 33.929-30.202h165.701c25.089 0 45.5 20.411 45.5 45.5s-20.411 45.5-45.5 45.5h-7.5v-4.75c0-16.542-13.458-30-30-30-7.662 0-14.659 2.891-19.967 7.635-6.475-11.272-18.627-18.885-32.533-18.885-20.678 0-37.5 16.822-37.5 37.5v8.5h-60.5v15h188c33.36 0 60.5-27.14 60.5-60.5v-337.951zm-364.54 22.899-21.899-22.899h-33.482c.161-15.605 17.873-26.299 31.786-19.177 0 0 6.199 3.012 6.199 3.012l3.524-5.923c12.619-21.878 46.689-18.109 53.995 6.136 0-.001 2.868 8.986 2.868 8.986 4.99-2.816 11.55-7.861 17.609-7.422 24.583.645 24.58 36.646-.001 37.287zm289.795 355.802c0-8.271 6.729-15 15-15s15 6.729 15 15v3.75h-30zm-60-3.75c0-12.407 10.093-22.5 22.5-22.5s22.5 10.093 22.5 22.5v7.5h-45zm-60.5-322.382v44.883h15v-44.883h61.958c19.598 0 35.542 15.944 35.542 35.542v31.694c-8.736.862-16.668 5.027-22.291 11.373-4.043-4.594-9.305-8.041-15.209-9.925v-38.802h-15v37.494c-8.635 1.127-16.451 5.339-21.969 11.535-6.314-7.403-15.704-11.848-26.252-11.848-10.714 0-20.445 4.502-26.982 11.844-5.53-6.481-13.446-10.743-22.296-11.655v-31.71c-.001-19.598 18.808-35.66 37.499-35.542zm-41.074 82.063c8.844 0 16.416 5.932 18.414 14.425l14.58.09c2.087-8.41 10.439-14.515 19.858-14.515 9.268 0 16.67 5.697 18.858 14.515l14.58-.09c1.934-8.224 10.28-14.425 19.414-14.425 8.585 0 16.11 5.706 18.298 13.875l14.478.043c2.248-8.195 9.84-13.918 18.464-13.918 10.548 0 19.13 8.457 19.13 18.851s-8.582 18.851-19.13 18.851h-156.944c-10.259 0-18.926-8.725-18.926-19.053 0-10.283 8.49-18.649 18.926-18.649zm-101.426 53.255v45.042h15v-45.042h61.958c19.598 0 35.542 15.944 35.542 35.542v31.695c-8.736.862-16.668 5.027-22.291 11.373-4.043-4.594-9.305-8.041-15.209-9.925v-38.643h-15v37.335c-8.635 1.127-16.451 5.339-21.969 11.535-6.314-7.403-15.704-11.848-26.252-11.848-10.714 0-20.445 4.502-26.982 11.844-5.53-6.481-13.446-10.743-22.296-11.655v-31.71c-.001-23.617 22.636-35.543 37.499-35.543zm-73.078 89.564c-18.786-.668-36.396 7.394-47.922 20.691v-110.255h50.753l21.374 16.776c-2.331 5.807-3.627 12.136-3.627 18.767v33.49c-9.59 3.413-17.19 10.994-20.578 20.531zm188.948 30.202h-156.944c-10.259 0-18.926-8.725-18.926-19.053 0-10.283 8.49-18.649 18.926-18.649 8.844 0 16.416 5.425 18.414 13.918h14.58c2.087-8.41 10.439-13.918 19.858-13.918 9.268 0 16.67 5.101 18.858 13.918h14.58c1.934-8.224 10.28-13.918 19.414-13.918 8.585 0 16.11 5.749 18.298 13.918h14.478c2.248-8.195 9.84-13.918 18.464-13.918 10.548 0 19.13 8.457 19.13 18.851s-8.582 18.851-19.13 18.851zm34.63-30.26v-7.5c0-12.407 10.093-22.5 22.5-22.5s22.5 10.093 22.5 22.5v7.5zm60 0c-2.339-24.909 32.345-24.892 30 0zm150.5 20.749c-11.098-12.668-27.375-20.691-45.5-20.691h-6.953c3.488-12.944 15.323-22.5 29.353-22.5v-15c-22.338 0-40.947 16.221-44.698 37.5h-37.702v-3.809c0-16.542-13.458-30-30-30-7.662 0-14.659 2.891-19.967 7.635-6.475-11.272-18.628-18.885-32.533-18.885-17.891 0-32.885 12.596-36.605 29.384-2.685-2.011-5.677-3.639-8.895-4.799v-33.548c0-14.129-5.834-26.362-15.212-35.542h202.469l30.539-29.539h15.704zm-21.771-154.794-30.539 29.539h-22.379c3.894-5.499 6.189-12.189 6.189-19.404 0-14.616-9.39-27.097-22.5-31.825v-33.547c0-9.115-2.438-17.666-6.677-25.058l25.906-25.154h33.026l21.899-22.899h16.846v128.349h-21.771z"/><path d="m301 390.156h60v15h-60z"/><path d="m376 390.156h30v15h-30z"/><path d="m76 435.284h60v15h-60z"/><path d="m151 435.284h30v15h-30z"/></g></g><g/><g/><g/><g/><g/><g/><g/><g/><g/><g/><g/><g/><g/><g/><g/></svg>