<svg id="Layer_1" enable-background="new 0 0 512 512" viewBox="0 0 512 512" xmlns="http://www.w3.org/2000/svg"><g><g><g><path d="m421.007 214.574-60-22.209-45-165.493h-45l-60 120-120.007 45-45 112.505h437z" fill="#e3edf6"/><path d="m467.317 281.658c-1.61.376-3.265.583-4.932.583-8.338 0-15.658-4.67-18.82-12.048h-44.907c-3.174 7.379-10.498 12.048-18.833 12.048s-15.659-4.669-18.833-12.048h-44.905c-3.161 7.378-10.482 12.048-18.823 12.048-8.338 0-15.658-4.67-18.82-12.048h-44.907c-3.174 7.379-10.497 12.048-18.833 12.048-8.338 0-15.658-4.67-18.82-12.048h-44.907c-3.174 7.379-10.498 12.048-18.834 12.048-8.335 0-15.659-4.669-18.834-12.048h-28.762l32.978-84.059 91.452-34.581-31.522 64.509 19.854 8.534 97.697-197.724h-24l-60 120-120.006 45-45 112.505h437z" fill="#c5d9ec"/><path d="m8.583 270.234c0 2.446.45 4.872 1.331 7.154 6.127 15.873 21.573 27.141 39.668 27.141 20.006 0 36.774-13.774 41.272-32.312 4.517 18.541 21.284 32.312 41.288 32.312 20.006 0 36.774-13.774 41.289-32.317 4.5 18.545 21.266 32.317 41.271 32.317 20.006 0 36.774-13.774 41.289-32.317 4.5 18.545 21.266 32.317 41.271 32.317 20.006 0 36.774-13.774 41.272-32.312 4.517 18.541 21.284 32.312 41.288 32.312 20.006 0 36.774-13.774 41.289-32.317 4.5 18.545 21.266 32.317 41.271 32.317 18.095 0 34.541-11.268 40.668-27.141.881-2.281 1.331-4.708 1.331-7.154v102.766h-495.798z" fill="#b6e6fa"/><path d="m482.383 330.219-.192.035c-3.185 7.167-11.358 12.294-19.806 12.294-8.338 0-15.658-4.952-18.82-12.33h-44.907c-3.174 7.379-10.498 12.33-18.833 12.33s-15.659-4.951-18.833-12.33h-44.905c-3.161 7.378-10.482 12.33-18.822 12.33-8.338 0-15.658-4.952-18.82-12.33h-44.907c-3.174 7.379-10.497 12.33-18.833 12.33-8.338 0-15.658-4.952-18.82-12.33h-44.907c-3.174 7.379-10.498 12.33-18.834 12.33-8.335 0-15.659-4.951-18.834-12.33h-44.906c-3.161 7.378-10.482 12.33-18.822 12.33-8.152 0-15.573-4.948-18.786-12.33v-30.044c-9.529-4.688-17.039-12.831-20.882-22.787-.881-2.281-1.331-4.708-1.331-7.153v102.766h495.8v-42.781z" fill="#8ad8f6"/><path d="m8.583 330.254c0 2.445.45 4.872 1.331 7.154 6.127 15.873 21.573 27.141 39.668 27.141 20.006 0 36.774-13.774 41.272-32.312 4.517 18.541 21.284 32.312 41.288 32.312 20.006 0 36.774-13.774 41.289-32.317 4.5 18.545 21.266 32.317 41.271 32.317 20.006 0 36.774-13.774 41.289-32.317 4.5 18.545 21.266 32.317 41.271 32.317 20.006 0 36.774-13.774 41.272-32.312 4.517 18.541 21.284 32.312 41.288 32.312 20.006 0 36.774-13.774 41.289-32.317 4.5 18.545 21.266 32.317 41.271 32.317 18.095 0 34.541-11.268 40.668-27.141.881-2.281 1.331-4.708 1.331-7.154v102.766h-495.798z" fill="#54c9f3"/><path d="m482.383 390.236-.192.038c-3.185 7.167-11.358 12.294-19.806 12.294-8.338 0-15.658-4.954-18.82-12.332h-44.907c-3.174 7.379-10.498 12.332-18.833 12.332s-15.659-4.953-18.833-12.332h-44.905c-3.161 7.378-10.482 12.332-18.822 12.332-8.338 0-15.658-4.954-18.82-12.332h-44.907c-3.174 7.379-10.497 12.332-18.833 12.332-8.338 0-15.658-4.954-18.82-12.332h-44.907c-3.174 7.379-10.498 12.332-18.834 12.332-8.335 0-15.659-4.954-18.834-12.332h-44.906c-3.161 7.378-10.482 12.332-18.822 12.332-8.152 0-15.573-4.95-18.786-12.332v-30.042c-9.529-4.688-17.039-12.831-20.882-22.787-.881-2.281-1.331-4.708-1.331-7.153v102.766h495.8v-42.784z" fill="#00adeb"/><path d="m8.583 390.274c0 2.445.45 4.872 1.331 7.154 6.127 15.873 21.573 27.141 39.668 27.141 20.006 0 36.774-13.774 41.272-32.312 4.517 18.541 21.284 32.312 41.288 32.312 20.006 0 36.774-13.774 41.289-32.317 4.5 18.545 21.266 32.317 41.271 32.317 20.006 0 36.774-13.774 41.289-32.317 4.5 18.545 21.266 32.317 41.271 32.317 20.006 0 36.774-13.774 41.272-32.312 4.517 18.541 21.284 32.312 41.288 32.312 20.006 0 36.774-13.774 41.289-32.317 4.5 18.545 21.266 32.317 41.271 32.317 18.095 0 34.541-11.268 40.668-27.141.881-2.281 1.331-4.708 1.331-7.154v94.129h-495.798z" fill="#009de6"/><path d="m30.796 461.872v-41.478c-9.71-4.657-16.988-12.88-20.882-22.968-.881-2.281-1.331-4.708-1.331-7.154v95.129h495.8v-23.531h-473.587z" fill="#0089cb"/><g><path d="m31.16 446.872h15v15h-15z" fill="#fff"/></g><g><path d="m60.776 446.872h15v15h-15z" fill="#fff"/></g></g></g><g><path d="m512 269.99h-15.117-.028c-.646 8.424-6.962 15.457-13.634 20.249l-57.411-82.128-58.579-21.684-45.491-167.299h-55.368l-24.573 49.146 13.416 6.708 20.427-40.854h34.632l39.402 144.906-40.17-17.414h-46.556v15h43.444l48.321 20.947.067.246 61.421 22.736 52.829 75.573c-18.121 3.71-36.632-7.974-40.789-25.923l-14.603-.006c-3.82 15.656-17.829 26.591-34.067 26.591-16.236 0-30.245-10.933-34.066-26.587l-14.603.007c-3.805 15.65-17.806 26.581-34.048 26.581-16.241 0-30.242-10.932-34.047-26.585l-14.603-.006c-3.82 15.656-17.829 26.591-34.066 26.591-16.24 0-30.241-10.932-34.047-26.585l-14.603-.006c-3.82 15.657-17.829 26.591-34.067 26.591-16.236 0-30.245-10.933-34.066-26.587l-14.603.007c-3.1 12.751-12.969 22.367-25.304 25.493l39.282-98.209 100.365-37.635-26.987 53.026 13.763 5.966 63.833-128.849-13.416-6.708-28.676 57.352-120.35 45.128-44.07 110.181c-12.284-2.796-24.459-12.825-26.05-25.959h-.106-15.038v222.883h413.5v-15h-398.461v-59.069c9.063 8.168 21.026 13.02 33.668 13.02 16.984 0 32.255-8.382 41.356-21.663 9.11 13.28 24.384 21.663 41.36 21.663 16.978 0 32.252-8.383 41.362-21.665 9.102 13.28 24.374 21.665 41.355 21.665 16.976 0 32.251-8.385 41.361-21.665 9.102 13.28 24.374 21.665 41.355 21.665 16.984 0 32.255-8.382 41.356-21.663 9.11 13.28 24.384 21.663 41.36 21.663 16.977 0 32.252-8.385 41.362-21.665 9.102 13.28 24.374 21.665 41.355 21.665 13.052 0 25.347-4.882 34.592-13.099v59.148h-68.381v15h83.5zm-463.293 41.794c16.984 0 32.255-8.382 41.356-21.663 9.11 13.28 24.384 21.663 41.36 21.663 16.977 0 32.251-8.383 41.362-21.665 9.102 13.28 24.374 21.665 41.355 21.665 16.976 0 32.251-8.385 41.361-21.665 9.102 13.28 24.374 21.665 41.355 21.665 16.984 0 32.255-8.382 41.356-21.663 9.11 13.28 24.384 21.663 41.36 21.663s32.251-8.385 41.362-21.665c9.102 13.28 24.374 21.665 41.355 21.665 13.052 0 25.347-4.882 34.592-13.099v32.68c-3.305 14.952-18.887 25.379-34.498 25.439-16.248 0-30.255-10.933-34.062-26.585l-14.61-.006c-3.822 15.657-17.837 26.591-34.082 26.591-16.244 0-30.258-10.933-34.081-26.588l-14.609.007c-3.807 15.65-17.814 26.581-34.063 26.581s-30.256-10.933-34.063-26.585l-14.61-.006c-3.821 15.657-17.837 26.591-34.082 26.591-16.248 0-30.255-10.933-34.062-26.585l-14.61-.006c-3.822 15.657-17.837 26.592-34.082 26.592-16.244 0-30.258-10.934-34.082-26.588l-14.609.007c-3.807 15.65-17.814 26.581-34.063 26.581-15.394.004-31.353-11.048-33.573-26.704v-31.336c9.063 8.167 21.025 13.019 33.667 13.019zm448.147 78.245c-2.082 15.697-18.725 26.72-34.564 26.794-16.241 0-30.241-10.932-34.047-26.585l-14.603-.006c-3.82 15.656-17.829 26.591-34.067 26.591-16.236 0-30.245-10.933-34.066-26.587l-14.603.007c-3.804 15.65-17.806 26.581-34.048 26.581-16.241 0-30.242-10.932-34.047-26.585l-14.603-.006c-3.82 15.656-17.829 26.591-34.066 26.591-16.24 0-30.241-10.932-34.047-26.585l-14.603-.006c-3.82 15.657-17.829 26.591-34.067 26.591-16.236 0-30.245-10.933-34.066-26.587l-14.603.007c-3.805 15.65-17.806 26.581-34.048 26.581-15.403.006-31.425-11.097-33.562-26.794h-.106v-31.147c9.054 8.108 20.976 12.922 33.573 12.922 16.992 0 32.27-8.382 41.375-21.663 9.115 13.28 24.396 21.663 41.379 21.663 16.986 0 32.266-8.383 41.381-21.665 9.106 13.28 24.385 21.665 41.374 21.665 16.984 0 32.266-8.385 41.38-21.665 9.106 13.28 24.385 21.665 41.375 21.665 16.991 0 32.269-8.382 41.375-21.663 9.115 13.28 24.395 21.663 41.379 21.663 16.985 0 32.267-8.385 41.381-21.665 9.106 13.28 24.385 21.665 41.374 21.665 13.007 0 25.26-4.845 34.498-13.003v31.228h-.028z"/></g></g><g/><g/><g/><g/><g/><g/><g/><g/><g/><g/><g/><g/><g/><g/><g/></svg>