<svg id="Layer_1" enable-background="new 0 0 512 512" viewBox="0 0 512 512" xmlns="http://www.w3.org/2000/svg"><g><g><g><path d="m504.319 481.165h-496.819v-120.553l248.41-6.128 248.409 6.128z" fill="#54c9f3"/><path d="m7.5 360.612h22.979v120.553h-22.979z" fill="#00adeb"/><path d="m324.527 360.612h-137.234l-15.839-45.215h169.145z" fill="#b6e6fa"/><path d="m202.797 339.108-8.306-23.711h-23.037l15.839 45.215h137.233l7.645-21.504z" fill="#8ad8f6"/><path d="m7.5 390.685h158.69c8.179 0 14.81 6.631 14.81 14.81v1.167c0 8.179-6.631 14.81-14.81 14.81h-45.38c-8.179 0-14.81 6.631-14.81 14.81 0 8.179 6.631 14.81 14.81 14.81h383.509v30.073h-496.819z" fill="#009de6"/><g><path d="m30.606 458.059v-67.374h-23.106v90.48h496.819v-23.106z" fill="#0089cb"/></g><path d="m178.494 211.527c-7.509-18.95-25.826-31.396-46.21-31.396h-9.024l48.195 135.266h48.195z" fill="#00ce8b"/><path d="m333.506 211.527c7.509-18.95 25.826-31.396 46.21-31.396h9.024l-18.548 64.31-29.647 70.956h-48.195z" fill="#00ce8b"/><path d="m323.526 295.142 41.156-103.87c1.452-3.665 3.313-7.083 5.51-10.219-16.407 3.2-30.37 14.535-36.686 30.474l-41.156 103.87h48.195l7.217-20.256h-24.236z" fill="#00a666"/><path d="m187.029 293.823-39.673-111.349c-4.793-1.526-9.864-2.343-15.072-2.343h-9.024l48.195 135.266h48.195l-8.548-21.574z" fill="#00a666"/><path d="m504.319 360.612v-329.894c-13.353 0-25.438 7.91-30.783 20.147l-37.159 85.087c-19.097 0-36.129 12.015-42.536 30.005l-69.315 194.654h179.793z" fill="#c3f839"/><path d="m7.5 360.612v-329.894c13.353 0 25.438 7.91 30.783 20.147l37.159 85.087c19.097 0 36.129 12.015 42.536 30.005l69.315 194.654h-179.793z" fill="#c3f839"/><path d="m415.586 169.958c6.406-17.991 23.438-29.005 42.536-29.005l37.159-86.087c2.089-4.783 5.217-8.891 9.038-12.138v-12.01c-13.353 0-25.438 7.91-30.782 20.147l-37.159 85.087c-19.097 0-36.129 12.015-42.536 30.005l-69.315 194.654h179.793v-22.077h-68.051l12.97-37.32c7.997-23.01 29.685-38.433 54.045-38.433h-22.596c-24.36 0-46.048 15.423-54.045 38.433l-12.97 37.32h-58.116z" fill="#abe700"/><path d="m31.117 337.011v-296.585c-6.174-6.098-14.61-9.708-23.617-9.708v329.894h179.793l-8.404-23.601z" fill="#abe700"/><g><path d="m31.117 172.782h15v15h-15z" fill="#fff"/></g><g><path d="m61.755 172.782h15v15h-15z" fill="#fff"/></g></g></g><g><path d="m226.08 383.184h90.032v15h-90.032z"/><path d="m331.117 383.184h30.011v15h-30.011z"/><path d="m331.117 413.388h90.032v15h-90.032z"/><path d="m436.154 413.388h30.011v15h-30.011z"/><path d="m504.497 23.218c-16.343 0-31.129 9.674-37.669 24.646l-35.312 80.829c-20.163 1.934-37.714 15.409-44.604 34.75l-3.274 9.19c-24.822-1.307-47.838 12.862-56.936 36.133l-39.293 99.132h-62.586l-39.293-99.132c-9.125-23.363-32.275-37.506-57.171-36.133l-3.274-9.19c-6.89-19.34-24.441-32.816-44.604-34.75l-35.309-80.829c-6.54-14.972-21.326-24.646-37.669-24.646h-7.503v465.564h512v-465.564zm-163.844 191.072c6.22-15.691 20.876-26.002 37.632-26.628l-15.177 42.604 14.136 5.032 23.804-66.824c5.836-16.871 22.922-26.52 40.393-25.021l39.138-89.586c3.118-7.139 9.19-12.381 16.415-14.549v215.964h-16.138c-27.536 0-52.111 17.47-61.15 43.471l-18.898 54.358h-65.532l36.624-102.813-14.136-5.032-22.31 62.631h-31.904zm156.342 55.992v82.83h-80.302l17.186-49.435c6.945-19.975 25.824-33.395 46.978-33.395zm-325.413-55.992 37.102 93.607h-32.139l-42.832-120.24c16.854.538 31.62 10.869 37.869 26.633zm-156.577-174.972c7.225 2.168 13.297 7.41 16.415 14.549l39.137 89.586c17.471-1.5 34.558 8.151 40.394 25.021l65.772 184.638h-161.718zm481.99 404.274h-376.142c-9.613-.173-9.607-14.45 0-14.62h45.396c29.604-.662 29.583-45.134 0-45.788h-105.227v15h105.227c9.747-.009 9.743 15.798 0 15.788h-45.396c-29.437.776-29.416 43.853 0 44.62h376.142v15.073h-481.99v-75.48h31.011v-15h-31.011v-15.073h211.075v-15h-33.429l-10.763-30.214h148.223l-10.763 30.214h-33.248v15h210.894v75.48z"/></g></g><g/><g/><g/><g/><g/><g/><g/><g/><g/><g/><g/><g/><g/><g/><g/></svg>