<svg id="Layer_1" enable-background="new 0 0 512 512" viewBox="0 0 512 512" xmlns="http://www.w3.org/2000/svg"><g><g><g><path d="m293.479 0h135.415v53.574h-135.415z" fill="#f7bd83"/><path d="m315.074 31.979v-31.979h-21.595v53.574h135.415v-21.595z" fill="#f3a451"/><path d="m372.628 241h-78.149v-90.086h-165.936c-24.876 0-45.043 20.167-45.043 45.043 0 24.876 20.167 45.043 45.043 45.043h10.829c-72.831 0-131.872 59.041-131.872 131.872 0 72.831 59.041 131.872 131.872 131.872h233.256c72.831 0 131.872-59.041 131.872-131.872 0-72.831-59.041-131.872-131.872-131.872z" fill="#54c9f3"/><path d="m416.02 480.66h-276.648c-59.731 1.35-110.402-47.879-109.915-107.788.001-72.831 59.042-131.872 131.873-131.872h-10.088c-24.7 0-45.365-19.576-45.778-44.273-.421-25.229 19.904-45.813 45.037-45.813h-21.216c-24.7 0-45.365 19.576-45.778 44.273-.422 25.229 19.903 45.813 45.036 45.813h10.829c-68.77 0-125.236 52.645-131.319 119.831v-.001c-8.026 87.74 67.923 153.145 153.277 143.915h211.298c32.148 0 61.604-11.509 84.487-30.624-12.934 4.238-26.745 6.539-41.095 6.539z" fill="#00adeb"/><path d="m113.5 383.606h315.394v30h-315.394z" fill="#a9baca"/><path d="m263.734 53.574v210.032h-73.675c-42.282 0-76.559 34.276-76.559 76.558v43.442h315.394v-330.032z" fill="#fee95d"/><g fill="#f7d700"><path d="m135.364 361.742v-43.442c0-15.548 4.648-30.005 12.612-42.082-20.765 13.693-34.476 37.213-34.476 63.947v43.442h315.394v-21.864h-293.53z"/><path d="m263.734 53.574h22.244v217.519h-22.244z"/></g><path d="m233.423 153.805v27.976h-27.976c-15.451 0-27.976-12.525-27.976-27.976 0-15.451 12.525-27.976 27.976-27.976 15.45.001 27.976 12.526 27.976 27.976z" fill="#b6e6fa"/><path d="m214.182 159.769c-14.892 0-27.061-11.637-27.922-26.313-5.408 5.101-8.789 12.328-8.789 20.349 0 15.451 12.525 27.976 27.976 27.976h27.976v-22.012z" fill="#8ad8f6"/><path d="m158.988 194.138 19.782 19.782-19.782 19.782c-10.925 10.925-28.639 10.925-39.564 0-10.925-10.925-10.925-28.639 0-39.564 10.925-10.925 28.639-10.925 39.564 0z" fill="#b6e6fa"/><path d="m135.298 217.829c-8.102-8.102-10.189-19.934-6.275-29.965-3.496 1.364-6.775 3.451-9.598 6.275-10.925 10.925-10.925 28.639 0 39.564 10.925 10.925 28.639 10.925 39.564 0l15.874-15.874c-10.927 10.925-28.64 10.925-39.565 0z" fill="#8ad8f6"/><g fill="#b6e6fa"><path d="m458.871 150.914v23.085h23.085c12.749 0 23.085-10.335 23.085-23.085 0-12.749-10.335-23.085-23.085-23.085-12.75.001-23.085 10.336-23.085 23.085z"/><path d="m481.956 203.915h-23.085v23.085c0 12.749 10.335 23.085 23.085 23.085 12.749 0 23.085-10.335 23.085-23.085-.001-12.749-10.336-23.085-23.085-23.085z"/></g></g></g><g><path d="m436.39 250.883v-250.883h-15v46.072h-120.412v-46.072h-15v46.072h-29.744v98.226h-16.613c-4.164-14.961-17.902-25.975-34.173-25.975s-30.009 11.014-34.174 25.975h-42.772c-51.707-.438-71.758 69.014-28.883 96.486-58.957 18.56-99.614 74.859-99.614 139.466-.696 71.313 65.121 132.96 135.907 131.723h210.393v-15.053h-210.38c-65.198-.05-119.427-52.628-120.886-117.009-1.663-68.132 51.127-130.45 119.077-130.45 13.384 0 21.932-2.036 30.179-10.469l25.083-25.084-25.083-25.084h-.001c-13.832-13.831-36.338-13.831-50.17 0-10.345 10.346-12.95 25.544-7.818 38.335-28.84-20.574-13.719-68.226 22.198-67.863h41.898c2.651 16.958 17.357 29.974 35.048 29.974h35.475v-29.974h15.311v44.113h15v-97.309h150.156v269.988h-300.389v-35.94c0-38.077 30.979-69.055 69.057-69.055h81.174v-52.683h-15v37.684h-66.174c-46.349 0-84.057 37.707-84.057 84.054v80.937h330.387v-152.91c38.094 23.585 61.742 66.577 60.567 111.927-1.555 64.448-55.813 116.846-120.979 116.841-.028 0-14.974-.012-14.974-.012l-.012 15.043h14.883c70.877 1.46 136.776-60.125 136.12-131.513 0-54.094-28.639-105.052-75.605-129.578zm-311.66-51.452c7.985-7.983 20.974-7.983 28.958 0l14.477 14.478-14.477 14.478c-7.985 7.983-20.974 7.983-28.957 0-7.984-7.982-7.984-20.973-.001-28.956zm101.194-25.158h-20.475c-11.291 0-20.476-9.185-20.476-20.475s9.185-20.475 20.476-20.475c11.29 0 20.475 9.185 20.475 20.475zm195.467 231.813h-300.388v-14.999h300.388zm-150.157-314.986v-30.028h150.156v30.028z"/><path d="m511.995 150.907c0-16.863-13.72-30.583-30.584-30.583s-30.583 13.72-30.583 30.583v30.583h30.584c16.864 0 30.583-13.72 30.583-30.583zm-46.168 0c0-8.593 6.991-15.584 15.585-15.584 8.593 0 15.584 6.991 15.584 15.584s-6.991 15.584-15.584 15.584h-15.585z"/><path d="m481.412 196.406h-30.584v30.583c0 16.863 13.72 30.583 30.584 30.583s30.583-13.72 30.583-30.583-13.719-30.583-30.583-30.583zm-.001 46.166c-8.593 0-15.584-6.991-15.584-15.584v-15.584h15.585c8.593 0 15.584 6.991 15.584 15.584s-6.992 15.584-15.585 15.584z"/><path d="m285.978 120.994h15v14.999h-15z"/><path d="m316.223 120.994h15v14.999h-15z"/></g></g><g/><g/><g/><g/><g/><g/><g/><g/><g/><g/><g/><g/><g/><g/><g/></svg>