<svg id="Layer_1" enable-background="new 0 0 512 512" viewBox="0 0 512 512" xmlns="http://www.w3.org/2000/svg"><g><g><g><circle cx="256" cy="144.113" fill="#a9baca" r="135"/><circle cx="256" cy="142.113" fill="#58565b" r="105"/><path d="m333.879 212.52c7.803-10.865 15.041-20.562 18.751-29.265-28.624-71.614-132.129-85.921-178.837-24.021-3.694-10.724-5.704-22.231-5.704-34.209 0-24.641 8.492-47.297 22.703-65.208-24.242 19.233-39.792 48.947-39.792 82.296.865 96.335 117.932 141.12 182.879 70.407z" fill="#474549"/><path d="m255.979 144.113c-45.687 0-82.724 37.037-82.724 82.723v121.901l165.447-2.066v-119.835c0-45.687-37.036-82.723-82.723-82.723z" fill="#e3994b"/><path d="m338.702 330.3v-42.135h-22.616c-3.161 7.378-10.482 11.684-18.822 11.684-8.338 0-15.658-4.306-18.82-11.684h-44.907c-3.174 7.379-10.497 11.684-18.833 11.684-8.246 0-15.49-4.441-18.707-11.684v-72.971c0-29.826 15.791-55.958 39.463-70.513-35.76 9.127-62.204 41.551-62.204 80.154v105.465z" fill="#c38340"/><path d="m8.583 288.362c0 2.446.45 4.872 1.331 7.154 6.127 15.873 21.573 27.141 39.668 27.141 20.006 0 36.774-13.774 41.272-32.312 4.517 18.541 21.284 32.312 41.288 32.312 20.006 0 36.774-13.774 41.289-32.317 4.5 18.545 21.266 32.317 41.271 32.317 20.006 0 36.774-13.774 41.289-32.317 4.5 18.545 21.266 32.317 41.271 32.317 20.006 0 36.774-13.774 41.272-32.312 4.517 18.541 21.284 32.312 41.288 32.312 20.006 0 36.774-13.774 41.289-32.317 4.5 18.545 21.266 32.317 41.271 32.317 18.095 0 34.541-11.268 40.668-27.141.881-2.281 1.331-4.708 1.331-7.154v102.766h-495.798z" fill="#b6e6fa"/><path d="m482.191 348.229c-3.185 7.167-11.358 12.447-19.806 12.447-8.338 0-15.658-5.069-18.82-12.447h-44.907c-3.174 7.379-10.498 12.447-18.833 12.447s-15.659-5.069-18.833-12.447h-44.905c-3.161 7.378-10.482 12.447-18.822 12.447-8.338 0-15.658-5.069-18.82-12.447h-44.907c-3.174 7.379-10.497 12.447-18.833 12.447-8.338 0-15.658-5.069-18.82-12.447h-44.907c-3.174 7.379-10.498 12.447-18.834 12.447-8.335 0-15.659-5.069-18.834-12.447h-44.906c-3.161 7.378-10.482 12.447-18.822 12.447-8.152 0-15.573-5.065-18.786-12.447v-29.927c-9.529-4.688-17.039-12.831-20.882-22.787-.881-2.281-1.331-4.708-1.331-7.153v102.766h495.8v-42.899z" fill="#8ad8f6"/><path d="m8.583 349.382c0 2.445.45 4.872 1.331 7.154 6.127 15.873 21.573 27.141 39.668 27.141 20.006 0 36.774-13.774 41.272-32.312 4.517 18.541 21.284 32.312 41.288 32.312 20.006 0 36.774-13.774 41.289-32.317 4.5 18.545 21.266 32.317 41.271 32.317 20.006 0 36.774-13.774 41.289-32.317 4.5 18.545 21.266 32.317 41.271 32.317 20.006 0 36.774-13.774 41.272-32.312 4.517 18.541 21.284 32.312 41.288 32.312 20.006 0 36.774-13.774 41.289-32.317 4.5 18.545 21.266 32.317 41.271 32.317 18.095 0 34.541-11.268 40.668-27.141.881-2.281 1.331-4.708 1.331-7.154v102.766h-495.798z" fill="#54c9f3"/><path d="m482.191 408.292c-3.185 7.167-11.358 12.404-19.806 12.404-8.338 0-15.658-5.026-18.82-12.404h-44.907c-3.174 7.379-10.498 12.404-18.833 12.404s-15.659-5.026-18.833-12.404h-44.905c-3.161 7.378-10.482 12.404-18.822 12.404-8.338 0-15.658-5.026-18.82-12.404h-44.907c-3.174 7.379-10.497 12.404-18.833 12.404-8.338 0-15.658-5.026-18.82-12.404h-44.907c-3.174 7.379-10.498 12.404-18.834 12.404-8.335 0-15.659-5.026-18.834-12.404h-44.906c-3.161 7.378-10.482 12.404-18.822 12.404-8.152 0-15.573-5.022-18.786-12.404v-29.97c-9.529-4.688-17.039-12.831-20.882-22.787-.881-2.281-1.331-4.708-1.331-7.153v102.766h495.8v-42.856z" fill="#00adeb"/><path d="m8.583 409.401c0 2.445.45 4.872 1.331 7.154 6.127 15.873 21.573 27.141 39.668 27.141 20.006 0 36.774-13.774 41.272-32.312 4.517 18.541 21.284 32.312 41.288 32.312 20.006 0 36.774-13.774 41.289-32.317 4.5 18.545 21.266 32.317 41.271 32.317 20.006 0 36.774-13.774 41.289-32.317 4.5 18.545 21.266 32.317 41.271 32.317 20.006 0 36.774-13.774 41.272-32.312 4.517 18.541 21.284 32.312 41.288 32.312 20.006 0 36.774-13.774 41.289-32.317 4.5 18.545 21.266 32.317 41.271 32.317 18.095 0 34.541-11.268 40.668-27.141.881-2.281 1.331-4.708 1.331-7.154v94.129h-495.798z" fill="#009de6"/><path d="m30.796 481v-41.478c-9.71-4.657-16.988-12.88-20.882-22.968-.881-2.281-1.331-4.708-1.331-7.154v95.129h495.8v-23.529z" fill="#0089cb"/><g><path d="m31.16 466h15v15h-15z" fill="#fff"/></g><g><path d="m60.776 466h15v15h-15z" fill="#fff"/></g><circle cx="226.255" cy="211.262" fill="#00a666" r="15"/><circle cx="286" cy="256.006" fill="#dd2d00" r="15"/></g></g><g><path d="m496.994 287.956c-2.073 15.698-18.695 26.742-34.512 26.814-16.216 0-30.196-10.94-33.996-26.605l-14.581-.006c-3.814 15.668-17.802 26.611-34.016 26.611-15.715 0-29.338-10.281-33.635-25.18v-36.592c33.296-27.229 52.318-67.25 52.318-110.396.001-78.631-63.95-142.602-142.555-142.602s-142.556 63.971-142.556 142.603c0 43.124 19.007 83.133 52.276 110.361v36.66c-4.306 14.882-17.922 25.147-33.626 25.147-16.211 0-30.199-10.941-34.015-26.607l-14.581.007c-3.799 15.662-17.779 26.6-33.997 26.6-15.813-.069-32.443-11.118-34.512-26.814h-15.006v224.043h413.579v-15.011h-398.573v-60.166c9.228 8.207 21.492 13.083 34.512 13.083 16.958 0 32.207-8.389 41.295-21.679 9.097 13.29 24.348 21.679 41.298 21.679 16.952 0 32.204-8.389 41.3-21.681 9.088 13.29 24.337 21.681 41.293 21.681 16.951 0 32.203-8.391 41.299-21.68 9.088 13.289 24.337 21.68 41.294 21.68s32.206-8.39 41.295-21.679c9.097 13.29 24.347 21.679 41.298 21.679s32.204-8.391 41.3-21.68c9.088 13.289 24.337 21.68 41.293 21.68 13.02 0 25.284-4.876 34.512-13.083v60.166h-68.41v15.011h83.415v-224.044zm-316.251-62.57c0-41.508 33.758-75.278 75.253-75.278 41.494 0 75.253 33.769 75.253 75.278v62.954c-3.859 15.57-17.794 26.431-33.952 26.431-16.217 0-30.196-10.94-33.996-26.605l-14.581-.006c-3.814 15.668-17.802 26.611-34.015 26.611-16.171 0-30.115-10.88-33.961-26.474v-62.911zm-52.276-82.783c0-70.354 57.219-127.592 127.55-127.592s127.55 57.237 127.55 127.592c0 34.288-13.434 66.366-37.312 90.184.053-6.905.069-14.788-1.1-21.482 15.107-19.607 23.407-43.856 23.407-68.702 0-62.077-50.487-112.581-112.544-112.581-16.876 0-33.105 3.646-48.238 10.838l6.439 13.559c13.105-6.228 27.168-9.386 41.799-9.386 53.783 0 97.538 43.77 97.538 97.57 0 17.524-4.772 34.7-13.596 49.649-13.234-33.441-45.882-57.154-83.963-57.154-38.065 0-70.701 23.695-83.946 57.113-8.81-14.939-13.571-32.094-13.571-49.608 0-31.879 15.628-61.817 41.803-80.083l-8.585-12.312c-30.196 21.072-48.224 55.611-48.224 92.395 0 24.836 8.282 49.058 23.371 68.662-1.172 6.685-1.161 14.583-1.107 21.479-23.852-23.816-37.271-55.878-37.271-90.141zm334.015 292.293c-16.216 0-30.196-10.94-33.996-26.604l-14.581-.006c-3.814 15.668-17.802 26.61-34.016 26.61-16.212 0-30.199-10.941-34.015-26.607l-14.581.007c-3.799 15.662-17.779 26.6-33.997 26.6-16.217 0-30.196-10.94-33.996-26.604l-14.581-.006c-3.814 15.668-17.802 26.61-34.015 26.61-16.216 0-30.196-10.94-33.996-26.604l-14.581-.006c-3.814 15.668-17.802 26.61-34.016 26.61-16.212 0-30.199-10.941-34.015-26.607l-14.581.007c-3.799 15.662-17.779 26.6-33.997 26.6-15.813-.069-32.443-11.118-34.512-26.813v-31.323c9.228 8.207 21.492 13.084 34.512 13.084 16.958 0 32.207-8.389 41.295-21.679 9.097 13.29 24.348 21.679 41.298 21.679 16.952 0 32.204-8.389 41.3-21.681 9.088 13.29 24.337 21.681 41.293 21.681 16.951 0 32.203-8.391 41.299-21.68 9.088 13.289 24.337 21.68 41.294 21.68s32.206-8.39 41.295-21.679c9.097 13.29 24.347 21.679 41.298 21.679s32.204-8.391 41.3-21.68c9.088 13.289 24.337 21.68 41.293 21.68 13.02 0 25.284-4.876 34.512-13.083v31.322c-.001 10.434-14.548 26.813-34.513 26.813zm0-60.063c-16.216 0-30.196-10.94-33.996-26.604l-14.581-.006c-3.814 15.668-17.802 26.61-34.016 26.61-16.212 0-30.199-10.941-34.015-26.607l-14.581.007c-3.799 15.662-17.779 26.6-33.997 26.6-16.217 0-30.196-10.94-33.996-26.604l-14.581-.006c-3.814 15.668-17.802 26.61-34.015 26.61-16.216 0-30.196-10.94-33.996-26.604l-14.581-.006c-3.814 15.668-17.802 26.61-34.016 26.61-16.212 0-30.199-10.941-34.015-26.607l-14.581.007c-3.799 15.662-17.779 26.6-33.997 26.6-15.813-.069-32.443-11.118-34.512-26.814v-31.321c9.228 8.207 21.492 13.084 34.512 13.084 16.958 0 32.207-8.389 41.295-21.679 9.097 13.29 24.348 21.679 41.298 21.679 16.952 0 32.203-8.39 41.3-21.681 9.088 13.29 24.337 21.681 41.293 21.681 16.951 0 32.203-8.391 41.299-21.681 9.088 13.29 24.337 21.681 41.294 21.681 16.958 0 32.206-8.389 41.295-21.679 9.097 13.29 24.347 21.679 41.298 21.679s32.204-8.391 41.3-21.681c9.088 13.29 24.337 21.681 41.293 21.681 13.02 0 25.284-4.876 34.512-13.084v31.321c-.001 15.094-13.272 26.814-34.513 26.814z"/><path d="m226.261 232.572c12.552 0 22.764-10.215 22.764-22.772 0-12.556-10.212-22.771-22.764-22.771s-22.764 10.215-22.764 22.771c-.001 12.556 10.211 22.772 22.764 22.772zm0-30.533c4.278 0 7.758 3.481 7.758 7.76s-3.48 7.761-7.758 7.761-7.758-3.482-7.758-7.761c-.001-4.279 3.48-7.76 7.758-7.76z"/><path d="m286.029 277.093c12.412 0 22.509-10.101 22.509-22.516s-10.097-22.516-22.509-22.516-22.509 10.101-22.509 22.516 10.097 22.516 22.509 22.516zm0-30.022c4.137 0 7.503 3.367 7.503 7.505s-3.366 7.505-7.503 7.505-7.503-3.367-7.503-7.505 3.365-7.505 7.503-7.505z"/><path d="m263.52 179.523h15.006v15.011h-15.006z"/><path d="m203.038 269.587h15.006v15.011h-15.006z"/></g></g><g/><g/><g/><g/><g/><g/><g/><g/><g/><g/><g/><g/><g/><g/><g/></svg>