<svg id="Layer_1" enable-background="new 0 0 512 512" viewBox="0 0 512 512" xmlns="http://www.w3.org/2000/svg"><g><g><g><path d="m333.418 203.781c-21.993 0-39.823-17.829-39.823-39.823v-163.958h-224.808v195.307c0 62.01 50.269 112.28 112.28 112.28 21.114 0 38.23 17.116 38.23 38.229v166.184h224.809l13.023-101.653-13.023-95.879c-.001-61.131-49.557-110.687-110.688-110.687z" fill="#54c9f3"/><path d="m241.796 496.506v-150.69c0-33.486-27.243-60.729-60.729-60.729-49.505 0-89.78-40.274-89.78-89.779v-195.308h-22.5v195.307c0 62.01 50.269 112.28 112.28 112.28 21.114 0 38.229 17.116 38.229 38.229v166.184h224.809v-15.494z" fill="#00adeb"/><path d="m180.999 307.587c-62.044 0-112.34-50.297-112.34-112.341v-187.663h-61.158v496.977h211.796v-158.676c-.001-21.151-17.147-38.297-38.298-38.297z" fill="#f7bd83"/><path d="m31.348 481.006v-473.423h-23.848v496.977h211.796v-23.553c-55.323-.001-187.948-.001-187.948-.001z" fill="#f3a451"/><path d="m331.894 202.555c62.044 0 112.34 50.297 112.34 112.341v189.664h61.158v-496.978s-211.795 0-211.796 0v156.675c0 21.152 17.146 38.298 38.298 38.298z" fill="#f7bd83"/><path d="m466.734 481.006v-166.11c0-74.352-60.489-134.841-134.84-134.841-8.711 0-15.537-7.087-15.537-15.798v-156.674c-13.829 0-22.76 0-22.761 0v156.675c0 21.151 17.146 38.297 38.298 38.297 62.044 0 112.341 50.297 112.341 112.341v189.664h61.158v-23.553h-38.659z" fill="#f3a451"/><path d="m159.356 436.006c-16.569 0-30-13.431-30-30v-30c0-16.569 13.431-30 30-30 16.569 0 30 13.431 30 30v30c0 16.569-13.432 30-30 30z" fill="#c3f839"/><path d="m151.802 406.006v-30c0-12.599 7.77-23.377 18.777-27.821-3.468-1.4-7.254-2.179-11.223-2.179-16.569 0-30 13.431-30 30v30c0 16.569 13.431 30 30 30 3.97 0 7.755-.778 11.223-2.179-11.006-4.444-18.777-15.222-18.777-27.821z" fill="#abe700"/><path d="m353.856 129.506c-16.569 0-30-13.431-30-30v-30c0-16.569 13.431-30 30-30 16.569 0 30 13.431 30 30v30c0 16.569-13.431 30-30 30z" fill="#c3f839"/><path d="m346.303 99.506v-30c0-12.599 7.77-23.377 18.777-27.821-3.468-1.4-7.254-2.179-11.223-2.179-16.569 0-30 13.431-30 30v30c0 16.569 13.431 30 30 30 3.97 0 7.755-.778 11.223-2.179-11.007-4.444-18.777-15.222-18.777-27.821z" fill="#abe700"/><path d="m47.574 317.527 21.213-21.213 21.213 21.213c11.716 11.716 11.716 30.711 0 42.426-11.716 11.716-30.711 11.716-42.426 0-11.716-11.715-11.716-30.71 0-42.426z" fill="#00ce8b"/><path d="m64.808 342.72c-11.715-11.715-11.716-30.71-.001-42.425l-17.233 17.233c-11.716 11.716-11.716 30.711 0 42.426 11.716 11.716 30.711 11.716 42.426 0 3.069-3.069 5.326-6.64 6.787-10.447-10.723 4.116-23.332 1.859-31.979-6.787z" fill="#00a666"/><path d="m422.127 122.506 21.213-21.213 21.213 21.213c11.716 11.716 11.716 30.711 0 42.426-11.716 11.716-30.711 11.716-42.426 0-11.716-11.715-11.716-30.71 0-42.426z" fill="#00ce8b"/><path d="m439.361 147.699c-11.715-11.715-11.716-30.71-.001-42.425l-17.233 17.233c-11.716 11.716-11.716 30.711 0 42.426 11.716 11.716 30.711 11.716 42.426 0 3.069-3.069 5.326-6.64 6.787-10.447-10.723 4.116-23.332 1.859-31.979-6.787z" fill="#00a666"/></g></g><g><path d="m286.096 0v164.735c0 25.253 20.545 45.797 45.798 45.797 57.809 0 104.84 47.031 104.84 104.841v90.634h15v-90.634c0-66.08-53.76-119.841-119.84-119.841-16.982 0-30.798-13.815-30.798-30.797v-149.016h195.904v481.34h-45.266v-75.553h-15v90.494h75.266v-512z"/><path d="m180.999 300.086c-57.809 0-104.84-47.031-104.84-104.841v-195.245h-76.159v76.006h15v-60.287h46.158v179.526c0 66.08 53.76 119.841 119.84 119.841 16.982 0 30.798 13.815 30.798 30.798v151.175c-15.061.045-60.372-.41-196.796 0v-406.053h-15v420.994h226.796v-166.116c0-25.253-20.545-45.798-45.797-45.798z"/><path d="m105.898 0h15v91.006h-15z"/><path d="m151.855 61.006h15v91h-15z"/><path d="m195.997 16.006h15v91h-15z"/><path d="m241.046 91.006h15v91h-15z"/><path d="m171.901 270.783v-15c-28.123 0-51.003-22.88-51.003-51.003h-15c0 36.394 29.609 66.003 66.003 66.003z"/><path d="m322.769 241.996v15c37.925 0 68.779 30.854 68.779 68.779h15c0-46.196-37.583-83.779-83.779-83.779z"/><path d="m391.548 421.006h15v90.994h-15z"/><path d="m346.356 375.506h15v91h-15z"/><path d="m255.974 330.506h15v91h-15z"/><path d="m301.165 405.506h15v91h-15z"/><path d="m361.356 174.506v-38.255c17.096-3.484 30-18.635 30-36.745v-30c0-20.678-16.822-37.5-37.5-37.5s-37.5 16.822-37.5 37.5v30c0 18.11 12.904 33.261 30 36.745v38.255zm-30-75v-30c0-12.406 10.093-22.5 22.5-22.5s22.5 10.094 22.5 22.5v30c0 9.777-6.271 18.114-15 21.21v-36.21h-15v36.21c-8.729-3.096-15-11.432-15-21.21z"/><path d="m166.855 481.006v-38.255c17.096-3.484 30-18.635 30-36.745v-30c0-20.678-16.822-37.5-37.5-37.5s-37.5 16.822-37.5 37.5v30c0 18.11 12.904 33.261 30 36.745v38.255zm-30-75v-30c0-12.406 10.093-22.5 22.5-22.5s22.5 10.094 22.5 22.5v30c0 9.777-6.271 18.114-15 21.21v-36.21h-15v36.21c-8.729-3.096-15-11.432-15-21.21z"/><path d="m450.84 211.006v-30.408c28.893-5.489 40.153-42.714 19.017-63.269l-26.517-26.515-26.516 26.516c-21.144 20.565-9.866 57.781 19.016 63.269v30.408h15zm-23.409-51.25c-8.773-8.772-8.773-23.047 0-31.819l15.91-15.91 15.91 15.91c11.703 11.176 6.902 32.09-8.41 37.107v-21.197h-15v21.197c-3.125-1.103-5.998-2.875-8.41-5.288z"/><path d="m76.287 405.433v-30.408c28.893-5.489 40.154-42.714 19.017-63.269l-26.517-26.516-26.516 26.516c-21.143 20.565-9.866 57.782 19.016 63.269v30.408zm-23.41-51.25c-8.773-8.772-8.773-23.047 0-31.819l15.91-15.91 15.91 15.91c11.703 11.175 6.902 32.091-8.41 37.107v-21.198h-15v21.198c-3.124-1.103-5.997-2.875-8.41-5.288z"/></g></g><g/><g/><g/><g/><g/><g/><g/><g/><g/><g/><g/><g/><g/><g/><g/></svg>