<svg id="Layer_1" enable-background="new 0 0 512 512" viewBox="0 0 512 512" xmlns="http://www.w3.org/2000/svg"><g><g><g><path d="m305.397 170.649c45.703-36.581 102.498-56.511 161.037-56.511h45.566v397.833h-345.255v-188.101l134.6-86.148v-63.83z" fill="#00ce8b"/><path d="m205.603 170.649c-45.703-36.581-102.498-56.511-161.037-56.511h-44.566v397.833h316.449v-67.159l-203.299-62.112 96.505-110.254v-98.553z" fill="#00ce8b"/><path d="m428.172 496.652v-36.976c0-29.727-11.271-58.528-32.108-79.729-21.245-21.615-49.665-33.525-79.92-33.525-.062 0-.128 0-.19 0l-124.677.149c-4.596.005-8.324-3.718-8.324-8.314 0-4.592 3.722-8.314 8.314-8.314h20.043c61.875 0 112.035-50.16 112.035-112.035v-60.391c-7.548 5-14.938 10.635-22 16.376v63.83l-25.032 16.021c-8.592 27.735-34.481 47.938-65.002 47.938h-44.566v88.899s149.358-.159 149.396-.159c18.15 0 35.217 7.061 48.064 19.887 12.876 12.854 19.967 29.953 19.967 48.147v31.516h-45.723l-21.577 6.68h-301.553v-382.514h-15.319v397.833h512v-15.319z" fill="#00a666"/><path d="m69 233.478c-16.569 0-30-13.431-30-30v-30c0-16.569 13.431-30 30-30 16.569 0 30 13.431 30 30v30c0 16.568-13.431 30-30 30z" fill="#c3f839"/><path d="m61.5 203.478v-30c0-12.599 7.717-23.377 18.723-27.821-3.468-1.4-7.254-2.179-11.223-2.179-16.569 0-30 13.431-30 30v30c0 16.569 13.431 30 30 30 3.97 0 7.755-.778 11.223-2.179-11.006-4.445-18.723-15.223-18.723-27.821z" fill="#abe700"/><path d="m392 300.971c-16.569 0-30-13.431-30-30v-30c0-16.569 13.431-30 30-30 16.569 0 30 13.431 30 30v30c0 16.569-13.431 30-30 30z" fill="#c3f839"/><path d="m384.5 270.971v-30c0-12.599 7.717-23.377 18.723-27.821-3.468-1.4-7.254-2.179-11.223-2.179-16.569 0-30 13.431-30 30v30c0 16.569 13.431 30 30 30 3.97 0 7.755-.778 11.223-2.179-11.006-4.444-18.723-15.222-18.723-27.821z" fill="#abe700"/><path d="m16.085 424.243 21.213-21.213 21.213 21.213c11.716 11.716 11.716 30.711 0 42.426-11.716 11.716-30.711 11.716-42.426 0-11.716-11.715-11.716-30.71 0-42.426z" fill="#c3f839"/><path d="m33.58 449.079c-11.715-11.715-11.977-30.352-.262-42.068l-17.233 17.233c-11.716 11.716-11.716 30.711 0 42.426 11.716 11.716 30.711 11.716 42.426 0 3.069-3.069 5.326-6.64 6.787-10.447-18.458 7.712-31.718-7.144-31.718-7.144z" fill="#abe700"/><path d="m452.568 423.243 21.213-21.213 21.213 21.213c11.716 11.716 11.716 30.711 0 42.426-11.716 11.716-30.711 11.716-42.426 0-11.716-11.715-11.716-30.71 0-42.426z" fill="#c3f839"/><path d="m470 448.297c-11.715-11.715-11.914-30.57-.199-42.286l-17.233 17.233c-11.716 11.716-11.716 30.711 0 42.426 11.716 11.716 30.711 11.716 42.426 0 3.069-3.069 5.326-6.64 6.787-10.447-18.536 7.116-31.781-6.926-31.781-6.926z" fill="#abe700"/><path d="m315.99 368.422-127.003.159c-12.413.021-22.486-10.037-22.486-22.449 0-12.399 10.051-22.45 22.449-22.45h22.361c49.725 0 90.035-40.31 90.035-90.035v-59.754h-89.723v36.527c0 13-10.538 23.538-23.538 23.538-61.992 0-112.252 50.244-112.271 112.236-.02 62.092 50.364 112.409 112.455 112.307l106.006-.124c12.241-.02 22.176 9.898 22.176 22.14v31.454h89.724v-53.515c-.003-49.782-40.403-90.116-90.185-90.034z" fill="#54c9f3"/><path d="m406.172 511.971v-14.845h-67.223v-16.61c.502-24.014-20.696-44.854-44.702-44.315h-106.017c-48.313 1.081-89.918-42.352-89.918-90 0-63.725 40.287-105.192 89.771-105.192 25.385 0 45.416-20.652 45.416-46.038v-21.079h-21.878v36.527c0 13-10.538 23.538-23.538 23.538-61.992 0-112.252 50.244-112.271 112.236-.02 62.092 50.364 112.409 112.455 112.307l106.006-.124c12.241-.02 22.176 9.898 22.176 22.14v31.454h89.723z" fill="#00adeb"/><path d="m297.767 222.793v10.854c0 37.239-30.296 67.535-67.534 67.535h-26.779c-29.6.772-44.39 22.759-44.451 44.795l7.497.155c0-12.399 10.051-22.45 22.449-22.45h22.361c49.725 0 90.035-40.31 90.035-90.035v-10.438c-1.193-.137-2.386-.275-3.578-.416z" fill="#00adeb"/><circle cx="399.002" cy="38.265" fill="#fd3501" r="30.671"/><path d="m413.994 53.945c-16.939 0-30.671-13.732-30.671-30.671 0-4.592 1.016-8.944 2.825-12.855-10.516 4.863-17.816 15.5-17.816 27.847 0 16.939 13.732 30.671 30.671 30.671 12.347 0 22.984-7.3 27.847-17.816-3.912 1.808-8.264 2.824-12.856 2.824z" fill="#dd2d00"/></g></g><g><path d="m294.673 450.813c-.017 0-.033 0-.049 0l-53.018.062.018 15 53.021-.062h.024c3.906 0 7.579 1.52 10.344 4.28 2.771 2.766 4.296 6.444 4.296 10.359v31.454h15v-31.454c0-7.926-3.089-15.375-8.698-20.975-5.598-5.588-13.033-8.664-20.938-8.664z"/><path d="m188.614 450.937c-.06 0-.116 0-.176 0-27.958 0-54.245-10.877-74.032-30.638-19.829-19.803-30.744-46.143-30.735-74.167.019-57.753 47.019-104.738 104.772-104.738 17.114 0 31.037-13.924 31.037-31.038v-29.027h14.379v29.585h15v-29.585h45.345v26.323h15v-30.22l1.239-.992c44.204-35.381 99.73-54.866 156.35-54.866h44.566v-15h-44.566c-60.014 0-118.869 20.653-165.723 58.155l-1.998 1.6h-86.425l-1.998-1.6c-46.854-37.502-105.709-58.155-165.723-58.155h-44.567v15h44.566c56.619 0 112.146 19.485 156.35 54.866l3.205 2.565v31.351c0 8.844-7.194 16.038-16.037 16.038-66.021 0-119.752 53.713-119.772 119.734-.01 32.036 12.468 62.146 35.136 84.784 22.621 22.591 52.669 35.025 84.628 35.024h.201l37.924-.044-.018-15z"/><path d="m316.505 360.858c-.055 0-.111 0-.166 0l-127.006.158c-.008 0-.017 0-.025 0-3.988 0-7.738-1.552-10.562-4.37-2.829-2.824-4.387-6.581-4.387-10.579 0-8.243 6.706-14.949 14.949-14.949h22.36c53.781 0 97.535-43.754 97.535-97.535v-10.803h-15v10.803c0 45.51-37.025 82.535-82.535 82.535h-22.36c-16.514 0-29.949 13.436-29.949 29.949 0 8.009 3.121 15.536 8.789 21.195 5.656 5.646 13.168 8.754 21.155 8.754h.052l127.006-.158h.14c22.019 0 42.723 8.565 58.31 24.126 15.619 15.594 24.222 36.337 24.222 58.408v53.515h15v-53.515c0-26.083-10.165-50.596-28.624-69.023-18.421-18.391-42.885-28.511-68.904-28.511z"/><path d="m102.144 321.793 14.449 4.025c4.121-14.788 12.604-27.796 24.532-37.615l-9.533-11.58c-14.316 11.783-24.498 27.403-29.448 45.17z"/><path d="m210.562 286.307v15c27.918 0 52.757-16.708 63.281-42.565l-13.893-5.654c-8.214 20.179-27.6 33.219-49.388 33.219z"/><path d="m181.359 391.009h60v15h-60z"/><path d="m226.359 421.136h60v15h-60z"/><path d="m369.17 465.914h15v46h-15z"/><path d="m392.359 203.413c-20.678 0-37.5 16.822-37.5 37.5v30c0 18.11 12.904 33.261 30 36.745v38.255h15v-38.255c17.096-3.484 30-18.635 30-36.745v-30c0-20.678-16.822-37.5-37.5-37.5zm22.5 67.5c0 9.777-6.271 18.114-15 21.21v-36.21h-15v36.21c-8.729-3.096-15-11.433-15-21.21v-30c0-12.406 10.094-22.5 22.5-22.5s22.5 10.094 22.5 22.5z"/><path d="m76.859 278.414v-38.255c17.096-3.484 30-18.635 30-36.745v-30c0-20.678-16.822-37.5-37.5-37.5s-37.5 16.822-37.5 37.5v30c0 18.11 12.904 33.261 30 36.745v38.255zm-30-75v-30c0-12.406 10.094-22.5 22.5-22.5s22.5 10.094 22.5 22.5v30c0 9.777-6.271 18.114-15 21.21v-36.21h-15v36.21c-8.729-3.097-15-11.434-15-21.21z"/><path d="m511.641 443.753c0-10.017-3.901-19.434-10.983-26.517l-26.517-26.516-26.517 26.516h-.001c-7.082 7.083-10.983 16.5-10.983 26.517 0 10.018 3.901 19.435 10.983 26.518 5.281 5.28 11.86 8.79 19.018 10.235v30.408h15v-30.408c7.157-1.445 13.736-4.955 19.017-10.234 7.081-7.084 10.983-16.501 10.983-26.519zm-21.591 15.911c-2.451 2.452-5.339 4.192-8.409 5.274v-21.184h-15v21.185c-3.071-1.082-5.959-2.823-8.41-5.274-8.773-8.772-8.773-23.047 0-31.819l15.91-15.91 15.909 15.91c8.773 8.771 8.773 23.045 0 31.818z"/><path d="m39.657 390.721-26.517 26.516c-7.082 7.083-10.983 16.5-10.983 26.517 0 10.018 3.901 19.435 10.983 26.518 5.281 5.28 11.86 8.789 19.017 10.235v30.408h15v-30.408c7.157-1.446 13.736-4.955 19.017-10.235 7.082-7.083 10.983-16.5 10.983-26.518 0-10.017-3.901-19.434-10.983-26.517zm15.909 68.943c-2.451 2.452-5.339 4.192-8.409 5.274v-21.184h-15v21.184c-3.07-1.082-5.958-2.822-8.409-5.274-8.773-8.772-8.773-23.047 0-31.819l15.909-15.91 15.909 15.91c8.774 8.772 8.774 23.046 0 31.819z"/><path d="m399.362 76.372c21.048 0 38.171-17.123 38.171-38.171s-17.123-38.172-38.171-38.172-38.172 17.124-38.172 38.172 17.124 38.171 38.172 38.171zm0-61.343c12.776 0 23.171 10.395 23.171 23.172 0 12.776-10.395 23.171-23.171 23.171-12.777 0-23.172-10.395-23.172-23.171 0-12.778 10.395-23.172 23.172-23.172z"/></g></g><g/><g/><g/><g/><g/><g/><g/><g/><g/><g/><g/><g/><g/><g/><g/></svg>