<svg id="Layer_1" enable-background="new 0 0 512 512" viewBox="0 0 512 512" xmlns="http://www.w3.org/2000/svg"><g><g><g><path d="m413.66 0v54.436c0 24.389-19.771 44.16-44.16 44.16h-181.33c-74.394 0-134.702 60.308-134.702 134.702 0 74.911 60.727 135.638 135.638 135.638h28.532l.157 2.816c3.207 57.37 50.664 102.248 108.123 102.248h12.613v38h90.894v-61.314c0-36.847-29.871-66.718-66.718-66.718h-33.83c-11.237 0-20.346-9.109-20.346-20.346v-26.154c0-32.82-26.606-59.426-59.426-59.426h-60c-24.712 0-44.745-20.033-44.745-44.745 0-24.712 20.033-44.745 44.745-44.745h182.202c73.589 0 133.245-59.656 133.245-133.245v-55.307z" fill="#54c9f3"/><g fill="#00adeb"><path d="m340.891 106.093h28.609c36.756 0 66.66-29.903 66.66-66.66v-39.433h-22.5v54.436c0 24.389-19.771 44.16-44.16 44.16h-28.209z"/><path d="m429.426 496h-68.266v-44.84h-35.241c-45.494 0-83.119-35.241-85.658-80.666l-1.348-24.058h-49.807c-62.385 0-113.138-50.753-113.138-113.138 0-61.868 50.333-127.205 112.202-127.205h91.062l.383-7.497h-91.445c-74.394 0-134.702 60.308-134.702 134.702 0 74.911 60.727 135.638 135.638 135.638h28.532l.157 2.816c3.207 57.37 50.663 102.248 108.123 102.248h12.614v38h90.894z"/><path d="m499.926 0v55.309c0 61.065-49.68 110.809-110.745 110.809h-200.075c-37.079 0-67.245 22.053-67.245 67.181 0 37.079 30.166 52.755 67.245 52.755v-8.01c-24.712 0-44.745-20.033-44.745-44.745 0-24.712 20.033-44.745 44.745-44.745h182.202c73.589 0 133.245-59.656 133.245-133.245v-55.309z"/></g><path d="m242.351 423.99 21.213-21.213 21.213 21.213c11.716 11.716 11.716 30.711 0 42.426-11.716 11.716-30.711 11.716-42.426 0-11.716-11.715-11.716-30.71 0-42.426z" fill="#00ce8b"/><path d="m259.585 449.182c-11.715-11.715-11.716-30.71-.001-42.425l-17.233 17.233c-11.716 11.716-11.716 30.711 0 42.426 11.716 11.716 30.711 11.716 42.426 0 3.069-3.069 5.326-6.64 6.787-10.447-10.724 4.117-23.333 1.86-31.979-6.787z" fill="#00a666"/><path d="m339.787 242.458 21.213-21.213 21.213 21.213c11.716 11.716 11.716 30.711 0 42.426-11.716 11.716-30.711 11.716-42.426 0-11.716-11.715-11.716-30.71 0-42.426z" fill="#00ce8b"/><path d="m357.021 267.651c-11.715-11.715-11.716-30.71-.001-42.425l-17.233 17.233c-11.716 11.716-11.716 30.711 0 42.426 11.716 11.716 30.711 11.716 42.426 0 3.069-3.069 5.326-6.64 6.787-10.447-10.723 4.116-23.333 1.859-31.979-6.787z" fill="#00a666"/><path d="m474.787 203.617c-16.569 0-30-13.431-30-30v-30c0-16.569 13.431-30 30-30 16.569 0 30 13.431 30 30v30c0 16.569-13.431 30-30 30z" fill="#c3f839"/><path d="m467.053 173.617v-30c0-12.599 7.951-23.377 18.957-27.821-3.468-1.4-7.254-2.179-11.223-2.179-16.569 0-30 13.431-30 30v30c0 16.569 13.431 30 30 30 3.97 0 7.755-.778 11.223-2.179-11.006-4.444-18.957-15.222-18.957-27.821z" fill="#abe700"/><path d="m451 360.956c-16.569 0-30-13.431-30-30v-30c0-16.569 13.431-30 30-30 16.569 0 30 13.431 30 30v30c0 16.569-13.431 30-30 30z" fill="#c3f839"/><path d="m443.5 330.956v-30c0-12.599 7.717-23.377 18.723-27.821-3.468-1.4-7.254-2.179-11.223-2.179-16.569 0-30 13.431-30 30v30c0 16.569 13.431 30 30 30 3.97 0 7.755-.778 11.223-2.179-11.006-4.444-18.723-15.222-18.723-27.821z" fill="#abe700"/><path d="m98.447 467c-16.569 0-30-13.431-30-30v-30c0-16.569 13.431-30 30-30 16.569 0 30 13.431 30 30v30c0 16.569-13.432 30-30 30z" fill="#c3f839"/><path d="m90.947 437v-30c0-12.599 7.717-23.377 18.723-27.821-3.468-1.4-7.254-2.179-11.223-2.179-16.569 0-30 13.431-30 30v30c0 16.569 13.431 30 30 30 3.97 0 7.755-.778 11.223-2.179-11.006-4.444-18.723-15.222-18.723-27.821z" fill="#abe700"/><path d="m37.915 97.5c-16.569 0-30-13.431-30-30v-30c0-16.569 13.431-30 30-30 16.569 0 30 13.431 30 30v30c0 16.569-13.432 30-30 30z" fill="#c3f839"/><path d="m30 67.5v-30c0-12.599 8.132-23.377 19.138-27.821-3.468-1.401-7.253-2.179-11.223-2.179-16.569 0-30 13.431-30 30v30c0 16.569 13.431 30 30 30 3.97 0 7.755-.778 11.223-2.179-11.006-4.444-19.138-15.222-19.138-27.821z" fill="#abe700"/><path d="m16.702 347.627 21.213-21.213 21.213 21.213c11.716 11.716 11.716 30.711 0 42.426-11.716 11.716-30.711 11.716-42.426 0-11.716-11.715-11.716-30.71 0-42.426z" fill="#00ce8b"/><path d="m33.936 372.82c-11.715-11.715-11.716-30.71-.001-42.425l-17.233 17.233c-11.716 11.716-11.716 30.711 0 42.426 11.716 11.716 30.711 11.716 42.426 0 3.069-3.069 5.326-6.64 6.787-10.447-10.724 4.116-23.333 1.859-31.979-6.787z" fill="#00a666"/></g></g><g><path d="m421.096 481h15v31h-15z"/><path d="m512 0h-14.947v55.5c0 18.018-3.91 35.92-11.341 52.195-23.501-7.729-49.082 10.973-48.659 35.805v19.082c-19.695 12.084-42.287 18.471-65.553 18.471h-182.936c-28.949 0-52.5 23.551-52.5 52.5s23.551 52.5 52.5 52.5h60.75c28.517 0 51.718 23.201 51.718 51.718v25.468c0 15.354 12.492 27.846 27.846 27.846h33.224c32.53 0 58.995 26.465 58.995 58.995v15.92h15v-15.92c0-40.801-33.194-73.995-73.995-73.995h-33.224c-7.083 0-12.846-5.763-12.846-12.846v-25.468c0-36.789-29.93-66.718-66.718-66.718h-60.75c-20.678 0-37.5-16.822-37.5-37.5s16.822-37.5 37.5-37.5h182.936c23.198 0 45.8-5.68 66.052-16.481 2.51 15.343 14.357 27.587 29.501 30.673v38.255h15v-38.255c17.096-3.484 29.947-18.635 29.947-36.745v-30c0-11.409-5.074-21.637-13.139-28.52 8.638-18.506 13.139-38.928 13.139-59.48zm-14.947 173.5c0 9.778-6.271 18.114-15 21.21v-36.21h-15v36.21c-8.729-3.096-15-11.432-15-21.21v-30c0-12.407 10.093-22.5 22.5-22.5s22.5 10.093 22.5 22.5z"/><path d="m296.748 462.343c7.641-14.054 4.888-32.819-6.668-44.013l-26.516-26.516-24.789 24.789c-9.722-16.683-13.436-36.171-12.647-55.55h-37.681c-70.292 0-127.479-57.187-127.479-127.479 0-70.291 57.186-127.478 127.478-127.478h112.554v-15h-112.554c-78.562 0-142.478 63.916-142.478 142.479s63.916 142.479 142.479 142.479h22.926c1.259 19.217 7.365 37.583 17.861 53.729-9.884 20.401 4.044 47.995 26.831 51.789v30.428h15v-30.429c5.39-1.092 10.581-3.377 15.155-6.85 14.215 5.195 29.616 6.827 44.813 6.397v30.882h15v-45.883h-22.34c-9.209 0-18.233-1.273-26.945-3.774zm-25.684 3.687v-21.184h-15v21.184c-15.294-4.966-20.12-25.938-8.41-37.094l15.91-15.91 15.91 15.91c11.711 11.157 6.881 32.129-8.41 37.094z"/><path d="m421.16 53.596v-53.596h-15v53.596c0 20.678-16.822 37.5-37.5 37.5h-52.66v15h52.66c28.948 0 52.5-23.552 52.5-52.5z"/><path d="m436.224 46h15v45h-15z"/><path d="m466.287 0h15v46h-15z"/><path d="m211 121.053h45v15h-45z"/><path d="m286 151.117h45v15h-45z"/><path d="m168.206 329.227c-13.006-2.812-25.104-8.19-35.957-15.985l-8.75 12.184c12.534 9.001 26.508 15.213 41.537 18.462z"/><path d="m360.883 406.245v15c16.495 0 29.915 13.42 29.915 29.915h15c0-24.766-20.149-44.915-44.915-44.915z"/><path d="m361.16 451.16h15v44.84h-15z"/><path d="m451 263.5c-20.678 0-37.5 16.822-37.5 37.5v30c0 18.11 12.904 33.261 30 36.745v38.255h15v-38.255c17.096-3.484 30-18.635 30-36.745v-30c0-20.678-16.822-37.5-37.5-37.5zm22.5 67.5c0 9.778-6.271 18.114-15 21.21v-36.21h-15v36.21c-8.729-3.096-15-11.432-15-21.21v-30c0-12.407 10.093-22.5 22.5-22.5s22.5 10.093 22.5 22.5z"/><path d="m30 104.245v38.255h15v-38.255c17.096-3.484 30-18.635 30-36.745v-30c0-20.677-16.822-37.5-37.5-37.5s-37.5 16.823-37.5 37.5v30c0 18.11 12.904 33.261 30 36.745zm-15-66.745c0-12.406 10.093-22.5 22.5-22.5s22.5 10.094 22.5 22.5v30c0 9.778-6.271 18.114-15 21.21v-36.21h-15v36.21c-8.729-3.096-15-11.432-15-21.21z"/><path d="m98.447 369.5c-9.254 0-17.73 3.377-24.278 8.953 3.431-12.724-.312-26.866-9.738-36.129l-26.516-26.517-26.517 26.517c-14.621 14.621-14.621 38.412 0 53.033 5.281 5.281 11.86 8.79 19.017 10.235v30.408h15v-30.408c6.181-1.248 11.925-4.044 16.78-8.183-.811 3.063-1.248 6.277-1.248 9.592v30c0 18.11 12.904 33.261 30 36.745v38.254h15v-38.255c17.096-3.484 30-18.635 30-36.745v-30c0-20.678-16.822-37.5-37.5-37.5zm-53.032 20.538v-21.198h-15v21.197c-15.314-5.017-20.111-25.932-8.41-37.107l15.91-15.91 15.91 15.91c11.132 10.599 9.409 30.368-8.41 37.108zm75.532 46.962c0 9.778-6.271 18.114-15 21.21v-36.21h-15v36.21c-8.729-3.096-15-11.432-15-21.21v-30c0-12.407 10.093-22.5 22.5-22.5s22.5 10.093 22.5 22.5z"/><path d="m368.5 331v-30.435c6.973-1.413 13.62-4.811 19.017-10.208 14.621-14.621 14.621-38.412 0-53.033l-26.517-26.516-26.517 26.517c-14.621 14.621-14.621 38.412 0 53.033 5.397 5.397 12.044 8.795 19.017 10.208v30.434zm-23.41-83.069 15.91-15.91 15.91 15.91c11.711 11.156 6.881 32.129-8.41 37.093v-21.184h-15v21.183c-19.691-6.523-18.926-26.501-8.41-37.092z"/></g></g><g/><g/><g/><g/><g/><g/><g/><g/><g/><g/><g/><g/><g/><g/><g/></svg>