<svg id="Layer_1" enable-background="new 0 0 512 512" viewBox="0 0 512 512" xmlns="http://www.w3.org/2000/svg"><g><g><g><circle cx="414.301" cy="256" fill="#fee95d" r="90"/><path d="m476.305 317.313c-13.438 7.984-29.127 12.574-45.892 12.574-49.706 0-90-40.294-90-90 0-20.746 7.023-39.849 18.817-55.071-21.248 16.462-34.929 42.224-34.929 71.183 0 49.706 40.294 90 90 90 24.974 0 47.563-10.18 63.867-26.607-.633-.682-1.248-1.38-1.863-2.079z" fill="#f7d700"/><path d="m441.893 207.787c-.578 0-1.15.028-1.718.068-1.43-20.691-16.844-37.534-36.86-41.139-7.677.933-32.302 4.908-52.91 25.796-25.099 25.44-25.632 57.106-25.606 63.489h117.095c13.314 0 24.107-10.793 24.107-24.107-.001-13.314-10.794-24.107-24.108-24.107z" fill="#79787d"/><path d="m340.413 239.888c0-20.746 7.023-39.849 18.817-55.071-5.949 4.609-11.304 9.948-15.932 15.881-18.083 23.628-18.523 49.592-18.5 55.304h17.056c-.945-5.229-1.441-10.613-1.441-16.114z" fill="#58565b"/><circle cx="256" cy="98.183" fill="#fee95d" r="90"/><path d="m273.426 171.757c-49.706 0-90-40.294-90-90 0-20.41 6.798-39.229 18.247-54.328-21.672 16.435-35.673 42.458-35.673 71.753 0 49.706 40.294 90 90 90 29.296 0 55.319-14 71.753-35.672-15.098 11.449-33.918 18.247-54.327 18.247z" fill="#f7d700"/><path d="m309.675 70.851c-8.282 0-16.029 2.284-22.654 6.249-7.307-14.325-22.188-24.141-39.372-24.141-24.402 0-44.184 19.782-44.184 44.184 0 3.28.368 6.471 1.046 9.547-.725-.036-1.454-.055-2.187-.055-13.24 0-25.12 5.824-33.218 15.05 10.336 38.307 45.319 66.498 86.893 66.498 49.706 0 90-40.294 90-90 0-3.001-.15-5.967-.437-8.893-8.019-11.159-21.096-18.439-35.887-18.439z" fill="#e3edf6"/><path d="m259.369 189.113c26.641-.804 52.401-14.303 68.384-35.603-46.713 37.698-123.047 13.244-139.792-43.483-7.354 2.527-13.832 6.937-18.854 12.658 10.144 39.644 49.407 68.59 90.262 66.428z" fill="#c5d9ec"/><circle cx="256" cy="414.48" fill="#fee95d" r="90"/><path d="m272.92 487.561c-49.706 0-90-40.294-90-90 0-20.539 6.885-39.467 18.467-54.614-21.509 16.446-35.387 42.367-35.387 71.533 0 49.706 40.294 90 90 90 29.166 0 55.087-13.878 71.533-35.386-15.146 11.582-34.074 18.467-54.613 18.467z" fill="#f7d700"/><circle cx="97.968" cy="255.846" fill="#fee95d" r="90"/><path d="m114.351 329.464c-49.706 0-90-40.294-90-90 0-20.677 6.977-39.721 18.7-54.918-21.335 16.458-35.082 42.272-35.082 71.301 0 49.706 40.294 90 90 90 29.029 0 54.843-13.747 71.3-35.083-15.197 11.722-34.241 18.7-54.918 18.7z" fill="#f7d700"/><path d="m150.845 279.36c-2.882 11.878-13.626 20.704-26.444 20.704s-23.56-8.824-26.444-20.707c-2.893 11.881-13.637 20.707-26.456 20.707-12.818 0-23.56-8.824-26.444-20.707-2.822 11.586-13.115 20.243-25.513 20.666 15.441 27.353 44.773 45.823 78.423 45.823 33.649 0 62.981-18.47 78.422-45.821-12.41-.409-22.718-9.069-25.544-20.665z" fill="#009de6"/><path d="m345.949 411.603c-.002-.058-.005-.116-.007-.174-3.26 1.376-6.846 2.138-10.611 2.138-12.818 0-23.561-8.824-26.455-20.704-2.882 11.878-13.626 20.704-26.444 20.704s-23.56-8.824-26.444-20.707c-2.893 11.881-13.637 20.707-26.456 20.707-12.818 0-23.56-8.824-26.444-20.707-2.893 11.881-13.637 20.707-26.456 20.707-3.752 0-7.326-.756-10.577-2.124-.002.051-.004.102-.006.152l-.004 5.658c.726 23.995 10.844 45.625 26.803 61.345h126.301c15.936-15.697 26.046-37.287 26.799-61.24v-5.755z" fill="#54c9f3"/><path d="m308.877 437.994c-2.882 11.878-13.626 20.704-26.444 20.704s-23.56-8.824-26.444-20.707c-2.893 11.881-13.637 20.707-26.456 20.707-12.818 0-23.56-8.824-26.444-20.707-2.822 11.586-13.115 20.243-25.513 20.666 15.442 27.353 44.774 45.823 78.424 45.823 33.649 0 62.981-18.47 78.422-45.821-12.411-.409-22.719-9.069-25.545-20.665z" fill="#009de6"/><path d="m114.351 329.464c-31.012 0-58.359-15.686-74.543-39.556-4.806 5.944-12.067 9.836-20.263 10.116 31.321 55.952 110.73 61.686 149.692 10.764-15.192 11.707-34.224 18.676-54.886 18.676z" fill="#0089cb"/><g fill="#00adeb"><path d="m312.101 478.598h7.049c.004-.004.008-.007.011-.011.885-.872 1.746-1.769 2.595-2.677.173-.185.347-.369.518-.555.811-.882 1.604-1.781 2.38-2.695.163-.192.323-.387.484-.58.754-.904 1.495-1.82 2.213-2.753.052-.068.107-.134.159-.202.007-.009.013-.018.02-.026-4.787 3.658-9.954 6.846-15.429 9.499z"/><path d="m233.723 478.598c-25.776-12.491-44.687-36.918-49.562-66.1-5.771 1.733-12.652 1.31-18.104-1.055-.859 25.379 8.986 49.653 26.793 67.154h40.873z"/></g><path d="m259.907 504.387c26.315-.957 51.723-14.292 67.601-35.274-38.184 31.559-102.543 20.348-128.177-21.173-4.794 6.289-13.281 10.428-21.755 10.717 16.092 29.095 49.102 47.533 82.331 45.73z" fill="#0089cb"/></g></g><g><path d="m239.369 193.54 2.483-14.784c-30.162-5.056-56.412-29.975-64.748-55.745 10.109-9.438 22.676-10.514 36.449-9.089-.949-4.855-3.227-12.595-2.985-17.515-.19-38.049 52.341-50.66 69.398-16.627l3.648 7.144s6.888-4.119 6.888-4.118c15.232-9.441 36.351-5.461 47.384 8.421 3.857 47.483-34.599 88.881-82.269 88.67v14.991c57.47.357 103.432-50.827 96.975-107.851 16.262 9.308 31.017 20.866 44.056 34.512h-19.991v14.991h44.815v-45.274h-15.005v18.86c-16.815-17.357-36.242-31.526-57.9-42.209-12.547-39.34-49.469-67.917-92.95-67.917-53.78 0-97.532 43.713-97.532 97.443-.747 46.404 35.497 89.125 81.284 96.097zm16.248-178.549c35.248 0 65.39 22.199 77.195 53.332-13.277-6.682-29.35-7.746-43.335-1.744-28.859-41.771-96.637-18.721-93.859 32.201-7.877.968-15.394 3.736-21.985 8.04-.347-3.082-.544-6.208-.544-9.377 0-45.463 37.022-82.452 82.528-82.452z"/><path d="m195.065 256.168c0-53.73-43.753-97.443-97.532-97.443-3.808 0-7.564.227-11.26.653 9.325-16.285 20.913-31.059 34.599-44.111v19.973h15.005v-44.774h-45.315v14.991h18.876c-17.452 16.877-31.682 36.389-42.393 58.149-38.893 12.819-67.045 49.465-67.045 92.562 0 53.73 43.753 97.443 97.532 97.443s97.533-43.712 97.533-97.443zm-152.158-61.73c-2.701 3.308-4.933 7.565-4.862 14.275-.188 16.566 13.756 18.239 14.005 27.5-.317 9.381-14.156 10.839-14.005 27.496h15.005c.268-9.289 14.188-10.922 14.004-27.496.181-16.584-13.745-18.217-14.005-27.5.339-9.052 15.571-12.593 14.005-29.144 8.285-3.302 17.219-5.315 26.563-5.753-4.169 4.725-10.983 8.992-10.857 20.635-.184 16.575 13.75 18.228 14.005 27.5-.315 9.375-14.16 10.849-14.005 27.496h15.005c.271-9.296 14.183-10.911 14.004-27.496.184-16.575-13.75-18.228-14.005-27.5.257-7.645 9.508-10.041 12.831-19.69 10.556 1.685 20.449 5.374 29.277 10.668-3.423 6.075-12.945 9.542-12.797 23.286-.184 16.575 13.75 18.228 14.005 27.5-.315 9.375-14.16 10.849-14.005 27.496h15.005c.271-9.296 14.183-10.911 14.004-27.496.184-16.575-13.75-18.228-14.005-27.5.201-5.998 5.937-8.767 10.005-14.339 17.138 15.12 27.977 37.21 27.977 61.795 0 13.424-3.248 26.096-8.969 37.308-6.508-2.016-11.73-7.348-13.375-14.092l-14.58.007c-2.14 8.81-10.019 14.963-19.162 14.963-9.142 0-17.022-6.155-19.162-14.966l-14.581-.006c-2.149 8.815-10.034 14.972-19.175 14.972-9.142 0-17.022-6.155-19.162-14.966l-14.581-.006c-1.641 6.733-6.851 12.061-13.345 14.086-5.718-11.21-8.964-23.88-8.964-37.3 0-24.551 10.807-46.615 27.902-61.733zm-10.733 111.988c4.809-2.1 9.056-5.252 12.433-9.21 6.423 7.517 15.966 12.13 26.449 12.13 10.484 0 20.032-4.616 26.459-12.139 6.423 7.523 15.971 12.139 26.458 12.139 10.483 0 20.026-4.612 26.449-12.128 3.383 3.965 7.638 7.12 12.458 9.22-15.104 19.554-38.772 32.183-65.349 32.183-26.581-.001-50.253-12.635-65.357-32.195z"/><path d="m255.617 317.113c-57.601-.371-103.637 51.089-96.933 108.216-16.278-9.312-31.048-20.878-44.098-34.537h19.991v-14.991h-44.816v45.272h15.005v-18.86c16.849 17.392 36.321 31.582 58.031 42.273 12.673 39.133 49.488 67.514 92.82 67.514 53.78 0 97.532-43.713 97.532-97.443s-43.753-97.444-97.532-97.444zm0 14.992c42.594 0 77.75 32.407 82.076 73.838-9.932 1.483-19.602-5.05-21.891-14.765l-14.58.007c-2.14 8.81-10.019 14.964-19.162 14.964-9.142 0-17.021-6.155-19.162-14.966l-14.581-.006c-2.149 8.815-10.034 14.972-19.175 14.972-9.142 0-17.021-6.155-19.162-14.966l-14.581-.006c-2.286 9.705-11.935 16.234-21.859 14.771 4.324-41.433 39.481-73.843 82.077-73.843zm-82.25 88.91c11.267.996 22.374-3.792 29.318-12.014 6.424 7.523 15.971 12.139 26.458 12.139 10.484 0 20.033-4.616 26.459-12.139 6.424 7.523 15.971 12.139 26.458 12.139 10.488 0 20.035-4.615 26.458-12.138 6.95 8.23 18.077 13.019 29.35 12.011-.821 10.528-3.61 20.511-8.031 29.566-6.84-1.819-12.302-7.191-14.035-14.296l-14.58.007c-2.14 8.81-10.019 14.964-19.162 14.964-9.142 0-17.021-6.155-19.162-14.966l-14.581-.006c-2.149 8.815-10.034 14.972-19.175 14.972-9.142 0-17.021-6.155-19.162-14.966l-14.581-.006c-1.73 7.096-7.179 12.463-14.006 14.289-4.418-9.053-7.206-19.032-8.026-29.556zm82.25 75.994c-27.095 0-51.178-13.116-66.233-33.323 5.152-2.091 9.713-5.381 13.301-9.58 6.424 7.523 15.971 12.139 26.458 12.139 10.484 0 20.033-4.616 26.459-12.139 6.424 7.523 15.971 12.139 26.458 12.139 10.488 0 20.035-4.615 26.458-12.138 3.594 4.206 8.164 7.5 13.326 9.59-15.057 20.201-39.137 33.312-66.227 33.312z"/><path d="m498.496 305.666c8.834-14.94 13.504-32.056 13.504-49.498 0-53.73-43.753-97.443-97.532-97.443s-97.532 43.713-97.532 97.443c-.362 57.427 50.909 103.364 107.977 96.88-9.317 16.251-20.887 30.996-34.549 44.025v-19.973h-15.005v44.775h45.314v-14.991h-18.876c17.382-16.809 31.569-36.23 42.264-57.883 16.431-5.235 31.377-14.777 43.102-27.865l-11.18-9.998c-15.648 17.465-38.068 27.483-61.513 27.483-42.975 0-78.365-32.993-82.171-74.954h20.855v15.554h15.005v-15.554h15.004v15.554h15.005v-15.554h15.004v15.554h15.005v-15.554h13.398c38.794-.694 42.829-56.299 4.875-62.802-1.872-9.401-6.253-17.915-12.451-24.795 36.108 8.789 62.999 41.357 62.999 80.099 0 14.762-3.948 29.241-11.418 41.873zm-40.312-73.589c0 9.152-7.452 16.598-16.612 16.598 0 0-95.596 0-109.275 0 3.454-38.104 32.955-68.797 70.53-74.122 19.734 4.141 30.6 21.89 30.059 41.504.793-.067 8.082-.569 8.686-.576 9.16-.001 16.612 7.444 16.612 16.596z"/><path d="m398.164 294.064h15.005v14.991h-15.005z"/><path d="m368.154 294.064h15.005v14.991h-15.005z"/></g></g><g/><g/><g/><g/><g/><g/><g/><g/><g/><g/><g/><g/><g/><g/><g/></svg>