<svg id="Layer_1" enable-background="new 0 0 512 512" viewBox="0 0 512 512" xmlns="http://www.w3.org/2000/svg"><g><g><g><path d="m379.824 260.745c-20.005 0-36.771-13.772-41.288-32.313-4.499 18.539-21.266 32.313-41.272 32.313-20.005 0-36.771-13.772-41.271-32.317-4.516 18.543-21.283 32.317-41.29 32.317-20.005 0-36.771-13.772-41.271-32.317-4.516 18.543-21.283 32.317-41.289 32.317-20.005 0-36.771-13.772-41.288-32.313-4.499 18.539-21.266 32.313-41.272 32.313-20.027-.037-39.636-14.689-41.506-34.295v278.03h394.416v-250.258c-6.56 4.132-14.333 6.523-22.669 6.523z" fill="#54c9f3"/><g><path d="m31.627 504.48v-247.71c-12.478-5.642-22.262-16.802-23.551-30.32v278.03h394.416z" fill="#00adeb"/></g><path d="m496 53.188-21.787 15.628-20.475 112.186-77.738 112.592h128.383v-240.406z" fill="#c3f839"/><path d="m418.153 271.186 56.053-81.184 23.808-130.45-2.014-6.364-21.787 15.628-20.475 112.186-77.738 112.592h128.383v-22.408z" fill="#abe700"/><path d="m376 293.594-105 22.408-30 55.744-89 41.841h352.383v-119.993z" fill="#f7bd83"/><path d="m255.669 391.017 43.608-81.05-28.277 6.035-30 55.744-89 41.841h352.383v-22.57z" fill="#f3a451"/><path d="m152 413.587-143.924 30.159v60.734h496.307v-90.893z" fill="#e3994b"/><path d="m31.627 481.138v-42.326l-23.551 4.934v60.734h496.307v-23.342z" fill="#c38340"/><path d="m124.823 50.259c-.578 0-1.149.028-1.717.068-1.615-23.37-21.081-41.827-44.861-41.827-20.092-.028-37.503 13.331-43.116 32.157-15.337.709-27.554 13.364-27.554 28.876 0 15.967 12.944 28.91 28.91 28.91h88.337c13.306 0 24.092-10.786 24.092-24.092s-10.785-24.092-24.091-24.092z" fill="#e3e9ee"/><path d="m38.928 75.943c-7.751 0-14.034-6.283-14.034-14.034 0-7.586 6.121-14.775 13.703-15.004h13.712l3.15-10.539c3.073-13.641 12.893-20.462 22.756-20.462.002 0 5.414-2.554 12.16-5.737-3.86-1.08-7.925-1.667-12.13-1.667-20.092-.028-37.503 13.331-43.116 32.157-15.337.709-27.554 13.364-27.554 28.876 0 15.967 12.944 28.91 28.91 28.91h88.337c12.77 0 23.213-9.938 24.034-22.5z" fill="#c6d2db"/><path d="m340.131 125.625c-.578 0-1.149.028-1.717.068-1.615-23.37-21.081-41.827-44.861-41.827-20.092-.027-37.503 13.331-43.116 32.157-15.337.709-27.554 13.364-27.554 28.876 0 15.967 12.944 28.91 28.91 28.91h88.337c13.306 0 24.092-10.786 24.092-24.092.001-13.306-10.785-24.092-24.091-24.092z" fill="#e3e9ee"/><path d="m254.236 151.309c-7.751 0-14.034-6.283-14.034-14.034 0-7.586 6.121-13.772 13.703-14.001h13.712l3.15-11.542c3.073-13.641 12.893-20.462 22.756-20.462.002 0 5.414-2.554 12.16-5.737-3.86-1.08-7.926-1.667-12.13-1.667-20.092-.027-37.503 13.331-43.116 32.157-15.337.709-27.554 13.365-27.554 28.876 0 15.967 12.944 28.91 28.91 28.91h88.337c12.77 0 23.213-9.938 24.034-22.5z" fill="#c6d2db"/><g><path d="m31.627 286.002h15v15h-15z" fill="#fff"/></g><g><path d="m61.627 286.002h15v15h-15z" fill="#fff"/></g></g></g><g><path d="m493.717 45.69-26.194 18.8-20.718 113.585-48.199 69.855c-5.556 3.482-11.98 5.325-18.585 5.325-16.196 0-30.169-10.934-33.982-26.589l-14.566.007c-3.796 15.651-17.761 26.582-33.963 26.582-16.2 0-30.167-10.933-33.963-26.586l-14.566-.006c-3.81 15.657-17.784 26.592-33.982 26.592-16.2 0-30.166-10.933-33.962-26.586l-14.567-.006c-3.811 15.657-17.785 26.592-33.982 26.592-16.196 0-30.169-10.934-33.982-26.589l-14.566.007c-3.795 15.651-17.761 26.582-33.949 26.582-17.03-.031-33.615-11.703-35.032-26.582h-14.959v104.342h14.991v-75.71c8.972 7.947 22.089 12.927 34.985 12.951 16.942 0 32.175-8.383 41.254-21.664 9.088 13.281 24.324 21.664 41.258 21.664 16.936 0 32.172-8.383 41.259-21.666 9.079 13.281 24.313 21.666 41.252 21.666 16.934 0 32.171-8.385 41.258-21.665 9.08 13.28 24.314 21.665 41.253 21.665 16.94 0 32.175-8.384 41.254-21.664 9.816 14.555 27.737 23.267 45.975 21.436l-13.017 18.865-105.417 22.511-30.461 56.638-84.319 40.061h-.192v.091l-136.342 28.399v-88.578h-14.991v165.985h436.163v-15.001h-421.172v-45.735h211.297v-15.001h-144.341l72.956-15.161h342.106v45.034h-210.757v15.001h210.757v15.862h-45.855v15.001h60.846v-466.31zm-32.743 138.253 20.209-110.796 15.826-11.359v224.318h-106.527zm-274.499 222.159 60.24-28.621 29.503-54.857 100.771-21.518h120.02v104.996z"/><path d="m36.812 104.947h88.285c38.769-.705 42.744-56.325 4.866-62.811-4.834-24.103-26.246-42.136-51.406-42.136-21.326-.03-40.656 13.221-48.616 32.773-16.914 3.214-29.517 18.033-29.517 35.763 0 20.077 16.323 36.411 36.388 36.411zm-1.01-57.796 5.316-.246c3.583-17.924 18.822-32.099 37.428-31.905 19.598 0 36.007 15.306 37.356 34.845v6.965h8.004c22.621-.947 23.815 32.444 1.189 33.136h-88.283c-11.799 0-21.397-9.605-21.397-21.411 0-11.461 8.955-20.855 20.387-21.384z"/><path d="m252.067 181.317h88.284c17.409 0 31.573-14.173 31.573-31.594 0-15.765-11.599-28.87-26.707-31.218-4.835-24.103-26.247-42.136-51.407-42.136-21.326-.03-40.655 13.221-48.615 32.773-16.914 3.214-29.517 18.033-29.517 35.763 0 20.077 16.324 36.412 36.389 36.412zm-1.01-57.798 5.316-.246c3.582-17.924 18.823-32.099 37.428-31.905 19.598 0 36.007 15.306 37.357 34.846v6.964l9.194-.049c9.143 0 16.582 7.444 16.582 16.592 0 9.15-7.439 16.593-16.582 16.593h-88.284c-11.799 0-21.398-9.606-21.398-21.412-.001-11.46 8.955-20.854 20.387-21.383z"/><path d="m286.305 346.015h14.991v15.001h-14.991z"/><path d="m316.339 376.016h14.991v15.001h-14.991z"/><path d="m346.327 346.015h14.991v15.001h-14.991z"/><path d="m376.278 376.016h14.991v15.001h-14.991z"/><path d="m406.265 346.015h14.991v15.001h-14.991z"/><path d="m436.215 376.016h14.991v15.001h-14.991z"/><path d="m436.215 316.014h14.991v15.001h-14.991z"/><path d="m376.278 316.014h14.991v15.001h-14.991z"/><path d="m466.203 346.015h14.991v15.001h-14.991z"/><path d="m256.5 466.137h14.762v15.001h-14.762z"/></g></g><g/><g/><g/><g/><g/><g/><g/><g/><g/><g/><g/><g/><g/><g/><g/></svg>