<svg id="Layer_1" enable-background="new 0 0 512 512" viewBox="0 0 512 512" xmlns="http://www.w3.org/2000/svg"><g><g><g><path d="m91 38.534h45.003v466.489h-45.003z" fill="#e3994b"/><path d="m113.354 482.669v-444.135h-22.354v466.489h45.003v-22.354z" fill="#c38340"/><path d="m376 38.534h45.003v466.489h-45.003z" fill="#e3994b"/><path d="m398.354 482.669v-444.135h-22.354v466.489h45.003v-22.354z" fill="#c38340"/><path d="m76 7.986h360v30h-360z" fill="#474549"/><path d="m196 353.571h120v75.476h-120z" fill="#c6d2db"/><path d="m217.878 407.169v-53.598h-21.878v75.476h120v-21.878z" fill="#a9baca"/><path d="m316 353.571h60v75.476h-60z" fill="#e3e9ee"/><path d="m337.878 407.169v-53.598h-21.878v75.476h60v-21.878z" fill="#c6d2db"/><path d="m135.997 353.571h60v75.476h-60z" fill="#e3e9ee"/><path d="m158.497 407.169v-53.598h-22.5v75.476h60v-21.878z" fill="#c6d2db"/><path d="m136.003 429.048h120v75.476h-120z" fill="#c6d2db"/><path d="m158.497 482.646v-53.598h-22.494v75.476h120v-21.878z" fill="#a9baca"/><path d="m256 429.048h120v75.476h-120z" fill="#e3e9ee"/><path d="m278.476 482.646v-53.598h-22.476v75.476h120v-21.878z" fill="#c6d2db"/><path d="m218.489 188.48 7.49 75.043h60.021l7.5-75.043z" fill="#009de6"/><path d="m246.511 241.045-5.246-52.565h-22.776l7.49 75.043h60.021l2.247-22.478z" fill="#0089cb"/><path d="m121 323.571h270v30h-270z" fill="#474549"/><path d="m166 83.534h180v30h-180z" fill="#c38340"/></g></g><g><path d="m512 173.502v-15h-53.5v-67.468h-30v-45h15v-46.034h-375v46.034h15v104.968h15v-104.968h30v270.037h-15v45h15v135.952h-30v-331.021h-15v331.021h-83.5v14.977h308.5v-14.977h-45v-60.987h105v60.987h-45v14.977h188.5v-14.977h-83.5v-390.989h15v67.468zm-428.5-158.564h345v16.096h-345zm285 31.096v45h-15v-15h-195v15h-15v-45zm-195 60v-15h15v15zm30-15h15v15h-15zm30 0h15v15h-15zm30 0h15v15h-15zm30 0h15v15h-15zm30 0h15v15h-15zm-180 15h15v15h90v30.917c-12.925 3.339-22.5 15.098-22.5 29.051v.021h-22.489v15h8.194l7.485 75h73.599l7.496-75h8.216v-15h-22.501v-.021c0-13.953-9.575-25.712-22.5-29.051v-30.917h90v-15h15v210.037h-225zm127.5 74.989h-30v-.021c0-8.271 6.729-15 15-15s15 6.729 15 15zm14.209 15-5.997 60h-46.444l-5.988-60zm-156.709 135.048h255v15h-255zm180 30v59.965h-105v-59.965zm-120 0v59.965h-45v-59.965zm60 135.952h-105v-60.987h105zm75-75.987v-59.965h45v59.965zm60 75.987v-135.952h15v-45h-15v-270.037h30v450.989z"/><path d="m158.497 451.002h15v15h-15z"/><path d="m188.503 451.002h15v15h-15z"/></g></g><g/><g/><g/><g/><g/><g/><g/><g/><g/><g/><g/><g/><g/><g/><g/></svg>