<svg id="Layer_1" enable-background="new 0 0 512 512" viewBox="0 0 512 512" xmlns="http://www.w3.org/2000/svg"><g><g><g><path d="m7.576 218.222h497.849v30.16h-497.849z" fill="#abe700"/><path d="m7.5 248.381h497.424v109.601h-497.424z" fill="#b6e6fa"/><path d="m7.5 248.381h23.543v109.602h-23.543z" fill="#8ad8f6"/><path d="m7.5 278.196h158.703c8.179 0 14.81 6.631 14.81 14.81v1.167c0 8.179-6.631 14.81-14.81 14.81h-45.38c-8.179 0-14.81 6.631-14.81 14.81 0 8.179 6.631 14.81 14.81 14.81h383.496v120.486h-496.819z" fill="#54c9f3"/><path d="m7.5 278.196h23.543v180.894h-23.543z" fill="#00adeb"/><path d="m7.5 383.586h391.19c8.179 0 14.81 6.631 14.81 14.81v1.167c0 8.179-6.631 14.81-14.81 14.81h-45.38c-8.179 0-14.81 6.631-14.81 14.81 0 8.179 6.631 14.81 14.81 14.81h151.009v30.073h-496.819z" fill="#009de6"/><g><path d="m31.117 450.445v-66.859h-23.617v90.481h496.819v-23.622z" fill="#0089cb"/></g><g><path d="m31.117 435.69h15v14.756h-15z" fill="#fff"/></g><g><path d="m61.245 435.69h15v14.756h-15z" fill="#fff"/></g><g fill="#c38340"><path d="m256.013 125.061c8.284 0 15-6.716 15-15v-45c0-8.284-6.716-15-15-15-8.284 0-15 6.716-15 15v45c0 8.284 6.716 15 15 15z"/><path d="m406.013 125.061c8.284 0 15-6.716 15-15v-45c0-8.284-6.716-15-15-15-8.284 0-15 6.716-15 15v45c0 8.284 6.716 15 15 15z"/><path d="m106.013 125.061c8.284 0 15-6.716 15-15v-45c0-8.284-6.716-15-15-15-8.284 0-15 6.716-15 15v45c0 8.284 6.716 15 15 15z"/></g></g></g><g><path d="m413.947 210.478c3.242-27.812 25.002-50.843 53.158-54.986l-2.184-14.84c-20.446 2.976-39.213 14.294-51.408 31.059v-40.684c8.729-3.096 15-11.433 15-21.21v-45c0-9.777-6.271-18.114-15-21.21v-13.29h-15v13.29c-8.729 3.096-15 11.433-15 21.21v45c0 9.777 6.271 18.114 15 21.21v40.684c-12.202-16.774-30.979-28.094-51.437-31.063l-2.178 14.842c28.169 4.134 49.939 27.167 53.181 54.989h-134.132c3.242-27.812 25.002-50.843 53.158-54.986l-2.184-14.84c-20.446 2.976-39.213 14.294-51.408 31.059v-40.684c8.729-3.096 15-11.433 15-21.21v-45c0-9.777-6.271-18.114-15-21.21v-13.29h-15v13.29c-8.729 3.096-15 11.433-15 21.21v45c0 9.777 6.271 18.114 15 21.21v40.684c-12.202-16.774-30.979-28.094-51.437-31.063l-2.178 14.842c28.169 4.134 49.939 27.167 53.181 54.989h-134.132c3.242-27.812 25.002-50.843 53.158-54.986l-2.184-14.84c-20.446 2.976-39.213 14.294-51.408 31.059v-40.684c8.729-3.096 15-11.433 15-21.21v-45c0-9.777-6.271-18.114-15-21.21v-13.29h-15v13.29c-8.729 3.096-15 11.433-15 21.21v45c0 9.777 6.271 18.114 15 21.21v40.684c-12.202-16.774-30.979-28.094-51.437-31.063l-2.178 14.842c28.169 4.134 49.939 27.167 53.181 54.989h-37.079v15h435.424v15.159h-481.348v-15.159h30.924v-15h-46v271.206h421v-15h-405.924v-76.646h383.408c4.145 0 7.516 3.371 7.516 7.516s-3.372 7.516-7.516 7.516h-44.968c-29.794.902-29.804 44.471 0 45.376h142.908v16.238h-60.424v15h76v-271.209zm-15.434-145.662c0-4.136 3.364-7.5 7.5-7.5s7.5 3.364 7.5 7.5v45c0 4.136-3.364 7.5-7.5 7.5s-7.5-3.364-7.5-7.5zm-150 0c0-4.136 3.364-7.5 7.5-7.5s7.5 3.364 7.5 7.5v45c0 4.136-3.364 7.5-7.5 7.5s-7.5-3.364-7.5-7.5zm-150 0c0-4.136 3.364-7.5 7.5-7.5s7.5 3.364 7.5 7.5v45c0 4.136-3.364 7.5-7.5 7.5s-7.5-3.364-7.5-7.5zm255.003 370.629c-4.274.011-7.697-3.599-7.516-7.859 0-4.145 3.372-7.517 7.516-7.517h44.968c29.673-.767 29.698-44.257 0-45.031h-383.408v-89.587h150.908c4.145 0 7.516 3.371 7.516 7.516s-3.372 7.517-7.516 7.517h-44.968c-29.795.902-29.805 44.471 0 45.375h375.408v89.587h-142.908zm142.908-104.587h-375.408c-4.275.011-7.697-3.599-7.516-7.859 0-4.145 3.372-7.516 7.516-7.516h44.968c29.672-.767 29.698-44.258 0-45.032h-150.908v-14.814h481.348z"/></g></g><g/><g/><g/><g/><g/><g/><g/><g/><g/><g/><g/><g/><g/><g/><g/></svg>