<svg id="Layer_1" enable-background="new 0 0 512.004 512.004" viewBox="0 0 512.004 512.004" xmlns="http://www.w3.org/2000/svg"><g><g><g><path d="m512.004 473.939h-512.004v-368.914l158.855-7.606 353.149 7.606z" fill="#c3f839"/><path d="m80.211 67.419c-4.871 0-9.428 1.336-13.332 3.656-4.801-15.045-18.887-25.943-35.524-25.943-13.168 0-24.721 6.84-31.355 17.147v42.747h106.355v-11.464c0-14.439-11.705-26.143-26.144-26.143z" fill="#00ce8b"/><path d="m15.097 82.776v-33.907c-6.177 3.007-11.402 7.668-15.097 13.409v42.747h106.355v-11.463c0-4.121-.957-7.319-2.656-10.787h-88.602z" fill="#00a666"/><path d="m229.856 67.419c-4.871 0-9.428 1.336-13.332 3.656-4.8-15.046-18.887-25.944-35.524-25.944-13.638 0-25.56 7.325-32.061 18.252-3.91-1.9-8.299-2.968-12.939-2.968-16.373 0-29.645 13.273-29.645 29.645v14.964h149.645v-11.462c0-14.439-11.705-26.143-26.144-26.143z" fill="#00ce8b"/><path d="m128.525 82.776v-15.885c0-1.933.191-3.822.545-5.652-13.028 3.122-22.715 14.837-22.715 28.822v14.964h149.645v-11.463c0-4.21-1.001-7.264-2.769-10.787h-124.706z" fill="#00a666"/><path d="m512.004 62.809c-6.572-10.61-18.316-17.677-31.714-17.677-13.638 0-25.56 7.325-32.061 18.252-3.91-1.9-8.299-2.968-12.939-2.968-16.373 0-29.645 13.273-29.645 29.645v14.964h106.355z" fill="#00ce8b"/><path d="m427.815 82.776v-15.885c0-1.933.191-3.822.545-5.652-13.028 3.122-22.715 14.837-22.715 28.822v14.964h106.355v-22.249z" fill="#00a666"/><path d="m379.501 67.419c-4.871 0-9.428 1.336-13.332 3.656-4.801-15.045-18.887-25.943-35.524-25.943-13.638 0-25.56 7.325-32.061 18.252-3.91-1.9-8.299-2.968-12.939-2.968-16.373 0-29.645 13.272-29.645 29.645v14.964h149.645v-11.463c0-14.439-11.705-26.143-26.144-26.143z" fill="#00ce8b"/><path d="m278.17 82.776v-15.885c0-1.933.191-3.822.545-5.652-13.028 3.121-22.715 14.837-22.715 28.822v14.964h149.645v-11.463c0-4.21-1.001-7.264-2.769-10.787h-124.706z" fill="#00a666"/><path d="m15.211 458.431v-353.406h-15.211v368.914h512.004v-15.508z" fill="#abe700"/><path d="m504.617 105.843h-166.159c-16.528 0-29.926 13.398-29.926 29.926 0 16.528 13.398 29.926 29.926 29.926h-45.793c-16.528 0-29.926 13.398-29.926 29.926 0 16.528 13.398 29.926 29.926 29.926h136.234c16.528 0 29.926-13.398 29.926-29.926 0-16.527-13.398-29.926-29.926-29.926h45.245c16.83 0 30.474-13.643 30.474-30.473v-29.379z" fill="#54c9f3"/><g><g><path d="m339.081 105.843c-16.307 0-30.09 12.785-30.537 29.085-.464 16.912 13.107 30.767 29.915 30.767v-23.522c-5.702-2.192-9.756-7.706-9.756-14.18 0-8.396 6.806-15.202 15.202-15.202h156.372v22.431c0 4.404-3.57 7.974-7.974 7.974h-63.405v22.5h45.245c16.83 0 30.474-13.644 30.474-30.474v-29.379z" fill="#00adeb"/></g><path d="m451.61 197.701c-.964 3.425-4.252 6.184-7.871 6.184h-146.425c-8.469 0-15.335-7.29-15.335-15.759s6.866-15.335 15.335-15.335h41.144v-7.096h-45.793c-16.528 0-29.926 13.398-29.926 29.926 0 16.527 13.398 29.926 29.926 29.926h136.234c15.812 0 28.751-12.266 29.842-27.8-2.375.117-4.751.119-7.131-.046z" fill="#00adeb"/></g><path d="m466 390.94h-209.553c20.728 0 37.532-16.804 37.532-37.532 0-20.728-16.804-37.532-37.532-37.532h-210.639c-20.728 0-37.532 16.804-37.532 37.532 0 20.728 16.804 37.532 37.532 37.532h119.872c-20.728 0-37.532 16.804-37.532 37.532 0 20.729 16.804 37.532 37.532 37.532h300.32c20.728 0 37.532-16.804 37.532-37.532s-16.804-37.532-37.532-37.532z" fill="#54c9f3"/><g fill="#00adeb"><path d="m496.585 432.621c-1.807 6.275-7.588 10.956-14.436 10.956h-315.67c-12.782 0-23.144-10.434-23.144-23.216 0-12.782 9.564-23.144 22.346-23.144v-6.277c-20.484 0-37.135 16.41-37.525 36.801-.402 21.041 17.222 38.263 38.267 38.263h299.577c19.47 0 35.474-14.826 37.346-33.804-2.268.176-4.52.341-6.761.421z"/><path d="m28.702 345.679c0-12.57 10.19-22.761 22.761-22.761l-5.654-7.043c-20.728 0-37.532 16.804-37.532 37.532 0 20.728 16.804 37.532 37.532 37.532h119.872v-22.5h-114.218c-12.571.001-22.761-10.189-22.761-22.76z"/><path d="m287.396 353.407c0 8.302-7.73 15.033-16.033 15.033h-14.917v22.5c20.728 0 37.532-16.804 37.532-37.532z"/></g><g fill="#c38340"><path d="m83.336 225.548c8.284 0 15-6.716 15-15v-45c0-8.284-6.716-15-15-15-8.284 0-15 6.716-15 15v45c0 8.284 6.715 15 15 15z"/><path d="m218.881 225.548c8.284 0 15-6.716 15-15v-45c0-8.284-6.716-15-15-15-8.284 0-15 6.716-15 15v45c0 8.284 6.715 15 15 15z"/></g></g></g><g><path d="m512 97.959h-98.855v-.106-7.357c0-12.211 9.934-22.146 22.145-22.146 5.449-.287 11.127 2.895 15.86 5.225 5.819-11.736 15.427-20.582 29.14-20.509 16.804.06 24.2 11.239 31.71 24.383v-26.166c-8.305-8.406-19.549-13.217-31.71-13.217-13.567 0-26.423 6.266-34.858 16.684-15.663-4.719-33.558 2.623-41.607 16.04-8.031-8.74-21.85-12.742-33.693-9.106-7.68-14.396-22.689-23.617-39.487-23.617-13.567 0-26.423 6.266-34.858 16.684-15.663-4.719-33.558 2.623-41.607 16.04-8.031-8.74-21.85-12.742-33.693-9.106-13.879-27.823-55.338-31.708-74.345-6.934-15.663-4.719-33.558 2.623-41.607 16.04-8.031-8.74-21.85-12.742-33.693-9.106-12.67-25.791-50.832-31.593-70.842-10.83v25.7l5.739-8.903c12.619-21.877 46.689-18.109 53.995 6.137 0-.001 2.868 8.986 2.868 8.986 4.974-2.841 11.561-7.844 17.609-7.423 10.28 0 18.644 8.363 18.644 18.644v3.856h-98.855v15.106h151v-15h-37.145v-.106-7.357c0-12.211 9.934-22.146 22.145-22.146 5.449-.287 11.127 2.895 15.86 5.225l3.524-5.922c12.62-21.878 46.688-18.109 53.995 6.137 0-.001 2.868 8.986 2.868 8.986 4.974-2.841 11.561-7.844 17.609-7.423 10.28 0 18.644 8.363 18.644 18.644v3.963h-82.5v15h143.158c-5.08 6.39-8.126 14.466-8.126 23.244 0 8.405 2.785 16.173 7.481 22.427h-15.848c-20.637 0-37.426 16.789-37.426 37.426s16.79 37.426 37.426 37.426h136.233c20.637 0 37.426-16.789 37.426-37.426 0-8.405-2.785-16.172-7.48-22.426h15.299c20.938 0 37.856-17.035 37.856-37.974v-37.697zm-248.5-7.464c0-12.211 9.934-22.146 22.145-22.146 5.449-.287 11.127 2.895 15.86 5.225l3.524-5.922c12.62-21.878 46.688-18.109 53.995 6.137 0-.001 2.868 8.986 2.868 8.986 4.974-2.841 11.561-7.844 17.609-7.423 10.28 0 18.644 8.363 18.644 18.644v3.856.106h-134.645zm233.617 45.161c0 12.668-10.306 22.974-22.974 22.974h-45.245v15c12.366 0 22.426 10.061 22.426 22.426s-10.06 22.426-22.426 22.426h-136.232c-12.366 0-22.426-10.061-22.426-22.426s10.06-22.426 22.426-22.426h45.793v-15c-12.366 0-22.426-10.061-22.426-22.427 0-12.365 10.06-22.426 22.426-22.426h158.659v21.879z"/><path d="m467 383.874h-15.462c3.349-13.147 15.287-22.9 29.462-22.9v-15c-22.478 0-41.183 16.424-44.77 37.9h-146.255c7.149-7.974 11.504-18.505 11.504-30.032 0-24.831-20.201-45.032-45.032-45.032h-29.236c4.341-26.53 25.567-48.151 52.761-52.153l-2.184-14.84c-20.446 2.975-39.212 14.294-51.407 31.06v-40.685c8.729-3.096 15-11.433 15-21.21v-45c0-9.777-6.271-18.114-15-21.21v-16.397h-15v16.397c-8.729 3.096-15 11.433-15 21.21v45c0 9.777 6.271 18.114 15 21.21v40.684c-12.202-16.775-30.979-28.094-51.437-31.063l-2.178 14.842c27.207 3.993 48.443 25.617 52.785 52.156h-118.886c4.341-26.53 25.568-48.151 52.761-52.153l-2.184-14.84c-20.446 2.975-39.213 14.295-51.408 31.06v-40.685c8.729-3.096 15-11.433 15-21.21v-45c0-9.777-6.271-18.114-15-21.21v-16.397h-15v16.397c-8.729 3.096-15 11.433-15 21.21v45c0 9.777 6.271 18.114 15 21.21v40.684c-12.201-16.774-30.978-28.094-51.437-31.063l-2.178 14.842c27.207 3.993 48.443 25.617 52.784 52.156h-30.194c-24.831-.002-44.809 20.2-44.809 45.031 0 24.83 19.978 45.031 44.809 45.031h87.344c-7.149 7.974-11.504 18.504-11.504 30.031 0 24.831 20.201 45.033 45.032 45.033h180.319v-15h-180.319c-16.56 0-30.032-13.473-30.032-30.033s13.472-30.031 30.032-30.031v-15h-120.872c-16.56 0-30.032-13.473-30.032-30.032s13.473-30.032 30.032-30.032h211.638c16.56 0 30.032 13.473 30.032 30.033s-13.472 30.031-30.032 30.031v15h210.553c16.56 0 30.032 13.472 30.032 30.031 0 16.561-13.472 30.033-30.032 30.033h-106v15h106c24.831 0 45-20.202 45-45.033 0-24.83-20.169-45.031-45-45.031zm-255.619-217.892c0-4.136 3.364-7.5 7.5-7.5s7.5 3.364 7.5 7.5v45c0 4.136-3.364 7.5-7.5 7.5s-7.5-3.364-7.5-7.5zm-135.546 0c0-4.136 3.364-7.5 7.5-7.5s7.5 3.364 7.5 7.5v45c0 4.136-3.364 7.5-7.5 7.5s-7.5-3.364-7.5-7.5z"/><path d="m46 338.576h74.645v15h-74.645z"/><path d="m346.355 128.757h44.645v15h-44.645z"/><path d="m376.355 188.885h44.645v15h-44.645z"/><path d="m316.68 188.885h44.645v15h-44.645z"/><path d="m136.532 338.576h44.646v15h-44.646z"/><path d="m301.089 413.64h74.645v15h-74.645z"/><path d="m391.621 413.64h44.645v15h-44.645z"/><path d="m166 428.576h44.645v15h-44.645z"/><path d="m376.4 338.374c0-25.034-20.367-45.4-45.4-45.4v15c16.763 0 30.4 13.638 30.4 30.4z"/></g></g><g/><g/><g/><g/><g/><g/><g/><g/><g/><g/><g/><g/><g/><g/><g/></svg>