<svg id="Layer_1" enable-background="new 0 0 512 512" viewBox="0 0 512 512" xmlns="http://www.w3.org/2000/svg"><g><g><g><path d="m276.908 125.625c-.578 0-1.149.028-1.717.068-1.615-23.37-21.081-41.827-44.861-41.827-20.092-.027-37.503 13.331-43.116 32.157-15.337.709-27.554 13.364-27.554 28.876 0 15.967 12.944 28.91 28.91 28.91h88.337c13.306 0 24.092-10.786 24.092-24.092.001-13.306-10.785-24.092-24.091-24.092z" fill="#e3e9ee"/><path d="m191.013 151.309c-7.751 0-14.034-6.283-14.034-14.034 0-7.586 6.121-13.503 13.703-13.732h13.712l3.15-11.811c3.073-13.641 12.893-20.462 22.756-20.462.002 0 5.414-2.554 12.16-5.737-3.86-1.08-7.926-1.667-12.13-1.667-20.092-.027-37.503 13.331-43.116 32.157-15.337.709-27.554 13.365-27.554 28.876 0 15.967 12.944 28.91 28.91 28.91h88.337c12.77 0 23.213-9.938 24.034-22.5z" fill="#c6d2db"/><path d="m124.823 50.259c-.578 0-1.149.028-1.717.068-1.615-23.37-21.081-41.827-44.861-41.827-20.092-.028-37.503 13.331-43.116 32.157-15.337.709-27.554 13.364-27.554 28.876 0 15.967 12.944 28.91 28.91 28.91h88.337c13.306 0 24.092-10.786 24.092-24.092s-10.785-24.092-24.091-24.092z" fill="#e3e9ee"/><path d="m38.928 74.943c-7.751 0-14.034-6.283-14.034-14.034 0-7.586 6.121-14.112 13.703-14.341h13.712l3.15-11.202c3.073-13.641 12.893-20.462 22.756-20.462.002 0 5.414-2.554 12.16-5.737-3.86-1.08-7.925-1.667-12.13-1.667-20.092-.028-37.503 13.331-43.116 32.157-15.337.709-27.554 13.364-27.554 28.876 0 15.967 12.944 28.91 28.91 28.91h88.337c12.77 0 23.213-9.938 24.034-22.5z" fill="#c6d2db"/><path d="m468.866 98.555c-11.339 0-21.994 5.424-28.666 14.592l-49.381 67.855h-22.597c-14.048 0-27.22 6.826-35.321 18.304l-77.082 109.223h248.5v-174.52c0-19.581-15.873-35.454-35.453-35.454z" fill="#00ce8b"/><g fill="#00a666"><path d="m359 226.001 17.712 12.405 99.808-139.014c-2.466-.542-5.025-.837-7.654-.837-11.339 0-21.994 5.424-28.666 14.592z"/><path d="m298.996 285.35 73.643-104.349h-4.417c-14.048 0-27.22 6.826-35.321 18.304l-77.082 109.223h248.5v-23.178z"/></g><path d="m7.5 308.528h496.819v193.644h-496.819z" fill="#54c9f3"/><path d="m7.5 308.528h22.596v195.855h-22.596z" fill="#00adeb"/><path d="m504.319 474.31h-383.509c-8.179 0-14.81-6.631-14.81-14.81 0-8.179 6.631-14.81 14.81-14.81h45.38c8.179 0 14.81-6.631 14.81-14.81v-1.167c0-8.179-6.631-14.81-14.81-14.81h-158.607v90.481h496.736z" fill="#009de6"/><g><path d="m30.307 481.92v-68.017h-22.724v90.48h496.736v-22.463z" fill="#0089cb"/></g><path d="m7.5 376.001v-112.127c0-16.275 13.193-29.468 29.468-29.468 5.773 0 11.419 1.696 16.237 4.877l150.38 99.293h15.339c13.626 0 26.893 4.371 37.851 12.471l29.044 21.47v3.484z" fill="#c3f839"/><path d="m31.14 352.438v-112.128c0-1.846.102-3.649.427-5.401-13.694 2.538-24.067 14.536-24.067 28.964v112.128h278.319v-3.484l-27.163-20.08h-227.516z" fill="#abe700"/></g></g><g><path d="m469.033 91.075c-13.696 0-26.683 6.61-34.742 17.683l-47.149 64.783h-18.786c-16.466 0-31.966 8.031-41.462 21.484l-29.436 41.706 12.26 8.65 29.436-41.705c6.688-9.476 17.604-15.132 29.202-15.132h8.111l-23.462 33.177 12.252 8.662 31.821-44.998 49.346-67.8c5.244-7.206 13.696-11.508 22.609-11.508 15.418 0 27.962 12.543 27.962 27.96v167.058h-226.603l29.497-41.791-12.26-8.65-35.602 50.441h-91.633l-103.026-68.018c-23.513-16.387-58.112 2.116-57.356 30.857v248.066h436.144v-15.003h-421.139v-75.498h31.01v-15.003h-31.01v-22.907h278.411v-14.769l-32.096-23.725c-12.165-8.991-27.195-13.944-42.323-13.944h-13.091l-22.798-15.051h313.875v150.817h-376.133c-4.032 0-7.312-3.28-7.312-7.311 0-4.032 3.28-7.312 7.312-7.312h45.395c29.586-.652 29.596-45.144 0-45.798h-105.225v15.003h105.225c4.544-.03 7.793 4.07 7.312 8.479 0 4.032-3.28 7.312-7.312 7.312h-45.395c-29.41.761-29.436 43.863 0 44.63h376.133v15.077h-45.834v15.003h60.839v-377.961c0-23.69-19.275-42.964-42.967-42.964zm-250.024 255.08c11.939 0 23.802 3.908 33.403 11.005l15.458 11.425h-252.853v-104.651c-.449-17.082 20.113-28.072 34.084-18.336l152.31 100.557z"/><path d="m226.087 406.495h90.03v15.003h-90.03z"/><path d="m331.121 406.495h30.01v15.003h-30.01z"/><path d="m316.116 346.155h90.03v15.003h-90.03z"/><path d="m421.151 346.155h30.01v15.003h-30.01z"/><path d="m331.121 436.706h90.03v15.003h-90.03z"/><path d="m436.156 436.706h30.01v15.003h-30.01z"/><path d="m31.14 286.067h15.005v15.003h-15.005z"/><path d="m61.277 286.067h15.005v15.003h-15.005z"/><path d="m36.11 104.623h88.366c38.79-.697 42.794-56.336 4.871-62.824-10.064-50.461-80.694-57.222-100.114-9.366-42.74 8.7-37.017 71.521 6.877 72.19zm-1.011-57.808 5.321-.246c11.014-47.98 76.564-39.233 75.371 9.859h8.685c21.864.566 21.901 32.617-.001 33.192h-88.366c-11.81 0-21.417-9.608-21.417-21.416.001-11.465 8.965-20.861 20.407-21.389z"/><path d="m188.645 181.35h88.366c38.791-.697 42.793-56.336 4.87-62.823-10.064-50.461-80.695-57.222-100.114-9.365-42.74 8.7-37.017 71.52 6.878 72.188zm-1.011-57.807h5.321c10.998-47.951 76.519-39.451 75.37 9.613h8.685c21.863.566 21.901 32.615-.001 33.191h-88.366c-11.81 0-21.418-9.607-21.418-21.415.002-11.465 8.966-20.86 20.409-21.389z"/></g></g><g/><g/><g/><g/><g/><g/><g/><g/><g/><g/><g/><g/><g/><g/><g/></svg>