<svg id="Layer_1" enable-background="new 0 0 512 512" viewBox="0 0 512 512" xmlns="http://www.w3.org/2000/svg"><g><g><g><path d="m128.105 142.202 131.564-131.564 131.564 131.564c72.661 72.661 72.661 190.467 0 263.128-72.661 72.661-190.467 72.661-263.128 0-72.661-72.66-72.661-190.467 0-263.128z" fill="#54c9f3"/><path d="m374.643 415.307c-71.865 45.177-167.889 36.502-230.453-26.062-72.661-72.661-72.661-190.467 0-263.128l-16.085 16.085c-72.661 72.661-72.661 190.467 0 263.128 68.101 68.101 175.858 72.374 248.937 12.821z" fill="#00adeb"/><g><path d="m208.851 113.939-10.607-10.607 10.606-10.606 10.607 10.607zm21.212-21.213-10.607-10.607 10.606-10.606 10.607 10.607z" fill="#fff"/></g><path d="m318.461 68.934 31.207-31.207 31.207 31.207c17.235 17.235 17.235 45.179 0 62.415-17.235 17.235-45.179 17.235-62.415 0-17.234-17.235-17.234-45.179.001-62.415z" fill="#b6e6fa"/><path d="m333.597 116.214c-17.236-17.235-17.236-45.179 0-62.415l-15.135 15.135c-17.235 17.235-17.235 45.179 0 62.415 17.235 17.235 45.179 17.235 62.415 0 2.61-2.61 4.819-5.469 6.638-8.497-16.961 10.195-39.293 7.987-53.918-6.638z" fill="#8ad8f6"/><path d="m256.524 181.001c-48.345-.329-87.024 40.175-86.855 86.855v48.145h48.145c47.969 0 86.855-38.886 86.855-86.855v-48.145z" fill="#c3f839"/><path d="m241.303 292.512h-48.145v-48.145c-.064-17.738 5.486-34.582 15.04-48.635-23.37 15.85-38.635 42.764-38.529 72.124v48.145h48.145c29.988 0 56.427-15.198 72.033-38.312-13.859 9.359-30.563 14.823-48.544 14.823z" fill="#abe700"/></g></g><g><path d="m391.01 131.336c15.291-20.237 13.732-49.24-4.702-67.675l-36.547-36.546-31.486 31.486-58.603-58.601-136.841 136.84c-36.551 36.553-56.681 85.15-56.681 136.843 0 40.394 12.292 78.899 35.108 111.243-85.831 119.121-31.279 164.097 72.464 93.313l-8.274-12.53c-117.216 74.456-105.868 4.077-54.673-68.401 36.484 44.142 91.698 70.098 148.953 69.898 45.831 0 89.93-16.097 124.919-45.752l-9.709-11.455c-70.231 59.525-176.305 55.093-241.489-10.093-4.845-4.845-9.367-9.927-13.576-15.206 15.048-20.113 33.014-40.807 52.98-60.912h44.923c52.079 0 94.448-42.37 94.448-94.448v-55.7h-55.699c-34.425 0-66.142 18.748-82.773 48.926l13.15 7.247c13.99-25.387 40.669-41.159 69.623-41.159h40.684v40.684c0 43.8-35.634 79.433-79.433 79.433h-30.067l31.02-31.02h42.863v-15.015h-27.849l35.258-35.258-10.618-10.618-35.258 35.258v-27.849h-15.015v42.863l-31.02 31.02v-30.067c0-8.399 1.302-16.663 3.869-24.564l-14.28-4.639c-3.055 9.402-4.604 19.227-4.604 29.203v45.241c-18.515 18.665-36.112 38.766-51.374 58.794-19.216-28.949-29.538-62.901-29.538-98.44 0-47.682 18.568-92.509 52.284-126.225l126.225-126.221 48.406 48.407c-14.839 20.209-13.127 48.851 5.136 67.115 10.076 10.075 23.311 15.113 36.547 15.113 10.754 0 21.508-3.327 30.567-9.978 74.05 68.186 77.368 185.797 6.252 257.329l10.673 10.561c36.204-36.59 55.942-85.096 55.942-136.585 0-93.092-62.185-141.86-62.185-141.86zm-67.178-5.198c-14.298-14.297-14.298-37.561 0-51.859l25.929-25.93 25.929 25.93c14.298 14.297 14.298 37.561 0 51.859-14.297 14.299-37.561 14.299-51.858 0z"/></g></g><g/><g/><g/><g/><g/><g/><g/><g/><g/><g/><g/><g/><g/><g/><g/></svg>