<svg id="Layer_1" enable-background="new 0 0 512 512" viewBox="0 0 512 512" xmlns="http://www.w3.org/2000/svg"><g><g><g><path d="m7.5 280.836c0 41.406 33.566 74.972 74.972 74.972h53.766c33.006 0 59.762 26.757 59.762 59.762 0 42.136 34.158 76.294 76.294 76.294h89.206c78.977 0 143-64.023 143-143 0-78.977-64.023-143-143-143h-279.028c-41.406.001-74.972 33.566-74.972 74.972z" fill="#54c9f3"/><path d="m384 469.865h-111.706c-29.938 0-54.294-24.356-54.294-54.294 0-23.783-10.214-45.22-26.477-60.174-25.88 3.588-53.382-4.485-73.127-21.588h-35.924c-29.208 0-52.972-23.763-52.972-52.972 0-45.025 23.763-69.738 52.972-69.738v-5.234c-41.406 0-74.972 33.566-74.972 74.972 0 41.406 33.566 74.972 74.972 74.972h53.766c33.006 0 59.762 26.757 59.762 59.762 0 42.136 34.158 76.294 76.294 76.294h89.206c69.58 0 127.542-49.697 140.353-115.529-12.474 53.529-60.579 93.529-117.853 93.529z" fill="#00adeb"/><g fill="#c38340"><path d="m128.562 111.135c8.284 0 15-6.716 15-15v-45c0-8.284-6.716-15-15-15-8.284 0-15 6.716-15 15v45c0 8.285 6.716 15 15 15z"/><path d="m301 406.459c8.284 0 15-6.716 15-15v-45c0-8.284-6.716-15-15-15-8.284 0-15 6.716-15 15v45c0 8.284 6.716 15 15 15z"/><path d="m444.501 406.459c8.284 0 15-6.716 15-15v-45c0-8.284-6.716-15-15-15-8.284 0-15 6.716-15 15v45c0 8.284 6.715 15 15 15z"/></g><path d="m97.526 325.891c-16.569 0-30 13.431-30 30v15h60v-15c0-16.568-13.432-30-30-30z" fill="#58565b"/><path d="m108.276 327.883c-3.338-1.282-6.961-1.992-10.75-1.992-16.569 0-30 13.431-30 30v15h21.501v-15c0-12.778 7.993-23.684 19.249-28.008z" fill="#474549"/><path d="m37.5 414.971c-16.569 0-30 13.431-30 30v15h60v-15c0-16.569-13.431-30-30-30z" fill="#58565b"/><path d="m48.25 416.963c-3.338-1.282-6.961-1.992-10.75-1.992-16.569 0-30 13.431-30 30v15h21.501v-15c0-12.779 7.993-23.684 19.249-28.008z" fill="#474549"/><path d="m150.026 337.141c-12.426 0-22.5 10.074-22.5 22.5v11.25h45v-11.25c0-12.426-10.074-22.5-22.5-22.5z" fill="#474549"/><path d="m383.302 145.896h-82.302v-45.032c0-16.533-13.403-29.936-29.936-29.936s-29.936 13.403-29.936 29.936v59.524c0 49.555 39.637 90.631 89.191 90.998 49.948.37 90.553-40.008 90.553-89.87l.008-53.206c.004 20.758-16.821 37.586-37.578 37.586z" fill="#fee95d"/><g><path d="m352.532 240.919c-49.554-.367-89.032-41.443-89.032-90.998v-59.525c0-7.43 2.553-14.221 7.034-19.455-16.288.284-29.406 13.567-29.406 29.923v59.524c0 49.555 39.637 90.631 89.191 90.998 18.343.136 35.422-5.229 49.697-14.536-8.672 2.707-17.905 4.14-27.484 4.069z" fill="#f7d700"/></g><g><path d="m76.16 228.311h15v15h-15z" fill="#fff"/></g><g><path d="m106.287 228.311h15v15h-15z" fill="#fff"/></g></g></g><g><path d="m263.5 93.311h15v15h-15z"/><path d="m491.191 425.139c13.213-22.381 20.809-48.455 20.809-76.274 0-32.573-10.236-63.573-29.604-89.649-17.065-22.977-39.803-40.3-66.149-50.559 7.913-14.259 12.125-30.368 12.125-47.138l.008-53.206s0-.001 0-.002h-15c.339 16.169-13.907 30.421-30.077 30.086h-22.303v15h22.303c11.21 0 21.794-4.063 30.072-11.495l-.003 19.616c0 44.512-37.223 82.37-82.997 82.37-45.077 0-81.748-37.79-81.748-83.498v-59.524c0-12.371 10.065-22.436 22.436-22.436s22.437 10.064 22.437 22.435v61.298c0 28.233 22.969 51.202 51.202 51.202h31.298v-15h-31.298c-12.041 0-22.72-5.914-29.305-14.984h60.603v-15h-66.955c-.809-3.821-.488-11.007-.545-14.984h37.5v-15h-37.5v-37.532c0-20.642-16.794-37.436-37.437-37.436-20.642 0-37.436 16.794-37.436 37.436v7.755h-22.627v15h22.627v36.769c0 13.439 2.694 26.273 7.564 37.976h-104.872c2.59-28.512 24.649-52.333 53.334-56.555l-2.184-14.84c-20.446 2.975-39.213 14.294-51.408 31.06v-40.685c8.73-3.096 15-11.432 15-21.21v-45c0-9.778-6.271-18.114-15-21.21v-17.29h-15v17.29c-8.729 3.096-15 11.432-15 21.21v45c0 9.777 6.271 18.114 15 21.21v40.684c-12.202-16.774-30.978-28.094-51.436-31.063l-2.179 14.841c28.698 4.212 50.767 28.036 53.357 56.558h-38.303c-45.491 0-82.5 37.009-82.5 82.5 0 37.56 25.293 70.07 61 79.657v17.79h111.073c10.476 10.071 16.427 23.916 16.427 38.553 0 18.451 5.956 35.898 17.223 50.456l11.862-9.181c-9.215-11.906-14.085-26.178-14.085-41.275 0-36.362-22.5-53.557-22.5-53.557h75v-15h-77.198c-4.461-10.981-15.239-18.747-27.802-18.747-7.662 0-14.659 2.891-19.967 7.635-6.475-11.272-18.627-18.885-32.533-18.885-17.044 0-31.459 11.434-36.002 27.031-27.934-8.622-47.498-34.594-47.498-64.477 0-37.22 30.28-67.5 67.5-67.5h166.501c7.805 12.3 18.238 22.747 30.483 30.522h-38.357v15h179.753v-15h-37.89c9.314-5.882 17.923-13.68 24.762-22.425 53.603 19.398 89.248 69.934 89.248 127.403 0 39.96-17.392 75.931-44.999 100.753v-36.949c8.729-3.096 15-11.432 15-21.21v-45c0-9.777-6.271-18.114-15-21.21v-17.29h-15v17.29c-8.729 3.096-15 11.432-15 21.21v45c0 9.777 6.271 18.114 15 21.21v40.684c-12.202-16.774-30.979-28.095-51.438-31.064l-2.178 14.841c18.988 2.787 35.07 14.163 44.533 29.801-19.639 11.092-42.301 17.433-66.419 17.433h-51.149c6.013-24.245 26.262-43.479 51.753-47.231l-2.184-14.84c-20.446 2.975-39.214 14.294-51.408 31.059v-40.684c8.729-3.096 15-11.432 15-21.21v-28.151h67.551v-15h-67.551c.686-10.323-5.611-19.817-15-23.059v-17.29h-15v17.29c-8.729 3.096-15 11.432-15 21.21v45c0 9.777 6.271 18.114 15 21.21v40.683c-12.202-16.774-30.979-28.094-51.436-31.063l-2.179 14.841c25.505 3.743 45.763 22.98 51.777 47.234h-20.673c-15.633 0-30.872-5.466-42.911-15.392l-9.542 11.573c14.718 12.136 33.346 18.819 52.453 18.819h90.5c26.317 0 51.073-6.797 72.618-18.717 1.867 5.93 2.883 12.202 2.883 18.664h15c0-30.951 23.039-57.682 53.591-62.178l-2.184-14.84c-4.164.615-8.245 1.581-12.217 2.847zm-340.191-80.578c10.285.103 15 8.622 15 18.75h-30c0-11.659 6.729-18.75 15-18.75zm-75 11.25c0-12.407 10.093-22.5 22.5-22.5s22.5 10.093 22.5 22.5v7.5h-45zm60.062-259.676c0 4.136-3.365 7.5-7.5 7.5s-7.5-3.364-7.5-7.5v-45c0-4.136 3.364-7.5 7.5-7.5s7.5 3.364 7.5 7.5zm157.451 250.324c0-4.136 3.364-7.5 7.5-7.5s7.5 3.364 7.5 7.5v45c0 4.136-3.364 7.5-7.5 7.5s-7.5-3.364-7.5-7.5zm143.488 0c0-4.136 3.364-7.5 7.5-7.5s7.5 3.364 7.5 7.5v45c0 4.136-3.364 7.5-7.5 7.5s-7.5-3.364-7.5-7.5z"/><path d="m37.5 408.471c-20.678 0-37.5 16.822-37.5 37.5v22.5h75v-22.5c0-20.678-16.822-37.5-37.5-37.5zm22.5 45h-45v-7.5c0-12.407 10.093-22.5 22.5-22.5s22.5 10.093 22.5 22.5z"/><path d="m136.594 288.237h75.063v15h-75.063z"/><path d="m331 288.237h75.063v15h-75.063z"/></g></g><g/><g/><g/><g/><g/><g/><g/><g/><g/><g/><g/><g/><g/><g/><g/></svg>