<svg id="Layer_1" enable-background="new 0 0 512 512" viewBox="0 0 512 512" xmlns="http://www.w3.org/2000/svg"><g><g><g><path d="m344.097 359.774 31.82-31.82 31.82 31.82c17.574 17.574 17.574 46.066 0 63.64-17.574 17.574-46.066 17.574-63.64 0-17.574-17.574-17.574-46.066 0-63.64z" fill="#54c9f3"/><path d="m359.894 407.616c-17.573-17.574-17.573-46.066 0-63.64l-15.798 15.798c-17.574 17.574-17.574 46.066 0 63.64 17.574 17.573 46.066 17.573 63.64 0 2.727-2.727 5.029-5.717 6.909-8.888-17.264 10.239-39.904 7.937-54.751-6.91z" fill="#00adeb"/><path d="m454.834 422.723 20.681-20.681 20.681 20.681c11.422 11.422 11.422 29.94 0 41.362-11.422 11.422-29.94 11.422-41.362 0-11.422-11.422-11.422-29.94 0-41.362z" fill="#b6e6fa"/><path d="m470.653 448.265c-11.422-11.422-11.422-29.94 0-41.362l-15.82 15.82c-11.422 11.422-11.422 29.94 0 41.362 11.422 11.422 29.94 11.422 41.362 0 2.802-2.802 4.913-6.033 6.34-9.48-10.602 4.39-23.262 2.28-31.882-6.34z" fill="#8ad8f6"/><path d="m256.667 453.361 20.681-20.681 20.681 20.681c11.422 11.422 11.422 29.94 0 41.362-11.422 11.422-29.94 11.422-41.362 0-11.422-11.421-11.422-29.94 0-41.362z" fill="#b6e6fa"/><path d="m272.487 478.903c-11.422-11.422-11.422-29.94 0-41.362l-15.82 15.82c-11.422 11.422-11.422 29.94 0 41.362 11.422 11.422 29.94 11.422 41.362 0 2.802-2.802 4.913-6.033 6.34-9.48-10.602 4.391-23.262 2.28-31.882-6.34z" fill="#8ad8f6"/><path d="m49.263 453.361 20.681-20.681 20.681 20.681c11.422 11.422 11.422 29.94 0 41.362-11.422 11.422-29.94 11.422-41.362 0-11.422-11.421-11.422-29.94 0-41.362z" fill="#b6e6fa"/><path d="m65.083 478.903c-11.422-11.422-11.422-29.94 0-41.362l-15.82 15.82c-11.422 11.422-11.422 29.94 0 41.362 11.422 11.422 29.94 11.422 41.362 0 2.802-2.802 4.913-6.033 6.34-9.48-10.603 4.391-23.263 2.28-31.882-6.34z" fill="#8ad8f6"/><path d="m16.142 333.872 20.681-20.681 20.681 20.681c11.422 11.422 11.422 29.94 0 41.362-11.422 11.422-29.94 11.422-41.362 0-11.422-11.422-11.422-29.94 0-41.362z" fill="#b6e6fa"/><path d="m31.962 359.414c-11.422-11.422-11.422-29.94 0-41.362l-15.82 15.82c-11.422 11.422-11.422 29.94 0 41.362 11.422 11.422 29.94 11.422 41.362 0 2.802-2.802 4.913-6.033 6.34-9.48-10.603 4.39-23.263 2.28-31.882-6.34z" fill="#8ad8f6"/><path d="m469.435 69.586c-.847 0-1.685.04-2.518.099-2.367-34.268-30.911-61.333-65.781-61.333-29.694.032-54.965 19.552-63.223 47.153l35.888 84.734h95.633c19.511 0 35.327-15.816 35.327-35.327s-15.815-35.326-35.326-35.326z" fill="#79787d"/><path d="m479.435 117.444h-85.847c-6.63-32.107-22.562-60.812-44.855-83.175-.034.045-.066.093-.1.138l-.003-.007c-4.793 6.323-8.437 13.503-10.716 21.105l35.888 84.734h42.457 53.177c18.883 0 34.303-14.815 35.277-33.455-6.416 6.574-15.368 10.66-25.278 10.66z" fill="#58565b"/><path d="m379.246 139.876c-1.833 0-3.644.088-5.444.214-5.118-74.081-66.825-132.59-142.206-132.59-63.692-.087-118.882 42.259-136.676 101.936-48.617 2.247-87.345 42.364-87.345 91.536 0 50.614 41.031 91.645 91.645 91.645h280.026c42.178 0 76.371-34.192 76.371-76.371s-34.193-76.37-76.371-76.37z" fill="#e3e9ee"/><path d="m455.537 218.579c-1.229 28.899-25.095 52.038-54.291 52.038h-302.026c-38.402 0-69.645-31.243-69.645-69.645 0-37.286 29.149-81.854 66.36-83.574l21.18-.721 4.463-14.969c14.962-50.182 56.008-93.162 107.965-94.184 0-.002 0-.004 0-.006-62.821.815-117.02 42.883-134.623 101.918-48.617 2.247-87.345 42.364-87.345 91.536 0 50.614 41.031 91.645 91.645 91.645h280.026c41.395 0 75.06-32.943 76.297-74.038-.002 0-.004 0-.006 0z" fill="#c6d2db"/><path d="m216.596 174.132-84.808 194.763h54.318l-50.106 135.83h13.191l144.66-176.724v-4.276h-53.851l66.596-149.595z" fill="#fee95d"/><path d="m217.27 347.452h-52.703l75.471-173.32h-23.442l-84.808 194.763h54.318l-50.106 135.83h13.191l18.61-22.735z" fill="#f7d700"/></g></g><g><path d="m425.878 147.068h43.31c23.607 0 42.811-19.235 42.811-42.88 0-22.238-16.992-40.577-38.653-42.679-5.771-35.002-36.344-61.509-72.439-61.509-28.712.031-54.006 16.311-66.107 41.528-27.937-26.662-64.76-41.382-103.364-41.38-35.823 0-70.502 12.855-97.648 36.196l9.767 11.395c24.43-21.004 55.639-32.572 87.881-32.572 74.381-.884 135.825 63.193 134.657 136.318v28.885h14.995v-32.613c37.013 1.095 66.79 31.571 66.79 68.903 0 38.022-30.883 68.955-68.845 68.955h-48.228v15.018h48.228c46.229 0 83.839-37.67 83.839-83.973 0-28.934-14.696-54.485-36.994-69.592zm-24.963-132.05c33.519-.199 59.366 28.395 58.794 61.39h7.488c16.007-1.233 29.867 11.724 29.808 27.78 0 15.363-12.479 27.861-27.817 27.861h-88.872c-3.535-29.09-15.441-56.295-34.275-78.59 8.429-23.108 30.045-38.414 54.874-38.441z"/><path d="m173.361 45.204h14.995v15.018h-14.995z"/><path d="m203.35 45.204h14.995v15.018h-14.995z"/><path d="m211.529 165.984-52.01 119.631h-60.411c-46.38 0-84.114-37.793-84.114-84.248-.963-68.668 80.594-109.113 134.57-66.967l9.067-11.962c-15.636-11.888-34.014-18.692-53.478-19.898 6.069-16.012 15.228-30.939 26.839-43.602l-11.042-10.159c-14.19 15.474-25.101 33.99-31.754 53.82-50.429 4.99-89.196 47.396-89.196 98.768 0 54.736 44.459 99.266 99.108 99.266h53.882l-32.768 75.371h54.984l-50.088 135.996h27.495l148.552-181.768v-14.472h-49.784l6.723-15.127h57.704v-15.018h-51.028l53.173-119.633zm69.812 164.794-133.789 163.704 49.168-133.497h-53.613l78.247-179.983 73.51-.002-66.571 149.778z"/><path d="m375.787 316.291-37.11 37.169c-9.911 9.928-15.37 23.128-15.37 37.169s5.459 27.24 15.371 37.168c19.535 20.394 54.684 20.392 74.22.001 20.461-20.495 20.461-53.842 0-74.337zm26.506 100.886c-13.953 14.566-39.06 14.565-53.013-.001-14.616-14.638-14.616-38.458 0-53.096l26.507-26.55 26.507 26.55c14.543 13.974 14.542 39.122-.001 53.097z"/><path d="m62.709 379.346c14.322-14.346 14.322-37.688 0-52.032l-25.975-26.017-25.976 26.016c-14.25 13.696-14.249 38.338 0 52.033 13.675 14.273 38.277 14.273 51.951 0zm-41.347-10.62c-8.476-8.489-8.476-22.304 0-30.793l15.372-15.398 15.371 15.398c8.476 8.489 8.476 22.304 0 30.793-8.474 8.49-22.267 8.491-30.743 0z"/><path d="m475.265 390.406-25.975 26.016c-14.322 14.346-14.322 37.688 0 52.033 13.675 14.273 38.277 14.272 51.951 0 14.25-13.696 14.25-38.338 0-52.033zm15.373 67.429c-8.475 8.493-22.268 8.491-30.744 0-8.476-8.489-8.476-22.304 0-30.793l15.371-15.398 15.372 15.398c8.477 8.489 8.477 22.304.001 30.793z"/><path d="m277.171 423.174-25.975 26.016c-14.25 13.696-14.249 38.338 0 52.033 13.674 14.273 38.276 14.273 51.951 0 14.322-14.346 14.322-37.688 0-52.033zm15.372 67.43c-8.475 8.49-22.268 8.491-30.744 0-8.476-8.489-8.476-22.304 0-30.793l15.371-15.398 15.372 15.398c8.478 8.489 8.478 22.304.001 30.793z"/><path d="m69.844 423.174-25.976 26.016c-14.25 13.696-14.249 38.338 0 52.033 13.674 14.273 38.276 14.273 51.951 0 14.322-14.346 14.322-37.688 0-52.032zm15.371 67.43c-8.475 8.49-22.268 8.491-30.744 0-8.476-8.489-8.476-22.304 0-30.793l15.372-15.398 15.371 15.398c8.477 8.489 8.477 22.304.001 30.793z"/></g></g><g/><g/><g/><g/><g/><g/><g/><g/><g/><g/><g/><g/><g/><g/><g/></svg>