<svg id="Layer_1" enable-background="new 0 0 512 512" viewBox="0 0 512 512" xmlns="http://www.w3.org/2000/svg"><g><g><g><circle cx="121" cy="391.002" fill="#e3edf6" r="30"/><path d="m136.708 405.294c-16.569 0-30-13.432-30-30 0-4.211.871-8.218 2.438-11.855-10.673 4.597-18.146 15.206-18.146 27.563 0 16.568 13.431 30 30 30 12.357 0 22.966-7.473 27.562-18.146-3.637 1.567-7.643 2.438-11.854 2.438z" fill="#c5d9ec"/><circle cx="196" cy="181.002" fill="#e3edf6" r="37.635"/><path d="m212.039 202.598c-20.785 0-37.635-16.85-37.635-37.634 0-6.261 1.538-12.16 4.243-17.354-12.048 6.274-20.281 18.868-20.281 33.392 0 20.785 16.85 37.635 37.635 37.635 14.524 0 27.117-8.232 33.392-20.281-5.195 2.704-11.093 4.242-17.354 4.242z" fill="#c5d9ec"/><circle cx="459.319" cy="53.502" fill="#e3edf6" r="45"/><path d="m474.631 83.19c-24.853 0-45-20.147-45-45 0-8.501 2.36-16.45 6.456-23.232-13.045 7.879-21.768 22.192-21.768 38.543 0 24.853 20.147 45 45 45 16.352 0 30.664-8.723 38.544-21.768-6.782 4.098-14.731 6.457-23.232 6.457z" fill="#c5d9ec"/><circle cx="52.766" cy="83.507" fill="#e3edf6" r="45"/><path d="m68.078 113.195c-24.853 0-45-20.147-45-45 0-8.501 2.36-16.45 6.456-23.232-13.045 7.879-21.768 22.192-21.768 38.543 0 24.853 20.147 45 45 45 16.352 0 30.664-8.723 38.544-21.768-6.782 4.098-14.731 6.457-23.232 6.457z" fill="#c5d9ec"/><circle cx="391" cy="235.992" fill="#e3edf6" r="37.635"/><path d="m407.039 257.587c-20.785 0-37.635-16.85-37.635-37.634 0-6.261 1.538-12.16 4.243-17.354-12.048 6.274-20.281 18.868-20.281 33.392 0 20.785 16.85 37.635 37.635 37.635 14.524 0 27.117-8.232 33.392-20.281-5.195 2.705-11.093 4.242-17.354 4.242z" fill="#c5d9ec"/><circle cx="398.365" cy="482.15" fill="#e3edf6" r="22.788"/><path d="m413.852 489.452c-12.586 0-22.788-10.203-22.788-22.788 0-2.219.323-4.36.914-6.388-9.475 2.762-16.401 11.507-16.401 21.874 0 12.585 10.203 22.788 22.788 22.788 10.367 0 19.112-6.925 21.874-16.4-2.027.591-4.169.914-6.387.914z" fill="#c5d9ec"/><circle cx="286" cy="346.002" fill="#e3edf6" r="30"/><path d="m301.708 360.294c-16.569 0-30-13.432-30-30 0-4.211.871-8.218 2.438-11.855-10.673 4.597-18.146 15.206-18.146 27.563 0 16.568 13.431 30 30 30 12.357 0 22.966-7.473 27.562-18.146-3.637 1.567-7.643 2.438-11.854 2.438z" fill="#c5d9ec"/></g></g><g><path d="m459.5 0c-28.948 0-52.5 23.552-52.5 52.5s23.552 52.5 52.5 52.5v-15c-20.678 0-37.5-16.822-37.5-37.5s16.822-37.5 37.5-37.5 37.5 16.822 37.5 37.5c0 15.52-9.753 29.626-24.27 35.102l5.293 14.035c20.323-7.666 33.977-27.412 33.977-49.137 0-28.948-23.552-52.5-52.5-52.5z"/><path d="m105 83.507c0-28.948-23.551-52.5-52.5-52.5s-52.5 23.552-52.5 52.5 23.551 52.5 52.5 52.5 52.5-23.552 52.5-52.5zm-90 0c0-20.678 16.822-37.5 37.5-37.5s37.5 16.822 37.5 37.5-16.822 37.5-37.5 37.5-37.5-16.822-37.5-37.5z"/><path d="m165.865 181.002c0-16.616 13.519-30.135 30.135-30.135s30.135 13.519 30.135 30.135-13.519 30.135-30.135 30.135v15c24.887 0 45.135-20.247 45.135-45.135s-20.248-45.135-45.135-45.135-45.135 20.247-45.135 45.135c0 16.78 9.223 32.079 24.07 39.926l7.009-13.262c-9.918-5.242-16.079-15.459-16.079-26.664z"/><path d="m436.135 235.991c0-24.888-20.247-45.135-45.135-45.135s-45.135 20.247-45.135 45.135 20.247 45.135 45.135 45.135 45.135-20.247 45.135-45.135zm-75.27 0c0-16.616 13.519-30.135 30.135-30.135s30.135 13.519 30.135 30.135-13.519 30.135-30.135 30.135-30.135-13.519-30.135-30.135z"/><path d="m121 353.502c-20.678 0-37.5 16.822-37.5 37.5s16.822 37.5 37.5 37.5 37.5-16.822 37.5-37.5-16.822-37.5-37.5-37.5zm0 60c-12.407 0-22.5-10.094-22.5-22.5s10.093-22.5 22.5-22.5 22.5 10.094 22.5 22.5-10.093 22.5-22.5 22.5z"/><path d="m398.365 451.423c-16.701 0-30.288 13.587-30.288 30.288s13.587 30.289 30.288 30.289 30.288-13.588 30.288-30.289-13.587-30.288-30.288-30.288zm0 45.577c-8.43 0-15.288-6.858-15.288-15.289 0-8.43 6.858-15.288 15.288-15.288s15.288 6.858 15.288 15.288c0 8.431-6.858 15.289-15.288 15.289z"/><path d="m286 308.502c-20.678 0-37.5 16.822-37.5 37.5s16.822 37.5 37.5 37.5 37.5-16.822 37.5-37.5-16.822-37.5-37.5-37.5zm0 60c-12.406 0-22.5-10.094-22.5-22.5s10.094-22.5 22.5-22.5 22.5 10.094 22.5 22.5-10.094 22.5-22.5 22.5z"/><path d="m323.5 104.849 18.901 10.912 1.935 7.221 17.264-4.625-4.626-17.265-6.818 1.826-19.156-11.06 18.702-10.797 7.25 1.943 4.628-17.266-17.267-4.625-1.818 6.788-18.995 10.967v-22.642l5.139-5.138-12.639-12.641-12.639 12.641 5.139 5.138v22.642l-18.981-10.959-1.812-6.76-17.266 4.627 4.628 17.264 7.279-1.951 18.652 10.769-19.179 11.074-6.731-1.803-4.626 17.265 17.265 4.625 1.958-7.308 18.813-10.862v21.099l-5.096 5.097 12.639 12.638 12.639-12.638-5.182-5.182z"/><path d="m78.383 303.705 12.638 12.638 12.639-12.638-5.181-5.182v-21.015l18.9 10.912 1.935 7.222 17.265-4.627-4.627-17.264-6.817 1.827-19.156-11.06 18.702-10.798 7.251 1.943 4.626-17.265-17.266-4.625-1.818 6.788-18.995 10.966v-22.642l5.138-5.139-12.638-12.638-12.639 12.638 5.139 5.139v22.642l-18.982-10.959-1.811-6.758-17.265 4.625 4.626 17.265 7.281-1.951 18.651 10.769-19.181 11.074-6.729-1.804-4.627 17.264 17.265 4.627 1.959-7.309 18.813-10.862v21.101z"/><path d="m470.136 381.28-19.157-11.06 18.702-10.798 7.25 1.943 4.628-17.265-17.267-4.625-1.818 6.788-18.995 10.967v-22.643l5.138-5.139-12.638-12.637-12.639 12.637 5.139 5.139v22.642l-18.982-10.959-1.81-6.758-17.267 4.625 4.628 17.265 7.28-1.951 18.651 10.769-19.181 11.074-6.729-1.804-4.628 17.265 17.267 4.625 1.958-7.308 18.813-10.861v21.101l-5.096 5.095 12.638 12.638 12.639-12.638-5.181-5.181v-21.016l18.9 10.912 1.935 7.222 17.266-4.627-4.628-17.264z"/><path d="m260.135 471.235-19.156-11.059 18.703-10.798 7.249 1.942 4.628-17.264-17.267-4.625-1.818 6.788-18.995 10.967v-22.644l5.138-5.139-12.638-12.637-12.639 12.637 5.139 5.139v22.643l-18.982-10.958-1.811-6.76-17.265 4.627 4.627 17.263 7.279-1.95 18.652 10.769-19.18 11.073-6.731-1.804-4.626 17.266 17.266 4.625 1.958-7.308 18.813-10.861v21.099l-5.096 5.096 12.638 12.638 12.639-12.638-5.181-5.181v-21.015l18.9 10.912 1.935 7.221 17.266-4.625-4.628-17.266z"/><path d="m173.5 38.502h15v15h-15z"/><path d="m278.5 233.502h15v15h-15z"/><path d="m458.5 158.502h15v15h-15z"/><path d="m38.5 458.502h15v15h-15z"/><path d="m188.5 323.584h15v15h-15z"/><path d="m338.5 413.502h15v15h-15z"/></g></g><g/><g/><g/><g/><g/><g/><g/><g/><g/><g/><g/><g/><g/><g/><g/></svg>