<svg id="Layer_1" enable-background="new 0 0 512 512" viewBox="0 0 512 512" xmlns="http://www.w3.org/2000/svg"><g><g><g><path d="m68.828 415.183 37.181-37.181 37.181 37.181c20.534 20.534 20.534 53.827 0 74.362-20.534 20.534-53.827 20.534-74.362 0-20.534-20.535-20.534-53.828 0-74.362z" fill="#54c9f3"/><path d="m84.913 473.46c-20.534-20.535-20.534-53.827 0-74.362l10.548-10.548-26.633 26.633c-20.534 20.535-20.534 53.828 0 74.362 20.534 20.535 53.827 20.535 74.361 0 2.763-2.763 5.141-5.762 7.16-8.925-20.342 12.989-47.664 10.611-65.436-7.16z" fill="#00adeb"/><path d="m436.84 270.47-7.764-28.978-61.653 16.52-74.162-42.818c.316-2.744.316-5.641 0-8.384l74.162-42.817 61.653 16.52 7.764-28.978-32.675-8.755 34.797-20.09-15-25.98-34.797 20.09 8.755-32.675-28.978-7.765-16.52 61.653-74.16 42.816c-2.242-1.657-4.677-3.067-7.263-4.197v-85.63l45.133-45.133-21.212-21.213-23.92 23.92v-40.18h-30v40.18l-23.92-23.919-21.213 21.213 45.133 45.132v85.629c-2.586 1.13-5.02 2.54-7.263 4.197l-74.16-42.816-16.52-61.653-28.978 7.765 8.755 32.675-34.797-20.09-15 25.98 34.797 20.09-32.675 8.755 7.764 28.978 61.653-16.52 74.162 42.817c-.316 2.744-.316 5.641 0 8.384l-74.162 42.818-61.653-16.52-7.763 28.979 32.675 8.755-34.797 20.09 15 25.98 34.797-20.09-8.755 32.675 28.978 7.765 16.52-61.653 74.16-42.816c2.242 1.657 4.677 3.067 7.263 4.197v85.629l-45.133 45.133 21.213 21.213 23.919-23.92v40.18h30v-40.18l23.92 23.919 21.213-21.213-45.133-45.132v-85.629c2.586-1.13 5.021-2.54 7.263-4.197l74.16 42.816 16.52 61.653 28.978-7.765-8.755-32.675 34.797 20.09 15-25.98-34.797-20.09z" fill="#b6e6fa"/><g fill="#8ad8f6"><path d="m216.941 355.061-21.074 21.074 21.213 21.213 23.92-23.92v40.18h30v-40.18l23.92 23.919 21.213-21.213-4.447-4.446c-4.36.279-8.757.426-13.188.426-29.01.001-56.593-6.094-81.557-17.053z"/><path d="m143.057 345.645 9.488-35.41c-17.006-17.571-30.866-38.201-40.677-60.988l-28.944-7.756-7.764 28.979 32.675 8.755-34.797 20.09 15 25.98 34.797-20.09-8.755 32.675z"/><path d="m97.9 137.044c1.65-10.434 4.095-20.603 7.271-30.443l-16.838-9.722c-1.013 1.479-2.005 2.971-2.979 4.478l-10.372 17.965c-.59 1.156-1.166 2.32-1.734 3.489z"/><path d="m75.16 151.534 7.764 28.978 12.641-3.387c-.106-2.695-.176-5.398-.176-8.119 0-7.863.457-15.618 1.327-23.248z"/></g><path d="m368.819 415.183 37.181-37.181 37.181 37.181c20.534 20.534 20.534 53.827 0 74.362-20.534 20.534-53.827 20.534-74.362 0-20.534-20.535-20.534-53.828 0-74.362z" fill="#54c9f3"/><path d="m384.904 473.46c-20.534-20.535-20.534-53.827 0-74.362l10.548-10.548-26.633 26.633c-20.534 20.535-20.534 53.828 0 74.362 20.534 20.535 53.827 20.535 74.361 0 2.763-2.763 5.141-5.762 7.16-8.925-20.342 12.989-47.664 10.611-65.436-7.16z" fill="#00adeb"/></g></g><g><path d="m317.009 330.77 12.99-7.5-38.505-66.692 54.492 31.462 17.658 65.896 43.465-11.646-6.01-22.432 25.612 14.787 22.5-38.971-25.611-14.786 22.429-6.01-11.646-43.467-65.897 17.656-19.208-11.09-7.5 12.99 24.589 14.197 57.409-15.383 3.882 14.488-42.921 11.5 43.984 25.394-7.5 12.99-43.983-25.393 11.5 42.92-14.487 3.882-15.384-57.409-81.106-46.826c-4.09 3.374-9.288 6.377-14.257 8.243v93.642l42.026 42.026-10.606 10.606-31.42-31.42v50.787h-15v-50.787l-31.42 31.42-10.606-10.606 42.026-42.026v-93.642c-4.97-1.867-10.167-4.87-14.257-8.243l-81.106 46.826-15.384 57.409-14.487-3.882 11.5-42.92-43.983 25.393-7.5-12.99 43.984-25.394-42.921-11.5 3.882-14.488 57.409 15.383 81.1-46.824c-.868-5.291-.868-11.179 0-16.47l-81.1-46.823-57.409 15.383-3.882-14.488 42.921-11.5-43.984-25.394 7.5-12.99 43.983 25.393-11.5-42.921 14.488-3.882 15.383 57.409 81.106 46.827c4.09-3.374 9.288-6.377 14.257-8.243v-93.641l-42.026-42.026 10.606-10.606 31.42 31.42v-50.788h15v50.787l31.42-31.42 10.606 10.606-42.026 42.027v93.642c4.97 1.867 10.167 4.87 14.257 8.243l81.106-46.827 15.383-57.409 14.488 3.882-11.5 42.921 43.983-25.393 7.5 12.99-43.984 25.394 42.921 11.5-3.882 14.488-57.409-15.383-81.1 46.823c.868 5.291.868 11.179 0 16.47l41.986 24.241 7.5-12.99-20.758-11.985h77.008v-15h-77.011l54.493-31.461 65.897 17.656 11.646-43.467-22.429-6.01 25.611-14.786-22.5-38.971-25.61 14.787 6.01-22.432-43.465-11.646-17.658 65.896-54.492 31.462 38.505-66.692-12.99-7.5-38.505 66.692v-62.922l48.239-48.239-31.819-31.819-16.42 16.42v-29.575h-45v29.574l-16.42-16.42-31.819 31.819 48.239 48.239v62.923l-38.505-66.692-12.99 7.5 38.505 66.692-54.492-31.462-17.658-65.896-43.465 11.646 6.01 22.432-25.614-14.787-22.5 38.971 25.611 14.786-22.429 6.01 11.646 43.467 65.897-17.656 54.493 31.461h-77.011v15h77.008l-54.491 31.461-65.897-17.656-11.646 43.467 22.429 6.01-25.611 14.786 22.5 38.971 25.612-14.787-6.01 22.432 43.465 11.646 17.658-65.896 54.492-31.462-38.505 66.692 12.99 7.5 38.505-66.692v62.921l-48.239 48.239 31.819 31.819 16.42-16.42v29.574h45v-29.574l16.42 16.42 31.819-31.819-48.237-48.239v-62.923z"/><path d="m106.004 366.978-42.484 42.483c-10.937 10.938-17.18 25.474-17.577 40.93l14.994.387c.299-11.597 4.983-22.503 13.19-30.709l31.877-31.878 31.877 31.878c17.577 17.577 17.577 46.178 0 63.755-16.78 17.489-46.974 17.488-63.754 0-5.602-5.601-9.636-12.578-11.669-20.177l-14.49 3.875c2.712 10.143 8.09 19.447 15.552 26.909 23.426 23.426 61.543 23.425 84.969-.001 23.425-23.426 23.425-61.543 0-84.969z"/><path d="m448.489 409.461-42.484-42.483-42.484 42.483c-23.425 23.426-23.425 61.543 0 84.97 23.426 23.426 61.543 23.425 84.969-.001 23.423-23.426 23.423-61.543-.001-84.969zm-10.608 74.362c-17.575 17.578-46.177 17.578-63.754.001-17.577-17.578-17.577-46.179 0-63.756l31.877-31.878 31.877 31.878c17.577 17.578 17.577 46.178 0 63.755z"/></g></g><g/><g/><g/><g/><g/><g/><g/><g/><g/><g/><g/><g/><g/><g/><g/></svg>