<svg id="Layer_1" enable-background="new 0 0 512 512" viewBox="0 0 512 512" xmlns="http://www.w3.org/2000/svg"><g><g><g><path d="m0 128.665h512v383.335h-512z" fill="#54c9f3"/><path d="m14.638 496.276v-367.611h-14.638v383.335h512v-15.724z" fill="#00adeb"/><path d="m7.5 7.576v136.005h46.195c24.051 0 47.287 8.72 65.399 24.544l31.906 27.877 30 135v70.223c0 12.628 6.334 24.415 16.866 31.383 16.01 10.593 37.428 7.437 49.701-7.325l128.276-154.282v-75l23.435-28.122c12.831-15.396 31.837-24.299 51.879-24.299h53.343v-136.004z" fill="#00ce8b"/><path d="m504.5 143.582v-22h-53.344c-26.648 0-51.718 11.742-68.78 32.215l-14.033 16.917v74.853l-137.693 165.651c-5.106 6.142-13.982 7.452-20.645 3.043-4.387-2.902-7.006-7.775-7.006-13.036v-72.638l-32.09-144.403-37.342-32.625c-22.126-19.331-50.492-29.977-79.874-29.977h-24.193v-114.006h-22v136.005h46.195c24.051 0 47.287 8.72 65.399 24.544l31.906 27.877 30 135v70.223c0 12.628 6.334 24.415 16.866 31.383 16.01 10.593 37.428 7.437 49.701-7.325l128.276-154.282v-75l23.435-28.122c12.831-15.396 31.837-24.299 51.879-24.299h53.343z" fill="#00a666"/><path d="m188.404 128.502c-16.569 0-30-13.431-30-30v-30c0-16.569 13.431-30 30-30 16.569 0 30 13.431 30 30v30c0 16.569-13.431 30-30 30z" fill="#c3f839"/><path d="m180.904 94.64v-30c0-12.599 7.717-19.515 18.723-23.96-3.468-1.4-7.254-2.179-11.223-2.179-16.569 0-30 13.431-30 30v30c0 16.569 13.431 30 30 30 3.97 0 7.755-.778 11.223-2.179-11.006-4.443-18.723-19.083-18.723-31.682z" fill="#abe700"/><path d="m323.723 166.002c-16.569 0-30-13.431-30-30v-30c0-16.569 13.431-30 30-30 16.569 0 30 13.431 30 30v30c0 16.569-13.431 30-30 30z" fill="#c3f839"/><path d="m316.224 135.349v-30c0-12.599 7.717-22.724 18.723-27.168-3.468-1.4-7.254-2.179-11.223-2.179-16.569 0-30 13.431-30 30v30c0 16.569 13.431 30 30 30 3.97 0 7.755-.778 11.223-2.179-11.007-4.444-18.723-15.875-18.723-28.474z" fill="#abe700"/><path d="m249.787 256.987 21.213-21.213 21.213 21.213c11.716 11.716 11.716 30.711 0 42.426-11.716 11.716-30.711 11.716-42.426 0-11.716-11.715-11.716-30.71 0-42.426z" fill="#c3f839"/><path d="m266.277 281.917c-11.715-11.715-10.972-30.447.743-42.163l-17.233 17.233c-11.716 11.716-11.716 30.711 0 42.426 11.716 11.716 30.711 11.716 42.426 0 3.069-3.069 5.326-6.64 6.787-10.447-17.452 7.265-32.723-7.049-32.723-7.049z" fill="#abe700"/><g><path d="m29.5 29.576h15v15h-15z" fill="#fff"/></g><g><path d="m59.437 29.576h15v15h-15z" fill="#fff"/></g></g></g><g><path d="m0 0v151.006h53.694c22.242 0 43.716 8.059 60.465 22.692l30.053 26.257 29.288 131.794v69.399c-.251 41.696 53.151 61.268 79.834 28.854l79.481-95.595-11.533-9.59-79.481 95.595c-17.522 21.622-53.645 8.498-53.301-19.264v-71.046l-30.713-138.206-33.759-29.495c-19.482-17.021-44.461-26.396-70.334-26.396h-38.694v-121.005h482v121.006h-45.843c-22.335 0-43.344 9.84-57.641 26.996l-25.174 30.208v75.005l-35.681 42.916 11.533 9.59 39.147-47.084v-74.995l21.697-26.036c11.438-13.728 28.248-21.6 46.117-21.6h60.845v-151.006z"/><path d="m0 256.054h91v15h-91z"/><path d="m346 361.276h90v15h-90z"/><path d="m421 286.213h91v15h-91z"/><path d="m451 361.276h30v15h-30z"/><path d="m23.5 376.085h90v15h-90z"/><path d="m128.5 376.085h30v15h-30z"/><path d="m256 466.213h90v15h-90z"/><path d="m361 466.213h30v15h-30z"/><path d="m106 256.054h30v15h-30z"/><path d="m421 211.149h30v15h-30z"/><path d="m0 481.276h30v15h-30z"/><path d="m195.904 173.589v-38.255c17.096-3.484 30-18.635 30-36.745v-30c0-20.678-16.822-37.5-37.5-37.5s-37.5 16.822-37.5 37.5v7.337h15v-7.337c0-12.406 10.094-22.5 22.5-22.5s22.5 10.094 22.5 22.5v30c0 9.777-6.271 18.114-15 21.21v-36.21h-15v36.21c-8.729-3.096-15-11.433-15-21.21v-7.663h-15v7.663c0 18.11 12.904 33.261 30 36.745v38.255z"/><path d="m331.224 210.926v-38.255c17.096-3.484 30-18.635 30-36.745v-30c0-20.678-16.822-37.5-37.5-37.5s-37.5 16.822-37.5 37.5v30c0 18.11 12.904 33.261 30 36.745v38.255zm-30-75v-30c0-12.406 10.094-22.5 22.5-22.5s22.5 10.094 22.5 22.5v30c0 9.777-6.271 18.114-15 21.21v-36.21h-15v36.21c-8.73-3.096-15-11.433-15-21.21z"/><path d="m278.5 345.926v-30.408c28.893-5.489 40.153-42.714 19.017-63.269l-26.517-26.516-26.517 26.516c-21.143 20.565-9.867 57.783 19.017 63.269v30.408zm-23.409-83.07 15.909-15.91 15.909 15.91c11.713 11.156 6.881 32.127-8.409 37.093v-21.183h-15v21.183c-11.011-2.023-24.415-20.981-8.409-37.093z"/></g></g><g/><g/><g/><g/><g/><g/><g/><g/><g/><g/><g/><g/><g/><g/><g/></svg>