<svg id="Layer_1" enable-background="new 0 0 512 512" viewBox="0 0 512 512" xmlns="http://www.w3.org/2000/svg"><g><g><g><path d="m458.665 7.596h-405.33c-8.779 0-15.847 7.323-15.429 16.193.391 8.309 7.548 14.7 15.865 14.7h45.101v7.511c0 24.853 20.147 45 45 45 0 27.502 21.303 50.014 48.305 51.973 21.8 24.81 33.822 56.707 33.822 89.733v113.858l60-31.37v-82.488c0-33.026 12.023-64.923 33.822-89.733 27.003-1.959 48.305-24.471 48.305-51.973 24.853 0 45-20.147 45-45v-7.511h45.101c8.317 0 15.474-6.392 15.865-14.7.42-8.87-6.648-16.193-15.427-16.193z" fill="#b6e6fa"/><path d="m53.335 7.596c-8.779 0-15.847 7.323-15.429 16.193.391 8.309 7.548 14.7 15.865 14.7h45.101v7.511c0 24.853 20.147 45 45 45 0 27.502 21.303 50.014 48.305 51.973 21.8 24.81 33.822 56.707 33.822 89.733v113.858l60-31.37v-25.39l-37.5 19.607v-76.704c0-38.512-14-75.654-39.42-104.586l-6.083-6.923-9.191-.667c-15.383-1.115-27.434-14.088-27.434-29.531.154-3.134.759-7.693 2.862-12.743 3.127-7.509 7.948-12.219 10.723-14.553-3.229-5.55-6.458-11.099-9.687-16.649l-26.397 21.445c-12.407 0-22.872-10.094-22.872-22.5v-38.404z" fill="#8ad8f6"/><path d="m36.374 338.319h-28.391v59.997c25.503 1.013 58.391-.019 95.839-7.255 35.726-6.903 65.415-17.485 88.101-27.404-21.377-7.162-67.689-23.059-155.549-25.338z" fill="#00ce8b"/><path d="m31.048 398.316v-59.997h-23.065v59.997c8.526.338 17.894.439 27.965.166-1.663-.047-3.297-.103-4.9-.166z" fill="#00a666"/><path d="m476.523 277.912c-86.231 0-171.012 22.558-245.547 65.816-17.519 10.167-37.28 19.89-59.33 28.29-68.559 26.117-126.156 26.298-163.663 26.298v106.325h497v-226.729z" fill="#c3f839"/><path d="m31.059 481.576v-83.447c-8.349.181-16.069.187-23.075.187v106.325h497v-23.064h-473.925z" fill="#abe700"/><circle cx="436" cy="106" fill="#c5d9ec" r="15"/><circle cx="106" cy="151" fill="#c5d9ec" r="15"/><g fill="#8ad8f6"><path d="m346 248.5c0 8.284-6.716 15-15 15h-15v-15c0-8.284 6.716-15 15-15 8.284 0 15 6.716 15 15z"/><path d="m166 248.5c0 8.284 6.716 15 15 15h15v-15c0-8.284-6.716-15-15-15-8.284 0-15 6.716-15 15z"/></g></g></g><g><path d="m476.523 270.366c-62.957 0-125.11 11.895-183.023 34.757v-72.469c0-30.255 10.652-59.464 30.057-82.587 27.118-3.449 48.45-25.25 51.654-52.121 25.612-3.469 45.417-25.481 45.417-52.034l37.601-.011c30.772-.816 30.929-44.834.436-45.901h-322.665v15.003h322.665c10.661.309 10.357 15.787-.437 15.897h-52.601v15.014c0 20.682-16.822 37.507-37.5 37.507h-7.5v7.501c0 19.511-12.771 36.399-30.564 42.34 2.602-15.668.177-32.03-7.015-46.147l-13.388 6.765c7.037 13.747 8.329 30.375 3.644 45.104-22.45 26.045-34.804 59.252-34.804 93.671v78.677c-5.036 2.182-10.037 4.448-15 6.798v-47.175h-15v54.594c-5.044 2.603-10.044 5.299-15 8.079v-101.019c.037-35.888-13.507-70.482-37.688-96.977-24.195-.831-43.584-20.332-43.482-44.71h.255c0-15.345 8.231-29.707 21.481-37.483l-7.591-12.94c-15.462 9.073-25.837 24.821-28.313 42.316-17.506-3.157-30.832-18.497-30.832-36.901v-15.015h-53.995c-10.661-.309-10.357-15.787.436-15.897h67.229v-15.002h-67.229c-30.772.817-30.928 44.835-.436 45.902h38.995v.011c0 26.551 19.802 48.562 45.412 52.033 1.458 12.38 6.754 23.999 15.274 33.282 9.341 10.179 21.799 16.748 35.354 18.707 19.45 23.136 30.13 52.386 30.13 82.675v109.493c-8.823 4.829-17.842 9.345-27.016 13.5-50.036-16.455-102.201-24.817-155.11-24.817h-36.374v181.214h436v-15.862h-420.517v-90.35c36.468-.111 93.199-1.778 158.833-26.786 20.818-7.931 41.148-17.627 60.425-28.818 73.047-42.402 156.654-64.815 241.783-64.815h20.96v210.769h-46.484v15.862h61v-241.634zm-461.04 120.419v-44.997h20.891c45.381 0 90.196 6.335 133.514 18.835-.305.117-.607.242-.912.358-63.329 24.131-116.494 25.702-153.493 25.804z"/><path d="m248.5 240.949h15v15.003h-15z"/><path d="m436 83.42c-12.407 0-22.5 10.096-22.5 22.504s10.093 22.504 22.5 22.504 22.5-10.096 22.5-22.504-10.093-22.504-22.5-22.504zm0 30.005c-4.136 0-7.5-3.365-7.5-7.501 0-4.137 3.364-7.501 7.5-7.501s7.5 3.365 7.5 7.501c0 4.137-3.364 7.501-7.5 7.501z"/><path d="m128.5 150.932c0-12.409-10.093-22.504-22.5-22.504s-22.5 10.096-22.5 22.504c0 12.409 10.093 22.504 22.5 22.504s22.5-10.095 22.5-22.504zm-30 0c0-4.137 3.364-7.501 7.5-7.501s7.5 3.365 7.5 7.501c0 4.137-3.364 7.501-7.5 7.501s-7.5-3.364-7.5-7.501z"/><path d="m308.5 248.451v22.504h22.5c12.407 0 22.5-10.096 22.5-22.504 0-12.409-10.093-22.504-22.5-22.504s-22.5 10.095-22.5 22.504zm30 0c0 4.137-3.364 7.501-7.5 7.501h-7.5v-7.501c0-4.137 3.364-7.501 7.5-7.501s7.5 3.364 7.5 7.501z"/><path d="m203.5 270.955v-22.504c0-12.409-10.093-22.504-22.5-22.504s-22.5 10.096-22.5 22.504c0 12.409 10.093 22.504 22.5 22.504zm-30-22.504c0-4.137 3.364-7.501 7.5-7.501s7.5 3.365 7.5 7.501v7.501h-7.5c-4.136 0-7.5-3.365-7.5-7.501z"/><path d="m31.059 420.985h15v15.003h-15z"/><path d="m61.123 420.985h15v15.003h-15z"/></g></g><g/><g/><g/><g/><g/><g/><g/><g/><g/><g/><g/><g/><g/><g/><g/></svg>