<svg id="Layer_1" enable-background="new 0 0 512 512" viewBox="0 0 512 512" xmlns="http://www.w3.org/2000/svg"><g><g><g><path d="m7.5 256c0 137.243 111.257 248.5 248.5 248.5s248.5-111.257 248.5-248.5l-195.755-5.658z" fill="#54c9f3"/><path d="m276.979 497.5c-134.902 0-244.69-107.495-248.397-241.5h-21.082c0 137.243 111.257 248.5 248.5 248.5 31.343 0 61.323-5.818 88.94-16.408-21.6 6.128-44.398 9.408-67.961 9.408z" fill="#00adeb"/><path d="m367.715 315.471c-13.896-14.036-32.828-21.934-52.579-21.934h-5.281c-37.947 0-68.709 30.762-68.709 68.709 0 36.714-18.32 71.007-48.837 91.418l-41.309 27.629c17.431 8.169 91.408 40.437 179.702 12.624 71.846-22.631 111.612-71.951 124.73-89.847-29.239-29.533-58.478-59.066-87.717-88.599z" fill="#c3f839"/><g><path d="m342.759 481.86c-83.25 26.224-153.763-.961-176.16-11.001l-15.599 10.434c17.431 8.169 91.408 40.437 179.702 12.624 50.601-15.938 85.268-45.105 105.941-67.22-21.152 19.793-52.077 41.994-93.884 55.163z" fill="#abe700"/></g><path d="m136.338 349.633s3.386-48.353-48.742-93.633h-80.096c.079 21.131 2.873 54.974 18.351 92.896 19.07 46.723 47.978 76.562 64.811 91.58 8.192-6.419 42.934-42.049 45.676-90.843z" fill="#c3f839"/><path d="m47.298 343.895c-14.311-35.063-17.776-66.63-18.28-87.895h-21.518c.079 21.131 2.873 54.974 18.351 92.896 19.07 46.723 47.978 76.562 64.811 91.58 2.436-1.909 7.226-6.419 12.818-13.072-16.94-16.616-40.071-44.037-56.182-83.509z" fill="#abe700"/><path d="m503.052 184.008c-6.127 15.873-22.573 27.141-40.668 27.141-20.005 0-36.771-13.772-41.271-32.317-4.516 18.543-21.283 32.317-41.289 32.317-20.005 0-36.771-13.772-41.288-32.312-4.499 18.539-21.266 32.312-41.272 32.312-20.005 0-36.771-13.772-41.271-32.317-4.516 18.543-21.283 32.317-41.29 32.317-20.005 0-36.771-13.772-41.271-32.317-4.516 18.543-21.283 32.317-41.289 32.317-20.005 0-36.771-13.772-41.288-32.312-4.499 18.539-21.266 32.312-41.272 32.312-18.095 0-34.541-11.268-40.668-27.141-.881-2.282-1.331-4.708-1.331-7.154v79.146h496.8v-79.146c-.001 2.446-.451 4.872-1.332 7.154z" fill="#b6e6fa"/><g><path d="m29.052 232.532v-26.452c-9.157-4.777-16.483-12.604-20.137-22.072-.881-2.282-1.331-4.708-1.331-7.154v79.146h496.8v-23.468z" fill="#8ad8f6"/></g><path d="m217.213 49.64 38.787-38.787 38.787 38.787c21.422 21.422 21.422 56.153 0 77.574-21.422 21.422-56.153 21.422-77.574 0-21.422-21.421-21.422-56.152 0-77.574z" fill="#54c9f3"/><path d="m232.288 112.139c-21.422-21.422-21.422-56.153 0-77.575l23.712-23.711-38.787 38.787c-21.422 21.422-21.422 56.153 0 77.575 21.422 21.421 56.153 21.421 77.574 0 2.58-2.58 4.841-5.356 6.8-8.276-21.322 14.303-50.457 12.042-69.299-6.8z" fill="#00adeb"/><path d="m348.639 31.581 20.394-20.394 20.394 20.394c11.263 11.263 11.263 29.524 0 40.787-11.263 11.263-29.524 11.263-40.787 0-11.264-11.262-11.264-29.523-.001-40.787z" fill="#b6e6fa"/><g fill="#8ad8f6"><path d="m369.033 11.188-4.564 4.564z"/><path d="m364.469 56.539c-11.263-11.263-11.263-29.524 0-40.787l-15.83 15.83c-11.263 11.263-11.263 29.524 0 40.787 11.263 11.263 29.524 11.263 40.787 0 2.807-2.807 4.914-6.049 6.321-9.508-10.421 4.24-22.822 2.134-31.278-6.322z"/></g><path d="m122.944 108.821 20.394-20.394 20.394 20.394c11.263 11.263 11.263 29.524 0 40.787-11.263 11.263-29.524 11.263-40.787 0-11.264-11.263-11.264-29.524-.001-40.787z" fill="#b6e6fa"/><g fill="#8ad8f6"><path d="m143.338 88.428-4.564 4.564z"/><path d="m138.774 133.779c-11.263-11.263-11.263-29.524 0-40.787l-15.83 15.83c-11.263 11.263-11.263 29.524 0 40.787 11.263 11.263 29.524 11.263 40.787 0 2.807-2.807 4.914-6.049 6.321-9.508-10.421 4.24-22.822 2.134-31.278-6.322z"/></g></g></g><g><path d="m511.883 176.854h-15c-2.074 15.688-18.687 26.723-34.498 26.795-16.211 0-30.185-11.143-33.983-26.795h-14.575c-3.812 15.656-17.795 26.795-34.002 26.795-16.206 0-30.188-11.141-34.002-26.795h-14.575c-3.798 15.65-17.772 26.795-33.983 26.795-16.21 0-30.185-11.143-33.983-26.795h-14.575c-3.813 15.656-17.795 26.795-34.002 26.795-16.21 0-30.184-11.143-33.982-26.795h-14.576c-3.813 15.656-17.795 26.795-34.002 26.795-16.206 0-30.188-11.141-34.002-26.795h-14.578c-3.798 15.65-17.772 26.795-33.983 26.795-15.807-.07-32.429-11.109-34.499-26.795h-15.083v79.146c0 68.38 26.629 132.668 74.98 181.02 48.353 48.351 112.64 74.98 181.02 74.98s132.668-26.629 181.02-74.98 74.98-112.64 74.98-181.02zm-496.768 86.646h69.647l14.331 14.331c43.352 43.652 37.936 113.596-9.1 152.703-44.478-42.324-72.864-101.413-74.878-167.034zm439.402 128.986-36.396-36.763-10.66 10.553 38.05 38.434c-44.162 56.155-112.691 92.29-189.511 92.29-31.542 0-61.681-6.106-89.317-17.173l29.796-19.929c32.666-21.849 52.167-58.354 52.167-97.652 0-33.751 27.458-61.209 61.209-61.209 19.363-1.027 38.885 5.739 52.528 19.709l33.242 33.599 10.662-10.551-33.243-33.6c-16.441-16.771-39.844-25.251-63.189-24.157-42.022 0-76.209 34.188-76.209 76.209 0 34.281-17.012 66.125-45.506 85.184l-37.673 25.197c-17.755-8.685-34.296-19.479-49.283-32.069 26.183-23.273 43.085-55.502 42.65-90.925h-.004c-.21-32.854-14.263-64.197-37.854-86.133h195.024v-15h-285.917v-42.915c9.224 8.198 21.487 13.064 34.499 13.064 16.952 0 32.194-8.383 41.278-21.663 9.093 13.28 24.338 21.663 41.282 21.663 16.945 0 32.19-8.383 41.284-21.665 9.084 13.28 24.328 21.665 41.277 21.665 16.944 0 32.19-8.385 41.283-21.665 9.085 13.28 24.328 21.665 41.277 21.665 16.952 0 32.194-8.382 41.278-21.663 9.093 13.28 24.338 21.663 41.282 21.663s32.19-8.385 41.283-21.665c9.085 13.28 24.328 21.665 41.277 21.665 13.012 0 25.274-4.866 34.498-13.064v42.915h-180.881v15h180.885c-1.466 47.774-16.916 92.082-42.368 128.986z"/><path d="m38.5 285.795h15v15.484h-15z"/><path d="m68.5 285.795h15v15.484h-15z"/><path d="m256 150.535c16.655 0 32.313-6.486 44.091-18.263 24.189-23.21 24.188-64.972 0-88.182l-44.091-44.09-44.09 44.091c-24.189 23.211-24.19 64.972 0 88.182 11.777 11.776 27.435 18.262 44.09 18.262zm-33.484-95.837 33.484-33.485 33.484 33.485c18.37 17.626 18.37 49.342-.001 66.967-17.626 18.372-49.342 18.37-66.967 0-18.371-17.625-18.37-49.342 0-66.967z"/><path d="m369.032 88.299c9.307 0 18.613-3.542 25.698-10.627 14.168-14.169 14.168-37.225 0-51.395l-25.697-25.696-25.697 25.696c-14.169 14.17-14.169 37.226 0 51.396 7.085 7.084 16.391 10.626 25.696 10.626zm-15.089-51.414 15.09-15.091 15.09 15.09c8.32 8.321 8.32 21.861.001 30.182-8.322 8.322-21.862 8.32-30.181 0-8.321-8.321-8.321-21.861 0-30.181z"/><path d="m143.338 165.538c9.305 0 18.613-3.543 25.697-10.626 14.098-13.528 14.098-37.867 0-51.395l-25.697-25.696-25.697 25.696c-14.098 13.528-14.098 37.867 0 51.395 7.086 7.085 16.389 10.627 25.697 10.626zm-15.09-51.413 15.09-15.091 15.09 15.091c8.279 7.943 8.279 22.237 0 30.18-8.322 8.32-21.861 8.32-30.181 0-8.278-7.943-8.278-22.237.001-30.18z"/></g></g><g/><g/><g/><g/><g/><g/><g/><g/><g/><g/><g/><g/><g/><g/><g/></svg>