<svg id="Layer_1" enable-background="new 0 0 512 512" viewBox="0 0 512 512" xmlns="http://www.w3.org/2000/svg"><g><g><g><circle cx="466" cy="31.002" fill="#e3edf6" r="22.788"/><path d="m482.292 37.498c-12.586 0-22.788-10.203-22.788-22.789 0-1.99.257-3.92.736-5.76-9.796 2.552-17.028 11.457-17.028 22.052 0 12.585 10.203 22.788 22.788 22.788 10.595 0 19.5-7.231 22.052-17.028-1.84.48-3.769.737-5.76.737z" fill="#c5d9ec"/><circle cx="181" cy="61.002" fill="#e3edf6" r="22.788"/><path d="m197.292 67.498c-12.586 0-22.788-10.203-22.788-22.789 0-1.99.257-3.92.736-5.76-9.796 2.552-17.028 11.457-17.028 22.052 0 12.585 10.203 22.788 22.788 22.788 10.595 0 19.5-7.231 22.052-17.028-1.84.48-3.769.737-5.76.737z" fill="#c5d9ec"/><circle cx="31" cy="151.002" fill="#e3edf6" r="22.788"/><path d="m47.292 157.498c-12.586 0-22.788-10.203-22.788-22.789 0-1.99.257-3.92.736-5.76-9.796 2.552-17.028 11.457-17.028 22.052 0 12.585 10.203 22.788 22.788 22.788 10.595 0 19.5-7.231 22.052-17.028-1.84.48-3.769.737-5.76.737z" fill="#c5d9ec"/><path d="m441.979 203.523h-212.17l-26.043-67.17h-88.851l-81.569 216.885 470.878 37.764v-126.362z" fill="#54c9f3"/><path d="m446.405 249.512-.424-.216c-22.424-11.099-45.126-16.591-67.438-16.306-47.784.051-91.767 22.326-120.002 60.197-26.707 1.639-52.31 12.373-72.245 30.209-11.068-3.686-34.208-7.546-49.706-7.236h-65.937l67.624-179.807h-23.362l-81.569 216.885 173.422 13.908c18.395-23.927 46.715-32.049 75.779-28.418l7.007-11.229c19.347-31.002 52.674-49.51 89.149-49.51l.308-.002c15.123-.168 30.849 3.674 46.794 11.532 34.552 18.119 55.972 53.648 55.92 92.811v6.866l22.5 1.805v-87.707c-14.182-22.849-34.161-41.442-57.82-53.782z" fill="#00adeb"/><path d="m103.764 166.002h77.236l32.072 79.373 16.036-43.659-25.342-65.363h-88.851z" fill="#e3edf6"/><g><path d="m114.915 136.353-11.151 29.649h22.979l11.151-29.649z" fill="#c5d9ec"/></g><path d="m349.767 428.601c-40.793 0-79.915-16.205-108.76-45.05-26.602-26.602-61.945-42.453-99.279-44.757l-134.281-.213v165.919h496.777v-75.899z" fill="#e3edf6"/><path d="m31.407 482.819v-144.203l-23.96-.035v165.919h496.777v-21.681z" fill="#c5d9ec"/><path d="m436 269.46c-17.681-8.751-36.924-14.249-57.297-13.971-45.667 0-85.719 24.014-108.237 60.098-29.9-1.515-59.723 11.765-78.674 34.396 17.57 5.889 28.681 13.682 35.719 19.975 34.331 34.151 68.453 57.679 122.92 58.106l153.793-.076v-45.659c.066-48.777-27.649-91.704-68.224-112.869z" fill="#e3edf6"/><path d="m350.51 406.576c-44.939.896-73.275-20.741-103.553-47.322-6.34-5.566-13.126-10.59-20.28-15.032 18.157-14.423 41.588-22.361 65.07-21.171 21.888-35.075 60.345-58.739 104.421-60.036.551-2.04 1.149-4.073 1.854-6.061-6.377-1.04-12.837-1.558-19.317-1.465-45.667 0-85.719 24.014-108.237 60.098-22.021-1.109-44.239 5.833-61.997 18.833-6.159 4.503-11.783 9.718-16.677 15.563 17.57 5.889 28.681 13.682 35.719 19.975 34.331 34.151 68.453 57.679 122.92 58.106l153.793-.076v-21.474z" fill="#c5d9ec"/><circle cx="331" cy="121.002" fill="#e3edf6" r="22.788"/><path d="m347.292 127.498c-12.586 0-22.788-10.203-22.788-22.789 0-1.99.257-3.92.736-5.76-9.796 2.552-17.028 11.457-17.028 22.052 0 12.585 10.203 22.788 22.788 22.788 10.595 0 19.5-7.231 22.052-17.028-1.84.48-3.77.737-5.76.737z" fill="#c5d9ec"/></g></g><g><path d="m31.407 360.853h15.007v15h-15.007z"/><path d="m61.272 360.853h15.007v15h-15.007z"/><path d="m338.701 285.853h15.007v15h-15.007z"/><path d="m368.714 285.853h15.007v15h-15.007z"/><path d="m445.292 196.023h-210.192l-26.054-67.171h-99.222l-76.104 202.27-33.72-.054v180.932h512v-250.506zm-246.523-52.171 22.656 58.409-8.446 22.503-26.787-66.263h-71.492l5.512-14.649zm298.224 238.99v38.259h-147.021c-39.099 0-75.856-15.219-103.502-42.854-12.364-12.358-26.531-22.51-41.899-30.197 18.589-17.724 44.35-26.409 70.116-24.271 21.742-37.418 61.192-60.48 104.512-60.279 13.69 0 27.11 2.378 39.892 7.069l5.172-14.08c-14.445-5.303-29.604-7.989-45.047-7.989-45.568-.101-87.382 22.266-112.601 60h-.001c-29.197-.067-56.886 11.935-76.776 33.082-16.945-6.39-35.244-10.382-53.516-10.319h-15.207l-.021 15 20.509.03c35.758 2.261 69.383 17.513 94.641 42.948 30.111 30.322 71.429 46.859 114.172 46.859h146.577v60.9h-481.986v-150.906l91.08.146.025-15-56.37-.092 59.315-157.646h67.014l29.116 72.026-6.734 17.943h-52.902v15h63.301l25.313-67.447h204.992l57.837 56.764v53.179c-12.65-24.602-32.901-44.967-57.28-57.645l-6.941 13.299c39.674 20.685 64.282 61.383 64.22 106.221z"/><path d="m466.256 60.576c16.708 0 30.301-13.587 30.301-30.288s-13.592-30.288-30.301-30.288-30.301 13.587-30.301 30.288 13.593 30.288 30.301 30.288zm0-45.576c8.433 0 15.295 6.858 15.295 15.288s-6.861 15.288-15.295 15.288c-8.433 0-15.295-6.858-15.295-15.288s6.862-15.288 15.295-15.288z"/><path d="m331.197 151.29c16.708 0 30.301-13.587 30.301-30.288s-13.593-30.288-30.301-30.288-30.301 13.587-30.301 30.288 13.593 30.288 30.301 30.288zm0-45.576c8.433 0 15.295 6.858 15.295 15.288s-6.861 15.288-15.295 15.288c-8.433 0-15.295-6.858-15.295-15.288s6.862-15.288 15.295-15.288z"/><path d="m181.132 91.29c16.708 0 30.301-13.587 30.301-30.288s-13.593-30.288-30.301-30.288-30.301 13.587-30.301 30.288 13.592 30.288 30.301 30.288zm0-45.576c8.433 0 15.295 6.858 15.295 15.288s-6.861 15.288-15.295 15.288c-8.433 0-15.295-6.858-15.295-15.288s6.861-15.288 15.295-15.288z"/><path d="m30.354 181.29c16.708 0 30.301-13.587 30.301-30.288s-13.593-30.288-30.301-30.288-30.301 13.587-30.301 30.288 13.593 30.288 30.301 30.288zm0-45.576c8.433 0 15.295 6.858 15.295 15.288s-6.861 15.288-15.295 15.288-15.295-6.858-15.295-15.288 6.862-15.288 15.295-15.288z"/></g></g><g/><g/><g/><g/><g/><g/><g/><g/><g/><g/><g/><g/><g/><g/><g/></svg>