<svg id="Layer_1" enable-background="new 0 0 512.004 512.004" viewBox="0 0 512.004 512.004" xmlns="http://www.w3.org/2000/svg"><g><g><g><path d="m512.004 504h-512.004v-323.34l166-11.213 346.004 11.213z" fill="#c3f839"/><path d="m14.719 372.713v-192.053h-14.719v323.34h512.004v-14.719h-380.717c-64.379.001-116.568-52.189-116.568-116.568z" fill="#abe700"/><path d="m323.255 270.809c0-33.278-26.977-60.255-60.255-60.255h-112.5c-78.977 0-143 64.023-143 143 0 78.977 64.023 143 143 143h270.633c45.699 0 82.745-37.046 82.745-82.745 0-45.699-37.046-82.745-82.745-82.745h-37.622c-33.278 0-60.256-26.977-60.256-60.255z" fill="#54c9f3"/><path d="m433.075 473.83h-270.633c-78.977 0-143-64.124-143-143.101 0-19.32 3.84-37.74 10.784-54.551-14.379 22.304-22.726 48.864-22.726 77.375 0 78.977 64.023 143 143 143h270.633c36.432 0 67.341-23.555 78.388-56.258-15.08 20.287-39.226 33.535-66.446 33.535z" fill="#00adeb"/><path d="m80.211 143.054c-4.871 0-9.428 1.336-13.332 3.656-4.801-15.045-18.887-25.943-35.524-25.943-13.168 0-24.721 6.84-31.355 17.147v42.747h106.355v-11.463c0-14.44-11.705-26.144-26.144-26.144z" fill="#00ce8b"/><path d="m15.097 157.923v-33.419c-6.177 3.007-11.402 7.668-15.097 13.409v42.747h106.355v-11.463c0-4.121-.957-7.806-2.656-11.274z" fill="#00a666"/><path d="m229.856 143.054c-4.871 0-9.428 1.336-13.332 3.656-4.801-15.045-18.887-25.943-35.524-25.943-13.638 0-25.56 7.325-32.061 18.252-3.91-1.9-8.299-2.968-12.939-2.968-16.373 0-29.645 13.273-29.645 29.645v14.964h149.645v-11.463c0-14.439-11.705-26.143-26.144-26.143z" fill="#00ce8b"/><path d="m128.525 157.923v-15.398c0-1.933.191-3.822.545-5.652-13.028 3.122-22.715 14.837-22.715 28.822v14.964h149.645v-11.463c0-4.21-1.001-7.751-2.769-11.274h-124.706z" fill="#00a666"/><path d="m512.004 138.444c-6.572-10.61-18.316-17.677-31.714-17.677-13.638 0-25.56 7.325-32.061 18.252-3.91-1.9-8.299-2.968-12.939-2.968-16.373 0-29.645 13.273-29.645 29.645v14.964h106.355z" fill="#00ce8b"/><path d="m427.815 157.923v-15.398c0-1.933.191-3.822.545-5.652-13.028 3.122-22.715 14.837-22.715 28.822v14.964h106.355v-22.737h-84.185z" fill="#00a666"/><path d="m106 105.554c-16.569 0-30-13.431-30-30v-30c0-16.569 13.431-30 30-30 16.569 0 30 13.431 30 30v30c0 16.568-13.431 30-30 30z" fill="#c3f839"/><path d="m98.499 75.554v-30c0-12.599 7.718-23.377 18.724-27.821-3.468-1.4-7.254-2.179-11.223-2.179-16.569 0-30 13.431-30 30v30c0 16.569 13.431 30 30 30 3.97 0 7.755-.778 11.223-2.179-11.006-4.445-18.724-15.223-18.724-27.821z" fill="#abe700"/><path d="m255.823 105.554c-16.569 0-30-13.431-30-30v-30c0-16.569 13.431-30 30-30 16.569 0 30 13.431 30 30v30c0 16.568-13.432 30-30 30z" fill="#c3f839"/><path d="m248.498 75.554v-30c0-12.599 7.541-23.377 18.548-27.821-3.468-1.4-7.254-2.179-11.223-2.179-16.569 0-30 13.431-30 30v30c0 16.569 13.431 30 30 30 3.97 0 7.755-.778 11.223-2.179-11.007-4.445-18.548-15.223-18.548-27.821z" fill="#abe700"/><path d="m405.645 105.554c-16.569 0-30-13.431-30-30v-30c0-16.569 13.431-30 30-30 16.569 0 30 13.431 30 30v30c0 16.568-13.431 30-30 30z" fill="#c3f839"/><path d="m398.497 75.554v-30c0-12.599 7.365-23.377 18.371-27.821-3.468-1.4-7.254-2.179-11.223-2.179-16.569 0-30 13.431-30 30v30c0 16.569 13.431 30 30 30 3.97 0 7.755-.778 11.223-2.179-11.006-4.445-18.371-15.223-18.371-27.821z" fill="#abe700"/><path d="m478.356 248c-4.871 0-9.428 1.336-13.332 3.656-4.801-15.045-18.887-25.943-35.524-25.943-13.638 0-25.56 7.325-32.061 18.252-3.91-1.9-8.299-2.968-12.939-2.968-16.373 0-29.645 13.273-29.645 29.645s13.272 29.645 29.645 29.645h93.856c14.439 0 26.144-11.705 26.144-26.144s-11.705-26.143-26.144-26.143z" fill="#00ce8b"/><path d="m393.596 278.553c-16.249 0-29.437-13.074-29.636-29.276-5.609 5.394-9.105 12.969-9.105 21.365 0 16.372 13.272 29.645 29.645 29.645h93.856c12.935 0 23.669-9.396 25.766-21.734z" fill="#00a666"/><path d="m131.001 444.266c-4.871 0-9.428 1.336-13.332 3.656-4.801-15.045-18.887-25.943-35.524-25.943-13.638 0-25.56 7.325-32.061 18.252-3.91-1.9-8.299-2.968-12.939-2.968-16.373 0-29.645 13.273-29.645 29.645s13.272 29.645 29.645 29.645h93.856c14.439 0 26.144-11.705 26.144-26.144s-11.705-26.143-26.144-26.143z" fill="#00ce8b"/><path d="m46.241 473.83c-16.249 0-29.437-12.085-29.636-28.286-5.609 5.394-9.105 12.969-9.105 21.365 0 16.372 13.272 29.645 29.645 29.645h93.856c12.935 0 23.669-10.385 25.766-22.723h-110.526z" fill="#00a666"/><path d="m379.501 143.054c-4.871 0-9.428 1.336-13.332 3.656-4.801-15.045-18.887-25.943-35.524-25.943-13.638 0-25.56 7.325-32.061 18.252-3.91-1.9-8.299-2.968-12.939-2.968-16.373 0-29.645 13.273-29.645 29.645v14.964h149.645v-11.463c0-14.439-11.705-26.143-26.144-26.143z" fill="#00ce8b"/><path d="m278.17 157.923v-15.398c0-1.933.191-3.822.545-5.652-13.028 3.122-22.715 14.838-22.715 28.823v14.964h149.645v-11.463c0-4.21-1.001-7.751-2.769-11.274z" fill="#00a666"/><g><path d="m106 248.16h15v15h-15z" fill="#fff"/></g><g><path d="m136 248.16h15v15h-15z" fill="#fff"/></g></g></g><g><path d="m421.753 323.512h-37.99c-29.089 0-52.754-23.666-52.754-52.755 0-37.36-30.394-67.755-67.754-67.755h-112.756c-82.986.001-150.499 67.514-150.499 150.499 0 28.325 7.747 55.471 22.508 79.22-36.5 15.717-25.674 71.031 14.637 71.279h308.852v-15h-187.008c17.437-25.409-7.701-59.913-37.358-50.957-13.877-27.823-55.34-31.709-74.345-6.934-2.853-.81-5.798-1.249-8.806-1.354-15.376-22.514-23.48-48.764-23.48-76.254 0-74.714 60.785-135.499 135.499-135.499h112.755c29.089 0 52.754 23.666 52.754 52.755 0 37.36 30.394 67.755 67.754 67.755h37.99c41.489 0 75.244 33.754 75.244 75.244s-33.754 75.244-75.243 75.244h-60.755v15h60.755c49.76 0 90.243-40.483 90.243-90.244s-40.483-90.244-90.243-90.244zm-374.947 123.413 6.199 3.012 3.523-5.923c12.619-21.879 46.688-18.109 53.995 6.136 0-.001 2.868 8.986 2.868 8.986l8.109-4.819c11.908-7.449 28.504 1.936 28.142 16.041 0 10.28-8.363 18.643-18.642 18.643h-93.856c-12.211-.001-22.144-9.935-22.144-22.145-.354-15.981 17.618-27.182 31.806-19.931z"/><path d="m478.729 240.449c-3.185 0-6.339.452-9.369 1.331-13.878-27.823-55.338-31.708-74.345-6.934-54.648-12.281-66.116 69.787-10.141 72.89-.001 0 93.855 0 93.855 0 44.332-1.155 44.381-66.121 0-67.287zm0 52.287h-93.856c-12.211 0-22.145-9.934-22.145-22.145-.359-15.98 17.622-27.181 31.807-19.931 0 0 6.198 3.012 6.198 3.012l3.524-5.922c12.619-21.878 46.688-18.11 53.995 6.136 0-.001 2.867 8.984 2.867 8.984 4.994-2.825 11.55-7.852 17.61-7.42 24.583.642 24.578 36.645 0 37.286z"/><path d="m413.141 165.645c-.359-15.981 17.623-27.18 31.807-19.931 0 0 6.198 3.011 6.198 3.011l3.524-5.922c5.353-8.998 15.17-14.587 25.616-14.587 16.88.072 24.298 11.304 31.71 24.585v-26.447c-8.298-8.357-19.587-13.138-31.71-13.138-13.566 0-26.424 6.266-34.859 16.683-10.711-3.18-23.301-.793-31.93 5.691v-23.342c17.096-3.484 30-18.635 30-36.745v-30c0-20.677-16.822-37.5-37.5-37.5s-37.5 16.822-37.5 37.5v30c0 18.11 12.904 33.261 30 36.745v29.152c-7.799-5.527-18.907-7.436-28.368-4.567-7.679-14.396-22.689-23.617-39.487-23.617-13.567 0-26.424 6.265-34.858 16.683-10.857-3.224-23.622-.728-32.286 5.943v-23.594c17.096-3.484 30-18.635 30-36.745v-30c0-20.677-16.822-37.5-37.5-37.5s-37.5 16.822-37.5 37.5v30c0 18.11 12.904 33.261 30 36.745v28.909c-7.756-5.345-18.695-7.149-28.012-4.324-13.879-27.823-55.338-31.708-74.346-6.934-11.009-3.273-23.945-.651-32.64 6.218v-23.869c17.096-3.484 30-18.635 30-36.745v-30c0-20.677-16.822-37.5-37.5-37.5s-37.5 16.822-37.5 37.5v30c0 18.11 12.904 33.261 30 36.745v28.681c-7.712-5.172-18.48-6.878-27.658-4.096-7.68-14.396-22.689-23.618-39.486-23.618-11.782 0-23.076 4.724-31.355 12.789v25.774c7.563-12.875 14.912-23.383 31.355-23.563 18.771.557 27.09 12.916 31.245 29.707l8.108-4.816c14.504-8.22 28.146 3.524 28.146 20.002h-98.855v15h150.999v-15h-37.144v-7.464c0-12.21 9.934-22.144 22.144-22.144 5.452-.287 11.126 2.894 15.859 5.225l3.524-5.922c12.619-21.878 46.688-18.11 53.995 6.136 0-.001 2.867 8.984 2.867 8.984l8.108-4.816c14.505-8.22 30.216 3.948 28.145 20.002h-82.499v15h346.002v-15h-98.859zm-314.642-105.141v36.21c-8.729-3.096-15-11.432-15-21.21v-30c0-12.407 10.094-22.5 22.5-22.5s22.5 10.093 22.5 22.5v30c0 9.777-6.271 18.114-15 21.21v-36.21zm284.998 15v-30c0-12.407 10.094-22.5 22.5-22.5s22.5 10.093 22.5 22.5v30c0 9.777-6.271 18.114-15 21.21v-36.21h-15v36.21c-8.729-3.097-15-11.433-15-21.21zm-149.999 0v-30c0-12.407 10.094-22.5 22.5-22.5s22.5 10.093 22.5 22.5v30c0 9.777-6.271 18.114-15 21.21v-36.21h-15v36.21c-8.729-3.097-15-11.433-15-21.21zm30 90.141c-.36-15.982 17.622-27.179 31.807-19.931 0 0 6.199 3.012 6.199 3.012l3.523-5.923c5.353-8.997 15.168-14.587 25.615-14.587 13.019 0 24.425 8.328 28.38 20.723l2.868 8.986 8.108-4.818c14.503-8.219 28.143 3.013 28.143 20.003h-134.643z"/><path d="m76.355 278.044h74.644v15h-74.644z"/><path d="m166.354 278.044h44.644v15h-44.644z"/><path d="m181.176 337.874h74.644v15h-74.644z"/><path d="m271.176 337.874h44.644v15h-44.644z"/><path d="m136.24 397.703h74.645v15h-74.645z"/><path d="m226.239 397.703h44.645v15h-44.645z"/><path d="m300.998 458.83h74.644v15h-74.644z"/><path d="m390.997 458.83h44.644v15h-44.644z"/></g></g><g/><g/><g/><g/><g/><g/><g/><g/><g/><g/><g/><g/><g/><g/><g/></svg>