<svg id="Layer_1" enable-background="new 0 0 512 512" viewBox="0 0 512 512" xmlns="http://www.w3.org/2000/svg"><g><g><g><path d="m474.5 121.002c0 20.711 16.789 37.5 37.5 37.5-20.711 0-37.5 16.789-37.5 37.5 0-20.711-16.789-37.5-37.5-37.5 20.711 0 37.5-16.789 37.5-37.5z" fill="#f7d700"/><path d="m487.989 226.554-98.956 16.039-53.878 108.49-9.17 78.188h73.64l104.404-103.761z" fill="#b6e6fa"/><path d="m24.54 226.554 98.956 16.039 53.878 108.49 9.17 78.188h-73.64l-104.404-103.761z" fill="#b6e6fa"/><path d="m121.772 407.309-89.91-89.357 14.247-87.902-21.569-3.496-16.04 98.956 104.404 103.761h73.64l-2.576-21.962z" fill="#8ad8f6"/><path d="m357.453 355.296 58.105-117.003-26.525 4.3-53.878 108.49-9.17 78.188h73.64l22.099-21.962h-70.371z" fill="#8ad8f6"/><path d="m256 11.002-106.237 110 36.252 307.987h139.97l36.252-307.987z" fill="#54c9f3"/><path d="m302.199 407.309 21.375-289.307-26.804-64.785-40.77-42.215 45.511 110-21.154 286.307h-26.197l-20.213-282.158 34.074-85.094-12.021-29.055-106.237 110 36.252 307.987h139.97l2.552-21.681h-26.338zm-96.981 0-32.875-279.297 61.48-61.628-21.93 54.767 20.5 286.158z" fill="#00adeb"/><path d="m459 458.989h-38l-15-30h-300l-15 30h-38c-25.129 0-45.5 20.371-45.5 45.5h497c0-25.129-20.371-45.5-45.5-45.5z" fill="#e3994b"/><g fill="#c38340"><path d="m498.398 481.739h-462.04c7.868-13.596 22.559-22.75 39.398-22.75h-22.756c-25.316-.161-45.684 21.086-45.5 45.5h497c0-8.29-2.228-16.055-6.102-22.75z"/><path d="m128.755 428.989h-22.755l-18.734 37.51h22.755z"/></g><path d="m400.606 31.581 20.394-20.393 20.394 20.394c11.263 11.263 11.263 29.524 0 40.787-11.263 11.263-29.524 11.263-40.787 0-11.264-11.263-11.264-29.524-.001-40.788z" fill="#b6e6fa"/><path d="m416.713 56.262c-11.263-11.263-11.263-29.524 0-40.787l-16.106 16.106c-11.263 11.263-11.263 29.524 0 40.787 11.263 11.263 29.524 11.263 40.787 0 2.861-2.861 4.991-6.174 6.398-9.708-10.381 4.135-22.677 2.005-31.079-6.398z" fill="#8ad8f6"/><path d="m55.606 146.986 20.394-20.394 20.394 20.394c11.263 11.263 11.263 29.524 0 40.787-11.263 11.263-29.524 11.263-40.787 0-11.264-11.263-11.264-29.524-.001-40.787z" fill="#b6e6fa"/><path d="m71.713 171.666c-11.263-11.263-11.263-29.524 0-40.787l-16.106 16.106c-11.263 11.263-11.263 29.524 0 40.787 11.263 11.263 29.524 11.263 40.787 0 2.861-2.861 4.991-6.174 6.398-9.708-10.381 4.135-22.677 2.005-31.079-6.398z" fill="#8ad8f6"/><path d="m37.5 0c0 20.711 16.789 37.5 37.5 37.5-20.711 0-37.5 16.789-37.5 37.5 0-20.711-16.789-37.5-37.5-37.5 20.711 0 37.5-16.789 37.5-37.5z" fill="#f7d700"/></g></g><g><path d="m458.957 451.499h-33.362l-12.523-25.048 98.928-98.331-17.854-110.165-110.153 17.856-36.372 73.248 22.445-190.708-114.09-118.145-114.091 118.145 22.281 189.313-35.679-71.854-110.153-17.855-17.854 110.165 98.575 97.98-12.698 25.399h-33.362c-29.222 0-52.995 23.776-52.995 53.001v7.5h435.959v-15h-420.217c3.492-17.374 18.868-30.501 37.253-30.501h42.631l14.999-30.001h290.703l14.999 30.001h42.631c18.385 0 33.762 13.126 37.253 30.501h-45.253v15h60.994v-7.5c0-29.225-23.773-53.001-52.995-53.001zm-64.957-202.114 87.741-14.223 14.221 87.751-99.185 98.585h-62.389l8.031-68.235zm-226.583-135.881 67.375-69.769-27.934 69.769zm139.078 0-28.508-68.912 66.547 68.912zm-50.405-82.608 34.175 82.609h-67.25zm97.679 97.609-34.483 292.993h-32.484l21.646-292.993zm-195.586 0h46.699l9.172 128.039 14.96-1.072-9.094-126.967h73.49l-21.646 292.993h-30.857l-10.818-151.027-14.96 1.072 10.742 149.954h-33.205zm-127.444 106.657 87.741 14.223 50.888 102.479 8.196 69.634h-61.861l-99.185-98.585z"/><path d="m420.961 87.721c9.305 0 18.611-3.543 25.695-10.628 14.167-14.169 14.167-37.225 0-51.396l-25.695-25.697-25.695 25.697v.001c-14.167 14.169-14.167 37.225 0 51.396 7.084 7.084 16.389 10.627 25.695 10.627zm-15.089-51.418 15.088-15.09 15.088 15.09c8.32 8.321 8.32 21.862 0 30.182-8.319 8.32-21.858 8.321-30.177.001-8.318-8.321-8.318-21.861.001-30.183z"/><path d="m50.298 141.281c-14.167 14.169-14.167 37.225 0 51.396 14.169 14.169 37.221 14.17 51.39-.001 14.167-14.169 14.167-37.225 0-51.396l-25.695-25.697zm10.606 10.606 15.088-15.09 15.088 15.09c8.32 8.321 8.32 21.862 0 30.182-8.319 8.32-21.858 8.321-30.177.001-8.318-8.321-8.318-21.862.001-30.183z"/><path d="m436.959 166.005c16.54 0 29.997 13.458 29.997 30.001h14.999c0-16.542 13.457-30.001 29.997-30.001v-15c-16.54 0-29.997-13.458-29.997-30.001h-14.999c0 16.542-13.457 30.001-29.997 30.001zm37.497-20.149c3.331 5.011 7.638 9.319 12.648 12.65-5.01 3.331-9.317 7.639-12.648 12.65-3.331-5.011-7.638-9.319-12.648-12.65 5.01-3.332 9.317-7.64 12.648-12.65z"/><path d="m29.997 75.002h14.999c0-16.542 13.457-30.001 29.997-30.001v-15c-16.54 0-29.997-13.458-29.997-30.001h-14.999c0 16.542-13.457 30.001-29.997 30.001v15c16.54 0 29.997 13.458 29.997 30.001zm7.499-50.151c3.331 5.011 7.638 9.319 12.648 12.65-5.01 3.331-9.317 7.639-12.648 12.65-3.331-5.011-7.638-9.319-12.648-12.65 5.011-3.331 9.318-7.639 12.648-12.65z"/></g></g><g/><g/><g/><g/><g/><g/><g/><g/><g/><g/><g/><g/><g/><g/><g/></svg>