<svg id="Layer_1" enable-background="new 0 0 512 512" viewBox="0 0 512 512" xmlns="http://www.w3.org/2000/svg"><g><g><g><path d="m228.828 192.146 90.366-90.367c15.089-15.089 39.554-15.089 54.644 0l138.162 138.163v31.288l-51.388-.748c-68.63-.999-135.758-20.25-194.487-55.774z" fill="#e3994b"/><path d="m468.804 247.883c-68.63-.999-135.758-20.25-194.487-55.774l-8.152-4.931 80.802-80.802-18.487-13.881-99.651 99.651 37.297 22.561c58.729 35.524 125.857 54.775 194.487 55.774l51.387.748v-22.718z" fill="#c38340"/><path d="m0 226 7.5-7.111c41.554-38.911 77.714-50.47 101.585-52.66 116.915-10.723 137.926 62.561 266.915 93.447 54.166 12.97 136 11.553 136 11.553v240.771h-512z" fill="#f7bd83"/><path d="m15.76 496.24v-284.786c-2.729 2.363-5.481 4.833-8.26 7.435l-7.5 7.111v286h512v-15.76z" fill="#f3a451"/><path d="m421.665 339.5h-46.412c-13.747-26.706-41.694-45-73.959-45h-210.545c-45.863 0-83.042 36.936-83.042 82.5 0 45.563 37.179 82.5 83.042 82.5h46.412c13.747 26.706 41.694 45 73.959 45h210.546c45.863 0 83.042-36.936 83.042-82.5-.001-45.564-37.18-82.5-83.043-82.5z" fill="#54c9f3"/><path d="m445.939 481.117h-232.769c-32.266 0-51.064-21.202-61.277-44.891h-59.871c-43.446 0-79.076-33.152-82.713-75.378-1.044 5.224-1.602 10.623-1.602 16.152 0 45.563 37.179 82.5 83.042 82.5h46.412c13.747 26.706 41.694 45 73.959 45h210.546c28.514 0 53.664-14.283 68.617-36.035-12.833 8.071-28.033 12.652-44.344 12.652z" fill="#00adeb"/><g><path d="m76 316.16h15v15h-15z" fill="#fff"/></g><g><path d="m106 316.16h15v15h-15z" fill="#fff"/></g><circle cx="466" cy="45.389" fill="#fee95d" r="37.457"/><path d="m482.34 66.506c-20.687 0-37.457-16.77-37.457-37.457 0-6.132 1.483-11.914 4.095-17.022-12.127 6.2-20.435 18.807-20.435 33.363 0 20.687 16.77 37.457 37.458 37.457 14.556 0 27.163-8.308 33.363-20.435-5.11 2.611-10.892 4.094-17.024 4.094z" fill="#f7d700"/></g></g><g><path d="m0 215.665v20.67c37.021-39.384 84.559-62.263 109.829-62.637 64.128-5.885 97.386 13.939 139.5 39.036 31.991 19.064 68.251 40.672 124.877 54.236 50.789 11.587 108.895 11.825 137.794 11.758v-14.998c-.801.015-81.724 1.247-134.303-11.348-31.598-7.569-56.715-17.822-78.315-28.715 3.982-5.462 9.507-12.113 13.339-15.867 22.047-21.277 56.328-23.817 55.438-65.655-.803-20.325-8.464-34.462-16.284-43.711 6.261 1.089 12.029 4.06 16.615 8.648l143.51 143.674v-21.214l-132.909-133.066c-8.71-8.714-20.293-13.514-32.612-13.514s-23.901 4.799-32.612 13.514l-30.319 30.331 10.603 10.606c6.039-5.243 31.713-33.95 38.919-36.429 7.431 5.85 19.193 18.686 20.105 41.754 1.603 31.652-32.626 34.624-50.945 54.344-4.946 4.845-11.66 13.005-16.242 19.535-15.961-8.733-29.762-17.395-44.875-26.145l41.611-41.627-10.604-10.605-44.624 44.641c-32.209-17.202-66.207-28.966-119.037-24.12-15.775 1.448-37.488 6.784-62.944 21.857v-30.103h4.466c14.037 0 25.457-11.425 25.457-25.468v-19.585h-14.993v19.585c0 5.772-4.694 10.468-10.464 10.468h-4.466v-45.053h-14.993v60.117h-4.658c-5.769 0-10.464-4.696-10.464-10.468v-19.649h-15.4v19.649c0 14.043 11.826 25.468 25.864 25.468h4.658v24.792c-12.319 8.523-30.522 25.294-30.522 25.294z"/><path d="m421.598 332h-41.951c-16.173-27.874-45.789-45-78.372-45h-165.067v-30.947h4.467c14.037 0 25.457-11.425 25.457-25.468v-19.585h-14.994v19.585c0 5.772-4.694 10.468-10.464 10.468h-4.467v-45.053h-14.994v60.117h-4.657c-5.769 0-10.464-4.696-10.464-10.468v-19.649h-14.993v19.649c0 14.043 11.42 25.468 25.457 25.468h4.657v15.883h-30.398c-49.905 0-90.711 40.374-90.711 90s40.807 90 90.711 90h41.952c16.172 27.874 45.788 45 78.372 45h29.868v-15h-29.868c-30.161.126-56.979-17.755-69.358-45h-50.966c-41.636 0-75.51-33.645-75.51-75s33.874-75 75.51-75h210.461c30.159-.126 56.978 17.755 69.358 45h50.965c41.637 0 75.511 33.645 75.511 75 .032 41.68-34.483 75.518-76.427 75v-30.947h4.467c14.037 0 25.457-11.425 25.457-25.468v-19.585h-14.994v19.585c0 5.772-4.694 10.468-10.464 10.468h-4.467v-45.053h-14.994v60.117h-4.657c-5.769 0-10.464-4.696-10.464-10.468v-19.649h-14.994v19.649c0 14.043 11.42 25.468 25.457 25.468h4.657v15.883h-149.48v15h165.391c49.905 0 90.402-40.374 90.402-90s-40.497-90-90.402-90z"/><path d="m46.44 346.096h74.614v15h-74.614z"/><path d="m136.404 346.096h44.626v15h-44.626z"/><path d="m166.036 392h74.614v15h-74.614z"/><path d="m256 392h44.626v15h-44.626z"/><path d="m225.013 451.415h74.614v15h-74.614z"/><path d="m314.976 451.415h44.626v15h-44.626z"/><path d="m467.061 89.915c24.779 0 44.939-20.168 44.939-44.957s-20.16-44.958-44.939-44.958-44.939 20.168-44.939 44.958 20.16 44.957 44.939 44.957zm0-74.915c16.512 0 29.945 13.439 29.945 29.958s-13.433 29.958-29.945 29.958-29.945-13.439-29.945-29.958 13.433-29.958 29.945-29.958z"/></g></g><g/><g/><g/><g/><g/><g/><g/><g/><g/><g/><g/><g/><g/><g/><g/></svg>