<svg id="Layer_1" enable-background="new 0 0 512 512" viewBox="0 0 512 512" xmlns="http://www.w3.org/2000/svg"><g><g><g><path d="m232.969 19.453c13.611 17.07 36.831 32.175 31.697 56.256l-12.579 9.525-17.409-11.357-51.177-57.152c14.414-12.907 36.561-11.685 49.468 2.728z" fill="#00a666"/><path d="m189.494 79.559c14.653-5.26 28.206-11.476 41.907-6.641l-14.605 34.293-49.458 16.66c-6.119-18.355 3.801-38.194 22.156-44.312z" fill="#00ce8b"/><path d="m212.482 79.559c6.463-2.32 12.711-4.824 18.853-6.486l.066-.155c-13.701-4.835-27.254 1.381-41.907 6.641-18.355 6.117-28.275 25.957-22.156 44.312l21.404-7.21c-1.803-16.077 7.775-31.78 23.74-37.102z" fill="#00a666"/><path d="m317.886 79.559c-14.653-5.26-28.206-11.476-41.907-6.641l14.605 34.293 49.458 16.66c6.118-18.355-3.801-38.194-22.156-44.312z" fill="#00ce8b"/><path d="m275.601 19.453c-13.611 17.07-36.831 32.175-31.697 56.256l12.579 9.525 17.409-11.357 51.177-57.152c-14.414-12.907-36.561-11.685-49.468 2.728z" fill="#00ce8b"/><path d="m275.979 72.918 14.605 34.293 19.874 6.695c3.446-5.838 5.431-12.641 5.431-19.911 0-5.895-1.309-11.482-3.638-16.499-12.527-4.62-24.344-8.787-36.272-4.578z" fill="#00a666"/><path d="m276.656 54.761c-13.981 0-26.245 7.319-33.194 18.329.114.862.253 1.733.442 2.619l12.579 9.525 17.409-11.357 15.28-17.064c-3.932-1.324-8.138-2.052-12.516-2.052z" fill="#00a666"/><path d="m281.73 235.97h-50.777l11.635-129.289h27.811z" fill="#e3994b"/><path d="m233.053 212.633-2.1 23.336h50.776l-2.038-23.251c-7.86-.975-15.782-1.469-23.709-1.463-7.664-.005-15.324.466-22.929 1.378z" fill="#c38340"/><path d="m330.992 253.04.011-.01c-22.907-12.491-48.929-19.067-75.019-19.047-26.09-.02-52.112 6.556-75.019 19.047l.011.01c-28.01 15.261-50.865 38.792-65.262 67.326h280.541c-14.398-28.534-37.253-52.065-65.263-67.326z" fill="#c3f839"/><path d="m384.626 300.983-9.056-11.531h-59.484c-3.161 7.378-10.482 12.097-18.822 12.097-8.338 0-15.658-4.719-18.82-12.097h-44.907c-3.174 7.379-10.497 12.097-18.833 12.097-8.338 0-15.658-4.719-18.82-12.097h-33.713c12.464-14.626 27.549-27.149 44.551-36.412l-.011-.01c19.133-10.433 40.442-16.722 62.146-18.505-4.281-.352-8.575-.545-12.873-.542-26.09-.02-52.112 6.556-75.019 19.047l.011.01c-21.374 11.646-39.731 28.118-53.634 47.943-4.328 6.166-8.223 12.655-11.628 19.383h280.541c-3.412-6.76-7.313-13.228-11.629-19.383z" fill="#abe700"/><path d="m8.583 289.362c0 2.446.45 4.872 1.331 7.154 6.127 15.873 21.573 27.141 39.668 27.141 20.006 0 36.774-13.774 41.272-32.312 4.517 18.541 21.284 32.312 41.288 32.312 20.006 0 36.774-13.774 41.289-32.317 4.5 18.545 21.266 32.317 41.271 32.317 20.006 0 36.774-13.774 41.289-32.317 4.5 18.545 21.266 32.317 41.271 32.317 20.006 0 36.774-13.774 41.272-32.312 4.517 18.541 21.284 32.312 41.288 32.312 20.006 0 36.774-13.774 41.289-32.317 4.5 18.545 21.266 32.317 41.271 32.317 18.095 0 34.541-11.268 40.668-27.141.881-2.281 1.331-4.708 1.331-7.154v102.766h-495.798z" fill="#b6e6fa"/><path d="m482.191 349.503c-3.185 7.167-11.358 12.173-19.806 12.173-8.338 0-15.658-4.795-18.82-12.173h-44.907c-3.174 7.379-10.498 12.173-18.833 12.173s-15.659-4.794-18.833-12.173h-44.905c-3.161 7.378-10.482 12.173-18.822 12.173-8.338 0-15.658-4.795-18.82-12.173h-44.907c-3.174 7.379-10.497 12.173-18.833 12.173-8.338 0-15.658-4.795-18.82-12.173h-44.907c-3.174 7.379-10.498 12.173-18.834 12.173-8.335 0-15.659-4.794-18.834-12.173h-44.906c-3.161 7.378-10.482 12.173-18.822 12.173-8.152 0-15.573-4.912-18.786-12.294v-30.08c-9.529-4.688-17.039-12.831-20.882-22.787-.881-2.281-1.331-4.708-1.331-7.153v102.766h495.8v-42.624h-22.192z" fill="#8ad8f6"/><path d="m8.583 349.382c0 2.445.45 4.872 1.331 7.154 6.127 15.873 21.573 27.141 39.668 27.141 20.006 0 36.774-13.774 41.272-32.312 4.517 18.541 21.284 32.312 41.288 32.312 20.006 0 36.774-13.774 41.289-32.317 4.5 18.545 21.266 32.317 41.271 32.317 20.006 0 36.774-13.774 41.289-32.317 4.5 18.545 21.266 32.317 41.271 32.317 20.006 0 36.774-13.774 41.272-32.312 4.517 18.541 21.284 32.312 41.288 32.312 20.006 0 36.774-13.774 41.289-32.317 4.5 18.545 21.266 32.317 41.271 32.317 18.095 0 34.541-11.268 40.668-27.141.881-2.281 1.331-4.708 1.331-7.154v102.766h-495.798z" fill="#54c9f3"/><path d="m482.191 409.556c-3.185 7.167-11.358 12.14-19.806 12.14-8.338 0-15.658-4.762-18.82-12.14h-44.907c-3.174 7.379-10.498 12.14-18.833 12.14s-15.659-4.762-18.833-12.14h-44.905c-3.161 7.378-10.482 12.14-18.822 12.14-8.338 0-15.658-4.762-18.82-12.14h-44.907c-3.174 7.379-10.497 12.14-18.833 12.14-8.338 0-15.658-4.762-18.82-12.14h-44.907c-3.174 7.379-10.498 12.14-18.834 12.14-8.335 0-15.659-4.762-18.834-12.14h-44.906c-3.161 7.378-10.482 12.14-18.822 12.14-8.152 0-15.573-4.758-18.786-12.14v-30.234c-9.529-4.688-17.039-12.831-20.882-22.787-.881-2.281-1.331-4.708-1.331-7.153v102.766h495.8v-42.592z" fill="#00adeb"/><path d="m8.583 409.401c0 2.445.45 4.872 1.331 7.154 6.127 15.873 21.573 27.141 39.668 27.141 20.006 0 36.774-13.774 41.272-32.312 4.517 18.541 21.284 32.312 41.288 32.312 20.006 0 36.774-13.774 41.289-32.317 4.5 18.545 21.266 32.317 41.271 32.317 20.006 0 36.774-13.774 41.289-32.317 4.5 18.545 21.266 32.317 41.271 32.317 20.006 0 36.774-13.774 41.272-32.312 4.517 18.541 21.284 32.312 41.288 32.312 20.006 0 36.774-13.774 41.289-32.317 4.5 18.545 21.266 32.317 41.271 32.317 18.095 0 34.541-11.268 40.668-27.141.881-2.281 1.331-4.708 1.331-7.154v96.129h-495.798z" fill="#009de6"/><g fill="#0089cb"><path d="m504.383 414.663v-5.262c0 1.916-.286 3.818-.829 5.651.277-.128.555-.255.829-.389z"/><path d="m31.16 481v-41.478c-9.71-4.657-17.351-12.88-21.245-22.968-.881-2.281-1.331-4.708-1.331-7.154v96.129h495.8v-24.529z"/></g><circle cx="276.656" cy="93.995" fill="#c3f839" r="19.697"/><circle cx="236.585" cy="93.995" fill="#c3f839" r="19.697"/><g><path d="m31.16 466h15v15h-15z" fill="#fff"/></g><g><path d="m60.776 466h15v15h-15z" fill="#fff"/></g></g></g><g><path d="m496.883 289.242c-7.018 34.95-60.164 35.86-68.481.21l-14.576-.006c-2.126 8.735-7.416 15.997-14.488 20.716-12.286-21.771-29.485-40.642-50.128-54.871l-8.51 12.359c18.169 12.524 33.414 28.994 44.502 47.986-17.769 2.872-35.284-8.702-39.379-26.187l-14.575.007c-8.217 35.077-59.759 35.059-67.966-.004l-14.576-.006c-8.242 35.079-59.767 35.081-67.984.006l-14.576-.006c-4.093 17.485-21.608 29.062-39.375 26.192 26.773-46.049 75.475-74.299 129.213-74.299 24.96 0 49.66 6.273 71.431 18.142l7.177-13.179c-14.293-7.792-29.733-13.374-45.69-16.626l-9.352-108.936c4.753-.627 9.124-2.48 12.779-5.24l52.449 17.677c10.807-24.483 1.557-51.832-24.436-60.941-9.043-3.249-18.163-7.066-27.645-8.358l42.962-48.004c-18.188-19.678-46.993-21.989-65.646-1.692-4.587 5.763-10.63 11.65-15.909 17.372l-15.547-17.372c-18.558-20.276-47.527-17.968-65.616 1.665l21.116 23.849 11.228-9.952-10.55-11.914c10.698-5.429 24.749-2.761 32.646 6.364 0 0 17.086 19.091 17.086 19.091-4.276 6.157-7.526 12.903-8.502 20.545l-20.227-22.6-11.175 10.012 11.244 12.563c-9.703 1.228-18.928 5.154-28.136 8.427-26.009 9.106-35.256 36.465-24.449 60.945l55.673-18.764c4.006 3.441 9.017 5.737 14.529 6.379l-9.447 108.689c-19.597 3.873-38.374 11.273-55.417 21.989-23.281 14.638-42.481 34.835-55.931 58.693-7.071-4.719-12.361-11.98-14.488-20.713l-14.575.007c-8.255 35.535-61.34 34.834-68.482-.214h-15.084v222.757h512v-222.758zm-220.904-207.676c16.084.423 16.08 23.987 0 24.408-16.083-.423-16.08-23.988 0-24.408zm39.373 4.824c11.561 3.57 19.68 15.416 18.973 27.427l-32.693-11.018c2.557-6.917 1.855-15.542-1.687-21.882 4.905 1.523 10.333 3.652 15.407 5.473zm-45.134-50.046c3.785-3.956 7.696-8.045 11.102-12.297 7.898-8.997 21.848-11.611 32.472-6.238l-44.344 49.547c-5.109 1.265-9.65 3.979-13.167 7.679-1.635-1.72-3.488-3.231-5.521-4.479-.98-12.832 8.55-22.807 19.458-34.212zm-93.651 63.915c3.308-6.625 9.023-11.55 16.054-13.859 6.826-2.415 14.397-5.515 20.86-6.963-3.967 6.159-5.214 14.786-2.994 21.974l-36.811 12.406c-.216-4.643.757-9.287 2.891-13.558zm47.821-6.489c.423-16.093 23.974-16.089 24.395 0-.424 16.092-23.975 16.089-24.395 0zm24.325 24.346c2.842-1.423 5.4-3.33 7.569-5.612 2.28 2.399 4.988 4.387 8.005 5.83l9.354 108.967c-5.854-.632-11.748-.972-17.658-.972-5.617 0-11.206.294-16.751.858zm-233.63 379.121v-59.006c21.296 19.94 60.152 16.001 75.777-8.742 18.187 28.537 64.385 28.529 82.566-.002 18.173 28.541 64.382 28.529 82.56 0 18.166 28.537 64.394 28.532 82.556.002 18.187 28.538 64.383 28.528 82.565-.002 15.628 24.779 54.669 28.72 75.775 8.595v59.155zm481.8-83.436c-11.949 30.925-60.829 29.164-68.481-4.245l-14.576-.006c-8.25 35.087-59.758 35.072-68.004.003l-14.575.007c-8.216 35.077-59.759 35.059-67.966-.004l-14.576-.006c-8.242 35.079-59.767 35.081-67.984.006l-14.576-.006c-8.251 35.087-59.757 35.073-68.004.004l-14.575.007c-7.661 33.299-56.297 35.288-68.482 4.241v-35.622c21.296 19.94 60.152 16.001 75.777-8.742 18.187 28.537 64.384 28.53 82.566-.002 18.172 28.542 64.382 28.529 82.56 0 18.167 28.538 64.393 28.533 82.556.002 18.188 28.537 64.383 28.528 82.565-.002 15.628 24.78 54.669 28.721 75.775 8.595zm0-60.052c-11.95 30.925-60.829 29.164-68.481-4.245l-14.576-.006c-8.25 35.087-59.758 35.073-68.004.003l-14.575.007c-8.217 35.078-59.759 35.059-67.966-.004l-14.576-.006c-8.242 35.079-59.767 35.081-67.984.006l-14.576-.006c-8.251 35.088-59.757 35.073-68.004.004l-14.575.007c-7.661 33.299-56.297 35.288-68.482 4.242v-35.623c21.296 19.94 60.152 16.001 75.777-8.742 18.188 28.537 64.384 28.529 82.566-.002 18.173 28.541 64.382 28.529 82.56 0 18.166 28.537 64.394 28.532 82.556.002 18.188 28.537 64.382 28.528 82.565-.002 15.628 24.779 54.669 28.72 75.775 8.595z"/></g></g><g/><g/><g/><g/><g/><g/><g/><g/><g/><g/><g/><g/><g/><g/><g/></svg>