<svg width="600" height="600" viewBox="0 0 600 600" xmlns="http://www.w3.org/2000/svg">
  <defs>
    <linearGradient id="bg-battleships" x1="0%" y1="0%" x2="0%" y2="100%">
      <stop offset="0%" stop-color="#0a2a88" />
      <stop offset="50%" stop-color="#0f4fbf" />
      <stop offset="100%" stop-color="#0ac0f0" />
    </linearGradient>
    <linearGradient id="ship-body" x1="0%" y1="0%" x2="100%" y2="0%">
      <stop offset="0%" stop-color="#9aa6c8" />
      <stop offset="100%" stop-color="#d3d9e8" />
    </linearGradient>
    <linearGradient id="ship-deck" x1="0%" y1="0%" x2="100%" y2="0%">
      <stop offset="0%" stop-color="#1d2c5c" />
      <stop offset="100%" stop-color="#2e4178" />
    </linearGradient>
    <filter id="shadow" x="-20%" y="-20%" width="140%" height="140%">
      <feDropShadow dx="0" dy="16" stdDeviation="18" flood-color="rgba(0,0,0,0.35)" />
    </filter>
  </defs>
  <rect x="30" y="30" width="540" height="540" rx="64" fill="url(#bg-battleships)" filter="url(#shadow)" />
  <path d="M60 420h480c-20 60-120 110-240 110S80 480 60 420z" fill="rgba(255,255,255,0.16)" />
  <g transform="translate(100 190)">
    <path d="M40 210h320l40 70H0z" fill="url(#ship-deck)" />
    <rect x="120" y="120" width="200" height="90" rx="18" fill="url(#ship-body)" />
    <rect x="180" y="60" width="80" height="70" rx="12" fill="#e8ecf8" />
    <rect x="200" y="20" width="40" height="60" rx="8" fill="#ffffff" />
    <rect x="204" y="0" width="32" height="26" rx="6" fill="#f5f8ff" />
    <rect x="20" y="200" width="360" height="16" rx="8" fill="#1b2c5a" />
    <rect x="140" y="96" width="20" height="124" rx="10" fill="#1f2c54" />
    <rect x="320" y="140" width="12" height="54" rx="6" fill="#1f2c54" />
    <rect x="60" y="140" width="12" height="54" rx="6" fill="#1f2c54" />
    <g fill="#25356a">
      <rect x="40" y="206" width="60" height="10" rx="5" />
      <rect x="300" y="206" width="60" height="10" rx="5" />
    </g>
    <g fill="#e4584e">
      <circle cx="170" cy="160" r="14" />
      <circle cx="230" cy="160" r="14" />
    </g>
    <path d="M-10 260h420l20 36H-30z" fill="rgba(10,40,120,0.6)" />
  </g>
  <g transform="translate(60 60)" opacity="0.25" fill="#fff">
    <circle cx="420" cy="80" r="18" />
    <circle cx="460" cy="120" r="12" />
    <circle cx="380" cy="100" r="10" />
  </g>
</svg>
