<svg width="600" height="600" viewBox="0 0 600 600" xmlns="http://www.w3.org/2000/svg">
  <defs>
    <linearGradient id="bg-maze" x1="0%" y1="0%" x2="100%" y2="100%">
      <stop offset="0%" stop-color="#0c223a" />
      <stop offset="100%" stop-color="#0e5b8d" />
    </linearGradient>
    <linearGradient id="maze-lines" x1="0%" y1="0%" x2="100%" y2="100%">
      <stop offset="0%" stop-color="#49d9ff" />
      <stop offset="100%" stop-color="#6af7c5" />
    </linearGradient>
    <filter id="shadow" x="-20%" y="-20%" width="140%" height="140%">
      <feDropShadow dx="0" dy="16" stdDeviation="18" flood-color="rgba(0,0,0,0.35)" />
    </filter>
  </defs>
  <rect x="30" y="30" width="540" height="540" rx="64" fill="url(#bg-maze)" filter="url(#shadow)" />
  <g transform="translate(120 120)" fill="none" stroke="url(#maze-lines)" stroke-width="16" stroke-linecap="round" stroke-linejoin="round">
    <rect x="0" y="0" width="360" height="360" rx="48" opacity="0.8" />
    <path d="M40 40h120v80H80v120h80v-80h80v200h-80" />
    <path d="M200 40h120v120h-80v80h120v120h-200v-80" opacity="0.9" />
    <path d="M120 320H80v-80" opacity="0.7" />
    <path d="M320 200v120h-40" opacity="0.7" />
  </g>
  <g transform="translate(150 150)">
    <circle cx="50" cy="50" r="22" fill="#ffce54" />
    <circle cx="260" cy="260" r="26" fill="#ff6b6b" />
    <path d="M50 50C110 150 200 220 260 260" stroke="#ffffff" stroke-width="10" stroke-linecap="round" opacity="0.65" />
  </g>
</svg>
