<svg width="600" height="600" viewBox="0 0 600 600" xmlns="http://www.w3.org/2000/svg">
  <defs>
    <linearGradient id="bg-memory" x1="0%" y1="0%" x2="100%" y2="100%">
      <stop offset="0%" stop-color="#5335ff" />
      <stop offset="100%" stop-color="#8f58ff" />
    </linearGradient>
    <linearGradient id="card-front" x1="0%" y1="0%" x2="100%" y2="100%">
      <stop offset="0%" stop-color="#ffe4ff" />
      <stop offset="100%" stop-color="#ffb6f2" />
    </linearGradient>
    <linearGradient id="card-back" x1="0%" y1="0%" x2="100%" y2="100%">
      <stop offset="0%" stop-color="#4121a4" />
      <stop offset="100%" stop-color="#28136e" />
    </linearGradient>
    <filter id="shadow" x="-20%" y="-20%" width="140%" height="140%">
      <feDropShadow dx="0" dy="16" stdDeviation="18" flood-color="rgba(0,0,0,0.35)" />
    </filter>
  </defs>
  <rect x="30" y="30" width="540" height="540" rx="64" fill="url(#bg-memory)" filter="url(#shadow)" />
  <g transform="translate(140 140)">
    <rect x="0" y="60" width="210" height="260" rx="32" fill="url(#card-back)" stroke="#5d37d5" stroke-width="14" transform="rotate(-12 105 190)" />
    <rect x="150" y="0" width="210" height="280" rx="32" fill="url(#card-front)" stroke="#ff83dd" stroke-width="14" transform="rotate(8 255 140)" />
    <g transform="translate(204 80)" fill="none" stroke="#ff5ec9" stroke-width="14" stroke-linecap="round">
      <path d="M40 60c0-26 20-46 46-46s46 20 46 46c0 42-56 70-86 102-30-32-86-60-86-102 0-26 20-46 46-46s46 20 46 46" />
      <circle cx="86" cy="44" r="12" fill="#ff5ec9" />
    </g>
    <g transform="translate(20 120)">
      <circle cx="60" cy="60" r="24" fill="#7b54ff" />
      <circle cx="120" cy="140" r="28" fill="#9f75ff" />
      <circle cx="170" cy="90" r="18" fill="#c2a6ff" />
    </g>
  </g>
</svg>
