<svg width="600" height="600" viewBox="0 0 600 600" xmlns="http://www.w3.org/2000/svg">
  <defs>
    <linearGradient id="bg-ttt" x1="0%" y1="0%" x2="100%" y2="100%">
      <stop offset="0%" stop-color="#ff7f7f" />
      <stop offset="100%" stop-color="#ffb347" />
    </linearGradient>
    <linearGradient id="grid" x1="0%" y1="0%" x2="100%" y2="100%">
      <stop offset="0%" stop-color="#fff0f0" />
      <stop offset="100%" stop-color="#ffe0bb" />
    </linearGradient>
    <filter id="shadow" x="-20%" y="-20%" width="140%" height="140%">
      <feDropShadow dx="0" dy="16" stdDeviation="18" flood-color="rgba(0,0,0,0.35)" />
    </filter>
  </defs>
  <rect x="30" y="30" width="540" height="540" rx="64" fill="url(#bg-ttt)" filter="url(#shadow)" />
  <g transform="translate(120 120)">
    <rect x="0" y="0" width="360" height="360" rx="48" fill="url(#grid)" />
    <g stroke="#ff9f4a" stroke-width="16" stroke-linecap="round">
      <path d="M120 20v320" />
      <path d="M240 20v320" />
      <path d="M20 120h320" />
      <path d="M20 240h320" />
    </g>
    <g stroke="#ff5c8d" stroke-width="24" stroke-linecap="round">
      <path d="M60 60l80 80" />
      <path d="M140 60l-80 80" />
      <path d="M260 60l80 80" />
      <path d="M340 60l-80 80" />
      <path d="M60 260l80 80" />
      <path d="M140 260l-80 80" />
    </g>
    <g stroke="#2cc5c4" stroke-width="24">
      <circle cx="300" cy="300" r="44" fill="none" />
      <circle cx="180" cy="300" r="44" fill="none" />
      <circle cx="300" cy="180" r="44" fill="none" />
    </g>
  </g>
  <g transform="translate(150 500)" fill="#fff" font-family="'Nunito', 'Segoe UI', sans-serif" font-size="46" font-weight="800">
    <text x="0" y="0">Tic · Tac · Toe</text>
  </g>
</svg>
