<svg id="Capa_1" enable-background="new 0 0 512 512" height="512" viewBox="0 0 512 512" width="512" xmlns="http://www.w3.org/2000/svg"><g><g><path d="m410.635 205.66c0 85.444-80.55 152.831-151.76 152.831-98.152 0-159.049-62.332-178.258-149.084-1.56-7.047-2.474-19.263-1.638-26.255 9.757-81.585 74.787-146.189 156.571-155.293 6.527-.727 17.639 1.004 24.127 2.755 93.01 25.097 150.958 76.894 150.958 175.046z" fill="#d3b5f2"/><path d="m255.433 26.76c-7.218 0-14.333.442-21.326 1.278 67.135 9.152 118.87 66.707 118.87 136.354 0 76.012-61.62 137.632-137.632 137.632-69.647 0-127.201-51.735-136.354-118.87-.836 6.993-1.278 14.108-1.278 21.326 0 98.152 79.568 177.72 177.72 177.72s177.719-79.568 177.719-177.72-79.567-177.72-177.719-177.72z" fill="#d088f3"/><path d="m349.937 371.565-38.307-9.627h-153.154c-12.645 0-24.485 6.207-31.678 16.608l-35.604 51.486 82.794 38.341 191.378-32.601z" fill="#ffe35c"/><path d="m419.128 430.128-35.394-51.492c-7.185-10.453-19.056-16.697-31.739-16.697h-40.365l14.899 21.675c14.096 20.506-.586 48.413-25.469 48.413h-195.536c-4.987 0-9.553-1.135-13.571-3.092l-.759 1.098c-18.865 27.28.661 64.521 33.828 64.521h260.212c33.114.001 52.651-37.136 33.894-64.426z" fill="#ffac62"/><path d="m279.19 405.758c0 13.228-14.172 28.717-23.951 28.717-9.78 0-23.951-15.489-23.951-28.717s10.723-19.186 23.951-19.186c13.227 0 23.951 5.958 23.951 19.186z" fill="#75b7f2"/><path d="m420.896 498.947h-334.571c-10.315 0-18.677-8.362-18.677-18.677 0-10.315 8.362-18.677 18.677-18.677h334.571c10.315 0 18.677 8.362 18.677 18.677 0 10.315-8.362 18.677-18.677 18.677z" fill="#fff2a5"/></g><g fill="#4e0325"><path d="m436.337 456.14c.633-11.151-2.453-22.173-8.98-31.668l-35.394-51.493c-5.918-8.61-14.363-14.931-23.962-18.288 46.862-35.186 75.139-90.765 75.139-150.211 0-103.502-84.204-187.707-187.706-187.707s-187.707 84.205-187.707 187.707c0 59.392 28.225 114.927 75.013 150.119-9.667 3.319-18.187 9.637-24.156 18.268l-35.604 51.486c-6.216 8.99-9.354 19.477-9.118 30.108-9.579 4.645-16.201 14.468-16.201 25.809 0 15.805 12.859 28.664 28.664 28.664h334.571c15.805 0 28.664-12.859 28.664-28.664 0-10.122-5.279-19.029-13.223-24.13zm-336.929-20.427 6.462-9.344c10.909 11.578 21.976 17.131 34.238 17.131 1.596 0 3.214-.094 4.854-.28 8.371-.952 15.205-4.75 21.416-9.997 4.508 3.089 9.411 5.527 15.017 6.658.141.028.283.052.425.07 2.219.283 4.427.424 6.623.424 15.029 0 29.377-6.608 41.317-19.022 5.776 10.496 16.201 19.113 25.48 19.113 9.354 0 19.876-8.757 25.622-19.368 11.989 12.581 26.43 19.277 41.564 19.277 2.194 0 4.405-.141 6.623-.424.142-.018.284-.041.425-.07 5.606-1.131 10.508-3.568 15.016-6.657 6.206 5.242 13.043 9.043 21.417 9.996 1.64.187 3.256.28 4.853.28 12.138 0 23.107-5.438 33.909-16.779l6.23 9.064c3.306 4.81 5.166 10.246 5.488 15.82h-322.528c.256-4.712 1.656-10.263 5.549-15.892zm21.046-30.434c5.641-.367 11.283.773 16.683 3.411 5.264 3.206 10.029 7.711 15.071 12.477 1.53 1.446 3.069 2.9 4.634 4.327-4.124 3.143-8.426 5.272-13.236 5.819-10.915 1.244-20.471-3.424-30.746-15.053zm104.99 3.08c.007.07.011.14.019.21-.498.318-.957.715-1.357 1.191-8.132 9.645-21.758 20.63-40.548 18.332-2.938-.622-5.709-1.845-8.394-3.463 2.307-2.511 4.587-5.141 6.895-7.806 10.195-11.772 21.373-16.356 33.224-13.631 3.247.747 6.439 2.347 9.759 4.891.131.099.266.188.402.276zm11.836-2.601c0-11.48 11.252-13.194 17.959-13.194s17.959 1.714 17.959 13.194c0 10.457-11.871 22.724-17.959 22.724-6.089 0-17.959-12.267-17.959-22.724zm47.958 2.716c.2-.119.396-.247.585-.392 3.321-2.544 6.513-4.144 9.76-4.891 11.853-2.726 23.03 1.859 33.272 13.686 2.29 2.644 4.553 5.256 6.846 7.752-2.684 1.617-5.456 2.84-8.393 3.462-18.79 2.302-32.416-8.687-40.548-18.332-.443-.526-.962-.952-1.522-1.285zm104.676-3.217 7.797 11.343c-10.162 11.385-19.634 15.945-30.451 14.712-4.808-.547-9.109-2.675-13.235-5.82 1.565-1.427 3.104-2.88 4.633-4.326 5.042-4.766 9.807-9.271 15.071-12.477 5.241-2.561 10.709-3.702 16.185-3.432zm-302.214-200.777c0-92.489 75.245-167.733 167.733-167.733s167.733 75.245 167.733 167.733c0 60.543-32.819 116.606-85.65 146.312-.705.396-1.421.772-2.134 1.16h-159.934c-.701-.381-1.402-.768-2.098-1.16-52.831-29.707-85.65-85.77-85.65-146.312zm70.776 167.445h14.531c.04 0 .081.001.121 0h164.754c.015 0 .029.003.043.003.016 0 .033-.003.049-.003h14.02c9.397 0 18.186 4.623 23.509 12.367l6.451 9.385c-4.667.697-9.283 2.156-13.771 4.385-.143.071-.284.148-.421.231-6.46 3.883-11.989 9.11-17.337 14.164-1.745 1.65-3.468 3.275-5.191 4.826-2.411-2.587-4.844-5.392-7.368-8.306-13.138-15.171-28.686-21.21-44.971-17.465-3.352.771-6.586 2.091-9.787 3.974-4.127-9.3-14.173-14.907-27.871-14.907-13.609 0-23.613 5.533-27.79 14.724-3.1-1.786-6.235-3.045-9.479-3.791-16.281-3.745-31.833 2.293-45.018 17.519-2.505 2.892-4.922 5.679-7.319 8.252-1.723-1.551-3.446-3.177-5.192-4.827-5.348-5.054-10.877-10.281-17.337-14.164-.137-.082-.278-.16-.421-.231-4.616-2.293-9.367-3.765-14.171-4.436l6.5-9.399c5.329-7.702 14.101-12.301 23.466-12.301zm262.42 117.035h-334.571c-4.792 0-8.69-3.898-8.69-8.69s3.898-8.69 8.69-8.69h334.571c4.792 0 8.69 3.898 8.69 8.69s-3.898 8.69-8.69 8.69z"/><path d="m349.357 219.337c3.309 0 5.992-2.683 5.992-5.992v-10.986c0-3.309-2.683-5.992-5.992-5.992s-5.992 2.683-5.992 5.992v10.986c0 3.309 2.683 5.992 5.992 5.992z"/><path d="m284.315 265.43c3.309 0 5.992-2.683 5.992-5.992v-10.986c0-3.309-2.683-5.992-5.992-5.992s-5.992 2.683-5.992 5.992v10.986c0 3.309 2.683 5.992 5.992 5.992z"/><path d="m330.086 295.688c3.309 0 5.992-2.683 5.992-5.992v-10.986c0-3.309-2.683-5.992-5.992-5.992s-5.992 2.683-5.992 5.992v10.986c0 3.309 2.682 5.992 5.992 5.992z"/></g><g fill="#fff"><path d="m129.82 205.534c-.235 0-.471-.008-.709-.025-5.502-.386-9.65-5.159-9.264-10.661 1.885-26.889 11.628-52.365 28.177-73.673 3.383-4.357 9.657-5.145 14.013-1.762s5.145 9.657 1.762 14.013c-14.112 18.17-22.421 39.893-24.027 62.819-.369 5.264-4.755 9.289-9.952 9.289z"/><path d="m200.954 100.899c-3.72 0-7.29-2.087-9.009-5.664-2.389-4.971-.296-10.938 4.676-13.327 4.602-2.211 9.377-4.181 14.194-5.855 5.211-1.808 10.901.946 12.712 6.156 1.81 5.211-.946 10.901-6.156 12.712-4.106 1.426-8.177 3.105-12.099 4.99-1.394.67-2.867.988-4.318.988z"/><ellipse cx="225.637" cy="159.402" rx="15.382" ry="15.382" transform="matrix(.383 -.924 .924 .383 -7.979 306.863)"/></g><g><path d="m32.793 20.491-8.203 23.067c-.351.988-1.047 1.77-1.924 2.166l-20.495 9.233c-2.895 1.305-2.895 5.918 0 7.222l20.494 9.234c.878.395 1.573 1.178 1.924 2.166l8.204 23.067c1.159 3.259 5.258 3.259 6.417 0l8.204-23.067c.351-.988 1.047-1.77 1.924-2.166l20.494-9.234c2.895-1.304 2.895-5.918 0-7.222l-20.494-9.233c-.878-.395-1.573-1.178-1.924-2.166l-8.204-23.067c-1.159-3.259-5.258-3.259-6.417 0z" fill="#d3b5f2"/><path d="m461.124 4.88-6.085 17.111c-.26.733-.776 1.313-1.427 1.607l-15.202 6.849c-2.148.968-2.148 4.39 0 5.357l15.202 6.849c.651.293 1.167.874 1.427 1.606l6.085 17.111c.86 2.417 3.9 2.417 4.76 0l6.085-17.111c.261-.732.776-1.313 1.427-1.606l15.202-6.849c2.148-.968 2.148-4.389 0-5.357l-15.202-6.849c-.651-.293-1.167-.874-1.427-1.607l-6.085-17.111c-.86-2.418-3.9-2.418-4.76 0z" fill="#d3b5f2"/><g fill="#ad84e6"><path d="m476.174 116.394c0 9.893 8.02 17.913 17.913 17.913s17.913-8.02 17.913-17.913-8.02-17.913-17.913-17.913-17.913 8.02-17.913 17.913z"/><ellipse cx="115.719" cy="10.557" rx="7.49" ry="7.49" transform="matrix(.707 -.707 .707 .707 26.429 84.917)"/></g></g></g></svg>