<svg id="Capa_1" enable-background="new 0 0 512 512" height="512" viewBox="0 0 512 512" width="512" xmlns="http://www.w3.org/2000/svg"><g><g><ellipse cx="256" cy="281.073" fill="#ffac62" rx="220.59" ry="220.59" transform="matrix(.707 -.707 .707 .707 -123.768 263.344)"/><path d="m446.617 255.206c0 110.504-121.352 174.191-186.152 174.191s-223.24-66.658-223.24-188.487c0-5.63-1.604-13.896-1.19-19.42 8.148-108.628 94.968-195.318 203.653-203.262 5.386-.394 23.016 2.73 28.502 2.73 91.355.001 178.427 123.744 178.427 234.248z" fill="#ffe35c"/><g fill="#ffac62"><path d="m256 17.635c-6.143 0-12.224.263-18.24.756 94.705 8.445 168.951 87.993 168.951 184.895 0 102.532-83.119 185.651-185.651 185.651-96.902 0-176.449-74.246-184.895-168.951-.492 6.016-.756 12.097-.756 18.24 0 121.829 98.762 220.59 220.59 220.59s220.59-98.762 220.59-220.59-98.76-220.591-220.589-220.591z"/><path d="m105.67 247.808c0-88.317 71.595-159.913 159.913-159.913 86.683 0 157.25 68.972 159.832 155.03.047-1.562.081-3.127.081-4.701 0-93.61-75.886-169.496-169.496-169.496s-169.496 75.886-169.496 169.497c0 93.61 75.886 169.496 169.496 169.496 1.573 0 3.139-.034 4.701-.081-86.058-2.582-155.031-73.148-155.031-159.832z"/></g></g><g fill="#4e0325"><path d="m486.59 238.225c0-61.593-23.985-119.499-67.538-163.052s-101.459-67.539-163.052-67.539-119.499 23.986-163.052 67.539-67.538 101.459-67.538 163.052c0 7.206.341 14.359.991 21.448-.651 7.073-.991 14.266-.991 21.401 0 61.593 23.985 119.499 67.538 163.052s101.459 67.538 163.052 67.538 119.499-23.985 163.052-67.538 67.538-101.459 67.538-163.052c0-7.15-.333-14.366-.986-21.454.646-7.072.986-14.207.986-21.395zm-230.59-210.591c116.12 0 210.59 94.47 210.59 210.59s-94.47 210.591-210.59 210.591-210.59-94.47-210.59-210.59 94.47-210.591 210.59-210.591zm0 464.029c-87.095 0-162.01-53.145-194.02-128.709 8.835 13.682 19.178 26.532 30.968 38.323 43.553 43.553 101.459 67.538 163.052 67.538s119.499-23.985 163.052-67.539c11.79-11.79 22.133-24.64 30.968-38.323-32.011 75.565-106.925 128.71-194.02 128.71z"/><path d="m256 413.721c96.768 0 175.496-78.727 175.496-175.496s-78.728-175.497-175.496-175.497c-96.769 0-175.496 78.728-175.496 175.497s78.727 175.496 175.496 175.496zm0-338.993c90.152 0 163.496 73.344 163.496 163.497 0 90.152-73.344 163.496-163.496 163.496s-163.496-73.344-163.496-163.496c0-90.153 73.344-163.497 163.496-163.497z"/><path d="m170.276 338.474c-1.485 4.564.126 9.526 4.009 12.348 1.941 1.41 4.215 2.115 6.49 2.115s4.551-.706 6.492-2.117l68.733-49.972 68.732 49.971c3.882 2.823 9.099 2.823 12.982.002s5.494-7.783 4.01-12.347l-26.286-80.811 68.766-49.927c3.884-2.82 5.496-7.782 4.013-12.346s-5.702-7.629-10.501-7.629c0 0-.002 0-.003 0l-84.978.027-26.233-80.827v-.001c-1.482-4.565-5.703-7.632-10.503-7.631-4.799 0-9.019 3.067-10.501 7.632l-26.234 80.827-84.978-.027c-.001 0-.002 0-.003 0-4.798 0-9.018 3.065-10.5 7.629-1.483 4.564.129 9.526 4.014 12.346l68.765 49.927zm12.325.901 24.167-74.297 39.026 28.354zm28.069-86.297 17.314-53.286h.001l.001-.002h56.028l.001.002h.001l17.314 53.287-.001.001v.001l-45.328 32.933-.001-.002-.001.001-45.328-32.933.001-.001zm118.728 86.298-63.193-45.943 39.026-28.354zm-17.859-93.71-14.907-45.878 78.13-.025zm-55.539-132.189 24.119 74.313h-48.239zm-118.762 86.285 78.13.025-14.906 45.878z"/></g><g fill="#fff"><path d="m147.502 89.118c-3.214 0-6.37-1.546-8.301-4.412-3.087-4.579-1.877-10.794 2.703-13.881 10.206-6.88 21.09-12.847 32.351-17.736 5.064-2.199 10.955.124 13.155 5.191 2.199 5.066-.125 10.956-5.19 13.155-10.141 4.403-19.944 9.777-29.137 15.975-1.714 1.155-3.658 1.708-5.581 1.708z"/><path d="m62.792 248.225c-5.523 0-10-4.477-10-10 0-40.175 11.779-78.979 34.064-112.215 3.076-4.587 9.289-5.813 13.874-2.737 4.587 3.076 5.812 9.288 2.737 13.874-20.068 29.931-30.676 64.883-30.676 101.078.001 5.523-4.476 10-9.999 10z"/></g><g><path d="m466.811 2.784-8.214 23.098c-.352.989-1.048 1.773-1.927 2.168l-20.521 9.246c-2.899 1.306-2.899 5.926 0 7.232l20.521 9.246c.879.396 1.575 1.18 1.927 2.168l8.214 23.098c1.16 3.263 5.265 3.263 6.425 0l8.214-23.098c.352-.989 1.048-1.773 1.927-2.168l20.521-9.246c2.899-1.306 2.899-5.925 0-7.232l-20.521-9.246c-.879-.396-1.575-1.18-1.927-2.168l-8.214-23.098c-1.16-3.263-5.264-3.263-6.425 0z" fill="#fff2a5"/><path d="m24.358 55.806-6.093 17.133c-.261.734-.777 1.315-1.429 1.609l-15.223 6.858c-2.151.969-2.151 4.395 0 5.364l15.222 6.858c.652.294 1.168.875 1.429 1.608l6.093 17.133c.861 2.42 3.905 2.42 4.766 0l6.093-17.133c.261-.733.777-1.315 1.429-1.608l15.222-6.858c2.15-.969 2.15-4.395 0-5.364l-15.222-6.858c-.652-.294-1.168-.875-1.429-1.609l-6.093-17.133c-.86-2.42-3.904-2.42-4.765 0z" fill="#fff2a5"/><g fill="#ffe35c"><path d="m53.481 18.979c0 9.906 8.03 17.937 17.937 17.937 9.906 0 17.937-8.03 17.937-17.937 0-9.906-8.03-17.937-17.937-17.937-9.906 0-17.937 8.031-17.937 17.937z"/><path d="m497 114.73c0 4.142 3.358 7.5 7.5 7.5s7.5-3.358 7.5-7.5-3.358-7.5-7.5-7.5-7.5 3.358-7.5 7.5z"/></g></g></g></svg>