<svg id="Capa_1" enable-background="new 0 0 512 512" height="512" viewBox="0 0 512 512" width="512" xmlns="http://www.w3.org/2000/svg"><g><g><path d="m237.655 501.952h-43.738c-12.133 0-21.969-9.836-21.969-21.969v-44.791l15.188-54.874h56.024l16.463 86.648v13.017c.001 12.133-9.835 21.969-21.968 21.969z" fill="#00ebc4"/><path d="m171.949 353.099v82.093c4.044 3.211 9.331 5.16 15.123 5.16 7.214 0 13.076-5.296 13.119-11.854.043-6.559 5.904-11.854 13.119-11.854h10.291c7.26 0 13.14 5.361 13.119 11.961l-.072 22.807c-.029 9.279 8.238 16.816 18.445 16.816.859 0 3.525-.256 4.53-1.261v-8.083-105.785z" fill="#45b1c6"/><path d="m82.645 448.208h-24.261c-12.133 0-21.969-9.836-21.969-21.969l-3.014-7.391v-274.538h71.213v281.93c0 12.132-9.836 21.968-21.969 21.968z" fill="#ad84e6"/><path d="m39.389 186.925v159.656c0 9.269 8.265 16.782 18.46 16.782 10.204 0 18.473-7.526 18.461-16.802 0 0-.116-70.204-.094-70.469.54-6.484 10.35-5.859 10.35.648v123.007c0 10.62-8.609 19.229-19.229 19.229h-31.789c-.727 0-1.441-.048-2.147-.127v18.443c0 12.133 9.836 21.969 21.969 21.969h36.318c5.687 0 10.87-2.161 14.771-5.707 4.421-4.019 7.197-9.816 7.197-16.262v-250.367z" fill="#a862e6"/><path d="m478.511 189.582c0 14.871-35.838 36.716-80.047 36.716s-80.047-21.846-80.047-36.716c0-14.871 35.838-26.925 80.047-26.925 44.209-.001 80.047 12.054 80.047 26.925z" fill="#75b7f2"/><path d="m476.686 418.142c0-6.385-4.922-11.896-11.796-13.207l-38.047-7.257c-4.687-.849-8.096-4.931-8.096-9.695v-56.532l-21.552-17.993-19.014 17.993v56.532c0 4.764-3.408 8.846-8.096 9.695l-38.047 7.257c-6.874 1.311-11.797 6.822-11.797 13.207 0 4.724 2.674 8.874 6.717 11.285 12.022 9.517 39.5 16.173 71.505 16.173s59.484-6.655 71.506-16.173c4.043-2.411 6.717-6.562 6.717-11.285z" fill="#98e8f2"/><path d="m378.181 279.46h40.566v51.991h-40.566z" fill="#a6aff4"/><path d="m442.848 226.298h-84.577l-14.185-37.587v-53.76h108.755v36.118z" fill="#ff8cc0"/><path d="m390.781 199.211c-18.624 0-35.319-4.068-46.694-10.5v62.987h108.755v-83.217c-.001 16.972-27.786 30.73-62.061 30.73z" fill="#ff68c1"/><path d="m398.297 216.507c-41.796 0-76.259-13.183-79.88-26.926l.168 36.35 5.541 27.336 36.978 17.61h86.538l2.12-53.098-12.522-4.668c-11.527 2.163-24.806 3.396-38.943 3.396z" fill="#98e8f2"/><path d="m478.49 189.677c-.147 10.057-16.849 18.845-41.253 23.427v15.955c0 12.577-10.196 22.774-22.774 22.774h-64.302c-17.44 0-31.578-14.138-31.578-31.579v18.697c0 23.482 19.036 42.518 42.518 42.518h74.723c23.482 0 42.518-19.036 42.518-42.518l.168-49.37z" fill="#a6aff4"/><g fill="#ffe35c"><path d="m104.132 72.103c0 15.365-13.701 27.821-30.603 27.821s-30.603-12.456-30.603-27.821 23.089-52.331 30.603-52.331 30.603 36.966 30.603 52.331z"/><path d="m246.39 172.167c0 15.365-13.701 27.821-30.603 27.821-16.901 0-30.603-12.456-30.603-27.821s23.089-52.331 30.603-52.331 30.603 36.966 30.603 52.331z"/><path d="m429.067 62.507c0 15.365-13.701 27.821-30.603 27.821-16.901 0-30.603-12.456-30.603-27.821s23.089-52.331 30.603-52.331 30.603 36.966 30.603 52.331z"/></g><ellipse cx="73.529" cy="144.169" fill="#d3b5f2" rx="54.603" ry="27.33"/><path d="m169.214 395.194s25.924-12.994 32.327-12.994l19.046 3.296c2.515 0 4.864.644 6.859 1.76l29.731 10.692c.066-4.209 13.347-153.928 13.347-153.928h-109.476v109.298z" fill="#a2f4e3"/><path d="m242.308 244.02v130.854c0 6.874-6.13 12.446-13.691 12.446-.397 0-.789-.024-1.178-.054 3.765 2.104 6.28 5.877 6.267 10.19l-.072 22.807c-.029 9.279 8.238 16.816 18.445 16.816 10.187 0 18.445-7.507 18.445-16.768v-176.291z" fill="#b0b8e5"/><path d="m209.15 374.838.205-46.23c.026-5.915-4.762-10.725-10.677-10.725-5.878 0-10.65 4.745-10.678 10.622-.055 11.821-.135 29.284-.136 29.326-.032 4.868-4.382 8.799-9.738 8.799-9.432 0-17.079-6.951-17.079-15.526v37.183c0 11.552 10.302 20.917 23.009 20.917 7.214 0 13.075-5.296 13.119-11.854.043-6.559 5.904-11.855 13.119-11.855h10.291c.339 0 .671.023 1.004.046-3.997-2.181-12.453-6.154-12.439-10.703z" fill="#b0b8e5"/><ellipse cx="215.787" cy="244.884" fill="#a2f4e3" rx="54.611" ry="27.104"/><ellipse cx="398.464" cy="135.323" fill="#ffc5dd" rx="54.378" ry="26.926"/><path d="m110.218 256.836c-9.949 0-18.022-7.32-18.049-16.364l-.08-27.419c-.017-5.703-5.107-10.318-11.38-10.318h-13.743c-6.29 0-11.388 4.639-11.38 10.358l.126 96.794c.012 9.276-8.257 16.802-18.46 16.802-10.195 0-18.461-7.514-18.461-16.782v-165.597h109.476v96.119c0 9.061-8.081 16.407-18.049 16.407z" fill="#d3b5f2"/></g><g fill="#4e0325"><path d="m435.992 291.517c28.986 0 52.567-23.581 52.567-52.566v-49.369c0-7.849-4.612-18.633-25.67-26.882v-27.749c0-.365-.022-.724-.06-1.078-1.107-18.154-22.908-32.176-53.071-34.995 16.935-4.572 29.357-19.14 29.357-36.371 0-12.594-9.735-30.144-13.92-37.105-15.197-25.274-23.576-25.274-26.731-25.274s-11.535 0-26.731 25.274c-4.185 6.961-13.92 24.511-13.92 37.105 0 17.23 12.421 31.799 29.357 36.371-30.163 2.819-51.965 16.841-53.071 34.995-.038.354-.06.713-.06 1.078v27.747c-21.07 8.254-25.67 19.045-25.67 26.884 0 .822.301 44.465.336 49.369 0 28.985 23.581 52.566 52.566 52.566h6.863v96.303l-37.977 7.244c-11.567 2.205-19.962 11.911-19.962 23.077 0 7.909 4.108 15.168 11.026 19.551 14.477 11.087 43.968 17.955 77.244 17.955s62.768-6.869 77.245-17.956c6.917-4.384 11.025-11.642 11.025-19.55 0-11.165-8.395-20.871-19.961-23.077l-37.978-7.244v-96.303zm32.434-101.925c-.454 1.218-2.307 2.901-5.537 4.736v-9.425c3.715 2.192 5.216 3.979 5.537 4.689zm-114.292-26.973c11.381 6.062 26.825 9.678 44.329 9.678 17.505 0 32.948-3.617 44.329-9.678v39.064c-11.172 2.736-25.954 4.777-44.329 4.777s-33.158-2.041-44.329-4.777zm23.775-100.112c0-9.127 13.098-31.992 20.555-40.282 7.457 8.29 20.555 31.155 20.555 40.282 0 9.8-9.221 17.773-20.555 17.773s-20.555-7.973-20.555-17.773zm14.526 56.114v13.738c0 3.329 2.699 6.029 6.029 6.029 3.329 0 6.029-2.699 6.029-6.029v-13.738c24.834 1.42 38.301 11.389 38.301 16.702 0 5.729-15.647 16.878-44.329 16.878-28.683 0-44.329-11.149-44.329-16.878-.002-5.313 13.466-15.282 38.299-16.702zm-58.396 66.283v9.425c-3.23-1.834-5.083-3.518-5.537-4.736.32-.709 1.82-2.496 5.537-4.689zm-5.239 53.977c-.047-6.795-.111-16.102-.171-24.803 17.636 8.47 44.306 12.477 69.835 12.477 25.608 0 52.365-4.031 70-12.555v24.951c0 17.904-14.566 32.471-32.471 32.471h-74.723c-17.904-.001-32.47-14.567-32.47-32.541zm96.16 168.666 38.048 7.257c2.069.395 3.631 1.83 3.631 3.337 0 1.459-1.39 2.402-1.816 2.655-.379.227-.743.477-1.089.752-8.804 6.97-32.401 14.003-65.269 14.003s-56.465-7.033-65.268-14.003c-.346-.275-.711-.526-1.091-.753-.426-.254-1.815-1.196-1.815-2.655 0-1.508 1.561-2.942 3.632-3.337l37.955-7.24c9.475-1.717 16.352-9.952 16.352-19.582v-96.465h20.471v96.465c-.002 9.631 6.876 17.867 16.259 19.566z"/><path d="m87.635 107.618c15.482-5.354 26.545-19.252 26.545-35.515 0-12.594-9.735-30.144-13.92-37.105-15.196-25.274-23.576-25.274-26.731-25.274s-11.535 0-26.731 25.274c-4.185 6.961-13.92 24.511-13.92 37.105 0 16.263 11.063 30.161 26.546 35.515-28.58 3.402-49.071 17.06-50.467 34.63-.139.666-.214 1.355-.214 2.062v165.597c0 10.047 5.902 18.817 14.611 23.414v103.972c0 17.654 14.362 32.016 32.016 32.016h36.319c17.655 0 32.017-14.362 32.017-32.016v-173.664c8.699-4.501 14.61-13.213 14.61-23.201v-96.118c0-.706-.074-1.393-.213-2.058-1.394-17.572-21.886-31.232-50.468-34.634zm30.584 132.811c0 3.448-3.664 6.36-8 6.36-4.327 0-7.991-2.906-8.001-6.346l-.079-27.42c-.032-11.214-9.646-20.337-21.428-20.337h-13.745c-5.849 0-11.512 2.311-15.537 6.34-3.805 3.81-5.897 8.81-5.891 14.079l.127 96.794c.002 1.924-1.005 3.338-1.851 4.184-1.623 1.625-4.015 2.557-6.562 2.557-4.561 0-8.413-3.084-8.413-6.735v-138.256c11.44 6.195 27.017 9.897 44.691 9.897 17.673 0 33.249-3.702 44.69-9.896v68.779zm-65.245-168.326c0-9.128 13.098-31.992 20.555-40.282 7.457 8.29 20.555 31.155 20.555 40.282 0 9.8-9.221 17.773-20.555 17.773s-20.555-7.973-20.555-17.773zm14.526 54.97v17.237c0 3.329 2.699 6.029 6.029 6.029 3.329 0 6.029-2.699 6.029-6.029v-17.237c23.386 1.405 38.526 10.747 38.526 17.096 0 6.88-17.77 17.282-44.555 17.282s-44.555-10.402-44.555-17.282c0-6.349 15.141-15.691 38.526-17.096zm24.188 322.139h-36.319c-6.572 0-11.92-5.348-11.92-11.921v-101.208c5.537-1.166 10.653-3.865 14.582-7.799 4.993-4.999 7.737-11.537 7.728-18.411l-.127-96.632c.145-.153.575-.459 1.333-.459h13.745c.759 0 1.188.308 1.334.46l.078 27.259c.036 12.405 9.208 22.831 21.487 25.635v171.155c0 6.574-5.348 11.921-11.921 11.921z"/><path d="m227.851 208.333c16.542-4.799 28.586-19.197 28.586-36.166 0-12.594-9.735-30.144-13.92-37.105-15.197-25.274-23.576-25.274-26.731-25.274s-11.535 0-26.731 25.274c-4.185 6.961-13.92 24.511-13.92 37.105 0 16.97 12.044 31.367 28.586 36.166-29.657 2.966-51.103 16.776-52.517 34.663-.134.655-.205 1.334-.205 2.029v144.267c0 9.097 4.21 17.289 10.901 22.959v67.732c0 17.654 14.363 32.017 32.017 32.017h43.738c17.655 0 32.017-14.363 32.017-32.017v-37.597c6.631-4.914 10.901-12.53 10.901-21.071v-176.29c0-.695-.071-1.373-.205-2.029-1.413-17.887-22.86-31.697-52.517-34.663zm32.626 212.982c0 3.643-3.845 6.72-8.397 6.72-2.546 0-4.936-.932-6.556-2.558-.844-.846-1.848-2.258-1.842-4.179l.072-22.807c.018-5.669-2.229-11.055-6.327-15.165-4.356-4.368-10.493-6.874-16.84-6.874h-10.291c-12.693 0-23.086 9.795-23.167 21.836-.005.763-1.203 1.873-3.07 1.873-7.147 0-12.962-4.876-12.962-10.87v-117.09c11.441 6.156 27.018 9.834 44.691 9.834 17.672 0 33.249-3.678 44.691-9.834v149.114zm-65.246-249.148c0-9.127 13.098-31.993 20.555-40.283 7.457 8.29 20.555 31.155 20.555 40.283 0 9.8-9.221 17.773-20.555 17.773s-20.555-7.973-20.555-17.773zm14.527 55.844v13.496c0 3.329 2.699 6.029 6.029 6.029 3.329 0 6.029-2.699 6.029-6.029v-13.496c23.391 1.387 38.534 10.607 38.534 16.873 0 6.79-17.773 17.056-44.563 17.056s-44.563-10.266-44.563-17.056c-.001-6.266 15.143-15.486 38.534-16.873zm27.897 263.893h-43.738c-6.573 0-11.921-5.348-11.921-11.921v-59.792c.682.04 1.369.066 2.062.066 12.694 0 23.087-9.796 23.166-21.835.005-.764 1.204-1.874 3.071-1.874h10.291c1.485 0 2.319.676 2.608.966.308.31.464.617.463.915l-.072 22.807c-.022 6.878 2.714 13.423 7.705 18.429 4.79 4.806 11.347 7.774 18.285 8.355v31.964c.001 6.572-5.346 11.92-11.92 11.92z"/><path d="m191.32 315.06c-3.329 0-6.029 2.699-6.029 6.029v11.053c0 3.329 2.699 6.029 6.029 6.029 3.329 0 6.029-2.699 6.029-6.029v-11.053c0-3.329-2.699-6.029-6.029-6.029z"/><path d="m437.667 241.109c0-3.329-2.699-6.029-6.029-6.029-3.329 0-6.029 2.699-6.029 6.029v11.053c0 3.329 2.699 6.029 6.029 6.029 3.329 0 6.029-2.699 6.029-6.029z"/><path d="m69.008 380.206c-3.329 0-6.029 2.699-6.029 6.029v11.053c0 3.329 2.699 6.029 6.029 6.029 3.329 0 6.029-2.699 6.029-6.029v-11.053c-.001-3.329-2.7-6.029-6.029-6.029z"/><path d="m82.347 346.344c-3.329 0-6.029 2.699-6.029 6.029v11.053c0 3.329 2.699 6.029 6.029 6.029 3.329 0 6.029-2.699 6.029-6.029v-11.053c-.001-3.33-2.7-6.029-6.029-6.029z"/></g><g fill="#fff"><path d="m226.232 357.833c-5.549 0-10.048-4.499-10.048-10.048v-14.325c0-5.549 4.499-10.048 10.048-10.048s10.048 4.499 10.048 10.048v14.325c0 5.55-4.499 10.048-10.048 10.048z"/><path d="m226.232 310.608c-5.549 0-10.048-4.499-10.048-10.048v-1.005c0-5.549 4.499-10.048 10.048-10.048s10.048 4.499 10.048 10.048v1.005c0 5.55-4.499 10.048-10.048 10.048z"/></g><g><path d="m292.971 12.12-8.254 23.208c-.353.994-1.053 1.781-1.936 2.179l-20.62 9.29c-2.913 1.312-2.913 5.954 0 7.266l20.62 9.29c.883.398 1.582 1.185 1.936 2.179l8.254 23.208c1.166 3.279 5.29 3.279 6.456 0l8.254-23.208c.354-.994 1.053-1.781 1.936-2.179l20.62-9.29c2.913-1.312 2.913-5.954 0-7.266l-20.62-9.29c-.883-.398-1.582-1.185-1.936-2.179l-8.254-23.208c-1.166-3.279-5.29-3.279-6.456 0z" fill="#fff2a5"/><path d="m155.502 1.824-6.122 17.215c-.262.737-.781 1.321-1.436 1.616l-15.295 6.891c-2.161.974-2.161 4.416 0 5.39l15.295 6.891c.655.295 1.174.879 1.436 1.616l6.122 17.216c.865 2.432 3.924 2.432 4.789 0l6.123-17.216c.262-.737.781-1.321 1.436-1.616l15.295-6.891c2.161-.974 2.161-4.416 0-5.39l-15.295-6.891c-.655-.295-1.174-.879-1.436-1.616l-6.123-17.215c-.865-2.432-3.924-2.432-4.789 0z" fill="#fff2a5"/><g fill="#ffe35c"><path d="m467.212 86.263c0 9.953 8.069 18.022 18.022 18.023 9.954 0 18.022-8.069 18.022-18.022 0-9.954-8.069-18.023-18.022-18.023-9.953-.001-18.022 8.068-18.022 18.022z"/><path d="m227.823 75.89c0 4.162 3.374 7.536 7.536 7.536s7.536-3.374 7.536-7.536-3.374-7.536-7.536-7.536-7.536 3.374-7.536 7.536z"/></g></g></g></svg>