<svg id="Capa_1" enable-background="new 0 0 512 512" height="512" viewBox="0 0 512 512" width="512" xmlns="http://www.w3.org/2000/svg"><g><g><path d="m409.687 345.902c-5.897-46.179-22.513-80.834-50.896-110.958-7.487-7.947-14.591-11.085-24.721-7.01-15.731 6.327-32.919 11.58-48.709 18.84-84.629 38.908-169.965 89.618-254.602 135.126 10.912 21.029 21.332 42.294 30.356 64.222 7.348 17.858 12.248 28.559 20.445 46.032 109.837-41.841 221.074-71.981 313.916-119.417 9.901-5.06 15.618-15.806 14.211-26.835z" fill="#a2f4e3"/><path d="m157.009 371.011 196.269-81.007c-2.963-7.915-6.171-15.747-8.502-23.849l-187.767 77.5z" fill="#00ebc4"/><path d="m413.281 347.234c-5.897-46.179-23.036-84.331-51.419-114.456-7.487-7.947-19.086-10.514-29.216-6.44-18.84 7.578-37.73 15.905-56.652 24.789 7.287-3.195 14.567-6.265 21.837-9.189 7.783-3.13 16.695-1.158 22.448 4.948 21.807 23.145 34.975 52.457 39.505 87.937 1.082 8.474-3.311 16.73-10.917 20.617-71.854 36.712-159.511 64.748-244.48 97.194-8.194 3.129-17.406-.641-21.041-8.622l-27.196-59.706c-2.708-5.945-1.617-12.687 2.312-17.45-10.308 5.647-20.608 11.247-30.897 16.764-10.051 5.39-14.21 17.639-9.482 28.018l35.397 77.711c4.732 10.389 16.722 15.295 27.387 11.223 110.593-42.23 224.683-78.72 318.206-126.504 9.899-5.058 15.616-15.805 14.208-26.834z" fill="#b0b8e5"/><path d="m63.285 414.23c-1.483 1.152-19.502 13.615-19.502 13.615l-7.96 13.986c2.181.566 4.704.744 7.541.444.23-.024.461-.052.691-.082l250.795-32.139v-25.499z" fill="#00ebc4"/><path d="m260.052 302.465-221.528 123.62-4.938-41.53 10.42-14.14 176.371-112.354 14.153-1.078z" fill="#e79d8e"/><path d="m277.384 280.455-14.61-25.306c-5.54-9.596-18.375-12.39-28.191-6.137l-14.205 9.049c3.003 1.1 5.628 3.161 7.324 6.099l10.826 18.751c3.976 6.887 1.335 15.855-5.899 20.031l-173.175 99.983-13.459-23.311c-1.668-2.89-2.285-6.101-1.99-9.199l-19.585 12.477c-9.433 6.009-12.461 18.382-6.869 28.068l15.109 32.686 236.763-136.157c9.762-5.637 13.327-17.74 7.961-27.034z" fill="#df768f"/><path d="m155.237 493.616c-5.53 0-10.242-4.223-10.746-9.837l-16.783-179.058c-.534-5.942 3.851-11.191 9.793-11.724 5.933-.538 11.19 3.85 11.724 9.793l16.783 179.058c.534 5.942-3.851 11.191-9.793 11.724-.329.03-.655.044-.978.044z" fill="#fff2a5"/><path d="m391.491 396.744c-16.24 2.61-30.677-3.187-32.246-12.948s10.325-19.789 26.566-22.398c16.24-2.61 30.677 3.187 32.246 12.948 1.568 9.76-10.326 19.788-26.566 22.398z" fill="#d3b5f2"/><path d="m423.626 376.314c-1.698-10.563-16.451-17.105-33.736-15.399 7.639.884 13.427 4.517 14.257 9.689 1.146 7.127-7.539 14.449-19.397 16.355s-22.4-2.327-23.545-9.454c-.273-1.702.019-3.414.776-5.061-4.652 4.429-7.073 9.636-6.246 14.781 1.811 11.267 18.476 17.96 37.224 14.947 18.747-3.014 32.478-14.591 30.667-25.858z" fill="#d088f3"/><ellipse cx="349.027" cy="359.319" fill="#d3b5f2" rx="34.381" ry="20.663" transform="matrix(.709 -.705 .705 .709 -151.828 350.706)"/><ellipse cx="354.063" cy="412.692" fill="#d088f3" rx="20.663" ry="34.381" transform="matrix(.453 -.891 .891 .453 -174.293 541.201)"/><ellipse cx="305.817" cy="366.858" fill="#d3b5f2" rx="34.381" ry="20.663" transform="matrix(.578 -.816 .816 .578 -170.306 404.489)"/><path d="m273.482 376.077c-6.282 17.919-20.105 29.384-30.875 25.608-10.769-3.776-14.407-21.362-8.124-39.281 6.282-17.919 20.105-29.384 30.875-25.608 10.769 3.775 14.407 21.362 8.124 39.281z" fill="#d3b5f2"/><ellipse cx="315.174" cy="423.354" fill="#d088f3" rx="20.663" ry="34.381" transform="matrix(.529 -.849 .849 .529 -210.805 467.052)"/><ellipse cx="266.23" cy="430.337" fill="#d088f3" rx="20.663" ry="34.381" transform="matrix(.709 -.705 .705 .709 -226.007 312.986)"/><path d="m248.277 461.4c-4.272-.386-8.082-3.313-9.382-7.674l-52.132-174.852c-1.704-5.717 1.548-11.734 7.265-13.438 5.719-1.704 11.734 1.548 13.438 7.265l52.132 174.852c1.704 5.717-1.548 11.733-7.265 13.438-1.356.404-2.728.529-4.056.409z" fill="#fff2a5"/><ellipse cx="279.882" cy="401.372" fill="#d3b5f2" rx="23.742" ry="23.742" transform="matrix(.043 -.999 .999 .043 -133.18 663.696)"/><ellipse cx="332.17" cy="391.382" fill="#d3b5f2" rx="21.893" ry="17.134" transform="matrix(.987 -.159 .159 .987 -57.889 57.66)"/><path d="m112.771 502.001c-4.17 0-8.143-2.429-9.911-6.497l-58.47-130.223c-2.379-5.471.128-11.834 5.599-14.213 5.467-2.381 11.833.127 14.213 5.599l58.469 130.222c2.379 5.471-.128 11.834-5.599 14.213-1.401.611-2.863.899-4.301.899z" fill="#fff2a5"/><path d="m490.198 208.332c46.666-167.888-214.921-34.817-110.974-197.631-51.066 1.663-91.006 67.604-57.12 110.034 55.263 51.947 184.357-14.384 131.147 124.443-19.33 47.58 27.896-5.638 36.947-36.846z" fill="#a2f4e3"/></g><g fill="#4e0325"><path d="m496.177 135.278c-16.665-26.342-50.467-32.196-80.289-37.361-22.957-3.976-44.641-7.731-49.833-19.499-3.392-7.686-2.397-24.739 21.604-62.331 1.999-3.13 2.099-7.11.262-10.338-1.838-3.227-5.328-5.163-9.023-5.051-29.851.972-58.018 20.848-71.758 50.637-12.211 26.476-9.541 54.755 7.144 75.646.296.371.619.721.966 1.047 22.264 20.928 53.979 24.598 81.961 27.835 25.037 2.897 46.661 5.399 54.662 18.601 7.214 11.905 4.546 34.46-7.931 67.041-5.418 13.35-7.534 22.298-2.361 28.491 2.244 2.687 5.47 4.15 8.959 4.15.875 0 1.767-.092 2.663-.28 6.746-1.415 15.565-9.585 26.211-24.282 4.634-6.397 15.897-22.951 20.397-38.466.01-.036.021-.071.03-.107 9.088-32.697 7.89-57.47-3.664-75.733zm-15.606 70.318c-2.043 7.012-6.213 15.104-10.953 22.677 8.542-28.81 8.279-49.484-.626-64.181-13.081-21.587-40.476-24.757-69.48-28.112-25.852-2.991-52.577-6.085-70.027-22.049-11.633-15-13.16-34.715-4.167-54.211 7.082-15.356 19.401-27.513 33.468-33.961-14.016 26.504-17.508 46.09-11.043 60.741 9.522 21.579 36.339 26.224 64.73 31.142 26.977 4.672 54.872 9.504 66.789 28.34 8.236 13.017 8.676 33.076 1.309 59.614z"/><path d="m421.505 362.413c1.817-5.254 2.407-10.941 1.704-16.448-6.143-48.105-24.332-88.497-54.063-120.051-8.146-8.646-19.606-12.627-30.942-11.239-.025.003-.05.006-.075.009-3.106.387-6.203 1.154-9.219 2.367-24.198 9.733-41.838 17.528-65.086 28.762-.231.112-.45.239-.668.365-3.047-2.757-6.775-4.738-10.946-5.759-7.036-1.72-14.635-.436-20.855 3.527l-26.548 16.912c-3.879-2-8.299-2.429-12.495-1.178-4.302 1.282-7.847 4.164-9.983 8.113-1.457 2.697-2.118 5.671-1.996 8.656l-27.993 17.832c-.865-1.262-1.898-2.42-3.104-3.428-3.449-2.88-7.806-4.24-12.272-3.838-4.471.401-8.52 2.52-11.397 5.965-2.879 3.446-4.243 7.806-3.838 12.301l.752 8.021-56.256 35.838c-1.619-1.633-3.565-2.937-5.769-3.805-4.178-1.646-8.748-1.566-12.859.225-4.118 1.79-7.292 5.076-8.937 9.253-1.487 3.774-1.551 7.865-.21 11.704-.488.174-.971.375-1.441.63-5.996 3.26-8.186 4.439-14.175 7.65-14.66 7.861-20.748 25.865-13.86 40.987l35.397 77.711c5.265 11.566 16.757 18.505 28.824 18.505 3.747 0 7.552-.67 11.24-2.078 6.096-2.328 9.056-3.454 15.169-5.75.57-.214 1.103-.482 1.608-.783 3.065 2.904 7.171 4.617 11.559 4.617 2.314 0 4.568-.471 6.695-1.397 4.118-1.79 7.292-5.076 8.937-9.253.572-1.452.922-2.953 1.077-4.467.554-.103 1.106-.251 1.653-.453 4.851-1.792 5.412-1.999 8.596-3.165 2.527 6.141 8.513 10.349 15.508 10.349.507 0 1.019-.023 1.514-.068 4.471-.401 8.52-2.52 11.397-5.965 2.878-3.446 4.242-7.806 3.838-12.301l-.37-3.953c.742-.091 1.486-.258 2.218-.525l10.548-3.844c16.934-6.171 30.348-11.058 48.651-17.883l.107.359c1.977 6.63 7.707 11.316 14.596 11.939.505.046 1.011.068 1.515.068 1.619 0 3.228-.236 4.799-.704 3.696-1.102 6.717-3.38 8.811-6.292 5.753 2.823 11.476 4.254 16.678 4.254 6.002 0 11.313-1.899 15.172-5.737 3.477-3.458 5.397-8.094 5.768-13.372.201.129.392.266.596.393 9.252 5.763 18.971 8.621 27.449 8.621 9.135 0 16.829-3.322 20.93-9.905.859-1.379 1.52-2.841 1.992-4.367 5.279 1.668 10.428 2.49 15.191 2.49 10.724 0 19.5-4.115 23.423-11.83 3.4-6.685 2.451-14.667-1.884-22.258 1.909-.129 3.826-.336 5.736-.643 22.358-3.593 38.015-17.973 35.643-32.738-.824-5.13-3.706-9.533-8.05-12.946zm-18.152-13.912c.287 2.245.083 4.47-.555 6.631-5.372-.729-11.247-.674-17.349.306-1.242.2-2.464.44-3.673.707 3.072-9.895 1.898-19.262-4.115-25.307-2.839-2.854-6.428-4.625-10.464-5.393-.183-.956-.508-1.902-.988-2.808-12.102-22.845-21.627-48.519-28.312-76.31-2.145-8.919.91-10.916 3.524-11.865 4.847-.341 9.672 1.479 13.157 5.178 26.769 28.413 43.179 65.039 48.775 108.861zm-50.277 26.526c-1.375-1.251-2.924-2.371-4.639-3.319-3.982-2.2-8.597-3.393-13.404-3.56 2.307-6.384 3.176-12.621 2.629-18.14.344-.362.676-.732 1.028-1.082 11.856-11.793 25.567-14.535 30.456-9.618 4.889 4.915 2.075 18.611-9.782 30.404-1.988 1.978-4.096 3.757-6.288 5.315zm-19.14 27.343c-4.392.705-8.846.04-12.224-1.826-1.706-.942-4.652-3.058-5.228-6.642-.576-3.583 1.56-6.515 2.884-7.944 2.622-2.83 6.645-4.858 11.036-5.564 1.148-.184 2.302-.275 3.438-.275 3.21 0 6.292.723 8.787 2.101 1.706.942 4.652 3.058 5.228 6.641s-1.56 6.516-2.884 7.945c-2.623 2.83-6.646 4.858-11.037 5.564zm-28.463-16.139c-4.021-6.77-10.649-11.815-18.492-13.743 1.316-4.702 3.654-9.553 6.871-14.099 9.664-13.649 22.702-18.694 28.361-14.69 5.483 3.882 4.784 15.773-1.576 27.11-3.887 1.662-7.34 4.031-10.078 6.986-2.353 2.538-4.067 5.418-5.086 8.436zm-25.591 32.878c-9.781 0-17.737-7.957-17.737-17.737 0-9.777 7.952-17.732 17.729-17.737.011 0 .022.002.032.002h.005c9.767.016 17.709 7.965 17.709 17.736-.001 9.779-7.958 17.736-17.738 17.736zm-39.172-55.927c5.667-14.998 16.41-22.953 22.777-20.72 3.096 1.085 5.489 4.689 6.563 9.887 1.298 6.275.526 14.199-2.118 21.741-.007.019-.011.039-.017.058-8.964 3.956-15.616 12.209-17.336 22.137zm88.442-29.285c-12.202-8.64-32.015-.931-45.102 17.553-.567.801-1.107 1.614-1.631 2.433-.144-1.352-.341-2.678-.608-3.966-1.883-9.108-6.6-15.584-13.328-18.385l66.923-27.601c3.502 8.548 7.309 16.813 11.404 24.78-4.654 2.127-9.314 5.144-13.702 9.004-1.123-1.456-2.437-2.743-3.956-3.818zm-91.72 10.441c-.565.746-1.115 1.519-1.652 2.314l-.434-1.455zm81.003-93.328c1.437 5.972 3.005 11.85 4.69 17.638l-37.871 15.619c-.534-2.342-1.413-4.637-2.669-6.814l-8.337-14.44c15.497-7.463 28.56-13.405 43.025-19.52.155 2.405.536 4.914 1.162 7.517zm-33.759 46.487 42.012-17.327c1.388 4.244 2.84 8.435 4.363 12.564l-84.241 34.743 25.615-14.789c6.108-3.525 10.32-9.051 12.251-15.191zm-46.867-43.42c3.472-2.212 7.681-2.937 11.548-1.991 3.541.867 6.458 3.021 8.217 6.066l14.611 25.305c3.701 6.412 1.116 14.86-5.764 18.831l-37.425 21.607-15.775-52.909c-.104-.347-.234-.681-.358-1.018zm-72.763 153.166 51.746-6.631 3.846 12.899-54.352 6.965zm-1.121-11.964-1.773-18.923 5.882-3.396 36.078-14.88 9.204 30.87zm-1.205-33.119-1.829.754-5.293-56.467 27.833-17.73 15.639 52.455zm-32.155 37.394-11.046 1.415 10.605-6.123zm-33.179 16.36 34.301-4.396 1.24 13.233-29.856 3.826zm31.505-34.224-37.222 21.49-19.554-43.552 51.626-32.888zm-60.659 51.351-5.478.702 4.6-2.656zm-29.17.513-11.872-26.064c-2.527-5.55-.286-12.16 5.103-15.05 6.025-3.231 8.233-4.42 14.255-7.694l15.862 35.327zm38.232 57.668c-5.715 2.182-12.176-.462-14.708-6.021l-16.926-37.16 27.712-3.552 18.5 41.203c-5.687 2.139-8.679 3.278-14.578 5.53zm39.935 1.732c-.469 1.192-1.375 2.13-2.554 2.642-.609.265-1.25.4-1.904.4-1.913 0-3.642-1.133-4.433-2.952l-58.44-130.157c-.51-1.175-.534-2.479-.063-3.671.469-1.192 1.375-2.13 2.554-2.642.612-.266 1.26-.4 1.908-.4.594 0 1.188.112 1.758.336 1.192.47 2.132 1.377 2.671 2.617l58.44 130.157c.509 1.175.533 2.479.063 3.67zm16.165-22.679c-3.71 1.359-4.048 1.483-9.198 3.385-.254.094-.498.204-.739.316l-15.244-33.951 25.836-3.311 3.03 32.331c-.462.098-.923.217-1.379.384zm25.536 15.613c-.821.984-1.976 1.588-3.259 1.703-2.658.238-4.967-1.755-5.203-4.373l-16.781-179.035c-.114-1.275.275-2.52 1.096-3.503.822-.983 1.977-1.588 3.26-1.703.146-.013.291-.02.437-.02 1.115 0 2.187.388 3.058 1.115.985.823 1.59 1.978 1.708 3.278l6.44 68.71c.002.027.005.054.008.081l10.333 110.243c.114 1.277-.275 2.521-1.097 3.504zm67.578-49.735c-18.477 6.892-31.938 11.796-48.979 18.005l-7.818 2.849-2.303-24.568 56.707-7.267 3.198 10.726c-.269.076-.538.156-.805.255zm24.109 19.083c-.591.176-1.195.238-1.799.183h-.001c-1.967-.178-3.603-1.516-4.167-3.41l-10.309-34.577c-.078-.405-.194-.794-.347-1.163l-41.476-139.112c-.367-1.228-.233-2.525.377-3.652.609-1.127 1.62-1.949 2.848-2.315.454-.135.918-.202 1.378-.202.786 0 1.565.195 2.275.58 1.127.609 1.949 1.62 2.314 2.849l52.132 174.852c.757 2.534-.689 5.211-3.225 5.967zm35.625-4.781c-3.72 3.701-11.996 2.793-20.349-1.997-.115-.874-.279-1.75-.539-2.621l-7.213-24.193c5.434 5.824 13.168 9.475 21.742 9.475 1.594 0 3.158-.129 4.686-.372.165.234.351.46.521.692 4.105 7.931 4.635 15.551 1.152 19.016zm53.018-12.098c-3.665 5.884-17.641 6.282-31.836-2.56-4.377-2.727-8.214-6.04-11.19-9.593 6.912-4.567 11.815-11.936 13.073-20.479 1.787 2.086 4.008 3.901 6.596 5.331 3.646 2.014 7.818 3.195 12.186 3.51.088.081.171.164.264.241 9.478 7.809 14.268 18.154 10.907 23.55zm40.096-12.802c-3.11 6.113-15.634 7.011-27.954 2.017-1.378-5.111-4.265-10.365-8.503-15.295 4.215-1.67 7.958-4.152 10.883-7.308 1.858-2.005 3.315-4.224 4.35-6.555.865.382 1.727.78 2.577 1.212 14.905 7.581 21.79 19.749 18.647 25.929zm12.651-29.314c-4.952.795-9.921.845-14.433.165-3.329-2.777-7.156-5.316-11.421-7.485-2.164-1.101-4.381-2.063-6.617-2.894-.054-.253-.115-.505-.179-.755 2.974-2.051 5.821-4.403 8.477-7.045 2.171-2.159 4.119-4.409 5.854-6.708.272-.084.542-.182.806-.307 3.905-1.854 8.232-3.171 12.861-3.915 16.511-2.651 29.241 3.126 30.343 9.971 1.099 6.844-9.181 16.32-25.691 18.973z"/></g><g fill="#fff"><path d="m95.444 371.977c-3.409 0-6.732-1.742-8.605-4.883-2.832-4.747-1.279-10.891 3.468-13.722l10.193-6.08c4.748-2.834 10.892-1.279 13.722 3.468 2.832 4.747 1.279 10.891-3.468 13.722l-10.193 6.08c-1.606.959-3.373 1.415-5.117 1.415z"/><circle cx="277.856" cy="398.176" r="6.005"/></g><g><path d="m196.99 2.449-8.221 23.117c-.352.99-1.049 1.774-1.928 2.17l-20.538 9.253c-2.902 1.307-2.902 5.931 0 7.238l20.538 9.253c.879.396 1.576 1.181 1.928 2.17l8.221 23.117c1.161 3.266 5.269 3.266 6.43 0l8.221-23.117c.352-.99 1.049-1.774 1.928-2.17l20.538-9.253c2.902-1.307 2.902-5.931 0-7.238l-20.538-9.253c-.879-.396-1.576-1.181-1.928-2.17l-8.221-23.117c-1.161-3.265-5.268-3.265-6.43 0z" fill="#a2f4e3"/><path d="m66.443 177.63-6.098 17.148c-.261.734-.778 1.316-1.43 1.61l-15.235 6.864c-2.152.97-2.152 4.399 0 5.369l15.235 6.864c.652.294 1.169.876 1.43 1.61l6.098 17.148c.862 2.423 3.908 2.423 4.77 0l6.099-17.148c.261-.734.778-1.316 1.43-1.61l15.235-6.864c2.152-.97 2.152-4.399 0-5.369l-15.235-6.864c-.652-.294-1.169-.876-1.43-1.61l-6.099-17.148c-.862-2.422-3.908-2.422-4.77 0z" fill="#a2f4e3"/><g fill="#00ebc4"><path d="m214.814 157.862c0 9.914 8.037 17.952 17.951 17.952s17.952-8.037 17.952-17.952-8.037-17.952-17.952-17.952c-9.914 0-17.951 8.037-17.951 17.952z"/><path d="m97.466 129.915c0 4.145 3.36 7.506 7.506 7.506s7.506-3.361 7.506-7.506c0-4.146-3.361-7.506-7.506-7.506-4.145-.001-7.506 3.36-7.506 7.506z"/></g></g></g></svg>