<svg id="Capa_1" enable-background="new 0 0 512 512" height="512" viewBox="0 0 512 512" width="512" xmlns="http://www.w3.org/2000/svg"><g><g><path d="m434.528 212.012h-37.579c-5.826 0-10.549-4.723-10.549-10.549v-27.423c0-5.826 4.723-10.549 10.549-10.549h37.579c5.826 0 10.549 4.723 10.549 10.549v27.423c0 5.826-4.723 10.549-10.549 10.549z" fill="#75b7f2"/><path d="m434.528 365.873h-37.579c-5.826 0-10.549-4.723-10.549-10.549v-27.423c0-5.826 4.723-10.549 10.549-10.549h37.579c5.826 0 10.549 4.723 10.549 10.549v27.423c0 5.826-4.723 10.549-10.549 10.549z" fill="#ffe35c"/><path d="m434.528 414.393h-37.579c-5.826 0-10.549-4.723-10.549-10.549v-27.423c0-5.826 4.723-10.549 10.549-10.549h37.579c5.826 0 10.549 4.723 10.549 10.549v27.423c0 5.826-4.723 10.549-10.549 10.549z" fill="#ff8cc0"/><path d="m380.287 403.151h-274.933c-19.718 0-37.483 1.866-37.483-17.851l-6.142-21.239v-261.504c0-19.718 15.984-35.702 35.702-35.702h244.982l38.364 10.472c9.485 0 17.174 7.689 17.174 17.174l-.489 291.477c-.001 9.484-7.69 17.173-17.175 17.173z" fill="#c37777"/><path d="m405.47 84.028c0-9.485-7.689-17.174-17.174-17.174h-45.884v41.012l16.449 167.668-16.449 95.742c0 7.745-6.278 14.023-14.023 14.023h-237.508c-16.101 0-29.153-13.052-29.153-29.153v110.106c0 19.718 15.984 35.702 35.702 35.702h290.865c9.485 0 17.174-7.689 17.174-17.174v-32.37l-6.21-20.02 6.21-17.883v-330.479z" fill="#ba5677"/><path d="m370.227 424.332-14.175-9.823h-252.287v23.999l4.377 16.065h262.085z" fill="#fff"/><path d="m356.052 414.509v14.669c0 7.911-6.413 14.323-14.324 14.323h-229.203c-4.838 0-8.76-3.922-8.76-8.76v21.58c0 5.785 4.69 10.475 10.475 10.475h274.1c9.46 0 17.129-7.669 17.129-17.129v-35.159h-49.417z" fill="#ffc0fe"/><path d="m340.425 385.3h-164.762c0-17.026-13.803-30.829-30.829-30.829v-226.673c17.027 0 30.829-13.803 30.829-30.829h164.762c0 17.027 13.803 30.829 30.829 30.829v226.672c-17.027.001-30.829 13.803-30.829 30.83z" fill="#e79d8e"/><path d="m371.254 354.471v-226.673c-13.189 0-24.438-8.285-28.842-19.932v263.411c0 7.745-6.278 14.023-14.023 14.023h12.035c.001-17.027 13.804-30.829 30.83-30.829z" fill="#df768f"/><path d="m299.132 244.584c0 25.116-13.894 35.179-39.01 35.179s-46.556-12.152-46.556-37.268c0-1.381-.937-4.107-.816-5.457 2.071-23.196 21.559-41.38 45.295-41.38 25.115 0 41.087 23.81 41.087 48.926z" fill="#ffddb6"/><path d="m258.044 195.658c-1.763 0-3.501.105-5.212.302 17.547 2.248 31.112 17.228 31.112 35.386 0 19.71-15.978 35.688-35.688 35.688-18.158 0-33.138-13.565-35.386-31.112-.197 1.71-.302 3.449-.302 5.212 0 25.116 20.361 45.476 45.476 45.476 25.116 0 45.477-20.36 45.477-45.476s-20.361-45.476-45.477-45.476z" fill="#ffa7b8"/><g fill="#ffddb6"><path d="m258.044 157.945c-18.387 0-34.214-10.918-41.381-26.62-2.623 5.746-4.096 12.127-4.096 18.856 0 23.787 18.263 43.309 41.532 45.308 1.3.112 2.615.169 3.945.169 25.116 0 45.477-20.361 45.477-45.477 0-6.729-1.473-13.11-4.096-18.856-7.168 15.702-22.994 26.62-41.381 26.62z"/><path d="m258.044 324.324c18.387 0 34.214 10.918 41.38 26.62 2.623-5.746 4.096-12.127 4.096-18.856 0-25.116-20.361-45.477-45.477-45.477s-45.477 20.361-45.477 45.477c0 6.729 1.473 13.11 4.096 18.856 7.168-15.702 22.995-26.62 41.382-26.62z"/></g></g><g fill="#4e0325"><path d="m434.528 222.057c11.356 0 20.594-9.238 20.594-20.594v-27.423c0-11.355-9.238-20.594-20.594-20.594h-19.013v-69.418c0-15.008-12.211-27.219-27.219-27.219h-290.865c-25.225 0-45.747 20.522-45.747 45.747v347.443 16.254c0 25.225 20.522 45.747 45.747 45.747h290.865c15.009 0 27.219-12.21 27.219-27.219v-60.344h19.013c11.356 0 20.594-9.238 20.594-20.594v-27.423c0-3.858-1.086-7.459-2.939-10.549 1.854-3.09 2.939-6.691 2.939-10.549v-27.423c0-11.355-9.238-20.594-20.594-20.594h-19.013v-85.251h19.013zm0-48.52c.278 0 .504.226.504.504v27.423c0 .278-.226.504-.504.504h-19.013v-28.43h19.013zm-324.735 273.143h144.374c3.328 0 6.027-2.699 6.027-6.027s-2.699-6.027-6.027-6.027h-144.374v-10.072h285.633v10.072h-55.031c-3.328 0-6.027 2.699-6.027 6.027s2.699 6.027 6.027 6.027h55.031v11.528c-1.924 1.599-4.393 2.562-7.085 2.562h-274.1c-2.453 0-4.448-1.996-4.448-4.449zm285.632-362.652v320.435h-275.157v-327.563h268.028c3.931 0 7.129 3.198 7.129 7.128zm-297.994-7.128h10.783v327.564h-10.995c-9.417 0-18.176 2.874-25.445 7.79v-309.697c0-14.148 11.509-25.657 25.657-25.657zm290.865 415.01h-290.865c-14.147 0-25.657-11.51-25.657-25.657v-16.254c0-14.031 11.415-25.445 25.445-25.445h.519v31.767c0 9.099 7.403 16.503 16.502 16.503h274.1c2.471 0 4.85-.393 7.085-1.113v13.07c0 3.931-3.198 7.129-7.129 7.129zm46.736-88.066c0 .278-.226.504-.504.504h-19.013v-28.43h19.013c.278 0 .504.226.504.504zm-.504-76.446c.278 0 .504.226.504.504v27.423c0 .278-.226.504-.504.504h-19.013v-28.43h19.013z"/><path d="m144.833 360.498c13.676 0 24.803 11.126 24.803 24.802 0 3.329 2.698 6.027 6.027 6.027h164.762c3.328 0 6.027-2.698 6.027-6.027 0-13.676 11.127-24.802 24.803-24.802 3.328 0 6.027-2.699 6.027-6.027v-226.673c0-3.328-2.699-6.027-6.027-6.027-13.676 0-24.803-11.127-24.803-24.803 0-3.329-2.699-6.027-6.027-6.027h-164.762c-3.329 0-6.027 2.698-6.027 6.027 0 13.676-11.126 24.803-24.803 24.803-3.329 0-6.027 2.699-6.027 6.027v226.672c0 3.329 2.699 6.028 6.027 6.028zm6.027-227.165c15.505-2.561 27.776-14.832 30.337-30.337h153.693c2.561 15.505 14.832 27.776 30.337 30.337v215.603c-15.505 2.561-27.776 14.832-30.337 30.337h-153.693c-2.561-15.505-14.832-27.776-30.337-30.337z"/><path d="m206.54 332.088c0 7.427 1.561 14.613 4.64 21.358.98 2.147 3.123 3.525 5.483 3.525s4.503-1.378 5.483-3.525c6.404-14.03 20.495-23.095 35.898-23.095s29.494 9.065 35.898 23.095c.98 2.147 3.123 3.525 5.483 3.525s4.503-1.378 5.483-3.525c3.079-6.746 4.64-13.932 4.64-21.358 0-19.679-11.099-36.808-27.361-45.477 16.262-8.668 27.361-25.798 27.361-45.477s-11.099-36.808-27.361-45.476c16.262-8.668 27.361-25.798 27.361-45.477 0-7.427-1.561-14.613-4.64-21.359-.98-2.147-3.123-3.525-5.483-3.525s-4.503 1.377-5.483 3.525c-6.404 14.03-20.494 23.095-35.898 23.095s-29.494-9.066-35.898-23.095c-.98-2.147-3.123-3.525-5.483-3.525s-4.503 1.377-5.483 3.525c-3.079 6.746-4.64 13.932-4.64 21.359 0 19.679 11.098 36.808 27.361 45.477-16.262 8.668-27.361 25.798-27.361 45.476 0 19.679 11.098 36.808 27.361 45.477-16.262 8.669-27.361 25.798-27.361 45.477zm12.054-181.906c0-1.462.079-2.912.236-4.348 9.649 11.31 23.937 18.138 39.213 18.138s29.564-6.828 39.213-18.138c.157 1.435.236 2.886.236 4.348 0 21.753-17.697 39.45-39.45 39.45-21.751-.001-39.448-17.698-39.448-39.45zm0 90.952c0-21.752 17.697-39.449 39.45-39.449s39.45 17.697 39.45 39.449c0 21.753-17.697 39.45-39.45 39.45s-39.45-17.697-39.45-39.45zm39.45 51.504c21.753 0 39.45 17.697 39.45 39.45 0 1.462-.079 2.912-.236 4.348-9.649-11.309-23.937-18.138-39.213-18.138s-29.564 6.829-39.213 18.138c-.158-1.435-.236-2.885-.236-4.348-.002-21.753 17.695-39.45 39.448-39.45z"/><path d="m320.38 296.394c3.328 0 6.027-2.699 6.027-6.027v-9.965c0-3.328-2.699-6.027-6.027-6.027s-6.027 2.699-6.027 6.027v9.965c0 3.328 2.699 6.027 6.027 6.027z"/><path d="m342.413 256.699c3.328 0 6.027-2.699 6.027-6.027v-9.965c0-3.328-2.699-6.027-6.027-6.027s-6.027 2.699-6.027 6.027v9.965c0 3.328 2.698 6.027 6.027 6.027z"/><path d="m179.855 323.682c3.328 0 6.027-2.699 6.027-6.027v-9.965c0-3.328-2.699-6.027-6.027-6.027s-6.027 2.699-6.027 6.027v9.965c0 3.329 2.699 6.027 6.027 6.027z"/></g><g fill="#fff"><path d="m174.174 241.4c-5.548 0-10.045-4.497-10.045-10.045v-32.467c0-5.548 4.497-10.045 10.045-10.045s10.045 4.497 10.045 10.045v32.467c0 5.548-4.497 10.045-10.045 10.045z"/><path d="m174.174 176.257c-5.548 0-10.045-4.497-10.045-10.045v-2.72c0-5.548 4.497-10.045 10.045-10.045s10.045 4.497 10.045 10.045v2.72c0 5.548-4.497 10.045-10.045 10.045z"/></g><g><path d="m467.136 2.458-8.251 23.201c-.353.993-1.053 1.781-1.935 2.178l-20.614 9.287c-2.912 1.312-2.912 5.952 0 7.264l20.614 9.287c.882.398 1.582 1.185 1.935 2.178l8.251 23.202c1.166 3.278 5.288 3.278 6.454 0l8.251-23.202c.353-.993 1.053-1.781 1.935-2.178l20.614-9.287c2.912-1.312 2.912-5.952 0-7.264l-20.614-9.287c-.883-.398-1.582-1.185-1.935-2.178l-8.251-23.201c-1.166-3.277-5.289-3.277-6.454 0z" fill="#ffc8b7"/><path d="m474.52 248.746c0 9.951 8.067 18.017 18.017 18.017 9.951 0 18.017-8.067 18.017-18.017 0-9.951-8.066-18.018-18.017-18.018-9.95.001-18.017 8.067-18.017 18.018z" fill="#ffa785"/><path d="m165.778 7.534c0 4.161 3.373 7.534 7.534 7.534s7.534-3.373 7.534-7.534-3.373-7.534-7.534-7.534-7.534 3.373-7.534 7.534z" fill="#ffa785"/><path d="m25.913 2.715-6.121 17.21c-.262.737-.781 1.321-1.436 1.616l-15.291 6.89c-2.16.973-2.16 4.415 0 5.388l15.291 6.889c.655.295 1.174.879 1.436 1.616l6.121 17.211c.865 2.431 3.923 2.431 4.787 0l6.121-17.211c.262-.737.781-1.321 1.436-1.616l15.291-6.889c2.16-.973 2.16-4.415 0-5.388l-15.291-6.889c-.655-.295-1.174-.879-1.436-1.616l-6.121-17.211c-.865-2.431-3.923-2.431-4.787 0z" fill="#ffc8b7"/></g></g></svg>