<svg id="Capa_1" enable-background="new 0 0 512 512" height="512" viewBox="0 0 512 512" width="512" xmlns="http://www.w3.org/2000/svg"><g><g><path d="m64.047 402.363h374.703v-267.123l-46.063-21.071h-274.649l-67.375 34.808-32.498 65.064v118.076l32.034 62.647z" fill="#98e8f2"/><path d="m468.549 114.169h-75.694c11.618 0 21.036 9.418 21.036 21.036v222.334c0 11.618-9.418 21.036-21.036 21.036h-353.653c-11.618 0-21.036-9.418-21.036-21.036v49.165c0 13.965 11.321 25.286 25.286 25.286h425.098c13.965 0 25.286-11.321 25.286-25.286v-267.249c-.001-13.966-11.322-25.286-25.287-25.286z" fill="#a6aff4"/><path d="m464.004 148.52s-62.125-25.454-61.458-24.383c2.003 3.213 3.167 7.002 3.167 11.068v222.334c0 11.618-9.418 21.036-21.036 21.036h-320.054l7.692 31.438 45.723 21.977h274.65l67.291-33.482 33.856-67.665v-115.527z" fill="#a6aff4"/><path d="m106.127 114.168h-62.676c-13.943 0-25.286 11.343-25.286 25.286v62.676 11.91l8.422-8.422 83.029-83.029 8.422-8.422h-11.911z" fill="#75b7f2"/><path d="m485.413 339.265-84.303 84.303-8.422 8.422h11.91 63.951c13.943 0 25.286-11.343 25.286-25.286v-63.951-11.91z" fill="#8289f3"/><path d="m109.616 423.568-83.029-83.029-8.422-8.422v11.91 62.676c0 13.943 11.343 25.286 25.286 25.286h62.676 11.91z" fill="#75b7f2"/><g fill="#8289f3"><path d="m118.037 431.99-8.422-8.422-44.993-44.993h-25.42c-11.618 0-21.036-9.418-21.036-21.036v49.165c0 .49.017.975.045 1.457.733 12.837 11.083 23.142 23.942 23.796.43.022.864.033 1.299.033z"/><path d="m468.549 114.168h-63.951-11.911l8.422 8.422 84.304 84.303 8.422 8.422v-11.91-63.951c0-13.942-11.343-25.286-25.286-25.286z"/><path d="m468.549 114.168h-63.951-11.911l8.422 8.422 84.304 84.303 8.422 8.422v-11.91-63.951c0-13.942-11.343-25.286-25.286-25.286z"/></g><path d="m160.321 463.365h160.949c3.505-9.526 24.438-61.002 24.438-61.002s-46.487-106.089-53.32-114.017c-13.159-15.267-43.846-32.288-47.915-30.583-36.061 15.114-87.702 92.773-96.041 154.464-.756 5.596 11.413 46.446 11.889 51.138z" fill="#75b7f2"/><path d="m256 255.149c-3.492 0-7.254.87-11.203 2.488 31.59 14.195 77.263 86.38 77.263 136.898 0 33.105-13.551 49.522-34.54 57.428-14.677 5.528-42.315-5.477-52.852-5.477s-37.982 11.019-52.62 5.564c-17.276-6.439-29.549-18.601-33.447-40.996-.861 6.004-1.325 11.864-1.325 17.504 0 41.337 16.983 61.76 43.26 71.555 18.21 6.787 52.355-6.922 65.464-6.922s47.493 13.691 65.753 6.813c26.113-9.836 42.971-30.261 42.971-71.446 0-69.982-70.457-173.409-108.724-173.409z" fill="#8289f3"/><ellipse cx="256" cy="368.979" fill="#ffc0fe" rx="45.27" ry="45.27" transform="matrix(.919 -.394 .394 .919 -124.532 130.49)"/><path d="m313.932 141.478c-13.504 0-49.398 13.495-57.869 29.367l-.039.016-.087-.016c-8.471-15.872-44.365-29.367-57.869-29.367-20.315 0-5.338 21.11 0 31.351 5.549 10.646 10.912 16.351 25.229 13.712l-1.244.562c-10.133 3.9-6.779 23.545 1.254 29.633 8.033 6.089 20.967 5.785 26.504-1.229 3.986-5.05 5.53-11.812 6.118-20.201.653 8.39 2.271 15.145 6.262 20.201 5.536 7.013 18.471 7.317 26.504 1.229s11.386-25.733 1.254-29.633l-1.244-.562c14.316 2.64 19.68-3.065 25.229-13.712 5.336-10.241 20.313-31.351-.002-31.351z" fill="#75b7f2"/><ellipse cx="253.109" cy="364.107" fill="#fff" rx="29.262" ry="29.262" transform="matrix(.707 -.707 .707 .707 -183.329 285.62)"/></g><g fill="#4e0325"><path d="m468.549 104.152h-425.098c-19.466 0-35.303 15.837-35.303 35.303v267.249c0 19.466 15.837 35.303 35.303 35.303h94.428c3.235 34.249 19.395 56.4 49.159 67.493 4.82 1.797 10.245 2.5 15.945 2.5 11.758-.001 24.671-2.996 35.755-5.567 6.83-1.585 13.893-3.223 17.262-3.223 3.357 0 10.411 1.623 17.233 3.192 16.583 3.815 37.222 8.561 52.05 2.978 29.56-11.134 45.615-33.246 48.838-67.373h94.427c19.466 0 35.302-15.837 35.302-35.303v-267.249c.001-19.466-15.835-35.303-35.301-35.303zm-93.997 317.821c-1.834-32.898-17.027-74.102-41.431-111.806-.794-1.227-1.751-2.679-2.852-4.308h20.596c3.319 0 6.01-2.691 6.01-6.01s-2.691-6.01-6.01-6.01h-29.186c-15.439-20.459-41.194-48.707-65.678-48.707s-50.239 28.248-65.678 48.707h-27.128c-3.319 0-6.01 2.691-6.01 6.01s2.691 6.01 6.01 6.01h18.538c-1.101 1.629-2.058 3.082-2.852 4.308-24.404 37.703-39.597 78.908-41.431 111.806h-22.24l-87.028-87.028v-123.731l87.028-87.028h280.306l88.302 88.303v121.183l-88.303 88.303h-20.963zm109.266-282.518v44.701l-59.971-59.971h44.702c8.419 0 15.269 6.85 15.269 15.27zm-440.367-15.27h43.427l-58.696 58.696v-43.426c0-8.42 6.85-15.27 15.269-15.27zm-15.269 282.519v-43.427l58.696 58.696h-43.427c-8.419 0-15.269-6.849-15.269-15.269zm290.04 83.928c-9.168 3.455-27.276-.712-40.497-3.753-8.635-1.987-16.093-3.702-21.725-3.702-5.663 0-13.136 1.734-21.789 3.742-13.11 3.042-31.064 7.207-40.177 3.811-25.41-9.471-36.742-28.645-36.742-62.169 0-29.713 14.716-70.907 38.404-107.507 24.853-38.398 48.681-55.887 60.303-55.887s35.45 17.489 60.303 55.887c23.688 36.599 38.404 77.793 38.404 107.507.002 33.423-11.251 52.567-36.484 62.071zm150.327-68.659h-44.701l59.97-59.971v44.701c0 8.421-6.85 15.27-15.269 15.27z"/><path d="m307.28 368.979c0-28.276-23.004-51.28-51.28-51.28s-51.28 23.004-51.28 51.28 23.004 51.28 51.28 51.28 51.28-23.004 51.28-51.28zm-51.28 39.26c-21.648 0-39.26-17.612-39.26-39.26s17.612-39.26 39.26-39.26 39.26 17.612 39.26 39.26c0 21.649-17.612 39.26-39.26 39.26z"/><path d="m278.453 444.339c-3.181.948-4.991 4.295-4.043 7.476.777 2.608 3.168 4.295 5.757 4.295.568 0 1.146-.081 1.719-.252 17.054-5.083 32.712-15.489 44.092-29.302 2.111-2.562 1.745-6.349-.817-8.46-2.561-2.11-6.349-1.745-8.46.817-9.877 11.988-23.46 21.018-38.248 25.426z"/><path d="m233.073 444.196c-14.59-4.448-28.005-13.427-37.774-25.283-2.111-2.562-5.899-2.927-8.46-.816-2.562 2.111-2.927 5.898-.816 8.46 11.255 13.66 26.72 24.007 43.545 29.138.584.178 1.174.263 1.755.263 2.575 0 4.957-1.668 5.747-4.259.967-3.177-.822-6.535-3.997-7.503z"/><path d="m395.164 255.795c1.919 2.952 5.13 4.557 8.407 4.557 1.872 0 3.765-.524 5.451-1.62 4.638-3.016 5.953-9.22 2.938-13.858-11.984-18.431-26.953-34.459-44.492-47.639-4.423-3.323-10.703-2.432-14.025 1.991-3.323 4.423-2.432 10.702 1.991 14.025 15.66 11.769 29.027 26.083 39.73 42.544z"/><path d="m144.937 196.682c-15.967 12.205-30.8 28.312-44.087 47.874-3.109 4.576-1.919 10.806 2.657 13.914 1.724 1.171 3.682 1.732 5.619 1.732 3.207 0 6.358-1.537 8.295-4.389 12.077-17.779 25.428-32.318 39.682-43.215 4.395-3.36 5.234-9.646 1.875-14.041s-9.645-5.235-14.041-1.875z"/><path d="m313.932 135.468c-13.269 0-43.7 10.62-57.932 25.518-14.232-14.899-44.663-25.518-57.932-25.518-7.141 0-12.065 2.235-14.635 6.641-4.867 8.343 1.675 19.909 6.931 29.201.889 1.572 1.728 3.055 2.374 4.296 4.514 8.659 9.572 14.811 17.815 16.844-.23.861-.417 1.756-.55 2.692-1.366 9.648 2.883 21.237 9.673 26.383 4.891 3.707 10.964 5.514 16.837 5.514 7.12 0 13.948-2.657 18.014-7.809.53-.671 1.014-1.365 1.473-2.074.458.709.943 1.403 1.473 2.074 4.067 5.152 10.893 7.809 18.014 7.808 5.873 0 11.948-1.808 16.838-5.514 6.789-5.146 11.038-16.735 9.672-26.383-.133-.936-.32-1.831-.55-2.692 8.242-2.033 13.302-8.185 17.815-16.843.647-1.241 1.486-2.725 2.374-4.296 5.256-9.293 11.798-20.858 6.931-29.201-2.57-4.406-7.495-6.641-14.635-6.641zm-110.534 34.583c-.742-1.423-1.631-2.994-2.572-4.658-2.018-3.568-8.131-14.377-7.025-17.188.194-.132 1.233-.717 4.267-.717 10.773 0 38.379 10.366 49.299 21.821-6.215 4.194-12.179 8.133-21.847 10.594-13.703 3.489-16.951.069-22.122-9.852zm23.539 41.895c-2.995-2.27-5.846-9.369-5.032-15.12.221-1.557.8-3.535 2.307-4.115.282-.108.546-.242.801-.386 1.12-.218 2.271-.469 3.473-.775 9.296-2.366 15.899-5.97 21.497-9.561.066 13.794-.209 23.864-4.89 29.793-3.342 4.235-12.676 4.319-18.156.164zm58.127 0c-5.482 4.155-14.814 4.071-18.156-.162-4.681-5.93-4.956-16-4.89-29.794 5.598 3.591 12.201 7.195 21.497 9.561 1.202.306 2.353.558 3.473.776.255.144.519.277.8.386 1.507.58 2.086 2.558 2.307 4.115.814 5.749-2.037 12.848-5.031 15.118zm26.11-46.552c-.941 1.663-1.83 3.234-2.572 4.658-5.171 9.921-8.417 13.34-22.122 9.851-9.668-2.461-15.632-6.4-21.847-10.594 10.92-11.454 38.526-21.821 49.298-21.821 3.034 0 4.073.586 4.267.717 1.106 2.812-5.006 13.621-7.024 17.189z"/><path d="m99.07 299.849c0-3.319-2.691-6.01-6.01-6.01h-18.61c-3.319 0-6.01 2.691-6.01 6.01s2.691 6.01 6.01 6.01h18.61c3.319 0 6.01-2.691 6.01-6.01z"/><path d="m143.442 299.849c0-3.319-2.691-6.01-6.01-6.01h-18.61c-3.319 0-6.01 2.691-6.01 6.01s2.691 6.01 6.01 6.01h18.61c3.319 0 6.01-2.691 6.01-6.01z"/><path d="m102.365 333.084h-18.61c-3.319 0-6.01 2.691-6.01 6.01s2.691 6.01 6.01 6.01h18.61c3.319 0 6.01-2.691 6.01-6.01s-2.691-6.01-6.01-6.01z"/><path d="m146.736 333.084h-18.61c-3.319 0-6.01 2.691-6.01 6.01s2.691 6.01 6.01 6.01h18.61c3.319 0 6.01-2.691 6.01-6.01s-2.691-6.01-6.01-6.01z"/><path d="m388.669 339.094c0-3.319-2.691-6.01-6.01-6.01h-18.61c-3.319 0-6.01 2.691-6.01 6.01s2.691 6.01 6.01 6.01h18.61c3.318 0 6.01-2.691 6.01-6.01z"/><path d="m427.03 333.084h-18.61c-3.319 0-6.01 2.691-6.01 6.01s2.691 6.01 6.01 6.01h18.61c3.319 0 6.01-2.691 6.01-6.01s-2.691-6.01-6.01-6.01z"/><path d="m439.608 293.839h-18.61c-3.319 0-6.01 2.691-6.01 6.01s2.691 6.01 6.01 6.01h18.61c3.319 0 6.01-2.691 6.01-6.01s-2.691-6.01-6.01-6.01z"/><path d="m395.237 293.839h-18.61c-3.319 0-6.01 2.691-6.01 6.01s2.691 6.01 6.01 6.01h18.61c3.319 0 6.01-2.691 6.01-6.01s-2.691-6.01-6.01-6.01z"/><path d="m456.589 231.236c-3.319 0-6.01 2.691-6.01 6.01v10.854c0 3.319 2.691 6.01 6.01 6.01s6.01-2.691 6.01-6.01v-10.854c0-3.319-2.691-6.01-6.01-6.01z"/><path d="m427.03 212.578c3.319 0 6.01-2.691 6.01-6.01v-10.854c0-3.319-2.691-6.01-6.01-6.01s-6.01 2.691-6.01 6.01v10.854c0 3.319 2.691 6.01 6.01 6.01z"/><path d="m392.473 369.37c-3.319 0-6.01 2.691-6.01 6.01v10.854c0 3.319 2.691 6.01 6.01 6.01s6.01-2.691 6.01-6.01v-10.854c0-3.319-2.691-6.01-6.01-6.01z"/></g><g fill="#fff"><path d="m64.613 236.325c-2.563 0-5.127-.978-7.083-2.934-3.912-3.912-3.912-10.254 0-14.166l29.661-29.661c3.912-3.912 10.254-3.912 14.166 0 3.911 3.912 3.911 10.254 0 14.166l-29.661 29.661c-1.956 1.956-4.52 2.934-7.083 2.934z"/><path d="m125.861 175.078c-2.563 0-5.127-.978-7.083-2.934-3.912-3.911-3.912-10.254 0-14.166l4.906-4.906c3.911-3.912 10.254-3.912 14.166-.001s3.912 10.253 0 14.166l-4.906 4.906c-1.956 1.956-4.52 2.935-7.083 2.935z"/></g><g><path d="m353.934 2.451-8.228 23.136c-.352.991-1.05 1.776-1.93 2.172l-20.556 9.261c-2.904 1.308-2.904 5.935 0 7.244l20.556 9.261c.88.397 1.577 1.182 1.93 2.172l8.228 23.136c1.162 3.269 5.273 3.269 6.436 0l8.228-23.136c.352-.991 1.05-1.776 1.93-2.172l20.556-9.261c2.904-1.308 2.904-5.935 0-7.244l-20.556-9.261c-.88-.396-1.577-1.181-1.93-2.172l-8.228-23.136c-1.163-3.268-5.274-3.268-6.436 0z" fill="#98e8f2"/><path d="m62.863 22.767-6.103 17.162c-.261.735-.779 1.317-1.431 1.611l-15.249 6.87c-2.154.971-2.154 4.403 0 5.373l15.248 6.87c.653.294 1.17.876 1.431 1.611l6.103 17.162c.862 2.424 3.912 2.424 4.774 0l6.104-17.162c.261-.735.779-1.317 1.432-1.611l15.248-6.87c2.154-.971 2.154-4.403 0-5.373l-15.248-6.87c-.653-.294-1.17-.876-1.432-1.611l-6.104-17.162c-.861-2.424-3.91-2.424-4.773 0z" fill="#98e8f2"/><g fill="#75b7f2"><path d="m175.429 20.949c0 9.923 8.044 17.967 17.967 17.967s17.966-8.044 17.966-17.966c0-9.923-8.044-17.967-17.966-17.967-9.923-.001-17.967 8.043-17.967 17.966z"/><path d="m455.561 58.609c0 4.149 3.363 7.512 7.512 7.512s7.513-3.363 7.513-7.512-3.363-7.513-7.513-7.513c-4.148.001-7.512 3.364-7.512 7.513z"/></g></g></g></svg>