<svg id="Capa_1" enable-background="new 0 0 512 512" height="512" viewBox="0 0 512 512" width="512" xmlns="http://www.w3.org/2000/svg"><g><g><path d="m130.654 467.468-3.701-3.003c-8.702-7.06-10.032-19.838-2.972-28.54l25.064-30.89c7.061-8.702 19.838-10.032 28.54-2.972l3.701 3.003c8.702 7.061 10.032 19.838 2.972 28.54l-25.064 30.89c-7.061 8.702-19.839 10.032-28.54 2.972z" fill="#c37777"/><path d="m406.053 467.468 3.701-3.003c8.702-7.06 10.032-19.838 2.972-28.54l-25.064-30.89c-7.06-8.702-19.838-10.032-28.54-2.972l-3.7 3.003c-8.702 7.061-10.032 19.838-2.972 28.54l25.064 30.89c7.059 8.702 19.837 10.032 28.539 2.972z" fill="#c37777"/><path d="m433.21 321.833c0 78.753-62.594 127.941-163.674 127.941s-164.501-50.425-184.204-127.656c-.431-1.691.04-3.488.12-5.228 3.521-76.781 84.062-147.822 182.902-147.822 101.079 0 164.856 74.012 164.856 152.765z" fill="#ad84e6"/><path d="m268.353 169.068c-2.366 0-4.718.054-7.063.135 57.881 15.746 99.988 63.052 99.988 112.653 0 60.8-63.262 110.088-141.299 110.088-62.85 0-116.106-31.974-134.459-76.18-.118 2.114-.189 4.233-.189 6.355 0 78.753 81.941 142.594 183.022 142.594 101.08 0 183.022-63.842 183.022-142.594s-81.941-153.051-183.022-153.051z" fill="#a862e6"/><path d="m429.492 173.102c0 15.717-68.61 37.071-157.604 37.071-7.694 0-54.913-1.527-62.32-1.711l-74.73-10.836c-20.572-4.779-27.623-18.058-27.623-24.524 0-15.717 72.144-28.458 161.139-28.458s161.138 12.741 161.138 28.458z" fill="#a862e6"/><path d="m276.651 169.308-53.538 45.138-49.544-38.131c0-3.776-3.946-14.714-3.249-18.286 5.146-26.396 28.394-46.319 56.296-46.319 3.227 0 6.392.267 9.473.779 27.146 12.443 40.562 56.819 40.562 56.819z" fill="#00ebc4"/><path d="m236.087 112.503c8.944 7.594 14.626 18.913 14.626 31.565 0 22.865-18.536 41.401-41.401 41.401-17.965 0-33.251-11.444-38.981-27.438-.696 3.572-1.072 7.26-1.072 11.036 0 31.677 25.68 57.357 57.357 57.357s57.357-25.68 57.357-57.357c0-28.449-20.718-52.048-47.886-56.564z" fill="#45b1c6"/><path d="m349.49 174.767-40.773 24.515-38.641-16.784s-3.236-15.456-1.735-20.083c6.189-19.079 24.109-32.873 45.251-32.873 6.106 0 11.943 1.15 17.306 3.247 17.553 14.787 18.592 41.978 18.592 41.978z" fill="#00ebc4"/><path d="m330.894 132.801c2.879 5.057 4.532 10.902 4.532 17.137 0 19.163-15.535 34.698-34.698 34.698-14.762 0-27.363-9.223-32.376-22.218-1.501 4.627-2.322 9.56-2.322 14.687 0 26.268 21.295 47.563 47.563 47.563s47.563-21.295 47.563-47.563c0-20.163-12.552-37.382-30.262-44.304z" fill="#45b1c6"/><path d="m429.488 173.101v44.684c0 15.714-70.494 29.181-159.481 29.181-8.259 0-16.377-.12-24.324-.331-6.482-.191-12.844-.441-19.066-.763-34.881-1.786-65.245-5.66-86.619-10.757-20.531-4.897-32.783-10.928-32.783-17.33 0-5.007 0-44.684 0-44.684 0 6.462 12.212 12.433 32.783 17.209l52.843 25.118 52.843-14.15c7.406.181 14.972.281 22.668.281 88.997 0 161.136-12.744 161.136-28.458z" fill="#ad84e6"/><path d="m451.307 357.472c-14.233 0-39.422-8.98-98.872-59.255-34.603-29.262-64.209-58.558-65.453-59.791-5.738-5.69-5.778-14.955-.089-20.695 5.689-5.739 14.955-5.78 20.695-.09.298.296 30.236 29.915 64.045 58.48 54.485 46.034 74.026 51.455 78.877 52.012 4.592-5.199 12.379-6.539 18.528-2.825 6.918 4.18 9.138 13.176 4.958 20.093-4.007 6.632-10.613 10.829-18.602 11.818-1.261.158-2.616.253-4.087.253z" fill="#d3b5f2"/><path d="m270.736 501.965h-4.766c-11.206 0-20.29-9.084-20.29-20.29v-29.963c0-11.206 9.084-20.29 20.29-20.29h4.766c11.206 0 20.29 9.084 20.29 20.29v29.963c0 11.206-9.084 20.29-20.29 20.29z" fill="#c37777"/><ellipse cx="320.566" cy="57.372" fill="#00ebc4" rx="27.17" ry="27.17" transform="matrix(.076 -.997 .997 .076 239.058 372.667)"/><path d="m236.017 213.581-9.4-12.985c-34.991-1.656-65.296-5.338-86.619-10.286v148.396l3.51 20.465 26.79 1.462-.12-85.161 36.605 2.466s.996 8.48 2.407 13.484c.237.84.362 1.721.359 2.637l.05 13.075 4.284 7.14h22.135v-100.693z" fill="#00ebc4"/><path d="m209.567 275.159c-.014-4.668-4.18-8.446-9.315-8.446l-24.191-1.272c-7.087 0-13.312 4.094-13.312 12.897l.104 52.05c.01 7.593-6.758 13.753-15.111 13.753-8.345 0-7.748-6.15-7.748-13.737v31.059c0 9.257 8.254 16.76 18.436 16.76 10.191 0 18.448-7.516 18.436-16.78l-.126-68.897c.442-8.616 8.549-10.431 11.363-10.339 17.28.834 20.003 5.052 21.338 10.464z" fill="#45b1c6"/><path d="m226.617 200.596v45.276 47.996c0 7.426-6.613 13.436-14.771 13.436-.773 0-1.515-.07-2.248-.171l.03 9.804c.03 9.031 8.088 16.336 18.022 16.336 9.964 0 18.032-7.335 18.032-16.387v-70.253-45.357z" fill="#45b1c6"/><path d="m308.717 273.368h-10.419c-9.327 0-13.214-2.55-15.646-7.926l-2.18-5.528v-35.915c0-9.327 7.561-16.888 16.888-16.888h9.029l4.759 2.922c4.958 3.368 8.216 4.639 8.216 13.965v39.086c-.001 9.328-1.32 10.284-10.647 10.284z" fill="#ad84e6"/><path d="m307.779 207.111h-1.39c1.746 2.321 2.793 5.197 2.793 8.324v32.114c0 7.663-6.212 13.875-13.875 13.875h-8.561c-2.26 0-4.388-.552-6.273-1.511v3.171c0 9.327 7.561 16.888 16.888 16.888h10.419c9.327 0 16.888-7.561 16.888-16.888v-39.086c-.001-9.326-7.562-16.887-16.889-16.887z" fill="#a862e6"/></g><g fill="#4e0325"><path d="m481.525 332.887c-1.321-5.356-4.65-9.877-9.373-12.731-3.376-2.039-7.134-3.001-10.852-2.97-1.16-28.735-12.406-57.635-32.155-82.85 6.009-4.024 10.381-9.352 10.381-16.548v-44.686c0-13.475-16.254-20.02-28.481-23.771-14.061-4.313-33.98-7.939-57.625-10.495-10.064-10.47-24.192-17.005-39.827-17.005-11.991 0-23.093 3.85-32.161 10.362-12.149-18.016-32.655-29.196-54.816-29.196-26.346 0-49.131 15.505-59.733 37.865-19.361 2.712-34.893 6.106-46.157 10.094-5.823 2.061-23.546 8.335-23.546 22.146v44.686c0 6.226 3.453 11.535 10.709 16.13-21.076 26.747-32.592 57.743-32.592 88.2 0 36.807 16.694 72.229 47.027 99.923l-6.135 7.561c-10.535 12.985-8.543 32.12 4.442 42.655l3.7 3.003c5.609 4.55 12.364 6.764 19.079 6.764 8.831 0 17.591-3.83 23.576-11.205l11.133-13.721c17.927 7.489 37.333 12.749 57.527 15.471v9.107c0 16.721 13.604 30.324 30.325 30.324h4.766c16.721 0 30.324-13.604 30.324-30.324v-9.107c20.416-2.746 39.79-8.023 57.556-15.435l11.104 13.685c5.103 6.29 12.35 10.216 20.407 11.055 1.07.111 2.136.166 3.198.166 6.928 0 13.596-2.354 19.05-6.78l3.7-3.002c12.984-10.535 14.977-29.67 4.441-42.655l-6.101-7.52c17.97-16.409 31.631-35.964 39.506-57.661.126-.348.229-.698.315-1.05.631-.047 1.261-.098 1.898-.176 9.86-1.22 18.034-6.433 23.015-14.679 2.853-4.722 3.697-10.273 2.375-15.63zm-40.252-14.271c-10.581-5.072-30.551-17.351-65.753-47.092-7.394-6.247-14.596-12.546-21.305-18.537 22.243-2.391 41.041-5.795 54.807-9.957.355-.107.714-.218 1.075-.329 19.322 23.027 30.277 49.683 31.176 75.915zm-166.822-94.617v12.934c-.971.007-1.537.006-2.402.005l-2.044-.002c-6.14 0-12.246-.073-18.304-.202v-25.287c5.498.098 11.054.149 16.652.149 3.281 0 6.546-.019 9.796-.053-2.335 3.587-3.698 7.864-3.698 12.456zm-103.605 137.453c.003 2.572-1.07 5.065-3.022 7.02-2.368 2.371-5.792 3.731-9.393 3.731-6.846 0-12.415-4.817-12.415-10.739v-114.742c2.389.486 4.865.961 7.442 1.426 24.2 4.362 54.072 7.221 86.203 8.332v60.41c0 5.716-5.385 10.365-12.004 10.365-6.602 0-11.987-4.638-12.004-10.343l-.08-22.871c-.026-8.834-7.553-16.049-16.881-16.301l-10.125-1.558h-.461c-4.784 0-9.404 1.879-12.677 5.155-3.042 3.046-4.714 7.03-4.709 11.221zm-6.367-131.792c-7.158-1.138-13.252-2.303-18.464-3.452v-24.346c.087.017.177.034.264.051.733.144 1.476.287 2.226.429.316.06.629.12.948.179 1.056.197 2.123.392 3.213.584 24.086 4.254 54.27 7.022 86.994 8.044v25.242c-27.54-.982-53.516-3.285-75.181-6.731zm-47.23-13.601v-22.136c.205.083.42.164.629.246.216.085.431.17.65.255.519.2 1.05.398 1.589.595.146.053.287.107.435.16.687.247 1.392.492 2.111.734.183.062.373.122.559.184.552.183 1.111.364 1.681.544.248.078.498.156.749.233.555.171 1.12.341 1.692.51.23.068.457.136.69.203.803.232 1.617.463 2.453.691.016.004.031.008.047.012.816.222 1.652.441 2.501.658.258.066.522.132.783.198.052.013.105.026.157.04v23.979c-11.025-3.224-15.306-5.967-16.726-7.106zm169.244 7.94c0-5.992 4.875-10.867 10.867-10.867h10.42c5.991 0 10.867 4.875 10.867 10.867v39.086c0 5.992-4.875 10.867-10.867 10.867h-10.42c-5.991 0-10.867-4.875-10.867-10.867zm39.216-14.234c21.617-1.433 41.47-3.681 58.332-6.659 1.09-.192 2.158-.388 3.214-.584.319-.059.631-.119.947-.179.749-.142 1.491-.285 2.223-.428.335-.066.67-.132 1.002-.198.778-.156 1.544-.313 2.302-.471.233-.049.471-.097.703-.146.975-.206 1.934-.415 2.875-.625.206-.046.407-.093.611-.14.738-.167 1.467-.336 2.185-.506.29-.069.578-.138.865-.208.648-.156 1.286-.314 1.916-.473.265-.067.532-.133.794-.2.837-.215 1.661-.431 2.467-.65.026-.007.054-.014.081-.022.833-.227 1.645-.456 2.445-.688.237-.068.468-.138.701-.207.568-.168 1.129-.336 1.68-.506.254-.078.506-.157.756-.235.567-.179 1.123-.359 1.671-.54.189-.062.382-.124.568-.187.718-.242 1.421-.486 2.107-.732.15-.054.294-.109.442-.163.538-.196 1.066-.394 1.584-.593.219-.084.433-.169.648-.254.209-.082.425-.164.631-.247v22.611c-3.678 3.691-23.162 12.726-78.262 17.561-2.038.179-3.878.958-5.367 2.145-1.813-1.684-3.528-3.285-5.141-4.799v-7.443c-.002-5.376-1.868-10.322-4.98-14.234zm91.139-36.695c-.084.046-.167.091-.255.138-.055.029-.108.058-.165.088-.194.102-.396.205-.609.312-.036.018-.076.037-.113.055-.181.09-.369.181-.564.274-.075.036-.153.072-.23.108-.174.082-.354.165-.539.249-.078.035-.155.071-.235.106-.263.118-.533.237-.818.359-.003.001-.005.002-.007.003-.287.122-.588.247-.898.374-.09.036-.183.074-.275.111-.232.094-.471.188-.717.284-.106.041-.212.082-.32.124-.283.108-.574.218-.874.329-.066.024-.128.048-.195.073-.369.135-.752.272-1.148.411-.096.034-.198.068-.296.102-.307.106-.622.213-.945.321-.133.044-.267.089-.403.134-.331.109-.671.219-1.019.33-.11.035-.217.07-.328.105-.464.146-.941.294-1.435.442-.071.021-.145.043-.217.064-.425.127-.86.255-1.307.383-.151.044-.305.087-.459.131-.395.112-.8.225-1.213.339-.156.043-.31.086-.468.129-1.129.306-2.322.616-3.582.928-.161.04-.327.08-.49.12-.486.119-.982.238-1.489.358-.188.045-.377.089-.568.134-.586.137-1.184.274-1.796.411-.092.021-.181.041-.274.062-.717.16-1.455.32-2.209.481-.154.033-.315.066-.471.099-.606.128-1.223.255-1.852.383-.216.044-.433.088-.651.131-.643.129-1.298.258-1.966.386-.165.032-.325.064-.492.095-.851.163-1.721.325-2.613.488-.077.014-.156.028-.233.042-.803.146-1.624.291-2.461.436-.223.039-.449.077-.674.116-.744.127-1.502.255-2.272.382-.211.035-.419.07-.633.104-.981.16-1.979.32-3.004.478-1.574.244-3.183.479-4.805.711.4-2.692.603-5.424.603-8.187 0-5.732-.878-11.262-2.505-16.465 29.689 4.107 44.448 9.192 50.489 12.429zm-103.255-31.171c19.412 0 35.205 15.793 35.205 35.205 0 3.687-.565 7.283-1.67 10.733-20.057 2.02-42.463 3.252-65.707 3.588-2.012-4.499-3.033-9.305-3.033-14.321 0-19.412 15.793-35.205 35.205-35.205zm-86.977-18.833c16.952 0 32.518 9.392 40.502 24.174-5.558 8.62-8.799 18.868-8.799 29.865 0 4.863.67 9.704 1.926 14.381-27.046-.242-53.118-1.695-75.855-4.193-2.466-5.722-3.775-11.942-3.775-18.225-.001-25.366 20.635-46.002 46.001-46.002zm-65.695 38.987c-.245 2.306-.376 4.645-.376 7.015 0 5.167.617 10.309 1.804 15.308-.575-.091-1.156-.182-1.717-.273-.209-.034-.413-.068-.62-.102-.774-.128-1.535-.255-2.281-.383-.225-.039-.451-.077-.673-.116-.851-.148-1.687-.295-2.503-.443-.06-.011-.123-.022-.183-.033-.896-.163-1.769-.326-2.624-.49-.157-.03-.309-.06-.465-.09-.679-.131-1.345-.262-1.999-.393-.208-.042-.415-.083-.62-.125-.659-.134-1.305-.268-1.939-.401-.124-.026-.253-.053-.376-.079-.761-.162-1.504-.323-2.227-.485-.106-.024-.208-.047-.314-.071-.6-.135-1.188-.269-1.763-.403-.187-.044-.371-.087-.556-.131-.514-.122-1.018-.243-1.512-.364-.155-.038-.314-.076-.467-.114-.634-.157-1.255-.314-1.855-.469-.034-.009-.067-.018-.101-.027-.559-.145-1.1-.289-1.63-.433-.157-.043-.311-.085-.466-.128-.417-.115-.826-.229-1.226-.342-.147-.042-.295-.083-.439-.125-.509-.146-1.007-.292-1.488-.436-.009-.003-.018-.005-.027-.008-.497-.15-.975-.297-1.442-.444-.124-.039-.243-.077-.365-.116-.34-.108-.673-.216-.998-.323-.131-.043-.262-.086-.391-.129-.349-.117-.688-.232-1.018-.347-.071-.025-.144-.049-.214-.074-.396-.139-.778-.275-1.148-.411-.094-.034-.183-.068-.275-.102-.275-.102-.543-.202-.803-.302-.11-.042-.218-.084-.326-.126-.254-.099-.501-.196-.741-.293-.079-.032-.162-.064-.24-.096-.31-.126-.61-.251-.897-.373-.053-.023-.103-.045-.156-.068-.233-.1-.459-.199-.677-.297-.082-.037-.163-.073-.243-.109-.19-.086-.375-.171-.553-.255-.068-.032-.137-.064-.203-.096-.237-.113-.467-.224-.683-.332-.001-.001-.002-.001-.004-.002-.216-.108-.419-.212-.615-.315-.053-.028-.104-.055-.155-.082-.077-.041-.148-.08-.222-.12 4.774-2.589 15.987-6.999 41.012-11.047zm-9.52 296.12c-3.562 4.391-10.033 5.065-14.425 1.502l-3.7-3.003c-2.127-1.726-3.455-4.177-3.738-6.901-.284-2.724.511-5.397 2.237-7.523l6.122-7.545c6.798 4.92 14.015 9.433 21.584 13.515zm129.59 23.502c0 5.655-4.601 10.255-10.255 10.255h-4.766c-5.655 0-10.256-4.6-10.256-10.255v-29.963c0-5.655 4.601-10.255 10.256-10.255h4.766c5.654 0 10.255 4.6 10.255 10.255zm123.941-39.427c1.727 2.127 2.52 4.799 2.237 7.524-.283 2.724-1.611 5.175-3.738 6.901l-3.7 3.002c-2.127 1.727-4.801 2.522-7.524 2.237-2.724-.284-5.175-1.611-6.901-3.738l-8.047-9.917c7.596-4.096 14.808-8.614 21.581-13.517zm-103.871 10.035v-.571c0-16.721-13.604-30.324-30.324-30.324h-4.766c-16.721 0-30.325 13.604-30.325 30.324v.583c-80.442-11.863-140.28-66.904-140.28-130.178 0-27.547 11.261-55.867 31.767-80.045 2.16.652 4.432 1.288 6.841 1.906v117.485c0 12.561 10.972 22.781 24.457 22.781 6.774 0 13.303-2.647 17.913-7.263 4.227-4.233 6.551-9.753 6.544-15.549l-.126-68.894c-.001-1.241.645-2.149 1.188-2.692.947-.949 2.304-1.525 3.77-1.612l10.007 1.54h.46c2.89 0 5.337 1.97 5.344 4.305l.08 22.871c.036 12.321 10.823 22.346 24.045 22.346 13.259 0 24.046-10.052 24.046-22.407v-60.08c6.047.124 12.151.194 18.304.194l2.003.003c.381 0 .706.001 1.029.001.43 0 .862-.001 1.414-.005v6.082c0 12.632 10.277 22.909 22.908 22.909h10.42c5.755 0 11.017-2.138 15.045-5.655 8.831 7.947 17.465 15.493 25.723 22.477 43.826 37.062 69.192 51.857 85.452 57.476-18.622 47.396-69.911 82.742-132.939 91.992zm167.782-109.993c-3.032 5.018-8.071 8.199-14.189 8.956-1.12.139-2.216.206-3.349.206-17.897 0-48.967-18.917-94.984-57.832-8.576-7.253-17.567-15.123-26.769-23.427.733-2.239 1.134-4.627 1.134-7.108v-15.196c10.428 9.622 23.427 21.313 37.062 32.833 52.404 44.276 73.917 52.458 82.077 53.395l3.119.358 2.079-2.354c2.75-3.113 7.335-3.813 10.901-1.658 1.97 1.19 3.358 3.076 3.909 5.309.553 2.234.201 4.548-.99 6.518z"/><path d="m320.565 94.578c20.515 0 37.206-16.69 37.206-37.205s-16.69-37.205-37.206-37.205-37.205 16.69-37.205 37.205 16.69 37.205 37.205 37.205zm0-54.341c9.449 0 17.136 7.687 17.136 17.136s-7.688 17.136-17.136 17.136c-9.449 0-17.135-7.687-17.135-17.136s7.687-17.136 17.135-17.136z"/><path d="m366.099 361.165c-3.325 0-6.021 2.696-6.021 6.021v11.038c0 3.325 2.696 6.021 6.021 6.021s6.021-2.696 6.021-6.021v-11.038c0-3.325-2.696-6.021-6.021-6.021z"/><path d="m310.468 385.922c-3.325 0-6.021 2.696-6.021 6.021v11.038c0 3.325 2.696 6.021 6.021 6.021s6.021-2.696 6.021-6.021v-11.038c0-3.325-2.696-6.021-6.021-6.021z"/><path d="m330.565 318.872c-3.325 0-6.021 2.696-6.021 6.021v11.038c0 3.325 2.696 6.021 6.021 6.021s6.021-2.696 6.021-6.021v-11.038c0-3.325-2.696-6.021-6.021-6.021z"/><path d="m282.652 349.457c-3.325 0-6.021 2.696-6.021 6.021v11.038c0 3.325 2.696 6.021 6.021 6.021s6.021-2.696 6.021-6.021v-11.038c0-3.325-2.696-6.021-6.021-6.021z"/></g><g fill="#fff"><path d="m316.947 162.346c0 5.827-4.723 10.55-10.55 10.55s-10.55-4.723-10.55-10.55 4.723-10.55 10.55-10.55 10.55 4.723 10.55 10.55z"/><path d="m203.218 172.182c-.868 0-1.75-.113-2.628-.351-5.35-1.448-8.512-6.959-7.064-12.308 4.29-15.847 18.763-26.915 35.195-26.915 5.542 0 10.035 4.493 10.035 10.035s-4.493 10.035-10.035 10.035c-7.389 0-13.896 4.971-15.823 12.09-1.211 4.471-5.259 7.414-9.68 7.414z"/></g><g><path d="m62.816 62.86-8.243 23.178c-.353.992-1.052 1.779-1.933 2.176l-20.592 9.277c-2.909 1.311-2.909 5.946 0 7.257l20.592 9.278c.882.397 1.58 1.184 1.933 2.176l8.243 23.178c1.164 3.274 5.283 3.274 6.447 0l8.243-23.178c.353-.992 1.052-1.779 1.933-2.176l20.592-9.278c2.909-1.311 2.909-5.946 0-7.257l-20.592-9.277c-.882-.397-1.58-1.184-1.933-2.176l-8.243-23.178c-1.164-3.274-5.283-3.274-6.447 0z" fill="#a2f4e3"/><path d="m155.402 1.822-6.114 17.193c-.262.736-.78 1.319-1.434 1.614l-15.275 6.882c-2.158.972-2.158 4.411 0 5.383l15.275 6.882c.654.295 1.172.878 1.434 1.614l6.114 17.193c.864 2.429 3.919 2.429 4.782 0l6.114-17.193c.262-.736.78-1.319 1.434-1.614l15.275-6.882c2.158-.972 2.158-4.411 0-5.383l-15.275-6.882c-.654-.295-1.172-.878-1.434-1.614l-6.114-17.193c-.863-2.429-3.918-2.429-4.782 0z" fill="#a2f4e3"/><g fill="#00ebc4"><path d="m429.488 90.562c0 9.94 8.058 17.999 17.999 17.999s17.999-8.058 17.999-17.999-8.058-17.999-17.999-17.999-17.999 8.059-17.999 17.999z"/><path d="m228.491 52.878c0 4.156 3.369 7.526 7.526 7.526s7.526-3.37 7.526-7.526c0-4.157-3.369-7.526-7.526-7.526s-7.526 3.37-7.526 7.526z"/></g></g></g></svg>