<svg id="Capa_1" enable-background="new 0 0 512 512" height="512" viewBox="0 0 512 512" width="512" xmlns="http://www.w3.org/2000/svg"><g><g><path d="m212.876 242.114h94.26v109.098h-94.26z" fill="#98e8f2"/><path d="m214.58 335.745h89.889v73.849h-89.889z" fill="#00ebc4"/><path d="m303.099 390.467h-75.346l-22.764 6.52-24.671-6.52v50.581l6.035 15.957h116.746z" fill="#ad84e6"/><path d="m227.714 335.745-.052-76.477c-.007-5.321 3.319-8.157 6.911-8.157s7.041 2.813 7.057 8.12l.067 23.008v2.464c0 8.432 7.519 15.267 16.794 15.267h.003.004c9.275 0 16.794-6.835 16.794-15.267v-2.464l.067-23.008c.015-5.307 4.752-9.601 10.589-9.601 3.585 0 6.491 2.906 6.491 6.491v79.624l22.575 9.449 22.575-9.449v-137.703c.007-5.321-5.055-9.638-10.909-9.638 0 0-90.802 0-95.179 0 0 0-16.597.636-16.914.758-3.803 1.463-26.673 76.806-26.667 80.796l17.574 77.545z" fill="#a6aff4"/><path d="m315.014 399.326 22.575-8.859v-54.722h-45.151v54.722z" fill="#45b1c6"/><path d="m199.29 446.252c-6.932 0-13.416-1.902-18.971-5.204v5.204l9.22 2.883z" fill="#a862e6"/><path d="m292.438 390.467v18.598c0 20.538-16.649 37.187-37.187 37.187l48.955 6.151 33.382-6.151v-55.785z" fill="#a862e6"/><path d="m180.318 446.252v10.756c0 24.782 20.09 44.871 44.872 44.871h67.527c24.782 0 44.872-20.09 44.872-44.871v-10.756z" fill="#ff94de"/><path d="m306.453 141.997h-87.34c-6.296 0-11.399-5.104-11.399-11.4v-79.681c0-6.296 5.104-11.399 11.399-11.399h87.34c6.296 0 11.399 5.104 11.399 11.399v79.682c0 6.296-5.104 11.399-11.399 11.399z" fill="#ffa785"/><path d="m230.569 77.622h66.614c7.234 0 13.079 5.901 13.011 13.134l11.9-18.371c.069-7.234-17.217-24.684-24.451-24.684h-66.615c-7.047 0-16.175.754-20.375-4.255-2.451 2.427-3.236 5.391-2.976 11.284.001 12.644 10.25 22.892 22.892 22.892z" fill="#ff7d87"/><path d="m319.732 103.407h-127.105c-8.659 0-15.678 7.019-15.678 15.678v30.584c0 8.659 7.019 15.678 15.678 15.678l86.69 16.457 40.414-16.013v-62.384z" fill="#98e8f2"/><path d="m227.753 390.467-.038-54.722h-34.289v54.722l18.318 7.802z" fill="#45b1c6"/><path d="m193.426 430.558c0 8.624 7.69 15.616 17.177 15.616 9.495 0 17.188-7.003 17.177-15.634l-.027-40.072h-34.327z" fill="#a862e6"/><path d="m208.137 33.011c0 12.643 10.249 22.891 22.891 22.891h66.615c7.234 0 13.079 5.901 13.011 13.134l-.789 83.422c-.067 7.138-5.873 12.888-13.011 12.888h-21.103-33.595-55.258c-7.186 0-13.011 5.825-13.011 13.011v222.279c0 8.624 7.69 15.616 17.177 15.616 9.495 0 17.188-7.003 17.177-15.634l-.118-171.272c-.007-5.321 4.736-9.638 10.589-9.638h12.788c5.837 0 10.574 4.294 10.589 9.601l.067 23.008v2.464c0 8.432 7.519 15.267 16.794 15.267h.004.004c9.275 0 16.794-6.835 16.794-15.267v-2.464l.067-23.008c.015-5.307 4.751-9.601 10.589-9.601h12.789c5.853 0 10.596 4.317 10.589 9.638l-.118 90.065c-.011 8.632 7.682 15.634 17.177 15.634 9.486 0 17.177-6.991 17.177-15.616v-120.222-33.859-117.444c0-20.868-16.917-37.784-37.784-37.784h-75.209c-12.643 0-22.892 10.249-22.892 22.891z" fill="#fff2a5"/></g><g fill="#4e0325"><path d="m354.141 47.904c0-26.414-21.49-47.904-47.904-47.904h-75.209c-18.202 0-33.011 14.809-33.011 33.011 0 4.154.779 8.127 2.185 11.791-.128.643-.198 1.308-.198 1.989v46.496h-4.895c-13.736 0-24.911 11.175-24.911 24.911v27.911c0 4.804 1.371 9.293 3.736 13.102-6.132 4.164-10.169 11.193-10.169 19.148v222.279c0 6.307 2.423 12.089 6.433 16.569v39.802c0 30.322 24.669 54.991 54.991 54.991h67.527c30.323 0 54.992-24.669 54.992-54.991v-121.009c4.009-4.48 6.433-10.262 6.433-16.569zm-163.703 378.454c.209.004.415.015.625.015 7.501 0 14.748-2.949 19.883-8.091 4.79-4.797 7.423-11.075 7.414-17.669l-.002-3.543h109.112v43.297h-137.032zm27.804-196.454c.11-.04.265-.075.469-.075h12.789c.206 0 .361.035.47.075l.065 22.414v2.464c0 13.998 12.074 25.387 26.913 25.387h.008c14.84 0 26.913-11.389 26.913-25.387l.065-24.879c.11-.04.265-.075.47-.075h12.789c.205 0 .359.035.468.074l-.117 89.495c-.005 3.513.745 6.931 2.163 10.086h-83.4zm109.227 155.022h-109.12l-.03-43.298h94.734c4.151 2.285 8.916 3.538 13.791 3.538.21 0 .416-.01.625-.015zm-96.441-364.686h75.209c15.254 0 27.664 12.41 27.664 27.664v271.527c0 2.979-3.232 5.496-7.057 5.496-2.167 0-4.194-.785-5.561-2.153-.684-.685-1.498-1.821-1.496-3.348l.118-90.065c.007-5.108-2.02-9.953-5.706-13.644-3.888-3.893-9.357-6.126-15.003-6.126h-12.789c-11.388 0-20.677 8.834-20.708 19.691l-.067 23.038v2.464c0 2.776-3.026 5.124-6.619 5.147-.04-.001-.077-.001-.117 0-3.593-.024-6.619-2.371-6.619-5.147l-.067-25.501c-.031-10.859-9.32-19.693-20.708-19.693h-12.789c-5.646 0-11.115 2.233-15.003 6.126-3.686 3.691-5.713 8.537-5.706 13.638l.118 171.279c.002 1.526-.812 2.662-1.496 3.347-1.367 1.368-3.394 2.154-5.561 2.154-3.826 0-7.057-2.517-7.057-5.496v-222.279c0-1.595 1.298-2.892 2.892-2.892h109.957c5.431 0 10.441-1.903 14.402-5.072 3.535-1.295 6.149-4.496 6.579-8.366 1.346-2.89 2.117-6.096 2.149-9.475l.789-83.422c.058-6.22-2.32-12.079-6.698-16.498-4.377-4.419-10.214-6.852-16.433-6.852h-66.615c-7.042 0-12.771-5.729-12.771-12.771-.002-7.042 5.727-12.771 12.769-12.771zm-10.784 43.964c3.382 1.173 7.008 1.818 10.784 1.818h66.615c.007 0 .013.002.02.002v27.262h-77.419zm-29.806 53.994c0-2.576 2.096-4.672 4.672-4.672h105.003l-.352 37.254h-104.651c-2.575 0-4.672-2.096-4.672-4.672zm102.279 373.562h-67.527c-19.162 0-34.751-15.589-34.751-34.752v-4.498h137.031v4.498c-.001 19.163-15.591 34.752-34.753 34.752z"/><path d="m301.719 405.871c-3.353 0-6.072 2.719-6.072 6.072v11.132c0 3.353 2.719 6.072 6.072 6.072s6.072-2.719 6.072-6.072v-11.132c0-3.353-2.719-6.072-6.072-6.072z"/><path d="m277.601 460.352c-3.353 0-6.072 2.719-6.072 6.072v11.132c0 3.353 2.719 6.072 6.072 6.072s6.072-2.719 6.072-6.072v-11.132c0-3.354-2.719-6.072-6.072-6.072z"/><path d="m264.848 405.871c-3.353 0-6.072 2.719-6.072 6.072v11.132c0 3.353 2.719 6.072 6.072 6.072s6.072-2.719 6.072-6.072v-11.132c-.001-3.353-2.719-6.072-6.072-6.072z"/></g><g fill="#fff"><path d="m270.263 142.273h-31.334c-5.589 0-10.12-4.531-10.12-10.12s4.531-10.12 10.12-10.12h31.334c5.589 0 10.12 4.531 10.12 10.12s-4.531 10.12-10.12 10.12z"/><path d="m207.677 142.273h-2.185c-5.589 0-10.12-4.531-10.12-10.12s4.531-10.12 10.12-10.12h2.185c5.589 0 10.12 4.531 10.12 10.12s-4.531 10.12-10.12 10.12z"/></g><g><path d="m62.526 89.124-8.313 23.374c-.356 1.001-1.061 1.794-1.95 2.195l-20.767 9.356c-2.934 1.322-2.934 5.997 0 7.319l20.767 9.356c.889.401 1.594 1.194 1.95 2.195l8.313 23.374c1.174 3.302 5.328 3.302 6.502 0l8.313-23.374c.356-1.001 1.06-1.794 1.95-2.195l20.767-9.356c2.934-1.322 2.934-5.997 0-7.319l-20.767-9.356c-.889-.401-1.594-1.194-1.95-2.195l-8.313-23.374c-1.174-3.302-5.328-3.302-6.502 0z" fill="#fff2a5"/><path d="m425.483 13.306-6.166 17.339c-.264.742-.787 1.331-1.446 1.628l-15.405 6.94c-2.176.981-2.176 4.448 0 5.429l15.405 6.94c.66.297 1.182.886 1.446 1.628l6.166 17.339c.871 2.449 3.952 2.449 4.823 0l6.166-17.339c.264-.742.787-1.331 1.446-1.628l15.405-6.94c2.176-.981 2.176-4.448 0-5.429l-15.405-6.94c-.66-.297-1.182-.885-1.446-1.628l-6.166-17.339c-.871-2.449-3.952-2.449-4.823 0z" fill="#fff2a5"/><g fill="#ffe35c"><ellipse cx="122.941" cy="51.124" rx="7.59" ry="7.59" transform="matrix(.162 -.987 .987 .162 52.544 164.139)"/><ellipse cx="464.552" cy="215.006" rx="18.152" ry="18.152" transform="matrix(.325 -.946 .946 .325 110.169 584.395)"/></g></g></g></svg>