<svg id="Capa_1" enable-background="new 0 0 512 512" height="512" viewBox="0 0 512 512" width="512" xmlns="http://www.w3.org/2000/svg"><g><g><path d="m135.184 499.676 152.673-141.868c4.815-4.474 6.28-11.5 3.656-17.525l-16.077-36.909-110.699-46.844-37.687 14.159c-6.153 2.311-10.175 8.255-10.035 14.826l4.47 208.364c.151 7.035 8.544 10.586 13.699 5.797z" fill="#ffc5dd"/><path d="m291.512 340.282-16.077-36.91-39.798-16.841 12.597 28.919c2.056 4.721.908 10.226-2.864 13.732l-119.621 111.157c-1.584 1.472-3.556 1.927-5.377 1.617l1.114 51.923c.151 7.035 8.544 10.586 13.699 5.797l152.673-141.868c4.813-4.474 6.279-11.5 3.654-17.526z" fill="#ff94de"/></g><g fill="#4e0325"><path d="m300.782 336.244-16.077-36.909c-1.035-2.376-2.943-4.263-5.329-5.274l-31.579-13.363c10.51-5.599 17.684-16.668 17.684-29.385 0-10.083-4.514-19.125-11.62-25.233l89.721-212.027c2.176-5.142-.229-11.076-5.372-13.252-5.141-2.176-11.076.229-13.252 5.371l-89.713 212.009c-1.002-.091-2.015-.145-3.04-.145-18.348 0-33.276 14.927-33.276 33.276 0 3.216.467 6.323 1.323 9.267l-31.575-13.361c-2.386-1.01-5.07-1.065-7.496-.154l-37.688 14.158c-10.153 3.815-16.819 13.663-16.587 24.508l4.47 208.365c.157 7.29 4.425 13.585 11.141 16.426 2.345.992 4.783 1.477 7.192 1.477 4.491 0 8.879-1.686 12.356-4.917l152.672-141.868c7.948-7.381 10.377-19.024 6.045-28.969zm-68.578-97.985c7.198 0 13.054 5.856 13.054 13.054s-5.856 13.054-13.054 13.054-13.054-5.856-13.054-13.054 5.856-13.054 13.054-13.054zm48.77 112.142-149.474 138.895-4.377-203.998c-.048-2.277 1.351-4.344 3.482-5.145l33.909-12.739 103.263 43.697 14.465 33.208c.909 2.089.4 4.532-1.268 6.082z"/><path d="m250.639 329.372-87.299-36.941c-3.087-1.304-6.646.137-7.951 3.223s.137 6.646 3.223 7.952l87.299 36.941c.772.326 1.573.481 2.362.481 2.363 0 4.61-1.39 5.59-3.704 1.304-3.087-.139-6.647-3.224-7.952z"/><path d="m449.234 462.892h-172.056c-5.584 0-10.111 4.527-10.111 10.111s4.527 10.111 10.111 10.111h172.056c5.584 0 10.111-4.527 10.111-10.111s-4.527-10.111-10.111-10.111z"/><path d="m335.969 424.379c0 5.584 4.527 10.111 10.111 10.111h73.219c5.584 0 10.111-4.527 10.111-10.111s-4.527-10.111-10.111-10.111h-73.219c-5.585 0-10.111 4.526-10.111 10.111z"/><path d="m160.752 427.147-7.092 7.092c-2.369 2.369-2.369 6.21 0 8.579 1.184 1.184 2.737 1.777 4.29 1.777s3.105-.592 4.29-1.777l7.092-7.092c2.369-2.369 2.369-6.21 0-8.579-2.37-2.368-6.212-2.368-8.58 0z"/><path d="m204.591 382.045-7.092 7.092c-2.369 2.369-2.369 6.21 0 8.58 1.184 1.184 2.737 1.777 4.29 1.777s3.105-.592 4.29-1.777l7.092-7.092c2.369-2.369 2.369-6.21 0-8.579-2.369-2.37-6.211-2.37-8.58-.001z"/></g><path d="m154.518 381.144c-5.496 0-10.002-4.403-10.105-9.921l-.635-33.868c-.105-5.583 4.336-10.194 9.919-10.298.065-.001.129-.002.194-.002 5.496 0 10.002 4.403 10.105 9.921l.635 33.868c.105 5.583-4.336 10.194-9.919 10.298-.065.002-.13.002-.194.002z" fill="#fff"/><g><path d="m431.159 260.496-8.306 23.354c-.356 1-1.06 1.792-1.948 2.193l-20.749 9.348c-2.931 1.321-2.931 5.991 0 7.312l20.749 9.348c.888.4 1.592 1.193 1.948 2.193l8.306 23.354c1.173 3.299 5.323 3.299 6.496 0l8.305-23.354c.356-1 1.06-1.792 1.948-2.193l20.749-9.348c2.931-1.321 2.931-5.991 0-7.312l-20.749-9.348c-.888-.4-1.592-1.193-1.948-2.193l-8.305-23.354c-1.173-3.299-5.322-3.299-6.496 0z" fill="#ffc5dd"/><path d="m135.967 104.175-6.161 17.323c-.264.742-.786 1.329-1.445 1.626l-15.391 6.934c-2.174.98-2.174 4.444 0 5.424l15.391 6.934c.659.297 1.181.885 1.445 1.626l6.161 17.324c.87 2.447 3.948 2.447 4.819 0l6.161-17.324c.264-.742.786-1.329 1.445-1.626l15.391-6.934c2.174-.98 2.174-4.444 0-5.424l-15.391-6.934c-.659-.297-1.181-.885-1.445-1.626l-6.161-17.323c-.871-2.447-3.949-2.447-4.819 0z" fill="#ffc5dd"/><g fill="#ff8cc0"><path d="m357.368 176.77c0 10.016 8.12 18.136 18.136 18.136s18.135-8.12 18.135-18.136-8.12-18.136-18.135-18.136c-10.017 0-18.136 8.12-18.136 18.136z"/><ellipse cx="48.727" cy="221.211" rx="7.583" ry="7.583" transform="matrix(.973 -.23 .23 .973 -49.521 17.113)"/></g></g></g></svg>