<svg id="Capa_1" enable-background="new 0 0 512 512" height="512" viewBox="0 0 512 512" width="512" xmlns="http://www.w3.org/2000/svg"><g><g><path d="m441.207 325.827s-20.156-6.835-20.734-6.273c-38.942 37.813-92.246 52.085-142.029 42.814-30.917-5.758-67.952-17.025-91.869-40.943-63.001-63.001-61.872-174.865 1.128-237.865 11.985-11.985 30.463-31.591 30.463-31.591s5.22-20.317 2.2-19.845c-46.457 7.252-91.094 28.96-126.656 65.128-87.765 89.258-86.977 231.579 1.724 319.908 59.446 59.196 143.521 78.649 219.153 58.359 37.166-9.971 88.34-74.935 88.34-74.935z" fill="#fff2a5"/><path d="m279.035 362.466c-31.131-5.678-60.915-20.542-84.984-44.611-63.001-63.001-63.001-165.145 0-228.146 31.316-31.316 72.303-47.06 113.346-47.241 4.152-.018 4.785-5.972.745-6.93-27.93-6.623-56.871-7.888-85.188-3.8-.877.141-1.74.279-2.584.41-21.383 8.324-41.431 21.109-58.698 38.376-66.695 66.695-66.695 174.828 0 241.522 22.531 22.531 49.793 37.439 78.587 44.747 20.148 5.691 38.822 5.693 38.823 5.691-.016-.006-.031-.012-.047-.018z" fill="#ffb7a9"/><path d="m416.046 416.816c57.783-57.783 77.886-138.97 60.323-213.045-.958-4.04-6.914-3.406-6.932.745-.183 41.041-15.927 82.024-47.241 113.338-.572.572-1.154 1.128-1.733 1.689-7.482 17.51-15.083 30.901-15.083 30.901-7.923 12.335-17.255 24.028-28.046 34.819-67.775 67.775-170.675 78.99-250.092 33.675 40.176 39.132 91.262 60.413 143.304 63.843 52.992-3.482 104.997-25.462 145.5-65.965z" fill="#ffb7a9"/><path d="m265.923 150.843 10.971 33.803c.39 1.2 1.508 2.013 2.77 2.013l35.539-.011c2.059-.001 2.915 2.634 1.249 3.844l-28.758 20.88c-1.021.741-1.448 2.056-1.058 3.256l10.993 33.796c.637 1.958-1.604 3.586-3.27 2.376l-28.745-20.9c-1.021-.742-2.403-.742-3.424 0l-28.745 20.898c-1.665 1.211-3.907-.418-3.27-2.376l10.993-33.796c.39-1.2-.037-2.515-1.058-3.256l-28.758-20.88c-1.666-1.21-.81-3.844 1.249-3.844l35.539.011c1.262 0 2.381-.812 2.77-2.013l10.971-33.803c.636-1.956 3.406-1.956 4.042.002z" fill="#ffe35c"/><path d="m17.486 487.48h272.671l-23.867-32.914-32.172-50.989-126.712-72.123-55.904 20.276-10.982 14.258c-5.965 11.255-9.425 24.009-9.625 37.492-.284 19.167 5.905 36.877 16.522 51.086h-14.53c-9.465 0-17.587 5.755-21.056 13.957z" fill="#98e8f2"/><path d="m327.214 454.566h-60.925c5.201-9.825 7.887-21.186 7.161-33.234-1.897-31.478-27.354-56.937-58.83-58.863-9.345-.572-18.27.924-26.395 4.038-14.248-27.524-43.372-46.103-76.744-45.038-30.729.981-57.344 18.865-70.946 44.527 11.027-12.934 27.213-21.368 45.315-21.945 22.768-.727 42.89 10.781 54.324 28.441 1.875 2.897 5.406 4.246 8.759 3.432 4.797-1.165 9.881-1.595 15.132-1.149 23.116 1.961 41.547 20.95 42.844 44.113.295 5.271-.283 10.364-1.6 15.151-1.315 4.78 2.362 9.481 7.32 9.481h34.858c9.432 0 17.078 7.646 17.078 17.078 0 9.432-7.646 17.078-17.078 17.078h-220.373c-6.638 0-12.378-3.795-15.204-9.326-1.267 2.928-1.943 6.171-1.868 9.581.276 12.506 10.857 22.338 23.366 22.338h294.354c12.897 0 23.299-10.684 22.837-23.685-.441-12.383-10.994-22.018-23.385-22.018z" fill="#a6aff4"/><path d="m435.366 13.634 14.213 43.79c.505 1.555 1.954 2.608 3.589 2.607l46.039-.015c2.667-.001 3.776 3.413 1.618 4.979l-37.255 27.049c-1.323.96-1.876 2.664-1.371 4.218l14.241 43.781c.825 2.536-2.079 4.646-4.236 3.077l-37.237-27.073c-1.322-.961-3.113-.961-4.436 0l-37.237 27.073c-2.157 1.568-5.061-.541-4.236-3.077l14.241-43.781c.506-1.555-.048-3.258-1.371-4.218l-37.255-27.049c-2.158-1.567-1.049-4.98 1.618-4.979l46.038.015c1.635.001 3.084-1.052 3.589-2.607l14.213-43.79c.823-2.537 4.412-2.537 5.235 0z" fill="#ffe35c"/></g><g fill="#4e0325"><path d="m471.379 191.105c-6.909.792-11.947 6.413-11.978 13.368-.179 40.151-15.912 77.897-44.301 106.286-28.574 28.575-66.566 44.312-106.976 44.312s-78.402-15.737-106.976-44.312c-28.575-28.574-44.312-66.566-44.312-106.976s15.737-78.402 44.312-106.976c28.391-28.391 66.14-44.124 106.295-44.301 6.953-.031 12.574-5.068 13.367-11.976.795-6.939-3.558-13.144-10.352-14.755-38.971-9.242-79.953-8.466-118.517 2.242-39.8 11.051-76.243 32.559-105.387 62.2-34.01 34.589-56.368 77.917-64.655 125.301-8.038 45.95-2.436 92.732 16.184 135.371-10.896 15.308-16.941 33.472-17.222 52.444-.215 14.523 2.835 28.548 8.916 41.345-16.681 1.571-29.777 15.655-29.777 32.74 0 18.134 14.753 32.887 32.888 32.887h294.874c18.134 0 32.888-14.753 32.888-32.887 0-2.797-.353-5.512-1.013-8.107 23.48-11.467 44.81-26.702 63.506-45.398 29.113-29.113 50.207-65.374 61.001-104.863 10.465-38.286 11.154-78.949 1.992-117.592-1.612-6.795-7.813-11.149-14.757-10.353zm-370.513-86.818c42.634-43.36 99.699-66.215 158.738-64.924-27.18 7.979-52.081 22.681-72.65 43.249-32.366 32.366-50.19 75.398-50.19 121.17s17.824 88.804 50.19 121.17c11.47 11.47 24.285 21.103 38.082 28.775-3.195-.636-6.463-1.07-9.793-1.274-7.606-.465-15.092.228-22.357 2.066-7.766-12.156-18.251-22.378-30.692-29.854-15.358-9.229-33.015-13.801-51.033-13.227-21.556.688-41.941 8.805-58.161 22.981-30.821-79.355-12.554-168.683 47.866-230.132zm226.896 385.946h-294.874c-7.067 0-12.816-5.749-12.816-12.815 0-7.067 5.749-12.816 12.816-12.816h14.53c3.798 0 7.271-2.144 8.972-5.54 1.701-3.395 1.34-7.461-.933-10.503-9.746-13.043-14.77-28.58-14.527-44.93.582-39.197 31.712-70.88 70.871-72.13 28.529-.91 54.39 14.272 67.513 39.621 2.349 4.538 7.733 6.585 12.504 4.758 7.094-2.719 14.561-3.862 22.197-3.391 26.575 1.629 47.821 22.889 49.419 49.453.586 9.734-1.494 19.392-6.014 27.931-1.646 3.111-1.543 6.857.272 9.872 1.816 3.015 5.078 4.859 8.598 4.859h61.473c7.067 0 12.816 5.749 12.816 12.816-.001 7.066-5.75 12.815-12.817 12.815zm81.187-80.513c-17.637 17.638-37.828 31.904-60.085 42.498-5.716-4.794-13.076-7.688-21.102-7.688h-46.766c2.111-7.691 2.958-15.727 2.472-23.796-1.343-22.331-12.753-41.934-29.744-54.371 17.308 5.773 35.622 8.778 54.399 8.778 45.772 0 88.804-17.825 121.169-50.19 20.557-20.557 35.255-45.442 43.236-72.605 1.22 58.381-21.132 114.927-63.579 157.374z"/><path d="m315.199 176.611-30.358.01-9.372-28.876-.001-.002c-1.633-5.027-6.281-8.405-11.567-8.404-5.285.001-9.933 3.379-11.565 8.406l-9.372 28.876-30.36-.01c-.001 0-.002 0-.003 0-5.285 0-9.933 3.377-11.566 8.404-1.633 5.028.144 10.492 4.421 13.596l24.567 17.837-9.39 28.869c-1.636 5.026.138 10.492 4.414 13.599 4.276 3.109 10.023 3.108 14.301 0l24.555-17.852 24.555 17.853c2.139 1.554 4.644 2.332 7.15 2.332 2.505 0 5.011-.777 7.149-2.331 4.276-3.108 6.05-8.573 4.415-13.599l-9.39-28.87 24.567-17.837c4.277-3.106 6.053-8.57 4.42-13.597s-6.28-8.403-11.566-8.403c-.001-.001-.003-.001-.004-.001zm-33.402 26.638c-4.557 3.308-6.448 9.129-4.706 14.482l3.453 10.616-9.031-6.566c-2.277-1.655-4.944-2.482-7.612-2.482s-5.336.828-7.614 2.482l-9.029 6.565 3.454-10.618c1.741-5.355-.152-11.175-4.706-14.48l-9.034-6.559 11.163.003h.005c5.628 0 10.577-3.597 12.314-8.95l3.446-10.618 3.446 10.617c1.737 5.355 6.686 8.951 12.314 8.951h.005l11.164-.003z"/><path d="m511.369 58.817c-1.717-5.286-6.604-8.837-12.162-8.837-.001 0-.003 0-.004 0l-41.484.013-12.807-39.458c-1.717-5.287-6.605-8.84-12.164-8.84s-10.447 3.553-12.164 8.84l-12.807 39.458-41.483-.013c-.002 0-.003 0-.005 0-5.557 0-10.445 3.551-12.162 8.837-1.718 5.287.151 11.034 4.648 14.299l33.569 24.374-12.831 39.449c-1.72 5.287.146 11.035 4.644 14.302 2.248 1.634 4.882 2.45 7.517 2.45s5.271-.818 7.52-2.453l33.554-24.395 33.553 24.394c4.497 3.269 10.54 3.271 15.037.003 4.498-3.268 6.364-9.015 4.645-14.302l-12.832-39.448 33.568-24.373c4.5-3.266 6.368-9.012 4.65-14.3zm-53.695 25.106c-4.86 3.528-6.876 9.735-5.019 15.444l7.299 22.44-19.087-13.877c-4.856-3.531-11.38-3.529-16.238 0l-19.086 13.876 7.299-22.44c1.858-5.71-.159-11.917-5.018-15.444l-19.096-13.862 23.598.007h.004c6.002 0 11.28-3.835 13.133-9.545l7.285-22.445 7.285 22.445c1.853 5.71 7.13 9.545 13.133 9.545h.004l23.598-.007z"/><path d="m177.649 409.12c-3.325 0-6.021 2.696-6.021 6.021v9.956c0 3.325 2.696 6.021 6.021 6.021s6.021-2.696 6.021-6.021v-9.956c0-3.325-2.696-6.021-6.021-6.021z"/><path d="m215.841 432.777c-3.325 0-6.021 2.696-6.021 6.021v9.955c0 3.325 2.696 6.022 6.021 6.022s6.022-2.696 6.022-6.022v-9.955c-.001-3.325-2.697-6.021-6.022-6.021z"/></g><g fill="#fff"><path d="m88.354 387.593c-2.312 0-4.635-.794-6.528-2.417-4.208-3.607-4.695-9.943-1.087-14.151.926-1.08 1.899-2.147 2.892-3.171 3.859-3.978 10.212-4.076 14.191-.217s4.076 10.213.217 14.191c-.709.73-1.402 1.491-2.062 2.26-1.984 2.316-4.795 3.505-7.623 3.505z"/><path d="m77.143 444.998c-4.19 0-8.098-2.645-9.51-6.835-2.507-7.446-3.72-15.241-3.602-23.17.082-5.542 4.631-9.936 10.184-9.886 5.542.082 9.968 4.642 9.886 10.184-.084 5.644.776 11.184 2.554 16.465 1.769 5.253-1.055 10.945-6.308 12.714-1.062.358-2.142.528-3.204.528z"/></g><g><path d="m34.657 4.349-8.244 23.18c-.353.993-1.052 1.779-1.934 2.176l-20.595 9.28c-2.91 1.311-2.91 5.947 0 7.258l20.595 9.279c.882.397 1.581 1.184 1.934 2.176l8.244 23.18c1.165 3.275 5.283 3.275 6.448 0l8.244-23.18c.353-.993 1.052-1.779 1.934-2.176l20.595-9.279c2.91-1.311 2.91-5.947 0-7.258l-20.595-9.279c-.882-.397-1.581-1.184-1.934-2.176l-8.244-23.18c-1.165-3.275-5.284-3.275-6.448-.001z" fill="#fff2a5"/><path d="m380.077 207.959-6.115 17.195c-.262.736-.78 1.32-1.434 1.614l-15.277 6.883c-2.158.973-2.158 4.411 0 5.384l15.277 6.883c.654.295 1.172.878 1.434 1.614l6.115 17.195c.864 2.429 3.919 2.429 4.783 0l6.115-17.195c.262-.736.78-1.32 1.434-1.614l15.277-6.883c2.158-.973 2.158-4.411 0-5.384l-15.277-6.883c-.654-.295-1.172-.878-1.434-1.614l-6.115-17.195c-.864-2.429-3.919-2.429-4.783 0z" fill="#fff2a5"/><g fill="#ffe35c"><circle cx="300.408" cy="97.501" r="7.527"/><ellipse cx="474.541" cy="464.342" rx="18.001" ry="18.001" transform="matrix(.23 -.973 .973 .23 -86.407 819.505)"/></g></g></g></svg>