<svg id="Capa_1" enable-background="new 0 0 512 512" height="512" viewBox="0 0 512 512" width="512" xmlns="http://www.w3.org/2000/svg"><g><g><path d="m291.559 372.268-28.94-59.459 14.283-47.967-17.155-33.977s-27.633-13.695-40.587-2.222c-4.373 3.873-8.327 8.522-11.713 13.614-29.493 44.357-50.264 26.397-73.154 60.822l-27.813 41.829-10.623 19.362 16.296 42.878 39.438-5.803 39.143-50.945s12.218-5.947 19.553-4.198c5.481-.925 11.312.153 16.307 3.474 10.416 6.926 13.245 20.984 6.32 31.401l-2.648 3.983c-3.745 5.632-5.874 11.867-6.5 18.158l15.409 26.747z" fill="#ffddb6"/><path d="m281.281 324.068c-8.177-6.766-9.76-14.961-1.75-27.914l12.227-18.763c16.149-23.467-2.144-45.611-24.017-60.154-20.696-13.761-44.472 3.505-58.05 21.834 6.685-2.109 13.936-1.494 21.117 3.281 15.78 10.492 30.893 22.03 19.242 38.961l-8.822 13.537c-5.78 9.346-4.638 15.258 1.262 20.14s47.194 25.514 14.923 70.466l-3.657 5.501c-6.735 10.13-18.763 14.621-29.983 12.262-1.417 14.262 4.889 28.817 17.656 37.305 18.399 12.234 43.231 7.236 55.465-11.163l5.069-7.624c44.73-62.307-12.505-90.903-20.682-97.669z" fill="#ffa7b8"/><path d="m203.036 333.465c-7.515-4.997-17.658-2.956-22.655 4.56l-24.188 36.378c-8.826 13.275-26.743 16.881-40.017 8.054-13.274-8.826-16.88-26.743-8.054-40.017l-13.082 19.675c-12.234 18.399-7.236 43.232 11.163 55.465 18.399 12.234 43.231 7.236 55.465-11.163l33.525-50.422c3.605-5.422 9.145-8.783 15.096-9.788-.268-4.976-2.783-9.77-7.253-12.742z" fill="#ffa7b8"/><path d="m392.361 340.056s-64.675-5.158-93.944-46.922c-29.269-41.763-12.048-104.317-12.048-104.317s64.675 5.158 93.944 46.921c29.269 41.764 12.048 104.318 12.048 104.318z" fill="#00ebc4"/><path d="m384.302 237.731c-30.512-43.537-97.934-48.914-97.934-48.914s51.067 4.073 74.177 37.048c19.328 27.579 12.98 66.641 10.385 78.687-.459 2.129-2.47 3.539-4.628 3.244-12.209-1.671-51.092-9.033-70.42-36.612-22.72-32.419-9.962-80.702-9.525-82.322-.504 1.863-17.494 65.803 12.572 108.702 30.512 43.537 97.933 48.914 97.933 48.914s17.952-65.21-12.56-108.747z" fill="#45b1c6"/><path d="m282.404 191.507s-45.05 62.296-105.352 66.206-113.02-52.045-113.02-52.045 45.05-62.296 105.352-66.206 113.02 52.045 113.02 52.045z" fill="#00ebc4"/><path d="m175.54 135.594c-5.465.354-10.81 1.171-16.019 2.352 41.133 4.879 74.587 40.379 74.587 40.379s-35.304 48.818-82.559 51.883c-34.729 2.252-66.247-20.833-80.518-33.231-4.538 5.294-6.998 8.692-6.998 8.692s55.799 59.225 119.624 55.086 111.508-70.075 111.508-70.075-55.8-59.225-119.625-55.086z" fill="#45b1c6"/><path d="m289.018 185.682s27.292-63.848 79.64-79.294 109.929 23.359 109.929 23.359-27.292 63.848-79.64 79.294-109.929-23.359-109.929-23.359z" fill="#00ebc4"/><path d="m292.291 174.733s-62.847-17.246-83.877-63.957c-21.03-46.71 7.72-105.196 7.72-105.196s62.847 17.246 83.877 63.957c21.03 46.709-7.72 105.196-7.72 105.196z" fill="#00ebc4"/><path d="m304.777 73.171c-22.225-49.365-88.644-67.591-88.644-67.591s46.383 12.728 61.904 47.202c12.006 26.667 2.028 58.534-3.107 71.6-1.377 3.503-5.294 5.267-8.83 3.975-13.186-4.817-43.659-18.472-55.665-45.139-15.277-33.93 5.037-76.278 5.682-77.605-.663 1.361-30.119 62.331-8.143 111.142 22.225 49.365 88.644 67.591 88.644 67.591s30.385-61.811 8.159-111.175z" fill="#45b1c6"/><path d="m316.947 284.931s-49.296-14.927-56.669-46.014c-7.374-31.087 29.967-66.563 29.967-66.563s49.296 14.927 56.669 46.014c7.374 31.088-29.967 66.563-29.967 66.563z" fill="#00ebc4"/><g fill="#ad84e6"><path d="m188.637 120.591c6.963-9.097 15.081-17.365 24.507-24.696 1.902-1.479 4.699-.761 5.325 1.372 3.342 11.384 4.935 22.14 4.531 32.181-.056 1.395.904 2.595 2.33 2.949 11.872 2.95 22.509 7.308 31.968 13.008 1.843 1.111 1.887 3.642.1 5.013-9.823 7.541-20.512 12.879-32.185 15.797-1.549.387-2.645 1.722-2.649 3.195-.03 10.73-1.725 21.527-5.051 32.39-.666 2.175-3.453 3.162-5.323 1.867-9.974-6.911-18.327-14.309-24.197-22.452-.829-1.15-2.418-1.581-3.87-1.066-11.905 4.226-23.443 6.63-34.651 7.391-2.37.161-4.049-1.943-3.214-4.048 4.508-11.363 10.075-21.381 16.931-29.759.916-1.119.951-2.626.116-3.709-6.709-8.695-12.092-18.079-16.307-28.068-.866-2.051.876-4.371 3.289-4.405 11.819-.167 23.335 1.207 34.508 4.322 1.4.391 2.957-.127 3.842-1.282z"/><path d="m335.008 125.47c9.426-5.012 19.51-8.873 30.339-11.434 2.185-.517 4.277 1.176 3.981 3.227-1.579 10.943-4.397 20.676-8.629 29.03-.588 1.161-.239 2.549.832 3.402 8.919 7.101 16.245 14.916 22.052 23.412 1.132 1.655.188 3.817-1.857 4.287-11.247 2.585-24.741-6.21-33.399.917-36.921 30.392-67.374 4.895-46.192-37.711 4.556-9.164-3.243-20.007-2.945-30.107.061-2.074 2.436-3.365 4.494-2.459 10.082 4.438 19.309 10.065 27.571 17.035 1.036.873 2.556 1.037 3.753.401z"/></g></g><path d="m477.179 123.503c-2.337-1.574-57.835-38.392-110.238-22.933-.118.035-.236.072-.354.112-6.247 2.097-10.832 4.222-14.234 6.593-6.198 2.008-12.248 4.452-18.097 7.322-4.791-3.734-9.938-7.132-15.387-10.18-.849-12.313-3.575-23.717-8.166-33.914-22.428-49.816-86.526-67.908-89.244-68.654-4.641-1.274-9.529.929-11.651 5.245-.95 1.932-22.589 46.682-14.38 90.91-4.294 4.128-8.342 8.508-12.101 13.131-10.59-2.557-21.729-3.765-33.182-3.608-4.566.065-8.773 2.37-11.252 6.168-2.383 3.65-2.806 8.196-1.132 12.161 1.439 3.409 3.005 6.743 4.691 9.997-47.434 17.833-79.512 61.594-80.947 63.579-2.819 3.898-2.471 9.249.827 12.75 2.062 2.189 46.322 48.483 102.094 54.999-.791.361-1.583.721-2.381 1.081-11.15 5.036-23.787 10.744-36.103 29.267l-39.252 59.036c-8.74 13.145-10.417 28.954-5.958 42.939-.598.397-1.164.858-1.683 1.397-.354.367-8.442 8.795-16.609 19.668-3.845.211-11.385.717-19.532 1.778-22.864 2.977-29.849 7.594-33.38 11.283-3.829 4-3.69 10.346.309 14.176 1.944 1.859 4.439 2.783 6.932 2.783 2.605 0 5.208-1.01 7.169-3.015 2.656-2.154 12.989-4.417 25.306-5.825-3.783 8.135-5.189 15.11-4.247 21.056 3.191 20.16-4.145 31.57-4.46 32.047l.072-.106 16.441 11.479c.36-.516 6.499-9.521 8.293-25.085 3.082 1.916 5.771 4.985 5.071 9.779-.801 5.479 2.992 10.569 8.471 11.37.492.072.979.107 1.462.107 4.895 0 9.179-3.591 9.907-8.578 3.08-21.083-13.968-31.325-25.483-34.499-.676-7.448 12.668-27.11 26.185-41.811 2.794 3.145 6.029 5.988 9.693 8.424 8.5 5.652 18.111 8.355 27.626 8.354 16.201-.001 32.116-7.842 41.739-22.315l33.526-50.421c3.855-5.798 11.703-7.377 17.502-3.522 2.807 1.867 4.72 4.715 5.385 8.02.666 3.305.004 6.672-1.863 9.48l-2.648 3.983c-13.891 20.893-9.964 48.517 8.141 64.839-.82 3.22-1.764 7.077-2.667 11.117-7.338 3.582-34.907 18.16-46.734 40.293-2.61 4.884-.767 10.958 4.117 13.568 1.504.804 3.121 1.186 4.716 1.186 3.581 0 7.046-1.923 8.851-5.302 5.558-10.401 16.62-19.037 25.563-24.759.004.058.006.123.011.181 1.005 11.137 10.392 23.186 12.263 25.488 1.981 2.435 4.865 3.698 7.776 3.698 2.219 0 4.452-.733 6.31-2.239 4.297-3.482 4.958-9.792 1.483-14.095-3.086-3.822-7.536-11.041-7.861-14.652-.27-3 1.696-13.268 4.253-24.016 4.947 1.613 10.111 2.443 15.337 2.442 3.313 0 6.652-.331 9.975-.999 13.101-2.637 24.391-10.218 31.79-21.346l4.972-7.477c15.1-21.089 21.093-41.211 17.813-59.811-4.744-26.897-27.523-42.45-37.249-49.091-1.235-.843-2.635-1.799-3.108-2.19-3.127-2.588-5.829-4.823.327-14.82l2.293-3.519c.816 1.306 1.656 2.589 2.531 3.838 31.355 44.739 97.707 50.517 100.516 50.741.269.022.536.032.803.032 4.475 0 8.455-2.988 9.661-7.365.748-2.717 17.958-67.058-13.396-111.798-3.731-5.323-8.109-10.282-13.085-14.882 8.141-.291 15.936-1.526 23.343-3.711 52.4-15.461 79.023-76.511 80.13-79.103 1.894-4.425.377-9.568-3.612-12.256zm-137.465 10.82s.001-.001.002-.001c5.63-2.993 11.497-5.52 17.537-7.555-1.42 5.557-3.258 10.575-5.499 14.998-2.754 5.44-1.3 11.927 3.533 15.773 3.429 2.73 6.622 5.597 9.566 8.587-7.08-1.107-15.646-1.522-22.897 4.445-14.545 11.974-26.551 12.965-31.997 8.635-5.643-4.487-7.475-16.783 1.155-34.142 3.745-7.535 2.576-15.013.911-21.446 4.56 2.747 8.828 5.794 12.767 9.116 4.143 3.494 10.14 4.132 14.922 1.59zm-44.913 125.789c-.773-.683-1.648-1.24-2.589-1.657-8.897-5.915-16.802-13.577-18.946-22.617-3.427-14.449 8.001-32.496 17.342-43.796.061-.063.127-.117.186-.182.282-.307.534-.631.77-.961.305-.359.607-.713.905-1.056 1.454 1.861 3.122 3.557 5.009 5.058 5.074 4.034 12.04 6.759 20.385 6.759.327 0 .662-.017.993-.025 8.374 6.326 13.449 12.988 15.069 19.816 3.858 16.263-11.108 37.094-20.73 47.719-5.259-2.027-11.962-5.093-18.394-9.058zm-70.39-236.141c16.638 6.198 53.763 23.121 68.009 54.763 2.696 5.988 4.57 12.582 5.642 19.666-1.008.336-1.983.791-2.902 1.372-3.628 2.291-5.868 6.189-5.992 10.426-.164 5.566 1.296 10.741 2.584 15.306 1.245 4.416 2.422 8.587 1.406 10.633-4.96 9.977-7.568 19.775-7.892 28.66-5.288-2.081-12.021-5.037-19.242-8.978 1.881-2.475 2.866-5.532 2.69-8.672-.239-4.254-2.572-8.114-6.243-10.326-8.888-5.357-18.762-9.625-29.416-12.721-.24-9.271-1.904-19.218-4.968-29.656-1.209-4.115-4.397-7.366-8.529-8.699-1.836-.593-3.744-.755-5.61-.555-1.955-24.651 5.757-49.025 10.463-61.219zm-42.307 107.56c5.318 1.482 11.143-.466 14.495-4.849 4.453-5.817 9.408-11.236 14.801-16.191 1.282 6.598 1.813 12.809 1.582 18.557-.248 6.186 3.835 11.565 9.93 13.081 6.744 1.676 13.126 3.871 19.077 6.559-6.14 3.529-12.568 6.142-19.206 7.801-6.012 1.502-10.225 6.802-10.245 12.893-.019 6.702-.771 13.529-2.243 20.39-6.014-4.828-10.685-9.588-14.167-14.419-2.508-3.481-6.583-5.437-10.801-5.437-1.522 0-3.064.255-4.557.785-6.755 2.398-13.501 4.197-20.163 5.38 3.113-6.037 6.573-11.392 10.344-16 3.873-4.735 3.993-11.39.293-16.181-3.848-4.987-7.302-10.346-10.327-16.016 7.314.538 14.41 1.758 21.187 3.647zm-31.878 22.835c-5.059 7.411-9.515 15.925-13.287 25.429-1.65 4.161-1.07 8.79 1.552 12.383 2.681 3.673 7.043 5.685 11.661 5.364 10.793-.733 21.817-2.893 32.833-6.428 5.892 7.115 13.624 13.953 23.495 20.793 2.245 1.555 4.914 2.359 7.618 2.359 1.503 0 3.018-.249 4.474-.754 4.092-1.419 7.279-4.701 8.527-8.778 3.078-10.052 4.874-20.166 5.356-30.135 4.61-1.42 9.113-3.225 13.507-5.362 9.605 5.93 17.749 12.164 23.731 17.162-5.277 7.313-10.727 16.443-14.012 26.349-16.811 14.941-43.015 33.033-72.871 34.969-43.829 2.837-84.465-29.549-99.624-43.294 10.506-12.36 35.373-38.381 67.04-50.057zm120.906 136.313c-.043.066-.086.133-.127.201-1.296 2.096-2.369 4.109-3.261 6.05-29.52-3.413-46.963-25.936-47.228-26.283-1.992-2.651-5.757-3.188-8.413-1.201-2.66 1.991-3.202 5.761-1.21 8.421.856 1.143 19.933 26.097 53.539 30.772-.971 10.707 4.514 18.237 10.457 23.155 1.186.981 2.686 2.005 4.584 3.301 8.287 5.658 25.531 17.432 28.808 36.014 1.012 5.738.651 11.848-1.071 18.294-16.047-6.119-31.165-19.453-31.449-19.705-2.477-2.214-6.282-2-8.494.477-2.214 2.478-2 6.28.477 8.494.773.691 16.963 15.034 35.233 21.996-2.35 4.915-5.402 9.995-9.157 15.227-.07.097-.138.195-.205.295l-5.07 7.625c-4.433 6.669-11.199 11.211-19.049 12.791-7.852 1.58-15.847.008-22.515-4.425-12.716-8.455-16.879-25.007-10.228-38.333 4.916 6.854 12.317 14.221 22.571 17.078.539.151 1.083.222 1.616.222 2.634 0 5.051-1.742 5.792-4.403.891-3.201-.981-6.518-4.182-7.409-9.127-2.542-15.404-10.899-18.889-16.963 2.955-6.293 3.819-13.338 2.423-20.278-1.722-8.556-6.673-15.93-13.941-20.761-7.268-4.832-15.982-6.546-24.539-4.824-8.556 1.722-15.93 6.673-20.762 13.941l-7.614 11.452c-9.995-3.584-24.671-10.345-29.563-18.81-1.661-2.875-5.339-3.86-8.217-2.198-2.876 1.662-3.861 5.342-2.198 8.218 6.557 11.346 22.341 18.99 33.125 23.097l-19.058 28.662c-9.153 13.766-27.802 17.517-41.565 8.365-13.766-9.154-17.52-27.8-8.366-41.565l5.642-8.486c5.023 7.003 13.75 15.119 28.919 22.121.816.377 1.673.555 2.517.555 2.273 0 4.45-1.296 5.465-3.496 1.393-3.016.076-6.59-2.94-7.983-16.816-7.763-23.795-16.433-26.694-22.128l26.344-39.621c3.686-5.544 7.218-9.45 10.802-12.446 5.628 7.604 16.061 18.176 34.499 27.118.846.41 1.74.605 2.621.605 2.232 0 4.376-1.248 5.416-3.392 1.45-2.989.202-6.588-2.787-8.037-15.876-7.7-24.824-16.606-29.578-22.812 2.143-1.077 4.359-2.079 6.686-3.13 9.478-4.281 20.217-9.135 32.069-21.627 19.679-4.757 37.165-14.508 51.305-24.808.028.122.05.243.079.365 3.428 14.45 14.281 25.509 25.787 33.5.259.862.538 1.709.816 2.557zm115.165 40.724c-17.503-2.975-57.137-12.652-77.052-41.069-.388-.553-.755-1.129-1.129-1.698 2.764 1.023 4.566 1.58 4.93 1.691.957.289 1.935.431 2.905.43 2.534 0 5.017-.962 6.906-2.758 1.44-1.368 32.302-31.092 31.711-62.062 7.948 5.575 14.447 11.932 19.417 19.023 19.917 28.42 15.487 68.982 12.312 86.443zm8.693-135.775c-14.488 4.276-31.221 3.919-49.735-1.061-.771-.207-1.543-.308-2.308-.331 3.803-2.176 7.727-4.871 11.753-8.185 1.417-1.168 6.156-.305 10.338.453 5.709 1.037 12.181 2.213 18.936.66 4.236-.975 7.695-3.933 9.25-7.916 1.526-3.908 1.017-8.32-1.363-11.799-5.402-7.904-12.027-15.28-19.743-21.987 3.313-7.896 5.707-16.872 7.135-26.769.024-.166.023-.332.041-.498 31.436-5.973 64.675 9.483 79.181 17.487-8.4 15.643-30.203 50.126-63.485 59.946z" fill="#4e0325"/><path d="m256.37 74.326c-2.278 0-4.568-.771-6.447-2.352l-12.083-10.16c-4.238-3.564-4.785-9.888-1.221-14.126s9.89-4.783 14.125-1.221l12.083 10.16c4.238 3.564 4.785 9.888 1.221 14.126-1.982 2.358-4.821 3.573-7.678 3.573z" fill="#fff"/><g><path d="m32.921 43.182-8.236 23.157c-.353.992-1.051 1.777-1.931 2.174l-20.574 9.27c-2.907 1.31-2.907 5.941 0 7.251l20.574 9.269c.881.397 1.579 1.183 1.931 2.174l8.236 23.157c1.164 3.272 5.278 3.272 6.442 0l8.236-23.157c.353-.991 1.051-1.777 1.932-2.174l20.574-9.269c2.907-1.31 2.907-5.941 0-7.251l-20.575-9.27c-.881-.397-1.579-1.183-1.932-2.174l-8.236-23.157c-1.162-3.271-5.277-3.271-6.441 0z" fill="#a2f4e3"/><path d="m482.801 234.002-6.109 17.177c-.262.736-.779 1.318-1.433 1.613l-15.262 6.876c-2.156.972-2.156 4.407 0 5.378l15.262 6.876c.653.294 1.171.877 1.433 1.613l6.109 17.178c.863 2.427 3.915 2.427 4.778 0l6.109-17.178c.262-.735.779-1.318 1.433-1.613l15.262-6.876c2.156-.971 2.156-4.407 0-5.378l-15.262-6.876c-.654-.294-1.171-.877-1.433-1.613l-6.109-17.177c-.863-2.426-3.915-2.426-4.778 0z" fill="#a2f4e3"/><g fill="#00ebc4"><path d="m399.124 48.546c0 9.932 8.051 17.983 17.983 17.983s17.983-8.051 17.983-17.983-8.051-17.983-17.983-17.983-17.983 8.051-17.983 17.983z"/><ellipse cx="140.47" cy="30.563" rx="7.519" ry="7.519" transform="matrix(.973 -.23 .23 .973 -3.264 33.091)"/></g></g></g></svg>