<svg id="Capa_1" enable-background="new 0 0 512 512" height="512" viewBox="0 0 512 512" width="512" xmlns="http://www.w3.org/2000/svg"><g><g><path d="m174.883 323.949c-9.628 6.315-22.552 3.629-28.867-5.999l-124.962-190.518c-6.315-9.628-3.63-22.552 5.998-28.868 9.628-6.315 22.552-3.629 28.868 5.999l124.963 190.518c6.314 9.628 3.629 22.553-6 28.868z" fill="#c37777"/><path d="m215.317 347.633c-10.812 3.959-22.787-1.597-26.746-12.409l-78.34-213.953c-3.959-10.812 1.597-22.787 12.409-26.746 10.812-3.959 22.787 1.597 26.746 12.409l78.34 213.953c3.959 10.812-1.597 22.787-12.409 26.746z" fill="#e79d8e"/><path d="m181.664 323.069c-10.556 4.598-22.842-.232-27.44-10.788l-90.988-208.888c-4.598-10.556.232-22.841 10.788-27.44 10.556-4.598 22.841.232 27.44 10.788l90.989 208.887c4.597 10.558-.233 22.843-10.789 27.441z" fill="#00ebc4"/><path d="m431.762 17.765-25.716-2.228c-.311.224-.618.455-.921.694-9.492 7.489-12.831 20.642-10.344 35.068-4.179.836-8.282 2.364-12.134 4.634l-139.219 82.037-11.185 16.6 57.156 70.387 173.851-151.359z" fill="#fff2a5"/><path d="m469.643 36.469c-18.755-23.771-46.926-32.924-63.587-20.918 7.989 2.801 16.103 8.597 22.626 16.865 13.696 17.359 15.194 39.009 3.347 48.356-4.727 3.73-10.865 4.933-17.405 3.931-5.185-.794-10.328 1.26-13.956 5.048-.022.023-.045.046-.067.069l-88.084 91.326c-11.749 12.182-31.546 11.198-42.029-2.089l-21.232-26.911c-3.372-4.274-5.274-9.189-5.828-14.177l-13.277 7.823c-20.341 11.986-25.432 39.165-10.808 57.7l29.618 37.541c14.624 18.535 42.241 19.908 58.631 2.915l122.877-127.4c3.104-3.219 5.545-6.853 7.33-10.723 13.451 5.775 27.02 5.589 36.512-1.9 16.529-13.039 14.438-43.24-4.668-67.456z" fill="#ffb7a9"/><path d="m321.76 449.554 39.985-227.116-42.264-10.876h-265.561c-12.559 0-23.694 8.166-27.373 20.174-5.486 17.904-8.437 36.886-8.437 56.546 0 50.875 19.741 97.212 52.102 132.041 0 0 .03.011.043.016 9.607 10.505 19.251 18.82 30.948 27.09-.149.112-.297.225-.444.339l3.892 18.144c.001 0 209.61-6.869 217.109-16.358z" fill="#ffe35c"/><path d="m417.07 288.282c0-19.669-2.966-38.653-8.464-56.559-3.685-12.001-14.815-20.161-27.369-20.161h-67.551c10.218 0 19.279 6.642 22.278 16.41 4.475 14.576 6.89 30.028 6.89 46.038 0 53.358-26.679 100.584-67.637 129.541 5.979 4.482 9.865 11.604 9.865 19.652 0 13.571-11.001 24.573-24.573 24.573h-159.743c-7.093 5.523-11.683 14.109-11.683 23.795 0 16.673 13.516 30.189 30.189 30.189h196.635c16.673 0 30.189-13.516 30.189-30.189 0-9.887-4.774-18.636-12.12-24.143 50.318-35.574 83.094-93.593 83.094-159.146z" fill="#ffac62"/><g fill="#00ebc4"><ellipse cx="305.969" cy="442.408" rx="47.558" ry="84.993" transform="matrix(.633 -.774 .774 .633 -230.203 399.26)"/><ellipse cx="412.193" cy="436.918" rx="97.581" ry="54.602" transform="matrix(.822 -.569 .569 .822 -175.424 312.392)"/></g></g><g fill="#4e0325"><path d="m500.834 375.534c-7.527-10.87-31.763-14.578-50.221-14.483-9.209.056-23.354 1.088-39.013 5.578 10.318-24.73 15.71-51.395 15.71-78.347 0-20.258-2.999-40.299-8.915-59.565-5.031-16.386-19.963-27.395-37.158-27.395h-18.304l74.908-77.666c1.639-1.7 3.146-3.506 4.516-5.409 14.471 3.923 28.09 1.77 38.297-6.283 10.732-8.466 16.023-22.062 14.901-38.283-1.023-14.774-7.37-30.242-17.874-43.554-10.501-13.313-24.068-23.085-38.199-27.517-15.514-4.866-29.968-2.883-40.699 5.583-10.206 8.052-15.47 20.797-15.022 35.785-2.17.889-4.278 1.936-6.312 3.135l-152.496 89.859c-12.243 7.214-20.766 19.363-23.382 33.33-1.991 10.628-.404 21.508 4.343 31.021h-11.063l-35.85-97.909c-5.893-16.097-23.786-24.399-39.882-18.504-2.112.773-4.106 1.795-5.983 2.99l-2.286-5.247c-6.844-15.716-25.2-22.933-40.916-16.087-9.357 4.076-15.7 12.233-17.857 21.484-9.524-4.612-21.169-4.261-30.642 1.952-14.334 9.402-18.346 28.713-8.944 43.045l44.782 68.275h-3.353c-17.205 0-32.139 11.017-37.164 27.413-5.897 19.243-8.887 39.277-8.887 59.547 0 51.581 19.476 100.949 54.841 139.01.135.146.274.286.417.423 7.139 7.761 14.412 14.511 22.746 21.062-4.549 6.614-7.029 14.486-7.029 22.793 0 22.292 18.137 40.428 40.429 40.428h196.635c3.673 0 7.258-.493 10.725-1.447 5.873.756 11.615 1.105 17.076 1.105 5.075 0 9.911-.297 14.387-.836.142-.017.278-.049.418-.072 5.222.551 10.194.81 14.261.859.637.008 1.281.012 1.936.012 20.302 0 49.053-3.844 74.399-21.396 28.012-19.399 41.857-47.539 47.617-62.586 6.598-17.24 11.635-41.233 4.107-52.103zm-273.451-178.383c-5.139-6.513-7.21-14.925-5.682-23.079 1.527-8.153 6.502-15.245 13.649-19.456l152.496-89.86c2.773-1.634 5.782-2.783 8.943-3.415 5.441-1.088 9.026-6.312 8.083-11.781-1.937-11.237.467-20.455 6.595-25.29 7.091-5.594 16.755-3.73 21.885-2.12 10.093 3.166 20.39 10.697 28.252 20.661 7.862 9.965 12.79 21.733 13.521 32.284.371 5.364-.064 15.197-7.155 20.791-6.128 4.835-15.652 5.028-26.129.53-5.098-2.188-11.014.081-13.338 5.12-1.35 2.928-3.168 5.587-5.402 7.904l-88.62 91.882h-103.807zm-101.222-93.011c5.496-2.01 11.598.822 13.61 6.315l33.271 90.867h-10.501l-40.926-93.956c.981-1.2 2.428-2.45 4.546-3.226zm-48.048-18.799c5.364-2.336 11.627.126 13.963 5.49l48.128 110.491h-23.143l-44.438-102.017c-2.336-5.364.127-11.628 5.49-13.964zm-48.497 36.474c-1.555-2.369-2.092-5.202-1.516-7.976s2.199-5.158 4.569-6.713c2.368-1.554 5.199-2.094 7.976-1.516 2.775.576 5.158 2.199 6.712 4.568l22.818 34.789 24.547 56.354h-12.957zm89.656 369.705c-11 0-19.95-8.949-19.95-19.949 0-6.314 2.924-12.128 8.022-15.95 2.62-1.963 4.142-5.062 4.097-8.336-.046-3.274-1.654-6.328-4.327-8.219-11.459-8.101-20.496-16.009-29.303-25.639-.162-.178-.331-.35-.505-.514-31.575-34.201-48.957-78.437-48.957-124.632 0-18.234 2.688-36.25 7.988-53.547 2.371-7.736 9.437-12.934 17.583-12.934h327.318c8.141 0 15.206 5.195 17.58 12.927 5.317 17.316 8.013 35.335 8.013 53.554 0 31.722-8.293 63.005-23.974 90.512-2.543 1.483-5.074 3.082-7.579 4.817-9.494 6.575-17.348 14.274-23.843 22.331-2.82-2.974-5.784-5.748-8.881-8.281-23.252-19.009-50.434-23.887-64.568-25.103-16.338-1.405-38.127.258-45.744 9.572-7.615 9.314-4.915 30.996-.289 46.733 4 13.611 14.183 39.281 37.435 58.291 1.886 1.542 3.821 2.992 5.793 4.366h-155.909zm209.137-43.974c-.462 1.276-.938 2.656-1.415 4.115l-27.145-22.193c-2.627-2.148-6.497-1.76-8.645.868-2.148 2.627-1.759 6.498.868 8.645l31.293 25.584c-1.955 8.302-3.259 17.141-2.669 24.187-13.365-2.789-27.058-8.224-38.346-17.452-18.049-14.757-26.517-34.93-29.958-45.641-4.707-14.65-4.988-26.329-4.077-30.388 3.798-1.7 15.299-3.744 30.593-2.044 11.182 1.244 32.635 5.534 50.684 20.29 3.543 2.897 6.885 6.206 9.975 9.853-4.906 8.552-8.525 16.903-11.158 24.176zm148.262-24.874c-4.971 12.24-16.677 35.105-39.222 50.717-30.455 21.091-70.442 19.123-88.893 15.071l79.338-54.942c2.789-1.931 3.485-5.759 1.553-8.549s-5.759-3.485-8.549-1.553l-79.338 54.942c2.698-18.696 14.92-56.82 45.376-77.911 22.544-15.612 48.065-18.528 61.271-18.876 19.988-.531 32.427 3.711 35.646 5.721.75 3.721.342 16.855-7.182 35.38z"/><path d="m338.996 299.143c3.393 0 6.144-2.751 6.144-6.144v-10.158c0-3.393-2.751-6.144-6.144-6.144s-6.144 2.751-6.144 6.144v10.159c0 3.392 2.751 6.143 6.144 6.143z"/><path d="m297.166 344.127c3.393 0 6.144-2.751 6.144-6.144v-10.158c0-3.393-2.751-6.144-6.144-6.144s-6.144 2.751-6.144 6.144v10.158c0 3.393 2.751 6.144 6.144 6.144z"/><path d="m244.514 318.702c3.393 0 6.144-2.751 6.144-6.144v-10.158c0-3.393-2.751-6.144-6.144-6.144s-6.144 2.751-6.144 6.144v10.158c0 3.393 2.751 6.144 6.144 6.144z"/></g><g fill="#fff"><path d="m65.896 281.734c-.374 0-.752-.021-1.132-.062-5.621-.618-9.677-5.677-9.058-11.298.749-6.806 1.94-13.621 3.542-20.256 1.327-5.497 6.858-8.879 12.357-7.551 5.497 1.327 8.878 6.859 7.551 12.357-1.398 5.792-2.438 11.744-3.093 17.69-.578 5.24-5.014 9.12-10.167 9.12z"/><path d="m106.379 402.936c-2.774 0-5.538-1.12-7.558-3.328l-3.053-3.338c-.043-.047-.086-.095-.128-.143-18.753-21.286-31.708-47.063-37.468-74.546-1.16-5.535 2.387-10.962 7.922-12.122 5.533-1.158 10.962 2.387 12.122 7.922 5.028 23.993 16.344 46.515 32.727 65.136l2.988 3.267c3.817 4.172 3.529 10.65-.644 14.467-1.964 1.798-4.44 2.685-6.908 2.685z"/></g><g><path d="m193.549 17.398-8.411 23.651c-.36 1.013-1.073 1.815-1.973 2.221l-21.013 9.467c-2.969 1.338-2.969 6.068 0 7.405l21.013 9.467c.9.405 1.613 1.208 1.973 2.22l8.411 23.651c1.188 3.341 5.391 3.341 6.579 0l8.411-23.651c.36-1.013 1.073-1.815 1.973-2.22l21.013-9.467c2.969-1.338 2.969-6.068 0-7.405l-21.013-9.467c-.9-.405-1.613-1.208-1.973-2.221l-8.411-23.651c-1.189-3.341-5.391-3.341-6.579 0z" fill="#fff2a5"/><path d="m464.537 157.495-6.239 17.544c-.267.751-.796 1.346-1.463 1.647l-15.587 7.023c-2.202.992-2.202 4.501 0 5.493l15.587 7.023c.667.301 1.196.896 1.463 1.647l6.239 17.544c.882 2.479 3.999 2.479 4.88 0l6.24-17.544c.267-.751.796-1.346 1.463-1.647l15.587-7.023c2.202-.992 2.202-4.501 0-5.493l-15.587-7.023c-.667-.301-1.196-.896-1.463-1.647l-6.24-17.544c-.881-2.479-3.998-2.479-4.88 0z" fill="#fff2a5"/><g fill="#ffe35c"><path d="m31.026 28.65c0 4.241 3.438 7.68 7.68 7.68s7.68-3.438 7.68-7.68-3.438-7.68-7.68-7.68-7.68 3.438-7.68 7.68z"/><ellipse cx="297.166" cy="20.97" rx="18.367" ry="18.367" transform="matrix(.924 -.383 .383 .924 14.596 115.317)"/></g></g></g></svg>