<svg id="Capa_1" enable-background="new 0 0 512 512" height="512" viewBox="0 0 512 512" width="512" xmlns="http://www.w3.org/2000/svg"><g><g><path d="m151.607 497.802 66.328-65.442-31.96-175.452-92.513-55.034-75.016 77.472 74.437 181.908z" fill="#75b7f2"/><path d="m173.726 247.348-82.97-64.748-71.789 96.049c26.367 9.46 51.099 24.781 78.464 30.949z" fill="#8289f3"/><path d="m257.659 14.198-124.925 136.912 47.717 315.252h57.28l56.261-11.657 45.822-302.733z" fill="#ad84e6"/><path d="m257.659 14.198-46.046 125.183 26.118 326.981h97.136l47.717-315.252z" fill="#a862e6"/><path d="m322.626 202.755v258.539l66.89 31.576 10.55 3.063 40.405-53.703 61.459-234.407-101.864-85.335-43.238 36.222z" fill="#d3b5f2"/><path d="m390.683 452.631c4.132-74.587 17.482-148.5 18.032-223.303-16.548-24.077-35.137-46.693-51.886-70.617l-58.625 49.113v258.539l91.313 26.508c0-13.42.423-26.838 1.166-40.24z" fill="#d088f3"/></g><g fill="#4e0325"><path d="m508.397 200.104-101.863-85.336c-3.742-3.134-9.192-3.134-12.934 0l-17.311 14.502-111.19-121.859c-1.908-2.091-4.608-3.283-7.439-3.283-2.83 0-5.53 1.191-7.439 3.283l-124.926 136.912c-2.047 2.244-2.972 5.291-2.518 8.295l7.243 47.85-33.069-25.806c-2.135-1.665-4.851-2.401-7.533-2.042-2.683.36-5.108 1.784-6.729 3.952l-72.31 96.746c-2.118 2.833-2.594 6.569-1.254 9.842l74.438 181.908c.802 1.96 2.201 3.617 3.999 4.736l58.723 36.547c1.642 1.022 3.485 1.521 5.317 1.52 2.58 0 5.138-.989 7.076-2.902l28.924-28.538h109.167l100.488 29.171c.928.27 1.872.4 2.807.4 3.111 0 6.113-1.445 8.047-4.016l40.404-53.703c.787-1.046 1.362-2.235 1.694-3.5l61.459-234.406c.991-3.769-.284-7.77-3.271-10.273zm-108.331-64.479 84.223 70.558-71.876 18.757-47.376-59.97zm-89.681 48.856-28.77-129.089 79.221 86.824zm-67.397 271.811-25.23-315.863 46.264-104.318 1.21 1.326 34.72 155.784-8.215 6.882c-2.284 1.913-3.603 4.74-3.603 7.719v248.468h-45.146zm-53.876 0-45.367-299.729 62.367-10.163 24.754 309.892zm61.222-419.126-42.92 96.778-53.311 8.687zm-157.668 159.698 41.739 32.573 5.847 38.632-43.956 34.725-60.168-21.171c-1.941-.683-3.993-.315-5.542.803l-.662-1.617zm57.52 288.193-49.216-30.631-65.575-160.252 57.184 20.121 46.439 146.949c.814 2.576 3.194 4.223 5.76 4.223.603 0 1.216-.091 1.822-.282 3.182-1.006 4.946-4.4 3.941-7.582l-46.092-145.849 37.886-29.93 27.785 183.565zm158.088-272.533 47.497-39.791 48.142 60.939-19.219 247.311-76.42-22.184zm122.958 225.235-34.637 46.037 19.215-247.253 73.186-19.099z"/><path d="m250.301 119.989c-3.337 0-6.042 2.705-6.042 6.042v9.99c0 3.337 2.705 6.042 6.042 6.042s6.042-2.705 6.042-6.042v-9.99c0-3.337-2.706-6.042-6.042-6.042z"/><path d="m267.365 165.425c-3.337 0-6.042 2.705-6.042 6.042v9.99c0 3.337 2.705 6.042 6.042 6.042s6.042-2.705 6.042-6.042v-9.99c0-3.336-2.705-6.042-6.042-6.042z"/><path d="m344.788 242.652v-9.99c0-3.337-2.705-6.042-6.042-6.042s-6.042 2.705-6.042 6.042v9.99c0 3.337 2.705 6.042 6.042 6.042s6.042-2.706 6.042-6.042z"/><path d="m366.538 265.79c-3.337 0-6.042 2.705-6.042 6.042v9.99c0 3.337 2.705 6.042 6.042 6.042s6.042-2.705 6.042-6.042v-9.99c0-3.337-2.706-6.042-6.042-6.042z"/><path d="m343.51 311.886c-3.337 0-6.042 2.705-6.042 6.042v9.99c0 3.337 2.705 6.042 6.042 6.042s6.042-2.705 6.042-6.042v-9.99c0-3.336-2.706-6.042-6.042-6.042z"/></g><g fill="#fff"><path d="m187.819 294.549c-4.927 0-9.233-3.619-9.955-8.638l-6.526-45.38c-.792-5.505 3.029-10.609 8.534-11.401 5.506-.797 10.61 3.029 11.401 8.534l6.526 45.38c.792 5.505-3.029 10.609-8.534 11.401-.485.07-.969.104-1.446.104z"/><path d="m175.567 209.346c-4.926 0-9.233-3.619-9.955-8.637l-.799-5.557c-.792-5.505 3.028-10.61 8.533-11.402 5.505-.8 10.61 3.028 11.402 8.533l.799 5.557c.792 5.505-3.029 10.61-8.533 11.402-.486.07-.97.104-1.447.104z"/><path d="m439.656 316.726c-.813 0-1.638-.099-2.461-.306-5.394-1.355-8.668-6.827-7.312-12.22l8.75-34.821c1.355-5.394 6.83-8.672 12.22-7.312 5.394 1.355 8.668 6.827 7.312 12.22l-8.751 34.821c-1.147 4.569-5.251 7.618-9.758 7.618z"/><path d="m77.618 357.438c-4.076 0-7.912-2.492-9.429-6.533l-2.597-6.916c-1.955-5.207.68-11.012 5.887-12.968 5.205-1.954 11.013.681 12.968 5.887l2.597 6.916c1.955 5.207-.681 11.012-5.887 12.968-1.165.438-2.362.646-3.539.646z"/></g><g><path d="m33.067 59.427-8.272 23.26c-.354.996-1.055 1.785-1.94 2.184l-20.665 9.31c-2.92 1.315-2.92 5.967 0 7.283l20.665 9.311c.885.399 1.586 1.188 1.94 2.184l8.272 23.26c1.169 3.286 5.302 3.286 6.47 0l8.272-23.26c.354-.996 1.055-1.785 1.94-2.184l20.665-9.311c2.92-1.315 2.92-5.967 0-7.283l-20.665-9.31c-.885-.399-1.586-1.188-1.94-2.184l-8.272-23.26c-1.168-3.286-5.301-3.286-6.47 0z" fill="#d3b5f2"/><path d="m468.552 29.169-6.136 17.254c-.263.739-.783 1.324-1.439 1.62l-15.329 6.906c-2.166.976-2.166 4.426 0 5.402l15.329 6.907c.656.296 1.176.881 1.439 1.62l6.136 17.254c.867 2.437 3.932 2.437 4.799 0l6.136-17.254c.263-.739.783-1.324 1.439-1.62l15.329-6.907c2.165-.976 2.165-4.426 0-5.402l-15.329-6.906c-.656-.296-1.176-.881-1.439-1.62l-6.136-17.254c-.866-2.438-3.932-2.438-4.799 0z" fill="#d3b5f2"/><g fill="#ad84e6"><path d="m110.97 32.034c0 9.976 8.087 18.063 18.063 18.063s18.062-8.087 18.062-18.063-8.087-18.063-18.062-18.063c-9.976.001-18.063 8.088-18.063 18.063z"/><path d="m370.923 50.097c0 4.171 3.381 7.553 7.553 7.553s7.553-3.382 7.553-7.553-3.382-7.553-7.553-7.553-7.553 3.382-7.553 7.553z"/></g></g></g></svg>