<svg id="Capa_1" enable-background="new 0 0 512 512" height="512" viewBox="0 0 512 512" width="512" xmlns="http://www.w3.org/2000/svg"><g><g><path d="m24.842 92.43 18.989 17.603 28.395 20.952 46.882-35.321-54.528-77.013-37.896 5.87-3.851 4.611-7.367 33.267c-2.429 10.966 1.14 22.396 9.376 30.031z" fill="#98e8f2"/><path d="m134.426 72.446-34.381-48.834c-6.734-9.565-18.199-14.632-29.806-13.172l-32.602 4.1c-7.139.898-12.944 6.187-14.499 13.212l-.306 1.38 18.604-2.339c7.579-.953 15.066 2.355 19.463 8.602l22.451 31.888c3.418 4.855 4.581 10.946 3.192 16.719l-2.379 9.887c-1.259 5.232-4.51 9.766-9.061 12.637l-7.44 4.693c-7.914 4.992-18.195 4.039-25.057-2.322l29.424 27.276c10.508 9.741 26.253 11.201 38.372 3.557l11.394-7.187c6.97-4.396 11.949-11.34 13.877-19.352l3.643-15.141c2.126-8.841.345-18.169-4.889-25.604z" fill="#a6aff4"/><path d="m126.034 60.527-12.479 6.085c-3.469 23.583-3.828 62.424-22.329 77.164-27.311 21.76 35.145 31.503 46.313 43.224-1.767 22.789 26.169 51.797 39.944 62.939 32.165 26.015 40.562 21.905 54.785 35.221 17.093 37.591 52.944 76.229 98.904 85.401 14.107 4.576 46.971 44.424 70.122 74.34l31.064 21.154 18.009-7.228s-97.937-128.523-115.579-141.155c-7.514-21.548-45.865-74.779-86.219-95.949 0 0-13.962-38.579-69.192-85.408-26.927-51.184-53.343-75.788-53.343-75.788z" fill="#c37777"/><path d="m341.328 312.462c-7.514-21.548-47.354-73.771-87.709-94.942 0 0-11.285-39.672-66.515-86.502-26.927-51.183-47.569-83.648-64.18-83.466-5.358.059-7.714 7.832-9.367 19.059 11.527 10.964 25.017 33.771 41.131 64.401 47.418 40.206 57.106 74.266 57.106 74.266 33.229 17.432 66.052 59.39 74.373 79.114.648 1.537 1.635 2.893 2.889 3.994 21.833 19.174 140.528 155.606 134.393 160.324-2.334 1.794-11.497-.363-22.156-3.81 14.42 18.634 25.075 33.419 25.075 33.419s66.375 28.43 73.777 22.738c7.403-5.69-141.175-175.962-158.817-188.595z" fill="#ba5677"/><path d="m263.507 120.194c-5.296 22.014-32.514 34.346-32.514 34.346s-18.631-23.361-13.334-45.376c5.296-22.015 32.514-34.346 32.514-34.346s18.63 23.362 13.334 45.376z" fill="#00ebc4"/><path d="m293.29 405.322c-21.012 8.437-46.831-6.605-46.831-6.605s8.249-28.719 29.261-37.156 46.831 6.605 46.831 6.605-8.248 28.72-29.261 37.156z" fill="#00ebc4"/><g fill="#a2f4e3"><path d="m360.486 408.66c-5 3.845-11.926 4.812-18.011 1.918-8.64-4.108-12.314-14.443-8.206-23.084 10.926-22.977 4.651-68.373 1.311-83.927-2.008-9.349 3.939-18.563 13.286-20.578 9.347-2.014 18.558 3.919 20.579 13.265 1.491 6.89 14.045 68.406-3.887 106.117-1.215 2.555-2.974 4.675-5.072 6.289z"/><path d="m239.802 323.884c-5.541 4.261-13.357 4.897-19.659 1.009-8.143-5.022-10.672-15.695-5.65-23.838.135-.22 14.245-23.295 23.659-49.958 5.995-16.982 14.057-47.08 1.858-60.445-2.856-.847-17.176-3.518-65.12 7.097-29.087 6.44-55.442 14.459-55.705 14.54-9.149 2.794-18.832-2.358-21.627-11.507s2.356-18.833 11.504-21.627c1.24-.379 30.741-9.36 63.069-16.262 19.383-4.138 35.794-6.659 48.775-7.493 21.106-1.356 34.179 1.58 42.386 9.519 20.875 20.188 23.345 53.244 7.341 98.249-10.684 30.043-26.003 55.026-26.65 56.075-1.137 1.841-2.562 3.396-4.181 4.641zm.781-133.032.008-.006z"/></g></g><g fill="#4e0325"><path d="m464.984 434.913c-23.885-28.884-54.4-64.062-79.719-91.91-.655-23.057-4.522-42.718-5.86-48.902-3.204-14.815-17.876-24.266-32.687-21.072-4.831 1.042-9.088 3.307-12.528 6.394-10.676-15.077-26.137-33.312-44.49-49.08 4.788-31.268-1.655-55.659-19.325-72.747-3.783-3.659-8.235-6.482-13.51-8.535 7.128-6.648 13.905-15.497 16.548-26.483 6.388-26.552-14.387-53-15.275-54.113-2.908-3.648-7.92-4.853-12.172-2.929-1.297.588-31.828 14.692-38.216 41.245-2.727 11.333-.499 22.641 3.013 31.974-4.942-4.818-10.141-9.573-15.557-14.218-29.819-56.518-50.279-87.175-72.138-87.175-.085 0-.171 0-.256.001-.201.002-.406.009-.611.019l-13.824-19.636c-8.925-12.677-24.025-19.35-39.409-17.416l-32.602 4.099c-11.382 1.432-20.696 9.919-23.177 21.119l-7.672 34.648c-3.198 14.439 1.552 29.653 12.398 39.707l47.186 43.743c2.863 2.654 6.074 4.874 9.524 6.623-.482 2.135-.574 4.314-.251 6.532 1.358 9.333 9.419 15.616 19.205 20.612-1.44 1.622-2.7 3.424-3.745 5.387-3.451 6.488-4.169 13.932-2.022 20.959 4.432 14.507 19.843 22.704 34.353 18.274.118-.036 5.558-1.69 14.138-4.078 9.319 16.163 24.184 31.341 34.774 39.907 18.93 15.31 30.442 20.891 38.847 24.965.846.41 1.656.804 2.445 1.193-3.781 7.141-6.492 11.595-6.547 11.685-7.964 12.913-3.939 29.897 8.972 37.86 4.414 2.723 9.426 4.068 14.428 4.068 5.956 0 11.899-1.909 16.792-5.672.885-.68 1.705-1.428 2.495-2.205 7.059 8.453 14.691 16.014 22.765 22.597-23.915 9.604-34.939 38.615-35.414 39.896-1.623 4.374-.069 9.291 3.773 11.937.963.663 19.929 13.526 41.109 13.526 4.595 0 9.296-.605 13.94-2.073 12.303-3.888 21.453-12.957 27.74-21.585-.323 10.59 5.512 20.891 15.677 25.724 3.786 1.801 7.827 2.686 11.841 2.686 5.647 0 11.234-1.773 16-5.193 25.489 30.058 51.88 66.61 52.164 67.005 1.083 1.502 2.553 2.68 4.255 3.409.689.294 17.052 7.291 34.63 13.709 21.085 7.7 32.678 10.606 39.877 10.606 4.432 0 7.2-1.102 9.492-2.864 2.431-1.869 3.922-4.616 4.199-7.735.449-5.052.912-10.277-45.573-66.488zm-139.904-132.296c.02.034.046.063.067.097.102.995.254 1.993.469 2.993 2.512 11.697 5.498 34.725 4.303 54.147-4.946-1.165-9.846-2.723-14.67-4.664-.303-.128-.611-.255-.922-.382-20.095-8.303-38.858-23.171-54.277-43.233 5.741-10.69 13.764-26.945 20.182-44.992 1.628-4.579 3.075-9.05 4.342-13.412 18.321 17.392 32.941 36.861 40.506 49.446zm-97.514-191.069c2.4-9.975 11.852-18.236 19.349-23.195 4.426 7.833 9.083 19.486 6.684 29.458-2.4 9.975-11.852 18.236-19.348 23.194-4.427-7.833-9.084-19.486-6.685-29.457zm-84.644-35.507c9.219 12.599 20.064 31.018 35.164 59.722.608 1.156 1.432 2.184 2.428 3.028 3.856 3.269 7.588 6.597 11.196 9.961-6.776 1.143-14.017 2.534-21.708 4.176-20.591 4.396-40.012 9.613-51.935 12.985-.228-.112-.455-.225-.694-.322-4.816-1.945-18.773-7.579-22.355-11.428.448-.545 1.23-1.358 2.559-2.417 18.36-14.629 21.682-45.028 24.35-69.455.889-8.14 2.052-18.788 3.651-23.817 2.993 1.426 8.578 5.585 17.344 17.567zm-111.152 8.916c-5.559-5.154-7.995-12.953-6.355-20.355l7.673-34.647c.623-2.813 2.962-4.945 5.821-5.305l32.602-4.099c7.881-.99 15.627 2.429 20.202 8.928l15.026 21.343c-.461 1.24-.89 2.583-1.275 4.05-1.788 6.813-2.719 15.337-3.797 25.206-1.983 18.149-4.65 42.504-14.366 53.405-3.097-.941-5.955-2.566-8.345-4.781zm187.043 179.532c-7.935-3.847-17.811-8.634-34.921-22.472-6.648-5.378-18.552-16.739-27.021-29.518 6.356-1.602 13.206-3.248 20.221-4.801 35.49-7.858 51.192-8.11 57.059-7.678 4.068 8.277 2.057 25.971-5.608 47.684-2.219 6.285-4.721 12.38-7.232 18.002-.825-.406-1.655-.809-2.498-1.217zm14.778 51.316c0 .001 0 .001-.001.001-2.334 1.795-5.588 1.961-8.097.414-3.348-2.065-4.391-6.468-2.321-9.824.147-.239 14.805-24.196 24.589-51.907 7.704-21.824 14.007-50.655 2.19-67.678-.312-.723-.715-1.422-1.208-2.08-1.362-1.816-3.213-3.048-5.232-3.65-.198-.072-.398-.139-.602-.199-6.221-1.847-23.617-3.401-70.222 6.917-29.742 6.585-56.222 14.664-56.478 14.743-3.76 1.146-7.757-.977-8.906-4.738-.557-1.822-.371-3.752.524-5.434s2.39-2.915 4.214-3.471c1.22-.373 30.255-9.217 62.216-16.041 18.904-4.035 34.818-6.488 47.301-7.289 23.321-1.497 30.944 3.091 34.649 6.675 17.746 17.162 19.369 46.605 4.824 87.51-10.347 29.097-25.097 53.127-25.724 54.142-.459.744-1.036 1.387-1.716 1.909zm54.948 80.403c-9.774 3.088-21.714-.736-29.829-4.595 4.099-7.33 11.485-17.689 21.761-20.937 8.019-2.535 17.497-.412 25.125 2.564.785.332 1.571.659 2.36.974.807.349 1.596.702 2.343 1.058-4.099 7.329-11.484 17.688-21.76 20.936zm65.736 4.373c-.001 0-.001 0-.001 0-2.142 1.648-4.987 1.952-7.423.793-3.553-1.689-5.068-5.954-3.379-9.505 14.636-30.779 2.199-89.849 2.072-90.443-.826-3.846 1.628-7.648 5.47-8.477.505-.108 1.008-.161 1.505-.161 3.284 0 6.246 2.285 6.968 5.62 5.136 23.741 10.257 71.432-3.13 99.585-.492 1.034-1.192 1.904-2.082 2.588zm78.684 69.468c-6.651-9.13-31.502-42.879-55.238-70.354 3.211-8.67 5.216-18.057 6.361-27.556 39.175 43.866 79.253 91.858 97.08 115.954-13.097-4.059-31.672-11.056-48.203-18.044z"/><path d="m297.342 321.498c1.177 1.091 2.668 1.63 4.156 1.63 1.642 0 3.28-.658 4.485-1.957 2.296-2.477 2.148-6.345-.327-8.641l-8.221-7.62c-2.477-2.294-6.344-2.149-8.641.327-2.296 2.477-2.148 6.345.327 8.641z"/><path d="m201.906 223.942c-2.476-2.295-6.344-2.148-8.641.327-2.295 2.476-2.149 6.345.327 8.641l8.22 7.62c1.177 1.091 2.668 1.63 4.155 1.63 1.643 0 3.28-.658 4.486-1.957 2.295-2.476 2.149-6.345-.327-8.641z"/><path d="m144.256 127.727c1.177 1.091 2.668 1.63 4.155 1.63 1.642 0 3.28-.658 4.485-1.957 2.296-2.476 2.149-6.345-.327-8.64l-8.22-7.621c-2.476-2.296-6.344-2.149-8.64.327s-2.149 6.345.327 8.64z"/></g><path d="m55.993 90.874c-2.716 0-5.426-1.079-7.432-3.216l-7.41-7.895c-4.291-4.572-6.192-10.986-5.084-17.157l.695-3.877c.993-5.54 6.291-9.224 11.828-8.232 5.54.994 9.225 6.289 8.232 11.828l-.656 3.657 7.254 7.729c3.851 4.103 3.647 10.552-.456 14.404-1.966 1.844-4.471 2.759-6.971 2.759z" fill="#fff"/><g><path d="m34.815 238-8.371 23.536c-.358 1.008-1.068 1.806-1.963 2.21l-20.911 9.422c-2.954 1.331-2.954 6.038 0 7.369l20.911 9.421c.895.403 1.605 1.202 1.963 2.21l8.371 23.536c1.182 3.325 5.365 3.325 6.547 0l8.37-23.536c.359-1.008 1.068-1.806 1.963-2.21l20.911-9.421c2.954-1.331 2.954-6.038 0-7.369l-20.911-9.421c-.895-.403-1.605-1.202-1.963-2.21l-8.37-23.537c-1.183-3.325-5.365-3.325-6.547 0z" fill="#a2f4e3"/><path d="m320.123 5.91-6.209 17.459c-.266.747-.792 1.34-1.456 1.639l-15.512 6.988c-2.191.988-2.191 4.479 0 5.466l15.512 6.989c.664.299 1.19.892 1.456 1.639l6.209 17.459c.877 2.466 3.979 2.466 4.856 0l6.209-17.459c.266-.747.792-1.34 1.456-1.639l15.512-6.989c2.191-.987 2.191-4.479 0-5.466l-15.512-6.988c-.664-.299-1.19-.892-1.456-1.639l-6.209-17.459c-.877-2.467-3.979-2.467-4.856 0z" fill="#a2f4e3"/><g fill="#00ebc4"><path d="m384.23 202.565c0 10.094 8.183 18.277 18.277 18.277s18.277-8.183 18.277-18.277-8.183-18.277-18.277-18.278c-10.094 0-18.277 8.184-18.277 18.278z"/><path d="m384.516 122.322c0 4.221 3.421 7.642 7.642 7.642s7.643-3.422 7.643-7.642c0-4.221-3.422-7.642-7.643-7.642-4.221-.001-7.642 3.421-7.642 7.642z"/></g></g></g></svg>