<svg id="Capa_1" enable-background="new 0 0 512 512" height="512" viewBox="0 0 512 512" width="512" xmlns="http://www.w3.org/2000/svg"><g><g><path d="m333.789 13.372-23.068-3.182h-175.034c-12.692 0-22.981 10.289-22.981 22.981 0 6.799 2.953 12.909 7.646 17.116 10.407 9.33 16.213 22.754 16.939 36.711l4.653 89.463c0 .666.007 1.33.02 1.992 8.379 52.341 44.619 84.819 98.198 84.819l27.832-10.516 59.919-83.123 3.683-82.635c.727-13.957 2.193-73.626 2.193-73.626z" fill="#ffe35c"/><path d="m344.639 10.19h-36.69c10.684 0 19.345 8.661 19.345 19.345 0 5.724-2.485 10.867-6.436 14.409-8.76 7.854-13.648 19.154-14.26 30.903l-3.917 75.311c0 45.663-37.017 82.681-82.681 82.681-36.09 0-66.761-23.132-78.043-55.372.54 53.781 44.297 97.213 98.206 97.213 54.245 0 98.218-43.974 98.218-98.218l4.653-89.464c.726-13.957 6.533-27.381 16.939-36.711 4.693-4.208 7.646-10.317 7.646-17.116.001-12.692-10.288-22.981-22.98-22.981z" fill="#ffac62"/><path d="m302.246 452.333c-2.702-1.645-5.365-3.353-7.98-5.142l-33.063-22.607v-4.555l-6.415-24.853-3.071-83.383h-33.782v10.79c0 7.396-2.081 14.691-6.09 21.327-3.569 5.909-5.654 13.02-5.654 20.676s2.084 14.767 5.654 20.676c4.009 6.636 6.09 13.931 6.09 21.327v18.805l-31.876 21.796c-10.159 6.947-21.043 12.697-32.093 18.117-1.05.515-2.046 1.123-2.977 1.813-.365.271-1.062 9.898-1.062 9.898l165.481-2.78z" fill="#ffe35c"/><path d="m239.738 312.449v8.887c0 6.092 1.714 12.101 5.016 17.567 2.94 4.867 4.657 10.724 4.657 17.03s-1.717 12.163-4.657 17.03c-3.302 5.466-5.016 11.475-5.016 17.567 0 9.274 4.578 17.951 12.234 23.186l9.232 6.312v-13.438c0-7.396 2.081-14.692 6.09-21.328 3.569-5.909 5.654-13.02 5.654-20.676s-2.084-14.767-5.654-20.676c-4.009-6.636-6.09-13.931-6.09-21.328v-10.79h-43.267v.656h21.801z" fill="#ffac62"/><path d="m326.358 465.308c-8.205-4.024-16.317-8.234-24.111-12.977.013.263.028.525.028.791 0 8.747-7.091 15.837-15.837 15.837h-128.061c-2.667 0-5.175-.666-7.38-1.83-4.729 3.503-7.801 9.116-7.801 15.453 0 10.619 8.609 19.228 19.228 19.228h155.478c10.619 0 19.228-8.609 19.228-19.228 0-7.586-4.392-14.145-10.772-17.274z" fill="#ffac62"/><g fill="#fff2a5"><path d="m264.046 317.258h-47.766c-6.364 0-11.522-5.159-11.522-11.522v-21.571c0-6.364 5.159-11.523 11.522-11.523h47.765c6.364 0 11.522 5.159 11.522 11.523v21.571c.001 6.363-5.157 11.522-11.521 11.522z"/><circle cx="240.163" cy="154.021" r="65.667"/></g></g><g fill="#4e0325"><path d="m344.638 0h-208.95c-18.29 0-33.171 14.88-33.171 33.171 0 9.413 4.021 18.417 11.034 24.704 8.014 7.185 12.958 17.993 13.565 29.653l4.639 89.205c.111 44.564 27.252 82.893 65.86 99.432-1.288 2.774-1.998 5.828-1.998 8.981v20.931c0 8.417 4.904 15.692 11.994 19.174-.418 4.633-1.913 9.128-4.488 13.391-4.658 7.712-7.121 16.684-7.121 25.945s2.463 18.233 7.121 25.945c3.067 5.078 4.622 10.48 4.622 16.059v13.429l-27.437 18.761c-10.3 7.043-21.364 12.738-30.828 17.38-10.162 4.984-16.475 15.109-16.475 26.422 0 16.221 13.196 29.418 29.418 29.418h155.479c16.221 0 29.418-13.197 29.418-29.418 0-11.314-6.313-21.438-16.475-26.423-9.464-4.642-20.527-10.336-30.828-17.38l-28.625-19.572v-12.618c0-5.578 1.555-10.982 4.622-16.059 4.659-7.713 7.122-16.685 7.122-25.945 0-9.261-2.463-18.232-7.122-25.944-2.475-4.099-3.948-8.411-4.431-12.854 7.701-3.234 13.124-10.85 13.124-19.712v-20.931c0-3.179-.693-6.23-1.97-8.993 38.593-16.546 65.721-54.866 65.832-99.42l4.639-89.205c.607-11.66 5.551-22.468 13.564-29.652 7.013-6.287 11.035-15.291 11.035-24.704.003-18.291-14.878-33.171-33.169-33.171zm-56.124 455.602c11.367 7.773 23.241 13.893 33.357 18.854 3.127 1.534 5.069 4.647 5.069 8.125 0 4.983-4.054 9.038-9.038 9.038h-155.478c-4.984 0-9.038-4.055-9.038-9.038 0-3.478 1.942-6.591 5.069-8.125 10.116-4.961 21.99-11.081 33.357-18.854l31.876-21.796c2.777-1.899 4.438-5.047 4.438-8.412v-18.804c0-9.214-2.613-18.41-7.558-26.596-2.739-4.533-4.186-9.861-4.186-15.407 0-5.547 1.447-10.875 4.186-15.407 4.073-6.743 6.56-14.172 7.311-21.731h23.38c.752 7.559 3.238 14.989 7.311 21.732 2.739 4.533 4.186 9.861 4.186 15.406s-1.448 10.874-4.186 15.407c-4.945 8.186-7.558 17.383-7.558 26.596v17.993c0 3.365 1.661 6.513 4.438 8.412zm-72.516-149.525v-20.931c0-.537.391-.8.51-.868.775-.44 1.461-.974 2.071-1.568 6.977 1.415 14.195 2.161 21.584 2.161 7.424 0 14.676-.751 21.684-2.18.586.601 1.246 1.146 1.995 1.602.146.089.486.35.486.854v20.931c0 .546-.445.991-.991.991h-46.349c-.545-.001-.99-.446-.99-.992zm137.173-263.377c-12.022 10.779-19.426 26.731-20.312 43.769l-4.653 89.464c-.009.177-.014.353-.014.529 0 48.539-39.489 88.029-88.028 88.029s-88.028-39.489-88.028-88.029c0-.177-.005-.353-.014-.529l-4.653-89.464c-.887-17.037-8.29-32.99-20.313-43.768-2.706-2.427-4.258-5.9-4.258-9.53 0-7.053 5.738-12.791 12.791-12.791h208.951c7.053 0 12.791 5.738 12.791 12.791-.001 3.629-1.554 7.103-4.26 9.529z"/><path d="m240.163 82.24c-39.58 0-71.781 32.201-71.781 71.781s32.201 71.781 71.781 71.781 71.781-32.201 71.781-71.781-32.201-71.781-71.781-71.781zm0 23.467 6.883 21.207h-13.766zm17.56 54.08-17.559 12.758-.001-.001-.001.001-17.559-12.758v-.001l-.001-.001 6.706-20.642h.001l.001-.002h21.704l.001.002h.001l6.706 20.642zm-27.014-64.56-10.285 31.686-33.254-.01c8.506-16.554 24.528-28.63 43.539-31.676zm-14.256 43.912-4.254 13.092-18.042-13.1zm-18.487 56.861c-10.719-10.775-17.355-25.616-17.355-41.979 0-3.096.239-6.137.696-9.107l26.919 19.544zm20.66-23.987 11.137 8.092-18.034 13.111zm21.537 41.561c-9.647 0-18.757-2.32-26.825-6.41l26.825-19.503 26.825 19.503c-8.068 4.09-17.178 6.41-26.825 6.41zm10.4-33.469 11.137-8.092 6.897 21.203zm13.31-40.966 22.296-.007-18.042 13.1zm35.843 14.882c0 16.363-6.636 31.204-17.355 41.979l-10.26-31.542 26.919-19.545c.457 2.971.696 6.012.696 9.108zm-39.814-27.108-10.285-31.686c19.01 3.046 35.033 15.123 43.539 31.676z"/></g><g fill="#fff"><path d="m260.814 57.74h-45.399c-5.627 0-10.19-4.562-10.19-10.19s4.563-10.19 10.19-10.19h45.399c5.627 0 10.19 4.562 10.19 10.19s-4.563 10.19-10.19 10.19z"/><path d="m171.196 57.74h-1.661c-5.627 0-10.19-4.562-10.19-10.19s4.563-10.19 10.19-10.19h1.661c5.627 0 10.19 4.562 10.19 10.19s-4.563 10.19-10.19 10.19z"/></g><g><path d="m59.853 232.944-8.37 23.537c-.358 1.008-1.068 1.806-1.963 2.21l-20.911 9.421c-2.954 1.331-2.954 6.038 0 7.369l20.911 9.421c.895.403 1.605 1.202 1.963 2.21l8.37 23.536c1.183 3.325 5.365 3.325 6.547 0l8.37-23.536c.358-1.008 1.068-1.806 1.963-2.21l20.911-9.421c2.954-1.331 2.954-6.038 0-7.369l-20.911-9.421c-.895-.403-1.605-1.202-1.963-2.21l-8.37-23.537c-1.182-3.325-5.364-3.325-6.547 0z" fill="#fff2a5"/><path d="m469.472 41.784-6.209 17.459c-.266.748-.792 1.34-1.456 1.639l-15.512 6.989c-2.191.987-2.191 4.479 0 5.466l15.512 6.989c.664.299 1.19.892 1.456 1.639l6.209 17.459c.877 2.466 3.979 2.466 4.857 0l6.209-17.459c.266-.747.792-1.34 1.456-1.639l15.512-6.989c2.191-.987 2.191-4.479 0-5.466l-15.512-6.989c-.664-.299-1.19-.892-1.456-1.639l-6.209-17.459c-.878-2.467-3.98-2.467-4.857 0z" fill="#fff2a5"/><g fill="#ffe35c"><path d="m12.851 122.319c0 4.221 3.422 7.643 7.642 7.643s7.643-3.422 7.643-7.643-3.422-7.642-7.643-7.642-7.642 3.422-7.642 7.642z"/><ellipse cx="435.477" cy="187.112" rx="18.278" ry="18.278" transform="matrix(.23 -.973 .973 .23 153.319 567.95)"/></g></g></g></svg>