<svg id="Capa_1" enable-background="new 0 0 512 512" height="512" viewBox="0 0 512 512" width="512" xmlns="http://www.w3.org/2000/svg"><g><g><path d="m192.395 218.824-3.672 5.715-132.452 206.125-.829 22.779 222.429-149.142c-33.729-33.73-51.746-51.747-85.476-85.477z" fill="#98e8f2"/><path d="m316.313 293.875-1.141-7.531-87.759-88.903-8.88-1.345c-6.302-.954-12.982 2.254-16.683 8.013 0 0-11.45 17.819-13.128 20.43l63.377 64.204.927 6.119c.775 5.12-1.832 10.547-6.511 13.554l-190.244 122.248c-16.674 25.948-45.798 71.272-45.798 71.272l297.826-191.377c5.759-3.702 8.968-10.382 8.014-16.684z" fill="#a6aff4"/><path d="m453.226 52.821-28.292.959c-12.716 10.156-26.726 18.785-41.642 26.055-7.191 3.505-14.334 8.383-20.943 14.534-.825.768-6.897 8.966-7.705 9.774-15.331 23.307.497 54.79.497 54.79l49.932-16.634 43.805-60.657z" fill="#75b7f2"/><path d="m449.66 30.749-8.882 8.881c-5.014 5.015-10.311 9.722-15.849 14.145l11.288 11.288c2.608 2.608 2.608 6.836 0 9.443l-.658.659c-10.015 10.015-18.035 21.856-24.356 34.827-2.388 4.9-5.829 9.763-10.237 14.171-14.479 14.479-33.884 18.549-43.341 9.092-8.784-8.784-5.892-26.145 6.163-40.174-1.315 1.174-2.617 2.38-3.89 3.652-23.9 23.9-30.62 55.931-15.008 71.543s47.642 8.893 71.543-15.008c7.275-7.275 12.955-15.303 16.897-23.392 10.436-21.412 23.673-40.957 40.206-57.489l8.881-8.881z" fill="#8289f3"/><circle cx="467.453" cy="44.139" fill="#fff2a5" r="34.074"/><path d="m251.086 262.935 93.831 9.925-17.226-88.021-103.709-39.763c7.287 39.211 11.236 75.204 9.624 105.835z" fill="#98e8f2"/><path d="m310.375 208.984 17.903 47.382c-32.279-6.525-63.266-8.307-92.983-5.433-.584.056-1.155.042-1.712-.021-.319 6.064-.836 11.939-1.609 17.566-.934 6.8 4.76 12.622 11.591 11.961 39.3-3.801 80.277-1.444 122.963 7.185l-29.714-78.64z" fill="#a6aff4"/><g fill="#fff2a5"><path d="m250.591 130.611c-13.241 13.241-32.501 16.775-48.969 10.629 2.249 6.027 5.784 11.683 10.629 16.528 17.13 17.13 44.339 18.036 62.535 2.719 1.017-.856 2.005-1.762 2.962-2.719 18.086-18.086 18.086-47.41 0-65.497-4.846-4.846-10.502-8.38-16.529-10.629 6.147 16.468 2.612 35.728-10.628 48.969z"/><path d="m381.476 261.496c13.241-13.241 32.5-16.775 48.968-10.629-2.249-6.027-5.784-11.683-10.629-16.528-17.129-17.13-44.339-18.036-62.535-2.719-1.017.856-2.005 1.762-2.962 2.719-18.086 18.086-18.086 47.41 0 65.497 4.846 4.846 10.502 8.38 16.529 10.629-6.146-16.469-2.612-35.728 10.629-48.969z"/><circle cx="316.194" cy="196.214" r="53.915"/></g></g><g fill="#4e0325"><path d="m511.591 44.139c0-11.79-4.591-22.874-12.928-31.21-8.336-8.338-19.42-12.929-31.21-12.929-11.789 0-22.874 4.591-31.211 12.928-8.052 8.053-12.335 18.468-12.852 29.035-12.852 10.978-27.792 20.678-44.507 28.825-9.413 4.587-18.194 10.922-26.101 18.829-12.947 12.947-21.758 28.499-24.99 43.712-8.994-1.645-18.271-1.364-27.164.852.487-3.001.75-6.06.75-9.16 0-15.059-5.864-29.217-16.512-39.865-5.748-5.749-12.52-10.103-20.125-12.942-3.693-1.379-7.849-.474-10.636 2.312-2.786 2.786-3.691 6.943-2.313 10.636 4.956 13.278 1.691 28.325-8.317 38.332v.001c-10.008 10.008-25.053 13.272-38.333 8.317-3.694-1.379-7.849-.474-10.636 2.313-2.786 2.787-3.691 6.944-2.312 10.637 2.839 7.606 7.194 14.378 12.941 20.125 5.22 5.22 11.336 9.294 17.994 12.096.475 3.329.924 6.617 1.328 9.832l-4.418-.669c-10.296-1.561-20.764 3.357-26.656 12.524l-191.377 297.825c-2.558 3.983-1.997 9.21 1.35 12.558 1.944 1.943 4.52 2.948 7.12 2.948 1.878 0 3.767-.524 5.438-1.597l297.826-191.378c9.167-5.891 14.084-16.354 12.524-26.656l-.769-5.081c3.115.346 6.235.724 9.362 1.14 2.799 6.847 6.956 13.135 12.344 18.523 5.749 5.75 12.521 10.104 20.127 12.942 1.146.428 2.336.635 3.517.635 2.623 0 5.197-1.027 7.119-2.949 2.787-2.787 3.691-6.944 2.312-10.636-4.956-13.277-1.69-28.323 8.317-38.332 10.008-10.006 25.052-13.272 38.333-8.316 3.692 1.38 7.848.474 10.636-2.312 2.786-2.787 3.691-6.943 2.313-10.636-2.838-7.605-7.192-14.376-12.941-20.127-10.046-10.045-23.391-15.893-37.578-16.466-3.72-.151-7.409.073-11.026.637 2.056-8.478 2.346-17.296.902-25.876 15.407-3.133 31.235-12.048 44.319-25.132 7.906-7.907 14.241-16.688 18.828-26.099 8.532-17.505 18.75-33.084 30.374-46.334 9.783-1.164 18.838-5.528 25.911-12.602 8.336-8.336 12.927-19.42 12.927-31.21zm-201.128 188.078-2.149-13.597 8.394 1.33zm-18.004-36.516 1.329 8.394-13.595-2.149zm11.316-5.763 14.558-7.418.001.001h.001l11.553 11.553v.001l.001.001-7.419 14.559h-.001l-.001.001-16.138-2.556v-.002h-.001l-2.555-16.138zm35.096 13.113 9.736 9.73-13.595-2.157zm-3.214-20.29-6.009-6.009 12.263-6.253zm-33.872-5.365-2.157-13.594 9.73 9.736zm-11.314 5.764-17.927 9.127c.882-9.886 5.092-19.529 12.643-27.079.689-.688 1.4-1.339 2.121-1.972zm5.302 33.476 3.145 19.898c-5.062-2.17-9.719-5.3-13.73-9.312-4.064-4.064-7.15-8.738-9.283-13.726zm33.476 5.302 19.923 3.162c-.633.722-1.283 1.433-1.971 2.121-.002.002-.003.004-.005.005-7.351 7.349-16.853 11.759-27.085 12.659zm29.665-15.93-14.277-14.269 9.192-18.028c5.865 9.811 7.556 21.434 5.085 32.297zm-42.719-53.624c7.8 0 15.601 2.069 22.504 6.196l-18.029 9.193-14.27-14.279c3.22-.733 6.507-1.11 9.795-1.11zm-58.488-14.657c.001-.001-.001.001 0 0 9.425-9.426 15.007-21.728 16.233-34.546 4.741 6.257 7.308 13.851 7.308 21.838 0 9.682-3.77 18.785-10.619 25.634-.739.741-1.522 1.459-2.323 2.134-12.95 10.898-31.88 11.12-45.127 1.171 12.812-1.228 25.107-6.809 34.528-16.231zm-47.39 71.824c1.534-2.387 4.367-3.86 6.709-3.504l8.881 1.345c.242.037.482.053.722.072 1.93 23.188 1.715 43.073-.637 60.191-.426 3.104.031 6.188 1.262 8.96l-167.956 167.955zm94.904 78.3 1.14 7.531c.357 2.354-1.116 5.175-3.503 6.709l-235.022 151.021 167.997-167.997c2.574 1.123 5.414 1.611 8.314 1.335 19.818-1.917 40.233-2.217 61.003-.926-.063.76-.048 1.539.071 2.327zm-62.237-13.423c-1.431.139-2.826-.371-3.814-1.401-.564-.586-1.47-1.851-1.213-3.728 3.312-24.109 2.609-53.207-2.132-88.663 2.268.372 4.565.621 6.888.715.77.031 1.537.047 2.303.047 3.084 0 6.14-.261 9.145-.753-5.256 21.09.337 44.354 16.793 60.81 12.084 12.084 28.151 18.74 45.241 18.74 5.177 0 10.257-.62 15.164-1.808-.439 2.853-.67 5.758-.67 8.7 0 2.951.233 5.865.675 8.726-30.184-3.667-59.867-4.143-88.38-1.385zm144.031-43.521c7.74 0 15.472 2.433 21.874 7.241-12.814 1.228-25.107 6.808-34.53 16.231v.001c-9.427 9.427-15.007 21.727-16.232 34.546-4.743-6.258-7.31-13.851-7.31-21.839 0-9.68 3.77-18.781 10.612-25.625.002-.002.004-.004.006-.006.001-.002-.001 0 0 0 .747-.747 1.53-1.465 2.326-2.136 6.692-5.633 14.978-8.413 23.254-8.413zm37.268-105.44c-3.556 7.296-8.732 14.449-14.967 20.684-10.937 10.938-24.465 18.32-36.607 20.071-2.907-5.486-6.661-10.636-11.274-15.249-4.385-4.385-9.261-7.982-14.443-10.825 1.827-12.067 9.145-25.42 20.023-36.298 6.235-6.236 13.389-11.411 20.685-14.968 14.741-7.184 28.27-15.499 40.384-24.799 2.055 4.063 4.766 7.876 8.156 11.266 3.9 3.899 8.405 6.967 13.298 9.141-9.484 12.267-17.953 25.995-25.255 40.977zm60.147-64.351c-4.535 4.535-10.564 7.032-16.977 7.032s-12.442-2.497-16.977-7.032c-9.361-9.361-9.361-24.593 0-33.954 4.535-4.535 10.564-7.032 16.977-7.032s12.443 2.497 16.977 7.032c4.535 4.535 7.032 10.564 7.032 16.977s-2.497 12.442-7.032 16.977z"/><path d="m387.543 131.346-7.06 7.059c-2.359 2.358-2.359 6.182-.001 8.54 1.179 1.179 2.724 1.769 4.271 1.769 1.545 0 3.091-.59 4.27-1.769l7.06-7.059c2.359-2.358 2.359-6.182.001-8.54-2.359-2.357-6.183-2.359-8.541 0z"/><path d="m400.375 101.157-7.06 7.06c-2.359 2.358-2.359 6.182 0 8.54 1.178 1.179 2.725 1.769 4.27 1.769s3.091-.59 4.27-1.769l7.06-7.06c2.359-2.358 2.359-6.182 0-8.54-2.358-2.358-6.183-2.358-8.54 0z"/></g><g fill="#fff"><path d="m168.511 318.424c-2.164 0-4.345-.695-6.183-2.129-4.383-3.419-5.164-9.744-1.745-14.126l9.144-11.721c3.418-4.384 9.745-5.164 14.126-1.745 4.383 3.419 5.164 9.744 1.746 14.126l-9.144 11.721c-1.985 2.543-4.95 3.874-7.944 3.874z"/><path d="m199.518 279.293c-2.164 0-4.343-.694-6.181-2.128-4.384-3.418-5.167-9.742-1.749-14.126l1.071-1.374c3.416-4.383 9.743-5.165 14.125-1.749 4.384 3.418 5.167 9.742 1.749 14.126l-1.071 1.374c-1.984 2.545-4.949 3.877-7.944 3.877z"/></g><g><path d="m45.124 183.725-8.267 23.247c-.354.995-1.055 1.784-1.939 2.182l-20.654 9.305c-2.918 1.315-2.918 5.964 0 7.279l20.654 9.305c.884.398 1.585 1.187 1.939 2.182l8.267 23.247c1.168 3.284 5.299 3.284 6.467 0l8.267-23.247c.354-.995 1.055-1.784 1.939-2.182l20.654-9.305c2.918-1.315 2.918-5.964 0-7.279l-20.654-9.305c-.884-.398-1.585-1.187-1.939-2.182l-8.267-23.247c-1.169-3.284-5.299-3.284-6.467 0z" fill="#98e8f2"/><path d="m385.884 355.089-6.133 17.244c-.263.738-.782 1.323-1.438 1.619l-15.321 6.902c-2.164.975-2.164 4.424 0 5.399l15.321 6.903c.656.295 1.176.881 1.438 1.619l6.133 17.244c.866 2.436 3.93 2.436 4.797 0l6.133-17.244c.263-.738.782-1.323 1.438-1.619l15.321-6.903c2.164-.975 2.164-4.424 0-5.399l-15.321-6.902c-.656-.296-1.176-.881-1.438-1.619l-6.133-17.244c-.866-2.436-3.93-2.436-4.797 0z" fill="#98e8f2"/><g fill="#75b7f2"><path d="m472.734 189.923c0 9.97 8.082 18.052 18.052 18.053 9.97 0 18.052-8.082 18.052-18.052s-8.082-18.052-18.052-18.053c-9.969 0-18.052 8.082-18.052 18.052z"/><circle cx="69.92" cy="113.103" r="7.548"/></g></g></g></svg>