<svg id="Capa_1" enable-background="new 0 0 512 512" height="512" viewBox="0 0 512 512" width="512" xmlns="http://www.w3.org/2000/svg"><g><g><path d="m399.823 373.76c0 110.413-54.566 96.593-143.978 96.593-82.738 0-138.025-.409-160.705-68.547-.785-6.974-1.188-14.555-1.188-22.796 0-110.413 72.482-297.501 161.894-297.501 70.304 0 143.977 181.838 143.977 292.251z" fill="#ffc5dd"/><path d="m255.846 81.509c-5.304 0-10.547.666-15.72 1.927 71.963 18.703 128.093 169.359 128.093 260.639 0 97.447-63.971 90.322-142.883 90.322-57.888 0-107.733 3.832-130.186-32.593 9.732 86.443 77.962 79.544 160.695 79.544 89.411 0 161.893 8.074 161.893-102.339.001-110.412-72.481-297.5-161.892-297.5z" fill="#ff94de"/><path d="m323.118 422.056-145.177-6.043-12.471-42.253v-17.547c0-45.329 33.372-82.865 76.888-89.376 13.488.539 26.901 4.6 26.901 4.6l38.247 29.702z" fill="#ffa785"/><path d="m255.846 265.836c-4.584 0-9.087.344-13.487 1.003 30.767 5.384 54.157 32.212 54.157 64.52v37.965c0 9.251-7.499 16.75-16.75 16.75h-97.546c-9.251 0-16.75-7.499-16.75-16.75v39.253c0 12.76 10.344 23.103 23.103 23.103h134.545c12.76 0 23.103-10.344 23.103-23.103v-52.365c0-49.913-40.462-90.376-90.375-90.376z" fill="#ff7d87"/><path d="m196.332 384.954v30.219c0 8.345 26.645 15.109 59.513 15.109s59.513-6.765 59.513-15.109v-30.219" fill="#ffb7a9"/><ellipse cx="255.846" cy="384.954" fill="#fff2a5" rx="59.513" ry="15.109"/><g fill="#ffa785"><ellipse cx="255.845" cy="205.437" rx="16.528" ry="24.08"/><path d="m196.83 206.945c-1.643 11.346-8.968 19.675-16.359 18.604s-12.051-11.136-10.408-22.481c1.643-11.346 8.968-19.675 16.359-18.605 7.392 1.071 12.052 11.136 10.408 22.482z"/><ellipse cx="328.244" cy="205.006" rx="13.523" ry="20.757" transform="matrix(.99 -.143 .143 .99 -25.999 49.174)"/></g><path d="m97.714 30.519c-10.705 0-18.857 7.812-20.563 17.174-.117 6.559 2.511 9.22 4.792 13.545 17.538 33.268 79.918 67.056 79.918 67.056l160.007.804 85.429-85.137-39.907-13.442z" fill="#ffc5dd"/><path d="m413.977 30.519h-46.587c6.443 4.804 9.243 13.879 5.045 21.842-14.609 27.712-42.657 49.469-77.291 63.401-15.317 6.161-44.576 5.32-69.52 5.32-25.034 0-54.167.663-69.746-5.404-34.698-13.513-62.488-35.664-77.065-63.316-.805-1.528-1.346-3.097-1.66-4.668-.779 4.276-.216 8.875 2.065 13.2 17.538 33.268 50.972 59.918 92.717 76.175 18.744 7.299 53.794 6.502 83.912 6.502 30.01 0 65.212 1.012 83.64-6.4 41.669-16.762 75.413-42.937 92.989-76.277 7.271-13.796-2.904-30.375-18.499-30.375z" fill="#ff94de"/><path d="m275.8 336.666c0 10.019-8.934 18.141-19.955 18.141s-19.955-8.122-19.955-18.141 15.055-34.122 19.955-34.122c4.9-.001 19.955 24.103 19.955 34.122z" fill="#ffe35c"/></g><g fill="#4e0325"><path d="m255.846 259.833c-53.144 0-96.38 43.236-96.38 96.379v52.366c0 16.049 13.057 29.106 29.107 29.106h134.546c16.05 0 29.106-13.057 29.106-29.106v-52.366c0-53.144-43.236-96.379-96.379-96.379zm-53.51 138.359c17.572 7.572 48.737 7.875 53.51 7.875s35.938-.303 53.51-7.875v16.428c-2.92 3.591-22.556 9.658-53.51 9.658s-50.59-6.067-53.51-9.658zm53.51-49.389c-7.693 0-13.951-5.445-13.951-12.137 0-6.324 9.068-21.992 13.951-27.085 4.883 5.092 13.951 20.761 13.951 27.085-.001 6.692-6.259 12.137-13.951 12.137zm0 39.079c3.315 0 6.004-2.688 6.004-6.004v-5.95c26.014.678 42.91 5.652 46.948 9.026-4.341 3.627-23.537 9.106-52.952 9.106-29.416 0-48.611-5.478-52.952-9.106 4.039-3.374 20.935-8.347 46.948-9.026v5.95c0 3.316 2.688 6.004 6.004 6.004zm84.372 20.695c0 9.428-7.671 17.099-17.099 17.099h-8.572c4.193-2.737 6.816-6.176 6.816-10.504v-30.218c0-17.499-42.761-20.506-59.513-21.012v-3.79c11.427-2.527 19.954-12.094 19.954-23.485 0-8.075-6.293-19.412-8.999-23.912-9.749-16.214-14.988-16.214-16.959-16.214-1.972 0-7.211 0-16.96 16.214-2.705 4.5-8.998 15.837-8.998 23.912 0 11.391 8.527 20.958 19.954 23.485v3.79c-16.753.506-59.513 3.513-59.513 21.012v30.218c0 4.329 2.623 7.768 6.816 10.504h-8.572c-9.429 0-17.1-7.671-17.1-17.099v-52.366c0-46.523 37.849-84.372 84.372-84.372s84.372 37.849 84.372 84.372v52.366z"/><path d="m255.846 235.521c12.635 0 22.531-13.214 22.531-30.083s-9.897-30.084-22.531-30.084-22.531 13.215-22.531 30.084c-.001 16.868 9.896 30.083 22.531 30.083zm0-48.16c4.978 0 10.524 7.424 10.524 18.076s-5.546 18.076-10.524 18.076-10.524-7.424-10.524-18.076 5.546-18.076 10.524-18.076z"/><path d="m179.611 231.491c.726.105 1.448.156 2.165.156 9.997 0 18.989-9.985 20.996-23.841 2.151-14.851-4.652-27.714-15.489-29.284-10.842-1.574-21.01 8.835-23.161 23.686s4.653 27.714 15.489 29.283zm-3.606-27.562c1.144-7.894 5.727-13.554 9.136-13.554.142 0 .282.01.42.03 3.442.499 6.518 7.457 5.327 15.679-1.191 8.224-6.116 14.031-9.557 13.524-3.44-.498-6.516-7.456-5.326-15.679z"/><path d="m324.407 178.522c-10.837 1.57-17.639 14.434-15.489 29.284 2.008 13.857 10.999 23.841 20.996 23.841.716 0 1.44-.051 2.165-.156 5.57-.807 10.374-4.746 13.18-10.807 2.449-5.289 3.268-11.851 2.309-18.477-2.151-14.851-12.329-25.259-23.161-23.685zm9.956 37.118c-1.069 2.308-2.529 3.754-4.005 3.968-3.431.508-8.364-5.3-9.556-13.524-1.192-8.223 1.885-15.18 5.326-15.679.138-.02.277-.03.42-.03 3.409 0 7.992 5.66 9.135 13.554.623 4.286.141 8.554-1.32 11.711z"/><path d="m441.326 65.56c5.04-9.56 4.705-20.812-.897-30.097-5.647-9.361-15.536-14.949-26.452-14.949h-316.263c-10.916 0-20.804 5.588-26.451 14.949-5.602 9.285-5.937 20.537-.897 30.097 16.653 31.588 47.044 58.236 86.305 75.945-41.934 63.266-72.724 162.737-72.724 237.505 0 38.939 8.782 66.598 26.847 84.557 28.613 28.444 74.654 28.17 127.971 27.855 11.227-.066 22.939-.066 34.164 0 5.516.033 10.949.065 16.298.065 46.352 0 86.021-2.419 111.673-27.92 18.066-17.959 26.847-45.617 26.847-84.557 0-74.821-30.82-174.343-72.791-237.608 40.088-18.391 69.813-44.436 86.37-75.842zm-54.536 383.814c-22.71 22.575-64.903 22.322-113.744 22.036-11.304-.068-23.095-.068-34.4 0-48.852.289-91.035.539-113.743-22.036-14.093-14.01-20.944-37.026-20.944-70.365 0-72.842 30.634-170.249 71.918-230.206 18.927 4.908 45.782 4.844 71.862 4.785 5.983-.014 11.776-.011 17.786.01 3.443.012 6.898.024 10.347.024 22.173 0 44.027-.514 59.977-4.768 41.27 59.963 71.884 157.32 71.884 230.154 0 33.34-6.851 56.357-20.943 70.366zm-49.87-321.968c-.613.178-1.213.417-1.794.718-14.853 5.653-43.876 5.556-69.532 5.464-3.291-.012-6.549-.023-9.749-.023-2.684 0-5.407.006-8.154.013-26.624.062-56.811.132-72.127-5.833-40.405-15.735-71.479-41.134-87.497-71.518-2.509-4.759-.605-8.877.33-10.427.957-1.586 3.78-5.275 9.316-5.275h316.263c5.536 0 8.359 3.689 9.316 5.275.935 1.55 2.839 5.668.33 10.427-15.516 29.435-46.282 54.675-86.702 71.179z"/><path d="m338.284 266.917v-9.264c0-3.316-2.688-6.004-6.004-6.004-3.315 0-6.004 2.688-6.004 6.004v9.264c0 3.315 2.688 6.004 6.004 6.004 3.316-.001 6.004-2.689 6.004-6.004z"/><path d="m361.369 293.598c3.315 0 6.004-2.688 6.004-6.004v-9.264c0-3.315-2.688-6.004-6.004-6.004s-6.004 2.688-6.004 6.004v9.264c.001 3.316 2.689 6.004 6.004 6.004z"/><path d="m129.547 371.948c-3.315 0-6.004 2.688-6.004 6.004v9.264c0 3.316 2.688 6.004 6.004 6.004s6.004-2.688 6.004-6.004v-9.264c-.001-3.316-2.689-6.004-6.004-6.004z"/></g><g fill="#fff"><path d="m246.197 76.218h-67.929c-5.526 0-10.006-4.48-10.006-10.006s4.48-10.006 10.006-10.006h67.929c5.526 0 10.006 4.48 10.006 10.006s-4.48 10.006-10.006 10.006z"/><path d="m138.108 76.218h-6.757c-5.526 0-10.006-4.48-10.006-10.006s4.48-10.006 10.006-10.006h6.757c5.526 0 10.006 4.48 10.006 10.006s-4.479 10.006-10.006 10.006z"/></g><g><path d="m472.715 167.287-8.219 23.112c-.352.989-1.049 1.774-1.928 2.17l-20.534 9.251c-2.901 1.307-2.901 5.929 0 7.236l20.534 9.251c.879.396 1.576 1.18 1.928 2.17l8.219 23.111c1.161 3.265 5.268 3.265 6.429 0l8.219-23.111c.352-.99 1.049-1.774 1.928-2.17l20.534-9.251c2.901-1.307 2.901-5.929 0-7.236l-20.534-9.251c-.879-.396-1.576-1.18-1.928-2.17l-8.219-23.112c-1.162-3.265-5.268-3.265-6.429 0z" fill="#ffc5dd"/><path d="m51.16 158.775-6.097 17.144c-.261.734-.778 1.316-1.43 1.61l-15.232 6.862c-2.152.97-2.152 4.398 0 5.368l15.232 6.863c.652.294 1.169.875 1.43 1.609l6.097 17.144c.861 2.422 3.907 2.422 4.769 0l6.097-17.144c.261-.734.778-1.316 1.43-1.609l15.232-6.863c2.152-.97 2.152-4.398 0-5.368l-15.232-6.862c-.652-.294-1.169-.876-1.43-1.61l-6.097-17.144c-.862-2.422-3.908-2.422-4.769 0z" fill="#ffc5dd"/><g fill="#ff8cc0"><path d="m0 92.834c0 9.912 8.035 17.947 17.947 17.948 9.912 0 17.947-8.035 17.947-17.947s-8.035-17.948-17.947-17.948c-9.912-.001-17.947 8.035-17.947 17.947z"/><ellipse cx="481.701" cy="87.068" rx="7.505" ry="7.504" transform="matrix(.383 -.924 .924 .383 216.921 498.783)"/></g></g></g></svg>