<svg id="Capa_1" enable-background="new 0 0 512 512" height="512" viewBox="0 0 512 512" width="512" xmlns="http://www.w3.org/2000/svg"><g><g><path d="m311.184 343.465 1.837 5.558 18.414 27.914 43.826-12.91-10.402-101.077-4.899 1.715c4.298-24.862-3.129-51.355-22.326-70.553-19.197-19.197-45.691-26.624-70.553-22.326l1.715-4.899-108.483-35.857c-19.872-6.954-41.62 3.518-48.574 23.39-6.954 19.872 3.518 41.619 23.39 48.574l53.152 17.568c3.207 1.06 4.172 5.127 1.784 7.515l-20.669 20.669c-.071.071-.141.141-.211.212-18.674 18.812-40.333 34.399-64.493 45.303l-55.83 25.197c-2.051.948-3.979 2.055-5.774 3.3l-5.119 34.723 45.2 20.289 77.383-33.629s9.191 17.382 10.089 19.587c3.796 4.728 4.591 11.274 1.908 16.824l-16.871 34.898 1.101 39.642 40.295 3.316 40.779-72.619 58.194-60.018 11.68 14.663c1.528.291 2.903 1.355 3.457 3.031z" fill="#ffddb6"/><g fill="#ffa7b8"><path d="m80.847 388.667 67.597-32.679c6.173-2.985 13.61-1.608 18.21 3.477.885.979 1.8 1.941 2.743 2.884l.08.08c.415.415.794.854 1.155 1.304l-1.34-12.024c-4.006-11.981-12.88-19.814-21.012-17.817-5.503 1.352-41.539 14.09-57.381 21.411-15.841 7.321-34.287-2.007-41.608-17.848-.153-.33-3.305-7.812-6.196-14.688-14.928 10.354-20.729 30.227-12.845 47.287 8.832 19.112 31.485 27.445 50.597 18.613z"/><path d="m400.716 371.433-35.856-108.483s1.458 41.621 1.868 61.228-2.9 28.233-19.372 33.997c-12.598 4.409-26.099.361-34.334-9.152l15.731 47.594c6.954 19.872 28.702 30.345 48.574 23.39 19.872-6.955 30.344-28.702 23.389-48.574z"/><path d="m235.181 426.141c11.343-23.465 27.266-44.309 46.201-62.218.545-.515 1.085-1.04 1.619-1.574l20.669-20.669c1.14-1.14 2.661-1.508 4.057-1.241-.224-.542-.437-1.092-.633-1.652l-9.748-29.492c-3.087-9.341-14.934-12.153-21.891-5.197l-6.285 6.285c-.573.573-1.153 1.133-1.742 1.68-15.699 14.571-28.573 31.913-37.895 51.197l-21.512 44.497c-7.321 15.842-26.098 22.749-41.94 15.428-4.098-1.894-7.592-4.559-10.402-7.737l-15.659 32.39c-8.832 19.112-.499 41.765 18.612 50.597 19.112 8.832 41.765.499 50.597-18.612z"/></g><path d="m423.903 231.35c-24.332 20.125-80.089 28.916-110.882-.526-41.448-39.628-49.471-87.099-20.204-136.519 2.534-2.534 8.285-10.243 11.003-12.46 37.938-30.943 92.642-31.044 130.69-.306 2.853 2.304 6.895 8.012 9.547 10.663 31.37 42.236 24.034 102.6-20.154 139.148z" fill="#ffddb6"/><path d="m442.773 88.973c-2.651-2.651-5.413-5.125-8.266-7.43 25.726 32.564 23.577 79.948-6.486 110.011-32.401 32.401-84.933 32.401-117.334 0-30.063-30.063-32.212-77.447-6.487-110.011-2.853 2.305-5.614 4.778-8.266 7.43-40.548 40.548-40.548 106.29 0 146.838s106.29 40.548 146.838 0c40.549-40.548 40.549-106.29.001-146.838z" fill="#ffa7b8"/><circle cx="280.509" cy="453.579" fill="#ff8cc0" r="17.058"/><ellipse cx="35.043" cy="280.014" fill="#ff8cc0" rx="17.058" ry="17.058" transform="matrix(.721 -.693 .693 .721 -184.339 102.511)"/><path d="m237.363 19.566c4.765-8.127 15.216-10.851 23.343-6.086s10.852 15.216 6.086 23.343c-4.765 8.127-15.216 10.851-23.343 6.086-8.127-4.766-10.852-15.217-6.086-23.343z" fill="#ff8cc0"/></g><g fill="#4e0325"><path d="m449.879 81.867c-21.509-21.509-50.107-33.355-80.525-33.355-26.304 0-51.242 8.864-71.417 25.169l-26.954-32.264c.351-.503.697-1.011 1.01-1.545 3.12-5.32 3.98-11.536 2.425-17.503-1.555-5.968-5.342-10.972-10.662-14.091-10.983-6.439-25.155-2.744-31.595 8.237-3.12 5.32-3.98 11.536-2.425 17.503 1.556 5.967 5.344 10.971 10.663 14.091 3.589 2.105 7.586 3.181 11.639 3.181 1.955 0 3.923-.25 5.864-.756 1.331-.347 2.604-.821 3.829-1.382l27.226 32.589c-.042.042-.085.082-.128.125-19.054 19.054-30.517 43.671-32.888 70.187l-92.399-30.541c-25.044-8.711-52.526 4.545-61.289 29.587-8.774 25.071 4.485 52.605 29.556 61.379.055.019.11.038.165.056l44.659 14.761-14.344 14.343-.237.239c-18.461 18.596-39.15 33.138-61.494 43.223l-33.717 15.216-11.17-9.971c.274-.549.542-1.102.775-1.677 2.312-5.717 2.259-11.992-.148-17.67-2.408-5.677-6.882-10.077-12.599-12.389-5.718-2.313-11.993-2.26-17.67.149-5.678 2.408-10.078 6.883-12.39 12.599-2.312 5.717-2.259 11.993.149 17.67 2.407 5.677 6.883 10.077 12.599 12.389 2.798 1.132 5.729 1.696 8.659 1.696 3.057 0 6.112-.615 9.011-1.845 1.266-.537 2.457-1.191 3.587-1.925l7.17 6.401-10.169 4.589c-11.679 5.398-20.558 15.021-25.001 27.096-4.442 12.076-3.916 25.159 1.483 36.839 5.398 11.68 15.021 20.559 27.097 25.001s25.16 3.915 36.838-1.482c.053-.025.105-.05.158-.075l67.597-32.679c2.182-1.055 4.806-.572 6.382 1.17.997 1.103 2.037 2.197 3.07 3.228l.106.107c1.749 1.745 2.2 4.412 1.126 6.636l-32.529 67.288c-.025.052-.05.105-.075.158-5.399 11.68-5.926 24.763-1.483 36.839 4.442 12.076 13.321 21.699 25.001 27.097 6.524 3.015 13.38 4.441 20.135 4.441 18.182-.001 35.617-10.341 43.762-27.878l25.916-53.608c3.006-6.218 6.391-12.298 10.122-18.238l11.204 23.74c-.465.397-.929.797-1.369 1.237-4.361 4.36-6.763 10.158-6.763 16.325s2.401 11.965 6.763 16.325c4.501 4.501 10.412 6.751 16.324 6.751 5.913 0 11.825-2.251 16.325-6.751 4.36-4.36 6.763-10.158 6.763-16.325s-2.401-11.965-6.763-16.325c-5.533-5.534-13.198-7.652-20.375-6.382l-14.243-30.181c7.573-10.351 16.276-20.203 26.074-29.47.609-.576 1.212-1.163 1.816-1.766l14.343-14.343 14.761 44.658c.019.055.037.11.057.165 4.249 12.145 12.975 21.908 24.568 27.491s24.664 6.317 36.81 2.066c25.042-8.763 38.299-36.243 29.588-61.291l-30.541-92.398c26.516-2.371 51.134-13.833 70.187-32.887 44.401-44.396 44.401-116.643 0-161.044zm-203.38-44.16c-2.542-1.49-4.35-3.88-5.093-6.731-.744-2.85-.332-5.82 1.158-8.36 2.051-3.498 5.743-5.448 9.532-5.448 1.893 0 3.812.488 5.56 1.513 2.542 1.49 4.349 3.88 5.093 6.731.743 2.85.332 5.819-1.159 8.361-1.49 2.541-3.88 4.349-6.73 5.093-2.853.742-5.82.331-8.361-1.159zm-215.59 252.531c-2.731-1.104-4.869-3.206-6.019-5.918s-1.175-5.709-.071-8.44 3.206-4.869 5.918-6.019c1.386-.587 2.844-.881 4.304-.881 1.399 0 2.8.27 4.137.811 2.73 1.104 4.868 3.206 6.018 5.918s1.175 5.709.071 8.44-3.205 4.868-5.918 6.018c-2.712 1.15-5.709 1.175-8.44.071zm257.399 155.544c2.082 2.083 3.23 4.852 3.23 7.798s-1.147 5.715-3.23 7.798c-4.301 4.301-11.297 4.299-15.597 0-2.082-2.083-3.23-4.852-3.23-7.798s1.147-5.715 3.23-7.798c2.15-2.15 4.975-3.225 7.798-3.225 2.824 0 5.649 1.075 7.799 3.225zm-144.239-98.841-67.515 32.639c-6.787 3.112-14.381 3.407-21.391.829-7.037-2.589-12.645-7.763-15.792-14.57-3.145-6.806-3.452-14.431-.864-21.468 2.589-7.038 7.763-12.645 14.487-15.753l18.227-8.226 12.926 11.538c1.149 1.027 2.584 1.531 4.013 1.531 1.658 0 3.309-.68 4.501-2.014 2.217-2.484 2.001-6.296-.484-8.514l-8.928-7.97 25.576-11.543c24.589-11.097 47.296-27.039 67.49-47.381l20.854-20.856c3.607-3.606 5.057-8.722 3.878-13.684-1.178-4.962-4.771-8.88-9.613-10.479l-53.062-17.539c-7.042-2.486-12.703-7.559-15.944-14.291-3.253-6.756-3.681-14.374-1.204-21.452s7.562-12.767 14.317-16.02c6.756-3.254 14.373-3.681 21.452-1.204.055.02.11.038.165.056l98.826 32.665c2.236 23.821 11.824 46.084 27.657 64.132l-13.278 13.278-5.338-7.361c-1.955-2.696-5.724-3.298-8.421-1.341-2.696 1.955-3.297 5.725-1.342 8.421l6.466 8.916-26.628 26.628-9.007-5.9c-2.788-1.824-6.523-1.046-8.349 1.74-1.824 2.786-1.045 6.523 1.74 8.348l6.904 4.523-23.903 23.903-6.839-6.839c-2.354-2.354-6.173-2.355-8.527 0-2.355 2.355-2.355 6.172-.001 8.527l6.84 6.84-22.86 22.86c-7.543-5.98-18.127-7.273-27.029-2.969zm166.176-16.244c-4.962-1.18-10.077.272-13.681 3.877l-20.662 20.663c-.472.471-.949.935-1.425 1.386-7.959 7.527-15.262 15.421-21.901 23.64l-7.291-15.448c-1.421-3.012-5.016-4.299-8.026-2.88-3.012 1.422-4.301 5.015-2.879 8.026l9.972 21.131c-6.999 9.826-13.09 20.067-18.219 30.676l-25.953 53.683c-.025.053-.05.105-.075.158-6.494 14.05-23.208 20.201-37.259 13.706-6.807-3.145-11.981-8.754-14.57-15.791-2.58-7.013-2.284-14.609.831-21.398l32.487-67.201c4.156-8.596 3.188-18.673-2.197-26.259l23.088-23.088 6.644 6.644c1.178 1.178 2.72 1.766 4.264 1.766 1.543 0 3.086-.589 4.263-1.766 2.355-2.355 2.355-6.172.001-8.527l-6.645-6.644 25.68-25.68 11.675 7.648c1.02.667 2.165.986 3.298.986 1.966 0 3.892-.959 5.05-2.726 1.824-2.786 1.045-6.523-1.74-8.348l-9.573-6.271 23.493-23.493 6.637 9.151c1.18 1.627 3.02 2.49 4.886 2.49 1.227 0 2.465-.373 3.535-1.149 2.696-1.955 3.297-5.725 1.342-8.421l-7.765-10.707 14.522-14.522c18.444 17.082 41.6 27.418 66.454 29.751l5.484 16.592-8.879 26.249-17.037-5.428c-3.168-1.009-6.564.74-7.575 3.914-1.011 3.173.742 6.565 3.915 7.576l16.833 5.363-17.158 50.724-13.366-40.438c-1.597-4.844-5.516-8.438-10.478-9.615zm80.987 44.055c5.112 14.61-2.614 30.656-17.224 35.769-7.079 2.476-14.696 2.049-21.452-1.204-4.951-2.384-9-6.08-11.787-10.668l6.111-18.066 17.368 5.534c.608.194 1.225.286 1.832.286 2.555 0 4.927-1.637 5.743-4.2 1.011-3.173-.742-6.565-3.915-7.576l-17.163-5.469 19.541-57.77 20.89 63.199c.018.055.036.11.056.165zm-21.878-118.58c-25.049 0-48.6-9.755-66.312-27.468-17.713-17.713-27.469-41.263-27.469-66.313 0-25.049 9.756-48.6 27.469-66.313 17.712-17.713 41.263-27.467 66.312-27.467 25.05 0 48.601 9.755 66.313 27.467 36.565 36.565 36.565 96.061 0 132.627-17.712 17.712-41.263 27.467-66.313 27.467z"/><path d="m322.252 132.447h14.024v14.023c0 3.33 2.7 6.03 6.03 6.03s6.03-2.7 6.03-6.03v-14.023h14.023c3.33 0 6.03-2.7 6.03-6.03s-2.7-6.03-6.03-6.03h-14.023v-14.023c0-3.33-2.7-6.03-6.03-6.03s-6.03 2.7-6.03 6.03v14.023h-14.024c-3.33 0-6.03 2.7-6.03 6.03.001 3.33 2.7 6.03 6.03 6.03z"/><path d="m425.381 183.411h-14.023v-14.023c0-3.33-2.7-6.03-6.03-6.03s-6.03 2.7-6.03 6.03v14.023h-14.023c-3.33 0-6.03 2.7-6.03 6.03s2.7 6.03 6.03 6.03h14.023v14.023c0 3.33 2.7 6.03 6.03 6.03s6.03-2.7 6.03-6.03v-14.024h14.023c3.33 0 6.03-2.7 6.03-6.03s-2.7-6.029-6.03-6.029z"/><path d="m309.168 157.118c-2.353-2.354-6.173-2.354-8.526 0-2.355 2.355-2.355 6.172 0 8.527l65.459 65.459c1.177 1.177 2.72 1.766 4.263 1.766s3.086-.589 4.263-1.766c2.355-2.355 2.355-6.172 0-8.527z"/></g><g fill="#fff"><path d="m154.124 176.304c-.654 0-1.307-.071-1.96-.201-.644-.131-1.277-.321-1.879-.573-.604-.251-1.186-.563-1.739-.924-.543-.362-1.055-.784-1.527-1.246-.462-.462-.884-.985-1.246-1.527-.362-.553-.673-1.135-.924-1.739-.251-.603-.443-1.236-.573-1.879-.131-.643-.2-1.306-.2-1.959 0-2.653 1.075-5.236 2.944-7.105.472-.462.984-.884 1.527-1.256.553-.362 1.135-.673 1.739-.924.602-.251 1.236-.442 1.879-.573 1.296-.262 2.633-.262 3.929 0 .643.131 1.276.321 1.878.573.604.251 1.186.563 1.739.924.543.372 1.055.794 1.517 1.256 1.879 1.869 2.945 4.452 2.945 7.105 0 .653-.061 1.316-.191 1.959s-.322 1.276-.573 1.879-.562 1.186-.924 1.739c-.372.543-.783 1.065-1.256 1.527-.462.462-.975.884-1.517 1.246-.553.362-1.135.673-1.739.924-.603.251-1.236.442-1.878.573-.655.13-1.309.201-1.971.201z"/><path d="m219.404 197.878c-1.046 0-2.109-.165-3.156-.511l-32.124-10.618c-5.269-1.741-8.13-7.426-6.388-12.695 1.743-5.271 7.429-8.132 12.696-6.388l32.124 10.618c5.269 1.742 8.13 7.426 6.388 12.695-1.396 4.224-5.323 6.899-9.54 6.899z"/></g><g><path d="m141.161 2.459-8.255 23.212c-.354.994-1.053 1.781-1.936 2.179l-20.623 9.291c-2.913 1.313-2.913 5.955 0 7.268l20.623 9.291c.883.398 1.583 1.185 1.936 2.179l8.255 23.212c1.166 3.279 5.291 3.279 6.457 0l8.255-23.212c.354-.994 1.053-1.781 1.936-2.179l20.623-9.291c2.913-1.313 2.913-5.955 0-7.268l-20.623-9.291c-.883-.398-1.583-1.185-1.936-2.179l-8.255-23.212c-1.167-3.279-5.291-3.279-6.457 0z" fill="#ffc8b7"/><path d="m470.789 293.669-6.123 17.218c-.262.737-.781 1.321-1.436 1.617l-15.298 6.892c-2.161.974-2.161 4.417 0 5.391l15.298 6.892c.655.295 1.174.879 1.436 1.617l6.123 17.218c.865 2.432 3.924 2.432 4.789 0l6.124-17.218c.262-.737.781-1.321 1.436-1.617l15.298-6.892c2.161-.974 2.161-4.417 0-5.391l-15.298-6.892c-.655-.295-1.174-.879-1.436-1.617l-6.124-17.218c-.864-2.433-3.923-2.433-4.789 0z" fill="#ffc8b7"/><g fill="#ffa785"><path d="m26.723 95.895c0 9.955 8.07 18.025 18.025 18.025s18.025-8.07 18.025-18.025-8.07-18.025-18.025-18.025-18.025 8.07-18.025 18.025z"/><path d="m426.869 455.669c0 4.163 3.374 7.537 7.537 7.537s7.537-3.374 7.537-7.537-3.374-7.537-7.537-7.537c-4.162 0-7.537 3.374-7.537 7.537z"/></g></g></g></svg>