<svg id="Capa_1" enable-background="new 0 0 512 512" height="512" viewBox="0 0 512 512" width="512" xmlns="http://www.w3.org/2000/svg"><g><g><path d="m301.142 472.704c-9.021-1.432-15.534-9.613-14.749-18.859.823-9.679 9.336-16.858 19.015-16.036l47.419 4.03c.425.036.848.087 1.268.154 19.309 3.066 37.512-10.149 40.577-29.459l15.874-99.979c5.785-36.436 40.134-61.372 76.569-55.587 9.594 1.523 16.136 10.535 14.613 20.129s-10.534 16.137-20.128 14.613c-17.279-2.743-33.569 9.082-36.312 26.361l-15.874 99.978c-6.072 38.241-41.945 64.484-80.159 58.789l-46.828-3.98c-.431-.034-.861-.086-1.285-.154z" fill="#75b7f2"/><path d="m204.706 225.193-.037-.468-102.335 24.664s-13.66 62.973-10.379 81.927c3.282 18.954 29.015 55.54 29.015 55.54l33.462 15.618 13.653 59.66h153.75l-1.187-163.545c-25.644-28.284-62.339-68.675-98.681-75.897-5.88.098-11.66.898-17.261 2.501z" fill="#75b7f2"/><path d="m343.2 305.243c-20.74-40.995-82.268-90.49-132.298-81.476 35.388 6.271 72.122 38.671 86.116 66.331 12.041 23.8 15.693 50.232 13.894 74.577-3.53 47.762-38.406 84.307-79.929 84.307h-29.267l.006.065-24.837-.376v-55.842l-29.857-31.539-26.057 25.566 15.768 61.207 2.22 8.614-1.42 1.075c-9.061 6.864-13.584 18.176-11.752 29.395 1.08 6.616 6.086 11.408 11.919 11.408l88.789 1.343-.007-.079h35.842c50.85 0 93.562-44.754 97.884-103.246 2.204-29.814-2.268-62.184-17.014-91.33z" fill="#8289f3"/><path d="m52.071 238.663h138.978l24.424-50.638-7.381-109.571-20.884-15.355c-6.886 8.824-13.906 18.52-21.02 28.826-12.492-5.679-26.063-8.959-40.254-8.959-14.712 0-28.759 3.523-41.627 9.593-13.274-19.27-26.225-36.432-38.594-49.798-3.157-4.459-10.171-2.386-10.396 3.074-7.042 37.458-9.525 62.603-5.507 89.768-7.816 13.438-13.039 27.908-14.952 42.087l6.862 29.533z" fill="#75b7f2"/><path d="m220.592 133.144c3.521-26.702.98-50.974-5.85-87.309-.225-5.459-7.239-7.533-10.396-3.074-5.6 6.051-11.321 12.888-17.135 20.339 1.924 12.392 3.02 23.179 3.141 33.542.165 14.058 2.956 27.913 7.805 41.11 3.538 9.63 5.466 19.482 5.466 28.969 0 44.539-72.722 64.181-94.789 64.181-20.491 0-84.655-16.943-93.711-55.028-.709 4.589-1.078 9.153-1.078 13.648 0 52.574 85.842 75.759 111.889 75.759s111.889-23.185 111.889-75.759c-.001-18.666-6.321-38.524-17.231-56.378z" fill="#8289f3"/><g fill="#ffe35c"><path d="m96.803 191.909s-24.074 4.535-36.125-7.516-7.516-36.125-7.516-36.125 24.074-4.535 36.125 7.516 7.516 36.125 7.516 36.125z"/><path d="m155.064 191.909s-4.535-24.074 7.516-36.126c12.051-12.051 36.125-7.516 36.125-7.516s4.535 24.074-7.517 36.125c-12.05 12.052-36.124 7.517-36.124 7.517z"/><path d="m417.039 135.043c-34.82 0-63.048-28.228-63.048-63.048 0-27.858 18.075-51.479 43.131-59.818-.992-.035-1.983-.075-2.984-.075-45.726 0-82.794 37.068-82.794 82.794s37.068 82.794 82.794 82.794 82.794-37.068 82.794-82.794c0-1.001-.04-1.992-.076-2.984-8.338 25.056-31.959 43.131-59.817 43.131z"/></g></g><g fill="#4e0325"><path d="m488.693 247.043c-20.275-3.219-40.609 1.666-57.26 13.754s-27.594 29.91-30.813 50.184l-15.874 99.979c-1.062 6.688-4.676 12.569-10.176 16.562-3.459 2.512-7.4 4.079-11.51 4.635 3.843-11.051 6.286-22.77 7.178-34.842 2.569-34.757-3.68-68.164-18.07-96.608-18.748-37.059-64.999-76.847-110.089-86.079 3.831-7.917 5.794-16.313 5.794-25.105 0-18.969-5.978-39.635-16.888-58.559 3.114-27.436.049-52.757-6.262-86.431-.612-6.452-4.941-11.733-11.231-13.592-6.317-1.866-12.855.239-16.873 5.373-10.194 11.063-21.381 25.264-34.065 43.253-11.963-4.418-24.244-6.652-36.619-6.652-12.882 0-25.646 2.414-38.051 7.189-12.837-18.24-24.148-32.617-34.443-43.79-4.017-5.134-10.557-7.242-16.873-5.373-6.291 1.86-10.619 7.14-11.232 13.592-6.517 34.772-9.593 60.877-5.946 89.084-10.083 18.353-15.396 37.613-15.396 55.905 0 26.625 17.888 49.648 51.73 66.583 10.462 5.235 21.78 9.455 32.536 12.597-5.948 32.122-8.04 53.749-6.207 64.329 3.277 18.93 24.153 50.136 29.636 58.083l15.951 61.917c-9.47 9.206-13.938 22.479-11.772 35.737 1.873 11.463 11.01 19.791 21.747 19.838l88.728 1.342c.049 0 .098.001.147.001.417 0 .83-.026 1.24-.079h34.601c23.713 0 46.493-8.73 65.225-24.788l20.546 1.747c3.871.561 7.718.833 11.526.833 38.942-.004 73.436-28.489 79.715-68.035l15.874-99.978c.906-5.705 3.99-10.724 8.683-14.131 4.694-3.408 10.42-4.787 16.127-3.879 15.043 2.381 29.239-7.912 31.629-22.964s-7.911-29.242-22.963-31.632zm-464.598-57.521c0-15.543 5.115-32.897 14.403-48.866 1.146-1.969 1.587-4.27 1.254-6.524-3.668-24.797-1.442-48.107 3.985-78.506 9.584 11.062 20.21 25.094 32.293 42.634 2.794 4.054 8.114 5.488 12.565 3.388 12.143-5.728 24.706-8.632 37.339-8.632 12.188 0 24.333 2.711 36.094 8.058 4.432 2.015 9.668.564 12.431-3.44 11.909-17.254 22.393-31.08 31.861-42.007 5.255 29.417 7.493 52.04 4.308 76.204-.3 2.279.189 4.592 1.388 6.554 10.161 16.627 15.756 34.788 15.756 51.137 0 9.373-3.467 17.676-9.142 24.955-1.367.964-2.478 2.26-3.223 3.776-23.495 25.31-73.671 36.977-89.473 36.977-20.886 0-101.839-20.375-101.839-65.708zm202.393 300.247c-.366 0-.731.021-1.091.061l-21.883-.331c.794-6.312 3.131-11.661 7.003-15.966 11.702-13.011 33.802-13.34 34.012-13.341 2.858-.012 5.3-2.036 5.868-4.838.569-2.802-.924-5.624-3.551-6.749-1.228-.526-30.029-13.365-26.695-55.986 3.065-39.177 33.632-56.594 42.927-60.999l.264-.126c3-1.445 4.262-5.049 2.816-8.05-1.445-3-5.05-4.261-8.049-2.816l-.196.093c-10.776 5.107-46.215 25.317-49.785 70.958-2.426 31.01 9.794 49.088 20.276 58.721-8.671 2.195-19.129 6.512-26.801 15.009-5.906 6.541-9.314 14.556-10.213 23.907l-20.42-.309-1.257-3.086c-1.23-8.962 2.414-18.073 9.396-23.361l3.807-2.886v-69.246l-31.508-33.283c-2.291-2.419-6.107-2.522-8.525-.234-2.418 2.29-2.523 6.107-.234 8.525l28.206 29.795v58.478c-10.024 8.175-15.091 21.688-12.95 34.795l.05.307-20.097-.304c-.051 0-.101-.001-.152-.001-.528 0-1.68-1.023-1.999-2.977-1.235-7.563 1.792-15.136 7.901-19.763l1.42-1.076c3.23-2.447 4.675-6.595 3.664-10.519l-17.988-69.821c-.302-1.174-.815-2.283-1.512-3.275-9.448-13.432-25.222-39.284-27.332-51.474-1.337-7.716.887-28.414 5.979-56.215 7.049 1.287 13.278 1.946 18.096 1.946 15.409 0 45.253-6.739 70.21-19.227 13.546-6.779 24.528-14.535 32.838-23.105 18.402 1.561 39.293 10.421 59.416 25.314 19.816 14.667 36.95 33.907 45.834 51.466 16.096 31.816 17.563 64.357 15.959 86.053-3.893 52.674-42.486 93.936-87.861 93.936zm265.315-214.246c-.652 4.106-4.521 6.915-8.626 6.263-11.011-1.746-22.05.904-31.087 7.465-9.039 6.562-14.98 16.238-16.727 27.246l-15.874 99.978c-5.188 32.679-36.023 55.297-68.751 50.425-.209-.031-.419-.056-.63-.074l-5.118-.435c3.37-4.511 6.434-9.275 9.178-14.25 11.437 1.397 22.817-1.532 32.211-8.352 9.846-7.148 16.316-17.687 18.219-29.677l15.874-99.979c4.917-30.961 34.104-52.151 65.067-47.236 4.106.651 6.916 4.521 6.264 8.626z"/><path d="m52.046 142.34-4.048.763-.763 4.047c-.209 1.111-4.963 27.366 9.178 41.506 8.351 8.35 20.923 10.112 30.049 10.112 6.329 0 11.002-.848 11.456-.933l4.048-.763.763-4.047c.209-1.111 4.963-27.365-9.178-41.506-14.143-14.141-40.396-9.388-41.505-9.179zm39.37 44.182c-7.549.619-19.972.108-26.474-6.394-6.504-6.503-7.012-18.932-6.395-26.474 7.547-.62 19.973-.107 26.475 6.394s7.013 18.925 6.394 26.474z"/><path d="m149.901 197.072 4.048.763c.454.085 5.125.934 11.456.934 9.126 0 21.699-1.763 30.048-10.112 14.142-14.14 9.388-40.395 9.179-41.506l-.763-4.047-4.048-.763c-1.111-.209-27.365-4.964-41.504 9.179-14.142 14.141-9.388 40.395-9.179 41.506zm16.945-37.025c6.503-6.504 18.934-7.014 26.473-6.395.618 7.549.109 19.973-6.395 26.475-6.502 6.502-18.928 7.013-26.473 6.394-.618-7.548-.108-19.972 6.395-26.474z"/><path d="m138.202 213.756c0-3.33-2.7-6.03-6.03-6.03h-12.476c-3.33 0-6.031 2.7-6.031 6.03s2.7 6.03 6.031 6.03h12.476c3.33 0 6.03-2.7 6.03-6.03z"/><path d="m394.139 187.74c51.195 0 92.845-41.65 92.845-92.845 0-1.014-.034-2.019-.071-3.024l-.012-.319c-.173-4.859-3.799-8.898-8.613-9.59-4.814-.695-9.431 2.159-10.967 6.774-7.218 21.685-27.424 36.255-50.282 36.255-29.223 0-52.997-23.774-52.997-52.997 0-22.858 14.57-43.065 36.254-50.282 4.614-1.536 7.467-6.156 6.773-10.969-.693-4.814-4.734-8.441-9.594-8.611l-.342-.012c-.995-.036-1.991-.069-2.995-.069-51.195 0-92.844 41.65-92.844 92.845s41.65 92.844 92.845 92.844zm-39.457-153.932c-6.87 11.221-10.741 24.353-10.741 38.187 0 40.306 32.791 73.098 73.098 73.098 13.835 0 26.966-3.87 38.189-10.742-12.974 20.018-35.511 33.288-61.089 33.288-40.111 0-72.743-32.632-72.743-72.743 0-25.579 13.268-48.115 33.286-61.088z"/><path d="m311.33 344.817c-3.33 0-6.03 2.7-6.03 6.03v9.971c0 3.33 2.7 6.03 6.03 6.03s6.03-2.7 6.03-6.03v-9.971c.001-3.33-2.699-6.03-6.03-6.03z"/><path d="m258.557 380.222c-3.33 0-6.03 2.7-6.03 6.03v9.97c0 3.33 2.7 6.03 6.03 6.03s6.031-2.7 6.031-6.03v-9.97c0-3.33-2.7-6.03-6.031-6.03z"/><path d="m292.987 399.274c-3.33 0-6.03 2.7-6.03 6.031v9.971c0 3.33 2.7 6.03 6.03 6.03s6.03-2.7 6.03-6.03v-9.971c0-3.331-2.7-6.031-6.03-6.031z"/></g><g fill="#fff"><path d="m92.668 133.215c-4.059 0-7.881-2.475-9.402-6.496-1.965-5.192.651-10.993 5.842-12.958l.272-.105c-4.26 1.718-7.54 7.079-5.41 12.744-.964-2.565-.839-5.416.345-7.886 1.86-3.876 5.226-4.979 6.663-5.45 5.271-1.728 10.952 1.147 12.68 6.422s-1.146 10.952-6.422 12.681l-.254.083c-.244.108-.498.212-.759.311-1.17.443-2.374.653-3.555.654zm8.962-4.624c-.993 1.403-2.458 2.667-4.527 3.605 1.793-.702 3.397-1.988 4.527-3.605z"/><path d="m149.234 129.668c-.801 0-1.615-.097-2.427-.298-6.666-1.654-13.458-2.492-20.187-2.492-5.55 0-10.051-4.5-10.051-10.051s4.5-10.051 10.051-10.051c8.359 0 16.778 1.037 25.026 3.083 5.388 1.337 8.672 6.788 7.336 12.175-1.135 4.575-5.238 7.634-9.748 7.634z"/></g><g><path d="m33.003 353.478-8.256 23.215c-.353.994-1.053 1.782-1.936 2.18l-20.625 9.292c-2.914 1.313-2.914 5.956 0 7.268l20.625 9.293c.883.398 1.583 1.186 1.936 2.18l8.256 23.215c1.166 3.28 5.291 3.28 6.458 0l8.256-23.215c.354-.994 1.053-1.782 1.936-2.18l20.625-9.293c2.914-1.313 2.914-5.956 0-7.268l-20.625-9.292c-.883-.398-1.583-1.186-1.936-2.18l-8.256-23.215c-1.166-3.28-5.291-3.28-6.458 0z" fill="#fff2a5"/><path d="m452.194 7.808-6.124 17.22c-.262.737-.781 1.322-1.436 1.617l-15.3 6.893c-2.161.974-2.161 4.418 0 5.392l15.3 6.893c.655.295 1.174.879 1.436 1.617l6.124 17.22c.865 2.433 3.925 2.433 4.79 0l6.124-17.22c.262-.737.781-1.321 1.436-1.617l15.3-6.893c2.161-.974 2.161-4.418 0-5.392l-15.3-6.893c-.655-.295-1.174-.879-1.436-1.617l-6.124-17.22c-.865-2.433-3.924-2.433-4.79 0z" fill="#fff2a5"/><g fill="#ffe35c"><circle cx="268.264" cy="40.334" r="7.538"/><ellipse cx="378.773" cy="238.108" rx="18.028" ry="18.028" transform="matrix(.383 -.924 .924 .383 13.839 496.928)"/></g></g></g></svg>