<svg id="Capa_1" enable-background="new 0 0 512 512" height="512" viewBox="0 0 512 512" width="512" xmlns="http://www.w3.org/2000/svg"><g><g><path d="m460.086 219.689-3.299-122.12-18.934-68.406s-46.005-17.155-52.806-15.47c-36.412 9.018-75.017 40.354-75.017 74.523l21.501 36.177c0 23.452-10.804 45.596-29.288 60.029l-107.89 84.246c-27.237 21.268-34.274 53.253-26.306 80.857 8.708 30.168 78.636 36.021 78.636 36.021l65.047 2.138 125.513-85.202z" fill="#ad84e6"/><path d="m478.383 220.071v-135.543c0-40.552-32.874-73.426-73.426-73.426-6.379 0-13.099.905-19.896 2.587-.005.001-.008.003-.013.005 26.247 7.737 45.411 32.001 45.411 60.755v116.937l.052 14.52c.286 79.834-64.353 144.705-144.188 144.705h-107.57c-3.74 0-7.307-.383-10.694-1.09 8.708 30.168 35.323 55.107 73.089 55.107h70.167c92.537 0 167.46-75.192 167.129-167.728z" fill="#a862e6"/><path d="m103.931 340.194c-6.524 5.11-8.452 13.823-3.342 20.348l.781.718c19.351 24.707 55.068 29.049 79.776 9.698l-2.331 1.826-42.541 33.319-15.399 12.06 3.834 33.375 41.583 5.823 195.704-151.476 9.016-79.705-74.202-26.375-33.384 16.495z" fill="#d3b5f2"/><path d="m382.234 215.071c-24.661-31.486-70.217-36.929-101.601-12.138l-21.921 17.028c22.897-15.667 54.349-11.077 71.714 11.094 18.076 23.079 14.02 56.442-9.059 74.518l-147.384 113.902c-16.01 12.539-38.303 11.539-53.107-1.312l-28.665 22.451c-6.524 5.11-7.671 14.542-2.561 21.066 19.352 24.707 55.068 29.049 79.775 9.698l200.486-154.941c31.395-24.589 36.912-69.972 12.323-101.366z" fill="#d088f3"/><path d="m344.843 60.118c-10.709-2.275-22.296-3.525-34.399-3.525-54.343 0-98.397 25.071-98.397 55.998h132.796s16.8-12.482 16.8-27.999c0-15.518-16.8-24.474-16.8-24.474z" fill="#d3b5f2"/></g><g fill="#4e0325"><path d="m488.571 236.864-.06-16.793v-135.543c0-46.072-37.482-83.554-83.554-83.554-31.431 0-68.902 19.135-89.371 45.567-1.709-.048-3.422-.076-5.141-.076-60.855 0-108.525 29.046-108.525 66.126 0 5.593 4.534 10.128 10.128 10.128h106.707l2.596 4.368c-.774 19.438-9.912 37.307-25.34 49.353-.113.088-.224.179-.333.272l-22.903 19.503-175.057 135.981c-.01.008-.021.017-.031.025-5.177 4.054-8.641 9.669-9.755 15.81-1.213 6.69.451 13.351 4.684 18.756.339.433.713.838 1.118 1.211l.197.181c10.813 13.455 26.091 22.082 43.197 24.391l-51.162 40.072c-10.91 8.545-12.834 24.374-4.289 35.283 13.195 16.847 32.905 25.651 52.798 25.651 14.426-.001 28.948-4.632 41.143-14.184l83.651-64.647c.089.002.176.013.266.013h14.088l35.163 90.773c1.51 3.899 5.262 6.469 9.444 6.469h51.412c.094 0 .185-.011.278-.014.122.004.244.014.367.014h51.413c5.594 0 10.128-4.535 10.128-10.128s-4.534-10.128-10.128-10.128h-44.474l-31.136-80.377c34.198-6.764 65.622-23.496 90.788-48.753 33.505-33.624 51.863-78.283 51.693-125.75zm-242.695-155.068c17.083-9.722 40.013-15.076 64.568-15.076 10.514 0 20.811.996 30.634 2.961 2.841 1.869 10.437 7.558 10.437 14.91 0 6.833-6.269 14.083-10.361 17.871h-116.657c3.475-7.517 10.773-14.63 21.379-20.666zm-82.696 381.608c-20.271 15.877-49.681 12.302-65.557-7.97-1.658-2.118-1.284-5.19.833-6.847l88.897-69.627c.013-.011.025-.02.038-.03.226-.177.437-.367.644-.559l58.831-44.153c4.474-3.358 5.378-9.706 2.021-14.18-3.357-4.471-9.706-5.378-14.179-2.021l-62.556 46.948c-9.306 6.277-20.425 8.981-31.68 7.609-12.382-1.504-23.437-7.742-31.129-17.561-.338-.431-.71-.835-1.113-1.206-.394-.68-.51-1.38-.368-2.165.223-1.228 1.059-2.489 2.297-3.464l176.752-137.3c13.049-10.308 29.327-14.903 45.842-12.926 16.513 1.972 31.254 10.269 41.508 23.361 10.224 13.054 14.753 29.308 12.752 45.768-2.001 16.461-10.292 31.156-23.294 41.34zm192.324 28.34h-30.335l-29.823-76.987h15.969c4.748 0 9.467-.194 14.149-.561zm-44.189-97.242h-25.852l90.695-70.091c17.314-13.561 28.31-33.052 30.964-54.882 2.654-21.831-3.353-43.389-16.914-60.703-13.6-17.365-33.151-28.368-55.051-30.985-3.873-.462-7.734-.638-11.564-.562 11.641-14.947 18.067-33.392 18.067-52.885 0-.565-.063-1.123-.156-1.675h3.341c2.176 0 4.293-.7 6.04-1.998 2.138-1.588 20.887-16.098 20.887-36.129 0-21.35-21.258-32.928-22.163-33.411-.837-.446-1.732-.772-2.66-.969-2.065-.439-4.154-.825-6.253-1.188 17.52-16.39 43.067-27.793 64.263-27.793 34.903 0 63.298 28.395 63.298 63.298v135.579l.06 16.83c.15 42.042-16.11 81.599-45.785 111.381-29.678 29.781-69.175 46.183-111.217 46.183z"/><ellipse cx="413.563" cy="90.804" rx="13.174" ry="13.174" transform="matrix(.16 -.987 .987 .16 257.686 484.482)"/><path d="m440.188 199.366c-3.356 0-6.077 2.721-6.077 6.077v10.047c0 3.356 2.721 6.077 6.077 6.077s6.077-2.721 6.077-6.077v-10.047c0-3.356-2.721-6.077-6.077-6.077z"/><path d="m413.563 169.888c-3.356 0-6.077 2.721-6.077 6.077v10.048c0 3.356 2.721 6.077 6.077 6.077s6.077-2.721 6.077-6.077v-10.048c0-3.356-2.721-6.077-6.077-6.077z"/><path d="m305.02 310.604-8.036 6.031c-2.684 2.015-3.227 5.823-1.212 8.508 1.194 1.591 3.018 2.429 4.865 2.429 1.269 0 2.55-.396 3.643-1.216l8.036-6.031c2.684-2.015 3.227-5.823 1.213-8.508-2.017-2.686-5.826-3.228-8.509-1.213z"/><path d="m335.665 265.874-8.036 6.03c-2.684 2.014-3.228 5.823-1.214 8.508 1.194 1.59 3.018 2.429 4.865 2.429 1.269 0 2.55-.396 3.643-1.216l8.036-6.03c2.684-2.014 3.228-5.823 1.214-8.508-2.015-2.683-5.825-3.228-8.508-1.213z"/><path d="m434.026 255.877c-3.356 0-6.077 2.721-6.077 6.077v10.047c0 3.356 2.721 6.077 6.077 6.077s6.077-2.721 6.077-6.077v-10.047c-.001-3.356-2.721-6.077-6.077-6.077z"/></g><g fill="#fff"><path d="m268.097 266.615c-3.021 0-6.009-1.345-8.005-3.915-3.431-4.418-2.632-10.781 1.786-14.212l9.948-7.727c4.418-3.431 10.78-2.631 14.211 1.785 3.431 4.418 2.632 10.781-1.786 14.212l-9.948 7.727c-1.847 1.436-4.035 2.13-6.206 2.13z"/><path d="m192.508 325.332c-3.02 0-6.008-1.345-8.005-3.915-3.431-4.417-2.632-10.781 1.785-14.212l42.795-33.243c4.419-3.432 10.78-2.631 14.212 1.785 3.431 4.417 2.632 10.781-1.785 14.212l-42.795 33.243c-1.848 1.435-4.035 2.13-6.207 2.13z"/></g><g><path d="m56.684 142.373-8.319 23.393c-.356 1.002-1.061 1.795-1.951 2.196l-20.784 9.364c-2.936 1.323-2.936 6.001 0 7.324l20.784 9.364c.89.401 1.595 1.195 1.951 2.196l8.319 23.393c1.175 3.305 5.332 3.305 6.507 0l8.319-23.393c.356-1.001 1.061-1.795 1.951-2.196l20.784-9.364c2.936-1.323 2.936-6.001 0-7.324l-20.784-9.364c-.89-.401-1.595-1.195-1.951-2.196l-8.319-23.393c-1.175-3.304-5.331-3.304-6.507 0z" fill="#d3b5f2"/><path d="m136.797 1.839-6.171 17.352c-.264.743-.787 1.332-1.447 1.629l-15.417 6.946c-2.178.982-2.178 4.452 0 5.433l15.417 6.946c.66.297 1.183.886 1.447 1.629l6.171 17.352c.872 2.451 3.955 2.451 4.827 0l6.171-17.352c.264-.743.787-1.332 1.447-1.629l15.417-6.946c2.178-.981 2.178-4.451 0-5.433l-15.417-6.946c-.66-.297-1.183-.886-1.447-1.629l-6.171-17.352c-.872-2.452-3.955-2.452-4.827 0z" fill="#d3b5f2"/><g fill="#ad84e6"><path d="m148.127 175.965c0 10.033 8.133 18.166 18.166 18.166s18.166-8.133 18.166-18.166-8.133-18.166-18.166-18.166-18.166 8.133-18.166 18.166z"/><ellipse cx="59.938" cy="60.965" rx="7.596" ry="7.596" transform="matrix(.987 -.16 .16 .987 -8.992 10.388)"/></g></g></g></svg>