<svg id="Capa_1" enable-background="new 0 0 512 512" height="512" viewBox="0 0 512 512" width="512" xmlns="http://www.w3.org/2000/svg"><g><g><path d="m179.217 472.3 158.795 5.452 39.993-80.925-87.91-196.849-1.034-90.74h-71.57v89.758l-82.08 184.418z" fill="#98e8f2"/><path d="m390.879 397.516-89.495-197.99v-90.287h-38.174v70.934c0 2.938.591 5.846 1.737 8.551l68.301 161.213c3.62 8.829 2.432 19.063-3.098 26.683l-36.695 50.563c-4.519 6.227-11.495 9.859-18.876 9.828l-84.804-.349c-6.818-.028-13.296-3.18-17.786-8.654l-36.578-44.593-7.04 15.819c-4.812 11.169-2.777 24.109 5.232 33.26l51.22 58.527c5.737 6.556 14.015 10.331 22.727 10.364l108.363.419c9.432.037 18.346-4.314 24.12-11.772l46.888-60.558c7.066-9.127 8.584-21.384 3.958-31.958z" fill="#a6aff4"/><path d="m194.692 331.971-28.721 59.423c-4.868 11.188-2.847 24.18 5.188 33.362l8.058 9.208 23.34 17.976 95.23 7.573 48.662-67.618-11.943-39.199-10.224-20.725z" fill="#00ebc4"/><path d="m333.564 350.785c3.21 8.631 1.94 18.456-3.414 25.833l-36.695 50.563c-4.519 6.227-11.495 9.859-18.876 9.828l-84.804-.349c-3.709-.015-7.315-.962-10.558-2.697l20.6 23.539c5.738 6.556 14.015 10.331 22.727 10.365l76.659.296c9.432.036 18.346-4.314 24.12-11.772l26.025-33.612c7.102-9.172 8.597-21.501 3.894-32.104z" fill="#45b1c6"/><ellipse cx="259.487" cy="331.971" fill="#a2f4e3" rx="64.795" ry="17.496"/><path d="m274.338 13.62-9.416-3.422h-24.306c-10.723 0-19.532 7.214-22.066 16.731 0 0-.04 5.322.378 8.333l5.782 41.719 49.628 2.097z" fill="#ffa785"/><path d="m278.261 10.198h-13.339c3.417 2.96 5.368 7.48 4.713 12.324l-4.582 28.746c-.94 6.945-6.97 12.133-14.101 12.133h-14.205c-7.113 0-13.133-5.161-14.094-12.085l-4.098-24.386c-.731 2.746-.944 5.681-.525 8.692l7.537 54.249c1.542 11.096 11.189 19.367 22.587 19.367h22.765c11.429 0 21.092-8.314 22.598-19.444l7.343-54.249c1.816-13.423-8.815-25.347-22.599-25.347z" fill="#ff7d87"/><path d="m306.034 135.873h-93.617c-4.997 0-9.048-4.051-9.048-9.048v-36.424c0-4.997 4.051-9.048 9.048-9.048h93.617c4.997 0 9.048 4.051 9.048 9.048v36.424c-.001 4.997-4.051 9.048-9.048 9.048z" fill="#98e8f2"/></g><g fill="#4e0325"><path d="m400.222 393.429c-.016-.038-.033-.076-.05-.114l-88.589-195.988v-52.081c7.914-2.389 13.696-9.739 13.696-18.422v-36.423c0-10.513-8.476-19.071-18.952-19.23l4.637-34.257c1.249-9.231-1.566-18.567-7.725-25.615-6.273-7.181-15.378-11.299-24.978-11.299h-37.645c-9.623 0-18.742 4.134-25.017 11.342-6.16 7.075-8.956 16.437-7.671 25.684.011.074.021.148.033.222l5.478 33.908h-1.022c-10.612 0-19.245 8.633-19.245 19.245v36.424c0 8.836 5.993 16.28 14.122 18.531v51.473l-88.24 198.256c-.017.037-.033.075-.049.112-6.332 14.695-3.615 31.97 6.923 44.012l51.22 58.525c7.661 8.755 18.727 13.802 30.361 13.847l108.363.419h.155c12.459 0 24.438-5.871 32.068-15.725l46.889-60.558c9.355-12.084 11.363-28.288 5.238-42.288zm-186.655-267.754v-34.124h91.317v34.124zm14.549-91.551c-.448-3.42.567-6.751 2.865-9.39 2.401-2.757 5.912-4.339 9.635-4.339h37.645c3.714 0 7.22 1.575 9.62 4.322 2.318 2.654 3.339 6.014 2.872 9.46l-5.005 36.979h-51.649zm150.742 389.107-46.889 60.558c-3.793 4.899-9.746 7.816-15.941 7.816-.025 0-.052 0-.077 0l-108.363-.418c-5.783-.023-11.285-2.531-15.093-6.883l-51.22-58.526c-5.378-6.144-6.773-14.953-3.563-22.457l89.095-200.177c.581-1.306.881-2.718.881-4.147v-52.927h63.499v53.455c0 1.449.309 2.88.905 4.2l89.466 197.928c3.106 7.149 2.073 15.412-2.7 21.578z"/><path d="m358.73 387.969-28.455-57.679c-2.601-17.261-45.259-21.933-70.788-21.933-25.541 0-68.228 4.677-70.791 21.959l-28.234 58.417c-.036.074-.07.147-.102.222-5.782 13.29-3.351 28.926 6.194 39.832l28.658 32.746c6.891 7.875 16.845 12.414 27.308 12.454l76.659.296h.139c11.206 0 21.979-5.28 28.843-14.144l26.025-33.612c8.491-10.965 10.272-25.653 4.65-38.33-.034-.078-.069-.154-.106-.228zm-99.243-67.376c36.723 0 55.819 7.729 58.512 11.378-2.692 3.649-21.788 11.379-58.512 11.379s-55.82-7.73-58.512-11.379c2.693-3.649 21.789-11.378 58.512-11.378zm85.024 98.441-26.025 33.611c-4.561 5.89-11.719 9.399-19.167 9.399-.03 0-.062 0-.093 0l-76.66-.296c-6.952-.026-13.566-3.042-18.145-8.276l-28.658-32.746c-6.419-7.336-8.072-17.837-4.227-26.786l24.38-50.44c13.755 9.282 43.801 12.086 63.572 12.086 19.803 0 49.914-2.813 63.638-12.132l24.573 49.81c3.737 8.535 2.519 18.398-3.188 25.77z"/><path d="m215.473 361.425c-11.584 0-21.008 9.424-21.008 21.008s9.424 21.009 21.008 21.009 21.008-9.425 21.008-21.009-9.424-21.008-21.008-21.008zm0 29.779c-4.836 0-8.771-3.935-8.771-8.772 0-4.836 3.935-8.771 8.771-8.771s8.771 3.935 8.771 8.771c0 4.837-3.935 8.772-8.771 8.772z"/><path d="m267.584 398.914c-11.584 0-21.008 9.425-21.008 21.008 0 11.584 9.424 21.009 21.008 21.009s21.008-9.425 21.008-21.009c0-11.583-9.424-21.008-21.008-21.008zm0 29.78c-4.836 0-8.771-3.935-8.771-8.772s3.935-8.771 8.771-8.771 8.771 3.935 8.771 8.771c0 4.837-3.934 8.772-8.771 8.772z"/><path d="m298.098 365.921c-3.379 0-6.118 2.74-6.118 6.118v10.116c0 3.379 2.74 6.118 6.118 6.118 3.379 0 6.119-2.74 6.119-6.118v-10.115c-.001-3.379-2.74-6.119-6.119-6.119z"/><path d="m317.072 391.971c-3.379 0-6.118 2.74-6.118 6.118v10.117c0 3.379 2.74 6.118 6.118 6.118 3.379 0 6.118-2.74 6.118-6.118v-10.117c0-3.379-2.739-6.118-6.118-6.118z"/><path d="m221.397 419.324c-3.379 0-6.118 2.74-6.118 6.118v10.116c0 3.379 2.74 6.118 6.118 6.118s6.118-2.74 6.118-6.118v-10.116c.001-3.378-2.739-6.118-6.118-6.118z"/></g><g fill="#fff"><path d="m223.109 289.397c-1.386 0-2.793-.285-4.141-.884-5.145-2.289-7.46-8.317-5.169-13.463l8.449-18.983c2.289-5.145 8.315-7.458 13.463-5.17 5.145 2.29 7.46 8.317 5.17 13.463l-8.449 18.983c-1.691 3.797-5.418 6.054-9.323 6.054z"/><path d="m246.445 236.976c-.663 0-1.336-.062-1.999-.194-.642-.132-1.285-.326-1.907-.581-.611-.255-1.203-.572-1.754-.939-.561-.377-1.081-.806-1.55-1.275s-.897-.989-1.275-1.55c-.367-.551-.683-1.142-.938-1.754-.255-.622-.449-1.265-.581-1.907-.133-.663-.194-1.337-.194-1.999 0-.663.061-1.337.194-1.989s.327-1.296.581-1.907c.255-.622.571-1.213.938-1.764.378-.562.806-1.081 1.275-1.551.469-.469.989-.897 1.55-1.265.551-.367 1.142-.683 1.754-.938.622-.255 1.265-.448 1.907-.581 1.316-.266 2.672-.266 3.987 0 .652.132 1.295.326 1.907.581.622.255 1.213.572 1.764.938.561.367 1.081.796 1.55 1.265s.897.989 1.264 1.551c.367.551.683 1.141.938 1.764.255.611.449 1.255.582 1.907.132.652.204 1.325.204 1.989 0 .662-.071 1.335-.204 1.999-.133.642-.327 1.285-.582 1.907-.255.611-.571 1.203-.938 1.754-.367.561-.795 1.081-1.264 1.55-.47.469-.989.898-1.55 1.275-.551.367-1.142.684-1.764.939-.612.255-1.255.448-1.907.581s-1.325.194-1.988.194z"/></g><g><path d="m90.802 118.282-8.377 23.554c-.359 1.008-1.069 1.808-1.965 2.211l-20.927 9.428c-2.957 1.332-2.957 6.043 0 7.375l20.927 9.428c.896.404 1.606 1.203 1.965 2.211l8.377 23.554c1.183 3.328 5.369 3.328 6.552 0l8.377-23.554c.359-1.008 1.069-1.808 1.965-2.211l20.927-9.428c2.956-1.332 2.956-6.043 0-7.375l-20.927-9.428c-.896-.404-1.606-1.203-1.965-2.211l-8.377-23.554c-1.184-3.328-5.369-3.328-6.552 0z" fill="#a2f4e3"/><path d="m404.415 42.958-6.214 17.472c-.266.748-.793 1.341-1.457 1.64l-15.523 6.994c-2.193.988-2.193 4.482 0 5.47l15.523 6.994c.664.299 1.191.892 1.457 1.64l6.214 17.472c.878 2.468 3.982 2.468 4.86 0l6.214-17.472c.266-.748.793-1.341 1.457-1.64l15.523-6.994c2.193-.988 2.193-4.482 0-5.47l-15.523-6.994c-.664-.299-1.191-.892-1.457-1.64l-6.214-17.472c-.878-2.469-3.982-2.469-4.86 0z" fill="#a2f4e3"/><g fill="#00ebc4"><path d="m418.102 226.782c0 10.102 8.189 18.291 18.291 18.291s18.291-8.189 18.291-18.291-8.189-18.291-18.291-18.291-18.291 8.189-18.291 18.291z"/><ellipse cx="130.839" cy="29.437" rx="7.648" ry="7.648" transform="matrix(.707 -.707 .707 .707 17.507 101.139)"/></g></g></g></svg>