<svg id="Capa_1" enable-background="new 0 0 512 512" height="512" viewBox="0 0 512 512" width="512" xmlns="http://www.w3.org/2000/svg"><g><g><path d="m412.964 119.834c0-36.675-65.644-66.405-146.619-66.405-80.976 0-146.619 29.731-146.619 66.405v.002 263.854c0 36.674 65.644 66.405 146.619 66.405 80.976 0 146.619-29.731 146.619-66.405z" fill="#fff"/><path d="m266.344 494.501c-41.513 0-81.071-7.562-111.388-21.292-52.442-23.752-55.59-52.549-58.437-62.127-.602-2.024-1.782-9.618-1.677-11.669 1.029-20.038 7.082-37.146 18.029-50.926 10.817-13.615 26.278-23.639 45.952-29.794 29.872-9.345 67.589-9.345 107.521-9.345s77.65 0 107.522 9.345c19.674 6.155 29.979 19.753 40.796 33.368 12.069 15.19 16.049 30.85 16.049 53.596 0 17.822-.537 43.8-52.979 67.552-30.316 13.729-69.874 21.292-111.388 21.292z" fill="#98e8f2"/><path d="m419.817 348.487c-10.817-13.615-26.277-23.639-45.952-29.794-4.062-1.271-8.281-2.355-12.618-3.304 11.934 5.501 21.665 12.939 29.029 22.207 10.972 13.809 16.535 31.296 16.535 51.975 0 16.203-7.119 46.607-54.796 68.201-27.562 12.482-63.526 19.358-101.268 19.358-37.741 0-73.705-6.875-101.267-19.358-41.809-18.936-52.428-44.647-54.409-61.615-.248 3.097-.387 6.259-.387 9.5 0 17.822 7.83 51.265 60.272 75.017 30.317 13.73 69.875 21.292 111.388 21.292 41.514 0 81.072-7.562 111.388-21.292 52.441-23.752 60.272-57.195 60.272-75.017.001-22.746-6.118-41.98-18.187-57.17z" fill="#a6aff4"/><ellipse cx="266.344" cy="200.083" fill="#fff2a5" rx="137.461" ry="62.258"/><path d="m377.977 413.387c4.686-2.968 8.856-6.115 12.427-9.419l7.702-189.547-274.382-.943v128.512l5.159 33.467c0 14.385 14.203 24.365 31.364 35.238z" fill="#fff2a5"/><path d="m403.806 200.083c0 19.019-21.312 36.043-50.989 47.463v92.756c0 30.202-48.209 54.687-110.73 54.687-62.522 0-118.362-26.346-118.362-56.549v43.388c0 36.674 66.701 68.267 142.621 68.267 75.919 0 137.464-29.731 137.464-66.405v-169.27c-.001 0-.004-9.402-.004-14.337z" fill="#ffb7a9"/><path d="m223.239 133.171c-34.763 0-62.944-28.181-62.944-62.944 0-27.812 18.045-51.394 43.06-59.72-.99-.035-1.98-.075-2.979-.075-45.651 0-82.658 37.007-82.658 82.658s37.007 82.658 82.658 82.658 82.658-37.007 82.658-82.658c0-.999-.04-1.989-.076-2.979-8.325 25.015-31.907 43.06-59.719 43.06z" fill="#98e8f2"/><path d="m294.079 129.358c0 15.344-13.683 27.783-30.561 27.783s-30.561-12.439-30.561-27.783 23.057-52.26 30.561-52.26c7.503 0 30.561 36.915 30.561 52.26z" fill="#ffe35c"/><path d="m303.551 62.794v127.967c0 4.038 2.668 7.59 6.545 8.716l42.212 12.254c.17.049.34.094.511.133l19.945-32.931 16.713-124.142-55.884-21.401-26.795 22.447c-2.058 1.724-3.247 4.272-3.247 6.957z" fill="#ffc5dd"/><path d="m408.688 54.863-44.535-37.31c-3.372-2.825-8.284-2.825-11.656 0l-18.904 15.837 30.137 38.051-10.912 140.422c.001 0 .001 0 .002.001 3.471.793 7.11-.52 9.271-3.392l16.886-22.444c.709-.942 1.227-2.014 1.527-3.155l31.135-118.751c.89-3.398-.259-7.004-2.951-9.259z" fill="#ff94de"/><path d="m228.066 179.605-3.858 17.807-4.139 7.37-34.078 9.892-25.285-36.659 25.707-23.394 9.129-2.263z" fill="#ad84e6"/><path d="m224.208 197.412-29.73 8.63-11.093-14.743-11.248-19.333 23.405-19.608-4.559-3.819-37.083 31.066 14.916 25.638 14.709 19.55 37.083-10.765z" fill="#a862e6"/><path d="m347.806 285.997v70.8l-9.744 35.051-71.717 11.804-73.406-4.853-8.058-11.3v-101.502c8.308 2.77 17.339 5.137 26.932 7.014 16.717 3.271 35.16 5.087 54.536 5.087s37.819-1.816 54.536-5.087c9.592-1.877 18.612-4.244 26.921-7.014z" fill="#fff"/><path d="m341.584 402.273c2.117-.622 4.195-1.274 6.221-1.957v-43.52c-13.865 22.141-55.098 38.192-105.72 38.192-20.871 0-40.418-2.732-57.206-7.49v12.818c2.037.682 4.114 1.335 6.231 1.957 21.614 6.422 47.462 10.155 75.236 10.155 27.777 0 53.625-3.733 75.238-10.155z" fill="#ffc0fe"/><path d="m286.958 356.917c-11.375 11.391-29.83 11.405-41.221.03-9.114-9.1-10.937-22.73-5.48-33.651-.336.313-.673.624-.999.952-14.937 14.959-14.919 39.195.04 54.132s39.195 14.919 54.132-.04 14.919-39.195-.04-54.132c-.327-.327-.665-.637-1.001-.95 5.472 10.914 3.669 24.546-5.431 33.659z" fill="#75b7f2"/></g><g fill="#4e0325"><path d="m427.673 342.244c-1.472-1.853-3.042-3.653-4.675-5.396v-217.014c0-9.056-2.947-17.793-8.77-26.027l7.116-27.14c1.866-7.117-.572-14.769-6.213-19.496l-44.535-37.308c-7.109-5.958-17.432-5.959-24.544-.001l-42.522 35.623c-12.106-1.385-24.591-2.091-37.186-2.091-34.548 0-67.707 5.315-94.686 15.05 4.039-17.756 17.04-32.484 34.866-38.417 4.607-1.533 7.455-6.144 6.763-10.949-.691-4.805-4.723-8.426-9.575-8.6l-.316-.011c-1.003-.036-2.008-.071-3.02-.071-51.111 0-92.692 41.582-92.692 92.693 0 6.675.713 13.228 2.074 19.578-.042.371-.068.748-.068 1.13v223.049c-1.634 1.745-3.205 3.546-4.676 5.397-13.513 17.009-20.365 38.344-20.365 63.411 0 20.238 8.596 58.083 66.166 84.158 31.594 14.309 72.622 22.188 115.529 22.188s83.936-7.879 115.529-22.186c57.571-26.075 66.167-63.92 66.167-84.158-.001-25.068-6.853-46.403-20.367-63.412zm-113.449-279.538 21.021-17.61 22.3 28.228-7.352 94.603c-11.099 3.613-23.426 6.546-36.608 8.64v-113.213c.223-.206.435-.423.639-.648zm-94.346 126.26-4.394 20.279-29.646 8.606-11.996-15.945-12.186-20.945 6.355-5.324c15.022 5.933 32.566 10.498 51.867 13.329zm-77.649-23.667c-5.168 4.22-9.347 8.689-12.47 13.355v-25.466c3.744 4.391 7.912 8.449 12.47 12.111zm10.324 7.204c.087.053.176.102.264.155l-2.783 2.332c-2.247 1.882-2.812 5.109-1.338 7.643l14.916 25.638c.119.205.25.403.393.592l14.709 19.55c1.156 1.537 2.951 2.401 4.811 2.401.559 0 1.123-.077 1.678-.239l37.083-10.765c2.123-.616 3.737-2.346 4.205-4.507l5.379-24.825c8.285.875 16.846 1.438 25.626 1.665v9.324c0 3.325 2.696 6.021 6.021 6.021s6.021-2.696 6.021-6.021v-9.225c8.19-.076 16.204-.441 23.996-1.08.177 8.286 5.78 15.633 13.766 17.952l42.211 12.254c1.738.505 3.512.749 5.273.749 5.916 0 11.671-2.753 15.326-7.611l16.89-22.449c1.498-1.994 2.579-4.228 3.21-6.638l.721-2.751c3.936 4.932 6.855 10.814 6.855 17.416 0 13.922-13.385 27.967-36.725 38.539-25.2 11.413-58.837 17.698-94.716 17.698s-69.516-6.285-94.715-17.698c-23.339-10.571-36.725-24.617-36.725-38.539-.001-11.584 8.78-21.012 17.648-27.581zm209.027 4.327c3.96-1.481 7.752-3.055 11.37-4.715l-2.106 8.032-10.619 14.115zm-13.875 23.116-34.12-9.905v-1.192c12.704-1.899 24.645-4.546 35.592-7.844zm46.837-31.056 3.025-11.537c1.904-1.519 3.692-3.076 5.362-4.668v26.009c-2.255-3.378-5.064-6.653-8.387-9.804zm-17.516-12.323c-4.406 2.422-9.221 4.704-14.402 6.822l6.777-87.205 30.81-8.041zm-83.509 22.463c-7.804.687-15.819 1.088-23.979 1.17v-17.506c9.895-1.521 18.455-6.722 23.979-14.027zm-30-27.91c-13.532 0-24.541-9.762-24.541-21.762 0-5.343 4.12-15.903 10.496-26.902 5.936-10.24 11.39-16.736 14.045-18.847 2.655 2.111 8.109 8.606 14.045 18.847 6.376 10.999 10.496 21.559 10.496 26.902 0 12-11.009 21.762-24.541 21.762zm-6.02 14.593v14.377c-7.359-.207-14.586-.67-21.63-1.369 7.01-2.905 13.644-6.647 19.797-11.226.703-.524 1.308-1.128 1.833-1.782zm-44.005 9.536c.008.027.011.054.019.081.03.104.069.203.102.305-12.604-2.267-24.345-5.308-34.881-8.979l12.252-10.264zm-83.733 46.175c18.424 27.524 71.858 46.937 136.585 46.937s118.161-19.412 136.586-46.937v162.266c0 13.368-13.504 27.151-37.049 37.814-26.421 11.966-61.77 18.556-99.536 18.556s-73.115-6.59-99.535-18.556c-23.545-10.663-37.049-24.447-37.049-37.814v-162.266zm228.566-195.662 37.196 31.16-29.504 7.7-21.538-27.262zm-64.808 38.887v42.326c-2.637-5.593-5.373-10.321-6.746-12.604-9.293-15.457-17.117-23.294-23.254-23.294s-13.961 7.837-23.255 23.294c-2.602 4.327-10.098 17.442-12.542 28.579-.002 0-.004 0-.006 0-1.473.123-2.978.186-4.475.186-25.797 0-47.328-18.563-51.971-43.03 25.892-10.733 59.568-16.644 95.076-16.644 9.168.001 18.262.405 27.173 1.187zm-132.533-32.547c-6.86 11.204-10.723 24.311-10.723 38.125 0 40.241 32.738 72.978 72.978 72.978 2.054 0 4.124-.086 6.153-.257.204-.017.401-.052.601-.081 2.117 4.467 5.245 8.433 9.122 11.648-5.815 3.68-12.086 6.509-18.718 8.407-.685.196-1.331.461-1.937.781l-23.611-19.779c-2.237-1.874-5.495-1.874-7.732 0l-18.051 15.122c-.615-.549-1.298-1.039-2.064-1.436-24.21-12.552-39.249-37.274-39.249-64.52 0-25.536 13.246-48.036 33.231-60.988zm212.609 439.431c-29.047 13.154-67.136 20.399-107.249 20.399s-78.201-7.244-107.248-20.399c-47.313-21.428-54.378-50.472-54.378-65.877 0-11.351 1.67-21.682 4.972-30.921v8.955c0 21.91 17.344 41.832 48.838 56.095 28.965 13.119 67.255 20.344 107.815 20.344s78.85-7.225 107.816-20.344c31.494-14.263 48.838-34.186 48.838-56.095v-8.957c3.303 9.238 4.973 19.57 4.973 30.922.001 15.406-7.064 44.448-54.377 65.878z"/><path d="m182.969 406.026c2.103.704 4.272 1.385 6.428 2.02 22.91 6.806 49.519 10.404 76.951 10.404s54.042-3.597 76.933-10.399c2.2-.647 4.368-1.329 6.445-2.027 2.451-.824 4.101-3.121 4.101-5.706v-114.321c0-1.935-.93-3.752-2.5-4.884-1.571-1.132-3.588-1.438-5.425-.828-8.181 2.727-16.988 5.02-26.175 6.816-16.868 3.302-34.827 4.976-53.379 4.976-18.551 0-36.511-1.674-53.38-4.976-9.203-1.799-18.012-4.092-26.183-6.816-1.837-.61-3.855-.305-5.424.828-1.57 1.132-2.5 2.949-2.5 4.884v114.319c-.001 2.589 1.653 4.887 4.108 5.71zm7.932-111.856c6.332 1.828 12.947 3.418 19.755 4.75 17.628 3.45 36.366 5.199 55.692 5.199 19.327 0 38.064-1.749 55.691-5.199 6.801-1.33 13.412-2.92 19.747-4.75v101.757c-.633.194-1.272.386-1.917.575-21.811 6.481-47.234 9.906-73.521 9.906-26.286 0-51.71-3.425-73.539-9.911-.637-.187-1.274-.378-1.908-.572z"/><path d="m266.342 395.592h.033c11.832-.009 22.953-4.624 31.314-12.997 8.361-8.372 12.96-19.5 12.951-31.332s-4.624-22.953-12.995-31.31c-.339-.34-.687-.665-1.036-.989l-.122-.114c-2.133-1.985-5.38-2.155-7.711-.409-2.331 1.747-3.077 4.912-1.771 7.517 4.471 8.914 2.74 19.646-4.309 26.705-4.365 4.37-10.171 6.781-16.349 6.786-.006 0-.012 0-.018 0-6.171 0-11.974-2.401-16.341-6.762-7.059-7.048-8.806-17.777-4.348-26.699 1.302-2.605.552-5.768-1.78-7.512-2.331-1.745-5.578-1.571-7.709.415l-.084.078c-.361.336-.721.673-1.072 1.025-8.361 8.372-12.96 19.5-12.951 31.332s4.625 22.953 12.997 31.314c8.367 8.353 19.481 12.952 31.301 12.952zm-32.244-45.182c1.727 3.946 4.2 7.618 7.384 10.797 6.641 6.631 15.465 10.282 24.849 10.282h.026c9.394-.007 18.223-3.672 24.861-10.319 3.179-3.184 5.646-6.858 7.368-10.808.009.303.013.605.013.908.007 8.616-3.343 16.719-9.431 22.816-6.087 6.097-14.185 9.458-22.801 9.464-.008 0-.016 0-.024 0-8.607 0-16.701-3.349-22.792-9.432-6.096-6.087-9.457-14.185-9.464-22.801-.001-.302.003-.605.011-.907z"/><path d="m152.364 288.862c3.325 0 6.02-2.696 6.02-6.021v-9.289c0-3.325-2.696-6.021-6.02-6.021s-6.021 2.696-6.021 6.021v9.289c0 3.325 2.696 6.021 6.021 6.021z"/><path d="m377.488 315.368c3.325 0 6.021-2.696 6.021-6.021v-9.289c0-3.325-2.696-6.021-6.021-6.021s-6.021 2.696-6.021 6.021v9.289c.001 3.325 2.697 6.021 6.021 6.021z"/><path d="m377.488 355.26c3.325 0 6.021-2.696 6.021-6.021v-9.289c0-3.325-2.696-6.021-6.021-6.021s-6.021 2.696-6.021 6.021v9.289c.001 3.325 2.697 6.021 6.021 6.021z"/></g><g fill="#fff"><path d="m257.871 134.232c-1.102 0-2.222-.183-3.321-.568-5.229-1.834-7.981-7.561-6.147-12.79l3.056-8.713c1.834-5.23 7.56-7.979 12.79-6.148 5.229 1.834 7.981 7.561 6.147 12.79l-3.056 8.713c-1.449 4.131-5.326 6.716-9.469 6.716z"/><path d="m331.82 105.454c-.002 0-.003 0-.004 0-5.542-.002-10.032-4.497-10.03-10.038l.005-11.44c.002-5.54 4.495-10.03 10.034-10.03h.004c5.542.002 10.032 4.497 10.03 10.038l-.005 11.44c-.002 5.541-4.494 10.03-10.034 10.03z"/></g><g><path d="m39.173 147.981-8.243 23.177c-.353.992-1.052 1.779-1.933 2.176l-20.591 9.277c-2.909 1.311-2.909 5.946 0 7.257l20.591 9.277c.882.397 1.58 1.184 1.933 2.176l8.243 23.176c1.165 3.274 5.283 3.274 6.447 0l8.242-23.176c.353-.992 1.052-1.779 1.933-2.176l20.591-9.277c2.909-1.311 2.909-5.946 0-7.257l-20.591-9.277c-.882-.397-1.58-1.184-1.933-2.176l-8.242-23.177c-1.164-3.274-5.282-3.274-6.447 0z" fill="#fff2a5"/><path d="m476.553 1.822-6.114 17.192c-.262.736-.78 1.319-1.434 1.614l-15.275 6.882c-2.158.972-2.158 4.411 0 5.383l15.275 6.882c.654.295 1.172.878 1.434 1.614l6.114 17.192c.864 2.429 3.918 2.429 4.782 0l6.114-17.192c.262-.736.78-1.319 1.434-1.614l15.274-6.882c2.158-.972 2.158-4.41 0-5.383l-15.274-6.882c-.654-.295-1.172-.878-1.434-1.614l-6.114-17.192c-.864-2.429-3.919-2.429-4.782 0z" fill="#fff2a5"/><g fill="#ffe35c"><ellipse cx="65.327" cy="60.401" rx="7.526" ry="7.526" transform="matrix(.707 -.707 .707 .707 -23.576 63.885)"/><ellipse cx="466.948" cy="143.209" rx="17.998" ry="17.998" transform="matrix(.23 -.973 .973 .23 220.288 564.763)"/></g></g></g></svg>