<svg id="Capa_1" enable-background="new 0 0 512 512" height="512" viewBox="0 0 512 512" width="512" xmlns="http://www.w3.org/2000/svg"><g><g><path d="m262.983 263.168c-6.952 68.787-30.952 94.347-56.546 133.469-19.655 30.044-60.897 32.168-69.953 24.832-9.056-7.337-7.116-42.643 13.856-69.638 13.549-15.832 29.368-29.959 41.687-38.982" fill="#00ebc4"/><path d="m233.235 285.895c-4.556 44.913-17.474 67.034-34.198 92.599-12.854 19.649-45.525 27.656-55.893 15.2-9.509-11.424-2.738-28.269 8.876-43.804-23.44 26.787-40.95 58.952-23.79 79.568 15.853 19.045 65.809 6.802 85.463-23.242 25.593-39.122 45.357-72.966 52.309-141.753z" fill="#45b1c6"/><path d="m292.99 244.313c-28.795 24.723-74.249 55.176-111.747 57.984-85.909 6.433-104.693-12.808-118.424-33.608-9.431-14.285-21.527-43.327-23.7-67.341-3.092-40.159 7.662-76.887 47.698-56.461 105.371 53.761 119.428 64.586 214.194 102.662" fill="#00ebc4"/><path d="m247.562 225.28c-.293.561-.739 1.032-1.333 1.342-23.053 19.706-64.145 48.688-93.833 50.911-68.496 5.129-88.184-17.542-99.133-34.127-6.392-9.682-11.85-26.96-14.325-44.669 1.663 26.78 9.686 55.622 19.433 70.386 13.732 20.8 38.426 49.235 124.335 42.803 37.497-2.808 89.51-39.654 118.305-64.377-21.226-8.529-38.389-15.686-53.449-22.269z" fill="#45b1c6"/><path d="m274.095 256.698c42.2 59.579 72.482 71.973 117.38 92.244 34.479 15.567 82.315.908 87.799-26.773 9.269-46.791-61.614-60.016-108.781-67.028" fill="#00ebc4"/><path d="m370.492 255.141-96.397 1.558c.137.193.273.382.411.575l78.87-1.274c36.393 1.406 108.049 17.717 100.406 56.3-4.522 22.826-49.509 39.357-77.94 26.52-27.822-12.561-51.754-24.548-76.699-50.579 32.29 35.792 62.785 51.172 98.594 67.339 34.48 15.567 89.036-4.481 94.52-32.162 9.269-46.791-77.629-66.572-121.765-68.277z" fill="#45b1c6"/><path d="m231.564 262.999c40.56 4.869 105.646-2.673 143.304-23.655 86.278-48.071 91.775-80.873 94.304-108.851 4.374-48.387-30.348-149.733-82.367-99.793-.455.677-.91 1.373-1.365 2.087-74.018 116.279-82.008 135.188-153.876 230.212" fill="#00ebc4"/><path d="m386.808 30.702c25.069 12.614 44.328 70.515 41.748 99.05-2.134 23.613-9.879 59.037-82.694 99.607-25.03 13.946-66.584 16.104-99.834 14.385-4.53 6.076-9.329 12.466-14.465 19.255 40.56 4.869 109.796 6.401 147.454-14.581 86.278-48.071 95.454-90.044 97.984-118.023 4.375-48.386-44.242-168.03-90.193-99.693z" fill="#45b1c6"/><g fill="#a2f4e3"><path d="m218.99 363.317c-3.949 1.136-8.321.831-12.266-1.191-8.234-4.219-11.49-14.312-7.271-22.546 22.604-44.121 27.993-113.735 28.044-114.433.685-9.224 8.719-16.149 17.939-15.47 9.224.682 16.151 8.706 15.474 17.929-.23 3.122-5.908 77.024-31.64 127.25-2.196 4.288-5.988 7.226-10.28 8.461z"/><path d="m399.274 276.854c3.321-2.42 5.764-6.058 6.59-10.414 1.724-9.09-4.246-17.856-13.335-19.58-48.706-9.24-106.969-47.719-107.551-48.107-7.702-5.122-18.1-3.03-23.224 4.665-5.124 7.7-3.042 18.094 4.655 23.221 2.606 1.735 64.431 42.618 119.876 53.135 4.733.899 9.379-.29 12.989-2.92z"/><path d="m281.815 136.744c-6.935 26.239-18.619 55.441-28.01 60.794-15.004 8.553-27.281 7.887-42.411-3.384-15.129-11.271-19.029-31.635-8.711-45.485 2.909-3.905 15.69-12.917 32.121-26.403 24.424-20.047 31.495-42.394 39.591-49.505 6.297-5.53 15.423 33.709 7.42 63.983z"/><path d="m274.095 295.486-10.87 83.306c-1.661 12.99 5.336 25.547 17.258 30.967l52.069 22.094"/><path d="m368.159 465.005-7.448 36.93-61.581-132.135-22.497-48.272-10.227-21.944-21.967-27.08c-4.56-5.621-6.896-12.72-6.566-19.95l2.283-49.973 16.174-6.632 34.131 36.336c2.753 2.931 4.571 6.615 5.223 10.583l8.538 51.994 25.619 26.777c4.341 4.537 7.382 10.16 8.802 16.277z"/></g></g><g fill="#4e0325"><path d="m475.338 273.528c-19.393-12.592-44.853-19.579-62.795-23.223-1.499-.305-2.985-.249-4.379.091-1.26-1.829-2.785-3.474-4.531-4.874 68.044-42.995 80.46-81.765 83.393-114.221 1.718-18.996-3.896-47.79-14.303-73.359-7.139-17.542-22.569-48.145-45.697-56.029-12.69-4.326-31.687-3.421-50.076 25.468-17.996 28.271-31.734 50.238-43.854 69.619-22.465 35.922-37.306 59.654-57.884 89.203-.83 1.191-1.359 2.5-1.617 3.839-1.013.093-2.022.241-3.016.468 10.394-16.678 18.004-43.211 20.576-52.938 4.581-17.334 3.537-34.704 2.506-43.515-1.911-16.345-5.935-26.523-11.96-30.254-4.565-2.824-10.121-2.356-14.162 1.191-3.953 3.473-6.981 8.388-10.816 14.612-6.03 9.787-13.533 21.967-27.565 33.483-6.019 4.941-11.46 9.203-16.259 12.962-9.855 7.72-14.315 11.272-16.774 14.572-11.15 14.967-9.695 35.693 2.226 50.457-13.534-6.786-27.675-14.147-44.939-23.134-17.32-9.015-36.95-19.234-62.022-32.026-27.324-13.94-42.528-3.587-49.158 3.828-25.604 28.636-10.686 107.009 7.738 134.918 16.001 24.238 41.651 48.261 108.883 48.261 1.784 0 3.605-.021 5.449-.055-24.023 22.315-49.309 53.586-52.641 80.72-1.54 12.544 1.431 23.412 8.832 32.302 6.896 8.284 18.17 12.743 32.021 12.743 1.269 0 2.56-.037 3.871-.112 25.484-1.465 52.512-16.599 65.729-36.803 13.6-20.788 25.503-40.043 34.863-63.434l-3.737 29.223c-2.235 17.475 7.038 34.114 23.075 41.407l42.514 19.331c.434.198.876.349 1.32.481l31.437 67.454c1.667 3.576 5.246 5.813 9.119 5.813.395 0 .794-.023 1.194-.071 4.318-.514 7.816-3.743 8.676-8.005l7.447-36.929c.284-1.41.263-2.865-.062-4.266l-27.828-119.829c14.073 8.286 28.44 15.07 43.461 21.852 9.801 4.424 20.63 6.285 31.425 6.285 17.013 0 33.934-4.625 46.551-11.122 17.031-8.771 27.883-21.038 30.558-34.542 2.762-13.921.353-34.219-26.789-51.842zm-169.524-30.805c-1.434-7.264-4.829-13.936-9.915-19.352l-20.077-21.373c2.021.022 4.044.608 5.804 1.779.591.394 59.616 39.5 109.778 49.016 2.811.534 5.246 2.13 6.857 4.495 1.61 2.365 2.204 5.215 1.67 8.027-.508 2.684-2.004 5.048-4.214 6.658-2.418 1.762-5.368 2.427-8.307 1.868-28.712-5.446-59.376-19.388-81.596-31.118zm-100.986 99.61c12.423-24.249 19.748-55.74 23.884-79.905 1.315 5.966 3.997 11.593 7.911 16.418l8.597 10.598c-5.641 24.956-12.799 46.015-21.325 62.658-1.364 2.662-3.699 4.584-6.576 5.412-2.626.754-5.411.485-7.841-.762-5.257-2.694-7.343-9.161-4.65-14.419zm145.335-234.659c12.1-19.35 25.816-41.281 43.767-69.483 9.126-14.337 18.074-20.125 26.601-17.224 11.203 3.818 23.744 20.478 33.546 44.563 9.144 22.465 14.328 48.168 12.9 63.958-1.703 18.844-5.248 58.054-82.11 103.941-1.828 1.091-3.179 2.672-3.997 4.474-36.689-10.234-75.576-33.479-88.274-41.444 20.411-29.375 35.258-53.114 57.567-88.785zm-137.942 45.038c1.287-1.565 7.558-6.478 13.091-10.813 4.643-3.637 10.421-8.163 16.618-13.249 15.89-13.042 24.67-26.723 31.052-37.056 1.774 10.621 2.531 26.384-1.289 40.834-7.914 29.936-18.401 50.448-22.589 53.159-11.379 6.487-19.05 5.823-30.392-2.63-10.291-7.666-13.181-21.262-6.491-30.245zm-145.45 110.866c-7.856-11.9-14.754-35.231-17.164-58.056-2.553-24.172.372-44.233 7.632-52.354 1.833-2.051 7.41-8.291 25.003.684 24.998 12.754 44.59 22.954 61.875 31.951 30.916 16.094 51.905 27.02 77.369 38.796-.003.035-.009.07-.011.105-.037.493-2.797 36.009-12.53 71.91-1.746-.372-3.609-.296-5.417.339-7.991 2.801-15.25 4.462-21.575 4.936-85.658 6.409-105.599-23.793-115.182-38.311zm138.5 137.128c-11.089 16.951-33.567 26.779-50.039 27.725-8.959.52-15.973-1.458-19.266-5.412-3.757-4.513-5.171-10.065-4.324-16.971 3.396-27.656 40.834-66.402 66.332-85.081.743-.545 1.381-1.178 1.928-1.867.697-.182 1.403-.381 2.108-.578-2.367 6.405-5 12.581-7.932 18.303-2.776 5.419-3.276 11.593-1.407 17.387 1.868 5.794 5.881 10.513 11.298 13.289 3.252 1.666 6.801 2.512 10.376 2.512 2.114 0 4.237-.296 6.314-.892 1.856-.534 3.622-1.303 5.263-2.272-6.228 11.468-13.164 22.413-20.651 33.857zm79.378-.11c-7.95-3.615-12.548-11.865-11.44-20.528l4.221-33.006 29.716 63.763zm72.25 69.332-81.37-174.596c-.348-.747-.786-1.449-1.306-2.089l-21.966-27.079c-3.01-3.709-4.546-8.379-4.329-13.15l1.99-43.557 3.82-1.567 27.488 29.263c2.633 2.803 4.354 6.29 4.976 10.085l8.088 49.255c.329 2.003 1.256 3.861 2.66 5.327l25.619 26.778c3.091 3.23 5.259 7.239 6.27 11.594l29.021 124.964zm125.485-148.467c-1.414 7.143-8.902 14.827-20.029 20.557-19.305 9.944-44.174 11.748-60.476 4.388-32.674-14.752-59.936-28.365-88.459-57.646l-5.118-31.166c22.046 11.101 50.115 23.041 76.854 28.113 1.4.265 2.812.396 4.221.396 4.795 0 9.534-1.514 13.452-4.369 3.861-2.813 6.676-6.72 8.166-11.189 38.251 8.166 76.397 25.637 71.389 50.916z"/><path d="m374.968 199.5c3.335 0 6.039-2.704 6.039-6.039v-9.985c0-3.335-2.704-6.039-6.039-6.039s-6.039 2.704-6.039 6.039v9.985c0 3.335 2.704 6.039 6.039 6.039z"/><path d="m392.878 149.118c3.335 0 6.039-2.704 6.039-6.039v-9.984c0-3.335-2.704-6.039-6.039-6.039s-6.039 2.704-6.039 6.039v9.984c0 3.335 2.704 6.039 6.039 6.039z"/><path d="m426.844 157.456c3.335 0 6.039-2.704 6.039-6.039v-9.985c0-3.335-2.704-6.039-6.039-6.039s-6.039 2.704-6.039 6.039v9.985c0 3.335 2.704 6.039 6.039 6.039z"/><path d="m434.897 302.178c-3.335 0-6.039 2.704-6.039 6.039v9.984c0 3.335 2.704 6.039 6.039 6.039s6.039-2.704 6.039-6.039v-9.984c-.001-3.335-2.704-6.039-6.039-6.039z"/></g><g fill="#fff"><path d="m152.963 235.428c-1.506 0-3.035-.339-4.475-1.056l-32.974-16.406c-4.977-2.476-7.004-8.518-4.528-13.494 2.476-4.975 8.517-7.004 13.494-4.528l32.974 16.406c4.977 2.476 7.004 8.518 4.528 13.494-1.759 3.537-5.319 5.584-9.019 5.584z"/><path d="m87.351 202.618c-1.52 0-3.063-.345-4.513-1.074l-2.331-1.173c-4.967-2.497-6.969-8.547-4.472-13.513 2.497-4.967 8.546-6.969 13.514-4.472l2.332 1.173c4.967 2.497 6.969 8.547 4.472 13.513-1.769 3.517-5.318 5.546-9.002 5.546z"/></g><g><path d="m151.701 28.195-8.268 23.247c-.354.995-1.055 1.784-1.939 2.183l-20.654 9.305c-2.918 1.315-2.918 5.964 0 7.279l20.654 9.306c.884.398 1.585 1.187 1.939 2.182l8.268 23.248c1.168 3.284 5.299 3.284 6.467 0l8.268-23.248c.354-.995 1.055-1.784 1.939-2.182l20.654-9.306c2.918-1.315 2.918-5.964 0-7.279l-20.654-9.306c-.884-.399-1.585-1.187-1.939-2.183l-8.268-23.247c-1.168-3.284-5.299-3.284-6.467.001z" fill="#a2f4e3"/><path d="m33.506 343.834-6.133 17.245c-.263.738-.783 1.323-1.438 1.619l-15.321 6.902c-2.164.975-2.164 4.424 0 5.399l15.321 6.903c.656.296 1.176.881 1.438 1.619l6.133 17.245c.866 2.436 3.93 2.436 4.797 0l6.133-17.245c.263-.738.783-1.323 1.438-1.619l15.321-6.902c2.164-.975 2.164-4.424 0-5.399l-15.321-6.903c-.656-.296-1.176-.881-1.438-1.619l-6.133-17.245c-.867-2.436-3.931-2.436-4.797 0z" fill="#a2f4e3"/><g fill="#00ebc4"><path d="m447.68 449.906c0 9.97 8.083 18.053 18.053 18.053s18.053-8.083 18.053-18.053c0-9.971-8.082-18.053-18.053-18.053s-18.053 8.083-18.053 18.053z"/><path d="m312.924 28.728c0 4.169 3.379 7.549 7.548 7.549s7.549-3.38 7.549-7.549-3.38-7.549-7.549-7.549c-4.168 0-7.548 3.38-7.548 7.549z"/></g></g></g></svg>