<svg id="Capa_1" enable-background="new 0 0 512 512" height="512" viewBox="0 0 512 512" width="512" xmlns="http://www.w3.org/2000/svg"><g><g><path d="m363.965 26.108-32.339 8.279-118.556 26.278-173.58 48.507-14.733 3.772c-10.307 2.542-16.602 12.958-14.06 23.265 2.542 10.307 12.958 16.602 23.265 14.06l34.017-8.708 146.687-46.371 138.366-26.602 20.139-5.156c10.307-2.542 16.602-12.958 14.06-23.265-2.543-10.307-12.959-16.601-23.266-14.059z" fill="#c37777"/><path d="m417.652 347.211c-.152-.147-11.316-11.878-11.469-12.023-15.275-14.59-29.852-37.429-41.576-55-23.523-35.254-12.146-78.026-6.81-120.069 4.031-31.758-10.394-69.533-10.394-69.533l-55.913-67.128s-53.737 12.359-81.261 18.703c-30.579 9.294-60.776 16.485-93.622 20.176l-42.196 3.01-34.921 43.825 38.471-9.849s7.732 22.284 2.173 38.397l-24.909 7.051s5.875 6.06 18.752 5.613l64.215-15.599c2.803 7.202 5.309 15.902 6.262 20.161 6.803 30.403 2.561 28.327-.129 77.31s-9.8 92.764 24.73 134.546c3.44 4.162 7.374 11.119 19.262 26.618-19.291 9.175-43.928 21.806-51.08 24.939-7.151 3.132-11.921 7.194-15.987 15.986l34.556 49.752 24.994 4.485s146.676-63.054 217.496-92.629c28.555-11.922 41.634-27.268 19.356-48.742z" fill="#ffddb6"/><path d="m111.18 90.963c4.807-2.755-7.974-13.791-13.28-17.267-6.218-4.073-11.571-6.969-21.385-8.499 0 0-15.187 1.97-20.574 4.649-7.623 3.79-17.605 17.442-16.451 39.327.001 0 70.499-17.527 71.69-18.21z" fill="#ffa7b8"/><path d="m425.37 335.615c-.152-.147-.305-.293-.458-.439-15.275-14.59-36.236-37.665-47.96-55.236-23.523-35.254-13.716-77.614-8.38-119.658 4.031-31.758-2.411-52.625-7.92-71.913-6.484-22.704-19.723-42.36-39.378-67.629-3.522-4.528-15.233-11.36-30.093-6.085-18.833 6.685-65.049 22.131-82.54 27.987 5.677 1.656 19.922-4.11 36.555-3.879 16.428.626 25.497 5.177 27.992 8.384 16.318 20.978 30.832 34.21 38.653 52.184 8.258 18.978 18.026 44.913 14.68 71.279-4.43 34.904-12.809 80.83 6.719 110.097 9.733 14.587 13.306 15.368 25.987 27.481.127.121.253.243.38.365 18.495 17.828 12.506 48.805-11.198 58.704-42.857 17.897-93.216 40.363-134.722 55.801-15.436 5.741-27.312 23.656-39.458 26.857 0 0-2.485.944-3.502-2.105-8.741-21.795-37.795-38.725-49.476-13.464-7.36 15.916 10.765 55.13 27.983 61.782 17.355 6.705 32.212 1.663 43.167-3.324.357.056 31.186-10.069 31.186-10.069 56.884-19.487 117.473-46.833 188.293-76.408 28.554-11.924 35.768-49.238 13.49-70.712z" fill="#ffa7b8"/><path d="m315.206 369.06c49.019 55.211 63.32 101.307 63.32 101.307s17.958-26.096 16.478-38.892c13.335-2.255 24.846.106 34.658 6.766 4.882-.326-9.953-47.937-59.179-95.712" fill="#75b7f2"/><path d="m361.079 315.86c12.559 21.753 9.836 43.493-8.192 53.902-18.028 10.408-36.428 2.22-52.85-17.091-12.559-21.753-11.044-46.14 6.984-56.548-.001-.001 41.498-2.016 54.058 19.737z" fill="#ff8cc0"/><path d="m365.32 314.979c-12.559-21.753-40.272-29.265-58.3-18.857-1.279.738-2.465 1.554-3.578 2.427 13.605-5.257 32.132.803 40.921 16.026 9.569 16.574 3.968 37.722-9.768 45.652-12.497 7.215-27.42 1-37.217-12.661.804 1.712 1.683 3.416 2.657 5.104 12.56 21.753 34.437 32.634 52.465 22.226s25.379-38.164 12.82-59.917z" fill="#ff68c1"/></g><g fill="#4e0325"><path d="m448.386 371.171c1.451-16.044-4.374-31.663-15.969-42.839l-.504-.485c-14.358-13.715-35.044-36.318-46.531-53.532-18.55-27.801-13.828-61.628-8.828-97.442.7-5.009 1.422-10.189 2.072-15.315 4.156-32.739-2.123-54.657-7.663-73.997l-.566-1.975c-.983-3.443-2.117-6.803-3.371-10.119l8.572-2.194c7.613-1.879 14.039-6.609 18.094-13.319 4.056-6.71 5.255-14.6 3.377-22.213-3.875-15.717-19.816-25.354-35.619-21.452l-25.765 6.596c-2.06-2.727-4.185-5.503-6.414-8.368-5.688-7.313-21.984-16.336-41.482-9.413l-5.702 2.025c-72.637 25.801-130.074 46.194-205.979 47.72-10.582-1.674-20.379.668-28.391 6.837-10.495 8.081-17.454 22.51-19.333 39.868l-6.055 1.55c-15.715 3.877-25.348 19.817-21.472 35.533 3.297 13.364 15.317 22.329 28.505 22.329 2.32 0 4.676-.277 7.028-.857l11.218-2.767c5.368 4.094 10.693 5.754 15.585 5.754 1.906 0 3.739-.267 5.49-.721.029-.006.056-.007.085-.014l63.509-13.676c.882 2.807 1.651 5.633 2.287 8.475 4.318 19.298 3.885 23.799 2.272 40.546-.749 7.78-1.776 18.437-2.631 33.995-.273 4.987-.599 10-.913 14.849-2.875 44.291-5.59 86.124 27.951 126.71.943 1.141 2.415 2.834 4.451 5.177 2.634 3.031 6.487 7.464 10.81 12.615l-47.596 22.277c-7.12 2.683-12.997 8.418-16.856 16.764-5.882 12.721-.601 29.842 3.07 38.914 5.752 14.215 16.774 31.288 30.46 36.575 6.916 2.672 13.77 3.793 20.378 3.792 12.133-.001 23.418-3.782 32.649-8.673 38.547-9.674 93.317-32.324 155.806-58.96 10.415 19.155 14.362 31.407 14.432 31.629 1.228 3.96 4.745 6.773 8.878 7.1.27.022.537.032.805.032 3.83 0 7.365-2.17 9.083-5.643 1.328-2.688 10.955-22.219 16.166-34.313 8.964.947 16.203 3.962 21.033 6.595 2.407 1.313 5.244 1.591 7.857.78 2.617-.814 4.793-2.652 6.033-5.095 4.347-8.573-2.08-25.186-7.706-36.758 9.917-8.911 16.156-21.263 17.39-34.897zm-81.994-335.224c4.868-1.197 9.798 1.783 10.998 6.648 1.2 4.863-1.781 9.796-6.732 11.019l-12.332 3.157c-2.932-5.328-6.249-10.691-9.956-16.209zm-306.309 41.799c3.309-2.546 7.171-3.541 11.755-3.03 5.695 3.595 11.096 7.463 16.159 11.578l-38.11 9.756c2.007-8.142 5.623-14.782 10.196-18.304zm-28.548 62.683c-4.864 1.201-9.798-1.783-10.998-6.647-1.2-4.865 1.782-9.797 6.733-11.02l42.759-10.946c2.3 5.316 2.321 12.641.833 18.911zm58.703-3.426c2.317-8.525 2.61-17.94.621-26.362l17.373-4.589c6.326 7.469 11.716 15.392 16.062 23.616zm112.729 289.554-25.506 11.856c-3.884-7.086-9.387-13.395-15.64-18.109l27.791-13.007c5.121 6.662 9.923 13.402 13.355 19.26zm-50.081 60.117c-5.027-1.942-13.386-11.459-18.974-25.27-4.491-11.099-4.943-19.601-3.462-22.804 1.822-3.941 3.834-5.612 5.56-6.3.098-.032.195-.073.294-.109 1.296-.443 2.41-.356 3.121-.295 7.96.681 19.715 10.784 22.938 22.789.028.105.068.203.099.307.053.174.106.349.169.522.066.182.141.358.217.535.04.093.07.188.113.28.013.029.032.053.046.081.195.411.413.805.657 1.18.038.058.08.111.119.168.212.312.441.609.685.892.069.08.136.162.206.239.281.306.575.597.889.865.074.064.154.119.23.18.258.208.524.402.801.583.105.069.208.138.315.202.349.211.707.406 1.079.574.054.025.111.043.166.066.337.145.681.269 1.033.377.106.033.212.064.32.093.391.106.787.196 1.191.255.016.002.031.007.048.009.413.058.833.083 1.255.089.053.001.105.011.159.011.098 0 .198-.013.297-.016.174-.005.348-.014.524-.028.179-.014.357-.035.535-.059.167-.023.335-.05.502-.082.179-.033.356-.071.534-.114.076-.018.153-.029.23-.049.105-.028.204-.068.308-.1.155-.047.309-.095.463-.15.215-.077.424-.163.631-.252.08-.035.161-.059.241-.096l33.397-15.524c1.596 12.73-2.796 22.905-6.961 27.154-.237.241-24.258 23.73-49.975 13.797zm74.211-15.798c4.411-12.288 5.107-28.248-1.735-44.883-6.747-16.404-26.215-39.968-44.369-60.854-1.868-2.149-3.343-3.845-4.126-4.792-28.417-34.385-26.067-70.577-23.347-112.484.318-4.898.646-9.963.926-15.05.831-15.143 1.793-25.135 2.566-33.165 1.715-17.802 2.357-24.463-2.667-46.915-6.556-29.297-24.252-57.062-49.843-79.051 66.274-5.504 121.571-25.146 184.371-47.453l5.697-2.023c10.646-3.777 17.748 1.553 18.703 2.756 19.316 24.833 31.666 43.296 37.634 64.189l.57 1.991c5.247 18.316 10.671 37.255 7.04 65.863-.634 5-1.348 10.116-2.039 15.065-5.304 37.992-10.787 77.278 12.042 111.494 12.407 18.594 33.746 41.996 49.393 56.942l.423.406c7.163 6.903 10.757 16.538 9.862 26.431-.622 6.863-3.268 13.197-7.504 18.287-8.572-13.637-21.388-30.756-40.147-49.417-.032-9.481-2.405-19.12-7.382-27.742-14.477-25.074-47.431-35.376-70.526-22.042-11.187 6.458-18.133 17.493-19.559 31.072-1.264 12.036 1.953 25.443 9.059 37.752 4.594 7.956 10.168 14.497 16.302 19.46 15.087 17.1 26.757 33.312 35.63 47.402-44.16 18.81-84.274 35.512-116.974 46.761zm82.596-123.758c-4.982-8.63-7.275-17.687-6.454-25.5.751-7.156 3.959-12.416 9.535-15.635 3.615-2.087 7.998-3.135 12.632-3.135 10.974 0 23.347 5.88 30.205 17.758 9.753 16.894 3.422 37.38-8.754 44.41-13.21 7.629-28.696-3.23-37.164-17.898zm87.16 72.867c-4.346.071-8.162 2.906-9.487 7.046-.918 2.866-4.289 10.357-8.146 18.564-6.869-14.376-18.226-34.827-35.888-58.209 4.68-.711 9.28-2.285 13.658-4.814 8.169-4.717 14.382-11.987 18.376-20.516 22.762 24.695 35.049 46.493 40.664 60.11-5.692-1.405-12.106-2.277-19.177-2.181z"/><path d="m210.556 174.55c.594 2.874 3.125 4.853 5.949 4.853.407 0 .82-.041 1.235-.127 3.289-.679 5.405-3.896 4.726-7.184l-6.848-33.168c-.678-3.288-3.893-5.409-7.185-4.726-3.289.679-5.405 3.896-4.726 7.184z"/><path d="m223.272 146.509c.437 0 .882-.048 1.326-.146l4.351-.968c3.279-.73 5.345-3.978 4.615-7.256-.729-3.278-3.981-5.345-7.256-4.615l-4.351.968c-3.279.729-5.345 3.978-4.615 7.256.63 2.833 3.142 4.761 5.93 4.761z"/><path d="m240.811 163.85c.588 2.881 3.122 4.867 5.952 4.867.403 0 .812-.04 1.221-.124 3.291-.671 5.414-3.884 4.743-7.174l-7.4-36.268c-.671-3.291-3.888-5.418-7.174-4.743-3.291.671-5.414 3.884-4.743 7.174z"/><path d="m257.917 158.096c.646 2.817 3.15 4.723 5.923 4.723.449 0 .907-.049 1.364-.154 3.273-.751 5.319-4.013 4.569-7.286l-5.478-23.893c-.751-3.273-4.009-5.32-7.286-4.569-3.273.751-5.319 4.013-4.569 7.286z"/><path d="m271.526 146.149c.645 2.817 3.15 4.724 5.922 4.724.45 0 .908-.049 1.364-.154 3.274-.75 5.32-4.012 4.57-7.285l-5.712-24.925c-.75-3.275-4.02-5.321-7.285-4.57-3.274.75-5.32 4.012-4.57 7.285z"/><path d="m286.527 140.86c.8.354 1.635.523 2.457.523 2.333 0 4.559-1.351 5.563-3.622l2.184-4.936c1.36-3.071-.029-6.662-3.1-8.021-3.069-1.359-6.662.028-8.021 3.1l-2.184 4.936c-1.359 3.07.03 6.661 3.101 8.02z"/><path d="m303.909 147.417c.669 2.79 3.161 4.665 5.909 4.665.469 0 .946-.054 1.422-.168 3.266-.783 5.279-4.066 4.496-7.331l-6.558-27.354c-.783-3.267-4.07-5.278-7.331-4.496-3.266.783-5.279 4.066-4.496 7.331z"/><path d="m312.852 192.232c3.223-.944 5.069-4.322 4.125-7.546-.944-3.223-4.323-5.072-7.546-4.125l-120.365 35.271c-3.223.944-5.07 4.322-4.125 7.546.777 2.651 3.202 4.373 5.833 4.373.566 0 1.142-.08 1.713-.247z"/><path d="m197.386 264.729c.566 0 1.142-.08 1.713-.247l110.408-32.355c3.223-.944 5.069-4.323 4.125-7.546-.944-3.224-4.324-5.071-7.546-4.125l-110.408 32.354c-3.223.944-5.069 4.323-4.125 7.546.777 2.653 3.202 4.373 5.833 4.373z"/><path d="m308.439 264.244c-1.023-3.198-4.442-4.962-7.645-3.939l-103.683 33.161c-3.199 1.023-4.963 4.446-3.939 7.645.826 2.582 3.217 4.23 5.791 4.23.614 0 1.237-.094 1.854-.291l103.683-33.161c3.198-1.023 4.962-4.446 3.939-7.645z"/><path d="m263.697 323.608c-.986-3.21-4.383-5.012-7.598-4.029l-42.676 13.098c-3.211.986-5.014 4.388-4.029 7.598.804 2.616 3.211 4.298 5.812 4.298.591 0 1.192-.087 1.787-.269l42.676-13.098c3.21-.986 5.013-4.387 4.028-7.598z"/><path d="m267.071 350.701-32.243 11.124c-3.174 1.096-4.861 4.557-3.765 7.732.869 2.518 3.225 4.1 5.748 4.1.657 0 1.326-.108 1.983-.335l32.243-11.124c3.174-1.096 4.861-4.557 3.765-7.732-1.094-3.174-4.551-4.861-7.731-3.765z"/><path d="m354.082 346.839c1.259-3.113-.243-6.658-3.357-7.917-3.114-1.262-6.657.243-7.917 3.356-.626 1.544-2.159 3.451-3.769 3.944-.403.123-1.626.498-3.929-1.054-4.257-2.869-8.315-11.742-11.134-24.345-.733-3.277-3.987-5.339-7.262-4.607-3.277.733-5.341 3.985-4.607 7.262 3.644 16.294 9.098 26.985 16.207 31.776 3.669 2.472 7.047 3.26 9.864 3.26 1.695 0 3.187-.285 4.416-.661 5.916-1.808 9.814-6.875 11.488-11.014z"/></g><g fill="#fff"><path d="m199.922 95.83c-4.608 0-8.777-3.163-9.864-7.846-1.266-5.452 2.129-10.898 7.581-12.164 13.708-3.182 28.059-7.106 43.874-12 5.344-1.652 11.023 1.341 12.678 6.688 1.654 5.347-1.34 11.023-6.688 12.678-16.283 5.037-31.095 9.087-45.282 12.38-.769.179-1.54.264-2.299.264z"/><path d="m155.438 103.979c-5.006 0-9.36-3.709-10.034-8.807-.734-5.549 3.168-10.643 8.718-11.377l1.535-.2c.876-.113 1.311-.169 2.787-.388 5.533-.819 10.689 3.005 11.509 8.543.819 5.538-3.006 10.689-8.543 11.509-1.671.247-2.164.311-3.155.438l-1.474.192c-.451.061-.9.09-1.343.09z"/></g><g><path d="m472.209 207.234-8.325 23.409c-.356 1.002-1.062 1.797-1.953 2.198l-20.798 9.37c-2.938 1.324-2.938 6.005 0 7.329l20.798 9.37c.891.401 1.596 1.195 1.953 2.198l8.325 23.409c1.176 3.307 5.336 3.307 6.512 0l8.325-23.409c.357-1.002 1.062-1.797 1.953-2.198l20.798-9.37c2.938-1.324 2.938-6.005 0-7.329l-20.798-9.37c-.891-.401-1.596-1.196-1.953-2.198l-8.325-23.409c-1.177-3.307-5.336-3.307-6.512 0z" fill="#ffc8b7"/><path d="m24.884 333.347-6.176 17.364c-.264.743-.788 1.333-1.448 1.63l-15.428 6.951c-2.18.982-2.18 4.455 0 5.437l15.428 6.951c.66.298 1.184.887 1.448 1.63l6.176 17.365c.872 2.453 3.958 2.453 4.83 0l6.176-17.365c.264-.743.788-1.333 1.448-1.63l15.428-6.951c2.179-.982 2.179-4.455 0-5.437l-15.428-6.951c-.661-.298-1.184-.887-1.448-1.63l-6.176-17.364c-.873-2.453-3.958-2.453-4.83 0z" fill="#ffc8b7"/><g fill="#ffa785"><path d="m49.387 264.055c0 10.04 8.139 18.179 18.179 18.179s18.179-8.139 18.179-18.179-8.139-18.179-18.179-18.179-18.179 8.139-18.179 18.179z"/><path d="m431.328 138.417c0 4.198 3.403 7.601 7.601 7.601s7.601-3.403 7.601-7.601-3.403-7.601-7.601-7.601-7.601 3.403-7.601 7.601z"/></g></g></g></svg>