<svg id="Capa_1" enable-background="new 0 0 512 512" height="512" viewBox="0 0 512 512" width="512" xmlns="http://www.w3.org/2000/svg"><g><g><path d="m53.345 108.19 26.045 45.111h178.786l26.045-45.111c5.274-9.135-1.319-20.554-11.867-20.554h-207.142c-10.548.001-17.141 11.419-11.867 20.554z" fill="#ffe35c"/><path d="m262.864 196.564h-188.162l-55.458 132.587c-5.818 13.91-8.796 28.385-9.152 42.732l5.733 25.33 53.854 62.975 158.917 2.619 45.184-52.755 12.297-86.925z" fill="#ffe35c"/><path d="m318.322 329.151-55.458-132.587h-57.134l44.232 105.748c17.787 42.523 2.293 91.675-36.665 116.31-4.943 3.126-10.672 4.786-16.521 4.786h-132.164c-5.849 0-11.578-1.66-16.521-4.786-17.986-11.374-30.956-27.978-37.973-46.738-1.009 40.646 18.996 80.268 55.097 103.098 6.198 3.92 13.381 6 20.714 6h165.709c7.333 0 14.516-2.081 20.714-6 48.844-30.889 68.271-92.515 45.97-145.831z" fill="#ffac62"/><path d="m256.007 197.304h-174.448c-13.292 0-24.067-10.775-24.067-24.067 0-13.292 10.775-24.067 24.067-24.067h174.448c13.292 0 24.067 10.775 24.067 24.067 0 13.292-10.775 24.067-24.067 24.067z" fill="#ad84e6"/><path d="m363.113 326.459-37.176-8.47-124.478 130.48v17.242l259.558-2.904 16.634-13.234z" fill="#fff2a5"/><path d="m497.737 454.515-133.096-139.513c-9.762-10.232-26.093-10.232-35.855 0l-2.849 2.986 103.956 108.969c7.526 8.249 1.674 21.511-9.493 21.511h-218.941l-5.769 6.046c-9.26 10.15-2.06 26.467 11.679 26.467h278.688c13.739.001 20.94-16.316 11.68-26.466z" fill="#ffb7a9"/></g><g fill="#4e0325"><path d="m505.182 447.722c-.05-.055-.101-.109-.153-.163l-133.096-139.514v-.001c-6.642-6.961-15.599-10.795-25.221-10.795-9.621 0-18.578 3.834-25.219 10.796l-.747.783-45.055-107.715c8.74-6.191 14.462-16.375 14.462-27.876 0-11.904-6.126-22.398-15.388-28.512l18.183-31.494c4.299-7.445 4.299-16.336 0-23.782-4.298-7.446-11.998-11.891-20.595-11.891h-207.141c-8.597 0-16.297 4.445-20.595 11.89-4.299 7.446-4.299 16.336 0 23.783l18.183 31.494c-9.261 6.114-15.387 16.608-15.387 28.512 0 11.502 5.722 21.686 14.462 27.876l-51.93 124.149c-11.703 27.98-13.127 59.319-4.009 88.244 9.119 28.926 28.257 53.783 53.89 69.993 7.822 4.946 16.847 7.56 26.102 7.56h121.442 278.688c10.408 0 19.484-5.916 23.686-15.438 4.201-9.519 2.454-20.211-4.562-27.899zm-428.079-261.237c-5.532-1.866-9.532-7.094-9.532-13.249 0-7.713 6.275-13.988 13.988-13.988h174.448c7.713 0 13.988 6.275 13.988 13.988 0 6.155-4 11.382-9.532 13.249zm-15.029-86.957c.391-.677 1.318-1.812 3.138-1.812h207.142c1.82 0 2.747 1.135 3.138 1.812.391.676.91 2.046 0 3.623l-20.75 35.939h-171.918l-20.75-35.939c-.91-1.576-.391-2.947 0-3.623zm8.527 366.934c-44.845-28.359-62.534-84.47-42.059-133.422l52.564-125.668c.151.002.3.012.452.012h174.448c.152 0 .301-.01.452-.012l49.097 117.378-66.654 69.868c14.344-16.393 23.05-37.838 23.05-61.281 0-51.374-41.796-93.169-93.169-93.169s-93.169 41.795-93.169 93.169 41.796 93.17 93.169 93.17c25.026 0 47.777-9.921 64.533-26.034l-44.918 47.084c-.052.054-.103.108-.153.163-5.874 6.438-8.039 14.98-6.125 23.18h-96.19c-5.435.002-10.735-1.533-15.328-4.438zm98.182-203.908 11.972 36.886h-23.944zm25.724 79.223-25.722 18.689-.001-.001-.002.001-25.723-18.689.001-.001-.001-.001 9.826-30.239h.001v-.001h31.795v.001h.001l9.826 30.239-.001.001zm-61.739-7.473-31.382-22.784 38.781.012zm6.358 19.565 19.371 14.074-31.366 22.805zm59.314 0 11.996 36.878-31.367-22.805zm6.358-19.565-7.399-22.773 38.78-.012zm-11.327-34.866-15.122-46.59c28.471 3.364 52.458 21.528 64.045 46.574zm-49.376 0-48.924-.016c11.586-25.046 35.574-43.21 64.045-46.574zm-54.849 18.213 39.592 28.745-15.093 46.402c-15.997-14.819-26.036-35.985-26.036-59.459 0-5.367.537-10.61 1.537-15.688zm79.537 57.767 39.474 28.699c-11.691 6.546-25.15 10.296-39.474 10.296-14.325 0-27.784-3.749-39.475-10.296zm55.038 17.38-15.093-46.402 39.592-28.745c1 5.078 1.537 10.321 1.537 15.688 0 23.474-10.038 44.64-26.036 59.459zm267.479 74.687c-.453 1.028-1.872 3.418-5.243 3.418h-278.687c-3.371 0-4.79-2.39-5.243-3.418-.45-1.018-1.249-3.639.951-6.111l133.001-139.415c2.8-2.935 6.577-4.551 10.634-4.551s7.834 1.616 10.635 4.551l133 139.414c2.201 2.472 1.402 5.093.952 6.112z"/><path d="m359.084 407.757c-3.34 0-6.048 2.708-6.048 6.048v11.395c0 3.34 2.708 6.047 6.048 6.047s6.047-2.708 6.047-6.047v-11.395c0-3.34-2.707-6.048-6.047-6.048z"/><path d="m416.743 420.91c-3.34 0-6.047 2.708-6.047 6.048v11.394c0 3.34 2.708 6.048 6.047 6.048 3.34 0 6.048-2.708 6.048-6.048v-11.394c0-3.341-2.708-6.048-6.048-6.048z"/><path d="m384.193 377.712c-3.34 0-6.048 2.708-6.048 6.048v11.394c0 3.34 2.708 6.048 6.048 6.048s6.047-2.708 6.047-6.048v-11.394c.001-3.341-2.707-6.048-6.047-6.048z"/></g><g fill="#fff"><path d="m273.779 435.994c-2.512 0-5.028-.933-6.982-2.811-4.014-3.858-4.141-10.238-.284-14.252l23.47-24.424c3.856-4.014 10.237-4.142 14.251-.284 4.014 3.857 4.141 10.238.284 14.252l-23.47 24.424c-1.979 2.059-4.622 3.095-7.269 3.095z"/><path d="m324.799 382.898c-2.512 0-5.027-.933-6.982-2.811-4.014-3.856-4.142-10.237-.285-14.251l4.686-4.877c3.856-4.016 10.236-4.143 14.252-.285 4.014 3.856 4.142 10.237.285 14.251l-4.685 4.877c-1.98 2.059-4.623 3.096-7.271 3.096z"/></g><g><path d="m466.015 224.352-9.435 26.531c-.404 1.136-1.204 2.036-2.213 2.491l-23.571 10.62c-3.33 1.5-3.33 6.806 0 8.307l23.571 10.62c1.009.455 1.809 1.355 2.213 2.491l9.435 26.53c1.333 3.748 6.047 3.748 7.38 0l9.435-26.53c.404-1.136 1.204-2.036 2.213-2.491l23.571-10.62c3.33-1.5 3.33-6.806 0-8.307l-23.571-10.62c-1.009-.455-1.809-1.355-2.213-2.491l-9.435-26.531c-1.333-3.749-6.047-3.749-7.38 0z" fill="#fff2a5"/><path d="m356.347 151.255-6.999 19.68c-.3.843-.893 1.51-1.641 1.848l-17.485 7.877c-2.47 1.113-2.47 5.049 0 6.162l17.485 7.878c.748.337 1.342 1.005 1.641 1.848l6.999 19.68c.989 2.78 4.485 2.78 5.474 0l6.999-19.68c.3-.842.893-1.51 1.642-1.848l17.485-7.878c2.47-1.113 2.47-5.049 0-6.162l-17.485-7.877c-.749-.337-1.342-1.005-1.642-1.848l-6.999-19.68c-.989-2.78-4.486-2.78-5.474 0z" fill="#fff2a5"/><g fill="#ffe35c"><path d="m417.157 120.469c0 11.378 9.224 20.602 20.603 20.603 11.378 0 20.602-9.224 20.602-20.602 0-11.379-9.224-20.603-20.602-20.603-11.379-.001-20.603 9.224-20.603 20.602z"/><ellipse cx="346.713" cy="29.554" rx="8.615" ry="8.615" transform="matrix(.997 -.083 .083 .997 -1.256 28.698)"/></g></g></g></svg>