<svg id="Capa_1" enable-background="new 0 0 512 512" height="512" viewBox="0 0 512 512" width="512" xmlns="http://www.w3.org/2000/svg"><g><g><path d="m260.805 184.515c11.288-29.582 4.61-54.104-9.731-77.909-6.39-4.513-14.242-16.942-22.656-19.914-32.096-11.335-73.022-14.962-77.77-37.604-4.964-23.674 41.281-34.326 69.427-32.357-23.128-2.965-66.943-4.07-99.513 11.008-43.22 20.009-26.494 68.846 33.385 78.751 37.387 6.184 45.815 47.18 12.372 65.054-30.881 16.505-59.047 40.298-68.84 75.25-1.077 3.844 1.792 17.905 1.792 17.905l33.864 51.38s76.157 23.542 113.771-1.451c22.729-15.102 16.661-81.212 13.105-86.232-6.527-9.214-8.585-21.405.794-43.881z" fill="#00ebc4"/><path d="m369.217 162.361c7.886 40.053-20.439 64.367-41.138 43.988-13.9-13.685-2.614-26.179 1.853-39.036 3.284-9.453 8.767-35.102-.44-53.389 18.552 2.844 37.638 37.838 39.725 48.437z" fill="#00ebc4"/><path d="m182.754 291.787c-21.707-.59-37.377-7.219-41.616-24.174-4.504-18.015 11.657-45.215 52.145-59.475-1.631 26.27 10.34 35.889 16.476 50.091 7.655 17.715-3.849 32.947-27.005 33.558z" fill="#a2f4e3"/><path d="m291.662 266.769c-1.649-22.159-7.859-29.277-17.301-42.605-6.527-9.213-13.452-18.04-4.074-40.516 15.771-37.794 0-72.369-19.258-85.97-6.389-4.513-14.199-8.012-22.613-10.984 14.381 12.806 30.533 60.809 17.328 101.593-5.173 15.975 1.136 25.653 3.397 33.786 3.343 12.023 4.791 25.093 3.223 34.149-14.601 84.325-130.785 56.275-154.876-9.426-1.078 3.845-1.942 7.82-2.554 11.941-16.116 108.541 206.336 137.104 196.728 8.032z" fill="#45b1c6"/><path d="m457.143 294.368-60.799-39.371-32.6 1.523c-30.892 6.366-62.929 15.488-78.726 20.135-21.541 6.336-43.414 16.306-37.591 40.548 5.226 21.757 24.059 25.163 54.456 17.78 0 0 43.763-9.289 48.549-8.111 30.134 7.417-16.917 41.354-27.948 47.972-19.466 11.679-80.981 41.028-94.869 41.919-13.888.89-130.186-38.88-130.186-38.88-20.001-4.922-30.045 10.04-34.313 22.248-.666 1.904-1.195 3.987-1.54 6.178 1.175 16.201 8.714 22.168 25.004 29.16 0 0 103.639 43.471 137.626 43.881 11.989.145 110.557-22.51 169.799-34.319 2.543-.914 4.975-1.815 7.283-2.703l35.888 19.714 32.078-14.375z" fill="#e79d8e"/><g fill="#df768f"><path d="m394.004 445.03c-16.297-8.952-35.227-11.858-53.463-8.229-53.666 10.682-113.149 21.665-122.209 21.556-28.957-.349-143.696-39.979-143.696-39.979-6.577-2.823-10.703-7.186-13.06-12.07-1.869 11.859 1.639 26.893 17.928 33.885 0 0 110.521 48.422 144.508 48.831 11.988.145 115.923-24.566 169.992-43.994z"/><path d="m483.506 320.031s1.061-17.621-9.611-35.866c-14.035-23.995-37.49-37.738-75.515-33.413-10.68 1.215-22.571 3.281-34.636 5.768 22.395 1.628 44.99 18.545 50.849 24.014 5.859 5.468 15.624 13.671 19.85 23.045 6.383 14.158 2.834 28.503 2.829 35.624l-.096 122.839 67.836 37.263.13-165.456z"/></g></g><g fill="#4e0325"><path d="m209.121 244.371c-5.625-9.487-10.937-18.447-9.856-35.861.125-2.006-.765-3.942-2.368-5.153-1.604-1.211-3.707-1.537-5.604-.871-19.744 6.954-35.533 17.422-45.66 30.272-9.352 11.867-13.11 25.101-10.308 36.308 4.581 18.324 20.484 27.984 47.267 28.713.054.001.109.002.163.002.053 0 .105-.001.158-.002 14.018-.37 25.365-5.761 31.132-14.791 4.978-7.795 5.41-17.432 1.217-27.136-1.792-4.144-4.003-7.874-6.141-11.481zm-5.179 32.164c-3.572 5.593-11.289 8.962-21.189 9.257-31.114-.895-34.641-14.995-35.801-19.633-3.129-12.517 7.63-35.083 40.293-49.228.843 15.466 6.49 24.992 11.565 33.553 2.037 3.434 3.96 6.68 5.447 10.121 2.603 6.023 2.494 11.532-.315 15.93z"/><path d="m344.316 223.661c4.802 0 9.603-1.191 14.119-3.623 14.545-7.829 26.55-29.296 20.582-59.606-2.477-12.582-23.448-52.614-48.011-56.381-3.692-.564-7.398.977-9.595 4.003-2.197 3.025-2.522 7.023-.84 10.362 7.657 15.209 2.543 38.087-.074 45.62-.79 2.275-1.917 4.705-3.11 7.279-4.882 10.535-12.26 26.453 3.685 42.152 6.819 6.713 15.035 10.194 23.244 10.194zm-8.805-43.946c1.346-2.905 2.739-5.908 3.856-9.123.327-.94 5.408-15.881 5.19-33.33 7.451 9.548 13.785 21.57 14.86 27.029 3.802 19.311-2.379 33.813-10.45 38.158-4.55 2.452-9.223 1.369-13.88-3.217-5.374-5.292-4.717-8.423.424-19.517z"/><path d="m507.923 325.572-14.529-10.671c-.468-7.553-2.54-21.526-10.877-35.779-17.466-29.86-46.15-42.75-85.266-38.293-29.273 3.329-67.82 12.977-96.033 20.808-2.227-20.185-8.679-29.215-16.711-40.448-.648-.906-1.313-1.836-1.995-2.798l-.502-.708c-5.729-8.065-9.512-13.393-2.505-30.188 17.152-41.102 1.099-81.156-22.714-97.973-14.156-9.998-33.264-15.185-51.742-20.202-20.828-5.655-42.366-11.501-44.626-22.279-.369-1.76-.323-3.779 2.484-6.621 8.914-9.026 33.757-14.41 52.585-13.932 4.574.385 8.318.806 10.948 1.134 8.127 1.014 11.278-4.948 11.807-8.245.854-5.312-2.726-10.363-8.005-11.401-3.676-.724-7.954-1.178-12.61-1.348-23.556-1.991-68.447-3.146-101.268 12.049-21.15 9.791-32.236 27.003-29.653 46.04 3.437 25.34 29.189 45.604 65.605 51.628 13.476 2.229 22.935 10.207 24.686 20.819 1.646 9.98-4.107 19.54-15.392 25.571-45.06 24.083-70.817 55.889-76.555 94.534-4.988 33.595 10.4 64.287 42.22 84.205 20.021 12.533 45.045 19.922 70.463 20.807 1.686.059 3.363.088 5.033.088 22.774 0 43.917-5.44 60.469-15.537 10.363 2.767 23.657 2.056 40.857-2.109 17.897-3.795 39.513-7.807 44.663-7.963.444.127.815.25 1.122.365-.988 2.093-3.926 6.674-12.562 14.269-7.621 6.701-16.12 12.574-19.973 14.886-22.252 13.352-79.765 39.711-90.283 40.51-9.192-.096-71.419-19.555-126.401-38.357-.278-.096-.56-.178-.845-.248-20.82-5.127-38.063 5.585-46.129 28.649-6.52 18.643-1.099 42.677 21.808 52.509 11.503 5.04 113.39 49.249 148.396 49.671.044.001.088.001.134.001 14.39-.003 123.269-26.162 176.299-45.655l92.391 54.548c1.594.941 3.343 1.389 5.068 1.389 3.418-.001 6.747-1.756 8.611-4.912 2.804-4.75 1.227-10.875-3.523-13.679l-96.507-56.977c-2.628-1.552-5.816-1.814-8.663-.722-50.996 19.607-162.251 45.983-173.57 46.033-26.206-.316-110.393-34.752-140.689-48.023-17.662-7.581-11.184-26.774-10.899-27.588 6.654-19.025 17.852-16.963 22.082-15.947 3.73 1.272 31.115 10.586 59.652 19.693 63.417 20.235 70.549 19.784 73.977 19.558 17.452-1.119 83.212-33.628 99.369-43.323 4.227-2.536 14.774-9.645 24.441-18.4 13.735-12.441 19.481-22.552 18.084-31.823-.687-4.556-3.851-12.694-17.329-16.012-2.099-.517-7.011-1.726-53.011 8.038-.095.021-.189.042-.284.064-17.216 4.182-29.181 4.323-35.568.423-2.122-1.296-5.138-3.829-6.818-10.83-2.64-10.99 1.57-20.065 30.697-28.632 26.625-7.831 76.537-21.564 111.674-25.561 30.958-3.517 52.474 5.811 65.764 28.531 8.887 15.194 8.267 30.128 8.262 30.223-.204 3.386 1.325 6.644 4.058 8.651l18.506 13.591c4.445 3.265 10.698 2.309 13.962-2.137 3.264-4.448 2.307-10.699-2.14-13.964zm-258.429-42.971c-11.22 9.532-15.294 22.304-11.78 36.934 1.374 5.72 3.579 10.63 6.58 14.71-30.635 13.633-74.689 10.162-106.42-9.702-14.561-9.115-38.219-29.594-33.06-64.339 4.759-32.046 27.035-58.912 66.212-79.85 18.902-10.102 28.744-27.897 25.685-46.439-3.139-19.032-19.286-33.664-41.136-37.279-31.358-5.186-47.24-21.117-49.07-34.603-1.381-10.181 5.101-19.141 18.252-25.229 6.485-3.001 13.581-5.266 20.937-6.953-4.761 6.355-6.427 13.635-4.822 21.288 4.77 22.753 32.31 30.228 58.943 37.459 16.804 4.561 34.179 9.278 45.452 17.24 13.935 9.842 30.548 38.626 15.802 73.964-11.275 27.021-2.069 39.984 4.654 49.448l.488.688c.699.987 1.381 1.941 2.045 2.87 8.028 11.229 12.078 16.9 13.421 34.421-10.189 3.02-22.909 7.495-32.183 15.372z"/><path d="m431.278 333.536v11.292c0 3.31 2.683 5.993 5.993 5.993s5.993-2.683 5.993-5.993v-11.292c0-3.31-2.683-5.993-5.993-5.993s-5.993 2.684-5.993 5.993z"/><path d="m405.345 377.617v11.291c0 3.31 2.683 5.993 5.993 5.993s5.993-2.683 5.993-5.993v-11.291c0-3.31-2.683-5.993-5.993-5.993s-5.993 2.683-5.993 5.993z"/><path d="m458.519 412.988v11.292c0 3.31 2.683 5.993 5.993 5.993s5.993-2.683 5.993-5.993v-11.292c0-3.31-2.683-5.993-5.993-5.993s-5.993 2.684-5.993 5.993z"/></g><g fill="#fff"><path d="m204.312 189.741c-2.166 0-4.348-.701-6.182-2.148-4.33-3.418-5.069-9.699-1.652-14.029 3.925-4.973 6.882-10.363 8.791-16.022 1.763-5.226 7.429-8.035 12.657-6.272 5.227 1.764 8.035 7.43 6.272 12.657-2.642 7.834-6.693 15.24-12.039 22.013-1.971 2.498-4.894 3.801-7.847 3.801z"/><path d="m215.6 134.501c-3.892 0-7.59-2.288-9.203-6.098-.674-1.594-1.444-3.176-2.287-4.703-2.665-4.83-.911-10.906 3.919-13.571 4.829-2.666 10.906-.912 13.572 3.918 1.176 2.131 2.25 4.342 3.193 6.57 2.15 5.08-.225 10.941-5.305 13.091-1.271.537-2.591.793-3.889.793z"/></g><g><path d="m32.953 109.062-8.243 23.179c-.353.992-1.052 1.779-1.933 2.176l-20.594 9.278c-2.91 1.311-2.91 5.946 0 7.257l20.594 9.278c.882.397 1.58 1.184 1.933 2.176l8.243 23.179c1.164 3.275 5.283 3.275 6.448 0l8.243-23.179c.353-.992 1.052-1.779 1.934-2.176l20.594-9.278c2.909-1.311 2.909-5.946 0-7.257l-20.594-9.278c-.882-.397-1.581-1.184-1.934-2.176l-8.244-23.179c-1.164-3.275-5.283-3.275-6.447 0z" fill="#a2f4e3"/><path d="m302.826 11.33-6.115 17.194c-.262.736-.78 1.319-1.434 1.614l-15.276 6.882c-2.158.972-2.158 4.411 0 5.383l15.276 6.882c.654.295 1.172.878 1.434 1.614l6.115 17.194c.864 2.429 3.919 2.429 4.783 0l6.115-17.194c.262-.736.78-1.319 1.434-1.614l15.276-6.882c2.158-.972 2.158-4.411 0-5.383l-15.276-6.882c-.654-.295-1.172-.878-1.434-1.614l-6.115-17.194c-.864-2.429-3.919-2.429-4.783 0z" fill="#a2f4e3"/><g fill="#00ebc4"><ellipse cx="27.593" cy="322.646" rx="18" ry="18" transform="matrix(.526 -.851 .851 .526 -261.373 176.492)"/><ellipse cx="53.357" cy="10.469" rx="7.765" ry="7.765" transform="matrix(.383 -.924 .924 .383 23.266 55.758)"/></g></g></g></svg>