<svg id="Capa_1" enable-background="new 0 0 512 512" height="512" viewBox="0 0 512 512" width="512" xmlns="http://www.w3.org/2000/svg"><g><g><path d="m380.951 424.173-21.344-2.389c-30.695 11.814-66.016 18.529-103.607 18.529-36.764 0-71.357-6.422-101.578-17.761-51.423-19.252-90.141-52.692-105.263-92.741l-4.088-16.365c-1.847 7.828-7.563 29.99-7.563 38.18 0 2.984-.251 9.408 0 12.349 4.63 23.114 17.51 37.618 31.349 55.759 35.825 46.992 105.063 72.786 187.143 72.786 51.131 0 124.951-68.347 124.951-68.347z" fill="#ffe35c"/><path d="m468.17 307.913-5.33 21.898c-14.914 39.525-52.81 72.611-103.233 91.973-.065.025-.132.048-.197.073-32.015 29.992-83.43 49.447-141.426 49.447-67.485 0-126.078-26.333-155.533-64.969-12.565-16.47-19.805-35.18-20.201-55.039-.021.853-4.742 5.956-4.742 6.813 0 24.93 13.599 44.168 29.32 64.776 35.826 46.992 107.092 79.021 189.172 79.021 82.908 0 154.78-32.675 190.252-80.445 15.045-20.265 29.021-37.145 29.021-61.5 0-8.19-5.256-44.22-7.103-52.048z" fill="#ffac62"/><path d="m501.261 314.33c0 35.178-15.448 67.853-41.893 94.964l-12.349 12.167h-.768c15.045-20.265 23.537-43.246 23.537-67.601 0-81.767-95.712-148.046-213.788-148.046s-213.788 66.279-213.788 148.046c0 24.93 8.896 48.416 24.617 69.025h-.687l-11.43-11.491c-27.717-27.515-43.973-60.967-43.973-97.064 0-93.793 109.807-169.835 245.261-169.835s245.261 76.042 245.261 169.835z" fill="#fff2a5"/><path d="m139.851 176.16c-6.736 9.251-6.117 15.639-1.308 27.77 19.312 48.725 111.707 108.146 149.923 99.527 24.754-7.636 27.217-40.65 38.166-62.204 12.271-27.017 48.498-34.994 48.498-57.143l-22.278-27.43-32.91-23.579z" fill="#ffe35c"/><path d="m319.94 133.101-24.18 5.782 48.001 34.39c0 18.296-35.636 32.722-45.772 55.039-9.044 17.805-13.532 45.094-33.98 51.401-33.77 7.617-121.918-51.155-128.98-92.265-8.799 49.356 112.101 133.099 156.243 123.144 24.754-7.636 30.187-40.673 41.136-62.227 12.271-27.017 55.412-44.481 55.412-66.631z" fill="#ffac62"/><path d="m157.549 144.867c-.778 1.176-1.444 2.39-2.003 3.638-6.672 45.515 85.803 114.109 123.43 104.767 20.084-6.82 19.161-31.988 28.045-51.24 9.956-24.13 40.275-34.198 40.275-53.98 0-27.541-27.235-93.409-74.856-98.894-7.988-.92-14.658-4.903-21.285-4.115-49.08 5.836-64.12 55.243-93.606 99.824z" fill="#98e8f2"/><path d="m273.018 45.182c-8.389-.966-15.963-.925-22.858-.014 37.725 5.212 67.76 61.854 67.76 83.743 0 15.853-28.049 28.353-36.027 47.69-7.119 15.427-10.651 39.072-26.745 44.538-24.806 6.159-86.888-37.781-99.587-72.628-19.137 42.74 87.218 125.765 124.844 116.423 20.084-6.82 24.492-36.327 33.375-55.579 9.956-24.13 44.958-39.728 44.958-59.512 0-27.539-38.099-99.176-85.72-104.661z" fill="#a6aff4"/><g fill="#ffe35c"><path d="m86.479 191.765c-9.356 22.423-33.343 35.803-59.904 36.03 7.051 6.314 15.613 11.571 25.433 15.219 34.712 12.898 72.493 1.211 87.252-26.082.824-1.525 1.577-3.098 2.253-4.719 12.781-30.629-6.571-66.498-43.223-80.116-9.82-3.649-19.881-5.312-29.602-5.229 19.268 17.254 27.148 42.474 17.791 64.897z"/><path d="m425.521 191.765c9.356 22.423 33.343 35.803 59.904 36.03-7.051 6.314-15.613 11.571-25.433 15.219-34.712 12.898-72.493 1.211-87.252-26.082-.825-1.525-1.577-3.098-2.253-4.719-12.781-30.629 6.571-66.498 43.223-80.116 9.82-3.649 19.881-5.312 29.602-5.229-19.268 17.254-27.148 42.474-17.791 64.897z"/></g></g><g fill="#4e0325"><path d="m487.971 238.809c1.428-1.126 2.834-2.279 4.189-3.492 3.106-2.782 4.184-7.186 2.711-11.087-1.472-3.901-5.191-6.496-9.361-6.532-5.469-.047-10.744-.734-15.721-1.979-10.337-11.128-22.424-21.434-36.009-30.702-5.62-17.002.56-36.56 16.266-50.626 3.106-2.782 4.184-7.186 2.711-11.087-1.472-3.901-5.191-6.496-9.361-6.532-11.311-.094-22.478 1.876-33.204 5.861-16.807 6.245-30.981 17-40.567 30.443-.317-.11-.63-.226-.947-.335.102-.951.157-1.915.157-2.896 0-16.864-10.785-43.55-26.837-66.405-11.551-16.447-35.722-44.59-67.825-48.288-27.295-3.14-49.517 3.307-67.945 19.721-15.897 14.159-27.177 33.8-39.118 54.595-5.655 9.849-11.502 20.032-17.983 29.829-2.345 3.546-4.374 7.958-5.364 13.298-.464.16-.93.314-1.392.476-9.585-13.441-23.758-24.193-40.563-30.438-10.726-3.986-21.932-5.922-33.205-5.861-4.17.035-7.888 2.631-9.361 6.532s-.395 8.306 2.711 11.087c15.704 14.065 21.885 33.621 16.268 50.621-13.584 9.268-25.688 19.581-36.027 30.712-4.972 1.242-10.242 1.929-15.705 1.975-4.17.036-7.889 2.631-9.361 6.532-1.473 3.901-.395 8.306 2.711 11.087 1.356 1.215 2.764 2.369 4.194 3.496-15.327 23.487-23.387 49.42-23.387 75.52 0 37.694 16.236 73.734 46.909 104.179l11.425 11.491c.457.459.949.859 1.464 1.212 10.275 12.953 23.21 24.945 38.635 35.627 42.052 29.12 97.781 45.157 156.921 45.157s114.869-16.037 156.921-45.157c15.968-11.058 29.275-23.516 39.716-36.996.516-.346 1.009-.74 1.468-1.192l12.352-12.171c.047-.046.095-.094.141-.141 29.279-30.014 44.755-65.287 44.755-102.009.001-26.467-7.865-51.846-23.382-75.525zm-107.444-64.291c6.362-14.642 19.738-26.654 36.699-32.956.798-.297 1.6-.58 2.404-.848-9.298 17.369-10.84 37.177-3.427 54.939 7.295 17.48 22.432 30.788 41.401 37.466-.375.146-.75.29-1.128.43-29.543 10.977-62.423 1.568-74.854-21.42-.665-1.229-1.276-2.509-1.816-3.803-4.477-10.727-4.228-22.418.721-33.808zm-214.556-24.081c6.831-10.329 12.84-20.793 18.652-30.913 23.251-40.491 40.063-69.75 87.238-64.311 24.268 2.795 44.006 26.155 53.611 39.832 15.048 21.426 23.167 44.226 23.167 54.799 0 6.221-9.009 14.643-17.72 22.788-9.802 9.165-20.906 19.546-26.392 32.675-2.423 5.281-4.505 11.161-6.519 16.849-5.106 14.415-10.382 29.316-20.45 33.074-19.918 4.299-75.718-29.081-102.224-66.612-4.68-6.626-11.03-17.219-11.864-26.82.222-1.21.222-2.473-.024-3.735.221-2.726.995-5.313 2.525-7.626zm-10.505 44.802c1.049 1.644 2.164 3.317 3.373 5.028 13.647 19.324 36.018 39.819 59.84 54.823 13.044 8.217 35.995 20.666 55.26 20.666 3.078 0 6.063-.318 8.897-1.022.275-.068.546-.148.815-.239 19.602-6.657 26.929-27.345 33.394-45.598 1.971-5.568 3.834-10.827 5.904-15.31.057-.125.112-.252.166-.38 3.783-9.169 12.839-17.636 21.597-25.824 5.424-5.071 10.929-10.222 15.31-15.751-3.856 11.265-4.563 22.974-2.107 34.118-.799.682-1.59 1.358-2.419 2.061-11.969 10.163-25.525 21.676-32.187 36.173-2.974 5.886-5.536 12.458-8.015 18.817-6.733 17.27-13.094 33.59-26.624 38.023-14.46 2.981-42.7-7.116-72.169-25.823-29.061-18.447-53.403-41.475-64.815-61.104 2.244-6.023 3.505-12.299 3.78-18.658zm-11.204 43.397c14.481 18.392 36.133 37.364 61.417 53.414 29.774 18.9 57.926 29.403 77.932 29.403 3.565 0 6.872-.333 9.883-1.013.254-.057.506-.124.754-.201 23.107-7.128 32.008-29.96 39.861-50.105 2.436-6.247 4.736-12.147 7.302-17.197.066-.131.13-.264.191-.398 2.955-6.508 8.433-12.673 14.775-18.632 50.293 19.426 85.501 52.014 98.148 89.196-9.98 29.303-34.406 56.051-68.967 75.444-36.396 20.423-82.408 31.672-129.558 31.672-46.959 0-91.117-10.595-127.701-30.641-34.769-19.052-59.709-45.59-70.223-74.726-.203-.562-.459-1.089-.746-1.591 11.476-34.383 42.141-64.631 86.932-84.625zm-48.465-42.983c7.412-17.762 5.871-37.57-3.427-54.939.804.268 1.606.551 2.404.848 14.697 5.461 26.693 15.213 33.776 27.245.021.059.035.119.058.178.373.979.883 1.865 1.499 2.648.484.95.944 1.911 1.367 2.885 4.949 11.39 5.199 23.081.724 33.806-.541 1.296-1.153 2.577-1.817 3.805-12.431 22.988-45.311 32.396-74.853 21.421-.378-.141-.754-.285-1.129-.431 18.969-6.679 34.105-19.984 41.398-37.466zm-63.21 168.495c-7.754-15.958-11.747-32.73-11.747-49.814 0-22.646 6.873-44.447 20.398-64.912 2.359 1.109 4.773 2.136 7.254 3.058 9.385 3.486 19.183 5.418 28.929 5.797-5.26 4.898-10.137 10.008-14.559 15.322-20.116 24.179-30.75 51.932-30.75 80.257 0 3.451.17 6.882.475 10.292zm223.413 127.658c-110.069 0-200.015-59.434-203.571-133.402 35.844 55.311 114.705 92.009 203.571 92.009 51.287 0 99.505-11.845 139.44-34.254 27.608-15.492 49.564-35.437 64.137-57.869-3.47 74.021-93.452 133.516-203.577 133.516zm178.606-233.53c9.735-.382 19.527-2.313 28.902-5.797 2.486-.924 4.906-1.954 7.269-3.065 13.527 20.482 20.382 42.299 20.382 64.919 0 17.043-3.998 33.805-11.742 49.761.302-3.393.47-6.806.47-10.239.001-35.224-16.376-68.589-45.281-95.579z"/><path d="m309.918 155.079c3.346 0 6.058-2.713 6.058-6.058v-10.016c0-3.346-2.713-6.058-6.058-6.058-3.346 0-6.058 2.713-6.058 6.058v10.016c0 3.346 2.713 6.058 6.058 6.058z"/><path d="m278.237 196.13c3.346 0 6.058-2.713 6.058-6.058v-10.016c0-3.346-2.713-6.058-6.058-6.058-3.346 0-6.058 2.713-6.058 6.058v10.016c0 3.345 2.713 6.058 6.058 6.058z"/></g><g fill="#fff"><path d="m206.529 151.809c-1.768 0-3.559-.465-5.186-1.442-4.781-2.868-6.331-9.072-3.462-13.853 2.101-3.502 4.152-7.074 6.135-10.527 2.91-5.068 5.659-9.855 8.605-14.535 2.969-4.72 9.204-6.138 13.923-3.168 4.72 2.971 6.138 9.205 3.167 13.924-2.727 4.336-5.378 8.95-8.183 13.836-2.03 3.536-4.131 7.192-6.333 10.861-1.891 3.155-5.237 4.904-8.666 4.904z"/><path d="m248.485 99.821c-3.87 0-7.563-2.238-9.235-6.004-2.263-5.097.035-11.063 5.132-13.325 2.963-1.315 6.089-2.367 9.291-3.125 5.427-1.28 10.867 2.074 12.152 7.5 1.284 5.427-2.074 10.867-7.5 12.152-1.991.47-3.924 1.12-5.749 1.93-1.332.591-2.722.872-4.091.872z"/></g><g><path d="m400.829 2.471-8.294 23.322c-.355.998-1.058 1.79-1.945 2.189l-20.721 9.335c-2.927 1.319-2.927 5.983 0 7.302l20.721 9.335c.887.4 1.59 1.191 1.945 2.19l8.294 23.322c1.172 3.295 5.316 3.295 6.488 0l8.294-23.322c.355-.999 1.058-1.79 1.945-2.19l20.721-9.335c2.927-1.319 2.927-5.983 0-7.302l-20.721-9.335c-.887-.4-1.59-1.191-1.945-2.189l-8.294-23.322c-1.172-3.295-5.316-3.295-6.488 0z" fill="#fff2a5"/><path d="m66.806 28.245-6.152 17.3c-.264.741-.785 1.328-1.443 1.624l-15.371 6.925c-2.171.979-2.171 4.438 0 5.417l15.371 6.925c.658.296 1.18.883 1.443 1.624l6.152 17.3c.869 2.444 3.943 2.444 4.812 0l6.153-17.3c.263-.741.785-1.328 1.443-1.624l15.37-6.925c2.171-.978 2.171-4.438 0-5.417l-15.37-6.925c-.658-.297-1.18-.883-1.443-1.624l-6.153-17.3c-.869-2.444-3.943-2.444-4.812 0z" fill="#fff2a5"/><g fill="#ffe35c"><path d="m145.452 18.111c0 10.002 8.109 18.111 18.111 18.111s18.111-8.109 18.111-18.111-8.109-18.111-18.111-18.111-18.111 8.109-18.111 18.111z"/><circle cx="483.892" cy="88.457" r="7.573"/></g></g></g></svg>