<svg id="Capa_1" enable-background="new 0 0 512 512" height="512" viewBox="0 0 512 512" width="512" xmlns="http://www.w3.org/2000/svg"><g><g><path d="m248.698 442.385 99.453-103.54-39.509-44.504c-10.584-36.992-34.396-49.385-74.022-47.229-18.886-33.312-37.636-48.055-61.306-44.504-11.304-24.729-31.264-38.878-56.765-36.795-6.998-20.272-18.284-27.4-40.417-26.782-13.733-13.341-41.958-20.848-41.958-20.848l-5.956 12.248c9.033 16.33 19.53 29.379 37.037 44.689 4.438 22.051 15.687 40.488 36.343 53.937.688 33.434 16.167 55.575 44.944 66.702 5.648 45.797 24.816 70.636 53.439 79.31 5.247 19.006 12.789 36.206 22.731 51.486z" fill="#ffc5dd"/><path d="m411.831 347.767c-20.611-35.788-54.429-51.695-95.512-57.242-10.584-36.992-36.434-53.405-76.06-51.249-18.886-33.312-40.474-46.771-64.144-43.22-11.304-24.729-28.446-38.432-53.947-36.349-6.998-20.272-21.49-30.011-43.622-29.393-13.734-13.342-32.754-18.758-54.759-30.863-4.359-2.397-9.272 2.074-7.293 6.638 3.946 9.1 7.69 17.048 11.726 24.343 4.855 2.676 9.263 5.616 13.125 9.368 17.168-.479 28.408 7.074 33.836 22.798 19.78-1.616 33.076 9.014 41.844 28.194 18.36-2.755 35.105 7.685 49.754 33.523 23.691-1.289 41.035 5.98 51.5 22.521 6.485 10.251 16.252 18.082 27.922 21.39 22.629 6.413 41.235 18.672 53.658 40.241 8.599 14.931 14.337 30.951 2.154 43.134l-67.853 67.853c-3.419 3.42-7.339 5.74-11.439 7.098 10.714 16.464 24.207 30.704 40.627 42.563.033.241.067.48.101.719 4.41 30.52 41.877 42.826 63.683 21.021l87.479-87.479c15.705-15.706 8.306-36.36-2.78-55.609z" fill="#ff94de"/><path d="m384.532 35.716-11.55 10.754c-12.916 37.044-22.441 65.937-62.673 76.59-34.72 9.193-62.373-9.499-90.481-31.86-24.344-19.367-74.085-51.731-95.451-58.839-34.419-11.45-78.101 11.292-93.424 34.381 45.897-5.027 67.915-3.799 98.638 10.365 18.96 8.741 53.596 40.142 70.388 52.548 25.241 18.648 49.212 30.892 91.113 35.558s71.703-18.948 83.902-33.077c12.198-14.129 20.235-33.354 32.29-62.922l11.321-32.587z" fill="#ffe35c"/><path d="m133.862 47.098c21.366 7.108 55.794 32.316 80.138 51.683 28.107 22.361 65.072 40.498 99.792 31.305 40.231-10.652 54.026-45.414 66.942-82.457l3.797-11.914-30.136-.806c-9.681 28.218-19.56 50.754-44.691 63.6-14.271 7.295-31.902 2.347-46.359-4.571-14.458-6.918-32.766-20.051-44.888-29.895-20.438-16.597-35.607-27.269-58.785-39.758s-50.037-18.312-75.331-11.008c-27.221 7.861-50.359 29.388-59.346 54.134 2.036-.236 4.011-.456 5.959-.669 20.641-21.96 68.489-31.094 102.908-19.644z" fill="#a2f4e3"/></g><g fill="#4e0325"><path d="m420.592 342.722c-19.411-33.706-51.033-53.789-96.553-61.264-12.219-34.727-39.032-52.796-78.11-52.471-18.138-29.583-39.542-44.201-63.816-43.592-12.544-23.386-30.405-35.462-53.235-35.993-8.825-18.622-24.699-28.628-46.417-29.199-9.703-8.346-21.17-13.725-33.24-19.387-6.603-3.097-13.43-6.3-20.559-10.221-5.742-3.159-12.856-2.32-17.703 2.093-4.845 4.409-6.347 11.411-3.741 17.423 12.422 28.646 23.569 47.7 48.863 70.392 5.286 22.536 17.255 40.677 35.637 54.029 2.14 32.102 17.796 55.547 45.595 68.305 6.426 41.961 24.709 68.865 54.42 80.105 11.626 38.43 32.578 69.31 62.36 91.902 3.606 16.251 15.364 29.36 31.386 34.686 4.999 1.661 10.117 2.471 15.18 2.471 12.416 0 24.495-4.871 33.62-13.996l87.478-87.478c24.039-24.04 5.728-55.836-1.165-67.805zm-389.055-227.917c3.094 1.502 6.117 2.919 9.096 4.316 10.122 4.749 19.107 8.968 26.367 14.566l-6.781 22.86c-13.043-13.258-20.922-25.52-28.682-41.742zm44.106 60.458c.199-.434.377-.883.516-1.355l9.854-33.221c12.975 1.381 21.188 8.015 26.035 20.827-.066 16.835-5.325 35.713-14.368 51.901-11.256-9.98-18.506-22.568-22.037-38.152zm36.079 54.107c11.284-17.832 18.511-39.395 20.178-59.503 14.545 1.607 25.526 10.78 34.019 28.266-1.491 37.933-8.872 65.935-22.507 85.211-20.639-10.337-31.024-28.07-31.69-53.974zm45.424 69.369c16.815-21.597 26.229-52.148 28.646-93.026 16.129 1.098 30.717 13.05 44.356 36.273-.102 41.093-11.697 81.643-34.505 120.688-20.96-9.463-33.603-30.488-38.497-63.935zm53.801 77.773c24.699-41.009 37.891-83.756 39.299-127.272 29.532.876 47.443 14.61 55.922 42.641-1.244 50.308-16.366 103.348-46.155 161.768-23.108-19.561-39.573-45.447-49.066-77.137zm196.512 19.716-87.478 87.479c-7.51 7.513-18.027 9.99-28.124 6.635-9.244-3.073-15.805-10.302-17.949-19.583 31.9-60.467 48.999-115.731 52.062-168.424 36.754 7.04 61.417 23.245 77.099 50.476 15.395 26.732 10.859 36.949 4.39 43.417z"/><path d="m359.933 344.947c-3.35 0-6.066 2.716-6.066 6.066v8.326c0 3.35 2.716 6.066 6.066 6.066s6.066-2.716 6.066-6.066v-8.326c0-3.35-2.716-6.066-6.066-6.066z"/><path d="m274.472 317.402c3.35 0 6.066-2.716 6.066-6.066v-8.326c0-3.35-2.716-6.066-6.066-6.066s-6.066 2.716-6.066 6.066v8.326c.001 3.35 2.717 6.066 6.066 6.066z"/><path d="m345.098 393.838c-3.35 0-6.066 2.716-6.066 6.066v8.326c0 3.35 2.716 6.066 6.066 6.066s6.066-2.716 6.066-6.066v-8.326c0-3.35-2.716-6.066-6.066-6.066z"/><path d="m14.896 67.696c.006.214.022.426.042.639.007.08.006.158.015.238.005.044.016.086.022.13.027.206.063.41.102.613.026.135.05.271.081.404.041.171.09.338.139.506.045.157.089.316.142.469.048.141.106.278.16.417.067.169.131.338.206.501.062.135.133.265.2.397.08.155.156.311.242.46.093.16.196.314.297.469.072.109.14.222.216.328.145.205.303.401.464.595.039.048.076.098.116.145.202.235.417.461.642.677l.009.009c.453.436.951.83 1.489 1.181.013.008.025.018.038.026.23.148.469.284.713.415.055.03.11.062.165.091.206.105.42.2.635.292.102.044.203.089.307.129.07.027.135.061.205.086.126.046.255.076.382.117.126.04.251.081.379.116.198.055.397.101.597.144.123.026.246.052.371.074.213.037.425.065.638.088.114.012.227.025.342.033.227.017.452.024.677.025.108.001.215.002.324-.001.229-.006.457-.022.683-.044.073-.007.146-.005.219-.014 48.013-5.549 69.082-5.052 99.203 8.834 11.939 5.504 32.25 22.143 48.57 35.512 7.867 6.444 14.661 12.01 20.043 15.986 26.354 19.47 51.606 32.531 96.002 37.475 3.953.44 7.834.65 11.643.65 35.813-.002 64.908-18.497 81.03-37.168 13.021-15.082 21.006-33.845 33.999-65.712.067-.165.13-.331.189-.5l11.321-32.587c1.832-5.274-.958-11.035-6.233-12.867-5.271-1.83-11.034.958-12.867 6.233l-11.233 32.334c-12.134 29.757-19.555 47.232-30.48 59.885-4.998 5.788-32.106 34.423-75.131 29.637-39.895-4.444-62.57-16.167-86.224-33.642-4.975-3.676-11.906-9.354-19.244-15.365-18.109-14.834-38.632-31.646-52.919-38.232-23.979-11.052-43.109-14.709-70.041-13.874 21.031-7.075 47.196-8.173 68.165-1.196 21.799 7.251 58.398 34.862 78.275 50.675 17.739 14.113 49.904 35.059 84.527 35.056 6.798 0 13.697-.809 20.594-2.635 45.191-11.964 59.567-53.194 71.118-86.323.018-.051.035-.103.051-.155l5.336-16.739c1.017-3.192-.745-6.604-3.937-7.622-3.191-1.017-6.604.745-7.622 3.937l-5.312 16.661c-13.478 38.648-26.67 68.964-62.74 78.514-36.897 9.769-75.02-14.721-94.462-30.188-25.046-19.926-59.605-45.243-81.999-52.693-27.291-9.077-61.541-6.073-86.589 5.562 10.039-11.094 23.39-19.709 37.958-23.915 20.495-5.916 44.548-2.296 67.731 10.196 21.21 11.429 35.646 21.195 57.208 38.705 12.644 10.269 31.605 23.849 46.898 31.166 12.783 6.117 24.434 9.179 34.854 9.179 7.47 0 14.307-1.575 20.471-4.725 28.973-14.81 40.018-41.24 49.651-69.32 1.812-5.282-1.001-11.032-6.282-12.843-5.279-1.814-11.032 1-12.843 6.282-10.365 30.217-19.357 47.464-39.729 57.878-11.027 5.635-26.423.56-37.394-4.688-13.715-6.562-31.671-19.52-42.879-28.623-19.201-15.593-35.234-27.27-60.362-40.81-27.872-15.018-57.322-19.219-82.934-11.822-29.811 8.608-55.639 32.157-65.911 60.05-.013.032-.024.064-.037.096-.031.084-.065.166-.095.25-.027.074-.043.15-.069.224-.069.204-.133.408-.189.617-.035.13-.064.26-.094.39-.042.187-.082.375-.113.566-.026.159-.046.317-.065.476-.019.161-.036.322-.047.484-.013.191-.019.38-.021.57-.002.138-.003.273.001.409z"/></g><g fill="#fff"><path d="m137.946 253.077c-3.754 0-7.358-2.099-9.105-5.703-1.923-3.968-3.515-8.239-4.731-12.694-1.471-5.386 1.703-10.945 7.089-12.415 5.389-1.473 10.946 1.703 12.416 7.09.889 3.256 2.041 6.352 3.422 9.203 2.435 5.024.336 11.071-4.69 13.506-1.419.688-2.922 1.013-4.401 1.013z"/><path d="m189.665 333.327c-3.153 0-6.26-1.471-8.234-4.231-5.498-7.693-9.953-16.905-13.24-27.382-1.672-5.327 1.291-11.001 6.619-12.673 5.329-1.672 11.001 1.291 12.673 6.619 2.647 8.434 6.146 15.727 10.399 21.678 3.246 4.542 2.197 10.857-2.346 14.104-1.782 1.272-3.838 1.885-5.871 1.885z"/></g><g><path d="m403.792 193.471-8.305 23.351c-.355 1-1.06 1.792-1.948 2.192l-20.746 9.347c-2.931 1.321-2.931 5.991 0 7.311l20.746 9.347c.888.4 1.592 1.193 1.948 2.192l8.305 23.351c1.173 3.299 5.322 3.299 6.496 0l8.305-23.351c.356-1 1.059-1.792 1.948-2.192l20.746-9.347c2.931-1.32 2.931-5.99 0-7.311l-20.746-9.347c-.888-.4-1.592-1.193-1.948-2.192l-8.305-23.351c-1.173-3.299-5.323-3.299-6.496 0z" fill="#ffc5dd"/><path d="m476.605 45.489-6.16 17.321c-.264.742-.786 1.329-1.445 1.626l-15.389 6.933c-2.174.98-2.174 4.444 0 5.423l15.389 6.934c.659.297 1.181.885 1.445 1.626l6.16 17.321c.87 2.447 3.948 2.447 4.818 0l6.16-17.321c.264-.742.786-1.329 1.445-1.626l15.389-6.933c2.174-.98 2.174-4.444 0-5.423l-15.389-6.933c-.659-.297-1.181-.885-1.445-1.626l-6.16-17.321c-.87-2.448-3.948-2.448-4.818-.001z" fill="#ffc5dd"/><g fill="#ff8cc0"><path d="m261.226 18.811c0 10.015 8.118 18.133 18.133 18.133s18.133-8.119 18.133-18.133c0-10.015-8.118-18.134-18.133-18.134-10.015 0-18.133 8.119-18.133 18.134z"/><ellipse cx="491.815" cy="179.522" rx="7.582" ry="7.582" transform="matrix(.707 -.707 .707 .707 17.108 400.346)"/></g></g></g></svg>