<svg id="Capa_1" enable-background="new 0 0 512 512" height="512" viewBox="0 0 512 512" width="512" xmlns="http://www.w3.org/2000/svg"><g><g><path d="m35.998 100.289s-27.52-82.7-16.284-86.781 70.437 49.669 70.437 49.669l-4.971 46.004z" fill="#fff2a5"/><path d="m76.443 440.417h81.007c30.361-14.151 61.139-27.39 92.159-40.029 68.937-28.088 139.031-53.279 208.562-79.862-11.601-44.524-33.457-115.502-62.882-153.801-78.748-102.498-199.434-117.14-264.306-119.341-18.492.241-31.743 1.573-37.085 2.205-1.565.185-2.911 1.209-3.483 2.678-13.724 35.242-44.288 42.279-60.363 43.454-5.184.379-8.663 5.47-7.17 10.448 43.618 145.344 50.508 245.156 46.73 308.187z" fill="#ffa785"/><path d="m403.266 161.538c-81.089-105.543-215.287-115.661-277.873-114.044 55.747 1.568 148.046 16.743 206.47 92.786 36.611 47.652 72.589 191.236 72.589 191.236s-47.592-46.502-81.481-33.021c-36.865 14.666-54.832 79.523-54.832 79.523-48.198-19.383-80.236-39.847-147.722 14.715-14.588 11.794-32.195 19.268-50.806 21.622-3.659 61.037-17.32 87.586-17.32 87.586l62.28-7.876 4.593-6.113c100.61-93.702 135.473-69.781 200.358-43.687 0 0 24.019-75.685 69.316-93.705 10.189-4.053 24.646-1.027 35.987 4.546 34.27 8.814 67.633 41.413 67.633 41.413s-44.207-176.428-89.192-234.981z" fill="#ff7d87"/><path d="m274.162 147.219s-54.344-43.373-142.211-45.18c-12.256.884-22.65 2.336-30.504 3.701-8.885 1.544-14.636 10.249-12.618 19.038 61.145 266.244 25.742 369.287 25.742 369.287l3.847-.487c34.505-32.135 62.004-49.993 85.862-58.534l33.636-19.961 90.639 27.44c7.251-20.654 25.527-64.424 55.223-82.308l9.809-15.762-18.629-106.041z" fill="#ffc8b7"/><g fill="#ffa7b8"><path d="m424.824 355.111c-47.491-244.827-218.43-259.716-298.156-252.647 90.42 7.947 213.646 57.515 257.113 257.757 2.755-1.659 5.606-3.101 8.559-4.276 10.188-4.053 21.384-3.687 32.484-.833z"/><path d="m321.122 333.782c-22.918-76.61-60.304-127.911-120.752-158.602-11.063-5.617 36.979 102.262 19.175 204.715 0 0-6.667 30.166-15.265 55.152 45.708-16.363 78.051 1.467 120.684 18.612 0 0 1.194-4.305 3.591-11.135.533-30.509-.551-71.369-7.433-108.742z"/></g></g><g fill="#4e0325"><path d="m203.102 169.801c-2.65-1.346-5.518-1.116-7.675.61-4.626 3.705-3.259 9.073 2.497 31.67 9.639 37.842 27.581 108.281 15.677 176.781-.57 3.283 1.629 6.406 4.911 6.977.35.061.697.09 1.04.09 2.879 0 5.427-2.068 5.937-5.001 12.345-71.043-6.011-143.109-15.873-181.826-1.255-4.925-2.531-9.935-3.465-13.99 52.611 29.614 87.435 77.678 109.191 150.4.954 3.192 4.317 5.007 7.509 4.051 3.192-.954 5.006-4.317 4.051-7.509-23.919-79.956-63.257-131.513-123.8-162.253z"/><path d="m340.929 227.909c-3.332 0-6.033 2.701-6.033 6.033v11.367c0 3.332 2.701 6.033 6.033 6.033s6.033-2.701 6.033-6.033v-11.367c0-3.332-2.701-6.033-6.033-6.033z"/><path d="m366.516 288.262c-3.332 0-6.033 2.701-6.033 6.033v11.368c0 3.332 2.701 6.033 6.033 6.033s6.033-2.701 6.033-6.033v-11.368c0-3.331-2.701-6.033-6.033-6.033z"/><path d="m279.995 342.82c-3.332 0-6.033 2.701-6.033 6.033v11.368c0 3.332 2.701 6.033 6.033 6.033s6.033-2.701 6.033-6.033v-11.368c0-3.331-2.702-6.033-6.033-6.033z"/><path d="m502.213 394.075c-1.826-7.286-45.242-179.139-90.974-238.663-25.68-33.424-58.653-60.299-98.001-79.876-31.29-15.568-66.636-26.563-105.057-32.678-65.197-10.375-116.2-3.195-118.339-2.885-2.63.382-4.942 1.792-6.513 3.836-7.573-6.493-17.432-14.698-26.973-21.901-24.133-18.222-33.225-20.339-40.074-17.852-10.311 3.747-9.47 16.867-9.194 21.179.395 6.15 1.707 14.065 4.011 24.196 3.049 13.405 7.259 28.01 10.491 38.624-2.314 1.331-4.332 3.177-5.896 5.448-3.148 4.57-4.038 10.241-2.442 15.559 43.532 145.061 49.369 242.993 46.6 299.603-2.991 61.143-16.384 88.441-16.523 88.72-2.508 4.929-.563 10.964 4.361 13.499 1.472.757 3.044 1.116 4.593 1.116 3.646 0 7.165-1.99 8.949-5.456.616-1.198 15.137-30.076 18.592-94.664 3.111-58.148-2.488-158.409-46.635-306.342 16.203-1.649 49.249-9.615 65.235-46.321 14.853-1.5 57.072-4.456 107.181 3.594 82.609 13.272 146.429 48.549 189.687 104.853 32.194 41.904 64.712 148.855 79.369 201.34-12.572-8.894-28.709-18.342-45.536-23.048-56.248-268.983-263.331-256.878-325.965-246.623-6.557 1.073-12.442 4.85-16.147 10.359-3.708 5.515-4.985 12.395-3.505 18.878 30.894 135.322 36.172 226.842 35.16 279.787-.869 45.465-6.392 71.006-8.686 79.769-2.445 3.777-2.129 8.863 1.078 12.306 3.785 4.063 10.146 4.292 14.211.505 88.543-82.465 125.722-67.033 181.997-43.676 4.505 1.871 9.164 3.803 13.945 5.727 2.653 1.066 5.637.951 8.203-.316 2.565-1.266 4.47-3.567 5.237-6.324.208-.749 21.312-75.111 61.403-91.06 29.099-11.578 74.385 23.814 89.375 38.423 3.218 3.144 8.133 3.768 12.034 1.528 3.903-2.24 5.841-6.8 4.748-11.164zm-460.906-310.299c-8.571-27.869-12.92-47.325-14.023-57.499 8.811 5.132 24.713 16.912 46.521 35.87-9.222 12.948-21.737 18.933-32.498 21.629zm347.316 262.826c-39.24 15.611-61.836 70.162-69.937 93.624-1.247-.516-2.483-1.029-3.709-1.538-28.781-11.944-55.964-23.227-87.93-19.396-30.584 3.665-63.213 21.117-101.75 54.574 2.359-13.981 4.805-35.045 5.413-64.176 1.121-53.746-4.118-146.612-35.439-283.804-.753-3.297-.13-6.657 1.754-9.459 1.882-2.799 4.753-4.64 8.084-5.186 59.546-9.748 255.512-21.157 311.126 232.141-9.375-1.079-18.74-.31-27.612 3.22z"/></g><g fill="#fff"><path d="m136.811 171.576c-4.596 0-8.744-3.171-9.799-7.842-.628-2.78-1.269-5.582-1.924-8.408-1.253-5.41 2.117-10.811 7.527-12.064 5.41-1.25 10.812 2.117 12.065 7.528.662 2.861 1.312 5.698 1.948 8.514 1.224 5.417-2.176 10.799-7.593 12.023-.745.168-1.491.249-2.224.249z"/><path d="m157.873 287.489c-4.969 0-9.29-3.682-9.956-8.742-2.68-20.341-6.131-41.773-10.256-63.701-1.027-5.457 2.565-10.714 8.023-11.74 5.456-1.032 10.714 2.565 11.741 8.022 4.193 22.288 7.703 44.087 10.431 64.791.725 5.506-3.15 10.557-8.656 11.283-.446.058-.89.087-1.327.087z"/></g><g><path d="m465.574 71.609-8.26 23.225c-.354.994-1.054 1.782-1.937 2.18l-20.634 9.297c-2.915 1.313-2.915 5.958 0 7.272l20.634 9.297c.883.398 1.583 1.186 1.937 2.18l8.26 23.225c1.167 3.281 5.294 3.281 6.461 0l8.26-23.225c.354-.994 1.054-1.782 1.937-2.18l20.634-9.297c2.915-1.313 2.915-5.958 0-7.272l-20.634-9.297c-.884-.398-1.583-1.186-1.937-2.18l-8.26-23.225c-1.168-3.281-5.294-3.281-6.461 0z" fill="#ffc8b7"/><path d="m375.036 1.825-6.127 17.228c-.262.738-.782 1.322-1.437 1.617l-15.306 6.896c-2.162.974-2.162 4.42 0 5.394l15.306 6.896c.655.295 1.175.88 1.437 1.617l6.127 17.228c.866 2.434 3.927 2.434 4.792 0l6.127-17.228c.262-.737.782-1.322 1.437-1.617l15.306-6.896c2.162-.974 2.162-4.42 0-5.394l-15.306-6.896c-.655-.295-1.175-.88-1.437-1.617l-6.127-17.228c-.865-2.433-3.926-2.433-4.792 0z" fill="#ffc8b7"/><g fill="#ffa785"><path d="m404.321 435.623c0 9.961 8.075 18.035 18.035 18.036 9.961 0 18.035-8.075 18.035-18.035 0-9.961-8.075-18.036-18.035-18.036s-18.035 8.074-18.035 18.035z"/><path d="m292.253 25.301c0 4.165 3.376 7.541 7.541 7.541s7.541-3.376 7.541-7.541-3.376-7.541-7.541-7.541c-4.164 0-7.541 3.376-7.541 7.541z"/></g></g></g></svg>