<svg id="Capa_1" enable-background="new 0 0 512 512" height="512" viewBox="0 0 512 512" width="512" xmlns="http://www.w3.org/2000/svg"><g><g><path d="m450.439 123.659-49.979-7.941h-376.143c-7.864 0-14.238 6.375-14.238 14.238v232.876 59.043l8.085 32.327c0 7.864 6.375 14.238 14.238 14.238h418.037c7.863 0 14.238-6.375 14.238-14.238v-316.304c.001-7.864-6.374-14.239-14.238-14.239z" fill="#c37777"/><path d="m487.682 115.718h-87.222c6.427 0 11.638 5.21 11.638 11.638v190.346 100.728c0 6.427-5.211 11.638-11.638 11.638h-378.743c-6.428 0-11.638-5.211-11.638-11.638v67.635c0 7.863 6.375 14.238 14.238 14.238h463.365c7.864 0 14.238-6.375 14.238-14.238v-123.233-232.875c.001-7.864-6.374-14.239-14.238-14.239z" fill="#ba5677"/><path d="m307.616 443.166c-12.839 6.751-31.945 11.215-52.765 11.215-20.141 0-39.899-5.194-53.535-12.413l-9.439-1.794-5.719 8.803c5.729 15.222 34.292 26.794 68.69 26.794 32.927 0 60.507-10.604 67.833-24.861l-5.657-7.045z" fill="#ffb7a9"/><g fill="#fff2a5"><path d="m200.474 441.53c12.105-6.088 31.951-10.059 54.377-10.059 22.86 0 43.038 4.122 55.073 10.422-.743.433-1.516.856-2.308 1.273 5.367 2.018 10.219 4.826 15.066 7.745 1.246-2.424 1.924-4.951 1.924-7.553 0-17.902-31.232-32.414-69.757-32.414s-69.757 14.512-69.757 32.414c0 1.918.379 3.793 1.067 5.62 4.839-2.696 9.765-5.312 15.158-7.009-.279-.148-.571-.29-.843-.439z"/><path d="m269.191 430.069h-26.382c-16.196 0-29.326-13.129-29.326-29.326h85.034c0 16.196-13.13 29.326-29.326 29.326z"/><ellipse cx="253.419" cy="239.276" rx="51.791" ry="51.792" transform="matrix(.16 -.987 .987 .16 -23.36 451.095)"/></g><ellipse cx="253.419" cy="239.276" fill="#c37777" rx="22.557" ry="22.557" transform="matrix(.924 -.383 .383 .924 -72.277 115.193)"/></g><g fill="#4e0325"><path d="m487.682 105.639h-463.365c-13.408 0-24.317 10.909-24.317 24.317v232.875 4.69 118.544c0 13.408 10.909 24.317 24.317 24.317h463.365c13.409 0 24.318-10.909 24.318-24.317v-118.543-4.69-232.876c0-13.408-10.909-24.317-24.318-24.317zm-232.834 331.876c15.85 0 29.172 2.01 39.273 4.855-11.206 3.807-25.019 5.962-39.273 5.962-14.403 0-28.217-2.141-39.463-6.004 9.925-2.81 23.17-4.813 39.463-4.813zm-33.831-8.939c-11.612 2.309-21.959 5.922-29.085 10.947 2.528-6.204 10.992-12.241 23.417-16.514 1.674 2.062 3.578 3.927 5.668 5.567zm-21.182 20.241c14.083 7.379 34.112 11.611 55.013 11.611 21.084 0 40.849-4.2 54.967-11.591 1.919 1.209 3.379 2.423 4.353 3.595-8.936 9.301-30.849 17.292-59.32 17.292-28.475 0-50.39-7.994-59.324-17.296.962-1.166 2.4-2.388 4.311-3.611zm90.668-19.864c2.058-1.559 3.937-3.34 5.61-5.302 11.373 4.204 19.17 9.982 21.612 15.843-6.746-4.747-16.371-8.228-27.222-10.541zm-21.312-4.931h-26.382c-10.745 0-19.813-7.317-22.482-17.231h71.347c-2.67 9.913-11.738 17.231-22.483 17.231zm29.326-29.326h-85.034-193.325v-17.094h471.683v17.094zm-278.359-264.74c0-2.293 1.866-4.159 4.159-4.159h463.365c2.293 0 4.159 1.865 4.159 4.159v227.486h-471.683zm467.524 360.268h-463.365c-2.293 0-4.159-1.865-4.159-4.159v-79.275h187.805c.327 1.89.804 3.728 1.419 5.504-19.344 7.125-30.339 18.314-30.339 31.064 0 11.146 8.499 21.233 23.93 28.404 13.957 6.486 32.38 10.057 51.874 10.057s37.917-3.572 51.874-10.057c15.431-7.171 23.93-17.258 23.93-28.404 0-12.221-10.259-23.13-28.309-30.285.751-2.014 1.318-4.115 1.693-6.282h187.805v79.275c.002 2.293-1.864 4.158-4.158 4.158z"/><path d="m454.963 141.679c-1.134-1.134-2.672-1.771-4.276-1.771h-389.374c-1.604 0-3.142.637-4.276 1.771l-20.996 20.998c-1.134 1.134-1.771 2.672-1.771 4.276v144.645c0 1.603.637 3.142 1.771 4.276l20.996 20.997c1.134 1.135 2.672 1.772 4.276 1.772h389.374c1.604 0 3.142-.637 4.276-1.772l20.996-20.997c1.134-1.134 1.771-2.672 1.771-4.276v-144.645c0-1.603-.637-3.142-1.771-4.276zm10.673 167.414-17.454 17.454h-384.364l-17.454-17.454v-139.635l17.454-17.454h384.363l17.454 17.454v139.635z"/><path d="m253.419 181.437c-51.303 0-91.661 51.951-93.354 54.162-1.661 2.169-1.661 5.183 0 7.353 1.693 2.211 42.051 54.163 93.354 54.163s91.661-51.952 93.355-54.163c1.661-2.169 1.661-5.183 0-7.353-1.693-2.211-42.052-54.162-93.355-54.162zm45.744 57.838c0 24.395-19.195 44.387-43.274 45.675-.822.032-1.643.069-2.47.069-.828 0-1.65-.037-2.473-.069-24.078-1.289-43.271-21.281-43.271-45.675 0-24.393 19.193-44.385 43.271-45.674.823-.032 1.645-.069 2.473-.069s1.651.037 2.474.069c24.077 1.29 43.27 21.282 43.27 45.674zm-126.439 0c4.925-5.688 15.502-16.992 29.536-26.94-4.257 8.052-6.68 17.216-6.68 26.94s2.423 18.889 6.681 26.941c-14.036-9.949-24.613-21.254-29.537-26.941zm131.827 26.994c4.275-8.064 6.707-17.248 6.707-26.994 0-9.724-2.423-18.889-6.68-26.94 14.038 9.951 24.617 21.259 29.54 26.945-4.923 5.698-15.506 17.03-29.567 26.989z"/><path d="m224.815 239.275c0 15.772 12.832 28.605 28.605 28.605s28.605-12.832 28.605-28.605c0-15.772-12.832-28.605-28.605-28.605-15.774.001-28.605 12.833-28.605 28.605zm45.114 0c0 9.104-7.406 16.51-16.51 16.51-9.103 0-16.51-7.406-16.51-16.51s7.406-16.51 16.51-16.51c9.103.001 16.51 7.407 16.51 16.51z"/><path d="m137.453 241.098c0-3.34-2.708-6.048-6.048-6.048h-54.686c-3.34 0-6.048 2.708-6.048 6.048s2.708 6.048 6.048 6.048h54.687c3.34 0 6.047-2.708 6.047-6.048z"/><path d="m82.173 197.078 52.476 15.391c.568.166 1.141.246 1.704.246 2.616 0 5.027-1.711 5.8-4.348.94-3.205-.896-6.565-4.101-7.505l-52.476-15.391c-3.204-.939-6.565.897-7.505 4.101-.939 3.205.897 6.566 4.102 7.506z"/><path d="m135.443 266.083-52.476 15.391c-3.205.94-5.041 4.3-4.101 7.505.773 2.637 3.185 4.348 5.801 4.348.563 0 1.136-.08 1.704-.246l52.476-15.391c3.205-.94 5.041-4.3 4.101-7.505s-4.299-5.04-7.505-4.102z"/><path d="m435.281 235.051h-54.687c-3.34 0-6.047 2.708-6.047 6.048s2.708 6.048 6.047 6.048h54.687c3.34 0 6.047-2.708 6.047-6.048 0-3.341-2.708-6.048-6.047-6.048z"/><path d="m375.647 212.715c.563 0 1.136-.08 1.704-.246l52.476-15.391c3.205-.94 5.041-4.3 4.101-7.505s-4.299-5.039-7.505-4.101l-52.476 15.391c-3.205.94-5.041 4.3-4.101 7.505.773 2.636 3.185 4.347 5.801 4.347z"/><path d="m429.034 281.474-52.476-15.391c-3.204-.939-6.565.897-7.505 4.102s.896 6.565 4.101 7.505l52.476 15.391c.568.166 1.141.246 1.704.246 2.616 0 5.027-1.711 5.801-4.348.94-3.205-.896-6.565-4.101-7.505z"/><path d="m378.076 418.587c-3.34 0-6.047 2.708-6.047 6.047v11.394c0 3.34 2.708 6.048 6.047 6.048 3.34 0 6.048-2.708 6.048-6.048v-11.394c0-3.339-2.708-6.047-6.048-6.047z"/><path d="m417.602 450.546c-3.34 0-6.047 2.708-6.047 6.048v11.395c0 3.34 2.708 6.047 6.047 6.047 3.34 0 6.048-2.708 6.048-6.047v-11.395c-.001-3.34-2.709-6.048-6.048-6.048z"/><path d="m451.675 436.385c-3.34 0-6.047 2.708-6.047 6.048v11.394c0 3.34 2.708 6.047 6.047 6.047 3.34 0 6.048-2.708 6.048-6.047v-11.394c0-3.34-2.708-6.048-6.048-6.048z"/><path d="m124.086 440.03c-3.34 0-6.048 2.708-6.048 6.048v11.395c0 3.34 2.708 6.048 6.048 6.048s6.048-2.708 6.048-6.048v-11.395c0-3.34-2.708-6.048-6.048-6.048z"/></g><g fill="#fff"><path d="m198.826 181.65h-33.959c-5.567 0-10.079-4.513-10.079-10.079s4.513-10.079 10.079-10.079h33.959c5.567 0 10.079 4.513 10.079 10.079s-4.513 10.079-10.079 10.079z"/><path d="m129.436 181.65h-1.97c-5.567 0-10.079-4.513-10.079-10.079s4.512-10.079 10.079-10.079h1.97c5.567 0 10.079 4.513 10.079 10.079s-4.512 10.079-10.079 10.079z"/></g><g><path d="m414.371 4.084-8.279 23.281c-.354.997-1.056 1.787-1.942 2.186l-20.684 9.319c-2.922 1.317-2.922 5.972 0 7.289l20.684 9.319c.886.399 1.587 1.189 1.942 2.186l8.279 23.28c1.17 3.289 5.306 3.289 6.476 0l8.28-23.28c.354-.997 1.056-1.787 1.942-2.186l20.684-9.319c2.922-1.317 2.922-5.972 0-7.289l-20.684-9.319c-.886-.399-1.587-1.189-1.942-2.186l-8.28-23.281c-1.17-3.289-5.307-3.289-6.476 0z" fill="#ffc8b7"/><path d="m189.993 9.343-6.142 17.269c-.263.739-.784 1.325-1.44 1.621l-15.343 6.912c-2.167.977-2.167 4.43 0 5.407l15.343 6.913c.657.296 1.177.882 1.44 1.621l6.142 17.269c.868 2.439 3.936 2.439 4.804 0l6.142-17.269c.263-.739.783-1.325 1.44-1.621l15.343-6.913c2.167-.977 2.167-4.43 0-5.407l-15.343-6.912c-.657-.296-1.177-.882-1.44-1.621l-6.142-17.269c-.868-2.439-3.936-2.439-4.804 0z" fill="#ffc8b7"/><g fill="#ffa785"><path d="m46.371 55.948c0 9.985 8.094 18.079 18.079 18.079s18.078-8.094 18.078-18.079-8.094-18.079-18.078-18.079c-9.985 0-18.079 8.094-18.079 18.079z"/><circle cx="313.235" cy="62.592" r="7.559"/></g></g></g></svg>