<svg id="Capa_1" enable-background="new 0 0 512 512" height="512" viewBox="0 0 512 512" width="512" xmlns="http://www.w3.org/2000/svg"><g><g><path d="m447.089 335.608c-8.495 1.522-16.918-3.628-19.305-12.107-13.77-48.914-47.393-84.592-99.935-106.041-40.654-16.596-77.874-18.07-78.246-18.083-9.354-.326-16.691-8.166-16.38-17.521.31-9.355 8.122-16.691 17.481-16.395 1.725.055 42.774 1.552 88.897 20.146 62.443 25.173 104.231 69.676 120.847 128.697 2.539 9.02-2.715 18.391-11.734 20.931-.541.152-1.083.276-1.625.373z" fill="#ffddb6"/><path d="m470.7 237.2c-6.183 6.021-16.045 6.476-22.774.791-38.816-32.795-86.658-43.501-142.194-31.82-42.971 9.038-74.623 28.676-74.938 28.874-7.93 4.972-18.4 2.59-23.385-5.332-4.986-7.922-2.627-18.375 5.29-23.375 1.459-.921 36.296-22.686 84.916-33.134 65.824-14.145 125.373-.705 172.211 38.865 7.157 6.048 8.058 16.753 2.011 23.911-.363.429-.743.836-1.137 1.22z" fill="#ffa7b8"/><path d="m209.585 196.91c-.237.164-.479.323-.726.478-1.022.636-25.364 15.732-54.937 28.1-44.017 18.408-75.73 21.148-96.952 8.379-12.22-7.353-26.277-23.404-23.852-58.111 1.097-15.698 8.374-28.249 21.047-36.325 19.452-12.382 50.536-13.484 95.026-3.37 30.372 6.905 55.777 16.626 56.844 17.037 9.047 3.481 13.559 13.637 10.078 22.685-.051.132-.104.264-.157.395 2.878 7.443.356 16.072-6.371 20.732zm-137.07-27.532c-2.392 1.657-4.033 3.904-4.377 8.825-.655 9.373.015 21.419 6.928 25.582 3.804 2.292 19.729 8.305 64.925-10.522 11.681-4.866 22.619-10.294 31.294-14.902-8.651-2.674-19.159-5.644-30.261-8.154-46.514-10.518-63.059-4.313-68.013-1.158-.168.108-.334.217-.496.329z" fill="#ffa7b8"/><path d="m199.783 183.309c-.287-.032-.574-.071-.862-.117-1.188-.192-29.455-4.818-59.87-14.938-45.271-15.064-70.97-33.846-78.568-57.419-4.375-13.574-4.417-34.91 20.226-59.47 11.146-11.108 24.881-15.783 39.739-13.538 22.798 3.457 46.947 23.059 73.824 59.927 18.349 25.169 31.102 49.195 31.636 50.206 4.529 8.571 1.253 19.19-7.318 23.719-.125.066-.252.131-.378.194-2.724 7.502-10.297 12.346-18.429 11.436zm-85.194-110.853c-2.891-.324-5.605.29-9.099 3.773-6.655 6.633-14.069 16.151-11.596 23.832 1.36 4.228 9.408 19.228 55.843 34.75 12.001 4.012 23.812 7.111 33.379 9.342-4.761-7.702-10.728-16.847-17.444-26.038-28.137-38.502-44.684-44.703-50.491-45.582-.199-.028-.396-.055-.592-.077z" fill="#ffddb6"/><path d="m256.408 110.065-121.479 139.257c-31.06 35.606-47.104 80.487-47.044 125.779 10.736 47.47 30.345 74.24 30.345 74.24 12.237 23.895 27.463 34.561 54.309 34.561h167.738c26.846 0 40.988-24.063 40.988-24.063 35.589-69.496 25.268-153.659-26.058-212.497z" fill="#75b7f2"/><path d="m377.887 249.322-121.479-139.257-19.072 21.864 79.964 91.666c41.843 47.967 50.258 116.582 21.244 173.238-9.976 19.48-30.019 31.735-51.905 31.735h-136.75c-21.886 0-41.93-12.255-51.905-31.735-4.117-8.04-7.454-16.326-10.075-24.754-.443 30.544 6.431 61.365 20.962 89.741 12.237 23.895 36.822 38.927 63.668 38.927h167.738c26.846 0 51.432-15.032 63.668-38.927 35.589-69.497 25.268-153.66-26.058-212.498z" fill="#8289f3"/><path d="m254.625 138.608c35.667-32.066 101.08-69.539 81.176-89.443-9.364-9.364-12.511-6.983-31.866-8.435-19.201 4.861-38.566 13.169-47.496 13.169-16.864 0-71.316-29.256-90.85-9.722-15.683 15.683 29.233 56.48 66.135 85.472 7.03 3.905 15.823 3.811 22.901 8.959z" fill="#75b7f2"/><path d="m347.288 44.176c-9.364-9.364-26.294-7.764-43.353-3.446.847.567 1.658 1.188 2.391 1.922 15.441 15.441-42.551 55.829-70.432 80.813-1.246 2.133-2.647 4.192-4.171 6.182 9.059 7.118 17.636 13.525 24.714 18.673 35.669-32.065 110.755-84.24 90.851-104.144z" fill="#8289f3"/><path d="m325.959 191.441h-139.102c-9.694 0-17.552-7.859-17.552-17.552 0-9.694 7.858-17.552 17.552-17.552h139.102c9.694 0 17.552 7.858 17.552 17.552 0 9.694-7.858 17.552-17.552 17.552z" fill="#ffddb6"/><path d="m307.477 156.16h-102.138c-9.694 0-17.552-7.858-17.552-17.552 0-9.694 7.858-17.552 17.552-17.552h102.137c9.694 0 17.552 7.858 17.552 17.552.001 9.694-7.858 17.552-17.551 17.552z" fill="#ffddb6"/><g fill="#98e8f2"><circle cx="256.408" cy="357.027" r="36.847"/><path d="m351.266 357.027c0-14.898 8.847-27.721 21.569-33.528-4.656-2.125-9.826-3.319-15.278-3.319-20.35 0-36.847 16.497-36.847 36.847s16.497 36.847 36.847 36.847c5.452 0 10.622-1.194 15.278-3.319-12.723-5.807-21.569-18.631-21.569-33.528z"/><path d="m161.55 357.027c0 14.898-8.847 27.721-21.568 33.528 4.656 2.125 9.826 3.319 15.278 3.319 20.35 0 36.847-16.497 36.847-36.847s-16.497-36.847-36.847-36.847c-5.452 0-10.622 1.194-15.278 3.319 12.722 5.807 21.568 18.63 21.568 33.528z"/></g></g><g fill="#4e0325"><path d="m485.778 222.768c-.604-7.185-3.971-13.706-9.479-18.359-36.418-30.768-79.479-46.465-128.013-46.687-3.564-4.908-8.704-8.598-14.671-10.325.931-2.762 1.444-5.716 1.444-8.788 0-12.601-8.497-23.247-20.06-26.531 28.52-24.757 44.874-43.068 45.598-58.828.285-6.224-1.864-11.814-6.216-16.165-18.019-18.017-50.413-7.478-76.44.99-8.348 2.716-17.811 5.795-21.502 5.795-3.727 0-13.275-3.06-21.699-5.759-26.071-8.354-58.518-18.752-76.244-1.026-1.48 1.48-2.681 3.125-3.634 4.892-11.113-7.759-21.995-12.41-32.918-14.066-18.125-2.739-34.835 2.917-48.316 16.351-28.239 28.143-27.927 53.41-22.693 69.65 1.423 4.415 3.375 8.666 5.842 12.764-2.822 1.275-5.5 2.705-8.002 4.297-15.461 9.854-24.335 25.097-25.662 44.085-2.78 39.772 14.065 58.607 28.686 67.404 10.269 6.18 22.44 9.275 36.666 9.275 10.725 0 22.621-1.764 35.747-5.288-24.666 29.682-40.153 65.498-44.862 103.905-4.908 40.022 2.213 80.148 20.592 116.039 14.02 27.378 41.838 44.384 72.596 44.384h167.738c30.759 0 58.576-17.008 72.595-44.385 18.38-35.89 25.501-76.016 20.593-116.038-.291-2.37-.625-4.73-.998-7.079 3.549 1.694 7.48 2.638 11.567 2.638 1.596 0 3.215-.141 4.84-.432.858-.156 1.715-.353 2.558-.589 14.328-4.035 22.703-18.975 18.671-33.303-7.872-27.96-21.096-52.799-39.207-74.082 3.597 2.537 7.121 5.246 10.557 8.149 5.077 4.288 11.266 6.412 17.436 6.412 6.796 0 13.568-2.577 18.804-7.676.627-.61 1.234-1.262 1.805-1.936 4.655-5.51 6.885-12.502 6.281-19.688zm-407.634-43.866c.047-.674.124-1.102.182-1.345l.074-.049c1.325-.845 14.283-7.95 60.412 2.481 1.42.321 2.855.655 4.303 1.003-2.361 1.053-4.689 2.058-6.981 3.012-43.371 18.068-55.775 11.262-55.881 11.197-.652-.489-2.921-4.689-2.109-16.299zm108.713 2.509c-4.148 0-7.523-3.374-7.523-7.522s3.374-7.522 7.523-7.522h139.102c4.148 0 7.522 3.374 7.522 7.522s-3.374 7.522-7.522 7.522zm120.619-35.281h-102.137c-4.148 0-7.522-3.374-7.522-7.522s3.375-7.522 7.522-7.522h102.137c4.148 0 7.522 3.374 7.522 7.522s-3.374 7.522-7.522 7.522zm-134.794-94.862c9.073-9.075 37.276-.036 55.937 5.944 11.709 3.752 20.957 6.716 27.82 6.716 6.872 0 16.067-2.991 27.708-6.779 18.609-6.055 46.727-15.203 56.049-5.881.294.293.392.392.361 1.061-.097 2.123-1.817 8.621-15.641 23.079-10.625 11.111-25.209 23.545-38.073 34.242-.507.421-.957.884-1.359 1.376h-60.99c-.25-.258-.515-.507-.798-.743-46.902-38.945-51.11-54.153-51.283-57.886-.039-.822.097-.957.269-1.129zm-84.893 7.202c8.922-8.892 19.409-12.499 31.154-10.726 12.07 1.831 25.264 9.564 39.216 22.987 4.747 8.245 13.259 19.033 28.407 33.491 2.239 3.083 4.488 6.281 6.735 9.575-4.646 2.264-8.561 5.796-11.302 10.142-2.745-4.068-5.493-7.994-8.23-11.74-27.805-38.048-46.392-47.963-57.164-49.592-.304-.044-.606-.084-.906-.118-6.436-.724-12.088 1.452-17.288 6.637-12.566 12.522-17.298 23.964-14.064 34.007 2.746 8.535 14.479 25.235 62.211 41.191 7.607 2.543 15.743 4.931 24.276 7.136-4.469 3.202-7.95 7.699-9.877 12.944-6.51-1.79-12.789-3.688-18.738-5.667-42.027-13.985-65.64-30.661-72.188-50.979-5.043-15.641 1.098-32.685 17.758-49.288zm72.368 69.149c-2.466-.757-4.881-1.531-7.241-2.32-44.559-14.895-49.431-28.179-49.471-28.296-.17-.798.882-5.455 9.125-13.67.478-.476.817-.747 1.021-.893l.089.012c1.554.235 15.989 3.399 43.893 41.583.86 1.176 1.721 2.37 2.584 3.584zm-98.015 97.654c-14.082-8.473-20.657-25.354-19.018-48.817.878-12.567 6.407-22.177 16.426-28.563 3.124-1.988 6.703-3.642 10.656-4.944 4.495 4.183 9.683 8.175 15.576 11.982-8.675 1.049-14.422 3.277-18.221 5.696-.265.172-.527.345-.76.507-5.321 3.688-8.157 9.042-8.669 16.368-1.237 17.696 2.719 29.429 11.759 34.874 3.417 2.058 9.237 4.165 18.738 4.165 11.852 0 29.433-3.279 55.218-14.02 7.199-3 14.726-6.459 22.424-10.301.865.97 1.797 1.877 2.789 2.717l-18.382 21.072c-.209.072-.419.139-.626.226-40.863 17.088-69.619 20.044-87.91 9.038zm332.876 231.975c-10.572 20.645-31.548 33.469-54.741 33.469h-167.738c-23.194 0-44.169-12.824-54.741-33.47-33.918-66.23-24.227-145.257 24.689-201.331l47.493-54.445h132.854l47.494 54.445c48.917 56.073 58.608 135.101 24.69 201.332zm50.989-131.67c-.226.064-.462.117-.686.158-3.526.637-6.91-1.5-7.883-4.952-10.043-35.672-30.184-64.959-59.861-87.073l-28.981-33.223c52.395 24.67 87.609 64.717 102.197 116.535 1.037 3.682-1.115 7.522-4.786 8.555zm18.169-96.072c-.151.178-.309.348-.474.509-2.563 2.497-6.563 2.634-9.303.315-22.016-18.601-47.067-30.627-74.472-35.799-8.543-5.18-17.6-9.918-27.154-14.198.195-.808.356-1.63.477-2.464 41.635 1.231 78.652 15.292 110.103 41.862 1.415 1.196 2.28 2.872 2.436 4.718.154 1.847-.418 3.643-1.613 5.057z"/><path d="m256.408 314.162c-23.635 0-42.864 19.229-42.864 42.865 0 23.635 19.229 42.864 42.864 42.864s42.864-19.229 42.864-42.864c0-23.636-19.229-42.865-42.864-42.865zm0 73.693c-16.999 0-30.829-13.829-30.829-30.828s13.83-30.829 30.829-30.829 30.828 13.83 30.828 30.829-13.829 30.828-30.828 30.828z"/><path d="m314.692 357.027c0 23.635 19.229 42.864 42.864 42.864 6.181 0 12.161-1.299 17.777-3.861 2.143-.978 3.519-3.119 3.519-5.475s-1.375-4.496-3.519-5.474c-10.964-5.005-18.049-16.018-18.049-28.053 0-12.037 7.085-23.049 18.049-28.054 2.144-.979 3.519-3.119 3.519-5.474 0-2.357-1.376-4.497-3.519-5.475-5.615-2.562-11.596-3.861-17.777-3.861-23.635-.002-42.864 19.227-42.864 42.863zm30.556 0c0 11.787 4.885 22.866 13.097 30.818-.262.007-.525.01-.789.01-16.999 0-30.828-13.829-30.828-30.828s13.829-30.829 30.828-30.829c.263 0 .526.003.789.01-8.212 7.952-13.097 19.032-13.097 30.819z"/><path d="m155.26 314.162c-6.18 0-12.161 1.299-17.776 3.861-2.144.979-3.52 3.119-3.52 5.475s1.375 4.496 3.519 5.474c10.965 5.005 18.049 16.017 18.049 28.054 0 12.036-7.085 23.048-18.049 28.053-2.144.978-3.519 3.119-3.519 5.474 0 2.357 1.376 4.497 3.52 5.475 5.615 2.562 11.596 3.861 17.776 3.861 23.635 0 42.865-19.229 42.865-42.864-.001-23.634-19.23-42.863-42.865-42.863zm0 73.693c-.263 0-.526-.003-.789-.01 8.213-7.952 13.097-19.031 13.097-30.818s-4.885-22.867-13.097-30.819c.263-.007.526-.01.789-.01 16.999 0 30.829 13.83 30.829 30.829s-13.83 30.828-30.829 30.828z"/><path d="m329.921 281.662c3.323 0 6.018-2.695 6.018-6.018v-11.339c0-3.323-2.695-6.018-6.018-6.018s-6.018 2.695-6.018 6.018v11.339c0 3.323 2.695 6.018 6.018 6.018z"/><path d="m305.383 416.134c-3.323 0-6.018 2.695-6.018 6.018v11.339c0 3.323 2.695 6.018 6.018 6.018s6.018-2.695 6.018-6.018v-11.339c0-3.324-2.695-6.018-6.018-6.018z"/><path d="m275 293.451c3.323 0 6.018-2.694 6.018-6.018v-11.34c0-3.323-2.694-6.018-6.018-6.018-3.323 0-6.018 2.695-6.018 6.018v11.34c.001 3.323 2.695 6.018 6.018 6.018z"/></g><g fill="#fff"><path d="m165.81 292.034c-2.145 0-4.306-.685-6.133-2.1-4.38-3.391-5.181-9.691-1.789-14.071l17.376-22.438c3.39-4.378 9.69-5.182 14.071-1.788 4.38 3.391 5.181 9.691 1.789 14.071l-17.376 22.438c-1.977 2.551-4.941 3.888-7.938 3.888z"/><path d="m208.009 238.959c-2.145 0-4.307-.685-6.135-2.1-4.38-3.392-5.18-9.692-1.788-14.071l2.613-3.374c3.392-4.378 9.692-5.18 14.071-1.789 4.38 3.392 5.18 9.692 1.788 14.071l-2.613 3.374c-1.975 2.552-4.94 3.889-7.936 3.889z"/></g><g><path d="m472.621 74.835-8.239 23.167c-.353.992-1.051 1.778-1.932 2.175l-20.583 9.273c-2.908 1.31-2.908 5.943 0 7.253l20.583 9.273c.881.397 1.58 1.183 1.932 2.175l8.239 23.167c1.164 3.273 5.28 3.273 6.444 0l8.239-23.167c.353-.992 1.051-1.778 1.932-2.175l20.583-9.273c2.908-1.31 2.908-5.943 0-7.253l-20.583-9.273c-.881-.397-1.579-1.183-1.932-2.175l-8.239-23.167c-1.164-3.273-5.28-3.273-6.444 0z" fill="#98e8f2"/><path d="m417.362 3.045-6.111 17.184c-.262.736-.78 1.319-1.433 1.613l-15.268 6.879c-2.157.972-2.157 4.408 0 5.38l15.268 6.879c.654.294 1.172.878 1.433 1.613l6.111 17.185c.863 2.428 3.917 2.428 4.78 0l6.112-17.185c.262-.736.78-1.319 1.433-1.613l15.268-6.879c2.157-.972 2.157-4.408 0-5.38l-15.268-6.879c-.654-.295-1.172-.878-1.433-1.613l-6.112-17.184c-.863-2.428-3.916-2.428-4.78 0z" fill="#98e8f2"/><g fill="#75b7f2"><path d="m0 37.299c0 9.936 8.054 17.99 17.99 17.99s17.99-8.054 17.99-17.99-8.054-17.99-17.99-17.991c-9.936 0-17.99 8.055-17.99 17.991z"/><path d="m377.887 121.056c0 4.154 3.368 7.522 7.522 7.522 4.155 0 7.523-3.368 7.523-7.522 0-4.155-3.368-7.522-7.523-7.522-4.154-.001-7.522 3.367-7.522 7.522z"/></g></g></g></svg>