<svg id="Capa_1" enable-background="new 0 0 512 512" height="512" viewBox="0 0 512 512" width="512" xmlns="http://www.w3.org/2000/svg"><g><g><path d="m501.895 439.197h-491.79v43.176c0 7.143 5.79 12.933 12.934 12.933h465.922c7.143 0 12.934-5.79 12.934-12.933z" fill="#df768f"/><path d="m477.528 141.87-51.255-13.033h-403.234c-7.143 0-12.934 5.791-12.934 12.934v254.462l18.162 42.644h453.063l9.131-284.073c.001-7.143-5.79-12.934-12.933-12.934z" fill="#e79d8e"/><path d="m488.961 128.838h-65.864c6.161 0 11.154 4.994 11.154 11.154v226.741c0 16.292-13.207 29.5-29.499 29.5h-394.647v42.644h491.79v-297.106c0-7.143-5.791-12.933-12.934-12.933z" fill="#df768f"/><path d="m126.075 108.661c0-9.006-11.669-16.307-26.063-16.307s-26.063 7.301-26.063 16.307c0 .928.13 1.835.368 2.721h-.368v104.346c0 9.006 11.669 16.307 26.063 16.307s26.063-7.301 26.063-16.307c0-3.377 0-104.346 0-104.346h-.368c.238-.886.368-1.794.368-2.721z" fill="#fff2a5"/><path d="m116.48 72.322c0 8.268-7.373 14.971-16.468 14.971s-16.468-6.703-16.468-14.971 12.424-28.16 16.468-28.16c4.043 0 16.468 19.892 16.468 28.16z" fill="#ffa785"/><path d="m430.49 338.901-28.38-37.118-36.404 39.898 16.624 58.955h34.314" fill="#ffc5dd"/><path d="m413.924 358.207 2.72 42.429 29.684 8.617 11.774-15.65 15.19-35.396-29.684-24.867z" fill="#ffc5dd"/><path d="m315.802 186.801h-119.604c-7.232 0-13.094-5.862-13.094-13.094 0-7.231 5.862-13.094 13.094-13.094h119.604c7.232 0 13.094 5.862 13.094 13.094 0 7.231-5.862 13.094-13.094 13.094z" fill="#c37777"/><path d="m92.194 274.626c-23.972 0-43.406 12.159-43.406 27.157 0 0 0 54.315 43.406 54.315s43.406-54.315 43.406-54.315c0-14.998-19.434-27.157-43.406-27.157z" fill="#98e8f2"/><ellipse cx="93.802" cy="310.643" fill="#a6aff4" rx="28.691" ry="17.023"/><ellipse cx="92.194" cy="384.956" fill="#98e8f2" rx="31.002" ry="19.397"/><path d="m362.859 266.633c-2.506-2.506-2.641-6.525-.309-9.193l59.511-70.476 21.199 21.199-71.252 58.819c-2.672 2.292-6.659 2.14-9.149-.349z" fill="#d3b5f2"/><path d="m465.835 179.805c3.193-3.193 3.193-8.37 0-11.563l-3.854-3.854c-3.193-3.193-8.37-3.193-11.563 0 0 0-9.893 9.981-16.661 16.912-3.448 3.532-9.116 3.562-12.606.072l-2.018-2.018c-3.004-3.004-7.938-3.309-11.031-.396-3.2 3.014-3.257 8.052-.171 11.138l31.966 31.966c3.004 3.004 7.938 3.309 11.031.396 3.2-3.014 3.257-8.052.171-11.138l-2.248-2.248c-3.49-3.49-3.46-9.158.072-12.606 6.931-6.767 16.912-16.661 16.912-16.661z" fill="#ad84e6"/></g><g fill="#4e0325"><path d="m92.195 268.563c-27.74 0-49.469 14.592-49.469 33.22 0 .602.066 14.912 5.859 29.407 6.429 16.089 17.265 26.147 31.685 29.611-14.76 3.339-25.141 12.758-25.141 24.154 0 14.276 16.282 25.46 37.066 25.46s37.065-11.184 37.065-25.46c0-11.397-10.38-20.816-25.14-24.154 14.419-3.464 25.256-13.523 31.684-29.611 5.793-14.495 5.859-28.805 5.859-29.407 0-18.628-21.729-33.22-49.468-33.22zm0 12.126c20.242 0 37.342 9.66 37.342 21.094s-17.101 21.094-37.342 21.094-37.343-9.66-37.343-21.094c-.001-11.434 17.101-21.094 37.343-21.094zm24.939 104.267c0 6.307-10.242 13.334-24.939 13.334-14.698 0-24.94-7.027-24.94-13.334 0-5.397 7.503-11.317 18.877-12.914v12.914c0 3.348 2.715 6.063 6.063 6.063s6.063-2.715 6.063-6.063v-12.914c11.372 1.597 18.876 7.517 18.876 12.914zm-24.939-34.921c-18.12 0-27.446-11.241-32.247-22.878 8.602 4.91 19.817 7.847 32.247 7.847 12.366 0 23.53-2.906 32.115-7.77-6.227 15.121-17.023 22.801-32.115 22.801z"/><path d="m512 141.772c0-12.704-10.335-23.039-23.039-23.039h-250.279l9.78-17.502c1.634-2.923.588-6.617-2.335-8.25-2.927-1.638-6.618-.589-8.25 2.335l-13.085 23.417h-92.655v-7.351c0-.355-.036-.701-.095-1.04.057-.555.095-1.114.095-1.681 0-8.942-7.174-16.499-17.817-20.103 5.017-3.861 8.221-9.705 8.221-16.235 0-6.94-5.304-16.512-7.585-20.305-8.368-13.918-13.146-13.918-14.945-13.918s-6.578 0-14.946 13.918c-2.281 3.793-7.585 13.363-7.585 20.305 0 6.53 3.204 12.374 8.222 16.235-10.644 3.605-17.818 11.162-17.818 20.103 0 .567.038 1.126.095 1.681-.059.339-.095.684-.095 1.04v7.351h-44.845c-12.704-.001-23.039 10.334-23.039 23.039v297.106c0 .054.007.106.008.159 0 .053-.008.106-.008.159v43.176c0 12.703 10.335 23.038 23.039 23.038h465.921c12.704 0 23.039-10.335 23.039-23.038v-43.176c0-.054-.007-.106-.008-.159.001-.054.008-.106.008-.159v-297.106zm-431.989-15.49c5.453 2.983 12.374 4.749 20.001 4.749 7.626 0 14.547-1.766 20-4.749v89.446c0 4.835-8.553 10.243-20 10.243s-20.001-5.408-20.001-10.243zm20.001-74.62c3.965 4.755 10.404 16.16 10.404 20.66 0 4.912-4.668 8.908-10.404 8.908-5.737 0-10.405-3.996-10.405-8.908 0-4.5 6.44-15.905 10.405-20.66zm-6.063 47.282v5.104c0 3.348 2.715 6.063 6.063 6.063s6.063-2.715 6.063-6.063v-5.104c8.275 1.471 13.937 5.783 13.937 9.717 0 4.835-8.553 10.243-20 10.243s-20.001-5.408-20.001-10.243c0-3.934 5.663-8.246 13.938-9.717zm-73.739 42.828c0-1.56 1.269-2.829 2.829-2.829h44.846v76.785c0 12.543 14.112 22.369 32.127 22.369 18.014 0 32.126-9.826 32.126-22.369v-76.785h81.361l-8.721 15.607h-8.58c-10.563 0-19.157 8.594-19.157 19.157s8.594 19.156 19.157 19.156h119.605c10.563 0 19.157-8.593 19.157-19.156s-8.594-19.157-19.157-19.157h-97.135l8.721-15.607h261.572c1.56 0 2.829 1.269 2.829 2.829v287.001h-471.58zm179.824 33.695c.937.524 1.951.772 2.952.772 2.126 0 4.188-1.119 5.298-3.107l3.607-6.456h103.911c3.877 0 7.031 3.154 7.031 7.031 0 3.876-3.154 7.03-7.031 7.03h-119.604c-3.877 0-7.031-3.154-7.031-7.03 0-3.877 3.154-7.031 7.031-7.031h1.804l-.302.541c-1.634 2.923-.589 6.616 2.334 8.25zm291.756 306.906c0 1.559-1.269 2.828-2.829 2.828h-465.922c-1.56 0-2.829-1.269-2.829-2.828v-33.071h471.58z"/><path d="m256 213.303c-51.505 0-93.408 41.902-93.408 93.408 0 51.505 41.902 93.409 93.408 93.409s93.408-41.903 93.408-93.409c0-51.505-41.903-93.408-93.408-93.408zm73.799 59.405-49.048.016-15.16-46.709c28.543 3.372 52.592 21.583 64.208 46.693zm-73.799-36.963 12.003 36.98h-24.005zm25.79 79.425-25.79 18.738h-.001l-25.789-18.738-.001-.001 9.85-30.318h.001l.001-.001h31.877v.001h.002l9.85 30.318zm-61.897-7.491-31.461-22.843 38.879.012zm6.374 19.616 19.421 14.11-31.446 22.862zm59.466 0 12.026 36.972-31.447-22.862zm6.374-19.616-7.418-22.831 38.879-.012zm-45.698-81.664-15.161 46.709-49.048-.016c11.617-25.11 35.666-43.321 64.209-46.693zm-71.69 80.696c0-5.381.538-10.636 1.541-15.727l39.693 28.818-15.132 46.52c-16.038-14.857-26.102-36.077-26.102-59.611zm41.705 70.96 39.576-28.772 39.576 28.772c-11.721 6.563-25.214 10.322-39.576 10.322s-27.855-3.759-39.576-10.322zm94.756-11.349-15.132-46.52 39.693-28.819c1.003 5.091 1.541 10.347 1.541 15.728-.001 23.534-10.065 44.754-26.102 59.611z"/><path d="m479.335 358.643c.021-.282.023-.567.002-.854-.003-.046-.01-.091-.014-.137-.023-.249-.062-.498-.117-.747-.011-.049-.019-.099-.031-.148-.007-.027-.01-.053-.017-.08-.065-.249-.149-.487-.242-.719-.02-.051-.043-.099-.065-.15-.113-.262-.238-.515-.383-.753-.004-.006-.007-.013-.01-.019-.157-.256-.336-.494-.526-.721-.029-.034-.057-.068-.087-.102-.197-.224-.409-.435-.635-.626-.009-.008-.016-.018-.026-.026l-29.684-24.867c-2.252-1.887-5.534-1.887-7.786 0l-5.729 4.799-27.06-35.391c-1.091-1.427-2.759-2.296-4.553-2.374-1.795-.079-3.532.644-4.743 1.971l-36.404 39.897c-1.412 1.547-1.925 3.715-1.356 5.732l16.625 58.955c.736 2.612 3.12 4.417 5.835 4.417h33.453l25.872 7.51c.018.005.036.011.055.016l2.927.85c.56.163 1.127.241 1.69.241 1.873 0 3.68-.87 4.845-2.418l11.774-15.649c.291-.388.535-.808.726-1.254l15.19-35.396c.011-.026.016-.054.027-.081.227-.548.374-1.131.431-1.732.007-.05.013-.097.016-.144zm-35.727-17.393 16.781 14.059-11.549 3.014-10.2-12.911zm-21.186 54.749-2.251-35.116 9.17-7.681 10.977 13.895-2.469 33.38zm-12.39-42.44c-1.48 1.239-2.281 3.109-2.157 5.036l2.306 35.978h-4.517l-3.182-50.002 9.563-19.811 12.637 16.527zm-8.333-42.331 2.092 2.736-11.876 24.601-13.767-1.526zm-27.691 37.554 16.708 1.852 2.797 43.939h-6.592zm76.508 44.819 1.749-23.64 10.569-2.759-10.015 23.338z"/><path d="m267.295 77.777c.079-.085 8.051-8.43 18.796-7.414 4.8.457 8.617 2.81 13.449 5.789 7.279 4.486 16.337 10.07 31.593 10.07 22.162 0 33.257-18.864 36.028-28.839.896-3.226-.993-6.568-4.22-7.464s-6.568.994-7.464 4.22c-.055.199-5.758 19.957-24.344 19.957-11.82 0-18.333-4.015-25.23-8.267-5.434-3.349-11.053-6.813-18.664-7.536-16.836-1.608-28.376 10.738-28.859 11.264-2.254 2.457-2.088 6.261.357 8.529s6.276 2.122 8.558-.309z"/><path d="m375.904 271.626 57.509-47.474 2.196 2.196c2.776 2.776 6.458 4.177 10.112 4.177 3.398 0 6.77-1.212 9.363-3.653 2.748-2.588 4.293-6.09 4.349-9.859.056-3.771-1.382-7.315-4.048-9.98l-1.808-1.808c-.651-.651-1.007-1.517-1.002-2.436.006-.918.37-1.777 1.027-2.42 6.843-6.686 16.404-16.163 16.501-16.259.006-.006.012-.012.018-.018 2.69-2.689 4.171-6.265 4.171-10.069 0-3.803-1.481-7.379-4.171-10.068l-3.854-3.854c-2.689-2.69-6.265-4.171-10.069-4.171-3.803 0-7.379 1.481-10.086 4.189-.096.097-9.573 9.658-16.26 16.5-.641.657-1.501 1.022-2.419 1.027-.007.001-.014.001-.02.001-.912 0-1.769-.356-2.418-1.005l-1.577-1.575c-5.354-5.357-14.091-5.592-19.474-.524-2.748 2.588-4.293 6.09-4.349 9.86-.056 3.771 1.382 7.314 4.047 9.978l2.286 2.286-47.985 56.825c-4.375 5.052-4.103 12.695.628 17.426 2.474 2.475 5.761 3.728 9.056 3.727 2.946.002 5.895-.998 8.277-3.019zm36.355-88.254c.271-.256.646-.379 1.045-.379.537 0 1.117.224 1.543.65l1.576 1.575c2.939 2.94 6.838 4.555 10.988 4.555.031 0 .062-.001.093-.001 4.183-.024 8.098-1.686 11.022-4.678 6.655-6.81 16.103-16.342 16.18-16.419.538-.539 1.166-.619 1.493-.619s.956.081 1.495.619l3.853 3.854c.538.539.619 1.168.619 1.495 0 .326-.08.949-.612 1.486-.378.375-9.721 9.634-16.427 16.187-2.993 2.924-4.654 6.839-4.679 11.022-.024 4.185 1.594 8.121 4.554 11.08l1.808 1.809c.441.441.5.956.496 1.225-.005.327-.102.802-.537 1.212-.638.6-1.845.472-2.587-.269l-31.967-31.968c-.44-.44-.499-.955-.495-1.223.007-.328.104-.803.539-1.213zm-45.112 78.972c-.249-.249-.263-.651-.032-.916l47.42-56.156 10.265 10.266-56.652 46.766-.089.075c-.263.229-.665.214-.912-.035z"/><path d="m343.345 384.177c-3.348 0-6.063 2.715-6.063 6.063v11.424c0 3.348 2.715 6.063 6.063 6.063s6.063-2.715 6.063-6.063v-11.424c0-3.348-2.715-6.063-6.063-6.063z"/><path d="m441.856 278.145v11.424c0 3.348 2.715 6.063 6.063 6.063s6.063-2.715 6.063-6.063v-11.424c0-3.348-2.715-6.063-6.063-6.063s-6.063 2.715-6.063 6.063z"/></g><g fill="#fff"><path d="m98.252 209.181c-5.58 0-10.105-4.525-10.105-10.105v-19.484c0-5.581 4.525-10.105 10.105-10.105s10.105 4.525 10.105 10.105v19.484c0 5.581-4.525 10.105-10.105 10.105z"/><path d="m98.252 160.267c-5.58 0-10.105-4.525-10.105-10.105v-1.825c0-5.581 4.525-10.105 10.105-10.105s10.105 4.525 10.105 10.105v1.825c0 5.58-4.525 10.105-10.105 10.105z"/></g><g><path d="m459.455 9.062-8.301 23.34c-.355.999-1.059 1.791-1.947 2.191l-20.737 9.343c-2.93 1.32-2.93 5.988 0 7.308l20.737 9.343c.888.4 1.591 1.192 1.947 2.191l8.301 23.34c1.173 3.298 5.32 3.298 6.493 0l8.301-23.34c.355-.999 1.059-1.791 1.947-2.191l20.737-9.343c2.93-1.32 2.93-5.988 0-7.308l-20.737-9.343c-.888-.4-1.591-1.192-1.947-2.191l-8.301-23.34c-1.173-3.297-5.321-3.297-6.493 0z" fill="#ffc8b7"/><path d="m187.257 8.424-6.157 17.313c-.264.741-.786 1.329-1.444 1.625l-15.382 6.93c-2.173.979-2.173 4.441 0 5.421l15.382 6.93c.658.297 1.18.884 1.444 1.625l6.157 17.314c.87 2.446 3.946 2.446 4.816 0l6.157-17.314c.264-.741.785-1.329 1.444-1.625l15.382-6.93c2.173-.979 2.173-4.441 0-5.421l-15.382-6.93c-.659-.297-1.18-.884-1.444-1.625l-6.157-17.313c-.871-2.446-3.947-2.446-4.816 0z" fill="#ffc8b7"/><g fill="#ffa785"><path d="m5.826 73.886c0 10.01 8.115 18.125 18.125 18.125s18.125-8.115 18.125-18.125-8.115-18.125-18.125-18.125-18.125 8.115-18.125 18.125z"/><ellipse cx="398.138" cy="87.293" rx="7.579" ry="7.579" transform="matrix(.383 -.924 .924 .383 165.129 421.719)"/></g></g></g></svg>