<svg id="Capa_1" enable-background="new 0 0 512 512" height="512" viewBox="0 0 512 512" width="512" xmlns="http://www.w3.org/2000/svg"><g><g><g fill="#ffe35c"><path d="m24.045 450.059c10.467-10.467 22.317-4.339 33.406 6.75s17.218 22.938 6.75 33.405c-10.467 10.467-33.567 15.589-44.656 4.501-11.089-11.089-5.967-34.188 4.5-44.656z"/><path d="m180.555 271.58c-9.208 4.127-25.966 24.852-30.207 37.927-8.563 26.401-14.684 40.59-35.05 59.411-.005-.004-.009-.009-.014-.014l-.508.509c.005.004.009.009.013.013-18.82 20.366-36.047 26.577-62.449 35.14-13.075 4.241-37.927 7.073-37.927 30.207s40.838 22.459 40.838 22.459.092 39.611 21.232 39.611 25.966-24.852 30.207-37.927c8.563-26.401 16.248-42.154 36.614-60.974.005.005.009.009.014.014l.508-.508c-.005-.005-.009-.009-.014-.013 18.82-20.367 34.484-25.014 60.885-33.577 13.075-4.241 33.8-20.999 37.927-30.207 10.886-24.289-37.782-72.957-62.069-62.071z"/><path d="m427.749 308.404c-17.306 17.306-41.676 17.733-61.559 28.476-21.563 11.651-37.643 31.507-59.884 35.176-24.168 3.988-43.794-8.047-65.746-13.819-22.855-6.01-45.839-3.962-62.815-20.938-16.977-16.977-18.279-48.234-24.288-71.09-5.772-21.952-18.226-32.466-14.238-56.634 1.682-10.192.982-22.968 7.021-32.246 7.138-10.967 15.736-21.751 22.048-33.432 10.743-19.883 14.862-46.379 32.168-63.685s43.801-21.424 63.684-32.167c11.046-5.968 21.29-13.981 31.646-20.871 9.86-6.56 23.963-6.766 34.811-8.556 24.168-3.988 42.538 8.885 64.49 14.657 22.855 6.01 46.257 7.73 63.234 24.707s13.672 39.541 19.682 62.396c5.772 21.952 17.389 43.254 13.401 67.422-3.67 22.24-18.919 37.902-30.57 59.465-10.746 19.882-15.779 43.833-33.085 61.139z"/></g><path d="m486.385 118.673c-6.01-22.855-6.897-49.691-23.874-66.669-16.977-16.977-43.813-17.864-66.668-23.873-21.952-5.773-45.224-18.839-69.392-14.851-10.847 1.79-20.807 7.335-30.666 13.895 3.259-1.344 6.589-2.363 10.026-2.93 20.209-3.335 39.668 7.591 58.024 12.418 19.111 5.025 41.551 5.767 55.747 19.963s14.938 36.636 19.963 55.747c4.826 18.356 15.753 37.815 12.418 58.024-3.069 18.597-19.326 34.073-29.068 52.104-8.983 16.626-12.427 38.782-26.899 53.253-14.471 14.471-36.626 17.914-53.251 26.898-18.031 9.743-33.508 26-52.105 29.069-20.209 3.335-39.668-7.591-58.024-12.418-19.111-5.025-41.551-5.767-55.747-19.962-14.196-14.196-14.938-36.636-19.963-55.748-4.827-18.356-15.753-37.815-12.418-58.024.567-3.436 1.587-6.766 2.93-10.024-6.559 9.859-12.104 19.818-13.894 30.664-3.988 24.168 9.079 47.439 14.851 69.391 6.01 22.855 6.897 49.692 23.874 66.669s43.813 17.863 66.667 23.873c21.952 5.772 45.223 18.839 69.392 14.851 22.241-3.67 40.75-23.113 62.313-34.764 19.882-10.743 46.378-14.861 63.683-32.167 17.306-17.306 21.425-43.802 32.168-63.686 11.65-21.562 31.093-40.071 34.763-62.311 3.989-24.169-9.078-47.44-14.85-69.392z" fill="#ffac62"/><path d="m217.051 286.598c-17.175-17.175-24.843-42.705-21.592-71.887 3.672-32.961 20.378-65.797 47.038-92.458 26.661-26.66 59.496-43.366 92.457-47.038 29.182-3.252 54.712 4.417 71.887 21.592 17.176 17.175 24.844 42.705 21.592 71.887-3.671 32.96-20.377 65.796-47.038 92.457-26.66 26.66-59.496 43.366-92.457 47.038-29.182 3.251-54.712-4.417-71.887-21.591z" fill="#98e8f2"/><path d="m419.699 94.816c-18.519-18.519-46.046-26.788-77.512-23.282-35.539 3.959-70.944 21.972-99.69 50.718-28.746 28.747-46.759 64.152-50.719 99.691-3.505 31.465 4.763 58.993 23.281 77.512 18.519 18.519 46.047 26.786 77.512 23.281 35.54-3.96 70.945-21.972 99.691-50.719 28.747-28.746 46.759-64.151 50.718-99.69 3.507-31.464-4.761-58.991-23.281-77.511zm-16.498 67.576c-3.173 28.487-17.612 56.867-40.655 79.91-23.042 23.042-51.422 37.481-79.91 40.655-25.222 2.81-47.287-3.818-62.132-18.662-14.844-14.844-21.472-36.91-18.662-62.132 3.174-28.488 17.612-56.868 40.655-79.91 23.043-23.043 51.422-37.481 79.91-40.654 25.222-2.811 47.287 3.818 62.132 18.662 14.844 14.844 21.472 36.909 18.662 62.131z" fill="#a6aff4"/><circle cx="195.638" cy="318.878" fill="#ffe35c" r="23.406"/><circle cx="439.121" cy="75.395" fill="#ffe35c" r="23.406"/></g><g fill="#4e0325"><path d="m501.931 134.249c-2.222-6.335-4.322-12.318-5.848-18.125-1.406-5.347-2.518-10.933-3.696-16.849-3.679-18.479-7.848-39.423-22.785-54.361-14.937-14.937-35.881-19.107-54.359-22.785-5.915-1.178-11.503-2.291-16.849-3.696-5.808-1.528-11.792-3.627-18.128-5.849-16.674-5.848-35.569-12.484-55.447-9.197-16.697 2.755-30.875 12.707-44.587 22.332-6.791 4.766-13.812 9.695-20.86 13.503-6.443 3.481-13.838 6.276-21.668 9.235-15.551 5.878-31.631 11.955-44.34 24.663-12.708 12.709-18.786 28.789-24.663 44.34-2.959 7.83-5.755 15.226-9.236 21.669-3.808 7.048-8.736 14.069-13.503 20.86-9.624 13.711-19.576 27.888-22.331 44.586-3.28 19.876 3.349 38.774 9.198 55.446 2.223 6.336 4.322 12.32 5.849 18.127 1.406 5.347 2.518 10.935 3.696 16.849.334 1.676.672 3.373 1.021 5.083-1.067 2.225-1.943 4.354-2.584 6.332-4.453 13.73-9.095 26.968-16.874 37.99-9.109 12.907-21.193 24.782-34.026 33.439-11.44 7.717-25.608 12.308-39.311 16.748l-1.351.438c-1.68.546-3.729 1.105-5.9 1.696-13.616 3.714-38.961 10.628-38.961 38.049 0 6.33 2.057 12.119 5.97 16.92-8.936 15.451-10.328 37.686 2.099 50.113 6.012 6.012 14.436 9.17 24.179 9.17 2.229 0 4.528-.165 6.882-.499 7.141-1.014 14.152-3.565 20.031-7.159 3.626 2.238 7.902 3.554 12.936 3.554 26.275 0 34.143-26.265 38.369-40.376.479-1.6.931-3.111 1.377-4.486 4.397-13.557 8.602-25.576 15.537-35.378 10.992-15.535 22.653-27.605 34.657-35.875 11-7.579 24.012-11.769 37.788-16.205l3.581-1.155c1.875-.609 3.88-1.417 5.983-2.41 1.934.398 3.851.78 5.742 1.157 5.915 1.178 11.503 2.29 16.849 3.696 5.807 1.528 11.791 3.626 18.126 5.849 13.611 4.775 28.703 10.069 44.602 10.069 3.577 0 7.197-.268 10.847-.871 16.697-2.755 30.875-12.707 44.587-22.332 6.791-4.766 13.812-9.695 20.86-13.503 6.444-3.482 13.839-6.277 21.669-9.236 15.55-5.878 31.63-11.954 44.338-24.663.001-.001 0 .001.001 0 12.707-12.709 18.786-28.79 24.663-44.34 2.959-7.829 5.755-15.226 9.236-21.668 3.808-7.048 8.737-14.069 13.503-20.859 9.625-13.712 19.577-27.89 22.332-44.587 3.277-19.879-3.352-38.776-9.201-55.449zm-29.213-31.059c1.184 5.948 2.408 12.099 3.969 18.033 1.732 6.586 4.064 13.235 6.32 19.664 5.544 15.803 10.78 30.729 8.335 45.545-1.559 9.444-6.861 18.617-13.224 28.048-18.845 17.742-40.171 32.477-62.191 45.923 20.689-26.43 33.64-56.61 37.021-86.963 2.898-26.01-1.651-49.687-12.912-68.643 7.516-.228 14.55-3.255 19.892-8.596 3.981-3.98 6.671-8.902 7.883-14.262 1.998 6.663 3.437 13.867 4.907 21.251zm-250.567 189.175c-16.32-16.32-23.567-40.935-20.406-69.31 3.708-33.287 20.7-66.568 47.843-93.711 27.143-27.144 60.423-44.134 93.71-47.843 4.352-.485 8.616-.725 12.775-.725 22.956 0 42.719 7.314 56.536 21.132 16.321 16.32 23.568 40.935 20.406 69.31-3.708 33.286-20.699 66.566-47.843 93.71-27.143 27.143-60.423 44.134-93.71 47.844-28.372 3.158-52.991-4.087-69.311-20.407zm-38.809 38.809c-6.78-6.78-6.78-17.813 0-24.592 3.39-3.391 7.843-5.085 12.296-5.085s8.906 1.695 12.296 5.084c3.285 3.285 5.094 7.652 5.094 12.297s-1.809 9.012-5.094 12.296v.001c-3.284 3.284-7.651 5.093-12.296 5.093-4.645-.001-9.012-1.81-12.296-5.094zm268.075-268.076c6.78 6.78 6.78 17.813 0 24.593-6.78 6.779-17.812 6.779-24.592 0-6.78-6.78-6.78-17.813 0-24.593 3.39-3.389 7.843-5.084 12.296-5.084s8.906 1.695 12.296 5.084zm-123.332-39.924c2.572-.424 5.147-.617 7.73-.617 12.293 0 24.754 4.37 37.812 8.951 6.431 2.256 13.081 4.589 19.667 6.32 5.934 1.561 12.085 2.785 18.033 3.97 7.384 1.47 14.588 2.908 21.252 4.909-5.359 1.212-10.282 3.903-14.263 7.884-5.341 5.34-8.368 12.375-8.595 19.892-18.956-11.262-42.634-15.81-68.644-12.914-30.354 3.381-60.534 16.333-86.965 37.022 13.446-22.02 28.182-43.348 45.925-62.193 9.431-6.363 18.603-11.665 28.048-13.224zm-83.291 44.043c7.281-2.752 14.779-5.594 21.76-9.13-16.761 22.899-30.851 47.54-44.545 71.817-16.241 19.707-28.09 41.666-34.779 64.325-1.676-25.575-.905-52.754 4.618-80.959 4.056-9.882 8.654-18.924 15.698-25.968 9.655-9.657 23.059-14.722 37.248-20.085zm-101.376 140.623c2.01-12.184 10.243-23.912 18.958-36.329 4.31-6.141 8.738-12.461 12.643-19.149-1.828 33.862 1.723 65.596 6.299 92.899 1.247 16.412 5.792 31.402 13.414 44.228-7.23.22-14.394 3.076-19.901 8.583-4.073 4.073-6.691 9.054-7.872 14.297-2.005-6.674-3.446-13.89-4.919-21.287-1.184-5.948-2.408-12.1-3.969-18.034-1.732-6.586-4.064-13.236-6.32-19.666-5.541-15.801-10.778-30.727-8.333-45.542zm-102.722 282.78c-6.159.875-11.282-.217-14.06-2.996-5.106-5.106-3.882-16.662.484-24.88 6.538 2.369 13.338 3.51 18.664 4.047.763 6.754 2.365 14.088 5.163 20.613-3.112 1.562-6.702 2.712-10.251 3.216zm114.349-116.379c-13.952 9.612-27.292 23.341-39.65 40.806-8.555 12.09-13.511 26.186-18.243 40.776-.489 1.507-.986 3.163-1.511 4.919-5.18 17.294-9.566 26.075-19.157 26.075-1.327 0-2.524-.592-3.602-1.605-.43-.745-.952-1.451-1.589-2.088-.091-.091-.188-.168-.282-.254-3.891-6.25-5.692-18.456-5.731-25.66-.006-2.678-1.092-5.242-3-7.121-1.877-1.849-4.414-2.883-7.044-2.883-.044 0-.088.001-.132.001-6.505.08-17.461-1.177-24.436-4.662-.903-.796-1.91-1.408-2.979-1.824-.42-.322-.81-.657-1.165-1.007-1.459-1.44-2.082-2.917-2.082-4.94 0-10.356 7.461-14.139 24.184-18.701 2.406-.656 4.677-1.276 6.809-1.967l1.347-.436c15.024-4.869 30.56-9.903 44.344-19.201 14.799-9.983 28.719-23.656 39.196-38.5 5.359-7.593 9.357-15.668 12.723-24.034 3.023 6.297 6.915 12.225 12.114 17.424 4.938 4.939 10.536 8.695 16.482 11.651-9.155 3.377-18.192 7.441-26.596 13.231zm187.961-22.103c-12.418 8.716-24.147 16.949-36.331 18.961-14.816 2.439-29.742-2.792-45.545-8.336-6.43-2.255-13.079-4.588-19.665-6.319-5.935-1.561-12.086-2.785-18.034-3.97-7.383-1.469-14.586-2.908-21.249-4.908 5.359-1.212 10.281-3.902 14.26-7.882 5.348-5.348 8.376-12.394 8.596-19.922 11.825 7.028 25.484 11.439 40.406 13.063 23.3 4.053 50.017 7.51 78.662 7.51 5.72 0 11.52-.146 17.381-.444-6.439 3.807-12.546 8.08-18.481 12.247zm84.208-45.169c-7.487 7.487-17.23 12.212-27.842 16.458-27.863 5.222-54.709 5.855-79.972 4.12 22.972-6.64 45.246-18.587 65.209-35.039 24.277-13.694 48.919-27.785 71.819-44.547-3.536 6.98-6.378 14.479-9.13 21.76-5.363 14.189-10.428 27.593-20.084 37.248z"/><path d="m312.434 242.624-8.269 8.269c-2.35 2.349-2.35 6.159 0 8.508 1.175 1.175 2.715 1.763 4.254 1.763s3.08-.588 4.254-1.763l8.269-8.269c2.35-2.349 2.35-6.159 0-8.508-2.348-2.351-6.158-2.351-8.508 0z"/><path d="m337.364 184.934-8.269 8.269c-2.35 2.35-2.35 6.16 0 8.509 1.175 1.175 2.714 1.763 4.254 1.763 1.539 0 3.08-.588 4.254-1.762l8.269-8.269c2.35-2.35 2.35-6.16 0-8.509-2.349-2.349-6.159-2.35-8.508-.001z"/><path d="m391.654 207.535 8.269-8.269c2.35-2.349 2.35-6.159 0-8.508-2.349-2.35-6.16-2.35-8.509 0l-8.269 8.269c-2.35 2.349-2.35 6.159 0 8.508 1.175 1.175 2.715 1.763 4.255 1.763 1.539 0 3.079-.588 4.254-1.763z"/></g><g fill="#fff"><path d="m329.637 126.113c-4.356 0-8.366-2.861-9.632-7.257-1.532-5.322 1.541-10.878 6.863-12.41 2.04-.587 4.112-1.123 6.156-1.594 5.398-1.247 10.78 2.125 12.022 7.522 1.243 5.397-2.125 10.78-7.522 12.022-1.696.391-3.415.835-5.11 1.324-.926.266-1.859.393-2.777.393z"/><path d="m263.274 170.707c-2.302 0-4.615-.788-6.504-2.399-4.213-3.595-4.714-9.924-1.119-14.138 2.834-3.321 5.866-6.601 9.012-9.749 7.932-7.932 16.507-14.946 25.487-20.847 4.628-3.041 10.845-1.755 13.887 2.873 3.042 4.629 1.755 10.846-2.873 13.888-7.841 5.153-15.35 11.299-22.318 18.266-2.774 2.774-5.445 5.664-7.939 8.586-1.983 2.325-4.799 3.52-7.633 3.52z"/></g><g><path d="m37.524 95.237-9.387 26.395c-.402 1.13-1.198 2.026-2.202 2.478l-23.45 10.565c-3.313 1.493-3.313 6.771 0 8.264l23.451 10.565c1.004.452 1.8 1.348 2.202 2.478l9.387 26.395c1.326 3.729 6.016 3.729 7.342 0l9.387-26.395c.402-1.13 1.197-2.026 2.201-2.478l23.451-10.565c3.313-1.493 3.313-6.771 0-8.264l-23.451-10.565c-1.004-.452-1.8-1.348-2.201-2.478l-9.387-26.395c-1.327-3.729-6.017-3.729-7.343 0z" fill="#fff2a5"/><path d="m123.054 3.098-6.963 19.579c-.298.838-.888 1.503-1.633 1.838l-17.396 7.837c-2.457 1.107-2.457 5.023 0 6.13l17.396 7.837c.745.336 1.335 1 1.633 1.838l6.963 19.579c.984 2.766 4.462 2.766 5.446 0l6.963-19.579c.298-.838.888-1.503 1.633-1.838l17.395-7.837c2.457-1.107 2.457-5.023 0-6.13l-17.395-7.837c-.745-.336-1.335-1-1.633-1.838l-6.963-19.579c-.984-2.766-4.463-2.766-5.446 0z" fill="#fff2a5"/><g fill="#ffe35c"><path d="m423.272 396.589c0 11.32 9.177 20.497 20.497 20.497s20.497-9.177 20.497-20.497-9.177-20.497-20.497-20.497-20.497 9.177-20.497 20.497z"/><path d="m51.9 248.302c0 4.733 3.837 8.571 8.57 8.571 4.734 0 8.571-3.837 8.571-8.571s-3.837-8.571-8.571-8.571c-4.733 0-8.57 3.837-8.57 8.571z"/></g></g></g></svg>