<svg id="Capa_1" enable-background="new 0 0 512 512" height="512" viewBox="0 0 512 512" width="512" xmlns="http://www.w3.org/2000/svg"><g><g><ellipse cx="270.691" cy="359.039" fill="#75b7f2" rx="174.356" ry="136.95"/><path d="m274.317 222.09c-4.412 0-8.785.131-13.117.379 78.644 4.87 140.531 56.537 140.531 119.56 0 66.24-68.366 119.939-152.699 119.939-80.237 0-146.015-48.611-152.216-110.382-.315 3.402-.482 6.837-.482 10.303 0 77.208 79.685 139.798 177.982 139.798s177.982-62.59 177.982-139.798-79.684-139.799-177.981-139.799z" fill="#8289f3"/><path d="m138.652 356.488c-41.178 0-87.83-16.821-109.433-59.944-15.205-30.351-13.61-61.006-13.775-62.271-1.292-9.885 5.674-18.945 15.559-20.236 9.884-1.294 18.93 5.664 20.233 15.535.066.482.646 11.038 4.862 24.803 7.901 25.794 28.57 62.855 82.555 66.014 9.952.582 18.05 8.081 18.05 18.05-.002 9.968-8.083 18.049-18.051 18.049z" fill="#98e8f2"/><path d="m39.394 252.956h79.203v-46.326h-79.203c-12.793 0-23.163 10.37-23.163 23.163-.001 12.792 10.37 23.163 23.163 23.163z" fill="#98e8f2"/><path d="m452.299 223.351c0 77.208-79.685 207.019-177.982 207.019s-177.982-129.811-177.982-207.019 79.685-58.686 177.982-58.686 177.982-18.522 177.982 58.686z" fill="#a6aff4"/><ellipse cx="274.317" cy="223.351" fill="#98e8f2" rx="177.982" ry="139.798"/><ellipse cx="274.317" cy="285.742" fill="#a6aff4" rx="119.683" ry="94.006"/><g fill="#45b1c6"><path d="m318.418 327.867c-38.608 12.893-79.176-4.412-90.61-38.652-11.435-34.24 10.594-72.449 49.202-85.343 8.034-2.683 16.153-4.058 24.076-4.244 3.87-.091 4.334-5.598.536-6.346-15.876-3.127-33.21-2.226-50.236 3.459-47.397 15.828-74.44 62.736-60.403 104.77 14.038 42.035 63.84 63.279 111.237 47.451 17.025-5.686 31.423-15.381 42.234-27.421 2.586-2.88-1.094-7.003-4.242-4.75-6.444 4.614-13.76 8.393-21.794 11.076z"/><path d="m340.038 271.86c5.66-6.11 16.826-3.833 26.857-3.374 14.169.342-3.169-12.465-.824-19.219 2.019-5.815 8.81-6.85 13.896-9.897 5.052-3.775 4.759-12.894.366-17.474-17.393-14.766-32.691 12.178-48.557 17.231-14.143 6.792-38.522-14.918-42.448 7.41-2.375 9.079.561 21.892 10.259 23.146 4.352.444 9.815-1.834 12.455 1.967 1.364 1.964 1.164 4.689 1.29 7.164.478 5.8 2.986 13.664 8.403 15.572 10.252-4.259 12.642-16.416 18.303-22.526z"/></g></g><g fill="#4e0325"><path d="m462.379 230.955c.037-.596.055-1.193.083-1.79.03-.649.07-1.303.09-1.946.04-1.287.062-2.576.062-3.868 0-40.575-19.914-78.562-56.073-106.963-35.425-27.825-82.383-43.149-132.223-43.149s-96.798 15.324-132.223 43.149c-27.985 21.981-46.23 49.706-53.053 79.927h-49.648c-15.714 0-28.927 10.885-32.511 25.51-.159.342-.305.695-.428 1.061-1.324 3.926-1.764 8.004-1.31 12.131v.377c-.006 23.284 5.269 46.642 14.852 65.771 10.951 21.859 28.949 39.418 52.046 50.778 4.521 2.224 9.22 4.195 14.053 5.932-.044 1.34-.074 2.679-.074 4.013 0 40.575 19.914 78.562 56.073 106.963 35.424 27.825 82.382 43.149 132.222 43.149 49.841 0 96.798-15.324 132.223-43.149 36.159-28.401 56.073-66.388 56.073-106.963 0-22.152-5.882-43.422-17.461-63.279 9.882-23.448 15.996-46.935 17.227-67.654zm-357.853 70.127c-17.487-9.144-27.917-23.832-34.128-37.812h21.106c3.129 12.348 7.52 25.098 13.022 37.812zm52.131 48.465c-4.32-5.647-8.413-11.497-12.273-17.477 35.147 26.707 81.155 41.393 129.933 41.393 48.777 0 94.786-14.685 129.933-41.392-3.859 5.979-7.953 11.829-12.272 17.476-20.144 26.333-62.216 70.509-117.66 70.509s-97.517-44.176-117.661-70.509zm65.281-58.371c6.099 18.262 19.792 32.728 38.557 40.733 18.414 7.855 39.563 8.537 59.582 1.929-6.15 3.793-12.805 6.916-19.815 9.257-44.083 14.721-90.473-4.81-103.407-43.541-6.221-18.628-3.857-38.928 6.655-57.162 10.652-18.476 28.352-32.603 49.839-39.778 7.012-2.342 14.206-3.846 21.401-4.508-19.974 6.747-36.468 20-46.468 37.343-10.19 17.673-12.443 37.464-6.344 55.727zm138.27 43.336c-12.311 5.695-25.637 10.208-39.721 13.328 14.855-7.869 27.565-19.067 36.707-32.557 2.347-3.461 1.707-8.093-1.488-10.777-3.195-2.682-7.87-2.511-10.872.399-7.845 7.602-17.657 13.512-28.376 17.092-17.236 5.756-35.386 5.233-51.107-1.473-15.463-6.596-26.712-18.411-31.674-33.269s-3.07-31.061 5.327-45.626c8.536-14.807 22.73-26.131 39.966-31.886 10.718-3.58 22.113-4.751 32.953-3.389 4.148.521 7.986-2.15 8.929-6.213.942-4.063-1.328-8.152-5.285-9.509-20.806-7.14-44.297-7.055-66.141.241-24.36 8.135-44.476 24.236-56.641 45.337-12.305 21.343-15.029 45.231-7.672 67.264 5.913 17.705 17.706 32.005 32.9 41.843-10.37-2.863-20.271-6.493-29.588-10.803-34.252-20.187-56.414-52.12-56.414-87.999 0-60.901 63.837-110.447 142.304-110.447s142.305 49.546 142.305 110.447c.002 35.877-22.16 67.81-56.412 87.997zm-85.891-240.645c92.452 0 167.668 58.087 167.668 129.484 0 22.877-7.733 44.383-21.271 63.054 5.444-12.661 8.284-26.094 8.284-39.891 0-33.095-16.286-64.113-45.858-87.341-29.132-22.881-67.779-35.483-108.823-35.483s-79.691 12.602-108.823 35.483c-29.572 23.228-45.858 54.246-45.858 87.341 0 13.797 2.841 27.231 8.285 39.892-13.539-18.671-21.272-40.178-21.272-63.056 0-71.396 75.216-129.483 167.668-129.483zm-234.923 123.076h46.806c-.111 2.129-.179 4.264-.179 6.408 0 1.292.021 2.582.061 3.868.02.643.06 1.297.09 1.946.028.597.047 1.195.083 1.79.226 3.807.623 7.71 1.171 11.686h-48.032c-7.085 0-12.849-5.764-12.849-12.849s5.764-12.849 12.849-12.849zm-.954 74.981c-4.615-9.211-8.056-19.621-10.179-30.565 3.485 1.233 7.23 1.911 11.133 1.911h8.797c8.926 24.923 28.162 54.765 69.572 64.516 3.421 6.104 7.078 12.121 10.948 17.999-23.468-1.759-68.753-10.906-90.271-53.861zm403.545 69.964c0 71.397-75.216 129.484-167.668 129.484-91.706 0-166.439-57.155-167.64-127.76 10.338 2.101 21.072 3.191 31.974 3.191 1.668 0 3.327-.156 4.962-.447 38.152 47.977 84.399 74.329 130.704 74.329 47.665 0 95.269-27.916 134.045-78.604 9.59-12.537 18.184-26.039 25.562-39.895 5.347 12.749 8.061 26.042 8.061 39.702z"/><path d="m384.338 217.178c-15.361-13.04-29.792-1.537-40.33 6.864-4.82 3.843-9.803 7.815-14.11 9.187-.275.087-.542.193-.802.318-3.635 1.745-9.782.192-15.727-1.309-7.856-1.984-15.979-4.037-22.597.247-3.883 2.514-6.405 6.797-7.496 12.733-2.004 7.943-.702 16.904 3.341 22.902 2.96 4.391 7.17 7.054 12.175 7.7.055.007.11.014.165.019 1.928.197 3.778.039 5.411-.101.796-.068 1.892-.161 2.618-.146.071.595.095 1.456.112 2.088.014.487.027.97.051 1.445.003.066.008.131.013.197.677 8.212 4.321 18.014 12.514 20.9.666.235 1.361.352 2.056.352.808 0 1.615-.158 2.373-.473 8.666-3.598 12.804-11.144 16.129-17.208 1.479-2.697 2.876-5.245 4.342-6.827 2.619-2.826 9.625-2.29 16.401-1.771 1.842.141 3.747.287 5.633.374.044.002.089.003.133.004 1.995.048 8.083.195 10.861-4.622 2.816-4.884-.177-9.779-2.818-14.098-.845-1.383-2.357-3.856-2.691-5.054.732-1.313 2.715-2.246 5.741-3.588 1.734-.769 3.528-1.563 5.31-2.631.18-.109.355-.226.524-.352 3.553-2.655 5.735-6.842 6.143-11.792.461-5.59-1.414-11.169-5.016-14.923-.144-.153-.298-.297-.459-.435zm-6.859 14.342c-.099 1.204-.484 2.207-1.043 2.746-1.06.597-2.304 1.149-3.614 1.729-4.336 1.922-10.275 4.555-12.597 11.243-1.866 5.375 1.223 10.618 3.824 14.876-.695-.05-1.402-.104-2.125-.159-9.254-.711-19.744-1.514-26.426 5.699v.001c-2.504 2.702-4.34 6.051-6.115 9.288-2.155 3.928-4.216 7.687-7.224 10.067-1.215-1.812-2.339-4.982-2.653-8.606-.016-.349-.026-.704-.035-1.061-.07-2.567-.166-6.083-2.346-9.222-3.864-5.564-10.09-5.03-13.809-4.714-1.105.094-2.248.193-3.021.127-.9-.13-2.201-.533-3.414-2.333-2.084-3.091-2.743-8.599-1.566-13.097.043-.163.079-.328.108-.495.434-2.467 1.171-4.148 2.077-4.734 2.09-1.353 8.049.153 12.838 1.363 7.57 1.915 16.135 4.077 23.714.655 6.325-2.126 12.092-6.723 17.673-11.172 11.919-9.501 17.539-12.882 24.321-7.342 1.019 1.209 1.59 3.233 1.433 5.141z"/><path d="m348.682 202.636c3.418 0 6.189-2.771 6.189-6.188v-11.66c0-3.417-2.771-6.188-6.189-6.188s-6.188 2.771-6.188 6.188v11.66c0 3.417 2.77 6.188 6.188 6.188z"/><path d="m286.263 289.148c-3.418 0-6.189 2.771-6.189 6.189v11.661c0 3.418 2.771 6.189 6.189 6.189s6.188-2.771 6.188-6.189v-11.661c0-3.418-2.771-6.189-6.188-6.189z"/><path d="m257.365 258.729c-3.418 0-6.189 2.771-6.189 6.189v11.661c0 3.418 2.771 6.189 6.189 6.189s6.189-2.771 6.189-6.189v-11.661c0-3.418-2.771-6.189-6.189-6.189z"/></g><g fill="#fff"><path d="m269.85 168.814c-5.56 0-10.145-4.426-10.305-10.02-.163-5.694 4.322-10.441 10.016-10.604 1.578-.045 3.164-.068 4.756-.068 5.696 0 10.314 4.618 10.314 10.314s-4.618 10.314-10.314 10.314c-1.395 0-2.784.02-4.167.059-.1.004-.2.005-.3.005z"/><path d="m173.213 212.204c-2.294 0-4.6-.76-6.516-2.324-4.413-3.602-5.071-10.1-1.469-14.512 13.216-16.191 31.73-29.1 53.538-37.331 5.329-2.014 11.28.678 13.292 6.007 2.011 5.329-.678 11.28-6.008 13.292-18.414 6.95-33.92 17.696-44.842 31.076-2.037 2.497-5.004 3.792-7.995 3.792z"/></g><g><path d="m466.533 20.343-8.473 23.823c-.363 1.02-1.081 1.828-1.987 2.237l-21.166 9.536c-2.99 1.347-2.99 6.112 0 7.459l21.166 9.536c.906.408 1.624 1.217 1.987 2.237l8.473 23.823c1.197 3.366 5.43 3.366 6.627 0l8.472-23.823c.363-1.02 1.081-1.828 1.987-2.237l21.166-9.536c2.99-1.347 2.99-6.112 0-7.459l-21.166-9.536c-.906-.408-1.624-1.217-1.987-2.237l-8.472-23.823c-1.197-3.366-5.43-3.366-6.627 0z" fill="#d3b5f2"/><path d="m46.965 66.527-6.285 17.672c-.269.757-.802 1.356-1.474 1.659l-15.701 7.074c-2.218 1-2.218 4.534 0 5.533l15.701 7.074c.672.303 1.205.902 1.474 1.659l6.285 17.672c.888 2.496 4.028 2.496 4.916 0l6.285-17.672c.269-.757.802-1.356 1.474-1.659l15.701-7.074c2.218-.999 2.218-4.533 0-5.533l-15.701-7.074c-.672-.303-1.205-.903-1.474-1.659l-6.286-17.672c-.888-2.496-4.027-2.496-4.915 0z" fill="#d3b5f2"/><g fill="#ad84e6"><path d="m136.135 18.5c0 10.217 8.283 18.5 18.5 18.5s18.5-8.283 18.5-18.5c0-10.218-8.283-18.5-18.5-18.5-10.218 0-18.5 8.283-18.5 18.5z"/><circle cx="336.12" cy="37" r="7.736"/></g></g></g></svg>