<svg id="Capa_1" enable-background="new 0 0 512 512" height="512" viewBox="0 0 512 512" width="512" xmlns="http://www.w3.org/2000/svg"><g><g><path d="m501.596 445.047c-3.386-79.937-48.377-155.573-116.726-197.299l-24.767-23.763-35.852-3.141c-56.291-15.923-122.816-13.653-175.607 17.411l6.409 65.16c15.912-10.715 31.447-19.624 51.67-25.396 101.355-28.231 206.886 35.118 230.286 137.481-36.07 13.473-76.719 15.157-113.819 4.845-31.058-10.369-34.674-12.657-45.934-21.157l-53.421 31.446c13.591 17.211 25.668 25.873 54.456 37.758 71.619 30.426 157.621 23.409 223.567-17.905z" fill="#a862e6"/><path d="m309.628 316.003c-37.655 87.328-144.735 134.607-234.69 99.503 8.056-35.319 26.842-68.172 53.413-93.184 12.964-11.187 28.184-21.139 43.879-29.461l19.49-9.649-18.005-23.57 14.427-38.831-21.852 8.778c-20.049 8.871-40.58 19.256-58.271 31.241l-.414.293c-59.391 44.546-95.91 115.734-97.465 189.398 123.311 77.827 290.055 25.937 351.023-102.66l-17.383-32.042z" fill="#ad84e6"/><path d="m314.707 318.762c16.233 8.33 31.087 18.984 46.279 29.014 3.356-6.978 6.418-14.135 9.129-21.477l.145-.423c5.358-16.993 8.823-31.551 11.637-47.319-18.689-11.277-38.179-23.333-56.916-35.059-1.665 18.44-3.805 35.651-8.893 54.91-1.925 5.968-4.156 11.809-6.665 17.508 1.772.97 3.531 1.938 5.284 2.846z" fill="#a862e6"/><path d="m230.844 438.82 45.836-39.292c-11.288-6.969-21.294-14.498-33.416-25.085-25.927-25.026-43.607-56.764-51.531-91.232-14.155-70.203 7.342-140.727 64.224-186.357 38.128 30.742 62.503 75.414 68.112 123.939 21.346 6.16 41.867 15.224 60.789 26.973 2.64-62.925-21.72-126.296-64.509-172.789l-.005-.005c-18.625-20.292-40.375-37.062-64.349-50.183-139.631 72.555-172.956 268.994-64.171 383.049 13.135 13.32 23.461 20.495 34.392 28.094 1.785 1.24 4.896 3.2 4.628 2.888z" fill="#ad84e6"/></g><g fill="#4e0325"><path d="m511.725 444.559c-.807-16.727-3.264-33.396-7.304-49.541-2.222-8.884-4.968-17.775-8.164-26.43-16.942-45.861-46.589-85.808-85.73-115.52-4.961-3.771-10.118-7.363-15.383-10.783.094-5.973-.007-12.075-.317-18.17-.003-.049-.006-.097-.009-.146l-.011-.176c-3.911-57.652-27.703-112.94-66.994-155.678-.018-.021-.037-.041-.057-.061-18.184-19.74-39.149-36.414-62.31-49.559l-4.446-2.524c-3.099-1.759-6.893-1.763-9.995-.01l-4.449 2.513c-68.326 38.597-114.53 105.417-126.763 183.326-2.184 13.911-3.204 27.818-3.132 41.609-4.862 2.897-9.657 5.909-14.266 8.982-.079.052-.157.107-.236.161l-.414.293c-.077.055-.154.111-.229.167-60.27 45.262-98.132 116.917-101.279 191.677l-.228 5.404c-.157 3.737 1.755 7.258 4.976 9.159l4.659 2.75c39.173 23.125 83.869 35.347 129.256 35.347 29.283 0 58.218-5.012 86-14.898 10.587-3.767 20.825-8.201 30.692-13.222 5.626 2.872 11.829 5.686 18.795 8.522 31.166 13.001 64.209 19.593 98.213 19.593 19.502 0 38.925-2.211 57.712-6.568 8.901-2.05 17.847-4.637 26.603-7.692 15.795-5.532 31.073-12.63 45.41-21.098l4.69-2.77c3.24-1.913 5.155-5.464 4.972-9.222zm-371.896-239.613c11.233-71.54 53.556-132.921 116.153-168.5 21.134 12.069 40.275 27.34 56.902 45.397.015.016.03.033.045.049 36.154 39.349 58.046 90.23 61.642 143.25l.005.079c.086 1.702.152 3.403.204 5.102-11.135-5.852-22.699-10.884-34.515-15.012-2.322-.811-4.664-1.583-7.015-2.329-.31-1.993-.656-4.005-1.05-6.064-8.316-46.29-33.122-88.173-69.858-117.943-3.71-3.005-9.015-3.017-12.736-.026-42.501 34.152-68.872 85.189-72.35 140.026-1.207 19.013.361 37.833 4.47 55.951.046.268.111.536.18.803 8.386 36.265 27.02 69.663 54.314 96.01.122.117.246.231.373.342 1.149 1.004 2.263 1.962 3.362 2.901-8.589 6.012-17.754 11.292-27.409 15.736-3.11 1.432-6.26 2.757-9.438 3.998-1.333-1.278-2.67-2.585-4.005-3.938l-.096-.101c-48.822-52.967-70.393-124.305-59.178-195.731zm116.352 167.19c-1.947-1.622-3.945-3.325-6.054-5.165-22.216-21.507-37.999-48.248-46.286-77.392 1.876-.631 3.767-1.241 5.676-1.811 15.058-4.141 30.691-6.24 46.467-6.24 15.829 0 31.525 2.117 46.665 6.297 1.743.479 3.484.987 5.219 1.524-.483 2.068-.992 4.152-1.525 6.241-9.626 29.653-27.117 56.02-50.162 76.546zm55.421-164.97c-18.158-4.039-36.853-6.107-55.619-6.107-18.675 0-37.295 2.055-55.461 6.082 7.434-37.466 26.87-71.686 55.413-97 28.609 25.501 48.183 59.565 55.667 97.025zm-178.556 124.74c10.949 28.924 27.25 55.926 48.496 79.667-31.078 7.708-63.972 6.892-94.453-2.625 8.279-28.961 24.36-55.939 45.957-77.042zm85.056 131.439c-25.594 9.106-52.24 13.724-79.201 13.724-41.541 0-82.457-11.13-118.372-32.192 3.089-68.465 37.837-134.042 93.054-175.561l.18-.128c1.333-.888 2.686-1.769 4.049-2.646 1.45 15.086 4.255 29.943 8.334 44.427-1.482 1.205-2.952 2.421-4.387 3.648-.122.104-.242.212-.358.322-27.859 26.223-47.871 61.137-56.35 98.313-1.13 4.957 1.584 9.983 6.347 11.758 21.612 8.05 44.522 12.05 67.472 12.05 28.11 0 56.278-6.004 82.157-17.918 49.833-22.937 88-65.808 104.712-117.62.064-.197.122-.396.173-.597.375-1.466.723-2.924 1.076-4.385 10.907 4.846 21.333 10.802 31.032 17.759 1.422 1.02 2.825 2.073 4.22 3.138-.521 1.738-1.058 3.499-1.617 5.281l-.063.183c-24.298 65.683-76.217 116.873-142.458 140.444zm160.747-131.505c20.321 19.93 35.619 44.588 44.308 71.55.591 1.827 1.156 3.679 1.69 5.55-1.863.582-3.731 1.132-5.598 1.647-15.122 4.174-30.817 6.29-46.648 6.29-14.29 0-28.474-1.744-42.239-5.154 20.695-23.145 37.208-50.119 48.487-79.883zm71.373 132.101c-8.048 2.809-16.278 5.187-24.476 7.076-17.302 4.013-35.183 6.047-53.145 6.047-31.309 0-61.725-6.067-90.484-18.063-1.713-.698-3.359-1.39-4.966-2.081 13.296-8.471 25.742-18.103 37.182-28.788 1.882.625 3.815 1.254 5.794 1.881.121.038.242.074.363.108 16.913 4.67 34.444 7.038 52.11 7.038 17.654 0 35.165-2.362 52.044-7.021 5.331-1.472 10.678-3.197 15.89-5.13 4.779-1.772 7.501-6.817 6.357-11.785-1.254-5.44-2.747-10.849-4.435-16.065-10.068-31.24-28.068-59.726-52.054-82.376-6.437-6.087-13.354-11.794-20.56-16.964-12.009-8.614-25.01-15.868-38.64-21.558-7.536-3.15-15.338-5.839-23.172-7.99-16.883-4.66-34.394-7.024-52.047-7.024-17.631 0-35.111 2.354-51.955 6.997-.066.019-.134.038-.2.057-1.479.441-2.95.902-4.413 1.376-2.087-12.888-2.764-26.099-1.919-39.417.033-.523.081-1.044.119-1.566 1.626-.425 3.319-.85 5.141-1.287 34.696-8.044 71.736-8.043 106.372-.027 8.218 1.903 16.445 4.286 24.452 7.08 14.469 5.055 28.533 11.585 41.806 19.411 7.905 4.657 15.599 9.819 22.873 15.349 36.063 27.375 63.372 64.168 78.973 106.397 2.941 7.965 5.468 16.149 7.513 24.324 3.663 14.64 5.912 29.75 6.688 44.926-13.027 7.642-26.892 14.059-41.211 19.075z"/><path d="m329.208 355.812c3.36 0 6.085-2.724 6.085-6.084v-11.464c0-3.36-2.724-6.084-6.085-6.084-3.36 0-6.085 2.724-6.085 6.084v11.464c.001 3.36 2.725 6.084 6.085 6.084z"/><path d="m468.047 411.336c-3.36 0-6.085 2.724-6.085 6.085v11.465c0 3.36 2.724 6.085 6.085 6.085s6.085-2.724 6.085-6.085v-11.466c-.001-3.36-2.725-6.084-6.085-6.084z"/><path d="m388.281 445.305c-3.36 0-6.085 2.724-6.085 6.085v11.464c0 3.36 2.724 6.085 6.085 6.085 3.36 0 6.085-2.724 6.085-6.085v-11.464c-.001-3.36-2.725-6.085-6.085-6.085z"/></g><g fill="#fff"><path d="m162.129 202.168c-.747 0-1.505-.083-2.265-.257-5.461-1.246-8.876-6.682-7.63-12.142 4.952-21.706 13.141-42.347 24.341-61.349 2.843-4.826 9.06-6.432 13.885-3.588s6.431 9.06 3.588 13.885c-10.138 17.202-17.553 35.896-22.042 55.564-1.072 4.701-5.25 7.887-9.877 7.887z"/><path d="m218.953 101.025c-2.653 0-5.302-1.035-7.292-3.093-3.893-4.027-3.784-10.447.243-14.339 2.706-2.615 5.519-5.194 8.363-7.664 4.227-3.671 10.633-3.222 14.306 1.008 3.672 4.229 3.221 10.633-1.008 14.306-2.573 2.233-5.118 4.566-7.565 6.931-1.968 1.904-4.509 2.851-7.047 2.851z"/></g><g><path d="m438.863 52.228-8.33 23.423c-.357 1.003-1.063 1.798-1.954 2.199l-20.81 9.376c-2.94 1.325-2.94 6.009 0 7.334l20.81 9.376c.891.401 1.597 1.196 1.954 2.199l8.33 23.423c1.177 3.309 5.339 3.309 6.516 0l8.33-23.423c.357-1.003 1.063-1.798 1.954-2.199l20.81-9.376c2.94-1.325 2.94-6.009 0-7.334l-20.81-9.376c-.891-.402-1.597-1.196-1.954-2.199l-8.33-23.423c-1.177-3.309-5.339-3.309-6.516 0z" fill="#d3b5f2"/><path d="m35.331 135.411-6.179 17.375c-.264.744-.788 1.333-1.449 1.631l-15.437 6.955c-2.181.983-2.181 4.457 0 5.44l15.437 6.955c.661.298 1.185.887 1.449 1.631l6.179 17.375c.873 2.455 3.96 2.455 4.833 0l6.179-17.375c.265-.744.788-1.333 1.449-1.631l15.437-6.955c2.181-.983 2.181-4.457 0-5.44l-15.437-6.955c-.661-.298-1.185-.887-1.449-1.631l-6.179-17.375c-.873-2.454-3.96-2.454-4.833 0z" fill="#d3b5f2"/><g fill="#ad84e6"><path d="m87.826 48.057c0 10.046 8.144 18.189 18.189 18.189 10.046 0 18.189-8.144 18.189-18.189 0-10.046-8.144-18.189-18.189-18.19-10.045 0-18.189 8.144-18.189 18.19z"/><circle cx="444.615" cy="214.393" r="7.606"/></g></g></g></svg>