<svg id="Capa_1" enable-background="new 0 0 512 512" height="512" viewBox="0 0 512 512" width="512" xmlns="http://www.w3.org/2000/svg"><g><g><path d="m446.581 303.908c0 94.72-100.352 178.601-182.371 178.601-115.154 0-189.911-62.606-211.589-173.889 0-3.686-2.494-22.679-2.305-26.318 5.479-105.508 89.39-190.263 194.541-197.072 4.522-.293 20.412 1.258 25.008 1.258 109.799 12.9 176.716 102.266 176.716 217.42z" fill="#ffe35c"/><path d="m258.535 84.788c-5.844 0-11.629.253-17.352.724 89.351 8.03 159.381 83.101 159.381 174.542 0 96.797-78.469 175.266-175.266 175.266-91.441 0-166.513-70.03-174.542-159.38-.472 5.723-.724 11.508-.724 17.352 0 115.153 93.35 208.504 208.504 208.504s208.503-93.35 208.503-208.504c-.001-115.154-93.351-208.504-208.504-208.504z" fill="#ffac62"/><g fill="#fff2a5"><ellipse cx="258.535" cy="293.292" rx="126.611" ry="126.611" transform="matrix(.707 -.707 .707 .707 -131.666 268.715)"/><ellipse cx="258.535" cy="293.292" rx="29.138" ry="29.139" transform="matrix(.16 -.987 .987 .16 -72.383 501.508)"/></g></g><g fill="#4e0325"><path d="m252.412 328.009v34.201c-5.638-.829-11.584.901-15.914 5.232-2.392 2.391-2.392 6.267 0 8.658 2.39 2.392 6.268 2.392 8.658 0 2.495-2.493 6.555-2.493 9.05 0 3.634 3.635 8.409 5.453 13.183 5.453s9.548-1.818 13.183-5.453c2.392-2.391 2.392-6.267 0-8.658-2.39-2.392-6.268-2.392-8.658 0-2.056 2.055-5.174 2.411-7.604 1.08.221-.633.347-1.309.347-2.017v-38.495c4.901-.862 9.458-2.732 13.443-5.4l50.619 50.619c1.195 1.196 2.762 1.794 4.329 1.794s3.134-.598 4.329-1.794c2.392-2.391 2.392-6.267 0-8.658l-50.429-50.429c2.936-3.99 5.055-8.616 6.103-13.633h34.815v13.734c0 2.187 1.167 4.208 3.061 5.302.947.547 2.004.82 3.061.82s2.115-.273 3.061-.82l34.393-19.856c1.894-1.094 3.061-3.115 3.061-5.302s-1.167-4.208-3.061-5.302l-34.393-19.857c-1.893-1.094-4.229-1.094-6.123 0s-3.061 3.115-3.061 5.302v13.734h-34.434c-.763-5.318-2.713-10.258-5.579-14.537l49.523-49.522c2.392-2.392 2.392-6.268.001-8.659-2.392-2.391-6.269-2.392-8.659-.001l-49.334 49.333c-4.279-3.148-9.291-5.349-14.728-6.305v-16.132c8.678-2.632 15.016-10.7 15.016-20.226 0-6.327-2.808-11.998-7.227-15.875 4.419-3.877 7.227-9.548 7.227-15.875 0-3.381-2.741-6.123-6.123-6.123-3.381 0-6.123 2.741-6.123 6.123 0 4.904-3.989 8.893-8.893 8.893s-8.893-3.989-8.893-8.893c0-3.381-2.741-6.123-6.122-6.123s-6.123 2.741-6.123 6.123c0 6.327 2.808 11.998 7.227 15.875-4.419 3.877-7.227 9.548-7.227 15.875 0 9.526 6.337 17.594 15.015 20.226v16.132c-5.437.956-10.45 3.158-14.728 6.306l-49.333-49.333c-2.39-2.392-6.268-2.392-8.658 0-2.392 2.391-2.392 6.267 0 8.658l49.523 49.523c-2.866 4.28-4.816 9.219-5.579 14.537h-37.43c-2.632-8.678-10.7-15.016-20.226-15.016-11.655 0-21.138 9.483-21.138 21.138s9.483 21.138 21.138 21.138c9.526 0 17.594-6.337 20.226-15.015h37.812c1.048 5.016 3.167 9.642 6.103 13.633l-50.429 50.429c-2.392 2.391-2.392 6.267 0 8.658 1.195 1.196 2.762 1.794 4.329 1.794s3.134-.598 4.329-1.794l50.619-50.619c3.987 2.667 8.544 4.537 13.445 5.399zm87.699-42.874 16.025 9.252-16.025 9.252zm-90.469-62.919c0-4.904 3.989-8.893 8.893-8.893s8.893 3.989 8.893 8.893-3.989 8.893-8.893 8.893-8.893-3.989-8.893-8.893zm8.893 48.06c12.691 0 23.016 10.325 23.016 23.016s-10.325 23.015-23.016 23.015c-12.692 0-23.016-10.325-23.016-23.015-.001-12.692 10.324-23.016 23.016-23.016zm-92.554 33.004c-4.904 0-8.893-3.989-8.893-8.893s3.989-8.893 8.893-8.893 8.893 3.989 8.893 8.893-3.989 8.893-8.893 8.893z"/><path d="m241.645 120.037h10.767v24.003c0 3.381 2.741 6.122 6.123 6.122 3.381 0 6.122-2.741 6.122-6.122v-24.003h10.767c3.381 0 6.123-2.741 6.123-6.122s-2.741-6.123-6.123-6.123h-33.78c-3.381 0-6.122 2.741-6.122 6.123 0 3.38 2.742 6.122 6.123 6.122z"/><path d="m88.736 273.249c-11.655 0-21.138 9.483-21.138 21.138s9.483 21.138 21.138 21.138 21.138-9.483 21.138-21.138-9.482-21.138-21.138-21.138zm0 30.031c-4.904 0-8.893-3.989-8.893-8.893s3.989-8.893 8.893-8.893 8.893 3.989 8.893 8.893-3.989 8.893-8.893 8.893z"/><path d="m443.265 280.812-32.09-8.393c-3.277-.856-6.618 1.104-7.473 4.374-.856 3.272 1.103 6.617 4.374 7.473l11.472 3.001v14.242l-11.472 3c-3.271.856-5.23 4.201-4.374 7.473.719 2.751 3.202 4.575 5.919 4.574.512 0 1.034-.065 1.554-.2l32.09-8.393c2.694-.705 4.573-3.138 4.573-5.923v-15.304c0-2.786-1.88-5.22-4.573-5.924zm-7.672 16.5-3.8.994v-7.837l3.8.994z"/><path d="m268.887 434.688c-3.381 0-6.122 2.741-6.122 6.122v5.579l-10.326-9.981c-2.432-2.353-6.307-2.283-8.657.147-2.351 2.431-2.285 6.307.146 8.657l8.296 8.021c-5.244 2.543-9.074 6.887-9.074 13.185 0 14.219 20.806 17.54 24.978 18.062.253.031.507.047.759.047 1.484 0 2.927-.539 4.052-1.533 1.316-1.162 2.071-2.834 2.071-4.59v-37.594c-.001-3.381-2.742-6.122-6.123-6.122zm-6.123 36.089c-4.231-1.364-7.369-3.195-7.369-4.36 0-1.875 4.126-3.115 7.369-3.533z"/><path d="m138.755 200.055c1.566 0 3.134-.598 4.329-1.794 2.392-2.391 2.392-6.267 0-8.658l-14.995-14.997 10.667-10.667 14.996 14.995c2.39 2.392 6.268 2.392 8.658 0 2.392-2.391 2.392-6.267 0-8.658l-19.325-19.325c-2.39-2.392-6.268-2.392-8.658 0l-19.325 19.325c-2.392 2.391-2.392 6.267 0 8.658l19.325 19.325c1.194 1.199 2.762 1.796 4.328 1.796z"/><path d="m395.574 405.543-.993-1.606c-1.92-3.109-4.661-5.624-7.895-7.261-.01-.005-.103-.052-.112-.057-1.403-.71-2.535-1.818-3.275-3.206l-2.13-3.999c-1.59-2.986-5.3-4.117-8.282-2.524-2.985 1.589-4.115 5.297-2.524 8.282l2.13 3.998c1.931 3.626 4.891 6.523 8.529 8.363.009.005.102.052.111.057 1.249.631 2.297 1.593 3.031 2.783l1.343 2.173-9.74 9.74-14.996-14.995c-2.39-2.392-6.268-2.392-8.658 0-2.392 2.391-2.392 6.267 0 8.658l19.325 19.325c1.195 1.196 2.762 1.794 4.329 1.794s3.134-.598 4.329-1.794l19.325-19.325c2.392-2.391 2.392-6.267 0-8.658-1.072-1.073-2.445-1.637-3.847-1.748z"/><path d="m361.356 169.841c3.529 0 6.4 2.871 6.4 6.4 0 10.28 8.364 18.644 18.644 18.644h5.608c3.381 0 6.123-2.741 6.123-6.123 0-3.381-2.741-6.122-6.123-6.122h-5.608c-3.529 0-6.399-2.87-6.399-6.399 0-10.281-8.364-18.645-18.645-18.645-3.381 0-6.123 2.741-6.123 6.122 0 3.382 2.742 6.123 6.123 6.123z"/><path d="m146.637 392.208-19.325 19.325c-2.392 2.391-2.392 6.267 0 8.658l10.839 10.839c1.195 1.196 2.762 1.794 4.329 1.794s3.134-.598 4.329-1.794c2.392-2.391 2.392-6.267 0-8.658l-6.509-6.51 14.995-14.996c2.392-2.391 2.392-6.267 0-8.658-2.39-2.391-6.269-2.391-8.658 0z"/><path d="m280.573 395.798c2.391-2.392 2.391-6.268-.001-8.659-2.393-2.391-6.268-2.39-8.659.001-1.209 1.209-2.815 1.874-4.524 1.874s-3.315-.666-4.525-1.874c-7.269-7.271-19.097-7.271-26.366 0-2.392 2.391-2.392 6.267 0 8.658 2.39 2.392 6.268 2.392 8.658 0 2.495-2.495 6.556-2.493 9.049 0 3.522 3.522 8.203 5.462 13.184 5.462 4.98 0 9.662-1.94 13.184-5.462z"/><path d="m391.268 293.292c0-73.19-59.543-132.734-132.733-132.734s-132.733 59.545-132.733 132.734c0 73.19 59.543 132.733 132.733 132.733s132.733-59.543 132.733-132.733zm-253.221 0c0-66.438 54.051-120.489 120.488-120.489s120.488 54.051 120.488 120.489c0 66.437-54.051 120.488-120.488 120.488s-120.488-54.051-120.488-120.488z"/><path d="m413.185 138.642c-41.308-41.308-96.231-64.058-154.65-64.058s-113.342 22.749-154.65 64.058c-41.308 41.308-64.058 96.231-64.058 154.65 0 58.418 22.749 113.341 64.058 154.649 41.309 41.31 96.23 64.059 154.65 64.059s113.341-22.749 154.65-64.059c41.308-41.308 64.058-96.231 64.058-154.649 0-58.419-22.749-113.342-64.058-154.65zm-154.65 352.949c-109.343 0-198.299-88.956-198.299-198.299s88.956-198.3 198.299-198.3 198.299 88.956 198.299 198.3-88.956 198.299-198.299 198.299z"/></g><g fill="#fff"><path d="m172.657 154.706c-3.525 0-6.952-1.828-8.843-5.097-2.822-4.879-1.154-11.121 3.724-13.942 6.482-3.75 13.257-7.126 20.137-10.038 5.191-2.196 11.178.232 13.374 5.422 2.195 5.19-.231 11.178-5.422 13.374-6.105 2.583-12.118 5.579-17.871 8.908-1.609.931-3.366 1.373-5.099 1.373z"/><path d="m92.769 258.328c-.886 0-1.787-.117-2.683-.361-5.438-1.478-8.649-7.085-7.17-12.523 4.551-16.745 11.492-32.746 20.628-47.558 2.958-4.796 9.243-6.288 14.042-3.327 4.796 2.958 6.286 9.245 3.327 14.042-8.108 13.144-14.265 27.341-18.304 42.197-1.233 4.542-5.348 7.53-9.84 7.53z"/></g><g><path d="m433.451 2.497-8.382 23.569c-.359 1.009-1.069 1.809-1.966 2.213l-20.94 9.434c-2.958 1.333-2.958 6.047 0 7.38l20.94 9.434c.896.404 1.607 1.204 1.966 2.213l8.382 23.569c1.184 3.33 5.372 3.33 6.556 0l8.382-23.569c.359-1.009 1.069-1.809 1.966-2.213l20.94-9.434c2.958-1.333 2.958-6.047 0-7.38l-20.94-9.434c-.897-.404-1.607-1.204-1.966-2.213l-8.382-23.569c-1.184-3.329-5.372-3.329-6.556 0z" fill="#fff2a5"/><path d="m40.079 67.538-6.218 17.483c-.266.749-.793 1.342-1.458 1.642l-15.533 6.998c-2.195.989-2.195 4.485 0 5.474l15.533 6.998c.665.3 1.192.893 1.458 1.641l6.218 17.483c.878 2.47 3.985 2.47 4.863 0l6.218-17.483c.266-.749.793-1.342 1.458-1.641l15.533-6.998c2.194-.989 2.194-4.485 0-5.474l-15.533-6.998c-.665-.3-1.192-.893-1.458-1.642l-6.218-17.483c-.879-2.47-3.985-2.47-4.863 0z" fill="#fff2a5"/><g fill="#ffe35c"><path d="m178.519 20.69c0 10.108 8.195 18.303 18.303 18.303 10.109 0 18.303-8.195 18.303-18.303 0-10.109-8.194-18.303-18.303-18.303s-18.303 8.195-18.303 18.303z"/><circle cx="489.124" cy="127.891" r="7.653"/></g></g></g></svg>