<svg id="Capa_1" enable-background="new 0 0 512 512" height="512" viewBox="0 0 512 512" width="512" xmlns="http://www.w3.org/2000/svg"><g><g><path d="m291.922 127.898-8.969 4.651 6.568 25.87 28.879 11.58c14.056-12.413 28.67-17.032 40.814-12.566 1.128-14.801.467-29.921 1.742-44.532-22.264-1.97-46.996 3.251-69.034 14.997z" fill="#ffc5dd"/><path d="m139.289 311.598c-35.056 6.811-89.507 36.406-62.542 59.838 25.277 21.966 78.686 25.706 108.773 40.28-26.78 6.621-83.027 16.19-118.729-1.223-98.357-47.973-32.84-132.401 74.932-144.195l10.944-.625 10.931 21.281-13.971 22.873z" fill="#ffc5dd"/><path d="m301.512 157.267c-20.12-14.213-30.976-56.307-42.896-53.327-1.988.497-8.182 2.506-8.182 2.506-8.822 18.673-17.977 64.515-29.91 57.693-43.112-24.645.662-139.961-9.447-151.464-13.774-15.674-66.751 54.695-58.421 132.91 6.241 58.603-2.479 93.579-7.108 148.125-.691 8.145-.699 16.059-.068 23.699 13.384 55.675 54.343 107.747 122.076 107.747 75.907 0 105.968-43.163 114.496-108.536 4.354-33.391-4.283-105.482-80.54-159.353zm-38.549 60.436c-11.47-7.746-4.045-13.92-6.617-25.694-.499-2.286-.366-14.583 2.312-16.401 4.001-2.717 16.999 12.107 20.271 14.395 10.45 7.305 22.352 13.151 22.58 24.697.35 17.794-30.704 8.299-38.546 3.003z" fill="#ff8cc0"/><path d="m305.688 156.624c-20.12-14.213-34.719-61.855-49.342-57.741-1.972.555-3.933 3.38-5.91 7.564 6.774 11.201 14.127 24.107 22.621 30.107 65.786 46.474 77.345 109.078 73.587 137.883-7.357 56.396-41.323 100.297-106.806 100.297-43.478 0-77.913-24.105-94.53-59.4 4.172 65.711 53.334 117.381 121.874 117.381 75.907 0 115.28-50.889 123.807-116.262 4.355-33.389-9.043-105.958-85.301-159.829z" fill="#ff68c1"/><path d="m310.238 327.452c0 23.582-17.235 38.242-40.817 38.242-19.509 0-29.923-11.85-37.823-29.086 0-2.575-2.816-8.288-2.467-11.126 2.656-21.591 15.173-48.874 33.88-52.468 1.358-.261 7.656 1.651 9.078 1.651 23.465 11.617 38.149 29.204 38.149 52.787z" fill="#ffc5dd"/><path d="m267.181 272.618c-1.818 0-3.579.247-5.293.668 15.427 3.831 30.033 23.603 30.033 39.042 0 17.169-16.268 32.233-33.437 32.233-14.745 0-26.195-7.641-29.136-20.673-.489 3.406-.745 6.694-.745 9.747 0 23.582 17.461 37.801 41.043 37.801 23.583 0 45.927-20.691 45.927-44.274.002-23.582-24.809-54.544-48.392-54.544z" fill="#ff94de"/><path d="m379.358 498.072c65.405-8.164 84.478-97.237 50.492-162.456-5.254 69.556-52.068 107.694-80.239 121.164-24.957 11.933-70.047 34.625-130.582 42.16 29.371 2.847 111.012 5.287 160.329-.868z" fill="#ff8cc0"/><path d="m420.936 150.975c-10.916-23.433-33.732-35.751-59.98-38.074l-7.294 21.096 5.552 23.435c6.468 2.379 12.237 7.331 16.846 15.066 13.26 22.259-48.636 96.515-38.75 113.52 9.886 17.006 103.801-91.734 83.626-135.043z" fill="#ffc5dd"/><g fill="#ff8cc0"><path d="m305.358 27.311c-1.27 10.42-19.087 33.03-29.506 31.76s-16.486-21.823-15.216-32.243 10.746-17.836 21.166-16.566c10.419 1.269 24.826 6.629 23.556 17.049z"/><path d="m492.328 247.315c-5.011 14.189-31.814 42.125-42.388 38.391s-9.756-33.348-4.745-47.537 17.645-22.665 28.218-18.931c10.574 3.734 23.926 13.888 18.915 28.077z"/></g></g><g fill="#4e0325"><path d="m269.647 381.554c13.907 0 28.042-5.862 38.783-16.082 10.972-10.44 17.264-24.404 17.264-38.311 0-28.234-28.375-64.663-58.512-64.663-32.424 0-48.697 45.604-48.697 71.135 0 28.216 21.038 47.921 51.162 47.921zm-2.466-98.816c16.812 0 38.274 24.911 38.274 44.425 0 17.556-17.402 34.154-35.809 34.154-14.95 0-30.924-7.272-30.924-27.682.001-20.099 12.75-50.897 28.459-50.897z"/><path d="m267.181 442.835c38.895 0 70.659-12.337 94.412-36.666 21.066-21.578 34.7-52.147 39.43-88.405 2.392-18.338-.479-41.336-7.857-63.503 5.313-6.849 10.479-14.128 15.219-21.548 16.302-25.517 33.303-61.154 21.724-86.012-8.688-18.652-24.312-32.199-45.18-39.174-28.79-9.624-64.483-5.69-95.892 10.469-10.414-17.284-20.43-33.075-35.431-28.854-9.365 2.635-13.382 13.581-20.875 36.109-2.628 7.902-7.137 21.458-10.648 27.571-17.972-16.44-9.142-67.753-3.744-99.112 4.925-28.611 6.671-40.509.338-47.714-5.157-5.871-13.082-7.247-21.196-3.687-13.338 5.853-28.575 25.396-39.766 51.005-12.996 29.735-18.366 62.885-15.122 93.342 4.473 42.001 1.046 71.637-2.923 105.954-.145 1.258-.292 2.524-.438 3.791-68.053 7.855-122.618 44.086-130.001 86.486-3.045 17.484-.191 50.698 53.125 76.701 16.814 8.201 37.109 10.966 56.844 10.965 27.837-.001 54.553-5.504 68.75-9.014 1.384-.342 2.643-.968 3.727-1.8 21.593 15.025 47.611 23.096 75.504 23.096zm-131.348-120.109c2.885 26.046 12.472 50.453 27.829 70.336-6.229-1.8-12.729-3.497-19.378-5.229-23.342-6.082-47.479-12.371-60.9-24.034-4.505-3.915-3.859-6.325-3.549-7.484 2.99-11.163 30.24-27.22 55.998-33.589zm242.68-196.004c15.468 5.17 26.966 15.034 33.25 28.526 4.367 9.375 1.196 25.832-8.93 46.339-15.421 31.229-40.384 59.376-54.289 70.809.52-1.401 1.159-2.998 1.945-4.814 3.427-7.919 8.379-17.219 13.622-27.065 15.265-28.664 29.684-55.739 20.937-72.663-4.805-9.297-12.112-15.531-21.131-18.032-11.227-3.109-24.907-.313-39.743 8.071-4.076-3.276-8.291-6.456-12.647-9.533-3.895-2.751-7.844-7.578-11.689-13.148 25.935-12.865 55.776-16.146 78.675-8.49zm-15.033 69.068c-.203.52-.416 1.047-.63 1.576-6.691-8.797-14.145-17.174-22.338-25.085 7.199-3.174 13.415-4.229 17.999-2.957 2.263.628 5.612 2.121 8.56 7.822.214.415 1.935 4.462-3.591 18.644zm-207.851 98.775c1.21-14.259 2.702-27.157 4.144-39.631 4.107-35.514 7.654-66.185 2.943-110.42-4.091-38.408 7.784-70.883 15.226-86.822 8.902-19.067 18.69-30.518 24.513-34.982-.486 6.793-2.422 18.043-4.062 27.568-7.464 43.366-17.686 102.757 17.107 122.647 3.979 2.273 8.482 2.643 12.683 1.039 10.549-4.034 15.898-18.711 23.751-42.325 2.21-6.645 5.29-15.905 7.694-21.039 3.84 4.159 9.406 13.41 13.011 19.402 8.059 13.396 16.393 27.247 27.21 34.889 21.627 15.277 39.465 33.192 53.02 53.246.03.044.065.084.096.128-2.189 4.233-4.466 8.511-6.717 12.739-16.07 30.174-24.814 47.844-17.687 60.103.839 1.443 4.478 6.827 12.005 6.827 2.925 0 6.438-.813 10.601-2.987 7.283-3.803 16.612-11.812 26.329-22.214 5.238 21.043 4.271 36.175 3.458 42.415-8.908 68.287-50.377 107.452-113.773 107.452-31.946 0-60.92-12.388-81.586-34.881-22.032-23.984-32.954-57.937-29.966-93.154zm-84.402 106.833c-30.695-14.971-45.632-34.518-42.058-55.04 2.653-15.24 14.896-30.674 34.471-43.46 19.805-12.935 45.65-22.009 73.309-25.812-.522 5.082-1.023 10.318-1.485 15.767-.264 3.111-.422 6.214-.498 9.306-27.234 5.906-68.231 24.849-74.679 48.917-1.579 5.896-2.403 17.372 9.823 27.996 17.002 14.775 43.473 21.673 69.072 28.343 1.767.46 3.523.918 5.264 1.375-23.767 2.657-52.494 2.717-73.219-7.392z"/><path d="m427.815 325.703c-4.427.909-7.715 4.643-8.055 9.151-5.756 76.2-63.08 107.331-74.514 112.798l-3.595 1.723c-25.346 12.171-67.768 32.541-123.872 39.523-5.118.637-8.938 5.022-8.868 10.179s4.008 9.436 9.141 9.934c16.395 1.59 47.85 2.989 81.11 2.989 28.642 0 58.626-1.039 81.448-3.888h.001c26.759-3.34 48.853-19.204 62.211-44.67 19.519-37.208 17.912-90.458-3.999-132.504-2.087-4.007-6.579-6.144-11.008-5.235zm-2.914 128.339c-7.208 13.74-21.177 30.791-46.796 33.988-23.604 2.946-55.135 3.908-84.623 3.746 23.744-8.225 42.858-17.402 56.93-24.159l3.565-1.71c11.141-5.327 60.031-31.739 78.965-92.372 6.341 28.361 3.761 58.009-8.041 80.507z"/><path d="m250.553 202.182c-.613 6.031-1.376 13.536 9.012 20.552 4.604 3.109 17.59 8.362 28.965 8.362 4.155 0 8.097-.701 11.335-2.464 5.098-2.773 7.837-7.763 7.713-14.053-.256-12.963-10.985-20.084-20.45-26.367-1.566-1.039-3.185-2.114-4.715-3.183-.537-.388-2.225-2.007-3.582-3.307-8.15-7.814-16.578-15.896-23.584-11.139-6.954 4.721-4.871 22.551-4.834 22.72.713 3.255.434 5.987.14 8.879zm11.888-18.886c2.74 2.159 6.184 5.463 7.987 7.191 2.408 2.309 3.829 3.657 5.022 4.49 1.656 1.158 3.338 2.274 4.964 3.354 9.268 6.15 14.904 10.329 15.025 16.488.047 2.375-.775 2.821-1.375 3.147-5.796 3.149-22.346-1.677-27.702-5.295-.001-.001-.001-.001-.001-.001-4.369-2.95-4.246-4.161-3.727-9.26.34-3.349.764-7.513-.341-12.628-.189-1.265-.138-4.669.148-7.486z"/><path d="m160.387 487.817c-8.654-.317-32.931-1.495-41.541-3.127.729-.618 2.04-1.404 4.221-1.984 5.4-1.437 8.614-6.98 7.178-12.38s-6.977-8.61-12.38-7.178c-14.232 3.786-20.295 14.221-19.99 22.882.324 9.179 7.188 16.622 17.083 18.521 11.609 2.226 41.338 3.367 44.689 3.489.126.005.251.007.376.007 5.418 0 9.906-4.29 10.106-9.748.204-5.584-4.157-10.277-9.742-10.482z"/><path d="m274.627 69.115c.704.086 1.404.127 2.103.127 9.736 0 18.845-8.022 24.939-15.023 5.961-6.849 12.699-17.192 13.734-25.683 2.022-16.589-14.803-26.176-32.377-28.319-15.949-1.944-30.491 9.446-32.435 25.387-.861 7.068.627 16.48 3.885 24.56 4.508 11.186 11.666 17.916 20.151 18.951zm-3.947-41.063c.549-4.501 4.391-7.813 8.815-7.813.357 0 .718.022 1.082.066 8.338 1.017 13.93 4.265 14.734 5.805-.773 6.129-12.748 20.877-18.267 22.756-2.924-2.244-7.241-13.617-6.364-20.814z"/><path d="m476.783 209.697c-8.083-2.857-17.268-1.441-25.202 3.882-7.127 4.781-12.783 12.318-15.927 21.22-2.997 8.486-4.581 20.878-4.036 31.574 1.011 19.859 8.689 26.663 14.953 28.875 1.724.609 3.54.912 5.446.912 7.908 0 17.365-5.231 28.206-15.623 7.744-7.424 18.06-19.696 21.647-29.852 6.93-19.626-8.146-35.005-25.087-40.988zm6.003 34.249c-3.612 10.228-21.472 28.351-29.221 31.527-2.376-5.553-2.812-22.654 1.171-33.934 1.678-4.752 4.638-8.817 8.119-11.154 1.177-.79 3.223-1.909 5.362-1.909.607 0 1.221.091 1.825.304.162.056 16.055 5.792 12.744 15.166z"/><path d="m353.556 339.538c3.353 0 6.071-2.718 6.071-6.071v-11.439c0-3.353-2.718-6.071-6.071-6.071s-6.071 2.719-6.071 6.071v11.439c-.001 3.353 2.718 6.071 6.071 6.071z"/><path d="m334.164 381.755c3.353 0 6.071-2.719 6.071-6.071v-11.439c0-3.353-2.719-6.071-6.071-6.071s-6.071 2.719-6.071 6.071v11.439c0 3.353 2.718 6.071 6.071 6.071z"/></g><g fill="#fff"><path d="m187.808 225.144c-.156 0-.313-.003-.471-.011-5.583-.256-9.901-4.988-9.646-10.572.051-1.109.096-2.224.136-3.344.198-5.585 4.891-9.913 10.472-9.754 5.585.199 9.952 4.887 9.753 10.472-.042 1.191-.09 2.376-.144 3.553-.247 5.425-4.724 9.656-10.1 9.656z"/><path d="m180.674 297.928c-.317 0-.637-.015-.959-.046-5.564-.524-9.65-5.458-9.127-11.022.949-10.091 2.025-19.392 3.065-28.385.283-2.448.563-4.869.837-7.274.632-5.553 5.651-9.54 11.198-8.909 5.553.631 9.542 5.646 8.911 11.198-.275 2.416-.557 4.851-.841 7.31-1.028 8.889-2.091 18.081-3.02 27.957-.494 5.24-4.902 9.171-10.064 9.171z"/></g><g><path d="m455.935 12.951-8.312 23.372c-.356 1.001-1.06 1.794-1.95 2.194l-20.765 9.355c-2.934 1.322-2.934 5.996 0 7.318l20.765 9.355c.889.401 1.594 1.194 1.95 2.194l8.312 23.372c1.174 3.302 5.327 3.302 6.501 0l8.312-23.372c.356-1.001 1.06-1.794 1.949-2.194l20.766-9.355c2.934-1.322 2.934-5.996 0-7.318l-20.766-9.355c-.889-.401-1.594-1.194-1.949-2.194l-8.312-23.372c-1.174-3.302-5.327-3.302-6.501 0z" fill="#ffc5dd"/><path d="m61.009 50.142-6.166 17.337c-.264.742-.787 1.331-1.446 1.628l-15.404 6.94c-2.176.981-2.176 4.448 0 5.428l15.404 6.94c.659.297 1.182.885 1.446 1.628l6.166 17.337c.871 2.449 3.951 2.449 4.823 0l6.166-17.337c.264-.742.787-1.331 1.446-1.628l15.403-6.94c2.176-.98 2.176-4.447 0-5.428l-15.403-6.94c-.66-.297-1.182-.885-1.446-1.628l-6.166-17.337c-.871-2.45-3.952-2.45-4.823 0z" fill="#ffc5dd"/><g fill="#ff8cc0"><path d="m63.421 193.427c0 10.024 8.126 18.15 18.15 18.15s18.15-8.126 18.15-18.15-8.126-18.15-18.15-18.15-18.15 8.126-18.15 18.15z"/><circle cx="361.251" cy="59.122" r="7.589"/></g></g></g></svg>