<svg id="Capa_1" enable-background="new 0 0 512 512" height="512" viewBox="0 0 512 512" width="512" xmlns="http://www.w3.org/2000/svg"><g><g><path d="m404.476 338.191c10.165-83.784-33.293-172.954-125.418-184.131-105.506-12.8-176.606 60.54-186.771 144.324-5.364 44.215 11.047 82.95 41.278 111.322l-.712 5.869 4.238 27.54c-2.873 23.683 4.82 33.937 28.503 36.81l76.227 9.248c23.683 2.873 32.945-9.13 35.818-32.813l.727-5.992c70.055-7.654 117.834-43.958 126.11-112.177z" fill="#fff2a5"/><path d="m279.059 154.061c-5.462-.663-10.826-1.082-16.099-1.293 69.273 15.494 117.442 85.367 108.595 150.564-7.261 53.507-42.254 79.588-71.078 92.131-18.756 8.162-36.28 19.13-51.254 33.065-7.439 6.923-17.766 10.641-28.643 9.321l-63.019-7.645c-10.326-1.253-19.082-6.798-24.706-14.629l-3.478 28.662c-2.873 23.683 13.996 45.21 37.679 48.084l76.227 9.248c23.682 2.874 45.21-13.996 48.084-37.678l.727-5.992c70.055-7.654 125.532-50.821 133.809-119.04 10.162-83.785-54.719-173.622-146.844-184.798z" fill="#ffb7a9"/><path d="m329.243 348.383c-2.87 23.658-24.376 40.509-48.033 37.639-23.658-2.87-41.055-15.739-38.185-39.396.311-2.565.848-5.152 1.588-7.723l21.692-11.48 19.564-27.227c1.895-.126 3.81-.08 5.735.153 23.657 2.871 40.509 24.376 37.639 48.034z" fill="#ffe35c"/><path d="m307.524 333.945c1.849-15.24-7.54-29.246-21.655-33.731-18.861 1.253-35.718 19.491-41.245 38.693 1.332 13.274 12.886 20.634 27.91 22.457 17.234 2.09 32.9-10.185 34.99-27.419z" fill="#ffac62"/><path d="m192.134 340.452c-2.87 23.658-21.18 32.194-41.57 29.72s-34.592-23.658-31.722-47.315c.24-1.979.592-3.913 1.047-5.793l19.531-14.004 16.015-18.757c1.821-.091 3.666-.029 5.523.197 20.39 2.473 34.046 32.294 31.176 55.952z" fill="#ffe35c"/><path d="m174.793 325.062c1.952-16.085-6.35-35.985-19.359-40.756-16.496.823-31.042 14.208-35.535 32.759.249 15.475 10.201 28.486 23.91 30.149 15.198 1.845 28.845-4.518 30.984-22.152z" fill="#ffac62"/><path d="m206.992 377.018c10.767 1.306 21.617 27.393 14.078 35.237-7.538 7.843-17.732-5.119-17.732-5.119s-12.998 10.149-18.442.73 11.329-32.155 22.096-30.848z" fill="#ffe35c"/><path d="m182.614 117.393v64.546c0 2.177-2.814 5.018-14.463 25.728-1.315 2.339-22.965 48.132 6.438 48.427 30.474.306 39.321-58.822 44.063-58.07 13.833 2.196 18.978 3.397 37.176 3.397 5.237 0-3.201 39.647 27.074 38.363 25.984-1.102 12.73-39.286 17.436-39.698 32.089-2.808 52.112-9.732 52.112-18.147v-64.546" fill="#ff8cc0"/><ellipse cx="267.532" cy="117.393" fill="#ffc5dd" rx="84.918" ry="19.669"/><path d="m292.135 54.533c0 13.042-11.63 23.615-25.976 23.615s-25.976-10.573-25.976-23.615 19.598-44.42 25.976-44.42c6.378.001 25.976 31.378 25.976 44.42z" fill="#ffe35c"/></g><g fill="#4e0325"><path d="m419.894 247.351c-13.197-27.791-32.953-51.903-57.329-70.058v-59.901c0-14.507-18.664-20.508-32.704-23.76-14.664-3.397-33.437-5.458-53.588-5.921v-.807c14.991-4.098 25.976-17.054 25.976-32.37 0-11.087-8.422-26.29-12.042-32.313-13.362-22.221-20.85-22.221-24.048-22.221s-10.687 0-24.048 22.221c-3.621 6.022-12.042 21.225-12.042 32.313 0 15.316 10.986 28.273 25.977 32.37v.885c-19.106.581-36.847 2.601-50.841 5.843-14.039 3.252-32.704 9.253-32.704 23.76v45.182c-23.836 12.715-44.522 31.299-60.089 54.079-16.224 23.743-26.654 51.583-30.163 80.513-5.293 43.618 9.129 84.721 40.672 116.305l-3.584 29.548c-3.541 29.181 17.32 55.801 46.501 59.34l76.227 9.248c2.171.264 4.325.392 6.458.392 25.951-.002 48.561-18.994 52.631-45.071 34.093-5.042 64.244-18.153 87.591-38.16 26.603-22.797 42.923-53.466 47.196-88.693 3.725-30.709-1.823-62.773-16.047-92.724zm-130.586-38.207c.306 5.436.878 15.554-2.227 18.982-.316.349-1.28 1.412-4.607 1.554-9.341.397-12.398-4.143-14.187-21.122-.288-2.731-.537-5.089-1.032-7.173-2.28-9.591-9.918-10.077-11.426-10.077-15.364 0-20.67-.86-31.242-2.573-1.362-.221-2.801-.454-4.348-.699-3.91-.624-9.37.417-13.171 8.898-1.065 2.375-2.181 5.484-3.473 9.084-5.019 13.979-14.346 39.964-28.782 39.964-.04 0-.081 0-.12 0-2.423-.025-3.911-.472-4.424-1.33-3.287-5.505 2.566-24.138 6.737-32.094 5.172-9.194 8.524-14.725 10.745-18.387 3.418-5.64 4.979-8.214 4.979-12.232v-44.328c4.178 1.486 8.511 2.625 12.476 3.543 16.766 3.884 38.901 6.023 62.329 6.023s45.564-2.138 62.329-6.023c3.965-.919 8.299-2.056 12.477-3.543v42.481c-.009.042-.021.083-.029.125-3.156 2.377-14.858 7.345-42.851 9.794-4.441.389-9.807 3.743-10.31 11.919-.132 2.092.002 4.466.157 7.214zm-39.012-154.611c0-6.777 9.667-24.027 15.863-31.715 6.196 7.688 15.863 24.939 15.863 31.715 0 7.445-7.116 13.501-15.863 13.501s-15.863-6.056-15.863-13.501zm5.75 53.488v5.369c0 5.585 4.528 10.113 10.113 10.113s10.114-4.528 10.114-10.113v-5.445c31.738.762 53.131 5.564 62.276 9.448-9.962 4.232-34.447 9.556-71.017 9.556-36.569 0-61.054-5.324-71.016-9.556 8.879-3.771 29.304-8.408 59.53-9.372zm159.815 229.62c-7.323 60.361-55.169 102.589-124.867 110.204-4.672.51-8.375 4.171-8.941 8.835l-.727 5.991c-2.184 17.988-18.504 30.868-36.465 28.892l3.362-27.713c.404-3.327-1.965-6.352-5.293-6.754-3.318-.406-6.351 1.966-6.754 5.293l-3.363 27.723-26.514-3.217 3.363-27.723c.404-3.327-1.965-6.352-5.293-6.755-3.319-.411-6.35 1.966-6.754 5.293l-3.363 27.723-25.979-3.152c-.179-.022-.355-.054-.533-.078l3.362-27.709c.404-3.326-1.965-6.35-5.293-6.754-3.32-.403-6.35 1.965-6.755 5.293l-3.059 25.212c-11.283-6.389-18.237-19.135-16.581-32.79l4.189-34.531c.388-3.197-.769-6.388-3.118-8.592-29.308-27.506-42.859-63.99-38.159-102.73 5.523-45.525 29.116-85.151 64.502-109.886-1.965 3.313-4.415 7.523-7.491 12.992-.181.321-17.415 33.327-6.6 52.032 2.984 5.161 9.179 11.341 21.751 11.466.12.002.238.002.357.002 28.629-.001 41.083-34.686 47.785-53.356.43-1.197.899-2.502 1.35-3.726 7.752 1.242 13.742 2.069 24.272 2.325.687 6.469 1.721 15.052 5.839 22.708 4.072 7.569 12.452 16.446 29.24 15.73 9.737-.413 15.566-4.678 18.741-8.184 8.391-9.264 8.024-22.857 7.503-32.387 21.5-2.47 36.335-6.723 44.73-12.849 43.254 34.323 67.782 89.85 61.556 141.172z"/><path d="m292.335 294.326c-27.232-3.295-52.111 25.008-55.334 51.569-3.014 24.848 13.645 42.532 43.479 46.15 2.016.245 4.027.366 6.027.366 10.944 0 21.51-3.629 30.259-10.484 10.348-8.109 16.918-19.763 18.501-32.813 1.583-13.051-2.01-25.937-10.118-36.286-8.111-10.348-19.764-16.919-32.814-18.502zm30.884 53.326c-2.462 20.299-20.976 34.803-41.278 32.346-10.92-1.325-35.985-7.157-32.893-32.641 2.371-19.539 19.845-41.164 38.843-41.164.991 0 1.986.059 2.983.18 20.297 2.463 34.807 20.98 32.345 41.279z"/><path d="m198.157 341.182c1.548-12.751-1.261-27.504-7.511-39.462-7.101-13.586-17.385-21.841-28.957-23.244-11.644-1.411-23.164 2.464-32.445 10.916-9.03 8.223-14.864 19.849-16.426 32.733-3.269 26.942 13.336 51.197 37.016 54.07 2.538.308 5.004.459 7.397.459 22.486.001 38.244-13.355 40.926-35.472zm-46.862 22.967c-17.036-2.067-28.892-20.263-26.43-40.561 1.214-9.999 5.67-18.957 12.55-25.222 5.759-5.244 12.627-8.034 19.629-8.034 1.059 0 2.121.064 3.183.193 7.378.895 14.545 7.025 19.664 16.818 5.156 9.867 7.481 21.971 6.219 32.379-3.092 25.482-25.379 25.576-34.815 24.427z"/><path d="m207.723 370.994c-9.345-1.144-18.749 7.692-23.968 15.594-6.157 9.322-7.656 18.184-4.112 24.314 2.12 3.669 5.311 6.011 9.228 6.771 4.974.966 9.979-.867 13.522-2.75 2.992 2.676 7.415 5.652 12.473 5.904.231.011.461.017.69.017 3.716 0 7.124-1.507 9.889-4.385 4.907-5.105 5.57-14.069 1.821-24.592-3.177-8.921-10.202-19.739-19.543-20.873zm8.971 37.056c-.657.682-.999.663-1.221.656-2.113-.097-5.643-3.162-7.366-5.321-1.194-1.518-2.974-2.309-4.772-2.309-1.3 0-2.61.414-3.715 1.264-2.205 1.698-6.353 3.84-8.441 3.418-.221-.044-.555-.11-1.029-.929-.734-1.269-.055-5.819 3.731-11.552 4.62-6.996 10.251-10.51 12.38-10.235 2.126.259 6.759 5 9.573 12.898 2.306 6.473 1.877 11.052.86 12.11z"/><path d="m335.191 262.426c-3.351 0-6.068 2.717-6.068 6.068v11.433c0 3.351 2.717 6.068 6.068 6.068s6.068-2.717 6.068-6.068v-11.433c0-3.351-2.717-6.068-6.068-6.068z"/><path d="m361.545 250.379v11.433c0 3.351 2.717 6.068 6.068 6.068s6.068-2.717 6.068-6.068v-11.433c0-3.351-2.717-6.068-6.068-6.068s-6.068 2.717-6.068 6.068z"/><path d="m365.148 313.937v11.433c0 3.351 2.717 6.068 6.068 6.068s6.068-2.717 6.068-6.068v-11.433c0-3.351-2.717-6.068-6.068-6.068s-6.068 2.717-6.068 6.068z"/></g><g fill="#fff"><path d="m215.248 173.263c-.637 0-1.282-.06-1.931-.186l-.8-.154c-.711-.135-.711-.136-1.361-.285l-.736-.168c-5.447-1.235-8.86-6.653-7.625-12.1 1.236-5.446 6.648-8.861 12.101-7.625l.787.18c.3.069.3.068.628.131l.845.162c5.483 1.061 9.07 6.365 8.01 11.85-.934 4.835-5.17 8.195-9.918 8.195z"/><path d="m269.544 177.807c-6.288 0-12.554-.155-18.624-.461-5.578-.281-9.872-5.031-9.591-10.61.281-5.578 5.051-9.888 10.61-9.591 10.441.526 21.595.574 32.146.141 5.578-.226 10.29 4.11 10.519 9.69.23 5.58-4.109 10.29-9.69 10.519-5.034.208-10.205.312-15.37.312z"/></g><g><path d="m404.475 38.93-8.308 23.36c-.356 1-1.06 1.793-1.948 2.193l-20.754 9.35c-2.932 1.321-2.932 5.993 0 7.314l20.754 9.35c.889.4 1.593 1.193 1.948 2.193l8.308 23.359c1.174 3.3 5.324 3.3 6.498 0l8.308-23.359c.356-1 1.06-1.793 1.948-2.193l20.754-9.35c2.932-1.321 2.932-5.993 0-7.314l-20.754-9.35c-.889-.4-1.593-1.193-1.948-2.193l-8.308-23.36c-1.173-3.3-5.324-3.3-6.498 0z" fill="#fff2a5"/><path d="m61.677 132.223-6.162 17.328c-.264.742-.786 1.33-1.445 1.627l-15.395 6.936c-2.175.98-2.175 4.445 0 5.425l15.395 6.936c.659.297 1.181.885 1.445 1.627l6.162 17.328c.87 2.448 3.949 2.448 4.82 0l6.163-17.328c.264-.742.786-1.33 1.445-1.627l15.395-6.936c2.175-.98 2.175-4.445 0-5.425l-15.395-6.936c-.659-.297-1.181-.885-1.445-1.627l-6.163-17.328c-.871-2.448-3.95-2.448-4.82 0z" fill="#fff2a5"/><g fill="#ffe35c"><path d="m112.397 57.98c0 10.018 8.122 18.14 18.14 18.14s18.14-8.122 18.14-18.14c0-10.019-8.121-18.14-18.14-18.14-10.018 0-18.14 8.121-18.14 18.14z"/><ellipse cx="467.372" cy="171.554" rx="7.585" ry="7.585" transform="matrix(.973 -.23 .23 .973 -26.912 111.969)"/></g></g></g></svg>