<svg id="Capa_1" enable-background="new 0 0 512 512" height="512" viewBox="0 0 512 512" width="512" xmlns="http://www.w3.org/2000/svg"><g><g><path d="m78.209 12.026 2.655 35.653c.094 1.266.993 2.327 2.227 2.628l34.734 8.47c2.012.491 2.22 3.27.303 4.055l-33.087 13.542c-1.175.481-1.906 1.664-1.811 2.93l2.678 35.651c.155 2.065-2.424 3.122-3.762 1.541l-23.105-27.282c-.82-.969-2.172-1.299-3.346-.817l-33.079 13.564c-1.916.786-3.718-1.341-2.628-3.102l18.808-30.405c.668-1.08.564-2.467-.257-3.435l-23.123-27.268c-1.339-1.58.126-3.95 2.138-3.458l34.729 8.492c1.233.302 2.52-.226 3.187-1.306l18.789-30.417c1.088-1.763 3.796-1.101 3.95.964z" fill="#ffe35c"/><ellipse cx="218.681" cy="246.336" fill="#fff2a5" rx="25.302" ry="25.302" transform="matrix(.526 -.851 .851 .526 -105.833 302.851)"/><path d="m429.985 104.259 11.037 34.006c.392 1.207 1.517 2.025 2.787 2.025l35.752-.011c2.071-.001 2.932 2.65 1.256 3.867l-28.931 21.005c-1.027.746-1.457 2.069-1.065 3.276l11.059 33.999c.641 1.969-1.614 3.608-3.289 2.39l-28.917-21.024c-1.027-.747-2.418-.747-3.444 0l-28.917 21.024c-1.675 1.218-3.93-.42-3.289-2.39l11.059-33.999c.393-1.207-.037-2.53-1.065-3.276l-28.931-21.005c-1.676-1.217-.815-3.868 1.256-3.867l35.752.011c1.27 0 2.395-.817 2.787-2.025l11.037-34.006c.639-1.97 3.426-1.97 4.066 0z" fill="#75b7f2"/><path d="m448.274 285.837 8.546 34.716c.303 1.233 1.367 2.129 2.633 2.221l35.659 2.577c2.066.149 2.733 2.855.973 3.948l-30.376 18.855c-1.079.67-1.603 1.958-1.299 3.19l8.568 34.71c.496 2.011-1.871 3.481-3.454 2.145l-27.319-23.062c-.97-.819-2.357-.92-3.436-.249l-30.364 18.875c-1.759 1.093-3.889-.704-3.108-2.622l13.491-33.109c.479-1.176.146-2.526-.824-3.344l-27.334-23.045c-1.584-1.335-.533-3.916 1.533-3.766l35.657 2.6c1.266.092 2.448-.642 2.926-1.818l13.47-33.117c.784-1.918 3.563-1.716 4.058.295z" fill="#ffe35c"/><path d="m137.823 349.348 25.555 25.003c.907.888 2.283 1.09 3.408.5l31.665-16.598c1.835-.962 3.827.987 2.907 2.843l-15.882 32.031c-.564 1.137-.331 2.509.577 3.396l25.571 24.986c1.481 1.447.244 3.945-1.805 3.643l-35.371-5.207c-1.256-.185-2.488.46-3.051 1.598l-15.861 32.041c-.919 1.856-3.676 1.451-4.023-.591l-5.978-35.249c-.212-1.252-1.207-2.224-2.463-2.408l-35.374-5.184c-2.049-.3-2.516-3.048-.681-4.008l31.676-16.578c1.125-.589 1.742-1.835 1.529-3.087l-6.001-35.244c-.348-2.042 2.121-3.336 3.602-1.887z" fill="#ffe35c"/><circle cx="281.444" cy="66.471" fill="#98e8f2" r="21.053"/><ellipse cx="40.829" cy="268.937" fill="#98e8f2" rx="21.053" ry="21.053" transform="matrix(.16 -.987 .987 .16 -231.175 266.16)"/><ellipse cx="335.754" cy="476.655" fill="#fff2a5" rx="25.302" ry="25.302" transform="matrix(.707 -.707 .707 .707 -238.706 377.023)"/></g><g fill="#4e0325"><path d="m506.785 324.569c-1.266-5.141-5.665-8.852-10.949-9.236l-30.499-2.204-7.31-29.694v-.001c-1.267-5.143-5.666-8.854-10.949-9.237-5.289-.385-10.169 2.658-12.161 7.56l-11.522 28.327-30.496-2.225c-1.893-.136-3.735.172-5.413.842l-133.727-58.081c.171-1.406.269-2.834.269-4.285 0-19.489-15.856-35.346-35.346-35.346-.232 0-.461.013-.692.018l-24.047-75.641c-.742-2.332-2.308-4.313-4.406-5.571l-84.57-50.725 16.968-6.944c4.899-2.006 7.926-6.901 7.532-12.18-.394-5.28-4.115-9.671-9.261-10.929l-29.71-7.243-2.271-30.494v-.001c-.395-5.28-4.115-9.673-9.258-10.928-5.146-1.256-10.47.928-13.253 5.433l-16.07 26.015-29.703-7.261c-5.143-1.259-10.471.921-13.255 5.425-2.786 4.503-2.355 10.244 1.07 14.284l19.776 23.323-16.085 26.004c-2.787 4.502-2.36 10.242 1.063 14.283 3.423 4.04 9.016 5.408 13.916 3.397l28.293-11.601 19.761 23.335c2.371 2.8 5.783 4.316 9.285 4.316 1.553 0 3.124-.298 4.629-.914 4.9-2.008 7.926-6.903 7.53-12.185l-1.348-17.941 81.374 48.808 22.898 72.026c-9.354 6.366-15.511 17.096-15.511 29.239 0 10.838 4.908 20.547 12.612 27.036l-32.276 87.213-18.825-18.417-.001-.001c-3.785-3.703-9.482-4.538-14.171-2.081-4.69 2.458-7.244 7.616-6.355 12.834l5.133 30.145-27.092 14.179c-4.692 2.455-7.249 7.613-6.362 12.834.888 5.221 5.004 9.244 10.243 10.011l30.256 4.433 5.113 30.148c.886 5.22 4.999 9.245 10.239 10.015.6.088 1.198.132 1.79.132 4.579-.001 8.817-2.576 10.898-6.779l13.567-27.406 30.255 4.454c1.175.174 2.341.165 3.473.008l88.803 37.597c-.146 1.301-.228 2.621-.228 3.961 0 19.489 15.856 35.346 35.346 35.346 19.489 0 35.346-15.856 35.346-35.346 0-7.868-2.587-15.143-6.952-21.023l46.69-62.038c.992-.305 1.959-.732 2.873-1.3l25.971-16.145 23.367 19.727c2.26 1.907 5.048 2.879 7.853 2.879 2.219 0 4.448-.608 6.435-1.843 4.497-2.795 6.665-8.127 5.395-13.264l-7.329-29.688 25.982-16.129c4.495-2.79 6.666-8.12 5.399-13.26zm-433.571-244.512.853 11.359-7.363-8.694c-2.525-2.98-6.157-4.593-9.886-4.593-1.655 0-3.33.318-4.935.976l-10.539 4.322 5.993-9.688c2.967-4.798 2.51-10.912-1.139-15.215l-7.368-8.689 11.062 2.705c5.48 1.345 11.157-.981 14.122-5.783l5.987-9.692.846 11.367c.423 5.626 4.388 10.302 9.863 11.634l11.069 2.698-10.542 4.315c-5.221 2.136-8.446 7.352-8.023 12.978zm160.725 166.28c0 8.414-6.844 15.258-15.258 15.258s-15.258-6.844-15.258-15.258 6.844-15.258 15.258-15.258 15.258 6.844 15.258 15.258zm-58.031 163.67c-5.584-.828-11.01 2.026-13.511 7.08l-5.054 10.21-1.906-11.237c-.945-5.557-5.328-9.842-10.908-10.662l-11.272-1.652 10.091-5.281c4.998-2.615 7.721-8.109 6.776-13.673l-1.913-11.231 8.143 7.966c4.033 3.948 10.101 4.837 15.095 2.218l10.09-5.289-5.059 10.205c-2.507 5.054-1.481 11.099 2.555 15.043l8.147 7.961zm44.826 7.044c-.557-.984-1.25-1.906-2.09-2.727l-21.871-21.371 13.584-27.398c2.352-4.743 1.389-10.418-2.397-14.119-3.785-3.703-9.479-4.537-14.171-2.079l-5.637 2.955 26.239-70.9c1.408.171 2.837.27 4.291.27 10.852 0 20.573-4.92 27.062-12.642l136.465 59.27c.444.193.897.339 1.351.464.194.187.391.372.6.548l23.379 19.711-11.539 28.317c-.493 1.209-.779 2.461-.872 3.71l-47.022 62.48c-3.847-1.44-8.008-2.232-12.352-2.232-10.969 0-20.787 5.023-27.276 12.89zm115.019 74.861c-8.414 0-15.258-6.844-15.258-15.258s6.844-15.258 15.258-15.258 15.258 6.844 15.258 15.258-6.844 15.258-15.258 15.258zm124.664-152.294c-4.796 2.974-7.11 8.653-5.757 14.133l2.731 11.061-8.705-7.348c-2.407-2.032-5.376-3.068-8.364-3.068-2.363 0-4.737.648-6.853 1.963l-9.675 6.014 4.301-10.554c2.126-5.225.657-11.178-3.655-14.81l-8.709-7.343 11.362.829c5.649.41 10.835-2.826 12.959-8.051l4.293-10.553 2.724 11.066c1.35 5.473 6.033 9.425 11.66 9.834l11.362.821z"/><path d="m369.186 152.272 24.745 17.967-9.459 29.079c-1.638 5.036.14 10.511 4.425 13.623 4.284 3.112 10.04 3.112 14.322-.003l24.733-17.982 24.733 17.982c2.142 1.557 4.652 2.336 7.163 2.336 2.51 0 5.02-.778 7.161-2.334 4.285-3.114 6.062-8.59 4.423-13.623l-9.459-29.078 24.749-17.969c4.283-3.112 6.062-8.586 4.424-13.622-1.637-5.033-6.291-8.414-11.582-8.414-.002 0-.004 0-.006 0l-30.58.009-9.441-29.085-.001-.001c-1.635-5.037-6.29-8.42-11.586-8.42-5.295 0-9.95 3.383-11.586 8.421l-9.44 29.085-30.577-.009c-.002 0-.004 0-.006 0-5.293 0-9.949 3.382-11.585 8.416-1.635 5.036.144 10.51 4.43 13.622zm42.901-1.939h.011c5.641 0 10.598-3.604 12.337-8.968l3.517-10.835 3.517 10.839c1.743 5.363 6.699 8.964 12.332 8.964h.01l11.393-.004-9.215 6.69c-4.567 3.312-6.465 9.144-4.72 14.514l3.523 10.831-9.213-6.699c-4.563-3.316-10.692-3.317-15.257.001l-9.214 6.699 3.525-10.835c1.743-5.365-.152-11.195-4.716-14.508l-9.219-6.694z"/><path d="m281.444 97.568c17.147 0 31.096-13.95 31.096-31.097s-13.949-31.096-31.096-31.096-31.097 13.949-31.097 31.096c.001 17.147 13.95 31.097 31.097 31.097zm0-42.106c6.07 0 11.009 4.939 11.009 11.009 0 6.071-4.938 11.009-11.009 11.009s-11.009-4.938-11.009-11.009c0-6.07 4.939-11.009 11.009-11.009z"/><path d="m40.829 237.841c-17.146 0-31.096 13.95-31.096 31.097s13.95 31.097 31.096 31.097c17.147 0 31.097-13.949 31.097-31.097-.001-17.148-13.95-31.097-31.097-31.097zm0 42.105c-6.069 0-11.008-4.939-11.008-11.009s4.938-11.009 11.008-11.009 11.009 4.939 11.009 11.009c0 6.071-4.939 11.009-11.009 11.009z"/></g><g><path d="m102.643 166.938-8.25 23.199c-.353.993-1.052 1.78-1.935 2.178l-20.611 9.286c-2.912 1.312-2.912 5.951 0 7.263l20.611 9.286c.882.398 1.582 1.185 1.935 2.178l8.25 23.199c1.166 3.277 5.288 3.277 6.453 0l8.25-23.199c.353-.993 1.052-1.78 1.935-2.178l20.611-9.286c2.912-1.312 2.912-5.951 0-7.263l-20.611-9.286c-.883-.398-1.582-1.185-1.935-2.178l-8.25-23.199c-1.166-3.277-5.288-3.277-6.453 0z" fill="#fff2a5"/><path d="m188.591 4.076-6.12 17.208c-.262.737-.781 1.321-1.435 1.616l-15.289 6.888c-2.16.973-2.16 4.415 0 5.388l15.289 6.888c.654.295 1.173.879 1.435 1.616l6.12 17.208c.865 2.431 3.922 2.431 4.787 0l6.12-17.208c.262-.737.781-1.321 1.435-1.616l15.289-6.888c2.16-.973 2.16-4.415 0-5.388l-15.289-6.888c-.655-.295-1.173-.879-1.435-1.616l-6.12-17.208c-.865-2.431-3.923-2.431-4.787 0z" fill="#98e8f2"/><path d="m308.059 341.917-6.12 17.208c-.262.737-.781 1.321-1.435 1.616l-15.289 6.888c-2.16.973-2.16 4.415 0 5.388l15.289 6.888c.655.295 1.173.879 1.435 1.616l6.12 17.209c.865 2.431 3.922 2.431 4.787 0l6.12-17.209c.262-.737.781-1.321 1.435-1.616l15.289-6.888c2.16-.973 2.16-4.414 0-5.388l-15.289-6.888c-.655-.295-1.173-.879-1.435-1.616l-6.12-17.208c-.865-2.431-3.923-2.431-4.787 0z" fill="#98e8f2"/><path d="m284.482 192.24c0 9.95 8.066 18.015 18.015 18.015s18.015-8.066 18.015-18.015c0-9.95-8.066-18.015-18.015-18.015-9.95 0-18.015 8.065-18.015 18.015z" fill="#ffe35c"/><path d="m27.233 469.368c0 9.949 8.066 18.015 18.015 18.015 9.95 0 18.015-8.066 18.015-18.015 0-9.95-8.066-18.015-18.015-18.016-9.95.001-18.015 8.067-18.015 18.016z" fill="#75b7f2"/><ellipse cx="399.953" cy="50.669" fill="#ffe35c" rx="7.533" ry="7.533" transform="matrix(.707 -.707 .707 .707 81.315 297.65)"/></g></g></svg>