<svg id="Capa_1" enable-background="new 0 0 512 512" height="512" viewBox="0 0 512 512" width="512" xmlns="http://www.w3.org/2000/svg"><g><g><path d="m159.279 464.883-12.065-18.355.043-9.157c-26.805-9.729-41.246-36.036-44.226-65.949l-23.249-166.929-8.439-45.463c-.104-15.667 12.511-28.452 28.178-28.556 15.667-.104 25.806 14.427 28.556 28.178l24.611 78.027-.478-145.91c.693-16.994 15.03-30.208 32.024-29.515 16.993.693 30.208 15.03 29.515 32.024l3.353 127.537-1.922-159.514c.723-17.732 15.684-31.521 33.416-30.798 17.732.723 31.521 15.684 30.798 33.416l2.013 157.294 4.018-133.06c1.186-13.554 10.586-24.416 22.866-28.111 10.712.756 13.535 3.403 13.535 3.403s23.617 13.093 21.705 31.058l-5.117 151.666 3.331 38.63 34.347-52.789c6.009-9.113 15.543-14.55 25.711-15.588 12.739 5.785 25.364 17.234 25.364 17.234s2.978 20.39-8.075 37.152c0 0-63.383 102.551-74.562 120.616-18.634 30.112-23.807 41.875-53.752 44.615l-21.509 31.775z" fill="#ffc8b7"/><g fill="#ff96b9"><path d="m322.243 88.084-6.995 138.155c-.107 21.502 8.027 42.229 22.73 57.919l3.767.643 7.945-190.415c1.912-17.965-11.29-34.002-29.288-35.578-4.208-.368-8.295.097-12.108 1.244 9.386 5.648 15.188 16.391 13.949 28.032z"/><path d="m427.033 223.539c-7.716-5.757-16.695-7.975-25.229-7.105 5.088 10.809 3.587 23.954-3.449 34.624 0 0-57.133 92.439-67.21 108.722-13.293 21.481-24.152 35.946-41.483 42.27-9.066 3.308-14.952 12.106-14.664 21.752.38 12.715-9.853 23.214-22.573 23.161l-105.212-.437-.213 45.478 151.047.627-1.383-46.291c29.945-2.74 44.267-20.425 62.9-50.536 11.179-18.065 74.562-120.616 74.562-120.616 11.054-16.762 9.816-39.034-7.093-51.649z"/></g></g><g fill="#4e0325"><path d="m303.453 280.096c3.093-1.202 4.626-4.685 3.425-7.777-1.202-3.092-4.682-4.629-7.777-3.425-1.851.718-27.569 10.806-58.283 27.484.085-9.065-.128-17.757-.648-26.057 14.834-5.31 28.14-11.186 38.942-17.029 2.919-1.578 4.005-5.225 2.426-8.144-1.579-2.921-5.227-4.005-8.144-2.426-9.608 5.198-21.28 10.421-34.259 15.218-.042-.398-.079-.803-.122-1.2-.36-3.299-3.318-5.663-6.625-5.321-3.299.361-5.681 3.327-5.321 6.626.143 1.31.276 2.633.402 3.965-32.069 10.563-70.174 18.037-104.823 16.515-3.329-.144-6.121 2.424-6.266 5.74-.145 3.315 2.424 6.121 5.74 6.266 3.15.138 6.316.204 9.514.204 32.399 0 66.91-6.886 96.727-16.421.479 9.144.591 18.764.33 28.859-19.897 11.513-40.8 25.483-58.043 41.226-2.451 2.238-2.623 6.038-.386 8.489 1.185 1.298 2.809 1.957 4.439 1.957 1.446 0 2.898-.519 4.05-1.572 14.535-13.271 32.067-25.356 49.333-35.712-1.873 32.594-7.281 69.635-16.201 110.791-.703 3.243 1.357 6.442 4.6 7.145.429.093.857.137 1.279.137 2.767 0 5.257-1.923 5.867-4.737 9.764-45.053 15.383-85.359 16.832-120.504 33.282-18.64 62.516-30.112 62.992-30.297z"/><path d="m312.471 305.841c3.049-1.296 4.475-4.817 3.184-7.87-1.292-3.057-4.815-4.488-7.874-3.195-.85.359-20.997 9.051-36.948 31.062-14.64 20.202-28.357 55.855-10.561 110.987.822 2.545 3.179 4.165 5.717 4.165.611 0 1.233-.095 1.846-.293 3.158-1.019 4.892-4.406 3.873-7.564-12.963-40.16-10.095-73.733 8.524-99.784 13.884-19.422 31.897-27.36 32.239-27.508z"/><path d="m394.805 405.464c0 5.531 4.484 10.015 10.015 10.015h97.165c5.531 0 10.015-4.484 10.015-10.015s-4.484-10.015-10.015-10.015h-97.165c-5.531 0-10.015 4.484-10.015 10.015z"/><path d="m501.985 437.43h-97.165c-5.531 0-10.015 4.484-10.015 10.015s4.484 10.015 10.015 10.015h97.165c5.531 0 10.015-4.484 10.015-10.015s-4.484-10.015-10.015-10.015z"/><path d="m378.434 401.729-7.831-4.731c15.625-25.263 69.703-112.758 71.97-116.426 14.544-22.191 10.452-50.137-9.552-65.061-10.372-7.737-22.961-10.79-35.451-8.604-12.157 2.129-23.032 9.27-29.872 19.644l-15.769 24.236.015-2.855 7.735-152.78c1.124-11.281-2.221-22.302-9.434-31.065-7.276-8.839-17.564-14.256-28.969-15.255-11.254-.99-22.22 2.471-30.876 9.734-.363.305-.72.614-1.072.93-.683-9.469-4.517-18.365-11.047-25.45-7.629-8.279-18.026-13.09-29.275-13.549-22.22-.875-41.172 15.642-43.603 37.41-6.121-4.038-13.244-6.351-20.759-6.657-10.899-.45-21.304 3.379-29.32 10.767s-12.674 17.454-13.118 28.346c-.006.147-.009.293-.008.44l.263 80.151-4.676-14.825c-3.683-17.388-17.123-35.794-38.328-35.669-10.252.068-19.864 4.125-27.065 11.423s-11.13 16.963-11.061 27.215c.004.591.06 1.18.168 1.761l8.398 45.24 20.701 148.64-35.664 37.586c-3.807 4.012-3.641 10.351.371 14.158 1.937 1.839 4.417 2.75 6.892 2.75 2.651 0 5.297-1.047 7.266-3.122l24.625-25.953c4.898 30.102 20.234 52.801 43.124 63.835l-.225 47.964c-.026 5.531 4.437 10.035 9.968 10.062h.048c5.508 0 9.988-4.453 10.014-9.968l.256-54.634c.02-4.231-2.621-8.018-6.598-9.461-21.064-7.645-34.797-28.613-37.677-57.528-.013-.13-.028-.259-.047-.389l-1.185-8.51 28.793-30.344c3.807-4.012 3.641-10.351-.371-14.158s-10.351-3.641-14.158.372l-17.797 18.757-18.532-133.044c-.021-.15-.045-.298-.072-.447l-8.259-44.495c.164-4.605 2.021-8.918 5.277-12.219 3.443-3.49 8.04-5.43 12.942-5.462.032 0 .063-.001.095-.001 10.671 0 16.953 12.023 18.574 20.128.071.354.16.704.269 1.048l24.611 78.028c1.488 4.721 6.206 7.652 11.091 6.883 4.889-.761 8.49-4.979 8.474-9.929l-.159-48.664h43.678l.87 33.097c.145 5.502 4.725 9.863 10.203 9.75 5.502-.106 9.889-4.631 9.823-10.133l-.566-46.957h44.233l.609 47.602c.069 5.447 4.48 9.839 9.927 9.887h.089c5.406 0 9.845-4.297 10.008-9.713l1.013-33.534h42.493l-2.996 59.164c-.008.153-.012.305-.013.457l-.184 37.148c-.022 4.443 2.886 8.37 7.142 9.644 4.262 1.276 8.844-.411 11.266-4.132l34.313-52.738c3.84-5.822 9.725-9.69 16.573-10.89 7.001-1.221 14.111.524 20.019 4.931 13.135 9.8 12.319 26.589 4.722 38.11-.054.082-.107.164-.158.247 0 0-56.349 91.171-72.15 116.719l-55.204-33.345c-4.734-2.859-10.889-1.339-13.75 3.395-2.86 4.734-1.34 10.89 3.395 13.75l54.778 33.088c-14.486 21.301-26.167 30.94-46.924 32.839-5.27.482-9.256 4.982-9.097 10.272l1.383 46.291c.161 5.427 4.611 9.716 10.004 9.716.102 0 .203-.001.305-.005 5.529-.164 9.876-4.78 9.71-10.309l-1.117-37.399c24.474-5.084 39.17-20.607 52.914-41.028l8.225 4.968c1.62.978 3.404 1.445 5.168 1.445 3.392 0 6.7-1.724 8.582-4.839 2.858-4.735 1.338-10.891-3.396-13.751zm-58.905-332.944c6.004.525 11.42 3.378 15.251 8.031s5.589 10.516 4.951 16.51c-.019.184-.033.369-.043.553l-1.364 26.929h-43.865l.967-32.04c1.199-12.101 11.951-21.042 24.103-19.983zm-87.232-22.438c4.345-4.004 9.992-6.053 15.892-5.837 5.903.242 11.359 2.766 15.363 7.111 4.004 4.344 6.077 9.988 5.836 15.891-.007.179-.009.357-.007.536l.411 32.144h-44.175l-.419-34.723c.299-5.81 2.814-11.172 7.099-15.122zm-63.4 30.398c4.082-3.762 9.385-5.727 14.93-5.483 5.546.226 10.672 2.598 14.434 6.679 3.761 4.082 5.709 9.384 5.483 14.93-.009.223-.011.447-.005.671l.717 27.267h-42.132l-.098-29.83c.274-5.469 2.638-10.518 6.671-14.234zm-6.392 99.22-.141-43.139h42.408l1.134 43.139zm63.901-14.243-.645-53.512h44.184l.685 53.512zm66.387 14.243 1.303-43.139h43.62l-2.184 43.139z"/><path d="m95.773 429.063h-85.758c-5.531 0-10.015 4.484-10.015 10.015s4.484 10.015 10.015 10.015h85.758c5.531 0 10.015-4.484 10.015-10.015s-4.484-10.015-10.015-10.015z"/><path d="m95.773 468.923h-85.758c-5.531 0-10.015 4.485-10.015 10.015 0 5.531 4.484 10.015 10.015 10.015h85.758c5.531 0 10.015-4.484 10.015-10.015 0-5.53-4.484-10.015-10.015-10.015z"/></g><g fill="#fff"><path d="m119.41 266.532c-4.679 0-8.861-3.295-9.811-8.059l-3.393-17.017c-1.081-5.424 2.439-10.698 7.864-11.779 5.423-1.085 10.698 2.439 11.78 7.863l3.393 17.017c1.081 5.424-2.439 10.698-7.864 11.779-.661.133-1.32.196-1.969.196z"/><path d="m109.901 218.834c-4.678 0-8.86-3.295-9.81-8.058l-.829-4.158c-1.082-5.424 2.438-10.698 7.862-11.78 5.425-1.086 10.698 2.438 11.78 7.862l.829 4.158c1.082 5.424-2.438 10.698-7.862 11.78-.662.133-1.321.196-1.97.196z"/></g><g><path d="m451.977 11.805-8.227 23.132c-.352.99-1.05 1.775-1.93 2.172l-20.551 9.259c-2.904 1.308-2.904 5.934 0 7.243l20.551 9.259c.88.396 1.577 1.181 1.93 2.172l8.227 23.132c1.162 3.268 5.272 3.268 6.435 0l8.227-23.132c.352-.99 1.049-1.775 1.929-2.172l20.552-9.259c2.904-1.308 2.904-5.934 0-7.243l-20.552-9.259c-.88-.396-1.577-1.181-1.929-2.172l-8.227-23.132c-1.163-3.268-5.273-3.268-6.435 0z" fill="#ffc8b7"/><path d="m68.956 24.448-6.102 17.158c-.261.735-.779 1.317-1.431 1.611l-15.245 6.868c-2.154.971-2.154 4.402 0 5.372l15.245 6.868c.653.294 1.17.876 1.431 1.611l6.102 17.159c.862 2.424 3.911 2.424 4.773 0l6.102-17.159c.261-.735.778-1.317 1.431-1.611l15.245-6.868c2.154-.971 2.154-4.402 0-5.372l-15.245-6.868c-.653-.294-1.17-.876-1.431-1.611l-6.102-17.158c-.862-2.424-3.911-2.424-4.773 0z" fill="#ffc8b7"/><g fill="#ffa785"><path d="m414.541 154.822c0 9.921 8.042 17.963 17.963 17.963s17.963-8.042 17.963-17.963-8.042-17.963-17.963-17.963c-9.92 0-17.963 8.042-17.963 17.963z"/><circle cx="364.963" cy="16.865" r="7.511"/></g></g></g></svg>