<?xml version="1.0" encoding="iso-8859-1"?>
<!-- Generator: Adobe Illustrator 19.0.0, SVG Export Plug-In . SVG Version: 6.00 Build 0)  -->
<svg version="1.1" id="Capa_1" xmlns="http://www.w3.org/2000/svg" xmlns:xlink="http://www.w3.org/1999/xlink" x="0px" y="0px"
	 viewBox="0 0 512 512" style="enable-background:new 0 0 512 512;" xml:space="preserve">
<g>
	<path style="fill:#EF4246;" d="M310.646,227.08h-92.402l2.438-35.37c0.519-7.53,6.779-13.374,14.327-13.374h58.87
		c7.548,0,13.808,5.843,14.327,13.374L310.646,227.08z"/>
	<rect x="144.59" y="295.03" style="fill:#EF4246;" width="183.35" height="67.55"/>
</g>
<path style="fill:#D8323A;" d="M144.59,338.812h50.085c5.043,0,9.131-4.088,9.131-9.131v-6.231c0-5.043,4.088-9.131,9.131-9.131
	h114.999v-19.29H144.59V338.812z"/>
<g>
	<path style="fill:#FC5759;" d="M353.683,213.385H176.497c-31.919,0-57.794,25.875-57.794,57.794v40.805
		c0,5.043,4.088,9.131,9.131,9.131h50.601c5.043,0,9.131-4.088,9.131-9.131v-6.231c0-5.043,4.088-9.131,9.131-9.131h156.985
		c7.069,0,12.8-5.731,12.8-12.8v-57.636C366.483,219.116,360.752,213.385,353.683,213.385z"/>
	<rect x="60.808" y="353.13" style="fill:#FC5759;" width="355.62" height="67.07"/>
</g>
<rect x="60.808" y="396.18" style="fill:#EF4246;" width="355.62" height="24.03"/>
<g>
	<circle style="fill:#808080;" cx="61.777" cy="386.67" r="54.27"/>
	<circle style="fill:#808080;" cx="415.46" cy="386.67" r="54.27"/>
</g>
<g>
	<circle style="fill:#4D4D4D;" cx="61.777" cy="386.67" r="24.09"/>
	<circle style="fill:#4D4D4D;" cx="416.43" cy="386.67" r="24.09"/>
</g>
<path d="M497.48,82.822l-19.638-17.383c-3.102-2.745-7.844-2.459-10.591,0.646c-2.746,3.103-2.457,7.844,0.646,10.591l19.637,17.383
	c10.006,8.857,12.392,23.669,5.715,35.151l-72.322,121.31h-46.942v-24.333c0-11.195-9.108-20.303-20.303-20.303h-36.977
	l-1.012-14.69c-0.788-11.416-10.369-20.36-21.812-20.36H235.01c-11.444,0-21.026,8.944-21.812,20.361l-1.013,14.689h-35.687
	c-36.005,0-65.297,29.291-65.297,65.296v40.805c0,9.172,7.463,16.634,16.635,16.634h9.253v17.015h-29.186
	c-11.323-12.713-27.801-20.741-46.125-20.741C27.713,324.892,0,352.605,0,386.669s27.713,61.776,61.776,61.776
	c18.324,0,34.801-8.027,46.124-20.74h261.431c11.323,12.713,27.8,20.74,46.124,20.74c34.065,0,61.777-27.713,61.777-61.776
	c0-34.065-27.713-61.777-61.777-61.777c-8.662,0-16.908,1.799-24.398,5.032L506.18,136.823
	C516.48,119.113,512.822,96.403,497.48,82.822z M228.167,192.226c0.246-3.581,3.252-6.387,6.842-6.387h58.871
	c3.59,0,6.595,2.806,6.842,6.387l0.942,13.657h-74.439L228.167,192.226z M127.834,313.613c-0.899,0-1.629-0.731-1.629-1.629v-40.805
	c0-27.73,22.561-50.291,50.292-50.291l0,0h177.186l0,0c2.921,0,5.298,2.377,5.298,5.298v57.635c0,2.921-2.377,5.298-5.298,5.298l0,0
	H196.698c-9.172,0-16.635,7.463-16.635,16.635v6.231c0,0.898-0.731,1.629-1.629,1.629h-50.6V313.613z M320.434,304.124v41.509
	H152.093v-17.015h26.342c9.172,0,16.634-7.462,16.634-16.634v-6.231c0-0.899,0.731-1.629,1.629-1.629H320.434z M108.492,388.914
	c-0.009,0.185-0.023,0.368-0.034,0.552c-0.035,0.588-0.077,1.174-0.134,1.757c-0.015,0.157-0.032,0.314-0.049,0.471
	c-0.072,0.67-0.155,1.337-0.255,1.999c-0.007,0.046-0.013,0.093-0.02,0.139c-0.057,0.368-0.131,0.729-0.196,1.094
	c-0.162,0.912-0.351,1.819-0.568,2.719c-0.003,0.013-0.006,0.026-0.009,0.038c-0.659,2.721-1.569,5.378-2.705,7.937
	c-0.053,0.119-0.107,0.237-0.16,0.355c-0.319,0.704-0.658,1.398-1.012,2.085c-0.077,0.15-0.152,0.302-0.231,0.451
	c-0.394,0.745-0.807,1.479-1.241,2.202c-0.031,0.052-0.059,0.105-0.09,0.157c-0.436,0.721-0.899,1.427-1.374,2.125
	c-0.206,0.301-0.421,0.594-0.633,0.889c-0.282,0.393-0.568,0.783-0.862,1.167c-8.555,11.168-22.018,18.389-37.141,18.389
	c-25.789,0-46.771-20.982-46.771-46.771c0-25.79,20.982-46.772,46.771-46.772c15.232,0,28.782,7.322,37.328,18.627
	c0.078,0.103,0.157,0.206,0.234,0.31c0.403,0.543,0.797,1.094,1.177,1.654c0.015,0.023,0.031,0.045,0.047,0.067
	c3.77,5.582,6.368,12.017,7.438,18.95c0.007,0.047,0.014,0.095,0.021,0.142c0.1,0.661,0.183,1.327,0.254,1.997
	c0.017,0.157,0.034,0.314,0.049,0.471c0.056,0.582,0.099,1.168,0.134,1.756c0.011,0.184,0.026,0.368,0.034,0.552
	c0.035,0.744,0.057,1.492,0.057,2.245C108.548,387.422,108.527,388.17,108.492,388.914z M353.73,388.672H192.685
	c-4.144,0-7.503,3.359-7.503,7.503s3.359,7.503,7.503,7.503h163.36c0.882,3.09,1.999,6.106,3.362,9.024H117.825
	c1.363-2.918,2.48-5.933,3.362-9.024h18.194c4.144,0,7.503-3.359,7.503-7.503s-3.359-7.503-7.503-7.503h-15.879
	c0.021-0.667,0.051-1.331,0.051-2.003c0-1.095-0.031-2.183-0.087-3.265c-0.03-0.587-0.087-1.169-0.134-1.753
	c-0.038-0.472-0.066-0.947-0.115-1.416c-0.08-0.777-0.187-1.547-0.295-2.317c-0.036-0.256-0.065-0.515-0.105-0.77
	c-0.136-0.884-0.298-1.76-0.472-2.634c-0.025-0.123-0.046-0.248-0.071-0.371c-0.194-0.948-0.414-1.888-0.653-2.823
	c-0.009-0.036-0.018-0.073-0.027-0.11c-0.934-3.633-2.18-7.171-3.77-10.573l0,0h241.582l0,0c-1.59,3.404-2.837,6.946-3.771,10.582
	c-0.007,0.028-0.014,0.057-0.021,0.085c-0.24,0.942-0.462,1.889-0.658,2.843c-0.024,0.118-0.044,0.237-0.068,0.355
	c-0.175,0.878-0.338,1.759-0.474,2.648c-0.039,0.252-0.067,0.507-0.103,0.76c-0.109,0.773-0.216,1.546-0.296,2.326
	c-0.049,0.468-0.076,0.942-0.114,1.414c-0.046,0.585-0.104,1.167-0.134,1.756c-0.057,1.081-0.087,2.169-0.087,3.265
	C353.679,387.341,353.709,388.006,353.73,388.672z M415.456,339.897c25.79,0,46.772,20.982,46.772,46.772
	c0,25.789-20.982,46.771-46.772,46.771c-15.128,0-28.595-7.226-37.15-18.401c-0.286-0.374-0.564-0.753-0.838-1.135
	c-0.219-0.305-0.441-0.608-0.653-0.918c-0.472-0.693-0.932-1.394-1.366-2.111c-0.039-0.065-0.074-0.132-0.113-0.197
	c-0.424-0.709-0.83-1.428-1.216-2.158c-0.084-0.159-0.164-0.32-0.246-0.48c-0.348-0.675-0.681-1.358-0.995-2.049
	c-0.059-0.129-0.117-0.257-0.175-0.387c-1.13-2.548-2.036-5.193-2.693-7.902c-0.008-0.033-0.015-0.067-0.023-0.1
	c-0.211-0.876-0.395-1.758-0.553-2.645c-0.068-0.377-0.144-0.751-0.202-1.132c-0.006-0.041-0.012-0.083-0.018-0.124
	c-0.101-0.666-0.184-1.337-0.256-2.011c-0.016-0.155-0.033-0.31-0.048-0.465c-0.057-0.583-0.099-1.17-0.134-1.76
	c-0.01-0.184-0.025-0.367-0.034-0.551c-0.035-0.744-0.057-1.492-0.057-2.245s0.021-1.501,0.057-2.245
	c0.009-0.184,0.023-0.367,0.034-0.551c0.035-0.589,0.078-1.176,0.134-1.759c0.015-0.156,0.032-0.311,0.048-0.466
	c0.072-0.674,0.156-1.344,0.256-2.009c0.006-0.042,0.012-0.085,0.019-0.127c1.183-7.67,4.237-14.729,8.678-20.699
	c0.064-0.086,0.13-0.172,0.195-0.258C386.65,347.231,400.211,339.897,415.456,339.897z M364.223,345.633H335.44v-41.509h18.243
	c11.195,0,20.303-9.108,20.303-20.303v-18.297h37.996L364.223,345.633z"/>
<path d="M61.776,361.423c-13.92,0-25.245,11.325-25.245,25.246s11.325,25.246,25.245,25.246c13.921,0,25.246-11.325,25.246-25.246
	C87.022,372.749,75.697,361.423,61.776,361.423z M61.776,396.91c-5.646,0-10.24-4.594-10.24-10.241s4.593-10.241,10.24-10.241
	s10.241,4.594,10.241,10.241S67.423,396.91,61.776,396.91z"/>
<path d="M415.456,411.916c13.921,0,25.246-11.325,25.246-25.246s-11.325-25.246-25.246-25.246s-25.246,11.325-25.246,25.246
	C390.21,400.59,401.535,411.916,415.456,411.916z M415.456,376.429c5.646,0,10.241,4.594,10.241,10.241s-4.594,10.241-10.241,10.241
	s-10.241-4.594-10.241-10.241S409.809,376.429,415.456,376.429z"/>
<path d="M230.132,278.493c4.144,0,7.503-3.359,7.503-7.503v-32.619c0-4.144-3.359-7.503-7.503-7.503
	c-4.144,0-7.503,3.359-7.503,7.503v32.619C222.629,275.135,225.988,278.493,230.132,278.493z"/>
<path d="M262.734,278.493c4.144,0,7.503-3.359,7.503-7.503v-32.619c0-4.144-3.359-7.503-7.503-7.503s-7.503,3.359-7.503,7.503
	v32.619C255.231,275.135,258.59,278.493,262.734,278.493z"/>
<path d="M295.335,278.493c4.144,0,7.503-3.359,7.503-7.503v-32.619c0-4.144-3.359-7.503-7.503-7.503s-7.503,3.359-7.503,7.503
	v32.619C287.832,275.135,291.191,278.493,295.335,278.493z"/>
<path d="M327.937,278.493c4.144,0,7.503-3.359,7.503-7.503v-32.619c0-4.144-3.359-7.503-7.503-7.503
	c-4.144,0-7.503,3.359-7.503,7.503v32.619C320.434,275.135,323.793,278.493,327.937,278.493z"/>
<g>
</g>
<g>
</g>
<g>
</g>
<g>
</g>
<g>
</g>
<g>
</g>
<g>
</g>
<g>
</g>
<g>
</g>
<g>
</g>
<g>
</g>
<g>
</g>
<g>
</g>
<g>
</g>
<g>
</g>
</svg>
