<?xml version="1.0" encoding="iso-8859-1"?>
<!-- Generator: Adobe Illustrator 19.0.0, SVG Export Plug-In . SVG Version: 6.00 Build 0)  -->
<svg version="1.1" id="Capa_1" xmlns="http://www.w3.org/2000/svg" xmlns:xlink="http://www.w3.org/1999/xlink" x="0px" y="0px"
	 viewBox="0 0 512 512" style="enable-background:new 0 0 512 512;" xml:space="preserve">
<path style="fill:#F4D3AE;" d="M154.204,183.692h12.358v5.078c0,27.563,20.411,58.884,45.672,74.272l-0.002,25.472
	c0,2.392-1.559,4.504-3.845,5.209l-32.135,17.125l4.199,4.205c41.56,41.623,109.566,41.622,151.125-0.002l4.193-4.2l-32.158-17.128
	c-2.285-0.705-3.844-2.818-3.844-5.209l-0.002-25.678c25.275-15.396,45.675-46.686,45.675-74.262v-4.882h12.358
	c6.923,0,12.535-5.612,12.535-12.535v-24.552l0,0c-0.011-3.739-3.045-6.764-6.784-6.764H148.452c-3.739,0-6.773,3.025-6.784,6.764
	l0,0v24.552C141.669,178.08,147.281,183.692,154.204,183.692z"/>
<path style="fill:#FEEA9E;" d="M476.538,505.635c9.619,0,17.223-8.152,16.554-17.748l-6.063-86.975
	c-1.764-27.74-19.894-51.746-46.065-60.995L336.038,302.84l0,0l-0.236,0.167c-47.914,33.876-111.994,33.809-159.838-0.167l0,0l0,0
	L71.038,339.916c-26.172,9.25-44.301,33.255-46.065,60.995l-6.063,86.975c-0.669,9.596,6.935,17.748,16.554,17.748h441.074V505.635z
	"/>
<path style="fill:#EDD080;" d="M493.092,487.887l-0.157-2.26l-0.568-8.144l-5.338-76.571c-1.764-27.74-19.893-51.746-46.065-60.995
	L336.038,302.84l-0.236,0.167c-6.198,4.382-12.671,8.184-19.341,11.431l72.105,25.479c26.172,9.25,44.301,33.255,46.065,60.995
	l4.499,67.26c0.003,0.051,0.007,0.101,0.01,0.152c0.43,7.263-5.53,13.32-12.806,13.32H35.464c-7.021,0-12.951-4.352-15.392-10.429
	l-1.162,16.672c-0.042,0.6-0.051,1.194-0.03,1.781c0.319,8.802,7.566,15.968,16.584,15.968h441.073
	c9.018,0,16.265-7.166,16.584-15.968C493.143,489.08,493.134,488.487,493.092,487.887z"/>
<path style="fill:#FFDFB8;" d="M166.566,188.773c0,34.092,31.223,73.944,64.232,82.267c21.448,5.408,27.723,5.445,49.189,0.107
	l0.98-0.244c33.124-8.237,64.467-48.144,64.467-82.326V93.089H166.566V188.773z"/>
<path style="fill:#F4D3AE;" d="M293.039,93.089v116.813c0,22.853-14.018,48.252-33.204,65.048c5.598-0.434,11.696-1.7,20.153-3.803
	l0.98-0.244c33.124-8.237,64.467-48.144,64.467-82.326V93.089H293.039z"/>
<path style="fill:#21D8DE;" d="M404.467,414.353c-5.645-5.804-8.836-13.818-8.836-22.193v-68.262l-34.617-12.232v69.254
	c0,13.448-10.193,24.349-22.766,24.349H173.754c-12.574,0-22.766-10.902-22.766-24.349v-69.254l-34.617,12.232v68.262
	c0,8.375-3.191,16.389-8.836,22.193l0,0c-5.645,5.804-5.808,13.818-5.808,22.194v69.089h308.547v-69.089
	C410.274,428.171,410.112,420.157,404.467,414.353z"/>
<path style="fill:#1BCCCC;" d="M404.467,414.353c-5.645-5.804-8.836-13.818-8.836-22.193v-68.262l-34.617-12.232v69.254
	c0,10.564-6.292,19.554-15.086,22.925c1.505,3.922,3.759,7.511,6.674,10.509c5.645,5.804,5.808,13.818,5.808,22.194v21.475
	c0,13.046-10.576,23.622-23.622,23.622h-233.06v23.992l0,0h308.547l0,0v-69.089C410.274,428.171,410.112,420.157,404.467,414.353z"
	/>
<g>
	<path style="fill:#11B9C1;" d="M361.014,330.18l27.553,9.736c2.426,0.858,4.782,1.843,7.064,2.945v-18.964l-34.617-12.232V330.18z"
		/>
	<circle style="fill:#11B9C1;" cx="136.221" cy="404.47" r="19.813"/>
	<circle style="fill:#11B9C1;" cx="375.791" cy="404.47" r="19.813"/>
</g>
<path style="fill:#C1876B;" d="M369.079,125.645H142.923v-12.14c0-59.172,47.968-107.14,107.14-107.14h11.875
	c59.172,0,107.14,47.968,107.14,107.14L369.079,125.645L369.079,125.645z"/>
<path style="fill:#B77B63;" d="M261.939,6.365h-9.45c38.165,17.231,64.726,55.622,64.726,100.217v19.062h51.864v-12.14
	C369.079,54.333,321.111,6.365,261.939,6.365z"/>
<path style="fill:#B27552;" d="M396.377,111.234H115.625c-7.9,0-14.304,6.404-14.304,14.304l0,0c0,7.9,6.404,14.304,14.304,14.304
	h280.751c7.9,0,14.304-6.404,14.304-14.304l0,0C410.681,117.638,404.276,111.234,396.377,111.234z"/>
<path style="fill:#A46640;" d="M410.616,124.254c-0.011-0.121-0.023-0.241-0.037-0.361c-0.042-0.359-0.095-0.714-0.163-1.065
	c-0.03-0.157-0.067-0.312-0.102-0.467c-0.06-0.262-0.126-0.522-0.2-0.779c-0.057-0.198-0.118-0.394-0.183-0.589
	c-0.051-0.151-0.108-0.3-0.164-0.449c-0.154-0.412-0.325-0.813-0.514-1.205c-0.034-0.07-0.066-0.14-0.101-0.21
	c-0.127-0.252-0.259-0.501-0.4-0.744l0,0l0,0c-2.474-4.271-7.083-7.152-12.375-7.152h-37.56l0,0c0,7.9-6.404,14.304-14.304,14.304
	H115.625c-5.291,0-9.9-2.881-12.375-7.152c-1.397,2.412-2.125,5.26-1.884,8.302c0.596,7.503,7.129,13.154,14.656,13.154h242.794
	h37.56c7.9,0,14.304-6.404,14.304-14.304C410.68,125.104,410.654,124.677,410.616,124.254z"/>
<path d="M500.644,486.154l-6.059-86.929c-1.96-30.82-21.122-57.046-50.203-67.325l0,0c-0.019-0.007,0.018,0.006,0,0l-105.821-37.404
	l0,0c-2.318-0.82-4.887-0.461-6.893,0.956l-0.236,0.167c-0.856,0.605-1.727,1.176-2.594,1.758l-21.499-11.452l-0.003-20.121
	c24.87-16.712,44.135-46.923,45.578-75.07c0.012-0.23,0.024-0.457,0.034-0.678h4.85c11.087,0,20.107-9.02,20.107-20.106v-23.745
	h18.472c12.062,0,21.874-9.812,21.874-21.874s-9.812-21.875-21.874-21.875h-26.73C368.013,45.683,321.325,0,264.163,0h-16.324
	c-57.162,0-103.85,45.683-105.484,102.456h-26.73c-12.062,0-21.875,9.813-21.875,21.875s9.813,21.874,21.875,21.874h18.473v23.745
	c0,11.086,9.019,20.106,20.106,20.106h4.843c0.012,0.285,0.027,0.58,0.042,0.88c1.448,28.113,20.722,58.352,45.574,75.066
	l-0.001,19.922l-21.496,11.455c-0.942-0.633-1.888-1.258-2.818-1.918c-2.008-1.425-4.585-1.784-6.905-0.965l0,0L68.515,331.572
	c-0.017,0.006,0.017-0.006,0,0l0,0c-27.424,9.693-47.335,34.638-50.726,63.55c-0.487,4.153,2.484,7.915,6.637,8.402
	c4.15,0.483,7.914-2.485,8.401-6.637c2.724-23.222,18.713-43.255,40.734-51.039l35.24-12.452v57.558
	c0,6.377-2.439,12.543-6.692,16.915c-7.951,8.176-7.951,18.875-7.951,27.472v61.519H35.464c-2.529,0-4.873-1.019-6.599-2.869
	c-1.726-1.85-2.579-4.259-2.403-6.783l2.579-36.996c0.291-4.171-2.855-7.788-7.026-8.078c-4.174-0.293-7.788,2.855-8.079,7.026
	l-2.579,36.996c-0.464,6.66,1.881,13.28,6.435,18.163c4.555,4.88,10.996,7.681,17.672,7.681h66.263h308.547h66.263
	c6.677,0,13.118-2.8,17.671-7.682C498.762,499.435,501.108,492.815,500.644,486.154z M368.585,321.164l19.475,6.882v50.745
	c-3.694-1.86-7.863-2.908-12.274-2.908c-2.491,0-4.905,0.334-7.201,0.96L368.585,321.164L368.585,321.164z M375.786,391.024
	c6.75,0,12.242,5.492,12.242,12.242s-5.492,12.242-12.242,12.242c-6.751,0-12.243-5.492-12.243-12.242
	S369.036,391.024,375.786,391.024z M362.763,169.951c0,2.737-2.228,4.964-4.965,4.964h-4.792v-28.709h9.757V169.951z
	 M158.995,174.915h-4.793c-2.737,0-4.964-2.227-4.964-4.964v-23.745h9.757V174.915z M396.377,131.064H115.625
	c-3.713,0-6.733-3.02-6.733-6.733s3.02-6.734,6.733-6.734h168.99c4.182,0,7.571-3.389,7.571-7.571s-3.389-7.571-7.571-7.571H157.506
	c1.628-48.422,41.521-87.315,90.333-87.315h16.324c48.811,0,88.705,38.893,90.333,87.315h-16.363c-4.182,0-7.571,3.389-7.571,7.571
	s3.389,7.571,7.571,7.571h58.244c3.712,0,6.733,3.02,6.733,6.734C403.11,128.044,400.089,131.064,396.377,131.064 M174.137,187.567
	v-41.362h163.727v41.166c0,24.713-19.133,53.809-42.173,67.855c-0.124,0.075-0.248,0.148-0.372,0.222
	c-0.669,0.402-1.342,0.789-2.017,1.165c-0.254,0.141-0.508,0.283-0.761,0.42c-0.594,0.321-1.191,0.629-1.789,0.929
	c-0.252,0.127-0.505,0.26-0.757,0.382c-0.8,0.389-1.602,0.759-2.407,1.109c-0.245,0.107-0.489,0.201-0.734,0.304
	c-0.591,0.248-1.184,0.488-1.777,0.714c-0.305,0.116-0.609,0.225-0.913,0.335c-0.569,0.205-1.138,0.399-1.708,0.583
	c-0.272,0.088-0.545,0.179-0.816,0.261c-0.831,0.253-1.663,0.491-2.495,0.698l-0.984,0.244c-20.166,5.016-25.269,5.004-45.511-0.101
	c-0.843-0.213-1.686-0.456-2.528-0.716c-0.261-0.08-0.522-0.17-0.783-0.255c-0.591-0.193-1.182-0.396-1.772-0.611
	c-0.292-0.107-0.584-0.216-0.877-0.329c-0.59-0.227-1.178-0.466-1.765-0.715c-0.259-0.11-0.519-0.215-0.778-0.329
	c-0.825-0.363-1.649-0.742-2.468-1.146c-0.008-0.004-0.016-0.007-0.023-0.011c-0.88-0.434-1.756-0.894-2.627-1.374
	c-0.092-0.051-0.185-0.105-0.277-0.157c-0.804-0.448-1.605-0.911-2.401-1.395c-0.049-0.03-0.099-0.061-0.148-0.091
	C193.225,241.295,174.137,212.211,174.137,187.567z M211.441,299.467c5.035-1.92,8.36-6.702,8.361-12.158l0.001-13.161
	c0.42,0.172,0.84,0.328,1.26,0.491c0.58,0.224,1.161,0.444,1.744,0.652c0.749,0.268,1.497,0.522,2.245,0.761
	c0.302,0.096,0.603,0.19,0.905,0.282c0.997,0.303,1.994,0.59,2.99,0.841c0.713,0.18,1.41,0.354,2.094,0.522
	c0.263,0.065,0.514,0.125,0.773,0.188c0.415,0.101,0.834,0.204,1.239,0.301c0.201,0.048,0.393,0.092,0.592,0.14
	c0.453,0.107,0.907,0.216,1.347,0.318c0.131,0.03,0.256,0.058,0.386,0.087c0.498,0.114,0.993,0.227,1.476,0.335
	c0.141,0.031,0.276,0.059,0.415,0.09c0.462,0.101,0.922,0.202,1.372,0.297c0.203,0.043,0.399,0.081,0.6,0.123
	c0.377,0.078,0.756,0.157,1.125,0.23c0.229,0.046,0.451,0.086,0.678,0.13c0.332,0.064,0.668,0.13,0.994,0.19
	c0.232,0.043,0.458,0.081,0.687,0.122c0.312,0.056,0.626,0.113,0.932,0.165c0.237,0.04,0.468,0.075,0.702,0.113
	c0.292,0.047,0.586,0.096,0.873,0.14c0.228,0.035,0.451,0.065,0.677,0.097c0.288,0.042,0.578,0.085,0.862,0.123
	c0.22,0.029,0.436,0.054,0.654,0.081c0.283,0.035,0.568,0.073,0.847,0.104c0.218,0.025,0.433,0.045,0.649,0.068
	c0.276,0.029,0.554,0.06,0.827,0.085c0.214,0.02,0.425,0.035,0.637,0.053c0.271,0.023,0.543,0.047,0.813,0.066
	c0.215,0.015,0.428,0.026,0.642,0.039c0.265,0.016,0.53,0.034,0.794,0.047c0.214,0.01,0.428,0.016,0.641,0.024
	c0.26,0.01,0.521,0.021,0.78,0.028c0.222,0.005,0.443,0.006,0.665,0.009c0.25,0.003,0.501,0.009,0.751,0.009
	c0.021,0,0.042,0.001,0.063,0.001c0.218,0,0.437-0.005,0.656-0.008c0.23-0.003,0.46-0.003,0.691-0.008
	c0.242-0.005,0.486-0.016,0.729-0.024c0.228-0.008,0.455-0.014,0.684-0.024c0.253-0.011,0.508-0.028,0.762-0.043
	c0.221-0.013,0.441-0.023,0.662-0.038c0.266-0.018,0.535-0.042,0.802-0.063c0.213-0.017,0.425-0.032,0.639-0.051
	c0.271-0.025,0.546-0.054,0.82-0.082c0.216-0.022,0.429-0.042,0.647-0.066c0.28-0.031,0.565-0.067,0.848-0.102
	c0.214-0.026,0.427-0.05,0.643-0.078c0.299-0.039,0.604-0.084,0.907-0.127c0.206-0.029,0.41-0.056,0.619-0.087
	c0.319-0.048,0.644-0.101,0.968-0.152c0.199-0.032,0.395-0.061,0.596-0.094c0.349-0.058,0.706-0.122,1.062-0.184
	c0.183-0.032,0.361-0.062,0.546-0.095c0.383-0.069,0.776-0.145,1.168-0.22c0.165-0.032,0.325-0.06,0.491-0.093
	c0.425-0.083,0.86-0.172,1.296-0.261c0.141-0.029,0.277-0.055,0.419-0.085c0.475-0.099,0.962-0.203,1.452-0.309
	c0.109-0.024,0.214-0.045,0.324-0.069c0.546-0.119,1.104-0.245,1.67-0.373c0.059-0.013,0.115-0.025,0.173-0.039
	c1.883-0.429,3.874-0.908,5.999-1.436l0.985-0.244c0.993-0.247,1.988-0.53,2.984-0.829c0.335-0.1,0.669-0.205,1.003-0.311
	c0.659-0.209,1.318-0.432,1.977-0.663c0.918-0.321,1.831-0.666,2.742-1.026c0.231-0.092,0.462-0.176,0.694-0.271l0.002,13.364
	c0,5.455,3.325,10.238,8.359,12.159l12.821,6.828c-1.96,0.959-3.946,1.859-5.947,2.717c-0.491,0.21-0.982,0.419-1.475,0.623
	c-0.782,0.324-1.566,0.642-2.354,0.951c-0.736,0.287-1.475,0.562-2.215,0.836c-0.806,0.299-1.613,0.593-2.425,0.876
	c-1.101,0.382-2.205,0.754-3.314,1.107c-0.481,0.153-0.965,0.298-1.447,0.446c-1.065,0.325-2.132,0.638-3.203,0.934
	c-0.367,0.102-0.733,0.206-1.101,0.305c-3.037,0.813-6.097,1.519-9.174,2.109c-0.125,0.024-0.251,0.047-0.377,0.07
	c-14.593,2.756-29.558,3.013-44.219,0.767c-0.048-0.007-0.095-0.015-0.143-0.023c-1.554-0.24-3.104-0.509-4.651-0.805
	c-0.087-0.017-0.173-0.032-0.26-0.049c-3.067-0.594-6.116-1.304-9.144-2.119c-0.39-0.105-0.779-0.215-1.168-0.323
	c-1.065-0.297-2.126-0.611-3.184-0.936c-0.462-0.142-0.926-0.279-1.386-0.427c-1.313-0.419-2.62-0.858-3.922-1.319
	c-0.648-0.23-1.289-0.477-1.933-0.718c-0.686-0.256-1.372-0.513-2.055-0.78c-0.792-0.311-1.58-0.629-2.366-0.956
	c-0.472-0.195-0.941-0.398-1.411-0.599c-1.978-0.849-3.94-1.738-5.877-2.686L211.441,299.467z M158.558,315.814l16.287-5.756
	c5.495,3.682,11.191,6.929,17.027,9.785c0.155,0.076,0.309,0.154,0.464,0.229c1.295,0.628,2.598,1.233,3.907,1.82
	c0.313,0.141,0.625,0.282,0.939,0.42c1.183,0.521,2.372,1.024,3.566,1.513c0.466,0.191,0.932,0.38,1.4,0.565
	c1.069,0.424,2.141,0.836,3.218,1.234c0.621,0.23,1.245,0.454,1.869,0.676c0.945,0.335,1.891,0.663,2.841,0.978
	c0.791,0.262,1.584,0.513,2.379,0.762c0.804,0.251,1.608,0.501,2.416,0.738c0.979,0.288,1.963,0.558,2.947,0.825
	c0.642,0.173,1.282,0.351,1.925,0.516c1.195,0.307,2.395,0.59,3.597,0.867c0.449,0.103,0.897,0.212,1.347,0.311
	c1.454,0.319,2.914,0.612,4.378,0.886c0.211,0.04,0.421,0.084,0.632,0.123c8.635,1.582,17.433,2.4,26.302,2.401
	c0.001,0,0.002,0,0.003,0c8.9,0,17.729-0.825,26.393-2.418c0.066-0.012,0.132-0.026,0.197-0.038
	c1.613-0.299,3.221-0.623,4.822-0.976c0.319-0.07,0.636-0.148,0.954-0.22c1.336-0.304,2.668-0.621,3.995-0.962
	c0.53-0.136,1.058-0.283,1.588-0.425c1.099-0.296,2.196-0.599,3.288-0.921c0.71-0.209,1.417-0.43,2.125-0.649
	c0.892-0.278,1.783-0.56,2.67-0.855c0.868-0.288,1.732-0.589,2.596-0.893c0.704-0.249,1.408-0.501,2.108-0.762
	c1.011-0.374,2.017-0.762,3.021-1.159c0.531-0.211,1.06-0.424,1.588-0.641c1.141-0.467,2.277-0.948,3.408-1.446
	c0.364-0.16,0.726-0.324,1.089-0.488c1.268-0.57,2.531-1.156,3.786-1.764c0.19-0.092,0.378-0.187,0.568-0.28
	c5.813-2.848,11.486-6.083,16.96-9.751l16.287,5.756v63.899c0,9.251-6.817,16.778-15.196,16.778H173.754
	c-8.379,0-15.196-7.526-15.196-16.778V315.814z M148.458,403.266c0,6.751-5.492,12.242-12.242,12.242
	c-6.751,0-12.243-5.492-12.243-12.242s5.492-12.242,12.243-12.242C142.967,391.024,148.458,396.516,148.458,403.266z
	 M123.942,328.046l19.475-6.882v55.679c-2.295-0.626-4.709-0.96-7.201-0.96c-4.411,0-8.581,1.048-12.275,2.908v-50.745H123.942z
	 M402.703,496.859H109.298V435.34c0-7.942,0.255-13.41,3.664-16.915c0.091-0.094,0.182-0.188,0.272-0.283
	c4.886,7.521,13.364,12.507,22.982,12.507c12.951,0,23.831-9.036,26.665-21.137c0.078,0.032,0.159,0.059,0.237,0.09
	c0.194,0.077,0.39,0.149,0.585,0.221c0.256,0.095,0.513,0.188,0.772,0.275c0.196,0.067,0.394,0.13,0.592,0.193
	c0.263,0.083,0.527,0.162,0.793,0.237c0.199,0.057,0.399,0.112,0.599,0.164c0.27,0.071,0.543,0.136,0.816,0.199
	c0.2,0.046,0.399,0.092,0.601,0.134c0.28,0.058,0.562,0.109,0.845,0.159c0.198,0.035,0.396,0.072,0.595,0.103
	c0.295,0.046,0.592,0.083,0.889,0.119c0.191,0.023,0.38,0.05,0.572,0.07c0.327,0.034,0.657,0.057,0.987,0.079
	c0.165,0.011,0.328,0.028,0.493,0.036c0.496,0.025,0.994,0.04,1.496,0.04h164.494c0.502,0,1-0.015,1.496-0.04
	c0.165-0.009,0.328-0.025,0.493-0.036c0.33-0.023,0.66-0.046,0.988-0.079c0.19-0.02,0.379-0.046,0.568-0.07
	c0.299-0.037,0.598-0.074,0.894-0.12c0.197-0.031,0.392-0.067,0.588-0.101c0.286-0.05,0.571-0.102,0.854-0.161
	c0.198-0.041,0.394-0.086,0.59-0.131c0.278-0.064,0.555-0.13,0.83-0.202c0.196-0.051,0.39-0.105,0.584-0.16
	c0.273-0.077,0.544-0.159,0.814-0.244c0.189-0.06,0.378-0.121,0.566-0.184c0.272-0.092,0.542-0.189,0.811-0.289
	c0.181-0.067,0.362-0.134,0.542-0.205c0.084-0.033,0.171-0.062,0.254-0.096c2.834,12.099,13.714,21.136,26.666,21.136
	c9.619,0,18.096-4.986,22.981-12.507c0.091,0.095,0.181,0.189,0.273,0.283c3.408,3.504,3.663,8.972,3.663,16.915L402.703,496.859
	L402.703,496.859z M483.136,493.99c-1.725,1.849-4.069,2.869-6.599,2.869h-58.692V435.34c0-8.598,0-19.297-7.951-27.472
	c-4.253-4.373-6.692-10.538-6.692-16.915v-57.558l35.24,12.452c23.352,8.254,39.458,29.583,41.035,54.385l6.063,86.975
	C485.716,489.731,484.862,492.14,483.136,493.99z"/>
<g>
</g>
<g>
</g>
<g>
</g>
<g>
</g>
<g>
</g>
<g>
</g>
<g>
</g>
<g>
</g>
<g>
</g>
<g>
</g>
<g>
</g>
<g>
</g>
<g>
</g>
<g>
</g>
<g>
</g>
</svg>
