<?xml version="1.0" encoding="iso-8859-1"?>
<!-- Generator: Adobe Illustrator 19.0.0, SVG Export Plug-In . SVG Version: 6.00 Build 0)  -->
<svg version="1.1" id="Capa_1" xmlns="http://www.w3.org/2000/svg" xmlns:xlink="http://www.w3.org/1999/xlink" x="0px" y="0px"
	 viewBox="0 0 512 512" style="enable-background:new 0 0 512 512;" xml:space="preserve">
<path style="fill:#FC5E71;" d="M425.992,56.494c-87.706,35.827-155.374,191.75-155.374,191.75v26.338c0,0,0.169,0.017,0.484,0.046
	c-0.31-0.029-0.484-0.046-0.484-0.046s-24.447,89.351,51.041,159.216c75.488,69.864,162.68-5.374,152.095-99.422
	c-5.881-52.248-41.73-67.528-41.732-67.529h-0.001c27.965-7.27,50.576-19.319,58.239-38.897
	C515.966,162.269,513.698,20.667,425.992,56.494z"/>
<path style="fill:#FD747F;" d="M270.618,274.583c0,0,33.516,3.291,74.527,2.42c28.992-0.528,61.309-3.049,86.874-10.154
	c0.001,0,0.002,0,0.003-0.001c0.001,0,35.851,15.281,41.732,67.529c10.585,94.048-76.607,169.286-152.095,99.422
	S270.618,274.583,270.618,274.583z"/>
<path style="fill:#FC5E71;" d="M473.753,334.377c-3.107-27.605-14.579-44.884-24.71-55.049c0.682,3.3,1.253,6.755,1.665,10.409
	c10.585,94.048-76.607,169.286-152.095,99.422c-9.105-8.427-16.744-17.138-23.16-25.941c7.69,23.094,21.663,47.866,46.205,70.581
	C397.146,503.663,484.339,428.425,473.753,334.377z"/>
<path style="fill:#EF506B;" d="M425.992,56.494c-0.919,0.375-1.834,0.769-2.749,1.17c38.308,26.134,34.964,120.243,15.378,170.287
	c-7.663,19.579-30.274,31.627-58.239,38.897h0.001c-0.001,0-0.002,0-0.003,0.001c-22.179,6.164-49.439,8.875-75.203,9.831
	c11.566,0.413,25.28,0.636,39.967,0.324c28.992-0.528,61.309-3.049,86.874-10.154c0.001,0,0.002,0,0.003-0.001h-0.001
	c27.965-7.27,50.576-19.319,58.239-38.897C515.966,162.269,513.698,20.667,425.992,56.494z"/>
<path style="fill:#FC5E71;" d="M473.753,334.377c-0.002-0.016-0.005-0.032-0.006-0.048c-15.51-6.746-73.724-30.004-126.015-23.847
	c-15.834-15.11-27.895-24.267-36.421-27.677l-16.404-6.562c-14.906-0.739-24.289-1.659-24.289-1.659s-0.729,2.668-1.547,7.437
	l36.684,14.674c26.837,10.734,105.54,104.419,133.601,139.611c0.212,0.266,0.441,0.508,0.68,0.736
	c3.563-3.461,6.918-7.234,10.025-11.298c-4.971-6.187-28.247-34.99-54.631-64.819c-12.43-14.053-23.613-26.182-33.611-36.453
	c52.276-1.335,108.701,24.788,109.444,25.135c1.028,0.484,2.111,0.713,3.177,0.713c0.059,0,0.116-0.011,0.175-0.012
	C474.629,345.073,474.359,339.758,473.753,334.377z"/>
<g>
	<path style="fill:#EF506B;" d="M420.001,389.36c-3.473,3.678-7.177,7.03-11.07,10.04c12.368,14.603,23.116,27.74,30.424,36.906
		c0.212,0.266,0.441,0.508,0.68,0.736c1.765-1.714,3.478-3.506,5.136-5.371c0.019-0.022,0.039-0.042,0.058-0.064
		c0.783-0.882,1.551-1.784,2.308-2.698c0.056-0.068,0.114-0.133,0.17-0.2c0.796-0.967,1.578-1.951,2.344-2.953
		c0.003-0.004,0.006-0.008,0.009-0.011C446.732,421.599,435.186,407.306,420.001,389.36z"/>
	<path style="fill:#EF506B;" d="M471.263,349.607c1.028,0.484,2.111,0.713,3.177,0.713c0.059,0,0.116-0.011,0.175-0.012
		c0,0,0-0.002,0-0.003c0.003-1.304-0.011-2.612-0.043-3.925c-0.001-0.021-0.002-0.043-0.002-0.064
		c-0.032-1.273-0.082-2.551-0.15-3.832c-0.016-0.301-0.041-0.605-0.059-0.906c-0.06-1.021-0.124-2.043-0.208-3.069
		c-0.114-1.373-0.244-2.749-0.399-4.13v-0.001c-0.002-0.016-0.004-0.031-0.006-0.047c-4.578-1.991-12.879-5.421-23.648-9.108
		c-0.759,5.074-1.792,10.032-3.097,14.841C461.556,345.111,470.963,349.466,471.263,349.607z"/>
</g>
<path style="fill:#FC5E71;" d="M270.513,297.571l-3.177-1.253c-0.355,4.672-0.561,9.966-0.472,15.763
	c65.239,16.799,75.165,116.327,76.548,137.811c4.881,2.762,9.767,4.981,14.63,6.698c0.368-0.915,0.562-1.918,0.536-2.966
	c-0.033-1.355-0.924-33.599-11.796-68.884C331.985,336.715,305.612,306.573,270.513,297.571z"/>
<path style="fill:#EF506B;" d="M358.578,453.623c-0.022-0.93-0.45-16.405-4.228-37.426c-5.24-0.463-10.553-1.477-15.903-3.109
	c3.326,16.477,4.544,30.261,4.965,36.804c1.217,0.689,2.435,1.343,3.652,1.965c0.026,0.013,0.053,0.025,0.079,0.039
	c1.197,0.61,2.393,1.19,3.589,1.736c0.003,0.001,0.005,0.002,0.008,0.003c2.437,1.113,4.872,2.096,7.301,2.954
	C358.409,455.674,358.603,454.672,358.578,453.623z"/>
<path style="fill:#FD747F;" d="M495.729,211.343c1.795-6.492,3.352-13.395,4.637-20.55c-13.523-16.896-35.38-29.412-64.448-36.691
	c-14.823-3.71-28.784-5.412-38.996-6.19c46.299-40.95,87.895-74.926,90.641-77.164c-2.92-4.329-6.256-8.077-10.035-11.12
	c-13.176,10.741-157.806,129.178-206.911,192.308v19.976c0.021,0,0.041,0.005,0.062,0.005c2.372,0,4.706-1.127,6.158-3.225
	c18.407-26.611,61.541-68.23,104.034-106.463C384.651,162.187,472.455,162.171,495.729,211.343z"/>
<g>
	<path style="fill:#FC5E71;" d="M452.456,159.095c-0.297,5.183-0.747,10.354-1.338,15.461c18.678,7.221,36.031,18.658,44.612,36.786
		l0,0c0.436-1.579,0.858-3.185,1.266-4.81c0.02-0.078,0.04-0.156,0.059-0.234c0.399-1.599,0.784-3.218,1.155-4.857
		c0.02-0.088,0.039-0.176,0.059-0.263c0.373-1.658,0.732-3.335,1.075-5.03c0.007-0.034,0.014-0.068,0.02-0.102
		c0.35-1.733,0.684-3.484,1.002-5.25v-0.002C489.545,177.273,473.374,166.567,452.456,159.095z"/>
	<path style="fill:#FC5E71;" d="M444.203,87.301c1.828,4.934,3.345,10.224,4.571,15.78c21.852-18.502,37.159-31.005,38.789-32.332
		c-0.001-0.001-0.002-0.003-0.003-0.005c-0.336-0.499-0.68-0.988-1.027-1.471c-0.074-0.102-0.148-0.203-0.222-0.305
		c-0.292-0.4-0.587-0.794-0.886-1.183c-0.073-0.095-0.146-0.19-0.219-0.284c-0.754-0.966-1.531-1.898-2.334-2.791
		c-0.005-0.005-0.009-0.01-0.014-0.015c-0.39-0.434-0.788-0.858-1.19-1.274c-0.056-0.057-0.111-0.114-0.167-0.171
		c-0.378-0.387-0.761-0.767-1.15-1.139c-0.036-0.035-0.072-0.07-0.109-0.105c-0.877-0.833-1.779-1.625-2.709-2.374
		c-0.001-0.001-0.003-0.002-0.004-0.003C474.078,62.44,461.604,72.646,444.203,87.301z"/>
</g>
<path style="fill:#FD747F;" d="M409.498,212.55c-0.088-0.023-0.175-0.045-0.263-0.065c-21.75-4.95-44.223,2.535-58.667,19.529
	l-39.589,44.852c6.126,0.171,12.742,0.28,19.701,0.285l31.15-35.291c0.033-0.037,0.065-0.075,0.097-0.113
	c10.792-12.728,27.586-18.357,43.863-14.704l71.2,18.931c4.381-3.763,7.994-7.96,10.677-12.639L409.498,212.55z"/>
<g>
	<path style="fill:#FC5E71;" d="M487.668,233.334l-46.515-12.368c-0.81,2.409-1.654,4.743-2.531,6.985
		c-0.943,2.41-2.115,4.704-3.493,6.891l41.861,11.13c0.016-0.014,0.033-0.028,0.049-0.041c0.501-0.431,0.991-0.868,1.471-1.311
		c0.039-0.036,0.079-0.071,0.118-0.107c0.499-0.462,0.987-0.931,1.463-1.406c0.017-0.017,0.034-0.033,0.051-0.05
		C483.126,240.073,485.658,236.839,487.668,233.334z"/>
	<path style="fill:#FC5E71;" d="M86.008,56.494c87.706,35.827,155.374,191.75,155.374,191.75v26.338c0,0-0.169,0.017-0.484,0.046
		c0.31-0.029,0.484-0.046,0.484-0.046s24.447,89.351-51.041,159.216c-75.488,69.864-162.68-5.374-152.095-99.422
		c5.881-52.248,41.73-67.528,41.732-67.529h0.001c-27.965-7.27-50.576-19.319-58.239-38.897
		C-3.966,162.269-1.698,20.667,86.008,56.494z"/>
</g>
<path style="fill:#FD747F;" d="M241.382,274.583c0,0-33.516,3.291-74.527,2.42c-28.992-0.528-61.309-3.049-86.874-10.154
	c-0.001,0-0.002,0-0.003-0.001c-0.001,0-35.851,15.281-41.732,67.529c-10.585,94.048,76.607,169.286,152.095,99.422
	S241.382,274.583,241.382,274.583z"/>
<g>
	<path style="fill:#FC5E71;" d="M38.247,334.377c3.107-27.605,14.579-44.884,24.71-55.049c-0.682,3.3-1.253,6.755-1.665,10.409
		c-10.585,94.048,76.607,169.286,152.095,99.422c9.105-8.427,16.744-17.138,23.16-25.941c-7.69,23.094-21.663,47.866-46.205,70.581
		C114.854,503.663,27.661,428.425,38.247,334.377z"/>
	<path style="fill:#FC5E71;" d="M86.008,56.494c87.706,35.827,155.374,191.75,155.374,191.75v26.338c0,0-0.168,0.016-0.481,0.046
		c-4.177,0.389-35.854,3.186-74.045,2.375c-28.992-0.528-61.309-3.049-86.874-10.154c-0.001,0-0.002,0-0.003-0.001h0.001
		c-27.965-7.27-50.576-19.319-58.239-38.897C-3.966,162.269-1.698,20.667,86.008,56.494z"/>
</g>
<path style="fill:#EF506B;" d="M86.008,56.494c0.919,0.375,1.834,0.769,2.749,1.17C50.449,83.798,53.793,177.907,73.379,227.951
	c7.663,19.579,30.274,31.627,58.239,38.897h-0.001c0.001,0,0.002,0,0.002,0c22.18,6.164,49.44,8.876,75.204,9.831
	c-11.566,0.413-25.28,0.636-39.967,0.324c-28.992-0.528-61.309-3.049-86.874-10.154c-0.001,0-0.002,0-0.003-0.001h0.001
	c-27.965-7.27-50.576-19.319-58.239-38.897C-3.966,162.269-1.698,20.667,86.008,56.494z"/>
<path style="fill:#FC5E71;" d="M38.247,334.377c0.002-0.016,0.005-0.032,0.006-0.048c15.51-6.746,73.724-30.004,126.015-23.847
	c15.834-15.11,27.895-24.267,36.421-27.677l16.404-6.562c14.906-0.739,24.289-1.659,24.289-1.659s0.729,2.668,1.547,7.437
	l-36.684,14.674c-26.837,10.734-105.54,104.419-133.601,139.611c-0.212,0.266-0.441,0.508-0.68,0.736
	c-3.563-3.461-6.918-7.234-10.025-11.298c4.971-6.187,28.247-34.99,54.631-64.819c12.43-14.053,23.613-26.182,33.611-36.453
	C97.905,323.137,41.48,349.26,40.737,349.607c-1.028,0.484-2.111,0.713-3.177,0.713c-0.059,0-0.116-0.011-0.175-0.012
	C37.371,345.073,37.641,339.758,38.247,334.377z"/>
<g>
	<path style="fill:#EF506B;" d="M91.999,389.36c3.473,3.678,7.177,7.03,11.07,10.04c-12.368,14.603-23.116,27.74-30.424,36.906
		c-0.212,0.266-0.441,0.508-0.68,0.736c-1.765-1.714-3.478-3.506-5.136-5.371c-0.019-0.022-0.039-0.042-0.058-0.064
		c-0.783-0.882-1.551-1.784-2.308-2.698c-0.056-0.068-0.114-0.133-0.17-0.2c-0.796-0.967-1.578-1.951-2.344-2.953
		c-0.003-0.004-0.006-0.008-0.009-0.011C65.268,421.599,76.814,407.306,91.999,389.36z"/>
	<path style="fill:#EF506B;" d="M40.737,349.607c-1.028,0.484-2.111,0.713-3.177,0.713c-0.059,0-0.116-0.011-0.175-0.012
		c0,0,0-0.002,0-0.003c-0.003-1.304,0.011-2.612,0.043-3.925c0.001-0.021,0.002-0.043,0.002-0.064
		c0.032-1.273,0.082-2.551,0.15-3.832c0.016-0.301,0.041-0.605,0.059-0.906c0.061-1.021,0.124-2.043,0.208-3.069
		c0.114-1.373,0.244-2.749,0.399-4.13l0,0c0.002-0.016,0.005-0.031,0.006-0.047c4.578-1.991,12.879-5.421,23.648-9.108
		c0.759,5.074,1.792,10.032,3.097,14.841C50.444,345.111,41.037,349.466,40.737,349.607z"/>
</g>
<path style="fill:#FC5E71;" d="M241.487,297.571l3.177-1.253c0.355,4.672,0.561,9.966,0.472,15.763
	c-65.239,16.799-75.165,116.327-76.548,137.811c-4.881,2.762-9.767,4.981-14.63,6.698c-0.368-0.915-0.562-1.918-0.536-2.966
	c0.033-1.355,0.924-33.599,11.796-68.884C180.015,336.715,206.388,306.573,241.487,297.571z"/>
<path style="fill:#EF506B;" d="M153.422,453.623c0.022-0.93,0.45-16.405,4.228-37.426c5.24-0.463,10.553-1.477,15.903-3.109
	c-3.326,16.477-4.544,30.261-4.965,36.804c-1.217,0.689-2.435,1.343-3.652,1.965c-0.026,0.013-0.053,0.025-0.079,0.039
	c-1.197,0.61-2.393,1.19-3.589,1.736c-0.003,0.001-0.005,0.002-0.008,0.003c-2.437,1.113-4.872,2.096-7.301,2.954
	C153.591,455.674,153.397,454.672,153.422,453.623z"/>
<path style="fill:#FD747F;" d="M16.271,211.343c-1.795-6.492-3.352-13.395-4.637-20.55c13.523-16.896,35.38-29.412,64.448-36.691
	c14.823-3.71,28.784-5.412,38.996-6.19c-46.299-40.95-87.895-74.926-90.641-77.164c2.92-4.329,6.256-8.077,10.035-11.12
	c13.176,10.741,157.806,129.178,206.911,192.308v19.976c-0.021,0-0.041,0.005-0.062,0.005c-2.372,0-4.706-1.127-6.158-3.225
	c-18.407-26.611-61.541-68.23-104.034-106.463C127.349,162.187,39.545,162.171,16.271,211.343z"/>
<g>
	<path style="fill:#FC5E71;" d="M59.544,159.095c0.297,5.183,0.747,10.354,1.338,15.461c-18.678,7.221-36.031,18.658-44.612,36.786
		l0,0c-0.436-1.579-0.858-3.185-1.266-4.81c-0.02-0.078-0.04-0.156-0.059-0.234c-0.399-1.599-0.784-3.218-1.155-4.857
		c-0.02-0.088-0.039-0.176-0.059-0.263c-0.373-1.658-0.732-3.335-1.075-5.03c-0.007-0.034-0.014-0.068-0.02-0.102
		c-0.35-1.733-0.684-3.484-1.002-5.25v-0.002C22.455,177.273,38.626,166.567,59.544,159.095z"/>
	<path style="fill:#FC5E71;" d="M67.797,87.301c-1.828,4.934-3.345,10.224-4.571,15.78c-21.852-18.503-37.16-31.005-38.789-32.333
		c0.001-0.001,0.002-0.003,0.003-0.005c0.336-0.499,0.68-0.988,1.027-1.471c0.074-0.102,0.148-0.203,0.222-0.305
		c0.292-0.4,0.587-0.794,0.886-1.183c0.073-0.095,0.146-0.19,0.219-0.284c0.754-0.966,1.531-1.898,2.334-2.791
		c0.005-0.005,0.009-0.01,0.014-0.015c0.39-0.434,0.788-0.858,1.19-1.274c0.056-0.057,0.111-0.114,0.167-0.171
		c0.378-0.387,0.761-0.767,1.15-1.139c0.036-0.035,0.072-0.07,0.109-0.105c0.877-0.833,1.779-1.625,2.709-2.374
		c0.001-0.001,0.003-0.002,0.004-0.003C37.922,62.44,50.396,72.646,67.797,87.301z"/>
</g>
<path style="fill:#FD747F;" d="M102.502,212.55c0.088-0.023,0.175-0.045,0.263-0.065c21.75-4.95,44.223,2.535,58.667,19.529
	l39.589,44.852c-6.126,0.171-12.742,0.28-19.701,0.285l-31.15-35.291c-0.033-0.037-0.065-0.075-0.097-0.113
	c-10.792-12.728-27.586-18.357-43.863-14.704l-71.2,18.931c-4.381-3.763-7.994-7.96-10.677-12.639L102.502,212.55z"/>
<path style="fill:#FC5E71;" d="M24.332,233.334l46.515-12.368c0.81,2.409,1.654,4.743,2.531,6.985
	c0.943,2.41,2.115,4.704,3.493,6.891l-41.861,11.13c-0.016-0.014-0.033-0.028-0.049-0.041c-0.501-0.431-0.991-0.868-1.471-1.311
	c-0.039-0.036-0.079-0.071-0.118-0.107c-0.499-0.462-0.987-0.931-1.463-1.406c-0.017-0.017-0.034-0.033-0.051-0.05
	C28.874,240.073,26.342,236.839,24.332,233.334z"/>
<path style="fill:#FFC855;" d="M272.201,264.436c0-41.539-7.134-75.299-16.01-76.245v-0.045c-0.064,0-0.127,0.019-0.191,0.022
	c-0.064-0.003-0.127-0.022-0.191-0.022v0.045c-8.876,0.946-16.01,34.706-16.01,76.245c0,41.54,7.134,139.162,16.01,141.903v0.065
	c0.064,0,0.127-0.023,0.191-0.033c0.064,0.01,0.127,0.033,0.191,0.033v-0.065C265.067,403.598,272.201,305.976,272.201,264.436z"/>
<circle style="fill:#FFAF41;" cx="256" cy="205.601" r="20.453"/>
<ellipse style="fill:#FFC855;" cx="256" cy="199.431" rx="14.462" ry="8.299"/>
<path d="M226.583,384.44c-3.608-2.012-8.164-0.717-10.175,2.891c-8.307,14.9-19.252,28.688-32.532,40.979
	c-14.656,13.564-30.175,21.786-46.124,24.436c-14.209,2.362-28.695,0.084-41.889-6.587c-35.685-18.04-56.891-63.662-51.568-110.944
	c4.639-41.217,28.879-57.032,35.583-60.656c22.282,5.937,51.47,9.279,86.82,9.923c4.691,0.1,9.444,0.15,14.252,0.15
	c10.277,0,20.795-0.228,31.415-0.681l5.065-0.236c4.126-0.186,7.321-3.681,7.135-7.808s-3.69-7.339-7.808-7.136l-5.038,0.234
	c-15.264,0.652-30.306,0.829-44.726,0.52c-35.113-0.639-63.714-3.964-85.009-9.883c-0.04-0.011-0.08-0.021-0.121-0.032
	c-29.326-7.624-47.21-19.192-53.155-34.385c-9.083-23.207-14.33-56.056-13.694-85.731c0.713-33.272,8.309-58.692,21.388-71.58
	c11.394-11.229,26.695-12.701,46.779-4.495c23.281,9.51,47.482,29.074,71.931,58.15c18.308,21.773,36.352,48.34,53.629,78.963
	c2.03,3.598,6.593,4.87,10.19,2.839c3.598-2.03,4.868-6.592,2.839-10.19C167.647,97.258,119.607,62.14,88.837,49.57
	c-17.781-7.263-43.132-11.825-62.935,7.689C4.49,78.357,0.519,117.638,0.057,139.174c-0.686,31.995,4.817,66.202,14.719,91.503
	c6.465,16.519,22.243,29.383,46.979,38.369c-2.473,2.068-4.957,4.379-7.282,6.86c-9.622,10.271-21.777,28.607-25.045,57.635
	c-3.019,26.825,1.335,53.205,12.591,76.286c10.799,22.144,27.524,39.788,47.094,49.681c12.131,6.133,24.774,9.156,37.5,9.155
	c23.093-0.001,46.447-9.962,67.423-29.376c14.439-13.363,26.362-28.393,35.438-44.674
	C231.485,391.006,230.191,386.451,226.583,384.44z"/>
<path d="M511.943,139.174c-0.462-21.536-4.433-60.817-25.844-81.915c-19.804-19.514-45.155-14.951-62.935-7.689
	c-30.769,12.569-78.807,47.685-132.926,143.601c-2.03,3.598-0.759,8.159,2.838,10.19c3.597,2.03,8.159,0.758,10.19-2.839
	c17.277-30.621,35.32-57.186,53.628-78.957c24.446-29.074,48.646-48.637,71.926-58.146c20.084-8.204,35.383-6.732,46.779,4.495
	c13.079,12.888,20.675,38.309,21.388,71.58c0.636,29.674-4.611,62.524-13.694,85.731c-5.939,15.176-23.791,26.736-53.059,34.36
	c-0.073,0.018-0.146,0.037-0.219,0.057c-21.294,5.918-49.895,9.243-85.03,9.883c-15.916,0.337-32.508,0.091-49.312-0.733
	c-4.13-0.206-7.635,2.978-7.837,7.104c-0.202,4.125,2.979,7.634,7.104,7.837c12.185,0.598,24.263,0.898,36.061,0.898
	c4.81,0,9.575-0.051,14.279-0.15c35.374-0.645,64.565-3.988,86.85-9.925c6.699,3.62,30.947,19.434,35.586,60.658
	c5.322,47.282-15.883,92.904-51.568,110.944c-13.193,6.67-27.678,8.947-41.889,6.587c-15.95-2.65-31.468-10.871-46.124-24.437
	c-13.5-12.494-24.584-26.53-32.944-41.722c-1.992-3.619-6.539-4.94-10.159-2.946c-3.619,1.992-4.938,6.54-2.946,10.159
	c9.135,16.599,21.21,31.903,35.889,45.488c20.978,19.416,44.328,29.376,67.423,29.376c12.724,0,25.371-3.024,37.5-9.155
	c19.57-9.894,36.295-27.537,47.094-49.681c11.256-23.081,15.61-49.46,12.591-76.286c-3.267-29.028-15.423-47.365-25.045-57.635
	c-2.326-2.483-4.811-4.794-7.285-6.863c24.73-8.986,40.508-21.849,46.972-38.366C507.126,205.376,512.628,171.169,511.943,139.174z"
	/>
<path d="M283.932,205.598c0-5.482-1.594-10.596-4.333-14.915l38.909-86.323c3.989-7.958,5.648-16.808,4.799-25.605
	c-0.397-4.111-4.044-7.14-8.164-6.726c-4.112,0.396-7.123,4.051-6.726,8.163c0.582,6.03-0.571,12.106-3.336,17.572
	c-0.051,0.1-0.099,0.201-0.145,0.303l-37.073,82.251c-3.603-1.698-7.623-2.652-11.863-2.652c-4.236,0-8.253,0.953-11.854,2.648
	l-37.072-82.247c-0.046-0.102-0.094-0.203-0.145-0.303c-2.765-5.465-3.918-11.541-3.336-17.572c0.397-4.112-2.614-7.767-6.726-8.163
	c-4.114-0.418-7.767,2.614-8.164,6.726c-0.849,8.797,0.81,17.648,4.799,25.605l38.904,86.313c-2.743,4.321-4.34,9.438-4.34,14.925
	c0,6.925,2.538,13.264,6.726,18.149c-1.616,12.283-2.474,26.247-2.474,40.689c0,22.058,1.937,57.513,4.711,86.22
	c1.587,16.425,3.33,29.741,5.182,39.578c2.631,13.982,5.204,20.158,9.686,22.546c1.138,0.699,2.478,1.102,3.911,1.102
	c0.13,0,0.252,0,0.382,0c1.344,0,2.607-0.362,3.697-0.992c4.615-2.305,7.227-8.453,9.9-22.656
	c1.851-9.837,3.595-23.153,5.182-39.578c2.774-28.707,4.711-64.162,4.711-86.22c0-14.442-0.858-28.406-2.474-40.689
	C281.394,218.862,283.932,212.523,283.932,205.598z M256,381.759c-4.35-27.579-8.722-78.625-8.722-117.323
	c0-11.144,0.525-21.967,1.534-31.848c2.295,0.612,4.703,0.942,7.188,0.942c2.485,0,4.893-0.331,7.188-0.942
	c1.009,9.881,1.534,20.704,1.534,31.848C264.722,303.134,260.35,354.18,256,381.759z M264.424,215.445
	c-0.26,0.223-0.531,0.431-0.806,0.631c-0.046,0.034-0.091,0.07-0.138,0.103c-0.256,0.182-0.52,0.35-0.788,0.512
	c-0.072,0.044-0.143,0.089-0.216,0.131c-0.256,0.148-0.517,0.285-0.782,0.415c-0.093,0.046-0.185,0.091-0.279,0.134
	c-0.254,0.118-0.512,0.226-0.773,0.326c-0.116,0.045-0.233,0.087-0.35,0.128c-0.246,0.087-0.495,0.168-0.746,0.24
	c-0.15,0.043-0.302,0.08-0.453,0.117c-0.227,0.056-0.455,0.112-0.685,0.155c-0.209,0.039-0.421,0.068-0.633,0.097
	c-0.182,0.026-0.364,0.056-0.548,0.074c-0.405,0.038-0.814,0.062-1.229,0.062c-0.415,0-0.824-0.024-1.229-0.062
	c-0.184-0.018-0.365-0.048-0.548-0.074c-0.212-0.029-0.424-0.057-0.632-0.097c-0.23-0.044-0.458-0.099-0.685-0.155
	c-0.152-0.037-0.304-0.074-0.453-0.117c-0.251-0.072-0.499-0.153-0.746-0.24c-0.117-0.041-0.234-0.084-0.35-0.128
	c-0.261-0.101-0.519-0.209-0.773-0.326c-0.094-0.043-0.186-0.089-0.279-0.134c-0.265-0.13-0.527-0.267-0.783-0.415
	c-0.073-0.042-0.143-0.087-0.215-0.13c-0.268-0.162-0.532-0.33-0.788-0.512c-0.047-0.033-0.091-0.069-0.138-0.103
	c-0.275-0.201-0.546-0.408-0.806-0.631c-2.779-2.381-4.549-5.908-4.549-9.846c0-7.153,5.82-12.973,12.974-12.973
	c7.154,0,12.974,5.82,12.974,12.973C268.974,209.536,267.203,213.063,264.424,215.445z"/>
<g>
</g>
<g>
</g>
<g>
</g>
<g>
</g>
<g>
</g>
<g>
</g>
<g>
</g>
<g>
</g>
<g>
</g>
<g>
</g>
<g>
</g>
<g>
</g>
<g>
</g>
<g>
</g>
<g>
</g>
</svg>
