<?xml version="1.0" encoding="iso-8859-1"?>
<!-- Generator: Adobe Illustrator 19.0.0, SVG Export Plug-In . SVG Version: 6.00 Build 0)  -->
<svg version="1.1" id="Capa_1" xmlns="http://www.w3.org/2000/svg" xmlns:xlink="http://www.w3.org/1999/xlink" x="0px" y="0px"
	 viewBox="0 0 512 512" style="enable-background:new 0 0 512 512;" xml:space="preserve">
<path style="fill:#C6C5CA;" d="M258.238,7.488l32.321,151.878c2.774,13.033-4.24,26.17-16.612,31.118l-28.087,11.231
	c-3.942,1.576-6.89,4.947-7.926,9.065l-4.927,19.577c-1.171,4.652-5.094,8.171-9.869,8.636
	c-18.838,1.832-25.736,27.689-25.736,27.689l-38.632-9.722l57.124-88.82c2.002-3.113,11.999-18.406,11.339-22.048
	C206.952,34.224,258.238,7.488,258.238,7.488z"/>
<g>
	<path style="fill:#E0E0E2;" d="M245.619,18.656c-13.686,16.252-31.883,52.988-18.386,127.437c0.039,0.216,0.038,0.476,0.006,0.769
		l19.948-7.977c12.745-5.096,19.97-18.629,17.113-32.055L245.619,18.656z"/>
	<path style="fill:#E0E0E2;" d="M325.303,209.163c-4.308-7.468-9.59-16.254-16.005-26.353
		c-23.916-37.653-29.13-49.395-61.279-45.438s-44.106-9.992-61.238-51.361c-10.336-24.96-9.261-45.903-6.781-58.594
		c0,0-24.984,17.077-20.136,68.504c3.849,40.826,30.44,74.934,48.969,83.196c0.788,0.352,67.876,29.705,68.39,31.791
		c0.003,0.013,0.006,0.025,0.009,0.038l4.76,19.618c1.131,4.663,5.025,8.215,9.796,8.72c18.822,1.993,25.499,27.907,25.499,27.907
		L356,257.799L325.303,209.163z"/>
</g>
<circle style="fill:#999999;" cx="257.77" cy="167.41" r="29.11"/>
<path style="fill:#21D8DE;" d="M178.146,233.254l20.862,22.934c2.611,2.871,3.612,6.859,2.665,10.622l-7.597,30.188
	c-0.304,1.209-0.802,2.358-1.472,3.409c-3.865,6.065-18.205,29.493-30.797,62.15c-16.19,41.987-28.917,99.384-34.54,126.939
	c-1.815,8.896-10.432,14.686-19.357,13.021l0,0c-8.254-1.54-14.075-8.983-13.56-17.363c1.557-25.356,6.114-77.543,18.268-108.206
	c16.931-42.716,26.225-57.848,23.237-70.592c-2.052-8.753-3.794-20.362-3.794-20.362s-0.685-6.271,1.125-8.863l29.973-42.914
	C166.689,229.163,173.998,228.693,178.146,233.254z"/>
<path style="fill:#1BC9C9;" d="M199.009,256.188l-15.551-17.095c-1.492,10.119-3.378,19.519-5.745,27.718l-7.597,30.188
	c-0.304,1.209-0.801,2.358-1.472,3.409c-3.865,6.065-18.205,29.494-30.797,62.15c-16.19,41.987-28.917,99.384-34.54,126.939
	c-0.655,3.21-2.205,6.005-4.325,8.202c2.333,2.422,5.406,4.161,8.929,4.818c8.925,1.665,17.541-4.125,19.357-13.021
	c5.624-27.555,18.35-84.952,34.54-126.939c12.592-32.657,26.932-56.085,30.797-62.15c0.67-1.052,1.167-2.2,1.472-3.409l7.597-30.188
	C202.62,263.047,201.62,259.059,199.009,256.188z"/>
<path style="fill:#21D8DE;" d="M336.455,233.582l-21.057,22.756c-2.636,2.849-3.67,6.828-2.755,10.599l7.34,30.252
	c0.294,1.212,0.781,2.364,1.443,3.422c3.814,6.098,17.953,29.647,30.267,62.41c16.417,43.679,28.969,103.895,34.027,130.162
	c1.414,7.343,8.362,12.266,15.76,11.176l5.953-0.877c0.897-0.132,1.791-0.322,2.635-0.655c4.571-1.799,7.648-6.249,7.613-11.274
	c-0.156-22.454-3.008-147.426-36.64-213.711l-29.607-43.168C347.947,229.59,340.642,229.057,336.455,233.582z"/>
<path style="fill:#1BC9C9;" d="M381.041,277.842l-29.607-43.168c-3.487-5.084-10.792-5.617-14.979-1.091l-16.652,17.995
	c7.949,5.722,23.779,23.613,32.988,34.348c5.131,5.981,9.374,12.684,12.42,19.952c27.19,64.888,30.848,169.814,31.272,198.303
	c1.601,0.347,3.285,0.43,4.997,0.177l5.953-0.877c0.897-0.132,1.79-0.322,2.635-0.655c4.571-1.799,7.648-6.249,7.613-11.274
	C417.526,469.099,414.673,344.127,381.041,277.842z"/>
<path d="M287.781,284.331c-20.394,7.218-42.837,7.009-63.199-0.59c-3.876-1.45-8.187,0.523-9.633,4.397s0.523,8.187,4.397,9.633
	c12.14,4.532,24.919,6.799,37.69,6.799c12.106,0,24.206-2.04,35.741-6.122c3.899-1.38,5.94-5.659,4.561-9.557
	C295.958,284.993,291.68,282.948,287.781,284.331z"/>
<path d="M419.353,400.266c-6.376-54.679-17.02-97.009-31.634-125.813c-0.149-0.293-0.317-0.576-0.502-0.847l-29.607-43.168
	c-2.957-4.311-7.644-7.002-12.858-7.382c-0.618-0.044-1.232-0.049-1.842-0.028l-11.195-17.737
	c-4.856-8.413-10.271-17.327-16.095-26.496c-1.424-2.242-2.783-4.393-4.084-6.454c-5.846-9.258-10.731-16.993-15.504-23.239
	L265.562,5.929c-0.487-2.288-2.016-4.218-4.133-5.215c-2.118-0.998-4.578-0.947-6.653,0.135
	c-2.063,1.075-48.135,26.318-38.436,121.835c-7.666-7.044-14.309-19.42-22.64-39.538c-9.523-22.995-8.709-42.216-6.351-54.292
	c0.583-2.982-0.694-6.02-3.232-7.69s-5.832-1.644-8.342,0.073c-1.169,0.798-28.568,20.201-23.365,75.388
	c2.364,25.073,12.256,44.923,20.14,57.161c7.639,11.86,16.854,21.754,25.745,27.878l-26.357,40.982
	c-0.661-0.033-1.327-0.031-1.998,0.013c-5.217,0.334-9.926,2.985-12.92,7.271l-29.974,42.915c-3.087,4.42-2.727,11.237-2.43,13.963
	c0.012,0.099,0.024,0.198,0.039,0.297c0.073,0.487,1.811,12.012,3.91,20.96c1.655,7.064-2.666,17.341-11.275,37.818
	c-3.376,8.03-7.202,17.13-11.632,28.306c-12.348,31.153-17.067,82.607-18.781,110.506c-0.745,12.125,7.708,22.952,19.661,25.183
	c1.47,0.274,2.937,0.407,4.385,0.407c11.224-0.001,21.366-7.943,23.682-19.29c6.003-29.414,18.427-84.862,34.191-125.743
	c12.275-31.837,26.161-54.601,30.126-60.822c1.103-1.732,1.916-3.615,2.418-5.604l7.597-30.188c0.828-3.292,0.748-6.673-0.143-9.831
	c3.21-5.767,8.143-11.688,15.071-12.361c7.858-0.763,14.452-6.494,16.407-14.261l4.926-19.576c0.448-1.785,1.736-3.257,3.445-3.941
	l4.167-1.666c9.02,4.159,14.94,7.012,17.837,8.55l4.07,16.779c1.888,7.782,8.432,13.569,16.284,14.4
	c6.72,0.712,11.515,6.38,14.654,11.94c-0.974,3.208-1.103,6.663-0.286,10.033l7.339,30.248c0.482,1.991,1.279,3.885,2.371,5.629
	c3.911,6.253,17.603,29.137,29.606,61.075c16.383,43.59,29.014,104.695,33.685,128.943C380.341,504.846,389.26,512,399.399,512
	c1.047,0,2.107-0.076,3.173-0.233l5.956-0.878c1.636-0.242,2.995-0.588,4.282-1.094c7.447-2.932,12.413-10.283,12.359-18.294
	C425.117,484.158,424.598,445.252,419.353,400.266z M242.076,37.7c3.788-7.493,7.915-12.884,11.403-16.601l23.752,111.612
	c-4.616-2.078-9.836-3.228-16.071-3.478c-0.096-0.004-0.196-0.005-0.293-0.008c-0.735-0.026-1.48-0.044-2.244-0.045
	c-0.062,0-0.121-0.004-0.184-0.004c-0.297,0-0.607,0.013-0.908,0.017c-0.51,0.007-1.016,0.011-1.539,0.028
	c-0.531,0.018-1.077,0.049-1.62,0.077c-0.395,0.021-0.781,0.035-1.184,0.062c-0.687,0.045-1.393,0.106-2.101,0.168
	c-0.29,0.025-0.571,0.044-0.865,0.072c-1.018,0.098-2.056,0.211-3.118,0.341c-0.727,0.089-1.436,0.166-2.138,0.237
	c-4.792,0.471-8.986,0.457-12.671-0.041C225.937,82.521,234.005,53.67,242.076,37.7z M167.319,95.219
	c-1.73-18.35,0.518-31.798,3.881-41.363c0.863,10.404,3.367,22.233,8.662,35.019c14.031,33.88,25.874,52.266,49.145,55.936
	c-4.902,6.227-7.831,14.078-7.831,22.6c0,3.289,0.437,6.48,1.254,9.515c-0.158-0.07-0.319-0.141-0.477-0.211
	c-1.443-0.638-2.803-1.238-4.055-1.79c-0.26-0.114-0.518-0.229-0.778-0.343c-1.837-0.809-3.426-1.508-4.69-2.063l-0.258-0.113
	l-0.289-0.127C195.97,165.184,170.943,133.66,167.319,95.219z M194.412,264.983l-7.595,30.183c-0.109,0.43-0.287,0.84-0.526,1.218
	c-4.152,6.516-18.694,30.347-31.47,63.481c-16.154,41.895-28.794,98.263-34.89,128.135c-0.991,4.857-5.769,8.07-10.646,7.157
	c-4.535-0.846-7.743-4.949-7.46-9.543c1.336-21.744,5.741-75.593,17.756-105.906c4.372-11.033,8.166-20.057,11.514-28.019
	c9.866-23.464,14.817-35.242,12.05-47.042c-1.828-7.797-3.437-18.175-3.655-19.6c-0.118-1.236-0.092-3.15,0.102-4.011l29.705-42.53
	c0.509-0.728,1.224-0.878,1.604-0.903c0.265-0.019,0.697,0.017,1.136,0.253c0.065,0.035,0.125,0.075,0.185,0.115
	c0.131,0.089,0.261,0.186,0.385,0.322l20.862,22.934c0.2,0.22,0.385,0.484,0.55,0.783c0.015,0.027,0.035,0.051,0.05,0.078
	C194.53,262.967,194.661,263.994,194.412,264.983z M230.673,208.952l-4.926,19.577c-0.414,1.647-1.754,2.857-3.333,3.01
	c-8.775,0.854-16.666,5.764-22.892,14.085l-2.391-2.628l-11.995-13.187l26.538-41.263c6.265,2.761,15.234,6.732,24.408,10.853
	C233.488,202.011,231.592,205.301,230.673,208.952z M257.773,189.032c-11.921,0-21.62-9.699-21.62-21.621s9.699-21.621,21.62-21.621
	c11.922,0,21.621,9.699,21.621,21.621S269.694,189.032,257.773,189.032z M315.061,245.678c-6.092-8.179-13.732-12.914-22.484-13.84
	c-1.578-0.168-2.907-1.388-3.308-3.039l-4.749-19.574c-0.008-0.036-0.017-0.071-0.025-0.106c-0.87-3.531-2.942-4.97-10.744-8.787
	c10.699-5.213,18.493-15.488,20.246-27.691c1.523,2.386,3.14,4.947,4.877,7.695c1.307,2.072,2.672,4.233,4.105,6.488
	c5.742,9.038,11.071,17.812,15.84,26.08c0.049,0.086,0.1,0.171,0.154,0.254l10.616,16.821L315.061,245.678z M407.331,495.858
	c-0.106,0.042-0.377,0.126-0.99,0.216l-5.951,0.877c-3.444,0.507-6.66-1.771-7.318-5.184
	c-4.742-24.624-17.585-86.717-34.371-131.381c-12.492-33.238-26.831-57.196-30.928-63.747c-0.237-0.379-0.409-0.787-0.514-1.216
	l-7.339-30.251c-0.24-0.989-0.101-2.013,0.364-2.888c0.031-0.05,0.069-0.094,0.099-0.146c0.167-0.286,0.331-0.514,0.487-0.688
	c0.008-0.009,0.015-0.02,0.023-0.029l21.057-22.755c0.109-0.118,0.224-0.205,0.338-0.287c0.085-0.059,0.175-0.113,0.273-0.161
	c0.349-0.174,0.691-0.233,0.944-0.233c0.057,0,0.11,0.002,0.157,0.006c0.38,0.027,1.094,0.183,1.596,0.916l29.325,42.756
	c33.653,66.875,35.51,195.468,35.61,209.939C410.207,493.469,409.054,495.18,407.331,495.858z"/>
<g>
</g>
<g>
</g>
<g>
</g>
<g>
</g>
<g>
</g>
<g>
</g>
<g>
</g>
<g>
</g>
<g>
</g>
<g>
</g>
<g>
</g>
<g>
</g>
<g>
</g>
<g>
</g>
<g>
</g>
</svg>
