<?xml version="1.0" encoding="iso-8859-1"?>
<!-- Generator: Adobe Illustrator 19.0.0, SVG Export Plug-In . SVG Version: 6.00 Build 0)  -->
<svg version="1.1" id="Capa_1" xmlns="http://www.w3.org/2000/svg" xmlns:xlink="http://www.w3.org/1999/xlink" x="0px" y="0px"
	 viewBox="0 0 512.004 512.004" style="enable-background:new 0 0 512.004 512.004;" xml:space="preserve">
<path id="SVGCleanerId_0" style="fill:#C6C5CA;" d="M211.075,239.014l34.447-22.184L330.478,8.427
	c0.547-1.334,2.505-1.089,2.706,0.339l0.455,5.706c3.198,40.1-2.975,80.395-18.032,117.698L275.87,232.862
	c0.011,0.072-36.555,26.628-36.555,26.628l-15.525,30.903l-31.456-14.558L211.075,239.014z"/>
<g>
	<path id="SVGCleanerId_0_1_" style="fill:#C6C5CA;" d="M211.075,239.014l34.447-22.184L330.478,8.427
		c0.547-1.334,2.505-1.089,2.706,0.339l0.455,5.706c3.198,40.1-2.975,80.395-18.032,117.698L275.87,232.862
		c0.011,0.072-36.555,26.628-36.555,26.628l-15.525,30.903l-31.456-14.558L211.075,239.014z"/>
</g>
<path style="fill:#42A094;" d="M121.005,503.63l-23.688-10.594c-4.777-2.136-6.915-7.744-4.772-12.518L185.9,272.476
	c2.139-4.766,7.734-6.899,12.502-4.766l23.688,10.594c4.777,2.136,6.915,7.744,4.772,12.518l-93.355,208.042
	C131.369,503.629,125.774,505.762,121.005,503.63z"/>
<path style="fill:#359085;" d="M222.091,278.303l-11.659-5.214L109.281,498.386l11.724,5.243c4.769,2.133,10.364,0,12.502-4.767
	l93.355-208.042C229.005,286.047,226.868,280.44,222.091,278.303z"/>
<path style="fill:#E0E0E2;" d="M300.929,239.014l-34.448-22.184L181.526,8.427c-0.547-1.334-2.505-1.089-2.706,0.339l-0.455,5.706
	c-3.198,40.1,2.975,80.395,18.032,117.698l39.737,100.692c-0.011,0.072,36.555,26.628,36.555,26.628l15.525,30.903l31.456-14.558
	L300.929,239.014z"/>
<path style="fill:#EDEDED;" d="M248.642,216.83l17.267-1.405L181.526,8.427c-0.547-1.334-2.505-1.089-2.706,0.339l-0.455,5.706
	c-0.008,0.094-0.015,0.189-0.022,0.283c-1.302,16.569,1.461,33.206,7.734,48.596L248.642,216.83z"/>
<path style="fill:#E0E0E2;" d="M333.184,8.766c-0.201-1.428-2.16-1.672-2.706-0.339l-84.382,206.995l17.296,1.407l62.566-153.478
	c5.772-14.159,8.563-29.373,7.96-44.618c-0.09-1.42-0.164-2.841-0.278-4.261L333.184,8.766z"/>
<path style="fill:#42A094;" d="M390.999,503.63l23.688-10.594c4.777-2.136,6.915-7.744,4.772-12.518l-93.355-208.042
	c-2.139-4.766-7.734-6.899-12.502-4.766l-23.688,10.594c-4.777,2.136-6.915,7.744-4.772,12.518l93.355,208.042
	C380.635,503.629,386.23,505.762,390.999,503.63z"/>
<path style="fill:#359085;" d="M419.459,480.518l-93.355-208.042c-2.139-4.766-7.734-6.899-12.502-4.766l-12.182,5.448
	l100.763,224.636c0.105,0.234,0.192,0.472,0.277,0.71l12.227-5.468C419.464,490.899,421.602,485.292,419.459,480.518z"/>
<circle style="fill:#999999;" cx="256.002" cy="224.681" r="21.2"/>
<path d="M426.346,477.427l-56.672-126.291c-1.708-3.804-6.175-5.504-9.976-3.797c-3.803,1.707-5.503,6.173-3.797,9.976
	l56.672,126.291c0.269,0.6,0.172,1.131,0.042,1.47s-0.41,0.8-1.009,1.068l-23.688,10.594c-0.964,0.434-2.101-0.002-2.535-0.966
	L292.027,287.73c-0.252-0.562-0.18-1.056-0.064-1.396c0.005-0.013,0.012-0.023,0.016-0.036c0.116-0.323,0.372-0.743,0.874-1.022
	c0.049-0.027,0.088-0.06,0.142-0.084l6.715-3.003l16.98-7.593c0.084-0.037,0.194-0.073,0.325-0.105
	c0.019-0.005,0.036-0.012,0.055-0.017c0.863-0.181,1.772,0.252,2.148,1.09l14.834,33.058c1.707,3.803,6.173,5.502,9.976,3.797
	c3.803-1.707,5.503-6.173,3.797-9.976l-14.834-33.058c-2.477-5.52-7.56-9.06-13.151-9.858l-12.183-23.938
	c-0.606-1.19-1.517-2.199-2.641-2.922l-16.707-10.76l34.299-86.913c15.414-38.189,21.831-80.074,18.556-121.124l-0.455-5.706
	c-0.013-0.149-0.029-0.3-0.05-0.449c-0.561-3.998-3.75-7.141-7.755-7.644c-4.018-0.508-7.876,1.753-9.415,5.506l-67.487,165.551
	L188.509,5.561c-1.533-3.735-5.396-5.998-9.408-5.489c-4.005,0.503-7.194,3.647-7.755,7.644c-0.022,0.149-0.037,0.3-0.05,0.45
	l-0.455,5.705c-3.275,41.05,3.142,82.935,18.534,121.07l34.321,86.967l-16.707,10.76c-1.123,0.723-2.034,1.732-2.64,2.922
	l-12.182,23.936c-5.593,0.798-10.676,4.34-13.153,9.861l-15.106,33.666c-1.706,3.803-0.007,8.27,3.797,9.976
	c3.802,1.705,8.27,0.007,9.976-3.797l15.106-33.666c0.375-0.834,1.278-1.272,2.14-1.092c0.021,0.005,0.042,0.014,0.063,0.019
	c0.132,0.032,0.242,0.068,0.332,0.108l13.095,5.856l10.593,4.738c0.03,0.014,0.05,0.032,0.079,0.047
	c0.547,0.277,0.816,0.722,0.936,1.059c0.004,0.012,0.011,0.023,0.016,0.036c0.116,0.34,0.188,0.834-0.064,1.396l-93.356,208.042
	c-0.433,0.963-1.57,1.398-2.535,0.966l-23.688-10.594c-0.6-0.268-0.88-0.729-1.009-1.068c-0.13-0.339-0.227-0.87,0.042-1.47
	l56.34-125.554c1.706-3.803,0.007-8.269-3.797-9.976c-3.802-1.705-8.27-0.007-9.976,3.797L85.658,477.43
	c-1.862,4.15-1.995,8.776-0.375,13.027c1.621,4.252,4.8,7.615,8.953,9.472l23.688,10.594c2.248,1.005,4.6,1.481,6.918,1.481
	c6.502-0.001,12.724-3.745,15.552-10.048l93.356-208.042c1.312-2.924,1.747-6.083,1.334-9.183l10.153-20.211
	c2.08-1.511,6.133-4.454,10.765-7.822c4.633,3.368,8.685,6.311,10.765,7.823l10.153,20.21c-0.413,3.099,0.021,6.259,1.334,9.182
	l93.356,208.042c2.827,6.303,9.05,10.048,15.552,10.048c2.317,0,4.67-0.476,6.918-1.481l23.688-10.594
	c4.153-1.857,7.333-5.221,8.953-9.472C428.341,486.204,428.208,481.578,426.346,477.427z M234.881,253.383
	c-0.976,0.709-1.768,1.641-2.31,2.718l-7.638,15.205l-17.778-7.951l9.721-19.1l12.494-8.046c0.004,0.009,0.011,0.017,0.015,0.026
	c0.109,0.206,0.234,0.413,0.37,0.619c0.041,0.062,0.084,0.123,0.127,0.185c0.121,0.173,0.252,0.346,0.394,0.519
	c0.029,0.036,0.051,0.071,0.081,0.107c0.016,0.032,0.036,0.062,0.052,0.094c0.274,0.535,0.562,1.061,0.868,1.576
	c0.019,0.031,0.036,0.064,0.055,0.095c0.312,0.519,0.64,1.027,0.983,1.524c0.075,0.109,0.153,0.215,0.229,0.322
	c0.269,0.379,0.546,0.75,0.832,1.115c0.1,0.128,0.199,0.258,0.302,0.384c0.354,0.436,0.717,0.862,1.095,1.276
	c0.092,0.101,0.19,0.197,0.283,0.297c0.304,0.324,0.615,0.64,0.933,0.95c0.138,0.134,0.277,0.267,0.418,0.398
	c0.35,0.326,0.707,0.644,1.072,0.953c0.073,0.062,0.144,0.127,0.218,0.189c0.438,0.363,0.89,0.709,1.35,1.046
	c0.125,0.091,0.252,0.179,0.378,0.269c0.383,0.272,0.773,0.534,1.17,0.787c0.071,0.045,0.138,0.096,0.21,0.141
	C237.26,251.655,234.881,253.383,234.881,253.383z M240.962,200.194c-0.606,0.374-1.195,0.772-1.771,1.189
	c-0.076,0.055-0.153,0.107-0.229,0.163c-0.566,0.418-1.112,0.858-1.645,1.315c-0.099,0.085-0.197,0.17-0.295,0.256
	c-0.522,0.46-1.028,0.936-1.516,1.432c-0.08,0.081-0.157,0.165-0.236,0.247c-0.502,0.523-0.989,1.059-1.451,1.618
	c-0.002,0.003-0.005,0.005-0.007,0.008l-30.417-77.075c-11.777-29.178-17.987-60.645-18.282-92.125l63.897,156.744
	c0.001,0.002,0.001,0.004,0.002,0.006l1.051,2.579c-0.052,0.011-0.101,0.028-0.152,0.039c-0.698,0.151-1.386,0.329-2.064,0.53
	c-0.084,0.025-0.169,0.046-0.252,0.072c-0.688,0.211-1.363,0.452-2.028,0.712c-0.124,0.049-0.249,0.097-0.372,0.147
	c-0.652,0.265-1.292,0.553-1.919,0.864c-0.109,0.054-0.215,0.111-0.323,0.166c-0.645,0.33-1.28,0.678-1.896,1.054
	C241.025,200.152,240.994,200.174,240.962,200.194z M256.002,238.34c-0.466,0-0.938-0.025-1.404-0.072
	c-0.411-0.042-0.815-0.108-1.215-0.186c-0.088-0.017-0.175-0.035-0.262-0.054c-0.794-0.171-1.562-0.412-2.299-0.715
	c-0.089-0.037-0.178-0.075-0.266-0.113c-0.34-0.149-0.675-0.307-1-0.482c-0.023-0.013-0.047-0.023-0.071-0.036
	c-0.339-0.185-0.667-0.389-0.988-0.601c-0.088-0.058-0.176-0.119-0.263-0.179c-0.274-0.19-0.541-0.389-0.8-0.599
	c-0.047-0.038-0.096-0.073-0.143-0.112c-0.287-0.238-0.561-0.491-0.828-0.752c-0.087-0.085-0.172-0.173-0.257-0.26
	c-0.198-0.204-0.388-0.414-0.573-0.63c-0.073-0.085-0.148-0.167-0.219-0.253c-0.221-0.271-0.43-0.554-0.63-0.842
	c-0.09-0.13-0.175-0.264-0.261-0.398c-0.12-0.186-0.234-0.375-0.344-0.567c-0.086-0.15-0.175-0.298-0.256-0.451
	c-0.151-0.287-0.292-0.58-0.424-0.879c-0.567-1.293-0.926-2.64-1.074-4.019c-0.002-0.015-0.005-0.03-0.007-0.045
	c-0.049-0.466-0.073-0.936-0.073-1.409c0-7.529,6.126-13.655,13.655-13.655c0.378,0,0.75,0.027,1.12,0.057
	c0.179,0.016,0.358,0.03,0.539,0.054c0.044,0.005,0.087,0.014,0.131,0.02c0.536,0.076,1.081,0.183,1.642,0.329
	c0.001,0,0.002,0,0.003,0.001c1.343,0.349,2.588,0.893,3.721,1.587c0.109,0.068,0.223,0.13,0.33,0.201
	c0.154,0.1,0.3,0.21,0.449,0.316c0.198,0.142,0.395,0.286,0.586,0.438c0.109,0.087,0.216,0.177,0.322,0.267
	c0.226,0.193,0.446,0.392,0.659,0.599c0.074,0.072,0.149,0.142,0.221,0.215c0.261,0.265,0.512,0.54,0.751,0.826
	c0.022,0.027,0.047,0.051,0.069,0.078c0.259,0.315,0.502,0.642,0.733,0.98c0.077,0.113,0.145,0.23,0.218,0.345
	c0.132,0.206,0.26,0.414,0.382,0.628c0.112,0.199,0.217,0.401,0.319,0.606c0.06,0.12,0.119,0.242,0.176,0.365
	c0.122,0.265,0.241,0.532,0.346,0.806c0.007,0.017,0.013,0.035,0.019,0.052c0.505,1.331,0.809,2.76,0.877,4.248
	c0,0.003,0.001,0.006,0.001,0.008c0.008,0.17,0.018,0.34,0.03,0.509l0.011,0.119C269.657,232.214,263.531,238.34,256.002,238.34z
	 M270.634,199.949c-0.221-0.129-0.441-0.259-0.665-0.383c-0.955-0.533-1.942-1.015-2.96-1.438l-2.856-7.006L326.89,37.221
	c-0.295,31.484-6.508,62.955-18.303,92.179l-30.384,76.994c-1.985-2.411-4.375-4.484-7.075-6.145
	C270.964,200.147,270.799,200.048,270.634,199.949z M287.071,271.306l-7.638-15.205c-0.542-1.078-1.334-2.01-2.31-2.718
	c0,0-2.378-1.728-5.922-4.303c0.065-0.04,0.125-0.087,0.189-0.128c0.494-0.315,0.979-0.643,1.452-0.986
	c0.074-0.054,0.15-0.105,0.224-0.159c0.513-0.38,1.012-0.779,1.498-1.192c0.105-0.089,0.207-0.179,0.311-0.269
	c0.481-0.42,0.953-0.85,1.405-1.301c0.008-0.008,0.016-0.015,0.024-0.023c0.458-0.457,0.895-0.934,1.321-1.421
	c0.093-0.106,0.186-0.212,0.277-0.32c0.413-0.486,0.814-0.983,1.195-1.496c0.047-0.063,0.09-0.129,0.137-0.192
	c0.346-0.474,0.675-0.96,0.992-1.454c0.07-0.109,0.142-0.217,0.21-0.327c0.335-0.539,0.652-1.089,0.951-1.65
	c0.06-0.113,0.116-0.227,0.175-0.34c0.266-0.515,0.517-1.039,0.752-1.571c0.028-0.064,0.062-0.124,0.09-0.188l12.722,8.194
	l9.721,19.1l-15.035,6.725L287.071,271.306z"/>
<g>
</g>
<g>
</g>
<g>
</g>
<g>
</g>
<g>
</g>
<g>
</g>
<g>
</g>
<g>
</g>
<g>
</g>
<g>
</g>
<g>
</g>
<g>
</g>
<g>
</g>
<g>
</g>
<g>
</g>
</svg>
