<?xml version="1.0" encoding="iso-8859-1"?>
<!-- Generator: Adobe Illustrator 19.0.0, SVG Export Plug-In . SVG Version: 6.00 Build 0)  -->
<svg version="1.1" id="Capa_1" xmlns="http://www.w3.org/2000/svg" xmlns:xlink="http://www.w3.org/1999/xlink" x="0px" y="0px"
	 viewBox="0 0 512.001 512.001" style="enable-background:new 0 0 512.001 512.001;" xml:space="preserve">
<path style="fill:#80C56E;" d="M468.945,31.541c-38.03,28.966-70.618,67.278-110.774,92.738
	c-26.874,17.039-61.588,22.628-91.95,11.652c-12.938-36.508,10.511-74.317,41.036-93.429
	C352.979,13.875,418.821,15.473,468.945,31.541z"/>
<path style="fill:#66AD66;" d="M266.22,135.931c30.362,10.976,65.076,5.387,91.95-11.652c40.156-25.46,72.744-63.772,110.774-92.738
	C390.469,46.962,321.571,81.064,266.22,135.931z"/>
<path id="SVGCleanerId_0" style="fill:#80C56E;" d="M46.835,106.692c31.142,18.292,59.046,44.086,91.466,59.556
	c21.697,10.353,48.24,11.41,70.023,0.435c6.407-28.553-14.596-54.794-39.219-66.373C132.223,82.967,82.98,90.113,46.835,106.692z"/>
<g>
	<path id="SVGCleanerId_0_1_" style="fill:#80C56E;" d="M46.835,106.692c31.142,18.292,59.046,44.086,91.466,59.556
		c21.697,10.353,48.24,11.41,70.023,0.435c6.407-28.553-14.596-54.794-39.219-66.373C132.223,82.967,82.98,90.113,46.835,106.692z"
		/>
</g>
<path style="fill:#BA7D60;" d="M95.559,323.853c3.543-0.007,6.987,0.402,10.301,1.157c9.359-25.912,34.146-44.457,63.291-44.513
	c4.286-0.008,8.473,0.401,12.538,1.158c10.244-24.089,34.099-41.005,61.932-41.058c27.832-0.054,51.753,16.77,62.089,40.82
	c4.062-0.773,8.248-1.198,12.534-1.206c28.781-0.055,53.371,17.941,63.089,43.309c1.451-0.141,2.92-0.221,4.408-0.224
	c25.299-0.049,45.847,20.42,45.895,45.719c0.049,25.298-20.42,45.846-45.719,45.895c-11.519,0.022-277.328,0.533-290.182,0.558
	c-25.299,0.049-45.847-20.42-45.895-45.719C49.791,344.45,70.26,323.902,95.559,323.853z"/>
<path style="fill:#A56A58;" d="M385.741,323.295c-1.488,0.003-2.957,0.083-4.408,0.224c-9.719-25.368-34.308-43.364-63.089-43.309
	c-4.286,0.008-8.472,0.434-12.534,1.206c-10.336-24.05-34.257-40.873-62.089-40.82c-27.521,0.053-51.145,16.598-61.574,40.258
	c8.263-3.638,17.395-5.667,27.002-5.685c27.832-0.054,51.753,16.77,62.089,40.82c4.062-0.773,8.248-1.198,12.534-1.206
	c28.781-0.055,53.371,17.941,63.089,43.309c1.451-0.141,2.92-0.221,4.408-0.224c25.299-0.049,45.846,20.42,45.895,45.719
	c0.007,3.504-0.393,6.912-1.132,10.192c20.47-4.61,35.746-22.908,35.704-44.764C431.588,343.716,411.04,323.247,385.741,323.295z"/>
<path style="fill:#FED9A8;" d="M45.381,332.641l102.524,68.614l30.555-1.714l1.196-12.027c1.78-17.902,15.564-32.27,33.378-34.791
	l81.866-9.426c18.885-2.672,37.068-9.001,53.531-18.631l0,0c22.477-13.148,48.048-20.078,74.088-20.078h59.025v134.73
	l-155.998,50.913c-5.896,1.664-12.088,2.163-18.138,1.207c-0.036-0.006-0.072-0.011-0.109-0.017l-157.053-22.639
	c-12.099-1.932-23.473-7.028-32.968-14.772L15.771,370.878c-9.11-8.089-10.798-21.684-3.945-31.756l0,0
	C19.326,328.102,34.317,325.206,45.381,332.641z"/>
<path style="fill:#F4C892;" d="M307.407,447.098c-0.036-0.006-156.489-2.893-200.353-36.046l-95.851-70.916
	c-6.086,9.956-4.242,22.919,4.568,30.742l101.506,83.133c9.495,7.744,20.868,12.84,32.968,14.772l157.053,22.639
	c0.036,0.006,0.072,0.011,0.109,0.017c6.051,0.956,12.243,0.458,18.139-1.207l155.998-50.913v-49.441l-155.998,56.014
	C319.65,447.556,313.458,448.054,307.407,447.098z"/>
<path style="fill:#4FB7A8;" d="M451.412,485.082h43.83c5.03,0,9.107-4.077,9.107-9.107V282.676c0-5.03-4.077-9.107-9.107-9.107
	h-43.83c-5.03,0-9.107,4.077-9.107,9.107v193.299C442.305,481.005,446.383,485.082,451.412,485.082z"/>
<path style="fill:#42A094;" d="M495.242,273.568H464.22c5.03,0,9.107,4.077,9.107,9.107v193.299c0,5.03-4.077,9.107-9.107,9.107
	h31.022c5.03,0,9.107-4.077,9.107-9.107V282.676C504.349,277.646,500.272,273.568,495.242,273.568z"/>
<path style="fill:#66AD66;" d="M169.104,100.31c-36.881-17.343-86.124-10.197-122.27,6.382
	c60.165,4.472,114.532,24.196,160.96,60.247c0.176-0.087,0.354-0.168,0.529-0.256C214.731,138.13,193.727,111.889,169.104,100.31z"
	/>
<path d="M314.212,381.168l-61.086,4.815c-4.212,0.332-7.357,4.017-7.025,8.229c0.316,4.008,3.666,7.049,7.618,7.049
	c0.202,0,0.405-0.008,0.61-0.024l61.085-4.815c4.212-0.332,7.358-4.016,7.026-8.228
	C322.109,383.981,318.417,380.841,314.212,381.168z"/>
<path d="M495.242,265.918h-43.83c-9.24,0-16.758,7.517-16.758,16.758v14.261h-12.136c-14.816,0-29.505,2.159-43.616,6.315
	c-14.126-19.327-36.323-30.691-60.524-30.691c-0.048,0-0.101,0-0.149,0c-2.671,0.005-5.366,0.157-8.058,0.455
	c-12.402-23.554-36.354-38.802-63.066-39.985l0.119-37.069c0.111-0.739,0.113-1.488,0.007-2.227l0.077-23.93
	c0.008-0.281,0.017-0.838,0.008-1.644l0.841-0.987c5.752-6.761,12.186-14.32,20.157-22.486c10.017,3.073,20.492,4.594,31.07,4.594
	c21.594,0,43.597-6.311,62.883-18.539c9.468-6.002,19.169-13.102,29.657-21.704c3.267-2.68,3.743-7.5,1.063-10.767
	c-2.679-3.268-7.5-3.746-10.767-1.064c-10.002,8.204-19.208,14.946-28.146,20.612c-21.968,13.928-48.845,19.035-72.823,14.337
	c43.87-40.413,96.803-69.164,157.818-85.77c-5.591,4.94-11.055,9.906-16.351,14.769c-3.113,2.857-3.319,7.698-0.461,10.81
	c2.858,3.113,7.699,3.318,10.81,0.461c12.733-11.694,26.35-24.012,40.513-34.799c0.025-0.019,0.046-0.043,0.071-0.062
	c0.254-0.198,0.498-0.407,0.723-0.634c0.004-0.004,0.007-0.008,0.011-0.012c0.214-0.217,0.41-0.449,0.596-0.689
	c0.054-0.069,0.105-0.139,0.156-0.21c0.149-0.205,0.287-0.417,0.414-0.637c0.029-0.051,0.062-0.099,0.091-0.15
	c0.148-0.269,0.279-0.548,0.394-0.833c0.025-0.061,0.045-0.123,0.068-0.185c0.09-0.241,0.168-0.486,0.234-0.736
	c0.017-0.067,0.036-0.132,0.052-0.2c0.142-0.607,0.21-1.235,0.198-1.877c-0.001-0.083-0.006-0.166-0.011-0.249
	c-0.013-0.247-0.038-0.496-0.076-0.745c-0.008-0.055-0.007-0.11-0.017-0.166c-0.004-0.024-0.013-0.047-0.017-0.071
	c-0.006-0.036-0.008-0.071-0.015-0.107c-0.055-0.28-0.127-0.552-0.21-0.817c-0.015-0.047-0.034-0.091-0.05-0.138
	c-0.087-0.261-0.188-0.515-0.301-0.761c-0.032-0.069-0.064-0.137-0.098-0.204c-0.126-0.254-0.263-0.501-0.415-0.737
	c-0.018-0.028-0.033-0.056-0.051-0.084c-0.175-0.264-0.366-0.515-0.57-0.753c-0.043-0.05-0.089-0.097-0.133-0.146
	c-0.167-0.185-0.341-0.36-0.524-0.527c-0.062-0.057-0.123-0.114-0.187-0.169c-0.231-0.197-0.469-0.384-0.721-0.552
	c-0.037-0.025-0.078-0.046-0.116-0.07c-0.225-0.145-0.458-0.276-0.698-0.396c-0.079-0.039-0.157-0.077-0.238-0.114
	c-0.263-0.121-0.531-0.23-0.807-0.322c-0.018-0.006-0.035-0.015-0.054-0.021c-0.009-0.003-0.019-0.006-0.028-0.009
	c-0.02-0.006-0.04-0.012-0.059-0.018c-26.973-8.636-57.176-12.758-85.057-11.613c-31.905,1.313-60.585,9.405-82.939,23.401
	c-17.089,10.699-31.16,26.077-39.623,43.301c-8.912,18.137-10.95,36.87-6.023,54.493c-4.706,4.816-8.927,9.457-12.723,13.779
	c-4.107-19.551-14.897-49.158-43.093-77.604c-2.975-3.001-7.82-3.022-10.82-0.047c-3.001,2.975-3.022,7.818-0.048,10.82
	c42.015,42.385,41.159,88.207,41.147,88.643c-0.003,0.083-0.004,0.165-0.005,0.248l-0.024,7.48
	c-4.505-4.018-9.676-8.428-15.428-13.026c2.025-13.963-1.31-28.1-9.791-41.143c-8.091-12.443-20.309-22.946-34.404-29.574
	c-18.325-8.618-40.893-12.157-65.268-10.234c-21.189,1.672-43.65,7.533-63.27,16.506c-0.371,0.159-0.724,0.348-1.063,0.562
	c-0.028,0.018-0.056,0.036-0.084,0.054c-0.558,0.362-1.066,0.794-1.512,1.287c-0.022,0.024-0.043,0.049-0.064,0.074
	c-0.204,0.231-0.394,0.474-0.569,0.729c-0.013,0.019-0.027,0.036-0.039,0.055c-0.187,0.278-0.358,0.567-0.508,0.87
	c0,0.001-0.001,0.001-0.001,0.001c-0.138,0.279-0.255,0.569-0.359,0.865c-0.022,0.061-0.042,0.122-0.062,0.184
	c-0.086,0.266-0.158,0.539-0.215,0.818c-0.009,0.043-0.021,0.084-0.029,0.127c-0.051,0.275-0.09,0.555-0.112,0.84
	c-0.003,0.037,0,0.074-0.003,0.111c-0.001,0.023-0.007,0.046-0.008,0.069c-0.003,0.053,0.004,0.105,0.003,0.157
	c-0.008,0.258-0.003,0.513,0.014,0.766c0.005,0.078,0.01,0.157,0.018,0.235c0.064,0.642,0.208,1.261,0.423,1.85
	c0.022,0.061,0.048,0.121,0.071,0.182c0.096,0.244,0.204,0.482,0.325,0.713c0.029,0.057,0.056,0.114,0.086,0.169
	c0.149,0.271,0.312,0.532,0.492,0.782c0.034,0.047,0.072,0.091,0.107,0.137c0.153,0.203,0.316,0.397,0.489,0.584
	c0.059,0.064,0.118,0.127,0.179,0.189c0.216,0.218,0.44,0.427,0.681,0.619c0.002,0.001,0.003,0.003,0.004,0.004
	c0.252,0.2,0.521,0.379,0.799,0.546c0.026,0.016,0.048,0.035,0.074,0.051c12.775,7.503,25.349,16.558,37.51,25.313
	c17.264,12.43,35.116,25.284,54.536,34.551c12.591,6.008,26.145,9.014,39.462,9.014c11.153,0,22.137-2.116,32.249-6.338
	c10.66,8.504,19.232,16.335,25.199,22.113l-0.115,35.966c-23.288,3.737-43.587,18.239-54.605,39.363
	c-2.694-0.287-5.379-0.422-8.059-0.424c-29.314,0.056-55.9,17.35-68.039,43.638c-1.85-0.192-3.743-0.27-5.553-0.282
	c-14.327,0.027-27.688,5.653-37.633,15.618l-8.263-5.53c-14.511-9.754-34.314-5.926-44.147,8.527
	c-8.989,13.209-6.757,31.171,5.19,41.78c0.076,0.068,0.154,0.133,0.233,0.198l101.517,83.142
	c10.527,8.586,23.182,14.256,36.597,16.398c0.038,0.006,0.077,0.012,0.115,0.017l157.106,22.647l-0.047-0.006
	c2.457,0.389,4.938,0.582,7.437,0.582c4.619,0,9.295-0.662,13.975-1.983c0.099-0.028,0.197-0.058,0.295-0.09l106.735-34.834v13.305
	c0,9.241,7.518,16.758,16.758,16.758h43.83c9.24,0,16.758-7.517,16.758-16.758V282.676C512,273.435,504.482,265.918,495.242,265.918
	z M311.316,48.986c36.556-22.888,84.975-24.508,124.639-17.618c-63.912,17.244-119.367,47.345-165.335,89.778
	C267.418,92.447,287.18,64.098,311.316,48.986z M141.596,159.344c-18.182-8.677-35.468-21.122-52.185-33.159
	c-3.63-2.613-7.303-5.25-11.007-7.873c41.837,7.353,79.825,22.877,113.394,46.347C175.69,168.688,157.468,166.917,141.596,159.344z
	 M80.312,103.113c27.188-6.823,59.216-8.256,85.537,4.121c17.964,8.447,34.113,25.891,35.822,45.662
	C165.779,127.549,125.115,110.874,80.312,103.113z M95.574,331.505c0.024,0,0.049,0,0.073,0c2.838,0,5.702,0.325,8.513,0.965
	c3.766,0.854,7.583-1.226,8.896-4.86c8.507-23.555,31.057-39.413,56.111-39.461c0.04,0,0.079,0,0.12,0
	c3.636,0,7.337,0.346,11.002,1.028c3.527,0.661,7.038-1.225,8.441-4.528c9.384-22.067,30.936-36.355,54.906-36.401
	c0.039,0,0.077,0,0.117,0c23.923,0,45.475,14.196,54.928,36.189c1.417,3.297,4.937,5.162,8.459,4.496
	c3.701-0.704,7.442-1.065,11.119-1.072c0.039,0,0.079,0,0.119,0c17.672,0,34.011,7.612,45.276,20.751
	c-0.049,0.02-0.097,0.043-0.145,0.063c-1.38,0.571-2.75,1.167-4.115,1.779c-0.25,0.112-0.502,0.216-0.751,0.329
	c-1.334,0.606-2.656,1.238-3.973,1.883c-0.274,0.134-0.552,0.259-0.825,0.395c-1.257,0.624-2.502,1.276-3.744,1.935
	c-0.319,0.169-0.644,0.329-0.962,0.5c-1.536,0.83-3.06,1.685-4.57,2.568c-3.914,2.289-7.914,4.377-11.993,6.261
	c-12.237,5.652-25.187,9.47-38.651,11.384l-81.766,9.414c-0.066,0.008-0.131,0.016-0.197,0.026
	c-21.368,3.023-37.783,20.133-39.92,41.609l-0.548,5.511l-21.462,1.204l-79.07-52.917C77.769,334.75,86.398,331.522,95.574,331.505z
	 M434.655,446.574l-111.33,36.334c-5.018,1.397-9.968,1.724-14.676,0.981l-157.254-22.671c-10.733-1.724-20.858-6.266-29.27-13.127
	L20.749,365.065c-6.124-5.53-7.246-14.806-2.597-21.639c5.114-7.516,15.415-9.506,22.974-4.426l102.524,68.613
	c0.331,0.221,0.678,0.412,1.036,0.578c0.121,0.056,0.247,0.093,0.371,0.143c0.242,0.097,0.484,0.194,0.734,0.266
	c0.152,0.044,0.308,0.07,0.462,0.104c0.23,0.051,0.458,0.101,0.692,0.131c0.166,0.021,0.333,0.027,0.501,0.037
	c0.153,0.009,0.304,0.034,0.458,0.034c0.142,0,0.285-0.004,0.429-0.012l30.554-1.714c0.028-0.001,0.055-0.007,0.083-0.008
	c0.03-0.002,0.06-0.001,0.09-0.003l20.677-1.63c4.212-0.332,7.358-4.016,7.026-8.228c-0.333-4.214-4.029-7.36-8.229-7.026
	l-11.557,0.911l0.291-2.923c1.433-14.406,12.423-25.89,26.743-27.959l81.764-9.414c0.066-0.008,0.131-0.016,0.197-0.026
	c19.966-2.824,38.915-9.42,56.322-19.602c1.193-0.698,2.399-1.371,3.611-2.032c0.416-0.227,0.835-0.447,1.253-0.669
	c0.796-0.424,1.596-0.84,2.4-1.247c0.509-0.258,1.019-0.516,1.531-0.768c0.739-0.364,1.483-0.715,2.227-1.065
	c0.529-0.249,1.055-0.504,1.587-0.746c1.114-0.507,2.236-0.997,3.362-1.474c0.698-0.295,1.402-0.577,2.105-0.861
	c0.545-0.22,1.09-0.441,1.638-0.654c0.734-0.286,1.471-0.565,2.21-0.838c0.518-0.192,1.037-0.378,1.557-0.563
	c0.76-0.271,1.52-0.543,2.285-0.801c14.272-4.813,29.292-7.313,44.458-7.313h12.136v134.333H434.655z M496.699,475.975
	c0,0.803-0.653,1.456-1.456,1.456h-43.83c-0.803,0-1.456-0.654-1.456-1.456l0,0V282.676l0,0c0-0.803,0.654-1.456,1.456-1.456h43.83
	c0.803,0,1.456,0.654,1.456,1.456L496.699,475.975L496.699,475.975z"/>
<g>
</g>
<g>
</g>
<g>
</g>
<g>
</g>
<g>
</g>
<g>
</g>
<g>
</g>
<g>
</g>
<g>
</g>
<g>
</g>
<g>
</g>
<g>
</g>
<g>
</g>
<g>
</g>
<g>
</g>
</svg>
