<?xml version="1.0" encoding="iso-8859-1"?>
<!-- Generator: Adobe Illustrator 19.0.0, SVG Export Plug-In . SVG Version: 6.00 Build 0)  -->
<svg version="1.1" id="Capa_1" xmlns="http://www.w3.org/2000/svg" xmlns:xlink="http://www.w3.org/1999/xlink" x="0px" y="0px"
	 viewBox="0 0 511.999 511.999" style="enable-background:new 0 0 511.999 511.999;" xml:space="preserve">
<path style="fill:#FEC37D;" d="M43.698,73.426l51.345,369.8c2.04,14.691,14.6,25.628,29.432,25.628h15.038
	c9.54,0,18.113-5.826,21.626-14.696l0,0c3.513-8.87,12.086-14.696,21.626-14.696h146.47c9.54,0,18.113,5.826,21.626,14.696l0,0
	c3.513,8.87,12.086,14.696,21.626,14.696h15.038c14.832,0,27.393-10.937,29.432-25.628l51.345-369.8H43.698z"/>
<path style="fill:#F9AE5D;" d="M418.302,73.426l-51.345,369.8c-0.002,0.018-0.005,0.036-0.008,0.054
	c-0.392,2.783-3.659,4.15-5.956,2.53c-3.6-2.54-6.482-6.068-8.189-10.293l0,0c-3.584-8.87-12.333-14.696-22.069-14.696h-149.47
	c-9.736,0-18.484,5.826-22.069,14.696l0,0c-3.584,8.87-12.333,14.696-22.069,14.696h-15.346c-12.947,0-24.192-8.006-28.478-19.515
	l1.74,12.529c2.04,14.691,14.6,25.628,29.432,25.628h15.038c9.54,0,18.113-5.826,21.626-14.696l0,0
	c3.513-8.87,12.085-14.696,21.626-14.696h146.47c9.54,0,18.113,5.826,21.626,14.696l0,0c1.228,3.102,3.086,5.82,5.376,8.058l0,0
	l0.421,0.391c0.691,0.642,1.417,1.246,2.179,1.802c0.003,0.002,0.005,0.004,0.008,0.006c0.822,0.596,1.681,1.137,2.575,1.621
	c0.14,0.076,0.28,0.15,0.421,0.223c0.313,0.161,0.627,0.317,0.948,0.464c0.3,0.138,0.602,0.272,0.908,0.398
	c0.218,0.089,0.438,0.171,0.658,0.254c0.272,0.102,0.548,0.198,0.824,0.291c0.18,0.06,0.358,0.123,0.539,0.178
	c0.435,0.133,0.876,0.25,1.32,0.357c0.161,0.039,0.323,0.074,0.486,0.11c0.411,0.09,0.825,0.17,1.243,0.238
	c0.083,0.014,0.166,0.031,0.25,0.044c0.498,0.075,1.001,0.13,1.506,0.172c0.178,0.015,0.355,0.027,0.533,0.039
	c0.485,0.031,0.971,0.05,1.456,0.05h15.012c14.832,0,27.393-10.937,29.432-25.628l51.345-369.8L418.302,73.426L418.302,73.426z"/>
<path style="fill:#F2A559;" d="M494.577,104.3H17.423c-5.48,0-9.923-4.443-9.923-9.923v-41.31c0-5.48,4.443-9.923,9.923-9.923
	h477.153c5.48,0,9.923,4.443,9.923,9.923v41.31C504.5,99.857,500.057,104.3,494.577,104.3z"/>
<path style="fill:#EA8F3D;" d="M494.577,43.143h-41.445V104.3h41.445c5.48,0,9.923-4.443,9.923-9.923v-41.31
	C504.5,47.586,500.057,43.143,494.577,43.143z"/>
<path style="fill:#F2A559;" d="M434.89,234.829c-25.554,0-25.554-10-51.109-10s-25.555,10-51.111,10c-25.554,0-25.554-10-51.108-10
	s-25.554,10-51.109,10c-25.556,0-25.556-10-51.111-10s-25.555,10-51.109,10c-25.558,0-25.558-10-51.116-10
	c-4.956,0-8.926,0.247-12.304,0.666l8.582,61.811c2.961-0.579,6.341-0.938,10.362-0.938c24.605,0,24.605,10,49.21,10
	c24.606,0,24.606-10,49.212-10c24.605,0,24.605,10,49.209,10c24.605,0,24.605-10,49.21-10c24.606,0,24.606,10,49.212,10
	c24.605,0,24.605-10,49.211-10c24.609,0,24.726,10.546,49.329,9.999c3.487-0.078,6.455-0.272,9.075-0.552l8.61-62.01
	C442.869,234.434,439.243,234.829,434.89,234.829z"/>
<path style="fill:#EA8F3D;" d="M434.89,234.829c-20.112,0-24.402-6.192-37.772-8.83l-8.472,61.018
	c15.568,2.284,18.812,9.815,39.703,9.35c3.487-0.078,6.455-0.272,9.075-0.552l8.61-62.01
	C442.869,234.434,439.243,234.829,434.89,234.829z"/>
<path d="M494.577,35.644H17.423C7.815,35.644,0,43.459,0,53.066v41.311c0,9.607,7.815,17.423,17.423,17.423h24.031l46.16,332.458
	c2.541,18.298,18.388,32.097,36.861,32.097h15.038c12.698,0,23.924-7.628,28.6-19.434c2.396-6.05,8.146-9.958,14.652-9.958h146.469
	c6.506,0,12.258,3.908,14.653,9.958c4.675,11.806,15.9,19.434,28.599,19.434h15.038c18.474,0,34.32-13.799,36.861-32.097
	l4.427-31.882c0.569-4.103-2.295-7.891-6.397-8.46c-4.103-0.572-7.89,2.295-8.46,6.397l-4.427,31.882
	c-1.517,10.923-10.977,19.159-22.004,19.159h-15.038c-6.506,0-12.258-3.908-14.653-9.957c-4.675-11.806-15.9-19.435-28.599-19.435
	H182.766c-12.698,0-23.924,7.629-28.599,19.435c-2.396,6.049-8.147,9.957-14.653,9.957h-15.038
	c-11.027,0-20.487-8.236-22.004-19.159l-20.59-148.288c0.616-0.02,1.233-0.039,1.873-0.039c10.837,0,15.909,2.062,21.781,4.448
	c6.403,2.603,13.661,5.552,27.429,5.552c13.77,0,21.027-2.949,27.431-5.552c5.872-2.387,10.944-4.448,21.781-4.448
	s15.909,2.062,21.781,4.448c6.403,2.603,13.661,5.552,27.429,5.552s21.025-2.949,27.429-5.552
	c5.872-2.387,10.944-4.448,21.781-4.448s15.909,2.062,21.781,4.448c6.403,2.603,13.661,5.552,27.431,5.552
	c13.769,0,21.026-2.949,27.43-5.552c5.872-2.387,10.944-4.448,21.781-4.448c10.647,0,15.698,2.1,21.547,4.53
	c6.208,2.581,13.204,5.489,25.994,5.489c0.638,0,1.29-0.008,1.956-0.022c0.075-0.002,0.144-0.005,0.218-0.007l-7.477,53.851
	c-0.569,4.103,2.295,7.891,6.397,8.46c0.35,0.049,0.697,0.072,1.041,0.072c3.684,0,6.897-2.717,7.419-6.47l34.43-247.972h24.031
	c9.607,0,17.423-7.815,17.423-17.423v-41.31C512,43.459,504.185,35.644,494.577,35.644z M436.29,249.451l-5.462,39.331
	c-0.854,0.038-1.734,0.066-2.646,0.087c-10.889,0.24-15.967-1.873-21.858-4.321c-6.404-2.662-13.663-5.68-27.304-5.68
	c-13.769,0-21.026,2.949-27.43,5.552c-5.872,2.387-10.944,4.448-21.781,4.448c-10.838,0-15.91-2.062-21.783-4.448
	c-6.402-2.603-13.66-5.552-27.429-5.552s-21.026,2.949-27.43,5.552c-5.872,2.387-10.944,4.448-21.78,4.448
	s-15.908-2.062-21.78-4.448c-6.403-2.603-13.661-5.552-27.43-5.552s-21.026,2.949-27.429,5.552
	c-5.873,2.387-10.945,4.448-21.783,4.448c-10.836,0-15.908-2.062-21.78-4.448c-6.403-2.603-13.661-5.552-27.43-5.552
	c-1.351,0-2.663,0.036-3.946,0.108l-6.469-46.593c1.205-0.036,2.461-0.055,3.775-0.055c11.364,0,16.676,2.078,22.826,4.484
	c6.607,2.585,14.097,5.516,28.291,5.516c14.192,0,21.681-2.931,28.288-5.516c6.148-2.406,11.459-4.484,22.821-4.484
	s16.674,2.078,22.822,4.484c6.607,2.585,14.096,5.516,28.288,5.516s21.681-2.931,28.288-5.516
	c6.148-2.406,11.459-4.484,22.821-4.484c11.361,0,16.672,2.078,22.82,4.484c6.606,2.585,14.095,5.516,28.287,5.516
	c14.193,0,21.682-2.931,28.289-5.516c6.148-2.406,11.46-4.484,22.822-4.484s16.673,2.078,22.821,4.484
	c6.607,2.585,14.095,5.516,28.287,5.516c0.811,0,1.608-0.013,2.394-0.037L436.29,249.451z M497,94.377
	c0,1.336-1.087,2.423-2.423,2.423H146.318c-4.143,0-7.5,3.357-7.5,7.5s3.357,7.5,7.5,7.5h309.084l-16.016,115.348
	c-1.44,0.115-2.927,0.181-4.497,0.181c-11.361,0-16.672-2.078-22.82-4.484c-6.607-2.585-14.096-5.516-28.288-5.516
	c-14.193,0-21.682,2.931-28.289,5.516c-6.148,2.406-11.46,4.484-22.822,4.484c-11.361,0-16.672-2.078-22.82-4.484
	c-6.606-2.585-14.095-5.516-28.287-5.516s-21.681,2.931-28.288,5.516c-6.148,2.406-11.459,4.484-22.821,4.484
	s-16.673-2.078-22.821-4.484c-6.607-2.585-14.096-5.516-28.289-5.516c-14.192,0-21.681,2.931-28.288,5.516
	c-6.148,2.406-11.459,4.484-22.821,4.484c-11.364,0-16.676-2.078-22.826-4.484c-6.607-2.585-14.097-5.516-28.291-5.516
	c-2.057,0-3.997,0.043-5.849,0.124l-14.67-105.654H92.25c4.143,0,7.5-3.357,7.5-7.5s-3.357-7.5-7.5-7.5H17.423
	c-1.336,0-2.423-1.087-2.423-2.423v-41.31c0-1.336,1.087-2.423,2.423-2.423h477.154c1.336,0,2.423,1.087,2.423,2.423V94.377z"/>
<g>
</g>
<g>
</g>
<g>
</g>
<g>
</g>
<g>
</g>
<g>
</g>
<g>
</g>
<g>
</g>
<g>
</g>
<g>
</g>
<g>
</g>
<g>
</g>
<g>
</g>
<g>
</g>
<g>
</g>
</svg>
