<?xml version="1.0" encoding="iso-8859-1"?>
<!-- Generator: Adobe Illustrator 19.0.0, SVG Export Plug-In . SVG Version: 6.00 Build 0)  -->
<svg version="1.1" id="Capa_1" xmlns="http://www.w3.org/2000/svg" xmlns:xlink="http://www.w3.org/1999/xlink" x="0px" y="0px"
	 viewBox="0 0 512 512" style="enable-background:new 0 0 512 512;" xml:space="preserve">
<path style="fill:#35E5E5;" d="M365.894,504.507H146.106c-9.081,0-16.701-6.847-17.668-15.876l-33.35-311.263h321.825
	L383.562,488.63C382.594,497.66,374.974,504.507,365.894,504.507z"/>
<g>
	<path style="fill:#21D8DE;" d="M363.295,177.368L329.944,488.63c-0.967,9.029-8.587,15.876-17.668,15.876h53.617
		c9.081,0,16.701-6.847,17.668-15.876l33.351-311.262L363.295,177.368L363.295,177.368z"/>
	<path style="fill:#21D8DE;" d="M426.007,259.469l8.684-81.043c0.412-3.842-2.599-7.193-6.463-7.193H83.773
		c-3.864,0-6.875,3.351-6.463,7.193l8.684,81.043c0.354,3.303,3.141,5.808,6.463,5.808h327.087
		C422.865,265.276,425.653,262.772,426.007,259.469z"/>
</g>
<path style="fill:#1BCECE;" d="M434.717,177.518c-0.005-0.171-0.01-0.343-0.029-0.511c-0.005-0.045-0.016-0.088-0.022-0.132
	c-0.024-0.185-0.052-0.37-0.091-0.55c-0.007-0.03-0.017-0.058-0.024-0.087c-0.046-0.194-0.097-0.385-0.159-0.572
	c-0.003-0.009-0.007-0.018-0.01-0.027c-0.07-0.205-0.149-0.407-0.239-0.603c-0.001-0.003-0.003-0.006-0.005-0.009
	c-1.021-2.223-3.265-3.794-5.91-3.794H384.09l-4.72,44.049c-1.798,16.785-15.964,29.514-32.845,29.514H92.457
	c-3.322,0-6.109-2.505-6.463-5.808l-7.031-65.623c-1.199,1.32-1.859,3.128-1.652,5.061l8.684,81.043
	c0.354,3.303,3.141,5.808,6.463,5.808h281.557h45.53c3.322,0,6.109-2.505,6.463-5.808l8.684-81.043
	c0.026-0.241,0.038-0.48,0.038-0.716C434.728,177.645,434.719,177.582,434.717,177.518z"/>
<path style="fill:#F2A559;" d="M319.1,47.195H192.9c-5.194,0-9.404-4.21-9.404-9.404V16.897c0-5.194,4.21-9.404,9.404-9.404h126.2
	c5.194,0,9.404,4.21,9.404,9.404v20.895C328.504,42.985,324.294,47.195,319.1,47.195z"/>
<path style="fill:#E89246;" d="M319.1,27.58H192.9c-5.194,0-9.404-4.21-9.404-9.404v19.615c0,5.194,4.21,9.404,9.404,9.404h126.2
	c5.194,0,9.404-4.21,9.404-9.404V18.177C328.504,23.37,324.294,27.58,319.1,27.58z"/>
<polygon style="fill:#21D8DE;" points="400.189,333.444 111.811,333.444 113.416,348.43 398.584,348.43 "/>
<polygon style="fill:#1BCECE;" points="344.966,348.43 398.584,348.43 400.189,333.444 346.572,333.444 "/>
<path d="M335.996,20.47v-3.573C335.996,7.58,328.417,0,319.1,0H192.9c-9.318,0-16.897,7.58-16.897,16.897v3.573
	C102.567,28.407,46.027,90.762,46.027,165.43v79.581c0,4.139,3.354,7.493,7.493,7.493s7.493-3.354,7.493-7.493v-13.488h14.451
	l3.08,28.742c0.762,7.129,6.743,12.505,13.913,12.505h5.318l0,0c0.001,0.008-0.001-0.008,0,0l23.214,216.66
	c1.379,12.867,12.178,22.57,25.118,22.57h219.787c12.94,0,23.74-9.703,25.118-22.571l3.371-31.459
	c0.441-4.114-2.537-7.807-6.652-8.248c-4.114-0.442-7.807,2.539-8.248,6.652l-3.371,31.458c-0.561,5.234-4.954,9.182-10.218,9.182
	H146.106c-5.264,0-9.657-3.948-10.218-9.181L120.952,348.43h270.096l-5.883,54.904c-0.441,4.114,2.537,7.807,6.652,8.248
	c0.271,0.029,0.54,0.044,0.807,0.044c3.781,0,7.03-2.853,7.441-6.696l14.161-132.161h5.317c7.17,0,13.151-5.376,13.913-12.503
	l3.08-28.744h14.451v13.488c0,4.139,3.354,7.493,7.493,7.493s7.493-3.354,7.493-7.493v-79.581
	C465.973,90.761,409.433,28.406,335.996,20.47z M190.989,16.897c0-1.054,0.858-1.91,1.911-1.91h126.2c1.054,0,1.91,0.857,1.91,1.91
	v20.895c0,1.054-0.857,1.911-1.91,1.911H192.9c-1.054,0-1.91-0.858-1.91-1.911V27.358c0-0.006-0.001-0.013-0.001-0.019V16.897
	L190.989,16.897z M418.651,257.784c-0.001,0.01,0,0-0.001,0.01L418.651,257.784L418.651,257.784
	C418.633,257.783,418.669,257.784,418.651,257.784H190.913c-4.139,0-7.493,3.354-7.493,7.493s3.354,7.493,7.493,7.493h208.243
	l-6.502,60.674H119.346l-6.501-60.674h24.097c4.139,0,7.493-3.354,7.493-7.493s-3.354-7.493-7.493-7.493H93.349
	c-0.016,0,0.017,0,0,0l0,0l-8.472-79.058h342.245L418.651,257.784z M450.987,216.536h-12.845l3.998-37.312
	c0.422-3.943-0.855-7.895-3.505-10.844c-2.65-2.949-6.444-4.641-10.409-4.641H83.773c-3.965,0-7.759,1.692-10.409,4.641
	c-2.65,2.948-3.927,6.901-3.505,10.843l3.999,37.313H61.013v-51.107c0-66.447,49.893-122.026,114.99-129.877v2.239
	c0,9.318,7.58,16.897,16.897,16.897h126.2c9.318,0,16.897-7.58,16.897-16.897v-2.239c65.097,7.85,114.99,63.43,114.99,129.877
	L450.987,216.536L450.987,216.536z"/>
<g>
</g>
<g>
</g>
<g>
</g>
<g>
</g>
<g>
</g>
<g>
</g>
<g>
</g>
<g>
</g>
<g>
</g>
<g>
</g>
<g>
</g>
<g>
</g>
<g>
</g>
<g>
</g>
<g>
</g>
</svg>
