<?xml version="1.0" encoding="iso-8859-1"?>
<!-- Generator: Adobe Illustrator 19.0.0, SVG Export Plug-In . SVG Version: 6.00 Build 0)  -->
<svg version="1.1" id="Capa_1" xmlns="http://www.w3.org/2000/svg" xmlns:xlink="http://www.w3.org/1999/xlink" x="0px" y="0px"
	 viewBox="0 0 512 512" style="enable-background:new 0 0 512 512;" xml:space="preserve">
<path style="fill:#FEDD61;" d="M417.162,235.36L417.162,235.36c-11.562-11.562-30.308-11.562-41.87,0l-52.259,42.212V72.501
	c0-16.054-12.483-29.726-28.527-30.297c-16.843-0.599-30.686,12.878-30.686,29.587V37.25c0-16.351-13.255-29.606-29.606-29.606l0,0
	c-16.351,0-29.607,13.255-29.607,29.607v34.541c0-16.351-13.255-29.606-29.607-29.606l0,0c-16.351,0-29.606,13.255-29.606,29.606
	v40.931c0-16.351-13.255-29.606-29.607-29.606l0,0c-16.351,0-29.607,13.255-29.607,29.606l2.25,182.692
	c0.216,17.304,5.598,34.148,15.456,48.371l0,0c9.772,14.1,15.148,30.78,15.449,47.933l0.275,35.665l0.109,14.168l-2.918,52.314
	c-0.318,5.697,4.216,10.491,9.922,10.491h189.611c5.729,0,10.271-4.831,9.919-10.549l-3.221-52.256v-14.168v-15.073
	c0-8.929,2.971-17.604,8.445-24.659l85.684-110.42C428.724,265.668,428.724,246.922,417.162,235.36z"/>
<g>
	<path style="fill:#FFC931;" d="M323.034,441.551v-14.168H119.611l0.109,14.168l-2.918,52.314
		c-0.318,5.697,4.216,10.491,9.922,10.491h189.611c5.729,0,10.271-4.831,9.919-10.549L323.034,441.551z"/>
	<polygon style="fill:#FFC931;" points="119.721,433.398 119.674,427.383 119.611,427.383 119.665,434.389 	"/>
</g>
<path style="fill:#EFB72B;" d="M326.255,493.807l-3.221-52.256v-14.168H269.36v14.168l2.776,42.495
	c0.43,6.583-4.793,12.158-11.39,12.158H126.725c-4.671,0-8.553-3.215-9.634-7.506l-0.288,5.167
	c-0.318,5.697,4.216,10.491,9.922,10.491h135.937h53.674C322.065,504.357,326.607,499.526,326.255,493.807z"/>
<g>
	<path style="fill:#FFC931;" d="M375.292,235.36l-52.259,42.212c0,0-52.418,28.535-52.418,74.736L417.162,235.36
		C405.6,223.798,386.854,223.798,375.292,235.36z"/>
	<path style="fill:#FFC931;" d="M115.788,83.115V185.54c0,16.351,13.255,29.606,29.606,29.606l0,0V112.722
		C145.394,96.371,132.139,83.115,115.788,83.115z"/>
	<path style="fill:#FFC931;" d="M175.001,42.184V185.54c0,16.351,13.255,29.606,29.606,29.606l0,0V71.791
		C204.607,55.44,191.352,42.184,175.001,42.184z"/>
	<path style="fill:#FFC931;" d="M234.214,7.643L234.214,7.643V185.54c0,16.351,13.255,29.606,29.606,29.606l0,0V71.791V37.25
		C263.82,20.899,250.565,7.643,234.214,7.643z"/>
	<path style="fill:#FFC931;" d="M293.435,42.185c-0.003,0.003-0.005,0.005-0.008,0.008V185.54c0,16.351,13.255,29.606,29.606,29.606
		l0,0V72.501C323.034,56.091,309.991,42.169,293.435,42.185z"/>
</g>
<path style="fill:#FFE183;" d="M249.517,238.941H130.754c-7.968,0-14.401,6.512-14.302,14.48l0.513,41.637
	c0.145,11.66,3.733,22.889,10.375,32.473c13.028,18.798,20.126,40.821,20.527,63.688l0,0c0.061,7.856,6.447,14.193,14.303,14.193
	h87.347c7.9,0,14.303-6.404,14.303-14.303V253.244C263.82,245.345,257.417,238.941,249.517,238.941z"/>
<path d="M145.394,180.369c-4.221,0-7.643,3.422-7.643,7.643v32.859c0,4.222,3.422,7.643,7.643,7.643s7.643-3.422,7.643-7.643
	v-32.859C153.038,183.791,149.616,180.369,145.394,180.369z"/>
<path d="M157.662,447.086c-4.221,0-7.643,3.422-7.643,7.643v23.949c0,4.222,3.422,7.643,7.643,7.643
	c4.221,0,7.643-3.422,7.643-7.643v-23.949C165.306,450.507,161.884,447.086,157.662,447.086z"/>
<path d="M197.918,447.086c-4.221,0-7.643,3.422-7.643,7.643v23.949c0,4.222,3.422,7.643,7.643,7.643
	c4.221,0,7.643-3.422,7.643-7.643v-23.949C205.561,450.507,202.139,447.086,197.918,447.086z"/>
<path d="M238.173,447.086c-4.221,0-7.643,3.422-7.643,7.643v23.949c0,4.222,3.422,7.643,7.643,7.643
	c4.221,0,7.643-3.422,7.643-7.643v-23.949C245.816,450.507,242.394,447.086,238.173,447.086z"/>
<path d="M278.428,447.086c-4.221,0-7.643,3.422-7.643,7.643v23.949c0,4.222,3.422,7.643,7.643,7.643s7.643-3.422,7.643-7.643
	v-23.949C286.072,450.507,282.65,447.086,278.428,447.086z"/>
<path d="M422.567,229.956C422.567,229.955,422.567,229.955,422.567,229.956c-14.422-14.422-37.827-14.525-52.375-0.302
	l-39.515,31.918V72.5c0-20.213-16.104-37.231-35.898-37.934c-8.487-0.31-16.603,2.204-23.314,7.129V37.25
	c0-20.54-16.711-37.25-37.25-37.25s-37.25,16.71-37.25,37.25v4.472c-6.163-4.513-13.757-7.181-21.963-7.181
	c-20.54,0-37.25,16.71-37.25,37.25v10.862c-6.163-4.513-13.757-7.181-21.963-7.181c-20.54,0-37.25,16.71-37.249,37.344l2.25,182.693
	c0.236,18.898,6.051,37.096,16.817,52.63c8.942,12.902,13.814,28.017,14.088,43.637l0.275,35.665l0.108,13.925l-2.905,52.073
	c-0.268,4.804,1.474,9.563,4.78,13.06c3.306,3.495,7.962,5.501,12.774,5.501h189.611c4.831,0,9.499-2.018,12.808-5.538
	s5.037-8.303,4.74-13.126l-3.207-52.02v-13.933v-15.074c0-7.195,2.429-14.288,6.84-19.973l85.406-110.061
	C437.09,267.722,436.971,244.36,422.567,229.956z M318.007,495.991c-0.254,0.27-0.808,0.723-1.672,0.723h-189.61
	c-0.86,0-1.414-0.45-1.668-0.718c-0.253-0.269-0.671-0.846-0.624-1.704l2.919-52.315c0.009-0.161,0.013-0.323,0.012-0.485
	l-0.05-6.466H315.39v6.525c0,0.157,0.005,0.314,0.014,0.471l3.222,52.255C318.679,495.139,318.261,495.721,318.007,495.991z
	 M411.758,271.826c-0.226,0.226-0.438,0.466-0.634,0.719l-85.684,110.42c-6.48,8.353-10.049,18.774-10.049,29.345v7.43H127.196
	l-0.218-28.156c-0.328-18.725-6.141-36.759-16.81-52.152c-9.023-13.019-13.897-28.274-14.095-44.112l-2.249-182.597
	c0-12.11,9.853-21.963,21.963-21.963s21.963,9.853,21.963,21.963v21.261c0,4.222,3.422,7.643,7.643,7.643s7.643-3.422,7.643-7.643
	v-21.261V71.79c0-12.11,9.852-21.963,21.963-21.963s21.963,9.853,21.963,21.963v147.361c0,4.222,3.422,7.643,7.643,7.643
	c4.221,0,7.643-3.422,7.643-7.643V71.79V37.25c0-12.11,9.852-21.963,21.963-21.963s21.963,9.853,21.963,21.963v34.54v147.388
	c0,4.222,3.422,7.643,7.643,7.643s7.643-3.422,7.643-7.643V71.79c0-6.014,2.384-11.627,6.713-15.805
	c4.327-4.176,10.039-6.371,16.058-6.143c11.665,0.415,21.155,10.578,21.155,22.658v200.72
	c-12.947,8.082-52.418,36.236-52.418,79.087c0,4.222,3.422,7.643,7.643,7.643s7.643-3.422,7.643-7.643
	c0-16.933,7.959-33.412,23.657-48.979c12.192-12.089,24.647-18.975,24.78-19.048c0.051-0.028,0.096-0.061,0.146-0.09
	c0.076-0.044,0.15-0.091,0.226-0.138c0.234-0.145,0.457-0.301,0.67-0.467c0.032-0.025,0.067-0.043,0.098-0.068l52.259-42.212
	c0.21-0.169,0.411-0.35,0.602-0.54c8.564-8.563,22.498-8.562,31.061-0.001C420.321,249.328,420.321,263.262,411.758,271.826z"/>
<g>
</g>
<g>
</g>
<g>
</g>
<g>
</g>
<g>
</g>
<g>
</g>
<g>
</g>
<g>
</g>
<g>
</g>
<g>
</g>
<g>
</g>
<g>
</g>
<g>
</g>
<g>
</g>
<g>
</g>
</svg>
