<?xml version="1.0" encoding="iso-8859-1"?>
<!-- Generator: Adobe Illustrator 19.0.0, SVG Export Plug-In . SVG Version: 6.00 Build 0)  -->
<svg version="1.1" id="Capa_1" xmlns="http://www.w3.org/2000/svg" xmlns:xlink="http://www.w3.org/1999/xlink" x="0px" y="0px"
	 viewBox="0 0 512 512" style="enable-background:new 0 0 512 512;" xml:space="preserve">
<path style="fill:#B27959;" d="M7.485,392.019c0.033-3.615,0.217-8.138,0.686-13.628c0.678,5.844,4.189,11.12,9.6,13.919l0,0
	c44.4,22.966,93.167,36.251,143.081,38.979l0,0c32.384,1.77,64.857-0.927,96.506-8.014l49.513-11.087
	c24.263-5.433,49.05-8.174,73.914-8.174h110.178l0.791,49.343c0.007,0.444-0.032,0.878-0.104,1.301l0.104,6.517
	c0.063,3.923-3.1,7.137-7.024,7.137H353.463c-3.88,0-7.025-3.145-7.025-7.025v-7.818v-0.732c0-4.461-3.957-7.879-8.374-7.253
	c-7.918,1.122-15.795,2.554-23.61,4.304l-49.514,11.087c-27.79,6.222-56.323,9.378-84.806,9.378c-0.002,0-14.161-0.103-21.175-0.578
	c-61.186-4.146-102.375-15.334-142.738-45.3c-5.549-4.119-8.8-10.645-8.737-17.556C7.499,405.267,7.477,392.905,7.485,392.019z"/>
<path style="fill:#BC866C;" d="M491.754,453.357l-0.791-49.343H380.785c-24.863,0-49.651,2.741-73.914,8.174l-49.513,11.087
	c-31.649,7.087-64.122,9.783-96.506,8.014l0,0c-49.914-2.728-98.681-16.013-143.081-38.978l0,0c-5.411-2.799-8.922-8.074-9.6-13.919
	c-0.47,5.49-0.654,10.013-0.686,13.628c-0.008,0.886,0.014,13.248,0,14.802c-0.004,0.433,0.005,0.864,0.027,1.294
	c0.069-3.302,0.261-7.257,0.659-11.914c0.678,5.844,4.189,11.12,9.6,13.918l0,0c44.4,22.966,93.167,36.251,143.081,38.979l0,0
	c32.384,1.77,64.857-0.927,96.506-8.013l49.513-11.087c24.263-5.433,49.05-8.174,73.914-8.174h110.178l0.655,40.841
	c0.096-0.481,0.145-0.978,0.136-1.489l-0.104-6.517C491.722,454.235,491.761,453.801,491.754,453.357z"/>
<path style="fill:#42A094;" d="M8.269,376.445L8.269,376.445c2.831-17.55,16.475-31.376,33.985-34.438l93.055-17.639
	c28.652-5.431,59.459-20.528,78.319-42.77l0,0c22.899-27.004,35.467-61.26,35.467-96.665V51.085l234.406,33.272l-5.672,55.417
	c-6.154,54.83-3.47,110.235,7.209,164.366c5.247,26.598,8.512,60.822,5.923,102.866H380.785c-24.863,0-49.651,2.741-73.914,8.174
	l-49.513,11.087c-31.649,7.087-64.122,9.783-96.506,8.014l0,0c-49.914-2.728-98.681-16.013-143.081-38.979l0,0
	C10.863,391.73,7.03,384.124,8.269,376.445z"/>
<path style="fill:#2E897C;" d="M485.04,304.141c-10.679-54.131-13.364-109.536-7.209-164.366l5.672-55.417L433.1,77.203
	l-7.175,62.571c-6.154,54.83-3.47,110.235,7.209,164.366c5.247,26.598,8.512,60.822,5.924,102.866h51.905
	C493.552,364.963,490.287,330.739,485.04,304.141z"/>
<path style="fill:#4FB7A8;" d="M373.1,272.474c38.587,0,69.881-31.4,69.576-69.986c-0.175-22.164,0.957-44.234,3.407-66.12
	l5.525-56.538L281.024,55.617v129.315c0,4.395-0.16,8.778-0.478,13.139c-2.935,40.278,29.426,74.403,69.811,74.403H373.1z"/>
<path style="fill:#2E897C;" d="M220.254,75.108V53.887c0-7.158,6.16-12.762,13.286-12.088l259.976,24.593
	c6.731,0.637,11.646,6.649,10.931,13.373l-2.216,20.828c-0.703,6.61-6.591,11.426-13.209,10.804l-257.76-24.199
	C225.022,86.612,220.254,81.375,220.254,75.108z"/>
<path d="M379.477,138.34l33.903,3.614c0.269,0.028,0.537,0.043,0.802,0.043c3.777,0,7.022-2.851,7.432-6.691
	c0.438-4.11-2.538-7.796-6.648-8.234l-33.903-3.614c-4.103-0.429-7.796,2.538-8.234,6.648
	C372.391,134.215,375.368,137.901,379.477,138.34z"/>
<path d="M315.101,131.477l11.774,1.255c0.269,0.028,0.537,0.043,0.802,0.043c3.777,0,7.022-2.851,7.432-6.691
	c0.438-4.11-2.538-7.796-6.648-8.234l-11.774-1.255c-4.098-0.427-7.795,2.538-8.234,6.648
	C308.015,127.353,310.992,131.039,315.101,131.477z"/>
<path d="M407.816,161.082l-89.524-9.543c-4.1-0.43-7.796,2.538-8.234,6.648c-0.438,4.11,2.538,7.796,6.648,8.234l89.524,9.543
	c0.269,0.028,0.537,0.043,0.802,0.043c3.777,0,7.022-2.851,7.432-6.691C414.902,165.206,411.925,161.52,407.816,161.082z"/>
<path d="M400.665,195.091l-80.769-8.61c-4.102-0.433-7.796,2.538-8.234,6.648c-0.438,4.11,2.538,7.796,6.648,8.234l80.769,8.61
	c0.269,0.028,0.537,0.043,0.802,0.043c3.777,0,7.022-2.851,7.432-6.691C407.751,199.216,404.774,195.53,400.665,195.091z"/>
<path d="M393.514,229.101l-72.014-7.677c-4.104-0.427-7.796,2.538-8.234,6.648c-0.438,4.11,2.538,7.796,6.648,8.234l72.014,7.677
	c0.269,0.028,0.537,0.043,0.802,0.043c3.777,0,7.022-2.851,7.432-6.691C400.6,233.226,397.624,229.54,393.514,229.101z"/>
<path d="M507.567,66.058c-3.346-4.091-8.085-6.619-13.346-7.117L234.244,34.348c-5.494-0.515-10.978,1.312-15.056,5.022
	c-4.078,3.711-6.418,9.002-6.418,14.516v21.222c0,10.187,7.649,18.587,17.791,19.539l11.051,1.038v89.248
	c0,33.593-11.965,66.205-33.692,91.826c-16.347,19.278-44.704,34.704-74.005,40.258l-93.005,17.63
	c-20.612,3.629-36.696,19.941-40.029,40.607c-0.238,1.477-0.334,2.949-0.316,4.406c-0.338,4.383-0.529,8.52-0.563,12.293
	c-0.003,0.383-0.002,2.88,0,5.741c0.003,3.766,0.007,8.175,0,9.06c-0.084,9.269,4.313,18.103,11.759,23.63
	c39.273,29.157,80.402,42.266,146.693,46.758c7.291,0.495,21.552,0.595,21.681,0.595c29.027,0,58.111-3.215,86.441-9.559
	l49.513-11.088c7.493-1.678,15.185-3.082,22.866-4.174v8.371c0,8,6.508,14.508,14.508,14.508H484.73
	c3.919,0,7.592-1.539,10.341-4.332c2.749-2.794,4.228-6.49,4.165-10.408l-0.095-5.942c0.073-0.629,0.105-1.258,0.095-1.877
	l-0.75-46.775c0.598-10.048,0.893-20.052,0.864-29.748c-0.012-4.125-3.36-7.461-7.483-7.461c-0.008,0-0.015,0-0.023,0
	c-4.133,0.013-7.473,3.372-7.461,7.506c0.022,7.44-0.149,15.072-0.509,22.765h-103.09c-25.373,0-50.792,2.811-75.549,8.355
	l-49.513,11.086c-30.978,6.938-62.761,9.577-94.462,7.844c-49.181-2.687-96.301-15.524-140.052-38.153
	c-0.392-0.203-0.764-0.434-1.122-0.68c-0.048-0.033-0.097-0.065-0.145-0.098c-0.353-0.252-0.69-0.523-1.006-0.813
	c-0.023-0.021-0.045-0.042-0.067-0.063c-2.026-1.894-3.255-4.547-3.332-7.402c-0.001-0.053-0.009-0.105-0.012-0.158
	c-0.007-0.597,0.033-1.2,0.131-1.804c2.321-14.391,13.528-25.747,27.887-28.258c0.035-0.006,0.07-0.013,0.105-0.019l93.055-17.639
	c33.002-6.256,63.893-23.185,82.633-45.284c24.016-28.322,37.243-64.371,37.243-101.505V97.091l16.962,1.592v86.249
	c0,4.184-0.154,8.421-0.458,12.596c-1.558,21.375,5.667,41.84,20.344,57.624c14.656,15.763,35.406,24.805,56.929,24.805H373.1
	c20.718,0,40.164-8.099,54.754-22.805c14.547-14.662,22.468-34.096,22.305-54.723c-0.172-21.821,0.958-43.768,3.361-65.229
	c0.004-0.034,0.007-0.069,0.011-0.104l2.084-21.32l16.986,1.595l-2.207,21.568c-6.154,54.825-3.696,110.894,7.304,166.651
	c1.232,6.244,2.31,12.723,3.204,19.258c0.56,4.094,4.341,6.96,8.428,6.4c4.095-0.56,6.96-4.333,6.4-8.428
	c-0.933-6.824-2.06-13.596-3.348-20.128c-10.703-54.25-13.097-108.783-7.107-162.156l2.228-21.766l0.819,0.077
	c0.614,0.058,1.224,0.087,1.83,0.087c9.888,0,18.454-7.535,19.52-17.549l2.216-20.828C512.446,75.3,510.912,70.15,507.567,66.058z
	 M17.133,403.374c0.582,0.295,1.163,0.593,1.747,0.885c0.85,0.425,1.703,0.841,2.556,1.259c0.582,0.285,1.163,0.575,1.747,0.857
	c0.855,0.414,1.713,0.818,2.57,1.225c0.584,0.277,1.167,0.558,1.753,0.831c0.86,0.402,1.723,0.796,2.585,1.191
	c0.585,0.268,1.169,0.54,1.756,0.805c0.867,0.392,1.737,0.775,2.606,1.159c0.585,0.259,1.169,0.521,1.755,0.777
	c0.879,0.383,1.761,0.758,2.642,1.134c0.578,0.247,1.154,0.497,1.733,0.74c0.901,0.379,1.804,0.748,2.707,1.119
	c0.562,0.231,1.123,0.466,1.687,0.694c0.912,0.369,1.826,0.729,2.74,1.091c0.56,0.222,1.119,0.447,1.681,0.666
	c0.92,0.358,1.842,0.708,2.764,1.058c0.557,0.212,1.112,0.428,1.669,0.636c0.945,0.354,1.892,0.698,2.84,1.044
	c0.537,0.196,1.072,0.396,1.609,0.589c0.951,0.342,1.905,0.675,2.859,1.008c0.54,0.189,1.079,0.383,1.62,0.569
	c0.959,0.331,1.922,0.652,2.883,0.974c0.535,0.179,1.069,0.363,1.604,0.54c0.981,0.324,1.964,0.637,2.947,0.953
	c0.52,0.166,1.038,0.337,1.558,0.501c0.998,0.315,1.999,0.62,3,0.925c0.509,0.155,1.016,0.315,1.525,0.469
	c1.018,0.306,2.038,0.602,3.058,0.899c0.494,0.144,0.987,0.292,1.482,0.434c1.031,0.295,2.064,0.58,3.097,0.866
	c0.488,0.135,0.975,0.275,1.463,0.408c1.041,0.283,2.084,0.556,3.127,0.83c0.484,0.127,0.966,0.258,1.45,0.383
	c1.055,0.272,2.113,0.534,3.17,0.796c0.474,0.118,0.947,0.24,1.422,0.356c1.063,0.259,2.129,0.508,3.195,0.757
	c0.472,0.111,0.943,0.226,1.416,0.334c1.087,0.25,2.177,0.489,3.267,0.728c0.452,0.099,0.902,0.203,1.354,0.301
	c1.105,0.238,2.213,0.466,3.321,0.694c0.441,0.091,0.88,0.186,1.321,0.275c1.128,0.228,2.258,0.445,3.389,0.662
	c0.422,0.081,0.843,0.167,1.266,0.246c1.15,0.216,2.302,0.422,3.455,0.627c0.406,0.072,0.811,0.149,1.217,0.22
	c1.14,0.199,2.282,0.387,3.425,0.575c0.423,0.07,0.844,0.144,1.267,0.212c1.153,0.186,2.309,0.36,3.465,0.534
	c0.412,0.062,0.823,0.129,1.235,0.19c1.178,0.174,2.36,0.336,3.541,0.498c0.392,0.054,0.783,0.112,1.175,0.165
	c1.187,0.159,2.377,0.307,3.567,0.454c0.388,0.048,0.776,0.101,1.165,0.148c1.223,0.147,2.449,0.284,3.675,0.419
	c0.356,0.039,0.712,0.083,1.068,0.121c1.194,0.128,2.391,0.245,3.588,0.361c0.392,0.038,0.783,0.081,1.175,0.118
	c1.247,0.117,2.496,0.223,3.746,0.327c0.341,0.028,0.682,0.062,1.023,0.089c1.376,0.111,2.755,0.211,4.135,0.307
	c0.217,0.015,0.433,0.034,0.649,0.048c1.597,0.108,3.197,0.206,4.799,0.294c1.883,0.103,3.765,0.187,5.648,0.26
	c0.601,0.023,1.201,0.041,1.802,0.061c1.305,0.044,2.61,0.083,3.916,0.113c0.676,0.016,1.351,0.03,2.027,0.041
	c1.305,0.023,2.609,0.037,3.914,0.045c0.601,0.004,1.203,0.011,1.804,0.012c0.195,0,0.389,0.004,0.584,0.004
	c1.675,0,3.35-0.012,5.025-0.035c0.24-0.003,0.48-0.011,0.72-0.015c1.649-0.026,3.298-0.064,4.947-0.113
	c0.64-0.019,1.279-0.044,1.918-0.066c1.276-0.045,2.551-0.095,3.826-0.153c0.683-0.031,1.365-0.064,2.047-0.099
	c1.306-0.067,2.612-0.143,3.918-0.224c0.596-0.037,1.192-0.071,1.788-0.111c1.875-0.126,3.749-0.263,5.622-0.418
	c0.151-0.013,0.301-0.028,0.452-0.041c1.733-0.146,3.465-0.306,5.196-0.476c0.609-0.06,1.218-0.126,1.827-0.189
	c1.296-0.135,2.591-0.275,3.885-0.424c0.663-0.076,1.327-0.154,1.99-0.234c1.314-0.158,2.626-0.325,3.938-0.498
	c0.581-0.077,1.163-0.15,1.744-0.229c1.874-0.256,3.746-0.523,5.616-0.808c0.043-0.007,0.086-0.014,0.129-0.021
	c1.825-0.279,3.648-0.576,5.47-0.884c0.582-0.098,1.164-0.202,1.746-0.303c1.306-0.227,2.611-0.46,3.915-0.702
	c0.646-0.12,1.292-0.241,1.938-0.364c1.305-0.249,2.609-0.507,3.912-0.771c0.577-0.117,1.154-0.231,1.73-0.35
	c1.854-0.385,3.706-0.78,5.554-1.194l49.513-11.086c23.686-5.303,48.004-7.993,72.279-7.993h102.862l0.626,38.91
	c-0.078,0.455-0.113,0.917-0.106,1.378l0.097,6.052H353.921v-8.092c0-4.29-1.859-8.363-5.099-11.177
	c-3.247-2.819-7.556-4.088-11.807-3.484c-8.123,1.151-16.264,2.635-24.196,4.411l-49.513,11.088
	c-27.259,6.102-55.241,9.196-83.118,9.196c-0.139-0.001-13.997-0.105-20.722-0.56c-63.957-4.334-101.571-16.216-138.784-43.844
	c-3.619-2.686-5.755-6.977-5.715-11.478c0.005-0.543,0.006-2.389,0.005-4.61C15.691,402.649,16.413,403.009,17.133,403.374z
	 M438.641,135.588c-2.464,22.034-3.624,44.562-3.448,66.96c0.132,16.606-6.248,32.255-17.964,44.062
	c-11.759,11.853-27.431,18.381-44.129,18.381h-22.744c-17.379,0-34.134-7.3-45.968-20.029
	c-11.814-12.706-17.63-29.165-16.379-46.346c0.33-4.535,0.498-9.138,0.498-13.683v-84.844l0,0l152.207,14.29L438.641,135.588z
	 M497.005,78.972l-2.216,20.827c-0.268,2.524-2.533,4.387-5.068,4.147l0,0c-0.001,0,0,0-0.001,0l0,0L231.96,79.747
	c-2.408-0.226-4.223-2.221-4.223-4.639V53.886c0-1.792,0.954-2.928,1.523-3.446c0.519-0.472,1.578-1.214,3.113-1.214
	c0.149,0,0.303,0.008,0.461,0.022l259.977,24.593c1.249,0.118,2.374,0.718,3.168,1.69C496.773,76.502,497.138,77.725,497.005,78.972
	z"/>
<g>
</g>
<g>
</g>
<g>
</g>
<g>
</g>
<g>
</g>
<g>
</g>
<g>
</g>
<g>
</g>
<g>
</g>
<g>
</g>
<g>
</g>
<g>
</g>
<g>
</g>
<g>
</g>
<g>
</g>
</svg>
