<?xml version="1.0" encoding="iso-8859-1"?>
<!-- Generator: Adobe Illustrator 19.0.0, SVG Export Plug-In . SVG Version: 6.00 Build 0)  -->
<svg version="1.1" id="Capa_1" xmlns="http://www.w3.org/2000/svg" xmlns:xlink="http://www.w3.org/1999/xlink" x="0px" y="0px"
	 viewBox="0 0 512 512" style="enable-background:new 0 0 512 512;" xml:space="preserve">
<path style="fill:#D2E7F7;" d="M322.154,91.174V48.602H189.847v42.571c0,31.488-25.526,57.014-57.014,57.014l0,0
	c-17.02,0-30.818,13.798-30.818,30.818V457.51c0,25.957,21.042,46.999,46.999,46.999h213.973c25.957,0,46.999-21.042,46.999-46.999
	V179.006c0-17.02-13.797-30.818-30.818-30.818l0,0C347.679,148.188,322.154,122.662,322.154,91.174z"/>
<path style="fill:#BAD7F2;" d="M379.167,148.188L379.167,148.188c-31.488,0-57.014-25.526-57.014-57.014V48.602h-47.947v59.885
	c0,31.488,25.526,57.014,57.014,57.014l0,0c17.02,0,30.818,13.797,30.818,30.818v257.678c0,15.76-12.776,28.535-28.535,28.535
	H149.014c-25.957,0-46.999-21.042-46.999-46.999v21.976c0,25.957,21.042,46.999,46.999,46.999h202.458h11.515
	c25.957,0,46.999-21.042,46.999-46.999v-21.975V179.006C409.985,161.986,396.188,148.188,379.167,148.188z"/>
<path style="fill:#D18754;" d="M352.977,94.497H159.024c-8.217,0-14.878-6.661-14.878-14.878V22.37
	c0-8.217,6.661-14.878,14.878-14.878h193.952c8.217,0,14.878,6.661,14.878,14.878v57.249
	C367.854,87.836,361.193,94.497,352.977,94.497z"/>
<path style="fill:#BF7643;" d="M352.977,7.492h-36.561v63.693c0,7.634-6.189,13.823-13.823,13.823H159.024
	c-8.217,0-14.878-6.661-14.878-14.878v9.489c0,8.217,6.661,14.878,14.878,14.878h193.952c8.217,0,14.878-6.661,14.878-14.878V70.13
	V22.37C367.854,14.153,361.193,7.492,352.977,7.492z"/>
<path style="fill:#FFFFFF;" d="M356.051,408.681H155.949c-9.93,0-17.98-8.05-17.98-17.98V237.107c0-9.93,8.05-17.98,17.98-17.98
	h200.102c9.93,0,17.98,8.05,17.98,17.98v153.594C374.031,400.632,365.981,408.681,356.051,408.681z"/>
<path style="fill:#F4F3F2;" d="M356.051,219.128H304.69c9.93,0,17.98,8.05,17.98,17.98v153.594c0,9.93-8.05,17.98-17.98,17.98
	h51.361c9.93,0,17.98-8.05,17.98-17.98V237.107C374.031,227.177,365.981,219.128,356.051,219.128z"/>
<path style="fill:#80C56E;" d="M186.223,248.414c0,0,8.529,65.663,47.49,97.735c45.123,37.145,76.28,4.153,76.28,4.153
	s26.391-36.916-18.732-74.061C252.301,244.168,186.223,248.414,186.223,248.414z"/>
<path style="fill:#66AD66;" d="M291.261,276.24c-38.96-32.072-105.038-27.826-105.038-27.826l0,0
	c8.938,3.098,87.215,51.798,123.77,101.887C309.993,350.302,336.384,313.385,291.261,276.24z"/>
<path d="M379.168,140.697c-23.499,0-43.369-16.463-48.32-38.708h22.128c12.335,0,22.37-10.035,22.37-22.37V22.37
	c0-12.335-10.035-22.37-22.37-22.37H159.024c-12.335,0-22.37,10.035-22.37,22.37v57.249c0,12.334,10.035,22.37,22.37,22.37h22.128
	c-4.951,22.245-24.821,38.708-48.32,38.708c-21.124,0-38.309,17.185-38.309,38.309V457.51c0,30.046,24.444,54.49,54.49,54.49
	h213.973c30.046,0,54.49-24.444,54.49-54.49V179.006C417.477,157.882,400.292,140.697,379.168,140.697z M159.024,87.005
	c-4.073,0-7.386-3.314-7.386-7.386V22.37c0-4.073,3.314-7.387,7.386-7.387h193.952c4.073,0,7.386,3.314,7.386,7.387v57.249
	c0,4.073-3.314,7.386-7.386,7.386l0,0L159.024,87.005L159.024,87.005z M402.493,457.51c0,21.784-17.722,39.507-39.507,39.507
	H149.014c-21.784,0-39.507-17.722-39.507-39.507V179.006c0-12.862,10.464-23.326,23.326-23.326
	c31.748,0,58.428-23.071,63.595-53.691h119.145c5.167,30.621,31.847,53.691,63.595,53.691c12.862,0,23.326,10.464,23.326,23.326
	L402.493,457.51L402.493,457.51z"/>
<path d="M296.022,270.457c-17.244-14.195-41.087-23.474-70.867-27.578c-21.887-3.017-38.708-1.988-39.411-1.941
	c-2.068,0.133-3.988,1.115-5.304,2.715c-1.317,1.599-1.913,3.672-1.646,5.726c0.091,0.701,2.312,17.405,9.477,38.305
	c9.749,28.437,23.436,50.053,40.68,64.249c18.14,14.933,34.429,19.348,47.355,19.348c5.435,0,10.279-0.782,14.41-1.891
	c7.6-2.04,13.651-5.394,17.869-8.303c3.072,4.874,7.188,12.761,9.943,23.344c0.877,3.372,3.916,5.607,7.245,5.607
	c0.624,0,1.259-0.079,1.891-0.243c4.004-1.042,6.406-5.133,5.363-9.137c-3.902-14.995-10.156-25.487-14.043-30.982
	c2.352-4.679,5.377-12.375,6.038-21.959C326.826,301.605,310.246,282.166,296.022,270.457z M238.474,340.365
	c-25.079-20.644-36.884-57.025-41.795-77.607c23.795,14.675,73.648,49.348,102.975,86.34
	C290.245,355.439,268.066,364.725,238.474,340.365z M308.38,336.07c-26.535-31.953-66.389-61.835-93.006-79.252
	c21.481,2.146,50.581,8.293,71.126,25.206C312.541,303.462,311.908,324.273,308.38,336.07z"/>
<path d="M356.051,211.636H155.949c-14.045,0-25.472,11.427-25.472,25.472v51.894c0,4.137,3.354,7.492,7.492,7.492
	s7.492-3.354,7.492-7.492v-51.894c0-5.783,4.705-10.488,10.488-10.488h200.102c5.784,0,10.488,4.705,10.488,10.488v51.894
	c0,4.137,3.354,7.492,7.492,7.492s7.492-3.354,7.492-7.492v-51.894C381.523,223.063,370.096,211.636,356.051,211.636z"/>
<path d="M374.031,334.466c-4.138,0-7.492,3.354-7.492,7.492v48.744c0,5.783-4.705,10.488-10.488,10.488H155.949
	c-5.784,0-10.488-4.705-10.488-10.488v-48.744c0-4.137-3.354-7.492-7.492-7.492s-7.492,3.354-7.492,7.492v48.744
	c0,14.045,11.427,25.471,25.472,25.471h200.102c14.045,0,25.472-11.426,25.472-25.471v-48.744
	C381.523,337.82,378.169,334.466,374.031,334.466z"/>
<path d="M181.483,20.113c-4.138,0-7.492,3.354-7.492,7.492V69.6c0,4.137,3.354,7.492,7.492,7.492s7.492-3.354,7.492-7.492V27.605
	C188.975,23.467,185.621,20.113,181.483,20.113z"/>
<path d="M231.16,77.092c4.138,0,7.492-3.354,7.492-7.492V27.605c0-4.137-3.354-7.492-7.492-7.492s-7.492,3.354-7.492,7.492V69.6
	C223.669,73.738,227.022,77.092,231.16,77.092z"/>
<path d="M280.839,77.092c4.138,0,7.492-3.354,7.492-7.492V27.605c0-4.137-3.354-7.492-7.492-7.492s-7.492,3.354-7.492,7.492V69.6
	C273.347,73.738,276.701,77.092,280.839,77.092z"/>
<path d="M330.517,77.092c4.138,0,7.492-3.354,7.492-7.492V27.605c0-4.137-3.354-7.492-7.492-7.492s-7.492,3.354-7.492,7.492V69.6
	C323.025,73.738,326.379,77.092,330.517,77.092z"/>
<g>
</g>
<g>
</g>
<g>
</g>
<g>
</g>
<g>
</g>
<g>
</g>
<g>
</g>
<g>
</g>
<g>
</g>
<g>
</g>
<g>
</g>
<g>
</g>
<g>
</g>
<g>
</g>
<g>
</g>
</svg>
