<?xml version="1.0" encoding="iso-8859-1"?>
<!-- Generator: Adobe Illustrator 19.0.0, SVG Export Plug-In . SVG Version: 6.00 Build 0)  -->
<svg version="1.1" id="Capa_1" xmlns="http://www.w3.org/2000/svg" xmlns:xlink="http://www.w3.org/1999/xlink" x="0px" y="0px"
	 viewBox="0 0 512.002 512.002" style="enable-background:new 0 0 512.002 512.002;" xml:space="preserve">
<g>
	<polygon style="fill:#BF7643;" points="441.897,504.5 410.921,492.018 379.949,504.5 348.977,492.018 318.005,504.5 
		287.034,492.018 256.067,504.5 225.101,492.018 194.13,504.5 163.159,492.018 132.19,504.5 101.222,492.018 70.605,504.359 
		69.9,504.357 50.239,496.434 62.135,434.971 450.024,434.971 461.764,496.495 	"/>
	<polygon style="fill:#BF7643;" points="441.897,7.501 410.921,19.983 379.949,7.501 348.977,19.983 318.005,7.501 287.034,19.983 
		256.067,7.501 225.101,19.983 194.13,7.501 163.159,19.983 132.19,7.501 101.222,19.983 70.605,7.641 69.9,7.644 50.239,15.568 
		62.135,77.031 450.024,77.031 461.764,15.506 	"/>
</g>
<path style="fill:#DB976A;" d="M452.617,61.88L452.617,61.88L452.617,61.88H59.385c0,0-15.479,61.483-15.479,196.486
	c0,130.315,15.479,191.796,15.479,191.796h393.231l0,0l0,0c0.003-0.01,15.479-61.492,15.479-191.796
	C468.096,123.374,452.62,61.889,452.617,61.88z"/>
<path style="fill:#CE824E;" d="M59.386,450.162c6.378,0,12.755,0,19.133,0c107.238,0,214.476,0,321.715,0
	c17.461,0,34.923,0,52.384,0c0,0,0.007-0.028,0.026-0.107c0.01-0.042,0.024-0.097,0.04-0.165c0.008-0.033,0.014-0.057,0.023-0.095
	c0.025-0.105,0.055-0.229,0.09-0.38c0.005-0.023,0.012-0.05,0.017-0.074c0.032-0.135,0.067-0.289,0.106-0.459
	c0.013-0.055,0.025-0.111,0.039-0.169c0.041-0.178,0.084-0.371,0.131-0.582c0.01-0.044,0.019-0.083,0.029-0.129
	c0.075-0.334,0.149-0.668,0.22-1.003c0.081-0.371,0.16-0.743,0.239-1.115c0.159-0.75,0.334-1.598,0.525-2.546
	c0.016-0.081,0.033-0.164,0.049-0.247c0.084-0.421,0.171-0.86,0.261-1.318c0.016-0.083,0.032-0.163,0.049-0.248
	c0.117-0.602,0.233-1.205,0.348-1.808c0.132-0.698,0.262-1.396,0.39-2.095c0.107-0.58,0.215-1.179,0.326-1.8
	c0.012-0.067,0.024-0.131,0.036-0.199c0.126-0.707,0.255-1.44,0.387-2.199c0.015-0.089,0.031-0.182,0.047-0.272
	c0.115-0.667,0.232-1.355,0.351-2.061c0.025-0.148,0.05-0.296,0.075-0.446c4.583-27.413,11.674-84.073,11.674-172.28
	c0-134.992-15.476-196.476-15.479-196.487c-16.619,0-33.237,0-49.856,0c-0.843,0-1.685,0-2.528,0
	c0.003,0.01,15.479,61.494,15.479,196.486c0,47.744-2.078,86.247-4.711,115.873c-2.712,30.517-28.244,53.923-58.882,53.923
	c-98.983,0-197.966,0-296.948,0c0.902,5.563,1.722,10.056,2.395,13.497C58.678,447.352,59.386,450.162,59.386,450.162z"/>
<path style="fill:#FFFFFF;" d="M357.96,377.658H154.827c-11.096,0-20.091-8.995-20.091-20.091V154.434
	c0-11.096,8.995-20.091,20.091-20.091H357.96c11.096,0,20.091,8.995,20.091,20.091v203.133
	C378.051,368.663,369.056,377.658,357.96,377.658z"/>
<path style="fill:#F4F3F2;" d="M357.96,134.342h-50.519c11.096,0,20.091,8.995,20.091,20.091v203.133
	c0,11.096-8.995,20.091-20.091,20.091h50.519c11.096,0,20.091-8.995,20.091-20.091V154.434
	C378.051,143.338,369.056,134.342,357.96,134.342z"/>
<path style="fill:#80C56E;" d="M176.593,193.186c0,0,9.795,75.403,54.535,112.233c51.817,42.655,87.596,4.769,87.596,4.769
	s30.306-42.392-21.511-85.048C252.473,188.31,176.593,193.186,176.593,193.186z"/>
<path style="fill:#66AD66;" d="M297.213,225.14c-44.74-36.83-120.62-31.954-120.62-31.954l0,0
	c10.264,3.558,100.154,59.482,142.131,117.002C318.724,310.188,349.03,267.794,297.213,225.14z"/>
<path d="M154.826,385.158H357.96c15.214,0,27.591-12.377,27.591-27.591v-71.753c0-4.142-3.357-7.5-7.5-7.5s-7.5,3.358-7.5,7.5
	v71.753c0,6.943-5.648,12.591-12.591,12.591H154.826c-6.943,0-12.591-5.648-12.591-12.591v-71.4c0-4.142-3.358-7.5-7.5-7.5
	s-7.5,3.358-7.5,7.5v71.4C127.235,372.781,139.613,385.158,154.826,385.158z"/>
<path d="M134.735,239.501c4.142,0,7.5-3.358,7.5-7.5v-77.567c0-6.943,5.648-12.591,12.591-12.591H357.96
	c6.942,0,12.591,5.648,12.591,12.591v78.38c0,4.142,3.357,7.5,7.5,7.5s7.5-3.358,7.5-7.5v-78.38
	c0-15.214-12.377-27.591-27.591-27.591H154.826c-15.214,0-27.591,12.377-27.591,27.591v77.567
	C127.235,236.143,130.593,239.501,134.735,239.501z"/>
<path d="M176.12,185.701c-0.257,0.016-0.512,0.046-0.764,0.088c-0.067,0.011-0.131,0.03-0.197,0.042
	c-0.176,0.034-0.351,0.07-0.524,0.116c-0.111,0.03-0.219,0.069-0.328,0.104c-0.125,0.04-0.25,0.077-0.372,0.124
	c-0.117,0.044-0.231,0.097-0.346,0.148c-0.111,0.049-0.223,0.095-0.332,0.149c-0.111,0.055-0.218,0.117-0.326,0.178
	c-0.109,0.061-0.218,0.121-0.324,0.187c-0.099,0.062-0.193,0.129-0.289,0.195c-0.111,0.077-0.221,0.154-0.328,0.237
	c-0.084,0.065-0.165,0.135-0.246,0.204c-0.112,0.095-0.223,0.192-0.33,0.294c-0.07,0.067-0.139,0.137-0.207,0.208
	c-0.109,0.113-0.216,0.228-0.318,0.348c-0.028,0.033-0.06,0.062-0.088,0.096c-0.032,0.039-0.059,0.082-0.09,0.122
	c-0.098,0.124-0.193,0.252-0.283,0.383c-0.056,0.081-0.11,0.162-0.162,0.244c-0.08,0.126-0.156,0.255-0.229,0.386
	c-0.053,0.096-0.105,0.193-0.154,0.291c-0.06,0.122-0.117,0.246-0.171,0.372c-0.049,0.113-0.095,0.227-0.139,0.343
	c-0.021,0.057-0.048,0.111-0.068,0.169c-0.023,0.066-0.037,0.133-0.058,0.199c-0.037,0.118-0.072,0.236-0.103,0.355
	c-0.035,0.134-0.066,0.268-0.094,0.402c-0.022,0.107-0.042,0.214-0.059,0.321c-0.024,0.15-0.043,0.299-0.057,0.449
	c-0.009,0.096-0.018,0.191-0.024,0.287c-0.01,0.161-0.013,0.32-0.012,0.48c0,0.09,0.001,0.18,0.005,0.27
	c0.007,0.164,0.021,0.326,0.038,0.489c0.006,0.057,0.006,0.114,0.013,0.171c0.104,0.8,2.64,19.876,10.833,43.771
	c11.128,32.459,26.73,57.116,46.373,73.286c20.596,16.955,39.059,21.965,53.688,21.965c6.133,0,11.593-0.881,16.253-2.132
	c17.273-4.637,27.45-15.256,27.875-15.706c0.011-0.012,0.021-0.026,0.032-0.039c0.214-0.229,0.412-0.469,0.593-0.72
	c0.007-0.01,0.017-0.019,0.024-0.029c0.359-0.503,8.825-12.53,10.057-30.374c2.037-29.517-16.769-51.545-32.902-64.827
	C255.515,181.1,179.427,185.486,176.12,185.701z M235.894,299.628c-30.16-24.828-43.728-69.232-48.995-92.406
	c27.041,16.396,87.681,58.748,121.546,101.826C297.994,316.49,271.51,328.947,235.894,299.628z M317.303,296.133
	c-31.318-38.194-80.967-74.877-111.824-94.813c25.134,2.043,61.641,8.761,86.967,29.61
	C324.353,257.195,321.949,282.711,317.303,296.133z"/>
<path d="M460.45,449.597c2.832-12.645,15.146-74.365,15.146-191.231c0-121.113-12.326-183.288-15.15-195.937l8.685-45.518
	c0.672-3.52-1.24-7.023-4.564-8.362l-19.866-8.005c-1.799-0.725-3.81-0.725-5.606,0l-28.174,11.352L382.753,0.544
	c-1.799-0.725-3.809-0.725-5.607,0l-28.169,11.353L320.809,0.544c-1.799-0.725-3.809-0.725-5.607,0l-28.167,11.352L258.871,0.544
	c-1.798-0.725-3.808-0.726-5.608,0l-28.162,11.352L196.933,0.544c-1.799-0.725-3.809-0.725-5.607,0l-28.167,11.352L134.994,0.544
	c-1.799-0.726-3.809-0.726-5.607,0l-28.165,11.352L73.408,0.685c-0.897-0.362-1.81-0.564-2.825-0.544l-0.705,0.002
	c-0.954,0.002-1.898,0.187-2.783,0.544l-19.66,7.925c-3.33,1.342-5.242,4.856-4.56,8.381l8.741,45.159
	c-2.714,11.98-15.209,73.81-15.209,196.214c0,118.115,12.482,179.52,15.205,191.508l-8.736,45.134
	c-0.683,3.525,1.229,7.04,4.56,8.381l19.661,7.924c0.885,0.357,1.829,0.542,2.783,0.544l0.705,0.002
	c1.017,0.009,1.927-0.182,2.825-0.544l27.813-11.21l28.165,11.352c1.799,0.726,3.809,0.726,5.607,0l28.165-11.352l28.167,11.352
	c1.799,0.726,3.809,0.725,5.607,0l28.167-11.352l28.163,11.352c1.798,0.725,3.809,0.725,5.608,0l28.163-11.352l28.167,11.352
	c1.799,0.726,3.809,0.725,5.607,0l28.168-11.353l28.169,11.353c1.799,0.725,3.809,0.725,5.607,0l28.168-11.353l28.174,11.353
	c0.898,0.362,1.851,0.543,2.803,0.543s1.904-0.181,2.804-0.543l19.865-8.005c3.324-1.339,5.236-4.843,4.564-8.362L460.45,449.597z
	 M70.255,15.587l28.164,11.352c1.799,0.726,3.809,0.726,5.607,0l28.165-11.352l28.165,11.352c1.799,0.726,3.809,0.726,5.607,0
	l28.167-11.352l28.167,11.352c1.799,0.726,3.809,0.726,5.607,0l28.163-11.352l28.164,11.352c1.799,0.726,3.809,0.726,5.607,0
	l28.167-11.352l28.168,11.352c1.799,0.726,3.809,0.725,5.607,0l28.169-11.353l28.168,11.352c1.799,0.726,3.81,0.725,5.606,0
	l28.174-11.353l11.344,4.571l-6.53,34.222H65.39l-6.613-34.167L70.255,15.587z M51.407,258.366
	c0-97.666,8.506-162.96,13.962-188.987h381.2l0,0c3.625,18.047,14.027,79.404,14.027,188.986c0,94.249-8.501,158.417-13.958,184.296
	H65.421C61.786,424.781,51.407,364.412,51.407,258.366z M441.898,496.414l-28.174-11.353c-0.899-0.362-1.851-0.543-2.803-0.543
	s-1.904,0.181-2.804,0.543l-28.168,11.353l-28.169-11.353c-1.799-0.725-3.809-0.725-5.607,0l-28.168,11.353l-28.167-11.352
	c-1.799-0.726-3.809-0.726-5.607,0l-28.164,11.352l-28.163-11.352c-1.799-0.726-3.809-0.726-5.607,0l-28.167,11.352l-28.167-11.352
	c-1.799-0.726-3.809-0.726-5.607,0l-28.165,11.352l-28.165-11.352c-1.799-0.726-3.809-0.726-5.607,0l-28.164,11.352l-11.478-4.626
	l6.606-34.126h381.335l0,0l6.523,34.182L441.898,496.414z"/>
<g>
</g>
<g>
</g>
<g>
</g>
<g>
</g>
<g>
</g>
<g>
</g>
<g>
</g>
<g>
</g>
<g>
</g>
<g>
</g>
<g>
</g>
<g>
</g>
<g>
</g>
<g>
</g>
<g>
</g>
</svg>
