<?xml version="1.0" encoding="iso-8859-1"?>
<!-- Generator: Adobe Illustrator 19.0.0, SVG Export Plug-In . SVG Version: 6.00 Build 0)  -->
<svg version="1.1" id="Capa_1" xmlns="http://www.w3.org/2000/svg" xmlns:xlink="http://www.w3.org/1999/xlink" x="0px" y="0px"
	 viewBox="0 0 512 512" style="enable-background:new 0 0 512 512;" xml:space="preserve">
<path style="fill:#DB976A;" d="M301.057,502.995c-6.678,2.929-14.464,1.781-19.957-3.015
	c-15.168-13.243-30.783-39.721-35.498-80.301c-4.089-35.191-3.746-67.625-3.729-68.988l20.314,0.195c0,0,4.657,80.25,44.712,121.536
	C316.126,481.93,313.19,497.673,301.057,502.995L301.057,502.995z"/>
<path style="fill:#D18754;" d="M306.9,472.422c-40.055-41.286-44.712-121.536-44.712-121.536l-10.135-0.097
	c0,0-3.906,94.404,49.004,152.206C313.19,497.673,316.126,481.93,306.9,472.422z"/>
<path id="SVGCleanerId_0" style="fill:#80C56E;" d="M454.131,247.079c5.623-4.692,17.208-15.591,23.931-30.589
	c14.042-31.325,20.384-70.877,20.384-70.877s-31.204-2.792-60.797,7.524c-15.395,5.367-30.354,14.281-40.256,28.981
	c-21.672,32.172-19.899-4.181-29.546-1.052c-15.899,5.156-28.799,29.048-44.506,56.586c0,0,2.881-35.141,12.495-54.583
	c42.266-85.478-8.29-31.659-9.145-58.675c0,0,3.928-60.175-7.513-56.265c-9.512,3.251-22.831,20.201-28.368,5.057
	c-21.086-57.667-34.723-65.763-34.723-65.763h-0.174c0,0-13.637,8.096-34.723,65.763c-5.537,15.144-18.857-1.806-28.368-5.057
	c-11.441-3.91-7.513,56.265-7.513,56.265c-0.855,27.016-51.411-26.803-9.145,58.675c9.614,19.442,12.495,54.583,12.495,54.583
	c-15.707-27.538-28.606-51.43-44.506-56.586c-9.647-3.129-7.874,33.224-29.546,1.052c-9.903-14.7-24.862-23.615-40.256-28.981
	c-29.593-10.316-60.797-7.524-60.797-7.524s6.342,39.553,20.384,70.877c6.723,14.998,18.308,25.897,23.931,30.589
	c3.368,2.81,4.335,7.667,2.099,11.441c-5.493,9.267-27.324,4.351-25.679,11.984c2.094,9.721,21.767,35.532,39.633,46.999
	c35.249,22.622,47.869,24.032,47.869,24.032l-58.082,29.252c0,0-2.414,19.929,83.341,19.929c9.095,0,4.866,29.227,14.533,28.426
	c48.709-4.035,83.543-31.007,94.416-40.496c10.873,9.489,45.707,36.461,94.416,40.496c9.667,0.801,5.438-28.426,14.533-28.426
	c85.755,0,83.341-19.929,83.341-19.929l-58.082-29.252c0,0,12.62-1.409,47.869-24.032c17.866-11.466,37.539-37.278,39.633-46.999
	c1.644-7.633-20.186-2.717-25.679-11.984C449.795,254.746,450.763,249.889,454.131,247.079z"/>
<g>
	<path id="SVGCleanerId_0_1_" style="fill:#80C56E;" d="M454.131,247.079c5.623-4.692,17.208-15.591,23.931-30.589
		c14.042-31.325,20.384-70.877,20.384-70.877s-31.204-2.792-60.797,7.524c-15.395,5.367-30.354,14.281-40.256,28.981
		c-21.672,32.172-19.899-4.181-29.546-1.052c-15.899,5.156-28.799,29.048-44.506,56.586c0,0,2.881-35.141,12.495-54.583
		c42.266-85.478-8.29-31.659-9.145-58.675c0,0,3.928-60.175-7.513-56.265c-9.512,3.251-22.831,20.201-28.368,5.057
		c-21.086-57.667-34.723-65.763-34.723-65.763h-0.174c0,0-13.637,8.096-34.723,65.763c-5.537,15.144-18.857-1.806-28.368-5.057
		c-11.441-3.91-7.513,56.265-7.513,56.265c-0.855,27.016-51.411-26.803-9.145,58.675c9.614,19.442,12.495,54.583,12.495,54.583
		c-15.707-27.538-28.606-51.43-44.506-56.586c-9.647-3.129-7.874,33.224-29.546,1.052c-9.903-14.7-24.862-23.615-40.256-28.981
		c-29.593-10.316-60.797-7.524-60.797-7.524s6.342,39.553,20.384,70.877c6.723,14.998,18.308,25.897,23.931,30.589
		c3.368,2.81,4.335,7.667,2.099,11.441c-5.493,9.267-27.324,4.351-25.679,11.984c2.094,9.721,21.767,35.532,39.633,46.999
		c35.249,22.622,47.869,24.032,47.869,24.032l-58.082,29.252c0,0-2.414,19.929,83.341,19.929c9.095,0,4.866,29.227,14.533,28.426
		c48.709-4.035,83.543-31.007,94.416-40.496c10.873,9.489,45.707,36.461,94.416,40.496c9.667,0.801,5.438-28.426,14.533-28.426
		c85.755,0,83.341-19.929,83.341-19.929l-58.082-29.252c0,0,12.62-1.409,47.869-24.032c17.866-11.466,37.539-37.278,39.633-46.999
		c1.644-7.633-20.186-2.717-25.679-11.984C449.795,254.746,450.763,249.889,454.131,247.079z"/>
</g>
<g>
	<path style="fill:#66AD66;" d="M125.129,260.881c46.046,58.626,101.326,70.879,125.981,81.397l4.803-334.856
		c0,0-13.637,8.096-34.723,65.763c-5.537,15.144-18.857-1.806-28.368-5.057c-11.441-3.91-7.513,56.265-7.513,56.265
		c-0.855,27.016-51.411-26.803-9.145,58.675c9.614,19.443,12.495,54.583,12.495,54.583c-15.707-27.538-28.606-51.43-44.506-56.586
		c-9.647-3.129-7.874,33.224-29.546,1.052c-9.903-14.7-24.862-23.615-40.256-28.981c-29.593-10.316-60.797-7.524-60.797-7.524
		S84.624,209.309,125.129,260.881z"/>
	<path style="fill:#66AD66;" d="M454.131,247.078c5.623-4.692,17.208-15.591,23.931-30.589
		c14.042-31.325,20.384-70.877,20.384-70.877s-73.229,64.545-114.791,115.269C347.898,304.52,315.612,332.665,256,344.328v34.315
		c10.873,9.489,45.707,36.461,94.416,40.496c9.667,0.801,5.438-28.426,14.533-28.426c85.755,0,83.341-19.929,83.341-19.929
		l-58.082-29.252c0,0,12.62-1.409,47.869-24.032c17.866-11.466,37.539-37.278,39.633-46.999c1.644-7.633-20.186-2.717-25.679-11.984
		C449.795,254.746,450.763,249.889,454.131,247.078z"/>
</g>
<path d="M484.835,219.525c14.279-31.852,20.674-71.084,20.94-72.738c0.326-2.032-0.207-4.109-1.471-5.733
	c-1.264-1.624-3.146-2.651-5.196-2.834c-0.414-0.037-10.308-0.895-24.29,0.118c-4.088,0.297-7.162,3.852-6.865,7.94
	s3.85,7.166,7.94,6.865c5.331-0.387,10.029-0.475,13.693-0.446c-2.606,13.028-8.582,39.088-18.295,60.756
	c-6.232,13.903-17.401,24.161-21.914,27.926c-6.253,5.218-7.821,14.018-3.728,20.924c4.595,7.753,14.147,9.171,21.122,10.208
	c0.644,0.096,1.398,0.208,2.148,0.329c-4.943,9.78-20.204,29.017-34.849,38.415c-30.928,19.849-43.611,22.681-44.773,22.909
	c-3.299,0.252-5.87,2.65-6.533,5.903c-0.669,3.281,1.116,6.589,4.107,8.095l50.063,25.213c-6.924,3.938-25.152,9.917-71.984,9.917
	c-10.676,0-12.762,11.687-14.285,20.222c-0.422,2.366-1.069,5.988-1.77,8.036c-42.337-4.159-73.712-26.644-85.473-36.347V350.58
	c10.598-2.387,20.274-5.104,29.273-8.251c6.313,7.447,21.584,18.991,56.268,20.808c0.132,0.007,0.263,0.01,0.394,0.01
	c3.921,0,7.198-3.073,7.405-7.034c0.215-4.093-2.93-7.585-7.024-7.8c-20.807-1.09-32.664-6.026-38.947-9.976
	c-1.092-0.687-2.044-1.364-2.889-2.02c12.721-5.664,24.185-12.487,35.27-20.847c5.947-4.486,11.783-9.41,17.634-14.786
	c3.535,1.208,8.632,2.305,15.515,2.305c9.171,0,21.501-1.946,37.486-8.164c3.82-1.486,5.712-5.787,4.226-9.607
	s-5.788-5.714-9.607-4.226c-16.158,6.285-27.404,7.465-34.624,7.066c13.697-13.964,27.968-30.417,44.37-49.625
	c2.662-3.117,2.293-7.802-0.825-10.464c-3.115-2.66-7.801-2.293-10.464,0.825c-17.553,20.556-32.123,37.156-45.613,50.714
	c-3.789-12.258-1.43-28.563,0.148-34.94c0.989-3.974-1.428-7.998-5.402-8.992c-3.971-0.993-8.006,1.423-9.001,5.399
	c-0.326,1.304-7.193,29.536,2.736,49.593c-16.302,14.853-31.775,25.333-50.132,33.212c-3.557-12.936-1.751-35.142,0.632-48.001
	c0.748-4.029-1.911-7.902-5.94-8.652c-4.031-0.748-7.904,1.911-8.654,5.939c-0.74,3.979-6.251,35.395,0.063,56.009
	c-6.925,2.33-14.307,4.398-22.298,6.278v-88.014c30.283-16.156,43.293-44.502,43.854-45.755c1.678-3.74,0.006-8.132-3.734-9.81
	c-3.74-1.675-8.132-0.005-9.809,3.734c-0.105,0.234-9.385,20.461-30.312,34.537v-83.692c22.848-12.632,32.696-34.102,33.128-35.063
	c1.674-3.732,0.009-8.103-3.717-9.789c-3.726-1.687-8.119-0.029-9.816,3.692c-0.074,0.163-6.201,13.316-19.594,23.483V70.558
	c0-4.099-3.323-7.422-7.422-7.422s-7.422,3.323-7.422,7.422v58.118c-13.334-10.122-19.466-23.205-19.593-23.479
	c-1.684-3.726-6.067-5.39-9.801-3.715c-3.74,1.678-5.412,6.069-3.734,9.809c0.431,0.961,10.28,22.431,33.128,35.063v83.679
	c-20.799-14.036-30.212-34.304-30.318-34.54c-1.682-3.729-6.066-5.392-9.803-3.718c-3.74,1.678-5.412,6.07-3.734,9.81
	c0.562,1.253,13.572,29.598,43.854,45.755v88.014c-7.991-1.881-15.373-3.949-22.298-6.278c6.314-20.614,0.803-52.029,0.063-56.009
	c-0.75-4.03-4.625-6.692-8.654-5.939c-4.03,0.75-6.689,4.624-5.939,8.654c2.39,12.849,4.203,35.051,0.634,48
	c-18.359-7.879-33.832-18.36-50.135-33.214c9.929-20.057,3.062-48.289,2.736-49.593c-0.995-3.977-5.027-6.395-9.001-5.399
	c-3.977,0.995-6.394,5.025-5.399,9.001c1.592,6.364,3.976,22.658,0.155,34.941c-13.493-13.559-28.066-30.163-45.622-50.723
	c-2.661-3.117-7.346-3.485-10.464-0.825c-3.118,2.662-3.487,7.346-0.825,10.464c16.402,19.208,30.673,35.661,44.37,49.625
	c-7.219,0.399-18.466-0.781-34.624-7.066c-3.819-1.486-8.122,0.407-9.607,4.226c-1.486,3.82,0.406,8.121,4.226,9.607
	c15.988,6.219,28.315,8.164,37.486,8.164c6.882,0,11.98-1.097,15.515-2.305c5.851,5.376,11.686,10.3,17.634,14.786
	c11.086,8.361,22.552,15.185,35.276,20.85c-6.102,4.7-18.39,10.765-41.842,11.993c-4.094,0.215-7.238,3.707-7.024,7.8
	c0.207,3.961,3.484,7.034,7.405,7.034c0.131,0,0.262-0.003,0.394-0.01c34.683-1.817,49.955-13.361,56.268-20.808
	c8.999,3.147,18.675,5.864,29.273,8.251v24.623c-11.76,9.704-43.136,32.188-85.473,36.347c-0.701-2.048-1.348-5.67-1.77-8.036
	c-1.523-8.534-3.609-20.222-14.285-20.222c-46.833,0-65.06-5.979-71.984-9.917l50.063-25.213c2.991-1.506,4.776-4.814,4.107-8.095
	c-0.663-3.253-3.234-5.651-6.534-5.903c-0.968-0.189-9.92-2.172-30.686-14.265c-3.542-2.062-8.086-0.864-10.148,2.678
	c-2.063,3.542-0.863,8.086,2.678,10.148c7.489,4.362,13.637,7.55,18.613,9.881l-42.789,21.55c-2.218,1.117-3.731,3.27-4.03,5.736
	c-0.152,1.253-0.311,5.721,4.014,10.602c10.219,11.532,38.677,17.464,84.605,17.637c0.692,1.995,1.341,5.63,1.762,7.99
	c0.714,3.996,1.451,8.13,2.858,11.572c3.528,8.631,9.995,9.055,12.616,8.842c30.878-2.558,56.257-13.736,74.225-24.588
	c0.513,6.411,1.117,12.631,1.809,18.588c4.262,36.683,18.109,67.677,37.988,85.034c4.836,4.223,11.011,6.43,17.258,6.43
	c3.577,0,7.177-0.724,10.562-2.209c7.872-3.453,13.558-10.543,15.209-18.967c1.668-8.508-0.957-17.32-7.021-23.571
	c-16.511-17.019-26.697-41.422-32.908-63.111c17.681,10.124,41.687,20.007,70.484,22.393c0.273,0.022,0.588,0.038,0.938,0.038
	c2.998,0,8.518-1.15,11.678-8.881c1.407-3.442,2.144-7.575,2.858-11.572c0.421-2.36,1.07-5.995,1.762-7.99
	c45.928-0.173,74.386-6.105,84.605-17.637c4.325-4.881,4.166-9.349,4.014-10.602c-0.299-2.466-1.811-4.619-4.03-5.736
	l-42.814-21.562c7.929-3.704,18.812-9.567,33.271-18.847c18.975-12.177,40.243-39.439,42.88-51.682
	c0.621-2.884,0.082-5.745-1.517-8.055c-3.109-4.49-8.641-5.312-14.499-6.182c-3.096-0.46-9.54-1.417-10.534-3.094
	c-0.348-0.588-0.143-1.448,0.469-1.958C465.474,247.28,477.606,235.65,484.835,219.525z M301.574,477.59
	c2.719,2.803,3.852,6.586,3.108,10.379c-0.727,3.707-3.134,6.707-6.605,8.229c-4.053,1.778-8.8,1.067-12.095-1.809
	c-8.107-7.078-27.551-28.61-33.007-75.566c-0.967-8.318-1.759-17.17-2.362-26.367c1.969-1.455,3.774-2.848,5.387-4.142
	c1.499,1.202,3.156,2.487,4.963,3.831C266.878,418.633,278.648,453.959,301.574,477.59z"/>
<path d="M43.139,272.831c0.731-0.118,1.463-0.227,2.091-0.32c6.975-1.036,16.527-2.455,21.122-10.208
	c4.094-6.906,2.526-15.706-3.728-20.924c-4.513-3.765-15.681-14.024-21.914-27.926c-9.699-21.636-15.682-47.719-18.293-60.756
	c10.767-0.094,30.57,0.851,49.49,7.447c16.432,5.728,28.727,14.516,36.544,26.12c8.106,12.034,14.458,17.028,21.277,16.639
	c7.591-0.415,11.176-7.24,13.548-11.756c0.31-0.59,0.693-1.32,1.066-1.984c11.54,5.897,23.195,26.38,35.487,47.982l2.383,4.183
	c1.724,3.022,5.316,4.442,8.64,3.413s5.488-4.229,5.203-7.697c-0.123-1.493-3.114-36.789-13.239-57.266
	c-13.147-26.587-15.751-36.754-16.068-40.533c1.078,0.098,2.381,0.289,3.383,0.437c5.096,0.749,12.077,1.776,17.351-2.635
	c3.306-2.765,5.07-6.943,5.243-12.418c0.008-0.24,0.004-0.479-0.012-0.719c-1.252-19.18-0.637-38.91,1.257-46.893
	c1.187,0.747,2.458,1.616,3.71,2.472c6.238,4.265,13.31,9.097,20.816,6.691c4.391-1.408,7.642-4.923,9.661-10.446
	c12.831-35.092,22.721-51.016,27.885-57.73c5.051,6.608,14.915,22.508,27.794,57.73c2.02,5.523,5.27,9.038,9.661,10.446
	c7.508,2.409,14.579-2.426,20.817-6.691c1.257-0.859,2.534-1.732,3.725-2.481c1.918,7.925,2.514,27.375,1.243,46.902
	c-0.016,0.239-0.02,0.478-0.012,0.718c0.173,5.476,1.937,9.654,5.243,12.418c5.275,4.413,12.256,3.385,17.351,2.635
	c1.003-0.148,2.305-0.339,3.383-0.437c-0.317,3.779-2.921,13.946-16.068,40.533c-10.125,20.478-13.116,55.774-13.239,57.266
	c-0.284,3.468,1.879,6.668,5.203,7.697c3.323,1.027,6.916-0.39,8.64-3.413l2.383-4.183c12.292-21.602,23.946-42.085,35.487-47.982
	c0.373,0.664,0.756,1.394,1.066,1.984c2.372,4.516,5.957,11.341,13.548,11.756c6.813,0.387,13.17-4.604,21.277-16.639
	c5.602-8.316,13.562-15.234,23.658-20.561c3.625-1.913,5.014-6.402,3.101-10.028c-1.913-3.625-6.402-5.012-10.028-3.101
	c-12.286,6.483-22.057,15.027-29.042,25.397c-3.832,5.688-6.32,8.233-7.669,9.349c-0.587-0.949-1.244-2.198-1.705-3.076
	c-2.262-4.307-6.97-13.264-16.307-10.239c-10.532,3.416-19.223,12.515-27.853,25.153c1.354-4.653,2.939-9.067,4.785-12.8
	c19.119-38.665,19.997-50.165,15.054-56.962c-4.614-6.343-12.571-5.173-17.836-4.399c-1.61,0.236-4.134,0.609-5.466,0.52
	c-0.046-0.249-0.093-0.592-0.118-1.048c0.141-2.304,0.786-13.646,0.612-25.801c-0.376-26.352-4.205-32.875-8.286-35.999
	c-2.793-2.138-6.317-2.709-9.671-1.563c-3.742,1.279-7.349,3.745-10.837,6.13c-2.221,1.518-5.749,3.93-7.653,4.571
	c-0.143-0.27-0.316-0.65-0.506-1.169c-20.93-57.252-35.244-68.02-37.901-69.597C258.729,0.359,257.421,0,256.087,0h-0.174
	c-1.333,0-2.642,0.359-3.789,1.04c-2.657,1.577-16.972,12.346-37.905,69.596c-0.19,0.519-0.364,0.899-0.506,1.169
	c-1.904-0.64-5.432-3.052-7.653-4.571c-3.489-2.385-7.096-4.851-10.837-6.13c-3.353-1.148-6.878-0.577-9.671,1.563
	c-4.081,3.124-7.909,9.647-8.286,35.999c-0.174,12.156,0.471,23.499,0.612,25.802c-0.026,0.456-0.072,0.798-0.118,1.047
	c-1.326,0.092-3.856-0.283-5.466-0.52c-5.266-0.774-13.222-1.945-17.836,4.399c-4.944,6.797-4.065,18.297,15.054,56.962
	c1.846,3.734,3.431,8.147,4.785,12.8c-8.629-12.636-17.322-21.737-27.853-25.153c-9.335-3.028-14.045,5.933-16.307,10.239
	c-0.461,0.878-1.118,2.127-1.705,3.076c-1.349-1.117-3.837-3.661-7.669-9.349c-9.648-14.322-24.442-25.036-43.969-31.843
	c-30.751-10.72-62.563-8.029-63.902-7.908c-2.05,0.184-3.932,1.21-5.196,2.834s-1.797,3.701-1.471,5.733
	c0.265,1.654,6.661,40.886,20.94,72.738c7.228,16.125,19.361,27.755,25.949,33.251c0.611,0.51,0.818,1.37,0.469,1.958
	c-0.994,1.677-7.438,2.634-10.535,3.094c-5.857,0.87-11.39,1.692-14.499,6.182c-1.599,2.31-2.138,5.171-1.517,8.055
	c1.858,8.624,11.327,20.956,15.312,25.857c1.467,1.805,3.606,2.741,5.763,2.74c1.645,0,3.301-0.544,4.677-1.663
	c3.181-2.586,3.663-7.26,1.077-10.44C48.441,281.89,44.985,276.436,43.139,272.831z"/>
<g>
</g>
<g>
</g>
<g>
</g>
<g>
</g>
<g>
</g>
<g>
</g>
<g>
</g>
<g>
</g>
<g>
</g>
<g>
</g>
<g>
</g>
<g>
</g>
<g>
</g>
<g>
</g>
<g>
</g>
</svg>
