<?xml version="1.0" encoding="iso-8859-1"?>
<!-- Generator: Adobe Illustrator 19.0.0, SVG Export Plug-In . SVG Version: 6.00 Build 0)  -->
<svg version="1.1" id="Capa_1" xmlns="http://www.w3.org/2000/svg" xmlns:xlink="http://www.w3.org/1999/xlink" x="0px" y="0px"
	 viewBox="0 0 512 512" style="enable-background:new 0 0 512 512;" xml:space="preserve">
<g>
	<path style="fill:#FEDD61;" d="M289.986,41.486c0,18.77-15.216,192.056-33.986,192.056S222.014,60.256,222.014,41.486
		S237.23,7.5,256,7.5S289.986,22.716,289.986,41.486z"/>
	<path style="fill:#FEDD61;" d="M222.014,470.514c0-18.77,15.216-192.056,33.986-192.056s33.986,173.286,33.986,192.056
		S274.77,504.5,256,504.5S222.014,489.284,222.014,470.514z"/>
	<path style="fill:#FEDD61;" d="M431.716,128.348C418.444,141.62,285.153,253.392,271.88,240.12
		c-13.272-13.272,98.5-146.563,111.772-159.836s34.791-13.272,48.064,0S444.988,115.075,431.716,128.348z"/>
	<path style="fill:#FEDD61;" d="M80.284,383.652C93.556,370.38,226.847,258.608,240.12,271.88
		c13.272,13.272-98.5,146.563-111.772,159.836s-34.791,13.272-48.064,0S67.012,396.925,80.284,383.652z"/>
	<path style="fill:#FEDD61;" d="M470.514,289.986c-18.77,0-192.056-15.216-192.056-33.986s173.286-33.986,192.056-33.986
		S504.5,237.23,504.5,256S489.284,289.986,470.514,289.986z"/>
	<path style="fill:#FEDD61;" d="M41.486,222.014c18.77,0,192.056,15.216,192.056,33.986S60.256,289.986,41.486,289.986
		S7.5,274.77,7.5,256S22.716,222.014,41.486,222.014z"/>
	<path style="fill:#FEDD61;" d="M383.652,431.716C370.38,418.444,258.608,285.153,271.88,271.88
		c13.272-13.272,146.563,98.5,159.836,111.772s13.272,34.791,0,48.064S396.925,444.988,383.652,431.716z"/>
	<path style="fill:#FEDD61;" d="M128.348,80.284C141.62,93.556,253.392,226.847,240.12,240.12
		c-13.272,13.272-146.563-98.5-159.836-111.772s-13.272-34.791,0-48.064S115.075,67.012,128.348,80.284z"/>
</g>
<g>
	<path style="fill:#FFC931;" d="M368.554,70.25c-7.095,17.377-86.687,172.053-104.064,164.958s34.04-173.275,41.135-190.652
		s26.934-25.712,44.312-18.617S375.649,52.873,368.554,70.25z"/>
	<path style="fill:#FFC931;" d="M143.446,441.75c7.095-17.377,86.687-172.053,104.064-164.958
		c17.377,7.095-34.04,173.275-41.135,190.652s-26.934,25.712-44.312,18.617S136.351,459.127,143.446,441.75z"/>
	<path style="fill:#FFC931;" d="M466.932,204.243c-17.305,7.27-182.957,60.363-190.227,43.058s146.594-98.454,163.899-105.724
		c17.305-7.27,37.227,0.864,44.497,18.169C492.371,177.05,484.237,196.972,466.932,204.243z"/>
	<path style="fill:#FFC931;" d="M45.068,307.757c17.305-7.27,182.957-60.363,190.227-43.058S88.701,363.153,71.396,370.423
		s-37.227-0.864-44.497-18.169C19.629,334.95,27.763,315.028,45.068,307.757z"/>
	<path style="fill:#FFC931;" d="M441.75,368.554c-17.377-7.095-172.053-86.687-164.958-104.064
		c7.095-17.377,173.275,34.04,190.652,41.135c17.377,7.095,25.712,26.934,18.617,44.312S459.127,375.649,441.75,368.554z"/>
	<path style="fill:#FFC931;" d="M70.25,143.446c17.377,7.095,172.053,86.687,164.958,104.064S61.933,213.47,44.556,206.375
		s-25.712-26.934-18.617-44.312S52.873,136.351,70.25,143.446z"/>
	<path style="fill:#FFC931;" d="M307.757,466.932c-7.27-17.305-60.363-182.957-43.058-190.227s98.454,146.594,105.724,163.899
		s-0.864,37.227-18.169,44.497C334.95,492.371,315.028,484.237,307.757,466.932z"/>
	<path style="fill:#FFC931;" d="M204.243,45.068c7.27,17.305,60.363,182.957,43.058,190.227
		c-17.305,7.27-98.454-146.594-105.724-163.899c-7.27-17.305,0.864-37.227,18.169-44.497S196.972,27.763,204.243,45.068z"/>
</g>
<circle style="fill:#F99F3D;" cx="256" cy="256" r="91.25"/>
<g>
	<path style="fill:#FEC37D;" d="M263.943,232.874c-0.602,0-1.204-0.078-1.791-0.233c-3.741-0.985-5.984-4.832-4.999-8.574
		c0.812-3.081,3.601-5.232,6.783-5.232c0.602,0,1.204,0.078,1.791,0.232c3.741,0.986,5.983,4.832,4.999,8.574
		C269.915,230.723,267.126,232.874,263.943,232.874z"/>
	<path style="fill:#FEC37D;" d="M248.063,293.165c-0.602,0-1.204-0.078-1.791-0.232c-3.742-0.986-5.985-4.833-4.999-8.575
		c0.812-3.08,3.601-5.231,6.782-5.231c0.602,0,1.205,0.078,1.791,0.233c3.742,0.986,5.985,4.832,4.999,8.574
		C254.035,291.013,251.246,293.165,248.063,293.165z"/>
	<path style="fill:#FEC37D;" d="M286.149,270.959c-0.603,0-1.205-0.079-1.792-0.233c-1.813-0.478-3.331-1.632-4.274-3.251
		c-0.944-1.619-1.201-3.509-0.724-5.322c0.812-3.08,3.601-5.232,6.781-5.232c0.603,0,1.205,0.079,1.792,0.233
		c1.813,0.478,3.331,1.632,4.275,3.251s1.201,3.509,0.724,5.322C292.12,268.808,289.331,270.959,286.149,270.959z"/>
	<path style="fill:#FEC37D;" d="M225.859,255.08c-0.602,0-1.205-0.079-1.792-0.233c-3.742-0.985-5.984-4.832-4.999-8.573
		c0.812-3.081,3.601-5.232,6.783-5.232c0.602,0,1.205,0.079,1.792,0.233c3.742,0.985,5.984,4.832,4.999,8.573
		C231.83,252.928,229.041,255.08,225.859,255.08z"/>
	<path style="fill:#FEC37D;" d="M282.936,247.317c-2.49,0-4.815-1.335-6.068-3.484c-1.948-3.342-0.814-7.648,2.528-9.597
		c1.073-0.625,2.293-0.956,3.529-0.956c2.49,0,4.815,1.335,6.068,3.484c0.943,1.619,1.201,3.509,0.724,5.322
		c-0.478,1.813-1.633,3.331-3.252,4.275C285.392,246.987,284.172,247.317,282.936,247.317z"/>
	<path style="fill:#FEC37D;" d="M229.075,278.72c-2.49,0-4.815-1.335-6.068-3.484c-0.944-1.619-1.202-3.509-0.724-5.322
		s1.632-3.331,3.252-4.275c1.073-0.626,2.293-0.957,3.529-0.957c2.49,0,4.815,1.335,6.068,3.484
		c1.949,3.343,0.815,7.648-2.528,9.598C231.531,278.39,230.311,278.72,229.075,278.72z"/>
	<path style="fill:#FEC37D;" d="M271.707,289.949c-2.49,0-4.815-1.335-6.068-3.484c-0.943-1.619-1.201-3.509-0.724-5.322
		c0.478-1.813,1.633-3.331,3.252-4.275c1.073-0.625,2.293-0.956,3.529-0.956c2.49,0,4.815,1.335,6.068,3.484
		c1.948,3.343,0.814,7.648-2.528,9.597C274.163,289.619,272.943,289.949,271.707,289.949z"/>
	<path style="fill:#FEC37D;" d="M240.304,236.088c-2.49,0-4.815-1.335-6.068-3.484c-0.944-1.62-1.201-3.51-0.724-5.322
		c0.478-1.813,1.632-3.331,3.252-4.275c1.073-0.626,2.293-0.957,3.529-0.957c2.49,0,4.815,1.335,6.068,3.484
		c0.944,1.619,1.202,3.509,0.724,5.322s-1.632,3.331-3.251,4.275C242.76,235.758,241.54,236.088,240.304,236.088z"/>
	<circle style="fill:#FEC37D;" cx="256" cy="192.61" r="7.253"/>
	<circle style="fill:#FEC37D;" cx="256" cy="319.39" r="7.253"/>
	<circle style="fill:#FEC37D;" cx="319.39" cy="256" r="7.253"/>
	<circle style="fill:#FEC37D;" cx="192.61" cy="256" r="7.253"/>
	<circle style="fill:#FEC37D;" cx="300.82" cy="211.18" r="7.253"/>
	<circle style="fill:#FEC37D;" cx="211.18" cy="300.82" r="7.253"/>
	<circle style="fill:#FEC37D;" cx="300.82" cy="300.82" r="7.253"/>
	<circle style="fill:#FEC37D;" cx="211.18" cy="211.18" r="7.253"/>
	<circle style="fill:#FEC37D;" cx="279.64" cy="197.18" r="7.253"/>
	<circle style="fill:#FEC37D;" cx="232.36" cy="314.82" r="7.253"/>
	<circle style="fill:#FEC37D;" cx="314.82" cy="279.64" r="7.253"/>
	<circle style="fill:#FEC37D;" cx="197.18" cy="232.36" r="7.253"/>
	<circle style="fill:#FEC37D;" cx="314.3" cy="231.12" r="7.253"/>
	<circle style="fill:#FEC37D;" cx="197.7" cy="280.87" r="7.253"/>
	<circle style="fill:#FEC37D;" cx="280.87" cy="314.3" r="7.253"/>
	<circle style="fill:#FEC37D;" cx="231.12" cy="197.7" r="7.253"/>
</g>
<path d="M256,157.248c-54.452,0-98.752,44.3-98.752,98.752s44.3,98.752,98.752,98.752c54.453,0,98.753-44.3,98.753-98.752
	S310.453,157.248,256,157.248z M256,339.752c-46.181,0-83.752-37.571-83.752-83.752s37.571-83.752,83.752-83.752
	c46.182,0,83.753,37.571,83.753,83.752S302.182,339.752,256,339.752z"/>
<circle cx="256" cy="192.61" r="7.253"/>
<circle cx="256" cy="319.39" r="7.253"/>
<circle cx="319.39" cy="256" r="7.253"/>
<circle cx="192.61" cy="256" r="7.253"/>
<circle cx="300.82" cy="211.18" r="7.253"/>
<circle cx="211.18" cy="300.82" r="7.253"/>
<circle cx="300.82" cy="300.82" r="7.253"/>
<circle cx="211.18" cy="211.18" r="7.253"/>
<circle cx="279.64" cy="197.18" r="7.253"/>
<circle cx="232.36" cy="314.82" r="7.253"/>
<circle cx="314.82" cy="279.64" r="7.253"/>
<circle cx="197.18" cy="232.36" r="7.253"/>
<circle cx="314.3" cy="231.12" r="7.253"/>
<circle cx="197.7" cy="280.87" r="7.253"/>
<circle cx="280.87" cy="314.3" r="7.253"/>
<circle cx="231.12" cy="197.7" r="7.253"/>
<path d="M270.727,227.642c0.984-3.742-1.258-7.588-4.999-8.574c-0.587-0.154-1.189-0.232-1.791-0.232
	c-3.183,0-5.972,2.151-6.783,5.232c-0.985,3.742,1.258,7.588,4.999,8.574c0.587,0.155,1.189,0.233,1.791,0.233
	C267.126,232.874,269.915,230.723,270.727,227.642z"/>
<path d="M254.846,287.933c0.986-3.742-1.257-7.588-4.999-8.574c-0.586-0.155-1.189-0.233-1.791-0.233
	c-3.182,0-5.971,2.151-6.782,5.231c-0.986,3.742,1.257,7.588,4.999,8.575c0.586,0.154,1.189,0.232,1.791,0.232
	C251.246,293.165,254.035,291.013,254.846,287.933z"/>
<path d="M287.933,257.154c-0.587-0.155-1.189-0.233-1.792-0.233c-3.181,0-5.97,2.152-6.781,5.232
	c-0.478,1.813-0.221,3.703,0.724,5.322c0.943,1.619,2.462,2.774,4.274,3.251c0.587,0.155,1.189,0.233,1.792,0.233
	c3.182,0,5.971-2.152,6.782-5.232c0.478-1.813,0.221-3.703-0.724-5.322S289.745,257.631,287.933,257.154z"/>
<path d="M225.859,255.08c3.182,0,5.971-2.152,6.782-5.232c0.985-3.742-1.257-7.588-4.999-8.573c-0.587-0.155-1.19-0.233-1.792-0.233
	c-3.182,0-5.971,2.152-6.783,5.232c-0.985,3.742,1.257,7.588,4.999,8.573C224.654,255.001,225.257,255.08,225.859,255.08z"/>
<path d="M279.396,234.236c-3.343,1.949-4.477,6.255-2.528,9.597c1.253,2.149,3.578,3.484,6.068,3.484
	c1.236,0,2.456-0.331,3.529-0.957c1.619-0.944,2.774-2.462,3.252-4.275c0.478-1.813,0.22-3.703-0.724-5.322
	c-1.253-2.149-3.578-3.484-6.068-3.484C281.689,233.28,280.469,233.61,279.396,234.236z"/>
<path d="M232.605,277.764c3.343-1.949,4.477-6.254,2.528-9.598c-1.253-2.149-3.579-3.484-6.068-3.484
	c-1.236,0-2.456,0.331-3.529,0.957c-1.62,0.944-2.774,2.462-3.252,4.275s-0.22,3.703,0.724,5.322
	c1.252,2.149,3.578,3.484,6.068,3.484C230.311,278.72,231.531,278.39,232.605,277.764z"/>
<path d="M277.765,279.396c-1.253-2.149-3.578-3.484-6.068-3.484c-1.236,0-2.456,0.331-3.529,0.956
	c-1.619,0.944-2.774,2.462-3.252,4.275c-0.478,1.813-0.22,3.703,0.724,5.322c1.253,2.149,3.578,3.484,6.068,3.484
	c1.236,0,2.456-0.331,3.529-0.957C278.579,287.044,279.713,282.739,277.765,279.396z"/>
<path d="M247.085,230.857c0.478-1.813,0.22-3.703-0.724-5.322c-1.253-2.149-3.578-3.484-6.068-3.484
	c-1.236,0-2.456,0.331-3.529,0.957c-1.62,0.944-2.774,2.462-3.252,4.275c-0.478,1.813-0.221,3.703,0.724,5.322
	c1.253,2.149,3.578,3.484,6.068,3.484c1.236,0,2.456-0.331,3.529-0.956C245.453,234.188,246.608,232.67,247.085,230.857z"/>
<path d="M512,256c0-22.875-18.611-41.486-41.486-41.486c-2.142,0-6.022,0.178-11.222,0.514c4.954-1.714,8.599-3.052,10.546-3.871
	c21.089-8.861,31.039-33.227,22.178-54.317s-33.226-31.038-54.318-22.178c-0.835,0.351-1.957,0.858-3.335,1.506
	c1.128-1.037,2.025-1.887,2.655-2.517c16.175-16.175,16.175-42.495,0-58.67c-7.835-7.836-18.253-12.151-29.335-12.151
	c-11.081,0-21.5,4.315-29.335,12.151c-1.515,1.515-4.133,4.385-7.573,8.3c2.291-4.716,3.922-8.24,4.721-10.195
	c4.189-10.259,4.132-21.536-0.16-31.752s-12.306-18.15-22.565-22.338c-21.179-8.649-45.443,1.547-54.09,22.725
	c-0.342,0.838-0.777,1.99-1.293,3.422c0.064-1.53,0.098-2.765,0.098-3.657C297.486,18.611,278.875,0,256,0
	s-41.486,18.611-41.486,41.486c0,2.142,0.178,6.022,0.514,11.221c-1.714-4.953-3.052-8.598-3.87-10.545
	c-8.861-21.089-33.227-31.039-54.318-22.178c-21.089,8.861-31.038,33.227-22.178,54.317c0.351,0.835,0.858,1.957,1.506,3.334
	c-1.037-1.128-1.887-2.025-2.517-2.655c-16.175-16.176-42.495-16.176-58.67,0c-16.175,16.175-16.175,42.495,0,58.67
	c1.515,1.515,4.385,4.133,8.301,7.573c-4.716-2.291-8.241-3.923-10.196-4.721c-10.259-4.189-21.536-4.132-31.751,0.16
	c-10.216,4.292-18.15,12.306-22.338,22.565c-8.647,21.178,1.547,45.443,22.725,54.09c0.838,0.342,1.99,0.777,3.422,1.293
	c-1.53-0.064-2.765-0.098-3.657-0.098C18.611,214.514,0,233.125,0,256s18.611,41.486,41.486,41.486
	c2.142,0,6.022-0.178,11.222-0.514c-4.954,1.714-8.599,3.052-10.546,3.871c-21.089,8.861-31.039,33.228-22.178,54.317
	c6.663,15.858,22.091,25.417,38.303,25.417c5.348,0,10.783-1.041,16.014-3.239c0.835-0.351,1.956-0.857,3.334-1.506
	c-1.128,1.037-2.025,1.886-2.655,2.517c-16.175,16.175-16.175,42.495,0,58.67c8.088,8.089,18.71,12.133,29.335,12.132
	c10.623-0.001,21.248-4.045,29.335-12.131c1.515-1.515,4.133-4.384,7.573-8.3c-2.291,4.715-3.922,8.239-4.721,10.195
	c-8.646,21.178,1.548,45.443,22.726,54.09c5.064,2.068,10.375,3.101,15.685,3.101c5.447,0,10.893-1.088,16.067-3.261
	c10.216-4.292,18.149-12.307,22.338-22.565c0.342-0.838,0.777-1.99,1.293-3.422c-0.064,1.53-0.098,2.765-0.098,3.657
	C214.514,493.389,233.125,512,256,512s41.486-18.611,41.486-41.486c0-2.142-0.178-6.023-0.514-11.224
	c1.714,4.955,3.053,8.6,3.871,10.547c4.292,10.217,12.306,18.15,22.565,22.339c5.064,2.068,10.375,3.101,15.685,3.101
	c5.447,0,10.894-1.088,16.067-3.261c10.216-4.292,18.149-12.306,22.338-22.565s4.132-21.536-0.16-31.752
	c-0.351-0.834-0.857-1.956-1.505-3.333c1.036,1.127,1.886,2.024,2.516,2.654c7.835,7.836,18.254,12.151,29.335,12.151
	c11.082,0,21.5-4.315,29.335-12.151c16.175-16.175,16.175-42.495,0-58.67c-1.515-1.515-4.385-4.133-8.301-7.573
	c4.716,2.292,8.241,3.923,10.197,4.721c5.119,2.09,10.414,3.079,15.629,3.079c16.362,0,31.903-9.745,38.46-25.805
	c8.647-21.178-1.547-45.443-22.726-54.09c-0.838-0.342-1.99-0.777-3.422-1.293c1.53,0.064,2.765,0.098,3.657,0.098
	C493.389,297.486,512,278.875,512,256z M369.35,283.916c0.129,0.034,0.256,0.068,0.385,0.102c1.749,0.459,3.517,0.927,5.299,1.403
	c0.362,0.097,0.724,0.193,1.085,0.29c6.143,1.645,12.459,3.381,18.864,5.188c0.02,0.005,0.04,0.006,0.06,0.012
	c34.831,9.817,63.654,19.244,69.567,21.658c13.521,5.521,20.029,21.012,14.509,34.533c-5.521,13.522-21.013,20.031-34.533,14.509
	c-6.38-2.605-37.54-18.056-72.475-37.426c-0.008-0.004-0.014-0.01-0.022-0.015c-5.251-2.91-10.494-5.859-15.583-8.767
	c-2.472-1.412-5.411-1.263-7.673,0.138c-0.17,0.105-0.334,0.222-0.496,0.341c-0.034,0.025-0.07,0.045-0.103,0.071
	c-0.775,0.591-1.447,1.344-1.961,2.243c-2.055,3.597-0.805,8.178,2.792,10.232c2.464,1.407,4.94,2.81,7.419,4.205
	c0.187,0.105,0.375,0.21,0.562,0.315c2.079,1.169,4.16,2.331,6.237,3.485c0.336,0.187,0.67,0.375,1.006,0.562
	c31.046,24.467,57.297,47.132,62.126,51.96c10.327,10.327,10.327,27.13,0,37.457c-5.002,5.002-11.654,7.757-18.729,7.757
	s-13.726-2.755-18.729-7.757c-5.095-5.095-25.227-28.556-46.572-55.329c-0.669-1.193-1.334-2.369-2-3.551
	c-0.209-0.37-0.416-0.739-0.625-1.109c-0.5-0.885-0.999-1.765-1.497-2.643c-0.565-0.996-1.133-1.993-1.702-2.99
	c-0.379-0.663-0.757-1.328-1.134-1.986c-0.816-1.424-1.635-2.848-2.457-4.271c-0.266-0.461-0.532-0.921-0.797-1.379
	c-0.932-1.61-1.866-3.219-2.803-4.821c-1.045-1.788-2.717-2.983-4.574-3.469s-3.899-0.265-5.687,0.78
	c-2.458,1.437-3.796,4.058-3.712,6.717c0.015,0.484,0.077,0.968,0.188,1.448c0.166,0.719,0.443,1.425,0.835,2.095
	c0.984,1.683,1.979,3.396,2.979,5.125c0.165,0.285,0.33,0.57,0.494,0.855c3.18,5.506,6.429,11.219,9.702,17.063
	c0.011,0.019,0.025,0.035,0.036,0.054c17.688,31.571,31.405,58.621,33.879,64.509c2.74,6.522,2.777,13.721,0.102,20.271
	c-2.674,6.55-7.739,11.667-14.262,14.407c-6.522,2.74-13.721,2.776-20.271,0.103c-6.55-2.674-11.666-7.739-14.406-14.263
	c-2.67-6.352-13.776-39.303-24.781-77.701c-0.002-0.008-0.003-0.017-0.005-0.026c-1.645-5.731-3.268-11.529-4.825-17.235
	c-0.886-3.246-3.774-5.408-6.97-5.521c-0.737-0.026-1.491,0.057-2.241,0.26c-3.996,1.09-6.352,5.213-5.261,9.209
	c0.751,2.751,1.513,5.508,2.284,8.26c0.057,0.203,0.115,0.406,0.171,0.609c0.646,2.302,1.296,4.602,1.951,6.892
	c0.102,0.359,0.203,0.72,0.305,1.078c4.65,39.249,7.186,73.833,7.186,80.66C282.486,485.118,270.604,497,256,497
	s-26.486-11.882-26.486-26.486c0-7.204,2.353-38.024,6.19-72.045c0.784-2.783,1.549-5.538,2.304-8.278
	c0.251-0.91,0.501-1.823,0.751-2.736c0.262-0.957,0.523-1.912,0.781-2.862c0.402-1.482,0.802-2.965,1.2-4.449
	c0.145-0.54,0.288-1.078,0.432-1.615c0.478-1.793,0.954-3.586,1.423-5.376c0.197-0.751,0.273-1.506,0.239-2.243
	c-0.017-0.366-0.069-0.725-0.138-1.08c-0.532-2.742-2.573-5.078-5.455-5.833c-0.182-0.048-0.365-0.081-0.547-0.114
	c-0.569-0.105-1.138-0.151-1.696-0.126c-3.196,0.144-6.06,2.338-6.913,5.594c-0.496,1.893-1.005,3.814-1.522,5.749
	c-0.085,0.317-0.169,0.634-0.254,0.951c-1.648,6.155-3.391,12.495-5.208,18.935c-0.006,0.021-0.007,0.042-0.012,0.063
	c-9.816,34.828-19.243,63.65-21.657,69.563c-2.674,6.55-7.739,11.666-14.261,14.406c-6.524,2.74-13.723,2.776-20.271,0.103
	c-13.521-5.521-20.029-21.013-14.509-34.533c2.607-6.383,18.059-37.546,37.427-72.477c0.004-0.007,0.009-0.013,0.013-0.02
	c2.905-5.243,5.855-10.486,8.767-15.584c1.67-2.923,1.157-6.495-1.024-8.834c-0.503-0.54-1.095-1.014-1.769-1.399
	c-3.595-2.054-8.178-0.804-10.232,2.792c-1.411,2.47-2.817,4.952-4.216,7.437c-0.097,0.172-0.193,0.345-0.29,0.517
	c-1.154,2.053-2.302,4.107-3.441,6.158c-0.206,0.371-0.415,0.74-0.621,1.112c-24.47,31.049-47.132,57.299-51.959,62.125
	c-10.327,10.327-27.13,10.327-37.457,0s-10.327-27.13,0-37.457c5.096-5.096,28.556-25.228,55.329-46.572
	c1.391-0.779,2.765-1.556,4.14-2.332c0.148-0.083,0.294-0.166,0.442-0.249c0.95-0.537,1.894-1.072,2.836-1.606
	c0.845-0.48,1.691-0.961,2.537-1.444c0.902-0.514,1.802-1.028,2.695-1.54c1.255-0.719,2.51-1.441,3.765-2.165
	c0.545-0.315,1.088-0.629,1.63-0.942c1.481-0.857,2.959-1.716,4.433-2.578c0.09-0.053,0.183-0.106,0.273-0.159
	c3.576-2.091,4.78-6.685,2.689-10.26c-1.973-3.375-6.174-4.633-9.645-3.008c-0.208,0.097-0.414,0.201-0.616,0.319
	c-0.086,0.05-0.172,0.1-0.258,0.15c-1.565,0.915-3.154,1.838-4.758,2.766c-0.36,0.208-0.72,0.416-1.079,0.624
	c-5.475,3.162-11.147,6.388-16.946,9.635c-0.017,0.01-0.032,0.023-0.049,0.033c-31.573,17.689-58.625,31.407-64.514,33.881
	c-13.464,5.658-29.021-0.694-34.677-14.159c-5.657-13.464,0.695-29.021,14.159-34.678c6.354-2.67,39.308-13.776,77.703-24.781
	c0.008-0.002,0.016-0.003,0.023-0.005c5.766-1.654,11.565-3.277,17.235-4.825c3.497-0.954,5.737-4.231,5.512-7.712
	c-0.032-0.497-0.115-0.999-0.251-1.499c-1.09-3.996-5.211-6.349-9.209-5.261c-2.755,0.752-5.516,1.516-8.273,2.287
	c-0.155,0.043-0.31,0.087-0.465,0.131c-2.333,0.654-4.663,1.314-6.984,1.977c-0.373,0.106-0.745,0.21-1.117,0.316
	c-39.249,4.65-73.833,7.186-80.66,7.186C26.882,282.486,15,270.604,15,256s11.882-26.486,26.486-26.486
	c7.204,0,38.024,2.353,72.046,6.19c2.831,0.797,5.635,1.576,8.425,2.344c0.717,0.198,1.435,0.394,2.153,0.591
	c1.278,0.35,2.55,0.698,3.816,1.041c1.236,0.335,2.472,0.669,3.709,1c0.68,0.182,1.357,0.363,2.033,0.543
	c1.533,0.409,3.065,0.815,4.597,1.217c0.193,0.051,0.391,0.104,0.583,0.154c0.292,0.077,0.584,0.129,0.876,0.17
	c0.085,0.012,0.169,0.018,0.254,0.027c0.21,0.022,0.419,0.036,0.627,0.04c0.049,0.001,0.1,0.01,0.149,0.01
	c0.034,0,0.067-0.008,0.101-0.008c0.363-0.005,0.723-0.033,1.076-0.09c0.053-0.008,0.104-0.021,0.157-0.031
	c0.347-0.063,0.689-0.148,1.021-0.258c0.025-0.008,0.051-0.014,0.076-0.023c0.342-0.118,0.671-0.265,0.991-0.43
	c0.059-0.03,0.117-0.06,0.175-0.091c0.31-0.17,0.608-0.36,0.891-0.572c0.046-0.034,0.089-0.071,0.133-0.106
	c0.282-0.221,0.553-0.459,0.802-0.72c0.009-0.009,0.018-0.017,0.027-0.026c0.251-0.266,0.478-0.556,0.69-0.859
	c0.038-0.054,0.076-0.107,0.113-0.162c0.198-0.301,0.376-0.617,0.531-0.95c0.027-0.058,0.051-0.118,0.077-0.178
	c0.153-0.352,0.289-0.714,0.389-1.096c0.197-0.751,0.273-1.506,0.239-2.243c-0.144-3.194-2.337-6.061-5.593-6.914
	c-0.129-0.034-0.256-0.068-0.385-0.102c-1.749-0.459-3.517-0.927-5.299-1.403c-0.362-0.097-0.724-0.193-1.085-0.29
	c-6.143-1.645-12.459-3.381-18.864-5.188c-0.02-0.005-0.04-0.006-0.06-0.012c-34.831-9.817-63.654-19.244-69.567-21.658
	c-13.521-5.521-20.029-21.012-14.508-34.533c5.521-13.52,21.012-20.029,34.533-14.509c6.38,2.605,37.536,18.054,72.469,37.423
	c0.01,0.005,0.018,0.013,0.028,0.018c5.223,2.893,10.465,5.842,15.583,8.766c0.033,0.019,0.068,0.031,0.102,0.05
	c0.228,0.126,0.46,0.238,0.694,0.338c0.1,0.043,0.201,0.078,0.302,0.116c0.18,0.067,0.361,0.128,0.543,0.181
	c0.106,0.031,0.211,0.061,0.318,0.087c0.207,0.05,0.415,0.089,0.623,0.121c0.075,0.012,0.15,0.029,0.225,0.038
	c0.274,0.034,0.549,0.049,0.823,0.052c0.027,0,0.055,0.005,0.082,0.005c0.065,0,0.13-0.011,0.195-0.013
	c0.204-0.005,0.407-0.018,0.61-0.04c0.1-0.011,0.199-0.022,0.299-0.037c0.228-0.034,0.453-0.079,0.676-0.133
	c0.058-0.014,0.117-0.023,0.175-0.039c0.274-0.074,0.543-0.166,0.808-0.27c0.079-0.031,0.156-0.068,0.234-0.102
	c0.195-0.085,0.386-0.177,0.574-0.279c0.081-0.044,0.162-0.087,0.241-0.134c0.224-0.131,0.441-0.273,0.651-0.429
	c0.027-0.02,0.056-0.036,0.082-0.057c0.233-0.177,0.453-0.371,0.666-0.577c0.062-0.06,0.121-0.124,0.181-0.186
	c0.155-0.16,0.303-0.328,0.445-0.504c0.057-0.07,0.114-0.139,0.168-0.212c0.183-0.245,0.358-0.5,0.514-0.773
	c2.055-3.597,0.805-8.178-2.792-10.232c-2.495-1.425-5.002-2.846-7.513-4.258c-0.083-0.047-0.167-0.094-0.251-0.141
	c-2.272-1.278-4.547-2.549-6.817-3.809c-0.215-0.119-0.429-0.241-0.644-0.36c-31.047-24.469-57.298-47.132-62.125-51.96
	c-10.327-10.327-10.327-27.13,0-37.457s27.13-10.327,37.457,0c5.096,5.096,25.228,28.556,46.572,55.329
	c1.43,2.551,2.854,5.069,4.273,7.567c0.398,0.7,0.797,1.401,1.196,2.102c0.605,1.061,1.208,2.118,1.809,3.166
	c0.677,1.181,1.356,2.362,2.037,3.542c0.326,0.565,0.651,1.127,0.975,1.687c0.853,1.473,1.707,2.943,2.564,4.409
	c0.053,0.091,0.108,0.186,0.161,0.277c0.158,0.27,0.334,0.521,0.519,0.764c0.053,0.069,0.109,0.135,0.164,0.202
	c0.143,0.175,0.293,0.342,0.449,0.501c0.06,0.062,0.12,0.124,0.182,0.183c0.215,0.204,0.436,0.398,0.671,0.573
	c0.001,0.001,0.002,0.001,0.003,0.002c0.234,0.174,0.479,0.329,0.73,0.474c0.075,0.043,0.151,0.082,0.227,0.123
	c0.189,0.101,0.382,0.193,0.578,0.277c0.078,0.034,0.156,0.068,0.235,0.099c0.269,0.104,0.541,0.198,0.82,0.271
	c0.002,0.001,0.005,0.001,0.007,0.002c0.277,0.072,0.559,0.123,0.843,0.164c0.082,0.012,0.164,0.019,0.247,0.028
	c0.218,0.024,0.436,0.038,0.656,0.042c0.051,0.001,0.101,0.01,0.152,0.01c0.029,0,0.059-0.005,0.088-0.006
	c0.584-0.007,1.169-0.082,1.746-0.229c0.079-0.02,0.157-0.044,0.235-0.067c0.218-0.063,0.434-0.136,0.648-0.22
	c0.078-0.031,0.157-0.059,0.234-0.093c0.28-0.121,0.557-0.254,0.828-0.412c2.458-1.438,3.796-4.058,3.712-6.717
	c-0.038-1.209-0.37-2.426-1.023-3.543c-0.049-0.084-0.098-0.168-0.147-0.252c-0.922-1.577-1.852-3.178-2.787-4.794
	c-0.2-0.345-0.399-0.689-0.598-1.034c-3.166-5.482-6.396-11.16-9.644-16.962c-0.009-0.016-0.021-0.029-0.03-0.045
	c-17.691-31.576-31.41-58.63-33.884-64.518c-5.657-13.465,0.695-29.021,14.159-34.678c13.466-5.657,29.022,0.695,34.679,14.159
	c2.669,6.354,13.775,39.306,24.779,77.699c0.003,0.009,0.003,0.019,0.006,0.029c1.654,5.765,3.277,11.563,4.825,17.234
	c0.005,0.018,0.014,0.034,0.019,0.052c0.097,0.347,0.223,0.677,0.365,0.998c0.035,0.079,0.067,0.159,0.105,0.236
	c0.151,0.313,0.321,0.611,0.51,0.895c0.048,0.072,0.099,0.141,0.15,0.211c0.196,0.274,0.405,0.537,0.634,0.779
	c0.029,0.03,0.057,0.059,0.086,0.089c0.231,0.237,0.48,0.453,0.739,0.656c0.065,0.051,0.128,0.103,0.194,0.151
	c0.271,0.198,0.554,0.378,0.848,0.538c0.071,0.039,0.143,0.073,0.215,0.109c0.307,0.155,0.622,0.296,0.949,0.408
	c0.024,0.008,0.048,0.014,0.072,0.022c0.323,0.107,0.656,0.186,0.993,0.249c0.073,0.013,0.144,0.029,0.217,0.04
	c0.343,0.053,0.691,0.082,1.043,0.086c0.031,0,0.061,0.008,0.092,0.008c0.057,0,0.116-0.01,0.173-0.011
	c0.211-0.005,0.423-0.019,0.635-0.042c0.093-0.01,0.185-0.018,0.279-0.032c0.298-0.044,0.596-0.1,0.894-0.181
	c3.996-1.09,6.351-5.214,5.261-9.21c-0.756-2.771-1.524-5.547-2.301-8.32c-0.025-0.088-0.05-0.176-0.074-0.264
	c-0.702-2.504-1.41-5.005-2.122-7.495c-0.072-0.253-0.143-0.507-0.215-0.76c-4.65-39.249-7.186-73.833-7.186-80.66
	C229.514,26.882,241.396,15,256,15s26.486,11.882,26.486,26.486c0,7.204-2.353,38.024-6.19,72.046
	c-0.801,2.845-1.583,5.662-2.355,8.465c-0.193,0.698-0.384,1.398-0.576,2.098c-0.338,1.233-0.673,2.462-1.005,3.683
	c-0.36,1.327-0.718,2.654-1.074,3.983c-0.158,0.589-0.315,1.175-0.471,1.76c-0.474,1.776-0.945,3.552-1.409,5.326
	c-1.05,4.007,1.347,8.106,5.354,9.156c4.005,1.048,8.106-1.347,9.156-5.354c0.5-1.906,1.012-3.839,1.531-5.785
	c0.079-0.298,0.159-0.595,0.238-0.892c1.652-6.171,3.397-12.518,5.213-18.957c0.005-0.019,0.006-0.039,0.011-0.058
	c9.817-34.831,19.244-63.655,21.658-69.568c5.521-13.521,21.012-20.03,34.533-14.509c6.55,2.674,11.666,7.739,14.407,14.262
	c2.74,6.522,2.776,13.722,0.102,20.271c-2.606,6.381-18.056,37.539-37.424,72.472c-0.005,0.009-0.012,0.016-0.016,0.025
	c-2.91,5.251-5.86,10.494-8.767,15.583c-1.973,3.454-0.892,7.81,2.381,9.97c0.136,0.09,0.269,0.182,0.412,0.264
	c0.004,0.002,0.008,0.004,0.012,0.006c0.261,0.148,0.528,0.274,0.797,0.388c0.087,0.037,0.175,0.068,0.263,0.101
	c0.195,0.074,0.39,0.139,0.588,0.196c0.096,0.027,0.19,0.055,0.286,0.078c0.222,0.054,0.444,0.096,0.668,0.13
	c0.063,0.009,0.125,0.024,0.187,0.032c0.278,0.034,0.556,0.05,0.833,0.053c0.026,0,0.053,0.005,0.079,0.005
	c0.063,0,0.125-0.011,0.187-0.012c0.207-0.005,0.413-0.018,0.618-0.04c0.1-0.011,0.199-0.022,0.298-0.037
	c0.224-0.033,0.446-0.078,0.665-0.131c0.063-0.015,0.126-0.025,0.188-0.042c0.271-0.073,0.536-0.164,0.797-0.267
	c0.087-0.034,0.172-0.074,0.258-0.112c0.185-0.081,0.366-0.168,0.544-0.264c0.089-0.048,0.178-0.095,0.265-0.147
	c0.205-0.121,0.405-0.253,0.599-0.394c0.044-0.032,0.09-0.059,0.133-0.091c0.226-0.172,0.44-0.361,0.647-0.561
	c0.072-0.07,0.14-0.144,0.21-0.216c0.142-0.148,0.278-0.302,0.408-0.463c0.067-0.082,0.133-0.163,0.197-0.248
	c0.159-0.214,0.309-0.438,0.447-0.673c0.017-0.029,0.039-0.054,0.055-0.083c1.431-2.505,2.857-5.022,4.275-7.543
	c0.009-0.016,0.017-0.031,0.026-0.047c1.281-2.278,2.555-4.558,3.819-6.834c0.149-0.268,0.299-0.533,0.447-0.8
	c24.467-31.046,47.132-57.297,51.96-62.126c5.002-5.002,11.654-7.757,18.729-7.757s13.726,2.755,18.729,7.757
	c10.327,10.327,10.327,27.13,0,37.457c-5.095,5.095-28.556,25.227-55.329,46.572c-1.5,0.841-2.983,1.678-4.465,2.515
	c-0.026,0.015-0.052,0.029-0.078,0.044c-0.97,0.548-1.933,1.094-2.894,1.64c-0.856,0.486-1.713,0.974-2.57,1.462
	c-0.845,0.482-1.688,0.963-2.525,1.442c-1.323,0.758-2.645,1.518-3.966,2.281c-0.489,0.282-0.976,0.564-1.461,0.845
	c-1.6,0.926-3.198,1.854-4.79,2.785c-0.671,0.392-1.258,0.872-1.755,1.417c-1.233,1.35-1.908,3.098-1.95,4.89
	c-0.031,1.342,0.289,2.709,1.016,3.953c0.158,0.27,0.334,0.521,0.519,0.764c0.053,0.07,0.109,0.136,0.165,0.204
	c0.143,0.175,0.293,0.342,0.449,0.501c0.06,0.061,0.118,0.123,0.18,0.181c0.215,0.204,0.437,0.399,0.672,0.574l0.001,0.001
	c0.234,0.175,0.48,0.33,0.731,0.475c0.074,0.043,0.151,0.082,0.226,0.122c0.189,0.101,0.382,0.193,0.578,0.277
	c0.079,0.034,0.156,0.069,0.236,0.1c0.268,0.104,0.54,0.198,0.818,0.27c0.008,0.002,0.017,0.003,0.025,0.005
	c0.27,0.07,0.544,0.12,0.821,0.16c0.088,0.012,0.175,0.021,0.263,0.03c0.209,0.022,0.419,0.036,0.631,0.041
	c0.056,0.001,0.111,0.011,0.167,0.011c0.032,0,0.065-0.006,0.097-0.006c0.288-0.004,0.577-0.019,0.865-0.056
	c0.009-0.001,0.018-0.004,0.027-0.005c0.28-0.037,0.559-0.095,0.837-0.166c0.086-0.022,0.171-0.048,0.256-0.073
	c0.21-0.061,0.419-0.132,0.625-0.213c0.083-0.032,0.166-0.063,0.249-0.099c0.278-0.12,0.554-0.253,0.823-0.41
	c0.061-0.036,0.122-0.071,0.183-0.107c1.602-0.936,3.229-1.882,4.873-2.833c0.332-0.192,0.664-0.384,0.996-0.576
	c5.482-3.166,11.169-6.401,16.99-9.66c0.017-0.01,0.032-0.023,0.049-0.033c31.574-17.69,58.626-31.408,64.514-33.881
	c13.464-5.657,29.021,0.695,34.678,14.159c5.657,13.465-0.695,29.021-14.16,34.678c-6.354,2.67-39.308,13.776-77.702,24.78
	c-0.008,0.002-0.017,0.003-0.026,0.005c-5.731,1.645-11.529,3.268-17.235,4.825c-3.497,0.954-5.737,4.231-5.512,7.712
	c0.032,0.497,0.115,0.999,0.251,1.499c0.001,0.003,0.002,0.006,0.003,0.009c0.102,0.371,0.237,0.722,0.388,1.063
	c0.03,0.067,0.058,0.135,0.089,0.201c0.154,0.322,0.329,0.628,0.524,0.919c0.042,0.063,0.087,0.123,0.131,0.185
	c0.205,0.288,0.424,0.564,0.665,0.817c0.016,0.017,0.034,0.033,0.05,0.05c0.238,0.245,0.496,0.468,0.764,0.678
	c0.061,0.047,0.119,0.096,0.181,0.141c0.273,0.2,0.559,0.381,0.856,0.543c0.069,0.037,0.139,0.071,0.209,0.106
	c0.31,0.156,0.627,0.299,0.956,0.411c0.022,0.008,0.045,0.013,0.068,0.021c0.323,0.107,0.655,0.186,0.991,0.248
	c0.074,0.014,0.147,0.029,0.222,0.041c0.341,0.053,0.687,0.081,1.036,0.086c0.033,0,0.064,0.008,0.097,0.008
	c0.06,0,0.122-0.011,0.182-0.012c0.204-0.005,0.408-0.019,0.613-0.041c0.1-0.011,0.199-0.02,0.299-0.035
	c0.268-0.04,0.537-0.093,0.805-0.163c0.026-0.007,0.052-0.009,0.078-0.016c2.75-0.75,5.507-1.513,8.259-2.283
	c0.208-0.058,0.414-0.117,0.622-0.175c2.271-0.637,4.54-1.279,6.8-1.925c0.386-0.11,0.774-0.218,1.159-0.328
	c39.249-4.65,73.833-7.186,80.66-7.186C485.118,229.514,497,241.396,497,256s-11.882,26.486-26.486,26.486
	c-7.204,0-38.024-2.353-72.046-6.19c-2.831-0.797-5.635-1.576-8.425-2.344c-0.717-0.198-1.435-0.394-2.153-0.591
	c-1.278-0.35-2.55-0.698-3.816-1.041c-1.236-0.335-2.472-0.669-3.709-1c-0.68-0.182-1.357-0.363-2.033-0.543
	c-1.533-0.409-3.065-0.815-4.597-1.217c-0.193-0.051-0.391-0.104-0.583-0.154c-0.483-0.126-0.968-0.2-1.448-0.23
	c-2.246-0.139-4.399,0.746-5.9,2.328c-0.009,0.009-0.019,0.017-0.027,0.027c-0.073,0.078-0.138,0.163-0.208,0.245
	c-0.089,0.103-0.181,0.202-0.264,0.31c-0.002,0.003-0.004,0.005-0.006,0.008c-0.591,0.77-1.042,1.668-1.304,2.666
	c-0.197,0.751-0.273,1.506-0.239,2.243C363.9,280.197,366.093,283.063,369.35,283.916z"/>
<g>
</g>
<g>
</g>
<g>
</g>
<g>
</g>
<g>
</g>
<g>
</g>
<g>
</g>
<g>
</g>
<g>
</g>
<g>
</g>
<g>
</g>
<g>
</g>
<g>
</g>
<g>
</g>
<g>
</g>
</svg>
