<?xml version="1.0" encoding="iso-8859-1"?>
<!-- Generator: Adobe Illustrator 19.0.0, SVG Export Plug-In . SVG Version: 6.00 Build 0)  -->
<svg version="1.1" id="Capa_1" xmlns="http://www.w3.org/2000/svg" xmlns:xlink="http://www.w3.org/1999/xlink" x="0px" y="0px"
	 viewBox="0 0 512.003 512.003" style="enable-background:new 0 0 512.003 512.003;" xml:space="preserve">
<path style="fill:#80C56E;" d="M241.227,371.718h29.549c2.198-26.592,5.377-74.114,6.412-135.975
	c1.21-72.351-21.187-228.052-21.187-228.052s-22.397,155.702-21.186,228.052C235.85,297.604,239.029,345.126,241.227,371.718z"/>
<path style="fill:#9CD38C;" d="M241.227,371.718h14.774c2.198-26.592,0-364.027,0-364.027s-22.397,155.702-21.186,228.052
	C235.85,297.604,239.029,345.126,241.227,371.718z"/>
<path style="fill:#66AD66;" d="M299.594,371.718c5.15-37.47,9.502-75.09,14.279-112.561c8.378-65.721,7.903-133.123,12.346-199.314
	c-25.104,61.16-48.667,128.033-54.448,194.328c-3.383,38.797-4.839,78.34-2.672,117.547H299.594z"/>
<path style="fill:#5E9E5E;" d="M299.594,371.718c5.15-37.47,9.502-75.09,14.279-112.561c8.378-65.721,7.903-133.123,12.346-199.314
	c-25.104,61.16-45.21,272.668-43.043,311.875H299.594z"/>
<path style="fill:#66AD66;" d="M212.41,371.718h30.496c2.167-39.207,0.711-78.751-2.672-117.547
	c-5.781-66.294-29.344-133.167-54.448-194.328c4.443,66.191,3.967,133.593,12.346,199.314
	C202.908,296.628,207.258,334.248,212.41,371.718z"/>
<path style="fill:#5E9E5E;" d="M227.632,371.718h15.274c2.167-39.207,0.711-78.751-2.672-117.547
	c-5.781-66.294-29.344-133.167-54.448-194.328C198.065,128.235,218.574,219.241,227.632,371.718z"/>
<path style="fill:#80C56E;" d="M193.582,371.718h40.697c-1.867-15.894-4.535-31.634-7.884-47.08
	c-15.025-69.294-57.716-134.52-106.201-184.472c30.834,62.192,48.046,128.068,65.094,195.188
	C188.352,347.422,191.104,359.545,193.582,371.718z"/>
<path style="fill:#9CD38C;" d="M193.582,371.718h18.827c-4.09-37.229-43.73-181.6-92.215-231.552
	c30.834,62.192,48.046,128.068,65.094,195.188C188.352,347.422,191.104,359.545,193.582,371.718z"/>
<path style="fill:#80C56E;" d="M318.421,371.718c2.479-12.173,5.23-24.295,8.295-36.363c17.048-67.12,34.259-132.996,65.094-195.188
	c-48.486,49.952-91.177,115.178-106.201,184.472c-3.349,15.446-6.017,31.186-7.884,47.08h40.696V371.718z"/>
<path style="fill:#9CD38C;" d="M299.594,371.718c26.624-131.968,61.381-169.359,92.215-231.552
	c-48.486,49.952-91.177,115.178-106.201,184.472c-3.349,15.446-6.017,31.186-7.884,47.08L299.594,371.718L299.594,371.718z"/>
<path style="fill:#FEC37D;" d="M352.475,334.488H159.527c0,0-41.663,5.197-25.025,70.871c10.75,42.434,30.996,71.342,43.978,86.487
	c6.774,7.902,16.648,12.462,27.056,12.462h100.93c10.408,0,20.283-4.56,27.056-12.462c12.983-15.146,33.228-44.054,43.978-86.487
	C394.138,339.685,352.475,334.488,352.475,334.488z"/>
<path id="SVGCleanerId_0" style="fill:#F9AE5D;" d="M352.475,334.488H299.75c0,0,41.663,5.197,25.025,70.871
	c-10.75,42.434-30.996,71.342-43.978,86.487c-6.774,7.902-16.648,12.462-27.056,12.462h52.725c10.408,0,20.283-4.56,27.056-12.462
	c12.983-15.146,33.228-44.054,43.978-86.487C394.138,339.685,352.475,334.488,352.475,334.488z"/>
<path id="SVGCleanerId_1" style="fill:#F2A559;" d="M138.214,418.349l34.17,18.439l41.805-22.559l41.807,22.559l41.806-22.559
	l41.811,22.559l34.177-18.44c1.328-4.181,2.575-8.505,3.711-12.988c2.974-11.741,4.078-21.54,3.897-29.731l-41.785,16.397
	l-41.811-16.408l-41.806,16.407l-41.807-16.407l-41.805,16.407l-41.778-16.397c-0.181,8.191,0.923,17.99,3.897,29.731
	C135.638,409.843,136.885,414.167,138.214,418.349z"/>
<g>
	<path id="SVGCleanerId_0_1_" style="fill:#F9AE5D;" d="M352.475,334.488H299.75c0,0,41.663,5.197,25.025,70.871
		c-10.75,42.434-30.996,71.342-43.978,86.487c-6.774,7.902-16.648,12.462-27.056,12.462h52.725c10.408,0,20.283-4.56,27.056-12.462
		c12.983-15.146,33.228-44.054,43.978-86.487C394.138,339.685,352.475,334.488,352.475,334.488z"/>
</g>
<g>
	<path id="SVGCleanerId_1_1_" style="fill:#F2A559;" d="M138.214,418.349l34.17,18.439l41.805-22.559l41.807,22.559l41.806-22.559
		l41.811,22.559l34.177-18.44c1.328-4.181,2.575-8.505,3.711-12.988c2.974-11.741,4.078-21.54,3.897-29.731l-41.785,16.397
		l-41.811-16.408l-41.806,16.407l-41.807-16.407l-41.805,16.407l-41.778-16.397c-0.181,8.191,0.923,17.99,3.897,29.731
		C135.638,409.843,136.885,414.167,138.214,418.349z"/>
</g>
<path style="fill:#EA8F3D;" d="M378.642,400.511c0.239-1.09,0.464-2.165,0.67-3.22c0.032-0.165,0.068-0.334,0.1-0.498
	c0.236-1.232,0.447-2.437,0.639-3.621c0.033-0.202,0.062-0.401,0.094-0.601c0.167-1.063,0.318-2.109,0.45-3.133
	c0.018-0.137,0.037-0.276,0.054-0.412c0.298-2.382,0.505-4.661,0.628-6.841c0.004-0.062,0.007-0.124,0.011-0.186
	c0.121-2.224,0.156-4.347,0.111-6.369l-41.785,16.397l-11.512-4.517c-0.6,5.391-1.67,11.317-3.325,17.852
	c-1.796,7.09-3.862,13.793-6.11,20.127l20.947,11.302l34.177-18.44c0.309-0.971,0.612-1.952,0.911-2.939
	c0.054-0.179,0.108-0.359,0.162-0.538c0.259-0.86,0.514-1.726,0.765-2.598c0.132-0.458,0.26-0.921,0.389-1.382
	c0.183-0.651,0.367-1.301,0.545-1.959c0.319-1.181,0.634-2.369,0.939-3.572c0.333-1.314,0.634-2.595,0.921-3.86
	C378.496,401.168,378.569,400.84,378.642,400.511z"/>
<path d="M356.766,227.458c4.026,1.353,8.386-0.816,9.739-4.843c9.869-29.39,20.4-55.242,32.195-79.033
	c1.683-3.395,0.643-7.509-2.45-9.696c-3.094-2.187-7.319-1.796-9.958,0.923c-23.149,23.849-43.286,49.271-59.933,75.392
	c1.913-26.371,2.986-52.872,4.032-78.76c0.944-23.369,1.921-47.534,3.502-71.084c0.252-3.763-2.26-7.153-5.933-8.007
	c-3.675-0.853-7.423,1.083-8.855,4.571c-12.687,30.91-26.688,67.318-37.557,105.891C275.578,90.235,263.763,7.635,263.615,6.596
	C263.069,2.81,259.826,0,256.001,0s-7.068,2.81-7.613,6.596c-0.149,1.04-11.966,83.649-17.933,156.23
	c-8.124-28.514-19.999-63.129-37.556-105.904c-1.432-3.488-5.18-5.425-8.855-4.571c-3.673,0.854-6.186,4.244-5.933,8.007
	c1.581,23.55,2.558,47.715,3.502,71.084c1.046,25.889,2.119,52.389,4.032,78.76c-16.647-26.121-36.784-51.543-59.933-75.392
	c-2.64-2.719-6.864-3.11-9.958-0.923s-4.134,6.301-2.451,9.696c11.947,24.097,22.606,50.33,32.585,80.197
	c1.346,4.029,5.703,6.204,9.732,4.857c4.029-1.346,6.203-5.703,4.857-9.732c-4.196-12.557-8.513-24.495-12.995-35.918
	c16.653,21.165,30.906,43.107,42.456,65.274c0.492,0.943,0.976,1.887,1.458,2.831c0.382,0.749,0.766,1.499,1.142,2.249
	c0.336,0.668,0.664,1.337,0.995,2.005c0.485,0.982,0.971,1.965,1.446,2.948c0.163,0.337,0.321,0.674,0.482,1.011
	c4.893,10.22,9.206,20.467,12.9,30.69c0.047,0.129,0.094,0.258,0.14,0.386c0.475,1.319,0.937,2.638,1.391,3.956
	c0.09,0.262,0.181,0.525,0.271,0.787c0.416,1.218,0.822,2.435,1.22,3.652c0.122,0.375,0.244,0.749,0.365,1.124
	c0.363,1.126,0.72,2.251,1.068,3.376c0.148,0.479,0.293,0.958,0.439,1.437c0.314,1.035,0.625,2.069,0.926,3.103
	c0.172,0.591,0.338,1.181,0.506,1.771c0.266,0.933,0.531,1.867,0.785,2.799c0.198,0.725,0.387,1.449,0.578,2.173
	c0.214,0.81,0.432,1.62,0.638,2.428c0.234,0.921,0.457,1.84,0.68,2.759c0.152,0.623,0.31,1.246,0.457,1.868
	c0.366,1.553,0.719,3.105,1.055,4.654c0.038,0.174,0.076,0.355,0.113,0.53h-27.946c-4.531-17.792-9.353-36.466-14.473-54.848
	c-1.14-4.092-5.377-6.487-9.472-5.345c-4.092,1.14-6.485,5.38-5.345,9.472c4.717,16.94,9.188,34.164,13.415,50.721h-15.644
	c-0.318,0-0.636,0.02-0.952,0.059c-0.662,0.083-16.324,2.197-26.738,17.441c-6.771,9.912-9.692,22.787-8.782,38.419
	c0.001,0.024,0.002,0.046,0.003,0.07c0.061,1.027,0.147,2.073,0.241,3.124c0.03,0.337,0.056,0.671,0.089,1.011
	c0.093,0.939,0.202,1.889,0.321,2.847c0.06,0.484,0.122,0.97,0.188,1.459c0.119,0.874,0.247,1.754,0.388,2.644
	c0.099,0.629,0.208,1.264,0.317,1.9c0.137,0.79,0.273,1.579,0.426,2.38c0.161,0.845,0.34,1.701,0.519,2.558
	c0.133,0.633,0.255,1.259,0.398,1.899c0.336,1.511,0.695,3.037,1.086,4.582c0.005,0.02,0.009,0.039,0.014,0.058
	c0.012,0.046,0.024,0.09,0.036,0.136c0.286,1.127,0.584,2.261,0.892,3.399c0.237,0.881,0.482,1.75,0.727,2.62
	c0.062,0.22,0.122,0.439,0.185,0.66c11.132,39.066,29.731,66.429,43.754,82.791c8.252,9.626,20.243,15.148,32.896,15.148h100.93
	c12.653,0,24.643-5.521,32.895-15.148c14.027-16.364,32.63-43.735,43.76-82.811c0.054-0.19,0.106-0.379,0.16-0.57
	c0.252-0.894,0.504-1.788,0.748-2.694c0.32-1.182,0.63-2.36,0.926-3.53c0.397-1.566,0.76-3.112,1.1-4.643
	c0.142-0.636,0.264-1.259,0.396-1.889c0.18-0.859,0.36-1.719,0.521-2.567c0.153-0.8,0.289-1.588,0.425-2.376
	c0.11-0.637,0.219-1.273,0.318-1.903c0.141-0.889,0.268-1.769,0.387-2.642c0.066-0.489,0.128-0.975,0.188-1.46
	c0.119-0.957,0.229-1.908,0.321-2.846c0.033-0.34,0.06-0.674,0.09-1.011c0.094-1.051,0.18-2.097,0.241-3.124
	c0.001-0.024,0.002-0.046,0.003-0.07c0.91-15.632-2.01-28.507-8.782-38.419c-10.413-15.245-26.076-17.359-26.738-17.441
	c-0.316-0.04-0.633-0.059-0.952-0.059h-15.642c4.305-16.864,8.861-34.406,13.669-51.631c1.142-4.091-1.248-8.333-5.339-9.475
	c-4.089-1.144-8.333,1.249-9.475,5.339c-5.212,18.669-10.119,37.665-14.729,55.766h-27.946c0.038-0.175,0.076-0.356,0.113-0.53
	c0.336-1.549,0.689-3.1,1.055-4.654c0.147-0.622,0.305-1.246,0.457-1.868c0.224-0.919,0.446-1.839,0.68-2.76
	c0.205-0.806,0.422-1.613,0.636-2.42c0.192-0.728,0.382-1.455,0.581-2.184c0.253-0.927,0.517-1.854,0.781-2.782
	c0.17-0.598,0.338-1.195,0.512-1.793c0.299-1.025,0.607-2.05,0.918-3.075c0.148-0.489,0.296-0.978,0.448-1.468
	c0.346-1.118,0.7-2.237,1.062-3.356c0.122-0.38,0.246-0.76,0.37-1.14c0.396-1.21,0.8-2.421,1.213-3.632
	c0.093-0.272,0.187-0.544,0.28-0.816c0.451-1.308,0.909-2.617,1.38-3.926c0.051-0.142,0.103-0.284,0.154-0.425
	c3.683-10.189,7.98-20.404,12.855-30.59c0.177-0.369,0.35-0.738,0.528-1.107c0.462-0.958,0.936-1.914,1.408-2.871
	c0.344-0.696,0.686-1.391,1.035-2.087c0.364-0.726,0.736-1.452,1.106-2.178c0.495-0.97,0.992-1.939,1.498-2.908
	c11.546-22.155,25.793-44.085,42.437-65.239c-4.34,11.062-8.525,22.606-12.597,34.732
	C350.57,221.745,352.738,226.106,356.766,227.458z M256.001,66.772c5.423,44.243,11.976,104.79,13.298,148.325
	c-1.525,8.472-2.788,16.836-3.783,25.006c-0.029,0.234-0.055,0.469-0.083,0.703c-0.21,1.752-0.407,3.494-0.593,5.227
	c-0.055,0.517-0.111,1.034-0.164,1.551c-0.204,1.985-0.398,3.962-0.569,5.919c-0.264,3.031-0.511,6.029-0.747,9.006
	c-0.028,0.348-0.057,0.699-0.084,1.047c-0.221,2.829-0.428,5.632-0.623,8.415c-0.032,0.457-0.065,0.915-0.096,1.37
	c-0.189,2.745-0.366,5.468-0.53,8.172c-0.026,0.435-0.052,0.869-0.078,1.303c-0.163,2.748-0.315,5.478-0.453,8.186
	c-0.015,0.294-0.028,0.586-0.043,0.88c-0.283,5.684-0.509,11.286-0.679,16.818c-0.009,0.29-0.019,0.583-0.028,0.873
	c-0.078,2.633-0.142,5.249-0.194,7.853c-0.008,0.401-0.017,0.803-0.024,1.204c-0.048,2.557-0.084,5.102-0.107,7.634
	c-0.002,0.177-0.006,0.357-0.008,0.534h-8.828c-0.002-0.177-0.006-0.357-0.008-0.534c-0.024-2.532-0.059-5.077-0.107-7.634
	c-0.008-0.401-0.016-0.802-0.024-1.204c-0.053-2.604-0.116-5.22-0.194-7.853c-0.009-0.29-0.019-0.582-0.028-0.873
	c-0.17-5.532-0.396-11.134-0.679-16.818c-0.015-0.294-0.028-0.586-0.043-0.88c-0.137-2.708-0.29-5.439-0.453-8.186
	c-0.026-0.434-0.051-0.868-0.078-1.303c-0.164-2.703-0.341-5.427-0.53-8.172c-0.031-0.456-0.064-0.913-0.096-1.37
	c-0.196-2.784-0.402-5.586-0.623-8.415c-0.027-0.348-0.056-0.699-0.084-1.047c-0.236-2.977-0.482-5.974-0.747-9.006
	c-0.96-11.006-2.445-23.674-5.179-38.77C244.063,171.223,250.593,110.892,256.001,66.772z M203.854,241.67
	c-3.872-36.604-5.397-74.341-6.872-110.849c-0.318-7.858-0.639-15.808-0.985-23.797c15.106,40.976,29.232,87.357,35.045,133.503
	c0,0.001,0,0.003,0.001,0.004c0.165,1.311,0.319,2.621,0.471,3.932c0.036,0.313,0.076,0.63,0.112,0.943
	c0.13,1.145,0.248,2.289,0.367,3.433c0.046,0.44,0.097,0.885,0.141,1.324c0.156,1.559,0.303,3.118,0.439,4.676
	c0.26,2.977,0.502,5.921,0.734,8.844c0.027,0.345,0.056,0.693,0.083,1.037c0.218,2.781,0.421,5.534,0.613,8.269
	c0.031,0.447,0.063,0.895,0.094,1.341c0.186,2.698,0.36,5.376,0.522,8.033c0.026,0.426,0.051,0.85,0.076,1.275
	c0.161,2.7,0.311,5.383,0.446,8.043c0.015,0.287,0.028,0.571,0.042,0.857c0.139,2.782,0.266,5.547,0.378,8.289
	c0,0.012,0.001,0.023,0.002,0.035c0.111,2.731,0.204,5.44,0.288,8.135c0.01,0.314,0.021,0.629,0.03,0.943
	c0.076,2.564,0.139,5.111,0.191,7.646c0.009,0.414,0.017,0.829,0.025,1.242c0.047,2.499,0.083,4.984,0.106,7.458
	c0.002,0.171,0.003,0.341,0.004,0.512h-1.487c-0.03-0.142-0.059-0.275-0.088-0.416c-0.239-1.146-0.478-2.274-0.716-3.373
	c-0.404-1.863-0.834-3.73-1.279-5.598c-0.122-0.51-0.252-1.021-0.377-1.531c-0.343-1.403-0.694-2.807-1.06-4.212
	c-0.133-0.511-0.27-1.023-0.407-1.534c-0.397-1.492-0.807-2.985-1.231-4.48c-0.104-0.366-0.207-0.731-0.312-1.097
	C223.259,283.723,214.761,262.65,203.854,241.67z M327.684,486.842c-5.326,6.214-13.06,9.777-21.217,9.777h-100.93
	c-8.158,0-15.891-3.563-21.217-9.777c-8.179-9.542-21.217-27.09-31.812-52.041l16.224,8.755c2.28,1.231,5.025,1.231,7.305,0
	l38.153-20.588l38.155,20.589c2.279,1.23,5.025,1.23,7.304-0.001l38.154-20.589l38.159,20.589c1.14,0.615,2.396,0.922,3.652,0.922
	s2.512-0.307,3.652-0.922l16.233-8.758C348.901,459.751,335.862,477.3,327.684,486.842z M373.051,387.713
	c-0.028,0.232-0.065,0.471-0.095,0.704c-0.127,0.995-0.263,1.997-0.422,3.018c-0.062,0.397-0.14,0.806-0.207,1.208
	c-0.147,0.88-0.293,1.76-0.464,2.658c-0.123,0.644-0.267,1.304-0.402,1.957c-0.141,0.684-0.271,1.36-0.426,2.054
	c-0.288,1.295-0.602,2.609-0.937,3.938c-0.019,0.074-0.034,0.146-0.053,0.22c-0.004,0.017-0.009,0.033-0.013,0.05
	c-0.372,1.469-0.768,2.951-1.18,4.438c-0.088,0.318-0.179,0.631-0.268,0.947c-0.343,1.218-0.697,2.439-1.064,3.661
	c-0.051,0.169-0.102,0.338-0.153,0.507l-27.755,14.975l-38.159-20.589c-1.14-0.615-2.396-0.922-3.652-0.922
	s-2.512,0.307-3.652,0.923l-38.153,20.588l-38.155-20.589c-2.279-1.23-5.025-1.23-7.304,0l-38.153,20.588l-27.747-14.974
	c-0.054-0.177-0.108-0.354-0.161-0.532c-0.361-1.202-0.708-2.403-1.046-3.601c-0.094-0.332-0.189-0.661-0.282-0.995
	c-0.415-1.5-0.815-2.995-1.19-4.477c-0.356-1.405-0.684-2.79-0.989-4.158c-0.154-0.694-0.284-1.369-0.425-2.052
	c-0.135-0.654-0.28-1.315-0.403-1.96c-0.169-0.889-0.313-1.758-0.459-2.629c-0.069-0.412-0.148-0.832-0.213-1.24
	c-0.156-0.997-0.287-1.974-0.412-2.946c-0.034-0.26-0.074-0.526-0.106-0.785c-0.023-0.189-0.036-0.37-0.058-0.558l30.68,12.041
	c1.807,0.709,3.814,0.709,5.619,0l38.996-15.304l38.998,15.304c1.806,0.709,3.813,0.709,5.619,0l38.996-15.301l39.002,15.305
	c1.807,0.708,3.813,0.708,5.619,0l30.688-12.042C373.087,387.335,373.074,387.52,373.051,387.713z M351.835,342.179
	c1.898,0.377,10.066,2.452,15.804,11.054c3.069,4.6,4.967,10.419,5.709,17.292l-33.735,13.238l-39.002-15.305
	c-1.807-0.708-3.813-0.708-5.619,0l-38.996,15.304l-38.998-15.304c-1.806-0.709-3.813-0.709-5.619,0l-38.996,15.304l-33.728-13.237
	c0.741-6.873,2.64-12.693,5.709-17.293c5.779-8.664,14.023-10.707,15.785-11.054h191.686V342.179z M315.021,130.821
	c-1.475,36.509-3,74.246-6.872,110.849c-10.907,20.98-19.405,42.053-25.391,62.885c-0.105,0.366-0.208,0.731-0.312,1.097
	c-0.423,1.495-0.834,2.988-1.231,4.48c-0.136,0.512-0.273,1.023-0.407,1.534c-0.366,1.405-0.718,2.809-1.06,4.212
	c-0.125,0.51-0.255,1.021-0.377,1.531c-0.445,1.868-0.875,3.735-1.279,5.598c-0.238,1.099-0.477,2.228-0.716,3.373
	c-0.03,0.141-0.059,0.274-0.088,0.416h-1.487c0.001-0.171,0.002-0.341,0.004-0.512c0.023-2.472,0.059-4.957,0.106-7.454
	c0.008-0.417,0.017-0.835,0.025-1.253c0.052-2.533,0.114-5.077,0.19-7.639c0.009-0.313,0.02-0.629,0.03-0.943
	c0.083-2.695,0.177-5.404,0.288-8.135c0-0.012,0.001-0.023,0.002-0.035c0.111-2.742,0.239-5.507,0.378-8.289
	c0.014-0.286,0.027-0.571,0.042-0.857c0.135-2.658,0.285-5.338,0.445-8.035c0.025-0.429,0.051-0.857,0.077-1.286
	c0.161-2.653,0.335-5.327,0.521-8.021c0.031-0.451,0.063-0.904,0.095-1.356c0.192-2.733,0.395-5.484,0.612-8.262
	c0.027-0.344,0.056-0.692,0.083-1.037c0.232-2.924,0.474-5.867,0.734-8.844c1.054-12.095,2.786-24.809,5.146-37.789
	c0.059-0.322,0.089-0.647,0.106-0.973c4.95-26.843,13.973-61.587,31.313-108.829C315.654,115.161,315.336,123.035,315.021,130.821z"
	/>
<g>
</g>
<g>
</g>
<g>
</g>
<g>
</g>
<g>
</g>
<g>
</g>
<g>
</g>
<g>
</g>
<g>
</g>
<g>
</g>
<g>
</g>
<g>
</g>
<g>
</g>
<g>
</g>
<g>
</g>
</svg>
