<?xml version="1.0" encoding="iso-8859-1"?>
<!-- Generator: Adobe Illustrator 19.0.0, SVG Export Plug-In . SVG Version: 6.00 Build 0)  -->
<svg version="1.1" id="Capa_1" xmlns="http://www.w3.org/2000/svg" xmlns:xlink="http://www.w3.org/1999/xlink" x="0px" y="0px"
	 viewBox="0 0 512 512" style="enable-background:new 0 0 512 512;" xml:space="preserve">
<path style="fill:#80C56E;" d="M431.583,183.07c-9.327,82.487-89.998,182.443-175.57,182.443S89.77,265.557,80.443,183.07
	C70.008,90.777,148.085,7.5,256.013,7.5S442.018,90.777,431.583,183.07z"/>
<path style="fill:#66AD66;" d="M366.009,183.07c-5.843,82.487-56.385,182.443-109.996,182.443S151.861,265.557,146.017,183.07
	C139.48,90.777,188.395,7.5,256.013,7.5S372.547,90.777,366.009,183.07z"/>
<path style="fill:#80C56E;" d="M296.667,183.07c-2.16,82.487-20.839,182.443-40.653,182.443s-38.494-99.956-40.653-182.443
	C212.943,90.777,231.022,7.5,256.013,7.5S299.083,90.777,296.667,183.07z"/>
<path style="fill:#FEC37D;" d="M346.375,504.5H165.651c-14.466,0-26.942-10.163-29.868-24.331L103.7,324.789h304.626L376.243,480.17
	C373.318,494.337,360.842,504.5,346.375,504.5z"/>
<path style="fill:#F9AE5D;" d="M358.825,324.789L326.742,480.17c-2.925,14.167-15.401,24.331-29.867,24.331h49.501
	c14.466,0,26.942-10.163,29.867-24.331l32.083-155.381H358.825z"/>
<path style="fill:#F2A559;" d="M420.561,335.981H91.465c-2.782,0-5.037-2.255-5.037-5.037v-19.24c0-2.782,2.255-5.037,5.037-5.037
	h329.096c2.782,0,5.037,2.255,5.037,5.037v19.24C425.598,333.726,423.343,335.981,420.561,335.981z"/>
<path style="fill:#EA8F3D;" d="M420.561,306.668h-46.383v29.313h46.383c2.782,0,5.037-2.255,5.037-5.037v-19.24
	C425.598,308.923,423.343,306.668,420.561,306.668z"/>
<g>
	<circle style="fill:#66AD66;" cx="256.01" cy="68.31" r="7.757"/>
	<circle style="fill:#66AD66;" cx="256.01" cy="128.99" r="7.757"/>
	<circle style="fill:#66AD66;" cx="256.01" cy="189.66" r="7.757"/>
	<circle style="fill:#66AD66;" cx="256.01" cy="250.33" r="7.757"/>
</g>
<g>
	<circle style="fill:#80C56E;" cx="198.84" cy="68.31" r="7.757"/>
	<circle style="fill:#80C56E;" cx="181.48" cy="128.99" r="7.757"/>
	<circle style="fill:#80C56E;" cx="181.48" cy="189.66" r="7.757"/>
	<circle style="fill:#80C56E;" cx="191.08" cy="250.33" r="7.757"/>
	<circle style="fill:#80C56E;" cx="313.55" cy="68.31" r="7.757"/>
	<circle style="fill:#80C56E;" cx="330.9" cy="128.99" r="7.757"/>
	<circle style="fill:#80C56E;" cx="330.9" cy="189.66" r="7.757"/>
	<circle style="fill:#80C56E;" cx="321.31" cy="250.33" r="7.757"/>
</g>
<g>
	<circle style="fill:#66AD66;" cx="366.6" cy="68.31" r="7.757"/>
	<circle style="fill:#66AD66;" cx="397.62" cy="128.99" r="7.757"/>
	<circle style="fill:#66AD66;" cx="397.62" cy="189.66" r="7.757"/>
	<circle style="fill:#66AD66;" cx="382.11" cy="250.33" r="7.757"/>
	<circle style="fill:#66AD66;" cx="145.43" cy="68.31" r="7.757"/>
	<circle style="fill:#66AD66;" cx="114.4" cy="128.99" r="7.757"/>
	<circle style="fill:#66AD66;" cx="114.4" cy="189.66" r="7.757"/>
	<circle style="fill:#66AD66;" cx="129.92" cy="250.33" r="7.757"/>
</g>
<polygon style="fill:#F2A559;" points="346.723,417.61 301.362,389.61 256.007,417.61 210.65,389.61 165.295,417.61 
	116.667,387.588 126.667,436.019 165.295,459.868 210.65,431.867 256.007,459.868 301.362,431.867 346.723,459.868 385.359,436.019 
	395.359,387.589 "/>
<polygon style="fill:#EA8F3D;" points="346.723,459.868 385.359,436.019 391.485,406.35 395.359,387.589 346.723,417.61 
	340.458,413.743 332.719,451.223 "/>
<circle cx="256.01" cy="68.31" r="7.757"/>
<circle cx="256.01" cy="128.99" r="7.757"/>
<circle cx="256.01" cy="189.66" r="7.757"/>
<circle cx="256.01" cy="250.33" r="7.757"/>
<circle cx="198.84" cy="68.31" r="7.757"/>
<circle cx="181.48" cy="128.99" r="7.757"/>
<circle cx="181.48" cy="189.66" r="7.757"/>
<circle cx="191.08" cy="250.33" r="7.757"/>
<circle cx="313.55" cy="68.31" r="7.757"/>
<circle cx="330.9" cy="128.99" r="7.757"/>
<circle cx="330.9" cy="189.66" r="7.757"/>
<circle cx="321.31" cy="250.33" r="7.757"/>
<circle cx="366.6" cy="68.31" r="7.757"/>
<circle cx="397.62" cy="128.99" r="7.757"/>
<circle cx="397.62" cy="189.66" r="7.757"/>
<circle cx="382.11" cy="250.33" r="7.757"/>
<circle cx="145.43" cy="68.31" r="7.757"/>
<circle cx="114.4" cy="128.99" r="7.757"/>
<circle cx="114.4" cy="189.66" r="7.757"/>
<circle cx="129.92" cy="250.33" r="7.757"/>
<path d="M427.165,105.068c-1.65-3.799-6.069-5.539-9.868-3.889c-3.799,1.651-5.539,6.07-3.888,9.868
	c9.744,22.417,13.452,47.031,10.722,71.18c-4.402,38.928-25.414,82.418-56.392,116.941h-27.032
	c17.991-35.035,30.074-77.314,32.784-115.568c2.045-28.866-1.178-58.047-9.32-84.388c-8.022-25.951-20.629-48.65-36.461-65.643
	c-2.514-2.698-5.093-5.238-7.733-7.621c3.195,1.155,6.358,2.392,9.481,3.729c21.651,9.264,40.493,22.386,56.003,39.002
	c2.825,3.028,7.571,3.192,10.601,0.365c3.027-2.826,3.191-7.572,0.364-10.6c-16.942-18.149-37.487-32.468-61.067-42.557
	C310.726,5.345,284.03,0,256.013,0c-56.091,0-108.19,22.31-142.939,61.209c-30.886,34.574-45.12,78.151-40.083,122.703
	c4.318,38.195,23.314,80.264,51.613,115.255H91.466c-6.913,0-12.537,5.624-12.537,12.537v19.24c0,6.913,5.624,12.537,12.537,12.537
	h8.436l9.419,45.618c0,0.002,0,0.003,0.001,0.005l10,48.431c0,0.003,0.001,0.005,0.002,0.007l9.115,44.142
	C132.065,499.251,147.714,512,165.651,512h180.724c17.937,0,33.587-12.749,37.213-30.314l9.116-44.148c0-0.001,0-0.002,0-0.002
	l1.999-9.684l17.421-84.37h8.437c6.912,0,12.536-5.624,12.536-12.537v-19.24c0-6.913-5.624-12.537-12.536-12.537h-33.139
	c28.299-34.991,47.294-77.06,51.613-115.255C442.061,157.156,437.956,129.892,427.165,105.068z M316.735,43.794
	c29.591,31.761,45.605,84.926,41.792,138.746c-2.753,38.867-15.702,82.121-34.813,116.628h-31.886
	c6.771-34.933,11.331-77.49,12.336-115.902c1.006-38.397-1.518-76.984-7.106-108.653c-3.149-17.848-8.44-40.06-16.832-55.508
	C293.378,23.669,305.734,31.986,316.735,43.794z M256.013,15c1.932,0,3.959,1.665,5.318,3.061
	c8.162,8.378,15.8,29.941,20.955,59.159c5.418,30.709,7.862,68.231,6.883,105.654c-1.014,38.692-5.696,81.639-12.626,116.294h-41.06
	c-6.93-34.655-11.613-77.602-12.626-116.294c-0.98-37.423,1.465-74.945,6.883-105.654c5.154-29.218,12.792-50.781,20.955-59.159
	C252.054,16.665,254.081,15,256.013,15z M231.8,19.105c-8.392,15.448-13.683,37.66-16.832,55.508
	c-5.588,31.669-8.112,70.256-7.106,108.653c1.005,38.412,5.565,80.968,12.336,115.902h-31.886
	c-19.112-34.506-32.06-77.76-34.813-116.628c-3.813-53.82,12.201-106.985,41.792-138.746
	C206.292,31.986,218.649,23.669,231.8,19.105z M87.895,182.227c-4.551-40.25,8.364-79.679,36.365-111.024
	c18.108-20.271,41.41-35.628,67.648-45.126c-2.591,2.346-5.124,4.842-7.593,7.492c-15.831,16.993-28.439,39.691-36.461,65.643
	c-8.142,26.341-11.365,55.522-9.32,84.388c2.71,38.254,14.793,80.533,32.784,115.568h-27.032
	C113.309,264.645,92.298,221.155,87.895,182.227z M368.898,478.652C366.703,489.284,357.231,497,346.375,497H165.651
	c-10.856,0-20.328-7.716-22.523-18.347l-5.598-27.111l23.824,14.709c2.416,1.491,5.466,1.491,7.88,0l41.415-25.569l41.417,25.569
	c1.207,0.746,2.573,1.118,3.94,1.118c1.366,0,2.732-0.373,3.94-1.118l41.416-25.569l41.422,25.569c2.414,1.491,5.465,1.491,7.879,0
	l23.834-14.712L368.898,478.652z M378.668,431.335l-31.944,19.719l-41.422-25.569c-1.207-0.746-2.573-1.118-3.94-1.118
	s-2.732,0.373-3.94,1.118l-41.416,25.569l-41.417-25.569c-2.414-1.491-5.465-1.491-7.879,0l-41.415,25.569l-31.936-19.717
	l-5.828-28.227l33.824,20.883c2.416,1.491,5.466,1.49,7.88,0l41.415-25.569l41.417,25.569c2.414,1.491,5.465,1.491,7.879,0
	l41.416-25.569l41.422,25.569c2.414,1.491,5.465,1.491,7.879,0l33.833-20.884L378.668,431.335z M418.098,314.168v14.313h-12.06
	c-0.011,0-0.023,0-0.034,0H191.08c-4.143,0-7.5,3.358-7.5,7.5s3.358,7.5,7.5,7.5h205.729l-8.14,39.423l-41.945,25.892
	l-41.422-25.569c-2.414-1.491-5.465-1.491-7.879,0l-41.416,25.569l-41.417-25.569c-2.414-1.491-5.465-1.491-7.879,0l-41.415,25.569
	l-41.937-25.892l-8.14-39.423h22.457c4.143,0,7.5-3.358,7.5-7.5s-3.358-7.5-7.5-7.5h-31.643c-0.017,0-0.034,0-0.051,0H93.929
	v-14.313h47.042h42.967h45.437h53.277h45.437h42.967H418.098z"/>
<g>
</g>
<g>
</g>
<g>
</g>
<g>
</g>
<g>
</g>
<g>
</g>
<g>
</g>
<g>
</g>
<g>
</g>
<g>
</g>
<g>
</g>
<g>
</g>
<g>
</g>
<g>
</g>
<g>
</g>
</svg>
