<?xml version="1.0" encoding="iso-8859-1"?>
<!-- Generator: Adobe Illustrator 19.0.0, SVG Export Plug-In . SVG Version: 6.00 Build 0)  -->
<svg version="1.1" id="Capa_1" xmlns="http://www.w3.org/2000/svg" xmlns:xlink="http://www.w3.org/1999/xlink" x="0px" y="0px"
	 viewBox="0 0 511.999 511.999" style="enable-background:new 0 0 511.999 511.999;" xml:space="preserve">
<path style="fill:#80C56E;" d="M323.216,278.5h-38.69v-52.822h38.69c22.986,0,41.621-18.634,41.621-41.621V111.41
	c0-14.586,11.825-26.411,26.411-26.411l0,0c14.586,0,26.411,11.825,26.411,26.411v72.647
	C417.658,236.217,375.375,278.5,323.216,278.5z"/>
<path style="fill:#66AD66;" d="M391.247,85L391.247,85v100.57c0,35.768-28.996,64.764-64.764,64.764h-41.958V278.5h38.69
	c52.159,0,94.443-42.283,94.443-94.442v-72.647C417.658,96.825,405.833,85,391.247,85z"/>
<path style="fill:#80C56E;" d="M248.342,205.537h-94.473c-32.876,0-59.527-26.651-59.527-59.527V96.995
	c0-14.449,11.713-26.161,26.161-26.161l0,0c14.449,0,26.161,11.713,26.161,26.161v49.015c0,3.979,3.226,7.205,7.205,7.205h94.473
	L248.342,205.537L248.342,205.537z"/>
<path style="fill:#66AD66;" d="M152.542,177.52h95.8v-24.306h-94.473c-3.979,0-7.205-3.226-7.205-7.205V96.995
	c0-14.449-11.713-26.161-26.161-26.161l0,0v74.648C120.503,163.176,134.848,177.52,152.542,177.52z"/>
<path style="fill:#80C56E;" d="M255.748,7.5L255.748,7.5c-30.199,0-54.68,24.481-54.68,54.679v328.154h109.359V62.179
	C310.428,31.981,285.947,7.5,255.748,7.5z"/>
<path style="fill:#66AD66;" d="M255.748,7.5L255.748,7.5c-10.72,0-19.411,27.833-19.411,71.411v311.422h38.822V78.911
	C275.159,35.667,266.469,7.5,255.748,7.5z"/>
<path style="fill:#61A361;" d="M275.159,390.333V78.911c0-43.244-8.691-71.411-19.411-71.411v382.833H275.159z"/>
<path style="fill:#FEC37D;" d="M325.265,504.5H186.232c-18.597,0-33.672-15.076-33.672-33.672v-97.552h206.377v97.552
	C358.937,489.424,343.861,504.5,325.265,504.5z"/>
<path style="fill:#F9AE5D;" d="M307.525,373.276v97.552c0,18.597-15.076,33.672-33.672,33.672h51.412
	c18.597,0,33.672-15.076,33.672-33.672v-97.552H307.525z"/>
<path style="fill:#F2A559;" d="M371.062,387.406H140.435c-2.828,0-5.12-2.292-5.12-5.12v-18.02c0-2.828,2.292-5.12,5.12-5.12
	h230.627c2.828,0,5.12,2.292,5.12,5.12v18.02C376.182,385.114,373.89,387.406,371.062,387.406z"/>
<path style="fill:#EA8F3D;" d="M371.062,359.146h-45.63v28.26h45.63c2.828,0,5.12-2.292,5.12-5.12v-18.02
	C376.182,361.438,373.89,359.146,371.062,359.146z"/>
<path d="M391.247,77.5c-18.698,0-33.911,15.212-33.911,33.911v72.646c0,18.814-15.307,34.121-34.12,34.121h-5.288V62.18
	c0-34.286-27.894-62.18-62.18-62.18c-34.285,0-62.179,27.894-62.179,62.18v83.535h-39.404v-48.72
	c0-18.561-15.101-33.662-33.662-33.662S86.842,78.434,86.842,96.995v49.015c0,36.959,30.068,67.027,67.027,67.027h39.7v138.609
	h-53.135c-6.959,0-12.62,5.661-12.62,12.62v18.02c0,6.958,5.661,12.62,12.62,12.62h4.625v75.921
	c0,22.703,18.47,41.172,41.173,41.172h139.032c22.703,0,41.173-18.47,41.173-41.172v-75.921h4.625c6.959,0,12.62-5.662,12.62-12.62
	v-18.02c0-6.959-5.661-12.62-12.62-12.62h-53.135V286h5.288c56.211,0,101.942-45.731,101.942-101.942v-72.646
	C425.158,92.712,409.945,77.5,391.247,77.5z M243.838,78.911c0-42.926,8.335-61.1,11.896-63.733
	c3.42,2.583,11.488,19.915,11.908,60.523c0.043,4.116,3.393,7.422,7.498,7.422c0.026,0,0.054,0,0.08,0
	c4.142-0.043,7.465-3.436,7.422-7.577c-0.115-11.118-1.136-38.017-7.863-56.522c16.56,7.332,28.148,23.911,28.148,43.156v163.499
	V278.5v73.146h-20.269V128.875c0-4.142-3.357-7.5-7.5-7.5s-7.5,3.358-7.5,7.5v222.771h-23.821V78.911H243.838z M208.569,205.537
	v-52.323V62.18c0-19.209,11.545-35.762,28.056-43.115c-7,19.346-7.787,48.07-7.787,59.846v272.735h-20.269V205.537z M128.003,79.919
	c6.564,2.894,11.162,9.454,11.162,17.076v49.015c0,8.108,6.597,14.705,14.704,14.705h39.7v9.306h-41.027
	c-13.531,0-24.539-11.008-24.539-24.539L128.003,79.919L128.003,79.919z M153.869,198.037c-28.688,0-52.027-23.339-52.027-52.027
	V96.995c0-7.621,4.598-14.18,11.161-17.075v65.561c0,21.802,17.737,39.539,39.539,39.539h41.027v13.017L153.869,198.037
	L153.869,198.037z M368.683,366.646v13.26H233.75c-4.143,0-7.5,3.358-7.5,7.5s3.357,7.5,7.5,7.5h117.688v75.921
	c0,14.432-11.741,26.172-26.173,26.172H186.232c-14.432,0-26.173-11.741-26.173-26.172v-75.921h20.19c4.143,0,7.5-3.358,7.5-7.5
	s-3.357-7.5-7.5-7.5h-37.436v-13.26h58.255h35.269h38.821h35.269H368.683z M317.928,233.178h5.288
	c27.085,0,49.12-22.036,49.12-49.121v-72.646c0-7.763,4.706-14.443,11.411-17.352v91.51c0,31.576-25.688,57.264-57.264,57.264
	h-8.556v-9.655H317.928z M410.158,184.058c0,47.94-39.002,86.942-86.942,86.942h-5.288v-13.167h8.556
	c39.847,0,72.264-32.417,72.264-72.264v-91.51c6.706,2.91,11.411,9.589,11.411,17.352v72.647H410.158z"/>
<g>
</g>
<g>
</g>
<g>
</g>
<g>
</g>
<g>
</g>
<g>
</g>
<g>
</g>
<g>
</g>
<g>
</g>
<g>
</g>
<g>
</g>
<g>
</g>
<g>
</g>
<g>
</g>
<g>
</g>
</svg>
