<?xml version="1.0" encoding="iso-8859-1"?>
<!-- Generator: Adobe Illustrator 19.0.0, SVG Export Plug-In . SVG Version: 6.00 Build 0)  -->
<svg version="1.1" id="Capa_1" xmlns="http://www.w3.org/2000/svg" xmlns:xlink="http://www.w3.org/1999/xlink" x="0px" y="0px"
	 viewBox="0 0 512.001 512.001" style="enable-background:new 0 0 512.001 512.001;" xml:space="preserve">
<polygon style="fill:#80C56E;" points="217.682,388.794 192.987,380.07 180.123,354.771 161.619,332.869 158.416,304.457 
	145.306,278.74 145.961,245.661 135.547,214.076 138.722,172.435 130.917,131.331 145.163,111.562 166.272,97.657 185.385,111.609 
	199.926,129.833 194.802,169.458 204.288,208.354 197.921,231.067 205.266,253.073 209.462,289.827 225.515,320.861 
	231.789,288.518 225.318,255.125 231.789,223.182 225.318,191.24 231.789,166.433 225.318,141.626 231.789,114.195 225.318,86.764 
	231.789,63.744 225.318,40.724 239.651,21.927 258.778,7.5 279.328,21.09 294.323,40.095 287.851,63.43 294.323,86.764 
	287.851,115.215 294.323,143.665 287.851,167.792 294.323,191.919 287.851,224.541 294.323,257.163 287.851,289.343 
	294.323,321.523 306.125,307.311 308.047,286.965 316.989,263.544 310.712,238.872 318.413,211.545 312.076,183.897 
	325.959,165.159 344.753,150.932 364.107,166.175 381.085,183.087 374.461,212.916 379.578,243.009 367.911,283.374 
	362.986,324.975 343.602,350.994 329.512,379.93 308.263,387.987 "/>
<g>
	<path style="fill:#66AD66;" d="M254.406,251.387l5.339-60.831l4.369-47.231l-4.939-60.829L258.778,7.5l-19.127,14.427
		l-14.334,18.797l6.472,23.02l-6.472,23.02l6.472,27.431l-6.472,27.431l6.472,24.807l-6.472,24.807l6.472,31.942l-6.472,31.942
		l6.472,33.394l-6.274,32.342l-16.053-31.033l-4.197-36.754l-7.345-22.006l6.367-22.713l-9.486-38.896l5.124-39.625l-14.541-18.224
		L166.27,97.657c0,0-2.384,36.323,0,69.965c0.956,13.483,2.204,40.948,2.204,40.948l4.494,54.37l11.865,40.779l46.214,84.957
		l29.741-0.265l-0.313-59.205L254.406,251.387z"/>
	<polygon style="fill:#66AD66;" points="381.085,183.087 364.107,166.175 344.753,150.932 347.167,204.379 346.323,251.936 
		334.223,321.049 283.679,388.206 308.263,387.987 329.512,379.93 343.602,350.994 362.986,324.975 367.911,283.374 
		379.578,243.009 374.461,212.916 	"/>
</g>
<path style="fill:#FEC37D;" d="M314.616,504.5H205.06c-7.707,0-14.361-5.396-15.952-12.937l-23.018-109.08h187.496l-23.018,109.08
	C328.977,499.104,322.323,504.5,314.616,504.5z"/>
<path style="fill:#F9AE5D;" d="M307.575,382.483l-23.018,109.08c-1.591,7.541-8.245,12.937-15.952,12.937h46.011
	c7.707,0,14.361-5.396,15.952-12.937l23.018-109.08L307.575,382.483L307.575,382.483z"/>
<path style="fill:#F2A559;" d="M361.343,404h-203.01c-3.254,0-5.892-2.638-5.892-5.892v-16.853c0-3.254,2.638-5.892,5.892-5.892
	h203.01c3.254,0,5.892,2.638,5.892,5.892v16.853C367.235,401.362,364.597,404,361.343,404z"/>
<path style="fill:#EA8F3D;" d="M361.343,375.363h-44.931V404h44.931c3.254,0,5.892-2.638,5.892-5.892v-16.853
	C367.235,378.001,364.597,375.363,361.343,375.363z"/>
<path d="M386.378,177.774L369.4,160.862c-0.206-0.206-0.424-0.398-0.652-0.579l-19.354-15.243c-0.007-0.006-0.015-0.009-0.022-0.015
	c-0.308-0.241-0.636-0.456-0.98-0.647c-0.034-0.019-0.068-0.038-0.102-0.056c-0.339-0.182-0.692-0.34-1.059-0.469
	c-0.018-0.006-0.036-0.011-0.054-0.017c-0.361-0.123-0.733-0.221-1.116-0.288c-0.013-0.002-0.026-0.006-0.039-0.008
	c-0.356-0.06-0.721-0.091-1.092-0.099c-0.074-0.002-0.148-0.001-0.222-0.001c-0.098,0.001-0.194-0.006-0.292-0.001
	c-0.268,0.012-0.531,0.039-0.79,0.078c-0.013,0.002-0.025,0.005-0.038,0.008c-0.362,0.057-0.713,0.145-1.055,0.251
	c-0.055,0.017-0.109,0.032-0.163,0.05c-0.35,0.117-0.687,0.259-1.012,0.425c-0.05,0.025-0.098,0.053-0.148,0.079
	c-0.337,0.181-0.662,0.382-0.965,0.61c-0.006,0.004-0.012,0.007-0.018,0.011l-18.794,14.227c-0.57,0.431-1.075,0.941-1.5,1.515
	l-13.882,18.737c-1.305,1.761-1.773,4.004-1.284,6.14l5.909,25.782l-7.182,25.484c-0.357,1.268-0.375,2.607-0.05,3.883l5.691,22.368
	l-8.094,21.2c-0.242,0.633-0.396,1.295-0.46,1.97l-1.704,18.042l-0.295,0.355l-3.08-15.313l6.174-30.701
	c0.195-0.969,0.196-1.968,0.003-2.938l-6.182-31.163l6.182-31.163c0.224-1.128,0.186-2.292-0.112-3.402l-5.951-22.184l5.951-22.184
	c0.316-1.179,0.34-2.417,0.069-3.606l-6.093-26.787l6.093-26.786c0.275-1.211,0.246-2.471-0.086-3.668l-5.916-21.331l5.916-21.33
	c0.639-2.303,0.142-4.773-1.339-6.65l-14.995-19.005c-0.495-0.626-1.085-1.17-1.751-1.61L262.964,1.277
	c-0.006-0.004-0.012-0.008-0.017-0.011l-0.032-0.021c-0.012-0.008-0.025-0.012-0.036-0.02c-0.286-0.187-0.587-0.351-0.898-0.498
	c-0.052-0.025-0.103-0.051-0.155-0.074c-0.311-0.138-0.632-0.256-0.963-0.352c-0.059-0.017-0.118-0.03-0.176-0.045
	c-0.289-0.076-0.584-0.135-0.885-0.176c-0.057-0.008-0.114-0.02-0.172-0.026C259.349,0.02,259.066,0,258.778,0
	c-0.014,0-0.027,0-0.041,0c-0.04,0-0.078,0.006-0.118,0.007c-0.074,0.001-0.147,0.009-0.221,0.012
	c-0.292,0.015-0.578,0.045-0.86,0.092c-0.061,0.01-0.122,0.017-0.183,0.029c-0.338,0.065-0.668,0.153-0.988,0.262
	c-0.051,0.017-0.101,0.038-0.151,0.056c-0.311,0.113-0.613,0.244-0.904,0.395c-0.027,0.014-0.054,0.025-0.081,0.04
	c-0.31,0.167-0.604,0.358-0.885,0.565c-0.028,0.02-0.058,0.034-0.086,0.055L235.134,15.94c-0.546,0.412-1.033,0.896-1.447,1.44
	l-14.333,18.797c-1.429,1.874-1.894,4.31-1.256,6.578l5.901,20.99l-5.901,20.991c-0.344,1.224-0.371,2.515-0.08,3.752l6.065,25.708
	l-6.065,25.708c-0.281,1.19-0.266,2.432,0.042,3.615l5.978,22.914l-5.978,22.914c-0.288,1.105-0.32,2.263-0.093,3.382l6.17,30.453
	l-6.17,30.453c-0.195,0.962-0.199,1.953-0.012,2.916l6.195,31.967l-1.888,9.73l-5.505-10.642l-4.04-35.384
	c-0.059-0.518-0.172-1.029-0.337-1.523l-6.616-19.823l5.746-20.498c0.348-1.241,0.37-2.55,0.065-3.801l-9.155-37.541l4.945-38.241
	c0.261-2.016-0.308-4.051-1.576-5.64l-14.541-18.224c-0.417-0.522-0.901-0.986-1.44-1.38L170.693,91.6
	c-0.029-0.022-0.062-0.036-0.092-0.057c-0.27-0.192-0.551-0.368-0.847-0.524c-0.022-0.011-0.042-0.025-0.064-0.036
	c-0.302-0.155-0.617-0.285-0.942-0.398c-0.068-0.024-0.135-0.045-0.204-0.067c-0.299-0.095-0.603-0.175-0.918-0.233
	c-0.026-0.005-0.051-0.012-0.076-0.017c-0.258-0.044-0.521-0.077-0.789-0.095c-0.064-0.004-0.126,0-0.189-0.002
	c-0.096-0.004-0.192-0.003-0.288-0.003c-0.262,0-0.522,0.013-0.778,0.039c-0.077,0.008-0.155,0.01-0.232,0.02
	c-0.31,0.042-0.614,0.107-0.911,0.185c-0.102,0.027-0.203,0.058-0.304,0.089c-0.258,0.08-0.51,0.171-0.756,0.278
	c-0.072,0.031-0.144,0.059-0.215,0.092c-0.276,0.13-0.54,0.28-0.797,0.441c-0.048,0.03-0.1,0.05-0.147,0.081l-21.108,13.905
	c-0.762,0.502-1.425,1.138-1.958,1.878l-14.247,19.769c-1.204,1.67-1.668,3.762-1.284,5.784l7.62,40.126l-3.1,40.65
	c-0.075,0.987,0.046,1.979,0.355,2.919l10.013,30.369l-0.628,31.798c-0.024,1.234,0.256,2.455,0.816,3.555l12.491,24.504
	l3.051,27.06c0.166,1.475,0.766,2.867,1.724,4l17.943,21.237l4.534,8.917h-20.033c-7.384,0-13.392,6.008-13.392,13.392v16.853
	c0,7.384,6.008,13.392,13.392,13.392h6.215l17.222,81.612c2.31,10.944,12.105,18.888,23.291,18.888h109.555
	c11.186,0,20.981-7.944,23.291-18.889l17.222-81.611h6.215c7.384,0,13.392-6.008,13.392-13.392v-16.853
	c0-7.384-6.008-13.392-13.392-13.392H343.73l6.307-12.953L369,329.456c0.785-1.054,1.279-2.295,1.434-3.599l4.852-40.99
	l11.497-39.775c0.313-1.085,0.378-2.227,0.189-3.34l-4.871-28.645l6.306-28.394C388.963,182.206,388.198,179.587,386.378,177.774z
	 M267.213,191.247l4.369-47.231c0.04-0.432,0.042-0.866,0.007-1.298l-4.917-60.545L266.351,21.5l7.835,5.181l11.893,15.074
	l-5.455,19.67c-0.364,1.312-0.364,2.697,0,4.009l5.966,21.512l-6.052,26.605c-0.25,1.095-0.25,2.232,0,3.327l6.06,26.638
	l-5.991,22.333c-0.341,1.272-0.341,2.613,0,3.886l6.019,22.439l-6.131,30.908c-0.191,0.963-0.191,1.956,0,2.919l6.18,31.153
	l-6.177,30.711c-0.196,0.976-0.196,1.981,0,2.957l6.472,32.18c0.569,2.833,2.715,5.086,5.517,5.793c2.8,0.708,5.76-0.258,7.605-2.48
	l11.803-14.212c0.964-1.16,1.555-2.584,1.697-4.086l1.826-19.33l8.578-22.467c0.552-1.445,0.643-3.025,0.262-4.524l-5.782-22.724
	l7.156-25.392c0.341-1.209,0.373-2.485,0.092-3.709l-5.565-24.283l11.186-15.098l6.561-4.966l1.759,38.959l-0.829,46.736
	l-11.688,66.761l-37.544,49.884h-21.423l-0.205-38.698c-0.001-0.182-0.009-0.363-0.023-0.544l-6.022-77.198L267.213,191.247z
	 M168.816,329.768l-2.948-26.15c-0.101-0.895-0.362-1.764-0.771-2.565l-12.255-24.043l0.617-31.199
	c0.017-0.848-0.11-1.692-0.375-2.497l-9.944-30.161l3.062-40.146c0.05-0.659,0.013-1.321-0.11-1.97l-7.204-37.936l11.555-16.033
	l7.655-5.043c-0.31,9.129-0.546,21.618-0.249,35.083c0.09,4.085,3.43,7.334,7.495,7.334c0.056,0,0.113,0,0.169-0.002
	c4.141-0.091,7.424-3.522,7.333-7.664c-0.294-13.314-0.041-25.832,0.272-34.838l7.035,5.135l11.93,14.952l-4.716,36.471
	c-0.118,0.915-0.067,1.843,0.151,2.739l9.02,36.986l-5.836,20.821c-0.405,1.444-0.367,2.976,0.107,4.399l7.096,21.262l4.108,35.975
	c0.104,0.906,0.371,1.785,0.79,2.595l16.053,31.034c1.467,2.836,4.571,4.432,7.729,3.978c3.161-0.455,5.687-2.861,6.295-5.996
	l6.274-32.342c0.183-0.943,0.183-1.912,0-2.855l-6.188-31.935l6.176-30.486c0.199-0.983,0.199-1.996,0-2.979l-6.127-30.24
	l6.034-23.127c0.324-1.241,0.324-2.545,0-3.786l-6.001-23.004l6.044-25.618c0.267-1.133,0.267-2.312,0-3.444l-6.027-25.544
	l5.947-21.155c0.373-1.328,0.373-2.732,0-4.06l-5.459-19.418l11.439-15.002l6.366-4.802l0.317,60.044
	c0.001,0.189,0.009,0.379,0.024,0.567l4.887,60.179l-4.312,46.618l-5.339,60.831c-0.036,0.412-0.038,0.827-0.006,1.239l6.05,77.546
	l0.203,38.347h-24.915l-36.456-67.018l-11.428-39.276l-4.42-53.48c-0.031-0.669-0.17-3.704-0.375-7.951
	c-0.2-4.137-3.723-7.334-7.854-7.129c-4.137,0.2-7.329,3.716-7.129,7.854c0.232,4.799,0.379,8.042,0.38,8.047
	c0.004,0.092,0.01,0.185,0.018,0.277l4.494,54.37c0.042,0.5,0.133,0.996,0.273,1.478l11.865,40.778
	c0.15,0.517,0.355,1.016,0.613,1.489l32.943,60.561h-15.996l-8.385-16.491c-0.262-0.516-0.583-0.999-0.957-1.441L168.816,329.768z
	 M159.941,382.863h199.794V396.5l0,0c-0.026,0,0.026,0,0,0h-43.322c-4.142,0-7.5,3.358-7.5,7.5s3.358,7.5,7.5,7.5h23.385
	l-16.568,78.514c-0.854,4.048-4.477,6.986-8.614,6.986H205.06c-4.137,0-7.76-2.938-8.614-6.985L179.879,411.5h84.234
	c4.142,0,7.5-3.358,7.5-7.5s-3.358-7.5-7.5-7.5H159.941c-0.029,0,0.029,0,0,0l0,0V382.863 M367.067,214.173l4.83,28.402
	l-11.191,38.717c-0.114,0.393-0.195,0.794-0.243,1.201l-4.689,39.609l-18.186,24.411c-0.28,0.375-0.524,0.776-0.729,1.197
	l-9.813,20.153h-18.669l31.839-42.304c0.712-0.947,1.19-2.049,1.395-3.217l12.1-69.113c0.067-0.383,0.104-0.771,0.111-1.161
	l0.843-47.556c0.002-0.157,0-0.314-0.007-0.471l-1.674-37.079l6.139,4.835l13.745,13.692l-5.729,25.8
	C366.929,212.237,366.904,213.216,367.067,214.173z"/>
<g>
</g>
<g>
</g>
<g>
</g>
<g>
</g>
<g>
</g>
<g>
</g>
<g>
</g>
<g>
</g>
<g>
</g>
<g>
</g>
<g>
</g>
<g>
</g>
<g>
</g>
<g>
</g>
<g>
</g>
</svg>
