<?xml version="1.0" encoding="iso-8859-1"?>
<!-- Generator: Adobe Illustrator 19.0.0, SVG Export Plug-In . SVG Version: 6.00 Build 0)  -->
<svg version="1.1" id="Capa_1" xmlns="http://www.w3.org/2000/svg" xmlns:xlink="http://www.w3.org/1999/xlink" x="0px" y="0px"
	 viewBox="0 0 512.001 512.001" style="enable-background:new 0 0 512.001 512.001;" xml:space="preserve">
<path id="SVGCleanerId_0" style="fill:#FEEA9E;" d="M302.267,37.308c0,24.288-46.265,43.858-46.265,43.858
	s-46.265-19.57-46.265-43.858S230.45,7.5,256.002,7.5S302.267,13.021,302.267,37.308z"/>
<g>
	<path id="SVGCleanerId_0_1_" style="fill:#FEEA9E;" d="M302.267,37.308c0,24.288-46.265,43.858-46.265,43.858
		s-46.265-19.57-46.265-43.858S230.45,7.5,256.002,7.5S302.267,13.021,302.267,37.308z"/>
</g>
<path style="fill:#FEDD61;" d="M251.598,7.561c-1.444,0.041-2.869,0.103-4.272,0.187c-0.001,0-0.001,0-0.002,0
	c-0.728,1.081-18.702,28.396,4.256,71.379c2.73,1.324,4.42,2.039,4.42,2.039s1.398-0.592,3.705-1.695
	c23.598-43.64,4.571-71.522,4.412-71.755c-1.301-0.072-2.62-0.125-3.955-0.161c-0.056-0.001-0.112-0.002-0.168-0.004
	c-1.314-0.033-2.645-0.051-3.992-0.051c-1.477,0-2.937,0.02-4.377,0.06C251.616,7.56,251.607,7.561,251.598,7.561z"/>
<path style="fill:#80C56E;" d="M350.313,127.998c-14.689-64-94.311-61.5-94.311-61.5s-79.622-2.5-94.311,61.5
	c-5.377,23.428,1.8,69.238,13.061,117.904c9.24,39.933,21.23,81.79,31.289,114.781c11.171,36.636,19.961,62.342,19.961,62.342h30h30
	c0,0,8.313-24.311,19.045-59.345c9.406-30.706,20.669-69.648,29.821-107.68C347.463,203.658,356.061,153.041,350.313,127.998z"/>
<path style="fill:#66AD66;" d="M297.206,127.998c-6.418-64-41.204-61.5-41.204-61.5s-34.787-2.5-41.204,61.5
	c-2.349,23.428,0.787,69.238,5.706,117.904c4.037,39.933,9.275,81.79,13.67,114.781c4.88,36.637,8.721,62.342,8.721,62.342h13.107
	h13.107c0,0,3.632-24.311,8.321-59.345c4.109-30.706,9.03-69.648,13.029-107.68C295.961,203.658,299.718,153.041,297.206,127.998z"
	/>
<path style="fill:#4D984E;" d="M297.206,127.998c-6.418-64-41.204-61.5-41.204-61.5v356.527h13.107c0,0,3.632-24.311,8.321-59.345
	c4.109-30.706,9.03-69.648,13.029-107.68C295.961,203.658,299.718,153.041,297.206,127.998z"/>
<path style="fill:#FEC37D;" d="M304.48,504.5h-96.956c-6.969,0-12.895-5.083-13.958-11.97l-18.813-121.993H337.25L318.438,492.53
	C317.375,499.417,311.449,504.5,304.48,504.5z"/>
<path style="fill:#F9AE5D;" d="M289.75,370.537L270.938,492.53c-1.062,6.887-6.989,11.97-13.958,11.97h47.5
	c6.969,0,12.896-5.083,13.958-11.97l18.813-121.992H289.75V370.537z"/>
<path style="fill:#F2A559;" d="M348.554,383.483H163.45c-3.314,0-6.001-2.687-6.001-6.001v-22.481c0-3.314,2.687-6.001,6.001-6.001
	h185.103c3.314,0,6.001,2.687,6.001,6.001v22.481C354.555,380.796,351.868,383.483,348.554,383.483z"/>
<path style="fill:#EA8F3D;" d="M348.554,349h-44.822v34.483h44.822c3.314,0,6.001-2.687,6.001-6.001v-22.481
	C354.555,351.687,351.868,349,348.554,349z"/>
<path d="M348.554,341.5h-29.015c8.937-30.338,16.54-58.474,22.621-83.745c15.497-64.399,20.7-108.62,15.463-131.435
	c-6.619-28.837-26.524-49.646-57.565-60.175c-1.494-0.507-2.978-0.975-4.449-1.413c9.391-8.959,14.158-18.145,14.158-27.424
	C309.768,0,269.3,0,256.002,0c-13.298,0-53.766,0-53.766,37.309c0,9.279,4.767,18.464,14.158,27.424
	c-1.471,0.438-2.955,0.906-4.449,1.413c-31.041,10.529-50.946,31.337-57.565,60.175c-4.956,21.592-0.56,62.394,13.064,121.272
	c6.441,27.836,14.851,59.393,25.02,93.908h-29.015c-7.444,0-13.501,6.057-13.501,13.501v22.481c0,7.444,6.057,13.501,13.501,13.501
	h6.868l15.836,102.69c1.638,10.62,10.625,18.327,21.37,18.327h96.956c10.745,0,19.732-7.708,21.37-18.327l15.836-102.69h6.868
	c7.444,0,13.501-6.057,13.501-13.501v-22.481C362.055,347.557,355.998,341.5,348.554,341.5z M343.003,129.675
	c3.24,14.118,3.194,47.189-15.427,124.57c-6.306,26.203-14.264,55.531-23.677,87.255h-15.862c4.5-34.886,8.215-66.76,11.055-94.844
	c3.721-36.804,5.876-66.621,6.408-88.622c0.1-4.141-3.176-7.579-7.317-7.679c-4.148-0.144-7.579,3.176-7.679,7.316
	c-0.522,21.62-2.654,51.05-6.336,87.475c-2.878,28.465-6.661,60.849-11.254,96.353h-9.412V75.518
	c6.659,2.735,16.52,10.324,22.423,31.348c1.12,3.988,5.259,6.314,9.249,5.193c3.988-1.12,6.313-5.26,5.193-9.249
	c-2.896-10.313-6.709-18.2-10.889-24.239c1.896,0.53,3.821,1.119,5.762,1.778C321.462,89.245,337.532,105.841,343.003,129.675z
	 M276.548,16.885c15.587,3.573,18.219,11.756,18.219,20.424c0,6.818-6.251,15.031-17.673,23.3c-1.833-0.281-3.582-0.512-5.24-0.705
	C280.721,44.178,280.075,28.513,276.548,16.885z M251.786,15.066c1.359-0.039,2.751-0.066,4.216-0.066
	c1.268,0,2.482,0.02,3.669,0.049c3.407,6.867,9.397,24.067-3.938,42.216C242.409,39.131,248.378,21.945,251.786,15.066z
	 M248.502,75.614V341.5h-9.151c-4.055-31.346-7.489-60.342-10.216-86.284c-6.598-62.751-8.867-105.302-6.745-126.47
	C226.177,90.983,239.879,79.252,248.502,75.614z M234.872,17.03c-3.492,11.628-4.09,27.253,4.773,42.932
	c-1.506,0.181-3.09,0.395-4.736,0.647c-11.422-8.268-17.673-16.482-17.673-23.3C217.236,28.753,219.813,20.673,234.872,17.03z
	 M182.06,244.21c-16.327-70.555-16.113-101.228-13.059-114.535c5.442-23.71,21.379-40.26,47.37-49.191
	c2.163-0.743,4.309-1.397,6.422-1.981c-7.018,10.125-12.994,25.474-15.327,48.745c-2.225,22.185,0.047,65.767,6.751,129.535
	c2.683,25.525,6.048,53.992,10.01,84.716h-16.123C197.453,305.603,188.697,272.897,182.06,244.21z M321.983,420.333h-62.814
	c-4.142,0-7.5,3.358-7.5,7.5s3.358,7.5,7.5,7.5h60.5l-8.644,56.054c-0.501,3.252-3.254,5.613-6.545,5.613h-96.956
	c-3.291,0-6.043-2.361-6.545-5.613l-8.644-56.054h14c4.142,0,7.5-3.358,7.5-7.5s-3.358-7.5-7.5-7.5H190.02l-4.526-29.35h141.014
	L321.983,420.333z M347.055,356.5L347.055,356.5v19.483l0,0H164.949l0,0V356.5H347.055"/>
<g>
</g>
<g>
</g>
<g>
</g>
<g>
</g>
<g>
</g>
<g>
</g>
<g>
</g>
<g>
</g>
<g>
</g>
<g>
</g>
<g>
</g>
<g>
</g>
<g>
</g>
<g>
</g>
<g>
</g>
</svg>
