<?xml version="1.0" encoding="iso-8859-1"?>
<!-- Generator: Adobe Illustrator 19.0.0, SVG Export Plug-In . SVG Version: 6.00 Build 0)  -->
<svg version="1.1" id="Capa_1" xmlns="http://www.w3.org/2000/svg" xmlns:xlink="http://www.w3.org/1999/xlink" x="0px" y="0px"
	 viewBox="0 0 512 512" style="enable-background:new 0 0 512 512;" xml:space="preserve">
<path style="fill:#A7AEEE;" d="M203.032,150.544h97.241l0,0c38.611,30.713,61.109,77.357,61.109,126.693v187.456
	c0,21.971-17.811,39.782-39.782,39.782H181.704c-21.971,0-39.782-17.811-39.782-39.782V277.237
	C141.922,227.9,164.421,181.257,203.032,150.544L203.032,150.544z"/>
<path style="fill:#8C99E5;" d="M300.273,150.544L300.273,150.544h-49.84c38.611,30.713,61.109,77.357,61.109,126.693v187.456
	c0,21.971-17.811,39.782-39.782,39.782h49.84c21.971,0,39.782-17.811,39.782-39.782V277.237
	C361.383,227.9,338.884,181.257,300.273,150.544z"/>
<path style="fill:#C6C5CA;" d="M251.652,24.324c-4.156,0-7.525,3.369-7.525,7.525v71.241c0,4.156,3.369,7.525,7.525,7.525
	s7.525-3.369,7.525-7.525V31.849C259.177,27.693,255.808,24.324,251.652,24.324z"/>
<g>
	<path style="fill:#F2A559;" d="M224.748,41.853h53.809c0.532,0,1.003-0.343,1.166-0.85l10.261-31.878
		c0.255-0.791-0.335-1.6-1.166-1.6h-74.331c-0.831,0-1.421,0.81-1.166,1.6l10.261,31.878
		C223.745,41.51,224.216,41.853,224.748,41.853z"/>
	<path style="fill:#F2A559;" d="M181.667,86.374h-61.332c-4.156,0-7.525,3.369-7.525,7.525s3.369,7.525,7.525,7.525h61.332
		c4.156,0,7.525-3.369,7.525-7.525C189.192,89.743,185.824,86.374,181.667,86.374z"/>
	<rect x="166.72" y="82.3" style="fill:#F2A559;" width="38.752" height="23.19"/>
	<polygon style="fill:#F2A559;" points="190.983,162.248 311.543,162.248 296,105.494 206.526,105.494 	"/>
	<path style="fill:#F2A559;" d="M351.149,80.103c5.04,0,9.536,3.168,11.232,7.914l28.749,80.451c0.688,1.911,0.566,4.02-0.337,5.839
		l0,0c-2.553,5.141-9.716,5.585-12.885,0.799l-39.873-68.022h-69.703V80.103H351.149z"/>
</g>
<path style="fill:#E1EFFB;" d="M241.771,446.299h119.612V287.772H241.771c-4.948,0-8.959,4.011-8.959,8.959V437.34
	C232.812,442.288,236.823,446.299,241.771,446.299z"/>
<rect x="311.54" y="287.77" style="fill:#D2E7F7;" width="49.84" height="158.53"/>
<polygon style="fill:#EA8F3D;" points="251.263,162.248 311.543,162.248 296,105.494 251.263,105.494 "/>
<path style="fill:#FEC37D;" d="M200.767,113.732h100.992c2.965,0,5.369-2.404,5.369-5.369V78.824c0-2.965-2.404-5.369-5.369-5.369
	H200.767c-2.965,0-5.369,2.404-5.369,5.369v29.539C195.398,111.329,197.802,113.732,200.767,113.732z"/>
<path style="fill:#EA8F3D;" d="M288.818,7.525h-37.165v34.328h26.904c0.532,0,1.003-0.343,1.166-0.85l10.261-31.878
	C290.238,8.334,289.649,7.525,288.818,7.525z"/>
<path d="M276.367,377.755h-8.035c-4.156,0-7.525,3.369-7.525,7.525s3.369,7.525,7.525,7.525h8.035c4.156,0,7.525-3.369,7.525-7.525
	S280.523,377.755,276.367,377.755z"/>
<path d="M398.314,165.93l-28.747-80.446c-2.759-7.719-10.121-12.906-18.318-12.906H313.13c-2.203-3.96-6.428-6.649-11.272-6.649
	h-42.582V49.378h19.38c3.815,0,7.162-2.44,8.329-6.069l10.26-31.877c0.854-2.653,0.385-5.582-1.256-7.835
	C294.348,1.345,291.705,0,288.917,0h-74.33c-2.786,0-5.428,1.343-7.069,3.593c-1.641,2.251-2.113,5.178-1.261,7.838l10.261,31.874
	c1.168,3.632,4.515,6.072,8.33,6.072h19.379V65.93h-43.36c-5.696,0-10.533,3.717-12.235,8.849h-21.817
	c-4.156,0-7.525,3.369-7.525,7.525v4.07h-38.855c-4.156,0-7.525,3.369-7.525,7.525s3.369,7.525,7.525,7.525h38.855v4.07
	c0,4.156,3.369,7.525,7.525,7.525h22.041c1.097,2.821,3.152,5.165,5.772,6.62l-11.366,38.699
	c-7.891,8.008-15.011,16.815-21.162,26.226c-2.273,3.479-1.296,8.142,2.182,10.415c3.48,2.274,8.141,1.297,10.416-2.182
	c5.38-8.231,11.564-15.964,18.412-23.025h117.285c27.72,28.605,43.563,67.594,43.563,107.464v3.01H241.771
	c-9.09,0-16.484,7.395-16.484,16.484v140.61c0,9.089,7.395,16.483,16.484,16.483h112.186v10.869
	c0,17.787-14.471,32.257-32.258,32.257H181.804c-17.787,0-32.258-14.47-32.258-32.257V277.237c0-12.298,1.476-24.588,4.385-36.529
	c0.984-4.038-1.492-8.108-5.53-9.092c-4.041-0.986-8.11,1.492-9.093,5.53c-3.193,13.106-4.812,26.595-4.812,40.091v187.456
	c0,26.085,21.222,47.307,47.308,47.307H321.7c26.086,0,47.308-21.222,47.308-47.307V277.237c0-44.228-17.77-87.456-48.802-118.938
	l-11.919-38.774c2.025-1.171,3.706-2.869,4.844-4.915h20.693l37.692,64.303c0.07,0.119,0.142,0.235,0.217,0.349
	c2.813,4.248,7.414,6.709,12.45,6.709c0.319,0,0.642-0.01,0.964-0.03c5.409-0.335,10.075-3.433,12.486-8.286
	C399.437,174.021,399.685,169.749,398.314,165.93z M223.232,15.05h57.039l-6.205,19.278h-44.628L223.232,15.05z M241.771,438.774
	c-0.791,0-1.434-0.643-1.434-1.433v-140.61c0-0.791,0.644-1.434,1.434-1.434h112.086v39.13h-85.526
	c-4.156,0-7.525,3.369-7.525,7.525s3.369,7.525,7.525,7.525h85.526v28.278h-24.298c-4.156,0-7.525,3.369-7.525,7.525
	s3.369,7.525,7.525,7.525h24.298v45.969H241.771z M203.022,80.98h96.681v25.227l0,0h-96.681l0,0l0,0V80.98L203.022,80.98z
	 M174.34,89.829h13.632v8.14H174.34V89.829z M200.009,154.723l9.83-33.466h83.235l10.287,33.466H200.009z M344.627,103.279
	c-1.351-2.304-3.821-3.719-6.492-3.719h-23.381V87.629h36.496c1.855,0,3.521,1.174,4.146,2.921l28.469,79.669L344.627,103.279z"/>
<g>
</g>
<g>
</g>
<g>
</g>
<g>
</g>
<g>
</g>
<g>
</g>
<g>
</g>
<g>
</g>
<g>
</g>
<g>
</g>
<g>
</g>
<g>
</g>
<g>
</g>
<g>
</g>
<g>
</g>
</svg>
