<?xml version="1.0" encoding="iso-8859-1"?>
<!-- Generator: Adobe Illustrator 19.0.0, SVG Export Plug-In . SVG Version: 6.00 Build 0)  -->
<svg version="1.1" id="Capa_1" xmlns="http://www.w3.org/2000/svg" xmlns:xlink="http://www.w3.org/1999/xlink" x="0px" y="0px"
	 viewBox="0 0 512.001 512.001" style="enable-background:new 0 0 512.001 512.001;" xml:space="preserve">
<path style="fill:#EF4246;" d="M132.45,39.281h48.234V12.983H132.45c-2.226,0-4.03,1.804-4.03,4.03v18.238
	C128.42,37.477,130.224,39.281,132.45,39.281z"/>
<rect x="230.669" y="86.66" style="fill:#E0E0E2;" width="47.672" height="52.949"/>
<rect x="254.499" y="86.66" style="fill:#C6C5CA;" width="23.836" height="52.949"/>
<polygon style="fill:#EF4246;" points="168.207,35.046 145.997,129.924 160.238,129.924 203.3,39.732 "/>
<path style="fill:#FC5759;" d="M309.903,51.041l-26.027,37.486c-1.214,1.748-3.207,2.791-5.335,2.791h-48.535
	c-2.736,0-5.178-1.714-6.108-4.287l-9.123-25.242c-2.536-9.155-10.869-15.493-20.369-15.493h-30.238
	c-3.045,0-5.513-2.468-5.513-5.513v-27.78c0-3.045,2.468-5.513,5.513-5.513h132.368c8.87,0,16.061,7.191,16.061,16.061v17.286
	C312.597,44.414,311.668,47.93,309.903,51.041z"/>
<path style="fill:#D2E7F7;" d="M315.538,190.206L315.538,190.206c-13.63-11.352-25.506-28.173-25.506-45.911v-7.934h-68.066v7.934
	c0,17.738-11.876,34.559-25.506,45.91l0,0c-45.825,38.167-72.334,94.713-72.359,154.35c-0.022,54.325-0.035,111.974-0.035,111.974
	c0,26.499,21.481,47.98,47.98,47.98h167.903c26.499,0,47.98-21.481,47.98-47.98c0,0-0.013-57.648-0.035-111.973
	C387.872,284.919,361.363,228.372,315.538,190.206z"/>
<path style="fill:#BAD7F2;" d="M387.896,344.556c-0.024-59.638-26.533-116.184-72.359-154.351l0,0
	c-13.63-11.352-25.506-28.173-25.506-45.91v-7.934h-33.785l0,0v7.934c0,5.055,1.197,11.462,2.908,18.04
	c4.807,18.476,14.614,35.2,27.824,48.983c34.59,36.088,50.133,81.207,50.154,133.442c0.014,34.781,0.024,83.895,0.03,114.681
	c0.002,13.312-10.789,24.098-24.101,24.098H172.047c-26.431,0-47.866-21.373-47.975-47.779c-0.003,12.8-0.005,20.771-0.005,20.771
	c0,26.499,21.481,47.98,47.98,47.98h117.142h50.762c26.499,0,47.98-21.481,47.98-47.98v-0.042
	C387.931,456.444,387.911,381.716,387.896,344.556z"/>
<path style="fill:#C6C5CA;" d="M297.281,151.898h-82.002c-3.219,0-5.829-2.61-5.829-5.829v-19.416c0-3.219,2.61-5.829,5.829-5.829
	h82.003c3.219,0,5.829,2.61,5.829,5.829v19.416C303.11,149.288,300.501,151.898,297.281,151.898z"/>
<g>
	<path style="fill:#FEC37D;" d="M243.125,40.446h25.747c4.137,0,7.49-3.353,7.49-7.49s-3.353-7.49-7.49-7.49h-25.747
		c-4.137,0-7.49,3.353-7.49,7.49S238.988,40.446,243.125,40.446z"/>
	<path style="fill:#FEC37D;" d="M268.873,49.435h-25.747c-4.137,0-7.49,3.353-7.49,7.49s3.353,7.49,7.49,7.49h25.747
		c4.137,0,7.49-3.353,7.49-7.49S273.01,49.435,268.873,49.435z"/>
</g>
<circle style="fill:#FFFFFF;" cx="256.279" cy="350.03" r="80.889"/>
<path style="fill:#B4DBF3;" d="M256.28,302.229c0,0-30.93,31.441-30.93,58.484c0,17.082,13.848,30.93,30.93,30.93
	s30.93-13.848,30.93-30.93C287.21,333.67,256.28,302.229,256.28,302.229z"/>
<path style="fill:#ACABB1;" d="M297.281,120.824h-42.78v31.074h42.78c3.219,0,5.829-2.61,5.829-5.829v-19.416
	C303.11,123.434,300.5,120.824,297.281,120.824z"/>
<path d="M395.405,397.81c-0.001-4.136-3.354-7.488-7.49-7.488c-0.001,0-0.001,0-0.002,0c-4.137,0.001-7.489,3.355-7.488,7.493
	l0.016,58.715c0,22.326-18.163,40.49-40.49,40.49H172.048c-22.327,0-40.49-18.163-40.49-40.488l0.017-59.643
	c0.001-4.137-3.351-7.491-7.488-7.493c-0.001,0-0.001,0-0.002,0c-4.135,0-7.489,3.352-7.49,7.488l-0.017,59.647
	c0,30.586,24.884,55.47,55.471,55.47h167.903c30.586,0,55.471-24.884,55.471-55.471L395.405,397.81z"/>
<path d="M191.667,184.45c-47.673,39.706-75.03,98.061-75.055,160.103c-0.002,4.137,3.35,7.492,7.487,7.493c0.001,0,0.002,0,0.003,0
	c4.135,0,7.488-3.352,7.49-7.487c0.023-57.583,25.415-111.745,69.662-148.598c12.632-10.52,21.793-23.569,25.837-36.574h57.816
	c4.043,13.004,13.205,26.053,25.837,36.574c44.247,36.853,69.638,91.015,69.662,148.598c0.002,4.136,3.355,7.487,7.49,7.487
	c0.001,0,0.002,0,0.003,0c4.137-0.001,7.489-3.356,7.487-7.493c-0.025-62.042-27.382-120.397-75.055-160.104
	c-9.111-7.588-15.968-16.557-19.675-25.512c5.713-1.5,9.944-6.693,9.944-12.869v-19.416c0-7.344-5.975-13.319-13.319-13.319h-12.453
	V97.301c2.052-1.034,3.852-2.562,5.199-4.503l26.027-37.486c0.13-0.186,0.25-0.377,0.362-0.574c2.401-4.23,3.671-9.037,3.671-13.902
	V23.551C320.087,10.565,309.522,0,296.535,0H164.167c-4.372,0-8.237,2.175-10.596,5.493H132.45c-6.353,0-11.521,5.168-11.521,11.52
	v18.238c0,6.352,5.168,11.52,11.521,11.52h20.187c0.964,1.847,2.357,3.432,4.048,4.628l-17.982,76.818
	c-0.521,2.227,0.003,4.569,1.424,6.361c1.421,1.792,3.582,2.837,5.869,2.837h14.241c2.886,0,5.516-1.658,6.76-4.263l36.307-76.043
	c1.999,1.721,3.514,4.015,4.252,6.679c0.051,0.184,0.109,0.367,0.174,0.547l9.124,25.244c1.668,4.612,5.634,7.951,10.316,8.928
	v14.829h-11.891c-7.345,0-13.319,5.975-13.319,13.319v19.416c0,5.993,3.98,11.071,9.435,12.738
	C207.7,167.805,200.823,176.825,191.667,184.45z M151.164,31.791H135.91V20.473h15.254V31.791z M155.514,122.434h-0.071
	l16.071-68.649h16.778L155.514,122.434z M221.908,59.491c-2.778-9.624-10.387-16.921-19.719-19.578
	c-0.148-0.049-0.293-0.104-0.444-0.145c-0.068-0.018-0.136-0.03-0.204-0.047c-0.233-0.06-0.47-0.108-0.705-0.163
	c-0.448-0.104-0.897-0.2-1.349-0.282c-0.281-0.051-0.564-0.097-0.848-0.139c-0.452-0.068-0.904-0.123-1.357-0.17
	c-0.251-0.026-0.499-0.055-0.751-0.074c-0.709-0.054-1.418-0.088-2.127-0.088h-28.261V14.98h130.391
	c4.726,0,8.572,3.845,8.572,8.571v17.286c0,2.176-0.543,4.327-1.572,6.242l-25.515,36.748h-0.682h-42.678h-3.957L221.908,59.491z
	 M269.848,98.807v14.527H242.15V98.807H269.848z M216.939,128.314L216.939,128.314h78.681l0,0v16.093l0,0h-78.681l0,0V128.314z"/>
<path d="M243.125,40.446h25.747c4.137,0,7.49-3.353,7.49-7.49s-3.353-7.49-7.49-7.49h-25.747c-4.137,0-7.49,3.353-7.49,7.49
	S238.988,40.446,243.125,40.446z"/>
<path d="M243.125,64.415h25.747c4.137,0,7.49-3.353,7.49-7.49s-3.353-7.49-7.49-7.49h-25.747c-4.137,0-7.49,3.353-7.49,7.49
	S238.988,64.415,243.125,64.415z"/>
<path d="M256.28,261.649c-48.732,0-88.379,39.647-88.379,88.379s39.647,88.379,88.379,88.379s88.379-39.647,88.379-88.379
	S305.012,261.649,256.28,261.649z M256.28,423.427c-40.473,0-73.399-32.927-73.399-73.399s32.926-73.399,73.399-73.399
	s73.399,32.927,73.399,73.399S296.753,423.427,256.28,423.427z"/>
<path d="M261.619,296.977c-1.408-1.431-3.332-2.237-5.34-2.237s-3.931,0.806-5.34,2.237c-0.335,0.34-8.284,8.461-16.296,20.109
	c-11.138,16.19-16.784,30.868-16.784,43.628c0,21.185,17.235,38.42,38.42,38.42s38.42-17.235,38.42-38.42
	c0-12.76-5.647-27.439-16.784-43.628C269.903,305.438,261.954,297.316,261.619,296.977z M256.28,384.153
	c-12.924,0-23.44-10.515-23.44-23.44c0-16.094,14.002-36.141,23.446-47.319c9.443,11.158,23.434,31.176,23.434,47.319
	C279.72,373.638,269.204,384.153,256.28,384.153z"/>
<g>
</g>
<g>
</g>
<g>
</g>
<g>
</g>
<g>
</g>
<g>
</g>
<g>
</g>
<g>
</g>
<g>
</g>
<g>
</g>
<g>
</g>
<g>
</g>
<g>
</g>
<g>
</g>
<g>
</g>
</svg>
