<?xml version="1.0" encoding="iso-8859-1"?>
<!-- Generator: Adobe Illustrator 19.0.0, SVG Export Plug-In . SVG Version: 6.00 Build 0)  -->
<svg version="1.1" id="Capa_1" xmlns="http://www.w3.org/2000/svg" xmlns:xlink="http://www.w3.org/1999/xlink" x="0px" y="0px"
	 viewBox="0 0 512 512" style="enable-background:new 0 0 512 512;" xml:space="preserve">
<path style="fill:#E0E0E2;" d="M306.407,265.256l-100.904-0.05c-27.182-0.013-49.207-22.06-49.193-49.242l0.043-86.374
	c0.011-22.766,9.105-44.586,25.264-60.622l53.158-52.752C246.57,4.511,265.6,4.521,277.383,16.237l53.105,52.805
	c16.143,16.052,25.215,37.881,25.204,60.647l-0.043,86.374C355.636,243.245,333.589,265.27,306.407,265.256z"/>
<path style="fill:#D1D1D3;" d="M355.686,129.427L355.686,129.427c-0.058-22.67-9.117-44.394-25.198-60.384l-53.105-52.805
	c-5.69-5.658-13.071-8.577-20.51-8.774c19.555,31.117,48.108,83.229,48.108,122.226l-0.043,86.374c0,0.142-0.001,0.284-0.002,0.426
	c-0.177,19.735-16.467,35.538-36.203,35.528l-63.23-0.031c-27.095-0.013-49.06-21.921-49.187-48.983l-0.006,12.962
	c-0.013,27.182,22.011,49.229,49.193,49.242l100.904,0.05c27.182,0.013,49.229-22.011,49.242-49.193l0.043-86.374
	C355.692,129.602,355.686,129.514,355.686,129.427z"/>
<path style="fill:#C6C5CA;" d="M271.342,333.769l-30.841-0.015l0.034-69.15l8.184-56.679c1.212-8.391,13.325-8.385,14.528,0.007
	l8.128,56.687L271.342,333.769z"/>
<path style="fill:#A7AEEE;" d="M274.234,361.405l-36.653-0.018c-2.449-0.001-4.433-1.987-4.432-4.436l0.014-30.688
	c0.001-2.449,1.987-4.433,4.436-4.432l36.653,0.018c2.449,0.001,4.433,1.987,4.432,4.436l-0.014,30.688
	C278.669,359.422,276.683,361.406,274.234,361.405z"/>
<path style="fill:#8C99E5;" d="M274.252,321.848l-18.341-0.009v39.556l18.323,0.009c2.449,0.001,4.435-1.983,4.436-4.432
	l0.014-30.688C278.685,323.836,276.701,321.85,274.252,321.848z"/>
<path style="fill:#D18754;" d="M279.218,345.902l-46.606-0.023c-4.012-0.002-7.266,3.249-7.268,7.261l-0.06,120.795
	c-0.008,16.882,13.67,30.574,30.552,30.582l0,0c16.882,0.008,30.574-13.67,30.582-30.552l0.06-120.795
	C286.481,349.158,283.23,345.904,279.218,345.902z M264.781,479.753c-4.849,4.849-12.71,4.849-17.559,0s-4.849-12.711,0-17.559
	c4.849-4.849,12.71-4.849,17.559,0C269.63,467.042,269.63,474.904,264.781,479.753z"/>
<path style="fill:#BC723F;" d="M279.218,345.902l-23.342-0.012v112.672c3.219-0.032,6.448,1.174,8.905,3.631
	c4.849,4.849,4.849,12.711,0,17.559c-2.456,2.456-5.685,3.663-8.905,3.631v21.132c16.863-0.013,30.534-13.682,30.543-30.551
	l0.06-120.795C286.481,349.158,283.23,345.904,279.218,345.902z"/>
<path d="M235.753,471.009c0,11.095,9.027,20.122,20.123,20.122c11.095,0,20.122-9.027,20.122-20.122s-9.027-20.122-20.122-20.122
	C244.78,450.887,235.753,459.914,235.753,471.009z M261.031,471.009c0,2.842-2.313,5.155-5.155,5.155
	c-2.843,0-5.156-2.313-5.156-5.155s2.313-5.155,5.156-5.155C258.719,465.854,261.031,468.167,261.031,471.009z"/>
<path d="M335.764,63.736l-53.105-52.805c-14.648-14.565-38.494-14.575-53.156-0.026l-53.158,52.752
	c-17.449,17.317-27.464,41.347-27.476,65.93c-0.002,4.134,3.347,7.486,7.48,7.488c0.002,0,0.002,0,0.004,0
	c4.131,0,7.482-3.348,7.484-7.48c0.01-20.625,8.412-40.786,23.052-55.314l53.158-52.753c8.842-8.775,23.225-8.769,32.06,0.016
	l53.105,52.805c14.625,14.542,23.008,34.712,22.997,55.336l-0.043,86.374c-0.006,11.148-4.352,21.626-12.238,29.505
	c-7.882,7.874-18.355,12.209-29.495,12.209c-0.007,0-0.015,0-0.021,0l-28.459-0.014l-7.297-50.889
	c-1.073-7.485-7.104-12.715-14.665-12.719c-0.003,0-0.005,0-0.009,0c-7.557,0-13.589,5.223-14.669,12.704l-7.347,50.881
	l-28.459-0.014c-23.012-0.012-41.725-18.743-41.714-41.755l0.016-32.408c0.002-4.134-3.347-7.486-7.48-7.488
	c-0.001,0-0.002,0-0.004,0c-4.131,0-7.482,3.348-7.484,7.48l-0.016,32.409c-0.015,31.265,25.408,56.714,56.674,56.729l27.548,0.013
	l-0.021,41.648c-1.933,0.036-3.781,0.813-5.152,2.183c-1.404,1.403-2.193,3.306-2.194,5.291l-0.008,18.296
	c-1.268,0.677-2.442,1.545-3.488,2.589c-2.787,2.784-4.323,6.487-4.325,10.426l-0.058,120.796
	c-0.005,10.164,3.948,19.721,11.131,26.911s16.737,11.153,26.901,11.158c0.007,0,0.013,0,0.019,0
	c10.156,0,19.706-3.953,26.892-11.131c7.19-7.183,11.153-16.737,11.158-26.9l0.017-33.14c0.002-4.133-3.347-7.486-7.48-7.488
	c-0.001,0-0.002,0-0.004,0c-4.131,0-7.482,3.348-7.484,7.48l-0.017,33.14c-0.003,6.166-2.407,11.962-6.769,16.319
	c-4.36,4.355-10.153,6.753-16.314,6.753c-0.004,0-0.008,0-0.012,0c-6.166-0.003-11.962-2.407-16.319-6.769
	c-4.358-4.362-6.756-10.16-6.753-16.326l0.059-120.576l0,0c0.002,0,0,0,0.002,0l0,0l46.165,0.023l-0.017,34.052
	c-0.002,4.133,3.347,7.486,7.48,7.488c0.001,0,0.002,0,0.004,0c4.131,0,7.482-3.348,7.484-7.48l0.017-34.273
	c0.003-5.623-3.161-10.52-7.801-13.009l0.008-18.31c0.002-4.084-3.27-7.4-7.335-7.48l0.021-41.648l27.548,0.014
	c0.01,0,0.019,0,0.029,0c15.134,0,29.365-5.89,40.073-16.587c10.715-10.705,16.62-24.94,16.628-40.086l0.043-86.374
	C363.188,105.11,353.197,81.069,335.764,63.736z M248.018,265.23L248.018,265.23l7.964-55.239l7.909,55.16l-0.024,49.209
	l-15.873-0.008l0,0L248.018,265.23z M271.195,338.415l-30.554-0.015l0,0l0.004-9.084l0,0l30.554,0.015L271.195,338.415z"/>
<g>
</g>
<g>
</g>
<g>
</g>
<g>
</g>
<g>
</g>
<g>
</g>
<g>
</g>
<g>
</g>
<g>
</g>
<g>
</g>
<g>
</g>
<g>
</g>
<g>
</g>
<g>
</g>
<g>
</g>
</svg>
