<?xml version="1.0" encoding="iso-8859-1"?>
<!-- Generator: Adobe Illustrator 19.0.0, SVG Export Plug-In . SVG Version: 6.00 Build 0)  -->
<svg version="1.1" id="Capa_1" xmlns="http://www.w3.org/2000/svg" xmlns:xlink="http://www.w3.org/1999/xlink" x="0px" y="0px"
	 viewBox="0 0 512.001 512.001" style="enable-background:new 0 0 512.001 512.001;" xml:space="preserve">
<polygon style="fill:#75B8DB;" points="240.646,382.921 176.906,425.634 31.265,167.593 54.159,152.955 "/>
<g>
	<path style="fill:#96CBEB;" d="M8.362,175.388l30.727,23.372c0.729,0.554,1.722,0.608,2.506,0.136l39.436-23.734
		c0.784-0.472,1.202-1.375,1.053-2.278L75.82,134.79c-0.256-1.559-2.005-2.367-3.358-1.553l-63.9,38.456
		C7.209,172.508,7.104,174.431,8.362,175.388z"/>
	<path style="fill:#96CBEB;" d="M375.268,438.041H174.982c-15.666,0-27.754-13.786-25.706-29.318l39.917-302.742h171.864
		l39.917,302.742C403.022,424.255,390.934,438.041,375.268,438.041z"/>
</g>
<path style="fill:#75B8DB;" d="M400.974,408.723l-39.917-302.743h-48.442l38.826,288.454c1.283,9.534-6.131,18.014-15.751,18.014
	H174.982c-11.01,0-20.244-6.812-24.055-16.251l-1.652,12.526c-2.048,15.532,10.04,29.318,25.706,29.318h151.844h48.442
	C390.934,438.041,403.022,424.255,400.974,408.723z"/>
<path style="fill:#96CBEB;" d="M368.574,108.977H181.675c-7.328,0-13.268-5.94-13.268-13.268v-8.481
	c0-7.328,5.94-13.268,13.268-13.268h186.899c7.328,0,13.268,5.94,13.268,13.268v8.481
	C381.843,103.037,375.902,108.977,368.574,108.977z"/>
<path style="fill:#75B8DB;" d="M368.574,91.469H181.675c-5.74,0-10.615-3.652-12.464-8.754c-0.511,1.411-0.805,2.926-0.805,4.514
	v8.481c0,7.328,5.94,13.268,13.268,13.268h186.899c7.328,0,13.268-5.94,13.268-13.268v-8.481c0-1.588-0.293-3.103-0.805-4.514
	C379.189,87.817,374.315,91.469,368.574,91.469z"/>
<path d="M504.891,143.14c-8.741-17.852-24.717-31.217-43.833-36.669c-6.251-1.782-12.722-2.685-19.235-2.685
	c-12.299,0-25.548,3.326-33.745,8.469l-35.704,22.35l-2.402-18.22c10.788-0.724,19.35-9.708,19.35-20.676v-8.481
	c0-11.44-9.307-20.747-20.747-20.747h-19.347c-4.13,0-7.479,3.348-7.479,7.479s3.348,7.479,7.479,7.479h19.347
	c3.193,0,5.79,2.597,5.79,5.79v8.481c0,3.192-2.597,5.789-5.79,5.789l0,0h-186.9l0,0c-3.193,0-5.79-2.597-5.79-5.789v-8.481
	c0-3.193,2.597-5.79,5.79-5.79h114.688c4.13,0,7.479-3.348,7.479-7.479s-3.348-7.479-7.479-7.479H181.675
	c-11.44,0-20.747,9.307-20.747,20.747v8.481c0,10.968,8.561,19.951,19.349,20.676L159.838,271.4l-73.626-90.791
	c2.553-2.184,3.812-5.537,3.251-8.938l-6.264-38.095c-0.523-3.181-2.583-5.888-5.51-7.241c-2.927-1.354-6.323-1.169-9.084,0.495
	l-63.9,38.456c-2.762,1.663-4.516,4.577-4.691,7.796c-0.175,3.22,1.253,6.307,3.819,8.259l30.728,23.372
	c1.739,1.322,3.802,1.992,5.875,1.992c1.309,0,2.621-0.27,3.859-0.808l100.663,178.351l-3.098,23.498
	c-1.258,9.539,1.659,19.158,8.002,26.392s15.498,11.383,25.119,11.383h200.286c9.621,0,18.776-4.149,25.119-11.383
	s9.259-16.853,8.002-26.392l-7.112-53.937c16.63-54.233,67.607-106.794,90.845-130.755
	C512.75,201.786,517.881,169.671,504.891,143.14z M195.355,116.456h159.539l8.63,65.45H186.725L195.355,116.456z M40.786,190.654
	l-21.745-16.539l50.653-30.484l4.433,26.958L40.786,190.654z M148.212,359.58L57.16,198.257l16.201-9.75l83.785,103.319
	L148.212,359.58z M389.14,424.276c-3.503,3.995-8.559,6.286-13.872,6.286H174.982c-5.313,0-10.37-2.291-13.872-6.286
	c-3.503-3.995-5.114-9.308-4.42-14.576l23.005-174.474h22.211c4.13,0,7.479-3.348,7.479-7.479c0-4.13-3.348-7.479-7.479-7.479
	h-20.239l3.086-23.406h180.743l3.086,23.406H257.081c-4.13,0-7.479,3.348-7.479,7.479c0,4.13,3.348,7.479,7.479,7.479h113.473
	L393.559,409.7C394.254,414.968,392.643,420.281,389.14,424.276z M397.274,323.448l-22.75-172.542l41.497-25.977
	c4.749-2.979,14.849-6.185,25.803-6.185c5.126,0,10.217,0.711,15.134,2.112c15.046,4.291,27.621,14.81,34.501,28.862
	c10.225,20.882,6.177,46.169-10.074,62.924C461,233.659,420.081,275.85,397.274,323.448z"/>
<g>
</g>
<g>
</g>
<g>
</g>
<g>
</g>
<g>
</g>
<g>
</g>
<g>
</g>
<g>
</g>
<g>
</g>
<g>
</g>
<g>
</g>
<g>
</g>
<g>
</g>
<g>
</g>
<g>
</g>
</svg>
