<?xml version="1.0" encoding="iso-8859-1"?>
<!-- Generator: Adobe Illustrator 19.0.0, SVG Export Plug-In . SVG Version: 6.00 Build 0)  -->
<svg version="1.1" id="Capa_1" xmlns="http://www.w3.org/2000/svg" xmlns:xlink="http://www.w3.org/1999/xlink" x="0px" y="0px"
	 viewBox="0 0 512 512" style="enable-background:new 0 0 512 512;" xml:space="preserve">
<path style="fill:#80C56E;" d="M419.33,219.767c-1.343-2.18-3.705-3.526-6.266-3.568c-0.867-0.02-21.588-0.247-49.437,8.559
	c-25.622,8.101-62.433,25.748-92.383,63.82c-0.022,0.027-0.042,0.056-0.064,0.083c-0.002,0.002-0.004,0.004-0.005,0.006
	c-0.01,0.012-0.02,0.025-0.03,0.038c-6.276,7.992-11.15,15.739-14.661,21.956c-3.581-6.177-8.542-13.869-14.907-21.79
	c-0.005-0.007-0.06-0.074-0.065-0.081c-0.003-0.004-0.006-0.007-0.009-0.01c-0.01-0.013-0.019-0.027-0.03-0.039
	c-30.374-37.729-67.38-54.961-93.09-62.774c-27.947-8.493-48.666-8.031-49.53-8.003c-2.56,0.071-4.907,1.442-6.225,3.637
	c-1.319,2.196-1.426,4.911-0.285,7.204c0.492,0.99,12.336,24.487,35.963,45.2c23.357,20.475,49.965,30.911,78.217,30.909
	c8.61,0,17.377-0.975,26.247-2.926c11.068,14.701,16.798,27.847,16.91,28.106c0.018,0.041,0.043,0.077,0.061,0.118
	c0.115,0.255,0.245,0.503,0.387,0.745c0.046,0.078,0.09,0.157,0.138,0.233c0.164,0.256,0.342,0.502,0.537,0.737
	c0.064,0.077,0.132,0.148,0.199,0.222c0.154,0.171,0.316,0.336,0.486,0.493c0.074,0.069,0.146,0.139,0.223,0.205
	c0.224,0.191,0.46,0.37,0.709,0.535c0.089,0.059,0.183,0.111,0.275,0.166c0.178,0.107,0.36,0.208,0.549,0.302
	c0.113,0.056,0.226,0.112,0.342,0.162c0.04,0.018,0.077,0.039,0.118,0.056c0.214,0.089,0.43,0.164,0.646,0.232
	c0.091,0.028,0.182,0.051,0.274,0.075c0.236,0.064,0.472,0.116,0.709,0.156c0.11,0.018,0.218,0.035,0.329,0.048
	c0.259,0.032,0.517,0.052,0.775,0.056c0.049,0.001,0.096,0.01,0.145,0.01c0.341,0,0.683-0.033,1.025-0.08
	c0.042-0.006,0.083-0.012,0.124-0.019c0.603-0.094,1.205-0.255,1.793-0.506c0.06-0.026,0.115-0.058,0.174-0.085
	c0.039-0.018,0.077-0.038,0.116-0.056c0.287-0.137,0.562-0.29,0.824-0.458c0.026-0.017,0.054-0.032,0.08-0.05
	c0.291-0.192,0.565-0.401,0.822-0.628c0.022-0.02,0.043-0.041,0.065-0.061c0.235-0.213,0.454-0.439,0.659-0.677
	c0.033-0.038,0.066-0.074,0.098-0.113c0.214-0.26,0.41-0.533,0.586-0.818c0.031-0.049,0.058-0.1,0.087-0.15
	c0.162-0.276,0.309-0.561,0.435-0.856c0.011-0.025,0.026-0.047,0.037-0.072c0.06-0.143,5.643-13.406,16.595-28.298
	c8.447,1.759,16.788,2.64,24.985,2.64c28.73-0.001,55.682-10.744,79.156-31.793c23.393-20.977,34.972-44.606,35.454-45.602
	C420.81,224.662,420.673,221.947,419.33,219.767z"/>
<path style="fill:#4D984E;" d="M263.161,146.474c-0.023-4.129-3.377-7.461-7.502-7.461c-0.015,0-0.029,0-0.043,0
	c-4.144,0.023-7.484,3.401-7.461,7.545l1.253,223.182c0.023,4.129,3.378,7.461,7.502,7.461c0.015,0,0.029,0,0.043,0
	c4.144-0.023,7.484-3.401,7.461-7.545L263.161,146.474z"/>
<path style="fill:#FD747F;" d="M363.409,84.83c-3.829-11.297-15.457-18.836-28.935-18.76c-4.001,0.022-7.998,0.701-11.882,2.017
	c-8.196,2.778-26.221,13.099-41.926,24.008c-3.341,2.32-6.277,4.455-8.892,6.437c1.016-3.102,2.073-6.552,3.175-10.439
	c5.239-18.483,9.155-38.891,9.106-47.471C283.952,22.27,270.878,7.413,254.91,7.503s-28.874,15.092-28.771,33.444
	c0.049,8.654,4.152,29.015,9.546,47.361c1.134,3.859,2.221,7.285,3.266,10.366c-2.624-1.941-5.565-4.029-8.909-6.296
	c-15.828-10.731-33.967-20.849-42.194-23.535c-3.897-1.272-7.902-1.906-11.903-1.883c-13.479,0.076-25.021,7.745-28.722,19.084
	c-2.43,7.443-1.354,15.506,3.031,22.704c4.287,7.042,11.256,12.423,19.621,15.154c10.091,3.294,37.384,6.08,58.408,5.962
	c0.001,0,0,0,0.001,0c0.08,0,0.154-0.002,0.234-0.002c-18.027,12.448-38.819,30.975-44.561,38.632
	c-5.28,7.039-7.894,15.447-7.36,23.674c0.546,8.411,4.295,15.629,10.558,20.326c4.561,3.421,10.113,5.212,16.054,5.179
	c0.001,0,0,0,0.001,0c10.224-0.057,20.349-5.451,27.082-14.428c5.149-6.865,14.155-25.591,20.953-43.559
	c1.793-4.74,3.242-8.9,4.419-12.582c1.218,3.668,2.713,7.812,4.56,12.531c6.999,17.891,16.217,36.516,21.442,43.321
	c6.833,8.901,17.017,14.18,27.242,14.123c5.941-0.033,11.473-1.886,15.995-5.358c6.21-4.767,9.878-12.028,10.329-20.444
	c0.441-8.233-2.266-16.61-7.625-23.59c-5.828-7.592-26.828-25.884-44.994-38.129c0.08,0,0.156,0,0.236,0
	c21.023-0.118,48.283-3.211,58.337-6.618c8.334-2.824,15.24-8.284,19.449-15.373C364.936,100.32,365.922,92.245,363.409,84.83z"/>
<path style="fill:#FC909D;" d="M317.903,101.258c-1.304-3.932-5.548-6.063-9.483-4.759l-45.432,15.072l-0.243-47.863
	c-0.022-4.131-3.376-7.464-7.502-7.464c-0.013,0-0.026,0-0.039,0c-4.144,0.021-7.485,3.397-7.464,7.541l0.243,47.873l-45.604-14.562
	c-3.949-1.26-8.169,0.917-9.429,4.865c-1.26,3.947,0.917,8.169,4.865,9.429l45.62,14.567l-27.91,38.916
	c-2.415,3.367-1.643,8.055,1.724,10.469c1.325,0.95,2.853,1.406,4.367,1.406c2.336,0,4.637-1.088,6.103-3.13l27.894-38.894
	l28.329,38.578c1.47,2.002,3.745,3.062,6.053,3.062c1.542,0,3.098-0.474,4.435-1.456c3.34-2.452,4.059-7.148,1.606-10.488
	l-28.346-38.6l45.454-15.079C317.078,109.436,319.208,105.19,317.903,101.258z"/>
<circle style="fill:#FEEA9E;" cx="255.52" cy="121.39" r="34.955"/>
<path style="fill:#FEC37D;" d="M307.333,504.497H204.456c-4.232,0-7.877-2.983-8.715-7.131l-27.255-135.025h174.818l-27.255,135.025
	C315.211,501.514,311.565,504.497,307.333,504.497z"/>
<path style="fill:#F9AE5D;" d="M295.491,362.341l-27.255,135.025c-0.837,4.148-4.483,7.131-8.715,7.131h47.813
	c4.232,0,7.877-2.983,8.715-7.131l27.256-135.025H295.491z"/>
<path style="fill:#F2A559;" d="M356.561,386.396H155.228c-2.568,0-4.649-2.082-4.649-4.649V357.65c0-2.568,2.082-4.649,4.649-4.649
	h201.333c2.568,0,4.649,2.082,4.649,4.649v24.097C361.211,384.315,359.129,386.396,356.561,386.396z"/>
<g>
	<path style="fill:#EA8F3D;" d="M356.561,353H310.37v33.396h46.191c2.568,0,4.649-2.082,4.649-4.649V357.65
		C361.211,355.082,359.129,353,356.561,353z"/>
	<polygon style="fill:#EA8F3D;" points="278.841,444.824 326.654,444.824 329.683,429.819 281.87,429.819 	"/>
</g>
<g>
	<path style="fill:#66AD66;" d="M278.358,293.656c83.85,19.814,127.921-57.277,133.883-68.587c0.225-0.427-0.228-0.893-0.658-0.672
		c-13.346,6.84-120.799,61.915-133.344,68.333C277.83,292.939,277.91,293.551,278.358,293.656z"/>
	<path style="fill:#66AD66;" d="M234.527,292.973l-134.095-66.824c-0.432-0.215-0.887,0.252-0.657,0.676
		c6.089,11.241,51.024,87.835,134.648,67.078C234.87,293.792,234.939,293.178,234.527,292.973z"/>
</g>
<path d="M419.33,219.767c-1.343-2.18-3.705-3.526-6.266-3.568c-0.876-0.013-21.581-0.25-49.437,8.559
	c-25.622,8.101-62.433,25.748-92.383,63.82c-0.022,0.027-0.042,0.056-0.064,0.083c-0.002,0.002-0.004,0.004-0.005,0.006
	c-0.01,0.012-0.02,0.025-0.03,0.038c-2.602,3.313-4.961,6.583-7.084,9.721l-0.731-112.831c4.626,9.631,9.123,17.685,12.382,21.93
	c8.207,10.692,20.541,17.058,33.03,17.058c0.068,0,0.138,0,0.206,0c7.593-0.043,14.689-2.432,20.521-6.91
	c7.974-6.123,12.681-15.354,13.252-25.993c0.537-10.02-2.718-20.163-9.165-28.561c-4.616-6.013-16.548-16.886-29.345-26.988
	c15.1-1.148,31.188-3.308,39.382-6.085c10.027-3.398,18.37-10.02,23.493-18.648c5.439-9.163,6.658-19.454,3.429-28.976
	c-4.844-14.292-19.227-23.854-35.838-23.854c-0.08,0-0.163,0-0.243,0c-4.807,0.027-9.601,0.839-14.248,2.414
	c-7.414,2.513-21.409,10.203-35.385,19.301c4.078-16.221,6.802-31.941,6.758-39.703c-0.06-10.686-3.786-20.768-10.494-28.389
	C274.141,4.324,264.912,0,255.057,0c-0.063,0-0.127,0-0.19,0c-20.105,0.113-36.358,18.5-36.232,40.989
	c0.045,7.822,2.914,23.504,7.128,39.618c-14.075-8.937-28.15-16.467-35.589-18.895c-4.585-1.496-9.301-2.254-14.024-2.254
	c-0.083,0-0.166,0-0.248,0c-16.715,0.094-31.107,9.843-35.813,24.258c-3.12,9.56-1.787,19.836,3.755,28.934
	c5.217,8.569,13.634,15.098,23.701,18.385c8.223,2.684,24.335,4.664,39.447,5.642c-12.681,10.245-24.49,21.251-29.039,27.315
	c-6.354,8.47-9.494,18.649-8.846,28.662c0.691,10.633,5.5,19.81,13.543,25.842c5.829,4.373,12.876,6.68,20.395,6.68
	c0.068,0,0.138,0,0.205,0c12.557-0.071,24.909-6.586,33.042-17.429c3.187-4.249,7.551-12.264,12.033-21.852l0.733,113.036
	c-2.233-3.241-4.725-6.628-7.482-10.059c-0.005-0.007-0.06-0.074-0.065-0.081c-0.003-0.004-0.006-0.007-0.009-0.01
	c-0.01-0.013-0.019-0.027-0.03-0.039c-30.374-37.729-67.38-54.961-93.09-62.774c-27.947-8.493-48.666-8.03-49.53-8.003
	c-2.56,0.071-4.907,1.442-6.225,3.637c-1.319,2.196-1.426,4.911-0.285,7.204c0.492,0.99,12.336,24.487,35.963,45.2
	c23.357,20.475,49.965,30.911,78.217,30.909c8.61,0,17.377-0.975,26.247-2.926c9.425,12.519,14.976,23.902,16.485,27.167
	l0.106,16.342h-94.132c-6.701,0-12.153,5.452-12.153,12.152v24.097c0,6.701,5.452,12.152,12.153,12.152h11.974l-0.005-0.024
	c0.005,0.025,0,0,0.005,0.024l21.184,104.951c1.538,7.619,8.296,13.15,16.069,13.15h102.877c7.773,0,14.531-5.53,16.069-13.15
	l21.185-104.951h11.973c6.701,0,12.153-5.452,12.153-12.152V357.65c0-6.701-5.452-12.152-12.153-12.152h-92.195l-0.111-17.158
	c1.856-4.033,7.164-14.812,15.846-26.618c8.447,1.759,16.788,2.64,24.985,2.64c28.73-0.001,55.682-10.744,79.156-31.793
	c23.393-20.977,34.972-44.606,35.453-45.602C420.81,224.662,420.672,221.947,419.33,219.767z M138.559,263.039
	c-11.617-10.111-20.207-21.153-25.674-29.216c8.047,0.918,19.11,2.805,31.689,6.671c30.222,9.289,56.122,25.514,77.147,48.301
	C191.376,293.341,163.451,284.704,138.559,263.039z M322.029,429.819h-59.764c-4.144,0-7.503,3.359-7.503,7.503
	c0,4.143,3.359,7.503,7.503,7.503H319l-10.306,51.058c-0.13,0.645-0.702,1.113-1.361,1.113H204.456
	c-0.658,0-1.231-0.468-1.361-1.113l-10.306-51.058h15.695c4.144,0,7.503-3.359,7.503-7.503c0-4.144-3.359-7.503-7.503-7.503H189.76
	l-7.25-35.919h146.77L322.029,429.819z M353.708,378.894L353.708,378.894H158.081l0,0v-18.391h195.627c0.017,0-0.017,0,0,0l0,0
	V378.894z M229.877,131.205c-0.205-0.535-0.47-1.038-0.783-1.504c-0.008-0.566-0.079-1.134-0.218-1.694
	c-0.526-2.124-0.798-4.301-0.811-6.469c-0.046-8.23,3.56-15.977,9.892-21.254c0.466-0.389,0.876-0.83,1.229-1.309
	c0.558-0.191,1.103-0.433,1.611-0.756c4.354-2.774,9.391-4.256,14.566-4.285c0.052,0,0.103,0,0.154,0
	c5.113,0,10.103,1.419,14.439,4.108c0.52,0.322,1.073,0.572,1.643,0.757c0.358,0.472,0.771,0.907,1.24,1.289
	c6.392,5.206,10.084,12.913,10.129,21.145c0.013,2.164-0.235,4.342-0.738,6.473c-0.132,0.562-0.197,1.131-0.199,1.696
	c-0.309,0.47-0.568,0.976-0.767,1.513c-3.633,9.809-12.697,16.791-23.091,17.787c-0.878,0.084-1.722,0.322-2.499,0.691
	c-0.782-0.36-1.628-0.588-2.507-0.662C242.762,147.853,233.62,140.973,229.877,131.205z M321.652,172.257
	c4.269,5.56,6.43,12.173,6.084,18.619c-0.332,6.194-2.962,11.483-7.406,14.895c-3.212,2.466-7.177,3.782-11.468,3.806
	c-0.041,0-0.082,0-0.123,0c-7.853,0-15.742-4.176-21.125-11.19c-3.839-5-11.536-19.712-18.526-36.787
	c1.647-0.56,3.253-1.221,4.811-1.975l10.043,13.675c1.47,2.002,3.745,3.062,6.053,3.062c1.542,0,3.098-0.474,4.435-1.456
	c3.34-2.452,4.059-7.148,1.606-10.488l-9.983-13.594c1.792-1.852,3.427-3.863,4.865-6.025
	C304.986,155.548,317.783,167.216,321.652,172.257z M325,75.193c3.119-1.057,6.321-1.602,9.516-1.62c0.054,0,0.106,0,0.159,0
	c10.172,0,18.852,5.478,21.628,13.666c1.798,5.306,1.044,11.165-2.122,16.498c-3.296,5.552-8.768,9.848-15.407,12.098
	c-6.907,2.341-24.029,4.671-40.802,5.689c0.001-0.125,0.001-0.251,0-0.376c-0.01-1.771-0.129-3.526-0.353-5.257l15.524-5.15
	c3.933-1.305,6.064-5.551,4.758-9.483c-1.304-3.932-5.548-6.062-9.483-4.759l-15.339,5.089c-1.14-2.162-2.464-4.23-3.97-6.174
	C304.369,85.168,318.974,77.235,325,75.193z M254.952,15.006c0.034,0,0.067,0,0.101,0c5.482,0,10.717,2.518,14.747,7.098
	c4.315,4.904,6.713,11.495,6.752,18.561c0.036,6.3-2.724,22.664-7.475,40.486c-1.999-0.674-4.046-1.188-6.125-1.556l-0.208-15.947
	c-0.054-4.11-3.402-7.405-7.5-7.405c-0.033,0-0.066,0-0.1,0c-4.143,0.054-7.459,3.457-7.404,7.6l0.206,15.77
	c-2.196,0.397-4.355,0.962-6.457,1.698c-4.899-17.697-7.812-34.044-7.848-40.406C233.562,26.691,243.122,15.072,254.952,15.006z
	 M156.66,104.846c-3.227-5.296-4.045-11.146-2.306-16.473c2.697-8.262,11.391-13.852,21.632-13.91c0.055,0,0.108,0,0.163,0
	c3.14,0,6.291,0.509,9.369,1.514c6.049,1.975,20.741,9.743,36.115,19.815c-1.482,1.958-2.781,4.037-3.895,6.208l-15.359-4.904
	c-3.949-1.262-8.169,0.918-9.429,4.865s0.917,8.169,4.865,9.429l15.54,4.962c-0.206,1.738-0.306,3.499-0.296,5.274
	c0,0,0,0.001,0,0.002c0.001,0.125,0.002,0.249,0.004,0.374c-16.783-0.829-33.93-2.967-40.862-5.23
	C165.537,114.595,160.017,110.36,156.66,104.846z M224.288,198.744c-5.334,7.111-13.23,11.383-21.122,11.427
	c-4.29,0.044-8.27-1.247-11.511-3.679c-4.482-3.361-7.171-8.621-7.573-14.81c-0.418-6.442,1.669-13.079,5.876-18.688
	c3.813-5.084,16.477-16.894,30.423-27.799c1.469,2.155,3.135,4.155,4.957,5.994l-9.812,13.681
	c-2.415,3.367-1.643,8.055,1.724,10.469c1.325,0.95,2.853,1.406,4.367,1.406c2.336,0,4.637-1.088,6.103-3.13l9.878-13.773
	c1.556,0.73,3.159,1.368,4.801,1.906C235.601,178.904,228.07,193.702,224.288,198.744z M373.866,261.717
	c-24.649,21.945-52.468,30.895-82.868,26.688c20.769-23.022,46.485-39.536,76.6-49.165c12.536-4.008,23.576-6.018,31.611-7.027
	C393.834,240.338,385.368,251.477,373.866,261.717z"/>
<g>
</g>
<g>
</g>
<g>
</g>
<g>
</g>
<g>
</g>
<g>
</g>
<g>
</g>
<g>
</g>
<g>
</g>
<g>
</g>
<g>
</g>
<g>
</g>
<g>
</g>
<g>
</g>
<g>
</g>
</svg>
