<?xml version="1.0" encoding="iso-8859-1"?>
<!-- Generator: Adobe Illustrator 19.0.0, SVG Export Plug-In . SVG Version: 6.00 Build 0)  -->
<svg version="1.1" id="Capa_1" xmlns="http://www.w3.org/2000/svg" xmlns:xlink="http://www.w3.org/1999/xlink" x="0px" y="0px"
	 viewBox="0 0 511.999 511.999" style="enable-background:new 0 0 511.999 511.999;" xml:space="preserve">
<path style="fill:#FF5F67;" d="M337.014,44.425c-11.267-11.948-29.45-13.526-48.158,0.52c-2.029-24.578-15.961-37.438-32.858-37.438
	s-30.829,12.859-32.858,37.438c-18.708-14.047-36.891-12.469-48.158-0.52c-12.55,13.309-11.768,34.429,9.111,54.118
	c18.825,17.752,55.645,35.902,71.905,29.545c16.26,6.357,53.08-11.792,71.905-29.545C348.782,78.854,349.564,57.733,337.014,44.425z
	"/>
<path style="fill:#EF4246;" d="M327.903,98.543c20.879-19.688,21.661-40.809,9.111-54.118c-11.267-11.948-29.451-13.526-48.158,0.52
	c-2.029-24.578-15.961-37.438-32.858-37.438v120.58C272.258,134.444,309.078,116.295,327.903,98.543z"/>
<path style="fill:#FF5F67;" d="M492.215,251.153c2.235-15.37-7.28-29.773-28.681-35.384c17.023-15.945,18.367-33.825,8.439-46.347
	s-27.644-15.291-47.051-2.354c-0.582-22.117-12.435-34.665-27.91-35.995c-17.237-1.481-32.429,11.508-34.753,38.549
	c-2.095,24.382,6.088,62.332,20.353,70.647c4.843,15.785,39.927,32.408,64.144,35.929
	C473.614,280.103,489.726,268.273,492.215,251.153z"/>
<path style="fill:#EF4246;" d="M446.756,276.198c26.858,3.905,42.97-7.925,45.459-25.045c2.234-15.37-7.28-29.773-28.681-35.384
	c17.023-15.945,18.367-33.825,8.439-46.347l-89.361,70.848C387.455,256.055,422.539,272.678,446.756,276.198z"/>
<path style="fill:#FF5F67;" d="M19.781,251.153c-2.235-15.37,7.28-29.773,28.681-35.384c-17.023-15.945-18.367-33.825-8.439-46.347
	s27.644-15.291,47.051-2.354c0.582-22.117,12.435-34.665,27.91-35.995c17.237-1.481,32.429,11.508,34.753,38.549
	c2.095,24.382-6.088,62.332-20.353,70.647c-4.843,15.785-39.927,32.408-64.144,35.929C38.382,280.103,22.27,268.273,19.781,251.153z
	"/>
<path style="fill:#EF4246;" d="M149.737,169.623c-2.324-27.041-17.516-40.03-34.753-38.549c-15.475,1.33-27.328,13.878-27.91,35.995
	c-19.407-12.938-37.123-10.169-47.051,2.354l89.36,70.848C143.648,231.954,151.832,194.004,149.737,169.623z"/>
<path style="fill:#FEC37D;" d="M311.804,504.493H200.192c-4.591,0-8.546-3.236-9.455-7.737l-29.57-146.49h189.66l-29.57,146.49
	C320.35,501.256,316.395,504.493,311.804,504.493z"/>
<path style="fill:#F9AE5D;" d="M301.76,350.266l-29.57,146.49c-0.908,4.501-4.863,7.737-9.455,7.737h49.068
	c4.591,0,8.546-3.236,9.455-7.737l29.57-146.49H301.76z"/>
<path style="fill:#F2A559;" d="M365.211,376.365H146.785c-2.786,0-5.044-2.258-5.044-5.044v-26.143c0-2.786,2.258-5.044,5.044-5.044
	h218.427c2.786,0,5.044,2.258,5.044,5.044v26.143C370.256,374.106,367.997,376.365,365.211,376.365z"/>
<g>
	<path style="fill:#EA8F3D;" d="M365.211,340.133h-45.828v36.232h45.828c2.786,0,5.044-2.258,5.044-5.044v-26.143
		C370.256,342.391,367.997,340.133,365.211,340.133z"/>
	<polygon style="fill:#EA8F3D;" points="286.855,424.105 283.824,439.12 332.893,439.12 333.482,436.201 335.923,424.105 	"/>
</g>
<g>
	<path style="fill:#80C56E;" d="M313.981,109.571l-6.289,10.874c-22.995,39.76-80.393,39.76-103.388,0l-6.289-10.874
		c0,0,25.657,11.38,55.617,11.38C286.944,120.951,313.981,109.571,313.981,109.571z"/>
	<path style="fill:#80C56E;" d="M430.403,272.36l-11.754,1.729c-42.976,6.32-76.701-36.217-60.746-76.62l4.364-11.05
		c0,0,6.641,25.701,24.244,47.904C406.084,259.01,430.403,272.36,430.403,272.36z"/>
	<path style="fill:#80C56E;" d="M81.593,272.36l11.754,1.729c42.976,6.32,76.701-36.217,60.746-76.62l-4.364-11.05
		c0,0-6.641,25.701-24.244,47.904C105.912,259.01,81.593,272.36,81.593,272.36z"/>
</g>
<path d="M476.488,212.528c11.715-15.824,12.495-33.735,1.368-47.77c-11.126-14.036-28.744-17.362-46.823-9.563
	c-4.023-18.128-16.335-30.137-33.377-31.602c-11.011-0.944-21.315,2.901-29.003,10.834c-7.827,8.077-12.625,20.025-13.873,34.551
	c-0.425,4.947-0.444,10.404-0.097,16.206l-3.762,9.527c-7.127,18.048-5.797,37.61,3.31,54.14
	c-33.561,31.212-62.119,72.431-69.723,83.773h-21.003V157.359c21.207-2.306,39.797-14.329,50.685-33.156l5.451-9.425
	c5.063-3.536,9.573-7.154,13.412-10.774c11.144-10.509,17.846-22.243,19.384-33.934c1.506-11.45-2.032-22.387-9.962-30.796
	c-12.377-13.126-30.437-15.328-48.079-6.571C289.137,12.498,274.883,0,255.998,0s-33.139,12.498-38.399,32.702
	c-17.641-8.757-35.702-6.554-48.079,6.572c-7.93,8.409-11.468,19.346-9.962,30.796c1.538,11.692,8.24,23.426,19.384,33.934
	c3.836,3.618,8.347,7.237,13.412,10.774l5.451,9.425c10.888,18.827,29.478,30.851,50.685,33.156v175.266h-21.002
	c-7.604-11.342-36.165-52.565-69.724-83.771c9.108-16.531,10.439-36.093,3.311-54.142l-3.762-9.526
	c0.347-5.802,0.328-11.259-0.097-16.206c-1.248-14.527-6.046-26.475-13.873-34.552c-7.686-7.933-17.989-11.776-29.002-10.834
	c-17.043,1.464-29.355,13.473-33.378,31.601c-18.078-7.797-35.695-4.471-46.823,9.563c-11.127,14.035-10.347,31.947,1.368,47.77
	c-16.732,8.052-25.618,22.778-23.156,39.705c1.59,10.94,7.685,20.091,17.163,25.767c7.129,4.27,15.938,6.447,25.873,6.447
	c3.511,0,7.164-0.272,10.933-0.82c4.918-0.715,10.235-1.942,15.802-3.602l10.133,1.491c3.214,0.473,6.412,0.704,9.58,0.704
	c17.99,0,34.92-7.505,47.128-21.038c25.756,24.31,48.829,55.214,60.271,71.442h-62.449c-6.921,0-12.551,5.63-12.551,12.552v26.143
	c0,6.921,5.63,12.552,12.551,12.552h13.509l9.934,49.213c0.005,0.026,0.01,0.051,0.016,0.077l13.136,65.08
	c1.61,7.972,8.681,13.758,16.813,13.758h111.612c8.134,0,15.205-5.787,16.813-13.759l23.085-114.369h13.509
	c6.921,0,12.551-5.63,12.551-12.552v-26.143c0-6.921-5.63-12.552-12.551-12.552h-62.449c11.443-16.23,34.517-47.137,60.271-71.442
	c12.209,13.534,29.137,21.038,47.129,21.038c3.167,0,6.368-0.232,9.581-0.704l10.132-1.491c5.566,1.66,10.883,2.887,15.802,3.602
	c3.768,0.548,7.421,0.82,10.932,0.82c9.934,0,18.744-2.177,25.873-6.447c9.478-5.676,15.573-14.827,17.163-25.767
	C502.106,235.306,493.22,220.58,476.488,212.528z M64.16,268.769c-10.968,1.594-20.28,0.332-26.93-3.65
	c-5.613-3.361-9.077-8.564-10.02-15.046c-1.839-12.65,6.817-22.758,23.155-27.041c2.644-0.693,4.703-2.768,5.374-5.418
	s-0.151-5.455-2.146-7.323c-13.076-12.249-15.95-25.783-7.688-36.204c4.239-5.347,9.943-8.026,16.508-8.026
	c6.231,0,13.237,2.415,20.496,7.254c2.274,1.517,5.194,1.675,7.62,0.419c2.426-1.258,3.978-3.736,4.049-6.468
	c0.445-16.885,8.313-27.619,21.049-28.712c6.517-0.563,12.381,1.625,16.934,6.323c5.394,5.566,8.746,14.345,9.695,25.39
	c0.385,4.47,0.396,9.475,0.033,14.889c-0.023,0.082-0.053,0.183-0.081,0.281c-0.017,0.06-0.034,0.116-0.053,0.181
	c-0.023,0.079-0.05,0.171-0.077,0.258c-0.03,0.102-0.061,0.206-0.095,0.319c-0.026,0.087-0.055,0.182-0.084,0.276
	c-0.04,0.13-0.081,0.266-0.126,0.408c-0.03,0.095-0.061,0.196-0.093,0.296c-0.051,0.164-0.106,0.335-0.162,0.512
	c-0.03,0.095-0.061,0.19-0.092,0.289c-0.064,0.198-0.132,0.405-0.201,0.618c-0.032,0.098-0.064,0.195-0.097,0.296
	c-0.078,0.235-0.161,0.482-0.246,0.733c-0.031,0.091-0.06,0.179-0.092,0.273c-0.1,0.294-0.206,0.601-0.316,0.915
	c-0.021,0.059-0.04,0.115-0.061,0.174c-0.406,1.159-0.876,2.448-1.412,3.846c-0.027,0.071-0.056,0.145-0.084,0.217
	c-0.149,0.386-0.302,0.78-0.461,1.182c-0.048,0.122-0.099,0.249-0.149,0.372c-0.144,0.361-0.29,0.727-0.442,1.099
	c-0.06,0.147-0.122,0.296-0.183,0.445c-0.147,0.358-0.297,0.719-0.451,1.086c-0.07,0.166-0.141,0.334-0.213,0.503
	c-0.152,0.359-0.308,0.722-0.468,1.088c-0.077,0.178-0.155,0.356-0.234,0.536c-0.163,0.372-0.331,0.749-0.501,1.129
	c-0.08,0.178-0.159,0.355-0.24,0.535c-0.177,0.391-0.359,0.786-0.544,1.184c-0.082,0.176-0.162,0.35-0.245,0.528
	c-0.045,0.096-0.093,0.194-0.138,0.29l-7.788-23.297c-1.315-3.932-5.564-6.052-9.5-4.74c-3.933,1.315-6.055,5.568-4.74,9.5
	l12.089,36.162c-0.137,0.204-0.274,0.409-0.413,0.613c-0.172,0.252-0.342,0.504-0.516,0.755c-0.275,0.397-0.556,0.793-0.838,1.188
	c-0.057,0.08-0.114,0.16-0.171,0.24l-38.167-30.26c-3.247-2.575-7.97-2.031-10.546,1.219c-2.576,3.249-2.03,7.971,1.219,10.546
	l37.991,30.12c-0.142,0.155-0.284,0.314-0.427,0.468c-0.23,0.248-0.459,0.494-0.689,0.739c-0.348,0.37-0.695,0.738-1.043,1.102
	c-0.104,0.109-0.208,0.216-0.312,0.324l-37.598-3.489c-4.135-0.387-7.787,2.653-8.169,6.781c-0.383,4.129,2.653,7.785,6.781,8.169
	l23.973,2.225c-0.153,0.123-0.308,0.249-0.459,0.37c-0.154,0.123-0.307,0.244-0.46,0.365c-0.367,0.291-0.732,0.577-1.092,0.858
	c-0.152,0.118-0.303,0.236-0.453,0.352c-0.363,0.28-0.721,0.555-1.076,0.825c-0.135,0.102-0.27,0.205-0.403,0.306
	c-0.373,0.282-0.741,0.557-1.103,0.826c-0.108,0.08-0.217,0.162-0.324,0.241c-0.397,0.293-0.786,0.578-1.169,0.856
	c-0.068,0.049-0.137,0.1-0.205,0.149c-1.839,1.329-3.514,2.482-4.973,3.452c-0.034,0.023-0.067,0.044-0.101,0.067
	c-0.323,0.214-0.636,0.42-0.937,0.617c-0.054,0.035-0.105,0.068-0.159,0.103c-0.275,0.179-0.542,0.351-0.797,0.515
	c-0.059,0.038-0.116,0.074-0.174,0.111c-0.243,0.155-0.477,0.303-0.7,0.443c-0.054,0.034-0.109,0.069-0.162,0.102
	c-0.219,0.137-0.427,0.267-0.625,0.389c-0.044,0.027-0.089,0.055-0.132,0.081c-0.206,0.127-0.4,0.245-0.58,0.354
	c-0.022,0.013-0.047,0.028-0.069,0.042c-0.424,0.256-0.77,0.461-1.036,0.616C73.493,266.983,68.518,268.135,64.16,268.769z
	 M102.572,267.194c2.338-1.81,4.825-3.831,7.393-6.046c0.036-0.031,0.071-0.062,0.107-0.092c0.571-0.494,1.146-0.997,1.725-1.51
	c0.08-0.071,0.16-0.143,0.241-0.214c0.536-0.477,1.074-0.961,1.615-1.455c0.116-0.106,0.231-0.212,0.347-0.318
	c0.506-0.464,1.014-0.936,1.524-1.415c0.147-0.138,0.293-0.275,0.44-0.414c0.48-0.455,0.962-0.916,1.445-1.384
	c0.173-0.167,0.345-0.334,0.518-0.503c0.458-0.447,0.916-0.902,1.375-1.36c0.194-0.194,0.388-0.387,0.582-0.583
	c0.439-0.444,0.879-0.895,1.319-1.349c0.211-0.218,0.422-0.434,0.633-0.654c0.424-0.443,0.847-0.893,1.27-1.345
	c0.224-0.239,0.447-0.475,0.671-0.717c0.412-0.446,0.824-0.901,1.235-1.356c0.231-0.256,0.463-0.509,0.694-0.768
	c0.409-0.459,0.816-0.927,1.223-1.394c0.229-0.263,0.459-0.522,0.687-0.788c0.428-0.499,0.854-1.008,1.279-1.517
	c0.203-0.243,0.408-0.481,0.61-0.726c0.059-0.071,0.117-0.143,0.176-0.215c0.099-0.111,0.203-0.214,0.296-0.332
	c0.075-0.094,0.138-0.194,0.207-0.29c0.395-0.485,0.791-0.968,1.183-1.463c0.007-0.009,0.014-0.018,0.021-0.027
	c0.938-1.184,1.839-2.377,2.718-3.573c0.118-0.161,0.239-0.321,0.356-0.482c0.836-1.149,1.641-2.3,2.423-3.453
	c0.136-0.201,0.272-0.4,0.407-0.601c0.77-1.148,1.516-2.294,2.235-3.438c0.112-0.178,0.221-0.354,0.331-0.532
	c0.736-1.183,1.45-2.361,2.133-3.531c0.044-0.075,0.085-0.149,0.128-0.223c1.449-2.493,2.776-4.946,3.991-7.329
	c0.036-0.07,0.072-0.14,0.108-0.21c0.596-1.173,1.162-2.326,1.704-3.458c0.034-0.071,0.068-0.142,0.102-0.213
	c0.549-1.152,1.07-2.281,1.564-3.382c0.001-0.002,0.002-0.004,0.003-0.006c2.897,14.041-0.49,28.548-9.654,40.108
	C130.662,260.334,117.099,266.959,102.572,267.194z M174.445,68.112c-0.92-6.991,1.154-13.401,5.998-18.537
	c9.438-10.009,23.715-9.495,38.189,1.373c2.185,1.641,5.09,1.965,7.584,0.845c2.493-1.12,4.181-3.506,4.406-6.23
	c1.58-19.128,11.065-30.548,25.376-30.548c14.311,0,23.797,11.42,25.376,30.548c0.225,2.724,1.913,5.11,4.406,6.23
	c2.495,1.121,5.399,0.797,7.584-0.845c14.475-10.869,28.752-11.381,38.189-1.373c4.844,5.136,6.918,11.546,5.998,18.537
	c-1.081,8.225-6.198,16.859-14.799,24.969c-3.414,3.219-7.67,6.608-12.341,9.833c-2.334,0.912-10.658,4.003-22.409,6.602
	l14.483-22.211c2.265-3.473,1.285-8.125-2.188-10.389c-3.472-2.264-8.125-1.286-10.389,2.188l-21.921,33.617
	c-0.402,0.039-0.801,0.08-1.206,0.117c-0.138,0.012-0.277,0.024-0.416,0.036c-0.671,0.059-1.346,0.113-2.026,0.164
	c-0.262,0.019-0.525,0.037-0.788,0.055c-0.016,0.001-0.032,0.002-0.047,0.003V61.368c0-4.146-3.361-7.507-7.507-7.507
	c-4.146,0-7.507,3.361-7.507,7.507v51.954c-0.265-0.012-0.528-0.027-0.792-0.041c-0.505-0.026-1.011-0.053-1.513-0.085
	c-0.33-0.021-0.657-0.046-0.986-0.07c-0.326-0.024-0.652-0.049-0.976-0.075l-22.137-33.949c-2.264-3.473-6.915-4.454-10.389-2.188
	c-3.473,2.264-4.453,6.916-2.188,10.389l14.77,22.65c-0.483-0.11-0.965-0.219-1.437-0.331c-0.151-0.036-0.299-0.072-0.448-0.108
	c-0.505-0.121-1.006-0.243-1.498-0.366c-0.162-0.041-0.321-0.082-0.482-0.122c-0.472-0.12-0.938-0.24-1.397-0.36
	c-0.163-0.043-0.324-0.086-0.485-0.129c-0.452-0.12-0.898-0.241-1.337-0.362c-0.15-0.041-0.3-0.083-0.448-0.124
	c-0.445-0.124-0.883-0.249-1.313-0.372c-0.13-0.037-0.26-0.075-0.388-0.112c-0.446-0.13-0.883-0.259-1.312-0.388
	c-0.102-0.031-0.206-0.061-0.307-0.092c-0.471-0.143-0.93-0.284-1.379-0.424c-0.048-0.015-0.098-0.03-0.146-0.045
	c-2.544-0.798-4.71-1.55-6.422-2.177c-0.039-0.014-0.076-0.028-0.115-0.043c-0.293-0.108-0.574-0.212-0.84-0.312
	c-0.052-0.02-0.102-0.038-0.153-0.058c-0.243-0.092-0.476-0.18-0.694-0.264c-0.055-0.021-0.109-0.042-0.163-0.063
	c-0.203-0.078-0.394-0.153-0.573-0.223c-0.052-0.02-0.104-0.041-0.153-0.06c-0.167-0.066-0.322-0.128-0.466-0.186
	c-0.045-0.018-0.093-0.037-0.135-0.054c-0.142-0.057-0.271-0.11-0.387-0.158c-0.026-0.011-0.055-0.022-0.079-0.033
	c-0.03-0.012-0.05-0.021-0.078-0.032c-4.754-3.275-8.923-6.595-12.401-9.874C180.643,84.971,175.526,76.337,174.445,68.112z
	 M215.261,123.234c6.178,1.622,13.465,3.161,21.414,4.144c0.059,0.007,0.117,0.015,0.176,0.022c0.788,0.096,1.582,0.187,2.383,0.272
	c0.132,0.014,0.264,0.029,0.396,0.042c0.73,0.076,1.465,0.145,2.205,0.21c0.193,0.017,0.385,0.035,0.578,0.052
	c0.685,0.057,1.376,0.108,2.069,0.156c0.241,0.017,0.48,0.035,0.722,0.051c0.662,0.042,1.329,0.077,1.997,0.11
	c0.267,0.013,0.532,0.029,0.801,0.041c0.672,0.029,1.348,0.049,2.025,0.068c0.263,0.007,0.524,0.019,0.789,0.025
	c0.934,0.02,1.873,0.032,2.817,0.032c0.662,0,1.316-0.011,1.972-0.02c0.131,0.007,0.261,0.02,0.393,0.02
	c0.199,0,0.394-0.015,0.59-0.03c0.076-0.001,0.153-0.001,0.229-0.003c0.082-0.002,0.162-0.005,0.244-0.007
	c15.503-0.339,29.461-2.912,39.991-5.585c-9.819,12.593-24.694,19.922-41.046,19.924c-0.002,0-0.004,0-0.006,0
	c-0.002,0-0.004,0-0.006,0C239.814,142.756,225.082,135.581,215.261,123.234z M328.265,424.105H261.11
	c-4.147,0-7.507,3.361-7.507,7.507s3.361,7.507,7.507,7.507h64.125l-11.334,56.151c-0.2,0.994-1.082,1.715-2.096,1.715H200.192
	c-1.014,0-1.895-0.722-2.096-1.715l-11.334-56.15h20.356c4.147,0,7.507-3.361,7.507-7.507s-3.361-7.507-7.507-7.507h-23.387
	l-8.121-40.233h160.775L328.265,424.105z M362.748,368.857L362.748,368.857c-0.003,0,0,0-0.003,0H149.251c-0.003,0,0,0-0.003,0l0,0
	V347.64h213.5V368.857z M372.059,248.636c-9.164-11.56-12.551-26.067-9.654-40.108c0.05,0.112,0.109,0.233,0.16,0.346
	c0.395,0.876,0.808,1.769,1.238,2.677c0.147,0.311,0.296,0.622,0.447,0.937c0.451,0.939,0.918,1.89,1.407,2.856
	c0.141,0.278,0.286,0.558,0.43,0.837c0.519,1.011,1.052,2.031,1.612,3.064c0.101,0.186,0.206,0.373,0.308,0.56
	c0.549,1.002,1.119,2.014,1.707,3.032c0.122,0.211,0.239,0.42,0.363,0.631c0.639,1.093,1.306,2.194,1.992,3.298
	c0.15,0.242,0.299,0.482,0.451,0.724c0.696,1.107,1.417,2.216,2.162,3.326c0.151,0.225,0.304,0.45,0.457,0.675
	c0.775,1.141,1.571,2.28,2.398,3.417c0.116,0.159,0.235,0.317,0.352,0.476c0.887,1.207,1.795,2.411,2.742,3.604
	c0.392,0.494,0.788,0.977,1.183,1.463c0.069,0.097,0.132,0.196,0.207,0.29c0.093,0.118,0.197,0.222,0.296,0.332
	c0.059,0.071,0.117,0.144,0.176,0.215c0.202,0.245,0.407,0.483,0.61,0.726c0.426,0.509,0.851,1.018,1.279,1.517
	c0.228,0.266,0.458,0.525,0.687,0.788c0.407,0.468,0.814,0.936,1.223,1.394c0.232,0.261,0.466,0.515,0.698,0.772
	c0.409,0.453,0.819,0.905,1.229,1.349c0.225,0.244,0.451,0.482,0.676,0.723c0.422,0.451,0.844,0.9,1.267,1.342
	c0.211,0.22,0.422,0.436,0.633,0.654c0.44,0.454,0.879,0.905,1.319,1.349c0.194,0.196,0.388,0.389,0.582,0.583
	c0.459,0.459,0.917,0.913,1.375,1.36c0.173,0.168,0.345,0.335,0.517,0.502c0.484,0.469,0.967,0.932,1.449,1.388
	c0.144,0.137,0.288,0.272,0.433,0.407c0.511,0.48,1.02,0.953,1.528,1.419c0.116,0.106,0.231,0.212,0.347,0.317
	c0.541,0.493,1.079,0.978,1.615,1.455c0.08,0.071,0.161,0.143,0.241,0.214c0.578,0.512,1.152,1.014,1.722,1.507
	c0.037,0.033,0.075,0.065,0.112,0.098c2.568,2.214,5.053,4.235,7.391,6.044C394.898,266.958,381.334,260.333,372.059,248.636z
	 M484.786,250.073c-0.942,6.482-4.407,11.685-10.02,15.046c-6.649,3.982-15.96,5.244-26.93,3.65
	c-4.358-0.634-9.333-1.786-14.432-3.341c-0.14-0.082-0.299-0.175-0.484-0.285c-0.002-0.001-0.004-0.002-0.006-0.003
	c-0.161-0.096-0.342-0.204-0.535-0.321c-0.034-0.02-0.071-0.043-0.106-0.064c-0.17-0.103-0.351-0.214-0.544-0.332
	c-0.051-0.032-0.106-0.065-0.159-0.098c-0.188-0.116-0.387-0.239-0.594-0.369c-0.063-0.04-0.128-0.08-0.193-0.121
	c-0.21-0.132-0.431-0.272-0.659-0.418c-0.072-0.046-0.143-0.091-0.216-0.138c-0.24-0.153-0.49-0.315-0.748-0.483
	c-0.068-0.044-0.134-0.087-0.204-0.132c-0.282-0.184-0.576-0.378-0.878-0.578c-0.054-0.036-0.106-0.07-0.161-0.106
	c-0.353-0.235-0.717-0.479-1.094-0.735c-0.006-0.004-0.012-0.008-0.019-0.012c-0.791-0.537-1.634-1.12-2.522-1.748
	c-0.003-0.002-0.005-0.004-0.008-0.006c-0.424-0.3-0.86-0.612-1.305-0.934c-0.083-0.06-0.169-0.124-0.253-0.185
	c-0.366-0.266-0.737-0.537-1.116-0.816c-0.124-0.092-0.251-0.187-0.377-0.28c-0.345-0.256-0.693-0.517-1.047-0.784
	c-0.149-0.113-0.3-0.228-0.451-0.342c-0.338-0.257-0.681-0.52-1.027-0.787c-0.164-0.127-0.33-0.256-0.496-0.385
	c-0.344-0.268-0.693-0.542-1.043-0.82c-0.168-0.133-0.336-0.266-0.505-0.401c-0.145-0.116-0.293-0.237-0.439-0.354l23.973-2.225
	c4.128-0.383,7.164-4.041,6.781-8.169c-0.382-4.13-4.036-7.164-8.169-6.781l-37.598,3.489c-0.108-0.111-0.215-0.222-0.322-0.334
	c-0.342-0.357-0.683-0.718-1.024-1.082c-0.235-0.251-0.47-0.502-0.705-0.756c-0.14-0.152-0.28-0.308-0.42-0.461l37.991-30.12
	c3.249-2.576,3.795-7.298,1.219-10.546c-2.577-3.249-7.298-3.796-10.546-1.219l-38.167,30.26c-0.061-0.086-0.122-0.172-0.184-0.258
	c-0.277-0.389-0.553-0.778-0.823-1.168c-0.177-0.255-0.349-0.51-0.523-0.765c-0.138-0.202-0.273-0.404-0.409-0.606l12.089-36.162
	c1.315-3.933-0.807-8.186-4.74-9.5s-8.186,0.808-9.5,4.74l-7.788,23.297c-0.042-0.089-0.086-0.18-0.128-0.269
	c-0.097-0.207-0.191-0.412-0.286-0.617c-0.167-0.361-0.333-0.72-0.494-1.076c-0.099-0.218-0.195-0.433-0.292-0.649
	c-0.152-0.338-0.301-0.675-0.447-1.007c-0.095-0.216-0.188-0.43-0.28-0.643c-0.14-0.323-0.277-0.643-0.412-0.96
	c-0.091-0.213-0.181-0.426-0.269-0.637c-0.13-0.308-0.256-0.613-0.38-0.914c-0.085-0.207-0.171-0.414-0.254-0.618
	c-0.121-0.296-0.237-0.587-0.353-0.876c-0.079-0.198-0.16-0.399-0.237-0.593c-0.114-0.288-0.222-0.568-0.331-0.848
	c-0.071-0.184-0.145-0.371-0.214-0.551c-0.108-0.282-0.21-0.554-0.313-0.827c-0.063-0.168-0.13-0.342-0.191-0.507
	c-0.132-0.356-0.258-0.7-0.381-1.039c-0.106-0.291-0.205-0.57-0.304-0.848c-0.056-0.159-0.115-0.323-0.17-0.477
	c-0.081-0.23-0.156-0.448-0.232-0.667c-0.048-0.138-0.097-0.281-0.143-0.415c-0.076-0.224-0.148-0.438-0.219-0.65
	c-0.037-0.111-0.076-0.225-0.111-0.332c-0.072-0.216-0.139-0.422-0.205-0.624c-0.03-0.091-0.06-0.183-0.088-0.272
	c-0.068-0.211-0.133-0.414-0.195-0.607c-0.018-0.055-0.035-0.111-0.052-0.165c-0.067-0.212-0.131-0.416-0.189-0.606
	c-0.006-0.021-0.013-0.041-0.019-0.062c-0.198-0.645-0.349-1.157-0.451-1.515c-0.363-5.413-0.352-10.419,0.033-14.889
	c0.949-11.043,4.301-19.823,9.695-25.389c4.552-4.697,10.402-6.888,16.935-6.323c12.735,1.094,20.603,11.827,21.048,28.712
	c0.071,2.732,1.623,5.21,4.049,6.468c2.424,1.257,5.344,1.098,7.62-0.419c14.908-9.938,28.742-9.65,37.004,0.771
	c8.262,10.421,5.388,23.956-7.688,36.205c-1.995,1.869-2.817,4.673-2.146,7.323c0.672,2.65,2.73,4.725,5.374,5.418
	C477.969,227.314,486.625,237.423,484.786,250.073z"/>
<g>
</g>
<g>
</g>
<g>
</g>
<g>
</g>
<g>
</g>
<g>
</g>
<g>
</g>
<g>
</g>
<g>
</g>
<g>
</g>
<g>
</g>
<g>
</g>
<g>
</g>
<g>
</g>
<g>
</g>
</svg>
