<?xml version="1.0" encoding="iso-8859-1"?>
<!-- Generator: Adobe Illustrator 19.0.0, SVG Export Plug-In . SVG Version: 6.00 Build 0)  -->
<svg version="1.1" id="Capa_1" xmlns="http://www.w3.org/2000/svg" xmlns:xlink="http://www.w3.org/1999/xlink" x="0px" y="0px"
	 viewBox="0 0 511.999 511.999" style="enable-background:new 0 0 511.999 511.999;" xml:space="preserve">
<path style="fill:#FEEA9E;" d="M406.811,129.977c-3.208,12.023-22.353,33.181-37.9,29.033s-21.61-32.03-18.402-44.053
	s18.412-18.408,33.959-14.26C400.015,104.844,410.019,117.953,406.811,129.977z"/>
<g>
	<path style="fill:#F9DE85;" d="M384.104,215.093c3.208-12.023-2.855-39.906-18.402-44.053s-34.693,17.009-37.9,29.033
		c-3.208,12.023,6.796,25.133,22.343,29.281S380.896,227.116,384.104,215.093z"/>
	<path style="fill:#F9DE85;" d="M402.354,204.53c-12.023-3.208-33.181-22.353-29.033-37.9c4.148-15.548,32.03-21.61,44.053-18.402
		s18.408,18.412,14.26,33.959C427.487,197.734,414.377,207.737,402.354,204.53z"/>
</g>
<path style="fill:#FEEA9E;" d="M317.238,181.822c12.023,3.208,39.906-2.855,44.053-18.402c4.148-15.548-17.009-34.693-29.033-37.9
	c-12.023-3.208-25.133,6.796-29.281,22.343C298.83,163.411,305.214,178.615,317.238,181.822z"/>
<circle style="fill:#F2A559;" cx="367.309" cy="165.03" r="20.829"/>
<path style="fill:#FEEA9E;" d="M105.187,129.977c3.208,12.023,22.353,33.181,37.9,29.033s21.61-32.03,18.402-44.053
	s-18.412-18.408-33.959-14.26C111.983,104.844,101.979,117.953,105.187,129.977z"/>
<path style="fill:#F9DE85;" d="M127.894,215.093c-3.208-12.023,2.855-39.906,18.402-44.053s34.693,17.009,37.9,29.033
	c3.208,12.023-6.796,25.133-22.343,29.281S131.102,227.116,127.894,215.093z"/>
<path style="fill:#FEEA9E;" d="M109.644,204.53c12.023-3.208,33.181-22.353,29.033-37.9c-4.148-15.548-32.03-21.61-44.053-18.402
	s-18.408,18.412-14.26,33.959C84.511,197.734,97.621,207.737,109.644,204.53z"/>
<path style="fill:#F9DE85;" d="M194.76,181.822c-12.023,3.208-39.906-2.855-44.053-18.402c-4.148-15.548,17.009-34.693,29.033-37.9
	c12.023-3.208,25.133,6.796,29.281,22.343C213.168,163.411,206.784,178.615,194.76,181.822z"/>
<circle style="fill:#F2A559;" cx="144.689" cy="165.03" r="20.829"/>
<path style="fill:#FEEA9E;" d="M285.135,30.032c0,12.444-13.045,37.821-29.136,37.821s-29.136-25.377-29.136-37.821
	S239.908,7.5,255.999,7.5S285.135,17.588,285.135,30.032z"/>
<g>
	<path style="fill:#F9DE85;" d="M285.135,118.125c0-12.444-13.045-37.821-29.136-37.821s-29.136,25.377-29.136,37.821
		s13.045,22.532,29.136,22.532S285.135,130.569,285.135,118.125z"/>
	<path style="fill:#F9DE85;" d="M300.045,103.214c-12.444,0-37.821-13.045-37.821-29.136s25.377-29.136,37.821-29.136
		s22.532,13.045,22.532,29.136S312.489,103.214,300.045,103.214z"/>
</g>
<path style="fill:#FEEA9E;" d="M211.953,103.214c12.444,0,37.821-13.045,37.821-29.136s-25.377-29.136-37.821-29.136
	s-22.532,13.045-22.532,29.136S199.509,103.214,211.953,103.214z"/>
<circle style="fill:#F2A559;" cx="255.999" cy="74.08" r="20.829"/>
<path style="fill:#80C56E;" d="M251.8,340.495l81.202-96.604c0,0-0.672,56.573-35.489,91.389S251.8,340.495,251.8,340.495z"/>
<g>
	<path style="fill:#66AD66;" d="M333.002,243.891c0,0-17.9,56.364-73.148,106.165c6.882,4.039,18.737,4.146,37.659-14.776
		C332.33,300.464,333.002,243.891,333.002,243.891z"/>
	<path style="fill:#66AD66;" d="M257.695,340.495l-81.202-96.604c0,0,0.672,56.573,35.489,91.389S257.695,340.495,257.695,340.495z"
		/>
</g>
<path style="fill:#80C56E;" d="M250.355,349.615c-54.146-38.385-73.862-105.724-73.862-105.724s0.672,56.573,35.489,91.39
	C231.573,354.872,243.591,354.066,250.355,349.615z"/>
<path style="fill:#FEC37D;" d="M303.484,504.5h-94.971c-5.816,0-10.874-3.988-12.231-9.644l-36.023-150.169h191.477l-36.023,150.169
	C314.358,500.512,309.301,504.5,303.484,504.5z"/>
<path style="fill:#F9AE5D;" d="M304.735,344.687l-36.023,150.169c-1.357,5.656-6.414,9.644-12.231,9.644h47.003
	c5.816,0,10.874-3.988,12.231-9.644l36.023-150.169H304.735z"/>
<path style="fill:#F2A559;" d="M362.075,369.63H149.923c-4.164,0-7.54-3.376-7.54-7.54v-19.188c0-4.164,3.376-7.54,7.54-7.54
	h212.151c4.164,0,7.54,3.376,7.54,7.54v19.188C369.615,366.255,366.239,369.63,362.075,369.63z"/>
<g>
	<path style="fill:#EA8F3D;" d="M362.075,335.362h-43.283v34.268h43.283c4.164,0,7.54-3.376,7.54-7.54v-19.188
		C369.615,338.738,366.239,335.362,362.075,335.362z"/>
	<polygon style="fill:#EA8F3D;" points="282.125,438.942 329.128,438.942 332.726,423.942 285.723,423.942 	"/>
</g>
<path d="M437.483,157.675c-3.56-8.478-10.185-14.563-18.176-16.695c-2.556-0.682-5.473-1.032-8.584-1.086
	c1.503-2.724,2.652-5.428,3.334-7.984c2.132-7.991,0.155-16.767-5.423-24.077c-5.222-6.844-13.119-11.952-22.234-14.383
	c-9.115-2.431-18.506-1.936-26.444,1.397c-8.478,3.56-14.563,10.185-16.695,18.176c-0.682,2.556-1.032,5.473-1.086,8.584
	c-2.724-1.503-5.428-2.652-7.984-3.334c-16.001-4.271-33.253,8.138-38.46,27.657c-2.432,9.116-1.936,18.507,1.397,26.444
	c3.56,8.478,10.185,14.563,18.176,16.695c1.601,0.427,3.355,0.711,5.198,0.888c-21.49,15.654-42.181,35.307-57.003,53.792v-96.227
	c16.616-2.845,29.136-14.944,29.136-29.397c0-2.645-0.414-5.555-1.163-8.574c3.019,0.75,5.929,1.163,8.574,1.163
	c16.56,0,30.032-16.435,30.032-36.636s-13.472-36.636-30.032-36.636c-2.645,0-5.555,0.414-8.574,1.163
	c0.75-3.019,1.163-5.928,1.163-8.574C292.635,13.472,276.2,0,255.999,0s-36.636,13.472-36.636,30.032
	c0,2.646,0.414,5.555,1.163,8.574c-3.019-0.75-5.929-1.163-8.574-1.163c-16.56,0-30.032,16.435-30.032,36.636
	s13.472,36.636,30.032,36.636c2.645,0,5.555-0.414,8.574-1.163c-0.75,3.019-1.163,5.929-1.163,8.574
	c0,14.453,12.52,26.552,29.136,29.397v96.311c-14.069-17.517-34.241-37.284-57.01-53.875c1.845-0.177,3.602-0.461,5.205-0.889
	c16-4.268,24.78-23.621,19.574-43.139c-5.207-19.519-22.459-31.925-38.46-27.657c-2.556,0.682-5.26,1.832-7.984,3.334
	c-0.054-3.111-0.404-6.028-1.086-8.584c-2.132-7.991-8.217-14.616-16.695-18.176c-7.937-3.333-17.328-3.83-26.444-1.397
	c-9.116,2.432-17.012,7.54-22.234,14.383c-5.578,7.31-7.555,16.085-5.423,24.077c0.682,2.556,1.831,5.26,3.334,7.984
	c-3.111,0.054-6.028,0.404-8.584,1.086c-7.991,2.132-14.616,8.217-18.176,16.695c-3.333,7.938-3.83,17.329-1.397,26.444
	c2.432,9.116,7.54,17.012,14.383,22.234c5.382,4.107,11.558,6.261,17.631,6.261c2.175,0,4.338-0.276,6.445-0.839
	c2.556-0.682,5.261-1.831,7.985-3.334c0.054,3.111,0.404,6.028,1.086,8.584c3.435,12.875,16.634,21.075,31.83,21.074
	c3.688,0,7.497-0.483,11.309-1.5c9.116-2.432,17.012-7.541,22.234-14.384c3.101-4.064,5.085-8.582,5.873-13.166
	c25.354,20.038,46.242,43.357,56.605,60.629v48.22l-66.265-78.834c-2.039-2.426-5.383-3.309-8.351-2.206
	c-2.97,1.103-4.927,3.953-4.89,7.12c0.026,2.167,0.9,48.045,26.867,83.882h-45.937c-8.293,0-15.04,6.747-15.04,15.04v19.188
	c0,8.293,6.747,15.04,15.04,15.04h10.407l0,0c0.065,0.418,28.528,119.083,28.66,119.476l0,0
	c2.175,9.063,10.203,15.394,19.524,15.394h94.971c9.321,0,17.35-6.331,19.523-15.395l28.66-119.475h10.407
	c8.293,0,15.04-6.747,15.04-15.04v-19.188c0-8.293-6.747-15.04-15.04-15.04h-48.441c25.967-35.837,26.842-81.715,26.868-83.882
	c0.038-3.168-1.919-6.018-4.89-7.121s-6.312-0.22-8.351,2.206l-63.763,75.857v-45.249c11.299-18.874,32.853-41.797,56.622-60.6
	c2.171,12.279,13.002,23.503,28.09,27.529c3.813,1.017,7.62,1.5,11.309,1.5c15.194,0,28.395-8.2,31.83-21.074
	c0.682-2.556,1.032-5.473,1.086-8.583c2.724,1.502,5.428,2.652,7.984,3.333c2.108,0.563,4.27,0.839,6.446,0.839
	c6.072,0,12.249-2.155,17.631-6.261c6.844-5.222,11.952-13.119,14.384-22.234C441.313,175.004,440.816,165.612,437.483,157.675z
	 M137.992,176.5c-3.074-1.786-5.264-4.608-6.179-8.04c-0.924-3.463-0.414-7.032,1.4-10.13c1.785-3.076,4.609-5.269,8.043-6.185
	c3.446-0.919,6.998-0.419,10.086,1.374c3.1,1.784,5.308,4.618,6.229,8.069c0.921,3.45,0.418,7.006-1.38,10.097
	c-1.784,3.094-4.616,5.299-8.062,6.218C144.665,178.828,141.092,178.318,137.992,176.5z M181.673,132.766
	c7.871-2.102,17.078,5.698,20.101,17.03s-1.074,22.68-8.947,24.78c-4.208,1.122-11.819,0.622-18.954-1.506
	c-0.557-0.47-1.119-0.924-1.687-1.368c1.113-4.563,1.106-9.373-0.123-13.979c-1.229-4.607-3.619-8.781-6.857-12.183
	c0.271-0.668,0.532-1.342,0.781-2.027C171.115,138.114,177.466,133.888,181.673,132.766z M115.288,116.933
	c3.171-4.156,8.338-7.433,14.175-8.99c2.511-0.67,5.073-1.002,7.561-1.002c3.296,0,6.463,0.583,9.209,1.736
	c2.447,1.027,6.742,3.461,8.009,8.212c1.122,4.207,0.622,11.818-1.506,18.954c-0.47,0.557-0.924,1.119-1.368,1.686
	c-4.563-1.113-9.373-1.106-13.979,0.123s-8.781,3.619-12.183,6.857c-0.667-0.271-1.341-0.532-2.026-0.781
	c-5.399-5.127-9.625-11.478-10.747-15.685C111.166,123.292,113.678,119.042,115.288,116.933z M107.71,197.283
	c-4.754,1.27-9-1.244-11.11-2.854c-4.156-3.171-7.433-8.338-8.99-14.176c-1.558-5.837-1.29-11.95,0.734-16.77
	c1.027-2.447,3.461-6.742,8.212-8.009c1.458-0.389,3.322-0.583,5.436-0.583c3.986,0,8.851,0.695,13.514,2.085
	c0.558,0.471,1.122,0.927,1.691,1.372c-1.113,4.563-1.106,9.373,0.123,13.979c1.229,4.607,3.618,8.781,6.857,12.183
	c-0.271,0.667-0.532,1.342-0.781,2.026C118.269,191.936,111.918,196.161,107.71,197.283z M176.95,202.005
	C176.95,202.006,176.95,202.006,176.95,202.005c1.268,4.751-1.244,9.001-2.854,11.111c-3.171,4.156-8.338,7.433-14.176,8.99
	c-11.333,3.02-22.68-1.075-24.779-8.947c-1.122-4.207-0.622-11.819,1.505-18.953c0.47-0.557,0.925-1.119,1.369-1.687
	c4.564,1.113,9.373,1.107,13.98-0.122c3.331-0.889,6.432-2.392,9.186-4.373c4.425,2.563,8.794,5.301,13.088,8.173
	C175.568,198.33,176.505,200.337,176.95,202.005z M261.81,86.056c-0.182,0.089-0.361,0.184-0.548,0.264
	c-0.177,0.077-0.359,0.138-0.539,0.207c-0.241,0.092-0.479,0.188-0.726,0.266c-0.147,0.046-0.3,0.079-0.449,0.12
	c-0.28,0.077-0.558,0.158-0.845,0.218c-0.175,0.036-0.354,0.054-0.53,0.083c-0.266,0.044-0.529,0.095-0.8,0.122
	c-0.453,0.046-0.911,0.071-1.374,0.071c-0.463,0-0.921-0.025-1.374-0.071c-0.274-0.028-0.54-0.079-0.808-0.124
	c-0.174-0.029-0.35-0.047-0.521-0.082c-0.29-0.06-0.572-0.142-0.855-0.22c-0.146-0.04-0.294-0.072-0.438-0.117
	c-0.251-0.079-0.493-0.177-0.738-0.271c-0.175-0.067-0.354-0.127-0.526-0.202c-0.191-0.083-0.375-0.18-0.562-0.271
	c-0.226-0.111-0.454-0.219-0.674-0.344c-0.124-0.07-0.242-0.148-0.363-0.221c-0.284-0.173-0.567-0.35-0.839-0.546
	c-0.057-0.04-0.111-0.084-0.167-0.125c-0.335-0.249-0.664-0.51-0.979-0.792c-0.003-0.002-0.006-0.005-0.009-0.008
	c-0.171-0.154-0.328-0.327-0.493-0.49c-0.508-0.501-0.98-1.026-1.395-1.586c-0.039-0.053-0.08-0.104-0.118-0.158
	c-0.198-0.276-0.377-0.562-0.553-0.85c-0.071-0.118-0.147-0.233-0.215-0.353c-0.127-0.224-0.237-0.455-0.35-0.685
	c-0.089-0.184-0.185-0.364-0.266-0.552c-0.076-0.176-0.137-0.357-0.206-0.536c-0.092-0.241-0.189-0.48-0.267-0.728
	c-0.046-0.147-0.079-0.3-0.12-0.449c-0.077-0.28-0.158-0.558-0.218-0.845c-0.036-0.175-0.054-0.354-0.083-0.531
	c-0.044-0.266-0.095-0.529-0.122-0.8c-0.046-0.453-0.071-0.911-0.071-1.374s0.025-0.921,0.071-1.374
	c0.028-0.272,0.079-0.536,0.123-0.802c0.029-0.176,0.047-0.354,0.083-0.528c0.06-0.288,0.141-0.568,0.219-0.85
	c0.041-0.147,0.073-0.298,0.119-0.444c0.079-0.249,0.176-0.49,0.268-0.732c0.068-0.177,0.129-0.358,0.204-0.532
	c0.082-0.19,0.178-0.371,0.268-0.556c0.112-0.228,0.221-0.458,0.347-0.68c0.069-0.122,0.146-0.239,0.218-0.359
	c0.174-0.286,0.352-0.57,0.548-0.843c0.04-0.056,0.083-0.109,0.123-0.165c0.249-0.336,0.511-0.665,0.794-0.981
	c0.002-0.003,0.005-0.005,0.007-0.008c0.169-0.188,0.359-0.362,0.54-0.543c0.18-0.181,0.354-0.371,0.543-0.54
	c0.003-0.002,0.005-0.005,0.008-0.007c0.315-0.283,0.645-0.544,0.981-0.794c0.055-0.041,0.109-0.084,0.165-0.123
	c0.274-0.197,0.557-0.374,0.843-0.548c0.12-0.072,0.237-0.15,0.359-0.218c0.222-0.126,0.452-0.235,0.68-0.347
	c0.185-0.09,0.366-0.187,0.556-0.268c0.174-0.076,0.355-0.136,0.532-0.204c0.243-0.093,0.483-0.19,0.732-0.268
	c0.146-0.046,0.296-0.078,0.444-0.119c0.281-0.078,0.561-0.159,0.85-0.219c0.174-0.036,0.352-0.054,0.528-0.083
	c0.266-0.044,0.531-0.095,0.802-0.123c0.453-0.046,0.911-0.071,1.374-0.071c0.463,0,0.921,0.025,1.374,0.071
	c0.271,0.028,0.534,0.079,0.8,0.123c0.177,0.029,0.356,0.047,0.53,0.083c0.287,0.059,0.565,0.14,0.845,0.218
	c0.149,0.041,0.302,0.073,0.449,0.12c0.248,0.078,0.487,0.175,0.728,0.267c0.179,0.068,0.361,0.129,0.536,0.206
	c0.188,0.081,0.368,0.177,0.552,0.266c0.23,0.113,0.462,0.223,0.685,0.349c0.12,0.068,0.235,0.144,0.353,0.215
	c0.288,0.175,0.574,0.355,0.85,0.553c0.054,0.038,0.105,0.079,0.158,0.118c0.545,0.404,1.056,0.862,1.545,1.353
	c0.179,0.179,0.367,0.351,0.535,0.537c0.001,0.001,0.001,0.001,0.002,0.002c0.284,0.317,0.547,0.647,0.797,0.985
	c0.04,0.054,0.082,0.107,0.122,0.162c0.197,0.274,0.375,0.558,0.549,0.844c0.072,0.12,0.15,0.236,0.218,0.359
	c0.125,0.221,0.234,0.451,0.346,0.679c0.091,0.186,0.187,0.368,0.269,0.558c0.075,0.173,0.135,0.352,0.203,0.528
	c0.093,0.244,0.191,0.486,0.27,0.736c0.045,0.144,0.077,0.293,0.117,0.438c0.079,0.283,0.16,0.565,0.22,0.855
	c0.035,0.172,0.053,0.348,0.082,0.521c0.044,0.268,0.096,0.535,0.124,0.808c0.046,0.453,0.071,0.911,0.071,1.374
	s-0.025,0.921-0.071,1.374c-0.028,0.271-0.079,0.534-0.122,0.8c-0.029,0.177-0.047,0.356-0.083,0.531
	c-0.059,0.287-0.14,0.565-0.218,0.845c-0.041,0.149-0.073,0.302-0.12,0.449c-0.078,0.247-0.175,0.485-0.266,0.726
	c-0.069,0.18-0.13,0.362-0.207,0.539c-0.081,0.187-0.176,0.366-0.264,0.548c-0.114,0.232-0.224,0.464-0.352,0.689
	c-0.067,0.119-0.142,0.232-0.212,0.349c-0.176,0.29-0.357,0.578-0.556,0.855c-0.037,0.052-0.077,0.101-0.114,0.153
	c-0.402,0.543-0.858,1.052-1.348,1.539c-0.487,0.489-0.997,0.946-1.539,1.348c-0.051,0.038-0.101,0.077-0.153,0.114
	c-0.277,0.199-0.565,0.38-0.855,0.556c-0.117,0.07-0.23,0.145-0.349,0.212C262.274,85.832,262.041,85.942,261.81,86.056z
	 M300.045,52.442c8.148,0,15.032,9.908,15.032,21.636s-6.884,21.636-15.032,21.636c-4.354,0-11.579-2.445-17.925-6.34
	c-0.411-0.588-0.83-1.164-1.258-1.731c1.624-2.964,2.727-6.251,3.2-9.735c0.01-0.071,0.018-0.143,0.027-0.214
	c0.063-0.493,0.113-0.99,0.151-1.491c0.01-0.128,0.021-0.256,0.029-0.384c0.035-0.576,0.059-1.155,0.059-1.74
	c0-0.584-0.023-1.163-0.059-1.739c-0.008-0.13-0.02-0.26-0.03-0.39c-0.037-0.497-0.087-0.991-0.15-1.481
	c-0.01-0.075-0.018-0.15-0.029-0.225c-0.474-3.483-1.576-6.767-3.199-9.731c0.427-0.567,0.847-1.142,1.257-1.73
	C288.466,54.888,295.691,52.442,300.045,52.442z M234.363,30.032c0-8.148,9.908-15.032,21.636-15.032
	c11.728,0,21.636,6.884,21.636,15.032c0,4.354-2.445,11.58-6.34,17.925c-0.589,0.411-1.164,0.83-1.731,1.257
	c-2.963-1.623-6.248-2.725-9.731-3.199c-0.074-0.01-0.149-0.019-0.223-0.029c-0.49-0.063-0.984-0.113-1.482-0.15
	c-0.13-0.01-0.259-0.021-0.389-0.03c-0.576-0.035-1.155-0.059-1.739-0.059c-0.584,0-1.163,0.023-1.739,0.059
	c-0.13,0.008-0.259,0.02-0.389,0.03c-0.498,0.037-0.992,0.087-1.482,0.15c-0.074,0.01-0.149,0.018-0.223,0.029
	c-3.483,0.473-6.768,1.576-9.731,3.199c-0.567-0.427-1.143-0.847-1.731-1.258C236.808,41.611,234.363,34.386,234.363,30.032z
	 M211.953,95.714c-8.148,0-15.032-9.908-15.032-21.636s6.884-21.636,15.032-21.636c4.354,0,11.579,2.445,17.924,6.34
	c0.411,0.589,0.83,1.165,1.258,1.731c-1.623,2.964-2.726,6.249-3.199,9.731c-0.01,0.074-0.019,0.149-0.029,0.223
	c-0.063,0.49-0.113,0.984-0.15,1.482c-0.01,0.13-0.022,0.259-0.03,0.389c-0.035,0.576-0.059,1.155-0.059,1.739
	s0.023,1.163,0.059,1.739c0.008,0.13,0.02,0.259,0.03,0.389c0.037,0.498,0.087,0.992,0.15,1.482c0.01,0.074,0.018,0.149,0.029,0.223
	c0.473,3.483,1.576,6.768,3.199,9.731c-0.427,0.567-0.847,1.142-1.257,1.731C223.532,93.269,216.307,95.714,211.953,95.714z
	 M234.363,118.125c0-4.354,2.445-11.58,6.34-17.925c0.588-0.411,1.164-0.83,1.731-1.257c2.964,1.623,6.249,2.726,9.732,3.199
	c0.074,0.01,0.149,0.019,0.223,0.028c0.49,0.063,0.984,0.113,1.482,0.15c0.13,0.01,0.259,0.021,0.389,0.03
	c0.576,0.035,1.155,0.059,1.739,0.059c0.585,0,1.164-0.024,1.74-0.059c0.128-0.008,0.256-0.02,0.384-0.029
	c0.501-0.037,0.997-0.088,1.49-0.151c0.071-0.009,0.143-0.017,0.214-0.027c3.484-0.473,6.77-1.576,9.735-3.2
	c0.567,0.427,1.143,0.847,1.731,1.258c3.895,6.346,6.34,13.571,6.34,17.925c0,8.148-9.908,15.032-21.636,15.032
	C244.269,133.158,234.363,126.272,234.363,118.125z M187.021,268.073l50.257,59.79h-22.036
	C198.367,309.776,190.595,285.792,187.021,268.073z M325.013,423.942h-65.902c-4.142,0-7.5,3.358-7.5,7.5s3.358,7.5,7.5,7.5h62.304
	l-12.993,54.165c-0.55,2.292-2.58,3.893-4.938,3.893h-94.971c-2.357,0-4.388-1.601-4.938-3.894l-12.993-54.165h15.513
	c4.142,0,7.5-3.358,7.5-7.5s-3.358-7.5-7.5-7.5h-19.112l-11.229-46.812h160.487L325.013,423.942z M362.115,342.902l-0.024,19.227
	c0,0-0.004,0.001-0.016,0.001l-212.191-0.04l0.04-19.228L362.115,342.902z M322.474,268.072
	c-3.574,17.724-11.346,41.71-28.221,59.791h-22.037L322.474,268.072z M363.871,177.904c-3.455-0.922-6.292-3.134-8.075-6.239
	c-1.788-3.085-2.287-6.633-1.369-10.076c0.916-3.432,3.105-6.254,6.178-8.04c3.1-1.818,6.672-2.328,10.138-1.404
	c3.434,0.916,6.258,3.109,8.043,6.185c1.814,3.098,2.323,6.667,1.4,10.13c-0.915,3.431-3.104,6.252-6.176,8.038
	C370.909,178.317,367.336,178.829,363.871,177.904z M357.755,116.89c1.268-4.751,5.562-7.185,8.009-8.212
	c4.821-2.023,10.934-2.292,16.77-0.734c5.837,1.557,11.004,4.834,14.176,8.99c1.61,2.11,4.122,6.359,2.854,11.111
	c-1.122,4.207-5.348,10.558-10.747,15.685c-0.685,0.249-1.359,0.51-2.026,0.781c-3.402-3.238-7.577-5.628-12.183-6.857
	c-2.381-0.635-4.818-0.948-7.247-0.948c-2.269,0-4.529,0.288-6.733,0.826c-0.444-0.568-0.898-1.13-1.368-1.686
	C357.133,128.709,356.632,121.097,357.755,116.89z M310.958,166.566c-2.024-4.82-2.292-10.933-0.734-16.771
	c2.691-10.085,10.278-17.372,17.465-17.372c0.888,0,1.77,0.111,2.636,0.342c4.207,1.122,10.558,5.348,15.685,10.747
	c0.249,0.685,0.51,1.359,0.781,2.026c-3.238,3.402-5.628,7.576-6.857,12.183l0,0c-1.229,4.606-1.236,9.417-0.122,13.979
	c-0.568,0.444-1.13,0.898-1.687,1.368c-7.135,2.128-14.746,2.628-18.954,1.506C314.419,173.308,311.986,169.014,310.958,166.566z
	 M376.857,213.16c-2.1,7.873-13.45,11.969-24.779,8.947c-11.332-3.023-19.13-12.228-17.03-20.101
	c1.122-4.204,5.343-10.55,10.737-15.676c0.689-0.25,1.37-0.512,2.042-0.785c3.401,3.236,7.573,5.623,12.177,6.852l0,0
	c4.607,1.229,9.415,1.236,13.979,0.122c0.444,0.568,0.899,1.13,1.368,1.687C377.479,201.341,377.979,208.953,376.857,213.16z
	 M424.388,180.253c-1.558,5.837-4.834,11.004-8.99,14.176c-2.109,1.61-6.358,4.122-11.111,2.854
	c-4.206-1.122-10.557-5.347-15.684-10.747c-0.249-0.685-0.51-1.359-0.781-2.026c3.239-3.402,5.628-7.576,6.857-12.183
	c1.229-4.606,1.236-9.416,0.122-13.979c0.568-0.444,1.13-0.899,1.688-1.369c7.135-2.128,14.745-2.628,18.953-1.505
	c4.751,1.268,7.185,5.562,8.212,8.009C425.677,168.303,425.945,174.416,424.388,180.253z"/>
<g>
</g>
<g>
</g>
<g>
</g>
<g>
</g>
<g>
</g>
<g>
</g>
<g>
</g>
<g>
</g>
<g>
</g>
<g>
</g>
<g>
</g>
<g>
</g>
<g>
</g>
<g>
</g>
<g>
</g>
</svg>
