<?xml version="1.0" encoding="iso-8859-1"?>
<!-- Generator: Adobe Illustrator 19.0.0, SVG Export Plug-In . SVG Version: 6.00 Build 0)  -->
<svg version="1.1" id="Capa_1" xmlns="http://www.w3.org/2000/svg" xmlns:xlink="http://www.w3.org/1999/xlink" x="0px" y="0px"
	 viewBox="0 0 512 512" style="enable-background:new 0 0 512 512;" xml:space="preserve">
<path style="fill:#80C56E;" d="M401.061,222.148c0.373,0.114,0.562,0.517,0.41,0.877c-2.526,5.985-22.423,50.88-57.355,67.196
	c-43.386,20.265-61.375-12.273-61.375-12.273s-13.407-34.679,29.979-54.944C347.652,206.688,394.85,220.244,401.061,222.148z"/>
<path style="fill:#66AD66;" d="M344.116,290.222c34.932-16.317,54.829-61.211,57.355-67.196c0.152-0.36-0.036-0.763-0.41-0.877
	l-118.321,55.8C282.74,277.948,300.73,310.486,344.116,290.222z"/>
<path style="fill:#80C56E;" d="M110.939,222.148c-0.373,0.114-0.562,0.517-0.41,0.877c2.526,5.985,22.423,50.88,57.355,67.196
	c43.386,20.265,61.375-12.273,61.375-12.273s13.407-34.679-29.979-54.944C164.348,206.688,117.15,220.244,110.939,222.148z"/>
<path style="fill:#66AD66;" d="M167.884,290.222c43.386,20.265,61.375-12.273,61.375-12.273l-118.701-55.483
	c-0.089,0.166-0.111,0.367-0.03,0.56C113.056,229.01,132.952,273.905,167.884,290.222z"/>
<g>
	<path style="fill:#EF4D68;" d="M277.588,32.572c0,19.46-9.665,56.016-21.588,56.016c-11.923,0-21.588-36.555-21.588-56.016
		S244.077,7.5,256,7.5C267.923,7.5,277.588,13.112,277.588,32.572z"/>
	<path style="fill:#EF4D68;" d="M277.588,178.078c0-19.46-9.665-56.016-21.588-56.016c-11.923,0-21.588,36.555-21.588,56.016
		S244.077,203.15,256,203.15C267.923,203.15,277.588,197.538,277.588,178.078z"/>
</g>
<g>
	<path style="fill:#FD747F;" d="M322.709,69.147c-13.76,13.76-46.443,32.774-54.874,24.344s10.583-41.114,24.344-54.874
		s24.563-10.894,32.994-2.464S336.47,55.386,322.709,69.147z"/>
	<path style="fill:#FD747F;" d="M219.821,172.034c13.76-13.76,32.774-46.443,24.344-54.874s-41.114,10.583-54.874,24.344
		c-13.76,13.76-10.894,24.563-2.464,32.994C195.258,182.929,206.061,185.795,219.821,172.034z"/>
</g>
<g>
	<path style="fill:#EF4D68;" d="M328.753,126.914c-19.46,0-56.016-9.665-56.016-21.588s36.555-21.588,56.016-21.588
		s25.073,9.665,25.073,21.588S348.213,126.914,328.753,126.914z"/>
	<path style="fill:#EF4D68;" d="M183.247,126.914c19.46,0,56.016-9.665,56.016-21.588s-36.555-21.588-56.016-21.588
		s-25.072,9.665-25.072,21.588S163.787,126.914,183.247,126.914z"/>
</g>
<g>
	<path style="fill:#FD747F;" d="M292.179,172.034c-13.76-13.76-32.774-46.443-24.344-54.874s41.114,10.583,54.874,24.344
		c13.76,13.76,10.894,24.563,2.464,32.994C316.742,182.929,305.939,185.795,292.179,172.034z"/>
	<path style="fill:#FD747F;" d="M189.291,69.147c13.76,13.76,46.443,32.774,54.874,24.344s-10.583-41.114-24.344-54.874
		c-13.76-13.76-24.563-10.894-32.994-2.464S175.53,55.386,189.291,69.147z"/>
</g>
<g>
	<circle style="fill:#FEC37D;" cx="256" cy="105.33" r="25.736"/>
	<path style="fill:#FEC37D;" d="M312.693,504.5H199.307c-4.664,0-8.682-3.288-9.605-7.86l-30.039-148.817h192.674L322.298,496.64
		C321.375,501.212,317.357,504.5,312.693,504.5z"/>
</g>
<path style="fill:#F9AE5D;" d="M302.337,347.823L272.298,496.64c-0.923,4.572-4.941,7.86-9.605,7.86h50
	c4.664,0,8.682-3.288,9.605-7.86l30.039-148.817H302.337z"/>
<path style="fill:#F2A559;" d="M366.949,374.336H145.051c-2.83,0-5.124-2.294-5.124-5.124v-26.559c0-2.83,2.294-5.124,5.124-5.124
	h221.897c2.83,0,5.124,2.294,5.124,5.124v26.559C372.073,372.042,369.779,374.336,366.949,374.336z"/>
<g>
	<path style="fill:#EA8F3D;" d="M366.949,337.529H321.25v36.807h45.698c2.83,0,5.124-2.294,5.124-5.124v-26.559
		C372.073,339.823,369.779,337.529,366.949,337.529z"/>
	<polygon style="fill:#EA8F3D;" points="283.944,438.942 333.944,438.942 335.235,432.547 336.972,423.942 286.972,423.942 	"/>
</g>
<path d="M280.321,287.356c2.821,3.316,7.125,7.457,13.15,10.859c5.786,3.267,13.765,6.135,23.944,6.135
	c8.444,0,18.402-1.974,29.875-7.333c39.69-18.539,60.55-69.698,61.418-71.866c0.014-0.036,0.024-0.073,0.037-0.109
	c0.051-0.133,0.095-0.268,0.138-0.404c0.032-0.102,0.067-0.203,0.095-0.306c0.039-0.144,0.07-0.291,0.101-0.438
	c0.02-0.094,0.043-0.188,0.059-0.283c0.029-0.169,0.047-0.339,0.064-0.51c0.007-0.074,0.019-0.147,0.024-0.22
	c0.015-0.208,0.017-0.418,0.014-0.628c-0.001-0.037,0.002-0.074,0.001-0.112c-0.029-0.992-0.254-1.995-0.701-2.952
	s-1.071-1.772-1.814-2.431c-0.03-0.027-0.063-0.05-0.093-0.076c-0.157-0.135-0.317-0.265-0.483-0.386
	c-0.062-0.045-0.128-0.085-0.192-0.128c-0.139-0.094-0.279-0.188-0.424-0.273c-0.087-0.051-0.177-0.095-0.266-0.143
	c-0.128-0.068-0.256-0.137-0.388-0.197c-0.101-0.047-0.205-0.087-0.308-0.129c-0.127-0.052-0.254-0.103-0.384-0.148
	c-0.038-0.013-0.074-0.031-0.113-0.043c-2.22-0.726-54.841-17.563-94.53,0.976c-25.303,11.819-33.25,28.549-35.46,40.503
	c-1.258,6.804-0.844,12.762-0.112,17.054L263.5,278.66v-68.74c10.154-2.074,21.588-9.39,21.588-31.84
	c0-0.854-0.019-1.742-0.052-2.653c0.621,0.668,1.235,1.309,1.839,1.913c7.798,7.799,15.753,11.751,23.65,11.751
	c0.072,0,0.146,0,0.217-0.001c6.996-0.064,13.635-3.188,19.733-9.286c7.682-7.682,17.576-23.561-2.463-43.601
	c-0.604-0.604-1.245-1.218-1.912-1.839c0.911,0.033,1.799,0.052,2.652,0.052c28.341,0,32.573-18.225,32.573-29.088
	s-4.232-29.089-32.573-29.089c-0.854,0-1.741,0.019-2.652,0.052c0.668-0.621,1.309-1.235,1.912-1.839
	c20.04-20.04,10.145-35.919,2.463-43.601c-6.097-6.098-12.736-9.222-19.733-9.287c-7.941-0.042-15.998,3.88-23.868,11.75
	c-0.604,0.604-1.218,1.245-1.839,1.913c0.033-0.911,0.052-1.799,0.052-2.653C285.088,4.231,266.864,0,256,0
	c-10.864,0-29.088,4.231-29.088,32.572c0,0.854,0.019,1.742,0.052,2.653c-0.621-0.668-1.235-1.309-1.839-1.913
	c-7.799-7.799-15.753-11.751-23.65-11.751c-0.072,0-0.146,0-0.217,0.001c-6.997,0.064-13.636,3.189-19.733,9.287
	c-7.682,7.682-17.576,23.561,2.464,43.601c0.604,0.604,1.245,1.218,1.912,1.839c-0.911-0.033-1.799-0.052-2.653-0.052
	c-28.341,0-32.573,18.225-32.573,29.089s4.232,29.088,32.573,29.088c0.854,0,1.741-0.019,2.653-0.052
	c-0.668,0.621-1.309,1.235-1.912,1.839c-20.04,20.04-10.146,35.919-2.464,43.601c6.098,6.098,12.737,9.222,19.733,9.286
	c0.072,0.001,0.145,0.001,0.217,0.001c7.896,0,15.853-3.953,23.65-11.751c0.604-0.604,1.218-1.245,1.839-1.913
	c-0.033,0.911-0.052,1.799-0.052,2.653c0,22.45,11.434,29.766,21.588,31.84v68.74l-10.473-4.892
	c0.732-4.292,1.146-10.25-0.112-17.054c-2.21-11.954-10.157-28.684-35.46-40.503c-39.69-18.539-92.31-1.701-94.53-0.976
	c-0.039,0.013-0.076,0.031-0.114,0.044c-0.127,0.044-0.252,0.094-0.377,0.145c-0.106,0.043-0.212,0.084-0.316,0.132
	c-0.128,0.059-0.252,0.125-0.376,0.191c-0.093,0.05-0.188,0.096-0.279,0.149c-0.139,0.081-0.272,0.171-0.405,0.261
	c-0.07,0.047-0.143,0.091-0.211,0.141c-0.159,0.115-0.31,0.24-0.46,0.368c-0.038,0.032-0.079,0.062-0.116,0.095
	c-0.181,0.161-0.356,0.332-0.522,0.512c-0.004,0.004-0.008,0.007-0.011,0.011c-0.509,0.552-0.943,1.19-1.278,1.906
	c-0.447,0.957-0.672,1.959-0.701,2.952c-0.001,0.037,0.002,0.074,0.001,0.112c-0.003,0.21,0,0.419,0.014,0.628
	c0.005,0.074,0.017,0.147,0.024,0.22c0.017,0.171,0.035,0.341,0.064,0.51c0.016,0.095,0.039,0.189,0.059,0.283
	c0.031,0.147,0.061,0.293,0.101,0.438c0.028,0.103,0.062,0.204,0.095,0.306c0.043,0.136,0.087,0.271,0.138,0.404
	c0.014,0.036,0.023,0.073,0.037,0.109c0.869,2.168,21.728,53.327,61.418,71.866c11.475,5.359,21.43,7.333,29.875,7.333
	c10.177,0,18.159-2.869,23.944-6.135c6.025-3.402,10.328-7.543,13.15-10.859l16.821,7.857v34.815H145.051
	c-6.961,0-12.625,5.663-12.625,12.625v26.559c0,6.961,5.664,12.625,12.625,12.625h13.826l10.312,51.087
	c0.004,0.019,0.008,0.039,0.012,0.058l13.15,65.143c1.623,8.041,8.754,13.876,16.957,13.876h113.385
	c8.203,0,15.333-5.835,16.957-13.876l23.474-116.288h13.826c6.961,0,12.625-5.663,12.625-12.625v-26.559
	c0-6.961-5.664-12.625-12.625-12.625H263.5v-34.815L280.321,287.356z M340.942,283.426c-15.394,7.19-28.694,7.875-39.531,2.039
	c-2.711-1.46-4.947-3.173-6.734-4.814l90.546-42.293C376.275,253.56,361.243,273.944,340.942,283.426z M288.835,259.439
	c2.283-12.348,11.387-22.32,27.058-29.64c20.237-9.452,45.528-7.904,62.949-5.017l-90.527,42.284
	C288.216,264.821,288.319,262.23,288.835,259.439z M196.107,229.8c15.393,7.19,24.455,16.949,26.934,29.006
	c0.62,3.016,0.741,5.831,0.63,8.254l-90.513-42.277C150.581,221.897,175.872,220.348,196.107,229.8z M210.589,285.465
	c-10.837,5.837-24.137,5.152-39.531-2.039c-20.237-9.453-35.28-29.841-44.248-45.053l90.513,42.278
	C215.535,282.292,213.299,284.005,210.589,285.465z M329.321,423.942h-76.598c-4.142,0-7.5,3.358-7.5,7.5s3.358,7.5,7.5,7.5h73.57
	l-11.347,56.214c-0.216,1.068-1.164,1.844-2.253,1.844H199.308c-1.09,0-2.038-0.775-2.253-1.844l-11.347-56.214h14.001
	c4.142,0,7.5-3.358,7.5-7.5s-3.358-7.5-7.5-7.5H182.68l-8.499-42.106H337.82L329.321,423.942z M364.573,366.836L364.573,366.836
	H147.427l0,0v-21.808h217.146V366.836z M249.461,122.348c-0.147-0.056-0.295-0.102-0.444-0.149c-0.14-0.073-0.279-0.147-0.424-0.212
	c-4.129-1.839-7.417-5.126-9.256-9.256c-0.065-0.145-0.139-0.284-0.211-0.423c-0.047-0.148-0.092-0.297-0.148-0.444
	c-0.805-2.093-1.213-4.293-1.213-6.54s0.408-4.447,1.213-6.54c0.067-0.174,0.122-0.349,0.176-0.524
	c0.059-0.116,0.13-0.222,0.184-0.342c1.84-4.129,5.127-7.417,9.257-9.256c0.146-0.065,0.286-0.139,0.426-0.213
	c0.147-0.046,0.294-0.091,0.44-0.147c4.187-1.609,8.895-1.609,13.081,0c0.144,0.055,0.289,0.098,0.434,0.144
	c0.142,0.074,0.284,0.15,0.432,0.216c4.13,1.839,7.417,5.127,9.257,9.256c0.053,0.12,0.125,0.226,0.184,0.342
	c0.053,0.176,0.109,0.351,0.176,0.524c0.805,2.093,1.213,4.293,1.213,6.54s-0.408,4.447-1.213,6.54
	c-0.056,0.147-0.102,0.295-0.148,0.443c-0.073,0.139-0.147,0.278-0.211,0.423c-1.84,4.13-5.127,7.417-9.256,9.256
	c-0.145,0.065-0.284,0.139-0.424,0.212c-0.148,0.047-0.297,0.092-0.444,0.149C258.355,123.958,253.645,123.958,249.461,122.348z
	 M319.87,169.195c-3.266,3.266-6.296,4.866-9.264,4.894c-0.026,0-0.053,0-0.079,0c-3.773,0-8.162-2.475-13.044-7.357
	c-7.772-7.772-17.772-22.656-22.127-34.388c2.958-2.118,5.545-4.705,7.663-7.663c11.732,4.354,26.616,14.354,34.389,22.126
	C327.718,157.119,325.849,163.215,319.87,169.195z M346.325,105.325c0,8.457-2.988,14.088-17.573,14.088
	c-10.991,0-28.584-3.453-39.959-8.669c0.294-1.783,0.442-3.593,0.442-5.419c0-1.827-0.148-3.636-0.442-5.42
	c11.375-5.216,28.968-8.669,39.959-8.669C343.337,91.236,346.325,96.869,346.325,105.325z M297.482,43.919
	c4.917-4.917,9.356-7.426,13.124-7.357c2.968,0.027,5.999,1.628,9.264,4.894c5.979,5.979,7.849,12.075-2.463,22.388
	c-7.773,7.772-22.657,17.772-34.389,22.126c-2.118-2.958-4.705-5.544-7.663-7.663C279.709,66.575,289.709,51.691,297.482,43.919z
	 M256,15c8.457,0,14.088,2.988,14.088,17.572c0,10.992-3.453,28.585-8.669,39.959c-1.784-0.294-3.593-0.442-5.419-0.442
	c-1.826,0-3.636,0.148-5.419,0.442c-5.216-11.375-8.669-28.968-8.669-39.959C241.912,17.988,247.543,15,256,15z M192.13,41.456
	c3.266-3.266,6.296-4.866,9.264-4.894c0.026,0,0.053,0,0.079,0c3.773,0,8.162,2.475,13.044,7.357
	c7.772,7.772,17.773,22.656,22.127,34.388c-2.958,2.118-5.545,4.705-7.663,7.663c-11.732-4.354-26.616-14.354-34.388-22.126
	C184.282,53.531,186.151,47.435,192.13,41.456z M165.675,105.325c0-8.457,2.988-14.089,17.573-14.089
	c10.991,0,28.584,3.453,39.959,8.669c-0.294,1.784-0.442,3.593-0.442,5.42c0,1.826,0.148,3.636,0.442,5.419
	c-11.375,5.216-28.968,8.669-39.959,8.669C168.663,119.414,165.675,113.782,165.675,105.325z M214.518,166.731
	c-4.883,4.883-9.271,7.358-13.044,7.357c-0.026,0-0.053,0-0.079,0c-2.968-0.027-5.999-1.628-9.264-4.894
	c-5.979-5.98-7.849-12.076,2.464-22.388c7.772-7.772,22.656-17.772,34.388-22.126c2.118,2.958,4.705,5.545,7.663,7.663
	C232.291,144.075,222.291,158.958,214.518,166.731z M241.912,178.078c0-10.991,3.453-28.584,8.669-39.959
	c3.566,0.589,7.272,0.589,10.839,0c5.216,11.375,8.669,28.968,8.669,39.959c0,14.584-5.632,17.572-14.088,17.572
	C247.545,195.65,241.912,192.662,241.912,178.078z"/>
<g>
</g>
<g>
</g>
<g>
</g>
<g>
</g>
<g>
</g>
<g>
</g>
<g>
</g>
<g>
</g>
<g>
</g>
<g>
</g>
<g>
</g>
<g>
</g>
<g>
</g>
<g>
</g>
<g>
</g>
</svg>
