<svg id="icons" height="512" viewBox="0 0 500 500" width="512" xmlns="http://www.w3.org/2000/svg"><path d="m410.107 237.823c-.607-51.6-32.177-72.853-32.177-72.853 16.392 3.642 27.177-8.939 27.177-8.939-8.58-8.781-18-20.787-27.784-37.2-28.368-47.587-68.368-47.931-86.356-45.213a55.3 55.3 0 0 1 -16.529 0c-17.987-2.718-57.987-2.374-86.356 45.211-9.785 16.415-19.2 28.421-27.784 37.2 0 0 10.785 12.581 27.177 8.939 0 0-31.57 21.249-32.177 72.853l20.035-9.106s-15.178 51.6 9.714 100.173h195.312c24.891-48.569 9.714-100.173 9.714-100.173z" fill="#565663"/><path d="m424.49 359.545a55.509 55.509 0 0 0 -12.623-21.175 339.661 339.661 0 0 0 -87.821-65.776l-41.343 1.3-41.343-1.3a339.624 339.624 0 0 0 -87.821 65.776 55.5 55.5 0 0 0 -12.623 21.175c-18.102 56.199-22.916 125.749-22.916 125.749h321.765s2.827-69.55-15.275-125.749z" fill="#ffdbd4"/><path d="m228.4 171.434s-25.106.463-24.06 18.978 10.984 34.714 38.183 27.308z" fill="#f59896"/><path d="m339.305 171.434s25.107.463 24.061 18.978-10.985 34.714-38.183 27.308z" fill="#f59896"/><path d="m342.436 149.833c-3.136-51.783-58.582-52.306-58.582-52.306s-55.444.523-58.583 52.306 12.554 74.274 12.554 74.274h92.058s15.691-22.492 12.553-74.274z" fill="#ffdbd4"/><path d="m235.2 212.125s-31.514 36.49-21.562 95.1l12.716-12.163s-2.211 28.2 30.408 54.735l6.082-16.587s8.846 14.928 28.2 28.75c0 0 19.351-10.5 28.75-40.36l7.74 11.058s48.834-50.987 6.859-109.208z" fill="#565663"/><path d="m297.877 189.991c-6.519-.916-6.915 15.02-19.674 12.59-13.008-2.478-12.144-11.789-10.141-17.689a2.5 2.5 0 0 0 -3.274-3.154 71.589 71.589 0 0 0 -39.865 40.3 41.307 41.307 0 0 0 -1.5 10.38 9.292 9.292 0 0 0 15.13 7.372l7.6-6.126 19.078 16.336 19.515-15.377 15.233 15.377 17.142-17.3 6.927 4.883a8.34 8.34 0 0 0 13.1-7.629c-1.401-15.081-8.998-35.707-39.271-39.963z" fill="#565663"/><path d="m97.437 14.705 20.563 57.995s-13.347 37.763 4.624 59.225a14.365 14.365 0 0 1 2.51 13.628l-12.477 38.671-16.344-.893-18.562-59.218c5.463-44.213 10.976-88.077 19.686-109.408z" fill="#72848c"/><path d="m82.2 57.548c.2 16.552-7.273 22.952-7.273 22.952 8.694 24.634 1.85 39.37-5.738 46.786a125.132 125.132 0 0 1 19.222 55.614l7.9.431c-.2-37.34-14.461-58.825-14.461-58.825l11.363-53.313a32.7 32.7 0 0 0 -.62-3.75c-4.635-20.236 4.844-52.738 4.844-52.738-11.917 20.711-15.237 42.843-15.237 42.843z" fill="#dceaef"/><path d="m81.849 124.509s13.612-32.609 11.358-53.315c-3.68 3.011-9.421 6.455-18.28 9.31a95.887 95.887 0 0 1 -5.738 46.786s4.762.59 12.66-2.781z" fill="#abbbc4"/><path d="m88.411 219.555h24.243v191.512h-24.243z" fill="#e57e62"/><path d="m88.411 258.116 24.243 11.483v-50.044h-24.243z" fill="#9b4036"/><path d="m118 394.688h24.911a15.488 15.488 0 0 1 15.489 15.487v32.909s-22.039 3.306-27-16.529z" fill="#f59896"/><path d="m118 485.294h-33.987a23.957 23.957 0 0 1 -23.957-23.958v-42.691a23.957 23.957 0 0 1 23.957-23.957h33.987a17.683 17.683 0 0 1 17.683 17.683v9.5c-1.442 3.63-1.808 7.287 0 11v15.733a14.919 14.919 0 0 0 0 11v8a17.683 17.683 0 0 1 -17.683 17.69z" fill="#ffdbd4"/><path d="m75.951 195.5v-5.908a9.707 9.707 0 0 1 9.708-9.708h22.89c4.318 18.864-12.328 25.606-32.598 15.616z" fill="#dac566"/><path d="m122.783 195.782v-6.2a9.708 9.708 0 0 0 -9.708-9.708h-4.526v5.408a10.208 10.208 0 0 1 -10.208 10.218h-22.39v.287a9.708 9.708 0 0 0 9.708 9.708 45.175 45.175 0 0 0 27.416 0 9.709 9.709 0 0 0 9.708-9.713z" fill="#967a39"/><path d="m75.951 221.313v-6.113a9.708 9.708 0 0 1 9.708-9.708h22.89c15.18 15.828-17.423 26.883-32.598 15.821z" fill="#dac566"/><path d="m122.783 221.393v-6.193a9.709 9.709 0 0 0 -9.708-9.708h-4.526v5.615a10.208 10.208 0 0 1 -10.208 10.208h-22.39v.08a9.708 9.708 0 0 0 9.708 9.708h27.416a9.709 9.709 0 0 0 9.708-9.71z" fill="#967a39"/><path d="m135.68 421.874h-44a5.5 5.5 0 0 0 0 11h44z" fill="#f59896"/><path d="m135.68 448.607h-44a5.5 5.5 0 1 0 0 11h44z" fill="#f59896"/><g fill="#31313f"><path d="m149.549 334.583a61.383 61.383 0 0 0 -13.868 23.275c-1.348 4.185-2.673 8.6-3.936 13.117-.012.046-.025.092-.036.138l-4.552 18.075h-9v-153.478a15.221 15.221 0 0 0 10.129-14.317v-6.193a15.137 15.137 0 0 0 -3.514-9.708 15.137 15.137 0 0 0 3.514-9.708v-6.2a15.2 15.2 0 0 0 -7.38-13.014l9.462-29.328a19.992 19.992 0 0 0 -3.527-18.848c-15.717-18.769-3.776-53.518-3.656-53.861a5.5 5.5 0 0 0 0-3.671l-20.56-58a5.5 5.5 0 0 0 -9.951-.906 142.237 142.237 0 0 0 -15.918 44.775 5.579 5.579 0 0 0 -.061.885c.161 12.9-4.821 18.186-5.389 18.745a5.123 5.123 0 0 0 -1.827 4.894c3.261 23.648-5.247 43.64-5.329 43.83a5.5 5.5 0 0 0 .439 5.221c11.1 16.922 15.533 34.722 17.25 44.578a15.221 15.221 0 0 0 -11.389 14.7v6.2a15.137 15.137 0 0 0 3.514 9.708 15.137 15.137 0 0 0 -3.514 9.708v6.195a15.225 15.225 0 0 0 12.461 14.945v152.876a29.488 29.488 0 0 0 -28.355 29.429v42.691a29.49 29.49 0 0 0 29.457 29.457h33.987a23.209 23.209 0 0 0 23.183-23.182v-21.488a35.38 35.38 0 0 0 13.751 2.662 30.981 30.981 0 0 0 4.281-.262 5.5 5.5 0 0 0 4.684-5.439v-32.909a21.011 21.011 0 0 0 -20.988-20.987h-4.411l3.857-15.319c1.219-4.359 2.5-8.61 3.793-12.638a50.329 50.329 0 0 1 11.377-19.075 332.928 332.928 0 0 1 49.524-42.333c.3 2.723.679 5.494 1.159 8.318a5.5 5.5 0 0 0 9.224 3.054l4.6-4.4c2.477 11.61 9.834 29.841 31.25 47.265a5.5 5.5 0 0 0 8.636-2.373l2.545-6.943a123.188 123.188 0 0 0 23.372 21.688 5.5 5.5 0 0 0 5.821.358c.77-.418 16.989-9.457 27.6-33.5l1.762 2.516a5.5 5.5 0 0 0 8.478.651 103.127 103.127 0 0 0 22.1-39.9 333.864 333.864 0 0 1 54.281 45.6 50.322 50.322 0 0 1 11.377 19.075c17.581 54.582 15.042 123.154 15.014 123.84v.223h11c.192-5.075 2.328-71.951-15.544-127.436a61.379 61.379 0 0 0 -13.869-23.274c-4.959-5.225-12.687-12.917-22.88-21.72 10.057-30.529 7.473-59.385 4.823-74.594l10.033 4.56a5.5 5.5 0 0 0 7.775-5.072c-.407-34.553-13.96-56.222-23.992-67.564a36.7 36.7 0 0 0 17.668-10.584 5.5 5.5 0 0 0 -.242-7.423c-9.237-9.453-18.319-21.624-26.994-36.174-30.465-51.1-74.416-50.474-91.9-47.833a49.846 49.846 0 0 1 -14.885 0c-17.481-2.639-61.435-3.271-91.9 47.833-8.675 14.55-17.757 26.721-26.994 36.174a5.5 5.5 0 0 0 -.242 7.423 36.68 36.68 0 0 0 17.664 10.589c-10.033 11.342-23.586 33.01-23.992 67.564a5.5 5.5 0 0 0 7.775 5.071l10.042-4.564a162.776 162.776 0 0 0 .309 57.139 5.5 5.5 0 0 0 10.806-2.057 150.431 150.431 0 0 1 1.879-63.079 5.5 5.5 0 0 0 -7.553-6.559l-11.831 5.378c3.595-41.467 28.22-58.8 29.321-59.556a5.5 5.5 0 0 0 -4.265-9.931 22.491 22.491 0 0 1 -18.1-3.933 214.88 214.88 0 0 0 24.624-34.022c26.077-43.743 61.824-45.462 80.81-42.589a60.788 60.788 0 0 0 18.172 0c18.987-2.868 54.733-1.153 80.81 42.59a214.85 214.85 0 0 0 24.623 34.021 22.5 22.5 0 0 1 -18.1 3.934 5.5 5.5 0 0 0 -4.281 9.92c1.116.764 25.742 18.1 29.338 59.567l-11.832-5.378a5.5 5.5 0 0 0 -7.554 6.553c.11.376 10.277 36.166-.966 74.967-8.109-6.541-17.393-13.441-27.748-20.234a82.382 82.382 0 0 0 -2.9-36.627 5.5 5.5 0 1 0 -10.506 3.26c10.179 32.79-6.473 60.676-14.812 71.915l-3.572-5.1a5.5 5.5 0 0 0 -9.752 1.5c-6.476 20.569-18.065 31.271-23.357 35.281-15.973-12.23-23.539-24.7-23.613-24.823a5.5 5.5 0 0 0 -9.895.911l-3.322 9.061c-23.684-22.444-22.582-43.947-22.521-44.886a5.5 5.5 0 0 0 -9.285-4.405l-4.855 4.645a121.49 121.49 0 0 1 6.3-51.21 15.249 15.249 0 0 0 2.175 1.314 14.679 14.679 0 0 0 15.837-1.765l4.041-3.257 15.613 13.362a5.5 5.5 0 0 0 6.98.141l15.659-12.338 11.777 11.889a5.5 5.5 0 0 0 7.815 0l13.869-14 3.125 2.2a13.84 13.84 0 0 0 21.743-12.632c-.135-1.456-.335-3.021-.613-4.657 15.829-1.916 25.728-14.255 26.847-34.063.659-11.668-6.966-20.3-20.541-23.544.1-5.491-.009-11.376-.391-17.678-1.785-29.458-19.281-43.574-33.645-50.229a81.54 81.54 0 0 0 -30.379-7.24c-.034 0-.069 0-.1 0a81.547 81.547 0 0 0 -30.375 7.244c-14.363 6.655-31.86 20.771-33.645 50.229-.383 6.322-.476 12.2-.368 17.681-13.753 3.259-21.23 11.748-20.564 23.541.945 16.72 8.182 28.267 20.115 32.52a49.948 49.948 0 0 0 -.961 7.142 5.5 5.5 0 0 0 -.661 1.1 130.72 130.72 0 0 0 -11.12 55.573 340.924 340.924 0 0 0 -56.672 47.526zm-42.4-97.982v152.587h-13.238v-152.588zm-26.459-154.295c2.767-3.556 7.066-11.2 7.009-24.337a136.036 136.036 0 0 1 8.872-29.245l15.617 44.054c-2.593 8.386-11.324 41.734 6.216 62.681a8.913 8.913 0 0 1 1.493 8.409l-9.845 30.511h-17.145c-1.63-10.007-6.052-29.1-17.582-47.694a102.544 102.544 0 0 0 5.365-44.379zm.76 107.281a4.213 4.213 0 0 1 4.209-4.208h27.415a4.213 4.213 0 0 1 4.209 4.208v6.2a4.213 4.213 0 0 1 -4.209 4.208h-27.415a4.213 4.213 0 0 1 -4.209-4.208zm0 31.806v-6.193a4.213 4.213 0 0 1 4.209-4.208h27.415a4.213 4.213 0 0 1 4.209 4.208v6.195a4.213 4.213 0 0 1 -4.209 4.208h-27.415a4.213 4.213 0 0 1 -4.209-4.21zm36.55 258.4h-33.987a18.478 18.478 0 0 1 -18.457-18.457v-42.691a18.478 18.478 0 0 1 18.457-18.457h33.987a12.2 12.2 0 0 1 12.183 12.183v9.5h-38.5a5.5 5.5 0 0 0 0 11h38.5v15.733h-38.5a5.5 5.5 0 1 0 0 11h38.5v8a12.2 12.2 0 0 1 -12.183 12.189zm34.9-69.618v27.543c-3.492-.245-8.229-1.242-11.716-4.5v-20.847a23.036 23.036 0 0 0 -3.471-12.183h5.2a10 10 0 0 1 9.987 9.987zm177.355-176.95a2.735 2.735 0 0 1 -3.034-.142l-6.931-4.883a5.5 5.5 0 0 0 -7.076.625l-13.235 13.36-11.326-11.433a5.5 5.5 0 0 0 -7.311-.449l-15.967 12.581-15.653-13.4a5.5 5.5 0 0 0 -7.028-.1l-7.6 6.127a3.712 3.712 0 0 1 -4.08.446 3.63 3.63 0 0 1 -2.1-3.422 37.2 37.2 0 0 1 1.208-8.694 65.935 65.935 0 0 1 31.378-34.628 17.523 17.523 0 0 0 1.283 8.823c1.593 3.591 5.383 8.232 14.39 9.948 11.089 2.111 16.265-5.736 19.045-9.953.513-.777 1.23-1.864 1.739-2.469 20.515 3.154 31.856 14.891 33.712 34.9a2.8 2.8 0 0 1 -1.418 2.763zm27.62-43.125c-.578 10.222-4.127 22.12-17.175 23.756 2.938-8.22 5.879-19.9 7.083-35.453 7.017 2.109 10.417 6.027 10.092 11.697zm-127.114-39.935c2.765-45.606 50.382-47.092 53.091-47.138 2.788.049 50.332 1.569 53.094 47.139 1.418 23.394-1.048 40.549-4.248 52.422-6.491-8.448-17.018-15.648-34.055-18.043-6.14-.86-9.429 4.128-11.607 7.431-2.9 4.4-4.24 5.879-7.8 5.2-3.467-.66-5.616-1.867-6.387-3.588-1.4-3.117.87-8.667 2.177-10.848.023-.038.038-.079.061-.118s.055-.081.079-.125l4.733-8.738a5.5 5.5 0 0 0 -9.672-5.239l-3.637 6.715a75.7 75.7 0 0 0 -32.872 21.925c-2.418-11.14-4.188-26.683-2.957-46.995zm-20.928 39.935c-.319-5.647 3.083-9.568 10.11-11.7a145.2 145.2 0 0 0 5.4 30.359c-.8 1.359-1.585 2.76-2.335 4.225-9.915-3.339-12.676-14.056-13.175-22.884z"/><path d="m257.281 157.1a64.562 64.562 0 0 1 8.675 2.174 5.5 5.5 0 1 0 3.424-10.453 74.739 74.739 0 0 0 -10.358-2.583 5.5 5.5 0 0 0 -1.741 10.862z"/><path d="m297.51 159.553a5.5 5.5 0 0 0 1.713-.274 64.522 64.522 0 0 1 8.677-2.179 5.5 5.5 0 0 0 -1.741-10.862 74.776 74.776 0 0 0 -10.358 2.583 5.5 5.5 0 0 0 1.711 10.728z"/><path d="m188.009 485.294c.263-21.25 2.259-44.71 4.3-63.578 6.162 9.207 17.536 18.608 38.293 18.608h27.556a5.5 5.5 0 0 0 0-11h-27.558c-29.852 0-34.66-24.2-35.431-31.518 1.014-7.715 1.73-12.447 1.756-12.622a5.5 5.5 0 0 0 -10.874-1.661c-.091.6-.627 4.138-1.4 9.792a5.472 5.472 0 0 0 -.634 2.654c0 .093.013.623.08 1.49-2.552 19.419-6.73 55.739-7.1 87.835z"/><path d="m232.51 420.188a5.556 5.556 0 0 0 .573.03 5.5 5.5 0 0 0 .56-10.971l-6.129-.635a5.5 5.5 0 0 0 -1.133 10.942z"/><path d="m304.233 434.824a5.5 5.5 0 0 0 5.5 5.5h27.386c21.317 0 32.738-9.915 38.781-19.353 2.315 18.974 4.6 42.771 4.875 64.323h11c-.38-32.777-5.24-69.866-8.093-89 .007-.172.009-.286.01-.324a5.466 5.466 0 0 0 -.37-2.068c-.922-6.062-1.571-9.864-1.676-10.48a5.5 5.5 0 0 0 -10.841 1.866c.028.165.765 4.489 1.826 11.6-.46 5.908-4.27 32.436-35.517 32.436h-27.381a5.5 5.5 0 0 0 -5.5 5.5z"/><path d="m334.633 420.218a5.561 5.561 0 0 0 .574-.03l6.129-.634a5.5 5.5 0 0 0 -1.133-10.942l-6.129.635a5.5 5.5 0 0 0 .559 10.971z"/></g></svg>