<svg id="icons" height="512" viewBox="0 0 500 500" width="512" xmlns="http://www.w3.org/2000/svg"><path d="m361.9 55.642 26.772-20.242a13.067 13.067 0 0 1 14.012-1.116l10.98 5.833a13.067 13.067 0 0 1 4.1 19.672l-26.518 33.348s-20.887 21.671-52.055 55.344c-19.007 11.512-37.714 34.061-56.279 61.81-24.8 27.711-51.5 58.208-77.366 89.014-9.6 8.092-16.655 16.564-21.095 25.429-27.713 33.844-53.526 67.239-73.831 96.9a45.053 45.053 0 0 0 -3.846 6.851l-12 26.488c-9.245 20.4-32.055 31.474-53.55 25.17-9.569-2.806-18.434-8.963-23.781-21.015 0 0-6.852-30.16 29.013-59.5 0 0 10.481-10.762 28.249-29.282 8.455-5.6 16.736-14.736 24.91-26.066 18.967-19.921 41.962-44.239 67.225-71.3 6.6-4.272 11.365-9.3 14.126-15.164 27.9-30.01 58.025-62.819 88.221-96.391 16.918-10.645 31.147-27.653 43.562-48.954 16.826-19.141 33.341-38.204 49.151-56.829z" fill="#e57e62"/><g fill="#9b4036"><path d="m99.612 344.272c-9.355 9.828-17.726 18.578-24.912 26.066-2.565 5.242-4.931 9.931-6.931 13.506-1.852 3.313-3.512 6.755-5.117 10.083-2.643 5.479-5.138 10.655-8.153 14.623-10.044 13.224-13.861 25.413-11.342 36.229 3.022 12.979 14.149 18.674 14.621 18.91a5.5 5.5 0 0 0 4.922-9.839 18.885 18.885 0 0 1 -8.827-11.565c-1.74-7.477 1.418-16.588 9.388-27.081 3.684-4.848 6.54-10.771 9.3-16.5 1.534-3.18 3.12-6.469 4.81-9.491 3.486-6.234 7.885-15.381 12.542-25.065 3.049-6.336 6.338-13.173 9.699-19.876z"/><path d="m224.92 247.449a95.249 95.249 0 0 0 8.772-9.438l84.882-95.811a5.5 5.5 0 0 0 -8.234-7.3l-84.963 95.9c-.056.062-.109.126-.162.191a84.081 84.081 0 0 1 -7.826 8.43 72.56 72.56 0 0 1 -30.938 16.912l-5.488 1.467q-7.167 7.711-14.126 15.164l22.455-6a83.615 83.615 0 0 0 35.628-19.515z"/><path d="m130.572 344.56c-30.184 21.194-55.076 73.595-56.121 75.815a5.5 5.5 0 1 0 9.949 4.685c.244-.518 24.7-51.987 52.49-71.5 9.533-6.694 24.118-15.182 39.56-24.168q3.963-2.307 8-4.661 10.4-12.7 21.094-25.429c-11.6 7.182-23.6 14.165-34.626 20.582-15.647 9.116-30.43 17.716-40.346 24.676z"/><path d="m282.912 210.292c26.629-29.752 51.079-56.292 69.988-76.56l-5.8-8.632-34.357-12.634c-14.375 16.344-28.976 32.737-43.563 48.954z"/></g><path d="m265.08 37.71a133.529 133.529 0 0 1 31.9-17.151 40.846 40.846 0 0 1 42.42 9.067l22.575 21.823c4.196 9.551 10.134 16.051 18.655 18.032l58.461 56.519 44.007 30.9c-18.716 24.488-44.5 61.115-89.209 88a24.244 24.244 0 0 0 -11.914 18.744l-16.707-8.716a24 24 0 0 1 -11.9-14.335c-3.271-10.869-10.561-30.511-25.745-55.32-4.268-26.843-50.854-73-67.933-107.719-7.958-16.176 5.39-39.844 5.39-39.844z" fill="#72848c"/><path d="m342.783 207.029 19.256-65.459a28.265 28.265 0 0 1 19.176-19.152c10.51-3.077 25.194-7.082 39.388-9.955l-5.415-10.607-76.1-4.757z" fill="#565663"/><path d="m427.855 240.226c5.775-29.963 41.2-31.835 41.2-31.835-1.873-25.281 14.045-51.5 14.045-51.5-38.075 2.195-34.006 37.551-34.006 37.551-30.988-2.021-35.7 23.578-35.7 23.578-37.724 9.431-31.413 45.612-31.413 45.612 12.166-14.979 45.874-23.406 45.874-23.406z" fill="#dceaef"/><path d="m469.053 208.391c-5.742-11.774-19.961-13.947-19.961-13.947-30.988-2.021-35.7 23.578-35.7 23.578 1.918 19.827 14.467 22.2 14.467 22.2 4.678-16.85 41.194-31.831 41.194-31.831z" fill="#abbbc4"/><path d="m400.19 89.011-37.615-36.262-18.675 46.708-13.255 5.627a248.2 248.2 0 0 1 -47.964-20.136c-23.135-12.622-19.624-38.34-17.6-47.237-1.028.761-1.581 1.206-1.581 1.206-7.335 7.948-11.193 19.634-13.217 30.131a40.623 40.623 0 0 0 12.048 37.128c11.049 4.056 19.527 19.62 19.527 19.62s6.5 7.082 9.064 10.01a365.777 365.777 0 0 1 33.942 45.053l7.017-50.125 43.688-26.82z" fill="#565663"/><path d="m349.465 32.563a565.67 565.67 0 0 0 -20.688 71.028 99.764 99.764 0 0 1 -6.087 32.788 393.02 393.02 0 0 0 -4.029 40.979 29.609 29.609 0 0 0 12.077 25.155l10.576 7.75s3.97-35.852 11.352-75.871c-.1-11.556 1.959-22.194 6.5-31.774 4.318-18.924 9.367-36.922 15.087-50.644a16.662 16.662 0 0 0 1.244-8 32.441 32.441 0 0 0 -4.358-13.841c-5.308-8.533-18.217-7.013-21.674 2.43z" fill="#dac566"/><path d="m352.667 134.392c2.131-11.553 4.548-23.45 7.234-34.935h-16.001l-14.859 2.985c-2.394 10.75-4.577 22.145-6.339 33.938z" fill="#967a39"/><path d="m410.739 85.219c-71.425-3.073-148.409 20.957-148.409 20.957a7.847 7.847 0 0 0 -1.29 2.49c-3.555 10.035 5.415 20.075 15.87 18.067 31.575-6.064 106.865-18.941 149.5-13a36.9 36.9 0 0 0 .916-13.131 17.385 17.385 0 0 0 -16.587-15.383z" fill="#dac566"/><path d="m39.673 485.417a48.721 48.721 0 0 0 13.726 1.97 51.263 51.263 0 0 0 46.382-30.148l12-26.488a39.723 39.723 0 0 1 3.375-6.014c50.262-73.409 134.374-169.831 198.474-240.273a35.02 35.02 0 0 0 13.855 22.484l9.458 6.932a202.458 202.458 0 0 1 11.157 28.288 29.66 29.66 0 0 0 14.625 17.632l16.706 8.715c.081.042.164.072.245.11s.164.077.249.111a5.508 5.508 0 0 0 .543.184c.041.012.079.03.121.041l.034.007a5.257 5.257 0 0 0 .578.111c.03 0 .06.013.09.017a5.545 5.545 0 0 0 .68.044h.061a5.545 5.545 0 0 0 .618-.042c.075-.009.148-.025.223-.037.152-.026.3-.055.452-.093.08-.02.159-.043.238-.067.143-.043.283-.092.422-.147.076-.03.152-.059.227-.092.146-.065.288-.139.428-.217.061-.033.123-.063.182-.1a5.68 5.68 0 0 0 .551-.38c.054-.043.1-.092.157-.137.121-.1.24-.209.353-.323.066-.067.128-.138.19-.209s.117-.121.171-.187c9.015-11.1 34.055-19.311 42.945-21.54a5.5 5.5 0 0 0 3.965-3.864c2.879-10.365 24.829-22.81 37.988-28.219.135-.056.256-.13.384-.2.112-.057.227-.106.335-.17a5.626 5.626 0 0 0 .508-.355c.076-.058.158-.106.231-.168a5.442 5.442 0 0 0 .633-.628c.059-.068.105-.147.16-.218a5.594 5.594 0 0 0 .364-.513c.064-.106.114-.221.171-.332.083-.162.165-.323.233-.493.045-.115.08-.235.118-.355a5.458 5.458 0 0 0 .148-.555c.012-.057.035-.11.045-.168.022-.127.033-.253.046-.379 0-.04.012-.079.015-.119a5.43 5.43 0 0 0 0-.786c0-.02 0-.04 0-.06-1.717-23.17 13.114-47.994 13.261-48.237a5.615 5.615 0 0 0 .321-.621c.009-.021.021-.041.031-.063a5.442 5.442 0 0 0 .285-.889c.022-.092.04-.183.057-.275a5.433 5.433 0 0 0 .089-.772c0-.057.012-.114.012-.172a5.4 5.4 0 0 0 -.072-.924c-.012-.079-.031-.156-.047-.235a5.564 5.564 0 0 0 -.2-.712c-.028-.079-.051-.157-.082-.235a5.607 5.607 0 0 0 -.386-.791c-.008-.013-.018-.024-.026-.037-.037-.06-.082-.115-.121-.173a5.559 5.559 0 0 0 -.467-.6c-.063-.071-.125-.14-.192-.207a5.478 5.478 0 0 0 -.731-.632l-.016-.013-43.649-30.658-10.173-9.841a43.41 43.41 0 0 0 .37-11.872 22.961 22.961 0 0 0 -21.821-20.307c-.659-.029-1.319-.05-1.979-.074l13.07-16.437a18.567 18.567 0 0 0 -5.822-27.952l-10.981-5.834a18.633 18.633 0 0 0 -19.909 1.587l-5.912 4.47a33.637 33.637 0 0 0 -3.63-8.252 17.343 17.343 0 0 0 -16.633-8.111 17.642 17.642 0 0 0 -13.6 8.824l-2.351-2.273a46.579 46.579 0 0 0 -48.144-10.269 135.3 135.3 0 0 0 -35.037 19.239 5.41 5.41 0 0 0 -.591.552c-6.917 7.5-11.822 18.538-14.575 32.82a45.764 45.764 0 0 0 10.846 39.224 18.891 18.891 0 0 0 3.694 18.422 19.35 19.35 0 0 0 14.757 6.843 20 20 0 0 0 3.768-.361c.649-.125 1.325-.254 2.014-.384a5.612 5.612 0 0 0 .346.462c1.3 1.41 2.572 2.828 3.841 4.247-114.224 128.146-235.543 253.054-241.422 259.1-37.79 31.081-30.959 63.414-30.649 64.778a5.536 5.536 0 0 0 .336 1.012c5.437 12.257 14.609 20.352 27.26 24.063zm284.483-307.817a404.79 404.79 0 0 1 6.253-54.147c6.26-.864 12.706-1.685 19.22-2.422-6.4 32.137-10.727 63.949-12.65 79.241l-2.99-2.191a24.06 24.06 0 0 1 -9.833-20.481zm99.535 58.06c-6.692 1.9-23.685 7.263-36.247 15.866 1.274-8.633 5.92-20.075 20.742-26.06.059-.024.114-.055.172-.079s.091-.035.136-.056a8.984 8.984 0 0 1 8.77 1.484 5.5 5.5 0 1 0 6.678-8.741 21.235 21.235 0 0 0 -4.178-2.495c.316-.53.623-1.067.9-1.623a24.414 24.414 0 0 1 17.773-13.444 21.223 21.223 0 0 0 8.209-3.584 26.432 26.432 0 0 0 8.875 11.745c-11.05 5.734-26.606 15.48-31.83 26.982zm39.809-34.968c-8.385-4.885-8.264-14.943-8.111-17.294 2.278-9.893 8.246-16.354 17.807-19.286-4.009 8.788-8.969 22.331-9.696 36.58zm-27.57-70.192 33.25 23.346c-17.049 5.564-22.725 18.963-24.608 27.5a10.8 10.8 0 0 1 -8.294 8.379 35.531 35.531 0 0 0 -25.478 19.351 12.824 12.824 0 0 1 -6.733 6.185c-20.629 8.33-27.085 25.869-27.961 39.108l-8.294-4.327a18.6 18.6 0 0 1 -9.182-11.042 213.207 213.207 0 0 0 -11.672-29.675c.971-8.334 5.913-49.1 14.131-89.494 22.763-2.172 45.43-3.038 62.806-.874l11.373 10.994a5.493 5.493 0 0 0 .662.549zm-62.425-60.257 9.829 9.5q-6.492.264-12.9.738c1.015-3.602 2.04-7.003 3.071-10.238zm18.484-30.455a7.594 7.594 0 0 1 8.114-.647l10.981 5.834a7.567 7.567 0 0 1 2.373 11.392l-16.723 21.033-19.257-18.617c.618-1.626 1.236-3.208 1.855-4.692a22.586 22.586 0 0 0 1.561-5.913zm-31.681-9.725a6.325 6.325 0 0 1 6.164 2.979 27.007 27.007 0 0 1 3.553 11.46 11.217 11.217 0 0 1 -.846 5.356 262.183 262.183 0 0 0 -10.436 31.642c-6.675.671-13.213 1.476-19.543 2.373 5.522-21.035 11.366-38.316 15.43-49.42a6.642 6.642 0 0 1 5.678-4.39zm-104.626 40.027c2.287-11.857 6.284-21.224 11.574-27.129a127.447 127.447 0 0 1 31.621-17.239 35.513 35.513 0 0 1 36.7 7.859l5.72 5.529c-4.114 11.89-9.192 27.912-13.925 46.58a557.287 557.287 0 0 0 -63.41 14.253 34.829 34.829 0 0 1 -8.28-29.853zm20.191 51.242a8.481 8.481 0 0 1 -8.11-2.849 7.913 7.913 0 0 1 -1.632-7.7c12.924-3.79 81.342-22.783 144.369-20.069a11.9 11.9 0 0 1 11.355 10.467 33.174 33.174 0 0 1 .051 6.483c-44.268-4.43-116.28 7.954-146.033 13.668zm43.077 3.768c-1.84 10.658-3.283 21.113-4.292 31.267-6.781-9.095-14.158-18.109-22.04-26.942 7.74-1.369 16.689-2.868 26.332-4.325zm-269.014 278.777a5.494 5.494 0 0 0 .457-.419c1.243-1.276 124.63-128.1 241.027-258.625 7.179 8.49 13.855 17.111 19.958 25.775-64.989 71.175-153.126 171.718-205.3 247.915a50.616 50.616 0 0 0 -4.318 7.689l-12 26.487c-8.195 18.087-28.4 27.616-46.992 22.163-9.344-2.741-15.907-8.438-20.047-17.406-.637-3.869-3.301-28.611 27.215-53.579z" fill="#31313f"/></svg>