<svg id="icons" height="512" viewBox="0 0 500 500" width="512" xmlns="http://www.w3.org/2000/svg"><path d="m146.877 11.956s4.4 57.052 6.337 106.555c6.484 9.209 23.255-2.209 24.648-20.326.462-24.462 1.753-55.967 5.019-86.229z" fill="#dac566"/><path d="m153.214 118.511c.549 14.006.9 27.41.9 38.744l23.7-14.89s-.449-18.081.044-44.18z" fill="#967a39"/><path d="m318.9 333.846a172.027 172.027 0 0 1 27.476-6.741 23.149 23.149 0 0 1 26.974 22.833v9.21a93.7 93.7 0 0 1 -93.7 93.7 93.7 93.7 0 0 1 -93.7-93.7v-57.658c-7.978-17.45-22.052-21.408-29.7-15.363v73.021a123.4 123.4 0 0 0 123.4 123.4 123.4 123.4 0 0 0 123.4-123.4v-139.148s-38.894 79.2-84.15 113.846z" fill="#abbbc4"/><path d="m156.255 286.127 29.7 15.363v-81.495h-29.7z" fill="#72848c"/><path d="m128.727 105.3c9.358 5.832 29.721 24.633 36.152 42.579l-16.036 13.616s-24.33-29.244-51.892-35.3l12.96-17.281a14.171 14.171 0 0 1 18.816-3.614z" fill="#967a39"/><g fill="#dac566"><path d="m149 218.1 11.983 22.07 30.262-15.3c4.957-5.637 8.511-11.776 8.089-19.334a25.618 25.618 0 0 0 -8.223-14.22s-18.086 4.519-31.4 14.811a39.488 39.488 0 0 0 -10.711 11.973z"/><path d="m163.252 209.036 33.563-21.349s13.052-16.607-5.179-30.432c0 0-17.855 4.435-31.148 14.878-13.349 20.346-10.851 37.948 2.764 36.903z"/><path d="m168.519 172.039 17.455-10.139a22.5 22.5 0 0 0 11.01-15.981 28.438 28.438 0 0 0 -.016-9.065 9.624 9.624 0 0 0 -15.136-6.05l-32.421 20.878c-7.34 12.834 2.977 28.497 19.108 20.357z"/></g><path d="m153.724 184.225-4.724-4.605c16.064-10.4 27.518-16.745 35.462-20.613a2.393 2.393 0 0 1 2.375 4.141c-10.96 7.292-22.595 15.08-33.113 21.077z" fill="#967a39"/><path d="m154.066 221.052-3.595-5.826c15.444-11.3 26.517-18.288 34.228-22.6a2.393 2.393 0 0 1 2.607 4c-10.528 7.901-23.08 17.839-33.24 24.426z" fill="#967a39"/><path d="m198.741 219.638a32.05 32.05 0 0 0 .593-14.1c-1.475 6.387-6.135 15.542-20.163 21.794-23.565 10.5-13.99-17.161-13.99-17.161-22.7-12.039 3.338-38.129 3.338-38.129-18.634 3.284-19.528-13.368-19.108-20.361l-11.445 7.37a11.755 11.755 0 0 0 -4.943 9.4q0 .13 0 .261c.07 9.1 10.068 18.106 17.934 13.535 0 0-14.644 11.455-11.227 24.144s9.27 11.709 9.27 11.709-18.886 12.381-8.937 30.4l.093.168a13.347 13.347 0 0 0 19.462 4.067l32.819-23.849a16.525 16.525 0 0 0 6.304-9.248z" fill="#967a39"/><path d="m279.652 488.044a129.043 129.043 0 0 0 128.9-128.9v-139.144a5.5 5.5 0 0 0 -10.437-2.425c-.384.781-38.863 78.455-82.558 111.909a5.5 5.5 0 0 0 5.223 9.536 167.524 167.524 0 0 1 26.509-6.486 17.649 17.649 0 0 1 20.562 17.409v9.21a88.2 88.2 0 0 1 -176.393 0v-122.753l4.217-3.064a22.082 22.082 0 0 0 8.4-12.325c2.76-10.732 1.133-20.627-4.554-28.52l.253-.161a5.452 5.452 0 0 0 1.372-1.242 29.6 29.6 0 0 0 5.312-12.317c1.049-5.981.437-14.418-7.44-22.361a27.557 27.557 0 0 0 3.41-9.661 33.908 33.908 0 0 0 -.031-10.819 14.881 14.881 0 0 0 -9.109-11.326 15.15 15.15 0 0 0 -10.147-.5c-.028-23.4.615-68.924 5.215-111.555.007-.058.012-.117.016-.175l.032-.415h-11.053c-5.059 47.273-5.334 97.816-5.193 118.532l-12.858 8.275c-1.092-49.918-6.4-120.184-6.911-126.81h-11.035l.04.426c.051.659 4.146 53.671 6.095 101.339a101.557 101.557 0 0 0 -15.853-13.092 19.559 19.559 0 0 0 -26.125 4.986l-12.96 17.285a5.5 5.5 0 0 0 3.221 8.672c15.2 3.338 29.568 14.483 38.842 23.123a17.289 17.289 0 0 0 -7.091 13.723v.338a21.614 21.614 0 0 0 10.753 17.944c.262.15.527.286.792.421-3.719 5.4-6.8 12.71-4.649 20.692 1.407 5.23 3.309 8.74 5.3 11.1-6.524 7.146-11.9 18.792-4.468 32.244l.114.2a18.6 18.6 0 0 0 12.245 9.016 18.967 18.967 0 0 0 3.146.388v98.382a129.042 129.042 0 0 0 128.896 128.901zm0-29.7a99.308 99.308 0 0 0 99.2-99.2v-9.21a28.65 28.65 0 0 0 -33.386-28.257q-3.1.521-5.922 1.083c24.853-25.249 46.032-59.491 58.009-80.767v117.155a117.9 117.9 0 0 1 -235.793 0v-101.234c.372-.233.74-.473 1.1-.733l17.6-12.791v114.758a99.309 99.309 0 0 0 99.192 99.196zm-131.741-246.067a59.1 59.1 0 0 1 -2.87-7.319c-2.19-8.134 7.437-16.789 9.076-18.189l34.621-20.118a28.883 28.883 0 0 0 2.946-1.97c7.4 8.074 3.172 16.15 1.293 18.929zm-33.6-100.062a8.626 8.626 0 0 1 11.507-2.251c5.457 3.4 14.763 11.539 22.272 20.679.155 5.234.27 10.3.339 15.126l-4.312 2.776c-8.636-8.321-22.414-19.7-38.015-25.384zm24.212 56.264a6.254 6.254 0 0 1 2.563-4.9l5.276-3.4.022-.015 38.426-24.745c.083-.053.164-.108.243-.166a4.161 4.161 0 0 1 4.064-.475 3.928 3.928 0 0 1 2.429 2.992 22.936 22.936 0 0 1 0 7.31 16.908 16.908 0 0 1 -8.336 12.057l-35.017 20.348c-1.273.738-2.777.624-4.468-.339a10.735 10.735 0 0 1 -5.2-8.5zm6.421 77.475-.064-.115c-7.181-13 5.6-22.106 7.124-23.129l38.2-24.3c5.064 6.633 4.651 14.273 3.215 19.855a11.044 11.044 0 0 1 -4.209 6.166l-32.819 23.849a8.031 8.031 0 0 1 -6.43 1.347 7.49 7.49 0 0 1 -5.017-3.673z" fill="#31313f"/></svg>