<svg id="icons" height="512" viewBox="0 0 500 500" width="512" xmlns="http://www.w3.org/2000/svg"><path d="m386.993 153.558c-32.176 0-58.26-25.45-58.26-56.843s26.084-56.843 58.26-56.843a59.8 59.8 0 0 1 12.565 1.341 75.672 75.672 0 1 0 4.179 109.95 59.572 59.572 0 0 1 -16.744 2.395z" fill="#ffb464"/><path d="m158.614 353.805-40.615-63.186h27.719l-45.793-71.241-45.793 71.241h27.719l-40.615 63.186z" fill="#6a8953"/><path d="m458.763 353.805-40.615-63.186h27.719l-45.792-71.241-45.793 71.241h27.719l-40.615 63.186z" fill="#6a8953"/><path d="m341.386 389.425-63.243-74.854h43.162l-52.465-62.097h37.084l-55.924-66.192-55.925 66.192h37.084l-52.465 62.097h43.163l-63.243 74.854z" fill="#94b281"/><g fill="#31313f"><path d="m386.993 45.372a54.485 54.485 0 0 1 11.407 1.218 5.5 5.5 0 0 0 4.778-9.516 81.172 81.172 0 1 0 4.481 117.942 5.5 5.5 0 0 0 -5.468-9.132 54.158 54.158 0 0 1 -15.2 2.173c-29.093 0-52.761-23.032-52.761-51.342s23.67-51.343 52.763-51.343zm-63.761 51.343c0 33.635 27.387 61.134 61.5 62.3a70.2 70.2 0 1 1 -4.906-124.256c-31.797 3.498-56.594 29.949-56.594 61.956z"/><path d="m115.438 353.8a5.5 5.5 0 0 0 5.5 5.5h37.675a5.5 5.5 0 0 0 4.627-8.474l-35.169-54.711h17.647a5.5 5.5 0 0 0 4.627-8.474l-45.793-71.241a5.5 5.5 0 0 0 -9.254 0l-45.793 71.245a5.5 5.5 0 0 0 4.627 8.474h17.646l-35.169 54.711a5.5 5.5 0 0 0 4.627 8.474h53.189v74.316a5.5 5.5 0 0 0 11 0v-159.142a5.5 5.5 0 0 0 -11 0v53.83c-.415-.332-.837-.657-1.272-.968l-4.095-2.929a5.5 5.5 0 0 0 -6.4 8.949l4.1 2.928a18.364 18.364 0 0 1 7.43 12.016h-42.878l35.169-54.711a5.5 5.5 0 0 0 -4.627-8.474h-17.647l35.72-55.569 35.72 55.569h-17.645a5.5 5.5 0 0 0 -4.627 8.474l35.167 54.707h-27.6a5.5 5.5 0 0 0 -5.502 5.5z"/><path d="m400.074 439.12a5.5 5.5 0 0 0 5.5-5.5v-74.32h53.19a5.5 5.5 0 0 0 4.627-8.474l-35.169-54.711h17.645a5.5 5.5 0 0 0 4.627-8.474l-45.794-71.241a5.5 5.5 0 0 0 -9.254 0l-45.793 71.241a5.5 5.5 0 0 0 4.627 8.474h17.647l-35.168 54.715a5.5 5.5 0 0 0 4.627 8.474h38.151a5.5 5.5 0 0 0 0-11h-28.078l35.169-54.711a5.5 5.5 0 0 0 -4.628-8.474h-17.646l35.72-55.569 35.72 55.569h-17.646a5.5 5.5 0 0 0 -4.627 8.474l35.169 54.707h-43.116v-73.822a5.5 5.5 0 0 0 -11 0v53.83c-.415-.333-.836-.658-1.271-.969l-4.1-2.928a5.5 5.5 0 1 0 -6.4 8.949l4.095 2.928a18.366 18.366 0 0 1 7.669 14.91v82.422a5.5 5.5 0 0 0 5.507 5.5z"/><path d="m244.5 477.52a5.5 5.5 0 0 0 11 0v-82.595h85.886a5.5 5.5 0 0 0 4.2-9.05l-55.6-65.8h31.316a5.5 5.5 0 0 0 4.2-9.05l-44.819-53.047h25.237a5.5 5.5 0 0 0 4.2-9.05l-55.92-66.195a5.5 5.5 0 0 0 -8.4 0l-55.925 66.192a5.5 5.5 0 0 0 4.2 9.05h25.237l-44.819 53.047a5.5 5.5 0 0 0 4.2 9.05h31.315l-55.6 65.8a5.5 5.5 0 0 0 4.2 9.05h68.21a5.5 5.5 0 1 0 0-11h-56.358l55.6-65.8a5.5 5.5 0 0 0 -4.2-9.05h-31.319l44.819-53.047a5.5 5.5 0 0 0 -4.2-9.05h-25.238l44.078-52.175 44.077 52.17h-25.237a5.5 5.5 0 0 0 -4.2 9.05l44.819 53.047h-31.316a5.5 5.5 0 0 0 -4.2 9.05l55.6 65.8h-74.043v-59.428a39.873 39.873 0 0 1 10.8-27.336l6.366-6.8a5.5 5.5 0 1 0 -8.031-7.516l-6.366 6.8c-.973 1.039-1.889 2.119-2.764 3.224v-25.67a5.5 5.5 0 0 0 -11 0v76.435c-.37-.315-.742-.627-1.128-.925l-6.54-5.046a5.5 5.5 0 1 0 -6.721 8.708l6.54 5.046a20.308 20.308 0 0 1 7.849 15.972z"/></g></svg>