<svg id="icons" height="512" viewBox="0 0 500 500" width="512" xmlns="http://www.w3.org/2000/svg"><path d="m300.575 138.258c39.825 28.462 158.66 134.292 154.858 303.366-.158 7.043 3.626 13.612 8.194 18.974l7.55 8.864s27.156-118.342-48.114-235.962c0 0-38.377-91.26-110.142-133.811l-10.941 6.581c-8.589 5.164-9.559 26.161-1.405 31.988z" fill="#9b4036"/><path d="m364.387 124.748-20.375-20.071c-37.592-33.42-125.154-95.707-245.56-83.87 0 0 7.187 23.221 47.548 21.562 34.463-1.416 109.239 25.79 168.907 71.631 39.583 8.52 57.186 44.215 73.627 81.346l34.529 38.154 5.156-7.089a15.417 15.417 0 0 0 .231-17.817c-11.805-17.131-38.715-55.173-64.063-83.846z" fill="#e57e62"/><path d="m343.931 139.123 25.239 30.1 14.506-21.378c-6.349-7.972-12.869-15.836-19.289-23.1a234.883 234.883 0 0 0 -20.377-20.069l-29.11 9.332a317.634 317.634 0 0 1 29.031 25.115z" fill="#9b4036"/><path d="m241.994 379.271s35.2 3.889 59.048 33.795 12.336 45.5 3.32 56.4z" fill="#94b281"/><path d="m225.783 393.193s-9.858 34.068 16.313 65.571l14.911-1.3-5.7 13.412s28.5 22.04 51.327.116z" fill="#94b281"/><path d="m374.639 135.133.3-.086a19.98 19.98 0 0 0 -1.572-8.931 13.919 13.919 0 0 0 -19.675-6.3 133.545 133.545 0 0 0 -24.146 17.828c-8.974 17.548 39.574 68.646 55.606 68.785 6.38-5.39 15.426-11.627 26.168-15.117 10.329-3.355 9.636-18.559-1.029-20.61-.338-.064-.685-.121-1.043-.168 0 0 3.011-17.692-13.175-19.2-.003.004-2.964-16.596-21.434-16.201z" fill="#dac566"/><path d="m24.046 141.317 19.893 40.377 247.4 287.746a8.608 8.608 0 0 0 11.293 1.56 8.605 8.605 0 0 0 2.049-12.426c-32.409-41.964-196.629-252.359-280.635-317.257z" fill="#ffca94"/><path d="m163.9 220.213s-35.195-3.889-59.049-33.795-12.336-45.5-3.32-56.4z" fill="#94b281"/><path d="m180.113 206.291s9.859-34.068-16.313-65.571l-14.91 1.3 5.7-13.413s-28.5-22.04-51.327-.115z" fill="#94b281"/><path d="m381.85 458.168-19.892-40.378-247.4-287.745a8.606 8.606 0 0 0 -11.292-1.556 8.6 8.6 0 0 0 -2.049 12.426c32.408 41.96 196.628 252.354 280.633 317.253z" fill="#ffca94"/><path d="m377.812 186.336c-18.764 2.752-16.109-18.128-16.109-18.128-21.843 3.648-15.947-18.5-15.947-18.5-14.2 2.663-16.308-6.157-16.21-12.055-2.976 2.76-5.987 5.8-8.95 9.152a14 14 0 0 0 7.1 22.843l.217.052s-.353 13.638 18.093 12.885c0 0-4.141 15.433 13.551 16.563 0 0-1.288 9.8 5.607 14.655a10.556 10.556 0 0 0 13.526-1.394c1.654-1.678 3.839-3.755 6.462-5.971-11.945-2.458-7.34-20.102-7.34-20.102z" fill="#967a39"/><g fill="#31313f"><path d="m92.979 21.308c0 .048.013.1.019.144a5.52 5.52 0 0 0 .174.876c.009.031.013.062.023.092v.013c.188.608 2.847 8.689 12.412 15.6l350.983 422.476c.869 1.219 1.813 2.437 2.85 3.656l7.551 8.863c.062.074.132.139.2.209s.137.151.21.22c.056.053.117.1.176.15.1.084.191.17.292.247.013.009.027.017.04.027a5.478 5.478 0 0 0 2.459 1.013c.074.011.147.028.222.036.111.012.222.013.334.018.085 0 .17.014.255.014h.01a5.4 5.4 0 0 0 .809-.068c.083-.013.165-.029.247-.045s.162-.024.242-.044c.109-.026.21-.068.316-.1s.207-.061.309-.1a5.61 5.61 0 0 0 .678-.309c.035-.02.073-.032.108-.053a5.356 5.356 0 0 0 .726-.5c.023-.017.048-.029.07-.048.038-.031.066-.071.1-.1a5.516 5.516 0 0 0 .567-.577c.052-.06.107-.118.155-.18a5.474 5.474 0 0 0 .508-.781c.039-.073.069-.15.105-.225a5.567 5.567 0 0 0 .265-.664c.031-.1.061-.189.087-.286.017-.062.041-.12.056-.183.285-1.239 6.935-30.866 4.3-75.428-2.387-40.36-13.257-100.849-51.137-161.54l2.971-4.085a20.946 20.946 0 0 0 .311-24.174c-3.61-5.238-7.349-10.569-11.135-15.883a16.425 16.425 0 0 0 2.312-9.572 15.758 15.758 0 0 0 -9.189-13.561 23.006 23.006 0 0 0 -4.32-13.367 18.352 18.352 0 0 0 -10.242-6.574 25.438 25.438 0 0 0 -20.252-16.527 25.074 25.074 0 0 0 -1.743-6.063 19.088 19.088 0 0 0 -11.5-10.47 19.61 19.61 0 0 0 -6.57-.977c-27.624-27.569-123.585-110.791-262.429-97.145l-.034.006a5.416 5.416 0 0 0 -.909.18c-.055.015-.109.027-.163.044a5.478 5.478 0 0 0 -.852.353c-.055.028-.11.056-.164.086a5.483 5.483 0 0 0 -.793.535c-.019.015-.04.024-.059.039s-.041.045-.064.066a5.416 5.416 0 0 0 -.68.691c-.034.042-.063.085-.095.127-.077.1-.157.2-.227.3-.1.151-.19.308-.275.467-.011.021-.025.04-.035.061a5.378 5.378 0 0 0 -.351.878c-.016.051-.035.1-.049.153a5.467 5.467 0 0 0 -.17.9c-.006.057-.011.114-.015.172a5.4 5.4 0 0 0 0 .917zm223.5 121.849c-.054.062-.1.127-.157.189-4.339-3.494-8.547-6.706-12.545-9.563-1.491-1.066-3.086-4.368-3.285-9.345-.194-4.814 1.009-9.616 2.943-12.142 8.415 6.1 16.607 12.584 24.431 19.439a136.61 136.61 0 0 0 -11.391 11.422zm-26.979-18.277c.321 8 3.193 14.5 7.88 17.852 4.525 3.235 9.349 6.963 14.342 11.058a19.65 19.65 0 0 0 .786 8.162 19.232 19.232 0 0 0 10.458 11.862 17.892 17.892 0 0 0 4.777 8.408 20.968 20.968 0 0 0 12.391 5.616 17.1 17.1 0 0 0 13.966 16.049c.543 4.839 2.6 10.677 7.9 14.409a15.65 15.65 0 0 0 9.042 2.865 16.021 16.021 0 0 0 4.612-.685c34.838 45.8 74.791 119.261 74.357 214.9l-322.911-388.688a82.7 82.7 0 0 0 14.813 1.267c1.4 0 2.835-.03 4.309-.091 28.958-1.181 92.215 20 148.208 58.11-3.919 5.376-5.173 12.94-4.93 18.906zm119.842 51.246a4.774 4.774 0 0 1 3.837 4.573 5.1 5.1 0 0 1 -3.559 5.384c-16.27 5.284-28.815 16.341-34.845 22.463a5.066 5.066 0 0 1 -6.441.756c-2.858-2.013-3.333-5.886-3.367-7.991 4.192-4.611 20.117-20.44 44.372-25.185zm58.422 280.617-2.357-2.838c-3.036-4.316-4.557-8.4-4.472-12.157a347.221 347.221 0 0 0 -22.914-132.454 384.8 384.8 0 0 0 -53.321-95.076 91.483 91.483 0 0 1 8.829-7.386l25.08 29.911c38 59.519 48.837 119.173 51.227 158.762a315.389 315.389 0 0 1 -2.075 61.238zm-43.994-233.568-1.015 1.4-19.855-23.682a62.538 62.538 0 0 1 10.114-4.349c.075-.024.146-.056.22-.081 3.632 5.105 7.22 10.222 10.687 15.251a9.932 9.932 0 0 1 -.151 11.461zm-35.4-76.155c-18.066 4.334-32.057 18.222-32.718 18.887a5.5 5.5 0 0 0 7.8 7.759c.154-.153 15.421-15.237 32.553-16.8 2.7.328 4.635 1.269 5.891 2.885a11.741 11.741 0 0 1 2.03 6.29c-24.846 5.874-41.079 21.323-46.59 27.291-2.4-.466-4.1-1.362-5.061-2.68-1.889-2.578-.956-6.65-.957-6.65a5.5 5.5 0 0 0 -5.537-6.921c-4.665.194-8.226-.71-10.229-2.61a7 7 0 0 1 -1.919-3.3c4.333-5.765 20.429-25.429 41.709-30.547 7.066.03 10.944 3.305 13.031 6.396zm-20.054-18.713a13.506 13.506 0 0 1 .824 2.627c-21.33 6.592-37.044 24.311-43.084 32.031a8.314 8.314 0 0 1 -3.056-4.314 8.45 8.45 0 0 1 1.719-8.206 129.047 129.047 0 0 1 31.7-25.854 8.651 8.651 0 0 1 7.017-.7 7.965 7.965 0 0 1 4.883 4.416zm-19.693-11.892a136.851 136.851 0 0 0 -12.173 8.251c-28.2-24.974-64.321-47.821-102.181-64.551-34.847-15.4-67.917-24.08-88.5-23.241-16.221.67-26.382-2.9-32.644-7.006l-3.674-4.422c122.596-7.766 208.964 62.032 239.175 90.969z"/><path d="m39.768 185.28 180.032 209.386c-1.893 9.458-5.38 39.386 18.07 67.613a5.512 5.512 0 0 0 4.707 1.965l5.791-.5-2.121 4.989a5.5 5.5 0 0 0 1.7 6.5c6.534 5.054 18.36 10.937 31.211 10.936a38.333 38.333 0 0 0 27.03-10.966 14.083 14.083 0 0 0 2.159-1.954c.087-.092.177-.18.258-.278l.151-.182c.059-.073.121-.143.178-.216 8.48-10.254 23.388-29.119-3.585-62.935-21.7-27.21-51.866-34.052-60.43-35.493-64.819-80.217-159.843-192.634-217.5-237.179a5.5 5.5 0 0 0 -8.3 6.783l19.893 40.378a5.54 5.54 0 0 0 .756 1.153zm218.382 283.556 3.918-9.216a5.5 5.5 0 0 0 -5.538-7.632l-11.981 1.042a70.8 70.8 0 0 1 -15.066-47.1l57.686 67.092c.232.271.485.515.734.764-12.038 4.042-24.01-1.522-29.753-4.95zm38.593-52.34c13.863 17.38 14.57 28.888 11.258 37.377-9.266-11.984-27.742-35.706-51.438-65.255 11.592 4.07 27.645 12.162 40.18 27.882zm3.585 45.436a3.082 3.082 0 0 1 .606 2.4 3.152 3.152 0 0 1 -.5 1.245l-.312.378-.008.011a3.094 3.094 0 0 1 -4.607-.112l-246.943-287.217-8.041-16.323c87.277 78.137 230.133 261.201 259.805 299.618z"/><path d="m100.554 189.848c21.705 27.211 51.869 34.053 60.432 35.494 64.822 80.219 159.85 192.64 217.5 237.178a5.5 5.5 0 0 0 8.3-6.783l-19.893-40.378a5.58 5.58 0 0 0 -.762-1.155l-180.031-209.386c1.893-9.46 5.38-39.387-18.069-67.612a5.514 5.514 0 0 0 -4.707-1.965l-5.792.5 2.121-4.989a5.5 5.5 0 0 0 -1.7-6.5c-11.106-8.589-37.5-19.564-58.221.015a14 14 0 0 0 -2.347 2.159c-.028.032-.063.055-.09.089l-.154.185c-.058.071-.118.139-.174.211-8.476 10.254-23.386 29.118 3.587 62.937zm8.6-6.859c-13.863-17.381-14.571-28.889-11.254-37.378 9.267 11.985 27.743 35.707 51.439 65.256-11.596-4.067-27.65-12.162-40.185-27.878zm256.22 254.181c-87.273-78.129-230.132-261.2-259.806-299.617a3.077 3.077 0 0 1 -.605-2.4 3.146 3.146 0 0 1 .5-1.248l.31-.376.007-.01a3.1 3.1 0 0 1 4.608.112l65.507 76.189 181.438 211.027zm-217.628-306.522-3.918 9.217a5.5 5.5 0 0 0 5.538 7.631l11.982-1.042a70.809 70.809 0 0 1 15.065 47.1l-57.685-67.092c-.231-.269-.477-.519-.724-.767 12.036-4.037 23.996 1.526 29.742 4.953z"/></g></svg>