<svg id="icons" height="512" viewBox="0 0 500 500" width="512" xmlns="http://www.w3.org/2000/svg"><path d="m145.708 264.285s-3.295-45.572-52.161-65.338c-37.651-15.229-29.995-59.469-24.5-78.973a38.1 38.1 0 0 1 8.638-15.464 38.133 38.133 0 0 0 9.245-17.91l4.122-19.43a38.073 38.073 0 0 1 6.978-15.213c9.524-12.475 32.239-34.354 75.688-36.989a2.5 2.5 0 0 1 1.719 4.459c-8.125 6.544-19.407 19.833-11.61 39.51 6.115 15.433 19.643 10.326 31 2.125 0 0 29.4-21.891 62.888 7.209 10.922 9.489 23.712 6.542 35.991-1.739a41.741 41.741 0 0 1 31.895-6.5 71.574 71.574 0 0 1 12.277 3.844c24.158 9.883 42.277-2.439 51.062-25.806 0 0 1.5-12.419 16.564-11.97a1.476 1.476 0 0 1 .676 2.755c-4.057 2.343-8.873 7.752-10.651 20.2-3.088 21.619-16.311 47.1-47.811 41.151a43.214 43.214 0 0 0 -18.342.335c-12.888 3.164-32.655 11.323-39.816 32.088 0 0-4.2 16.332 21.815 14.582a1.791 1.791 0 0 1 1.185 3.215c-4.371 3.369-9.852 8.647-12.018 15.146-3.844 11.531-12.08 18.668-37.885 14.276s-32.944 11.53-33.493 31.3-4.942 48.318-51.063 47.22c-.001-.005-17.02 29.644-32.393 15.917z" fill="#ffb464"/><path d="m148.453 155.571 17.294 17.62a21.889 21.889 0 0 1 3.192 26.517l-.314.528a21.882 21.882 0 0 0 -3.072 11.466l.47 36.661 19.766-13.727 1.222 21.592c-17.144 23.687-26.355 52.451-28.412 85.794-10.447 6.653-17.8 4.177-20.571-11.777l1.64-47.292-1.04-105.507a20.488 20.488 0 0 1 3.081-11.009z" fill="#e57e62"/><path d="m152.643 106.277a46.911 46.911 0 0 0 -3.506 13.3 10.381 10.381 0 0 0 4.236 9.3l7.1 5.24a10.488 10.488 0 0 0 16.178-5.068c.7-2.108 1.391-4.538 2.021-7.327 2.871-12.722-7.39-23.478-18.312-21.726a10.28 10.28 0 0 0 -7.717 6.281z" fill="#9b4036"/><path d="m213.273 117.986-11.764 14.944a7.837 7.837 0 0 0 .038 9.743 12.95 12.95 0 0 0 15.37 3.744l3.6-1.6a8.937 8.937 0 0 0 4.975-10.631c-1.52-5.305-4.869-12.065-12.219-16.2z" fill="#9b4036"/><path d="m353.207 123.522a39.784 39.784 0 0 1 11.891-7.64 16.9 16.9 0 0 1 16.925 2.4 27.363 27.363 0 0 1 6.168 6.757 9 9 0 0 1 -1.282 11.055c-4.913 5-14.885 10.7-31.611 2.1a9.065 9.065 0 0 1 -2.091-14.672z" fill="#ffb464"/><path d="m167.945 308.466a40.177 40.177 0 0 1 5.31-19.963l14.181-24.767-.425-7.508-12.511 12.765c-7.905 8.066-17.651 18.925-18.39 30.194-.945 14.426.956 33.072-8.786 35.095-4.227.877-7.2-.928-9.3-4.037l-2.565 73.981h32.482z" fill="#9b4036"/><path d="m146.321 485.294h53.665a43.64 43.64 0 0 0 25.6-8.3 43.634 43.634 0 0 1 25.6-8.3h100.692v-66.98h-124.633l-53.909-12.309h-30.736z" fill="#ffdbd4"/><path d="m142.6 389.406 3.72 95.888h23.9c11.226-13.353 2.418-20.8 2.418-20.8 6.762-2.254 10.508-8.756 10.508-21.352s-5.935-13.892-5.935-13.892c5.935-3.915 6.568-7.3 6.568-7.3 9.668 9.915 24.315 1.324 24.315 1.324-7.459-8.24-12.734-19.167-16.424-29.686l-18.333-4.186z" fill="#f59896"/><path d="m110.374 456.832h35.947a14.231 14.231 0 0 1 14.231 14.231 14.231 14.231 0 0 1 -14.231 14.231h-25.461a10.486 10.486 0 0 1 -10.486-10.486v-17.976a0 0 0 0 1 0 0z" fill="#ffdbd4"/><path d="m110.374 431.471v25.361h47.363a14.232 14.232 0 0 0 14.231-14.232 14.2 14.2 0 0 0 -4.859-10.709c-17.509-2.429-41.231-4.276-56.735-.42z" fill="#ffdbd4"/><path d="m159.516 371.444h-38.656a10.486 10.486 0 0 0 -10.486 10.486v17.977h47.363a14.232 14.232 0 0 0 14.231-14.232z" fill="#ffdbd4"/><path d="m157.54 401.122-47.166 2.749v21.165l47.058 1.717c7.86 0 13.569-4.848 13.569-12.708-.001 0-.861-13.138-13.461-12.923z" fill="#ffdbd4"/><path d="m208.093 423.278 19.152-21.563a60.313 60.313 0 0 1 -17.334-20.086 19.45 19.45 0 0 0 -17.16-10.185h-22.351a17.473 17.473 0 0 0 -17.317 17.624v37.942s26.078 1.244 26.893-24.051c.002 0 7.336 19.904 28.117 20.319z" fill="#ffdbd4"/><path d="m110.374 425.036v6.435c13.422.422 25.966.646 36.952.018v-6.253c-10.443-.592-22.674-.529-36.952-.2z" fill="#f59896"/><path d="m169.423 454.474c-15.034-2.375-34.43-1.616-59.049-.7v6.114c29.943 1.325 47.92.933 58.193-.355 3.568-.445 4.384-4.501.856-5.059z" fill="#f59896"/><g fill="#31313f"><path d="m412.241 32.583h.006a5.5 5.5 0 0 0 .742-10.974c-.021 0-.057-.005-.106-.007-21.633-1.32-28.66 13.561-28.948 14.194-.051.112-.1.225-.141.341-4.436 11.8-11.152 19.94-19.421 23.549-7.134 3.112-15.348 2.81-24.411-.9a77.538 77.538 0 0 0 -13.22-4.134 47.471 47.471 0 0 0 -36.112 7.319c-17.889 12.065-26.483 4.6-29.307 2.146-18.9-16.423-36.8-17.653-48.475-15.8a52.008 52.008 0 0 0 -21.24 8.282c-7.359 5.313-13.494 7.634-17.275 6.527-.819-.239-3.311-.966-5.393-6.22-9.5-23.976 14.986-36.763 16.019-37.287a5.5 5.5 0 0 0 -2.459-10.413c-51.114 0-77.6 24.694-88.836 39.414a43.86 43.86 0 0 0 -7.988 17.409l-4.127 19.432a32.654 32.654 0 0 1 -7.908 15.326 43.821 43.821 0 0 0 -9.885 17.694c-5.656 20.067-14.277 68.574 27.728 85.565 24.156 9.77 36.205 26.322 42.061 38.486.07.145.148.283.229.419l.393 39.935-2.88 83.058h-10.428a16 16 0 0 0 -15.985 15.986v92.878a16 16 0 0 0 15.985 15.986h25.462c.156 0 .307-.02.462-.023s.308.023.465.023h52.738a48.834 48.834 0 0 0 28.828-9.346 37.907 37.907 0 0 1 22.375-7.253h100.689v-11h-100.689a48.839 48.839 0 0 0 -28.829 9.346 37.9 37.9 0 0 1 -22.374 7.253h-36a19.565 19.565 0 0 0 -.447-18.336 19.7 19.7 0 0 0 7.6-33.3 27.746 27.746 0 0 0 5.479-3.907 25.985 25.985 0 0 0 5.632-7.467 34.413 34.413 0 0 0 25.732 11.989 5.5 5.5 0 1 0 .22-11c-16.655-.332-22.819-16.076-23.064-16.722a5.5 5.5 0 0 0 -10.658 1.725c-.188 5.85-1.914 10.215-5.273 13.344a21.232 21.232 0 0 1 -10.623 4.915v-31.967a11.987 11.987 0 0 1 11.816-12.124h22.349a13.918 13.918 0 0 1 12.314 7.287 65.8 65.8 0 0 0 19.092 22.036l.025.017a5.459 5.459 0 0 0 .964.514l.048.017a5.4 5.4 0 0 0 .982.292l.059.01a5.538 5.538 0 0 0 1 .095h124.645v-11h-122.806a56.862 56.862 0 0 1 -14.316-17.188 24.9 24.9 0 0 0 -22-13.083h-19.312v-57.475a34.729 34.729 0 0 1 4.584-17.23l14.181-24.767a5.5 5.5 0 0 0 .718-3.044l-.559-9.879a65.316 65.316 0 0 0 17.947-5.469c20.708-10.089 23.89-30.3 24.348-46.781.314-11.324 2.917-19.071 7.735-23.026 4.215-3.458 10.721-4.467 19.336-3 24.9 4.238 38.475-1.3 44.026-17.958 2.567-7.7 12.073-14.246 15.509-16.114a5.5 5.5 0 0 0 -3.483-10.272c-15.321 2.471-20.218-.686-21.611-2.157a5.708 5.708 0 0 1 -1.307-4.654c6.226-17.588 22.894-25.06 35.82-28.233a37.6 37.6 0 0 1 16.011-.272c12.877 2.432 24.062.333 33.246-6.239 10.889-7.792 18.554-22.2 21.03-39.538 2.418-16.923 10.648-17.25 11.266-17.25zm-264.656 390.286h-31.711v-17.462h31.711zm-31.711 51.939v-12.476h30.447a8.731 8.731 0 1 1 0 17.462h-25.462a4.991 4.991 0 0 1 -4.985-4.986zm41.863-23.476h-41.863v-17.463h41.863a8.732 8.732 0 0 1 0 17.463zm-10.152-62.264v5.339h-31.711v-12.477a4.991 4.991 0 0 1 4.985-4.986h30.124a23.206 23.206 0 0 0 -3.398 12.124zm20.9-103.3a45.75 45.75 0 0 0 -6.038 22.7v57.478h-20.154l2.872-82.8c0-.082 0-.163 0-.245l-1.04-105.508a14.975 14.975 0 0 1 2.253-8.054l3.052-4.915 12.388 12.622a16.4 16.4 0 0 1 2.391 19.852l-.314.528a27.377 27.377 0 0 0 -3.845 14.348l.47 36.661a5.5 5.5 0 0 0 8.637 4.447l11.693-8.12 1 17.659zm205.059-205.343c-6.647 4.756-14.994 6.227-24.8 4.376a48.488 48.488 0 0 0 -20.674.4c-12.818 3.146-35.54 11.959-43.7 35.636-.048.139-.09.281-.127.423a16.7 16.7 0 0 0 3.748 14.853c3.2 3.505 7.957 5.641 14.232 6.4a32.788 32.788 0 0 0 -6.89 11.32c-2.553 7.659-7.108 14.785-31.745 10.593-11.9-2.024-21.372-.227-28.16 5.342-7.5 6.151-11.34 16.365-11.753 31.224-.4 14.209-2.862 29.74-18.131 37.179a57.4 57.4 0 0 1 -13.791 4.359l-.465-8.2a5.5 5.5 0 0 0 -8.628-4.207l-11.27 7.817-.338-26.309a16.383 16.383 0 0 1 2.3-8.583l.315-.528a27.412 27.412 0 0 0 -4-33.181l-17.294-17.62a5.5 5.5 0 0 0 -8.6.952l-6.744 10.866a25.946 25.946 0 0 0 -3.907 13.963l.437 44.388c-8.084-10.3-20.125-20.827-37.957-28.039-14.37-5.813-22.795-17.094-25.042-33.53-1.937-14.169.985-28.949 3.777-38.853a32.755 32.755 0 0 1 7.392-13.232 43.652 43.652 0 0 0 10.581-20.491l4.122-19.432a32.815 32.815 0 0 1 5.97-13.017c8.7-11.4 27.765-29.507 63.09-34.036-7.98 9.226-13.473 22.807-6.779 39.7 2.7 6.8 6.914 11.087 12.537 12.728 7.314 2.137 16.333-.611 26.863-8.216.259-.193 26.189-18.949 56 6.949 8.115 7.05 22.105 12.541 42.673-1.33a36.414 36.414 0 0 1 27.684-5.677 66.33 66.33 0 0 1 11.33 3.557c11.753 4.808 23.156 5.084 32.976.8 8.608-3.757 15.822-10.828 21.193-20.685-1.134 7.24-4.863 23.066-16.425 31.341z"/><path d="m159.493 94.56a15.869 15.869 0 0 0 -11.922 9.589 52.613 52.613 0 0 0 -3.908 14.9 15.94 15.94 0 0 0 6.445 14.248l7.1 5.24a16.069 16.069 0 0 0 14.358 2.38 15.759 15.759 0 0 0 10.3-10.134c.811-2.431 1.541-5.074 2.168-7.856a23.9 23.9 0 0 0 -5.722-21.688 21.277 21.277 0 0 0 -18.819-6.679zm13.817 25.945c-.547 2.426-1.178 4.713-1.872 6.8a4.875 4.875 0 0 1 -3.189 3.128 4.985 4.985 0 0 1 -4.507-.746l-7.1-5.241a4.889 4.889 0 0 1 -2.026-4.343 41.5 41.5 0 0 1 3.1-11.695 4.8 4.8 0 0 1 3.521-2.985 9.439 9.439 0 0 1 1.5-.12 10.4 10.4 0 0 1 7.568 3.467 12.748 12.748 0 0 1 3.005 11.735z"/><path d="m215.97 113.193a5.5 5.5 0 0 0 -7.019 1.391l-11.764 14.944a13.282 13.282 0 0 0 .065 16.581 18.45 18.45 0 0 0 21.9 5.333l3.6-1.6a14.5 14.5 0 0 0 8.027-17.178c-1.74-6.064-5.727-14.364-14.809-19.471zm2.319 26.6-3.6 1.6a7.457 7.457 0 0 1 -8.842-2.154 2.326 2.326 0 0 1 -.011-2.905l8.5-10.792a22.109 22.109 0 0 1 5.886 10.164 3.453 3.453 0 0 1 -1.933 4.083z"/><path d="m344.982 132.079a14.636 14.636 0 0 0 7.8 11.016c7.173 3.684 13.346 5.067 18.577 5.067a26.872 26.872 0 0 0 19.47-8.209 14.445 14.445 0 0 0 2.021-17.828 32.758 32.758 0 0 0 -7.4-8.137 22.341 22.341 0 0 0 -22.45-3.188 45.169 45.169 0 0 0 -13.535 8.692 14.487 14.487 0 0 0 -4.483 12.587zm11.965-4.525a34.238 34.238 0 0 1 10.247-6.587 11.336 11.336 0 0 1 11.395 1.616 21.763 21.763 0 0 1 4.938 5.377 3.52 3.52 0 0 1 -.542 4.284c-6.065 6.172-14.535 6.532-25.175 1.066a3.6 3.6 0 0 1 -1.932-2.73 3.407 3.407 0 0 1 1.069-3.026z"/><path d="m216.327 23.717-7.16.8a5.5 5.5 0 1 0 1.214 10.932l7.161-.8a5.5 5.5 0 0 0 -1.215-10.933z"/><path d="m290.525 195.926a5.5 5.5 0 0 0 0 11h6.365a5.5 5.5 0 0 0 0-11z"/><path d="m435.537 19.982h-3.149a5.5 5.5 0 0 0 0 11h3.149a5.5 5.5 0 0 0 0-11z"/><path d="m197.848 163.126-5.007 2.6a5.5 5.5 0 1 0 5.075 9.76l5.007-2.6a5.5 5.5 0 0 0 -5.075-9.76z"/></g></svg>