<svg id="icons" height="512" viewBox="0 0 500 500" width="512" xmlns="http://www.w3.org/2000/svg"><path d="m183.985 300.388s1.25 71.056 0 184.906h9.4a11.781 11.781 0 0 0 11.747-10.849c1.924-24.241 7.444-85.1 18.118-141.417z" fill="#774b53"/><path d="m352.536 361.628s46.179 60.383 45.8 123.666h9.214a11.776 11.776 0 0 0 11.766-12.446c-1.259-21.636-6.012-67.478-23.96-105.157z" fill="#774b53"/><path d="m467.722 391.825a23.082 23.082 0 0 0 -12.537-15.066c-9.955-4.608-25.679-15.373-35.237-39.459-9.5-23.936-19-33.986-24.59-38.117 0 0 12.562-.057 16.325-15.862l-10.537-5.645s15.806-10.537 15.806-36.88c0 0-11.29 11.666-30.859 20.7 0 0-53.581-23.065-125.6-23.367a17.009 17.009 0 0 1 -15.689-10.484c-2.2-5.344-26.634-59.228-63.661-69.889 0 0-23.11 11.851-21.925 59.256 1.007 40.282 1.177 117.773 80.458 135.43 10.494 25.729 32.24 83.812 36.508 132.854h8.864a11.783 11.783 0 0 0 11.713-13.076 452.768 452.768 0 0 0 -7.946-48.757 594.78 594.78 0 0 1 -10.985-67.377q5.689-.055 11.751-.414l41.214-2.81c3.258-2.336 6.971-2.213 10.932-.746 0 0 11.562 28.905 73.784 35.737a27.378 27.378 0 0 1 20 12.376c9.019 13.983 26.111 53.237 28.643 85.067h7.164a11.779 11.779 0 0 0 11.691-13.275c-2.219-17.262-6.986-48.91-15.287-80.196z" fill="#db938c"/><path d="m223.734 137.826c21.657-4.076 34.078-16.507 41.181-28.812 9.828-15.837 22.408-22.892 24.04-9.635-15.5 43.181-46.736 52.844-62.943 54.877a8.29 8.29 0 0 1 -9.22-9.486 8.513 8.513 0 0 1 6.942-6.944z" fill="#ffca94"/><path d="m173.274 160.386s6.8 29.716 44.007 39.212a21.981 21.981 0 0 1 9.795 5.381l2.772 2.654a38.944 38.944 0 0 0 26.931 10.813 11.031 11.031 0 0 0 10.934-12.5l-2.83-21.119a33.136 33.136 0 0 0 -2.821-9.637 103.9 103.9 0 0 0 -18.512-27.422 33.07 33.07 0 0 0 -26.226-9.978l-14.923 1.1a18.308 18.308 0 0 1 -13.729-4.9c-3.225-2.968-8.641-6.163-17.36-6.955 0 .005-14.122 12.951 1.962 33.351z" fill="#db938c"/><path d="m181.6 150.389c-33.812-9.687-43.477-37.44-46.224-53.58a13.617 13.617 0 0 1 8.528-14.972c37.039-14.241 32.871-50.566 32.871-50.566l-3.886.049a14.846 14.846 0 0 0 -13.76 9.817c-10.49 28.992-45.824 27.822-45.824 27.822q-1.872.024-3.684.011a20.115 20.115 0 0 1 -19.882-21.57c.065-.907.155-1.8.265-2.665a13.715 13.715 0 0 0 -11.435-15.129l-3.061-.47c-6.008 15.617-4.24 27.532-1.442 35.094-28.5-8.586-37.319-26.906-40-38.739a13.739 13.739 0 0 0 -13.541-10.784l-5.084.065c4.745 85.745 98.4 72.269 98.4 72.269 8.045 60.431 45.151 76.214 63.776 80.336a8.722 8.722 0 0 0 10.585-9.036 8.955 8.955 0 0 0 -6.602-7.952z" fill="#ffca94"/><path d="m392.969 24.142-4.806-.51a13.059 13.059 0 0 0 -13.771 9.01c-3.58 10.963-13.545 27.523-41.275 33.133 3.316-6.909 6.041-18.03 1.734-33.341l-2.939.175a13.036 13.036 0 0 0 -12.157 13.309c.027.831.034 1.681.015 2.545a19.12 19.12 0 0 1 -20.725 18.659q-1.716-.147-3.485-.335s-33.545-2.012-40.914-30.377a14.111 14.111 0 0 0 -12.156-10.5l-3.673-.39s-7.152 34.011 26.646 50.759a12.942 12.942 0 0 1 6.749 14.921 74.264 74.264 0 0 1 -7.3 17.815s16.965-21.123 24.037-9.635a135.423 135.423 0 0 0 4.515-15.524s87.444 21.02 99.505-59.714z" fill="#c2896a"/><path d="m265.256 191.926-12.431 4.181-3.179 9.9 6.165 9.905 7.082-.9s5.271-4.002 2.363-23.086z" fill="#565663"/><g fill="#31313f"><path d="m473.026 390.368a28.379 28.379 0 0 0 -15.5-18.588c-10.042-4.64-23.825-14.74-32.463-36.509-6.7-16.875-13.523-27.364-19.307-33.876 4.657-2.924 9.214-8.117 11.281-16.8a5.5 5.5 0 0 0 -2.753-6.122l-3.857-2.066c5.294-6.217 12.028-17.654 12.028-35.611a5.5 5.5 0 0 0 -9.446-3.831c-.1.106-10.08 10.236-27.073 18.518-11.236-4.473-60.67-22.583-125.417-22.856a11.558 11.558 0 0 1 -6.887-2.282 5.5 5.5 0 0 0 -6.552 8.836 22.5 22.5 0 0 0 13.393 4.446c69.951.293 122.921 22.694 123.446 22.919a5.5 5.5 0 0 0 4.479-.058 126.7 126.7 0 0 0 21.464-12.6c-3.454 13.3-11.37 18.94-11.767 19.216a5.5 5.5 0 0 0 .454 9.424l6.465 3.464c-3.246 7.207-9.016 7.667-9.681 7.695a5.4 5.4 0 0 0 -5.266 3.7 5.543 5.543 0 0 0 2.024 6.221c4.527 3.343 13.5 12.43 22.745 35.722 10.5 26.469 28.362 37.949 38.072 42.437a17.409 17.409 0 0 1 9.486 11.424c9.5 35.793 14.373 72.491 16.027 86.6h-9.29c-3.926-32.586-20.476-69.341-28.995-82.549a32.729 32.729 0 0 0 -24.022-14.862c-57.5-6.313-69.191-32.113-69.278-32.311-.008-.021-.02-.038-.029-.059-.017-.04-.029-.082-.047-.123-4.091-9.251-8.417-20.058-9.49-30.073a5.5 5.5 0 0 0 -10.938 1.172c.95 8.867 3.955 17.9 7.31 26.164l-44.385 3.026c-2.21.132-4.4.224-6.569.294l-1.278-10.434a5.5 5.5 0 0 0 -10.919 1.337l1.879 15.346a598.016 598.016 0 0 0 11.083 67.952 460.753 460.753 0 0 1 8.553 55.12h-10.831c-5.151-47.475-24.852-101.11-36.4-129.432-.013-.03-.029-.057-.042-.087s-.03-.081-.049-.122l-7.784-17.016a5.5 5.5 0 0 0 -10 4.572l2.873 6.288a91.5 91.5 0 0 1 -22.641-10.922l-2.42-1.682c-7.478-5.188-10.3-7.146-16.122-14.353-22.109-29.353-23.195-73.019-23.844-99.115l-.026-1.05c-.568-22.743 4.675-36.554 9.824-44.566q.964.237 1.881.441a14.438 14.438 0 0 0 3.113.342 14.237 14.237 0 0 0 14.152-15.06 14.439 14.439 0 0 0 -10.572-12.929 62.9 62.9 0 0 1 -11.993-4.782 15.452 15.452 0 0 1 2.485-7.434 21.95 21.95 0 0 1 11.338 5.156 23.923 23.923 0 0 0 17.857 6.336l14.923-1.1a27.463 27.463 0 0 1 21.865 8.313 98.917 98.917 0 0 1 17.486 25.931 27.619 27.619 0 0 1 2.352 8.039l.4 2.956-.3.022a16.6 16.6 0 0 0 -14.322 22.344 33.356 33.356 0 0 1 -11.554-7.223l-2.773-2.654a27.542 27.542 0 0 0 -12.238-6.737 71.048 71.048 0 0 1 -7.924-2.516 5.5 5.5 0 0 0 -3.955 10.265 82.047 82.047 0 0 0 9.159 2.909 16.533 16.533 0 0 1 7.351 4.024l2.773 2.655a44.243 44.243 0 0 0 30.734 12.34 16.48 16.48 0 0 0 2.823-.265c.037-.006.073 0 .11-.01s.078-.02.118-.027c.4-.075.791-.169 1.182-.272.172-.045.344-.091.513-.141.326-.1.646-.206.964-.323.238-.087.471-.179.7-.276.252-.106.5-.215.747-.334.294-.14.58-.291.863-.448.185-.1.37-.2.551-.313.345-.209.678-.434 1.006-.666.116-.083.236-.16.35-.246.437-.328.857-.673 1.257-1.04l.017-.015a16.505 16.505 0 0 0 2.317-2.645c.024-.035.045-.07.068-.105.3-.43.575-.874.832-1.332.043-.078.083-.157.125-.236q.341-.63.626-1.29c.041-.094.08-.189.119-.284q.266-.648.475-1.321c.032-.1.064-.2.093-.3.131-.447.241-.9.333-1.362.021-.1.046-.205.065-.309.083-.456.142-.918.187-1.384.01-.109.027-.217.036-.327.034-.462.043-.929.038-1.4 0-.112.008-.223 0-.335a16.62 16.62 0 0 0 -.138-1.726l-1.658-12.378-1.171-8.737a38.626 38.626 0 0 0 -3.289-11.236 115.313 115.313 0 0 0 -13.33-21.751c16-8.593 34.517-25.919 43.834-60.873 12.642 2.063 44.9 5.063 70.117-11.945 16.8-11.332 27.148-29.278 30.742-53.34a5.5 5.5 0 0 0 -4.858-6.282l-4.807-.51a18.66 18.66 0 0 0 -19.579 12.772c-3 9.187-10.253 20.648-27.612 26.835 1.452-7.045 1.632-16.025-1.406-26.826a5.494 5.494 0 0 0 -5.621-4l-2.939.175a18.545 18.545 0 0 0 -17.324 18.984c.024.753.029 1.509.013 2.245a13.619 13.619 0 0 1 -14.754 13.3q-1.663-.144-3.378-.325c-.074-.008-.162-.015-.236-.02-1.209-.079-29.68-2.2-35.934-26.271a19.713 19.713 0 0 0 -16.9-14.592l-3.673-.39a5.5 5.5 0 0 0 -5.963 4.338 54.463 54.463 0 0 0 .672 21.463c2.489 10.826 9.527 25.748 28.915 35.356a7.446 7.446 0 0 1 3.878 8.572c-3.6 13.448-14.083 36.8-43.826 42.572a38.877 38.877 0 0 0 -6.154-.038l-14.918 1.097a12.882 12.882 0 0 1 -9.6-3.459c-3.583-3.3-10.064-7.429-20.587-8.386a5.5 5.5 0 0 0 -4.214 1.423 25.783 25.783 0 0 0 -6.354 10.714c-13.75-11.577-18.685-27.5-20.44-37.813a8.12 8.12 0 0 1 5.08-8.915c21.143-8.13 29.927-22.994 33.573-34.032a56.982 56.982 0 0 0 2.788-22.295 5.484 5.484 0 0 0 -5.534-4.872l-3.886.049a20.449 20.449 0 0 0 -18.862 13.445c-8.975 24.806-39.208 24.233-40.471 24.2-.084 0-.168 0-.25 0q-1.815.023-3.576.01a14.614 14.614 0 0 1 -14.441-15.686c.054-.767.133-1.564.234-2.366a19.221 19.221 0 0 0 -16.06-21.254l-3.061-.47a5.494 5.494 0 0 0 -5.969 3.461c-4.31 11.216-4.929 20.769-4.014 28.333-18.033-8.215-24.643-21.148-26.923-31.218a19.318 19.318 0 0 0 -18.979-15.068l-5.084.065a5.5 5.5 0 0 0 -5.421 5.8c1.41 25.473 10.456 45.213 26.887 58.672 24.842 20.355 59.114 20.223 72.336 19.283 4.2 25.136 13.869 45.062 28.791 59.279a80.539 80.539 0 0 0 25.823 16.538c-5.532 9.677-10.646 25.008-10.063 48.3l.026 1.047c.671 27.016 1.787 71.954 25.006 104.043.272 28.44.575 85.978-.272 163a5.5 5.5 0 0 0 5.5 5.561h20.34a5.5 5.5 0 0 0 5.489-5.142c.044-.672 4.405-66.348 15.288-131.617 3.406 1.169 6.917 2.216 10.551 3.11 9.961 24.747 30.946 81.4 35.057 128.626a5.5 5.5 0 0 0 5.479 5.023h21.813a5.5 5.5 0 0 0 5.487-5.882 466.047 466.047 0 0 0 -9.3-62.663 582.758 582.758 0 0 1 -10.227-60.805q2.965-.107 6-.287l48.656-3.318c2.312 3.628 6.941 9.452 15.38 15.412.056.1.092.2.155.3 11.726 17.757 38.971 64.188 38.686 111.715a5.5 5.5 0 0 0 5.5 5.533h21.433a5.5 5.5 0 0 0 5.5-5.5c0-2.01-.174-47.337-14.291-92.453 1.3.166 2.6.33 3.936.477a21.774 21.774 0 0 1 15.978 9.89c8.176 12.676 25.284 51.112 27.782 82.522a5.5 5.5 0 0 0 5.483 5.064h20.4a5.5 5.5 0 0 0 5.475-6.028c-.045-.483-4.733-48.154-17.007-94.405zm-217.4-187.5a5.506 5.506 0 0 1 4.719-3.357l.951-.07.97 7.24a5.531 5.531 0 0 1 .045.746v.168a5.381 5.381 0 0 1 -.055.638c0 .029-.006.057-.011.086a5.453 5.453 0 0 1 -.435 1.411c-.017.038-.036.076-.055.113a5.419 5.419 0 0 1 -.287.51c-.03.049-.059.1-.091.146a5.689 5.689 0 0 1 -.428.561l-.017.018a5.778 5.778 0 0 1 -.51.5l-.066.054a5.412 5.412 0 0 1 -.584.433 27.277 27.277 0 0 1 -3.357-3.455 5.516 5.516 0 0 1 -.793-5.744zm21.9-110.247a18.479 18.479 0 0 0 -9.62-21.274c-22.335-11.067-24.562-30.392-24.232-39.59a8.689 8.689 0 0 1 5.65 6.038c8.1 31.2 42.871 34.273 45.766 34.475q1.767.186 3.484.334a24.292 24.292 0 0 0 18.511-6.2 24.763 24.763 0 0 0 8.184-17.824c.021-.937.015-1.894-.016-2.844a7.591 7.591 0 0 1 5.374-7.352c2.264 11.51.01 19.848-2.467 25.009a5.5 5.5 0 0 0 6.049 7.771c31.107-6.293 41.8-25.768 45.413-36.817a7.541 7.541 0 0 1 6.882-5.285c-3.779 17.97-12.151 31.436-24.938 40.078-27.338 18.476-66.43 9.455-66.815 9.364a5.5 5.5 0 0 0 -6.646 4.119c-6.708 29.26-21.185 49.929-41.95 60a38.465 38.465 0 0 0 -5.513-4.3c23.941-10.704 33.304-32.337 36.883-45.704zm-158.238-6.3a5.5 5.5 0 0 0 -5.456-4.774 5.421 5.421 0 0 0 -.773.055c-.422.06-42.367 5.71-69.3-16.4-12.687-10.416-20.192-25.524-22.35-44.966a8.212 8.212 0 0 1 7.3 6.469c2.681 11.864 11.939 33.2 43.771 42.795a5.5 5.5 0 0 0 6.744-7.175c-2.123-5.738-3.69-14.858-.058-26.914a8.277 8.277 0 0 1 5.381 8.64c-.126 1-.225 2-.294 2.962a25.766 25.766 0 0 0 6.756 19.253 25.307 25.307 0 0 0 18.576 8.208q1.814.012 3.682-.01c2.984.064 39.559.272 51.038-31.451a9.422 9.422 0 0 1 7.081-6.032c-.469 9.6-4.51 30.136-29.452 39.726a19.153 19.153 0 0 0 -11.976 21.028c2.912 17.112 13.3 47.393 50.131 57.945a3.484 3.484 0 0 1 2.617 2.977 3.222 3.222 0 0 1 -3.905 3.353c-19.023-4.21-52.051-19.644-59.514-75.695zm79.912 393.473h-9.661c.675-64.825.536-115.345.313-145.646 2.5 2.059 5.168 3.909 8.586 6.28l2.458 1.708a97.2 97.2 0 0 0 13.751 7.7c-9.476 56.024-14.165 112.883-15.447 129.958zm214.929 0h-10.373c-1.3-37.654-17.8-73.7-30.653-96.331a141.237 141.237 0 0 0 25.659 7.406c12.289 36.25 14.843 74.877 15.37 88.925z"/><path d="m221.042 171.983a5.5 5.5 0 0 0 4.151-10.187l-4.423-1.8a5.5 5.5 0 0 0 -4.151 10.188z"/></g></svg>