<svg id="icons" height="512" viewBox="0 0 500 500" width="512" xmlns="http://www.w3.org/2000/svg"><path d="m177.709 218.059a15.974 15.974 0 0 0 -17.755 0c-25.946 17.358-44.771 52.116-46.7 88.753 10.2 42.6 95.716 47.286 111.319 7.07q.008-.43.007-.866c-.004-38.872-19.465-76.622-46.871-94.957z" fill="#e57e62"/><path d="m181.255 355.457a5.5 5.5 0 0 1 -4.166-9.088c28.53-33.147-2.705-87.277-3.024-87.82a5.5 5.5 0 0 1 9.478-5.582c1.468 2.491 35.567 61.442 1.883 100.577a5.487 5.487 0 0 1 -4.171 1.913z" fill="#9b4036"/><path d="m159.485 356.517a5.476 5.476 0 0 1 -3.253-1.069c-31.854-23.421-19.5-67.583-18.961-69.451a5.5 5.5 0 0 1 10.567 3.052c-.11.385-10.716 38.7 14.91 57.536a5.5 5.5 0 0 1 -3.263 9.932z" fill="#9b4036"/><path d="m168.831 332.53c-35.533 0-49.892-15.246-55.564-25.717-.109 2.063-.181 4.13-.181 6.2 0 24.3 17.848 36.464 33.346 42.442a62.305 62.305 0 0 0 44.8 0c15.311-5.906 32.9-17.854 33.326-41.576-10.271 9.154-27.682 18.651-55.727 18.651z" fill="#9b4036"/><path d="m147.667 424.078h22.389a0 0 0 0 1 0 0v36.1a9.6 9.6 0 0 1 -9.6 9.6 12.794 12.794 0 0 1 -12.794-12.794v-32.9a0 0 0 0 1 0 0z" fill="#565663"/><path d="m182.851 424.078a9.6 9.6 0 0 1 9.6 9.6v36.1a0 0 0 0 1 0 0h-22.394a0 0 0 0 1 0 0v-32.9a12.794 12.794 0 0 1 12.794-12.8z" fill="#565663" transform="matrix(-1 0 0 -1 362.503 893.849)"/><path d="m170.057 354.1c-28.492 0-41.341 13.407-41.341 48.6s41.341 32.961 41.341 32.961 41.343 2.239 41.343-32.961-12.851-48.6-41.343-48.6z" fill="#e57e62"/><g fill="#31313f"><circle cx="148.861" cy="401.101" r="5.712"/><circle cx="160.669" cy="414.67" r="5.712"/><circle cx="193.831" cy="400.605" r="5.712"/><circle cx="181.17" cy="415.4" r="5.712"/><path d="m42.25 322.808a63.093 63.093 0 0 0 21.055 19.278 132.535 132.535 0 0 0 30.374 12 5.5 5.5 0 0 0 2.856-10.623 121.588 121.588 0 0 1 -27.848-10.971 52.014 52.014 0 0 1 -17.362-15.9c-10.579-15.439-17.608-34.448-21.642-47.676a5.5 5.5 0 0 0 -10.522 3.209c4.259 13.963 11.722 34.092 23.089 50.683z"/><path d="m55.7 398.182a35.813 35.813 0 0 1 12.94-11.634c14.034-7.32 34.256-14.142 50.169-18.939a164.134 164.134 0 0 0 -12.531 11.445 97.451 97.451 0 0 0 -26.773 52.046c-3.685 21.357-9.405 36.74-16.105 43.319a5.5 5.5 0 0 0 7.706 7.85c8.575-8.418 15.049-25 19.242-49.294a86.509 86.509 0 0 1 23.768-46.2 152.576 152.576 0 0 1 12.9-11.646c-2.553 7.493-3.8 16.642-3.8 27.573 0 10.98 3.552 19.912 10.557 26.549a37.3 37.3 0 0 0 8.394 5.922v21.8a18.315 18.315 0 0 0 18.294 18.294 15.024 15.024 0 0 0 9.6-3.451 15.023 15.023 0 0 0 9.595 3.451 18.315 18.315 0 0 0 18.294-18.294v-21.8a37.246 37.246 0 0 0 8.394-5.926c7.006-6.637 10.557-15.569 10.557-26.549 0-11.807-1.442-21.544-4.429-29.35a153.935 153.935 0 0 1 15.145 13.423 86.5 86.5 0 0 1 23.767 46.2c4.193 24.291 10.668 40.876 19.243 49.294a5.5 5.5 0 0 0 7.7-7.85c-6.7-6.579-12.422-21.962-16.108-43.315a97.453 97.453 0 0 0 -26.772-52.05 167.935 167.935 0 0 0 -22.4-19c32.02-2.752 52.932-10.991 65.375-17.971a63.087 63.087 0 0 0 21.056-19.278c11.369-16.594 18.831-36.722 23.088-50.685a5.5 5.5 0 0 0 -10.521-3.209c-4.033 13.227-11.062 32.234-21.642 47.676a52.034 52.034 0 0 1 -17.362 15.9c-10.378 5.821-27.248 12.587-52.615 15.733 11.684-6.516 25.12-15.428 35.447-26.35a50.418 50.418 0 0 0 13.437-28.411l8.636-67.369a5.5 5.5 0 1 0 -10.91-1.4l-8.636 67.379a39.48 39.48 0 0 1 -10.52 22.253 120.17 120.17 0 0 1 -21.445 17.405 47.439 47.439 0 0 0 3.644-18.707c0-42.937-23.258-85.755-55.745-103.419v-186.462a5.5 5.5 0 1 0 -11 0v186.465c-32.487 17.664-55.745 60.482-55.745 103.419a48.691 48.691 0 0 0 2.261 14.981 110.647 110.647 0 0 1 -16-13.685 39.479 39.479 0 0 1 -10.519-22.252l-9-70.2a5.5 5.5 0 0 0 -10.912 1.4l9 70.2a50.411 50.411 0 0 0 13.437 28.411c12.2 12.9 28.731 23 41.591 29.651q1.05.765 2.155 1.5c-16.307 4.5-46.378 13.509-66.048 23.769a46.851 46.851 0 0 0 -16.949 15.2c-7.447 10.942-21.989 31.27-35.713 44.488a5.5 5.5 0 0 0 7.63 7.923c14.438-13.905 29.489-34.93 37.178-46.223zm104.763 66.089a7.3 7.3 0 0 1 -7.294-7.294v-17.689a64.922 64.922 0 0 0 11.39 1.766v19.121a4.1 4.1 0 0 1 -4.098 4.096zm26.485-7.294a7.3 7.3 0 0 1 -7.294 7.294 4.1 4.1 0 0 1 -4.095-4.1v-19.119a65.073 65.073 0 0 0 11.389-1.767zm11.863-35.745c-10.226 9.728-28.284 8.948-28.455 8.937-.1 0-.2-.007-.294-.007s-.194 0-.289.007c-.181.011-18.24.792-28.466-8.938-4.77-4.537-7.089-10.6-7.089-18.53 0-35.893 13.714-43.1 35.841-43.1s35.84 7.21 35.84 43.1c.001 7.932-2.32 13.993-7.09 18.531zm-80.225-108.216c0-39.234 20.985-78.187 50.245-93.892 29.26 15.705 50.245 54.658 50.245 93.892 0 17.123-10.035 29.676-29.827 37.312-.433.167-.869.323-1.3.479l-.265-.073c11.862-15.63 15.346-36.346 10.046-60.559a139.33 139.33 0 0 0 -14.183-37.208 5.5 5.5 0 0 0 -9.478 5.582c.339.577 33 57.23.838 90.193-1.572-.089-3.179-.144-4.846-.144-1.415 0-2.784.043-4.131.107-29.579-18.012-18.589-57.9-18.089-59.653a5.5 5.5 0 0 0 -10.57-3.052 86.617 86.617 0 0 0 -2.539 27.664c1.071 14.714 6.208 26.933 15 36.058-2.723-1.107-8.942-3.746-16.622-7.693-9.649-7.378-14.524-17.085-14.524-29.013z"/><path d="m323.2 444.4a5.5 5.5 0 0 0 7.631-7.923c-13.731-13.224-28.269-33.549-35.713-44.487a46.868 46.868 0 0 0 -16.948-15.2c-9.282-4.841-21.9-9.926-37.5-15.114a5.5 5.5 0 1 0 -3.471 10.437c15.045 5 27.118 9.859 35.883 14.43a35.833 35.833 0 0 1 12.941 11.633c7.689 11.296 22.736 32.314 37.177 46.224z"/><path d="m253.658 16.156a5.5 5.5 0 1 0 0 11h22.566c3.931 2.758 16.72 12.536 28.491 30.437 12.754 19.4 26.859 52.594 22.322 101.051l-35.214 32.138a5.5 5.5 0 1 0 7.416 8.125l34.828-31.785c6.509 1.18 25.586 5.447 49.329 18.079 26.8 14.259 65.184 42.415 96.4 95.633v105.747a5.5 5.5 0 0 0 11 0v-364.925a5.594 5.594 0 0 0 -.055-.737c-.006-.046-.014-.092-.021-.139a5.53 5.53 0 0 0 -.223-.9l-.045-.123a5.544 5.544 0 0 0 -.4-.857c-.022-.038-.045-.075-.068-.112a5.5 5.5 0 0 0 -.584-.788c-.015-.016-.024-.036-.039-.052s-.031-.026-.046-.041a5.487 5.487 0 0 0 -.727-.652c-.036-.027-.071-.054-.108-.08a5.436 5.436 0 0 0 -.819-.48c-.037-.018-.073-.037-.11-.053a5.415 5.415 0 0 0 -.893-.31l-.114-.029a5.52 5.52 0 0 0 -.917-.131c-.049 0-.1-.006-.149-.007s-.119-.009-.179-.009zm226.136 63.194c-10.011-9.907-22.669-14.2-31.952-16.066l31.952-29.162zm-87.194 19.457c-1.161-32.428-20.178-58.351-32.273-71.651h53.123a44.035 44.035 0 0 1 14 19.245 5.5 5.5 0 0 0 10.326-3.793 54.5 54.5 0 0 0 -8.807-15.452h42.139zm-79.032-47.768a135.537 135.537 0 0 0 -20.068-23.883h51.348c7.375 6.861 40.442 40.16 36.474 81.949l-42.545 38.829c1.723-45.634-12.384-77.575-25.209-96.895zm74.478 124.177a197.283 197.283 0 0 0 -44-17.2l93.208-85.067c7.233.509 32.117 3.821 42.545 25.07v56.73c-16.928-25.923-41.977-38.01-61.884-43.629a5.5 5.5 0 1 0 -2.988 10.586c22.075 6.232 51.152 21.238 64.872 57.274v81.133c-30.727-45.984-66.216-71.397-91.753-84.897z"/></g></svg>