<svg id="icons" height="512" viewBox="0 0 500 500" width="512" xmlns="http://www.w3.org/2000/svg"><path d="m484.198 305.019-51.299-79.132h35.011l-42.557-65.647h30.081l-45.363-69.974-45.362 69.974h30.08l-42.556 65.647h35.011l-51.299 79.132z" fill="#6a8953"/><path d="m138.155 109.034s49.216 52.4 178.959 66.956c0 0 2.532 118.967 115.82 256.946h-134.778s-166.179-118.08-160.001-323.902z" fill="#967a39"/><path d="m138.155 109.034s41.926 226.841 160 323.9h-113.874c-26.047-6.291-54.648-5.993-85.455 0h-83.026s102.676-153.634 122.355-323.9z" fill="#dac566"/><path d="m184.281 432.936s-38.152-140.315-41.181-189.621c0 0-12.134 140.884-44.276 189.621z" fill="#565663"/><path d="m143.1 243.315s1.564 121.226 41.179 189.621c4.545-19.115 13.023-35.764 24.2-50.718a6.111 6.111 0 0 0 -.626-8.083c-12.633-12.112-51.312-54.52-64.753-130.82z" fill="#ffffd2"/><g fill="#31313f"><path d="m443.019 231.387h24.89a5.5 5.5 0 0 0 4.616-8.492l-37.051-57.155h19.96a5.5 5.5 0 0 0 4.615-8.491l-45.362-69.975a5.5 5.5 0 0 0 -9.231 0l-45.362 69.975a5.5 5.5 0 0 0 4.615 8.491h19.96l-37.051 57.16a5.5 5.5 0 0 0 4.616 8.492h24.889l-30 46.282c-3.642-9.428-6.668-18.167-9.176-26.1-12.376-39.144-14.788-66.411-15.234-73.721l16.422-19.915a5.5 5.5 0 1 0 -8.486-7l-8.81 10.682-.515-9.446a5.5 5.5 0 0 0 -10.985.6l.928 16.985c-62.221-7.76-104.408-24.418-129.1-37.246-23.094-12-35.446-22.887-38.949-26.212l-6.35-31.653a5.5 5.5 0 0 0 -10.786 2.164l6.507 32.433c-10.182 86.83-42.5 169.189-67.876 223.061-27.639 58.687-53.228 97.2-53.483 97.577a5.5 5.5 0 0 0 4.573 8.555h417.131a5.5 5.5 0 0 0 4.251-8.99c-35.237-42.917-59.41-83.888-75.955-118.927h43.342v52.63a5.5 5.5 0 0 0 11 0v-52.63h68.628a5.5 5.5 0 0 0 4.615-8.492zm-300.734 74.06c4.69 37.679 14.063 85.356 32.76 121.989h-65.745c17.242-28.906 27.349-80.7 32.985-121.989zm40.531 112.9c-17.444-36.447-26.016-84.024-30.216-120.39 17.66 45.277 42.194 71.454 51.812 80.523a145.1 145.1 0 0 0 -21.596 39.865zm8.629 9.091c4.854-16.33 12.992-31.507 24.755-46.2a5.508 5.508 0 0 0 -.821-7.7c-.511-.417-51.286-42.75-66.86-131.17 0-.021-.013-.039-.017-.059a5.544 5.544 0 0 0 -.252-.917c-.014-.035-.029-.068-.043-.1a5.427 5.427 0 0 0 -.4-.816c-.023-.037-.048-.072-.071-.108a5.424 5.424 0 0 0 -.538-.714c-.022-.025-.046-.047-.069-.071a5.51 5.51 0 0 0 -.685-.628l-.013-.009a5.5 5.5 0 0 0 -.813-.511c-.013-.006-.024-.014-.037-.02a5.465 5.465 0 0 0 -.865-.343c-.033-.01-.066-.023-.1-.032a5.45 5.45 0 0 0 -.883-.172l-.155-.017c-.048 0-.094-.013-.143-.016a5.623 5.623 0 0 0 -.747.014c-.033 0-.065 0-.1 0s-.064.015-.1.019a5.461 5.461 0 0 0 -.821.157c-.084.022-.166.048-.248.074a5.68 5.68 0 0 0 -.7.277c-.095.046-.186.1-.277.147a5.514 5.514 0 0 0 -.6.378c-.084.062-.162.128-.242.194a5.548 5.548 0 0 0 -.533.5c-.057.06-.107.125-.16.188a5.414 5.414 0 0 0 -.477.639c-.026.041-.047.084-.071.126a5.371 5.371 0 0 0 -.379.768c-.009.021-.02.042-.028.063a5.392 5.392 0 0 0 -.251.9c-.007.036-.017.07-.023.106a5.38 5.38 0 0 0 -.074.615c-.086 1.42-8.8 140.325-41.479 184.451h-70.3a907.626 907.626 0 0 0 48.75-90.271c22.914-48.627 51.425-120.18 64.733-197.607a919.618 919.618 0 0 0 29.405 96.908c14.769 40.28 31.554 76.511 49.889 107.686 19.886 33.812 41.67 61.753 64.9 83.269zm108.729 0c-59.169-49.483-98.47-132.972-121.069-194.568a903.8 903.8 0 0 1 -32.258-109.289 220.656 220.656 0 0 0 29.585 18.347c25.836 13.515 70.117 31.091 135.451 38.991.781 10.328 3.807 36.592 15.412 73.455 13.074 41.527 39.937 104.558 94.142 173.064zm115.4-127.917v-69.993a39.569 39.569 0 0 1 8.006-23.789l3.622-4.771a5.5 5.5 0 1 0 -8.761-6.651l-2.867 3.776v-17.907a5.5 5.5 0 0 0 -11 0v76.464c-.3-.272-.591-.546-.9-.808l-4.327-3.685a5.5 5.5 0 0 0 -7.133 8.375l4.328 3.686a22.79 22.79 0 0 1 8.03 17.38v17.921h-48.378q-2.12-4.779-4.046-9.383l39.711-61.257a5.5 5.5 0 0 0 -4.616-8.492h-24.889l37.051-57.155a5.5 5.5 0 0 0 -4.616-8.492h-19.96l35.243-54.363 35.242 54.363h-19.96a5.5 5.5 0 0 0 -4.615 8.492l37.05 57.155h-24.889a5.5 5.5 0 0 0 -4.616 8.492l45.794 70.64z"/><path d="m149.264 92.33a5.5 5.5 0 0 0 7.144-3.077l8.019-20.153a5.5 5.5 0 1 0 -10.221-4.067l-8.019 20.154a5.5 5.5 0 0 0 3.077 7.143z"/></g></svg>