<svg id="icons" height="512" viewBox="0 0 500 500" width="512" xmlns="http://www.w3.org/2000/svg"><path d="m26.855 247.288c15.3-28.079 43.219-73.785 74.731-98.911h99.324s28.69 25.566 40.415 94.323v84.254h-225.84l-.554-31.083a97.9 97.9 0 0 1 11.924-48.583z" fill="#e2d670"/><path d="m64.978 187.4s16.59-17.086 44.158-22.757a21.741 21.741 0 0 1 16.746 3.49l11.647 8.077a21.9 21.9 0 0 0 25.665-.5l15.126-11.4a21.9 21.9 0 0 1 20.9-3.006l16.177 6.2s-12.682-33.083-36.386-56.046a34.883 34.883 0 0 0 -45.685-2.2c-18.814 14.677-46.594 40.511-68.348 78.142z" fill="#a3994f"/><path d="m155.33 290.186h85.995v-47.486c-10.269-60.2-33.536-87.289-39.17-93.1-17.102 24.829-46.879 77.17-46.825 140.586z" fill="#a3994f"/><path d="m464.171 181.632c-22.123-34.424-47.032-71.834-47.032-71.834l-26.434-16.616-111.778-2.266-32.476 38.519s-62.994 114.2-76.994 163.537c0 0 10 34 74 34h241.627v-74.155a131.666 131.666 0 0 0 -20.913-71.185z" fill="#e2d670"/><path d="m215 360.155c10.6 4.839 21.714 9.167 32.5 13.276 36.138 13.765 50.571 50.841 31.99 80.311a111.483 111.483 0 0 1 -12.409 16.19h167.824s2.7-90.53-124.115-129.383c-56.06-17.176-87.85-28.315-104.78-40.719-26.083 2.132-30.37 36.111 8.99 60.325z" fill="#a1b7ec"/><path d="m141.627 405.854-40.615-63.186h27.719l-45.793-71.241-45.793 71.241h27.719l-40.615 63.186z" fill="#6a8953"/><path d="m465.632 299.363-40.616-63.186h27.72l-45.793-71.241-45.793 71.241h27.719l-40.615 63.186z" fill="#6a8953"/><path d="m246.451 129.435s10.533-10.982 31.5-19.148a31.408 31.408 0 0 1 28.357 2.831 31.381 31.381 0 0 0 34.229-.213l.118-.078a31.532 31.532 0 0 1 32.973-.975c11.51 6.54 28.119 11.2 43.516-2.054 0 0-32.2-46.511-64.644-73.1a29.8 29.8 0 0 0 -39.023 1.245c-17.753 16.32-45.122 46.284-67.026 91.492z" fill="#a3994f"/><g fill="#6980c1"><path d="m198.327 311.625a33.975 33.975 0 0 1 7.688-11.8c-21.36-15.653-19.068-33.32-12.016-67.675 0 0-46.114 20.83-37.639 71.028 4.516 26.751 29.694 43.762 58.64 56.972-13.323-12.969-23.8-30.007-16.673-48.525z"/><path d="m323.745 469.932c8.679-21.827 9.455-41.936 2.267-60-16.357-41.109-67.819-56.225-72.023-57.4-15.98-5.592-55.5-23.032-65.569-42.292-2.392 4.373-3.126 9.815-1.9 15.754q10.3 10.926 29.729 21.567a253.356 253.356 0 0 0 34.29 15.418c.119.042.244.08.365.113.5.137 50.283 14.112 64.9 50.949 6.512 16.407 5.154 35.151-4 55.891z"/><path d="m394.736 469.932a95.859 95.859 0 0 0 -7.086-48.707c-20.8-48.3-76-67.83-78.335-68.638a5.5 5.5 0 0 0 -3.595 10.4c.528.183 53.03 18.844 71.855 62.657 5.89 13.707 7.909 28.518 6.072 44.292z"/></g><path d="m476.812 212.4a5.5 5.5 0 0 0 5.153-7.421 137.64 137.64 0 0 0 -13.165-26.321c-21.893-34.068-46.832-71.534-47.081-71.908-.009-.013-.021-.023-.029-.036s-.017-.032-.027-.047c-1.333-1.925-33.014-47.452-65.68-74.223a35.438 35.438 0 0 0 -46.233 1.456c-19 17.471-46.241 47.782-68.176 92.994-.788 1.433-9.412 17.138-20.705 38.819l-.555-.851c-1.844-4.62-14.587-35.175-37.479-57.352a40.507 40.507 0 0 0 -52.9-2.589 281 281 0 0 0 -69.535 79.42c-16.254 21.483-29.831 44.642-38.372 60.316a104.139 104.139 0 0 0 -5.628 12.143 5.5 5.5 0 1 0 10.257 3.973 92.824 92.824 0 0 1 5.033-10.85c8.354-15.334 21.619-37.966 37.447-58.894a88.152 88.152 0 0 1 41.111-21 16.3 16.3 0 0 1 12.5 2.622l11.647 8.078a27.356 27.356 0 0 0 32.11-.632l15.125-11.4a16.332 16.332 0 0 1 15.65-2.252l14.5 5.456 3.282 5.034c-8.12 15.81-17.06 33.708-25.233 51.146a83.132 83.132 0 0 0 -21.891 17.047c-10.375 11.38-21.748 30.846-17 58.96 6.935 41.084 57.606 60.385 94.6 74.477 16.772 6.389 29.248 18.616 34.231 33.546a44.809 44.809 0 0 1 -4.936 38.692 106.468 106.468 0 0 1 -11.8 15.4l-3.438 3.728h14.815a117.61 117.61 0 0 0 9.731-13.257c9.319-14.779 11.472-31.84 6.065-48.041-6.031-18.072-20.884-32.776-40.749-40.343-43.1-16.417-82.236-33.82-87.675-66.029-5.29-31.336 12.432-50.1 24.418-58.948-4.444 24.328-4.681 41.133 10.061 55.5 15.782 15.38 48.986 27.408 112.918 47 50.167 15.37 86.852 41.68 106.089 76.086 14.5 25.942 14.144 47.672 14.138 47.874v.164h11v-.062c.04-2.653-.1-25.382-15.189-52.718-14.338-25.974-45.55-61.257-112.817-81.867-62.207-19.058-94.3-30.557-108.463-44.356-12.34-12.024-11.04-25.968-4.68-57.046 21.271-45.515 48.088-94.647 51.62-101.09 2.18-2.061 11.983-10.732 29.064-17.386a25.974 25.974 0 0 1 23.39 2.335 36.906 36.906 0 0 0 40.221-.245l.126-.083a25.943 25.943 0 0 1 27.227-.785c16.064 9.129 31.769 9.429 44.857 1.035 7.432 11.206 26.549 40.122 43.781 66.936a126.535 126.535 0 0 1 12.112 24.213 5.5 5.5 0 0 0 5.157 3.582zm-275.66-56.245a27.262 27.262 0 0 0 -26.142 3.762l-15.125 11.4a16.377 16.377 0 0 1 -19.222.378l-11.647-8.078a27.5 27.5 0 0 0 -15.631-4.9 26.587 26.587 0 0 0 -5.358.543 97.836 97.836 0 0 0 -23.377 8.034 273.316 273.316 0 0 1 52.056-53.7 29.461 29.461 0 0 1 38.475 1.818c13.926 13.492 24 30.819 29.693 42.15zm175.188-49.085a37.369 37.369 0 0 0 -18.482-4.922 36.669 36.669 0 0 0 -20.228 6.083l-.126.083a25.9 25.9 0 0 1 -28.231.176 37 37 0 0 0 -33.323-3.328 119.377 119.377 0 0 0 -13.832 6.419 294.227 294.227 0 0 1 55.082-69.59 24.389 24.389 0 0 1 31.813-1.039c25.76 21.11 51.77 55.6 60.523 67.659-9.62 6.034-20.761 5.525-33.196-1.541z" fill="#31313f"/><path d="m77.439 469.932a5.5 5.5 0 0 0 11 0v-58.578h53.188a5.5 5.5 0 0 0 4.627-8.474l-35.169-54.712h17.646a5.5 5.5 0 0 0 4.626-8.474l-45.792-71.241a5.5 5.5 0 0 0 -9.253 0l-45.793 71.241a5.5 5.5 0 0 0 4.627 8.474h17.645l-35.169 54.712a5.5 5.5 0 0 0 4.627 8.474h35.551a5.5 5.5 0 1 0 0-11h-25.478l35.169-54.712a5.5 5.5 0 0 0 -4.627-8.474h-17.645l35.72-55.568 35.718 55.569h-17.645a5.5 5.5 0 0 0 -4.627 8.474l35.169 54.712h-43.115v-79.748a5.5 5.5 0 0 0 -11 0v49.671l-3.015-3.617a5.5 5.5 0 0 0 -8.451 7.042l3.963 4.755a32.444 32.444 0 0 1 7.5 20.724z" fill="#31313f"/><path d="m406.942 223.37a5.5 5.5 0 0 0 -5.5 5.5v129.265a5.5 5.5 0 0 0 11 0v-53.273h53.19a5.5 5.5 0 0 0 4.627-8.474l-35.169-54.711h17.645a5.5 5.5 0 0 0 4.627-8.474l-45.792-71.241a5.5 5.5 0 0 0 -9.254 0l-45.793 71.238a5.5 5.5 0 0 0 4.627 8.474h17.65l-35.169 54.711a5.5 5.5 0 0 0 4.627 8.474h33.454a5.5 5.5 0 0 0 0-11h-23.385l35.173-54.708a5.5 5.5 0 0 0 -4.627-8.474h-17.649l35.719-55.569 35.719 55.569h-17.645a5.5 5.5 0 0 0 -4.627 8.474l35.169 54.711h-43.088a34.607 34.607 0 0 1 8.314-21.245l3.855-4.489a5.5 5.5 0 1 0 -8.346-7.165l-3.852 4.486v-36.579a5.5 5.5 0 0 0 -5.5-5.5z" fill="#31313f"/></svg>