<svg id="icons" height="512" viewBox="0 0 500 500" width="512" xmlns="http://www.w3.org/2000/svg"><path d="m399.063 95.928v170.965s-276.52-65.693-322.817-135.357z" fill="#f29089"/><path d="m371.571 59.886q-4.07-1.551-8.475-3.064s-74.396-14.909-133.211-14.192c-64.403-.785-106.185 8.958-137.485 20.892-33.053 12.6-37.558 46-7.639 64.575 46.709 29 95.65 43.99 124.174 46.334 13 1.069 20.948.9 20.948.9s81.041 1.687 149.042-40.531c29.921-18.571 25.699-62.309-7.354-74.914z" fill="#ffd7cd"/><path d="m407.321 380.228c1.334-15.111 14.03-18 23.015-18.115l2.416-35.443-36.552-32.67c14.876.391 28.869 4.311 38.255 7.66l4.833-70.9s-51.428-39.614-156.37-36.139c-63.388 2.1-124.61-18.628-167.179-44.254l-26.417-10.067c-9.571 20.458-24.858 125.036-28.607 223.193 0 0 26.222 61.939 203.441 62.244 74.128.127 125.132 16.738 159.387 36.02l2.992-43.89a20.377 20.377 0 0 0 -9.3-18.416c-6.027-3.942-10.728-9.99-9.914-19.223z" fill="#ffd7cd"/><path d="m301.343 284.867s-15.885-5.678-39.566-9.034l1.066-34.95c-18.824-.571-58.751-5.7-58.751-5.7l-1.167 33.981a311.388 311.388 0 0 1 -36.467-9.394v57.473a310.086 310.086 0 0 0 34.507 9l-.989 28.823c17.682 8.552 59.024 11.861 59.024 11.861l1.033-33.863c24.645 3.316 41.311 9.276 41.311 9.276z" fill="#de5050"/><path d="m363.1 56.825c-30.935-10.6-74.388-19.255-133.21-18.538-64.4-.785-110.391 9.665-141.687 21.6-.959.366-1.89.762-2.8 1.18-.612.281-1.2.587-1.789.89-.253.131-.515.253-.764.388-.759.407-1.492.838-2.213 1.281-.049.03-.1.059-.149.09a41.644 41.644 0 0 0 .357 71.089c46.71 29 99.572 37.283 128.1 39.627-68.587-11.807-88.385-34.744-91.389-54.3-2.6-16.91 7.3-33.282 23.2-39.6l83.544-14.151 77.044 6.657 34.6 8.4 11.579 12.111c-11.651-34.3 15.389-36.708 15.577-36.724z" fill="#f29089"/><path d="m60.715 98.7v264.794s5.683 13.4 29.576 27.76a106.136 106.136 0 0 1 -8.323-39.867v-153.194c0-57.02 33.78-47.828 33.78-47.828v-.009c-27.907-16.798-47.804-35.698-55.033-51.656z" fill="#f29089"/><g fill="#31313f"><path d="m442.646 226.4c-1.039-.8-13.6-10.244-38.083-19.454v-111.018a5.49 5.49 0 0 0 -.264-1.68 47.526 47.526 0 0 0 -30.768-39.5c-39.964-15.24-88.309-22.648-143.646-21.962-55.36-.686-103.685 6.722-143.646 21.962a47.523 47.523 0 0 0 -31.029 43.889c0 .047.005.092.005.138v264.719a5.512 5.512 0 0 0 .435 2.145c1.129 2.665 29.7 65.291 208.5 65.6 62.541.109 115.263 11.99 156.7 35.314a5.5 5.5 0 0 0 8.185-4.419l2.991-43.89a25.931 25.931 0 0 0 -11.773-23.394c-5.61-3.667-7.977-8.159-7.449-14.136.281-3.186 1.137-12.881 17.609-13.1a5.5 5.5 0 0 0 5.414-5.126l2.416-35.443a5.5 5.5 0 0 0 -1.822-4.475l-23.72-21.2a136.126 136.126 0 0 1 19.911 5.472 5.5 5.5 0 0 0 7.336-4.806l4.833-70.9a5.5 5.5 0 0 0 -2.135-4.736zm-159.908-37.282c-27.756.92-56.854-2.664-85.313-10.308h.008c.054 0 .107 0 .161.006a278.89 278.89 0 0 0 32.272 2.019c.289 0 .877.014 1.742.014 12.819 0 86.479-1.8 150.22-41.373a48.971 48.971 0 0 0 11.735-10.163v73.793c-26.203-8.441-63.027-15.572-110.825-13.988zm-192.58-124.093c38.681-14.751 85.66-21.91 139.66-21.239h.134c54.007-.662 100.978 6.488 139.659 21.239 13.546 5.166 22.437 16.633 23.789 30.675 1.341 13.975-5.152 26.847-17.369 34.431-65.76 40.823-145.231 39.725-146.031 39.705-.063 0-.128 0-.191 0-.446 0-42.076.392-88.889-13.834-3.792-1.359-7.157-2.707-10.046-3.974a53.461 53.461 0 0 1 -29.346-31.311c-5.93-17.361 1.8-24.017 8.121-27.513 29.444-16.27 117.444-31.059 212.818-11.125a18.775 18.775 0 0 1 7.831 33.008c-18.951 15.1-60.438 31.036-150.467 21.2a49.52 49.52 0 0 1 -16.755-4.784c-5.735-2.854-9.213-6.067-9.793-9.048-.449-2.3.773-5.105 3.629-8.334 12.454-14.08 70.823-21.111 117.841-14.2a5.157 5.157 0 0 1 4.547 4.793 5.222 5.222 0 0 1 -3.574 5.655c-15.883 5.648-35.521 6.88-58.368 3.655a5.5 5.5 0 0 0 -1.536 10.893c24.622 3.473 46.017 2.064 63.589-4.184a16.412 16.412 0 0 0 -3.058-31.695c-41.364-6.085-109.946-2.257-127.68 17.791-5.242 5.927-7.324 11.891-6.187 17.727 1.286 6.6 6.564 12.251 15.689 16.792a60.5 60.5 0 0 0 20.461 5.872c75.265 8.219 128.6.305 158.516-23.531a29.773 29.773 0 0 0 -12.434-52.378c-98.1-20.5-189.5-4.8-220.389 12.265-14.707 8.127-19.4 22.58-13.21 40.7.328.962.686 1.91 1.062 2.852-12.291-10.1-21.392-20.337-25.912-29.568.639-14.72 9.686-27.118 23.889-32.535zm339.294 229.188a127.309 127.309 0 0 0 -33.106-5.714 5.5 5.5 0 0 0 -3.81 9.6l34.546 30.881-1.907 27.976c-13.779 1.725-22.189 9.838-23.332 22.79-.885 10.028 3.4 18.435 12.388 24.31a14.923 14.923 0 0 1 6.817 13.439l-2.411 35.375c-41.845-21.555-93.757-32.527-154.472-32.632-89.181-.153-138.487-16.3-164.146-29.813-23.671-12.469-31.947-24.985-33.8-28.253v-245.1c32.106 38.426 116.387 83.2 207.74 83.2q4.56 0 9.148-.151c89.288-2.966 139.431 26.125 150.487 33.384z"/><path d="m268.34 241.051a5.5 5.5 0 0 0 -5.331-5.665c-18.338-.556-57.819-5.612-58.216-5.662a5.5 5.5 0 0 0 -6.2 5.266l-.943 27.463a302.84 302.84 0 0 1 -29.423-7.893 5.5 5.5 0 0 0 -7.271 5.207v57.472a5.5 5.5 0 0 0 3.73 5.207 305.74 305.74 0 0 0 30.622 8.225l-.831 24.2a5.5 5.5 0 0 0 3.1 5.14c18.4 8.9 59.25 12.257 60.98 12.4.147.012.293.018.439.018a5.5 5.5 0 0 0 5.5-5.332l.844-27.691a213.862 213.862 0 0 1 34.15 8.114 5.5 5.5 0 0 0 7.352-5.179v-57.475a5.5 5.5 0 0 0 -3.649-5.179c-.623-.223-14.536-5.144-35.771-8.562zm27.5 47.817v45.991a250.164 250.164 0 0 0 -35.078-7.246 5.5 5.5 0 0 0 -6.231 5.283l-.853 28c-10.853-1.139-34.461-4.1-48.079-9.388l.86-25.078a5.5 5.5 0 0 0 -4.4-5.579c-13.489-2.734-24.6-5.936-30.1-7.628v-45.98c6.625 1.955 17.276 4.839 29.91 7.315a5.5 5.5 0 0 0 6.554-5.209l.96-27.968c10.56 1.29 32.681 3.864 47.8 4.747l-.9 29.537a5.5 5.5 0 0 0 4.726 5.613 235 235 0 0 1 34.834 7.59z"/></g></svg>