<svg id="icons" height="512" viewBox="0 0 500 500" width="512" xmlns="http://www.w3.org/2000/svg"><path d="m406.758 207.54c4.945 31.753-9.431 57.332-25.775 75.378-22.846 15.01-49.58 12.336-56.356-7.317a132.571 132.571 0 0 0 16.373-18.777c3.206-1.584 5.016-4.884 6.041-9.149q.522-.863 1.034-1.737a110.16 110.16 0 0 0 13.057-32.813c2.73-3.451 3.33-7.439 1.744-11.978 4.453-56.5-45.954-94.311-45.954-94.311s76.071 12.317 89.836 100.704z" fill="#efe387"/><path d="m331.482 269.588c-16.992 16.131-44.171 32.847-65.59 39.286l77.108 4.442a157.389 157.389 0 0 0 37.976-30.4c-23.776 2.515-37.976-3.077-49.494-13.328z" fill="#ad9d4d"/><path d="m182.384 97.9a5.5 5.5 0 0 0 -7.637-1.474l-13.123 8.874c-12.147 8.478-23.377 11.694-33.365 9.56-13.1-2.8-20.08-14.109-20.216-14.333a5.5 5.5 0 0 0 -9.47 5.6 43.733 43.733 0 0 0 7.905 9.3 21 21 0 0 1 -10.5-2.2 5.5 5.5 0 0 0 -5.276 9.651 33.081 33.081 0 0 0 14.622 3.6 24.515 24.515 0 0 0 12.744-3.437 39.867 39.867 0 0 0 7.72 2.535 40.48 40.48 0 0 0 8.651.929c10.637 0 21.848-4.072 33.414-12.143l13.056-8.829a5.5 5.5 0 0 0 1.475-7.633z" fill="#de5050"/><path d="m172.023 48.877a35.318 35.318 0 0 0 -16.787 32.523 27.985 27.985 0 0 0 27.992 26.166h93.3c30.864 0 60.521 12.914 80.864 36.125 12.718 14.51 23.878 34.309 28.361 60.956 5.983 35.565-2.521 61.37-13.478 78.886 19.5 10.93 47.4 4.581 63.494-19.4 14.543-31.275 23.645-75.5 1.422-126.863-44.198-102.158-184.461-110.852-184.461-110.852s-35.956-9.236-54.062 6.917a57.685 57.685 0 0 1 -13.188 9.031z" fill="#94b281"/><path d="m221.728 48.8 8.77-2.332c7.241-1.926 13.644 5.659 10.139 12.281-1.514 2.861-4.316 5.329-9.246 6.5a19.537 19.537 0 0 1 -10.127.033c-8.217-2.406-7.811-14.282.464-16.482z" fill="#fff"/><path d="m372.265 283.525c-12.925 20.66-29.265 29.791-29.265 29.791h58.683s19.695-18.27 34.074-49.19c-23.073 13.702-44.772 18.766-63.492 19.399z" fill="#637f4a"/><path d="m73.029 204.8c-6.472 26.7-9.867 73.367 30.168 108.52h91.285s-80.654-20.908-93.756-107.152a14.258 14.258 0 0 0 -4.715-8.639 14.119 14.119 0 0 0 -22.982 7.271z" fill="#637f4a"/><path d="m93.054 377.5s-43.47-2.6-53.613 37.968c-5.494 21.976 8.172 35.9 21.853 44.045a77.939 77.939 0 0 0 33.873 10.537c33.129 2.578 138.487 9.554 250.6 4.176 47.525-16.378 45.068-80.485-7.7-96.725z" fill="#94b281"/><path d="m100.034 303.9h224.731c36.361 9.418 47.193 41.931 29.9 77.481-67.162 3.986-182.341 8.082-261.611-3.878 0 0-23.908-13.471-21.735-41.726s28.715-31.877 28.715-31.877z" fill="#94b281"/><path d="m114.243 379.591c52.269 2.93 170.337 7.623 281.157-1.514a2.838 2.838 0 0 1 1.053 5.547c-44.2 13.086-149.3 35.062-283.044 1.563a2.842 2.842 0 0 1 .834-5.596z" fill="#637f4a"/><path d="m409.981 377.26c4.993-1.291 26.21-8.6 24.162-39.312-2.32-34.775-33.9-34.051-33.9-34.051h-75.478c9.238 5.869 25.214 19.353 25.214 42.464 0 23.526-9.916 36.105-15.395 41.261a24.6 24.6 0 0 1 -3.536 2.853s33.56 15.065 33.56 44.143c0 15.731-9.82 29.9-18.837 39.608 23.164-1.111 46.615-2.749 69.778-5.063 0 0 47-5.153 46.27-55.143-.664-45.792-44.482-38.335-51.838-36.76z" fill="#637f4a"/><g fill="#31313f"><path d="m229.085 41.149-8.771 2.332a14.069 14.069 0 0 0 -10.5 13.58 13.721 13.721 0 0 0 9.908 13.5 22.146 22.146 0 0 0 6.253.867 28.994 28.994 0 0 0 6.7-.828c7.49-1.785 11.112-6.032 12.833-9.281a13.755 13.755 0 0 0 -1.469-15.184 14.39 14.39 0 0 0 -14.954-4.986zm6.691 15.024c-.968 1.831-2.82 3.05-5.659 3.725a14.3 14.3 0 0 1 -7.307.102 2.688 2.688 0 0 1 -2-2.806 3.1 3.1 0 0 1 2.334-3.086l8.77-2.332a3.356 3.356 0 0 1 3.51 1.2 2.816 2.816 0 0 1 .352 3.197z"/><path d="m452.265 378.791c-6.74-5.142-14.718-7.35-22.059-8.109 5.88-6.809 10.482-17.24 9.424-33.1-1.287-19.293-10.947-29.726-21.181-34.871 20.663-26.337 57.818-88.963 23.785-167.63-14.157-32.724-39.824-59.846-75.163-79.808a5.529 5.529 0 0 0 -1.19-.664 252.068 252.068 0 0 0 -35.595-16.237c-38.708-14.249-72.034-17.072-76.7-17.409-4.849-1.164-39.536-8.718-58.576 8.268a51.772 51.772 0 0 1 -11.922 8.184l-13.456 6.511c-.08.039-.16.08-.238.123-.867.472-21.209 11.875-19.644 37.68a33.206 33.206 0 0 0 11.948 23.524c-.023.016-.047.028-.07.044-12.148 8.478-23.377 11.694-33.365 9.56-13.123-2.8-20.107-14.152-20.217-14.334a5.5 5.5 0 0 0 -9.469 5.6 43.733 43.733 0 0 0 7.905 9.3 21 21 0 0 1 -10.5-2.2 5.5 5.5 0 0 0 -5.276 9.651 33.081 33.081 0 0 0 14.622 3.6 24.515 24.515 0 0 0 12.744-3.437 39.867 39.867 0 0 0 7.72 2.535 40.427 40.427 0 0 0 8.646.928c10.64 0 21.866-4.08 33.485-12.187a12.1 12.1 0 0 1 7.687-2.135 33.7 33.7 0 0 0 7.622.878h93.294a103.176 103.176 0 0 1 54.967 15.713c.091.131.163.27.267.4 20.993 25.167 40.041 65.373 11.572 113.99-14.36 24.517-35.332 42.819-62.332 54.399a5.5 5.5 0 0 0 -1.364.839h-106.753c-26.126-13.923-58.866-41.362-66.72-93.059a19.775 19.775 0 0 0 -6.546-11.965 19.618 19.618 0 0 0 -31.934 10.127c-5.417 22.352-9.907 64.229 18.227 99.638-9.344 5.25-18.767 15.217-20.074 32.215a48.658 48.658 0 0 0 13.357 37.779 67.931 67.931 0 0 0 -11.024 2.97c-17.669 6.439-29.453 19.59-34.069 38.033-5.066 20.267 3.363 37.594 24.375 50.1a83.873 83.873 0 0 0 36.26 11.294c25.01 1.946 88.249 6.179 164.367 6.179 49.246 0 103.889-1.773 157.042-7.082a65.4 65.4 0 0 0 25.793-9.674c11.8-7.631 25.787-22.676 25.376-51.017-.224-15.872-5.29-27.698-15.048-35.144zm-266.125-276.73a44.51 44.51 0 0 1 -7.23-.56c-.412-.071-.824-.1-1.236-.154a22.413 22.413 0 0 1 -16.947-20.285 29.673 29.673 0 0 1 13.848-27.31l13.3-6.435a62.541 62.541 0 0 0 14.454-9.878c15.679-13.987 48.706-5.777 49.033-5.694a5.418 5.418 0 0 0 1.029.162 293.657 293.657 0 0 1 74.094 16.793 242.725 242.725 0 0 1 32.421 14.644c.4 2.944.3 6.153-1.414 8.071-2.364 2.639-7.412 2.707-9.164 2.508a5.5 5.5 0 0 0 -1.344 10.918 23.091 23.091 0 0 0 2.771.151 27.566 27.566 0 0 0 5.3-.511c.535 2.907.3 5.308-.744 7.154-2.144 3.794-7.308 4.728-7.482 4.759a5.5 5.5 0 0 0 1.649 10.875 23.664 23.664 0 0 0 12.313-6.173 26.243 26.243 0 0 0 7.034 1.012 17.234 17.234 0 0 0 14.636-7.224 5.5 5.5 0 1 0 -8.937-6.412c-1.889 2.628-4.924 2.903-7.498 2.528a26.107 26.107 0 0 0 -.9-11.676c.166-.167.334-.327.5-.5a17.161 17.161 0 0 0 4.21-9.089c24.707 15.487 48.506 37.807 62.31 69.714 33.125 76.586-6.246 137.02-24.828 159.551a37.015 37.015 0 0 0 -6.518-.613c-.21 0-.419 0-.624.006h-31.976a105.082 105.082 0 0 0 10.407-14.861 5.538 5.538 0 0 0 .874-1.555 109.162 109.162 0 0 0 13.326-44.924 5.452 5.452 0 0 0 .109-1.395 136.809 136.809 0 0 0 -1.744-31.932c-4.123-24.5-14.1-45.927-29.649-63.669a112.78 112.78 0 0 0 -85-38zm175.731 56.449a118.134 118.134 0 0 1 18.453 47.045 130.153 130.153 0 0 1 1.84 25.99c-10.911 1.923-17.019-3.813-18.789-5.836a97.65 97.65 0 0 0 -1.504-67.199zm-9.051 90.208a129.33 129.33 0 0 0 6.247-12.059 29.789 29.789 0 0 0 18.593 6.341 34.545 34.545 0 0 0 3.555-.192 95.278 95.278 0 0 1 -10.6 32.749c-14.956 4.63-25.874-3.377-30.786-8.186a142.637 142.637 0 0 0 12.991-18.653zm-20.357 26.888c6.321 6.045 16.632 12.324 29.361 12.324.243 0 .49-.012.735-.016a95.785 95.785 0 0 1 -8.119 9.244 5.413 5.413 0 0 0 -.9 1.239h-50.019a139.445 139.445 0 0 0 28.942-22.791zm-254.09-69.513a8.381 8.381 0 0 1 5.718-6.123 8.593 8.593 0 0 1 8.313 1.708 8.764 8.764 0 0 1 2.884 5.312c3.9 25.663 13.959 48.248 29.9 67.129a139.71 139.71 0 0 0 26.69 24.281h-51.844a5.424 5.424 0 0 0 -.743.051c-.81.111-1.684.274-2.6.481-26.245-30.648-24.506-67.311-18.318-92.839zm-1.573 130.107c1.7-22.053 20.811-26.289 23.673-26.8h299.89c1.059-.042 26.344-.27 28.291 28.918.825 12.366-2.348 21.766-9.433 27.939a27.363 27.363 0 0 1 -10.476 5.645c-.171.037-.326.072-.462.1h-197.06a23.169 23.169 0 0 0 .461-2.6c.038-.337.058-.674.082-1.011 6.595-1.753 15.66-6.872 16.017-17.645a5.5 5.5 0 1 0 -10.994-.365c-.138 4.17-4.036 6.161-6.787 7.055a35.826 35.826 0 0 0 -5.456-9.14c.124-.5.237-1.012.315-1.541.949-6.39-1.851-12.743-8.324-18.884a5.5 5.5 0 0 0 -7.57 7.981c2.546 2.416 5.484 5.983 5.018 9.257-.5 3.508-4.66 6.371-6.226 7.18a5.5 5.5 0 0 0 4.952 9.822 27.051 27.051 0 0 0 5.457-3.8 15.667 15.667 0 0 1 2.595 9.777 13.215 13.215 0 0 1 -1.073 3.912h-105.052c-4.295-2.888-19.462-14.656-17.838-35.8zm338.2 127.49c-17.978 1.8-36.129 3.181-54.185 4.23a25.4 25.4 0 0 0 3.578-10.935c.029-.361.04-.723.053-1.084 6.611-1.978 15.648-7.452 15.648-18.373a5.5 5.5 0 0 0 -11 0c0 4.319-3.989 6.491-6.773 7.486a36.247 36.247 0 0 0 -5.883-9.165c.113-.524.211-1.056.274-1.607.744-6.484-2.3-12.81-9.05-18.8a5.5 5.5 0 0 0 -7.3 8.227c2.679 2.378 5.795 5.919 5.428 9.29-.392 3.61-4.542 6.674-6.113 7.553a5.5 5.5 0 0 0 5.274 9.653 27.344 27.344 0 0 0 5.461-4.092 16.015 16.015 0 0 1 3.025 9.961c-.5 6.885-6.593 11.622-6.748 11.74a5.481 5.481 0 0 0 -.966.952c-111.381 5.364-216.179-1.516-250.129-4.158a72.825 72.825 0 0 1 -31.487-9.778c-16.649-9.915-23.153-22.69-19.33-37.99 7.975-31.9 38.983-33.845 46.409-33.845.63 0 1.09.014 1.352.025 39.337 5.908 87.634 7.878 134.581 7.878 93.192 0 180.987-7.763 182.306-7.882.044 0 .088-.013.133-.018s.089-.011.134-.018.12-.013.18-.023c.029 0 .325-.061.825-.184 2.992-.675 22.609-4.609 34.929 4.826 6.917 5.3 10.516 14.227 10.694 26.538.641 44.245-39.669 49.403-41.32 49.593z"/><path d="m121.532 410.768a30.231 30.231 0 0 0 -7.784-12.777 5.5 5.5 0 0 0 -7.557 7.992c1.405 1.329 5.344 6.081 5.043 10.361-.059.845-.24 3.419-4.446 6.4a5.5 5.5 0 0 0 6.363 8.973 21.736 21.736 0 0 0 7.616-8.871 9.974 9.974 0 0 1 4.2 5.135c1.02 3.747-2.015 8.306-4.741 11.472a5.5 5.5 0 1 0 8.335 7.178c6.523-7.575 8.877-14.849 7-21.62-2.328-8.378-10.322-12.666-14.029-14.243z"/></g></svg>