<svg id="icons" height="512" viewBox="0 0 500 500" width="512" xmlns="http://www.w3.org/2000/svg"><path d="m158.022 198.577 11.713 9.451q9.735-6.864 19.181-13.236l.362-21.437 13.109 12.527c16.647-10.8 32.492-20.229 47.351-27.99 0 0-24.527-40.63-81.317-7.849s-46.632 93.264-46.632 93.264q17.244-13.147 33.836-25.189z" fill="#637f4a"/><path d="m87.161 104.334s124.66-94.187 155.951 45.857c-52.684-22.507-104.761-38.767-155.951-45.857z" fill="#94b281"/><path d="m237.59 157s55.953 17.246 116.9 64.489c0 0 17.544-59.411-37.86-78.341s-79.04 13.852-79.04 13.852z" fill="#637f4a"/><path d="m317.964 92.766 20.806 25.661c48.084-13.193 74.816-13.862 74.816-13.862s-28.164-69.025-105.269-49.633-68.88 99.266-68.88 99.266a762.351 762.351 0 0 1 76.411-28.991z" fill="#94b281"/><path d="m243.156 144.509a15.166 15.166 0 0 1 17.315 6.535 201.174 201.174 0 0 1 20.336 45.035c-.747 3.943.531 8.013 3.415 12.184a204.809 204.809 0 0 1 5.808 59.055c-1.535 3-1.7 7.157-.93 12.1a215.243 215.243 0 0 1 -5.715 31.294l-65.561 1.846s8.873-17.283 15.467-43.643c2.6-3.588 3.807-7.371 2.586-11.494a218.463 218.463 0 0 0 4.376-46.781 16.312 16.312 0 0 0 -.567-11.519 170.375 170.375 0 0 0 -6.631-35.615 15.212 15.212 0 0 1 10.101-18.997z" fill="#e57e62"/><path d="m343.459 339.475-185.437-3.122c-56.104 28.52-104.076 76.847-104.076 76.847l370.982-1.659c-23.877-28.552-57.558-56.81-81.469-72.066z" fill="#ffca94"/><path d="m376.274 409.886s4.423-58.336 69.11-73.533v73.533z" fill="#6980c1"/><path d="m319.92 402.847a58.142 58.142 0 0 1 -40.734.065 69.594 69.594 0 0 0 -24.2-4.893c-15.311 0-26.716 2.079-34.908 4.59a57.822 57.822 0 0 1 -35.853-.6 73.834 73.834 0 0 0 -24.131-3.986c-13.7 0-23.888 2.107-31.336 4.828a58.142 58.142 0 0 1 -40.734.065 69.594 69.594 0 0 0 -24.2-4.893c-38.681 0-49.378 16.8-49.378 16.8v39.168h471.11v-42.7a74.087 74.087 0 0 0 -42.456-13.272c-14.505 0-25.075 1.866-32.621 4.2a56.535 56.535 0 0 1 -35.16-.236 73.861 73.861 0 0 0 -24.058-3.961c-13.704-.003-23.893 2.104-31.341 4.825z" fill="#a1b7ec"/><path d="m158.022 336.353s5.7-4.353 31.559 16.248c15.629 12.45 37.982 7.29 53.223 1.258a47.861 47.861 0 0 1 32.9-.838c16.362 5.5 42.848 8.659 67.759-13.546a526.473 526.473 0 0 0 -49.223-29.648 92.935 92.935 0 0 0 -78.021-3.706 364.565 364.565 0 0 0 -58.197 30.232z" fill="#94b281"/><path d="m450.884 392.9v-56.546a5.5 5.5 0 0 0 -6.757-5.354c-28.053 6.59-45.413 21.006-56.12 35.543a363.941 363.941 0 0 0 -41.487-31.637 537.382 537.382 0 0 0 -49.733-29.951c-1.891-.99-3.809-1.906-5.746-2.765a211.879 211.879 0 0 0 -9.417-120.39 441.5 441.5 0 0 1 69.494 44.033 5.5 5.5 0 0 0 8.644-2.789 88.161 88.161 0 0 0 2.014-34.432c-2.54-17.224-12.127-40-43.37-50.671a123.878 123.878 0 0 0 -12.719-3.617c3.968-1.337 7.919-2.642 11.82-3.877a5.5 5.5 0 0 0 3.83-4.886l1.2-18.424 11.96 14.75a5.494 5.494 0 0 0 5.727 1.84c46.715-12.818 73.24-13.661 73.5-13.668a5.5 5.5 0 0 0 4.955-7.576 102.239 102.239 0 0 0 -25.159-34.117c-16.209-14.414-44.378-29.373-86.544-18.766-44.609 11.219-62.258 41.577-69.1 66.653-10.617-23.42-25.963-38.5-45.783-44.923-48.693-15.776-105.839 26.795-108.247 28.616a5.5 5.5 0 0 0 2.561 9.836 502.489 502.489 0 0 1 67.114 14.206 5.458 5.458 0 0 0 .651.186q16.929 4.777 34.52 10.853a111.2 111.2 0 0 0 -23.021 10.253c-31.033 17.914-42.8 43.831-47.212 62.419-4.762 20.07-2.2 35.857-2.093 36.519a5.5 5.5 0 0 0 8.759 3.463c11.737-8.949 23.085-17.4 33.727-25.108a5.5 5.5 0 0 0 2.232-3.785l1.191-9.712 4.006 3.233a5.5 5.5 0 0 0 6.623.215c6.532-4.606 12.954-9.037 19.086-13.171a5.5 5.5 0 0 0 2.425-4.468l.15-8.871 4.022 3.845a5.5 5.5 0 0 0 6.793.637c8.676-5.626 17.063-10.826 25.026-15.524 12.263 52.837-4.244 103.481-12.9 124.767-1.125.411-2.247.834-3.362 1.287a370.072 370.072 0 0 0 -58.8 30.513c-.017.01-.03.022-.047.032-34.93 17.8-66.61 42.925-87.053 60.889-.081.071-.139.156-.214.23-1.419-.1-2.826-.171-4.207-.171-16.991 0-31.081 3.06-41.879 9.1a62.572 62.572 0 0 1 -7.5 3.558v11.692a73.018 73.018 0 0 0 12.867-5.649c6.282-3.512 17.716-7.7 36.511-7.7a63.661 63.661 0 0 1 22.255 4.537 64.029 64.029 0 0 0 44.568-.043c8.16-2.982 18.067-4.494 29.448-4.494a68.582 68.582 0 0 1 22.344 3.687 63.118 63.118 0 0 0 39.252.662c9.413-2.886 20.615-4.349 33.3-4.349a63.661 63.661 0 0 1 22.255 4.537 64.029 64.029 0 0 0 44.568-.043c8.16-2.982 18.068-4.494 29.448-4.494a68.59 68.59 0 0 1 22.277 3.664 61.9 61.9 0 0 0 38.564.288c8.487-2.622 18.916-3.952 31-3.952a68.148 68.148 0 0 1 30.295 6.993 60.5 60.5 0 0 0 12.166 4.38v-11.393a48.829 48.829 0 0 1 -7.318-2.858 78.749 78.749 0 0 0 -27.36-7.742zm-205.433-189.7a177.063 177.063 0 0 0 -7.131-41.272 9.683 9.683 0 0 1 17.471-7.989 194.993 194.993 0 0 1 19.084 41.749 52.447 52.447 0 0 0 -29.424 7.506zm105.426 8.65a452.293 452.293 0 0 0 -42.085-27.75l7.338-9.8a5.5 5.5 0 0 0 -8.8-6.594l-8.184 10.93c-9.039-4.973-17.2-9.062-24.157-12.338a191.892 191.892 0 0 0 -9.833-18.143 20.487 20.487 0 0 0 -1.54-2.141c11.4-3.861 28.295-5.5 51.237 2.339 38.528 13.166 38.347 47.657 36.024 63.491zm-41.217-151.584c29.947-7.531 55.595-2.133 76.239 16.045a94.867 94.867 0 0 1 19.017 23.374c-11.145 1.1-32.945 4.146-64.129 12.5l-18.551-22.885a5.5 5.5 0 0 0 -9.761 3.106l-1.871 28.7c-9.46 3.052-19.121 6.4-28.775 9.979a5.511 5.511 0 0 0 -1.427.785 70.4 70.4 0 0 0 -28.269 7.008 20.612 20.612 0 0 0 -7.055-.373c1.948-22.683 12.69-65.189 64.582-78.239zm-120.934 21.534c20.837 6.763 36.082 25.441 45.314 55.51a53.876 53.876 0 0 0 -22.129-5.575 5.666 5.666 0 0 0 -.527-.23c-16.469-6.192-32.431-11.554-48.015-16.133l5.23-9.972a5.5 5.5 0 1 0 -9.742-5.11l-6.3 12.018c-17.2-4.7-33.967-8.441-50.454-11.237 18.429-11.124 55.461-29.387 86.623-19.271zm14.325 97.107-9.973-9.531a5.5 5.5 0 0 0 -9.3 3.884l-.315 18.577c-4.389 2.978-8.91 6.094-13.5 9.307l-8.488-6.85a5.5 5.5 0 0 0 -8.913 3.611l-2.106 17.167c-7.644 5.557-15.631 11.477-23.85 17.676-.04-17.566 4.921-55.06 44.564-77.943 27.823-16.064 46.991-13.467 59.1-7.051a20.765 20.765 0 0 0 -2.773 16.166c-7.773 4.533-15.967 9.555-24.446 14.989zm34.729 94.593c2.677-1.1 12.433-4.3 28.9-1.1a5.5 5.5 0 1 0 2.1-10.8c-12.431-2.42-21.845-1.679-28.081-.379a228.891 228.891 0 0 0 5.06-44.789 41.527 41.527 0 0 1 32.442-9.4 200.423 200.423 0 0 1 2.418 91.214 98.085 98.085 0 0 0 -49.859-2.326c2.273-6.229 4.745-13.796 7.02-22.42zm-19.5 37.718a87.227 87.227 0 0 1 73.4 3.483c17.731 9.282 34.03 19.619 42.516 25.194-20.769 15.124-42.042 12.852-56.749 7.913a53.507 53.507 0 0 0 -36.672.937c-14.388 5.7-34.357 10.241-47.773-.445-8.673-6.91-15.525-11.37-20.936-14.1a351.814 351.814 0 0 1 46.219-22.983zm99.748 86.464a53.035 53.035 0 0 1 -36.908.084 74.509 74.509 0 0 0 -26.14-5.246c-13.774 0-26.062 1.626-36.521 4.832a52.2 52.2 0 0 1 -32.452-.547 79.538 79.538 0 0 0 -25.919-4.285c-12.673 0-23.85 1.737-33.223 5.162a53.035 53.035 0 0 1 -36.908.084c-2.714-1.025-5.386-1.882-8.019-2.608 19.817-16.868 47.762-38.168 78.142-53.678 1.373.1 8.368 1.324 26.069 15.424 8.138 6.482 17.68 8.85 27.279 8.85 11.081 0 22.237-3.156 31.4-6.78a42.482 42.482 0 0 1 29.122-.738c14.792 4.968 43.056 9.736 69.927-11.921a368.058 368.058 0 0 1 38.1 29.57 95.364 95.364 0 0 0 -8.372 19.795 79.868 79.868 0 0 0 -22.349-3.16c-12.672-.001-23.85 1.736-33.223 5.161zm90.816-.72a52.021 52.021 0 0 1 -24.653 1.65c5.093-17.482 18.809-43.9 55.688-55.089v49.043c-11.838.225-22.279 1.69-31.03 4.395z" fill="#31313f"/></svg>