<svg id="icons" height="512" viewBox="0 0 500 500" width="512" xmlns="http://www.w3.org/2000/svg"><path d="m14.706 466.16 80.133-74.379 122.678-120.745 146.826-150.69 112.051-105.66 8.9 26.451-191.466 182.567-128.473 135.235-132.337 126.335z" fill="#9b4036"/><path d="m22.147 313.43a98.337 98.337 0 0 0 51.166-48.411 3.673 3.673 0 0 1 6.819.416c2.259 7.091 4.806 18.685 4.806 34.91 0 0 98.536-5.01 136.409 96.137-15.588 33.08-37.861 57.431-70.6 68.121-38.268-20.111-76.771-59.663-85.246-137.35 0 0-25.182 1.147-43.507-7.1a3.668 3.668 0 0 1 .153-6.723z" fill="#a1b7ec"/><path d="m178.672 423.726s-35.9 4.113-35.589-36.16a5.258 5.258 0 0 1 4.884-5.212c9.893-.659 32.546 1.129 39.773 29.746z" fill="#6980c1"/><path d="m150.753 464.6c42.732 22.456 85.169 20.674 85.169 20.674-.281-36.219-5.8-65.354-14.577-88.791-54.745 4.302-67.752 44.174-70.592 68.117z" fill="#a1b7ec"/><path d="m243.363 82.813a98.334 98.334 0 0 0 51.166-48.413 3.673 3.673 0 0 1 6.819.415c2.259 7.092 4.806 18.686 4.806 34.911 0 0 98.536-5.01 136.409 96.137-15.588 33.079-37.861 57.43-70.6 68.121-38.263-20.109-76.763-59.661-85.242-137.348 0 0-25.182 1.147-43.507-7.1a3.668 3.668 0 0 1 .149-6.723z" fill="#a1b7ec"/><path d="m399.889 193.108s-35.9 4.114-35.59-36.16a5.258 5.258 0 0 1 4.884-5.212c9.893-.658 32.547 1.129 39.773 29.746z" fill="#6980c1"/><path d="m371.969 233.983c42.732 22.456 85.169 20.674 85.169 20.674-.281-36.22-5.8-65.354-14.577-88.792-54.743 4.303-67.752 44.175-70.592 68.118z" fill="#a1b7ec"/><path d="m369.2 330.165a98.347 98.347 0 0 0 -51.167 48.411 3.673 3.673 0 0 1 -6.819-.415c-2.258-7.092-4.806-18.686-4.806-34.911 0 0-98.535 5.011-136.408-96.137 15.588-33.079 37.861-57.43 70.6-68.12 38.267 20.11 76.771 59.663 85.246 137.349 0 0 25.182-1.146 43.506 7.1a3.667 3.667 0 0 1 -.152 6.723z" fill="#a1b7ec"/><path d="m212.675 219.87s35.9-4.114 35.59 36.16a5.259 5.259 0 0 1 -4.885 5.212c-9.892.659-32.546-1.129-39.772-29.746z" fill="#6980c1"/><path d="m240.6 179c-42.732-22.457-85.169-20.675-85.169-20.675.281 36.22 5.8 65.355 14.577 88.792 54.738-4.307 67.746-44.179 70.592-68.117z" fill="#a1b7ec"/><g fill="#31313f"><path d="m9.208 466a5.5 5.5 0 0 0 1.526 3.966l18.312 19.114a5.5 5.5 0 0 0 7.77.173l62.432-59.6a156.165 156.165 0 0 0 48.944 39.819c.02.011.041.017.061.027 37.741 19.815 74.778 21.317 85.119 21.317 1.584 0 2.542-.036 2.781-.046a5.5 5.5 0 0 0 5.269-5.537c-.268-34.41-5.284-64.9-14.908-90.627-.006-.017-.01-.034-.016-.052-8.945-23.888-21.232-41.95-34.56-55.611l20.994-22.1a144.862 144.862 0 0 0 37.486 21.4 156.22 156.22 0 0 0 50.588 10.509c.946 26.621 8.522 40.016 8.866 40.609a5.5 5.5 0 0 0 4.758 2.744c.152 0 .305-.007.457-.019a5.5 5.5 0 0 0 4.694-3.55c16.656-44.421 57.819-55.548 58.219-55.652a5.5 5.5 0 0 0 1.82-9.82c-15.03-10.631-38.707-12.15-49.095-12.273-4.275-33.4-14.49-62.189-30.37-85.71l23.318-22.233a156.621 156.621 0 0 0 45.738 36.006c.019.011.04.017.06.027 37.739 19.819 74.776 21.319 85.117 21.319 1.584 0 2.543-.035 2.781-.045a5.5 5.5 0 0 0 5.269-5.538c-.267-34.41-5.283-64.9-14.908-90.626-.006-.017-.01-.035-.016-.052-7.921-21.153-18.466-37.725-30.03-50.732l71.4-68.086a5.5 5.5 0 0 0 1.418-5.734l-8.9-26.452a5.5 5.5 0 0 0 -8.986-2.247l-82.963 78.232a145.927 145.927 0 0 0 -27.508-14.182 156.235 156.235 0 0 0 -50.587-10.509c-.946-26.621-8.522-40.016-8.866-40.609a5.5 5.5 0 0 0 -9.909.825c-16.657 44.418-57.815 55.545-58.217 55.649a5.5 5.5 0 0 0 -1.82 9.821c15.03 10.63 38.707 12.15 49.1 12.272 3.487 27.253 10.934 51.431 22.177 72.19l-24.877 25.523a158.453 158.453 0 0 0 -35.991-25.78l-.068-.031c-43.519-22.845-86.1-21.342-87.892-21.267a5.5 5.5 0 0 0 -5.269 5.537c.267 34.411 5.283 64.9 14.908 90.627.006.018.01.035.016.052a163.573 163.573 0 0 0 23.555 42.93l-24.865 24.478a146.414 146.414 0 0 0 -22.611-11.09 156.211 156.211 0 0 0 -50.587-10.51c-.946-26.621-8.523-40.015-8.866-40.608a5.5 5.5 0 0 0 -9.91.825c-16.656 44.417-57.814 55.544-58.216 55.649a5.5 5.5 0 0 0 -1.82 9.82c15.03 10.63 38.706 12.15 49.094 12.273 3.132 24.472 9.46 46.461 18.857 65.727l-68.517 63.6a5.5 5.5 0 0 0 -1.756 3.868zm221.127 13.744c-12.039-.372-42.586-2.916-73.605-18.268 3.911-25.182 17.971-54.054 60.894-59.1 7.759 22.276 12.027 48.258 12.711 77.367zm-65.365-63.244c-10.972-3.893-16.482-13.523-16.39-28.727 7.3-.516 22.431.566 30.466 16.481a68.943 68.943 0 0 0 -14.076 12.246zm286.582-167.374c-12.039-.372-42.587-2.916-73.606-18.268 3.911-25.182 17.971-54.054 60.895-59.1 7.759 22.276 12.027 48.259 12.711 77.368zm-65.362-63.248c-10.963-3.906-16.476-13.531-16.395-28.694 7.325-.474 22.475.672 30.469 16.451a68.921 68.921 0 0 0 -14.074 12.243zm87.73-161.3 5.045 14.994-68.894 65.691a141.484 141.484 0 0 0 -11.309-9.815zm-181.731 71.462a5.5 5.5 0 0 0 -5.715-4.9c-.252.011-20.622.822-36.943-4.985a103.076 103.076 0 0 0 47.844-45.155 116.912 116.912 0 0 1 3.279 28.726 5.506 5.506 0 0 0 5.773 5.493c.237-.011 24.163-1.024 52.157 9.935 35.167 13.768 60.773 39.342 76.208 76.059a89.915 89.915 0 0 0 -24.893 7.1c-11.553-22.392-35.133-23.916-46.615-21.353a5.5 5.5 0 0 0 -4.284 4.986c-1.906 27.076 10.278 38.352 20.412 43.044a89.46 89.46 0 0 0 -11.64 30.343c-43.596-25.683-69.02-69.133-75.583-129.293zm17.6 88.173c1.257 1.979 2.538 3.934 3.872 5.841q1.5 2.141 3.063 4.215l-22.9 21.832q-3.363-4.29-7.006-8.315zm-148.777-20.361c12.039.372 42.587 2.916 73.606 18.268-3.911 25.182-17.971 54.054-60.895 59.1-7.758-22.276-12.023-48.26-12.711-77.368zm65.37 63.24c10.963 3.9 16.468 13.533 16.386 28.7-7.322.469-22.474-.673-30.467-16.452a68.906 68.906 0 0 0 14.081-12.248zm-48.61 24.671a89.878 89.878 0 0 0 24.894-7.1c9.046 17.534 25.468 22.275 37.675 22.274a41.664 41.664 0 0 0 8.939-.92 5.5 5.5 0 0 0 4.287-4.982c1.9-26.981-10.137-38.3-20.411-43.044a89.478 89.478 0 0 0 11.644-30.346c43.593 25.683 69.017 69.129 75.58 129.294a5.5 5.5 0 0 0 5.714 4.9c.251-.012 20.62-.822 36.944 4.985a103.082 103.082 0 0 0 -47.845 45.154 116.961 116.961 0 0 1 -3.279-28.726 5.506 5.506 0 0 0 -5.772-5.493c-.24.012-24.164 1.024-52.157-9.935-35.172-13.77-60.778-39.344-76.213-76.061zm17.7 48.683q4.461 4.956 9.089 9.233l-20.602 21.691c-3.647-3.2-7.336-6.1-11.023-8.738zm-124.5 26.211a5.513 5.513 0 0 0 -5.718-4.9c-.253.011-20.607.845-36.948-4.982a103.075 103.075 0 0 0 47.852-45.158 116.912 116.912 0 0 1 3.279 28.726 5.5 5.5 0 0 0 5.78 5.493c.233-.012 23.784-1.067 51.733 9.773 35.38 13.723 61.126 39.352 76.624 76.221a89.9 89.9 0 0 0 -24.9 7.105c-11.559-22.4-35.163-23.913-46.61-21.355a5.5 5.5 0 0 0 -4.287 4.981c-1.887 26.815 9.865 38.21 20.407 43.051a89.46 89.46 0 0 0 -11.635 30.336c-43.589-25.681-69.013-69.127-75.576-129.291zm13.839 81.936c2.392 4.167 4.927 8.2 7.637 12.079.036.052.075.1.112.155l-59.37 56.678-10.647-11.115z"/><path d="m189.454 453.019 5.74.048-.048 5.741a5.5 5.5 0 0 0 5.454 5.547h.047a5.5 5.5 0 0 0 5.5-5.454l.048-5.74 5.741.048h.047a5.5 5.5 0 0 0 .046-11l-5.741-.048.049-5.741a5.5 5.5 0 0 0 -5.454-5.547h-.047a5.5 5.5 0 0 0 -5.5 5.454l-.049 5.74-5.741-.048h-.046a5.5 5.5 0 0 0 -.045 11z"/><path d="m200.787 190.916-5.74-.049.048-5.741a5.5 5.5 0 0 0 -5.453-5.546h-.048a5.5 5.5 0 0 0 -5.5 5.453l-.048 5.741-5.741-.049h-.048a5.5 5.5 0 0 0 -.045 11l5.74.049-.048 5.741a5.5 5.5 0 0 0 5.453 5.546h.048a5.5 5.5 0 0 0 5.5-5.453l.048-5.741 5.741.049h.048a5.5 5.5 0 0 0 .045-11z"/><path d="m408.91 220.43 5.74.048-.048 5.741a5.5 5.5 0 0 0 5.453 5.547h.047a5.5 5.5 0 0 0 5.5-5.454l.048-5.74 5.741.048h.047a5.5 5.5 0 0 0 .046-11l-5.741-.048.049-5.741a5.5 5.5 0 0 0 -5.454-5.547h-.047a5.5 5.5 0 0 0 -5.5 5.454l-.049 5.74-5.742-.048a5.5 5.5 0 1 0 -.092 11z"/><path d="m118.319 386.055c1.331-1.468 3.606-2.213 6.761-2.213a5.5 5.5 0 1 0 0-11c-8.047 0-12.61 3.234-15.02 5.947-5.377 6.053-4.6 14.105-4.491 15a5.5 5.5 0 1 0 10.929-1.245c-.11-1.121.002-4.48 1.821-6.489z"/><path d="m141.894 367.326a5.5 5.5 0 0 0 5.465-6.122c-.111-1.125 0-4.484 1.822-6.492 1.331-1.469 3.6-2.213 6.76-2.213a5.5 5.5 0 1 0 0-11c-8.047 0-12.61 3.234-15.019 5.947-5.378 6.053-4.6 14.1-4.492 15a5.528 5.528 0 0 0 5.464 4.88z"/><path d="m109.782 366.324a5.506 5.506 0 0 0 5.465-6.123c-.111-1.124 0-4.483 1.821-6.492 1.331-1.468 3.605-2.213 6.761-2.213a5.5 5.5 0 1 0 0-11c-8.048 0-12.61 3.234-15.02 5.947-5.377 6.053-4.6 14.105-4.492 15a5.529 5.529 0 0 0 5.465 4.881z"/><path d="m343.053 149.988a5.5 5.5 0 0 0 0-11c-8.047 0-12.609 3.234-15.019 5.947-5.378 6.053-4.6 14.1-4.493 15a5.528 5.528 0 0 0 5.465 4.878 5.685 5.685 0 0 0 .648-.038 5.479 5.479 0 0 0 4.817-6.084c-.111-1.125 0-4.484 1.821-6.493 1.331-1.465 3.608-2.21 6.761-2.21z"/><path d="m359.867 133.473a5.5 5.5 0 0 0 5.465-6.123c-.11-1.124 0-4.484 1.822-6.492 1.33-1.469 3.605-2.213 6.76-2.213a5.5 5.5 0 0 0 0-11c-8.047 0-12.609 3.234-15.02 5.947-5.377 6.053-4.6 14.105-4.491 15a5.528 5.528 0 0 0 5.464 4.881z"/><path d="m327.754 132.47a5.5 5.5 0 0 0 5.465-6.122c-.11-1.125 0-4.484 1.822-6.493 1.331-1.468 3.605-2.213 6.76-2.213a5.5 5.5 0 0 0 0-11c-8.047 0-12.609 3.234-15.019 5.947-5.378 6.053-4.6 14.106-4.492 15a5.529 5.529 0 0 0 5.464 4.881z"/><path d="m269.914 276.413c8.047 0 12.609-3.234 15.019-5.946 5.377-6.054 4.6-14.106 4.492-15a5.5 5.5 0 1 0 -10.929 1.245c.11 1.124 0 4.484-1.822 6.492-1.331 1.469-3.6 2.213-6.76 2.213a5.5 5.5 0 0 0 0 11z"/><path d="m239.052 307.757c8.048 0 12.61-3.234 15.02-5.947 5.377-6.053 4.6-14.106 4.491-15a5.5 5.5 0 0 0 -10.929 1.245c.111 1.124 0 4.484-1.822 6.493-1.33 1.468-3.605 2.213-6.76 2.213a5.5 5.5 0 1 0 0 11z"/><path d="m284.563 282.969a5.478 5.478 0 0 0 -4.816 6.084c.11 1.125 0 4.484-1.821 6.493-1.331 1.468-3.606 2.213-6.761 2.213a5.5 5.5 0 1 0 0 11c8.047 0 12.61-3.234 15.02-5.947 5.377-6.053 4.6-14.105 4.491-15a5.519 5.519 0 0 0 -6.113-4.843z"/></g></svg>