<svg id="icons" height="512" viewBox="0 0 500 500" width="512" xmlns="http://www.w3.org/2000/svg"><path d="m131.6 462.342s-106.7-37.494-100.756-133.228c4.235-68.172 42.106-113.126 63.562-133.361a5.456 5.456 0 0 1 9.039 5.253c-4.757 20.04-6.04 49.948 29.079 49.024 45.191-1.189 38.056-61.84 30.326-90.382 0 0-18.433-49.948 40.434-96.328 0 0 12.34-12.738 12.918-28.769a5.45 5.45 0 0 1 9.27-3.653c8.816 8.727 18.366 26.535 9.066 60.369-15.2 55.3.261 102.869 47.83 107.031 40.655 3.557 51.342-48.044 35.4-83.907a5.451 5.451 0 0 1 8-6.746c27.983 18.7 75.279 67.533 48.769 175.313 0 0-22 53.886 20.812 66.968 34.428 10.52 46.554-9.339 49.983-30.2a5.458 5.458 0 0 1 10.132-1.87c9.552 16.887 21.528 48.967 7.671 89.746-20.811 61.246-95.139 56.489-95.139 56.489z" fill="#ffb464"/><path d="m355.047 476.521h-22.747l-14.856-3.489-6.8 3.489h-25.951l-13.769-4.351-9.813 4.351h-18.565l-10.393-4.351-12.185 4.351h-23.581l-12.913-5.643-14.181 5.643h-38.593s-17.013-50.014 26.066-131 53.848-86.588 53.848-86.588l36.616 85.726 16.845-28.859s90.232 76.33 90.972 160.721z" fill="#9b4036"/><path d="m334.361 368.59c-1.076-16.643-1.143-41.155 4.2-66.149l-18.166-7.172s-6.823 27.634-4.942 55.553a374.326 374.326 0 0 0 -29.028-34.9c-3.427 9.009-4.055 22.885 2.509 37.2 21.648 27.673 51.754 72.6 66.117 123.4h23.826s-10.518-39.059-38.046-86.787a48.64 48.64 0 0 1 -6.47-21.145z" fill="#e57e62"/><path d="m215.3 342.419c-9.237 32.9-19.909 82.59-18.911 134.1h-27.096a486.279 486.279 0 0 1 10.07-79.9c5.246-12.658 8.767-25.049 9.46-37a303.529 303.529 0 0 1 19.277-48.55c10.205 1.994 11.065 13.031 7.2 31.35z" fill="#e57e62"/><path d="m222.025 287.441a213.283 213.283 0 0 0 -13.918 23.632 190.5 190.5 0 0 1 7.192 31.346c6.811-24.255 12.843-39.388 12.843-39.388z" fill="#9b4036"/><path d="m226.736 402.744a549.1 549.1 0 0 1 -6.768 73.777h22.578s1.946-14.567 3.718-34.8c.888-26.641-13.148-50.546-19.528-38.977z" fill="#e57e62"/><path d="m246.263 441.726c2.545-29.042 4.734-69.753.3-95.781l-24.535-50.676a745.358 745.358 0 0 1 4.71 107.475c6.407 8.414 15.605 22.624 19.525 38.982z" fill="#9b4036"/><path d="m205.417 264.662s48.168 126.181 55.694 211.859h23.582s-23.482-152.767-62.668-221.7z" fill="#e57e62"/><path d="m124.534 291.4 18.527-8.447a155.791 155.791 0 0 1 12.439 60.372l-18.622 43.7s5.094-53.992-12.344-95.625z" fill="#9b4036"/><path d="m103.507 74.842a38.147 38.147 0 0 0 -17.267 18.137c-3.871 8.384-6.91 20.984-.742 34.965 11.019 24.976 33.792 2.938 33.792 2.938s16.929-17.63 8.1-45.545c-5.081-16.051-15.74-14.615-23.883-10.495z" fill="#ffb464"/><path d="m448.625 220.088c-4.909-11.359-19.941-14.142-28.264-4.985-4.636 5.1-7.484 12.211-3.224 21.472 9.92 21.564 29.039 14.881 33.105 6.023 2.369-5.159 1.97-14.21-1.617-22.51z" fill="#ffb464"/><path d="m286.416 315.929c-5.692-6.041-11.685-11.985-18.009-17.771l-4.332 25.992a369.876 369.876 0 0 1 24.853 28.976 184.689 184.689 0 0 1 -2.512-37.197z" fill="#9b4036"/><path d="m259.743 246.173s-40.613 131.462 50.9 230.348h21.657s-83.195-77.1-54.15-224.933z" fill="#e57e62"/><path d="m109.071 476.521h21.629s-2.5-72.046 61.59-100.969l-1-23.67-29.347 19.9s25.635-76.9 60.082-116.959l-12.818-16.5s-75.413 89.737-100.136 238.198z" fill="#e57e62"/><g fill="#31313f"><path d="m70.686 431.768a173.87 173.87 0 0 0 26.3 19.032l10.125 6.026q-1.858 9.232-3.466 18.792a5.5 5.5 0 0 0 5.425 6.4h269.8a5.5 5.5 0 0 0 5.311-6.93c-.1-.365-.712-2.608-1.91-6.389l13.137-1.856a99.454 99.454 0 0 0 26.615-7.485c22.936-10.229 38.518-27.047 46.314-49.988 11.272-33.174 5.907-60.781-.578-78.1-7.048-18.821-16.78-29.761-17.191-30.217a5.5 5.5 0 0 0 -9.588 3.679c0 10.595-1.712 29.636-13.174 38.119-7.132 5.28-17.513 5.889-30.856 1.812-9.317-2.847-15.584-7.879-19.158-15.383-8.6-18.063 1.729-43.992 1.831-44.246a5.393 5.393 0 0 0 .249-.766c8.527-34.663 10.2-66.272 4.985-93.95-4.22-22.379-12.92-42.236-25.86-59.019-22.106-28.673-48.709-38.287-49.83-38.682a5.5 5.5 0 0 0 -5.967 8.809c16.436 18.784 21.145 52.735 10.283 74.139-4.419 8.7-13.312 18.765-30.638 17.251-16.245-1.421-28.731-8.25-37.107-20.3-12.677-18.23-14.828-47.316-5.9-79.8 8.411-30.6 1.9-49.085-5.048-59.2-7.81-11.376-17.944-15.074-18.371-15.226a5.5 5.5 0 0 0 -7.044 6.967c5.556 16.205-7.976 31.944-9.837 34-31.556 24.993-41.342 51.188-43.989 68.791-2.735 18.186 1.327 31.143 2.04 33.22 6.3 23.377 9.31 56.376-2.876 72.744-5.071 6.81-12.377 10.248-22.337 10.51-10.714.278-17.86-2.448-21.863-8.347-9.081-13.382-.474-41.052 3.607-50.58a5.5 5.5 0 0 0 -8.18-6.7c-.767.529-19 13.262-38.116 38.111-17.624 22.933-39.312 60.926-42.469 111.767-2.422 38.986 13.254 74.601 45.331 102.995zm54.614 39.253h-9.7a569.13 569.13 0 0 1 57.491-166.362c15.388-28.791 29.363-48.485 36.1-57.393l5.776 7.434c-33.257 41.09-57.208 112.248-58.24 115.341a5.5 5.5 0 0 0 8.3 6.291l21.182-14.361.43 10.165c-25.874 12.73-44.635 34.427-54.383 62.969a134.02 134.02 0 0 0 -6.956 35.916zm16.737-126.829c-1.376-15.875-4.381-33.574-10.471-49.949l8.587-3.916a156.367 156.367 0 0 1 9.013 37.773q-3.543 7.675-7.128 16.092zm68.508-48.96a277.925 277.925 0 0 0 -23.878 53.14l-13.727 9.308c6.745-17.583 18.942-46.829 34.189-72.239 1.043 2.95 2.187 6.222 3.417 9.791zm-46.54 175.789h-27.674a123.97 123.97 0 0 1 6.46-32.721c6.6-19.126 17.277-34.425 31.814-45.749a504.943 504.943 0 0 0 -10.599 78.47zm11.029 0a501.131 501.131 0 0 1 12.843-87.121c2.168-1.173 4.379-2.3 6.675-3.338a5.5 5.5 0 0 0 3.233-5.246l-.957-22.658a280.66 280.66 0 0 1 18.454-43.451q1.131 3.393 2.308 6.99c-10.289 30.738-27.008 90.66-26.766 154.82zm40.242 0h-13.448c-.166-48.95 10.136-96.138 18.726-126.893 1.646 33.285 1.881 80.832-5.277 126.893zm27.76-63.1c-1.219 27.031-4.094 52.756-5.344 63.1h-11.281c5.691-37.578 6.607-75.92 5.877-106.893 3.884 13.635 7.671 27.9 11.059 42.214a5.433 5.433 0 0 0 -.31 1.581zm5.734 63.1c.667-5.6 1.676-14.607 2.669-25.488 1.5 8.74 2.724 17.282 3.6 25.488zm17.338 0c-7.391-71.106-40.608-167.221-51.494-197.321 2.117-3.12 4.28-6.129 6.483-9 8.146 15.908 16.207 36.663 24.017 61.87a5.566 5.566 0 0 0 .374.9c1.115 28.111 6.934 64.049 24.766 100.051a5.492 5.492 0 0 0 .095.8c3.849 19.142 6.525 34.55 7.882 42.7zm23.271 0c-.574-3.492-1.474-8.827-2.679-15.566q5.44 7.86 11.823 15.566zm23.687 0c-44.658-49.328-55.5-106.8-56.682-146.534a274.475 274.475 0 0 1 7.216-71.447l8.226 2.42c-13.678 75.329 1.848 131.875 17.5 166.307a218.051 218.051 0 0 0 30.458 49.254zm21.506 0c-4.972-5.121-21.551-23.531-35.46-54.321a243.1 243.1 0 0 1 -18.823-65.595c20.059 24.895 51.411 69.252 67.363 119.916zm24.6 0c-19.258-64.086-62.746-118.63-80.946-139.514q-.559-8.149-.639-16.8a366.576 366.576 0 0 1 33.433 39.377 5.5 5.5 0 0 0 9.917-3.629c-1.283-19.023 1.666-38.158 3.488-47.677l7.833 3.092c-4.568 24.168-4.4 47.432-3.386 63.079a54.442 54.442 0 0 0 7.191 23.536 424.412 424.412 0 0 1 35.383 78.539zm-322.838-141.566c2.974-47.891 23.374-83.753 39.964-105.4a204.574 204.574 0 0 1 21.767-24.175c-3.087 13.19-4.723 30.569 3.339 42.466 6.187 9.13 16.725 13.563 31.265 13.182 13.366-.351 23.753-5.377 30.871-14.937 18.8-25.244 7.145-73.053 4.618-82.381-.038-.143-.09-.306-.141-.446-.042-.117-4.165-11.852-1.492-28.677 3.59-22.6 17.1-43.279 40.163-61.447a5.433 5.433 0 0 0 .546-.494c.686-.707 13.766-14.446 14.475-32.211 7.622 7.7 16.077 23.762 7.526 54.874-9.8 35.64-7.071 68.077 7.475 89 10.183 14.642 25.806 23.278 45.179 24.973 18.294 1.6 32.991-6.65 41.406-23.231 9.847-19.4 9.094-46.56-.445-68.2a117.111 117.111 0 0 1 27.8 26.14c26.541 34.783 32.982 84.155 18.635 142.794-1.481 3.8-11.569 31.353-1.438 52.69 4.9 10.326 13.615 17.464 25.894 21.216 16.861 5.152 30.525 3.977 40.615-3.49 9.9-7.325 14.483-19.228 16.407-30.959a102.818 102.818 0 0 1 6.862 14.828c8.358 22.624 8.459 46.266.3 70.269-6.769 19.922-20.354 34.551-40.379 43.481a88.537 88.537 0 0 1 -23.673 6.639l-15.182 2.141a441.938 441.938 0 0 0 -33.1-71.113 43.378 43.378 0 0 1 -5.743-18.751c-1.03-15.939-1.158-40.092 4.087-64.645a5.5 5.5 0 0 0 -3.36-6.264l-18.166-7.173a5.5 5.5 0 0 0 -7.359 3.8 217.537 217.537 0 0 0 -5.321 40.411 364.965 364.965 0 0 0 -31.872-34.875 315.621 315.621 0 0 1 5.693-46.837 5.5 5.5 0 0 0 -3.845-6.337l-18.405-5.416a5.5 5.5 0 0 0 -6.807 3.653c-.326 1.057-6.281 20.7-8.445 50.4-6.3-17.046-12.732-31.4-19.237-42.847a5.55 5.55 0 0 0 -.406-.6c-.012-.017-.02-.035-.033-.051l-12.822-16.503a5.5 5.5 0 0 0 -8.553-.165c-.785.935-19.474 23.344-41.436 64.368q-2.931 5.476-6.03 11.61a148.624 148.624 0 0 0 -9.494-30.15 5.5 5.5 0 0 0 -7.258-2.662l-18.527 8.447a5.5 5.5 0 0 0 -2.791 7.13c10.375 24.765 12.582 54.152 12.606 74.443a5.5 5.5 0 0 0 .1 1.01 582.7 582.7 0 0 0 -22.645 76.475l-6.907-4.11a162.934 162.934 0 0 1 -24.636-17.816c-29.87-26.438-43.879-58.09-41.645-94.077z"/><path d="m96.648 145a19.787 19.787 0 0 0 3.812.364c11.41 0 21.439-9.353 22.654-10.53.049-.046.1-.094.143-.142.784-.817 19.079-20.339 9.374-51.014-2.543-8.039-6.7-13.321-12.354-15.7-5.579-2.343-12.055-1.687-19.253 1.954a43.782 43.782 0 0 0 -19.777 20.741c-4.246 9.2-7.829 23.515-.781 39.491 3.74 8.475 9.184 13.467 16.182 14.836zm-5.414-49.715a32.728 32.728 0 0 1 14.756-15.535c2.877-1.456 6.952-2.921 10.024-1.629 3.166 1.331 5.081 5.561 6.13 8.875 7.5 23.72-5.628 38.772-6.762 40.013-2.645 2.5-10.505 8.4-16.642 7.192-3.25-.645-6.012-3.5-8.21-8.478-5.391-12.223-2.593-23.298.704-30.438z"/><path d="m435.673 256.5h.009c8.382 0 16.425-4.775 19.558-11.6 3.16-6.881 2.544-17.474-1.566-26.986a22.751 22.751 0 0 0 -17.215-13.467 22.2 22.2 0 0 0 -20.169 6.953c-7.186 7.907-8.661 17.663-4.15 27.471 7.053 15.329 17.767 17.629 23.533 17.629zm-11.243-37.7a11.041 11.041 0 0 1 8.261-3.676 11.955 11.955 0 0 1 1.963.164 11.788 11.788 0 0 1 8.922 6.979c3.133 7.249 3.2 14.7 1.668 18.034-1.146 2.5-5.13 5.191-9.566 5.193-5.481 0-10.163-3.88-13.539-11.219-2.703-5.864-1.974-10.781 2.291-15.475z"/></g></svg>