<svg id="icons" height="512" viewBox="0 0 500 500" width="512" xmlns="http://www.w3.org/2000/svg"><path d="m181.717 397.53s-41.264-39.657 6.251-100.586c0 0 5.967 32.979 26.975 29.311 26.617-4.648 16.887-31.368 14.875-43.084a51.888 51.888 0 0 1 1.115-22.879c3.035-10.756 10.17-24.284 26.6-35.163 0 0-11.567 65.735 31.648 68.344 0 0 24.668-2.79 21.969-36.264 0 0 81.65 64.857 17.545 157.61-42.5 23.543-83.228 31.616-119.437 0-.001 0-10.671 3.096-27.541-17.289z" fill="#ffb464"/><path d="m231.2 422.973s-28.334-26.609-11.566-61.483a11.072 11.072 0 0 1 18.9-1.619c3.7 4.989 9.835 8.731 19.984 7.193 11.928-1.807 18.921-13.934 18.333-27.19a10.319 10.319 0 0 1 16.87-8.328c19.106 15.875 35.778 45.638 1.343 95.741-.001 0-39.942 5.004-63.864-4.314z" fill="#fff"/><path d="m40.912 63.884 15.374-3.66 43.191 165.446 42.46 168.374-26.354 5.124s-15.373-110.541-33.675-164.714c0 0-32.943-125.914-40.996-170.57z" fill="#9b4036"/><path d="m442.814 134.162 19.766 140.556 17.437 124.45h-23.293s-10.981-129.575-28.551-224.743v-40.263z" fill="#9b4036"/><path d="m485.294 127.974-8.445 17.934-163.584 1.74s-198.172-2.007-291.382 1.652l-7.177-21.322s113.478.129 192.067-2.307 224.095-1.353 278.521 2.303z" fill="#9b4036"/><path d="m415.185 169.573-9.485 207.397 18.37 4.74c-2.212-52.451 5.114-139.78 12.435-209.876-1.794-13.862-1.052-26.652 4.09-37.585 4.788-42.342 8.723-71.93 8.723-71.93h-21.145l-8.464 69.9c.978 12.211.069 23.326-3.952 32.636z" fill="#e57e62"/><path d="m83.7 62.319 12.932 9.316s-5.522 29.035-14.166 71.189a107.5 107.5 0 0 0 -6.658 32.056c-5.97 28.391-12.855 60.12-20.138 91.785-21.426 93.156-14.758 170.493-14.758 170.493l-11.562-1.8a16.908 16.908 0 0 1 -14.279-17.507c3.641-78.312 33.236-227.1 33.236-227.1l7.28-26.413a97.837 97.837 0 0 0 9.066-32.9z" fill="#e57e62"/><path d="m179.2 93.524a59.08 59.08 0 0 0 -25.483 31.158 42.133 42.133 0 0 0 -2.327 18.683c2.6 21.3 32.725 49.347 87.266 31.686 46.465-15.046 71.441-9.045 84.885-34.369a20.654 20.654 0 0 0 -6.5-26.667 83.433 83.433 0 0 0 -16.973-9.174 58.32 58.32 0 0 1 -14.453-8.193c-15.026-11.604-54.757-34.413-106.415-3.124z" fill="#de5050"/><path d="m343.2 374.541c6.332-13.176 14.881-28.191 25.619-41.073a29.278 29.278 0 0 1 35.338-7.665c11.672 5.732 26.459 15.01 38.5 29.088 24 40.721 3.009 64.685-26.165 85.6-48.612 3.456-68.987-22.791-73.292-65.95z" fill="#abbbc4"/><path d="m192.644 229.492a13.14 13.14 0 0 0 -11.737-.573c-5.854 2.458-14.877 8.266-10.421 19.777 2.305 5.954 6.344 8.371 10.564 9.029 9.677 1.508 18.093-6.645 17.683-16.431-.192-4.569-1.666-9.194-6.089-11.802z" fill="#a88e8e"/><path d="m429.542 131.444-9.833.775-3.952 32.636 20.752 6.979c1.221-11.689 2.441-22.9 3.617-33.384z" fill="#9b4036"/><path d="m75.811 174.88c2.449-11.64 4.744-22.714 6.851-33l-1.88-1.921s-13.973-4.005-17.2-4.638l-8 29.017z" fill="#9b4036"/><path d="m422.436 109.7a36.473 36.473 0 0 0 -13.491 14.664l40.377 41.336c7.509-3.212 11.253-10.579 12.658-20.527 0-.003-12.88-19.473-39.544-35.473z" fill="#565663"/><path d="m42.681 127.932 8.92-14.776s25.257 2.769 45.864 34.444c-.311 9.967-4.814 16.985-12.73 21.6 0 0-10.059-24.672-42.054-41.268z" fill="#565663"/><path d="m323.544 140.682a20.64 20.64 0 0 0 -5.369-25.806c-2.485 18.5-28.223 14.6-28.223 14.6l-29.082-5.115c-27.837-.932-37.953 15.432-41.608 26.522a22.294 22.294 0 0 1 -17.519 14.943c-18.675 3.108-36.263-3.62-43.654-6.54 11.938 16.283 39.243 29.147 80.57 15.765 46.465-15.046 71.441-9.045 84.885-34.369z" fill="#962e2e"/><circle cx="199.234" cy="134.249" fill="#962e2e" r="5.712"/><circle cx="176.203" cy="131.444" fill="#962e2e" r="5.712"/><circle cx="190.597" cy="115.03" fill="#962e2e" r="5.712"/><path d="m256.534 126.216s-21.193 6.928-28.121 37.087c-2.6 11.309.019 18.779 4.3 23.7a21.992 21.992 0 0 0 26.6 4.8c9.1-4.685 21.879-14.047 45.225-15.883 0 0 13.485-2.142 11.789-14.82 0 0-6.736-15.83-33.327-5.053 0 0 11.427-9.048 6.944-26.573s-33.41-3.258-33.41-3.258z" fill="#de5050"/><path d="m276.035 166.242a5.5 5.5 0 0 1 -1.1-10.888c9.664-1.983 14.524-9.864 16.9-16.127a5.5 5.5 0 1 1 10.285 3.9c-4.741 12.5-13.61 20.67-24.973 23a5.493 5.493 0 0 1 -1.112.115z" fill="#962e2e"/><path d="m424.149 419.981c-9.767 6.673-23.066 2.6-28.119-8.1-11.282-23.881-37.575-33.605-52.825-37.342a260.528 260.528 0 0 0 -13.492 33.631l14.654 51.714c53.348 16.512 91.095-4.717 91.095-4.717a101.718 101.718 0 0 0 13.888-8.719 36.015 36.015 0 0 0 13.827-21.662 59.923 59.923 0 0 0 1.532-12.012c-.693-24.64-9.791-43.359-21.63-57.383 4.98 28.492-.665 52.109-18.93 64.59z" fill="#72848c"/><path d="m70.073 385.96a133.556 133.556 0 0 0 -23.134 22.192s-11 43.589 39.574 58.023c59.6 17.012 82.921-8.605 84.657-15.072 6.231-23.225-14.162-65.143-40.219-78.171s-60.878 13.028-60.878 13.028z" fill="#abbbc4"/><path d="m359.8 443.635q-.1-.678-.212-1.347c-4.553-28.467-12.208-43.2-45.671-54.629-27.526-9.4-50.965 16.488-60.989 43.223 1.562 30.929 16.11 49.181 52.141 46.463 36.306 1.442 55.598-9.059 54.731-33.71z" fill="#abbbc4"/><path d="m277.663 485.3h51.885a29.82 29.82 0 0 0 27.029-16.809c3-6.335 4.811-14.562 3.223-24.854-.071-.455-.144-.9-.216-1.346-9.475 24.649-39.052 28.3-59.7 27.6a23.8 23.8 0 0 1 -21.827-16.97c-4.779-15.537-21.139-25.633-21.139-25.633l-3.986 3.6a83.485 83.485 0 0 0 -4.722 18.521s-5.667 28.167 29.453 35.891z" fill="#72848c"/><path d="m149.24 455.208a16.415 16.415 0 0 1 -15.056 10.7c-26.87.471-88.721-4.244-87.244-57.76-9.8 12.006-19.02 28-19.084 45.783-.115 31.794 47.582 31.355 47.582 31.355h59.587a29.59 29.59 0 0 0 20.779-8.384 57.179 57.179 0 0 0 15.366-25.8 40.219 40.219 0 0 0 .891-14.026l-3.471-8.448s-12.584 8.626-19.35 26.58z" fill="#72848c"/><path d="m264.105 456.889a33.6 33.6 0 0 0 -1.323-17.206 57.06 57.06 0 0 0 -25.349-31.343 46.778 46.778 0 0 0 -48.823 1.046 75.446 75.446 0 0 0 -6.389 4.543c-13.438 28.631-11.131 50.1 22.724 57.222 24.355 8.214 43.862 2.875 59.16-14.262z" fill="#abbbc4"/><path d="m229.8 485.291a34.913 34.913 0 0 0 34.293-28.4c-8.457 5.371-21.823 9.568-42.96 9.288-44.323-.587-42.02-36.58-38.91-52.245-9.371 7.438-18.221 18.275-21.815 33.774-9.064 39.085 28.323 37.587 28.323 37.587z" fill="#72848c"/><g fill="#31313f"><path d="m42.913 189.68c-.3 1.492-29.717 150.089-33.337 227.914a22.376 22.376 0 0 0 14.567 22.051 60.925 60.925 0 0 0 -1.787 14.27 30.084 30.084 0 0 0 9.007 22.231c14.345 14.265 41.128 14.645 43.88 14.645h59.782a34.866 34.866 0 0 0 24.638-9.965c.348-.342.679-.7 1.019-1.051 9.189 10.372 23.982 11.024 27.516 11.024.279 0 .487 0 .618-.007h40.984a40.482 40.482 0 0 0 25.871-9.4c5.443 4.3 12.406 7.431 20.812 9.28a5.519 5.519 0 0 0 1.181.128h51.885a35.422 35.422 0 0 0 32-19.955c.174-.366.335-.737.5-1.107a139.43 139.43 0 0 0 23.1 1.955c30.993 0 51.051-10.647 52.909-11.672a106.875 106.875 0 0 0 14.568-9.151 41.438 41.438 0 0 0 15.939-24.97 62.053 62.053 0 0 0 1.642-13.272c-.076-2.725-.274-5.365-.54-7.954h10.35a5.5 5.5 0 0 0 5.447-6.264l-17.437-124.458-14.642-104.123c6.373-3.42 10.707-9.562 12.939-18.309l10.584-.113a5.5 5.5 0 0 0 4.917-3.156l8.445-17.935a5.5 5.5 0 0 0 -4.607-7.83c-9.672-.65-22.446-1.235-37.979-1.743 3.971-34.2 7.059-57.461 7.091-57.7a5.5 5.5 0 0 0 -5.453-6.226h-21.149a5.5 5.5 0 0 0 -5.46 4.839l-5.429 44.835a43.192 43.192 0 0 0 -12.055 13.2c-23.841-.442-50.252-.717-76.76-.8a26.07 26.07 0 0 0 -8.29-9.394 88.393 88.393 0 0 0 -18.108-9.778 52.826 52.826 0 0 1 -13.088-7.422c-15.649-12.079-57.95-36.6-112.629-3.475a64.758 64.758 0 0 0 -27.31 32.649c-17.53.283-36.565.511-56.76.68 6-29.76 9.714-49.272 9.754-49.485a5.5 5.5 0 0 0 -2.188-5.491l-12.933-9.318a5.5 5.5 0 0 0 -8.517 3l-8.353 30.308-8.44-32.33a5.5 5.5 0 0 0 -6.595-3.962l-15.373 3.66a5.5 5.5 0 0 0 -4.139 6.327c1.9 10.552 5.349 26.494 10.236 47.37l-6.164 10.211c-15.372.044-24.854.032-24.859.033h-.006a5.5 5.5 0 0 0 -5.213 7.254l7.177 21.323a5.5 5.5 0 0 0 5.211 3.745h.218c8.916-.35 19.192-.661 30.67-.93l-9.764 35.43c-.036.124-.066.254-.093.384zm11.387-70.35c6.869 1.869 23.1 8.354 37.568 29.778a18.332 18.332 0 0 1 -5.245 11.813c-4.863-8.23-15.77-23.073-36.275-35.045zm174.273 71.284a26.963 26.963 0 0 0 20.4 9.22 28.078 28.078 0 0 0 12.865-3.139c1.567-.807 3.2-1.725 4.934-2.7 8.381-4.7 19.859-11.15 38.2-12.593.144-.011.288-.028.431-.05a23.5 23.5 0 0 0 9.815-4.3 15.708 15.708 0 0 0 6.165-13.594 16.407 16.407 0 0 0 -2.559-7.82q1.485-1.317 2.843-2.788l90.092-.786-2.04 16.846c-.017.136-.029.273-.034.41l-6.85 149.98a34.7 34.7 0 0 0 -38.235 10.646c-2.056 2.466-4.029 5.011-5.927 7.6a138.653 138.653 0 0 0 -2.255-15.845c-8.986-42.3-40.509-67.74-41.846-68.8a5.5 5.5 0 0 0 -8.9 4.748c2.071 25.673-13.487 29.734-16.7 30.3-7.877-.593-13.874-3.621-18.32-9.246-13.664-17.287-7.754-52.27-7.694-52.617a5.5 5.5 0 0 0 -8.454-5.539c-18.367 12.153-25.834 27.51-28.864 38.253a57.757 57.757 0 0 0 -1.243 25.3c.269 1.568.655 3.331 1.062 5.2 1.751 8.009 4.148 18.979-.193 25.442-2.112 3.147-5.8 5.141-11.27 6.1-15.362 2.685-20.567-24.6-20.616-24.873a5.5 5.5 0 0 0 -9.749-2.4c-15.909 20.4-24 40.793-24.033 60.613a70.353 70.353 0 0 0 10.981 37.946 99.973 99.973 0 0 0 11.759 14.863 75.21 75.21 0 0 0 -9.97 8.405c-6.372-16.686-17.485-32.1-29.869-41.61l-37.7-149.5-13.752-52.686a28.683 28.683 0 0 0 11.369-18.56c14.156-.156 29.522-.273 45.768-.347a49.377 49.377 0 0 0 17.584 21.637c11.015 7.777 24.923 11.761 40.416 11.76a100.611 100.611 0 0 0 18.341-1.758 26.341 26.341 0 0 0 4.046 6.282zm38.143-62.55c.79-.109 1.6-.228 2.426-.35a63.572 63.572 0 0 1 8.743-.847c4.375 0 6.032 1.2 6.74 3.972 3.322 12.985-3.958 19.95-4.928 20.809l-6.728 4.531a5.5 5.5 0 1 0 6.145 9.124l6.461-4.352c9.464-3.745 17.095-4.178 22.076-1.236a5.562 5.562 0 0 1 2.759 4.426 4.811 4.811 0 0 1 -1.908 4.207 12.6 12.6 0 0 1 -4.686 2.115c-20.586 1.68-33.721 9.056-42.427 13.944-1.643.922-3.193 1.792-4.583 2.508a16.6 16.6 0 0 1 -19.941-3.527c-3.9-4.474-4.937-10.817-3.09-18.854 2.171-9.448 6.059-17.378 11.519-23.524.106-.11 10.54-11.456 21.42-12.946zm162.892 207.06c.808-26 2.7-55.279 5.044-84.272 5.2 37.953 9.35 74.9 12.02 100.33a114.79 114.79 0 0 0 -17.066-16.058zm-1.426-183.2 4.432 4.538c-5.26 48.729-11.692 116.221-13.757 171.214-1.787-1.111-3.543-2.151-5.25-3.111l7.063-154.535 2.187-18.06zm-108.39 232c3.216-22.116-4.546-41.646-22.555-56.61a15.818 15.818 0 0 0 -25.879 12.8c.424 9.595-4.131 20.065-13.663 21.509-6.654 1.009-11.481-.638-14.745-5.034a16.647 16.647 0 0 0 -15.043-6.713 16.293 16.293 0 0 0 -13.233 9.228c-5.907 12.287-7.363 24.859-4.352 37.446a52.514 52.514 0 0 0 -18.059 4.609c-4.678-3.776-10.442-11.907-12.415-14.969-8.468-13.318-18.13-40.277 6.026-76.928a58.824 58.824 0 0 0 2.844 6.281c6.517 12.322 16.165 18.049 27.173 16.127 8.462-1.478 14.689-5.111 18.51-10.8 6.957-10.36 3.857-24.54 1.806-33.924-.38-1.741-.739-3.386-.967-4.709a46.709 46.709 0 0 1 .988-20.455 53.824 53.824 0 0 1 14.531-24.211c-.637 13.54.5 34.315 11.238 47.924 6.513 8.251 15.548 12.781 26.854 13.464a5.575 5.575 0 0 0 .949-.025c.262-.03 22.869-2.926 26.555-29.164 9.44 10.1 23.946 29 29.3 54.213 1.107 5.228 3.561 20.7 1.661 29.372a5.491 5.491 0 0 0 -.087 1.81 271.525 271.525 0 0 0 -16.3 33.563 112.975 112.975 0 0 0 -11.139-4.802zm-79.558 19.679a51.528 51.528 0 0 0 -18.372-6.584c-3.422-11.1-2.515-22.247 2.726-33.148a5.33 5.33 0 0 1 4.365-3.044 5.72 5.72 0 0 1 5.165 2.32c4.011 5.4 11.642 11.406 25.225 9.352 14.079-2.134 23.754-15.958 23-32.872a4.667 4.667 0 0 1 2.657-4.42 4.738 4.738 0 0 1 5.2.569c14.665 12.186 21.013 27.311 18.91 45-23.89-4.179-43.495 14.1-54.782 34.107a63.087 63.087 0 0 0 -14.096-11.278zm-124.5-39.81c-5.679-34.874-16.488-95.125-28.547-130.917-.472-1.8-4.346-16.649-9.517-36.964a5.481 5.481 0 0 0 -.445-1.162q1.9-8.88 3.812-17.97l13.114 50.232 35.106 139.218a42.425 42.425 0 0 0 -13.529-2.43zm30-222.086c-16.116.078-31.347.2-45.358.357a103.921 103.921 0 0 0 -6.881-8.928c18.643-.158 36.291-.366 52.672-.623a43.89 43.89 0 0 0 -.442 9.196zm-73.643 76.793c2.735 10.619 4.47 17.252 4.5 17.352.033.124.069.247.11.368 11.738 34.744 22.363 93.762 28.032 128.473-19.568 3.465-36.429 15.736-37.9 16.828a136.543 136.543 0 0 0 -21.373 19.807 633.327 633.327 0 0 1 15.57-133.428c3.606-15.68 7.302-32.189 11.061-49.4zm62.934 261.3h-59.631c-.261.006-24.752.038-36.292-11.462a19.2 19.2 0 0 1 -5.746-14.373c.126-34.733 39.509-63.231 39.9-63.513.034-.023.071-.051.1-.075.323-.24 32.447-23.856 55.128-12.516 14.849 7.424 29.656 27.254 35.666 47.567a63.607 63.607 0 0 0 -9.108 21.044c-2.075 8.948-2.069 16.713-.023 23.226-.98 1.129-2 2.24-3.079 3.3a23.928 23.928 0 0 1 -16.915 6.792zm94.774 0h-41.069c-.074 0-.147 0-.221 0-.131.007-13.307.3-19.944-7.715-4.233-5.112-5.174-12.895-2.8-23.134 3.34-14.4 12.02-26.147 25.8-34.92a41.853 41.853 0 0 1 22.451-6.509 40.511 40.511 0 0 1 20.618 5.557 51.629 51.629 0 0 1 22.95 28.406 28.272 28.272 0 0 1 -3.8 25.925 29.121 29.121 0 0 1 -23.984 12.381zm121.808-13.657a24.375 24.375 0 0 1 -22.059 13.657h-51.274a40.219 40.219 0 0 1 -15.169-6.555 39.117 39.117 0 0 0 4.875-35.358 67.335 67.335 0 0 0 -6.3-13.373c9.642-19.528 28.406-39.182 50.46-31.648 30.7 10.488 37.753 22.64 42.226 51.611a36.669 36.669 0 0 1 -2.759 21.657zm106.182-42.45a30.458 30.458 0 0 1 -11.716 18.351 95.728 95.728 0 0 1 -13.129 8.245c-.06.031-.12.063-.178.1-.277.156-27.361 15.042-67.534 8.739a50.968 50.968 0 0 0 0-16.319c-3.422-22.163-8.809-37.139-24.733-48.383 5.762-14.481 16.755-38.481 32.545-57.423a23.7 23.7 0 0 1 28.689-6.25 117.416 117.416 0 0 1 33.827 24.6 94.212 94.212 0 0 1 2.225 31.695c-2.44 21.645-13.445 36.234-32.71 43.36a5.5 5.5 0 1 0 3.817 10.316c23.261-8.605 37.046-26.86 39.862-52.793a95.587 95.587 0 0 0 .471-13.567 86 86 0 0 1 9.982 38.577c.039 1.247-.098 4.315-1.418 10.743zm15.9-30.015h-5.738a94.136 94.136 0 0 0 -8.251-23.188c-2.867-28.987-10.4-100.851-20.493-164.194a5.489 5.489 0 0 0 -.468-1.5c1.171-12.233 2.365-24.027 3.524-35.074l14.872 105.759zm-.35-253.224-7.908.084a105.721 105.721 0 0 0 -6.909-8.394c6.8.263 12.922.543 18.335.839zm-30.279-72.635c-1.071 8.32-3.112 24.47-5.565 45.34-2.844-2.109-5.9-4.22-9.176-6.292l4.728-39.048zm-20.471 48.435a131.18 131.18 0 0 1 33.6 30.279c-1.075 5.693-3.044 9.729-5.963 12.212l-34.415-35.231a32.527 32.527 0 0 1 6.778-7.26zm-15.109 14.478 6.111 6.256-.492 4.066-83.979.732a26.022 26.022 0 0 0 2.3-11.888c26.362.102 52.529.384 76.06.834zm-248.557-4.268a53.62 53.62 0 0 1 23.13-28.236c48.858-29.594 86.356-7.919 100.208 2.774a63.8 63.8 0 0 0 15.816 8.963 77.478 77.478 0 0 1 15.839 8.572 15.162 15.162 0 0 1 4.771 19.566 31.439 31.439 0 0 1 -8.67 10.568 30.208 30.208 0 0 0 -14.987-1.571 33.812 33.812 0 0 0 .25-18.991c-3.789-14.815-18.784-12.6-27.745-11.281-.786.116-1.56.23-2.314.333-14.887 2.04-27.549 15.872-28.113 16.5-6.739 7.585-11.468 17.143-14.056 28.41a41.272 41.272 0 0 0 -1.1 11.557c-19.625 3.534-37.2.645-49.844-8.28-8.564-6.045-14.268-14.512-15.26-22.649a36.538 36.538 0 0 1 2.075-16.235zm-72.023-55.064 3.668 2.642c-1.344 6.98-4.672 24.13-9.347 47.3q-2.073-1.633-4.087-3.019l-1.539-5.9zm-34.577-4.579 11.55 44.236a56.639 56.639 0 0 0 -7.722-2.59c-3.96-16.956-6.934-30.522-8.865-40.447zm-29.962 66.652c4.572 0 11.049-.013 18.944-.037a100.513 100.513 0 0 1 14.429 9.356c-11.083.247-21.112.533-29.95.853zm45.031 20.082a86.428 86.428 0 0 1 5.787 7.048c-7.852 37.722-15.545 72.989-22.869 104.829a642.928 642.928 0 0 0 -15.8 150.4c0 .028.009.054.01.081a89.143 89.143 0 0 0 -6.928 13.266 11.393 11.393 0 0 1 -7.026-11.075c3.521-75.722 31.878-219.907 33.1-226.084l10.585-38.406z"/><path d="m195.44 224.755a18.683 18.683 0 0 0 -16.661-.907c-12.825 5.384-17.842 15.415-13.422 26.834 3.462 8.94 9.984 11.719 14.845 12.477a20.4 20.4 0 0 0 16.825-5.027 21.586 21.586 0 0 0 7.2-17.067c-.394-9.426-4.995-14.072-8.787-16.31zm-5.74 25.173a9.366 9.366 0 0 1 -7.8 2.362c-3.034-.473-4.971-2.194-6.283-5.579-.874-2.26-3.2-8.262 7.422-12.721a8.542 8.542 0 0 1 3.294-.68 6.906 6.906 0 0 1 3.518.918c.782.462 3.162 1.866 3.39 7.3a10.629 10.629 0 0 1 -3.541 8.4z"/><path d="m308.658 221.432a5.5 5.5 0 0 0 10.618-2.874l-1.044-3.857a5.5 5.5 0 0 0 -10.618 2.874z"/><path d="m284.946 47.652-4.5 6.331a5.5 5.5 0 1 0 8.954 6.377l4.5-6.331a16.107 16.107 0 0 0 -2.316-21.459 5.173 5.173 0 0 1 -1.073-6.824l5.171-8.079a5.5 5.5 0 0 0 -9.266-5.93l-5.171 8.08c-4.326 6.761-3.2 15.1 2.792 20.756 2.201 2.067 2.546 4.779.909 7.079z"/><path d="m238.779 47.652-4.5 6.331a5.5 5.5 0 1 0 8.963 6.377l4.5-6.331a16.1 16.1 0 0 0 -2.317-21.459 5.172 5.172 0 0 1 -1.072-6.824l5.17-8.079a5.5 5.5 0 1 0 -9.266-5.929l-5.17 8.078c-4.327 6.761-3.205 15.1 2.792 20.757 2.191 2.067 2.536 4.779.9 7.079z"/><path d="m192.61 47.652-4.505 6.331a5.5 5.5 0 1 0 8.963 6.377l4.5-6.331a16.105 16.105 0 0 0 -2.316-21.459 5.173 5.173 0 0 1 -1.073-6.824l5.171-8.079a5.5 5.5 0 0 0 -9.266-5.93l-5.171 8.08c-4.326 6.761-3.2 15.1 2.792 20.756 2.195 2.067 2.541 4.779.905 7.079z"/></g></svg>