<svg id="icons" height="512" viewBox="0 0 500 500" width="512" xmlns="http://www.w3.org/2000/svg"><path d="m186.529 77.1s-39.729-14.509-15.136-44.675c13.165-16.147 35.336-9.712 46.478 9.362z" fill="#565663"/><path d="m295.093 75.2s42.228-15.419 16.088-47.481c-13.993-17.162-37.557-10.323-49.4 9.951z" fill="#6b6d78"/><path d="m358.622 486.86h-229.115a9.3 9.3 0 0 1 -8.687-5.965c-1.582-4.127-3.631-9.775-5.091-14.885l-13.658-8.9c-10.677-10.228-22.92-30.974-16.867-69.739 10.175-65.159 28.573-126.377 70.546-196.075 0 0 21.706-36.629 21.706-75.972s8.818-80.72 55.622-84.112 62.405 20.35 67.832 50.874 10.853 55.614 10.853 55.614 78.685 82.829 97.678 180.809c15.912 82.091 3.259 131.591-22.804 143.091l-16.537 2.375a91.862 91.862 0 0 1 -2.457 15.9 9.306 9.306 0 0 1 -9.021 6.985z" fill="#777a87"/><path d="m209.82 123.4a10.087 10.087 0 0 1 7.7-16.587h10.511a8.7 8.7 0 0 1 8.026 12.173 27.575 27.575 0 0 1 -3.28 5.519 13.766 13.766 0 0 1 -19.887 2.021 28.334 28.334 0 0 1 -3.07-3.126z" fill="#565663"/><path d="m178.356 214.919c6.55 14.527 23.173 43.483 58.685 66.121a26.669 26.669 0 0 0 33.974-4.467 272.7 272.7 0 0 0 41.607-60.766 2.157 2.157 0 0 0 -3.465-2.488c-8.283 8.511-21 20.965-33.751 31.076a39.137 39.137 0 0 1 -43.686 3.331c-14.323-8.165-33.522-20.4-49.942-35.282a2.155 2.155 0 0 0 -3.422 2.475z" fill="#e6e8f5"/><path d="m292.8 59.436c-4.688-10.284-11.262-15.836-15.587-18.566a3.887 3.887 0 0 1 -.387-6.281c4.978-4.084 13.692-8.745 21.46-.3 11.491 12.49 5.7 21.74.793 26.391a3.921 3.921 0 0 1 -6.279-1.244z" fill="#565663"/><g fill="#31313f"><path d="m171.975 201a5.5 5.5 0 0 0 -2.488 6.285c.68 2.323 17.427 57.264 83.938 89.125a5.5 5.5 0 0 0 5.834-.683c1.537-1.243 37.95-31.117 64.288-90.082a5.5 5.5 0 0 0 -9.108-5.926c-.222.247-22.444 24.819-43.918 41.523a31.28 31.28 0 0 1 -34.661 2.512c-16.292-9.189-39.438-23.914-57.182-41.879a5.5 5.5 0 0 0 -6.703-.875zm58.481 52.336a42.254 42.254 0 0 0 46.819-3.412c6.576-5.115 13.147-10.862 19.164-16.446-17.367 28.224-35.008 45.524-41.5 51.42-33.177-16.745-52.639-39.898-63.367-57.117a327.671 327.671 0 0 0 38.884 25.551z"/><path d="m158.559 440.019a5.5 5.5 0 0 0 -1.7 7.59c1.035 1.631 26.041 39.928 87.038 39.928 61.173 0 83.749-38.519 84.68-40.159a5.5 5.5 0 0 0 -9.555-5.45c-.817 1.413-20.636 34.609-75.125 34.609-54.694 0-76.844-33.415-77.761-34.837a5.5 5.5 0 0 0 -7.577-1.681z"/><path d="m364.621 463.543c0 .049-.012.1-.015.147-.006.123-.689 12.394-4.326 21.037-.017.043-.035.085-.052.129l-.784 2h11.805a81.406 81.406 0 0 0 3.839-17.174c10.242-.268 19.424-4.545 26.809-12.552 21.015-22.786 25.733-73.693 12.944-139.668-9.986-51.513-36.394-98.67-56.79-129.158a457.736 457.736 0 0 0 -41.227-53.242c-1.233-5.806-5.891-28.027-10.5-53.947-.3-1.658-.617-3.258-.958-4.821 7.387-4.3 16.769-11.8 19.245-23.032 2.046-9.287-1.038-19.051-9.168-29.023-6.237-7.65-14.762-11.853-23.985-11.779-10.642.062-21.241 5.569-29.281 15.137-8.556-2.069-18.346-2.688-29.5-1.879a71.761 71.761 0 0 0 -17.636 3.427c-7.544-7.543-17-11.69-26.181-11.387-8.469.268-15.984 4.136-21.733 11.188-7.6 9.327-10.555 18.483-8.77 27.214 2.134 10.438 10.652 17.529 17.248 21.584-2.442 10.7-3.652 23.143-3.652 37.571 0 37.306-20.73 72.817-20.918 73.135-38.171 63.394-59.485 122.628-71.265 198.067-5.558 35.593 3.746 56.608 12.53 67.97a53.312 53.312 0 0 0 18.9 15.573c2.045 6.611 4.7 13.44 6.053 16.8h11.792l-.683-1.88c-.03-.082-.061-.162-.095-.242-.046-.11-4.6-11.04-7.2-20.072-17.952-80.578 27.88-187.315 28.346-188.385a5.5 5.5 0 0 0 -10.086-4.391 464.8 464.8 0 0 0 -21.6 65.556c-11.385 45.057-14.6 84.553-9.609 117.646-10.011-8.268-23.674-27.173-17.474-66.878 11.547-73.945 32.429-131.99 69.843-194.119.918-1.549 22.475-38.39 22.475-78.776 0-51.144 16.053-76.128 50.519-78.626 19.278-1.4 33.56 1.844 43.678 9.905a5.5 5.5 0 0 0 6.855-8.6 52.014 52.014 0 0 0 -10.463-6.452c5.4-5.09 11.855-8.042 17.979-8.078 5.929-.054 11.242 2.638 15.394 7.73 5.9 7.236 8.238 13.865 6.952 19.7-1.389 6.3-6.8 11.163-11.573 14.345q-.76-2.191-1.611-4.266a5.5 5.5 0 0 0 -10.169 4.194 72.832 72.832 0 0 1 2.771 8.1 5.473 5.473 0 0 0 .544 2.722 5.687 5.687 0 0 0 .3.51c.5 2.079.96 4.249 1.368 6.542 5.382 30.275 10.838 55.57 10.892 55.822a5.514 5.514 0 0 0 1.388 2.625c.776.818 77.811 82.859 96.267 178.069 11.938 61.585 8.113 110.226-10.232 130.117-5.01 5.432-10.929 8.415-17.644 8.93 11.117-116.316-19.01-175.227-20.32-177.718a5.5 5.5 0 0 0 -9.74 5.111c.31.6 30.877 60.814 18.524 177.4-.017.044-.016.093-.02.142zm-181.798-406.274a77.239 77.239 0 0 0 -4.032 9.421c-4.2-2.994-8.542-7.292-9.654-12.73-1.092-5.339 1.1-11.415 6.518-18.059 3.677-4.51 8.365-6.981 13.557-7.145 4.987-.152 10.208 1.767 14.88 5.371a55.8 55.8 0 0 0 -21.269 23.142z"/><path d="m227.757 88.637a5.5 5.5 0 0 0 -7.738.789l-13.749 16.874a15.741 15.741 0 0 0 -2.861 4.2 15.46 15.46 0 0 0 2.2 16.63 33.962 33.962 0 0 0 3.671 3.735 19.217 19.217 0 0 0 12.591 4.692q.942 0 1.888-.094a19.356 19.356 0 0 0 13.378-7.411 33.067 33.067 0 0 0 3.938-6.617 14 14 0 0 0 -1.037-13.389 14.247 14.247 0 0 0 -12-6.542h-3.668l4.18-5.129a5.5 5.5 0 0 0 -.793-7.738zm-10.233 23.863h10.511a3.263 3.263 0 0 1 2.767 1.516 2.975 2.975 0 0 1 .243 2.9 22.085 22.085 0 0 1 -2.621 4.418 8.2 8.2 0 0 1 -5.75 3.177 8.067 8.067 0 0 1 -6.166-1.945 22.916 22.916 0 0 1 -2.478-2.519 4.544 4.544 0 0 1 -.65-4.908 5.483 5.483 0 0 1 .267-.485l.792-.972a4.328 4.328 0 0 1 3.085-1.182z"/><path d="m217.587 70.742-9.855-2.491a5.5 5.5 0 1 0 -2.7 10.665l9.856 2.491a5.5 5.5 0 1 0 2.695-10.665z"/><path d="m246.641 80.7a5.527 5.527 0 0 0 1.352-.169l10.427-2.631a5.5 5.5 0 1 0 -2.7-10.665l-10.42 2.632a5.5 5.5 0 0 0 1.341 10.833z"/></g></svg>