<svg id="icons" height="512" viewBox="0 0 500 500" width="512" xmlns="http://www.w3.org/2000/svg"><path d="m214.567 304.868s31.017 20.662 42.223 51.02c3.1 8.4 5.765 18.062 3.524 26.734-2.6 10.067-7.1 24.829-13.284 35.587a25.528 25.528 0 0 1 -17.247 12.326l-5.4 1.052a14.62 14.62 0 0 0 -11.111 13.036l-.524 6.528h18.236a33.844 33.844 0 0 0 23.628-9.614l20.079-19.583s13.52-39.3 29-57.515c0 0-31.632-14.983-15.195-77.444.004.005-35.996-14.344-73.929 17.873z" fill="#774b53"/><path d="m60.858 263.074s2 23.6-7.6 36.4c-4.489 5.985-12.388 13.719-19.527 20.259a20.46 20.46 0 0 0 -1.8 28.367c7.585 8.9 16.861 20.569 23.62 31.647a18.094 18.094 0 0 0 16.541 8.629 87.767 87.767 0 0 1 32.776 4.31 26.853 26.853 0 0 0 .926-13.2 16.284 16.284 0 0 0 -13.241-12.939l-17.293-3.061a36.027 36.027 0 0 1 -8.26-9.045 23.471 23.471 0 0 1 5.443-31.351c7-5.4 17.506-11 32.421-13.21z" fill="#774b53"/><path d="m43.081 180.68s-22.719 129.771 98.793 144.178c0 0 3.132 51.36-4.384 77.667 0 0-11.9 25.68-22.549 31.317 0 0-12.527 2.6-12.527 17.309h27.539a24.024 24.024 0 0 0 18.67-8.924 123.5 123.5 0 0 0 19.558-33.439l10.021-78.92 21.3-3.9c8.975-3 20.584-8.241 34.442-17.4 8.722-5.762 19.419-9.395 30.569-11.6 5.2-2.367 10.033-3.625 13.915-2.05 0 0 3.611 22.824 32.31 42.859l5.962-7.577 23.826 19.494s4.873 27.617-5.957 53.067c0 0-18.411 26.534-32.49 31.949 0 0-8.122 3.642-8.122 16.441h21.006a26.1 26.1 0 0 0 17.075-6.369 139.6 139.6 0 0 0 31.231-39.855 153.746 153.746 0 0 1 19.494-64.438s-36.822-14.079-31.407-49.277 3.79-55.233 3.79-55.233 4.874 41.695 48.735 43.861c20.788 1.027 41.408-5.867 50.36-10.83l-10.83-7.861s50.36-10.55 23.285-95.565c0 0-11.372 57.94-56.858 57.4-17.875-.213-31.15-9.624-40.681-20.972 0 0-9.071-16.2-34.319-21.907a86.637 86.637 0 0 1 -17.99-6.09c-10.234-4.841-28.71-11.659-49.966-10.6-32.491 1.624-99.4 5-119.131-45.487z" fill="#db938c"/><path d="m36.113 59.663c7.393 3.742 22.718 12.772 32.46 27.385 0 0 22.772-8.451 49.218-4.225 0 0 9.465-21.4 31.546-31.967a4.259 4.259 0 0 1 5.982 2.885c2.288 9.909 6.2 33.171-1.273 53.876 0 0 41.4 51.423 0 131.494l-9.075-8.08s-10.716 20.569-21.886 30.118c0 0-48.635-11.753-67-43.341l-11.02 14.692s-32.322-38.934-13.222-108.721c0 0-13.524-27.725-1.647-61.764a4.238 4.238 0 0 1 5.917-2.352z" fill="#db938c"/><path d="m55.592 225.046s12.215 46.1 69.762 55.465a4.031 4.031 0 0 0 3.48-1.12 77.065 77.065 0 0 0 17.017-26.461l8.99 7.343a4.076 4.076 0 0 0 6.368-1.636c4.459-11.173 12.64-19.993 9.275-55.177 0 0-3.354 13.807-14.444 34.976a4.134 4.134 0 0 1 -5.873 1.576l-7.069-4.47a4.6 4.6 0 0 0 -6.844 2.473c-1.891 5.823-5.62 15.065-12.079 23.046a5.914 5.914 0 0 1 -5.765 2.034 112.467 112.467 0 0 1 -62.818-38.049z" fill="#f5dcde"/><path d="m125.57 159.737 10.447-.392a8.351 8.351 0 0 1 8.166 11.168 26.853 26.853 0 0 1 -5.641 9.353 8.3 8.3 0 0 1 -10.121 1.584 28.589 28.589 0 0 1 -9.3-8.485 8.358 8.358 0 0 1 6.449-13.228z" fill="#565663"/><path d="m44.615 106.362a32.592 32.592 0 0 1 10.053-9.455 4.217 4.217 0 0 0 1.282-6.121c-3.145-4.281-8.8-10.848-16.012-14.343 0 0-5.363 11.14.222 29.24a2.5 2.5 0 0 0 4.455.679z" fill="#774b53"/><path d="m142.125 96.4a29.893 29.893 0 0 0 -9.868-7.92 3.867 3.867 0 0 1 -1.611-5.5c2.566-4.137 7.268-10.547 13.6-14.258 0 0 5.7 9.8 1.9 26.74a2.294 2.294 0 0 1 -4.021.938z" fill="#774b53"/><g fill="#31313f"><path d="m38.052 232.175a5.594 5.594 0 0 0 .063.627c2.891 17.8 8.479 33.466 16.643 46.8-.009.052-.023.1-.031.156-1.039 7.008-3.068 12.687-5.87 16.422-3.517 4.69-10.033 11.434-18.842 19.5a25.876 25.876 0 0 0 -2.274 35.991c9.742 11.43 17.734 22.13 23.111 30.944a23.548 23.548 0 0 0 21.563 11.255 82.509 82.509 0 0 1 30.709 4.038 5.5 5.5 0 0 0 6.876-3.254 32.026 32.026 0 0 0 1.2-16.162 21.853 21.853 0 0 0 -17.69-17.354l-15.91-2.823a33.205 33.205 0 0 1 -6-6.889 18.006 18.006 0 0 1 4.2-23.982 60.1 60.1 0 0 1 20.2-10.042 132.972 132.972 0 0 0 40.6 12.305c.538 12.875 1.488 50.155-4.285 70.895-4.266 9.088-13.012 24.136-19.43 28.082-6.015 1.656-15.973 8.071-15.973 22.467a5.5 5.5 0 0 0 5.5 5.5h27.539a29.406 29.406 0 0 0 22.949-10.963 129.238 129.238 0 0 0 20.43-34.968 5.507 5.507 0 0 0 .307-1.239l9.43-74.263c7.323-.657 21.846-3.5 41.97-14.766 9.307 8.647 20.815 21.687 26.593 37.341 2.58 6.988 5.293 15.969 3.359 23.453-2.589 10.018-6.9 24.087-12.727 34.221a20.015 20.015 0 0 1 -13.531 9.669l-5.4 1.052c-.085.017-.169.035-.252.055a20.091 20.091 0 0 0 -15.29 17.94l-.523 6.528a5.5 5.5 0 0 0 5.482 5.94h18.236a39.128 39.128 0 0 0 27.468-11.177l20.079-19.582a5.508 5.508 0 0 0 1.361-2.149c.132-.383 13.351-38.518 27.991-55.742a5.5 5.5 0 0 0 -1.836-8.532c-.167-.08-14.454-7.2-16.526-33.13a101.6 101.6 0 0 0 18.072 15.952 5.5 5.5 0 0 0 7.474-1.112l2.49-3.17 17.826 14.591c.8 6.43 2.572 27.709-5.659 47.494-5.166 7.336-19.6 25.635-29.621 29.488-.093.035-.185.073-.275.114-4.225 1.894-11.374 8.545-11.374 21.46a5.5 5.5 0 0 0 5.5 5.5h21.007a31.623 31.623 0 0 0 20.673-7.709 144.744 144.744 0 0 0 32.486-41.427 5.527 5.527 0 0 0 .644-2.4c.011-.312 1.307-31.59 18.763-61.881a5.51 5.51 0 0 0 -2.789-7.879c-1.334-.517-32.609-13.013-27.949-43.308 1.758-11.421 2.788-21.263 3.374-29.387 7.26 10.259 20.418 21.536 43.445 22.673 23.635 1.168 45.194-7.021 53.3-11.513a5.5 5.5 0 0 0 .564-9.261l-2.95-2.141a47.325 47.325 0 0 0 17.346-17.4c11.115-19.059 11.138-46.347.068-81.105a5.5 5.5 0 0 0 -10.636.6 97.757 97.757 0 0 1 -10.853 27.41c-10.23 17.156-23.837 25.745-40.543 25.555-13.667-.163-25.865-6.449-36.264-18.687-1.929-3.1-12.557-18.395-37.589-24.056a81.607 81.607 0 0 1 -16.851-5.7c-11.989-5.672-30.845-12.2-52.654-11.115-22.457 1.123-64.167 3.2-91.315-14.545-4.052-18.919-11.578-31.581-15.066-36.7 8.748-27.859-.455-58.152-.864-59.469a5.5 5.5 0 0 0 -7.185-3.518c-21.379 8.028-33.116 25.446-37.429 33.148a114.811 114.811 0 0 0 -43.968 3.748c-14.2-18.678-35.84-27.627-36.807-28.02a5.5 5.5 0 0 0 -7.162 3.017c-13.45 32.949-3.85 61.051-.72 68.635-15.514 58.998 4.311 96.34 12.022 107.954zm31.031 86.561a29.056 29.056 0 0 0 -6.683 38.72 40.99 40.99 0 0 0 9.688 10.523 5.5 5.5 0 0 0 2.211.923l17.289 3.067a10.805 10.805 0 0 1 8.794 8.525 20.894 20.894 0 0 1 .279 5.221 93.939 93.939 0 0 0 -28.9-2.826 12.558 12.558 0 0 1 -11.517-6c-5.755-9.433-13.874-20.317-24.13-32.351a14.913 14.913 0 0 1 1.332-20.744c9.436-8.643 16.237-15.713 20.212-21.013a38.469 38.469 0 0 0 5.612-11.259c.443.536.877 1.079 1.331 1.6a98.84 98.84 0 0 0 19.108 17.034 68.4 68.4 0 0 0 -14.626 8.58zm226.726 46.886c-12.947 18-23.59 46.854-25.881 53.295l-19.156 18.683a28.188 28.188 0 0 1 -19.788 8.052h-12.277l.047-.588a9.107 9.107 0 0 1 6.822-8.1l5.258-1.025a31.011 31.011 0 0 0 20.966-14.988c6.443-11.2 11.083-26.277 13.842-36.953 2.7-10.438-.555-21.523-3.689-30.015-6.039-16.358-17.375-29.95-27.137-39.412.717-.461 1.437-.928 2.166-1.41 9.185-6.068 21.743-10.174 37.375-12.228a63.628 63.628 0 0 0 4.342 9.988 5.542 5.542 0 0 0 -.105.7c-2.494 32.104 9.698 47.602 17.215 54.001zm-260.897-300.377c7.27 3.842 20.602 12.13 29.088 24.855a5.511 5.511 0 0 0 6.483 2.109c.216-.08 21.842-7.885 46.445-3.954.04.006.079 0 .119.009.075.011.147.026.223.034a28.979 28.979 0 0 1 13.751 6.347 5.5 5.5 0 1 0 6.959-8.518 41.784 41.784 0 0 0 -11.917-6.827c4.035-6.324 11.93-16.42 24.238-22.78 2.161 10.043 5.2 30.877-1.428 49.228a5.527 5.527 0 0 0 .88 5.305c.193.242 19.263 24.7 17 65.091a5.5 5.5 0 1 0 10.982.614 128.737 128.737 0 0 0 -.37-19.507c29.492 14.668 68.087 12.742 89.785 11.658 20.5-1.022 38.457 5.873 47.341 10.075a92.477 92.477 0 0 0 19.128 6.483c22.3 5.044 30.417 18.685 30.733 19.23a5.515 5.515 0 0 0 .587.85c12.611 15.013 27.693 22.729 44.828 22.933h.691c20.374 0 37.512-10.777 49.594-31.2a101.75 101.75 0 0 0 6.157-12.305c4.9 22.847 3.67 41.393-3.7 54.245-7.812 13.618-19.76 16.435-20.227 16.54a5.5 5.5 0 0 0 -2.1 9.834l3.161 2.294c-9.908 3.719-24.523 7.176-39.188 6.454-38.417-1.9-43.327-37.276-43.541-38.984a88.336 88.336 0 0 0 -3.353-17.018 5.5 5.5 0 1 0 -10.441 3.46 78.463 78.463 0 0 1 2.847 14.632c.039.515 1.444 20.214-3.746 53.937-4.221 27.445 14.865 45.061 29.186 52.643a160.013 160.013 0 0 0 -17.265 60.39 133.247 133.247 0 0 1 -29.4 37.213 20.613 20.613 0 0 1 -13.478 5.03h-14.754a10.14 10.14 0 0 1 4.146-5.927c15.151-6.069 32.76-30.988 34.729-33.828a5.365 5.365 0 0 0 .542-.982c11.339-26.645 6.524-54.983 6.313-56.175a5.5 5.5 0 0 0 -1.934-3.3l-23.826-19.49a5.5 5.5 0 0 0 -7.808.859l-2.662 3.389c-22.417-17.451-25.818-35.963-25.846-36.128 0-.015-.009-.027-.011-.042-.026-.153-.054-.306-.093-.459a133.107 133.107 0 0 1 -4.241-40.964 5.5 5.5 0 1 0 -10.975-.734 141.745 141.745 0 0 0 3.143 38.339c-16.744 2.336-30.445 6.957-40.772 13.781-16.984 11.221-30.386 16.285-39.363 18.567 23.2-31.232 23.961-64.462 23.984-66.023a5.5 5.5 0 0 0 -11-.164c-.007.387-1.011 39.026-30.313 69.706-.035.037-.058.08-.092.118a5.819 5.819 0 0 0 -.374.48c-.092.128-.191.252-.271.386-.094.157-.167.327-.246.5s-.153.311-.211.473-.088.315-.129.474a5.393 5.393 0 0 0 -.13.57c-.006.038-.02.072-.025.11l-9.939 78.274a118.557 118.557 0 0 1 -18.458 31.315 18.457 18.457 0 0 1 -14.4 6.886h-21.083a10.537 10.537 0 0 1 7.2-6.424 5.506 5.506 0 0 0 1.455-.524c11.94-6.322 23.667-31.065 24.965-33.866a5.438 5.438 0 0 0 .3-.8c7.686-26.9 4.716-77.377 4.586-79.513 0-.015-.006-.03-.007-.045a5.54 5.54 0 0 0 -.129-.853c-.011-.049-.023-.1-.035-.144a5.409 5.409 0 0 0 -.264-.779c-.019-.046-.041-.09-.062-.135a5.53 5.53 0 0 0 -.4-.736l-.034-.047a5.5 5.5 0 0 0 -.537-.675l-.032-.037a5.558 5.558 0 0 0 -.636-.567l-.1-.079a5.41 5.41 0 0 0 -.7-.436c-.047-.025-.1-.047-.144-.07-.086-.042-.169-.088-.258-.125a48.673 48.673 0 0 1 -27.752-30.182 5.5 5.5 0 0 0 -10.665 2.693 57.676 57.676 0 0 0 12.346 22c-45.332-13.991-62.333-48.733-68.195-78.889l6.073-8.123c21.507 28.17 64.02 38.728 65.952 39.195a5.5 5.5 0 0 0 4.867-1.165c7.992-6.834 15.55-18.506 19.761-25.646l3.969 3.535a5.5 5.5 0 0 0 8.543-1.582 180.209 180.209 0 0 0 13.784-34.749 5.5 5.5 0 1 0 -10.606-2.919 164.485 164.485 0 0 1 -9.8 26.233l-3.682-3.279a5.5 5.5 0 0 0 -8.534 1.565c-.1.183-9.017 17.172-18.5 26.554-10.27-2.983-46.2-14.957-60.758-40a5.5 5.5 0 0 0 -9.155-.535l-6.361 8.482c-7.563-12.969-22.076-46.613-8.253-97.461a118.715 118.715 0 0 1 8.1-16.495 5.5 5.5 0 0 0 -9.319-5.845c-.095.152-1.309 2.1-3.065 5.44a82.809 82.809 0 0 1 2.129-43.383z"/><path d="m88.276 142.276a81.274 81.274 0 0 1 9.736 2.192 5.5 5.5 0 0 0 3.161-10.537 91.11 91.11 0 0 0 -11.262-2.531 5.5 5.5 0 0 0 -1.635 10.878z"/><path d="m127.822 140.645a5.484 5.484 0 0 0 2.838-.793 82.885 82.885 0 0 1 7.454-3.964 5.5 5.5 0 0 0 -4.555-10.013 92.729 92.729 0 0 0 -8.585 4.561 5.5 5.5 0 0 0 2.848 10.209z"/><path d="m88.667 198.216a31.791 31.791 0 0 0 21.174 8.039h6.848a31.824 31.824 0 0 0 30.923-24.114 85.177 85.177 0 0 0 2.488-15.441c0-.021 0-.043 0-.064.02-.338.045-.68.059-1.014.008-.18.006-.358 0-.534a13.837 13.837 0 0 0 -14.354-13.585l-10.447.392a13.858 13.858 0 0 0 -10.733 21.907 33.982 33.982 0 0 0 11.1 10.1 13.4 13.4 0 0 0 8.609 1.631 20.844 20.844 0 0 1 -17.649 9.72h-6.848a20.8 20.8 0 0 1 -13.853-5.253c-15-13.357-25.488-30.874-25.663-31.168a5.5 5.5 0 0 0 -9.468 5.6c.46.778 11.447 19.208 27.814 33.784zm42.447-23.9a23.07 23.07 0 0 1 -7.512-6.872 2.859 2.859 0 0 1 -.248-2.984 2.716 2.716 0 0 1 2.422-1.565l10.448-.392a2.775 2.775 0 0 1 2.391 1.154 2.946 2.946 0 0 1 .554 1.629c-.009.191-.033.394-.044.586a3.08 3.08 0 0 1 -.123.459 21.4 21.4 0 0 1 -4.487 7.452 2.811 2.811 0 0 1 -3.401.528z"/></g></svg>