<svg id="Layer_1" enable-background="new 0 0 500 500" viewBox="0 0 500 500" xmlns="http://www.w3.org/2000/svg"><g><g><g><path d="m303.452 304.625c0 .461 0 .968-.046 1.522-.645 7.61-5.995 15.127-16.049 20.939-21.491 12.36-56.312 12.36-77.757 0-10.054-5.811-15.404-13.329-16.05-20.939-.046-.554-.046-1.061-.046-1.522 0-.508 0-1.06.046-1.568.831-29.609 25.089-53.407 54.929-53.407 29.839 0 54.098 23.798 54.928 53.407.045.507.045 1.06.045 1.568z" fill="#ff7f29"/></g><g><path d="m303.422 306.145c-.692 14.62-10.607 56.127-21.861 99.157-.646 2.537-1.292 5.028-1.983 7.564-2.168 8.347-4.382 16.695-6.595 24.858-.599 2.306-1.245 4.612-1.845 6.872-1.568 5.673-3.09 11.253-4.566 16.603-5.027 18.402-31.131 18.402-36.204 0-1.522-5.58-3.137-11.391-4.704-17.341-.692-2.444-1.337-4.935-2.029-7.425-7.933-29.517-16.188-61.293-22.045-86.659-.876-4.012-1.752-7.84-2.537-11.483-3.136-14.39-5.165-25.781-5.488-32.146.646 7.61 5.996 15.127 16.05 20.939 21.445 12.36 56.265 12.36 77.757 0 10.055-5.812 15.404-13.329 16.05-20.939z" fill="#ff6700"/></g></g><g><g><path d="m246.163 272.556c-2.379-7.083-2.813-13.857-2.512-20.388.184-3.255.546-6.466 1.181-9.558.528-3.142 1.474-6.102 2.866-8.804 2.798-5.427 7.297-9.692 9.729-15.016 2.477-5.322 3.683-11.404 4.353-18.101.594-6.748 1.867-13.2 3.989-18.988 1.998-5.995 3.902-11.679 7.344-17.075 3.461-5.279 8.267-10.433 14.333-12.696 5.796-2.111 12.9-1.1 16.807 5.075l-.526 2.405c-4.861 2.676-7.302 6.314-9.414 10.009-1.954 3.569-3.607 7.446-5.724 11.793-2.092 4.342-5.238 8.894-8.125 13.256-2.727 4.601-6.117 8.708-9.815 12.797-3.678 4.097-6.536 9.022-7.812 14.902-1.382 5.839-.327 12.965-.745 19.043-.465 6.075-2.498 11.285-4.683 16.595-2.319 5.252-5.007 10.404-9.446 15.307z" fill="#72c94a"/></g><g><path d="m242.347 278.219c-2.218-2.001-3.769-4.09-5.195-6.177-1.456-2.078-2.633-4.192-3.62-6.349-1.06-2.132-1.941-4.301-2.62-6.541-.839-2.179-1.299-4.494-1.353-7.017-.181-4.988 1.126-10.905.051-15.747-.539-2.405-1.458-4.614-2.608-6.664-1.196-2.024-2.793-3.782-4.402-5.484-3.47-3.244-6.548-6.544-8.967-10.287-2.648-3.579-5.364-6.978-7.335-11.042-3.848-8.27-6.948-17.163-8.317-29.452l1.318-1.606c9.938 2.094 17.284 8.629 22.938 16.639 2.742 4.112 4.538 9.058 6.201 13.993.785 2.504 1.645 4.943 2.129 7.625.512 2.662.706 5.512.968 8.266.349 5.633 1.272 10.677 3.524 15.033 2.133 4.396 6.421 7.829 8.996 12.302 2.505 4.486 3.085 9.871 3.325 15.221.036 5.425-.605 11.025-3.224 16.84z" fill="#72c94a"/></g><g><path d="m250.013 276.675c-2.905-3.706-3.605-7.561-3.445-11.193.11-1.815.464-3.586 1.073-5.255.541-1.699 1.507-3.221 2.884-4.454 2.811-2.491 7.159-3.536 9.622-5.64 2.549-2.089 4.061-4.962 5.484-8.51 1.383-3.581 3.54-6.771 6.384-8.998 2.717-2.407 5.742-4.653 9.259-5.648 7.004-1.816 15.071-.985 21.469 4.886l.023 1.844c-5.895 6.026-10.075 9.221-14.578 11.719-2.238 1.162-4.785 1.56-7.374 2.254-2.461.873-5.343 1.241-8.643 1.641-3.26.431-6.073 1.958-7.439 4.605-1.453 2.633-.613 6.66-.859 9.5-.133 1.444-.581 2.649-1.355 3.728-.669 1.126-1.492 2.192-2.456 3.258-1.949 2.139-4.26 4.24-8.233 6.586z" fill="#72c94a"/></g><g><path d="m245.808 274.838c-3.36-9.035-4.761-18.195-5.475-27.334-.507-9.119-.705-18.308 1.14-27.188 1.905-8.88 5.675-17.334 7.177-26.105 1.639-8.758 1.751-17.8 1.295-27.115-.184-4.643-.401-9.325-.305-13.939.039-4.631.551-9.14.942-13.693.887-9.069 1.895-18.17 4.023-26.854 4.473-17.25 10.914-33.797 21.254-47.623l1.72.899c.736 19.483-1.235 36.866-4.023 53.98-1.466 8.513-3.804 16.701-6.006 25.005-1.96 8.376-4.638 16.563-7.684 24.774-1.372 4.143-2.76 8.312-3.661 12.606-.863 4.303-1.495 8.67-1.668 13.12-.393 8.911 1.74 18.186 2.241 27.07.3 4.456.115 8.83-.392 13.176-.372 4.361-.962 8.703-1.713 13.047-.687 4.349-1.572 8.697-2.723 13.059-1.129 4.363-2.379 8.744-4.298 13.156z" fill="#7ede52"/></g><g><path d="m247.182 277.409c-5.202-.133-9.077-1.452-12.611-3.124-1.77-.83-3.411-1.786-4.915-2.9-1.592-1.01-2.926-2.318-3.994-3.972-2.154-3.268-3.333-7.935-6.066-10.67-2.696-2.767-6.372-4.235-10.491-4.893-4.166-.594-8.029-1.484-11.452-3.034-3.555-1.347-7.113-2.592-10.198-4.675-6.107-4.325-11.662-9.605-16.221-18.153l.758-1.682c9.497-2.219 17.723-.559 25.072 2.635 3.631 1.699 6.718 4.356 9.739 7.031 1.492 1.368 3.031 2.654 4.332 4.29 1.335 1.583 2.466 3.451 3.634 5.225 2.248 3.686 4.86 6.675 8.372 8.476 3.442 1.877 8.355 1.931 12.207 3.494 3.816 1.595 6.39 4.757 8.739 8.065 2.223 3.453 4.01 7.362 4.376 12.56z" fill="#7ede52"/></g><g><path d="m249.023 280.034c-5.687-9.26-9.606-19.224-12.993-29.4-1.673-5.097-3.174-10.262-4.475-15.505-1.376-5.215-2.416-10.563-3.004-16.091-1.183-11.054-.669-22.784-2.466-33.593-1.698-10.849-4.99-21.063-8.979-30.999-4.044-9.914-7.733-19.97-10.507-30.39-3.006-10.327-6.035-20.646-8.076-31.358-2.011-10.724-3.558-21.633-4.509-32.78-.935-11.152-1.596-22.415-.909-34.213l1.769-.705c5.346 9.395 9.345 19.327 13.07 29.369 3.709 10.048 6.822 20.332 9.471 30.803 2.619 10.482 4.25 21.357 5.904 32.224 1.885 10.774 2.856 21.912 3.472 33.192.671 11.258 2.038 22.238 5 32.584 2.863 10.385 8.036 19.849 11.514 29.989 1.742 5.068 3.032 10.317 3.986 15.699 1.029 5.353 1.857 10.786 2.515 16.286 1.273 11.018 2.014 22.249.986 34.183z" fill="#7ede52"/></g><g><path d="m252.057 268.045c-4.142-5.666-4.803-13.953-3.679-20.886.565-3.511 1.534-6.829 2.799-9.848 1.181-3.089 2.835-5.743 4.856-7.898 4.1-4.334 9.491-6.431 13.148-10.455 3.744-3.906 6.394-9.013 8.765-14.78 2.307-5.84 5.174-11.213 8.765-15.573 3.422-4.603 7.046-9.067 11.355-12.306 8.688-6.273 18.686-10.233 29.901-8.804l.799 2.07c-5.947 11.791-12.524 19.715-19.533 26.94-3.544 3.494-7.597 6.094-11.57 8.99-3.855 3.059-8.159 5.53-12.791 7.834-4.616 2.317-8.577 5.783-11.289 10.612-2.726 4.791-3.579 11.694-5.187 16.873-.819 2.612-1.866 4.863-3.095 6.896-1.155 2.096-2.359 4.079-3.58 6.073-2.427 4.062-4.849 7.81-7.835 13.972z" fill="#91ff5e"/></g><g><path d="m248.905 277.505c-1.091-4.761-.061-8.791 1.694-12.26.906-1.72 2.024-3.301 3.34-4.683 1.268-1.435 2.86-2.535 4.717-3.2 3.78-1.331 8.407-.697 11.734-1.758 3.402-1.012 6.177-3.133 9.16-5.882 2.959-2.795 6.486-4.892 10.253-5.801 3.724-1.125 7.67-1.947 11.551-1.398 7.662 1.244 15.205 5.462 19.051 13.671l-.746 1.687c-8.33 2.824-13.933 3.903-19.552 4.305-2.76.127-5.491-.542-8.382-.933-2.846-.176-5.871-.957-9.29-1.851-3.395-.848-6.822-.483-9.356 1.512-2.609 1.947-3.654 6.109-5.201 8.766-.792 1.349-1.775 2.355-3.005 3.121-1.151.854-2.414 1.594-3.805 2.283-2.803 1.381-5.904 2.6-10.615 3.425z" fill="#7ede52"/></g><g><path d="m244.4 275.576c-4.334-6.06-6.831-12.676-8.689-19.443-.909-3.389-1.628-6.827-2.123-10.31-.568-3.469-.784-7.008-.499-10.623.544-7.234 2.925-14.672 2.986-21.723.149-7.071-1.262-13.927-3.358-20.792-2.195-6.854-3.818-13.832-4.549-20.887-.906-7.098-1.839-13.978-1.578-21.421.316-7.42 1.415-15.299 3.914-22.819 2.566-7.394 6.527-14.675 12.265-18.017l1.489 1.482c-.322 7.994-.026 14.104.546 20.383.524 6.208 1.166 12.358 1.488 18.895.334 6.527-.194 13.609-.704 20.471-.255 6.9-1.333 13.873-2.796 20.955-1.363 7.068-1.954 14.139-.794 20.971 1.041 6.856 4.548 13.305 6.36 19.935.902 3.321 1.366 6.705 1.488 10.158.204 3.437.218 6.912.071 10.431-.34 7.05-1.138 14.214-3.701 21.914z" fill="#91ff5e"/></g></g><g><g><path d="m235.258 361.489c-12.591-.37-24.121-4.52-33.668-11.715-.876-4.012-1.752-7.84-2.537-11.483 9.363 10.1 22.184 15.865 36.204 16.28 4.428.138 4.428 7.056.001 6.918z" fill="#ff7f29"/></g></g><g><g><path d="m265.659 363.478c6.24-1.513 12.481-3.026 18.722-4.539 4.325-1.048 2.494-7.721-1.839-6.671-6.241 1.513-12.482 3.026-18.722 4.539-4.325 1.048-2.494 7.721 1.839 6.671z" fill="#ff7f29"/></g></g><g><g><path d="m258.945 391.067c6.253-1.656 12.506-3.312 18.759-4.967 4.3-1.139 2.476-7.813-1.839-6.671-6.253 1.655-12.506 3.311-18.759 4.967-4.3 1.138-2.476 7.813 1.839 6.671z" fill="#ff7f29"/></g></g><g><g><path d="m225.025 387.429c3.215.19 6.43.378 9.645.567 4.447.262 4.432-6.657 0-6.918-3.215-.189-6.43-.378-9.645-.567-4.447-.261-4.432 6.658 0 6.918z" fill="#ff7f29"/></g></g><g><g><path d="m238.644 418.538c4.162.135 8.325.27 12.487.404 4.453.144 4.448-6.774 0-6.918-4.162-.135-8.325-.269-12.487-.404-4.453-.143-4.447 6.774 0 6.918z" fill="#ff7f29"/></g></g><g><g><path d="m281.562 405.302c-.646 2.537-1.292 5.028-1.983 7.564-2.306.599-4.659 1.153-6.964 1.706-4.335 1.061-6.18-5.627-1.845-6.641 3.597-.876 7.194-1.753 10.792-2.629z" fill="#ff7f29"/></g></g><g><g><path d="m238.164 446.302c-4.151-.831-8.348-1.614-12.499-2.445-.692-2.444-1.337-4.935-2.029-7.425 5.442 1.061 10.93 2.121 16.372 3.182 4.382.877 2.536 7.519-1.844 6.688z" fill="#ff7f29"/></g></g><g><g><path d="m272.984 437.724c-.599 2.306-1.245 4.612-1.845 6.872-4.796-.092-9.593-.277-14.343-.416-4.474-.138-4.474-7.056 0-6.918 5.396.185 10.791.324 16.188.462z" fill="#ff7f29"/></g></g></g></svg>