<svg id="Layer_1" enable-background="new 0 0 500 500" viewBox="0 0 500 500" xmlns="http://www.w3.org/2000/svg"><g><g><g enable-background="new"><g><g><path d="m416.207 256.299-.033 11.549-9.975 5.797.032-11.55z" fill="#78603b"/></g></g><g><g><path d="m406.231 262.095-.032 11.55-316.255-182.59.033-11.549z" fill="#997b4b"/></g></g><g><g><path d="m416.207 256.299-9.976 5.796-316.254-182.589 9.975-5.797z" fill="#b59259"/></g></g></g></g><g><g enable-background="new"><g><g><path d="m416.207 375.344-.033 11.549-9.975 5.797.032-11.549z" fill="#78603b"/></g></g><g><g><path d="m406.231 381.141-.032 11.549-316.255-182.59.033-11.549z" fill="#997b4b"/></g></g><g><g><path d="m416.207 375.344-9.976 5.797-316.254-182.59 9.975-5.797z" fill="#b59259"/></g></g></g></g><g><g><path d="m98.888 249.007c-.153.131-.329.227-.467.381.135-.151.309-.245.459-.374.002-.003.005-.006.008-.007z" fill="#997b4b"/></g><g><path d="m97.042 252.342v.004z" fill="#997b4b"/></g><g><path d="m96.852 254.344v.001.001-.001z" fill="#997b4b"/></g><g><path d="m104.142 248.275c-.19-.065-.362-.071-.548-.121-.032-.008-.063-.013-.095-.021.217.055.42.066.643.142z" fill="#78603b"/></g><g><path d="m102.428 247.901c-.001 0-.001 0 0 0-.218-.019-.41.025-.618.03-.011 0-.021.001-.031.001.218-.006.42-.051.649-.031z" fill="#78603b"/></g><g><path d="" fill="#78603b"/></g><g><path d="m102.38 267.189c-2.175-2.315-3.913-5.325-4.826-8.359.914 3.034 2.652 6.044 4.826 8.359z" fill="#78603b"/></g><g><path d="m99.526 248.486c-.236.136-.429.34-.638.52-.003.002-.006.004-.008.007.211-.182.407-.389.646-.527z" fill="#78603b"/></g><g><path d="m96.852 254.345c-.002.669.063 1.357.165 2.051-.102-.694-.167-1.382-.165-2.051z" fill="#78603b"/></g><g><path d="m97.042 252.346c-.123.611-.188 1.278-.19 1.999.001-.722.067-1.387.19-1.999z" fill="#78603b"/></g><g><path d="m100.877 247.979c-.21.043-.388.149-.585.218-.004.001-.008.003-.013.005.201-.072.384-.18.598-.223z" fill="#78603b"/></g><g><path d="m105.981 249.122c-.63-.364-1.246-.645-1.84-.847 0 0 0 .001.001.001.594.202 1.209.483 1.839.846z" fill="#bababa"/></g><g><path d="m103.499 248.134c.032.008.063.013.095.021-.395-.104-.795-.22-1.167-.254h.001c.341.031.71.143 1.071.233z" fill="#bababa"/></g><g><path d="m100.887 247.975-.01.004z" fill="#bababa"/></g><g><path d="m101.81 247.931c-.312.007-.634-.014-.923.044.279-.056.591-.035.892-.043.01 0 .02-.001.031-.001z" fill="#bababa"/></g><g><path d="m100.279 248.201c.004-.001.008-.004.013-.005-.254.089-.525.148-.755.281v.001c-.004.002-.007.007-.01.008.23-.132.498-.195.752-.285z" fill="#bababa"/></g><g><path d="m114.886 262.802c-.782-5.306-4.457-11.113-8.905-13.68 4.448 2.568 8.122 8.374 8.905 13.68z" fill="#bababa"/></g><g><path d="m113.482 269.804c.657-.735 1.133-1.726 1.379-2.949.123-.611.189-1.28.191-2.002.002-.669-.063-1.356-.165-2.051-.783-5.306-4.457-11.113-8.905-13.68-.63-.363-1.245-.644-1.839-.847-.223-.076-.426-.087-.643-.141-.361-.09-.73-.202-1.071-.233-.229-.02-.431.025-.65.031-.3.008-.613-.013-.892.043-.003.001-.006.003-.009.004-.215.043-.397.152-.598.223-.254.09-.523.152-.753.285-.239.137-.435.345-.646.527-.15.13-.324.223-.459.374-.657.737-1.133 1.731-1.379 2.955v.004c-.123.611-.188 1.277-.19 1.998v.001c-.002.668.063 1.356.165 2.05.119.805.293 1.62.538 2.434.913 3.034 2.651 6.044 4.826 8.359 1.087 1.158 2.284 2.141 3.541 2.867 3.142 1.815 5.916 1.587 7.559-.252z" fill="#bababa"/></g><g><path d="m118.833 267.036c.023-8.169-5.73-18.133-12.839-22.238-7.11-4.104-12.9-.805-12.923 7.365-.024 8.17 5.729 18.134 12.839 22.238 7.109 4.105 12.899.805 12.923-7.365zm-21.278-8.206c-.245-.815-.419-1.629-.538-2.434-.102-.694-.167-1.382-.165-2.05 0-.001 0-.001 0-.001.002-.721.068-1.387.19-1.999 0-.001 0-.003 0-.004.246-1.223.722-2.217 1.379-2.955.138-.154.314-.25.467-.381.209-.18.402-.385.638-.52.004-.002.007-.006.01-.008 0 0 0 0 0-.001.231-.132.501-.192.755-.281.197-.069.375-.175.585-.218.003-.001.006-.003.009-.004.289-.058.611-.038.923-.044.208-.005.4-.049.617-.03.372.034.772.15 1.167.254.186.049.357.056.547.12.594.202 1.21.483 1.84.847 4.448 2.568 8.123 8.374 8.905 13.68.102.695.167 1.382.165 2.051-.002.722-.068 1.391-.191 2.002-.246 1.223-.722 2.214-1.379 2.949-1.643 1.838-4.417 2.066-7.56.252-1.257-.726-2.454-1.71-3.541-2.867-2.172-2.314-3.91-5.324-4.823-8.358z" fill="#78603b"/></g><g><path d="m99.35 77.718c.008-.007.017-.014.025-.021-.157.134-.336.235-.477.393h.001c.134-.15.303-.244.451-.372z" fill="#997b4b"/></g><g><path d="m97.684 80.544c.007-.026.017-.049.024-.075-.055.194-.139.356-.181.565.037-.181.111-.32.157-.49z" fill="#997b4b"/></g><g><path d="" fill="#997b4b"/></g><g><path d="m98.37 78.9c.009-.015.019-.029.028-.044-.11.18-.245.325-.339.525v-.001c.087-.183.212-.315.311-.48z" fill="#997b4b"/></g><g><path d="m104.625 76.978c-.192-.065-.366-.073-.553-.122-.013-.003-.024-.005-.037-.007.199.05.386.059.59.129z" fill="#78603b"/></g><g><path d="" fill="#78603b"/></g><g><path d="m101.359 76.678c-.203.041-.375.143-.566.209-.004.001-.008.003-.013.005.195-.068.371-.173.579-.214z" fill="#78603b"/></g><g><path d="m97.527 81.033c-.122.609-.188 1.275-.19 1.996.002-.721.068-1.387.19-1.996z" fill="#78603b"/></g><g><path d="m98.06 79.379c-.153.325-.247.714-.352 1.09-.007.026-.017.049-.024.075.11-.406.214-.818.376-1.165z" fill="#78603b"/></g><g><path d="m100.008 77.183c0 .001-.001.001 0 0-.234.135-.426.337-.633.514-.008.007-.017.014-.025.021.214-.186.415-.395.658-.535z" fill="#78603b"/></g><g><path d="m98.899 78.089c-.195.219-.34.503-.501.766-.009.016-.019.029-.028.044.169-.28.324-.579.529-.81z" fill="#78603b"/></g><g><path d="m106.466 77.826c-.631-.364-1.246-.645-1.842-.848h.001c.595.203 1.211.485 1.841.848z" fill="#bababa"/></g><g><path d="m104.035 76.848c.013.003.025.004.037.007-.39-.102-.785-.22-1.152-.254.356.033.739.151 1.115.247z" fill="#bababa"/></g><g><path d="m100.78 76.892c.004-.001.008-.004.013-.005-.26.089-.535.151-.77.285-.006.003-.01.008-.015.012 0 0 .001 0 .001-.001.235-.136.51-.201.771-.291z" fill="#bababa"/></g><g><path d="m101.372 76.672c-.005.001-.009.004-.014.006.005-.001.01-.004.014-.006z" fill="#bababa"/></g><g><path d="m110.851 81.707c1.445 1.758 2.636 3.795 3.457 5.918-.822-2.123-2.012-4.159-3.457-5.918z" fill="#bababa"/></g><g><path d="m115.537 93.537c0-.059-.014-.121-.015-.179.001.058.015.12.015.179z" fill="#bababa"/></g><g><path d="m106.395 103.083c7.11 4.105 12.9.806 12.923-7.364.023-8.169-5.729-18.133-12.839-22.237-7.11-4.105-12.9-.805-12.923 7.364-.023 8.17 5.729 18.133 12.839 22.237zm7.913-15.457c.742 1.919 1.194 3.881 1.215 5.732.001.059.015.121.015.179-.006 2.167-.584 3.849-1.57 4.951s-2.379 1.626-4.014 1.476c-1.09-.1-2.289-.499-3.546-1.225-2.515-1.452-4.786-3.935-6.427-6.777s-2.651-6.044-2.643-8.934c.002-.721.068-1.386.19-1.995.041-.208.126-.37.181-.565.105-.375.2-.765.352-1.089.093-.199.229-.345.339-.525.161-.263.306-.547.5-.766.141-.158.32-.258.477-.393.207-.177.399-.379.632-.513.005-.004.009-.009.015-.012 0-.001 0 0 0 0 .236-.134.511-.196.77-.285.191-.066.363-.168.566-.209.005-.001.009-.004.014-.006.485-.096 1.003-.121 1.548-.071.367.034.762.152 1.152.254.187.049.361.057.552.122.595.203 1.211.485 1.842.848.629.363 1.242.791 1.835 1.272.915.744 1.758 1.645 2.549 2.609 1.444 1.762 2.634 3.798 3.456 5.922z" fill="#78603b"/></g><g><path d="m108.301 79.098c-.592-.481-1.206-.908-1.835-1.272-.631-.364-1.246-.645-1.841-.848-.204-.07-.391-.079-.59-.13-.376-.096-.759-.214-1.115-.246-.545-.05-1.063-.025-1.548.071-.005.001-.009.004-.014.006-.208.041-.383.146-.579.214-.261.09-.535.155-.772.291-.243.14-.444.349-.658.535-.147.128-.317.221-.45.371-.206.231-.361.53-.529.811-.099.166-.225.297-.31.479-.162.347-.267.759-.376 1.165-.046.17-.12.309-.157.489-.122.609-.188 1.275-.19 1.996-.008 2.889 1.002 6.092 2.643 8.934s3.912 5.326 6.427 6.777c1.257.726 2.456 1.125 3.546 1.225 1.635.15 3.028-.374 4.014-1.476s1.564-2.784 1.57-4.951c0-.059-.014-.121-.015-.179-.021-1.851-.473-3.813-1.215-5.732-.821-2.124-2.012-4.16-3.457-5.918-.791-.967-1.633-1.868-2.549-2.612z" fill="#bababa"/></g><g><path d="m106.6 30.802-31.732 26.552-.622 219.026 63.211 36.495.621-219.025zm-.121 42.68c7.11 4.104 12.862 14.068 12.839 22.237-.023 8.17-5.813 11.469-12.923 7.364-7.11-4.104-12.862-14.067-12.839-22.237.023-8.169 5.813-11.469 12.923-7.364zm-.57 200.919c-7.11-4.104-12.862-14.068-12.839-22.238s5.813-11.469 12.923-7.365c7.11 4.105 12.862 14.069 12.839 22.238-.023 8.17-5.813 11.47-12.923 7.365z" fill="#997b4b"/></g><g><path d="m148.064 88.047-31.479-63.047-9.985 5.802 31.479 63.048z" fill="#b59259"/></g><g><path d="m138.079 93.85-.622 219.025 9.986-5.802.621-219.026z" fill="#78603b"/></g></g><g><g><path d="m191.451 303.048c-.153.131-.33.227-.467.381.135-.151.309-.245.459-.374.003-.003.006-.005.008-.007z" fill="#997b4b"/></g><g><path d="m189.605 306.384v.004z" fill="#997b4b"/></g><g><path d="m189.415 308.386-.001.001h.001z" fill="#997b4b"/></g><g><path d="m196.705 302.317c-.001 0-.001 0-.001 0-.189-.065-.362-.071-.547-.12-.032-.008-.063-.013-.096-.021.218.054.421.065.644.141z" fill="#78603b"/></g><g><path d="m194.991 301.942c-.217-.019-.41.025-.618.03-.01 0-.02 0-.031.001.218-.006.42-.05.649-.031z" fill="#78603b"/></g><g><path d="m192.099 302.52v-.001z" fill="#78603b"/></g><g><path d="m194.944 321.23c-2.175-2.315-3.913-5.325-4.826-8.359.913 3.035 2.651 6.044 4.826 8.359z" fill="#78603b"/></g><g><path d="m192.089 302.528c-.236.136-.429.34-.638.52-.003.002-.006.004-.008.007.211-.183.407-.389.646-.527z" fill="#78603b"/></g><g><path d="m189.415 308.387c-.002.669.063 1.356.165 2.05-.103-.694-.167-1.381-.165-2.05z" fill="#78603b"/></g><g><path d="m189.605 306.388c-.123.611-.188 1.278-.191 1.999l.001-.001c.002-.721.067-1.387.19-1.998z" fill="#78603b"/></g><g><path d="m193.441 302.02c-.21.043-.388.149-.585.218-.004.001-.008.003-.013.005.201-.071.383-.18.598-.223z" fill="#78603b"/></g><g><path d="m198.544 303.164c-.631-.364-1.246-.645-1.84-.847h.001c.594.203 1.209.483 1.839.847z" fill="#bababa"/></g><g><path d="m196.062 302.176c.033.008.064.013.096.021-.396-.104-.795-.221-1.167-.254h.001c.341.03.709.143 1.07.233z" fill="#bababa"/></g><g><path d="m193.449 302.017-.008.003z" fill="#bababa"/></g><g><path d="m194.372 301.973c-.311.006-.634-.014-.923.044.28-.056.592-.035.892-.043.011-.001.021-.001.031-.001z" fill="#bababa"/></g><g><path d="m192.843 302.243c.004-.001.008-.003.013-.005-.255.089-.525.148-.756.281v.001c-.004.002-.007.006-.011.008h.001c.23-.133.498-.195.753-.285z" fill="#bababa"/></g><g><path d="m207.449 316.844c-.782-5.306-4.457-11.112-8.905-13.68 4.448 2.567 8.122 8.374 8.905 13.68z" fill="#bababa"/></g><g><path d="m206.045 323.846c.657-.735 1.133-1.726 1.379-2.949.123-.611.188-1.28.191-2.002.002-.669-.063-1.356-.165-2.051-.783-5.306-4.457-11.112-8.905-13.68-.63-.363-1.245-.644-1.839-.847-.223-.076-.426-.087-.643-.141-.361-.09-.729-.203-1.071-.233-.228-.02-.431.025-.649.031-.3.008-.612-.013-.892.043-.003 0-.006.002-.009.003-.215.043-.397.152-.598.223-.254.09-.523.152-.753.285-.239.138-.435.345-.646.527-.15.129-.324.223-.459.374-.657.737-1.133 1.732-1.379 2.955v.004c-.123.611-.188 1.277-.19 1.998v.001c-.002.668.063 1.356.165 2.05.119.805.292 1.62.538 2.434.913 3.034 2.651 6.044 4.826 8.359 1.087 1.158 2.284 2.141 3.541 2.867 3.141 1.815 5.915 1.587 7.558-.251z" fill="#bababa"/></g><g><path d="m211.395 321.077c.023-8.169-5.729-18.133-12.839-22.238-7.11-4.104-12.9-.805-12.923 7.365s5.73 18.134 12.839 22.238c7.11 4.105 12.9.806 12.923-7.365zm-21.277-8.206c-.245-.815-.419-1.629-.538-2.434-.103-.694-.168-1.382-.166-2.05.002-.721.068-1.388.191-1.999 0-.001 0-.002 0-.004.246-1.223.722-2.217 1.379-2.955.137-.154.314-.25.467-.381.209-.18.402-.385.637-.52.004-.002.007-.006.011-.008 0 0 0 0 0-.001.231-.132.501-.192.756-.281.197-.069.375-.175.585-.218.003-.001.006-.003.009-.003.289-.058.612-.038.923-.044.209-.005.401-.049.618-.03.372.033.772.15 1.167.254.185.049.357.055.547.12.594.202 1.209.484 1.84.847 4.448 2.568 8.123 8.374 8.905 13.68.102.694.167 1.382.165 2.051-.002.722-.068 1.391-.191 2.002-.246 1.223-.722 2.214-1.379 2.949-1.643 1.838-4.417 2.066-7.56.252-1.257-.726-2.454-1.71-3.541-2.867-2.174-2.316-3.912-5.325-4.825-8.36z" fill="#78603b"/></g><g><path d="m191.913 131.76c.008-.008.017-.014.026-.021-.157.134-.336.235-.477.393 0-.001.001-.001.001-.001.132-.15.302-.243.45-.371z" fill="#997b4b"/></g><g><path d="m190.247 134.585c.007-.026.016-.049.024-.075-.055.195-.139.357-.18.565.036-.18.11-.32.156-.49z" fill="#997b4b"/></g><g><path d="" fill="#997b4b"/></g><g><path d="m190.933 132.942c.009-.016.019-.029.028-.044-.11.179-.245.325-.339.524v-.001c.087-.183.212-.314.311-.479z" fill="#997b4b"/></g><g><path d="m197.188 131.02c-.192-.066-.366-.073-.553-.123-.013-.003-.025-.005-.037-.008.2.052.386.061.59.131z" fill="#78603b"/></g><g><path d="" fill="#78603b"/></g><g><path d="m193.922 130.719c-.203.041-.375.143-.566.209-.004.001-.008.003-.012.005.194-.068.37-.172.578-.214z" fill="#78603b"/></g><g><path d="m190.09 135.074c-.122.609-.188 1.276-.19 1.996.002-.72.068-1.386.19-1.996z" fill="#78603b"/></g><g><path d="m190.623 133.421c-.152.325-.246.714-.352 1.089-.007.026-.016.049-.024.075.11-.405.214-.817.376-1.164z" fill="#78603b"/></g><g><path d="m192.571 131.224c0 .001-.001.001 0 0-.234.135-.425.337-.632.514-.008.008-.018.014-.026.021.214-.186.415-.394.658-.535z" fill="#78603b"/></g><g><path d="m191.462 132.131c-.195.219-.34.503-.501.767-.009.015-.019.029-.028.044.169-.281.324-.58.529-.811z" fill="#78603b"/></g><g><path d="m199.03 131.868c-.631-.364-1.247-.646-1.842-.848.595.203 1.211.484 1.842.848z" fill="#bababa"/></g><g><path d="m196.598 130.889c.012.003.025.004.037.008-.39-.102-.785-.22-1.152-.254.356.033.739.15 1.115.246z" fill="#bababa"/></g><g><path d="m193.343 130.933c.004-.001.008-.003.012-.005-.26.089-.535.151-.77.285-.005.003-.009.008-.015.012 0 0 .001 0 .001-.001.237-.135.511-.2.772-.291z" fill="#bababa"/></g><g><path d="m193.936 130.714c-.005.001-.009.004-.014.006.004-.002.008-.005.014-.006z" fill="#bababa"/></g><g><path d="m203.413 135.749c1.446 1.758 2.636 3.795 3.457 5.918-.82-2.124-2.011-4.16-3.457-5.918z" fill="#bababa"/></g><g><path d="m208.1 147.579c0-.059-.014-.121-.014-.179 0 .058.014.12.014.179z" fill="#bababa"/></g><g><path d="m198.958 157.125c7.11 4.105 12.9.806 12.923-7.364.023-8.169-5.729-18.133-12.839-22.238s-12.9-.805-12.923 7.364c-.023 8.17 5.729 18.134 12.839 22.238zm7.913-15.458c.742 1.919 1.194 3.881 1.215 5.732 0 .059.014.121.014.179-.006 2.167-.585 3.849-1.57 4.951-.986 1.102-2.379 1.626-4.014 1.476-1.091-.1-2.289-.499-3.546-1.225-2.515-1.452-4.786-3.935-6.427-6.777s-2.651-6.044-2.643-8.934c.002-.72.068-1.386.19-1.995.042-.208.126-.37.18-.565.106-.375.2-.765.352-1.089.093-.199.229-.345.339-.524.161-.263.306-.548.5-.766.141-.158.32-.258.477-.393.207-.177.398-.379.632-.513.005-.004.009-.009.015-.012 0-.001 0 0 0 0 .236-.134.51-.196.77-.285.191-.066.363-.168.566-.209.005-.001.009-.004.014-.006.485-.096 1.003-.12 1.548-.071.367.033.762.152 1.152.254.187.049.361.057.552.123.595.202 1.211.484 1.842.848.629.363 1.242.791 1.835 1.271.915.744 1.758 1.646 2.549 2.609 1.446 1.761 2.637 3.797 3.458 5.921z" fill="#78603b"/></g><g><path d="m200.864 133.139c-.592-.481-1.206-.908-1.835-1.271-.631-.364-1.247-.645-1.841-.848-.205-.07-.391-.079-.59-.13-.377-.096-.76-.214-1.115-.246-.545-.049-1.063-.025-1.548.071-.005.001-.009.004-.014.006-.208.041-.384.146-.579.214-.261.09-.535.155-.772.291-.243.141-.444.349-.658.535-.148.128-.317.221-.451.371-.205.231-.361.53-.529.811-.099.165-.225.297-.31.479-.162.347-.266.759-.376 1.164-.046.17-.12.309-.157.489-.122.609-.188 1.276-.19 1.996-.008 2.889 1.002 6.092 2.643 8.934s3.913 5.326 6.427 6.777c1.257.726 2.455 1.125 3.546 1.225 1.635.15 3.028-.374 4.014-1.476.985-1.102 1.563-2.784 1.57-4.951 0-.059-.014-.121-.014-.179-.021-1.851-.473-3.813-1.215-5.732-.821-2.124-2.012-4.16-3.457-5.918-.791-.966-1.633-1.868-2.549-2.612z" fill="#bababa"/></g><g><path d="m199.163 84.844-31.733 26.552-.621 219.026 63.211 36.495.621-219.025zm-.121 42.679c7.11 4.104 12.862 14.068 12.839 22.238-.024 8.17-5.813 11.469-12.923 7.364-7.11-4.104-12.862-14.068-12.839-22.238.023-8.169 5.813-11.468 12.923-7.364zm-.569 200.919c-7.11-4.104-12.862-14.068-12.839-22.238s5.813-11.469 12.923-7.365c7.11 4.105 12.862 14.069 12.839 22.238-.024 8.171-5.814 11.47-12.923 7.365z" fill="#997b4b"/></g><g><path d="m240.627 142.088-31.478-63.047-9.986 5.803 31.479 63.047z" fill="#b59259"/></g><g><path d="m230.642 147.891-.621 219.026 9.985-5.803.621-219.026z" fill="#78603b"/></g></g><g><g><path d="m284.014 357.09c-.153.131-.329.227-.467.381.135-.151.309-.245.459-.374.003-.003.006-.006.008-.007z" fill="#997b4b"/></g><g><path d="m282.168 360.426v.004z" fill="#997b4b"/></g><g><path d="m281.977 362.427v.001.001-.001z" fill="#997b4b"/></g><g><path d="m289.268 356.358c-.19-.065-.362-.071-.547-.12-.032-.008-.063-.013-.095-.021.216.054.419.066.642.141z" fill="#78603b"/></g><g><path d="m287.554 355.984c-.218-.019-.41.025-.618.03-.01 0-.021 0-.031.001.218-.006.421-.051.649-.031z" fill="#78603b"/></g><g><path d="m284.662 356.561v-.001c.001.001 0 .001 0 .001z" fill="#78603b"/></g><g><path d="m287.507 375.272c-2.175-2.315-3.912-5.325-4.826-8.359.913 3.034 2.651 6.044 4.826 8.359z" fill="#78603b"/></g><g><path d="m284.652 356.569c-.236.136-.429.34-.638.52-.002.002-.006.004-.008.007.212-.182.407-.389.646-.527z" fill="#78603b"/></g><g><path d="m281.977 362.428c-.002.669.063 1.356.165 2.05-.101-.694-.166-1.381-.165-2.05z" fill="#78603b"/></g><g><path d="m282.168 360.43c-.122.611-.188 1.277-.19 1.999v-.001c.002-.722.067-1.388.19-1.998z" fill="#78603b"/></g><g><path d="m286.003 356.062c-.21.043-.388.149-.585.218-.005.001-.008.003-.013.005.202-.072.384-.18.598-.223z" fill="#78603b"/></g><g><path d="m291.107 357.205c-.63-.364-1.245-.645-1.839-.847v.001c.594.202 1.209.483 1.839.846z" fill="#bababa"/></g><g><path d="m288.625 356.217c.032.008.063.012.095.021-.396-.104-.795-.221-1.167-.254.343.03.711.144 1.072.233z" fill="#bababa"/></g><g><path d="m286.013 356.058-.01.004z" fill="#bababa"/></g><g><path d="m286.936 356.014c-.311.006-.634-.014-.923.044.279-.056.591-.035.892-.043.01-.001.02-.001.031-.001z" fill="#bababa"/></g><g><path d="m285.406 356.284c.004-.001.008-.003.013-.005-.255.089-.525.149-.756.281v.001c-.004.002-.007.006-.01.008.23-.133.498-.195.753-.285z" fill="#bababa"/></g><g><path d="m300.012 370.885c-.782-5.306-4.457-11.113-8.905-13.68 4.448 2.568 8.123 8.374 8.905 13.68z" fill="#bababa"/></g><g><path d="m298.608 377.887c.657-.735 1.133-1.726 1.379-2.949.123-.611.188-1.28.19-2.002.002-.669-.063-1.357-.165-2.051-.782-5.306-4.457-11.113-8.905-13.68-.63-.363-1.245-.644-1.839-.847-.223-.076-.426-.087-.643-.141-.361-.09-.729-.203-1.071-.234-.228-.02-.431.025-.649.032-.301.008-.613-.013-.892.043-.003.001-.006.003-.009.003-.214.044-.396.152-.598.223-.254.09-.523.152-.753.285-.239.138-.435.345-.646.527-.15.129-.324.223-.459.374-.657.737-1.133 1.731-1.379 2.955-.001.001 0 .003-.001.004-.122.611-.188 1.277-.19 1.998v.001c-.002.668.063 1.356.165 2.05.119.805.293 1.62.538 2.434.914 3.034 2.651 6.045 4.826 8.359 1.087 1.158 2.284 2.141 3.541 2.867 3.143 1.816 5.917 1.588 7.56-.251z" fill="#bababa"/></g><g><path d="m303.959 375.119c.023-8.169-5.729-18.133-12.839-22.238-7.11-4.104-12.9-.805-12.923 7.365s5.729 18.134 12.839 22.238c7.11 4.105 12.899.805 12.923-7.365zm-21.278-8.206c-.245-.815-.419-1.629-.538-2.434-.102-.694-.167-1.382-.165-2.05.002-.721.068-1.388.19-1.999.001-.001 0-.003.001-.004.246-1.223.722-2.217 1.379-2.955.138-.154.314-.25.467-.381.209-.18.402-.385.638-.52.004-.002.007-.006.01-.008 0 0 0 0 0-.001.231-.132.501-.192.756-.281.197-.069.375-.175.585-.218.003-.001.006-.003.009-.003.289-.058.612-.038.923-.044.208-.005.4-.049.618-.03.372.034.772.15 1.167.254.185.049.357.055.547.12.594.203 1.209.484 1.839.847 4.448 2.568 8.123 8.374 8.905 13.68.103.694.168 1.382.165 2.051-.002.722-.067 1.391-.19 2.002-.246 1.222-.722 2.214-1.379 2.949-1.643 1.838-4.416 2.067-7.56.252-1.257-.726-2.454-1.71-3.541-2.867-2.175-2.316-3.913-5.326-4.826-8.36z" fill="#78603b"/></g><g><path d="m284.476 185.801c.008-.007.017-.014.026-.021-.157.134-.336.235-.477.393 0-.001 0-.001 0-.001.134-.149.303-.243.451-.371z" fill="#997b4b"/></g><g><path d="m282.81 188.627c.007-.026.017-.049.024-.075-.055.195-.139.356-.181.565.036-.181.111-.32.157-.49z" fill="#997b4b"/></g><g><path d="" fill="#997b4b"/></g><g><path d="m283.497 186.983c.009-.016.019-.029.028-.044-.11.18-.246.325-.339.524l.001-.001c.085-.182.21-.314.31-.479z" fill="#997b4b"/></g><g><path d="m289.752 185.061c-.001 0-.001 0 0 0-.192-.066-.366-.073-.553-.122-.013-.004-.025-.005-.038-.008.2.051.386.06.591.13z" fill="#78603b"/></g><g><path d="" fill="#78603b"/></g><g><path d="m286.485 184.761c-.204.041-.375.143-.567.209-.004.001-.008.003-.012.005.195-.068.371-.173.579-.214z" fill="#78603b"/></g><g><path d="m282.654 189.116c-.001 0-.001 0 0 0-.122.609-.188 1.276-.19 1.996.001-.72.067-1.387.19-1.996z" fill="#78603b"/></g><g><path d="m283.186 187.463c-.152.324-.246.714-.352 1.089-.007.026-.017.048-.024.075.11-.406.214-.818.376-1.164z" fill="#78603b"/></g><g><path d="m285.134 185.266c0 .001 0 .001-.001.001-.233.134-.425.336-.632.513-.008.008-.017.014-.026.021.215-.186.416-.394.659-.535z" fill="#78603b"/></g><g><path d="m284.025 186.172c-.195.219-.34.503-.501.767-.009.015-.019.029-.028.044.169-.281.324-.579.529-.811z" fill="#78603b"/></g><g><path d="m291.593 185.91c-.631-.364-1.247-.646-1.842-.848h.001c.594.203 1.21.484 1.841.848z" fill="#bababa"/></g><g><path d="m289.161 184.931c.013.003.025.004.038.008-.39-.103-.785-.221-1.152-.254.355.032.738.15 1.114.246z" fill="#bababa"/></g><g><path d="m285.906 184.975c.004-.001.008-.003.012-.005-.26.089-.535.151-.77.285-.006.003-.009.008-.015.012.001 0 .001 0 .001-.001.236-.135.511-.201.772-.291z" fill="#bababa"/></g><g><path d="m286.498 184.755c-.005.002-.008.004-.013.006.005-.001.008-.004.013-.006z" fill="#bababa"/></g><g><path d="m295.977 189.79c1.446 1.758 2.636 3.795 3.457 5.918-.822-2.123-2.012-4.159-3.457-5.918z" fill="#bababa"/></g><g><path d="m300.663 201.62c0-.059-.014-.12-.014-.179.001.058.014.12.014.179z" fill="#bababa"/></g><g><path d="m291.521 211.167c7.11 4.105 12.9.806 12.923-7.364.023-8.169-5.729-18.133-12.839-22.238s-12.9-.805-12.923 7.364c-.023 8.17 5.729 18.133 12.839 22.238zm7.913-15.458c.742 1.919 1.194 3.882 1.215 5.732 0 .059.014.12.014.179-.006 2.167-.584 3.849-1.57 4.951-.985 1.102-2.378 1.626-4.014 1.476-1.09-.1-2.289-.499-3.546-1.225-2.515-1.452-4.786-3.934-6.427-6.777-1.641-2.842-2.651-6.044-2.643-8.934.002-.72.068-1.386.19-1.995.042-.208.126-.37.181-.565.106-.375.2-.765.352-1.089.093-.199.229-.344.339-.524.161-.263.306-.547.5-.766.141-.158.319-.258.477-.393.207-.177.398-.379.632-.513.006-.003.009-.009.015-.012 0-.001 0 0 0 0 .235-.134.51-.196.77-.285.191-.066.363-.168.567-.209.005-.001.008-.004.013-.006.486-.095 1.004-.12 1.549-.071.367.033.762.152 1.152.254.187.049.361.057.552.122.595.202 1.211.484 1.842.848.629.363 1.242.791 1.834 1.271.916.744 1.758 1.646 2.549 2.609 1.445 1.762 2.635 3.798 3.457 5.922z" fill="#78603b"/></g><g><path d="m293.427 187.181c-.592-.481-1.206-.908-1.834-1.271-.631-.364-1.246-.645-1.841-.848-.205-.07-.391-.079-.591-.13-.376-.096-.759-.214-1.114-.246-.545-.049-1.063-.024-1.549.071-.005.002-.008.004-.013.006-.208.041-.384.146-.579.214-.261.09-.536.156-.772.291-.243.141-.444.349-.658.535-.147.128-.317.222-.45.371-.205.231-.361.53-.529.811-.099.165-.225.297-.31.479-.163.347-.266.759-.376 1.164-.046.17-.121.309-.156.489-.122.609-.188 1.276-.19 1.996-.009 2.89 1.002 6.092 2.643 8.934 1.641 2.843 3.913 5.326 6.427 6.777 1.257.726 2.455 1.125 3.546 1.225 1.635.15 3.028-.374 4.014-1.476s1.564-2.784 1.57-4.951c0-.059-.014-.12-.014-.179-.021-1.85-.473-3.813-1.215-5.732-.822-2.124-2.012-4.16-3.457-5.918-.794-.966-1.636-1.868-2.552-2.612z" fill="#bababa"/></g><g><path d="m291.726 138.886-31.733 26.551-.621 219.026 63.212 36.495.621-219.025zm-.121 42.679c7.11 4.105 12.862 14.068 12.839 22.238s-5.813 11.469-12.923 7.364c-7.11-4.104-12.862-14.067-12.839-22.238.023-8.169 5.813-11.469 12.923-7.364zm-.57 200.919c-7.11-4.104-12.862-14.068-12.839-22.238s5.813-11.469 12.923-7.365c7.11 4.105 12.862 14.069 12.839 22.238-.023 8.17-5.812 11.47-12.923 7.365z" fill="#997b4b"/></g><g><path d="m333.19 196.13-31.479-63.047-9.985 5.803 31.479 63.047z" fill="#b59259"/></g><g><path d="m323.205 201.933-.621 219.025 9.985-5.803.621-219.025z" fill="#78603b"/></g></g><g><g><path d="m376.577 411.131c-.153.131-.329.227-.467.381.136-.152.309-.245.459-.374.003-.003.006-.004.008-.007z" fill="#997b4b"/></g><g><path d="m374.731 414.467v.004z" fill="#997b4b"/></g><g><path d="m374.541 416.469v.001z" fill="#997b4b"/></g><g><path d="m381.831 410.4c-.19-.065-.362-.071-.548-.12-.032-.008-.063-.013-.095-.021.217.054.421.065.643.141z" fill="#78603b"/></g><g><path d="m380.117 410.026c-.218-.02-.41.025-.618.03-.011 0-.021 0-.031.001.218-.007.421-.051.649-.031z" fill="#78603b"/></g><g><path d="" fill="#78603b"/></g><g><path d="m380.07 429.313c-2.175-2.314-3.913-5.325-4.826-8.359.913 3.035 2.651 6.045 4.826 8.359z" fill="#78603b"/></g><g><path d="m377.215 410.611c-.236.136-.429.34-.638.52-.003.002-.006.004-.008.007.211-.182.408-.389.646-.527z" fill="#78603b"/></g><g><path d="m374.541 416.47c-.002.669.063 1.357.165 2.05-.102-.693-.167-1.382-.165-2.05z" fill="#78603b"/></g><g><path d="m374.731 414.471c-.122.611-.188 1.277-.19 1.998v-.001c.002-.72.068-1.386.19-1.997z" fill="#78603b"/></g><g><path d="m378.567 410.103c-.21.043-.388.149-.585.218-.004.001-.008.003-.012.005.2-.071.382-.179.597-.223z" fill="#78603b"/></g><g><path d="m383.67 411.246c-.63-.364-1.246-.645-1.839-.847v.001c.595.203 1.21.483 1.839.846z" fill="#bababa"/></g><g><path d="m381.189 410.259c.032.008.063.012.095.021-.395-.104-.795-.221-1.167-.254h.001c.341.03.709.143 1.071.233z" fill="#bababa"/></g><g><path d="m378.576 410.1-.009.003z" fill="#bababa"/></g><g><path d="m379.499 410.056c-.312.006-.634-.014-.923.044.279-.056.591-.035.892-.043.01-.001.02-.001.031-.001z" fill="#bababa"/></g><g><path d="m377.969 410.326c.004-.001.008-.003.012-.005-.254.089-.525.149-.755.281v.001c-.004.002-.007.006-.01.008.23-.133.499-.195.753-.285z" fill="#bababa"/></g><g><path d="m392.575 424.927c-.782-5.306-4.457-11.112-8.905-13.68 4.448 2.568 8.123 8.374 8.905 13.68z" fill="#bababa"/></g><g><path d="m391.171 431.929c.657-.735 1.133-1.727 1.379-2.949.123-.611.189-1.28.191-2.002.002-.669-.063-1.357-.165-2.051-.782-5.306-4.457-11.112-8.905-13.68-.63-.363-1.245-.644-1.839-.847-.223-.076-.426-.087-.643-.141-.361-.09-.73-.203-1.071-.233-.228-.02-.431.025-.649.031-.3.008-.613-.013-.892.043-.003.001-.006.003-.009.003-.215.044-.397.152-.598.223-.254.09-.523.152-.754.285-.238.138-.435.345-.646.527-.15.129-.324.223-.459.374-.657.737-1.133 1.732-1.379 2.954v.004c-.122.611-.188 1.277-.19 1.998v.001.001c-.002.668.063 1.356.165 2.05.119.805.292 1.619.538 2.435.913 3.034 2.651 6.044 4.826 8.359 1.087 1.158 2.284 2.141 3.541 2.867 3.142 1.815 5.916 1.586 7.559-.252z" fill="#bababa"/></g><g><path d="m396.522 429.16c.023-8.169-5.73-18.133-12.839-22.238-7.11-4.104-12.9-.805-12.923 7.365-.024 8.17 5.729 18.134 12.839 22.238 7.109 4.105 12.899.806 12.923-7.365zm-21.278-8.205c-.245-.815-.419-1.629-.538-2.435-.102-.694-.167-1.382-.165-2.05 0-.001 0-.001 0-.001.002-.721.068-1.388.19-1.998 0-.001 0-.003 0-.004.246-1.223.722-2.217 1.379-2.954.138-.154.314-.25.467-.381.209-.18.402-.385.638-.52.004-.002.007-.006.01-.008 0 0 0 0 0-.001.231-.132.501-.192.755-.281.197-.069.375-.175.585-.218.003 0 .006-.003.009-.003.289-.058.611-.038.923-.044.208-.005.4-.049.617-.03.372.033.772.15 1.167.254.186.049.357.055.547.12.594.203 1.209.484 1.839.847 4.448 2.568 8.123 8.374 8.905 13.68.102.694.167 1.382.165 2.051-.002.722-.067 1.391-.191 2.002-.246 1.222-.722 2.214-1.379 2.949-1.643 1.838-4.417 2.066-7.56.251-1.257-.726-2.454-1.71-3.541-2.867-2.171-2.315-3.909-5.325-4.822-8.359z" fill="#78603b"/></g><g><path d="m377.039 239.843c.008-.008.017-.014.026-.022-.157.134-.336.235-.477.393h.001c.133-.15.303-.243.45-.371z" fill="#997b4b"/></g><g><path d="m375.373 242.668c.007-.026.017-.049.024-.074-.055.194-.139.356-.181.564.037-.18.112-.319.157-.49z" fill="#997b4b"/></g><g><path d="" fill="#997b4b"/></g><g><path d="m376.059 241.025c.009-.016.019-.029.028-.044-.11.18-.245.325-.339.524h.001c.086-.184.212-.315.31-.48z" fill="#997b4b"/></g><g><path d="m382.314 239.103c-.192-.066-.366-.073-.553-.122-.012-.004-.025-.005-.037-.007.2.05.386.059.59.129z" fill="#78603b"/></g><g><path d="" fill="#78603b"/></g><g><path d="m379.048 238.803c-.203.041-.375.143-.566.209-.004.001-.008.003-.013.005.195-.068.371-.173.579-.214z" fill="#78603b"/></g><g><path d="m375.216 243.158c-.122.609-.188 1.276-.19 1.996.003-.721.068-1.387.19-1.996z" fill="#78603b"/></g><g><path d="m375.75 241.504c-.153.324-.246.714-.352 1.09-.008.025-.017.048-.024.074.109-.405.213-.817.376-1.164z" fill="#78603b"/></g><g><path d="m377.697 239.308c-.001.001-.001.001-.001.001-.233.134-.425.336-.631.513-.008.008-.017.014-.026.022.215-.188.415-.396.658-.536z" fill="#78603b"/></g><g><path d="m376.589 240.214c-.001 0-.001 0 0 0-.195.219-.34.503-.501.767-.009.015-.019.029-.028.044.168-.281.323-.58.529-.811z" fill="#78603b"/></g><g><path d="m384.156 239.951c-.63-.364-1.246-.646-1.842-.848.596.203 1.211.484 1.842.848z" fill="#bababa"/></g><g><path d="m381.724 238.973c.013.002.025.004.037.007-.389-.103-.785-.221-1.152-.254.356.033.739.15 1.115.247z" fill="#bababa"/></g><g><path d="m378.469 239.016c.004-.001.009-.003.013-.005-.26.089-.535.151-.77.285-.006.003-.009.008-.015.012 0 0 0 0 .001-.001.236-.135.51-.2.771-.291z" fill="#bababa"/></g><g><path d="m379.061 238.797c-.005.001-.008.004-.014.006.006-.002.01-.005.014-.006z" fill="#bababa"/></g><g><path d="m388.54 243.832c1.445 1.758 2.636 3.795 3.457 5.918-.821-2.124-2.012-4.16-3.457-5.918z" fill="#bababa"/></g><g><path d="m393.226 255.661c0-.059-.014-.121-.015-.179.002.059.015.121.015.179z" fill="#bababa"/></g><g><path d="m384.084 265.208c7.11 4.105 12.9.806 12.923-7.364.023-8.169-5.729-18.133-12.839-22.238s-12.9-.805-12.923 7.364c-.023 8.171 5.729 18.134 12.839 22.238zm7.913-15.458c.742 1.919 1.194 3.882 1.215 5.732.001.059.015.12.015.179-.006 2.167-.584 3.849-1.57 4.951-.985 1.103-2.378 1.627-4.014 1.476-1.09-.1-2.289-.499-3.546-1.224-2.515-1.452-4.786-3.935-6.427-6.778-1.641-2.842-2.651-6.044-2.643-8.934.002-.72.068-1.386.19-1.995.042-.208.126-.37.181-.564.106-.376.2-.765.352-1.089.093-.199.229-.344.339-.524.161-.263.306-.547.5-.766.141-.158.32-.258.477-.393.207-.177.398-.379.631-.513.006-.003.009-.009.015-.012.236-.134.51-.196.77-.285.191-.066.363-.168.566-.209.005-.001.009-.004.014-.006.485-.095 1.003-.12 1.548-.07.367.033.762.151 1.152.254.187.049.361.057.552.122.595.202 1.211.484 1.842.848.629.363 1.242.791 1.835 1.271.915.744 1.758 1.646 2.55 2.609 1.444 1.76 2.635 3.796 3.456 5.92z" fill="#78603b"/></g><g><path d="m385.99 241.223c-.592-.481-1.206-.908-1.835-1.271-.63-.364-1.246-.645-1.841-.848-.204-.07-.391-.079-.59-.13-.376-.097-.76-.214-1.115-.246-.545-.05-1.063-.025-1.548.07-.005.001-.008.004-.014.006-.208.041-.383.146-.579.214-.261.091-.535.156-.772.292-.243.14-.444.348-.658.535-.147.128-.317.221-.45.371-.205.231-.361.53-.529.811-.099.165-.225.297-.31.479-.163.347-.267.759-.376 1.164-.046.171-.121.309-.157.489-.122.609-.188 1.276-.19 1.996-.008 2.889 1.002 6.092 2.643 8.934 1.641 2.843 3.912 5.325 6.427 6.778 1.257.726 2.456 1.125 3.546 1.224 1.636.15 3.029-.373 4.014-1.476.986-1.102 1.564-2.784 1.57-4.951 0-.059-.014-.121-.015-.179-.021-1.85-.473-3.813-1.215-5.732-.821-2.124-2.012-4.16-3.457-5.918-.791-.967-1.633-1.868-2.549-2.612z" fill="#bababa"/></g><g><path d="m384.289 192.928-31.733 26.551-.621 219.026 63.212 36.495.621-219.026zm-.121 42.678c7.11 4.105 12.862 14.068 12.839 22.238s-5.813 11.469-12.923 7.364c-7.11-4.104-12.862-14.067-12.839-22.238.023-8.169 5.813-11.469 12.923-7.364zm-.569 200.919c-7.11-4.104-12.862-14.068-12.839-22.238s5.813-11.469 12.923-7.365c7.11 4.105 12.862 14.069 12.839 22.238-.024 8.171-5.814 11.47-12.923 7.365z" fill="#997b4b"/></g><g><path d="m425.753 250.171-31.478-63.047-9.986 5.804 31.479 63.046z" fill="#b59259"/></g><g><path d="m415.768 255.974-.621 219.026 9.985-5.803.621-219.026z" fill="#78603b"/></g></g></g></svg>