<svg id="Layer_1" enable-background="new 0 0 512 512" height="512" viewBox="0 0 512 512" width="512" xmlns="http://www.w3.org/2000/svg"><g><path d="m197.14 418.661c-2.611 12.332 2.212 20.614 9.927 25.069 1.514.874 3.269 1.609 5.15 2.26-1.69-13.079-.499-26.158 7.544-39.237-10.669 3.911-21.205 5.221-22.621 11.908z" fill="#89c70b"/><path d="m286.904 385.276c-15.699-9.064-32.341-12.658-60.475 3.585-28.133 16.243-38.213 36.757-22.515 45.821 1.84 1.062 4.767 2.669 7.195 2.809 18.544 1.065 15.643-3.351 40.48-17.69 28.133-16.244 51.014-25.461 35.315-34.525z" fill="#98ce2a"/><path d="m313.095 388.604c.363-5.162-1.921-9.63-7.301-12.735-15.699-9.064-51.231-3.244-79.365 12.999-12.962 7.484-22.032 15.866-26.574 23.625 13.197-9.371 44.436-19.209 61.535-21.622 2.484 1.728-49.948 36.122-49.806 46.241-.155.129-.32.25-.475.378.157.04.332.064.492.103.059 2.799.253 5.598.615 8.397 16.547 5.732 46.13 2.707 69.507-11.915 32.606-20.395 31.476-45.469 31.476-45.469s-.062-.001-.104-.002z" fill="#775f40"/><path d="m243.595 199.381c-3.864-11.685-18.297 5.279-10.845 14.885 12.177 15.696 19.792 38.045 21.559 58.917 1.5 17.711-3.17 33.536-11.21 48.32-16.26 29.9-23.26 60.463-10.378 93.053.183.464 15.436-10.818 15.048-11.799-16.672-42.247 27.269-75.374 26.491-126.329-.796-52.14-19.905-44.505-30.665-77.047z" fill="#43da3d"/><path d="m188.697 63.288s-7.528 65.152 11.159 108.137c18.686 42.985 61.535 96.235 61.535 96.235s30.385-155.67-72.694-204.372z" fill="#1ecc00"/><path d="m188.697 63.288c-30.652 17.391-86.804 176.996 72.694 204.372 0 0-25.867-39.452-49.216-95.174-23.351-55.721-23.478-109.198-23.478-109.198z" fill="#54da3d"/><path d="m264.711 307.081 85.44-101.693c-79.072 14.329-85.44 101.693-85.44 101.693z" fill="#1ecc00"/><path d="m264.711 307.081c123.118-24.609 91.856-94.492 85.44-101.693z" fill="#54da3d"/></g></svg>