<svg id="color" enable-background="new 0 0 256 256" height="512" viewBox="0 0 256 256" width="512" xmlns="http://www.w3.org/2000/svg"><g><g><g><g><path d="m36.853 71.494h14.3v91.895h-14.3z" fill="#895122"/></g></g></g><g><g><g><path d="m206.737 72.022h14.3v91.895h-14.3z" fill="#895122"/></g></g></g><g><g><path d="m172.1069 54.4001v16.9407c0 7.9459 6.4414 14.3873 14.3872 14.3873h.0001c7.9458 0 14.3873-6.4414 14.3873-14.3873v-16.9407" fill="#a8b915"/></g></g><g><g><g><path d="m28.234 54.4001v16.9407c0 7.9459 6.4414 14.3873 14.3873 14.3873h.0001c7.9458 0 14.3872-6.4414 14.3872-14.3873v-16.9407" fill="#de362d"/></g></g><g><g><path d="m57.0085 54.4001v16.9407c0 7.9459 6.4414 14.3873 14.3873 14.3873h.0001c7.9458 0 14.3873-6.4414 14.3873-14.3873v-16.9407" fill="#a8b915"/></g></g><g><g><path d="m85.7832 54.4001v16.9407c0 7.9459 6.4414 14.3873 14.3873 14.3873 7.9459 0 14.3873-6.4414 14.3873-14.3873v-16.9407" fill="#de362d"/></g></g><g><g><path d="m114.5577 54.4001v16.9407c0 7.9459 6.4414 14.3873 14.3873 14.3873 7.9459 0 14.3873-6.4414 14.3873-14.3873v-16.9407" fill="#a8b915"/></g></g><g><g><path d="m143.3323 54.4001v16.9407c0 7.9459 6.4414 14.3873 14.3873 14.3873h.0001c7.9458 0 14.3873-6.4414 14.3873-14.3873v-16.9407" fill="#de362d"/></g></g><g><g><path d="m200.8815 54.4001v16.9407c0 7.9459 6.4414 14.3873 14.3873 14.3873 7.9459 0 14.3873-6.4414 14.3873-14.3873v-16.9407" fill="#de362d"/></g></g></g><g><g><path d="m214.7171 22.7861h-171.5442l-22.0664 41.833h215.677z" fill="#b0713b"/></g></g><g><g><path d="m28.5132 50.5776h200.8636l-7.253-13.75h-186.3576z" fill="#c99460"/></g></g><g><path d="m28.559 152.278h200.772v74.03h-200.772z" fill="#b0713b"/></g><g><path d="m41.123 163.733h175.645v51.12h-175.645z" fill="#895122"/></g><g><g><g><g><path d="m105.2818 224.6542-2.8875 3.9685c-2.7484 3.7772-8.0385 4.6113-11.8157 1.8629l-.0001-.0001c-3.7772-2.7484-4.6113-8.0384-1.8628-11.8156l2.8876-3.9685c2.7484-3.7772 8.0384-4.6113 11.8156-1.8629h.0001c3.7772 2.7484 4.6112 8.0385 1.8628 11.8157z" fill="#a8b915"/></g></g></g><g><g><g><path d="m119.2198 224.6542-2.8876 3.9685c-2.7484 3.7772-8.0384 4.6113-11.8156 1.8629l-.0001-.0001c-3.7772-2.7484-4.6113-8.0384-1.8629-11.8156l2.8875-3.9685c2.7484-3.7772 8.0385-4.6113 11.8157-1.8629h.0001c3.7772 2.7484 4.6113 8.0385 1.8629 11.8157z" fill="#7c8e06"/></g></g></g><g><g><g><path d="m145.9655 224.6542-2.8876 3.9685c-2.7484 3.7772-8.0384 4.6113-11.8156 1.8629v-.0001c-3.7772-2.7484-4.6113-8.0384-1.8629-11.8156l2.8875-3.9685c2.7484-3.7772 8.0384-4.6113 11.8157-1.8629 3.7773 2.7484 4.6113 8.0385 1.8629 11.8157z" fill="#a8b915"/></g></g></g></g><g><g><g><g><path d="m129.3994 208.0793 2.8875 3.9685c2.7484 3.7772 8.0384 4.6113 11.8157 1.8629 3.7772-2.7484 4.6113-8.0384 1.8629-11.8156l-2.8876-3.9685c-2.7484-3.7772-8.0384-4.6113-11.8156-1.8629-3.7772 2.7484-4.6112 8.0384-1.8629 11.8156z" fill="#7c8e06"/></g></g></g><g><g><g><path d="m115.4615 208.0793 2.8876 3.9685c2.7484 3.7772 8.0384 4.6113 11.8157 1.8629 3.7772-2.7484 4.6113-8.0384 1.8629-11.8156l-2.8875-3.9685c-2.7484-3.7772-8.0384-4.6113-11.8157-1.8629-3.7773 2.7484-4.6113 8.0384-1.863 11.8156z" fill="#a8b915"/></g></g></g><g><g><g><path d="m88.7158 208.0793 2.8876 3.9685c2.7484 3.7772 8.0384 4.6113 11.8156 1.8629h.0001c3.7772-2.7484 4.6113-8.0384 1.8628-11.8156l-2.8875-3.9685c-2.7484-3.7772-8.0385-4.6113-11.8157-1.8629h-.0001c-3.7772 2.7484-4.6112 8.0384-1.8628 11.8156z" fill="#7c8e06"/></g></g></g></g><g><g><g><g><g><g><path d="m107.939 170.295h4.95v33.715h-4.95z" fill="#7c8e06" transform="matrix(.5 -.866 .866 .5 -106.872 189.198)"/></g></g><g><g><path d="m108.3095 195.7039-4.2503-2.4539c-4.0455-2.3356-5.4315-7.5085-3.0959-11.554 2.3357-4.0455 7.5085-5.4316 11.554-3.0959l4.2503 2.4539c4.0455 2.3357 5.4316 7.5085 3.0959 11.554v.0001c-2.3357 4.0454-7.5086 5.4315-11.554 3.0958z" fill="#7c8e06"/></g></g></g><g><g><g><path d="m122.269 181.915h33.715v4.95h-33.715z" fill="#7c8e06" transform="matrix(.261 -.965 .965 .261 -75.209 270.506)"/></g></g><g><g><path d="m130.3208 184.5477 1.2827-4.7373c1.2208-4.509 5.8658-7.1745 10.3747-5.9536 4.509 1.2208 7.1745 5.8658 5.9536 10.3747l-1.2827 4.7372c-1.2208 4.509-5.8658 7.1745-10.3746 5.9537h-.0001c-4.5088-1.2209-7.1744-5.8657-5.9536-10.3747z" fill="#7c8e06"/></g></g></g></g><g><g><g><path d="m124.3188 179.2165 4.9077-.0401c4.6711-.0382 8.4888 3.7176 8.527 8.3887.0382 4.6711-3.7176 8.4888-8.3887 8.527l-4.9077.0401c-4.6711.0382-8.4888-3.7176-8.527-8.3887-.0382-4.6711 3.7175-8.4888 8.3887-8.527z" fill="#a8b915"/></g></g></g></g><g><g><g><path d="m93.632 171.09h4.95v33.715h-4.95z" fill="#a8b915" transform="matrix(.874 -.486 .486 .874 -79.271 70.459)"/></g></g><g><g><path d="m89.9092 194.2048-2.3867-4.2884c-2.2717-4.0817-.8044-9.2322 3.2773-11.5039 4.0817-2.2717 9.2322-.8044 11.5039 3.2773l2.3867 4.2884c2.2717 4.0817.8044 9.2321-3.2773 11.5039-4.0818 2.2717-9.2322.8044-11.5039-3.2773z" fill="#a8b915"/></g></g></g></g><g><g><g><g><path d="m80.66 208.664h73.362v11h-73.362z" fill="#c99460"/></g></g></g><g><g><g><g><path d="m80.66 227.188h73.362v11h-73.362z" fill="#c99460"/></g></g></g><g><g><g><path d="m80.66 190.14h73.362v11h-73.362z" fill="#c99460"/></g></g></g></g></g><g><g><g><g><g><path d="m164.326 172.936h4.95v18.424h-4.95z" fill="#7c8e06" transform="matrix(.686 -.727 .727 .686 -80.154 178.447)"/></g></g><g><g><path d="m166.544 176.117h18.424v4.95h-18.424z" fill="#7c8e06" transform="matrix(.058 -.998 .998 .058 -12.756 343.662)"/></g></g></g><g><g><path d="m168.165 169.552h4.95v18.423h-4.95z" fill="#7c8e06" transform="matrix(.929 -.369 .369 .929 -53.931 75.603)"/></g></g><g><g><path d="m184.2484 213.0297c-2.2832.9068-4.8835-.0417-6.0467-2.2055l-10.4262-19.3944c-2.0909-3.8894-.3245-8.7324 3.7795-10.3622 4.104-1.6299 8.7118.6816 9.859 4.9459l5.7204 21.2633c.6383 2.3722-.6028 4.8462-2.886 5.7529z" fill="#f9a730"/></g></g></g><g><g><g><g><path d="m187.865 172.936h4.95v18.424h-4.95z" fill="#7c8e06" transform="matrix(.686 -.727 .727 .686 -72.771 195.567)"/></g></g><g><g><path d="m190.084 176.117h18.424v4.95h-18.424z" fill="#7c8e06" transform="matrix(.058 -.998 .998 .058 9.374 367.122)"/></g></g></g><g><g><path d="m191.705 169.552h4.95v18.423h-4.95z" fill="#7c8e06" transform="matrix(.929 -.369 .369 .929 -52.269 84.291)"/></g></g><g><g><path d="m207.7883 213.0297c-2.2832.9068-4.8835-.0417-6.0467-2.2055l-10.4262-19.3944c-2.0909-3.8894-.3245-8.7324 3.7795-10.3622 4.104-1.6299 8.7118.6816 9.859 4.9459l5.7204 21.2633c.6384 2.3722-.6027 4.8462-2.886 5.7529z" fill="#f9a730"/></g></g></g><g><g><g><g><path d="m211.405 172.936h4.95v18.424h-4.95z" fill="#7c8e06" transform="matrix(.686 -.727 .727 .686 -65.387 212.688)"/></g></g><g><g><path d="m213.624 176.117h18.424v4.95h-18.424z" fill="#7c8e06" transform="matrix(.058 -.998 .998 .058 31.54 390.621)"/></g></g></g><g><g><path d="m215.245 169.552h4.95v18.424h-4.95z" fill="#7c8e06" transform="matrix(.929 -.369 .369 .929 -50.61 92.987)"/></g></g><g><g><path d="m231.3284 213.0297c-2.2832.9068-4.8835-.0417-6.0467-2.2055l-10.4262-19.3944c-2.0909-3.8894-.3245-8.7324 3.7795-10.3622 4.104-1.6299 8.7118.6816 9.859 4.9459l5.7204 21.2633c.6383 2.3722-.6028 4.8462-2.886 5.7529z" fill="#f9a730"/></g></g></g></g><g><g><g><g><path d="m209.205 196.322h4.95v18.424h-4.95z" fill="#7c8e06" transform="matrix(.686 -.727 .727 .686 -83.085 218.423)"/></g></g><g><g><path d="m211.424 199.503h18.424v4.95h-18.424z" fill="#7c8e06" transform="matrix(.058 -.998 .998 .058 6.122 410.446)"/></g></g></g><g><g><path d="m213.045 192.938h4.95v18.424h-4.95z" fill="#7c8e06" transform="matrix(.929 -.369 .369 .929 -59.397 93.826)"/></g></g><g><g><path d="m229.1283 236.4157c-2.2832.9068-4.8834-.0417-6.0467-2.2055l-10.4262-19.3944c-2.0909-3.8894-.3245-8.7324 3.7796-10.3622 4.104-1.6299 8.7118.6816 9.859 4.9459l5.7204 21.2633c.6383 2.3722-.6028 4.8462-2.8861 5.7529z" fill="#f9a730"/></g></g></g><g><g><g><g><path d="m186.039 196.322h4.95v18.424h-4.95z" fill="#7c8e06" transform="matrix(.686 -.727 .727 .686 -90.352 201.575)"/></g></g><g><g><path d="m188.258 199.503h18.424v4.95h-18.424z" fill="#7c8e06" transform="matrix(.058 -.998 .998 .058 -15.692 387.319)"/></g></g></g><g><g><path d="m189.879 192.938h4.95v18.424h-4.95z" fill="#7c8e06" transform="matrix(.929 -.369 .369 .929 -61.033 85.275)"/></g></g><g><g><path d="m205.9623 236.4157c-2.2832.9068-4.8834-.0417-6.0467-2.2055l-10.4262-19.3944c-2.0909-3.8894-.3245-8.7324 3.7796-10.3622 4.104-1.6299 8.7118.6816 9.859 4.9459l5.7204 21.2633c.6383 2.3722-.6028 4.8462-2.8861 5.7529z" fill="#f9a730"/></g></g></g><g><g><g><g><path d="m162.873 196.322h4.95v18.424h-4.95z" fill="#7c8e06" transform="matrix(.686 -.727 .727 .686 -97.618 184.726)"/></g></g><g><g><path d="m165.092 199.503h18.424v4.95h-18.424z" fill="#7c8e06" transform="matrix(.058 -.998 .998 .058 -37.505 364.193)"/></g></g></g><g><g><path d="m166.713 192.938h4.95v18.424h-4.95z" fill="#7c8e06" transform="matrix(.929 -.369 .369 .929 -62.669 76.724)"/></g></g><g><g><path d="m182.7963 236.4157c-2.2832.9068-4.8834-.0417-6.0467-2.2055l-10.4262-19.3944c-2.0909-3.8894-.3245-8.7324 3.7796-10.3622 4.104-1.6299 8.7118.6816 9.859 4.9459l5.7204 21.2633c.6383 2.3722-.6028 4.8462-2.8861 5.7529z" fill="#f9a730"/></g></g></g><g><g><g><g><path d="m163.556 208.664h73.362v11h-73.362z" fill="#c99460"/></g></g></g><g><g><g><g><path d="m163.556 227.188h73.362v11h-73.362z" fill="#c99460"/></g></g></g><g><g><g><path d="m163.556 190.14h73.362v11h-73.362z" fill="#c99460"/></g></g></g></g></g><g><g><circle cx="175.145" cy="129.701" fill="#7c8e06" r="22.567"/></g></g><g><g><ellipse cx="175.145" cy="129.701" fill="#a8b915" rx="7.985" ry="22.567"/></g></g><g><g><path d="m121.7152 128.305c-.064.682-.1003 1.3721-.1003 2.0709 0 12.0908 9.8015 21.8922 21.8922 21.8922s21.8921-9.8014 21.8921-21.8922c0-.6987-.0363-1.3889-.1003-2.0709z" fill="#de362d"/></g></g><g><g><path d="m141.032 135.712h4.95v6.952h-4.95z" fill="#f9ae35"/></g></g><g><g><g><path d="m150.591 132.601h4.949v7.675h-4.949z" fill="#f9ae35" transform="matrix(.851 -.525 .525 .851 -48.831 100.63)"/></g></g><g><g><path d="m130.111 133.964h7.675v4.949h-7.675z" fill="#f9ae35" transform="matrix(.525 -.851 .851 .525 -52.488 178.856)"/></g></g></g><g><g><path d="m75.4877 152.2781h-3.3822c-6.5871 0-11.927-5.3399-11.927-11.927v-10.7532c0-6.5871 5.3399-11.9271 11.927-11.9271h3.3822c6.5871 0 11.927 5.34 11.927 11.9271v10.7532c0 6.5871-5.3398 11.927-11.927 11.927z" fill="#f9a730"/></g></g><g><g><path d="m85.9042 111.5555c-.5051-.8749-7.0061 1.7507-6.9254 1.611 2.2037-3.8169 3.2076-7.3628 2.2425-7.9201-.8744-.5048-3.0642 1.6201-5.1069 4.8612.0002-.0462-1.0367-9.3096-2.3177-9.3096s-2.3179 9.2634-2.3177 9.3096c-2.0428-3.2411-4.2326-5.366-5.1069-4.8612-.9652.5573.0388 4.1032 2.2425 7.9201.0807.1397-6.4203-2.4859-6.9254-1.611-.5065.8773 1.8954 3.2123 5.3647 5.2153 2.6688 1.5408 5.1865 2.4323 6.4393 2.3642.0659.0043.5412.0043.607 0 1.2528.0681 3.7705-.8234 6.4393-2.3642 3.4693-2.003 5.8712-4.338 5.3647-5.2153z" fill="#7c8e06"/></g></g><g fill="#895122"><path d="m60.2309 128.4994 5.7179 5.7085 3.4982-.0005 4.3511-4.3474 4.3533 4.3474h3.4982l5.7129-5.7074c-.1744-1.9101-.7992-3.689-1.7673-5.2317l-5.6949 5.6899-4.3533-4.3474h-3.4982l-4.3517 4.3479-5.6992-5.6901c-.9679 1.5424-1.5925 3.3211-1.767 5.2308z"/><path d="m87.4147 140.3511v-6.1903l-.2115-.2299-6.7751 6.2294-4.9554-4.5547-3.35.0005-4.9538 4.5547-6.781-6.2299-.2096.2281v6.1921c0 .0374.0025.0742.0028.1116l5.3141 4.8817 3.3494-.0005 4.9538-4.5542 4.9554 4.5547 3.3499-.0005 5.3079-4.8804c.0006-.0377.0031-.0748.0031-.1124z"/></g></g></svg>