<svg id="Layer_1" enable-background="new 0 0 500 500" viewBox="0 0 500 500" xmlns="http://www.w3.org/2000/svg"><g><path d="m469.19 254.61c-10.701 29.768-30.043 88.07-73.804 113.448-43.76 25.242-100.691 35.393-152.27 41.566-65.161 7.82-132.379-17.011-175.866-42.115-37.725-21.812-47.189-55.283-40.056-88.481 4.664 19.343 17.147 36.902 40.056 50.208 43.487 25.104 110.705 49.934 175.866 42.115 51.58-6.173 108.51-16.325 152.27-41.566 43.761-25.378 63.103-83.679 73.804-113.448 1.371-3.703 2.469-7.27 3.292-10.837 4.39 15.226 2.881 31.825-3.292 49.11z" fill="#ca7900"/><path d="m472.483 205.362v.137c-.549 2.195-1.098 4.528-1.921 6.722-55.695-34.02-133.339-89.853-211.395-80.387-66.67 7.957-124.972 39.233-181.627 72.02-10.289 6.036-20.165 13.58-29.356 22.361 15.501-29.632 39.096-63.927 68.453-80.8 43.761-25.378 88.893-49.521 140.473-55.695 65.161-7.819 129.91 43.075 173.396 68.18 23.32 13.579 36.764 29.628 41.977 47.462z" fill="#eba83a"/><path d="m470.562 212.22c-.411 1.373-.823 2.744-1.371 4.115-10.701 29.769-30.043 88.07-73.804 113.448-43.76 25.242-100.691 35.393-152.27 41.566-65.161 7.819-132.379-17.011-175.866-42.115-22.909-13.306-35.392-30.865-40.056-50.208.96-5.076 2.331-10.014 4.115-14.952 3.567-9.74 9.192-23.184 16.874-37.862 9.191-8.78 19.067-16.325 29.356-22.361 56.655-32.786 114.957-64.063 181.627-72.02 78.056-9.463 155.7 46.369 211.395 80.389z" fill="#df9000"/><g fill="#ca7900"><path d="m64.228 315.549c0 8.014-5.626 11.262-12.566 7.255s-12.567-13.752-12.567-21.765c0-8.014 5.626-11.262 12.567-7.255 6.94 4.007 12.566 13.752 12.566 21.765z"/><circle cx="199.908" cy="295.732" r="7.475"/><path d="m223.266 336.375c0 4.386-3.556 7.941-7.942 7.941s-7.941-3.555-7.941-7.941 3.556-7.942 7.941-7.942c4.387 0 7.942 3.556 7.942 7.942z"/><path d="m291.939 293.163c0 2.709-2.196 4.905-4.905 4.905s-4.905-2.196-4.905-4.905 2.196-4.905 4.905-4.905c2.709-.001 4.905 2.195 4.905 4.905z"/><path d="m267.974 255.613c0 2.11-1.711 3.821-3.82 3.821-2.11 0-3.82-1.711-3.82-3.821s1.71-3.82 3.82-3.82c2.109-.001 3.82 1.709 3.82 3.82z"/><path d="m360.379 298.184c0 2.774-2.249 5.022-5.022 5.022-2.774 0-5.022-2.249-5.022-5.022s2.249-5.022 5.022-5.022c2.773.001 5.022 2.249 5.022 5.022z"/><path d="m371.941 235.644c0 3.192-2.589 5.78-5.781 5.78-3.193 0-5.781-2.588-5.781-5.78 0-3.193 2.588-5.781 5.781-5.781 3.192 0 5.781 2.588 5.781 5.781z"/><circle cx="415.956" cy="215.712" r="3.955"/><circle cx="316.163" cy="197.366" r="5.07"/><path d="m143.767 271.866c0 3.848-3.119 6.967-6.967 6.967s-6.967-3.12-6.967-6.967c0-3.848 3.12-6.967 6.967-6.967 3.849 0 6.967 3.12 6.967 6.967z"/></g><circle cx="199.908" cy="131.29" fill="#df9000" r="7.475"/><path d="m226.523 202.966c0 3.092-2.507 5.599-5.599 5.599-3.093 0-5.6-2.507-5.6-5.599 0-3.093 2.507-5.6 5.6-5.6 3.092 0 5.599 2.507 5.599 5.6z" fill="#ca7900"/><path d="m287.034 111.95c0 2.903-2.353 5.255-5.255 5.255-2.903 0-5.256-2.352-5.256-5.255s2.353-5.256 5.256-5.256c2.902 0 5.255 2.353 5.255 5.256z" fill="#df9000"/><path d="m287.034 157.505c0 2.903-2.353 5.256-5.255 5.256-2.903 0-5.256-2.353-5.256-5.256s2.353-5.255 5.256-5.255c2.902 0 5.255 2.352 5.255 5.255z" fill="#ca7900"/><path d="m343.19 169.472c0 2.455-1.99 4.444-4.444 4.444-2.455 0-4.445-1.989-4.445-4.444s1.99-4.445 4.445-4.445c2.454 0 4.444 1.99 4.444 4.445z" fill="#ca7900"/><path d="m373.841 138.313c0 2.121-1.719 3.841-3.841 3.841-2.121 0-3.841-1.719-3.841-3.841 0-2.121 1.719-3.841 3.841-3.841s3.841 1.719 3.841 3.841z" fill="#df9000"/><path d="m144.711 215.712c0 2.185-1.771 3.956-3.955 3.956-2.185 0-3.956-1.771-3.956-3.956s1.771-3.956 3.956-3.956c2.184 0 3.955 1.771 3.955 3.956z" fill="#ca7900"/><path d="m140.756 154.933c0 3.016-2.445 5.461-5.462 5.461-3.016 0-5.461-2.445-5.461-5.461 0-3.017 2.445-5.461 5.461-5.461 3.017 0 5.462 2.445 5.462 5.461z" fill="#df9000"/></g></svg>