<svg id="Layer_1" enable-background="new 0 0 500 500" viewBox="0 0 500 500" xmlns="http://www.w3.org/2000/svg"><g><g><path d="m465.14 267.543c-3.936 110.489-94.446 202.058-204.783 207.204-123.657 5.904-225.67-92.628-225.67-215.074 0-8.022.454-16.044 1.363-23.914 12.713 110.641 109.126 195.702 224.307 190.252 104.889-4.842 191.918-87.936 203.572-191.009 1.211 10.595 1.666 21.492 1.211 32.541z" fill="#b70000"/></g><g><path d="m463.93 235.002c-11.654 103.073-98.684 186.167-203.572 191.009-115.182 5.45-211.595-79.611-224.308-190.252 3.935-36.174 16.952-69.776 36.779-98.23 14.075-20.585 31.784-38.596 52.217-53.125 28.607-20.433 67.354-24.974 98.834-9.233 7.416 3.784 16.347 6.055 26.034 6.055s18.768-2.271 26.184-6.055c32.693-16.345 72.498-10.292 101.861 11.503 19.071 14.076 35.721 31.331 49.19 50.855 19.678 28.304 32.694 61.45 36.781 97.473z" fill="#e50000"/></g><g><path d="m427.15 137.529c-4.085 22.703-21.189 44.65-51.309 62.056-69.472 40.261-182.232 40.261-251.703 0-30.12-17.406-47.223-39.353-51.31-62.056 14.075-20.585 31.784-38.596 52.217-53.125 28.607-20.433 67.354-24.974 98.834-9.233 7.416 3.784 16.347 6.055 26.034 6.055s18.768-2.271 26.184-6.055c32.693-16.345 72.498-10.292 101.861 11.503 19.073 14.076 35.722 31.331 49.192 50.855z" fill="#ed484f"/></g><g><g opacity=".4"><path d="m73.585 255.737c4.692 40.564 21.644 77.495 47.222 106.706-36.173-31.331-60.694-75.678-66.444-125.776 3.026-27.245 11.654-52.823 24.821-75.527l20.434 16.65c-13.925 23.309-23.006 49.796-26.033 77.947z" fill="#fff"/></g><g opacity=".4"><path d="m397.333 128.448c-3.632-3.178-7.416-6.054-11.2-8.931-26.941-19.978-63.266-25.427-93.084-10.594-6.811 3.481-15.136 5.6-24.065 5.6-8.779 0-16.952-2.118-23.763-5.6-28.758-14.379-64.174-10.141-90.359 8.476-12.411 8.929-23.763 19.07-33.601 30.573l-21.038-16.952c10.443-12.411 22.4-23.308 35.568-32.692 26.185-18.768 61.601-22.855 90.359-8.476 6.811 3.481 14.984 5.601 23.763 5.601 8.93 0 17.103-2.119 23.914-5.601 29.968-14.984 66.293-9.383 93.083 10.444 11.201 8.173 21.493 17.709 30.423 28.152z" fill="#fff"/></g></g><g><g><path d="m286.929 148.28c-20.401 11.778-53.477 11.778-73.879-.001s-20.402-30.876-.001-42.654 53.477-11.778 73.879.001 20.402 30.875.001 42.654z" fill="#e50000"/></g><g><path d="m273.76 140.676c-13.128 7.58-34.413 7.58-47.541 0s-13.129-19.869-.001-27.447c13.128-7.58 34.413-7.58 47.541 0s13.129 19.868.001 27.447z" fill="#b70000"/></g></g><g><g><path d="m220.671 109.864c-1.136-2.554-2.271-5.109-3.217-7.758-3.216-8.42-5.393-17.03-6.528-25.639-.284-2.271-.379-4.446-.473-6.622-.189 4.163 0 8.42.473 12.488 1.135 8.703 3.311 17.218 6.528 25.733.379.946.757 1.893 1.135 2.839.568-.189 1.042-.284 1.609-.379.094-.19.284-.473.473-.662z" fill="#55a142"/></g><g><path d="m280.368 116.581c1.703-1.324 3.406-2.649 5.204-3.879 7.285-5.108 15.326-9.649 24.031-13.15 8.703-3.501 18.07-5.771 28.193-6.623 1.419-.094 2.743-.094 4.163-.094 8.893-.19 18.26.946 28.098 3.689-11.353-5.203-23.368-9.177-35.573-11.069-12.11-1.798-24.314-1.986-36.14-.379-11.826 1.514-23.369 4.541-34.343 8.704-3.406 1.23-6.717 2.649-10.029 4.068-.284-.094-.567-.094-.947-.094-1.514-1.609-3.027-3.311-4.446-4.919-5.96-6.718-11.258-13.718-15.705-20.909-4.352-7.284-7.663-14.758-9.65-22.517-.757-3.026-1.23-6.054-1.419-9.176v-.284c-.189-2.459-.189-5.014.095-7.569.189-2.46.473-4.919.946-7.379-5.204 7.852-9.082 16.462-10.974 25.165-1.23 6.529-1.703 13.151-1.419 19.679.094 2.176.189 4.351.473 6.622 1.135 8.609 3.311 17.219 6.528 25.639.947 2.649 2.081 5.203 3.217 7.758-.189.189-.379.473-.473.662-.568.095-1.041.189-1.609.379-2.176.474-4.256.946-6.339 1.419-11.069 2.46-22.233 4.636-33.585 6.623-11.258 1.892-22.612 3.311-33.965 4.446-11.258.946-22.138 1.23-32.64 1.23 7.19 1.986 15.421 3.784 24.598 5.203 1.513.284 3.122.568 4.73.757 11.069 1.419 23.085 2.555 35.383 3.311 12.394.662 25.166 1.136 38.033 1.23h11.731c.189.189.567.284.851.474-.189 1.891-.284 3.783-.474 5.676v.095c-.851 7.758-2.553 15.516-5.203 23.179-2.649 7.758-6.529 15.232-11.542 22.517-5.204 7.19-12.016 13.718-20.246 19.678 4.636-1.704 9.176-3.69 13.624-5.961 5.487-2.743 10.691-5.866 15.516-9.366 8.609-6.243 16.462-13.339 23.085-20.908 6.528-7.569 12.298-15.516 17.218-23.653 1.42-2.554 2.839-5.109 4.163-7.569.284-.094.568-.189.852-.283 2.554.756 5.108 1.514 7.663 2.365 10.407 3.311 20.531 7.473 30.181 12.11 9.556 4.73 18.448 10.029 26.68 15.8 6.055 4.446 11.353 9.082 16.083 14.001 0 .095.094.095.094.095 1.419 1.419 2.649 2.933 3.974 4.351v-.756-.094c-2.27-6.812-5.96-13.908-11.259-20.909-5.771-7.473-12.866-15.042-21.003-22.233-8.231-7.19-17.313-14.191-27.058-20.624-1.892-1.136-3.69-2.366-5.487-3.406-1.23-.852-2.554-1.609-3.784-2.366 0-.284 0-.473-.095-.756z" fill="#8ac87f"/></g><g><path d="m227.388 135.598c-.284-.19-.662-.284-.851-.474h-11.731c-12.867-.094-25.639-.568-38.033-1.23-12.298-.756-24.314-1.892-35.383-3.311-1.608-.189-3.217-.473-4.73-.757-9.177-1.419-17.408-3.216-24.598-5.203v5.866c8.42 2.365 18.259 4.541 29.328 6.055 11.069 1.324 23.085 2.554 35.383 3.311 12.394.663 25.166 1.042 38.033 1.136 3.973.094 7.852.094 11.731.094.094.095.189.189.378.284v-.095c.189-1.893.284-3.785.473-5.676z" fill="#55a142"/></g><g><path d="m344.986 183.279c-4.731-4.919-10.029-9.555-16.083-14.001-8.232-5.771-17.124-11.07-26.68-15.8-9.65-4.636-19.773-8.798-30.181-12.11-2.554-.851-5.108-1.609-7.663-2.365-.284.094-.568.189-.852.283-1.323 2.46-2.743 5.014-4.163 7.569-4.919 8.136-10.69 16.083-17.218 23.653-6.623 7.569-14.476 14.664-23.085 20.908-4.825 3.501-10.029 6.623-15.516 9.366-4.447 2.271-8.988 4.257-13.624 5.961v5.96c10.406-3.974 20.435-9.082 29.139-15.326 8.609-6.339 16.462-13.434 23.085-20.908 6.528-7.663 12.298-15.516 17.218-23.747 1.42-2.554 2.839-5.014 4.163-7.568.284-.094.568-.189.852-.284 2.554.756 5.108 1.608 7.663 2.365 10.407 3.406 20.531 7.473 30.181 12.204 9.556 4.636 18.448 10.029 26.68 15.8 7.853 5.676 14.475 11.826 20.151 18.448v-.756-5.204c-1.324-1.418-2.554-2.933-3.974-4.351.002-.002-.093-.002-.093-.097z" fill="#55a142"/></g><g><path d="m349.527 194.254c-.094-.473-.284-.851-.473-1.324v.756c.189.19.284.379.473.568z" fill="#55a142"/></g><g><path d="m349.527 188.294c-.094-.474-.284-.852-.473-1.325v.756c.189.191.284.38.473.569z" fill="#55a142"/></g><g><path d="m309.603 105.417c8.703-3.406 18.07-5.677 28.193-6.528 10.124-.757 20.908.473 32.261 3.5v-5.866c-9.838-2.743-19.205-3.879-28.098-3.689-1.419 0-2.743 0-4.163.094-10.123.852-19.489 3.122-28.193 6.623-8.705 3.501-16.746 8.041-24.031 13.15-1.797 1.23-3.501 2.555-5.204 3.879.095.284.095.473.095.757 1.23.756 2.554 1.514 3.784 2.366.379-.379.851-.757 1.324-1.042 7.286-5.203 15.327-9.743 24.032-13.244z" fill="#55a142"/></g><g><path d="m221.806 39.948c.095-2.933.473-5.96 1.041-9.082v-5.866c-.473 2.46-.756 4.919-.946 7.379-.284 2.555-.284 5.11-.095 7.569z" fill="#55a142"/></g></g><g><g><path d="m271.097 54.653v70.105h-.095c0 3.131-1.992 6.261-6.071 8.633-8.254 4.743-21.629 4.743-29.882 0-4.079-2.372-6.167-5.502-6.167-8.633v-70.105z" fill="#55a142"/></g><g><path d="m264.888 63.258c-8.228 4.75-21.569 4.75-29.797 0-8.229-4.751-8.229-12.453-.001-17.204 8.228-4.75 21.569-4.75 29.797 0 8.229 4.751 8.229 12.453.001 17.204z" fill="#8ac87f"/></g></g></g></svg>