<svg id="Capa_1" enable-background="new 0 0 512 512" height="512" viewBox="0 0 512 512" width="512" xmlns="http://www.w3.org/2000/svg"><g><g><g><path d="m117.638 420.427h276.724c3.574 0 6.471-2.897 6.471-6.471v-259.938c0-11.429-10.68-20.728-23.806-20.728h-242.053c-13.127 0-23.807 9.299-23.807 20.728v259.938c0 3.574 2.897 6.471 6.471 6.471z" fill="#c1e5ef"/><path d="m188.987 201.39c0-13.107-15.854-23.733-35.411-23.733s-35.411 10.626-35.411 23.733h-4.556v27.124h94.968c7.49 0 13.562-6.072 13.562-13.562 0-7.49-6.072-13.562-13.562-13.562z" fill="#fff"/><path d="m397.006 347.861c.701-2.584 1.081-5.299 1.081-8.105 0-17.067-13.836-30.902-30.902-30.902-17.067 0-30.902 13.836-30.902 30.902 0 2.806.381 5.521 1.081 8.105h-13.471c-8.72 0-15.788 7.069-15.788 15.788 0 8.72 7.069 15.788 15.788 15.788h74.421c8.72 0 15.788-7.069 15.788-15.788 0-8.72-7.069-15.788-15.788-15.788z" fill="#fff"/><path d="m256.078 265.202c-8.61 0-15.59 6.98-15.59 15.59s6.98 15.59 15.59 15.59 15.59-6.98 15.59-15.59-6.98-15.59-15.59-15.59z" fill="#a1e8c3"/><path d="m430.317 173.966c0-23.652-19.174-42.826-42.826-42.826s-42.826 19.174-42.826 42.826c0 12.428 5.299 23.614 13.755 31.438-3.6 2.255-6.793 5.097-9.447 8.394-3.198-13.34-15.195-23.259-29.516-23.259-16.767 0-30.359 13.592-30.359 30.359 0 4.01.785 7.834 2.197 11.338-2.858-1.429-6.08-2.238-9.492-2.238-11.741 0-21.258 9.517-21.258 21.258s9.518 21.258 21.258 21.258c4.49 0 8.651-1.395 12.082-3.771 1.686 10.054 10.426 17.717 20.959 17.717 11.74 0 21.258-9.517 21.258-21.258 0-6.159-2.622-11.703-6.807-15.586 4.425-1.516 8.392-4.017 11.629-7.253 2.373 18.649 18.287 33.07 37.58 33.07 20.93 0 37.897-16.967 37.897-37.897 0-9.726-3.668-18.593-9.691-25.303 13.999-7.044 23.607-21.529 23.607-38.267z" fill="#a1e8c3"/><path d="m329.297 249.616s-3.534-2.767-3.534-2.75c0 7.076-10.645 12.619-20.346 12.619-4.974 0-9.463-2.068-12.658-5.39-3.798-3.95-8.968-6.196-14.447-6.135-.066.001-.132.001-.198.001-6.034 0-11.355-3.045-14.517-7.679-1.991 3.297-3.113 7.178-3.046 11.327.189 11.602 9.943 21.058 21.545 20.903 4.379-.059 8.435-1.445 11.792-3.769 1.759 10.484 11.185 18.367 22.318 17.675 10.573-.658 19.173-9.238 19.854-19.81.432-6.718-6.763-16.992-6.763-16.992z" fill="#85adc2"/><path d="m398.314 379.437h-27.15v5.771c0 3.208-2.6 5.808-5.808 5.808h-162.223c2.086 7.009.741 13.708-4.693 18.932v10.479h195.922c3.574 0 6.471-2.897 6.471-6.471v-34.738c-.822.132-1.66.219-2.519.219z" fill="#a6aaed"/><path d="m371.15 274.714c.004.001.009.002.013.003v34.401c15.186 1.953 26.924 14.921 26.924 30.639 0 2.806-.38 5.521-1.081 8.105h1.307c.86 0 1.697.088 2.519.22v-79.929c-6.263 4.575-13.977 7.282-22.327 7.282-2.517-.002-4.975-.253-7.355-.721z" fill="#a6aaed"/><path d="m420.199 201.59c9.173-10.663 12.42-25.962 8.451-39.448-4.469-15.465-17.509-27.489-33.711-30.343-10.565-1.906-21.908.402-30.849 6.307 4.331 3.407 7.073 8.319 7.073 13.789v85.231c0 7.221-5.781 13.215-13.002 13.247-.047 0-.094 0-.141 0-6.144 0-11.316-.005-15.469-.888 4.875 15.201 19.963 26.138 35.955 25.948 8.35 0 16.064-2.707 22.327-7.282 9.68-6.981 15.638-18.676 15.57-30.615 0-9.726-3.668-18.593-9.691-25.303 5.151-2.597 9.765-6.238 13.487-10.643z" fill="#85adc2"/><path d="m397.006 347.861c.701-2.584 1.081-5.299 1.081-8.105 0-15.718-11.738-28.685-26.924-30.639v70.32h27.15c.86 0 1.697-.087 2.519-.22v-31.137c-.822-.132-1.66-.22-2.519-.22h-1.307z" fill="#e1bdfc"/><path d="m377.027 102.522h-242.053c-29.385 0-53.291 23.101-53.291 51.496v297.177h348.634v-297.176c0-28.396-23.906-51.497-53.29-51.497zm23.806 311.434c0 3.574-2.897 6.471-6.471 6.471h-276.724c-3.574 0-6.471-2.897-6.471-6.471v-259.937c0-11.43 10.68-20.728 23.807-20.728h242.053c13.127 0 23.806 9.299 23.806 20.728z" fill="#f4dab5"/><path d="m441.281 499.656h-370.562c-7.713 0-13.965-6.253-13.965-13.965v-20.53c0-7.713 6.252-13.965 13.965-13.965h370.561c7.713 0 13.965 6.253 13.965 13.965v20.53c.001 7.713-6.252 13.965-13.964 13.965z" fill="#c49a8b"/><path d="m441.28 451.195h-46.782c5.089 0 9.215 4.125 9.215 9.214v5.802c0 5.089-4.125 9.214-9.215 9.214h-328.53c-5.089 0-9.214-4.125-9.214-9.214v19.479c0 7.713 6.252 13.965 13.965 13.965h370.561c7.713 0 13.965-6.253 13.965-13.965v-20.53c.001-7.712-6.252-13.965-13.965-13.965z" fill="#b2748a"/><path d="m98.48 359.491c18.137 13.794 25.727 34.329 25.727 34.329s-21.816-1.83-39.953-15.625c-18.137-13.794-27.551-31.586-25.727-34.329s21.816 1.831 39.953 15.625z" fill="#a1e8c3"/><path d="m186.288 359.491c-18.137 13.794-25.727 34.329-25.727 34.329s21.816-1.83 39.953-15.625c18.137-13.794 27.551-31.586 25.727-34.329-1.823-2.743-21.816 1.831-39.953 15.625z" fill="#a1e8c3"/><path d="m186.288 359.491c-18.137 13.794-25.727 34.329-25.727 34.329s21.816-1.83 39.953-15.625c18.137-13.794 27.551-31.586 25.727-34.329-1.823-2.743-21.816 1.831-39.953 15.625z" fill="#af30fa" opacity=".3"/><path d="m149.709 336.614c-14.701 25.462-6.904 57.485-6.904 57.485s31.63-9.26 46.331-34.722 12.285-54.066 6.905-57.484c-5.382-3.419-31.631 9.259-46.332 34.721z" fill="#a1e8c3"/><path d="m196.04 301.892c-1.53-.972-4.749-.639-8.908.915 2.399 4.921 1.697 22.72-7.907 39.357-10.654 18.452-31.56 26.327-31.56 26.327s-6.168-12.234.294-28.599c-12.298 24.848-5.154 54.206-5.154 54.206s31.63-9.26 46.331-34.722c14.7-25.462 12.284-54.066 6.904-57.484z" fill="#85adc2"/><path d="m135.13 336.614c14.701 25.462 6.905 57.485 6.905 57.485s-31.63-9.26-46.331-34.722-12.285-54.066-6.905-57.484c5.381-3.419 31.631 9.259 46.331 34.721z" fill="#a1e8c3"/><path d="m135.13 336.614c-14.701-25.462-40.95-38.14-46.331-34.722-.634.403-1.225 1.167-1.754 2.224 4.48-1.142 21.509 8.886 31.909 26.899 7.095 12.289 7.862 26.206 7.541 34.379-.139 3.545-3.944 5.742-7.084 4.09-7.239-3.809-18.907-11.431-26.003-23.72-5.339-9.246-7.93-18.869-8.776-26.535.083 11.193 2.984 26.142 11.071 40.148 14.701 25.462 46.331 34.722 46.331 34.722s7.797-32.023-6.904-57.485z" fill="#85adc2"/><path d="m154.448 447.709h-24.056c-22.503 0-41.344-17.052-43.583-39.443l-1.116-8.08c-.576-7.277 5.174-13.5 12.474-13.5h88.506c7.3 0 13.05 6.223 12.474 13.5l-1.116 8.08c-2.239 22.391-21.081 39.443-43.583 39.443z" fill="#e8a284"/><path d="m172.151 406.439c-3.955 12.946-17.301 22.277-32.919 22.277h-18.735c-17.526 0-32.2-11.745-33.943-27.167l-.702-4.496c-.175 1.012-.243 2.058-.158 3.132l1.116 8.08c2.239 22.391 21.08 39.443 43.583 39.443h24.056c22.502 0 41.344-17.051 43.583-39.443l.253-1.827h-26.134z" fill="#d57b84"/><path d="m193.458 406.492h-102.625c-5.898 0-10.679-4.781-10.679-10.679 0-5.898 4.781-10.679 10.679-10.679h102.625c5.898 0 10.679 4.781 10.679 10.679 0 5.898-4.781 10.679-10.679 10.679z" fill="#e8a284"/><path d="m479.163 4.791 8.215 23.098c.352.989 1.048 1.773 1.926 2.168l20.521 9.246c2.899 1.306 2.899 5.925 0 7.232l-20.521 9.246c-.878.396-1.575 1.18-1.926 2.168l-8.215 23.098c-1.16 3.263-5.264 3.263-6.425 0l-8.214-23.098c-.352-.989-1.048-1.773-1.927-2.168l-20.521-9.246c-2.899-1.306-2.899-5.926 0-7.232l20.521-9.246c.879-.396 1.575-1.18 1.927-2.168l8.214-23.098c1.161-3.263 5.265-3.263 6.425 0z" fill="#c1e5ef"/><path d="m29.124 74.832 6.093 17.133c.261.734.777 1.315 1.429 1.609l15.222 6.858c2.151.969 2.151 4.395 0 5.364l-15.222 6.858c-.652.294-1.168.875-1.429 1.609l-6.093 17.133c-.861 2.421-3.905 2.421-4.766 0l-6.093-17.133c-.261-.734-.777-1.315-1.429-1.609l-15.222-6.858c-2.151-.969-2.151-4.395 0-5.364l15.222-6.858c.652-.294 1.168-.875 1.429-1.609l6.093-17.133c.861-2.421 3.905-2.421 4.766 0z" fill="#c1e5ef"/><g fill="#96b4eb"><ellipse cx="188.414" cy="33.398" rx="17.937" ry="17.937" transform="matrix(.23 -.973 .973 .23 112.621 209.099)"/><circle cx="336.078" cy="53.175" r="7.737"/></g></g><g><path d="m441.28 441.195h-.964v-287.176c0-33.909-28.392-61.497-63.29-61.497h-242.052c-34.899 0-63.29 27.587-63.29 61.497v184.941c-5.3-1.565-9.81-2.174-12.776-1.673-2.988.503-4.573 2.05-5.376 3.257-1.07 1.61-3.913 5.885 5.399 19.697 2.272 3.37 6.484 8.994 12.753 15.049v65.905h-.964c-13.215 0-23.966 10.751-23.966 23.965v20.53c0 13.214 10.751 23.965 23.966 23.965h370.56c13.215 0 23.966-10.751 23.966-23.965v-20.53c0-13.214-10.751-23.965-23.966-23.965zm-347.689-28.703h97.666c-3.448 14.946-15.551 26.236-30.599 28.703h-36.478c-15.045-2.468-27.142-13.758-30.589-28.703zm23.576-205.102h.998c3.313 0 6-2.687 6-6 0-9.612 13.469-17.733 29.411-17.733s29.411 8.121 29.411 17.733c0 3.313 2.686 6 6 6h19.59c4.17 0 7.561 3.392 7.561 7.561 0 4.17-3.392 7.562-7.561 7.562h-91.41zm0 27.123h91.41c10.786 0 19.561-8.775 19.561-19.562 0-10.786-8.775-19.561-19.561-19.561h-14.399c-3.764-13.703-20.25-23.733-40.602-23.733-15.909 0-29.455 6.129-36.409 15.35v-32.988c0-8.121 7.988-14.729 17.807-14.729h115.026v120.797c-8.953 2.633-15.513 10.911-15.513 20.705 0 9.793 6.56 18.071 15.513 20.705v112.93h-46.881c.381-1.781.68-3.596.869-5.448l.038-.274c3.728-3.062 6.111-7.703 6.111-12.892 0-5.147-2.346-9.756-6.023-12.818.011-.008.022-.016.033-.024 11.369-8.647 18.471-17.953 21.691-22.73 9.312-13.812 6.47-18.087 5.4-19.696-.804-1.208-2.389-2.755-5.377-3.258-4.789-.811-13.596 1.259-23.299 5.626 6.058-20.673 4.488-41.134-3.305-46.085-2.595-1.648-5.99-1.925-10.378-.847-12.787 3.137-32.682 17.393-44.367 37.633-.752 1.303-1.444 2.621-2.091 3.947-.648-1.326-1.343-2.644-2.095-3.947-6.179-10.703-14.654-19.73-23.159-26.328zm236.002-95.223c-8.949 8.851-14.503 21.123-14.503 34.676 0 6.459 1.297 12.806 3.732 18.678-6.3-5.114-14.314-8.106-22.939-8.106-20.049 0-36.359 16.311-36.359 36.358 0 1.052.045 2.098.134 3.137-.474-.024-.95-.036-1.429-.036-7.796 0-14.832 3.295-19.805 8.559v-93.266zm-10.014 204.923c-.579-2.131-.872-4.33-.872-6.533 0-13.731 11.171-24.902 24.902-24.902s24.902 11.171 24.902 24.902c0 2.201-.294 4.4-.873 6.533-.489 1.803-.11 3.732 1.025 5.216.677.885 1.58 1.546 2.593 1.94v19.991h-70.94c-5.397 0-9.788-4.391-9.788-9.788s4.391-9.788 9.788-9.788h13.472c1.869 0 3.631-.871 4.766-2.355 1.136-1.485 1.515-3.413 1.025-5.216zm24.031-43.436c-20.348 0-36.902 16.554-36.902 36.902 0 .702.021 1.404.061 2.105h-6.451c-12.014 0-21.788 9.774-21.788 21.788s9.775 21.788 21.788 21.788h70.94v30.596c0 .26-.211.471-.471.471h-132.363v-112.89c9.031-2.583 15.668-10.895 15.668-20.745 0-.89-.071-1.762-.176-2.623 1.405.224 2.845.344 4.312.344 2.927 0 5.797-.462 8.524-1.361 4.452 9.189 13.825 15.308 24.518 15.308 15.03 0 27.258-12.228 27.258-27.258 0-1.174-.077-2.341-.227-3.496 7.914 11.951 21.487 19.727 36.629 19.727 5.772 0 11.276-1.143 16.327-3.179v35.015c-6.765-7.656-16.651-12.492-27.647-12.492zm-101.518-19.985c0 3.053-1.439 5.771-3.668 7.528v-15.057c2.229 1.758 3.668 4.476 3.668 7.529zm-15.668 7.412c-2.143-1.76-3.513-4.429-3.513-7.412s1.37-5.651 3.513-7.412zm144.833-23.28c-4.779 2.862-10.363 4.51-16.327 4.51-16.013 0-29.609-11.963-31.628-27.827-.289-2.271-1.845-4.18-4.011-4.92-2.17-.741-4.566-.184-6.184 1.435-2.61 2.61-5.837 4.622-9.331 5.819-1.997.684-3.487 2.367-3.925 4.432s.241 4.208 1.789 5.643c3.151 2.924 4.888 6.896 4.888 11.187 0 8.413-6.845 15.258-15.258 15.258-7.48 0-13.807-5.345-15.042-12.71-.34-2.025-1.691-3.736-3.583-4.535-.75-.317-1.544-.473-2.333-.473-1.203 0-2.397.361-3.416 1.067-2.556 1.769-5.553 2.704-8.668 2.704-8.413 0-15.258-6.845-15.258-15.258 0-8.414 6.845-15.258 15.258-15.258 2.389 0 4.68.54 6.809 1.605 2.229 1.115 4.92.734 6.752-.956 1.833-1.691 2.429-4.34 1.497-6.653-1.17-2.902-1.763-5.962-1.763-9.096 0-13.431 10.928-24.358 24.359-24.358 11.31 0 21.047 7.672 23.681 18.658.534 2.225 2.286 3.953 4.519 4.455 2.234.499 4.557-.309 5.99-2.092 2.247-2.792 4.925-5.17 7.958-7.07 1.583-.992 2.614-2.665 2.788-4.525.175-1.86-.527-3.695-1.899-4.964-7.518-6.955-11.829-16.809-11.829-27.033 0-15.961 10.208-29.577 24.437-34.676h1.923c9.818 0 17.807 6.607 17.807 14.729zm-304 135.568c-2.58 0-4.68-2.099-4.68-4.679s2.1-4.679 4.68-4.679h102.625c2.58 0 4.679 2.099 4.679 4.679s-2.099 4.679-4.679 4.679zm97.044-21.358h-7.2c5.087-4.651 9.865-10.195 13.654-16.757.374-.648.733-1.305 1.089-1.963 8.811-5.7 17.19-8.927 22.64-10.375-3.42 5.9-10.462 15.232-21.177 23.382-2.928 2.226-5.974 4.109-9.006 5.713zm-3.939-22.757c-5.898 10.217-14.949 17.647-23.214 22.757h-10.737c.319-6.506.12-14.406-1.433-22.694 1.24-5.67 3.236-11.434 6.35-16.826 12.073-20.912 31.631-31.511 37.841-32.244 2.521 5.797 3.243 28.137-8.807 49.007zm-54.004-16.763c7.64 13.233 8.587 28.707 8.001 39.52h-13.868c-8.239-5.1-17.256-12.52-23.166-22.757-12.049-20.868-11.326-43.208-8.808-49.007 6.212.734 25.768 11.334 37.841 32.244zm5.04-227.092h242.053c23.87 0 43.29 18.615 43.29 41.497v287.177h-232.788c4.653-4.128 8.527-9.125 11.372-14.769h195.461c6.876 0 12.471-5.594 12.471-12.471v-259.937c0-14.738-13.371-26.729-29.807-26.729h-242.052c-16.436 0-29.807 11.99-29.807 26.729v145.541c-3.301-1.685-6.423-2.897-9.208-3.58-1.548-.38-2.966-.582-4.275-.625v-141.336c0-22.882 19.42-41.497 43.29-41.497zm-68.265 237.516c5.472 1.455 13.898 4.703 22.75 10.448.343.634.688 1.266 1.049 1.89 3.788 6.562 8.566 12.106 13.654 16.757h-7.27c-3.031-1.604-6.078-3.487-9.006-5.714-10.715-8.148-17.757-17.481-21.177-23.381zm24.975 85.267c1.714 2.116 3.594 4.088 5.626 5.891h-5.626zm353.562 50.386c0 2.186-1.779 3.965-3.966 3.965h-370.56c-2.187 0-3.966-1.779-3.966-3.965v-20.53c0-2.186 1.779-3.965 3.966-3.965h370.56c2.186 0 3.966 1.779 3.966 3.965z" fill="#3c122c"/><path d="m140.739 293.207c-5.522 0-10-4.477-10-10v-24.894c0-5.523 4.478-10 10-10 5.523 0 10 4.477 10 10v24.894c0 5.523-4.477 10-10 10z" fill="#fff"/></g></g></g></svg>