<svg id="Capa_1" enable-background="new 0 0 515.973 515.973" height="512" viewBox="0 0 515.973 515.973" width="512" xmlns="http://www.w3.org/2000/svg"><g><g><path d="m140.679 340.409h31.023v100.801h-31.023z" fill="#c49a8b"/><path d="m209.58 464.404c1.391-2.665 2.182-5.694 2.182-8.908 0-10.652-8.635-19.288-19.288-19.288-.658 0-1.309.034-1.95.098-4.07-10.692-14.41-18.292-26.531-18.292-11.649 0-21.654 7.021-26.029 17.059-3.958-3.414-9.11-5.484-14.747-5.484-12.48 0-22.597 10.117-22.597 22.597 0 4.503 1.322 8.694 3.592 12.218z" fill="#a1e8c3"/><path d="m482.354 505.783h-385.461c-11.842 0-21.443-9.6-21.443-21.443 0-11.842 9.6-21.443 21.443-21.443h385.461c11.842 0 21.443 9.6 21.443 21.443 0 11.843-9.6 21.443-21.443 21.443z" fill="#ccf3e2"/><path d="m228.867 115.226h226.599v344.475h-226.599z" fill="#96b4eb"/><path d="m187.986 294.818c2.365-4.755 3.702-10.112 3.702-15.783 0-19.604-15.893-35.497-35.497-35.497s-35.497 15.892-35.497 35.497c0 5.671 1.337 11.027 3.702 15.783-8.294 8.2-13.438 19.58-13.438 32.165 0 24.981 20.251 45.233 45.233 45.233 24.981 0 45.233-20.251 45.233-45.233-.001-12.585-5.144-23.966-13.438-32.165z" fill="#a1e8c3"/><path d="m187.986 294.818c2.365-4.755 3.702-10.111 3.702-15.782 0-19.604-15.893-35.497-35.497-35.497-13.683 0-25.55 7.747-31.475 19.09 4.666-5.066 11.353-8.242 18.784-8.242 14.104 0 25.537 11.433 25.537 25.537 0 4.08-.962 7.933-2.663 11.354 5.967 5.899 9.667 14.086 9.667 23.14 0 17.972-14.569 32.541-32.541 32.541-16.013 0-29.314-11.569-32.026-26.802-.337 2.226-.515 4.505-.515 6.826 0 24.981 20.251 45.233 45.233 45.233 24.981 0 45.233-20.252 45.233-45.233-.002-12.585-5.145-23.966-13.439-32.165z" fill="#85adc2"/><path d="m464.383 455.62h-241.772c-5.257 0-9.519-4.262-9.519-9.519v-6.907c0-5.257 4.262-9.519 9.519-9.519h241.772c5.257 0 9.519 4.262 9.519 9.519v6.907c0 5.258-4.262 9.519-9.519 9.519z" fill="#c1e5ef"/><path d="m464.383 278.122h-241.772c-5.257 0-9.519-4.262-9.519-9.518v-6.907c0-5.257 4.262-9.518 9.519-9.518h241.772c5.257 0 9.519 4.262 9.519 9.518v6.907c0 5.256-4.262 9.518-9.519 9.518z" fill="#c1e5ef"/><path d="m461.467 112.028h-238.602c-6.132 0-11.104-4.971-11.104-11.104v-13.098c0-6.132 4.971-11.104 11.104-11.104h238.602c6.132 0 11.104 4.971 11.104 11.104v13.098c0 6.133-4.972 11.104-11.104 11.104z" fill="#c1e5ef"/><path d="m356.357 371.001h-28.382c-6.316 0-11.436 5.12-11.436 11.436v73.183h51.255v-73.183c0-6.315-5.121-11.436-11.437-11.436z" fill="#9781dd"/><path d="m455.466 278.122h-52.034v65.818c0 15.616-12.659 28.275-28.275 28.275h-13.694c3.75 1.877 6.331 5.744 6.331 10.223v47.238h87.672z" fill="#8286ea"/><path d="m316.539 382.438c0-4.479 2.581-8.346 6.331-10.223h-94.003v57.461h87.672z" fill="#8286ea"/><path d="m228.867 429.676h87.672v25.944h-87.672z" fill="#a6aaed"/><path d="m467.333 430.148-11.868.014v-.486h-87.672v25.944h96.589c2.45 0 4.677-.934 6.364-2.454v-21.036c-.977-.881-2.132-1.565-3.413-1.982z" fill="#a6aaed"/><path d="m316.539 382.438v73.182h51.255v-73.182c0-4.479-2.581-8.346-6.331-10.223h-38.593c-3.75 1.877-6.331 5.744-6.331 10.223z" fill="#8962de"/><path d="m472.932 257.531.115-4.435-17.581-2.51v-135.36h-52.034v136.952h60.951c3.761 0 7.003 2.186 8.549 5.353z" fill="#8286ea"/><path d="m464.383 252.178h-60.951v25.944h52.034v-2.046l15.41-.525c.637-.595 1.189-1.275 1.643-2.024l.414-15.996c-1.547-3.167-4.789-5.353-8.55-5.353z" fill="#a6aaed"/><path d="m172.361 459.701c-1.391-2.665-2.182-5.694-2.182-8.908 0-10.652 8.635-19.288 19.288-19.288.658 0 1.309.034 1.95.098 4.07-10.692 14.41-18.292 26.531-18.292 11.649 0 21.654 7.02 26.029 17.059 3.958-3.414 9.11-5.484 14.747-5.484 12.48 0 22.597 10.117 22.597 22.597 0 4.503-1.323 8.694-3.592 12.218z" fill="#a1e8c3"/><g fill="#fff"><path d="m291.202 349.057h-20.603c-4.478 0-8.107-3.63-8.107-8.107v-20.603c0-4.477 3.63-8.107 8.107-8.107h20.603c4.477 0 8.107 3.63 8.107 8.107v20.603c0 4.478-3.629 8.107-8.107 8.107z"/><path d="m413.733 349.057h-20.603c-4.477 0-8.107-3.63-8.107-8.107v-20.603c0-4.477 3.63-8.107 8.107-8.107h20.603c4.478 0 8.107 3.63 8.107 8.107v20.603c0 4.478-3.629 8.107-8.107 8.107z"/><path d="m423.145 223.276h-61.175v-35.974l4.833-28.445c0-6.658 5.397-12.056 12.056-12.056h27.075c6.658 0 12.056 5.398 12.056 12.056l5.156 30.013v34.406z"/><path d="m322.523 223.276h-61.175v-35.974l4.833-28.445c0-6.658 5.397-12.056 12.055-12.056h27.075c6.658 0 12.055 5.398 12.055 12.056l5.155 30.013v34.406z"/></g><path d="m41.992 165.076 8.37 23.535c.358 1.008 1.068 1.806 1.963 2.21l20.91 9.421c2.954 1.331 2.954 6.038 0 7.369l-20.91 9.421c-.895.403-1.605 1.202-1.963 2.21l-8.37 23.535c-1.182 3.325-5.364 3.325-6.547 0l-8.37-23.535c-.358-1.008-1.068-1.806-1.963-2.21l-20.91-9.421c-2.954-1.331-2.954-6.038 0-7.369l20.91-9.421c.895-.403 1.605-1.202 1.963-2.21l8.37-23.535c1.183-3.325 5.364-3.325 6.547 0z" fill="#c1e5ef"/><path d="m159.914 1.85 6.209 17.458c.266.748.792 1.34 1.456 1.639l15.511 6.988c2.191.987 2.191 4.479 0 5.466l-15.511 6.988c-.664.299-1.19.892-1.456 1.639l-6.209 17.458c-.877 2.466-3.979 2.466-4.856 0l-6.209-17.458c-.266-.748-.792-1.34-1.456-1.639l-15.511-6.988c-2.191-.987-2.191-4.479 0-5.466l15.511-6.988c.664-.299 1.19-.892 1.456-1.639l6.209-17.458c.877-2.467 3.979-2.467 4.856 0z" fill="#c1e5ef"/><circle cx="56.995" cy="75.247" fill="#96b4eb" r="18.276"/><path d="m160.049 153.498c0 4.354-3.53 7.884-7.884 7.884s-7.884-3.53-7.884-7.884 3.53-7.884 7.884-7.884 7.884 3.53 7.884 7.884z" fill="#96b4eb"/></g><g><g fill="#3c122c"><path d="m482.354 452.709h-3.824c.943-2.01 1.485-4.244 1.485-6.607v-6.907c0-8.19-6.335-14.916-14.361-15.568v-139.456c8.026-.651 14.361-7.378 14.361-15.568v-6.907c0-8.19-6.335-14.917-14.361-15.568v-124.329c9.742-1.951 17.106-10.567 17.106-20.875v-13.098c0-11.741-9.552-21.293-21.293-21.293h-238.602c-11.741 0-21.293 9.552-21.293 21.293v13.098c0 10.308 7.364 18.924 17.106 20.875v124.786c-6.718 1.751-11.698 7.853-11.698 15.111v6.907c0 7.259 4.98 13.36 11.698 15.112v119.427c-.244-.004-.485-.02-.73-.02-11.453 0-22.157 5.193-29.373 13.643-2.069-1.714-4.307-3.214-6.683-4.468v-36.234c17.65-9.28 29.721-27.792 29.721-49.079 0-12.584-4.159-24.51-11.831-34.234 1.393-4.41 2.096-8.999 2.096-13.713 0-25.192-20.495-45.687-45.686-45.687s-45.686 20.495-45.686 45.687c0 4.715.703 9.304 2.096 13.713-7.672 9.723-11.831 21.65-11.831 34.234 0 21.288 12.071 39.799 29.721 49.079v44.158c-2.371-.54-4.809-.819-7.273-.819-18.079 0-32.787 14.708-32.787 32.787 0 .395.012.789.027 1.182-14.366 2.981-25.196 15.735-25.196 30.972 0 17.442 14.19 31.632 31.632 31.632h385.461c17.442 0 31.632-14.19 31.632-31.632-.002-17.444-14.192-31.634-31.634-31.634zm-120.674-3.202h-39.028v-67.069c0-2.935 2.388-5.323 5.323-5.323h28.383c2.935 0 5.323 2.388 5.323 5.323v67.069zm-51.255 0h-18.987c.041-.672.072-1.346.072-2.023 0-4.119-.771-8.059-2.163-11.694h21.078zm157.363-10.313v6.907c0 1.878-1.527 3.405-3.405 3.405h-90.476v-13.716h90.476c1.878 0 3.405 1.527 3.405 3.404zm0-177.498v6.907c0 1.878-1.527 3.405-3.405 3.405h-241.772c-1.877 0-3.405-1.527-3.405-3.405v-6.907c0-1.877 1.527-3.405 3.405-3.405h241.772c1.878 0 3.405 1.528 3.405 3.405zm-22.512-136.281v120.649h-206.22v-120.649zm-223.325-37.589c0-.504.41-.914.914-.914h238.602c.504 0 .915.41.915.914v13.098c0 .504-.411.915-.915.915h-238.602c-.505 0-.914-.41-.914-.915zm17.105 196.41h206.22v139.327h-71.369v-41.124c0-9.677-7.873-17.55-17.55-17.55h-28.383c-9.677 0-17.55 7.873-17.55 17.55v41.124h-29.313c-5.865-5.492-13.738-8.866-22.388-8.866-3.909 0-7.755.7-11.367 2.036-2.41-2.839-5.214-5.289-8.301-7.309v-125.188zm-38.117 150.992c2.67-7.015 9.505-11.728 17.008-11.728 7.242 0 13.792 4.294 16.688 10.94 1.294 2.968 3.921 5.145 7.077 5.864 3.157.72 6.468-.104 8.919-2.219 2.25-1.941 5.123-3.01 8.092-3.01 6.842 0 12.408 5.566 12.408 12.408 0 .684-.056 1.362-.166 2.028h-90.507c.624-4.413 4.426-7.818 9.008-7.818.303 0 .618.016.936.048 4.579.456 8.899-2.211 10.537-6.513zm-69.38-133.164c3.129-3.093 3.919-7.845 1.96-11.784-1.749-3.517-2.635-7.3-2.635-11.245 0-13.955 11.353-25.308 25.307-25.308s25.307 11.353 25.307 25.308c0 3.945-.887 7.728-2.635 11.245-1.959 3.939-1.169 8.691 1.96 11.784 6.714 6.637 10.411 15.487 10.411 24.919 0 19.322-15.721 35.043-35.043 35.043-19.323 0-35.043-15.721-35.043-35.043 0-9.432 3.697-18.282 10.411-24.919zm24.632 80.34c1.796 0 3.57-.093 5.322-.261v25.769c-3.686.237-7.262 1.001-10.644 2.226v-27.995c1.752.168 3.526.261 5.322.261zm-32.974 57.375c2.968 0 5.842 1.069 8.092 3.01 2.451 2.115 5.763 2.939 8.919 2.219 3.157-.719 5.784-2.896 7.077-5.864 2.896-6.646 9.446-10.94 16.687-10.94 1.915 0 3.784.314 5.554.888-5.869 5.392-9.557 13.122-9.557 21.701 0 .64.025 1.278.067 1.916h-49.226c-.007-.174-.021-.347-.021-.522 0-6.842 5.566-12.408 12.408-12.408zm359.137 55.815h-385.461c-6.205 0-11.253-5.048-11.253-11.253s5.048-11.253 11.253-11.253h385.461c6.205 0 11.253 5.048 11.253 11.253s-5.047 11.253-11.253 11.253z"/><path d="m270.599 355.171h20.603c7.841 0 14.22-6.379 14.22-14.221v-20.603c0-7.842-6.379-14.221-14.22-14.221h-20.603c-7.842 0-14.221 6.379-14.221 14.221v20.603c0 7.842 6.38 14.221 14.221 14.221zm-1.993-34.824c0-1.099.895-1.994 1.994-1.994h20.603c1.099 0 1.993.895 1.993 1.994v20.603c0 1.099-.894 1.994-1.993 1.994h-20.603c-1.099 0-1.994-.895-1.994-1.994z"/><path d="m393.13 355.171h20.603c7.842 0 14.221-6.379 14.221-14.221v-20.603c0-7.842-6.379-14.221-14.221-14.221h-20.603c-7.841 0-14.22 6.379-14.22 14.221v20.603c-.001 7.842 6.379 14.221 14.22 14.221zm-1.993-34.824c0-1.099.894-1.994 1.993-1.994h20.603c1.099 0 1.994.895 1.994 1.994v20.603c0 1.099-.895 1.994-1.994 1.994h-20.603c-1.099 0-1.993-.895-1.993-1.994z"/><path d="m253.628 188.663v28.362c0 6.818 6.27 12.365 13.978 12.365h48.659c7.707 0 13.978-5.547 13.978-12.365v-28.362c1.606-1.102 2.661-2.949 2.661-5.043 0-3.376-2.738-6.114-6.114-6.114h-3.147v-16.927c0-10.968-8.923-19.89-19.891-19.89h-23.632c-10.968 0-19.891 8.923-19.891 19.89v16.927h-3.147c-3.376 0-6.114 2.737-6.114 6.114 0 2.094 1.054 3.941 2.66 5.043zm42.881 1.64v26.859h-9.495v-26.908zm-30.653 26.362v-26.518l8.931.046v26.971h-7.181c-.931-.001-1.51-.312-1.75-.499zm50.409.498h-7.529v-26.796l8.13.042c.218.023.438.037.662.037.164 0 .326-.012.487-.025v26.244c-.241.187-.819.498-1.75.498zm-43.809-56.584c0-4.226 3.438-7.663 7.664-7.663h23.632c4.225 0 7.663 3.437 7.663 7.663v16.927h-38.959z"/><path d="m354.09 188.663v28.362c0 6.818 6.27 12.365 13.978 12.365h48.659c7.707 0 13.978-5.547 13.978-12.365v-28.362c1.606-1.102 2.661-2.949 2.661-5.043 0-3.376-2.737-6.114-6.114-6.114h-3.147v-16.927c0-10.968-8.923-19.89-19.891-19.89h-23.634c-10.968 0-19.89 8.923-19.89 19.89v16.927h-3.147c-3.376 0-6.114 2.737-6.114 6.114 0 2.094 1.055 3.941 2.661 5.043zm42.88 1.64v26.859h-9.495v-26.908zm-30.653 26.362v-26.518l8.931.046v26.971h-7.181c-.931-.001-1.509-.312-1.75-.499zm50.409.498h-7.529v-26.796l8.13.042c.218.023.438.037.662.037.164 0 .326-.012.486-.025v26.244c-.239.187-.817.498-1.749.498zm-43.809-56.584c0-4.226 3.437-7.663 7.663-7.663h23.633c4.226 0 7.664 3.437 7.664 7.663v16.927h-38.959v-16.927z"/><path d="m418.858 391.924v11.545c0 3.376 2.737 6.114 6.114 6.114 3.376 0 6.114-2.737 6.114-6.114v-11.545c0-3.376-2.737-6.114-6.114-6.114s-6.114 2.738-6.114 6.114z"/><path d="m395.918 368.807c-3.376 0-6.114 2.737-6.114 6.114v11.545c0 3.376 2.737 6.114 6.114 6.114 3.376 0 6.114-2.737 6.114-6.114v-11.545c0-3.376-2.738-6.114-6.114-6.114z"/><path d="m342.166 342.535c3.376 0 6.114-2.738 6.114-6.114v-11.545c0-3.376-2.737-6.114-6.114-6.114-3.376 0-6.114 2.737-6.114 6.114v11.545c0 3.377 2.738 6.114 6.114 6.114z"/><path d="m278.194 373.15c-3.376 0-6.114 2.737-6.114 6.114v11.545c0 3.376 2.737 6.114 6.114 6.114 3.376 0 6.114-2.737 6.114-6.114v-11.545c0-3.376-2.737-6.114-6.114-6.114z"/></g><ellipse cx="143.383" cy="318.034" fill="#fff" rx="8.782" ry="8.782" transform="matrix(.122 -.993 .993 .122 -189.814 421.397)"/></g></g></svg>