<svg id="Capa_1" enable-background="new 0 0 512 512" height="512" viewBox="0 0 512 512" width="512" xmlns="http://www.w3.org/2000/svg"><g><g><path d="m177.378 143.163h-18.128c-9.683 0-17.533-7.85-17.533-17.533v-18.128c0-9.683 7.85-17.534 17.533-17.534h18.128c9.684 0 17.533 7.85 17.533 17.534v18.128c0 9.683-7.85 17.533-17.533 17.533z" fill="#f6e06e"/><path d="m188.905 501.718h-40.831c-14.785 0-26.343-12.755-24.891-27.469l7.784-78.869h76.061l6.797 79.187c1.254 14.604-10.262 27.151-24.92 27.151z" fill="#fff"/><path d="m213.825 474.567-6.797-79.187h-27.832l4.544 58.246c.838 10.742-6.861 19.971-16.66 19.971h-27.298c-6.995 0-12.906-4.702-15.422-11.285l-1.178 11.937c-1.452 14.713 10.106 27.469 24.891 27.469h40.831c14.659 0 26.175-12.547 24.921-27.151z" fill="#e1bdfc"/><path d="m211.995 418.842h-87.363c-34.536 0-62.533-27.997-62.533-62.533v-46.115h212.429v46.115c0 34.536-27.997 62.533-62.533 62.533z" fill="#fff"/><path d="m228.654 310.195v36.156c0 27.078-21.951 49.029-49.029 49.029h-68.497c-27.078 0-49.029-21.951-49.029-49.029v9.959c0 34.535 27.997 62.533 62.533 62.533h87.363c34.536 0 62.533-27.997 62.533-62.533v-46.115z" fill="#e1bdfc"/><path d="m80.936 164.731h174.756v121.033h-174.756z" fill="#fff"/><path d="m213.919 164.732v61.174c0 14.648-11.875 26.522-26.522 26.522h-106.461v33.336h174.756v-121.032z" fill="#e1bdfc"/><path d="m247.638 164.731h-158.648c-9.49 0-17.183-7.693-17.183-17.183v-11.616c0-9.49 7.693-17.183 17.183-17.183h158.648c9.49 0 17.183 7.693 17.183 17.183v11.616c-.001 9.49-7.694 17.183-17.183 17.183z" fill="#fff"/><path d="m263.083 334.626h-189.538c-13.493 0-24.431-10.938-24.431-24.431 0-13.493 10.938-24.431 24.431-24.431h189.538c13.493 0 24.431 10.938 24.431 24.431 0 13.493-10.938 24.431-24.431 24.431z" fill="#f4dab5"/><path d="m402.058 358.674h-30.775c-8.494 0-15.379-6.886-15.379-15.379v-52.105h61.533v52.105c.001 8.493-6.885 15.379-15.379 15.379z" fill="#fff"/><path d="m403.925 292.498h-35.881c-19.252 0-34.858-15.607-34.858-34.858v-10.423c0-19.252 15.607-34.858 34.858-34.858h35.881c19.252 0 34.858 15.607 34.858 34.858v10.423c0 19.252-15.606 34.858-34.858 34.858z" fill="#fff"/><ellipse cx="385.985" cy="188.208" fill="#f6e06e" rx="28.334" ry="28.334" transform="matrix(.707 -.707 .707 .707 -20.031 328.057)"/><path d="m327.395 245.974v-11.567c0-21.363 17.318-38.681 38.681-38.681h39.816c21.363 0 38.681 17.318 38.681 38.681v11.567z" fill="#c1e5ef"/><path d="m414.319 237.043c0 2.192-.203 4.328-.582 6.39h25.046v-2.958c0-20.635-13.585-37.618-31.039-39.804 4.092 5.403 6.575 12.457 6.575 20.181z" fill="#a6aaed"/><path d="m410.042 253.715c-4.769 8.48-13.064 14.099-22.506 14.099h-27.568c-13.344 0-24.405-11.214-26.443-25.886-.218 1.811-.339 3.658-.339 5.537v11.976c0 22.118 15.607 33.058 34.858 33.058h35.881c18.882 0 34.248-17.252 34.831-38.784z" fill="#e1bdfc"/><path d="m465.151 2.516 8.446 23.749c.362 1.017 1.078 1.823 1.981 2.23l21.1 9.507c2.981 1.343 2.981 6.093 0 7.436l-21.1 9.507c-.903.407-1.619 1.213-1.981 2.23l-8.446 23.749c-1.193 3.355-5.413 3.355-6.606 0l-8.446-23.749c-.362-1.017-1.077-1.823-1.981-2.23l-21.1-9.507c-2.981-1.343-2.981-6.093 0-7.436l21.1-9.507c.904-.407 1.619-1.213 1.981-2.23l8.446-23.749c1.193-3.355 5.413-3.355 6.606 0z" fill="#c1e5ef"/><path d="m43.031 7.351 6.265 17.617c.268.754.799 1.352 1.469 1.654l15.652 7.052c2.211.996 2.211 4.519 0 5.516l-15.652 7.052c-.67.302-1.201.9-1.469 1.654l-6.265 17.617c-.885 2.489-4.015 2.489-4.901 0l-6.265-17.617c-.268-.754-.799-1.352-1.469-1.654l-15.652-7.052c-2.211-.996-2.211-4.519 0-5.516l15.652-7.052c.67-.302 1.201-.9 1.469-1.654l6.265-17.617c.885-2.489 4.016-2.489 4.901 0z" fill="#c1e5ef"/><g fill="#96b4eb"><circle cx="342.711" cy="78.151" r="18.443"/><circle cx="198.665" cy="33.764" r="7.956"/></g></g><g fill="#3c122c"><path d="m263.845 275.501c1.368-4.03 2.129-8.338 2.129-12.826v-79.216c0-4.765-.849-9.332-2.383-13.576 6.962-4.987 11.512-13.137 11.512-22.335v-11.617c0-15.144-12.321-27.465-27.465-27.465h-42.444v-.966c0-15.337-12.478-27.816-27.815-27.816h-18.129c-15.337 0-27.816 12.478-27.816 27.816v.966h-42.444c-15.144 0-27.465 12.321-27.465 27.465v11.617c0 9.198 4.55 17.348 11.511 22.335-1.534 4.243-2.383 8.81-2.383 13.576v79.216c0 4.488.76 8.796 2.129 12.826-18.789.409-33.95 15.809-33.95 34.694 0 10.922 5.075 20.676 12.985 27.044v19.07c0 37.69 28.784 68.78 65.523 72.449l-4.39 44.481c-.977 9.896 2.293 19.797 8.97 27.166 6.678 7.369 16.21 11.595 26.154 11.595h40.831c9.858 0 19.336-4.166 26.002-11.428 6.666-7.263 10.006-17.062 9.163-26.884l-3.866-45.039c36.298-4.093 64.606-34.966 64.606-72.34v-19.07c7.91-6.368 12.986-16.122 12.986-27.044 0-18.885-15.162-34.285-33.951-34.694zm-167.81-.019c-2.995-3.429-4.817-7.904-4.817-12.807v-79.216c0-3.027.701-5.889 1.936-8.446h150.319c1.236 2.557 1.936 5.419 1.936 8.446v79.216c0 4.902-1.822 9.378-4.817 12.807zm55.964-167.981c0-3.998 3.253-7.251 7.251-7.251h18.128c3.998 0 7.251 3.253 7.251 7.251v.966h-32.63zm-69.91 28.431c0-3.805 3.096-6.9 6.901-6.9h158.647c3.805 0 6.901 3.096 6.901 6.9v11.617c0 3.805-3.096 6.9-6.901 6.9h-158.647c-3.805 0-6.901-3.096-6.901-6.9zm-8.544 160.114h189.538c7.802 0 14.149 6.347 14.149 14.149 0 7.801-6.347 14.148-14.149 14.148h-189.538c-7.801 0-14.149-6.347-14.149-14.148 0-7.802 6.347-14.149 14.149-14.149zm126.212 190.62c-2.823 3.076-6.677 4.77-10.852 4.77h-40.831c-4.211 0-8.087-1.719-10.915-4.839s-4.158-7.147-3.744-11.337l4.554-46.135h61.636l3.976 46.322c.357 4.159-1.002 8.144-3.824 11.219zm64.489-130.357c0 28.811-23.44 52.251-52.25 52.251h-87.364c-28.811 0-52.25-23.44-52.25-52.251v-11.431c.387.013.773.03 1.163.03h189.538c.39 0 .776-.017 1.163-.03z"/><path d="m424.572 189.155c.008-.316.03-.629.03-.947 0-21.293-17.323-38.616-38.616-38.616s-38.616 17.323-38.616 38.616c0 .318.022.631.03.946-17.758 7.357-30.285 24.867-30.285 45.253v11.566c0 4.066 2.366 7.571 5.791 9.239v2.427c0 16.733 9.158 31.357 22.718 39.153v46.501c0 14.15 11.512 25.662 25.662 25.662h30.774c14.15 0 25.662-11.512 25.662-25.662v-47.319c12.802-7.975 21.345-22.173 21.345-38.336v-2.427c3.425-1.668 5.791-5.172 5.791-9.238v-11.566c-.002-20.385-12.529-37.895-30.286-45.252zm-38.587-18.999c9.012 0 16.48 6.645 17.818 15.288h-35.635c1.337-8.643 8.805-15.288 17.817-15.288zm-48.308 64.252c0-15.66 12.74-28.399 28.399-28.399h39.816c15.66 0 28.399 12.74 28.399 28.399v1.284h-96.615v-1.284zm69.479 108.886c0 2.81-2.287 5.097-5.097 5.097h-30.774c-2.81 0-5.097-2.287-5.097-5.097v-40.561c.617.025 1.235.047 1.858.047h35.881c1.087 0 2.162-.052 3.231-.129v40.643zm-3.231-61.078h-35.881c-13.551 0-24.576-11.025-24.576-24.576v-1.383h85.033v1.383c0 13.551-11.024 24.576-24.576 24.576z"/><path d="m222.265 354.762c-3.407 0-6.169 2.762-6.169 6.169v11.65c0 3.407 2.762 6.169 6.169 6.169s6.169-2.762 6.169-6.169v-11.65c.001-3.407-2.762-6.169-6.169-6.169z"/><path d="m189.68 368.448c-3.407 0-6.169 2.762-6.169 6.169v11.65c0 3.407 2.762 6.169 6.169 6.169s6.169-2.762 6.169-6.169v-11.65c0-3.407-2.762-6.169-6.169-6.169z"/></g></g></svg>