<svg id="Capa_1" enable-background="new 0 0 512 512" height="512" viewBox="0 0 512 512" width="512" xmlns="http://www.w3.org/2000/svg"><g><g><path d="m434.746 501.974h-359.693c-8.817 0-15.965-7.148-15.965-15.965v-359.693c0-8.817 7.148-15.965 15.965-15.965h359.693c8.817 0 15.965 7.148 15.965 15.965v359.693c0 8.817-7.148 15.965-15.965 15.965z" fill="#a07575"/><path d="m192.761 424.52v-314.17h-117.708c-8.817 0-15.966 7.148-15.966 15.965v359.693c0 8.818 7.148 15.965 15.966 15.965h359.693c8.818 0 15.966-7.148 15.966-15.965v-61.488z" fill="#c49a8b"/><path d="m145.769 110.35c12.326 0 22.318 9.992 22.318 22.318v227.155c0 12.326-9.992 22.318-22.318 22.318h-64.364c-12.326 0-22.318-9.992-22.318-22.318v64.473h133.674v-313.946z" fill="#b2748a"/><path d="m194.59 156.172h256.121v29.566h-256.121z" fill="#c2b2eb"/><path d="m155.955 319.526c-6.701 0-12.132-5.432-12.132-12.132v-23.831c0-6.701 5.432-12.132 12.132-12.132 6.701 0 12.132 5.432 12.132 12.132v23.831c0 6.701-5.431 12.132-12.132 12.132z" fill="#f4dab5"/><path d="m311.865 205.912s48.531-29.376 51.035-31.376c6.021-4.81 7.008-13.622 2.198-19.644s-13.622-7.008-19.645-2.198c-4.317 3.447-10.611 2.743-14.059-1.573-3.448-4.317-2.744-10.611 1.573-14.059 14.641-11.694 36.067-9.297 47.762 5.345 11.694 14.642 9.297 36.067-5.344 47.762-.117.094-.239.181-.358.273l21.294 15.471c4.469 3.247 5.46 9.503 2.212 13.973-1.957 2.694-5.007 4.124-8.101 4.124-2.038 0-4.096-.621-5.871-1.911l-26.604-21.357-34.332 21.357c-4.47 3.247-10.725 2.256-13.972-2.213-3.249-4.471-2.258-10.727 2.212-13.974z" fill="#f6e06e"/><path d="m270.026 229.455 38.636-27.018c7.62-4.128 15.78-7.991 24.446-7.998l3.413-.005c-.534 1.917-.826 3.935-.826 6.022 0 12.367 10.026 22.393 22.393 22.393s22.393-10.026 22.393-22.393c0-2.109-.298-4.147-.843-6.082l3.632-.005c8.591-.008 18.093 3.725 25.712 8.169l36.867 26.592c2.491 2.286 2.658 6.158.374 8.651l-21.063 25.189c-2.285 2.494-6.16 2.663-8.654.378l-5.92-5.424v81.595h-104.996v-80.915l-5.22 4.862c-2.476 2.306-6.351 2.168-8.657-.308l-21.991-25.049c-2.304-2.474-2.168-6.347.304-8.654z" fill="#a1e8c3"/><path d="m272.326 205.912s48.531-29.376 51.035-31.376c6.022-4.81 7.008-13.622 2.198-19.644s-13.622-7.008-19.645-2.198c-4.317 3.447-10.611 2.743-14.059-1.573-3.448-4.317-2.744-10.611 1.573-14.059 14.641-11.694 36.067-9.297 47.762 5.345 11.694 14.642 9.297 36.067-5.344 47.762-.117.094-.239.181-.358.273l21.294 15.471c4.469 3.247 5.46 9.503 2.212 13.973-1.957 2.694-5.007 4.124-8.101 4.124-2.038 0-4.096-.621-5.871-1.911l-26.605-21.357-34.332 21.357c-4.47 3.247-10.725 2.256-13.973-2.213-3.247-4.471-2.256-10.727 2.214-13.974z" fill="#f6e06e"/><path d="m230.487 229.455 38.636-27.018c7.62-4.128 15.78-7.991 24.446-7.998l3.413-.005c-.534 1.917-.826 3.935-.826 6.022 0 12.367 10.026 22.393 22.393 22.393s22.393-10.026 22.393-22.393c0-2.109-.298-4.147-.843-6.082l3.632-.005c8.59-.008 18.092 3.725 25.712 8.169l36.867 26.592c2.491 2.286 2.658 6.158.374 8.651l-21.063 25.189c-2.285 2.494-6.16 2.663-8.654.378l-5.92-5.424v81.595h-104.996v-80.915l-5.221 4.862c-2.475 2.306-6.351 2.168-8.657-.308l-21.991-25.049c-2.303-2.474-2.167-6.347.305-8.654z" fill="#d789b9"/><path d="m434.746 110.351h-93.606c5.387.001 9.754 5.151 9.754 11.504v7.953c11.05-1.056 22.406 3.296 29.836 12.598 3.328 4.166 5.51 8.882 6.599 13.767h63.383v-29.856c-.001-8.819-7.149-15.966-15.966-15.966z" fill="#925873"/><path d="m375.386 190.167c-.117.094-.239.181-.358.274l5.411 3.931 2.832-.004c8.591-.008 18.093 3.724 25.712 8.169l36.867 26.592c2.491 2.286 2.658 6.158.374 8.651l-21.063 25.189c-2.285 2.494-6.16 2.663-8.654.378l-5.92-5.425v81.595h-104.997-39.539-71.921v84.968h256.58v-238.747h-70.746c-1.362 1.588-2.884 3.076-4.578 4.429z" fill="#925873"/><path d="m379.965 185.738h70.746v-29.566h-63.383c2.294 10.295-.296 21.334-7.363 29.566z" fill="#ae85ea"/><path d="m375.386 190.167c14.641-11.695 17.038-33.12 5.344-47.762-7.429-9.302-18.786-13.653-29.836-12.598v20.237c5.112-1.228 10.712.474 14.204 4.846 4.809 6.022 3.823 14.834-2.198 19.644-.746.596-5.584 3.626-12.006 7.584v13.021c6.463 1.313 13.005 4.163 18.551 7.398l9.258 6.678c1.145-2.691 1.779-5.651 1.779-8.76 0-2.109-.298-4.147-.843-6.082l.8-.001-5.411-3.931c.118-.092.24-.18.358-.274z" fill="#dda86a"/><path d="m410.588 339.517v-81.595l5.92 5.425c2.494 2.285 6.369 2.116 8.654-.378l21.063-25.189c2.284-2.493 2.116-6.365-.374-8.651l-36.867-26.592c-7.62-4.445-17.122-8.177-25.712-8.169l-3.632.005c.545 1.935.843 3.973.843 6.082 0 3.109-.635 6.069-1.779 8.76l27.609 19.914c2.491 2.286 2.658 6.158.374 8.651l-21.063 25.189c-2.285 2.494-6.16 2.663-8.654.378l-5.92-5.425v81.595h-65.46z" fill="#85adc2"/><path d="m371.049 339.517v-81.595l5.92 5.425c2.494 2.285 6.369 2.116 8.654-.378l21.063-25.189c2.284-2.493 2.116-6.365-.374-8.651l-36.867-26.592c-5.546-3.235-12.088-6.085-18.551-7.398v115.045c0 16.2-13.575 29.332-30.32 29.332h-54.522 104.997z" fill="#c668b9"/><path d="m221.987 205.912s48.531-29.376 51.035-31.376c6.022-4.81 7.008-13.622 2.198-19.644s-13.622-7.008-19.645-2.198c-4.317 3.447-10.611 2.743-14.059-1.573-3.448-4.317-2.744-10.611 1.573-14.059 14.641-11.694 36.067-9.297 47.762 5.345s9.297 36.067-5.344 47.762c-.117.094-.239.181-.358.273l21.294 15.471c4.469 3.247 5.46 9.503 2.212 13.973-1.957 2.694-5.007 4.124-8.101 4.124-2.038 0-4.096-.621-5.871-1.911l-26.605-21.357-34.332 21.357c-4.47 3.247-10.725 2.256-13.973-2.213-3.246-4.471-2.255-10.727 2.214-13.974z" fill="#f6e06e"/><path d="m180.148 229.455 38.636-27.018c7.62-4.128 15.78-7.991 24.446-7.998l3.413-.005c-.534 1.917-.826 3.935-.826 6.022 0 12.367 10.026 22.393 22.393 22.393s22.393-10.026 22.393-22.393c0-2.109-.298-4.147-.843-6.082l3.632-.005c8.591-.008 18.093 3.725 25.712 8.169l36.867 26.592c2.491 2.286 2.658 6.158.374 8.651l-21.063 25.189c-2.286 2.494-6.16 2.663-8.654.378l-5.92-5.424v81.595h-104.995v-80.915l-5.22 4.862c-2.476 2.306-6.351 2.168-8.657-.308l-21.991-25.049c-2.304-2.474-2.168-6.347.303-8.654z" fill="#96b4eb"/><path d="m180.003 460.78c0 6.701-5.432 12.132-12.132 12.132h-23.831c-6.701 0-12.132-5.432-12.132-12.132 0-6.701 5.432-12.132 12.132-12.132h23.831c6.7 0 12.132 5.432 12.132 12.132z" fill="#f4dab5"/><path d="m378.141 460.78c0 6.701-5.432 12.132-12.132 12.132h-23.831c-6.701 0-12.132-5.432-12.132-12.132 0-6.701 5.432-12.132 12.132-12.132h23.831c6.7 0 12.132 5.432 12.132 12.132z" fill="#f4dab5"/><path d="m357.626 424.52v24.128h8.383c6.7 0 12.132 5.432 12.132 12.132 0 6.701-5.432 12.132-12.132 12.132h-20.553-3.278-270.92c-6.722 0-12.171-4.474-12.171-9.992v23.089c0 8.818 7.148 15.965 15.965 15.965h359.693c8.818 0 15.965-7.148 15.965-15.965v-61.489z" fill="#b2748a"/><path d="m345.455 472.912h20.553c6.7 0 12.132-5.431 12.132-12.132 0-6.7-5.432-12.132-12.132-12.132h-8.383v14.272c.001 5.518-5.448 9.992-12.17 9.992z" fill="#dba2b3"/><path d="m410.694 422.534h-76.605c-7.672 0-13.892-6.22-13.892-13.892 0-7.672 6.219-13.892 13.892-13.892h76.605c7.672 0 13.892 6.22 13.892 13.892-.001 7.673-6.22 13.892-13.892 13.892z" fill="#9781dd"/><path d="m410.694 394.751h-76.605c-7.672 0-13.892-6.22-13.892-13.892 0-7.672 6.219-13.892 13.892-13.892h76.605c7.672 0 13.892 6.22 13.892 13.892-.001 7.672-6.22 13.892-13.892 13.892z" fill="#faf1a9"/><path d="m324.863 391.224c1.238-.861 2.652-1.351 4.155-1.351-4.537 0-8.271-4.451-8.762-10.172-.032.383-.059.768-.059 1.158 0 4.126 1.81 7.821 4.666 10.365z" fill="#af30fa"/><path d="m410.694 394.751c7.672 0 13.891-6.22 13.891-13.892s-6.219-13.892-13.891-13.892h-33.038c4.871 0 8.82 5.127 8.82 11.452s-3.949 11.453-8.82 11.453c4.418 0 8.687.83 9.445 5.701l24.812-.762c-.402-.033-.807-.06-1.219-.06z" fill="#dfb5a7"/><path d="m411.914 394.812-24.812.762c.078.499.131 1.027.131 1.616 0 6.325-3.949 11.452-8.82 11.452h-48.638c-3.866 0-7.143-3.234-8.334-7.729-.307 1.148-.486 2.349-.486 3.594 0 7.672 5.463 18.027 13.135 18.027h76.605c7.672 0 13.891-6.219 13.891-13.891-.001-7.261-5.573-13.212-12.672-13.831z" fill="#8962de"/><path d="m478.637 2.454 8.236 23.157c.353.991 1.051 1.777 1.931 2.174l20.574 9.269c2.907 1.31 2.907 5.941 0 7.25l-20.574 9.27c-.881.397-1.579 1.183-1.931 2.174l-8.236 23.157c-1.164 3.272-5.278 3.272-6.442 0l-8.236-23.157c-.353-.991-1.051-1.777-1.932-2.174l-20.574-9.27c-2.907-1.309-2.907-5.941 0-7.25l20.574-9.269c.881-.397 1.579-1.183 1.932-2.174l8.236-23.157c1.164-3.272 5.279-3.272 6.442 0z" fill="#c1e5ef"/><path d="m29.64 38.676 6.109 17.177c.262.736.779 1.318 1.433 1.613l15.262 6.876c2.156.972 2.156 4.407 0 5.378l-15.262 6.876c-.653.294-1.171.877-1.433 1.613l-6.109 17.178c-.863 2.427-3.915 2.427-4.778 0l-6.109-17.178c-.261-.736-.779-1.318-1.433-1.613l-15.261-6.875c-2.156-.972-2.156-4.407 0-5.378l15.262-6.876c.653-.294 1.171-.877 1.433-1.613l6.109-17.177c.862-2.427 3.914-2.427 4.777-.001z" fill="#c1e5ef"/><g fill="#96b4eb"><ellipse cx="117.382" cy="22.212" rx="17.983" ry="17.983" transform="matrix(.707 -.707 .707 .707 18.674 89.508)"/><circle cx="386.927" cy="59.274" r="7.757"/></g></g><g><g fill="#3c122c"><path d="m434.745 100.325h-359.692c-14.332 0-25.991 11.659-25.991 25.991v359.693c0 14.332 11.659 25.991 25.991 25.991h359.693c14.332 0 25.992-11.659 25.992-25.991v-359.693c-.001-14.332-11.661-25.991-25.993-25.991zm-108.532 280.534c0-4.343 3.533-7.876 7.877-7.876h76.604c4.343 0 7.877 3.533 7.877 7.876s-3.534 7.876-7.877 7.876h-76.604c-4.344 0-7.877-3.533-7.877-7.876zm0 27.783c0-4.343 3.533-7.876 7.877-7.876h76.604c4.343 0 7.877 3.534 7.877 7.876 0 3.486-2.279 6.445-5.423 7.48h-81.511c-3.146-1.034-5.424-3.994-5.424-7.48zm98.713-13.891c3.505-3.59 5.675-8.49 5.675-13.891 0-10.977-8.93-19.907-19.908-19.907h-76.604c-10.977 0-19.908 8.93-19.908 19.907 0 5.402 2.17 10.301 5.675 13.891-3.505 3.59-5.675 8.49-5.675 13.892 0 2.646.53 5.168 1.471 7.48h-111.036v-145.136c1.692.238 3.426.132 5.082-.346v68.875c0 3.322 2.693 6.015 6.016 6.015h104.996c.181 0 .359-.011.536-.027 0 .009 0 .018-.001.027h.534 49.269c.379 0 .748-.039 1.107-.106-.003.035-.005.071-.008.106h.431 38.009c3.322 0 6.015-2.693 6.015-6.015v-69.239c4.452 1.565 9.61.447 12.993-3.245.062-.067.122-.136.18-.206l10.909-13.046v162.34h-11.554c.941-2.312 1.471-4.834 1.471-7.48 0-5.4-2.17-10.299-5.675-13.889zm-178.081-252.991c12.049-9.624 29.683-7.651 39.307 4.399 9.624 12.049 7.651 29.683-4.452 39.348-1.628 1.151-2.605 3.04-2.564 5.037.032 1.889.951 3.652 2.479 4.762l2.649 1.924c.607 2.89.342 6.055-.658 8.76l-11.859-9.119c-1.954-1.501-4.626-1.661-6.746-.398l-12.75 7.597c-.954-3.23-.012-6.539.399-9.758 11.939-7.297 22.749-13.977 24.128-15.078 8.612-6.88 10.023-19.485 3.143-28.098-3.329-4.168-8.087-6.79-13.399-7.385-4.189-.469-8.311.387-11.914 2.394h-9.039c-.519-1.542-.068-3.311 1.276-4.385zm147.226 24.438h46.614v9.515h-48.405c.977-3.094 1.581-6.289 1.791-9.515zm-34.03 58.499c-.173-.159-.356-.308-.548-.446l-15.512-11.188c1.946-3.852 2.946-8.16 2.978-12.475 5.753.696 12.559 3.161 19.208 7.004l36.113 26.047c.001.028-.009.056-.029.078-.062.067-.121.136-.179.205l-20.906 25.001c-.038.021-.1.019-.132-.01l-5.921-5.425c-1.759-1.612-4.304-2.032-6.487-1.071-2.183.96-3.592 3.12-3.592 5.506v75.579h-38.307v-63.223c4.452 1.565 9.609.447 12.993-3.245.062-.067.122-.136.18-.206l20.99-25.102c4.407-4.936 4.04-12.542-.849-17.029zm-.82-54.921c-.583.428-2.713 1.782-5.853 3.737.61-2.399 1.002-4.848 1.163-7.315h7.18c-.462 1.37-1.295 2.624-2.49 3.578zm17.843 100.509c1.446.511 2.99.746 4.572.674 3.241-.141 6.232-1.536 8.422-3.927.062-.067.121-.135.179-.205l20.99-25.102c4.408-4.936 4.041-12.542-.849-17.029-.173-.159-.356-.308-.548-.446l-24.07-17.361c.461-2.07.728-4.178.737-6.302 5.753.696 12.559 3.161 19.208 7.004l34.979 25.23v2.207l-19.983 23.897c-.041.024-.095.02-.13-.013l-5.921-5.425c-1.759-1.612-4.305-2.032-6.487-1.071-2.183.96-3.592 3.12-3.592 5.506v75.579h-27.508v-63.216zm63.621-52.299-28.183-20.328c-.158-.114-.32-.22-.489-.317-.832-.486-1.794-1.021-2.845-1.578h31.516v22.223zm-69.108-32.478-.253.192c-1.488 1.162-2.345 2.957-2.312 4.845.032 1.889.951 3.652 2.479 4.762l2.649 1.924c.095.475.164.953.218 1.433-.363-.252-1.513-1.119-1.882-1.323-4.526-2.641-12.534-6.674-21.377-8.283 8.16-5.02 14.52-8.996 15.555-9.824 8.612-6.88 10.023-19.485 3.143-28.098-4.969-6.222-12.92-8.657-20.2-6.949-1.065-1.915-2.294-3.769-3.706-5.536-.368-.461-.748-.909-1.133-1.35 10.939-3.905 23.628-.711 31.271 8.858 9.624 12.05 7.652 29.684-4.452 39.349zm-35.087-39.348c9.624 12.049 7.651 29.683-4.452 39.348l-.253.192c-1.488 1.162-2.345 2.957-2.312 4.845.032 1.889.951 3.652 2.479 4.762l2.649 1.924c.587 2.864.369 5.876-.609 8.626l-11.368-8.199c-.158-.114-.32-.22-.489-.317-3.181-1.856-8.085-4.402-13.785-6.312 9.655-5.922 17.596-10.861 18.764-11.794 8.612-6.88 10.023-19.485 3.143-28.098-6.169-7.724-16.933-9.632-25.302-4.991h-4.671c-.781-1.608-1.678-3.177-2.692-4.697 5.756-4.429 12.884-6.428 20.153-5.614 7.436.832 14.092 4.499 18.745 10.325zm-16.808 23.616c-.782.575-4.335 2.807-9.4 5.936h-7.88c.977-3.093 1.581-6.289 1.791-9.515h17.979c-.462 1.371-1.295 2.625-2.49 3.579zm-44.051 45.261c-2.23 1.14-4.748 1.796-7.42 1.796-3.391 0-6.544-1.036-9.161-2.809l8.6-5.124zm-3.797-48.839c-.463 1.37-1.296 2.624-2.491 3.578-.782.575-4.336 2.808-9.399 5.936h-55.329v-9.515h67.219zm-67.218 29.566h13.916c-2.387.899-11.665 7.731-13.916 9.242zm17.334 11.801c5.43-2.932 11.588-5.986 17.854-6.862.133 15.552 12.825 28.161 28.407 28.161 15.621 0 28.337-12.673 28.409-28.277 5.753.696 12.559 3.161 19.209 7.004l36.113 26.047c.001.028-.009.056-.029.078-.062.067-.121.136-.179.205l-20.908 25.004c-.041.024-.095.02-.13-.013l-5.921-5.425c-1.759-1.612-4.304-2.032-6.487-1.071-2.183.96-3.592 3.12-3.592 5.506v75.579h-92.966v-74.899c0-2.394-1.42-4.561-3.615-5.516-2.197-.956-4.748-.517-6.5 1.114l-5.22 4.862c-.039.037-.099.039-.14.008l-21.888-24.931c-.039-.044-.078-.088-.118-.131-.016-.017-.025-.038-.028-.059zm218.735-81.249v19.83h-50.523c-1.27-2.615-2.844-5.13-4.732-7.495-12.434-15.566-34.202-19.353-50.998-9.801-4.66-2.65-9.854-4.357-15.348-4.972-10.633-1.189-21.073 1.823-29.409 8.481-.071.056-.132.121-.201.179-14.278-11.569-35.204-12.106-50.138-.178-4.306 3.439-6.365 8.665-5.965 13.786h-28.755v-25.77h230.13c3.274 0 5.939 2.665 5.939 5.94zm-365.632-5.94h109.511v98.651l-7.863 5.499c-.231.161-.45.339-.656.531-4.866 4.539-5.158 12.178-.672 17.076l9.191 10.469v163.52h-115.451v-289.806c0-3.275 2.665-5.94 5.94-5.94zm-5.94 365.633v-49.835h175.76v55.775h-169.82c-3.275 0-5.94-2.665-5.94-5.94zm365.632 5.94h-169.821v-55.775h175.761v49.835c0 3.275-2.665 5.94-5.94 5.94z"/><path d="m155.955 325.542c10.007 0 18.148-8.141 18.148-18.148v-23.832c0-10.007-8.141-18.148-18.148-18.148s-18.148 8.141-18.148 18.148v23.832c0 10.007 8.141 18.148 18.148 18.148zm-6.117-41.979c0-3.373 2.744-6.117 6.117-6.117s6.117 2.744 6.117 6.117v23.832c0 3.373-2.744 6.117-6.117 6.117s-6.117-2.744-6.117-6.117z"/><path d="m167.871 442.632h-23.832c-10.007 0-18.148 8.141-18.148 18.148s8.141 18.148 18.148 18.148h23.832c10.007 0 18.148-8.141 18.148-18.148s-8.141-18.148-18.148-18.148zm0 24.265h-23.832c-3.373 0-6.117-2.744-6.117-6.117s2.744-6.117 6.117-6.117h23.832c3.373 0 6.117 2.744 6.117 6.117s-2.744 6.117-6.117 6.117z"/><path d="m366.008 442.632h-23.831c-10.007 0-18.148 8.141-18.148 18.148s8.141 18.148 18.148 18.148h23.831c10.007 0 18.148-8.141 18.148-18.148s-8.141-18.148-18.148-18.148zm0 24.265h-23.831c-3.373 0-6.117-2.744-6.117-6.117s2.744-6.117 6.117-6.117h23.831c3.373 0 6.117 2.744 6.117 6.117.001 3.373-2.744 6.117-6.117 6.117z"/><path d="m273.815 320.341c3.322 0 6.016-2.693 6.016-6.016v-11.36c0-3.322-2.693-6.016-6.016-6.016-3.322 0-6.015 2.693-6.015 6.016v11.36c0 3.323 2.693 6.016 6.015 6.016z"/><path d="m290.992 287.017c3.322 0 6.015-2.694 6.015-6.016v-11.36c0-3.322-2.693-6.016-6.015-6.016s-6.016 2.694-6.016 6.016v11.36c.001 3.323 2.694 6.016 6.016 6.016z"/></g><path d="m89.241 235.986c-5.537 0-10.026-4.489-10.026-10.026v-31.591c0-5.537 4.489-10.026 10.026-10.026s10.026 4.488 10.026 10.026v31.591c0 5.537-4.489 10.026-10.026 10.026z" fill="#fff"/><path d="m89.241 172.161c-5.537 0-10.026-4.489-10.026-10.026v-8.746c0-5.537 4.489-10.026 10.026-10.026s10.026 4.489 10.026 10.026v8.746c0 5.537-4.489 10.026-10.026 10.026z" fill="#fff"/><path d="m244.3 303.668c-5.537 0-10.026-4.488-10.026-10.026v-22.212c0-5.537 4.489-10.026 10.026-10.026s10.026 4.489 10.026 10.026v22.212c0 5.538-4.489 10.026-10.026 10.026z" fill="#fff"/></g></g></svg>