<svg id="Capa_1" enable-background="new 0 0 512 512" height="512" viewBox="0 0 512 512" width="512" xmlns="http://www.w3.org/2000/svg"><g><g><g fill="#f4dab5"><path d="m76.418 501.972h-10.807c-9.023 0-16.337-7.314-16.337-16.337l-4.011-64.535c0-9.023 11.325-16.337 20.348-16.337h10.807c9.023 0 20.348 7.314 20.348 16.337l-4.011 64.535c0 9.023-7.315 16.337-16.337 16.337z"/><path d="m443.364 501.972h-10.807c-9.023 0-16.337-7.314-16.337-16.337l-4.011-64.535c0-9.023 11.326-16.337 20.348-16.337h10.807c9.023 0 20.348 7.314 20.348 16.337l-4.011 64.535c0 9.023-7.315 16.337-16.337 16.337z"/></g><path d="m476.516 430.331h-444.058c-12.167 0-22.031-9.864-22.031-22.031v-77.138c0-12.167 9.864-22.031 22.031-22.031h444.059c12.168 0 22.031 9.864 22.031 22.031v77.138c0 12.167-9.864 22.031-22.032 22.031z" fill="#c49a8b"/><path d="m160.383 351.13c0 8.396-6.807 15.203-15.203 15.203h-29.863c-8.396 0-15.203-6.807-15.203-15.203 0-8.396 6.806-15.203 15.203-15.203h29.863c8.397.001 15.203 6.807 15.203 15.203z" fill="#f4dab5"/><path d="m408.535 351.13c0 8.396-6.807 15.203-15.203 15.203h-29.862c-8.396 0-15.203-6.807-15.203-15.203 0-8.396 6.807-15.203 15.203-15.203h29.863c8.396.001 15.202 6.807 15.202 15.203z" fill="#f4dab5"/><path d="m476.516 309.131h-114.131c8.846 0 16.016 7.171 16.016 16.016v10.781h14.931c8.396 0 15.203 6.806 15.203 15.202s-6.807 15.203-15.203 15.203h-14.931v11.751c0 8.845-7.171 16.016-16.016 16.016h-335.942c-8.846 0-16.016-7.171-16.016-16.016v30.216c0 12.168 9.864 22.032 22.031 22.032h444.059c12.167 0 22.031-9.864 22.031-22.032v-77.138c0-12.168-9.864-22.031-22.032-22.031z" fill="#b2748a"/><path d="m408.535 351.13c0-8.396-6.807-15.202-15.203-15.202h-14.931v30.405h14.931c8.396 0 15.203-6.806 15.203-15.203z" fill="#dba2b3"/><path d="m227.057 254.271h54.859v54.859h-54.859z" fill="#9781dd"/><path d="m348.911 270.465h-188.848c-18.407 0-33.383-13.532-33.383-30.166v-98.148c0-16.634 14.976-30.166 33.383-30.166h188.847c18.408 0 33.383 13.532 33.383 30.166v98.149c.001 16.633-14.975 30.165-33.382 30.165z" fill="#c2b2eb"/><path d="m348.91 111.985h-33.302c15.649 0 28.381 10.565 28.381 23.552v76.63c0 12.986-12.732 23.552-28.381 23.552h-160.547c-15.649 0-28.381-10.566-28.381-23.552v28.133c0 16.633 14.976 30.165 33.383 30.165h188.847c18.408 0 33.383-13.532 33.383-30.165v-98.148c.001-16.634-14.975-30.167-33.383-30.167z" fill="#ae85ea"/><path d="m69 149.656h-13.517c-9.946 0-18.009 8.063-18.009 18.009v123.456c0 9.946 8.063 18.009 18.009 18.009h13.517c9.946 0 18.009-8.063 18.009-18.009v-123.456c0-9.946-8.063-18.009-18.009-18.009z" fill="#9781dd"/><path d="m453.491 149.656h-13.517c-9.946 0-18.009 8.063-18.009 18.009v123.456c0 9.946 8.063 18.009 18.009 18.009h13.517c9.946 0 18.009-8.063 18.009-18.009v-123.456c0-9.946-8.063-18.009-18.009-18.009z" fill="#9781dd"/><circle cx="62.242" cy="211.845" fill="#c2b2eb" r="23.874"/><circle cx="446.733" cy="211.845" fill="#c2b2eb" r="23.874"/><path d="m413.223 429.624h50.489v30.345h-50.489z" fill="#dba2b3"/><path d="m45.77 429.624h50.489v30.345h-50.489z" fill="#dba2b3"/><path d="m478.673 2.454 8.237 23.162c.353.992 1.051 1.778 1.932 2.175l20.579 9.271c2.907 1.31 2.907 5.942 0 7.252l-20.579 9.271c-.881.397-1.579 1.183-1.932 2.174l-8.237 23.162c-1.164 3.272-5.279 3.272-6.443 0l-8.237-23.162c-.353-.992-1.051-1.778-1.932-2.174l-20.579-9.271c-2.907-1.31-2.907-5.942 0-7.252l20.579-9.271c.881-.397 1.579-1.183 1.932-2.175l8.237-23.162c1.164-3.272 5.279-3.272 6.443 0z" fill="#c2b2eb"/><path d="m48.16 42.979 6.11 17.181c.262.736.779 1.319 1.433 1.613l15.265 6.877c2.157.972 2.157 4.408 0 5.379l-15.265 6.877c-.654.294-1.171.877-1.433 1.613l-6.11 17.181c-.863 2.427-3.916 2.427-4.779 0l-6.111-17.18c-.262-.736-.779-1.319-1.433-1.613l-15.265-6.877c-2.156-.972-2.156-4.408 0-5.379l15.265-6.877c.654-.294 1.171-.877 1.433-1.613l6.11-17.181c.864-2.428 3.916-2.428 4.78-.001z" fill="#c2b2eb"/><g fill="#9781dd"><ellipse cx="133.487" cy="33.399" rx="17.987" ry="17.987" transform="matrix(.23 -.973 .973 .23 70.312 155.642)"/><circle cx="383.437" cy="59.035" r="7.759"/></g></g><g><g fill="#3c122c"><path d="m115.318 372.35h29.862c11.701 0 21.219-9.519 21.219-21.22s-9.519-21.219-21.219-21.219h-29.862c-11.701 0-21.22 9.519-21.22 21.219 0 11.701 9.52 21.22 21.22 21.22zm0-30.405h29.862c5.065 0 9.186 4.121 9.186 9.186s-4.121 9.186-9.186 9.186h-29.862c-5.066 0-9.187-4.121-9.187-9.186 0-5.066 4.121-9.186 9.187-9.186z"/><path d="m393.332 329.911h-29.862c-11.701 0-21.22 9.519-21.22 21.219 0 11.701 9.52 21.22 21.22 21.22h29.862c11.701 0 21.219-9.519 21.219-21.22.001-11.7-9.518-21.219-21.219-21.219zm0 30.405h-29.862c-5.066 0-9.187-4.121-9.187-9.186s4.121-9.186 9.187-9.186h29.862c5.065 0 9.186 4.121 9.186 9.186 0 5.066-4.121 9.186-9.186 9.186z"/><path d="m480.293 299.333c.799-2.599 1.235-5.354 1.235-8.211v-123.457c0-15.46-12.577-28.036-28.037-28.036h-13.517c-15.46 0-28.037 12.577-28.037 28.036v123.457c0 2.773.412 5.45 1.166 7.981h-121.158v-18.609h56.966c23.937 0 43.411-18.031 43.411-40.193v-98.148c0-22.163-19.474-40.194-43.411-40.194h-188.848c-23.937 0-43.411 18.031-43.411 40.194v98.147c0 22.163 19.474 40.193 43.411 40.193h56.967v18.609h-121.163c.754-2.532 1.17-5.208 1.17-7.981v-123.456c0-15.46-12.577-28.036-28.037-28.036h-13.516c-15.46 0-28.037 12.577-28.037 28.036v123.457c0 2.857.434 5.613 1.232 8.211-15.902 1.877-28.28 15.431-28.28 31.829v77.138c0 17.678 14.382 32.059 32.059 32.059h3.955l2.835 45.624c.187 14.378 11.941 26.017 26.362 26.017h10.807c14.421 0 26.175-11.639 26.363-26.017l2.835-45.624h297.743l2.835 45.624c.187 14.378 11.942 26.017 26.364 26.017h10.806c14.422 0 26.176-11.639 26.363-26.017l2.835-45.624h3.954c17.677 0 32.059-14.382 32.059-32.059v-77.138c.001-16.399-12.378-29.953-28.281-31.829zm8.226 31.829v52.91h-224.004v-64.914h212.001c6.619 0 12.003 5.385 12.003 12.004zm-48.545-171.478h13.517c4.401 0 7.981 3.58 7.981 7.981v13.662c-4.459-2.165-9.459-3.383-14.74-3.383-5.282 0-10.279 1.226-14.739 3.391v-13.669c0-4.402 3.58-7.982 7.981-7.982zm20.605 52.161c0 7.635-6.212 13.847-13.847 13.847-7.634 0-13.846-6.212-13.846-13.847s6.212-13.846 13.846-13.846c7.636 0 13.847 6.211 13.847 13.846zm-28.586 79.276v-48.765c4.46 2.165 9.457 3.391 14.739 3.391s10.281-1.219 14.74-3.383v48.757c0 4.401-3.58 7.981-7.981 7.981h-13.517c-4.401.001-7.981-3.58-7.981-7.981zm-295.285-50.821v-98.148c0-11.104 10.477-20.138 23.355-20.138h188.848c12.878 0 23.355 9.034 23.355 20.138v98.148c0 11.104-10.477 20.138-23.355 20.138h-188.848c-12.878-.001-23.355-9.034-23.355-20.138zm100.378 40.193h34.803v18.609h-34.803zm-181.602 18.61c-4.401 0-7.981-3.58-7.981-7.981v-48.764c4.46 2.165 9.458 3.39 14.739 3.39 5.282 0 10.279-1.225 14.739-3.39v48.764c0 4.401-3.58 7.981-7.981 7.981zm-7.089-87.258c0-7.635 6.212-13.846 13.846-13.846s13.846 6.211 13.846 13.846-6.212 13.847-13.846 13.847-13.846-6.212-13.846-13.847zm7.089-52.161h13.516c4.401 0 7.981 3.58 7.981 7.981v13.667c-4.46-2.165-9.458-3.389-14.739-3.389-5.282 0-10.279 1.225-14.739 3.39v-13.668c-.001-4.401 3.58-7.981 7.981-7.981zm-23.026 159.474h212.001v64.914h-224.005v-52.91c0-6.619 5.385-12.004 12.004-12.004zm50.288 165.856c-.013.207-.02.414-.02.622 0 3.478-2.83 6.309-6.309 6.309h-10.807c-3.479 0-6.309-2.83-6.309-6.309 0-.208-.007-.415-.02-.622l-2.775-44.655h29.014zm366.946 0c-.013.207-.02.414-.02.622 0 3.478-2.83 6.309-6.31 6.309h-10.806c-3.479 0-6.31-2.83-6.31-6.309 0-.208-.007-.415-.02-.622l-2.775-44.655h29.015zm26.824-64.711h-444.058c-6.619 0-12.003-5.385-12.003-12.004v-4.172h468.065v4.172c-.001 6.62-5.385 12.004-12.004 12.004z"/><path d="m334.423 210.22c-3.323 0-6.017 2.694-6.017 6.017v11.362c0 3.323 2.694 6.017 6.017 6.017s6.017-2.694 6.017-6.017v-11.362c0-3.323-2.694-6.017-6.017-6.017z"/><path d="m309.683 188.912c-3.323 0-6.017 2.694-6.017 6.017v11.362c0 3.323 2.694 6.017 6.017 6.017s6.017-2.694 6.017-6.017v-11.362c-.001-3.323-2.695-6.017-6.017-6.017z"/><path d="m274.976 215.901c-3.323 0-6.017 2.694-6.017 6.017v11.362c0 3.323 2.694 6.017 6.017 6.017s6.017-2.694 6.017-6.017v-11.362c-.001-3.323-2.695-6.017-6.017-6.017z"/></g><path d="m242.002 159.684h-38.135c-5.538 0-10.028-4.49-10.028-10.028s4.49-10.028 10.028-10.028h38.135c5.538 0 10.028 4.49 10.028 10.028 0 5.539-4.49 10.028-10.028 10.028z" fill="#fff"/><path d="m170.108 159.684h-5.428c-5.538 0-10.028-4.49-10.028-10.028s4.49-10.028 10.028-10.028h5.428c5.538 0 10.028 4.49 10.028 10.028 0 5.539-4.49 10.028-10.028 10.028z" fill="#fff"/></g></g></svg>