<svg id="Capa_1" enable-background="new 0 0 512 512" height="512" viewBox="0 0 512 512" width="512" xmlns="http://www.w3.org/2000/svg"><g><g><path d="m180.92 433.792h-43.109l-12.971 56.001c-1.443 6.23 3.288 12.182 9.683 12.182h13.654c4.128 0 7.827-2.552 9.292-6.411z" fill="#f6e06e"/><path d="m331.694 433.792h43.109l12.972 56.001c1.443 6.23-3.288 12.182-9.683 12.182h-13.654c-4.128 0-7.827-2.552-9.292-6.411z" fill="#f6e06e"/><path d="m70.309 298.047c-10.556 0-19.114-8.557-19.114-19.114v-167.415c0-41.169 33.493-74.662 74.661-74.662 41.169 0 74.662 33.493 74.662 74.662 0 10.556-8.558 19.114-19.114 19.114s-19.113-8.557-19.113-19.114c0-20.09-16.345-36.435-36.434-36.435-20.09 0-36.435 16.344-36.435 36.435v167.415c.001 10.556-8.557 19.114-19.113 19.114z" fill="#c1e5ef"/><path d="m235.176 165.904h-102.778c-6.371 0-11.209-5.804-9.987-12.056 5.619-28.77 30.962-50.481 61.377-50.481s55.758 21.712 61.377 50.481c1.219 6.253-3.618 12.056-9.989 12.056z" fill="#f6e06e"/><path d="m245.163 153.848c-5.619-28.77-30.962-50.481-61.377-50.481-1.24 0-2.467.049-3.689.12 17.987 1.343 32.642 14.642 36.029 31.981.777 3.976-2.3 7.666-6.351 7.666h-65.356c-4.051 0-7.128-3.69-6.351-7.666 1.912-9.792 7.421-18.295 15.091-24.087-15.688 8.831-27.187 24.225-30.749 42.467-1.221 6.253 3.617 12.056 9.987 12.056h102.778c6.372 0 11.21-5.803 9.988-12.056z" fill="#dda86a"/><path d="m346.349 457.416h-180.084c-64.491 0-116.772-52.281-116.772-116.772v-58.194h413.627v58.194c.001 64.492-52.28 116.772-116.771 116.772z" fill="#c1e5ef"/><path d="m49.494 282.45v58.195c0 1.896.049 3.78.138 5.654h275.663v35.129c0 41.967-34.021 75.988-75.988 75.988h97.042c64.491 0 116.772-52.28 116.772-116.771v-58.195z" fill="#a6aaed"/><path d="m464.564 313.019h-417.128c-13.788 0-24.965-11.177-24.965-24.965 0-13.788 11.177-24.965 24.965-24.965h417.128c13.788 0 24.965 11.177 24.965 24.965 0 13.788-11.177 24.965-24.965 24.965z" fill="#f6e06e"/><path d="m387.264 386.19h-84.265c-10.227 0-18.517-8.29-18.517-18.517v-104.236c0-10.227 8.29-18.517 18.517-18.517h84.265c10.227 0 18.517 8.29 18.517 18.517v104.236c0 10.227-8.29 18.517-18.517 18.517z" fill="#e8c2d8"/><path d="m284.482 324.987h121.299v26.484h-121.299z" fill="#d789b9"/><path d="m374.51 258.663v61.793h30.964c.105 0 .205.01.307.015v-57.033c0-10.227-8.291-18.517-18.517-18.517h-26.496c7.589-.001 13.742 6.152 13.742 13.742z" fill="#d392d8"/><path d="m405.781 346.51v-16.044c-.102.005-.201.015-.307.015h-30.964v5.547c0 4.203-1.892 7.961-4.866 10.482z" fill="#c668b9"/><path d="m284.482 356.536v11.137c0 10.227 8.291 18.518 18.517 18.518h84.265c10.227 0 18.517-8.29 18.517-18.518v-11.137z" fill="#d392d8"/><path d="m324.594 2.454 8.236 23.157c.353.991 1.051 1.777 1.931 2.174l20.574 9.269c2.907 1.31 2.907 5.941 0 7.25l-20.574 9.27c-.881.397-1.579 1.183-1.931 2.174l-8.236 23.157c-1.164 3.272-5.278 3.272-6.442 0l-8.236-23.157c-.353-.991-1.051-1.777-1.931-2.174l-20.574-9.27c-2.906-1.309-2.906-5.941 0-7.25l20.574-9.269c.881-.397 1.579-1.183 1.931-2.174l8.236-23.157c1.164-3.272 5.279-3.272 6.442 0z" fill="#c1e5ef"/><path d="m447.474 148.411 6.109 17.177c.262.736.779 1.318 1.433 1.613l15.262 6.876c2.156.971 2.156 4.407 0 5.378l-15.262 6.876c-.653.294-1.171.877-1.433 1.613l-6.109 17.178c-.863 2.427-3.915 2.427-4.778 0l-6.109-17.178c-.262-.735-.779-1.318-1.433-1.613l-15.262-6.876c-2.156-.972-2.156-4.407 0-5.378l15.262-6.876c.653-.294 1.171-.877 1.433-1.613l6.109-17.177c.863-2.427 3.915-2.427 4.778 0z" fill="#c1e5ef"/><g fill="#96b4eb"><ellipse cx="481.103" cy="63.097" rx="17.983" ry="17.983" transform="matrix(.23 -.973 .973 .23 309.159 516.834)"/><ellipse cx="354.749" cy="138.833" rx="7.757" ry="7.757" transform="matrix(.973 -.23 .23 .973 -22.408 85.219)"/></g></g><g><g fill="#3c122c"><path d="m499.555 288.054c0-19.294-15.697-34.991-34.991-34.991h-50.717c-4.16-10.623-14.504-18.169-26.583-18.169h-84.264c-12.079 0-22.423 7.546-26.583 18.169h-176.969v-141.545c0-14.562 11.848-26.409 26.41-26.409 11.036 0 20.507 6.807 24.45 16.441-19.08 9.949-33.399 28.169-37.737 50.376-1.154 5.914.385 11.978 4.223 16.638 3.856 4.681 9.543 7.366 15.604 7.366h102.778c6.062 0 11.749-2.685 15.605-7.366 3.838-4.66 5.377-10.724 4.223-16.638-4.913-25.155-22.637-45.186-45.578-53.882-6.472-40.312-41.46-71.214-83.568-71.214-46.697 0-84.687 37.991-84.687 84.688v142.118c-16.313 2.963-28.724 17.263-28.724 34.417 0 16.553 11.557 30.447 27.023 34.065v18.526c0 54.205 34.193 100.567 82.14 118.67l-6.535 28.216c-1.382 5.965.011 12.135 3.82 16.928 3.81 4.793 9.507 7.542 15.629 7.542h13.655c8.238 0 15.739-5.175 18.664-12.879l12.028-31.68h154.877l12.027 31.681c2.926 7.702 10.426 12.878 18.665 12.878h13.654c6.123 0 11.82-2.749 15.629-7.542 3.81-4.793 5.202-10.963 3.82-16.928l-6.535-28.216c47.946-18.103 82.14-64.465 82.14-118.67v-18.668c15.157-3.836 26.407-17.589 26.407-33.922zm-103.8 57.402h-101.247v-14.454h101.247zm-101.247 12.031h101.247v10.186c0 4.682-3.81 8.492-8.491 8.492h-84.264c-4.682 0-8.492-3.809-8.492-8.492zm8.491-102.542h84.264c4.682 0 8.491 3.809 8.491 8.492v55.535h-101.246v-55.535c0-4.683 3.809-8.492 8.491-8.492zm-67.669-99.172c-.002.004-.037.105-.155.105h-102.777c-.117 0-.153-.101-.148-.109 4.796-24.555 26.47-42.377 51.537-42.377 25.066.001 46.741 17.823 51.543 42.381zm-109.473-108.891c29.374 0 54.198 19.709 62.029 46.588-1.359-.076-2.723-.129-4.098-.129-4.981 0-9.859.525-14.59 1.498-6.716-17.4-23.599-29.782-43.339-29.782-25.619 0-46.461 20.842-46.461 46.461v141.545h-18.177v-141.545c0-35.64 28.995-64.636 64.636-64.636zm-93.36 241.172c0-8.237 6.702-14.939 14.94-14.939h227.02v29.879h-227.021c-8.238-.001-14.939-6.702-14.939-14.94zm102.134 203.894 6.267-27.057c5.44 1.109 11.007 1.862 16.674 2.247l-9.395 24.811zm243.352.001-13.464.055-9.441-24.869c5.654-.386 11.21-1.138 16.638-2.245zm-31.634-44.559h-180.084c-58.86 0-106.746-47.886-106.746-106.746v-17.599h214.937v44.628c0 15.739 12.804 28.543 28.543 28.543h84.264c15.739 0 28.543-12.804 28.543-28.543v-44.628h37.288v17.599c.001 58.86-47.885 106.746-106.745 106.746zm118.215-144.397h-48.757v-29.879h48.757c8.238 0 14.94 6.702 14.94 14.939-.001 8.239-6.702 14.94-14.94 14.94z"/><path d="m319.456 291.887c3.322 0 6.015-2.693 6.015-6.016v-11.36c0-3.322-2.693-6.016-6.015-6.016s-6.016 2.694-6.016 6.016v11.36c0 3.323 2.694 6.016 6.016 6.016z"/><path d="m354.748 306.849c3.322 0 6.016-2.693 6.016-6.015v-11.36c0-3.322-2.694-6.016-6.016-6.016s-6.016 2.694-6.016 6.016v11.36c.001 3.321 2.694 6.015 6.016 6.015z"/></g><path d="m128.107 404.271c-1.971 0-3.961-.58-5.704-1.788-1.718-1.191-3.407-2.442-5.02-3.717-4.344-3.434-5.081-9.739-1.648-14.082 3.434-4.344 9.738-5.081 14.082-1.648 1.286 1.017 2.636 2.016 4.011 2.97 4.55 3.155 5.682 9.402 2.526 13.952-1.946 2.807-5.071 4.313-8.247 4.313z" fill="#fff"/><path d="m192.898 421.201c-11.161 0-23.618-.153-35.89-3.051-5.389-1.273-8.726-6.673-7.453-12.062s6.672-8.725 12.062-7.453c10.72 2.532 22.165 2.521 33.243 2.514h.008c5.534 0 10.021 4.483 10.026 10.018.005 5.537-4.48 10.03-10.018 10.034-.654-.001-1.314 0-1.978 0z" fill="#fff"/></g></g></svg>