<svg id="Capa_1" enable-background="new 0 0 512 512" height="512" viewBox="0 0 512 512" width="512" xmlns="http://www.w3.org/2000/svg"><g><g><path d="m141.443 150.865h271.807v321.793h-271.807z" fill="#c1e5ef"/><path d="m354.605 150.865v166.333c0 35.97-29.159 65.129-65.129 65.129h-148.032v90.331h271.806v-321.793z" fill="#a6aaed"/><path d="m421.811 296.612-140.095-10.747c-10.765-.826-19.08-9.802-19.08-20.599v-14.592h160.934c12.704 0 23.002 10.299 23.002 23.003.001 13.397-11.403 23.96-24.761 22.935z" fill="#9781dd"/><path d="m305.873 251.283h-57.052c-7.702 0-13.945-6.243-13.945-13.945v-32.602c0-7.701 6.243-13.945 13.945-13.945h57.052c7.701 0 13.945 6.243 13.945 13.945v32.602c-.001 7.702-6.244 13.945-13.945 13.945z" fill="#c2b2eb"/><path d="m407.628 501.509h-260.562c-12.806 0-23.187-10.381-23.187-23.187v-14.62c0-12.806 10.381-23.187 23.187-23.187h260.562c12.806 0 23.187 10.381 23.187 23.187v14.62c0 12.806-10.381 23.187-23.187 23.187z" fill="#96b4eb"/><path d="m407.628 440.516h-54.262c8.297 0 15.023 6.726 15.023 15.023v2.096c0 8.297-6.726 15.023-15.023 15.023h-214.464c-7.385 0-13.512-5.333-14.773-12.355-.163 1.11-.25 2.244-.25 3.399v14.62c0 12.806 10.381 23.187 23.187 23.187h260.562c12.806 0 23.187-10.381 23.187-23.187v-14.62c0-12.805-10.381-23.186-23.187-23.186z" fill="#8286ea"/><path d="m402.504 210.254h-250.315c-15.635 0-28.31-12.675-28.31-28.31v-49.351c0-15.635 12.675-28.31 28.31-28.31h250.315c15.635 0 28.31 12.675 28.31 28.31v49.351c.001 15.635-12.674 28.31-28.31 28.31z" fill="#96b4eb"/><path d="m402.504 104.282h-63.094c11.821 0 21.403 9.583 21.403 21.403v35.659c0 11.821-9.583 21.403-21.403 21.403h-194.128c-11.821 0-21.403-9.583-21.403-21.403v20.599c0 15.635 12.675 28.31 28.31 28.31h250.315c15.635 0 28.31-12.675 28.31-28.31v-49.352c.001-15.634-12.674-28.309-28.31-28.309z" fill="#8286ea"/><path d="m288.218 440.516h-21.742c-27.799 0-50.335-22.536-50.335-50.335v-28.348c0-12.648 10.253-22.902 22.902-22.902h76.609c12.648 0 22.902 10.254 22.902 22.902v28.348c-.001 27.799-22.537 50.335-50.336 50.335z" fill="#d789b9"/><path d="m315.651 338.931h-23.626c9.645 0 17.464 7.819 17.464 17.464v21.617c0 21.199-17.185 38.385-38.384 38.385h-16.58c-21.199 0-38.384-17.186-38.384-38.385v12.168c0 27.799 22.536 50.335 50.335 50.335h21.742c27.799 0 50.335-22.536 50.335-50.335v-28.348c0-12.647-10.253-22.901-22.902-22.901z" fill="#c668b9"/><path d="m84.501 352.551h-6.364c-10.268 0-18.321-8.816-17.393-19.042l6.364-70.171c.816-8.997 8.359-15.887 17.393-15.887 9.646 0 17.465 7.819 17.465 17.465v70.171c0 9.645-7.82 17.464-17.465 17.464z" fill="#9781dd"/><ellipse cx="277.347" cy="157.268" fill="#f6e06e" rx="28.818" ry="28.818" transform="matrix(.924 -.383 .383 .924 -39.072 118.107)"/><path d="m46.87 45.275 8.618 24.231c.369 1.037 1.099 1.86 2.021 2.275l21.529 9.7c3.042 1.37 3.042 6.216 0 7.587l-21.529 9.7c-.922.415-1.652 1.237-2.021 2.275l-8.618 24.231c-1.217 3.423-5.523 3.423-6.74 0l-8.618-24.231c-.369-1.037-1.099-1.86-2.021-2.275l-21.529-9.7c-3.041-1.37-3.041-6.216 0-7.587l21.529-9.7c.922-.415 1.652-1.238 2.021-2.275l8.618-24.231c1.217-3.423 5.522-3.423 6.74 0z" fill="#c1e5ef"/><path d="m480.766 20.722 6.392 17.974c.274.77.815 1.379 1.499 1.688l15.97 7.195c2.256 1.017 2.256 4.611 0 5.628l-15.97 7.195c-.684.308-1.225.918-1.499 1.688l-6.392 17.975c-.903 2.539-4.097 2.539-5 0l-6.392-17.975c-.274-.77-.816-1.379-1.499-1.688l-15.97-7.195c-2.256-1.017-2.256-4.611 0-5.628l15.97-7.195c.684-.308 1.226-.918 1.499-1.688l6.392-17.974c.903-2.54 4.097-2.54 5 0z" fill="#c1e5ef"/><g fill="#96b4eb"><ellipse cx="310.382" cy="18.817" rx="18.817" ry="18.817" transform="matrix(.23 -.973 .973 .23 220.757 316.573)"/><path d="m199.794 35.052c0 4.483-3.634 8.117-8.117 8.117s-8.117-3.634-8.117-8.117 3.634-8.117 8.117-8.117c4.483-.001 8.117 3.634 8.117 8.117z"/></g></g><g><g fill="#3c122c"><path d="m423.741 244.383v-29.99c10.568-6.94 17.565-18.89 17.565-32.45v-49.351c0-21.395-17.406-38.801-38.802-38.801h-250.315c-21.395 0-38.801 17.406-38.801 38.801v39.665h-7.149c-17.58 0-31.882 14.302-31.882 31.882v34.697c-9.652 3.718-16.705 12.621-17.697 23.555l-6.364 70.171c-.708 7.802 1.916 15.594 7.2 21.378 5.283 5.784 12.807 9.102 20.641 9.102h6.364c15.415 0 27.955-12.541 27.955-27.956v-70.171c0-11.574-7.07-21.527-17.118-25.769v-35.008c0-6.011 4.89-10.901 10.9-10.901h8.831c2.674 8.769 8.376 16.225 15.883 21.154v219.745c-10.457 5.722-17.565 16.829-17.565 29.565v14.62c0 18.57 15.108 33.677 33.678 33.677h260.562c18.57 0 33.678-15.108 33.678-33.677v-14.62c0-12.737-7.108-23.843-17.565-29.565v-131.168c7.279-.047 14.363-2.819 19.737-7.797 5.968-5.527 9.389-13.361 9.389-21.495.001-16.097-13.049-29.2-29.125-29.293zm-332.266 90.704c0 3.845-3.128 6.974-6.974 6.974h-6.364c-2.675 0-4.375-1.422-5.149-2.271-.774-.848-2.038-2.668-1.796-5.333l6.364-70.171c.328-3.617 3.314-6.344 6.946-6.344 3.845 0 6.974 3.128 6.974 6.974v70.171zm311.284-90.708h-77.936c.819-2.197 1.289-4.563 1.289-7.041v-16.593h76.392c.086 0 .17-.006.255-.007zm-153.938.609c-4.218 0-7.65-3.432-7.65-7.65v-16.593h72.352v16.593c0 3.158-1.924 6.484-4.661 7.651zm-114.451-112.396c0-9.825 7.994-17.819 17.82-17.819h250.315c9.826 0 17.82 7.994 17.82 17.819v49.351c0 9.826-7.994 17.82-17.82 17.82h-250.316c-9.826 0-17.82-7.994-17.82-17.82v-49.351zm17.819 88.153h76.392v16.593c0 11.16 9.08 20.24 20.24 20.24h7.52v7.688c0 13.999 10.935 25.805 24.893 26.876l121.524 9.322v128.562h-74.345c3.435-3.465 6.417-7.375 8.871-11.628h3.337c16.627 0 30.153-13.526 30.153-30.153v-11.835c0-16.627-13.527-30.153-30.153-30.153h-.296c-5.18-8.177-14.301-13.62-24.676-13.62h-76.609c-16.099 0-29.196 13.098-29.196 29.197v28.347c0 15.523 6.282 29.604 16.433 39.844h-74.345v-209.287c.088.001.172.007.257.007zm70.246 169.436v-28.347c0-9.158 7.45-16.608 16.607-16.608h76.609c9.157 0 16.607 7.45 16.607 16.608v28.347c0 17.586-10.364 32.79-25.302 39.844h-59.218c-14.938-7.054-25.303-22.259-25.303-39.844zm122.299-30.829c7.704 1.858 13.452 8.791 13.452 17.058v11.834c0 8.99-6.792 16.413-15.512 17.433 1.405-4.929 2.173-10.123 2.173-15.497v-28.347c0-.836-.043-1.662-.113-2.481zm75.59 118.971c0 7-5.695 12.696-12.697 12.696h-260.561c-7 0-12.696-5.695-12.696-12.696v-14.62c0-7.001 5.696-12.696 12.696-12.696h260.562c7.001 0 12.697 5.695 12.697 12.696v14.62zm14.599-192.388c-3.453 3.199-7.943 4.754-12.63 4.401l-140.095-10.746c-7.44-.571-13.267-6.863-13.267-14.323v-8.297h154.64c9.212 0 16.707 7.495 16.707 16.708 0 4.705-1.901 9.059-5.355 12.257z"/><path d="m277.347 192.38c19.361 0 35.112-15.751 35.112-35.112 0-19.36-15.751-35.112-35.112-35.112s-35.112 15.751-35.112 35.112 15.751 35.112 35.112 35.112zm0-57.635c12.419 0 22.523 10.104 22.523 22.523 0 12.42-10.104 22.523-22.523 22.523s-22.524-10.104-22.524-22.523 10.105-22.523 22.524-22.523z"/><path d="m185.117 147.09h20.302c3.476 0 6.294-2.818 6.294-6.295 0-3.476-2.818-6.294-6.294-6.294h-20.302c-3.476 0-6.295 2.818-6.295 6.294s2.819 6.295 6.295 6.295z"/><path d="m185.117 180.035h20.302c3.476 0 6.294-2.818 6.294-6.295 0-3.476-2.818-6.295-6.294-6.295h-20.302c-3.476 0-6.295 2.818-6.295 6.295 0 3.476 2.819 6.295 6.295 6.295z"/><path d="m348.272 147.09h20.301c3.476 0 6.295-2.818 6.295-6.295 0-3.476-2.818-6.294-6.295-6.294h-20.301c-3.476 0-6.294 2.818-6.294 6.294s2.818 6.295 6.294 6.295z"/><path d="m348.272 180.035h20.301c3.476 0 6.295-2.818 6.295-6.295 0-3.476-2.818-6.295-6.295-6.295h-20.301c-3.476 0-6.294 2.818-6.294 6.295 0 3.476 2.818 6.295 6.294 6.295z"/><path d="m310.654 388.621c3.476 0 6.294-2.818 6.294-6.294v-11.887c0-3.476-2.818-6.294-6.294-6.294s-6.294 2.818-6.294 6.294v11.887c0 3.476 2.818 6.294 6.294 6.294z"/><path d="m286.735 392.349c-3.476 0-6.294 2.818-6.294 6.294v11.887c0 3.476 2.818 6.294 6.294 6.294s6.295-2.818 6.295-6.294v-11.887c0-3.476-2.818-6.294-6.295-6.294z"/></g><path d="m269.121 376.477h-23.925c-5.794 0-10.491-4.697-10.491-10.491s4.697-10.491 10.491-10.491h23.925c5.794 0 10.491 4.697 10.491 10.491s-4.697 10.491-10.491 10.491z" fill="#fff"/><path d="m181.694 315.467c-5.794 0-10.491-4.697-10.491-10.491v-20.249c0-5.794 4.697-10.491 10.491-10.491s10.491 4.697 10.491 10.491v20.249c0 5.794-4.697 10.491-10.491 10.491z" fill="#fff"/><path d="m181.694 263.714c-5.794 0-10.491-4.697-10.491-10.491v-5.771c0-5.794 4.697-10.491 10.491-10.491s10.491 4.697 10.491 10.491v5.771c0 5.794-4.697 10.491-10.491 10.491z" fill="#fff"/></g></g></svg>