<svg id="Capa_1" enable-background="new 0 0 512 512" height="512" viewBox="0 0 512 512" width="512" xmlns="http://www.w3.org/2000/svg"><g><g><ellipse cx="256.832" cy="388.407" fill="#c2b2eb" rx="211.171" ry="110.326"/><path d="m410.392 148.532h-306.179c-11.604 0-21.011 9.407-21.011 21.011v87.099c0 11.604 9.407 21.011 21.011 21.011h306.179c11.604 0 21.011-9.407 21.011-21.011v-87.099c0-11.604-9.407-21.011-21.011-21.011z" fill="#f4dab5"/><path d="m349.973 220.126h-74.092c-11.008 0-19.931 8.924-19.931 19.931v38.024h113.954v-38.024c0-11.008-8.923-19.931-19.931-19.931z" fill="#fff"/><path d="m236.018 220.126h-74.092c-11.008 0-19.931 8.924-19.931 19.931v38.024h113.955v-38.024c0-11.008-8.924-19.931-19.932-19.931z" fill="#fff"/><path d="m99.152 244.061c-8.809 0-15.95-7.141-15.95-15.95v28.53c0 11.604 9.407 21.011 21.011 21.011h37.782v-33.592h-42.843z" fill="#dba2b3"/><path d="m141.996 244.061h113.954v33.592h-113.954z" fill="#e1bdfc"/><path d="m410.392 148.532h-71.927c8.809 0 15.95 7.141 15.95 15.95v56.158c8.866 2.021 15.489 9.938 15.489 19.417v37.596h40.488c11.604 0 21.011-9.407 21.011-21.011v-87.099c0-11.604-9.407-21.011-21.011-21.011z" fill="#dba2b3"/><path d="m354.415 220.64v7.471c0 8.809-7.141 15.95-15.95 15.95h-82.515v33.592h113.954v-37.596c0-9.479-6.623-17.396-15.489-19.417z" fill="#e1bdfc"/><path d="m394.481 362.759h-275.297v-58.104c0-21.779 17.655-39.434 39.434-39.434h196.428c21.779 0 39.434 17.655 39.434 39.434v58.104z" fill="#c1e5ef"/><path d="m394.481 329.096v-24.442c0-21.779-17.655-39.434-39.434-39.434h-39.232c12.239 0 22.161 9.922 22.161 22.161 0 9.167-7.431 16.598-16.598 16.598h-202.177c-.004.226-.017.449-.017.675v24.442z" fill="#a6aaed"/><path d="m104.692 324.742v64.84c0 7.239 5.868 13.107 13.107 13.107h16.385c7.239 0 13.107-5.868 13.107-13.107v-16.726h219.081v16.726c0 7.239 5.868 13.107 13.107 13.107h16.385c7.239 0 13.107-5.868 13.107-13.107v-64.84z" fill="#f4dab5"/><path d="m104.692 324.742v64.84c0 7.239 5.868 13.107 13.107 13.107h16.385c7.239 0 13.107-5.868 13.107-13.107v-16.726h219.081v16.726c0 7.239 5.868 13.107 13.107 13.107h16.385c7.239 0 13.107-5.868 13.107-13.107v-64.84z" fill="#f4dab5"/><path d="m336.251 324.741v13.889c0 6.656-5.357 12.071-12.013 12.142l-219.546 2.352v36.457c0 7.239 5.868 13.107 13.107 13.107h16.385c7.239 0 13.107-5.868 13.107-13.107v-16.726h219.082v16.726c0 7.239 5.868 13.107 13.107 13.107h16.385c7.239 0 13.107-5.868 13.107-13.107v-64.84z" fill="#dba2b3"/><path d="m487.299 240.569h-64.236c-8.1 0-14.667 6.566-14.667 14.667v79.501c0 8.1 6.567 14.667 14.667 14.667h64.236c8.1 0 14.667-6.566 14.667-14.667v-79.501c-.001-8.1-6.567-14.667-14.667-14.667z" fill="#f4dab5"/><path d="m487.299 240.569h-23.573c5.68 0 10.285 4.605 10.285 10.285v55.749c0 5.68-4.605 10.285-10.285 10.285h-45.045c-5.68 0-10.285-4.605-10.285-10.285v28.134c0 8.1 6.566 14.667 14.667 14.667h64.236c8.1 0 14.667-6.567 14.667-14.667v-79.501c-.001-8.1-6.567-14.667-14.667-14.667z" fill="#dba2b3"/><path d="m82.572 349.084h-31.882c-11.907 0-21.56-9.653-21.56-21.56v-19.552c0-11.907 9.653-21.56 21.56-21.56h53.442v41.112c0 11.907-9.653 21.56-21.56 21.56z" fill="#e8a284"/><g fill="#a1e8c3"><path d="m19.932 150.875c-11.526-20.887-11.128-38.845 3.607-44.536 9.766-3.772 28.192 2.758 45.061 19.627s4.879 38.32-6.29 49.489c-11.169 11.17-34.663-10.599-42.378-24.58z"/><path d="m30.881 254.336c-16.101-5.621-24.455-15.372-19.326-25.431 3.4-6.667 16.325-11.981 33.353-11.048s20.879 18.073 20.261 29.348-23.511 10.894-34.288 7.131z"/><path d="m103.063 176.466c21.149-3.853 36.254 1.508 36.68 15.498.282 9.272-10.756 22.948-30.093 32.42-19.338 9.472-33.944-6.619-40.078-19.142-6.135-12.522 19.335-26.198 33.491-28.776z"/></g><path d="m478.748 5.687 8.243 23.179c.353.992 1.052 1.779 1.933 2.176l20.594 9.278c2.91 1.311 2.91 5.946 0 7.257l-20.594 9.278c-.882.397-1.58 1.184-1.933 2.176l-8.243 23.179c-1.165 3.275-5.283 3.275-6.448 0l-8.243-23.179c-.353-.992-1.052-1.779-1.933-2.176l-20.594-9.278c-2.909-1.311-2.909-5.947 0-7.257l20.594-9.278c.882-.397 1.58-1.184 1.933-2.176l8.243-23.179c1.165-3.274 5.283-3.274 6.448 0z" fill="#c2b2eb"/><path d="m181.303 47.78 6.115 17.194c.262.736.78 1.32 1.434 1.614l15.276 6.882c2.158.972 2.158 4.411 0 5.383l-15.276 6.882c-.654.295-1.172.878-1.434 1.614l-6.115 17.194c-.864 2.429-3.919 2.429-4.783 0l-6.115-17.194c-.262-.736-.78-1.319-1.434-1.614l-15.276-6.882c-2.158-.972-2.158-4.411 0-5.383l15.276-6.882c.654-.295 1.172-.878 1.434-1.614l6.115-17.194c.864-2.43 3.919-2.43 4.783 0z" fill="#c2b2eb"/><ellipse cx="291.514" cy="43.949" fill="#9781dd" rx="18" ry="18" transform="matrix(.099 -.995 .995 .099 219.053 329.714)"/><circle cx="381.222" cy="92.432" fill="#9781dd" r="7.765"/></g><g><g fill="#3c122c"><path d="m487.299 230.534h-45.861v-60.991c0-17.119-13.927-31.046-31.046-31.046h-306.179c-6.009 0-11.621 1.721-16.379 4.689-.862-8.356-4.563-16.739-12.139-24.315-18.741-18.74-41.155-27.537-55.772-21.892-7.837 3.027-13.445 8.653-16.216 16.268-4.16 11.432-1.588 26.121 7.438 42.478 7.236 13.112 26.335 29.283 42.172 31.524 1.408.199 2.741.291 4.001.291 1.46 0 2.82-.126 4.089-.345v25.595c-4.566-2.915-9.972-4.623-15.951-4.951-20.345-1.115-37.16 5.365-42.842 16.509-3.115 6.108-3.453 12.597-.979 18.762 3.556 8.861 12.525 16.019 25.937 20.702 4.391 1.533 10.019 2.363 15.856 2.363 6.168 0 12.563-.932 17.978-2.938v13.14h-10.716c-17.422 0-31.595 14.174-31.595 31.595v19.552c0 14.59 9.942 26.895 23.405 30.512-4.53 9.762-6.874 19.942-6.874 30.371 0 33.389 23.879 64.254 67.239 86.907 41.293 21.573 95.973 33.455 153.967 33.455 57.995 0 112.674-11.881 153.968-33.455 43.36-22.653 67.239-53.517 67.239-86.907 0-9.931-2.131-19.635-6.244-28.969h15.504c13.62 0 24.701-11.082 24.701-24.702v-79.501c0-13.62-11.081-24.701-24.701-24.701zm-453.111 14.328c-8.774-3.063-12.986-6.886-13.926-9.228-.211-.525-.339-1.05.219-2.144 1.028-1.717 8.903-6.432 23.877-5.611 4.398.241 7.378 1.839 9.379 5.03 1.718 2.739 2.672 6.667 2.612 10.661-3.192 2.237-15.249 3.705-22.161 1.292zm457.741 10.374v27.286h-73.498v-27.286c0-2.553 2.078-4.631 4.631-4.631h64.237c2.553 0 4.63 2.077 4.63 4.631zm-125.556 107.584h-219.082c-5.542 0-10.035 4.493-10.035 10.035v16.726c0 1.694-1.378 3.072-3.072 3.072h-16.384c-1.694 0-3.072-1.378-3.072-3.072v-54.805h283.634c.003 1.802.204 3.557.575 5.249v49.556c0 1.694-1.378 3.072-3.072 3.072h-16.385c-1.693 0-3.071-1.378-3.071-3.072v-16.726c0-5.542-4.494-10.035-10.036-10.035zm-262.231-180.431c11.893-2.167 21.471-1.178 26.281 2.712 2.16 1.747 3.209 3.985 3.302 7.045.171 5.621-8.007 17.661-26.724 26.83-19.967 9.781-30.836-10.948-32.01-13.343-.224-.459-.821-1.677.533-4.359 4.095-8.108 19.159-17.161 28.618-18.885zm259.741 73.602c-2.87-.52-5.819-.806-8.837-.806h-93.076v-15.128c0-7.67 6.24-13.91 13.91-13.91h74.092c7.67 0 13.91 6.24 13.91 13.91v15.934zm-113.954-.806h-91.311c-3.639 0-7.184.407-10.601 1.156v-16.284c0-7.67 6.24-13.91 13.91-13.91h74.091c7.67 0 13.91 6.24 13.91 13.91v15.128zm-91.311 20.07h196.428c16.21 0 29.398 13.189 29.398 29.399v10.052h-255.224v-10.052c0-16.21 13.188-29.399 29.398-29.399zm-54.405-116.688h306.179c6.052 0 10.975 4.924 10.975 10.976v61.056c-12.832.874-23.007 11.586-23.007 24.637v12.382h-10.57c-3.542-3.135-7.532-5.769-11.865-7.795v-19.765c0-14.31-11.642-25.952-25.953-25.952h-74.092c-8.001 0-15.167 3.642-19.931 9.353-4.764-5.711-11.93-9.353-19.931-9.353h-74.091c-14.31 0-25.953 11.642-25.953 25.952v20.637c-3.655 1.89-7.045 4.219-10.1 6.923h-21.661c-6.052 0-10.976-4.924-10.976-10.976v-23.233c1.147.131 2.312.206 3.498.206 4.917 0 10.144-1.169 15.563-3.824 20.403-9.994 33.851-25.27 33.463-38.01-.199-6.547-2.884-12.094-7.765-16.042-7.65-6.188-20.439-8.034-36.012-5.197-2.565.467-5.567 1.386-8.747 2.668v-3.668c.001-6.052 4.924-10.975 10.976-10.975zm-48.084 8.808c-8.732-1.236-22.845-13.074-27.411-21.349-5.879-10.654-8.178-20.343-6.15-25.918.772-2.122 2.186-3.481 4.586-4.409 4.271-1.649 18.734 1.747 34.349 17.362 14.793 14.793.047 31.038-3.06 34.145-.32.321-1.445.291-2.314.169zm-16.964 140.597c0-6.355 5.17-11.525 11.525-11.525h43.406v31.077c0 6.354-5.17 11.525-11.524 11.525h-31.882c-6.355 0-11.525-5.17-11.525-11.525zm418.803 80.435c0 25.549-20.052 50.095-56.462 69.118-38.477 20.103-89.856 31.173-144.674 31.173s-106.197-11.071-144.674-31.173c-36.41-19.022-56.462-43.569-56.462-69.118 0-10.008 3.094-19.86 9.03-29.288h17.846c4.279 0 8.36-.859 12.085-2.407v32.87c0 12.761 10.382 23.143 23.143 23.143h16.385c12.761 0 23.142-10.382 23.142-23.143v-6.691h199.011v6.691c0 12.761 10.381 23.143 23.142 23.143h16.385c12.761 0 23.143-10.382 23.143-23.143v-30.482c1.32.219 2.673.338 4.054.338h26.076c5.804 9.332 8.83 19.074 8.83 28.969zm29.331-49.039h-64.237c-1.757 0-3.27-.995-4.054-2.441v-12.186c0-1.168-.21-2.284-.576-3.326v-26.852h73.498v40.173c-.001 2.554-2.078 4.632-4.631 4.632z"/><path d="m449.191 271.241h13.131c3.325 0 6.021-2.696 6.021-6.021s-2.696-6.021-6.021-6.021h-13.131c-3.325 0-6.021 2.696-6.021 6.021s2.696 6.021 6.021 6.021z"/><path d="m385.857 208.855c3.325 0 6.021-2.696 6.021-6.021v-11.37c0-3.325-2.696-6.021-6.021-6.021s-6.021 2.696-6.021 6.021v11.37c0 3.325 2.696 6.021 6.021 6.021z"/><path d="m337.972 195.987c3.325 0 6.021-2.696 6.021-6.021v-11.371c0-3.325-2.696-6.021-6.021-6.021s-6.021 2.696-6.021 6.021v11.371c0 3.325 2.696 6.021 6.021 6.021z"/></g><path d="m215.952 192.85c-5.52 0-10.006-4.46-10.034-9.985-.027-5.542 4.443-10.058 9.985-10.086 13.803-.069 18.73-.069 32.95 0 5.542.027 10.013 4.542 9.986 10.084-.026 5.525-4.515 9.986-10.034 9.986-.017 0-.033 0-.05 0-14.135-.069-19.033-.069-32.751 0-.018.001-.035.001-.052.001z" fill="#fff"/><path d="m184.914 192.85h-3.047c-5.542 0-10.035-4.493-10.035-10.035s4.493-10.035 10.035-10.035h3.047c5.542 0 10.035 4.493 10.035 10.035s-4.492 10.035-10.035 10.035z" fill="#fff"/></g></g></svg>