<svg id="Capa_1" enable-background="new 0 0 512 512" height="512" viewBox="0 0 512 512" width="512" xmlns="http://www.w3.org/2000/svg"><g><g><ellipse cx="79.172" cy="128.846" fill="#f6e06e" rx="18.567" ry="18.567" transform="matrix(.707 -.707 .707 .707 -67.919 93.721)"/><ellipse cx="432.844" cy="128.846" fill="#f6e06e" rx="18.567" ry="18.567" transform="matrix(.099 -.995 .995 .099 261.974 546.888)"/><path d="m336.062 485.166c-10.912 0-10.912-4.772-21.824-4.772s-10.912 4.772-21.824 4.772c-10.91 0-10.91-4.772-21.821-4.772-10.91 0-10.91 4.772-21.82 4.772s-10.91-4.772-21.82-4.772-10.91 4.772-21.82 4.772c-10.909 0-10.909-4.772-21.817-4.772h-42.214v-327.22h234.925v331.992z" fill="#faf1a9"/><path d="m141.104 153.174v327.22h42.214c10.909 0 10.909 4.772 21.817 4.772 10.91 0 10.91-4.772 21.82-4.772v-120.885c0-32.395 26.261-58.656 58.656-58.656h90.418v-147.679z" fill="#dfb5a7"/><path d="m97.732 120.904v359.217c0 10.789 8.746 19.535 19.535 19.535h46.211c11.148 0 19.996-9.313 19.515-20.451-2.291-53.045-11.059-99.048-23.331-141.244 69.244-41.074 96.398-102.091 96.333-176.007 1.603 73.916 23.357 133.775 95.737 174.849-15.768 39.768-16.754 88.77-15.715 143.672.202 10.647 8.885 19.18 19.534 19.18h39.185c10.789 0 19.535-8.746 19.535-19.535v-359.216z" fill="#d789b9"/><path d="m245.813 233.312c12.754-23.983 10.397-83.433 10.183-71.357 0 0-44.984 117.906-103.138 152.402 10.307 35.438 14.558 62.918 16.482 107.467.404 9.354-7.027 17.176-16.389 17.176h-38.811c-9.061 0-16.407-7.346-16.407-16.407v57.528c0 10.789 8.746 19.535 19.535 19.535h46.212c11.148 0 19.996-9.313 19.515-20.451-2.29-53.045-11.059-99.048-23.331-141.244 45.443-26.956 72.759-62.503 86.149-104.649z" fill="#c668b9"/><path d="m363.578 120.904v301.689c0 9.061-7.346 16.407-16.407 16.407h-11.327c-.226 13.391-.096 27.233.174 41.476.202 10.647 8.885 19.18 19.534 19.18h39.185c10.789 0 19.535-8.746 19.535-19.535v-359.217z" fill="#c668b9"/><path d="m163.681 351.102h-63.14c-7.896 0-14.297-6.401-14.297-14.297 0-7.896 6.401-14.297 14.297-14.297h63.14c7.896 0 14.297 6.401 14.297 14.297.001 7.895-6.401 14.297-14.297 14.297z" fill="#f6e06e"/><path d="m416.161 351.102h-63.14c-7.896 0-14.297-6.401-14.297-14.297 0-7.896 6.401-14.297 14.297-14.297h63.14c7.896 0 14.297 6.401 14.297 14.297 0 7.895-6.401 14.297-14.297 14.297z" fill="#f6e06e"/><path d="m39.262 4.791 8.215 23.098c.352.989 1.048 1.773 1.926 2.169l20.521 9.246c2.899 1.306 2.899 5.925 0 7.232l-20.521 9.244c-.879.396-1.575 1.179-1.926 2.168l-8.215 23.098c-1.16 3.263-5.264 3.263-6.425 0l-8.214-23.098c-.352-.989-1.048-1.773-1.927-2.168l-20.522-9.246c-2.899-1.306-2.899-5.925 0-7.232l20.521-9.246c.879-.396 1.575-1.18 1.927-2.169l8.214-23.098c1.161-3.261 5.265-3.261 6.426.002z" fill="#e8c2d8"/><path d="m487.642 169.248 6.093 17.133c.261.734.777 1.315 1.429 1.609l15.222 6.858c2.15.969 2.15 4.395 0 5.364l-15.222 6.858c-.652.294-1.168.875-1.429 1.609l-6.093 17.133c-.861 2.421-3.905 2.421-4.766 0l-6.093-17.133c-.261-.734-.777-1.315-1.429-1.609l-15.222-6.858c-2.151-.969-2.151-4.395 0-5.364l15.222-6.858c.652-.294 1.168-.875 1.429-1.609l6.093-17.133c.861-2.421 3.905-2.421 4.766 0z" fill="#e8c2d8"/><g fill="#d789b9"><ellipse cx="397.736" cy="46.473" rx="17.937" ry="17.937" transform="matrix(.23 -.973 .973 .23 261.125 422.891)"/><circle cx="156.249" cy="60.912" r="7.737"/></g></g><g><path d="m432.844 157.413c15.752 0 28.567-12.815 28.567-28.567s-12.815-28.567-28.567-28.567c-8.96 0-16.966 4.15-22.207 10.625h-309.258c-5.242-6.475-13.247-10.625-22.207-10.625-15.752 0-28.567 12.815-28.567 28.567s12.815 28.567 28.567 28.567c2.981 0 5.857-.461 8.561-1.312v160.069c-6.89 4.293-11.488 11.935-11.488 20.635 0 8.699 4.598 16.341 11.488 20.634v122.683c0 16.286 13.249 29.535 29.535 29.535h46.212c8.121 0 15.688-3.23 21.305-9.095 2.423-2.529 4.338-5.401 5.712-8.499 3.088 1.348 7.313 3.103 14.64 3.103 7.546 0 11.806-1.863 14.916-3.224 2.282-.998 3.539-1.548 6.903-1.548s4.621.55 6.903 1.548c3.11 1.36 7.371 3.224 14.917 3.224s11.806-1.863 14.916-3.224c2.282-.998 3.539-1.548 6.903-1.548s4.621.55 6.903 1.548c3.11 1.36 7.371 3.224 14.917 3.224 7.547 0 11.808-1.863 14.919-3.223 2.282-.999 3.54-1.548 6.905-1.548 3.364 0 4.622.55 6.904 1.548 2.145.938 4.836 2.114 8.773 2.755 5.118 8.913 14.739 14.96 25.635 14.96h39.184c16.286 0 29.536-13.249 29.536-29.535v-120.418c9.421-3.347 16.187-12.346 16.187-22.9s-6.766-19.554-16.187-22.901v-157.807c2.708.854 5.587 1.316 8.573 1.316zm0-37.134c4.724 0 8.567 3.843 8.567 8.567s-3.844 8.567-8.567 8.567-8.566-3.843-8.566-8.567c-.001-4.723 3.842-8.567 8.566-8.567zm-28.573 192.228h-11.965c-8.569-22.162-22.025-64.3-22.025-110.421 0-3.314-2.687-6-6-6-3.314 0-6 2.686-6 6 0 45.577 12.205 86.57 21.109 110.421h-10.897c-18.953-25.455-53.646-79.978-53.036-137.333.035-3.314-2.623-6.028-5.937-6.064-.021-.001-.043-.001-.064-.001-3.284 0-5.964 2.645-5.999 5.936-.464 43.618 18.108 84.956 33.77 111.954 5.673 9.779 11.328 18.369 16.37 25.507h-.577c-5.217 0-10.05 1.658-14.013 4.467-49.318-34.345-71.424-81.938-73.013-155.235-.118-5.443-4.565-9.783-9.996-9.783-.038 0-.076 0-.114.001-5.482.062-9.893 4.526-9.888 10.008.059 67.006-23.143 117.448-70.724 153.49-3.447-1.879-7.396-2.948-11.591-2.948h-1.358c3.656-4.444 7.508-9.473 11.363-15.054 15.523-22.476 33.931-58.469 33.464-102.299-.035-3.314-2.766-6.006-6.063-5.936-3.314.035-5.972 2.75-5.937 6.064.432 40.537-16.689 74.062-31.128 95.047-6.126 8.904-12.296 16.358-17.576 22.178h-10.803c8.427-18.447 17.8-47.916 17.8-87.804 0-3.314-2.687-6-6-6-3.314 0-6 2.686-6 6 0 41.523-10.935 71.249-19.207 87.804h-14.504v-181.602h296.539zm11.89 28.595h-63.141c-2.369 0-4.297-1.928-4.297-4.297 0-2.37 1.928-4.298 4.297-4.298h63.141c2.369 0 4.297 1.928 4.297 4.298 0 2.369-1.928 4.297-4.297 4.297zm-315.62 0c-2.369 0-4.297-1.928-4.297-4.297 0-2.37 1.928-4.298 4.297-4.298h63.141c2.369 0 4.297 1.928 4.297 4.298s-1.928 4.297-4.297 4.297zm-21.369-203.689c-4.724 0-8.567-3.843-8.567-8.567s3.844-8.567 8.567-8.567c4.724 0 8.566 3.843 8.566 8.567s-3.843 8.567-8.566 8.567zm91.169 349.314c-1.809 1.889-4.246 2.929-6.861 2.929h-46.212c-5.258 0-9.535-4.277-9.535-9.535v-119.02h18.553c2.295 16.133 6.762 51.973 7.55 91.279.065 3.272 2.738 5.88 5.997 5.88.04 0 .081-.001.122-.001 3.313-.066 5.945-2.806 5.879-6.119-.773-38.564-5.031-73.853-7.43-91.039h17.178c9.944 39.141 15.677 78.118 17.423 118.535.113 2.661-.832 5.179-2.664 7.091zm143.898-16.333c-7.547 0-11.808 1.863-14.919 3.223-2.101.919-3.355 1.452-6.164 1.532-.234-11.641-.195-23.944.118-35.888.146-5.521-4.213-10.114-9.734-10.258-5.526-.148-10.114 4.213-10.258 9.735-.276 10.521-.344 21.319-.206 31.729-.787-.046-1.61-.073-2.482-.073-7.547 0-11.807 1.863-14.917 3.224-2.282.998-3.539 1.548-6.902 1.548-3.364 0-4.621-.55-6.903-1.548-1.36-.595-2.939-1.285-4.917-1.874v-124.095c0-5.523-4.477-10-10-10-5.522 0-10 4.477-10 10v124.095c-1.977.589-3.557 1.28-4.917 1.874-2.282.998-3.539 1.548-6.902 1.548s-4.62-.55-6.901-1.548c-1.514-.662-3.304-1.442-5.608-2.069-2.114-38.59-7.785-75.982-17.19-113.489 7.472-4.149 12.542-12.12 12.542-21.255 0-1.871-.22-3.69-.622-5.44 23.855-18.106 42.427-39.699 55.332-64.469 5.352-10.272 9.792-21.21 13.309-32.768 4.31 14.927 10.049 28.602 17.269 41.17-.345 24.006-.343 48.388.014 72.5.081 5.472 4.542 9.852 9.996 9.852.05 0 .101-.001.151-.001 5.523-.082 9.933-4.625 9.851-10.147-.22-14.822-.289-29.742-.241-44.618 10.175 11.552 22.083 21.973 35.816 31.411-.085.825-.129 1.663-.129 2.51 0 6.596 2.646 12.584 6.928 16.966-9.618 35.819-10.417 76.448-9.776 118.51-2.783-.998-6.426-1.887-11.638-1.887zm80.496 19.262h-39.184c-5.16 0-9.438-4.203-9.536-9.37-.807-42.652-.645-83.916 8.39-119.185h21.604c-2.398 17.181-6.657 52.463-7.431 91.039-.066 3.314 2.565 6.053 5.879 6.12.041 0 .082.001.122.001 3.258 0 5.932-2.607 5.997-5.879.789-39.307 5.255-75.146 7.55-91.28h16.145v119.02c0 5.257-4.278 9.534-9.536 9.534z" fill="#3c122c"/><g fill="#fff"><path d="m198.083 163.174h-29.777c-5.522 0-10-4.477-10-10s4.478-10 10-10h29.777c5.522 0 10 4.477 10 10 0 5.522-4.478 10-10 10z"/><path d="m142.381 163.174h-6.686c-5.523 0-10-4.477-10-10s4.478-10 10-10h6.686c5.522 0 10 4.477 10 10 0 5.522-4.478 10-10 10z"/></g></g></g></svg>