<svg id="Capa_1" enable-background="new 0 0 512 512" height="512" viewBox="0 0 512 512" width="512" xmlns="http://www.w3.org/2000/svg"><g><g><path d="m325.149 332.069c-5.671-8.161-5.039-18.41 1.411-22.893 6.451-4.483 16.277-1.501 21.948 6.66 1.94 2.792 3.142 5.829 3.626 8.796 5.059-2.662 10.115-5.71 15.087-9.165 7.438-5.169 14.101-10.822 19.903-16.713-2.168-1.441-4.171-3.374-5.821-5.748-5.671-8.161-5.039-18.41 1.411-22.893 6.334-4.402 15.922-1.602 21.635 6.228 9.295-16.43 11.835-38.483 7.142-45.741s-29.27-5.642-38.832-4.423c-9.563 1.219-21.927 2.708-36.387 7.848-11.098 3.945-24.733 11.99-32.133 17.926-7.4 5.937-19.735 21.026-19.735 21.026-13.657 19.181-17.824 38.899-8.852 51.809 8.967 12.904 28.885 15.877 51.61 9.778-.713-.767-1.389-1.598-2.013-2.495z" fill="#a1e8c3"/><path d="m411.492 230.6c-1.292-1.998-4.096-3.321-7.673-4.167-.86 5.067-3.294 11.736-6.973 18.512-2.644 4.87-8.124 7.699-13.543 6.539-3.727-.798-8.037.026-11.732 2.594-6.45 4.483-8.513 15.132-9.593 21.743-.52 3.186-.663 8.36-8.101 13.529-4.972 3.455-11.805 2.873-15.638 1.501-6.308-2.258-15.086-3.013-21.536 1.47-2.304 1.601-4.746 5.323-5.249 8.425-1.44 8.873-8.537 15.75-17.363 17.455-9.342 1.804-17.07 1.481-22.187-1.227.784 2.806 1.991 5.428 3.65 7.815 8.967 12.904 28.885 15.878 51.61 9.779-.714-.769-1.39-1.6-2.013-2.496-5.671-8.161-5.039-18.411 1.411-22.893 6.451-4.483 16.277-1.501 21.948 6.66 1.94 2.792 3.142 5.829 3.626 8.796 5.059-2.662 10.115-5.71 15.087-9.165 7.438-5.168 14.101-10.822 19.903-16.714-2.168-1.441-4.171-3.373-5.821-5.748-5.671-8.161-5.039-18.411 1.411-22.893 6.334-4.402 15.922-1.602 21.635 6.229 9.294-16.433 11.834-38.486 7.141-45.744z" fill="#85adc2"/><path d="m261.927 501.944h-20.432c-33.355 0-60.395-27.04-60.395-60.395v-68.563c0-13.162 10.67-23.832 23.832-23.832h93.558c13.162 0 23.832 10.67 23.832 23.832v68.563c0 33.356-27.04 60.395-60.395 60.395z" fill="#c49a8b"/><path d="m320.449 445.778h-138.019l-1.329-31.552h141.221z" fill="#a07575"/><path d="m285.651 367.492v41.755h36.671v-36.26c0-13.162-10.67-23.832-23.832-23.832h-31.175c10.126 0 18.336 8.21 18.336 18.337z" fill="#b2748a"/><path d="m322.321 440.213v-20.911h-36.671v5.559c0 5.382-.926 10.545-2.608 15.352z" fill="#925873"/><path d="m278.082 450.269c-8.298 12.678-22.616 21.061-38.899 21.061h-11.614c-25.663 0-46.468-20.805-46.468-46.468v16.689c0 33.354 27.039 60.394 60.394 60.394h20.432c30.393 0 55.533-22.454 59.759-51.676z" fill="#b2748a"/><path d="m203.689 222.268c-11.517 7.79-24.062 9.36-28.021 3.508s2.169-16.912 13.686-24.702c3.941-2.665 8.001-4.602 11.798-5.763-2.046-4.777-4.572-9.465-7.624-13.976-4.564-6.748-9.922-12.57-15.786-17.428-2.323 2.611-5.213 5.155-8.564 7.422-11.517 7.79-24.062 9.36-28.021 3.508-3.887-5.747 1.955-16.513 13.073-24.276-18.06-6.254-37.468-4.822-53.072 5.732-15.603 10.554-24.156 28.032-25.074 47.121 11.405-7.556 23.705-9.028 27.618-3.243 3.958 5.852-2.169 16.912-13.686 24.702-3.433 2.322-6.956 4.087-10.317 5.271 2.326 7.273 5.743 14.434 10.321 21.203 3.07 4.539 6.505 8.651 10.203 12.345 2.512-3.174 5.887-6.313 9.931-9.048 11.517-7.79 24.062-9.36 28.021-3.508 3.958 5.852-2.169 16.912-13.686 24.702-1.362.921-2.738 1.752-4.112 2.497 20.39 10.273 43.794 10.377 62.013-1.946 18.21-12.317 26.825-34.063 24.891-56.799-1.129.924-2.326 1.821-3.592 2.678z" fill="#a1e8c3"/><path d="m207.281 219.59c-1.13.924-2.326 1.822-3.592 2.678-11.517 7.79-24.062 9.36-28.021 3.508-3.958-5.853 2.169-16.912 13.686-24.701 3.941-2.666 8.001-4.602 11.798-5.763-2.046-4.777-4.572-9.465-7.624-13.976-4.564-6.748-9.922-12.57-15.786-17.428-2.323 2.612-5.213 5.155-8.564 7.422-3.756 2.541-7.617 4.407-11.259 5.583 1.79 2.041 3.485 4.214 5.056 6.536.024.036.048.071.072.107 3.427 5.088.53 11.178-3.239 15.365-.033.036-1.031.91-1.065.946-8.125 8.842-6.984 16.902-6.193 22.413 1.653 11.523 24.595 20.604 9.3 33.235-11.039 9.116-19.767 9.024-26.391 9.893-2.583 3.638-6.34 7.299-10.97 10.431-1.362.921-2.738 1.752-4.112 2.497 20.39 10.273 43.794 10.378 62.013-1.946 18.211-12.318 26.825-34.064 24.891-56.8z" fill="#85adc2"/><path d="m338.917 201.659c-15.765-6.152-26.01-17.633-22.884-25.644s18.44-9.518 34.205-3.367c5.394 2.105 10.141 4.834 13.928 7.835 3.371-5.352 6.321-11.123 8.73-17.298 3.604-9.237 5.733-18.628 6.546-27.861-4.221-.521-8.768-1.658-13.355-3.448-15.765-6.152-26.01-17.633-22.884-25.644 3.07-7.867 17.893-9.456 33.355-3.686-6.219-22.415-21.07-40.866-42.43-49.201-21.358-8.334-44.779-4.82-64.536 7.456 15.454 6.201 25.43 17.506 22.341 25.423-3.126 8.011-18.44 9.518-34.205 3.367-4.699-1.834-8.902-4.143-12.413-6.691-5.678 7.358-10.489 15.731-14.105 24.995-2.424 6.213-4.169 12.496-5.314 18.754 4.916.322 10.393 1.533 15.929 3.693 15.764 6.152 26.01 17.633 22.884 25.644s-18.44 9.518-34.205 3.367c-1.864-.727-3.647-1.531-5.344-2.393 3.805 27.526 19.878 51.043 44.818 60.775 24.927 9.727 52.665 3.324 74.103-14.33-1.705-.491-3.431-1.07-5.164-1.746z" fill="#a1e8c3"/><path d="m366.087 131.876c-15.765-6.151-26.01-17.633-22.884-25.644 3.07-7.867 17.893-9.456 33.355-3.686-6.22-22.415-21.07-40.866-42.43-49.201-21.358-8.334-44.779-4.819-64.536 7.456 2.609 1.047 5.057 2.242 7.318 3.539 11.135-3.157 22.876-2.944 33.907 1.36 4.922 1.921 9.397 4.536 13.382 7.719 10.001 7.99 8.134 23.254-3.011 29.549-1.596.901-3.665 3.747-3.836 5.371-1.24 11.737 8.728 13.972 15.458 21.071 3.262 3.44 3.917 8.217 1.535 15.558-1.582 4.877-7.443 8.291-13.216 9.629-12.752 2.954-21.489 4.12-24.789 9.895-2.979 5.214-2.962 12.821-.273 19.373 2.028 4.943-.878 10.588-6.13 11.568-9.555 1.782-19.401 1.068-28.737-2.576-15.161-5.917-26.083-18.421-31.494-33.839-1.57-.639-3.094-1.321-4.542-2.057 3.805 27.526 19.878 51.043 44.818 60.775 24.927 9.727 52.665 3.324 74.103-14.33-1.706-.493-3.433-1.071-5.165-1.747-11.313-4.414-19.782-11.573-22.509-18.225-1.194.909-2.412 1.767-3.648 2.587 1.476-2.873 2.726-5.249 2.873-5.196-.301-1.686-.185-3.309.4-4.81 3.126-8.011 18.44-9.519 34.205-3.367 5.394 2.105 10.141 4.834 13.928 7.835 3.371-5.352 6.321-11.123 8.73-17.298 3.605-9.237 5.733-18.628 6.546-27.861-4.225-.521-8.771-1.658-13.358-3.448z" fill="#85adc2"/><path d="m323.379 371.997h-143.336c-4.356 0-7.887-3.531-7.887-7.887v-15.778c0-4.356 3.531-7.887 7.887-7.887h143.337c4.356 0 7.887 3.531 7.887 7.887v15.778c-.001 4.356-3.532 7.887-7.888 7.887z" fill="#a07575"/><path d="m146.494 2.461 8.26 23.226c.354.994 1.054 1.782 1.937 2.181l20.635 9.297c2.915 1.313 2.915 5.958 0 7.272l-20.635 9.297c-.883.398-1.584 1.186-1.937 2.18l-8.26 23.226c-1.167 3.281-5.294 3.281-6.461 0l-8.26-23.226c-.354-.994-1.054-1.783-1.937-2.18l-20.635-9.297c-2.915-1.313-2.915-5.958 0-7.272l20.635-9.297c.883-.398 1.584-1.186 1.937-2.181l8.26-23.226c1.168-3.281 5.294-3.281 6.461 0z" fill="#ccf3e2"/><path d="m470.396 132.368 6.127 17.229c.262.738.782 1.322 1.437 1.617l15.307 6.896c2.163.974 2.163 4.42 0 5.394l-15.307 6.896c-.655.295-1.175.88-1.437 1.617l-6.127 17.229c-.866 2.434-3.927 2.434-4.793 0l-6.127-17.229c-.262-.738-.782-1.322-1.437-1.617l-15.307-6.896c-2.162-.974-2.162-4.42 0-5.394l15.307-6.896c.655-.295 1.175-.88 1.437-1.617l6.127-17.229c.866-2.434 3.927-2.434 4.793 0z" fill="#ccf3e2"/><g fill="#a1e8c3"><ellipse cx="35.147" cy="118.54" rx="18.036" ry="18.036" transform="matrix(.926 -.379 .379 .926 -42.253 22.123)"/><path d="m448.891 87.792c0 4.297-3.483 7.78-7.78 7.78s-7.78-3.483-7.78-7.78 3.483-7.78 7.78-7.78c4.296-.001 7.78 3.482 7.78 7.78z"/></g></g><g><path d="m419.936 225.14c-4.016-6.212-12.148-9.381-25.59-9.977-10.199-.451-20.151.681-22.959 1.039l-.728.092c-9.554 1.217-22.638 2.882-37.755 8.256-12.589 4.475-27.165 13.226-35.057 19.558-5.704 4.576-13.396 13.248-17.819 18.435.725-11.576 1.621-21.996 2.551-31.097 3.883.595 7.801.907 11.731.907 19.496 0 39.253-7.257 56.165-21.184 2.88-2.372 4.21-6.144 3.455-9.798s-3.472-6.59-7.056-7.625c-1.468-.424-2.915-.914-4.301-1.454-10.433-4.071-15.683-9.857-16.816-12.482 2.611-1.164 10.393-1.864 20.825 2.207 4.287 1.673 8.208 3.868 11.339 6.349 2.237 1.773 5.125 2.511 7.939 2.03 2.815-.481 5.292-2.137 6.814-4.553 3.794-6.024 7.021-12.417 9.59-19.001 3.854-9.877 6.275-20.185 7.195-30.634.475-5.396-3.409-10.197-8.784-10.862-3.507-.433-7.287-1.413-10.932-2.836-10.427-4.068-15.677-9.851-16.814-12.478 2.542-1.118 10.037-1.825 20.113 1.937 3.542 1.323 7.526.545 10.312-2.01s3.904-6.456 2.893-10.1c-7.31-26.346-24.974-46.713-48.464-55.88-23.486-9.166-50.276-6.147-73.498 8.283-3.219 2-5.04 5.641-4.71 9.416.33 3.776 2.755 7.045 6.272 8.457 10.125 4.063 15.236 9.725 16.359 12.298-2.614 1.163-10.394 1.862-20.823-2.208-3.732-1.456-7.246-3.345-10.16-5.461-4.403-3.196-10.547-2.311-13.869 1.995-6.427 8.33-11.645 17.576-15.511 27.482-2.585 6.625-4.549 13.556-5.837 20.601-.516 2.822.198 5.73 1.962 7.992s4.411 3.663 7.273 3.85c4.065.266 8.536 1.313 12.929 3.027 10.432 4.071 15.683 9.857 16.816 12.482-2.612 1.163-10.393 1.865-20.824-2.206-1.509-.589-3.005-1.259-4.446-1.991-3.337-1.695-7.34-1.396-10.389.776s-4.638 5.858-4.126 9.566c4.275 30.935 21.983 55.808 47.661 67.304-2.746 25.29-5.309 61.438-4.561 104.748h-36.416c-7.552-23.624-16.183-41.119-24.082-53.804 14.246-14.418 21.423-35.212 19.497-57.848-.316-3.718-2.665-6.955-6.102-8.409-3.436-1.453-7.396-.883-10.284 1.479-.926.758-1.888 1.475-2.858 2.131-5.304 3.587-9.868 4.906-12.627 5.236 1.333-2.438 4.255-6.184 9.559-9.771 2.987-2.02 6.135-3.568 9.105-4.476 2.731-.835 4.978-2.792 6.181-5.382 1.202-2.59 1.247-5.569.122-8.194-2.347-5.48-5.22-10.745-8.537-15.651-4.977-7.357-10.933-13.931-17.701-19.538-4.172-3.456-10.33-2.985-13.929 1.062-1.831 2.059-4.143 4.056-6.684 5.775-5.298 3.584-9.858 4.903-12.618 5.234 1.294-2.358 4.073-5.945 9.061-9.429 3.1-2.164 4.723-5.884 4.203-9.628s-3.097-6.881-6.669-8.118c-21.767-7.538-44.364-5.02-61.996 6.905-17.632 11.926-28.378 31.961-29.485 54.967-.182 3.786 1.78 7.352 5.075 9.225s7.363 1.734 10.523-.359c5.165-3.422 9.6-4.693 12.301-5.019-1.335 2.438-4.257 6.181-9.557 9.765-2.6 1.759-5.375 3.183-8.027 4.118-5.129 1.809-7.89 7.367-6.233 12.546 2.685 8.395 6.577 16.393 11.569 23.773 3.338 4.934 7.182 9.586 11.425 13.825 2.03 2.028 4.828 3.099 7.693 2.925 2.865-.167 5.521-1.55 7.301-3.8 1.964-2.483 4.619-4.888 7.678-6.957 5.304-3.588 9.868-4.906 12.627-5.236-1.333 2.438-4.256 6.184-9.56 9.771-1.053.712-2.152 1.38-3.269 1.985-3.291 1.784-5.319 5.248-5.263 8.992.056 3.743 2.187 7.145 5.53 8.829 11.432 5.759 23.395 8.623 35.006 8.622 10.788 0 21.273-2.474 30.738-7.393 1.102 1.807 2.223 3.724 3.357 5.766 4.896 8.815 10.441 20.677 15.731 36.08h-20.642c-9.893 0-17.942 8.049-17.942 17.942v15.779c0 6.613 3.606 12.387 8.945 15.499v61.941c0 38.846 31.604 70.45 70.45 70.45h20.432c38.846 0 70.45-31.604 70.45-70.45v-61.941c5.339-3.112 8.944-8.885 8.944-15.498v-15.779c0-4.458-1.644-8.532-4.345-11.673.68-3.188-.207-6.525-2.445-8.935-.414-.446-.794-.915-1.126-1.394-1.435-2.066-2.186-4.423-2.06-6.468.071-1.155.427-2.063.953-2.429.525-.364 1.499-.382 2.608-.046 1.961.595 3.908 2.121 5.344 4.187 1.023 1.472 1.7 3.089 1.959 4.676.52 3.192 2.544 5.939 5.438 7.382 2.893 1.442 6.305 1.405 9.168-.1 5.549-2.92 10.981-6.219 16.143-9.807 7.748-5.384 14.925-11.412 21.33-17.916 2.106-2.138 3.147-5.106 2.837-8.091-.309-2.986-1.936-5.677-4.436-7.338-1.176-.782-2.258-1.858-3.129-3.112-1.436-2.066-2.187-4.424-2.061-6.468.071-1.155.427-2.063.954-2.428 1.301-.903 5.066.188 7.773 3.898 2.014 2.76 5.294 4.311 8.703 4.112 3.411-.197 6.489-2.113 8.172-5.088 9.721-17.187 14.788-43.852 6.833-56.154zm-279.134 49.692c2.04-2.326 3.772-4.749 5.129-7.198 4.448-8.028 4.656-16.095.573-22.131-4.084-6.037-11.65-8.845-20.754-7.706-6.834.856-14.373 3.881-21.228 8.518-1.294.875-2.549 1.799-3.755 2.761-.839-1.1-1.645-2.222-2.417-3.362-2.264-3.348-4.239-6.853-5.909-10.485 1.081-.635 2.151-1.312 3.209-2.027 6.857-4.638 12.471-10.51 15.808-16.534 4.447-8.027 4.656-16.094.572-22.131-4.504-6.659-12.862-9.137-22.536-7.457 3.45-9.298 9.386-17.107 17.297-22.458 7.95-5.377 17.462-7.982 27.427-7.691-5.073 8.312-5.856 16.938-1.39 23.54 7.418 10.966 25.074 10.624 41.983-.813.983-.665 1.939-1.353 2.866-2.063 2.745 2.898 5.26 6.031 7.521 9.374.767 1.135 1.504 2.294 2.209 3.475-1.249.717-2.482 1.486-3.688 2.302-16.908 11.438-23.797 27.698-16.381 38.665 4.084 6.037 11.652 8.842 20.754 7.706 2.701-.338 5.512-1.015 8.348-1.997-2.498 12.952-9.358 23.956-19.685 30.941-10.303 6.969-23.034 9.244-35.953 6.771zm165.24 190.934-13.955-13.955h19.124c-1.03 4.957-2.794 9.647-5.169 13.955zm-114.886-26.021v-19.486h121.11v19.486zm14.108-57.692 26.139 26.139h-40.248v-26.139zm61.544 0 26.139 26.139h-44.478l-26.139-26.139zm43.204 26.14-26.139-26.139h28.393v26.139zm-70.669-235.857c16.658 3.093 30.387-1.553 34.735-12.693 5.398-13.832-6.628-30.094-28.597-38.667-2.415-.942-4.867-1.745-7.318-2.399.712-2.38 1.518-4.726 2.416-7.026 2.076-5.322 4.627-10.408 7.617-15.199 1.891.946 3.852 1.816 5.878 2.607 21.968 8.572 41.83 4.754 47.228-9.079 3.592-9.205-.613-19.566-10.359-27.983 13.315-4.231 27.108-4.034 39.531.815 12.467 4.865 22.777 14.108 29.707 26.302-12.749-.34-22.785 4.44-26.344 13.562-2.915 7.471-.647 16.171 6.223 23.869 5.356 6.002 13.302 11.257 22.372 14.797 1.922.751 3.852 1.409 5.782 1.974-1.045 5.54-2.612 11.001-4.685 16.313-.892 2.287-1.882 4.546-2.963 6.767-2.144-1.11-4.379-2.121-6.672-3.016-21.968-8.572-41.83-4.754-47.228 9.079-2.916 7.471-.647 16.171 6.223 23.87 2.846 3.189 6.423 6.167 10.511 8.789-16.189 8.174-33.945 9.523-49.765 3.349-15.779-6.156-27.904-19.118-34.292-36.031zm-57.132 178.165h138.999v11.441h-138.999zm9.999 101.31h22.461l40.078 40.078h-13.254c-24.241 0-44.533-17.225-49.285-40.078zm78.772 39.246-39.246-39.246h43.287l23.866 23.866c-7.254 7.85-16.969 13.384-27.907 15.38zm129.453-230.648c-7.8-3.594-16.572-3.34-23.458 1.446-5.616 3.902-9.097 10.355-9.55 17.706-.397 6.445 1.514 13.121 5.387 18.843-3.575 3.105-7.364 6.049-11.33 8.805-1.509 1.048-3.044 2.069-4.6 3.057-.039-.056-.078-.113-.117-.169-4.029-5.797-9.718-10.043-16.02-11.955-7.046-2.139-14.309-1.127-19.924 2.776-5.616 3.902-9.097 10.355-9.55 17.706-.176 2.857.101 5.758.802 8.602-13.247 1.394-23.601-1.466-28.264-8.177-6.018-8.66-2.723-23.954 8.593-39.967 3.434-4.18 12.748-15.049 18.029-19.287 6.504-5.218 19.208-12.74 29.208-16.295 13.073-4.647 24.432-6.093 33.559-7.255l.732-.093c12.813-1.634 25.437-1.057 29.342.552 1.047 3.56.635 13.272-2.839 23.705z" fill="#3c122c"/><g fill="#fff"><path d="m286.455 131.058c-5.554 0-10.056-4.502-10.056-10.055 0-5.554 4.502-10.055 10.056-10.055 1.749 0 6.165-1.427 7.569-2.439 4.142-3.622 10.437-3.243 14.113.867 3.703 4.14 3.348 10.497-.792 14.199-5.005 4.475-14.843 7.483-20.89 7.483zm7.516-22.504c-.011.01-.022.02-.032.029.01-.01.021-.019.032-.029z"/><path d="m129.119 228.546c-1.875 0-3.771-.523-5.462-1.62-4.659-3.022-5.987-9.248-2.966-13.908.951-1.467 2.157-5.948 2.071-7.677-.786-5.445 2.956-10.521 8.406-11.37 5.488-.853 10.629 2.901 11.483 8.389 1.034 6.636-1.795 16.526-5.086 21.601-1.925 2.969-5.152 4.585-8.446 4.585zm-6.345-23.132c.002.014.005.027.006.04-.002-.013-.004-.026-.006-.04z"/><path d="m329.709 277.342c-3.543 0-6.979-1.877-8.812-5.199-2.684-4.862-.918-10.979 3.945-13.662l.379-.213c.724-.412 1.192-.632 2.001-.94l.391-.151c5.173-2.016 11.004.54 13.022 5.714s-.54 11.004-5.714 13.022l-.361.174c-1.541.851-3.208 1.255-4.851 1.255zm5.513-1.627-.008.005c.003-.001.005-.003.008-.005z"/><path d="m306.687 295.905c-2.491 0-4.986-.92-6.932-2.773-4.022-3.829-4.179-10.194-.349-14.216 2.231-2.344 2.61-2.715 5.06-4.963 4.092-3.753 10.452-3.481 14.208.611 3.754 4.092 3.481 10.453-.611 14.208-2.107 1.933-2.147 1.97-4.09 4.011-1.978 2.076-4.63 3.122-7.286 3.122z"/></g></g></g></svg>