<svg id="Capa_1" enable-background="new 0 0 512 512" height="512" viewBox="0 0 512 512" width="512" xmlns="http://www.w3.org/2000/svg"><g><g><path d="m356.533 60.305h-199.872c-18.821 0-34.079 15.258-34.079 34.079v384.414c0 12.558 10.181 22.739 22.739 22.739h222.553c12.558 0 22.739-10.18 22.739-22.739v-384.415c-.001-18.821-15.258-34.078-34.08-34.078z" fill="#f4dab5"/><path d="m356.533 60.304h-199.872c-18.821 0-34.079 15.258-34.079 34.079v384.414c0 12.558 10.181 22.739 22.739 22.739h222.553c12.558 0 22.739-10.181 22.739-22.739v-384.414c-.001-18.821-15.258-34.079-34.08-34.079zm-.983 437.554h-197.905v-390.955c0-6.776 5.493-12.269 12.268-12.269h173.368c6.776 0 12.268 5.493 12.268 12.269v390.955z" fill="#c49a8b"/><path d="m202.056 128.634h109.083c3.521 0 6.375 2.854 6.375 6.375v154.861c0 3.521-2.854 6.375-6.375 6.375h-109.083c-3.521 0-6.375-2.854-6.375-6.375v-154.86c0-3.521 2.854-6.376 6.375-6.376z" fill="#c1e5ef"/><path d="m311.139 128.634h-109.083c-3.521 0-6.375 2.854-6.375 6.375v154.861c0 3.521 2.854 6.376 6.375 6.376h21.219c-2.964 0-5.368-2.404-5.368-5.368v-134.59c0-2.965 2.403-5.368 5.368-5.368h88.872c2.965 0 5.368 2.403 5.368 5.368v-21.278c-.001-3.521-2.855-6.376-6.376-6.376z" fill="#a6aaed"/><ellipse cx="317.837" cy="296.246" fill="#f6e06e" rx="19.411" ry="19.411" transform="matrix(.29 -.957 .957 .29 -57.802 514.598)"/><path d="m318.432 437.545h-160.787v60.312h197.905v-390.954c0-6.776-5.493-12.269-12.269-12.269h-6.033v324.095c0 10.392-8.425 18.816-18.816 18.816z" fill="#dba2b3"/><path d="m356.533 60.304h-47.486c15.574 0 28.2 12.626 28.2 28.2v6.13h6.033c6.776 0 12.269 5.493 12.269 12.269v360.126h.026v34.507h12.298c12.558 0 22.739-10.181 22.739-22.739v-384.414c0-18.821-15.257-34.079-34.079-34.079z" fill="#b2748a"/><path d="m158.752 497.858h-1.107v-60.312h-16.246c-10.392 0-18.816-8.424-18.816-18.816v60.068c0 12.558 10.181 22.739 22.739 22.739h13.43z" fill="#b2748a"/><path d="m479.087 2.894 8.234 23.152c.353.991 1.051 1.777 1.931 2.174l20.569 9.267c2.906 1.309 2.906 5.939 0 7.249l-20.569 9.267c-.88.397-1.578 1.182-1.931 2.173l-8.234 23.151c-1.163 3.271-5.277 3.271-6.44 0l-8.234-23.151c-.352-.991-1.05-1.777-1.931-2.173l-20.569-9.267c-2.906-1.309-2.906-5.939 0-7.249l20.569-9.267c.881-.397 1.579-1.182 1.931-2.174l8.234-23.152c1.163-3.271 5.277-3.271 6.44 0z" fill="#efc5b4"/><path d="m29.192 133.824 6.107 17.173c.262.735.779 1.318 1.433 1.612l15.258 6.874c2.156.971 2.156 4.406 0 5.377l-15.258 6.874c-.653.294-1.171.877-1.433 1.612l-6.107 17.173c-.863 2.426-3.914 2.426-4.777 0l-6.108-17.173c-.261-.735-.779-1.318-1.433-1.612l-15.258-6.874c-2.156-.971-2.156-4.406 0-5.377l15.258-6.874c.653-.294 1.171-.877 1.433-1.612l6.108-17.173c.862-2.426 3.914-2.426 4.777 0z" fill="#efc5b4"/><g fill="#e8a284"><ellipse cx="72.74" cy="41.11" rx="17.978" ry="17.979" transform="matrix(.231 -.973 .973 .231 15.962 102.408)"/><ellipse cx="468.111" cy="137.071" rx="7.755" ry="7.755" transform="matrix(.16 -.987 .987 .16 257.827 577.182)"/></g></g><g><g fill="#3c122c"><path d="m356.533 50.282h-199.872c-24.318 0-44.102 19.784-44.102 44.102v384.414c0 18.064 14.697 32.762 32.762 32.762h222.553c18.065 0 32.762-14.697 32.762-32.762v-384.415c-.001-24.317-19.785-44.101-44.103-44.101zm0 20.046c3.994 0 7.76.984 11.079 2.713l-17.084 17.085c-2.224-.965-4.673-1.506-7.247-1.506h-173.368c-2.897 0-5.629.695-8.065 1.9l-17.05-17.051c3.504-1.995 7.551-3.142 11.864-3.142h199.871zm-192.874 36.575c0-3.448 2.806-6.254 6.254-6.254h173.368c3.449 0 6.254 2.805 6.254 6.254v384.61h-185.876zm-31.053 371.895v-384.415c0-4.597 1.298-8.896 3.544-12.552l17.259 17.259c-1.128 2.373-1.778 5.015-1.778 7.812v384.61h-6.31c-7.011.001-12.715-5.703-12.715-12.714zm247.983 0c0 7.012-5.704 12.715-12.715 12.715h-6.31v-384.61c0-3.12-.789-6.058-2.173-8.63l17.18-17.18c2.536 3.811 4.018 8.38 4.018 13.291z"/><path d="m308.81 343.231h-104.425c-8.116 0-14.718 6.603-14.718 14.719v92.184c0 8.116 6.602 14.718 14.718 14.718h104.425c8.116 0 14.718-6.602 14.718-14.718v-92.184c0-8.116-6.603-14.719-14.718-14.719zm2.69 106.903c0 1.483-1.207 2.69-2.69 2.69h-104.425c-1.484 0-2.69-1.207-2.69-2.69v-92.184c0-1.484 1.206-2.691 2.69-2.691h104.425c1.483 0 2.69 1.207 2.69 2.691z"/><path d="m323.528 271.471v-136.461c0-6.832-5.558-12.39-12.39-12.39h-109.082c-6.831 0-12.389 5.558-12.389 12.39v154.86c0 6.831 5.558 12.389 12.389 12.389h91.081c2.709 11.125 12.753 19.411 24.7 19.411 14.02 0 25.425-11.405 25.425-25.425 0-12.061-8.446-22.181-19.734-24.774zm-30.391 18.761h-91.081c-.199 0-.361-.162-.361-.361v-154.861c0-.2.162-.362.361-.362h109.083c.199 0 .362.162.362.362v136.611c-9.044 2.329-16.15 9.522-18.364 18.611zm24.7 19.411c-7.387 0-13.397-6.01-13.397-13.397 0-7.386 6.01-13.396 13.397-13.396s13.397 6.01 13.397 13.396c0 7.387-6.009 13.397-13.397 13.397z"/><path d="m289.445 382.369c-3.321 0-6.014 2.693-6.014 6.014v11.357c0 3.321 2.693 6.014 6.014 6.014s6.014-2.693 6.014-6.014v-11.357c0-3.321-2.692-6.014-6.014-6.014z"/><path d="m268.304 401.85c-3.321 0-6.014 2.693-6.014 6.014v11.356c0 3.321 2.693 6.014 6.014 6.014s6.014-2.693 6.014-6.014v-11.356c0-3.321-2.693-6.014-6.014-6.014z"/></g><path d="m240.173 333.132h-23.084c-5.536 0-10.023-4.488-10.023-10.023s4.488-10.023 10.023-10.023h23.084c5.536 0 10.023 4.488 10.023 10.023s-4.488 10.023-10.023 10.023z" fill="#fff"/><path d="m192.051 333.132h-.844c-5.536 0-10.023-4.488-10.023-10.023s4.488-10.023 10.023-10.023h.844c5.536 0 10.023 4.488 10.023 10.023.001 5.535-4.487 10.023-10.023 10.023z" fill="#fff"/></g></g></svg>