<svg id="Capa_1" enable-background="new 0 0 512 512" height="512" viewBox="0 0 512 512" width="512" xmlns="http://www.w3.org/2000/svg"><g><g><path d="m128.137 490.981c-10.509 0-19.029-8.519-19.029-19.029v-72.817h38.057v72.817c.001 10.509-8.518 19.029-19.028 19.029z" fill="#c49a8b"/><path d="m139.086 419.53h-116.053v-40.791h116.053c11.264 0 20.395 9.131 20.395 20.396 0 11.264-9.131 20.395-20.395 20.395z" fill="#d789b9"/><path d="m29.082 490.981c-10.509 0-19.029-8.519-19.029-19.029v-228.615c0-10.509 8.519-19.029 19.029-19.029 10.509 0 19.029 8.519 19.029 19.029v228.615c0 10.509-8.52 19.029-19.029 19.029z" fill="#c49a8b"/><path d="m383.863 490.981c10.509 0 19.029-8.519 19.029-19.029v-72.817h-38.057v72.817c-.001 10.509 8.518 19.029 19.028 19.029z" fill="#c49a8b"/><path d="m372.914 419.53h116.053v-40.791h-116.053c-11.264 0-20.396 9.131-20.396 20.396.001 11.264 9.132 20.395 20.396 20.395z" fill="#d789b9"/><g fill="#c49a8b"><path d="m482.918 490.981c10.509 0 19.029-8.519 19.029-19.029v-228.615c0-10.509-8.519-19.029-19.029-19.029-10.509 0-19.029 8.519-19.029 19.029v228.615c0 10.509 8.52 19.029 19.029 19.029z"/><path d="m230.635 323.607h38.125v142.587h-38.125z"/><path d="m363.773 347.321h-227.828c-7.571 0-13.709-6.138-13.709-13.709v-31.807c0-7.571 6.138-13.709 13.709-13.709h227.828c7.571 0 13.709 6.138 13.709 13.709v31.807c-.001 7.572-6.138 13.709-13.709 13.709z"/></g><path d="m394.359 309.341h-289.322c-7.788 0-14.102-6.314-14.102-14.102v-14.639c0-7.788 6.313-14.102 14.102-14.102h289.322c7.788 0 14.102 6.313 14.102 14.102v14.64c-.001 7.787-6.314 14.101-14.102 14.101z" fill="#a07575"/><path d="m404.135 303.322c2.663-2.429 4.326-5.833 4.326-9.609v-13.863c0-7.375-6.314-13.352-14.102-13.352h-70.181c5.987 0 10.84 4.92 10.84 10.989v11.409c0 6.069-4.853 10.989-10.84 10.989h-12.974v3.437z" fill="#925873"/><path d="m311.204 313.375v5.424c0 5.9-4.718 10.683-10.538 10.683h-175.132c-1.153 0-2.26-.194-3.298-.541v1.105c0 7.169 6.137 12.98 13.709 12.98h227.828c7.571 0 13.709-5.811 13.709-12.98v-16.671z" fill="#b2748a"/><path d="m294.794 490.981h-90.193c-9.745 0-17.646-7.9-17.646-17.646v-1.309c0-9.745 7.9-17.646 17.646-17.646h90.193c9.745 0 17.645 7.9 17.645 17.646v1.309c.001 9.745-7.899 17.646-17.645 17.646z" fill="#c49a8b"/><path d="m186.183 266.498h-28.602c-4.677 0-8.468-3.792-8.468-8.468v-40.316c0-4.677 3.791-8.468 8.468-8.468h28.602c4.677 0 8.468 3.791 8.468 8.468v40.316c0 4.676-3.791 8.468-8.468 8.468z" fill="#c1e5ef"/><path d="m367.21 221.05c0 21.304-17.27 38.574-38.573 38.574-21.304 0-38.574-17.27-38.574-38.574z" fill="#f6e06e"/><path d="m227.707 347.321h43.974v31.418h-43.974z" fill="#b2748a"/><path d="m406.121 50.068 8.258 23.221c.353.994 1.053 1.782 1.937 2.18l20.631 9.295c2.915 1.313 2.915 5.957 0 7.27l-20.631 9.295c-.883.398-1.583 1.186-1.937 2.18l-8.258 23.22c-1.167 3.281-5.293 3.281-6.459 0l-8.258-23.22c-.354-.994-1.053-1.782-1.937-2.18l-20.631-9.295c-2.914-1.313-2.914-5.957 0-7.27l20.631-9.295c.883-.398 1.583-1.186 1.937-2.18l8.258-23.221c1.166-3.281 5.292-3.281 6.459 0z" fill="#e8c2d8"/><path d="m152.437 12.791 6.126 17.224c.262.737.781 1.322 1.437 1.617l15.303 6.895c2.162.974 2.162 4.419 0 5.393l-15.303 6.895c-.655.295-1.174.88-1.437 1.617l-6.126 17.225c-.865 2.433-3.926 2.433-4.791 0l-6.126-17.225c-.262-.737-.781-1.322-1.437-1.617l-15.304-6.895c-2.162-.974-2.162-4.419 0-5.393l15.304-6.895c.655-.295 1.174-.88 1.437-1.617l6.126-17.224c.865-2.433 3.926-2.433 4.791 0z" fill="#e8c2d8"/><ellipse cx="265.348" cy="118.693" fill="#d789b9" rx="18.032" ry="18.032" transform="matrix(.23 -.973 .973 .23 88.866 349.673)"/><circle cx="89.846" cy="129.903" fill="#d789b9" r="7.779"/></g><g fill="#3c122c"><path d="m139.086 368.686h-80.922v-125.349c0-16.036-13.046-29.082-29.082-29.082-16.036.001-29.082 13.047-29.082 29.082v228.615c0 16.036 13.046 29.082 29.082 29.082s29.082-13.046 29.082-29.082v-42.368h40.891v42.368c0 16.036 13.046 29.082 29.082 29.082s29.082-13.046 29.082-29.082v-48.373c7.467-5.554 12.315-14.443 12.315-24.444.001-16.79-13.659-30.449-30.448-30.449zm-101.029 103.266c0 4.949-4.026 8.975-8.975 8.975s-8.976-4.026-8.976-8.975v-228.615c0-4.949 4.027-8.975 8.976-8.975s8.975 4.026 8.975 8.975zm20.107-83.16h80.922c5.703 0 10.342 4.64 10.342 10.342s-4.64 10.342-10.342 10.342h-80.922zm69.974 92.135c-4.95 0-8.976-4.026-8.976-8.975v-42.368h17.951v42.368c0 4.949-4.026 8.975-8.975 8.975z"/><path d="m482.918 214.256c-16.036 0-29.082 13.046-29.082 29.082v125.348h-80.922c-16.79 0-30.449 13.659-30.449 30.449 0 10.001 4.848 18.89 12.315 24.444v48.373c0 16.036 13.046 29.082 29.082 29.082s29.083-13.046 29.083-29.082v-42.368h40.891v42.368c0 16.036 13.046 29.082 29.082 29.082s29.082-13.046 29.082-29.082v-228.615c0-16.035-13.046-29.081-29.082-29.081zm-90.079 257.696c0 4.949-4.027 8.975-8.976 8.975s-8.975-4.026-8.975-8.975v-42.368h17.952v42.368zm-19.924-62.475c-5.703 0-10.343-4.64-10.343-10.342 0-5.703 4.64-10.342 10.343-10.342h80.922v20.685h-80.922zm118.978 62.475c0 4.949-4.026 8.975-8.975 8.975s-8.975-4.026-8.975-8.975v-228.615c0-4.949 4.026-8.975 8.975-8.975s8.975 4.026 8.975 8.975z"/><path d="m294.794 444.327h-15.98v-86.953h84.959c13.103 0 23.762-10.659 23.762-23.762v-14.218h6.824c13.32 0 24.155-10.836 24.155-24.155v-14.639c0-13.319-10.836-24.155-24.155-24.155h-32.431c9.43-8.875 15.335-21.454 15.335-35.395 0-5.552-4.501-10.053-10.053-10.053h-77.147c-5.552 0-10.053 4.501-10.053 10.053 0 13.94 5.905 26.52 15.335 35.395h-90.641v-38.731c0-10.213-8.309-18.521-18.522-18.521h-28.601c-10.213 0-18.522 8.309-18.522 18.521v38.731h-34.022c-13.319 0-24.155 10.836-24.155 24.155v14.639c0 13.319 10.836 24.155 24.155 24.155h7.146v14.218c0 13.103 10.66 23.762 23.762 23.762h84.637v86.953h-15.981c-15.273 0-27.699 12.426-27.699 27.699v1.309c0 15.273 12.426 27.699 27.699 27.699h90.192c15.273 0 27.699-12.426 27.699-27.699v-1.309c.001-15.273-12.425-27.699-27.698-27.699zm60.533-213.224c-4.074 10.78-14.503 18.467-26.691 18.467s-22.617-7.687-26.691-18.467zm-196.161-11.804h25.432v37.146h-25.432zm-58.177 75.94v-14.639c0-2.232 1.816-4.048 4.048-4.048h289.321c2.233 0 4.049 1.816 4.049 4.048v14.639c0 2.232-1.816 4.048-4.049 4.048h-289.321c-2.232 0-4.048-1.816-4.048-4.048zm31.301 38.373v-14.218h235.138v14.218c0 2.016-1.64 3.656-3.655 3.656h-227.828c-2.015 0-3.655-1.64-3.655-3.656zm108.399 23.762h18.018v86.953h-18.018zm61.698 115.961c0 4.187-3.406 7.592-7.593 7.592h-90.192c-4.187 0-7.593-3.406-7.593-7.592v-1.309c0-4.187 3.406-7.592 7.593-7.592h90.192c4.187 0 7.593 3.406 7.593 7.592z"/></g></g></svg>