<svg id="Capa_1" enable-background="new 0 0 512 512" height="512" viewBox="0 0 512 512" width="512" xmlns="http://www.w3.org/2000/svg"><g><g><path d="m162.602 495.592h-24.237c-7.529 0-13.633-6.104-13.633-13.633v-24.237c0-7.53 6.104-13.634 13.633-13.634h24.237c7.53 0 13.633 6.104 13.633 13.634v24.237c0 7.529-6.104 13.633-13.633 13.633z" fill="#c1e5ef"/><path d="m366.042 495.592h-24.237c-7.529 0-13.633-6.104-13.633-13.633v-24.237c0-7.53 6.104-13.634 13.633-13.634h24.237c7.53 0 13.634 6.104 13.634 13.634v24.237c0 7.529-6.104 13.633-13.634 13.633z" fill="#c1e5ef"/><path d="m368.229 85.828h-232.051c-14.191 0-25.696 11.504-25.696 25.696v84.916h283.442v-84.916c.001-14.192-11.504-25.696-25.695-25.696z" fill="#c2b2eb"/><path d="m368.229 85.828h-50.386c8.911 0 16.134 7.223 16.134 16.134v3.885c0 19.488-15.798 35.287-35.286 35.287h-188.208v55.306h283.442v-84.916c0-14.192-11.505-25.696-25.696-25.696z" fill="#ae85ea"/><path d="m340.861 183.838h-56.153c-9.37 0-16.967-7.596-16.967-16.967v-1.691c0-9.371 7.596-16.967 16.967-16.967h56.153c9.371 0 16.967 7.596 16.967 16.967v1.691c0 9.371-7.597 16.967-16.967 16.967z" fill="#c1e5ef"/><path d="m219.7 183.838h-56.153c-9.37 0-16.967-7.596-16.967-16.967v-1.691c0-9.371 7.596-16.967 16.967-16.967h56.153c9.37 0 16.967 7.596 16.967 16.967v1.691c0 9.371-7.597 16.967-16.967 16.967z" fill="#c1e5ef"/><path d="m374.08 458.468h-243.753c-20.835 0-37.725-16.89-37.725-37.725v-203.452c0-20.835 16.89-37.725 37.725-37.725h243.753c20.835 0 37.725 16.89 37.725 37.725v203.451c.001 20.836-16.89 37.726-37.725 37.726z" fill="#9781dd"/><path d="m361.741 423.339h-219.074c-8.135 0-14.729-6.595-14.729-14.729v-129.427c0-8.135 6.595-14.729 14.729-14.729h219.074c8.135 0 14.729 6.595 14.729 14.729v129.426c0 8.135-6.595 14.73-14.729 14.73z" fill="#c2b2eb"/><path d="m374.08 179.566h-65.859c15.96 0 28.898 12.938 28.898 28.898v55.99h24.621c8.135 0 14.729 6.594 14.729 14.729v129.427c0 8.135-6.594 14.729-14.729 14.729h-219.073c-8.135 0-14.729-6.595-14.729-14.729v-15.398h-6.438c-15.96 0-28.898-12.939-28.898-28.899v56.43c0 20.835 16.89 37.725 37.725 37.725h243.753c20.835 0 37.725-16.89 37.725-37.725v-203.452c0-20.834-16.89-37.725-37.725-37.725z" fill="#8962de"/><path d="m142.667 423.339h219.074c8.135 0 14.729-6.595 14.729-14.729v-129.427c0-8.135-6.594-14.729-14.729-14.729h-24.621v99.859c0 15.96-12.938 28.899-28.898 28.899h-180.284v15.398c0 8.134 6.594 14.729 14.729 14.729z" fill="#ae85ea"/><g fill="#f6e06e"><ellipse cx="153.432" cy="225.805" rx="15.379" ry="15.379" transform="matrix(.383 -.924 .924 .383 -113.901 281.147)"/><ellipse cx="219.28" cy="225.805" rx="15.379" ry="15.379" transform="matrix(.23 -.973 .973 .23 -50.865 387.34)"/><ellipse cx="285.128" cy="225.805" rx="15.379" ry="15.379" transform="matrix(.924 -.383 .383 .924 -64.708 126.302)"/></g><ellipse cx="350.975" cy="225.805" fill="#dda86a" rx="15.379" ry="15.379" transform="matrix(.23 -.973 .973 .23 50.572 515.512)"/><path d="m286.973 319.017h-69.539c-7.421 0-13.436-6.016-13.436-13.437v-2.094c0-7.421 6.016-13.437 13.436-13.437h69.539c7.421 0 13.436 6.016 13.436 13.437v2.094c.001 7.421-6.015 13.437-13.436 13.437z" fill="#f6e06e"/><path d="m478.31 11.216 8.428 23.698c.361 1.015 1.075 1.819 1.977 2.225l21.054 9.486c2.974 1.34 2.974 6.08 0 7.42l-21.054 9.486c-.901.406-1.616 1.21-1.977 2.225l-8.428 23.698c-1.191 3.348-5.401 3.348-6.592 0l-8.428-23.698c-.361-1.015-1.075-1.819-1.977-2.225l-21.054-9.486c-2.974-1.34-2.974-6.079 0-7.42l21.054-9.486c.901-.406 1.616-1.21 1.977-2.225l8.428-23.698c1.191-3.348 5.402-3.348 6.592 0z" fill="#c2b2eb"/><path d="m29.88 43.002 6.252 17.578c.268.753.798 1.349 1.466 1.65l15.618 7.036c2.206.994 2.206 4.51 0 5.504l-15.618 7.036c-.669.301-1.199.898-1.466 1.65l-6.252 17.578c-.883 2.483-4.007 2.483-4.89 0l-6.252-17.578c-.268-.753-.797-1.349-1.466-1.65l-15.617-7.035c-2.206-.994-2.206-4.51 0-5.504l15.618-7.036c.669-.301 1.199-.898 1.466-1.65l6.252-17.578c.883-2.485 4.006-2.485 4.889-.001z" fill="#c2b2eb"/><circle cx="116.675" cy="24.551" fill="#9781dd" r="18.403"/><circle cx="379.676" cy="16.643" fill="#9781dd" r="7.938"/></g><g><g fill="#3c122c"><path d="m404.184 179.962v-68.438c0-19.826-16.129-35.956-35.955-35.956h-232.051c-19.826 0-35.955 16.13-35.955 35.956v68.438c-10.896 8.804-17.881 22.263-17.881 37.329v203.451c0 20.904 13.441 38.718 32.13 45.281v15.934c0 13.175 10.718 23.893 23.893 23.893h24.237c13.175 0 23.893-10.718 23.893-23.893v-13.23h131.418v13.23c0 13.175 10.719 23.893 23.893 23.893h24.237c13.174 0 23.893-10.718 23.893-23.893v-15.935c18.689-6.564 32.13-24.378 32.13-45.281v-203.45c0-15.066-6.986-28.526-17.882-37.329zm-283.441-68.438c0-8.511 6.924-15.436 15.436-15.436h232.051c8.511 0 15.436 6.925 15.436 15.436v58.746c-3.098-.631-6.303-.963-9.585-.963h-6.114c.134-1.263.127-2.838.121-4.126 0-15.013-12.214-27.227-27.227-27.227h-56.152c-15.013 0-27.228 12.214-27.228 27.227-.006 1.292-.013 2.859.121 4.126h-10.796c.134-1.263.127-2.838.121-4.126 0-15.013-12.214-27.227-27.227-27.227h-56.153c-15.013 0-27.227 12.214-27.227 27.227-.006 1.292-.013 2.859.121 4.126h-6.114c-3.282 0-6.487.333-9.585.963v-58.746zm157.257 55.347v-1.691c0-3.699 3.009-6.707 6.708-6.707h56.152c3.699 0 6.708 3.009 6.708 6.707.012 1.298.069 2.946-.465 4.126h-68.639c-.296-.756-.464-1.575-.464-2.435zm-121.16 0v-1.691c0-3.699 3.009-6.707 6.707-6.707h56.153c3.698 0 6.707 3.009 6.707 6.707.012 1.298.069 2.946-.464 4.126h-68.638c-.297-.756-.465-1.575-.465-2.435zm9.135 315.087c0 1.86-1.513 3.374-3.373 3.374h-24.237c-1.86 0-3.374-1.513-3.374-3.374v-13.23h30.984zm200.068 3.374h-24.237c-1.861 0-3.374-1.513-3.374-3.374v-13.23h30.984v13.23c0 1.86-1.513 3.374-3.373 3.374zm35.503-64.589c0 15.145-12.321 27.466-27.466 27.466h-243.753c-15.145 0-27.465-12.321-27.465-27.466v-203.452c0-15.145 12.321-27.465 27.465-27.465h243.753c15.145 0 27.466 12.321 27.466 27.465z"/><path d="m361.74 258.298h-219.073c-11.516 0-20.885 9.369-20.885 20.885v129.427c0 11.516 9.369 20.885 20.885 20.885h219.073c11.516 0 20.885-9.369 20.885-20.885v-129.427c.001-11.516-9.368-20.885-20.885-20.885zm8.574 150.311c0 4.728-3.846 8.574-8.574 8.574h-219.073c-4.728 0-8.574-3.846-8.574-8.574v-129.426c0-4.727 3.846-8.573 8.574-8.573h219.073c4.727 0 8.574 3.846 8.574 8.573z"/><path d="m153.433 247.341c11.874 0 21.535-9.661 21.535-21.536 0-11.874-9.661-21.535-21.535-21.535-11.875 0-21.536 9.661-21.536 21.535 0 11.875 9.661 21.536 21.536 21.536zm0-30.759c5.086 0 9.223 4.137 9.223 9.223s-4.137 9.224-9.223 9.224-9.224-4.138-9.224-9.224 4.138-9.223 9.224-9.223z"/><path d="m219.28 247.341c11.874 0 21.535-9.661 21.535-21.536 0-11.874-9.661-21.535-21.535-21.535-11.875 0-21.536 9.661-21.536 21.535.001 11.875 9.661 21.536 21.536 21.536zm0-30.759c5.086 0 9.223 4.137 9.223 9.223s-4.137 9.224-9.223 9.224-9.224-4.138-9.224-9.224 4.138-9.223 9.224-9.223z"/><path d="m285.128 247.341c11.875 0 21.536-9.661 21.536-21.536 0-11.874-9.661-21.535-21.536-21.535s-21.535 9.661-21.535 21.535c-.001 11.875 9.66 21.536 21.535 21.536zm0-30.759c5.086 0 9.224 4.137 9.224 9.223s-4.138 9.224-9.224 9.224-9.224-4.138-9.224-9.224 4.138-9.223 9.224-9.223z"/><path d="m350.975 247.341c11.875 0 21.536-9.661 21.536-21.536 0-11.874-9.661-21.535-21.536-21.535-11.874 0-21.535 9.661-21.535 21.535 0 11.875 9.661 21.536 21.535 21.536zm0-30.759c5.086 0 9.224 4.137 9.224 9.223s-4.138 9.224-9.224 9.224-9.223-4.138-9.223-9.224 4.137-9.223 9.223-9.223z"/><path d="m286.973 283.894h-69.539c-10.803 0-19.592 8.789-19.592 19.593v2.094c0 10.803 8.789 19.592 19.592 19.592h69.539c10.804 0 19.593-8.789 19.593-19.592v-2.094c0-10.804-8.789-19.593-19.593-19.593zm7.281 21.687c0 4.015-3.266 7.28-7.281 7.28h-69.539c-4.015 0-7.281-3.266-7.281-7.28v-2.094c0-4.015 3.266-7.281 7.281-7.281h69.539c4.015 0 7.281 3.266 7.281 7.281z"/><path d="m337.499 342.526c-3.4 0-6.156 2.756-6.156 6.156v11.625c0 3.4 2.756 6.156 6.156 6.156s6.156-2.756 6.156-6.156v-11.625c0-3.4-2.757-6.156-6.156-6.156z"/><path d="m315.25 373.972c-3.4 0-6.156 2.756-6.156 6.156v11.625c0 3.4 2.756 6.156 6.156 6.156s6.156-2.756 6.156-6.156v-11.625c0-3.4-2.757-6.156-6.156-6.156z"/><path d="m288.995 355.546c-3.4 0-6.156 2.756-6.156 6.156v11.625c0 3.4 2.756 6.156 6.156 6.156s6.156-2.756 6.156-6.156v-11.625c0-3.4-2.756-6.156-6.156-6.156z"/></g><path d="m159.921 364.754c-5.666 0-10.26-4.593-10.26-10.26v-18.446c0-5.667 4.593-10.26 10.26-10.26s10.26 4.593 10.26 10.26v18.446c0 5.667-4.593 10.26-10.26 10.26z" fill="#fff"/><path d="m159.921 317.576c-5.666 0-10.26-4.593-10.26-10.26v-6.937c0-5.667 4.593-10.26 10.26-10.26s10.26 4.593 10.26 10.26v6.937c0 5.666-4.593 10.26-10.26 10.26z" fill="#fff"/></g></g></svg>