<svg id="Capa_1" enable-background="new 0 0 512 512" height="512" viewBox="0 0 512 512" width="512" xmlns="http://www.w3.org/2000/svg"><g><g><path d="m232.023 171.154h-9.857c-12.473 0-22.583-10.111-22.583-22.583 0-12.473 10.111-22.583 22.583-22.583h9.857c12.472 0 22.583 10.111 22.583 22.583 0 12.472-10.111 22.583-22.583 22.583z" fill="#f6e06e"/><path d="m371.228 160.37h-230.456v9.175c0 50.095 40.61 90.704 90.704 90.704h49.048c50.095 0 90.704-40.61 90.704-90.704z" fill="#c1e5ef"/><path d="m322.984 160.37v3.228c0 37.671-30.538 68.21-68.21 68.21h-45.793c-37.671 0-68.21-30.539-68.21-68.21v5.948c0 50.095 40.61 90.704 90.704 90.704h49.048c50.095 0 90.704-40.609 90.704-90.704v-9.176z" fill="#a6aaed"/><path d="m452.758 499.809h-393.516c-13.877 0-25.127-11.25-25.127-25.127v-169.537c0-13.877 11.25-25.127 25.127-25.127h393.515c13.877 0 25.127 11.25 25.127 25.127v169.538c0 13.877-11.249 25.126-25.126 25.126z" fill="#faf1a9"/><path d="m452.758 280.018h-92.254c10.475 0 18.966 8.491 18.966 18.966v122.979c0 10.475-8.491 18.966-18.966 18.966h-307.422c-10.475 0-18.966-8.491-18.966-18.966v52.72c0 13.877 11.25 25.127 25.127 25.127h393.515c13.877 0 25.127-11.25 25.127-25.127v-169.538c-.001-13.878-11.25-25.127-25.127-25.127z" fill="#dfb5a7"/><path d="m482.138 299.785h-452.277c-10.917 0-19.768-8.85-19.768-19.768 0-10.917 8.85-19.768 19.768-19.768h452.277c10.917 0 19.768 8.85 19.768 19.768 0 10.918-8.85 19.768-19.768 19.768z" fill="#fff"/><path d="m111.549 4.567 8.291 23.314c.355.998 1.058 1.789 1.945 2.189l20.714 9.332c2.926 1.318 2.926 5.981 0 7.299l-20.714 9.332c-.887.399-1.59 1.191-1.945 2.189l-8.291 23.314c-1.171 3.294-5.314 3.294-6.485 0l-8.291-23.314c-.355-.998-1.058-1.789-1.945-2.189l-20.713-9.332c-2.926-1.318-2.926-5.981 0-7.299l20.713-9.332c.887-.4 1.59-1.191 1.945-2.189l8.291-23.314c1.171-3.293 5.313-3.293 6.485 0z" fill="#faf1a9"/><path d="m466.694 97.44 6.15 17.294c.263.741.785 1.327 1.443 1.624l15.365 6.923c2.171.978 2.171 4.437 0 5.415l-15.365 6.923c-.658.296-1.179.883-1.443 1.624l-6.15 17.294c-.869 2.443-3.942 2.443-4.811 0l-6.15-17.294c-.263-.74-.785-1.327-1.443-1.624l-15.365-6.923c-2.171-.978-2.171-4.437 0-5.415l15.365-6.923c.658-.296 1.179-.883 1.443-1.624l6.15-17.294c.869-2.443 3.942-2.443 4.811 0z" fill="#faf1a9"/><g fill="#f6e06e"><circle cx="390.542" cy="43.052" r="18.105"/><circle cx="55.927" cy="102.062" r="7.81"/></g></g><g><g fill="#3c122c"><path d="m512 280.018c0-16.466-13.396-29.862-29.862-29.862h-141.166c24.484-18.407 40.349-47.69 40.349-80.611v-9.175c0-5.575-4.519-10.094-10.094-10.094h-104.593v-47.703c0-11.41 9.283-20.692 20.693-20.692s20.692 9.283 20.692 20.692v.831c0 5.575 4.519 10.094 10.094 10.094s10.094-4.519 10.094-10.094v-.831c0-22.541-18.338-40.879-40.879-40.879s-40.88 18.339-40.88 40.879v16.687c-4.353-2.151-9.249-3.366-14.424-3.366h-9.858c-18.018 0-32.677 14.659-32.677 32.677 0 .573.023 1.14.053 1.706h-48.77c-5.575 0-10.094 4.519-10.094 10.094v9.175c0 32.921 15.865 62.204 40.349 80.611h-141.165c-16.466-.001-29.862 13.395-29.862 29.861 0 14.467 10.343 26.561 24.022 29.284v165.38c0 19.421 15.8 35.221 35.22 35.221h393.516c19.421 0 35.22-15.8 35.22-35.221v-165.38c13.679-2.723 24.022-14.817 24.022-29.284zm-302.324-131.447c0-6.887 5.603-12.49 12.49-12.49h9.858c6.887 0 12.489 5.603 12.489 12.49 0 .58-.051 1.147-.128 1.706h-34.58c-.078-.559-.129-1.127-.129-1.706zm-58.806 21.893h210.259c-.494 44.027-36.463 79.692-80.605 79.692h-49.048c-44.142 0-80.111-35.665-80.606-79.692zm-106.661 304.218v-164.803h200.303v179.836h-185.27c-8.289 0-15.033-6.743-15.033-15.033zm408.549 15.033h-188.058v-179.836h203.091v164.803c0 8.29-6.744 15.033-15.033 15.033zm29.38-200.023h-452.276c-5.334 0-9.674-4.34-9.674-9.674 0-5.335 4.34-9.674 9.674-9.674h201.614 49.048 201.614c5.334 0 9.674 4.34 9.674 9.674.001 5.334-4.339 9.674-9.674 9.674z"/><path d="m433.948 329.83h-132.605c-11.282 0-20.46 9.178-20.46 20.46v17.153c0 11.282 9.178 20.46 20.46 20.46h132.605c11.282 0 20.46-9.178 20.46-20.46v-17.153c0-11.281-9.179-20.46-20.46-20.46zm8.347 37.613c0 4.603-3.745 8.348-8.348 8.348h-132.604c-4.603 0-8.348-3.745-8.348-8.348v-17.153c0-4.603 3.745-8.348 8.348-8.348h132.605c4.603 0 8.348 3.745 8.348 8.348v17.153z"/><path d="m379.47 352.811h-23.649c-3.345 0-6.056 2.712-6.056 6.056s2.712 6.056 6.056 6.056h23.649c3.345 0 6.056-2.712 6.056-6.056 0-3.345-2.711-6.056-6.056-6.056z"/><path d="m197.57 326.054h-105.754c-16.742 0-30.363 13.621-30.363 30.363v88.247c0 16.742 13.621 30.363 30.363 30.363h105.754c16.742 0 30.363-13.621 30.363-30.363v-88.248c0-16.741-13.621-30.362-30.363-30.362zm18.25 118.611c0 10.063-8.187 18.25-18.25 18.25h-105.754c-10.064 0-18.251-8.187-18.251-18.251v-88.247c0-10.064 8.187-18.251 18.251-18.251h105.754c10.063 0 18.25 8.187 18.25 18.251z"/><path d="m192.735 382.66c-3.344 0-6.056 2.712-6.056 6.056v23.65c0 3.345 2.712 6.056 6.056 6.056s6.056-2.712 6.056-6.056v-23.65c0-3.344-2.712-6.056-6.056-6.056z"/><path d="m433.948 411.892h-132.605c-11.282 0-20.46 9.178-20.46 20.46v17.154c0 11.281 9.178 20.46 20.46 20.46h132.605c11.282 0 20.46-9.178 20.46-20.46v-17.154c0-11.281-9.179-20.46-20.46-20.46zm8.347 37.614c0 4.603-3.745 8.348-8.348 8.348h-132.604c-4.603 0-8.348-3.745-8.348-8.348v-17.154c0-4.603 3.745-8.348 8.348-8.348h132.605c4.603 0 8.348 3.745 8.348 8.348v17.154z"/><path d="m379.47 434.873h-23.649c-3.345 0-6.056 2.712-6.056 6.056 0 3.345 2.712 6.056 6.056 6.056h23.649c3.345 0 6.056-2.712 6.056-6.056s-2.711-6.056-6.056-6.056z"/></g><path d="m223.814 206.494h-35.939c-5.575 0-10.094-4.519-10.094-10.094s4.519-10.094 10.094-10.094h35.939c5.575 0 10.094 4.519 10.094 10.094s-4.519 10.094-10.094 10.094z" fill="#fff"/><path d="m135.411 373.566h-35.306c-5.575 0-10.094-4.519-10.094-10.094s4.519-10.094 10.094-10.094h35.306c5.575 0 10.094 4.519 10.094 10.094-.001 5.575-4.52 10.094-10.094 10.094z" fill="#fff"/></g></g></svg>