<svg id="Capa_1" enable-background="new 0 0 512 512" height="512" viewBox="0 0 512 512" width="512" xmlns="http://www.w3.org/2000/svg"><g><g><path d="m64.17 428.071h-8.114c-10.718 0-19.406 8.689-19.406 19.406v17.102c0 10.718 8.688 19.406 19.406 19.406h8.114c10.718 0 19.406-8.688 19.406-19.406v-17.102c0-10.718-8.688-19.406-19.406-19.406z" fill="#f4dab5"/><path d="m455.944 428.071h-8.114c-10.718 0-19.406 8.689-19.406 19.406v17.102c0 10.718 8.689 19.406 19.406 19.406h8.114c10.718 0 19.406-8.688 19.406-19.406v-17.102c0-10.718-8.688-19.406-19.406-19.406z" fill="#f4dab5"/><path d="m453.396 226.779c0-32.201-26.104-58.306-58.306-58.306h-277.291c-32.201 0-58.306 26.104-58.306 58.306v79.766c0 14.748 5.487 28.207 14.516 38.475-.395 2.16-.612 4.382-.612 6.656v30.768c0 20.326 16.478 36.804 36.804 36.804h109.439c20.327 0 36.804-16.478 36.804-36.804 0 20.326 16.478 36.804 36.804 36.804h109.439c20.327 0 36.804-16.478 36.804-36.804v-30.768c0-2.274-.217-4.496-.612-6.656 9.029-10.268 14.516-23.727 14.516-38.475v-79.766z" fill="#96b4eb"/><path d="m447.285 450.871h-356.774c-19.904 0-36.04-16.136-36.04-36.04v-5.709c0-19.905 16.136-36.04 36.04-36.04h356.774c19.904 0 36.04 16.136 36.04 36.04v5.709c0 19.904-16.136 36.04-36.04 36.04z" fill="#96b4eb"/><path d="m447.285 373.081h-7.793v-21.406c0-2.274-.217-4.496-.612-6.656 9.029-10.268 14.516-23.727 14.516-38.475v-79.766c0-32.201-26.104-58.306-58.306-58.306h-88.091c23.874 0 43.227 19.353 43.227 43.226v59.137c0 10.934-4.068 20.912-10.762 28.524.293 1.601.453 3.249.453 4.934v15.87h5.778c14.757 0 26.719 11.963 26.719 26.72v4.233c0 14.756-11.962 26.719-26.719 26.719h-264.505c-2.711 0-5.327-.407-7.793-1.158v.718c-11.27 6.092-18.927 18.013-18.927 31.724v5.71c0 19.904 16.136 36.04 36.04 36.04h356.774c19.905 0 36.04-16.136 36.04-36.04v-5.71c.001-19.902-16.135-36.038-36.039-36.038z" fill="#8286ea"/><path d="m74.075 450.871h-27.924c-19.892 0-36.017-16.126-36.017-36.017v-97.051c0-27.603 22.376-49.979 49.979-49.979 27.603 0 49.979 22.376 49.979 49.979v97.051c0 19.892-16.125 36.017-36.017 36.017z" fill="#96b4eb"/><path d="m60.113 267.824c-2.798 0-5.539.241-8.212.683 15.081 3.107 26.421 16.458 26.421 32.459v90.773c0 13.19-10.693 23.883-23.884 23.883h-20.421c-13.191 0-23.884-10.693-23.884-23.883v23.114c0 19.892 16.126 36.017 36.017 36.017h27.925c19.892 0 36.017-16.126 36.017-36.017v-97.051c0-27.602-22.376-49.978-49.979-49.978z" fill="#8286ea"/><path d="m465.849 450.871h-27.925c-19.892 0-36.017-16.126-36.017-36.017v-97.051c0-27.603 22.377-49.979 49.979-49.979 27.603 0 49.979 22.376 49.979 49.979v97.051c.001 19.892-16.124 36.017-36.016 36.017z" fill="#96b4eb"/><path d="m451.887 267.824c-3.172 0-6.271.309-9.28.874 14.67 3.418 25.602 16.566 25.602 32.277v87.111c0 13.194-10.696 23.89-23.89 23.89h-18.522c-13.194 0-23.89-10.696-23.89-23.89v26.768c0 19.892 16.125 36.017 36.017 36.017h27.925c19.892 0 36.017-16.126 36.017-36.017v-97.051c0-27.603-22.376-49.979-49.979-49.979z" fill="#8286ea"/><path d="m67.095 20.361 8.324 23.406c.356 1.002 1.062 1.796 1.952 2.198l20.795 9.369c2.938 1.324 2.938 6.005 0 7.328l-20.795 9.369c-.89.401-1.596 1.195-1.952 2.197l-8.324 23.406c-1.176 3.307-5.335 3.307-6.511 0l-8.324-23.406c-.356-1.002-1.062-1.796-1.952-2.197l-20.795-9.369c-2.938-1.324-2.938-6.005 0-7.328l20.795-9.369c.89-.401 1.596-1.195 1.952-2.198l8.324-23.406c1.177-3.307 5.335-3.307 6.511 0z" fill="#c1e5ef"/><path d="m332.866 63.027 6.175 17.362c.264.743.788 1.332 1.448 1.63l15.426 6.95c2.179.982 2.179 4.454 0 5.436l-15.426 6.95c-.66.298-1.184.887-1.448 1.63l-6.175 17.362c-.872 2.453-3.957 2.453-4.83 0l-6.175-17.362c-.264-.743-.788-1.333-1.448-1.63l-15.426-6.95c-2.179-.982-2.179-4.454 0-5.436l15.426-6.95c.661-.298 1.184-.887 1.448-1.63l6.175-17.362c.872-2.453 3.957-2.453 4.83 0z" fill="#c1e5ef"/><g fill="#96b4eb"><ellipse cx="453.395" cy="50.614" rx="18.176" ry="18.176" transform="matrix(.851 -.526 .526 .851 41.105 245.923)"/><ellipse cx="192.09" cy="50.614" rx="7.841" ry="7.841" transform="matrix(.973 -.23 .23 .973 -6.49 45.488)"/></g></g><g><g fill="#3c122c"><path d="m463.529 258.832v-32.053c0-37.738-30.702-68.439-68.439-68.439h-277.291c-37.738 0-68.439 30.701-68.439 68.439v31.894c-28.03 5.086-49.36 29.656-49.36 59.13v97.051c0 18.429 10.862 34.363 26.517 41.754v7.971c0 16.289 13.252 29.54 29.54 29.54h8.114c16.288 0 29.54-13.251 29.54-29.54v-3.574h324.58v3.574c0 16.289 13.252 29.54 29.54 29.54h8.115c16.288 0 29.54-13.251 29.54-29.54v-7.971c15.652-7.391 26.514-23.325 26.514-41.754v-97.051c0-29.163-20.878-53.533-48.471-58.971zm-345.73-80.225h277.291c26.562 0 48.172 21.61 48.172 48.172v31.54c-24.756 3.574-44.669 22.284-50.041 46.419h-99.972c-14.905 0-28.2 6.992-36.804 17.858-8.604-10.867-21.899-17.858-36.804-17.858h-100.862c-5.308-23.845-24.809-42.399-49.152-46.287v-31.672c0-26.562 21.61-48.172 48.172-48.172zm2.427 146.398h99.414c14.707 0 26.671 11.964 26.671 26.67v11.272h-126.085zm271.548 37.942h-125.196v-11.272c0-14.706 11.964-26.67 26.671-26.67h98.525zm-271.548 51.907v-31.64h271.548v31.64c0 9.586 2.94 18.497 7.962 25.884h-287.473c5.023-7.387 7.963-16.298 7.963-25.884zm-99.959-97.051c0-21.971 17.874-39.846 39.845-39.846s39.846 17.875 39.846 39.846v97.051c0 14.272-11.612 25.884-25.884 25.884h-27.923c-14.272 0-25.884-11.612-25.884-25.884zm43.903 156.049h-8.114c-5.113 0-9.273-4.16-9.273-9.273v-3.574h26.659v3.574c.001 5.113-4.159 9.273-9.272 9.273zm391.774 0h-8.115c-5.113 0-9.273-4.16-9.273-9.273v-3.574h26.66v3.574c0 5.113-4.159 9.273-9.272 9.273zm35.789-58.998c0 14.272-11.612 25.884-25.884 25.884h-27.925c-14.272 0-25.883-11.612-25.883-25.884v-97.051c0-21.971 17.874-39.846 39.845-39.846s39.846 17.875 39.846 39.846v97.051z"/><path d="m141.919 272.249c2.374 2.374 6.224 2.374 8.598 0l14.404-14.404 14.404 14.404c2.373 2.375 6.224 2.374 8.598 0 2.375-2.375 2.375-6.224 0-8.599l-14.403-14.404 14.403-14.403c2.375-2.375 2.375-6.224 0-8.599-2.373-2.374-6.225-2.374-8.598 0l-14.404 14.404-14.404-14.404c-2.372-2.375-6.224-2.375-8.598 0-2.375 2.374-2.375 6.224 0 8.599l14.403 14.403-14.403 14.404c-2.375 2.375-2.375 6.224 0 8.599z"/><path d="m324.967 272.249c2.374 2.374 6.224 2.374 8.598 0l14.404-14.404 14.404 14.404c2.373 2.375 6.224 2.374 8.598 0 2.375-2.375 2.375-6.224 0-8.599l-14.403-14.404 14.403-14.403c2.375-2.375 2.375-6.224 0-8.599-2.373-2.374-6.225-2.374-8.598 0l-14.404 14.404-14.404-14.404c-2.372-2.375-6.224-2.375-8.598 0-2.375 2.374-2.375 6.224 0 8.599l14.403 14.403-14.403 14.404c-2.376 2.375-2.376 6.224 0 8.599z"/><path d="m443.944 328.553c0-3.358-2.722-6.08-6.08-6.08s-6.08 2.722-6.08 6.08v11.481c0 3.358 2.722 6.08 6.08 6.08s6.08-2.722 6.08-6.08z"/><path d="m469.176 355.519c-3.358 0-6.08 2.722-6.08 6.08v11.482c0 3.358 2.722 6.08 6.08 6.08s6.08-2.722 6.08-6.08v-11.482c0-3.358-2.722-6.08-6.08-6.08z"/><path d="m448.905 388.54c-3.358 0-6.08 2.722-6.08 6.08v11.482c0 3.358 2.722 6.08 6.08 6.08s6.08-2.722 6.08-6.08v-11.482c0-3.357-2.722-6.08-6.08-6.08z"/></g><path d="m49.857 360.916c-5.596 0-10.134-4.537-10.134-10.134v-33.458c0-5.597 4.537-10.134 10.134-10.134s10.134 4.537 10.134 10.134v33.458c0 5.597-4.538 10.134-10.134 10.134z" fill="#fff"/></g></g></svg>