<svg id="Capa_1" enable-background="new 0 0 512 512" height="512" viewBox="0 0 512 512" width="512" xmlns="http://www.w3.org/2000/svg"><g><g><path d="m485.379 309.971h-460.428c-8.133 0-14.726-6.593-14.726-14.726 0-21.02 17.04-38.061 38.061-38.061h437.093c9.055 0 16.396 7.341 16.396 16.396v19.994c0 9.056-7.341 16.397-16.396 16.397z" fill="#faf1a9"/><path d="m485.379 257.184h-66.84c4.528 0 8.198 3.671 8.198 8.198v9.997c0 4.528-3.67 8.199-8.198 8.199h-400.951c-1.874 0-3.58-.706-4.88-1.86-1.6 4.205-2.483 8.762-2.483 13.527 0 8.133 6.593 14.726 14.726 14.726h460.428c9.055 0 16.396-7.341 16.396-16.396v-19.994c0-9.056-7.341-16.397-16.396-16.397z" fill="#dfb5a7"/><path d="m416.32 257.184h-36.612c-13.435 0-24.326-10.891-24.326-24.326v-34.056c0-17.425 4.78-34.61 14.32-49.191 6.981-10.671 16.46-19.95 28.312-19.95s21.331 9.279 28.312 19.95c9.54 14.582 14.32 31.766 14.32 49.191v34.056c0 13.435-10.891 24.326-24.326 24.326z" fill="#c2b2eb"/><path d="m426.326 149.611c-6.981-10.671-16.46-19.951-28.312-19.951-3.002 0-5.85.6-8.546 1.662 4.771 2.499 8.769 7.533 11.96 13.09 6.192 10.782 9.294 23.488 9.294 36.372v25.181c0 9.934-7.069 17.987-15.789 17.987h-23.763c-8.72 0-15.789-8.053-15.789-17.987v26.892c0 13.435 10.891 24.326 24.326 24.326h36.612c13.435 0 24.326-10.891 24.326-24.326v-34.056c.001-17.423-4.779-34.608-14.319-49.19z" fill="#ae85ea"/><path d="m229.153 257.184h-130.192c-13.047 0-23.623-10.576-23.623-23.623 0-13.047 10.576-23.623 23.623-23.623h130.192c13.047 0 23.623 10.576 23.623 23.623 0 13.047-10.576 23.623-23.623 23.623z" fill="#e8a284"/><path d="m65.305 21.984 8.399 23.616c.359 1.011 1.072 1.812 1.97 2.217l20.982 9.453c2.964 1.335 2.964 6.058 0 7.394l-20.982 9.453c-.898.405-1.61 1.206-1.97 2.217l-8.399 23.616c-1.187 3.336-5.383 3.336-6.569 0l-8.399-23.616c-.36-1.011-1.071-1.812-1.97-2.217l-20.982-9.453c-2.964-1.336-2.964-6.059 0-7.394l20.982-9.453c.898-.405 1.61-1.206 1.97-2.217l8.399-23.616c1.187-3.336 5.383-3.336 6.569 0z" fill="#c2b2eb"/><path d="m263.184 84.572 6.23 17.518c.267.75.795 1.345 1.461 1.645l15.564 7.012c2.199.991 2.199 4.494 0 5.485l-15.564 7.012c-.666.3-1.194.895-1.461 1.645l-6.23 17.518c-.88 2.475-3.993 2.475-4.873 0l-6.23-17.518c-.267-.75-.795-1.344-1.461-1.645l-15.564-7.012c-2.199-.991-2.199-4.494 0-5.485l15.564-7.012c.667-.3 1.195-.895 1.461-1.645l6.23-17.518c.88-2.475 3.993-2.475 4.873 0z" fill="#c2b2eb"/><g fill="#9781dd"><circle cx="215.48" cy="19.482" r="18.339"/><ellipse cx="131.199" cy="131.675" rx="7.911" ry="7.911" transform="matrix(.924 -.383 .383 .924 -40.403 60.231)"/></g></g><g fill="#3c122c"><path d="m485.379 246.96h-37.53c1.935-4.309 3.021-9.079 3.021-14.101v-34.056c0-19.856-5.529-38.801-15.988-54.789-10.67-16.307-23.074-24.576-36.868-24.576s-26.198 8.269-36.868 24.577c-10.459 15.987-15.988 34.933-15.988 54.789v34.056c0 5.022 1.086 9.792 3.021 14.101h-87.953c1.781-4.111 2.775-8.64 2.775-13.399 0-18.663-15.184-33.848-33.847-33.848h-130.193c-18.663 0-33.847 15.184-33.847 33.848 0 4.759.994 9.288 2.775 13.399h-19.604c-26.625-.001-48.285 21.66-48.285 48.284 0 13.758 11.193 24.95 24.95 24.95h102.11l114.684 110.976-50.932 49.286c-6.632 6.417-15.366 9.952-24.594 9.952h-35.02c-5.646 0-10.225 4.578-10.225 10.225s4.578 10.225 10.225 10.225h35.02c14.564 0 28.348-5.578 38.814-15.705l51.415-49.753 51.416 49.753c10.466 10.127 24.25 15.705 38.815 15.705h35.019c5.646 0 10.225-4.578 10.225-10.225s-4.578-10.225-10.225-10.225h-35.019c-9.228 0-17.962-3.534-24.594-9.952l-50.933-49.286 114.683-110.976h99.545c14.679 0 26.621-11.942 26.621-26.621v-19.994c0-14.678-11.942-26.62-26.621-26.62zm-119.772-14.101v-34.056c0-15.869 4.374-30.943 12.651-43.593 4.573-6.99 11.713-15.323 19.756-15.323s15.183 8.333 19.756 15.323c8.276 12.651 12.651 27.725 12.651 43.594v34.056c0 7.775-6.326 14.101-14.102 14.101h-36.611c-7.775-.001-14.101-6.327-14.101-14.102zm-280.044.702c0-7.388 6.01-13.398 13.398-13.398h130.193c7.388 0 13.398 6.01 13.398 13.398s-6.01 13.399-13.398 13.399h-130.193c-7.388 0-13.398-6.011-13.398-13.399zm170.885 183.382-99.98-96.748h199.96zm235.103-123.368c0 3.403-2.769 6.172-6.172 6.172h-460.429c-2.482 0-4.501-2.019-4.501-4.502 0-15.349 12.487-27.836 27.836-27.836h331.423 36.611 69.06c3.403 0 6.172 2.769 6.172 6.172z"/><path d="m383.736 218.42c-3.388 0-6.135 2.747-6.135 6.135s2.747 6.135 6.135 6.135 6.135-2.746 6.135-6.135c-.001-3.388-2.747-6.135-6.135-6.135z"/><path d="m418.427 224.555c0-3.388-2.747-6.135-6.135-6.135s-6.135 2.747-6.135 6.135 2.747 6.135 6.135 6.135c3.388-.001 6.135-2.747 6.135-6.135z"/><path d="m383.736 193.423c-3.388 0-6.135 2.746-6.135 6.135 0 3.388 2.747 6.135 6.135 6.135s6.135-2.747 6.135-6.135c-.001-3.389-2.747-6.135-6.135-6.135z"/><path d="m412.292 205.692c3.388 0 6.135-2.747 6.135-6.135s-2.747-6.135-6.135-6.135-6.135 2.746-6.135 6.135 2.747 6.135 6.135 6.135z"/><path d="m363.547 94.964c0 3.388 2.747 6.135 6.135 6.135s6.135-2.747 6.135-6.135c0-2.236.404-3.079 1.139-4.61.991-2.064 2.348-4.891 2.348-9.918s-1.357-7.855-2.348-9.919c-1.509-2.381-1.511-6.83-.001-9.213.992-2.063 2.349-4.889 2.349-9.915 0-3.388-2.747-6.135-6.135-6.135s-6.135 2.747-6.135 6.135c0 2.233-.404 3.074-1.138 4.603-.991 2.063-2.348 4.889-2.348 9.915 0 5.028 1.357 7.855 2.347 9.918 1.51 2.383 1.51 6.836 0 9.219-.991 2.066-2.348 4.893-2.348 9.92z"/><path d="m390.136 94.964c0 3.388 2.747 6.135 6.135 6.135s6.135-2.747 6.135-6.135c0-2.236.404-3.079 1.139-4.61.991-2.064 2.348-4.891 2.348-9.918s-1.357-7.855-2.348-9.919c-1.509-2.381-1.511-6.83-.001-9.213.992-2.063 2.349-4.889 2.349-9.915 0-3.388-2.747-6.135-6.135-6.135s-6.135 2.747-6.135 6.135c0 2.233-.404 3.074-1.138 4.603-.991 2.063-2.348 4.889-2.348 9.915 0 5.028 1.357 7.855 2.347 9.918 1.51 2.383 1.51 6.836 0 9.219-.991 2.066-2.348 4.893-2.348 9.92z"/><path d="m417.024 94.964c0 3.388 2.747 6.135 6.135 6.135s6.135-2.747 6.135-6.135c0-2.236.404-3.079 1.139-4.61.99-2.064 2.346-4.89 2.346-9.918s-1.356-7.854-2.346-9.918c-1.509-2.381-1.511-6.831-.001-9.214.99-2.063 2.347-4.889 2.347-9.915 0-3.388-2.747-6.135-6.135-6.135s-6.135 2.747-6.135 6.135c0 2.233-.404 3.075-1.138 4.604-.991 2.063-2.348 4.889-2.348 9.915 0 5.028 1.356 7.854 2.346 9.918 1.51 2.383 1.51 6.837 0 9.22-.989 2.064-2.345 4.891-2.345 9.918z"/></g></g></svg>