<svg id="Capa_1" enable-background="new 0 0 512 512" height="512" viewBox="0 0 512 512" width="512" xmlns="http://www.w3.org/2000/svg"><g><g><path d="m80.2 487.144h-18.468c-5.737 0-10.389-4.651-10.389-10.388v-18.468c0-5.737 4.651-10.389 10.389-10.389h18.468c5.737 0 10.389 4.651 10.389 10.389v18.468c0 5.737-4.651 10.388-10.389 10.388z" fill="#9781dd"/><path d="m274.464 487.144h-18.468c-5.738 0-10.389-4.651-10.389-10.388v-18.468c0-5.737 4.651-10.389 10.389-10.389h18.468c5.737 0 10.388 4.651 10.388 10.389v18.468c.001 5.737-4.65 10.388-10.388 10.388z" fill="#9781dd"/><path d="m283.487 459.355h-230.778c-23.553 0-42.646-19.093-42.646-42.646v-245.087c0-23.553 19.093-42.646 42.646-42.646h230.778c23.553 0 42.646 19.093 42.646 42.646v245.087c0 23.553-19.093 42.646-42.646 42.646z" fill="#c2b2eb"/><path d="m283.487 128.977h-230.778c-23.433 0-42.444 18.901-42.637 42.289h107.776v15.785c0 5.403 4.38 9.782 9.783 9.782h198.502v-25.211c0-23.552-19.093-42.645-42.646-42.645z" fill="#9781dd"/><path d="m272.146 164.876v27.83h53.987v-21.083c0-23.553-19.093-42.646-42.646-42.646h-47.241c19.827-.001 35.9 16.072 35.9 35.899z" fill="#8962de"/><path d="m272.146 202.77v168.422c0 19.826-16.073 35.899-35.9 35.899h-194.269c-13.902 0-25.949-7.907-31.913-19.465v29.084c0 23.553 19.093 42.646 42.646 42.646h230.778c23.553 0 42.646-19.093 42.646-42.646v-213.94z" fill="#ae85ea"/><ellipse cx="168.098" cy="327.291" fill="#9781dd" rx="103.724" ry="103.724" transform="matrix(.707 -.707 .707 .707 -182.195 214.725)"/><path d="m230.286 374.219c-14.221 18.816-36.785 30.975-62.188 30.975-43.025 0-77.904-34.879-77.904-77.904s34.879-77.904 77.904-77.904c25.129 0 47.479 11.898 61.724 30.367 7.738 7.779 6.882 85.177.464 94.466z" fill="#c1e5ef"/><path d="m232.278 351.724s-11.18 8.498-37.958 8.498-33.195-21.922-61.609-21.922-38.434 13.946-38.434 13.946 16.584 52.948 73.82 52.948 65.285-43.171 65.285-43.171z" fill="#96b4eb"/><path d="m168.098 223.566c-4.631 0-9.189.308-13.66.896 23.332 3.555 43.268 17.425 55.024 36.809 7.832 4.917 14.731 11.184 20.36 18.482 6.228 6.261 6.888 57.622 3.561 82.269-.806 5.973-1.845 10.384-3.097 12.196-2.124 2.81-4.437 5.467-6.915 7.962-8.923 11.247-25.393 23.013-55.273 23.013-25.679 0-43.172-10.658-54.658-22.41-4.303-4.238-8.107-8.975-11.336-14.113-19.397-11.754-33.278-31.698-36.834-55.04-.588 4.47-.896 9.029-.896 13.66 0 57.285 46.439 103.724 103.724 103.724s103.724-46.439 103.724-103.724-46.439-103.724-103.724-103.724z" fill="#8962de"/><path d="m194.462 360.221c26.674-.031 37.816-8.497 37.816-8.497l1.105 10.299c3.326-24.648 2.667-76.008-3.561-82.269-5.629-7.298-12.528-13.564-20.36-18.482 7.163 11.81 11.293 25.664 11.293 40.485 0 23.263-10.169 44.141-26.293 58.464z" fill="#a6aaed"/><path d="m168.098 405.194c57.236 0 65.285-43.171 65.285-43.171l-1.105-10.299s-11.143 8.466-37.816 8.497c-13.807 12.265-31.977 19.727-51.898 19.727-14.65 0-28.359-4.031-40.08-11.042 9.87 15.522 29.77 36.288 65.614 36.288z" fill="#8286ea"/><circle cx="167.942" cy="165.346" fill="#fff" r="16.637"/><path d="m467.51 327.29h-80.95c-11.949 0-21.463 8.727-20.865 19.137l7.094 123.405c.557 9.698 9.734 17.311 20.865 17.311h66.762c11.131 0 20.307-7.613 20.865-17.311l7.094-123.405c.598-10.41-8.916-19.137-20.865-19.137z" fill="#a1e8c3"/><path d="m467.51 327.29h-50.92c5.974 0 10.731 6.805 10.432 14.924l-3.547 96.236c-.279 7.563-4.867 13.501-10.432 13.501h-33.381c-3.328 0-6.297-2.132-8.214-5.455l1.342 23.337c.558 9.698 9.733 17.312 20.865 17.312h66.762c11.131 0 20.307-7.614 20.865-17.312l7.094-123.405c.597-10.411-8.917-19.138-20.866-19.138z" fill="#85adc2"/><path d="m490.348 410.465h-29.253c-6.24 0-11.298-5.058-11.298-11.298v-70.042c0-6.24 5.058-11.298 11.298-11.298h29.253c6.24 0 11.298 5.058 11.298 11.298v70.042c0 6.24-5.059 11.298-11.298 11.298z" fill="#d789b9"/><path d="m478.954 138.73 8.267 23.245c.354.995 1.055 1.784 1.939 2.182l20.652 9.305c2.918 1.314 2.918 5.963 0 7.278l-20.652 9.305c-.884.398-1.585 1.187-1.939 2.182l-8.267 23.245c-1.168 3.284-5.298 3.284-6.466 0l-8.267-23.245c-.354-.995-1.055-1.784-1.939-2.182l-20.652-9.305c-2.918-1.314-2.918-5.963 0-7.278l20.652-9.305c.884-.398 1.585-1.187 1.939-2.182l8.267-23.245c1.168-3.284 5.298-3.284 6.466 0z" fill="#c2b2eb"/><path d="m320.567 16.619 6.132 17.243c.262.738.782 1.323 1.438 1.619l15.319 6.902c2.164.975 2.164 4.424 0 5.399l-15.319 6.902c-.656.296-1.176.881-1.438 1.619l-6.132 17.243c-.866 2.436-3.93 2.436-4.796 0l-6.132-17.243c-.263-.738-.782-1.323-1.438-1.619l-15.32-6.902c-2.164-.975-2.164-4.423 0-5.399l15.32-6.902c.656-.296 1.176-.881 1.438-1.619l6.132-17.243c.866-2.436 3.93-2.436 4.796 0z" fill="#c2b2eb"/><g fill="#9781dd"><circle cx="445.087" cy="53.143" r="18.051"/><ellipse cx="391.918" cy="244.344" rx="7.787" ry="7.787" transform="matrix(.924 -.383 .383 .924 -63.673 168.581)"/></g></g><g><g fill="#3c122c"><path d="m283.487 118.913h-230.778c-29.064 0-52.709 23.645-52.709 52.709v245.087c0 25.139 17.694 46.211 41.28 51.447v8.599c0 11.277 9.175 20.452 20.452 20.452h18.468c11.278 0 20.452-9.175 20.452-20.452v-7.337h134.891v7.337c0 11.277 9.175 20.452 20.452 20.452h18.468c11.277 0 20.452-9.175 20.452-20.452v-8.599c23.585-5.237 41.28-26.308 41.28-51.447v-245.087c.002-29.064-23.644-52.709-52.708-52.709zm32.582 52.709v20.247h-91.189v-52.829h58.607c17.966 0 32.582 14.616 32.582 32.582zm-192.182 11.759v-44.341h88.916v52.829h-81.812c-3.918 0-7.104-3.187-7.104-7.104 0-.246-.028-.485-.037-.729.023-.216.037-.433.037-.655zm-71.178-44.341h59.101v27.923c-2.2-.881-4.593-1.379-7.104-1.379h-84.008c2.84-15.09 16.109-26.544 32.011-26.544zm-32.581 277.669v-239.048h84.579c3.917 0 7.104 3.187 7.104 7.104 0 10.576 8.604 19.181 19.181 19.181h185.078v207.716h-48.165c-15.113 0-27.409 12.296-27.409 27.409v10.221h-187.787c-17.965-.001-32.581-14.617-32.581-32.583zm60.397 60.046c0 .179-.146.325-.325.325h-18.468c-.179 0-.325-.146-.325-.325v-7.337h19.118zm193.94.325h-18.468c-.179 0-.325-.146-.325-.325v-7.337h19.117v7.337c0 .179-.146.325-.324.325zm9.022-27.789h-30.915v-10.221c0-8.454 6.878-15.333 15.333-15.333h47.393c-3.224 14.598-16.258 25.554-31.811 25.554z"/><path d="m168.098 437.053c60.524 0 109.763-49.239 109.763-109.762s-49.239-109.762-109.763-109.762c-60.523 0-109.762 49.239-109.762 109.762s49.239 109.762 109.762 109.762zm0-207.448c53.864 0 97.686 43.822 97.686 97.686s-43.822 97.686-97.686 97.686-97.686-43.822-97.686-97.686 43.822-97.686 97.686-97.686z"/><path d="m168.098 411.232c26.553 0 50.976-12.163 67.005-33.372.052-.068.102-.138.151-.208 5.614-8.125 6.124-41.257 6.147-51.218.064-28.156-2.27-45.154-6.94-50.552-16.038-20.679-40.212-32.533-66.363-32.533-46.286 0-83.942 37.656-83.942 83.942s37.656 83.941 83.942 83.941zm57.223-40.459c-13.728 18.04-34.571 28.383-57.223 28.383-30.312 0-56.281-18.874-66.825-45.478 3.869-3.336 13.341-9.339 31.438-9.339 12.64 0 20.356 4.975 28.524 10.242 8.492 5.475 18.117 11.681 33.085 11.681 15.698 0 26.458-2.745 33.116-5.332-.695 5.299-1.47 8.665-2.115 9.843zm-57.223-115.348c22.455 0 43.21 10.212 56.943 28.017.107.139.22.272.338.401 1.721 2.8 4.056 17.97 3.942 43.411-.033 7.378-.26 13.934-.601 19.594-.012.009-.024.016-.036.025-.102.073-10.409 7.312-34.363 7.312-11.413 0-18.423-4.52-26.541-9.754-8.846-5.704-18.873-12.168-35.068-12.168-17.108 0-28.341 4.756-35.077 9.157-.915-4.57-1.402-9.293-1.402-14.128 0-39.628 32.238-71.867 71.865-71.867z"/><path d="m167.942 188.022c12.503 0 22.675-10.172 22.675-22.676 0-12.503-10.172-22.675-22.675-22.675s-22.676 10.172-22.676 22.675c.001 12.503 10.173 22.676 22.676 22.676zm0-33.274c5.844 0 10.598 4.754 10.598 10.598s-4.754 10.599-10.598 10.599-10.599-4.755-10.599-10.599 4.755-10.598 10.599-10.598z"/><path d="m276.132 173.046h15.126c3.335 0 6.038-2.704 6.038-6.038s-2.704-6.038-6.038-6.038h-15.126c-3.335 0-6.038 2.704-6.038 6.038s2.703 6.038 6.038 6.038z"/><path d="m239.852 161.165h15.126c3.335 0 6.038-2.704 6.038-6.038 0-3.335-2.704-6.038-6.038-6.038h-15.126c-3.335 0-6.038 2.704-6.038 6.038 0 3.335 2.703 6.038 6.038 6.038z"/><path d="m254.978 171.811h-15.126c-3.335 0-6.038 2.704-6.038 6.038 0 3.335 2.704 6.038 6.038 6.038h15.126c3.335 0 6.038-2.704 6.038-6.038s-2.704-6.038-6.038-6.038z"/><path d="m490.348 307.763h-29.254c-7.377 0-13.891 3.76-17.731 9.463h-56.802c-9.023 0-17.569 3.572-23.449 9.799-5.234 5.543-7.884 12.639-7.462 19.979l7.094 123.405c.864 15.027 14.442 26.797 30.912 26.797h66.762c16.47 0 30.048-11.771 30.911-26.798l2.889-50.25c9.936-1.827 17.493-10.537 17.493-20.992v-70.042c-.002-11.778-9.585-21.361-21.363-21.361zm-30.488 21.362c0-.681.553-1.234 1.234-1.234h29.254c.681 0 1.234.553 1.234 1.234v70.042c0 .681-.553 1.234-1.234 1.234h-29.254c-.681 0-1.234-.553-1.234-1.234zm.557 147.955h-66.762c-5.716 0-10.569-3.511-10.818-7.825l-7.094-123.405c-.129-2.248 1.018-3.964 2.003-5.007 2.094-2.218 5.307-3.489 8.815-3.489h53.172v41.498c-3.135 3.477-7.658 5.68-12.697 5.68-9.436 0-17.113-7.677-17.113-17.113 0-3.335-2.704-6.038-6.038-6.038s-6.038 2.704-6.038 6.038c0 16.095 13.095 29.19 29.19 29.19 4.549 0 8.856-1.05 12.697-2.914v5.473c0 11.779 9.583 21.362 21.362 21.362h12.941l-2.801 48.727c-.25 4.313-5.103 7.823-10.819 7.823z"/><path d="m396.313 401.179c-3.335 0-6.038 2.704-6.038 6.038v11.403c0 3.335 2.704 6.038 6.038 6.038 3.335 0 6.038-2.704 6.038-6.038v-11.403c0-3.334-2.703-6.038-6.038-6.038z"/><path d="m420.246 441.86c-3.335 0-6.038 2.704-6.038 6.038v11.403c0 3.335 2.704 6.038 6.038 6.038 3.335 0 6.038-2.704 6.038-6.038v-11.403c.001-3.334-2.703-6.038-6.038-6.038z"/><path d="m449.796 432.489c-3.335 0-6.038 2.704-6.038 6.038v11.403c0 3.335 2.704 6.038 6.038 6.038 3.335 0 6.038-2.704 6.038-6.038v-11.403c0-3.334-2.703-6.038-6.038-6.038z"/></g><path d="m45.72 220.469c-5.558 0-10.064-4.506-10.064-10.064v-3.549c0-5.558 4.506-10.064 10.064-10.064s10.064 4.506 10.064 10.064v3.549c-.001 5.558-4.506 10.064-10.064 10.064z" fill="#fff"/><path d="m45.72 268.494c-5.558 0-10.064-4.506-10.064-10.064v-16.803c0-5.558 4.506-10.064 10.064-10.064s10.064 4.506 10.064 10.064v16.803c-.001 5.559-4.506 10.064-10.064 10.064z" fill="#fff"/><path d="m165.777 290.086c-5.104 0-9.477-3.867-10.001-9.054-.558-5.53 3.473-10.466 9.002-11.023l.101-.011c1.125-.23 1.941-.281 3.229-.271 5.558.005 10.059 4.515 10.054 10.074-.005 5.523-4.46 10.003-9.97 10.053-.368.061-.813.122-1.392.18-.344.035-.685.052-1.023.052zm-1.024-20.063c-.01.002-.02.004-.029.006.009-.001.019-.003.029-.006z" fill="#fff"/><path d="m125.007 317.332c-1.425 0-2.872-.304-4.248-.946-5.037-2.35-7.216-8.338-4.866-13.375 3.983-8.537 10.151-16.079 17.84-21.811 4.455-3.322 10.761-2.404 14.083 2.053 3.322 4.456 2.403 10.761-2.053 14.083-5.028 3.749-9.05 8.654-11.629 14.184-1.709 3.661-5.338 5.812-9.127 5.812z" fill="#fff"/></g></g></svg>