<svg id="Capa_1" enable-background="new 0 0 512 512" height="512" viewBox="0 0 512 512" width="512" xmlns="http://www.w3.org/2000/svg"><g><g><path d="m187.202 337.105v140.187c0 13.403 10.865 24.268 24.268 24.268 13.403 0 24.268-10.865 24.268-24.268v-140.187z" fill="#c49a8b"/><path d="m304.081 161.154h-185.223c-41.506 0-75.152 33.647-75.152 75.153v86.775c0 7.745 6.278 14.023 14.023 14.023h307.481c7.745 0 14.023-6.279 14.023-14.023v-86.775c.001-41.506-33.646-75.153-75.152-75.153z" fill="#faf1a9"/><g><path d="m75.741 250.709c-.458 0-.922-.032-1.39-.097-5.47-.761-9.288-5.812-8.528-11.282 1.587-11.417 6.12-22.312 13.109-31.509 3.342-4.397 9.615-5.252 14.013-1.911 4.397 3.342 5.252 9.615 1.911 14.013-4.918 6.471-8.107 14.134-9.223 22.161-.695 5.003-4.98 8.625-9.892 8.625z" fill="#fff"/></g><g><path d="m109.647 205.952c-3.85 0-7.519-2.235-9.164-5.987-2.218-5.058.084-10.956 5.143-13.174 1.583-.694 3.208-1.333 4.833-1.9 5.213-1.817 10.917.934 12.735 6.149 1.819 5.215-.934 10.917-6.148 12.736-1.138.397-2.278.845-3.389 1.332-1.307.573-2.67.844-4.01.844z" fill="#fff"/></g><ellipse cx="149.948" cy="249.13" fill="#fff" rx="19.977" ry="19.977" transform="matrix(.225 -.975 .975 .225 -126.482 339.333)"/><path d="m146.87 125.314h-56.084c-5.605 0-10.149-4.544-10.149-10.149v-16.592c0-5.605 4.544-10.149 10.149-10.149h56.083v36.89z" fill="#d789b9"/><path d="m332.593 287.409h-58.162c-6.857 0-12.416-5.559-12.416-12.416v-34.462c0-6.857 5.559-12.416 12.416-12.416h58.162c6.857 0 12.416 5.559 12.416 12.416v34.462c0 6.857-5.559 12.416-12.416 12.416z" fill="#fff"/><path d="m304.081 161.154h-46.85c34.037 0 61.63 27.593 61.63 61.63v5.331h13.732c6.857 0 12.416 5.559 12.416 12.416v34.462c0 6.857-5.559 12.415-12.416 12.415h-13.732v6.537c0 6.351-5.149 11.5-11.5 11.5h-252.156c-6.351 0-11.5-5.149-11.5-11.5v29.136c0 7.744 6.278 14.023 14.023 14.023h307.482c7.745 0 14.023-6.279 14.023-14.023v-86.775c.001-41.505-33.646-75.152-75.152-75.152z" fill="#dfb5a7"/><path d="m345.009 274.993v-34.462c0-6.857-5.559-12.416-12.416-12.416h-13.732v59.294h13.732c6.857 0 12.416-5.559 12.416-12.416z" fill="#e1bdfc"/><path d="m188.123 336.839h47.614v47.614h-47.614z" fill="#af30fa" opacity=".3"/><path d="m444.453 94.893 8.576 24.114c.367 1.032 1.094 1.851 2.011 2.264l21.424 9.653c3.027 1.364 3.027 6.186 0 7.55l-21.424 9.652c-.917.413-1.644 1.231-2.011 2.264l-8.576 24.114c-1.212 3.407-5.496 3.407-6.708 0l-8.576-24.114c-.367-1.033-1.094-1.851-2.011-2.264l-21.424-9.652c-3.027-1.364-3.027-6.186 0-7.55l21.424-9.653c.917-.413 1.644-1.231 2.011-2.264l8.576-24.114c1.212-3.406 5.496-3.406 6.708 0z" fill="#faf1a9"/><path d="m257.233 1.895 6.361 17.887c.272.766.812 1.373 1.492 1.679l15.892 7.16c2.245 1.012 2.245 4.589 0 5.6l-15.892 7.16c-.68.307-1.22.914-1.492 1.679l-6.361 17.887c-.899 2.527-4.077 2.527-4.976 0l-6.362-17.887c-.272-.766-.811-1.373-1.492-1.679l-15.892-7.16c-2.245-1.012-2.245-4.589 0-5.6l15.892-7.16c.68-.307 1.22-.914 1.492-1.679l6.362-17.887c.899-2.527 4.077-2.527 4.976 0z" fill="#faf1a9"/><g fill="#f6e06e"><circle cx="403.463" cy="23.637" r="18.726"/><ellipse cx="311.59" cy="92.338" rx="8.078" ry="8.078" transform="matrix(.584 -.812 .812 .584 54.793 291.511)"/></g></g><g fill="#3c122c"><path d="m304.082 150.715h-143.694v-62.29c0-5.766-4.674-10.44-10.44-10.44-.524 0-1.036.051-1.539.126-.504-.075-1.015-.126-1.54-.126h-56.083c-11.353 0-20.589 9.236-20.589 20.589v16.592c0 11.353 9.236 20.59 20.589 20.59h48.722v14.96h-20.651c-47.196 0-85.592 38.397-85.592 85.592v86.775c0 13.489 10.974 24.463 24.463 24.463h119.033v129.747c0 19.138 15.57 34.708 34.708 34.708s34.708-15.57 34.708-34.708v-129.748h119.033c13.489 0 24.463-10.974 24.463-24.463v-86.775c.001-47.196-38.396-85.592-85.591-85.592zm-213.005-35.841v-16.01h48.431v16.01zm-36.931 208.208v-86.775c0-35.683 29.03-64.712 64.712-64.712h20.651v53.466c-9.288 4.045-15.801 13.309-15.801 24.069 0 14.469 11.772 26.241 26.241 26.241s26.241-11.771 26.241-26.241c0-10.76-6.512-20.024-15.801-24.069v-53.466h85.666c-18.15 15.707-29.667 38.883-29.667 64.712v86.775c0 1.217.092 2.413.265 3.583h-158.924c-1.976 0-3.583-1.607-3.583-3.583zm95.802-87.665c7.561 0 13.713 6.151 13.713 13.713s-6.151 13.713-13.713 13.713-13.713-6.151-13.713-13.713 6.152-13.713 13.713-13.713zm61.522 255.703c-7.625 0-13.828-6.203-13.828-13.828v-129.747h27.655v129.747c0 7.625-6.203 13.828-13.827 13.828zm157.324-168.038c0 1.976-1.607 3.583-3.583 3.583h-124.36c-1.976 0-3.583-1.607-3.583-3.583v-86.775c0-35.683 29.03-64.712 64.713-64.712h2.101c35.682 0 64.712 29.03 64.712 64.712z"/><path d="m332.593 221.851h-58.162c-10.3 0-18.679 8.38-18.679 18.68v34.462c0 10.3 8.38 18.679 18.679 18.679h58.162c10.3 0 18.68-8.38 18.68-18.679v-34.462c0-10.3-8.38-18.68-18.68-18.68zm-3.372 12.528-23.259 16.617c-1.466 1.047-3.435 1.046-4.9 0l-23.259-16.617zm3.372 46.766h-58.162c-3.392 0-6.151-2.759-6.151-6.151v-32.022l25.5 18.218c2.911 2.08 6.322 3.12 9.733 3.12 3.41 0 6.822-1.04 9.732-3.12l25.5-18.218v32.022c0 3.391-2.76 6.151-6.152 6.151z"/><path d="m91.061 269.316c-3.459 0-6.264 2.805-6.264 6.264v11.829c0 3.459 2.805 6.264 6.264 6.264s6.264-2.805 6.264-6.264v-11.829c0-3.46-2.804-6.264-6.264-6.264z"/><path d="m121.9 286.309c-3.459 0-6.264 2.805-6.264 6.264v11.829c0 3.459 2.805 6.264 6.264 6.264s6.264-2.805 6.264-6.264v-11.829c0-3.46-2.804-6.264-6.264-6.264z"/></g></g></svg>