<svg id="Capa_1" enable-background="new 0 0 512 512" height="512" viewBox="0 0 512 512" width="512" xmlns="http://www.w3.org/2000/svg"><g><g><ellipse cx="252.5" cy="180.472" fill="#faf1a9" rx="96.07" ry="107.15"/><ellipse cx="252.5" cy="180.472" fill="#c1e5ef" rx="66.835" ry="74.543"/><path d="m252.5 73.322c-3.939 0-7.82.27-11.634.784 27.933 4.29 50.894 25.919 59.899 54.832 11.495 13.388 18.57 31.534 18.57 51.534 0 41.169-29.923 74.544-66.835 74.544-17.932 0-34.201-7.892-46.205-20.712-25.923-10.044-45.315-35.653-49.162-66.807-.46 4.254-.703 8.583-.703 12.976 0 59.177 43.012 107.15 96.07 107.15s96.07-47.973 96.07-107.15c0-59.179-43.012-107.151-96.07-107.151z" fill="#dfb5a7"/><path d="m252.5 255.015c36.912 0 66.835-33.374 66.835-74.544 0-20-7.076-38.146-18.57-51.534 2.651 8.511 4.105 17.646 4.105 27.164 0 45.718-33.229 82.78-74.22 82.78-8.534 0-16.725-1.622-24.355-4.578 12.003 12.82 28.273 20.712 46.205 20.712z" fill="#a6aaed"/><path d="m121.964 91.325h27.073v208.044h-81.115c52.142-3.673 56.402-99.488 54.042-208.044z" fill="#faf1a9"/><path d="m408.587 373.568h-317.232c-12.942 0-23.434-10.492-23.434-23.434v-44.261h364.099v44.261c.001 12.942-10.491 23.434-23.433 23.434z" fill="#faf1a9"/><path d="m319.335 305.873v29.357c0 8.796-7.131 15.927-15.927 15.927h-219.56c-8.796 0-15.927-7.131-15.927-15.927v14.904c0 12.942 10.492 23.434 23.434 23.434h317.232c12.942 0 23.434-10.491 23.434-23.434v-44.261z" fill="#dfb5a7"/><path d="m100.448 501.92h-10.279c-12.287 0-22.247-9.96-22.247-22.247v-173.8h54.774v173.8c-.001 12.287-9.961 22.247-22.248 22.247z" fill="#fff"/><path d="m409.773 501.92h-10.279c-12.287 0-22.247-9.96-22.247-22.247v-173.8h54.774v173.8c0 12.287-9.961 22.247-22.248 22.247z" fill="#fff"/><circle cx="135.5" cy="93.732" fill="#f6e06e" r="21.541"/><path d="m381.239 91.325h-27.073v208.044h81.115c-52.141-3.673-56.402-99.488-54.042-208.044z" fill="#faf1a9"/><circle cx="367.703" cy="93.732" fill="#f6e06e" r="21.541"/><path d="m442.231 324.125h-379.463c-10.08 0-18.252-8.172-18.252-18.252 0-10.08 8.172-18.252 18.252-18.252h379.463c10.08 0 18.252 8.172 18.252 18.252 0 10.08-8.172 18.252-18.252 18.252z" fill="#fff"/><path d="m188.487 423.728v66.659c0 6.37 5.164 11.533 11.533 11.533h12.114c6.37 0 11.533-5.164 11.533-11.533v-6.004h57.743v6.004c0 6.37 5.164 11.533 11.533 11.533h12.036c6.37 0 11.533-5.164 11.533-11.533v-66.659z" fill="#faf1a9"/><path d="m306.283 443.559h-107.566c-10.952 0-19.831-8.879-19.831-19.831 0-10.952 8.879-19.831 19.831-19.831h107.566c10.953 0 19.831 8.879 19.831 19.831 0 10.952-8.879 19.831-19.831 19.831z" fill="#d789b9"/><path d="m281.124 448.965c-2.854 10.325-12.324 17.9-23.558 17.87l-33.913-.093c-6.188-.017-11.213 4.995-11.213 11.183v2.253c0 5.618-3.869 10.172-8.641 10.172h-9.077c-2.453 0-4.661-1.208-6.235-3.14v3.177c0 6.37 5.163 11.533 11.533 11.533h12.114c6.37 0 11.533-5.164 11.533-11.533v-6.004h57.743v6.004c0 6.37 5.163 11.533 11.533 11.533h12.036c6.37 0 11.533-5.164 11.533-11.533v-41.422z" fill="#dfb5a7"/><path d="m289.204 421.387c0 6.359-2.883 11.924-7.194 14.985v2.513h37.046c4.256-3.59 6.987-8.931 7.058-14.918.131-11.039-9.275-20.07-20.315-20.07h-31.454c8.206 0 14.859 7.83 14.859 17.49z" fill="#c668b9"/><path d="m67.922 324.125h54.774v40.784h-54.774z" fill="#e1bdfc"/><path d="m377.247 324.125h54.774v40.784h-54.774z" fill="#e1bdfc"/><path d="m477.445 95.627 8.28 23.282c.354.997 1.056 1.787 1.942 2.186l20.685 9.319c2.922 1.317 2.922 5.973 0 7.29l-20.685 9.32c-.885.399-1.587 1.189-1.942 2.186l-8.28 23.282c-1.17 3.289-5.307 3.289-6.476 0l-8.28-23.282c-.354-.997-1.056-1.787-1.942-2.186l-20.685-9.32c-2.922-1.317-2.922-5.973 0-7.29l20.685-9.319c.886-.399 1.587-1.189 1.942-2.186l8.28-23.282c1.169-3.289 5.306-3.289 6.476 0z" fill="#faf1a9"/><path d="m73.873 1.83 6.142 17.27c.263.74.784 1.325 1.44 1.622l15.344 6.913c2.168.977 2.168 4.431 0 5.407l-15.344 6.913c-.657.296-1.177.882-1.44 1.621l-6.142 17.27c-.868 2.44-3.936 2.44-4.804 0l-6.142-17.27c-.263-.739-.784-1.325-1.441-1.621l-15.344-6.913c-2.168-.977-2.168-4.431 0-5.407l15.344-6.913c.657-.296 1.178-.882 1.441-1.622l6.142-17.27c.867-2.44 3.936-2.44 4.804 0z" fill="#faf1a9"/><g fill="#f6e06e"><ellipse cx="19.536" cy="127.582" rx="18.08" ry="18.08" transform="matrix(.23 -.973 .973 .23 -109.121 117.284)"/><circle cx="419.663" cy="38.137" r="7.799"/></g></g><g><g fill="#3c122c"><path d="m252.5 261.063c40.188 0 72.883-36.153 72.883-80.591s-32.695-80.591-72.883-80.591c-40.187 0-72.883 36.153-72.883 80.591s32.695 80.591 72.883 80.591zm0-149.087c33.518 0 60.787 30.727 60.787 68.496 0 37.768-27.269 68.496-60.787 68.496s-60.787-30.727-60.787-68.496 27.268-68.496 60.787-68.496z"/><path d="m442.231 277.541h-27.358c-20.882-25.772-24.692-90.48-23.943-162.381 5.206-5.638 8.394-13.167 8.394-21.428 0-17.436-14.185-31.621-31.62-31.621-17.436 0-31.622 14.185-31.622 31.621 0 8.053 3.03 15.408 8.005 20.997v6.544c-18.455-34.69-52.597-58.03-91.587-58.03-40.289 0-75.406 24.918-93.383 61.531v-10.044c4.975-5.589 8.005-12.944 8.005-20.997 0-17.436-14.186-31.621-31.622-31.621s-31.621 14.185-31.621 31.621c0 8.261 3.188 15.79 8.394 21.428.748 71.891-3.056 136.599-23.93 162.381h-25.574c-15.622 0-28.332 12.71-28.332 28.332 0 13.941 10.125 25.555 23.405 27.894v145.906c0 17.825 14.502 32.327 32.327 32.327h10.279c17.826 0 32.327-14.502 32.327-32.327v-96.025h234.392v96.025c0 17.825 14.502 32.327 32.327 32.327h10.28c17.826 0 32.327-14.502 32.327-32.327v-145.469h.13c15.622 0 28.332-12.71 28.332-28.332s-12.71-28.332-28.332-28.332zm-51.222 0h-26.763v-152.381c2.106.237 4.32.255 6.435.048-.187 39.327 1.17 79.72 7.242 111.369 3.205 16.704 7.519 30.205 13.086 40.964zm-23.306-195.27c6.319 0 11.461 5.141 11.461 11.461s-5.141 11.461-11.461 11.461c-6.321 0-11.462-5.141-11.462-11.461 0-6.319 5.142-11.461 11.462-11.461zm-23.617 195.27h-32.133c13.091-9.811 24.098-22.766 32.133-37.871zm-91.586-194.139c47.415 0 85.99 43.545 85.99 97.07s-38.575 97.069-85.99 97.069-85.99-43.545-85.99-97.069 38.575-97.07 85.99-97.07zm-59.453 194.139h-33.93v-41.372c8.155 16.61 19.837 30.811 33.93 41.372zm-57.547-195.27c6.321 0 11.462 5.141 11.462 11.461s-5.141 11.461-11.462 11.461c-6.32 0-11.461-5.141-11.461-11.461 0-6.319 5.141-11.461 11.461-11.461zm-10.22 154.306c6.072-31.648 7.43-72.042 7.243-111.368 2.114.206 4.328.188 6.434-.049v152.381h-26.766c5.568-10.757 9.883-24.258 13.089-40.964zm-24.832 255.263h-10.279c-6.709 0-12.168-5.458-12.168-12.168v-145.467h34.614v145.468c.001 6.709-5.458 12.167-12.167 12.167zm32.327-128.352v-29.283h234.392v29.283zm289.166 116.185c0 6.709-5.458 12.168-12.168 12.168h-10.28c-6.709 0-12.168-5.458-12.168-12.168v-145.468h34.615v145.468zm20.29-165.628h-379.462c-4.506 0-8.172-3.666-8.172-8.172s3.666-8.172 8.172-8.172h379.462c4.506 0 8.172 3.666 8.172 8.172s-3.666 8.172-8.172 8.172z"/><path d="m268.377 341.248h-32.585c-3.34 0-6.048 2.708-6.048 6.048s2.708 6.048 6.048 6.048h32.585c3.34 0 6.048-2.708 6.048-6.048s-2.708-6.048-6.048-6.048z"/><path d="m306.283 393.817h-107.567c-16.493 0-29.911 13.418-29.911 29.911 0 8.659 3.702 16.466 9.602 21.933v44.726c0 11.918 9.695 21.613 21.612 21.613h12.115c10.525 0 19.316-7.562 21.227-17.537h38.355c1.911 9.975 10.703 17.537 21.228 17.537h12.037c11.918 0 21.613-9.695 21.613-21.613v-44.726c5.9-5.467 9.601-13.274 9.601-21.933-.001-16.493-13.419-29.911-29.912-29.911zm-107.567 20.16h107.567c5.377 0 9.751 4.375 9.751 9.751 0 5.377-4.375 9.752-9.751 9.752h-107.567c-5.377 0-9.751-4.374-9.751-9.752 0-5.377 4.375-9.751 9.751-9.751zm107.717 76.41c0 .801-.652 1.453-1.453 1.453h-12.037c-.801 0-1.454-.652-1.454-1.453v-6.004c0-5.567-4.513-10.08-10.08-10.08h-57.743c-5.567 0-10.08 4.513-10.08 10.08v6.004c0 .801-.652 1.453-1.453 1.453h-12.113c-.801 0-1.453-.652-1.453-1.453v-36.752c.05.001.1.004.15.004h107.567c.05 0 .099-.003.15-.004v36.752z"/></g><path d="m240.308 145.077c-4.008 0-7.799-2.407-9.37-6.358-2.056-5.173.471-11.034 5.643-13.091 1.129-.449 2.3-.858 3.482-1.216 5.329-1.617 10.955 1.396 12.569 6.724s-1.397 10.955-6.724 12.569c-.642.194-1.274.415-1.879.656-1.222.486-2.482.716-3.721.716z" fill="#fff"/><path d="m213.253 190.551c-5.567 0-10.08-4.513-10.08-10.08 0-11.022 2.634-21.739 7.618-30.991 2.639-4.902 8.753-6.734 13.654-4.094s6.734 8.753 4.094 13.654c-3.406 6.324-5.206 13.734-5.206 21.431 0 5.568-4.513 10.08-10.08 10.08z" fill="#fff"/></g></g></svg>