<svg id="Capa_1" enable-background="new 0 0 512 512" height="512" viewBox="0 0 512 512" width="512" xmlns="http://www.w3.org/2000/svg"><g><g><g fill="#a1e8c3"><path d="m169.77 501.954h-21.65c-6.726 0-12.179-5.452-12.179-12.179v-21.65c0-6.726 5.453-12.179 12.179-12.179h21.65c6.726 0 12.179 5.453 12.179 12.179v21.65c-.001 6.727-5.453 12.179-12.179 12.179z"/><path d="m351.5 501.954h-21.65c-6.726 0-12.179-5.452-12.179-12.179v-21.65c0-6.726 5.453-12.179 12.179-12.179h21.65c6.726 0 12.179 5.453 12.179 12.179v21.65c0 6.727-5.452 12.179-12.179 12.179z"/></g><path d="m357.072 468.792h-214.524c-15.389 0-27.865-12.475-27.865-27.865v-322.951c0-28.719 23.281-51.999 51.999-51.999h166.254c28.719 0 51.999 23.281 51.999 51.999v322.951c.001 15.39-12.474 27.865-27.863 27.865z" fill="#ccf3e2"/><path d="m120.471 207.557h257.892v27.169h-257.892z" fill="#a1e8c3"/><path d="m332.937 65.977h-45.242c23.748 0 42.999 19.251 42.999 42.999v98.581h47.669v27.169h-47.669v152.81c0 12.725-10.316 23.041-23.041 23.041h-169.928c-12.725 0-23.042-10.316-23.042-23.041v53.392c0 15.389 12.475 27.864 27.864 27.864h214.524c15.389 0 27.865-12.475 27.865-27.864v-322.952c0-28.718-23.281-51.999-51.999-51.999z" fill="#b1b6e1"/><path d="m330.694 207.556h47.669v27.169h-47.669z" fill="#85adc2"/><path d="m320.066 371.809h-40.65c-4.209 0-7.622-3.412-7.622-7.622v-66.009c0-4.209 3.412-7.622 7.622-7.622h40.65c4.209 0 7.622 3.412 7.622 7.622v66.009c0 4.21-3.413 7.622-7.622 7.622z" fill="#fff"/><path d="m274.959 271.3 6.111 7.885 9.96-.564c3.077-.174 5.017 3.255 3.284 5.804l-5.611 8.248 3.614 9.298c1.116 2.872-1.546 5.778-4.505 4.917l-9.578-2.788-7.727 6.31c-2.387 1.949-5.973.316-6.068-2.765l-.309-9.971-8.389-5.398c-2.591-1.668-2.146-5.583.754-6.626l9.388-3.375 2.542-9.647c.785-2.978 4.646-3.764 6.534-1.328z" fill="#f6e06e"/><ellipse cx="282.493" cy="167.176" fill="#96b4eb" rx="12.472" ry="12.472" transform="matrix(.707 -.707 .707 .707 -35.471 248.717)"/><circle cx="323.992" cy="138.998" fill="#d789b9" r="12.472"/><path d="m144.301 174.183v-29.645c0-6.8 5.512-12.312 12.312-12.312 6.8 0 12.312 5.512 12.312 12.312v29.645c0 6.8-5.512 12.312-12.312 12.312-6.799.001-12.312-5.512-12.312-12.312z" fill="#f6e06e"/><path d="m144.301 302.397v-29.645c0-6.8 5.512-12.312 12.312-12.312 6.8 0 12.312 5.512 12.312 12.312v29.645c0 6.8-5.512 12.312-12.312 12.312-6.799.001-12.312-5.512-12.312-12.312z" fill="#f6e06e"/><path d="m446.79 2.459 8.252 23.204c.353.993 1.053 1.781 1.935 2.178l20.616 9.288c2.913 1.312 2.913 5.953 0 7.265l-20.616 9.288c-.883.398-1.582 1.185-1.935 2.178l-8.252 23.204c-1.166 3.278-5.289 3.278-6.455 0l-8.252-23.204c-.353-.993-1.053-1.781-1.936-2.178l-20.616-9.288c-2.912-1.312-2.912-5.953 0-7.265l20.616-9.288c.883-.398 1.582-1.185 1.936-2.178l8.252-23.204c1.166-3.279 5.289-3.279 6.455 0z" fill="#ccf3e2"/><path d="m34.31 126.291 6.121 17.212c.262.737.781 1.321 1.436 1.616l15.292 6.89c2.161.973 2.161 4.416 0 5.389l-15.292 6.89c-.655.295-1.174.879-1.436 1.616l-6.121 17.212c-.865 2.432-3.923 2.432-4.788 0l-6.122-17.212c-.262-.737-.781-1.321-1.436-1.616l-15.292-6.89c-2.16-.974-2.16-4.416 0-5.389l15.292-6.89c.655-.295 1.174-.879 1.436-1.616l6.121-17.212c.865-2.432 3.924-2.432 4.789 0z" fill="#ccf3e2"/><g fill="#a1e8c3"><ellipse cx="68.349" cy="51.007" rx="18.019" ry="18.019" transform="matrix(.23 -.973 .973 .23 3.003 105.809)"/><path d="m506.948 132.227c0 4.293-3.48 7.773-7.773 7.773s-7.773-3.48-7.773-7.773 3.48-7.773 7.773-7.773 7.773 3.48 7.773 7.773z"/></g></g><g><g fill="#3c122c"><path d="m332.937 55.931h-166.254c-34.212 0-62.045 27.833-62.045 62.045v322.951c0 14.932 8.68 27.871 21.257 34.048v14.8c0 12.255 9.97 22.225 22.225 22.225h21.65c12.254 0 22.225-9.97 22.225-22.225v-10.937h115.632v10.937c0 12.255 9.969 22.225 22.224 22.225h21.651c12.254 0 22.225-9.97 22.225-22.225v-14.8c12.577-6.177 21.257-19.116 21.257-34.048v-322.951c-.001-34.212-27.835-62.045-62.047-62.045zm-208.208 161.51h250.162v12.862h-250.162zm41.954-141.418h166.255c23.133 0 41.954 18.82 41.954 41.953v87.41h-250.163v-87.41c0-23.133 18.821-41.953 41.954-41.953zm5.219 413.752c0 1.176-.956 2.133-2.133 2.133h-21.65c-1.176 0-2.133-.957-2.133-2.133v-10.937h25.915v10.937zm179.599 2.133h-21.651c-1.175 0-2.132-.957-2.132-2.133v-10.937h25.915v10.937c0 1.176-.956 2.133-2.132 2.133zm5.571-33.162h-214.524c-9.825 0-17.819-7.994-17.819-17.819v-198.568h250.162v198.568c0 9.826-7.994 17.819-17.819 17.819z"/><path d="m320.066 284.529h-19.345c.546-2.333.232-4.816-1-6.995-1.84-3.252-5.281-5.143-9.033-4.93l-6.796.385-4.169-5.381c-.001 0-.001-.001-.001-.001-2.291-2.953-5.992-4.325-9.649-3.579-3.661.746-6.527 3.454-7.478 7.066l-1.734 6.582-6.405 2.302c-3.516 1.264-5.964 4.355-6.387 8.068s1.267 7.275 4.409 9.298l5.724 3.684.211 6.803c.116 3.735 2.3 7.018 5.7 8.567.54.246 1.094.427 1.653.571v47.216c0 7.527 6.123 13.65 13.649 13.65h40.65c7.527 0 13.649-6.123 13.649-13.65v-66.008c.001-7.524-6.122-13.648-13.648-13.648zm-57.129 5.212 4.984-1.791c1.867-.672 3.284-2.218 3.79-4.137l1.35-5.122 3.243 4.186c1.216 1.569 3.126 2.445 5.105 2.326l5.288-.299-2.978 4.379c-1.115 1.64-1.353 3.724-.635 5.573l1.919 4.937-5.086-1.48c-1.906-.554-3.961-.136-5.497 1.119l-4.103 3.35-.164-5.294c-.062-1.983-1.095-3.808-2.763-4.882zm58.723 74.446c0 .879-.715 1.595-1.594 1.595h-40.65c-.879 0-1.594-.715-1.594-1.595v-51.968l1.769-1.445 6.537 1.902c3.587 1.043 7.385-.02 9.91-2.775 2.523-2.755 3.25-6.63 1.897-10.113l-1.245-3.204h23.376c.879 0 1.594.715 1.594 1.594z"/><path d="m323.992 157.497c10.201 0 18.5-8.299 18.5-18.5s-8.299-18.499-18.5-18.499-18.5 8.299-18.5 18.499c0 10.202 8.299 18.5 18.5 18.5zm0-24.943c3.553 0 6.444 2.891 6.444 6.444s-2.891 6.445-6.444 6.445-6.445-2.891-6.445-6.445 2.892-6.444 6.445-6.444z"/><path d="m282.493 185.675c10.201 0 18.5-8.299 18.5-18.5s-8.299-18.5-18.5-18.5-18.5 8.299-18.5 18.5 8.299 18.5 18.5 18.5zm0-24.944c3.553 0 6.444 2.891 6.444 6.445 0 3.553-2.891 6.445-6.444 6.445s-6.445-2.891-6.445-6.445 2.891-6.445 6.445-6.445z"/><path d="m308.518 323.284h-17.553c-3.329 0-6.028 2.699-6.028 6.028s2.699 6.027 6.028 6.027h17.553c3.329 0 6.027-2.699 6.027-6.027s-2.698-6.028-6.027-6.028z"/><path d="m308.518 344.027h-17.553c-3.329 0-6.028 2.699-6.028 6.028s2.699 6.028 6.028 6.028h17.553c3.329 0 6.027-2.699 6.027-6.028s-2.698-6.028-6.027-6.028z"/><path d="m156.614 192.523c10.113 0 18.34-8.227 18.34-18.34v-29.644c0-10.113-8.227-18.34-18.34-18.34s-18.341 8.228-18.341 18.34v29.644c0 10.113 8.228 18.34 18.341 18.34zm-6.285-47.984c0-3.465 2.82-6.285 6.286-6.285 3.465 0 6.285 2.82 6.285 6.285v29.644c0 3.465-2.82 6.285-6.285 6.285-3.466 0-6.286-2.819-6.286-6.285z"/><path d="m156.614 254.413c-10.113 0-18.341 8.227-18.341 18.34v29.644c0 10.113 8.228 18.34 18.341 18.34s18.34-8.227 18.34-18.34v-29.644c0-10.113-8.227-18.34-18.34-18.34zm6.285 47.984c0 3.466-2.82 6.285-6.285 6.285-3.466 0-6.286-2.819-6.286-6.285v-29.644c0-3.465 2.82-6.285 6.286-6.285 3.465 0 6.285 2.819 6.285 6.285z"/><path d="m340.676 392.647c-3.329 0-6.028 2.699-6.028 6.028v11.383c0 3.329 2.699 6.028 6.028 6.028s6.028-2.699 6.028-6.028v-11.383c-.001-3.329-2.7-6.028-6.028-6.028z"/><path d="m313.132 414.78c-3.329 0-6.028 2.699-6.028 6.028v11.383c0 3.329 2.699 6.027 6.028 6.027s6.027-2.699 6.027-6.027v-11.383c0-3.329-2.698-6.028-6.027-6.028z"/><path d="m239.231 394.299c-3.329 0-6.028 2.699-6.028 6.028v11.383c0 3.329 2.699 6.028 6.028 6.028s6.028-2.699 6.028-6.028v-11.383c0-3.329-2.699-6.028-6.028-6.028z"/></g><path d="m240.429 109.817h-30.871c-5.522 0-10-4.477-10-10s4.478-10 10-10h30.871c5.522 0 10 4.477 10 10s-4.478 10-10 10z" fill="#fff"/><path d="m177.124 109.817h-8.195c-5.523 0-10-4.477-10-10s4.477-10 10-10h8.195c5.522 0 10 4.477 10 10s-4.478 10-10 10z" fill="#fff"/></g></g></svg>