<svg id="Capa_1" enable-background="new 0 0 512 512" height="512" viewBox="0 0 512 512" width="512" xmlns="http://www.w3.org/2000/svg"><g><g><path d="m435.981 397.303h-139.314v-66.728h-65.266v-73.832h-61.692v-60.893h-149.918v305.686l416.19.322z" fill="#faf1a9"/><path d="m19.791 455.725h282.773v45.92h-282.773z" fill="#dfb5a7"/><path d="m386.091 403.816h49.89v93.186h-49.89z" fill="#dfb5a7"/><g fill="#e8a284"><path d="m437.795 407.219h-138.289c-7.525 0-13.625-6.1-13.625-13.625v-1.124c0-7.525 6.1-13.625 13.625-13.625h138.289c7.525 0 13.625 6.1 13.625 13.625v1.124c0 7.525-6.1 13.625-13.625 13.625z"/><path d="m234.452 276.602h-61.712c-7.272 0-13.166-5.895-13.166-13.166v-2.042c0-7.271 5.895-13.166 13.166-13.166h61.712c7.272 0 13.166 5.895 13.166 13.166v2.042c0 7.272-5.894 13.166-13.166 13.166z"/><path d="m295.397 341.774h-61.712c-7.272 0-13.166-5.895-13.166-13.166v-2.043c0-7.271 5.895-13.166 13.166-13.166h61.712c7.272 0 13.166 5.895 13.166 13.166v2.043c0 7.271-5.895 13.166-13.166 13.166z"/><path d="m437.795 469.913h-138.289c-7.525 0-13.625-6.1-13.625-13.625v-1.124c0-7.525 6.1-13.625 13.625-13.625h138.289c7.525 0 13.625 6.1 13.625 13.625v1.124c0 7.525-6.1 13.625-13.625 13.625z"/><path d="m167.672 210.038h-143.139c-7.392 0-13.385-5.993-13.385-13.385v-1.605c0-7.392 5.993-13.385 13.385-13.385h143.139c7.392 0 13.385 5.993 13.385 13.385v1.605c0 7.392-5.993 13.385-13.385 13.385z"/></g><path d="m320.166 192.597c-4.041 0-8.082-1.542-11.166-4.625l-89.029-89.029c-4.801-4.801-11.185-7.445-17.975-7.445h-176.195c-8.721 0-15.791-7.07-15.791-15.791s7.07-15.791 15.791-15.791h176.196c15.225 0 29.539 5.93 40.306 16.695l89.029 89.029c6.167 6.167 6.167 16.164 0 22.331-3.083 3.084-7.125 4.626-11.166 4.626z" fill="#f6e06e"/><path d="m434.925 290.381h-11.786c-9.11 0-16.496-7.385-16.496-16.496v-.647c0-9.11 7.385-16.495 16.496-16.495h11.786c9.11 0 16.496 7.385 16.496 16.495v.647c-.001 9.11-7.386 16.496-16.496 16.496z" fill="#f6e06e"/><path d="m128.424 497.002h-14.583c-14.423 0-26.115-11.692-26.115-26.116v-31.921c0-4.847 3.93-8.777 8.777-8.777h49.26c4.847 0 8.777 3.93 8.777 8.777v31.921c-.001 14.424-11.693 26.116-26.116 26.116z" fill="#c49a8b"/><path d="m145.762 430.188h-19.392c3.228 0 5.844 2.616 5.844 5.844v21.255c0 9.604-7.786 17.39-17.39 17.39h-9.71c-9.604 0-17.389-7.786-17.389-17.39v13.599c0 14.423 11.692 26.115 26.115 26.115h14.583c14.423 0 26.116-11.692 26.116-26.115v-31.921c0-4.847-3.929-8.777-8.777-8.777z" fill="#b2748a"/><path d="m75.13 308.657c-10.364-18.781-10.005-34.927 3.243-40.045 8.781-3.392 25.349 2.48 40.516 17.648 15.168 15.168 4.387 34.456-5.655 44.498-10.042 10.043-31.166-9.53-38.104-22.101z" fill="#a1e8c3"/><path d="m84.975 401.685c-14.477-5.054-21.989-13.822-17.377-22.866 3.057-5.995 14.678-10.773 29.99-9.934 15.311.839 18.773 16.251 18.218 26.388-.556 10.137-21.14 9.795-30.831 6.412z" fill="#a1e8c3"/><path d="m149.879 331.667c19.016-3.464 32.598 1.356 32.981 13.935.254 8.337-9.671 20.634-27.059 29.151-17.387 8.517-30.521-5.951-36.036-17.211-5.516-11.261 17.385-23.557 30.114-25.875z" fill="#a1e8c3"/><path d="m19.791 209.171h149.918v23.916h-149.918z" fill="#dfb5a7"/><path d="m233.426 297.296h-39.993c-11.429 0-20.693-9.265-20.693-20.693h60.687v20.693z" fill="#dfb5a7"/><path d="m292.088 364.47h-39.993c-11.429 0-20.693-9.265-20.693-20.693h60.687v20.693z" fill="#dfb5a7"/><path d="m479.131 2.582 8.223 23.121c.352.99 1.049 1.774 1.928 2.171l20.542 9.255c2.902 1.307 2.902 5.931 0 7.239l-20.542 9.255c-.879.396-1.577 1.181-1.928 2.171l-8.223 23.121c-1.162 3.267-5.27 3.267-6.431 0l-8.223-23.121c-.352-.99-1.049-1.774-1.929-2.171l-20.542-9.255c-2.902-1.307-2.902-5.931 0-7.239l20.542-9.255c.88-.396 1.577-1.181 1.929-2.171l8.223-23.121c1.161-3.267 5.269-3.267 6.431 0z" fill="#faf1a9"/><path d="m413.422 133.338 6.099 17.15c.261.734.778 1.316 1.43 1.61l15.238 6.865c2.153.97 2.153 4.4 0 5.37l-15.238 6.865c-.652.294-1.169.876-1.43 1.61l-6.099 17.15c-.862 2.423-3.909 2.423-4.771 0l-6.099-17.15c-.261-.734-.778-1.316-1.43-1.61l-15.238-6.865c-2.153-.97-2.153-4.4 0-5.37l15.238-6.865c.652-.294 1.169-.876 1.43-1.61l6.099-17.15c.862-2.423 3.909-2.423 4.771 0z" fill="#faf1a9"/><ellipse cx="292.369" cy="30.549" fill="#f6e06e" rx="17.954" ry="17.955" transform="matrix(.19 -.982 .982 .19 206.906 311.812)"/><circle cx="386.487" cy="83.796" fill="#f6e06e" r="7.745"/></g><g><g fill="#3c122c"><path d="m461.43 273.885v-.646c0-14.615-11.89-26.506-26.506-26.506h-11.786c-14.616 0-26.506 11.891-26.506 26.506v.646c0 13.27 9.803 24.292 22.547 26.209v72.744h-115.206v-27.108c6.273-3.155 10.596-9.636 10.596-17.122v-2.043c0-6.353-3.119-11.978-7.892-15.469v-112.292c4.019 2.475 8.651 3.802 13.489 3.802 6.893 0 13.372-2.684 18.244-7.557 10.059-10.059 10.059-26.427 0-36.488l-89.029-89.029c-12.657-12.656-29.485-19.626-47.384-19.626h-176.196c-14.227.001-25.801 11.575-25.801 25.801 0 8.177 3.828 15.473 9.781 20.203v86.584c-2.886 3.386-4.639 7.765-4.639 12.553v1.606c0 4.788 1.753 9.167 4.639 12.553v292.33c0 5.525 4.477 10.006 10.002 10.01l416.19.322h.008c2.653 0 5.199-1.054 7.075-2.929 1.879-1.878 2.935-4.425 2.935-7.081v-27.755c6.738-3.113 11.435-9.918 11.435-17.815v-1.124c0-7.897-4.697-14.702-11.435-17.816v-25.94c6.738-3.113 11.435-9.918 11.435-17.815v-1.124c0-10.351-8.058-18.836-18.227-19.56v-72.868c12.59-2.051 22.231-12.997 22.231-26.156zm-44.778 0v-.646c0-3.577 2.91-6.486 6.486-6.486h11.786c3.576 0 6.486 2.909 6.486 6.486v.646c0 3.577-2.91 6.486-6.486 6.486h-11.786c-3.576 0-6.486-2.91-6.486-6.486zm-315.937-172.377v74.149h-70.914v-74.149zm138.717 205.885v-25.464c8.161-2.201 14.192-9.646 14.192-18.493v-2.042c0-10.572-8.6-19.172-19.172-19.172h-14.597v-129.238l66.801 66.8v127.609zm-39.596-65.172h-24.121v-27.946c6.684-3.063 11.348-9.801 11.348-17.622v-1.606c0-10.692-8.699-19.39-19.391-19.39h-46.937v-74.149h79.101zm-175.303-38.189c-4.069 0-7.379-3.31-7.379-7.378v-1.606c0-4.068 3.31-7.378 7.379-7.378h143.139c4.069 0 7.379 3.31 7.379 7.378v1.606c0 4.069-3.31 7.378-7.379 7.378zm141.046 57.362c0-3.948 3.212-7.16 7.16-7.16h61.713c3.948 0 7.16 3.212 7.16 7.16v2.042c0 3.948-3.212 7.16-7.16 7.16h-61.713c-3.948 0-7.16-3.212-7.16-7.16zm66.639 58.163c1.038-.152 2.013-.152 3.004-.152h60.174c3.948 0 7.16 3.212 7.16 7.16v2.043c0 3.947-3.212 7.159-7.16 7.159h-61.712c-3.948 0-7.16-3.212-7.16-7.159v-2.043c0-3.446 2.447-6.33 5.694-7.008zm-206.417-249.63h176.196c12.552 0 24.352 4.888 33.228 13.763l89.029 89.028c2.254 2.254 2.254 5.922 0 8.176-1.091 1.092-2.543 1.693-4.087 1.693s-2.996-.601-4.088-1.694l-89.029-89.028c-6.692-6.691-15.589-10.377-25.053-10.377h-176.196c-3.187 0-5.781-2.593-5.781-5.781 0-3.187 2.593-5.78 5.781-5.78zm4 146.117h133.901v28.449c-6.026 3.236-10.135 9.595-10.135 16.901v2.042c0 10.572 8.6 19.172 19.172 19.172h54.681v25.856c-7.501 2.604-12.908 9.725-12.908 18.101v2.043c0 10.571 8.601 19.171 19.172 19.171h58.276v26.571c-7.09 2.963-12.086 9.967-12.086 18.119v1.124c0 10.775 8.729 19.544 19.486 19.624v22.322c-10.757.08-19.486 8.849-19.486 19.625v1.124c0 10.775 8.729 19.544 19.486 19.624v15.831l-146.438-.113c4.75-5.601 7.623-12.84 7.623-20.742v-31.921c0-8.152-6.632-14.783-14.783-14.783h-14.305v-43.476c3.314 1.624 7.582 2.98 12.639 2.98 4.266 0 9.086-.963 14.346-3.54 18.551-9.087 30.776-23.044 30.42-34.728-.184-6.065-2.674-11.205-7.202-14.866-7.015-5.674-18.686-7.375-32.858-4.795-5.229.953-11.514 3.516-17.345 7.047v-16.348c.628-1.841 1.114-3.69 1.43-5.525 1.842-10.698-1.529-20.698-9.751-28.918-16.019-16.021-34.877-23.659-46.928-19.004-6.21 2.398-10.647 6.84-12.832 12.845-3.385 9.301-1.078 21.982 6.494 35.705v-.001c6.162 11.166 22.339 24.925 35.7 26.816 1.107.156 2.152.229 3.138.229.973 0 1.867-.091 2.727-.217v28.872c-3.336-2.297-7.735-4.052-13.521-4.37-16.842-.928-31.172 4.383-35.668 13.203-2.393 4.693-2.659 9.664-.768 14.375 2.864 7.135 10.304 12.976 21.516 16.891h.001c3.612 1.26 8.336 1.943 13.246 1.943 5.235 0 10.674-.783 15.195-2.465v17.348h-14.934c-8.151 0-14.783 6.632-14.783 14.783v31.921c0 7.879 2.856 15.099 7.58 20.694l-59.499-.046v-275.493zm396.17 197.181v22.307h-114.599v-22.307zm19.443 43.063c0 4.201-3.418 7.619-7.619 7.619h-138.289c-4.202 0-7.619-3.418-7.619-7.619v-1.124c0-4.201 3.418-7.62 7.619-7.62h138.289c4.201 0 7.619 3.419 7.619 7.62zm-370.748-176.327c.991-2.723 2.912-4.603 5.872-5.747.889-.343 2.02-.526 3.358-.526 6.693 0 18.53 4.6 30.748 16.82 5.419 5.418 7.574 11.604 6.406 18.385-.981 5.7-4.319 11.743-9.157 16.582-.398.398-1.456 1.458-4.637 1.005-9.013-1.275-22.306-12.462-26.866-20.725 0 0 0 0 0-.001-5.787-10.485-7.873-19.887-5.724-25.793zm76.289 57.615c3.619-.66 7.029-.983 10.112-.983 5.747 0 10.353 1.125 13.04 3.299 1.798 1.454 2.671 3.327 2.749 5.893.145 4.755-7.287 15.536-23.698 23.574-6.053 2.966-11.772 3.059-16.995.272-4.401-2.347-8.408-6.721-10.993-11.998-.166-.339-.608-1.242.477-3.392 3.546-7.025 17.106-15.171 25.308-16.665zm-5.193 98.618c1.528 0 2.771 1.243 2.771 2.771v31.921c0 11.088-9.021 20.11-20.109 20.11h-14.583c-11.088 0-20.109-9.022-20.109-20.11v-31.921c0-1.528 1.243-2.771 2.771-2.771zm-73.135-50.203c-.592-1.477-.494-2.848.321-4.445 1.6-3.138 10.436-7.431 24.31-6.665 4.951.271 8.492 2.211 10.825 5.932 2.013 3.21 3.025 7.654 2.776 12.194-.028.508-.685 1.052-1.232 1.417-4.936 3.307-16.79 3.643-22.674 1.59h.001c-7.503-2.62-12.859-6.367-14.327-10.023zm238.745 105.761v-15.833h114.599v15.921zm134.042-99.282v1.124c0 4.202-3.418 7.619-7.619 7.619h-138.289c-4.202 0-7.619-3.417-7.619-7.619v-1.124c0-4.201 3.418-7.62 7.619-7.62h138.289c4.201 0 7.619 3.418 7.619 7.62z"/><path d="m242.956 406.458c3.317 0 6.006-2.689 6.006-6.006v-11.341c0-3.317-2.689-6.006-6.006-6.006s-6.006 2.689-6.006 6.006v11.341c0 3.317 2.69 6.006 6.006 6.006z"/><path d="m222.119 443.281c3.317 0 6.006-2.689 6.006-6.006v-11.342c0-3.317-2.689-6.006-6.006-6.006s-6.006 2.689-6.006 6.006v11.342c0 3.317 2.689 6.006 6.006 6.006z"/><path d="m198.142 418.895c3.317 0 6.006-2.689 6.006-6.006v-11.341c0-3.317-2.689-6.006-6.006-6.006s-6.006 2.689-6.006 6.006v11.341c0 3.317 2.689 6.006 6.006 6.006z"/></g><path d="m97.999 312.962c-2.874 0-5.727-1.232-7.707-3.616l-6.488-7.814c-3.531-4.253-2.946-10.564 1.307-14.095 4.253-3.532 10.564-2.946 14.096 1.307l6.488 7.814c3.531 4.253 2.946 10.564-1.307 14.095-1.868 1.552-4.135 2.309-6.389 2.309z" fill="#fff"/><ellipse cx="107.642" cy="452.252" fill="#fff" rx="9.023" ry="9.023" transform="matrix(.163 -.987 .987 .163 -356.102 484.808)"/></g></g></svg>