<svg id="Capa_1" enable-background="new 0 0 512 512" height="512" viewBox="0 0 512 512" width="512" xmlns="http://www.w3.org/2000/svg"><g><g><g fill="#c49a8b"><path d="m194.531 501.716h-5.819c-10.131 0-18.344-8.213-18.344-18.344v-34.156h42.506v34.156c.001 10.131-8.212 18.344-18.343 18.344z"/><path d="m421.964 501.716h-5.819c-10.131 0-18.344-8.213-18.344-18.344v-34.156h42.506v34.156c.001 10.131-8.212 18.344-18.343 18.344z"/><path d="m416.639 433.404h-222.602c-13.072 0-23.669-10.597-23.669-23.669v-186.151c0-13.072 10.597-23.669 23.669-23.669h222.602c13.072 0 23.669 10.597 23.669 23.669v186.151c0 13.072-10.597 23.669-23.669 23.669z"/></g><path d="m437.432 460.511h-264.187c-9.357 0-16.942-7.585-16.942-16.942 0-9.357 7.585-16.942 16.942-16.942h264.187c9.357 0 16.942 7.585 16.942 16.942-.001 9.357-7.586 16.942-16.942 16.942z" fill="#a07575"/><path d="m388.448 298.261h-166.219c-10.134 0-18.35-8.215-18.35-18.35v-21.081c0-10.134 8.215-18.35 18.35-18.35h166.219c10.134 0 18.35 8.215 18.35 18.35v21.081c-.001 10.135-8.216 18.35-18.35 18.35z" fill="#a07575"/><path d="m388.69 391.334h-166.703c-10 0-18.108-8.107-18.108-18.108v-21.564c0-10.001 8.107-18.108 18.108-18.108h166.703c10.001 0 18.108 8.107 18.108 18.108v21.564c-.001 10.001-8.108 18.108-18.108 18.108z" fill="#a07575"/><path d="m416.639 199.915h-63.9c9.372 0 16.969 7.598 16.969 16.97v23.596h18.739c10.134 0 18.349 8.215 18.349 18.35v21.081c0 10.134-8.215 18.349-18.349 18.349h-18.739v35.293h18.981c10.001 0 18.108 8.107 18.108 18.107v21.565c0 10.001-8.107 18.107-18.108 18.107h-166.702c-10.001 0-18.108-8.107-18.108-18.107v-10.782h-16.541c-9.372 0-16.97-7.598-16.97-16.97v64.26c0 13.073 10.597 23.669 23.669 23.669h222.602c13.072 0 23.669-10.596 23.669-23.669v-186.15c0-13.072-10.597-23.669-23.669-23.669z" fill="#b2748a"/><path d="m406.797 279.912v-21.081c0-10.135-8.215-18.35-18.349-18.35h-18.739v57.78h18.739c10.134 0 18.349-8.215 18.349-18.349z" fill="#925873"/><path d="m221.987 391.334h166.703c10.001 0 18.108-8.107 18.108-18.107v-21.565c0-10.001-8.107-18.107-18.108-18.107h-18.981v11.92c0 9.372-7.597 16.97-16.969 16.97h-148.86v10.782c-.001 10 8.106 18.107 18.107 18.107z" fill="#925873"/><circle cx="361.414" cy="160.883" fill="#faf1a9" r="36.63"/><path d="m361.414 124.254c-20.23 0-36.63 16.4-36.63 36.63s16.4 36.63 36.63 36.63 36.63-16.4 36.63-36.63c0-20.231-16.4-36.63-36.63-36.63zm-7.308 45.543c-11.815 0-21.393-9.578-21.393-21.393s9.578-21.393 21.393-21.393 21.393 9.578 21.393 21.393c0 11.816-9.578 21.393-21.393 21.393z" fill="#dfb5a7"/><path d="m336.777 54.832-33.292 57.664c-4.184 7.246 1.046 16.304 9.413 16.304h97.033c8.367 0 13.597-9.058 9.413-16.304l-33.292-57.664c-1.942-3.363-5.53-5.435-9.413-5.435h-30.449c-3.883 0-7.472 2.072-9.413 5.435z" fill="#f6e06e"/><path d="m419.343 112.496-33.292-57.664c-1.942-3.363-5.53-5.435-9.413-5.435h-28.42c2.404 0 4.626 1.283 5.828 3.365l20.614 35.704c2.59 4.487-.648 10.095-5.828 10.095h-57.302l-8.046 13.935c-4.184 7.247 1.046 16.304 9.413 16.304h97.033c8.367 0 13.597-9.058 9.413-16.304z" fill="#dda86a"/><path d="m87.718 130.588 8.448 23.753c.362 1.017 1.078 1.823 1.981 2.23l21.104 9.508c2.981 1.343 2.981 6.094 0 7.437l-21.104 9.508c-.903.407-1.62 1.213-1.981 2.23l-8.448 23.753c-1.193 3.356-5.414 3.356-6.607 0l-8.447-23.753c-.362-1.017-1.078-1.823-1.981-2.23l-21.104-9.508c-2.981-1.343-2.981-6.094 0-7.437l21.104-9.508c.904-.407 1.619-1.213 1.981-2.23l8.447-23.753c1.194-3.355 5.414-3.355 6.607 0z" fill="#faf1a9"/><path d="m236.559 1.867 6.266 17.619c.268.754.799 1.352 1.47 1.654l15.654 7.053c2.212.997 2.212 4.52 0 5.516l-15.654 7.053c-.67.302-1.201.9-1.47 1.654l-6.266 17.619c-.885 2.489-4.016 2.489-4.901 0l-6.266-17.619c-.268-.754-.799-1.352-1.47-1.654l-15.654-7.053c-2.212-.996-2.212-4.52 0-5.516l15.654-7.053c.67-.302 1.201-.9 1.47-1.654l6.266-17.619c.885-2.489 4.016-2.489 4.901 0z" fill="#faf1a9"/><ellipse cx="113.091" cy="46.329" fill="#f6e06e" rx="18.445" ry="18.446" transform="matrix(.385 -.923 .923 .385 26.808 132.881)"/><circle cx="219.419" cy="122.884" fill="#f6e06e" r="7.957"/></g><g><g fill="#3c122c"><path d="m464.657 443.569c0-10.769-6.286-20.097-15.38-24.51.85-2.965 1.315-6.09 1.315-9.324v-186.151c0-18.721-15.231-33.953-33.953-33.953h-18.192c6.184-7.948 9.88-17.921 9.88-28.748 0-7.868-1.959-15.282-5.397-21.8h7c7.647 0 14.496-3.954 18.319-10.576 3.823-6.623 3.824-14.53 0-21.153l-33.292-57.665c-3.767-6.524-10.786-10.576-18.319-10.576h-30.448c-7.533 0-14.552 4.052-18.319 10.576l-33.292 57.664c-3.824 6.623-3.824 14.53 0 21.153s10.672 10.577 18.319 10.577h7c-3.439 6.518-5.397 13.932-5.397 21.8 0 10.826 3.696 20.8 9.88 28.748h-130.344c-18.722 0-33.953 15.231-33.953 33.953v186.152c0 3.234.465 6.359 1.315 9.324-9.095 4.413-15.38 13.74-15.38 24.51 0 10.241 5.686 19.175 14.065 23.823v15.98c0 15.786 12.842 28.628 28.628 28.628h5.819c15.785 0 28.627-12.842 28.627-28.628v-12.578h164.36v12.578c0 15.786 12.842 28.628 28.627 28.628h5.819c15.785 0 28.627-12.842 28.627-28.628v-15.98c8.38-4.648 14.066-13.583 14.066-23.824zm-118.974-383.595c.104-.181.299-.293.507-.293h30.448c.208 0 .403.112.507.293l17.409 30.154h-66.281zm-33.293 58.249c-.169-.293-.075-.455 0-.585l8.758-15.17h80.531l8.758 15.17c.075.13.169.293 0 .585-.169.293-.357.293-.507.293h-97.033c-.15 0-.337 0-.507-.293zm63.801 20.861c6.977 4.744 11.569 12.745 11.569 21.8 0 14.527-11.819 26.346-26.346 26.346s-26.346-11.819-26.346-26.346c0-9.055 4.592-17.056 11.569-21.8zm-202.946 311.143c-3.672 0-6.658-2.987-6.658-6.658 0-3.672 2.987-6.658 6.658-6.658h264.187c3.672 0 6.658 2.987 6.658 6.658s-2.987 6.658-6.658 6.658zm7.407-226.643c0-7.381 6.005-13.385 13.385-13.385h222.602c7.381 0 13.385 6.005 13.385 13.385v186.152c0 2.404-.646 4.656-1.76 6.608h-245.852c-1.114-1.952-1.76-4.204-1.76-6.608zm21.939 259.788c0 4.444-3.616 8.06-8.06 8.06h-5.819c-4.444 0-8.06-3.616-8.06-8.06v-12.578h21.939zm219.374 8.061h-5.819c-4.444 0-8.06-3.616-8.06-8.06v-12.578h21.939v12.578c-.001 4.444-3.616 8.06-8.06 8.06z"/><path d="m222.229 304.431h166.219c13.52 0 24.52-10.999 24.52-24.52v-21.081c0-13.52-10.999-24.52-24.52-24.52h-166.219c-13.52 0-24.52 11-24.52 24.52v21.081c0 13.521 10.999 24.52 24.52 24.52zm-12.18-45.6c0-6.716 5.464-12.18 12.18-12.18h166.219c6.716 0 12.179 5.464 12.179 12.18v21.081c0 6.716-5.464 12.179-12.179 12.179h-166.219c-6.716 0-12.18-5.464-12.18-12.179z"/><path d="m221.987 397.504h166.703c13.387 0 24.278-10.891 24.278-24.278v-21.565c0-13.387-10.891-24.278-24.278-24.278h-166.703c-13.387 0-24.278 10.891-24.278 24.278v21.565c0 13.387 10.891 24.278 24.278 24.278zm-11.938-45.842c0-6.583 5.355-11.937 11.938-11.937h166.703c6.582 0 11.937 5.355 11.937 11.937v21.565c0 6.582-5.355 11.937-11.937 11.937h-166.703c-6.582 0-11.938-5.355-11.938-11.937z"/><path d="m290.473 368.614h29.731c3.408 0 6.17-2.763 6.17-6.17s-2.763-6.17-6.17-6.17h-29.731c-3.407 0-6.17 2.763-6.17 6.17s2.762 6.17 6.17 6.17z"/><path d="m290.473 275.542h29.731c3.408 0 6.17-2.763 6.17-6.17s-2.763-6.17-6.17-6.17h-29.731c-3.407 0-6.17 2.763-6.17 6.17-.001 3.407 2.762 6.17 6.17 6.17z"/></g><path d="m255.334 275.473h-23.919c-5.68 0-10.284-4.604-10.284-10.284s4.604-10.284 10.284-10.284h23.919c5.68 0 10.284 4.604 10.284 10.284s-4.604 10.284-10.284 10.284z" fill="#fff"/></g></g></svg>