<svg id="Capa_1" enable-background="new 0 0 512 512" height="512" viewBox="0 0 512 512" width="512" xmlns="http://www.w3.org/2000/svg"><g><g><path d="m478.167 481.735h-444.334c-13.1 0-23.719-10.62-23.719-23.719 0-13.1 10.619-23.719 23.719-23.719h444.335c13.1 0 23.719 10.619 23.719 23.719 0 13.1-10.62 23.719-23.72 23.719z" fill="#c49a8b"/><g fill="#96b4eb"><path d="m206.315 434.218h-155.949c-16.516 0-29.904-13.388-29.904-29.904v-2.491c0-6.77 5.488-12.258 12.258-12.258h191.242c6.77 0 12.258 5.488 12.258 12.258v2.491c-.001 16.515-13.389 29.904-29.905 29.904z"/><path d="m206.315 389.486h-155.949c-16.516 0-29.904-13.388-29.904-29.904v-2.492c0-6.77 5.488-12.258 12.258-12.258h191.242c6.77 0 12.258 5.488 12.258 12.258v2.492c-.001 16.515-13.389 29.904-29.905 29.904z"/><path d="m206.315 344.833h-155.949c-16.516 0-29.904-13.388-29.904-29.904v-2.491c0-6.77 5.488-12.258 12.258-12.258h191.242c6.77 0 12.258 5.488 12.258 12.258v2.491c-.001 16.515-13.389 29.904-29.905 29.904z"/></g><path d="m223.961 300.18h-115.398c-8.314 15.825-13.025 33.839-13.025 52.956 0 29.7 11.357 56.744 29.961 77.036h80.815c16.516 0 29.904-13.388 29.904-29.904v-2.492c0-6.769-5.488-12.257-12.258-12.257h-2.772c8.978-5.16 15.029-14.839 15.029-25.938v-2.492c0-6.769-5.488-12.257-12.258-12.257h-17.646c16.516 0 29.904-13.388 29.904-29.904v-2.492c.002-6.768-5.486-12.256-12.256-12.256z" fill="#8286ea"/><circle cx="248.597" cy="336.878" fill="#c1e5ef" r="114.036"/><path d="m248.597 222.843c-4.147 0-8.241.227-12.274.659 44.992 5.407 79.866 43.706 79.866 90.156 0 50.155-40.659 90.814-90.814 90.814-46.449 0-84.748-34.874-90.155-79.866-.432 4.033-.659 8.126-.659 12.274 0 62.98 51.056 114.035 114.036 114.035s114.035-51.055 114.035-114.035c.001-62.982-51.055-114.037-114.035-114.037z" fill="#a6aaed"/><path d="m448.274 336.878h-25.751c-13.966 0-25.586-11.744-26.688-26.975l-4.198-57.989c-.501-6.922 4.98-12.814 11.92-12.814h63.684c6.941 0 12.421 5.892 11.92 12.814l-4.198 57.989c-1.103 15.231-12.723 26.975-26.689 26.975z" fill="#a1e8c3"/><path d="m448.274 385.767h-25.751c-13.966 0-25.586-11.744-26.688-26.975l-4.198-57.988c-.501-6.922 4.98-12.814 11.92-12.814h63.684c6.941 0 12.421 5.892 11.92 12.814l-4.198 57.988c-1.103 15.231-12.723 26.975-26.689 26.975z" fill="#f6e06e"/><path d="m448.274 434.656h-25.751c-13.966 0-25.586-11.744-26.688-26.975l-4.198-57.989c-.501-6.922 4.98-12.814 11.92-12.814h63.684c6.941 0 12.421 5.892 11.92 12.814l-4.198 57.989c-1.103 15.231-12.723 26.975-26.689 26.975z" fill="#d789b9"/><path d="m452.486 249.874-1.918 32.035h26.422l2.172-29.994c.501-6.923-4.98-12.814-11.92-12.814h-23.043c4.825-.001 8.636 4.953 8.287 10.773z" fill="#85adc2"/><path d="m476.257 292.022h-23.826l-1.969 37.547c.653.908 1.168 1.96 1.521 3.103h24.871l2.307-31.869c.24-3.315-.902-6.386-2.91-8.695z" fill="#dda86a"/><path d="m477.535 342.785h-25.441l-2.527 38.046c-.767 12.805-8.846 22.678-18.557 22.678h-17.906c-7.215 0-13.527-5.453-16.611-13.507-.73-.215-1.4-.595-1.932-1.169-.034-.036-.065-.074-.098-.111l1.373 18.959c1.103 15.23 12.722 26.975 26.688 26.975h25.751c13.966 0 25.586-11.744 26.688-26.975l4.198-57.989c.182-2.52-.438-4.897-1.626-6.907z" fill="#c668b9"/><path d="m74.476 115.922 8.307 23.358c.356 1 1.06 1.793 1.948 2.193l20.753 9.35c2.932 1.321 2.932 5.992 0 7.313l-20.753 9.35c-.888.4-1.593 1.193-1.948 2.193l-8.307 23.358c-1.174 3.3-5.324 3.3-6.498 0l-8.307-23.358c-.356-1-1.06-1.793-1.948-2.193l-20.753-9.35c-2.932-1.321-2.932-5.992 0-7.313l20.753-9.35c.889-.4 1.593-1.193 1.948-2.193l8.307-23.358c1.174-3.3 5.324-3.3 6.498 0z" fill="#c1e5ef"/><path d="m477.891 22.627 8.307 23.358c.356 1 1.06 1.793 1.948 2.193l20.753 9.35c2.932 1.321 2.932 5.993 0 7.313l-20.753 9.35c-.888.4-1.593 1.193-1.948 2.193l-8.307 23.358c-1.174 3.3-5.324 3.3-6.498 0l-8.307-23.358c-.356-1-1.06-1.793-1.948-2.193l-20.753-9.35c-2.932-1.321-2.932-5.992 0-7.313l20.753-9.35c.889-.4 1.593-1.193 1.948-2.193l8.307-23.358c1.174-3.3 5.324-3.3 6.498 0z" fill="#c1e5ef"/><path d="m281.82 73.617 6.162 17.327c.264.742.786 1.33 1.445 1.627l15.394 6.936c2.175.98 2.175 4.445 0 5.425l-15.394 6.936c-.659.297-1.181.885-1.445 1.627l-6.162 17.327c-.87 2.448-3.949 2.448-4.82 0l-6.162-17.327c-.264-.742-.786-1.33-1.445-1.627l-15.394-6.936c-2.175-.98-2.175-4.445 0-5.425l15.394-6.936c.659-.297 1.181-.885 1.445-1.627l6.162-17.327c.871-2.448 3.95-2.448 4.82 0z" fill="#c1e5ef"/><ellipse cx="165.879" cy="51.702" fill="#96b4eb" rx="18.139" ry="18.139" transform="matrix(.099 -.995 .995 .099 98.083 211.679)"/><ellipse cx="173.584" cy="170.187" fill="#96b4eb" rx="7.825" ry="7.825" transform="matrix(.707 -.707 .707 .707 -69.499 172.589)"/><path d="m424.034 121.329c0 4.322-3.503 7.825-7.825 7.825s-7.825-3.503-7.825-7.825 3.503-7.825 7.825-7.825c4.322.001 7.825 3.504 7.825 7.825z" fill="#96b4eb"/></g><g><g fill="#3c122c"><path d="m480.595 424.28c2.469-4.772 4.04-10.146 4.454-15.869l4.198-57.988c.308-4.253-.642-8.488-2.658-12.18l2.658-36.708c.308-4.253-.642-8.488-2.658-12.18l2.658-36.708c.441-6.09-1.691-12.149-5.85-16.62-4.16-4.473-10.048-7.038-16.156-7.038h-63.684c-6.108 0-11.996 2.565-16.156 7.038-4.16 4.471-6.292 10.53-5.85 16.619l2.658 36.709c-2.016 3.692-2.966 7.927-2.658 12.179l2.658 36.709c-2.016 3.692-2.966 7.927-2.658 12.179l4.198 57.989c.411 5.685 1.966 11.025 4.407 15.772h-53.383c22.225-22.445 35.973-53.298 35.973-87.305 0-68.456-55.693-124.149-124.149-124.149-51.902 0-96.459 32.019-114.978 77.338h-100.9c-12.335 0-22.37 10.035-22.37 22.37v2.492c0 9.281 3.185 17.828 8.507 24.624-5.177 4.101-8.507 10.436-8.507 17.538v2.492c0 9.304 3.2 17.868 8.545 24.672-5.198 4.1-8.545 10.449-8.545 17.568v2.492c0 8.877 2.909 17.085 7.819 23.729-10.788 5.66-18.168 16.967-18.168 29.972 0 18.655 15.177 33.832 33.833 33.832h444.334c18.655 0 33.833-15.177 33.833-33.832 0-17.838-13.88-32.486-31.405-33.736zm-13.354-126.177c.663 0 1.098.319 1.347.587.248.267.534.724.487 1.385l-1.932 26.692h-63.487l-1.932-26.693c-.047-.66.239-1.117.487-1.384.249-.268.684-.587 1.347-.587zm-65.031 49.475c.249-.268.684-.587 1.347-.587h63.684c.663 0 1.098.319 1.347.587.248.267.534.724.487 1.385l-4.198 57.989c-.714 9.865-8.006 17.592-16.602 17.592h-25.751c-8.595 0-15.887-7.727-16.601-17.592l-4.198-57.99c-.05-.66.237-1.118.485-1.384zm0-97.777c.249-.268.684-.587 1.347-.587h63.684c.663 0 1.098.319 1.347.587.248.267.534.724.487 1.385l-1.932 26.692h-63.487l-1.932-26.693c-.049-.661.238-1.118.486-1.384zm-153.613-16.846c57.303 0 103.923 46.62 103.923 103.923s-46.62 103.923-103.923 103.923-103.923-46.62-103.923-103.923 46.62-103.923 103.923-103.923zm-218.022 124.135c0-1.182.962-2.144 2.144-2.144h17.646 75.402c1.237 8.445 3.321 16.619 6.175 24.427h-81.577c-10.913 0-19.79-8.878-19.79-19.791zm0 44.732c0-1.183.962-2.145 2.144-2.145h108.824c5.248 8.913 11.574 17.116 18.803 24.428h-109.981c-10.913 0-19.79-8.878-19.79-19.791zm0-89.385c0-1.182.962-2.144 2.144-2.144h94.605c-1.729 7.891-2.704 16.059-2.848 24.427h-74.11c-10.913 0-19.79-8.878-19.79-19.791v-2.492zm447.592 159.185h-444.334c-7.503 0-13.607-6.103-13.607-13.606s6.104-13.607 13.607-13.607h152.77c18.254 10.565 39.429 16.618 61.994 16.618 22.564 0 43.74-6.053 61.994-16.618h107.027c1.608.233 3.243.361 4.904.361h25.751c1.66 0 3.296-.128 4.904-.361h24.989c7.503 0 13.607 6.104 13.607 13.607.001 7.503-6.103 13.606-13.606 13.606z"/><path d="m248.597 417.959c44.708 0 81.08-36.373 81.08-81.081s-36.372-81.08-81.08-81.08-81.08 36.372-81.08 81.08 36.372 81.081 81.08 81.081zm0-150.025c38.016 0 68.945 30.928 68.945 68.945s-30.928 68.946-68.945 68.946c-38.016 0-68.945-30.929-68.945-68.946s30.929-68.945 68.945-68.945z"/><path d="m445.062 401.283c3.351 0 6.068-2.717 6.068-6.068v-11.459c0-3.351-2.717-6.068-6.068-6.068s-6.068 2.717-6.068 6.068v11.459c0 3.351 2.717 6.068 6.068 6.068z"/></g><path d="m243.292 304.218c-5.039 0-9.4-3.761-10.026-8.888-.676-5.544 3.27-10.587 8.813-11.264 2.146-.262 4.337-.395 6.512-.396h.006c5.583 0 10.11 4.524 10.113 10.107.003 5.586-4.522 10.116-10.107 10.119-1.364.001-2.734.084-4.073.248-.417.049-.829.074-1.238.074z" fill="#fff"/><path d="m205.5 346.991c-5.584 0-10.11-4.524-10.113-10.108-.006-12.396 4.401-24.52 12.407-34.138 3.572-4.291 9.948-4.876 14.243-1.302 4.292 3.574 4.875 9.951 1.302 14.243-4.914 5.902-7.73 13.624-7.726 21.187.003 5.585-4.523 10.115-10.108 10.118-.001 0-.004 0-.005 0z" fill="#fff"/></g></g></svg>