<svg width="160" height="160" viewBox="0 0 160 160" xmlns="http://www.w3.org/2000/svg">
  <defs>
    <radialGradient id="kitFur" cx="45%" cy="40%" r="70%">
      <stop offset="0%" stop-color="#f8fafc"/>
      <stop offset="60%" stop-color="#38bdf8"/>
      <stop offset="100%" stop-color="#0f172a"/>
    </radialGradient>
    <linearGradient id="kitGlow" x1="0" y1="0" x2="1" y2="1">
      <stop offset="0%" stop-color="#bae6fd"/>
      <stop offset="100%" stop-color="#0ea5e9"/>
    </linearGradient>
  </defs>
  <rect x="28" y="132" width="104" height="16" rx="8" fill="#0f172a" opacity="0.25"/>
  <ellipse cx="80" cy="136" rx="40" ry="12" fill="#0ea5e9" opacity="0.2"/>
  <g stroke="#0f172a" stroke-width="3" stroke-linecap="round" stroke-linejoin="round">
    <path d="M40 60c0-20 14-38 24-38 6 0 12 6 16 14 4-8 10-14 16-14 10 0 24 18 24 38" fill="#f0f9ff"/>
    <path d="M80 40c-16 0-36 14-36 40s16 44 36 44 36-18 36-44S96 40 80 40z" fill="url(#kitFur)"/>
    <path d="M56 86c6-6 12-10 24-10s18 4 24 10" stroke="#fff"/>
    <path d="M70 96h20" stroke="#fff"/>
  </g>
  <g fill="#0f172a">
    <circle cx="64" cy="76" r="6"/>
    <circle cx="96" cy="76" r="6"/>
    <path d="M78 86c2 2 4 2 6 0" stroke="#0f172a" stroke-width="3" fill="none" stroke-linecap="round"/>
  </g>
  <circle cx="80" cy="54" r="10" fill="url(#kitGlow)" opacity="0.5"/>
  <text x="80" y="154" font-size="16" text-anchor="middle" fill="#0f172a" font-family="'Baloo 2', 'Comic Sans MS', cursive">Glimmer Kit</text>
</svg>
