<svg width="160" height="160" viewBox="0 0 160 160" xmlns="http://www.w3.org/2000/svg">
  <defs>
    <radialGradient id="shellBody" cx="50%" cy="45%" r="70%">
      <stop offset="0%" stop-color="#f0fdf4"/>
      <stop offset="55%" stop-color="#4ade80"/>
      <stop offset="100%" stop-color="#14532d"/>
    </radialGradient>
    <linearGradient id="shellTop" x1="0" y1="0" x2="1" y2="1">
      <stop offset="0%" stop-color="#a7f3d0"/>
      <stop offset="100%" stop-color="#10b981"/>
    </linearGradient>
  </defs>
  <rect x="30" y="132" width="100" height="16" rx="8" fill="#14532d" opacity="0.25"/>
  <ellipse cx="80" cy="136" rx="38" ry="12" fill="#10b981" opacity="0.2"/>
  <g stroke="#14532d" stroke-width="3" stroke-linecap="round" stroke-linejoin="round">
    <path d="M50 54c0-18 14-32 24-32 10 0 18 14 18 14s8-14 18-14c10 0 24 14 24 32" fill="#ecfdf5"/>
    <path d="M80 46c-18 0-36 18-36 40s16 40 36 40 36-18 36-40-18-40-36-40z" fill="url(#shellBody)"/>
    <path d="M64 86c6-6 10-8 16-8s10 2 16 8" stroke="#ecfdf5"/>
    <path d="M70 98c4 4 16 4 20 0" stroke="#ecfdf5"/>
  </g>
  <g fill="#14532d">
    <circle cx="68" cy="76" r="6"/>
    <circle cx="92" cy="76" r="6"/>
    <path d="M78 84c1 3 3 3 4 0" stroke="#14532d" stroke-width="3" fill="none" stroke-linecap="round"/>
  </g>
  <path d="M72 52c4-8 16-8 20 0" stroke="#a7f3d0" stroke-width="5" stroke-linecap="round"/>
  <text x="80" y="154" font-size="16" text-anchor="middle" fill="#14532d" font-family="'Baloo 2', 'Comic Sans MS', cursive">Sprout Shell</text>
</svg>
