<svg id="Capa_1" enable-background="new 0 0 512 512" height="512" viewBox="0 0 512 512" width="512" xmlns="http://www.w3.org/2000/svg"><g><g><path d="m196.471 270.2c-9.184 8.066-23.167 7.161-31.234-2.023l-127.892-145.604c-8.066-9.184-7.161-23.167 2.023-31.234 9.184-8.066 23.167-7.161 31.234 2.023l127.892 145.604c8.066 9.184 7.161 23.167-2.023 31.234z" fill="#d3b5f2"/><path d="m264.726 413.207-85.248 64.011c-10.564 7.932-4.954 24.747 8.257 24.747h170.496c13.211 0 18.821-16.814 8.257-24.747l-85.248-64.011c-4.892-3.673-11.622-3.673-16.514 0z" fill="#ffc5dd"/><path d="m115.998 232.634c-10.504 22.353-16.385 47.307-16.385 73.64v19.412c0 62.724 50.848 113.572 113.572 113.572h119.595c62.724 0 113.572-50.848 113.572-113.572v-19.412c0-26.333-5.882-51.287-16.385-73.64z" fill="#98e8f2"/><path d="m445.435 288.493c-2.02-19.793-7.359-38.603-15.468-55.858h-313.969c-8.108 17.255-13.447 36.066-15.467 55.858z" fill="#ffc5dd"/><path d="m372.006 290.31c0 .059.003.117.003.175v15.25c0 49.275-39.945 89.221-89.221 89.221h-93.953c-49.211 0-89.112-39.843-89.216-89.03 0 .117-.005.232-.005.348v19.411c0 62.724 50.848 113.572 113.572 113.572h119.594c62.724 0 113.572-50.848 113.572-113.572v-19.411c0-5.384-.259-10.706-.74-15.965h-73.606z" fill="#a6aff4"/><path d="m445.435 288.493c-2.02-19.793-7.359-38.603-15.467-55.858h-70.831c7.986 16.994 12.557 35.907 12.844 55.858z" fill="#ff94de"/><path d="m432.215 243.309c16.159 0 24.878-18.822 14.552-31.251-41.423-49.862-103.894-81.613-173.784-81.613-69.89 0-132.361 31.751-173.784 81.613-10.326 12.429-1.607 31.251 14.552 31.251z" fill="#98e8f2"/><circle cx="272.983" cy="91.244" fill="#ffc5dd" r="36.11"/><g fill="#fff"><path d="m237.615 184.525c-5.053 0-9.4-3.805-9.964-8.943-.604-5.509 3.373-10.465 8.882-11.069 4.265-.467 8.554-.706 12.746-.707h.004c5.541 0 10.033 4.491 10.036 10.032.002 5.542-4.489 10.037-10.032 10.039-3.467.001-7.022.199-10.567.588-.371.04-.74.06-1.105.06z"/><path d="m165.679 216.163c-2.847 0-5.676-1.205-7.661-3.548-3.583-4.228-3.06-10.561 1.169-14.144 8.549-7.244 18.667-13.723 30.933-19.807 4.965-2.462 10.988-.434 13.45 4.531 2.463 4.965.434 10.987-4.531 13.45-10.792 5.353-19.583 10.959-26.876 17.14-1.887 1.597-4.192 2.378-6.484 2.378z"/></g></g><g fill="#4e0325"><path d="m458.477 236.675c4.851-10.337 3.322-22.228-3.99-31.03-37.748-45.438-90.383-74.609-147.888-82.836 7.761-8.26 12.53-19.363 12.53-31.565 0-25.445-20.701-46.146-46.146-46.146s-46.145 20.701-46.145 46.146c0 12.191 4.76 23.285 12.509 31.543-34.664 4.93-67.617 17.486-96.981 37.071l-64.224-73.12c-11.706-13.326-32.071-14.646-45.396-2.94-6.456 5.67-10.317 13.515-10.872 22.089-.555 8.575 2.262 16.852 7.932 23.307l64.362 73.276c-.905 1.052-1.804 2.108-2.689 3.173-7.312 8.802-8.842 20.692-3.991 31.029 2.499 5.324 6.41 9.592 11.172 12.482-6.026 18.335-9.083 37.464-9.083 57.118v19.412c0 63.97 48.848 116.745 111.202 122.987l-27.328 20.52c-8.326 6.252-11.577 16.673-8.281 26.549 3.295 9.876 12.152 16.258 22.564 16.258h170.496c10.411 0 19.268-6.381 22.563-16.258 3.295-9.876.045-20.298-8.281-26.55l-27.328-20.52c62.354-6.242 111.202-59.016 111.202-122.987v-19.412c0-19.655-3.057-38.783-9.082-57.118 4.763-2.886 8.674-7.154 11.173-12.478zm-30.932 16.67c3.357 9.774 5.752 19.809 7.182 30.053h-323.489c1.43-10.244 3.826-20.279 7.183-30.053zm11.503-34.874c3.439 4.14 1.833 8.453 1.259 9.677-.723 1.542-2.96 5.126-8.092 5.126h-318.465c-5.132 0-7.369-3.585-8.092-5.126-.574-1.224-2.18-5.537 1.259-9.677 7.134-8.587 14.995-16.686 23.368-24.072 5.368-4.736 11.031-9.253 16.834-13.427 36.823-26.489 80.346-40.491 125.864-40.491 64.36-.001 124.889 28.426 166.065 77.99zm-166.065-153.302c14.378 0 26.075 11.697 26.075 26.075s-11.697 26.075-26.075 26.075-26.074-11.697-26.074-26.075c-.001-14.378 11.696-26.075 26.074-26.075zm-231.081 42.016c.209-3.224 1.661-6.174 4.088-8.307 2.293-2.014 5.14-3.002 7.976-3.002 3.362 0 6.708 1.39 9.096 4.108l63.023 71.751c-3.093 2.466-6.127 5.009-9.078 7.613-3.082 2.719-6.094 5.533-9.04 8.419l-63.082-71.817c-2.132-2.428-3.191-5.54-2.983-8.765zm319.853 382.205c-.317.948-1.195 2.539-3.524 2.539h-170.496c-2.33 0-3.208-1.591-3.524-2.539-.316-.949-.569-2.748 1.293-4.147l47.876-35.949h79.205l47.877 35.949c1.862 1.398 1.61 3.198 1.293 4.147zm74.562-163.704c0 57.09-46.446 103.536-103.536 103.536h-119.596c-57.09 0-103.537-46.446-103.537-103.536v-19.412c0-3.633.129-7.243.361-10.834h325.946c.233 3.59.361 7.201.361 10.834v19.412z"/><path d="m298.945 362.842c-3.325 0-6.021 2.696-6.021 6.021v16.523c0 3.325 2.696 6.021 6.021 6.021s6.021-2.696 6.021-6.021v-16.523c0-3.325-2.696-6.021-6.021-6.021z"/><path d="m351.221 321.664c-3.325 0-6.021 2.696-6.021 6.021v16.522c0 3.325 2.696 6.021 6.021 6.021s6.021-2.696 6.021-6.021v-16.522c0-3.325-2.696-6.021-6.021-6.021z"/></g><g><path d="m419.71 2.456-8.244 23.18c-.353.992-1.052 1.779-1.933 2.176l-20.594 9.278c-2.91 1.311-2.91 5.947 0 7.257l20.594 9.278c.882.397 1.581 1.184 1.933 2.176l8.244 23.18c1.165 3.275 5.283 3.275 6.448 0l8.244-23.18c.353-.992 1.052-1.779 1.933-2.176l20.594-9.278c2.909-1.311 2.909-5.946 0-7.257l-20.594-9.278c-.882-.397-1.581-1.184-1.933-2.176l-8.244-23.18c-1.165-3.275-5.283-3.275-6.448 0z" fill="#98e8f2"/><path d="m151.782 22.145-6.115 17.194c-.262.736-.78 1.32-1.434 1.614l-15.277 6.882c-2.158.973-2.158 4.411 0 5.384l15.277 6.883c.654.295 1.172.878 1.434 1.614l6.115 17.194c.864 2.429 3.919 2.429 4.783 0l6.115-17.194c.262-.736.78-1.319 1.434-1.614l15.276-6.883c2.158-.972 2.158-4.411 0-5.384l-15.276-6.882c-.654-.295-1.172-.878-1.434-1.614l-6.115-17.194c-.864-2.429-3.919-2.429-4.783 0z" fill="#98e8f2"/><g fill="#75b7f2"><circle cx="34.827" cy="410.452" r="18"/><ellipse cx="487.409" cy="127.354" rx="7.765" ry="7.765" transform="matrix(.707 -.707 .707 .707 52.706 381.951)"/></g></g></g></svg>