<svg id="Capa_1" enable-background="new 0 0 512 512" height="512" viewBox="0 0 512 512" width="512" xmlns="http://www.w3.org/2000/svg"><g><g><path d="m46.186 229.991c0-32.923 96.334-59.612 215.168-59.612s215.168 26.689 215.168 59.612-96.334 59.612-215.168 59.612c-49.167 0-94.482-4.569-130.716-12.258" fill="#ffa785"/><path d="m46.186 370.278h78.244v71.578h-78.244z" fill="#c37777"/><path d="m46.186 300.102h78.244v71.577h-78.244z" fill="#e79d8e"/><path d="m124.43 300.418h-78.244v-71.577h78.244l139.578-3.613-139.578 53.163z" fill="#ffddb6"/><path d="m131.058 489.3c36.164 7.635 81.319 12.169 130.296 12.169 118.834 0 215.168-26.69 215.168-59.613v-58.459c-50.658 47.475-223.889 65.629-345.464 34.326z" fill="#c37777"/><path d="m131.058 417.145c36.164 7.635 81.319 12.168 130.296 12.168 118.834 0 215.168-26.689 215.168-59.613v-58.459c-50.658 47.475-223.889 65.629-345.464 34.326z" fill="#e79d8e"/><path d="m131.058 347.001c36.164 7.635 81.319 12.169 130.296 12.169 118.834 0 215.168-26.69 215.168-59.613v-58.459c-50.658 47.475-223.889 65.629-345.464 34.326z" fill="#ffddb6"/><g fill="#c37777"><ellipse cx="160.608" cy="155.402" rx="36.246" ry="36.246" transform="matrix(.16 -.987 .987 .16 -18.514 289.044)"/><ellipse cx="287.169" cy="150.368" rx="36.246" ry="36.246" transform="matrix(.23 -.973 .973 .23 74.846 395.307)"/><ellipse cx="397.009" cy="195.286" rx="36.246" ry="36.246" transform="matrix(.23 -.973 .973 .23 115.733 536.808)"/></g><path d="m476.522 383.397c-12.144 11.381-31.346 21.071-55.178 28.805-8.533 26.57-89.078 47.4-187.198 47.4-38.072 0-73.485-3.142-103.088-8.533v38.23c36.164 7.635 81.319 12.168 130.296 12.168 116.952 0 212.111-25.851 215.095-58.054.048-.53.073-1.049.073-1.559z" fill="#ba5677"/><path d="m476.522 369.704v-58.461c-12.015 11.26-30.934 20.867-54.416 28.56v67.725c0 .614-.052 1.225-.129 1.834 33.918-10.538 54.543-24.429 54.545-39.658z" fill="#ec28ff" opacity=".3"/><path d="m422.107 339.177c33.841-10.531 54.413-24.407 54.416-39.617v-58.461c-12.015 11.26-30.934 20.867-54.416 28.56z" fill="#ffb7a9"/><path d="m476.522 229.99c0-12.073-12.968-23.306-35.238-32.694-.001 0-.002-.001-.003-.001-3.922 11.122-10.832 21.283-19.175 30.031v42.284c33.843-10.532 54.416-24.409 54.416-39.62z" fill="#ff7d87"/><path d="m248.34 338.637c-9.266 0-19.014-.347-29.371-1.038-5.803-.387-10.194-5.406-9.806-11.209s5.407-10.207 11.209-9.806c20.094 1.342 37.676 1.318 53.755-.064 5.761-.502 10.896 3.793 11.395 9.589.499 5.794-3.794 10.896-9.589 11.395-8.764.755-17.916 1.133-27.593 1.133z" fill="#fff"/><path d="m176.581 332.941c-.522 0-1.051-.038-1.584-.118-2.92-.44-6.766-1.038-10.632-1.75-5.72-1.054-9.502-6.546-8.447-12.266 1.055-5.721 6.551-9.504 12.266-8.447 3.566.657 7.192 1.22 9.953 1.635 5.751.868 9.71 6.232 8.844 11.984-.787 5.219-5.278 8.962-10.4 8.962z" fill="#fff"/></g><g fill="#4e0325"><path d="m484.495 218.361c-5.426-12.039-19.455-22.758-41.526-31.736-4.075-21.667-23.127-38.115-45.959-38.115-14.898 0-28.181 7.009-36.754 17.894-9.083-1.281-18.46-2.385-28.087-3.298 1.149-4.053 1.777-8.322 1.777-12.737 0-25.793-20.984-46.777-46.777-46.777s-46.777 20.984-46.777 46.777c0 3.339.358 6.596 1.027 9.739-11.708.293-23.228.841-34.475 1.638.283-2.076.442-4.191.442-6.343 0-25.793-20.984-46.777-46.777-46.777-25.792 0-46.776 20.984-46.776 46.777 0 6.878 1.504 13.407 4.182 19.294-3.977.955-7.856 1.952-11.617 2.994-37.655 10.432-60.864 24.349-68.207 40.698-1.576 1.841-2.534 4.227-2.534 6.841v216.627c0 5.816 4.715 10.531 10.531 10.531h74.342v36.809c-.113 4.893 3.557 9.454 8.355 10.407 38.412 8.11 84.219 12.396 132.469 12.396 58.396 0 113.429-6.336 154.958-17.842 46.28-12.823 70.741-30.908 70.741-52.302v-216.628c0-2.626-.968-5.023-2.558-6.867zm-356.898 47.052c-3.842 1.338-6.526 4.753-6.99 8.724-.106.333-.197.673-.271 1.022-.374 1.765-.282 3.52.192 5.138v13.519h-63.811v-58.056h156.043zm-70.88 41.04h63.811v57.506h-63.811zm84.874 49.627c35.562 6.539 76.66 9.985 119.763 9.985 82.521 0 169.015-13.651 204.637-39.41v53.35c-7.987 9.431-27.009 18.809-54.177 26.336-40.106 11.112-93.54 17.231-150.46 17.231-43.284 0-84.441-3.523-119.763-10.2zm324.4-46.218c-7.987 9.431-27.009 18.809-54.177 26.336-40.106 11.111-93.54 17.23-150.46 17.23-43.284 0-84.441-3.523-119.763-10.2v-53.004c35.635 6.492 76.709 9.911 119.763 9.911 58.397 0 113.429-6.336 154.958-17.842 21.249-5.887 37.884-12.886 49.678-20.804v48.373zm-68.981-140.291c14.179 0 25.714 11.536 25.714 25.715s-11.535 25.715-25.714 25.715-25.715-11.536-25.715-25.715 11.536-25.715 25.715-25.715zm-109.841-44.919c14.179 0 25.715 11.536 25.715 25.715s-11.536 25.715-25.715 25.715-25.715-11.536-25.715-25.715c0-14.178 11.536-25.715 25.715-25.715zm-126.561 5.035c14.179 0 25.715 11.536 25.715 25.715s-11.536 25.715-25.715 25.715-25.714-11.536-25.714-25.715 11.535-25.715 25.714-25.715zm-48.589 68.3c6.558-1.817 13.492-3.493 20.731-5.034 7.787 5.793 17.429 9.226 27.858 9.226 15.222 0 28.765-7.312 37.313-18.604 17.298-1.494 35.383-2.376 53.919-2.601 8.583 9.895 21.233 16.171 35.329 16.171 13 0 24.774-5.335 33.26-13.924 10.522.841 20.773 1.899 30.661 3.181-.556 2.879-.857 5.847-.857 8.885 0 25.793 20.984 46.777 46.777 46.777 21.022 0 38.846-13.942 44.721-33.064 18.51 8.594 24.26 16.643 24.26 20.991 0 6.196-11.647 19.91-55.302 32.004-39.749 11.012-92.784 17.077-149.335 17.077-32.493 0-63.761-1.991-92.224-5.818l109.363-38.08c10.994-3.508 8.069-20.779-3.463-20.477h-204.716c8.525-5.328 21.77-11.187 41.705-16.71zm-55.302 233.337v-54.728h63.811v54.728zm353.972 42.535c-39.75 11.013-92.784 17.078-149.335 17.078-43.342 0-84.523-3.547-119.763-10.273v-54.441c35.562 6.539 76.66 9.985 119.763 9.985 82.521 0 169.015-13.651 204.637-39.41v45.056c0 6.198-11.647 19.911-55.302 32.005z"/><path d="m323.415 446.096c-3.49 0-6.319 2.829-6.319 6.319v15.958c0 3.49 2.829 6.319 6.319 6.319s6.319-2.829 6.319-6.319v-15.958c0-3.49-2.83-6.319-6.319-6.319z"/><path d="m360.764 403.432c3.489 0 6.319-2.829 6.319-6.319v-15.958c0-3.49-2.829-6.319-6.319-6.319s-6.319 2.829-6.319 6.319v15.958c0 3.49 2.829 6.319 6.319 6.319z"/><path d="m414.207 389.715c3.49 0 6.319-2.829 6.319-6.319v-15.957c0-3.489-2.829-6.319-6.319-6.319s-6.319 2.829-6.319 6.319v15.957c.001 3.49 2.83 6.319 6.319 6.319z"/></g><g><path d="m379.557 2.577-8.651 24.325c-.37 1.041-1.104 1.867-2.029 2.284l-21.611 9.737c-3.053 1.376-3.053 6.24 0 7.616l21.611 9.737c.925.417 1.659 1.242 2.029 2.284l8.651 24.324c1.222 3.437 5.544 3.437 6.766 0l8.651-24.324c.37-1.041 1.103-1.867 2.029-2.284l21.611-9.737c3.053-1.376 3.053-6.24 0-7.616l-21.611-9.737c-.925-.417-1.659-1.242-2.029-2.284l-8.651-24.325c-1.222-3.436-5.544-3.436-6.766 0z" fill="#ffc8b7"/><path d="m50.598 55.676-6.417 18.043c-.275.773-.819 1.385-1.505 1.694l-16.031 7.222c-2.265 1.021-2.265 4.629 0 5.649l16.031 7.223c.686.309 1.23.922 1.505 1.694l6.417 18.044c.907 2.549 4.112 2.549 5.019 0l6.417-18.044c.275-.772.819-1.385 1.505-1.694l16.031-7.223c2.265-1.021 2.265-4.629 0-5.649l-16.03-7.222c-.687-.309-1.23-.922-1.505-1.694l-6.417-18.043c-.907-2.55-4.113-2.55-5.02 0z" fill="#ffc8b7"/><g fill="#ffa785"><circle cx="208.323" cy="29.923" r="18.889"/><ellipse cx="472.33" cy="107.713" rx="8.148" ry="8.148" transform="matrix(.707 -.707 .707 .707 62.177 365.536)"/></g></g></g></svg>