<svg id="Capa_1" enable-background="new 0 0 505.353 505.353" height="512" viewBox="0 0 505.353 505.353" width="512" xmlns="http://www.w3.org/2000/svg"><g><g><path d="m61.362 493.524c-7.294.386-14.646-2.715-19.421-8.953-7.688-10.045-5.776-24.42 4.269-32.107l336.196-257.28c2.493-2.063 14.014-11.39 27.939-19.428 26.054-15.037 47.468-17.805 63.652-8.23 29.826 17.65 20.61 63.319 17.582 78.326-2.502 12.399-14.581 20.421-26.981 17.92-12.399-2.501-20.422-14.582-17.92-26.981 3.192-15.818 3.039-24.42 2.491-28.613-8.599 2.188-25.143 11.864-37.713 22.425-.266.224-.559.46-.835.67l-336.572 257.566c-3.807 2.914-8.236 4.449-12.687 4.685z" fill="#ad84e6"/><path d="m13.084 398.349c-1.859 7.064-.316 14.893 4.823 20.834 8.274 9.567 22.739 10.614 32.305 2.34l320.19-276.946c2.526-2.022 13.998-11.409 24.697-23.412 20.014-22.457 27.073-42.864 20.984-60.654-11.226-32.788-57.815-33.039-73.124-33.121-12.648-.068-22.956 10.131-23.026 22.78-.069 12.649 10.131 22.958 22.78 23.026 16.137.087 24.528 1.984 28.523 3.372-3.888 7.975-16.723 22.21-29.616 32.374-.273.215-.564.454-.826.682l-320.547 277.254c-3.626 3.136-6.029 7.161-7.163 11.471z" fill="#ad84e6"/><path d="m210.033 158.339c18.205 32.775 26.237 66.57 7.646 104.791 23.67-24.008 59.435-26.738 99.239-22.363 14.686 1.614 21.088 19.381 10.817 30.001-24.59 25.428-54.014 42.466-95.335 37.669 37.293 19.808 52.335 52.678 56.314 91.473 1.396 13.608-12.335 23.657-24.847 18.127-45.965-20.314-70.524-47.717-70.007-81.6 1.134 35.624-26.488 59.95-66.918 79.243-12.92 6.165-27.389-4.824-25.08-18.952 8.22-50.306 24.147-83.852 53.459-88.291-35.662 7.758-66.99-9.603-96.152-39.515-10.031-10.29-4.372-27.557 9.801-29.929 49.145-8.222 84.404-1.827 101.071 24.137-17.005-30.351-10.029-66.868 8.669-103.999 6.396-12.698 24.419-13.22 31.323-.792z" fill="#fff2a5"/><path d="m316.918 240.767c-11.365-1.249-22.398-1.915-32.916-1.676.078 3.65-1.204 7.393-4.139 10.428-20.288 20.98-44.565 35.037-78.657 31.079 30.769 16.342 43.179 43.462 46.462 75.47 1.152 11.227-10.177 19.518-20.5 14.956-12.454-5.504-22.99-11.643-31.528-18.391 6.38 26.512 29.827 48.434 68.227 65.404 12.512 5.529 26.243-4.52 24.847-18.127-3.979-38.796-19.021-71.666-56.314-91.474 41.321 4.798 70.745-12.24 95.335-37.669 10.271-10.619 3.869-28.386-10.817-30z" fill="#ffb7a9"/><path d="m169.409 303.699c.936 29.392-21.854 49.462-55.211 65.379-2.297 1.097-4.654 1.532-6.918 1.43-2.095 8.109-3.89 16.874-5.417 26.22-2.309 14.129 12.16 25.118 25.08 18.952 34.964-16.685 60.331-37.14 65.823-65.404 0 0 3.568-15.777 0-20.962-6.661-9.679-23.357-25.615-23.357-25.615z" fill="#ffb7a9"/><path d="m195.424 251.211c9.123 13.303 39.266 58.868 22.317 75.817s-61.367-29.477-70.49-42.779c-9.123-13.303-5.735-31.482 7.568-40.605 13.303-9.124 31.482-5.736 40.605 7.567z" fill="#ffe35c"/></g><path d="m479.09 158.919c-19.522-11.551-44.331-8.798-73.743 8.176-14.139 8.161-25.718 17.418-29.165 20.26l-57.024 43.639c-.382-.058-.761-.124-1.147-.167-9.465-1.04-19.592-1.837-29.908-1.844l88.699-76.72c3.479-2.794 14.888-12.243 25.762-24.445 22.593-25.351 30.325-49.086 22.98-70.546-13.528-39.512-65.464-39.79-82.532-39.882h-.178c-18.058 0-32.801 14.644-32.901 32.727-.047 8.788 3.331 17.069 9.512 23.317 6.182 6.248 14.426 9.715 23.214 9.762 4.353.023 8.052.187 11.175.428-5.007 5.677-11.573 12.079-18.407 17.466-.392.31-.811.654-1.176.971l-100.376 86.819c-3.817-13.582-9.606-25.504-15.1-35.396h-.001c-4.971-8.95-14.44-14.406-24.681-14.172-10.344.21-19.661 6.081-24.315 15.321-14.857 29.505-21.182 56.094-18.949 79.467-5.176-2.37-10.833-4.244-16.96-5.616-18.035-4.04-39.804-3.827-66.55.646-10.244 1.714-18.61 8.9-21.834 18.756-3.223 9.85-.723 20.585 6.522 28.017 14.391 14.762 28.644 25.8 42.894 33.18l-81.197 70.231c-5.042 4.359-8.601 10.062-10.293 16.49-2.769 10.518-.178 21.703 6.93 29.922 5.75 6.646 13.744 10.657 22.509 11.292 8.686.643 17.268-2.175 23.901-7.932l34.882-30.171c-.051 1.975.11 3.929.467 5.836l-51.969 39.771c-6.979 5.342-11.461 13.081-12.619 21.793-1.159 8.712 1.145 17.354 6.486 24.333 6.248 8.165 15.917 12.908 26.14 12.908 7.225.006 14.24-2.368 19.986-6.775l131.073-100.306c12.211 11.515 28.51 21.819 48.626 30.709 9.083 4.024 19.411 2.984 27.525-2.919 8.108-5.893 12.337-15.379 11.312-25.375-2.256-21.991-7.815-40.761-16.768-56.516l134.793-103.151c.398-.304.819-.643 1.201-.964 6.663-5.598 14.264-10.726 20.839-14.476-.398 3.107-.99 6.762-1.851 11.029-1.739 8.615-.019 17.392 4.844 24.713s12.286 12.311 20.902 14.049c17.784 3.587 35.171-7.964 38.76-25.744 3.378-16.73 13.652-67.641-22.29-88.911zm-131.743-41.743c.147-.128.31-.262.462-.381 13.832-10.903 27.767-26.312 32.415-35.845 1.253-2.57 1.346-5.554.255-8.197-1.091-2.644-3.261-4.693-5.962-5.632-7.183-2.495-18.162-3.853-31.751-3.926-3.446-.019-6.679-1.378-9.103-3.828s-3.749-5.697-3.73-9.143c.039-7.092 5.82-12.835 12.903-12.835h.069c13.552.072 54.793.293 63.716 26.359 4.833 14.122-1.555 31.2-18.988 50.762-10.256 11.508-21.358 20.561-23.48 22.258-.099.08-.197.161-.293.244l-110.703 95.752c-5.71 1.393-11.313 3.226-16.722 5.609 1.732-9.265 2.096-18.136 1.498-26.562zm-122.547 152.975c18.117-18.374 46.192-24.372 91.025-19.443 4.344.478 5.959 3.705 6.452 5.071.494 1.368 1.313 4.891-1.73 8.038-26.93 27.848-53.762 38.548-86.993 34.686-2.391-.272-4.711.321-6.612 1.559-2.195-8.631-6.214-17.913-11.126-27.111 3.19.603 6.58-.361 8.984-2.8zm-40.919 69.478c-.547 26.028-20.106 47.395-61.246 67.025-3.765 1.799-6.764.044-7.88-.792-1.139-.854-3.714-3.299-3.024-7.522 7.884-48.247 21.698-74.29 42.178-79.433 1.179-.21 2.356-.442 3.537-.699 3.398-.739 6.014-3.133 7.19-6.159 6.851 6.34 14.565 12.602 22.249 17.228-1.83 1.782-2.983 4.259-3.025 7.009-.016 1.118-.009 2.234.021 3.343zm-35.742-72.594c.038-1.183.163-2.371.384-3.557 1.136-6.094 4.577-11.381 9.689-14.887 3.769-2.584 8.114-3.96 12.578-4.057 11.905.312 21.495 10.086 21.495 22.063 0 12.175-9.904 22.079-22.079 22.079-12.027.002-21.832-9.667-22.067-21.641zm21.823 33.637c.082 0 .163.006.245.006 15.893 0 29.278-10.938 33.029-25.68 13.103 23.391 17.083 40.968 10.263 47.787-.959.96-2.653 2.2-6.29 1.86-10.414-.961-25.336-12.527-37.247-23.973zm17.681-137.043c1.92-3.814 5.435-4.293 6.857-4.321 1.388-.028 4.797.297 6.791 3.887 19.865 35.765 22.146 65.236 7.396 95.561-.176.361-.319.73-.448 1.102-2.562-4.132-5.213-8.172-7.865-12.04-5.319-7.756-13.34-12.976-22.584-14.698-2.315-.432-4.637-.63-6.939-.604-1.974-19.671 3.613-42.718 16.792-68.887zm-121.313 98.313c-2.972-3.049-2.273-6.497-1.835-7.837.439-1.344 1.916-4.544 6.126-5.248 29.651-4.96 52.765-4.132 69.17 2.403-2.336 4.614-3.662 9.823-3.662 15.339 0 .144.009.286.011.43-.161 7.308 1.948 14.466 6.164 20.613 1.604 2.34 4.904 6.433 9.324 11.289-.64.124-1.275.257-1.905.403-27.499 4.612-54.102-7.349-83.393-37.392zm-22.661 152.018c-2.606 2.255-5.933 3.35-9.372 3.11-3.438-.249-6.572-1.822-8.827-4.429-2.788-3.224-3.803-7.614-2.716-11.746 0-.001.001-.001.001-.001.661-2.511 2.055-4.742 4.034-6.453l89.16-77.118c1.439.382 2.879.728 4.32 1.036-9.371 11.388-16.809 27.588-22.398 48.72zm24.302 66.939c-2.077 1.589-4.544 2.502-7.137 2.639h-.002c-4.266.234-8.359-1.658-10.95-5.044-2.095-2.737-2.998-6.126-2.544-9.543.455-3.416 2.212-6.451 4.949-8.546l50.417-38.582c.016.012.03.025.046.037 8.263 6.199 19.184 7.289 28.498 2.846 23.204-11.073 40.254-22.777 52.124-35.781 4.11-4.503 7.609-9.19 10.49-14.049 1.262 2.201 2.658 4.365 4.158 6.5zm207.621-72.813c-1.081.785-3.992 2.434-7.683.805-41.518-18.349-63.039-41.695-64.022-69.429.013-1.052.001-2.11-.031-3.173.758.135 1.507.237 2.247.306.765.071 1.517.105 2.257.105 5.372 0 10.048-1.854 13.623-5.43 3.715-3.715 5.74-8.346 6.46-13.598 30.168 16.312 46.171 42.789 50.322 83.258.419 4.073-2.079 6.361-3.173 7.156zm-12.622-90.021c10.117-1.498 19.827-4.412 29.24-8.768l-21.781 16.668c-2.345-2.755-4.827-5.391-7.459-7.9zm218.807-74.192c-1.407 6.973-8.224 11.508-15.202 10.096-3.378-.682-6.289-2.638-8.195-5.509-1.907-2.871-2.582-6.312-1.9-9.691 2.689-13.322 3.588-24.349 2.604-31.887-.371-2.835-1.937-5.376-4.304-6.98-2.367-1.605-5.308-2.119-8.078-1.415-10.275 2.614-28.194 13.13-41.682 24.461-.149.125-.314.259-.479.385l-67.028 51.294c5.339-7.38 6.737-16.876 3.575-25.637-.896-2.483-2.114-4.776-3.597-6.842l50.992-39.022c.101-.077.2-.155.297-.236 2.096-1.734 13.229-10.774 26.564-18.472 14.382-8.301 26.884-12.46 37.384-12.46 6.069 0 11.47 1.391 16.175 4.175 23.713 14.03 15.555 54.456 12.874 67.74z" fill="#4e0325"/><g><path d="m230.379 4.245-8.214 23.098c-.352.989-1.048 1.773-1.927 2.169l-20.521 9.246c-2.899 1.306-2.899 5.926 0 7.232l20.521 9.246c.879.396 1.575 1.18 1.927 2.168l8.214 23.098c1.161 3.263 5.265 3.263 6.425 0l8.214-23.098c.352-.989 1.048-1.773 1.927-2.168l20.521-9.246c2.899-1.306 2.899-5.926 0-7.232l-20.521-9.246c-.879-.396-1.575-1.18-1.927-2.169l-8.214-23.098c-1.16-3.264-5.264-3.264-6.425 0z" fill="#d3b5f2"/><path d="m24.358 121.024-6.093 17.133c-.261.734-.777 1.315-1.429 1.609l-15.222 6.858c-2.151.969-2.151 4.395 0 5.364l15.222 6.858c.652.294 1.168.875 1.429 1.609l6.093 17.133c.861 2.42 3.905 2.42 4.766 0l6.093-17.133c.261-.734.777-1.315 1.429-1.609l15.222-6.858c2.15-.969 2.15-4.395 0-5.364l-15.222-6.858c-.652-.294-1.168-.875-1.429-1.609l-6.093-17.133c-.861-2.421-3.905-2.421-4.766 0z" fill="#d3b5f2"/><g fill="#ad84e6"><ellipse cx="54.095" cy="54.803" rx="17.937" ry="17.937" transform="matrix(.987 -.159 .159 .987 -8.039 9.317)"/><circle cx="140.248" cy="84.646" r="7.737"/></g></g></g></svg>