<svg id="Capa_1" enable-background="new 0 0 512 512" height="512" viewBox="0 0 512 512" width="512" xmlns="http://www.w3.org/2000/svg"><g><g><path d="m257.94 79.801h-19.682c-12.455 0-22.552-10.097-22.552-22.552v-24.603c0-12.455 10.097-22.552 22.552-22.552h19.682c12.455 0 22.552 10.097 22.552 22.552v24.603c.001 12.455-10.096 22.552-22.552 22.552z" fill="#ff8cc0"/><path d="m284.475 154.718h-72.75c-7.984 0-14.456-6.472-14.456-14.456v-72.75c0-7.983 6.472-14.455 14.456-14.455h72.75c7.984 0 14.456 6.472 14.456 14.455v72.75c-.001 7.984-6.473 14.456-14.456 14.456z" fill="#ff8cc0"/><path d="m356.832 233.566c0-71.619-48.681-129.678-108.733-129.678-60.051 0-108.732 58.059-108.732 129.678 0 20.215 3.881 39.348 10.8 56.401 6.558 16.162 6.558 34.195 0 50.357-6.92 17.052-10.8 36.185-10.8 56.4 0 43.296 17.794 81.629 45.132 105.182h127.201c27.338-23.553 45.132-61.886 45.132-105.182 0-20.215-3.881-39.348-10.801-56.4-6.558-16.162-6.558-34.195 0-50.357 6.92-17.053 10.801-36.186 10.801-56.401z" fill="#ffc5dd"/><path d="m150.168 340.323c-3.53 8.7-6.264 17.944-8.101 27.596h212.066c-1.836-9.651-4.57-18.895-8.101-27.596-6.558-16.162-6.558-34.195 0-50.357 6.92-17.052 10.801-36.185 10.801-56.401 0-3.946-.157-7.848-.446-11.704h-216.574c-.289 3.856-.446 7.758-.446 11.704 0 20.216 3.881 39.349 10.801 56.401 6.558 16.162 6.558 34.195 0 50.357z" fill="#fff2a5"/><path d="m198.273 321.985c-18.364-17.6-18.771-53.483-9.426-63.234 9.345-9.75 45.213-10.868 63.577 6.732s14.43 38.096-.523 53.698c-14.954 15.603-35.264 20.404-53.628 2.804z" fill="#ff8cc0"/><path d="m299.53 323.706c-15.454 20.203-51.071 24.588-61.798 16.382-10.727-8.205-15.817-43.728-.363-63.931s36.26-18.567 53.425-5.437c17.166 13.13 24.191 32.783 8.736 52.986z" fill="#ff8cc0"/><path d="m346.031 289.967c6.92-17.053 10.801-36.186 10.801-56.402 0-71.619-48.681-129.678-108.733-129.678-3.017 0-6.003.153-8.958.441 46.732 4.947 83.373 51.753 83.373 108.774 0 17.026-3.269 33.14-9.096 47.501-5.514 13.588-5.514 28.821 0 42.408 5.828 14.362 9.097 30.476 9.097 47.502 0 26.481-7.904 50.758-21.05 69.663-8.304 11.942-22.053 18.921-36.599 18.921h-67.842c-14.617 0-28.396-7.067-36.717-19.084-9.324-13.466-15.992-29.644-19.053-47.394-1.232 7.812-1.887 15.866-1.887 24.105 0 43.296 17.794 81.629 45.132 105.182h127.201c27.338-23.553 45.132-61.887 45.132-105.182 0-20.216-3.881-39.349-10.801-56.402-6.558-16.161-6.558-34.194 0-50.355z" fill="#ff94de"/><path d="m356.832 233.565c0-3.946-.156-7.848-.446-11.704h-34.168c-.919 13.794-3.981 26.868-8.799 38.741-5.514 13.588-5.514 28.82 0 42.408 5.828 14.362 9.097 30.476 9.097 47.502 0 5.927-.417 11.735-1.179 17.406h32.796c-1.837-9.651-4.57-18.895-8.101-27.596-6.558-16.162-6.558-34.195 0-50.357 6.919-17.051 10.8-36.184 10.8-56.4z" fill="#ffb7a9"/><path d="m303.891 288.734-1.45-4.32 4.549.269c5.42.32 10.073-3.814 10.393-9.234s-3.815-10.073-9.234-10.394l-12.452-.735-3.969-11.826c-1.727-5.147-7.301-7.919-12.448-6.192-5.147 1.728-7.92 7.301-6.192 12.448l1.45 4.321-4.549-.269c-5.42-.32-10.073 3.814-10.394 9.234-.2 3.388 1.34 6.477 3.847 8.394 1.504 1.15 3.355 1.879 5.387 1.999l12.452.735 3.969 11.826c.648 1.93 1.836 3.526 3.339 4.676 2.507 1.918 5.891 2.596 9.109 1.516 5.148-1.728 7.92-7.301 6.193-12.448z" fill="#00ebc4"/><g fill="#fff"><path d="m185.497 204.486c-1.247 0-2.516-.233-3.745-.724-5.176-2.07-7.695-7.944-5.625-13.121 4.364-10.914 10.442-20.933 18.067-29.78 3.639-4.223 10.013-4.697 14.236-1.057 4.223 3.639 4.697 10.013 1.057 14.236-6.164 7.153-11.081 15.261-14.615 24.097-1.577 3.947-5.369 6.349-9.375 6.349z"/><path d="m226.316 157.342c-3.54 0-6.975-1.865-8.823-5.176-2.718-4.868-.974-11.016 3.893-13.734 1.735-.969 3.219-1.721 4.669-2.368 5.09-2.273 11.06.015 13.331 5.107s-.016 11.06-5.107 13.331c-.886.395-1.855.89-3.051 1.558-1.557.869-3.246 1.282-4.912 1.282z"/></g></g><g fill="#4e0325"><path d="m355.384 293.762c7.659-18.872 11.542-39.125 11.542-60.196 0-50.892-23.247-95.512-57.902-119.957v-46.097c0-11.427-7.849-21.056-18.438-23.78v-11.086c.001-18.001-14.644-32.646-32.645-32.646h-19.682c-18.001 0-32.646 14.645-32.646 32.646v11.087c-10.59 2.724-18.438 12.352-18.438 23.78v46.096c-34.655 24.445-57.902 69.065-57.902 119.957 0 21.07 3.883 41.324 11.541 60.196 5.596 13.789 5.596 28.977 0 42.766-7.658 18.873-11.541 39.126-11.541 60.196 0 44.411 18.182 86.591 48.637 112.83 1.833 1.578 4.17 2.447 6.589 2.447h127.201c2.418 0 4.756-.868 6.589-2.447 30.455-26.239 48.638-68.418 48.638-112.83 0-21.071-3.883-41.324-11.541-60.196-5.597-13.789-5.597-28.977-.002-42.766zm-195.863-7.591c-6.675-16.45-10.06-34.149-10.06-52.605 0-1.334.025-2.662.061-3.986h197.155c.036 1.324.061 2.652.061 3.986 0 18.456-3.385 36.155-10.061 52.605-7.582 18.684-7.582 39.264.001 57.948 2.253 5.553 4.122 11.251 5.622 17.07h-188.401c1.5-5.818 3.369-11.517 5.622-17.07 7.582-18.684 7.582-39.264 0-57.948zm78.737-265.982h19.682c6.869 0 12.457 5.588 12.457 12.458v10.316h-44.597v-10.317c.001-6.869 5.589-12.457 12.458-12.457zm-30.895 47.323c0-2.405 1.957-4.361 4.362-4.361h72.75c2.404 0 4.361 1.957 4.361 4.361v34.743c-12.712-5.473-26.433-8.463-40.736-8.463s-28.025 2.989-40.736 8.463v-34.743zm40.737 46.47c49.886 0 91.236 45.133 97.742 103.485h-195.484c6.506-58.353 47.855-103.485 97.742-103.485zm59.75 377.829h-119.502c-24.413-22.604-38.887-57.843-38.887-95.088 0-7.962.633-15.781 1.885-23.421h193.506c1.252 7.64 1.886 15.46 1.886 23.421 0 37.245-14.474 72.485-38.888 95.088z"/><path d="m194.082 326.357c8.851 8.484 18.867 12.894 29.173 12.894 1.24 0 2.484-.064 3.73-.192.595-.061 1.188-.16 1.781-.251 1.565 2.522 3.337 4.6 5.286 6.091 4.432 3.39 11.477 5.158 19.751 5.158 4.485 0 9.333-.52 14.318-1.583 15.254-3.252 28.455-10.938 36.219-21.088 9.339-12.208 11.933-25.281 8.135-37.42 6.03-1.968 10.557-7.456 10.953-14.162.516-8.744-6.179-16.278-14.923-16.796l-8.368-.494-2.667-7.948c-1.35-4.023-4.187-7.28-7.986-9.17-3.801-1.891-8.109-2.188-12.132-.837-6.363 2.135-10.473 7.932-10.8 14.262-5.024-.194-9.922.631-14.592 2.436-9.028-6.59-21.207-10.7-34.367-11.443-14.472-.816-27.166 2.534-33.12 8.747-5.954 6.212-8.763 19.034-7.332 33.462 1.541 15.52 7.715 29.492 16.941 38.334zm100.638-6.331c-6.036 7.891-16.652 13.942-29.124 16.601-11.514 2.455-20.88 1.179-24.184-1.349-3.305-2.528-6.987-11.235-7.632-22.987-.698-12.734 2.363-24.562 8.4-32.453 3.767-4.924 7.7-8.159 11.626-10.151-.122.655-.218 1.317-.258 1.993-.311 5.278 2.013 10.347 6.214 13.561 2.521 1.928 5.532 3.047 8.709 3.235l8.369.494 2.668 7.948c1.012 3.016 2.879 5.63 5.401 7.56 2.815 2.154 6.213 3.275 9.657 3.275 1.697 0 3.405-.272 5.059-.828.639-.214 1.25-.479 1.847-.766-.894 4.306-2.988 8.946-6.752 13.867zm-15.372-53.277c1.222-1.598 1.571-3.699.931-5.607l-1.45-4.32c-.663-1.973.404-4.117 2.378-4.779.955-.321 1.979-.25 2.882.199s1.576 1.222 1.897 2.178l3.969 11.826c.787 2.343 2.918 3.973 5.385 4.119l12.451.735c2.078.123 3.669 1.913 3.547 3.99s-1.905 3.67-3.991 3.546l-4.549-.269c-2-.117-3.945.768-5.167 2.366s-1.571 3.7-.932 5.607l1.45 4.32c.321.955.25 1.979-.198 2.882-.449.902-1.223 1.577-2.179 1.898-1.196.399-2.502.181-3.501-.585-.595-.455-1.037-1.075-1.277-1.793l-3.97-11.826c-.787-2.343-2.918-3.973-5.385-4.119l-12.451-.735c-.756-.044-1.471-.309-2.065-.764-1.002-.766-1.555-1.972-1.482-3.226.06-1.007.508-1.93 1.262-2.6.697-.619 1.577-.953 2.502-.953.075 0 .152.002.228.007l4.549.269c1.993.11 3.943-.768 5.166-2.366zm-86.128-3.807c2.58-2.692 10.128-5.135 20.127-5.135 1.156 0 2.347.033 3.565.102 8.772.495 16.912 2.723 23.477 6.306-2.763 2.332-5.389 5.072-7.829 8.263-7.764 10.15-11.727 24.903-10.873 40.476.278 5.069 1.049 9.853 2.215 14.168-7.423.205-14.628-2.983-21.437-9.509v-.001c-16.854-16.151-15.655-47.982-9.245-54.67z"/><path d="m250.643 395.676c-3.345 0-6.057 2.712-6.057 6.057v15.296c0 3.345 2.712 6.056 6.057 6.056s6.057-2.712 6.057-6.056v-15.296c0-3.345-2.712-6.057-6.057-6.057z"/><path d="m288.489 419.677c-3.345 0-6.056 2.712-6.056 6.057v15.296c0 3.345 2.712 6.057 6.056 6.057s6.057-2.712 6.057-6.057v-15.296c0-3.345-2.712-6.057-6.057-6.057z"/></g><g><g fill="#ffc5dd"><path d="m466.881 130.481-8.292 23.315c-.355.998-1.058 1.789-1.945 2.189l-20.715 9.333c-2.927 1.319-2.927 5.981 0 7.3l20.715 9.333c.887.4 1.59 1.191 1.945 2.189l8.292 23.315c1.172 3.294 5.314 3.294 6.486 0l8.292-23.315c.355-.998 1.058-1.789 1.945-2.189l20.715-9.333c2.927-1.319 2.927-5.981 0-7.3l-20.715-9.333c-.887-.4-1.59-1.191-1.945-2.189l-8.292-23.315c-1.172-3.294-5.314-3.294-6.486 0z"/><path d="m38.633 69.747-8.292 23.315c-.355.998-1.058 1.789-1.945 2.189l-20.715 9.333c-2.927 1.319-2.927 5.981 0 7.3l20.715 9.333c.887.4 1.59 1.191 1.945 2.189l8.292 23.315c1.171 3.294 5.314 3.294 6.486 0l8.292-23.315c.355-.998 1.058-1.789 1.945-2.189l20.715-9.333c2.926-1.318 2.926-5.981 0-7.3l-20.715-9.333c-.887-.4-1.59-1.191-1.945-2.189l-8.292-23.315c-1.172-3.294-5.314-3.294-6.486 0z"/><path d="m371.385 19.52-6.151 17.295c-.263.741-.785 1.327-1.443 1.624l-15.366 6.923c-2.171.978-2.171 4.437 0 5.415l15.366 6.923c.658.296 1.179.883 1.443 1.624l6.151 17.295c.869 2.443 3.942 2.443 4.811 0l6.151-17.295c.263-.741.785-1.327 1.443-1.624l15.366-6.923c2.171-.978 2.171-4.437 0-5.415l-15.366-6.923c-.658-.297-1.179-.883-1.443-1.624l-6.151-17.295c-.869-2.443-3.942-2.443-4.811 0z"/></g><ellipse cx="64.938" cy="294.89" fill="#ff8cc0" rx="18.106" ry="18.106" transform="matrix(.987 -.16 .16 .987 -46.398 14.21)"/><path d="m123.746 40.475c0 4.314 3.497 7.81 7.81 7.81s7.81-3.497 7.81-7.81c0-4.314-3.497-7.81-7.81-7.81s-7.81 3.497-7.81 7.81z" fill="#ff8cc0"/></g></g></svg>