<svg id="Capa_1" enable-background="new 0 0 512 512" height="512" viewBox="0 0 512 512" width="512" xmlns="http://www.w3.org/2000/svg"><g><g><path d="m484.967 409.552s-35.555 33.19-50.796 42.491c-34.063 20.785-101.074 34.92-178.171 34.92s-144.108-14.135-178.171-34.92c-15.241-9.3-50.796-42.491-50.796-42.491" fill="#98e8f2"/><ellipse cx="256" cy="385.382" fill="#98e8f2" rx="245.905" ry="66.144"/><path d="m501.905 385.381c0-20.964-36.269-39.648-92.84-51.767l-5.758 31.725c97.137 13.76-62.585 90.987-184.324 86.186-60.451-2.384-115.022-7.454-145.722-17.092v14.557c1.658 1.181 3.198 2.216 4.568 3.052 34.062 20.785 101.074 34.92 178.171 34.92s144.109-14.135 178.171-34.92c15.241-9.3 50.796-42.491 50.796-42.491h-.002c10.932-7.486 16.94-15.639 16.94-24.17z" fill="#a6aff4"/><circle cx="197.414" cy="193.141" fill="#ff8cc0" r="37.516"/><ellipse cx="279.5" cy="224.638" fill="#c37777" rx="65.185" ry="65.185" transform="matrix(.707 -.707 .707 .707 -76.979 263.431)"/><path d="m86.184 279.53c67.196 26.607 136.888 52.369 209.9 39.662 35.953-5.393 71.5-17.946 105.843-31.469 8.126-3.147 16.057-6.496 24.384-9.301 14.154-4.765 29.491 2.847 34.256 17.001 6.508 19.197-10.645 32.954-21.913 45.703-98.185 102.372-260.11 104.578-360.671 4.401-8.214-8.062-15.903-16.707-22.775-25.937-15.719-21.082 6.937-49.866 30.976-40.06z" fill="#fff2a5"/><path d="m208.624 220.474c-34.394-9.819-70.236 10.102-80.056 44.497-5.36 18.775-1.561 33.361 8.575 44.342v32.107c0 10.721 8.691 19.413 19.412 19.413s19.412-8.692 19.412-19.413v-11.334c10.113 2.726 20.223 4.181 29.689 3.993v46.545c0 10.721 8.691 19.412 19.412 19.412s19.413-8.691 19.413-19.412v-63.032c3.731-4.592 6.687-10.225 8.639-17.06 9.82-34.396-10.102-70.238-44.496-80.058z" fill="#fff"/><path d="m173.737 325.424h-6.393c-2.407 5.023-7.474 8.582-13.316 8.469-4.723-.092-8.882-2.447-11.469-6.016v13.358c0 10.526 8.185 19.491 18.705 19.865 4.7.167 9.035-1.349 12.474-3.977v-31.699z" fill="#ffc0fe"/><path d="m208.624 220.474c-8.908-2.543-17.911-3.076-26.536-1.894 1.926.305 3.853.715 5.775 1.263 25.737 7.348 40.645 34.169 33.297 59.906-.764 2.675-1.733 5.104-2.883 7.304-2.3 4.399-3.581 9.255-3.581 14.218v38.411c0 6.079-3.738 11.28-9.038 13.445v27.029c0 10.526 8.185 19.491 18.704 19.865 11.044.393 20.12-8.443 20.12-19.4v-63.032c3.731-4.592 6.687-10.226 8.639-17.061 9.819-34.392-10.103-70.234-44.497-80.054z" fill="#ffc0fe"/><path d="m377.741 276.925c-5.486-35.345-38.586-59.551-73.931-54.065s-59.551 38.586-54.065 73.931c5.135 33.085 31.607 37.32 63.961 33.227v8.808c0 10.721 8.691 19.412 19.413 19.412 10.721 0 19.412-8.691 19.412-19.412v-18.004c18.004-7.614 28.844-20.478 25.21-43.897z" fill="#ffc5dd"/><path d="m377.741 276.925c-5.357-34.516-37.05-58.393-71.45-54.386 21.666 2.892 39.766 19.697 43.288 42.393 2.231 14.377-2.52 23.662-11.482 29.867-5.238 3.626-8.216 9.718-8.216 16.089v2.408c0 7.992-6.186 14.525-14.028 15.109v19.271c3.234 6.296 9.793 10.602 17.368 10.562 10.76-.056 19.309-9.133 19.309-19.893v-17.523c18.005-7.615 28.845-20.477 25.211-43.897z" fill="#ff94de"/><g fill="#fff"><path d="m311.72 264.496c-4.72 0-8.938-3.326-9.891-8.133-1.085-5.469 2.469-10.783 7.937-11.867l3.463-.687c5.48-1.092 10.783 2.469 11.867 7.937 1.085 5.469-2.469 10.783-7.937 11.867l-3.463.687c-.664.133-1.325.196-1.976.196z"/><path d="m282.828 296.798c-.619 0-1.245-.057-1.875-.176-5.48-1.029-9.088-6.305-8.059-11.785 1.078-5.739 3.22-11.418 6.367-16.875 2.785-4.83 8.955-6.488 13.789-3.703 4.83 2.785 6.488 8.958 3.703 13.789-2.007 3.481-3.358 7.02-4.015 10.517-.911 4.849-5.15 8.233-9.91 8.233z"/></g></g><path d="m512 385.381c0-19.103-19.012-35.823-55.281-48.959 9.908-11.165 19.727-25.602 13.416-44.22-3.165-9.401-9.802-17.008-18.688-21.417-8.885-4.411-18.956-5.097-28.36-1.93-6.219 2.095-12.211 4.474-18.006 6.775-2.261.898-4.523 1.796-6.854 2.699-3.236 1.274-6.502 2.545-9.786 3.806-.127-2.194-.365-4.446-.724-6.759 0 0 0 0 0-.001-3.376-21.746-15.854-39.861-32.945-51.082-.187-41.352-33.878-74.937-75.272-74.937-16.642 0-32.024 5.445-44.496 14.625-8.426-10.844-21.42-17.964-36.075-18.425.726-10.242 2.747-19.755 5.584-22.683 3.881-4.005 3.781-10.395-.223-14.276s-10.396-3.781-14.276.223c-7.823 8.072-11.145 24.961-11.551 40.653-16.849 7.341-28.661 24.147-28.661 43.667 0 8.5 2.249 16.479 6.171 23.392-.499.263-1.003.51-1.497.785-17.477 9.715-30.126 25.654-35.614 44.881-1.789 6.266-2.705 12.315-2.777 18.1-8.622-3.256-17.325-6.649-26.136-10.137-15.084-6.126-32.034-1.426-42.199 11.706-10.292 13.297-10.541 30.472-.64 43.752 2.669 3.585 5.512 7.151 8.502 10.68-36.488 13.154-55.612 29.92-55.612 49.082 0 11.476 6.854 22.094 20.188 31.591 1.859 1.736 36.539 34.02 52.382 43.687 36.792 22.451 107.078 36.398 183.429 36.398 76.352 0 146.638-13.947 183.43-36.398 15.846-9.669 50.535-41.963 52.384-43.689 13.334-9.495 20.187-20.113 20.187-31.589zm-106.427-88.243c2.332-.904 4.647-1.823 6.96-2.742 5.805-2.305 11.288-4.483 16.998-6.405 4.291-1.444 8.885-1.133 12.941.881 4.055 2.012 7.083 5.483 8.534 9.794 3.366 9.927-3.221 17.905-14.469 29.864-1.768 1.879-3.595 3.82-5.308 5.753-45.688 47.559-106.926 74.163-172.451 74.91-.946.011-1.88.017-2.825.017-6.95 0-13.852-.31-20.701-.89 11.268-4.156 19.325-15.003 19.325-27.696v-47.96c1.857.013 3.716 0 5.577-.029 13.61 8.814 30.975 9.423 43.549 8.563 1.212 15.165 13.941 27.137 29.414 27.137 16.27 0 29.508-13.238 29.508-29.508v-11.633c10.51-5.596 17.832-12.959 21.953-22.025 7.101-2.631 14.113-5.321 20.995-8.031zm-37.808-18.664c2.58 16.626-2.974 26.202-19.167 33.05-3.736 1.579-6.164 5.242-6.164 9.298v18.004c0 5.137-4.179 9.317-9.317 9.317s-9.318-4.179-9.318-9.317v-8.808c0-2.898-1.245-5.657-3.42-7.574-1.854-1.635-4.231-2.522-6.675-2.522-.421 0-.844.027-1.267.08-32.184 4.068-44.915-2.545-50.125-15.016.176-.559.354-1.116.516-1.685 3.682-12.896 3.712-25.978.739-38.16 1.604-3.687 3.614-7.228 6.045-10.553 8.62-11.787 21.314-19.513 35.743-21.752 29.799-4.62 57.787 15.849 62.41 45.638zm-34.085-63.744c-9.935-2.763-20.587-3.527-31.419-1.847-19.556 3.036-36.774 13.436-48.569 29.295-6.98-10.827-16.741-19.902-28.631-26.008 4.085-26.371 26.94-46.623 54.438-46.623 26.994.001 49.499 19.521 54.181 45.183zm-163.687-21.589c0-8.533 3.919-16.166 10.049-21.199.347 1.796.742 3.439 1.182 4.886 1.325 4.355 5.327 7.16 9.655 7.16.973 0 1.964-.142 2.943-.44 5.334-1.623 8.342-7.263 6.72-12.598-.458-1.505-.825-3.248-1.114-5.15 8.756.639 16.378 5.407 20.931 12.363-7.081 8.999-12.155 19.641-14.55 31.257-10.14-2.085-20.448-2.058-30.398.05-3.4-4.565-5.418-10.213-5.418-16.329zm-31.716 74.601c4.009-14.042 13.245-25.681 26.009-32.776 12.762-7.094 27.523-8.794 41.567-4.785 28.986 8.275 45.836 38.591 37.561 67.576-1.501 5.258-3.779 9.789-6.767 13.467-1.462 1.8-2.26 4.047-2.26 6.366v63.032c0 5.137-4.18 9.317-9.318 9.317s-9.317-4.179-9.317-9.317v-46.545c0-2.712-1.091-5.311-3.029-7.209-1.889-1.853-4.427-2.887-7.067-2.887-.067 0-.134.001-.201.002-8.233.171-17.277-1.064-26.86-3.647-3.034-.817-6.273-.177-8.768 1.733-2.493 1.911-3.955 4.873-3.955 8.014v11.335c0 5.138-4.18 9.317-9.318 9.317-5.137 0-9.317-4.179-9.317-9.317v-32.107c0-2.538-.956-4.983-2.678-6.847-8.323-9.019-10.38-20.376-6.282-34.722zm-74.561 26.484c2.73-3.527 7.188-6.584 12.622-6.584 1.902 0 3.924.375 6.033 1.235.032.013.064.026.097.039 13.1 5.187 25.983 10.176 38.724 14.822 1.591 3.253 3.529 6.363 5.856 9.297v28.385c0 16.27 13.237 29.508 29.508 29.508 15.868 0 28.851-12.59 29.484-28.304 3.229.542 6.405.945 9.523 1.206v36.793c0 9.722 4.729 18.359 12.005 23.738-45.954-9.331-88.285-31.941-122.512-66.038-8.167-8.016-15.484-16.347-21.754-24.767-5.263-7.059-3.237-14.613.414-19.33zm6.955 58.268c.063.062.124.125.187.186 49.735 49.545 115.358 76.719 185.088 76.719 1.019 0 2.041-.006 3.062-.018 68.986-.786 133.567-28.016 182.556-76.815 36.76 11.796 50.245 24.721 50.245 32.815 0 4.166-3.581 9.613-12.056 15.527-.323.196-.638.412-.943.647-10.076 6.783-26.589 14.134-51.552 20.849-45.614 12.269-106.435 19.027-171.258 19.027s-125.643-6.757-171.258-19.027c-24.964-6.715-41.477-14.066-51.553-20.849-.304-.235-.618-.451-.941-.646-8.475-5.914-12.057-11.361-12.057-15.527 0-8.111 13.547-21.073 50.48-32.888zm185.328 124.373c-72.851 0-139.108-12.815-172.912-33.442-.484-.295-1.004-.632-1.54-.985 47.032 12.372 108.861 19.181 174.452 19.181s127.421-6.809 174.453-19.181c-.536.353-1.056.69-1.54.985-33.804 20.627-100.06 33.442-172.913 33.442z" fill="#4e0325"/><g><g fill="#fff2a5"><path d="m433.823 95.709-8.293 23.318c-.355.998-1.058 1.79-1.945 2.189l-20.717 9.334c-2.927 1.319-2.927 5.982 0 7.301l20.717 9.334c.887.4 1.59 1.191 1.945 2.189l8.293 23.318c1.172 3.294 5.315 3.294 6.486 0l8.293-23.318c.355-.998 1.058-1.79 1.945-2.189l20.717-9.334c2.927-1.319 2.927-5.982 0-7.301l-20.717-9.334c-.887-.4-1.59-1.191-1.945-2.189l-8.293-23.318c-1.171-3.294-5.315-3.294-6.486 0z"/><path d="m53.475 117.681-6.151 17.297c-.263.741-.785 1.327-1.443 1.624l-15.368 6.924c-2.171.978-2.171 4.437 0 5.416l15.368 6.924c.658.296 1.179.883 1.443 1.624l6.151 17.297c.869 2.443 3.942 2.443 4.812 0l6.151-17.297c.263-.74.785-1.327 1.443-1.624l15.368-6.924c2.171-.978 2.171-4.437 0-5.416l-15.368-6.924c-.658-.296-1.179-.883-1.443-1.624l-6.151-17.297c-.87-2.444-3.943-2.444-4.812 0z"/><path d="m355.454 16.775-6.151 17.297c-.263.741-.785 1.327-1.443 1.624l-15.368 6.924c-2.171.978-2.171 4.437 0 5.416l15.368 6.924c.658.296 1.179.883 1.443 1.624l6.151 17.297c.869 2.444 3.942 2.444 4.811 0l6.152-17.297c.263-.741.785-1.328 1.443-1.624l15.368-6.924c2.171-.978 2.171-4.437 0-5.416l-15.368-6.924c-.658-.297-1.179-.883-1.443-1.624l-6.152-17.297c-.868-2.444-3.941-2.444-4.811 0z"/></g><ellipse cx="150.374" cy="39.613" fill="#ffe35c" rx="18.108" ry="18.108" transform="matrix(.997 -.083 .083 .997 -2.755 12.538)"/><circle cx="279.5" cy="89.502" fill="#ffe35c" r="7.811"/></g></g></svg>