<svg id="Capa_1" enable-background="new 0 0 512 512" height="512" viewBox="0 0 512 512" width="512" xmlns="http://www.w3.org/2000/svg"><g><g><path d="m39.459 327.442 38.516-64.014 1.634-2.687c2.438-4.417 6.638-7.844 11.92-9.154l146.471-36.312c10.063-2.495 20.243 3.641 22.737 13.703l36.312 146.471c1.19 4.799.417 9.625-1.81 13.632l-1.4 2.53-38.516 64.014" fill="#fff"/><path d="m243.505 464.295-146.471 36.312c-10.063 2.495-20.243-3.64-22.737-13.703l-36.313-146.472c-2.495-10.063 3.641-20.243 13.703-22.737l146.471-36.312c10.063-2.495 20.243 3.64 22.738 13.703l36.312 146.471c2.495 10.063-3.64 20.243-13.703 22.738z" fill="#fff"/><path d="m297.049 375.45-36.312-146.471c-2.495-10.063-12.675-16.198-22.738-13.704l-25.365 6.288c.862 1.34 17.803 30.333 18.208 31.966l-18.145 30.157c.944 3.807 28.134 71.356 28.134 71.356l-30.553 50.78-.11-.066c-1.957 3.348-5.204 5.936-9.266 6.943l-116.19 28.806c-7.983 1.979-16.058-2.888-18.037-10.87l-26.062-105.127c-.378.566-.73 1.149-1.045 1.753l-.109.181.009.005c-1.963 3.875-2.611 8.438-1.484 12.985l36.312 146.471c2.495 10.063 12.674 16.198 22.737 13.703l146.471-36.312c5.119-1.269 9.213-4.532 11.68-8.752l.139.083 38.516-64.014 1.4-2.53c2.227-4.005 3-8.832 1.81-13.631z" fill="#ffc0fe"/><path d="m268.19 68.072 71.154-22.767 2.999-.945c4.744-1.715 10.162-1.526 14.998.97l134.098 69.21c9.213 4.755 12.827 16.078 8.072 25.291l-69.21 134.098c-2.268 4.394-6.03 7.514-10.344 9.061l-2.72.98-71.154 22.767" fill="#fff"/><path d="m331.48 305.47-134.098-69.21c-9.213-4.755-12.827-16.078-8.072-25.291l69.21-134.099c4.755-9.213 16.078-12.827 25.291-8.072l134.098 69.21c9.213 4.755 12.827 16.078 8.072 25.291l-69.21 134.098c-4.755 9.214-16.078 12.828-25.291 8.073z" fill="#fff"/><path d="m491.44 114.541-134.099-69.211c-4.836-2.496-10.254-2.686-14.998-.97l-3 .945-8.094 2.59 103.292 53.311c7.49 3.866 10.428 13.071 6.562 20.561l-56.266 109.019c-1.844 3.572-4.902 6.109-8.409 7.366l-2.212.797-57.847 18.509-.041-.125c-3.769 1.259-8.021 1.061-11.831-.906l-109.017-56.268c-.158-.081-.301-.179-.455-.265l-5.716 11.074c-4.755 9.213-1.141 20.536 8.072 25.291l134.098 69.21c4.687 2.419 9.916 2.662 14.553 1.114l.05.153 71.154-22.767 2.72-.98c4.314-1.546 8.076-4.667 10.344-9.06l69.21-134.098c4.756-9.212 1.142-20.535-8.07-25.29z" fill="#ffc0fe"/></g><g fill="#4e0325"><path d="m510.605 122.357c-2.368-7.419-7.483-13.472-14.403-17.043l-134.098-69.21c-7.118-3.675-15.51-4.251-23.064-1.59l-71.054 22.721c-.552.141-1.102.294-1.65.469-7.419 2.368-13.472 7.483-17.044 14.403l-69.21 134.099c-2.196 4.256-3.288 8.881-3.256 13.536l-87.796 21.767c-7.775 1.928-14.466 7.025-18.394 14.002l-38.576 64.09c-.633.938-1.207 1.915-1.728 2.92-.115.212-.228.424-.326.64-2.895 5.935-3.809 12.875-2.1 19.77l36.312 146.471c1.873 7.559 6.579 13.935 13.249 17.956 4.602 2.774 9.759 4.197 14.998 4.197 2.354 0 4.724-.288 7.067-.869l146.472-36.312h.001c7.013-1.739 13.005-5.918 17.045-11.84.427-.478.829-.986 1.172-1.555l38.516-64.014c.065-.107.127-.215.188-.325l1.392-2.515c3.594-6.469 4.593-13.988 2.811-21.174l-19.436-78.396 39.026 20.142c4.265 2.201 8.826 3.244 13.324 3.244 2.37 0 4.718-.305 7-.867.735-.069 1.474-.212 2.206-.446l71.154-22.767c.119-.038.238-.078.355-.121l2.704-.974c6.967-2.497 12.673-7.495 16.068-14.073l69.21-134.098c3.57-6.922 4.233-14.819 1.865-22.238zm-168.142-67.148 2.999-.945c.139-.044.276-.09.413-.139 2.224-.805 4.605-.651 6.704.433l128.911 66.533-49.143 15.724c-2.565-3.312-5.842-6.055-9.675-8.033l-118.694-61.259zm-255.616 213.614 1.634-2.687c.076-.125.148-.25.219-.378 1.142-2.07 3.034-3.524 5.327-4.092l90.43-22.419c2.299 2.514 5.046 4.631 8.163 6.239l23.612 12.187-8.012 13.316c-4.04-.789-8.308-.738-12.56.316l-129.644 32.14zm7.688 221.706c-2.174.538-4.429.199-6.348-.958-1.919-1.156-3.273-2.991-3.812-5.166l-36.313-146.471c-.479-1.931-.24-3.873.541-5.55l.922-1.533c1.118-1.477 2.726-2.599 4.66-3.078l146.471-36.312c.675-.167 1.352-.247 2.018-.247 3.764 0 7.197 2.557 8.143 6.371l36.312 146.472c.539 2.174.199 4.429-.957 6.348-1.157 1.92-2.992 3.273-5.166 3.813zm192.436-112.581c.512 2.068.226 4.23-.816 6.105l-1.31 2.366-21.678 36.029-32.194-129.86c-.988-3.986-2.761-7.573-5.108-10.646l8.859-14.724 28.433 14.674zm-84.827-150.916c-1.991-1.028-3.463-2.769-4.144-4.904s-.491-4.406.537-6.397l69.21-134.099c.913-1.769 2.375-3.073 4.069-3.819l1.695-.542c1.816-.376 3.766-.16 5.537.754l134.099 69.21c1.991 1.028 3.463 2.769 4.144 4.904s.49 4.407-.538 6.398l-69.21 134.098c-1.028 1.991-2.769 3.463-4.904 4.144-2.134.681-4.407.49-6.398-.537zm218.931 42.135c-.977 1.893-2.618 3.331-4.637 4.054l-2.543.916-40.048 12.814 61.361-118.89c1.857-3.597 2.92-7.458 3.188-11.378l48.791-15.612z"/><path d="m311.569 222.4c-3.44 0-6.23 2.79-6.23 6.23v14.746c0 3.441 2.79 6.23 6.23 6.23s6.23-2.789 6.23-6.23v-14.746c0-3.441-2.789-6.23-6.23-6.23z"/><path d="m345.559 207.843v-14.746c0-3.441-2.79-6.23-6.23-6.23s-6.23 2.79-6.23 6.23v14.746c0 3.441 2.79 6.23 6.23 6.23s6.23-2.789 6.23-6.23z"/><path d="m159.82 398.902c-3.441 0-6.23 2.789-6.23 6.23v14.746c0 3.44 2.789 6.23 6.23 6.23s6.23-2.79 6.23-6.23v-14.746c0-3.44-2.79-6.23-6.23-6.23z"/><path d="m206.637 408.546c-3.441 0-6.23 2.789-6.23 6.23v14.746c0 3.44 2.79 6.23 6.23 6.23 3.441 0 6.23-2.79 6.23-6.23v-14.746c0-3.441-2.79-6.23-6.23-6.23z"/><path d="m181.661 351.711c-3.441 0-6.23 2.789-6.23 6.23v14.746c0 3.441 2.79 6.23 6.23 6.23s6.23-2.79 6.23-6.23v-14.746c0-3.441-2.79-6.23-6.23-6.23z"/><path d="m94.874 335.829c-10.998 0-19.945 8.948-19.945 19.945s8.948 19.945 19.945 19.945 19.946-8.947 19.946-19.945-8.949-19.945-19.946-19.945zm0 27.43c-4.127 0-7.485-3.358-7.485-7.485 0-4.128 3.358-7.485 7.485-7.485 4.128 0 7.485 3.358 7.485 7.485s-3.358 7.485-7.485 7.485z"/><path d="m258.962 173.152c-10.998 0-19.945 8.948-19.945 19.945s8.948 19.945 19.945 19.945 19.945-8.947 19.945-19.945-8.947-19.945-19.945-19.945zm0 27.431c-4.127 0-7.485-3.358-7.485-7.485 0-4.128 3.358-7.485 7.485-7.485s7.485 3.358 7.485 7.485-3.357 7.485-7.485 7.485z"/><path d="m341.306 151.655c0-10.998-8.947-19.945-19.945-19.945s-19.945 8.948-19.945 19.945c0 10.998 8.947 19.945 19.945 19.945s19.945-8.947 19.945-19.945zm-19.945 7.485c-4.127 0-7.485-3.358-7.485-7.485s3.358-7.485 7.485-7.485 7.485 3.358 7.485 7.485-3.358 7.485-7.485 7.485z"/><path d="m457.373 332.871c-17.889 0-32.443 14.554-32.443 32.443s14.554 32.443 32.443 32.443 32.443-14.554 32.443-32.443-14.553-32.443-32.443-32.443zm0 44.119c-6.438 0-11.676-5.238-11.676-11.676s5.238-11.676 11.676-11.676 11.676 5.238 11.676 11.676c.001 6.438-5.237 11.676-11.676 11.676z"/><path d="m378.864 410.195c-17.889 0-32.443 14.554-32.443 32.443 0 17.89 14.554 32.444 32.443 32.444 17.89 0 32.444-14.554 32.444-32.444-.001-17.889-14.555-32.443-32.444-32.443zm0 44.12c-6.438 0-11.676-5.238-11.676-11.677 0-6.438 5.238-11.676 11.676-11.676s11.677 5.238 11.677 11.676c-.001 6.439-5.239 11.677-11.677 11.677z"/></g><g><path d="m34.096 35.895-8.529 23.983c-.365 1.027-1.088 1.841-2 2.252l-21.308 9.6c-3.01 1.356-3.01 6.153 0 7.509l21.308 9.6c.912.411 1.635 1.225 2 2.252l8.529 23.983c1.205 3.388 5.466 3.388 6.672 0l8.529-23.983c.365-1.027 1.088-1.841 2.001-2.252l21.308-9.6c3.01-1.356 3.01-6.153 0-7.509l-21.308-9.6c-.912-.411-1.635-1.225-2.001-2.252l-8.529-23.983c-1.206-3.388-5.467-3.388-6.672 0z" fill="#d3b5f2"/><path d="m157.345 3.987-6.327 17.79c-.271.762-.807 1.365-1.484 1.67l-15.806 7.121c-2.233 1.006-2.233 4.564 0 5.57l15.806 7.121c.677.305 1.213.908 1.484 1.67l6.327 17.791c.894 2.513 4.055 2.513 4.949 0l6.327-17.791c.271-.762.807-1.365 1.484-1.67l15.806-7.121c2.233-1.006 2.233-4.564 0-5.57l-15.806-7.121c-.677-.305-1.213-.909-1.484-1.67l-6.327-17.79c-.894-2.513-4.055-2.513-4.949 0z" fill="#d3b5f2"/><g fill="#ad84e6"><path d="m66.757 170.279c0 10.286 8.338 18.624 18.624 18.624s18.624-8.338 18.624-18.624-8.338-18.624-18.624-18.625c-10.285.001-18.624 8.339-18.624 18.625z"/><path d="m268.19 8.48c0 4.437 3.597 8.034 8.034 8.034s8.034-3.597 8.034-8.034-3.597-8.034-8.034-8.034c-4.437 0-8.034 3.597-8.034 8.034z"/></g></g></g></svg>