<svg id="Capa_1" enable-background="new 0 0 512 512" height="512" viewBox="0 0 512 512" width="512" xmlns="http://www.w3.org/2000/svg"><g><g><path d="m456.713 485.399h-401.427c-24.9 0-45.085-20.185-45.085-45.085v-2.168c0-9.337 7.569-16.907 16.907-16.907h457.783c9.337 0 16.907 7.57 16.907 16.907v2.168c0 24.9-20.185 45.085-45.085 45.085z" fill="#a2f4e3"/><g fill="#ffddb6"><ellipse cx="269.142" cy="303.84" rx="53.723" ry="78.898" transform="matrix(.371 -.929 .929 .371 -112.93 440.868)"/><ellipse cx="227.163" cy="224.143" rx="78.898" ry="53.723" transform="matrix(.981 -.193 .193 .981 -38.95 47.998)"/><ellipse cx="112.995" cy="377.89" rx="78.898" ry="43.351"/><ellipse cx="158.49" cy="315.614" rx="78.898" ry="43.351"/><ellipse cx="399.005" cy="377.89" rx="78.898" ry="43.351"/><ellipse cx="298.263" cy="377.89" rx="78.898" ry="43.351"/><ellipse cx="353.431" cy="290.236" rx="53.723" ry="78.898" transform="matrix(.178 -.984 .984 .178 4.927 586.37)"/><ellipse cx="213.794" cy="377.89" rx="78.898" ry="43.351"/></g><path d="m209.996 182.447c6.56 12.249-5.718 17.902-20.39 25.76-14.672 7.857-26.183 14.943-32.742 2.694-4.705-8.785 3.673-25.978 8.788-34.999 2.093-3.692 6.109-5.843 10.342-5.539 10.343.744 29.298 3.299 34.002 12.084z" fill="#c37777"/><path d="m304.024 206.497c-1.581 13.804-14.893 11.462-31.429 9.569-16.536-1.894-30.033-2.622-28.452-16.426 1.134-9.901 17.81-19.265 27.151-23.769 3.823-1.843 8.349-1.325 11.656 1.335 8.08 6.498 22.208 19.39 21.074 29.291z" fill="#c37777"/><path d="m384.765 251.466c-1.284 13.835-14.644 11.779-31.216 10.241-16.573-1.539-30.082-1.977-28.798-15.812.921-9.923 17.393-19.643 26.634-24.346 3.782-1.925 8.319-1.504 11.682 1.084 8.218 6.325 22.619 18.91 21.698 28.833z" fill="#c37777"/><path d="m391.1 332.006c-7.396 11.763-18.386 3.894-32.476-4.965s-25.945-15.353-18.549-27.116c5.305-8.437 24.391-9.667 34.76-9.689 4.244-.009 8.101 2.416 9.932 6.245 4.476 9.355 11.638 27.088 6.333 35.525z" fill="#c37777"/><path d="m243.125 362.921c.883 13.867-12.634 13.913-29.244 14.971-16.61 1.057-30.024 2.725-30.906-11.141-.633-9.945 14.126-22.109 22.524-28.192 3.437-2.49 7.984-2.779 11.709-.746 9.101 4.969 25.284 15.162 25.917 25.108z" fill="#c37777"/><path d="m154.556 290.334c4.56 13.125-8.452 16.786-24.174 22.247-15.722 5.462-28.201 10.657-32.76-2.468-3.27-9.414 7.698-25.082 14.163-33.19 2.646-3.318 6.95-4.813 11.082-3.85 10.099 2.354 28.419 7.847 31.689 17.261z" fill="#c37777"/><path d="m204.473 235.567c7.323-11.808 16.989-4.858 29.44 2.865 12.451 7.722 22.973 13.292 15.65 25.1-5.253 8.469-22.754 10.795-32.231 11.433-3.879.261-7.287-1.853-8.777-5.443-3.64-8.774-9.335-25.486-4.082-33.955z" fill="#c37777"/><path d="m407.13 334.767c12.797-7.136 21.622-17.673 23.94-30.489 4.311-23.838-15.221-48.176-45.871-60.53.613 4.63.486 12.889-4.8 16.454-3.889 2.622-10.217.629-15.072 1.641 3.341 6.801 4.614 14.027 3.317 21.202-.215 1.187-.507 2.345-.851 3.484 5.719.166 11.141 2.042 15.033 6.771 4.295 5.219 8.955 24.648 9.586 28.226 9.783 6.361 15.7 14.574 15.7 23.554 0 20.177-29.769 36.533-66.491 36.533-16.14 0-30.933-3.162-42.45-8.416-11.516 5.254-26.31 8.416-42.45 8.416-9.94 0-19.362-1.206-27.83-3.355-11.641 3.353-26.79 3.355-43.356 3.355-18.424 0-35.096-1.254-47.138-6.487-10.736 4.087-23.76 6.487-37.81 6.487-26.518 0-49.403-8.531-60.078-20.869-4.126 5.258-6.413 11.055-6.413 17.144 0 23.942 35.324 43.35 78.898 43.35 16.672 0 32.126-2.848 44.865-7.698 14.289 6.21 34.071 7.698 55.934 7.698 19.656 0 37.632-.001 51.446-3.981 10.049 2.549 21.229 3.981 33.023 3.981 19.151 0 36.705-3.751 50.371-9.987 13.665 6.235 31.219 9.987 50.371 9.987 43.574 0 78.898-19.408 78.898-43.35.001-22.433-31.015-40.886-70.772-43.121z" fill="#ffa7b8"/><path d="m462.532 352.327c8.051 8.605-.824 15.965-11.191 25.665s-18.301 18.066-26.352 9.461c-5.774-6.172-2.608-22.143-.356-30.682.922-3.495 3.76-6.15 7.308-6.838 8.67-1.68 24.817-3.778 30.591 2.394z" fill="#ba5677"/></g><path d="m484.891 411.038h-6.481c6.442-8.38 9.695-19.454 9.695-33.148 0-24.022-9.99-39.993-29.691-47.47-7.474-2.837-16.054-4.344-25.339-5.15 4.041-5.808 6.781-12.248 8.034-19.177 3.173-17.544-3.527-35.51-18.867-50.586-10.569-10.388-24.474-18.546-40.183-23.76-3.846-4.439-8.935-9.1-15.258-13.966-5.202-4.003-12.341-4.665-18.192-1.689-6.289 3.201-11.579 6.423-15.904 9.653-6.551.563-12.904 1.695-18.952 3.37 1.962-7.32 2.285-14.785.838-22.151-3.438-17.495-16.223-31.784-36.001-40.235-18.443-7.881-41.084-9.768-63.752-5.314-6.847 1.346-13.456 3.247-19.748 5.62-5.295-1.33-11.504-2.265-18.658-2.779-6.54-.478-12.869 2.915-16.107 8.625-6.079 10.722-9.62 19.839-10.641 27.299-9.156 12.957-12.684 27.223-9.951 41.136 1.512 7.697 4.837 14.771 9.767 21.002-9.915.572-19.296 2.093-27.923 4.396-4.429-.305-8.833 1.138-12.223 3.984-24.233 9.473-39.965 25.881-39.965 44.913 0 3.626.59 7.152 1.682 10.557-6.288.899-12.171 2.232-17.486 4.249-19.701 7.477-29.691 23.448-29.691 47.47 0 13.702 3.269 24.77 9.721 33.148h-6.507c-14.947.003-27.108 12.164-27.108 27.112v2.168c0 30.485 24.802 55.286 55.287 55.286h401.427c30.485 0 55.287-24.801 55.287-55.286v-2.168c-.001-14.948-12.162-27.109-27.11-27.109zm-339.793-33.148c0-19.956 11.262-29.26 42.456-32.129-7.499 7.733-11.101 14.892-10.688 21.378.344 5.4 2.238 9.649 5.631 12.628 4.464 3.919 10.563 4.926 17.696 4.926 3.591 0 7.445-.255 11.482-.523l5.192-.331c12.059-.736 22.474-1.372 28.384-8.067 2.987-3.385 4.327-7.839 3.984-13.24-.361-5.676-3.841-11.474-10.343-17.338 31.786 1.532 43.6 7.941 43.6 32.696 0 30.433-17.807 33.148-68.696 33.148-51.363 0-68.698-8.364-68.698-33.148zm-28.528-97.151c.941-1.18 2.325-1.835 3.783-1.835.372 0 .749.043 1.124.13 18.21 4.244 26.085 9.822 27.296 13.308.001 0 .001.001.001.001 1.009 2.905.442 4.071.256 4.454-1.683 3.464-10.064 6.351-18.169 9.142l-4.973 1.728c-8.089 2.835-16.452 5.766-19.923 4.091-.384-.185-1.552-.749-2.561-3.654-1.211-3.486 1.51-12.745 13.166-27.365zm96.65-45.288c3.176-.741 9.439 3.174 15.497 6.955l3.945 2.447c6.081 3.746 12.37 7.62 13.118 10.791.27 1.141-.208 2.709-1.419 4.661-2.544 4.102-12.674 7.365-25.992 8.438-.807.02-1.61.027-2.41.027-.787-.204-1.399-.745-1.751-1.595-5.39-12.992-7.169-24.133-4.533-28.383v.001c1.21-1.952 2.403-3.076 3.545-3.342zm26.266 51.417c9.033-1.775 17.671-4.494 25.698-8.009-1.375 16.089 5.394 32.293 19.415 46.083-6.723.599-13.172 1.639-19.28 3.062-5.907-1.461-12.311-2.348-19.084-2.875.887-3.081 1.355-6.26 1.355-9.516 0-10.31-4.614-19.852-12.695-27.939 1.53-.243 3.06-.505 4.591-.806zm146.432 41.88c-1.637 2.603-2.902 2.89-3.317 2.984-3.756.857-11.247-3.887-18.492-8.468l-4.457-2.802c-7.269-4.544-14.785-9.242-15.646-12.996-.095-.415-.385-1.68 1.252-4.284 1.964-3.124 10.893-6.787 29.59-6.825h.01c1.891 0 3.572 1.059 4.388 2.765 8.069 16.868 8.637 26.502 6.672 29.626zm-92.639 82.19c6.391-8.368 9.616-19.408 9.616-33.048 0-13.639-3.224-24.679-9.614-33.046 1.641-.061 3.296-.103 4.982-.103 6.031 0 11.573.069 16.69.231 8.44 3.666 17.56 6.442 27.101 8.168 5.65 1.022 11.29 1.65 16.86 1.895 5.658 4.994 8.045 12.286 8.045 22.855 0 28.357-17.152 33.148-68.697 33.148-1.685 0-3.342-.039-4.983-.1zm-84.19-67.422c.854-.619 1.849-.932 2.849-.932.797 0 1.599.199 2.336.602 16.411 8.96 22.508 16.441 22.742 20.125.195 3.069-.663 4.041-.945 4.361-2.548 2.887-11.395 3.427-19.951 3.949l-5.256.335c-8.554.566-17.397 1.153-20.291-1.387-.32-.282-1.295-1.137-1.49-4.206-.234-3.685 4.865-11.879 20.006-22.847zm169.274 65.907c5.98-8.172 9.001-18.703 9.001-31.533 0-9.293-1.595-17.371-4.747-24.224 8.186-1.354 15.971-3.625 23.103-6.8 1.467-.653 2.881-1.348 4.268-2.064 6.127.074 11.692.232 16.72.529-3.883 1.985-6.853 5.562-7.992 9.879-4.709 17.856-4.102 30.111 1.805 36.425 3.304 3.531 7.048 5.388 11.129 5.518.159.005.316.007.474.007 7.768-.001 14.275-6.119 21.784-13.182l3.236-3.028c3.867-3.599 7.468-6.952 10.131-10.409.282 2.253.427 4.688.427 7.348 0 30.433-17.807 33.148-68.697 33.148-7.32.001-14.222-.583-20.642-1.614zm81.171-50.23c-.101 2.902-5.748 8.159-10.731 12.796l-3.282 3.071c-4.916 4.623-10.481 9.858-13.404 9.858-.026 0-.051-.001-.076-.001-.712-.023-1.58-.577-2.581-1.646-2.061-2.203-2.598-10.947 1.092-24.939.32-1.213 1.323-2.151 2.554-2.389 5.95-1.153 10.932-1.627 14.864-1.627 5.457 0 8.894.913 10.092 2.193 1.001 1.069 1.496 1.973 1.472 2.684zm-38.503-56.731c-1.862 10.296-9.714 19.149-22.149 25.076 1.036-8.276-1.826-19.553-8.592-33.698-2.827-5.91-8.882-9.725-15.433-9.725-.011 0-.022 0-.033 0-21.287.044-34.721 4.267-39.929 12.552-2.88 4.581-3.829 9.135-2.82 13.536 1.996 8.705 10.844 14.236 21.089 20.64l4.403 2.769c.538.34 1.071.677 1.601 1.011-4.441-.227-8.95-.741-13.482-1.561-18.743-3.39-35.351-11.434-46.763-22.65-10.377-10.198-15.026-21.705-13.091-32.402s10.32-19.847 23.611-25.764c2.907-1.294 5.971-2.385 9.152-3.292.228 3.803 1.447 7.067 3.66 9.726 5.714 6.864 16.106 7.801 28.139 8.887l5.179.481c4.764.455 9.268.885 13.4.885 6.302 0 11.738-1.001 15.892-4.44 2.295-1.9 3.939-4.383 4.946-7.393 6.894 3.603 13.036 7.957 18.128 12.961 10.378 10.197 15.027 21.705 13.092 32.401zm-66.869-75.458c.706-.36 1.463-.536 2.215-.536 1.047 0 2.084.344 2.958 1.016 14.818 11.403 19.676 19.742 19.336 23.417-.284 3.062-1.283 3.889-1.611 4.161-2.966 2.455-11.789 1.613-20.322.799l-5.243-.487c-8.538-.77-17.366-1.566-19.829-4.525-.272-.328-1.102-1.325-.818-4.387.339-3.676 6.65-10.977 23.314-19.458zm-80.21-45.62c.68-.328 1.404-.49 2.122-.49 1.082 0 2.151.367 3.039 1.08 14.57 11.719 19.249 20.159 18.829 23.826-.35 3.055-1.367 3.861-1.701 4.125-3.019 2.392-11.823 1.36-20.337.363l-5.229-.599c-8.519-.953-17.328-1.939-19.728-4.951-.266-.333-1.074-1.348-.724-4.403.421-3.665 6.887-10.829 23.729-18.951zm-35.526-1.878c4.493 0 8.863.32 13.063.916-8.198 6.084-12.713 12.281-13.428 18.521-.616 5.376.498 9.893 3.311 13.423 5.565 6.986 15.934 8.146 27.941 9.49l5.166.592c5.214.611 10.117 1.186 14.57 1.186 1.757 0 3.434-.105 5.042-.317-3.601 14.172-17.362 27.883-36.391 36.483.522-2.379.526-4.707-.007-6.967-1.915-8.117-10.026-13.113-18.611-18.403l-3.884-2.408c-8.554-5.341-16.637-10.387-24.756-8.494-4.425 1.03-8.184 3.996-11.173 8.812-5.627 9.073-2.438 23.476 1.959 35.28-21.716-3.486-38.417-14.671-41.474-30.234-.959-4.883-.499-9.874 1.155-14.778.306.114.607.239.923.333 1.597.481 3.215.699 4.861.699 7.171 0 14.862-4.145 23.511-8.806l4.585-2.455c10.665-5.676 19.877-10.578 22.474-19.123 1.094-3.602.818-7.407-.778-11.338.758-.168 1.52-.329 2.287-.48 6.671-1.31 13.278-1.932 19.654-1.932zm-67.449-.584c.875-1.543 2.468-2.465 4.219-2.465.119 0 .24.004.36.013 18.65 1.338 27.302 5.613 29.045 8.867 1.452 2.711 1.075 3.952.951 4.36-1.12 3.684-8.944 7.849-16.512 11.876l-4.641 2.486c-7.545 4.066-15.347 8.273-19.036 7.161-.409-.123-1.65-.497-3.102-3.207-1.744-3.255-.506-12.825 8.716-29.091zm-79.783 130.572c.155.904.354 1.787.646 2.628 1.776 5.112 4.738 8.699 8.803 10.661 2.485 1.199 5.141 1.699 7.963 1.699 6.312 0 13.45-2.501 21.33-5.261l4.913-1.707c11.423-3.935 21.289-7.333 25.193-15.366 1.973-4.06 2.073-8.711.297-13.823-.712-2.05-1.889-3.99-3.475-5.83.544-.008 1.077-.03 1.627-.03 40.484 0 68.696 17.47 68.696 33.149 0 2.897-.974 5.854-2.802 8.751-3.49-.025-7.021-.027-10.59-.027-20.085 0-42.893.963-59.768 8.11-8.189 3.467-14.657 8.199-19.428 14.129-27.256-5.147-44.804-18.602-44.804-30.962-.001-2.025.492-4.078 1.399-6.121zm-46.895 68.396c0-23.731 10.853-30.604 39.755-32.481 9.997 9.111 24.538 16.184 41.838 20.159-.785 3.845-1.197 7.945-1.197 12.322 0 12.721 3.35 23.193 9.948 31.367-6.702 1.134-13.944 1.782-21.648 1.782-50.889-.001-68.696-2.716-68.696-33.149zm447.297 62.425c0 19.234-15.648 34.882-34.883 34.882h-401.426c-19.234 0-34.883-15.648-34.883-34.882v-2.168c0-3.697 3.008-6.705 6.705-6.705h457.783c3.697 0 6.705 3.008 6.705 6.705v2.168z" fill="#4e0325"/><g><g fill="#ffc8b7"><path d="m440.408 106.502-8.38 23.564c-.359 1.009-1.069 1.808-1.965 2.212l-20.935 9.432c-2.958 1.333-2.958 6.045 0 7.378l20.935 9.432c.896.404 1.607 1.203 1.965 2.212l8.38 23.564c1.184 3.329 5.371 3.329 6.555 0l8.38-23.564c.359-1.009 1.069-1.808 1.965-2.212l20.935-9.432c2.958-1.333 2.958-6.045 0-7.378l-20.935-9.432c-.896-.404-1.607-1.203-1.965-2.212l-8.38-23.564c-1.184-3.329-5.371-3.329-6.555 0z"/><path d="m39.538 131.439-8.38 23.564c-.359 1.009-1.069 1.808-1.965 2.212l-20.935 9.432c-2.958 1.333-2.958 6.045 0 7.378l20.935 9.432c.896.404 1.607 1.203 1.965 2.212l8.38 23.564c1.184 3.329 5.371 3.329 6.555 0l8.38-23.564c.359-1.009 1.069-1.808 1.965-2.212l20.935-9.432c2.958-1.333 2.958-6.045 0-7.378l-20.935-9.432c-.896-.404-1.607-1.203-1.965-2.212l-8.38-23.564c-1.184-3.329-5.371-3.329-6.555 0z"/><path d="m284.142 18.943-6.216 17.479c-.266.749-.793 1.341-1.458 1.641l-15.53 6.997c-2.194.989-2.194 4.484 0 5.473l15.53 6.997c.665.299 1.192.893 1.458 1.641l6.216 17.479c.878 2.469 3.984 2.469 4.862 0l6.216-17.479c.266-.748.793-1.341 1.458-1.641l15.53-6.997c2.194-.989 2.194-4.484 0-5.473l-15.53-6.997c-.665-.3-1.192-.893-1.458-1.641l-6.216-17.479c-.878-2.47-3.983-2.47-4.862 0z"/></g><ellipse cx="134.896" cy="34.698" fill="#ffa785" rx="18.299" ry="18.299" transform="matrix(.987 -.159 .159 .987 -3.804 21.929)"/><path d="m365.133 30.189c0 4.359 3.534 7.894 7.893 7.894 4.36 0 7.894-3.534 7.894-7.894s-3.534-7.894-7.894-7.894c-4.359 0-7.893 3.534-7.893 7.894z" fill="#ffa785"/></g></g></svg>