<svg id="Capa_1" enable-background="new 0 0 512 512" height="512" viewBox="0 0 512 512" width="512" xmlns="http://www.w3.org/2000/svg"><g><g><path d="m47.524 332.658v96.494c0 40.084 93.338 72.578 208.476 72.578s208.476-32.494 208.476-72.578v-96.494z" fill="#e79d8e"/><path d="m464.476 308.031c0 40.083-93.338 72.577-208.476 72.577s-208.476-32.494-208.476-72.577v-46.945s13.499-72.577 208.476-72.577 208.476 72.577 208.476 72.577z" fill="#ffddb6"/><ellipse cx="256" cy="261.086" fill="#ffddb6" rx="208.476" ry="72.577"/><ellipse cx="256" cy="231.123" fill="#e79d8e" rx="165.747" ry="56.691"/><ellipse cx="256" cy="195.3" fill="#ffddb6" rx="126.851" ry="45.12"/><path d="m414.449 214.441c-6.611-7.355-17.482-14.07-31.622-19.813-1.011-24.609-57.4-44.448-126.827-44.448-5.76 0-11.428.139-16.985.404 51.192 2.661 115.352 33.444 128.73 59.309 38.151 17.578 31.541 33.852 31.541 33.852v39.606 30.452c0 5.409-47.234 13.263-74.01 17.281-10.339 1.551-17.982 10.439-17.982 20.894 0 13.503 12.488 23.544 25.674 20.635 27.217-6.004 66.317-14.219 66.317-11.868v24.788c0 33.817-78.745 61.23-175.881 61.23s-175.881-27.414-175.881-61.23v43.617c0 40.084 93.338 72.578 208.476 72.578s208.476-32.494 208.476-72.578c0 0 0-112.476 0-121.121v-46.945c.001.002-4.804-25.806-50.026-46.643z" fill="#ffb7a9"/><path d="m399.286 363.113v22.422c0 33.817-78.745 61.23-175.881 61.23s-175.881-27.414-175.881-61.23v43.617c0 40.084 93.338 72.578 208.476 72.578 115.139 0 208.476-32.494 208.476-72.578v-96.494h-7.561c-18.011 12.287-37.527 22.699-57.629 30.455z" fill="#df768f"/><path d="m414.449 214.441c-5.768-6.417-14.78-12.348-26.377-17.569-3.171 6.262-7.494 11.897-12.594 16.887 29.472 16.026 23.807 29.986 23.807 29.986v15.886c14.276-8.376 22.462-18.115 22.462-28.509 0-5.806-2.557-11.406-7.298-16.681z" fill="#df768f"/><g fill="#fff"><path d="m202.018 427.464c-.057 0-.113 0-.171-.001-23.415-.381-45.663-2.699-66.127-6.889-5.557-1.138-9.139-6.565-8.001-12.123 1.138-5.557 6.565-9.14 12.123-8.001 19.22 3.937 40.194 6.115 62.34 6.474 5.671.092 10.194 4.765 10.102 10.436-.091 5.614-4.672 10.104-10.266 10.104z"/><path d="m93.148 407.646c-1.252 0-2.526-.231-3.762-.718-3.3-1.3-6.603-2.68-9.819-4.102-5.187-2.295-7.533-8.36-5.239-13.547 2.295-5.188 8.359-7.535 13.547-5.239 2.959 1.309 6.001 2.58 9.039 3.777 5.278 2.079 7.87 8.043 5.791 13.321-1.59 4.04-5.461 6.508-9.557 6.508z"/></g></g><g fill="#4e0325"><path d="m474.571 257.634c-1.894-20.543-20.739-38.583-54.977-52.711-6.114-5.953-14.984-11.957-27.669-17.603-3.247-10.704-14.021-23.368-42.786-33.601-25.036-8.905-58.114-13.809-93.139-13.809-35.026 0-68.104 4.905-93.139 13.809-28.789 10.24-39.557 22.918-42.794 33.627-12.647 5.635-21.513 11.622-27.622 17.561-34.252 14.126-53.109 32.164-55.014 52.706-.113.609-.177 1.234-.177 1.875v48.542.001.002 121.119c0 24.443 23.498 45.543 67.955 61.02 40.433 14.076 93.985 21.828 150.791 21.828 56.807 0 110.359-7.752 150.792-21.828 44.456-15.477 67.955-36.578 67.955-61.02v-169.665c0-.634-.066-1.252-.176-1.853zm-20.365 50.396c0 14.253-20.249 29.813-54.168 41.621-38.318 13.34-89.472 20.686-144.038 20.686s-105.719-7.347-144.038-20.686c-33.917-11.808-54.166-27.366-54.168-41.62v-10.335c11.311 9.156 27.185 17.366 47.414 24.409 40.434 14.077 93.986 21.829 150.791 21.829 56.806 0 110.358-7.752 150.792-21.829 20.229-7.043 36.103-15.252 47.414-24.409v10.334zm-331.739-99.072c5.091 9.314 16.578 19.453 40.393 27.924 22.702 8.075 52.025 12.846 83.41 13.668.539.088 1.088.142 1.648.142.365 0 .735-.02 1.106-.059.025-.003.049-.006.075-.008 2.291.042 4.59.066 6.899.066 35.026 0 68.103-4.905 93.139-13.809 23.823-8.474 35.31-18.617 40.399-27.934 15.84 8.148 21.939 16.351 21.939 22.175 0 7.803-10.928 19.878-41.6 30.369-30.263 10.351-70.705 16.052-113.877 16.052-43.171 0-83.614-5.701-113.877-16.052-30.672-10.491-41.6-22.566-41.6-30.369.002-5.822 6.111-14.02 21.946-22.165zm47.277-35.886c22.883-8.139 53.515-12.622 86.255-12.622s63.373 4.482 86.256 12.622c22.383 7.962 30.325 16.95 30.325 22.228s-7.943 14.266-30.325 22.228c-3.585 1.275-7.38 2.449-11.324 3.541.544-.779 1.057-1.569 1.513-2.377 4.321-7.647 4.547-16.49.635-24.9-10.368-22.291-54.7-24.697-73.279-24.697-27.274 0-46.401 6.333-52.476 17.374-2.945 5.353-2.767 11.372.49 16.511 6.591 10.401 24.878 15.228 51.498 13.571 5.661-.35 9.967-5.224 9.616-10.885-.351-5.662-5.21-9.984-10.885-9.616-14.453.89-23.432-.528-28.368-2.065 4.994-2.025 14.425-4.349 30.125-4.349 33.585 0 52.178 7.496 54.654 12.818 1.417 3.048.89 4.749.107 6.132-2.01 3.557-12.725 15.54-66.335 21.468-29.792-.652-57.423-5.035-78.484-12.526-22.383-7.962-30.325-16.95-30.325-22.228s7.944-14.266 30.327-22.228zm-89.629 60.879c1.281 13.834 12.489 32.313 55.36 46.977 32.348 11.064 75.151 17.157 120.525 17.157 45.375 0 88.178-6.093 120.525-17.157 42.871-14.664 54.079-33.142 55.36-46.976 14.334 8.725 22.321 18.186 22.321 27.134 0 14.253-20.249 29.813-54.168 41.621-38.318 13.34-89.472 20.686-144.038 20.686s-105.719-7.347-144.038-20.686c-33.918-11.808-54.168-27.367-54.168-41.621 0-8.948 7.987-18.41 22.321-27.135zm31.847 236.821c-33.918-11.808-54.168-27.367-54.168-41.621v-84.51c11.311 9.156 27.185 17.366 47.414 24.409 40.384 14.06 93.855 21.809 150.582 21.828-9.151 11.291-14.195 25.917-13.025 41.486l1.703 22.654c1.068 14.21 7.138 26.869 16.349 36.42-1.603.012-3.208.02-4.818.02-54.565.001-105.719-7.346-144.037-20.686zm288.076 0c-25.998 8.831-58.964 16.029-93.512 18.223-21.335 1.585-39.982-14.33-41.575-35.517l-1.702-22.653c-1.593-21.188 14.466-39.729 35.797-41.333 40.011-3.222 77.834-9.868 107.745-20.443 20.229-7.043 36.103-15.252 47.414-24.409v84.51c.001 14.255-20.248 29.814-54.167 41.622z"/><path d="m316.266 407.69c-3.403 0-6.162 2.759-6.162 6.162v15.562c0 3.403 2.759 6.162 6.162 6.162s6.162-2.759 6.162-6.162v-15.562c0-3.403-2.759-6.162-6.162-6.162z"/><path d="m372.149 425.37c-3.403 0-6.162 2.759-6.162 6.162v15.563c0 3.403 2.759 6.162 6.162 6.162s6.162-2.759 6.162-6.162v-15.563c0-3.402-2.759-6.162-6.162-6.162z"/></g><g><path d="m430.949 35.43-8.437 23.722c-.361 1.016-1.076 1.82-1.979 2.227l-21.076 9.496c-2.978 1.342-2.978 6.086 0 7.427l21.076 9.496c.902.407 1.618 1.212 1.979 2.227l8.437 23.722c1.192 3.352 5.407 3.352 6.599 0l8.437-23.722c.361-1.016 1.076-1.821 1.979-2.227l21.077-9.496c2.978-1.341 2.978-6.086 0-7.427l-21.077-9.496c-.902-.407-1.617-1.212-1.979-2.227l-8.437-23.722c-1.192-3.351-5.407-3.351-6.599 0z" fill="#ffc8b7"/><path d="m169.058 1.865-6.258 17.596c-.268.753-.798 1.351-1.468 1.652l-15.634 7.044c-2.209.995-2.209 4.514 0 5.509l15.634 7.044c.669.301 1.2.899 1.468 1.652l6.258 17.597c.884 2.486 4.011 2.486 4.895 0l6.258-17.597c.268-.753.798-1.35 1.468-1.652l15.634-7.044c2.209-.995 2.209-4.514 0-5.509l-15.634-7.044c-.669-.302-1.2-.899-1.468-1.652l-6.258-17.597c-.884-2.486-4.011-2.486-4.895.001z" fill="#ffc8b7"/><g fill="#ffa785"><ellipse cx="71.96" cy="118.816" rx="18.422" ry="18.422" transform="matrix(.993 -.122 .122 .993 -13.978 9.683)"/><path d="m308.319 92.42c0 4.389 3.558 7.947 7.947 7.947s7.947-3.558 7.947-7.947-3.558-7.947-7.947-7.947c-4.39 0-7.947 3.558-7.947 7.947z"/></g></g></g></svg>