<svg id="Capa_1" enable-background="new 0 0 512 512" height="512" viewBox="0 0 512 512" width="512" xmlns="http://www.w3.org/2000/svg"><g><g><path d="m266.44 399.501c0-70.76 71.286-140.645 108.855-140.645 37.57 0 108.855 69.885 108.855 140.645s-48.736 102.309-108.855 102.309-108.855-31.55-108.855-102.309z" fill="#ff8cc0"/><path d="m323.276 394.641c32.632-14.308 47.219 2.375 72.286-6.973 36.311-16.044 26.994-43.077 65.593-61.31-24.147-39.013-61.874-67.502-85.86-67.502-37.569 0-108.855 69.885-108.855 140.645 0 17.904 3.124 33.293 8.759 46.3 23.216-10.258 23.647-42.05 48.077-51.16z" fill="#c37777"/><path d="m375.295 258.856c-3.922 0-8.216.772-12.754 2.217 30.243 10.711 73.332 58.707 73.332 107.24 0 55.069-37.929 79.622-84.716 79.622-42.106 0-77.021-19.9-83.59-64.016-.731 5.171-1.126 10.374-1.126 15.583 0 70.76 48.736 102.309 108.855 102.309s108.855-31.55 108.855-102.309c0-70.761-71.286-140.646-108.856-140.646z" fill="#ec28ff" opacity=".3"/><path d="m215.784 227.901c-70.76 0-140.645-71.286-140.645-108.855 0-37.57 69.885-108.855 140.645-108.855s102.309 48.736 102.309 108.855-31.55 108.855-102.309 108.855z" fill="#ff8cc0"/><path d="m200.182 167.394c-8.325-28.091-35.731-26.925-41.613-56.089-3.286-16.291 6.136-33.826 9.419-49.711 2.755-13.327 1.465-27.256-1.111-40.915-50.872 21.206-91.738 69.638-91.738 98.367v187.378c0 15.053 12.203 27.257 27.257 27.257 15.053 0 27.257-12.204 27.257-27.257v-110.328c18.482 13.676 40.215 24.645 62.843 29.332 4.903 1.015 12.38-29.637 12.38-29.637s-.717-14.978-4.694-28.397z" fill="#c37777"/><path d="m215.784 10.19c-4.221 0-8.438.268-12.639.753 48.427 5.68 70.211 42.938 70.211 88.058 0 44.029-20.748 80.568-66.752 87.586-.486 13.655-8.231 26.194-12.301 39.188 5.408.801 16.03 2.125 21.481 2.125 70.76.001 102.309-48.736 102.309-108.855 0-60.119-31.55-108.855-102.309-108.855z" fill="#ff68c1"/><path d="m203.854 203.498v-16.528c-4.431.551-9.082.842-13.968.842-12.219 0-24.404-2.612-36.025-7.011-.006-.003-.012-.005-.018-.007-4.782-1.814-9.451-3.917-13.993-6.27-9.227-4.78-20.235 1.903-20.235 12.295v65.058c0 12.281-9.956 22.238-22.238 22.238s-22.238-9.956-22.238-22.238v54.547c0 15.054 12.203 27.257 27.257 27.257 15.053 0 27.257-12.203 27.257-27.257v-110.328c12.884 9.516 26.981 17.527 41.976 23.211 7.401 2.802 14.992 4.994 22.675 6.469 3.36-7.342 6.369-14.853 9.55-22.278z" fill="#ba5677"/><path d="m300.425 178.427 7.095-10.506 7.096 10.506c8.453 12.517 25.453 15.811 37.97 7.357 12.516-8.454 15.807-25.455 7.357-37.97l-19.422-28.757 19.423-28.757c8.453-12.515 5.159-29.516-7.357-37.97-12.517-8.453-29.517-5.16-37.971 7.357l-7.095 10.506-7.095-10.506c-8.454-12.517-25.453-15.811-37.971-7.357-7.824 5.285-12.045 13.908-12.045 22.688 0 5.267 1.519 10.59 4.688 15.282l19.422 28.757-19.421 28.757c-3.17 4.693-4.688 10.015-4.688 15.282 0 8.78 4.221 17.405 12.045 22.688 12.516 8.453 29.515 5.16 37.969-7.357z" fill="#00ebc4"/><g fill="#fff"><path d="m324.035 362.521c-1.5 0-3.021-.332-4.46-1.034-5.058-2.467-7.158-8.569-4.69-13.627 4.22-8.65 9.383-16.887 15.346-24.481 3.475-4.426 9.882-5.198 14.308-1.722s5.198 9.882 1.722 14.308c-5.075 6.464-9.469 13.472-13.059 20.83-1.766 3.62-5.394 5.726-9.167 5.726z"/><path d="m364.391 315.02c-3.237 0-6.42-1.538-8.397-4.405-3.195-4.632-2.031-10.978 2.601-14.174 1.618-1.117 3.143-2.083 4.66-2.956 4.882-2.804 11.11-1.12 13.912 3.758 2.804 4.88 1.122 11.109-3.758 13.913-1.027.591-2.088 1.264-3.241 2.06-1.766 1.22-3.782 1.804-5.777 1.804z"/></g></g><g fill="#4e0325"><path d="m375.295 248.665c-43.722 0-119.045 74.535-119.045 150.835-.001 36.193 12.267 65.742 35.475 85.456 20.829 17.693 49.727 27.044 83.57 27.044s62.741-9.351 83.57-27.044c23.209-19.713 35.476-49.263 35.476-85.456-.001-76.3-75.324-150.835-119.046-150.835zm-60.773 60.603c20.264-23.683 45.254-40.222 60.773-40.222 15.518 0 40.509 16.54 60.774 40.222 4.67 5.457 8.948 11.095 12.82 16.848-14.135 8.955-20.754 19.335-26.725 28.712-6.825 10.716-12.721 19.977-28.905 27.173-9.856 3.632-17.874 2.684-27.15 1.585-12.091-1.431-25.793-3.052-45.134 5.388-14.466 5.467-21.622 17.726-27.939 28.547-3.531 6.049-6.951 11.885-11.426 16.423-3.297-10.249-4.979-21.733-4.979-34.444 0-29.2 13.81-62.089 37.891-90.232zm60.773 182.351c-28.945 0-53.28-7.675-70.375-22.196-7.709-6.548-13.83-14.395-18.399-23.455 7.659-6.188 12.586-14.593 17.076-22.283 5.826-9.979 11.329-19.405 21.817-23.316.107-.04.214-.084.318-.129 16.377-7.182 27.337-5.885 38.941-4.51 9.99 1.183 20.321 2.403 33.026-2.334.112-.042.224-.087.334-.136 19.695-8.703 27.194-20.477 34.445-31.864 5.685-8.928 11.127-17.461 22.875-24.911 12.014 20.912 18.607 42.842 18.607 63.014 0 83.144-69 92.12-98.665 92.12z"/><path d="m381.46 434.577c-3.376 0-6.114 2.738-6.114 6.114v15.441c0 3.376 2.738 6.114 6.114 6.114 3.377 0 6.114-2.738 6.114-6.114v-15.441c0-3.376-2.738-6.114-6.114-6.114z"/><path d="m431.621 403.958c-3.376 0-6.114 2.738-6.114 6.114v15.441c0 3.377 2.738 6.114 6.114 6.114 3.377 0 6.114-2.738 6.114-6.114v-15.441c0-3.376-2.737-6.114-6.114-6.114z"/><path d="m301.24 202.615c3.445-4.056 6.57-8.423 9.374-13.069 5.266 5.337 12.005 8.971 19.525 10.428 9.844 1.907 19.841-.133 28.152-5.745 17.15-11.585 21.68-34.964 10.099-52.118l-15.57-23.053 15.568-23.053c5.613-8.309 7.654-18.306 5.746-28.151-1.908-9.844-7.534-18.356-15.844-23.969-8.31-5.612-18.306-7.654-28.151-5.745-7.526 1.458-14.269 5.096-19.537 10.439-2.8-4.657-5.913-9.042-9.362-13.103-19.714-23.209-49.264-35.476-85.457-35.476-76.3 0-150.835 75.324-150.835 119.046v187.378c0 20.648 16.798 37.447 37.447 37.447 20.648 0 37.447-16.799 37.447-37.447v-91.294c24.947 14.902 51.368 22.962 75.941 22.961h.001c36.19 0 65.743-12.269 85.456-35.476zm14.725-126.719 7.096-10.507c2.564-3.798 6.456-6.369 10.955-7.241 4.499-.871 9.069.06 12.867 2.626 3.797 2.565 6.37 6.456 7.242 10.956s-.061 9.068-2.626 12.866l-19.421 28.757c-2.328 3.446-2.328 7.961 0 11.407l19.421 28.755c5.294 7.841 3.223 18.528-4.616 23.823-3.799 2.565-8.371 3.497-12.867 2.626-4.499-.872-8.39-3.443-10.955-7.242l-7.096-10.506c-1.895-2.805-5.059-4.487-8.445-4.487s-6.55 1.681-8.445 4.487l-7.096 10.506v.001c-2.564 3.798-6.455 6.369-10.955 7.241-4.501.871-9.069-.061-12.868-2.627-4.732-3.195-7.557-8.52-7.557-14.243 0-3.417 1.017-6.729 2.943-9.579l19.421-28.757c2.328-3.446 2.328-7.961 0-11.407l-19.422-28.756c-1.925-2.85-2.942-6.162-2.942-9.579 0-5.723 2.825-11.047 7.558-14.244 2.87-1.938 6.18-2.944 9.567-2.944 1.097 0 2.2.105 3.3.318 4.499.872 8.39 3.443 10.955 7.241l7.096 10.506c1.895 2.806 5.059 4.487 8.445 4.487s6.55-1.678 8.445-4.484zm-180.251 112.008c-3.093-2.289-7.211-2.641-10.648-.908-3.436 1.732-5.604 5.252-5.604 9.1v110.328c0 9.411-7.656 17.066-17.067 17.066-9.41 0-17.066-7.656-17.066-17.066v-187.378c0-15.519 16.539-40.51 40.222-60.774 11.825-10.118 24.488-18.414 37.363-24.643 2.538 18.237-1.198 29.05-4.834 39.548-3.796 10.96-7.72 22.292-3.279 39.592 4.793 18.671 14.16 26.646 22.425 33.681 7.877 6.705 14.678 12.495 18.507 27.41 5.051 19.677 1.397 28.981-2.137 37.98-.403 1.026-.808 2.07-1.206 3.129-18.894-4.293-38.394-13.537-56.676-27.065zm80.069 29.806c-3.649 0-7.355-.222-11.101-.644.099-.253.195-.501.296-.757 3.846-9.795 8.633-21.984 2.598-45.491-4.793-18.672-14.16-26.646-22.425-33.681-7.877-6.705-14.678-12.495-18.507-27.41-3.527-13.736-.651-22.039 2.989-32.55 4.152-11.991 8.806-25.446 4.878-48.577 13.991-5.364 28.011-8.221 41.271-8.221 26.239 0 45.078 6.879 58.591 17.219-6.245.557-12.283 2.679-17.622 6.285-10.353 6.991-16.532 18.63-16.532 31.133 0 7.497 2.224 14.754 6.433 20.986l15.57 23.053-15.568 23.052c-4.21 6.231-6.435 13.488-6.435 20.987 0 12.505 6.181 24.143 16.532 31.133 5.24 3.539 11.154 5.635 17.275 6.239-15.009 11.437-34.511 17.244-58.243 17.244z"/><path d="m208.395 85.062c-3.376 0-6.114 2.738-6.114 6.114v15.441c0 3.377 2.738 6.114 6.114 6.114 3.377 0 6.114-2.738 6.114-6.114v-15.441c.001-3.377-2.737-6.114-6.114-6.114z"/></g><g><path d="m162.272 371.219-8.371 23.537c-.358 1.008-1.068 1.806-1.963 2.21l-20.912 9.422c-2.954 1.331-2.954 6.038 0 7.369l20.912 9.422c.895.403 1.605 1.202 1.963 2.21l8.371 23.537c1.183 3.325 5.365 3.325 6.547 0l8.371-23.537c.358-1.008 1.068-1.806 1.963-2.21l20.912-9.422c2.954-1.331 2.954-6.038 0-7.369l-20.912-9.422c-.895-.403-1.605-1.202-1.963-2.21l-8.371-23.537c-1.183-3.325-5.365-3.325-6.547 0z" fill="#ffc5dd"/><path d="m446.276 90.225-6.209 17.459c-.266.748-.792 1.34-1.456 1.639l-15.512 6.989c-2.191.988-2.191 4.479 0 5.467l15.512 6.989c.664.299 1.19.892 1.456 1.639l6.209 17.46c.877 2.467 3.979 2.467 4.857 0l6.209-17.46c.266-.747.792-1.34 1.456-1.639l15.512-6.989c2.191-.987 2.191-4.479 0-5.467l-15.512-6.989c-.664-.299-1.19-.892-1.456-1.639l-6.209-17.459c-.877-2.467-3.979-2.467-4.857 0z" fill="#ffc5dd"/><g fill="#ff8cc0"><ellipse cx="49.559" cy="451.42" rx="18.278" ry="18.278" transform="matrix(.957 -.29 .29 .957 -128.688 33.731)"/><path d="m17.66 352.328c0 4.355 3.53 7.885 7.885 7.885s7.885-3.53 7.885-7.885-3.53-7.885-7.885-7.885c-4.355.001-7.885 3.531-7.885 7.885z"/></g></g></g></svg>