<svg id="Capa_1" enable-background="new 0 0 512 512" height="512" viewBox="0 0 512 512" width="512" xmlns="http://www.w3.org/2000/svg"><g><g><path d="m181.807 258.497c21.586-38.762 24.945-81.194 11.98-111.911-4.477-10.607-7.359-21.784-9.187-33.151-1.491-9.275-5.106-15.972-10.997-19.253-5.892-3.281-13.488-2.827-22.159.79-10.626 4.432-21.646 7.868-33.02 9.647-32.941 5.153-67.244 30.353-88.83 69.115-21.586 38.762-24.944 81.194-11.979 111.911 4.477 10.606 7.359 21.782 9.186 33.148 1.491 9.277 5.106 15.974 10.998 19.255s13.489 2.827 22.161-.79c10.624-4.432 21.643-7.867 33.017-9.646 32.94-5.153 67.244-30.352 88.83-69.115z" fill="#ffe35c"/><path d="m193.786 146.587c-4.477-10.607-7.359-21.784-9.187-33.152-1.491-9.275-5.106-15.972-10.997-19.253s-13.488-2.827-22.159.789c-10.625 4.433-21.645 7.868-33.02 9.647-12.562 1.965-25.319 6.854-37.497 14.29 3.442-1.087 6.892-1.915 10.323-2.451 8.788-1.375 17.301-4.029 25.51-7.454 6.699-2.794 12.567-3.145 17.119-.61 4.551 2.535 7.344 7.709 8.496 14.874 1.412 8.782 3.638 17.418 7.097 25.613 10.016 23.73 7.421 56.512-9.255 86.457-16.677 29.947-43.178 49.414-68.627 53.396-8.787 1.374-17.3 4.028-25.508 7.452-6.699 2.795-12.568 3.145-17.12.611-4.552-2.535-7.345-7.71-8.497-14.876-1.411-8.781-3.638-17.416-7.097-25.609-1.35-3.199-2.464-6.568-3.352-10.067.091 14.268 2.653 27.688 7.598 39.403 4.477 10.606 7.359 21.781 9.186 33.148 1.491 9.276 5.106 15.974 10.998 19.255s13.489 2.827 22.16-.79c10.625-4.432 21.644-7.867 33.017-9.646 32.941-5.153 67.245-30.352 88.831-69.115 21.587-38.763 24.947-81.195 11.981-111.912z" fill="#ffac62"/><path d="m314.586 241.899c-10.155-43.189-36.253-76.814-66.526-90.784-10.454-4.824-20.113-11.144-29.12-18.315-7.35-5.851-14.532-8.367-21.097-6.823-6.564 1.544-11.874 6.996-15.846 15.509-4.868 10.433-10.699 20.395-17.907 29.372-20.876 25.997-29.256 67.728-19.101 110.918s36.254 76.814 66.527 90.785c10.453 4.824 20.111 11.143 29.117 18.313 7.351 5.852 14.533 8.367 21.098 6.824 6.565-1.544 11.875-6.996 15.847-15.511 4.867-10.432 10.698-20.393 17.906-29.369 20.877-25.998 29.257-67.729 19.102-110.919z" fill="#a2f4e3"/><path d="m286.775 248.438c-7.618-32.399-25.849-57.939-46.561-68.889-7.152-3.781-13.793-8.664-20.008-14.171-5.071-4.493-9.971-6.495-14.383-5.458s-7.906 5.012-10.444 11.295c-3.11 7.699-6.879 15.03-11.596 21.602-13.662 19.032-18.602 50.02-10.984 82.419s25.849 57.939 46.561 68.889c7.151 3.781 13.792 8.663 20.006 14.169 5.072 4.494 9.972 6.496 14.384 5.458 4.412-1.037 7.907-5.013 10.445-11.296 3.109-7.698 6.878-15.029 11.595-21.6 13.663-19.03 18.603-50.019 10.985-82.418z" fill="#fff"/><path d="m314.586 241.899c-10.155-43.19-36.253-76.814-66.526-90.784-10.454-4.824-20.113-11.144-29.12-18.315-7.35-5.851-14.532-8.366-21.097-6.823-3.277.771-6.241 2.515-8.882 5.129 2.445.963 4.944 2.472 7.469 4.482 7.093 5.647 14.699 10.624 22.93 14.422 23.838 11 44.389 37.478 52.385 71.487s1.397 66.87-15.041 87.341c-5.676 7.068-10.267 14.911-14.1 23.126-3.128 6.705-7.309 10.998-12.479 12.214-5.17 1.215-10.826-.765-16.614-5.373-7.091-5.646-14.697-10.621-22.928-14.42-20.608-9.51-38.752-30.591-48.459-58.101.696 5.127 1.642 10.3 2.863 15.494 10.155 43.19 36.254 76.814 66.527 90.784 10.452 4.823 20.111 11.142 29.117 18.312 7.351 5.852 14.533 8.368 21.098 6.824 6.565-1.543 11.875-6.996 15.847-15.511 4.867-10.431 10.698-20.393 17.906-29.369 20.879-25.998 29.259-67.729 19.104-110.919z" fill="#b0b8e5"/><path d="m264.195 352.457c3.109-7.699 6.878-15.028 11.595-21.599 13.662-19.033 18.602-50.021 10.984-82.42-4.27-18.162-11.877-34.167-21.385-46.657 2.582 6.22 4.731 12.808 6.355 19.716 7.996 34.009 1.397 66.869-15.042 87.341-5.676 7.068-10.267 14.911-14.1 23.126-3.128 6.705-7.309 10.999-12.479 12.214-5.169 1.215-10.826-.765-16.614-5.373-3.931-3.13-8.027-6.042-12.292-8.674 5.657 5.89 11.781 10.633 18.141 13.996 7.151 3.781 13.792 8.663 20.006 14.169 5.072 4.495 9.972 6.496 14.384 5.459 4.414-1.039 7.909-5.014 10.447-11.298z" fill="#ffc0fe"/><g fill="#c37777"><ellipse cx="404.124" cy="299.26" rx="36.352" ry="28.298" transform="matrix(.613 -.79 .79 .613 -79.997 435.274)"/><ellipse cx="307.978" cy="336.648" rx="36.352" ry="28.298" transform="matrix(.357 -.934 .934 .357 -116.445 504.122)"/><ellipse cx="375.518" cy="340.262" rx="28.299" ry="36.352" transform="matrix(.23 -.973 .973 .23 -41.917 627.559)"/><ellipse cx="451.925" cy="340.262" rx="28.298" ry="36.351" transform="matrix(.983 -.181 .181 .983 -54.181 87.534)"/></g><path d="m483.595 349.178c11.853 0 20.544 11.562 17.821 23.606-11.573 51.189-60.019 89.595-118.025 89.595s-106.451-38.407-118.024-89.595c-2.723-12.044 5.967-23.606 17.82-23.606z" fill="#e79d8e"/><path d="m483.595 349.178h-62.431c8.47 0 14.68 8.263 12.734 16.869-8.27 36.579-42.888 64.022-84.337 64.022s-76.067-27.444-84.337-64.022c-.056-.248-.082-.494-.125-.741-.368 2.402-.308 4.929.268 7.479 11.573 51.189 60.019 89.595 118.024 89.595 58.006 0 106.451-38.406 118.025-89.595 2.722-12.045-5.968-23.607-17.821-23.607z" fill="#df768f"/><ellipse cx="305.225" cy="453.429" fill="#c37777" rx="36.352" ry="28.298" transform="matrix(.899 -.437 .437 .899 -167.493 179.024)"/><path d="m369.926 394.358h-20.853c-5.565 0-10.077-4.512-10.077-10.077s4.512-10.077 10.077-10.077h20.853c5.565 0 10.077 4.512 10.077 10.077s-4.512 10.077-10.077 10.077z" fill="#fff"/><path d="m315.394 394.358h-7.416c-5.565 0-10.077-4.512-10.077-10.077s4.512-10.077 10.077-10.077h7.416c5.565 0 10.077 4.512 10.077 10.077s-4.512 10.077-10.077 10.077z" fill="#fff"/></g><g fill="#4e0325"><path d="m505.51 349.744c-3.914-4.897-9.185-8.272-15.029-9.768-.137-2.202-.402-4.429-.815-6.67-4.48-24.313-23.944-41.331-44.014-39.019.069-1.035.115-2.069.113-3.101-.023-11.706-4.831-22.137-13.193-28.62-16.721-12.961-43.089-7.052-58.776 13.18-6.31 8.139-9.929 17.371-10.928 26.348-4.186.695-8.214 1.906-11.966 3.625-2.894 1.326-5.546 2.944-7.936 4.792-3.416-6.868-8.603-12.321-14.951-15.662 1.882-17.771.763-36.623-3.618-55.257-10.468-44.522-38.101-81.932-72.114-97.628-9.047-4.175-17.9-9.751-27.066-17.049-12.607-10.036-23.1-10.3-29.679-8.749-.071.018-.145.037-.217.055-.271-1.441-.532-2.896-.771-4.386-2.557-15.909-10.136-23.169-16.043-26.457-5.907-3.291-16.071-5.911-30.941.292-10.814 4.511-20.855 7.451-30.699 8.992-37.01 5.79-73.824 34.21-96.076 74.168-22.253 39.959-27.027 86.221-12.46 120.734 3.875 9.18 6.662 19.264 8.521 30.829 2.557 15.907 10.136 23.169 16.044 26.46 8.566 4.868 20.016 4.397 30.944-.295 10.808-4.509 20.848-7.449 30.694-8.989 17.624-2.758 35.196-10.661 51.18-22.482 13.758 30.424 35.838 54.745 61.581 66.624 9.046 4.175 17.898 9.75 27.062 17.046 9.218 7.34 17.306 9.452 23.561 9.452 2.299 0 4.352-.286 6.12-.702 1.118-.263 2.318-.635 3.566-1.123 3.48 6.246 7.527 12.208 12.09 17.816-6.635 4.874-11.954 11.058-15.378 18.021-5.165 10.504-5.474 21.986-.849 31.502 4.624 9.516 13.844 16.366 25.294 18.796 11.211 2.316 22.591.541 33.239-4.574 10.157-4.937 18.009-12.481 22.825-21.005 12.42 3.619 25.423 5.517 38.566 5.517 30.021 0 59.345-9.834 82.567-27.69 23.038-17.714 39.121-42.488 45.287-69.759 2.024-8.962-.065-18.169-5.735-25.264zm-68.98-26.489c1.475-2.839 4.818-7.762 10.633-8.833.737-.136 1.478-.202 2.219-.202 9.026 0 18.077 9.796 20.463 22.739.132.717.233 1.43.321 2.142h-36.676c-.334-5.748.703-11.348 3.04-15.846zm-46.806-35.16c6.059-7.814 14.644-12.323 21.94-12.323 3.21 0 6.173.874 8.559 2.725 4.672 3.622 5.381 9.531 5.387 12.73.013 6.376-2.571 13.373-7.087 19.197-2.3 2.968-4.969 5.436-7.789 7.379-6.741-7.19-15.985-12.433-26.399-14.891-.416-.099-.832-.182-1.249-.27.882-4.872 3.101-9.984 6.638-14.547zm-39.777 46.129c1.358-5.754 6.441-8.849 9.349-10.183 3.585-1.643 7.796-2.479 12.185-2.479 2.708 0 5.485.318 8.222.966 7.173 1.693 13.58 5.514 17.577 10.481 1.099 1.365 2.54 3.499 3.399 6.092h-50.891c-.242-1.532-.243-3.172.159-4.877zm-32.588-22.118c5.523 2.11 7.915 7.56 8.85 10.619 1.501 4.916 1.479 10.707.045 16.376h-37.43c.308-2.947.992-5.974 2.134-8.96 2.631-6.884 7.27-12.726 12.725-16.027 1.984-1.2 5.373-2.824 9.192-2.824 1.45 0 2.964.234 4.484.816zm-288.247-24.737c-.704-1.906-1.432-3.794-2.212-5.643-12.209-28.927-7.803-68.429 11.499-103.09s50.563-59.208 81.583-64.062c3.254-.509 6.52-1.16 9.806-1.929-28.74 25.694-51.627 53.189-68.27 82.07-16.663 28.914-27.497 59.946-32.406 92.654zm9.521 36.753c-.148-.346-.285-.7-.416-1.059 1.652-85.479 41.847-157.778 122.65-220.589.445-.097.891-.183 1.335-.249zm52.786-6.466c-1.981.311-3.968.685-5.958 1.09 17.867-15.16 33.438-32.418 46.625-51.638.738 5.654 1.765 11.324 3.093 16.975.904 3.846 1.945 7.634 3.098 11.363-14.543 11.825-30.73 19.686-46.858 22.21zm39.266-70.524c-20.016 33.482-46.731 60.919-80.377 82.672-.37.076-.74.146-1.109.201l123.57-221.896c.178.415.33.848.483 1.278-1.418 13.279-3.334 26.06-5.762 38.339-3.472 6.193-7.193 11.762-11.257 16.822-16.952 21.109-25.86 50.887-25.548 82.584zm116.225 135.858c-10.443-8.315-20.64-14.72-31.171-19.579-28.508-13.156-51.859-45.32-60.94-83.942-9.081-38.62-2.51-77.819 17.149-102.301 7.262-9.044 13.537-19.322 19.182-31.421 1.874-4.018 4.96-9.006 9.021-9.96.514-.121 1.043-.178 1.582-.178 3.716 0 7.902 2.663 10.931 5.074 10.445 8.316 20.642 14.722 31.174 19.582 28.508 13.155 51.858 45.32 60.94 83.94 3.769 16.031 4.833 32.158 3.39 47.293-4.411.605-8.822 2.035-13.025 4.292 2.18-15.272 1.435-32.083-2.481-48.736-7.721-32.838-26.734-60.753-49.621-72.852-6.266-3.312-12.424-7.68-18.824-13.35-6.787-6.016-13.441-8.31-19.776-6.818-6.336 1.49-11.271 6.508-14.667 14.916-3.203 7.93-6.769 14.584-10.902 20.341-15.097 21.03-19.679 54.493-11.958 87.329 7.72 32.836 26.734 60.75 49.621 72.851 6.267 3.312 12.423 7.68 18.822 13.349 5.449 4.829 10.812 7.26 15.994 7.26 1.167 0 2.323-.139 3.47-.385.083 1.769.317 3.545.716 5.312.989 4.374 2.247 8.68 3.735 12.906-4.032.842-8.936-2.197-12.362-4.923zm-32.236-159.013 7.843 33.358-45.076 10.599c-2.236-11.973-2.714-23.844-1.533-34.842zm-36.498-3.841c2.245-9.06 5.77-17.178 10.519-23.793 4.702-6.549 8.723-14.028 12.292-22.863.383-.948.788-1.801 1.206-2.588l9.714 41.313zm45.502-10.699-9.717-41.329c.724.519 1.471 1.117 2.236 1.795 7.131 6.318 14.062 11.223 21.192 14.991 7.199 3.806 13.973 9.502 20.02 16.612zm41.534 2.657c5.958 9.318 10.82 20.159 14.154 31.874l-45.077 10.599-7.843-33.357zm-39.927 57.013 7.822 33.267-38.799 9.122c-5.934-9.3-10.776-20.11-14.099-31.79zm10.59 45.038 9.735 41.404c-.725-.519-1.468-1.102-2.234-1.78-7.129-6.316-14.06-11.219-21.189-14.989-7.227-3.82-14.025-9.545-20.09-16.693zm9.004-14.54-7.822-33.266 45.076-10.599c2.229 11.937 2.712 23.772 1.544 34.742zm25.627 28.266c-4.542 6.425-8.447 13.729-11.917 22.322-.383.948-.789 1.802-1.207 2.59l-9.735-41.405 33.777-7.942c-.474 1.922-1.002 3.802-1.591 5.633-3.148 4.129-5.762 8.805-7.701 13.878-.626 1.635-1.166 3.278-1.626 4.924zm42.684 141.947c-6.63 3.221-14.009 4.308-20.245 2.986-3.13-.664-8.766-2.572-11.351-7.891-2.584-5.318-.602-10.93.809-13.8 2.813-5.722 8.228-10.853 14.857-14.073 6.628-3.221 14.005-4.312 20.245-2.986 3.13.664 8.766 2.572 11.351 7.891 4.317 8.882-2.857 21.647-15.666 27.873zm178.395-99.255c-10.708 47.363-56.211 81.739-108.195 81.739-11.48 0-22.635-1.693-33.176-4.822.009-4.926-1.02-9.794-3.232-14.345-4.624-9.516-13.844-16.367-25.294-18.797-7.421-1.574-15.378-1.27-23.144.806-11.324-12.585-19.546-27.753-23.351-44.581-.667-2.951-.004-5.953 1.821-8.236.916-1.147 2.938-3.071 6.171-3.071h200.408c3.234 0 5.254 1.924 6.17 3.071 1.827 2.282 2.49 5.285 1.822 8.236z"/><path d="m448.601 368.197c-3.339 0-6.046-2.707-6.046-6.046v-15.27c0-3.339 2.707-6.046 6.046-6.046s6.046 2.707 6.046 6.046v15.27c0 3.339-2.707 6.046-6.046 6.046z"/><path d="m412.918 390.726c-3.339 0-6.046-2.707-6.046-6.046v-15.269c0-3.339 2.707-6.046 6.046-6.046s6.046 2.707 6.046 6.046v15.269c0 3.339-2.707 6.046-6.046 6.046z"/></g><g><path d="m463.948 96.158-8.278 23.276c-.354.997-1.056 1.786-1.941 2.185l-20.68 9.317c-2.922 1.316-2.922 5.971 0 7.288l20.68 9.317c.885.399 1.587 1.189 1.941 2.185l8.278 23.276c1.169 3.288 5.305 3.288 6.475 0l8.278-23.276c.354-.997 1.056-1.786 1.941-2.185l20.68-9.317c2.922-1.316 2.922-5.971 0-7.288l-20.68-9.317c-.885-.399-1.587-1.189-1.941-2.185l-8.278-23.276c-1.17-3.288-5.306-3.288-6.475 0z" fill="#a2f4e3"/><path d="m262.462 20.309-6.14 17.266c-.263.739-.783 1.325-1.44 1.621l-15.34 6.911c-2.167.977-2.167 4.429 0 5.406l15.34 6.911c.657.296 1.177.882 1.44 1.621l6.14 17.266c.868 2.439 3.935 2.439 4.803 0l6.14-17.266c.263-.739.783-1.325 1.44-1.621l15.34-6.911c2.167-.977 2.167-4.429 0-5.406l-15.34-6.911c-.657-.296-1.177-.882-1.44-1.621l-6.14-17.266c-.867-2.439-3.935-2.439-4.803 0z" fill="#a2f4e3"/><g fill="#00ebc4"><ellipse cx="375.518" cy="44.07" rx="18.075" ry="18.075" transform="matrix(.993 -.122 .122 .993 -2.571 46.212)"/><circle cx="369.925" cy="152.919" r="7.797"/></g></g></g></svg>