<svg id="Capa_1" enable-background="new 0 0 512 512" height="512" viewBox="0 0 512 512" width="512" xmlns="http://www.w3.org/2000/svg"><g><g><path d="m251.048 501.648c-17.213 0-31.167-13.954-31.167-31.167v-162.686h62.334v162.686c-.001 17.214-13.955 31.167-31.167 31.167z" fill="#ffc8b7"/><path d="m219.881 368.957h62.334v43.811h-62.334z" fill="#ff96b9"/><path d="m319.461 368.957h-136.827c-27.74 0-49.796-23.284-48.294-50.983l13.221-243.874c1.938-35.752 31.494-63.749 67.299-63.749h71.944c35.759 0 65.294 27.927 67.293 63.631l13.653 243.907c1.553 27.73-20.515 51.068-48.289 51.068z" fill="#a2f4e3"/><path d="m367.75 317.888-13.652-243.906c-1.999-35.703-31.533-63.631-67.292-63.631h-29.216c28.91 0 52.788 22.579 54.404 51.444l11.038 197.191c1.255 22.419-16.587 41.287-39.04 41.287h-110.622c-16.902 0-31.189-10.695-36.686-25.549l-2.345 43.25c-1.502 27.699 20.554 50.983 48.294 50.983h136.827c27.775 0 49.843-23.338 48.29-51.069z" fill="#b0b8e5"/><g fill="#fff"><path d="m200.033 166.391c-.037 0-.074 0-.111-.001-5.717-.06-10.302-4.743-10.241-10.46.148-14.001.168-28.385.058-42.755-.044-5.716 4.556-10.387 10.273-10.43h.081c5.68 0 10.306 4.582 10.349 10.273.11 14.494.09 29.005-.06 43.13-.06 5.68-4.683 10.243-10.349 10.243z"/><path d="m200.031 80.189c-5.717 0-10.351-4.635-10.351-10.352v-10.897c0-5.717 4.635-10.352 10.351-10.352s10.352 4.635 10.352 10.352v10.897c0 5.717-4.635 10.352-10.352 10.352z"/></g></g><path d="m378.086 317.31-13.653-243.906c-2.304-41.162-36.402-73.404-77.628-73.404h-71.944c-41.298 0-75.4 32.303-77.636 73.54l-13.221 243.873c-.881 16.264 4.802 31.733 16.003 43.558 11.201 11.824 26.34 18.337 42.627 18.337h26.896v91.174c0 22.893 18.625 41.518 41.518 41.518s41.518-18.625 41.518-41.518v-91.174h26.896c16.308 0 31.459-6.525 42.663-18.375 11.204-11.848 16.872-27.341 15.961-43.623zm-61.031-287.908c-.109.46-.172.937-.172 1.43v276.964c0 7.285-5.928 13.213-13.214 13.213h-7.684c-7.285 0-13.213-5.928-13.213-13.213v-286.73c0-.122-.011-.242-.018-.363h4.052c11.083 0 21.459 3.187 30.249 8.699zm-99.949-8.699c-.007.121-.018.241-.018.363v286.73c0 7.285-5.928 13.213-13.214 13.213h-7.684c-7.286 0-13.214-5.928-13.214-13.213v-277.334c9.123-6.161 20.1-9.759 31.885-9.759zm54.757 449.779c0 11.478-9.337 20.815-20.815 20.815s-20.815-9.337-20.815-20.815v-91.174h41.63zm75.219-123.773c-7.253 7.672-17.063 11.896-27.62 11.896h-136.828c-10.545 0-20.345-4.216-27.597-11.871-7.252-7.656-10.932-17.671-10.361-28.201l13.221-243.872c.675-12.455 5.32-23.794 12.656-32.832v265.966c0 14.135 11.5 25.635 25.636 25.635h7.684c14.136 0 25.636-11.5 25.636-25.635v-286.729c0-.122-.011-.242-.018-.363h40.876c-.007.121-.018.241-.018.363v286.73c0 14.135 11.5 25.635 25.635 25.635h7.684c14.136 0 25.636-11.5 25.636-25.635v-268.073c8.357 9.329 13.708 21.435 14.458 34.837l13.653 243.907c.59 10.541-3.079 20.571-10.333 28.242z" fill="#4e0325"/><g><path d="m77.937 385.32-8.503 23.909c-.364 1.024-1.085 1.835-1.994 2.245l-21.243 9.57c-3.001 1.352-3.001 6.134 0 7.486l21.243 9.571c.909.41 1.63 1.221 1.994 2.245l8.503 23.909c1.201 3.378 5.45 3.378 6.651 0l8.503-23.909c.364-1.024 1.085-1.835 1.994-2.245l21.243-9.571c3.001-1.352 3.001-6.134 0-7.486l-21.243-9.57c-.91-.41-1.63-1.221-1.994-2.245l-8.503-23.909c-1.201-3.378-5.449-3.378-6.651 0z" fill="#a2f4e3"/><path d="m450.311 303.403-6.307 17.736c-.27.759-.805 1.361-1.479 1.665l-15.757 7.099c-2.226 1.003-2.226 4.55 0 5.553l15.757 7.099c.675.304 1.209.906 1.479 1.665l6.307 17.736c.891 2.505 4.042 2.505 4.933 0l6.308-17.736c.27-.759.805-1.361 1.479-1.665l15.758-7.099c2.226-1.003 2.226-4.55 0-5.553l-15.758-7.099c-.675-.304-1.209-.906-1.479-1.665l-6.308-17.736c-.89-2.506-4.041-2.506-4.933 0z" fill="#a2f4e3"/><g fill="#00ebc4"><ellipse cx="384.388" cy="435.512" rx="18.567" ry="18.567" transform="matrix(.957 -.29 .29 .957 -109.711 130.076)"/><ellipse cx="39.551" cy="327.22" rx="8.009" ry="8.009" transform="matrix(.707 -.707 .707 .707 -219.796 123.807)"/></g></g></g></svg>