<svg id="Capa_1" enable-background="new 0 0 512 512" height="512" viewBox="0 0 512 512" width="512" xmlns="http://www.w3.org/2000/svg"><g><g><circle cx="255.367" cy="280.338" fill="#ffddb6" r="218.445"/><path d="m255.367 61.893c-5.513 0-10.976.209-16.386.611 96.174 7.698 171.824 88.176 171.824 186.331 0 103.245-83.696 186.941-186.942 186.941-98.155 0-178.634-75.65-186.331-171.824-.401 5.41-.61 10.874-.61 16.386 0 120.644 97.801 218.445 218.445 218.445s218.445-97.801 218.445-218.445c0-120.643-97.801-218.445-218.445-218.445z" fill="#ffa7b8"/><path d="m353.355 174.646c-4.869-11.742-7.31-26.743-8.875-39.159-3.25-25.782-54.795-46.315-73.119-30.287-9.804 8.575-22.633 16.714-33.959 21.411-11.741 4.869-30.31.027-39.159 8.876-8.848 8.848-4.007 27.418-8.876 39.159-4.697 11.327-27.078 34.296-23.768 59.702 2.944 22.6 17.931 48.975 33.494 62.147 18.333 15.516 51.56 18.906 72.268 15.516 2.123-.348 4.162-1.036 6.138-1.965 3.408-1.602 7.327.831 7.327 4.597v51.746c0 8.24 6.447 15.309 14.686 15.46 8.394.154 15.247-6.604 15.247-14.964v-66.212c0-6.827 4.701-12.779 11.358-14.295 1.1-.251 2.202-.511 3.288-.777 7.858-1.917 15.428 4.055 15.428 12.144 0 8.24 6.447 15.309 14.686 15.46 8.394.154 15.247-6.605 15.247-14.964v-89.637c0-13.024-16.714-22.632-21.411-33.958z" fill="#fff2a5"/><circle cx="238.318" cy="190.147" fill="#75b7f2" r="23.992"/><path d="m252.91 276.287c-17.973 17.126-52.977 15.934-62.07 6.392-9.093-9.543-8.596-44.564 9.377-61.69s37.782-12.383 52.333 2.887 18.333 35.285.36 52.411z" fill="#ff8cc0"/><ellipse cx="308.019" cy="219.897" fill="#75b7f2" rx="23.992" ry="23.992" transform="matrix(.23 -.973 .973 .23 23.236 469.154)"/><g fill="#fff"><path d="m312.865 147.214c-1.734 0-3.491-.451-5.093-1.396-1.305-.77-2.678-1.415-4.081-1.916-5.219-1.863-7.94-7.604-6.077-12.823 1.862-5.22 7.601-7.941 12.823-6.077 2.602.928 5.139 2.119 7.54 3.537 4.771 2.817 6.355 8.97 3.538 13.742-1.874 3.169-5.217 4.933-8.65 4.933z"/><path d="m262.316 155.615c-2.901 0-5.779-1.251-7.763-3.67-3.515-4.284-2.892-10.606 1.393-14.121 5.187-4.257 11.276-7.855 18.099-10.694 5.115-2.131 10.99.29 13.12 5.406s-.291 10.99-5.407 13.12c-4.94 2.057-9.464 4.713-13.083 7.682-1.867 1.531-4.12 2.277-6.359 2.277z"/></g></g><g fill="#4e0325"><path d="m416.927 118.779c-43.154-43.154-100.531-66.92-161.559-66.92-61.029 0-118.405 23.766-161.559 66.92-43.154 43.155-66.92 100.531-66.92 161.559s23.766 118.404 66.92 161.559c43.154 43.154 100.531 66.92 161.559 66.92 61.029 0 118.405-23.766 161.559-66.92 43.154-43.155 66.92-100.531 66.92-161.559s-23.767-118.404-66.92-161.559zm-161.56 369.97c-114.918 0-208.411-93.493-208.411-208.411s93.493-208.411 208.411-208.411 208.411 93.493 208.411 208.411-93.493 208.411-208.411 208.411z"/><path d="m106.853 183.85h48.158c3.325 0 6.02-2.696 6.02-6.02v-47.485c0-2.223-1.225-4.265-3.186-5.312-1.962-1.046-4.339-.928-6.186.311-19.571 13.118-36.311 29.625-49.757 49.062-1.273 1.841-1.42 4.237-.381 6.219s3.093 3.225 5.332 3.225zm42.137-41.769v29.727h-30.18c8.841-11.127 18.942-21.075 30.18-29.727z"/><path d="m439.942 285.531c-1.137-1.197-2.714-1.874-4.364-1.874h-54.792v-10.943h54.523c1.675 0 3.274-.698 4.413-1.925 1.139-1.228 1.715-2.875 1.59-4.545-1.786-23.827-8.017-46.735-18.52-68.09-1.013-2.059-3.108-3.363-5.402-3.363h-41.068c-2.503-3.945-5.716-7.516-8.737-10.867-.023-.025-.044-.049-.067-.074h36.37c2.238 0 4.292-1.242 5.332-3.225s.893-4.379-.381-6.22c-13.446-19.442-30.189-35.954-49.763-49.075-1.847-1.24-4.225-1.357-6.186-.312-1.962 1.047-3.186 3.089-3.186 5.312v.659c-4.186-15.568-21.374-27.176-35.677-32.616-11.123-4.23-25.176-6.613-36.47-3.197-3.42-.408-6.86-.726-10.32-.943-1.648-.103-3.287.482-4.499 1.62-1.212 1.139-1.899 2.727-1.899 4.389v5.731c-3.492 2.631-7.196 5.145-10.942 7.427v-13.157c0-1.662-.687-3.25-1.899-4.389-1.212-1.138-2.843-1.723-4.499-1.62-23.753 1.492-46.661 7.412-68.089 17.595-2.099.998-3.436 3.113-3.436 5.437v60.563c0 2.967 2.148 5.427 4.972 5.923-5.516 8.441-12.646 19.605-15.914 32.191v-15.132c0-3.325-2.696-6.02-6.02-6.02h-61.665c-2.294 0-4.389 1.304-5.402 3.363-10.505 21.355-16.737 44.263-18.524 68.09-.125 1.67.451 3.317 1.59 4.545s2.738 1.925 4.413 1.925h79.586c3.325 0 6.02-2.696 6.02-6.02v-23.924c3.184 13.746 10.056 28.581 18.672 40.887h-1.709c-3.325 0-6.02 2.696-6.02 6.02v65.881c0 3.325 2.696 6.02 6.02 6.02h65.882c3.325 0 6.02-2.696 6.02-6.02v-36.416c3.724.163 7.391.156 10.942-.013v36.429c0 3.325 2.696 6.02 6.02 6.02h11.946v4.809c0 2.127.315 4.185.889 6.133h-12.835c-3.325 0-6.02 2.696-6.02 6.02v81.893c0 1.662.687 3.25 1.899 4.389 1.119 1.052 2.595 1.632 4.121 1.632.126 0 .252-.004.378-.012 23.772-1.495 46.68-7.413 68.088-17.589 2.099-.997 3.436-3.114 3.436-5.437v-64.876c0-3.325-2.696-6.02-6.02-6.02h-12.742c.502-1.813.781-3.701.781-5.637v-5.305h11.961c3.325 0 6.02-2.696 6.02-6.02v-58.612c.032.264.051.53.051.8 0 8.041 4.416 15.123 10.891 18.802v39.01c0 3.325 2.696 6.02 6.02 6.02h63.706c2.353 0 4.49-1.371 5.472-3.509 9.865-21.491 15.481-44.398 16.689-68.086.087-1.647-.509-3.257-1.646-4.452zm-290.952-24.858h-66.957c2.098-18.727 7.166-36.794 15.106-53.841h51.851zm264.608-53.841c7.939 17.047 13.005 35.115 15.103 53.841h-47.915v-52.068c0-.6-.028-1.19-.077-1.774h32.889zm-51.854-64.764c11.243 8.655 21.345 18.608 30.188 29.741h-30.188zm-123.889-35.298v13.07c-.93.424-1.854.834-2.76 1.21-3.93 1.63-9.306 1.939-14.998 2.268-9.053.522-19.313 1.114-26.112 7.911-6.799 6.799-7.391 17.06-7.912 26.113-.313 5.423-.623 10.543-2.059 14.415v-50.641c17.098-7.677 35.164-12.49 53.841-14.346zm3.174 101.121c-4.588-2.183-9.278-3.439-13.972-3.758-4.087-3.297-6.712-8.339-6.712-13.987 0-9.91 8.062-17.972 17.972-17.972 9.909 0 17.971 8.062 17.971 17.972.001 8.986-6.634 16.431-15.259 17.745zm-16.554 8.277c10.785 0 19.469 7.404 23.716 11.86 6.673 7.003 20.086 25.299.566 43.901-7.001 6.672-18.131 10.879-30.534 11.543-11.433.617-20.24-2.024-23.025-4.945-2.784-2.922-4.994-11.842-3.83-23.237 1.262-12.357 6.001-23.27 13.002-29.942 7.097-6.764 13.944-9.18 20.105-9.18zm13.38 133.37h-53.841v-53.84h5.493c1.865 1.948 3.767 3.76 5.696 5.392 10.917 9.239 26.693 14.682 42.652 16.941zm35.024 0v-31.694c1.977-.366 3.931-.948 5.926-1.791v33.484h-5.926zm53.841 90.029c-17.083 7.672-35.151 12.483-53.841 14.34v-69.346h15.815c3.125 2.017 6.783 3.235 10.707 3.306.132.002.264.004.397.004 4.068 0 7.954-1.158 11.301-3.31h15.621zm0-90.029h-5.941v-48.866c0-1.845.569-3.562 1.554-4.975h4.387zm17.049-66.363c-4.491-3.527-10.248-4.774-15.794-3.422-1.057.258-2.128.512-3.195.755-9.445 2.151-16.042 10.444-16.042 20.165v66.211c0 2.421-.951 4.689-2.679 6.385-1.727 1.695-4.019 2.598-6.438 2.56-4.839-.088-8.776-4.324-8.776-9.441v-51.746c0-3.823-1.924-7.328-5.148-9.375-1.825-1.158-3.895-1.745-5.979-1.745-1.622 0-3.254.356-4.782 1.075-1.598.751-3.086 1.233-4.549 1.472-18.838 3.084-46.075.138-62.985-10.901 2.595.292 5.2.427 7.71.427 1.28 0 2.538-.034 3.754-.099 15.226-.816 29.148-6.228 38.196-14.85 18.717-17.836 18.658-41.18-.155-60.924-1.207-1.266-2.433-2.454-3.675-3.568 9.007-5.185 15.097-14.889 15.097-26.008 0-16.549-13.464-30.013-30.012-30.013-16.549 0-30.013 13.464-30.013 30.013 0 5.835 1.676 11.285 4.569 15.898-5.834 2.01-11.507 5.533-16.811 10.586-9.048 8.622-15.125 22.267-16.674 37.436-.146 1.433-.25 2.923-.309 4.445-3.793-8.367-6.481-17.014-7.513-24.942-2.129-16.349 8.369-32.396 16.034-44.112 3.136-4.794 5.844-8.934 7.326-12.506 2.411-5.813 2.795-12.475 3.166-18.917.437-7.577.85-14.734 4.406-18.29s10.714-3.969 18.291-4.406c6.442-.371 13.104-.756 18.917-3.166 11.86-4.919 25.175-13.308 35.616-22.44 6.288-5.501 20.122-5.541 34.423-.104 15.96 6.069 27.518 16.764 28.76 26.613 1.545 12.251 3.996 27.951 9.287 40.711v.001c2.307 5.562 6.65 10.378 10.85 15.035 5.195 5.761 10.102 11.203 10.102 16.618v89.636c0 2.42-.951 4.688-2.679 6.384-1.727 1.695-4.022 2.574-6.438 2.56-4.839-.088-8.776-4.323-8.776-9.44.002-5.725-2.58-11.035-7.082-14.571zm71.754 66.363h-53.779v-30.413c4.8-.446 9.267-2.481 12.758-5.908 4.052-3.978 6.284-9.297 6.284-14.975v-2.544h48.343c-1.622 18.631-6.187 36.7-13.606 53.84z"/><path d="m406.776 372.521h-51.053c-3.325 0-6.02 2.696-6.02 6.02v51.805c0 2.223 1.225 4.265 3.186 5.312.888.473 1.862.708 2.833.708 1.173 0 2.342-.343 3.353-1.02 21.127-14.161 38.874-32.17 52.749-53.526 1.203-1.851 1.296-4.212.243-6.152-1.053-1.939-3.083-3.147-5.291-3.147zm-45.032 46.091v-34.05h33.512c-9.584 12.876-20.802 24.273-33.512 34.05z"/><path d="m243.876 372.521h-65.882c-3.325 0-6.02 2.696-6.02 6.02v64.868c0 2.323 1.338 4.44 3.436 5.437 21.425 10.182 44.333 16.102 68.088 17.596.126.008.252.012.378.012 1.526 0 3.001-.58 4.121-1.632 1.212-1.139 1.899-2.727 1.899-4.389v-81.892c0-3.324-2.695-6.02-6.02-6.02zm-6.021 81.386c-18.679-1.857-36.745-6.67-53.841-14.347v-54.998h53.841z"/><path d="m155.011 283.657h-79.854c-1.65 0-3.228.677-4.364 1.874-1.136 1.195-1.732 2.805-1.648 4.454 1.209 23.689 6.825 46.596 16.692 68.087.982 2.138 3.119 3.508 5.471 3.508h63.703c3.325 0 6.02-2.696 6.02-6.02v-65.881c0-3.326-2.696-6.022-6.02-6.022zm-6.021 65.881h-53.776c-7.42-17.14-11.986-35.208-13.609-53.84h67.385z"/><path d="m155.011 372.521h-51.047c-2.208 0-4.238 1.208-5.291 3.148s-.96 4.302.243 6.153c13.873 21.348 31.619 39.351 52.743 53.511 1.01.677 2.179 1.019 3.353 1.019.971 0 1.946-.235 2.834-.708 1.961-1.047 3.186-3.089 3.186-5.312v-51.791c-.001-3.324-2.697-6.02-6.021-6.02zm-6.021 46.077c-12.707-9.773-23.922-21.166-33.505-34.036h33.505z"/><path d="m308.019 189.885c-16.549 0-30.012 13.464-30.012 30.013 0 16.548 13.464 30.012 30.012 30.012 16.549 0 30.013-13.464 30.013-30.012-.001-16.55-13.464-30.013-30.013-30.013zm0 47.983c-9.909 0-17.971-8.062-17.971-17.971s8.062-17.972 17.971-17.972c9.91 0 17.972 8.062 17.972 17.972s-8.062 17.971-17.972 17.971z"/></g><g><path d="m472.605 23.636-8.242 23.176c-.353.992-1.052 1.779-1.933 2.176l-20.591 9.277c-2.909 1.311-2.909 5.946 0 7.256l20.591 9.277c.882.397 1.58 1.184 1.933 2.176l8.242 23.176c1.164 3.274 5.283 3.274 6.447 0l8.242-23.176c.353-.992 1.052-1.779 1.933-2.176l20.591-9.277c2.909-1.311 2.909-5.946 0-7.256l-20.591-9.277c-.882-.397-1.58-1.184-1.933-2.176l-8.242-23.176c-1.165-3.274-5.283-3.274-6.447 0z" fill="#fff2a5"/><path d="m24.441 71.164-6.114 17.191c-.262.736-.78 1.319-1.434 1.614l-15.275 6.882c-2.158.972-2.158 4.41 0 5.383l15.274 6.882c.654.295 1.172.878 1.434 1.614l6.114 17.192c.864 2.429 3.918 2.429 4.782 0l6.114-17.192c.262-.736.78-1.319 1.434-1.614l15.274-6.882c2.158-.972 2.158-4.41 0-5.383l-15.273-6.881c-.654-.295-1.172-.878-1.434-1.614l-6.114-17.191c-.864-2.429-3.919-2.429-4.782-.001z" fill="#fff2a5"/><g fill="#ffe35c"><ellipse cx="103.963" cy="21.18" rx="17.997" ry="17.998" transform="matrix(.987 -.159 .159 .987 -2.046 16.831)"/><path d="m376.283 37.238c0 4.288 3.476 7.764 7.764 7.764s7.764-3.476 7.764-7.764-3.476-7.764-7.764-7.764c-4.289 0-7.764 3.476-7.764 7.764z"/></g></g></g></svg>