<svg id="Capa_1" enable-background="new 0 0 512 512" height="512" viewBox="0 0 512 512" width="512" xmlns="http://www.w3.org/2000/svg"><g><g><path d="m405.848 400.683h-300.607c-15.179 0-28.366-10.438-31.85-25.212l-17.934-76.041h401.087l-18.932 76.401c-3.619 14.599-16.723 24.852-31.764 24.852z" fill="#ff8cc0"/><path d="m256 321.2c14.183 0 28.7 15.871 42.595 15.279 14.481-.617 27.589-17.688 41.118-18.948 14.9-1.388 31.049 12.867 43.963 10.699 15.789-2.65 25.973-21.54 37.346-25.356 14.999-5.033 38.095 8.719 40.952 8.719 12.993 0 23.525-10.229 23.525-22.848s-10.533-22.848-23.525-22.848c-.028 0-.055 0-.083 0-5.125.017-9.881-2.535-12.559-6.905-33.181-54.146-91.802-83.367-190.235-84.285l-1.377-.022c-101.343 0-161.332 29.283-195.051 84.307-2.678 4.37-7.433 6.922-12.559 6.905-.028 0-.055 0-.083 0-12.993 0-23.525 10.229-23.525 22.848s10.533 22.848 23.525 22.848c2.857 0 5.594-.495 8.127-1.401 8.831-1.157 17.826-12.351 32.825-7.318 11.373 3.816 21.557 22.706 37.346 25.356 12.914 2.168 29.063-12.087 43.963-10.699 13.529 1.26 26.637 18.331 41.118 18.948 13.894.592 28.411-15.279 42.594-15.279" fill="#ffddb6"/><g fill="#ff8cc0"><path d="m188.514 256.925c-9.504 10.325-18.634 10.958-24.34 5.705-5.707-5.253-5.83-14.404 3.674-24.729s30.744-12.661 30.744-12.661-.574 21.36-10.078 31.685z"/><path d="m342.832 236.804c10.325 9.504 10.958 18.634 5.705 24.34-5.253 5.707-14.404 5.83-24.729-3.674s-12.661-30.744-12.661-30.744 21.36.573 31.685 10.078z"/><path d="m270.045 250.28c0 14.033-6.288 20.682-14.045 20.682s-14.045-6.649-14.045-20.682 14.045-30.137 14.045-30.137 14.045 16.104 14.045 30.137z"/></g><path d="m480.165 466.198h-448.33c-12.037 0-21.795-9.758-21.795-21.795v-19.922c0-12.037 9.758-21.795 21.795-21.795h448.33c12.037 0 21.795 9.758 21.795 21.795v19.922c0 12.037-9.758 21.795-21.795 21.795z" fill="#c37777"/><path d="m432.502 300.825c-8.781 1.032-21.336 10.489-28.494 15.745-2.922 2.145-5.884 4.537-8.99 6.693l-7.012 28.297c-3.181 12.838-14.704 21.854-27.931 21.854h-264.335c-12.911 0-24.159-8.6-27.655-20.92h-.113l5.419 22.977c3.484 14.774 16.671 25.212 31.85 25.212h300.607c15.041 0 28.145-10.253 31.763-24.853l13.491-54.441c-5.184-6.212-11.274-14.944-18.6-20.564z" fill="#ff68c1"/><path d="m485.498 288.745c0-12.619-10.533-22.848-23.525-22.848-.028 0-.055 0-.083 0-5.125.018-9.881-2.535-12.559-6.905-33.181-54.146-91.802-83.367-190.235-84.285-5.854-.065-11.709.067-17.509.242 80.21 2.745 128.756 28.23 156.725 73.87 2.355 3.843 11.785 18.423 18.47 44.948.595 2.362 4.239 9.107 4.239 9.107 14.999-5.033 40.953 8.719 40.954 8.719 12.992-.001 23.523-10.23 23.523-22.848z" fill="#ffa7b8"/><path d="m132.355 244.369c-3.723 0-7.299-2.079-9.037-5.652-2.424-4.986-.347-10.995 4.64-13.418 1.696-.824 3.433-1.602 5.165-2.312 5.134-2.099 10.995.355 13.096 5.485 2.102 5.132-.354 10.995-5.485 13.097-1.338.548-2.683 1.15-3.997 1.788-1.413.686-2.909 1.012-4.382 1.012z" fill="#fff"/><path d="m95.782 277.721c-1.723 0-3.467-.444-5.061-1.376-4.786-2.8-6.395-8.951-3.595-13.736 3.225-5.511 7.34-10.853 12.582-16.332 3.832-4.008 10.187-4.148 14.195-.315 4.007 3.833 4.148 10.188.315 14.195-4.145 4.332-7.338 8.451-9.761 12.594-1.868 3.191-5.226 4.97-8.675 4.97z" fill="#fff"/></g><g fill="#4e0325"><path d="m160.094 267.062c3.443 3.171 7.704 4.828 12.268 4.828 1.208 0 2.437-.117 3.678-.351 5.794-1.098 11.482-4.641 16.906-10.534 10.723-11.65 11.602-33.186 11.668-35.603.047-1.74-.662-3.415-1.942-4.593-1.281-1.18-3.008-1.749-4.738-1.556-2.404.265-23.793 2.92-34.517 14.569-5.424 5.891-8.486 11.852-9.101 17.717-.63 6.002 1.422 11.515 5.778 15.523zm6.203-14.267c.233-2.222 1.46-5.901 5.983-10.814 4.441-4.825 12.923-7.796 19.542-9.386-1.037 6.729-3.298 15.425-7.74 20.25-4.522 4.913-8.088 6.439-10.283 6.855-2.181.414-3.998-.077-5.545-1.503-1.548-1.424-2.188-3.191-1.957-5.402z"/><path d="m319.729 261.902c5.892 5.425 11.853 8.486 17.718 9.1.71.074 1.412.112 2.107.112 5.176 0 9.88-2.05 13.415-5.889 4.009-4.355 5.599-10.019 4.477-15.947-1.097-5.794-4.641-11.482-10.533-16.906-11.649-10.724-33.186-11.603-35.603-11.668-1.729-.025-3.415.661-4.594 1.942-1.178 1.281-1.746 3.008-1.555 4.739.263 2.403 2.918 23.794 14.568 34.517zm19.024-20.667c4.913 4.523 6.439 8.089 6.855 10.284.414 2.183-.078 3.997-1.503 5.545-1.425 1.549-3.19 2.185-5.403 1.956-2.222-.232-5.901-1.46-10.814-5.982-4.825-4.441-7.797-12.923-9.386-19.542 6.729 1.038 15.426 3.299 20.251 7.739z"/><path d="m256 276.986c9.258 0 20.069-6.995 20.069-26.706 0-15.834-13.939-32.274-15.529-34.095-1.144-1.312-2.8-2.065-4.54-2.065s-3.396.753-4.54 2.065c-1.589 1.822-15.529 18.261-15.529 34.095 0 19.711 10.811 26.706 20.069 26.706zm.007-46.856c3.792 5.638 8.014 13.558 8.014 20.15 0 3.438-.578 14.659-8.021 14.659-7.442 0-8.021-11.22-8.021-14.659 0-6.562 4.233-14.498 8.028-20.15z"/><path d="m480.165 392.646h-39.384c2.999-4.251 5.262-9.104 6.575-14.402l14.034-56.635c.195.003.388.022.583.022 18.508 0 33.565-14.753 33.565-32.888 0-18.134-15.057-32.888-33.565-32.888-.019 0-.12 0-.136 0-1.661 0-3.135-.788-3.946-2.111-18.18-29.666-42.726-51.252-75.042-65.992-33.034-15.066-73.483-22.618-123.589-23.085-.135-.001-1.427-.025-1.541-.024-51.613 0-93.145 7.323-126.969 22.388-33.096 14.74-58.166 36.562-76.642 66.712-.811 1.323-2.285 2.112-3.946 2.112-.017-.001-.118 0-.136 0-18.508 0-33.565 14.754-33.565 32.888s15.057 32.888 33.565 32.888c.117 0 .232-.012.348-.014l13.244 56.156c1.293 5.483 3.589 10.497 6.666 14.871h-38.45c-17.553.002-31.834 14.283-31.834 31.837v19.922c0 17.554 14.281 31.835 31.835 31.835h448.331c17.554 0 31.835-14.281 31.835-31.835v-19.922c-.001-17.554-14.282-31.835-31.836-31.835zm-408.125-77.155c6.299-3.24 10.135-4.979 15.744-3.099 2.781.933 6.864 4.8 10.814 8.54 6.528 6.18 14.523 13.727 25.032 16.525l8.062 53.187h-26.451c-10.572 0-19.652-7.188-22.079-17.478l-13.337-56.55c.745-.372 1.484-.748 2.215-1.125zm63.875 22.627c5.977-.902 11.783-3.302 17.461-5.659 6.389-2.653 12.99-5.397 17.979-4.932 3.968.369 9.433 3.994 14.726 7.515l4.643 55.6h-46.847zm252.402-.647c10.536-2.786 18.547-10.349 25.085-16.539 3.95-3.739 8.033-7.606 10.814-8.54 5.608-1.882 9.445-.14 15.744 3.099.664.341 1.333.682 2.008 1.02l-14.101 56.904c-2.513 10.144-11.568 17.228-22.018 17.228h-25.919zm-20.583 53.172h-46.721l4.821-55.543c.004-.003.009-.006.013-.009 5.315-3.536 10.812-7.192 14.798-7.563 4.985-.464 11.588 2.279 17.979 4.932 5.657 2.348 11.443 4.738 17.396 5.649zm-58.814 0h-47.002l.088-58.024c3.248 1.254 6.807 3.192 10.299 5.096 7.915 4.318 16.887 9.218 26.717 8.794 5.035-.214 9.7-1.718 14.058-3.796zm-59.049 0h-47.058l-4.007-47.982c4.391 2.105 9.093 3.632 14.171 3.848.396.017.79.025 1.183.025 9.366 0 17.937-4.675 25.533-8.819 3.479-1.898 7.025-3.828 10.264-5.083zm-213.33-101.898c0-7.063 6.049-12.808 13.534-12.808h.09c8.701 0 16.571-4.369 21.064-11.699 33.233-54.231 92.471-79.497 186.41-79.513l1.364.023c91.298.851 149.056 26.109 181.768 79.491 4.493 7.331 12.361 11.7 21.112 11.699h.09c7.436 0 13.485 5.745 13.485 12.808s-6.049 12.808-13.485 12.808c-1.638 0-3.234-.275-4.746-.815-.673-.24-1.369-.409-2.077-.501-1.27-.167-3.787-1.461-6.008-2.603-6.929-3.564-17.399-8.949-31.314-4.279-6.981 2.342-12.701 7.758-18.232 12.995-5.697 5.394-11.588 10.972-17.582 11.978-3.596.614-9.748-1.947-15.692-4.414-8.249-3.425-17.6-7.305-27.539-6.38-9.027.841-16.667 5.923-24.056 10.837-5.822 3.872-11.842 7.876-16.559 8.077-4.239.214-10.351-3.144-16.247-6.36-7.671-4.184-16.366-8.928-25.921-8.928s-18.25 4.743-25.921 8.928c-5.895 3.216-11.988 6.546-16.247 6.36-4.717-.201-10.737-4.205-16.559-8.077-7.389-4.914-15.029-9.995-24.055-10.837-9.938-.925-19.29 2.955-27.54 6.38-5.944 2.467-12.095 5.013-15.693 4.414-5.994-1.006-11.885-6.584-17.582-11.978-5.531-5.237-11.25-10.652-18.232-12.995-13.918-4.669-24.386.716-31.315 4.279-2.221 1.142-4.738 2.436-6.008 2.603-.708.092-1.404.261-2.077.501-1.511.54-3.108.815-4.746.815-7.434-.001-13.484-5.746-13.484-12.809zm455.38 155.659c0 6.482-5.273 11.755-11.755 11.755h-448.331c-6.482 0-11.755-5.274-11.755-11.755v-19.922c0-6.482 5.273-11.755 11.755-11.755h448.331c6.482 0 11.755 5.274 11.755 11.755z"/><path d="m387.139 261.613c3.327 0 6.024-2.697 6.024-6.024v-15.212c0-3.327-2.697-6.024-6.024-6.024s-6.024 2.697-6.024 6.024v15.212c.001 3.326 2.698 6.024 6.024 6.024z"/><path d="m300.111 283.556c3.327 0 6.024-2.697 6.024-6.024v-15.213c0-3.327-2.697-6.024-6.024-6.024s-6.024 2.697-6.024 6.024v15.213c0 3.326 2.697 6.024 6.024 6.024z"/></g><g><path d="m438.876 59.109-8.247 23.189c-.353.993-1.052 1.78-1.934 2.177l-20.603 9.282c-2.911 1.311-2.911 5.949 0 7.26l20.603 9.282c.882.397 1.581 1.184 1.934 2.177l8.247 23.189c1.165 3.276 5.286 3.276 6.451 0l8.247-23.189c.353-.993 1.052-1.78 1.934-2.177l20.603-9.282c2.911-1.311 2.911-5.949 0-7.26l-20.603-9.282c-.882-.397-1.581-1.184-1.934-2.177l-8.247-23.189c-1.166-3.276-5.286-3.276-6.451 0z" fill="#ffc5dd"/><path d="m167.448 37.584-6.117 17.201c-.262.736-.781 1.32-1.435 1.615l-15.283 6.885c-2.159.973-2.159 4.413 0 5.386l15.283 6.885c.654.295 1.173.879 1.435 1.615l6.117 17.201c.864 2.43 3.921 2.43 4.785 0l6.118-17.201c.262-.736.78-1.32 1.435-1.615l15.283-6.885c2.159-.973 2.159-4.413 0-5.386l-15.283-6.885c-.654-.295-1.173-.879-1.435-1.615l-6.118-17.201c-.865-2.43-3.921-2.43-4.785 0z" fill="#ffc5dd"/><g fill="#ff8cc0"><ellipse cx="44.509" cy="149.23" rx="18.008" ry="18.008" transform="matrix(.987 -.159 .159 .987 -23.202 8.995)"/><ellipse cx="306.269" cy="118.335" rx="7.768" ry="7.768" transform="matrix(.812 -.584 .584 .812 -11.5 200.961)"/></g></g></g></svg>