<svg id="Capa_1" enable-background="new 0 0 512 512" height="512" viewBox="0 0 512 512" width="512" xmlns="http://www.w3.org/2000/svg"><g><g><path d="m286.325 133.762c-9.335-19.208-52.651-17.404-96.749 4.027-44.099 21.432-72.281 54.376-62.946 73.583l-.054.027 32.59 107.917c30.861 63.5 223.606-30.172 192.746-93.672z" fill="#00ebc4"/><path d="m351.911 225.644-65.587-91.881c-9.335-19.208-52.651-17.405-96.749 4.026-4.945 2.403-9.677 4.958-14.191 7.615 27.067-10.118 51.32-9.507 57.154 2.498l47.281 66.237c19.983 41.118-90.087 99.785-128.823 78.128l8.169 27.048c30.861 63.501 223.607-30.171 192.746-93.671z" fill="#45b1c6"/><path d="m501.275 276.849c7.625-19.948-23.321-50.311-69.119-67.817-45.799-17.507-89.107-15.528-96.732 4.42l-.056-.021-56.424 97.594c-25.209 65.948 174.967 142.466 200.176 76.518z" fill="#75b7f2"/><path d="m432.156 209.032c-4.412-1.687-8.8-3.188-13.135-4.514 28.465 13.52 46.466 33.204 41.326 46.648l-16.784 83.85c-17.375 45.455-144.468 1.565-152.854-44.345l-11.767 20.353c-25.209 65.948 174.967 142.466 200.176 76.517l22.156-110.693c7.626-19.947-23.32-50.31-69.118-67.816z" fill="#8289f3"/><path d="m205.823 328.457c0-21.356-39.747-38.668-88.778-38.668s-88.778 17.312-88.778 38.668h-.06l-17.858 111.307c0 70.602 214.302 70.602 214.302 0z" fill="#ff8cc0"/><path d="m205.824 328.458c0-21.356-39.747-38.668-88.778-38.668-4.971 0-9.84.186-14.588.529 30.506 2.563 53.552 14.249 53.552 28.284l14.029 82.943c0 47.662-131.062 52.144-155.717 13.448l-3.974 24.77c0 70.602 214.302 70.602 214.302 0z" fill="#ff68c1"/><g fill="#fff"><path d="m135.886 331.918c-.59 0-1.188-.051-1.789-.156-7.617-1.328-15.098-2.041-22.235-2.123-5.715-.065-10.296-4.75-10.23-10.465.064-5.676 4.685-10.232 10.346-10.232.039 0 .08 0 .119.001 8.247.093 16.845.911 25.554 2.429 5.631.981 9.4 6.342 8.418 11.972-.878 5.03-5.247 8.574-10.183 8.574z"/><path d="m62.546 339.374c-4.026 0-7.855-2.364-9.529-6.303-2.236-5.259.215-11.336 5.476-13.573 2.998-1.275 6.034-2.442 9.025-3.469 5.405-1.853 11.292 1.022 13.149 6.427 1.856 5.406-1.022 11.293-6.427 13.149-2.529.868-5.103 1.858-7.651 2.941-1.321.562-2.693.828-4.043.828z"/></g></g><g fill="#4e0325"><path d="m274.416 181.466c2.516-2.329 2.668-6.258.339-8.775s-6.258-2.667-8.774-.339c-10.989 10.171-25.18 19.621-41.039 27.329-19.03 9.249-38.704 15.08-55.397 16.417-3.418.274-5.967 3.266-5.693 6.685.26 3.249 2.977 5.713 6.182 5.713.167 0 .335-.006.503-.02 18.196-1.457 39.446-7.717 59.834-17.625 16.942-8.234 32.172-18.396 44.045-29.385z"/><path d="m459.209 288.407c-14.939-1.058-31.54-4.945-48.007-11.24-19.767-7.557-37.478-17.918-49.869-29.179-2.539-2.307-6.466-2.118-8.771.419-2.306 2.538-2.118 6.465.419 8.771 13.508 12.275 32.61 23.493 53.786 31.588 17.593 6.725 35.423 10.885 51.564 12.029.15.01.297.015.445.015 3.23 0 5.956-2.499 6.188-5.771.242-3.42-2.334-6.39-5.755-6.632z"/><path d="m435.85 199.365c-38.776-14.822-73.39-16.455-94.029-5.669l-47.074-65.947c-.03-.044-.062-.087-.094-.13-16.751-22.713-61.821-22.359-109.601.862-49.127 23.876-76.706 58.122-68.626 85.216.004.013.007.025.011.037l20.139 66.619c-6.281-.599-12.805-.913-19.531-.913-54.62 0-94.395 18.746-98.972 46.646-.002.013-.004.026-.006.039l-17.937 112.004c-.087.54-.13 1.088-.13 1.636 0 14.489 6.882 34.786 39.671 49.189 20.717 9.1 48.356 14.111 77.828 14.111 29.473 0 57.112-5.012 77.829-14.111 32.789-14.404 39.671-34.7 39.671-49.189 0-.578-.048-1.156-.145-1.726l-14.965-88.469c15.165-2.067 31.72-6.691 48.438-13.528 2.804 9.451 8.936 20.042 20.44 31.4 16.102 15.897 40.132 30.448 67.661 40.971 25.1 9.594 50.26 14.752 71.635 14.752 2.07 0 4.106-.048 6.101-.146 35.769-1.746 49.445-18.247 54.618-31.782.206-.54.367-1.096.481-1.663l22.157-110.693c.01-.052.02-.106.03-.159 5.11-27.756-25.979-60.388-75.6-79.357zm-318.351 283.003c-46.503 0-95.901-14.662-96.79-41.855l17.792-111.092c2.385-14.397 32.406-29.282 78.544-29.282 45.027 0 75.818 15.629 78.589 30.136l18.654 110.28c-.936 27.167-50.308 41.813-96.789 41.813zm98.528-155.638c-.009-.053-.018-.105-.028-.158-3.658-19.755-25.342-35.261-56.694-42.56l-23.05-76.248c-4.149-13.991 16.346-40.5 57.843-60.668 40.499-19.682 75.024-19.082 83.857-7.247l48.6 68.084-56.573 97.913c-.275.475-.51.97-.706 1.483-.78 2.039-1.457 4.262-1.964 6.645-17.538 7.821-35.333 13.111-50.876 15.166zm275.082-51.821-21.952 109.67c-10.574 25.041-61.92 21.096-105.337 4.5-43.439-16.605-84.347-47.938-75.467-73.657l56.282-97.409c7.36-12.602 40.722-15.79 83.826.686 42.058 16.077 65.239 41.67 62.648 56.21z"/><path d="m170.658 354.273c-14.334 4.346-31.228 6.642-48.857 6.642-21.16 0-41.404-3.356-57.001-9.45-3.199-1.25-6.796.331-8.044 3.524-1.248 3.195.33 6.795 3.524 8.044 17.003 6.643 38.851 10.301 61.521 10.301 18.833 0 36.973-2.481 52.459-7.176 3.283-.995 5.136-4.462 4.142-7.743-.996-3.283-4.459-5.137-7.744-4.142z"/><path d="m438.099 337.468c-3.235-1.13-6.778.575-7.91 3.813l-5.174 14.803c-1.132 3.237.575 6.778 3.813 7.91.678.237 1.368.35 2.048.35 2.566 0 4.967-1.603 5.862-4.163l5.174-14.803c1.132-3.236-.575-6.778-3.813-7.91z"/><path d="m393.705 337.073c-3.236-1.13-6.779.575-7.911 3.812l-5.175 14.803c-1.132 3.237.575 6.779 3.812 7.911.678.237 1.369.35 2.049.35 2.566 0 4.967-1.603 5.862-4.162l5.175-14.803c1.132-3.237-.575-6.779-3.812-7.911z"/><path d="m162.529 398.765c-3.429 0-6.209 2.78-6.209 6.209v15.682c0 3.429 2.78 6.209 6.209 6.209s6.209-2.78 6.209-6.209v-15.682c0-3.429-2.78-6.209-6.209-6.209z"/><path d="m115.183 423.449c-3.429 0-6.209 2.78-6.209 6.209v15.682c0 3.429 2.78 6.209 6.209 6.209s6.209-2.78 6.209-6.209v-15.682c0-3.428-2.78-6.209-6.209-6.209z"/></g><g><path d="m94.757 11.467-8.501 23.903c-.364 1.023-1.084 1.834-1.994 2.244l-21.237 9.568c-3 1.352-3 6.132 0 7.484l21.237 9.568c.909.41 1.63 1.221 1.994 2.244l8.501 23.903c1.201 3.377 5.448 3.377 6.649 0l8.501-23.903c.364-1.023 1.084-1.834 1.994-2.244l21.237-9.568c3-1.352 3-6.132 0-7.484l-21.237-9.568c-.909-.41-1.63-1.221-1.994-2.244l-8.501-23.903c-1.201-3.377-5.448-3.377-6.649 0z" fill="#a2f4e3"/><path d="m425.801 68.788-6.306 17.731c-.27.759-.805 1.361-1.479 1.665l-15.753 7.097c-2.226 1.003-2.226 4.549 0 5.551l15.753 7.097c.674.304 1.209.906 1.479 1.665l6.306 17.731c.891 2.505 4.041 2.505 4.932 0l6.306-17.731c.27-.759.804-1.361 1.479-1.665l15.753-7.097c2.225-1.003 2.225-4.549 0-5.551l-15.753-7.097c-.674-.304-1.209-.905-1.479-1.665l-6.306-17.731c-.891-2.505-4.042-2.505-4.932 0z" fill="#a2f4e3"/><g fill="#00ebc4"><circle cx="303.825" cy="30.112" r="18.562"/><ellipse cx="44.373" cy="193.139" rx="8.007" ry="8.007" transform="matrix(.973 -.23 .23 .973 -43.187 15.362)"/></g></g></g></svg>