<svg id="Capa_1" enable-background="new 0 0 512 512" height="512" viewBox="0 0 512 512" width="512" xmlns="http://www.w3.org/2000/svg"><g><g><circle cx="170.039" cy="129.138" fill="#ad84e6" r="46.211"/><path d="m377.104 237.844c0 73.183-63.196 98.394-141.152 98.394s-157.418-26.822-141.152-98.394c11.127-48.959 140.762-100.843 165.373-124.209 4.039-3.834 10.401-4.432 15.233-1.517 29.1 17.554 101.698 67.21 101.698 125.726z" fill="#98e8f2"/><path d="m286.179 118.88v34.433c14.653 15.983 26.134 35.027 26.134 55.476 0 27.6-11.645 46.36-30.568 58.336h91.395c2.587-8.77 3.963-18.502 3.963-29.28.001-52.215-57.799-97.373-90.924-118.965z" fill="#a6aff4"/><path d="m407.834 347.278h-343.666v-55.636c0-15.121 12.258-27.379 27.379-27.379h288.907c15.121 0 27.38 12.258 27.38 27.379z" fill="#ffa785"/><path d="m382.059 501.831h-291.172c-12.357 0-22.678-9.417-23.808-21.722l-16.474-141.76c-1.287-14.009 9.74-26.095 23.808-26.095h323.297c14.024 0 25.037 12.015 23.818 25.986l-15.651 141.761c-1.079 12.352-11.42 21.83-23.818 21.83z" fill="#ffc8b7"/><path d="m397.709 312.254h-76.807c10.922 0 19.498 9.358 18.549 20.238l-12.189 110.401c-.839 9.619-8.893 17.001-18.549 17.001h-226.76c-8.88 0-16.395-6.249-18.198-14.743h-.739l4.063 34.959c1.13 12.305 11.451 21.722 23.808 21.722h291.172c12.399 0 22.74-9.478 23.818-21.83l15.651-141.76c1.218-13.972-9.795-25.988-23.819-25.988z" fill="#ff96b9"/><ellipse cx="256.796" cy="94.175" fill="#ad84e6" rx="46.211" ry="46.211" transform="matrix(.526 -.851 .851 .526 41.68 263.108)"/><circle cx="243.258" cy="148.751" fill="#ad84e6" r="46.211"/><g fill="#fff"><path d="m164.421 217.186c-2.858 0-5.699-1.198-7.711-3.533-3.664-4.256-3.185-10.677 1.071-14.341l6.271-5.402c4.257-3.665 10.677-3.186 14.342 1.069s3.187 10.676-1.068 14.341l-6.273 5.403c-1.922 1.653-4.283 2.463-6.632 2.463z"/><path d="m138.034 239.916c-2.857 0-5.698-1.197-7.709-3.532-3.665-4.255-3.188-10.675 1.066-14.341l6.274-5.404c4.257-3.665 10.675-3.186 14.342 1.07 3.664 4.256 3.185 10.677-1.07 14.341l-6.27 5.401c-1.921 1.654-4.284 2.465-6.633 2.465z"/></g></g><path d="m422.832 313.138c-1.474-1.609-3.097-3.052-4.828-4.334v-17.162c0-18.764-13.836-34.358-31.842-37.116.729-5.346 1.111-10.902 1.111-16.682 0-49.437-45.489-91.862-80.681-117.284 4.194-7.878 6.585-16.855 6.585-26.385 0-31.088-25.292-56.38-56.38-56.38-27.082 0-49.737 19.203-55.13 44.703-9.025-6.141-19.912-9.74-31.628-9.74-31.088 0-56.379 25.292-56.379 56.38 0 19.358 9.811 36.457 24.719 46.61-26.999 18.601-48.708 38.785-53.494 59.842-1.542 6.783-2.342 13.326-2.407 19.618-16.336 4.068-28.479 18.857-28.479 36.434v17.251c-1.706 1.276-3.306 2.707-4.761 4.302-6.441 7.06-9.634 16.568-8.76 26.085.007.081.016.162.025.243l16.462 141.65c1.681 17.584 16.241 30.827 33.921 30.827h291.172c17.764 0 32.331-13.314 33.937-30.99l15.639-141.654c.009-.077.016-.154.023-.231.828-9.492-2.389-18.963-8.825-25.987zm-55.897-75.294c0 5.714-.424 11.121-1.245 16.249h-69.393c11.166-9.411 18.629-20.801 22.274-34.072 7.374-26.842-2.611-55.225-11.903-73.806 28.353 22.572 60.267 55.915 60.267 91.629zm-123.677-125.135c19.874 0 36.042 16.169 36.042 36.042 0 19.874-16.168 36.042-36.042 36.042s-36.042-16.169-36.042-36.042 16.168-36.042 36.042-36.042zm0 92.423c27.819 0 50.981-20.258 55.548-46.794 7.272 16.436 13.526 38.388 7.988 58.49-4.251 15.429-15.094 27.924-32.243 37.265h-95.554c35.805-16.287 47.311-37.317 50.932-50.568 4.277 1.042 8.737 1.607 13.329 1.607zm13.538-146.999c19.874 0 36.042 16.169 36.042 36.042 0 7.102-2.078 13.721-5.64 19.307-10.342-12.859-26.192-21.111-43.94-21.111-7.95 0-15.516 1.663-22.381 4.645-.074-.938-.122-1.884-.122-2.841-.001-19.874 16.167-36.042 36.041-36.042zm-122.799 71.005c0-19.874 16.168-36.042 36.041-36.042 13.338 0 24.998 7.286 31.229 18.084-8.359 9.332-13.664 21.451-14.318 34.777-9.693 5.494-19.523 11.204-29.069 17.108-13.908-5.001-23.883-18.319-23.883-33.927zm56.127 38.446c4.938 13.891 15.173 25.287 28.267 31.751-1.17 4.668-3.753 11.123-9.422 18.221-9.178 11.491-28.192 26.445-67.346 36.538h-38.775c.138-4.448.757-9.107 1.868-13.996 5.276-23.217 47.399-50.589 85.408-72.514zm-115.787 124.058c0-9.49 7.721-17.211 17.211-17.211h288.907c9.49 0 17.211 7.721 17.211 17.211v10.443h-323.254c-.025 0-.05.002-.075.002zm265.13 200.02 12.236-169.239h24.654l-16.315 169.239zm-32.83 0 8.158-169.239h24.674l-12.236 169.239zm-162.981 0-12.237-169.239h24.675l8.158 169.239zm-32.81 0-16.314-169.239h24.653l12.237 169.239zm57.466-169.239h24.69l4.079 169.239h-20.611zm36.895 0h24.697v169.239h-20.618zm36.9 0h23.575l-4.079 169.239h-19.496zm35.78 0h24.69l-8.158 169.239h-20.611zm-200.682 156.757c-.007-.082-.016-.163-.025-.244l-16.458-141.622c-.326-3.856.93-7.549 3.54-10.411 2.636-2.888 6.24-4.479 10.15-4.479h7.859l16.315 169.239h-7.7c-7.146-.001-13.028-5.367-13.681-12.483zm334.199-141.925-15.636 141.63c-.009.077-.016.154-.023.232-.624 7.152-6.509 12.545-13.687 12.545h-9.756l16.315-169.239h9.092c3.898 0 7.496 1.583 10.129 4.456 2.611 2.849 3.875 6.53 3.566 10.376z" fill="#4e0325"/><g><path d="m380.019 2.489-8.353 23.488c-.358 1.006-1.066 1.802-1.959 2.205l-20.868 9.402c-2.948 1.328-2.948 6.026 0 7.354l20.868 9.402c.893.403 1.602 1.2 1.959 2.205l8.353 23.488c1.18 3.318 5.354 3.318 6.534 0l8.353-23.488c.358-1.006 1.066-1.803 1.959-2.205l20.868-9.402c2.948-1.328 2.948-6.026 0-7.354l-20.868-9.402c-.893-.403-1.602-1.199-1.959-2.205l-8.353-23.488c-1.18-3.319-5.354-3.319-6.534 0z" fill="#98e8f2"/><path d="m460.962 123.32-6.196 17.423c-.265.746-.79 1.337-1.453 1.636l-15.48 6.974c-2.187.985-2.187 4.47 0 5.455l15.48 6.974c.663.299 1.188.89 1.453 1.636l6.196 17.423c.875 2.461 3.971 2.461 4.846 0l6.196-17.423c.265-.746.79-1.337 1.453-1.636l15.48-6.974c2.187-.985 2.187-4.47 0-5.455l-15.48-6.974c-.663-.299-1.188-.89-1.453-1.636l-6.196-17.423c-.875-2.462-3.971-2.462-4.846 0z" fill="#98e8f2"/><g fill="#75b7f2"><ellipse cx="39.662" cy="138.264" rx="18.24" ry="18.24" transform="matrix(.924 -.383 .383 .924 -49.892 25.703)"/><path d="m72.502 57.147c0 4.345 3.522 7.868 7.868 7.868s7.868-3.523 7.868-7.868c0-4.346-3.523-7.868-7.868-7.868s-7.868 3.523-7.868 7.868z"/></g></g></g></svg>