<svg id="Capa_1" enable-background="new 0 0 512 512" height="512" viewBox="0 0 512 512" width="512" xmlns="http://www.w3.org/2000/svg"><g><g><path d="m352.201 307.862-22.569-17.316 114.511-149.251c8.932-11.642 25.611-13.839 37.253-4.907 12.742 9.776 13.965 28.535 2.6 39.882z" fill="#fff2a5"/><path d="m404.66 341.114h-320.502c-5.184-5.66-7.65-51.284-7.65-51.284-1.675-21.681 17.146-60.894 48.016-72.405 0 0 10.784-46.807 49.968-59.249 43.362-13.769 70.971 11.22 70.971 11.22 55.922-1.545 86.451 13.975 118.917 53.132 2.454-.463 4.997-.71 7.605-.71 20.278 0 36.717 14.703 36.717 32.84 0 7.724-2.989 14.82-7.979 20.428 0 0-.737 43.772 3.937 66.028z" fill="#ff8cc0"/><path d="m137.669 293.713h-30.088c-15.894 0-28.779-12.885-28.779-28.78 0-15.894 12.885-28.78 28.779-28.78h30.088c15.895 0 28.779 12.885 28.779 28.78.001 15.895-12.884 28.78-28.779 28.78z" fill="#ad84e6"/><path d="m221.01 259.791h-30.088c-15.894 0-28.779-12.885-28.779-28.78 0-15.895 12.885-28.779 28.779-28.779h30.088c15.895 0 28.78 12.885 28.78 28.779-.001 15.895-12.886 28.78-28.78 28.78z" fill="#75b7f2"/><ellipse cx="292.501" cy="187.295" fill="#ffe35c" rx="42.712" ry="42.712" transform="matrix(.974 -.226 .226 .974 -34.716 70.824)"/><path d="m311.734 280.021-26.057-15.044c-13.765-7.947-18.481-25.549-10.534-39.314 7.947-13.765 25.549-18.481 39.314-10.534l26.057 15.044c13.765 7.947 18.481 25.548 10.534 39.313-7.947 13.766-25.548 18.482-39.314 10.535z" fill="#00ebc4"/><circle cx="153.211" cy="115.353" fill="#ffa785" r="42.712"/><path d="m410.97 283.882c13.832 0 24.62 12.151 22.783 25.86-12.636 94.318-93.423 167.058-191.2 167.058s-178.564-72.74-191.2-167.058c-1.837-13.709 8.951-25.86 22.783-25.86z" fill="#98e8f2"/><path d="m410.968 283.882h-80.195c10.749 0 19.133 9.443 17.705 20.097-9.82 73.297-72.602 129.825-148.587 129.825-75.967 0-138.737-56.502-148.579-129.774-.221 1.853-.222 3.766.038 5.713 12.637 94.317 93.424 167.057 191.201 167.057s178.564-72.74 191.2-167.058c1.836-13.709-8.951-25.86-22.783-25.86z" fill="#a6aff4"/><path d="m188.196 368.482c-12.011 0-21.747-9.737-21.747-21.747v-62.853h43.495v62.853c-.001 12.01-9.738 21.747-21.748 21.747z" fill="#fff"/><path d="m254.266 284.604v31.583c0 12.011 9.736 21.748 21.747 21.748 12.011 0 21.747-9.737 21.747-21.748v-31.583z" fill="#fff"/><path d="m327.987 501.59h-170.867c-11.574 0-20.956-9.382-20.956-20.956 0-11.574 9.382-20.956 20.956-20.956h170.867c11.574 0 20.956 9.382 20.956 20.956 0 11.573-9.383 20.956-20.956 20.956z" fill="#98e8f2"/><g fill="#fff"><path d="m117.861 378.893c-2.764 0-5.521-1.093-7.569-3.261-4.545-4.81-8.815-10.348-12.691-16.459-3.08-4.856-1.64-11.288 3.215-14.368 4.856-3.081 11.288-1.641 14.368 3.215 3.165 4.989 6.611 9.467 10.243 13.311 3.949 4.18 3.762 10.769-.417 14.717-2.012 1.902-4.583 2.845-7.149 2.845z"/><path d="m92.061 333.267c-4.372 0-8.442-2.776-9.886-7.154-.86-2.611-1.553-4.976-2.118-7.232-1.396-5.577 1.993-11.231 7.571-12.627 5.581-1.395 11.232 1.993 12.628 7.57.44 1.759.995 3.646 1.695 5.77 1.799 5.461-1.168 11.347-6.629 13.147-1.082.356-2.181.526-3.261.526z"/></g></g><g fill="#4e0325"><path d="m491.352 183.637c7.54-7.528 11.466-17.943 10.773-28.575-.693-10.631-5.939-20.448-14.391-26.934-7.838-6.014-17.549-8.617-27.34-7.324-9.794 1.29-18.498 6.316-24.511 14.153l-58.848 76.701c-1.66-.163-3.344-.251-5.05-.251-1.097 0-2.196.036-3.293.106-7.639-8.821-15.264-16.375-23.104-22.791.013-.476.035-.949.035-1.428 0-29.291-23.83-53.122-53.122-53.122-18.583 0-34.957 9.598-44.454 24.091-7.75-5.421-25.296-15.24-49.9-14.629 5.177-8.195 8.187-17.891 8.187-28.282 0-29.291-23.83-53.122-53.122-53.122s-53.122 23.831-53.122 53.122c0 25.085 17.483 46.151 40.9 51.688-14.951 15.048-22.252 33.717-25.112 42.739-10.075 4.735-18.779 11.884-25.976 20.196-12.748 6.474-21.509 19.708-21.509 34.958 0 1.547.117 3.065.293 4.566-.431 1.567-.808 3.112-1.135 4.636-7.149 1.438-13.702 5.18-18.586 10.76-6.306 7.207-9.196 16.767-7.929 26.228 6.481 48.379 30.313 92.886 67.106 125.325 8.817 7.774 18.243 14.699 28.141 20.767-6.454 5.749-10.529 14.115-10.529 23.418 0 17.296 14.071 31.366 31.367 31.366h170.867c17.296 0 31.367-14.071 31.367-31.366 0-9.303-4.075-17.669-10.529-23.418 9.897-6.068 19.323-12.992 28.141-20.767 36.792-32.438 60.625-76.946 67.106-125.325 1.268-9.461-1.622-19.02-7.928-26.228-5.612-6.414-13.428-10.407-21.824-11.251 2.945-5.542 4.591-11.639 4.77-17.857zm-38.949-36.005c2.627-3.424 6.43-5.62 10.71-6.184 4.281-.556 8.522.573 11.947 3.201 3.748 2.876 5.981 7.056 6.289 11.769.308 4.714-1.364 9.148-4.707 12.487l-64.007 63.907c-3.652-5.701-8.683-10.57-14.675-14.217zm-96.038 81.541c2.416 2.914 6.221 4.288 9.943 3.586 1.864-.352 3.774-.53 5.677-.53 14.505 0 26.306 10.062 26.306 22.429 0 4.906-1.848 9.577-5.346 13.508-1.333 1.498-2.189 3.343-2.497 5.305h-29.718c4.675-8.786 5.838-18.855 3.249-28.517-2.71-10.111-9.194-18.562-18.259-23.796l-8.664-5.002c1.009-1.55 1.94-3.154 2.786-4.809 5.486 5.194 10.946 11.1 16.523 17.826zm-183.812 1.838c0-10.128 8.24-18.368 18.369-18.368h30.088c10.129 0 18.369 8.24 18.369 18.368 0 10.129-8.24 18.369-18.369 18.369h-30.088c-10.128.001-18.369-8.239-18.369-18.369zm-16.515 33.923c0 3.081-.771 5.984-2.118 8.537h-62.589c-1.347-2.553-2.118-5.456-2.118-8.537 0-10.129 8.24-18.369 18.369-18.369h30.088c10.128-.001 18.368 8.24 18.368 18.369zm20.822 29.358h22.673v52.442c0 6.252-5.085 11.337-11.336 11.337s-11.336-5.085-11.336-11.337v-52.442zm-.948-20.821c.43-1.927.714-3.906.848-5.927 4.396 1.71 9.169 2.659 14.162 2.659h30.088c21.609 0 39.19-17.581 39.19-39.191 0-.546-.019-1.087-.041-1.627.606.467 1.221.921 1.847 1.361-3.947 16.171 2.796 33.663 17.612 42.725zm159.397-34.281c8.771 5.064 11.787 16.321 6.723 25.092-2.453 4.249-6.414 7.289-11.153 8.558-4.74 1.27-9.689.618-13.939-1.835l-26.057-15.044c-4.249-2.453-7.289-6.414-8.558-11.154s-.618-9.69 1.835-13.939 6.414-7.288 11.153-8.558c1.583-.424 3.188-.633 4.784-.633 3.183 0 6.324.835 9.155 2.468zm-70.632 55.102h22.673v21.895c0 6.252-5.085 11.337-11.336 11.337s-11.336-5.085-11.336-11.337v-21.895zm27.824-139.298c17.811 0 32.301 14.49 32.301 32.301 0 6.858-2.157 13.217-5.818 18.449-8.912-4.919-19.197-6.186-29.059-3.544-6.792 1.82-12.829 5.35-17.651 10.215-7.348-5.92-12.073-14.967-12.073-25.119-.001-17.813 14.489-32.302 32.3-32.302zm-171.591-39.641c0-17.811 14.49-32.301 32.301-32.301s32.301 14.49 32.301 32.301-14.49 32.302-32.301 32.302c-17.81-.001-32.301-14.491-32.301-32.302zm13.752 104.435c.097-.411 10.077-41.243 42.98-51.69 36.752-11.667 59.919 8.211 60.834 9.016.518.469 1.079.876 1.672 1.228-.497 2.913-.769 5.9-.769 8.952 0 3.276.3 6.482.871 9.594-5.688-3.219-12.25-5.067-19.239-5.067h-30.088c-20.731 0-37.744 16.183-39.094 36.579-4.395-1.709-9.167-2.658-14.159-2.658h-6.918c1.933-1.452 3.343-3.545 3.91-5.954zm193.325 271.39h-170.867c-5.815 0-10.546-4.731-10.546-10.545 0-5.815 4.731-10.546 10.546-10.546h170.867c5.815 0 10.545 4.731 10.545 10.546s-4.73 10.545-10.545 10.545zm92.486-192.571c2.387 2.728 3.438 6.191 2.961 9.752-8.448 63.062-49.087 115.259-103.938 140.907h-153.87c-54.857-25.646-95.505-77.841-103.954-140.907-.477-3.56.574-7.024 2.961-9.752 2.399-2.742 5.863-4.315 9.503-4.315h81.902v52.442c0 17.732 14.426 32.159 32.158 32.159s32.158-14.427 32.158-32.159v-52.442h23.501v21.895c0 17.732 14.426 32.158 32.158 32.158s32.158-14.427 32.158-32.158v-21.895h102.799c3.64 0 7.104 1.573 9.503 4.315z"/><path d="m348.943 344.408c-3.45 0-6.246 2.797-6.246 6.246v14.558c0 3.45 2.797 6.247 6.246 6.247s6.246-2.797 6.246-6.247v-14.558c0-3.449-2.797-6.246-6.246-6.246z"/><path d="m292.501 393.822c-3.449 0-6.246 2.797-6.246 6.247v14.558c0 3.45 2.797 6.247 6.246 6.247 3.45 0 6.246-2.797 6.246-6.247v-14.558c0-3.45-2.797-6.247-6.246-6.247z"/><path d="m292.501 196.902c5.306 0 9.607-4.302 9.607-9.608s-4.301-9.608-9.607-9.608-9.607 4.302-9.607 9.608 4.301 9.608 9.607 9.608z"/><path d="m162.818 115.353c0-5.305-4.301-9.607-9.607-9.607s-9.607 4.302-9.607 9.607c0 5.307 4.301 9.608 9.607 9.608 5.306-.001 9.607-4.301 9.607-9.608z"/></g><g><path d="m367.923 34.403-8.552 24.046c-.366 1.03-1.091 1.845-2.006 2.258l-21.364 9.625c-3.018 1.36-3.018 6.169 0 7.529l21.364 9.625c.915.412 1.64 1.228 2.006 2.258l8.552 24.046c1.208 3.397 5.481 3.397 6.689 0l8.552-24.046c.366-1.03 1.091-1.845 2.006-2.258l21.364-9.625c3.018-1.36 3.018-6.169 0-7.529l-21.364-9.625c-.915-.412-1.64-1.228-2.006-2.258l-8.552-24.046c-1.208-3.398-5.481-3.398-6.689 0z" fill="#98e8f2"/><path d="m35.155 137.306-6.344 17.837c-.272.764-.809 1.369-1.488 1.675l-15.848 7.14c-2.239 1.009-2.239 4.576 0 5.585l15.848 7.14c.678.306 1.216.911 1.488 1.675l6.344 17.837c.896 2.52 4.065 2.52 4.962 0l6.344-17.837c.272-.764.809-1.369 1.488-1.675l15.848-7.14c2.239-1.009 2.239-4.576 0-5.585l-15.848-7.14c-.679-.306-1.216-.911-1.488-1.675l-6.344-17.837c-.897-2.52-4.066-2.52-4.962 0z" fill="#98e8f2"/><g fill="#75b7f2"><ellipse cx="242.553" cy="18.673" rx="18.673" ry="18.673" transform="matrix(.964 -.266 .266 .964 3.778 65.225)"/><circle cx="475.682" cy="39.91" r="8.055"/></g></g></g></svg>