<svg id="Capa_1" enable-background="new 0 0 512 512" height="512" viewBox="0 0 512 512" width="512" xmlns="http://www.w3.org/2000/svg"><g><g><path d="m286.761 79.047h-75.796v-59.308c0-5.304 4.3-9.604 9.604-9.604h56.588c5.304 0 9.604 4.3 9.604 9.604z" fill="#fff2a5"/><path d="m320.637 55.17c-26.688 0-48.399 21.712-48.399 48.399s21.711 48.399 48.399 48.399c26.687 0 48.399-21.712 48.399-48.399s-21.712-48.399-48.399-48.399zm0 64.014c-8.61 0-15.615-7.005-15.615-15.616 0-8.61 7.005-15.615 15.615-15.615s15.615 7.005 15.615 15.615c0 8.611-7.005 15.616-15.615 15.616z" fill="#ffc8b7"/><path d="m288.818 55.17h-81.204l-30.525 76.89 4.952 47.27h131.457l7.139-47.27z" fill="#ffc8b7"/><path d="m290.518 61.803h-35.658l19.964 48.243-4.479 29.659h-22.093v39.625h65.627l6.758-44.744z" fill="#ff96b9"/><path d="m318.05 501.865h-140.191c-13.541 0-24.862-10.298-26.14-23.779l-21.085-222.415c-3.582-59.767 43.922-110.203 103.796-110.203h28.766c60.165 0 107.774 50.907 103.749 110.938l-22.775 221.884c-1.375 13.392-12.657 23.575-26.12 23.575z" fill="#ffc8b7"/><path d="m316.353 433.885h-136.755c-13.21 0-24.252-5.938-25.499-13.71l-12.259-76.433-8.309-51.808c-3.495-34.461 42.845-63.542 101.252-63.542h28.061c58.691 0 105.133 29.352 101.207 63.965l-22.217 127.935c-1.342 7.721-12.348 13.593-25.481 13.593z" fill="#00ebc4"/><path d="m248.813 414.769c-4.77 0-8.637-3.867-8.637-8.637v-54.479h17.274v54.479c0 4.77-3.867 8.637-8.637 8.637z" fill="#ffa785"/><path d="m316.068 306.284-29.727-3.123c-1.499-.157-2.993.336-4.103 1.355l-15.116 13.877 8.714-22.065c.6-1.52.459-3.234-.382-4.635l-22.135-36.879c-2.041-3.401-6.971-3.401-9.012 0l-22.149 36.902c-.833 1.388-.98 3.083-.398 4.594l8.744 22.699-15.103-14.416c-1.116-1.065-2.643-1.586-4.178-1.425l-29.665 3.116c-3.932.413-6.017 4.856-3.822 8.145l19.032 28.509-13.667 18.935c-2.209 3.06-.568 7.382 3.116 8.205l29.85 6.666c1.487.332 3.046.002 4.271-.904l28.475-21.066 28.475 21.066c1.225.906 2.784 1.236 4.271.904l29.85-6.666c3.684-.823 5.325-5.145 3.116-8.205l-13.667-18.935 19.031-28.509c2.196-3.289.111-7.732-3.821-8.145z" fill="#ffa785"/><path d="m263.196 145.467h-26.02c48.373 0 86.65 40.929 83.414 89.193l-18.311 178.394c-1.105 10.768-10.176 18.955-21 18.955h-112.714c-9.515 0-17.665-6.325-20.254-15.154h-2.397l5.805 61.231c1.278 13.481 12.598 23.779 26.14 23.779h140.191c13.463 0 24.745-10.183 26.12-23.576l22.775-221.884c4.025-60.03-43.584-110.938-103.749-110.938z" fill="#ff96b9"/><path d="m320.157 238.873-17.879 174.181c-.957 9.322-7.888 16.699-16.755 18.515v2.316h30.829c13.133 0 24.139-5.871 25.48-13.593l20.273-116.738 1.965-19.147c-2.045-18.808-18.903-35.386-43.913-45.534z" fill="#45b1c6"/><g fill="#fff"><path d="m181.436 219.967c-2.502 0-5.008-.921-6.967-2.776-4.064-3.849-4.239-10.263-.39-14.328 1.361-1.438 2.771-2.85 4.19-4.199 4.057-3.855 10.473-3.693 14.329.365 3.856 4.057 3.692 10.473-.365 14.329-1.163 1.105-2.318 2.263-3.436 3.443-1.993 2.105-4.674 3.166-7.361 3.166z"/><path d="m218.589 195.992c-4.277 0-8.253-2.728-9.641-7.017-1.724-5.326 1.196-11.04 6.521-12.764 13.387-4.334 26.437-5.583 37.74-3.614 5.514.96 9.206 6.21 8.245 11.724s-6.212 9.202-11.724 8.245c-8.066-1.405-17.755-.392-28.018 2.93-1.037.336-2.089.495-3.123.496z"/></g></g><g fill="#4e0325"><path d="m334.586 160.389c25.56-6.273 44.585-29.354 44.585-56.82 0-32.276-26.258-58.534-58.534-58.534-8.24 0-16.083 1.719-23.2 4.808-.168-.272-.35-.532-.541-.784v-29.32c0-10.884-8.855-19.739-19.739-19.739h-56.587c-10.884 0-19.739 8.855-19.739 19.739v27.904c-1.135 1.023-2.049 2.306-2.637 3.787l-30.524 76.89c-.604 1.522-.83 3.167-.66 4.796l2.359 22.516c-6.441 4.497-12.475 9.699-18.01 15.575-21.79 23.135-32.742 53.346-30.841 85.069.007.117.016.234.027.35l21.085 222.416c1.78 18.789 17.355 32.958 36.229 32.958h140.191c18.727 0 34.29-14.048 36.202-32.676l22.776-221.884c.012-.119.022-.237.03-.357 2.136-31.863-8.7-62.257-30.513-85.581-3.763-4.022-7.762-7.725-11.959-11.113zm-11.018-47.752-7.263-17.55c1.301-.668 2.77-1.053 4.331-1.053 5.257 0 9.534 4.277 9.534 9.534.001 4.235-2.775 7.829-6.602 9.069zm35.333-9.068c0 18.021-12.527 33.157-29.328 37.192l1.086-7.188c.276-1.823.048-3.685-.656-5.389l-1.791-4.327c8.234-3.076 14.122-10.993 14.122-20.288 0-11.963-9.733-21.696-21.697-21.696-3.208 0-6.242.721-8.98 1.981l-6.344-15.33c4.694-2.065 9.875-3.218 15.324-3.218 21.098-.001 38.264 17.164 38.264 38.263zm-82.275-83.299v24.764h-55.526v-24.764zm-89.197 113.212 27.066-68.178h67.548l28.152 68.028-1.702 11.266c-14.072-6.079-29.395-9.266-45.297-9.266h-28.766c-16.09 0-31.594 3.272-45.812 9.499zm130.621 358.248h-140.191c-8.361 0-15.261-6.277-16.05-14.6l-3.8-40.086c5.109 2.108 11.186 3.307 17.76 3.307h144.413c6.689 0 12.872-1.251 18.046-3.441l-4.141 40.345c-.847 8.252-7.741 14.475-16.037 14.475zm21.769-70.319c-2.933 3.562-10.433 6.777-19.637 6.777h-144.413c-8.807 0-16.011-2.923-19.196-6.287l-13.952-147.168c1.71-3.611 4.087-7.135 7.13-10.503 16.587-18.355 49.169-29.757 85.031-29.757h28.061c36.059 0 68.722 11.493 85.243 29.994 2.878 3.223 5.153 6.585 6.814 10.028zm17.025-165.858-.044.428c-18.855-20.779-54.783-33.671-93.957-33.671h-28.061c-39.117 0-75.089 12.889-93.941 33.644l-.101-1.062c-1.514-26.026 7.493-50.805 25.373-69.788 17.919-19.025 42.181-29.503 68.316-29.503h28.766c26.263 0 50.605 10.564 68.544 29.745 17.9 19.141 26.811 44.066 25.105 70.207z"/><path d="m316.704 300.236-29.727-3.122c-1.785-.189-3.57.053-5.212.678.957-3.066.566-6.46-1.096-9.229l-22.135-36.878c-2.068-3.446-5.701-5.503-9.72-5.503s-7.652 2.057-9.72 5.503l-22.149 36.902c-1.685 2.807-2.073 6.132-1.099 9.227-1.653-.636-3.45-.882-5.258-.693l-29.665 3.116c-3.983.419-7.377 2.834-9.079 6.46-1.701 3.626-1.389 7.779.834 11.109l16.687 24.998-11.195 15.511c-2.238 3.1-2.764 7.085-1.406 10.659 1.357 3.574 4.395 6.207 8.127 7.041l29.851 6.666c.819.183 1.647.273 2.471.273 2.405 0 4.771-.766 6.741-2.224l10.14-7.502v32.907c0 8.116 6.602 14.718 14.718 14.718s14.718-6.602 14.718-14.718v-32.907l10.142 7.503c2.644 1.955 6.003 2.664 9.212 1.95l29.85-6.667c3.732-.833 6.77-3.466 8.127-7.04s.831-7.559-1.406-10.659l-11.196-15.511 16.687-24.997c2.223-3.331 2.536-7.484.834-11.109-1.699-3.629-5.093-6.044-9.076-6.462zm-65.335 105.897c0 1.409-1.147 2.556-2.555 2.556s-2.556-1.147-2.556-2.556v-41.905l2.556-1.891 2.555 1.891zm44.432-66.571c-1.409 2.111-1.359 4.876.127 6.935l12.934 17.919-28.259 6.311-28.172-20.842c-2.149-1.59-5.084-1.59-7.233 0l-28.172 20.842-28.26-6.311 12.934-17.919c1.486-2.059 1.536-4.824.127-6.935l-18.273-27.373 27.927-2.933 14.826 14.152c2.058 1.965 5.205 2.239 7.573.66s3.324-4.59 2.3-7.246l-8.599-22.322 21.234-35.377 21.218 35.349-8.565 21.687c-1.041 2.636-.124 5.641 2.212 7.246 2.335 1.606 5.469 1.385 7.557-.532l14.841-13.625 27.998 2.941z"/><path d="m245.865 453.052c-3.358 0-6.081 2.723-6.081 6.081v15.358c0 3.358 2.723 6.081 6.081 6.081s6.081-2.723 6.081-6.081v-15.358c0-3.359-2.723-6.081-6.081-6.081z"/><path d="m290.371 450.083c-3.358 0-6.081 2.723-6.081 6.081v15.358c0 3.358 2.723 6.081 6.081 6.081s6.081-2.723 6.081-6.081v-15.358c0-3.358-2.723-6.081-6.081-6.081z"/><path d="m303.043 284.781c3.358 0 6.081-2.723 6.081-6.081v-15.358c0-3.358-2.723-6.081-6.081-6.081s-6.081 2.723-6.081 6.081v15.358c0 3.358 2.723 6.081 6.081 6.081z"/></g><g><path d="m73.541 39.618-8.325 23.41c-.356 1.002-1.062 1.796-1.953 2.198l-20.799 9.37c-2.938 1.324-2.938 6.006 0 7.329l20.799 9.37c.89.401 1.596 1.196 1.953 2.198l8.325 23.41c1.176 3.307 5.336 3.307 6.512 0l8.325-23.41c.357-1.002 1.062-1.797 1.953-2.198l20.799-9.37c2.938-1.324 2.938-6.006 0-7.329l-20.799-9.37c-.891-.401-1.596-1.196-1.953-2.198l-8.325-23.41c-1.176-3.307-5.336-3.307-6.512 0z" fill="#a2f4e3"/><path d="m460.401 169.853-6.176 17.365c-.264.743-.788 1.333-1.448 1.63l-15.428 6.951c-2.18.982-2.18 4.455 0 5.437l15.428 6.951c.661.298 1.184.887 1.448 1.63l6.176 17.365c.872 2.453 3.958 2.453 4.83 0l6.176-17.365c.264-.743.788-1.333 1.448-1.63l15.428-6.951c2.18-.982 2.18-4.455 0-5.437l-15.428-6.951c-.661-.298-1.184-.887-1.448-1.63l-6.176-17.365c-.872-2.453-3.957-2.453-4.83 0z" fill="#a2f4e3"/><g fill="#00ebc4"><ellipse cx="40.261" cy="198.517" rx="18.179" ry="18.179" transform="matrix(.987 -.159 .159 .987 -31.106 8.947)"/><ellipse cx="429.804" cy="95.795" rx="7.842" ry="7.842" transform="matrix(.5 -.866 .866 .5 131.986 420.16)"/></g></g></g></svg>