<svg id="Capa_1" enable-background="new 0 0 512 512" height="512" viewBox="0 0 512 512" width="512" xmlns="http://www.w3.org/2000/svg"><g><g><path d="m49.254 353.958 17.789 17.79c16.011 16.011 41.97 16.011 57.981 0 16.011-16.011 16.011-41.97 0-57.981l-13.243-13.243c-21.069-21.069-21.069-55.229 0-76.299 21.12-21.12 55.381-21.062 76.429.131l246.803 248.938c15.231 15.363 40.048 15.416 55.345.119 15.25-15.25 15.25-39.976 0-55.226l-252.667-252.666c-52.035-52.035-136.402-52.035-188.437 0-52.035 52.035-52.035 136.401 0 188.437z" fill="#fff2a5"/><g fill="#ff8cc0"><path d="m79.247 318.255c-29.717-25.385-51.773-60.458-59.488-98.915-.418-2.083-.787-4.17-1.124-6.259-17.673 47.375-7.47 102.787 30.62 140.877l17.789 17.79c16.011 16.011 41.97 16.011 57.981 0 4.876-4.876 8.258-10.677 10.164-16.837-19.395-11.054-38.901-22.098-55.942-36.656z"/><path d="m303.655 231.483c-.697-.333-82.089-46.61-111.882-53.59-25.243-5.914-53.938-10.466-78.217.778-12.278 5.686-20.987 13.618-28.029 25.254-8.38 13.849-10.828 37.597-5.75 52.777 5.516 16.49 10.002 17.286 22.174 30.356-10.447-20.296-7.176-45.827 9.83-62.834 21.12-21.12 55.381-21.062 76.429.131l30.176 30.436c12.08 4.584 155.421 64.929 177.524 71.157z"/><path d="m410.132 390.262c-15.632-6.458-65.653-19.55-81.803-24.576l106.684 107.607c15.231 15.363 40.048 15.416 55.345.12 15.25-15.251 15.25-39.976 0-55.226 0 0-47.931-14.583-80.226-27.925z"/></g><path d="m490.358 418.187-252.667-252.666c-52.036-52.036-136.402-52.036-188.437 0-2.054 2.053-4.017 4.163-5.908 6.313 45.757-39.856 115.223-38.014 158.779 5.542l220.873 220.874c13.331 13.33 13.331 34.945 0 48.276-2.54 2.541-5.382 4.594-8.409 6.166l20.425 20.601c15.231 15.363 40.048 15.416 55.345.12 15.249-15.251 15.249-39.976-.001-55.226z" fill="#ffb7a9"/><path d="m208.107 183.359 114.07 114.07c33.516 13.638 64.41 25.894 73.733 28.521l-92.241-94.452-.015-.015c-.611-.293-59.612-33.829-95.547-48.124z" fill="#ff68c1"/><path d="m490.358 418.187s-40.461-12.31-72.081-24.658l4.721 4.721c13.331 13.33 13.331 34.945 0 48.276-2.54 2.541-5.382 4.594-8.409 6.166l20.425 20.601c15.231 15.363 40.048 15.416 55.345.12 15.249-15.251 15.249-39.976-.001-55.226z" fill="#ff68c1"/><path d="m111.782 300.524c-21.069-21.07-21.069-55.229 0-76.299 3.793-3.792 8.014-6.89 12.502-9.317-11.691.277-23.301 4.861-32.226 13.787-18.418 18.418-18.418 48.279 0 66.697l11.576 11.577c13.996 13.997 13.996 36.688 0 50.685-13.996 13.997-36.689 13.997-50.685 0l14.094 14.095c16.011 16.011 41.97 16.011 57.981 0 16.011-16.011 16.011-41.97 0-57.981z" fill="#ffb7a9"/><path d="m79.777 256.702c5.516 16.49 10.002 17.285 22.174 30.356-10.447-20.296-7.176-45.827 9.83-62.834 3.793-3.792 8.014-6.891 12.501-9.318-11.691.277-23.3 4.861-32.225 13.787-7.133 7.133-11.491 15.985-13.099 25.222.249.956.519 1.889.819 2.787z" fill="#ff68c1"/><path d="m125.024 371.747c4.876-4.876 8.258-10.677 10.164-16.837-7.49-4.269-14.994-8.537-22.369-13.006-1.597 5.767-4.652 11.215-9.186 15.749-13.996 13.996-36.688 13.996-50.685.001l14.094 14.093c1.746 1.747 3.972 3.536 6.534 5.317 15.906 10.434 37.468 8.663 51.448-5.317z" fill="#ff68c1"/><path d="m61.269 205.14c-1.923 0-3.868-.541-5.597-1.674-4.724-3.096-6.044-9.436-2.948-14.16 6.045-9.224 14.261-17.342 23.76-23.479 4.744-3.064 11.075-1.704 14.14 3.042 3.065 4.744 1.703 11.075-3.042 14.14-7.12 4.598-13.258 10.653-17.75 17.508-1.962 2.996-5.23 4.623-8.563 4.623z" fill="#fff"/><path d="m49.714 240.34c-.067 0-.133-.001-.201-.002-5.647-.109-10.137-4.774-10.028-10.422.035-1.823.176-3.728.419-5.664.703-5.605 5.817-9.592 11.42-8.875 5.604.702 9.578 5.816 8.875 11.42-.154 1.224-.242 2.406-.264 3.512-.108 5.58-4.665 10.031-10.221 10.031z" fill="#fff"/></g><path d="m497.59 410.955-252.667-252.666c-55.94-55.939-146.96-55.94-202.901 0-27.098 27.098-42.022 63.127-42.022 101.451 0 38.322 14.924 74.351 42.022 101.45l17.79 17.79c9.675 9.675 22.539 15.003 36.222 15.003s26.547-5.328 36.222-15.003c19.972-19.973 19.972-52.472-.001-72.445l-13.243-13.243c-17.048-17.048-17.048-44.787-.001-61.835 8.261-8.261 19.237-12.806 30.916-12.806h.077c11.707.02 22.698 4.605 30.942 12.906l246.804 248.936c9.296 9.376 21.686 14.556 34.889 14.585h.11c13.161 0 25.531-5.124 34.841-14.433 19.213-19.214 19.213-50.476 0-69.69zm-245.731-136.926 137.989 58.113 72.515 72.515-130.425-49.857zm-155.825 99.499c-8.219 0-15.947-3.201-21.758-9.013l-17.789-17.79c-23.235-23.235-36.031-54.127-36.031-86.986 0-6.415.494-12.754 1.452-18.976 4.595 18.966 14.282 37.658 28.842 55.604 17.342 21.373 41.724 41.767 72.523 60.713-1.406 2.677-3.232 5.188-5.479 7.436-5.813 5.811-13.541 9.012-21.76 9.012zm21.758-52.53c6.513 6.513 9.482 15.243 8.924 23.784-52.613-33.027-84.787-70.451-93.316-108.73-2.3-10.324-2.601-19.526-1.994-27.192 6.033-13.271 14.463-25.491 25.08-36.108 47.965-47.964 126.009-47.963 173.974 0l27.49 27.49c-5.12-2.889-10.453-5.766-15.966-8.559-56.982-28.879-102.599-34.354-135.583-16.271-18.114 9.931-30.142 26.465-33.865 46.556-4.512 24.345 3.611 51.028 22.285 73.296 2.658 4.456 5.897 8.659 9.729 12.492zm32.249-122.802c-.039 0-.074 0-.113 0-17.141 0-33.254 6.674-45.378 18.797-10.479 10.48-16.552 23.714-18.254 37.391-2.873-10.158-3.501-20.421-1.693-30.178 3.04-16.4 12.876-29.906 27.698-38.033 59.433-32.577 157.512 33.769 187.599 56.018l66.946 66.947-137.651-57.97-33.728-34.02c-12.11-12.192-28.242-18.923-45.426-18.952zm333.085 267.985c-5.446 5.446-12.681 8.443-20.379 8.443-.021 0-.043 0-.064 0-7.722-.017-14.969-3.046-20.407-8.531l-89.362-90.135 130.679 49.953c10.761 11.272 10.611 29.193-.467 40.27z" fill="#4e0325"/><g><path d="m471.32 149.628-8.401 23.622c-.36 1.011-1.072 1.813-1.97 2.218l-20.988 9.456c-2.965 1.336-2.965 6.06 0 7.396l20.988 9.456c.898.405 1.611 1.206 1.97 2.218l8.401 23.623c1.187 3.337 5.384 3.337 6.571 0l8.401-23.623c.36-1.011 1.072-1.813 1.97-2.218l20.988-9.456c2.965-1.336 2.965-6.06 0-7.396l-20.988-9.456c-.899-.405-1.611-1.206-1.97-2.218l-8.401-23.622c-1.187-3.337-5.384-3.337-6.571 0z" fill="#ffc5dd"/><path d="m223.074 18.779-6.232 17.523c-.267.75-.795 1.345-1.462 1.645l-15.568 7.014c-2.199.991-2.199 4.495 0 5.486l15.568 7.014c.667.3 1.195.895 1.462 1.645l6.232 17.523c.88 2.475 3.994 2.475 4.874 0l6.232-17.523c.267-.75.795-1.345 1.462-1.645l15.568-7.014c2.199-.991 2.199-4.495 0-5.486l-15.568-7.014c-.667-.3-1.195-.895-1.462-1.645l-6.232-17.523c-.881-2.476-3.994-2.476-4.874 0z" fill="#ffc5dd"/><g fill="#ff8cc0"><ellipse cx="360.569" cy="68.566" rx="18.344" ry="18.344" transform="matrix(.987 -.16 .16 .987 -6.327 58.642)"/><circle cx="375.074" cy="157.95" r="7.913"/></g></g></g></svg>