<svg id="Capa_1" enable-background="new 0 0 512 512" height="512" viewBox="0 0 512 512" width="512" xmlns="http://www.w3.org/2000/svg"><g><g><path d="m406.323 232.308-328.474-199.314c-18.69-11.341-42.92-.644-47.235 20.788-27.422 136.22-27.245 275.592.352 418.094 4.178 21.576 28.492 32.455 47.28 21.055l328.077-199.073c23.098-14.016 23.098-47.535 0-61.55z" fill="#ffddb6"/><path d="m248.593 331.543c8.834-6.359 16.452-20.126 28.093-26.591 6.562-3.644 17.105-6.072 20.866-13.094 8.894-16.606-4.563-21.536-3.716-32.623.903-11.818 5.33-25.165 9.388-36 8.427-22.5-27.264-63.129-50.125-58.579-12.23 2.434-26.892 3.11-38.75 1.68-12.293-1.482-26.266-14.038-37.788-10.939-11.523 3.1-15.427 20.465-24.764 27.766-9.007 7.043-38.408 15.362-46.621 37.583-7.306 19.768-5.825 48.193 1.911 66.138 9.113 21.137 36.718 38.463 55.83 46.157 12.609 5.076 41.728 7.826 43.844 7.986 2.135.163 18.756 7.127 41.832-9.484z" fill="#ff8cc0"/><circle cx="101.036" cy="192.292" fill="#fff2a5" r="50.904"/><circle cx="216.902" cy="318.906" fill="#fff2a5" r="50.904"/><path d="m406.323 232.308-61.486-37.309h-10.787l1.189.722c18.954 11.501 18.954 39.006 0 50.507l-269.21 163.352c-15.417 9.355-35.368.428-38.797-17.277-.146-.756-9.113-2.265-9.113-2.265 3.275 27.164 7.541 54.442 12.846 81.838 4.178 21.576 28.492 32.455 47.28 21.054l328.077-199.073c23.099-14.015 23.099-47.533.001-61.549z" fill="#ffa7b8"/><path d="m216.902 369.81c28.114 0 50.904-22.791 50.904-50.904 0-9.938-2.858-19.203-7.782-27.039l-87.02 52.803c8.846 15.039 25.188 25.14 43.898 25.14z" fill="#ffb7a9"/><path d="m296.742 269.587-35.634 21.622c3.553 5.975 6.248 12.415 8.241 19.094 2.283-2.04 4.703-3.888 7.337-5.351 6.563-3.645 17.105-6.072 20.866-13.094 5.712-10.665 2.206-16.514-.81-22.271z" fill="#ff68c1"/><g fill="#fff"><path d="m233.647 211.656c-1.984 0-3.948-.038-5.89-.114-5.658-.221-10.066-4.987-9.845-10.646.221-5.658 4.973-10.116 10.646-9.845 9.144.355 18.923-.26 29.06-1.837 5.587-.875 10.837 2.958 11.707 8.555.87 5.595-2.96 10.837-8.555 11.707-9.318 1.45-18.414 2.18-27.123 2.18z"/><path d="m193.157 204.666c-1.284 0-2.588-.243-3.851-.755-2.629-1.067-6.069-2.566-9.366-4.706-4.749-3.083-6.1-9.433-3.017-14.183 3.082-4.749 9.43-6.1 14.183-3.017 1.841 1.196 4.126 2.18 5.91 2.904 5.248 2.13 7.775 8.109 5.646 13.356-1.616 3.984-5.454 6.401-9.505 6.401z"/></g></g><g fill="#4e0325"><path d="m411.642 223.542-328.474-199.314c-11.61-7.045-25.965-7.996-38.397-2.541-12.469 5.469-21.518 16.71-24.208 30.071-27.53 136.756-27.416 278.76.337 422.068 2.606 13.46 11.634 24.807 24.147 30.35 5.389 2.388 11.14 3.57 16.876 3.57 7.527 0 15.026-2.035 21.642-6.05l328.077-199.072c13.937-8.457 22.258-23.238 22.258-39.54-.001-16.303-8.321-31.085-22.258-39.542zm-120.014 49.539c2.687 5.104 4.464 8.475.502 15.872-1.69 3.155-6.981 5.431-11.648 7.439-2.296.987-4.67 2.009-6.782 3.182-.887.493-1.741 1.029-2.582 1.584-7.481-22.795-28.95-39.308-54.216-39.308-31.461 0-57.056 25.595-57.056 57.056 0 2.118.125 4.206.351 6.265-18.797-8.612-40.308-24.132-47.46-40.72-4.225-9.802-6.28-22.8-6.089-35.382 28.837-2.828 51.445-27.209 51.445-56.777 0-2.095-.121-4.16-.342-6.196 3.616-3.508 6.367-7.933 9.031-12.248 3.596-5.826 6.992-11.33 11.379-12.51.701-.188 1.451-.274 2.242-.274 4.372 0 9.999 2.632 15.469 5.191 5.734 2.683 11.664 5.457 17.743 6.19 12.426 1.499 27.636.842 40.687-1.753 8.258-1.644 21.14 5.6 31.348 17.611 10.003 11.768 14.751 24.94 11.815 32.777-4.025 10.746-8.772 24.741-9.762 37.689-.459 5.99 1.971 10.604 3.925 14.312zm-119.479 45.825c0-24.677 20.076-44.752 44.752-44.752s44.753 20.076 44.753 44.752-20.076 44.753-44.753 44.753-44.752-20.077-44.752-44.753zm-115.865-126.615c0-24.676 20.076-44.751 44.752-44.751s44.752 20.076 44.752 44.751c0 24.677-20.076 44.753-44.752 44.753s-44.752-20.076-44.752-44.753zm195.615-33.668c-11.667 2.322-25.774 2.938-36.813 1.605-4.122-.497-8.922-2.743-14.003-5.119-8.46-3.958-17.209-8.05-26.12-5.653-9.098 2.447-14.174 10.673-18.653 17.929-.782 1.267-1.551 2.506-2.322 3.696-8.437-20.985-28.985-35.845-52.952-35.845-4.396 0-8.67.517-12.783 1.462 5.572-25.891 12.158-50.383 19.792-73.389l159.425 96.737c-5.156-1.783-10.438-2.444-15.571-1.423zm-210.867 311.304c-27.242-140.67-27.365-280-.365-414.122 1.393-6.919 5.89-12.509 12.341-15.339 2.77-1.214 5.669-1.817 8.554-1.817 3.796 0 7.564 1.044 10.969 3.11l24.732 15.006c-8.906 26.444-16.452 54.792-22.647 84.981-18.191 9.547-30.635 28.615-30.635 50.545 0 15.706 6.38 29.95 16.683 40.277-8.148 75.759-9.402 160.632-3.678 254.1-1.227-.301-2.441-.714-3.631-1.241-6.479-2.87-10.971-8.519-12.323-15.5zm359.972-184.835-328.077 199.073c-1.176.714-2.397 1.301-3.645 1.77-5.494-89.711-4.528-171.366 2.83-244.492 6.644 3.924 14.145 6.536 22.152 7.489-.228 14.222 2.183 28.811 7.174 40.39 10.543 24.452 42.161 42.575 59.182 49.428 1.002.404 2.097.79 3.25 1.163 8.385 21.092 28.988 36.049 53.032 36.049 31.461 0 57.056-25.595 57.056-57.056 0-1.454-.073-2.891-.18-4.317 1.88-1.65 3.833-3.113 5.895-4.259 1.57-.872 3.562-1.728 5.669-2.635 6.198-2.666 13.911-5.984 17.633-12.932 7.047-13.159 2.708-21.4-.461-27.416-1.744-3.311-2.723-5.3-2.544-7.643.881-11.532 5.568-25.104 9.017-34.31 5.488-14.655-3.615-32.885-13.963-45.061-2.605-3.065-5.588-6.114-8.832-8.928l114.813 69.668c7.758 4.708 12.389 12.936 12.389 22.01-.001 9.075-4.633 17.302-12.39 22.009z"/><path d="m209.867 319.914-6.791 16.91c-1.267 3.153.262 6.736 3.415 8.001.752.302 1.528.446 2.291.446 2.438 0 4.746-1.46 5.71-3.861l6.75-16.806 18.135-2.061c3.375-.383 5.801-3.431 5.418-6.808-.384-3.376-3.43-5.798-6.808-5.418l-18.374 2.088-10.048-12.768c-2.101-2.672-5.968-3.13-8.639-1.03-2.669 2.101-3.131 5.969-1.029 8.638z"/><path d="m109.616 214.887c1.201 1.68 3.091 2.574 5.009 2.574 1.239 0 2.488-.373 3.573-1.148 2.765-1.975 3.403-5.818 1.427-8.582l-10.755-15.043 6.277-14.988c1.313-3.133-.164-6.738-3.298-8.05-3.132-1.312-6.738.163-8.05 3.298l-6.228 14.869-18.08 2.283c-3.37.426-5.758 3.503-5.333 6.875.393 3.109 3.042 5.382 6.096 5.382.257 0 .518-.016.779-.049l17.968-2.269z"/><path d="m103.424 346.063c-3.397 0-6.152 2.754-6.152 6.152v15.537c0 3.397 2.755 6.152 6.152 6.152s6.152-2.755 6.152-6.152v-15.537c0-3.398-2.754-6.152-6.152-6.152z"/><path d="m134.035 381.199c-3.397 0-6.152 2.755-6.152 6.152v15.536c0 3.397 2.755 6.152 6.152 6.152s6.152-2.755 6.152-6.152v-15.536c0-3.398-2.754-6.152-6.152-6.152z"/><path d="m259.195 229.276c-3.397 0-6.152 2.755-6.152 6.152v15.536c0 3.397 2.755 6.152 6.152 6.152s6.152-2.755 6.152-6.152v-15.536c0-3.398-2.754-6.152-6.152-6.152z"/></g><g><g fill="#fff2a5"><path d="m471.744 102.294-8.422 23.682c-.361 1.014-1.075 1.817-1.975 2.223l-21.041 9.48c-2.973 1.339-2.973 6.076 0 7.415l21.041 9.48c.901.406 1.615 1.21 1.975 2.223l8.422 23.682c1.19 3.346 5.398 3.346 6.588 0l8.422-23.682c.361-1.014 1.074-1.818 1.975-2.223l21.041-9.48c2.972-1.339 2.972-6.076 0-7.415l-21.041-9.48c-.901-.406-1.615-1.21-1.975-2.223l-8.422-23.682c-1.19-3.345-5.398-3.345-6.588 0z"/><path d="m397.821 377.759-8.422 23.682c-.361 1.014-1.075 1.818-1.975 2.223l-21.041 9.48c-2.973 1.339-2.973 6.076 0 7.415l21.041 9.48c.901.406 1.615 1.209 1.975 2.223l8.422 23.682c1.19 3.346 5.398 3.346 6.588 0l8.422-23.682c.361-1.014 1.074-1.818 1.975-2.223l21.041-9.48c2.973-1.339 2.973-6.076 0-7.415l-21.041-9.48c-.901-.406-1.615-1.21-1.975-2.223l-8.422-23.682c-1.191-3.346-5.399-3.346-6.588 0z"/><path d="m353.306 6.116-6.247 17.567c-.267.752-.797 1.348-1.465 1.649l-15.608 7.032c-2.205.994-2.205 4.507 0 5.5l15.608 7.032c.668.301 1.198.897 1.465 1.649l6.247 17.567c.883 2.482 4.004 2.482 4.887 0l6.248-17.567c.268-.752.797-1.348 1.465-1.649l15.608-7.032c2.205-.994 2.205-4.507 0-5.5l-15.608-7.032c-.668-.301-1.198-.897-1.465-1.649l-6.248-17.567c-.883-2.482-4.005-2.482-4.887 0z"/></g><ellipse cx="237.164" cy="28.402" fill="#ffe35c" rx="18.391" ry="18.391" transform="matrix(.987 -.16 .16 .987 -1.487 38.356)"/><path d="m367.3 121.813c0 4.381 3.552 7.933 7.933 7.933 4.382 0 7.933-3.552 7.933-7.933 0-4.382-3.552-7.933-7.933-7.933s-7.933 3.551-7.933 7.933z" fill="#ffe35c"/></g></g></svg>