<svg id="Capa_1" enable-background="new 0 0 512 512" height="512" viewBox="0 0 512 512" width="512" xmlns="http://www.w3.org/2000/svg"><g><g><path d="m242.691 425.014-106.219-71.901c-11.509-7.79-26.703-.949-29.813 14.225-.197.963-.305 2.004-.305 3.14 0 13.633 15.492 13.633 15.492 27.266s-15.492 13.633-15.492 27.265c0 13.633 15.492 13.633 15.492 27.267 0 13.635-15.492 13.635-15.492 27.27 0 1.137.108 2.18.305 3.143 3.112 15.174 18.304 22.017 29.813 14.226z" fill="#ffddb6"/><path d="m365.612 425.013 106.219 71.901c11.509 7.791 26.703.949 29.813-14.225.197-.962.305-2.004.305-3.14 0-13.633-15.492-13.633-15.492-27.266s15.492-13.633 15.492-27.265c0-13.633-15.492-13.633-15.492-27.267 0-13.635 15.492-13.635 15.492-27.27 0-1.137-.108-2.18-.306-3.143-3.112-15.174-18.304-22.017-29.813-14.226z" fill="#ffddb6"/><path d="m365.843 500.157h-123.383c-20.544 0-37.199-16.655-37.199-37.199v-75.888c0-20.544 16.655-37.199 37.199-37.199h123.383c20.544 0 37.199 16.655 37.199 37.199v75.887c0 20.545-16.654 37.2-37.199 37.2z" fill="#e79d8e"/><path d="m365.843 349.871h-40.514c15.361 0 27.814 12.453 27.814 27.814v56.741c0 15.361-12.453 27.814-27.814 27.814h-92.254c-15.361 0-27.814-12.453-27.814-27.814v28.531c0 20.544 16.655 37.199 37.199 37.199h123.383c20.544 0 37.199-16.655 37.199-37.199v-75.887c0-20.544-16.654-37.199-37.199-37.199z" fill="#df768f"/><path d="m147.4 206.441-107.007-72.435c-11.594-7.848-26.902-.956-30.034 14.33-.199.97-.307 2.019-.307 3.163 0 13.734 15.607 13.734 15.607 27.468s-15.607 13.734-15.607 27.468 15.607 13.734 15.607 27.469c0 13.736-15.607 13.736-15.607 27.473 0 1.146.109 2.196.308 3.167 3.135 15.286 18.44 22.18 30.034 14.331z" fill="#ffddb6"/><path d="m271.232 206.44 107.007 72.435c11.594 7.848 26.901.956 30.034-14.33.199-.97.307-2.019.307-3.163 0-13.734-15.607-13.734-15.607-27.468s15.607-13.734 15.607-27.468-15.607-13.734-15.607-27.469c0-13.736 15.607-13.736 15.607-27.473 0-1.146-.109-2.196-.308-3.167-3.135-15.286-18.44-22.18-30.034-14.331z" fill="#ffddb6"/><path d="m271.465 282.141h-124.298c-20.697 0-37.475-16.778-37.475-37.475v-76.45c0-20.697 16.778-37.475 37.475-37.475h124.298c20.697 0 37.475 16.778 37.475 37.475v76.45c0 20.697-16.778 37.475-37.475 37.475z" fill="#e79d8e"/><path d="m271.465 130.741h-40.815c15.475 0 28.02 12.545 28.02 28.02v57.162c0 15.475-12.545 28.02-28.02 28.02h-92.938c-15.475 0-28.02-12.545-28.02-28.02v28.743c0 20.697 16.778 37.475 37.475 37.475h124.299c20.697 0 37.475-16.778 37.475-37.475v-76.45c-.001-20.697-16.779-37.475-37.476-37.475z" fill="#df768f"/><g fill="#fff"><path d="m222.356 174.718h-25.4c-5.552 0-10.052-4.501-10.052-10.052s4.5-10.052 10.052-10.052h25.4c5.552 0 10.052 4.501 10.052 10.052s-4.5 10.052-10.052 10.052z"/><path d="m159.505 174.718h-9.437c-5.551 0-10.052-4.501-10.052-10.052s4.5-10.052 10.052-10.052h9.437c5.552 0 10.052 4.501 10.052 10.052s-4.5 10.052-10.052 10.052z"/></g></g><g fill="#4e0325"><path d="m500.843 446.197c4.443-3.91 11.157-9.818 11.157-21.179 0-11.36-6.714-17.269-11.157-21.179-3.767-3.316-4.335-4.112-4.335-6.088s.567-2.773 4.335-6.089c4.442-3.911 11.157-9.82 11.157-21.182 0-1.774-.172-3.511-.511-5.162-2.212-10.787-9.202-19.535-18.699-23.402-8.87-3.612-18.564-2.566-26.595 2.871l-53.503 36.218c-2.988-23.199-22.85-41.187-46.849-41.187h-123.383c-23.999 0-43.861 17.988-46.849 41.187l-53.504-36.218c-8.034-5.437-17.728-6.483-26.6-2.87-9.496 3.868-16.484 12.616-18.695 23.402-.338 1.649-.51 3.385-.51 5.158 0 11.36 6.714 17.269 11.157 21.179 3.768 3.316 4.335 4.112 4.335 6.087s-.567 2.771-4.335 6.087c-4.443 3.91-11.157 9.818-11.157 21.179 0 11.36 6.714 17.269 11.157 21.179 3.768 3.316 4.335 4.112 4.335 6.088s-.567 2.773-4.335 6.089c-4.443 3.911-11.157 9.819-11.157 21.181 0 1.775.172 3.512.511 5.163 2.212 10.786 9.202 19.534 18.698 23.401 3.479 1.417 7.083 2.117 10.665 2.117 5.552 0 11.049-1.682 15.931-4.988l53.503-36.218c2.987 23.199 22.85 41.187 46.849 41.187h123.383c23.999 0 43.862-17.988 46.849-41.187l53.504 36.218c4.883 3.305 10.379 4.988 15.932 4.988 3.582 0 7.189-.701 10.668-2.117 9.496-3.869 16.484-12.616 18.694-23.402.338-1.651.51-3.387.51-5.158 0-11.36-6.714-17.269-11.157-21.179-3.768-3.316-4.335-4.112-4.335-6.087s.568-2.771 4.336-6.087zm-370.004 42.394c-2.411 1.633-5.161 1.952-7.745.9-3.312-1.35-5.713-4.565-6.587-8.822-.067-.326-.101-.704-.101-1.124 0-1.976.567-2.773 4.335-6.089 4.443-3.911 11.157-9.819 11.157-21.181 0-11.361-6.714-17.27-11.158-21.18-3.767-3.316-4.334-4.112-4.334-6.087s.567-2.771 4.335-6.087c4.443-3.91 11.157-9.818 11.157-21.179s-6.714-17.269-11.157-21.179c-3.767-3.316-4.335-4.112-4.335-6.087 0-.42.034-.798.1-1.122.872-4.255 3.272-7.47 6.584-8.819.999-.407 2.023-.609 3.044-.609 1.617 0 3.225.508 4.704 1.509l64.371 43.573v40.007zm262.151-25.633c0 14.969-12.178 27.147-27.147 27.147h-123.383c-14.969 0-27.147-12.178-27.147-27.147v-75.888c0-14.969 12.178-27.147 27.147-27.147h123.383c14.969 0 27.147 12.178 27.147 27.147zm94.572-44.026c3.767 3.316 4.334 4.112 4.334 6.087s-.567 2.771-4.335 6.087c-4.443 3.91-11.157 9.818-11.157 21.179 0 11.36 6.714 17.269 11.157 21.179 3.767 3.316 4.335 4.112 4.335 6.087 0 .419-.034.796-.101 1.122-.872 4.255-3.272 7.469-6.584 8.819-2.584 1.05-5.334.732-7.747-.9l-64.371-43.574v-40.008l64.37-43.573c2.411-1.632 5.161-1.953 7.744-.901 3.313 1.35 5.714 4.565 6.587 8.823.067.326.101.704.101 1.123 0 1.977-.567 2.774-4.335 6.09-4.443 3.911-11.157 9.819-11.157 21.181.001 11.36 6.716 17.269 11.159 21.179z"/><path d="m362.324 405.839h-116.984c-3.331 0-6.031 2.7-6.031 6.031s2.7 6.031 6.031 6.031h116.984c3.331 0 6.031-2.7 6.031-6.031s-2.7-6.031-6.031-6.031z"/><path d="m147.167 292.193h124.298c24.18 0 44.187-18.155 47.138-41.548l54.001 36.554c4.907 3.321 10.43 5.012 16.009 5.012 3.6 0 7.223-.704 10.719-2.128 9.542-3.887 16.566-12.68 18.787-23.52.34-1.657.512-3.401.512-5.182 0-11.411-6.749-17.35-11.215-21.28-3.818-3.359-4.392-4.169-4.392-6.188s.575-2.828 4.392-6.188c4.466-3.929 11.215-9.868 11.215-21.28 0-11.41-6.749-17.35-11.215-21.28-3.818-3.36-4.392-4.17-4.392-6.189 0-2.02.575-2.83 4.393-6.19 4.465-3.93 11.214-9.87 11.214-21.283 0-1.785-.173-3.531-.513-5.185-2.223-10.843-9.249-19.637-18.793-23.523-8.912-3.627-18.653-2.578-26.723 2.886l-54.001 36.554c-2.952-23.392-22.958-41.546-47.138-41.546h-124.296c-24.18 0-44.186 18.155-47.138 41.547l-54.002-36.554c-8.072-5.464-17.814-6.516-26.727-2.884-9.543 3.887-16.567 12.681-18.788 23.519-.34 1.657-.512 3.401-.512 5.183 0 11.411 6.749 17.35 11.215 21.28 3.817 3.359 4.392 4.169 4.392 6.188s-.575 2.828-4.392 6.188c-4.466 3.929-11.215 9.868-11.215 21.28 0 11.41 6.749 17.35 11.215 21.28 3.817 3.36 4.392 4.17 4.392 6.189 0 2.02-.575 2.83-4.393 6.19-4.465 3.93-11.214 9.87-11.214 21.282 0 1.78.172 3.524.513 5.186 2.224 10.842 9.249 19.635 18.793 23.522 3.495 1.422 7.116 2.126 10.714 2.126 5.579 0 11.103-1.691 16.008-5.012l54-36.554c2.952 23.392 22.958 41.548 47.139 41.548zm236.706-149.863c2.451-1.66 5.246-1.984 7.871-.915 3.361 1.368 5.797 4.628 6.682 8.946.068.33.102.714.102 1.143 0 2.021-.575 2.831-4.393 6.191-4.466 3.93-11.214 9.87-11.214 21.282 0 11.411 6.749 17.351 11.215 21.281 3.817 3.36 4.392 4.169 4.392 6.188s-.575 2.828-4.392 6.188c-4.466 3.929-11.215 9.868-11.215 21.28 0 11.411 6.749 17.35 11.215 21.28 3.818 3.36 4.392 4.169 4.392 6.188 0 .428-.034.814-.103 1.146-.883 4.311-3.317 7.569-6.677 8.938-2.628 1.069-5.423.746-7.875-.914l-64.881-43.918v-40.383zm-264.13 25.886c0-15.121 12.302-27.423 27.423-27.423h124.298c15.122 0 27.423 12.302 27.423 27.423v76.45c0 15.121-12.302 27.423-27.423 27.423h-124.297c-15.121 0-27.423-12.302-27.423-27.423v-76.45zm-84.984 102.335c-2.45 1.661-5.245 1.985-7.872.915-3.361-1.368-5.796-4.627-6.68-8.938-.069-.336-.104-.723-.104-1.15 0-2.021.575-2.831 4.393-6.191 4.466-3.93 11.214-9.87 11.214-21.282 0-11.411-6.749-17.351-11.215-21.281-3.817-3.36-4.392-4.169-4.392-6.188s.575-2.828 4.392-6.188c4.466-3.93 11.215-9.868 11.215-21.28s-6.749-17.35-11.215-21.28c-3.818-3.36-4.392-4.169-4.392-6.188 0-.428.034-.812.103-1.145.884-4.312 3.317-7.57 6.677-8.939 1.016-.414 2.058-.619 3.095-.619 1.644 0 3.277.515 4.78 1.533l64.881 43.919v40.382z"/><path d="m150.068 199.23h117.852c3.331 0 6.031-2.7 6.031-6.031s-2.701-6.031-6.031-6.031h-117.852c-3.331 0-6.031 2.7-6.031 6.031s2.7 6.031 6.031 6.031z"/></g><g><path d="m347.881 4.233-8.257 23.217c-.353.994-1.053 1.782-1.937 2.18l-20.628 9.294c-2.914 1.313-2.914 5.956 0 7.269l20.628 9.293c.883.398 1.583 1.186 1.937 2.18l8.257 23.217c1.167 3.28 5.292 3.28 6.458 0l8.257-23.217c.353-.994 1.053-1.782 1.936-2.18l20.628-9.293c2.914-1.313 2.914-5.956 0-7.269l-20.628-9.294c-.883-.398-1.583-1.186-1.936-2.18l-8.256-23.217c-1.167-3.28-5.292-3.28-6.459 0z" fill="#ffc8b7"/><path d="m480.949 193.84-6.125 17.222c-.262.737-.781 1.322-1.436 1.617l-15.301 6.894c-2.162.974-2.162 4.418 0 5.392l15.301 6.894c.655.295 1.174.88 1.436 1.617l6.125 17.222c.865 2.433 3.925 2.433 4.791 0l6.125-17.222c.262-.737.781-1.322 1.436-1.617l15.301-6.894c2.161-.974 2.161-4.418 0-5.392l-15.301-6.894c-.655-.295-1.174-.88-1.436-1.617l-6.125-17.222c-.866-2.433-3.926-2.433-4.791 0z" fill="#ffc8b7"/><g fill="#ffa785"><circle cx="124.708" cy="60.084" r="18.03"/><path d="m223.445 16.46c0 4.295 3.482 7.778 7.777 7.778 4.296 0 7.778-3.482 7.778-7.778s-3.482-7.778-7.778-7.778c-4.295 0-7.777 3.483-7.777 7.778z"/></g></g></g></svg>