<svg id="Capa_1" enable-background="new 0 0 512 512" height="512" viewBox="0 0 512 512" width="512" xmlns="http://www.w3.org/2000/svg"><g><g><path d="m487.643 41h-157.956c-8.659 0-17.012-3.608-22.656-10.174-15.659-18.217-44.19-20.552-76.796-20.552-49.456 0-76.559 18.185-76.559 52.773s27.104 62.628 76.559 62.628c32.754 0 61.398-12.299 77.01-30.654 5.623-6.61 13.992-10.249 22.67-10.249h157.728z" fill="#d3b5f2"/><path d="m341.991 252.522s8.637-16.677 9.288-35.175c.651-18.499-15.396-53.911-15.396-53.911-11.46 18.917-24.628 35.763-49.383 38.574h-47.917c-15.583 0-28.296 11.355-28.587 25.533-.147 7.186-6.59 12.94-14.488 12.94h-21.129c-21.061 0-38.135 15.538-38.135 34.704v25.88c0 19.167 17.074 34.704 38.135 34.704h138.746c21.061 0 38.135-15.537 38.135-34.704v-25.881c0-8.665-3.498-16.583-9.269-22.664z" fill="#e79d8e"/><path d="m231.297 167.773c-12.01 0-21.746-9.736-21.746-21.746v-65.49c0-4.397 3.565-7.962 7.962-7.962h27.568c4.397 0 7.962 3.565 7.962 7.962v65.489c0 12.011-9.736 21.747-21.746 21.747z" fill="#e79d8e"/><path d="m336.438 385.512h-202.493c-8.186 0-14.823-6.636-14.823-14.823v-78.426c0-8.186 6.636-14.823 14.823-14.823h202.493c8.186 0 14.823 6.636 14.823 14.823v78.426c-.001 8.187-6.637 14.823-14.823 14.823z" fill="#fff2a5"/><path d="m352.513 501.726h-231.568c-13.13 0-23.774-10.644-23.774-23.774v-122.702c0-13.13 10.644-23.774 23.774-23.774h231.568c13.13 0 23.773 10.644 23.773 23.774v122.703c0 13.129-10.643 23.773-23.773 23.773z" fill="#e79d8e"/><path d="m155.122 402.61c64.867-6.473 120.896-21.003 165.099-71.134h-197.568c-13.13 0-23.773 10.644-23.773 23.774v49.716c11.94-.536 44.346-1.169 56.242-2.356z" fill="#fff2a5"/><path d="m352.513 331.476h-56.849c10.206 0 18.48 8.274 18.48 18.481v95.384c0 10.206-8.274 18.481-18.48 18.481h-180.012c-10.207 0-18.481-8.275-18.481-18.481v32.612c0 13.129 10.644 23.773 23.774 23.773h231.568c13.13 0 23.774-10.644 23.774-23.773v-122.703c0-13.13-10.644-23.774-23.774-23.774z" fill="#df768f"/><g fill="#fff"><path d="m190.007 374.441c-4.84 0-9.772-.043-16.215-.129-5.674-.076-10.212-4.737-10.136-10.41.075-5.674 4.751-10.175 10.411-10.136 12.663.169 19.393.169 31.304 0 5.653-.047 10.338 4.454 10.419 10.128.08 5.673-4.454 10.338-10.128 10.418-6.067.086-10.815.129-15.655.129z"/><path d="m138.089 374.314h-6.621c-5.674 0-10.274-4.6-10.274-10.274s4.6-10.274 10.274-10.274h6.621c5.674 0 10.274 4.6 10.274 10.274s-4.6 10.274-10.274 10.274z"/></g></g><g fill="#4e0325"><path d="m487.644 74.498h-157.729c-11.884 0-23 5.054-30.495 13.866-8.414 9.892-21.175 17.543-36.103 22.144v-25.648c14.881-4.952 24.36-13.626 24.36-23.917 0-16.173-23.388-28.369-54.402-28.369s-54.401 12.196-54.401 28.369c0 9.348 7.819 17.362 20.403 22.465v27.078c-22.126-7.878-35.326-24.798-35.326-47.438 0-28.201 22.302-42.499 66.286-42.499 33.593 0 56.853 2.84 69.004 16.975 7.511 8.739 18.609 13.751 30.448 13.751h157.957c5.674 0 10.274-4.6 10.274-10.274s-4.6-10.274-10.274-10.274h-157.959c-5.843 0-11.261-2.405-14.865-6.597-19.139-22.267-52.28-24.13-84.586-24.13-26.811 0-47.883 5.118-62.63 15.212-15.835 10.839-24.204 27.38-24.204 47.836 0 20.434 8.255 38.908 23.244 52.018 8.935 7.815 19.969 13.502 32.63 16.952v14.009c0 17.656 14.365 32.02 32.021 32.02s32.02-14.364 32.02-32.02v-14.124c21.227-5.359 39.52-15.84 51.755-30.225 3.585-4.214 8.995-6.631 14.843-6.631h157.729c5.674 0 10.274-4.6 10.274-10.274 0-5.675-4.6-10.275-10.274-10.275zm-244.875 71.529c0 6.326-5.146 11.472-11.472 11.472s-11.473-5.147-11.473-11.472v-63.178h22.945zm-25.257-83.726c-6.598 0-12.372 3.534-15.574 8.798-6.876-3.138-10.736-6.991-10.736-10.156 0-6.54 16.389-16.04 42.073-16.04 25.683 0 42.073 9.5 42.073 16.04 0 3.63-5.067 8.167-13.955 11.489-2.991-5.994-9.17-10.131-16.312-10.131z"/><path d="m361.535 322.424v-47.238c0-8.63-2.663-17.013-7.602-24.199 2.927-7.185 7.137-19.717 7.614-33.279.716-20.32-14.561-54.665-16.306-58.514-1.573-3.473-4.94-5.788-8.746-6.015-3.792-.217-7.425 1.672-9.399 4.933-11.513 19.007-22.453 31.283-41.205 33.623h-47.308c-21.024 0-38.456 15.968-38.859 35.596-.028 1.361-1.766 2.877-4.216 2.877h-21.129c-24.167 0-44.253 16.539-47.838 38.073-10.236 3.167-17.693 12.719-17.693 23.981v31.167c-12.818 4.89-21.951 17.305-21.951 31.819v49.256c-.01.135-.022.27-.023.408-.001.175.01.347.023.518v72.521c0 18.774 15.274 34.047 34.048 34.047h231.568c18.774 0 34.048-15.274 34.048-34.047v-122.701c0-15.651-10.618-28.861-25.026-32.826zm-232.139-1.222v-28.939c0-2.508 2.041-4.549 4.549-4.549h202.492c2.508 0 4.549 2.04 4.549 4.549v28.939zm44.983-70.445h21.129c13.392 0 24.499-10.319 24.76-23.004.175-8.53 8.391-15.47 18.315-15.47h47.917c.387 0 .775-.022 1.159-.066 21.043-2.389 35.008-13.359 45.865-27.093 4.152 11.606 7.751 24.382 7.487 31.861-.556 15.798-8.038 30.605-8.152 30.83-2.002 3.883-1.328 8.609 1.68 11.779 1.749 1.843 3.692 4.442 4.984 7.769-1.012-.125-2.04-.197-3.085-.197h-188.37c3.794-9.541 14.152-16.409 26.311-16.409zm-53.434 90.993h178.643c-36.076 36.566-100.544 55.696-192.143 56.966v-43.466c0-7.444 6.056-13.5 13.5-13.5zm245.068 136.203c0 7.444-6.056 13.499-13.5 13.499h-231.568c-7.444 0-13.5-6.056-13.5-13.499v-66.89c48.65-.665 90.306-6.287 123.978-16.747 36.994-11.492 65.474-29.181 84.757-52.566h36.333c7.444 0 13.5 6.056 13.5 13.5z"/><path d="m323.078 385.469c-3.404 0-6.165 2.76-6.165 6.164v16.915c0 3.404 2.76 6.165 6.165 6.165s6.164-2.76 6.164-6.165v-16.915c.001-3.404-2.759-6.164-6.164-6.164z"/><path d="m271.699 423.812c-3.404 0-6.164 2.76-6.164 6.164v16.915c0 3.404 2.76 6.164 6.164 6.164s6.164-2.76 6.164-6.164v-16.915c0-3.404-2.76-6.164-6.164-6.164z"/></g><g><path d="m84.675 124.263-8.44 23.731c-.361 1.016-1.077 1.821-1.979 2.228l-21.084 9.499c-2.979 1.342-2.979 6.088 0 7.43l21.084 9.499c.903.407 1.618 1.212 1.979 2.228l8.44 23.731c1.192 3.353 5.409 3.353 6.601 0l8.44-23.731c.361-1.016 1.077-1.821 1.979-2.228l21.084-9.499c2.979-1.342 2.979-6.088 0-7.43l-21.084-9.499c-.903-.407-1.618-1.212-1.979-2.228l-8.44-23.731c-1.192-3.353-5.409-3.353-6.601 0z" fill="#fff2a5"/><path d="m428.204 134.378-6.26 17.603c-.268.754-.799 1.351-1.468 1.653l-15.64 7.046c-2.209.996-2.209 4.516 0 5.511l15.64 7.046c.67.302 1.2.899 1.468 1.652l6.26 17.603c.884 2.487 4.012 2.487 4.897 0l6.26-17.603c.268-.754.799-1.351 1.468-1.652l15.639-7.046c2.209-.996 2.209-4.516 0-5.511l-15.639-7.046c-.67-.302-1.2-.899-1.468-1.653l-6.26-17.603c-.885-2.487-4.012-2.487-4.897 0z" fill="#fff2a5"/><g fill="#ffe35c"><circle cx="32.51" cy="38.738" r="18.428"/><path d="m24.561 239.381c0 4.39 3.559 7.949 7.949 7.949s7.949-3.559 7.949-7.949c0-4.391-3.559-7.95-7.949-7.95-4.39.001-7.949 3.56-7.949 7.95z"/></g></g></g></svg>