<svg id="Capa_1" enable-background="new 0 0 509.095 509.095" height="512" viewBox="0 0 509.095 509.095" width="512" xmlns="http://www.w3.org/2000/svg"><g><g><path d="m277.9 482.325-138.643-29.342c-13.124-2.777-21.511-15.668-18.734-28.792l82.91-391.76c2.777-13.124 15.668-21.512 28.792-18.734l138.643 29.341c13.124 2.778 21.512 15.668 18.734 28.792l-82.91 391.76c-2.777 13.125-15.668 21.512-28.792 18.735z" fill="#d3b5f2"/><path d="m370.868 43.039-35.845-7.586v.011c11.057 2.46 18.1 13.363 15.749 24.472l-70.629 333.731c-2.366 11.18-13.347 18.325-24.527 15.959l-118.106-24.996c-2.939-.622-5.589-1.852-7.871-3.511l-9.116 43.072c-2.778 13.124 5.61 26.015 18.734 28.793l138.643 29.341c13.124 2.777 26.015-5.61 28.792-18.734l82.91-391.76c2.777-13.124-5.61-26.015-18.734-28.792z" fill="#d088f3"/><path d="m176.003 495.929h-141.714c-13.414 0-24.289-10.874-24.289-24.289v-400.437c0-13.415 10.875-24.29 24.289-24.29h141.714c13.415 0 24.289 10.875 24.289 24.29v400.437c0 13.415-10.875 24.289-24.289 24.289z" fill="#00ebc4"/><path d="m122.875 372.175h-35.458c-11.457 0-20.745-9.288-20.745-20.745v-160.017c0-11.457 9.288-20.745 20.745-20.745h35.458c11.457 0 20.745 9.288 20.745 20.745v160.017c0 11.457-9.288 20.745-20.745 20.745z" fill="#fff"/><path d="m176.003 46.914h-26.609c11.264 0 20.396 9.132 20.396 20.396v336.249c0 11.264-9.132 20.396-20.396 20.396h-118.998c-11.264 0-20.396-9.132-20.396-20.396v68.081c0 13.415 10.875 24.29 24.29 24.29h141.713c13.415 0 24.289-10.875 24.289-24.29v-400.437c0-13.415-10.874-24.289-24.289-24.289z" fill="#45b1c6"/></g><g fill="#4e0325"><path d="m372.938 33.255-138.643-29.341c-18.497-3.921-36.731 7.948-40.645 26.446l-2.171 10.26c-4.653-2.364-9.909-3.706-15.476-3.706h-141.713c-18.908 0-34.29 15.382-34.29 34.289v400.437c0 18.907 15.382 34.29 34.29 34.29h141.713c16.696 0 30.636-11.998 33.67-27.823l66.157 14.001c2.385.505 4.762.747 7.107.747 15.851 0 30.128-11.08 33.538-27.193l82.91-391.76c3.914-18.498-7.949-36.731-26.447-40.647zm-4.142 19.566c1.196.253 2.315.665 3.364 1.183l-81.253 33.995c-.186.011-.371.01-.556.039l-60.982-64.683c.262.041.523.069.786.125zm-100.938 59.813 12.083 27.216-22.071 19.99c-1.921 1.739-2.508 4.515-1.456 6.882l12.083 27.213-22.072 19.988c-1.92 1.739-2.507 4.514-1.456 6.882l12.084 27.216-22.073 19.992c-1.92 1.739-2.507 4.514-1.456 6.882l12.083 27.22-22.072 19.992c-1.92 1.739-2.507 4.514-1.456 6.882l12.083 27.221-22.075 19.998c-.917.831-1.517 1.9-1.793 3.045v-308.05c0-4.303-.804-8.419-2.258-12.218l5.182-24.484c.571-2.696 1.883-5.043 3.663-6.899l63.895 67.771-11.46 10.378c-1.923 1.74-2.51 4.515-1.458 6.883zm-137.003 321.43v51.865h-51.417v-51.865zm-110.855-12v-299.999h170.292v299.999zm59.438-311.999v-53.151h51.417v53.151zm130.854 271.988c.092.382.209.761.379 1.127l5.945 12.799-6.325 2.647v-16.573zm-20-310.85v38.862h-47.438v-53.151h33.148c7.88 0 14.29 6.41 14.29 14.289zm-156.002-14.289h33.148v53.151h-47.438v-38.862c0-7.879 6.41-14.289 14.29-14.289zm-14.29 414.726v-37.575h47.438v51.865h-33.148c-7.88 0-14.29-6.41-14.29-14.29zm156.003 14.29h-33.148v-51.865h47.438v37.575c-.001 7.88-6.411 14.29-14.29 14.29zm103.967-13.389-69.678-14.746v-46.16l12.877-5.388 62.536 66.332c-1.869.37-3.812.369-5.735-.038zm99.849-402.78-82.91 391.76c-.294 1.389-.784 2.703-1.446 3.914l-65.746-69.737-6.301-13.565 22.016-19.944c1.919-1.738 2.506-4.513 1.456-6.881l-12.082-27.221 22.072-19.992c1.92-1.739 2.507-4.514 1.456-6.882l-12.083-27.22 22.073-19.992c1.921-1.739 2.508-4.515 1.456-6.882l-12.083-27.216 22.071-19.988c1.921-1.739 2.508-4.515 1.456-6.882l-12.083-27.213 22.071-19.99c1.921-1.739 2.508-4.515 1.456-6.882l-12.083-27.216 13.151-11.91 86.064-36.007c.411 1.905.447 3.92.019 5.946z"/><path d="m122.875 164.668h-35.458c-14.747 0-26.745 11.998-26.745 26.745v160.018c0 14.747 11.997 26.744 26.745 26.744h35.458c14.747 0 26.745-11.997 26.745-26.744v-160.018c0-14.747-11.998-26.745-26.745-26.745zm14.745 186.763c0 8.13-6.614 14.744-14.745 14.744h-35.458c-8.13 0-14.745-6.614-14.745-14.744v-160.018c0-8.131 6.614-14.745 14.745-14.745h35.458c8.13 0 14.745 6.614 14.745 14.745z"/><path d="m98.632 310.167c-3.313 0-6 2.687-6 6v15.153c0 3.313 2.687 6 6 6s6-2.687 6-6v-15.153c0-3.313-2.686-6-6-6z"/><path d="m116.02 257.845c-3.313 0-6 2.686-6 6v15.153c0 3.313 2.687 6 6 6 3.314 0 6-2.687 6-6v-15.153c0-3.314-2.686-6-6-6z"/></g><g><path d="m403.747 380.713-8.214 23.098c-.352.989-1.048 1.773-1.927 2.168l-20.521 9.246c-2.899 1.306-2.899 5.926 0 7.232l20.521 9.246c.879.396 1.575 1.18 1.927 2.169l8.214 23.098c1.16 3.263 5.265 3.263 6.425 0l8.214-23.098c.352-.989 1.048-1.773 1.927-2.169l20.521-9.246c2.899-1.306 2.899-5.925 0-7.232l-20.521-9.246c-.879-.396-1.575-1.18-1.927-2.168l-8.214-23.098c-1.16-3.263-5.264-3.263-6.425 0z" fill="#d3b5f2"/><path d="m479.971 272.414-6.093 17.133c-.261.734-.777 1.315-1.429 1.609l-15.223 6.858c-2.151.969-2.151 4.395 0 5.364l15.223 6.858c.652.294 1.168.875 1.429 1.608l6.093 17.134c.861 2.42 3.905 2.42 4.766 0l6.093-17.134c.261-.733.777-1.315 1.429-1.608l15.222-6.858c2.15-.969 2.15-4.395 0-5.364l-15.222-6.858c-.652-.294-1.168-.875-1.429-1.609l-6.093-17.133c-.861-2.421-3.905-2.421-4.766 0z" fill="#d3b5f2"/><g fill="#ad84e6"><ellipse cx="446.651" cy="170.668" rx="17.937" ry="17.937" transform="matrix(.987 -.16 .16 .987 -21.571 73.749)"/><circle cx="397.87" cy="323.744" r="7.737"/></g></g></g></svg>