<svg id="Capa_1" enable-background="new 0 0 512 512" height="512" viewBox="0 0 512 512" width="512" xmlns="http://www.w3.org/2000/svg"><g><g><path d="m479.759 339.245-140.533 140.533c-11.642 11.642-30.518 11.642-42.16 0l-278.322-278.323c-11.642-11.642-11.642-30.518 0-42.16l140.533-140.532c11.642-11.642 30.518-11.642 42.16 0l278.323 278.323c11.641 11.641 11.641 30.517-.001 42.159z" fill="#c37777"/><path d="m479.759 297.085-278.323-278.322c-11.642-11.642-30.518-11.642-42.16 0l-30.126 30.126c7.358-7.358 19.289-7.358 26.647 0l105.771 105.771c7.359 7.359 7.359 19.289 0 26.647l-118.162 118.164c-7.358 7.358-19.289 7.358-26.648 0l180.308 180.308c11.642 11.642 30.518 11.642 42.16 0l140.533-140.533c11.642-11.643 11.642-30.519 0-42.161z" fill="#ba5677"/><path d="m117.993 310.998 181.767 181.767c12.298 12.298 32.237 12.298 44.535 0l148.451-148.451c12.298-12.298 12.298-32.237 0-44.535l-120.993-120.993" fill="#ff8cc0"/><path d="m492.746 299.779-120.993-120.993-55.779 29.062 94.398 94.398c9.595 9.595 9.595 25.151 0 34.746l-115.821 115.819c-9.595 9.595-25.151 9.595-34.746 0l39.955 39.955c12.298 12.298 32.237 12.298 44.535-.001l148.451-148.45c12.298-12.299 12.298-32.238 0-44.536z" fill="#ff68c1"/><path d="m117.993 310.998 110.633 30.825c10.754 2.996 22.257-.73 29.211-9.463l118.578-148.912" fill="#ffc5dd"/><g fill="#fff"><path d="m234.031 292.922c-3.55 0-6.99-1.889-8.811-5.224-2.656-4.862-.868-10.956 3.994-13.611l21.968-12.001c4.861-2.655 10.955-.868 13.612 3.994 2.656 4.862.868 10.956-3.994 13.612l-21.969 12.001c-1.526.833-3.175 1.229-4.8 1.229z"/><path d="m193.254 315.199c-3.551 0-6.991-1.89-8.812-5.225-2.655-4.862-.865-10.956 3.997-13.611l3.369-1.84c4.861-2.656 10.955-.865 13.611 3.996 2.655 4.863.865 10.956-3.997 13.611l-3.369 1.84c-1.527.833-3.175 1.229-4.799 1.229z"/></g></g><g fill="#4e0325"><path d="m499.839 292.686-120.993-120.993c-3.242-3.241-8.146-3.792-11.962-1.669l-158.355-158.354c-7.525-7.525-17.53-11.67-28.172-11.67s-20.647 4.144-28.173 11.669l-140.533 140.534c-15.534 15.535-15.534 40.811 0 56.345l97.58 97.58c-2.123 3.817-1.572 8.721 1.669 11.963l181.767 181.767c8.095 8.094 18.728 12.141 29.36 12.141 10.633 0 21.266-4.047 29.361-12.141l148.451-148.451c7.842-7.842 12.161-18.269 12.161-29.36s-4.319-21.518-12.161-29.361zm-380.77-219.531 54.861 54.861-49.434 49.434-54.861-54.861zm63.373 63.372 57.698 57.698-49.434 49.434-57.698-57.698zm118.985-3.588-52.776 52.776-57.698-57.698 52.776-52.776zm49.771 49.77-11.377 5.927c-.82-2.144-2.085-4.124-3.75-5.789l-13.914-13.915c-3.125-3.125-7.28-4.846-11.699-4.846s-8.574 1.721-11.699 4.846l-13.916 13.916c-6.449 6.45-6.449 16.946.001 23.397l7.256 7.255-10.298 5.366-24.639-24.64 52.776-52.776zm-47.908 24.96-9.935-9.936c-1.757-1.758-1.757-4.618-.001-6.375l13.915-13.915c.852-.851 1.985-1.321 3.188-1.321 1.204 0 2.335.469 3.188 1.321l13.915 13.915c.801.801 1.257 1.87 1.309 2.984zm-40.649 21.179-.201-.201c-6.451-6.45-16.947-6.45-23.397 0l-13.916 13.916c-2.239 2.24-3.767 5.079-4.443 8.145l-15.075 7.854-6.392-6.392 49.434-49.434 21.959 21.959zm-68.223 35.545-15.497 8.074 11.786-11.786zm-12.223-12.222-38.813 38.812-13.757 7.168-54.403-54.403 49.275-49.275zm181.487-62.394-110.553 138.834c-5.46 6.858-14.444 9.768-22.888 7.415l-95.949-26.734zm-197.312-163.922c3.736-3.736 8.703-5.794 13.987-5.794s10.251 2.058 13.987 5.794l40.874 40.874-52.776 52.776-54.861-54.861zm-140.534 140.533 35.288-35.288 54.861 54.861-49.275 49.276-40.874-40.874c-7.713-7.713-7.713-20.262 0-27.975zm459.817 170.834-148.451 148.45c-8.365 8.367-21.982 8.368-30.349 0l-160.535-160.534 80.693 22.483c3.017.841 6.077 1.249 9.106 1.249 10.132 0 19.902-4.565 26.428-12.761l111.864-140.48 111.244 111.244c8.367 8.366 8.367 21.981 0 30.349z"/><path d="m76.059 209.585 13.915-13.915c3.125-3.125 4.846-7.279 4.846-11.699 0-4.419-1.721-8.574-4.846-11.699l-13.915-13.915c-3.125-3.125-7.28-4.846-11.699-4.846s-8.574 1.721-11.699 4.846l-13.915 13.915c-3.125 3.125-4.846 7.279-4.846 11.699 0 4.419 1.721 8.574 4.846 11.699l13.915 13.915c3.125 3.125 7.279 4.846 11.699 4.846s8.574-1.721 11.699-4.846zm-28.802-22.426c-.851-.851-1.32-1.984-1.32-3.188s.469-2.336 1.32-3.187l13.915-13.915c.851-.851 1.984-1.32 3.188-1.32s2.336.469 3.187 1.32l13.915 13.915c.851.851 1.32 1.984 1.32 3.187 0 1.204-.469 2.336-1.32 3.188l-13.915 13.915c-.851.851-1.984 1.32-3.187 1.32-1.204 0-2.336-.469-3.188-1.32z"/><path d="m103.14 260.064 13.915 13.915c3.225 3.225 7.462 4.838 11.698 4.838 4.237 0 8.473-1.613 11.699-4.838l13.915-13.915c3.125-3.125 4.846-7.279 4.846-11.699 0-4.419-1.721-8.574-4.846-11.699l-13.915-13.915c-6.45-6.45-16.946-6.449-23.397 0l-13.915 13.915c-3.125 3.125-4.846 7.28-4.846 11.699s1.721 8.574 4.846 11.699zm8.511-14.887 13.914-13.915c.879-.879 2.034-1.318 3.188-1.318s2.309.439 3.187 1.318l13.915 13.915c.851.851 1.32 1.984 1.32 3.187 0 1.204-.469 2.336-1.32 3.188l-13.915 13.915c-1.757 1.757-4.618 1.757-6.375 0l-13.915-13.915c-.851-.852-1.32-1.984-1.32-3.188.001-1.203.47-2.335 1.321-3.187z"/><path d="m96.792 137.624 13.915 13.915c3.225 3.225 7.462 4.837 11.698 4.837 4.237 0 8.474-1.612 11.699-4.837l13.915-13.915c6.45-6.45 6.45-16.947 0-23.398l-13.915-13.915c-3.125-3.125-7.28-4.846-11.699-4.846s-8.574 1.72-11.699 4.846l-13.915 13.915c-3.125 3.125-4.846 7.28-4.846 11.699.001 4.42 1.722 8.575 4.847 11.699zm8.511-14.886 13.915-13.915c.852-.852 1.984-1.32 3.188-1.32s2.336.469 3.188 1.32l13.915 13.914c1.757 1.758 1.758 4.618 0 6.376l-13.915 13.915c-1.758 1.757-4.618 1.757-6.376 0l-13.915-13.915c-.851-.852-1.32-1.984-1.32-3.187 0-1.205.469-2.336 1.32-3.188z"/><path d="m198.498 215.933 13.915-13.915c3.125-3.125 4.846-7.28 4.846-11.699s-1.721-8.574-4.846-11.699l-13.915-13.915c-3.125-3.125-7.279-4.846-11.699-4.846-4.419 0-8.574 1.721-11.699 4.846l-13.915 13.915c-3.125 3.125-4.846 7.279-4.846 11.699 0 4.419 1.721 8.574 4.846 11.699l13.915 13.915c3.125 3.125 7.28 4.846 11.699 4.846 4.42 0 8.574-1.721 11.699-4.846zm-28.801-22.427c-.851-.851-1.32-1.984-1.32-3.187 0-1.204.469-2.336 1.32-3.188l13.915-13.915c.851-.851 1.984-1.32 3.187-1.32 1.204 0 2.336.469 3.188 1.32l13.915 13.915c.851.851 1.32 1.984 1.32 3.188s-.469 2.336-1.32 3.187l-13.915 13.915c-.851.851-1.984 1.32-3.188 1.32s-2.336-.469-3.187-1.32z"/><path d="m156.508 77.908 13.915 13.915c3.125 3.125 7.279 4.846 11.699 4.846s8.574-1.721 11.699-4.846l13.915-13.915c3.125-3.125 4.846-7.279 4.846-11.699 0-4.419-1.721-8.574-4.846-11.699l-13.916-13.914c-3.125-3.125-7.279-4.846-11.699-4.846s-8.574 1.721-11.699 4.846l-13.915 13.915c-3.125 3.125-4.846 7.279-4.846 11.699.001 4.419 1.722 8.574 4.847 11.698zm8.511-14.886 13.915-13.915c.851-.851 1.983-1.32 3.187-1.32s2.336.469 3.187 1.32l13.915 13.915c.851.851 1.32 1.984 1.32 3.187 0 1.204-.469 2.336-1.32 3.187l-13.915 13.916c-.851.851-1.984 1.32-3.187 1.32s-2.336-.469-3.187-1.32l-13.915-13.916c-.851-.851-1.32-1.983-1.32-3.187-.001-1.203.469-2.335 1.32-3.187z"/><path d="m220.901 142.302 13.915 13.915c3.125 3.125 7.28 4.846 11.699 4.846s8.574-1.721 11.699-4.846l13.915-13.915c.001 0 .001 0 .001-.001 6.449-6.45 6.449-16.946-.001-23.397l-13.915-13.915c-3.125-3.125-7.28-4.846-11.699-4.846s-8.574 1.721-11.699 4.846l-13.915 13.915c-3.125 3.125-4.846 7.28-4.846 11.699 0 4.42 1.721 8.575 4.846 11.699zm8.511-14.886 13.915-13.915c.851-.851 1.984-1.32 3.187-1.32 1.204 0 2.336.469 3.187 1.32l13.916 13.915c1.757 1.758 1.757 4.618.001 6.375l-13.916 13.915c-.851.851-1.984 1.32-3.187 1.32-1.204 0-2.336-.469-3.187-1.32l-13.915-13.915c-.851-.851-1.32-1.983-1.32-3.187s.468-2.337 1.319-3.188z"/><path d="m407.43 314.168c-2.349-2.35-6.161-2.35-8.51 0-2.351 2.35-2.351 6.161 0 8.511l10.748 10.747c1.174 1.175 2.715 1.763 4.255 1.763s3.081-.588 4.255-1.763c2.351-2.35 2.351-6.161 0-8.511z"/><path d="m374.395 255.885c-2.349-2.35-6.161-2.35-8.51 0-2.351 2.35-2.351 6.161 0 8.511l10.747 10.747c1.174 1.175 2.715 1.763 4.255 1.763s3.081-.588 4.255-1.763c2.351-2.35 2.351-6.161 0-8.511z"/><path d="m355.346 329.954c-2.349-2.35-6.161-2.35-8.51 0-2.351 2.35-2.351 6.161 0 8.511l10.748 10.748c1.174 1.175 2.715 1.763 4.255 1.763s3.081-.588 4.255-1.763c2.351-2.35 2.351-6.161 0-8.511z"/></g><g><path d="m400.804 7.38-8.24 23.168c-.353.992-1.051 1.778-1.933 2.175l-20.584 9.274c-2.908 1.31-2.908 5.944 0 7.254l20.584 9.274c.881.397 1.58 1.183 1.933 2.175l8.24 23.168c1.164 3.273 5.281 3.273 6.445 0l8.24-23.168c.353-.992 1.051-1.778 1.933-2.175l20.584-9.274c2.908-1.31 2.908-5.944 0-7.254l-20.584-9.274c-.881-.397-1.58-1.183-1.933-2.175l-8.24-23.168c-1.165-3.273-5.281-3.273-6.445 0z" fill="#ffc5dd"/><path d="m44.773 314.476-6.112 17.186c-.262.736-.78 1.319-1.434 1.614l-15.269 6.879c-2.157.972-2.157 4.409 0 5.381l15.269 6.879c.654.294 1.172.878 1.434 1.613l6.112 17.186c.863 2.428 3.917 2.428 4.78 0l6.112-17.186c.262-.736.78-1.319 1.433-1.613l15.269-6.879c2.157-.972 2.157-4.409 0-5.381l-15.269-6.879c-.654-.295-1.172-.878-1.433-1.614l-6.112-17.186c-.863-2.428-3.916-2.428-4.78 0z" fill="#ffc5dd"/><g fill="#ff8cc0"><ellipse cx="464.051" cy="144.025" rx="17.991" ry="17.991" transform="matrix(.993 -.122 .122 .993 -14.121 57.778)"/><ellipse cx="291.887" cy="38.167" rx="7.761" ry="7.761" transform="matrix(.993 -.122 .122 .993 -2.476 35.95)"/></g></g></g></svg>