<svg id="Capa_1" enable-background="new 0 0 512 512" height="512" viewBox="0 0 512 512" width="512" xmlns="http://www.w3.org/2000/svg"><g><g><path d="m37.425 369.084c-3.603-3.603-9.595-2.974-12.409 1.274-13.664 20.628-20.636 37.956-9.191 56.737 11.778 19.328 30.608 20.924 76.036 14.662 6.577-.907 9.282-8.955 4.587-13.65-19.675-19.674-39.349-39.348-59.023-59.023z" fill="#c37777"/><g fill="#ffa785"><path d="m430.551 419.048c16.292-16.293 32.585-32.585 48.877-48.877 8.323-8.323 8.271-21.79-.043-30.123-50.135-50.244-130.973-92.106-222.174-92.106-92.335 0-174.049 42.908-224.03 93.983-9.219 9.421-9.066 24.534.254 33.855l66.195 66.195c2.378 2.378 5.752 3.47 9.07 2.921 55.781-9.224 116.463-21.03 151.566-21.03 34.314 0 91.865 11.168 145.253 20.215z"/><path d="m410.875 424.581c0 45.72-72.164 10.287-154.665 10.287s-155.085 35.433-155.085-10.287c0-91.44 1.563-197.511 155.085-197.511s154.665 106.07 154.665 197.511z"/><path d="m280.057 464.781h-48.114c-32.328 0-58.535-26.207-58.535-58.535v-147.3c0-32.328 26.207-58.535 58.535-58.535h48.114c32.328 0 58.535 26.207 58.535 58.535v147.3c0 32.328-26.207 58.535-58.535 58.535z"/></g><path d="m395.273 269.093c-11.972-17.597-28.82-32.192-52.533-42.199-8.38-25.426-32.311-43.786-60.543-43.786h-52.4c-28.304 0-52.285 18.451-60.608 43.978-23.503 10-40.257 24.517-52.201 41.997-13.681 20.021.919 47.2 25.168 47.2h41.103v24.24c0 11.66 9.452 21.113 21.112 21.113 11.66 0 21.112-9.452 21.112-21.113v-24.24h34.395v58.26c0 11.66 9.452 21.113 21.112 21.113 11.66 0 21.112-9.452 21.112-21.113v-58.26h67.994c24.244 0 38.814-27.145 25.177-47.19z" fill="#c37777"/><path d="m486.985 370.358c-1.203-1.815-2.987-2.964-4.916-3.41 5.543-8.279 4.628-19.573-2.684-26.901-21.309-21.355-48.166-41.193-79.005-56.949-.452-4.769-2.083-9.561-5.107-14.005-11.972-17.597-28.82-32.192-52.533-42.199-8.38-25.426-32.311-43.786-60.543-43.786h-47.788c23.274 0 43.002 15.135 49.911 36.096 19.549 8.25 33.438 20.282 43.308 34.788 2.492 3.664 3.837 7.615 4.21 11.546 25.424 12.989 47.565 29.344 65.131 46.948 6.027 6.041 6.782 15.351 2.212 22.176 1.59.367 3.061 1.314 4.053 2.811 11.265 17.006 17.012 31.29 7.577 46.774-9.71 15.934-25.233 17.25-62.684 12.087-2.807-.387-12.054 1.916-12.054 1.916-19.986-3.387-40.674-7.132-59.96-10.214-7.805 16.143-24.336 27.279-43.469 27.279h-39.664c-18.737 0-11.578-13.791-19.572-29.395-19.002 3.082-62.569 9.784-82.028 13.002-2.736.452-28.216-.907-29.911-.673-36.091 4.976-35.786 2.014-45.57-12.328-6.925 14.21-8.531 27.296-.074 41.174 11.778 19.329 30.608 20.924 76.037 14.662 2.057-.284 3.735-1.266 4.926-2.625l2.842 2.843c2.378 2.378 5.752 3.469 9.07 2.921 23.604-3.903 48.08-8.266 71.13-12.003 9.697 18.927 29.385 31.889 52.114 31.889h48.114c23.209 0 43.261-13.508 52.728-33.09 23.394 3.739 48.49 8.281 72.733 12.39l8.023-8.023c.839 2.842 3.193 5.23 6.599 5.699 45.428 6.262 64.259 4.667 76.036-14.662 11.444-18.781 4.472-36.109-9.192-56.738z" fill="#ff7d87"/><path d="m474.576 369.084c3.603-3.603 9.595-2.974 12.409 1.274 13.664 20.628 20.636 37.956 9.191 56.737-11.778 19.328-30.608 20.924-76.036 14.662-6.577-.907-9.282-8.955-4.587-13.65 19.674-19.674 39.348-39.348 59.023-59.023z" fill="#ba5677"/><path d="m66.108 397.768c-28.143 3.135-41.524.886-50.21-11.847v.001c-6.925 14.209-8.531 27.296-.074 41.174 11.778 19.328 30.608 20.924 76.036 14.661 2.057-.283 3.734-1.265 4.926-2.625 2.619-2.988 2.887-7.798-.339-11.025-10.112-10.113-20.225-20.225-30.339-30.339z" fill="#ba5677"/><g><path d="m284.32 219.205c19.549 8.25 33.438 20.282 43.308 34.788 2.492 3.664 3.837 7.615 4.21 11.546 22.919 11.709 43.157 26.157 59.793 41.786 9.53-9.667 12.373-25.4 3.642-38.233-11.972-17.597-28.82-32.192-52.533-42.199-8.38-25.426-32.311-43.786-60.543-43.786h-47.788l-.001.001c23.275.001 43.003 15.136 49.912 36.097z" fill="#ba5677"/></g><path d="m176.25 283.384c-3.643 0-7.16-1.984-8.951-5.443-2.558-4.939-.626-11.016 4.313-13.573 8.389-4.344 16.093-9.143 22.898-14.262 4.444-3.342 10.757-2.451 14.102 1.994 3.344 4.444 2.451 10.758-1.993 14.102-7.7 5.793-16.361 11.193-25.746 16.052-1.48.768-3.063 1.13-4.623 1.13z" fill="#fff"/><path d="m228.165 233.95c-1.332 0-2.684-.266-3.984-.826-5.107-2.203-7.462-8.13-5.259-13.237.788-1.825 1.414-3.512 1.917-5.157 1.623-5.321 7.252-8.316 12.571-6.694 5.32 1.623 8.317 7.251 6.694 12.571-.722 2.366-1.6 4.74-2.686 7.258-1.643 3.807-5.354 6.085-9.253 6.085z" fill="#fff"/></g><g fill="#4e0325"><path d="m495.381 364.798c-.267-.404-.556-.789-.852-1.166 2.946-10.56.279-22.386-8.014-30.697-22.43-22.479-48.628-41.51-77.068-56.521-1.135-4.527-3.077-8.914-5.846-12.986-.001 0-.001 0-.001 0-13.005-19.115-30.778-33.908-52.874-44.023-11.156-27.917-38.139-46.367-68.529-46.367h-52.4c-30.499 0-57.518 18.535-68.617 46.583-21.9 10.104-39.548 24.816-52.507 43.78-3.073 4.497-5.134 9.384-6.203 14.42-28.718 15.516-54.824 34.934-76.436 57.007-7.92 8.089-10.974 19.221-9.201 29.672-.07.101-.146.195-.214.297-13.676 20.644-24.279 43.114-9.395 67.539 10.686 17.536 26.486 22.869 47.698 22.869 11.237 0 23.997-1.498 38.315-3.472 1.629-.225 3.187-.663 4.648-1.284 2.612 1.123 5.336 1.974 8.128 2.521 6.621 3.673 14.891 5.08 24.754 5.08 13.096 0 28.992-2.464 47.522-5.337.934-.145 1.885-.291 2.828-.437 12.562 13.857 30.694 22.575 50.826 22.575h48.115c20.152 0 38.3-8.736 50.863-22.617 1.056.163 2.112.327 3.155.489 35.958 5.588 61.938 9.627 76.778-3.083.22-.189.427-.388.641-.583 2.157 1.375 4.617 2.31 7.271 2.676 14.32 1.974 27.075 3.472 38.314 3.472 21.209 0 37.013-5.335 47.698-22.87 14.881-24.423 4.277-46.893-9.397-67.537zm-23.074-1.748-51.371 51.37c-.091-37.09-1.173-77.272-14.004-111.835.571-1.249 1.066-2.513 1.504-3.788 23.412 13.289 45.029 29.533 63.82 48.365 4.39 4.399 4.413 11.527.051 15.888zm-347.003-88.285c11.708-17.135 27.353-29.7 47.829-38.412 2.677-1.139 4.731-3.38 5.632-6.146 7.221-22.147 27.729-37.028 51.032-37.028h52.4c23.223 0 43.711 14.815 50.979 36.867.91 2.763 2.969 4.996 5.649 6.126 20.644 8.712 36.385 21.334 48.123 38.586h-.001c4.232 6.22 4.645 13.927 1.104 20.617-3.59 6.785-10.302 10.836-17.954 10.836h-67.994c-5.562 0-10.071 4.509-10.071 10.071v58.26c0 6.089-4.953 11.042-11.041 11.042-6.089 0-11.042-4.953-11.042-11.042v-58.26c0-5.562-4.509-10.071-10.071-10.071h-34.395c-5.562 0-10.071 4.509-10.071 10.071v24.24c0 6.089-4.953 11.042-11.042 11.042-6.088 0-11.041-4.953-11.041-11.042v-24.24c0-5.562-4.509-10.071-10.071-10.071h-41.102c-7.666 0-14.388-4.063-17.979-10.869-3.53-6.686-3.109-14.379 1.127-20.577zm-84.877 74.155c18.714-19.113 40.288-35.626 63.712-49.146.355.953.755 1.898 1.186 2.835-13.599 36.444-14.239 79.091-14.268 116.549l-50.501-50.5c-5.421-5.419-5.479-14.275-.129-19.738zm-16.003 72.935c-6.495-10.66-5.696-21.012 3.597-37.246l48.874 48.873c-35.684 3.944-45.402-.027-52.471-11.627zm89.826 12.459c-.755-.647-3.054-2.617-3.054-9.734 0-34.2.018-72.011 9.455-104.427 6.325 3.975 13.733 6.2 21.504 6.2h21.181v79.893c0 9.779 2.071 19.078 5.774 27.505-24.971 3.83-47.596 6.787-54.86.563zm165.807 20.396h-48.115c-26.723 0-48.464-21.741-48.464-48.464v-42.594c5.533 5.003 12.862 8.055 20.891 8.055 17.195 0 31.184-13.989 31.184-31.184v-14.169h14.253v48.19c0 17.194 13.989 31.184 31.184 31.184 17.194 0 31.183-13.989 31.183-31.184v-48.19h16.348v79.893c0 26.722-21.741 48.463-48.464 48.463zm62.851-21c3.692-8.415 5.755-17.701 5.755-27.464v-79.893h21.433c7.731 0 15.103-2.202 21.406-6.139 9.288 32.317 9.301 70.147 9.301 104.366 0 7.148-2.298 9.117-3.054 9.763-7.247 6.209-29.896 3.207-54.841-.633zm144.669-11.856c-7.343 12.05-17.538 15.871-56.724 11.136l6.821-6.82 44.546-44.547c10.938 17.985 12.242 28.931 5.357 40.231z"/><path d="m285.299 245.179c3.337 0 6.043-2.706 6.043-6.043v-15.261c0-3.337-2.706-6.043-6.043-6.043s-6.043 2.706-6.043 6.043v15.261c.001 3.338 2.706 6.043 6.043 6.043z"/><path d="m329.136 282.346c3.337 0 6.043-2.706 6.043-6.043v-15.261c0-3.337-2.706-6.043-6.043-6.043s-6.043 2.706-6.043 6.043v15.261c0 3.337 2.706 6.043 6.043 6.043z"/></g><g><path d="m335.357 39.613-8.273 23.262c-.354.996-1.055 1.785-1.94 2.184l-20.667 9.311c-2.92 1.316-2.92 5.968 0 7.283l20.667 9.311c.885.399 1.586 1.188 1.94 2.184l8.273 23.262c1.169 3.286 5.302 3.286 6.471 0l8.273-23.262c.354-.996 1.055-1.785 1.94-2.184l20.667-9.311c2.92-1.315 2.92-5.968 0-7.283l-20.667-9.311c-.885-.399-1.586-1.188-1.94-2.184l-8.273-23.262c-1.169-3.286-5.302-3.286-6.471 0z" fill="#ffc8b7"/><path d="m196.347 68.506-6.137 17.255c-.263.739-.783 1.324-1.439 1.62l-15.331 6.907c-2.166.976-2.166 4.427 0 5.402l15.331 6.907c.656.296 1.176.881 1.439 1.62l6.137 17.255c.867 2.438 3.933 2.438 4.8 0l6.137-17.255c.263-.739.783-1.324 1.439-1.62l15.33-6.907c2.166-.976 2.166-4.426 0-5.402l-15.33-6.907c-.656-.296-1.176-.881-1.439-1.62l-6.137-17.255c-.867-2.438-3.933-2.438-4.8 0z" fill="#ffc8b7"/><g fill="#ffa785"><ellipse cx="68.507" cy="175.458" rx="18.064" ry="18.064" transform="matrix(.987 -.16 .16 .987 -27.221 13.239)"/><ellipse cx="418.667" cy="169.486" rx="7.792" ry="7.792" transform="matrix(.987 -.16 .16 .987 -21.743 69.251)"/></g></g></g></svg>