<svg id="Capa_1" enable-background="new 0 0 512 512" height="512" viewBox="0 0 512 512" width="512" xmlns="http://www.w3.org/2000/svg"><g><g><path d="m239.275 95.904c7.089 25.849-11.951 58.52-25.675 62.284s-46.767-14.624-53.856-40.473 7.554-42.257 29.516-48.28c21.962-6.022 42.926.62 50.015 26.469z" fill="#ff8cc0"/><path d="m212.722 69.941-4.549-1.539 3.127-3.645c3.726-4.342 3.226-10.882-1.117-14.608-4.342-3.725-10.883-3.224-14.608 1.116l-8.559 9.976-12.451-4.214c-5.419-1.834-11.299 1.072-13.134 6.492-1.834 5.419 1.072 11.3 6.492 13.134l4.549 1.539-3.127 3.645c-3.726 4.342-3.226 10.882 1.116 14.608 2.714 2.329 6.287 3.007 9.495 2.127 1.924-.528 3.717-1.616 5.113-3.243l8.559-9.976 12.451 4.214c2.032.688 4.128.709 6.052.182 3.208-.88 5.935-3.286 7.082-6.673 1.835-5.421-1.071-11.301-6.491-13.135z" fill="#00ebc4"/><path d="m243.396 362.75h43.272v106.29h-43.272z" fill="#ad84e6"/><path d="m330.316 501.865h-130.568c-10.135 0-18.351-8.216-18.351-18.351 0-8.488 5.822-15.869 14.076-17.846l47.922-11.478h43.525l47.686 11.469c8.247 1.983 14.06 9.36 14.06 17.842v.014c0 10.134-8.216 18.35-18.35 18.35z" fill="#d3b5f2"/><path d="m337.9 137.224c0 35.641-30.777 47.919-68.742 47.919s-76.664-13.063-68.742-47.919c5.419-23.844 68.552-49.111 80.538-60.491 1.967-1.868 5.065-2.158 7.419-.739 14.171 8.549 49.527 32.732 49.527 61.23z" fill="#fff"/><circle cx="204.818" cy="199.409" fill="#c37777" r="56.608"/><circle cx="325.245" cy="199.409" fill="#fff2a5" r="56.608"/><path d="m292.819 392.448h-55.575c-57.298 0-103.747-46.449-103.747-103.747v-68.282h263.069v68.282c0 57.298-46.449 103.747-103.747 103.747z" fill="#d3b5f2"/><path d="m341.888 263.482v11.027c0 45.388-36.795 82.184-82.183 82.184h-44.024c-45.389 0-82.183-36.795-82.183-82.184v14.192c0 57.298 46.449 103.747 103.747 103.747h55.575c57.298 0 103.747-46.449 103.747-103.747v-25.219z" fill="#d088f3"/><path d="m396.566 220.419h-263.069v44.82h82.148c8.319 0 15.064 6.744 15.064 15.064v18.528c0 8.307 6.384 15.456 14.682 15.846 8.86.417 16.174-6.642 16.174-15.41v-15.011c0-10.502 8.514-19.016 19.016-19.016 10.503 0 19.016 8.514 19.016 19.016v49.491c0 8.521 6.908 15.429 15.428 15.429 8.521 0 15.428-6.908 15.428-15.429v-53.444c0-8.32 6.744-15.064 15.064-15.064h51.047v-44.82z" fill="#e79d8e"/><path d="m330.455 333.747v-17.431c-6.652 11.232-15.9 20.736-26.92 27.7 2.825 3.16 6.92 5.16 11.492 5.16 8.52-.001 15.428-6.908 15.428-15.429z" fill="#df768f"/><path d="m341.888 220.419v45.279c1.165-.288 2.377-.459 3.631-.459h51.047v-44.82z" fill="#df768f"/><g fill="#fff"><path d="m188.274 305.575h-18.883c-5.597 0-10.134-4.538-10.134-10.134 0-5.597 4.537-10.134 10.134-10.134h18.883c5.597 0 10.134 4.538 10.134 10.134 0 5.597-4.537 10.134-10.134 10.134z"/><ellipse cx="192.309" cy="179.914" rx="10.134" ry="10.134" transform="matrix(.161 -.987 .987 .161 -16.169 340.814)"/></g></g><g fill="#4e0325"><path d="m396.566 210.285h-5.484c.587-3.541.905-7.172.905-10.877 0-28.809-18.349-53.41-43.973-62.739-.418-33.201-38.134-59.538-54.409-69.355-6.284-3.788-14.356-2.937-19.63 2.068-2.933 2.784-12.535 8.132-21.821 13.305-1.906 1.061-3.784 2.112-5.636 3.156-5.423-12.981-14.817-21.901-26.761-26.017.573-5.219-1.338-10.625-5.615-14.295-6.879-5.901-17.278-5.107-23.182 1.771l-5.885 6.86-8.561-2.898c-8.589-2.906-17.937 1.715-20.843 10.304-1.806 5.338-.692 10.963 2.465 15.16-9.645 11.361-12.83 26.662-8.167 43.665 2.458 8.964 7.694 17.783 14.973 25.525-16.298 12.181-26.867 31.623-26.867 53.489 0 3.705.318 7.335.905 10.877h-5.484c-5.597 0-10.134 4.538-10.134 10.134v68.281c0 61.46 48.942 111.697 109.898 113.804v43.692l-40.148 9.615c-12.865 3.081-21.851 14.472-21.851 27.702 0 15.706 12.778 28.485 28.485 28.485h130.568c15.707 0 28.485-12.779 28.485-28.499 0-13.216-8.975-24.605-21.824-27.695l-40.174-9.662v-43.639c60.956-2.107 109.898-52.343 109.898-113.804v-68.278c.002-5.597-4.536-10.135-10.133-10.135zm-115.984 48.874c-13.838 0-25.097 11.259-25.097 25.096v15.012c0 2.58-1.029 4.983-2.897 6.765-1.866 1.78-4.315 2.685-6.911 2.571-4.9-.23-8.887-4.615-8.887-9.772v-18.528c0-11.66-9.486-21.145-21.145-21.145h-72.014v-28.605h242.8v28.605h-40.913c-11.659 0-21.145 9.485-21.145 21.145v53.443c0 5.155-4.193 9.349-9.347 9.349-5.155 0-9.348-4.193-9.348-9.349v-49.491c.001-13.837-11.257-25.096-25.096-25.096zm7.587-160.65c1.767 10.925 3.372 28.333-.087 45.49-9.865 6.638-17.868 15.837-23.05 26.639-4.282-8.926-10.493-16.753-18.087-22.95 8.282-4.688 15.671-10.648 22.112-17.882 9.521-10.692 15.291-22.174 19.112-31.297zm83.55 100.9c0 3.747-.464 7.385-1.309 10.877h-90.329c-.845-3.491-1.309-7.129-1.309-10.877 0-25.626 20.848-46.474 46.473-46.474s46.474 20.848 46.474 46.474zm-44.362-66.689c-.703-.022-1.404-.053-2.112-.053-8.34 0-16.321 1.551-23.688 4.358 1.81-15.724.32-30.551-1.333-40.525 11.747 9.273 24.719 22.35 27.133 36.22zm-65.34-32.324c6.087-3.391 11.508-6.412 15.995-9.168-5.968 14.995-16.857 36.998-42.695 48.845-6.62-3.416-13.877-5.756-21.547-6.789 9.246-11.16 33.908-24.901 48.247-32.888zm-94.825-34.927c.603-1.782 2.272-2.909 4.057-2.909.453 0 .914.073 1.368.227l12.451 4.214c2.351.794 4.949.083 6.564-1.8l8.559-9.976c1.536-1.79 4.243-1.996 6.034-.461 1.791 1.536 1.998 4.243.461 6.034l-3.127 3.645c-1.315 1.533-1.783 3.619-1.249 5.567s2.001 3.504 3.914 4.152l4.549 1.54h.001c1.083.366 1.958 1.132 2.464 2.157.506 1.024.583 2.184.217 3.268-.456 1.349-1.552 2.38-2.929 2.758-.821.224-1.683.199-2.495-.077l-12.451-4.214c-2.35-.792-4.948-.082-6.564 1.8l-8.558 9.975c-.56.652-1.288 1.115-2.109 1.34-1.379.377-2.846.049-3.926-.877-1.791-1.537-1.998-4.244-.462-6.034l3.127-3.645c1.315-1.533 1.783-3.62 1.249-5.568-.534-1.949-2.002-3.505-3.915-4.152l-4.548-1.539c-2.235-.757-3.439-3.191-2.682-5.425zm2.326 49.566c-1.322-4.818-1.655-9.017-1.261-12.682 2.678 1.743 5.783 2.671 8.947 2.671 1.455 0 2.921-.194 4.361-.589 3.166-.868 5.974-2.647 8.12-5.147l5.885-6.859 8.56 2.898c3.118 1.054 6.44 1.153 9.611.285 4.568-1.253 8.322-4.386 10.388-8.562 1.827 2.447 3.407 5.471 4.646 9.173-20.067 12.358-34.46 24.178-38.032 37.95-2.353.507-4.657 1.144-6.911 1.893-6.414-5.505-12.011-12.632-14.314-21.031zm-11.173 84.374c0-25.626 20.848-46.474 46.474-46.474 25.625 0 46.474 20.848 46.474 46.474 0 3.747-.464 7.385-1.309 10.877h-90.329c-.846-3.492-1.31-7.13-1.31-10.877zm118.189 244.647h-23.004v-41.474h23.004zm61.998 39.459c0 4.531-3.686 8.216-8.216 8.216h-130.568c-4.53 0-8.216-3.686-8.216-8.216 0-3.816 2.591-7.102 6.302-7.991l46.759-11.199h41.127l46.518 11.187c3.705.892 6.294 4.177 6.294 8.003zm-45.713-101.201h-55.575c-51.619 0-93.613-41.994-93.613-93.612v-17.382h72.014c4.953 0 8.983 4.03 8.983 8.983v18.528c0 11.75 8.994 21.379 20.476 21.92 5.954.283 11.583-1.823 15.878-5.919 4.235-4.04 6.664-9.713 6.664-15.565v-15.012c0-7.133 5.803-12.935 12.936-12.935s12.935 5.802 12.935 12.935v49.491c0 11.86 9.649 21.51 21.509 21.51s21.508-9.649 21.508-21.51v-53.443c0-4.953 4.03-8.983 8.983-8.983h40.913v17.381c.002 51.618-41.993 93.613-93.611 93.613z"/><path d="m361.758 289.36c-3.358 0-6.081 2.723-6.081 6.081v15.356c0 3.358 2.723 6.081 6.081 6.081s6.081-2.723 6.081-6.081v-15.356c0-3.358-2.723-6.081-6.081-6.081z"/><path d="m268.637 335.416c-3.358 0-6.081 2.723-6.081 6.081v15.357c0 3.358 2.723 6.081 6.081 6.081s6.081-2.723 6.081-6.081v-15.357c0-3.358-2.723-6.081-6.081-6.081z"/></g><g><path d="m451.235 75.985-8.325 23.408c-.357 1.002-1.062 1.796-1.952 2.198l-20.797 9.37c-2.938 1.324-2.938 6.005 0 7.329l20.797 9.37c.89.401 1.596 1.195 1.952 2.198l8.325 23.408c1.176 3.307 5.335 3.307 6.512 0l8.325-23.408c.356-1.002 1.062-1.796 1.952-2.198l20.797-9.37c2.938-1.324 2.938-6.005 0-7.329l-20.797-9.37c-.891-.401-1.596-1.195-1.952-2.198l-8.325-23.408c-1.177-3.307-5.336-3.307-6.512 0z" fill="#d3b5f2"/><path d="m45.661 133.602-6.175 17.364c-.264.743-.788 1.333-1.448 1.63l-15.427 6.95c-2.179.982-2.179 4.454 0 5.436l15.427 6.95c.66.298 1.184.887 1.448 1.63l6.175 17.364c.872 2.453 3.958 2.453 4.83 0l6.175-17.364c.265-.743.788-1.333 1.448-1.63l15.427-6.95c2.179-.982 2.179-4.454 0-5.436l-15.427-6.95c-.661-.298-1.184-.887-1.448-1.63l-6.175-17.364c-.873-2.453-3.958-2.453-4.83 0z" fill="#d3b5f2"/><g fill="#ad84e6"><ellipse cx="361.759" cy="18.178" rx="18.178" ry="18.178" transform="matrix(.987 -.16 .16 .987 1.759 58.182)"/><circle cx="94.846" cy="75.317" r="7.841"/></g></g></g></svg>