<svg id="Capa_1" enable-background="new 0 0 512 512" height="512" viewBox="0 0 512 512" width="512" xmlns="http://www.w3.org/2000/svg"><g><g><g fill="#ffddb6"><path d="m390.029 306.263h-268.058c-16.53 0-29.93-13.4-29.93-29.93v-1.247c0-16.53 13.4-29.93 29.93-29.93h268.059c16.53 0 29.93 13.4 29.93 29.93v1.247c0 16.53-13.401 29.93-29.931 29.93z"/><path d="m390.029 367.371h-268.058c-16.53 0-29.93-13.4-29.93-29.93v-1.247c0-16.53 13.4-29.931 29.93-29.931h268.059c16.53 0 29.93 13.4 29.93 29.931v1.247c0 16.529-13.401 29.93-29.931 29.93z"/><path d="m390.029 428.478h-268.058c-16.53 0-29.93-13.4-29.93-29.93v-1.247c0-16.53 13.4-29.93 29.93-29.93h268.059c16.53 0 29.93 13.4 29.93 29.93v1.247c0 16.53-13.401 29.93-29.931 29.93z"/></g><path d="m456.713 494.824h-401.427c-24.9 0-45.085-20.185-45.085-45.085v-2.168c0-9.337 7.569-16.907 16.907-16.907h457.783c9.337 0 16.907 7.569 16.907 16.907v2.168c0 24.899-20.185 45.085-45.085 45.085z" fill="#98e8f2"/><path d="m294.931 184.048h-103.038v-47.813c0-11.677 9.466-21.144 21.144-21.144h60.751c11.677 0 21.144 9.466 21.144 21.144v47.813z" fill="#fff2a5"/><path d="m390.029 184.048h-268.058c-16.53 0-29.93 13.4-29.93 29.931v1.246c0 16.53 13.4 29.93 29.93 29.93h91.869v55.202c0 10.307 8.355 18.663 18.663 18.663s18.663-8.356 18.663-18.663v-55.202h60.918v103.553c0 10.307 8.355 18.663 18.663 18.663 10.307 0 18.663-8.356 18.663-18.663v-103.552h40.621c16.53 0 29.93-13.4 29.93-29.93v-1.246c-.001-16.531-13.402-29.932-29.932-29.932z" fill="#ffa785"/><path d="m390.029 245.156c1.12 0 2.223-.067 3.311-.186h-46.571l1.272 118.323 17.35-.439c0 13.779-11.17 24.95-24.95 24.95h-223.451c-7.528 0-14.272-3.339-18.846-8.61-3.828 5.028-6.104 11.301-6.104 18.108v1.246c0 16.53 13.4 29.931 29.93 29.931h268.059c16.53 0 29.93-13.4 29.93-29.931v-1.246c0-16.53-13.4-29.93-29.93-29.93 16.53 0 29.93-13.4 29.93-29.93v-1.247c0-16.53-13.4-29.93-29.93-29.93 16.53 0 29.93-13.4 29.93-29.931v-1.247c.001-16.531-13.4-29.931-29.93-29.931z" fill="#ffa7b8"/><path d="m365.392 208.998v1.039c0 9.474-5.28 17.714-13.057 21.939-4.199 2.281-6.586 6.866-5.794 11.481h53.433c11.641-4.101 19.986-15.189 19.986-28.232v-1.246c0-16.53-13.4-29.93-29.93-29.93h-49.587c13.778-.001 24.949 11.17 24.949 24.949z" fill="#ff7d87"/><ellipse cx="87.419" cy="393.116" fill="#75b7f2" rx="35.362" ry="35.362" transform="matrix(.226 -.974 .974 .226 -315.282 389.295)"/><ellipse cx="202.473" cy="393.116" fill="#75b7f2" rx="35.362" ry="35.362" transform="matrix(.707 -.707 .707 .707 -218.672 258.311)"/><path d="m199.873 224.804c-.086 0-.172-.001-.258-.003-10.047-.251-21.025-.251-30.909 0-5.641.15-10.314-4.309-10.456-9.941-.142-5.633 4.308-10.314 9.941-10.457 10.214-.257 21.554-.257 31.931 0 5.632.141 10.085 4.82 9.945 10.452-.138 5.547-4.678 9.949-10.194 9.949z" fill="#fff"/><path d="m131.579 224.804h-4.144c-5.634 0-10.202-4.568-10.202-10.202s4.567-10.202 10.202-10.202h4.144c5.634 0 10.202 4.568 10.202 10.202s-4.568 10.202-10.202 10.202z" fill="#fff"/></g><path d="m484.891 420.463h-61.267c4.127-6.305 6.537-13.832 6.537-21.915v-1.247c0-11.885-5.198-22.576-13.435-29.93 8.237-7.354 13.435-18.044 13.435-29.93v-1.247c0-11.885-5.198-22.576-13.435-29.93 8.237-7.355 13.435-18.045 13.435-29.931v-1.246c0-11.885-5.198-22.576-13.435-29.93 8.237-7.355 13.435-18.046 13.435-29.931v-1.246c0-22.129-18.003-40.133-40.132-40.133h-84.896v-37.611c0-17.284-14.061-31.346-31.345-31.346h-60.751c-17.284 0-31.346 14.061-31.346 31.346v37.611h-59.721c-22.129 0-40.132 18.004-40.132 40.133v1.246c0 11.885 5.198 22.576 13.435 29.931-8.237 7.354-13.435 18.044-13.435 29.93v1.246c0 11.886 5.198 22.576 13.435 29.931-8.237 7.354-13.435 18.044-13.435 29.93v1.247c0 3.566.474 7.022 1.35 10.315-23.147 2.142-41.334 21.663-41.334 45.36 0 10.254 3.407 19.725 9.144 27.347h-23.889c-14.948 0-27.109 12.161-27.109 27.109v2.168c0 30.485 24.802 55.286 55.287 55.286h401.427c30.485 0 55.287-24.801 55.287-55.286v-2.168c-.001-14.948-12.162-27.109-27.11-27.109zm-307.578-27.347c0-13.873 11.287-25.16 25.16-25.16 13.874 0 25.16 11.287 25.16 25.16s-11.287 25.16-25.16 25.16-25.16-11.287-25.16-25.16zm-12.802 25.16h-39.13c4.798-7.215 7.601-15.865 7.601-25.16 0-5.457-.967-10.691-2.733-15.544h29.394c-1.767 4.853-2.733 10.087-2.733 15.544 0 9.295 2.803 17.945 7.601 25.16zm245.247-20.975v1.247c0 10.878-8.85 19.728-19.729 19.728h-149.593c4.798-7.215 7.601-15.865 7.601-25.16 0-5.457-.967-10.691-2.733-15.544h144.725c10.879.001 19.729 8.85 19.729 19.729zm-148.391-141.943h40.514v40.704h-40.514zm148.391 80.835v1.247c0 10.878-8.85 19.728-19.729 19.728h-31.687c.822-2.677 1.268-5.517 1.268-8.46v-32.243h30.419c10.879 0 19.729 8.85 19.729 19.728zm0-61.107v1.246c0 10.878-8.85 19.729-19.729 19.729h-30.419v-40.704h30.419c10.879.001 19.729 8.851 19.729 19.729zm-207.663-138.851c0-6.033 4.909-10.942 10.942-10.942h60.751c6.033 0 10.942 4.909 10.942 10.942v37.611h-82.634v-37.611zm-99.853 78.99v-1.246c0-10.896 8.833-19.729 19.729-19.729h69.922 103.038 95.098c10.896 0 19.729 8.833 19.729 19.729v1.247c0 10.896-8.833 19.729-19.729 19.729h-40.621-.118c-1.352 0-2.706.225-3.943.769-3.613 1.591-6.141 5.243-6.141 9.432v103.254c0 4.502-3.39 8.439-7.882 8.74-4.926.33-9.04-3.584-9.04-8.441v-103.553c0-5.634-4.568-10.202-10.202-10.202h-.978-60.796c-2.05 0-4.065.685-5.612 2.031-2.279 1.982-3.733 4.994-3.733 8.171v54.903c0 4.502-3.39 8.44-7.882 8.74-4.926.33-9.04-3.585-9.04-8.442v-55.201c0-5.634-4.567-10.202-10.202-10.202h-2.793-89.077c-10.894 0-19.727-8.833-19.727-19.729zm0 61.107v-1.246c0-10.878 8.85-19.728 19.729-19.728h81.668v40.704h-81.668c-10.879-.001-19.729-8.851-19.729-19.73zm106.32 40.133c5.191 7.69 13.985 12.757 23.941 12.757s18.75-5.067 23.941-12.757h45.438v32.243c0 2.943.445 5.783 1.268 8.46h-72.73c-7.723-6.018-17.42-9.616-27.947-9.616s-20.224 3.598-27.947 9.616h-52.556c-10.878 0-19.729-8.85-19.729-19.728v-1.247c0-10.878 8.85-19.728 19.729-19.728zm-121.143 51.492c13.873 0 25.16 11.287 25.16 25.16s-11.287 25.16-25.16 25.16c-13.874 0-25.16-11.287-25.16-25.16s11.286-25.16 25.16-25.16zm404.177 81.782c0 19.234-15.648 34.882-34.883 34.882h-401.426c-19.234 0-34.883-15.648-34.883-34.882v-2.168c0-3.697 3.008-6.705 6.705-6.705h457.783c3.697 0 6.705 3.008 6.705 6.705v2.168z" fill="#4e0325"/><g><path d="m62.728 52.838-8.38 23.564c-.359 1.009-1.069 1.808-1.966 2.212l-20.935 9.432c-2.958 1.333-2.958 6.045 0 7.378l20.935 9.432c.896.404 1.607 1.203 1.966 2.212l8.38 23.564c1.184 3.329 5.371 3.329 6.555 0l8.38-23.564c.359-1.009 1.069-1.808 1.965-2.212l20.936-9.432c2.958-1.332 2.958-6.045 0-7.378l-20.936-9.432c-.896-.404-1.607-1.203-1.965-2.212l-8.38-23.564c-1.184-3.329-5.371-3.329-6.555 0z" fill="#ffc8b7"/><path d="m446.564 71.057-6.216 17.479c-.266.748-.793 1.341-1.458 1.641l-15.53 6.997c-2.194.989-2.194 4.484 0 5.473l15.53 6.997c.665.299 1.192.893 1.458 1.641l6.216 17.479c.878 2.469 3.984 2.469 4.862 0l6.216-17.479c.266-.748.793-1.341 1.458-1.641l15.53-6.997c2.194-.989 2.194-4.484 0-5.473l-15.53-6.997c-.665-.3-1.192-.893-1.458-1.641l-6.216-17.479c-.878-2.469-3.984-2.469-4.862 0z" fill="#ffc8b7"/><g fill="#ffa785"><ellipse cx="337.805" cy="25.273" rx="18.299" ry="18.299" transform="matrix(.995 -.098 .098 .995 -.849 33.289)"/><ellipse cx="191.893" cy="44.358" rx="7.893" ry="7.894" transform="matrix(.987 -.16 .16 .987 -4.622 31.232)"/></g></g></g></svg>