<svg id="Capa_1" enable-background="new 0 0 512 512" height="512" viewBox="0 0 512 512" width="512" xmlns="http://www.w3.org/2000/svg"><g><g><path d="m319.389 501.548h-152.46c-24.994 0-45.255-20.262-45.255-45.255v-292.871c0-24.994 20.261-45.255 45.255-45.255h152.46c24.994 0 45.255 20.261 45.255 45.255v292.872c0 24.993-20.262 45.254-45.255 45.254z" fill="#c37777"/><path d="m121.673 213.264h242.97v193.986h-242.97z" fill="#ffe35c"/><path d="m347.065 118.167h-207.813c-12.318 0-22.304-9.986-22.304-22.304v-13.37c0-12.318 9.986-22.304 22.304-22.304h207.812c12.318 0 22.304 9.986 22.304 22.304v13.37c.001 12.318-9.985 22.304-22.303 22.304z" fill="#ffe35c"/><ellipse cx="243.552" cy="283.049" fill="#00ebc4" rx="35.349" ry="35.349" transform="matrix(.172 -.985 .985 .172 -77.112 474.383)"/><path d="m301.081 373.729h-113.852c-8.098 0-14.662-6.564-14.662-14.662 0-8.098 6.564-14.662 14.662-14.662h113.852c8.098 0 14.663 6.565 14.663 14.662-.001 8.098-6.565 14.662-14.663 14.662z" fill="#ff8cc0"/><path d="m319.389 118.167h-31.447v3.686c21.034.406 37.962 17.572 37.962 38.703v250.594c0 21.386-17.336 38.722-38.722 38.722h-130.453c-15.502 0-28.87-9.113-35.056-22.271v28.691c0 24.994 20.261 45.256 45.255 45.256h152.46c24.994 0 45.255-20.262 45.255-45.256v-292.87c.001-24.994-20.261-45.255-45.254-45.255z" fill="#ba5677"/><path d="m325.904 213.264h38.74v193.986h-38.74z" fill="#ffac62"/><g fill="#fff"><path d="m231.09 169.219c-5.625 0-11.259-.013-16.744-.038-5.772-.027-10.43-4.728-10.404-10.499.027-5.756 4.701-10.404 10.45-10.404h.049c10.908.051 22.404.051 33.247 0 5.805-.031 10.473 4.631 10.5 10.403s-4.631 10.473-10.403 10.5c-5.452.026-11.069.038-16.695.038z"/><path d="m171.399 169.182h-6.689c-5.772 0-10.451-4.679-10.451-10.451s4.679-10.451 10.451-10.451h6.689c5.772 0 10.451 4.679 10.451 10.451 0 5.771-4.679 10.451-10.451 10.451z"/></g></g><g fill="#4e0325"><path d="m379.82 95.862v-13.37c0-18.061-14.694-32.755-32.756-32.755h-207.812c-18.061 0-32.755 14.694-32.755 32.755v13.37c0 13.313 7.988 24.789 19.42 29.907-9.117 9.923-14.695 23.147-14.695 37.653v292.871c0 30.717 24.99 55.707 55.707 55.707h152.46c30.717 0 55.707-24.99 55.707-55.707v-292.871c0-14.506-5.578-27.73-14.695-37.653 11.431-5.118 19.419-16.593 19.419-29.907zm-252.42-13.369c0-6.535 5.317-11.852 11.852-11.852h207.812c6.536 0 11.853 5.317 11.853 11.852v13.37c0 6.536-5.317 11.853-11.853 11.853h-27.676-152.46-27.676c-6.535 0-11.852-5.317-11.852-11.853zm226.792 80.929v42.289h-222.067v-42.289c0-19.191 15.613-34.804 34.804-34.804h152.46c19.19 0 34.803 15.613 34.803 34.804zm-222.067 54.831h222.068v183.209h-222.068zm187.263 272.844h-152.46c-19.191 0-34.804-15.613-34.804-34.804v-42.289h222.068v42.289c0 19.191-15.613 34.804-34.804 34.804z"/><path d="m243.552 324.669c22.949 0 41.62-18.671 41.62-41.62s-18.671-41.62-41.62-41.62-41.619 18.671-41.619 41.62c-.001 22.949 18.669 41.62 41.619 41.62zm0-70.698c16.034 0 29.078 13.044 29.078 29.078s-13.044 29.078-29.078 29.078c-16.033 0-29.078-13.044-29.078-29.078s13.044-29.078 29.078-29.078z"/><path d="m301.081 338.134h-113.852c-11.543 0-20.933 9.39-20.933 20.933s9.39 20.934 20.933 20.934h113.852c11.543 0 20.934-9.391 20.934-20.934-.001-11.543-9.391-20.933-20.934-20.933zm0 29.325h-113.852c-4.627 0-8.391-3.765-8.391-8.392s3.764-8.391 8.391-8.391h113.852c4.627 0 8.392 3.764 8.392 8.391s-3.765 8.392-8.392 8.392z"/><path d="m318.544 236.713c-3.463 0-6.271 2.808-6.271 6.271v15.837c0 3.463 2.808 6.271 6.271 6.271s6.271-2.808 6.271-6.271v-15.837c0-3.464-2.808-6.271-6.271-6.271z"/><path d="m235.379 445.223c-3.463 0-6.271 2.808-6.271 6.271v15.837c0 3.463 2.808 6.271 6.271 6.271s6.271-2.808 6.271-6.271v-15.837c0-3.464-2.808-6.271-6.271-6.271z"/><path d="m294.042 429.386c-3.463 0-6.271 2.808-6.271 6.271v15.837c0 3.463 2.808 6.271 6.271 6.271s6.271-2.808 6.271-6.271v-15.837c-.001-3.463-2.808-6.271-6.271-6.271z"/></g><g><path d="m458.325 99.447-8.585 24.14c-.368 1.034-1.095 1.853-2.014 2.266l-21.448 9.663c-3.03 1.365-3.03 6.193 0 7.558l21.448 9.663c.918.414 1.646 1.233 2.014 2.266l8.585 24.14c1.213 3.41 5.502 3.41 6.715 0l8.585-24.14c.368-1.034 1.095-1.853 2.014-2.266l21.448-9.663c3.03-1.365 3.03-6.193 0-7.558l-21.448-9.663c-.918-.414-1.646-1.233-2.014-2.266l-8.585-24.14c-1.212-3.41-5.502-3.41-6.715 0z" fill="#fff2a5"/><path d="m56.844 1.897-6.368 17.907c-.273.767-.812 1.374-1.494 1.681l-15.91 7.168c-2.248 1.013-2.248 4.594 0 5.607l15.91 7.168c.681.307 1.221.915 1.494 1.681l6.368 17.907c.9 2.53 4.081 2.53 4.981 0l6.369-17.907c.273-.767.812-1.374 1.494-1.681l15.91-7.168c2.248-1.013 2.248-4.594 0-5.607l-15.91-7.168c-.681-.307-1.221-.915-1.494-1.681l-6.369-17.907c-.9-2.529-4.081-2.529-4.981 0z" fill="#fff2a5"/><g fill="#ffe35c"><path d="m12.64 124.748c0 10.353 8.393 18.746 18.746 18.746s18.746-8.393 18.746-18.746-8.393-18.746-18.746-18.747c-10.353.001-18.746 8.394-18.746 18.747z"/><ellipse cx="413.281" cy="31.456" rx="8.087" ry="8.087" transform="matrix(.707 -.707 .707 .707 98.804 301.447)"/></g></g></g></svg>