<svg id="Capa_1" enable-background="new 0 0 512 512" height="512" viewBox="0 0 512 512" width="512" xmlns="http://www.w3.org/2000/svg"><g><g><path d="m345.162 501.732h-189.04c-13.188 0-23.879-10.691-23.879-23.879v-260.434c0-13.188 10.691-23.878 23.879-23.878h189.04c13.188 0 23.879 10.691 23.879 23.878v260.435c-.001 13.187-10.692 23.878-23.879 23.878z" fill="#fff2a5"/><path d="m132.243 253.887v223.966c0 13.188 10.691 23.878 23.878 23.878h189.04c13.188 0 23.879-10.691 23.879-23.878v-223.966z" fill="#fff"/><path d="m132.243 331.138h236.798v110.563h-236.798z" fill="#ffa785"/><path d="m343.198 193.54h-185.113c-14.272 0-25.842-11.57-25.842-25.842v-75.171c0-14.272 11.57-25.842 25.842-25.842h185.114c14.272 0 25.842 11.57 25.842 25.842v75.172c-.001 14.271-11.57 25.841-25.843 25.841z" fill="#ff8cc0"/><path d="m343.198 66.685h-40.418c11.538 0 20.891 9.353 20.891 20.89v60.769c0 11.538-9.353 20.891-20.891 20.891h-149.647c-11.538 0-20.891-9.353-20.891-20.891v19.354c0 14.272 11.57 25.842 25.842 25.842h185.114c14.272 0 25.842-11.57 25.842-25.842v-75.171c0-14.272-11.57-25.842-25.842-25.842z" fill="#ff68c1"/><path d="m345.162 193.54h-38.78c10.786 0 19.529 8.744 19.529 19.53v213c0 10.786-8.744 19.529-19.529 19.529h-154.61c-10.786 0-19.529-8.744-19.529-19.529v51.784c0 13.188 10.691 23.878 23.878 23.878h189.04c13.188 0 23.879-10.691 23.879-23.878v-260.435c0-13.188-10.691-23.879-23.878-23.879z" fill="#ffb7a9"/><path d="m325.911 426.07c0 10.786-8.743 19.529-19.529 19.529h-154.61c-10.786 0-19.529-8.743-19.529-19.529v51.784c0 13.188 10.691 23.879 23.878 23.879h189.04c13.188 0 23.879-10.691 23.879-23.879v-223.967h-43.13v172.183z" fill="#ffc0fe"/><g><path d="m140.101 441.701c-4.762-3.562-7.858-9.228-7.858-15.631v15.631z" fill="#ec28ff" opacity=".3"/><path d="m369.04 331.138h-43.13v94.932c0 6.404-3.096 12.07-7.858 15.631h50.987v-110.563z" fill="#ff7d87"/></g><g fill="#fff"><path d="m163.122 159.619c-5.671 0-10.268-4.597-10.268-10.268v-9.892c0-5.671 4.597-10.268 10.268-10.268s10.268 4.597 10.268 10.268v9.892c0 5.671-4.597 10.268-10.268 10.268z"/><path d="m163.122 115.062c-5.671 0-10.268-4.597-10.268-10.268v-3.758c0-5.671 4.597-10.268 10.268-10.268s10.268 4.597 10.268 10.268v3.758c0 5.67-4.597 10.268-10.268 10.268z"/></g></g><g fill="#4e0325"><path d="m379.308 92.527c0-19.911-16.198-36.11-36.11-36.11h-185.114c-19.911 0-36.11 16.199-36.11 36.11v75.172c0 9.83 3.953 18.75 10.347 25.268-6.376 6.207-10.347 14.872-10.347 24.452v260.435c0 18.829 15.319 34.147 34.147 34.147h189.04c18.829 0 34.147-15.318 34.147-34.147v-260.436c0-9.58-3.971-18.245-10.346-24.452 6.394-6.518 10.346-15.438 10.346-25.268zm-20.536 0v75.172c0 8.587-6.986 15.574-15.574 15.574h-30.411v-106.32h30.411c8.588 0 15.574 6.986 15.574 15.574zm-13.61 111.281c7.505 0 13.61 6.106 13.61 13.61v31.487h-216.261v-31.487c0-7.505 6.106-13.61 13.611-13.61h1.963 185.114zm13.61 121.169h-216.261v-63.75h216.262v63.75zm-216.261 12.322h216.262v98.241h-216.262zm114.291-154.027v-106.319h43.664v106.319zm-12.321 0h-44.689v-106.319h44.689zm-101.97-90.745c0-8.588 6.986-15.574 15.574-15.574h29.385v106.319h-29.385c-8.588 0-15.574-6.986-15.574-15.574zm202.651 398.937h-189.04c-7.505 0-13.611-6.106-13.611-13.61v-29.992h216.262v29.992c-.001 7.504-6.107 13.61-13.611 13.61z"/><path d="m261.972 388.854c-3.402 0-6.161 2.759-6.161 6.161v16.905c0 3.402 2.759 6.161 6.161 6.161s6.161-2.759 6.161-6.161v-16.905c0-3.403-2.759-6.161-6.161-6.161z"/><path d="m301.325 354.743c-3.402 0-6.161 2.759-6.161 6.161v16.905c0 3.402 2.759 6.161 6.161 6.161s6.161-2.758 6.161-6.161v-16.905c0-3.402-2.759-6.161-6.161-6.161z"/></g><g><path d="m469.524 149.235-8.435 23.717c-.361 1.015-1.076 1.82-1.978 2.227l-21.072 9.493c-2.977 1.341-2.977 6.085 0 7.426l21.072 9.493c.902.406 1.617 1.211 1.978 2.227l8.435 23.717c1.192 3.351 5.406 3.351 6.597 0l8.435-23.717c.361-1.015 1.076-1.82 1.978-2.227l21.072-9.493c2.977-1.341 2.977-6.084 0-7.426l-21.072-9.493c-.902-.407-1.617-1.211-1.978-2.227l-8.435-23.717c-1.191-3.351-5.405-3.351-6.597 0z" fill="#ffc5dd"/><path d="m85.064 1.864-6.257 17.593c-.268.753-.798 1.35-1.467 1.652l-15.631 7.042c-2.208.995-2.208 4.513 0 5.508l15.631 7.042c.669.302 1.2.899 1.467 1.652l6.257 17.593c.884 2.485 4.01 2.485 4.894 0l6.257-17.593c.268-.753.798-1.35 1.467-1.652l15.631-7.042c2.208-.995 2.208-4.513 0-5.508l-15.631-7.042c-.669-.302-1.2-.898-1.467-1.652l-6.257-17.593c-.884-2.485-4.01-2.485-4.894 0z" fill="#ffc5dd"/><g fill="#ff8cc0"><path d="m2.162 130.112c0 10.172 8.246 18.417 18.418 18.418 10.172 0 18.417-8.246 18.417-18.418s-8.246-18.418-18.417-18.418c-10.173.001-18.418 8.247-18.418 18.418z"/><path d="m429.323 90.333c0 4.388 3.557 7.945 7.945 7.945s7.945-3.557 7.945-7.945-3.557-7.945-7.945-7.945-7.945 3.557-7.945 7.945z"/></g></g></g></svg>