<svg id="Capa_1" enable-background="new 0 0 512 512" height="512" viewBox="0 0 512 512" width="512" xmlns="http://www.w3.org/2000/svg"><g><g><path d="m78.552 41.386 149.387 43.776c4.359 1.319 6.151 6.516 3.532 10.242l-10.565 15.03 2.08 16.648c.241 1.928-.369 3.866-1.671 5.308l-13.217 14.641.531 16.233c.155 4.757-4.569 8.148-9.026 6.478l-145.128-56.302-44.432-11.576 25.891-77.483z" fill="#a2f4e3"/><path d="m227.939 85.162-41.827-12.257c.054 1.076-.225 2.185-.911 3.161l-8.023 11.414 1.579 12.643c.183 1.464-.28 2.936-1.269 4.032l-10.038 11.119.403 12.328c.118 3.613-3.47 6.188-6.855 4.92l-110.218-42.758-33.744-8.791 18.909-56.587-.01-.004-25.891 77.483 44.432 11.576 145.128 56.302c4.457 1.669 9.181-1.721 9.026-6.478l-.531-16.233 13.217-14.642c1.302-1.442 1.912-3.38 1.671-5.308l-2.08-16.647 10.565-15.03c2.618-3.727.826-8.923-3.533-10.243z" fill="#b0b8e5"/><path d="m433.448 41.386-149.387 43.776c-4.359 1.319-6.151 6.516-3.532 10.242l10.565 15.03-2.08 16.648c-.241 1.928.369 3.866 1.671 5.308l13.217 14.641-.531 16.233c-.155 4.757 4.569 8.148 9.026 6.478l145.128-56.302 44.432-11.576-25.891-77.483z" fill="#a2f4e3"/><path d="m476.066 24.382-36.848 14.702 14.973 44.808-30.318 7.899-99.027 38.417c-3.041 1.139-6.265-1.175-6.159-4.42l.362-11.077-9.019-9.99c-.889-.984-1.305-2.306-1.14-3.622l1.419-11.359-7.151-10.173-19.097 5.596c-4.359 1.32-6.151 6.516-3.532 10.242l10.565 15.03-2.08 16.647c-.241 1.928.369 3.866 1.671 5.308l13.217 14.642-.531 16.233c-.155 4.757 4.569 8.147 9.026 6.478l145.128-56.302 44.432-11.576z" fill="#b0b8e5"/><g fill="#fff"><ellipse cx="232.691" cy="218.531" rx="15.521" ry="15.521" transform="matrix(.16 -.987 .987 .16 -20.291 413.213)"/><circle cx="292.419" cy="262.453" r="15.521"/><ellipse cx="201.648" cy="310.031" rx="15.521" ry="15.521" transform="matrix(.23 -.973 .973 .23 -146.418 435.055)"/><circle cx="255.388" cy="360.805" r="15.521"/><ellipse cx="294.831" cy="422.118" rx="15.521" ry="15.521" transform="matrix(.23 -.973 .973 .23 -183.733 612.079)"/><ellipse cx="180.899" cy="391.847" rx="15.521" ry="15.521" transform="matrix(.383 -.924 .924 .383 -250.348 409.022)"/><path d="m145.601 103.482c-.952 0-1.92-.136-2.88-.423l-17.794-5.317c-5.315-1.588-8.336-7.184-6.748-12.498 1.588-5.315 7.182-8.336 12.498-6.748l17.795 5.318c5.315 1.588 8.335 7.184 6.747 12.498-1.301 4.355-5.294 7.17-9.618 7.17z"/><path d="m95.702 88.569c-.952 0-1.92-.136-2.879-.423l-2.952-.882c-5.314-1.588-8.335-7.184-6.746-12.499 1.588-5.314 7.181-8.336 12.499-6.746l2.95.881c5.314 1.588 8.336 7.183 6.748 12.498-1.303 4.356-5.296 7.171-9.62 7.171z"/></g></g><g fill="#4e0325"><path d="m196.08 179.147c1.909.715 3.898 1.066 5.874 1.066 3.447 0 6.86-1.069 9.747-3.141 4.543-3.262 7.147-8.546 6.964-14.136l-.398-12.183 10.503-11.635c3.26-3.613 4.784-8.453 4.181-13.282l-1.599-12.8 8.335-11.857c3.078-4.379 3.874-10.014 2.129-15.074-1.744-5.059-5.844-9.006-11.053-10.583l-148.931-43.64-42.176-16.828c-2.565-1.023-5.442-.945-7.948.218-2.507 1.163-4.423 3.307-5.299 5.927l-25.891 77.483c-.882 2.638-.63 5.524.696 7.969s3.606 4.231 6.298 4.932l43.871 11.43 144.588 56.092c.036.014.072.029.109.042zm16.61-74.488c-1.435 2.041-2.059 4.544-1.749 7.02l1.889 15.122-12.187 13.499c-1.742 1.93-2.668 4.46-2.583 7.058l.364 11.154-135.138-52.426 17.868-53.473 139.405 40.851zm-170.6-67.008 27.668 11.039-17.938 53.68-28.846-7.515z"/><path d="m511.482 98.682-25.891-77.483c-.876-2.621-2.792-4.765-5.299-5.927-2.507-1.163-5.382-1.241-7.948-.218l-42.177 16.828-149.016 43.668c-5.123 1.551-9.222 5.497-10.967 10.556-1.745 5.06-.949 10.694 2.129 15.074l8.335 11.857-1.6 12.803c-.602 4.826.922 9.666 4.182 13.28l10.502 11.633-.397 12.182c-.183 5.59 2.42 10.874 6.963 14.136 2.888 2.073 6.301 3.142 9.749 3.142 1.976 0 3.965-.351 5.874-1.066.037-.014.074-.027.111-.042l144.587-56.092 43.871-11.43c2.691-.701 4.972-2.487 6.297-4.932 1.325-2.446 1.577-5.331.695-7.969zm-197.906 59.831.365-11.154c.084-2.599-.841-5.129-2.583-7.058l-12.188-13.499 1.89-15.122c.31-2.476-.314-4.979-1.75-7.021l-7.868-11.193 139.405-40.851 17.868 53.472zm146.604-56.143-17.938-53.68 27.669-11.039 19.114 57.204z"/><path d="m254.238 218.531c0-11.881-9.666-21.547-21.547-21.547s-21.547 9.666-21.547 21.547 9.666 21.547 21.547 21.547 21.547-9.666 21.547-21.547zm-21.547 9.496c-5.236 0-9.495-4.26-9.495-9.495 0-5.236 4.26-9.495 9.495-9.495s9.495 4.26 9.495 9.495c.001 5.235-4.259 9.495-9.495 9.495z"/><path d="m292.42 284c11.881 0 21.547-9.666 21.547-21.547s-9.666-21.547-21.547-21.547-21.548 9.666-21.548 21.547 9.667 21.547 21.548 21.547zm0-31.043c5.235 0 9.495 4.26 9.495 9.495s-4.26 9.495-9.495 9.495c-5.236 0-9.496-4.259-9.496-9.495s4.259-9.495 9.496-9.495z"/><path d="m201.649 288.483c-11.881 0-21.547 9.666-21.547 21.547s9.666 21.547 21.547 21.547 21.547-9.666 21.547-21.547-9.666-21.547-21.547-21.547zm0 31.043c-5.236 0-9.495-4.26-9.495-9.495s4.26-9.495 9.495-9.495c5.236 0 9.495 4.259 9.495 9.495s-4.26 9.495-9.495 9.495z"/><path d="m255.387 339.257c-11.881 0-21.547 9.666-21.547 21.547s9.666 21.547 21.547 21.547 21.548-9.666 21.548-21.547-9.666-21.547-21.548-21.547zm0 31.043c-5.236 0-9.495-4.259-9.495-9.495s4.26-9.495 9.495-9.495c5.236 0 9.496 4.26 9.496 9.495s-4.259 9.495-9.496 9.495z"/><path d="m294.831 400.57c-11.881 0-21.547 9.666-21.547 21.547s9.666 21.547 21.547 21.547 21.548-9.666 21.548-21.547-9.667-21.547-21.548-21.547zm0 31.043c-5.235 0-9.495-4.259-9.495-9.495s4.259-9.495 9.495-9.495 9.496 4.259 9.496 9.495-4.26 9.495-9.496 9.495z"/><path d="m180.899 370.3c-11.881 0-21.547 9.666-21.547 21.547s9.666 21.547 21.547 21.547 21.547-9.666 21.547-21.547-9.666-21.547-21.547-21.547zm0 31.043c-5.236 0-9.495-4.259-9.495-9.495s4.26-9.495 9.495-9.495 9.495 4.259 9.495 9.495-4.259 9.495-9.495 9.495z"/></g><g><path d="m419.132 308.786-8.25 23.197c-.353.993-1.053 1.78-1.935 2.178l-20.61 9.285c-2.912 1.312-2.912 5.951 0 7.263l20.61 9.285c.882.398 1.582 1.185 1.935 2.178l8.25 23.197c1.165 3.277 5.287 3.277 6.453 0l8.25-23.197c.353-.993 1.052-1.78 1.935-2.178l20.61-9.285c2.912-1.312 2.912-5.951 0-7.263l-20.61-9.285c-.883-.398-1.582-1.185-1.935-2.178l-8.25-23.197c-1.165-3.277-5.287-3.277-6.453 0z" fill="#a2f4e3"/><path d="m85.046 439.028-6.12 17.207c-.262.737-.781 1.321-1.435 1.616l-15.288 6.888c-2.16.973-2.16 4.414 0 5.388l15.288 6.888c.655.295 1.173.879 1.435 1.615l6.12 17.208c.865 2.431 3.922 2.431 4.786 0l6.12-17.208c.262-.737.781-1.321 1.435-1.615l15.288-6.888c2.16-.973 2.16-4.414 0-5.388l-15.288-6.888c-.655-.295-1.173-.879-1.435-1.616l-6.12-17.207c-.864-2.431-3.921-2.431-4.786 0z" fill="#a2f4e3"/><g fill="#00ebc4"><ellipse cx="95.698" cy="286.79" rx="18.014" ry="18.014" transform="matrix(.993 -.122 .122 .993 -34.324 13.841)"/><path d="m437.793 236.883c0 4.292 3.479 7.771 7.771 7.771s7.771-3.479 7.771-7.771-3.479-7.771-7.771-7.771-7.771 3.479-7.771 7.771z"/></g></g></g></svg>