<svg id="Capa_1" enable-background="new 0 0 512 512" height="512" viewBox="0 0 512 512" width="512" xmlns="http://www.w3.org/2000/svg"><g><g><path d="m359.18 400.75c2.68-6.491 4.167-13.6 4.167-21.06 0-29.36-22.91-53.359-51.827-55.12-.101-15.672-11.418-29.456-27.367-32.166h-.001c-27.714 1.181-61.855-10.572-76.151-22.069-11.393-9.162-9.289-28.081-13.148-39.022-3.281-9.304-15.594-11.872-21.897-4.283-.194.233-.381.474-.561.724-16.531 22.835-37.463 38.376-35.516 64.871.984 13.383 6.74 25.479 15.629 34.55-22.121 7.208-38.112 27.989-38.112 52.516 0 9.235 2.279 17.934 6.286 25.585-16.346 8.572-27.505 25.693-27.505 45.431v.001c0 28.319 22.957 51.276 51.276 51.276h203.182c28.319 0 51.276-22.957 51.276-51.276v-.001c.001-24.349-16.974-44.719-39.731-49.957z" fill="#fff"/><path d="m359.18 400.75c2.68-6.491 4.167-13.6 4.167-21.06 0-29.36-22.91-53.359-51.827-55.12-.101-15.672-11.418-29.456-27.367-32.166-6.703.286-13.781-.191-20.864-1.232 2.053 3.723-.893 14.022-.865 18.454 22.961 1.399 32.855 14.148 32.855 37.46 0 5.924 1.073 8.762-1.055 13.915 24.275 1.279 41.715 23.383 41.715 42.715 0 22.486-18.229 40.715-40.715 40.715h-161.332c-14.365 0-26.983-7.446-34.23-18.683-4.127 7.385-6.484 15.893-6.484 24.956v.001c0 28.319 22.957 51.276 51.276 51.276h203.182c28.319 0 51.276-22.957 51.276-51.276v-.001c0-24.346-16.975-44.715-39.732-49.954z" fill="#ffc0fe"/><path d="m251.865 195.956-16.34-13.683c-5.866-4.912-7.364-13.325-3.554-19.96l40.945-71.313 62.487 52.328-63.312 52.662c-5.864 4.878-14.378 4.864-20.226-.034z" fill="#d3b5f2"/><path d="m491.362 66.152s-33.452 34.558-92.683 53.25c-5.149 1.625-9.887 4.35-13.913 7.949l-7.676 6.862c-14.598 13.051-36.563 13.407-51.576.835l-42.673-35.735c-14.995-12.557-18.513-34.21-8.266-50.869l10.482-17.041c3.949-6.419 5.729-21.385 5.729-21.385h200.575v56.134z" fill="#fff2a5"/><path d="m436.031 10.018v42.183s-25.138 25.969-69.648 40.016c-3.869 1.221-7.43 3.269-10.455 5.972l-5.768 5.157c-10.97 9.809-27.476 10.076-38.757.628l-32.068-26.854c-5.065-4.241-8.38-9.865-9.804-15.906-2.82 13.835 1.945 28.58 13.311 38.099l42.673 35.735c15.013 12.572 36.978 12.216 51.576-.835l7.676-6.862c4.025-3.599 8.763-6.324 13.913-7.949 59.231-18.692 92.683-53.249 92.683-53.249v-56.135z" fill="#ffb7a9"/><g fill="#fff"><path d="m310.488 84.712c-2.792 0-5.569-1.16-7.55-3.428-3.639-4.168-3.211-10.496.956-14.135 1.44-1.257 2.796-2.61 4.033-4.023 3.644-4.162 9.975-4.583 14.137-.939 4.163 3.644 4.583 9.973.939 14.137-1.824 2.083-3.818 4.074-5.929 5.917-1.9 1.657-4.248 2.471-6.586 2.471z"/><path d="m332.143 50.735c-.613 0-1.235-.057-1.86-.174-5.437-1.021-9.018-6.256-7.997-11.695.346-1.842.514-3.297.527-4.576.058-5.496 4.531-9.911 10.015-9.911.036 0 .071 0 .109.001 5.532.059 9.969 4.591 9.91 10.124-.026 2.478-.302 5.04-.87 8.061-.903 4.811-5.108 8.17-9.834 8.17z"/></g></g><g fill="#4e0325"><path d="m371.716 394.315c1.097-4.771 1.649-9.661 1.649-14.626 0-31.552-22.594-58.214-52.805-64.054-3.65-16.806-17.168-30.124-34.73-33.108-.696-.118-1.402-.162-2.104-.133-25.044 1.074-56.696-9.614-69.446-19.867-4.634-3.726-5.827-12.067-6.98-20.133-.699-4.891-1.422-9.948-2.998-14.414-2.758-7.82-9.566-13.59-17.768-15.057-8.112-1.448-16.071 1.429-21.294 7.719-.337.406-.664.827-.959 1.237-3.874 5.351-8.109 10.408-12.204 15.298-13.25 15.819-26.951 32.176-25.188 56.182.786 10.685 4.21 20.968 9.865 29.944-19.795 11.501-32.376 32.762-32.376 56.387 0 7.378 1.269 14.734 3.71 21.674-15.57 11.453-24.928 29.634-24.928 49.342 0 25.006 15.059 46.547 36.577 56.071.389.203.794.377 1.21.528 7.243 3.02 15.182 4.695 23.507 4.695h203.183c33.798 0 61.294-27.496 61.294-61.295-.001-25.051-14.86-46.933-37.215-56.39zm-18.386-14.625c0 5.917-1.133 11.675-3.364 17.118-8.597 19.275-28.096 36.387-57.4 50.709-23.171-7.522-36.891-27.803-39.881-47.056 29.07-14.091 51.063-36.01 64.909-64.979 20.501 4.373 35.736 22.64 35.736 44.208zm-171.327 100.724c-19.22-15.696-24.702-38.045-14.826-61.518 10.214-.151 21.466-.905 33.187-2.687 14.777-2.247 28.473-5.865 41.023-10.793 3.912 18.939 16.283 38.165 36.283 48.794-15.269 6.31-32.664 11.982-52.097 16.941-15.196 3.878-30.077 6.91-43.57 9.263zm-6.329-132.989c5.132 1.008 10.401 1.526 15.785 1.526 8.972 0 18.257-1.405 27.729-4.231 7.476-2.231 14.946-5.308 22.328-9.166 3.659 12.536 13.947 22.983 29.139 29.588-18.607 16.107-42.915 26.552-72.76 31.175-3.636.564-7.231 1.014-10.765 1.375-15.765-13.577-19.864-31.616-11.456-50.267zm125.732-24.717c-5.496 12.62-12.599 23.706-21.292 33.23-15.686-5.475-25.763-15.164-27.711-26.696 11.165-7.093 22.024-15.974 32.291-26.452 9.181 2.508 15.855 10.432 16.712 19.918zm-99.682-44.566c11.329 9.109 33.149 18.303 55.985 22.296-10.313 8.559-21.906 16.082-34.006 21.242-19.109-5.958-31.532-14.73-37.842-26.694-6.961-13.199-6.643-30.963.953-54.114.225 1.389.436 2.858.651 4.359 1.544 10.796 3.466 24.231 14.259 32.911zm-34.288-28.1c2.078-2.481 4.19-5.005 6.302-7.616-6.984 23.936-6.48 43.054 1.491 58.168 5.967 11.314 15.899 20.204 30.089 26.875-15.781 3.134-31.758 1.361-46.35-8.048-7.051-7.527-11.343-17.26-12.098-27.531-1.168-15.901 8.423-27.351 20.566-41.848zm-15.996 88.255c4.044 2.343 8.23 4.298 12.54 5.869-4.972 11.84-5.982 23.768-2.851 35.004 1.957 7.022 5.454 13.604 10.314 19.56-19.811.644-36.105-1.279-43.864-2.447-2.092-5.266-3.164-10.825-3.164-16.593-.001-18.13 10.694-34.242 27.025-41.393zm-28.924 77.484c5.64.93 17.05 2.51 31.816 2.999-8.335 23.661-3.655 46.599 12.672 64.076-19.898 3.007-35.024 4.393-40.762 4.859-13.639-6.74-23.046-20.794-23.046-37.009-.001-14.298 7.33-27.395 19.32-34.925zm225.12 76.183h-122.439c54.116-13.276 114.664-37.068 139.007-79.055 14.845 6.444 24.691 21.067 24.691 37.797-.001 22.75-18.51 41.258-41.259 41.258z"/><path d="m498.329 58.954c-3.976-3.848-10.317-3.745-14.166.231-.316.328-32.336 32.941-88.5 50.664-6.516 2.056-12.429 5.433-17.574 10.034l-7.676 6.862c-10.812 9.667-27.349 9.935-38.467.623l-42.672-35.735c-11.101-9.297-13.752-25.607-6.166-37.94l10.483-17.041c4.982-8.1 7.475-17.407 7.21-26.913-.151-5.436-4.605-9.739-10.009-9.739-.094 0-.189.001-.285.004-5.53.155-9.889 4.763-9.734 10.294.157 5.601-1.313 11.084-4.248 15.856l-10.482 17.041c-8.588 13.962-9.363 30.953-3.263 45.338l-39.498 68.793c-6.236 10.863-3.793 24.585 5.811 32.628l16.34 13.683c4.796 4.016 10.679 6.024 16.566 6.024 5.856-.001 11.714-1.99 16.498-5.969l61.073-50.8c3.692.85 7.464 1.285 11.235 1.285 11.834 0 23.659-4.179 32.962-12.497l7.677-6.863c2.971-2.657 6.516-4.684 10.25-5.863 60.949-19.234 95.428-54.35 96.866-55.835 3.848-3.974 3.744-10.317-.231-14.165zm-232.644 129.335c-2.143 1.781-5.25 1.779-7.389-.014l-3.522-2.95 17.676-20.9c2.143-2.535 1.827-6.328-.707-8.471-2.537-2.143-6.328-1.826-8.471.707l-17.714 20.946-3.599-3.014c-2.146-1.798-2.692-4.865-1.299-7.292l34.992-60.945 44.119 36.946z"/><path d="m396.767 86.92c3.319 0 6.011-2.691 6.011-6.011v-15.18c0-3.319-2.691-6.011-6.011-6.011s-6.011 2.691-6.011 6.011v15.179c0 3.32 2.691 6.012 6.011 6.012z"/><path d="m430.039 55.587c3.319 0 6.011-2.691 6.011-6.011v-15.18c0-3.319-2.691-6.011-6.011-6.011s-6.011 2.691-6.011 6.011v15.18c0 3.32 2.691 6.011 6.011 6.011z"/></g><g><path d="m43.516 87.649-8.229 23.139c-.352.991-1.05 1.776-1.93 2.172l-20.558 9.262c-2.904 1.309-2.904 5.936 0 7.245l20.558 9.262c.88.397 1.578 1.182 1.93 2.172l8.229 23.139c1.162 3.269 5.274 3.269 6.437 0l8.229-23.139c.352-.991 1.05-1.776 1.93-2.172l20.558-9.262c2.904-1.309 2.904-5.936 0-7.245l-20.558-9.262c-.88-.397-1.578-1.182-1.93-2.172l-8.229-23.139c-1.163-3.269-5.275-3.269-6.437 0z" fill="#d3b5f2"/><path d="m172.453 32.515-6.104 17.164c-.261.735-.779 1.317-1.432 1.611l-15.25 6.87c-2.154.971-2.154 4.403 0 5.374l15.25 6.871c.653.294 1.17.877 1.432 1.611l6.104 17.164c.862 2.425 3.912 2.425 4.774 0l6.104-17.164c.261-.735.779-1.317 1.432-1.611l15.25-6.871c2.154-.971 2.154-4.403 0-5.374l-15.25-6.87c-.653-.294-1.17-.877-1.432-1.611l-6.104-17.164c-.862-2.424-3.912-2.424-4.774 0z" fill="#d3b5f2"/><g fill="#ad84e6"><ellipse cx="28.765" cy="300.951" rx="17.969" ry="17.969" transform="matrix(.957 -.29 .29 .957 -85.976 21.249)"/><ellipse cx="132.924" cy="166.492" rx="7.751" ry="7.751" transform="matrix(.23 -.973 .973 .23 -59.654 257.608)"/></g></g></g></svg>