<svg id="Capa_1" enable-background="new 0 0 512 512" height="512" viewBox="0 0 512 512" width="512" xmlns="http://www.w3.org/2000/svg"><g><g><path d="m265.039 79.801h-19.682c-12.455 0-22.552-10.097-22.552-22.552v-24.603c0-12.455 10.097-22.552 22.552-22.552h19.682c12.455 0 22.552 10.097 22.552 22.552v24.603c.001 12.455-10.096 22.552-22.552 22.552z" fill="#e79d8e"/><path d="m291.574 154.718h-72.75c-7.984 0-14.456-6.472-14.456-14.456v-72.75c0-7.983 6.472-14.455 14.456-14.455h72.75c7.983 0 14.456 6.472 14.456 14.455v72.75c-.001 7.984-6.473 14.456-14.456 14.456z" fill="#e79d8e"/><path d="m363.931 233.566c0-71.619-48.681-129.678-108.733-129.678-60.051 0-108.732 58.059-108.732 129.678 0 20.215 3.881 39.348 10.8 56.401 6.558 16.162 6.558 34.195 0 50.357-6.92 17.052-10.8 36.185-10.8 56.4 0 43.296 17.794 81.629 45.132 105.182h127.201c27.338-23.553 45.132-61.886 45.132-105.182 0-20.215-3.881-39.348-10.801-56.4-6.558-16.162-6.558-34.195 0-50.357 6.92-17.053 10.801-36.186 10.801-56.401z" fill="#c37777"/><path d="m157.266 340.323c-3.531 8.7-6.264 17.944-8.101 27.596h212.066c-1.836-9.651-4.57-18.895-8.101-27.596-6.558-16.162-6.558-34.195 0-50.357 6.92-17.052 10.801-36.185 10.801-56.401 0-3.946-.156-7.848-.446-11.704h-216.573c-.289 3.856-.446 7.758-.446 11.704 0 20.216 3.881 39.349 10.801 56.401 6.558 16.162 6.558 34.195-.001 50.357z" fill="#ffc5dd"/><path d="m353.13 289.967c6.92-17.053 10.801-36.186 10.801-56.402 0-71.619-48.681-129.678-108.733-129.678-3.017 0-6.003.153-8.958.441 46.732 4.947 83.374 51.753 83.374 108.774 0 17.026-3.269 33.14-9.096 47.501-5.514 13.588-5.514 28.821 0 42.408 5.828 14.362 9.097 30.476 9.097 47.502 0 26.481-7.904 50.758-21.05 69.663-8.304 11.942-22.053 18.921-36.599 18.921h-67.842c-14.617 0-28.396-7.067-36.717-19.084-9.324-13.466-15.992-29.644-19.053-47.394-1.232 7.812-1.887 15.866-1.887 24.105 0 43.296 17.794 81.629 45.132 105.182h127.201c27.338-23.553 45.132-61.887 45.132-105.182 0-20.216-3.881-39.349-10.801-56.402-6.559-16.161-6.559-34.194-.001-50.355z" fill="#ba5677"/><path d="m363.931 233.565c0-3.946-.156-7.848-.446-11.704h-34.168c-.919 13.794-3.981 26.868-8.799 38.741-5.514 13.588-5.514 28.82 0 42.408 5.828 14.362 9.097 30.476 9.097 47.502 0 5.927-.417 11.735-1.179 17.406h32.796c-1.836-9.651-4.57-18.895-8.101-27.596-6.558-16.162-6.558-34.195 0-50.357 6.919-17.051 10.8-36.184 10.8-56.4z" fill="#ff94de"/><g fill="#fff"><path d="m192.596 204.486c-1.248 0-2.516-.233-3.745-.724-5.176-2.07-7.695-7.944-5.625-13.12 4.362-10.911 10.44-20.93 18.065-29.78 3.64-4.224 10.012-4.698 14.236-1.058 4.223 3.639 4.697 10.012 1.059 14.236-6.166 7.156-11.083 15.263-14.615 24.097-1.577 3.947-5.369 6.349-9.375 6.349z"/><path d="m233.415 157.342c-3.54 0-6.974-1.865-8.823-5.176-2.718-4.868-.975-11.016 3.893-13.734 1.735-.969 3.218-1.721 4.668-2.367 5.09-2.271 11.059.015 13.332 5.106 2.271 5.091-.015 11.06-5.106 13.331-.886.395-1.855.89-3.051 1.558-1.558.869-3.247 1.282-4.913 1.282z"/><path d="m232.069 300.69-22.885 29.647c-11.625 15.06-.89 36.908 18.135 36.908h45.77c19.025 0 29.761-21.848 18.135-36.908l-22.884-29.647c-9.172-11.88-27.099-11.88-36.271 0z"/></g><path d="m269.865 333.85v-12.026h14.788l-16.313-21.134c-4.011-5.195-9.696-8.119-15.591-8.77v-68.397h-22.406v79.373h.025l-16.468 21.333h33.287v9.621c0 6.263 5.077 11.339 11.339 11.339 6.263 0 11.339-5.077 11.339-11.339z" fill="#c37777"/><path d="m290.218 272.342c-5.974 0-10.818-4.843-10.818-10.818v-38.001h21.635v38.001c0 5.975-4.843 10.818-10.817 10.818z" fill="#c37777"/></g><g fill="#4e0325"><path d="m362.483 293.762c7.659-18.872 11.542-39.125 11.542-60.196 0-50.892-23.247-95.513-57.902-119.958v-46.096c0-11.427-7.848-21.055-18.437-23.779v-11.087c0-18.001-14.645-32.646-32.647-32.646h-19.682c-18.001 0-32.647 14.645-32.647 32.646v11.087c-10.59 2.724-18.438 12.352-18.438 23.78v46.097c-34.655 24.445-57.901 69.065-57.901 119.957 0 21.07 3.883 41.323 11.54 60.196 5.596 13.789 5.596 28.977 0 42.766-7.657 18.873-11.54 39.126-11.54 60.196 0 44.411 18.182 86.59 48.637 112.83 1.833 1.578 4.171 2.447 6.589 2.447h127.201c2.418 0 4.756-.868 6.589-2.447 30.455-26.239 48.638-68.418 48.638-112.83 0-21.071-3.883-41.324-11.541-60.196-5.595-13.79-5.595-28.978-.001-42.767zm-195.863-7.591c-6.676-16.451-10.06-34.15-10.06-52.605 0-1.334.025-2.662.061-3.986h67.665v71.283l-19.896 25.773c-6.8 8.809-7.975 20.486-3.068 30.474.709 1.443 1.528 2.803 2.438 4.079h-42.763c1.5-5.818 3.369-11.517 5.622-17.07 7.583-18.684 7.583-39.264.001-57.948zm85.463 11.769c4.57.505 8.641 2.796 11.463 6.451l10.669 13.822h-3.301c-3.345 0-6.056 2.712-6.056 6.057v10.29c0 3.217-2.617 5.835-5.835 5.835-3.217 0-5.834-2.618-5.834-5.835v-10.29c0-3.345-2.712-6.057-6.057-6.057h-20.937l8.967-11.616c.926-1.201 1.347-2.678 1.237-4.138v-72.879h10.292v62.34c0 3.087 2.323 5.681 5.392 6.02zm-39.889 53.828c-2.898-5.899-2.232-12.527 1.785-17.73l2.865-3.712h24.23v4.233c0 9.897 8.051 17.948 17.947 17.948s17.948-8.051 17.948-17.948v-4.233h6.594l2.865 3.711v.001c4.017 5.202 4.683 11.831 1.785 17.729-2.898 5.899-8.553 9.421-15.126 9.421h-45.77c-6.57.001-12.225-3.521-15.123-9.42zm83.825-25.132-22.886-29.647c-3.708-4.804-8.678-8.238-14.329-9.976v-57.433h14.539v31.945c0 9.304 7.57 16.874 16.875 16.874s16.874-7.57 16.874-16.874v-31.945h46.684c.036 1.324.061 2.652.061 3.986 0 18.456-3.385 36.155-10.061 52.605-7.581 18.684-7.581 39.263.001 57.948 2.253 5.553 4.122 11.251 5.622 17.07h-52.75c.91-1.275 1.729-2.636 2.438-4.079 4.907-9.988 3.732-21.664-3.068-30.474zm-10.562-97.056h9.523v31.945c0 2.625-2.136 4.761-4.761 4.761s-4.761-2.136-4.761-4.761v-31.945zm-40.099-209.391h19.682c6.87 0 12.458 5.588 12.458 12.458v10.316h-44.598v-10.317c-.001-6.869 5.588-12.457 12.458-12.457zm-30.896 47.323c0-2.405 1.957-4.361 4.362-4.361h72.75c2.404 0 4.361 1.957 4.361 4.361v34.743c-12.712-5.473-26.432-8.463-40.736-8.463s-28.025 2.989-40.737 8.463zm40.737 46.47c49.886 0 91.235 45.133 97.741 103.485h-195.483c6.506-58.353 47.856-103.485 97.742-103.485zm59.75 377.829h-119.502c-24.413-22.604-38.887-57.843-38.887-95.088 0-7.962.633-15.781 1.885-23.421h193.505c1.252 7.64 1.885 15.46 1.885 23.421.002 37.245-14.472 72.485-38.886 95.088z"/><path d="m257.743 395.676c-3.345 0-6.057 2.712-6.057 6.057v15.296c0 3.345 2.712 6.056 6.057 6.056s6.057-2.712 6.057-6.056v-15.296c-.001-3.345-2.712-6.057-6.057-6.057z"/><path d="m295.587 419.677c-3.345 0-6.056 2.712-6.056 6.057v15.296c0 3.345 2.712 6.057 6.056 6.057 3.345 0 6.057-2.712 6.057-6.057v-15.296c0-3.345-2.712-6.057-6.057-6.057z"/></g><g><g fill="#ffc5dd"><path d="m87.64 53.521-8.292 23.315c-.355.998-1.058 1.789-1.945 2.189l-20.715 9.333c-2.927 1.319-2.927 5.981 0 7.3l20.715 9.333c.887.4 1.59 1.191 1.945 2.189l8.292 23.315c1.171 3.294 5.314 3.294 6.486 0l8.292-23.315c.355-.998 1.058-1.789 1.945-2.189l20.715-9.333c2.927-1.318 2.927-5.981 0-7.3l-20.715-9.333c-.887-.4-1.59-1.191-1.945-2.189l-8.292-23.315c-1.172-3.294-5.315-3.294-6.486 0z"/><path d="m461.708 181.377-6.151 17.295c-.263.74-.785 1.327-1.443 1.624l-15.366 6.923c-2.171.978-2.171 4.437 0 5.415l15.366 6.923c.658.296 1.179.883 1.443 1.624l6.151 17.295c.869 2.443 3.942 2.443 4.811 0l6.151-17.295c.263-.74.785-1.327 1.442-1.624l15.366-6.923c2.171-.978 2.171-4.437 0-5.415l-15.366-6.923c-.658-.296-1.179-.883-1.442-1.624l-6.151-17.295c-.87-2.443-3.943-2.443-4.811 0z"/><path d="m71.911 273.146-6.151 17.295c-.263.74-.785 1.327-1.443 1.624l-15.366 6.923c-2.171.978-2.171 4.437 0 5.415l15.366 6.923c.658.296 1.179.883 1.443 1.624l6.151 17.295c.869 2.443 3.942 2.443 4.811 0l6.151-17.295c.263-.74.785-1.327 1.443-1.624l15.366-6.923c2.171-.978 2.171-4.437 0-5.415l-15.366-6.923c-.658-.296-1.179-.883-1.443-1.624l-6.151-17.295c-.869-2.443-3.942-2.443-4.811 0z"/></g><ellipse cx="413.171" cy="79.801" fill="#ff8cc0" rx="18.106" ry="18.106" transform="matrix(.987 -.16 .16 .987 -7.448 67.213)"/><ellipse cx="28.705" cy="187.355" fill="#ff8cc0" rx="7.81" ry="7.81" transform="matrix(.987 -.16 .16 .987 -29.64 7.017)"/></g></g></svg>