<svg id="Capa_1" enable-background="new 0 0 512 512" height="512" viewBox="0 0 512 512" width="512" xmlns="http://www.w3.org/2000/svg"><g><g><g fill="#e79d8e"><ellipse cx="352.35" cy="308.52" rx="149.397" ry="58.664"/><ellipse cx="352.349" cy="194.376" rx="119.948" ry="53.458"/><path d="m501.747 308.52-29.45-114.144h-239.895l-29.45 114.144"/></g><path d="m498.683 296.646-26.386-102.27c0-29.524-53.702-53.458-119.948-53.458-5.095 0-10.115.143-15.043.417 47.213 2.926 83.56 20.986 83.56 42.832l21.348 82.742c1.624 3.103 2.478 6.315 2.478 9.606 0 26.213-54.115 47.462-120.87 47.462-54.988 0-101.394-14.42-116.046-34.155l-1.76 6.822c-2.007 3.835-3.063 7.806-3.063 11.874 0 32.399 66.887 58.664 149.397 58.664s149.397-26.265 149.397-58.664c0-4.066-1.056-8.037-3.064-11.872z" fill="#df768f"/><ellipse cx="159.65" cy="429.903" fill="#e79d8e" rx="149.397" ry="58.664"/><ellipse cx="159.65" cy="315.759" fill="#e79d8e" rx="119.948" ry="53.458"/><path d="m309.047 429.903-29.45-114.144h-239.895l-29.449 114.144" fill="#e79d8e"/><path d="m194.255 315.403c-.509 0-1.022-.038-1.54-.116-14.528-2.188-29.359-2.725-44.08-1.6-5.626.441-10.573-3.794-11.005-9.44-.433-5.646 3.795-10.573 9.441-11.005 16.257-1.244 32.642-.65 48.697 1.768 5.599.844 9.455 6.066 8.612 11.666-.764 5.081-5.137 8.726-10.125 8.727z" fill="#fff"/><path d="m93.227 325.986c-3.941 0-7.699-2.285-9.389-6.124-2.282-5.182.07-11.233 5.253-13.515 3.375-1.486 7.07-2.856 11.295-4.189 5.398-1.706 11.158 1.292 12.863 6.693 1.703 5.4-1.294 11.159-6.693 12.863-3.507 1.106-6.517 2.219-9.203 3.401-1.344.59-2.746.871-4.126.871z" fill="#fff"/><path d="m305.983 418.029-23.728-91.97c-2.605 3.014-5.301 5.892-8.024 8.595-8.03 7.972-18.083 15.992-29.224 19.227l12.198 47.278c1.676 3.202 2.558 6.519 2.558 9.915 0 27.056-55.855 48.988-124.755 48.988-61.078 0-111.898-17.236-122.651-39.997-1.376 3.199-2.104 6.484-2.104 9.836 0 32.399 66.887 58.664 149.397 58.664s149.397-26.265 149.397-58.664c0-4.066-1.056-8.037-3.064-11.872z" fill="#df768f"/></g><g fill="#4e0325"><path d="m511.99 308.886c.001-.122.01-.244.01-.366 0-.114-.009-.226-.011-.34-.003-.081-.003-.161-.008-.242-.087-5.076-1.309-10.016-3.608-14.773l-25.86-100.226c-.736-17.996-15.288-34.19-41.175-45.727-23.939-10.669-55.543-16.546-88.989-16.546-33.445 0-65.049 5.876-88.99 16.546-25.888 11.538-40.44 27.731-41.176 45.728l-16.272 63.07c-14.57-2.591-30.198-3.961-46.262-3.961-33.446 0-65.05 5.876-88.989 16.545-25.888 11.538-40.44 27.731-41.175 45.728l-25.862 100.24c-2.287 4.738-3.507 9.659-3.6 14.713-.007.112-.009.223-.012.335-.001.098-.011.195-.011.293 0 .122.009.244.01.366.003.065.002.131.005.196.329 19.951 18.137 37.854 50.247 50.463 29.382 11.538 68.23 17.892 109.387 17.892s80.004-6.354 109.387-17.892c32.11-12.609 49.918-30.513 50.247-50.463.004-.065.003-.131.005-.196.001-.122.01-.244.01-.366 0-.094-.01-.187-.01-.281-.004-.12-.006-.239-.014-.359-.095-5.061-1.311-9.991-3.607-14.734l-10.319-39.995c15.025 1.896 30.822 2.903 47 2.903 41.157 0 80.005-6.354 109.387-17.892 32.111-12.609 49.919-30.513 50.248-50.463.005-.066.004-.131.007-.196zm-240.283-142.945c21.37-9.524 50.009-14.769 80.642-14.769s59.272 5.245 80.642 14.769c18.192 8.108 29.053 18.738 29.053 28.436 0 9.697-10.861 20.327-29.053 28.435-21.37 9.524-50.009 14.77-80.642 14.77s-59.271-5.245-80.642-14.77c-18.192-8.108-29.053-18.738-29.053-28.435.001-9.698 10.861-20.328 29.053-28.436zm-192.699 121.383c21.37-9.524 50.009-14.769 80.642-14.769s59.272 5.245 80.642 14.769c18.192 8.108 29.053 18.738 29.053 28.435s-10.861 20.327-29.053 28.435c-21.37 9.525-50.009 14.77-80.642 14.77s-59.272-5.245-80.642-14.77c-18.192-8.108-29.053-18.738-29.053-28.435s10.861-20.327 29.053-28.435zm80.642 190.99c-78.347 0-137.209-24.737-139.096-47.298l22.253-86.251c6.835 6.824 16.194 12.964 27.853 18.16 23.939 10.669 55.543 16.546 88.989 16.546s65.05-5.876 88.99-16.546c11.659-5.196 21.018-11.336 27.853-18.16l22.253 86.251c-1.887 22.561-60.748 47.298-139.095 47.298zm192.699-121.383c-18.817 0-36.502-1.431-52.551-3.913l-9.984-38.696c-.736-17.997-15.288-34.19-41.175-45.728-6.966-3.105-14.598-5.79-22.719-8.057l9.586-37.156c6.835 6.824 16.194 12.964 27.853 18.16 23.94 10.669 55.544 16.545 88.99 16.545s65.05-5.876 88.989-16.545c11.659-5.196 21.018-11.336 27.853-18.16l22.254 86.252c-1.887 22.561-60.748 47.298-139.096 47.298z"/><path d="m246.344 393.393c-3.397 0-6.152 2.755-6.152 6.152v15.537c0 3.397 2.755 6.152 6.152 6.152s6.152-2.754 6.152-6.152v-15.537c0-3.398-2.754-6.152-6.152-6.152z"/><path d="m200.174 423.751c-3.397 0-6.152 2.755-6.152 6.152v15.537c0 3.397 2.755 6.152 6.152 6.152s6.152-2.755 6.152-6.152v-15.537c0-3.398-2.755-6.152-6.152-6.152z"/><path d="m421.75 278.804c-3.397 0-6.152 2.755-6.152 6.152v15.536c0 3.397 2.754 6.152 6.152 6.152 3.397 0 6.152-2.755 6.152-6.152v-15.536c0-3.398-2.755-6.152-6.152-6.152z"/></g><g><path d="m89.928 113.683-8.422 23.682c-.361 1.014-1.074 1.818-1.975 2.223l-21.041 9.479c-2.973 1.339-2.973 6.075 0 7.415l21.041 9.479c.901.406 1.615 1.209 1.975 2.223l8.422 23.682c1.19 3.346 5.398 3.346 6.588 0l8.422-23.682c.361-1.014 1.074-1.817 1.975-2.223l21.04-9.479c2.973-1.339 2.973-6.075 0-7.415l-21.04-9.479c-.901-.406-1.615-1.21-1.975-2.223l-8.422-23.682c-1.19-3.346-5.398-3.346-6.588 0z" fill="#ffc8b7"/><path d="m278.039 15.041-6.247 17.567c-.268.752-.797 1.348-1.465 1.649l-15.608 7.032c-2.205.994-2.205 4.507 0 5.5l15.608 7.032c.668.301 1.198.897 1.465 1.649l6.247 17.567c.883 2.482 4.004 2.482 4.886 0l6.248-17.567c.267-.752.797-1.348 1.465-1.649l15.608-7.032c2.205-.993 2.205-4.507 0-5.5l-15.608-7.032c-.668-.301-1.198-.897-1.465-1.649l-6.248-17.567c-.883-2.481-4.004-2.481-4.886 0z" fill="#ffc8b7"/><g fill="#ffa785"><ellipse cx="143.763" cy="36.106" rx="18.39" ry="18.39" transform="matrix(.973 -.23 .23 .973 -4.45 33.996)"/><circle cx="458.169" cy="58.634" r="7.933"/></g></g></g></svg>