<svg id="Capa_1" enable-background="new 0 0 512 512" height="512" viewBox="0 0 512 512" width="512" xmlns="http://www.w3.org/2000/svg"><g><g><path d="m123.779 498.815c-8.863-5.368-11.696-16.904-6.327-25.767l110.37-182.219 32.094 19.44-110.37 182.219c-5.369 8.862-16.905 11.695-25.767 6.327z" fill="#98e8f2"/><path d="m428.123 232.085s66.056-27.449 73.11-92.576-44.124-103.36-44.124-103.36c-30.518-18.485-69.165-26.844-96.781-10.051-46.296-30.364-93.007-14.785-116.737 32.905-28.868-2.773-54.474 4.87-69.992 30.491-12.891 21.283-7.057 48.66.318 63.37-5.431 5.398-10.304 11.502-14.435 18.322l-8.022 13.245c-28.45 46.97-11.815 109.091 37.154 138.751l66.042 40.002c48.969 29.661 111.729 15.629 140.179-31.341l8.022-13.245c17.592-29.046 25.266-86.513 25.266-86.513z" fill="#ffc5dd"/><path d="m457.109 36.148c-12.492-7.567-26.346-13.432-40.249-16.575 3.071 1.531 6.081 3.183 9.001 4.951s43.377 32.406 37.398 87.606c-5.979 55.201-61.966 78.466-61.966 78.466s-6.504 48.709-21.415 73.327l-6.8 11.226c-24.113 39.811-77.307 51.703-118.812 26.564l-55.976-33.905c-33.102-20.051-48.746-57.599-41.5-92.178l-5.33 8.8c-28.45 46.97-11.815 109.091 37.154 138.751l66.042 40.002c48.969 29.66 111.729 15.629 140.179-31.341l8.022-13.245c17.593-29.046 25.266-86.514 25.266-86.514s66.056-27.449 73.11-92.576c7.054-65.126-44.124-103.359-44.124-103.359z" fill="#ff94de"/><g fill="#fff"><path d="m213.502 132.358c-1.957 0-3.935-.567-5.675-1.75-4.62-3.139-5.819-9.429-2.679-14.049 2.402-3.533 5.195-6.828 8.3-9.794 4.039-3.855 10.44-3.709 14.297.331s3.709 10.441-.331 14.298c-2.075 1.981-3.939 4.18-5.539 6.535-1.956 2.878-5.136 4.429-8.373 4.429z"/><path d="m264.436 110.192c-2.973-.027-4.766-.532-6.966-.947-5.491-1.023-9.112-6.304-8.089-11.794 1.023-5.491 6.31-9.116 11.794-8.088.241.045.481.091.72.139 8.427-12.139 17.444-24.379 32.048-32.259 4.915-2.652 11.049-.818 13.702 4.098 2.652 4.916.818 11.05-4.098 13.702-11.27 6.081-18.39 16.377-26.635 28.3-.593.849-1.331 2.007-2.079 2.717-3.282 3.281-7.104 4.132-10.397 4.132z"/></g></g><g fill="#4e0325"><path d="m490.206 57.759c-11.385-16.914-24.143-27.782-27.873-30.237l.015-.024c-28.331-17.161-69.114-28.98-101.682-13.097-22.722-13.371-46.207-17.29-68.258-11.324-22.197 6.007-41.41 22.018-54.663 45.386-32.65-1.36-57.739 10.929-72.796 35.79-13.806 22.795-9.274 50.059-2.964 66.533-4.174 4.73-7.911 9.808-11.154 15.16l-8.022 13.245c-31.293 51.664-13.096 120.138 40.564 152.64l5.699 3.451-80.271 132.526c-8.249 13.617-3.881 31.407 9.737 39.656 4.665 2.826 9.817 4.17 14.911 4.17 9.773 0 19.322-4.955 24.745-13.908l80.271-132.526 10.949 6.632c18.973 11.492 39.87 16.97 60.353 16.97 37.445 0 73.486-18.325 93.715-51.722l8.022-13.245c15.366-25.369 23.376-69.4 25.823-84.9 16.836-8.445 67.488-38.602 73.958-98.339 3.147-29.03-4.144-57.675-21.079-82.837zm-313.495 370.36-7.247-21.423 17.506-28.901 7.247 21.423zm-23.551 38.883-7.248-21.423 15.332-25.313 7.247 21.423zm-24.143 23.164c-1.976-1.197-3.368-3.091-3.919-5.335s-.195-4.567 1.002-6.543l11.591-19.137 7.247 21.423-4.043 6.676c-2.469 4.078-7.799 5.386-11.878 2.916zm73.42-104.52-7.247-21.423 11.183-18.462 14.795 8.961zm288.742-247.227c-6.291 58.079-66.079 83.963-66.951 84.332-3.317 1.384-5.652 4.429-6.13 7.992-.074.554-7.611 55.735-23.893 82.615l-8.022 13.245c-16.432 27.13-45.776 41.984-76.374 41.983-16.912-.001-34.21-4.54-49.915-14.053l-66.042-40.002c-44.121-26.724-59.258-82.737-33.742-124.862l8.022-13.245c3.587-5.922 7.932-11.436 12.914-16.39 3.098-3.079 3.868-7.799 1.911-11.704-5.197-10.364-12.032-34.905-.708-53.599 10.632-17.554 27.136-26.168 50.279-26.168 3.235 0 6.601.168 10.097.504 4.181.398 8.155-1.812 10.021-5.562 10.647-21.397 26.644-35.925 45.044-40.905 18.001-4.87 37.743-.738 57.092 11.952 3.263 2.141 7.466 2.213 10.8.185 25.47-15.489 60.912-5.163 85.794 9.762 2.019 1.606 12.663 10.418 22.445 25.141 14.154 21.302 19.994 44.443 17.358 68.779z"/><path d="m265.607 269.012c-2.904-1.675-6.613-.68-8.289 2.221l-8.325 14.419c-1.675 2.902-.681 6.613 2.221 8.289.956.552 1.999.814 3.028.814 2.098 0 4.137-1.088 5.261-3.035l8.325-14.419c1.675-2.902.682-6.613-2.221-8.289z"/><path d="m338.669 269.012c-2.904-1.675-6.613-.68-8.289 2.221l-8.324 14.419c-1.675 2.902-.681 6.613 2.221 8.289.956.552 1.999.814 3.028.814 2.098 0 4.137-1.088 5.261-3.035l8.324-14.419c1.675-2.902.682-6.613-2.221-8.289z"/><path d="m409.289 146.695c-2.904-1.674-6.614-.679-8.289 2.221l-8.324 14.419c-1.675 2.902-.681 6.613 2.221 8.289.956.552 1.999.814 3.028.814 2.098 0 4.137-1.088 5.261-3.035l8.324-14.419c1.675-2.903.681-6.613-2.221-8.289z"/></g><g><path d="m33.207 84.045-8.307 23.358c-.356 1-1.06 1.793-1.948 2.193l-20.753 9.35c-2.932 1.321-2.932 5.992 0 7.313l20.753 9.35c.889.4 1.593 1.193 1.948 2.193l8.307 23.358c1.174 3.3 5.324 3.3 6.497 0l8.307-23.358c.356-1 1.06-1.793 1.948-2.193l20.752-9.35c2.932-1.321 2.932-5.992 0-7.313l-20.752-9.35c-.889-.4-1.593-1.193-1.948-2.193l-8.307-23.358c-1.173-3.3-5.324-3.3-6.497 0z" fill="#ffc5dd"/><path d="m70.501 305.754-6.162 17.326c-.264.742-.786 1.33-1.445 1.627l-15.394 6.936c-2.175.98-2.175 4.445 0 5.425l15.394 6.935c.659.297 1.181.885 1.445 1.627l6.162 17.327c.87 2.448 3.949 2.448 4.82 0l6.162-17.327c.264-.742.786-1.33 1.445-1.627l15.394-6.935c2.175-.98 2.175-4.445 0-5.425l-15.394-6.936c-.659-.297-1.181-.885-1.445-1.627l-6.162-17.326c-.871-2.448-3.95-2.448-4.82 0z" fill="#ffc5dd"/><g fill="#ff8cc0"><circle cx="118.438" cy="18.75" r="18.139"/><path d="m60.936 214.177c0 4.321 3.503 7.824 7.824 7.824s7.825-3.503 7.825-7.824c0-4.322-3.503-7.825-7.825-7.825-4.321 0-7.824 3.503-7.824 7.825z"/></g></g></g></svg>