<svg id="Capa_1" enable-background="new 0 0 512 512" height="512" viewBox="0 0 512 512" width="512" xmlns="http://www.w3.org/2000/svg"><g><g><path d="m124.16 281.618h336.92c5.449-5.951 8.042-53.911 8.042-53.911 1.761-22.792-18.024-64.013-50.476-76.114 0 0-11.337-49.205-52.528-62.285-45.583-14.474-74.606 11.795-74.606 11.795-58.787-1.624-90.88 14.691-125.009 55.854-2.58-.486-5.253-.746-7.995-.746-21.317 0-38.598 15.456-38.598 34.522 0 8.12 3.142 15.579 8.388 21.475 0 0 .775 46.014-4.138 69.41z" fill="#e79d8e"/><path d="m473.783 215.286c14.719 0 26.198 12.93 24.243 27.518-13.445 100.364-99.411 177.766-203.456 177.766-104.044 0-190.01-77.403-203.456-177.766-1.954-14.588 9.525-27.518 24.243-27.518z" fill="#98e8f2"/><path d="m473.783 215.286h-85.335c11.438 0 20.359 10.048 18.84 21.385-10.449 77.995-77.255 138.147-158.111 138.147-80.837 0-147.63-60.124-158.103-138.093-.235 1.972-.237 4.008.04 6.079 13.446 100.364 99.412 177.766 203.456 177.766s190.01-77.403 203.456-177.766c1.955-14.588-9.524-27.518-24.243-27.518z" fill="#a6aff4"/><path d="m385.48 446.949h-181.82c-12.316 0-22.299-9.984-22.299-22.299 0-12.316 9.984-22.299 22.299-22.299h181.82c12.316 0 22.299 9.984 22.299 22.299.001 12.315-9.983 22.299-22.299 22.299z" fill="#98e8f2"/><path d="m79.612 366.094-51.609 52.345c-30.508 30.944-8.588 83.338 34.866 83.338h132.868c43.454 0 65.374-52.395 34.866-83.338l-51.608-52.345c-27.329-27.72-72.054-27.72-99.383 0z" fill="#e79d8e"/><path d="m230.604 418.439-51.608-52.345c-15.884-16.11-37.642-22.838-58.447-20.222 5.334 2.701 10.335 6.284 14.767 10.78l41.94 42.539c24.793 25.146 6.979 67.725-28.334 67.725h-107.977c-10.905 0-20.138-4.064-26.966-10.418 1.957 23.663 20.981 45.279 48.891 45.279h132.868c43.454 0 65.374-52.394 34.866-83.338z" fill="#df768f"/><g fill="#fff"><path d="m195.522 273.275c-5.56 0-10.116-4.455-10.217-10.037-.103-5.645 4.39-10.305 10.036-10.408 13.615-.247 26.972-.247 40.833 0 5.646.101 10.139 4.759 10.038 10.404-.1 5.583-4.656 10.04-10.217 10.04-.063 0-.125 0-.187-.001-13.613-.243-26.728-.243-40.097 0-.063.002-.127.002-.189.002z"/><path d="m154.773 273.275h-11.109c-5.646 0-10.223-4.577-10.223-10.223s4.577-10.223 10.223-10.223h11.109c5.646 0 10.223 4.577 10.223 10.223s-4.578 10.223-10.223 10.223z"/></g></g><g fill="#4e0325"><path d="m364.734 158.985c3.387 0 6.134-2.746 6.134-6.134v-15.491c0-3.387-2.746-6.134-6.134-6.134-3.387 0-6.134 2.747-6.134 6.134v15.491c0 3.388 2.747 6.134 6.134 6.134z"/><path d="m319.702 176.148c3.387 0 6.134-2.746 6.134-6.134v-15.491c0-3.387-2.746-6.134-6.134-6.134s-6.134 2.746-6.134 6.134v15.491c0 3.388 2.746 6.134 6.134 6.134z"/><path d="m499.927 216.929c-6.047-6.911-14.556-11.109-23.645-11.765-6.687-22.986-23.803-49.332-49.136-61.09-4.425-14.113-19.693-52.367-57.933-64.51-41.887-13.3-71.435 4.138-81.144 11.239-55.57-.845-90.485 14.447-125.788 55.318-1.256-.089-2.515-.134-3.772-.134-26.921 0-48.821 20.072-48.821 44.745 0 4.95.915 9.841 2.645 14.474-8.89.777-17.189 4.945-23.118 11.722-6.547 7.484-9.548 17.409-8.232 27.232 4.444 33.172 16.594 64.622 35.174 92.007-16.563 2.719-31.796 10.549-43.824 22.749l-51.609 52.345c-17.061 17.305-21.833 41.98-12.454 64.397s30.3 36.342 54.599 36.342h132.869c24.3 0 45.221-13.925 54.6-36.342 2.535-6.06 4.027-12.285 4.531-18.485h130.612c17.932 0 32.522-14.59 32.522-32.523 0-10.061-4.593-19.068-11.791-25.038 10.854-6.576 21.181-14.12 30.822-22.62 38.997-34.381 64.256-81.555 71.124-132.83 1.317-9.824-1.684-19.749-8.231-27.233zm-341.418-50.494c2.046 0 4.098.191 6.1.569 3.652.69 7.391-.659 9.765-3.521 33.567-40.484 63.057-53.647 116.857-52.16 2.654.088 5.143-.829 7.094-2.597 1.029-.907 25.643-22.077 64.7-9.674 34.991 11.111 45.562 54.423 45.659 54.836.772 3.348 3.173 6.083 6.39 7.284 18.932 7.059 33.217 26.276 39.845 43.891h-319.269c-3.602-4.195-5.517-9.135-5.517-14.33 0-13.398 12.729-24.298 28.376-24.298zm72.967 301.331c-4.812 11.5-16.726 23.788-35.738 23.788h-132.869c-19.012 0-30.927-12.288-35.738-23.788s-5.196-28.611 8.152-42.149l51.609-52.345c11.281-11.442 26.342-17.744 42.411-17.744 16.068 0 31.132 6.302 42.413 17.744l51.609 52.345c13.348 13.538 12.962 30.649 8.151 42.149zm154.005-31.04h-132.613c-2.503-8.788-7.12-17.047-13.735-24.153h146.348c6.659 0 12.076 5.418 12.076 12.077s-5.417 12.076-12.076 12.076zm102.413-195.279c-9.038 67.459-52.54 123.291-111.24 150.68h-157.635l-32.743-33.211c-12.262-12.436-27.849-20.347-44.786-22.916-21.112-26.643-35.476-58.977-40.242-94.554-.541-4.037.651-7.963 3.354-11.054 2.715-3.103 6.636-4.883 10.756-4.883h358.425c4.12 0 8.041 1.78 10.755 4.883 2.705 3.091 3.897 7.017 3.356 11.055z"/><path d="m162.533 425.324c-3.387 0-6.134 2.746-6.134 6.134v15.491c0 3.387 2.747 6.134 6.134 6.134s6.134-2.746 6.134-6.134v-15.491c0-3.387-2.747-6.134-6.134-6.134z"/></g><g><path d="m116.626 2.502-8.398 23.613c-.36 1.011-1.071 1.812-1.969 2.217l-20.979 9.452c-2.964 1.335-2.964 6.058 0 7.393l20.979 9.452c.898.405 1.61 1.206 1.969 2.217l8.398 23.613c1.187 3.336 5.382 3.336 6.569 0l8.398-23.613c.359-1.011 1.071-1.812 1.969-2.217l20.979-9.452c2.964-1.335 2.964-6.058 0-7.393l-20.979-9.452c-.898-.405-1.61-1.206-1.969-2.217l-8.398-23.613c-1.187-3.336-5.383-3.336-6.569 0z" fill="#98e8f2"/><path d="m450.927 25.478-6.229 17.516c-.267.75-.795 1.344-1.461 1.645l-15.562 7.011c-2.199.991-2.199 4.493 0 5.484l15.562 7.011c.666.3 1.194.894 1.461 1.644l6.229 17.516c.88 2.474 3.992 2.474 4.872 0l6.229-17.516c.267-.75.795-1.344 1.461-1.644l15.562-7.011c2.198-.991 2.198-4.493 0-5.484l-15.562-7.011c-.666-.3-1.194-.895-1.461-1.645l-6.229-17.516c-.88-2.474-3.992-2.474-4.872 0z" fill="#98e8f2"/><g fill="#75b7f2"><ellipse cx="43.911" cy="127.623" rx="18.337" ry="18.337" transform="matrix(.987 -.16 .16 .987 -19.876 8.682)"/><path d="m236.888 38.679c0 4.369 3.541 7.91 7.91 7.91s7.91-3.542 7.91-7.91-3.541-7.91-7.91-7.91c-4.368 0-7.91 3.542-7.91 7.91z"/></g></g></g></svg>