<svg id="Capa_1" enable-background="new 0 0 512 512" height="512" viewBox="0 0 512 512" width="512" xmlns="http://www.w3.org/2000/svg"><g><g><path d="m382 501.837h-252.629c-20.479 0-37.08-16.601-37.08-37.079v-301.77h326.789v301.77c0 20.478-16.601 37.079-37.08 37.079z" fill="#ff8cc0"/><path d="m92.291 162.988h326.788v163.315h-326.788z" fill="#fff"/><path d="m354.175 162.988v241.834c0 16.412-13.304 29.715-29.715 29.715h-202.453c-16.411 0-29.715-13.304-29.715-29.715v59.936c0 20.478 16.601 37.079 37.08 37.079h252.628c20.479 0 37.08-16.601 37.08-37.079v-301.77z" fill="#ffc0fe"/><path d="m354.175 328.196v76.625c0 16.411-13.304 29.715-29.715 29.715h-202.453c-16.411 0-29.715-13.304-29.715-29.715v59.936c0 20.478 16.601 37.08 37.08 37.08h252.628c20.479 0 37.08-16.601 37.08-37.08v-136.561z" fill="#ff68c1"/><path d="m90.812 198.997-29.442 29.443c-11.993 11.993-11.771 31.504.491 43.221 11.683 11.164 30.081 11.163 41.762-.002l22.345-21.357 22.349 21.359c11.682 11.165 30.08 11.165 41.762 0l22.35-21.359 22.357 21.363c11.682 11.163 30.077 11.163 41.759 0l22.357-21.363 22.357 21.363c11.682 11.163 30.077 11.163 41.759.001l22.359-21.364 22.367 21.368c11.681 11.16 30.074 11.16 41.755 0l.01-.009c12.264-11.717 12.487-31.23.493-43.223l-25.979-25.979" fill="#fff2a5"/><path d="m391.129 208.437h-270.886c-20.482 0-37.085-16.604-37.085-37.086v-16.124c0-20.482 16.604-37.086 37.085-37.086h270.886c20.482 0 37.086 16.604 37.086 37.086v16.124c-.001 20.483-16.605 37.086-37.086 37.086z" fill="#fff2a5"/><path d="m428.324 215.583h-345.278c-8.126 0-14.714-6.588-14.714-14.714 0-8.126 6.588-14.714 14.714-14.714h345.278c8.126 0 14.714 6.588 14.714 14.714 0 8.126-6.587 14.714-14.714 14.714z" fill="#ffa785"/><g fill="#fff"><path d="m214.366 165.883c-8.36 0-16.636-.033-24.595-.099-5.613-.046-10.125-4.634-10.078-10.246.046-5.584 4.587-10.078 10.16-10.078.028 0 .057 0 .085.001 15.812.13 32.882.13 49.365 0 .027-.001.055-.001.082-.001 5.574 0 10.116 4.497 10.16 10.082.045 5.612-4.469 10.198-10.081 10.242-8.295.066-16.738.099-25.098.099z"/><path d="m139.129 165.785h-8.743c-5.613 0-10.162-4.55-10.162-10.162 0-5.613 4.55-10.162 10.162-10.162h8.743c5.613 0 10.162 4.55 10.162 10.162s-4.55 10.162-10.162 10.162z"/></g></g><g fill="#4e0325"><path d="m469.011 250.268c.125-10.961-4.074-21.265-11.825-29.017l-10.535-10.535c1.583-2.934 2.485-6.287 2.485-9.848 0-8.321-4.921-15.497-11.995-18.824.802-3.437 1.236-7.014 1.236-10.693v-16.124c0-26.052-21.195-47.248-47.248-47.248h-270.886c-26.052 0-47.248 21.195-47.248 47.248v16.124c0 3.678.437 7.254 1.239 10.691-7.076 3.327-11.999 10.503-11.999 18.826 0 3.561.902 6.915 2.485 9.849l-10.536 10.537c-7.751 7.75-11.951 18.054-11.826 29.015.124 10.96 4.557 21.167 12.482 28.739 7.664 7.324 17.455 11.051 27.289 11.199v174.551c0 26.049 21.192 47.242 47.242 47.242h252.629c26.049 0 47.242-21.193 47.242-47.242v-174.547c9.831-.152 19.62-3.88 27.284-11.202 7.926-7.573 12.36-17.78 12.485-28.741zm-385.965-40.783c-4.751 0-8.616-3.865-8.616-8.617s3.866-8.616 8.616-8.616h345.278c4.751 0 8.617 3.865 8.617 8.616s-3.865 8.617-8.617 8.617zm10.274-54.257c0-14.846 12.078-26.923 26.923-26.923h270.886c14.846 0 26.923 12.078 26.923 26.923v16.124c0 3.047-.513 5.974-1.452 8.706h-321.815c-.939-2.734-1.465-5.657-1.465-8.706zm315.598 164.978h-306.464v-35.137c2.911-1.634 5.667-3.651 8.191-6.063l15.324-14.646 15.327 14.648c15.646 14.953 40.158 14.952 55.804 0l15.329-14.65 15.335 14.654c15.645 14.95 40.155 14.95 55.801 0l15.336-14.654 15.336 14.654c15.644 14.949 40.156 14.951 55.8.001l15.339-14.656 15.346 14.661c2.525 2.413 5.284 4.43 8.196 6.063zm-26.918 171.469h-252.629c-14.842 0-26.917-12.075-26.917-26.917v-132.358h306.464v132.358c0 14.842-12.076 26.917-26.918 26.917zm60.477-227.353c-7.77 7.423-19.945 7.425-27.716 0l-22.367-21.368c-3.928-3.753-10.113-3.753-14.04.001l-22.359 21.364c-7.771 7.426-19.947 7.426-27.717-.001l-22.357-21.363c-3.928-3.752-10.113-3.753-14.042 0l-22.357 21.363c-7.772 7.426-19.948 7.426-27.718 0l-22.357-21.363c-3.928-3.753-10.114-3.753-14.042.001l-22.35 21.359c-7.772 7.427-19.948 7.427-27.719 0l-22.349-21.359c-3.928-3.754-10.114-3.754-14.043.001l-22.345 21.357c-7.772 7.428-19.947 7.429-27.72.001-3.936-3.761-6.138-8.831-6.2-14.275s2.025-10.562 5.875-14.412l13.972-13.972c.174.005.344.026.519.026h345.278c.175 0 .345-.022.519-.026l13.97 13.97c3.85 3.85 5.936 8.968 5.874 14.413-.06 5.442-2.263 10.513-6.209 14.283z"/><path d="m352.74 364.379c-3.367 0-6.097 2.73-6.097 6.097v15.399c0 3.367 2.73 6.097 6.097 6.097s6.097-2.73 6.097-6.097v-15.399c0-3.367-2.73-6.097-6.097-6.097z"/><path d="m268.777 399.714c-3.367 0-6.097 2.73-6.097 6.097v15.399c0 3.367 2.73 6.097 6.097 6.097s6.097-2.73 6.097-6.097v-15.399c0-3.367-2.73-6.097-6.097-6.097z"/><path d="m328.466 430.925c-3.367 0-6.097 2.73-6.097 6.097v15.399c0 3.367 2.73 6.097 6.097 6.097s6.097-2.73 6.097-6.097v-15.399c0-3.367-2.73-6.097-6.097-6.097z"/></g><g><path d="m466.948 22.426-8.348 23.473c-.357 1.005-1.065 1.801-1.958 2.204l-20.854 9.396c-2.946 1.327-2.946 6.022 0 7.349l20.854 9.396c.893.402 1.6 1.199 1.958 2.204l8.348 23.473c1.179 3.316 5.35 3.316 6.529 0l8.348-23.473c.357-1.005 1.065-1.801 1.958-2.204l20.854-9.396c2.946-1.327 2.946-6.022 0-7.349l-20.854-9.396c-.893-.402-1.6-1.199-1.958-2.204l-8.348-23.472c-1.179-3.317-5.349-3.317-6.529-.001z" fill="#ffc5dd"/><path d="m177.213 1.845-6.192 17.411c-.265.746-.79 1.336-1.452 1.635l-15.47 6.969c-2.185.985-2.185 4.467 0 5.451l15.47 6.97c.662.298 1.187.889 1.452 1.635l6.192 17.412c.875 2.46 3.968 2.46 4.843 0l6.192-17.412c.265-.745.79-1.336 1.452-1.635l15.469-6.97c2.185-.985 2.185-4.467 0-5.451l-15.469-6.969c-.662-.299-1.187-.889-1.452-1.635l-6.192-17.411c-.874-2.46-3.968-2.46-4.843 0z" fill="#ffc5dd"/><g fill="#ff8cc0"><ellipse cx="23.38" cy="89.212" rx="18.228" ry="18.228" transform="matrix(.982 -.189 .189 .982 -16.396 6.006)"/><circle cx="361.116" cy="16.742" r="7.863"/></g></g></g></svg>