<svg id="Capa_1" enable-background="new 0 0 512 512" height="512" viewBox="0 0 512 512" width="512" xmlns="http://www.w3.org/2000/svg"><g><g><path d="m411.226 223.076c0-13.839-9.6-25.429-22.503-28.493-9.717-23.647-23.098-46.034-39.169-64.712 1.971-3.939 3.087-8.382 3.087-13.086 0-16.178-13.115-29.292-29.292-29.292-6.228 0-11.988 1.962-16.734 5.276-.47-15.766-13.39-28.405-29.27-28.405-10.762 0-20.163 5.808-25.255 14.456-38.138.572-72.932 23.711-99.512 57.013-1.958-.413-3.987-.633-6.068-.633-16.178 0-29.292 13.115-29.292 29.292 0 6.89 2.385 13.219 6.366 18.221-14.435 30.577-22.776 64.066-22.776 94.809 0 35.933 11.384 53.748 30.59 68.906 23.122 18.249 51.946 27.755 81.402 27.755h81.466c29.456 0 58.28-9.507 81.403-27.755 19.206-15.159 30.59-32.974 30.59-68.906 0-11.127-1.095-22.616-3.173-34.196 5.04-5.26 8.14-12.391 8.14-20.25z" fill="#fff"/><path d="m288.963 113.914c12.156 14.128 22.277 31.063 29.628 48.949 9.015 20.558 12.875 50.651 13.147 57.378h79.342c-1.209-12.564-10.347-22.806-22.357-25.657-9.717-23.647-23.098-46.035-39.169-64.713 1.971-3.939 3.087-8.381 3.087-13.086 0-16.177-13.115-29.292-29.292-29.292-6.228 0-11.988 1.962-16.734 5.276-.47-15.766-13.39-28.405-29.27-28.405-9.598 0-18.103 4.626-23.445 11.759 1.552 2.916 2.478 6.217 2.582 9.726 3.591-2.506 16.066 8.142 32.481 28.065z" fill="#ffc0fe"/><path d="m205.653 501.688h95.934c34.687 0 68.63-11.195 95.859-32.685 22.617-17.851 23.813-179.162 23.813-221.476 0-6.482 35.673-3.716 30.276-32.245s-37.636-16.266-45.299-23.208c-24.36-22.068-76.983 5.039-147.82 5.039-70.838 0-126.078-27.107-151.938-5.038-6.997 5.971-30.855-6.257-37.127 19.404-6.271 25.661 21.078 26.314 21.078 36.049 0 42.314-3.252 203.625 19.366 221.476 27.228 21.489 61.171 32.684 95.858 32.684z" fill="#ffddb6"/><path d="m416.13 404.285c2.995-33.798 4.254-72.028 4.773-101.737 0 0-109.395 50.034-330.449 34.315.452 35.359 1.875 74.925 5.867 104.29 0 0 220.138 17.13 319.809-36.868z" fill="#ffa785"/><path d="m418.834 263.394c-106.18 52.677-330.494 36.958-330.494 36.958l2.115 36.511s224.315 15.719 330.495-36.958" fill="#fff"/><path d="m451.534 215.282c-5.397-28.529-37.636-16.266-45.298-23.208-13.816-12.517-36.729-9.213-66.896-4.009 1.093.7 15.047 19.348 15.302 47.359 0 34.325-.97 165.18-19.317 179.661-22.088 17.433-49.622 26.514-77.761 26.514h-77.821c-28.138 0-55.673-9.081-77.76-26.514-3.84-3.031-6.758-11.173-8.977-22.449v.002c2.58 37.525 7.504 69.037 16.789 76.365 27.229 21.49 61.171 32.684 95.859 32.684h95.934c34.687 0 68.63-11.195 95.859-32.685 22.617-17.851 23.813-179.162 23.813-221.476-.001-6.481 35.671-3.715 30.274-32.244z" fill="#ffa7b8"/><path d="m420.742 296.338-1.908-32.944c-18.606 9.23-40.841 16.358-64.859 21.841-.323 11.845-.801 24.59-1.503 37.322 25.278-5.558 48.708-12.889 68.188-22.511.029-1.247.056-2.483.082-3.708z" fill="#ffc0fe"/><g fill="#ff7d87"><path d="m246.335 441.599h-66.592c-28.138 0-55.673-9.081-77.76-26.514-3.84-3.031-6.758-11.173-8.977-22.449 1.264 18.39 3.094 35.327 5.721 48.69 12.982.893 76.823 4.776 147.608.273z"/><path d="m420.598 302.684c-2.823 1.245-25.482 10.917-68.138 20.091-2.345 42.358-7.183 84.455-17.135 92.31-13.95 11.01-30.074 18.679-47.149 22.842 46.917-5.36 93.139-15.248 126.431-32.833 3.547-32.016 5.215-70.425 5.991-102.41z"/></g><g fill="#fff"><path d="m210.551 243.302c-.086 0-.171-.001-.257-.003-10.372-.254-21.508-1.014-34.043-2.324-5.665-.592-9.777-5.664-9.185-11.329s5.672-9.781 11.329-9.184c11.985 1.253 22.584 1.978 32.404 2.219 5.693.139 10.196 4.868 10.057 10.562-.138 5.606-4.727 10.059-10.305 10.059z"/><path d="m144.114 236.634c-.537 0-1.08-.042-1.626-.128-3.895-.617-7.312-1.198-10.446-1.775-5.601-1.032-9.306-6.409-8.274-12.01s6.41-9.305 12.01-8.274c2.964.546 6.214 1.098 9.937 1.688 5.626.892 9.463 6.174 8.572 11.799-.805 5.078-5.19 8.7-10.173 8.7z"/></g></g><g fill="#4e0325"><path d="m276.679 153.72c3.417 0 6.188-2.77 6.188-6.188v-14.538c0-3.417-2.77-6.188-6.188-6.188-3.417 0-6.188 2.771-6.188 6.188v14.538c.001 3.418 2.771 6.188 6.188 6.188z"/><path d="m370.967 376.953c3.417 0 6.188-2.77 6.188-6.188v-14.538c0-3.417-2.77-6.188-6.188-6.188-3.417 0-6.188 2.771-6.188 6.188v14.538c.001 3.418 2.771 6.188 6.188 6.188z"/><path d="m310.187 402.018c3.417 0 6.188-2.771 6.188-6.188v-14.538c0-3.417-2.771-6.188-6.188-6.188s-6.188 2.771-6.188 6.188v14.538c0 3.417 2.771 6.188 6.188 6.188z"/><path d="m312.77 166.997c3.417 0 6.188-2.77 6.188-6.188v-14.538c0-3.417-2.77-6.188-6.188-6.188-3.417 0-6.188 2.771-6.188 6.188v14.538c0 3.418 2.771 6.188 6.188 6.188z"/><path d="m461.486 213.54c-2.255-15.457-11.529-21.866-18.912-24.521-7.864-2.829-16.418-2.438-22.662-2.151-1.302.059-2.907.133-4.144.142-6.823-7.493-15.243-11.381-25.048-12.986-8.275-16.729-18.222-32.38-29.354-46.099 1.056-3.593 1.589-7.319 1.589-11.14 0-21.838-17.767-39.605-39.605-39.605-3.212 0-6.377.385-9.443 1.14-5.953-14.342-20.032-24.268-36.561-24.268-11.975 0-23.302 5.506-30.76 14.673-35.062 2.309-69.652 22.056-98.397 56.199-.559-.024-1.118-.036-1.677-.036-21.838 0-39.604 17.766-39.604 39.604 0 4.656.852 9.261 2.439 13.598-2.744 1.281-5.351 2.84-7.812 4.724-.993-.007-2.372-.079-3.473-.136-5.697-.295-13.499-.701-21.001 2.411-6.625 2.749-15.101 9.242-17.86 24.562-3.801 21.115 9.154 29.54 16.114 34.066 1.741 1.132 4.373 2.844 4.786 3.575 0 0 .015.07.015.235 0 3.93-.028 8.889-.061 14.668-.162 28.486-.433 76.163 1.918 119.085 3.979 72.668 13.067 89.215 21.433 95.818 28.517 22.507 64.829 34.902 102.247 34.902h95.934c37.419 0 73.731-12.395 102.248-34.902 8.428-6.652 18.806-25.052 24.289-108.987 2.853-43.659 3.397-90.43 3.444-116.695.889-.252 1.867-.505 2.704-.723 9.409-2.442 31.445-8.162 27.214-37.153zm-333.954-49.048c0-10.465 8.514-18.979 18.979-18.979 1.319 0 2.646.139 3.942.411 3.812.804 7.754-.612 10.185-3.658 26.965-33.783 59.498-52.654 91.607-53.135 3.597-.054 6.907-1.979 8.732-5.079 3.405-5.783 9.677-9.375 16.368-9.375 10.325 0 18.654 8.082 18.962 18.4.113 3.786 2.293 7.206 5.677 8.907 3.386 1.701 7.43 1.41 10.535-.759 3.203-2.237 6.949-3.419 10.831-3.419 10.466 0 18.98 8.514 18.98 18.98 0 2.973-.672 5.824-1.997 8.472-1.861 3.718-1.307 8.19 1.405 11.341 9.449 10.982 18.047 23.536 25.496 37.049-10.394.917-21.763 2.887-33.971 5.005-22.017 3.82-46.971 8.149-74.847 8.149-27.622 0-52.941-4.275-75.279-8.046-20.335-3.433-38.243-6.45-53.429-5.457-1.425-2.699-2.176-5.685-2.176-8.807zm280.034 201.924c-.921 14.163-1.975 26.213-3.097 36.469-94.899 41.45-261.574 33.317-296.594 31.063-2.022-12.046-3.986-29.388-5.338-54.337-.638-11.774-1.077-23.927-1.374-35.943 13.047.651 36.613 1.57 65.702 1.57 15.157 0 31.819-.25 49.255-.918 83.964-3.214 149.079-14.206 193.923-32.703-.507 17.632-1.287 36.496-2.477 54.799zm2.823-68.403c-93.055 41.076-266.168 35.407-309.487 33.243-.144-8.219-.229-16.281-.275-24.021 13.322.644 36.18 1.492 64.124 1.492 15.157 0 31.819-.25 49.255-.917 85.777-3.284 151.869-14.689 196.787-33.917-.086 7.443-.215 15.563-.404 24.12zm-19.332 162.895c-24.893 19.647-56.668 30.467-89.47 30.467h-95.934c-32.802 0-64.576-10.82-89.462-30.46-.497-.421-2.958-2.996-5.775-14.402 13.281.811 38.613 2.044 69.876 2.044 12.092 0 25.069-.185 38.573-.65 77.915-2.683 139.629-13.063 183.87-30.878-5.108 37.198-10.847 43.194-11.678 43.879zm38.033-230.178c-6.341 1.646-18.144 4.71-18.144 16.797 0 3.756-.01 8.056-.037 12.79-91.162 41.81-263.764 36.757-310.327 34.517-.016-12.289.046-23.405.098-32.522.033-5.825.062-10.825.062-14.785 0-11.878-8.535-17.428-14.182-21.1-6.308-4.102-8.433-5.484-7.059-13.121 1.512-8.396 4.536-10.194 12.421-10.194 1.505 0 3.188.065 5.07.163 5.676.295 11.545.6 16.181-3.356 11.797-10.068 35.95-5.991 66.531-.828 23.137 3.906 49.361 8.334 78.712 8.334 29.652 0 55.536-4.491 78.373-8.453 35.031-6.078 55.319-8.923 64.874 3.282 4.607 5.885 12.021 5.546 19.192 5.217 15.268-.697 19.048.993 20.223 9.048 1.493 10.238-1.472 11.481-11.988 14.211z"/></g><g><path d="m457.297 39.597-8.471 23.819c-.363 1.02-1.081 1.828-1.987 2.236l-21.163 9.534c-2.99 1.347-2.99 6.111 0 7.458l21.163 9.535c.906.408 1.624 1.216 1.987 2.236l8.471 23.82c1.197 3.365 5.429 3.365 6.626 0l8.471-23.82c.363-1.02 1.081-1.828 1.987-2.236l21.163-9.535c2.99-1.347 2.99-6.111 0-7.458l-21.163-9.534c-.906-.408-1.624-1.217-1.987-2.236l-8.471-23.819c-1.197-3.365-5.429-3.365-6.626 0z" fill="#ffc8b7"/><path d="m131.452 1.872-6.284 17.669c-.269.757-.802 1.356-1.474 1.659l-15.698 7.073c-2.218.999-2.218 4.533 0 5.532l15.698 7.073c.672.303 1.205.902 1.474 1.659l6.284 17.669c.888 2.496 4.027 2.496 4.915 0l6.284-17.669c.269-.757.802-1.356 1.474-1.659l15.698-7.073c2.218-.999 2.218-4.533 0-5.532l-15.698-7.073c-.672-.303-1.205-.902-1.474-1.659l-6.284-17.669c-.888-2.496-4.027-2.496-4.915 0z" fill="#ffc8b7"/><g fill="#ffa785"><ellipse cx="32.711" cy="108.55" rx="18.497" ry="18.497" transform="matrix(.958 -.288 .288 .958 -29.917 14.047)"/><circle cx="370.967" cy="31.038" r="7.979"/></g></g></g></svg>