<svg id="Capa_1" enable-background="new 0 0 512 512" height="512" viewBox="0 0 512 512" width="512" xmlns="http://www.w3.org/2000/svg"><g><g><path d="m377.6 216.1s35.27-120.392 59.609-127.24c50.737-14.275 72.322 85.232 58.389 97.549-6.425 5.679-48.454-28.242-48.454-28.242-15.988 38.012-37.536 74.939-65.816 110.552z" fill="#00ebc4"/><path d="m367.659 501.928h-52.28c-7.483 0-13.549-6.066-13.549-13.549v-426.992c0-9.972 8.084-18.056 18.056-18.056h43.268c9.972 0 18.056 8.084 18.056 18.056v426.992c-.002 7.483-6.068 13.549-13.551 13.549z" fill="#ffddb6"/><path d="m363.153 43.331h-28.479c8.605 0 15.581 6.976 15.581 15.582v368.487c0 6.458-5.235 11.693-11.693 11.693h-36.733v49.286c0 7.483 6.066 13.549 13.549 13.549h52.28c7.483 0 13.55-6.066 13.55-13.549v-426.992c0-9.972-8.084-18.056-18.055-18.056z" fill="#ffa7b8"/><path d="m127.868 501.928h49.868c7.044 0 12.754-6.732 12.754-15.036v-243.351c0-11.457-3.61-22.505-10.129-31.001l-39.676-51.709c-9.014-11.748-25.57-4.23-25.57 11.612v314.449c-.001 8.305 5.709 15.036 12.753 15.036z" fill="#ffddb6"/><path d="m180.361 212.541-39.676-51.709c-7.194-9.376-19.182-6.474-23.734 3.129.537.497 1.054 1.057 1.541 1.693l31.807 41.452c5.226 6.811 8.12 15.668 8.12 24.852v195.082c0 6.657-4.577 12.053-10.224 12.053h-33.079v47.8c0 8.304 5.71 15.036 12.754 15.036h49.868c7.044 0 12.754-6.732 12.754-15.036v-243.352c-.002-11.456-3.612-22.504-10.131-31z" fill="#ffa7b8"/><path d="m217.596 165.423c32.398 31.942 81.409 34.763 81.409 34.763s-3.516-48.967-35.914-80.908c-32.398-31.942-81.409-34.763-81.409-34.763s3.516 48.966 35.914 80.908z" fill="#00ebc4"/><path d="m449.589 349.535c-24.253 29.866-65.52 36.533-65.52 36.533s-1.946-41.757 22.307-71.623 65.52-36.532 65.52-36.532 1.945 41.756-22.307 71.622z" fill="#00ebc4"/><g fill="#fff"><path d="m140.709 311.128c-5.562 0-10.072-4.509-10.072-10.072v-22.006c0-5.562 4.51-10.072 10.072-10.072s10.072 4.509 10.072 10.072v22.006c0 5.563-4.509 10.072-10.072 10.072z"/><path d="m140.709 260.103c-5.562 0-10.072-4.509-10.072-10.072v-5.828c0-5.562 4.51-10.072 10.072-10.072s10.072 4.509 10.072 10.072v5.828c0 5.563-4.509 10.072-10.072 10.072z"/></g></g><g fill="#4e0325"><path d="m188.351 206.41-39.676-51.71c-6.501-8.473-16.514-11.712-26.133-8.445-10.466 3.553-17.499 14.077-17.499 26.188v314.449c0 13.844 10.24 25.107 22.825 25.107h49.867c12.586 0 22.826-11.263 22.826-25.107v-243.351c0-13.683-4.336-26.87-12.21-37.131zm-59.335-41.081c.188-.063.487-.165.873-.165.696 0 1.677.329 2.804 1.798l39.677 51.709c5.189 6.763 8.047 15.595 8.047 24.869v104.463h-55.232v-175.56c.001-4.016 1.925-6.466 3.831-7.114zm48.72 326.528h-49.867c-.945 0-2.682-1.885-2.682-4.964v-126.803h55.232v126.803c-.001 3.079-1.738 4.964-2.683 4.964z"/><path d="m508.911 157.371c-2.089-15.773-7.456-32.467-14.724-45.802-14.777-27.11-36.537-38.926-59.707-32.404-9.012 2.536-22.007 12.478-43.201 66.098v-83.876c0-15.51-12.618-28.127-28.127-28.127h-43.268c-15.51 0-28.128 12.618-28.128 28.127v80.177c-5.383-10.184-12.416-20.407-21.595-29.458-34.701-34.214-85.746-37.522-87.902-37.646-2.885-.168-5.716.921-7.75 2.984s-3.082 4.902-2.874 7.792c.156 2.154 4.187 53.146 38.889 87.36 27.745 27.354 65.933 34.952 81.232 36.963v278.82c0 13.025 10.597 23.621 23.621 23.621h52.281c13.024 0 23.62-10.596 23.62-23.621v-93.531c12.905-3.065 45.012-12.961 66.127-38.964 26.37-32.474 24.636-76.579 24.55-78.44-.134-2.867-1.484-5.54-3.712-7.35s-5.121-2.585-7.955-2.125c-1.84.297-45.362 7.652-71.732 40.126-2.715 3.343-5.127 6.81-7.278 10.341v-46.094c24.106-30.773 44.226-63.773 59.917-98.309 3.559 2.667 7.74 5.716 12.062 8.685 18.432 12.663 30.725 18.562 39.01 11.236 8.501-7.512 8.305-24.04 6.644-36.583zm-284.245.88c-19.707-19.43-27.801-46.353-30.992-61.937 15.599 2.941 42.553 10.621 62.346 30.136 19.695 19.417 27.792 46.318 30.986 61.906-15.636-2.974-42.647-10.689-62.34-30.105zm87.234-96.864c0-4.402 3.582-7.984 7.985-7.984h43.268c4.402 0 7.983 3.582 7.983 7.984v133.547h-59.236zm59.236 145.633v134.85h-59.236v-134.85zm-3.477 284.837h-52.281c-1.918 0-3.478-1.56-3.478-3.478v-134.423h59.236v134.423c0 1.918-1.56 3.478-3.477 3.478zm46.536-171.064c13.761-16.945 34.136-25.682 47.064-29.783-1.36 13.5-5.729 35.232-19.488 52.176-13.761 16.945-34.136 25.682-47.064 29.783 1.359-13.5 5.728-35.232 19.488-52.176zm23.657-166.511c-12.314 29.274-27.935 57.492-46.572 84.209v-32.596c3.604-11.375 9.355-28.779 16.092-46.431 21.507-56.359 32.16-60.761 32.565-60.909 3.05-.858 10.674-2.992 19.919 3.003zm51.621 20.989c-6.681-3.375-18.343-11.215-30.09-20.281l15.378-36.847c12.121 20.014 15.895 46.294 14.712 57.128z"/></g><g><path d="m35.253 78.343-8.273 23.263c-.354.996-1.056 1.785-1.94 2.184l-20.668 9.312c-2.92 1.316-2.92 5.968 0 7.284l20.668 9.312c.885.399 1.586 1.188 1.94 2.184l8.273 23.263c1.169 3.287 5.302 3.287 6.471 0l8.273-23.263c.354-.996 1.055-1.785 1.94-2.184l20.668-9.312c2.92-1.315 2.92-5.968 0-7.284l-20.668-9.312c-.885-.399-1.586-1.188-1.94-2.184l-8.273-23.263c-1.169-3.287-5.302-3.287-6.471 0z" fill="#a2f4e3"/><path d="m125.662 6.527-6.137 17.256c-.263.739-.783 1.324-1.439 1.62l-15.331 6.907c-2.166.976-2.166 4.427 0 5.403l15.331 6.907c.656.296 1.177.881 1.439 1.62l6.137 17.256c.867 2.438 3.933 2.438 4.8 0l6.137-17.256c.263-.739.783-1.324 1.439-1.62l15.331-6.907c2.166-.976 2.166-4.427 0-5.403l-15.331-6.907c-.657-.296-1.177-.881-1.439-1.62l-6.137-17.256c-.867-2.438-3.933-2.438-4.8 0z" fill="#a2f4e3"/><g fill="#00ebc4"><ellipse cx="427.983" cy="18.065" rx="18.065" ry="18.065" transform="matrix(.982 -.189 .189 .982 4.306 81.26)"/><ellipse cx="234.928" cy="35.012" rx="7.793" ry="7.793" transform="matrix(.987 -.16 .16 .987 -2.575 38.083)"/></g></g></g></svg>