<svg id="Capa_1" enable-background="new 0 0 512 512" height="512" viewBox="0 0 512 512" width="512" xmlns="http://www.w3.org/2000/svg"><g><g><path d="m254.316 360.376c-11.396 0-20.635-9.239-20.635-20.635v-308.755c0-11.396 9.239-20.635 20.635-20.635 11.396 0 20.635 9.239 20.635 20.635v308.755c0 11.397-9.239 20.635-20.635 20.635z" fill="#fff2a5"/><path d="m272.554 496.852-18.354-6.608-19.626 7.067c-11.648 4.194-24.203 5.474-36.39 3.294-28.278-5.059-41.816-25.432-57.909-61.166-20.195-44.843-23.597-98.201-23.597-98.201-3.527-46.995 35.609-85.944 84.171-88.392 25.983-.481 53.351 18.858 53.351 18.858s24.06-19.338 49.458-19.338c50.485.501 91.85 40.465 88.041 88.793 0 0-5.525 46.391-16.15 89.872-7.812 31.972-27.642 56.908-56.022 66.522-15.244 5.163-31.829 4.751-46.973-.701z" fill="#ff8cc0"/><path d="m330.031 256.358.704.746c4.477 4.83 28.524 32.14 16.82 49.5-14.903 22.104-34.998-.275-60.949 6.316-22.053 5.601-28.486 23.395-67.394 23.395-58.785 0-65.379-40.324-65.253-59.158l.7-9.483c-24.577 15.941-40.271 43.054-37.981 73.563 0 0 3.402 53.358 23.597 98.201 16.093 35.734 29.63 56.107 57.909 61.166 12.187 2.18 24.742.9 36.39-3.294l19.626-7.066 18.354 6.608c15.144 5.452 31.729 5.864 46.974.699 28.38-9.614 48.21-34.549 56.022-66.521 10.624-43.481 16.15-89.872 16.15-89.872 3.117-39.556-24.031-73.502-61.669-84.8z" fill="#ffa785"/><path d="m340.431 260.165c6.077 12.81 9.17 30.222 3.573 42.525 2.304 7.525 3.276 15.572 2.618 23.926 0 0-4.62 38.793-13.505 75.152-6.499 26.596-22.941 47.369-46.475 55.5-12.896 4.456-26.97 4.108-39.807-.514l-10.924-3.933c-2.759-.994-5.779-.994-8.538 0l-11.994 4.319c-9.906 3.567-20.595 4.662-30.947 2.741-19.093-3.543-30.112-15.529-40.795-35.973v22.827c14.858 31.535 28.534 49.531 55.358 54.009 11.937 1.993 24.194.666 35.581-3.434l19.626-7.067 18.327 6.599c15.199 5.473 31.848 5.874 47.139.663 28.307-9.648 48.085-34.555 55.884-66.475 10.625-43.481 16.15-89.872 16.15-89.872 2.82-35.808-19.16-67.018-51.271-80.993z" fill="#ff7d87"/><g fill="#fff"><path d="m181.414 435.148c-3.739 0-7.348-2.032-9.193-5.578-4.422-8.502-8.179-17.702-11.168-27.344-1.693-5.461 1.362-11.259 6.823-12.953 5.462-1.692 11.26 1.363 12.953 6.822 2.624 8.465 5.908 16.514 9.761 23.923 2.637 5.072.664 11.322-4.408 13.959-1.526.795-3.159 1.171-4.768 1.171z"/><path d="m163.777 372.485c-5.347 0-9.88-4.115-10.308-9.537-.195-2.468-.302-4.722-.325-6.891-.062-5.717 4.523-10.401 10.24-10.462.038-.001.076-.001.114-.001 5.665 0 10.287 4.561 10.349 10.241.018 1.693.104 3.486.261 5.482.451 5.699-3.804 10.684-9.504 11.135-.278.022-.554.033-.827.033z"/></g></g><g fill="#4e0325"><path d="m378.463 274.742c-18.775-20.515-46.002-32.445-74.805-32.73-6.325 0-12.522 1.01-18.356 2.589v-213.615c0-17.086-13.9-30.986-30.986-30.986s-30.987 13.9-30.987 30.986v214.783c-7.221-2.059-14.954-3.405-22.671-3.273-.11.002-.22.005-.33.011-27.708 1.396-53.792 13.755-71.566 33.908-16.231 18.402-24.188 41.676-22.411 65.543.198 3.029 3.918 56.063 24.485 101.731 14.843 32.957 30.018 60.753 65.525 67.106 4.506.806 9.088 1.206 13.697 1.206 9.396 0 18.895-1.665 28.021-4.95l16.12-5.805 14.848 5.346c17.525 6.311 36.63 6.581 53.801.765 30.976-10.493 53.849-37.418 62.756-73.869 10.652-43.59 16.145-89.186 16.374-91.106.016-.136.03-.274.04-.41 1.943-24.632-6.423-48.508-23.555-67.23zm-134.431-243.756c0-5.67 4.613-10.283 10.284-10.283 5.67 0 10.283 4.613 10.283 10.283v221.889c-4.279 2.247-7.931 4.491-10.73 6.346-2.622-1.562-5.964-3.43-9.837-5.343zm-42.832 232.207c22.139-.363 46.791 16.799 47.026 16.964 3.762 2.658 8.843 2.497 12.444-.373.214-.171 21.65-17.068 42.885-17.069 9.632.096 19.036 1.836 27.82 5.002 6.102 8.261 14.003 22.065 7.541 31.65-6.202 9.198-11.519 8.467-24.019 5.771-8.434-1.821-18.931-4.086-30.974-1.027-8.973 2.279-15.408 6.22-21.632 10.031-10.357 6.341-20.14 12.332-43.078 12.332-21.994 0-37.757-5.782-46.85-17.185-9.002-11.288-9.708-25.948-9.12-34.737 11.318-6.66 24.375-10.648 37.957-11.359zm180.197 76.942c-.413 3.374-5.911 47.544-15.902 88.437-7.192 29.432-25.156 51-49.288 59.174-12.754 4.322-27.011 4.094-40.145-.634 0-.001 0-.001 0-.001l-18.355-6.608c-2.267-.815-4.746-.815-7.014 0l-19.627 7.067c-10.196 3.67-20.937 4.655-31.059 2.844-23.512-4.206-34.951-21.16-50.294-55.228-19.15-42.521-22.672-94.097-22.705-94.609-.003-.038-.006-.077-.008-.116-1.372-18.274 4.768-36.157 17.288-50.353 2.022-2.293 4.196-4.443 6.478-6.474.584 10.166 3.351 22.65 11.813 33.311 11.561 14.565 30.615 21.951 56.632 21.951 26.439 0 38.725-7.523 49.565-14.161 5.932-3.632 11.055-6.769 18.202-8.585 9.216-2.341 17.391-.577 25.297 1.129 12.087 2.608 25.791 5.567 36.938-10.969 6.085-9.026 5.331-19.117 2.087-28.131 4.303 3.099 8.297 6.616 11.887 10.54 13.17 14.389 19.631 32.641 18.21 51.416z"/><path d="m280.132 402.897c-3.43 0-6.211 2.781-6.211 6.211v15.686c0 3.43 2.781 6.211 6.211 6.211s6.211-2.781 6.211-6.211v-15.686c0-3.43-2.781-6.211-6.211-6.211z"/><path d="m333.495 376.868c-3.43 0-6.211 2.781-6.211 6.211v15.685c0 3.43 2.781 6.211 6.211 6.211s6.211-2.781 6.211-6.211v-15.685c0-3.43-2.781-6.211-6.211-6.211z"/></g><g><path d="m105.983 103.894-8.503 23.91c-.364 1.024-1.085 1.835-1.994 2.245l-21.243 9.571c-3.001 1.352-3.001 6.134 0 7.486l21.243 9.571c.91.41 1.63 1.221 1.994 2.245l8.503 23.91c1.201 3.378 5.45 3.378 6.651 0l8.503-23.91c.364-1.024 1.085-1.835 1.994-2.245l21.243-9.571c3.001-1.352 3.001-6.134 0-7.486l-21.243-9.571c-.91-.41-1.63-1.221-1.994-2.245l-8.503-23.91c-1.201-3.378-5.449-3.378-6.651 0z" fill="#ffc5dd"/><path d="m389.712 93.841-6.307 17.736c-.27.759-.805 1.361-1.479 1.665l-15.758 7.099c-2.226 1.003-2.226 4.55 0 5.553l15.758 7.1c.675.304 1.209.906 1.479 1.665l6.307 17.736c.891 2.505 4.042 2.505 4.934 0l6.308-17.736c.27-.759.805-1.361 1.479-1.665l15.758-7.1c2.226-1.003 2.226-4.55 0-5.553l-15.758-7.099c-.675-.304-1.209-.906-1.479-1.665l-6.308-17.736c-.892-2.505-4.043-2.505-4.934 0z" fill="#ffc5dd"/><g fill="#ff8cc0"><ellipse cx="456.183" cy="225.903" rx="18.567" ry="18.567" transform="matrix(.707 -.707 .707 .707 -26.125 388.736)"/><ellipse cx="45.259" cy="250.115" rx="8.009" ry="8.009" transform="matrix(.973 -.23 .23 .973 -56.254 17.089)"/></g></g></g></svg>