<svg id="Capa_1" enable-background="new 0 0 512 512" height="512" viewBox="0 0 512 512" width="512" xmlns="http://www.w3.org/2000/svg"><g><g><g fill="#fff"><path d="m68.309 362.152c-13.121-11.614-24.731-27.087-33.471-44.809-11.356-23.025-16.754-47.587-15.198-69.162 1.79-24.825 12.967-44.069 30.665-52.797 17.698-8.729 39.77-5.883 60.555 7.807 18.065 11.898 34.267 31.131 45.624 54.157 11.356 23.025 16.753 47.587 15.197 69.162-1.79 24.825-12.967 44.069-30.665 52.798s-39.77 5.883-60.555-7.807c-4.16-2.742-8.224-5.873-12.152-9.349zm29.942-121.737c-2.589-2.291-5.231-4.333-7.897-6.089-9.309-6.132-18.115-8.19-23.556-5.506-5.442 2.684-9.168 10.923-9.97 22.041-1.071 14.847 3.102 33.067 11.449 49.99 8.346 16.923 20.262 31.321 32.694 39.512 9.309 6.131 18.115 8.19 23.556 5.506 11.167-5.507 16.142-36.305-1.478-72.032-6.558-13.292-15.317-25.03-24.798-33.422z"/><path d="m171.682 326.509c1.556-21.575-3.841-46.137-15.197-69.162-11.357-23.026-27.559-42.259-45.624-54.157-20.786-13.691-42.858-16.537-60.555-7.807-17.698 8.728-28.875 27.972-30.665 52.797-1.556 21.575 3.842 46.137 15.198 69.162 8.74 17.722 20.35 33.195 33.471 44.809 3.927 3.476 7.991 6.607 12.152 9.348 20.786 13.691 42.857 16.536 60.555 7.807 17.698-8.728 28.875-27.971 30.665-52.797zm-47.157 19.361c-5.441 2.684-14.247.625-23.556-5.506-12.432-8.191-24.347-22.59-32.694-39.512-8.346-16.923-12.519-35.143-11.449-49.99.802-11.118 4.528-19.358 9.97-22.041 5.441-2.684 14.247-.626 23.556 5.506 2.666 1.756 5.309 3.798 7.897 6.089 9.481 8.392 18.24 20.13 24.797 33.423 17.622 35.725 12.646 66.524 1.479 72.031z"/><path d="m290.054 182.518 30.259-47.501c8.728-15.118-2.182-34.015-19.638-34.015h-134.371c-15.512 0-27.317 13.921-24.781 29.225l10.242 56.901c1.173 7.079-1.436 14.308-6.986 18.858-38.001 31.154-63.243 86.13-63.243 148.764 0 61.377 24.241 115.401 60.974 146.862h149.155c36.733-31.461 60.974-85.485 60.974-146.862 0-59.851-23.048-112.71-58.255-144.472-7.818-7.056-9.596-18.639-4.33-27.76z"/></g><path d="m103.372 259.014c-13.81 27.547-21.835 60.423-21.835 95.735 0 61.377 24.241 115.401 60.974 146.862h149.155c36.733-31.461 60.974-85.485 60.974-146.862 0-35.313-8.029-68.188-21.839-95.735z" fill="#e79d8e"/><path d="m259.602 192.419c18.08 16.312 32.317 39.281 40.624 66.165h30.366c-9.566-18.962-21.879-35.382-36.205-48.307-7.82-7.056-9.598-18.638-4.332-27.759l30.259-47.501c8.728-15.117-2.182-34.014-19.638-34.014h-35.812c14.604 0 23.731 15.809 16.429 28.455l-25.314 39.738c-4.407 7.631-2.919 17.32 3.623 23.223z" fill="#ffc0fe"/><path d="m142.512 501.611h149.155c36.733-31.461 60.974-85.485 60.974-146.862 0-35.313-8.029-68.188-21.839-95.735h-30.441c5.141 16.792 7.976 35.098 7.976 54.268 0 29.807-6.834 57.54-18.579 80.712-13.16 25.963-39.985 42.149-69.092 42.149h-58.429c-22.89 0-44.157-11.876-56.115-31.395-12.387-20.22-20.758-44.766-23.551-71.609-.675 7.184-1.02 14.389-1.034 21.611 0 61.377 24.242 115.4 60.975 146.861z" fill="#df768f"/><path d="m362.897 501.316h-55.921c-15.442 0-27.96-12.518-27.96-27.961v-.874c0-15.442 12.518-27.96 27.96-27.96h55.921c15.442 0 27.96 12.518 27.96 27.96v.874c.001 15.443-12.518 27.961-27.96 27.961z" fill="#c37777"/><path d="m403.652 443.386-55.8 3.675c-15.409 1.015-28.723-10.654-29.738-26.062l-.057-.872c-1.015-15.409 10.654-28.723 26.062-29.737l55.8-3.675c15.409-1.015 28.723 10.654 29.737 26.062l.057.872c1.016 15.408-10.653 28.722-26.061 29.737z" fill="#c37777"/><path d="m456.005 500.257-53.354-16.748c-14.733-4.625-22.928-20.318-18.303-35.051l.262-.834c4.625-14.733 20.318-22.928 35.051-18.303l53.354 16.748c14.733 4.625 22.928 20.318 18.303 35.051l-.262.834c-4.624 14.733-20.317 22.928-35.051 18.303z" fill="#c37777"/><path d="m125.827 381.778c-5.553 0-10.159-4.392-10.374-9.99-.474-12.318-.113-24.578 1.071-36.44.57-5.71 5.668-9.875 11.37-9.305 5.709.57 9.875 5.66 9.305 11.37-1.09 10.914-1.421 22.211-.984 33.578.22 5.734-4.249 10.56-9.982 10.78-.136.005-.271.007-.406.007z" fill="#fff"/><path d="m133.395 311.336c-.943 0-1.903-.129-2.856-.401-5.517-1.575-8.714-7.323-7.139-12.841.686-2.402 1.383-4.565 2.131-6.61 1.972-5.388 7.941-8.158 13.326-6.186 5.388 1.972 8.158 7.939 6.186 13.326-.574 1.567-1.117 3.258-1.663 5.171-1.303 4.565-5.463 7.541-9.985 7.541z" fill="#fff"/></g><g fill="#4e0325"><path d="m498.635 454.995c-4.741-9.08-12.735-15.77-22.508-18.838l-37.052-11.63c.905-3.734 1.265-7.621 1.006-11.566l-.057-.867c-.673-10.222-5.286-19.569-12.99-26.321-7.703-6.752-17.581-10.1-27.796-9.426l-37.437 2.466c.807-7.919 1.23-15.952 1.23-24.064 0-60.447-23.059-117.339-61.684-152.186-4.094-3.693-5.083-9.84-2.389-14.685l30.119-47.281c.081-.127.159-.256.235-.387 5.977-10.352 5.977-22.713 0-33.065s-16.681-16.533-28.635-16.533h-134.373c-10.452 0-20.322 4.572-27.082 12.544s-9.657 18.457-7.948 28.769c.008.047.016.095.025.142l10.227 56.817c.552 3.457-.722 6.927-3.333 9.067-2.747 2.252-5.417 4.613-8.017 7.068-4.385-3.91-8.933-7.43-13.601-10.505-23.946-15.771-49.775-18.85-70.865-8.448-21.091 10.401-34.37 32.769-36.432 61.367-1.687 23.389 4.082 49.848 16.242 74.505 9.285 18.826 21.7 35.422 35.903 47.993 3.542 3.135 7.205 6.005 10.915 8.592 5.303 52.983 28.167 100.789 63.415 130.978 1.883 1.612 4.279 2.498 6.758 2.498h149.155c1.951 0 3.847-.556 5.485-1.576 3.137.832 6.429 1.281 9.824 1.281h55.921c14.291 0 26.774-7.863 33.368-19.485 1.065.443 2.153.849 3.274 1.201l53.354 16.748c3.809 1.196 7.665 1.764 11.461 1.764 16.312 0 31.475-10.501 36.613-26.867l.262-.833c3.07-9.774 2.148-20.157-2.593-29.237zm-98.033-57.915c.395-.026.788-.039 1.18-.039 4.258 0 8.324 1.525 11.556 4.358 3.53 3.093 5.643 7.376 5.952 12.065l.057.868c.092 1.397 0 2.776-.228 4.124-8.67-1.825-17.627-.604-25.583 3.55-5.755 3.005-10.545 7.319-14.066 12.562l-32.301 2.127c-4.68.314-9.207-1.225-12.737-4.319-3.53-3.093-5.643-7.376-5.952-12.064l-.057-.868c-.637-9.668 6.711-18.052 16.379-18.688zm-249.235-183.061c8.355-6.85 12.435-17.805 10.649-28.589-.008-.048-.016-.095-.025-.143l-10.228-56.822c-.687-4.257.517-8.581 3.307-11.872 2.804-3.307 6.899-5.203 11.235-5.203h134.371c6.403 0 9.574 4.297 10.641 6.144 1.055 1.828 3.158 6.643.097 12.117l-30.121 47.285c-.081.127-.159.256-.235.387-7.681 13.304-5.003 30.407 6.37 40.667 11.114 10.027 20.768 22.177 28.756 35.865h-198.3c9.083-15.528 20.343-29.063 33.483-39.836zm-74.643 89.472c-.989-1.766-1.952-3.558-2.858-5.396-7.871-15.959-11.815-33.011-10.822-46.784.704-9.753 3.868-15.597 6.51-16.899.663-.327 1.572-.506 2.692-.506 3.343 0 8.562 1.598 14.679 5.628 2.394 1.577 4.815 3.445 7.195 5.55 1.077.954 2.141 1.972 3.197 3.018-9.206 16.83-16.175 35.524-20.593 55.389zm-32.568 9.257c-10.552-21.394-15.578-44.059-14.153-63.82 1.518-21.052 10.593-37.173 24.898-44.228 14.306-7.056 32.62-4.444 50.246 7.167 3.719 2.45 7.354 5.253 10.876 8.364-4.352 5.311-8.423 10.934-12.195 16.838-.481-.446-.962-.891-1.447-1.32-2.821-2.496-5.714-4.726-8.6-6.626-11.342-7.471-22.185-9.619-29.741-5.891-7.558 3.727-12.454 13.635-13.431 27.184-1.148 15.919 3.253 35.307 12.075 53.195 3.145 6.376 6.794 12.406 10.781 17.943-1.334 9.518-2.1 19.239-2.267 29.095-10.548-10.297-19.837-23.29-27.042-37.901zm47.77 42.001c0-31.997 6.865-62.444 19.338-88.428h211.527c12.531 26.112 19.461 56.668 19.461 88.428 0 8.644-.524 17.18-1.514 25.558-19.749 2.701-34.376 20.313-33.047 40.507l.057.867c.287 4.355 1.295 8.548 2.946 12.452h-3.718c-21.146 0-38.349 17.203-38.349 38.349v.874c0 6.449 1.607 12.527 4.431 17.867h-126.623c-34.196-31.022-54.509-81.705-54.509-136.474zm270.971 136.178h-55.921c-9.689 0-17.572-7.882-17.572-17.572v-.874c0-9.689 7.882-17.572 17.572-17.572h25.124c4.38 1.708 9.062 2.601 13.859 2.601.855 0 1.715-.028 2.576-.085l20.588-1.356c1.266.482 2.47 1.089 3.576 1.835.218 7.543 2.672 14.793 6.905 20.868-2.29 7.046-8.909 12.155-16.707 12.155zm118.509-12.918-.262.833c-2.901 9.244-12.779 14.406-22.028 11.503h.001l-53.354-16.748c-9.244-2.902-14.404-12.784-11.503-22.027l.262-.835c1.406-4.478 4.471-8.141 8.632-10.313 4.16-2.174 8.917-2.597 13.396-1.189l53.355 16.748c4.478 1.406 8.141 4.471 10.313 8.632 2.171 4.16 2.594 8.917 1.188 13.396z"/><path d="m279.016 360.118c3.442 0 6.233-2.791 6.233-6.233v-15.742c0-3.442-2.791-6.233-6.233-6.233s-6.233 2.791-6.233 6.233v15.742c0 3.442 2.791 6.233 6.233 6.233z"/><path d="m220.141 366.209c-3.442 0-6.233 2.791-6.233 6.233v15.742c0 3.442 2.791 6.233 6.233 6.233s6.233-2.791 6.233-6.233v-15.742c0-3.442-2.791-6.233-6.233-6.233z"/><path d="m250.219 406.515c-3.442 0-6.233 2.791-6.233 6.233v15.742c0 3.442 2.791 6.233 6.233 6.233s6.233-2.791 6.233-6.233v-15.742c0-3.442-2.791-6.233-6.233-6.233z"/></g><g><path d="m449.454 141.674-8.534 23.995c-.365 1.027-1.089 1.841-2.001 2.253l-21.319 9.605c-3.012 1.357-3.012 6.156 0 7.513l21.319 9.605c.913.411 1.636 1.225 2.001 2.253l8.534 23.995c1.206 3.39 5.469 3.39 6.675 0l8.534-23.995c.365-1.027 1.089-1.842 2.001-2.253l21.319-9.605c3.012-1.357 3.012-6.156 0-7.513l-21.319-9.605c-.913-.411-1.636-1.225-2.001-2.253l-8.534-23.995c-1.206-3.39-5.469-3.39-6.675 0z" fill="#ffc8b7"/><path d="m356.539 1.886-6.33 17.799c-.271.762-.808 1.366-1.485 1.671l-15.814 7.125c-2.234 1.007-2.234 4.566 0 5.573l15.814 7.125c.677.305 1.214.909 1.485 1.671l6.33 17.799c.894 2.514 4.057 2.514 4.951 0l6.33-17.799c.271-.762.807-1.366 1.485-1.671l15.814-7.125c2.234-1.007 2.234-4.566 0-5.573l-15.814-7.125c-.677-.305-1.214-.909-1.485-1.671l-6.33-17.799c-.894-2.515-4.057-2.515-4.951 0z" fill="#ffc8b7"/><g fill="#ffa785"><circle cx="81.537" cy="52.353" r="18.634"/><path d="m452.791 77.357c0 4.439 3.599 8.038 8.038 8.038s8.038-3.599 8.038-8.038-3.599-8.038-8.038-8.038-8.038 3.598-8.038 8.038z"/></g></g></g></svg>