<svg id="Capa_1" enable-background="new 0 0 512 512" height="512" viewBox="0 0 512 512" width="512" xmlns="http://www.w3.org/2000/svg"><g><g><path d="m489.393 207.027c-11.697 20.695-29.955 38.698-49.659 51.978l-7.419 25.077c-8.935 30.199-27.195 56.796-52.167 75.985l-20.734 15.932-7.416 25.069c-8.935 30.201-27.196 56.8-52.17 75.99l-20.728 15.927c-19.498 13.731-45.537 11.939-76.844-9.554s-47.661-52.062-36.527-68.279c8.958-13.352 17.406-27.194 30.324-37.121l19.334-14.857 7.419-25.077c8.935-30.199 27.195-56.796 52.167-75.985l20.734-15.932 7.416-25.069c8.935-30.201 27.196-56.8 52.17-75.99l20.727-15.927" fill="#98e8f2"/><path d="m376.021 129.194-20.728 15.926c-24.974 19.189-43.236 45.789-52.17 75.99l-7.417 25.069-20.734 15.932c-24.972 19.189-43.232 45.786-52.167 75.985l-7.419 25.077-2.99 2.298c5.709 4.032 11.734 7.641 18.045 10.811 38.302 19.237 84.193 21.84 125.827 10.348l3.145-10.631 20.734-15.932c24.972-19.189 43.232-45.786 52.167-75.985l7.419-25.077c19.731-13.308 37.937-31.257 49.659-51.978z" fill="#fff2a5"/><path d="m314.151 263.994c26.81 11.349 55.589 6.674 84.539 6.97 11.454.117 41.044-11.959 41.044-11.959 19.731-13.308 37.937-31.257 49.659-51.978l-113.371-77.833-20.728 15.926c-24.974 19.189-43.236 45.789-52.17 75.99l-7.417 25.069-5.829 4.479c7.551 5.32 15.751 9.728 24.273 13.336z" fill="#d3b5f2"/><g fill="#a6aff4"><path d="m372.967 270.936s.08-.083.201-.207c-.064.043-.13.108-.201.207z"/><path d="m431.587 210.454-11.525 18.377c-6.332 9.438-20.204 24.219-30.427 29.74-9.22 4.98-15.35 11.019-16.467 12.158 1.817-1.208.77 20.325-5.448 35.097-6.799 16.153-9.644 28.208-26.975 46.944-33.279 35.977-62.43 38.616-62.43 38.616l11.563 12.102c-2.478 12.808-8.698 22.125-18.467 27.479-13.782 9.706-32.189 8.439-54.319-6.754-17.455-11.984-28.325-27.955-28.28-39.795-9.067 9.055-15.916 20.048-23.084 30.733-11.133 16.217 5.221 46.786 36.527 68.279s57.346 23.285 76.844 9.554l20.728-15.927c24.974-19.189 43.235-45.789 52.17-75.99l7.416-25.069 8.253-6.342 12.481-9.59c24.972-19.189 43.232-45.786 52.167-75.985l7.419-25.077c18.44-13.326 33.822-25.892 45.559-45.824z"/></g><g><path d="m431.587 210.454-11.525 18.377c-6.332 9.438-20.204 24.219-30.427 29.74-9.22 4.98-15.35 11.019-16.467 12.158 1.817-1.208.77 20.325-5.448 35.097-6.799 16.153-9.644 28.208-26.975 46.944-33.183 35.873-62.256 38.599-62.422 38.615 25.783 3.994 52.649 2.227 77.946-4.756l3.145-10.631 20.734-15.932c24.972-19.189 43.232-45.786 52.167-75.985l7.419-25.077c17.099-12.046 35.197-27.467 45.559-45.824z" fill="#ffb7a9"/><path d="m372.967 270.936s.08-.083.201-.207c-.064.043-.13.108-.201.207z" fill="#ec28ff"/></g><g><path d="m372.967 270.936s.08-.083.201-.207c-.064.043-.13.108-.201.207z" fill="#ec28ff"/><path d="m420.062 228.832c-6.332 9.438-20.204 24.219-30.427 29.74-9.22 4.98-15.35 11.019-16.467 12.158.249-.166.442.102.578.714 8.272-.238 16.601-.565 24.944-.479 11.454.117 41.044-11.959 41.044-11.959 19.731-13.308 37.937-31.257 49.659-51.978l-4.818-3.307-52.988 6.735z" fill="#d088f3"/></g><ellipse cx="431.587" cy="169.741" fill="#fff" rx="35.616" ry="68.759" transform="matrix(.566 -.824 .824 .566 47.377 429.476)"/><path d="m20.088 142.181c5.973 33.874 18.765 69.004 41.422 101.367 15.277 19.148 53.409 22.105 93.34 4.047s61.034-48.632 57.076-72.898c-12.75-37.031-30.18-68.784-47.235-97.911z" fill="#ffc5dd"/><ellipse cx="94.65" cy="114.483" fill="#fff" rx="79.351" ry="42.724" transform="matrix(.911 -.412 .412 .911 -38.765 49.173)"/><path d="m211.925 174.697c-8.763-25.452-19.737-48.41-31.281-69.737h-12.479c-2.95 3.271-5.968 6.49-9.014 9.684 5.971 12.216 11.545 25.117 16.304 38.942 3.206 19.653-13.885 44.414-46.225 59.04-32.34 14.625-63.222 12.23-75.595-3.278-17.475-24.962-27.692-51.954-32.806-78.167-.717 3.71-.786 7.312-.127 10.723l-.614.278c5.973 33.874 18.765 69.004 41.421 101.367 15.277 19.148 53.409 22.105 93.339 4.047 39.932-18.06 61.036-48.633 57.077-72.899z" fill="#ff94de"/><g fill="#fff"><path d="m298.022 308.14c-3.258 0-6.459-1.56-8.431-4.457-3.165-4.652-1.96-10.988 2.691-14.153 1.603-1.09 3.271-2.166 4.96-3.197 4.803-2.933 11.071-1.417 14.003 3.384 2.933 4.801 1.418 11.07-3.384 14.003-1.404.858-2.789 1.751-4.117 2.654-1.754 1.194-3.748 1.766-5.722 1.766z"/><path d="m261.437 356.834c-.728 0-1.466-.079-2.206-.242-5.494-1.213-8.964-6.649-7.752-12.143 1.765-7.995 5.278-16.315 10.739-25.435 2.89-4.826 9.145-6.398 13.973-3.506 4.827 2.891 6.397 9.146 3.506 13.973-4.316 7.207-7.038 13.539-8.324 19.358-1.048 4.756-5.26 7.995-9.936 7.995z"/></g></g><g fill="#4e0325"><path d="m494.906 171.692c-7.654-14.307-20.934-28.41-37.394-39.711-16.461-11.301-34.394-18.627-50.496-20.629-16.25-2.021-29.33 1.504-37.451 9.956l-20.478 15.734c-26.854 20.635-46.126 48.706-55.732 81.178l-6.478 21.897-18.111 13.917c-26.851 20.633-46.122 48.702-55.728 81.172l-6.481 21.905-16.711 12.841c-12.896 9.909-21.477 22.828-29.776 35.321-.922 1.389-1.844 2.777-2.773 4.159-7.611 11.133-6.974 26.288 1.798 42.685 7.654 14.307 20.934 28.41 37.395 39.711 21.731 14.918 39.913 20.172 54.748 20.171 14.292 0 25.477-4.877 33.726-10.686.115-.081.23-.165.341-.251l20.728-15.927c26.852-20.633 46.124-48.702 55.732-81.177l6.478-21.897 18.111-13.917c26.851-20.634 46.122-48.702 55.728-81.172l6.481-21.906 16.711-12.841c12.895-9.908 21.476-22.826 29.774-35.318 1.327-2.178 3.131-4.188 3.979-6.605 5.018-10.628 3.624-24.134-4.121-38.61zm-96.62-40.601c12.39 0 30.166 5.653 47.694 17.686 27.637 18.974 40.688 44.22 33.895 54.115-6.793 9.897-35.043 6.789-62.679-12.187-27.637-18.973-40.689-44.22-33.896-54.115 2.485-3.62 7.839-5.499 14.986-5.499zm-104.665 337.889-20.551 15.791c-16.748 11.675-38.632 8.398-65.048-9.738-27.637-18.974-40.688-44.22-33.895-54.115.021-.03.041-.061.062-.091.954-1.423 1.903-2.851 2.852-4.28 7.718-11.619 15.007-22.592 25.219-30.439l12.998-9.987c26.198 20.174 52.944 30.278 80.042 30.278 15.736 0 31.591-3.408 47.523-10.222l-.592 2.002c-8.382 28.323-25.19 52.806-48.61 70.801zm80.32-116.991-20.275 15.579c-43.51 26.883-84.977 24.255-126.572-8.059l5.48-18.524c8.379-28.32 25.186-52.801 48.605-70.796l15.04-11.558c24.242 14.971 50.795 22.487 79.445 22.487 15.686 0 32.002-2.257 48.902-6.755l-2.02 6.828c-8.379 28.321-25.185 52.802-48.605 70.798zm78.921-115.919-18.007 13.838c-48.806 16.919-90.521 14.259-127.215-8.158l5.251-17.75c8.379-28.322 25.188-52.806 48.609-70.802l.861-.662c1.138 4.898 3.102 10.012 5.906 15.255 7.654 14.308 20.935 28.41 37.395 39.711s34.393 18.627 50.495 20.629c1.657.206 3.278.348 4.867.44-2.533 2.717-5.224 5.24-8.162 7.499z"/><path d="m207.974 219.614c11.455-15.162 16.429-31.697 14.005-46.559-.093-.569-.234-1.13-.422-1.676-12.399-36.013-29.41-66.697-46.03-95.194-1.084-2.048-2.224-4.111-3.738-5.861-7.696-9.644-20.775-15.475-37.758-16.653-18.63-1.283-40.361 3.183-61.182 12.6-20.822 9.416-38.531 22.776-49.867 37.621-9.77 12.793-14.087 25.709-12.705 37.348.046.844.238 1.735.399 2.577 6.949 38.408 20.999 74.875 42.49 105.571.122.174.25.344.382.51 10.513 13.177 28.618 19.904 50.073 19.904 17.072 0 36.267-4.263 55.426-12.929 20.644-9.332 37.562-22.217 48.927-37.259zm-168.801-103.355c9.325-12.212 24.266-23.372 42.07-31.423 15.862-7.174 32.077-11.012 46.266-11.012 1.736 0 3.442.058 5.112.173 12.877.893 22.006 5.262 25.048 11.985v.001c3.041 6.724.291 16.464-7.543 26.723-9.325 12.212-24.266 23.372-42.07 31.423-37.137 16.797-70.083 12.877-76.426-1.147-3.04-6.724-.291-16.464 7.543-26.723zm30.483 121.162c-13.896-19.911-24.563-41.821-31.891-65.419 5.226 1.73 11.084 2.847 17.505 3.292 2.104.145 4.247.218 6.424.218 17.105 0 36.29-4.465 54.759-12.818 20.822-9.416 38.531-22.776 49.867-37.621 2.947-3.859 5.377-7.728 7.328-11.571 10.487 19.686 20.395 40.745 28.339 63.625 2.326 17.958-14.383 44.477-51.336 61.188-38.106 17.23-70.064 12.41-80.995-.894z"/><path d="m354.946 332.262c-2.529-2.236-6.391-2.003-8.628.524l-10.232 11.558c-2.238 2.528-2.003 6.391.524 8.628 1.164 1.03 2.609 1.536 4.05 1.536 1.689 0 3.37-.696 4.578-2.06l10.232-11.558c2.239-2.528 2.003-6.391-.524-8.628z"/><path d="m239.821 420.853c-2.527-2.237-6.389-2.003-8.628.526l-10.232 11.559c-2.237 2.527-2.002 6.39.526 8.628 1.163 1.03 2.608 1.535 4.049 1.535 1.689 0 3.37-.696 4.579-2.061l10.232-11.559c2.237-2.527 2.002-6.39-.526-8.628z"/></g><g><path d="m50.496 345.948-8.368 23.529c-.358 1.007-1.068 1.806-1.963 2.209l-20.905 9.418c-2.953 1.331-2.953 6.036 0 7.367l20.905 9.418c.895.403 1.604 1.202 1.963 2.209l8.368 23.53c1.182 3.324 5.363 3.324 6.545 0l8.368-23.53c.358-1.007 1.067-1.806 1.963-2.209l20.905-9.418c2.953-1.331 2.953-6.036 0-7.367l-20.905-9.418c-.895-.403-1.604-1.202-1.963-2.209l-8.368-23.529c-1.182-3.324-5.363-3.324-6.545 0z" fill="#98e8f2"/><path d="m343.352 29.511-6.207 17.454c-.266.747-.792 1.339-1.456 1.639l-15.507 6.986c-2.191.987-2.191 4.478 0 5.465l15.507 6.986c.664.299 1.19.891 1.456 1.639l6.207 17.454c.877 2.466 3.978 2.466 4.855 0l6.207-17.454c.266-.747.792-1.34 1.456-1.639l15.507-6.986c2.191-.987 2.191-4.477 0-5.465l-15.507-6.986c-.664-.299-1.19-.891-1.456-1.639l-6.207-17.454c-.878-2.465-3.979-2.465-4.855 0z" fill="#98e8f2"/><g fill="#75b7f2"><circle cx="230.654" cy="18.272" r="18.272"/><ellipse cx="151.946" cy="324.249" rx="7.882" ry="7.882" transform="matrix(.707 -.707 .707 .707 -184.774 202.412)"/></g></g></g></svg>