<svg id="Capa_1" enable-background="new 0 0 512 512" height="512" viewBox="0 0 512 512" width="512" xmlns="http://www.w3.org/2000/svg"><g><g><path d="m303.027 92.937-24.706-42.014v-25.947c0-8.217-6.661-14.878-14.878-14.878h-8.688c-8.217 0-14.878 6.661-14.878 14.878v25.948l-24.238 42.014h87.388z" fill="#ad84e6"/><path d="m310.534 179.344h-102.401v-80.126c0-7.166 5.809-12.975 12.975-12.975h76.451c7.166 0 12.975 5.809 12.975 12.975z" fill="#ad84e6"/><path d="m313.357 501.902h-109.418c-21.656 0-39.534-16.928-40.716-38.551l-11.561-211.46c-3.12-57.081 42.324-105.078 99.491-105.078h16.36c57.421 0 102.958 48.407 99.453 105.721l-12.908 211.08c-1.316 21.514-19.147 38.288-40.701 38.288z" fill="#ffa785"/><path d="m285.732 148.473c-3.098 1.255-6.208 2.477-9.333 3.651 32.658 12.37 55.223 44.906 52.957 81.956l-10.655 174.233c-1.086 17.758-15.805 31.604-33.596 31.604h-90.318c-15.673 0-28.947-10.742-32.638-25.42h-1.597l2.671 48.854c1.182 21.623 19.061 38.551 40.716 38.551h109.418c21.554 0 39.385-16.774 40.701-38.288l12.908-211.08c3.125-51.096-32.73-95.112-81.234-104.061z" fill="#ff7d87"/><path d="m265.995 333.808c-5.677 35.258-43.34 58.517-43.34 58.517s-28.458-33.906-22.781-69.164 43.34-58.517 43.34-58.517 28.459 33.906 22.781 69.164z" fill="#00ebc4"/><path d="m293.707 399.854c-26.383 17.893-64.55 7.66-64.55 7.66s4.61-39.244 30.994-57.138c26.384-17.893 64.55-7.66 64.55-7.66s-4.61 39.245-30.994 57.138z" fill="#00ebc4"/><g fill="#fff"><path d="m217.517 368.526-19.456 25.205c-9.884 12.804-.757 31.379 15.418 31.379h38.913c16.175 0 25.302-18.575 15.418-31.379l-19.456-25.205c-7.798-10.1-23.04-10.1-30.837 0z"/><path d="m193.966 260.492c-5.577 0-10.098-4.52-10.099-10.097-.001-11.271 1.993-21.659 5.927-30.876 2.189-5.129 8.121-7.513 13.251-5.324s7.513 8.122 5.324 13.251c-2.858 6.696-4.306 14.417-4.305 22.947 0 5.577-4.521 10.099-10.098 10.099z"/><path d="m230.651 202.884c-3.938 0-7.68-2.318-9.307-6.175-2.168-5.138.239-11.061 5.377-13.229 3.462-1.461 6.428-2.458 9.337-3.139 5.429-1.272 10.862 2.099 12.134 7.529s-2.098 10.863-7.529 12.135c-1.769.415-3.705 1.076-6.09 2.083-1.282.54-2.613.796-3.922.796z"/></g></g><g fill="#4e0325"><path d="m347.441 171.262c-7.96-8.461-16.993-15.475-26.81-20.924v-51.12c0-9.837-6.189-18.25-14.877-21.563l-17.336-29.48v-23.199c.001-13.772-11.203-24.976-24.975-24.976h-8.688c-13.772 0-24.977 11.204-24.977 24.976v23.244l-17.015 29.493c-8.609 3.352-14.729 11.724-14.729 21.505v51.12c-9.718 5.394-18.668 12.322-26.568 20.666-20.935 22.112-31.55 51.034-29.887 81.438l11.56 211.459c1.475 26.972 23.788 48.099 50.8 48.099h109.418c26.837 0 49.142-20.983 50.78-47.77l12.908-211.08c1.867-30.528-8.647-59.61-29.604-81.888zm-98.817-115.292c.885-1.534 1.351-3.274 1.351-5.046v-25.948c0-2.636 2.145-4.78 4.781-4.78h8.688c2.636 0 4.78 2.144 4.78 4.78v25.948c0 1.8.481 3.567 1.393 5.118l11.822 20.103h-44.454zm-30.393 43.248c0-1.586 1.291-2.877 2.878-2.877h76.45c1.587 0 2.878 1.291 2.878 2.877v42.469c-10.492-3.274-21.555-4.972-32.923-4.972h-16.361c-11.364 0-22.428 1.698-32.922 4.973zm138.656 152.7-12.908 211.08c-.988 16.153-14.439 28.806-30.622 28.806h-109.418c-16.289 0-29.744-12.74-30.633-29.004l-11.56-211.46c-1.357-24.809 7.304-48.408 24.387-66.451 17.083-18.042 40.174-27.978 65.02-27.978h16.361c24.957 0 48.119 10.011 65.218 28.189 17.1 18.177 25.679 41.908 24.155 66.818z"/><path d="m326.27 336.864c-1.395-.374-29.267-7.612-54.94 1.289.242-1.116.464-2.241.647-3.382 6.048-37.562-22.887-72.551-24.122-74.023-1.935-2.305-5.268-2.839-7.824-1.26-1.634 1.009-40.091 25.147-46.139 62.709-3.226 20.035 3.499 39.325 10.666 53.199l-11.295 14.633c-5.995 7.766-7.031 18.061-2.704 26.866 4.326 8.805 13.107 14.275 22.918 14.275h38.913c9.81 0 18.592-5.47 22.918-14.275.488-.992.897-2.006 1.249-3.03 7.043-1.78 14.086-4.613 20.549-8.996 28.351-19.227 33.409-59.731 33.61-61.445.353-2.988-1.541-5.781-4.446-6.56zm-120.413-12.74c4.031-25.036 26.313-43.99 36.021-51.179 6.964 9.877 22.167 34.865 18.136 59.9-1.635 10.154-6.277 19.296-11.859 27.069-3.345-2.493-7.251-4.118-11.424-4.734l4.944-38.068c.431-3.318-1.91-6.358-5.228-6.789-3.309-.427-6.357 1.91-6.788 5.228l-5.3 40.807c-4.476 1.587-8.45 4.422-11.486 8.28-5.232-11.54-9.351-26.015-7.016-40.514zm58.578 87.427c-2.309 4.697-6.81 7.501-12.043 7.501h-38.913c-5.233 0-9.736-2.804-12.044-7.501-2.307-4.697-1.776-9.975 1.422-14.118l19.456-25.205h-.001c2.561-3.317 6.433-5.219 10.622-5.219 4.19 0 8.062 1.902 10.623 5.219l19.456 25.205c3.198 4.143 3.73 9.421 1.422 14.118zm25.871-16.711c-4.001 2.714-8.34 4.698-12.788 6.137-.727-3.899-2.368-7.652-4.913-10.948l-16.138-20.907c3.468-4.584 6.705-9.652 9.366-15.169 17.933-10.671 41.431-8.307 51.883-6.5-2.28 10.83-9.241 35.065-27.41 47.387z"/><path d="m322.483 316.806c3.346 0 6.059-2.713 6.059-6.059v-16.625c0-3.346-2.713-6.059-6.059-6.059s-6.059 2.713-6.059 6.059v16.625c.001 3.346 2.714 6.059 6.059 6.059z"/><path d="m293.156 431.147c-3.346 0-6.059 2.713-6.059 6.059v16.625c0 3.346 2.713 6.059 6.059 6.059s6.059-2.713 6.059-6.059v-16.625c0-3.346-2.713-6.059-6.059-6.059z"/></g><g><path d="m65.971 94.967-8.295 23.324c-.355.999-1.058 1.79-1.945 2.19l-20.722 9.336c-2.928 1.319-2.928 5.984 0 7.303l20.722 9.336c.887.4 1.59 1.191 1.945 2.19l8.295 23.324c1.172 3.295 5.316 3.295 6.488 0l8.295-23.324c.355-.999 1.058-1.79 1.946-2.19l20.722-9.336c2.928-1.319 2.928-5.983 0-7.303l-20.722-9.336c-.887-.4-1.59-1.191-1.946-2.19l-8.295-23.324c-1.172-3.295-5.316-3.295-6.488 0z" fill="#ffc8b7"/><path d="m383.575 22.958-6.153 17.301c-.264.741-.785 1.328-1.443 1.624l-15.371 6.925c-2.172.979-2.172 4.438 0 5.417l15.371 6.925c.658.296 1.18.883 1.443 1.624l6.153 17.301c.869 2.444 3.943 2.444 4.813 0l6.153-17.301c.263-.741.785-1.328 1.443-1.624l15.371-6.925c2.171-.978 2.171-4.438 0-5.417l-15.371-6.925c-.658-.297-1.18-.884-1.443-1.624l-6.153-17.301c-.87-2.444-3.944-2.444-4.813 0z" fill="#ffc8b7"/><g fill="#ffa785"><ellipse cx="461.075" cy="146.813" rx="18.112" ry="18.112" transform="matrix(.993 -.122 .122 .993 -14.484 57.436)"/><path d="m124.03 56.285c0 4.315 3.498 7.813 7.813 7.813s7.813-3.498 7.813-7.813-3.498-7.813-7.813-7.813-7.813 3.498-7.813 7.813z"/></g></g></g></svg>