<svg id="Capa_1" enable-background="new 0 0 512 512" height="512" viewBox="0 0 512 512" width="512" xmlns="http://www.w3.org/2000/svg"><g><g><path d="m16.575 495.433c-8.409-8.408-8.409-22.041 0-30.45l259.001-259.001 30.45 30.45-259.001 259.001c-8.408 8.408-22.041 8.408-30.45 0z" fill="#fff2a5"/><path d="m213.199 252.303c-31.349 7.336-52.199-2.142-56.128-18.932s10.551-34.534 41.9-41.87 71.626 15.305 71.626 15.305-26.049 38.161-57.398 45.497z" fill="#fff"/><path d="m259.881 298.985c-7.336 31.349 2.142 52.198 18.932 56.127s34.534-10.55 41.87-41.9c7.336-31.349-15.305-71.626-15.305-71.626s-38.161 26.05-45.497 57.399z" fill="#fff"/><path d="m259.881 298.985c-7.336 31.349 2.142 52.198 18.932 56.127s34.534-10.55 41.87-41.9c7.336-31.349-15.305-71.626-15.305-71.626s-38.161 26.05-45.497 57.399z" fill="#ffc0fe"/><path d="m258.771 297.392c-22.766 22.766-45.478 25.71-57.671 13.517s-9.249-34.905 13.517-57.671 68.927-24.772 68.927-24.772-2.007 46.16-24.773 68.926z" fill="#fff"/><path d="m467.548 228.401c-50.794 50.794-141.471 59.118-192.265 8.324s-42.47-141.471 8.324-192.265 124.823-42.47 175.617 8.324 59.118 124.823 8.324 175.617z" fill="#fff"/><circle cx="351.374" cy="160.634" fill="#ff8cc0" r="94.003"/><path d="m459.224 52.784c-50.794-50.794-124.823-59.118-175.617-8.324-.339.339-.669.687-1.004 1.029 38.381-37.294 93.717-30.781 131.793 7.294 38.415 38.415 44.71 94.403 6.295 132.818s-106.993 44.71-145.408 6.295c-33.826-33.826-32.98-91.035-6.07-130.449-37.483 52.172-39.462 129.745 6.07 175.277 50.794 50.794 141.471 42.47 192.265-8.324 50.794-50.793 42.47-124.822-8.324-175.616z" fill="#ffc0fe"/><path d="m444.075 145.161c-3.621 14.491-11.282 28.339-23.384 40.441-38.415 38.415-106.993 44.71-145.408 6.295-7.682-7.682-13.557-16.578-17.763-26.19 1.2 22.339 10.321 44.333 27.385 61.397 36.711 36.711 96.23 36.711 132.94 0 22.305-22.306 31.031-53.029 26.23-81.943z" fill="#ff68c1"/></g><g fill="#4e0325"><path d="m511.726 139.91c-2.264-33.956-18.332-67.476-45.242-94.386-26.911-26.91-60.431-42.978-94.386-45.242-35.561-2.368-69.574 10.739-95.753 36.918-26.469 26.469-42.96 63.935-45.247 102.791-.868 14.75.298 28.985 3.363 42.394-12.121-2.67-25.445-3.779-37.83-.88-40.764 9.539-54.263 34.099-49.559 54.208 2.786 11.905 11.389 21.069 24.225 25.807 6.213 2.293 13.283 3.468 20.975 3.542-3.32 5.607-5.708 11.247-7.097 16.802l-175.859 175.858c-6.008 6.006-9.316 13.991-9.316 22.486s3.308 16.48 9.315 22.486c6.2 6.199 14.341 9.299 22.485 9.298 8.143 0 16.288-3.1 22.487-9.298l175.861-175.862c5.591-1.398 11.269-3.806 16.911-7.159.098 26.473 13.469 41.707 29.415 45.438 2.609.611 5.223.913 7.822.913 9.256 0 18.291-3.831 26.054-11.171 9.355-8.848 16.386-22.438 20.332-39.3 2.909-12.431 1.779-25.809-.913-37.968 10.471 2.381 21.445 3.605 32.776 3.605 3.131 0 6.293-.093 9.475-.28 38.855-2.287 76.321-18.778 102.79-45.247 26.178-26.18 39.289-60.185 36.916-95.753zm-98.237 82.837c-16.592 16.591-38.651 25.729-62.114 25.729-15.865 0-31.08-4.191-44.405-12.025 3.65.262 7.258.408 10.812.408 28.545 0 53.942-8.467 75.79-25.318 2.694-2.079 3.194-5.947 1.116-8.641-2.079-2.696-5.95-3.193-8.641-1.116-26.798 20.668-59.773 27.271-98.03 19.659-.46-.479-.926-.955-1.374-1.442 8.381-37.328 26.547-70.165 49.837-89.422 2.622-2.168 2.99-6.052.822-8.674s-6.052-2.99-8.674-.822c-23.237 19.214-41.72 50.542-51.555 86.421-8.805-13.898-13.542-30.015-13.542-46.868 0-23.463 9.138-45.522 25.73-62.114 16.591-16.591 38.649-25.728 62.113-25.728 23.463 0 45.522 9.137 62.113 25.728 34.25 34.248 34.25 89.976.002 124.225zm-189.578 84.453c-4.542.932-10.929 1.071-15.55-3.553-4.622-4.621-4.483-11.007-3.553-15.55 1.748-8.539 7.81-18.341 17.069-27.599 11.148-11.148 29.542-16.649 43.427-19.327.891.95 1.794 1.891 2.718 2.814.927.927 1.873 1.833 2.827 2.728-2.886 14.604-8.68 32.758-19.34 43.417-9.258 9.26-19.059 15.322-27.598 17.07zm-56.841-76.168c-2.811-12.013 11.269-24.157 34.24-29.533 3.627-.849 7.43-1.216 11.298-1.216 10.045 0 20.521 2.481 29.487 5.454 1.797 4.14 3.804 8.164 6.015 12.059-3.119 3.244-6.653 6.629-10.5 9.835-9.155 3.432-18.283 8.113-25.944 14.466-.269.068-.537.144-.807.207-12.75 2.983-24.275 2.964-32.452-.054-4.35-1.604-9.848-4.854-11.337-11.218zm-127.305 257.14c-4.394 4.391-11.539 4.391-15.929 0-2.128-2.127-3.3-4.956-3.3-7.964s1.172-5.836 3.3-7.964l163.384-163.385c1.642 3.412 3.85 6.542 6.618 9.31 2.768 2.769 5.899 4.975 9.311 6.617zm270.919-177.298c-2.983 12.749-8.113 23.069-14.447 29.059-3.368 3.185-8.719 6.671-15.084 5.183-12.013-2.811-16.649-20.818-11.273-43.79.103-.441.22-.88.338-1.32 6.048-7.395 10.558-16.135 13.912-24.919 3.346-4.066 6.904-7.792 10.306-11.06 3.871 2.187 7.868 4.172 11.98 5.952 4.133 12.437 7.328 27.818 4.268 40.895zm149.603-89.733c-25.952 25.952-62.136 39.199-96.989 39.198-.677 0-1.352-.011-2.028-.021 23.017-2.242 44.365-12.291 60.931-28.857h.001c39.053-39.054 39.053-102.599-.001-141.653-18.918-18.918-44.071-29.337-70.826-29.337s-51.908 10.419-70.826 29.337c-16.565 16.565-26.614 37.91-28.858 60.925-.523-35.469 12.723-72.557 39.177-99.011 20.731-20.731 46.611-30.983 73.316-30.983 30.311 0 61.685 13.213 87.779 39.307 49.084 49.083 52.585 116.833 8.324 161.095z"/><path d="m361.972 184.675c-3.402 0-6.161-2.759-6.161-6.161v-15.56c0-3.402 2.759-6.161 6.161-6.161s6.161 2.759 6.161 6.161v15.56c0 3.402-2.759 6.161-6.161 6.161z"/><path d="m399.819 154.533c-3.402 0-6.161-2.759-6.161-6.161v-15.559c0-3.402 2.759-6.161 6.161-6.161s6.161 2.759 6.161 6.161v15.559c0 3.403-2.759 6.161-6.161 6.161z"/></g><g><path d="m140.407 39.107-8.435 23.717c-.361 1.016-1.076 1.82-1.978 2.227l-21.072 9.494c-2.977 1.341-2.977 6.084 0 7.426l21.072 9.494c.902.407 1.617 1.211 1.978 2.227l8.435 23.717c1.192 3.351 5.406 3.351 6.597 0l8.435-23.717c.361-1.015 1.076-1.82 1.978-2.227l21.072-9.494c2.977-1.341 2.977-6.084 0-7.426l-21.072-9.494c-.902-.407-1.617-1.211-1.978-2.227l-8.435-23.717c-1.191-3.351-5.405-3.351-6.597 0z" fill="#ffc5dd"/><path d="m30.337 107.536-6.257 17.593c-.268.753-.798 1.35-1.467 1.652l-15.631 7.042c-2.208.995-2.208 4.513 0 5.508l15.631 7.042c.669.301 1.199.898 1.467 1.652l6.257 17.593c.884 2.485 4.01 2.485 4.894 0l6.257-17.593c.268-.753.798-1.35 1.467-1.652l15.631-7.042c2.208-.995 2.208-4.513 0-5.508l-15.631-7.042c-.669-.301-1.2-.898-1.467-1.652l-6.257-17.593c-.885-2.486-4.01-2.486-4.894 0z" fill="#ffc5dd"/><g fill="#ff8cc0"><ellipse cx="56.546" cy="283.007" rx="18.418" ry="18.418" transform="matrix(.987 -.16 .16 .987 -44.602 12.712)"/><path d="m67.36 26.604c0 4.388 3.557 7.945 7.945 7.945s7.945-3.557 7.945-7.945-3.557-7.945-7.945-7.945-7.945 3.557-7.945 7.945z"/></g></g></g></svg>