<svg id="Capa_1" enable-background="new 0 0 512 512" height="512" viewBox="0 0 512 512" width="512" xmlns="http://www.w3.org/2000/svg"><g><g><g fill="#e79d8e"><ellipse cx="385.412" cy="134.496" rx="21.752" ry="32.923" transform="matrix(.707 -.707 .707 .707 17.781 311.919)"/><path d="m452.247 201.332c-8.495 8.495-25.804 4.958-38.661-7.899s-16.394-30.166-7.899-38.661 25.804-4.958 38.661 7.899 16.394 30.166 7.899 38.661z"/><path d="m77.267 372.939-22.647-22.647c-4.621-4.62-4.406-12.161.453-16.531 92.09-82.814 179.542-170.266 262.356-262.356 4.369-4.859 11.91-5.073 16.531-.453l22.638 22.638c4.282 4.282 4.473 11.177.423 15.68-85.132 94.634-173.221 182.533-264.09 264.105-4.503 4.042-11.386 3.842-15.664-.436z"/><path d="m180.254 475.926 22.647 22.647c4.62 4.62 12.161 4.406 16.531-.453 82.813-92.09 170.266-179.542 262.356-262.356 4.859-4.369 5.073-11.91.452-16.531l-22.638-22.638c-4.282-4.282-11.177-4.473-15.679-.423-94.634 85.13-182.533 173.22-264.105 264.089-4.042 4.504-3.842 11.387.436 15.665z"/><path d="m84.128 408.346-22.647-22.647c-4.621-4.62-4.406-12.161.452-16.531 92.09-82.813 179.542-170.266 262.356-262.356 4.369-4.859 11.91-5.073 16.531-.452l22.638 22.638c4.282 4.282 4.473 11.177.423 15.68-85.13 94.633-173.22 182.533-264.089 264.105-4.502 4.042-11.385 3.842-15.664-.437z"/><path d="m131.837 456.055 22.647 22.647c4.62 4.621 12.161 4.406 16.531-.453 82.813-92.09 170.266-179.542 262.356-262.356 4.859-4.369 5.073-11.91.453-16.531l-22.638-22.638c-4.282-4.282-11.178-4.473-15.68-.423-94.633 85.131-182.533 173.22-264.105 264.089-4.042 4.504-3.842 11.387.436 15.665z"/><path d="m104.928 451.543-22.647-22.647c-4.62-4.621-4.406-12.162.452-16.531 92.09-82.813 179.542-170.266 262.356-262.356 4.369-4.859 11.91-5.073 16.531-.453l22.638 22.638c4.282 4.282 4.473 11.177.423 15.679-85.131 94.634-173.22 182.533-264.089 264.105-4.502 4.043-11.385 3.844-15.664-.435z"/></g><path d="m340.009 381.862c-66.665-45.787-122.891-102.012-168.677-168.677-3.79-5.518-3.092-12.962 1.642-17.696 6.048-6.048 16.088-5.26 21.083 1.684 45.176 62.8 99.164 116.788 161.964 161.965 6.944 4.995 7.733 15.034 1.684 21.083-4.734 4.732-12.178 5.43-17.696 1.641z" fill="#fff2a5"/><path d="m320.096 90.486c3.77 3.77 3.938 9.841.372 13.805-1.849 2.056 1.835 4.379 4.501 1.714 6.931-6.93 20.523-4.759 31.487 4.603-.008-.429.16-.888.564-1.337 4.05-4.502 3.859-11.397-.423-15.679l-22.638-22.639c-4.62-4.62-12.161-4.406-16.531.453-2.59 2.88-5.199 5.743-7.798 8.614z" fill="#df768f"/><path d="m293.342 346.693c-32.054 32.604-63.398 65.917-94.012 99.96-3.847 4.278-10.486 4.466-14.555.398l-19.939-19.94c-1.205-1.204-2.038-2.645-2.503-4.176-1.876 2.076-3.761 4.142-5.632 6.221-3.847 4.278-10.486 4.467-14.555.398l-28.163-28.162c-2.794-2.794-3.607-6.849-2.392-10.375-2.503 2.262-5.001 4.535-7.509 6.786-3.964 3.558-10.024 3.383-13.791-.385l-11.716-11.715c-4.068-4.068-3.879-10.708.398-14.555.878-.79 1.75-1.587 2.627-2.378-.492-.34-.962-.724-1.399-1.161l-19.94-19.94c-4.068-4.069-3.879-10.707.398-14.554 1.787-1.608 3.56-3.228 5.343-4.838l-2.317-2.317c-2.871 2.599-5.734 5.208-8.614 7.798-4.859 4.369-5.073 11.91-.453 16.53l13.383 13.383c-2.025 1.829-4.04 3.669-6.069 5.494-4.859 4.369-5.073 11.91-.452 16.531l22.647 22.647c.496.496 1.03.932 1.589 1.318-.997.898-1.986 1.804-2.984 2.701-4.859 4.369-5.073 11.91-.452 16.531l22.647 22.646c4.278 4.279 11.162 4.479 15.664.437 2.848-2.557 5.686-5.138 8.528-7.708-1.381 4.006-.457 8.61 2.716 11.784l22.647 22.646c4.62 4.621 12.161 4.407 16.531-.452 2.125-2.362 4.265-4.709 6.396-7.065.529 1.738 1.475 3.374 2.843 4.742l22.647 22.647c4.62 4.62 12.161 4.406 16.531-.453 37.063-41.215 75.062-81.492 113.983-120.849-13.815-9.73-27.17-19.926-40.071-30.575z" fill="#df768f"/><path d="m482.241 219.235-22.638-22.638c-1.006-1.006-2.159-1.777-3.388-2.329 2.412-9.126-1.953-21.683-11.867-31.597-9.958-9.958-22.584-14.32-31.72-11.836 2.484-9.135-1.877-21.762-11.836-31.72-12.857-12.857-30.166-16.393-38.661-7.899-1.158 1.158-2.483 1.483-3.564 1.317.146.142.295.28.44.425 8.768 8.768 12.607 19.885 10.421 27.928 3.283 5.338 9.402 11.28 18.17 20.048 8.728 8.73 22.329 10.156 20.206 18.191 1.082.486 2.097 1.165 2.983 2.051l19.931 19.931c4.068 4.068 3.879 10.707-.398 14.555-39.874 35.857-78.754 72.708-116.653 110.54 12.825 10.765 26.07 21.108 39.736 31.031 41.748-41.537 84.534-82.036 128.385-121.47 4.859-4.367 5.073-11.908.453-16.528z" fill="#df768f"/><path d="m332.67 210.17c-2.26 0-4.533-.755-6.414-2.305-4.302-3.546-4.915-9.907-1.369-14.209 1.389-1.685 2.769-3.376 4.141-5.074 3.503-4.336 9.858-5.012 14.194-1.508 4.337 3.503 5.012 9.858 1.509 14.194-1.413 1.75-2.836 3.492-4.266 5.228-1.996 2.421-4.884 3.674-7.795 3.674z" fill="#fff"/><path d="m287.727 259.069c-2.642 0-5.28-1.031-7.261-3.081-3.873-4.01-3.762-10.399.248-14.272 7.996-7.724 16.045-16.023 23.923-24.67 3.755-4.12 10.139-4.417 14.259-.662s4.417 10.139.662 14.259c-8.167 8.962-16.517 17.573-24.821 25.592-1.958 1.893-4.486 2.834-7.01 2.834z" fill="#fff"/></g><path d="m489.378 212.098-22.425-22.425c.222-11.155-5.115-23.787-15.467-34.139-8.625-8.624-18.832-13.768-28.45-15.12-.109-.78-.235-1.562-.397-2.352-1.884-9.218-7.107-18.482-14.708-26.082-11.709-11.708-26.337-17.013-38.444-15.105-.87-3.824-2.785-7.454-5.752-10.421l-22.638-22.638c-4.148-4.147-9.896-6.435-15.751-6.281-5.871.156-11.492 2.751-15.422 7.122-37.77 42-76.806 83.25-116.802 123.582-2.61-1.579-5.577-2.561-8.7-2.814-5.849-.464-11.582 1.635-15.729 5.782-6.523 6.522-7.684 16.608-2.974 24.409-38.359 37.846-77.547 74.807-117.395 110.641-4.37 3.931-6.966 9.553-7.122 15.424-.155 5.862 2.134 11.603 6.281 15.749l5.985 5.984c-3.322 3.764-5.271 8.623-5.404 13.673-.155 5.862 2.134 11.603 6.281 15.75l17.362 17.361c-1.744 3.058-2.749 6.523-2.843 10.086-.155 5.862 2.134 11.603 6.281 15.749l22.647 22.646c4.188 4.189 9.693 6.301 15.209 6.3 3.698 0 7.395-.965 10.706-2.875.321.369.644.736.995 1.087v.001l22.648 22.647c4.015 4.015 9.523 6.289 15.189 6.289.187 0 .374-.003.561-.008 5.05-.134 9.909-2.083 13.672-5.404l18.995 18.994c4.015 4.015 9.523 6.289 15.189 6.289.187 0 .374-.003.561-.008 5.871-.156 11.492-2.752 15.422-7.122 35.832-39.845 72.796-79.027 110.642-117.384 3.179 1.917 6.734 2.868 10.277 2.868 5.151 0 10.267-1.988 14.13-5.851 4.149-4.149 6.256-9.882 5.783-15.73-.254-3.129-1.238-6.1-2.823-8.714 40.332-39.993 81.591-79.018 123.591-116.788 4.371-3.931 6.967-9.552 7.122-15.424.154-5.861-2.136-11.602-6.283-15.748zm-43.41-28.198c-3.122.835-6.096 2.387-8.668 4.665l-18.978-18.977c-2.048-2.047-4.411-3.594-6.935-4.645.251-1.293.739-2.335 1.438-3.034 1.057-1.058 2.885-1.643 5.203-1.643 5.053 0 12.428 2.786 19.184 9.542 4.243 4.243 7.357 9.289 8.756 14.092zm-152.713 116.248c33.616-34.447 66.656-69.645 98.93-105.522 1.252-1.392 2.268-2.913 3.093-4.505 2.326-2.105 4.646-4.217 6.978-6.314.514-.461 1.301-.436 1.793.056l22.639 22.638c.259.259.385.576.376.94-.01.376-.158.694-.44.948-38.981 35.055-77.316 71.199-114.881 108.176-6.257-5.373-12.432-10.832-18.488-16.417zm63.066-164.012c.067.067.103.149.153.226-1.145-.159-2.301-.251-3.467-.223-5.871.156-11.492 2.751-15.422 7.122-31.407 34.926-63.7 69.328-96.678 103.125-5.489-6.27-10.887-12.625-16.157-19.095 36.582-37.199 72.348-75.147 107.044-113.728.254-.283.574-.432.948-.442h.039c.349 0 .652.126.902.377zm-3.727 20.623c.254-.283.573-.431.948-.441.013-.001.026-.001.039-.001.349 0 .653.127.902.376l22.638 22.638c.493.492.517 1.279.056 1.792-32.148 35.736-65.06 70.792-98.544 105.099-8.263-8.072-16.338-16.333-24.195-24.804 33.488-34.294 66.276-69.208 98.156-104.659zm41.062-30.506c4.765 4.765 8.12 10.542 9.204 15.849.099.482.213 1.155.286 1.921-1.646 1.01-3.19 2.206-4.596 3.612-1.402 1.402-2.604 2.936-3.612 4.577-4.957-.463-11.62-3.322-17.769-9.472-.293-.293-.553-.589-.831-.884 1.594-6.985-.332-14.585-5.742-19.995l-2.201-2.201c.242-.507.526-.957.874-1.306 1.057-1.057 2.885-1.642 5.202-1.642 5.053 0 12.428 2.785 19.185 9.541zm-68.723-48.099c.254-.282.573-.43.947-.44.013-.001.026-.001.039-.001.349 0 .653.126.902.376l21.097 21.097c-4.144-4.123-9.861-6.408-15.71-6.245-5.871.156-11.493 2.751-15.424 7.123-33.928 37.729-68.886 74.847-104.631 111.246-1.964-2.559-3.926-5.12-5.857-7.707 40.631-40.932 80.287-82.804 118.637-125.449zm-263.112 263.112c39.249-35.294 77.866-71.67 115.683-108.91 1.948 2.668 3.911 5.323 5.896 7.957-37.58 37.399-75.992 73.941-115.052 109.433l-6.592-6.591c-.259-.259-.385-.576-.375-.94.01-.377.158-.695.44-.949zm6.421 36.355c.01-.375.158-.693.44-.947 43.244-38.887 85.718-79.09 127.201-120.317 5.26 6.553 10.635 13.001 16.131 19.335-41.096 41.156-83.209 81.298-126.096 120.171l-17.3-17.3c-.259-.26-.385-.577-.376-.942zm43.823 66.786v-.001l-22.648-22.647c-.259-.259-.385-.576-.376-.94.01-.376.158-.694.44-.948 46.316-41.65 91.75-84.804 136.023-129.114 7.839 8.491 15.893 16.773 24.167 24.833-44.425 44.478-89.794 87.559-135.823 128.879-.506.457-1.29.429-1.783-.062zm50.498 27.534c-.354.033-.683-.115-.941-.376l-22.622-22.622c42.439-38.459 84.3-78.375 125.352-119.489 5.976 5.474 12.053 10.842 18.236 16.098-40.792 41.086-80.581 83.138-119.077 125.948-.254.283-.573.431-.948.441zm49.364 19.431c-.254.283-.573.431-.947.441-.352.03-.682-.116-.941-.376l-19.602-19.602c34.975-38.488 70.974-76.343 107.803-113.399 7.398 5.906 14.936 11.66 22.607 17.261-37.241 37.816-73.625 76.427-108.92 115.675zm141.495-115.434c-2.676 2.675-6.875 3.068-9.985.931h.001c-65.74-45.151-121.965-101.377-167.114-167.115-2.135-3.109-1.744-7.308.932-9.984 1.632-1.632 3.881-2.456 6.187-2.274 2.319.188 4.342 1.329 5.697 3.212 45.347 63.038 100.304 117.995 163.344 163.344 1.884 1.355 3.025 3.379 3.213 5.698.186 2.302-.643 4.556-2.275 6.188zm121.617-147.677c-42.647 38.35-84.522 78.001-125.455 118.632-7.548-5.632-14.973-11.409-22.273-17.325 36.899-36.28 74.54-71.754 112.81-106.168 4.371-3.931 6.966-9.553 7.122-15.424.01-.396.008-.792-.004-1.186 1.146-1.037 2.286-2.079 3.435-3.112.513-.46 1.301-.437 1.792.056l22.639 22.638c.259.259.385.576.376.94-.011.376-.16.695-.442.949z" fill="#4e0325"/><g><path d="m164.062 2.47-8.291 23.313c-.355.998-1.058 1.789-1.945 2.189l-20.713 9.332c-2.926 1.319-2.926 5.981 0 7.299l20.713 9.332c.887.4 1.59 1.191 1.945 2.189l8.291 23.313c1.171 3.294 5.314 3.294 6.485 0l8.291-23.313c.355-.998 1.058-1.789 1.945-2.189l20.713-9.332c2.926-1.318 2.926-5.981 0-7.299l-20.713-9.332c-.887-.4-1.59-1.191-1.945-2.189l-8.291-23.313c-1.171-3.293-5.314-3.293-6.485 0z" fill="#ffc5dd"/><path d="m55.743 153.934-6.15 17.293c-.263.74-.785 1.327-1.443 1.624l-15.365 6.922c-2.171.978-2.171 4.436 0 5.415l15.365 6.922c.658.296 1.179.883 1.443 1.624l6.15 17.294c.869 2.443 3.941 2.443 4.81 0l6.15-17.294c.263-.74.785-1.327 1.442-1.624l15.365-6.922c2.17-.978 2.17-4.436 0-5.415l-15.365-6.922c-.658-.296-1.179-.883-1.442-1.624l-6.15-17.293c-.868-2.444-3.941-2.444-4.81 0z" fill="#ffc5dd"/><g fill="#ff8cc0"><circle cx="34.437" cy="81.908" r="18.104"/><circle cx="277.745" cy="26.829" r="7.81"/></g></g></g></svg>