<svg id="Layer_1" enable-background="new 0 0 512 512" height="512" viewBox="0 0 512 512" width="512" xmlns="http://www.w3.org/2000/svg"><g><path d="m78.495 192.878c16.447 2.57 25.316-7.874 25.316-7.874-19.365-13.75-25.316 7.874-25.316 7.874z" fill="#b86521"/><path d="m98.523 169.285s-20.443-.084-26.647 15.336c0 7.067 15.167-7.068 26.647 0 11.481 7.066 12.935-12.04 0-15.336z" fill="#c77836"/><path d="m305.838 144.395c-9.637 30.839 20.56 64.249 30.197 73.887 9.637 9.637 22.794 37.976 8.93 42.69-13.864 4.715-28.205 20.917-13.04 32.235 15.166 11.318 45.229-7.142 46.748-16.363 1.519-9.222-1.867-27.449 3.757-59.676 8.352-47.866-.714-101.69-.714-101.69-1.221-12.214-66.241-1.923-75.878 28.917z" fill="#c95f06"/><path d="m217.65 206.532c-4.448-16.648-68.605 13.559-68.605 13.559s38.602 60.766 37.66 69.423c-.942 8.658 3.809 52.159-6.135 53.99s-34.082 16.919-11.374 30.029c11.975 6.914 26.414 2.368 37.72-5.461 10.134-7.017 17.851-16.499 17.359-25.565-1.04-19.18 6.823-55.974 6.624-72.994-.273-23.342.403-14.899-13.249-62.981z" fill="#cbccc6"/><path d="m311.133 284.552c0-5.782 0-11.565 0-17.347-9.637 1.928-17.347-3.855-26.985-5.782 7.71-21.202 0-40.477 0-61.68 0-11.565-11.565-15.42-23.13-13.492 5.782-17.347-9.607-25.822-22.745-35.626s-29.024-8.035-42.648-12.745c-29.357 1.574-49.539 4.696-60.913 8.957-40.289 15.095 28.524 145.613 45.323 141.577s89.165 37.898 125.231 24.085c9.265-3.548 18.054-9.889 26.426-17.656-4.517-7.145-10.65-12.493-20.559-10.291z" fill="#e4e5e1"/><path d="m460.085 154.76c-1.221-12.213-66.241-1.922-75.878 28.917-9.637 30.84 20.56 64.249 30.197 73.887 9.637 9.637 14.456 36.301 7.162 40.156-9.542 4.819-29.395 23.056-14.229 34.374 15.165 11.318 48.187-6.746 49.706-15.968 1.52-9.222-7.464-27.941-1.84-60.168 8.352-47.866 4.882-101.198 4.882-101.198z" fill="#d57a2e"/><path d="m413.968 92.078c-23.772 29.049 25.057 13.629 25.057 13.629s24.415-21.105 20.56-27.258c-3.855-6.152-21.845-15.42-45.617 13.629z" fill="#c77b3a"/><path d="m320.6 263.58c-1.329-4.974-17.226-16.393-27.457-14.693-24.013 3.991-53.497 31.165-53.497 31.165s52.684 61.037 51.742 69.694 2.387 37.2-10.623 43.706c-13.011 6.505-26.419 30.307-3.711 43.417s51.211-18.133 50.17-37.313c-1.041-19.181 6.823-55.974 6.624-72.995-.198-17.021-13.248-62.981-13.248-62.981z" fill="#e4e5e1"/><path d="m54.737 271.432c-.235 13.283 4.026 39.368 18.815 49.078 14.79 9.709 35.557 8.962 44.915 5.641 7.428-2.971 2.093-14.835 4.082-19.905-17.547-19.516-41.76-32.685-67.812-34.814z" fill="#c3c4bd"/><path d="m134.713 146.836c-9.62 1.959-18.346 7.023-26.196 13.355 1.523 7.375 4.333 14.647 6.797 21.219-10.43-3.354-56.755 66.206-59.992 70.226-1.705 4.09-2.737 8.913-2.834 14.303 16.462 1.345 32.183 7.107 45.958 16.084 4.859-26.329 10.514-51.853 30.36-71.7 7.711-7.709 9.638-23.13 21.203-28.912 4.91-2.728 9.938-4.895 15.02-6.548-11.119-17.791-21.93-29.733-30.316-28.027z" fill="#e4e5e1"/><path d="m113.855 168.497c-2.206-8.971-4.615-4.806-5.338-8.306-15.727 12.685-26.021 29.452-34.74 37.718-13.07 12.392 2.81 33.326-10.675 43.27-3.237 2.387-5.913 5.98-7.78 10.456 5.938-.641 9.622-6.201 15.66-4.691 12.007 2.572 16.083-6.768 22.578-17.248 8.102-13.074 17.041-29.454 15.971-44.431 3.855 1.927 1.928-3.856 5.783-3.856-1.295-3.451.747-3.941-1.459-12.912z" fill="#da8b49"/><path d="m123.024 297.059c-5.782 3.856-1.928 15.42-11.565 19.275-9.357 3.32 26.892 18.803 47.375 15.881 41.762-10.457 37.19-40.3 58.306-34.453 0 0-7.032-31.038-22.002-64.366-10.513 29.988-45.581 50.397-72.114 63.663z" fill="#e4e5e1"/><path d="m412.792 85.942c-41.208-23.791-91.791-.464-114.037 14.854-22.245 15.318-41.141 40.312-69.411 38.384-8.242-.562-21.639-1.949-33.719-1.301 13.624 4.711 26.665 6.621 39.707 12.55 9.637 3.855 31.468 18.475 25.686 35.822 11.565-1.928 23.13 1.928 23.13 13.492 0 21.202 7.71 40.477 0 61.68 9.637 1.927 17.347 7.71 26.985 5.782v17.347c9.909-2.202 16.042 3.146 20.56 10.29 14.389-13.35 27.536-30.943 39.7-45.955 4.866-6.005 14.802-16.668 19.381-21.423 1.432-1.292 2.851-2.494 4.255-3.559 24.784-18.809 62.422-10.673 64.973-48.442 2.55-37.769-6.001-65.73-47.21-89.521z" fill="#d57a2e"/><path d="m165.03 174.863c-5.082 1.653-10.11 3.82-15.02 6.548-11.565 5.782-13.492 21.203-21.203 28.912-19.846 19.847-25.501 45.371-30.36 71.7 8.026 5.23 15.394 11.545 21.853 18.729.591-1.508 1.399-2.808 2.724-3.693 6.235-3.117 12.733-2.911 21.761-7.545 7.192-3.692 17.12-12.693 21.608-12.693 10.119 0 12.77-3.614 12.77-3.614s.743-11.597 2.891-13.734c2.072-2.061 8.077-3.513 9.835-5.783 4.031-5.203 5.673-14.36 7.754-20.294-4.937-10.99 1.774-12.76-7.3-33.241s-18.781-25.775-27.313-25.292z" fill="#da8b49"/><path d="m155.31 192.675c-2.682 2.516-.488 10.637 3.829 27.668 8.047 31.739 5.477-27.465 5.477-27.465s-6.99-2.377-9.306-.203z" fill="#b86521"/><path d="m130.515 289.513c-2.027-2.219-4.131-4.389-6.286-6.524-3.307-3.274-5.231-8.73-8.915-11.556-2.458-1.886-7.875-2.78-10.36-4.49-17.648-12.142-34.922-20.748-45.697-17.756-6.705 1.861-8.29 14.133-8.031 22.173 1.187 36.989 13.374 39.28 12.331 37.928-2.935-10.662 6.081-31.965 10.02-18.593 2.698 9.162 4.265 24.549 19.354 38.343 21.459 19.618 59.97 3.543 59.97 3.543-2.123-14.622-5.902-29.694-14.537-40.341-4.498.723-6.102-.815-7.849-2.727z" fill="#e4e5e1"/><path d="m164.616 192.878s-5.423 17.554-3.822 33.185 5.343 23.715 8.961 22.165c4.498-1.928 23.131-14.778 20.252-30.198-2.877-15.42-25.391-25.152-25.391-25.152z" fill="#c77836"/><path d="m74.998 274.894c-14.777-3.856-8.719 12.565-3.474 14.431 5.245 1.865 18.252-10.577 3.474-14.431z" fill="#212120"/><g fill="#40403f"><path d="m139.217 239.893c-4.624.099-9.21 1.663-10.468 3.82-2.434 4.172 2.504 10.42 8.1 11.581 8.491 1.761 15.937-15.69 2.368-15.401z"/><path d="m71.876 218.793c-2.439 2.353-.293 14.69 3.173 15.594 2.489.65 5.901-2.383 5.155-7.653-.428-3.032-5.89-10.294-8.328-7.941z"/></g></g></svg>