<svg height="128" viewBox="0 0 128 128" width="128" xmlns="http://www.w3.org/2000/svg"><g><g><path d="m56.91 80.14s-1.35 1.42-3.33 3.44c-4.24 4.33-11.41 11.4-14.35 12.89l-4.06 18.61s6.21.64 6.32 5.62h-11.28a5.993 5.993 0 0 1 -.54-3.67s.14-13.94-.57-15.9c0 0 3.22-5.02 3.38-5.29.1-.16.26-4.29.36-7.66.08-2.27.12-4.2.1-4.33-.06-.33 10.35-6.54 14.93-6.38a23.008 23.008 0 0 1 9.04 2.67z" fill="#e8c090"/><path d="m109.47 120.7h-13.39a17.048 17.048 0 0 0 .73-2.68 4.343 4.343 0 0 0 .09-.54 13.549 13.549 0 0 0 .17-1.49 9.526 9.526 0 0 0 -.6-4.2c-1.26-2.98-3.63-7.79-4.61-9.76v-.01c-.28-.54-.44-.86-.44-.86l-1.84-20.05 16.38-6.53-1.14 3.9-6.27 21.48 4.11 14.74s6.66.9 6.81 6z" fill="#e8c090"/><path d="m27.084 67.3 3.164-4.086a19.458 19.458 0 0 1 -3.164-9.9c0-5.357 6.593-9.893 10.9-7.467 7.236 4.077 5.508 11.369 14.416 12.892s7.97-4.688 7.97-4.688-3.868.095-3.458-5.461-1.096-11.479-6.852-13.651c0 0 1.249 0 1.358-.76s-4.779-4.073-10.86-3.1c0 0 1.955-.706 1.9-1.466s-9.013-1.249-13.846 4.723c0 0 2.715-2.932 1.249-3.583s-11.674 7.878-11.511 15.263c0 0 .054-2.932-1.032-3.041s-3.1 6.027-1.629 9.5c0 0-.869-1.249-1.466-.651s-.667 11.992 12.861 15.476z" fill="#e8c090"/><path d="m119.27 33.16a11.7 11.7 0 0 1 2.16 7.56l-1.64-.89c.52 2.54-1.13 6.67-1.13 6.67l-1.17-2.06a9.2 9.2 0 0 1 -1.46 4.32l-1.18-2.27c-.13 2.48-3.09 4.53-3.09 4.53.52 1.87-.45 12.23-.45 12.23-.14 2.54-2.61 7.96-2.61 7.96a17.709 17.709 0 0 1 -3.86 7.24 27.4 27.4 0 0 1 -8.57 6.53l-2.75 8.02s-1.1 5.7-1.64 8.99v.01a19.336 19.336 0 0 0 -.29 2.16c0 1.21 2.4 10.77 2.4 10.77a27.372 27.372 0 0 1 3.1 1.03c5.42 2.23 4.52 4.71 4.52 4.71h-14.5a30.787 30.787 0 0 1 .73-4.88s-2-4.47-3.34-8.69a42.867 42.867 0 0 1 -1.6-9.24s-1.36 1.66-2.24 1.61c-.85-.05.62-5.78.72-6.18-.1.09-.66.62-1.11.13-.49-.54 1.11-4.46 1.11-4.46a40.622 40.622 0 0 1 -21.56-2.89c-2.46-1.06-4.64-1.92-6.22-2.52-1.62-.61-2.61-.95-2.61-.95h-11.15a51.255 51.255 0 0 1 -6.98 5.55c-4.04 2.82-8.05 5.27-8.05 5.27-7.19 5.21-8.89 21.95-8.89 21.95 4.42.49 5.32 3.76 4.67 5.3h-9.38a1.331 1.331 0 0 1 -1.34-1.38c.09-3.14 1.58-8.07 1.72-9.84.17-2.07.84-12.12.84-12.12a44.394 44.394 0 0 0 6.9-6.47c1.38-1.81.69-7.26.02-14.04-.25-2.61 1.38-6.76 4.21-10.76a33.912 33.912 0 0 1 5.15-5.75c4.18-3.69 9.34-6.2 14.59-5.37.94.15 1.86.28 2.78.38h.01a67.262 67.262 0 0 0 14.22.24 42.189 42.189 0 0 0 11.59-2.5c5.52-2.23 8.95-8.74 8.95-8.74a15.085 15.085 0 0 1 -.24-4.49l-1.64.89a11.7 11.7 0 0 1 2.16-7.56l-2.73.56s2.07-6.43 4.75-7.98l-3.93.58a9.229 9.229 0 0 1 3.45-2.52l-3.28.05a4.7 4.7 0 0 1 3.08-2.3s-2.23-11.71 1.85-14.85c0 0 6.92 1.64 9.62 7.1a57.948 57.948 0 0 1 6.26.14 57.948 57.948 0 0 1 6.26-.14c2.7-5.46 9.63-7.1 9.63-7.1 4.07 3.14 1.84 14.85 1.84 14.85a4.7 4.7 0 0 1 3.08 2.3l-3.28-.05a9.229 9.229 0 0 1 3.45 2.52l-3.93-.58c2.68 1.55 4.75 7.98 4.75 7.98z" fill="#f5cfa0"/><path d="m100.182 42.5a.249.249 0 0 1 -.25-.25v-2.98a.25.25 0 1 1 .5 0v2.984a.25.25 0 0 1 -.25.246z" fill="#c46c6c"/><path d="m89.631 26.275s1.092-2.053 2.883-1.266 1.878 3.407 1.878 3.407-3.844.874-4.761-2.141z" fill="#bf843b"/><path d="m92.012 20.123c.52-.651 4.968 4.091 4.115 4.706s-4.115-1.852-4.115-2.465.893-.1.893-.1-1.413-1.489-.893-2.141z" fill="#deab6d"/><path d="m95.928 35.832s.238 1.8 1.123 1.872 1-1.311 1.312-1.311c.733 0 .082 2.843 1.818 2.877 1.737-.034 1.086-2.877 1.819-2.877.306 0 .427 1.379 1.312 1.311s1.123-1.872 1.123-1.872c.051-2.844-8.457-2.832-8.507 0z" fill="#bf843b"/><path d="m84.642 20.428a12.1 12.1 0 0 1 6.048-5.586 15.022 15.022 0 0 0 -5.472-5.875s-.951 4.157.038 6.179c0 0-1.395-.214-1.443.271s1.3 1.118 1.3 1.118l.033.6s-1.312-.616-1.539-.065 1 1.846 1 1.846z" fill="#e8c090"/><path d="m110.73 26.275s-1.092-2.053-2.883-1.266-1.878 3.407-1.878 3.407 3.844.874 4.761-2.141z" fill="#bf843b"/><path d="m108.35 20.123c-.52-.651-4.968 4.091-4.115 4.706s4.115-1.852 4.115-2.465-.894-.1-.894-.1 1.414-1.489.894-2.141z" fill="#deab6d"/><path d="m98.188 42.942a3.143 3.143 0 0 1 -.958-.139 8.327 8.327 0 0 1 -2.266-2.121 16.266 16.266 0 0 0 -3.857-3.542c-1.9-.951-2.262-.545-2.264-.54a.24.24 0 0 1 -.318.131.26.26 0 0 1 -.138-.334.608.608 0 0 1 .356-.314 3.706 3.706 0 0 1 2.588.609 16.558 16.558 0 0 1 4.006 3.658 9.157 9.157 0 0 0 2.046 1.976 4.406 4.406 0 0 0 2.681-.294.259.259 0 0 1 .224 0 4.437 4.437 0 0 0 2.691.3 9.118 9.118 0 0 0 2.044-1.976 16.58 16.58 0 0 1 4.007-3.658 3.724 3.724 0 0 1 2.589-.609.609.609 0 0 1 .355.314.25.25 0 0 1 -.457.2c-.028-.029-.427-.375-2.263.542a16.232 16.232 0 0 0 -3.857 3.543 8.3 8.3 0 0 1 -2.265 2.12 4.738 4.738 0 0 1 -2.951-.278 5.608 5.608 0 0 1 -1.993.412z" fill="#c46c6c"/><path d="m115.719 20.428a12.1 12.1 0 0 0 -6.047-5.586 15.02 15.02 0 0 1 5.471-5.875s.952 4.157-.037 6.179c0 0 1.394-.214 1.443.271s-1.3 1.118-1.3 1.118l-.033.6s1.313-.616 1.539-.065-1 1.846-1 1.846z" fill="#e8c090"/><path d="m109.14 36.92s-4.26 5.48-4.79 7.2a11.5 11.5 0 0 1 -1.09 2.88.01.01 0 0 1 -.01.01 3.78 3.78 0 0 1 -6.14.01 11.524 11.524 0 0 1 -1.1-2.9c-.53-1.72-4.79-7.2-4.79-7.2 2.32 1.15 5.02 5.3 6.09 5.64a2.979 2.979 0 0 0 .88.13 5.428 5.428 0 0 0 1.99-.44 4.644 4.644 0 0 0 2.88.31c1.06-.34 3.76-4.49 6.08-5.64z" fill="#c46c6c"/><path d="m100.18 53.042c-2.64 0-3.26-2.2-3.26-4.21a12.413 12.413 0 0 1 .19-2.08c.07-.39.14-.71.2-.92a11.106 11.106 0 0 0 0-3.54 2.979 2.979 0 0 0 .88.13 5.428 5.428 0 0 0 1.99-.44 4.644 4.644 0 0 0 2.88.31 11.106 11.106 0 0 0 0 3.54c.05.2.12.52.19.91.36 2.09.58 6.3-3.07 6.3z" fill="#e07b7b"/><g fill="#deab6d"><path d="m98.271 67.546a.248.248 0 0 1 -.239-.18 11.085 11.085 0 0 0 -2.581-3.989.25.25 0 1 1 .372-.334 11.357 11.357 0 0 1 2.688 4.183.25.25 0 0 1 -.169.31.253.253 0 0 1 -.071.01z"/><path d="m99.024 73.727a.252.252 0 0 1 -.25-.241 6.25 6.25 0 0 0 -2.424-5.112.25.25 0 1 1 .3-.4 6.724 6.724 0 0 1 2.625 5.493.251.251 0 0 1 -.24.26z"/><path d="m81.058 90.788a.239.239 0 0 1 -.083-.015.248.248 0 0 1 -.152-.319l2.213-6.229a2.4 2.4 0 0 1 -2.231.549c-1.167-.552.237-3.76.695-4.73a.25.25 0 0 1 .452.213c-.84 1.779-1.415 3.838-.933 4.066.717.338 1.961-.637 2.379-1.04a.25.25 0 0 1 .41.264l-2.515 7.075a.248.248 0 0 1 -.235.166z"/><path d="m83.574 40.9a.251.251 0 0 1 -.245-.254 4.484 4.484 0 0 1 1.141-3.333.249.249 0 1 1 .35.355 4.049 4.049 0 0 0 -.991 2.987.25.25 0 0 1 -.255.245z"/><path d="m85.266 44a.251.251 0 0 1 -.241-.183 8.37 8.37 0 0 1 -.152-4.024.25.25 0 0 1 .489.1 7.87 7.87 0 0 0 .145 3.787.249.249 0 0 1 -.174.307.218.218 0 0 1 -.067.013z"/><path d="m89.115 47.64a.249.249 0 0 1 -.144-.046c-1.646-1.168-1.54-4.7-1.535-4.848a.269.269 0 0 1 .259-.241.25.25 0 0 1 .241.259c0 .034-.1 3.41 1.324 4.421a.251.251 0 0 1 -.145.455z"/><path d="m116.917 40.9a.25.25 0 0 1 -.25-.245 4.044 4.044 0 0 0 -.991-2.987.25.25 0 1 1 .351-.355 4.479 4.479 0 0 1 1.14 3.333.25.25 0 0 1 -.245.254z"/><path d="m115.226 44a.229.229 0 0 1 -.068-.01.249.249 0 0 1 -.173-.307 7.883 7.883 0 0 0 .145-3.787.251.251 0 0 1 .193-.3.253.253 0 0 1 .3.193 8.358 8.358 0 0 1 -.153 4.024.249.249 0 0 1 -.244.187z"/><path d="m111.377 47.64a.247.247 0 0 1 -.2-.106.25.25 0 0 1 .059-.349c1.426-1.011 1.325-4.387 1.323-4.421a.25.25 0 1 1 .5-.018c0 .15.112 3.68-1.534 4.848a.249.249 0 0 1 -.148.046z"/><path d="m94.066 33.207a.25.25 0 0 1 -.089-.483c.807-.307 1.342-1.927 1.48-2.525a.25.25 0 0 1 .487.111c-.023.1-.57 2.418-1.789 2.88a.234.234 0 0 1 -.089.017z"/><path d="m106.506 33.207a.234.234 0 0 1 -.089-.017c-1.22-.462-1.766-2.781-1.789-2.88a.25.25 0 0 1 .488-.112c.138.6.673 2.22 1.479 2.526a.25.25 0 0 1 -.089.483z"/><path d="m90.358 52.97a.225.225 0 0 1 -.08-.014c-2.074-.7-4.081-4.217-4.78-5.549l-.46 1.19a.232.232 0 0 1 -.25.159c-.755-.052-1.54-1.662-2.053-2.967v.632a.25.25 0 0 1 -.117.212.244.244 0 0 1 -.241.014c-1.219-.587-1.677-2.891-1.7-2.989a.25.25 0 0 1 .2-.293.256.256 0 0 1 .293.2 5.4 5.4 0 0 0 1.063 2.369v-1.58a.251.251 0 0 1 .211-.248.248.248 0 0 1 .277.17c.552 1.7 1.4 3.546 1.937 3.917l.575-1.486a.249.249 0 0 1 .223-.16.257.257 0 0 1 .236.141c.024.05 2.427 5.012 4.744 5.8a.25.25 0 0 1 -.08.487z"/><path d="m50.584 35.677a.25.25 0 0 1 -.112-.027c-1.889-.948-5.413-.633-5.449-.632a.25.25 0 1 1 -.046-.5c.149-.012 3.7-.329 5.719.683a.25.25 0 0 1 -.112.474z"/></g></g><path d="m105.21 120.7h-.5a2.789 2.789 0 0 0 -2.38-3.1.246.246 0 1 1 .05-.49 3.308 3.308 0 0 1 2.83 3.59z" fill="#d9aa73"/><path d="m107.99 120.7h-.5c0-2.85-2.16-3.21-2.26-3.23a.249.249 0 0 1 -.21-.28.251.251 0 0 1 .29-.21 3.441 3.441 0 0 1 2.68 3.72z" fill="#d9aa73"/><g fill="#e8bb87"><path d="m95.63 120.7h-.5a2.8 2.8 0 0 0 -2.38-3.1.248.248 0 0 1 -.23-.27.24.24 0 0 1 .27-.22 3.307 3.307 0 0 1 2.84 3.59z"/><path d="m98.41 120.7h-.5a3.233 3.233 0 0 0 -1.1-2.68 2.759 2.759 0 0 0 -1.16-.55.247.247 0 1 1 .07-.49 3.126 3.126 0 0 1 1.18.5 3.611 3.611 0 0 1 1.51 3.22z"/><path d="m15.6 120.7h-.5a2.789 2.789 0 0 0 -2.38-3.1.248.248 0 0 1 -.22-.27.235.235 0 0 1 .27-.22 3.3 3.3 0 0 1 2.83 3.59z"/><path d="m18.39 120.7h-.5c0-2.85-2.17-3.21-2.26-3.23a.242.242 0 0 1 -.21-.28.247.247 0 0 1 .28-.21 3.437 3.437 0 0 1 2.69 3.72z"/></g><path d="m36.23 120.7h-.5a2.789 2.789 0 0 0 -2.38-3.1.246.246 0 0 1 .05-.49 3.3 3.3 0 0 1 2.83 3.59z" fill="#d9aa73"/><path d="m39.02 120.7h-.5c0-2.85-2.17-3.21-2.26-3.23a.242.242 0 0 1 -.21-.28.247.247 0 0 1 .28-.21 3.437 3.437 0 0 1 2.69 3.72z" fill="#d9aa73"/></g></svg>