<svg id="_x31_4_Full_Pet_food_bowl" enable-background="new 0 0 512 512" height="512" viewBox="0 0 512 512" width="512" xmlns="http://www.w3.org/2000/svg"><g id="_x31_4_Full_Pet_food_bowl_1_"><g><ellipse cx="256" cy="244" fill="#b8e5ff" rx="192" ry="60"/><path d="m488 344c0 39.7597656-103.8398438 72-232 72-128.159668 0-232-32.2402344-232-72l40-100c0 16.3198242 20.8798828 31.0400391 54.7202148 41.9199219 34.7998047 11.1201172 83.5200196 18.0800781 137.2797852 18.0800781 53.7602539 0 102.4799805-6.9599609 137.2802734-18.0800781 33.8398438-10.8798828 54.7197266-25.6000977 54.7197266-41.9199219z" fill="#b8e5ff"/><path d="m152.7202148 294.5600586c-.4799804-4.800293-.7202148-9.6801758-.7202148-14.5600586 0-33.5200195 9.840332-64.800293 26.800293-90.9599609-67.6000977 9.2797851-114.800293 30.3999023-114.800293 54.9599609l-40 100c0 36 85.0400391 65.8398438 196.2402344 71.199707-37.7602539-27.8398437-63.3603516-71.199707-67.5200196-120.6396484z" fill="#a1dcfc"/><path d="m408.2402344 280.4799805c-35.0400391 14.3198242-90.2402344 23.5200195-152.2402344 23.5200195s-117.199707-9.2001953-152.2397461-23.5200195l.2397461-.4799805s80-144 152-144 152 144 152 144z" fill="#f9efcd"/><path d="m152 280c0-51.6401367 23.3432617-97.7890625 60.0024414-128.6069336-57.1210937 37.0966797-108.0024414 128.6069336-108.0024414 128.6069336l-.2397461.4799805c13.5561523 5.5400391 30.1567383 10.3017578 48.9746094 14.0727539-.413086-4.8061524-.7348633-9.6396485-.7348633-14.5527344z" fill="#f8debb"/></g><g><path d="m495.4296875 341.03125-39.6147461-99.0405273c-1.902832-26.215332-40.7666016-47.4741211-107.5068359-58.7011719-27.421875-29.8178711-60.2089844-55.2895508-92.3081055-55.2895508s-64.8862305 25.4716797-92.3081055 55.2895508c-66.7402344 11.2270508-105.6040039 32.4858398-107.5068359 58.7011719l-39.6147461 99.0405273c-.375.9453125-.5703125 1.953125-.5703125 2.96875 0 51.9609375 123.6523438 80 240 80s240-28.0390625 240-80c0-1.015625-.1953125-2.0234375-.5703125-2.96875zm-55.4296875-97.03125c0 8.8613281-10.2973633 18.0957031-28.3569336 26.2861328-6.9477539-11.8530273-23.9702148-39.5668945-46.5234375-67.4648438 51.2490234 11.3144532 74.8803711 28.5781251 74.8803711 41.178711zm-184-100c27.3955078 0 56.6972656 23.534668 81.7485352 51.2900391.0830078.1181641.1943359.2055664.2836914.3188477 27.2856445 30.3051758 49.4438477 65.4750977 58.5170898 80.6430664-33.1523437 11.4941406-82.8320312 19.7480468-140.5493164 19.7480468s-107.3969727-8.2539062-140.5493164-19.7480469c9.0732422-15.1679688 31.2314453-50.3378906 58.5170898-80.6430664.0893555-.1132812.2006836-.2006836.2836914-.3188477 25.0512696-27.755371 54.3530274-51.290039 81.7485352-51.290039zm-109.1196289 58.8212891c-22.5532227 27.8979492-39.5756836 55.6118164-46.5234375 67.4648438-18.0595703-8.1904298-28.3569336-17.4248048-28.3569336-26.2861329 0-12.6005859 23.6313477-29.8642578 74.8803711-41.1787109zm109.1196289 205.1787109c-130 0-221.1953125-32.7109375-223.9375-62.6171875l32.3056641-80.7578125c26.359375 30.902832 111.0668945 47.375 191.6318359 47.375s165.2724609-16.472168 191.6318359-47.375l32.3056641 80.7578125c-2.7421875 29.90625-93.9375 62.6171875-223.9375 62.6171875z"/><path d="m264 176c13.234375 0 24 10.765625 24 24 0 4.4179688 3.5820312 8 8 8 13.234375 0 24 10.765625 24 24 0 4.4179688 3.5820312 8 8 8s8-3.5820312 8-8c0-19.5546875-14.1054688-35.875-32.671875-39.328125-3.453125-18.5664062-19.7734375-32.671875-39.328125-32.671875-4.4179688 0-8 3.5820312-8 8s3.5820312 8 8 8z"/></g></g></svg>