<svg height="512pt" viewBox="0 -77 512.0001 512" width="512pt" xmlns="http://www.w3.org/2000/svg"><path d="m502.46875 215.894531-27.28125-118.253906c-3.675781-23.007813-21.574219-51.03125-78.917969-70.304687-38.054687-12.789063-87.867187-19.832032-140.269531-19.832032s-102.21875 7.042969-140.273438 19.832032c-57.339843 19.273437-75.242187 47.296874-78.917968 70.304687l-27.277344 118.253906c-8.09375 35.09375 8.882812 71.246094 41.152344 87.238281 129.246094 64.042969 281.386718 64.042969 410.632812 0 32.269532-15.992187 49.246094-52.144531 41.152344-87.238281zm0 0" fill="#e57373"/><path d="m502.46875 215.894531-27.28125-118.253906c-3.554688-22.265625-20.433594-49.226563-73.484375-68.410156 22.339844 15.664062 31.050781 33.144531 33.492187 48.414062l27.277344 118.253907c8.09375 35.09375-8.882812 71.242187-41.152344 87.234374-119.929687 59.429688-259.566406 63.703126-382.339843 12.84375 3.636719 2.6875 7.539062 5.09375 11.703125 7.15625 129.246094 64.042969 281.386718 64.042969 410.632812 0 32.269532-15.992187 49.246094-52.144531 41.152344-87.238281zm0 0" fill="#f44336"/><path d="m436.660156 107.535156c0-33.535156-80.882812-60.71875-180.660156-60.71875s-180.660156 27.183594-180.660156 60.71875c0 33.53125 80.882812 60.714844 180.660156 60.714844s180.660156-27.183594 180.660156-60.714844zm0 0" fill="#f44336"/><path d="m256 78.507812c-89.019531 0-161.183594 24.25-161.183594 54.171876 0 .808593.0625 1.613281.167969 2.414062 29.878906 19.679688 90.765625 33.15625 161.015625 33.15625 70.253906 0 131.136719-13.476562 161.019531-33.15625.105469-.800781.167969-1.605469.167969-2.414062 0-29.917969-72.167969-54.171876-161.1875-54.171876zm0 0" fill="#64b5f6"/><path d="m366.488281 93.238281c.066407.058594.132813.117188.195313.175781 9.671875 8.535157 7.335937 24.324219-4.367188 29.746094-32.835937 15.203125-86.136718 25.09375-146.3125 25.09375-46.636718 0-89.132812-5.945312-121.183594-15.695312-.003906.789062.027344 1.519531.164063 2.535156 29.878906 19.679688 90.765625 33.15625 161.015625 33.15625 70.253906 0 131.136719-13.476562 161.019531-33.15625.105469-.800781.167969-1.605469.167969-2.414062 0-15.546876-19.492188-29.5625-50.699219-39.441407zm0 0" fill="#2196f3"/><path d="m298.597656 274.335938c0 23.527343-19.070312 42.601562-42.597656 42.601562s-42.597656-19.074219-42.597656-42.601562c0-23.523438 37.082031-70.378907 42.597656-70.378907s42.597656 46.855469 42.597656 70.378907zm0 0" fill="#64b5f6"/><path d="m256 203.957031c-1.171875 0-3.761719 2.113281-7.117188 5.660157 10.140626 14.792968 19.71875 32.769531 19.71875 44.722656 0 23.527344-19.074218 42.597656-42.601562 42.597656-2.179688 0-4.320312-.164062-6.414062-.480469 7.476562 12.277344 20.988281 20.480469 36.414062 20.480469 23.523438 0 42.597656-19.074219 42.597656-42.597656 0-23.527344-37.082031-70.382813-42.597656-70.382813zm0 0" fill="#2196f3"/><path d="m130.640625 71.707031c62.09375-20.867187 155.632813-22.3125 222.105469-7.785156 4.050781.882813 8.042968-1.675781 8.929687-5.722656.882813-4.046875-1.679687-8.042969-5.726562-8.929688-68.679688-15.011719-165.082031-13.625-230.085938 8.21875-37.957031 12.757813-58.023437 30.0625-58.023437 50.042969s20.066406 37.285156 58.023437 50.042969c72.140625 24.246093 188.109375 24.253906 260.273438 0 37.960937-12.757813 58.023437-30.0625 58.023437-50.042969 0-19.0625-18.449218-35.804688-53.347656-48.40625-3.894531-1.40625-8.191406.609375-9.601562 4.507812-1.40625 3.894532.613281 8.191407 4.507812 9.597657 27.203125 9.824219 43.445312 22.648437 43.445312 34.300781 0 4.542969-2.417968 9.222656-6.949218 13.824219-14.660156-32.789063-92.515625-50.347657-166.214844-50.347657-16.820312 0-33.390625.851563-49.253906 2.527344-4.117188.4375-7.105469 4.128906-6.667969 8.25.4375 4.117188 4.136719 7.105469 8.246094 6.667969 49.253906-5.214844 112.75-2.605469 159.261719 13.027344 24.921874 8.378906 40.339843 19.257812 41.949218 29.441406-7.511718 4.460937-17.003906 8.679687-28.175781 12.433594-69.066406 23.210937-181.65625 23.210937-250.71875 0-11.164063-3.75-20.652344-7.96875-28.160156-12.421875 2.003906-11.976563 24.390625-27.671875 71.703125-37.289063 4.058594-.824219 6.679687-4.785156 5.855468-8.84375-.824218-4.058593-4.785156-6.679687-8.84375-5.855469-44.457031 9.039063-73.082031 24.164063-81.367187 42.457032-4.558594-4.617188-6.992187-9.3125-6.992187-13.867188 0-12.375 17.871093-25.765625 47.804687-35.828125zm0 0"/><path d="m509.777344 214.210938-27.222656-118.011719c-3.789063-23.132813-21.453126-54.988281-83.894532-75.972657-80.199218-26.953124-205.023437-26.984374-285.320312 0-62.4375 20.984376-80.105469 52.84375-83.894532 75.972657l-9.648437 41.832031c-.933594 4.035156 1.585937 8.0625 5.621094 8.992188 4.035156.929687 8.0625-1.585938 8.992187-5.621094 10.371094-44.960938 9.742188-42.191406 9.804688-42.578125 4.367187-27.335938 29.921875-49.597657 73.902344-64.378907 77.140624-25.925781 198.582031-25.941406 275.765624 0 43.980469 14.78125 69.535157 37.042969 73.902344 64.378907.0625.398437-1.328125-5.6875 27.378906 118.757812 7.359376 31.917969-7.925781 64.335938-37.175781 78.832031-126.460937 62.664063-277.476562 62.679688-403.976562 0-29.246094-14.496093-44.535157-46.914062-37.171875-78.832031l9.707031-42.078125c.929687-4.035156-1.585937-8.0625-5.625-8.992187-4.035156-.933594-8.058594 1.585937-8.992187 5.621093l-9.707032 42.078126c-8.929687 38.71875 9.628906 78.046874 45.128906 95.640624 64.445313 31.933594 136.59375 48.8125 208.648438 48.8125 72.050781 0 144.203125-16.878906 208.644531-48.8125 35.503907-17.59375 54.0625-56.921874 45.132813-95.640624zm0 0"/><path d="m163.390625 125.53125c0 4.140625 3.359375 7.5 7.5 7.5 9.601563 0 14.070313 1.257812 19.242187 2.71875 5.453126 1.535156 11.636719 3.28125 23.308594 3.28125 11.675782 0 17.859375-1.746094 23.3125-3.28125 5.171875-1.460938 9.640625-2.71875 19.242188-2.71875 9.601562 0 14.070312 1.257812 19.242187 2.71875 5.453125 1.535156 11.636719 3.28125 23.3125 3.28125 11.679688 0 17.859375-1.746094 23.316407-3.28125 5.171874-1.460938 9.640624-2.71875 19.242187-2.71875 4.140625 0 7.5-3.359375 7.5-7.5s-3.359375-7.5-7.5-7.5c-11.675781 0-17.859375 1.742188-23.3125 3.28125-5.175781 1.460938-9.644531 2.71875-19.246094 2.71875-9.601562 0-14.070312-1.257812-19.242187-2.71875-5.457032-1.539062-11.636719-3.28125-23.3125-3.28125-11.675782 0-17.859375 1.742188-23.3125 3.28125-5.171875 1.460938-9.640625 2.71875-19.242188 2.71875-9.597656 0-14.066406-1.257812-19.238281-2.71875-5.453125-1.539062-11.636719-3.28125-23.3125-3.28125-4.140625 0-7.5 3.359375-7.5 7.5zm0 0"/><path d="m256 196.460938c-3.464844 0-6.960938 1.667968-14.574219 10.191406-13.304687 14.890625-35.523437 47.28125-35.523437 67.683594 0 27.625 22.472656 50.097656 50.097656 50.097656s50.097656-22.472656 50.097656-50.097656c0-20.390626-22.238281-52.816407-35.523437-67.683594-7.613281-8.523438-11.109375-10.191406-14.574219-10.191406zm35.097656 77.875c0 19.355468-15.746094 35.101562-35.097656 35.101562-19.355469 0-35.097656-15.746094-35.097656-35.101562 0-17.503907 25.527344-52.003907 35.097656-61.335938 9.570312 9.332031 35.097656 43.832031 35.097656 61.335938zm0 0"/></svg>