<svg id="Pet_Bed" viewBox="0 0 88 88" xmlns="http://www.w3.org/2000/svg"><path d="m44 83c-23.70996094 0-43-11.21484375-43-25v-28h86v28c0 13.78515625-19.29003906 25-43 25z" fill="#64c4ff"/><path d="m57 77c-1.89257812 0-3.54101562-1.34570312-3.91992188-3.19970703l-.16308594-.80029297h-17.83398438l-.16308594.80029297c-.37890625 1.85400391-2.02734375 3.19970703-3.91992188 3.19970703-2.20605469 0-4-1.79443359-4-4 0-.85302734.2890625-1.70361328.81445312-2.39501953l.45996094-.60498047-.45996094-.60498047c-.52539062-.69140625-.81445312-1.54199219-.81445312-2.39501953 0-2.20556641 1.79394531-4 4-4 1.89257812 0 3.54101562 1.34570312 3.91992188 3.19970703l.16308594.80029297h17.83398438l.16308594-.80029297c.37890625-1.85400391 2.02734375-3.19970703 3.91992188-3.19970703 2.20605469 0 4 1.79443359 4 4 0 .85302734-.2890625 1.70361328-.81445312 2.39501953l-.45996094.60498047.45996094.60498047c.52539062.69140625.81445312 1.54199219.81445312 2.39501953 0 2.20556641-1.79394531 4-4 4z" fill="#ffd899"/><path d="m34.14941406 59c-3.12890625 0-5.98730469-1.83984375-7.28222656-4.68701172l-2.10644531-4.63085938-.45898438-.12109375c-14.37304687-3.7915039-23.30175781-11.28662109-23.30175781-19.56103515 0-12.13085938 19.29003906-22 43-22s43 9.86914062 43 22c0 8.27441406-8.92871094 15.76953125-23.30175781 19.56103516l-.45898438.12109375-2.10644531 4.63085938c-1.29492188 2.84716797-4.15332031 4.68701172-7.28222656 4.68701172h-19.70117188z" fill="#b9d8f9"/><path d="m34.14941406 59c-3.12890625 0-5.98730469-1.83984375-7.28222656-4.6875l-2.10644531-4.63037109-.45800781-.12109375c-5.49902344-1.453125-10.4375-3.56103516-14.28125-6.09667969l-.00878906-.15380859c-.00683594-.10986328-.01269531-.20996094-.01269531-.31054688 0-10.4765625 15.25195312-19 34-19s34 8.5234375 34 19c0 .10058594-.00585938.20068359-.01269531.30029297l-.0078125.15380859c-3.84472656 2.54589844-8.78320312 4.65380859-14.28222656 6.10693359l-.45800781.12109375-2.10644531 4.63037109c-1.29492188 2.84765625-4.15332031 4.6875-7.28222656 4.6875h-19.70117188z" fill="#d9ecff"/><path d="m65.9296875 51.31884766c-.60644531 0-1.18945312-.18310547-1.68554688-.52929688-.77929688-.54443359-1.24414062-1.43652344-1.24414062-2.38671875 0-1.23144531.7734375-2.33154297 1.92382812-2.73779297 10.06640625-3.55126953 16.07617188-9.40722656 16.07617188-15.66503906 0-10.4765625-16.59765625-19-37-19s-37 8.5234375-37 19c0 6.2578125 6.00976562 12.11376953 16.07617188 15.66503906 1.15039062.40625 1.92382812 1.50634766 1.92382812 2.73779297 0 .95019531-.46484375 1.84228516-1.24414062 2.38671875-.49707031.34570312-1.08105469.52880859-1.6875.52880859-.34667969 0-.6875-.06054688-1.01171875-.1796875-12.55859375-4.60156249-20.05664063-12.50390625-20.05664063-21.13867187 0-13.78515625 19.29003906-25 43-25s43 11.21484375 43 25c0 8.63476562-7.49804688 16.53710938-20.05566406 21.13867188-.32617188.11962891-.66699219.18017578-1.01464844.18017578z" fill="#45a9f4"/><ellipse cx="44" cy="39" fill="#64c4ff" rx="7" ry="3"/><g fill="#393e4c"><path d="m44 4c-24.26171875 0-44 11.66357422-44 26v28c0 14.33642578 19.73828125 26 44 26s44-11.66357422 44-26v-28c0-14.33642578-19.73828125-26-44-26zm0 2c23.15869141 0 42 10.76611328 42 24 0 8.19726562-7.25244141 15.74853516-19.39990234 20.19970703-.60546875.22119141-1.25537109.13867188-1.78271484-.22998047-.51953125-.36279297-.81738281-.93408203-.81738281-1.56689453 0-.80810547.50537109-1.52929688 1.25683594-1.79492188 10.48388672-3.69873047 16.74316406-9.90722656 16.74316406-16.60791016 0-11.02783203-17.046875-20-38-20s-38.00000001 8.97216798-38.00000001 20.00000001c0 6.70068359 6.25927734 12.90917969 16.74267578 16.60791016.75195312.265625 1.25732422.98681641 1.25732422 1.79492188 0 .6328125-.29785156 1.20410156-.81738281 1.56689453-.52734375.36865234-1.17773438.45117188-1.78271484.22998047-12.14746094-4.45117188-19.39990235-12.00244142-19.39990235-20.19970704 0-13.23388672 18.84130859-24 42-24zm-20.59179688 38.72216797c-4.78137207-1.68713379-8.60424805-3.89074707-11.24804688-6.39135742 3.91870117-7.86151123 16.92449951-13.33081055 31.83984375-13.33081055 14.93463135 0 27.92059326 5.46697998 31.83758545 13.33276367-2.64379883 2.49975586-6.46588135 4.70269775-11.24627686 6.3894043-1.54980469.54736328-2.59130859 2.02636719-2.59130859 3.68066406 0 .40435791.06933594.79858398.18829346 1.17492676l-1.96612549 4.32067871c-1.13378906 2.49169922-3.63476562 4.1015625-6.37158203 4.1015625h-19.70117188c-2.73681641 0-5.23779297-1.60986328-6.37158203-4.1015625l-1.96612549-4.32067871c.11895752-.37634277.18829346-.77056885.18829346-1.17492676 0-1.65429688-1.04150391-3.13330078-2.59179688-3.68066406zm46.88757325-26.99749756c-1.85101318 1.09802246-4.91015625 3.74786377-5.24920654 9.27850342-5.65979004-2.42193604-12.61376953-3.87127686-20.04656982-3.99121094v-10.99926758c9.96789551.13702393 18.93341064 2.3069458 25.29577637 5.7119751zm6.99206543 19.04992676c-1.98669434-3.50952148-5.5980835-6.54571533-10.28363037-8.8684082.04632568-7.04589844 5.0847168-8.87872314 5.31561279-8.95892334.01257324-.00421143.02075195-.0144043.03308105-.019104 4.78436279 3.05615234 7.64709473 6.89880371 7.64709473 11.07183838 0 2.3493042-.95489502 4.64483643-2.7121582 6.77459717zm-34.2878418-13.76263428c-7.42700195.12017822-14.38342285 1.57122803-20.04638672 3.99499512-.33789062-5.53314209-3.39801025-8.184021-5.24938965-9.2822876 6.36236572-3.4050293 15.32788086-5.57495117 25.29577637-5.7119751zm-27.3526001-4.08398437c.01342773.00512695.02246094.01617432.03619385.02075195.05297852.01751709 5.26696777 1.84356689 5.31231689 8.96179199-4.68487549 2.3223877-8.29846191 5.35681152-10.28460693 8.86303711-1.75665283-2.1295166-2.71130371-4.42468262-2.71130371-6.77355957 0-4.1730957 2.862854-8.01580811 7.6473999-11.07202148zm70.3526001 39.07202148c0 5.58984375-3.37109375 10.73522949-9 14.8192749v-8.8192749c0-.55224609-.44775391-1-1-1s-1 .44775391-1 1v10c0 .05511475.02282715.10266113.03137207.15533447-7.68676758 4.81689453-18.75158691 7.84466553-31.03137207 7.84466553s-23.34460449-3.027771-31.03137207-7.84466553c.00854492-.05267334.03137207-.10021973.03137207-.15533447v-10c0-.55224609-.44775391-1-1-1s-1 .44775391-1 1v8.8192749c-5.62890625-4.08404541-9-9.22943115-9-14.8192749v-20.20379639c1.83404541 3.49658203 4.89697266 6.70513916 9 9.43780518v12.76599121c0 .55224609.44775391 1 1 1s1-.44775391 1-1v-11.52075195c2.30895996 1.34521484 4.87689209 2.55969238 7.71142578 3.59838867 1.20751953.44189453 2.56054688.26757812 3.61621094-.46826172.05462646-.03814697.10314941-.08258057.15539551-.12316895l1.4744873 3.24035645c1.45751953 3.20361328 4.67285156 5.2734375 8.19189453 5.2734375h19.70117188c3.51904297 0 6.734375-2.06982422 8.19189453-5.2734375l1.4744873-3.24035645c.05224609.04058838.10076904.08502197.15539551.12316895.67041016.46826172 1.45996094.70947266 2.2578125.70947266.45703125 0 .91748047-.07958984 1.35839844-.24121094 2.83453369-1.03863525 5.40246582-2.25305176 7.71142578-3.59820557v11.52056885c0 .55224609.44775391 1 1 1s1-.44775391 1-1v-12.76580811c4.10302734-2.73266602 7.16595459-5.94128418 9-9.43792725v20.20373535z"/><path d="m57 62c-2.41455078 0-4.43505859 1.72070312-4.89941406 4h-16.20117188c-.46435547-2.27929688-2.48486328-4-4.89941406-4-2.75683594 0-5 2.24316406-5 5 0 1.08642578.36279297 2.13769531 1.01806641 3-.65527344.86230469-1.01806641 1.91357422-1.01806641 3 0 2.75683594 2.24316406 5 5 5 2.41455078 0 4.43505859-1.72070312 4.89941406-4h16.20117188c.46435547 2.27929688 2.48486328 4 4.89941406 4 2.75683594 0 5-2.24316406 5-5 0-1.08642578-.36279297-2.13769531-1.01806641-3 .65527344-.86230469 1.01806641-1.91357422 1.01806641-3 0-2.75683594-2.24316406-5-5-5zm1.96240234 8.75244141c.66894531.58544922 1.03759766 1.38378906 1.03759766 2.24755859 0 1.65429688-1.34570312 3-3 3s-3-1.34570312-3-3c0-.55224609-.44775391-1-1-1h-18c-.55224609 0-1 .44775391-1 1 0 1.65429688-1.34570312 3-3 3s-3-1.34570312-3-3c0-.86376953.36865234-1.66210938 1.03759766-2.24755859.21728516-.18945312.34179688-.46386719.34179688-.75244141s-.12451172-.56298828-.34179688-.75244141c-.66894531-.58544922-1.03759766-1.38378906-1.03759766-2.24755859 0-1.65429688 1.34570312-3 3-3s3 1.34570312 3 3c0 .55224609.44775391 1 1 1h18c.55224609 0 1-.44775391 1-1 0-1.65429688 1.34570312-3 3-3s3 1.34570312 3 3c0 .86376953-.36865234 1.66210938-1.03759766 2.24755859-.21728516.18945312-.34179688.46386719-.34179688.75244141s.12451172.56298828.34179688.75244141z"/><path d="m29.00097656 43c.19042969 0 .38330078-.05419922.55371094-.16796875 2.04919434-1.3661499 5.23217773-1.71325684 6.68023682-1.80157471.81518555 1.76116943 3.69854736 2.75854492 6.76507568 2.93695068v3.03259277c0 .55224609.44775391 1 1 1s1-.44775391 1-1v-3.03259277c3.06652832-.17840576 5.94989014-1.17578125 6.76507568-2.93695068 1.44805908.08831787 4.63104248.4354248 6.68023682 1.80157471.17041016.11376953.36328125.16796875.55371094.16796875.32324219 0 .64013672-.15625.83300781-.4453125.30615234-.45947266.18212891-1.08056641-.27734375-1.38671875-2.50634766-1.67114258-6.16271973-2.05279541-7.75958252-2.14056396-.77722168-1.79797363-3.69445801-2.81445312-6.79510498-2.99481201v-.03259277c0-.55224609-.44775391-1-1-1s-1 .44775391-1 1v.03259277c-3.10064697.18035889-6.0178833 1.19683838-6.79510498 2.99481201-1.59686279.08776855-5.25323486.46942139-7.75958252 2.14056396-.45947266.30615234-.58349609.92724609-.27734375 1.38671875.19287109.2890625.50976562.4453125.83300781.4453125zm14.99902344-5c3.72216797 0 6 1.29492188 6 2s-2.27783203 2-6 2-6-1.29492188-6-2 2.27783203-2 6-2z"/></g></svg>