<svg height="128" viewBox="0 0 128 128" width="128" xmlns="http://www.w3.org/2000/svg"><g><g><path d="m95.419 15.74s17.792 4.54 23.86 10.562-2.792 12.014-3.108 13.563-.1 7.232-2.172 9.374a14.739 14.739 0 0 1 -5.642 3.167" fill="#9c8d7c"/><path d="m23.015 77.709s.316-12.215-8.873-12.215-7.4 8.413-7.4 11.582 4.862 12.675 13.577 12.041 2.696-11.408 2.696-11.408z" fill="#9c8d7c"/><path d="m108.67 40.51c-.44 2.58-.16 8.05-.31 11.89s-8.34 8.59-8.34 8.59 1.56 2.78 1.56 4.02a13.237 13.237 0 0 1 -1.26 4.3v.01a4.526 4.526 0 0 1 .22.59c2.13 6.69-2.65 26.46-2.6 28.36.05 1.96 3.53 2.39 4.59 4.58.79 1.66-.7 2.8-1.48 3.25a4.159 4.159 0 0 1 -.44.24c0 3.54-6.59 1.48-6.59 1.48h-3.39c-3.39 0-3.28-6.38-3.28-6.38v-9.6a28.778 28.778 0 0 1 -8.26 6.23 27.781 27.781 0 0 0 -7.69 5.69c-.45.45-.72.76-.78.83v.01h-.01c2.89 6.74.31 9.24-3.8 9.97-.18.04-.36.07-.54.1a21.522 21.522 0 0 1 -2.83.17 14.489 14.489 0 0 1 -2.62-.22c-.21-.04-.42-.08-.62-.13-3.23-.77-4.28-2.67-4.39-3.84a4.631 4.631 0 0 1 1.27-2.81 8.636 8.636 0 0 1 .65-.75l.07-.07h-9.17c-.1.77-1.19 1.25-1.19 1.25h-10.74c-3.37 0-3.43-3.05-3.39-3.83a1.225 1.225 0 0 1 .01-.18c-.34 0-.67 0-.99-.01-12.68-.2-13.62-4.25-13.62-4.25v-17.05c1.21-21.64 29.82-24.85 33.97-25.2.33-.03.5-.04.5-.04s0-2.75 2.08-3.09c1.6-.25 3.51-2.19 4.3-3.07.25-.27.39-.44.39-.44l-.34-.13-.15-.06-.23-.09-.15-.07a13.523 13.523 0 0 1 -4.6-3.11c-1.95-2.25-1.43-7.92-1.67-9.48s-8.76-8.02-2.38-13.71c5.95-5.3 22-8.78 24.15-9.23a2.718 2.718 0 0 1 .25-.11 24.412 24.412 0 0 1 23.33 2.22c11 7.52 10.86 21.17 10.51 23.17z" fill="#f2ebdd"/><path d="m89.565 39.827a.251.251 0 0 1 -.249-.227l-.626-6.983a.249.249 0 0 1 .227-.271.235.235 0 0 1 .272.226l.626 6.983a.25.25 0 0 1 -.227.271z" fill="#dbd5c8"/><path d="m79.4 39.557h-.042a.252.252 0 0 1 -.206-.288l1.143-6.936a.254.254 0 0 1 .288-.206.25.25 0 0 1 .206.288l-1.142 6.936a.252.252 0 0 1 -.247.206z" fill="#dbd5c8"/><path d="m95.12 59.165c-4.954 7.146-11.32 5.857-11.32 5.857s-6.425.949-10.992-6.45l5.942-6.166 7.428-6.495z" fill="#877a6b"/><path d="m84.525 37.77c-7.19-.2-6.251 3.226-11.037 5.328-7.206 3.164-9.394 5.377-8.812 8.6a8.632 8.632 0 0 0 8.133 6.874c4.335-.006 7.567-8.349 11.383-8.247 3.815.1 6.6 8.6 10.928 8.84a8.633 8.633 0 0 0 8.487-6.433c.753-3.186-1.315-5.513-8.342-9.055-4.668-2.353-3.549-5.728-10.74-5.907" fill="#9c8d7c"/><path d="m101.9 38.021a3.946 3.946 0 1 1 -3.84-4.05 3.946 3.946 0 0 1 3.84 4.05z" fill="#73685b"/><path d="m94.785 27.393c-1.293 1.647 6.287 5.009 7.3 3.66s-5.648-5.762-7.3-3.66z" fill="#fffaf0"/><path d="m91.125 22.65a.247.247 0 0 1 -.125-.035 13.06 13.06 0 0 0 -6.025-1.643.25.25 0 0 1 .006-.5h.007a13.655 13.655 0 0 1 6.268 1.713.25.25 0 0 1 -.128.465z" fill="#dbd5c8"/><path d="m95.282 21.121a.257.257 0 0 1 -.128-.035 21.129 21.129 0 0 0 -9.941-2.761h-.164a.25.25 0 0 1 0-.5h.166a21.673 21.673 0 0 1 10.2 2.831.25.25 0 0 1 -.128.465z" fill="#dbd5c8"/><path d="m67.167 37.1a3.946 3.946 0 1 0 4.05-3.84 3.947 3.947 0 0 0 -4.05 3.84z" fill="#73685b"/><path d="m74.831 26.863c1.2 1.713-6.544 4.668-7.478 3.267s5.941-5.454 7.478-3.267z" fill="#fffaf0"/><path d="m78.751 22.321a.249.249 0 0 1 -.116-.471 13.58 13.58 0 0 1 6.35-1.378.25.25 0 0 1 -.007.5h-.006a13.044 13.044 0 0 0 -6.1 1.321.254.254 0 0 1 -.121.028z" fill="#dbd5c8"/><path d="m74.682 20.573a.249.249 0 0 1 -.117-.47 21.052 21.052 0 0 1 10.5-2.276.249.249 0 0 1 .233.265.231.231 0 0 1 -.265.233 21.231 21.231 0 0 0 -10.233 2.219.232.232 0 0 1 -.118.029z" fill="#dbd5c8"/><path d="m84.191 50.574h-.006a.251.251 0 0 1 -.244-.257l.185-6.936a.25.25 0 0 1 .25-.243h.007a.25.25 0 0 1 .243.257l-.185 6.936a.249.249 0 0 1 -.25.243z" fill="#877a6b"/><g fill="#dbd5c8"><path d="m49.63 107.03h-1a.127.127 0 0 1 .01-.06c.82-5.07-4.88-8.23-4.94-8.26a.511.511 0 0 1 -.25-.54c.03-.12 2.55-12.07-.59-15.96a2.958 2.958 0 0 0 -2.43-1.14c-6.92 0-10.64 7.12-10.68 7.19a.5.5 0 0 1 -.67.22.52.52 0 0 1 -.22-.68c.17-.31 4.03-7.73 11.57-7.73a3.924 3.924 0 0 1 3.2 1.52c3.16 3.9 1.29 14.33.87 16.43 1.29.79 5.89 4 5.13 9.01z"/><path d="m59.3 100.97a15.809 15.809 0 0 1 -1.53 6.06h-1.15a13.846 13.846 0 0 0 1.68-6.13c.31-4.17-6.94-20.12-7.01-20.28a.5.5 0 0 1 .24-.67.514.514 0 0 1 .67.25c.3.67 7.43 16.35 7.1 20.77z"/><path d="m72.61 72.44c-.03.1-2.66 10.4-2.02 20 .27 4.01.3 6.16.33 7.58a10.513 10.513 0 0 0 .48 3.74c-.45.45-.72.76-.78.83a11.513 11.513 0 0 1 -.7-4.55c-.03-1.41-.06-3.55-.33-7.54-.65-9.76 2.02-20.21 2.05-20.31a.5.5 0 1 1 .97.25z"/><path d="m86.509 92.46a.5.5 0 0 1 -.348-.86 68.794 68.794 0 0 0 5.839-7.309.5.5 0 0 1 .82.572 68.256 68.256 0 0 1 -5.964 7.456.5.5 0 0 1 -.347.141z"/><path d="m94.01 107.82h-.76c-1.72-1.86-1.78-6.7-1.79-6.92a.25.25 0 0 1 .5 0c.01.05.08 5.68 2.05 6.92z"/><path d="m101.05 106.1a4.159 4.159 0 0 1 -.44.24c-.76-2.14-3.53-4.96-3.56-4.99a.242.242 0 0 1 0-.35.263.263 0 0 1 .36 0c.12.12 2.82 2.87 3.64 5.1z"/><path d="m62.66 106.79c-1.75 2.28-3.34 4.98-1.84 7.83-.21-.04-.42-.08-.62-.13-1.33-2.95.29-5.7 2.07-8a.246.246 0 1 1 .39.3z"/><path d="m66.81 114.57c-.18.04-.36.07-.54.1.65-1.96-.48-7.57-.49-7.63a.252.252 0 0 1 .2-.3.255.255 0 0 1 .29.2c.05.23 1.07 5.35.54 7.63z"/><path d="m47 108.28h-.5v-.05c.71-3.27-5.22-7.33-5.28-7.37a.255.255 0 0 1 -.06-.35.235.235 0 0 1 .34-.07c.26.18 6.2 4.25 5.5 7.84z"/><path d="m40.91 108.28h-.51a.292.292 0 0 1 .02-.09c.77-1.95-1.84-5.81-1.86-5.85a.255.255 0 0 1 .06-.35.246.246 0 0 1 .35.07c.11.17 2.7 4.01 1.94 6.22z"/><path d="m34.9 95.65a56.743 56.743 0 0 0 -1.58 8.75.075.075 0 0 1 -.01.05 1.225 1.225 0 0 1 .01-.18c-.34 0-.67 0-.99-.01a56.75 56.75 0 0 1 1.6-8.87.492.492 0 0 1 .61-.35.5.5 0 0 1 .36.61z"/></g><path d="m60.23 64.07a.255.255 0 0 1 -.24.19.127.127 0 0 1 -.06-.01 10.359 10.359 0 0 1 -7.24-6.45.09.09 0 0 1 -.01-.05c.33-.03.5-.04.5-.04a9.843 9.843 0 0 0 6.87 6.05.262.262 0 0 1 .18.31z" fill="#c9c4b8"/><path d="m86.839 71.04a15.122 15.122 0 0 1 -4.71-.814.25.25 0 0 1 -.159-.316.247.247 0 0 1 .315-.159c5.2 1.7 9.337.712 12.648-3.035a.25.25 0 1 1 .375.332 10.948 10.948 0 0 1 -8.469 3.992z" fill="#c9c4b8"/><path d="m100.54 69.91a7.963 7.963 0 0 1 -2.95 2.95.2.2 0 0 1 -.13.04.258.258 0 0 1 -.21-.13.247.247 0 0 1 .09-.34 8.059 8.059 0 0 0 2.98-3.11 4.526 4.526 0 0 1 .22.59z" fill="#c9c4b8"/><path d="m63.97 56.96a.241.241 0 0 1 -.22.13.266.266 0 0 1 -.12-.03 8.677 8.677 0 0 1 -4.07-5.51c.25-.27.39-.44.39-.44l-.34-.13-.15-.06a.243.243 0 0 1 .2-.21.265.265 0 0 1 .29.21 8.379 8.379 0 0 0 3.92 5.7.25.25 0 0 1 .1.34z" fill="#c9c4b8"/><path d="m74.83 15.13-.01.06c-9.38 4.99-13.8 15.2-14.71 29.14-.13 2.17-.19 4.44-.16 6.79l-.34-.13-.38-.15-.15-.07a13.523 13.523 0 0 1 -4.6-3.11c-1.95-2.25-1.43-7.92-1.67-9.48s-8.76-8.02-2.38-13.71c5.95-5.3 22-8.78 24.15-9.23a2.718 2.718 0 0 1 .25-.11z" fill="#9c8d7c"/></g><path d="m84.525 37.77s-5.077-.4-5.128 1.537 1.533 3.989 4.979 4.08 5.138-1.876 5.189-3.81-5.04-1.807-5.04-1.807z" fill="#695e53"/></g></svg>