<svg id="Layer_1" enable-background="new 0 0 500 500" viewBox="0 0 500 500" xmlns="http://www.w3.org/2000/svg"><g><g><path d="m474.999 97.153-12.232 27.435-3.629 8.12-4.25 9.502-6.185 13.891-4.216 9.398-5.39 12.128-1.175 2.626c-19.35 20.18-53.593 54.872-92.845 89.909-.277.242-.519.484-.795.691-37.145 33.171-78.713 66.516-116.308 88.25-38.527 22.217-69.867 36.074-95.852 42.293-3.939.968-8.085 1.451-12.37 1.451-1.728 0-3.421-.069-5.114-.241-6.634-.623-12.819-2.419-17.484-5.114l-3.006-1.728-40.773-23.531c-4.077-2.35-6.772-5.322-7.36-8.085l-.449-1.21-2.592-6.669-3.801-9.778-2.557-6.669-2.211-5.702-8.5-22.045z" fill="#a46c41"/><path d="m474.999 97.153-12.232 27.435c-48.237 49.549-147.372 146.334-229.851 193.949-44.022 25.397-79.819 41.223-109.535 48.34-4.492 1.106-9.226 1.659-14.133 1.659-9.709 0-19.143-2.246-25.811-6.116l-49.032-28.3-8.5-22.045z" fill="#854e31"/><path d="m230.437 309.198c-44.305 25.58-77.929 39.68-104.529 46.062-14.578 3.497-31.363 1.529-42.525-4.917l-46.901-27.078c-11.163-6.444-14.573-16.136-8.516-24.552 11.054-15.358 35.477-34.77 79.782-60.35 108.233-62.488 367.252-141.199 367.252-141.199s-136.33 149.546-244.563 212.034z" fill="#d49b6b"/><path d="m451.883 111.63c-15.342 15.998-39.391 40.462-67.898 67.345-46.717 44.022-105.354 94.401-157.012 124.22-41.257 23.841-74.844 38.665-102.694 45.335-4.181 1.036-8.638 1.52-13.234 1.52-9.122 0-17.934-2.073-24.222-5.702l-31.375-18.106-15.515-8.949c-4.354-2.523-7.222-5.702-7.878-8.673-.415-1.97.069-3.87 1.52-5.874 11.092-15.412 37.214-35.072 77.642-58.396 86.593-49.998 273.044-111.262 340.666-132.72z" fill="#a46c41"/><path d="m383.985 173.441c-46.717 44.022-105.354 94.401-157.012 124.22-41.257 23.841-74.844 38.665-102.694 45.335-4.181 1.036-8.638 1.52-13.234 1.52-9.122 0-17.934-2.073-24.222-5.702l-31.375-18.106c13.683-10.954 32.308-23.22 55.769-36.765 65.377-37.767 187.697-81.926 272.768-110.502z" fill="#d49b6b"/><g fill="#854e31"><path d="m474.964 97.186-12.197 27.402c-48.237 49.549-147.372 146.334-229.851 193.949-44.022 25.397-79.819 41.223-109.535 48.34-4.492 1.106-9.226 1.659-14.133 1.659-9.709 0-19.143-2.246-25.811-6.116l-49.032-28.3-8.189-21.284c1.693 3.87 5.183 7.498 10.262 10.435l46.889 27.056c11.161 6.461 27.954 8.431 42.535 4.941 26.606-6.393 60.227-20.49 104.524-46.06 107.084-61.852 241.636-208.843 244.538-212.022z"/><path d="m459.139 132.708-4.25 9.502c-50.518 51.382-143.743 140.771-221.973 185.934-44.022 25.397-79.819 41.222-109.535 48.34-4.492 1.106-9.226 1.659-14.133 1.659-9.709 0-19.143-2.246-25.811-6.116l-44.263-25.535-2.557-6.669 46.82 27.02c6.669 3.871 16.102 6.116 25.811 6.116 4.907 0 9.641-.553 14.133-1.659 29.716-7.118 65.513-22.943 109.535-48.34 80.476-46.44 176.811-139.735 226.223-190.252z"/><path d="m448.704 156.1-4.216 9.398c-52.245 52.349-138.456 133.204-211.572 175.428-44.022 25.398-79.819 41.224-109.535 48.341-4.492 1.106-9.226 1.659-14.133 1.659-9.709 0-19.143-2.246-25.811-6.116l-37.87-21.873-2.592-6.669 40.462 23.359c6.669 3.87 16.102 6.116 25.811 6.116 4.907 0 9.641-.553 14.133-1.659 29.716-7.117 65.513-22.943 109.535-48.34 75.12-43.364 164.096-127.537 215.788-179.644z"/><path d="m439.098 177.627-1.175 2.626c-19.35 20.18-53.593 54.872-92.845 89.909-.277.242-.519.484-.795.691-36.558 31.34-75.534 61.297-111.367 81.996-44.022 25.396-79.819 41.222-109.535 48.339-2.834.692-5.736 1.176-8.742 1.418-6.634-.623-12.819-2.419-17.484-5.114l-3.006-1.728c4.7 1.243 9.848 1.9 15.1 1.9 4.907 0 9.641-.552 14.133-1.658 29.716-7.117 65.513-22.944 109.535-48.34 70.662-40.808 153.556-117.689 206.181-170.039z"/></g></g><g><g enable-background="new"><g><path d="m84.406 166.469.016 5.627 210.233 122.175-.015-5.628z" fill="#a46c41"/></g><g><path d="m290.276 291.163.016 5.627 35.82 20.816-.016-5.627z" fill="#a46c41"/></g><g><path d="m344.71 313.122-.016-5.627c.004 1.62-1.07 3.242-3.221 4.484-4.275 2.468-11.129 2.468-15.376 0l.016 5.627c4.247 2.468 11.101 2.468 15.376 0 2.151-1.242 3.225-2.864 3.221-4.484z" fill="#a46c41"/></g><g><path d="m84.406 166.469 210.234 122.174-4.364 2.519 35.82 20.816c4.246 2.468 11.101 2.468 15.376 0s4.297-6.439.051-8.907l-35.82-20.816-4.363 2.519-210.234-122.173z" fill="#d49b6b"/></g></g></g></g></svg>