<svg id="Layer_46" enable-background="new 0 0 512 512" viewBox="0 0 512 512" xmlns="http://www.w3.org/2000/svg" xmlns:xlink="http://www.w3.org/1999/xlink"><linearGradient id="lg1"><stop offset="0" stop-color="#eaf6ff"/><stop offset=".1502" stop-color="#e6f1fa"/><stop offset=".3192" stop-color="#dbe4ec"/><stop offset=".4972" stop-color="#c9cfd6"/><stop offset=".6814" stop-color="#b0b2b6"/><stop offset=".8687" stop-color="#908c8e"/><stop offset="1" stop-color="#766e6e"/></linearGradient><linearGradient id="SVGID_1_" gradientTransform="matrix(1 0 0 -1 0 514)" gradientUnits="userSpaceOnUse" x1="224.923" x2="291.894" xlink:href="#lg1" y1="324.581" y2="272.8"/><linearGradient id="lg2"><stop offset="0" stop-color="#593636" stop-opacity="0"/><stop offset=".2774" stop-color="#543333" stop-opacity=".101"/><stop offset=".5956" stop-color="#482d2e" stop-opacity=".396"/><stop offset=".9328" stop-color="#332224" stop-opacity=".883"/><stop offset="1" stop-color="#2f2022"/></linearGradient><linearGradient id="SVGID_00000041293145817656745040000001942018543828779434_" gradientTransform="matrix(1 0 0 -1 0 514)" gradientUnits="userSpaceOnUse" x1="259.635" x2="269.647" xlink:href="#lg2" y1="314.504" y2="321.753"/><linearGradient id="SVGID_00000029757944784537156830000008664635784618877876_" gradientTransform="matrix(1 0 0 -1 0 514)" gradientUnits="userSpaceOnUse" x1="248.953" x2="266.214" xlink:href="#lg2" y1="309.084" y2="318.29"/><linearGradient id="SVGID_00000081636825202598974130000014636540095996737683_" gradientTransform="matrix(1 0 0 -1 0 514)" gradientUnits="userSpaceOnUse" x1="237.994" x2="257.786" xlink:href="#lg2" y1="302.108" y2="311.774"/><linearGradient id="SVGID_00000100358513796998102950000007721681698794323080_" gradientTransform="matrix(1 0 0 -1 0 514)" gradientUnits="userSpaceOnUse" x1="232.144" x2="245.032" xlink:href="#lg2" y1="296.865" y2="304.229"/><linearGradient id="SVGID_00000099628570020757771780000007369676442462216894_" gradientTransform="matrix(1 0 0 -1 0 514)" gradientUnits="userSpaceOnUse" x1="245.616" x2="248.897" xlink:href="#lg2" y1="315.995" y2="300.316"/><linearGradient id="SVGID_00000035492654852845024550000000696107388089799325_" gradientTransform="matrix(1 0 0 -1 0 514)" gradientUnits="userSpaceOnUse" x1="233.511" x2="273.328" xlink:href="#lg1" y1="222.12" y2="190.029"/><linearGradient id="SVGID_00000005972111881173706720000015836421500071148423_" gradientTransform="matrix(1 0 0 -1 0 514)" gradientUnits="userSpaceOnUse" x1="258.313" x2="269.293" xlink:href="#lg2" y1="202.05" y2="200.658"/><linearGradient id="SVGID_00000050661116446221842840000009322495117413580190_" gradientTransform="matrix(1 0 0 -1 0 514)" gradientUnits="userSpaceOnUse" x1="255.464" x2="270.157" xlink:href="#lg2" y1="203.8" y2="198.541"/><linearGradient id="SVGID_00000048484787381103969400000012067911450297773714_" gradientTransform="matrix(1 0 0 -1 0 514)" gradientUnits="userSpaceOnUse" x1="246.48" x2="263.646" xlink:href="#lg2" y1="209.398" y2="200.582"/><linearGradient id="SVGID_00000114073384293121335950000002070216823016030624_" gradientTransform="matrix(1 0 0 -1 0 514)" gradientUnits="userSpaceOnUse" x1="245.327" x2="258.783" xlink:href="#lg2" y1="213.937" y2="204.193"/><linearGradient id="SVGID_00000087396683264474131640000002201702148634923707_" gradientTransform="matrix(1 0 0 -1 0 514)" gradientUnits="userSpaceOnUse" x1="247.432" x2="253.463" xlink:href="#lg2" y1="218.769" y2="209.644"/><linearGradient id="SVGID_00000056411315256550078830000000010399945956376501_" gradientTransform="matrix(1 0 0 -1 0 514)" gradientUnits="userSpaceOnUse" x1="249.425" x2="252.363" xlink:href="#lg2" y1="223.65" y2="216.845"/><linearGradient id="SVGID_00000096782108173451662430000016427480661230027414_" gradientTransform="matrix(1 0 0 -1 0 514)" gradientUnits="userSpaceOnUse" x1="250.437" x2="252.078" xlink:href="#lg2" y1="211.949" y2="223.982"/><linearGradient id="SVGID_00000000903098077491439420000017226638540812335237_" gradientTransform="matrix(.993 -.12 .12 .993 -493.908 -6471.025)" gradientUnits="userSpaceOnUse" x1="-189.017" x2="-153.829" xlink:href="#lg1" y1="6792.008" y2="6756.244"/><linearGradient id="SVGID_00000038387490546126979620000005635089655979963572_" gradientTransform="matrix(.993 -.12 -.12 -.993 356.063 577.585)" gradientUnits="userSpaceOnUse" x1="-183.324" x2="-166.052" xlink:href="#lg2" y1="301.859" y2="336.011"/><linearGradient id="SVGID_00000103957761868539916990000009717991556522741695_" gradientTransform="matrix(1 0 0 -1 0 514)" gradientUnits="userSpaceOnUse" x1="164.647" x2="171.191" xlink:href="#lg2" y1="224.13" y2="219.419"/><linearGradient id="SVGID_00000160165704048483327280000007527869877112624035_" gradientTransform="matrix(.993 -.12 .12 .993 -493.908 -6471.025)" gradientUnits="userSpaceOnUse" x1="-171.983" x2="-145.494" xlink:href="#lg2" y1="6786.631" y2="6795.807"/><linearGradient id="SVGID_00000059289441417917332000000017897981530450206642_" gradientTransform="matrix(.993 -.12 .12 .993 -493.908 -6471.025)" gradientUnits="userSpaceOnUse" x1="-178.752" x2="-154.159" xlink:href="#lg2" y1="6781.745" y2="6790.395"/><linearGradient id="SVGID_00000036970464385928358540000013130575432409184677_" gradientTransform="matrix(.993 -.12 .12 .993 -493.908 -6471.025)" gradientUnits="userSpaceOnUse" x1="-184.679" x2="-164.284" xlink:href="#lg2" y1="6777.71" y2="6784.947"/><linearGradient id="SVGID_00000106145681610305637710000007033283584205674143_" gradientTransform="matrix(.993 -.12 .12 .993 -493.908 -6471.025)" gradientUnits="userSpaceOnUse" x1="-188.837" x2="-175.708" xlink:href="#lg2" y1="6774.89" y2="6779.422"/><linearGradient id="SVGID_00000025406557669863311720000007427740068821750182_" gradientTransform="matrix(.993 -.12 .12 .993 -493.908 -6471.025)" gradientUnits="userSpaceOnUse" x1="-196.58" x2="-184.732" xlink:href="#lg2" y1="6771.208" y2="6775.157"/><linearGradient id="SVGID_00000059286839483162220790000017415684491100155029_" gradientTransform="matrix(.993 .12 .12 -.993 -493.908 6669.2)" gradientUnits="userSpaceOnUse" x1="-147.703" x2="-123.158" xlink:href="#lg1" y1="6477.019" y2="6452.071"/><linearGradient id="SVGID_00000051366343909030356010000002349567794840291735_" gradientTransform="matrix(.993 .12 -.12 .993 356.063 -379.411)" gradientUnits="userSpaceOnUse" x1="-143.732" x2="-131.684" xlink:href="#lg2" y1="618.605" y2="642.428"/><linearGradient id="SVGID_00000112624488663826255130000002918622952184584126_" gradientTransform="matrix(1 0 0 -1 0 514)" gradientUnits="userSpaceOnUse" x1="142.315" x2="143.896" xlink:href="#lg2" y1="294.731" y2="287.438"/><linearGradient id="SVGID_00000089553292752957898900000001800923390835666067_" gradientTransform="matrix(.993 .12 .12 -.993 -493.908 6669.2)" gradientUnits="userSpaceOnUse" x1="-135.821" x2="-117.344" xlink:href="#lg2" y1="6473.268" y2="6479.669"/><linearGradient id="SVGID_00000142875065791995743250000014228630827600402586_" gradientTransform="matrix(.993 .12 .12 -.993 -493.908 6669.2)" gradientUnits="userSpaceOnUse" x1="-140.543" x2="-123.388" xlink:href="#lg2" y1="6469.86" y2="6475.894"/><linearGradient id="SVGID_00000052795309677686847170000016124147573319782587_" gradientTransform="matrix(.993 .12 .12 -.993 -493.908 6669.2)" gradientUnits="userSpaceOnUse" x1="-144.678" x2="-130.451" xlink:href="#lg2" y1="6467.045" y2="6472.093"/><linearGradient id="SVGID_00000122684836375461499950000007078516871752923014_" gradientTransform="matrix(.993 .12 .12 -.993 -493.908 6669.2)" gradientUnits="userSpaceOnUse" x1="-147.578" x2="-138.42" xlink:href="#lg2" y1="6465.078" y2="6468.239"/><linearGradient id="SVGID_00000120546701360882523300000004957143389216044970_" gradientTransform="matrix(.993 .12 .12 -.993 -493.908 6669.2)" gradientUnits="userSpaceOnUse" x1="-152.979" x2="-144.715" xlink:href="#lg2" y1="6462.51" y2="6465.265"/><linearGradient id="SVGID_00000052805810572134730860000009979927339763203486_" gradientTransform="matrix(1 0 0 -1 0 514)" gradientUnits="userSpaceOnUse" x1="-26.236" x2="73.931" xlink:href="#lg1" y1="302.164" y2="201.997"/><linearGradient id="lg3"><stop offset="0" stop-color="#766e6e" stop-opacity="0"/><stop offset=".1657" stop-color="#766e6e" stop-opacity=".04"/><stop offset=".356" stop-color="#766e6e" stop-opacity=".158"/><stop offset=".5584" stop-color="#766e6e" stop-opacity=".353"/><stop offset=".7692" stop-color="#766e6e" stop-opacity=".626"/><stop offset=".9846" stop-color="#766e6e" stop-opacity=".973"/><stop offset="1" stop-color="#766e6e"/></linearGradient><linearGradient id="SVGID_00000046334199668850824870000010072797356733142938_" gradientTransform="matrix(1 0 0 -1 0 514)" gradientUnits="userSpaceOnUse" x1="-10.62" x2="61.582" xlink:href="#lg3" y1="268.804" y2="238.258"/><linearGradient id="SVGID_00000087395625224284001710000015945991609503551934_" gradientTransform="matrix(1 0 0 -1 0 514)" gradientUnits="userSpaceOnUse" x1="28.174" x2="-2.769" xlink:href="#lg2" y1="296.13" y2="291.766"/><linearGradient id="SVGID_00000116931236025039184080000003778817797966058401_" gradientTransform="matrix(1 0 0 -1 0 514)" gradientUnits="userSpaceOnUse" x1="39.438" x2="53.773" xlink:href="#lg2" y1="231.944" y2="215.512"/><linearGradient id="SVGID_00000133487912195386728040000007165616308551702405_" gradientTransform="matrix(1 0 0 -1 0 514)" gradientUnits="userSpaceOnUse" x1="28.281" x2="2.892" xlink:href="#lg2" y1="231.029" y2="239.36"/><linearGradient id="SVGID_00000026139398889431656230000003592848136533250700_" gradientTransform="matrix(1 0 0 -1 0 514)" gradientUnits="userSpaceOnUse" x1="44.242" x2=".488" xlink:href="#lg3" y1="261.948" y2="261.948"/><linearGradient id="SVGID_00000150069626596253681730000010411884761782512807_" gradientTransform="matrix(1 0 0 -1 0 514)" gradientUnits="userSpaceOnUse" x1="44.638" x2="-3.37" xlink:href="#lg3" y1="261.948" y2="261.948"/><linearGradient id="SVGID_00000030484385305505577290000004141504188971823234_" gradientTransform="matrix(1 0 0 -1 0 514)" gradientUnits="userSpaceOnUse" x1="39.481" x2="12.108" xlink:href="#lg3" y1="261.948" y2="261.948"/><linearGradient id="SVGID_00000044856709914126037920000013731310259152891820_" gradientTransform="matrix(1 0 0 -1 0 514)" gradientUnits="userSpaceOnUse" x1="278.034" x2="278.034" xlink:href="#lg1" y1="210.144" y2="306.973"/><linearGradient id="SVGID_00000085209793651921037380000001201069413414630814_" gradientTransform="matrix(1 0 0 -1 0 514)" gradientUnits="userSpaceOnUse" x1="420.325" x2="471.759" xlink:href="#lg1" y1="221.274" y2="294.193"/><linearGradient id="lg4"><stop offset="0" stop-color="#8795de" stop-opacity="0"/><stop offset=".105" stop-color="#8492dd" stop-opacity=".033"/><stop offset=".2533" stop-color="#7c8cdb" stop-opacity=".125"/><stop offset=".4273" stop-color="#6f81d8" stop-opacity=".276"/><stop offset=".6209" stop-color="#5d72d3" stop-opacity=".486"/><stop offset=".8281" stop-color="#465ece" stop-opacity=".751"/><stop offset="1" stop-color="#314dc9"/></linearGradient><linearGradient id="SVGID_00000165197713076439630170000014777071984977091989_" gradientTransform="matrix(1 0 0 -1 0 514)" gradientUnits="userSpaceOnUse" x1="277.913" x2="274.266" xlink:href="#lg4" y1="263.421" y2="306.448"/><linearGradient id="lg5"><stop offset="0" stop-color="#47a920" stop-opacity="0"/><stop offset=".1426" stop-color="#44a822" stop-opacity=".035"/><stop offset=".3151" stop-color="#3da528" stop-opacity=".138"/><stop offset=".503" stop-color="#31a132" stop-opacity=".308"/><stop offset=".7017" stop-color="#219b41" stop-opacity=".545"/><stop offset=".9071" stop-color="#0c9353" stop-opacity=".846"/><stop offset="1" stop-color="#02905d"/></linearGradient><linearGradient id="SVGID_00000070840513439153136880000015562678933355701170_" gradientTransform="matrix(1 0 0 -1 0 514)" gradientUnits="userSpaceOnUse" x1="277.696" x2="271.862" xlink:href="#lg5" y1="265.375" y2="323.717"/><linearGradient id="SVGID_00000106114727651734119090000002657476446048456364_" gradientTransform="matrix(1 0 0 -1 0 514)" gradientUnits="userSpaceOnUse" x1="283.294" x2="294.233" xlink:href="#lg5" y1="287.453" y2="340.69"/><linearGradient id="SVGID_00000003826514004886650330000016017016957799002517_" gradientTransform="matrix(1 0 0 -1 0 514)" gradientUnits="userSpaceOnUse" x1="283.554" x2="293.035" xlink:href="#lg4" y1="291.588" y2="342.637"/><linearGradient id="SVGID_00000030444986733861004740000013171037925477392768_" gradientTransform="matrix(1 0 0 -1 0 514)" gradientUnits="userSpaceOnUse" x1="276.565" x2="272.919" xlink:href="#lg2" y1="275.658" y2="309.57"/><linearGradient id="SVGID_00000144304119005203742520000016989209455350702721_" gradientTransform="matrix(1 0 0 -1 0 514)" gradientUnits="userSpaceOnUse" x1="280.826" x2="284.837" xlink:href="#lg2" y1="285.495" y2="319.406"/><linearGradient id="SVGID_00000113312437214982021450000005713971145245462159_" gradientTransform="matrix(1 0 0 -1 0 514)" gradientUnits="userSpaceOnUse" x1="299.188" x2="308.161" xlink:href="#lg3" y1="200.752" y2="174.731"/><linearGradient id="SVGID_00000019645155128820057480000003829256479337944221_" gradientTransform="matrix(1 0 0 -1 0 514)" gradientUnits="userSpaceOnUse" x1="278.034" x2="278.034" xlink:href="#lg3" y1="236.724" y2="205.598"/><linearGradient id="SVGID_00000129199806267084673980000003326988115635499957_" gradientTransform="matrix(1 0 0 -1 0 514)" gradientUnits="userSpaceOnUse" x1="271.556" x2="266.091" xlink:href="#lg3" y1="229.468" y2="202.144"/><linearGradient id="lg6"><stop offset="0" stop-color="#fff" stop-opacity="0"/><stop offset=".09248684" stop-color="#fff" stop-opacity=".024"/><stop offset=".2178" stop-color="#fff" stop-opacity=".092"/><stop offset=".3619" stop-color="#fff" stop-opacity=".203"/><stop offset=".52" stop-color="#fff" stop-opacity=".359"/><stop offset=".6897" stop-color="#fff" stop-opacity=".559"/><stop offset=".8661" stop-color="#fff" stop-opacity=".798"/><stop offset="1" stop-color="#fff"/></linearGradient><linearGradient id="SVGID_00000040558669213476908790000017888449230774180766_" gradientTransform="matrix(-1 0 0 -1 368.388 514)" gradientUnits="userSpaceOnUse" x1="8.908" x2="-29.984" xlink:href="#lg6" y1="262.103" y2="263.492"/><linearGradient id="SVGID_00000155112390749999431770000015859556246268128164_" gradientTransform="matrix(-1 0 0 -1 368.388 514)" gradientUnits="userSpaceOnUse" x1="23.621" x2="-15.268" xlink:href="#lg6" y1="262.103" y2="263.492"/><linearGradient id="SVGID_00000023264866374681616950000001699514533506112392_" gradientTransform="matrix(-1 0 0 -1 368.388 514)" gradientUnits="userSpaceOnUse" x1="38.333" x2="-.552" xlink:href="#lg6" y1="262.103" y2="263.492"/><linearGradient id="SVGID_00000142863373742721442270000006988033277884694972_" gradientTransform="matrix(-1 0 0 -1 368.388 514)" gradientUnits="userSpaceOnUse" x1="53.046" x2="14.164" xlink:href="#lg6" y1="262.103" y2="263.492"/><linearGradient id="SVGID_00000043419141899930319360000005003519995214853271_" gradientTransform="matrix(-1 0 0 -1 368.388 514)" gradientUnits="userSpaceOnUse" x1="67.758" x2="28.879" xlink:href="#lg6" y1="262.103" y2="263.492"/><linearGradient id="SVGID_00000046337638401768660420000009461052952033832343_" gradientTransform="matrix(-1 0 0 -1 368.388 514)" gradientUnits="userSpaceOnUse" x1="82.471" x2="43.595" xlink:href="#lg6" y1="262.103" y2="263.492"/><linearGradient id="SVGID_00000047060608506375902200000016008823976827265462_" gradientTransform="matrix(-1 0 0 -1 368.388 514)" gradientUnits="userSpaceOnUse" x1="97.184" x2="58.311" xlink:href="#lg6" y1="262.103" y2="263.492"/><linearGradient id="SVGID_00000180327684896252367960000003741383736874619043_" gradientTransform="matrix(-1 0 0 -1 368.388 514)" gradientUnits="userSpaceOnUse" x1="111.896" x2="73.026" xlink:href="#lg6" y1="262.103" y2="263.492"/><linearGradient id="SVGID_00000036232393751390658940000015525301066623167146_" gradientTransform="matrix(-1 0 0 -1 368.388 514)" gradientUnits="userSpaceOnUse" x1="126.609" x2="87.742" xlink:href="#lg6" y1="262.103" y2="263.492"/><linearGradient id="SVGID_00000045620551626071694100000018237151231786790335_" gradientTransform="matrix(-1 0 0 -1 368.388 514)" gradientUnits="userSpaceOnUse" x1="141.322" x2="102.457" xlink:href="#lg6" y1="262.103" y2="263.492"/><linearGradient id="SVGID_00000117667146356833126310000016574969560362986901_" gradientTransform="matrix(-1 0 0 -1 368.388 514)" gradientUnits="userSpaceOnUse" x1="156.035" x2="117.172" xlink:href="#lg6" y1="262.104" y2="263.491"/><linearGradient id="SVGID_00000008125072980315396790000001775064464267086251_" gradientTransform="matrix(-1 0 0 -1 368.388 514)" gradientUnits="userSpaceOnUse" x1="170.748" x2="131.887" xlink:href="#lg6" y1="262.104" y2="263.491"/><linearGradient id="SVGID_00000051377762137294153940000007528803791623041708_" gradientTransform="matrix(-1 0 0 -1 368.388 514)" gradientUnits="userSpaceOnUse" x1="185.46" x2="146.602" xlink:href="#lg6" y1="262.104" y2="263.491"/><linearGradient id="SVGID_00000143587474542060336070000015632007131919369359_" gradientTransform="matrix(-1 0 0 -1 368.388 514)" gradientUnits="userSpaceOnUse" x1="200.173" x2="161.317" xlink:href="#lg6" y1="262.104" y2="263.491"/><linearGradient id="SVGID_00000038407438577890163440000013904831391686626723_" gradientTransform="matrix(-1 0 0 -1 368.388 514)" gradientUnits="userSpaceOnUse" x1="214.886" x2="176.032" xlink:href="#lg6" y1="262.104" y2="263.491"/><linearGradient id="SVGID_00000179628532261996752970000015577155527837655960_" gradientTransform="matrix(-1 0 0 -1 368.388 514)" gradientUnits="userSpaceOnUse" x1="229.599" x2="190.747" xlink:href="#lg6" y1="262.104" y2="263.491"/><linearGradient id="SVGID_00000004518514302046410180000018347685647330450843_" gradientTransform="matrix(-1 0 0 -1 368.388 514)" gradientUnits="userSpaceOnUse" x1="244.312" x2="205.462" xlink:href="#lg6" y1="262.104" y2="263.491"/><linearGradient id="SVGID_00000137823606858993553380000000993776571733887922_" gradientTransform="matrix(1 0 0 -1 0 514)" gradientUnits="userSpaceOnUse" x1="386.458" x2="379.894" xlink:href="#lg2" y1="219.836" y2="248.278"/><linearGradient id="SVGID_00000155828163620587576470000015099241278262261411_" gradientTransform="matrix(1 0 0 -1 0 514)" gradientUnits="userSpaceOnUse" x1="434.025" x2="416.873" xlink:href="#lg3" y1="268.326" y2="262.837"/><linearGradient id="SVGID_00000093863035806025759370000006796748543018257293_" gradientTransform="matrix(1 0 0 -1 0 514)" gradientUnits="userSpaceOnUse" x1="420.082" x2="411.148" xlink:href="#lg6" y1="256.714" y2="253.98"/><linearGradient id="SVGID_00000018957243003049278340000018081389290373602705_" gradientTransform="matrix(0 1 -1 0 9534.218 -6610.529)" gradientUnits="userSpaceOnUse" x1="6844.326" x2="6858.405" y1="9097.45" y2="9083.371"><stop offset="0" stop-color="#7a6d79"/><stop offset=".2546" stop-color="#6c616c"/><stop offset=".6831" stop-color="#5b535b"/><stop offset="1" stop-color="#554e56"/></linearGradient><linearGradient id="SVGID_00000154383432301013423980000018017665363685483416_" gradientTransform="matrix(0 1 -1 0 9534.218 -6610.529)" gradientUnits="userSpaceOnUse" x1="6852.659" x2="6852.659" xlink:href="#lg2" y1="9092.837" y2="9076.632"/><linearGradient id="SVGID_00000048483347734026196180000004380400620651911607_" gradientTransform="matrix(0 1 -1 0 9534.218 -6610.529)" gradientUnits="userSpaceOnUse" x1="6847.568" x2="6860.75" xlink:href="#lg2" y1="9092.898" y2="9083.106"/><linearGradient id="SVGID_00000016794748826451191700000012405177178636253077_" gradientTransform="matrix(0 1 -1 0 9534.218 -6610.529)" gradientUnits="userSpaceOnUse" x1="6858.025" x2="6864.821" y1="9083.751" y2="9076.954"><stop offset="0" stop-color="#fff" stop-opacity="0"/><stop offset=".1606" stop-color="#fff" stop-opacity=".013"/><stop offset=".2909" stop-color="#fff" stop-opacity=".052"/><stop offset=".4105" stop-color="#fff" stop-opacity=".119"/><stop offset=".5238" stop-color="#fff" stop-opacity=".213"/><stop offset=".6326" stop-color="#fff" stop-opacity=".335"/><stop offset=".7381" stop-color="#fff" stop-opacity=".484"/><stop offset=".8409" stop-color="#fff" stop-opacity=".661"/><stop offset=".939" stop-color="#fff" stop-opacity=".86"/><stop offset="1" stop-color="#fff"/></linearGradient><linearGradient id="SVGID_00000047744632135126517650000000049189718738764443_" gradientTransform="matrix(1.711 0 0 -1 -2422.501 831.385)" gradientUnits="userSpaceOnUse" x1="1623.094" x2="1636.781" xlink:href="#lg1" y1="577.849" y2="552.431"/><linearGradient id="SVGID_00000097475892590897877670000004219939728372301469_" gradientTransform="matrix(1.711 0 0 -1 -2422.501 831.385)" gradientUnits="userSpaceOnUse" x1="1630.126" x2="1641.578" xlink:href="#lg2" y1="564.071" y2="547.033"/><linearGradient id="SVGID_00000114767078723039004580000014963521406607071918_" gradientTransform="matrix(1 0 0 -1 0 514)" gradientUnits="userSpaceOnUse" x1="363.921" x2="360.826" xlink:href="#lg2" y1="249.289" y2="265.345"/><linearGradient id="SVGID_00000134212746751810500070000007352386698463450521_" gradientTransform="matrix(1.711 0 0 -1 -2422.501 831.385)" gradientUnits="userSpaceOnUse" x1="1625.721" x2="1646.902" xlink:href="#lg2" y1="567.732" y2="544.433"/><linearGradient id="SVGID_00000160170143090072171920000017804423886161657990_" gradientTransform="matrix(1 0 0 -1 0 514)" gradientUnits="userSpaceOnUse" x1="365.745" x2="364.004" xlink:href="#lg2" y1="243.357" y2="257.091"/><g><g><path d="m285.2 218.6s-13.4-23.5-37-44.8c-1.7-1.5-4.3-1.3-5.7.5-5.3 6.8-18.2 22.6-29.5 31.8-1.2 1-.8 2.9.7 3.3 6.7 1.9 20.4 8 27.1 25.9z" fill="url(#SVGID_1_)"/><path d="m285.2 218.6s-13.4-23.5-37-44.8c-1.7-1.5-4.3-1.3-5.7.5-5.3 6.8-18.2 22.6-29.5 31.8-1.2 1-.8 2.9.7 3.3 6.7 1.9 20.4 8 27.1 25.9z" fill="url(#SVGID_00000041293145817656745040000001942018543828779434_)" opacity=".55"/><g><path d="m239.4 178.4c-6.3 7.8-16.9 20.1-26.3 27.8-1.2 1-.8 2.9.7 3.3 6.7 1.9 20.4 8 27.1 25.9l35.3-13.3c-5.9-9-18.5-26.8-36.8-43.7z" fill="url(#SVGID_00000029757944784537156830000008664635784618877876_)" opacity=".55"/><path d="m232 187.2c-5.7 6.6-12.6 13.8-18.9 19-1.2 1-.8 2.9.7 3.3 6.7 1.9 20.4 8 27.1 25.9l24.8-9.3c-6.9-9.9-18.3-24.7-33.7-38.9z" fill="url(#SVGID_00000081636825202598974130000014636540095996737683_)" opacity=".55"/><path d="m224.2 195.7c-3.7 3.8-7.5 7.5-11.1 10.5-1.2 1-.8 2.9.7 3.3 6.7 1.9 20.4 8 27.1 25.9l14.1-5.3c-7.1-9.7-17.5-22.3-30.8-34.4z" fill="url(#SVGID_00000100358513796998102950000007721681698794323080_)" opacity=".55"/></g></g><path d="m285.2 218.6s-13.4-23.5-37-44.8c-1.7-1.5-4.3-1.3-5.7.5-5.3 6.8-18.2 22.6-29.5 31.8-1.2 1-.8 2.9.7 3.3 6.7 1.9 20.4 8 27.1 25.9z" fill="url(#SVGID_00000099628570020757771780000007369676442462216894_)"/><g><path d="m271.2 287.2c.7 8 1.3 31-12 49.7-1.3 1.9-3.7 2.7-5.9 2.1-9.8-2.6-34.5-12.9-20.4-46.4 1-2.5 3.7-3.7 6.3-3 6.4 2 19 4.2 29.5-3.6 1-.7 2.4-.1 2.5 1.2z" fill="url(#SVGID_00000035492654852845024550000000696107388089799325_)"/><g opacity=".25"><path d="m259.2 336.9c-1.3 1.9-3.7 2.7-5.9 2.1-1.7-.5-3.9-1.2-6.3-2.2v-45.5c6.5.7 14.5.1 21.6-5.2 1-.7 2.4-.1 2.5 1.1.8 8 1.4 30.9-11.9 49.7z" fill="url(#SVGID_00000005972111881173706720000015836421500071148423_)"/><g><path d="m263.7 315.7c4.4-10.1 6.5-20.4 6.4-29.9-.5-.2-1-.1-1.4.2-10.5 7.8-23 5.5-29.5 3.6-2.5-.8-5.3.5-6.3 3-12.4 29.5 5.3 41 16.4 45.1 5.7-6 10.7-13.4 14.4-22z" fill="url(#SVGID_00000050661116446221842840000009322495117413580190_)"/><path d="m270.2 285.8c-.5-.2-1-.1-1.4.2-10.5 7.8-23 5.5-29.5 3.6-2.5-.8-5.3.5-6.3 3-8.5 20.2-2.9 31.9 5 38.6 6.8-4.4 13.3-10.4 18.9-17.8 6.7-8.8 11.1-18.3 13.3-27.6z" fill="url(#SVGID_00000048484787381103969400000012067911450297773714_)"/><path d="m270.2 285.8c-.5-.2-1-.1-1.4.2-10.5 7.8-23 5.5-29.5 3.6-2.5-.8-5.3.5-6.3 3-5.4 12.9-5.1 22.4-2.1 29.3 6.8-2.8 13.7-6.8 20-12 8.5-7.2 15.1-15.5 19.3-24.1z" fill="url(#SVGID_00000114073384293121335950000002070216823016030624_)"/><path d="m268.7 286c-10.5 7.8-23 5.5-29.5 3.6-2.5-.8-5.3.5-6.3 3-3 7-4.2 13-4.2 18.2 5.6-1.3 11.3-3.3 17-6 10-4.9 18.4-11.5 24.5-18.9-.5-.2-1-.2-1.5.1z" fill="url(#SVGID_00000087396683264474131640000002201702148634923707_)"/><path d="m241.5 297.9c11-2.2 20.9-6.5 28.7-12.1-.5-.2-1-.1-1.4.2-10.5 7.8-23 5.5-29.5 3.6-2.5-.8-5.3.5-6.3 3-1 2.3-1.8 4.6-2.4 6.7 3.5-.3 7.2-.7 10.9-1.4z" fill="url(#SVGID_00000056411315256550078830000000010399945956376501_)"/></g></g></g><path d="m271.2 287.2c-.1-1.2-1.5-1.8-2.5-1.1-10.5 7.8-23 5.5-29.5 3.6-2.5-.8-5.3.5-6.3 3-3.3 7.8-4.5 14.4-4.2 19.9h40.8c2.5-11.1 2.1-20.8 1.7-25.4z" fill="url(#SVGID_00000096782108173451662430000016427480661230027414_)"/><g><path d="m182.7 276s-8.5 14.6-26.1 30.4c-2.2 1.9-5.6 1.4-7-1.1-4.1-7.1-14.3-20.5-36.9-31.5-1.5-.7-.9-3 .8-2.9z" fill="url(#SVGID_00000000903098077491439420000017226638540812335237_)"/><g opacity=".55"><path d="m182.7 276s-8.5 14.6-26.1 30.4c-2.2 1.9-5.6 1.4-7-1.1-4.1-7.1-14.3-20.5-36.9-31.5-1.5-.7-.9-3 .8-2.9z" fill="url(#SVGID_00000038387490546126979620000005635089655979963572_)"/><path d="m182.7 276s-8.5 14.6-26.1 30.4c-2.2 1.9-5.6 1.4-7-1.1-4.1-7.1-14.3-20.5-36.9-31.5-1.5-.7-.9-3 .8-2.9z" fill="url(#SVGID_00000103957761868539916990000009717991556522741695_)"/><g><path d="m113.4 270.9 63.8 4.7c-5.5 7.5-14.5 18.5-27.2 30.3-.2-.2-.3-.4-.5-.6-4.1-7.1-14.3-20.5-36.9-31.5-1.4-.7-.8-3 .8-2.9z" fill="url(#SVGID_00000160165704048483327280000007527869877112624035_)"/><path d="m113.4 270.9 52.6 3.9c-5 6.4-12 14.8-21.2 23.7-5.7-7.2-15.6-16.6-32.2-24.7-1.4-.7-.8-3 .8-2.9z" fill="url(#SVGID_00000059289441417917332000000017897981530450206642_)"/><path d="m113.4 270.9 41.3 3c-4.2 5.2-9.5 11.3-16 17.8-5.9-5.8-14.3-12.2-26.1-18-1.4-.6-.8-2.9.8-2.8z" fill="url(#SVGID_00000036970464385928358540000013130575432409184677_)"/><path d="m113.4 270.9 29.9 2.2c-3.3 3.9-7.1 8.1-11.4 12.6-5.1-4-11.4-8.1-19.3-12-1.4-.6-.8-2.9.8-2.8z" fill="url(#SVGID_00000106145681610305637710000007033283584205674143_)"/><path d="m113.4 270.9 18.4 1.4c-2.3 2.6-4.7 5.3-7.5 8.1-3.5-2.2-7.4-4.5-11.7-6.6-1.4-.7-.8-3 .8-2.9z" fill="url(#SVGID_00000025406557669863311720000007427740068821750182_)"/></g></g></g><g><path d="m170.5 234.1s-5.9-10.2-18.2-21.2c-1.5-1.3-3.9-1-4.9.8-2.9 5-10 14.3-25.7 22-1 .5-.6 2.1.5 2z" fill="url(#SVGID_00000059286839483162220790000017415684491100155029_)"/><g opacity=".55"><path d="m170.5 234.1s-5.9-10.2-18.2-21.2c-1.5-1.3-3.9-1-4.9.8-2.9 5-10 14.3-25.7 22-1 .5-.6 2.1.5 2z" fill="url(#SVGID_00000051366343909030356010000002349567794840291735_)"/><path d="m170.5 234.1s-5.9-10.2-18.2-21.2c-1.5-1.3-3.9-1-4.9.8-2.9 5-10 14.3-25.7 22-1 .5-.6 2.1.5 2z" fill="url(#SVGID_00000112624488663826255130000002918622952184584126_)"/><g><path d="m122.2 237.7 44.5-3.3c-3.8-5.2-10.1-12.9-19-21.1-.1.1-.2.3-.3.4-2.9 5-10 14.3-25.7 22-1.1.5-.6 2.1.5 2z" fill="url(#SVGID_00000089553292752957898900000001800923390835666067_)"/><path d="m122.2 237.7 36.7-2.7c-3.5-4.5-8.4-10.3-14.8-16.5-4 5-10.9 11.5-22.4 17.2-1 .5-.6 2.1.5 2z" fill="url(#SVGID_00000142875065791995743250000014228630827600402586_)"/><path d="m122.2 237.7 28.8-2.1c-2.9-3.6-6.6-7.9-11.2-12.4-4.1 4-10 8.5-18.2 12.5-1 .5-.5 2.1.6 2z" fill="url(#SVGID_00000052795309677686847170000016124147573319782587_)"/><path d="m122.2 237.7 20.9-1.5c-2.3-2.7-4.9-5.7-8-8.8-3.6 2.8-8 5.7-13.4 8.3-1.1.5-.6 2.1.5 2z" fill="url(#SVGID_00000122684836375461499950000007078516871752923014_)"/><path d="m122.2 237.7 12.9-.9c-1.6-1.8-3.3-3.7-5.2-5.7-2.4 1.6-5.2 3.1-8.2 4.6-1.1.5-.6 2.1.5 2z" fill="url(#SVGID_00000120546701360882523300000004957143389216044970_)"/></g></g></g><g><path d="m0 183.6c1.5 13.3 6.8 46 25.2 68.4-18.4 22.5-23.7 55.1-25.2 68.5-.3 3.1 2.5 5.6 5.6 4.9 14.3-3.6 51.2-18 82.5-73.3-31.4-55.3-68.2-69.7-82.5-73.3-3-.8-5.9 1.7-5.6 4.8z" fill="url(#SVGID_00000052805810572134730860000009979927339763203486_)"/><path d="m0 183.6c1.5 13.3 6.8 46 25.2 68.4-18.4 22.5-23.7 55.1-25.2 68.5-.3 3.1 2.5 5.6 5.6 4.9 14.3-3.6 51.2-18 82.5-73.3-31.4-55.3-68.2-69.7-82.5-73.3-3-.8-5.9 1.7-5.6 4.8z" fill="url(#SVGID_00000046334199668850824870000010072797356733142938_)"/><path d="m88.1 252.1h-62.9c-18.4-22.5-23.7-55.1-25.2-68.5-.3-3.1 2.5-5.6 5.6-4.9 14.3 3.7 51.2 18.1 82.5 73.4z" fill="url(#SVGID_00000087395625224284001710000015945991609503551934_)"/><path d="m0 320.5c-.3 3.1 2.5 5.6 5.6 4.9 14.3-3.6 51.2-18 82.5-73.3h-62.9c-18.4 22.4-23.7 55-25.2 68.4z" fill="url(#SVGID_00000116931236025039184080000003778817797966058401_)"/><path d="m0 320.5c-.3 3.1 2.5 5.6 5.6 4.9 14.3-3.6 51.2-18 82.5-73.3h-62.9c-18.4 22.4-23.7 55-25.2 68.4z" fill="url(#SVGID_00000133487912195386728040000007165616308551702405_)"/><path d="m1.1 191.5c2.5 15.8 8.7 41.8 24.1 60.6-15.4 18.8-21.6 44.8-24.1 60.5 22.2-6.8 56.7-22.8 87.1-60.6-30.4-37.7-64.9-53.8-87.1-60.5z" fill="url(#SVGID_00000026139398889431656230000003592848136533250700_)"/><path d="m25.2 252.1c-9.2 11.3-15.2 25.2-19 37.8 22.2-4.9 53.8-15.4 81.9-37.8-28.1-22.5-59.8-33-81.9-37.8 3.8 12.6 9.8 26.5 19 37.8z" fill="url(#SVGID_00000150069626596253681730000010411884761782512807_)"/><path d="m25.2 252.1c-4.6 5.6-8.4 11.8-11.5 18.3 21.5-2.8 49.3-8.1 74.4-18.3-25.1-10.1-52.9-15.5-74.4-18.3 3.1 6.4 6.9 12.6 11.5 18.3z" fill="url(#SVGID_00000030484385305505577290000004141504188971823234_)"/></g><path d="m47.9 247.6c-5.2 1.4-5.2 7.5 0 8.9 305.9 81 434.6 20 461.2.8 3.8-2.8 3.8-7.8 0-10.5-26.6-19.2-155.3-80.2-461.2.8z" fill="url(#SVGID_00000044856709914126037920000013731310259152891820_)"/><path d="m509.1 246.8c-11.4-8.2-41.6-24.1-96.4-33.2-10.4 10.9-16.8 25.1-16.8 40.7 0 7.7 1.6 15.2 4.4 22 3.7 8.9 14.9 14 25.8 11.8 46.4-9.3 72.5-23.3 83-30.8 3.9-2.7 3.9-7.7 0-10.5z" fill="url(#SVGID_00000085209793651921037380000001201069413414630814_)"/><path d="m47.9 247.6c-5.2 1.4-5.2 7.5 0 8.9 305.9 81 434.6 20 461.2.8 3.8-2.8 3.8-7.8 0-10.5-26.6-19.2-155.3-80.2-461.2.8z" fill="url(#SVGID_00000165197713076439630170000014777071984977091989_)"/><path d="m47.9 247.6c-5.2 1.4-5.2 7.5 0 8.9 305.9 81 434.6 20 461.2.8 3.8-2.8 3.8-7.8 0-10.5-26.6-19.2-155.3-80.2-461.2.8z" fill="url(#SVGID_00000070840513439153136880000015562678933355701170_)"/><path d="m47.9 247.6c-5.2 1.4-5.2 7.5 0 8.9 305.9 81 434.6 20 461.2.8 3.8-2.8 3.8-7.8 0-10.5-26.6-19.2-155.3-80.2-461.2.8z" fill="url(#SVGID_00000106114727651734119090000002657476446048456364_)"/><path d="m47.9 247.6c-5.2 1.4-5.2 7.5 0 8.9 305.9 81 434.6 20 461.2.8 3.8-2.8 3.8-7.8 0-10.5-26.6-19.2-155.3-80.2-461.2.8z" fill="url(#SVGID_00000003826514004886650330000016017016957799002517_)"/><path d="m47.9 247.6c-5.2 1.4-5.2 7.5 0 8.9 305.9 81 434.6 20 461.2.8 3.8-2.8 3.8-7.8 0-10.5-26.6-19.2-155.3-80.2-461.2.8z" fill="url(#SVGID_00000030444986733861004740000013171037925477392768_)"/><path d="m47.9 247.6c-5.2 1.4-5.2 7.5 0 8.9 305.9 81 434.6 20 461.2.8 3.8-2.8 3.8-7.8 0-10.5-26.6-19.2-155.3-80.2-461.2.8z" fill="url(#SVGID_00000144304119005203742520000016989209455350702721_)"/><g><path d="m47.9 247.6c-5.2 1.4-5.2 7.5 0 8.9 305.9 81 434.6 20 461.2.8 3.8-2.8 3.8-7.8 0-10.5-26.6-19.2-155.3-80.2-461.2.8z" fill="url(#SVGID_00000113312437214982021450000005713971145245462159_)"/><path d="m47.9 247.6c-5.2 1.4-5.2 7.5 0 8.9 305.9 81 434.6 20 461.2.8 3.8-2.8 3.8-7.8 0-10.5-26.6-19.2-155.3-80.2-461.2.8z" fill="url(#SVGID_00000019645155128820057480000003829256479337944221_)"/><path d="m47.9 247.6c-5.2 1.4-5.2 7.5 0 8.9 305.9 81 434.6 20 461.2.8 3.8-2.8 3.8-7.8 0-10.5-26.6-19.2-155.3-80.2-461.2.8z" fill="url(#SVGID_00000129199806267084673980000003326988115635499957_)"/><g opacity=".55"><path d="m336.9 227.3c10.1-23.5 26.4-23.5 36.5 0l7.3 17c1.8 4.3 1.8 11.2 0 15.5l-7.3 17c-10.1 23.5-26.4 23.5-36.5 0-5.9-13.7-5.9-35.8 0-49.5z" fill="url(#SVGID_00000040558669213476908790000017888449230774180766_)"/><path d="m322.2 228.2c10.1-22.7 26.4-22.7 36.5 0l7.3 16.4c1.8 4.1 1.8 10.8 0 15l-7.3 16.4c-10.1 22.7-26.4 22.7-36.5 0-5.9-13.2-5.9-34.6 0-47.8z" fill="url(#SVGID_00000155112390749999431770000015859556246268128164_)"/><path d="m307.5 229c10.1-21.9 26.4-21.9 36.5 0l7.3 15.8c1.8 4 1.8 10.5 0 14.4l-7.3 15.8c-10.1 21.9-26.4 21.9-36.5 0-5.9-12.6-5.9-33.3 0-46z" fill="url(#SVGID_00000023264866374681616950000001699514533506112392_)"/><path d="m292.8 229.8c10.1-21.1 26.4-21.1 36.5 0l7.3 15.3c1.8 3.8 1.8 10.1 0 13.9l-7.3 15.3c-10.1 21.1-26.4 21.1-36.5 0-5.9-12.3-5.9-32.2 0-44.5z" fill="url(#SVGID_00000142863373742721442270000006988033277884694972_)"/><path d="m278 230.7c10.1-20.3 26.4-20.3 36.5 0l7.3 14.7c1.8 3.7 1.8 9.7 0 13.4l-7.3 14.7c-10.1 20.3-26.4 20.3-36.5 0-5.8-11.9-5.8-31 0-42.8z" fill="url(#SVGID_00000043419141899930319360000005003519995214853271_)"/><path d="m263.3 231.5c10.1-19.5 26.4-19.5 36.5 0l7.3 14.1c1.8 3.6 1.8 9.3 0 12.9l-7.3 14.1c-10.1 19.5-26.4 19.5-36.5 0-5.8-11.3-5.8-29.8 0-41.1z" fill="url(#SVGID_00000046337638401768660420000009461052952033832343_)"/><path d="m248.6 232.3c10.1-18.7 26.4-18.7 36.5 0l7.3 13.6c1.8 3.4 1.8 8.9 0 12.4l-7.3 13.6c-10.1 18.7-26.4 18.7-36.5 0-5.9-11-5.9-28.7 0-39.6z" fill="url(#SVGID_00000047060608506375902200000016008823976827265462_)"/><path d="m233.9 233.2c10.1-17.9 26.4-17.9 36.5 0l7.3 13c1.8 3.3 1.8 8.6 0 11.8l-7.3 13c-10.1 17.9-26.4 17.9-36.5 0-5.9-10.5-5.9-27.4 0-37.8z" fill="url(#SVGID_00000180327684896252367960000003741383736874619043_)"/><path d="m219.2 234c10.1-17.1 26.4-17.1 36.5 0l7.3 12.4c1.8 3.1 1.8 8.2 0 11.3l-7.3 12.4c-10.1 17.1-26.4 17.1-36.5 0-5.9-10-5.9-26.1 0-36.1z" fill="url(#SVGID_00000036232393751390658940000015525301066623167146_)"/><path d="m204.5 234.8c10.1-16.3 26.4-16.3 36.5 0l7.3 11.8c1.8 3 1.8 7.8 0 10.8l-7.3 11.8c-10.1 16.3-26.4 16.3-36.5 0-5.9-9.4-5.9-24.9 0-34.4z" fill="url(#SVGID_00000045620551626071694100000018237151231786790335_)"/><path d="m189.8 235.6c10.1-15.6 26.4-15.6 36.5 0l7.3 11.3c1.8 2.8 1.8 7.4 0 10.3l-7.3 11.3c-10.1 15.6-26.4 15.6-36.5 0-5.9-9.1-5.9-23.8 0-32.9z" fill="url(#SVGID_00000117667146356833126310000016574969560362986901_)"/><path d="m175 236.5c10.1-14.8 26.4-14.8 36.5 0l7.3 10.7c1.8 2.7 1.8 7.1 0 9.7l-7.3 10.7c-10.1 14.8-26.4 14.8-36.5 0-5.8-8.6-5.8-22.5 0-31.1z" fill="url(#SVGID_00000008125072980315396790000001775064464267086251_)"/><path d="m160.3 237.3c10.1-14 26.4-14 36.5 0l7.3 10.1c1.8 2.5 1.8 6.7 0 9.2l-7.3 10.1c-10.1 14-26.4 14-36.5 0-5.8-8-5.8-21.2 0-29.4z" fill="url(#SVGID_00000051377762137294153940000007528803791623041708_)"/><path d="m145.6 238.1c10.1-13.2 26.4-13.2 36.5 0l7.3 9.6c1.8 2.4 1.8 6.3 0 8.7l-7.3 9.6c-10.1 13.2-26.4 13.2-36.5 0-5.8-7.7-5.8-20.2 0-27.9z" fill="url(#SVGID_00000143587474542060336070000015632007131919369359_)"/><path d="m130.9 239c10.1-12.4 26.4-12.4 36.5 0l7.3 9c1.8 2.3 1.8 5.9 0 8.2l-7.3 9c-10.1 12.4-26.4 12.4-36.5 0-5.9-7.3-5.9-19 0-26.2z" fill="url(#SVGID_00000038407438577890163440000013904831391686626723_)"/><path d="m116.2 239.8c10.1-11.6 26.4-11.6 36.5 0l7.3 8.4c1.8 2.1 1.8 5.5 0 7.7l-7.3 8.4c-10.1 11.6-26.4 11.6-36.5 0-5.9-6.8-5.9-17.7 0-24.5z" fill="url(#SVGID_00000179628532261996752970000015577155527837655960_)"/><path d="m101.5 240.6c10.1-10.8 26.4-10.8 36.5 0l7.3 7.8c1.8 2 1.8 5.2 0 7.1l-7.3 7.8c-10.1 10.8-26.4 10.8-36.5 0-5.9-6.1-5.9-16.4 0-22.7z" fill="url(#SVGID_00000004518514302046410180000018347685647330450843_)"/></g></g><path d="m400.4 276.3c-1.2-2.9-2.1-5.8-2.9-8.9l-57 5.3 23.4 23.4c23.8-1.6 44.4-4.4 62.1-8-10.8 2.1-21.9-3-25.6-11.8z" fill="url(#SVGID_00000137823606858993553380000000993776571733887922_)"/><ellipse cx="445.1" cy="242.1" fill="url(#SVGID_00000155828163620587576470000015099241278262261411_)" rx="21.6" ry="18.2"/><ellipse cx="440.4" cy="251.1" fill="url(#SVGID_00000093863035806025759370000006796748543018257293_)" rx="32.1" ry="29.4"/><g><circle cx="445.1" cy="242.1" fill="url(#SVGID_00000018957243003049278340000018081389290373602705_)" r="14.4"/><circle cx="445.1" cy="242.1" fill="url(#SVGID_00000154383432301013423980000018017665363685483416_)" r="14.4"/><circle cx="445.1" cy="242.1" fill="url(#SVGID_00000048483347734026196180000004380400620651911607_)" r="14.4"/><circle cx="445.1" cy="242.1" fill="url(#SVGID_00000016794748826451191700000012405177178636253077_)" r="14.4"/></g><g><path d="m395.8 272.4c-6.7 6.5-17.1 11.3-29.2 12.9-3 .4-6.2-.1-8.6-1.2-17.1-8.2-25.2-18.8-28.9-26-.5-1 .1-2.1 1.5-2.8 7.6-3.5 16.8-5.6 26.7-5.6 16 0 30.1 5.4 38.4 13.5 2.7 2.6 2.7 6.6.1 9.2z" fill="url(#SVGID_00000047744632135126517650000000049189718738764443_)"/><g opacity=".25"><path d="m395.8 271.2c-8.3 6-22.4 10-38.4 10-1.7 0-3.5 0-5.2-.1-12.6-7.3-19.2-15.8-22.6-22.1 7.7-2.8 17.4-4.5 27.8-4.5 16 0 30.1 4 38.4 10 2.6 1.8 2.6 4.8 0 6.7z" fill="url(#SVGID_00000097475892590897877670000004219939728372301469_)"/></g><path d="m395.8 271.2c-8.3 6-22.4 10-38.4 10-1.7 0-3.5 0-5.2-.1-12.6-7.3-19.2-15.8-22.6-22.1 7.7-2.8 17.4-4.5 27.8-4.5 16 0 30.1 4 38.4 10 2.6 1.8 2.6 4.8 0 6.7z" fill="url(#SVGID_00000114767078723039004580000014963521406607071918_)" opacity=".25"/><g opacity=".25"><path d="m395.8 269.2c-8.3 2.5-22.4 4.1-38.4 4.1-5.9 0-11.6-.2-16.8-.6-3.4-3.1-6-6.1-8-9 7.2-.9 15.7-1.5 24.8-1.5 16 0 30.1 1.6 38.4 4.1 2.6.9 2.6 2.1 0 2.9z" fill="url(#SVGID_00000134212746751810500070000007352386698463450521_)"/><path d="m395.8 269.2c-8.3 2.5-22.4 4.1-38.4 4.1-5.9 0-11.6-.2-16.8-.6-3.4-3.1-6-6.1-8-9 7.2-.9 15.7-1.5 24.8-1.5 16 0 30.1 1.6 38.4 4.1 2.6.9 2.6 2.1 0 2.9z" fill="url(#SVGID_00000160170143090072171920000017804423886161657990_)"/></g></g></g></svg>