<svg id="Layer_44" enable-background="new 0 0 512 512" viewBox="0 0 512 512" xmlns="http://www.w3.org/2000/svg" xmlns:xlink="http://www.w3.org/1999/xlink"><linearGradient id="lg1"><stop offset="0" stop-color="#eaf6ff"/><stop offset=".1502" stop-color="#e6f1fa"/><stop offset=".3192" stop-color="#dbe4ec"/><stop offset=".4972" stop-color="#c9cfd6"/><stop offset=".6814" stop-color="#b0b2b6"/><stop offset=".8687" stop-color="#908c8e"/><stop offset="1" stop-color="#766e6e"/></linearGradient><linearGradient id="SVGID_1_" gradientTransform="matrix(1 .017 .017 -1 441.723 652.257)" gradientUnits="userSpaceOnUse" x1="-192.465" x2="-150.796" xlink:href="#lg1" y1="306.801" y2="277.57"/><linearGradient id="lg2"><stop offset="0" stop-color="#fd3e2b" stop-opacity="0"/><stop offset=".1937" stop-color="#fd3e2b" stop-opacity=".011"/><stop offset=".3278" stop-color="#fd3e2b" stop-opacity=".047"/><stop offset=".444" stop-color="#fd3e2b" stop-opacity=".108"/><stop offset=".55" stop-color="#fd3e2b" stop-opacity=".194"/><stop offset=".649" stop-color="#fd3e2b" stop-opacity=".306"/><stop offset=".7429" stop-color="#fd3e2b" stop-opacity=".443"/><stop offset=".8328" stop-color="#fd3e2b" stop-opacity=".606"/><stop offset=".9171" stop-color="#fd3e2b" stop-opacity=".789"/><stop offset=".9985" stop-color="#fd3e2b" stop-opacity=".996"/><stop offset="1" stop-color="#fd3e2b"/></linearGradient><linearGradient id="SVGID_00000150082610482478741380000011909716050792456881_" gradientTransform="matrix(.895 .446 .446 -.895 -102.552 377.849)" gradientUnits="userSpaceOnUse" x1="329.898" x2="311.391" xlink:href="#lg2" y1="211.396" y2="161.72"/><linearGradient id="lg3"><stop offset="0" stop-color="#593636" stop-opacity="0"/><stop offset=".2774" stop-color="#543333" stop-opacity=".101"/><stop offset=".5956" stop-color="#482d2e" stop-opacity=".396"/><stop offset=".9328" stop-color="#332224" stop-opacity=".883"/><stop offset="1" stop-color="#2f2022"/></linearGradient><linearGradient id="SVGID_00000183967378990272656780000000430484789685846697_" gradientTransform="matrix(1 .017 .017 -1 441.723 652.257)" gradientUnits="userSpaceOnUse" x1="-175.64" x2="-161.278" xlink:href="#lg3" y1="294.338" y2="289.198"/><linearGradient id="SVGID_00000045620218275566344630000015011513580095445932_" gradientTransform="matrix(1 .017 .017 -1 441.723 652.257)" gradientUnits="userSpaceOnUse" x1="-184.422" x2="-167.642" xlink:href="#lg3" y1="299.81" y2="291.193"/><linearGradient id="SVGID_00000054265039132318167520000012602097235862582667_" gradientTransform="matrix(1 .017 .017 -1 441.723 652.257)" gradientUnits="userSpaceOnUse" x1="-185.548" x2="-172.396" xlink:href="#lg3" y1="304.246" y2="294.722"/><linearGradient id="SVGID_00000154423385938104890300000009148386281500520065_" gradientTransform="matrix(1 .017 .017 -1 441.723 652.257)" gradientUnits="userSpaceOnUse" x1="-183.491" x2="-177.596" xlink:href="#lg3" y1="308.97" y2="300.051"/><linearGradient id="SVGID_00000163755548910618921970000015698239395658769855_" gradientTransform="matrix(1 .017 .017 -1 441.723 652.257)" gradientUnits="userSpaceOnUse" x1="-181.543" x2="-178.671" xlink:href="#lg3" y1="313.741" y2="307.089"/><linearGradient id="SVGID_00000020385918252694338480000009853814752767125669_" gradientTransform="matrix(1 .017 .017 -1 441.723 652.257)" gradientUnits="userSpaceOnUse" x1="-176.804" x2="-169.094" xlink:href="#lg3" y1="307.439" y2="322.103"/><linearGradient id="SVGID_00000086687430139861484270000008463562623512231815_" gradientTransform="matrix(.996 -.09 .09 .996 -14.947 2022.812)" gradientUnits="userSpaceOnUse" x1="301.578" x2="323.255" xlink:href="#lg1" y1="-1662.037" y2="-1692.532"/><linearGradient id="lg4"><stop offset="0" stop-color="#766e6e" stop-opacity="0"/><stop offset=".1657" stop-color="#766e6e" stop-opacity=".04"/><stop offset=".356" stop-color="#766e6e" stop-opacity=".158"/><stop offset=".5584" stop-color="#766e6e" stop-opacity=".353"/><stop offset=".7692" stop-color="#766e6e" stop-opacity=".626"/><stop offset=".9846" stop-color="#766e6e" stop-opacity=".973"/><stop offset="1" stop-color="#766e6e"/></linearGradient><linearGradient id="SVGID_00000032647459897952615070000009841851189419241116_" gradientTransform="matrix(.996 -.09 .09 .996 -14.947 2022.812)" gradientUnits="userSpaceOnUse" x1="337.292" x2="363.011" xlink:href="#lg4" y1="-1665.197" y2="-1656.379"/><linearGradient id="SVGID_00000140011595158811047420000007515045731432020108_" gradientTransform="matrix(.996 -.09 .09 .996 -14.947 2022.812)" gradientUnits="userSpaceOnUse" x1="325.244" x2="356.107" xlink:href="#lg4" y1="-1676.013" y2="-1665.726"/><linearGradient id="SVGID_00000029755972798066195220000004129321989349375423_" gradientTransform="matrix(.996 -.09 .09 .996 -14.947 2022.812)" gradientUnits="userSpaceOnUse" x1="311.491" x2="338.924" xlink:href="#lg4" y1="-1684.844" y2="-1674.312"/><linearGradient id="SVGID_00000148630968160497782140000004457740914762604468_" gradientTransform="matrix(.996 -.09 .09 .996 -14.947 2022.812)" gradientUnits="userSpaceOnUse" x1="298.668" x2="331" xlink:href="#lg4" y1="-1691.488" y2="-1677.281"/><linearGradient id="SVGID_00000090283117202923002290000002864138268508889732_" gradientTransform="matrix(.996 -.09 .09 .996 -14.947 2022.812)" gradientUnits="userSpaceOnUse" x1="295.016" x2="312.652" xlink:href="#lg4" y1="-1694.769" y2="-1680.317"/><linearGradient id="SVGID_00000061458880581921909410000004734087196564375742_" gradientTransform="matrix(.996 -.09 .09 .996 -14.947 2022.812)" gradientUnits="userSpaceOnUse" x1="273.021" x2="314.763" xlink:href="#lg4" y1="-1708.953" y2="-1708.953"/><linearGradient id="SVGID_00000021077967229427242700000014023091025021062038_" gradientTransform="matrix(.996 -.09 .09 .996 -14.947 2022.812)" gradientUnits="userSpaceOnUse" x1="273.02" x2="303.843" xlink:href="#lg4" y1="-1714.491" y2="-1714.491"/><linearGradient id="SVGID_00000085215724961230887330000017677590821028378801_" gradientTransform="matrix(.978 -.209 .209 .978 -328.563 1892.443)" gradientUnits="userSpaceOnUse" x1="773.423" x2="810.781" xlink:href="#lg3" y1="-1406.956" y2="-1460.192"/><linearGradient id="SVGID_00000061461652702218512030000014700683894169813129_" gradientTransform="matrix(1 0 0 -1 0 514)" gradientUnits="userSpaceOnUse" x1="170.799" x2="127.527" xlink:href="#lg2" y1="223.53" y2="166.872"/><linearGradient id="lg5"><stop offset="0" stop-color="#7a6d79"/><stop offset=".2546" stop-color="#6c616c"/><stop offset=".6831" stop-color="#5b535b"/><stop offset="1" stop-color="#554e56"/></linearGradient><linearGradient id="SVGID_00000173848481821635581060000005781478980574348675_" gradientTransform="matrix(1 0 0 -1 0 514)" gradientUnits="userSpaceOnUse" x1="56.314" x2="56.314" xlink:href="#lg5" y1="293.625" y2="207.588"/><linearGradient id="SVGID_00000059997959564892642520000008490508421150046876_" gradientTransform="matrix(1 0 0 -1 0 514)" gradientUnits="userSpaceOnUse" x1="45.19" x2="60.591" xlink:href="#lg3" y1="229.011" y2="202.703"/><linearGradient id="SVGID_00000149354610599061433380000001150111665072005820_" gradientTransform="matrix(1 0 0 -1 0 514)" gradientUnits="userSpaceOnUse" x1="67.529" x2="-4.365" xlink:href="#lg3" y1="244.368" y2="244.368"/><linearGradient id="SVGID_00000182516606487984019990000018270404744027563167_" gradientTransform="matrix(1 0 0 -1 0 514)" gradientUnits="userSpaceOnUse" x1="70.737" x2="2.72" xlink:href="#lg3" y1="244.369" y2="244.369"/><linearGradient id="SVGID_00000065791416560835503260000010825099350967166598_" gradientTransform="matrix(1 0 0 -1 0 514)" gradientUnits="userSpaceOnUse" x1="50.845" x2="9.013" xlink:href="#lg3" y1="244.372" y2="244.372"/><linearGradient id="SVGID_00000036246070333247546890000004687385558608859014_" gradientTransform="matrix(1 0 0 -1 0 514)" gradientUnits="userSpaceOnUse" x1="213.529" x2="252.978" xlink:href="#lg5" y1="349.206" y2="299.043"/><linearGradient id="SVGID_00000080179514335968932070000007251114023048241544_" gradientTransform="matrix(1 0 0 -1 0 514)" gradientUnits="userSpaceOnUse" x1="233.497" x2="240.071" xlink:href="#lg3" y1="339.892" y2="305.923"/><linearGradient id="SVGID_00000093138185297603070860000014418794893943222154_" gradientTransform="matrix(1 0 0 -1 0 514)" gradientUnits="userSpaceOnUse" x1="252.401" x2="267.742" xlink:href="#lg3" y1="336.211" y2="346.439"/><linearGradient id="SVGID_00000098929742508955491140000012801296307373481602_" gradientTransform="matrix(1 0 0 -1 0 514)" gradientUnits="userSpaceOnUse" x1="239.895" x2="260.349" xlink:href="#lg3" y1="320.559" y2="334.805"/><linearGradient id="SVGID_00000035515365358383938690000013498952873168630411_" gradientTransform="matrix(1 0 0 -1 0 514)" gradientUnits="userSpaceOnUse" x1="227.789" x2="249.34" xlink:href="#lg3" y1="310.698" y2="324.578"/><linearGradient id="SVGID_00000052074888482694315160000008027433960111547579_" gradientTransform="matrix(1 0 0 -1 0 514)" gradientUnits="userSpaceOnUse" x1="216.699" x2="230.945" xlink:href="#lg3" y1="305.726" y2="318.145"/><linearGradient id="SVGID_00000163053814050663641520000006099330844848468916_" gradientTransform="matrix(1 0 0 -1 0 514)" gradientUnits="userSpaceOnUse" x1="202.427" x2="214.115" xlink:href="#lg3" y1="297.809" y2="308.767"/><linearGradient id="SVGID_00000023267371495988012040000007645290173214011574_" gradientTransform="matrix(1 0 0 -1 0 514)" gradientUnits="userSpaceOnUse" x1="287.171" x2="287.171" xlink:href="#lg1" y1="166.408" y2="312.36"/><linearGradient id="SVGID_00000007390038847677062650000004452085020062950542_" gradientTransform="matrix(1 0 0 -1 0 514)" gradientUnits="userSpaceOnUse" x1="410.392" x2="472.395" xlink:href="#lg1" y1="193.992" y2="281.895"/><linearGradient id="SVGID_00000072979035655438823830000011561835509953910176_" gradientTransform="matrix(1 0 0 -1 0 514)" gradientUnits="userSpaceOnUse" x1="300.427" x2="335.323" y1="283.793" y2="385.988"><stop offset="0" stop-color="#8795de" stop-opacity="0"/><stop offset=".105" stop-color="#8492dd" stop-opacity=".033"/><stop offset=".2533" stop-color="#7c8cdb" stop-opacity=".125"/><stop offset=".4273" stop-color="#6f81d8" stop-opacity=".276"/><stop offset=".6209" stop-color="#5d72d3" stop-opacity=".486"/><stop offset=".8281" stop-color="#465ece" stop-opacity=".751"/><stop offset="1" stop-color="#314dc9"/></linearGradient><linearGradient id="SVGID_00000014629248421153654520000007242393006660020882_" gradientTransform="matrix(1 0 0 -1 0 514)" gradientUnits="userSpaceOnUse" x1="305.477" x2="340.373" y1="298.58" y2="400.775"><stop offset="0" stop-color="#47a920" stop-opacity="0"/><stop offset=".1426" stop-color="#44a822" stop-opacity=".035"/><stop offset=".3151" stop-color="#3da528" stop-opacity=".138"/><stop offset=".503" stop-color="#31a132" stop-opacity=".308"/><stop offset=".7017" stop-color="#219b41" stop-opacity=".545"/><stop offset=".9071" stop-color="#0c9353" stop-opacity=".846"/><stop offset="1" stop-color="#02905d"/></linearGradient><linearGradient id="SVGID_00000114048133438887370150000011889484560747928708_" gradientTransform="matrix(1 0 0 -1 0 514)" gradientUnits="userSpaceOnUse" x1="278.217" x2="271.088" xlink:href="#lg4" y1="200.004" y2="164.354"/><linearGradient id="SVGID_00000140699000947372530060000010882398469658431115_" gradientTransform="matrix(1 0 0 -1 0 514)" gradientUnits="userSpaceOnUse" x1="287.171" x2="287.171" xlink:href="#lg4" y1="206.472" y2="159.556"/><linearGradient id="SVGID_00000052789034773971320080000007043255724677252269_" gradientTransform="matrix(-1 0 0 -1 -405.873 514)" gradientUnits="userSpaceOnUse" x1="-561.895" x2="-555.76" xlink:href="#lg4" y1="254.73" y2="247.65"/><linearGradient id="SVGID_00000128463058850699399710000016019041050934246836_" gradientTransform="matrix(-1 0 0 -1 -405.873 514)" gradientUnits="userSpaceOnUse" x1="-563.266" x2="-555.18" xlink:href="#lg4" y1="233.115" y2="224.711"/><linearGradient id="SVGID_00000026134038250030111380000017959894797212518531_" gradientTransform="matrix(1 0 0 -1 0 514)" gradientUnits="userSpaceOnUse" x1="182.892" x2="169.376" xlink:href="#lg4" y1="270.91" y2="257.75"/><linearGradient id="SVGID_00000016044400901045787370000011788034711088651142_" gradientTransform="matrix(-1 0 0 -1 -405.873 514)" gradientUnits="userSpaceOnUse" x1="-586.199" x2="-576.63" xlink:href="#lg4" y1="245.048" y2="235.478"/><linearGradient id="SVGID_00000042717104137054130770000016132221520584766639_" gradientTransform="matrix(-1 0 0 -1 -405.873 514)" gradientUnits="userSpaceOnUse" x1="-585.913" x2="-576.812" xlink:href="#lg4" y1="221.481" y2="212.859"/><linearGradient id="SVGID_00000098206428440327198930000012035713464803504275_" gradientTransform="matrix(-1 0 0 -1 -405.873 514)" gradientUnits="userSpaceOnUse" x1="-536.986" x2="-527.417" xlink:href="#lg4" y1="245.048" y2="235.478"/><linearGradient id="SVGID_00000142864241103658820710000018126249318539398308_" gradientTransform="matrix(-1 0 0 -1 -405.873 514)" gradientUnits="userSpaceOnUse" x1="-610.093" x2="-604.348" xlink:href="#lg4" y1="254.118" y2="248.533"/><linearGradient id="SVGID_00000025440159517859852850000008393717786005938088_" gradientTransform="matrix(-1 0 0 -1 -405.873 514)" gradientUnits="userSpaceOnUse" x1="-614.059" x2="-603.716" xlink:href="#lg4" y1="234.649" y2="224.146"/><linearGradient id="SVGID_00000029737557176317073560000009902900574273215925_" gradientTransform="matrix(-1 0 0 -1 -405.873 514)" gradientUnits="userSpaceOnUse" x1="-613.022" x2="-602.013" xlink:href="#lg4" y1="210.274" y2="199.425"/><linearGradient id="SVGID_00000163045483945729703400000009759604239729795466_" gradientTransform="matrix(-1 0 0 -1 -405.873 514)" gradientUnits="userSpaceOnUse" x1="-634.118" x2="-628.44" xlink:href="#lg4" y1="266.801" y2="260.65"/><linearGradient id="SVGID_00000086663819377996728800000015154146512232941699_" gradientTransform="matrix(-1 0 0 -1 -405.873 514)" gradientUnits="userSpaceOnUse" x1="-634.762" x2="-628.157" xlink:href="#lg4" y1="244.005" y2="236.299"/><linearGradient id="SVGID_00000006668173895771577720000011432609746470554762_" gradientTransform="matrix(-1 0 0 -1 -405.873 514)" gradientUnits="userSpaceOnUse" x1="-633.987" x2="-628.173" xlink:href="#lg4" y1="219.7" y2="212.785"/><linearGradient id="SVGID_00000042702054925292093540000005377489334472021648_" gradientTransform="matrix(-1 0 0 -1 -405.873 514)" gradientUnits="userSpaceOnUse" x1="-688.41" x2="-679.896" xlink:href="#lg4" y1="286.917" y2="277.615"/><linearGradient id="SVGID_00000052088293050604931460000011990720788195051453_" gradientTransform="matrix(-1 0 0 -1 -405.873 514)" gradientUnits="userSpaceOnUse" x1="-687.144" x2="-681.008" xlink:href="#lg4" y1="262.029" y2="254.949"/><linearGradient id="SVGID_00000145051901500594927230000002195668351622184870_" gradientTransform="matrix(-1 0 0 -1 -405.873 514)" gradientUnits="userSpaceOnUse" x1="-688.515" x2="-680.429" xlink:href="#lg4" y1="240.414" y2="232.01"/><linearGradient id="SVGID_00000139996103573198646930000008389421475378845351_" gradientTransform="matrix(-1 0 0 -1 -405.873 514)" gradientUnits="userSpaceOnUse" x1="-692.948" x2="-678.689" xlink:href="#lg4" y1="222.008" y2="205.713"/><linearGradient id="SVGID_00000145753240739618503410000007738673415173872315_" gradientTransform="matrix(-1 0 0 -1 -405.873 514)" gradientUnits="userSpaceOnUse" x1="-717.021" x2="-702.949" xlink:href="#lg4" y1="280.848" y2="268.535"/><linearGradient id="SVGID_00000145741993686949182670000009922452466305470135_" gradientTransform="matrix(-1 0 0 -1 -405.873 514)" gradientUnits="userSpaceOnUse" x1="-711.448" x2="-701.879" xlink:href="#lg4" y1="252.346" y2="242.777"/><linearGradient id="SVGID_00000145059457457823783470000015543484778786590397_" gradientTransform="matrix(-1 0 0 -1 -405.873 514)" gradientUnits="userSpaceOnUse" x1="-711.162" x2="-702.061" xlink:href="#lg4" y1="228.779" y2="220.158"/><linearGradient id="SVGID_00000048478569470562131980000001983525383200626870_" gradientTransform="matrix(-1 0 0 -1 -405.873 514)" gradientUnits="userSpaceOnUse" x1="-667.808" x2="-653.736" xlink:href="#lg4" y1="280.848" y2="268.535"/><linearGradient id="SVGID_00000105421284269317391320000009050780305979486398_" gradientTransform="matrix(-1 0 0 -1 -405.873 514)" gradientUnits="userSpaceOnUse" x1="-662.235" x2="-652.666" xlink:href="#lg4" y1="252.346" y2="242.777"/><linearGradient id="SVGID_00000170998026601750702200000002870084034674566823_" gradientTransform="matrix(-1 0 0 -1 -405.873 514)" gradientUnits="userSpaceOnUse" x1="-661.988" x2="-653.365" xlink:href="#lg4" y1="228.682" y2="219.521"/><linearGradient id="SVGID_00000139285738631426802600000015474636665006080185_" gradientTransform="matrix(-1 0 0 -1 -405.873 514)" gradientUnits="userSpaceOnUse" x1="-737.104" x2="-729.262" xlink:href="#lg4" y1="287.007" y2="280.446"/><linearGradient id="SVGID_00000009561804828776400750000002904672399209857725_" gradientTransform="matrix(-1 0 0 -1 -405.873 514)" gradientUnits="userSpaceOnUse" x1="-735.341" x2="-729.597" xlink:href="#lg4" y1="261.417" y2="255.831"/><linearGradient id="SVGID_00000078740435632057112040000000961380356733632423_" gradientTransform="matrix(-1 0 0 -1 -405.873 514)" gradientUnits="userSpaceOnUse" x1="-739.308" x2="-728.965" xlink:href="#lg4" y1="241.948" y2="231.445"/><linearGradient id="SVGID_00000164482247266838309570000017827916758719613858_" gradientTransform="matrix(-1 0 0 -1 -405.873 514)" gradientUnits="userSpaceOnUse" x1="-738.27" x2="-727.262" xlink:href="#lg4" y1="217.573" y2="206.724"/><linearGradient id="SVGID_00000016073585650100240310000004063107684651633339_" gradientTransform="matrix(-1 0 0 -1 -405.873 514)" gradientUnits="userSpaceOnUse" x1="-759.367" x2="-753.689" xlink:href="#lg4" y1="274.1" y2="267.949"/><linearGradient id="SVGID_00000036220132383393421130000015826377112280647824_" gradientTransform="matrix(-1 0 0 -1 -405.873 514)" gradientUnits="userSpaceOnUse" x1="-760.011" x2="-753.406" xlink:href="#lg4" y1="251.304" y2="243.598"/><linearGradient id="SVGID_00000132788994505917668170000015099235146296101273_" gradientTransform="matrix(-1 0 0 -1 -405.873 514)" gradientUnits="userSpaceOnUse" x1="-759.236" x2="-753.422" xlink:href="#lg4" y1="226.998" y2="220.084"/><linearGradient id="SVGID_00000160187937187150791000000008566009061471892926_" gradientTransform="matrix(1 0 0 -1 0 514)" gradientUnits="userSpaceOnUse" x1="311.092" x2="321.044" xlink:href="#lg4" y1="174.639" y2="145.776"/><linearGradient id="SVGID_00000032635272849353438920000001112408549133725871_" gradientTransform="matrix(1 0 0 -1 0 514)" gradientUnits="userSpaceOnUse" x1="382.39" x2="375.816" xlink:href="#lg4" y1="182.462" y2="226.659"/><linearGradient id="SVGID_00000070824395009192263200000014440994299402293905_" gradientTransform="matrix(1.711 0 0 -1 -1287.678 831.385)" gradientUnits="userSpaceOnUse" x1="955.917" x2="971.276" xlink:href="#lg1" y1="563.074" y2="534.55"/><linearGradient id="SVGID_00000171685709141390625540000005102759333839190435_" gradientTransform="matrix(1.711 0 0 -1 -1287.678 831.385)" gradientUnits="userSpaceOnUse" x1="963.807" x2="976.659" xlink:href="#lg4" y1="547.613" y2="528.493"/><linearGradient id="SVGID_00000023997632871097223230000012079542384631625911_" gradientTransform="matrix(1 0 0 -1 0 514)" gradientUnits="userSpaceOnUse" x1="358.304" x2="354.831" xlink:href="#lg4" y1="233.148" y2="251.166"/><linearGradient id="SVGID_00000175300942214150361670000003536205395972846228_" gradientTransform="matrix(1.711 0 0 -1 -1287.678 831.385)" gradientUnits="userSpaceOnUse" x1="958.865" x2="982.634" xlink:href="#lg4" y1="551.721" y2="525.576"/><linearGradient id="SVGID_00000054228197271939068480000012709892172394814892_" gradientTransform="matrix(1 0 0 -1 0 514)" gradientUnits="userSpaceOnUse" x1="360.351" x2="358.397" xlink:href="#lg4" y1="226.492" y2="241.904"/><linearGradient id="SVGID_00000172441815151813875390000017125100552948199816_" gradientTransform="matrix(1 0 0 -1 0 514)" gradientUnits="userSpaceOnUse" x1="357.416" x2="339.616" xlink:href="#lg4" y1="234.263" y2="215.594"/><linearGradient id="SVGID_00000163784153598963599110000007731116486832083352_" gradientTransform="matrix(1 0 0 -1 0 514)" gradientUnits="userSpaceOnUse" x1="440.888" x2="304.035" xlink:href="#lg2" y1="193.263" y2="256.088"/><linearGradient id="SVGID_00000049930853796047822810000003858315594983453322_" gradientTransform="matrix(1 0 0 -1 0 514)" gradientUnits="userSpaceOnUse" x1="433.739" x2="416.321" xlink:href="#lg4" y1="252.684" y2="247.11"/><linearGradient id="SVGID_00000021098002554533824850000006222894455175911094_" gradientTransform="matrix(0 1 -1 0 7406.218 -4482.529)" gradientUnits="userSpaceOnUse" x1="4728.088" x2="4742.191" xlink:href="#lg5" y1="6969.579" y2="6955.476"/><linearGradient id="SVGID_00000054979003026434329400000016584477058722040223_" gradientTransform="matrix(0 1 -1 0 7406.218 -4482.529)" gradientUnits="userSpaceOnUse" x1="4736.435" x2="4736.435" xlink:href="#lg3" y1="6964.958" y2="6948.726"/><linearGradient id="SVGID_00000040537007976277238070000011252098880027261835_" gradientTransform="matrix(0 1 -1 0 7406.218 -4482.529)" gradientUnits="userSpaceOnUse" x1="4731.336" x2="4744.54" xlink:href="#lg3" y1="6965.02" y2="6955.211"/><linearGradient id="SVGID_00000003066292447755922730000009441548922372344975_" gradientTransform="matrix(0 1 -1 0 7406.218 -4482.529)" gradientUnits="userSpaceOnUse" x1="4741.811" x2="4748.619" y1="6955.856" y2="6949.048"><stop offset="0" stop-color="#fff" stop-opacity="0"/><stop offset=".1606" stop-color="#fff" stop-opacity=".013"/><stop offset=".2909" stop-color="#fff" stop-opacity=".052"/><stop offset=".4105" stop-color="#fff" stop-opacity=".119"/><stop offset=".5238" stop-color="#fff" stop-opacity=".213"/><stop offset=".6326" stop-color="#fff" stop-opacity=".335"/><stop offset=".7381" stop-color="#fff" stop-opacity=".484"/><stop offset=".8409" stop-color="#fff" stop-opacity=".661"/><stop offset=".939" stop-color="#fff" stop-opacity=".86"/><stop offset="1" stop-color="#fff"/></linearGradient><g><g><path d="m287 332.7c.5 7.8.7 30.3-12.5 48.4-1.3 1.8-3.6 2.6-5.8 1.9-9.5-2.8-33.5-13.1-19.1-45.7 1-2.4 3.7-3.6 6.2-2.8 6.2 2 18.5 4.4 28.9-3 .9-.7 2.2 0 2.3 1.2z" fill="url(#SVGID_1_)"/><path d="m287 332.7c.5 7.8.7 30.3-12.5 48.4-1.3 1.8-3.6 2.6-5.8 1.9-9.5-2.8-33.5-13.1-19.1-45.7 1-2.4 3.7-3.6 6.2-2.8 6.2 2 18.5 4.4 28.9-3 .9-.7 2.2 0 2.3 1.2z" fill="url(#SVGID_00000150082610482478741380000011909716050792456881_)"/><g opacity=".55"><path d="m279.2 360.4c4.5-9.8 6.7-19.8 6.8-29.1-.4-.2-1-.1-1.4.2-10.4 7.4-22.6 5-28.9 3-2.5-.8-5.1.4-6.2 2.8-12.6 28.6 4.5 40.1 15.2 44.3 5.7-5.7 10.7-12.9 14.5-21.2z" fill="url(#SVGID_00000183967378990272656780000000430484789685846697_)"/><path d="m286 331.3c-.4-.2-1-.1-1.4.2-10.4 7.4-22.6 5-28.9 3-2.5-.8-5.1.4-6.2 2.8-8.6 19.6-3.4 31.1 4.2 37.8 6.8-4.2 13.2-9.9 18.8-17 6.7-8.5 11.2-17.8 13.5-26.8z" fill="url(#SVGID_00000045620218275566344630000015011513580095445932_)"/><path d="m286 331.3c-.4-.2-1-.1-1.4.2-10.4 7.4-22.6 5-28.9 3-2.5-.8-5.1.4-6.2 2.8-5.5 12.5-5.4 21.8-2.5 28.6 6.7-2.6 13.5-6.4 19.7-11.4 8.5-6.8 15.1-14.9 19.3-23.2z" fill="url(#SVGID_00000054265039132318167520000012602097235862582667_)"/><path d="m284.6 331.5c-10.4 7.4-22.6 5-28.9 3-2.5-.8-5.1.4-6.2 2.8-3 6.8-4.3 12.7-4.4 17.7 5.5-1.1 11.1-3 16.7-5.6 9.9-4.6 18.1-11 24.2-18.1-.4-.1-1-.1-1.4.2z" fill="url(#SVGID_00000154423385938104890300000009148386281500520065_)"/><path d="m257.7 342.6c10.8-1.9 20.5-6 28.2-11.3-.4-.2-1-.1-1.4.2-10.4 7.4-22.6 5-28.9 3-2.5-.8-5.1.4-6.2 2.8-1 2.3-1.8 4.4-2.5 6.5 3.7-.2 7.2-.5 10.8-1.2z" fill="url(#SVGID_00000163755548910618921970000015698239395658769855_)"/></g><path d="m284.6 331.5c-10.4 7.4-22.6 5-28.9 3-2.5-.8-5.1.4-6.2 2.8-3.3 7.6-4.6 14-4.4 19.3l39.9.7c2.5-10.7 2.3-20.1 2-24.7-.1-1.1-1.4-1.8-2.4-1.1z" fill="url(#SVGID_00000020385918252694338480000009853814752767125669_)" opacity=".55"/></g><g><path d="m103 280s-5.7 36.5 27.6 53.4 28.7 32.8 41.1 41.1 35-29.3 31.8-64.6c.1 0-29.4 14.6-100.5-29.9z" fill="url(#SVGID_00000086687430139861484270000008463562623512231815_)"/><g><path d="m195.9 311.8c-1.6 24.2-12.4 45.5-28.6 58.6-7.3-8.9-8.1-22.6-36.6-37-33.4-16.9-27.7-53.4-27.7-53.4 50.5 31.6 80 33.4 92.9 31.8z" fill="url(#SVGID_00000032647459897952615070000009841851189419241116_)"/><path d="m158.1 355.6c-4.6-6.7-11.9-14.4-27.4-22.2-33.4-16.9-27.7-53.4-27.7-53.4 41.2 25.8 68.4 31.7 84 32.2-4.8 18.3-15.1 33.7-28.9 43.4z" fill="url(#SVGID_00000140011595158811047420000007515045731432020108_)"/><path d="m145.4 342.5c-3.9-3-8.7-6-14.7-9.1-33.4-16.9-27.7-53.4-27.7-53.4 32.2 20.2 55.9 28.2 72.1 31-6.8 13.7-17.1 24.8-29.7 31.5z" fill="url(#SVGID_00000029755972798066195220000004129321989349375423_)"/><path d="m131.5 333.8c-.3-.1-.5-.3-.8-.4-33.4-16.9-27.7-53.4-27.7-53.4 25.1 15.7 45.1 24.1 60.3 28.3-8 11.9-19 20.9-31.8 25.5z" fill="url(#SVGID_00000148630968160497782140000004457740914762604468_)"/><path d="m117.3 323.8c-18.3-18.2-14.3-43.8-14.3-43.8 20.3 12.7 37.1 20.6 50.9 25.3-9.9 10.2-22.5 16.9-36.6 18.5z" fill="url(#SVGID_00000090283117202923002290000002864138268508889732_)"/><path d="m119.9 311c-4 .4-8 .3-11.8-.1-7.5-15.4-5.1-30.9-5.1-30.9 16.4 10.3 30.6 17.4 42.7 22.3-7.7 4.8-16.4 7.9-25.8 8.7z" fill="url(#SVGID_00000061458880581921909410000004734087196564375742_)"/><path d="m122.3 299.7c-6.3.6-12.5.1-18.4-1.3-2.1-10.3-.9-18.4-.9-18.4 11.5 7.2 21.9 12.9 31.3 17.3-3.8 1.2-7.8 2-12 2.4z" fill="url(#SVGID_00000021077967229427242700000014023091025021062038_)"/><path d="m103 280s-5.7 36.5 27.6 53.4 28.7 32.8 41.1 41.1 35-29.3 31.8-64.6c.1 0-29.4 14.6-100.5-29.9z" fill="url(#SVGID_00000085215724961230887330000017677590821028378801_)"/><path d="m103 280s-5.7 36.5 27.6 53.4 28.7 32.8 41.1 41.1 35-29.3 31.8-64.6c.1 0-29.4 14.6-100.5-29.9z" fill="url(#SVGID_00000061461652702218512030000014700683894169813129_)"/></g></g><g><path d="m109.2 262.7c4.5 3.4 4.5 10.2 0 13.6-17.8 13.5-56.3 42.6-59 44.6-2.9 2.2-5.8 4.2-8.9 6.2-10.7 7-22.3 12.9-34.6 17.5-4 1.5-7.7-2.7-6.5-7.2 5.5-21.1 8.5-44 8.5-67.9s-3-46.7-8.5-67.9c-1.2-4.5 2.6-8.7 6.5-7.2 12.3 4.6 24 10.5 34.6 17.5 3 2 6 4 8.9 6.2 2.7 2 41.2 31.1 59 44.6z" fill="url(#SVGID_00000173848481821635581060000005781478980574348675_)"/><path d="m8.7 269.5c0 23.9-3 46.7-8.5 67.9-1.2 4.5 2.6 8.7 6.5 7.2 12.3-4.6 24-10.5 34.6-17.5 3-2 6-4 8.9-6.2 2.7-2 41.1-31.1 59-44.6 4.5-3.4 4.5-10.2 0-13.6-9-6.8-23.3-17.7-35.6-26.9h-67c1.4 10.9 2.1 22.2 2.1 33.7z" fill="url(#SVGID_00000059997959564892642520000008490508421150046876_)"/><g><path d="m75.6 237.2c-3.7-2.8-7.9-4.8-12.3-6.1-.7-.2-1.4-.4-2.1-.6-17.9-5.4-37.2-10.3-57.7-14.7 3.4 17.1 5.2 35.1 5.2 53.7 0 18.7-1.8 36.8-5.3 53.9 20.5-4.4 39.9-9.3 57.7-14.7.7-.2 1.4-.4 2-.6 4.3-1.2 8.3-3.3 11.9-6 11.9-9 25.5-19.3 34.2-25.9 4.5-3.4 4.5-10.2 0-13.6-8.5-6.4-21.8-16.4-33.6-25.4z" fill="url(#SVGID_00000149354610599061433380000001150111665072005820_)"/><path d="m6.1 231.8c1.7 12.2 2.5 24.8 2.5 37.7 0 13-.9 25.7-2.6 37.9 16.4-3.7 31.4-8.4 44.7-13.8 4.9-2 10.2-3.5 15.8-4.6l.7-1 1.4.7c4.5-.8 9.1-1.2 13.7-1.4v-35.4c-11.2-.4-22.2-2.5-31.6-6.3-13.2-5.4-28.2-10-44.6-13.8z" fill="url(#SVGID_00000182516606487984019990000018270404744027563167_)"/><path d="m8.3 253.8c.3 5.2.4 10.4.4 15.7 0 5.4-.2 10.7-.5 16 15.5-1.6 29.8-3.5 42.6-5.6 9.4-1.6 20.4-2.5 31.6-2.7v-15c-11.2-.2-22.2-1.1-31.6-2.7-12.7-2.3-27-4.2-42.5-5.7z" fill="url(#SVGID_00000065791416560835503260000010825099350967166598_)"/></g></g><g><path d="m296.9 205s-17.7-43.3-54.1-74.6c-3.7-3.2-9.4-1-10.1 3.8-1.1 8-2.4 19.4-2.8 29.7-.6 18.4-39.1 27.8-48 34.1s46.2 29.3 46.2 29.3z" fill="url(#SVGID_00000036246070333247546890000004687385558608859014_)"/><path d="m296.9 205s-17.7-43.3-54.1-74.6c-3.7-3.2-9.4-1-10.1 3.8-1.1 8-2.4 19.4-2.8 29.7-.6 18.4-39.1 27.8-48 34.1s46.2 29.3 46.2 29.3z" fill="url(#SVGID_00000080179514335968932070000007251114023048241544_)"/><g><path d="m289.5 207.4c-11.5-19.8-31.5-49.6-57.1-70.5-1 7.8-2.1 17.8-2.4 27-.6 18.4-39.1 27.8-48 34.1-8.9 6.2 46.2 29.3 46.2 29.3z" fill="url(#SVGID_00000093138185297603070860000014418794893943222154_)"/><path d="m275.9 211.7c-10.9-19.3-25.9-40.1-45.6-55-.2 2.4-.3 4.8-.4 7.1-.6 18.4-39.1 27.8-48 34.1-8.9 6.2 46.2 29.3 46.2 29.3z" fill="url(#SVGID_00000098929742508955491140000012801296307373481602_)"/><path d="m261.9 216.3c-9.9-15.5-22.3-30.5-37.4-41.4-11 11.4-35.7 18.1-42.6 23-8.9 6.2 46.2 29.3 46.2 29.3z" fill="url(#SVGID_00000035515365358383938690000013498952873168630411_)"/><path d="m249.7 220.2c-11.3-13.4-24.8-26.4-39.8-35.3-11 5.7-23.3 9.7-27.9 12.9-8.9 6.2 46.2 29.3 46.2 29.3z" fill="url(#SVGID_00000052074888482694315160000008027433960111547579_)"/><path d="m232.1 225.9c-11.4-12.9-24.7-25.1-39.5-33.2-4.6 2-8.5 3.6-10.6 5.1-8.9 6.2 46.2 29.3 46.2 29.3z" fill="url(#SVGID_00000163053814050663641520000006099330844848468916_)"/></g></g><path d="m74.3 252.4c-15.9 5.9-15.9 28.4 0 34.2 286.9 106.2 409 18.8 434.9-9.2 3.8-4.2 3.8-11.7 0-15.8-25.9-28.1-148-115.4-434.9-9.2z" fill="url(#SVGID_00000023267371495988012040000007645290173214011574_)"/><path d="m509.1 261.6c-9.4-10.2-31.4-28.1-69.4-41.9-16.8-6.1-35.1 3.6-39.8 20.8-2.7 10.1-4.2 20.9-4.2 32.3 0 11.7 1.6 22.8 4.4 33.1 3.7 13.4 14.9 21.1 25.9 17.8 46.5-14 72.6-35.1 83.1-46.4 3.9-4 3.9-11.6 0-15.7z" fill="url(#SVGID_00000007390038847677062650000004452085020062950542_)"/><g><path d="m74.3 252.4c-15.9 5.9-15.9 28.4 0 34.2 286.9 106.2 409 18.8 434.9-9.2 3.8-4.2 3.8-11.7 0-15.8-25.9-28.1-148-115.4-434.9-9.2z" fill="url(#SVGID_00000072979035655438823830000011561835509953910176_)"/><path d="m74.3 252.4c-15.9 5.9-15.9 28.4 0 34.2 286.9 106.2 409 18.8 434.9-9.2 3.8-4.2 3.8-11.7 0-15.8-25.9-28.1-148-115.4-434.9-9.2z" fill="url(#SVGID_00000014629248421153654520000007242393006660020882_)"/><path d="m74.3 252.4c-15.9 5.9-15.9 28.4 0 34.2 286.9 106.2 409 18.8 434.9-9.2 3.8-4.2 3.8-11.7 0-15.8-25.9-28.1-148-115.4-434.9-9.2z" fill="url(#SVGID_00000114048133438887370150000011889484560747928708_)"/><path d="m74.3 252.4c-15.9 5.9-15.9 28.4 0 34.2 286.9 106.2 409 18.8 434.9-9.2 3.8-4.2 3.8-11.7 0-15.8-25.9-28.1-148-115.4-434.9-9.2z" fill="url(#SVGID_00000140699000947372530060000010882398469658431115_)"/><g><g opacity=".25"><g><g><path d="m176.9 245.2c-8.5-8-22.4-8-30.9 0l-6.2 5.8c-1.6 1.5-1.6 3.8 0 5.3l6.2 5.8c8.5 8 22.4 8 30.9 0 5-4.8 5-12.3 0-16.9z" fill="url(#SVGID_00000052789034773971320080000007043255724677252269_)"/><path d="m176.9 268.5c-8.5-8-22.4-8-30.9 0l-6.2 5.8c-1.6 1.5-1.6 3.8 0 5.3l6.2 5.8c8.5 8 22.4 8 30.9 0 5-4.7 5-12.2 0-16.9z" fill="url(#SVGID_00000128463058850699399710000016019041050934246836_)"/></g><g><path d="m199.7 233.5c-8.5-8-22.4-8-30.9 0l-6.2 5.8c-1.6 1.5-1.6 3.8 0 5.3l6.2 5.8c8.5 8 22.4 8 30.9 0 4.9-4.7 4.9-12.2 0-16.9z" fill="url(#SVGID_00000026134038250030111380000017959894797212518531_)"/><path d="m199.7 256.9c-8.5-8-22.4-8-30.9 0l-6.2 5.8c-1.6 1.5-1.6 3.8 0 5.3l6.2 5.8c8.5 8 22.4 8 30.9 0 4.9-4.8 4.9-12.3 0-16.9z" fill="url(#SVGID_00000016044400901045787370000011788034711088651142_)"/><path d="m199.7 280.2c-8.5-8-22.4-8-30.9 0l-6.2 5.8c-1.6 1.5-1.6 3.8 0 5.3l6.2 5.8c8.5 8 22.4 8 30.9 0 4.9-4.7 4.9-12.3 0-16.9z" fill="url(#SVGID_00000042717104137054130770000016132221520584766639_)"/></g><path d="m150.5 256.9c-8.5-8-22.4-8-30.9 0l-6.2 5.8c-1.6 1.5-1.6 3.8 0 5.3l6.2 5.8c8.5 8 22.4 8 30.9 0 4.9-4.8 4.9-12.3 0-16.9z" fill="url(#SVGID_00000098206428440327198930000012035713464803504275_)"/></g><g><g><path d="m226.3 245.2c-8.5-8-22.4-8-30.9 0l-6.2 5.8c-1.6 1.5-1.6 3.8 0 5.3l6.2 5.8c8.5 8 22.4 8 30.9 0 4.9-4.8 4.9-12.3 0-16.9z" fill="url(#SVGID_00000142864241103658820710000018126249318539398308_)"/><path d="m226.3 268.5c-8.5-8-22.4-8-30.9 0l-6.2 5.8c-1.6 1.5-1.6 3.8 0 5.3l6.2 5.8c8.5 8 22.4 8 30.9 0 4.9-4.7 4.9-12.2 0-16.9z" fill="url(#SVGID_00000025440159517859852850000008393717786005938088_)"/><path d="m226.3 291.9c-8.5-8-22.4-8-30.9 0l-6.2 5.8c-1.6 1.5-1.6 3.8 0 5.3l6.2 5.8c8.5 8 22.4 8 30.9 0 4.9-4.8 4.9-12.3 0-16.9z" fill="url(#SVGID_00000029737557176317073560000009902900574273215925_)"/></g><g><path d="m249 233.5c-8.5-8-22.4-8-30.9 0l-6.2 5.8c-1.6 1.5-1.6 3.8 0 5.3l6.2 5.8c8.5 8 22.4 8 30.9 0 4.9-4.7 4.9-12.2 0-16.9z" fill="url(#SVGID_00000163045483945729703400000009759604239729795466_)"/><path d="m249 256.9c-8.5-8-22.4-8-30.9 0l-6.2 5.8c-1.6 1.5-1.6 3.8 0 5.3l6.2 5.8c8.5 8 22.4 8 30.9 0 4.9-4.8 4.9-12.3 0-16.9z" fill="url(#SVGID_00000086663819377996728800000015154146512232941699_)"/><path d="m249 280.2c-8.5-8-22.4-8-30.9 0l-6.2 5.8c-1.6 1.5-1.6 3.8 0 5.3l6.2 5.8c8.5 8 22.4 8 30.9 0 4.9-4.7 4.9-12.3 0-16.9z" fill="url(#SVGID_00000006668173895771577720000011432609746470554762_)"/></g></g></g><g opacity=".25"><g><g><path d="m302.2 214.6c-8.5-8-22.4-8-30.9 0l-6.2 5.8c-1.6 1.5-1.6 3.8 0 5.3l6.2 5.8c8.5 8 22.4 8 30.9 0 5-4.8 5-12.3 0-16.9z" fill="url(#SVGID_00000042702054925292093540000005377489334472021648_)"/><path d="m302.2 237.9c-8.5-8-22.4-8-30.9 0l-6.2 5.8c-1.6 1.5-1.6 3.8 0 5.3l6.2 5.8c8.5 8 22.4 8 30.9 0 5-4.8 5-12.3 0-16.9z" fill="url(#SVGID_00000052088293050604931460000011990720788195051453_)"/><path d="m302.2 261.2c-8.5-8-22.4-8-30.9 0l-6.2 5.8c-1.6 1.5-1.6 3.8 0 5.3l6.2 5.8c8.5 8 22.4 8 30.9 0 5-4.7 5-12.2 0-16.9z" fill="url(#SVGID_00000145051901500594927230000002195668351622184870_)"/><path d="m302.2 284.6c-8.5-8-22.4-8-30.9 0l-6.2 5.8c-1.6 1.5-1.6 3.8 0 5.3l6.2 5.8c8.5 8 22.4 8 30.9 0 5-4.8 5-12.3 0-16.9z" fill="url(#SVGID_00000139996103573198646930000008389421475378845351_)"/></g><g><path d="m324.9 226.2c-8.5-8-22.4-8-30.9 0l-6.2 5.8c-1.6 1.5-1.6 3.8 0 5.3l6.2 5.8c8.5 8 22.4 8 30.9 0 5-4.7 5-12.2 0-16.9z" fill="url(#SVGID_00000145753240739618503410000007738673415173872315_)"/><path d="m324.9 249.6c-8.5-8-22.4-8-30.9 0l-6.2 5.8c-1.6 1.5-1.6 3.8 0 5.3l6.2 5.8c8.5 8 22.4 8 30.9 0 5-4.8 5-12.3 0-16.9z" fill="url(#SVGID_00000145741993686949182670000009922452466305470135_)"/><path d="m324.9 272.9c-8.5-8-22.4-8-30.9 0l-6.2 5.8c-1.6 1.5-1.6 3.8 0 5.3l6.2 5.8c8.5 8 22.4 8 30.9 0 5-4.7 5-12.3 0-16.9z" fill="url(#SVGID_00000145059457457823783470000015543484778786590397_)"/></g><g><path d="m275.7 226.2c-8.5-8-22.4-8-30.9 0l-6.2 5.8c-1.6 1.5-1.6 3.8 0 5.3l6.2 5.8c8.5 8 22.4 8 30.9 0 5-4.7 5-12.2 0-16.9z" fill="url(#SVGID_00000048478569470562131980000001983525383200626870_)"/><path d="m275.7 249.6c-8.5-8-22.4-8-30.9 0l-6.2 5.8c-1.6 1.5-1.6 3.8 0 5.3l6.2 5.8c8.5 8 22.4 8 30.9 0 5-4.8 5-12.3 0-16.9z" fill="url(#SVGID_00000105421284269317391320000009050780305979486398_)"/><path d="m275.7 272.9c-8.5-8-22.4-8-30.9 0l-6.2 5.8c-1.6 1.5-1.6 3.8 0 5.3l6.2 5.8c8.5 8 22.4 8 30.9 0 5-4.7 5-12.3 0-16.9z" fill="url(#SVGID_00000170998026601750702200000002870084034674566823_)"/></g></g><g><g><path d="m351.5 214.6c-8.5-8-22.4-8-30.9 0l-6.2 5.8c-1.6 1.5-1.6 3.8 0 5.3l6.2 5.8c8.5 8 22.4 8 30.9 0 5-4.8 5-12.3 0-16.9z" fill="url(#SVGID_00000139285738631426802600000015474636665006080185_)"/><path d="m351.5 237.9c-8.5-8-22.4-8-30.9 0l-6.2 5.8c-1.6 1.5-1.6 3.8 0 5.3l6.2 5.8c8.5 8 22.4 8 30.9 0 5-4.8 5-12.3 0-16.9z" fill="url(#SVGID_00000009561804828776400750000002904672399209857725_)"/><path d="m351.5 261.2c-8.5-8-22.4-8-30.9 0l-6.2 5.8c-1.6 1.5-1.6 3.8 0 5.3l6.2 5.8c8.5 8 22.4 8 30.9 0 5-4.7 5-12.2 0-16.9z" fill="url(#SVGID_00000078740435632057112040000000961380356733632423_)"/><path d="m351.5 284.6c-8.5-8-22.4-8-30.9 0l-6.2 5.8c-1.6 1.5-1.6 3.8 0 5.3l6.2 5.8c8.5 8 22.4 8 30.9 0 5-4.8 5-12.3 0-16.9z" fill="url(#SVGID_00000164482247266838309570000017827916758719613858_)"/></g><g><path d="m374.2 226.2c-8.5-8-22.4-8-30.9 0l-6.2 5.8c-1.6 1.5-1.6 3.8 0 5.3l6.2 5.8c8.5 8 22.4 8 30.9 0 5-4.7 5-12.2 0-16.9z" fill="url(#SVGID_00000016073585650100240310000004063107684651633339_)"/><path d="m374.2 249.6c-8.5-8-22.4-8-30.9 0l-6.2 5.8c-1.6 1.5-1.6 3.8 0 5.3l6.2 5.8c8.5 8 22.4 8 30.9 0 5-4.8 5-12.3 0-16.9z" fill="url(#SVGID_00000036220132383393421130000015826377112280647824_)"/><path d="m374.2 272.9c-8.5-8-22.4-8-30.9 0l-6.2 5.8c-1.6 1.5-1.6 3.8 0 5.3l6.2 5.8c8.5 8 22.4 8 30.9 0 5-4.7 5-12.3 0-16.9z" fill="url(#SVGID_00000132788994505917668170000015099235146296101273_)"/></g></g></g></g><path d="m74.3 252.4c-15.9 5.9-15.9 28.4 0 34.2 286.9 106.2 409 18.8 434.9-9.2 3.8-4.2 3.8-11.7 0-15.8-25.9-28.1-148-115.4-434.9-9.2z" fill="url(#SVGID_00000160187937187150791000000008566009061471892926_)"/></g><path d="m425.4 324c-14.3 4.3-30.5 7.9-48.8 10.4l-44.5-44.5 64.2-5.5c.7 7.5 2 14.8 3.9 21.6 3.6 13.2 14.5 20.8 25.2 18z" fill="url(#SVGID_00000032635272849353438920000001112408549133725871_)"/><g><path d="m394 289.5c-7.5 7.3-19.2 12.7-32.8 14.5-3.4.5-6.9-.1-9.6-1.3-19.2-9.2-28.3-21.1-32.4-29.2-.6-1.2.1-2.4 1.7-3.1 8.5-4 18.8-6.3 30-6.3 18 0 33.8 6 43.1 15.2 3 2.8 3 7.3 0 10.2z" fill="url(#SVGID_00000070824395009192263200000014440994299402293905_)"/><path d="m394 288.2c-9.3 6.8-25.2 11.2-43.1 11.2-2 0-3.9-.1-5.8-.2-14.2-8.2-21.6-17.7-25.4-24.8 8.7-3.2 19.5-5.1 31.2-5.1 18 0 33.8 4.4 43.1 11.2 3 2.2 3 5.5 0 7.7z" fill="url(#SVGID_00000171685709141390625540000005102759333839190435_)"/><path d="m394 288.2c-9.3 6.8-25.2 11.2-43.1 11.2-2 0-3.9-.1-5.8-.2-14.2-8.2-21.6-17.7-25.4-24.8 8.7-3.2 19.5-5.1 31.2-5.1 18 0 33.8 4.4 43.1 11.2 3 2.2 3 5.5 0 7.7z" fill="url(#SVGID_00000023997632871097223230000012079542384631625911_)"/><g><path d="m394 285.9c-9.3 2.8-25.2 4.6-43.1 4.6-6.6 0-13-.3-18.8-.7-3.8-3.4-6.8-6.9-9-10.1 8-1 17.6-1.6 27.9-1.6 18 0 33.8 1.8 43.1 4.6 2.9 1 2.9 2.3-.1 3.2z" fill="url(#SVGID_00000175300942214150361670000003536205395972846228_)"/><path d="m394 285.9c-9.3 2.8-25.2 4.6-43.1 4.6-6.6 0-13-.3-18.8-.7-3.8-3.4-6.8-6.9-9-10.1 8-1 17.6-1.6 27.9-1.6 18 0 33.8 1.8 43.1 4.6 2.9 1 2.9 2.3-.1 3.2z" fill="url(#SVGID_00000054228197271939068480000012709892172394814892_)"/><path d="m394 289.5c-7.5 7.3-19.2 12.7-32.8 14.5-3.4.5-6.9-.1-9.6-1.3-19.2-9.2-28.3-21.1-32.4-29.2-.6-1.2.1-2.4 1.7-3.1 8.5-4 18.8-6.3 30-6.3 18 0 33.8 6 43.1 15.2 3 2.8 3 7.3 0 10.2z" fill="url(#SVGID_00000172441815151813875390000017125100552948199816_)"/><path d="m394 289.5c-7.5 7.3-19.2 12.7-32.8 14.5-3.4.5-6.9-.1-9.6-1.3-19.2-9.2-28.3-21.1-32.4-29.2-.6-1.2.1-2.4 1.7-3.1 8.5-4 18.8-6.3 30-6.3 18 0 33.8 6 43.1 15.2 3 2.8 3 7.3 0 10.2z" fill="url(#SVGID_00000163784153598963599110000007731116486832083352_)"/></g></g><circle cx="445" cy="257.7" fill="url(#SVGID_00000049930853796047822810000003858315594983453322_)" r="21.6"/><g><circle cx="445" cy="253.9" fill="url(#SVGID_00000021098002554533824850000006222894455175911094_)" r="14.4"/><circle cx="445" cy="253.9" fill="url(#SVGID_00000054979003026434329400000016584477058722040223_)" r="14.4"/><circle cx="445" cy="253.9" fill="url(#SVGID_00000040537007976277238070000011252098880027261835_)" r="14.4"/><circle cx="445" cy="253.9" fill="url(#SVGID_00000003066292447755922730000009441548922372344975_)" r="14.4"/></g></g></svg>