<svg id="Layer_6" enable-background="new 0 0 512 512" viewBox="0 0 512 512" xmlns="http://www.w3.org/2000/svg" xmlns:xlink="http://www.w3.org/1999/xlink"><linearGradient id="lg1"><stop offset="0" stop-color="#fd4755"/><stop offset="1" stop-color="#ca2e43"/></linearGradient><linearGradient id="SVGID_1_" gradientUnits="userSpaceOnUse" x1="155.496" x2="180.592" xlink:href="#lg1" y1="385.04" y2="326.728"/><linearGradient id="lg2"><stop offset="0" stop-color="#a72b2b" stop-opacity="0"/><stop offset=".1678" stop-color="#a42b2a" stop-opacity=".047"/><stop offset=".3706" stop-color="#9c2c2a" stop-opacity=".182"/><stop offset=".5914" stop-color="#8f2e28" stop-opacity=".406"/><stop offset=".8235" stop-color="#7d3027" stop-opacity=".717"/><stop offset="1" stop-color="#6d3326"/></linearGradient><linearGradient id="SVGID_00000068640011250055680990000008985717686639660728_" gradientUnits="userSpaceOnUse" x1="158.229" x2="174.836" xlink:href="#lg2" y1="361.836" y2="337.847"/><linearGradient id="SVGID_00000031892668966640857410000013077156398901733534_" gradientTransform="matrix(1 0 0 -1 0 514)" gradientUnits="userSpaceOnUse" x1="172.537" x2="175.981" xlink:href="#lg2" y1="154.621" y2="133.215"/><linearGradient id="SVGID_00000042716987225850897600000012255544443299048092_" gradientTransform="matrix(-1 0 0 -1 4599.313 1022.107)" gradientUnits="userSpaceOnUse" x1="4434.447" x2="4428.596" xlink:href="#lg2" y1="660.49" y2="644.888"/><linearGradient id="SVGID_00000109026126294393799170000008978968755708269470_" gradientTransform="matrix(-1 0 0 -1 4599.313 1022.107)" gradientUnits="userSpaceOnUse" x1="4447.678" x2="4441.438" xlink:href="#lg2" y1="671.701" y2="658.049"/><linearGradient id="SVGID_00000167394572068303087920000003664453049874025894_" gradientTransform="matrix(-1 0 0 -1 4599.313 1022.107)" gradientUnits="userSpaceOnUse" x1="4460.638" x2="4451.862" xlink:href="#lg2" y1="687.581" y2="666.714"/><linearGradient id="SVGID_00000130623315520280280670000002402201349841641346_" gradientTransform="matrix(-1 0 0 -1 4599.313 1022.107)" gradientUnits="userSpaceOnUse" x1="4467.849" x2="4459.658" xlink:href="#lg2" y1="699.712" y2="676.309"/><linearGradient id="SVGID_00000034067625765509983280000010013877712022645150_" gradientTransform="matrix(-1 0 0 -1 4599.313 1022.107)" gradientUnits="userSpaceOnUse" x1="4476.119" x2="4467.928" xlink:href="#lg2" y1="708.256" y2="689.729"/><linearGradient id="SVGID_00000103958515559908281330000013707966681304666045_" gradientTransform="matrix(-1 0 0 -1 4599.313 1022.107)" gradientUnits="userSpaceOnUse" x1="4480.684" x2="4475.028" xlink:href="#lg2" y1="717.786" y2="702.964"/><linearGradient id="SVGID_00000158719698406973046090000011832796149355679413_" gradientTransform="matrix(.998 -.068 -.068 -.998 34.95 536.796)" gradientUnits="userSpaceOnUse" x1="209.176" x2="228.973" xlink:href="#lg1" y1="376.656" y2="334.128"/><linearGradient id="SVGID_00000112607583001764031660000000941972958377435047_" gradientTransform="matrix(1 0 0 -1 0 514)" gradientUnits="userSpaceOnUse" x1="276.868" x2="284.071" xlink:href="#lg2" y1="380.106" y2="398.834"/><linearGradient id="SVGID_00000071552379242462954580000001225577199044780686_" gradientTransform="matrix(1 0 0 -1 0 514)" gradientUnits="userSpaceOnUse" x1="251.421" x2="258.984" xlink:href="#lg2" y1="359.22" y2="385.51"/><linearGradient id="SVGID_00000060742770968262788770000007576324014834059455_" gradientTransform="matrix(1 0 0 -1 0 514)" gradientUnits="userSpaceOnUse" x1="228.025" x2="230.906" xlink:href="#lg2" y1="343.354" y2="371.805"/><linearGradient id="SVGID_00000000909738528542017030000013541402576893300659_" gradientTransform="matrix(1 0 0 -1 0 514)" gradientUnits="userSpaceOnUse" x1="215.953" x2="220.275" xlink:href="#lg2" y1="330.775" y2="353.824"/><linearGradient id="SVGID_00000125568385438835762850000003881181532504964513_" gradientTransform="matrix(1 0 0 -1 0 514)" gradientUnits="userSpaceOnUse" x1="199.276" x2="199.276" xlink:href="#lg2" y1="312.336" y2="341.147"/><linearGradient id="SVGID_00000147941555352273662130000017412257133133295261_" gradientTransform="matrix(1 0 0 -1 0 514)" gradientUnits="userSpaceOnUse" x1="187.605" x2="187.605" xlink:href="#lg2" y1="294.689" y2="324.941"/><linearGradient id="SVGID_00000096035673598689951010000002641311952138206399_" gradientTransform="matrix(1 0 0 -1 0 514)" gradientUnits="userSpaceOnUse" x1="176.908" x2="176.548" xlink:href="#lg2" y1="283.505" y2="309.436"/><linearGradient id="SVGID_00000119827243360709024980000002484748395885640095_" gradientTransform="matrix(1 0 0 -1 0 514)" gradientUnits="userSpaceOnUse" x1="168.553" x2="168.553" xlink:href="#lg2" y1="272.72" y2="295.409"/><linearGradient id="SVGID_00000060011831529506146140000003974549185346724516_" gradientTransform="matrix(1 0 0 -1 0 514)" gradientUnits="userSpaceOnUse" x1="163.115" x2="163.475" xlink:href="#lg2" y1="257.895" y2="281.664"/><linearGradient id="SVGID_00000016784976401815302160000000470578045955229883_" gradientTransform="matrix(1 0 0 -1 0 514)" gradientUnits="userSpaceOnUse" x1="337.81" x2="350.055" xlink:href="#lg1" y1="149.144" y2="123.213"/><linearGradient id="SVGID_00000166672740437000520700000011650217291220283035_" gradientTransform="matrix(1 0 0 -1 0 514)" gradientUnits="userSpaceOnUse" x1="340.821" x2="338.66" xlink:href="#lg2" y1="115.52" y2="142.53"/><linearGradient id="SVGID_00000083793605877291938100000002283262095929303681_" gradientTransform="matrix(1 0 0 -1 0 514)" gradientUnits="userSpaceOnUse" x1="344.767" x2="359.893" xlink:href="#lg2" y1="140.986" y2="126.941"/><linearGradient id="SVGID_00000088107423189311254410000014210178586622369416_" gradientTransform="matrix(-.841 .541 -.541 -.841 3637.226 -846.182)" gradientUnits="userSpaceOnUse" x1="3430.236" x2="3427.292" xlink:href="#lg2" y1="761.08" y2="741.581"/><linearGradient id="SVGID_00000167394101203876983880000001044199754702184370_" gradientTransform="matrix(-.841 .541 -.541 -.841 3637.226 -846.182)" gradientUnits="userSpaceOnUse" x1="3429.381" x2="3430.485" xlink:href="#lg2" y1="770.021" y2="752.361"/><linearGradient id="SVGID_00000002362365732776674650000012015827748791009935_" gradientTransform="matrix(1 0 0 -1 0 514)" gradientUnits="userSpaceOnUse" x1="250.796" x2="250.796" xlink:href="#lg1" y1="334.812" y2="191.853"/><linearGradient id="SVGID_00000075846069125813666260000014396014808730143374_" gradientTransform="matrix(-1 0 0 -1 2786.127 514)" gradientUnits="userSpaceOnUse" x1="2535.331" x2="2535.331" xlink:href="#lg2" y1="231.014" y2="135.244"/><linearGradient id="lg3"><stop offset="0" stop-color="#fd4755" stop-opacity="0"/><stop offset=".1612" stop-color="#fd4755" stop-opacity=".013"/><stop offset=".29" stop-color="#fd4755" stop-opacity=".052"/><stop offset=".4076" stop-color="#fd4755" stop-opacity=".119"/><stop offset=".5185" stop-color="#fd4755" stop-opacity=".213"/><stop offset=".6249" stop-color="#fd4755" stop-opacity=".334"/><stop offset=".7277" stop-color="#fd4755" stop-opacity=".483"/><stop offset=".8277" stop-color="#fd4755" stop-opacity=".659"/><stop offset=".923" stop-color="#fd4755" stop-opacity=".859"/><stop offset=".983" stop-color="#fd4755"/></linearGradient><linearGradient id="SVGID_00000129887278604525393660000018336690133024128138_" gradientTransform="matrix(1 0 0 -1 0 514)" gradientUnits="userSpaceOnUse" x1="261.31" x2="267.792" xlink:href="#lg3" y1="154.497" y2="123.164"/><linearGradient id="SVGID_00000026876750602326021350000000688402393795632535_" gradientTransform="matrix(1 0 0 -1 0 514)" gradientUnits="userSpaceOnUse" x1="45.269" x2="-21.484" xlink:href="#lg2" y1="238.735" y2="238.735"/><linearGradient id="SVGID_00000165939365857071406490000008688736779139209388_" gradientTransform="matrix(1 0 0 -1 0 514)" gradientUnits="userSpaceOnUse" x1="60.825" x2="60.825" xlink:href="#lg2" y1="219.779" y2="177.587"/><linearGradient id="SVGID_00000145045520674890240220000013949907422051670699_" gradientTransform="matrix(1 0 0 -1 0 514)" gradientUnits="userSpaceOnUse" x1="45.269" x2="-.359" xlink:href="#lg2" y1="238.734" y2="238.734"/><linearGradient id="SVGID_00000023985240128491682920000008529555498343736202_" gradientTransform="matrix(1 0 0 -1 0 514)" gradientUnits="userSpaceOnUse" x1="53.913" x2="-3.359" xlink:href="#lg2" y1="238.733" y2="238.733"/><linearGradient id="SVGID_00000029742529313927268160000015080373673995562892_" gradientTransform="matrix(-1 0 0 -1 2786.127 514)" gradientUnits="userSpaceOnUse" x1="2564.57" x2="2577.122" xlink:href="#lg3" y1="298.758" y2="285.045"/><linearGradient id="SVGID_00000000904637542070907880000011294526550358536853_" gradientTransform="matrix(-1 0 0 -1 2786.127 514)" gradientUnits="userSpaceOnUse" x1="2566.455" x2="2575.519" xlink:href="#lg3" y1="260.601" y2="250.141"/><linearGradient id="SVGID_00000042722352456176193770000002771106196799455136_" gradientTransform="matrix(-1 0 0 -1 2786.127 514)" gradientUnits="userSpaceOnUse" x1="2564.317" x2="2576.171" xlink:href="#lg3" y1="227.381" y2="215.063"/><linearGradient id="SVGID_00000090276899031909868760000004523566847513555885_" gradientTransform="matrix(-1 0 0 -1 2786.127 514)" gradientUnits="userSpaceOnUse" x1="2557.881" x2="2578.938" xlink:href="#lg3" y1="198.706" y2="174.641"/><linearGradient id="SVGID_00000101822940983698032190000008637344144654771112_" gradientTransform="matrix(-1 0 0 -1 2786.127 514)" gradientUnits="userSpaceOnUse" x1="2523.342" x2="2543.796" xlink:href="#lg3" y1="289.309" y2="271.412"/><linearGradient id="SVGID_00000025412785464001901670000009693871470204599968_" gradientTransform="matrix(-1 0 0 -1 2786.127 514)" gradientUnits="userSpaceOnUse" x1="2531.301" x2="2545.247" xlink:href="#lg3" y1="245.804" y2="231.859"/><linearGradient id="SVGID_00000140729932899001478670000014326512872355178645_" gradientTransform="matrix(-1 0 0 -1 2786.127 514)" gradientUnits="userSpaceOnUse" x1="2531.831" x2="2545.079" xlink:href="#lg3" y1="209.719" y2="197.167"/><linearGradient id="SVGID_00000023998325504290085360000011378148272615951545_" gradientTransform="matrix(-1 0 0 -1 2786.127 514)" gradientUnits="userSpaceOnUse" x1="2593.928" x2="2614.382" xlink:href="#lg3" y1="289.309" y2="271.412"/><linearGradient id="SVGID_00000144336670694238193740000002349226423870324383_" gradientTransform="matrix(-1 0 0 -1 2786.127 514)" gradientUnits="userSpaceOnUse" x1="2601.887" x2="2615.833" xlink:href="#lg3" y1="245.804" y2="231.859"/><linearGradient id="SVGID_00000158008381304996113090000016290718101890369982_" gradientTransform="matrix(-1 0 0 -1 2786.127 514)" gradientUnits="userSpaceOnUse" x1="2602.435" x2="2615.119" xlink:href="#lg3" y1="209.291" y2="195.814"/><linearGradient id="SVGID_00000049909097254908335210000013428756308267212196_" gradientTransform="matrix(-1 0 0 -1 2786.127 514)" gradientUnits="userSpaceOnUse" x1="2494.66" x2="2506.049" xlink:href="#lg3" y1="299.227" y2="289.698"/><linearGradient id="SVGID_00000124135291114357017440000010928205231664333246_" gradientTransform="matrix(-1 0 0 -1 2786.127 514)" gradientUnits="userSpaceOnUse" x1="2497.15" x2="2505.517" xlink:href="#lg3" y1="260.007" y2="251.872"/><linearGradient id="SVGID_00000171685585576260597080000001822332378805026185_" gradientTransform="matrix(-1 0 0 -1 2786.127 514)" gradientUnits="userSpaceOnUse" x1="2491.354" x2="2506.462" xlink:href="#lg3" y1="229.688" y2="214.347"/><linearGradient id="SVGID_00000114052232572726896080000003313946398372452284_" gradientTransform="matrix(-1 0 0 -1 2786.127 514)" gradientUnits="userSpaceOnUse" x1="2492.856" x2="2508.893" xlink:href="#lg3" y1="192.38" y2="176.574"/><linearGradient id="SVGID_00000011736398069249862750000008655556019534423204_" gradientTransform="matrix(-1 0 0 -1 2786.127 514)" gradientUnits="userSpaceOnUse" x1="2462.838" x2="2471.205" xlink:href="#lg3" y1="279.135" y2="270.07"/><linearGradient id="SVGID_00000164489602317068227090000009874680495181661568_" gradientTransform="matrix(-1 0 0 -1 2786.127 514)" gradientUnits="userSpaceOnUse" x1="2461.908" x2="2471.671" xlink:href="#lg3" y1="244.063" y2="232.674"/><linearGradient id="SVGID_00000155139194774141019900000013759722528759825827_" gradientTransform="matrix(-1 0 0 -1 2786.127 514)" gradientUnits="userSpaceOnUse" x1="2463.06" x2="2471.66" xlink:href="#lg3" y1="206.766" y2="196.539"/><linearGradient id="SVGID_00000016759430914679017910000001210368629779283376_" gradientTransform="matrix(1 0 0 -1 0 514)" gradientUnits="userSpaceOnUse" x1="460.948" x2="361.548" xlink:href="#lg2" y1="265.657" y2="232.524"/><linearGradient id="SVGID_00000131334390701063256870000011766167910553287577_" gradientTransform="matrix(1 0 0 -1 0 514)" gradientUnits="userSpaceOnUse" x1="397.8" x2="384.355" xlink:href="#lg3" y1="227.034" y2="216.47"/><linearGradient id="SVGID_00000121980584182110818740000018000706511819967634_" gradientTransform="matrix(1 0 0 -1 0 514)" gradientUnits="userSpaceOnUse" x1="467.613" x2="379.738" xlink:href="#lg2" y1="264.535" y2="236.804"/><linearGradient id="SVGID_00000025404940972998713280000001238099742780873404_" gradientTransform="matrix(1 0 0 -1 0 514)" gradientUnits="userSpaceOnUse" x1="424.647" x2="389.713" xlink:href="#lg3" y1="247.343" y2="230.776"/><linearGradient id="SVGID_00000111881547596332232450000009612119963619113099_" gradientTransform="matrix(1 0 0 -1 0 514)" gradientUnits="userSpaceOnUse" x1="480.531" x2="474.408" xlink:href="#lg2" y1="204.237" y2="216.662"/><linearGradient id="SVGID_00000111158982057283832230000006759306662193701762_" gradientTransform="matrix(1 0 0 -1 0 514)" gradientUnits="userSpaceOnUse" x1="464.64" x2="476.885" xlink:href="#lg1" y1="232.372" y2="212.924"/><linearGradient id="SVGID_00000034771418746279756790000003489040638967504543_" gradientTransform="matrix(1 0 0 -1 -1284.78 514)" gradientUnits="userSpaceOnUse" x1="1711.22" x2="1727.667" y1="286.177" y2="269.729"><stop offset="0" stop-color="#feca9c"/><stop offset="1" stop-color="#ff7920"/></linearGradient><linearGradient id="lg4"><stop offset="0" stop-color="#fd3e2b" stop-opacity="0"/><stop offset=".1937" stop-color="#fd3e2b" stop-opacity=".011"/><stop offset=".3278" stop-color="#fd3e2b" stop-opacity=".047"/><stop offset=".444" stop-color="#fd3e2b" stop-opacity=".108"/><stop offset=".55" stop-color="#fd3e2b" stop-opacity=".194"/><stop offset=".649" stop-color="#fd3e2b" stop-opacity=".306"/><stop offset=".7429" stop-color="#fd3e2b" stop-opacity=".443"/><stop offset=".8328" stop-color="#fd3e2b" stop-opacity=".606"/><stop offset=".9171" stop-color="#fd3e2b" stop-opacity=".789"/><stop offset=".9985" stop-color="#fd3e2b" stop-opacity=".996"/><stop offset="1" stop-color="#fd3e2b"/></linearGradient><linearGradient id="SVGID_00000165936752826433201440000002865029623516415678_" gradientTransform="matrix(1 0 0 -1 -1284.78 514)" gradientUnits="userSpaceOnUse" x1="1726.339" x2="1744.085" xlink:href="#lg4" y1="273.585" y2="270.28"/><linearGradient id="SVGID_00000049942398834315234580000012505605249850033542_" gradientTransform="matrix(1 0 0 -1 -1284.78 514)" gradientUnits="userSpaceOnUse" x1="1723.233" x2="1723.233" xlink:href="#lg4" y1="270.901" y2="253.273"/><linearGradient id="SVGID_00000174580394110338708130000018086815030932533428_" gradientTransform="matrix(1 0 0 -1 -1284.78 514)" gradientUnits="userSpaceOnUse" x1="1731.576" x2="1740.96" y1="265.82" y2="256.437"><stop offset="0" stop-color="#fea613" stop-opacity="0"/><stop offset=".1104" stop-color="#fea613" stop-opacity=".018"/><stop offset=".2345" stop-color="#fea613" stop-opacity=".072"/><stop offset=".3655" stop-color="#fea613" stop-opacity=".16"/><stop offset=".501" stop-color="#fea613" stop-opacity=".285"/><stop offset=".6402" stop-color="#fea613" stop-opacity=".445"/><stop offset=".7825" stop-color="#fea613" stop-opacity=".64"/><stop offset=".9245" stop-color="#fea613" stop-opacity=".867"/><stop offset="1" stop-color="#fea613"/></linearGradient><linearGradient id="SVGID_00000081631873650362088090000002796470571553132726_" gradientTransform="matrix(1 0 0 -1 -1284.78 514)" gradientUnits="userSpaceOnUse" x1="1714.819" x2="1727.159" y1="282.577" y2="270.237"><stop offset="0" stop-color="#7a6d79"/><stop offset=".2546" stop-color="#6c616c"/><stop offset=".6831" stop-color="#5b535b"/><stop offset="1" stop-color="#554e56"/></linearGradient><linearGradient id="SVGID_00000021822572063841604200000012470516952766198151_" gradientTransform="matrix(1 0 0 -1 0 514)" gradientUnits="userSpaceOnUse" x1="363.362" x2="364.443" xlink:href="#lg2" y1="165.26" y2="204.515"/><linearGradient id="SVGID_00000019651823493577695520000005390187866810780552_" gradientTransform="matrix(1 0 0 -1 0 514)" gradientUnits="userSpaceOnUse" x1="350.752" x2="348.231" xlink:href="#lg1" y1="231.46" y2="195.085"/><linearGradient id="SVGID_00000087400955893043151050000000129976354065677998_" gradientTransform="matrix(-.947 -.32 -.32 .947 3797.987 442.144)" gradientUnits="userSpaceOnUse" x1="3310.066" x2="3307.123" xlink:href="#lg2" y1="974.594" y2="955.095"/><linearGradient id="SVGID_00000080927063375487370490000006693294094834515339_" gradientTransform="matrix(-.947 -.32 -.32 .947 3797.987 442.144)" gradientUnits="userSpaceOnUse" x1="3309.212" x2="3310.316" xlink:href="#lg2" y1="983.535" y2="965.875"/><g><g><path d="m89.9 356.9c13.6-2.2 27.4 3.9 49.5 15.7 0 0 .1 0 .1.1 11 5.9 23.6 8.1 36 6.1 33.3-5.4 59.7-16.5 80.5-29.5-74.4-8.1-127.4-50-127.4-50-19.2-1.8-34.4 22.5-34.4 35.1 0 6.8-3.7 13.5-7.1 18.2-1.3 2 .4 4.7 2.8 4.3z" fill="url(#SVGID_1_)"/><g><path d="m89.9 356.9c13.6-2.2 27.4 3.9 49.5 15.7 0 0 .1 0 .1.1 11 5.9 23.6 8.1 36 6.1 33.3-5.4 59.7-16.5 80.5-29.5-74.4-8.1-127.4-50-127.4-50-19.2-1.8-34.4 22.5-34.4 35.1 0 6.8-3.7 13.5-7.1 18.2-1.3 2 .4 4.7 2.8 4.3z" fill="url(#SVGID_00000068640011250055680990000008985717686639660728_)"/><path d="m89.9 356.9c13.6-2.2 27.4 3.9 49.5 15.7 0 0 .1 0 .1.1 11 5.9 23.6 8.1 36 6.1 33.3-5.4 59.7-16.5 80.5-29.5-74.4-8.1-127.4-50-127.4-50-19.2-1.8-34.4 22.5-34.4 35.1 0 6.8-3.7 13.5-7.1 18.2-1.3 2 .4 4.7 2.8 4.3z" fill="url(#SVGID_00000031892668966640857410000013077156398901733534_)"/><path d="m89.9 356.9c13.1-2.1 26.4 3.4 47.1 14.4 40.5-2 72.6-12.1 97.6-25.3-63-12.7-106-46.7-106-46.7-19.2-1.8-34.4 22.5-34.4 35.1 0 6.8-3.7 13.5-7.1 18.2-1.3 2 .4 4.7 2.8 4.3z" fill="url(#SVGID_00000042716987225850897600000012255544443299048092_)"/><path d="m89.9 356.9c8-1.3 16.1.3 25.9 4.2 40.2-.3 72.6-8.5 98.5-20.1-51.7-14.9-85.7-41.7-85.7-41.7-19.2-1.8-34.4 22.5-34.4 35.1 0 6.8-3.7 13.5-7.1 18.2-1.3 2 .4 4.7 2.8 4.3z" fill="url(#SVGID_00000109026126294393799170000008978968755708269470_)"/><path d="m103.7 350.6c36.6.1 66.8-6.2 91.6-15.8-40.9-15.1-66.7-35.5-66.7-35.5-19.2-1.8-34.4 22.5-34.4 35.1 0 5.7-2.6 11.4-5.5 15.9 4.9.2 9.8.3 15 .3z" fill="url(#SVGID_00000167394572068303087920000003664453049874025894_)"/><path d="m94.9 340.1c32.2.1 59.6-4.8 82.6-12.6-30.4-13.6-48.8-28.2-48.8-28.2-19.2-1.8-34.4 22.5-34.4 35.1 0 1.9-.3 3.8-.8 5.7z" fill="url(#SVGID_00000130623315520280280670000002402201349841641346_)"/><path d="m94.9 329.4c25-.6 46.9-4.4 66-10-20.4-10.7-32.2-20.1-32.2-20.1-17-1.6-30.8 17.1-33.8 30.1z" fill="url(#SVGID_00000034067625765509983280000010013877712022645150_)"/><path d="m99.5 318.2c16.8-1.2 32.1-3.9 46-7.5-10.9-6.6-16.9-11.4-16.9-11.4-12.4-1.1-23.1 8.5-29.1 18.9z" fill="url(#SVGID_00000103958515559908281330000013707966681304666045_)"/></g></g><g><path d="m402.7 170.8c-138.6-5-230.1 96.1-237.6 104.6-.3.4-.8.7-1.2.8-11.7 3.7-23.9-.8-33.1-7.6.1.1.2.2.3.3 0 0-32.7-7-36.6-29.6-.4-2.2.4-5.9 2.4-10.8.4-.9 1.2-1.6 2.1-1.7 20.7-3.4 20-12.4 17.7-17.6-.8-1.8.4-3.8 2.3-3.9 19.1-1.4 19.3-10.5 17.7-15.7-.6-1.8.8-3.6 2.7-3.5 23.9.5 25-9.1 23.7-14.7-.4-1.8 1.1-3.5 3-3.3 24.6 2 24.3-8 22.4-13.5-.6-1.7.6-3.5 2.4-3.6 19.5-1.5 22.3-10 22.3-14.8 0-1.7 1.5-2.9 3.2-2.7 31.2 4.1 35.2-5.8 35-11.6-.1-1.8 1.6-3.2 3.4-2.8 9.8 2.2 34.2 7.1 42.4 2.2 3.9-2.4 2.2-6-1.5-9.6-1.9-1.9-.2-5.1 2.4-4.7 23.2 4.1 47.7 14 73.2 31.6 0 0 0 0-.1 0 15.8 9.3 27.8 21.1 33.8 27.6 1.5 1.8.2 4.7-2.3 4.6z" fill="url(#SVGID_00000158719698406973046090000011832796149355679413_)"/><g><path d="m116.6 250.3c-1.8-6.9-7.7-12.7-12.8-16.5-2.2-1.6-.9-4.9 2-5.2 19.1-2 35.3-16.1 65.5-41.9 22.8-19.5 55.1-35.9 89-47.2 26.1-8.7 54.5-8.8 80.5.2 26.6 9.1 46.1 21.4 58.6 31-142.8-3.5-234.8 105.3-234.8 105.3-21.2 7.4-44.7-12.9-48-25.7z" fill="url(#SVGID_00000112607583001764031660000000941972958377435047_)"/><path d="m103.8 233.8c-2.2-1.6-.9-4.9 2-5.2 19.1-2 35.3-16.1 65.5-41.9 14.3-12.2 32.3-23.2 52.1-32.5 24.2-11.4 51.5-14.8 77.8-9.8 30.6 5.9 54.6 16.5 72.2 26.9-127.9 9.1-208.8 104.7-208.8 104.7-21.3 7.4-44.8-12.9-48.1-25.7-1.7-6.9-7.6-12.7-12.7-16.5z" fill="url(#SVGID_00000071552379242462954580000001225577199044780686_)"/><path d="m103.8 233.8c-2.2-1.6-.9-4.9 2-5.2 19.1-2 35.3-16.1 65.5-41.9 4.4-3.8 9.2-7.4 14.3-11 23.9-16.6 52.9-24.1 81.9-21.7 32.3 2.8 58.7 11 79.3 20.4-112.4 19.1-182.2 101.6-182.2 101.6-21.3 7.4-44.8-12.9-48.1-25.7-1.7-6.9-7.6-12.7-12.7-16.5z" fill="url(#SVGID_00000060742770968262788770000007576324014834059455_)"/><path d="m105.8 228.6c19.1-2 35.3-16.1 65.5-41.9l.2-.2c14-11.9 31.6-18.8 49.9-19.7 40.2-2.1 73.2 4.2 99.3 13.4-97 26-156.1 95.8-156.1 95.8-21.3 7.4-44.8-12.9-48.1-25.7-1.8-6.9-7.7-12.7-12.8-16.5-2.1-1.6-.8-4.9 2.1-5.2z" fill="url(#SVGID_00000000909738528542017030000013541402576893300659_)"/><path d="m105.8 228.6c10-1.1 28-12.9 42.9-24 20.3-15.1 44.7-23.8 70-24.7 29.7-1.1 55.4 2.4 77.2 8.2-82.1 29.9-131.2 88-131.2 88-21.3 7.4-44.8-12.9-48.1-25.7-1.8-6.9-7.7-12.7-12.8-16.5-2.2-1.7-.9-5 2-5.3z" fill="url(#SVGID_00000125568385438835762850000003881181532504964513_)"/><path d="m105.8 228.6c9.2-1 17.8-4.8 27.6-11.3 20.7-13.9 44.8-22 69.7-23.7 26.1-1.7 49.2.1 69.4 4-68 31.2-107.9 78.4-107.9 78.4-21.3 7.4-44.8-12.9-48.1-25.7-1.8-6.9-7.7-12.7-12.8-16.5-2.1-1.6-.8-4.9 2.1-5.2z" fill="url(#SVGID_00000147941555352273662130000017412257133133295261_)"/><path d="m105.8 228.6c5.2-.6 10.3-2 15.4-4.4 14.3-6.6 29.3-11.5 44.9-14 32.1-5.1 60.3-4.9 84.7-1.6-54.7 30.2-86.2 67.4-86.2 67.4-21.3 7.4-44.8-12.9-48.1-25.7-1.8-6.9-7.7-12.7-12.8-16.5-2.1-1.6-.8-4.9 2.1-5.2z" fill="url(#SVGID_00000096035673598689951010000002641311952138206399_)"/><path d="m123 231c41.4-10.8 77.3-13.1 107.9-10.5-42.3 27.3-66.2 55.5-66.2 55.5-21.3 7.4-44.8-12.9-48.1-25.7-1.5-5.8-5.9-10.8-10.3-14.6 5.3-1.6 10.9-3.2 16.7-4.7z" fill="url(#SVGID_00000119827243360709024980000002484748395885640095_)"/><path d="m115.8 244.3c36.5-9.5 68.7-12.4 96.8-11.2-30.9 22.7-47.9 42.9-47.9 42.9-21.3 7.4-44.8-12.9-48.1-25.7-.5-2-1.3-3.8-2.4-5.6.5-.1 1-.2 1.6-.4z" fill="url(#SVGID_00000060011831529506146140000003974549185346724516_)"/></g></g><g><path d="m381.6 339c-13.3 7.8-43.7 23.9-77.9 30.7-16.4 3.2-18.4 26.1-2.7 31.7 26.4 9.4 59.9 4.2 84.7-58.9 1-2.5-1.7-4.9-4.1-3.5z" fill="url(#SVGID_00000016784976401815302160000000470578045955229883_)"/><path d="m381.6 339c-13.3 7.8-43.7 23.9-77.9 30.7-16.4 3.2-18.4 26.1-2.7 31.7 26.4 9.4 59.9 4.2 84.7-58.9 1-2.5-1.7-4.9-4.1-3.5z" fill="url(#SVGID_00000166672740437000520700000011650217291220283035_)"/><path d="m381.6 339c-13.3 7.8-43.7 23.9-77.9 30.7-16.4 3.2-18.4 26.1-2.7 31.7 26.4 9.4 59.9 4.2 84.7-58.9 1-2.5-1.7-4.9-4.1-3.5z" fill="url(#SVGID_00000083793605877291938100000002283262095929303681_)"/><path d="m303.7 369.7c34.2-6.8 64.7-22.9 77.9-30.7 1.5-.9 3.1-.3 3.8.9 0 0-23.5 61.2-91.8 56.3-6.9-8.8-3-23.9 10.1-26.5z" fill="url(#SVGID_00000088107423189311254410000014210178586622369416_)"/><path d="m329 380.5c-13.9 6.1-27.1 7.9-38.7 7.5-.8-7.9 3.9-16.3 13.3-18.2 34.2-6.8 64.7-22.9 77.9-30.7 1.5-.9 3.1-.3 3.8.9-8.2 10-25.8 27.2-56.3 40.5z" fill="url(#SVGID_00000167394101203876983880000001044199754702184370_)"/></g><g><path d="m346.4 152.2c-103.6-10.8-181.8 46.7-218.2 80.7-6.6 6.2-14.9 10.4-23.8 11.6-13.6 1.9-27.8-1.6-39.4-10.5-16.6-12.8-36.1-23.1-57.7-30.3-4.2-1.4-8.3 2.6-7 6.9 5.9 20.1 9.1 41.9 9.1 64.7s-3.2 44.5-9.1 64.7c-1.3 4.3 2.8 8.3 7 6.9 21.6-7.2 41.2-17.5 57.7-30.3 19.6-15.1 47.2-14.7 65.9 1.5 41.4 35.8 100.9 58.2 167 58.2 89.5 0 166.9-41.2 203.7-100.9 0-.1-23.9-109.4-155.2-123.2z" fill="url(#SVGID_00000002362365732776674650000012015827748791009935_)"/><path d="m489.7 258.3c4.3 5.5 8.3 11.1 11.9 16.9-36.8 59.8-114.2 101-203.7 101-66.1 0-125.6-22.4-167-58.2-18.7-16.2-46.3-16.6-65.9-1.5-16.6 12.8-36.1 23.1-57.7 30.3-4.2 1.4-8.3-2.6-7-6.9 5.9-20.1 9.1-41.9 9.1-64.7 0-5.7-.2-11.4-.6-16.9z" fill="url(#SVGID_00000075846069125813666260000014396014808730143374_)"/><path d="m489.7 258.3c4.3 5.5 8.3 11.1 11.9 16.9-36.8 59.8-114.2 101-203.7 101-66.1 0-125.6-22.4-167-58.2-18.7-16.2-46.3-16.6-65.9-1.5-16.6 12.8-36.1 23.1-57.7 30.3-4.2 1.4-8.3-2.6-7-6.9 5.9-20.1 9.1-41.9 9.1-64.7 0-5.7-.2-11.4-.6-16.9z" fill="url(#SVGID_00000129887278604525393660000018336690133024128138_)"/><g><path d="m50.4 311.9c14.7-7.9 32.9-11 50.2-9.3 10 1 18.6-7 18.6-17.2v-20.4c0-10.2-8.7-18-18.7-17-.1 0-.1 0-.2 0-17.2 1.7-35.3-1.5-49.9-9.3-14.3-7.7-30.5-14.5-48-20 4.5 17.8 6.9 36.9 6.9 56.6s-2.4 38.8-6.9 56.6c17.5-5.6 33.7-12.3 48-20z" fill="url(#SVGID_00000026876750602326021350000000688402393795632535_)"/><path d="m50.4 311.9c14.7-7.9 32.9-11 50.2-9.3 10 1 18.6-7 18.6-17.2v-20.4c0-10.2-8.7-18-18.7-17-.1 0-.1 0-.2 0-17.2 1.7-35.3-1.5-49.9-9.3-14.3-7.7-30.5-14.5-48-20 4.5 17.8 6.9 36.9 6.9 56.6s-2.4 38.8-6.9 56.6c17.5-5.6 33.7-12.3 48-20z" fill="url(#SVGID_00000165939365857071406490000008688736779139209388_)"/><path d="m50.4 299c14.7-5.1 32.9-7.1 50.2-6 10 .6 18.6-4.5 18.6-11.1v-13.2c0-6.6-8.7-11.6-18.7-11-.1 0-.1 0-.2 0-17.2 1.1-35.3-.9-49.9-6-13.2-4.6-27.9-8.6-43.8-12.1 1.8 11.6 2.7 23.5 2.7 35.7s-.9 24.2-2.7 35.7c15.9-3.4 30.6-7.5 43.8-12z" fill="url(#SVGID_00000145045520674890240220000013949907422051670699_)"/><path d="m50.4 286.8c14.7-2.5 32.9-3.5 50.2-2.9 10 .3 18.6-2.2 18.6-5.4v-6.5c0-3.2-8.7-5.7-18.7-5.3-.1 0-.1 0-.2 0-17.2.5-35.3-.5-49.9-2.9-12.6-2.1-26.6-4-41.7-5.6.4 5.6.6 11.4.6 17.2s-.2 11.5-.6 17.2c15.1-1.8 29.1-3.7 41.7-5.8z" fill="url(#SVGID_00000023985240128491682920000008529555498343736202_)"/></g></g><g><g><g><path d="m249.8 196.1c-12.2-12.2-32.1-12.2-44.3 0l-8.9 8.9c-2.2 2.2-2.2 5.8 0 8.1l8.9 8.9c12.2 12.2 32.1 12.2 44.3 0 7.1-7.2 7.1-18.8 0-25.9z" fill="url(#SVGID_00000029742529313927268160000015080373673995562892_)"/><path d="m249.8 232c-12.2-12.2-32.1-12.2-44.3 0l-8.9 8.9c-2.2 2.2-2.2 5.8 0 8.1l8.9 8.9c12.2 12.2 32.1 12.2 44.3 0 7.1-7.2 7.1-18.8 0-25.9z" fill="url(#SVGID_00000000904637542070907880000011294526550358536853_)"/><path d="m249.8 267.8c-12.2-12.2-32.1-12.2-44.3 0l-8.9 8.9c-2.2 2.2-2.2 5.8 0 8.1l8.9 8.9c12.2 12.2 32.1 12.2 44.3 0 7.1-7.2 7.1-18.7 0-25.9z" fill="url(#SVGID_00000042722352456176193770000002771106196799455136_)"/><path d="m249.8 303.7c-12.2-12.2-32.1-12.2-44.3 0l-8.9 8.9c-2.2 2.2-2.2 5.8 0 8.1l8.9 8.9c12.2 12.2 32.1 12.2 44.3 0 7.1-7.2 7.1-18.8 0-25.9z" fill="url(#SVGID_00000090276899031909868760000004523566847513555885_)"/></g><g><path d="m282.4 214c-12.2-12.2-32.1-12.2-44.3 0l-8.9 8.9c-2.2 2.2-2.2 5.8 0 8.1l8.9 8.9c12.2 12.2 32.1 12.2 44.3 0 7.1-7.2 7.1-18.7 0-25.9z" fill="url(#SVGID_00000101822940983698032190000008637344144654771112_)"/><path d="m282.4 249.9c-12.2-12.2-32.1-12.2-44.3 0l-8.9 8.9c-2.2 2.2-2.2 5.8 0 8.1l8.9 8.9c12.2 12.2 32.1 12.2 44.3 0 7.1-7.2 7.1-18.8 0-25.9z" fill="url(#SVGID_00000025412785464001901670000009693871470204599968_)"/><path d="m282.4 285.8c-12.2-12.2-32.1-12.2-44.3 0l-8.9 8.9c-2.2 2.2-2.2 5.8 0 8.1l8.9 8.9c12.2 12.2 32.1 12.2 44.3 0 7.1-7.2 7.1-18.8 0-25.9z" fill="url(#SVGID_00000140729932899001478670000014326512872355178645_)"/></g><g><path d="m211.8 214c-12.2-12.2-32.1-12.2-44.3 0l-8.9 8.9c-2.2 2.2-2.2 5.8 0 8.1l8.9 8.9c12.2 12.2 32.1 12.2 44.3 0 7.1-7.2 7.1-18.7 0-25.9z" fill="url(#SVGID_00000023998325504290085360000011378148272615951545_)"/><path d="m211.8 249.9c-12.2-12.2-32.1-12.2-44.3 0l-8.9 8.9c-2.2 2.2-2.2 5.8 0 8.1l8.9 8.9c12.2 12.2 32.1 12.2 44.3 0 7.1-7.2 7.1-18.8 0-25.9z" fill="url(#SVGID_00000144336670694238193740000002349226423870324383_)"/><path d="m211.8 285.8c-12.2-12.2-32.1-12.2-44.3 0l-8.9 8.9c-2.2 2.2-2.2 5.8 0 8.1l8.9 8.9c12.2 12.2 32.1 12.2 44.3 0 7.1-7.2 7.1-18.8 0-25.9z" fill="url(#SVGID_00000158008381304996113090000016290718101890369982_)"/></g></g><g><g><path d="m320.5 196.1c-12.2-12.2-32.1-12.2-44.3 0l-8.9 8.9c-2.2 2.2-2.2 5.8 0 8.1l8.9 8.9c12.2 12.2 32.1 12.2 44.3 0 7.1-7.2 7.1-18.8 0-25.9z" fill="url(#SVGID_00000049909097254908335210000013428756308267212196_)"/><path d="m320.5 232c-12.2-12.2-32.1-12.2-44.3 0l-8.9 8.9c-2.2 2.2-2.2 5.8 0 8.1l8.9 8.9c12.2 12.2 32.1 12.2 44.3 0 7.1-7.2 7.1-18.8 0-25.9z" fill="url(#SVGID_00000124135291114357017440000010928205231664333246_)"/><path d="m320.5 267.8c-12.2-12.2-32.1-12.2-44.3 0l-8.9 8.9c-2.2 2.2-2.2 5.8 0 8.1l8.9 8.9c12.2 12.2 32.1 12.2 44.3 0 7.1-7.2 7.1-18.7 0-25.9z" fill="url(#SVGID_00000171685585576260597080000001822332378805026185_)"/><path d="m320.5 303.7c-12.2-12.2-32.1-12.2-44.3 0l-8.9 8.9c-2.2 2.2-2.2 5.8 0 8.1l8.9 8.9c12.2 12.2 32.1 12.2 44.3 0 7.1-7.2 7.1-18.8 0-25.9z" fill="url(#SVGID_00000114052232572726896080000003313946398372452284_)"/></g><g><path d="m353.1 214c-12.2-12.2-32.1-12.2-44.3 0l-8.9 8.9c-2.2 2.2-2.2 5.8 0 8.1l8.9 8.9c12.2 12.2 32.1 12.2 44.3 0 7.1-7.2 7.1-18.7 0-25.9z" fill="url(#SVGID_00000011736398069249862750000008655556019534423204_)"/><path d="m353.1 249.9c-12.2-12.2-32.1-12.2-44.3 0l-8.9 8.9c-2.2 2.2-2.2 5.8 0 8.1l8.9 8.9c12.2 12.2 32.1 12.2 44.3 0 7.1-7.2 7.1-18.8 0-25.9z" fill="url(#SVGID_00000164489602317068227090000009874680495181661568_)"/><path d="m353.1 285.8c-12.2-12.2-32.1-12.2-44.3 0l-8.9 8.9c-2.2 2.2-2.2 5.8 0 8.1l8.9 8.9c12.2 12.2 32.1 12.2 44.3 0 7.1-7.2 7.1-18.8 0-25.9z" fill="url(#SVGID_00000155139194774141019900000013759722528759825827_)"/></g></g></g><path d="m501.6 275.3s-10.3-47.1-54.5-83.3c-10.9-9-26.8-8.2-36.9 1.7-24.2 23.7-35.9 49.7-40.7 63.6-2.2 6.3-1.2 13.3 2.7 18.8 11.9 16.9 27.2 32.2 45.1 45.1 13.9 10.1 32.9 9.2 46-1.9 15.3-13 28.3-27.8 38.3-44z" fill="url(#SVGID_00000016759430914679017910000001210368629779283376_)"/><path d="m501.6 275.3s-10.3-47.1-54.5-83.3c-10.9-9-26.8-8.2-36.9 1.7-24.2 23.7-35.9 49.7-40.7 63.6-2.2 6.3-1.2 13.3 2.7 18.8 11.9 16.9 27.2 32.2 45.1 45.1 13.9 10.1 32.9 9.2 46-1.9 15.3-13 28.3-27.8 38.3-44z" fill="url(#SVGID_00000131334390701063256870000011766167910553287577_)"/><path d="m501.6 275.3s-8.9-40.8-45.8-75.7c-8.1-7.7-20.8-8.2-29.6-1.2-9.5 7.5-18.4 15.8-26.8 24.8-14.5 15.6-15.7 38.3-2.5 54.8 9.3 11.7 19.6 22.5 30.6 32.2 13.5 11.9 34 11.6 46.9-1 10.6-10.4 19.7-21.8 27.2-33.9z" fill="url(#SVGID_00000121980584182110818740000018000706511819967634_)"/><path d="m501.6 275.3s-8.9-40.8-45.8-75.7c-8.1-7.7-20.8-8.2-29.6-1.2-9.5 7.5-18.4 15.8-26.8 24.8-14.5 15.6-15.7 38.3-2.5 54.8 9.3 11.7 19.6 22.5 30.6 32.2 13.5 11.9 34 11.6 46.9-1 10.6-10.4 19.7-21.8 27.2-33.9z" fill="url(#SVGID_00000025404940972998713280000001238099742780873404_)"/><path d="m499.7 278.2h-17.4l-34.8 34.8 10.6 10.6c16.6-13.2 30.7-28.5 41.6-45.4z" fill="url(#SVGID_00000111881547596332232450000009612119963619113099_)"/><path d="m437.5 307.5c12.1-24.1 38.9-38.5 66.3-34 .4.1.7.1 1.1.2 10.3 1.9 9 16.8-1.4 17.1-11 .3-22 3.5-31.9 9.8 0 0-.1 0-.1.1-5.9 3.8-9.6 10.1-10.3 17.1-.6 6.3-7.5 9.8-12.9 6.5l-7.2-4.4c-4.2-2.7-5.8-8-3.6-12.4z" fill="url(#SVGID_00000111158982057283832230000006759306662193701762_)"/><g><g><circle cx="438.5" cy="239.8" fill="url(#SVGID_00000034771418746279756790000003489040638967504543_)" r="23"/><path d="m438.5 216.9c-1.6 0-3.2.2-4.7.5v45c1.5.3 3.1.5 4.7.5 12.7 0 23-10.3 23-23s-10.4-23-23-23z" fill="url(#SVGID_00000165936752826433201440000002865029623516415678_)"/><path d="m415.5 239.8c0 12.7 10.3 23 23 23s23-10.3 23-23c0-1.7-.2-3.3-.5-4.9h-45c-.3 1.6-.5 3.2-.5 4.9z" fill="url(#SVGID_00000049942398834315234580000012505605249850033542_)"/><path d="m450.1 220-31.4 31.4c4 6.8 11.4 11.4 19.8 11.4 12.7 0 23-10.3 23-23-.1-8.4-4.6-15.8-11.4-19.8z" fill="url(#SVGID_00000174580394110338708130000018086815030932533428_)"/></g><circle cx="438.5" cy="239.8" fill="url(#SVGID_00000081631873650362088090000002796470571553132726_)" r="16.9"/></g><path d="m400.5 319.9-49.7-15.8-48.4 5.2 59.5 59.5c22.9-5.3 44.3-13.5 63.6-23.9z" fill="url(#SVGID_00000021822572063841604200000012470516952766198151_)"/><g><path d="m397.4 324.4c-14.8-4.3-48.2-12.6-83.1-10.9-16.7.8-24.2-20.9-10.3-30.1 23.3-15.6 57.1-18.6 96.5 36.6 1.6 2.2-.5 5.1-3.1 4.4z" fill="url(#SVGID_00000019651823493577695520000005390187866810780552_)"/><path d="m314.3 313.5c34.8-1.7 68.3 6.5 83.1 10.9 1.6.5 3-.5 3.5-1.8 0 0-37.7-53.7-102.8-32.3-4.5 10.2 2.9 23.9 16.2 23.2z" fill="url(#SVGID_00000087400955893043151050000000129976354065677998_)"/><path d="m336.3 296.9c-15-2.5-28.2-1-39.4 2.2 1.1 7.8 7.7 14.9 17.4 14.4 34.8-1.7 68.3 6.5 83.1 10.9 1.6.5 3-.5 3.5-1.8-10.5-7.8-31.8-20.2-64.6-25.7z" fill="url(#SVGID_00000080927063375487370490000006693294094834515339_)"/></g></g></svg>