<svg xmlns="http://www.w3.org/2000/svg" viewBox="0 0 200 200">
  <defs>
    <radialGradient id="drakeBody" cx="50%" cy="40%" r="65%">
      <stop offset="0%" stop-color="#fde68a" />
      <stop offset="45%" stop-color="#f97316" />
      <stop offset="100%" stop-color="#dc2626" />
    </radialGradient>
    <linearGradient id="drakeWing" x1="0%" y1="0%" x2="100%" y2="100%">
      <stop offset="0%" stop-color="#fb923c" />
      <stop offset="100%" stop-color="#facc15" />
    </linearGradient>
  </defs>
  <rect width="200" height="200" rx="36" fill="#fee2e2" />
  <g transform="translate(32 42)">
    <ellipse cx="68" cy="70" rx="62" ry="52" fill="url(#drakeBody)" />
    <path d="M32 70 Q10 40 40 32 Q54 28 54 48" fill="url(#drakeWing)" opacity="0.9" />
    <path d="M104 70 Q136 40 110 28 Q92 22 94 44" fill="url(#drakeWing)" opacity="0.9" />
    <ellipse cx="50" cy="60" rx="8" ry="10" fill="#1f2937" />
    <ellipse cx="84" cy="60" rx="8" ry="10" fill="#1f2937" />
    <circle cx="48" cy="58" r="3" fill="#f8fafc" />
    <circle cx="82" cy="58" r="3" fill="#f8fafc" />
    <path d="M58 78 Q68 86 78 78" stroke="#1f2937" stroke-width="4" fill="none" stroke-linecap="round" />
    <path d="M60 96 Q70 108 80 96" stroke="#7f1d1d" stroke-width="5" fill="none" stroke-linecap="round" />
    <path d="M70 116 Q72 132 62 138" stroke="#991b1b" stroke-width="6" fill="none" stroke-linecap="round" />
    <path d="M86 116 Q84 130 96 138" stroke="#991b1b" stroke-width="6" fill="none" stroke-linecap="round" />
  </g>
  <circle cx="160" cy="52" r="16" fill="#f97316" opacity="0.35" />
  <circle cx="40" cy="150" r="14" fill="#fb7185" opacity="0.25" />
</svg>
