<svg id="Capa_1" enable-background="new 0 0 512 512" viewBox="0 0 512 512" xmlns="http://www.w3.org/2000/svg"><g><g><g><g><path d="m451.162 60.839c-70.734-70.734-185.416-70.734-256.149 0l-134.175 134.173c-70.734 70.734-70.734 185.416 0 256.149 70.734 70.734 185.416 70.734 256.149 0l134.174-134.174c70.734-70.733 70.734-185.415.001-256.148z" fill="#a8c6e2"/></g><g><path d="m331.988 436.162c-70.734 70.734-185.416 70.734-256.149 0s-70.734-185.414-.003-256.147l-14.998 14.998c-70.734 70.734-70.734 185.416 0 256.149 70.734 70.734 185.416 70.734 256.149 0l134.174-134.174c.001-.001.002-.002.002-.002z" fill="#8bb2d8"/></g><g><path d="m430.701 81.3c-59.019-59.019-154.708-59.019-213.727 0l-46.624 46.624 213.727 213.726 46.624-46.624c59.019-59.019 59.019-154.707 0-213.726z" fill="#57758d"/></g><g><path d="m273.944 75.766h22.326v302.255h-22.326z" fill="#4b6276" transform="matrix(.707 -.707 .707 .707 -76.932 268.056)"/></g><g><path d="m272.432 87.44-6.52-13.51c4.708-2.271 9.587-4.332 14.501-6.125l5.139 14.093c-4.446 1.622-8.861 3.487-13.12 5.542zm26.732-9.75-3.713-14.533c5.062-1.293 10.25-2.348 15.419-3.136l2.259 14.829c-4.682.713-9.381 1.669-13.965 2.84z" fill="#fff"/></g><g><path d="m224.18 266.607-96.257-96.257-46.624 46.624c-55.439 55.439-58.797 143.232-10.083 202.597z" fill="#57758d"/></g><g><path d="m97.385 200.889 15.269-15.269-31.355 31.355c-55.439 55.438-58.797 143.231-10.083 202.596l16.085-16.085c-48.714-59.365-45.356-147.158 10.084-202.597z" fill="#4b6276"/></g><g><path d="m245.393 287.82-152.964 152.964c59.364 48.714 147.157 45.356 202.597-10.083l46.624-46.624z" fill="#57758d"/></g><g><path d="m108.882 424.331-16.452 16.452c59.364 48.714 147.157 45.356 202.597-10.083l16.452-16.452c-55.44 55.439-143.233 58.798-202.597 10.083z" fill="#4b6276"/></g><g><path d="m364.64 182.789 5.303 5.303c14.645 14.645 38.388 14.645 53.033 0s14.645-38.388 0-53.033l-26.464-26.464c-23.461-23.461-61.498-23.461-84.958 0l-31.767 31.767c-11.716 11.716-11.716 30.711 0 42.426 11.716 11.716 30.711 11.716 42.426 0 11.716-11.715 30.711-11.715 42.427.001z" fill="#f05475"/></g><g><path d="m427.801 178.06c-9.62 9.62-24.96 9.899-34.924.634l-12.328-11.814c-9.916-9.916-23.1-15.377-37.123-15.377s-27.208 5.461-37.123 15.377c-2.893 2.892-7.581 2.924-10.512.093-9.011-9.423-8.857-24.53.377-33.765l19.999-19.999c7.642-7.642 14.568-14.172 20.832-19.754-9.315 2.745-18.096 7.79-25.446 15.14l-31.767 31.767c-11.716 11.716-11.716 30.711 0 42.426s30.711 11.716 42.426 0c11.716-11.716 30.711-11.716 42.426 0l5.303 5.303c14.645 14.645 38.388 14.645 53.033 0 4.189-4.189 7.174-9.124 8.967-14.377-1.385 1.519-2.77 2.976-4.14 4.346z" fill="#e21743"/></g><g><circle cx="136" cy="256" fill="#00c278" r="15"/></g></g></g><g><path d="m456.76 55.319c-35.679-35.673-83.117-55.319-133.575-55.319s-97.895 19.646-133.574 55.319l-105.316 105.298 10.622 10.62 32.82-32.814 245.905 245.862-61.875 61.864c-67.796 67.784-178.109 67.784-245.905 0s-67.796-178.077 0-245.862l17.528-17.525-10.622-10.62-17.528 17.525c-73.653 73.641-73.653 193.462 0 267.103 36.827 36.82 85.201 55.23 133.575 55.23 48.373 0 96.747-18.41 133.574-55.23l134.371-134.349c73.654-73.64 73.653-193.462 0-267.102zm-10.622 256.482-61.875 61.864-245.904-245.862 61.875-61.864c32.842-32.836 76.507-50.92 122.952-50.92s90.111 18.084 122.952 50.92c67.796 67.785 67.796 178.078 0 245.862z"/><path d="m436.269 75.806c-30.005-30-69.898-46.521-112.332-46.521-42.433 0-82.327 16.521-112.332 46.521l-52.004 51.995 182.297 182.265 10.622-10.62-171.675-171.645 41.382-41.375c56.084-56.073 147.336-56.072 203.42 0 27.167 27.163 42.129 63.277 42.129 101.692 0 38.414-14.962 74.529-42.129 101.692l-41.382 41.375-20.377-20.374-10.622 10.62 30.999 30.994 52.004-51.995c30.005-30 46.529-69.887 46.529-112.313s-16.524-82.311-46.529-112.311z"/><path d="m75.731 211.657c-28.06 28.055-44.523 65.316-46.356 104.919-2.131 42.221 13.142 83.025 41.02 114.421l164.361-164.332-107.021-107.003zm-4.072 196.835c-41.607-56.976-35.884-135.645 14.693-186.214l41.382-41.374 85.777 85.762z"/><path d="m300.395 436.282 52.004-51.995-107.021-107.002-164.361 164.332c29.548 26.192 67.425 41.365 107.015 41.185 42.095.049 82.611-16.706 112.363-46.52zm-196.869 4.071 141.852-141.827 85.777 85.762-41.382 41.375c-50.578 50.566-129.261 56.289-186.247 14.69z"/><path d="m274.511 188.048c13.979 14.566 39.132 14.567 53.111 0 8.387-8.74 23.479-8.739 31.867 0l5.311 5.31c8.786 8.785 20.324 13.176 31.867 13.176 11.539 0 23.082-4.393 31.867-13.176 17.571-17.568 17.571-46.154 0-63.722l-26.503-26.498c-26.385-26.382-69.32-26.382-95.705 0l-31.814 31.809c-14.644 14.639-14.644 38.461-.001 53.101zm10.622-42.481 31.814-31.809c20.529-20.526 53.932-20.526 74.461 0l26.503 26.498c11.714 11.712 11.714 30.77 0 42.482s-30.775 11.711-42.489 0c-8.347-9.427-18.819-16.585-31.867-16.308-10.031 0-19.462 3.905-26.555 10.998-8.388 8.739-23.479 8.74-31.867 0-8.786-8.784-8.786-23.077 0-31.861z"/><path d="m113.29 256.044c0 12.423 10.108 22.529 22.533 22.529s22.533-10.106 22.533-22.529-10.108-22.529-22.533-22.529-22.533 10.106-22.533 22.529zm22.533-7.509c4.142 0 7.511 3.369 7.511 7.51s-3.369 7.51-7.511 7.51-7.511-3.369-7.511-7.51 3.369-7.51 7.511-7.51z"/><path d="m203.423 376.2h45.066v15.019h-45.066z"/><path d="m203.423 406.239h45.066v15.019h-45.066z"/></g></g><g/><g/><g/><g/><g/><g/><g/><g/><g/><g/><g/><g/><g/><g/><g/></svg>