<svg id="Capa_1" enable-background="new 0 0 512 512" viewBox="0 0 512 512" xmlns="http://www.w3.org/2000/svg"><g><g><g><path d="m450.919 60.616c-70.734-70.734-185.416-70.734-256.149 0l-134.174 134.174c-70.734 70.734-70.734 185.416 0 256.149 70.734 70.734 185.416 70.734 256.149 0l134.174-134.174c70.734-70.733 70.734-185.415 0-256.149z" fill="#a8c6e2"/><path d="m331.746 435.939c-70.734 70.734-185.416 70.734-256.149 0-70.734-70.733-70.734-185.413-.003-256.147l-14.998 14.998c-70.734 70.734-70.734 185.416 0 256.149 70.734 70.734 185.416 70.734 256.149 0l134.174-134.174c.001-.001.002-.002.002-.002z" fill="#8bb2d8"/><path d="m223.938 266.384-96.257-96.257-46.624 46.624c-55.439 55.44-58.797 143.233-10.083 202.597z" fill="#57758d"/><path d="m97.142 200.666 15.269-15.269-31.355 31.355c-55.438 55.439-58.796 143.232-10.082 202.596l16.085-16.085c-48.714-59.364-45.356-147.157 10.083-202.597z" fill="#4b6276"/><path d="m245.151 287.597-152.964 152.964c59.364 48.714 147.157 45.356 202.597-10.083l46.624-46.624z" fill="#57758d"/><path d="m108.64 424.109-16.452 16.452c59.364 48.714 147.157 45.356 202.597-10.083l16.452-16.452c-55.44 55.439-143.233 58.797-202.597 10.083z" fill="#4b6276"/><path d="m430.274 83.711c-.284-.323-.581-.639-.89-.948-4.261-4.261-9.925-6.212-15.355-5.816-.553-4.142-2.446-8.193-5.685-11.432-5.132-5.132-12.297-6.902-18.64-5.267-.974-2.568-2.487-4.997-4.574-7.084-6.038-6.038-14.886-7.421-21.9-4.079-.765-1.185-1.655-2.316-2.696-3.358-6.952-6.952-17.629-7.736-24.94-2.23-.086-.089-.16-.185-.248-.273-7.579-7.579-19.596-7.851-26.84-.606-.276.276-.519.57-.773.859-7.518-5.339-17.76-4.87-24.217 1.588-1.206 1.206-2.184 2.553-2.974 3.981-7.036-3.248-15.446-2.147-21.028 3.435-2.228 2.228-3.739 4.91-4.551 7.774-6.221-1.598-12.956-.088-17.673 4.629-3.294 3.294-5.017 7.575-5.222 11.977-5.219-.414-10.487 1.288-14.379 5.179-3.542 3.542-5.274 8.225-5.247 12.971-4.747-.027-9.43 1.706-12.972 5.248-3.777 3.777-5.491 8.851-5.212 13.917-2.592.853-5.017 2.275-7.057 4.315-7.244 7.244-6.973 19.261.606 26.84 3.52 3.52 7.998 5.443 12.511 5.789.346 4.512 2.269 8.99 5.789 12.51s7.998 5.443 12.51 5.789c.346 4.512 2.269 8.99 5.789 12.51s7.998 5.443 12.511 5.789c.346 4.512 2.269 8.99 5.789 12.511 3.52 3.52 7.998 5.443 12.511 5.789.346 4.512 2.269 8.99 5.789 12.51s6.957 4.402 11.469 4.748c0 0 .701 7.423 4.838 11.559 4.326 4.326 11.478 4.757 11.478 4.757.346 4.512 1.308 8.03 4.828 11.55s7.998 5.443 12.51 5.789c.346 4.512 2.269 8.99 5.789 12.511 3.52 3.52 7.998 5.443 12.511 5.789.346 4.512 2.269 8.99 5.789 12.51s7.998 5.443 12.51 5.789c.346 4.512 2.269 8.99 5.789 12.511 3.52 3.52 7.998 5.443 12.51 5.789.346 4.512 2.269 8.99 5.789 12.511 7.579 7.579 19.596 7.85 26.84.606 2.04-2.04 3.463-4.465 4.315-7.057 5.066.279 10.14-1.435 13.917-5.212 3.542-3.542 5.274-8.225 5.248-12.972 4.747.027 9.43-1.706 12.971-5.247 3.892-3.892 5.594-9.161 5.179-14.379 4.401-.206 8.683-1.929 11.977-5.222 4.716-4.716 6.226-11.452 4.629-17.673 2.863-.812 5.545-2.323 7.774-4.551 5.582-5.582 6.683-13.992 3.435-21.028 1.428-.79 2.775-1.769 3.981-2.975 6.457-6.457 6.927-16.699 1.588-24.217.289-.254.584-.498.859-.773 7.244-7.244 6.973-19.261-.606-26.84-.088-.088-.184-.162-.273-.248 5.506-7.312 4.722-17.988-2.23-24.94-1.041-1.042-2.172-1.931-3.358-2.696 3.343-7.014 1.959-15.862-4.079-21.9-2.087-2.087-4.516-3.599-7.084-4.574 1.634-6.342-.135-13.507-5.267-18.64-3.239-3.239-7.29-5.132-11.432-5.685.368-5.036-1.284-10.274-4.926-14.407z" fill="#fff"/><path d="m416.932 298.932c-.853 2.592-2.275 5.017-4.315 7.057-7.244 7.244-19.261 6.973-26.84-.606-3.52-3.52-175.491-175.491-179.011-179.011-7.579-7.579-7.851-19.596-.606-26.84 2.04-2.04 4.465-3.462 7.057-4.315-.27-4.896 1.341-9.787 4.857-13.52-.126.119-.262.221-.386.344-3.542 3.542-5.274 8.225-5.247 12.972-4.747-.027-9.43 1.706-12.972 5.248-3.777 3.777-5.491 8.851-5.212 13.917-2.592.853-5.017 2.275-7.057 4.315-7.244 7.244-6.973 19.261.606 26.84 3.52 3.52 175.491 175.49 179.011 179.011 7.579 7.579 19.596 7.85 26.84.606 2.04-2.04 3.463-4.465 4.315-7.057 5.066.279 10.14-1.435 13.917-5.212 3.542-3.542 5.274-8.225 5.248-12.972 4.747.027 9.43-1.706 12.971-5.248.123-.123.225-.26.344-.385-3.733 3.515-8.624 5.126-13.52 4.856z" fill="#e3edf6"/><path d="m311.098 425.149c8.248-15.172-2.843-34.868-20.309-34.655-2.214 3.769-4.442 6.507-7.676 9.741-5.28 5.28-11.411 9.182-17.945 11.742-2.559 6.54-6.47 12.674-11.754 17.958-5.548 5.548-12.033 9.581-18.942 12.125-2.545 6.909-6.577 13.394-12.125 18.942-5.517 5.517-11.961 9.535-18.827 12.082l.884 6.438c2.329 16.291 20.102 25.352 34.654 17.667 11.454 11.837 31.196 8.72 38.446-6.07l.05.009c16.214 2.799 30.307-11.325 27.474-27.532 14.789-7.251 17.906-26.993 6.07-38.447z" fill="#00c278"/><path d="m283.112 325.49-30.196 30.196 10.711 56.364c7.114-2.53 13.791-6.643 19.485-12.337 20.497-20.495 20.497-53.726 0-74.223z" fill="#fee95d"/><circle cx="216.301" cy="392.302" fill="#f05475" r="52.484"/><path d="m253.413 429.413c2.081-2.081 3.94-4.3 5.599-6.617-.144-18.694-7.336-37.343-21.6-51.606s-32.912-21.455-51.606-21.6c-2.318 1.659-4.536 3.518-6.617 5.599-20.496 20.496-20.496 53.727 0 74.224 20.497 20.497 53.727 20.497 74.224 0z" fill="#e21743"/><circle cx="185.233" cy="423.369" fill="#f05475" r="52.484"/><path d="m164.659 443.944c-17.653-17.653-20.087-44.745-7.333-65.019-3.266 2.055-6.361 4.489-9.205 7.332-20.496 20.496-20.496 53.727 0 74.224 20.496 20.496 53.727 20.496 74.224 0 2.844-2.844 5.278-5.939 7.332-9.205-20.273 12.755-47.366 10.321-65.018-7.332z" fill="#e21743"/><circle cx="185.233" cy="423.369" fill="#fee95d" r="22.176"/><path d="m185.196 423.406c-5.808-5.808-7.701-14.033-5.718-21.435-3.635.974-7.074 2.866-9.925 5.718-8.66 8.66-8.66 22.701 0 31.361s22.701 8.66 31.361 0c2.852-2.852 4.745-6.291 5.718-9.925-7.403 1.982-15.627.09-21.436-5.719z" fill="#e7c900"/><path d="m143.894 197.429c3.16-5.46 4.977-11.794 4.977-18.557 0-20.497-16.616-37.113-37.113-37.113s-37.113 16.616-37.113 37.113c0 6.762 1.818 13.097 4.977 18.557-3.16 5.46-4.977 11.794-4.977 18.557 0 6.762 1.818 13.097 4.977 18.557-3.16 5.46-4.977 11.794-4.977 18.557s1.818 13.097 4.977 18.557c-3.16 5.46-4.977 11.794-4.977 18.557s1.818 13.097 4.977 18.557c-3.16 5.46-4.977 11.794-4.977 18.557 0 20.497 16.616 37.113 37.113 37.113s37.113-16.616 37.113-37.113c0-6.762-1.818-13.096-4.977-18.557 3.16-5.46 4.977-11.794 4.977-18.557s-1.818-13.096-4.977-18.557c3.16-5.46 4.977-11.794 4.977-18.557s-1.818-13.096-4.977-18.557c3.16-5.46 4.977-11.794 4.977-18.557 0-6.762-1.818-13.096-4.977-18.557z" fill="#fcad42"/><path d="m104.258 327.326s0-141.691 0-148.453c0-15.287 8.966-28.41 22.168-34.097-4.5-1.938-9.457-3.017-14.668-3.017-20.497 0-37.113 16.616-37.113 37.113v148.453c0 20.497 16.616 37.113 37.113 37.113 5.21 0 10.168-1.078 14.668-3.017-13.202-5.685-22.168-18.808-22.168-34.095z" fill="#e68b00"/><path d="m125.802 141.759h-14.045v-14.045c0-16.186 13.121-29.307 29.307-29.307h14.045v14.045c0 16.186-13.121 29.307-29.307 29.307z" fill="#f05475"/><path d="m97.713 141.759h14.045v-14.045c0-16.186-13.121-29.307-29.307-29.307h-14.044v14.045c0 16.186 13.121 29.307 29.306 29.307z" fill="#e21743"/><g><path d="m104.258 165.778h15v14.875h-15z" fill="#fff"/></g><g><path d="m104.258 195.902h15v14.876h-15z" fill="#fff"/></g><path d="m260.93 474.74c-14.801 0-28.495-4.706-39.701-12.681-5.265 4.968-11.299 8.647-17.711 11.026.612 6.532 2.036 14.313 6.671 18.903 4.338 3.074 9.045 5.655 14.047 7.665 4.843.778 10.007.078 14.82-2.464 11.133 11.711 31.47 8.537 38.446-6.07 16.069 2.906 30.427-11.46 27.524-27.524 7.854-3.872 12.322-10.852 12.778-19.115-12.318 18.255-33.194 30.26-56.874 30.26z" fill="#00a666"/></g></g><g><path d="m512 188.834c0-50.441-19.646-97.863-55.319-133.531-5.39-5.389-11.143-10.492-17.099-15.167l-9.274 11.812c5.485 4.305 10.785 9.006 15.753 13.973 32.836 32.831 50.92 76.482 50.92 122.912s-18.084 90.081-50.92 122.912l-61.864 61.855-35.939-35.933-10.62 10.619 35.939 35.933-49.172 49.165c-.974-3.453-2.566-6.737-4.808-9.651.976-2.744 1.49-5.561 1.596-8.372l31.144-31.14-107.002-106.986-164.332 164.307c25.005 22.045 55.763 36.546 89.052 40.142 10.978 1.668 20.721 1.45 26.743.704 1.378 5.425 3.951 10.319 7.413 14.318-51.233 3.437-102.051-13.943-138.361-50.633-69.515-69.231-67.261-183.188 4.285-250.108.178.4-4.997 7.118-3.179 25.153-23.61 27.761-36.977 62.939-37.724 99.526-.999 40.734 14.282 80.003 41.151 110.278l164.332-164.307-79.486-79.473c1.542-7.839.759-15.804-1.869-23.106l171.983 171.956 10.62-10.619-185.955-185.926c10.408-9.146 13.026-21.703 12.193-35.534l37.998-37.992c57.693-57.684 149.155-67.36 217.475-23.005l8.18-12.595c-35.729-23.195-78.884-33.636-121.515-29.397-43.23 4.297-83.987 23.61-114.761 54.379l-35.225 35.219h-13.725c-11.962 0-22.608 5.732-29.345 14.588-6.737-8.857-17.382-14.588-29.345-14.588h-21.572v21.569c0 14.714 8.673 27.436 21.173 33.337-9.084 8.387-14.759 20.411-14.984 32.878l-11.325 11.324c-73.64 73.629-73.64 193.432 0 267.061 35.477 35.472 83.686 55.31 133.63 55.308h67.008c9.971.053 19.65-4.959 25.38-12.972 16.797.452 31.871-14.618 31.419-31.414 3.921-2.692 6.996-6.312 9.161-10.418l134.853-134.832c35.673-35.666 55.319-83.088 55.319-133.529zm-444.845 57.196c-1.316 8.586-.152 17.568 3.508 25.447-5.382 11.589-5.383 25.568 0 37.156-13.342 27.671 7.373 61.66 37.583 63.196l-36.591 36.585c-34.805-47.909-36.058-113.188-4.5-162.384zm20.628-11.709c-8.153-11.993-8.157-25.157 0-37.156-14.556-19.766-1.46-48.131 23.501-48.226 24.948.087 38.063 28.459 23.501 48.226 8.153 11.993 8.157 25.157 0 37.156 8.153 11.993 8.157 25.158 0 37.156 8.153 11.993 8.157 25.158 0 37.156 14.882 19.928.639 48.416-23.5 48.225-24.953-.088-38.06-28.459-23.501-48.225-8.153-11.993-8.157-25.157 0-37.156-8.155-11.993-8.159-25.157-.001-37.156zm68.149 89.828c-.319-5.225-1.598-10.475-4.028-15.516 5.383-11.588 5.382-25.567 0-37.156 5.383-11.588 5.382-25.567 0-37.156 3.711-7.99 4.862-17.116 3.455-25.811l58.115 58.106zm-15.304-218.61h6.553v6.552c0 12.038-9.795 21.832-21.835 21.832h-6.553v-6.552c0-12.038 9.795-21.832 21.835-21.832zm-65.242 0h6.553c12.04 0 21.835 9.793 21.835 21.832v6.552h-6.553c-12.04 0-21.835-9.793-21.835-21.832zm255.711 278.681-14.231 14.229c-3.504-6.066-8.92-11.03-15.486-13.642 3.227-8.317 4.603-17.312 4.034-26.266zm-103.772-3.318c-13.184-13.453-30.057-18.634-46.292-17.345 16.247-18.94 47.859-21.842 66.281-2.644 19.318 18.578 16.251 50.098-2.714 66.32 1.356-16.276-3.769-33.182-17.275-46.331zm35.669-25.047 19.424-19.42c13.863 18.447 9.447 45.507-7.203 60.22 1.056-14.288-2.779-28.944-12.221-40.8zm9.247-30.482-19.863 19.86c-12.062-9.599-27.103-13.395-41.7-12.108l34.658-34.652zm-147.325 93.5c-1.191 13.982 2.762 27.969 11.022 39.101-11.488-4.456-22.382-10.386-32.426-17.701zm14.896 4.491c-.502-24.208 20.832-45.536 45.043-45.036 39.283-.831 60.206 49.621 31.85 76.88-27.262 28.362-77.722 7.426-76.893-31.844zm156.623 35.985c4.845 17.085-6.346 28.223-23.473 23.491-6.091 16.611-21.834 19.066-32.738 5.131-11.253 8.348-27.139 4.549-28.88-10.483 12.541-6.261 22.196-16.961 27.845-29.481 14.44-5.939 24.968-17.23 30.834-30.547 10.109-4.421 18.146-11.134 24.003-19.17 12.86 3.495 15.218 17.838 7.582 28.306 13.951 10.92 11.479 26.655-5.173 32.753z"/><path d="m459.96 117.844c.35-11.016-7.167-22.133-17.642-25.976-1.731-11.171-11.372-20.798-22.501-22.505-3.854-10.473-14.941-17.964-25.976-17.628-5.99-9.289-17.794-14.141-28.208-11.815-7.947-7.896-19.718-10.04-29.412-5.932-9.105-6.062-20.953-6.112-29.726-.055-9.953-4.176-21.576-2.027-29.049 5.907-10.539-2.217-21.939 2.492-27.377 11.857-10.902-.302-21.389 7.147-24.599 17.623-9.556 1.621-17.765 9.219-20.06 18.625-9.719 2.369-17.42 10.996-18.77 20.932-19.806 10.876-14.674 42.485 6.925 48.316 2.522 8.58 9.742 15.799 18.324 18.321 2.521 8.579 9.743 15.799 18.324 18.32 2.521 8.58 9.742 15.8 18.323 18.321 2.112 7.886 9.839 16.026 17.424 17.517 1.379 6.995 9.054 14.723 16.003 16.051 1.547 7.536 9.663 15.31 17.553 17.405 2.521 8.579 9.743 15.8 18.324 18.32 2.521 8.58 9.742 15.8 18.323 18.321 2.522 8.579 9.742 15.799 18.324 18.32 3.131 11.251 14.884 19.811 26.184 19.502 8.689.135 17.704-4.733 22.14-12.579 9.936-1.351 18.565-9.05 20.935-18.768 9.407-2.295 17.006-10.502 18.628-20.057 10.475-3.205 17.935-13.707 17.626-24.596 9.366-5.436 14.075-16.832 11.859-27.372 7.934-7.47 10.085-19.089 5.91-29.039 6.112-8.541 5.921-21.074-.055-29.731 4.103-9.691 1.96-21.459-5.935-29.402 2.324-10.411-2.528-22.213-11.819-28.203zm-6.62 110.347c7.465 13.617 4.762 20.503-10.575 23.574 1.534 5.456 4.151 13.281-.85 17.61-4.29 4.266-9.856 2.812-14.781 3.398 2.277 15.598-1.72 20.405-17.627 19.236 1.021 13.62-2.234 19.887-16.971 17.942 0 0-1.799 5.468-1.799 5.467-2.494 7.88-12.904 9.529-18.752 3.495-3.9-3.388-3.754-9.531-4.112-14.208-13.45.015-18.34-4.855-18.324-18.322-13.448.017-18.34-4.855-18.323-18.32-13.447.016-18.342-4.853-18.323-18.32-13.771-.493-17.176-3.262-17.37-17.468-13.524-.146-15.734-2.548-16.443-16.235-14.175-.194-16.615-3.656-17.167-17.27-13.448.017-18.34-4.855-18.323-18.32-13.448.016-18.341-4.853-18.324-18.32-13.448.015-18.34-4.855-18.324-18.321-4.663-.344-10.834-.22-14.211-4.111-6.035-5.848-4.386-16.255 3.495-18.749l5.469-1.799c-1.29-8.001.543-16.834 10.283-17.012.091.001 7.559.043 7.661.044-1.163-15.875 3.607-19.909 19.238-17.624.576-4.898-.86-10.511 3.401-14.78 4.339-5.002 12.14-2.38 17.612-.849 3.068-15.306 9.931-18.052 23.575-10.574 6.23-13.807 13.597-14.763 25.207-5.278 8.911-11.979 16.405-11.341 25.93-.017 11.04-9.897 18.731-7.594 25.743 5.21 12.99-7.616 20.423-3.638 24.6 10.506 14.811-5.137 21.644.455 22.485 15.771 5.727-.575 13.089-1.539 17.141 3.736 4.147 4.096 2.965 10.824 2.561 15.964 15.294.839 20.92 7.647 15.775 22.481 14.124 4.171 18.136 11.589 10.508 24.596 12.784 7.002 15.126 14.682 5.211 25.739 11.158 9.33 12.097 16.985-.017 25.926 9.467 11.585 8.555 18.969-5.279 25.202z"/><path d="m185.093 393.655c-26.277-.469-40.005 32.333-21.25 50.716 5.612 5.611 13.075 8.702 21.011 8.702 39.266-1.513 39.485-57.592.239-59.418zm-10.63 40.098c-9.268-8.82-2.404-25.398 10.391-25.081 7.898-.164 14.858 6.796 14.694 14.692.317 12.791-16.26 19.656-25.085 10.389z"/><path d="m320.032 78.942h21.24v15.017h-21.24z"/><path d="m351.894 110.799h21.24v15.017h-21.24z"/><path d="m383.755 142.655h21.24v15.017h-21.24z"/><path d="m415.616 174.511h21.24v15.017h-21.24z"/><path d="m256.31 142.655h21.24v15.017h-21.24z"/><path d="m288.171 174.511h21.24v15.017h-21.24z"/><path d="m320.032 206.367h21.24v15.017h-21.24z"/><path d="m351.894 238.224h21.24v15.017h-21.24z"/><path d="m402.796 219.185h15.02v21.238h-15.02z"/><path d="m274.809 91.218h15.02v21.238h-15.02z"/><path d="m370.934 187.328h15.02v21.238h-15.02z"/><path d="m339.073 155.472h15.02v21.238h-15.02z"/><path d="m307.212 123.616h15.02v21.237h-15.02z"/></g></g><g/><g/><g/><g/><g/><g/><g/><g/><g/><g/><g/><g/><g/><g/><g/></svg>