<svg id="Capa_1" enable-background="new 0 0 512 512" viewBox="0 0 512 512" xmlns="http://www.w3.org/2000/svg"><g><g><g><g><path d="m323.5 436.846v-398.192h-270v398.192c0 37.279 30.221 67.5 67.5 67.5h270c-37.279 0-67.5-30.221-67.5-67.5z" fill="#fff"/></g><g><path d="m340.701 481.846h-219.701c-24.813 0-45-20.187-45-45v-398.192h-22.5v398.192c0 37.279 30.221 67.5 67.5 67.5h270c-19.988 0-37.939-8.695-50.299-22.5z" fill="#e3edf6"/></g><g><path d="m323.5 300.846v136c0 37.279 30.221 67.5 67.5 67.5s67.5-30.221 67.5-67.5v-136z" fill="#a8c6e2"/></g><g><path d="m344.968 434.846v-134h-21.468v136c0 37.279 30.221 67.5 67.5 67.5 5.874 0 11.571-.753 17.004-2.163-35.196-2.301-63.036-31.56-63.036-67.337z" fill="#8bb2d8"/></g><g><path d="m173.5 7.654h30v61h-30z" fill="#f05475"/></g><g><path d="m173.5 46.547h30v22.107h-30z" fill="#e21743"/></g><g><path d="m145.638 150.164c8.787 8.787 8.787 23.033 0 31.82s-23.033 8.787-31.82 0c-15.91-15.91-19.393-33.64-10.607-42.426 8.788-8.787 26.518-5.304 42.427 10.606z" fill="#ffdaaa"/></g><g><path d="m129.553 166.25c-10.727-10.727-15.796-22.276-15.273-31.359-4.389.253-8.205 1.804-11.067 4.667-8.787 8.787-5.303 26.516 10.607 42.426 8.787 8.787 23.033 8.787 31.82 0 2.865-2.865 4.778-6.313 5.775-9.959-7.541 2.061-15.94.147-21.862-5.775z" fill="#ffb680"/></g><g><path d="m168.73 301.974c-8.787 8.787-23.033 8.787-31.82 0l-31.82-31.82c-8.787-8.787-8.787-23.033 0-31.82s23.033-8.787 31.82 0l31.82 31.82c8.787 8.787 8.787 23.033 0 31.82z" fill="#eb975d"/></g><g><path d="m152.82 286.064-31.82-31.82c-5.863-5.863-7.682-14.26-5.721-21.74-3.731.978-7.264 2.906-10.188 5.831-8.787 8.787-8.787 23.033 0 31.82l31.82 31.82c8.787 8.787 23.033 8.787 31.82 0 2.924-2.924 4.853-6.457 5.831-10.188-7.482 1.959-15.88.139-21.742-5.723z" fill="#b25e1e"/></g><g><ellipse cx="130.985" cy="382.798" fill="#f05475" rx="33.726" ry="28.843" transform="matrix(.707 -.707 .707 .707 -232.314 204.74)"/></g><g><path d="m123.095 390.688c-8.87-8.87-9.791-23.037-3.353-35.09-3.253 1.738-6.353 4.006-9.152 6.805-13.171 13.171-14.716 32.979-3.452 44.243s31.072 9.718 44.243-3.452c2.799-2.799 5.068-5.9 6.805-9.152-12.054 6.437-26.221 5.516-35.091-3.354z" fill="#e21743"/></g></g></g><g><path d="m421.116 293.368v15.009h29.884v128.578c0 33.104-26.916 60.036-60 60.036s-60-26.932-60-60.036v-128.578h74.883v-15.009h-74.883v-262.349h-120v-31.019h-45v31.019h-120v89.745h15v-74.736h105v30.018h45v-30.018h105v390.927c-.154 23.311 11.368 46.149 30.047 60.036h-225.047c-33.084 0-60-26.932-60-60.036v-301.182h-15v301.182c0 41.38 33.645 75.045 75 75.045h270c41.355 0 75-33.665 75-75.045v-143.587zm-225.116-232.331h-15v-46.028h15z"/><path d="m108.516 187.246c11.696 11.704 30.729 11.703 42.426 0 32.018-32.842-30.062-77.11-53.034-53.065-12.291 12.299-7.83 34.617 10.608 53.065zm-.001-42.452c8.773-6.58 21.064.391 31.82 10.613 5.848 5.853 5.848 15.375 0 21.227-19.352 18.081-41.872-24.143-31.82-31.84z"/><path d="m203.5 143.523h45v15.009h-45z"/><path d="m203.5 173.541h82.616v15.009h-82.616z"/><path d="m203.5 248.586h45v15.009h-45z"/><path d="m203.5 278.604h82.616v15.009h-82.616z"/><path d="m203.5 353.649h45v15.009h-45z"/><path d="m203.5 383.667h82.616v15.009h-82.616z"/><path d="m99.787 275.469 31.82 31.839c11.166 11.644 31.26 11.647 42.426 0 11.636-11.174 11.64-31.277 0-42.452 0 0-31.819-31.839-31.819-31.839-29.077-27.107-69.547 13.42-42.427 42.452zm10.607-31.839c5.848-5.852 15.365-5.852 21.213 0l-10.607 10.613 10.606 10.613 10.607-10.613 10.607 10.613-10.606 10.613 10.606 10.613 10.606-10.613c13.673 14.067-7.071 35.047-21.213 21.226l-31.82-31.839c-5.817-5.586-5.82-15.64.001-21.226z"/><path d="m101.834 412.043c24.021 23.75 66.334.522 67.912-31.028 2.572-32.936-33.995-47.443-58.729-28.734l-10.139-10.145-10.606 10.614 10.146 10.151c-11.344 15.764-11.157 36.56 1.416 49.142zm32.176-52.99c12.184-1.256 22.06 8.408 20.782 20.795-.764 19.72-28.388 35.766-42.352 21.581-14.169-13.977 1.856-41.609 21.57-42.376z"/><path d="m76 60.728h15v15.009h-15z"/><path d="m106 60.728h15v15.009h-15z"/></g></g><g/><g/><g/><g/><g/><g/><g/><g/><g/><g/><g/><g/><g/><g/><g/></svg>