<svg id="Capa_1" enable-background="new 0 0 512 512" viewBox="0 0 512 512" xmlns="http://www.w3.org/2000/svg"><g><g><g><g><path d="m94.946 53.098h-72.831c-8.284 0-15 6.716-15 15s6.716 15 15 15h48.055l48.722 227.368 30.724-2.368z" fill="#e21743"/></g><g><path d="m305.291 30.599 5.838 67.543h95.256v-67.543z" fill="#f05475"/></g><g><path d="m345.103 77.206c1.893-5.286 2.89-10.892 2.89-16.556 0-11.197-3.794-21.665-10.275-30.051h-32.427l5.838 67.543h95.255v-20.936z" fill="#e21743"/></g><g><path d="m320.439 78.345c-.258-.356-.524-.705-.798-1.047 3.658-4.561 5.852-10.347 5.852-16.649 0-12.418-8.499-22.851-19.997-25.801.009-.277.021-.554.021-.834 0-14.71-11.925-26.635-26.635-26.635s-26.635 11.925-26.635 26.635c0 .328.013.652.025.977-11.239 3.123-19.491 13.424-19.491 25.658l15.03 37.492 77.683-.001-.249-5.481c-.234-5.126-1.795-10.158-4.806-14.314z" fill="#00c278"/></g><g><path d="m325.493 98.141c-.031-7.259-.954-15.141-5.852-20.842.02-.024.036-.051.056-.076l-43.769.001c-1.619-10.19-6.395-19.632-13.767-27.006l-.002-.001c-4.028-4.028-8.726-7.305-13.836-9.708-.515-1.094-1.078-2.165-1.671-3.219-4.469 2.446-8.152 6.139-10.601 10.603l-.007-.016c-2.119 3.908-3.265 8.324-3.265 12.774l15.03 37.492z" fill="#00a666"/></g><g><path d="m246.25 66.128c-4.456-4.456-10.098-6.997-15.91-7.635-.638-5.812-3.179-11.454-7.635-15.91-8.781-8.781-22.168-10.149-32.384-4.104-.19-.202-.377-.407-.575-.605-10.402-10.402-27.266-10.402-37.668 0s-10.402 27.266 0 37.668c.232.232.47.452.708.673-3.802 6.729-4.45 14.758-1.938 21.927h103.169v-14.506c-.315-6.368-2.904-12.645-7.767-17.508z" fill="#c3f839"/></g><g><path d="m253.041 77.781h-71.199l-8.375-8.076c-11.517-10.556-11.279-29.176.479-39.452-24.934-3.241-40.047 28.823-21.16 45.963-3.401 5.469-4.252 15.321-1.938 21.927h103.169c-.252-6.17.758-14.37-.976-20.362z" fill="#abe700"/></g><g><path d="m458.885 308.098h-308.269l-45-210h398.269z" fill="#a8c6e2"/></g><g><path d="m167.738 285.976-40.259-187.878h-21.864l45 210h308.27l4.74-22.122z" fill="#8bb2d8"/></g><g><path d="m267.25 98.141h75v127.447h-75z" fill="#57758d"/></g><g><path d="m297.25 150.598h45v30h-45z" fill="#fee95d"/></g><g><path d="m289.752 203.086v-104.945h-22.502v127.447h75v-22.502z" fill="#4b6276"/></g><g><path d="m136.667 398.663c-16.725 0-30.282-13.558-30.282-30.282s13.558-30.282 30.282-30.282h224.718v-30h-224.718c-33.293 0-60.282 26.989-60.282 60.282s26.989 60.282 60.282 60.282h329.718v-30z" fill="#e21743"/></g><g><circle cx="421.385" cy="481.641" fill="#57758d" r="22.979"/></g><g><circle cx="166.385" cy="481.641" fill="#57758d" r="22.979"/></g><g><path d="m478.337 54.573-11.952-11.953h-30l-11.953 11.953c-11.555 11.555-18.047 27.228-18.047 43.569h90c0-16.342-6.492-32.014-18.048-43.569z" fill="#fff"/></g><g><path d="m410.35 76.44c-2.588 6.874-3.966 14.215-3.966 21.702h90c0-7.487-1.378-14.828-3.966-21.702z" fill="#e3edf6"/></g><g><path d="m436.385 7.96h30v34.659h-30z" fill="#8ad8f6"/></g><g><path d="m151.544 135.599h15v15h-15z" fill="#fff"/></g><g><path d="m181.863 135.599h15v15h-15z" fill="#fff"/></g></g></g><g><path d="m113.148 368.24c0-12.564 10.209-22.785 22.758-22.785h231.97v-30.005h95.961l48.163-225.033h-9.685c-1.682-15.61-8.558-30.074-19.805-41.335l-9.745-9.758v-39.324h-44.952v39.325c-3.747 3.848-11.831 11.471-14.984 15.65v-32.067h-102.536c-10.544-32.641-61.059-30.366-66.152 6.604-5.532 2.582-10.182 6.6-13.585 11.501-8.908-11.901-25.715-17.493-39.778-11.651-31.659-23.645-71.504 16.485-47.632 48.055-1.521 4.17-2.208 8.587-2.042 13h-30.182l-9.637-45.006h-78.809c-12.393 0-22.476 10.095-22.476 22.503s10.083 22.503 22.476 22.503h41.946l19.602 91.585 14.651-3.143-22.139-103.444h-54.06c-4.131 0-7.492-3.365-7.492-7.501s3.361-7.501 7.492-7.501h66.696l51.4 240.035c-5.116-.061-10.728.019-15.678.911l-23.007-107.497-14.652 3.143 23.209 108.436c-24.749 10.097-42.247 34.434-42.247 62.799 0 37.381 30.375 67.792 67.71 67.792h22.193v15.939c-13.177 3.351-22.954 15.326-22.954 29.547 0 16.809 13.658 30.483 30.446 30.483s30.446-13.675 30.446-30.483c0-14.221-9.777-26.196-22.954-29.547v-15.939h187.3v-15.002h-224.478c-29.074 0-52.726-23.682-52.726-52.79s23.653-52.79 52.726-52.79h216.986v15.002h-216.986c-20.811 0-37.742 16.952-37.742 37.788s16.931 37.788 37.742 37.788h321.874v15.002h-82.412v15.002h37.46v15.939c-13.177 3.351-22.954 15.326-22.954 29.547 0 16.809 13.658 30.483 30.446 30.483s30.446-13.675 30.446-30.483c0-14.221-9.777-26.196-22.954-29.547v-15.939h44.952v-45.006h-336.858c-12.549-.001-22.758-10.223-22.758-22.786zm67.906 113.277c0 8.536-6.936 15.481-15.462 15.481s-15.462-6.945-15.462-15.481c0-5.815 3.222-10.886 7.97-13.532v13.532h14.984v-13.532c4.748 2.646 7.97 7.717 7.97 13.532zm152.724-338.592h-44.952v45.006h44.952v29.994h-59.936v-112.463h59.936zm0 30.004h-29.968v-15.002h29.968zm-2.171-82.512c-.524-4.725-1.647-9.399-3.932-13.285 1.666-2.828 2.817-5.845 3.515-8.941h66.654v22.226zm126.173-75.148v15.576h-14.984v-15.576zm-29.119 44.421 13.828-13.843h15.599l13.827 13.843c8.412 8.423 13.709 19.132 15.316 30.727h-73.884c1.606-11.595 6.903-22.304 15.314-30.727zm-30.817-6.501h-66.704c-1.259-5.615-3.867-10.921-7.589-15.279h74.293zm-138.757-12.743-.218-6.041c-.364-10.746 8.366-19.737 19.1-19.717 10.656-.012 19.332 8.822 19.106 19.494l-.178 6.255c11.148 1.924 19.857 7.772 20.141 20.028.329 6.497-3.947 11.992-7.959 16.653 4.656 5.365 6.636 8.434 7.447 13.299h-55.902s-.009-7.335-.009-7.334c-.463-12.614-8.609-24.254-19.97-29.411 2.751-7.517 9.837-11.562 18.442-13.226zm-97.705 34.07c-27.465-20.892 5.822-54.234 26.777-26.714 9.246-6.534 19.535-8.572 28.395-.103 4.82 4.362 5.678 11.272 6.133 17.408 0 0 5.974.657 5.974.657 9.058.835 16.587 8.81 16.98 17.892v6.762h-30.717l-28.126-28.16-10.596 10.608 17.531 17.552h-37.664c-.3-5.632 2.28-10.988 5.313-15.902zm-5.485 225.932-41.741-195.028h144.702v127.508h89.904v-127.508h144.694l-41.732 195.028zm279.885 181.069c0 8.536-6.936 15.481-15.462 15.481s-15.462-6.945-15.462-15.481c0-5.815 3.222-10.886 7.97-13.532v13.532h14.984v-13.532c4.748 2.646 7.97 7.717 7.97 13.532z"/></g></g><g/><g/><g/><g/><g/><g/><g/><g/><g/><g/><g/><g/><g/><g/><g/></svg>