<svg id="Capa_1" enable-background="new 0 0 512 512" viewBox="0 0 512 512" xmlns="http://www.w3.org/2000/svg"><g><g><g><g><path d="m61.506 428.207h276.943v37.793h-276.943z" fill="#c5d9ec"/></g><g><path d="m309.408 46.787h-212.607c-48.739 0-88.25 39.511-88.25 88.25v30.963h389.106v-30.963c.001-48.739-39.51-88.25-88.249-88.25z" fill="#57758d"/></g><g><path d="m121.147 46.787c0 24.418 19.795 44.213 44.213 44.213h76.383c24.418 0 44.213-19.795 44.213-44.213z" fill="#a8c6e2"/></g><g><path d="m260.892 84.526h-76.383c-22.218 0-40.603-16.39-43.736-37.739h-19.625c-.001 24.418 19.794 44.213 44.212 44.213h76.383c8.578 0 16.581-2.451 23.36-6.679-1.387.131-2.79.205-4.211.205z" fill="#8bb2d8"/></g><g><path d="m30.019 143.5v-30.931c0-18.63 5.778-35.908 15.632-50.15-23.018 15.926-38.1 42.509-38.1 72.618v30.963h389.106v-22.5z" fill="#4b6276"/></g><g><path d="m8.551 196v151.644c0 48.739 39.511 88.25 88.25 88.25h212.606c48.739 0 88.25-39.511 88.25-88.25v-151.644z" fill="#57758d"/></g><g><path d="m350.046 414.362h-250.819c-38.187 0-69.144-30.957-69.144-69.144v-149.218h-22.532v151.644c0 48.739 39.511 88.25 88.25 88.25h212.606c23.531 0 44.91-9.212 60.731-24.224-6.066 1.74-12.466 2.692-19.092 2.692z" fill="#4b6276"/></g><g><path d="m8.551 166h389.106v30h-389.106z" fill="#e3edf6"/></g><g><path d="m8.551 166h22.468v30h-22.468z" fill="#c5d9ec"/></g><g><path d="m128.654 301h149.794v134.894h-149.794z" fill="#e3edf6"/></g><g><path d="m149.934 413.621v-112.621h-23.28v134.894h149.794v-22.273z" fill="#c5d9ec"/></g><g><path d="m446.886 300.288c-.85-18.009-21.343-27.891-35.964-17.341-8.559-15.93-31.433-15.929-39.992 0-14.621-10.55-35.115-.668-35.964 17.342-17.782-3.236-32.038 14.088-24.943 30.711l112.774 15 49.033-15c7.094-16.623-7.163-33.948-24.944-30.712z" fill="#fff"/></g><g><path d="m312.422 309.17c-4.326 5.929-5.76 13.956-2.399 21.83h161.807c3.361-7.873 1.926-15.901-2.399-21.83l-14.284-8.892-15.339 8.892h-97.851l-11.202-8.892z" fill="#e3edf6"/></g><g><path d="m233.456 361h-60c-8.284 0-15-6.716-15-15s6.716-15 15-15h60c8.284 0 15 6.716 15 15s-6.716 15-15 15z" fill="#fee95d"/></g><g><path d="m177.988 346c0-8.284 6.716-15 15-15h-19.532c-8.284 0-15 6.716-15 15s6.716 15 15 15h19.532c-8.285 0-15-6.716-15-15z" fill="#e7c900"/></g><g><path d="m45.956 128.5h15v15h-15z" fill="#fff"/></g><g><path d="m76.498 128.5h15v15h-15z" fill="#fff"/></g><g><path d="m338.448 431.596h105v34.404h-105z" fill="#e21743"/></g><g><path d="m278.448 331v15.883c0 49.582 40.195 89.777 89.777 89.777h45.447c49.582 0 89.776-40.194 89.776-89.777v-15.883z" fill="#f05475"/></g><g><path d="m480.441 406.892c-9.127 4.637-19.438 7.268-30.357 7.268h-81.858c-37.097 0-67.276-30.18-67.276-67.277v-15.883h-22.5v15.883c0 49.582 40.195 89.777 89.777 89.777h45.447c26.509 0 50.333-11.495 66.767-29.768z" fill="#e21743"/></g></g></g><g><path d="m172.439 368.5h62.012c12.409 0 22.505-10.093 22.505-22.5s-10.096-22.5-22.505-22.5h-62.012c-12.409 0-22.505 10.093-22.505 22.5s10.096 22.5 22.505 22.5zm0-30h62.012c4.137 0 7.502 3.364 7.502 7.5s-3.365 7.5-7.502 7.5h-62.012c-4.137 0-7.501-3.364-7.501-7.5s3.364-7.5 7.501-7.5z"/><path d="m149.934 383.5h107.021v15h-107.021z"/><path d="m482.307 323.5c.274-15.371-12.148-30.441-28.159-31.037-4.338-16.23-24.549-25.974-39.951-19.255-2.023-2.369-4.444-4.298-7.115-5.792v-131.884c0-53.503-43.537-97.032-97.052-97.032h-212.978c-53.515 0-97.052 43.528-97.052 97.032v90.468h15.003v-22.5h377.076v60.091c-8.426-.032-16.867 3.171-22.37 9.617-15.406-6.716-35.613 3.024-39.952 19.256-16.008.596-28.432 15.665-28.158 31.036h-14.643v-30h-166.829v135h-23.075c-45.241 0-82.049-36.799-82.049-82.032v-105.468h-15.003v105.468c0 37.643 21.551 70.347 52.965 86.43v40.602h399.023v-36.771c35.2-14.656 60.012-49.406 60.012-89.846v-23.383zm-203.473-270c-3.165 17.047-18.141 30-36.094 30h-78.399c-17.953 0-32.929-12.953-36.094-30zm-181.782 0h16.017c3.304 25.353 25.029 45 51.273 45h78.399c26.244 0 47.969-19.647 51.273-45h16.017c45.241 0 82.049 36.799 82.049 82.032v22.968h-377.077v-22.968c0-45.233 36.807-82.032 82.049-82.032zm-82.049 135v-15h377.076v15zm120.127 120h136.822v120h-136.822zm151.825 90.222c7.538 11.92 17.593 22.096 29.414 29.778h-29.414zm-218.987 59.778v-19.453c9.186 2.891 18.956 4.453 29.084 4.453h234.912v15zm369.017 0h-90.018v-16.917c7.158 1.683 14.617 2.577 22.281 2.577h45.455c7.665 0 15.124-.894 22.282-2.577zm60.012-111.617c0 45.368-36.917 82.277-82.294 82.277h-45.455c-45.376 0-82.293-36.909-82.293-82.277v-8.383h126.887v-15h-97.192c-.48-9.176 8.315-17.959 17.988-15.832l8.432 1.534c.262-8.64-.099-17.21 8.99-21.538 8.974-4.418 15.567 1.211 22.448 6.375 3.971-7.702 7.344-15.583 17.445-15.539 10.107-.039 13.465 7.824 17.445 15.539 6.866-5.157 13.481-10.793 22.447-6.375 9.092 4.336 8.725 12.882 8.99 21.537 0 0 8.432-1.534 8.432-1.534 9.671-2.129 18.469 6.654 17.989 15.832h-38.091v15h67.833v8.384z"/></g></g><g/><g/><g/><g/><g/><g/><g/><g/><g/><g/><g/><g/><g/><g/><g/></svg>