<svg id="Capa_1" enable-background="new 0 0 512 512" viewBox="0 0 512 512" xmlns="http://www.w3.org/2000/svg"><g><g><g><g><path d="m451.66 504.5h-391.32c-12.062 0-21.84-9.778-21.84-21.84v-39.16h435v39.16c0 12.062-9.778 21.84-21.84 21.84z" fill="#f05475"/></g><g><path d="m61.011 481.5v-38h-22.511v39.16c0 12.062 9.778 21.84 21.84 21.84h391.32c12.062 0 21.84-9.778 21.84-21.84v-1.16z" fill="#e21743"/></g><g><path d="m38.5 7.5h435v436h-435z" fill="#57758d"/></g><g><path d="m61.096 421.282v-413.782h-22.596v436h435v-22.218z" fill="#4b6276"/></g><g><circle cx="353.447" cy="128.511" fill="#a8c6e2" r="75"/></g><g><path d="m369.532 187.426c-41.421 0-75-33.579-75-75 0-16.607 5.407-31.945 14.543-44.372-18.569 13.652-30.628 35.642-30.628 60.457 0 41.421 33.579 75 75 75 24.815 0 46.805-12.059 60.457-30.628-12.427 9.136-27.766 14.543-44.372 14.543z" fill="#8bb2d8"/></g><g><circle cx="353.447" cy="128.511" fill="#fcad42" r="45"/></g><g><path d="m369.293 157.665c-24.853 0-45-20.147-45-45 0-8.361 2.288-16.185 6.261-22.893-13.231 7.836-22.107 22.247-22.107 38.739 0 24.853 20.147 45 45 45 16.491 0 30.903-8.876 38.739-22.107-6.708 3.973-14.532 6.261-22.893 6.261z" fill="#e68b00"/></g><g><circle cx="158.702" cy="128.511" fill="#a8c6e2" r="75"/></g><g><path d="m174.787 187.426c-41.421 0-75-33.579-75-75 0-16.607 5.407-31.945 14.543-44.372-18.569 13.652-30.628 35.642-30.628 60.457 0 41.421 33.579 75 75 75 24.815 0 46.805-12.059 60.457-30.628-12.427 9.136-27.765 14.543-44.372 14.543z" fill="#8bb2d8"/></g><g><circle cx="158.702" cy="128.511" fill="#fcad42" r="45"/></g><g><path d="m174.548 157.665c-24.853 0-45-20.147-45-45 0-8.361 2.288-16.185 6.261-22.893-13.231 7.836-22.107 22.247-22.107 38.739 0 24.853 20.147 45 45 45 16.491 0 30.903-8.876 38.739-22.107-6.708 3.973-14.532 6.261-22.893 6.261z" fill="#e68b00"/></g><g><circle cx="158.702" cy="323.505" fill="#a8c6e2" r="75"/></g><g><path d="m174.787 382.42c-41.421 0-75-33.579-75-75 0-16.607 5.407-31.945 14.543-44.372-18.569 13.652-30.628 35.642-30.628 60.457 0 41.421 33.579 75 75 75 24.815 0 46.805-12.059 60.457-30.628-12.427 9.136-27.765 14.543-44.372 14.543z" fill="#8bb2d8"/></g><g><circle cx="158.702" cy="323.505" fill="#57758d" r="45"/></g><g><path d="m174.548 352.66c-24.853 0-45-20.147-45-45 0-8.361 2.288-16.185 6.261-22.893-13.231 7.836-22.107 22.247-22.107 38.739 0 24.853 20.147 45 45 45 16.491 0 30.903-8.876 38.739-22.107-6.708 3.972-14.532 6.261-22.893 6.261z" fill="#4b6276"/></g><g><circle cx="353.445" cy="323.505" fill="#a8c6e2" r="75"/></g><g><path d="m369.531 382.42c-41.421 0-75-33.579-75-75 0-16.607 5.407-31.945 14.543-44.372-18.569 13.652-30.628 35.642-30.628 60.457 0 41.421 33.579 75 75 75 24.815 0 46.805-12.059 60.457-30.628-12.427 9.136-27.766 14.543-44.372 14.543z" fill="#8bb2d8"/></g><g><circle cx="353.445" cy="323.505" fill="#57758d" r="45"/></g><g><path d="m369.291 352.66c-24.853 0-45-20.147-45-45 0-8.361 2.288-16.185 6.261-22.893-13.231 7.836-22.107 22.247-22.107 38.739 0 24.853 20.147 45 45 45 16.491 0 30.903-8.876 38.739-22.107-6.708 3.972-14.531 6.261-22.893 6.261z" fill="#4b6276"/></g><g><path d="m61.096 31h15v15h-15z" fill="#fff"/></g><g><path d="m91.224 31h15v15h-15z" fill="#fff"/></g></g></g><g><path d="m31 0v196h15v-59.991h30.558c3.803 41.988 39.182 75.001 82.144 75.001 45.491 0 82.5-37.009 82.5-82.5 0-42.961-33.013-78.34-75-82.144v-31.366h179.745v31.367c-41.987 3.804-75 39.182-75 82.144 0 45.491 37.009 82.5 82.5 82.5 42.962 0 78.341-33.014 82.144-75.001h30.409v180.193h-30.41c-3.804-41.987-39.182-75-82.144-75-45.491 0-82.5 37.009-82.5 82.5 0 42.961 33.012 78.339 74.999 82.144v30.153h-179.743v-30.154c41.987-3.804 75-39.182 75-82.144 0-45.491-37.009-82.5-82.5-82.5-42.961 0-78.34 33.013-82.144 75h-30.558v-105.202h-15v271.149c0 16.46 13.391 29.851 29.851 29.851h345.149v-15h-345.149c-8.189 0-14.851-6.662-14.851-14.851v-31.149h420v31.149c0 8.189-6.662 14.851-14.851 14.851h-30.149v15h30.149c16.46 0 29.851-13.391 29.851-29.851v-482.149zm164.448 136.011c-2.99 14.672-14.573 26.255-29.245 29.245v-14.256h-15v14.256c-14.672-2.99-26.256-14.574-29.246-29.247h14.043v-15h-14.043c2.991-14.671 14.574-26.254 29.245-29.244v14.235h15v-14.235c14.672 2.99 26.255 14.573 29.245 29.245h-14.447v15h14.448zm-44.246-59.456c-22.956 3.299-41.156 21.499-44.456 44.454h-15.117c3.471-31.237 28.336-56.102 59.573-59.572zm-59.573 59.454h15.118c3.299 22.957 21.499 41.158 44.456 44.457v15.118c-31.239-3.47-56.105-28.336-59.574-59.575zm74.573 59.575v-15.118c22.956-3.299 41.157-21.499 44.456-44.456h15.118c-3.471 31.238-28.336 56.104-59.574 59.574zm59.574-74.573h-15.118c-3.299-22.956-21.499-41.157-44.456-44.456v-15.118c31.238 3.471 56.103 28.336 59.574 59.574zm-74.574-74.644c-39.514 3.58-71.063 35.128-74.644 74.642h-30.558v-106.009h105.202zm254.2 74.642c-3.3-22.956-21.5-41.155-44.456-44.454v-15.118c31.237 3.47 56.102 28.335 59.573 59.572zm-15.21 15c-2.99 14.673-14.574 26.257-29.247 29.247v-14.256h-15v14.256c-14.671-2.991-26.254-14.574-29.244-29.245h14.299v-15h-14.299c2.99-14.672 14.573-26.255 29.245-29.245v14.234h15v-14.235c14.671 2.99 26.255 14.573 29.245 29.244h-14.191v15zm-44.245-74.572v15.118c-22.956 3.299-41.157 21.499-44.456 44.456h-15.118c3.471-31.238 28.336-56.103 59.574-59.574zm-59.574 74.574h15.118c3.299 22.956 21.499 41.156 44.454 44.456v15.118c-31.237-3.472-56.101-28.337-59.572-59.574zm74.572 59.573v-15.118c22.958-3.299 41.159-21.5 44.457-44.457h15.118c-3.47 31.239-28.336 56.106-59.575 59.575zm74.645-74.575c-3.58-39.514-35.129-71.063-74.644-74.642v-31.367h105.054v106.009zm-118.888 195.192c2.991-14.671 14.574-26.254 29.245-29.244v14.043h15v-14.043c14.672 2.99 26.255 14.573 29.245 29.245h-14.192v15h14.192c-2.99 14.672-14.574 26.256-29.247 29.246v-15.448h-15v15.447c-14.672-2.991-26.255-14.574-29.244-29.247h14.299v-15h-14.298zm44.243 59.457c22.957-3.298 41.158-21.499 44.457-44.456h15.118c-3.47 31.238-28.337 56.104-59.575 59.573zm59.575-59.456h-15.118c-3.299-22.957-21.499-41.157-44.456-44.456v-15.118c31.238 3.471 56.104 28.337 59.574 59.574zm-74.573-59.573v15.118c-22.956 3.299-41.156 21.499-44.456 44.454h-15.118c3.472-31.237 28.337-56.102 59.574-59.572zm-59.574 74.572h15.118c3.298 22.957 21.498 41.157 44.454 44.457v15.118c-31.237-3.472-56.102-28.338-59.572-59.575zm74.572 74.645c39.516-3.579 71.065-35.128 74.645-74.644h30.41v104.798h-105.055zm-254.199-74.644c3.299 22.957 21.499 41.157 44.456 44.456v15.118c-31.237-3.47-56.103-28.336-59.573-59.573h15.117zm15.211-15c2.99-14.672 14.573-26.255 29.245-29.245v14.043h15v-14.043c14.672 2.99 26.255 14.573 29.245 29.245h-14.447v15h14.448c-2.99 14.672-14.573 26.255-29.245 29.245v-15.447h-15v15.448c-14.672-2.99-26.255-14.573-29.245-29.245h14.042v-15h-14.043zm44.245 74.574v-15.118c22.956-3.299 41.157-21.499 44.456-44.456h15.118c-3.471 31.238-28.336 56.103-59.574 59.574zm59.574-74.574h-15.118c-3.299-22.957-21.499-41.157-44.456-44.456v-15.118c31.238 3.471 56.103 28.337 59.574 59.574zm-74.574-59.573v15.118c-22.956 3.299-41.157 21.499-44.456 44.456h-15.117c3.47-31.238 28.336-56.104 59.573-59.574zm-105.202 74.573h30.558c3.58 39.515 35.129 71.064 74.644 74.644v30.154h-105.202z"/><path d="m106 466.5h105v15h-105z"/><path d="m301 466.5h15v15h-15z"/><path d="m331 466.5h15v15h-15z"/><path d="m361 466.5h15v15h-15z"/><path d="m391 466.5h15v15h-15z"/></g></g><g/><g/><g/><g/><g/><g/><g/><g/><g/><g/><g/><g/><g/><g/><g/></svg>