<svg id="Capa_1" enable-background="new 0 0 512 512" viewBox="0 0 512 512" xmlns="http://www.w3.org/2000/svg"><g><g><g><g><path d="m489.011 210.697h-61.021v30h61.021c8.284 0 15-6.716 15-15s-6.716-15-15-15z" fill="#f05475"/></g><g><path d="m427.989 210.697h22.596v30h-22.596z" fill="#e21743"/></g><g><path d="m418.606 240.697h39.351v180h-39.351z" fill="#4b6276"/></g><g><path d="m22.734 473.112h60.255v31.085h-60.255z" fill="#4b6276"/></g><g><path d="m352.734 473.112h60.255v31.085h-60.255z" fill="#4b6276"/></g><g><path d="m352.883 7.803h-179.894c-29.06 0-52.617 23.557-52.617 52.617 0 21.012 12.32 39.141 30.128 47.574v50.203h225v-50.26c17.739-8.459 30-26.554 30-47.516 0-29.06-23.557-52.618-52.617-52.618z" fill="#eb975d"/></g><g><g><path d="m150.436 134.894h225v23.303h-225z" fill="#b25e1e"/></g></g><g><path d="m352.89 37.197h-180c-12.426 0-22.5 10.074-22.5 22.5s10.074 22.5 22.5 22.5h7.5v76h165v-76h7.5c12.426 0 22.5-10.074 22.5-22.5 0-12.427-10.074-22.5-22.5-22.5z" fill="#fef2e2"/></g><g><path d="m338.21 59.697v76h-135.32v-76h-30v-22.5c-12.426 0-22.5 10.074-22.5 22.5s10.074 22.5 22.5 22.5h7.5v76h165v-76h7.5c25.34 0 22.497-22.454 22.497-22.5-2.683.089-37.177 0-37.177 0z" fill="#ffe1ba"/></g><g><path d="m262.936 7.803h-179.893c-29.06 0-52.617 23.557-52.617 52.617 0 21.012 12.32 39.141 30.128 47.574v50.203h225v-50.26c17.739-8.459 30-26.554 30-47.516-.001-29.06-23.558-52.618-52.618-52.618z" fill="#eb975d"/></g><g><g><path d="m60.553 134.894h225v23.303h-225z" fill="#b25e1e"/></g></g><g><path d="m263.053 37.197h-180c-12.426 0-22.5 10.074-22.5 22.5s10.074 22.5 22.5 22.5h7.5v76h165v-76h7.5c12.426 0 22.5-10.074 22.5-22.5 0-12.427-10.073-22.5-22.5-22.5z" fill="#fef2e2"/></g><g><path d="m248.038 59.697v76h-135.227v-76h-29.758v-22.5c-12.426 0-22.5 10.074-22.5 22.5s10.074 22.5 22.5 22.5h7.5v76h165v-76h7.5c25.34 0 22.497-22.454 22.497-22.5-2.683.089-37.512 0-37.512 0z" fill="#ffe1ba"/></g><g><path d="m391.904 158.197h-347.83c-19.929 0-36.085 16.156-36.085 36.085v278.915h420v-278.915c0-19.929-16.155-36.085-36.085-36.085z" fill="#8ad8f6"/></g><g><path d="m29.676 451.511v-278.915c0-4.305.757-8.432 2.14-12.259-13.894 5.019-23.826 18.321-23.826 33.945v278.915h420v-21.686z" fill="#54c9f3"/></g><g><path d="m360.362 428.197h-89.968c-12.426 0-22.5-10.074-22.5-22.5s10.074-22.5 22.5-22.5h89.968c12.426 0 22.5 10.074 22.5 22.5s-10.074 22.5-22.5 22.5z" fill="#57758d"/></g><g><path d="m373.229 405.628h-89.968c-11.689 0-21.294-8.915-22.393-20.316-7.664 3.587-12.974 11.364-12.974 20.385 0 12.426 10.074 22.5 22.5 22.5h89.968c12.427 0 22.5-10.074 22.5-22.5 0-.737-.038-1.465-.107-2.184-2.894 1.354-6.121 2.115-9.526 2.115z" fill="#4b6276"/></g></g><g><g><path d="m45.362 195.697h15v15h-15z" fill="#fff"/></g><g><path d="m75.489 195.697h15v15h-15z" fill="#fff"/></g></g></g><g><path d="m127.904 59.58h15.029v15.047h-15.029z"/><path d="m112.811 89.675h15.029v15.047h-15.029z"/><path d="m142.869 89.675h15.029v15.047h-15.029z"/><path d="m489.457 202.529h-53.624v-8.943c0-24.108-19.59-43.722-43.668-43.722h-8.868v-37.362c18.404-10.706 30.057-30.696 30.057-52.196 0-33.253-27.02-60.306-60.232-60.306h-270.411c-33.212 0-60.232 27.053-60.232 60.306 0 21.561 11.704 41.578 30.186 52.266v37.291h-8.996c-24.079.001-43.669 19.615-43.669 43.723v288.32h14.773v30.094h75.399v-30.094h255.232v30.094h75.399v-30.094h15.029v-52.666h30.026v-181.57h23.598c12.431 0 22.543-10.125 22.543-22.571s-10.112-22.57-22.542-22.57zm-136.335-187.482c24.926 0 45.204 20.303 45.204 45.259 0 31.821-30.057 42.918-30.057 42.918v46.64h-15.029v-60.189c16.574 0 30.057-13.5 30.057-30.094s-13.484-30.094-30.057-30.094h-38.544c-3.233-5.421-7.294-10.289-12.003-14.439h50.429zm-32.044 29.486h32.161c8.287 0 15.029 6.75 15.029 15.047s-6.742 15.047-15.029 15.047h-15.029v75.236h-45.086v-37.362c18.404-10.706 30.057-30.696 30.057-52.196.001-5.456-.74-10.741-2.103-15.772zm-283.57 15.773c0-24.956 20.278-45.259 45.204-45.259h180.238c24.926 0 45.204 20.303 45.204 45.259 0 31.055-30.057 42.918-30.057 42.918v46.64h-15.029v-60.189c16.574 0 30.057-13.5 30.057-30.094s-13.484-30.094-30.057-30.094h-120.263v15.047h120.262c8.287 0 15.029 6.75 15.029 15.047s-6.742 15.047-15.029 15.047h-15.029v75.236h-150.287v-75.236h-15.029c-8.287 0-15.029-6.75-15.029-15.047s6.742-15.047 15.029-15.047h44.799v-15.048h-44.799c-16.574 0-30.057 13.5-30.057 30.094s13.484 30.094 30.057 30.094v60.189h-15.029v-46.595s-30.185-11.14-30.185-42.962zm37.636 436.647h-45.342v-15.047h45.342zm330.632 0h-45.342v-15.047h45.342zm45.054-82.76h-14.997v-37.618h-15.029v90.283h-405.775v-273.272c0-15.811 12.848-28.675 28.64-28.675h348.496c15.792 0 28.64 12.864 28.64 28.675v167.942h15.029v-113.857h14.997v166.522zm38.627-181.57h-53.624v-15.047h53.624c4.144 0 7.514 3.375 7.514 7.524s-3.37 7.523-7.514 7.523z"/><path d="m360.562 376.575h-90.141c-16.574 0-30.057 13.5-30.057 30.094s13.484 30.094 30.057 30.094h90.141c16.574 0 30.057-13.5 30.057-30.094s-13.484-30.094-30.057-30.094zm0 45.142h-90.141c-8.287 0-15.029-6.75-15.029-15.047s6.742-15.047 15.029-15.047h90.141c8.287 0 15.029 6.75 15.029 15.047s-6.743 15.047-15.029 15.047z"/><path d="m44.99 399.146h165.316v15.047h-165.316z"/></g></g><g/><g/><g/><g/><g/><g/><g/><g/><g/><g/><g/><g/><g/><g/><g/></svg>