<svg id="Capa_1" enable-background="new 0 0 512 512" viewBox="0 0 512 512" xmlns="http://www.w3.org/2000/svg"><g><g><g><g><path d="m113.5 473.484h285v31.032h-285z" fill="#57758d"/></g><g><path d="m113.5 473.484h21.5v31.032h-21.5z" fill="#4b6276"/></g><g><path d="m106 353.5h300v119.984h-300z" fill="#e3edf6"/></g><g><path d="m128.404 451.08v-97.58h-22.404v119.984h300v-22.404z" fill="#c5d9ec"/></g><g><path d="m181 353.5v7.707c0 12.344 10.007 22.351 22.351 22.351h105.298c12.344 0 22.351-10.007 22.351-22.351v-7.707z" fill="#57758d"/></g><g><path d="m202.447 361.207v-7.707h-21.447v7.707c0 12.344 10.007 22.351 22.351 22.351h21.447c-12.344 0-22.351-10.007-22.351-22.351z" fill="#4b6276"/></g><g><path d="m106 7.484h150v346.016h-150z" fill="#e3edf6"/></g><g><path d="m128.5 331.085v-323.601h-22.5v346.016h150v-22.415z" fill="#c5d9ec"/></g><g><path d="m256 7.484h150v346.016h-150z" fill="#e3edf6"/></g><g><path d="m278.504 331.085v-323.601h-22.504v346.016h150v-22.415z" fill="#c5d9ec"/></g><g><path d="m264.324 83.505h-8.473v194.958h8.473c11.971 0 21.676-9.705 21.676-21.676v-151.606c0-11.971-9.705-21.676-21.676-21.676z" fill="#4b6276"/></g><g><path d="m316 135.984h60v90h-60z" fill="#57758d"/></g><g><path d="m338.5 203.578v-67.594h-22.5v90h60v-22.406z" fill="#4b6276"/></g><g><path d="m136 98.532h90v120.729h-90z" fill="#8ad8f6"/></g><g><path d="m136 98.532h22.447v120.729h-22.447z" fill="#54c9f3"/></g><g><path d="m136 219.261h90v44.313h-90z" fill="#57758d"/></g><g><path d="m136 219.261h22.447v44.313h-22.447z" fill="#4b6276"/></g></g></g><g><path d="m413.5 0h-315v135.992h15v-120.993h135v330.996h-135v-194.132h-15v329.107h7.5v31.03h240v-14.999h-225v-16.031h270v16.031h-30v14.999h45v-31.03h7.5zm-150 91.016c8.094-.422 15.026 6.039 15 14.174v151.597c.026 8.135-6.907 14.596-15 14.174zm0 194.945c16.369.45 30.026-12.784 30-29.173v-151.598c.027-16.389-13.632-29.624-30-29.173v-61.018h135v330.996h-135zm-75 75.033h135v.207c0 8.188-6.662 14.85-14.851 14.85h-105.298c-8.188 0-14.851-6.662-14.851-14.85zm-15 0v.207c0 16.459 13.391 29.849 29.851 29.849h105.299c16.46 0 29.851-13.39 29.851-29.849v-.207h60v104.977h-285v-104.977z"/><path d="m308.5 128.492v104.993h75v-104.993zm60 14.999v14.999h-45v-14.999zm-45 74.995v-44.997h15v15.137h15v-15.137h15v44.997z"/><path d="m128.5 271.074h105v-180.032h-105zm15-15v-29.312h75v29.312zm75-150.033v105.722h-75v-105.722z"/><path d="m128.5 30.998h15v14.999h-15z"/><path d="m158.5 30.998h15v14.999h-15z"/></g></g><g/><g/><g/><g/><g/><g/><g/><g/><g/><g/><g/><g/><g/><g/><g/></svg>