<svg id="Capa_1" enable-background="new 0 0 512 512" viewBox="0 0 512 512" xmlns="http://www.w3.org/2000/svg"><g><g><g><g><path d="m173.489 82.189c-11.852-5.601-24.798-8.823-37.918-8.774v180c49.706 0 90-40.294 90-90-.014-35.569-20.561-66.926-52.082-81.226z" fill="#fef2e2"/></g><g><path d="m157.784 226.607v-150.216c-7.232-1.953-14.693-3.004-22.213-2.975v180c34.172 0 63.895-19.044 79.136-47.099-15.51 12.68-35.327 20.29-56.923 20.29z" fill="#ffe1ba"/></g><g><path d="m316.799 151.684h29.737v57.777h-29.737z" fill="#e3edf6" transform="matrix(.707 .707 -.707 .707 224.827 -181.636)"/></g><g><path d="m308.167 178.711h20.987v29.737h-20.987z" fill="#c5d9ec" transform="matrix(.707 -.707 .707 .707 -43.548 282.024)"/></g><g><path d="m309.331 198.995-16.662-16.662-282.119 282.12 16.662 16.662c28.177 28.177 73.861 28.177 102.037 0l180.082-180.082c28.177-28.177 28.177-73.861 0-102.038z" fill="#57758d"/></g><g><path d="m42.786 465.54-16.662-16.662-15.574 15.575 16.662 16.662c28.177 28.177 73.861 28.177 102.037 0l15.574-15.574c-28.176 28.176-73.86 28.176-102.037-.001z" fill="#4b6276"/></g><g><path d="m495.891 56.4-123.77 123.771-38.645-38.645 123.771-123.77c10.671-10.671 27.973-10.671 38.645 0 10.671 10.671 10.671 27.973-.001 38.644z" fill="#eb975d"/></g><g><path d="m349.679 125.991h21.303v54.652h-21.303z" fill="#b25e1e" transform="matrix(.707 -.707 .707 .707 -2.873 299.699)"/></g><g><path d="m56.083 446.347h15v15h-15z" fill="#fff" transform="matrix(.707 -.707 .707 .707 -302.295 177.888)"/></g><g><path d="m72.903 414.527h45v15h-45z" fill="#fff" transform="matrix(.707 -.707 .707 .707 -270.475 191.069)"/></g><g><path d="m38.554 290.216c-14.645 14.645-14.645 38.388 0 53.033 5.799 5.799 15.201 5.799 21.001 0l5.41-5.41 9.75 9.75 21.213-21.213-9.75-9.75 5.41-5.41c5.799-5.799 5.799-15.202 0-21.001-14.645-14.644-38.389-14.644-53.034.001z" fill="#ffdaaa"/></g><g><path d="m63.583 331.516c-3.293-.328-6.497-1.753-9.019-4.276-11.854-11.854-14.109-29.67-6.772-43.796-3.325 1.727-6.447 3.982-9.237 6.772-14.645 14.645-14.645 38.388 0 53.033 5.799 5.799 15.201 5.799 21.001 0l5.41-5.41z" fill="#ffb680"/></g><g><path d="m88.941 218.207c6.937-6.937 8.392-17.274 4.377-25.644.315-.281.625-.571.927-.873 8.787-8.787 8.787-23.033 0-31.82s-23.033-8.787-31.82 0c-.302.302-.592.612-.873.927-8.37-4.016-18.707-2.56-25.644 4.377-4.076 4.076-6.257 9.326-6.552 14.661-5.335.295-10.585 2.477-14.661 6.552-8.787 8.787-8.787 23.033 0 31.82l21.213 21.213c8.787 8.787 23.033 8.787 31.82 0 4.076-4.076 6.257-9.326 6.552-14.661 5.335-.294 10.586-2.476 14.661-6.552z" fill="#00c278"/></g><g><g><path d="m51.419 223.91-21.213-21.213c-5.965-5.965-7.868-14.444-5.734-22.025-3.578 1.01-6.96 2.9-9.776 5.716-8.787 8.787-8.787 23.033 0 31.82l21.213 21.213c8.787 8.787 23.033 8.787 31.82 0 2.816-2.816 4.706-6.198 5.716-9.776-7.582 2.133-16.061.23-22.026-5.735z" fill="#00a666"/></g></g><g><circle cx="60.571" cy="103.415" fill="#f05475" r="15"/></g><g><circle cx="23.105" cy="388.915" fill="#f05475" r="15"/></g><g><path d="m240.571 74.302h30v30h-30z" fill="#c3f839" transform="matrix(.707 .707 -.707 .707 138.001 -154.56)"/></g><g><path d="m75.571 23.749h30v30h-30z" fill="#c3f839" transform="matrix(.707 .707 -.707 .707 53.928 -52.694)"/></g></g></g><g><path d="m501.816 12.463c-13.578-13.579-35.673-13.579-49.251 0l-129.074 129.074 8.117 8.117-30.2 30.2-8.117-8.117-292.726 292.727 21.965 21.965c15.528 15.528 35.925 23.292 56.322 23.292s40.794-7.764 56.322-23.292l134.987-134.987-10.606-10.606-134.987 134.987c-12.211 12.211-28.446 18.936-45.716 18.936-17.269 0-33.504-6.725-45.715-18.936l-11.358-11.359 271.513-271.513 11.358 11.358c12.211 12.211 18.936 28.446 18.936 45.715s-6.725 33.504-18.936 45.715l-33.071 33.072 10.606 10.606 33.071-33.072c24.846-24.845 29.792-62.149 14.883-91.98l33.091-33.091 9.512 9.512 129.074-129.072c13.579-13.578 13.579-35.672 0-49.251zm-179.865 188.879c-2.049-2.649-4.266-5.21-6.695-7.639l-3.241-3.241 30.2-30.2 10.409 10.409zm169.259-150.234-118.468 118.468-28.038-28.038 118.468-118.468c7.73-7.729 20.308-7.729 28.038 0 7.73 7.73 7.73 20.308 0 28.038z"/><path d="m233.693 163.426c0-34.699-18.677-67.058-48.743-84.451l-7.511 12.984c25.446 14.72 41.254 42.105 41.254 71.467 0 42.964-33.009 78.362-75 82.162v-15.088c33.702-3.744 60-32.39 60-67.073s-26.298-63.329-60-67.073v-15.092c6.838.615 13.54 2.073 20.003 4.358l4.999-14.143c-10.421-3.683-21.356-5.551-32.502-5.551h-7.5v195h7.5c53.761 0 97.5-43.738 97.5-97.5zm-45 0c0 26.402-19.593 48.304-45 51.956v-15.21c17.096-3.484 30-18.635 30-36.745s-12.904-33.261-30-36.745v-15.21c25.407 3.65 45 25.552 45 51.954zm-45 21.21v-42.42c8.729 3.096 15 11.432 15 21.21s-6.271 18.114-15 21.21z"/><path d="m65.694 271.744c-39.245-.832-60.153 49.584-31.821 76.819 8.356 8.715 23.416 8.659 31.713-.106l9.75 9.75 31.82-31.819-9.75-9.75c20.258-21.976-8.796-45.961-31.712-44.894zm21.212 34.18-10.713 10.713 9.75 9.75-10.607 10.606-9.75-9.75-10.713 10.713c-2.735 2.851-7.658 2.851-10.393 0-18.889-18.159-4.954-51.761 21.213-51.214 8.734-.517 30.116 8.181 21.213 19.182z"/><path d="m29.905 244.734c15.545 16.366 44.901 8.364 50.191-13.448 5.052-1.351 9.693-4.01 13.448-7.765 7.716-7.716 10.54-18.941 7.701-29.215 21.299-28.072-14.03-63.433-42.126-42.125-15.377-4.639-33.137 5.393-36.979 21.149-21.825 5.289-29.8 34.646-13.448 50.191zm-.836-57.399 6.706-.37c-1.25-17.275 11.751-26.47 26.916-16.955 16.733-23.74 44.474 3.966 20.729 20.73 9.373 15.395.582 28.022-16.957 26.912 0 0-.371 6.705-.371 6.704-.336 12.59-16.913 18.966-25.58 9.772 0 0-2.262-2.262-5.303-5.303l31.82-31.82-10.606-10.606-31.82 31.82c-3.041-3.042-5.303-5.303-5.303-5.303-9.201-8.674-2.813-25.238 9.769-25.581z"/><path d="m61.193 125.926c12.407 0 22.5-10.093 22.5-22.5s-10.093-22.5-22.5-22.5-22.5 10.093-22.5 22.5 10.093 22.5 22.5 22.5zm0-30c4.136 0 7.5 3.364 7.5 7.5s-3.364 7.5-7.5 7.5-7.5-3.364-7.5-7.5 3.364-7.5 7.5-7.5z"/><path d="m22.5 411.426c12.407 0 22.5-10.093 22.5-22.5s-10.093-22.5-22.5-22.5-22.5 10.093-22.5 22.5 10.093 22.5 22.5 22.5zm0-30c4.136 0 7.5 3.364 7.5 7.5s-3.364 7.5-7.5 7.5-7.5-3.364-7.5-7.5 3.364-7.5 7.5-7.5z"/><path d="m288.012 89.313-31.82-31.82-31.82 31.82 31.82 31.819zm-31.819-10.607 10.607 10.607-10.607 10.607-10.607-10.606z"/><path d="m123.012 38.76-31.819-31.82-31.82 31.82 31.82 31.819zm-31.819-10.607 10.607 10.607-10.607 10.607-10.607-10.607z"/></g></g><g/><g/><g/><g/><g/><g/><g/><g/><g/><g/><g/><g/><g/><g/><g/></svg>