<svg id="Capa_1" enable-background="new 0 0 512 512" viewBox="0 0 512 512" xmlns="http://www.w3.org/2000/svg"><g><g><g><g><path d="m486.475 29.47c-15.963-18.728-46.118-16.426-59.272 3.884-10.657 16.119-22.444 31.462-36.107 45.125l-1.987 1.987 42.427 42.427.177-.177c13.952-13.952 29.159-26.699 46.002-36.978 19.401-11.39 23.832-39.475 8.76-56.268z" fill="#eb975d"/></g><g><path d="m447.009 107.417-.177.177-42.427-42.427 1.987-1.987c12.759-12.759 23.868-26.993 33.962-41.945-5.166 2.793-9.736 6.842-13.154 12.118-10.657 16.119-22.444 31.462-36.107 45.125l-1.987 1.987 42.427 42.427.177-.177c13.952-13.952 29.159-26.699 46.002-36.978 5.84-3.428 10.312-8.374 13.316-14.063-16.054 10.059-30.617 22.342-44.019 35.743z" fill="#b25e1e"/></g><g><path d="m495.926 187.284-171.21-171.21c-11.3-11.3-29.622-11.3-40.922 0l-267.72 267.72c-11.3 11.3-11.3 29.622 0 40.922l171.21 171.21c11.3 11.3 29.622 11.3 40.922 0l267.72-267.72c11.3-11.3 11.3-29.622 0-40.922z" fill="#eb975d"/></g><g><path d="m244.361 479.771c-11.3 11.3-29.622 11.3-40.922 0l-171.21-171.21c-11.3-11.3-11.3-29.62-.001-40.921l-16.154 16.154c-11.3 11.3-11.3 29.622 0 40.922l171.21 171.21c11.3 11.3 29.622 11.3 40.922 0z" fill="#b25e1e"/></g><g><path d="m263.655 63.685h15v15h-15z" fill="#fff" transform="matrix(.707 -.707 .707 .707 29.091 212.597)"/></g><g><path d="m284.868 42.472h15v15h-15z" fill="#fff" transform="matrix(.707 -.707 .707 .707 50.298 221.372)"/></g></g></g><g><path d="m222.857 490.727c-7.984 8.32-22.349 8.32-30.332 0l-69.897-69.897 174.829-174.83-10.613-10.612-174.829 174.83-12.861-12.861 53.973-53.973c11.096-11.096 17.206-25.848 17.206-41.539 0-11.683 4.549-22.666 12.81-30.927l16.83-16.829c20.383-21.732-10.191-52.227-31.838-31.837l-122.044 122.041-24.872-24.872c-8.363-8.363-8.363-21.97 0-30.332l267.87-267.87c7.982-8.321 22.349-8.32 30.331 0l17.902 17.903 10.613-10.612-17.903-17.903c-13.57-14.143-37.987-14.142-51.557 0l-267.868 267.87c-14.143 13.57-14.142 37.987 0 51.557l171.305 171.305c14.214 14.214 37.343 14.214 51.557 0l46.367-46.366-10.613-10.612zm-44.109-257.865c7.084-6.858 17.466 3.513 10.613 10.612l-16.83 16.829c-11.096 11.096-17.206 25.848-17.206 41.54 0 11.683-4.549 22.666-12.81 30.927l-53.973 53.973-31.838-31.838z"/><path d="m501.34 181.913-59.062-59.062c13.139-12.553 26.078-22.668 39.389-30.797 23.084-12.725 28.685-48.523 10.559-67.677-17.847-22.218-56.494-19.599-71.214 4.687-10.517 15.905-20.985 29.237-31.896 40.625l-29.374-29.374-10.613 10.612 18.426 18.426-79.075 79.075c-20.412 21.764 10.165 52.31 31.906 31.905l79.074-79.074 41.246 41.246-55.974 55.974c-10.168 10.169-15.768 23.688-15.768 38.068 0 10.372-4.039 20.123-11.374 27.456l-61.567 61.567 10.613 10.612 61.566-61.567c10.17-10.168 15.77-23.688 15.77-38.069 0-10.371 4.038-20.122 11.373-27.456l55.974-55.973 19.404 19.404-66.319 66.319 10.613 10.612 66.318-66.318 9.392 9.392c8.363 8.363 8.363 21.97 0 30.333l-209.808 209.806 10.613 10.612 209.808-209.807c14.213-14.214 14.213-37.343 0-51.557zm-67.771-144.631c9.756-16.12 35.718-17.796 47.423-2.952 11.921 12.494 8.092 36.67-7.092 44.88-14.341 8.752-28.212 19.598-42.237 33.026l-31.933-31.933c11.621-12.095 22.715-26.196 33.839-43.021zm-123.796 132.437c-7.147 6.894-17.572-3.54-10.681-10.68l79.075-79.074 10.68 10.68z"/><path d="m276.972 339.975h15.505v15.009h-15.505z" transform="matrix(.707 -.707 .707 .707 -162.312 303.115)"/><path d="m441.82 48.266h28.71v15.009h-28.71z" transform="matrix(.707 -.707 .707 .707 94.188 338.916)"/></g></g><g/><g/><g/><g/><g/><g/><g/><g/><g/><g/><g/><g/><g/><g/><g/></svg>