<svg id="Capa_1" enable-background="new 0 0 512 512" viewBox="0 0 512 512" xmlns="http://www.w3.org/2000/svg"><g><g><g><g><path d="m42.745 310.003c51.85-54.123 165.149-96.08 209.186-50.087 43.934 43.934 8.839 150.26-50.087 209.186-45.561 45.561-118.111 46.88-162.045 2.946-43.934-43.933-42.615-116.483 2.946-162.045z" fill="#fef2e2"/></g><g><path d="m56.65 455.198c-41.873-41.873-42.639-109.739-3.174-155.46-3.806 3.359-7.397 6.786-10.731 10.266-45.561 45.561-46.88 118.111-2.946 162.045s116.484 42.615 162.045-2.946c3.166-3.166 6.258-6.476 9.278-9.899-45.705 38.612-112.898 37.567-154.472-4.006z" fill="#ffe1ba"/></g><g><path d="m260.069 27.564c46.287-46.995 166.078-3.286 219.481 61.783 35.178 45.547 32.99 110.01-7.349 150.349-43.934 43.934-116.484 42.615-162.045-2.946-58.926-58.925-94.021-165.252-50.087-209.186z" fill="#ffdaaa"/></g><g><path d="m325.883 221.023c-55.407-55.407-89.737-152.718-57.115-200.666-3.122 2.116-6.037 4.505-8.699 7.207-43.934 43.934-8.839 150.26 50.087 209.186 45.561 45.561 118.111 46.88 162.045 2.947 2.646-2.646 5.117-5.401 7.435-8.242-44.338 36.123-110.953 32.368-153.753-10.432z" fill="#ffb680"/></g></g></g><g><g><path d="m70.089 277.95 8.58 12.304c55.668-38.822 133.64-58.588 167.766-24.462 44.892 49.736-5.071 155.25-50.087 198.58-39.686 41.495-111.411 44.496-151.438 2.946-19.796-19.795-30.411-46.421-29.893-74.973.521-28.655 12.184-55.811 32.839-76.466 5.523-5.524 11.596-10.939 18.047-16.096l-9.365-11.717c-6.884 5.502-13.373 11.291-19.289 17.206-23.415 23.416-36.637 54.242-37.229 86.8-.594 32.661 11.581 63.15 34.282 85.852 45.699 47.411 127.36 44.347 172.652-2.946 50.769-48.678 102.764-165.251 50.087-219.792-41.178-41.179-127.055-19.007-186.952 22.764z"/><path d="m144.793 271.744c-4.777 1.681-9.647 3.614-14.477 5.745l6.057 13.723c4.477-1.976 8.985-3.765 13.398-5.318z"/><path d="m175.316 264.13c-5.007.689-10.231 1.72-15.53 3.063l3.688 14.54c4.76-1.208 9.433-2.13 13.888-2.744z"/></g><path d="m485.763 84.485-11.871 9.169c33.227 43.02 30.339 103.404-6.718 140.461-40.039 41.544-111.747 38.549-151.438-2.946-10.13-10.13-19.594-21.791-28.055-34.369l5.955-38.282 42.925-6.089 6.87-48.429-14.852-2.106-5.286 37.268-42.771 6.067-4.935 31.723c-9.328-16.973-16.748-34.933-21.531-52.648-10.824-40.094-6.6-73.521 11.592-91.713s51.621-22.417 91.713-11.591c38.76 10.464 78.709 33.521 106.865 61.678l10.607-10.606c-29.93-29.93-72.383-54.435-113.562-65.553-46.087-12.441-83.813-6.95-106.23 15.467-22.416 22.416-27.908 60.143-15.466 106.229 11.118 41.18 35.624 83.634 65.553 113.563 45.288 47.294 126.96 50.357 172.652 2.946 42.377-42.379 45.809-111.265 7.983-160.239z"/></g></g><g/><g/><g/><g/><g/><g/><g/><g/><g/><g/><g/><g/><g/><g/><g/></svg>