<svg id="Capa_1" enable-background="new 0 0 512 512" viewBox="0 0 512 512" xmlns="http://www.w3.org/2000/svg"><g><g><g><g><path d="m297.879 383.759-40.151-2.134c-15.559-.827-22.791-19.687-11.774-30.704l24.728-24.728-17.35-24.369-28.466 28.466c-11.123 11.123-26.21 17.372-41.941 17.372h-.707c-9.863 0-17.858-7.995-17.858-17.858 0-15.731 6.249-30.817 17.372-41.94l28.953-28.953-24.901-17.615-24.728 24.728c-11.017 11.017-29.878 3.785-30.705-11.774l-2.134-40.151-27.587-14.839-7.313 95.374c-2.097 27.345-13.91 53.038-33.303 72.431l-49.049 49.049 84.898 84.898 49.049-49.049c19.393-19.393 45.085-31.206 72.431-33.303l95.374-7.313z" fill="#c3f839"/></g><g><g><path d="m50.19 390.742h22.026v120.064h-22.026z" fill="#abe700" transform="matrix(.707 -.707 .707 .707 -300.82 175.306)"/></g></g><g><path d="m505.033 246.989c0-35.359-22.25-65.51-53.508-77.248 13.803-30.402 8.217-67.456-16.786-92.458-25.003-25.003-62.056-30.589-92.458-16.786-11.738-31.257-41.889-53.508-77.248-53.508s-65.51 22.25-77.247 53.508c-30.686-14.201-68.639-7.242-92.458 16.786-32.218 32.218-32.218 84.454 0 116.672 19.874 19.874 47.362 27.47 73.072 22.826 12.831 28.901 41.761 49.068 75.42 49.068.809 0 1.61-.038 2.414-.061-.023.804-.061 1.604-.061 2.414 0 33.659 20.167 62.59 49.068 75.42-4.644 25.71 2.952 53.198 22.826 73.072 32.218 32.218 84.454 32.218 116.673 0 25.002-25.002 30.589-62.056 16.786-92.458 31.257-11.737 53.507-41.888 53.507-77.247z" fill="#00c278"/></g><g><path d="m446.508 401.868c-4.073 2.979-7.775 6.083-10.881 9.375-15.781 15.781-37.849 15.631-49.597 14.135-39.202-4.6-76.703-36.197-68.649-77.757l3.142-17.393c-29.485-10.806-51.286-28.342-51.851-62.027 1.319-17.658 3.762-24.337 3.762-24.337l-19.612-8.17s-9.616 7.688-9.002 7.653c-25.724-.433-42.03-13.242-53.117-32.417l21.297-16.974-14.665-14.678c-13.644 11.017-31.032 17.059-48.539 15.869-13.519-.911-26.152-5.707-37.558-17.102-22.832-21.056-29.718-77.522-6.292-99.634 4.803-4.716 9.939-11.042 15.307-18.131-9.206 4.032-17.716 9.729-24.926 17.003-32.218 32.218-32.218 84.454 0 116.672 19.874 19.874 47.362 27.47 73.072 22.826 13.047 29.583 43.496 50.162 77.834 49.007-1.155 34.34 19.422 64.785 49.007 77.834-4.867 26.945 3.71 55.842 25.773 75.881 30.558 27.754 77.509 28.478 108.891 1.66 6.705-5.729 12.229-12.256 16.604-19.295z" fill="#00a666"/></g><g><path d="m230.662 62.938-11.868-9.174c1.525-1.972 3.196-3.87 4.967-5.641 2.283-2.283 4.76-4.385 7.363-6.248l8.729 12.199c-1.937 1.386-3.782 2.952-5.485 4.655-1.324 1.323-2.57 2.739-3.706 4.209zm20.524-14.667-4.793-14.214c5.438-1.833 11.113-2.856 16.868-3.038l.475 14.992c-4.284.136-8.507.896-12.55 2.26z" fill="#fff"/></g></g></g><g><path d="m461.22 165.809c25.909-69.832-45.161-140.941-115.014-115.024-31.055-67.702-131.591-67.726-162.656.003-15.651-5.523-32.818-6.665-49.111-3.17l3.148 14.679c18.445-4.204 37.638-.254 54.19 8.346 19.199-65.202 100.084-73.317 134.615-24.287 16.532 24.792 18.89 68.465-8.347 96.137l10.615 10.616c23.353-23.355 31.876-57.192 22.932-88.44 63.664-21.548 124.446 45.717 89.77 109.366 69.534 20.478 74.136 111.129 13.739 140.871-4.053-7.302-9.097-14.009-15.078-19.991-14.581-14.583-33.451-23.584-53.752-25.817-1.581-14.404-6.642-28.568-15.335-41.175l-12.358 8.523c20.537 29.782 16.844 69.998-8.781 95.625l10.615 10.616c16.105-16.106 24.974-37.018 26.241-58.418 16.139 2.221 31.093 9.6 42.755 21.263 6.423 6.424 11.566 13.835 15.285 22.025l.163-.074c12.034 28.34 6.981 62.082-15.447 84.205-54.159 53.682-144.417 1.415-125.866-72.294-40.508-13.703-59.649-62.017-43.985-100.597l-13.8-5.909c-3.51 8.198-5.753 16.763-6.716 25.562-24.656-1.91-46.997-15.339-59.87-36.448 14.284-4.246 27.272-11.959 37.939-22.627l-10.615-10.616c-90.118 79.802-187.304-71.5-82.791-122.031l-5.935-13.79c-66.761 29.601-67.091 109.303-25.167 149.269l-7.057 92.047c-1.961 25.582-13.012 49.618-31.153 67.761l-54.393 54.398 95.579 95.587 33.694-33.697-10.615-10.616-23.079 23.081-74.349-74.356 43.779-43.783c20.662-20.664 33.271-48.09 35.505-77.227l6.304-82.228c4.352 2.667 9 4.969 13.931 6.846.582 10.958 1.848 34.787 1.848 34.787.565 21.543 28.581 32.443 43.531 16.693l19.328-19.33c3.901 3.301 8.075 6.259 12.47 8.851-8.582 8.584-21.72 21.723-21.719 21.723-20.555 18.417-33.303 70.874 6.5 72.664 29.968 1.204 49.433-21.142 68.565-40.839 2.515 4.205 5.369 8.204 8.537 11.953l-18.999 19c-15.833 15.19-5.7 43.074 16.359 43.867l35.255 1.874c1.966 4.801 4.343 9.438 7.092 13.852l-82.937 6.36c-29.135 2.234-56.559 14.844-77.221 35.508l-8.651 8.652 10.615 10.616 8.651-8.652c18.139-18.142 42.172-29.193 67.752-31.155l92.626-7.103c16.874 18.365 40.775 30.176 65.984 29.301 59.934 1.903 106.567-63.688 84.885-120.167 67.695-31.055 67.719-131.594 0-162.666zm-305.707 95.076c-5.985 6.513-17.828 1.969-17.926-6.874l-1.582-29.768c8.628 1.567 17.912 1.951 27.806.896 3.096 5.926 6.813 11.413 11.037 16.41zm26.486 79.512c-5.716 0-10.366-4.651-10.366-10.367-1.125-27.056 23.526-44.492 40.801-62.104 8.306 3.077 17.122 4.956 26.202 5.461.517 9.271 2.467 18.265 5.66 26.724-17.666 17.379-34.904 41.709-62.297 40.286zm75.967 34.003c-8.844-.098-13.384-11.942-6.874-17.928l19.331-19.332c5.01 4.241 10.514 7.972 16.458 11.079-1.392 9.391-1.004 18.748.86 27.764z"/></g></g><g/><g/><g/><g/><g/><g/><g/><g/><g/><g/><g/><g/><g/><g/><g/></svg>