<svg id="Capa_1" enable-background="new 0 0 512 512" viewBox="0 0 512 512" xmlns="http://www.w3.org/2000/svg"><g><g><g><g><g><path d="m120.398 485.904-110.398-110.397c22.454-54.18 76.707-121.688 134.466-156.681 41.15-26.425 79.366-57.151 113.946-91.732l117.095-117.094 108.1 108.1z" fill="#f05475"/></g></g><g><path d="m20.027 354.896-10.027 20.611 110.398 110.397 15.223-15.415z" fill="#e21743"/></g><g><path d="m109.299 474.806 27.292 27.096c30.339-30.383 20.1-40.691 50.527-71.118 30.46-30.46 40.756-20.164 71.216-50.625 30.459-30.459 20.163-40.755 50.622-71.213 30.458-30.458 40.754-20.162 71.212-50.62 28.046-28.046 21.538-38.997 44.109-64.334l11.458-11.637c26.731-24.671 37.517-17.113 66.265-45.861l-27.201-27.201c-30.458 30.458-40.754 20.162-71.212 50.62s-20.162 40.754-50.621 71.213c-30.458 30.458-40.754 20.162-71.212 50.62-30.459 30.459-20.163 40.755-50.622 71.214-30.46 30.46-40.756 20.164-71.216 50.624s-20.164 40.756-50.625 71.217z" fill="#fef2e2"/></g><g><path d="m124.862 460.243-.007-.007-15.556 14.57 27.292 27.096c6.066-6.075 10.507-11.346 13.978-16.137z" fill="#ffe1ba"/></g><g><path d="m362.642 55.05h15v15h-15z" fill="#fff" transform="matrix(.707 -.707 .707 .707 64.192 280.065)"/></g><g><path d="m341.429 76.263h15v15h-15z" fill="#fff" transform="matrix(.707 -.707 .707 .707 42.978 271.278)"/></g></g></g><g><path d="m375.038 0c-64.001 62.224-158.282 167.645-234.936 212.979-25.711 16.513-49.319 36.214-70.12 58.56l10.97 10.215c19.95-21.432 42.589-40.324 67.249-56.163 76.373-45.484 163.144-142.058 226.837-204.392l38.98 38.981c-41.872 41.073-68.016 57.058-95.619 73.924-28.241 17.256-57.443 35.099-103.732 81.388-46.289 46.288-64.132 75.491-81.388 103.732-16.866 27.603-32.851 53.747-73.924 95.619l-40.599-40.599c13.663-29.336 31.128-56.565 51.963-81.004l-11.407-9.725c-23.993 28.088-43.64 59.871-58.49 93.995l134.493 134.49c33.206-29.747 27.007-45.289 56.76-75.599 14.348-14.348 23.704-18.977 33.607-23.878 22.603-8.483 55.788-41.665 64.275-64.27 7.585-20.264 37.161-49.869 57.48-57.484 22.621-8.525 55.676-41.508 64.27-64.267 4.13-8.347 8.031-16.231 17.666-27.048l-11.193-9.971c-23.683 26.731-17.031 37.38-43.783 63.977-29.957 29.703-40.383 19.538-71.164 50.586-31.048 30.781-20.884 41.209-50.588 71.166-29.965 29.71-40.379 19.535-71.168 50.591-28.532 28.1-21.614 38.904-45.409 65.751l-16.554-16.554c24.752-26.737 17.467-37.633 45.378-65.782 29.958-29.704 40.388-19.543 71.169-50.591 31.05-30.783 20.882-41.207 50.588-71.166 29.961-29.706 40.378-19.534 71.164-50.586 31.044-30.778 20.888-41.213 50.586-71.165 28.147-27.908 39.039-20.619 65.777-45.373l16.552 16.552c-24.355 21.925-35.504 17.051-60.587 40.441l10.167 11.015c11.769-10.862 20.08-14.974 28.879-19.328 10.565-4.379 27.897-17.349 41.989-32.88zm22.762 155.112c-31.051 30.786-20.878 41.203-50.586 71.165-29.958 29.704-40.382 19.537-71.164 50.586-31.047 30.781-20.886 41.21-50.587 71.166-29.966 29.711-40.378 19.533-71.169 50.591-29.088 28.837-22.011 39.822-45.431 65.729l-38.907-38.907c42.393-43.227 59.533-71.264 76.116-98.403 17.572-28.758 34.169-55.921 79.196-100.948s72.19-61.624 100.949-79.196c27.139-16.583 55.175-33.723 98.403-76.116l38.906 38.906c-25.911 23.423-36.889 16.341-65.726 45.427z"/></g></g><g/><g/><g/><g/><g/><g/><g/><g/><g/><g/><g/><g/><g/><g/><g/></svg>