<svg id="Capa_1" enable-background="new 0 0 512 512" viewBox="0 0 512 512" xmlns="http://www.w3.org/2000/svg"><g><g><g><g><path d="m499.363 14.073c-7.757-8.523-20.963-8.757-29.019-.701l-9.117 9.117c-12.761-12.762-34.618-5.095-36.611 12.843l-.708 6.375c-13.684-13.684-37.121-5.463-39.258 13.771l-2.483 22.347c-1.859 16.733-9.683 32.236-22.04 43.671l30.445 30.445c11.435-12.356 26.938-20.181 43.671-22.04l22.347-2.483c19.234-2.137 27.455-25.574 13.771-39.258l6.375-.708c17.938-1.993 25.605-23.85 12.843-36.612l8.717-8.717c7.63-7.634 8.332-20.067 1.067-28.05z" fill="#00c278"/></g><g><path d="m372.131 107.425h21.963v43.055h-21.963z" fill="#00a666" transform="matrix(.707 -.707 .707 .707 21.028 308.671)"/></g><g><path d="m360.125 121.495-339.896 314.555c-16.441 15.215-16.941 41.047-1.101 56.888s41.672 15.34 56.888-1.101l314.554-339.897z" fill="#c3f839"/></g><g><path d="m35.724 476.342c-13.792-13.792-15.191-35.154-4.472-50.493l-11.023 10.201c-16.441 15.215-16.941 41.047-1.101 56.888s41.672 15.34 56.888-1.101l10.201-11.022c-15.339 10.717-36.702 9.318-50.493-4.473z" fill="#abe700"/></g><g><path d="m469.105 246.074v-1.219h10.259c11.331 0 20.517-9.186 20.517-20.517s-9.186-20.518-20.517-20.518h-10.259v-1.219c0-16.084-18.623-25.008-31.158-14.931l-45.615 36.667 45.615 36.667c12.535 10.077 31.158 1.153 31.158-14.93z" fill="#00c278"/></g><g><g><path d="m454.09 244.86-43.646-35.084-18.114 14.561 45.615 36.667c11.783 9.472 28.941 2.154 30.958-12.116-4.954.765-10.28-.384-14.813-4.028z" fill="#00a666"/></g></g><g><path d="m162.491 138.853h1.219v-10.259c0-11.331 9.186-20.518 20.518-20.518 11.331 0 20.517 9.186 20.517 20.518v10.259h1.219c16.084 0 25.008 18.623 14.931 31.158l-36.667 45.615-36.667-45.615c-10.078-12.535-1.154-31.158 14.93-31.158z" fill="#00c278"/></g><g><path d="m257.693 68.806h1.219v-10.26c0-11.331 9.186-20.517 20.517-20.517s20.518 9.186 20.518 20.517v10.259h1.219c16.084 0 25.008 18.623 14.931 31.158l-36.667 45.615-36.667-45.615c-10.077-12.535-1.153-31.157 14.93-31.157z" fill="#00c278"/></g><g><g><path d="m259.826 82.901c-3.44-4.28-4.663-9.269-4.145-13.984-14.792 1.478-22.565 19.046-12.918 31.047l36.667 45.615 15.389-19.145z" fill="#00a666"/></g></g><g><g><path d="m164.622 152.949c-3.44-4.28-4.663-9.269-4.145-13.984-14.792 1.478-22.565 19.046-12.918 31.047l36.667 45.615 15.389-19.145z" fill="#00a666"/></g></g></g></g><g><path d="m70.402 486.743c-9.998 11.3-27.664 13.239-40.196 5.608l164.604-164.555-10.609-10.605-164.602 164.554c-7.639-12.537-5.693-30.178 5.608-40.183l208.462-192.862-10.189-11.007-44.448 41.122c7.884-19.035 12.227-39.546 12.57-60.464l35.053-43.594c12.428-14.351 3.891-38.847-14.497-42.618 2.119-41.645-58.152-41.67-56.044 0-18.386 3.77-26.927 28.267-14.498 42.618l34.985 43.508c-.668 38.225-16.035 74.952-42.649 102.256l-118.935 110.034c-31.272 28.37-10.343 81.832 31.882 81.443 13.199.008 25.556-5.375 34.515-15.068l63.6-68.704-11.011-10.187zm91.993-340.339h8.721v-17.757c0-7.177 5.841-13.016 13.02-13.016s13.02 5.839 13.02 13.016v17.757h8.72c9.503-.379 15.336 11.788 9.087 18.956l-30.826 38.338-30.827-38.338c-6.251-7.165-.417-19.336 9.085-18.956z"/><path d="m475.825 196.363c-3.773-18.38-28.275-26.92-42.631-14.493l-43.607 35.043c-20.989.344-41.568 4.713-60.658 12.641l67.088-72.471c10.21-11.029 24.059-18.017 39-19.677 0 0 22.35-2.483 22.35-2.483 19.307-1.512 32.451-23.284 25.342-41.011 17.402-4.54 26.297-27.132 16.751-42.327 34.451-29.43-9.919-73.478-38.963-38.952-15.2-9.542-37.798-.652-42.339 16.745-17.729-7.108-39.514 6.036-41.024 25.335l-2.484 22.343c-1.66 14.936-8.65 28.782-19.682 38.989l-68.112 63.014v-30.789l35.018-43.551c12.427-14.351 3.891-38.847-14.498-42.618 2.119-41.645-58.151-41.669-56.043 0-18.386 3.77-26.928 28.266-14.498 42.618l35.019 43.551v44.67l-36.03 33.334 10.189 11.007 114.167-105.624 20.22 20.214-235.002 253.859 11.011 10.187 129.561-139.958c27.451-27.469 64.797-43.37 103.702-44.05l43.521 34.973c4.863 3.908 10.72 5.915 16.652 5.915 11.931.205 23.502-8.821 25.98-20.408 41.656 2.119 41.68-58.134 0-56.026zm-218.212-119.996h8.721v-17.757c0-7.177 5.841-13.016 13.02-13.016s13.019 5.839 13.019 13.016v17.757h8.721c9.503-.379 15.336 11.789 9.087 18.956l-30.826 38.338-30.827-38.338c-6.251-7.166-.418-19.336 9.085-18.956zm131.946 2.346 2.484-22.344c.678-6.096 4.539-10.948 10.329-12.978 12.329-4.569 19.447 7.708 27.21 14.715 0 0 2.434-21.881 2.434-21.88.807-11.395 16.106-16.758 23.857-8.366l5.305 5.302 14.422-14.418c4.821-5.037 13.586-4.829 18.171.446 4.433 4.87 4.063 12.808-.824 17.696l-14.025 14.018s5.305 5.303 5.305 5.303c8.396 7.749 3.029 23.041-8.368 23.85l-21.889 2.432c6.987 7.733 19.299 14.889 14.722 27.203-2.031 5.788-6.884 9.648-12.982 10.326l-22.35 2.483c-15.784 1.753-30.576 8.318-42.441 18.677l-20.041-20.036c10.361-11.862 16.927-26.65 18.681-42.429zm89.758 158.679h-17.762s0 8.718 0 8.717c.379 9.499-11.792 15.333-18.962 9.084l-38.35-30.817 38.35-30.818c7.169-6.247 19.342-.414 18.962 9.085v8.717h17.762c7.179 0 13.019 5.839 13.019 13.016s-5.84 13.016-13.019 13.016z"/><path d="m198.761 298.108h15.271v15.001h-15.271z" transform="matrix(.707 -.707 .707 .707 -155.635 235.401)"/></g></g><g/><g/><g/><g/><g/><g/><g/><g/><g/><g/><g/><g/><g/><g/><g/></svg>