<svg id="Capa_1" enable-background="new 0 0 512 512" viewBox="0 0 512 512" xmlns="http://www.w3.org/2000/svg"><g><g><g><g><path d="m442.101 201.792-112.939 23.472-133.049 133.771c37.852-37.852 83.323-61.503 135.727-72.433 26.646-5.558 53.292-11.115 79.937-16.673 5.095-3.328 17.602-12.464 25.235-29.658 7.6-17.123 6.027-32.461 5.089-38.479z" fill="#00c278"/></g><g><path d="m458.98 11.044-125.916 125.917-54.978 139.83 223.321-223.32z" fill="#c3f839"/></g><g><path d="m360.512 109.513-27.448 27.448-54.977 139.83 42.086-42.086c15.554-29.396 26.994-60.98 33.833-93.885z" fill="#abe700"/></g><g><path d="m424.33 245.137c-36.162 8.18-73.369 13.706-108.883 24.252l52.103-52.103-38.388 7.978-133.049 133.771c11.513-11.513 23.735-21.704 36.638-30.631 15.948-11.041 33.083-20.194 51.075-27.402 40.55-16.012 85.481-21.184 127.951-31.073 6.881-3.277 25.258-21.974 28.74-39.571-6.273 7.862-12.834 12.589-16.187 14.779z" fill="#00a666"/></g><g><path d="m317.733 29.436c-17.195 7.633-26.33 20.14-29.658 25.235-5.558 26.646-11.115 53.291-16.673 79.937-10.739 51.486-36.009 98.793-72.789 136.333l42.726 42.723c45.722-47.981 77.157-107.842 90.666-172.844l24.207-116.474c-6.017-.938-21.356-2.511-38.479 5.09z" fill="#00c278"/></g><g><path d="m213.932 255.621-15.319 15.319 42.726 42.723c5-5.247 9.818-10.644 14.472-16.167z" fill="#00a666"/></g><g><path d="m198.613 270.94c-.656.669-1.314 1.335-1.977 1.998l-154.028 154.028c-11.815 11.815-11.815 30.972 0 42.787s30.972 11.815 42.787 0l149.958-149.958c2.022-2.022 4.017-4.066 5.986-6.132z" fill="#fff"/></g><g><g><path d="m101.203 453.945c-11.815 11.815-30.972 11.815-42.787 0s-11.815-30.97-.001-42.786l-15.807 15.807c-11.815 11.815-11.815 30.972 0 42.787s30.972 11.815 42.787 0z" fill="#e3edf6"/></g></g></g></g><g><path d="m458.957 0-113.81 113.885 19.972-96.158c-31.716-7.588-66.907 5.254-84.154 33.632l-16.966 81.392c-10.662 51.154-35.817 97.724-72.743 134.674l-76.959 77.01 10.609 10.616 73.643-73.692 32.051 32.073-150.606 150.977c-8.873 8.88-23.313 8.88-32.186 0-8.875-8.88-8.875-23.329 0-32.208l65.865-65.909-10.609-10.616-65.865 65.909c-10.957 10.964-13.753 27.043-8.403 40.625h-28.796v15.013h24.393l-19.022 19.034 10.609 10.616 19.021-19.034v24.161h15.003v-28.566c4.454 1.757 9.174 2.641 13.896 2.641 9.669-.001 19.341-3.684 26.702-11.05l110.787-110.86c35.943-35.949 80.332-59.637 131.932-70.408l81.339-16.976c30.06-18.643 40.738-54.302 33.609-84.21l-95.524 19.866 105.11-105.18-10.609-10.616-143.821 143.919c6.896-12.793 13.01-26.008 18.329-39.572l78.585-78.636-10.609-10.616-57.068 57.106c2.54-8.823 6.919-28.154 6.919-28.154l119.376-119.457 31.826 31.847-32.346 32.367 10.609 10.616 42.954-42.983zm-180.272 135.817 16.378-78.573c8.982-14.651 32.084-28.005 52.046-26.587l-22.497 108.316c-12.742 61.346-41.517 117.617-83.539 163.708l-32.048-32.07c35.095-37.754 59.103-84.146 69.66-134.794zm156.664 74.775c1.421 19.939-11.898 43.068-26.569 52.081l-78.521 16.389c-23.652 4.936-45.873 12.454-66.564 22.486l69.707-69.753z"/><path d="m403.443 93.616h15.008v15.008h-15.008z" transform="matrix(.707 -.707 .707 .707 48.924 320.304)"/></g></g><g/><g/><g/><g/><g/><g/><g/><g/><g/><g/><g/><g/><g/><g/><g/></svg>