<svg id="Capa_1" enable-background="new 0 0 512 512" viewBox="0 0 512 512" xmlns="http://www.w3.org/2000/svg"><g><g><g><g><path d="m325.31 40.952c-44.603-44.603-116.918-44.603-161.521 0l-34.858 34.858 34.858 34.858c13.736 13.736 30.1 23.242 47.474 28.517l128.541-83.739z" fill="#00c278"/></g><g><path d="m226.071 124.376c-17.374-5.276-33.738-14.781-47.474-28.517l-34.857-34.858-14.809 14.809 34.858 34.858c13.736 13.736 30.1 23.242 47.474 28.517l128.541-83.739-3.125-3.125z" fill="#00a666"/></g><g><path d="m441.922 93.404c-51.083-51.083-133.906-51.083-184.989 0l-51.46 51.46c-44.277 1.276-88.173 18.802-121.967 52.596-68.934 67.947-71.177 183.912 0 254.36 70.24 70.24 184.12 70.24 254.36 0 33.794-33.794 51.32-77.69 52.596-121.967l51.46-51.46c51.083-51.083 51.083-133.905 0-184.989z" fill="#57758d"/></g><g><path d="m100.357 434.969c-68.106-67.409-68.982-176.487-8.539-245.3-2.83 2.497-5.606 5.086-8.312 7.791-68.934 67.947-71.177 183.912 0 254.36 70.24 70.24 184.12 70.24 254.36 0 2.836-2.836 5.548-5.75 8.155-8.723-70.649 61.985-178.252 59.284-245.664-8.128z" fill="#4b6276"/></g><g><path d="m420.035 115.291c-38.616-38.616-101.225-38.616-139.841 0l-61.675 61.675c-40.659-2.25-82.067 12.146-113.127 43.206-57.924 57.924-57.924 151.838 0 209.762s151.838 57.924 209.762 0c31.06-31.06 45.456-72.468 43.206-113.127l61.675-61.675c38.616-38.616 38.616-101.225 0-139.841z" fill="#c3f839"/></g><g><g><path d="m121.222 414.104c-55.247-55.247-57.799-143.232-7.659-201.505-2.792 2.406-5.522 4.924-8.17 7.573-57.924 57.924-57.924 151.838 0 209.762s151.838 57.924 209.762 0c2.649-2.649 5.167-5.378 7.573-8.17-58.274 50.139-146.26 47.587-201.506-7.66z" fill="#abe700"/></g></g><g><circle cx="210.685" cy="324.64" fill="#eb975d" r="81.754"/></g><g><path d="m168.191 367.135c-29.329-29.329-31.693-75.387-7.137-107.44-2.839 2.175-5.58 4.539-8.178 7.137-31.927 31.927-31.927 83.691 0 115.618s83.691 31.927 115.618 0c2.598-2.598 4.962-5.339 7.137-8.178-32.053 24.556-78.111 22.192-107.44-7.137z" fill="#b25e1e"/></g><g><path d="m175.05 303.246-12.853-7.733c2.975-4.945 6.683-9.396 11.019-13.231l9.937 11.236c-3.19 2.821-5.916 6.094-8.103 9.728zm18.753-16.583-6.108-13.7c5.29-2.358 10.887-3.881 16.634-4.526l1.671 14.906c-4.213.472-8.317 1.59-12.197 3.32z" fill="#fff"/></g></g></g><g><path d="m211.243 235.386c-23.841 0-46.254 9.284-63.112 26.142s-26.142 39.271-26.142 63.112 9.284 46.254 26.142 63.112c17.402 17.402 40.253 26.1 63.112 26.1 22.853 0 45.714-8.702 63.112-26.1 34.8-34.8 34.8-91.425 0-126.225-16.858-16.857-39.271-26.141-63.112-26.141zm52.506 141.76c-28.953 28.947-76.062 28.95-105.012 0-14.025-14.025-21.749-32.672-21.749-52.506s7.724-38.481 21.749-52.506 32.671-21.749 52.506-21.749c19.834 0 38.481 7.724 52.506 21.749 28.951 28.952 28.951 76.06 0 105.012z"/><path d="m401.254 263.864 10.606 10.606 14.035-14.035c20.093-20.093 31.159-46.808 31.159-75.224s-11.065-55.131-31.159-75.224c-41.478-41.478-108.969-41.478-150.448 0l-59.34 59.34c-43.054-1.447-84.967 15.045-115.462 45.542-29.432 29.431-45.64 68.562-45.64 110.184s16.208 80.753 45.64 110.185c30.378 30.378 70.281 45.567 110.184 45.567s79.807-15.189 110.185-45.567c30.496-30.496 46.985-72.411 45.542-115.462l33.983-33.984-10.606-10.606-38.689 38.69c3.158 41.026-11.715 81.704-40.835 110.756-54.908 54.907-144.249 54.907-199.156 0-26.598-26.598-41.247-61.962-41.247-99.578s14.648-72.979 41.247-99.578c29.052-29.12 69.737-43.99 110.756-40.835l64.046-64.046c17.26-17.26 40.208-26.765 64.617-26.765s47.357 9.505 64.618 26.765c35.63 35.63 35.63 93.605 0 129.235z"/><path d="m452.94 93.549 34.094-34.094-10.606-10.606-34.094 34.094c-27.947-25.098-63.734-36.81-98.998-35.128l-12.166-12.166c-22.988-22.989-53.553-35.649-86.064-35.649s-63.076 12.66-86.064 35.649l-40.16 40.161 40.161 40.161c9.112 9.111 19.636 16.708 31.054 22.508-42.056 4.73-81.122 23.463-111.337 53.679-13.431 13.431-24.681 28.689-33.438 45.351l13.278 6.979c8.053-15.324 18.404-29.361 30.766-41.723 31.908-31.963 74.727-49.903 119.86-50.488l53.567-53.568c23.29-23.29 54.255-36.116 87.191-36.116s63.901 12.826 87.191 36.116c48.077 48.077 48.077 126.305 0 174.382l-53.568 53.568c-.586 45.134-18.525 87.95-50.488 119.859-32.554 32.554-75.837 50.482-121.876 50.482s-89.322-17.929-121.877-50.483c-49.404-49.404-64.118-123.065-37.486-187.66l-13.867-5.718c-28.95 70.214-12.956 150.283 40.746 203.985 35.388 35.387 82.438 54.876 132.484 54.876s97.096-19.489 132.483-54.876c33.24-33.24 52.588-77.189 54.68-124.05l49.377-49.377c52.146-52.147 53.863-135.914 5.157-190.148zm-243.24 37.038c-14.972-5.265-28.746-13.918-40.051-25.223l-29.554-29.554 29.554-29.554c20.156-20.156 46.954-31.256 75.457-31.256 30.356-.129 58.68 12.846 79.242 35.041-16.486 3.086-32.514 9.174-47.197 18.269h-50.594v15h30.667c-.839.382-45.193 45.018-47.524 47.277z"/><path d="m196.562 68.31h14.996v15h-14.996z"/></g></g><g/><g/><g/><g/><g/><g/><g/><g/><g/><g/><g/><g/><g/><g/><g/></svg>