<svg id="Capa_1" enable-background="new 0 0 512 512" viewBox="0 0 512 512" xmlns="http://www.w3.org/2000/svg"><g><g><g><g><path d="m491.462 132.079-27.045-10.073-10.075-27.047-27.047-10.076-10.076-27.046-27.047-10.077-10.079-27.05-27.051-10.08-12.132 33.016 127.444 127.444 33.181-11.967z" fill="#8ad8f6"/></g><g><g><path d="" fill="#54c9f3"/></g><g><path d="m340.91 43.646 127.444 127.444 24.231-9.115-142.442-142.442z" fill="#54c9f3"/></g></g><g><path d="m341.075 43.811-297.264 297.264 95.647 108.627 31.632 18.652 297.264-297.264z" fill="#8ad8f6"/></g><g><path d="m43.646 340.91-33.181 11.967 10.073 27.044 27.044 10.073 10.076 27.047 27.047 10.076 10.076 27.046 27.047 10.077 10.079 27.05 27.051 10.079 12.132-33.015z" fill="#8ad8f6"/></g><g><path d="m149.78 473.418-10.08-27.05-27.047-10.077-10.076-27.046-27.046-10.076-10.076-27.047-27.045-10.074-6.321-16.97-21.624 7.799 10.073 27.044 27.044 10.073 10.076 27.047 27.047 10.076 10.076 27.046 27.047 10.077 10.079 27.05 27.051 10.079 7.929-21.577z" fill="#54c9f3"/></g><g><path d="m104.127 306.69h22.697v180h-22.697z" fill="#54c9f3" transform="matrix(.707 -.707 .707 .707 -246.68 197.84)"/></g><g><path d="m223.397 350.399-61.962-61.962c-18.037-18.037-18.037-47.28 0-65.317l51.356-51.356c18.037-18.037 47.28-18.037 65.317 0l61.962 61.962c18.037 18.037 18.037 47.28 0 65.317l-51.355 51.356c-18.037 18.037-47.281 18.037-65.318 0z" fill="#fee95d"/></g><g><g><path d="m238.461 335.336-61.962-61.962c-18.037-18.037-18.037-47.28-.001-65.316l-15.063 15.063c-18.037 18.037-18.037 47.28 0 65.317l61.962 61.962c18.037 18.037 47.28 18.037 65.317 0l15.064-15.064c-18.037 18.036-47.28 18.036-65.317 0z" fill="#e7c900"/></g></g><g><path d="m306.655 145.548h90v29.926h-90z" fill="#f05475" transform="matrix(.707 .707 -.707 .707 216.496 -201.645)"/></g><g><path d="m333.522 78.791h15v15h-15z" fill="#fff" transform="matrix(.707 -.707 .707 .707 38.866 266.413)"/></g><g><path d="m354.735 100.005h15v15h-15z" fill="#fff" transform="matrix(.707 -.707 .707 .707 30.079 287.626)"/></g></g></g><g><path d="m473.241 176.839 38.759-13.99-13.924-37.408-27.06-10.087-10.082-27.082-27.063-10.089-10.082-27.082-27.063-10.09-10.085-27.085-37.347-13.926-14.366 39.114-295.651 295.861-39.277 14.176 13.924 37.408 27.061 10.087 10.082 27.082 27.063 10.089 10.082 27.082 27.064 10.09 10.086 27.085 37.344 13.926 14.171-38.588zm-254.39 63.399-47.706 47.74s-8.443-8.907-9.954-11.281l104.811-104.885c2.372 1.512 11.272 9.96 11.272 9.96l-47.897 47.931 10.613 10.62 47.898-47.931 10.613 10.62-106.13 106.206-10.613-10.621 47.706-47.74zm2.201-65.926c8.119-6.603 18.927-9.615 29.39-8.17l-94.918 94.986c-1.443-10.471 1.565-21.285 8.164-29.411zm88.062 39.322 10.613 10.621-106.13 106.205-10.613-10.621zm21.227 21.242c3.344 3.31 7.562 7.337 9.87 11.364l-104.645 104.719c-4.014-2.301-8.058-6.541-11.356-9.878zm15.342 27.129c1.339 11.38-2.334 23.245-11.04 31.958l-51.386 51.423c-8.707 8.713-20.564 12.389-31.937 11.049zm29.286-236.402 10.085 27.085 27.063 10.09 10.083 27.082 27.063 10.089 10.082 27.082 27.06 10.087 6.234 16.751-22.772 8.219-120.006-120.092 8.319-22.654zm-34.014 28.721 116.744 116.826-96.769 96.837c.372-14.234-4.843-28.589-15.674-39.429l-62.001-62.044c-10.302-10.308-24.121-15.96-38.697-15.727zm-203.924 432.073-10.086-27.085-27.064-10.09-10.082-27.082-27.063-10.09-10.082-27.082-27.06-10.087-6.235-16.751 22.266-8.036 92.096 92.161 10.613-10.62-90.212-90.275 86.085-86.146c-.19 14.011 5.032 28.082 15.691 38.749l62 62.044c10.844 10.82 25.108 16.09 39.4 15.686l-86.433 86.494-15.919-15.931-10.613 10.62 17.619 17.632-8.134 22.149z"/><path d="m404.579 181.825-74.291-74.344-31.787 31.809 74.291 74.344zm-74.291-53.103 53.066 53.103-10.561 10.568-53.066-53.103z"/><path d="m153.024 306.658h15.014v90.087h-15.014z" transform="matrix(.707 -.707 .707 .707 -201.625 216.396)"/><path d="m131.707 343.004h15.014v60.058h-15.014z" transform="matrix(.707 -.707 .707 .707 -222.94 207.569)"/></g></g><g/><g/><g/><g/><g/><g/><g/><g/><g/><g/><g/><g/><g/><g/><g/></svg>