<svg id="Capa_1" enable-background="new 0 0 512 512" viewBox="0 0 512 512" xmlns="http://www.w3.org/2000/svg"><g><g><g><g><path d="m429.16 143.742h-106.245c-24.509 0-44.378 19.869-44.378 44.378v316.317h195v-316.318c0-24.509-19.868-44.377-44.377-44.377z" fill="#e3edf6"/></g><g><path d="m301.074 482.032v-316.317c0-6.453 1.256-12.577 3.732-18.108-15.479 6.93-26.269 22.456-26.269 40.513v316.317h195v-22.404h-172.463z" fill="#c5d9ec"/></g><g><path d="m444.682 238.678c-42.088-26.186-95.373-26.289-137.562-.267l-28.413 17.525v180.956c0 12.115 9.821 21.936 21.936 21.936h150.681c12.115 0 21.936-9.821 21.936-21.936v-180.275z" fill="#57758d"/></g><g><path d="m301.074 435.936v-193.615l-22.367 13.615v180.956c0 12.115 9.821 21.936 21.936 21.936h150.681c12.115 0 21.936-9.821 21.936-21.936v-.956z" fill="#4b6276"/></g><g><path d="m189.085 143.742h-106.245c-24.509 0-44.378 19.869-44.378 44.378v316.317h195v-316.318c.001-24.509-19.868-44.377-44.377-44.377z" fill="#8ad8f6"/></g><g><path d="m61.037 482.032v-316.317c0-6.453 1.218-12.577 3.695-18.108-15.479 6.93-26.269 22.456-26.269 40.513v316.317h195v-22.404h-172.426z" fill="#54c9f3"/></g><g><path d="m204.608 238.678c-42.088-26.186-95.373-26.289-137.562-.267l-28.413 17.525v180.956c0 12.115 9.821 21.936 21.936 21.936h150.681c12.115 0 21.936-9.821 21.936-21.936v-180.275z" fill="#fff"/></g><g><path d="m61.037 435.936v-193.615l-22.404 13.615v180.956c0 12.115 9.821 21.936 21.936 21.936h150.681c12.115 0 21.936-9.821 21.936-21.936v-.956z" fill="#e3edf6"/></g><g><path d="m293.537 113.742h165v30h-165z" fill="#eb975d"/></g><g><path d="m308.537 83.747h135v30h-135z" fill="#b25e1e"/></g><g><path d="m473.537 83.752h-195v-24.162c0-28.733 23.293-52.027 52.027-52.027h90.947c28.733 0 52.027 23.293 52.027 52.027v24.162z" fill="#eb975d"/></g><g><path d="m301.516 60.774v-24.162c0-8.442 2.023-16.406 5.592-23.456-16.946 8.577-28.57 26.143-28.57 46.435v24.162h195v-22.979z" fill="#b25e1e"/></g><g><path d="m53.463 113.742h165v30h-165z" fill="#eb975d"/></g><g><path d="m68.463 83.747h135v30h-135z" fill="#b25e1e"/></g><g><path d="m233.463 83.752h-195v-24.162c0-28.733 23.293-52.027 52.027-52.027h90.947c28.734 0 52.027 23.293 52.027 52.027v24.162z" fill="#eb975d"/></g><g><path d="m61.442 60.774v-24.162c0-8.442 2.023-16.406 5.592-23.456-16.946 8.577-28.57 26.143-28.57 46.435v24.162h195v-22.979z" fill="#b25e1e"/></g><g><circle cx="376.112" cy="338.184" fill="#fee95d" r="67.5"/></g><g><path d="m391.59 390.206c-37.279 0-67.5-30.221-67.5-67.5 0-14.688 4.706-28.27 12.673-39.349-17.042 12.252-28.151 32.237-28.151 54.827 0 37.279 30.221 67.5 67.5 67.5 22.591 0 42.575-11.109 54.827-28.15-11.08 7.966-24.661 12.672-39.349 12.672z" fill="#e7c900"/></g><g><circle cx="135.91" cy="338.184" fill="#fee95d" r="67.5"/></g><g><path d="m151.388 390.206c-37.279 0-67.5-30.221-67.5-67.5 0-14.688 4.706-28.27 12.673-39.349-17.042 12.252-28.151 32.237-28.151 54.827 0 37.279 30.221 67.5 67.5 67.5 22.591 0 42.575-11.109 54.827-28.15-11.08 7.966-24.661 12.672-39.349 12.672z" fill="#e7c900"/></g><g><path d="m61.037 173.437h15v15h-15z" fill="#fff"/></g><g><path d="m91.037 173.437h45.776v15h-45.776z" fill="#fff"/></g></g></g><g><path d="m481 91.211v-31.67c0-32.831-26.703-59.541-59.526-59.541h-90.947c-32.824 0-59.527 26.71-59.527 59.542v31.67h30v14.993h-15v45.461c-9.262 9.378-15 22.245-15 36.437v323.897h142.5v-15.004h-127.5v-34.512c4.308 2.474 9.293 3.897 14.606 3.897h150.681c5.357 0 10.381-1.446 14.713-3.958v34.574h-37.5v15.003h52.5v-323.898c0-14.192-5.738-27.059-15-36.437v-45.461h-15v-14.993zm-180 29.997h150v15.004h-150zm15-15.003v-14.994h120v14.993h-120zm150 330.732h-.276c0 7.962-6.477 14.44-14.437 14.44h-150.681c-7.96 0-14.437-6.478-14.437-14.44h-.169v-176.709l25.021-15.436c40.037-24.701 89.722-24.604 129.663.252l25.316 15.754zm0-248.835v55.025l-17.393-10.824c-43.462-27.582-101.892-27.695-145.462-.282l-17.145 10.579v-54.497c0-20.34 16.543-36.887 36.878-36.887h106.244c20.335 0 36.878 16.547 36.878 36.886zm-180-111.895v-16.665c0-24.558 19.975-44.538 44.526-44.538h90.947c24.552 0 44.526 19.98 44.526 44.538v16.666h-179.999z"/><path d="m368.5 30.88h15v14.725h-15z"/><path d="m406 30.88h15v14.725h-15z"/><path d="m331 30.88h15v14.725h-15z"/><path d="m181.474 0h-90.948c-32.823 0-59.526 26.71-59.526 59.542v31.67h30v14.993h-15v45.461c-9.262 9.378-15 22.245-15 36.437v97.841h15v-25.716l25.021-15.436c40.037-24.701 89.722-24.604 129.663.252l25.316 15.754v176.139h-.276c0 7.962-6.477 14.44-14.437 14.44h-150.681c-7.96 0-14.437-6.478-14.437-14.44h-.169v-135.99h-15v211.053h210v-323.898c0-14.192-5.738-27.059-15-36.437v-45.461h-15v-14.993h30v-31.67c0-32.831-26.703-59.541-59.526-59.541zm44.526 496.996h-180v-34.512c4.308 2.474 9.293 3.897 14.606 3.897h150.681c5.357 0 10.381-1.446 14.713-3.958zm-165-375.788h150v15.004h-150zm15-15.003v-14.994h120v14.993h-120zm150 81.897v55.025l-17.393-10.824c-43.462-27.582-101.892-27.695-145.462-.282l-17.145 10.579v-54.497c0-20.34 16.543-36.887 36.878-36.887h106.244c20.335 0 36.878 16.547 36.878 36.886zm0-111.895h-180v-16.665c0-24.558 19.975-44.538 44.526-44.538h90.947c24.552 0 44.526 19.98 44.526 44.538v16.665z"/><path d="m128.5 30.88h15v14.725h-15z"/><path d="m166 30.88h15v14.725h-15z"/><path d="m91 30.88h15v14.725h-15z"/><path d="m136.021 360.71h-22.573v15.004h22.573c12.406 0 22.5-10.096 22.5-22.506s-10.094-22.506-22.595-22.506c-4.136 0-7.5-3.365-7.5-7.502s3.364-7.502 7.5-7.502h22.521v-15.004h-22.521c-12.406 0-22.5 10.096-22.5 22.506s10.094 22.506 22.595 22.506c4.136 0 7.5 3.365 7.5 7.502s-3.365 7.502-7.5 7.502z"/><path d="m376.074 300.695h-22.5v75.172h15v-30.16h7.5c12.406 0 22.5-10.096 22.5-22.506s-10.094-22.506-22.5-22.506zm0 30.008h-7.5v-15.004h7.5c4.136 0 7.5 3.365 7.5 7.502s-3.364 7.502-7.5 7.502z"/><path d="m210.926 338.205c0-41.365-33.645-75.019-75-75.019s-75 33.653-75 75.019 33.645 75.019 75 75.019 75-33.654 75-75.019zm-135 0c0-33.092 26.916-60.015 60-60.015s60 26.923 60 60.015-26.916 60.015-60 60.015-60-26.923-60-60.015z"/><path d="m376.074 263.186c-41.355 0-75 33.653-75 75.019s33.645 75.019 75 75.019 75-33.653 75-75.019-33.644-75.019-75-75.019zm0 135.034c-33.084 0-60-26.923-60-60.015s26.916-60.015 60-60.015 60 26.923 60 60.015-26.916 60.015-60 60.015z"/><path d="m301.074 420.977h15v15.004h-15z"/><path d="m436.074 405.722h15v15.256h-15z"/></g></g><g/><g/><g/><g/><g/><g/><g/><g/><g/><g/><g/><g/><g/><g/><g/></svg>