<svg id="Capa_1" enable-background="new 0 0 512 512" viewBox="0 0 512 512" xmlns="http://www.w3.org/2000/svg"><g><g><g><g><path d="m162.135 45.576c-45.622 45.622-45.622 119.59 0 165.212l13 13 96.983-64.002 24.41-136.356c-43.67-21.595-98.033-14.213-134.393 22.146z" fill="#00c278"/></g><g><path d="m467.426 351.529c-45.622 45.622-119.59 45.622-165.212 0l-13-13 64.002-96.983 136.356-24.41c21.596 43.671 14.213 98.034-22.146 134.393z" fill="#00c278"/></g><g><path d="m318.299 335.445-16.295-16.295-12.79 19.38 13 13c45.622 45.622 119.59 45.622 165.212 0 2.694-2.694 5.208-5.497 7.584-8.376-45.89 37.744-113.824 35.178-156.711-7.709z" fill="#00a666"/></g><g><path d="m178.267 196.657c-44.917-44.917-45.611-117.311-2.082-163.077-4.915 3.571-9.618 7.564-14.049 11.996-45.622 45.622-45.622 119.59 0 165.212l13 13 20.012-10.251z" fill="#00a666"/></g><g><path d="m359.427 9c-79.546 0-144.031 64.485-144.031 144.031v95.843l48.188 48.188h95.843c79.546 0 144.031-64.485 144.031-144.031s-64.484-144.031-144.031-144.031z" fill="#00c278"/></g><g><path d="m66.197 446.262 32.078 32.078c35.155 35.155 92.152 35.155 127.307 0 20.827-20.827 35.282-47.163 41.667-75.916l2.944-13.255c7.644-34.417 24.184-66.167 47.899-92.112h-71.377z" fill="#e3edf6"/></g><g><path d="m66.699 446.817-32.078-32.078c-35.155-35.155-35.155-92.152 0-127.307 20.827-20.827 47.163-35.282 75.916-41.667l13.255-2.944c34.417-7.644 66.167-24.184 92.112-47.899v71.377z" fill="#e3edf6"/></g><g><path d="m50.966 398.394c-32.748-32.748-34.974-84.442-6.71-119.785-3.321 2.803-6.545 5.734-9.635 8.823-35.155 35.155-35.155 92.152 0 127.307l32.078 32.078 14.792-17.897z" fill="#c5d9ec"/></g><g><path d="m246.714 297.056-180.517 149.206 32.078 32.078c35.155 35.155 92.152 35.155 127.307 0 3.268-3.268 6.36-6.687 9.308-10.215-21.642 17.098-49.314 22.827-75.009 17.22 17.804-3 34.884-11.344 48.623-25.083 20.827-20.827 35.282-47.163 41.667-75.916l2.944-13.255c5.949-26.787 17.289-51.957 33.204-74.034h-39.605z" fill="#c5d9ec"/></g><g><path d="m380.874 275.615h-73.938c49.055-44.836-21.177-118.898-70.092-69.983.36-55.584-7.662-120.251 32.032-164.6-67.851 53.132-51.95 131.368-53.479 207.841l48.188 48.188c76.479-1.512 154.769 14.337 207.841-53.479-24.74 20.029-56.242 32.033-90.552 32.033z" fill="#00a666"/></g><g><path d="m292.253 258.451 3.122-3.122c10.546-10.546 10.546-27.646 0-38.192s-27.646-10.546-38.192 0l-3.08 3.08c-27.088 27.088-61.346 45.878-98.747 54.163l-13.238 2.932c-28.756 6.37-55.095 20.817-75.922 41.643-35.155 35.155-35.155 92.152 0 127.306 35.155 35.155 92.152 35.155 127.306 0 20.827-20.827 35.282-47.163 41.667-75.916l2.944-13.255c8.298-37.359 27.079-71.578 54.14-98.639z" fill="#fff"/></g><g><path d="m82.462 429.997c-32.759-32.759-34.976-84.476-6.683-119.82-3.303 2.79-6.51 5.706-9.583 8.779-35.155 35.155-35.155 92.152 0 127.306 35.155 35.155 92.152 35.155 127.306 0 3.073-3.073 5.99-6.28 8.781-9.584-35.343 28.295-87.062 26.078-119.821-6.681z" fill="#e3edf6"/></g></g></g><g><path d="m512 151.531c0-83.554-67.977-151.531-151.531-151.531-22.891 0-44.608 5.112-64.083 14.239-46.956-21.124-102.23-11.144-138.885 25.511-50.85 50.504-47.573 133.938 5.636 181.455-28.429 14.626-62.129 14.849-90.467 29.704l6.658 13.44c14.335-7.417 30.968-11.534 46.744-14.745 30.186-6.687 58.523-20.066 82.865-38.963v34.782c-20.569 12.149-44.206 19.467-67.773 24.042-53.267 11.921-109.022 53.348-108.164 112.62 0 7.104.76 14.09 2.231 20.87-12.178-14.739-18.806-33.082-18.806-52.446-.779-33.41 21.271-61.221 48.631-78.069l-8.113-12.616c-31.706 19.497-56.339 52.22-55.518 90.685 0 26.048 10.144 50.538 28.562 68.957l18.772 18.772h-48.759v15h48.759l-36.732 36.732 10.607 10.606 36.732-36.731v48.155h15v-48.155l19.274 19.274c18.419 18.419 42.908 28.563 68.956 28.563 26.049 0 50.538-10.144 68.957-28.563 21.873-21.874 36.979-49.396 43.686-79.593 3.689-18.161 8.619-36.881 16.702-53.517 25.258 27.786 61.837 43.868 99.413 41.871l-.709-14.983c-35.356 2.101-68.427-14.628-91.45-40.847 6.734-11.766 14.706-22.831 23.801-32.988h37.472c54.008 0 101.5-28.407 128.339-71.059 13.591 39.16 3.943 82.995-26.058 112.996-15.912 15.913-35.99 26.399-58.062 30.324l2.627 14.769c25.11-4.465 47.947-16.39 66.043-34.486 37.252-37.252 46.922-93.265 24.703-140.632 8.94-19.31 13.94-40.803 13.94-63.443zm-334.9 62.423c-49.626-41.524-55.656-117.456-8.992-163.597 29.407-29.408 72.441-39.279 111.114-26.681-42.222 26.925-70.284 74.173-70.284 127.855v39.656c-9.842 8.666-20.515 16.291-31.838 22.767zm-104.93 109.781c59.498-59.047 115.62-25.665 187.906-98.738 20.512-24.346 51.924 7.183 27.543 27.627h-.001c-28.117 28.118-47.536 63.499-56.156 102.316-8.529 50.943-43.222 109.96-100.942 109.663-22.042 0-42.765-8.583-58.35-24.169-15.587-15.585-24.17-36.307-24.17-58.349s8.583-42.764 24.17-58.35zm191.37 63.284c-8.527 50.94-43.224 109.963-100.943 109.664-19.693 0-38.321-6.869-53.185-19.446 6.947 1.529 14.024 2.322 21.107 2.322 58.075 1.402 101.208-55.045 112.642-108.111 4.627-23.808 12.078-47.65 24.441-68.386h35.808c-19.369 24.576-33.064 53.313-39.87 83.957zm96.929-98.957h-83.219c6.254-8.804 13.259-17.114 20.975-24.831 11.517-9.696 16.302-25.483 11.216-39.118h94.543v-15h-89.833l42.351-42.351h47.788v-15h-32.788l25.389-25.389-10.607-10.606-25.389 25.389v-32.789h-15v47.789l-42.351 42.351v-89.833h-15v94.543c-13.613-5.074-29.383-.322-39.076 11.173-7.921 7.922-16.467 15.094-25.531 21.473v-84.333c.001-75.282 61.249-136.53 136.532-136.53s136.531 61.248 136.531 136.531-61.248 136.531-136.531 136.531z"/><path d="m400.839 96.956h14.726v15h-14.726z" transform="matrix(.707 -.707 .707 .707 45.708 319.254)"/><path d="m114.229 328.075-7.711-12.866c-4.653 2.79-9.094 6.062-13.197 9.728l9.994 11.187c3.399-3.038 7.072-5.745 10.914-8.049z"/><path d="m94.05 346.075-11.877-9.162c-3.367 4.365-6.308 9.042-8.741 13.901l13.414 6.715c2.001-3.998 4.425-7.852 7.204-11.454z"/></g></g><g/><g/><g/><g/><g/><g/><g/><g/><g/><g/><g/><g/><g/><g/><g/></svg>