<svg id="Capa_1" enable-background="new 0 0 512 512" viewBox="0 0 512 512" xmlns="http://www.w3.org/2000/svg"><g><g><g><g><path d="m7.5 83.58h496.441v390h-496.441z" fill="#57758d"/></g><g><path d="m7.5 53.548h496.441v30.032h-496.441z" fill="#a8c6e2"/></g><g><path d="m7.5 473.58h496.441v30.032h-496.441z" fill="#a8c6e2"/></g><g><path d="m30.402 450.972v-367.392h-22.902v390h496.441v-22.608z" fill="#4b6276"/></g><g><path d="m68.5 203.532h375v239.952h-375z" fill="#8ad8f6"/></g><g><path d="m91.14 420.845v-217.313h-22.64v239.952h375v-22.639z" fill="#54c9f3"/></g><g><path d="m166 203.532v8.335c0 12.044 9.764 21.809 21.809 21.809h121.383c12.045 0 21.809-9.764 21.809-21.809v-8.335z" fill="#4b6276"/></g><g><path d="m443.5 203.532h-375c-8.284 0-15-6.716-15-15s6.716-15 15-15h375c8.284 0 15 6.716 15 15s-6.716 15-15 15z" fill="#f05475"/></g><g><circle cx="406" cy="128.484" fill="#c5d9ec" r="15"/></g><g><circle cx="346" cy="128.484" fill="#c5d9ec" r="15"/></g><g><circle cx="151" cy="128.484" fill="#c5d9ec" r="15"/></g><g><circle cx="91" cy="128.484" fill="#c5d9ec" r="15"/></g><g><path d="m203.5 113.556h90v30h-90z" fill="#8ad8f6"/></g><g><path d="m106 256.063h15v15h-15z" fill="#fff"/></g><g><path d="m136 256.063h45v15h-45z" fill="#fff"/></g></g></g><g><path d="m428.5 46.062v-46.062h-29.798v14.999h14.798v31.062h-30v-22.243h-15v22.244h-30v-31.063h14.798v-14.999h-29.798v46.062h-150v-46.062h-29.798v14.999h14.798v31.062h-30v-22.243h-15v22.244h-30v-31.063h14.798v-14.999h-29.798v46.062h-68.5v465.938h406v-14.999h-391v-15.936h482v15.936h-76v14.999h91v-465.938zm68.5 14.999v15.03h-482v-15.03zm-482 405.005v-374.976h482v374.977h-482z"/><path d="m466 188.536c0-12.406-10.093-22.499-22.5-22.499h-375c-12.407 0-22.5 10.093-22.5 22.499 0 9.776 6.271 18.112 15 21.208v91.269h15v-89.979h82.5c-.454 16.445 12.839 30.168 29.309 30.142h121.383c16.467.027 29.765-13.697 29.309-30.142h97.499v224.938h-360v-119.96h-15v134.959h390v-241.226c8.729-3.097 15-11.433 15-21.209zm-142.5 23.334c0 7.889-6.419 14.308-14.309 14.308h-121.382c-8.212.026-14.737-6.973-14.309-15.143h150zm120-15.834h-375c-4.136 0-7.5-3.364-7.5-7.5s3.364-7.5 7.5-7.5h375c4.136 0 7.5 3.364 7.5 7.5 0 4.135-3.364 7.5-7.5 7.5z"/><path d="m406 150.991c12.407 0 22.5-10.093 22.5-22.499 0-12.405-10.093-22.499-22.5-22.499s-22.5 10.093-22.5 22.499c0 12.405 10.093 22.499 22.5 22.499zm0-29.999c4.136 0 7.5 3.364 7.5 7.5s-3.364 7.5-7.5 7.5-7.5-3.364-7.5-7.5 3.364-7.5 7.5-7.5z"/><path d="m346 150.991c12.407 0 22.5-10.093 22.5-22.499 0-12.405-10.093-22.499-22.5-22.499s-22.5 10.093-22.5 22.499c0 12.405 10.093 22.499 22.5 22.499zm0-29.999c4.136 0 7.5 3.364 7.5 7.5s-3.364 7.5-7.5 7.5-7.5-3.364-7.5-7.5 3.364-7.5 7.5-7.5z"/><path d="m151 150.991c12.407 0 22.5-10.093 22.5-22.499 0-12.405-10.093-22.499-22.5-22.499s-22.5 10.093-22.5 22.499c0 12.405 10.093 22.499 22.5 22.499zm0-29.999c4.136 0 7.5 3.364 7.5 7.5s-3.364 7.5-7.5 7.5-7.5-3.364-7.5-7.5 3.364-7.5 7.5-7.5z"/><path d="m91 150.991c12.407 0 22.5-10.093 22.5-22.499 0-12.405-10.093-22.499-22.5-22.499s-22.5 10.093-22.5 22.499c0 12.405 10.093 22.499 22.5 22.499zm0-29.999c4.136 0 7.5 3.364 7.5 7.5s-3.364 7.5-7.5 7.5-7.5-3.364-7.5-7.5 3.364-7.5 7.5-7.5z"/><path d="m301 106.065h-105v44.998h105zm-15 29.998h-75v-14.999h75z"/></g></g><g/><g/><g/><g/><g/><g/><g/><g/><g/><g/><g/><g/><g/><g/><g/></svg>