<svg id="Capa_1" enable-background="new 0 0 512 512" viewBox="0 0 512 512" xmlns="http://www.w3.org/2000/svg"><g><g><g><g><path d="m166 135.968c-57.99 0-105 47.01-105 105 0 29.383 12.069 55.947 31.521 75.005l358.479-.005v-180z" fill="#ffb680"/></g><g><path d="m166 165.968c-41.421 0-75 33.579-75 75s33.579 75 75 75h285v-150z" fill="#fee95d"/></g><g><path d="m173.867 293.292c-41.421 0-75-33.578-75-75 0-4.435.407-8.773 1.146-12.997-5.748 10.609-9.013 22.759-9.013 35.673 0 41.421 33.579 75 75 75h285v-22.676z" fill="#e7c900"/></g><g><path d="m405.995 315.973 45.005-.005v-45c-24.856 0-45.005 20.149-45.005 45.005z" fill="#fef2e2"/></g><g><path d="m315.426 166.606c0 16.921 13.717 30.639 30.638 30.639s30.638-13.717 30.638-30.639z" fill="#fef2e2"/></g><g><path d="m118.448 182.964c-4.949 4.061-12.457 11.269-18.435 22.331-7.191 13.306-8.643 25.665-8.942 32.435 1.379.771 3.316 1.714 5.742 2.476 2.9.911 5.987 1.401 9.188 1.401 16.921 0 30.638-13.717 30.638-30.638-.001-12.49-7.473-23.233-18.191-28.005z" fill="#fef2e2"/></g><g><path d="m7.5 315.968h497v30h-497z" fill="#8bb2d8"/></g><g><path d="m445.756 376.032h-379.512l-20.244-30h420z" fill="#e3edf6"/></g><g><circle cx="301" cy="240.968" fill="#fef2e2" r="15"/></g><g><circle cx="211" cy="263.468" fill="#fef2e2" r="22.5"/></g><g><path d="m166 188.468h15v15h-15z" fill="#fff"/></g><g><path d="m196 188.468h15v15h-15z" fill="#fff"/></g></g></g><g><path d="m512 308.5h-53.5v-180h-232.5v15h217.5v15h-277.5c-45.491 0-82.5 37.01-82.5 82.5 0 27.881 13.916 52.559 35.153 67.5h-23.003c-17.53-18.239-27.15-42.089-27.15-67.501 0-53.761 43.738-97.499 97.5-97.499h44.873v-15h-44.873c-62.033 0-112.5 50.468-112.5 112.5 0 24.711 7.883 48.144 22.469 67.5h-75.969v45h41.936l20.331 30h298.733v-15h-290.778l-10.165-15h391.887l-10.166 15h-65.778v15h73.733l20.33-30h41.937zm-97.75 0c2.992-14.672 14.577-26.256 29.25-29.246v29.246zm-46.087-135c-2.931 9.418-11.729 16.276-22.099 16.276s-19.169-6.858-22.1-16.276zm-248.708 18.684c21.114 15.353 4.564 48.573-20.471 40.862 1.887-15.995 9.385-30.287 20.471-40.862zm-20.532 56.287c37.275 7.328 60.923-40.36 32.806-65.59 10.053-5.951 21.766-9.381 34.271-9.381h142.556c3.243 17.764 18.822 31.276 37.508 31.276s34.265-13.512 37.508-31.276h59.928v90.544c-22.958 3.299-41.159 21.499-44.46 44.456h-233.04c-34.694 0-63.346-26.314-67.077-60.029zm398.077 90.029h-482v-15h482z"/><path d="m301 218.5c-12.407 0-22.5 10.094-22.5 22.5s10.093 22.5 22.5 22.5 22.5-10.094 22.5-22.5-10.093-22.5-22.5-22.5zm0 30c-4.136 0-7.5-3.364-7.5-7.5s3.364-7.5 7.5-7.5 7.5 3.364 7.5 7.5-3.364 7.5-7.5 7.5z"/><path d="m211 233.5c-16.542 0-30 13.458-30 30s13.458 30 30 30 30-13.458 30-30-13.458-30-30-30zm0 45c-8.271 0-15-6.729-15-15s6.729-15 15-15 15 6.729 15 15-6.729 15-15 15z"/><path d="m346 263.5h15v15h-15z"/><path d="m390.995 218.5h15v15h-15z"/></g></g><g/><g/><g/><g/><g/><g/><g/><g/><g/><g/><g/><g/><g/><g/><g/></svg>