<svg id="Capa_1" enable-background="new 0 0 512 512" viewBox="0 0 512 512" xmlns="http://www.w3.org/2000/svg"><g><g><g><g><path d="m489.159 68.665-24.284-24.283c-41.093-41.093-104.936-48.663-154.597-18.481-71.649 43.544-124.338 90.124-159.284 125.069-54.832 54.831-95.427 110.471-125.246 159.586-30.095 49.568-22.343 113.295 18.661 154.298l24.28 24.28c20.455 20.455 53.62 20.455 74.075 0l346.395-346.394c20.455-20.455 20.455-53.619 0-74.075z" fill="#eb975d"/></g><g><path d="m291.959 37.356c1.465 67.51 8.824 118.845 17.682 118.845 9.785 0 17.741-62.645 17.943-140.536z" fill="#ffdaaa"/></g><g><path d="m215.559 92.726c.262 77.464 8.194 139.616 17.94 139.616 7.843 0 14.511-40.249 16.953-96.336l.755-70.727z" fill="#ffdaaa"/></g><g><path d="m174.711 128.161-35.3 36.75c0 79.293 8.035 143.574 17.947 143.574s17.947-64.28 17.947-143.574c-.001-12.704-.207-25.021-.594-36.75z" fill="#ffdaaa"/></g><g><path d="m98.694 208.3-35.354 45.581c.811 73.283 8.505 130.744 17.876 130.744 9.912 0 17.947-64.28 17.947-143.574 0-11.267-.162-22.231-.469-32.751z" fill="#ffdaaa"/></g><g><path d="m158.083 473.815c-20.455 20.455-53.62 20.455-74.075 0l-24.28-24.28c-41.004-41.004-48.755-104.73-18.661-154.298 28.445-46.85 66.704-99.637 117.762-151.997-2.7 2.631-5.319 5.214-7.835 7.729-54.832 54.832-95.427 110.472-125.246 159.587-30.095 49.568-22.343 113.295 18.661 154.298l24.28 24.28c20.455 20.455 53.62 20.455 74.075 0z" fill="#b25e1e"/></g><g><path d="m379.107 43.81h15v15h-15z" fill="#fff" transform="matrix(.707 -.707 .707 .707 76.975 288.429)"/></g><g><path d="m357.893 65.022h15v15.001h-15z" fill="#fff" transform="matrix(.707 -.707 .707 .707 55.74 279.613)"/></g></g></g><g><path d="m494.577 63.428-24.285-24.289c-43.633-43.636-110.992-51.692-163.808-19.59-58.396 35.495-112.465 77.953-160.702 126.196-48.32 48.326-90.835 102.502-126.362 161.024-31.97 52.663-23.84 119.906 19.77 163.521l24.282 24.283c22.289 23.235 62.398 23.233 84.687.001l56.643-56.649-10.607-10.609-56.643 56.649c-16.707 17.415-46.767 17.414-63.473 0l-24.282-24.284c-38.708-38.711-45.927-98.39-17.554-145.125 7.722-12.72 15.799-25.217 24.18-37.503.862 26.977 2.687 51.565 5.3 70.804 2.69 14.631 4.532 43.752 19.581 44.389 9.257 0 12.707-11.675 14.18-16.66 11.508-47.273 11.667-108.131 10.87-164.537 8.362-9.989 16.958-19.778 25.772-29.364 1.212 26.868 1.045 136.041 25.324 134.408 9.257 0 12.707-11.675 14.18-16.66 11.697-48.132 11.761-110.897 10.771-167.979 8.479-7.78 17.126-15.378 25.92-22.805 1.299 43.676 2.342 80.14 11.214 115.028 1.466 4.866 4.896 16.262 14.062 16.262 21.691-.209 22.078-75.493 24.447-103.527l-14.986-.652c-1.9 43.641-6.022 70.314-9.443 82.634-8.28-33.24-9.813-78.97-10.436-122.019 6.856-5.527 13.802-10.941 20.829-16.251.111 13.542-.034 27.495-.415 40.745l14.995.43c.489-17 .585-34.953.288-52.154 8.574-6.188 17.264-12.217 26.067-18.08 2.212 28.773 2.082 112.566 24.799 112.722 9.189-.001 12.623-11.462 14.09-16.355 9.468-38.062 10.279-77.13 11.319-125.107 42.736-15.725 91.363-5.749 124.534 27.425l24.286 24.289c17.411 16.708 17.411 46.77-.001 63.477l-278.177 278.203 10.607 10.609 278.176-278.206c23.232-22.291 23.231-62.403.001-84.694zm-402.826 177.718c-.371 45.499-1.766 94.233-10.446 129.492-1.609-5.659-3.638-15.272-5.556-31.394-2.685-22.565-4.375-51.897-4.788-82.833 6.723-9.247 13.628-18.359 20.72-27.321.042 4.007.07 8.026.07 12.056zm76.146-76.153c-.371 45.497-1.766 94.241-10.447 129.496-8.633-35.025-10.041-83.388-10.445-128.59 6.775-7.011 13.686-13.888 20.718-20.642.113 6.519.174 13.11.174 19.736zm147.784-57.54c-2.025 18.141-4.218 28.679-5.936 34.717-7.157-28.607-8.823-63.503-10.084-100.684 6.738-4.217 13.408-8.633 20.409-12.397-.418 29.03-1.944 56.461-4.389 78.364z"/></g></g><g/><g/><g/><g/><g/><g/><g/><g/><g/><g/><g/><g/><g/><g/><g/></svg>