<svg id="Capa_1" enable-background="new 0 0 512 512" viewBox="0 0 512 512" xmlns="http://www.w3.org/2000/svg"><g><g><g><g><g><path d="m336.926 152.945c16.509-19.612 41.241-32.073 68.883-32.073 49.706 0 90 40.294 90 90 0 25.558-10.653 48.627-27.761 65.01l-17.236-25.326c9.334-10.577 14.997-24.469 14.997-39.684 0-33.137-26.863-60-60-60-23.046 0-43.058 12.993-53.108 32.054z" fill="#e3edf6"/></g><g><path d="m108.485 471.46c15.916 20.144 40.562 33.072 68.228 33.072h303.096v-176.736c0-47.588-30.08-89.978-75-105.69s-75-58.102-75-105.69v-47.737h-90v47.737c0 47.588-30.08 89.978-75 105.69s-75 58.102-75 105.69v6.131z" fill="#e3edf6"/></g><g fill="#c5d9ec"><path d="m461.281 231.145c-2.588 7.207-6.502 13.782-11.469 19.411l17.236 25.326c5.821-5.574 10.892-11.924 15.053-18.881-5.843-9.424-12.828-18.118-20.82-25.856z"/><path d="m335.926 152.946 15.775 29.981c3.698-7.012 8.747-13.199 14.796-18.224-5.557-8.66-9.633-18.286-11.953-28.487-6.958 4.693-13.228 10.327-18.618 16.73z"/></g><g><path d="m191.51 479.934c-10.585.003-21.046-1.32-30.597-5.883-20.789-9.755-35.052-29.576-37.809-52.374l-10.795-89.27c-1.766-39.487 22.459-76.084 59.929-89.061 80.678-31.293 94.694-96.08 90.071-174.666h-22.5c3.146 68.578-2.91 125.034-75 153.427-47.089 16.295-77.327 62.226-75 111.82v170.605h389.46v-24.598z" fill="#c5d9ec"/></g><path d="m247.309 7.468 4.502 31.212 62.998 26.851 7.5-58.063z" fill="#b25e1e"/><path d="m78.895 272.545c-22.428 23.789-32.061 55.199-28.897 85.534h43.636l13.657-26.631c-3.051-21.397-12.516-42.06-28.396-58.903z" fill="#00c278"/><path d="m340.807 324.871c-55.001 0-55.001 12-110.002 12-22.073 0-35.286-1.933-46.752-4.247-15.515 25.807-39.367 46.015-67.862 56.887l.243 1.348c4.832 11.342 7.544 24.8 7.16 38.408 7.895 25.58 31.718 44.17 59.89 44.17h204.649c34.615 0 62.676-28.061 62.676-62.676v-73.89c-55.001 0-55.001-12-110.002-12z" fill="#fee95d"/><path d="m434.471 450.937h-241.433c-11.322 0-22.441-3.003-32.223-8.703 0 0 2.681-16.851-1.412-40.56 27.836-14.691 49.322-38.637 65.321-65.587-9.963-.775-17.651-2.046-24.671-3.463-15.515 25.807-39.367 46.015-67.862 56.887 2.766 7.435 5.755 17.829 6.794 30.511 1.171 14.287-.562 26.229-2.425 34.491 4.145 3.738 10.528 8.658 19.276 12.615 9.448 4.273 17.974 5.76 23.745 6.309h208.552c19.346 0 36.639-8.77 48.135-22.545-.595.026-1.194.045-1.797.045z" fill="#e7c900"/><path d="m219.77 266.902c-55.905 1.646-103.254 37.047-122.397 86.553l35.001 36.167c49.946-18.929 85.741-66.499 87.396-122.72z" fill="#00c278"/><path d="m308.483 62.354-8.721-8.721c-9.574-9.574-22.559-14.953-36.099-14.953h-38.741c-.062 0-.113.05-.113.113v29.775c0 .062.05.113.113.113h32.415c9.634 0 18.873 3.827 25.685 10.639l8.721 8.721c6.812 6.812 16.052 10.639 25.685 10.639h27.38v-30h-21.054c-5.727 0-11.221-2.276-15.271-6.326z" fill="#c5d9ec"/><path d="m139.523 358.274c-9.001-11.251-20.122-19.769-32.303-25.027-3.81 6.417-7.123 13.163-9.847 20.208l35.001 36.167c7.07-2.68 13.845-5.952 20.292-9.723-3.516-7.797-7.906-15.078-13.143-21.625z" fill="#00a666"/><path d="m78.145 327.147c-1.988 0-3.968.104-5.94.269 2.162-15.174 7.542-29.98 16.153-43.317-2.855-4.009-5.997-7.876-9.463-11.553-22.266 23.761-32.004 54.442-28.897 85.534h43.636l12.886-25.127c-9.032-3.794-18.631-5.806-28.375-5.806z" fill="#00a666"/><ellipse cx="78.145" cy="427.089" fill="#c3f839" rx="61.954" ry="77.443"/><path d="m93.444 489.233c-34.216 0-61.954-34.672-61.954-77.442 0-20.036 6.087-38.293 16.075-52.043-18.732 13.32-31.375 38.478-31.375 67.342 0 42.771 27.738 77.443 61.954 77.443 18.188 0 34.545-9.797 45.879-25.4-9.023 6.416-19.454 10.1-30.579 10.1z" fill="#abe700"/><ellipse cx="78.145" cy="396.112" fill="#f05475" rx="15.489" ry="15.867"/></g></g><g><g><path d="m202.685 361.351h15v15h-15z" fill="#fff"/></g><g><path d="m232.685 361.351h45.17v15h-45.17z" fill="#fff"/></g></g></g><g><path d="m503.008 210.878c0-53.755-43.733-97.488-97.488-97.488-24.259 0-47.358 8.966-65.146 24.961-1.529-7.108-2.346-14.443-2.346-21.916v-10.236h14.998v-44.995h-28.596c-.259 0-.513-.023-.77-.038l7.901-61.166h-38.526v14.998h21.465l-4.812 37.256c-12.842-14.677-31.183-22.336-50.651-21.046l-2.339-16.21h21.338v-14.998h-38.655l4.503 31.208h-25.84v44.994h14.998v40.232c0 44.336-28.118 83.959-69.968 98.598-31.17 10.903-55.71 33.72-69.058 63.67-2.87-3.933-5.988-7.713-9.373-11.303l-5.456-5.788-5.456 5.788c-22.123 23.465-33.378 54.97-31.261 87.039-20.054 14.91-33.478 41.889-33.478 72.629 0 46.832 31.153 84.933 69.445 84.933h274.589v-14.998h-235.244c9.357-7.898 17.049-18.529 22.318-30.942 12.242 9.528 27.426 14.848 43.124 14.848h204.624c38.689 0 70.166-31.477 70.166-70.167v-81.379c-55.304 1.585-61.537-12.008-117.486-11.999-56.957.141-72.186 16.096-128.914 11.419 9.666-18.679 15.278-39.646 15.926-61.661l.233-7.95-7.95.233c-43.276 1.275-82.628 21.788-108.363 54.682-1.955-6.669-4.505-13.118-7.615-19.295 10.345-31.071 33.619-54.91 64.181-65.601 47.858-16.739 80.013-62.052 80.013-112.754v-40.234c11.337-.318 21.909-.39 30.373 8.41 13.353 14.437 23.971 22.689 44.618 21.587v10.236c0 50.702 32.155 96.014 80.013 112.754 41.85 14.639 69.968 54.262 69.968 98.598v169.215h-104.986v14.998h119.985v-184.213c0-17.807-3.98-34.941-11.199-50.414 16.932-18.098 26.197-41.501 26.197-66.495zm-424.571 286.124c-30.023 0-54.447-31.372-54.447-69.935 0-38.562 24.425-69.934 54.447-69.934s54.447 31.372 54.447 69.934c.001 38.563-24.424 69.935-54.447 69.935zm152.102-152.642c55.48.073 55.652-11.948 109.988-11.999 50.842-.102 53.244 10.789 102.488 11.921v66.459c0 30.42-24.748 55.169-55.168 55.169h-204.623c-14.198 0-27.861-5.533-38.082-15.278 1.771-7.488 2.74-15.388 2.74-23.565 0-11.827-1.992-23.093-5.579-33.333 25.133-11.054 45.98-28.749 60.774-50.61 8.292.827 17.322 1.236 27.462 1.236zm-18.493-69.46c-4.307 46.299-33.193 86.393-75.823 105.127-2.199-4.027-4.679-7.802-7.393-11.306l30.813-30.813-10.606-10.606-30.494 30.494c-3.519-3.056-7.278-5.721-11.238-7.944 18.899-42.125 58.829-70.67 104.741-74.952zm-118.62 69.251c-4.831-1.305-9.842-2.015-14.989-2.015-7.4 0-14.528 1.437-21.222 4.071.13-22.616 7.845-44.532 21.975-62.237 10.945 13.683 18.056 29.85 20.762 47.253-2.38 4.165-4.55 8.484-6.526 12.928zm204.379-261.36c-22.69-25.367-33.602-21.411-64.763-21.587v-14.998h31.396c33.702.159 33.666 29.692 59.991 29.997h13.599v14.997c-13.414-.4-29.998 2.782-40.223-8.409zm107.715 45.597c45.485 0 82.49 37.005 82.49 82.49 0 19.468-6.659 37.787-18.891 52.523-2.801-4.373-5.881-8.563-9.227-12.538 8.496-11.544 13.119-25.529 13.119-39.984 0-37.215-30.276-67.492-67.492-67.492-21.012 0-40.458 9.671-53.12 25.846-2.751-4.69-5.138-9.599-7.137-14.687 15.59-16.675 37.312-26.158 60.258-26.158zm2.476 86.645c-18.67-6.53-34.595-18.042-46.521-32.718 9.638-14.869 26.108-23.931 44.045-23.931 28.945 0 52.493 23.549 52.493 52.493 0 10.358-3.053 20.407-8.699 28.944-11.715-10.772-25.669-19.315-41.318-24.788z"/><path d="m78.437 372.73c-12.675 0-22.986 10.481-22.986 23.364s10.311 23.364 22.986 23.364c12.674 0 22.985-10.481 22.985-23.364s-10.31-23.364-22.985-23.364zm0 31.731c-4.405 0-7.988-3.753-7.988-8.366s3.584-8.366 7.988-8.366 7.987 3.753 7.987 8.366-3.583 8.366-7.987 8.366z"/><path d="m163.023 308.679h15.487v14.999h-15.487z" transform="matrix(.707 -.707 .707 .707 -173.556 213.356)"/></g></g><g/><g/><g/><g/><g/><g/><g/><g/><g/><g/><g/><g/><g/><g/><g/></svg>