<svg id="Capa_1" enable-background="new 0 0 512 512" viewBox="0 0 512 512" xmlns="http://www.w3.org/2000/svg"><g><g><g><g><path d="m50.396 328.967c-36.829 36.829-36.904 96.494-.226 133.416 37.502 37.751 98.301 35.763 135.928-1.863 55.838-55.838 92.136-156.339 95.356-198.491 1.319-17.271-13.184-31.597-30.443-30.137-43.053 3.639-142.703 39.163-200.615 97.075z" fill="#eb975d"/></g><g><path d="m343.772 238.729c36.829 36.829 96.494 36.904 133.416.226 37.751-37.502 35.763-98.301-1.863-135.928-55.838-55.838-156.339-92.136-198.491-95.356-17.271-1.319-31.597 13.184-30.137 30.443 3.639 43.052 39.163 142.702 97.075 200.615z" fill="#eb975d"/></g><g><path d="m360.24 223.261c-57.912-57.912-93.435-157.562-97.075-200.614-.405-4.788.409-9.362 2.16-13.447-11.615 4.125-19.744 15.709-18.628 28.915 3.64 43.052 39.163 142.702 97.075 200.614 36.829 36.829 96.494 36.904 133.416.227 2.066-2.052 4.005-4.178 5.834-6.362-36.981 27.243-89.311 24.138-122.782-9.333z" fill="#b25e1e"/></g><g><path d="m119.94 489.66c23.971-.93 47.817-10.799 66.158-29.14 6.357-6.357 12.457-13.297 18.288-20.66l-131.085-131.086c-8.137 6.387-15.833 13.121-22.904 20.192-18.586 18.586-27.798 42.989-27.663 67.349 2.953 22.607 13.203 44.633 30.699 62.242 18.713 18.836 42.373 29.089 66.507 31.103z" fill="#b25e1e"/></g><g><path d="m199.179 463.407c-2.979 3.337-6.014 6.566-9.109 9.662-41.201 41.201-108.731 42.425-151.015-.134-41.356-41.623-42.239-107.922-1.912-148.25 3.851-3.851 7.877-7.605 12.048-11.266z" fill="#fef2e2"/></g><g><path d="m55.014 456.975c-39.19-39.444-42.029-101.043-7.901-141.705-3.431 3.073-6.764 6.208-9.97 9.414-40.328 40.328-39.444 106.626 1.912 148.25 42.284 42.558 109.814 41.335 151.015.133 3.096-3.096 6.13-6.325 9.109-9.661l-.013-.013c-41.524 34.915-104.139 33.855-144.152-6.418z" fill="#ffe1ba"/></g></g></g><g><path d="m277.898 234.768c-7.44-7.347-17.674-11.087-28.107-10.2-21.844 1.848-54.22 10.933-86.606 24.302l5.724 13.865c32.637-13.059 62.78-22.402 85.512-23.231-29.519 20.281-92.968 71.262-146.158 122.611l-14.506-14.505c15.276-13.909 32.806-27.808 52.224-41.39l-8.598-12.291c-20.159 14.101-38.369 28.564-54.243 43.064l-14.796-14.796c28.631-24.542 62.086-42.273 85.808-53.062l-6.21-13.654c-24.862 11.308-60.067 30.007-90.232 56.083l-8.266-8.266c-57.416 41.942-67.682 122.518-15.671 175.192l-.001.001c51.127 51.459 132.86 41.519 175.64-15.226l-8.306-8.307c43.986-50.563 80.573-133.14 87.238-192.208.796-10.419-3.012-20.623-10.446-27.982zm-22.324 22.284c-21.32 29.437-68.319 87.719-115.717 136.658l-20.985-20.985c47.897-46.194 105.67-93.261 136.702-115.673zm-141.21 208.756-8.259-12.521c-27.554 18.171-52.291 24.076-61.602 14.719-41.18-40.906-38.757-107.853 4.338-144.097l32.831 32.831c-13.2 12.543-25.742 26.808-35.167 41.152l12.495 8.299c8.865-13.508 20.808-27.012 33.28-38.843l96.429 96.429c-29.067 33.325-80.494 43.146-119.461 22.368 13.239-2.626 28.605-9.447 45.116-20.337zm61.271-36.319c5.073-5.506 10.196-11.376 15.288-17.52l-11.549-9.572c-4.787 5.776-9.596 11.292-14.357 16.474l-14.552-14.552c49.321-50.94 102.641-116.846 122.867-146.397-1.711 39.849-31.634 126.146-82.852 186.412z"/><path d="m482.56 244.091c18.927-18.88 29.373-44.096 29.419-71.03 2.289-106.134-181.832-167.774-234.636-172.903-21.194-2.115-40.49 17.369-38.182 38.556 6.84 58.195 67.436 235.683 171.37 235.088 26.081.001 52.199-9.914 72.029-29.711zm-145.609-179.022-9.567 11.553c46.33 40.482 129.499 106.136 144.335 156.49-62.548-17.965-171.122-163.048-200.127-200.235 11.711 8.466 27.2 20.443 43.733 33.858l9.451-11.648c-20.678-16.778-39.823-31.387-52.271-39.917 59.142 2.651 283.053 85.208 210.795 204.298-29.388-58.611-91.088-106.16-146.349-154.399zm12.061 168.323c-52.36-53.465-90.282-143.092-94.916-199.308 22.149 32.234 80.497 104.276 135.223 159.002 5.361 5.36 41.412 40.78 68.601 51.745-33.704 21.885-79.408 18.06-108.908-11.439z"/><path d="m458.427 150.164 11.982-9.023c-4.659-6.187-9.857-12.159-15.452-17.754-8.458-8.459-18.013-17.112-28.396-25.719l-9.572 11.549c10.026 8.311 19.232 16.646 27.362 24.776 5.101 5.101 9.837 10.542 14.076 16.171z"/><path d="m320.812 142.611-12.291 8.598c18.192 26.008 36.863 48.641 55.492 67.271 8.84 8.84 18.47 16.464 28.624 22.661l7.814-12.805c-9.141-5.578-17.832-12.463-25.832-20.464-18.011-18.012-36.114-39.969-53.807-65.261z"/><path d="m137.787 444.56h15v15h-15z" transform="matrix(.707 -.707 .707 .707 -277.101 235.139)"/><path d="m116.574 423.347h15v15h-15z" transform="matrix(.707 -.707 .707 .707 -268.314 213.926)"/></g></g><g/><g/><g/><g/><g/><g/><g/><g/><g/><g/><g/><g/><g/><g/><g/></svg>