<svg id="Capa_1" enable-background="new 0 0 512 512" viewBox="0 0 512 512" xmlns="http://www.w3.org/2000/svg"><g><g><g><g><path d="m336.688 133.404-34.515-46.021c-5.671-7.562-8.737-16.759-8.737-26.211v-22.395h-75v22.396c0 9.452-3.066 18.649-8.737 26.211l-34.515 46.021c-15.739 20.986-24.248 46.511-24.248 72.743v298.077h210v-298.078c0-26.232-8.508-51.757-24.248-72.743z" fill="#8ad8f6"/></g><g><path d="m360.936 481.723h-187.433v-245.627h7.433v-23.553h-7.433v-6.396c0-21.223 6.946-42.263 19.681-59.242l34.514-46.02c8.537-11.381 13.238-25.484 13.238-39.712v-22.396h-22.5v22.396c0 9.452-3.066 18.649-8.737 26.211l-34.515 46.021c-15.739 20.986-24.248 46.511-24.248 72.743v298.077h210z" fill="#54c9f3"/></g><g><path d="m180.936 375.734v67.255c0 12.562 10.183 22.745 22.745 22.745h104.511c12.562 0 22.745-10.183 22.745-22.745v-67.255z" fill="#fff"/></g><g><path d="m203.676 442.995v-67.261h-22.739v67.255c0 12.562 10.183 22.745 22.745 22.745h104.511c12.56 0 22.742-10.18 22.745-22.739z" fill="#e3edf6"/></g><g><path d="m180.936 188.734v82h150v-68c-75 0-75-14-150-14z" fill="#fff"/></g><g><path d="m180.936 188.734v82h22.5v-81.516c-6.707-.309-14.135-.484-22.5-.484z" fill="#e3edf6"/></g><g><path d="m308.436 38.777h-105v-14.229c0-9.263 7.509-16.771 16.771-16.771h71.457c9.263 0 16.771 7.509 16.771 16.771v14.229z" fill="#e21743"/></g><g><path d="m150.936 270.734h210v105h-210z" fill="#e3edf6"/></g><g><path d="m173.293 353.508v-82.774h-22.357v105h210v-22.226z" fill="#c5d9ec"/></g><g><path d="m211 300.734h-15.064c-8.284 0-15 6.716-15 15s-6.716 15-15 15h-15.255l.255 45.596h75.064v-60.596c0-8.284-6.716-15-15-15z" fill="#57758d"/></g><g><g><path d="m173.404 353.606v-24.876c-2.201 1.268-4.746 2.004-7.468 2.004h-15.255l.255 45.596h75.064v-22.724z" fill="#4b6276"/></g></g><g><path d="m270.936 270.628v15.628c0 16.28 13.198 29.479 29.479 29.479 8.572 0 15.521 6.949 15.521 15.521 0 7.996 6.482 14.479 14.479 14.479h30.904v-75z" fill="#57758d"/></g><g><path d="m195.936 150.734h15v15h-15z" fill="#fff"/></g><g><path d="m225.936 150.734h45v15h-45z" fill="#fff"/></g></g></g><g><path d="m301.005 46.001h15v-21.73c0-13.383-10.888-24.271-24.272-24.271h-71.458c-13.384 0-24.272 10.888-24.272 24.271v21.73h15c.065 12.539 1.3 26.753-7.237 37.152-27.148 36.078-62.485 74.76-60.264 123.266v305.581h165.003v-15h-150.002v-113.491h15v59.756c0 16.677 13.568 30.246 30.245 30.246h104.513c16.677 0 30.245-13.569 30.245-30.246v-59.756h15v113.491h-30.001v15h45.001v-305.581c2.114-48.805-33.009-86.973-60.264-123.266-8.558-10.459-7.292-24.576-7.237-37.152zm-90.001-21.73c0-5.111 4.159-9.271 9.272-9.271h71.458c5.112 0 9.272 4.159 9.272 9.271v6.73h-90.002zm-52.501 314.237h7.5c12.407 0 22.5-10.094 22.5-22.5 0-4.136 3.364-7.5 7.5-7.5h15.064c4.136 0 7.5 3.364 7.5 7.5v52.501h-60.065v-30.001zm165.002 104.756c0 8.406-6.839 15.245-15.245 15.245h-104.512c-8.406 0-15.245-6.839-15.245-15.245v-59.756h135.002zm-89.937-74.756v-52.501c0-12.406-10.093-22.5-22.5-22.5h-15.064c-12.407 0-22.5 10.094-22.5 22.5 0 4.136-3.364 7.5-7.5 7.5h-7.5v-45.001h105.002v8.022c0 20.39 16.589 36.979 36.979 36.979 4.423 0 8.022 3.599 8.022 8.022 0 12.119 9.86 21.979 21.979 21.979h23.022v15zm119.938-90.001v60.001h-23.022c-3.848 0-6.979-3.131-6.979-6.979 0-12.695-10.327-23.022-23.022-23.022-12.119 0-21.979-9.86-21.979-21.979v-8.022h75.002zm-15-15.001v-68.001c-75.489 1.453-88.471-15.511-165.003-14v37.234h15v-22.185c64.492.887 69.396 13.09 135.002 13.903v53.05h-135.002v-30.235h-15v30.235h-15v-57.088c-2.296-44.422 32.88-81.189 57.264-114.266 10.668-13.339 10.698-29.961 10.237-46.152h60.001c-.461 16.202-.43 32.812 10.237 46.152 24.439 33.165 59.532 69.779 57.264 114.266v57.088h-15z"/></g></g><g/><g/><g/><g/><g/><g/><g/><g/><g/><g/><g/><g/><g/><g/><g/></svg>