<svg id="Capa_1" enable-background="new 0 0 512 512" viewBox="0 0 512 512" xmlns="http://www.w3.org/2000/svg"><g><g><g><g><path d="m105.717 472.992h300.424v30.941h-300.424z" fill="#8ad8f6"/></g><g><path d="m128.288 86.753h255.283v49.157h-255.283z" fill="#54c9f3"/></g><g><path d="m113.358 68.066h285.142v37.373h-285.142z" fill="#8ad8f6"/></g><g><path d="m113.358 68.066h21.571v37.373h-21.571z" fill="#54c9f3"/></g><g><path d="m413.5 68.066h-315v-39.127c0-11.527 9.345-20.872 20.872-20.872h273.255c11.527 0 20.872 9.345 20.872 20.872v39.127z" fill="#00c278"/></g><g><path d="m98.5 46.109h315v21.957h-315z" fill="#00a666"/></g><g><path d="m406.282 472.992h-300.564c-20.555 0-37.218-16.663-37.218-37.218v-300.335h375v300.335c0 20.555-16.663 37.218-37.218 37.218z" fill="#f05475"/></g><g><path d="m428.734 450.54h-320.441c-9.577 0-17.293-7.764-17.293-17.34v-297.761h-22.5v300.335c0 20.555 16.663 37.218 37.218 37.218h300.564c16.139 0 29.874-10.274 35.033-24.637-3.93 1.411-8.165 2.185-12.581 2.185z" fill="#e21743"/></g><g><path d="m443.5 255.439h-105.355c-3.792-42.046-39.111-75-82.145-75s-78.354 32.954-82.145 75h-105.355v105h106.376c7.036 38.424 40.667 67.553 81.124 67.553s74.088-29.129 81.124-67.553h106.376z" fill="#fef2e2"/></g><g><g><path d="m68.5 255.439h22.5v105h-22.5z" fill="#ffe1ba"/></g></g><g><path d="m265 340.215h-18c-19.882 0-36-16.118-36-36s16.118-36 36-36h18c19.882 0 36 16.118 36 36 0 19.883-16.118 36-36 36z" fill="#f05475"/></g><g><path d="m276.25 317.237h-18c-19.882 0-36-16.118-36-36 0-1.113.058-2.212.157-3.3-7.016 6.569-11.407 15.909-11.407 26.278 0 19.882 16.118 36 36 36h18c18.769 0 34.176-14.365 35.843-32.7-6.436 6.026-15.081 9.722-24.593 9.722z" fill="#e21743"/></g><g><path d="m270.776 270.049-29.637.465c-1.351 7.759.969 16.033 6.962 22.025l7.899 7.899 7.899-7.899c6.112-6.112 8.405-14.598 6.877-22.49z" fill="#00c278"/></g><g><path d="m158.5 323.098h-30c-8.284 0-15-6.716-15-15s6.716-15 15-15h30c8.284 0 15 6.716 15 15 0 8.285-6.716 15-15 15z" fill="#00c278"/></g><g><path d="m383.5 323.098h-30c-8.284 0-15-6.716-15-15s6.716-15 15-15h30c8.284 0 15 6.716 15 15 0 8.285-6.716 15-15 15z" fill="#00c278"/></g><g><path d="m91 157.938h15v15h-15z" fill="#fff"/></g><g><path d="m121 157.938h45v15h-45z" fill="#fff"/></g></g></g><g><path d="m390.447 128.503v-15h15.553v-38.503h15v-46.628c0-15.644-12.728-28.372-28.372-28.372h-273.255c-15.645 0-28.373 12.728-28.373 28.372v46.628h15v38.502h15.553v15h-60.553v307.837c0 22.15 16.192 40.581 37.359 44.102v31.559h247.641v-15h-232.641v-15.942h285.282v15.942h-37.641v15h52.641v-31.559c21.167-3.52 37.359-21.951 37.359-44.102v-307.836zm15.553-100.131v31.628h-30v-45h16.628c7.373 0 13.372 5.999 13.372 13.372zm-255 31.628v-45h30v45zm45-45h30v45h-30zm45 0h30v45h-30zm45 0h30v45h-30zm45 0h30v45h-30zm-225 13.372c0-7.373 5.999-13.372 13.373-13.372h16.627v45h-30zm30.553 85.131h75.17v-15h-90.723v-23.503h270v23.502h-165v15h149.447v15h-238.894zm-60.553 150h104.709c4.212-99.353 146.396-99.301 150.581 0h104.71v90.001h-105.127c-11.829 89.47-137.941 89.426-149.746 0h-105.127zm360 172.836c0 16.387-13.331 29.718-29.718 29.718h-300.564c-16.386 0-29.718-13.331-29.718-29.718v-67.835h92.847c22.816 89.268 151.517 89.22 174.307 0h92.846zm-91.266-187.836c-18.457-99.417-159.048-99.348-177.47 0h-91.264v-105h360v105.001h-91.266z"/><path d="m247 348.28h18c23.986 0 43.5-19.514 43.5-43.5.048-24.544-20.504-44.309-45-43.5v-12.468h-15v12.468c-24.495-.809-45.048 18.956-45 43.5 0 23.987 19.514 43.5 43.5 43.5zm16.711-72c-.094 5.627-3.579 10.479-7.711 14.117-4.131-3.635-7.599-8.479-7.703-14.117zm-30.157 3.379c1.012 13.409 13.85 23.031 22.446 31.951 8.584-8.897 21.472-18.6 22.445-31.951 8.953 4.811 15.055 14.266 15.055 25.121 0 15.715-12.785 28.5-28.5 28.5h-18c-15.715 0-28.5-12.785-28.5-28.5 0-10.855 6.102-20.31 15.054-25.121z"/><path d="m158.5 286.163h-30c-12.407 0-22.5 10.094-22.5 22.5s10.093 22.5 22.5 22.5h30c12.407 0 22.5-10.094 22.5-22.5s-10.093-22.5-22.5-22.5zm0 30h-30c-4.136 0-7.5-3.364-7.5-7.5s3.364-7.5 7.5-7.5h30c4.136 0 7.5 3.364 7.5 7.5s-3.364 7.5-7.5 7.5z"/><path d="m353.5 331.163h30c12.406 0 22.5-10.094 22.5-22.5s-10.094-22.5-22.5-22.5h-30c-12.406 0-22.5 10.094-22.5 22.5s10.094 22.5 22.5 22.5zm0-30h30c4.136 0 7.5 3.364 7.5 7.5s-3.364 7.5-7.5 7.5h-30c-4.136 0-7.5-3.364-7.5-7.5s3.364-7.5 7.5-7.5z"/><path d="m226 368.504h60v15h-60z"/></g></g><g/><g/><g/><g/><g/><g/><g/><g/><g/><g/><g/><g/><g/><g/><g/></svg>