<svg id="Capa_1" enable-background="new 0 0 512 512" viewBox="0 0 512 512" xmlns="http://www.w3.org/2000/svg"><g><g><g><g><path d="m469.487 101.824-21.213 21.213c17.573 17.574 17.573 46.066 0 63.64-4.271 4.271-9.188 7.504-14.436 9.7l30.466 16.239c1.782-1.48 3.512-3.055 5.183-4.726 29.289-29.289 29.289-76.777 0-106.066z" fill="#fef2e2"/></g><g><g><path d="m434.201 197.244c1.178-5.279 1.799-10.768 1.799-16.402 0-41.421-33.579-75-75-75-28.739 0-53.703 16.164-66.295 39.897l26.14 14.77c7.426-14.637 22.619-24.667 40.155-24.667 24.853 0 45 20.147 45 45 0 5.261-.903 10.311-2.562 15.003z" fill="#fef2e2"/></g></g><g><path d="m51.655 99.824c-42.554 42.554-42.554 111.548 0 154.102h154.102z" fill="#f05475"/></g><g><path d="m73.3 121.469c-30.6 30.6-30.6 80.212 0 110.812 3.299 3.299 6.819 6.243 10.513 8.831l121.944 12.814z" fill="#fcad42"/></g><g><path d="m186.354 234.523-51.163-5.376c-13.673-7.605-29-11.178-44.231-10.714-26.675-24.733-32.044-64.275-15.386-94.69l-2.274-2.274c-34.726 33.889-28.693 92.942 10.513 119.644l121.944 12.814z" fill="#e68b00"/></g><g><path d="m238.098 168.633c-13.351-13.351-33.248-16.153-49.357-8.424-41.971-43.524-104.654 19.204-61.141 61.141-3.865 8.054-5.096 17.056-3.693 25.712l63.026 53.119 61.839-113.983c-2.024-6.425-5.581-12.471-10.674-17.565z" fill="#c3f839"/></g><g><path d="m325.91 136.221c-5.902-3.455-12.294-5.93-18.897-7.427-4.848 5.027-9.007 10.722-12.308 16.945l26.14 14.771c3.492-6.883 8.703-12.747 15.066-17.028-3.046-2.697-6.373-5.138-10.001-7.261z" fill="#ffe1ba"/></g><g><path d="m334.846 194.901c1.101-60.454-87.581-60.422-86.466 0-21.267 6.916-34.368 32.208-26.881 54.096l20.82 74.778h78.525l36.593-110.602c-5.161-8.422-13.124-14.944-22.591-18.272z" fill="#00c278"/></g><g><path d="m278.563 302.417c-1.513-35.877-25.239-66.09-57.741-77.257-2.033 7.716-2.006 15.994.677 23.838l20.82 74.778h78.526v-21.359z" fill="#00a666"/></g><g><path d="m193.103 220.523c-17.544 0-34.243 5.264-48.27 14.884-5.852-4.383-12.137-7.93-18.696-10.62-2.689 7.133-3.437 14.831-2.23 22.275l43.546 36.701c.448-3.119.568-6.273.397-9.415 7.102-5.677 15.926-8.825 25.253-8.825 4.066 0 7.99.609 11.696 1.729l21.673-39.948c-10.26-4.363-21.537-6.781-33.369-6.781z" fill="#abe700"/></g><g><path d="m193.102 243.023c-20.147 0-38.086 9.451-49.626 24.161l-25.753 56.591 131.049-.003c4.552-4.522 7.369-10.786 7.369-17.709.001-34.816-28.223-63.04-63.039-63.04z" fill="#fef2e2"/></g><g><path d="m128.459 300.185-10.735 23.591 131.049-.003c4.552-4.522 7.369-10.786 7.369-17.709 0-1.984-.103-3.944-.283-5.882z" fill="#ffe1ba"/></g><g><path d="m193.102 292.438c-13.927 0-25.216 11.29-25.216 25.216v5.848h50.432v-5.848c0-13.926-11.289-25.216-25.216-25.216z" fill="#eb975d"/></g><g><path d="m129.064 303.703 9.094-9.094c9.749-9.749 9.749-25.555 0-35.304-24.619-24.619-64.533-24.619-89.152 0-17.367 17.367-22.482 42.345-15.347 64.196h115.204z" fill="#fef2e2"/></g><g><path d="m130.351 302.416h-77.606c-5.392-16.513-3.782-34.81 4.818-50.26-3.004 2.097-5.875 4.468-8.556 7.149-17.367 17.367-22.482 42.345-15.347 64.196h115.204l-19.799-19.798z" fill="#ffe1ba"/></g><g><path d="m405.495 174.097c.331 2.201.505 4.452.505 6.745 0 5.261-.903 10.311-2.562 15.003l30.763 1.399c1.178-5.279 1.799-10.768 1.799-16.402 0-2.11-.109-4.193-.28-6.259-9.452-1.527-19.583-1.696-30.225-.486z" fill="#ffe1ba"/></g><g><path d="m454.059 179.587c-1.652 2.506-3.58 4.884-5.785 7.089-4.271 4.271-9.188 7.504-14.436 9.7l30.466 16.239c1.782-1.48 3.512-3.055 5.183-4.726 3.752-3.752 7.016-7.807 9.807-12.081-7.268-7.037-15.755-12.462-25.235-16.221z" fill="#ffe1ba"/></g><g><path d="m464.269 212.573c-32.218-32.218-100.763-15.91-148.492 31.82-21.51 21.51-28.659 51.942-21.448 79.383h167.759c23.212-40.925 26.345-87.04 2.181-111.203z" fill="#fff"/></g><g><path d="m313.329 301.307c-.938-57.084 70.607-99.75 116.151-104.813-45.186-6.756-129.747 35.507-137.095 95.006-1.477 10.756-.801 21.775 1.944 32.276h167.759c4.182-7.374 7.702-14.916 10.538-22.468h-159.297z" fill="#e3edf6"/></g><g><path d="m405.933 270.909c-17.574-17.574-46.066-17.574-63.64 0-14.236 14.236-16.94 35.637-8.112 52.594h79.721c8.999-17 6.342-38.282-7.969-52.594z" fill="#fee95d"/></g><g><path d="m417.802 291.85c-.869 3.515-2.165 6.951-3.9 10.228h-62.787c-.361-19.175 14.961-38.816 33.993-42.985-22.6-6.592-49.776 9.361-54.703 32.938v.002c-2.589 10.508-1.227 21.88 3.777 31.472h79.721c5.21-9.846 6.504-21.124 3.899-31.655z" fill="#e7c900"/></g><g><path d="m7.5 323.501v18.58c0 89.702 72.718 162.42 162.42 162.42h172.16c89.702 0 162.42-72.718 162.42-162.42v-18.58z" fill="#8ad8f6"/></g><g><path d="m119.608 294.247c-9.847-9.848-25.813-9.848-35.661 0-7.992 7.992-9.498 20.015-4.517 29.526h69.432z" fill="#eb975d"/></g><g><path d="m386.307 482.002h-216.387c-77.152 0-139.92-62.769-139.92-139.921v-18.58h-22.5v18.58c0 89.702 72.718 162.42 162.42 162.42h172.16c37.276 0 71.612-12.566 99.023-33.681-16.838 7.194-35.359 11.182-54.796 11.182z" fill="#54c9f3"/></g><g><path d="m234.23 56.995c-14.645 14.645-14.645 38.388 0 53.033 5.799 5.799 15.201 5.799 21.001 0l5.41-5.41 9.75 9.75 21.213-21.213-9.75-9.75 5.41-5.41c5.799-5.799 5.799-15.202 0-21.001-14.645-14.644-38.389-14.644-53.034.001z" fill="#fef2e2"/></g><g><path d="m250.066 94.192c-11.887-11.887-14.124-29.768-6.715-43.912-3.282 1.719-6.363 3.957-9.121 6.715-14.645 14.645-14.645 38.388 0 53.033 5.799 5.799 15.201 5.799 21 0l5.41-5.41.059-6.077c-3.844.034-7.699-1.415-10.633-4.349z" fill="#ffe1ba"/></g><g><path d="m181.209 72.563c6.937-6.937 8.392-17.274 4.377-25.644 22.614-21.806-9.978-54.373-31.766-31.766-13.636-7.127-31.85 3.486-32.196 19.038-18.877.581-28.497 25.15-14.66 38.372-.001 0 21.213 21.213 21.213 21.213 13.212 13.83 37.802 4.22 38.372-14.661 5.334-.295 10.584-2.477 14.66-6.552z" fill="#00c278"/></g><g><g><path d="m144.006 77.946s-21.213-21.213-21.212-21.213c-6.341-6.06-7.745-14.499-5.6-21.923-15.856 3.918-22.935 25.612-10.23 37.753-.001 0 21.212 21.213 21.212 21.213 12.132 12.7 33.844 5.627 37.756-10.232-7.428 2.144-15.871.741-21.926-5.598z" fill="#00a666"/></g></g><g><circle cx="346" cy="30.842" fill="#f05475" r="15"/></g><g><circle cx="53.706" cy="46.011" fill="#c3f839" r="15"/></g><g><path d="m406 46.011h30v30h-30z" fill="#00c278" transform="matrix(.707 .707 -.707 .707 166.449 -279.822)"/></g><g><path d="m61 353.342h15v15h-15z" fill="#fff"/></g><g><path d="m91 353.342h45v15h-45z" fill="#fff"/></g></g></g><g><path d="m474.113 316.062c18.547-36.87 19.053-77.334.511-102.616 34.651-34.099 31.378-90.668-5.136-122.097l-31.82 31.809c18.237 14.696 22.523 40.171 5.833 57.763-.013-45.465-37.017-82.45-82.5-82.45-49.745 0-73.064 44.101-73.064 44.101-16.441 1.075-32.359 9.38-40.852 24.926-13.251-16.12-36.515-23.598-56.57-16.024-48.434-41.751-113.543 23.269-71.765 71.738-1.554 4.376-2.47 8.923-2.777 13.533-9.688-3.217-19.709-4.028-29.436-2.809-32.14-22.762-37.876-71.644-13.051-101.555l23.883 23.876 10.607-10.604-56.321-56.303c-48.3 41.523-52.583 120.284-8.905 166.328-14.91 15.071-23.342 36.521-18.798 60.384h-23.952v26.072c0 93.664 76.226 169.866 169.92 169.866h116.08v-14.995h-116.08c-85.423 0-154.92-69.476-154.92-154.872v-11.077h482v11.077c0 85.396-69.497 154.871-154.92 154.871h-41.08v14.996h41.08c93.694 0 169.92-76.202 169.92-169.867v-26.072h-37.887zm-126.516-39.776c14.622-14.618 38.412-14.617 53.032 0 10.601 10.596 13.795 26.089 8.576 39.776h-70.181c-5.211-13.686-2.007-29.201 8.573-39.776zm63.639-10.604c-20.471-20.462-53.776-20.461-74.247 0-13.455 13.452-18.379 32.615-13.694 50.38h-23.152c-1.482-8.515-1.492-17.577-.088-26.103 8.504-43.096 58.489-75.188 97.407-84.039 72.545-16.386 94.821 46.847 59.553 110.142h-32.076c4.695-17.762-.22-36.901-13.703-50.38zm-68.881-75.679c-.787-12.855-5.269-23.105-11.945-30.749 24.115-33.666 77.314-8.761 66.808 31.432-12.574 2.416-24.918 6.76-37.54 12.857-4.72-5.711-10.643-10.347-17.323-13.54zm126.599-35.034c0-11.488-3.667-22.413-10.447-31.437l10.688-10.683c21.157 26.435 19.516 65.214-4.918 89.737-3.939-3.189-8.359-5.922-13.283-8.106 11.449-9.95 17.988-24.349 17.96-39.511zm-107.954-41.503c39.996-.268 71.928 35.638 67.042 75.302-4.75-.426-9.788-.48-15.113-.135 8.247-53.387-62.498-82.388-94.115-38.949-4.44-2.615-9.268-4.523-14.279-5.72 12.419-18.954 33.522-30.498 56.465-30.498zm-33.961 86.738c7.103 2.035 13.937 5.465 19.122 10.674-18.572 11.163-35.51 26.047-47.049 43.552v-43.495h-15v105.126h-22.019c6.656-28.337-10.651-57.899-34.027-71.141-5.489-19.823 8.224-40.242 28.12-44.716-6.94-57.274 77.782-57.303 70.853 0zm-133.936 84.804c-17.486 0-31.81 13.784-32.674 31.054h-8.46l-12.299-12.294c10.758-8.61 15.368-22.47 12.269-34.897 10.531-11.648 25.316-18.266 41.163-18.266 30.625 0 55.54 24.907 55.54 55.523 0 3.606-1.095 7.037-3.112 9.934h-19.755c-.863-17.27-15.187-31.054-32.672-31.054zm17.632 31.054h-35.265c.837-8.993 8.422-16.058 17.632-16.058s16.795 7.064 17.633 16.058zm-121.484-16.445c6.594-6.872 18.46-6.871 25.053 0l16.452 16.445h-46.262c-1.339-5.835.351-12.042 4.757-16.445zm47.549-80.013c-45.274-36.086 13.965-95.365 50.104-50.088 19.148-12.388 47.649-2.512 55.161 19.252-16.649 9.78-29.575 24.954-30.106 45.279l-37.212-37.2-10.607 10.604 28.179 28.17c-18.085.196-35.044 7.162-47.9 19.461-4.101-4.342-8.757-8.14-13.405-11.131-1.004-8.527 1.727-16.892 5.786-24.347zm-84.953-108.857 10.972 10.969c-28.712 33.17-25.453 86.738 5.789 116.861-4.994 1.988-9.779 4.503-14.244 7.498-34.798-36.247-36.169-97.86-2.517-135.328zm81.006 153.939c6.776 6.497 6.774 18.191 0 24.689l-3.79 3.789c-13.021-15.875-35.32-18.967-50.42-4.152-7.301 7.299-10.55 17.285-9.352 27.049h-29.928c-12.1-52.705 53.502-90.949 93.49-51.375z"/><path d="m260.535 115.455 9.855 9.641 31.819-31.81-9.643-9.852c8.713-8.711 8.713-22.885 0-31.598-17.547-17.539-46.094-17.539-63.641 0v.001c-17.545 17.54-17.545 46.08 0 63.62 8.716 8.708 22.894 8.706 31.61-.002zm-21.001-53.018c11.696-11.694 30.73-11.692 42.426 0 2.865 2.865 2.866 7.527.001 10.391l-10.715 10.709 9.751 9.748-10.606 10.604-9.75-9.747-10.712 10.709c-2.866 2.863-7.528 2.865-10.395 0-11.697-11.693-11.697-30.719 0-42.414z"/><path d="m122.873 99.032c16.185 16.367 44.469 8.547 50.19-13.445 15.618-3.787 25.812-21.453 21.149-36.969 21.231-28.201-13.89-63.346-42.126-42.111-15.379-4.64-33.137 5.391-36.979 21.142-21.96 5.445-29.785 34.464-13.448 50.175zm-.835-57.383 6.705-.37c-1.322-17.229 11.851-26.46 26.911-16.951.397-.441 4.01-4.503 4.342-4.821 5.583-5.819 15.629-5.818 21.212 0 5.824 5.588 5.822 15.623-.008 21.214-.32.311-4.346 3.95-4.812 4.332 9.367 14.788.573 28.251-16.958 26.905 0 0-.37 6.702-.37 6.702-.336 12.587-16.912 18.957-25.58 9.77 0 0-2.262-2.261-5.303-5.302l31.82-31.811-10.607-10.604-31.819 31.81c-3.042-3.041-5.303-5.302-5.303-5.302-9.186-8.732-2.886-25.173 9.77-25.572z"/><path d="m346 53.485c12.406 0 22.5-10.091 22.5-22.493s-10.094-22.493-22.5-22.493-22.5 10.091-22.5 22.493 10.094 22.493 22.5 22.493zm0-29.991c4.136 0 7.5 3.363 7.5 7.498s-3.364 7.498-7.5 7.498-7.5-3.363-7.5-7.498 3.364-7.498 7.5-7.498z"/><path d="m53.706 68.649c12.406 0 22.5-10.091 22.5-22.493s-10.094-22.493-22.5-22.493-22.5 10.091-22.5 22.493 10.094 22.493 22.5 22.493zm0-29.99c4.136 0 7.5 3.363 7.5 7.498s-3.364 7.498-7.5 7.498-7.5-3.363-7.5-7.498 3.364-7.498 7.5-7.498z"/><path d="m452.819 61.151-31.819-31.809-31.819 31.809 31.819 31.811zm-31.819-10.603 10.606 10.603-10.606 10.605-10.606-10.604z"/></g></g><g/><g/><g/><g/><g/><g/><g/><g/><g/><g/><g/><g/><g/><g/><g/></svg>