<svg id="Capa_1" enable-background="new 0 0 512 512" viewBox="0 0 512 512" xmlns="http://www.w3.org/2000/svg"><g><g><g><g><path d="m394.639 19.914-127.278 127.279c35.147 35.147 92.132 35.147 127.279 0s35.147-92.131-.001-127.279z" fill="#fef2e2"/></g><g><path d="m283.919 130.635-16.559 16.559c35.147 35.147 92.132 35.147 127.279 0 2.808-2.808 5.366-5.769 7.725-8.833-35.292 27.171-86.106 24.613-118.445-7.726z" fill="#ffe1ba"/></g><g><path d="m7.511 188.639v29.862h23.505c8.275 0 14.984 6.708 14.984 14.984 0 8.275 6.708 14.984 14.984 14.984h15.016v-59.83z" fill="#fcad42"/></g><g><path d="m504.489 188.639v29.862h-23.505c-8.275 0-14.984 6.708-14.984 14.984 0 8.275-6.708 14.984-14.984 14.984h-15.016v-59.83z" fill="#fcad42"/></g><g><path d="m76 173.554h360v269.877h-360z" fill="#a8c6e2"/></g><g><path d="m76 173.554h21.958v269.877h-21.958z" fill="#8bb2d8"/></g><g><path d="m76 443.431v24.814c0 20.053 16.256 36.309 36.309 36.309h287.383c20.053 0 36.309-16.256 36.309-36.309v-24.814z" fill="#57758d"/></g><g><path d="m114.404 482.852c-9.224 0-16.702-7.478-16.702-16.702v-22.718h-21.702v24.814c0 20.053 16.256 36.309 36.309 36.309h287.383c14.855 0 27.619-8.925 33.241-21.702h-318.529z" fill="#4b6276"/></g><g><path d="m113.5 211.054h15v15h-15z" fill="#fff"/></g><g><path d="m143.5 211.054h45v15h-45z" fill="#fff"/></g><g><path d="m178.382 82.801c-14.645-14.645-38.388-14.645-53.033 0-5.799 5.799-5.799 15.201 0 21.001l5.41 5.41-9.75 9.75 21.213 21.213 9.75-9.75 5.41 5.41c5.799 5.799 15.202 5.799 21.001 0 14.644-14.645 14.644-38.389-.001-53.034z" fill="#fef2e2"/></g><g><path d="m128.496 107.038h21.298v30h-21.298z" fill="#ffe1ba" transform="matrix(.707 -.707 .707 .707 -45.539 134.136)"/></g><g><path d="m269.675 19.612c-6.937-6.937-17.274-8.392-25.644-4.377-21.806-22.614-54.373 9.978-31.766 31.766-7.127 13.636 3.486 31.85 19.038 32.196.581 18.877 25.15 28.497 38.372 14.66 0 .001 21.213-21.213 21.213-21.213 13.83-13.212 4.22-37.802-14.661-38.372-.294-5.334-2.476-10.584-6.552-14.66z" fill="#00c278"/></g><g><path d="m287.005 76.528c-13.222 13.837-37.791 4.217-38.372-14.66-15.552-.346-26.165-18.56-19.038-32.196-7.038-6.783-8.727-14.612-7.06-21.497-15.235 3.687-25.842 23.819-10.27 38.827-7.127 13.637 3.486 31.85 19.038 32.196.581 18.877 25.15 28.497 38.372 14.661 0 0 21.213-21.213 21.213-21.213.002-.002.004-.005.007-.007-2.301 2.301-3.89 3.889-3.89 3.889z" fill="#00a666"/></g><g><circle cx="466" cy="120.894" fill="#00c278" r="15"/></g><g><circle cx="151" cy="22.446" fill="#f05475" r="15"/></g><g><path d="m46 67.107h30v30h-30z" fill="#c3f839" transform="matrix(.707 .707 -.707 .707 75.925 -19.085)"/></g></g></g><g><path d="m443.508 181.19v-15.081h-61.515c33.539-20.489 55.283-60.237 43.207-107.705l-14.493 3.868c21.712 78.421-75.177 135.255-132.5 84.744l10.669-10.665c63.577 48.822 143.594-31.575 94.86-94.827l10.672-10.668c4.402 5.27 8.11 11.039 11.064 17.221l13.536-6.463c-5.66-12.258-14.531-22.921-24.362-32.203l-137.892 137.843c6.838 7.669 14.239 13.903 21.986 18.854h-210.248v15.081h-68.492v44.847h31.006c4.127 0 7.485 3.356 7.485 7.482 0 12.394 10.087 22.476 22.485 22.476h7.516v212.21c0 24.149 19.653 43.795 43.81 43.795h38.693v-14.995h-38.693c-15.885 0-28.81-12.92-28.81-28.8v-17.308h345.014v17.308c0 15.88-12.924 28.8-28.81 28.8h-233.7v14.996h233.701c24.157 0 43.81-19.646 43.81-43.795v-212.21h7.516c12.398 0 22.485-10.083 22.485-22.476 0-4.126 3.358-7.482 7.485-7.482h31.007v-44.847zm-92.22-107.23c9.181 18.822-11.148 39.13-29.964 29.954zm-40.966 40.952c34.197 22.075 73.986-18.004 51.968-51.95l10.756-10.751c35.551 48.433-25.072 108.979-73.479 73.453zm-249.346 126.088c-4.127 0-7.485-3.356-7.485-7.481 0-12.394-10.087-22.477-22.485-22.477h-16.005v-14.857h53.492v44.815zm22.517 194.902v-254.798h345.014v254.798zm413.506-224.86h-16.006c-12.398 0-22.485 10.084-22.485 22.477 0 4.125-3.358 7.481-7.485 7.481h-7.516v-44.815h53.491v14.857z"/><path d="m142.217 150.841 9.751-9.747c8.299 8.764 23.356 8.816 31.715.106 17.546-17.54 17.546-46.08 0-63.62h-.001c-17.544-17.538-46.094-17.54-63.641 0-8.715 8.353-8.66 23.408.105 31.704l-9.75 9.747zm-11.57-62.655c28.371-27.369 69.809 14.04 42.429 42.411-7.517 7.614-16.083-6.725-21.108-10.71l-9.751 9.747-10.607-10.603 9.75-9.747c-3.997-5.033-18.326-13.582-10.713-21.098z"/><path d="m224.786 85.58c5.451 21.936 34.454 29.751 50.194 13.444 0 0 21.213-21.206 21.213-21.206 11.637-11.161 11.64-31.251.001-42.412-3.755-3.755-8.396-6.413-13.45-7.763-3.842-15.753-21.602-25.779-36.983-21.141-28.038-21.233-63.446 13.965-42.125 42.111-4.638 15.369 5.394 33.128 21.15 36.967zm-8.145-66.08c5.848-5.847 15.365-5.847 21.214 0 .33.318 3.944 4.379 4.341 4.82 7.575-4.275 15.248-6.169 22.177.48 4.526 3.982 4.543 10.933 4.737 16.471 15.764-1.966 27.903 12.825 16.476 25.942l-5.303 5.301-31.821-31.809-10.608 10.604 31.821 31.809-5.303 5.301c-5.848 5.848-15.366 5.848-21.214 0-4.529-3.98-4.542-10.932-4.737-16.469-5.554-.204-12.486-.205-16.477-4.737-6.655-6.926-4.757-14.603-.482-22.167-.477-.392-4.49-4.017-4.823-4.34-5.818-5.581-5.817-15.626.002-21.206z"/><path d="m466.009 143.457c12.407 0 22.501-10.091 22.501-22.493s-10.094-22.493-22.501-22.493-22.501 10.091-22.501 22.493 10.094 22.493 22.501 22.493zm0-29.991c4.136 0 7.5 3.363 7.5 7.498 0 4.134-3.364 7.498-7.5 7.498s-7.5-3.363-7.5-7.498c-.001-4.135 3.364-7.498 7.5-7.498z"/><path d="m150.996 44.986c12.407 0 22.501-10.091 22.501-22.493s-10.095-22.493-22.501-22.493-22.501 10.091-22.501 22.493 10.094 22.493 22.501 22.493zm0-29.991c4.136 0 7.5 3.363 7.5 7.498s-3.364 7.498-7.5 7.498-7.5-3.363-7.5-7.498 3.364-7.498 7.5-7.498z"/><path d="m92.812 82.189-31.82-31.809-31.821 31.809 31.821 31.81zm-31.82-10.603 10.607 10.603-10.607 10.604-10.607-10.604z"/></g></g><g/><g/><g/><g/><g/><g/><g/><g/><g/><g/><g/><g/><g/><g/><g/></svg>