<svg id="Capa_1" enable-background="new 0 0 512 512" viewBox="0 0 512 512" xmlns="http://www.w3.org/2000/svg"><g><g><g><g><circle cx="270.421" cy="223.607" fill="#f05475" r="15"/></g><g><path d="m225.421 275.727c0-9.81-6.28-18.149-15.038-21.228.572-31.409-45.503-31.393-44.924 0-14.682 4.603-20.056 24.987-9.304 36.228-5.391 5.741-7.306 15.338-4.315 22.881h72.162c2.991-7.545 1.076-17.139-4.315-22.881 3.564-3.981 5.734-9.237 5.734-15z" fill="#c3f839"/></g><g><g><path d="m219.768 290.628h-63.702c.031.032.057.067.088.099-5.391 5.741-7.306 15.337-4.315 22.881h72.162c2.991-7.545 1.076-17.139-4.315-22.881.029-.032.054-.068.082-.099z" fill="#abe700"/></g></g><g><path d="m214.552 129.59c-14.645-14.645-38.388-14.645-53.033 0-5.799 5.799-5.799 15.201 0 21.001l5.41 5.41-9.75 9.75 21.213 21.213 9.75-9.75 5.41 5.41c5.799 5.799 15.202 5.799 21.001 0 14.643-14.646 14.643-38.39-.001-53.034z" fill="#fef2e2"/></g><g><path d="m164.666 153.827h21.298v30h-21.298z" fill="#ffe1ba" transform="matrix(.707 -.707 .707 .707 -68.03 173.417)"/></g><g><path d="m24.545 265.728c23.431 23.431 61.421 23.431 84.853 0 23.431-23.431 23.431-61.421 0-84.853z" fill="#f05475"/></g><g><path d="m43.329 246.944-18.784 18.784c23.431 23.431 61.421 23.431 84.853 0 3.229-3.229 5.997-6.743 8.336-10.448-23.185 14.633-54.202 11.866-74.405-8.336z" fill="#e21743"/></g><g><path d="m7.92 313.607v106.989c0 23.754 19.257 43.011 43.011 43.011h168.979c23.754 0 43.011-19.256 43.011-43.011v-106.989z" fill="#a8c6e2"/></g><g><path d="m49.777 441.237c-10.763 0-19.356-8.725-19.356-19.488v-108.142h-22.501v106.989c0 23.754 19.257 43.011 43.011 43.011h168.979c16.273 0 30.432-9.039 37.739-22.369h-207.872z" fill="#8bb2d8"/></g><g><path d="m481.581 276.107h-128.5v45h128.5c12.426 0 22.5-10.074 22.5-22.5-.001-12.427-10.074-22.5-22.5-22.5z" fill="#eb975d"/></g><g><path d="m353.08 276.107h21.874v45h-21.874z" fill="#b25e1e"/></g><g><path d="m88.185 202.088-42.426 42.426c11.716 11.716 30.711 11.716 42.426 0s11.715-30.71 0-42.426z" fill="#e21743"/></g><g><circle cx="105.421" cy="126.782" fill="#fee95d" r="15"/></g><g><path d="m29.845 148.606h30v30h-30z" fill="#00c278" transform="matrix(.707 .707 -.707 .707 128.822 16.209)"/></g><g><path d="m210.535 58.607h30v30h-30z" fill="#c3f839" transform="matrix(.707 .707 -.707 .707 118.106 -137.919)"/></g><g><path d="m30.421 336.106h15v15h-15z" fill="#fff"/></g><g><path d="m60.421 336.106h45v15h-45z" fill="#fff"/></g></g></g><g><path d="m482 268.16h-16.16v15h16.16c8.271 0 15 6.729 15 15s-6.729 15-15 15h-121.84v-30h90.68v-15h-105.68v22.704c-31.641 2.414-59.109 19.977-75.161 45.427v-30.631h-37.516c.055-5.376-1.298-10.775-4.002-15.38 8.427-13.857 2.957-33.514-11.196-41.104-4.611-34.813-54.947-34.836-59.569 0-14.153 7.592-19.623 27.245-11.196 41.104-2.704 4.605-4.058 10.003-4.002 15.38h-142.518v114.489c0 27.851 22.659 50.51 50.511 50.51h24.491v-15h-24.491c-19.581 0-35.511-15.93-35.511-35.511v-99.489h239.999v99.489c0 19.581-15.93 35.511-35.511 35.511h-129.487v15h129.487c27.851 0 50.511-22.659 50.511-50.511v-31.909c0-43.05 33.085-78.501 75.161-82.305v22.225h136.84c16.542 0 30-13.458 30-30s-13.458-29.999-30-29.999zm-316.199 22.121c-3.779-4.055-8.686-8.987-8.3-15.001.224-9.649 6.926-13.66 15.339-16.019-.035-.585-.342-6.032-.339-6.48 0-8.271 6.729-15 15-15s15 6.729 15 15c-.005.461-.283 5.872-.339 6.48 8.406 2.356 15.116 6.37 15.338 16.019.382 6.027-4.518 10.929-8.3 15.001 4.508 4.597 8.511 9.326 8.34 15.379h-22.54v-30.38h-15v30.38h-22.54c-.169-6.05 3.831-10.781 8.341-15.379z"/><path d="m108.978 169.822-95.459 95.459c68.008 73.619 168.148-29.112 95.459-95.459zm-22.141 43.354c3.978 8.36 2.536 18.677-4.375 25.588-6.911 6.912-17.228 8.354-25.588 4.375zm16.838 46.801c-18.67 18.671-48.018 20.31-68.565 4.926l10.762-10.762c34.195 22.079 73.982-18.008 51.966-51.966l10.766-10.766c15.544 19.996 13.405 50.928-4.929 68.568z"/><path d="m177.972 197.123 9.75-9.75c8.3 8.768 23.355 8.818 31.712.107 40.853-43.052-20.577-104.493-63.639-63.64-8.714 8.356-8.658 23.416.107 31.714l-9.75 9.75zm-11.571-62.675c28.698-27.236 69.664 13.717 42.427 42.425-2.735 2.853-7.659 2.85-10.394-.001l-10.713-10.712-9.75 9.75-10.607-10.606 9.749-9.75s-10.712-10.714-10.712-10.714c-2.851-2.736-2.849-7.657 0-10.392z"/><path d="m247.501 223.16c0 12.406 10.093 22.5 22.5 22.5s22.5-10.094 22.5-22.5-10.093-22.5-22.5-22.5-22.5 10.094-22.5 22.5zm22.5-7.5c4.136 0 7.5 3.364 7.5 7.5s-3.364 7.5-7.5 7.5-7.5-3.364-7.5-7.5 3.364-7.5 7.5-7.5z"/><path d="m105.001 148.836c12.407 0 22.5-10.094 22.5-22.5s-10.093-22.5-22.5-22.5-22.5 10.094-22.5 22.5 10.093 22.5 22.5 22.5zm0-30c4.136 0 7.5 3.364 7.5 7.5s-3.364 7.5-7.5 7.5-7.5-3.364-7.5-7.5 3.364-7.5 7.5-7.5z"/><path d="m76.245 163.16-31.819-31.82-31.82 31.82 31.82 31.819zm-31.819-10.607 10.606 10.607-10.606 10.606-10.607-10.606z"/><path d="m256.935 73.16-31.82-31.819-31.819 31.819 31.819 31.819zm-31.82-10.606 10.606 10.606-10.606 10.606-10.606-10.606z"/></g></g><g/><g/><g/><g/><g/><g/><g/><g/><g/><g/><g/><g/><g/><g/><g/></svg>