<svg id="Capa_1" enable-background="new 0 0 510.785 510.785" viewBox="0 0 510.785 510.785" xmlns="http://www.w3.org/2000/svg"><g><g><g><path d="m260.417 305.856 16.238 17.151v-.001c102.791-97.932 213.612-250.185 213.612-250.185l-13.352-62.533-282.778 271.326 43.432 45.874z" fill="#57758d"/><path d="m28.496 436.014h31.273v62.704h-31.273z" fill="#8bb2d8" transform="matrix(.726 -.688 .688 .726 -309.24 158.324)"/><path d="m24.964 340.992h221.586v78.38h-221.586z" fill="#eb975d" transform="matrix(.726 -.688 .688 .726 -224.207 197.441)"/><path d="m52.078 409.069h23.549v78.38h-23.549z" fill="#b25e1e" transform="matrix(.726 -.688 .688 .726 -290.7 166.646)"/><path d="m476.915 10.288c5.166 85.8-113.198 229.099-200.856 312.09v.001l26.55 28.043c76.524-72.451 139.911-155.577 191.145-247.013 16.667-29.744 10.996-67.007-13.87-90.334z" fill="#e3edf6"/><path d="m293.509 307.569-16.596 15.712 26.55 28.043v-.001c5.535-5.24 11.008-10.539 16.424-15.893z" fill="#c5d9ec"/><g><path d="m271.526 284.17-16.685 15.797 21.814 23.041v-.001c5.565-5.269 11.068-10.596 16.512-15.979z" fill="#4b6276"/></g><path d="m212.707 265.066h22.977v63.172h-22.977z" fill="#4b6276" transform="matrix(.726 -.688 .688 .726 -142.562 235.374)"/></g><g fill="#fff"><path d="m341.301 169.126h15.608v15.001h-15.608z" transform="matrix(.724 -.69 .69 .724 -25.451 289.671)"/><path d="m363.896 147.586h15.608v15.001h-15.608z" transform="matrix(.724 -.69 .69 .724 -4.348 299.312)"/></g></g><g><path d="m69.766 426.692h15.637v15.001h-15.637z" transform="matrix(.724 -.69 .69 .724 -278.169 173.459)"/><path d="m509.694 53.755c-3.028-18.272-12.288-35.15-26.073-47.526l-6.859-6.158-204.1 194.577 10.351 10.857 188.799-179.99c-.573 15.618-8.459 48.909-49.761 109.902-44.937 66.359-94.035 125.442-145.997 175.776l-16.526-17.334-22.635 21.578-32.944-34.557 66.952-63.828-10.351-10.857-66.952 63.829-5.395-5.659-170.831 162.861 5.395 5.658-22.767 21.705 53.507 56.125 22.767-21.705 5.395 5.659 57.997-55.29-10.351-10.857-47.14 44.94-43.597-45.729 149.038-142.083 43.597 45.73-89.316 85.147 10.351 10.857 100.252-95.575-5.257-5.514 11.778-11.228 43.02 45.124 5.429-5.175c76.25-72.692 141.129-156.092 192.833-247.881 9.087-16.133 12.423-35.09 9.391-53.379zm-443.77 424.398-11.91 11.354-32.807-34.412 11.91-11.354zm421.309-378.38c-49.749 88.318-111.864 168.752-184.704 239.19l-16.124-16.913c52.734-51.069 102.528-110.976 148.066-178.224 37.405-55.237 49.162-90.148 51.762-111.028 11.968 20.149 12.875 45.893 1 66.975z"/></g></g><g/><g/><g/><g/><g/><g/><g/><g/><g/><g/><g/><g/><g/><g/><g/></svg>