<svg id="Capa_1" enable-background="new 0 0 512 512" viewBox="0 0 512 512" xmlns="http://www.w3.org/2000/svg"><g><path d="m416.458 28.48v25.873c0 19.63-7.798 38.456-21.679 52.337l-22.568 22.567 21.213 21.213 23.412-23.412c18.966-18.966 29.621-44.689 29.621-71.511v-27.067z" fill="#00c278"/><g><path d="m379.685 117.301h21.394v30h-21.394z" fill="#00a666" transform="matrix(.707 -.707 .707 .707 20.788 314.789)"/></g><path d="m268.212 25.258c-25.645-25.645-68.114-22.397-89.561 6.849l-154.964 204.131c-23.762 32.403-20.329 77.296 8.084 105.708 13.548 13.548 30.844 21.417 48.745 23.365l267.943-259.807z" fill="#f05475"/><path d="m44.854 323.501c-26.138-26.138-31.117-66.215-13.25-97.693l-7.918 10.43c-23.762 32.403-20.329 77.296 8.084 105.708 13.548 13.548 30.844 21.417 48.745 23.365l13.085-18.444c-17.902-1.949-35.197-9.818-48.746-23.366z" fill="#e21743"/><path d="m487.108 243.155c25.645 25.645 22.397 68.114-6.849 89.561l-204.131 154.964c-32.403 23.762-77.296 20.329-105.708-8.084-13.548-13.548-21.417-30.844-23.365-48.745l259.807-267.943z" fill="#f05475"/><path d="m189.186 468.106c-13.548-13.548-21.417-30.844-23.366-48.746l-18.766 11.49c1.949 17.901 9.817 35.197 23.365 48.745 28.413 28.413 73.306 31.846 105.708 8.083l3.532-2.681c-30.192 13.363-66.297 7.286-90.473-16.891z" fill="#e21743"/><path d="m417.601 174.647-80.248-80.248c-25.645-25.645-68.114-22.396-89.561 6.849l-154.964 204.132c-23.762 32.402-20.329 77.295 8.084 105.708s73.306 31.846 105.708 8.084l204.131-154.964c29.246-21.447 32.494-63.916 6.85-89.561z" fill="#f05475"/><path d="m117.763 394.237c-28.413-28.413-31.846-73.306-8.084-105.708l-16.851 16.851c-23.762 32.402-20.329 77.295 8.084 105.708s73.306 31.846 105.708 8.084l16.851-16.851c-32.402 23.762-77.295 20.329-105.708-8.084z" fill="#e21743"/><g><path d="m279.424 111.51h15v15.001h-15z" fill="#fff" transform="matrix(.707 -.707 .707 .707 -.115 237.743)"/></g><g><path d="m300.637 132.723h15v15.001h-15z" fill="#fff" transform="matrix(.707 -.707 .707 .707 -8.901 258.956)"/></g><g><path d="m492.435 238.48-88.17-88.169 18.141-18.141c20.554-20.555 31.874-47.883 31.874-76.951v-34.629h-45.081v33.432c0 17.798-6.931 34.532-19.517 47.117l-17.295 17.295-98.873-98.871c-13.798-13.797-32.873-20.85-52.324-19.369-19.433 1.486-37.19 11.343-48.73 27.046l-155.206 204.446c-38.649 50.602-8.755 128.297 53.789 139.992 3.497 16.972 11.884 32.662 24.246 45.024 12.359 12.359 28.047 20.746 45.015 24.244 11.952 62.709 88.92 92.334 139.904 53.864l65.761-49.919-9.087-11.968-65.611 49.807c-40.153 31.076-102.649 8.901-115.087-39.979 19.567.504 38.891-5.576 54.758-17.204l204.55-155.277c18.934-13.763 29.399-37.328 26.881-60.598l39.437 39.435c10.693 10.693 16.165 25.473 15.011 40.55-1.152 15.078-8.808 28.856-21.003 37.798l-126.855 96.297 9.087 11.968 126.706-96.186c15.705-11.54 25.563-29.299 27.049-48.733 1.487-19.454-5.573-38.525-19.37-52.321zm-92.126-126.715c15.423-15.424 23.918-35.931 23.918-57.743v-18.405h15.027v19.602c0 25.054-9.757 48.608-27.474 66.325l-18.141 18.14-10.625-10.625zm27.247 108.628c-1.152 15.077-8.808 28.855-21.003 37.797l-204.544 155.273c-29.675 21.728-70.082 18.627-96.095-7.387-26.012-26.011-29.115-66.414-7.388-96.091l95.661-126.009-11.969-9.086-95.7 126.061-.074.1c-11.64 15.873-17.66 35.15-17.206 54.744-48.908-12.495-71.046-74.891-39.977-115.074l155.203-204.441.074-.1c8.943-12.194 22.72-19.851 37.798-21.003 15.072-1.158 29.859 4.318 40.551 15.012l39.44 39.439c-23.275-2.526-46.84 7.943-60.606 26.879l-50.334 66.301 11.969 9.086 50.371-66.351.074-.1c8.943-12.195 22.72-19.851 37.798-21.003 15.087-1.158 29.859 4.318 40.551 15.011l80.392 80.39c10.695 10.694 16.167 25.473 15.014 40.552z"/></g></g><g/><g/><g/><g/><g/><g/><g/><g/><g/><g/><g/><g/><g/><g/><g/></svg>