<svg id="Capa_1" enable-background="new 0 0 512 512" viewBox="0 0 512 512" xmlns="http://www.w3.org/2000/svg"><g><g><g><g><path d="m384.766 188.351h-23.979v30.064h24.069c28.246 0 51.144 22.898 51.144 51.144v92.915c0 28.246-22.898 51.144-51.144 51.144h-24.069v29.659h23.979c44.865 0 81.234-36.37 81.234-81.234v-92.457c0-44.865-36.37-81.235-81.234-81.235z" fill="#8ad8f6"/></g><g><path d="m330.234 504.351h-238.425c-8.707 0-15.766-7.059-15.766-15.766v-14.489h269.957v14.489c0 8.708-7.059 15.766-15.766 15.766z" fill="#8ad8f6"/></g><g><g><path d="m360.787 413.617h22.213v29.659h-22.213z" fill="#54c9f3"/></g><g><path d="m360.787 188.351h22.213v30.064h-22.213z" fill="#54c9f3"/></g></g><g><path d="m61 143.351h300v330h-300z" fill="#e3edf6"/></g><g><path d="m83.5 407.92v-78.146h9.99v-40.763h-9.99v-145.66h-22.5v330h300v-22.461h-234.53c-23.732 0-42.97-19.238-42.97-42.97z" fill="#c5d9ec"/></g><g><path d="m202.938 216.272-44.437-8.85c-17.993-2.509-39.473-4.145-67.5-4.145v85.734h2.49v40.735l-2.491.028v83.912c0 16.342 13.248 29.59 29.59 29.59h180.82c16.342 0 29.59-13.248 29.59-29.59v-180.41c-65.361.001-95.121-8.899-128.062-17.004z" fill="#fee95d"/></g><g><path d="m121.941 420.777c-4.662 0-8.441-3.779-8.441-8.441v-208.672c-7.018-.25-14.483-.388-22.5-.388v210.41c0 16.342 13.248 29.59 29.59 29.59h180.82c13.897 0 25.552-9.583 28.729-22.5h-208.198z" fill="#e7c900"/></g><g><path d="m241 7.649h30v105.701h-30z" fill="#eb975d"/></g><g><path d="m241 89.862h30v23.488h-30z" fill="#b25e1e"/></g><g><path d="m286 308.617c-9.604-9.604-15-22.63-15-36.213v-129.054h-30v129.054c0 13.583-5.396 26.609-15 36.213s-15 22.63-15 36.213l.853 32.549c4.077 20.659 22.293 36.238 44.147 36.238 24.853 0 45-20.147 45-45v-23.787c0-13.583-5.396-26.608-15-36.213z" fill="#eb975d"/></g><g><path d="m271 398.618c-21.854 0-40.07-15.579-44.147-36.238l-.853-32.549c0-13.583 5.396-26.609 15-36.213l-15 15c-9.604 9.604-15 22.63-15 36.213l.853 32.549c4.077 20.659 22.293 36.238 44.147 36.238 16.271 0 30.522-8.636 38.426-21.573-6.824 4.168-14.844 6.573-23.426 6.573z" fill="#b25e1e"/></g><g><path d="m361 143.351h-300c-8.284 0-15-6.716-15-15s6.716-15 15-15h300c8.284 0 15 6.716 15 15 0 8.285-6.716 15-15 15z" fill="#8ad8f6"/></g><g><circle cx="181" cy="211.281" fill="#fef2e2" r="22.5"/></g><g><path d="m196.183 218.598c-12.427 0-22.5-10.074-22.5-22.5 0-2.221.327-4.364.926-6.391-9.312 2.754-16.109 11.368-16.109 21.574 0 12.426 10.074 22.5 22.5 22.5 10.206 0 18.819-6.797 21.574-16.109-2.027.599-4.17.926-6.391.926z" fill="#ffe1ba"/></g><g><circle cx="211" cy="360.777" fill="#fef2e2" r="15"/></g><g><circle cx="151" cy="315.777" fill="#fef2e2" r="15"/></g><g><path d="m113.5 248.277h15v15h-15z" fill="#fff"/></g><g><path d="m143.5 248.277h15v15h-15z" fill="#fff"/></g></g></g><g><path d="m151 338.325c12.406 0 22.5-10.1 22.5-22.513s-10.094-22.513-22.5-22.513-22.5 10.1-22.5 22.513 10.094 22.513 22.5 22.513zm0-30.018c4.136 0 7.5 3.366 7.5 7.504s-3.364 7.504-7.5 7.504-7.5-3.366-7.5-7.504 3.364-7.504 7.5-7.504z"/><path d="m384.766 180.807h-16.266v-31.308c8.729-3.098 15-11.44 15-21.222 0-12.413-10.094-22.513-22.5-22.513h-82.5v-105.764h-45v105.764h-172.5c-12.406 0-22.5 10.1-22.5 22.513 0 9.783 6.271 18.124 15 21.222v331.483h15.043v7.441c0 13.001 10.57 23.577 23.563 23.577h178.894v-15.009h-178.894c-4.722 0-8.563-3.844-8.563-8.568v-7.441h254.957v7.441c0 4.724-3.842 8.568-8.563 8.568h-43.937v15.009h43.937c12.993 0 23.563-10.576 23.563-23.577v-7.441h15v-30.092h16.266c48.929 0 88.734-39.829 88.734-88.786v-92.511c0-48.957-39.806-88.786-88.734-88.786zm-16.266 45.091h16.356c24.065 0 43.644 19.59 43.644 43.669v92.969c0 24.079-19.578 43.669-43.644 43.669h-16.356zm-120-210.889h15v90.755h-15zm-187.5 105.763h300c4.136 0 7.5 3.366 7.5 7.504s-3.364 7.504-7.5 7.504h-300c-4.136 0-7.5-3.366-7.5-7.504 0-4.137 3.364-7.504 7.5-7.504zm150 232.561c4.136 0 7.5 3.366 7.5 7.504s-3.364 7.504-7.5 7.504-7.5-3.366-7.5-7.504c0-4.137 3.364-7.504 7.5-7.504zm7.811-13.607c1.135-9.731 5.464-18.739 12.493-25.771 11.089-11.096 17.196-25.849 17.196-41.542v-38.095c4.749.847 9.725 1.641 15 2.362v35.734c0 15.693 6.107 30.445 17.197 41.542 8.256 8.26 12.803 19.244 12.803 30.927v23.801c0 20.69-16.822 37.522-37.5 37.522-16.048 0-30.158-10.254-35.366-25.027 7.6-3.618 12.866-11.374 12.866-20.34 0-9.668-6.122-17.93-14.689-21.113zm29.689-120.639v-68.297h15v70.767c-5.267-.752-10.241-1.58-15-2.47zm-180 246.886v-315.183h165v65.186c-7.683-1.736-15.021-3.59-22.519-5.459-.394-16.211-13.686-29.28-29.981-29.28-12.25 0-22.802 7.389-27.457 17.943-20.348-2.598-45.595-3.637-70.043-3.438v105.061h15v-90.011c19.347.214 36.682 1.273 52.631 3.209 1.392 15.269 14.253 27.271 29.869 27.271 11.538 0 21.568-6.555 26.586-16.134 8.488 2.116 16.794 4.217 25.914 6.203v41.073c0 11.684-4.547 22.667-12.803 30.928-9.819 9.824-15.723 22.518-16.949 36.19-8.858 3.027-15.249 11.431-15.249 21.306 0 10.475 7.188 19.302 16.887 21.804 6.2 22.563 26.896 38.572 50.613 38.572 28.948 0 52.5-23.565 52.5-52.531v-23.801c0-15.693-6.107-30.445-17.196-41.541-8.257-8.261-12.804-19.245-12.804-30.928v-33.981c12.992 1.273 27.74 2.108 45 2.295v173.05c0 12.188-9.91 22.104-22.091 22.104h-180.817c-12.181 0-22.091-9.916-22.091-22.104v-97.966h-15v97.966c0 20.464 16.639 37.112 37.091 37.112h180.818c20.452 0 37.091-16.648 37.091-37.112v-188.018c-21.23.185-44.217-.67-60-2.379v-72.59h75v315.183zm127.5-254.718c0 8.276-6.729 15.009-15 15.009s-15-6.732-15-15.009c0-8.276 6.729-15.009 15-15.009s15 6.732 15 15.009zm262.5 150.849c0 40.681-33.077 73.777-73.734 73.777h-16.266v-14.668h16.356c32.336 0 58.644-26.323 58.644-58.678v-92.969c0-32.355-26.308-58.678-58.644-58.678h-16.356v-15.073h16.266c40.657 0 73.734 33.096 73.734 73.777z"/></g></g><g/><g/><g/><g/><g/><g/><g/><g/><g/><g/><g/><g/><g/><g/><g/></svg>