<svg id="Capa_1" enable-background="new 0 0 512 512" viewBox="0 0 512 512" xmlns="http://www.w3.org/2000/svg"><g><g><g><g><path d="m105.717 472.992h300.424v30.941h-300.424z" fill="#a8c6e2"/></g><g><path d="m128.288 86.753h255.283v49.157h-255.283z" fill="#e3edf6"/></g><g><path d="m113.358 68.066h285.142v37.373h-285.142z" fill="#a8c6e2"/></g><g><path d="m113.358 68.066h21.571v37.373h-21.571z" fill="#8bb2d8"/></g><g><path d="m413.5 68.066h-315v-39.127c0-11.527 9.345-20.872 20.872-20.872h273.255c11.527 0 20.872 9.345 20.872 20.872v39.127z" fill="#8ad8f6"/></g><g><path d="m98.5 46.109h315v21.957h-315z" fill="#54c9f3"/></g><g><path d="m68.5 412.906v22.867c0 20.555 16.663 37.218 37.218 37.218h300.564c20.555 0 37.218-16.663 37.218-37.218v-22.867" fill="#eb975d"/></g><g><path d="m68.5 203.034h375v209.873h-375z" fill="#fef2e2"/></g><g><path d="m68.5 135.439h375v67.595h-375z" fill="#eb975d"/></g><g><path d="m428.734 450.54h-320.442c-9.577 0-17.34-7.764-17.34-17.34v-20.293h-22.452v22.867c0 20.555 16.663 37.218 37.218 37.218h300.564c16.139 0 29.874-10.274 35.033-24.637-3.93 1.411-8.165 2.185-12.581 2.185z" fill="#b25e1e"/></g><g><path d="m68.5 203.034h22.452v209.872h-22.452z" fill="#ffe1ba"/></g><g><path d="m68.5 135.439h22.5v67.595h-22.5z" fill="#b25e1e"/></g><g><path d="m91 157.938h15v15h-15z" fill="#fff"/></g><g><path d="m121 157.938h45v15h-45z" fill="#fff"/></g><g><path d="m295.971 234.086c-18.487-3.937-36.942 6.319-44.54 23.626-3.48 7.927-9.16 17.751-18.423 27.049-9.346 9.38-19.246 15.12-27.225 18.629-16.713 7.35-26.99 24.849-23.931 42.848 1.476 8.683 5.536 16.996 12.18 23.64 5.782 5.782 12.771 9.62 20.156 11.514 18.691 4.794 38.291-4.794 46.23-22.38 3.637-8.056 9.555-18.129 19.15-27.691 9.512-9.478 19.508-15.336 27.513-18.944 16.356-7.372 25.985-24.97 23.004-42.661-1.467-8.706-5.53-17.042-12.19-23.702-6.241-6.241-13.889-10.217-21.924-11.928z" fill="#eb975d"/></g><g><g><path d="m230.046 364.534c-7.385-1.894-14.375-5.732-20.156-11.514-6.644-6.644-10.704-14.957-12.179-23.64-1.417-8.334.031-16.558 3.647-23.72-14.058 8.292-22.284 24.228-19.505 40.578 1.476 8.683 5.536 16.996 12.179 23.64 5.782 5.782 12.771 9.62 20.156 11.514 18.207 4.669 37.273-4.311 45.586-21.036-8.769 5.073-19.386 6.83-29.728 4.178z" fill="#b25e1e"/></g></g><g><path d="m113.5 233.247h75.16v30h-75.16z" fill="#8ad8f6"/></g><g><path d="m323.42 353.757h75.16v30h-75.16z" fill="#8ad8f6"/></g></g></g><g><path d="m390.447 127.373v-15h15.553v-37.372h15v-46.629c0-15.644-12.728-28.372-28.372-28.372h-273.256c-15.644 0-28.372 12.728-28.372 28.372v46.628h15v37.372h15.553v15h-60.553v308.968c0 22.151 16.192 40.581 37.359 44.102v31.558h247.641v-15h-232.641v-15.942h285.281v15.942h-37.64v15h52.641v-31.558c21.167-3.52 37.359-21.951 37.359-44.102v-308.967zm15.553-99.001v31.628h-30v-45h16.628c7.373 0 13.372 5.999 13.372 13.372zm-255 31.628v-45h30v45zm45-45h30v45h-30zm45 0h30v45h-30zm45 0h30v45h-30zm45 0h30v45h-30zm-225 13.372c0-7.373 5.999-13.372 13.372-13.372h16.628v45h-30zm30.553 84.001h75.171v-15h-90.724v-22.372h270v22.372h-165v15h149.447v15h-238.894zm299.447 30v53.725h-360v-53.725zm0 68.726v194.873h-360v-194.873zm-29.718 254.959h-300.564c-16.387 0-29.718-13.331-29.718-29.718v-15.368h360v15.368c0 16.387-13.331 29.718-29.718 29.718z"/><path d="m174.459 348.06c7.687 46.775 71.966 59.502 92.796 14.603 4.311-9.55 10.235-18.117 17.607-25.464 7.313-7.287 15.825-13.149 25.3-17.419 30.998-13.057 36.923-56.039 13.036-78.505-22.801-24.277-65.53-17.635-78.633 13.987-4.083 9.3-9.759 17.634-16.87 24.771-7.167 7.194-15.556 12.934-24.931 17.058-20.253 8.906-31.893 29.866-28.305 50.969zm34.344-37.239c11.095-4.881 21.025-11.677 29.518-20.201 8.426-8.455 15.147-18.323 19.979-29.328 6.279-14.304 21.467-22.425 36.109-19.305h.001c31.309 6.39 40.294 49.876 9.59 64.118-11.128 5.017-21.128 11.903-29.725 20.47-8.667 8.637-15.628 18.702-20.691 29.917-9.189 21.323-38.794 25.321-54.248 8.648-16.724-15.982-12.892-44.934 9.467-54.319z"/><path d="m196.159 271.312v-45h-90.159v45zm-75.159-30h60.159v15h-60.159z"/><path d="m315.92 391.823h90.16v-45h-90.16zm15-30h60.16v15h-60.16z"/></g></g><g/><g/><g/><g/><g/><g/><g/><g/><g/><g/><g/><g/><g/><g/><g/></svg>