<svg id="Capa_1" enable-background="new 0 0 512 512" viewBox="0 0 512 512" xmlns="http://www.w3.org/2000/svg"><g><g><g><g><circle cx="202.59" cy="275.033" fill="#f05475" r="15"/></g><g><path d="m388.169 137.091-126.701 126.701c34.987 34.987 91.713 34.987 126.701-.001 34.988-34.986 34.988-91.712 0-126.7z" fill="#fef2e2"/></g><g><path d="m398.543 243.077c-33.245 33.246-86.103 34.876-121.303 4.943l-15.771 15.771c34.987 34.987 91.713 34.987 126.701 0 9.911-9.911 17.009-21.568 21.305-33.98-3.161 4.676-6.793 9.128-10.932 13.266z" fill="#ffe1ba"/></g><g><path d="m154.972 199.28c-14.645-14.645-38.388-14.645-53.033 0-5.799 5.799-5.799 15.201 0 21.001l5.41 5.41-9.75 9.75 21.213 21.213 9.75-9.75 5.41 5.41c5.799 5.799 15.202 5.799 21.001 0 14.644-14.646 14.644-38.389-.001-53.034z" fill="#ffdaaa"/></g><g><path d="m105.103 223.557h21.184v30h-21.184z" fill="#ffb680" transform="matrix(.707 -.707 .707 .707 -134.8 151.683)"/></g><g><path d="m49.288 320.033c28.173 88.131 114.077 150.555 206.712 149.713 96.45 0 178.223-62.787 206.712-149.713z" fill="#a8c6e2"/></g><g><path d="m275.915 457.108c-88.28.802-170.447-55.853-202.361-137.458h-24.266c28.173 88.131 114.077 150.555 206.712 149.713 45.897 0 88.465-14.226 123.554-38.497-30.809 16.733-66.112 26.242-103.639 26.242z" fill="#8bb2d8"/></g><g><path d="m256.872 137.091c-6.937-6.937-17.274-8.392-25.644-4.377-21.806-22.614-54.373 9.978-31.766 31.766-7.127 13.636 3.486 31.85 19.038 32.196.581 18.877 25.15 28.497 38.372 14.66 0 .001 21.213-21.213 21.213-21.213 13.83-13.212 4.22-37.802-14.661-38.372-.294-5.334-2.476-10.584-6.552-14.66z" fill="#00c278"/></g><g><path d="m274.036 194.173c-13.222 13.837-37.791 4.217-38.372-14.66-15.552-.346-26.165-18.56-19.038-32.196-7.083-6.827-8.749-14.713-7.028-21.631-15.164 3.771-25.663 23.831-10.136 38.794-7.127 13.637 3.486 31.851 19.038 32.196.581 18.877 25.15 28.497 38.372 14.66 0 0 21.213-21.212 21.213-21.212.001-.001.002-.002.004-.004-2.391 2.391-4.053 4.053-4.053 4.053z" fill="#00a666"/></g><g><circle cx="127.59" cy="139.925" fill="#c3f839" r="15"/></g><g><path d="m292.589 72.246h30v30h-30z" fill="#fee95d" transform="matrix(.707 .707 -.707 .707 151.783 -191.944)"/></g><g><path d="m214.787 87.246h-37.574v-26.213c0-10.376 8.411-18.787 18.787-18.787s18.787 8.411 18.787 18.787z" fill="#f05475"/></g><g><path d="m106 349.746h15v15h-15z" fill="#fff"/></g><g><path d="m136 349.746h45v15h-45z" fill="#fff"/></g></g></g><g><path d="m512 280.79c0-15.581-12.676-28.258-28.257-28.258s-28.258 12.677-28.258 28.258v31.825h-398.97v-31.825c0-15.581-12.676-28.258-28.258-28.258-15.581 0-28.257 12.677-28.257 28.258v46.845h43.645c10.707 30.111 28.028 58.078 50.334 81.162 23.536 24.357 52.695 43.375 84.326 54.997l5.181-14.099c-56.602-20.797-102.236-65.994-123.836-122.06h392.711c-31.062 81.115-108.694 134.898-196.361 134.898-19.723 0-39.242-2.726-58.015-8.104l-4.137 14.44c20.119 5.763 41.029 8.685 62.152 8.685 48.436 0 94.59-15.139 133.473-43.781 36.624-26.977 63.808-63.591 78.888-106.138h43.639zm-496.979 31.825v-31.825c0-7.299 5.938-13.237 13.236-13.237 7.299 0 13.237 5.938 13.237 13.237v31.825zm481.958 0h-26.473v-31.825c0-7.299 5.938-13.237 13.237-13.237s13.236 5.938 13.236 13.237z"/><path d="m324.504 297.548c61.206 2.218 112.324-63.259 94.322-122.862l-14.512 3.874c21.282 76.766-72.341 136.251-132.676 84.887l10.684-10.684c12.288 9.83 27.232 14.757 42.182 14.757 56.322 1.003 87.695-67.5 52.88-109.819l10.61-10.61c4.407 5.278 8.12 11.055 11.078 17.249l13.554-6.474c-5.671-12.284-14.547-22.956-24.395-32.255l-138.075 138.076c19.346 21.612 46.913 34.197 74.348 33.861zm20.354-107.321c9.327 18.514-11.563 39.419-30.087 30.087zm-41.062 41.062c6.253 4.136 13.48 6.205 20.708 6.205 30.118.536 47.399-34.706 31.401-58.314l10.637-10.636c36.007 47.809-25.605 109.479-73.452 73.452z"/><path d="m118.624 267.279 9.763-9.762c8.702 8.823 22.998 8.873 31.757.107 17.57-17.57 17.57-46.158 0-63.728-17.57-17.568-46.158-17.57-63.727 0-8.725 8.369-8.673 23.446.106 31.757l-9.763 9.763zm-11.586-62.761c28.736-27.274 69.759 13.734 42.486 42.484-2.87 2.871-7.539 2.87-10.408.001l-10.727-10.73-9.764 9.764-10.621-10.621 9.764-9.763s-10.728-10.727-10.728-10.727c-2.857-2.74-2.856-7.669-.002-10.408z"/><path d="m190.747 166.091c-4.646 15.399 5.397 33.186 21.177 37.033 5.728 22.023 34.045 29.867 50.26 13.468 0 0 21.242-21.243 21.242-21.243 16.358-15.742 8.529-44.799-13.467-50.26-3.849-15.776-21.621-25.82-37.03-21.177-28.189-21.351-63.45 14.101-42.182 42.179zm28.271-32.735c4.261 1.495 7.48 5.035 10.339 8.405 7.582-4.28 15.258-6.184 22.205.481v.001c4.532 3.992 4.548 10.942 4.744 16.497 0 0 6.713.371 6.713.371 12.68.392 18.975 16.874 9.786 25.615 0 0-2.265 2.265-5.311 5.311l-31.863-31.864-10.621 10.622 31.863 31.863c-3.045 3.045-5.31 5.31-5.31 5.31-8.685 9.213-25.271 2.815-25.615-9.784l-.371-6.713c-5.547-.195-12.512-.211-16.498-4.745-6.664-6.938-4.764-14.62-.482-22.205-2.685-2.441-5.812-4.856-7.492-8.125-6.107-11.302 5.473-25.541 17.913-21.04z"/><path d="m202.517 252.532c-12.424 0-22.531 10.108-22.531 22.531s10.107 22.531 22.531 22.531 22.531-10.108 22.531-22.531-10.107-22.531-22.531-22.531zm0 30.042c-4.141 0-7.51-3.369-7.51-7.51s3.369-7.51 7.51-7.51 7.51 3.369 7.51 7.51-3.369 7.51-7.51 7.51z"/><path d="m127.414 162.3c12.424 0 22.531-10.108 22.531-22.531s-10.107-22.531-22.531-22.531-22.531 10.108-22.531 22.531c0 12.424 10.107 22.531 22.531 22.531zm0-30.041c4.141 0 7.51 3.369 7.51 7.51s-3.369 7.51-7.51 7.51-7.51-3.369-7.51-7.51 3.369-7.51 7.51-7.51z"/><path d="m339.523 87.018-31.863-31.863-31.864 31.863 31.864 31.863zm-31.863-10.621 10.621 10.621-10.621 10.621-10.621-10.621z"/><path d="m222.241 60.769c0-14.515-11.809-26.323-26.323-26.323-14.515 0-26.323 11.808-26.323 26.323v33.759h52.646zm-15.021 18.739h-22.605v-18.739c0-6.232 5.07-11.303 11.303-11.303s11.303 5.07 11.303 11.303v18.739z"/></g></g><g/><g/><g/><g/><g/><g/><g/><g/><g/><g/><g/><g/><g/><g/><g/></svg>