<svg id="Capa_1" enable-background="new 0 0 512 512" viewBox="0 0 512 512" xmlns="http://www.w3.org/2000/svg"><g><g><g><g><path d="m443.556 98.518h-25.217l-2.486 29.952h27.2c16.709 0 30.255 13.546 30.255 30.255v134.809h-37.553v30h68.51v-164.306c.001-33.529-27.18-60.71-60.709-60.71z" fill="#e3edf6"/></g><g><path d="m418.339 98.518-2.486 29.952h21.105l2.396-29.952z" fill="#c5d9ec"/></g><g><path d="m7.734 68.5v7.502l74.588 74.588 21.03 262.876c1.357 16.961 15.517 30.033 32.531 30.033h224.742c17.015 0 31.175-13.072 32.531-30.033l27.599-344.966z" fill="#8ad8f6"/></g><g><path d="m135.884 421c-5.247 0-9.685-4.097-10.104-9.327l-21.69-271.135-72.04-72.038h-24.316v7.502l74.588 74.588 21.03 262.876c1.357 16.961 15.517 30.033 32.531 30.033h224.742c14.391 0 26.739-9.353 31.025-22.5h-255.766z" fill="#54c9f3"/></g><g><path d="m90.809 91.002h15v15h-15z" fill="#fff"/></g><g><path d="m120.809 91.002h15v15h-15z" fill="#fff"/></g></g></g><g><path d="m443.728 91.018h-17.094l2.403-30.018h-429.037v18.108l74.902 74.832 20.828 260.124c1.658 20.712 19.248 36.936 40.045 36.936h44.912v-15h-44.912c-13.024 0-24.04-10.16-25.079-23.131l-21.269-265.63-71.306-71.239h394.653l-26.973 336.868c-1.039 12.972-12.055 23.132-25.079 23.132h-165.022v15h165.022c20.796 0 38.386-16.224 40.045-36.936l22.267-278.095h20.19c12.559 0 22.777 10.208 22.777 22.756v22.276h15.014v-22.276c0-20.818-16.953-37.756-37.79-37.756h-18.989l1.197-14.952h18.295c29.367 0 53.259 23.87 53.259 53.21v156.807h-53.56v-15h37.588v-105.032h-15.014v90.032h-37.588v45h83.587v-171.806c0-37.612-30.627-68.21-68.272-68.21z"/><path d="m285.782 113.502h45.041v15h-45.041z"/><path d="m285.782 383.532h45.041v15h-45.041z"/><path d="m285.839 143.532h29.971v15h-29.971z"/><path d="m285.839 173.532h29.971v15h-29.971z"/><path d="m285.839 203.532h44.985v15h-44.985z"/><path d="m285.839 233.532h29.971v15h-29.971z"/><path d="m285.839 263.532h29.971v15h-29.971z"/><path d="m285.839 293.532h44.985v15h-44.985z"/><path d="m285.839 323.532h29.971v15h-29.971z"/><path d="m285.839 353.532h29.971v15h-29.971z"/></g></g><g/><g/><g/><g/><g/><g/><g/><g/><g/><g/><g/><g/><g/><g/><g/></svg>