<svg id="Capa_1" enable-background="new 0 0 512 512" viewBox="0 0 512 512" xmlns="http://www.w3.org/2000/svg"><g><g><g><g><path d="m417.98 21.05c-22.009-22.009-61.741-8.448-61.741-8.448s-13.562 39.732 8.447 61.741c2.936 2.936 6.237 5.287 9.755 7.051 6.682-2.099 20.213-7.34 32.496-20.078 11.194-11.608 16.023-23.917 18.094-30.512-1.234-2.6-3.503-6.205-7.051-9.754z" fill="#eb975d"/></g><g><path d="m393.846 70.161c-3.519-1.765-6.819-4.115-9.755-7.051-16.039-16.039-13.188-41.485-10.46-54.113-10.082 1.113-17.391 3.606-17.391 3.606s-13.562 39.732 8.447 61.741c2.936 2.936 6.237 5.287 9.755 7.051 5.318-1.671 14.977-5.347 24.891-13.195-2.111.843-3.98 1.487-5.487 1.961z" fill="#b25e1e"/></g><g><path d="m270.068 144.208c-31.125 0-49.631 37.684-49.631 37.684s18.505 37.684 49.631 37.685c4.152 0 8.148-.672 11.884-1.912 3.24-6.209 9.102-19.483 8.781-37.175-.293-16.124-5.581-28.242-8.781-34.369-2.712-.968-6.865-1.913-11.884-1.913z" fill="#eb975d"/></g><g><path d="m284.18 202.704c-31.125 0-49.631-37.685-49.631-37.685s1.449-2.949 4.214-7.194c-11.807 10.792-18.326 24.066-18.326 24.066s18.505 37.684 49.631 37.685c4.152 0 8.148-.671 11.884-1.912 1.693-3.243 4.095-8.429 5.963-15.151-1.229.122-2.474.191-3.735.191z" fill="#b25e1e"/></g><g><path d="m412.912 50.79c-.007.012-.012.024-.02.036l-24.42-5.989 5.989 24.42c-.011.007-.024.013-.036.02l-31.651 19.183 31.651 19.183c7.645 4.633 17.167 4.221 24.328-.704l48.001 48.001c8.787 8.787 23.033 8.787 31.82 0s8.787-23.033 0-31.82l-48.001-48.001c4.926-7.161 5.338-16.683.704-24.328l-19.183-31.651z" fill="#57758d"/></g><g><path d="m421.676 78.04 23.467-37.372-13.048-21.529-19.183 31.651c-.007.012-.012.024-.02.036l-24.42-5.989 5.989 24.42c-.011.007-.024.013-.036.02l-31.651 19.183 31.651 19.183c7.645 4.633 17.167 4.221 24.328-.704l48.001 48.001c8.754 8.754 22.926 8.784 31.721.094z" fill="#4b6276"/></g><g><path d="m145.219 343.732-47.029-1.052c.158-33.732 8.002-67.453 23.513-98.426 15.677 31.307 23.516 65.392 23.516 99.478zm-138.384-33.159c19.067 28.919 44.349 52.573 73.483 69.576l24.426-40.202c-29.519-17.043-62.958-27.298-97.909-29.374zm0 132.638c34.579-2.053 67.704-12.121 96.996-28.85l-22.603-41.255c-29.519 17.044-55.119 40.875-74.393 70.105zm114.868 66.319c15.511-30.973 23.355-64.694 23.513-98.426l-47.029-1.053c0 34.087 7.839 68.173 23.516 99.479zm114.868-66.319c-19.067-28.919-44.349-52.573-73.483-69.576l-24.426 40.202c29.52 17.043 62.958 27.298 97.909 29.374zm0-132.638c-34.579 2.053-67.704 12.121-96.996 28.85l22.603 41.255c29.52-17.043 55.12-40.875 74.393-70.105z" fill="#eb975d"/></g><g><g><path d="m168.48 376.885c5.464-3.4 10.781-7.04 15.937-10.908-1.865-7.182-5.545-13.709-10.689-18.957-1.939-7.208-5.756-13.773-11.077-19.05-5.979 2.548-11.842 5.351-17.565 8.408.081 2.451.134 4.902.134 7.354l-3.323-.074 18.685 34.104-20.193 33.234-38.878-.871-18.685-34.104 20.193-33.234-4.828-.108c.01-2.098.05-4.196.119-6.294-5.683-3.035-11.5-5.822-17.434-8.356-5.276 5.253-9.066 11.774-11.003 18.933-5.226 5.273-8.97 11.832-10.865 19.04 5.151 3.863 10.462 7.5 15.92 10.897-5.457 3.396-10.767 7.03-15.917 10.892 1.896 7.204 5.64 13.761 10.862 19.031 1.938 7.162 5.73 13.686 11.01 18.939 5.936-2.534 11.756-5.32 17.439-8.356.213 6.453.71 12.897 1.486 19.316 3.659 1 7.41 1.507 11.16 1.507 3.675-.001 7.347-.479 10.924-1.436 7.103 1.811 14.59 1.71 21.747-.291.761-6.349 1.249-12.723 1.459-19.104 5.644 3.014 11.418 5.785 17.31 8.304 5.417-5.257 9.298-11.761 11.282-18.861 5.162-5.245 8.863-11.803 10.734-19.041-5.16-3.869-10.478-7.512-15.944-10.914z" fill="#b25e1e"/></g><g><path d="m103.018 342.788 38.878.871-2.321-4.235c1.822-1.041 3.659-2.055 5.51-3.044-.214-6.468-.713-12.928-1.492-19.362-7.157-1.922-14.665-1.941-21.802-.052-7.199-1.906-14.779-1.872-21.995.102-.776 6.42-1.275 12.866-1.488 19.319 2.163 1.155 4.312 2.335 6.435 3.561z" fill="#b25e1e"/></g></g><g><path d="m152.664 394.699c.922 15.254-17.166 26.625-30.872 17.824-13.706 8.801-31.641-1.554-30.872-17.824-14.433-7.484-14.433-28.13 0-35.615-.769-16.27 17.166-26.625 30.872-17.824 13.706-8.801 31.641 1.554 30.872 17.824 14.434 7.485 13.956 28.544 0 35.615z" fill="#57758d"/></g><g><path d="m287.514 168.82c.003.013.008.026.011.039l-21.502 13.033 21.502 13.033c-.003.013-.008.026-.011.039l-8.816 35.945 35.945-8.816c8.682-2.129 15.124-9.154 16.705-17.701h67.884c12.426 0 22.5-10.074 22.5-22.5s-10.074-22.5-22.5-22.5h-67.884c-1.581-8.546-8.022-15.571-16.705-17.701l-35.945-8.816z" fill="#57758d"/></g><g><path d="m312.98 181.892-9.832-43.02-24.449-5.997 8.816 35.945c.003.013.008.026.011.039l-21.502 13.033 21.502 13.033c-.003.013-.008.026-.011.039l-8.816 35.945 35.945-8.816c8.682-2.129 15.124-9.154 16.705-17.701h67.884c12.38 0 22.422-10 22.496-22.363z" fill="#4b6276"/></g><g><path d="m344.688 368.812c-11.71 11.71-30.695 11.71-42.405 0s-11.71-30.695 0-42.405c21.224-21.224 58.991-16.586 58.991-16.586s4.638 37.767-16.586 58.991z" fill="#fef2e2"/></g><g><path d="m442.921 401.407c11.71 11.71 11.71 30.695 0 42.405s-30.695 11.71-42.405 0c-21.224-21.224-16.586-58.991-16.586-58.991s37.767-4.638 58.991 16.586z" fill="#ffe1ba"/></g><g><path d="m121.123 154.496c11.71 11.71 11.71 30.695 0 42.405s-30.695 11.71-42.405 0c-21.224-21.224-16.586-58.991-16.586-58.991s37.767-4.638 58.991 16.586z" fill="#ffe1ba"/></g><g><path d="m153.718 56.264c11.71-11.71 30.695-11.71 42.405 0s11.71 30.695 0 42.405c-21.224 21.224-58.991 16.586-58.991 16.586s-4.638-37.767 16.586-58.991z" fill="#fef2e2"/></g><g><circle cx="196.703" cy="256.892" fill="#00c278" r="15"/></g><g><circle cx="361.703" cy="256.892" fill="#00c278" r="15"/></g><g><circle cx="301.703" cy="76.892" fill="#f05475" r="15"/></g><g><circle cx="286.703" cy="421.892" fill="#f05475" r="15"/></g></g></g><g><path d="m242.26 313.813-6.706-11.615c-29.071 1.726-57.853 9.119-84.228 21.513-2.455-29.045-10.445-57.654-23.49-83.704h-13.412c-13.04 26.04-21.028 54.663-23.483 83.7-26.381-12.397-55.152-19.781-84.235-21.508l-6.706 11.613c16.03 24.313 36.824 45.542 60.745 62.188-23.926 16.648-44.707 37.872-60.745 62.193l6.706 11.615c29.07-1.726 57.85-9.118 84.225-21.511.677 8.097 1.765 16.161 3.291 24.118l14.732-2.824c-1.747-9.112-2.889-18.373-3.443-27.658 5.276.915 10.752.292 15.727-1.844 4.909 2.286 10.339 2.658 15.528 1.567-1.393 23.584-6.703 46.975-15.64 68.854-3.526-8.612-6.495-17.452-8.87-26.427l-14.5 3.838c4.018 15.184 9.625 30.014 16.668 44.078h13.412c13.04-26.04 21.028-54.663 23.483-83.7 26.381 12.397 55.152 19.781 84.235 21.508l6.706-11.614c-16.03-24.313-36.824-45.542-60.745-62.188 23.926-16.647 44.707-37.871 60.745-62.192zm-121.13-52.308c8.906 21.805 14.202 45.103 15.617 68.613-5.15-.998-10.562-.54-15.528 1.79-5.026-2.356-10.508-2.799-15.712-1.755 1.41-23.514 6.713-46.833 15.623-68.648zm-99.158 57.249c23.364 3.193 46.213 10.268 67.3 20.817-3.464 3.972-5.79 8.91-6.257 14.402-4.528 3.169-7.64 7.675-9.335 12.681-19.688-12.987-37.255-29.256-51.708-47.9zm0 114.498c14.455-18.646 32.017-34.904 51.709-47.895 1.696 5.004 4.807 9.507 9.334 12.676.502 5.352 2.821 10.343 6.279 14.396-21.087 10.552-43.954 17.629-67.322 20.823zm122.336-43.905c.928 7.323-.057 12.386-6.1 16.007-6.261 3.787-11.805 1.183-16.989-2.633-5.182 3.816-11 6.579-17.114 2.907-6.267-3.518-6.736-9.808-6.04-16.264-5.919-2.629-11.132-6.192-11.043-13.36-.088-7.173 5.118-10.728 11.043-13.363-1.465-8.957 2.443-17.346 12.332-17.982 3.803-.252 7.733 2.596 10.821 4.627 5.181-3.815 11.003-6.577 17.114-2.907 6.267 3.518 6.736 9.808 6.04 16.264 5.927 2.63 10.976 6.106 10.865 13.402.034 7.422-4.973 10.708-10.929 13.302zm75.98 43.905c-23.396-3.198-46.276-10.287-67.387-20.86 3.612-3.98 6.057-8.918 6.534-14.352 4.455-3.124 7.516-7.634 9.181-12.664 19.673 12.983 37.228 29.243 51.672 47.876zm-51.68-66.622c-1.668-5.015-4.728-9.517-9.184-12.645-.467-5.526-2.816-10.493-6.314-14.479 21.047-10.513 43.863-17.565 67.179-20.752-14.449 18.638-32.001 34.889-51.681 47.876z"/><path d="m126.847 359.887-5.509 5.509-5.509-5.509-10.607 10.607 5.508 5.509-5.508 5.509 10.607 10.607 5.509-5.509 5.509 5.509 10.607-10.607-5.509-5.509 5.509-5.509z"/><path d="m503.262 116.64-13.911-13.91-10.605 10.607 13.91 13.909c5.849 5.85 5.848 15.365-.001 21.214-5.848 5.851-15.364 5.85-21.212 0l-52.413-52.412c-6.556 5.062-13.365 8.735-21.332 4.005l-21.068-12.769c3.561-2.171 22.746-13.716 25.781-15.764l-4.322-17.628 17.844 4.377c1.749-3.165 13.401-22.275 15.547-25.836 0 0 12.77 21.067 12.769 21.067 4.73 7.974 1.063 14.768-4.006 21.332l26.247 26.248 10.607-10.607-17.917-17.916c3.531-8.654 2.86-18.64-2.103-26.831l-25.598-42.232-7.417 12.238c-22.595-24.789-67.671-13.753-74.348-10.212-3.51 6.51-14.585 51.752 10.206 74.352l-12.231 7.413 42.232 25.597c8.188 4.963 18.173 5.634 26.83 2.104l44.084 44.083c5.849 5.848 13.53 8.771 21.213 8.771 26.122.468 40.154-32.759 21.214-51.2zm-141.574-99.146c10.535-3.58 42.397-6.242 54.09 11.906l-7.064 11.655-31.089-7.625 7.624 31.09-11.655 7.064c-18.145-11.693-15.484-43.564-11.906-54.09z"/><path d="m211.379 181.002c2.381 4.292 20.107 44.113 57.986 45.185.62 0 1.239-.013 1.857-.038l-3.458 14.103 47.962-11.765c9.301-2.28 16.837-8.866 20.46-17.484h62.343c16.542 0 30-13.458 30-30s-13.458-30-30-30h-62.343c-3.623-8.617-11.158-15.203-20.46-17.485l-47.962-11.763 3.408 13.898c-33.506-1.552-57.575 38.124-59.793 45.349zm100.773-32.917c9.027 2.339 11.168 9.646 12.252 17.917h74.124c8.271 0 15 6.729 15 15s-6.729 15-15 15h-74.123c-1.083 8.262-3.225 15.58-12.253 17.916l-23.926 5.868 7.124-29.353-15.562-9.432 15.562-9.432c-.709-3.374-6.176-25.454-7.124-29.354.001.002 23.926 5.87 23.926 5.87zm-37.173 3.09 3.246 13.234-27.375 16.593 27.375 16.593-3.246 13.236c-21.106 4.565-41.767-19.876-46.673-29.841 4.859-9.974 25.516-34.393 46.673-29.815z"/><path d="m285.298 346.719c-.418 20.149 17.337 37.9 37.484 37.485 47.323-1.156 48.005-70.042 44.519-82.003-11.812-3.483-80.87-2.834-82.003 44.518zm57.246-30.369-40.043 40.042c-1.427-2.985-2.204-6.266-2.204-9.672-.117-20.32 25.379-28.575 42.247-30.37zm-19.762 52.854c-3.407 0-6.688-.777-9.673-2.204l40.038-40.038c-1.913 17.091-10.143 42.435-30.365 42.242z"/><path d="m376.497 377.201c-3.474 11.807-2.854 80.859 44.519 82.003 20.148.418 37.901-17.338 37.484-37.483-1.179-47.334-69.998-47.998-82.003-44.52zm67.003 44.519c0 3.407-.777 6.687-2.204 9.673l-40.041-40.041c17.092 1.911 42.436 10.145 42.245 30.368zm-38.384 15.898c-9.857-9.856-13.298-24.281-14.37-35.561l39.936 39.936c-8.354 3.973-18.662 2.531-25.566-4.375z"/><path d="m99.218 212.293c20.149.418 37.9-17.338 37.484-37.483-1.178-47.335-69.999-47.996-82.003-44.519-3.474 11.808-2.851 80.856 44.519 82.002zm-30.369-57.245 40.042 40.041c-2.986 1.426-6.266 2.204-9.672 2.204-20.215.205-28.456-25.154-30.37-42.245zm52.853 19.761c0 3.407-.777 6.688-2.204 9.673l-40.074-40.074c17.072 1.901 42.469 10.165 42.278 30.401z"/><path d="m211.702 76.575c0-10.012-3.898-19.426-10.979-26.506-14.615-14.613-38.396-14.611-53.012 0-25.719 28.778-18.38 62.258-18.011 71.025 25.954 5.09 81.479-3.718 82.002-44.519zm-21.586 15.9c-9.855 9.856-24.278 13.294-35.558 14.367l39.933-39.933c3.973 8.354 2.531 18.661-4.375 25.566zm-31.797-31.798c6.904-6.906 17.211-8.348 25.564-4.375l-39.935 39.935c1.073-11.281 4.515-25.704 14.371-35.56z"/><path d="m173.5 256.002c0 12.406 10.094 22.5 22.5 22.5s22.5-10.094 22.5-22.5-10.094-22.5-22.5-22.5-22.5 10.094-22.5 22.5zm30 0c0 4.136-3.364 7.5-7.5 7.5s-7.5-3.364-7.5-7.5 3.364-7.5 7.5-7.5 7.5 3.364 7.5 7.5z"/><path d="m301 98.502c12.406 0 22.5-10.094 22.5-22.5s-10.094-22.5-22.5-22.5-22.5 10.094-22.5 22.5 10.094 22.5 22.5 22.5zm0-30c4.136 0 7.5 3.364 7.5 7.5s-3.364 7.5-7.5 7.5-7.5-3.364-7.5-7.5 3.364-7.5 7.5-7.5z"/><path d="m338.5 256.002c0 12.406 10.094 22.5 22.5 22.5s22.5-10.094 22.5-22.5-10.094-22.5-22.5-22.5-22.5 10.094-22.5 22.5zm30 0c0 4.136-3.364 7.5-7.5 7.5s-7.5-3.364-7.5-7.5 3.364-7.5 7.5-7.5 7.5 3.364 7.5 7.5z"/><path d="m286 398.502c-12.406 0-22.5 10.094-22.5 22.5s10.094 22.5 22.5 22.5 22.5-10.094 22.5-22.5-10.094-22.5-22.5-22.5zm0 30c-4.136 0-7.5-3.364-7.5-7.5s3.364-7.5 7.5-7.5 7.5 3.364 7.5 7.5-3.364 7.5-7.5 7.5z"/></g></g><g/><g/><g/><g/><g/><g/><g/><g/><g/><g/><g/><g/><g/><g/><g/></svg>