<svg id="Capa_1" enable-background="new 0 0 512 512" viewBox="0 0 512 512" xmlns="http://www.w3.org/2000/svg"><g><g><g><g><path d="m225.491 462.791c-16.564-3.613-35.357-9.009-55.413-17.159-14.45-5.866-28.325-13.053-41.566-21.292l-16.557-10.303-18.606 21.415c17.547 15.594 56.213 42.017 126.215 56.594 7.057 1.47 14.096-2.633 16.661-9.369 3.244-8.519-1.828-17.943-10.734-19.886z" fill="#00a666"/></g><g><path d="m340.137 360.993c-16.564-3.613-35.357-9.009-55.413-17.159-14.45-5.866-28.325-13.053-41.566-21.292l-16.557-10.303-20.853 21.096c11.38 8.799 25.486 18.354 42.411 27.25 13.17 6.922 25.624 12.17 36.791 16.183 9.365 6.517 28.401 9.578 49.26 13.48 7.085 1.326 14.096-2.633 16.661-9.369 3.244-8.519-1.828-17.943-10.734-19.886z" fill="#00a666"/></g><g><path d="m286.73 367.411c-1.286-9.029-10.295-14.812-19.033-12.199-16.24 4.856-35.292 9.231-56.78 11.81-10.974 1.317-21.396 2.023-31.166 2.289l-13.933 1.059-30.139 24.031c9.904 3.306 25.821 4.773 36.259 5.008 13.003.292 27.551-.197 43.301-2.055 23.849-2.812 44.524-8.062 61.449-13.678 6.841-2.272 11.059-9.129 10.042-16.265z" fill="#00c278"/></g><g><path d="m411.487 215.473c-3.068-8.589-13.052-12.452-21.09-8.143-14.939 8.009-32.73 16.108-53.267 22.936-10.488 3.487-20.558 6.265-30.077 8.48l-13.439 3.826-24.784 27.436 5.459.662c10.365 1.256 20.858.988 31.132-.871 12.799-2.316 26.954-5.708 42.013-10.68 22.804-7.529 42.009-16.811 57.468-25.701 6.25-3.593 9.01-11.156 6.585-17.945z" fill="#00a666"/></g><g><path d="m504.603 141.175c-1.575-6.125-6.799-10.628-13.09-11.278-30.634-3.16-61.515-.838-91.147 6.807-11.438 2.951-22.336 7.444-32.447 13.276l-39.046 50.788 32.127-15.736c39.855-19.248 83.961-27.742 127.913-25.016 10.295.638 18.259-8.853 15.69-18.841z" fill="#00a666"/></g><g><path d="m218.726 193.51c-8.948-1.769-17.382 4.824-17.802 13.935-.781 16.932-2.946 36.359-7.611 57.493-4.948 22.42-11.6 41.726-18.21 57.562l-25.542 63.098 51.038-47.357c6.801-15.466 17.713-44.67 22.77-67.361 5.224-23.439 7.099-44.688 7.389-62.518.118-7.208-4.961-13.454-12.032-14.852z" fill="#00c278"/></g><g><path d="m107.55 256.979c-2.196-5.933-7.857-9.872-14.184-9.872-10.314-.001-17.522 10.076-14.34 19.887 7.528 23.211 11.732 47.327 12.501 71.602.877 27.707-3.723 55.316-13.107 81.401l-14.397 40.02 29.326-24.565c21.21-19.548 28.683-49.167 30.06-77.978.165-3.451.245-6.963.248-10.527.024-30.601-5.418-61.087-16.107-89.968z" fill="#00c278"/></g><g><path d="m65.301 434.397c-.787-12.983-2.48-27.439-5.637-42.982-4.78-23.534-11.725-43.702-18.726-60.104-2.83-6.629-10.013-10.264-17.041-8.659-8.892 2.03-13.908 11.487-10.579 19.979 6.186 15.781 12.125 34.405 16.476 55.605.022.108.044.216.067.325 3.369 16.497 4.728 33.339 4.307 50.172l-.811 32.427 30.699-23.407c1.288-7.707 1.718-15.54 1.245-23.356z" fill="#00c278"/></g><g><path d="m380.627 143.03-16.534 9.888c2.122-20.224 10.036-39.413 22.862-55.192 6.165-7.584 12.42-15.95 18.572-25.133 12.046-17.98 21.141-35.283 28.039-50.766 3.712-8.331 13.968-11.397 21.656-6.489 6.076 3.879 8.529 11.546 5.794 18.215-6.768 16.499-16.258 35.602-29.664 55.526-8.854 13.158-17.962 24.512-26.656 34.185-6.98 7.765-15.108 14.407-24.069 19.766z" fill="#00a666"/></g><g><path d="m372.777 281.107c-16.942.523-36.479-.141-57.908-3.167-10.944-1.545-21.198-3.54-30.708-5.792-4.971-1.177-10.001-1.981-15.051-2.417l-20.95 20.953c6.573 3.582 13.514 6.458 20.72 8.547 12.492 3.622 26.677 6.884 42.376 9.134 23.771 3.407 45.101 3.643 62.901 2.561 7.195-.438 13.032-5.982 13.882-13.14 1.075-9.058-6.146-16.96-15.262-16.679z" fill="#00c278"/></g><g><path d="m353.954 164.949-10.66 16.047c-6.799-19.164-7.925-39.891-3.15-59.657 2.295-9.5 4.336-19.745 5.93-30.682 3.123-21.416 3.875-40.949 3.429-57.893-.24-9.117 7.694-16.303 16.747-15.187 7.154.882 12.672 6.744 13.077 13.941 1.002 17.805.669 39.133-2.845 62.889-2.321 15.689-5.647 29.859-9.326 42.335-2.952 10.014-7.425 19.51-13.202 28.207z" fill="#00c278"/></g><g><path d="m304.475 179.39c-1.269-30.511-7.941-61.002-19.758-89.236-2.436-5.838-8.253-9.543-14.574-9.286-10.305.42-17.097 10.782-13.518 20.455 8.468 22.886 13.65 46.811 15.407 71.033 2.006 27.649-1.467 55.422-9.78 81.868l-10.255 32.62 20.155-20.155c23.135-22.865 34.661-54.985 32.323-87.299z" fill="#00c278"/></g></g></g><path d="m492.023 121.908c-26.492-2.254-53.947-1.865-80.127 3.622 23.422-26.542 42.338-56.956 55.777-89.738 10.435-27.255-28.842-43.95-41.278-17.642-11.056 24.817-25.158 48.25-41.898 69.618 2.365-18.976 3.04-38.164 1.96-57.284-2.069-29.006-45.207-27.12-44.85 1.865.767 29.144-2.313 58.373-9.16 86.698-5.312 20.142-3.471 40.964 2.289 60.756-8.209 10.359-16.565 20.607-25.049 30.754 3.215-15.804 3.395-33.843-.149-55.554l-14.889 1.937c4.966 30.9 2.013 63.462-15.711 89.267-3.509 3.945-7.039 7.873-10.59 11.783 17.278-52.531 13.78-108.586-5.162-159.821-1.9-4.694 1.711-10.297 6.796-10.369 11.382-1.863 19.811 44.966 22.332 54.56l14.749-2.807c-3.439-18.066-8.779-35.846-15.871-52.849-11.692-26.858-51.919-10.79-42.09 16.674 25.281 64.481 15.618 119.076-3.576 179.209-8.663 9.139-17.429 18.186-26.317 27.125 11.044-32.331 18.729-68.923 18.552-101.677.891-18.344-22.253-29.713-36.302-17.998-5.142 4.031-8.265 10.086-8.566 16.611-.873 18.902-3.38 37.837-7.45 56.276-6.893 35.255-30.117 85.437-43.346 119.386-6.225 5.491-12.489 10.943-18.801 16.344 5.086-15.973 7.571-33.995 7.265-52.022.025-31.68-5.556-62.855-16.588-92.66-10.118-27.133-51.85-12.758-42.731 14.944 7.313 22.552 11.402 45.966 12.149 69.59 1.756 25.448-4.282 52.25-12.524 77.975-3.117-30.39-12.42-60.404-23.705-88.45-11.815-26.598-51.72-10.098-41.541 17.017 17.492 41.726 22.571 86.084 19.842 131.21-8.428 6.193-16.915 12.313-25.463 18.357l8.395 12.447c20.663-14.6 76.105-56.979 82.7-62.262 14.93 10.668 42.043 27.487 57.57 33.211l6.015-13.757c-13.389-4.872-36.495-18.983-51.188-29.108 0 0 8.211-7.114 11.727-10.039 16.452 10.272 34.349 20.588 51.473 27.253 18.29 7.432 37.364 13.339 56.69 17.553 9.304 1.85 6.295 16.456-2.951 14.57-17.602-3.294-34.995-8.172-51.697-14.498l-5.317 14.04c18.831 6.825 38.426 13.106 58.384 15.599 26.396-.073 30.695-38.609 4.781-44.382-35.312-7.349-68.599-21.245-99.383-40.197 4.562-3.867 9.1-7.758 13.618-11.672 12.15 2.608 26.165 3.368 37.49 3.347 34.043.013 67.96-5.479 100.283-16.207 3.299-1.094 6.187-2.901 8.548-5.197 16.048 5.446 32.604 10.368 49.416 12.415 26.395-.07 30.696-38.613 4.781-44.38-36.513-7.603-70.853-22.203-102.505-42.152 3.743-3.825 7.466-7.668 11.17-11.529 38.687 16.707 82.499 20.158 124.239 18.393 28.699-1.731 26.86-45.806-2.068-44.841-14.091.435-28.27-.037-42.319-1.397 27.447-7.004 53.868-18.685 78.451-32.326 9.401-5.407 13.572-16.76 9.916-26.993-4.181-12.651-20.136-18.809-31.727-12.243-22.8 12.706-47.455 21.344-72.491 28.493 6.172-7.274 12.266-14.609 18.298-21.992 47.492-25.839 100.975-44.358 155.885-39.749 29.332 1.59 32.675-41.717 3.839-45.107zm-80.6-45.711c10.987-16.399 20.637-33.873 28.686-51.937 1.15-2.678 3.909-4.41 6.803-4.402 5.089-.116 8.946 5.557 6.871 10.234-7.794 18.999-17.543 37.247-28.975 54.235-14.079 19.975-28.759 40.783-50.547 53.036 5.418-23.827 24.155-41.172 37.162-61.166zm-58.315 14.985c2.847-19.537 4.028-39.464 3.507-59.228-.25-9.544 14.297-10.15 14.852-.628 1.153 20.498.219 41.164-2.777 61.427-4.105 24.126-8.393 49.291-22.836 69.748-5.281-24.07 4.131-47.62 7.254-71.319zm-146.563 252.098c5.109 3.625 12.616 8.772 19.903 13.441-12.818 2.091-25.766 3.456-38.735 4.439 6.324-5.916 12.609-11.869 18.832-17.88zm41.88 9.036c-8.269-4.253-22.101-13.511-30.937-19.698 3.534-3.478 7.047-6.975 10.547-10.483 14.568 9.377 29.701 17.64 45.339 24.682-8.528-.502-16.622 4.089-24.949 5.499zm-40.532-144.974c.437-9.531 14.997-9.093 14.856.449.765 40.348-14.431 94.348-29.551 127.101 0 0-16.568 16.131-25.122 24.007 19.825-48.271 39.273-100.786 39.817-151.557zm-171.372 189.425c-3.972-19.446-9.665-38.689-16.919-57.198-3.638-8.773 10.184-14.387 13.752-5.644 8.059 18.881 14.212 38.633 18.291 58.706 3.553 19.79 7.258 40.154 4.808 60.289-5.239 4.036-10.497 8.049-15.786 12.026.61-22.783.617-47.675-4.146-68.179zm49.002-132.481c-3.079-9.333 10.903-14.325 14.37-5.102 17.776 47.895 26.678 124.894-6.707 164.618-3.837 3.129-7.688 6.242-11.554 9.338 18.829-55.264 23.842-111.435 3.891-168.854zm188.34 111.98c-37.017 11.665-79.089 19.023-118.14 14.044 4.896-4.345 9.774-8.71 14.615-13.11 13.493-.992 27.768-1.289 40.951-3.027 19.6-2.352 39.145-6.416 58.088-12.082 9.042-2.89 13.492 11.347 4.486 14.175zm69.602 1.655c-1.28 3.363-4.764 5.325-8.28 4.67-14.011-2.622-27.903-6.259-41.399-10.818.938-7.299-2.104-15.002-7.74-19.555 16.834 6.742 34.216 12.069 52.091 15.805 4.333.828 7.001 5.824 5.328 9.898zm29.172-89.691c9.482-.44 10.125 14.417.694 14.85-37.506 1.513-76.835-1.097-112.014-15.019 3.518-3.533 6.9-7.022 10.13-10.498 33.458 5.832 66.94 12.682 101.19 10.667zm20.952-74.732c3.836-2.186 9.117-.132 10.495 4.061 6.876 11.72-50.042 30.259-59.396 34.031-19.743 6.148-40.249 12.197-61.027 11.883.003-.003.005-.006.008-.009 4.301-4.775 8.561-9.584 12.801-14.409 33.411-8.61 66.809-18.699 97.119-35.557zm95.528-61.465c-46.679-3.85-92.384 7.847-134.587 26.885 5.767-7.406 11.453-14.872 17.078-22.382 2.49-1.469 5.014-2.977 7.535-4.524 34.322-16.1 73.904-18.298 111.339-15.17 9.804 1.078 8.431 15.827-1.365 15.191z"/></g><g/><g/><g/><g/><g/><g/><g/><g/><g/><g/><g/><g/><g/><g/><g/></svg>