<svg id="Capa_1" enable-background="new 0 0 512 512" viewBox="0 0 512 512" xmlns="http://www.w3.org/2000/svg"><g><g><g><g><circle cx="256" cy="256" fill="#57758d" r="248.5"/></g><g><path d="m272.042 488.459c-137.243 0-248.5-111.258-248.5-248.501 0-64.54 24.609-123.33 64.949-167.508-49.766 45.443-80.991 110.848-80.991 183.55 0 137.243 111.257 248.5 248.5 248.5 72.702 0 138.108-31.226 183.55-80.991-44.179 40.341-102.968 64.95-167.508 64.95z" fill="#4b6276"/></g><g><g><path d="m69.284 274.689-24.588-24.588 24.588-24.588c18.841-18.571 47.789-26.934 73.519-20.302l54.154 44.89-56.127 43.836z" fill="#00c278"/></g></g><g><path d="m194.752 248.273s-39.337 28.34-39.34 28.336c-12.102-12.251-29.932-17.692-46.822-14.469-8.976-7.077-19.744-10.797-30.609-11.179l-17.073-17.073-16.213 16.213 6.879 6.879 17.708 17.708 71.546 19.248 56.127-43.836z" fill="#00a666"/></g><g><path d="m139.51 292.527c-11.716-11.716-30.712-11.716-42.429 0-11.716 11.716-11.716 30.712 0 42.429 9.357 9.357 23.358 11.241 34.585 5.652l14.418-21.266-3.792-23.615c-.839-1.115-1.766-2.185-2.782-3.2z" fill="#f05475"/></g><g><path d="m97.333 282.167c-11.716-11.716-30.712-11.716-42.429 0-11.716 11.717-11.716 30.712 0 42.429 10.252 10.252 26.077 11.534 37.722 3.845l9.525-39.987c-1.291-2.249-2.897-4.366-4.818-6.287z" fill="#f05475"/></g><g><path d="m112.359 318.678c-8.69-8.69-10.928-21.384-6.727-32.143-3.096 1.44-5.997 3.437-8.551 5.992-11.716 11.716-11.716 30.712 0 42.429 9.357 9.357 23.358 11.241 34.585 5.652l9.603-14.164c-9.991 2.642-21.075.068-28.91-7.766z" fill="#e21743"/></g><g><path d="m93.951 122.423-11.569-9.547c3.275-3.969 6.733-7.878 10.277-11.618l10.888 10.318c-3.31 3.492-6.538 7.142-9.596 10.847zm19.913-21.011-10.155-11.039c3.792-3.488 7.751-6.888 11.769-10.104l9.375 11.709c-3.751 3.003-7.448 6.177-10.989 9.434z" fill="#fff"/></g><g><path d="m415.281 122.822c-6.338-6.338-14.806-9.24-23.099-8.72.519-8.293-2.382-16.761-8.72-23.099-8.846-8.846-21.842-11.008-32.721-6.495l-1.455.582-.435-1.65c-1.298-5.001-3.898-9.733-7.815-13.651-10.101-10.101-25.611-11.485-37.203-4.167-1.356-2.524-3.093-4.896-5.223-7.026-11.716-11.716-30.711-11.716-42.426 0-2.13 2.13-3.867 4.503-5.223 7.026-11.593-7.318-27.102-5.934-37.204 4.167-5.932 5.932-8.855 13.73-8.78 21.505-7.775-.076-15.573 2.848-21.506 8.78-7.103 7.103-9.891 16.881-8.381 26.091-4.904 1.32-9.54 3.896-13.389 7.744-9.925 9.925-11.439 25.074-4.547 36.596-2.426 1.335-4.71 3.022-6.767 5.078-11.716 11.716-11.716 30.711 0 42.426 6.338 6.338 14.806 9.24 23.099 8.72-.52 8.294 2.382 16.761 8.72 23.099.002.002.005.004.007.007-.092.09-.187.173-.278.264-6.338 6.338-9.24 14.806-8.72 23.099-8.294-.52-16.762 2.383-23.099 8.72-10.164 10.164-11.504 25.806-4.031 37.421-2.138 1.261-4.152 2.809-5.988 4.645-10.672 10.672-11.618 27.381-2.849 39.129-2.605 24.108 5.315 49.138 23.796 67.619 15.393 15.393 35.689 23.697 56.353 24.292.663.82 1.373 1.615 2.136 2.377 11.716 11.716 30.711 11.716 42.426 0 5.288-5.288 8.18-12.059 8.695-18.974 9.736 2.236 20.37-.432 27.954-8.016 4.672-4.672 7.475-10.504 8.421-16.568l.35-2.373 2.321.406c9.238 1.546 19.06-1.237 26.189-8.365 5.609-5.609 8.525-12.886 8.763-20.234l.008-2.589 2.83.031c7.25-.304 14.412-3.221 19.948-8.757 5.417-5.417 8.324-12.39 8.731-19.48 23.402-24.955 42.144-50.004 57.075-73.324 8.349-13.039 13.495-27.348 15.559-41.929 1.299-.936 2.544-1.983 3.713-3.152 11.716-11.716 11.716-30.711 0-42.426-.233-.233-.474-.454-.713-.678 6.712-11.489 5.147-26.483-4.703-36.333-6.338-6.338-14.806-9.24-23.099-8.72.52-8.292-2.382-16.76-8.72-23.098z" fill="#fee95d"/></g><g><g><path d="m203.34 243.066c-11.234-6.383-13.443-23.97-12.923-32.266-20.324 1.88-37.088-19.587-30.556-38.767-1.196-.374-2.406-.703-3.633-.976-26.92 16.094-13.669 57.692 17.258 55.675-.52 8.296 2.385 16.769 8.727 23.106-3.089 2.978-5.396 6.551-6.901 10.306 4.663-2.23 28.028-17.078 28.028-17.078z" fill="#e7c900"/></g><g><path d="m364.422 364.789-2.83-.031-.008 2.589c-.115 3.536-.856 7.052-2.212 10.377 2.914-1.42 5.645-3.339 8.066-5.76 2.687-2.687 4.755-5.758 6.208-9.036-2.975 1.109-6.091 1.73-9.224 1.861z" fill="#e7c900"/></g><g><path d="m236.464 441.473c-.763-.763-1.473-1.558-2.136-2.378-20.664-.595-40.96-8.898-56.353-24.292-18.481-18.481-26.401-43.511-23.796-67.619-5.335-7.147-7.067-16.129-5.208-24.473-1.44-.778-2.835-1.623-4.16-2.563-1.665 1.099-3.249 2.373-4.715 3.839-10.672 10.672-11.618 27.381-2.849 39.129-2.605 24.108 5.315 49.138 23.796 67.619 15.393 15.393 35.689 23.697 56.353 24.292.663.819 1.373 1.614 2.136 2.377 11.716 11.716 30.711 11.716 42.426 0 2.687-2.688 4.749-5.76 6.201-9.037-10.661 3.969-23.124 1.676-31.695-6.894z" fill="#e7c900"/></g></g><g><path d="m72.025 307.475c-8.669-8.669-10.917-21.322-6.756-32.064-3.776 1.462-7.317 3.709-10.364 6.756-11.716 11.717-11.716 30.712 0 42.429 10.252 10.252 26.077 11.534 37.722 3.845l2.923-12.272c-8.429.646-17.079-2.247-23.525-8.694z" fill="#e21743"/></g><g><path d="m286 297.066h30v37.872h-30z" fill="#00c278" transform="matrix(.707 -.707 .707 .707 -135.286 305.394)"/></g><g><path d="m234.996 181.782h30v37.872h-30z" fill="#00c278" transform="matrix(.707 .707 -.707 .707 215.152 -117.985)"/></g></g></g><g><path d="m512 256c0-68.38-26.629-132.668-74.98-181.02-48.353-48.351-112.64-74.98-181.02-74.98s-132.667 26.629-181.02 74.98c-48.351 48.352-74.98 112.64-74.98 181.02s26.629 132.668 74.98 181.02c48.353 48.351 112.64 74.98 181.02 74.98 36.737 0 72.204-7.619 105.416-22.645 32.082-14.515 60.399-35.146 84.165-61.319l-11.105-10.084c-45.615 50.236-110.666 79.048-178.476 79.048-132.888 0-241-108.112-241-241s108.112-241 241-241 241 108.112 241 241c0 54.832-17.939 106.492-51.879 149.396l11.764 9.307c36.056-45.58 55.115-100.459 55.115-158.703z"/><path d="m213.897 462.371c7.1 7.281 16.678 11.325 26.849 11.32 16.321.247 31.625-11.316 35.991-26.99 16.321.594 32.271-11.058 36.638-26.934 18.454.993 36.035-13.55 38.386-31.928 16.117-2.146 29.708-15.94 31.626-32.098 28.878-34.081 63.589-69.227 72.376-114.454 15.083-12.426 17.372-36.599 5-51.633 9.228-21.439-6.202-48.25-29.581-50.916-2.017-16.073-15.747-29.802-31.82-31.82-2.448-21.069-24.964-36.535-45.347-31.307-7.738-17.968-29.909-26.977-47.662-19.627-14.106-18.069-43.812-18.07-57.92-.001-20.798-8.862-46.982 5.807-50.383 28.387-17.312 2.729-31.079 19.204-30.856 36.707-17.516 7.738-26.324 29.307-19.538 46.858-9.205 7.38-13.385 17.74-13.424 28.081-9.983-1.211-20.175-.661-29.967 1.664l3.465 14.594c9.706-2.304 19.891-2.492 29.677-.579 4.831 11.354 14.944 20.461 28.895 22.218.426 2.989 1.22 5.903 2.338 8.688h-59.312v15h58.926c-1.061 2.702-1.81 5.526-2.222 8.417-11.103 1.25-20.372 7.958-26.082 16.944-10.524-7.503-23.842-8.276-35.179-3.911-8.586-10.403-21.206-14.182-33.128-12.609l-16.34-16.34c10.472-10.058 25.236-27.578 38.887-33.09l-6.389-13.572c-17.805 7.108-39.889 33.712-53.711 46.662l21.868 21.869c-10.141 6.209-17.449 17.083-17.341 31.411-.8 25.747 27.981 45.018 51.391 34.819 8.364 9.756 21.541 14.865 34.264 12.568.728 5.015 2.463 9.914 5.258 14.343-4.853 48.793 35.426 95.105 84.367 97.259zm-32.664-181.153c-1.838-15.745.375-21.503 12.28-31.945-12.272-8.162-13.642-16.651-12.01-30.558-8.869 1.02-19.333 1.174-25.813-6.008-8.729-8.374-8.729-23.445-.001-31.819 2.67-2.967 8.466-5.536 11.892-7.559-13.741-18.531-7.081-37.578 16.007-41.683-5.457-21.667 7.02-35.06 28.962-32.777-.493-8.306-.106-17.792 6.509-23.775 10.42-10.346 24.181-7.078 34.701 1.166 4.279-9.865 11.848-19.359 23.635-18.951 11.793-.406 19.348 9.08 23.636 18.95 10.51-8.24 24.286-11.508 34.7-1.167 5.283 4.629 6.676 13.675 8.464 20.112 0 0 9.419-3.769 9.419-3.768 14.758-6.663 32.551 6.103 31.082 22.197l-.532 8.485c8.867-1.02 19.327-1.171 25.813 6.008 7.191 6.499 7.02 16.932 6.007 25.812 0 0 8.486-.531 8.485-.532 21.567-.704 30.708 22.784 17.84 38.952 14.873 10.764 15.806 30.77-.484 40.657-6.728 46.529-43.707 81.937-72.988 116.322-.245 18.825-14.638 25.713-31.655 23.77.287 8.481.345 18.996-6.597 25.102-7.565 8.377-19.644 6.856-29.5 4.548-1.036 7.416-1.725 17.068-7.781 22.353-7.682 8.41-19.594 7.087-29.483 4.056 1.343 26.048-25.07 40.334-42.765 18.465-45.332 1.574-83.596-41.815-76.036-86.639-12.501-14.904-5.038-31.908 11.589-39.15-17.448-21.36-2.202-45.648 24.624-40.624zm-127.616 22.164c-.153-20.541 25.071-29.252 38.232-16.191-9.516 8.411-13.806 24.819-9.377 37.877-13.484 3.923-29.328-6.642-28.855-21.686zm42.178 10.36c-.22-20.246 25.087-29.692 38.47-15.885-1.025 6.386-.412 13.026 2.253 19.206-5.625 4.917-9.424 11.298-11.295 18.165-13.756 4.648-29.872-6.435-29.428-21.486z"/><path d="m248.67 128.502c4.136 0 7.5 3.364 7.5 7.5h15c0-12.406-10.093-22.5-22.5-22.5s-22.5 10.094-22.5 22.5h15c0-4.136 3.364-7.5 7.5-7.5z"/><path d="m331 158.502c4.136 0 7.5 3.364 7.5 7.5h15c0-12.406-10.093-22.5-22.5-22.5s-22.5 10.094-22.5 22.5h15c0-4.136 3.364-7.5 7.5-7.5z"/><path d="m338.5 241.002h15c0-4.136 3.364-7.5 7.5-7.5s7.5 3.364 7.5 7.5h15c0-12.406-10.093-22.5-22.5-22.5s-22.5 10.094-22.5 22.5z"/><path d="m218.532 308.502c4.136 0 7.5 3.364 7.5 7.5h15c0-12.406-10.093-22.5-22.5-22.5s-22.5 10.094-22.5 22.5h15c0-4.136 3.364-7.5 7.5-7.5z"/><path d="m263.67 368.502c-12.407 0-22.5 10.094-22.5 22.5h15c0-4.136 3.364-7.5 7.5-7.5s7.5 3.364 7.5 7.5h15c0-12.406-10.093-22.5-22.5-22.5z"/><path d="m303.783 350.604 31.82-31.819-37.387-37.386-31.82 31.819zm10.607-31.819-10.606 10.606-16.173-16.173 10.606-10.606z"/><path d="m284.6 197.935-31.82-31.819-37.386 37.387 31.82 31.819zm-31.82-10.607 10.607 10.606-16.173 16.174-10.607-10.606z"/></g></g><g/><g/><g/><g/><g/><g/><g/><g/><g/><g/><g/><g/><g/><g/><g/></svg>