<svg id="Capa_1" enable-background="new 0 0 512 512" viewBox="0 0 512 512" xmlns="http://www.w3.org/2000/svg"><g><g><path d="m431.77 449.828c4.309-4.309 6.5-9.932 6.582-15.579 12.976.286 24.194-12.894 21.954-25.583 13.249-1.742 22.266-17.244 17.513-29.474 12.988-4.342 18.854-21.103 11.75-32.474 12.092-6.762 14.943-23.806 5.851-34.085 12.175-8.834 11.838-28.029-.626-36.437 9.084-8.754 9.125-23.4.097-32.21 7.54-9.715 5.49-24.547-4.768-31.811 21.015-21.604-10.434-52.851-31.899-31.716-7.044-10.714-22.327-13.093-32.233-5.373-8.81-9.028-23.456-8.988-32.21.097-8.409-12.465-27.602-12.8-36.437-.626-10.278-9.093-27.324-6.239-34.085 5.852-11.371-7.105-28.133-1.236-32.474 11.75-12.23-4.755-27.734 4.267-29.474 17.513-12.691-2.241-25.869 8.981-25.583 21.954-13.662-.299-24.994 14.093-21.664 27.215-13.922 1.435-23.345 17.921-17.77 30.519-15.775 3.747-22.176 24.81-11.037 36.643-14.177 10.734-10.619 34.346 5.913 40.58-12.44 29.949-9.708 76.172 7.48 105.258 9.968 5.199 26.921 12.442 49.136 14.503 25.323 2.35 45.497-3.146 56.551-7.051 3.023 8.007 10.129 13.789 18.578 15.149 8.162 1.314 16.959-1.336 22.384-8.634 11.971 9.715 31.759 2.977 35.32-12.121 12.598 5.576 29.085-3.85 30.519-17.77 7.21 1.538 15.03-.487 20.632-6.089z" fill="#c3f839"/><path d="m431.77 449.828c4.309-4.309 6.5-9.932 6.582-15.579 12.976.286 24.194-12.894 21.954-25.583 13.249-1.742 22.266-17.244 17.513-29.474 12.988-4.342 18.854-21.103 11.75-32.474 12.092-6.762 14.943-23.806 5.851-34.085 12.175-8.834 11.838-28.029-.626-36.437 9.084-8.754 9.125-23.4.097-32.21 7.54-9.715 5.49-24.547-4.768-31.811 21.015-21.604-10.434-52.851-31.899-31.716-7.044-10.714-22.327-13.093-32.233-5.373-8.81-9.028-23.456-8.988-32.21.097-8.409-12.465-27.602-12.8-36.437-.626-10.278-9.093-27.324-6.239-34.085 5.852-11.371-7.105-28.133-1.236-32.474 11.75-12.23-4.755-27.734 4.267-29.474 17.513-12.691-2.241-25.869 8.981-25.583 21.954-13.662-.299-24.994 14.093-21.664 27.215-13.922 1.435-23.345 17.921-17.77 30.519-15.775 3.747-22.176 24.81-11.037 36.643-14.177 10.734-10.619 34.346 5.913 40.58-12.44 29.949-9.708 76.172 7.48 105.258 9.968 5.199 26.921 12.442 49.136 14.503 25.323 2.35 45.497-3.146 56.551-7.051 3.023 8.007 10.129 13.789 18.578 15.149 8.162 1.314 16.959-1.336 22.384-8.634 11.971 9.715 31.759 2.977 35.32-12.121 12.598 5.576 29.085-3.85 30.519-17.77 7.21 1.538 15.03-.487 20.632-6.089z" fill="#c3f839"/><path d="m323.291 180.356c-.01.018-.021.034-.031.052-11.371-7.105-28.133-1.236-32.474 11.75-12.23-4.755-27.734 4.267-29.474 17.513-12.691-2.241-25.869 8.98-25.583 21.954-13.662-.299-24.994 14.093-21.664 27.215-13.771 1.385-23.38 17.862-17.77 30.519-15.775 3.747-22.176 24.811-11.037 36.643-14.177 10.734-10.619 34.347 5.913 40.58-12.802 32.892-9.466 75.313 7.48 105.258l17.974-17.974c-4.523-7.654-8.035-16.501-10.543-25.919 31.083-18.046 46.807-46.478 60.635-71.395-1.419 8.283-4.839 28.231-6.257 36.514 56.015-52.101 85.721-132.084 62.831-212.71z" fill="#abe700"/><path d="m306.737 248.733c0-6.094-2.427-11.619-6.362-15.67 9.377-8.973 7.99-26.225-2.567-33.614 8.137-10.6 3.551-27.938-8.458-33.225 6.114-12.254-1.59-28.253-14.654-31.271 3.769-13.332-6.267-27.4-19.964-28.239 2.362-14.855-11.448-28.19-26.207-25.322.234-12.614-10.094-22.999-22.708-22.845-1.538-12.201-13.475-21.24-25.865-19.123-.416-30.136-44.749-29.994-44.982.129-12.557-2.595-25.046 6.529-26.591 18.993-12.614-.154-22.941 10.231-22.708 22.845-14.76-2.868-28.569 10.467-26.208 25.322-13.698.838-23.733 14.91-19.964 28.239-13.065 3.017-20.767 19.02-14.654 31.271-12.01 5.286-16.594 22.628-8.458 33.225-10.559 7.39-11.942 24.643-2.567 33.614-9.872 9.449-7.708 27.639 3.925 34.562-8.829 10.859-3.836 29.179 9.015 34.146-8.505 13.804 1.862 33.225 18.106 33.715-2.434 17.615 16.778 31.795 32.875 24.513 12.381 29.974 46.997 60.726 79.718 69.139 10.725-3.372 27.834-10.238 45-24.489 19.568-16.245 29.946-34.396 35.001-44.974 7.8 3.524 16.913 2.588 23.848-2.425 6.7-4.843 11.047-12.937 9.723-21.933 15.335-1.595 24.562-20.352 16.404-33.546 12.852-4.965 17.843-23.289 9.014-34.146 6.19-4.008 10.288-10.969 10.288-18.891z" fill="#c3f839"/><g><g fill="#abe700"><path d="m287.93 319.845c.14.95.203 1.887.22 2.814.466-.976.862-1.983 1.193-3.013-.465.083-.936.149-1.413.199z"/><path d="m155.441 16.978c-9.89.812-19.249 7.577-20.356 20.267 7-7.724 13.896-14.458 20.356-20.267z"/><path d="m157.454 407.472c-10.721-5.057-21.2-12.092-30.583-20.29-17.865-15.608-27.456-32.552-32.231-42.655-8.546-18.458-55.019-123.41-6.618-234.675 7.469-17.17 17.942-31.174 27.192-44.425l-6.834-6.879c-12.614-.154-22.941 10.231-22.708 22.845-14.76-2.868-28.569 10.467-26.208 25.322-13.698.838-23.733 14.91-19.964 28.239-13.065 3.017-20.767 19.02-14.654 31.271-12.01 5.286-16.594 22.628-8.458 33.225-10.559 7.39-11.942 24.643-2.567 33.614-9.872 9.449-7.708 27.639 3.925 34.562-8.829 10.859-3.836 29.179 9.015 34.146-8.505 13.804 1.862 33.225 18.106 33.715-2.434 17.615 16.778 31.795 32.875 24.513 12.381 29.974 46.997 60.726 79.718 69.139z"/><g><path d="m279.343 191.352c-.315.066-.629.139-.942.219.295.038.59.075.885.127.015-.117.039-.231.057-.346z"/><path d="m478.28 390.692c.052.294.089.589.127.884.08-.313.152-.626.219-.941-.116.017-.23.041-.346.057z"/><path d="m456.326 416.275c-.068 4.657-1.594 9.284-4.534 13.185 4.223-3.387 7.318-8.243 8.388-13.5-1.26.23-2.547.344-3.854.315z"/><path d="m429.112 437.939c-.902 8.753-7.756 15.727-15.853 18.313 6.592.765 13.454-1.367 18.511-6.423 3.337-3.337 5.388-7.464 6.189-11.778-2.925.541-5.935.511-8.847-.112z"/></g></g><g><path d="m106.646 117.329-10.879-10.328c3.554-3.743 7.292-7.402 11.109-10.875l10.094 11.096c-3.548 3.227-7.022 6.628-10.324 10.107zm21.361-19.439-9.264-11.797c4.055-3.184 8.281-6.262 12.562-9.148l8.387 12.436c-3.983 2.684-7.914 5.548-11.685 8.509z" fill="#fff"/></g></g></g><g><path d="m505.159 275.523c5.865-9.54 5.507-22.89-.897-32.075 4.934-10.049 3.336-23.276-3.861-31.886 16.052-26.066-15.051-57.16-41.099-41.2-8.585-7.559-22.238-9.387-32.465-4.337-9.186-6.401-22.53-6.754-32.067-.891-10.366-9.047-27.891-9.135-38.339-.183-11.197-5.945-26.99-3.15-35.469 6.276-5.089-1.579-10.619-1.693-15.964-.352-1.75-3.003-3.964-5.67-6.611-7.732 2.95-12.312-4.059-27.31-15.378-32.954.668-12.66-8.522-25.799-20.642-29.512-1.046-13.71-13.515-26.051-27.239-26.982-2.598-10.892-12.291-20.081-23.314-22.046-3.617-10.594-14.1-18.817-25.277-19.816-7.076-29.781-51.059-29.778-58.195-.072-11.416.726-22.359 9.085-26.023 19.89-11.018 1.969-20.707 11.154-23.305 22.044-13.724.932-26.192 13.27-27.238 26.982-12.119 3.711-21.311 16.853-20.643 29.512-11.318 5.643-18.329 20.642-15.378 32.954-9.854 7.675-13.945 23.587-8.886 34.978-7.979 9.077-9.192 24.908-2.668 35.09-6.836 10.734-5.103 27.164 3.779 36.277-5.24 11.649-1.016 27.909 9.203 35.561-4.607 14.48 5.387 32.937 20.07 36.912 1.302 16.807 19.965 30.61 36.482 27.215 6.857 13.204 15.756 25.087 26.516 35.396l10.381-10.834c-12.866-12.103-22.351-27.219-29.254-43.464-7.726 3.83-14.586 6.988-22.658.935-8.438-6.292-6.758-14.018-5.351-22.798-8.146-.134-15.721.523-20.285-8.131-4.894-8.766.301-15.058 4.716-22.096-7.084-2.776-14.36-4.148-16.518-13.078-2.53-8.573 2.956-13.576 7.68-19.341-6.323-3.756-13.118-6.466-13.88-15.222-1.159-8.336 4.303-12.499 9.505-17.35-4.979-4.648-10.442-8.815-9.567-16.806.36-8.06 6.359-11.314 12.009-15.169-4.309-5.45-9.082-10.449-6.795-18.36 1.86-8.139 8.296-10.072 14.759-12.835-3.199-6.165-7.076-12.349-3.319-19.574 3.321-7.562 10.239-8.366 17.114-9.866-1.992-6.623-4.68-13.707.194-20.014 4.47-6.835 12.084-6.417 19.122-6.79-1.277-7.424-3.322-14.962 3.19-20.902 6.382-6.588 14.371-3.762 21.994-2.281 0 0-.172-9.273-.172-9.273-.328-8.172 6.953-15.449 15.123-15.213l6.712.082s.826-6.661.826-6.661c.793-7.998 9.793-14.419 17.638-12.576l8.95 1.849.071-9.139c.086-11.205 8.108-15.204 14.951-15.225 6.862-.02 14.884 3.937 15.044 15.142l.121 8.769s8.645-1.477 8.645-1.477c7.781-1.553 16.348 4.819 17.168 12.673l.838 6.645 6.698-.082c.062 0 .124-.001.186-.001 8.078-.178 15.268 7.135 14.938 15.214l-.172 9.273c7.6-1.481 15.623-4.303 21.994 2.281 6.515 5.951 4.467 13.458 3.189 20.901 7.019.368 14.665-.037 19.123 6.791 4.874 6.318 2.189 13.373.195 20.014 6.857 1.492 13.802 2.311 17.113 9.865 3.754 7.236-.115 13.391-3.318 19.574 6.447 2.753 12.906 4.706 14.758 12.835 2.283 7.923-2.479 12.894-6.795 18.36 5.672 3.884 11.622 7.061 12.009 15.171.844 7.905-4.406 12.011-9.365 16.609 4.204 4.203 9.963 9.329 9.51 15.873.136 9.115-7.153 12.926-13.883 17.147 4.692 5.671 9.962 10.631 7.475 19.088-2.125 8.893-9.47 10.326-16.534 13.082 4.266 6.82 9.443 12.964 4.998 21.586-4.015 8.367-11.066 8.386-18.835 9.062 1.554 8.767 2.951 16.335-5.56 22.514-7.834 5.677-15.371 2.509-23.066-1.354-13.041 30.807-37.923 56.233-68.928 68.725v-69.29l58.072-82.128-12.252-8.664-45.82 64.8v-58.443l58.072-82.128-12.252-8.664-45.82 64.8v-109.773h-15.003v109.778l-45.82-64.798-12.252 8.664 58.072 82.126v58.443l-45.82-64.798-12.252 8.664 58.072 82.126v69.386c-9.533-3.735-18.533-8.634-26.837-14.667l-8.82 12.142c13.038 9.497 27.654 16.495 43.219 20.905 6.723-1.973 13.265-4.463 19.575-7.422 2.325 16.786 7.807 32.972 16.161 47.884 32.636 17.825 71.968 21.808 107.553 10.961 5.692 8.563 15.853 13.981 26.29 13.886 7.289 0 14.214-2.467 19.613-6.947 13.079 6.389 31.833.171 38.592-12.724 12.668 1.822 27.178-6.72 31.691-18.701 13.027-.142 25.372-10.12 28.23-22.9 11.843-2.561 22.217-14.629 22.994-26.715 11.633-4.478 19.991-18.62 18.45-31.017 10.792-6.618 16.442-22.182 12.429-34.175 9.424-8.48 12.215-24.27 6.271-35.465 8.954-10.438 8.863-27.978-.182-38.343zm-313.863 146.534c20.894-12.937 38.358-31.309 49.999-53.16 5.337 1.219 10.837.717 15.924-1.071l-7.279 42.428-49.076 49.076c-5.182-11.843-8.401-24.39-9.568-37.273zm301.953-92.152c-1.063 7.974-7.866 10.961-14.014 14.289 3.778 5.849 8.132 11.465 5.124 19.077-2.565 7.876-9.453 9.321-16.187 11.494 2.607 6.447 5.792 12.527 1.36 19.512-4.047 7.256-10.816 7.342-17.787 8.177 1.269 6.702 3.205 13.279-2.235 19.219-4.978 6.178-11.603 5.383-18.366 5.124-.001 5.945.447 13.642-4.501 17.949-6.281 6.526-14.253 4.086-21.941 2.307-.715 7.381-.432 14.5-8.211 18.784-7.716 4.783-14.057.599-20.941-2.439-1.867 7.94-2.39 15.732-11.731 18.798-8.683 3.088-13.81-1.919-19.727-6.912-5.1 7.297-9.462 13.641-19.849 11.99-9.66-1.611-12.576-9.011-15.353-17.269-31.006 12.562-66.578 12.947-97.335-.144l48.995-48.995 99.135-17.01-2.538-14.789-78.219 13.421 41.325-41.325 99.135-17.01-2.538-14.789-78.219 13.421 30.549-30.549-10.612-10.612-30.548 30.548 13.419-78.218-14.789-2.538-17.008 99.134-41.325 41.326 6.624-38.61c2.103-3.631 3.44-7.671 3.718-11.92 13.766-4.729 22.629-22.389 18.292-36.286 10.244-7.663 14.466-23.973 9.185-35.633 9.111-9.31 10.784-25.098 3.769-36.153 6.562-10.185 5.364-26.055-2.632-35.15 1.747-3.935 2.38-8.41 2.083-12.898 6.253-1.297 11.162 2.142 16.742 5.834 3.315-6.134 6.324-12.958 14.29-14.014 7.922-1.694 13.136 4.032 18.323 8.719 4.388-6.188 8.186-12.902 17.034-12.523 9.241-.106 12.774 7.463 17.166 13.941l6.435-6.679c5.527-5.998 15.886-6.029 21.45-.064l4.688 4.804 5.294-4.126c6.217-5.096 17.12-3.269 21.365 3.579l5.021 7.637 6.512-6.413c7.987-7.862 16.485-5.016 21.339-.194 4.854 4.824 7.747 13.309-.069 21.346l-6.116 6.287s7.158 5.068 7.158 5.068c6.602 4.398 8.151 14.97 3.178 21.099l-4.107 5.292s4.794 4.678 4.794 4.678c5.963 5.564 5.937 15.925-.062 21.452l-6.679 6.435c6.46 4.375 14.056 7.937 13.94 17.166.365 8.882-6.321 12.626-12.523 17.033 4.677 5.168 10.417 10.415 8.72 18.322z"/><path d="m368.233 270.043h50.05v15.007h-50.05z" transform="matrix(.707 -.707 .707 .707 -81.073 359.367)"/></g></g><g/><g/><g/><g/><g/><g/><g/><g/><g/><g/><g/><g/><g/><g/><g/></svg>