<svg id="Capa_1" enable-background="new 0 0 512 512" viewBox="0 0 512 512" xmlns="http://www.w3.org/2000/svg"><g><g><g><g><g><path d="m63.501 252.532c-22.755 67.293-16.405 136.871 21.428 187.27-18.532 21.929 10.468 50.948 32.412 32.411 192.441 137.349 489.919-155.165 351.746-351.747 18.531-21.929-10.468-50.947-32.411-32.412-73.938-55.502-189.154-43.247-277.878 29.262-15.031 14.335-31.625 32.25-47.919 54.166-21.867 29.412-36.947 57.629-47.378 81.05z" fill="#00c278"/></g><path d="m407.51 426.28c-61.219 48.798-138.585 74.634-210.188 56.174-66.908-16.898-119.944-76.993-128.167-145.527-4.203-33.157-.233-68.699 11.577-103.626 10.431-23.421 25.511-51.637 47.378-81.049 10.497-14.119 21.116-26.568 31.364-37.478-.224.182-.451.359-.675.542-15.031 14.335-31.625 32.25-47.919 54.166-21.867 29.412-36.947 57.628-47.378 81.049-22.755 67.293-16.405 136.871 21.428 187.27-18.532 21.929 10.468 50.948 32.412 32.411 92.947 66.338 210.383 32.383 291.415-42.594-.423-.44-.839-.885-1.247-1.338z" fill="#00a666"/><g><path d="m280.361 96.271-3.539-14.576c5.015-1.218 10.1-2.293 15.114-3.195l2.656 14.764c-4.719.847-9.507 1.86-14.231 3.007zm28.603-5.135-1.73-14.9c5.14-.597 10.332-1.029 15.435-1.285l.752 14.98c-4.777.24-9.642.645-14.457 1.205z" fill="#fff"/></g><path d="m341.771 288.264c-76.472 76.472-200.457 76.472-276.929 0-76.472-76.472-76.472-200.457 0-276.929z" fill="#00c278"/><path d="m84.018 269.089c-69.965-69.964-75.905-179.693-17.848-256.426l-1.328-1.328c-76.472 76.472-76.472 200.457 0 276.929s200.457 76.472 276.929 0l-1.328-1.328c-76.733 58.057-186.461 52.117-256.425-17.847z" fill="#00a666"/><path d="m319.169 265.579c-63.966 63.966-167.676 63.966-231.642 0s-63.966-167.676 0-231.642z" fill="#c3f839"/><path d="m106.184 245.709c-57.402-57.402-63.281-146.804-17.659-210.775l-.997-.997c-63.966 63.966-63.966 167.676 0 231.642s167.676 63.966 231.642 0l-2.211-2.21c-63.971 45.621-153.373 39.742-210.775-17.66z" fill="#abe700"/><path d="m178.131 124.625c-13.904 13.904-13.904 36.446 0 50.351s36.447 13.904 50.351 0z" fill="#fef2e2"/></g></g></g><g><path d="m479.069 117.548c6.819-11.753 5.028-26.969-4.784-36.786-9.813-9.817-25.019-11.607-36.764-4.787-73.639-51.691-183.916-41.789-272.299 24.438l-20.144-20.155-10.613 10.619 33.559 33.577c-5.713 8.165-8.273 17.876-7.676 27.433l-111.261 22.6c-1.329-8.307-2.014-16.784-2.006-25.378.037-39.534 14.376-76.57 40.532-105.112l35.675 35.695 10.613-10.619-69.037-69.073-5.306 5.308c-38.407 38.428-59.558 89.52-59.558 143.865 0 48.66 16.97 94.705 48.089 131.393-5.778 28.97-6.292 57.263-1.491 84.152 4.825 27.035 14.81 51.457 29.704 72.675-6.818 11.751-5.027 26.966 4.785 36.782 9.812 9.817 25.017 11.611 36.764 4.788 31.699 22.271 69.8 33.038 109.856 33.036 68.352.215 143.721-32.187 200.407-90.921l-10.767-10.46c-88.083 91.031-219.111 114.385-299.451 49.713l-5.974 4.57c-6.1 4.668-14.794 4.09-20.223-1.344-5.43-5.432-6.007-14.131-1.341-20.236l4.564-5.977c-30.55-38.436-42.337-88.247-34.025-143.001 39.473 38.783 90.956 58.187 142.446 58.187 52.072 0 104.144-19.831 143.786-59.494l5.305-5.309-176.485-176.582c86.626-63.666 192.777-71.391 261.528-16.538l5.973-4.569c6.101-4.669 14.793-4.089 20.224 1.343 5.43 5.432 6.007 14.131 1.344 20.232l-4.572 5.976c59.332 74.422 44.993 192.438-32.187 281.177l11.301 9.882c38.856-44.48 63.94-98.507 70.63-152.128 6.48-51.945-4.56-101.055-31.121-138.972zm-170.591 147.434c-28.829 26.263-65.871 40.641-105.123 40.641-7.876 0-15.663-.581-23.313-1.718l22.24-111.643c9.046.165 18.093-2.499 25.767-7.751zm-125.007-95.926c-9.119-9.125-10.641-23.01-4.581-33.732l38.295 38.315c-10.717 6.065-24.594 4.542-33.714-4.583zm-19.599-2.565c2.091 4.786 5.078 9.272 8.986 13.183 4.324 4.326 9.349 7.531 14.71 9.631l-22.247 111.68c-27.214-6.776-52.176-20.83-72.527-41.192-19.867-19.774-33.706-44.05-40.626-70.611zm-93.702 115.926c-35.573-35.59-55.163-82.911-55.163-133.245 0-47.824 17.684-92.927 49.96-127.834l12.029 12.036c-28.981 31.379-44.882 72.175-44.923 115.72-.043 46.026 17.762 89.12 50.122 121.331 33.404 33.422 77.281 50.133 121.159 50.133 41.546 0 83.085-14.992 115.739-44.955l12.012 12.018c-73.774 68.232-189.278 66.495-260.935-5.204z"/><path d="m218.473 421.331h15.008v15.016h-15.008z"/><path d="m240.952 451.363h15.008v15.016h-15.008z"/><path d="m195.928 451.363h15.008v15.016h-15.008z"/></g></g><g/><g/><g/><g/><g/><g/><g/><g/><g/><g/><g/><g/><g/><g/><g/></svg>