<svg id="Capa_1" enable-background="new 0 0 512 512" height="512" viewBox="0 0 512 512" width="512" xmlns="http://www.w3.org/2000/svg"><g><g><g><g><g><path d="m136.699 183.075-41.288-41.288c-7.618-7.618-19.968-7.618-27.586 0-7.618 7.618-7.618 19.968 0 27.586l41.288 41.288" fill="#ad84e6"/></g><g><path d="m196.754 151.585-33.08-57.773c-5.353-9.349-17.271-12.588-26.62-7.235-9.349 5.353-12.588 17.271-7.235 26.62l29.956 52.316" fill="#ad84e6"/></g><g><path d="m79.725 271.919-59.874-34.284c-9.349-5.353-12.588-17.271-7.235-26.62 5.353-9.349 17.271-12.588 26.62-7.235l53.284 30.51" fill="#ad84e6"/></g><g><path d="m328.934 375.31 41.288 41.288c7.618 7.618 7.618 19.968 0 27.586-7.617 7.618-19.968 7.618-27.586 0l-41.288-41.288" fill="#ad84e6"/></g><g><path d="m360.424 315.256 57.773 33.08c9.349 5.353 12.588 17.271 7.235 26.62-5.353 9.349-17.271 12.588-26.62 7.235l-52.316-29.956" fill="#ad84e6"/></g><g><path d="m240.091 432.284 34.284 59.874c5.353 9.349 17.271 12.588 26.62 7.235 9.349-5.353 12.588-17.271 7.235-26.62l-30.51-53.284" fill="#ad84e6"/></g></g><g><path d="m369.885 278.459c4.161 43.473-10.404 88.4-43.696 121.693-59.186 59.186-155.145 59.186-214.331 0s-59.186-155.145 0-214.331c32.851-32.851 77.03-47.468 119.963-43.852" fill="#ff8cc0"/></g><g><path d="m369.885 278.459-138.065-136.49c-42.932-3.616-87.112 11.001-119.962 43.852-.716.716-1.415 1.441-2.113 2.168 21.694-20.572 50.273-29.69 78.069-27.349l68.791 68.007c20.765 20.528 26.137 52.133 13.004 78.212-4.549 9.032-10.538 17.524-17.967 25.135-38.602 39.542-102.599 40.599-142.424 2.289-34.587-33.272-40.274-84.928-17.062-124.247-38.52 58.785-31.956 138.457 19.703 190.116 59.186 59.186 155.145 59.186 214.331 0 33.291-33.293 47.857-78.22 43.695-121.693z" fill="#ff68c1"/></g><g><path d="m284.762 112.097c31.798-31.798 83.352-31.798 115.149 0 31.798 31.798 31.798 83.352 0 115.149" fill="#ad84e6"/></g><g><path d="m399.912 112.097c-5.296-5.296-11.148-9.689-17.358-13.221 17.674 31.073 13.281 71.29-13.221 97.792l30.578 30.578c31.798-31.797 31.798-83.351.001-115.149z" fill="#a862e6"/></g><g><path d="m343.929 266.872-98.791-98.791c-11.986-11.986-11.986-31.42 0-43.407 11.986-11.986 31.42-11.986 43.407 0l98.791 98.791c11.986 11.986 11.986 31.42 0 43.406-11.987 11.987-31.421 11.987-43.407.001z" fill="#d3b5f2"/></g><g><path d="m387.336 223.465-39.82-39.82c11.986 11.986 11.986 31.42 0 43.406-11.986 11.986-31.42 11.986-43.407 0l39.82 39.82c11.986 11.987 31.42 11.987 43.407 0 11.986-11.986 11.986-31.419 0-43.406z" fill="#d088f3"/></g><g><g><circle cx="136.353" cy="291.471" fill="#ad84e6" r="22.385"/></g><g><circle cx="220.538" cy="375.656" fill="#a862e6" r="22.385"/></g><g><path d="m199.48 229.036c-8.742 8.742-22.915 8.742-31.657 0s-8.742-22.915 0-31.657 22.915-8.742 31.657 0 8.742 22.916 0 31.657z" fill="#ad84e6"/></g><g><path d="m314.63 344.186c-8.742 8.742-22.915 8.742-31.657 0s-8.742-22.915 0-31.657 22.915-8.742 31.657 0 8.742 22.915 0 31.657z" fill="#a862e6"/></g></g></g><g fill="#4e0325"><path d="m499.401 96.708c-5.501-5.502-12.816-8.532-20.597-8.532-7.78 0-15.095 3.03-20.597 8.531l-33.427 33.427c-4.348-9.088-10.261-17.608-17.779-25.126s-16.038-13.432-25.126-17.779l33.427-33.427c5.501-5.502 8.531-12.817 8.531-20.597 0-7.781-3.03-15.096-8.531-20.597-5.501-5.502-12.816-8.532-20.597-8.532s-15.096 3.03-20.597 8.532c-3.915 3.915-3.914 10.262 0 14.177 3.915 3.915 10.262 3.914 14.177 0 1.715-1.715 3.995-2.659 6.42-2.659s4.705.945 6.42 2.66 2.659 3.995 2.659 6.42-.944 4.705-2.659 6.42l-40.493 40.493c-29.066-5.891-60.461 2.396-82.958 24.891-.541.541-1 1.132-1.392 1.754-3.058-.723-6.22-1.104-9.441-1.104-10.876 0-21.102 4.236-28.792 11.926-4.147 4.147-7.2 8.976-9.18 14.126-10.54-.641-21.018-.257-31.304 1.116l-25.192-43.996c-3.92-6.845-10.27-11.754-17.882-13.823-7.613-2.068-15.575-1.05-22.419 2.87-6.845 3.92-11.754 10.27-13.823 17.882-2.068 7.612-1.049 15.574 2.87 22.419l19.263 33.641c-4.38 2.443-8.653 5.098-12.807 7.954l-25.075-25.077c-5.578-5.577-12.993-8.649-20.882-8.649-7.888 0-15.304 3.072-20.881 8.65-11.514 11.514-11.513 30.249 0 41.762l25.07 25.071c-2.866 4.171-5.522 8.443-7.952 12.81l-33.637-19.26c-6.845-3.919-14.806-4.938-22.419-2.87-7.612 2.068-13.962 6.978-17.882 13.823-3.919 6.845-4.938 14.807-2.87 22.419 2.069 7.612 6.978 13.963 13.823 17.882l44.074 25.237c-6.389 48.186 8.878 98.721 45.825 135.668 31.5 31.5 72.877 47.25 114.254 47.25 7.155 0 14.309-.483 21.414-1.424l25.237 44.075c5.448 9.515 15.425 14.851 25.676 14.851 4.972 0 10.009-1.256 14.625-3.898 6.845-3.92 11.754-10.27 13.823-17.882 2.068-7.612 1.049-15.573-2.87-22.419l-19.26-33.637c4.366-2.43 8.639-5.086 12.81-7.952l25.07 25.07c5.758 5.757 13.318 8.635 20.881 8.635 7.562-.001 15.125-2.879 20.882-8.635 11.514-11.514 11.514-30.249 0-41.762l-25.07-25.07c2.859-4.155 5.525-8.422 7.969-12.801l33.621 19.251c4.529 2.593 9.545 3.917 14.627 3.916 2.599 0 5.216-.346 7.792-1.047 7.612-2.069 13.962-6.978 17.882-13.823 8.091-14.13 3.177-32.209-10.953-40.301l-43.992-25.19c1.368-10.283 1.752-20.759 1.108-31.305 5.152-1.981 9.982-5.034 14.129-9.181 7.691-7.69 11.926-17.916 11.926-28.792 0-3.221-.381-6.383-1.103-9.441.622-.392 1.213-.85 1.754-1.392 22.496-22.496 30.783-53.891 24.891-82.958l40.493-40.493c1.715-1.715 3.995-2.659 6.42-2.659s4.705.944 6.42 2.659 2.659 3.995 2.659 6.42-.945 4.705-2.659 6.42c-3.915 3.915-3.915 10.262-.001 14.177 3.915 3.915 10.262 3.915 14.177.001 5.502-5.501 8.532-12.816 8.532-20.597 0-7.783-3.031-15.098-8.532-20.599zm-360.883 11.508c-1.258-2.198-1.586-4.754-.922-7.198s2.24-4.483 4.438-5.741c2.197-1.258 4.754-1.586 7.198-.922s4.483 2.241 5.741 4.439l21.874 38.201c-6.231 1.682-12.35 3.737-18.329 6.151zm-63.604 54.068c-3.697-3.697-3.697-9.711 0-13.408 3.697-3.698 9.711-3.698 13.408 0l23.352 23.352c-2.355 2.095-4.66 4.26-6.904 6.504-2.251 2.251-4.412 4.558-6.502 6.906zm-50.082 66.651c-4.537-2.598-6.114-8.402-3.516-12.939 1.258-2.198 3.297-3.774 5.741-4.438 2.445-.664 5-.337 7.198.922l34.946 20.01c-2.417 6.009-4.461 12.135-6.128 18.342zm94.115-36.026c28.473-28.473 67.455-43.359 107.546-41.251 1.116 8.603 4.962 16.917 11.556 23.511l45.143 45.142-168.402 168.402c-50.98-55.454-49.6-142.048 4.157-195.804zm4.349 204.31 168.402-168.402 45.143 45.143c6.594 6.594 14.904 10.439 23.505 11.555 2.122 40.113-12.713 79.015-41.245 107.547-27.594 27.595-63.829 41.39-100.077 41.387-34.366-.003-68.738-12.419-95.728-37.23zm176.233 80.536c1.258 2.198 1.586 4.754.922 7.198s-2.24 4.483-4.438 5.741c-4.536 2.598-10.341 1.021-12.939-3.516l-21.897-38.241c6.207-1.667 12.332-3.711 18.342-6.128zm63.604-54.068c1.791 1.79 2.777 4.171 2.777 6.704s-.986 4.913-2.776 6.704c-3.698 3.698-9.713 3.697-13.409 0l-23.353-23.353c2.348-2.09 4.655-4.251 6.906-6.502 2.245-2.245 4.411-4.549 6.506-6.903zm50.082-66.652c4.537 2.598 6.115 8.403 3.517 12.94-1.259 2.198-3.297 3.774-5.741 4.438s-5.001.337-7.198-.922l-34.914-19.992c2.415-5.978 4.48-12.093 6.161-18.323zm-32.968-97.252c-8.058 8.059-21.171 8.059-29.229 0l-98.791-98.791c-8.059-8.058-8.059-21.171 0-29.23 3.904-3.904 9.094-6.053 14.614-6.053s10.711 2.15 14.615 6.054l98.791 98.791c3.904 3.904 6.054 9.094 6.054 14.615 0 5.52-2.15 10.71-6.054 14.614zm15.171-42.363c-.328-.351-.653-.703-.994-1.044l-98.791-98.791c-.341-.341-.693-.667-1.044-.994 27.994-25.211 71.291-24.348 98.234 2.595 26.944 26.943 27.807 70.24 2.595 98.234z"/><path d="m136.353 319.871c7.586 0 14.718-2.954 20.082-8.318s8.318-12.496 8.318-20.082-2.954-14.718-8.318-20.082-12.496-8.318-20.082-8.318-14.718 2.954-20.082 8.318-8.318 12.496-8.318 20.082 2.954 14.718 8.318 20.082 12.496 8.318 20.082 8.318zm-11.576-39.975c3.092-3.092 7.203-4.795 11.575-4.795 4.373 0 8.483 1.703 11.575 4.795s4.795 7.203 4.795 11.575c0 4.373-1.703 8.483-4.795 11.575s-7.203 4.794-11.575 4.794c-4.373 0-8.484-1.702-11.575-4.794-3.092-3.092-4.795-7.203-4.795-11.575.001-4.372 1.703-8.483 4.795-11.575z"/><path d="m220.538 347.257c-7.586 0-14.718 2.954-20.082 8.318s-8.318 12.496-8.318 20.082 2.954 14.718 8.318 20.082 12.496 8.318 20.082 8.318 14.718-2.954 20.082-8.318 8.318-12.496 8.318-20.082-2.954-14.718-8.318-20.082-12.496-8.318-20.082-8.318zm11.575 39.975c-6.383 6.383-16.768 6.383-23.151 0-3.092-3.092-4.794-7.203-4.794-11.575 0-4.373 1.702-8.484 4.794-11.575 3.092-3.092 7.203-4.795 11.575-4.795s8.483 1.703 11.575 4.795 4.795 7.203 4.795 11.575c.001 4.372-1.702 8.483-4.794 11.575z"/><path d="m183.652 241.608c7.586 0 14.718-2.954 20.082-8.318s8.318-12.496 8.318-20.082-2.954-14.718-8.318-20.082c-11.073-11.073-29.091-11.072-40.164 0-5.364 5.364-8.318 12.496-8.318 20.082s2.954 14.718 8.318 20.082 12.496 8.318 20.082 8.318zm-11.576-39.976c3.192-3.191 7.383-4.787 11.576-4.787 4.191 0 8.384 1.596 11.575 4.787 3.092 3.091 4.794 7.203 4.794 11.575s-1.702 8.484-4.794 11.575c-3.092 3.092-7.203 4.795-11.575 4.795s-8.484-1.703-11.576-4.795c-6.383-6.382-6.383-16.767 0-23.15z"/><path d="m318.883 308.275c-5.364-5.364-12.496-8.318-20.082-8.318s-14.718 2.954-20.082 8.318-8.318 12.496-8.318 20.082 2.954 14.718 8.318 20.082 12.496 8.318 20.082 8.318 14.718-2.954 20.082-8.318c11.073-11.073 11.073-29.091 0-40.164zm-8.506 31.658c-3.092 3.092-7.203 4.794-11.575 4.794s-8.484-1.702-11.575-4.794c-3.092-3.092-4.795-7.203-4.795-11.576s1.703-8.483 4.795-11.575c3.191-3.191 7.383-4.787 11.575-4.787s8.384 1.596 11.575 4.787c6.383 6.382 6.382 16.768 0 23.151z"/><path d="m200.411 258.545-7.911 7.911c-2.349 2.349-2.349 6.157 0 8.506 1.174 1.174 2.714 1.762 4.253 1.762s3.079-.587 4.253-1.762l7.91-7.911c2.349-2.349 2.349-6.157 0-8.506-2.347-2.349-6.156-2.349-8.505 0z"/><path d="m276.852 284.222c1.539 0 3.079-.587 4.253-1.762l7.911-7.911c2.349-2.349 2.349-6.157 0-8.506s-6.158-2.349-8.506 0l-7.911 7.91c-2.349 2.349-2.349 6.157 0 8.506 1.174 1.175 2.714 1.763 4.253 1.763z"/></g><g><path d="m335.198 131.126c-4.225 0-8.154-2.693-9.532-6.928-1.712-5.265 1.169-10.921 6.434-12.633 4.977-1.618 10.145-2.714 15.362-3.257 5.511-.571 10.435 3.425 11.01 8.932.574 5.507-3.425 10.436-8.932 11.01-3.819.398-7.601 1.2-11.241 2.383-1.029.333-2.074.493-3.101.493z" fill="#fff"/></g></g><g><g><path d="m229.671 2.463-8.235 23.155c-.352.991-1.051 1.777-1.931 2.174l-20.572 9.268c-2.906 1.309-2.906 5.94 0 7.25l20.572 9.268c.881.397 1.579 1.183 1.931 2.174l8.235 23.155c1.163 3.271 5.278 3.271 6.441 0l8.235-23.155c.353-.991 1.05-1.777 1.931-2.174l20.572-9.268c2.906-1.309 2.906-5.94 0-7.25l-20.572-9.268c-.881-.397-1.579-1.182-1.931-2.174l-8.235-23.155c-1.163-3.272-5.277-3.272-6.441 0z" fill="#ffc5dd"/></g><g><path d="m457.311 261.787-6.108 17.176c-.262.735-.779 1.318-1.433 1.613l-15.26 6.875c-2.156.971-2.156 4.406 0 5.378l15.26 6.875c.653.294 1.171.877 1.433 1.612l6.108 17.176c.863 2.426 3.915 2.426 4.778 0l6.108-17.176c.262-.735.779-1.318 1.433-1.612l15.26-6.875c2.156-.971 2.156-4.406 0-5.378l-15.26-6.875c-.653-.294-1.171-.877-1.433-1.613l-6.108-17.176c-.863-2.427-3.915-2.427-4.778 0z" fill="#ffc5dd"/></g><g><path d="m476.038 199.036c0 9.931 8.05 17.981 17.981 17.981 9.93 0 17.981-8.05 17.981-17.981s-8.05-17.981-17.981-17.981c-9.93 0-17.981 8.051-17.981 17.981z" fill="#ff8cc0"/></g><g><path d="m72.7 51.335c0 4.152 3.366 7.519 7.518 7.519s7.519-3.366 7.519-7.519c0-4.152-3.366-7.519-7.519-7.519-4.152.001-7.518 3.367-7.518 7.519z" fill="#ff8cc0"/></g></g></g></svg>