<svg id="Capa_1" enable-background="new 0 0 512 512" height="512" viewBox="0 0 512 512" width="512" xmlns="http://www.w3.org/2000/svg"><g><g><g><g><g><path d="m155.636 483.159c-25.158 25.158-65.946 25.158-91.104 0s-25.158-65.946 0-91.104 132.707-91.919 157.865-66.761-41.603 132.708-66.761 157.865z" fill="#ffe35c"/></g><g><path d="m234.91 282.798c0 51.992-83.967 50.669-150.65 50.669s-71.85-54.631-71.85-124.535 1.946-128.609 71.85-128.609c69.903 0 150.65 132.571 150.65 202.475z" fill="#ffe35c"/></g><g><path d="m232.058 270.65c-12.978-57.097-67.91-137.36-116.278-137.36-55.277 0-56.817 46.422-56.817 101.7 0 50.092 3.355 90.266 43.223 97.363 0 0 111.319 6.588 124.439-32.122 7.686-22.675 5.433-29.581 5.433-29.581z" fill="#98e8f2"/></g><g><path d="m171.715 445.138c-19.099 19.099-50.063 19.099-69.162 0s-19.099-50.063 0-69.162 100.745-69.78 119.844-50.682c19.099 19.099-31.583 100.746-50.682 119.844z" fill="#98e8f2"/></g><g><ellipse cx="120.243" cy="193.203" fill="#ffe35c" rx="23.625" ry="23.625" transform="matrix(.23 -.973 .973 .23 -95.418 265.84)"/></g><g><circle cx="174.338" cy="252.012" fill="#ffe35c" r="14.852"/></g><g><ellipse cx="114.658" cy="282.189" fill="#ffe35c" rx="18.041" ry="18.041" transform="matrix(.526 -.851 .851 .526 -185.666 231.368)"/></g><g><ellipse cx="150.74" cy="395.344" fill="#ffe35c" rx="18.041" ry="18.041" transform="matrix(.288 -.958 .958 .288 -271.281 425.641)"/></g><g><g><path d="m156.566 149.659c10.227 7.757 20.138 17.837 29.284 29.236h14.776c-29.981-52.29-75.064-98.571-116.366-98.571-3.179 0-6.214.125-9.118.363 28.809 3.561 59.246 33.577 81.424 68.972z" fill="#ffac62"/></g><g><path d="m101.231 332.162c-25.812-5.018-35.972-24.24-39.889-51.093-42.161-4.05-48.236-40.503-48.869-87.957-.052 5.194-.064 10.474-.064 15.82 0 69.904 5.167 124.535 71.85 124.535 5.556 0 11.234.009 16.972-.005z" fill="#ffac62"/></g><g><g><path d="m232.058 270.65c-9.373-41.237-40.63-94.551-75.493-120.991 19.506 31.13 32.624 66.42 32.624 91.533 0 25.335-25.096 34.734-56.726 38.217.141.909.236 1.832.236 2.781 0 9.964-8.077 18.041-18.041 18.041s-18.041-8.077-18.041-18.041c0-.288.03-.568.043-.853-9.188.141-18.366.113-27.165.113-2.86 0-5.571-.132-8.153-.38 3.965 27.186 14.319 46.561 40.844 51.283 0 0 111.319 6.588 124.439-32.122 7.686-22.675 5.433-29.581 5.433-29.581z" fill="#a6aff4"/></g><g><path d="m114.658 300.23c9.964 0 18.041-8.077 18.041-18.041 0-.948-.095-1.872-.236-2.781-11.377 1.253-23.597 1.74-35.802 1.927-.013.285-.043.565-.043.853-.001 9.965 8.077 18.042 18.04 18.042z" fill="#ffac62"/></g></g></g><g><g><path d="m223.242 326.236c-.265-.329-.547-.643-.845-.941-.006-.006-.013-.011-.018-.017.006.006.013.011.018.017.299.298.572.619.845.941z" fill="#98e8f2"/></g><g><path d="m169.546 447.169c-14.821 13.145-35.708 15.748-52.927 7.795-14.379 3.506-30.188-.356-41.419-11.587-15.638-15.638-16.981-40.147-4.047-57.319-2.584 2.178-4.82 4.197-6.62 5.998-25.157 25.158-25.157 65.946 0 91.104 25.158 25.158 65.946 25.158 91.104 0 6.914-6.914 16.969-20.053 27.394-35.991z" fill="#ffac62"/></g><g><path d="m222.379 325.278c-11.828-11.789-41.803-3.33-72.88 11.565 8.084-2.897 15.53-4.654 21.578-4.661 22.115-10.105 42.831-15.338 51.302-6.904z" fill="#a6aff4"/></g><g><path d="m171.715 445.138c18.8-18.8 68.203-98.207 51.527-118.902-.273-.322-.547-.643-.845-.941-.006-.006-.013-.011-.018-.017-8.471-8.434-29.187-3.201-51.302 6.904 4.905-.005 8.894 1.137 11.538 3.781 17.118 17.118-28.307 90.297-45.425 107.414-5.887 5.887-13.033 9.749-20.57 11.587 18.074 8.348 40.196 5.074 55.095-9.826z" fill="#a6aff4"/></g></g></g><g><g><path d="m277.09 282.798c0 51.992 83.967 50.669 150.651 50.669 66.683 0 71.85-54.631 71.85-124.535s-1.946-128.609-71.85-128.609-150.651 132.571-150.651 202.475z" fill="#ffe35c"/></g><g><path d="m409.813 332.352c39.868-7.097 43.223-47.271 43.223-97.363 0-55.277-1.539-101.7-56.817-101.7-48.368 0-103.3 80.263-116.278 137.36 0 0-8.634 37.884 33.284 53.225s96.588 8.478 96.588 8.478z" fill="#98e8f2"/></g><g><path d="m356.364 483.159c25.158 25.158 65.946 25.158 91.104 0s25.158-65.946 0-91.104-132.707-91.919-157.865-66.761 41.603 132.708 66.761 157.865z" fill="#ffe35c"/></g><g><path d="m340.285 445.138c19.099 19.099 50.064 19.099 69.162 0s19.099-50.063 0-69.162-100.745-69.78-119.844-50.682c-19.099 19.099 31.583 100.746 50.682 119.844z" fill="#98e8f2"/></g><g><ellipse cx="361.26" cy="395.344" fill="#ffe35c" rx="18.041" ry="18.041" transform="matrix(.958 -.288 .288 .958 -98.681 121.008)"/></g><g><ellipse cx="391.757" cy="193.203" fill="#ffe35c" rx="23.625" ry="23.625" transform="matrix(.973 -.23 .23 .973 -33.909 95.176)"/></g><g><circle cx="337.662" cy="252.012" fill="#ffe35c" r="14.852"/></g><g><ellipse cx="397.342" cy="282.189" fill="#ffe35c" rx="18.041" ry="18.041" transform="matrix(.851 -.526 .526 .851 -89.013 251.039)"/></g><g><g><path d="m313.225 323.875c29.728 10.879 65.863 10.591 84.369 9.504-30.502-.346-61.464-1.982-84.369-9.504 0-.001 0-.001 0 0z" fill="#98e8f2"/></g><g><path d="m427.741 80.323c-4.77 0-9.592.638-14.434 1.81 38.517 9.048 39.729 51.002 39.729 99.889 0 8.453-.097 16.621-.447 24.397.396 9.098.447 18.691.447 28.569 0 50.092-3.355 90.266-43.223 97.363 0 0-4.63.58-12.218 1.026 10.207.116 20.363.088 30.146.088 66.683 0 71.85-54.631 71.85-124.535s-1.947-128.607-71.85-128.607z" fill="#ffac62"/></g><g><path d="m279.942 270.65c.875-3.847 1.945-7.802 3.186-11.828-.979-1.251-1.856-2.57-2.609-3.97-2.225 10.007-3.428 19.442-3.428 27.946 0 21.57 14.46 33.958 36.135 41.077-41.918-15.341-33.284-53.225-33.284-53.225z" fill="#ffac62"/></g><g><g><path d="m452.589 206.42c-1.633 36.25-8.809 63.942-37.655 71.813.285 1.275.449 2.596.449 3.957 0 9.964-8.077 18.041-18.041 18.041s-18.041-8.077-18.041-18.041c0-.576.033-1.143.086-1.705-39.131-.181-80.978-2.135-96.259-21.663-1.241 4.026-2.311 7.981-3.186 11.828 0 0-8.634 37.884 33.283 53.225 22.905 7.523 53.867 9.159 84.37 9.504 7.589-.446 12.218-1.026 12.218-1.026 39.868-7.097 43.223-47.271 43.223-97.363 0-9.879-.051-19.472-.447-28.57z" fill="#a6aff4"/></g><g><path d="m397.342 300.23c9.964 0 18.041-8.077 18.041-18.041 0-1.361-.163-2.682-.449-3.957-5.435 1.483-11.633 2.268-18.714 2.268-5.493 0-11.134.011-16.832-.016-.053.562-.086 1.129-.086 1.705-.001 9.964 8.076 18.041 18.04 18.041z" fill="#ffac62"/></g></g></g><g><g><path d="m288.549 326.524c.118-.145.223-.301.346-.441-.119.143-.232.292-.346.441z" fill="#98e8f2"/></g><g><path d="m447.468 392.055c-24.775-24.775-129.425-89.866-156.632-67.816 21.125-16.013 99.896 33.022 118.611 51.737 19.098 19.099 19.098 50.063 0 69.162-19.099 19.099-50.064 19.099-69.162 0-18.717-18.716-67.755-97.494-51.735-118.614-22.056 27.203 43.039 131.86 67.814 156.635 25.158 25.158 65.946 25.158 91.104 0 25.157-25.157 25.157-65.946 0-91.104z" fill="#ffac62"/></g><g><path d="m288.896 326.082-.001.001z" fill="#ffac62"/></g><g><path d="m340.285 445.138c19.098 19.099 50.063 19.099 69.162 0 19.098-19.099 19.098-50.063 0-69.162-18.716-18.716-97.487-67.75-118.611-51.737-.146.118-.303.225-.445.349 17.319-13.957 83.776 27.389 99.51 43.123 15.984 15.983 15.984 41.898 0 57.882-15.983 15.983-41.898 15.983-57.882 0-15.734-15.734-57.079-82.19-43.123-99.51-.122.141-.228.296-.346.441-16.02 21.12 33.018 99.898 51.735 118.614z" fill="#a6aff4"/></g></g></g><g><path d="m256 449.587c-21.51 0-38.767-17.772-38.136-39.272l9.174-195.199h57.924l9.174 195.199c.631 21.501-16.626 39.272-38.136 39.272z" fill="#ffa785"/></g><g><ellipse cx="256" cy="188.216" fill="#ffa785" rx="37.163" ry="37.163" transform="matrix(.924 -.383 .383 .924 -52.54 112.294)"/></g><g><path d="m281.878 235.518h-51.757c-11.267 0-20.401-9.134-20.401-20.401 0-11.267 9.134-20.401 20.401-20.401h51.757c11.267 0 20.401 9.134 20.401 20.401 0 11.267-9.133 20.401-20.401 20.401z" fill="#ffc8b7"/></g></g><g fill="#4e0325"><path d="m499.19 114.745c-11.778-29.897-35.15-44.43-71.45-44.43-24.613 0-51.63 14.116-78.133 40.823-17.573 17.709-34.195 40.205-48.066 64.806-2.613-9.685-8.234-18.145-15.803-24.309.011-.194.029-.385.029-.582v-37.419c0-4.811 3.914-8.725 8.725-8.725s8.725 3.914 8.725 8.725c0 5.527 4.48 10.007 10.007 10.007s10.007-4.48 10.007-10.007c0-15.847-12.893-28.74-28.74-28.74s-28.74 12.893-28.74 28.74v28.432c-3.148-.664-6.409-1.02-9.753-1.02-3.343 0-6.604.355-9.753 1.02v-28.432c0-15.847-12.893-28.74-28.74-28.74s-28.74 12.893-28.74 28.74c0 5.527 4.48 10.007 10.007 10.007s10.007-4.48 10.007-10.007c0-4.811 3.914-8.725 8.725-8.725s8.725 3.914 8.725 8.725v37.419c0 .196.018.388.029.582-7.566 6.162-13.187 14.619-15.8 24.3-31.093-55.12-79.281-105.62-126.202-105.62-36.3 0-59.672 14.533-71.45 44.43-9.641 24.472-10.408 55.789-10.408 94.187 0 32.96.906 67.248 11.732 92.433 12.18 28.335 35.118 42.109 70.125 42.109l4.844.001c1.667.001 3.336.001 5.017.001 7.198 0 14.512-.016 21.84-.108-25.045 14.56-47.706 30.812-58.505 41.61-29.019 29.02-29.019 76.238 0 105.257 14.515 14.51 33.574 21.765 52.634 21.765 19.059 0 38.118-7.255 52.628-21.764 11.222-11.222 30.345-37.858 46.546-67.148 2.018 8.164 6.157 15.685 12.191 21.898 9.148 9.421 21.418 14.609 34.55 14.609s25.402-5.188 34.55-14.609c6.034-6.214 10.173-13.734 12.191-21.898 16.2 29.291 35.324 55.926 46.546 67.148 14.51 14.509 33.569 21.764 52.628 21.764 19.06 0 38.119-7.255 52.629-21.764 29.019-29.02 29.019-76.238 0-105.257-10.799-10.799-33.461-27.051-58.505-41.61 7.326.092 14.637.108 21.836.108 1.68 0 3.355 0 5.021-.001l4.844-.001c35.007 0 57.945-13.774 70.125-42.108 10.826-25.186 11.732-59.473 11.732-92.433.001-38.399-.765-69.717-10.407-94.189zm-80.235 208.718c-43.621.017-96.247-.468-119.696-17.302l-3.02-64.248c9.544-5.136 16.047-15.219 16.047-26.796 0-1.73-.153-3.424-.432-5.075 25.753-43.124 58.558-70.747 84.365-70.747 47.392 0 50.812 36.153 50.812 95.695.001 49.633-4.641 78.473-28.076 88.473zm-325.911-.001c-23.434-10-28.075-38.84-28.075-88.473 0-59.542 3.42-95.695 50.812-95.695 25.77 0 58.611 27.647 84.363 70.754-.278 1.649-.43 3.341-.43 5.068 0 11.576 6.504 21.66 16.048 26.796l-3.023 64.309c-.194.116-.39.228-.578.358-23.745 16.427-75.93 16.895-119.117 16.883zm183.329-77.937 1.216 25.87h-43.177l1.216-25.87zm-42.526 37.879h44.306l1.317 28.029h-46.94zm-1.882 40.038h48.069l1.317 28.029h-50.704zm60.307-108.326c0 5.731-4.663 10.394-10.393 10.394h-51.757c-5.731 0-10.393-4.663-10.393-10.394s4.663-10.393 10.393-10.393h51.757c5.73 0 10.393 4.663 10.393 10.393zm-185.473 165.106c9.291-9.291 35.144-27.186 60.737-39.725 16.481-1.993 31.654-5.313 44.101-10.856l-2.148 45.716c-12.546 27.087-32.107 55.622-42.019 65.535-16.727 16.728-43.943 16.727-60.671 0-16.727-16.726-16.727-43.943 0-60.67zm123.285-16.742h51.832l1.317 28.029h-54.467zm72.426 11.853-2.148-45.711c12.45 5.547 27.604 8.883 44.084 10.877 25.829 12.683 51.865 30.833 60.755 39.723 16.727 16.727 16.727 43.944 0 60.67-16.727 16.727-43.943 16.727-60.671 0-9.637-9.637-29.34-38.207-42.02-65.559zm-19.586-190.598c-.348-.012-.695-.027-1.046-.027h-51.757c-.351 0-.698.015-1.046.027 1.715-13.334 13.131-23.674 26.924-23.674 13.794 0 25.21 10.34 26.925 23.674zm-250.402 108.726c-9.325-21.692-10.105-53.653-10.105-84.528 0-80.62 6.101-118.602 61.843-118.602 18.84 0 40.582 11.707 62.878 33.857 10.089 10.023 19.898 21.834 29.022 34.816-18.344-18.497-39.356-31.718-60.379-31.718-27.83 0-45.73 11.097-54.724 33.924-7.501 19.04-8.097 43.622-8.097 73.78 0 22.316.54 47.716 6.978 66.73 2.856 8.432 6.77 15.383 11.754 20.947-19.426-2.629-31.743-11.928-39.17-29.206zm39.087 182.622c-21.216-21.216-21.216-55.736 0-76.951 3.705-3.705 9.539-8.535 16.817-13.924-10.75 20.688-7.459 46.836 9.881 64.177 10.705 10.705 24.766 16.057 38.827 16.057 8.726 0 17.45-2.065 25.374-6.188-5.365 7.245-10.197 13.078-13.948 16.829-21.214 21.216-55.735 21.216-76.951 0zm204.582-45.041c-5.346 5.505-12.517 8.538-20.191 8.538s-14.845-3.032-20.191-8.538c-5.327-5.486-8.146-12.711-7.944-20.351l.337-7.174h55.596l.337 7.174c.202 7.641-2.617 14.866-7.944 20.351zm164.2 45.041c-21.215 21.216-55.737 21.215-76.951 0-3.752-3.752-8.583-9.585-13.948-16.829 7.924 4.122 16.648 6.188 25.374 6.188 14.061 0 28.122-5.352 38.827-16.057 17.341-17.341 20.631-43.488 9.881-64.177 7.279 5.388 13.113 10.219 16.818 13.924 21.215 21.215 21.215 55.735-.001 76.951zm39.087-182.622c-7.427 17.278-19.744 26.577-39.17 29.205 4.984-5.564 8.898-12.514 11.754-20.947 6.439-19.014 6.978-44.414 6.978-66.73 0-30.158-.596-54.741-8.097-73.78-8.993-22.827-26.893-33.924-54.724-33.924-20.945 0-41.853 13.084-60.139 31.457 26.996-38.297 61.263-68.413 91.66-68.413 55.742 0 61.843 37.982 61.843 118.602 0 30.877-.78 62.837-10.105 84.53z"/><path d="m385.305 395.344c0-13.258-10.786-24.045-24.045-24.045s-24.046 10.787-24.046 24.045 10.787 24.045 24.046 24.045 24.045-10.787 24.045-24.045zm-24.044 12.036c-6.637 0-12.037-5.399-12.037-12.036s5.4-12.036 12.037-12.036 12.036 5.399 12.036 12.036c-.001 6.637-5.4 12.036-12.036 12.036z"/><path d="m391.757 163.573c-16.338 0-29.63 13.292-29.63 29.63s13.292 29.63 29.63 29.63 29.63-13.292 29.63-29.63-13.292-29.63-29.63-29.63zm0 47.251c-9.716 0-17.621-7.905-17.621-17.621s7.905-17.621 17.621-17.621 17.621 7.905 17.621 17.621-7.904 17.621-17.621 17.621z"/><path d="m337.663 231.156c-11.5 0-20.856 9.356-20.856 20.856s9.356 20.856 20.856 20.856 20.856-9.356 20.856-20.856c-.001-11.5-9.357-20.856-20.856-20.856zm0 29.703c-4.879 0-8.847-3.969-8.847-8.847 0-4.879 3.969-8.847 8.847-8.847s8.847 3.969 8.847 8.847c-.001 4.879-3.969 8.847-8.847 8.847z"/><path d="m397.342 258.144c-13.259 0-24.046 10.787-24.046 24.046 0 13.258 10.787 24.045 24.046 24.045 13.258 0 24.045-10.787 24.045-24.045 0-13.259-10.787-24.046-24.045-24.046zm0 36.082c-6.637 0-12.037-5.4-12.037-12.036 0-6.637 5.4-12.037 12.037-12.037s12.036 5.4 12.036 12.037c0 6.636-5.399 12.036-12.036 12.036z"/><path d="m120.243 163.573c-16.338 0-29.63 13.292-29.63 29.63s13.292 29.63 29.63 29.63 29.63-13.292 29.63-29.63-13.292-29.63-29.63-29.63zm0 47.251c-9.716 0-17.621-7.905-17.621-17.621s7.905-17.621 17.621-17.621 17.621 7.905 17.621 17.621-7.905 17.621-17.621 17.621z"/><path d="m174.337 231.156c-11.5 0-20.856 9.356-20.856 20.856s9.356 20.856 20.856 20.856 20.856-9.356 20.856-20.856c.001-11.5-9.355-20.856-20.856-20.856zm0 29.703c-4.878 0-8.847-3.969-8.847-8.847 0-4.879 3.969-8.847 8.847-8.847 4.879 0 8.847 3.969 8.847 8.847.001 4.879-3.968 8.847-8.847 8.847z"/><path d="m114.658 258.144c-13.258 0-24.045 10.787-24.045 24.046 0 13.258 10.787 24.045 24.045 24.045 13.259 0 24.046-10.787 24.046-24.045 0-13.259-10.787-24.046-24.046-24.046zm0 36.082c-6.637 0-12.036-5.4-12.036-12.036 0-6.637 5.399-12.037 12.036-12.037s12.037 5.4 12.037 12.037c0 6.636-5.4 12.036-12.037 12.036z"/><path d="m150.739 419.389c13.259 0 24.046-10.787 24.046-24.045s-10.787-24.045-24.046-24.045c-13.258 0-24.045 10.787-24.045 24.045.001 13.258 10.787 24.045 24.045 24.045zm0-36.081c6.637 0 12.037 5.399 12.037 12.036s-5.399 12.036-12.037 12.036c-6.637 0-12.036-5.399-12.036-12.036.001-6.637 5.4-12.036 12.036-12.036z"/></g><g><path d="m50.9 139.614c-2.045 0-4.108-.624-5.887-1.921-4.466-3.256-5.447-9.516-2.191-13.982 9.342-12.814 23.59-19.918 42.349-21.114 5.515-.358 10.273 3.834 10.624 9.35.352 5.516-3.834 10.272-9.35 10.624-12.896.823-21.618 4.932-27.45 12.932-1.959 2.685-5.006 4.111-8.095 4.111z" fill="#fff"/></g></g><g><g><path d="m349.299 2.449-8.22 23.115c-.352.99-1.049 1.774-1.928 2.17l-20.536 9.252c-2.901 1.307-2.901 5.93 0 7.237l20.536 9.252c.879.396 1.576 1.181 1.928 2.17l8.22 23.115c1.161 3.266 5.268 3.266 6.43 0l8.22-23.115c.352-.99 1.049-1.774 1.928-2.17l20.536-9.252c2.901-1.307 2.901-5.93 0-7.237l-20.536-9.252c-.879-.396-1.576-1.18-1.928-2.17l-8.22-23.115c-1.161-3.265-5.269-3.265-6.43 0z" fill="#98e8f2"/></g><g><path d="m129.929 1.817-6.098 17.146c-.261.734-.778 1.316-1.43 1.61l-15.234 6.863c-2.152.97-2.152 4.399 0 5.368l15.234 6.863c.652.294 1.169.876 1.43 1.61l6.098 17.146c.861 2.422 3.908 2.422 4.769 0l6.098-17.146c.261-.734.778-1.316 1.43-1.61l15.234-6.863c2.152-.97 2.152-4.399 0-5.368l-15.234-6.863c-.652-.294-1.169-.876-1.43-1.61l-6.098-17.146c-.861-2.422-3.908-2.422-4.769 0z" fill="#98e8f2"/></g><g><path d="m218.29 33.1c0 9.913 8.036 17.95 17.95 17.95 9.913 0 17.95-8.036 17.95-17.95s-8.036-17.95-17.95-17.95c-9.914-.001-17.95 8.036-17.95 17.95z" fill="#75b7f2"/></g><g><ellipse cx="460.542" cy="33.099" fill="#75b7f2" rx="7.506" ry="7.506" transform="matrix(.973 -.23 .23 .973 4.715 106.697)"/></g></g></g></svg>