<svg id="Capa_1" enable-background="new 0 0 512 512" height="512" viewBox="0 0 512 512" width="512" xmlns="http://www.w3.org/2000/svg"><g><g><g><g><path d="m58.895 399.366-19.217 69.983c-3.202 12.172 4.069 24.635 16.241 27.837 12.172 3.202 24.635-4.069 27.837-16.241l16.163-62.779" fill="#ad84e6"/></g><g><path d="m180.245 411.355-10.325 64.272c-1.96 12.432 6.53 24.099 18.962 26.059 12.432 1.96 24.1-6.53 26.059-18.962l8.774-55.987" fill="#ad84e6"/></g><g><path d="m327.181 414.1 22.973 54.388c4.931 11.58 18.316 16.969 29.895 12.038 11.58-4.931 16.969-18.316 12.038-29.895l-36.244-86.325" fill="#ad84e6"/></g><g><path d="m94.895 407.843-10.423 42.682c-2.851 12.259 4.776 24.507 17.035 27.358 12.259 2.851 24.507-4.776 27.358-17.035l8.813-37.699" fill="#a862e6"/></g><g><path d="m273.149 421.136 5.467 58.787c1.202 12.528 12.333 21.71 24.861 20.508 12.528-1.202 21.71-12.333 20.508-24.861l-5.382-59.252" fill="#ad84e6"/></g><g><path d="m242.866 410.602c-24.087 20.716-59.202 31.026-100.807 24.801-72.914-10.91-138.151-68.468-129.522-126.137 8.629-57.67 87.855-93.613 160.768-82.704 33.956 5.081 60.555 19.427 78.412 39.132" fill="#ad84e6"/></g><g><path d="m173.305 226.562c-7.377-1.104-14.819-1.72-22.246-1.89.162.052.324.104.485.156 23.134 7.478 38.117 29.873 36.635 54.141l-1.937 31.71c-2.337 38.266-36.761 66.616-74.717 61.222-.3-.043-.601-.087-.902-.132-47.075-7.043-89.727-40.944-93.981-77.809-1.922 4.907-3.313 10.014-4.105 15.307-8.628 57.67 56.609 115.228 129.521 126.137 41.606 6.225 76.72-4.085 100.807-24.801l8.851-144.908c-17.857-19.706-44.455-34.052-78.411-39.133z" fill="#a862e6"/></g><g><path d="m357.209 354.695c-6.401 36.579-38.32 64.382-76.732 64.382-43.024 0-68.454-34.878-68.454-77.901s25.43-77.901 68.454-77.901" fill="#d3b5f2"/></g><g><path d="m317.878 330.417h-2.581c-5.31 25.18-27.646 44.083-54.406 44.083-27.242 0-44.592-19.594-48.169-45.455-.461 3.954-.7 8.003-.7 12.13 0 43.024 25.43 77.901 68.454 77.901 37.848 0 69.374-26.998 76.415-62.782-13.343-8.102-26.419-16.654-39.013-25.877z" fill="#d088f3"/></g><g><path d="m500.246 268.708c0 56.968-54.529 89.769-111.496 89.769s-103.15-46.182-103.15-103.149c0-56.968 44.119-90.434 101.087-90.434 56.968-.001 113.559 46.846 113.559 103.814z" fill="#d3b5f2"/></g><g><path d="m386.687 164.893c-3.754 0-7.451.149-11.085.437 42.793 4.322 82.827 40.157 82.827 83.153 0 45.87-43.905 72.281-89.775 72.281-43.066 0-78.473-32.78-82.639-74.75-.27 3.032-.415 6.134-.415 9.314 0 56.968 46.181 103.149 103.149 103.149s111.496-32.801 111.496-89.769c.001-56.968-56.59-103.815-113.558-103.815z" fill="#d088f3"/></g></g><g fill="#4e0325"><path d="m471.478 187.929c-14.972-13.257-32.801-22.943-51.494-28.29l5.804-59.681c.595-4.621 2.94-8.742 6.615-11.615 3.703-2.896 8.314-4.174 12.978-3.604 9.632 1.179 16.508 9.974 15.329 19.605-.673 5.498 3.238 10.501 8.736 11.174 5.495.674 10.501-3.237 11.173-8.736 2.523-20.61-12.192-39.429-32.8-41.952-9.989-1.222-19.846 1.516-27.771 7.711-7.923 6.195-12.96 15.106-14.183 25.09-.01.083-.02.165-.027.248l-5.62 57.787c-4.51-.527-9.029-.802-13.531-.802-18.977 0-36.848 3.567-52.421 10.275l-21.418-59.751c-2.916-9.192 2.146-19.064 11.332-22.052 4.468-1.454 9.238-1.08 13.428 1.053 4.189 2.133 7.297 5.769 8.75 10.239 1.713 5.266 7.368 8.149 12.639 6.436 5.267-1.713 8.149-7.372 6.436-12.639-6.422-19.746-27.712-30.583-47.456-24.164-19.745 6.422-30.584 27.711-24.163 47.456.03.094.063.189.097.283l22.542 62.884c-2.854 1.948-5.589 4.022-8.181 6.234-20.934 17.863-32.203 42.821-32.677 72.271-6.531.359-12.762 1.457-18.657 3.245-20.243-21.145-48.554-34.964-82.148-39.991-37.524-5.614-77.77.423-110.419 16.563-35.232 17.418-57.162 43.902-61.752 74.575-4.589 30.674 8.629 62.417 37.22 89.384 2.4 2.264 4.887 4.464 7.447 6.603l-17.279 62.926c-.009.035-.019.07-.028.104-4.603 17.5 5.889 35.483 23.388 40.087 2.783.732 5.602 1.094 8.404 1.094 5.737 0 11.397-1.518 16.483-4.486 6.898-4.024 11.982-10.28 14.531-17.808 1.868.822 3.813 1.495 5.842 1.967 2.491.579 4.982.856 7.436.856 14.913 0 28.443-10.253 31.963-25.388.025-.108.048-.216.07-.325l3.43-17.339c7.745 1.117 15.356 1.699 22.8 1.761l-4.313 26.849c-1.365 8.659.724 17.331 5.882 24.419s12.767 11.744 21.426 13.108c1.731.273 3.461.408 5.18.408 6.881 0 13.568-2.162 19.239-6.289 7.089-5.158 11.744-12.767 13.11-21.435l8.555-54.589c4.283-2.544 8.386-5.357 12.292-8.436 5.458 2.727 11.286 4.772 17.453 6.081.009.144.008.286.022.43l5.46 53.12c1.628 16.953 15.947 29.684 32.643 29.684 1.044 0 2.1-.05 3.16-.152 8.727-.837 16.604-5.022 22.182-11.785 5.579-6.762 8.189-15.292 7.356-23.967l-2.165-23.829 9.117 21.585c5.309 12.468 17.472 19.96 30.239 19.96 4.281 0 8.633-.843 12.813-2.624 8.065-3.434 14.31-9.804 17.584-17.935 3.274-8.132 3.186-17.052-.228-25.069l-33.682-80.223c6.838 1.295 13.889 1.98 21.098 1.98 31.309 0 60.809-9.05 83.068-25.482 24.8-18.309 38.457-44.701 38.457-74.316.001-29.94-13.778-58.628-38.796-80.781zm-191.002 221.119c-40.359 0-58.425-34.088-58.425-67.872 0-32.802 17.035-65.885 54.968-67.78 6.327 39.267 32.924 71.835 68.681 86.596-8.24 28.811-34.607 49.056-65.224 49.056zm-206.419 69.345c-.867 3.296-2.966 6.058-5.91 7.775-2.944 1.718-6.379 2.187-9.676 1.319-6.789-1.786-10.865-8.751-9.105-15.541l15.224-55.446c7.062 4.573 14.506 8.706 22.221 12.355zm29.114-10.278c-1.901-.442-3.631-1.297-5.113-2.495l7.481-29.059c5.366 1.891 10.817 3.544 16.319 4.955l-3.402 17.199c-1.653 6.772-8.478 10.983-15.285 9.4zm101.864 13.046c-.531 3.367-2.341 6.325-5.097 8.33s-6.129 2.815-9.495 2.287c-6.949-1.095-11.712-7.641-10.621-14.562l5.012-31.201c9.292-1.194 18.219-3.264 26.679-6.196zm-61.493-55.677c-33.572-5.023-66.354-20.663-89.941-42.91-23.673-22.328-34.734-47.836-31.145-71.823 3.589-23.988 21.631-45.141 50.803-59.563 29.066-14.368 64.991-19.729 98.562-14.706 26.513 3.966 49.064 14.042 65.829 29.307-5.6 3.8-10.705 8.436-15.242 13.887-13.164 15.814-20.414 37.655-20.414 61.501s7.25 45.687 20.414 61.501c1.899 2.281 3.902 4.41 5.994 6.405-22.523 15.462-52.237 21.284-84.86 16.401zm167.602 60.381c-2.169 2.629-5.232 4.257-8.625 4.582-6.998.665-13.247-4.479-13.927-11.55l-5.125-49.858c8.978-.3 17.642-1.946 25.789-4.755l4.745 52.243c.326 3.393-.688 6.709-2.857 9.338zm71.811-21.539c-1.272 3.162-3.7 5.639-6.836 6.973-6.474 2.757-13.983-.268-16.727-6.713l-22.972-54.388c-.117-.277-.25-.542-.388-.802 7.383-6.006 13.784-13.202 18.902-21.344l27.925 66.509c1.335 3.136 1.37 6.603.096 9.765zm5.795-115.878c-51.346 0-93.12-41.774-93.12-93.12 0-48.093 36.594-80.405 91.058-80.405 54.184 0 103.529 44.701 103.529 93.785-.001 52.35-51.045 79.74-101.467 79.74z"/><circle cx="354.112" cy="271.157" r="12.399"/><path d="m417.959 265.974c-3.306.342-5.707 3.3-5.364 6.606.175 1.696-.319 3.358-1.394 4.682-1.075 1.323-2.6 2.149-4.297 2.325-3.505.364-6.642-2.191-7.006-5.69-.343-3.305-3.305-5.707-6.606-5.364-3.306.343-5.708 3.301-5.364 6.607.981 9.458 8.997 16.517 18.305 16.517.632 0 1.27-.033 1.913-.099 4.893-.507 9.296-2.889 12.396-6.708 3.102-3.819 4.53-8.616 4.022-13.51-.34-3.306-3.272-5.715-6.605-5.366z"/><ellipse cx="449.493" cy="253.3" rx="12.399" ry="12.399" transform="matrix(.23 -.973 .973 .23 99.697 632.573)"/><path d="m167.977 372.109c-3.323 0-6.017 2.694-6.017 6.018v11.223c0 3.323 2.694 6.018 6.017 6.018s6.018-2.694 6.018-6.018v-11.223c-.001-3.324-2.695-6.018-6.018-6.018z"/><path d="m110.525 353.71c-3.323 0-6.018 2.694-6.018 6.017v11.223c0 3.323 2.694 6.017 6.018 6.017 3.323 0 6.018-2.694 6.018-6.017v-11.223c0-3.323-2.695-6.017-6.018-6.017z"/><path d="m147.358 329.547c-3.323 0-6.017 2.694-6.017 6.017v11.223c0 3.323 2.694 6.018 6.017 6.018s6.018-2.694 6.018-6.018v-11.223c0-3.323-2.695-6.017-6.018-6.017z"/></g><g><g><path d="m141.527 276.029c-5.197 0-9.594-4.01-9.99-9.277-.416-5.523 3.725-10.338 9.248-10.753 3.182-.24 6.405-.389 9.582-.444 5.555-.068 10.105 4.315 10.202 9.853.096 5.538-4.315 10.105-9.853 10.202-2.792.048-5.627.18-8.426.39-.255.019-.51.029-.763.029z" fill="#fff"/></g><g><path d="m63.893 305.995c-2.783 0-5.552-1.151-7.534-3.405-3.658-4.159-3.253-10.496.907-14.154 9.315-8.194 20.54-15.096 33.363-20.513 5.102-2.156 10.986.233 13.142 5.335 2.156 5.103-.233 10.986-5.335 13.142-10.834 4.577-20.228 10.33-27.922 17.097-1.906 1.675-4.268 2.498-6.621 2.498z" fill="#fff"/></g></g></g><g><g><path d="m46.168 2.455-8.238 23.164c-.353.992-1.051 1.778-1.932 2.175l-20.581 9.272c-2.908 1.31-2.908 5.943 0 7.253l20.581 9.273c.881.397 1.579 1.183 1.932 2.175l8.238 23.165c1.164 3.273 5.28 3.273 6.444 0l8.238-23.165c.353-.992 1.051-1.778 1.932-2.175l20.581-9.273c2.908-1.31 2.908-5.943 0-7.253l-20.581-9.272c-.881-.397-1.579-1.183-1.932-2.175l-8.238-23.164c-1.164-3.273-5.28-3.273-6.444 0z" fill="#d3b5f2"/></g><g><path d="m209.632 79.583-6.111 17.183c-.262.736-.78 1.319-1.433 1.613l-15.267 6.878c-2.157.972-2.157 4.408 0 5.38l15.267 6.878c.654.294 1.172.878 1.433 1.613l6.111 17.183c.863 2.427 3.916 2.427 4.78 0l6.111-17.183c.262-.736.779-1.319 1.433-1.613l15.267-6.878c2.157-.972 2.157-4.408 0-5.38l-15.267-6.878c-.654-.295-1.172-.878-1.433-1.613l-6.111-17.183c-.863-2.427-3.916-2.427-4.78 0z" fill="#d3b5f2"/></g><g><path d="m70.629 157.998c0 9.935 8.054 17.989 17.989 17.989s17.989-8.054 17.989-17.989-8.054-17.989-17.989-17.989-17.989 8.054-17.989 17.989z" fill="#ad84e6"/></g><g><path d="m291.098 25.65c0 4.154 3.367 7.522 7.522 7.522s7.522-3.368 7.522-7.522-3.368-7.522-7.522-7.522-7.522 3.367-7.522 7.522z" fill="#ad84e6"/></g></g></g></svg>