<svg id="Capa_1" enable-background="new 0 0 512 512" height="512" viewBox="0 0 512 512" width="512" xmlns="http://www.w3.org/2000/svg"><g><g><g><g><path d="m271.402 138.208c28.053 62.057 3.895 146.523-19.462 157.081-23.356 10.558-102.724-27.109-130.777-89.166-28.052-62.057-12.297-116.807 29.19-135.561s92.996 5.59 121.049 67.646z" fill="#98e8f2"/></g><g><path d="m194.777 168.836c-6.341 2.866-22.122-2.401-36.114-13.298v74.802h123.23c4.337-29.019 2.661-63.038-10.491-92.131-26.206-57.974-72.884-83.029-112.738-70.784v.736c16.286-2.271 34.176 8.868 44.625 31.984 12.266 27.136 1.702 64.074-8.512 68.691z" fill="#a6aff4"/></g><g><path d="m153.228 163.24c62.076 28.009 99.798 107.351 89.256 130.715s-94.991 47.58-157.067 19.57c-62.076-28.009-86.455-79.502-67.729-121.002 18.725-41.499 73.464-57.292 135.54-29.283z" fill="#98e8f2"/></g><g><path d="m153.228 163.24c-62.076-28.01-116.815-12.217-135.541 29.283 12.549-27.812 49.234-38.396 90.835-19.625 41.602 18.771 66.882 71.944 59.817 87.602s-63.661 31.887-105.262 13.116c-41.602-18.771-57.94-53.28-45.391-81.092-18.726 41.5 5.653 92.992 67.729 121.002s146.525 3.793 157.067-19.57c10.544-23.365-27.179-102.706-89.254-130.716z" fill="#a6aff4"/></g><g><path d="m404.859 360.066c-7.368 67.063-62.298 116.05-122.689 109.415s-103.375-66.38-96.006-133.443c2.947-26.825 13.504-50.757 28.976-69.395 23.209-27.958 57.478-44.001 93.714-40.02 45.093 4.954 80.48 39.519 92.448 84.631 4.059 15.304 5.423 31.823 3.557 48.812z" fill="#ffe35c"/></g><g><path d="m399.425 385.996c2.6-8.257 4.445-16.931 5.434-25.93.66-6.009.908-11.957.784-17.815-23.696 30.685-64.043 48.696-107.503 43.921-51.633-5.673-91.995-41.789-102.603-86.863-4.707 11.382-7.943 23.71-9.373 36.729-.097.882-.125 1.163-.204 2.042 10.565 45.602 52.01 83.751 105.228 89.598 42.895 4.713 82.838-12.607 107.281-41.302z" fill="#ad84e6"/></g><g><ellipse cx="318.358" cy="246.133" fill="#fff2a5" rx="92.691" ry="107.506" transform="matrix(.151 -.989 .989 .151 27.059 523.762)"/></g><g><ellipse cx="328.561" cy="183.379" fill="#ffe35c" rx="96.943" ry="92.691"/></g><g><path d="m328.56 90.688c-3.4 0-6.759.169-10.069.496 38.885 4.219 69.102 35.764 69.102 74.072 0 41.183-34.917 74.568-77.988 74.568-40.065 0-73.057-28.892-77.469-66.072-.342 3.165-.519 6.377-.519 9.628 0 51.192 43.403 92.691 96.943 92.691s96.943-41.499 96.943-92.691c.001-51.192-43.402-92.692-96.943-92.692z" fill="#ffac62"/></g><g><path d="m291.187 427.677c-11.079-1.217-21.638-3.853-31.525-7.646-30.234-5.947-54.24-28.579-65.178-58.377-3.747-7.526-6.635-15.423-8.523-23.566-6.279 66.226 36.433 124.825 96.207 131.393 52.284 5.745 100.469-30.206 117.246-83.48l-.947.375c-24.442 28.694-64.386 46.014-107.28 41.301z" fill="#ffac62"/></g><g><path d="m405.643 342.251c.061 2.897.03 5.816-.095 8.752.507-11.709-.504-23.127-2.862-33.998h-2.273c-10.932 6.02-22.353 11.812-34.464 14.667-.027.261-.043.521-.072.782-2.033 18.504-8.538 35.306-18.162 49.211 23.371-7.082 43.667-20.948 57.928-39.414z" fill="#ffac62"/></g><g><path d="m400.561 382.165c3.651-12.941 5.368-26.481 5.081-39.914-14.261 18.466-34.557 32.332-57.927 39.414-19.833 28.859-53.829 45.275-88.053 38.366 48.621 20.154 108.961 2.419 139.753-34.031.402-1.272.784-2.55 1.146-3.835z" fill="#a862e6"/></g></g><g fill="#4e0325"><path d="m280.636 193.317c6.196 1.325 12.292-2.623 13.618-8.819 1.325-6.196-2.624-12.293-8.819-13.618-6.196-1.325-12.293 2.624-13.618 8.819-1.326 6.196 2.623 12.293 8.819 13.618z"/><path d="m332.986 214.085c.681.073 1.357.109 2.027.109 9.469 0 17.637-7.16 18.673-16.782.357-3.321-2.044-6.303-5.366-6.661-3.33-.362-6.303 2.045-6.661 5.365-.396 3.672-3.726 6.338-7.377 5.942-3.673-.396-6.338-3.706-5.943-7.379.357-3.321-2.044-6.303-5.366-6.661-3.326-.354-6.303 2.044-6.661 5.365-1.109 10.305 6.37 19.591 16.674 20.702z"/><path d="m380.362 195.872c6.196 1.325 12.292-2.623 13.617-8.819 1.326-6.196-2.623-12.293-8.819-13.617-6.196-1.325-12.293 2.623-13.618 8.819-1.324 6.195 2.625 12.292 8.82 13.617z"/><path d="m464.045 329.96c-14.325-18.141-31.741-25.063-44.799-27.594 7.971-11.518 13.225-24.546 15.354-38.513 2.366-15.518.621-31.517-5.021-46.534 3.884-10.63 6.005-22.051 6.005-33.939 0-45.215-30.565-83.702-72.896-97.413l4.041-46.358c1.005-10.033 9.988-17.392 20.012-16.407 4.872.476 9.265 2.821 12.372 6.602 3.108 3.781 4.557 8.545 4.08 13.416-.542 5.541 3.51 10.471 9.05 11.013 5.527.535 10.472-3.511 11.013-9.051 1.001-10.23-2.043-20.237-8.569-28.178s-15.755-12.865-25.984-13.865c-21.124-2.061-39.977 13.436-42.043 34.554-.004.035-.007.07-.01.106l-3.811 43.729c-4.673-.601-9.438-.917-14.279-.917-2.723 0-5.423.1-8.096.293l1.048-42.169c.002-.084.003-.167.003-.25.001-21.222-17.262-38.485-38.48-38.485-21.219 0-38.482 17.263-38.482 38.481 0 5.567 4.513 10.08 10.08 10.08s10.08-4.513 10.08-10.08c0-10.103 8.22-18.322 18.322-18.322 10.064 0 18.26 8.158 18.321 18.209l-1.141 45.905c-13.933 3.679-26.741 9.996-37.793 18.362-14.612-19.992-32.506-34.535-52.107-42.224-21.707-8.515-43.877-8.181-64.114.966-29.24 13.218-47.108 41.853-49.063 77.73-10.475-.341-20.613.615-30.261 2.901-27.043 6.407-47.776 22.875-58.378 46.37-10.602 23.496-9.23 49.937 3.861 74.454 13.249 24.811 37.078 45.518 68.91 59.882 19.718 8.897 43.243 13.474 67.755 13.474 8.979 0 18.092-.629 27.196-1.87-.024.207-.056.412-.079.62-6.967 63.419 28.197 120.997 81.189 139.247.005.016.007.032.012.048l9.489 30.668c1.255 4.057 4.918 6.892 9.159 7.089.158.007.315.011.473.011 4.057 0 7.741-2.441 9.307-6.217l10.648-25.665c26.695-.771 52.41-11.211 73.685-30.184 22.615-20.168 37.773-47.842 43.321-78.739 4.125 4.626 8.476 10.106 12.057 15.989 1.898 3.118 5.218 4.841 8.62 4.841 1.786 0 3.594-.475 5.231-1.471 4.755-2.895 6.263-9.095 3.369-13.851-8.704-14.299-20.863-26.239-26.942-31.765-.006-7.779-.638-15.494-1.894-23.101 9.449 1.57 23.135 6.409 34.355 20.618 1.989 2.52 4.94 3.834 7.918 3.834 2.187 0 4.39-.709 6.24-2.17 4.37-3.452 5.115-9.791 1.666-14.16zm-75.058.962c1.829-1.147 3.604-2.341 5.336-3.57.84 5.753 1.268 11.578 1.28 17.45-23.575 25.963-59.906 39.415-96.803 35.358-44.919-4.935-82.12-34.294-95.109-74.142 2.508-6.539 5.555-12.818 9.138-18.761 16.629 30.679 49.563 54.303 90.041 60.474 6.85 1.044 13.691 1.561 20.46 1.56 23.641-.001 46.41-6.296 65.657-18.369zm-192.805 6.216c.469-4.266 1.155-8.47 2.034-12.604 18.011 36.683 55.302 62.818 99.263 67.648 4.782.526 9.552.784 14.298.784 30.728 0 60.219-10.843 82.563-30.086-1.278 9.063-3.498 17.827-6.597 26.151-24.238 24.012-59.385 35.843-95.83 31.836-44.534-4.893-82.217-33.457-96.473-71.492.05-4.041.291-8.123.742-12.237zm218.489-76.323c-3.282 21.531-16.209 40.364-36.397 53.029-4.426 2.776-9.094 5.162-13.935 7.195v-6.016c0-3.34-2.708-6.048-6.048-6.048s-6.048 2.708-6.048 6.048v10.218c-14.61 4.053-30.414 4.987-46.336 2.56-39.398-6.006-70.267-31.347-80.779-62.415-.15-1.197-.507-2.368-1.079-3.451-2.799-9.792-3.59-20.09-2.005-30.485.865-5.674 2.437-11.219 4.653-16.535 6.224 18.494 17.767 34.71 32.892 46.981-.539.905-.854 1.958-.854 3.087v11.088c0 3.34 2.708 6.048 6.048 6.048s6.048-2.708 6.048-6.048v-6.188c16.666 10.292 36.485 16.268 57.73 16.268 15.809 0 30.826-3.312 44.345-9.246v6.368c0 3.34 2.708 6.048 6.048 6.048s6.048-2.708 6.048-6.048v-11.088c0-.49-.065-.964-.175-1.421 11.863-7.069 22.187-16.302 30.371-27.121.521 5.693.349 11.427-.527 17.172zm.753-77.436c0 45.552-38.967 82.611-86.863 82.611-47.897 0-86.864-37.059-86.864-82.611s38.967-82.611 86.864-82.611c47.896 0 86.863 37.059 86.863 82.611zm-260.919-103.632c31.18-14.096 67.337.279 92.977 36.622-16.161 18.006-25.946 41.43-25.946 67.01 0 .374.011.745.015 1.118-3.152 3.938-5.961 8.086-8.418 12.4-12.749-14.665-31.452-31.878-55.759-42.846-13.571-6.123-27.041-10.386-40.153-12.767 1.285-28.713 14.885-51.411 37.284-61.537zm-64.942 224.59c-27.344-12.337-48.445-30.45-59.42-51.002-10.078-18.875-11.239-39-3.267-56.667 7.971-17.666 23.828-30.113 44.649-35.045 22.672-5.371 50.215-1.534 77.557 10.804 24.956 11.26 43.425 30.442 54.524 44.551.247.313.511.603.786.879-.964 3.467-1.733 6.988-2.276 10.553-1.878 12.323-1.154 24.524 1.797 36.166-1.006 1.319-1.989 2.655-2.945 4.008l-89.863-40.548c-3.044-1.374-6.627-.019-8 3.025-1.374 3.045-.02 6.626 3.025 8.001l88.255 39.822c-6.201 10.697-10.974 22.249-14.199 34.403-32.476 5.669-65.312 2.471-90.623-8.95zm267.125 130.55c-21.013 18.739-47.078 27.472-73.419 24.573-41.02-4.507-73.23-36.42-83.982-77.966 5.292 7.206 11.425 13.911 18.328 19.91 20.225 17.575 45.459 28.463 72.977 31.487 5.124.562 10.223.84 15.28.84 24.761 0 48.467-6.652 68.526-18.962-5.086 7.389-11.014 14.147-17.71 20.118z"/><path d="m313.457 295.801c-3.34 0-6.048 2.708-6.048 6.048v11.088c0 3.34 2.708 6.048 6.048 6.048s6.048-2.708 6.048-6.048v-11.088c0-3.34-2.708-6.048-6.048-6.048z"/></g><g><path d="m289.937 149.308c-2.959 0-5.89-1.296-7.881-3.787-3.476-4.349-2.768-10.692 1.581-14.167 12.636-10.099 28.631-15.512 45.092-15.232 5.567.094 10.003 4.682 9.91 10.248-.092 5.509-4.587 9.911-10.076 9.911-.057 0-.114-.001-.172-.002-11.753-.201-23.186 3.647-32.167 10.824-1.858 1.483-4.081 2.205-6.287 2.205z" fill="#fff"/></g></g><g><g><path d="m40.785 20.517-8.28 23.282c-.354.997-1.056 1.787-1.942 2.186l-20.685 9.319c-2.922 1.317-2.922 5.973 0 7.29l20.685 9.319c.886.399 1.587 1.189 1.942 2.186l8.28 23.282c1.17 3.289 5.307 3.289 6.477 0l8.28-23.282c.355-.997 1.056-1.787 1.942-2.186l20.685-9.319c2.922-1.317 2.922-5.973 0-7.29l-20.685-9.319c-.886-.399-1.587-1.189-1.942-2.186l-8.28-23.282c-1.17-3.289-5.307-3.289-6.477 0z" fill="#fff2a5"/></g><g><path d="m468.066 92.401-6.142 17.27c-.263.74-.784 1.325-1.441 1.621l-15.344 6.913c-2.168.977-2.168 4.431 0 5.407l15.344 6.913c.657.296 1.178.882 1.441 1.621l6.142 17.27c.868 2.44 3.936 2.44 4.804 0l6.142-17.27c.263-.739.783-1.325 1.44-1.621l15.344-6.913c2.168-.977 2.168-4.43 0-5.407l-15.344-6.913c-.657-.296-1.178-.882-1.44-1.621l-6.142-17.27c-.867-2.439-3.936-2.439-4.804 0z" fill="#fff2a5"/></g><g><path d="m474.404 49.097c0 9.985 8.095 18.08 18.08 18.08s18.08-8.095 18.08-18.08-8.095-18.08-18.08-18.08c-9.986 0-18.08 8.095-18.08 18.08z" fill="#ffe35c"/></g><g><path d="m127.886 26.77c0 4.175 3.384 7.56 7.56 7.56 4.175 0 7.56-3.385 7.56-7.56s-3.385-7.56-7.56-7.56-7.56 3.384-7.56 7.56z" fill="#ffe35c"/></g></g></g></svg>