<svg id="Capa_1" enable-background="new 0 0 512 512" height="512" viewBox="0 0 512 512" width="512" xmlns="http://www.w3.org/2000/svg"><g><g><g><g><path d="m327.635 157.935s-296.716-35.975-309.831-17.902c-13.115 18.073 46.798 94.521 84.126 106.499 37.327 11.977 218.36-63.332 225.705-88.597z" fill="#a6aff4"/></g><g><ellipse cx="309.606" cy="212.62" fill="#ad84e6" rx="55.474" ry="55.474" transform="matrix(.23 -.973 .973 .23 31.541 465.093)"/></g><g><path d="m247.302 245.554c42.924-17.186 91.75 3.921 115.622 63.543 23.872 59.623-2.1 141.53-29.174 152.37s-102.396-30.511-126.268-90.133c-23.872-59.623-3.105-108.594 39.82-125.78z" fill="#ffe35c"/></g><g><path d="m362.923 309.097c-23.872-59.622-72.697-80.729-115.622-63.543 31.023-12.421 66.311 2.833 83.564 45.925 17.253 43.091-1.518 102.288-21.085 110.123-19.567 7.834-74.005-22.051-91.258-65.142s-2.244-78.484 28.779-90.905c-42.924 17.186-63.692 66.157-39.82 125.78s99.194 100.973 126.268 90.133c27.074-10.841 53.046-92.748 29.174-152.371z" fill="#ffac62"/></g><g><path d="m422.834 101.203c10.355 28.983 20.199 75.362-13.214 87.057s-89.318 0-107.785-44.706c-13.516-32.719 5.911-69.98 39.324-81.675 33.412-11.695 69.763 5.987 81.675 39.324z" fill="#d3b5f2"/></g><g><path d="m422.834 101.203c-11.911-33.337-48.262-51.019-81.675-39.324-2.291.802-4.509 1.734-6.662 2.767 24.543-5.28 49.642 8.458 58.316 32.733 8.17 22.866 15.936 59.458-10.425 68.685-25.504 8.927-67.615.578-83.522-31.915.705 3.159 1.688 6.303 2.97 9.406 18.468 44.706 74.372 56.401 107.785 44.706 33.412-11.696 23.568-58.076 13.213-87.058z" fill="#d088f3"/></g><g><path d="m300.631 153.527s-281.113 101.538-284.681 123.582c-3.568 22.043 88.701 70.88 127.422 64.759 38.72-6.121 162.082-162.476 157.259-188.341z" fill="#98e8f2"/></g><g><path d="m398.282 145.265c-6.252 7.785-23.474.471-34.599-8.464-11.126-8.935-11.943-16.108-5.69-23.893 6.252-7.785 17.206-13.234 28.332-4.299 11.125 8.935 18.209 28.871 11.957 36.656z" fill="#ffe35c"/></g></g><g fill="#4e0325"><path d="m353.309 109.146c-8.756 10.903-6.532 21.783 6.612 32.338 6.536 5.25 14.242 9.465 21.139 11.565 3.521 1.072 6.549 1.507 9.144 1.507 7.025 0 10.879-3.187 12.761-5.53 4.246-5.287 4.811-13.879 1.549-23.575-2.871-8.529-8.263-16.577-14.428-21.528-8.278-6.647-16.099-6.533-21.202-5.267-5.76 1.431-11.292 5.155-15.575 10.49zm9.367 7.523c2.647-3.296 5.879-5.551 9.101-6.351.874-.217 1.74-.325 2.604-.325 2.735 0 5.432 1.092 8.182 3.299 4.381 3.518 8.427 9.646 10.563 15.992 2.087 6.201 1.707 10.681.472 12.219-1.1 1.369-4.649 1.389-9.039.052-5.408-1.647-11.807-5.175-17.116-9.439-10.439-8.384-7.556-11.974-4.767-15.447z"/><path d="m430.185 43.706c5.201 1.872 10.939-.826 12.812-6.03 2.502-6.953 2.148-14.465-.999-21.151-3.147-6.687-8.709-11.747-15.662-14.25-6.952-2.502-14.464-2.148-21.151.999-6.686 3.147-11.747 8.71-14.25 15.662-.012.033-.023.066-.035.099l-10.669 30.65c-.086.247-.152.496-.218.745-13.839-3.453-28.387-2.824-42.161 1.997-19.579 6.853-35.657 21.61-44.115 40.488-7.372 16.457-8.239 34.318-2.559 50.729-37.277-4.168-101.117-10.934-157.274-15.057-32.96-2.42-59.409-3.647-78.616-3.646-32.538.001-41.354 3.378-45.587 9.21-3.477 4.792-4.544 11.069-3.171 18.657 4.013 22.179 31.15 59.351 59.081 82.955-2.738 1.253-5.397 2.482-7.932 3.673-45.813 21.527-50.479 29.072-51.612 36.071-1.262 7.792 2.474 15.946 11.419 24.925 12.29 12.335 35.205 26.526 59.804 37.035 13.858 5.92 38.328 14.94 58.757 14.94 3.069 0 6.05-.204 8.887-.652 4.268-.675 15.635-2.473 42.536-26.929.277 16.11 3.866 33.116 10.716 50.227 11.455 28.612 35.424 56.369 65.759 76.155 17.594 11.475 40.461 21.824 59.11 21.986l14.93 32.925c1.676 3.695 5.315 5.88 9.125 5.88 1.382 0 2.788-.288 4.129-.896 5.036-2.284 7.268-8.218 4.984-13.254l-13.51-29.794c17.062-10.794 28.876-38.403 34.475-62.186 8.298-35.254 6.488-71.882-4.969-100.494-6.214-15.521-14.186-29.004-23.64-40.138 16.512-12.266 26.515-31.81 26.515-52.618 0-3.53-.278-7.015-.826-10.442 2.838.221 5.671.342 8.48.342 10.666 0 21.006-1.598 30.181-4.809 11.208-3.923 19.414-11.195 24.388-21.612 10.831-22.683 3.23-55.081-5.054-78.264-6.139-17.186-18.055-31.252-33.786-40.062.258-.475.482-.976.666-1.503l10.649-30.591c.696-1.901 2.087-3.422 3.921-4.286 1.848-.869 3.923-.968 5.842-.276 1.92.691 3.457 2.089 4.326 3.936s.967 3.921.276 5.842c-1.874 5.203.825 10.939 6.028 12.812zm-386.493 138.891c-13.849-19.102-17.766-31.277-17.774-35.703 6.212-1.69 29.173-4.239 113.181 2.164 39.264 2.993 81.693 7.175 115.521 10.754-26.699 9.964-62.756 23.638-98.693 37.936-26.765 10.649-50.055 20.287-69.67 28.82-14.209-10.436-30.131-26.821-42.565-43.971zm98.115 149.38c-23.445 3.706-73.256-17.079-100.45-37.434-9.833-7.361-13.776-12.508-15.023-14.968 3.236-2.818 13.748-10.094 47.247-25.44 24.155-11.065 56.483-24.622 96.086-40.295 45.902-18.167 91.133-35.026 115.635-44.048-2.537 5.031-6.254 11.631-11.694 20.194-11.409 17.956-27.214 39.474-44.507 60.589-43.701 53.357-75.884 79.599-87.294 81.402zm194.724-49.763c-23.554-7.794-46.141-8.269-67.408-1.376-30.001 9.728-50.354 31.81-61.519 47.243-.426-7.999.103-15.705 1.63-22.975.134-.638.2-1.275.21-1.904 13.711-14.383 28.322-31.275 42.086-48.549 31.372-12.308 62.871-1.333 85.001 27.561zm-126.402 64.026c6.302-10.763 27.44-42.583 62.796-54.003 23.023-7.437 48.075-4.994 74.567 7.241 2.209 4.208 4.262 8.656 6.137 13.34 3.319 8.29 5.675 17.41 7.097 27.029-23.082-9.897-45.544-11.706-66.941-5.358-36.447 10.814-58.757 41.969-66.108 53.78-4.435-6.753-8.109-13.685-10.901-20.658-2.886-7.208-5.097-14.357-6.647-21.371zm25.244 52.616c.082-.129.171-.253.245-.39.217-.407 22.155-40.807 61.67-52.483 20.422-6.034 42.201-3.424 64.818 7.736.69 13.307-.306 27.255-3.034 41.143-19.274-7.135-36.625-6.979-51.629.499-18.233 9.087-28.414 26.783-33.423 38.501-15.035-9.933-28.235-21.966-38.647-35.006zm94.655 53.315c-7.486 2.998-24.87-.385-45.601-11.962 4.028-9.903 12.754-26.341 28.434-34.125 12.244-6.078 26.86-5.866 43.469.591-6.978 25.772-18.244 42.27-26.302 45.496zm25.04-239.551c0 15.505-8.011 29.989-21.018 38.312-5.409-4.409-11.155-8.195-17.21-11.312-14.69-7.562-30.591-10.779-46.462-9.611 2.223-3.037 4.406-6.058 6.513-9.042 17.266-24.452 25.915-40.176 30.142-50.465 10.218 11.554 23.785 20.494 39.827 26.022 1.953.673 3.933 1.268 5.924 1.828 1.515 4.575 2.284 9.356 2.284 14.268zm58.336-108.049c0 .001 0 .001 0 0 9.758 27.311 11.887 50.236 5.84 62.899-2.628 5.504-6.858 9.213-12.933 11.34-28.848 10.098-79.032.116-95.224-39.079-5.068-12.269-4.74-25.987.922-38.628 6.218-13.879 18.048-24.731 32.456-29.775 5.824-2.039 11.775-3.006 17.641-3.006 22.3.001 43.344 13.986 51.298 36.249z"/><path d="m99.426 264.997-9.264 6.628c-2.699 1.931-3.32 5.683-1.39 8.381 1.173 1.639 3.018 2.512 4.891 2.512 1.211 0 2.432-.364 3.491-1.122l9.264-6.628c2.699-1.931 3.321-5.683 1.39-8.381-1.933-2.699-5.686-3.32-8.382-1.39z"/><path d="m147.709 278.399-9.264 6.628c-2.699 1.931-3.32 5.683-1.39 8.382 1.173 1.639 3.018 2.512 4.891 2.512 1.21 0 2.432-.364 3.491-1.122l9.264-6.628c2.699-1.931 3.321-5.683 1.39-8.381-1.932-2.7-5.686-3.322-8.382-1.391z"/><path d="m196.002 242.992c-1.931-2.699-5.683-3.32-8.382-1.391l-9.264 6.627c-2.698 1.93-3.321 5.683-1.39 8.381 1.173 1.64 3.018 2.513 4.891 2.513 1.21 0 2.432-.365 3.491-1.122l9.264-6.627c2.697-1.93 3.32-5.683 1.39-8.381z"/></g><g><g><path d="m298.871 317.684c-.124 0-.248-.002-.374-.007-.468-.017-.727-.032-.901-.045l-.165-.001c-.001 0-.003 0-.005 0-5.527 0-10.009-4.479-10.012-10.007-.003-5.53 4.477-10.015 10.008-10.018 1.064-.015 1.246.024 1.548.047l.262.012c5.526.202 9.841 4.847 9.639 10.373-.199 5.402-4.639 9.646-10 9.646z" fill="#fff"/></g><g><path d="m245.285 341.726c-1.886 0-3.795-.532-5.494-1.644-4.628-3.027-5.904-9.265-2.878-13.893.673-1.029 6.945-10.274 19.868-18.037 4.74-2.849 10.891-1.313 13.739 3.427 2.847 4.74 1.313 10.891-3.427 13.739-9.007 5.411-13.422 11.833-13.465 11.898-1.915 2.928-5.094 4.51-8.343 4.51z" fill="#fff"/></g></g></g><g><g><path d="m466.862 252.251-8.224 23.126c-.352.99-1.049 1.775-1.929 2.171l-20.547 9.257c-2.903 1.308-2.903 5.933 0 7.241l20.547 9.257c.88.396 1.577 1.181 1.929 2.171l8.224 23.126c1.162 3.267 5.271 3.267 6.433 0l8.225-23.126c.352-.99 1.049-1.775 1.929-2.171l20.547-9.257c2.903-1.308 2.903-5.933 0-7.241l-20.547-9.257c-.88-.396-1.577-1.181-1.929-2.171l-8.225-23.126c-1.162-3.267-5.271-3.267-6.433 0z" fill="#d3b5f2"/></g><g><path d="m224.455 1.818-6.101 17.155c-.261.734-.778 1.316-1.431 1.611l-15.241 6.867c-2.153.97-2.153 4.401 0 5.371l15.241 6.867c.652.294 1.17.876 1.431 1.611l6.101 17.155c.862 2.423 3.91 2.423 4.772 0l6.101-17.155c.261-.734.778-1.317 1.431-1.611l15.241-6.868c2.153-.97 2.153-4.401 0-5.371l-15.241-6.867c-.653-.294-1.17-.876-1.431-1.611l-6.101-17.155c-.862-2.423-3.91-2.423-4.772.001z" fill="#d3b5f2"/></g><g><path d="m107.182 74.939c0 9.918 8.04 17.959 17.959 17.959 9.918 0 17.959-8.04 17.959-17.959s-8.04-17.959-17.959-17.959-17.959 8.04-17.959 17.959z" fill="#ad84e6"/></g><g><circle cx="412.155" cy="237.753" fill="#ad84e6" r="7.509"/></g></g></g></svg>