<svg id="Capa_1" enable-background="new 0 0 512 512" height="512" viewBox="0 0 512 512" width="512" xmlns="http://www.w3.org/2000/svg"><g><g><g><g><path d="m329.393 171.508c-16.662 50.07-74.824 85.444-93.669 79.172-18.845-6.271-44.213-69.442-27.551-119.512 16.663-50.07 54.417-72.948 87.891-61.809 33.474 11.14 49.992 52.079 33.329 102.149z" fill="#98e8f2"/></g><g><path d="m248.971 123.62c20.604 48.581.357 113.575-17.928 121.33s-79.083-22.865-99.688-71.446c-20.604-48.581-7.406-90.708 25.073-104.482 32.479-13.776 71.938 6.017 92.543 54.598z" fill="#98e8f2"/></g><g><path d="m248.095 483.981c-81.274 31.403-168.913-7.696-195.747-87.328-26.834-79.633 17.298-169.645 98.571-201.047 32.509-12.561 66.035-13.842 96.282-5.761 45.372 12.121 83.364 45.309 99.465 93.09 20.036 59.46.507 124.706-44.506 167.02-15.272 14.355-33.477 26.071-54.065 34.026z" fill="#ffe35c"/></g><g><path d="m106.112 382.229c-26.657-77.198.632-139.131 37.298-183.51-72.433 35.75-116.347 122.899-91.062 197.934 22.202 65.886 86.808 106.303 170.857 94.734-40.856-23.204-90.436-31.96-117.093-109.158z" fill="#ad84e6"/></g><g><g><path d="m55.352 404.756c-.177-.438-.352-.876-.525-1.316.172.441.348.879.525 1.316z" fill="#ffac62"/></g><g><path d="m53.966 401.184c-.139-.372-.281-.742-.417-1.116.136.374.278.744.417 1.116z" fill="#ffac62"/></g><g><path d="m56.774 408.165c-.204-.471-.403-.945-.603-1.419.2.474.399.948.603 1.419z" fill="#ffac62"/></g><g><path d="m58.265 411.5c-.242-.523-.476-1.052-.712-1.579.235.527.469 1.056.712 1.579z" fill="#ffac62"/></g><g><path d="m121.613 211.597c6.247-4.641 13.004-8.732 20.227-12.159-75.434 34.394-115.309 120.603-89.492 197.215.003.008.006.016.009.024-.003-.008-.006-.016-.009-.024-22.633-67.166 10.183-144.03 69.265-185.056z" fill="#ffac62"/></g><g><path d="m58.738 412.496c28.94 61.321 96.542 93.319 164.467 78.891-77.081 10.61-137.803-22.508-164.467-78.891z" fill="#ffac62"/></g><g><path d="m346.666 282.934c-16.101-47.781-54.092-80.968-99.465-93.09-29.818-7.966-62.823-6.826-94.898 5.242 22.887-8.332 46.374-9.051 67.63-3.372 32.915 8.793 60.475 32.868 72.155 67.53 14.535 43.134.368 90.466-32.286 121.162-11.078 10.414-24.285 18.913-39.221 24.684-40.946 15.82-84.113 6.968-113.191-19.264 26.941 73.879 75.604 82.722 115.816 105.559 8.315-1.766 16.635-4.216 24.89-7.405 20.589-7.955 38.793-19.671 54.065-34.027 45.013-42.313 64.542-107.559 44.505-167.019z" fill="#ffac62"/></g><g><path d="m57.552 409.921c-.262-.583-.523-1.167-.778-1.755.255.587.516 1.171.778 1.755z" fill="#ad84e6"/></g><g><path d="m58.738 412.496c-.157-.333-.319-.662-.473-.996.154.334.316.663.473.996z" fill="#ad84e6"/></g><g><path d="" fill="#ad84e6"/></g><g><path d="m53.549 400.069c-.409-1.123-.808-2.252-1.193-3.392.384 1.139.784 2.268 1.193 3.392z" fill="#ad84e6"/></g><g><path d="m54.827 403.441c-.293-.748-.579-1.501-.861-2.257.282.755.567 1.508.861 2.257z" fill="#ad84e6"/></g><g><path d="m56.171 406.746c-.277-.66-.551-1.323-.819-1.99.268.666.542 1.33.819 1.99z" fill="#ad84e6"/></g><g><path d="m107.389 385.827c-52.569-45.86-41.761-134.937 14.223-174.23-136.161 92.522-79.355 306.184 101.597 279.788-40.216-22.836-88.879-31.679-115.82-105.558z" fill="#a862e6"/></g></g><g><ellipse cx="292.378" cy="321.414" fill="#ad84e6" rx="115.232" ry="133.649" transform="matrix(.971 -.239 .239 .971 -68.365 79.223)"/></g><g><path d="m404.268 293.864c-17.442-70.839-80.558-116.363-141.689-102.72 45.24-9.739 91.799 24.025 104.704 76.437 13.11 53.244-13.477 105.569-59.384 116.872-45.906 11.303-93.749-22.696-106.858-75.94-13.11-53.244 13.477-105.569 59.384-116.872-61.795 15.215-97.584 85.651-79.937 157.323s82.048 117.438 143.843 102.223 97.584-85.651 79.937-157.323z" fill="#a862e6"/></g><g><ellipse cx="352.979" cy="299.378" fill="#d3b5f2" rx="94.143" ry="98.462" transform="matrix(.924 -.383 .383 .924 -87.697 157.863)"/></g><g><path d="m439.956 263.351c-20.81-50.24-76.621-74.837-124.657-54.94 34.826-14.426 75.289 3.408 90.376 39.831 15.087 36.424-.914 77.645-35.741 92.071-34.826 14.425-75.289-3.408-90.376-39.831s.914-77.645 35.741-92.071c-48.036 19.897-70.108 76.755-49.297 126.994 20.81 50.24 76.621 74.837 124.657 54.94s70.107-76.754 49.297-126.994z" fill="#d088f3"/></g></g><g fill="#4e0325"><path d="m492.053 164.518c-9.07-5.051-19.563-6.269-29.549-3.429-9.985 2.841-18.267 9.401-23.318 18.471-.017.03-.034.061-.051.092l-20.439 37.622c-8.01-6.849-17.014-12.543-26.817-16.863-7.794-3.435-15.811-5.875-23.909-7.334l8.736-39.712c2.527-10.016 12.712-16.143 22.754-13.672 10.08 2.481 16.262 12.701 13.781 22.781-1.323 5.374 1.96 10.802 7.334 12.125 5.373 1.322 10.802-1.961 12.124-7.334 2.482-10.081.889-20.524-4.484-29.407-5.374-8.883-13.884-15.141-23.965-17.623-20.812-5.123-41.907 7.639-47.03 28.448-.02.081-.039.161-.057.243l-9.363 42.563c-5.733.126-11.449.74-17.099 1.851 3.358-6.138 6.11-12.391 8.199-18.666 17.641-53.011.956-101.3-39.673-114.82-23.762-7.907-49.233-1.336-69.572 17.561-22.521-21.32-50.94-28.731-77.141-17.617-39.42 16.719-52.199 66.185-30.385 117.619 2.334 5.504 5.216 10.946 8.581 16.263-34.03 17.329-61.576 45.201-78.615 79.953-15.46 31.532-20.845 65.789-15.868 98.834l-32.433 25.725c-3.455 2.741-4.712 7.419-3.096 11.523 1.518 3.852 5.232 6.348 9.318 6.348.267 0 .535-.01.804-.032l37.158-2.977c14.931 33.943 41.17 60.93 75.065 76.826 21.363 10.019 44.32 15.045 67.599 15.045 20.394 0 41.034-3.858 61.064-11.597 17.535-6.775 33.794-16.255 48.326-28.175.397-.326.752-.682 1.086-1.053 8.507-.055 17.086-1.085 25.609-3.183 20.128-4.956 38.653-15.616 53.549-30.803.703-.712 16.362-16.7 24.682-35.569 20.692-11.488 36.641-29.848 45.509-52.692 10.249-26.402 9.804-55.643-1.253-82.336-4.096-9.887-9.474-18.986-15.932-27.112l23.434-43.134c2.449-4.372 6.45-7.535 11.272-8.906 4.839-1.375 9.92-.786 14.314 1.661 9.069 5.051 12.337 16.539 7.286 25.609-2.693 4.834-.956 10.936 3.878 13.629 4.835 2.693 10.937.956 13.629-3.878 10.428-18.724 3.68-42.44-15.042-52.868zm-199.153-85.651c13.585 4.521 23.944 15.269 29.168 30.265 5.78 16.589 5.005 37.619-2.182 59.213-1.582 4.754-3.65 9.517-6.152 14.23-15.332-4.055-31.119-4.9-46.434-2.507 1.449-21.797-1.67-42.829-9.105-60.36-4.299-10.135-9.479-19.246-15.323-27.224 15.092-14.304 33.043-19.27 50.028-13.617zm-159.22 31.874c4.011-15.364 13.479-26.905 26.66-32.495s28.058-4.376 41.893 3.421c15.304 8.626 28.627 24.915 37.514 45.867 6.315 14.89 8.885 33.02 7.507 51.981-12.961-3.239-26.19-4.835-39.468-4.801l-20.455-48.229c-1.297-3.057-4.826-4.485-7.882-3.187-3.057 1.297-4.483 4.825-3.188 7.882l18.693 44.074c-15.358 1.252-30.685 4.68-45.646 10.256-3.513-5.206-6.447-10.542-8.727-15.917-8.888-20.954-11.338-41.854-6.901-58.852zm-2.127 360.995c-33.187-15.564-57.943-43.366-69.71-78.283-20.645-61.265 3.819-129.332 55.55-167.958-28.489 43.069-35.865 102.603-16.978 158.653 9.21 27.331 28.002 53.671 52.913 74.166 13.477 11.087 28.366 20.102 43.273 26.421-22.415.936-44.586-3.403-65.048-12.999zm112.93 2.898c-6.748 2.607-13.571 4.706-20.428 6.316-42.361-8.877-94.374-47.604-112.246-100.641-21.739-64.511-6.562-133.725 36.724-172.886 1.976-.859 3.971-1.689 5.996-2.471 23.179-8.956 47.359-12.034 70.914-9.144-46.432 29.352-70.298 92.139-54.686 155.551 13.777 55.954 54.549 97.203 101.565 109.183-8.767 5.603-18.079 10.322-27.839 14.092zm77.452-33.176c-30.153 7.423-61.09-1.326-85.834-21.206l8.707-4.942c2.888-1.639 3.9-5.309 2.261-8.196-1.639-2.888-5.308-3.899-8.196-2.261l-11.988 6.804c-.084.048-.161.103-.242.154-16.929-16.74-30.002-39.154-36.426-65.242-16.297-66.193 16.272-131.329 72.603-145.199 14.166-3.488 29.088-3.45 43.611.033-49.56 23.77-71.841 84.351-49.687 137.836 10.7 25.832 29.907 45.49 52.742 56.874l-6.341 3.599c-2.888 1.639-3.9 5.308-2.261 8.196 1.107 1.951 3.141 3.046 5.234 3.046 1.005 0 2.025-.253 2.962-.784l11.988-6.804c.754-.428 1.377-.997 1.861-1.651 10.673 3.613 21.874 5.527 33.188 5.527 6.29 0 12.613-.592 18.896-1.798-4.819 6.306-8.933 10.523-9.021 10.613-12.487 12.731-27.31 21.277-44.057 25.401zm109.849-106.857c-8.312 21.411-24.279 37.921-44.96 46.487-42.857 17.752-92.903-4.462-111.566-49.517-18.662-45.055 1.02-96.151 43.874-113.903 20.681-8.566 43.645-8.183 64.664 1.08 21.173 9.331 37.83 26.533 46.902 48.437 9.074 21.904 9.459 45.846 1.086 67.416z"/><path d="m306.533 290.483c-6.285-1.382-12.5 2.594-13.882 8.879-1.381 6.285 2.594 12.5 8.879 13.882 6.285 1.381 12.5-2.594 13.881-8.879 1.383-6.286-2.593-12.501-8.878-13.882z"/><path d="m370.276 311.157c-3.298-.374-6.277 1.997-6.652 5.296-.209 1.841-1.122 3.489-2.571 4.643s-3.261 1.675-5.101 1.465c-1.841-.209-3.49-1.122-4.643-2.571-1.154-1.449-1.674-3.26-1.465-5.101.374-3.299-1.997-6.277-5.296-6.652-3.298-.367-6.277 1.997-6.652 5.296-.571 5.032.852 9.985 4.005 13.946 3.154 3.962 7.663 6.458 12.694 7.03.728.082 1.453.123 2.175.123 4.268 0 8.382-1.431 11.771-4.129 3.962-3.154 6.458-7.662 7.03-12.694.374-3.299-1.996-6.277-5.295-6.652z"/><path d="m407.806 293.651c-6.285-1.381-12.5 2.594-13.882 8.879-1.381 6.285 2.594 12.5 8.879 13.881s12.5-2.594 13.882-8.879c1.381-6.285-2.594-12.5-8.879-13.881z"/><path d="m233.212 351.787-11.988 6.805c-2.888 1.639-3.9 5.309-2.261 8.196 1.108 1.951 3.141 3.045 5.234 3.045 1.005 0 2.025-.253 2.962-.784l11.988-6.805c2.887-1.639 3.9-5.309 2.261-8.196-1.639-2.888-5.309-3.898-8.196-2.261z"/><path d="m223.181 286.011 11.988-6.804c2.887-1.639 3.9-5.309 2.261-8.196s-5.309-3.9-8.196-2.261l-11.988 6.804c-2.888 1.639-3.9 5.309-2.261 8.196 1.107 1.951 3.141 3.045 5.234 3.045 1.005.001 2.025-.252 2.962-.784z"/></g><g><g><path d="m372.369 253.215c-1.168 0-2.356-.206-3.514-.64-.769-.288-1.554-.561-2.332-.812-5.267-1.698-8.16-7.345-6.461-12.611 1.699-5.268 7.348-8.157 12.611-6.462 1.073.346 2.154.723 3.212 1.119 5.182 1.941 7.809 7.716 5.868 12.898-1.507 4.024-5.326 6.508-9.384 6.508z" fill="#fff"/></g><g><path d="m314.137 261.416c-2.989 0-5.947-1.332-7.922-3.877-3.393-4.371-2.599-10.666 1.772-14.059 6.064-4.706 12.879-8.329 20.257-10.767 5.255-1.735 10.922 1.115 12.658 6.369 1.737 5.254-1.115 10.921-6.369 12.658-5.206 1.721-10.003 4.268-14.259 7.572-1.827 1.417-3.99 2.104-6.137 2.104z" fill="#fff"/></g></g></g><g><g><path d="m462.619 20.249-8.231 23.143c-.352.991-1.05 1.776-1.93 2.173l-20.562 9.264c-2.905 1.309-2.905 5.937 0 7.246l20.562 9.264c.88.397 1.578 1.182 1.93 2.173l8.231 23.143c1.163 3.27 5.275 3.27 6.438 0l8.231-23.143c.352-.991 1.05-1.776 1.93-2.173l20.562-9.264c2.905-1.309 2.905-5.937 0-7.246l-20.562-9.264c-.88-.397-1.578-1.182-1.93-2.173l-8.231-23.143c-1.163-3.27-5.275-3.27-6.438 0z" fill="#fff2a5"/></g><g><path d="m27.946 113.186-6.105 17.167c-.261.735-.779 1.318-1.432 1.612l-15.253 6.872c-2.155.971-2.155 4.404 0 5.375l15.253 6.872c.653.294 1.17.877 1.432 1.612l6.105 17.167c.862 2.425 3.913 2.425 4.775 0l6.105-17.167c.262-.735.779-1.318 1.432-1.612l15.253-6.872c2.155-.971 2.155-4.404 0-5.375l-15.253-6.872c-.653-.294-1.17-.877-1.432-1.612l-6.105-17.167c-.862-2.426-3.912-2.426-4.775 0z" fill="#fff2a5"/></g><g><path d="m75.264 25.048c0 9.926 8.046 17.972 17.972 17.972s17.972-8.046 17.972-17.972-8.046-17.972-17.972-17.972c-9.926 0-17.972 8.046-17.972 17.972z" fill="#ffe35c"/></g><g><path d="m369.598 38.752c0 4.15 3.364 7.515 7.515 7.515s7.515-3.365 7.515-7.515-3.365-7.515-7.515-7.515-7.515 3.364-7.515 7.515z" fill="#ffe35c"/></g></g></g></svg>