<svg id="Capa_1" enable-background="new 0 0 512 512" height="512" viewBox="0 0 512 512" width="512" xmlns="http://www.w3.org/2000/svg"><g><g><g><g><path d="m105.344 337.018-32.165 107.472c-4.067 13.59 3.933 27.847 17.652 31.457 13.146 3.458 26.656-4.182 30.466-17.231l28.572-97.843" fill="#98e8f2"/></g><g><path d="m178.573 361.335-10.96 111.646c-1.386 14.118 9.2 26.576 23.357 27.488 13.566.874 25.359-9.215 26.597-22.753l9.28-101.506" fill="#98e8f2"/></g><g><path d="m326.174 341.053 77.101 81.489c9.75 10.305 9.023 26.637-1.602 36.035-10.182 9.006-25.685 8.265-34.961-1.672l-69.558-74.507" fill="#a6aff4"/></g><g><path d="m299.428 360.928 27.609 108.732c3.491 13.75-5.103 27.657-18.962 30.685-13.281 2.902-26.456-5.301-29.714-18.499l-24.425-98.96" fill="#98e8f2"/></g><g><ellipse cx="245.476" cy="299.148" fill="#75b7f2" rx="162.745" ry="131.78"/></g><g><path d="m245.476 167.368c-6.877 0-13.652.349-20.305 1.02 60.485 6.969 114.928 69.934 114.928 120.836 0 55.774-55.838 100.989-124.718 100.989-62.863 0-122.785-58.529-131.391-107.505-.828 5.387-1.259 10.873-1.259 16.441 0 72.78 72.863 131.78 162.745 131.78s162.745-59 162.745-131.78c0-72.781-72.864-131.781-162.745-131.781z" fill="#8289f3"/></g><g><path d="m313.273 125.91c39.895 65.616 24.126 163.642-.703 178.738s-119.115-16.016-159.01-81.632-29.566-129.169 14.538-155.984 105.28-6.737 145.175 58.878z" fill="#a6aff4"/></g><g><path d="m179.812 127.051c74.103 33.436 119.134 128.15 106.549 156.04-12.585 27.891-113.395 56.799-187.498 23.362-74.103-33.436-103.206-94.904-80.852-144.445 22.353-49.541 87.698-68.393 161.801-34.957z" fill="#98e8f2"/></g><g><path d="m179.812 127.051c-13.123-5.922-25.97-10.195-38.353-12.957 1.698.697 3.403 1.432 5.114 2.204 54.773 24.714 88.058 94.722 78.756 115.338-9.302 20.615-83.817 41.983-138.59 17.268-50.136-22.622-72.381-62.601-63.121-97.292-2.089 3.296-3.967 6.761-5.608 10.396-22.353 49.541 6.749 111.009 80.852 144.446 74.103 33.436 174.914 4.528 187.498-23.362 12.586-27.891-32.445-122.605-106.548-156.041z" fill="#a6aff4"/></g><g><ellipse cx="373" cy="272.282" fill="#75b7f2" rx="127.238" ry="114.74"/></g><g><path d="m375.512 165.273c-5.291 0-10.504.293-15.622.857 46.241 5.825 81.859 42.95 81.859 85.3 0 46.426-42.718 84.062-95.413 84.062-48.069 0-87.829-31.32-94.441-72.06-.64 4.509-.972 9.102-.972 13.763 0 60.656 55.811 109.827 124.657 109.827s124.657-49.171 124.657-109.827c.001-60.656-55.879-111.922-124.725-111.922z" fill="#8289f3"/></g><g><path d="m409.556 331.652c15.65-6.344 33.054 4.165 36.865 17.596 2.452 8.642 10.021 15.072 19.003 15.203 7.966.116 13.754-4.555 18.471-12.449l7.997-15.082c6.536-14.802 1.977-21.806-8.523-25.85-5.104-1.966-10.727-1.793-15.915-.063-13.178 4.393-22.07-4.559-32.495-19.608l-16.373-5.317-38.118 37.17.625 14.222s3.03 11.571 13.959 10.31c10.927-1.261 14.504-16.132 14.504-16.132z" fill="#75b7f2"/></g><g><ellipse cx="330.592" cy="283.357" fill="#ff8cc0" rx="46.877" ry="46.877" transform="matrix(.988 -.158 .158 .988 -40.59 55.747)"/></g><g><ellipse cx="459.854" cy="263.539" fill="#ff8cc0" rx="35.273" ry="42.653" transform="matrix(.977 -.214 .214 .977 -45.657 104.236)"/></g></g><g fill="#4e0325"><path d="m502.314 314.226c5.273-13.439 7.947-27.551 7.947-41.944 0-68.794-61.574-124.762-137.26-124.762-12.664 0-24.931 1.574-36.582 4.506-3.913-11.282-8.791-21.798-14.581-31.322-20.308-33.4-46.585-57.003-75.991-68.254-28.914-11.065-58.374-8.926-82.954 6.02-16.474 10.016-28.954 24.754-36.404 42.839-17.215-2.078-33.794-1.32-49.292 2.352-31.663 7.501-55.926 26.759-68.32 54.226-12.393 27.467-10.777 58.401 4.55 87.105 12.403 23.226 32.717 43.409 59.403 59.232.807 19.059 6.153 37.434 15.617 54.301l-24.868 83.093c-2.753 9.199-1.681 18.876 3.018 27.25 4.699 8.373 12.401 14.33 21.686 16.773 3.046.801 6.094 1.185 9.09 1.185 15.238-.001 29.06-9.933 33.564-25.36l13.467-47.237c5.779 3.43 11.786 6.547 17.99 9.342l-4.754 48.432c-.938 9.556 1.969 18.848 8.186 26.165s14.919 11.687 24.501 12.304c.786.05 1.564.075 2.339.075 18.104-.001 33.21-13.615 34.883-31.917l3.49-38.173c4.778.322 9.592.495 14.438.495 4.184 0 8.351-.134 12.497-.382l11.035 44.711c3.963 16.054 18.099 26.722 33.93 26.721 2.519 0 5.084-.27 7.654-.832 9.38-2.049 17.326-7.677 22.373-15.844 5.047-8.168 6.525-17.792 4.163-27.098l-9.877-38.902 32.135 34.422c6.951 7.446 16.279 11.225 25.649 11.225 8.259 0 16.552-2.936 23.279-8.886 7.191-6.362 11.387-15.148 11.813-24.74s-2.973-18.715-9.572-25.69l-18.723-19.789c22.708-2.813 44.139-10.699 62.802-23.262 1.363-.918 2.421-2.116 3.165-3.462 2.406.814 4.938 1.285 7.536 1.323.126.002.252.003.377.003 9.393 0 17.246-5.173 23.344-15.38.053-.088.103-.177.151-.267l7.997-15.081c.068-.127.13-.257.188-.388 3.772-8.543 4.522-15.533 2.304-21.353 1.116-1.012 2.03-2.279 2.617-3.775zm-13.874-56.933c4.311 19.737-5.003 38.596-20.765 42.041-7.418 1.621-15.249-.417-22.04-5.739-2.171-1.701-4.151-3.672-5.919-5.861-.08-.104-.159-.208-.245-.305-3.913-4.945-6.747-10.989-8.202-17.644-4.312-19.737 5.002-38.597 20.765-42.041 1.663-.364 3.346-.543 5.035-.543 5.843 0 11.736 2.153 17.006 6.282 7.128 5.587 12.23 14.044 14.365 23.81zm-3.831 47.003c-.092.255-.186.51-.28.764-.168-.056-.335-.115-.504-.167.264-.195.525-.395.784-.597zm-311.304-228.7c19.163-11.653 42.382-13.225 65.377-4.426 25.217 9.649 48.049 30.378 66.027 59.947 4.994 8.213 9.226 17.319 12.651 27.124-19.211 7.774-36.106 19.444-49.468 33.9-22.424-33.312-52.563-60.06-83.957-74.226-12.515-5.647-24.952-9.952-37.168-12.912 5.93-12.314 14.979-22.378 26.538-29.407zm-142.198 159.953c-12.332-23.094-13.739-47.748-3.96-69.419 9.778-21.671 29.193-36.93 54.669-42.965 27.891-6.606 60.353-2.105 93.874 13.021 29.765 13.43 58.464 39.806 79.167 72.653-7.305 11.197-12.738 23.514-15.907 36.596l-35.194-13.683c-.074-.194-.143-.389-.23-.581l-21.278-46.755c-2.293-5.039-8.238-7.263-13.273-4.971-5.038 2.293-7.264 8.236-4.971 13.274l13.037 28.648-88.718-34.493c-5.159-2.005-10.967.55-12.973 5.709s.55 10.967 5.709 12.973l46.812 18.2-34.555 14.707c-5.093 2.167-7.465 8.054-5.297 13.146 1.623 3.813 5.329 6.1 9.226 6.1 1.309 0 2.64-.258 3.92-.803l52.319-22.268c.362-.154.705-.331 1.039-.521l81.402 31.648c-.123 2.158-.186 4.33-.186 6.516 0 10.061 1.326 19.845 3.812 29.223-37.791 12.332-92.726 15.596-136.567-4.187-33.521-15.124-58.376-36.484-71.877-61.768zm80.571 220.359c-2.305 7.894-10.34 12.441-18.296 10.347-3.985-1.048-7.289-3.604-9.306-7.197-2.016-3.593-2.476-7.746-1.295-11.693l20.288-67.791c6.142 7.297 13.157 14.179 21.021 20.547.94.762 1.892 1.511 2.85 2.252zm95.908 20.896c-.748 8.191-7.757 14.206-15.973 13.664-4.112-.265-7.846-2.139-10.513-5.28-2.668-3.14-3.915-7.127-3.513-11.227l4.212-42.907c9.465 3.071 19.268 5.454 29.32 7.108zm-113.488-161.511c.215.098.427.199.643.296 24.87 11.222 52.857 15.809 79.849 15.809 26.105 0 51.262-4.302 71.757-11.037 16.806 36.441 52.111 64.15 95.181 73.37-27.017 17.445-60.881 27.176-96.052 27.176-77.347-.001-141.441-46.081-151.378-105.614zm221.816 169.494c-2.166 3.505-5.575 5.919-9.6 6.799-8.031 1.757-15.872-3.123-17.843-11.109l-10.389-42.089c9.935-1.57 19.663-3.841 29.067-6.788l10.552 41.559c1.013 3.993.379 8.123-1.787 11.628zm84.188-44.333c-.183 4.116-1.983 7.887-5.069 10.616-6.163 5.45-15.383 5.008-20.996-1.004l-31.407-33.641c8.923-4.967 17.305-10.637 25.017-16.956l28.348 29.961c2.832 2.993 4.29 6.908 4.107 11.024zm86.372-106.154-7.818 14.745c-5.071 8.418-9.668 9.467-13.145 9.393-6.05-.089-11.521-4.543-13.305-10.832-2.395-8.44-9.038-16.026-17.769-20.293-8.829-4.314-18.466-4.752-27.14-1.235-.012.005-.024.012-.036.017-.134.055-.264.118-.393.183-.052.026-.105.049-.156.076-.114.061-.222.129-.331.197-.063.039-.128.075-.189.116-.082.055-.158.116-.237.175-.081.061-.165.12-.242.184-.05.042-.096.088-.145.132-.098.087-.196.173-.287.265-.031.032-.059.066-.09.099-.102.108-.203.217-.297.332-.031.038-.058.079-.088.118-.087.112-.173.224-.252.342-.049.074-.092.153-.139.229-.052.086-.107.17-.154.258-.062.116-.116.236-.171.356-.025.054-.053.105-.076.16-.055.13-.101.264-.146.397-.017.049-.037.096-.052.146-.037.118-.065.24-.095.361-.017.069-.038.138-.052.208-.02.093-.031.188-.046.283-.016.103-.035.206-.046.31-.007.067-.008.136-.013.204-.01.134-.019.267-.019.402 0 .052.004.105.005.157.003.15.009.301.024.452.001.012.001.023.002.035.489 4.722-2.954 8.962-7.676 9.452-4.727.48-8.961-2.955-9.452-7.677-.343-3.302-3.288-5.708-6.602-5.36-3.303.343-5.704 3.299-5.361 6.602 1.1 10.598 10.081 18.508 20.512 18.508.709 0 1.424-.037 2.143-.112 9.57-.993 16.924-8.419 18.265-17.529 4.491-.893 9.258-.235 13.751 1.962 5.626 2.75 10.025 7.643 11.48 12.771.547 1.926 1.307 3.747 2.224 5.461-20.314 13.505-44.45 20.65-69.858 20.65-64.633 0-117.216-46.976-117.216-104.718s52.583-104.718 117.216-104.718c43.001 0 80.661 20.798 101.058 51.721-7.819-3.926-16.315-5.1-24.593-3.29-22.241 4.86-35.674 30.142-29.946 56.358 1.866 8.543 5.563 16.342 10.696 22.758 9.493 13.666 21.139 27.6 39.139 21.601 4.123-1.375 8.334-1.385 11.852-.029 3.957 1.524 6.31 3.298 7.193 5.425 1.361 3.28-.273 8.401-1.927 12.192z"/><path d="m330.592 230.467c-29.163 0-52.89 23.727-52.89 52.89 0 29.164 23.727 52.891 52.89 52.891 29.164 0 52.89-23.727 52.89-52.891s-23.727-52.89-52.89-52.89zm0 93.754c-22.533 0-40.863-18.331-40.863-40.864 0-22.532 18.331-40.863 40.863-40.863 22.533 0 40.863 18.331 40.863 40.863s-18.331 40.864-40.863 40.864z"/><path d="m326.459 256.284c-3.085-1.235-6.583.267-7.816 3.351l-4.914 12.29c-1.233 3.084.267 6.583 3.351 7.816.732.293 1.488.431 2.23.431 2.387 0 4.645-1.431 5.586-3.782l4.914-12.29c1.234-3.083-.266-6.583-3.351-7.816z"/><path d="m344.413 284.267c-3.086-1.234-6.583.267-7.816 3.351l-4.914 12.29c-1.233 3.083.267 6.583 3.351 7.816.732.293 1.488.431 2.23.431 2.387 0 4.645-1.43 5.586-3.782l4.914-12.29c1.234-3.083-.267-6.582-3.351-7.816z"/><path d="m453.679 247.984-4.913 12.29c-1.233 3.083.267 6.583 3.351 7.816.732.293 1.488.431 2.23.431 2.387 0 4.645-1.431 5.586-3.783l4.913-12.29c1.233-3.084-.267-6.583-3.351-7.816-3.085-1.233-6.583.268-7.816 3.352z"/><path d="m356.541 211.805c.973 2.287 3.197 3.66 5.536 3.66.785 0 1.584-.155 2.352-.482 3.056-1.301 4.479-4.832 3.178-7.888l-4.368-10.264c-1.3-3.055-4.83-4.48-7.888-3.178-3.056 1.301-4.479 4.832-3.178 7.888z"/><path d="m397.464 225.531c-1.3-3.055-4.83-4.48-7.888-3.178-3.056 1.301-4.479 4.832-3.178 7.888l4.368 10.264c.973 2.288 3.197 3.66 5.536 3.66.785 0 1.584-.155 2.352-.481 3.056-1.301 4.479-4.832 3.178-7.888z"/><path d="m411.962 194.603c-1.3-3.055-4.83-4.48-7.888-3.177-3.056 1.301-4.479 4.832-3.178 7.888l4.369 10.265c.974 2.287 3.197 3.66 5.536 3.66.785 0 1.584-.155 2.352-.482 3.056-1.301 4.479-4.832 3.178-7.888z"/></g><g><g><path d="m114.331 155.689c-.124 0-.248-.002-.372-.007-.97-.035-1.933-.054-2.888-.056-1.027-.003-2.049.013-3.061.049-5.52.168-10.171-4.139-10.362-9.671s4.139-10.171 9.671-10.362c1.251-.043 2.528-.063 3.804-.06 1.181.004 2.37.026 3.567.07 5.532.202 9.852 4.85 9.649 10.382-.197 5.405-4.642 9.655-10.008 9.655z" fill="#fff"/></g><g><path d="m54.851 181.243c-2.035 0-4.089-.618-5.864-1.901-4.486-3.243-5.493-9.508-2.25-13.994 5.892-8.15 13.495-14.812 22.597-19.801 4.853-2.661 10.946-.882 13.606 3.971 2.661 4.854.882 10.945-3.971 13.606-6.473 3.548-11.852 8.247-15.987 13.968-1.96 2.71-5.023 4.151-8.131 4.151z" fill="#fff"/></g></g></g><g><g><path d="m472.024 54.278-8.233 23.149c-.353.991-1.05 1.777-1.931 2.173l-20.567 9.266c-2.906 1.309-2.906 5.939 0 7.248l20.567 9.266c.881.397 1.578 1.182 1.931 2.173l8.233 23.149c1.163 3.271 5.276 3.271 6.439 0l8.233-23.149c.352-.991 1.05-1.777 1.931-2.173l20.567-9.266c2.906-1.309 2.906-5.939 0-7.248l-20.567-9.266c-.881-.397-1.578-1.182-1.931-2.173l-8.233-23.149c-1.162-3.271-5.276-3.271-6.439 0z" fill="#98e8f2"/></g><g><ellipse cx="342.519" cy="17.977" fill="#75b7f2" rx="17.977" ry="17.977" transform="matrix(.013 -1 1 .013 320.208 360.241)"/></g><g><path d="m378.522 84.974c0 4.151 3.365 7.517 7.517 7.517 4.151 0 7.517-3.365 7.517-7.517 0-4.151-3.365-7.517-7.517-7.517s-7.517 3.365-7.517 7.517z" fill="#75b7f2"/></g><g><path d="m77.808 2.318-6.107 17.171c-.261.735-.779 1.318-1.432 1.612l-15.256 6.873c-2.155.971-2.155 4.405 0 5.376l15.256 6.874c.653.294 1.171.877 1.432 1.612l6.107 17.172c.863 2.426 3.914 2.426 4.777 0l6.107-17.172c.262-.735.779-1.318 1.432-1.612l15.256-6.874c2.155-.971 2.155-4.405 0-5.376l-15.256-6.873c-.653-.294-1.171-.877-1.432-1.612l-6.108-17.171c-.863-2.426-3.914-2.426-4.776 0z" fill="#98e8f2"/></g></g></g></svg>