<svg id="Capa_1" enable-background="new 0 0 512 512" height="512" viewBox="0 0 512 512" width="512" xmlns="http://www.w3.org/2000/svg"><g><g><g><g><path d="m296.2 208.808s-118.474 59.069-227.392 21.113c-52.674-18.356-90.538-87.638-12.026-80.261 78.513 7.378 239.418 59.148 239.418 59.148z" fill="#98e8f2"/></g><g><path d="m233.085 189.693c-27.996 11.083-95.969 32.521-159.654 10.328-25.88-9.019-47.047-34.205-42.677-49.382-41.786 9.733-7.382 63.449 38.053 79.283 108.919 37.955 227.393-21.114 227.393-21.114s-26.441-8.507-63.115-19.115z" fill="#a6aff4"/></g><g><path d="m308.645 214.848s-120.52-26.678-177.203-118.076c-27.412-44.201-14.219-116.628 38.361-65.228 52.58 51.399 138.842 183.304 138.842 183.304z" fill="#98e8f2"/></g><g><path d="m305.071 217.679s-59.069 118.474-21.113 227.393c18.356 52.674 87.638 90.539 80.261 12.026-7.378-78.514-59.148-239.419-59.148-239.419z" fill="#98e8f2"/></g><g><path d="m364.218 457.097c-7.377-78.513-59.148-239.418-59.148-239.418s-7.303 14.659-15.122 38.385c9.481 30.737 33.315 111.082 37.425 154.821 4.726 50.299-35.589 32.212-52.191.483 2.02 11.243 4.879 22.523 8.775 33.703 18.357 52.674 87.639 90.539 80.261 12.026z" fill="#a6aff4"/></g><g><path d="m299.031 205.234s26.677 120.52 118.076 177.203c44.201 27.412 116.628 14.219 65.228-38.361-51.399-52.58-183.304-138.842-183.304-138.842z" fill="#98e8f2"/></g><g><path d="m482.336 344.076c-50.632-51.795-179.377-136.269-183.213-138.782 3.15 2.064 93.4 61.314 128.95 97.682 36.184 37.015-14.803 46.303-45.919 27.005-64.342-39.904-83.123-124.747-83.123-124.747s26.677 120.52 118.076 177.203c44.201 27.413 116.629 14.22 65.229-38.361z" fill="#a6aff4"/></g><g><path d="m99.042 414.837c-12.899-12.899-12.596-33.905.67-46.426l162.352-155.34 38.745 38.745-155.34 162.352c-12.522 13.265-33.528 13.569-46.427.669z" fill="#00ebc4"/></g><g><ellipse cx="348.166" cy="165.713" fill="#00ebc4" rx="32.505" ry="40.865" transform="matrix(.707 -.707 .707 .707 -15.202 294.725)"/></g><g><path d="m322.51 246.355c-22.383 22.383-47.904 32.86-68.021 13.036-20.117-19.825-9.348-45.638 13.036-68.021 22.383-22.383 48.529-31.684 68.02-13.035 19.491 18.648 9.348 45.637-13.035 68.02z" fill="#a2f4e3"/></g><g><path d="m335.545 178.334c-19.124-18.298-44.654-9.678-66.751 11.795 13.156-12.541 28.25-17.444 39.593-6.592 11.709 11.203 5.615 27.415-7.831 40.862-13.446 13.446-28.777 19.74-40.861 7.831-12.085-11.909-5.615-27.415 7.83-40.861v.001c-22.383 22.383-33.153 48.196-13.036 68.021s45.638 9.348 68.021-13.035c22.383-22.384 32.526-49.373 13.035-68.022z" fill="#b0b8e5"/></g></g><path d="m489.513 337.061c-30.544-31.246-87.95-73.531-134.168-105.736l70.893-3.938c6.892-.385 13.59 2.24 18.388 7.194l16.186 16.708c1.969 2.032 4.588 3.053 7.21 3.053 2.515 0 5.033-.94 6.982-2.828 3.981-3.857 4.082-10.211.226-14.192l-16.186-16.708c-8.854-9.138-21.206-13.967-33.92-13.269l-54.89 3.049c5.253-1.836 9.993-4.755 13.925-8.687 16.586-16.586 13.934-46.227-5.912-66.074-19.847-19.846-49.487-22.499-66.075-5.912-2.898 2.898-5.236 6.209-7.005 9.821l3.029-54.522c.706-12.703-4.13-25.066-13.268-33.92l-16.708-16.186c-3.982-3.857-10.337-3.755-14.193.225-3.857 3.981-3.756 10.336.225 14.192l16.708 16.186c4.954 4.8 7.576 11.502 7.193 18.389l-4.253 76.562c-32.86-47.264-75.529-105.258-107.082-136.102-28.85-28.203-46.938-21.359-55.154-14.77-9.697 7.775-14.842 23.039-14.118 41.875.671 17.489 6.272 35.928 15.366 50.59 15.872 25.592 36.476 46.27 58.056 62.813-43.495-11.419-90.401-22.12-123.247-25.206-42.517-3.996-52.814 13.526-55.168 24.327-2.787 12.796 3.161 28.761 16.319 43.801 12.278 14.035 29.276 25.553 46.633 31.602 27.648 9.635 55.801 13.284 82.611 13.284 23.048 0 45.09-2.705 64.949-6.621l-120.243 115.051c-8.406 7.934-13.126 18.668-13.294 30.225-.167 11.557 4.243 22.424 12.415 30.597 8.024 8.024 18.643 12.421 29.965 12.421.211 0 .421-.001.632-.005 11.558-.167 22.291-4.888 30.179-13.244l115.094-120.288c-8.453 42.882-11.259 96.115 6.666 147.557 6.049 17.357 17.568 34.354 31.603 46.633 12.607 11.029 25.861 16.992 37.357 16.992 2.219 0 4.374-.222 6.445-.673 10.8-2.353 28.322-12.649 24.327-55.169-3.085-32.838-13.771-79.697-25.203-123.24 16.553 21.593 37.226 42.184 62.809 58.049 14.663 9.093 33.102 14.694 50.591 15.366 1.17.045 2.325.067 3.467.067 17.236 0 31.117-5.091 38.409-14.185 6.588-8.215 13.43-26.305-14.771-55.154zm-174.101-97.804c-15.181 15.183-36.853 29.761-53.878 12.984-5.111-5.037-7.607-10.47-7.629-16.609-.038-10.569 7.319-23.768 20.717-37.167 7.117-7.117 22.057-19.995 36.936-19.995 5.852 0 11.697 1.995 17.049 7.115 4.809 4.601 7.179 9.791 7.246 15.866.12 10.917-7.33 24.696-20.441 37.806zm-69.946 55.882-26.725-26.725 18.106-17.324c2.266 5.551 5.797 10.718 10.597 15.449 4.749 4.68 9.939 8.137 15.466 10.369zm-32.173 33.625-28.178-28.177 24.922-23.845 27.101 27.101zm-32.174 33.626-29.629-29.63 24.921-23.845 28.553 28.553zm-32.173 33.625-31.082-31.082 24.921-23.845 30.005 30.005zm177.42-252.101c8.612-8.613 25.873-5.903 37.686 5.912 11.817 11.817 14.524 29.075 5.912 37.686-3.684 3.685-8.956 5.426-15.051 5.039-1.806-8.02-6.014-15.33-12.43-21.469-6.294-6.022-13.42-9.924-21.124-11.682-.485-6.232 1.257-11.735 5.007-15.486zm-186.396-52.432c-15.912-25.658-14.848-58.929-5.748-66.227 5.014-4.022 15.959 1.142 28.565 13.465 32.581 31.849 79.111 96.378 107.208 136.918-3.223 2.608-6.42 5.486-9.568 8.634-.776.776-1.516 1.554-2.26 2.332-.51-.152-1.021-.305-1.538-.459-37.41-16.636-86.617-46.222-116.659-94.663zm-67.859 128.962c-31.457-10.962-52.726-39.414-49.945-52.176 1.575-7.228 14.161-10.448 33.677-8.615 50.422 4.738 136.372 28.395 188.77 43.865-3.562 5.514-6.265 10.991-8.071 16.369-43.47 12.021-105.594 21.061-164.431.557zm50.141 193.835c-6.124.077-11.81-2.235-16.114-6.538-4.304-4.304-6.626-10.027-6.538-16.113.088-6.087 2.575-11.74 7.05-15.965l2.51-2.402 31.457 31.458-2.449 2.56c-4.177 4.426-9.83 6.912-15.916 7zm223.359 77.434c-.751.164-1.555.244-2.407.244-13.641-.001-39.451-20.583-49.768-50.188-20.533-58.924-11.417-121.159.569-164.486 5.397-1.781 10.858-4.453 16.36-8.002 15.57 52.731 39.131 138.413 43.861 188.755 1.834 19.513-1.387 32.103-8.615 33.677zm143.013-112.056c-7.299 9.101-40.569 10.164-66.227-5.749-48.367-29.996-77.948-79.07-94.668-116.679-.15-.503-.3-1.008-.448-1.504.775-.742 1.551-1.498 2.327-2.274.001-.001-.001.001 0 0 3.148-3.148 6.027-6.343 8.638-9.564 39.045 27.061 104.777 74.33 136.913 107.205 12.324 12.608 17.483 23.554 13.465 28.565z" fill="#4e0325"/><g><g><path d="m200.718 122.444c-3.031 0-6.025-1.366-8-3.966-7.625-10.039-12.593-16.102-19.685-24.031-3.696-4.131-3.342-10.476.789-14.172 4.13-3.694 10.475-3.344 14.172.789 7.399 8.272 12.818 14.885 20.708 25.271 3.353 4.414 2.493 10.71-1.921 14.063-1.814 1.38-3.948 2.046-6.063 2.046z" fill="#fff"/></g><g><path d="m157.862 73.787c-2.521 0-5.045-.944-6.995-2.84-.684-.666-1.063-1.026-1.092-1.052-4.024-3.809-4.199-10.159-.391-14.185 3.806-4.025 10.158-4.204 14.186-.397 0 0 .451.425 1.29 1.241 3.975 3.864 4.064 10.218.2 14.193-1.968 2.023-4.582 3.04-7.198 3.04z" fill="#fff"/></g></g></g><g><g><path d="m379.991 2.456-8.245 23.182c-.353.992-1.052 1.779-1.934 2.176l-20.596 9.279c-2.91 1.311-2.91 5.947 0 7.258l20.596 9.279c.882.397 1.581 1.184 1.934 2.177l8.245 23.182c1.165 3.275 5.284 3.275 6.449 0l8.245-23.182c.353-.993 1.052-1.779 1.934-2.177l20.596-9.279c2.91-1.311 2.91-5.947 0-7.258l-20.596-9.279c-.882-.397-1.581-1.184-1.934-2.176l-8.245-23.182c-1.165-3.275-5.284-3.275-6.449 0z" fill="#a2f4e3"/></g><g><path d="m192.793 446.354-6.116 17.196c-.262.736-.78 1.32-1.434 1.615l-15.278 6.883c-2.158.973-2.158 4.411 0 5.384l15.278 6.883c.654.295 1.173.878 1.434 1.614l6.116 17.196c.864 2.429 3.919 2.429 4.783 0l6.116-17.196c.262-.736.78-1.32 1.434-1.614l15.278-6.883c2.158-.973 2.158-4.411 0-5.384l-15.278-6.883c-.654-.295-1.173-.878-1.434-1.615l-6.116-17.196c-.863-2.429-3.919-2.429-4.783 0z" fill="#a2f4e3"/></g><g><path d="m440.42 142.532c0 9.942 8.06 18.002 18.002 18.002s18.002-8.06 18.002-18.002-8.06-18.002-18.002-18.003c-9.942.001-18.002 8.061-18.002 18.003z" fill="#00ebc4"/></g><g><path d="m52.323 298.67c0 4.157 3.37 7.527 7.527 7.527s7.528-3.37 7.528-7.527-3.37-7.527-7.528-7.527-7.527 3.37-7.527 7.527z" fill="#00ebc4"/></g></g></g></svg>