<svg id="Capa_1" enable-background="new 0 0 512 512" height="512" viewBox="0 0 512 512" width="512" xmlns="http://www.w3.org/2000/svg"><g><g><g><g><ellipse cx="266.347" cy="122.196" fill="#00ebc4" rx="79.338" ry="79.338" transform="matrix(.707 -.707 .707 .707 -8.395 224.126)"/></g><g><path d="m349.157 256.796c0 58.257-52.494 129.561-82.81 129.561s-82.809-71.304-82.809-129.561c0-58.256 37.075-81.405 82.809-81.405s82.81 23.148 82.81 81.405z" fill="#00ebc4"/></g><g><g><g><path d="m249.784 349.721c-19.906 92.873-78.658 159.517-106.972 151.514-28.314-8.002-33.532-80.973-4.894-172.091 29.197-92.897 66.929-160.572 95.741-155.952 28.812 4.622 36.032 83.656 16.125 176.529z" fill="#fff2a5"/></g></g><g><path d="m233.659 173.193c-2.72-.436-5.519-.226-8.383.586 16.297 14.313 19.114 69.539 5.476 133.168-15.405 71.871-60.87 123.443-82.781 117.251-14.623-4.133-21.282-30.663-17.509-68.811-19.932 78.563-13.187 138.632 12.35 145.849 28.314 8.002 87.066-58.641 106.972-151.515 19.907-92.873 12.687-171.907-16.125-176.528z" fill="#ffb7a9"/></g><g><g><path d="m282.91 349.721c19.906 92.873 78.658 159.517 106.972 151.514 28.314-8.002 33.532-80.973 4.894-172.091-29.198-92.897-66.929-160.572-95.741-155.952-28.812 4.622-36.032 83.656-16.125 176.529z" fill="#fff2a5"/></g></g><g><path d="m394.776 329.144c-29.197-92.897-66.929-160.572-95.741-155.952-2.081.334-4.047 1.068-5.9 2.156 21.38 4.196 47.775 53.684 68.552 119.788 22.02 70.061 18.008 126.169-3.763 132.322-21.323 6.026-65.09-43.006-81.264-112.117 1.659 11.158 3.738 22.658 6.251 34.379 19.906 92.873 78.658 159.517 106.972 151.515 28.313-8.001 33.532-80.973 4.893-172.091z" fill="#ffb7a9"/></g></g><g><path d="m313.109 247.543h-93.525c-31.377 0-56.813-25.436-56.813-56.813 0-31.377 25.436-56.813 56.813-56.813h93.525c31.377 0 56.813 25.436 56.813 56.813.001 31.377-25.435 56.813-56.813 56.813z" fill="#c37777"/></g><g><path d="m313.109 133.917h-49.252c21.098 0 38.201 17.103 38.201 38.201 0 21.098-17.103 38.201-38.201 38.201h-62.885c-18.214 0-33.441-12.752-37.265-29.812-.603 3.318-.935 6.731-.935 10.224 0 31.377 25.436 56.813 56.814 56.813h93.525c31.377 0 56.814-25.436 56.814-56.813-.002-31.378-25.438-56.814-56.816-56.814z" fill="#ba5677"/></g></g><g fill="#4e0325"><path d="m476.951 318.336-18.997-19.373c-1.789-1.825-3.144-3.967-4.024-6.367l-14.242-38.828c-4.491-12.246-14.774-21.243-27.506-24.07l-39.404-8.748c4.62-9.085 7.242-19.348 7.242-30.219 0-11.34-2.845-22.024-7.844-31.393 20.801-5.831 37.821-19.607 49.622-40.329 10.052-17.651 12.769-34.223 12.88-34.92.876-5.507-2.879-10.681-8.386-11.556-5.504-.874-10.681 2.879-11.556 8.386-.085.537-9.075 53.762-55.863 60.647-.123.018-.241.05-.362.072-1.334-1.234-2.722-2.409-4.153-3.533.94-5.232 1.425-10.557 1.425-15.908 0-35.08-20.306-65.502-49.778-80.145l23.259-25.057c3.794-4.087 3.556-10.475-.531-14.269-4.088-3.795-10.476-3.556-14.269.531l-29.253 31.513c-6.084-1.311-12.393-2.008-18.864-2.008-6.47 0-12.78.697-18.864 2.008l-29.253-31.513c-3.793-4.086-10.182-4.325-14.269-.531s-4.325 10.182-.531 14.269l23.259 25.057c-29.472 14.643-49.778 45.065-49.778 80.145 0 5.348.48 10.681 1.419 15.913-1.429 1.122-2.814 2.295-4.146 3.528-.121-.022-.239-.054-.362-.072-19.251-2.833-34.417-13.608-45.077-32.026-8.397-14.508-10.767-28.508-10.789-28.647-.887-5.493-6.057-9.234-11.552-8.361-5.507.875-9.262 6.05-8.386 11.556.111.697 2.828 17.269 12.88 34.92 11.8 20.722 28.82 34.499 49.622 40.329-4.999 9.368-7.844 20.053-7.844 31.393 0 10.871 2.622 21.134 7.242 30.219l-39.403 8.748c-12.733 2.826-23.016 11.824-27.507 24.069l-14.242 38.828c-.881 2.401-2.235 4.543-4.025 6.368l-18.996 19.373c-3.904 3.982-3.841 10.374.14 14.278 1.966 1.927 4.518 2.888 7.069 2.888 2.617 0 5.233-1.011 7.21-3.028l18.996-19.372c3.809-3.884 6.69-8.444 8.565-13.553l14.242-38.829c2.11-5.754 6.942-9.982 12.925-11.31l35.575-7.898c-11.226 24.067-22.241 52.986-32.18 84.605-22.145 70.457-25.729 135.831-9.131 166.547 6.525 12.074 14.973 16.61 20.911 18.288 2.473.699 5.042 1.048 7.701 1.048 7.143 0 14.932-2.519 23.257-7.532 25.99-15.654 57.806-57.438 77.38-112.829 6.286 3.2 12.29 4.814 17.944 4.814 5.643 0 11.651-1.619 17.942-4.82 19.574 55.394 51.391 97.18 77.382 112.834 8.325 5.014 16.114 7.532 23.257 7.532 2.658 0 5.227-.349 7.701-1.048 5.938-1.678 14.386-6.213 20.911-18.288 16.598-30.716 13.014-96.09-9.131-166.547-9.961-31.689-20.947-60.535-32.176-84.604l35.573 7.897c5.983 1.328 10.814 5.556 12.925 11.31l14.242 38.829c1.874 5.108 4.756 9.668 8.564 13.552l18.996 19.373c1.977 2.016 4.592 3.028 7.21 3.028 2.551 0 5.104-.961 7.069-2.888 3.978-3.902 4.041-10.295.137-14.276zm-121.686 81.303-27.917 36.733c-12.5-20.939-23.792-46.662-31.33-75.257.209-.237.407-.488.582-.763l33.482-52.952zm-157.614 48.8-26.376-32.923c-.043-.053-.09-.1-.134-.151l24.455-89.278 40.123 38.546c-9.103 32.909-23.116 61.835-38.068 83.806zm42.261-100.833c-.251 1.173-.525 2.331-.789 3.495l-39.482-37.93c-.13-.125-.279-.215-.417-.327l15.182-55.424c1.711.132 3.435.22 5.179.22h31.306c-.396 27.228-4.147 58.087-10.979 89.966zm85.846-56.039-33.584 53.114c-6.44-30.839-9.987-60.648-10.371-87.041h31.306c1.128 0 2.248-.03 3.362-.085zm-12.649-54.12h-93.525c-25.76 0-46.717-20.957-46.717-46.717s20.957-46.717 46.717-46.717h93.525c25.76 0 46.717 20.957 46.717 46.717s-20.957 46.717-46.717 46.717zm-116.004-115.251c0-38.18 31.062-69.241 69.242-69.241s69.242 31.061 69.242 69.241c0 1.821-.079 3.637-.22 5.446-6.968-2.466-14.457-3.822-22.259-3.822h-93.525c-7.803 0-15.293 1.356-22.262 3.822-.141-1.809-.218-3.625-.218-5.446zm-16.11 123.144c6.401 4.536 13.622 7.983 21.404 10.053l-27.912 101.897c-.018.009-.037.014-.055.023l-38.384 18.539c2.865-13.642 6.647-28.234 11.501-43.68 10.345-32.911 21.836-62.711 33.446-86.832zm-47.771 145.331 37.017-17.879-31.147 113.707c-.75-1.009-1.476-2.145-2.173-3.435-8.287-15.334-11.255-47.847-3.697-92.393zm27.381 96.498c-3.818 2.3-7.369 3.78-10.325 4.353l16.909-61.729 23.093 28.825c-10.17 13.172-20.465 23.003-29.677 28.551zm105.742-110.909c-3.076 0-7.175-1.52-11.7-4.269 1.859-6.57 3.539-13.292 5.009-20.153 2.701-12.603 4.929-25.064 6.69-37.249 1.762 12.184 3.989 24.646 6.69 37.249 1.471 6.863 3.152 13.589 5.012 20.161-5.966 3.639-9.806 4.261-11.701 4.261zm67.921 71.03 25.019-32.919 20.909 76.583c-2.453-.763-5.201-2.035-8.106-3.784-11.688-7.04-25.115-20.962-37.822-39.88zm61.506 35.774c-1.169 2.163-2.417 3.913-3.731 5.282l-37.336-136.751 40.366 17.091c12.75 55.83 10.295 96.623.701 114.378zm-4.319-129.067-39.937-16.909c-.28-.118-.564-.206-.849-.28l-22.112-80.987c8.444-2.004 16.268-5.609 23.142-10.481 11.616 24.128 23.073 53.838 33.444 86.833 2.352 7.479 4.443 14.752 6.312 21.824z"/><path d="m321.864 185.955c-3.345 0-6.058 2.713-6.058 6.058v11.106c0 3.345 2.712 6.058 6.058 6.058 3.345 0 6.058-2.713 6.058-6.058v-11.106c0-3.346-2.713-6.058-6.058-6.058z"/><path d="m299.045 163.78c-3.346 0-6.058 2.712-6.058 6.058v11.106c0 3.346 2.712 6.058 6.058 6.058 3.345 0 6.058-2.712 6.058-6.058v-11.106c0-3.345-2.712-6.058-6.058-6.058z"/><path d="m261.03 193.154c-3.345 0-6.058 2.713-6.058 6.058v11.106c0 3.346 2.712 6.058 6.058 6.058s6.058-2.712 6.058-6.058v-11.106c.001-3.346-2.712-6.058-6.058-6.058z"/></g><g><g><path d="m268.471 84.518c-.149 0-.298-.003-.449-.01-.858-.036-1.725-.046-2.576-.024-5.584.129-10.206-4.267-10.346-9.842-.139-5.574 4.267-10.206 9.842-10.346 1.312-.032 2.645-.02 3.964.038 5.571.243 9.889 4.958 9.645 10.529-.237 5.42-4.707 9.654-10.08 9.655z" fill="#fff"/></g><g><path d="m224.956 108.343c-1.713 0-3.447-.436-5.037-1.353-4.829-2.787-6.485-8.962-3.698-13.792 3.754-6.505 8.664-12.136 14.594-16.736 4.404-3.417 10.748-2.618 14.166 1.789 3.418 4.406 2.617 10.748-1.789 14.166-3.852 2.988-7.041 6.647-9.481 10.874-1.87 3.241-5.265 5.052-8.755 5.052z" fill="#fff"/></g></g></g><g><g><path d="m50.525 134.068-8.903 25.034c-.381 1.072-1.136 1.921-2.088 2.35l-22.241 10.021c-3.142 1.416-3.142 6.422 0 7.838l22.241 10.021c.952.429 1.707 1.278 2.088 2.35l8.903 25.034c1.258 3.537 5.706 3.537 6.964 0l8.903-25.034c.381-1.072 1.136-1.921 2.088-2.35l22.241-10.021c3.142-1.416 3.142-6.422 0-7.838l-22.241-10.022c-.952-.429-1.707-1.278-2.088-2.35l-8.903-25.034c-1.258-3.536-5.706-3.536-6.964.001z" fill="#fff2a5"/></g><g><path d="m389.94 1.968-6.604 18.569c-.283.795-.843 1.425-1.549 1.743l-16.498 7.433c-2.331 1.05-2.331 4.764 0 5.814l16.498 7.433c.706.318 1.266.948 1.549 1.743l6.604 18.57c.933 2.623 4.232 2.623 5.165 0l6.604-18.57c.283-.795.842-1.425 1.549-1.743l16.498-7.433c2.331-1.05 2.331-4.764 0-5.814l-16.498-7.433c-.706-.318-1.266-.948-1.549-1.743l-6.604-18.569c-.932-2.624-4.232-2.624-5.165 0z" fill="#fff2a5"/></g><g><path d="m458.184 180.944c0 10.736 8.704 19.44 19.44 19.44s19.44-8.704 19.44-19.44c0-10.737-8.704-19.44-19.44-19.441-10.736.001-19.44 8.705-19.44 19.441z" fill="#ffe35c"/></g><g><circle cx="126.972" cy="32.621" fill="#ffe35c" r="8.129"/></g></g></g></svg>