<svg id="Capa_1" enable-background="new 0 0 512 512" height="512" viewBox="0 0 512 512" width="512" xmlns="http://www.w3.org/2000/svg"><g><g><g><g><ellipse cx="256" cy="148.186" fill="#98e8f2" rx="82.52" ry="82.52" transform="matrix(.707 -.707 .707 .707 -29.803 224.422)"/></g><g><path d="m298.058 77.193c.99 4.461 1.529 9.091 1.529 13.85 0 35.158-28.5 63.658-63.658 63.658-25.092 0-46.784-14.523-57.153-35.616-3.413 9.052-5.295 18.855-5.295 29.102 0 45.574 36.946 82.52 82.52 82.52s82.52-36.945 82.52-82.52c-.001-30.21-16.244-56.615-40.463-70.994z" fill="#a6aff4"/></g><g><g><path d="m179.869 372.193c18.314 33.981 49.257 56.628 76.131 56.628 27.503 0 59.267-23.718 77.394-59.03-20.111-16.31-47.711-27.657-75.476-27.657-30.033 0-57.405 11.381-78.049 30.059z" fill="#ffe35c"/></g><g><path d="m256 190.41c-50.877 0-92.121 53.37-92.121 119.206 0 22.954 6.187 44.388 15.99 62.578 20.645-18.678 48.016-30.059 78.049-30.059 27.766 0 55.366 11.347 75.476 27.657 9.068-17.663 14.727-38.225 14.727-60.176 0-65.836-41.244-119.206-92.121-119.206z" fill="#75b7f2"/></g></g><g><g><ellipse cx="169.584" cy="295.973" fill="#fff2a5" rx="123.062" ry="69.293" transform="matrix(.616 -.788 .788 .616 -168.032 247.246)"/></g><g><path d="m245.39 199.03c-16.647-13.017-88.524.719-130.391 54.259-41.866 53.54-37.867 126.609-21.22 139.626 1.887 1.476 4.491 2.604 7.674 3.373-8.696-18.411-7.403-66.205 20.961-102.479 32.561-41.64 88.464-52.323 101.41-42.199 11.881 9.29 15.474 57.91-9.176 98.031 3.308-3.459 6.495-7.114 9.521-10.984 41.867-53.54 37.867-126.61 21.221-139.627z" fill="#ffb7a9"/></g><g><ellipse cx="343.567" cy="297.226" fill="#fff2a5" rx="66.379" ry="123.062" transform="matrix(.788 -.616 .616 .788 -110.168 274.72)"/></g><g><path d="m395.858 256.337c-41.866-53.54-112.149-68.523-128.096-56.053-15.946 12.47-18.351 84.292 23.515 137.832 3.137 4.012 6.436 7.803 9.858 11.386-24.318-39.526-21.813-86.549-10.578-95.335 12.286-9.608 66.439 1.937 98.696 43.188 27.95 35.743 30.289 82.055 22.423 100.038 3.217-.69 5.832-1.767 7.696-3.225 15.947-12.469 18.352-84.291-23.514-137.831z" fill="#ffb7a9"/></g></g><g><g><path d="m256 190.41s-162.318-104.405-243.969 72.617c-8.18 17.734 10.05 36.069 27.761 27.84z" fill="#75b7f2"/></g><g><path d="m134.103 160.884c14.009 1.785 26.769 5.605 37.086 9.587 10.884 4.2 11.401 19.4.821 24.316l-139.34 64.742c-6.538 3.038-13.207 1.291-17.611-2.846-1.02 2.077-2.032 4.184-3.029 6.344-8.18 17.734 10.05 36.069 27.76 27.84l216.21-100.457s-57.878-37.222-121.897-29.526z" fill="#8289f3"/></g><g><path d="m256 190.41s162.318-104.405 243.969 72.617c8.18 17.734-10.05 36.069-27.761 27.84z" fill="#75b7f2"/></g><g><path d="m499.969 263.027c-32.836-71.19-78.717-96.86-121.842-102.115 23.292 7.042 46.579 25.012 64.119 63.038 5.297 11.485-6.509 23.36-17.979 18.03l-140.025-65.06s1.454-.936 4.106-2.399c-19.829 7.839-32.348 15.889-32.348 15.889l216.208 100.457c17.711 8.229 35.94-10.106 27.761-27.84z" fill="#8289f3"/></g></g></g><g fill="#4e0325"><path d="m509.083 258.823c-25.492-55.268-61.349-89.972-106.575-103.15-18.462-5.379-36.785-6.672-53.986-5.535.013-.651.034-1.302.034-1.952 0-34.651-19.144-64.91-47.407-80.771l12.979-32.359c2.063-5.145-.434-10.988-5.579-13.052-5.146-2.064-10.988.434-13.052 5.579l-12.823 31.971c-8.451-2.548-17.405-3.924-26.675-3.924s-18.224 1.376-26.675 3.924l-12.823-31.971c-2.063-5.145-7.906-7.643-13.052-5.579-5.145 2.064-7.643 7.907-5.579 13.052l12.979 32.359c-28.263 15.861-47.407 46.12-47.407 80.771 0 .65.021 1.301.034 1.952-17.2-1.137-35.523.156-53.986 5.535-45.225 13.177-81.082 47.882-106.575 103.15-5.524 11.978-3.071 25.724 6.251 35.02 5.963 5.946 13.746 9.063 21.706 9.063 4.422 0 8.899-.962 13.148-2.937l43.319-20.127c-10.907 24.089-14.153 46.473-15.056 59.76-1.536 22.606 1.679 50.56 15.311 61.22 6.182 4.834 15.207 6.755 25.276 6.755 12.837-.001 27.368-3.125 39.843-7.319 6.75-2.269 15.736-5.804 25.718-11.068 20.667 30.674 50.255 49.668 77.567 49.668 27.587 0 57.984-19.886 78.46-51.006 10.601 5.975 20.151 9.969 27.2 12.492 12.732 4.559 27.613 8.014 40.533 8.014 9.325 0 17.628-1.8 23.362-6.283 13.677-10.696 16.058-39.261 13.725-62.427-1.378-13.681-5.51-36.725-17.731-61.251l46.429 21.572c4.249 1.975 8.726 2.937 13.148 2.937 7.96 0 15.743-3.117 21.706-9.063 9.324-9.296 11.777-23.042 6.253-35.02zm-325.566-110.637c0-39.967 32.515-72.483 72.483-72.483s72.483 32.515 72.483 72.483c0 1.466-.053 2.935-.14 4.4-33.958 5.965-61.151 19.787-72.343 26.141-11.192-6.355-38.384-20.178-72.341-26.142-.088-1.465-.142-2.933-.142-4.399zm74.124 149.297c4.636 12.827 11.313 26.724 20.941 40.371-6.788-1.154-13.689-1.742-20.664-1.742-7.003 0-13.91.59-20.694 1.743 9.478-13.609 15.974-27.51 20.417-40.372zm-222.078-15.719c-6.38 2.964-10.966-.886-12.22-2.136-1.272-1.268-5.189-5.91-2.197-12.397 22.924-49.702 54.494-80.739 93.832-92.248 12.334-3.609 24.72-5.081 36.722-5.081 33.385 0 63.791 11.39 81.822 19.884l-125.781 58.442c-.067.031-.134.061-.201.093zm110.755 99.467c-25.297 8.504-42.675 6.656-46.356 3.778-3.166-2.475-9.487-17.004-7.649-44.046 1.082-15.913 5.959-46.581 26.276-75.64l63.701-29.598-42.165 74.918c-1.632 2.898-.604 6.571 2.295 8.202.933.525 1.948.775 2.947.775 2.104 0 4.148-1.105 5.254-3.069l50.383-89.521 39.646-18.421c2.717 4.09 5.879 13.975 6.435 28.665-.033 2.294-.01 4.589.063 6.868-.049 2.765-.185 5.66-.43 8.695-1.372 16.952-7.154 49.839-30.455 79.637-23.301 29.797-53.824 43.338-69.945 48.757zm109.682 37.553c-20.168 0-43.645-15.612-60.353-39.965 9.877-6.75 20.021-15.196 29.476-25.708 10.554-3.287 21.537-4.956 32.795-4.956 11.257 0 22.297 1.692 32.906 5.005 8.628 9.553 17.771 17.426 26.718 23.88-16.62 25.116-40.946 41.744-61.542 41.744zm163.308-77.124c2.627 26.084-2.689 41.921-6.118 44.602s-20.079 4.023-44.762-4.816c-15.835-5.67-45.887-19.643-69.244-49.513-23.359-29.871-29.673-62.406-31.358-79.14-.307-3.049-.502-5.953-.608-8.718.036-2.429.016-4.877-.068-7.325.309-14.453 3.248-23.895 5.758-27.416l38.088 17.697 50.383 89.521c1.106 1.965 3.148 3.069 5.254 3.069 1 0 2.014-.25 2.947-.775 2.898-1.632 3.927-5.304 2.295-8.202l-42.165-74.918 58.553 27.206c23.097 29.757 29.368 62.069 31.045 78.728zm69.349-62.032c-1.253 1.251-5.842 5.101-12.22 2.136l-197.996-91.996c24.438-11.55 71.699-28.447 118.452-14.823 39.398 11.479 71.011 42.528 93.961 92.285 2.992 6.488-.924 11.13-2.197 12.398z"/><path d="m256 456.268c-5.543 0-10.037 4.494-10.037 10.037v35.264c0 5.543 4.494 10.037 10.037 10.037s10.037-4.494 10.037-10.037v-35.264c0-5.543-4.494-10.037-10.037-10.037z"/><path d="m203.636 442.907c-4.971-2.456-10.989-.414-13.444 4.555l-14.221 28.798c-2.454 4.97-.415 10.989 4.556 13.444 1.429.706 2.945 1.04 4.436 1.04 3.699 0 7.258-2.054 9.008-5.595l14.221-28.798c2.454-4.971.415-10.99-4.556-13.444z"/><path d="m321.808 447.462c-2.455-4.97-8.474-7.009-13.444-4.555-4.971 2.454-7.01 8.473-4.556 13.444l14.221 28.798c1.75 3.542 5.308 5.595 9.008 5.595 1.492 0 3.008-.335 4.436-1.04 4.97-2.454 7.01-8.473 4.556-13.444z"/><path d="m268.04 117.746c3.326 0 6.022-2.696 6.022-6.022v-11.041c0-3.326-2.697-6.022-6.022-6.022-3.326 0-6.022 2.696-6.022 6.022v11.041c0 3.325 2.697 6.022 6.022 6.022z"/><path d="m259.614 148.868v-11.041c0-3.326-2.697-6.022-6.022-6.022-3.326 0-6.022 2.696-6.022 6.022v11.041c0 3.326 2.697 6.022 6.022 6.022s6.022-2.696 6.022-6.022z"/><path d="m292.673 142.508c3.326 0 6.022-2.696 6.022-6.022v-11.041c0-3.326-2.696-6.022-6.022-6.022s-6.022 2.696-6.022 6.022v11.041c0 3.325 2.697 6.022 6.022 6.022z"/></g><g><g><path d="m232.828 398.139c-1.958 0-3.936-.571-5.672-1.763-.609-.418-1.216-.849-1.822-1.293-4.472-3.276-5.441-9.557-2.164-14.029 3.275-4.472 9.558-5.44 14.028-2.165.439.322.878.634 1.32.937 4.57 3.138 5.731 9.386 2.594 13.956-1.946 2.834-5.089 4.357-8.284 4.357z" fill="#fff"/></g><g><path d="m261.267 405.864c-4.797 0-9.039-3.449-9.88-8.337-.94-5.463 2.727-10.654 8.19-11.594 4.373-.752 9.179-2.862 13.898-6.102 4.567-3.137 10.817-1.978 13.956 2.593 3.138 4.57 1.976 10.818-2.593 13.955-7.191 4.938-14.545 8.079-21.857 9.337-.576.1-1.15.148-1.714.148z" fill="#fff"/></g></g></g><g><g><path d="m86.737 2.85-8.245 23.183c-.353.993-1.052 1.779-1.934 2.177l-20.597 9.28c-2.91 1.311-2.91 5.948 0 7.258l20.597 9.28c.882.397 1.581 1.184 1.934 2.177l8.245 23.183c1.165 3.275 5.284 3.275 6.449 0l8.245-23.183c.353-.993 1.052-1.779 1.934-2.177l20.597-9.28c2.91-1.311 2.91-5.947 0-7.258l-20.597-9.28c-.882-.397-1.581-1.184-1.934-2.177l-8.246-23.183c-1.164-3.276-5.284-3.276-6.448 0z" fill="#98e8f2"/></g><g><path d="m474.286 83.336-6.116 17.197c-.262.736-.78 1.32-1.434 1.615l-15.279 6.884c-2.158.973-2.158 4.412 0 5.384l15.279 6.884c.654.295 1.172.878 1.434 1.614l6.116 17.197c.864 2.429 3.919 2.429 4.784 0l6.116-17.197c.262-.736.78-1.32 1.434-1.614l15.279-6.884c2.158-.973 2.158-4.412 0-5.384l-15.279-6.884c-.654-.295-1.173-.878-1.434-1.615l-6.116-17.197c-.865-2.429-3.92-2.429-4.784 0z" fill="#98e8f2"/></g><g><path d="m368.437 46.615c0 9.943 8.06 18.003 18.003 18.003s18.003-8.06 18.003-18.003-8.06-18.003-18.003-18.003-18.003 8.06-18.003 18.003z" fill="#75b7f2"/></g><g><ellipse cx="53.778" cy="119.251" fill="#75b7f2" rx="7.528" ry="7.528" transform="matrix(.98 -.201 .201 .98 -22.879 13.248)"/></g></g></g></svg>