<svg id="Capa_1" enable-background="new 0 0 512 512" height="512" viewBox="0 0 512 512" width="512" xmlns="http://www.w3.org/2000/svg"><g><g><g><g><ellipse cx="261.533" cy="331.157" fill="#75b7f2" rx="105.094" ry="120.905"/></g><g><path d="m261.533 210.252c-3.793 0-7.538.237-11.227.688 38.123 5.458 67.625 42.864 67.625 88.2 0 49.091-34.592 88.887-77.263 88.887s-77.263-39.796-77.263-88.887c0-4.822.339-9.552.981-14.166-5.117 14.23-7.947 29.826-7.947 46.183 0 66.774 47.052 120.905 105.094 120.905s105.094-54.131 105.094-120.905-47.052-120.905-105.094-120.905z" fill="#8289f3"/></g><g><path d="m239.928 274.24c10.186 12.589 15.807 25.616 21.583 40.72 10.377-23.17 20.662-63.663 74.978-68.537-37.621-47.788-113.145-47.433-150.424.602 20.24 4.364 41.04 11.325 53.863 27.215z" fill="#98e8f2"/></g><g><path d="m314.576 46.116c6.301 0 10.785-6.238 8.658-12.17-4.992-13.92-18.304-23.878-33.942-23.878-11.168 0-21.148 5.08-27.76 13.053-6.612-7.974-16.592-13.053-27.76-13.053-15.638 0-28.95 9.958-33.942 23.878-2.127 5.931 2.357 12.17 8.658 12.17h9.153c13.795 0 24.546 11.959 23.082 25.676l-7.056 70.271h55.727l-7.043-70.275c-1.46-13.715 9.29-25.671 23.083-25.671h9.142z" fill="#75b7f2"/></g><g><path d="m371.259 239.813h-219.452c0-60.6 49.126-109.726 109.726-109.726s109.726 49.126 109.726 109.726z" fill="#75b7f2"/></g><g><path d="m261.533 130.087c-4.874 0-9.673.322-14.379.938 23.484 3.54 43.743 16.924 56.425 35.825 13.201 19.673-1.223 46.129-24.915 46.129h-123.546c-2.159 8.588-3.311 17.576-3.311 26.835h219.452c0-60.601-49.126-109.727-109.726-109.727z" fill="#8289f3"/></g></g><g fill="#4e0325"><path d="m405.83 276.35c21.494-8.043 35.936-28.867 35.936-51.816v-46.91l16.493-14.993c4.115-3.74 4.418-10.109.677-14.223-3.74-4.115-10.108-4.418-14.223-.677l-19.788 17.989c-2.099 1.908-3.296 4.614-3.296 7.45v51.364c0 14.596-9.185 27.84-22.856 32.956l-35.134 13.147c-3.341-7.302-7.283-14.257-11.794-20.754h19.415c5.56 0 10.069-4.508 10.069-10.069 0-53.391-35.112-98.73-83.456-114.154l-5.506-54.937c-.399-3.757.771-7.372 3.297-10.181s5.997-4.355 9.774-4.355h9.139c6.262 0 12.153-3.061 15.761-8.186 3.581-5.089 4.469-11.612 2.376-17.451-6.554-18.274-24.003-30.55-43.421-30.55-10.144 0-19.84 3.302-27.76 9.284-7.92-5.981-17.616-9.284-27.76-9.284-19.418 0-36.867 12.276-43.419 30.548-2.093 5.839-1.206 12.362 2.376 17.451 3.607 5.126 9.499 8.186 15.76 8.186h9.153c3.778 0 7.249 1.547 9.775 4.357 2.526 2.809 3.697 6.426 3.289 10.244l-5.509 54.872c-48.345 15.424-83.459 60.763-83.459 114.155 0 5.561 4.508 10.069 10.069 10.069h19.414c-4.51 6.497-8.452 13.453-11.792 20.754l-35.136-13.147c-13.671-5.116-22.856-18.36-22.856-32.956v-51.364c0-2.837-1.197-5.542-3.296-7.45l-19.789-17.989c-4.115-3.74-10.483-3.438-14.223.677s-3.438 10.482.677 14.223l16.493 14.994v46.91c0 22.95 14.441 43.773 35.936 51.816l35.143 13.15c-3.088 10.456-5.027 21.373-5.717 32.498l-39.433 9.733c-10.032 2.476-17.623 11.031-18.888 21.288l-2.567 20.821-10.701 5.097c-5.021 2.391-7.152 8.4-4.76 13.42 1.726 3.623 5.335 5.741 9.097 5.741 1.451 0 2.926-.315 4.323-.981l15.688-7.473c3.106-1.479 5.242-4.443 5.663-7.858l3.243-26.303c.25-2.025 1.748-3.713 3.728-4.202l34.767-8.581c1.403 18.183 6.08 35.314 13.365 50.616l-28.245 15.699c-11.361 6.314-16.033 20.523-10.636 32.347l20.064 43.959-12.035 8.329c-4.573 3.164-5.714 9.436-2.549 14.009 1.955 2.824 5.095 4.34 8.288 4.34 1.976 0 3.973-.581 5.721-1.79l18.964-13.124c4.009-2.775 5.454-8.024 3.43-12.46l-23.563-51.625c-1.065-2.334-.143-5.138 2.099-6.384l28.452-15.814c21.07 31.186 54.181 51.328 91.356 51.328s70.286-20.142 91.356-51.328l28.453 15.814c2.242 1.246 3.163 4.051 2.098 6.384l-23.562 51.625c-2.025 4.436-.579 9.685 3.43 12.46l18.963 13.124c1.749 1.21 3.745 1.79 5.722 1.79 3.193 0 6.333-1.516 8.288-4.34 3.165-4.572 2.024-10.845-2.549-14.009l-12.035-8.329 20.065-43.96c5.395-11.824.724-26.033-10.636-32.346l-28.246-15.7c7.286-15.303 11.962-32.433 13.365-50.616l34.767 8.581c1.981.489 3.479 2.177 3.729 4.202l3.243 26.304c.421 3.415 2.557 6.379 5.663 7.858l15.688 7.473c1.398.666 2.872.981 4.323.981 3.762 0 7.372-2.118 9.097-5.741 2.391-5.02.26-11.029-4.76-13.42l-10.701-5.098-2.567-20.82c-1.264-10.257-8.855-18.813-18.889-21.289l-39.433-9.733c-.69-11.126-2.629-22.043-5.716-32.497zm-144.345 21.795c-9.966-22.413-24.252-39.127-40.807-48.263h81.615c-16.556 9.136-30.843 25.851-40.808 48.263zm-19.092-251.067c-6.302-7.01-15.324-11.031-24.751-11.031h-7.828c4.026-9.572 13.484-15.91 23.958-15.91 7.756 0 15.05 3.43 20.009 9.411 1.913 2.307 4.754 3.641 7.751 3.641 2.996 0 5.838-1.335 7.75-3.641 4.961-5.981 12.254-9.412 20.01-9.412 10.475 0 19.932 6.339 23.959 15.91h-7.815c-9.426 0-18.445 4.02-24.748 11.028-6.302 7.009-9.344 16.404-8.353 25.716l4.835 48.247c-5.119-.67-10.338-1.021-15.638-1.021-5.298 0-10.515.35-15.633 1.02l4.837-48.178c1.001-9.372-2.041-18.769-8.343-25.78zm19.14 93.078c51.553 0 94.09 39.347 99.153 89.588h-198.305c5.062-50.241 47.598-89.588 99.152-89.588zm-95.025 191.001c0-28.781 9.67-56.416 26.735-77.016 26.274 1.282 49.936 24.785 62.249 62.035v125.586c-49.593-3.647-88.984-51.857-88.984-110.605zm101.066 110.606v-125.869c12.354-37.131 36.002-60.529 62.248-61.755 17.066 20.6 26.735 48.231 26.735 77.019.001 58.747-39.391 106.957-88.983 110.605z"/><path d="m305.656 311.418c-3.336 0-6.041 2.705-6.041 6.041v11.245c0 3.336 2.705 6.041 6.041 6.041s6.041-2.705 6.041-6.041v-11.245c0-3.336-2.705-6.041-6.041-6.041z"/><path d="m294.092 376.362c-3.336 0-6.041 2.705-6.041 6.041v11.245c0 3.336 2.705 6.041 6.041 6.041s6.041-2.705 6.041-6.041v-11.245c.001-3.336-2.704-6.041-6.041-6.041z"/><path d="m323.249 345.742c-3.336 0-6.041 2.705-6.041 6.041v11.245c0 3.336 2.705 6.041 6.041 6.041s6.041-2.705 6.041-6.041v-11.245c0-3.335-2.705-6.041-6.041-6.041z"/></g><g><g><path d="m255.106 173.27c-5.16 0-9.555-3.945-10.018-9.183-.49-5.539 3.604-10.427 9.143-10.916 2.415-.214 4.872-.322 7.301-.322 5.561 0 10.069 4.508 10.069 10.069s-4.508 10.069-10.069 10.069c-1.84 0-3.699.082-5.528.243-.3.027-.601.04-.898.04z" fill="#fff"/></g><g><path d="m204.224 201.528c-2.115 0-4.247-.664-6.064-2.037-4.436-3.354-5.314-9.668-1.961-14.104 4.658-6.162 10.156-11.633 16.341-16.26 4.452-3.332 10.762-2.422 14.094 2.03 3.331 4.452 2.423 10.762-2.03 14.094-4.67 3.495-8.822 7.626-12.34 12.28-1.98 2.618-4.993 3.997-8.04 3.997z" fill="#fff"/></g></g></g><g><g><path d="m459.721 6.692-8.271 23.256c-.354.996-1.055 1.785-1.94 2.183l-20.662 9.309c-2.919 1.315-2.919 5.966 0 7.282l20.662 9.309c.885.399 1.586 1.188 1.94 2.183l8.271 23.256c1.169 3.286 5.301 3.286 6.469 0l8.271-23.256c.354-.996 1.055-1.785 1.94-2.183l20.662-9.309c2.919-1.315 2.919-5.966 0-7.282l-20.662-9.309c-.885-.399-1.586-1.188-1.94-2.183l-8.271-23.256c-1.168-3.285-5.301-3.285-6.469 0z" fill="#98e8f2"/></g><g><path d="m122.555 57.459-6.135 17.251c-.263.739-.783 1.324-1.439 1.62l-15.327 6.905c-2.165.976-2.165 4.426 0 5.401l15.327 6.905c.656.296 1.176.881 1.439 1.619l6.135 17.251c.867 2.437 3.932 2.437 4.799 0l6.135-17.251c.263-.738.783-1.324 1.439-1.619l15.327-6.905c2.165-.976 2.165-4.426 0-5.401l-15.327-6.905c-.656-.296-1.176-.881-1.439-1.62l-6.135-17.251c-.867-2.437-3.933-2.437-4.799 0z" fill="#98e8f2"/></g><g><path d="m12.747 45.082c0 9.974 8.086 18.06 18.06 18.06s18.06-8.086 18.06-18.06c0-9.975-8.086-18.06-18.06-18.06s-18.06 8.086-18.06 18.06z" fill="#75b7f2"/></g><g><path d="m365.524 107.15c0 4.171 3.381 7.552 7.552 7.552s7.552-3.381 7.552-7.552-3.381-7.551-7.552-7.551c-4.171-.001-7.552 3.38-7.552 7.551z" fill="#75b7f2"/></g></g></g></svg>