<svg id="Capa_1" enable-background="new 0 0 512 512" height="512" viewBox="0 0 512 512" width="512" xmlns="http://www.w3.org/2000/svg"><g><g><g><g><path d="m292.535 251.065 7.379 135.155c1.375 25.194-18.683 46.377-43.914 46.377-25.231 0-45.289-21.183-43.914-46.377l7.379-135.155" fill="#c37777"/></g><g><path d="m281.042 262.134 5.058 92.639c.943 17.268-12.806 31.788-30.1 31.788-17.294 0-31.042-14.519-30.1-31.788l5.058-92.639" fill="#ba5677"/></g><g><path d="m218.767 212.501c-.39-2.178-.593-4.42-.593-6.71 0-20.891 16.935-37.826 37.826-37.826s37.826 16.935 37.826 37.826c0 2.257-.198 4.468-.577 6.617" fill="#c37777"/></g><g><g><g><path d="m242.561 267.129c-10.254 48.283-24.224 156.283-41.719 172.051-37.678 33.959-142.639 58.734-177.87 45.873s-4.298-172.528 170.156-253.291" fill="#ffddb6"/></g></g><g><path d="m193.129 231.761c-9.539 4.416-18.622 9.08-27.314 13.932v5.327c.599-.282 1.184-.571 1.786-.85l27.784 19.879c6.689 4.786 9.997 13.008 8.487 21.093-7.769 41.601-17.874 111.004-30.206 122.119-29.624 26.702-112.155 46.181-139.856 36.069-14.162-5.17-14.723-40.509 6.437-82.303-.43-.355-.818-.718-1.175-1.087-34.796 59.246-35.722 111.95-16.1 119.113 35.231 12.861 140.193-11.913 177.87-45.873 17.494-15.768 31.464-123.768 41.719-172.051z" fill="#ffa7b8"/></g><g><g><path d="m269.439 267.129c10.254 48.283 24.224 156.283 41.719 172.051 37.678 33.959 142.639 58.734 177.87 45.873s4.298-172.528-170.156-253.291" fill="#ffddb6"/></g></g><g><path d="m318.871 231.761-14.271 10.211c.016.061.033.121.049.181l1.198-.858c131.17 60.725 154.429 180.777 127.939 190.447s-105.409-8.958-133.739-34.491c-4.319-3.893-8.353-15.264-12.096-30.068 6.87 34.246 14.613 64.25 23.206 71.996 37.678 33.959 142.639 58.734 177.87 45.873 35.232-12.86 4.298-172.527-170.156-253.291z" fill="#ffa7b8"/></g></g><g><path d="m312.906 229.734-2.524-10.894-10.894-2.525-9.487-5.917-17.002 4.038-17.002-4.038-16.999 4.038-16.999-4.038-9.486 5.917-10.895 2.524-2.524 10.895-5.918 9.487 5.918 9.486 2.524 10.894 10.894 2.525 9.487 5.918 17.002-4.038 17.002 4.038 16.999-4.038 16.999 4.038 9.487-5.918 10.894-2.524 2.524-10.895 5.918-9.486z" fill="#fff2a5"/></g><g><ellipse cx="122.035" cy="389.588" fill="#fff2a5" rx="56.289" ry="46.242" transform="matrix(.59 -.808 .808 .59 -264.582 258.444)"/></g><g><ellipse cx="389.965" cy="389.588" fill="#fff2a5" rx="46.242" ry="56.289" transform="matrix(.808 -.59 .59 .808 -154.711 304.857)"/></g><g><ellipse cx="122.035" cy="389.588" fill="#c37777" rx="28.21" ry="23.175" transform="matrix(.59 -.808 .808 .59 -264.581 258.44)"/></g><g><ellipse cx="389.965" cy="389.588" fill="#c37777" rx="23.175" ry="28.21" transform="matrix(.808 -.59 .59 .808 -154.712 304.862)"/></g></g><g fill="#4e0325"><path d="m470.669 343.539c-22.925-33.44-64.913-79.854-136.265-115.488l29.229-38.17 24.33-9.265c5.21-1.984 7.826-7.816 5.842-13.026s-7.816-7.828-13.027-5.842l-27.01 10.285c-1.752.667-3.283 1.809-4.422 3.297l-29.922 39.075c-1.32-2.688-3.77-4.705-6.765-5.399l-8.764-2.031c.009-.394.026-.789.026-1.183 0-15.335-7.248-29-18.49-37.777 0-.017.002-.033.002-.049v-36.622c0-4.543 3.696-8.238 8.239-8.238s8.239 3.695 8.239 8.238c0 5.575 4.52 10.095 10.095 10.095s10.095-4.52 10.095-10.095c0-15.675-12.753-28.428-28.428-28.428s-28.428 12.753-28.428 28.428v27.43c-2.993-.587-6.082-.904-9.244-.904s-6.251.316-9.244.904v-27.43c0-15.675-12.753-28.428-28.428-28.428s-28.428 12.753-28.428 28.428c0 5.575 4.52 10.095 10.095 10.095s10.095-4.52 10.095-10.095c0-4.543 3.696-8.238 8.239-8.238s8.239 3.695 8.239 8.238v36.622c0 .017.002.033.002.049-11.241 8.778-18.49 22.443-18.49 37.777 0 .394.016.788.026 1.183l-8.765 2.03c-2.995.694-5.446 2.711-6.765 5.399l-29.922-39.075c-1.14-1.488-2.671-2.63-4.422-3.297l-27.01-10.285c-5.21-1.986-11.043.632-13.027 5.842-1.984 5.211.632 11.042 5.842 13.026l24.33 9.265 29.229 38.17c-71.352 35.634-113.34 82.048-136.265 115.488-27.182 39.65-42.602 82.64-41.25 114.999 1.068 25.541 12.631 33.517 19.429 35.999 7.438 2.716 17.459 4.054 29.348 4.054 18.053 0 40.412-3.086 64.577-9.121 40.445-10.102 75.646-26.099 94.165-42.789 4.062-3.661 7.713-10.021 11.141-18.834 9.84 9.36 23.052 14.847 37.258 14.847s27.418-5.487 37.258-14.847c3.428 8.813 7.079 15.173 11.141 18.834 18.519 16.691 53.72 32.687 94.165 42.789 24.168 6.037 46.523 9.121 64.577 9.121 11.887 0 21.911-1.339 29.349-4.054 6.797-2.481 18.36-10.458 19.428-35.999 1.352-32.359-14.068-75.349-41.249-114.998zm-187.256-141.953-10.414 2.473-14.669-3.484c-1.534-.364-3.132-.364-4.666 0l-14.665 3.484-10.411-2.473c2.032-13.303 13.551-23.527 27.413-23.527 13.861.001 25.38 10.224 27.412 23.527zm-75.753 33.49c.59-.944 1.018-1.98 1.27-3.064l1.102-4.76 4.76-1.102c1.084-.251 2.12-.68 3.065-1.27l5.246-3.272c.256-.122.504-.254.746-.395l12.816 3.045c1.534.364 3.133.364 4.667 0l14.665-3.484 14.669 3.484c1.534.364 3.131.364 4.665 0l12.902-3.064 5.911 3.688c.945.59 1.981 1.018 3.065 1.269l4.76 1.103 1.103 4.76c.251 1.084.68 2.119 1.269 3.063l2.585 4.145-2.585 4.144c-.59.945-1.018 1.981-1.27 3.065l-1.102 4.76-4.76 1.102c-1.084.251-2.12.68-3.065 1.27l-5.911 3.687-12.898-3.063c-1.534-.365-3.133-.365-4.667 0l-14.665 3.483-14.669-3.484c-.767-.182-1.55-.273-2.333-.273s-1.565.091-2.332.273l-12.902 3.064-5.911-3.687c-.945-.59-1.981-1.018-3.065-1.269l-4.76-1.103-1.103-4.76c-.251-1.084-.68-2.119-1.269-3.063l-2.585-4.144zm-13.576 196.605c-15.935 14.363-48.712 28.999-85.54 38.199-35.24 8.802-67.47 11.034-82.109 5.69-2.657-.97-5.724-6.978-6.18-17.876-.908-21.736 8.527-60.14 37.73-102.739 21.474-31.323 60.815-74.791 127.839-108.448l3.815 6.117 2.145 9.257c.87 3.754 3.802 6.685 7.556 7.555l9.256 2.145 8.06 5.028c2.288 1.427 5.055 1.878 7.676 1.257l6.064-1.44c-2.017 10.482-4.154 22.604-6.381 35.239-4.45 25.246-9.494 53.861-14.951 77.154-1.193 5.093-2.327 9.572-3.4 13.537-.007.022-.011.044-.018.066-6.194 22.873-10.312 28.132-11.562 29.259zm61.916-9.18c-12.705 0-24.133-7.006-29.967-18.081 5.868-22.578 11.441-52.809 17.865-89.251 2.435-13.818 4.763-27.018 6.917-37.982l2.855.678c1.534.364 3.132.364 4.666 0l2.849-.677c2.155 10.963 4.482 24.163 6.917 37.98 6.423 36.443 11.997 66.673 17.864 89.251-5.833 11.077-17.262 18.082-29.966 18.082zm235.746 35.193c-.456 10.898-3.523 16.906-6.179 17.876-14.643 5.346-46.871 3.112-82.11-5.69-36.828-9.199-69.605-23.836-85.54-38.199-1.251-1.127-5.37-6.389-11.566-29.273-.005-.016-.008-.033-.013-.05-1.073-3.966-2.207-8.446-3.401-13.54-5.458-23.293-10.501-51.908-14.951-77.154-2.227-12.635-4.364-24.757-6.381-35.239l6.063 1.44c.771.183 1.554.273 2.333.273 1.873 0 3.727-.522 5.343-1.53l8.06-5.028 9.256-2.144c3.755-.87 6.687-3.802 7.556-7.556l2.144-9.257 3.816-6.117c67.023 33.657 106.365 77.125 127.839 108.448 29.204 42.599 38.639 81.004 37.731 102.74z"/><path d="m158.796 339.232c-23.292-17.003-58.732-8.246-79.002 19.519-9.69 13.273-14.55 28.917-13.684 44.05.891 15.58 7.697 28.771 19.165 37.142 7.915 5.778 17.339 8.741 27.387 8.741 4.509 0 9.147-.597 13.827-1.805 14.677-3.786 28.097-13.182 37.786-26.455 20.27-27.766 17.811-64.188-5.479-81.192zm-4.304 74.05c-8.041 11.014-19.06 18.78-31.029 21.868-11.535 2.974-22.56 1.203-31.045-4.991-8.486-6.194-13.534-16.155-14.214-28.049-.706-12.341 3.333-25.202 11.373-36.216 10.907-14.94 26.95-23.279 41.735-23.279 7.353 0 14.395 2.063 20.34 6.403 17.897 13.064 19.17 41.893 2.84 64.264z"/><path d="m142.24 361.911c-6.492-4.738-14.729-6.146-23.192-3.962-8.032 2.072-15.355 7.187-20.623 14.403-5.268 7.215-7.908 15.75-7.434 24.03.499 8.728 4.348 16.143 10.839 20.882 4.564 3.332 9.943 4.92 15.487 4.92 10.266 0 21.093-5.45 28.328-15.36 11.141-15.262 9.613-35.409-3.405-44.913zm-6.379 37.77c-7.204 9.865-19.265 13.363-26.889 7.799-3.509-2.561-5.6-6.748-5.887-11.789-.314-5.488 1.505-11.24 5.123-16.196 3.619-4.956 8.542-8.442 13.865-9.815 1.577-.407 3.125-.608 4.619-.608 3.137 0 6.027.889 8.404 2.624 7.624 5.564 7.967 18.119.765 27.985z"/><path d="m353.204 339.232c-23.29 17.004-25.749 53.426-5.479 81.192 9.689 13.273 23.109 22.669 37.786 26.455 4.682 1.208 9.317 1.805 13.827 1.805 10.048 0 19.472-2.964 27.387-8.741 11.467-8.371 18.273-21.562 19.165-37.142.866-15.133-3.995-30.777-13.684-44.05-20.27-27.765-55.706-36.521-79.002-19.519zm80.592 62.877c-.68 11.894-5.728 21.855-14.214 28.049-8.484 6.193-19.511 7.967-31.045 4.991-11.969-3.088-22.989-10.854-31.029-21.868-16.33-22.371-15.058-51.2 2.839-64.265 5.946-4.34 12.985-6.403 20.34-6.403 14.785 0 30.829 8.341 41.735 23.279 8.041 11.016 12.08 23.877 11.374 36.217z"/><path d="m392.952 357.949c-8.464-2.186-16.7-.777-23.192 3.962-13.018 9.504-14.546 29.651-3.405 44.912 7.236 9.912 18.06 15.36 28.329 15.36 5.541 0 10.922-1.589 15.484-4.92 6.492-4.738 10.341-12.154 10.84-20.882.474-8.28-2.166-16.815-7.434-24.03-5.266-7.215-12.59-12.33-20.622-14.402zm15.963 37.742c-.288 5.041-2.379 9.228-5.888 11.789-7.621 5.564-19.685 2.068-26.888-7.799v.001c-7.202-9.866-6.858-22.42.765-27.985 3.507-2.562 8.131-3.279 13.023-2.017 5.323 1.373 10.246 4.859 13.865 9.815 3.618 4.956 5.437 10.708 5.123 16.196z"/><path d="m351.609 310.209c3.345 0 6.057-2.712 6.057-6.057v-11.104c0-3.345-2.712-6.057-6.057-6.057s-6.057 2.712-6.057 6.057v11.104c0 3.345 2.712 6.057 6.057 6.057z"/><path d="m324.805 307.185c-3.345 0-6.057 2.712-6.057 6.057v11.104c0 3.345 2.712 6.057 6.057 6.057s6.057-2.712 6.057-6.057v-11.104c0-3.345-2.712-6.057-6.057-6.057z"/></g><g><g><path d="m170.109 290.802c-.677 0-1.349-.067-2.007-.2-2.991-.463-5.741-2.259-7.31-5.116-2.685-4.886-.901-11.024 3.986-13.709 2.065-1.135 4.365-1.516 6.557-1.201 3.233.319 6.254 2.191 7.908 5.268 2.64 4.91.799 11.031-4.111 13.672-1.609.865-3.33 1.286-5.023 1.286z" fill="#fff"/></g><g><path d="m131.236 317.56c-2.761 0-5.512-1.126-7.506-3.341-3.729-4.143-3.394-10.527.749-14.257 3.215-2.894 7.169-6.082 11.751-9.475 4.481-3.318 10.803-2.375 14.121 2.106 3.317 4.481 2.375 10.802-2.106 14.12-4.011 2.97-7.558 5.824-10.259 8.255-1.929 1.737-4.344 2.592-6.75 2.592z" fill="#fff"/></g></g></g><g><g><path d="m391.683 15.881-8.292 23.317c-.355.998-1.058 1.79-1.945 2.189l-20.716 9.333c-2.927 1.319-2.927 5.982 0 7.3l20.716 9.333c.887.4 1.59 1.191 1.945 2.189l8.292 23.317c1.172 3.294 5.315 3.294 6.486 0l8.292-23.317c.355-.998 1.058-1.789 1.945-2.189l20.716-9.333c2.927-1.319 2.927-5.982 0-7.3l-20.716-9.333c-.887-.4-1.59-1.191-1.945-2.189l-8.292-23.317c-1.172-3.294-5.315-3.294-6.486 0z" fill="#ffc8b7"/></g><g><path d="m68.204 90.711-6.151 17.296c-.263.741-.785 1.327-1.443 1.624l-15.367 6.923c-2.171.978-2.171 4.437 0 5.415l15.367 6.923c.658.296 1.179.883 1.443 1.624l6.151 17.296c.869 2.443 3.942 2.443 4.811 0l6.151-17.296c.263-.741.785-1.327 1.443-1.624l15.367-6.923c2.171-.978 2.171-4.437 0-5.415l-15.367-6.923c-.658-.297-1.179-.883-1.443-1.624l-6.151-17.296c-.869-2.443-3.942-2.443-4.811 0z" fill="#ffc8b7"/></g><g><path d="m461.725 196.991c0 10 8.107 18.107 18.107 18.107s18.107-8.107 18.107-18.107-8.107-18.107-18.107-18.107-18.107 8.107-18.107 18.107z" fill="#ffa785"/></g><g><ellipse cx="157.695" cy="61.942" fill="#ffa785" rx="7.571" ry="7.571" transform="matrix(.707 -.707 .707 .707 2.388 129.65)"/></g></g></g></svg>