<svg id="Capa_1" enable-background="new 0 0 512 512" height="512" viewBox="0 0 512 512" width="512" xmlns="http://www.w3.org/2000/svg"><g><g><g><g><circle cx="229.482" cy="281.018" fill="#ad84e6" r="108.751"/></g><g><path d="m306.38 204.12c-24.244-24.244-57.085-34.64-88.71-31.205 18.57 2.233 36.559 10.451 50.81 24.703 33.8 33.8 33.8 88.6 0 122.4s-88.6 33.8-122.4 0c-14.252-14.252-22.47-32.24-24.703-50.81-3.436 31.624 6.961 64.466 31.205 88.71 42.47 42.47 111.327 42.47 153.797 0 42.471-42.471 42.471-111.328.001-153.798z" fill="#a862e6"/></g><g><circle cx="342.191" cy="168.309" fill="#ad84e6" r="43.435"/></g><g><path d="m372.904 137.595c-10.611-10.611-25.346-14.583-39.045-11.919 4.894 1.187 9.533 3.69 13.354 7.511 11.085 11.085 11.085 29.058 0 40.143s-29.058 11.085-40.144 0c-3.821-3.821-6.324-8.461-7.511-13.354-2.664 13.699 1.308 28.434 11.919 39.045 16.962 16.962 44.464 16.962 61.426 0 16.964-16.962 16.964-44.463.001-61.426z" fill="#a862e6"/></g><g><path d="m293.979 262.857-46.336-46.336c-4.134-4.134-11.192-2.242-12.705 3.404l-11.061 41.283c-.828 3.09-3.504 5.33-6.692 5.601l-21.264 1.808c-.523.044-1.045.129-1.544.29-10.492 3.385-13.851 16.79-5.925 24.716l28.423 28.423c7.927 7.927 21.332 4.567 24.717-5.925.161-.499.246-1.021.29-1.544l1.808-21.264c.271-3.188 2.511-5.864 5.601-6.692l41.283-11.062c5.647-1.51 7.538-8.568 3.405-12.702z" fill="#ff8cc0"/></g></g><g fill="#4e0325"><path d="m510.188 248.155c-1.475-5.339-7.003-8.468-12.337-6.995l-77.409 21.389-69.556-41.49c2.162-.352 4.291-.831 6.377-1.441 1.161.611 2.46 1.004 3.849 1.118l81.756 6.704c.275.023.549.033.823.033 3.722 0 7.17-2.071 8.902-5.417l43.578-84.145c2.547-4.918.625-10.969-4.293-13.517-4.915-2.546-10.969-.626-13.517 4.293l-40.508 78.216-54.519-4.47c17.429-20.982 16.322-52.269-3.339-71.931-10.098-10.098-23.523-15.659-37.804-15.659-12.32 0-23.998 4.148-33.459 11.768l-4.362-53.192 78.216-40.507c4.918-2.547 6.841-8.598 4.293-13.517-2.547-4.919-8.601-6.84-13.517-4.293l-84.145 43.578c-3.591 1.86-5.713 5.694-5.383 9.725l6.704 81.756c.072.878.263 1.715.542 2.508-.658 2.163-1.169 4.36-1.547 6.576l-40.808-68.414 21.388-77.408c1.475-5.338-1.657-10.862-6.995-12.337-5.332-1.476-10.862 1.657-12.337 6.995l-22.529 81.537c-.729 2.637-.349 5.458 1.054 7.808l43.503 72.933c-3.537-1.384-7.144-2.596-10.808-3.633l-110.986-117.306c-3.807-4.024-10.153-4.199-14.177-.393-4.023 3.807-4.198 10.154-.392 14.177l92.984 98.279-121.674-25.789c-3.64-.774-7.399.533-9.779 3.385l-95.648 114.628c-3.549 4.252-2.978 10.576 1.274 14.125 1.876 1.565 4.154 2.329 6.42 2.329 2.87 0 5.721-1.227 7.704-3.604l91.779-109.989 72.722 15.414c-13.539 5.871-25.988 14.299-36.737 25.048-22.434 22.434-34.79 52.262-34.79 83.989s12.355 61.556 34.79 83.989c22.434 22.435 52.263 34.79 83.989 34.79 31.727 0 61.556-12.355 83.99-34.79 11.001-11.002 19.572-23.786 25.458-37.697l15.782 74.459-109.991 91.778c-4.252 3.549-4.823 9.873-1.274 14.125 1.983 2.377 4.834 3.604 7.704 3.603 2.266 0 4.544-.763 6.421-2.328l114.628-95.648c2.853-2.381 4.155-6.144 3.385-9.779l-25.789-121.672 98.278 92.982c1.939 1.834 4.417 2.744 6.891 2.744 2.66 0 5.315-1.052 7.286-3.136 3.807-4.023 3.631-10.37-.392-14.177l-118.07-111.708c-1-3.541-2.159-7.029-3.484-10.453l73.544 43.869c1.568.935 3.345 1.416 5.138 1.416.895 0 1.793-.12 2.671-.362l81.538-22.53c5.337-1.477 8.469-7 6.994-12.339zm-167.996-113.253c8.923 0 17.312 3.475 23.621 9.784 13.025 13.026 13.025 34.219 0 47.245-6.31 6.309-14.699 9.784-23.621 9.784-8.924 0-17.312-3.475-23.622-9.784-13.025-13.025-13.025-34.219 0-47.244 6.309-6.31 14.698-9.785 23.622-9.785zm-42.904 215.924c-18.645 18.646-43.437 28.916-69.807 28.916-26.369 0-51.161-10.269-69.806-28.916-18.646-18.646-28.916-43.438-28.916-69.807 0-26.37 10.269-51.161 28.916-69.807 18.645-18.646 43.437-28.915 69.806-28.915 7.813 0 15.484.908 22.901 2.662 1.371.722 2.875 1.103 4.39 1.145 15.911 4.55 30.493 13.084 42.517 25.108 18.646 18.646 28.916 43.437 28.916 69.807-.001 26.369-10.27 51.161-28.917 69.807z"/><path d="m251.897 212.266c-3.479-3.479-8.393-4.796-13.146-3.523-4.753 1.274-8.351 4.872-9.625 9.625l-11.061 41.282c-.172.64-.73 1.108-1.391 1.164l-21.265 1.808c-1.05.09-1.993.273-2.879.56-6.968 2.248-12.156 7.856-13.88 15.003-1.722 7.137.353 14.499 5.548 19.694l28.422 28.423c3.993 3.992 9.263 6.141 14.73 6.14 1.646 0 3.312-.195 4.964-.593 7.147-1.724 12.756-6.913 15.005-13.884.287-.892.469-1.834.557-2.876l1.809-21.264c.056-.66.524-1.219 1.163-1.39l41.283-11.061c4.753-1.274 8.351-4.871 9.625-9.624 1.273-4.753-.044-9.668-3.524-13.147zm38.235 56.369c-.107.402-.388.921-1.115 1.116l-41.282 11.061c-5.521 1.479-9.555 6.298-10.04 11.993l-1.809 21.268c-.012.14-.025.21-.023.21 0 0 0-.001.001-.001-.952 2.942-3.333 5.137-6.37 5.869-3.078.741-6.123-.118-8.364-2.358l-28.423-28.423c-2.24-2.24-3.1-5.288-2.357-8.363.733-3.04 2.929-5.422 5.843-6.363.003-.001.072-.017.239-.031l21.263-1.808c5.694-.484 10.514-4.518 11.995-10.04l11.061-41.283c.195-.727.714-1.008 1.115-1.115.131-.035.281-.06.443-.06.336 0 .722.11 1.081.469l46.336 46.336c.53.532.513 1.122.406 1.523z"/></g><g><g><path d="m203.459 226.656c-3.979 0-7.745-2.384-9.313-6.304-2.058-5.142.443-10.979 5.584-13.037.51-.204 1.022-.403 1.536-.596 5.182-1.952 10.967.667 12.919 5.85s-.667 10.967-5.85 12.92c-.384.144-.769.294-1.152.447-1.222.489-2.483.72-3.724.72z" fill="#fff"/></g><g><path d="m166.609 261.228c-1.443 0-2.907-.312-4.295-.973-5.003-2.376-7.132-8.358-4.757-13.361 3.297-6.942 7.588-13.357 12.752-19.068 3.717-4.107 10.057-4.426 14.165-.711 4.107 3.715 4.426 10.056.711 14.164-3.853 4.26-7.052 9.044-9.51 14.22-1.717 3.614-5.315 5.729-9.066 5.729z" fill="#fff"/></g></g></g><g><g><path d="m472.627 7.752-8.238 23.163c-.353.992-1.051 1.778-1.932 2.175l-20.579 9.272c-2.907 1.31-2.907 5.942 0 7.252l20.579 9.272c.881.397 1.579 1.183 1.932 2.175l8.238 23.163c1.164 3.272 5.279 3.272 6.443 0l8.238-23.163c.353-.992 1.051-1.778 1.932-2.175l20.579-9.272c2.907-1.31 2.907-5.942 0-7.252l-20.579-9.272c-.881-.397-1.579-1.183-1.932-2.175l-8.238-23.163c-1.163-3.273-5.279-3.273-6.443 0z" fill="#d3b5f2"/></g><g><path d="m426.778 423.837-6.111 17.182c-.262.736-.78 1.319-1.433 1.613l-15.266 6.878c-2.157.972-2.157 4.408 0 5.38l15.266 6.878c.654.294 1.172.878 1.433 1.613l6.111 17.182c.863 2.427 3.916 2.427 4.779 0l6.111-17.182c.262-.736.78-1.319 1.433-1.613l15.265-6.878c2.156-.972 2.156-4.408 0-5.38l-15.265-6.878c-.654-.294-1.172-.878-1.433-1.613l-6.111-17.182c-.863-2.427-3.916-2.427-4.779 0z" fill="#d3b5f2"/></g><g><path d="m51.318 74.246c0 9.934 8.053 17.987 17.987 17.987s17.987-8.053 17.987-17.987-8.053-17.987-17.987-17.988c-9.934.001-17.987 8.054-17.987 17.988z" fill="#ad84e6"/></g><g><ellipse cx="395.076" cy="71.985" fill="#ad84e6" rx="7.521" ry="7.521" transform="matrix(.707 -.707 .707 .707 64.814 300.445)"/></g></g></g></svg>