<svg id="Capa_1" enable-background="new 0 0 512 512" height="512" viewBox="0 0 512 512" width="512" xmlns="http://www.w3.org/2000/svg"><g><g><g><g><path d="m338.888 286.631c18.599 1.53 27.804-22.026 13.088-33.502-73.352-57.207-230.055-177.295-258.71-118.99-28.954 58.913 152.57 144.838 245.622 152.492z" fill="#a6aff4"/></g><g><path d="m252.333 350.13-156.89 22.777c-14.265 2.071-27.507-7.814-29.578-22.079-1.803-12.42 5.489-24.365 17.361-28.437l152.598-52.337c15.467-5.305 31.946 4.756 34.296 20.938l4.292 29.561c2.071 14.264-7.814 27.507-22.079 29.577z" fill="#98e8f2"/></g><g><path d="m252.333 350.13-156.89 22.777c-14.265 2.071-27.507-7.814-29.578-22.079-1.803-12.42 5.489-24.365 17.361-28.437l152.598-52.337c15.467-5.305 31.946 4.756 34.296 20.938l4.292 29.561c2.071 14.264-7.814 27.507-22.079 29.577z" fill="#e79d8e"/></g><g><path d="m274.412 320.553-4.292-29.561c-2.349-16.181-18.829-26.242-34.296-20.938l-47.214 16.193c1.19 1.878 2.034 4.028 2.378 6.399l2.692 18.542c1.299 8.948-4.901 17.254-13.849 18.553l-98.411 14.287c-5.592.812-10.933-1.306-14.47-5.192-1.256 3.763-1.687 7.847-1.085 11.991 2.071 14.265 15.313 24.15 29.578 22.079l156.89-22.777c14.265-2.069 24.15-15.312 22.079-29.576z" fill="#df768f"/></g><g><path d="m332.702 364.016h-49.507c-29.913 0-54.162-24.249-54.162-54.162v-17.919c0-29.913 24.249-54.162 54.162-54.162h49.507c29.913 0 54.162 24.249 54.162 54.162v17.919c0 29.912-24.249 54.162-54.162 54.162z" fill="#c37777"/></g><g><path d="m332.702 237.772h-35.402c19.698 0 35.667 15.968 35.667 35.666v11.8c0 19.698-15.968 35.667-35.667 35.667h-32.6c-18.677 0-33.99-14.358-35.529-32.636-.081 1.213-.137 2.432-.137 3.665v17.919c0 29.913 24.249 54.162 54.162 54.162h49.507c29.913 0 54.162-24.249 54.162-54.162v-17.919c-.001-29.913-24.25-54.162-54.163-54.162z" fill="#ba5677"/></g><g><ellipse cx="405.222" cy="309.598" fill="#e79d8e" rx="56.186" ry="56.186" transform="matrix(.23 -.973 .973 .23 10.805 632.849)"/></g><g><path d="m285.125 287.767c18.446-2.831 21.93-27.88 4.952-35.626-84.631-38.611-264.936-119.031-279.269-55.666-14.483 64.026 182.03 105.454 274.317 91.292z" fill="#98e8f2"/></g></g><g fill="#4e0325"><path d="m507.058 433.303-51.565-80.626c9.948-11.593 15.98-26.64 15.98-43.079 0-36.532-29.721-66.252-66.252-66.252-8.968 0-17.521 1.8-25.329 5.043-11.486-12.468-27.258-19.832-44.234-20.6-87.801-67.247-179.112-128.817-226.084-118.027-11.463 2.633-20.226 9.527-25.342 19.937-3.933 8.003-6.771 20.449-.072 36.31-26.436-4.639-48.326-4.378-63.15 2.969-10.538 5.223-17.461 13.964-20.02 25.276-2.242 9.911-1.765 25.104 13.237 41.197 28.146 30.194 90.035 46.676 124.421 53.814 2.126.441 4.257.868 6.393 1.284l-65.079 22.321c-16.436 5.637-26.554 22.209-24.058 39.404 1.388 9.56 6.416 18.007 14.157 23.786 6.314 4.714 13.817 7.191 21.557 7.191 1.749 0 3.51-.127 5.272-.382l114.415-16.61-51.905 31.58c-2.067 1.258-3.613 3.218-4.352 5.522l-18.654 58.102-21.802 8.402c-5.187 1.999-7.772 7.825-5.773 13.012 1.54 3.998 5.353 6.45 9.395 6.45 1.203-.001 2.427-.218 3.617-.676l26.295-10.133c2.841-1.095 5.034-3.416 5.965-6.315l18.979-59.115 71.991-43.801-13.388 55.418c-.187.774-.282 1.567-.282 2.364v46.151l-11.411 6.088c-4.905 2.617-6.759 8.715-4.142 13.62 1.812 3.396 5.292 5.33 8.89 5.329 1.598 0 3.221-.382 4.73-1.187l16.738-8.931c3.279-1.75 5.327-5.164 5.327-8.881v-50.991l13.712-56.76c5.704 1.664 11.727 2.574 17.962 2.574h49.507c3.243 0 6.448-.248 9.6-.717l33.064 37.329 6.696 64.537c.391 3.765 2.861 6.993 6.393 8.354l26.295 10.133c1.19.458 2.414.676 3.617.676 4.042 0 7.855-2.452 9.395-6.449 1.999-5.187-.586-11.013-5.773-13.012l-20.539-7.915-6.393-61.617c-.217-2.091-1.083-4.062-2.477-5.636l-29.505-33.311c1.457-.785 2.888-1.629 4.291-2.531 10.74 7.507 23.788 11.928 37.856 11.928 12.776 0 24.712-3.645 34.841-9.935l50.035 78.234c1.921 3.004 5.17 4.644 8.489 4.644 1.856 0 3.734-.513 5.414-1.587 4.682-2.995 6.051-9.22 3.055-13.903zm-402.006-270.392c-5.304-9.35-6.204-17.31-2.752-24.333 2.453-4.991 6.196-7.913 11.782-9.195 2.074-.476 4.527-.765 7.433-.765 16.025 0 45.755 8.784 100.682 43.306 27.503 17.286 56.085 37.809 80.097 55.783h-19.099c-5.95 0-11.806.822-17.47 2.422-54.216-24.097-108.878-46.233-154.415-58.113-2.449-3.061-4.554-6.101-6.258-9.105zm-76.099 58.813c-7.33-7.863-10.054-15.396-8.327-23.028 1.227-5.424 4.19-9.135 9.325-11.68 4.638-2.299 11.734-4.042 22.588-4.042 18.204 0 46.979 4.905 92.449 20.316 40.728 13.804 84.622 32.689 115.786 46.634.038.018.077.033.115.051 9.745 4.361 18.254 8.242 25.009 11.324 5.481 2.501 5.226 7.605 5.017 9.11-.209 1.507-1.355 6.494-7.317 7.409-74.035 11.362-216.143-14.79-254.645-56.094zm65.044 141.221c-4.237.614-8.462-.457-11.894-3.019s-5.661-6.306-6.277-10.545c-1.106-7.623 3.379-14.97 10.666-17.469l100.948-34.622c.112-.038.216-.089.326-.13 10.587 1.224 21.047 2.132 31.201 2.699v9.995c0 12.298 3.48 23.795 9.498 33.57zm189.198-8.995c-24.315 0-44.096-19.781-44.096-44.096v-9.312c1.577.018 3.152.035 4.706.035 15.776 0 30.326-.939 42.847-2.86 12.91-1.981 22.41-11.614 24.204-24.541 1.37-9.871-2.122-19.107-9.135-25.338h30.982c11.069 0 21.515 4.084 29.565 11.381-14.242 12.161-23.297 30.228-23.297 50.38 0 14.915 4.958 28.693 13.308 39.778-6.038 3.003-12.683 4.573-19.575 4.573zm75.906-44.352c0-25.431 20.69-46.121 46.121-46.121s46.12 20.69 46.12 46.121-20.689 46.12-46.12 46.12c-25.431.001-46.121-20.689-46.121-46.12z"/><path d="m407.76 298.254c-9.18 0-16.649 7.468-16.649 16.649 0 3.335 2.704 6.04 6.04 6.04 3.335 0 6.04-2.704 6.04-6.04 0-2.519 2.05-4.569 4.57-4.569s4.57 2.05 4.57 4.569c0 3.335 2.704 6.04 6.04 6.04s6.04-2.704 6.04-6.04c-.002-9.18-7.471-16.649-16.651-16.649z"/><path d="m318.683 317.503c-3.335 0-6.039 2.704-6.039 6.04v11.073c0 3.335 2.704 6.039 6.039 6.039s6.04-2.704 6.04-6.039v-11.073c-.001-3.335-2.705-6.04-6.04-6.04z"/><path d="m285.592 309.329c-3.335 0-6.039 2.704-6.039 6.04v11.072c0 3.335 2.704 6.04 6.039 6.04s6.04-2.704 6.04-6.04v-11.072c0-3.336-2.704-6.04-6.04-6.04z"/></g><g><g><path d="m80.607 222.684c-.228 0-.458-.008-.689-.024-1.702-.115-3.357-.181-4.919-.197-5.559-.057-10.019-4.609-9.962-10.169.057-5.524 4.552-9.963 10.063-9.963.035 0 .07 0 .105.001 1.943.02 3.986.101 6.069.242 5.547.375 9.74 5.175 9.365 10.721-.359 5.317-4.783 9.389-10.032 9.389z" fill="#fff"/></g><g><path d="m157.351 242.345c-1.145 0-2.309-.197-3.446-.612-13.045-4.755-25.088-8.684-35.794-11.677-5.354-1.497-8.481-7.051-6.984-12.405s7.048-8.481 12.405-6.984c11.202 3.132 23.74 7.22 37.269 12.152 5.223 1.904 7.914 7.682 6.01 12.904-1.491 4.086-5.35 6.622-9.46 6.622z" fill="#fff"/></g></g></g><g><g><path d="m472.479 129.272-8.269 23.25c-.354.995-1.055 1.784-1.939 2.183l-20.657 9.307c-2.918 1.315-2.918 5.965 0 7.279l20.657 9.307c.884.398 1.585 1.187 1.939 2.183l8.269 23.25c1.168 3.285 5.299 3.285 6.467 0l8.268-23.25c.354-.995 1.055-1.784 1.939-2.183l20.657-9.307c2.918-1.315 2.918-5.965 0-7.279l-20.657-9.307c-.884-.398-1.585-1.187-1.939-2.183l-8.268-23.25c-1.167-3.284-5.299-3.284-6.467 0z" fill="#ffc8b7"/></g><g><path d="m199.718 15.571-6.134 17.246c-.263.738-.782 1.324-1.438 1.619l-15.323 6.903c-2.165.975-2.165 4.424 0 5.4l15.323 6.903c.656.295 1.176.881 1.438 1.619l6.134 17.247c.866 2.436 3.931 2.436 4.797 0l6.134-17.247c.263-.738.782-1.324 1.439-1.619l15.323-6.903c2.165-.975 2.165-4.424 0-5.4l-15.323-6.903c-.656-.296-1.176-.881-1.439-1.619l-6.134-17.246c-.867-2.437-3.931-2.437-4.797 0z" fill="#ffc8b7"/></g><g><path d="m301.072 110.967c0 9.971 8.083 18.055 18.055 18.055 9.971 0 18.055-8.083 18.055-18.055s-8.083-18.055-18.055-18.055-18.055 8.083-18.055 18.055z" fill="#ffa785"/></g><g><path d="m410.82 55.141c0 4.169 3.38 7.549 7.549 7.549s7.55-3.38 7.55-7.549-3.38-7.549-7.55-7.549-7.549 3.38-7.549 7.549z" fill="#ffa785"/></g></g></g></svg>