<svg id="Capa_1" enable-background="new 0 0 512 512" height="512" viewBox="0 0 512 512" width="512" xmlns="http://www.w3.org/2000/svg"><g><g><g><g><g><path d="m197.883 224.28-21.25-53.026c-5.191-12.954-17.01-22.145-30.845-23.984-13.835-1.84-27.644 3.943-36.041 15.09l-30.642 40.683c-.758 1.006-1.643 1.88-2.612 2.627v2.031c11.427 5.686 22.849 11.38 34.177 17.256l29.748-39.496c.078-.103.121-.137.122-.137.066-.019.294.011.384.066 0 .005.028.053.066.146l16.432 41.002h41.193c-.201-.756-.433-1.511-.732-2.258z" fill="#e79d8e"/></g><g><path d="m146.986 221.798-46.64-32.985c-11.394-8.058-26.309-9.357-38.925-3.388-12.616 5.968-21.071 18.323-22.068 32.244l-3.636 50.802c-.033.465-.097.923-.176 1.376h38.574l3.538-49.437c.009-.129.028-.18.028-.181.045-.052.253-.15.358-.153.003.005.053.029.135.087l46.64 32.985c8.658 6.122 20.639 4.068 26.761-4.59 6.122-8.656 4.068-20.637-4.589-26.76z" fill="#e79d8e"/></g><g><path d="m29.328 408.201c3.135 0 6.314-.769 9.253-2.39l10.042-5.538c20.197-11.136 30.837-34.646 25.873-57.17l-10.961-49.738c-.028-.126-.025-.181-.025-.181.029-.062.2-.216.3-.249.004.004.059.013.154.046l54.094 18.36c10.041 3.408 20.944-1.969 24.351-12.01 3.408-10.041-1.969-20.943-12.01-24.351l-54.094-18.36c-13.215-4.486-27.884-1.489-38.281 7.821-10.396 9.309-14.989 23.559-11.986 37.188l10.961 49.738c1.327 6.02-1.517 12.304-6.916 15.281l-10.042 5.538c-9.286 5.12-12.662 16.798-7.542 26.083 3.499 6.346 10.061 9.932 16.829 9.932z" fill="#e79d8e"/></g></g><g><path d="m358.645 288.398c-4.825 9.107-15.526 13.967-21.992 21.34-6.749 7.696-10.271 18.889-18.362 24.538-8.349 5.829-20.088 5.205-29.374 8.681-9.486 3.551-17.991 11.682-27.926 12.593-9.991.915-19.767-5.542-29.672-7.487-9.683-1.902-21.198.434-30.287-4.382s-13.624-15.655-20.636-22.599c-7.173-7.103-18.006-11.565-22.859-20.346-4.827-8.732-2.876-20.336-5.265-30.178-.872-3.594-2.409-7.15-3.985-10.724-2.65-6.009-5.414-12.071-5.33-18.455.13-9.866 7.413-19.067 9.99-28.972 2.469-9.491.48-21.074 5.305-30.181 4.825-9.108 15.526-13.967 21.992-21.34 6.749-7.695 10.271-18.889 18.362-24.538 8.349-5.829 20.088-5.204 29.374-8.681 9.485-3.551 17.991-11.682 27.926-12.592 9.991-.915 19.767 5.542 29.672 7.487 9.683 1.902 21.198-.434 30.288 4.382 9.089 4.816 13.624 15.655 20.636 22.599 7.173 7.103 18.006 11.566 22.86 20.346 4.827 8.732 2.876 20.335 5.265 30.178 2.339 9.635 9.449 18.997 9.315 29.179-.129 9.866-7.413 19.067-9.99 28.973-2.471 9.488-.482 21.071-5.307 30.179z" fill="#c37777"/></g><g><path d="m364.624 200.064c-2.389-9.842-.438-21.446-5.265-30.178-4.854-8.78-15.687-13.243-22.859-20.346-7.012-6.944-11.547-17.783-20.636-22.599-9.09-4.816-20.604-2.48-30.288-4.382-9.905-1.945-19.681-8.402-29.672-7.487-4.966.455-9.574 2.714-14.126 5.303 6.354.916 13.655-.302 19.494 2.791 6.22 3.295 9.323 10.713 14.121 15.464 4.908 4.86 12.321 7.914 15.642 13.922 3.303 5.975 1.968 13.915 3.603 20.65 1.6 6.593 6.465 12.999 6.374 19.967-.089 6.751-5.072 13.047-6.835 19.825-1.689 6.494-.328 14.42-3.63 20.653-3.302 6.232-10.624 9.557-15.049 14.602-4.618 5.266-7.028 12.926-12.565 16.791-5.713 3.989-13.746 3.561-20.1 5.94-6.491 2.43-12.311 7.994-19.109 8.617-6.837.626-13.526-3.792-20.304-5.123-6.626-1.301-14.505.297-20.725-2.998s-9.323-10.712-14.121-15.464c-4.908-4.86-12.321-7.914-15.643-13.922-3.249-5.878-2.016-13.655-3.531-20.318-2.971 6.514-6.357 12.907-6.445 19.606-.084 6.384 2.68 12.446 5.33 18.455 1.576 3.575 3.113 7.13 3.985 10.724 2.389 9.842.438 21.447 5.265 30.178 4.854 8.78 15.687 13.243 22.86 20.346 7.012 6.944 11.547 17.783 20.636 22.599 9.09 4.816 20.604 2.48 30.288 4.382 9.905 1.945 19.681 8.402 29.672 7.487 9.935-.91 18.44-9.042 27.926-12.592 9.286-3.476 21.025-2.852 29.374-8.681 8.091-5.649 11.613-16.842 18.362-24.538 6.466-7.373 17.167-12.232 21.992-21.34s2.837-20.691 5.305-30.182c2.577-9.906 9.86-19.106 9.99-28.972.133-10.182-6.976-19.545-9.316-29.18z" fill="#ba5677"/></g><g><g><path d="m272.973 472.55c-5.506.91-11.359-.577-15.864-4.563-34.705-30.71-36.267-97.823-36.331-105.375-.09-10.602 8.424-19.271 19.036-19.36 10.595-.09 19.258 8.42 19.36 19.012.162 14.743 4.805 60.53 23.38 76.967 7.94 7.026 8.682 19.16 1.655 27.101-3.039 3.436-7.037 5.524-11.236 6.218z" fill="#e79d8e"/></g><g><path d="m81.928 457.639c5.399 1.41 11.364.467 16.215-3.09 37.373-27.401 45.077-94.089 45.832-101.603 1.061-10.549-6.623-19.962-17.182-21.023-10.542-1.06-19.949 6.62-21.021 17.158-1.512 14.667-10.331 59.836-30.334 74.501-8.551 6.269-10.401 18.284-4.131 26.836 2.713 3.7 6.502 6.145 10.621 7.221z" fill="#e79d8e"/></g></g><g><g><path d="m500.681 258.94c-3.72-9.929-14.786-14.962-24.715-11.242l-10.739 4.023c-5.773 2.163-12.395.235-16.104-4.689l-30.642-40.684c-8.397-11.148-22.206-16.93-36.041-15.09-13.834 1.839-25.654 11.03-30.845 23.984l-21.25 53.026c-.299.746-.531 1.502-.732 2.26h41.193l16.431-41.002c.037-.094.066-.141.066-.147.09-.055.318-.085.384-.066 0 0 .044.034.122.137l30.641 40.683c13.876 18.423 38.651 25.638 60.249 17.545l10.739-4.024c3.144-1.178 5.796-3.091 7.835-5.472 4.405-5.139 5.951-12.456 3.408-19.242z" fill="#e79d8e"/></g><g><path d="m439.871 384.77c-3.044.752-6.314.767-9.556-.103l-11.077-2.969c-22.278-5.971-38.242-26.245-38.821-49.302l-1.279-50.915c-.003-.129-.019-.182-.019-.182-.043-.054-.246-.162-.351-.169-.003.005-.054.026-.139.081l-48.117 30.79c-8.932 5.715-20.805 3.108-26.52-5.824-5.715-8.931-3.108-20.804 5.823-26.52l48.117-30.79c11.755-7.522 26.715-8.129 39.04-1.582 12.326 6.546 20.2 19.279 20.551 33.231l1.28 50.916c.155 6.163 4.422 11.582 10.377 13.178l11.077 2.97c10.242 2.745 16.319 13.273 13.573 23.515-1.877 6.998-7.388 12.053-13.959 13.675z" fill="#e79d8e"/></g><g><path d="m356.179 445.493c-3.135 0-6.314-.769-9.253-2.391l-10.043-5.538c-20.197-11.137-30.837-34.646-25.873-57.17l10.961-49.738c.028-.126.025-.181.025-.181-.029-.062-.2-.216-.3-.248-.004.004-.059.013-.154.045l-54.094 18.36c-10.041 3.408-20.944-1.969-24.351-12.01-3.408-10.04 1.969-20.943 12.01-24.351l54.094-18.36c13.215-4.486 27.884-1.489 38.281 7.821 10.398 9.309 14.991 23.559 11.988 37.188l-10.961 49.738c-1.327 6.02 1.517 12.304 6.916 15.281l10.042 5.538c9.285 5.12 12.662 16.798 7.542 26.083-3.499 6.346-10.062 9.933-16.83 9.933z" fill="#e79d8e"/></g></g><g><path d="m283.053 348.759c0 51.277-194.913 51.277-194.913 0s43.633-92.845 97.456-92.845c53.824 0 97.457 41.568 97.457 92.845z" fill="#c37777"/></g><g><path d="m185.596 255.914c-4.493 0-8.913.296-13.244.857 34.77 5.223 61.362 33.893 61.362 68.486 0 35.93-128.131 38.15-143.971 6.661-1.05 5.462-1.604 11.09-1.604 16.841 0 51.277 194.913 51.277 194.913 0 .001-51.277-43.632-92.845-97.456-92.845z" fill="#ba5677"/></g><g><path d="m162.822 316.707c16.432 5.307-3.742 67.769-20.174 62.461-16.432-5.307-25.237-23.592-19.666-40.841 5.571-17.248 23.408-26.928 39.84-21.62z" fill="#e79d8e"/></g><g><path d="m192.567 383.421c-16.893 3.58-30.5-60.633-13.607-64.213s33.633 7.893 37.391 25.625c3.757 17.731-6.891 35.008-23.784 38.588z" fill="#e79d8e"/></g></g><g fill="#4e0325"><path d="m510.138 255.396c-2.746-7.328-8.181-13.148-15.305-16.388-7.124-3.241-15.084-3.513-22.41-.766l-10.738 4.023c-1.586.594-3.476.044-4.495-1.308l-30.642-40.684c-10.587-14.054-27.999-21.343-45.438-19.024-2.808.373-5.541 1.011-8.193 1.846-.501-5.916-1.478-12.231-4.719-18.094-4.121-7.455-10.759-12.184-16.614-16.356-3.001-2.138-5.835-4.158-7.978-6.279-2.028-2.008-4.007-4.738-6.103-7.627-4.283-5.907-9.138-12.601-16.911-16.719s-16.038-4.375-23.331-4.602c-3.568-.111-6.938-.215-9.738-.765-2.958-.581-6.221-1.792-9.675-3.074-6.741-2.502-14.384-5.338-22.865-4.561-8.303.761-15.216 4.814-21.316 8.391-3.263 1.913-6.344 3.72-9.229 4.8-2.793 1.045-6.271 1.681-9.955 2.353-6.926 1.264-14.775 2.698-21.66 7.505-6.605 4.611-10.614 11.31-14.151 17.22-1.217 2.035-2.395 3.997-3.603 5.768-7.508-7.428-17.334-12.383-27.948-13.793-17.444-2.321-34.853 4.97-45.438 19.025l-12.533 16.64c-10.594-2.483-21.908-1.426-32.045 3.371-15.905 7.523-26.566 23.1-27.823 40.651l-3.258 45.526c-9.314 11.445-13.078 26.665-9.846 41.328l10.961 49.738c.364 1.654-.448 3.448-1.931 4.266l-10.042 5.538c-6.853 3.779-11.824 10-13.998 17.517-2.174 7.518-1.29 15.432 2.489 22.285 5.155 9.347 14.992 15.154 25.673 15.154 4.919 0 9.806-1.261 14.129-3.646l10.042-5.537c16.152-8.906 27.167-24.449 30.896-41.821 1.67 2.224 3.744 4.443 6.292 6.617-5.491 20.576-13.144 35.604-21.221 41.526-13.027 9.552-15.855 27.922-6.304 40.95 3.969 5.413 9.727 9.327 16.212 11.021 2.467.645 4.969.962 7.453.962 6.154 0 12.195-1.946 17.285-5.678 22.451-16.461 34.974-44.976 41.793-68.247 12.346 1.875 25.786 2.869 39.69 2.869 9.647 0 19.07-.481 28.064-1.398 4.09 25.603 13.792 59.311 36.757 79.633 5.413 4.789 12.281 7.361 19.374 7.361 1.602-.001 3.215-.131 4.826-.398 6.614-1.092 12.707-4.461 17.155-9.489 10.705-12.098 9.572-30.65-2.526-41.356-8.436-7.465-15.296-26.46-18.498-51.069 16.976-9.447 21.796-20.878 22.343-30.006l15.29-5.189-7.232 32.818c-5.92 26.865 6.769 54.904 30.859 68.186l10.041 5.537c4.325 2.386 9.211 3.646 14.13 3.646 10.681 0 20.519-5.807 25.673-15.154 3.779-6.853 4.663-14.767 2.489-22.285-2.173-7.517-7.145-13.738-13.998-17.517l-10.042-5.538c-1.483-.818-2.295-2.612-1.931-4.265l10.961-49.739c.554-2.514.878-5.043 1.03-7.568 1.069 27.137 19.974 50.882 46.261 57.928l11.077 2.969c2.485.667 5.045 1 7.603 1 2.352 0 4.702-.282 6.99-.847 10.369-2.56 18.528-10.555 21.292-20.866 4.183-15.604-5.109-31.701-20.713-35.884l-11.077-2.969c-1.636-.438-2.854-1.985-2.897-3.678l-.986-39.218c9.821 5.919 21.136 9.098 32.616 9.098 7.293 0 14.648-1.274 21.717-3.923l10.737-4.023c4.626-1.733 8.763-4.623 11.962-8.359 6.949-8.114 8.939-19.362 5.194-29.359zm-322.304-87.854c3.321-3.787 5.785-7.903 8.167-11.884 2.738-4.576 5.325-8.897 8.383-11.033 3.278-2.288 8.353-3.215 13.726-4.197 4.391-.802 8.931-1.631 13.407-3.307 4.516-1.69 8.506-4.03 12.365-6.292 4.693-2.752 9.126-5.351 12.943-5.701 3.913-.357 8.81 1.459 13.995 3.382 4.055 1.505 8.248 3.062 12.81 3.958 4.418.867 8.782 1.003 13.002 1.135 5.592.174 10.873.338 14.504 2.261 3.63 1.923 6.733 6.201 10.016 10.73 2.479 3.418 5.043 6.953 8.241 10.121 3.304 3.271 6.946 5.867 10.47 8.378 4.503 3.208 8.757 6.239 10.658 9.679 1.854 3.354 2.193 8.482 2.552 13.911.128 1.936.275 3.935.479 5.96-4.838 4.693-8.745 10.39-11.331 16.844l-19.102 47.667-18.75 11.998c-6.468 4.139-11.014 10.635-12.737 18.058l-14.841 5.037c-19.032-29.063-52.793-48.432-91.196-48.432-10.595 0-20.833 1.481-30.51 4.226-1.205-3.064-2.068-5.95-2.034-8.531.049-3.729 2.172-8.296 4.419-13.131 1.956-4.206 3.978-8.556 5.246-13.433 1.218-4.685 1.534-9.355 1.84-13.87.367-5.417.713-10.535 2.615-14.125 1.902-3.591 5.942-6.751 10.218-10.096 3.567-2.789 7.253-5.673 10.445-9.313zm-102.114 81.609.768-10.739 29.906 21.15zm58.737-91.87c5.927.788 11.436 3.459 15.751 7.474-4.065 3.427-8.068 7.43-10.882 12.741-.245.463-.477.928-.697 1.395-.683-.81-1.485-1.528-2.413-2.099-2.465-1.517-5.592-1.966-8.364-1.2-1.337.369-2.584 1.01-3.662 1.882-.677.548-1.298 1.195-1.838 1.914l-9.678 12.849-14.867-10.514 10.006-13.285c6.208-8.242 16.417-12.516 26.644-11.157zm-78.717 37.272c9.327-4.412 20.352-3.453 28.775 2.505l41.687 29.482c-1.816 4.505-3.275 9.392-3.344 14.705-.022 1.678.094 3.309.308 4.901-.887-.281-1.739-.69-2.521-1.243l-46.644-32.988c-.258-.182-.469-.317-.625-.413-1.642-1.022-3.574-1.568-5.574-1.523-2.694.063-5.364 1.214-7.261 3.108-.093.094-.189.193-.285.297-.046.05-.092.101-.137.152v.001c-1.114 1.26-2.315 3.255-2.537 6.151l-1.778 24.845c-6.286-.246-12.552.718-18.45 2.834l2.074-28.979c.735-10.29 6.985-19.423 16.312-23.835zm1.522 88.883c-.321-.111-.576-.185-.762-.235-1.876-.517-3.896-.492-5.811.131-2.744.892-5.108 2.974-6.323 5.569-.571 1.219-.892 2.539-.945 3.884-.035.897.049 1.818.253 2.753l10.961 49.738c4.007 18.183-4.582 37.163-20.887 46.153l-10.044 5.538c-1.364.753-2.837 1.135-4.376 1.135-3.324 0-6.385-1.805-7.987-4.71-1.174-2.129-1.448-4.587-.773-6.922s2.219-4.268 4.349-5.442l10.042-5.537c9.29-5.123 14.185-15.936 11.902-26.298l-10.961-49.737c-2.22-10.076 1.175-20.609 8.863-27.492 7.686-6.881 18.527-9.098 28.299-5.781l34.571 11.734c-4.588 4.623-8.73 9.653-12.366 15.025zm18.286 27.534c-1.898 4.588-3.459 9.337-4.658 14.219l-3.764-17.077zm6.624 135.435c-2.22 1.627-5.021 2.161-7.693 1.463-1.422-.371-3.448-1.266-5.028-3.421-2.967-4.047-2.089-9.754 1.958-12.721 13.487-9.889 22.037-29.587 27.254-47.146 2.066.877 4.249 1.731 6.589 2.552 3.397 1.192 7.006 2.283 10.788 3.276-5.966 19.787-16.349 43.152-33.868 55.997zm61.464-125.088c2.436 0 4.901.372 7.324 1.155.429.139 1.07 1.245 1.466 3.091 2.526 11.78-5.98 38.113-14.919 46.19-1.401 1.266-2.57 1.786-2.997 1.649-13.227-4.272-20.298-19.172-15.763-33.213 3.705-11.469 14.024-18.872 24.889-18.872zm14.765 39.03c1.68 6.267 3.884 11.964 6.416 16.542-5.038-.207-9.997-.554-14.819-1.04 3.153-4.228 6.031-9.637 8.403-15.502zm42.022-14.258c1.493 7.046.293 14.208-3.379 20.166-3.257 5.284-8.12 9.041-13.829 10.746-1.007.029-2.013.06-3.024.077-.967-.637-2.401-2.07-4.075-4.824-2.888-4.752-5.475-11.863-7.095-19.511s-2.141-15.196-1.428-20.711c.637-4.925 2.042-6.773 2.623-6.896 1.655-.35 3.308-.519 4.943-.519 11.796-.001 22.578 8.793 25.264 21.472zm65.44 100.704c3.758 3.326 4.11 9.089.785 12.847-1.772 2.002-3.871 2.707-5.323 2.947-2.72.45-5.463-.338-7.524-2.162-18.45-16.326-26.575-45.167-30.152-67.418 6.346-1.227 12.328-2.704 17.846-4.418 2.908 18.649 9.528 45.074 24.368 58.204zm-26.608-78.72c-9.392 3.295-21.028 5.779-33.777 7.304.66-.889 1.292-1.807 1.883-2.764 5.312-8.62 7.059-18.931 4.917-29.037-1.906-8.994-6.679-16.624-13.091-22.077.158.016.313.041.474.05 5.579.31 10.353-3.962 10.663-9.542.31-5.579-3.962-10.353-9.542-10.663-5.579-.31-10.353 3.962-10.663 9.541-.109 1.976.364 3.845 1.258 5.457-7.157-3.55-15.403-4.816-23.673-3.062-1.679.356-3.908 1.203-6.021 3.158-2.066-3.222-4.749-4.771-6.998-5.498-4.132-1.335-8.339-1.87-12.468-1.705.754-1.32 1.231-2.826 1.321-4.447.31-5.579-3.962-10.353-9.541-10.663s-10.354 3.962-10.663 9.542c-.209 3.767 1.675 7.162 4.636 9.068-9.458 4.432-17.219 12.792-20.752 23.73-3.465 10.727-2.179 21.822 2.662 30.855-7.827-2.969-21.641-9.495-21.641-18.561 0-45.627 39.189-82.746 87.358-82.746 48.17 0 87.358 37.12 87.358 82.746-.001 9.929-16.574 16.814-23.7 19.314zm111.336 50.247c2.129 1.174 3.673 3.106 4.348 5.442.675 2.335.401 4.793-.773 6.922-1.602 2.905-4.663 4.71-7.987 4.71-1.538 0-3.011-.382-4.377-1.135l-10.043-5.537c-16.306-8.991-24.895-27.97-20.888-46.153l10.965-49.753c.196-.896.281-1.792.253-2.664-.044-1.37-.366-2.717-.948-3.959-1.217-2.6-3.587-4.684-6.337-5.574-1.912-.619-3.923-.641-5.789-.128-.183.049-.432.12-.719.219l-26.968 9.153c-1.173-6.028-2.898-11.872-5.12-17.484l26.239-8.906c9.767-3.316 20.612-1.102 28.299 5.782 7.686 6.882 11.082 17.416 8.862 27.491l-10.961 49.74c-2.282 10.36 2.611 21.173 11.902 26.297zm1.743-114.695 7.142-4.57.648 25.782c-.901-7.562-3.57-14.835-7.79-21.212zm75.307 53.708c2.348.629 4.31 2.135 5.526 4.241 1.215 2.105 1.538 4.558.908 6.906-.859 3.205-3.397 5.691-6.624 6.487-1.495.369-3.015.352-4.522-.053l-11.078-2.969c-17.985-4.82-30.873-21.187-31.34-39.801l-1.28-50.931c-.026-.975-.174-1.919-.439-2.806-.376-1.257-.993-2.429-1.818-3.45-1.807-2.238-4.61-3.696-7.499-3.899-2.009-.141-3.967.321-5.658 1.27-.163.09-.381.216-.633.378l-25.729 16.464c-6.8-4.232-14.496-6.724-22.39-7.282l38.308-24.514c8.69-5.56 19.749-6.009 28.861-1.17 2.699 1.433 5.1 3.276 7.162 5.415l4.165 5.53c2.366 4.083 3.743 8.748 3.866 13.621l1.28 50.917c.267 10.606 7.611 19.931 17.857 22.678zm51.964-85.719c-1 1.168-2.247 2.037-3.708 2.584l-10.739 4.024c-17.436 6.534-37.438.71-48.64-14.164l-6.142-8.155c-1.579-2.565-3.404-4.975-5.433-7.214l-19.077-25.329c-1.405-1.858-3.302-3.158-5.422-3.762v-.001c-.099-.028-.198-.055-.298-.079-.622-.157-1.262-.255-1.914-.289-2.152-.124-4.356.409-6.199 1.537-1.723 1.054-3.053 2.574-3.876 4.335-.078.163-.178.386-.292.668l-2.835 7.074c-7.894.611-15.655 3.11-22.543 7.518l-.105.068 8.588-21.43c3.837-9.577 12.574-16.37 22.802-17.73 10.223-1.361 20.435 2.915 26.643 11.155l30.643 40.684c6.383 8.473 17.781 11.794 27.713 8.07l10.739-4.023c2.278-.853 4.75-.768 6.962.238 2.213 1.006 3.901 2.814 4.754 5.09 1.163 3.107.543 6.605-1.621 9.131z"/><path d="m313.292 204.746c3.346 0 6.059-2.713 6.059-6.059v-11.278c0-3.346-2.713-6.059-6.059-6.059s-6.059 2.713-6.059 6.059v11.278c0 3.346 2.713 6.059 6.059 6.059z"/><path d="m286.228 250.965c0 3.346 2.713 6.059 6.059 6.059s6.059-2.713 6.059-6.059v-11.278c0-3.346-2.713-6.059-6.059-6.059s-6.059 2.713-6.059 6.059z"/><path d="m280.286 217.564c3.346 0 6.059-2.713 6.059-6.059v-11.278c0-3.346-2.713-6.059-6.059-6.059s-6.059 2.713-6.059 6.059v11.278c0 3.346 2.713 6.059 6.059 6.059z"/></g><g><g><path d="m210.215 191.282c-1.785 0-3.592-.473-5.229-1.466-4.768-2.893-6.288-9.104-3.395-13.872.347-.572.69-1.145 1.034-1.719 3.141-5.249 6.702-11.199 12.674-15.368 4.572-3.193 10.869-2.073 14.061 2.5s2.073 10.868-2.5 14.061c-2.425 1.692-4.601 5.329-6.905 9.179-.364.609-.729 1.217-1.097 1.824-1.9 3.13-5.231 4.861-8.643 4.861z" fill="#fff"/></g><g><path d="m186.007 217.1c-1.595 0-3.212-.379-4.72-1.178-4.928-2.611-6.805-8.724-4.194-13.651.308-.581.635-1.15.978-1.707 2.927-4.747 9.149-6.223 13.896-3.296s6.223 9.148 3.296 13.896c-.113.184-.222.372-.324.565-1.813 3.42-5.313 5.371-8.932 5.371z" fill="#fff"/></g></g></g><g><g><path d="m63.487 31.56-8.295 23.325c-.355.999-1.058 1.79-1.946 2.19l-20.723 9.336c-2.928 1.319-2.928 5.984 0 7.303l20.723 9.337c.887.4 1.59 1.191 1.946 2.19l8.295 23.325c1.172 3.295 5.316 3.295 6.488 0l8.295-23.326c.355-.999 1.058-1.79 1.946-2.19l20.723-9.337c2.928-1.319 2.928-5.984 0-7.303l-20.723-9.336c-.887-.4-1.59-1.191-1.946-2.19l-8.295-23.324c-1.172-3.295-5.317-3.295-6.488 0z" fill="#ffc8b7"/></g><g><path d="m440.358 94.501-6.153 17.302c-.263.741-.785 1.328-1.443 1.624l-15.372 6.926c-2.172.979-2.172 4.439 0 5.417l15.372 6.926c.658.296 1.18.884 1.443 1.624l6.153 17.302c.869 2.444 3.943 2.444 4.813 0l6.153-17.302c.263-.741.785-1.328 1.443-1.624l15.372-6.926c2.172-.979 2.172-4.438 0-5.417l-15.372-6.926c-.658-.297-1.18-.884-1.443-1.624l-6.153-17.302c-.87-2.444-3.944-2.444-4.813 0z" fill="#ffc8b7"/></g><g><path d="m325.431 54.624c0 10.003 8.11 18.113 18.113 18.113 10.004 0 18.113-8.109 18.113-18.113s-8.109-18.113-18.113-18.113c-10.004-.001-18.113 8.109-18.113 18.113z" fill="#ffa785"/></g><g><path d="m176.667 72.737c0 4.183 3.391 7.574 7.574 7.574s7.574-3.391 7.574-7.574-3.391-7.574-7.574-7.574-7.574 3.391-7.574 7.574z" fill="#ffa785"/></g></g></g></svg>