<svg id="Capa_1" enable-background="new 0 0 512 512" height="512" viewBox="0 0 512 512" width="512" xmlns="http://www.w3.org/2000/svg"><g><g><g><g><path d="m89.771 434.337-48.208 5.746c-16.025 1.412-28.873 14.555-29.009 30.642-.146 17.223 13.772 31.231 30.961 31.231h354.035c38.885 0 70.407-31.522 70.407-70.407v-195.138c0-45.171-36.619-81.789-81.79-81.789-45.172 0-81.79 36.618-81.79 81.789v46.507" fill="#a2f4e3"/></g><g><path d="m393.16 154.94c13.233 12.918 21.459 30.941 21.459 50.895v169.716c0 33.819-27.416 61.235-61.235 61.235h-284.154l-27.667 3.297c-16.025 1.412-28.873 14.555-29.009 30.642-.146 17.223 13.772 31.231 30.961 31.231h354.035c38.885 0 70.407-31.522 70.407-70.407v-195.138c0-42.813-32.902-77.92-74.797-81.471z" fill="#b0b8e5"/></g><g><ellipse cx="460.45" cy="48.616" fill="#a2f4e3" rx="36.114" ry="36.114" transform="matrix(.924 -.383 .383 .924 16.445 179.907)"/></g><g><path d="m307.288 195.116c-99.38-102.162-293.925-15.676-273.531 124.879 7.968 103.652 122.854 182.407 238.017 106.439 49.545-32.683 55.993-95.522 32.602-143.514z" fill="#ffa785"/></g><g><path d="m304.376 282.919 2.912-87.803c-35.098-36.08-82.065-48.627-127.242-43.576.249.033.499.066.748.1 39.021 5.328 67.517 39.626 66.211 78.988l-.19 5.722c32.079 45.715 16.508 112.211-20.47 136.215-82.705 53.686-187.306-7.77-192.972-89.707-.125-.007.081.004-.044-.002-1.498 11.859-1.44 24.272.427 37.14 7.968 103.652 122.854 182.407 238.017 106.439 49.546-32.685 55.994-95.524 32.603-143.516z" fill="#ff7d87"/></g><g><ellipse cx="317.419" cy="48.616" fill="#a2f4e3" rx="36.114" ry="36.114" transform="matrix(.383 -.924 .924 .383 151.033 323.269)"/></g></g><g fill="#4e0325"><path d="m460.45 94.774c25.451 0 46.158-20.706 46.158-46.158 0-25.451-20.707-46.157-46.158-46.157s-46.158 20.706-46.158 46.157c0 16.994 9.238 31.862 22.95 39.874l-19.514 61.676c-9.845-3.614-20.476-5.588-31.56-5.588-9.23 0-18.143 1.374-26.553 3.919l-18.988-60.007c13.711-8.012 22.95-22.88 22.95-39.874 0-25.451-20.707-46.157-46.158-46.157s-46.158 20.706-46.158 46.157c0 25.452 20.707 46.158 46.158 46.158 1.371 0 2.726-.072 4.067-.19l19.574 61.861c-12.128 6.868-22.545 16.414-30.447 27.83-25.223-24.225-57.201-39.016-92.84-42.858-33.941-3.659-70.223 2.994-102.163 18.733-30.531 15.044-55.374 37.155-71.844 63.942-17.977 29.239-24.889 62.775-19.997 97.009 3.213 40.664 21.867 78.111 50.929 104.917l-34.182 4.074c-21.148 1.95-37.829 19.728-38.006 40.548-.094 11.023 4.127 21.402 11.885 29.226 7.76 7.825 18.101 12.134 29.12 12.134h354.035c44.361 0 80.451-36.09 80.451-80.451v-195.137c0-32.315-16.779-60.782-42.081-77.154l20.462-64.673c1.342.117 2.696.189 4.068.189zm-169.101-46.158c0-14.375 11.695-26.07 26.07-26.07s26.07 11.695 26.07 26.07-11.695 26.07-26.07 26.07-26.07-11.695-26.07-26.07zm-247.578 270.609c-.017-.225-.042-.449-.075-.672-10.041-69.203 35.151-117.893 80.793-140.384 51.245-25.252 125.415-27.639 175.599 23.95.207.213.426.41.647.601-4.13 10.436-6.402 21.803-6.402 33.691v13.189c-7.541-8.706-16.127-16.27-25.505-22.355-24.353-15.804-53.306-21.535-83.726-16.573-57.857 9.436-86.352 58.927-84.598 102.939.827 20.746 8.306 40.076 21.059 54.43 14.288 16.082 34.626 25.632 58.817 27.62 16.786 1.381 31.822-2.782 43.489-12.035 10.29-8.16 17.544-19.801 20.981-33.667 7.396-29.844-5.106-60.075-29.081-70.321-21.352-9.125-37.391.626-44.635 11.75-8.715 13.383-7.044 30.556 3.976 40.833 4.057 3.783 10.412 3.562 14.195-.495 3.784-4.056 3.562-10.412-.495-14.195-4.586-4.278-3.652-10.868-.844-15.181 1.953-2.999 7.802-9.413 19.908-4.24 16.487 7.046 21.833 29.439 17.477 47.018-1.942 7.834-10.808 33.184-43.327 30.514-43.603-3.583-60.332-34.805-61.449-62.83-1.403-35.184 21.422-74.755 67.76-82.312 59.143-9.645 96.701 29.345 110.889 65.666 15.48 39.628 11.285 92.684-32.982 121.886-48.623 32.075-100.378 37.506-145.73 15.292-43.565-21.343-72.97-65.069-76.741-114.119zm414.142-82.813v195.137c0 33.285-27.079 60.363-60.363 60.363h-354.035c-5.621 0-10.896-2.199-14.854-6.19-3.958-3.992-6.111-9.287-6.063-14.912.09-10.647 8.809-19.749 19.847-20.722.103-.009.204-.02.307-.032l48.208-5.746c1.82-.217 3.461-.915 4.828-1.941 5.092 3.292 10.385 6.316 15.889 9.012 20.67 10.125 43.489 15.362 66.621 15.362 3.909 0 7.826-.15 11.743-.45 29.698-2.279 59.057-12.869 87.264-31.475 23.941-15.793 40.13-38.974 46.817-67.039 6.021-25.269 3.824-53.298-6.186-78.924-1.081-2.768-2.265-5.482-3.514-8.157v-44.286c0-39.561 32.186-71.746 71.746-71.746 39.561 0 71.745 32.185 71.745 71.746zm2.537-213.865c14.375 0 26.07 11.695 26.07 26.07s-11.695 26.07-26.07 26.07-26.07-11.695-26.07-26.07c0-14.376 11.694-26.07 26.07-26.07z"/><path d="m376.345 220.442c0-3.328-2.698-6.026-6.026-6.026s-6.026 2.698-6.026 6.026c0 12.094 9.839 21.933 21.933 21.933s21.934-9.839 21.934-21.934c0-3.328-2.698-6.026-6.026-6.026s-6.026 2.698-6.026 6.026c0 5.449-4.432 9.881-9.881 9.881-5.45.001-9.882-4.431-9.882-9.88z"/><path d="m418.392 373.286c3.328 0 6.026-2.698 6.026-6.026v-13.102c0-3.328-2.698-6.026-6.026-6.026s-6.026 2.698-6.026 6.026v13.102c-.001 3.328 2.698 6.026 6.026 6.026z"/><path d="m361.674 384.175c-3.328 0-6.026 2.698-6.026 6.026v13.102c0 3.328 2.698 6.026 6.026 6.026s6.026-2.698 6.026-6.026v-13.102c0-3.327-2.698-6.026-6.026-6.026z"/><path d="m398.882 420.705c-3.328 0-6.026 2.698-6.026 6.026v13.102c0 3.328 2.698 6.026 6.026 6.026s6.026-2.698 6.026-6.026v-13.102c0-3.327-2.698-6.026-6.026-6.026z"/><path d="m460.929 60.085c6.334-.587 10.993-6.198 10.406-12.532s-6.198-10.993-12.532-10.406-10.993 6.198-10.406 12.532c.587 6.335 6.198 10.993 12.532 10.406z"/><path d="m319.066 37.147c-6.334-.587-11.945 4.072-12.532 10.406s4.072 11.945 10.406 12.532 11.945-4.072 12.532-10.406-4.072-11.944-10.406-12.532z"/></g><g><g><path d="m112.342 229.15c-2.991 0-5.949-1.329-7.93-3.871-3.409-4.376-2.626-10.687 1.75-14.096.791-.617 1.589-1.224 2.394-1.823 4.448-3.313 10.741-2.392 14.054 2.059 3.312 4.45 2.39 10.742-2.059 14.054-.687.512-1.368 1.03-2.043 1.556-1.834 1.429-4.009 2.121-6.166 2.121z" fill="#fff"/></g><g><path d="m70.479 307.194c-.122 0-.243-.002-.366-.006-5.544-.199-9.877-4.854-9.678-10.397.645-17.999 5.666-35.117 14.926-50.878 2.809-4.783 8.964-6.383 13.748-3.572 4.783 2.81 6.382 8.965 3.572 13.748-7.552 12.855-11.647 26.791-12.17 41.422-.195 5.42-4.651 9.683-10.032 9.683z" fill="#fff"/></g></g></g><g><g><path d="m66.946 2.687-9.02 25.362c-.386 1.086-1.151 1.946-2.115 2.381l-22.534 10.152c-3.184 1.434-3.184 6.507 0 7.941l22.533 10.152c.965.435 1.729 1.295 2.115 2.381l9.02 25.362c1.274 3.583 5.781 3.583 7.055 0l9.02-25.362c.386-1.086 1.151-1.946 2.116-2.381l22.533-10.152c3.183-1.434 3.183-6.507 0-7.941l-22.533-10.152c-.965-.435-1.729-1.295-2.116-2.381l-9.02-25.362c-1.274-3.583-5.78-3.583-7.054 0z" fill="#a2f4e3"/></g><g><path d="m195.133 37.95-6.691 18.813c-.286.806-.854 1.444-1.569 1.766l-16.715 7.53c-2.361 1.064-2.361 4.826 0 5.89l16.715 7.531c.716.322 1.283.961 1.569 1.766l6.691 18.813c.945 2.658 4.288 2.658 5.233 0l6.691-18.813c.286-.805.854-1.444 1.569-1.766l16.715-7.531c2.361-1.064 2.361-4.826 0-5.89l-16.715-7.53c-.716-.322-1.283-.961-1.569-1.766l-6.691-18.813c-.945-2.658-4.287-2.658-5.233 0z" fill="#a2f4e3"/></g><g><path d="m.975 151.828c0 10.877 8.818 19.695 19.695 19.695s19.695-8.818 19.695-19.695-8.818-19.695-19.695-19.695-19.695 8.818-19.695 19.695z" fill="#00ebc4"/></g><g><circle cx="502.79" cy="145.31" fill="#00ebc4" r="8.235"/></g></g></g></svg>