<svg id="Capa_1" enable-background="new 0 0 512 512" height="512" viewBox="0 0 512 512" width="512" xmlns="http://www.w3.org/2000/svg"><g><g><g><g><path d="m413.436 379.532c-50.9-4.712-218.377 3.713-253.91.423-50.9-4.712-93.834 9.526-95.896 31.801s37.529 44.153 88.428 48.865c8.287.767 16.363 1.031 24.085.84 11.461-.284 22.694 2.831 32.602 8.663 16.093 9.472 39.64 16.646 66.29 19.113 50.899 4.712 90.801-29.157 95.896-31.801 4.241-2.201 22.511 1.603 35.037 2.763 50.899 4.712 93.833-9.526 95.896-31.801 2.062-22.277-37.529-44.154-88.428-48.866z" fill="#98e8f2"/></g><g><path d="m386.136 388.253c-45.983-1.148-195.603 7.424-227.704 6.623-45.983-1.148-83.492 7.282-83.781 18.828-.288 11.546 36.754 21.837 82.737 22.984 7.487.187 14.748.119 21.661-.174 10.259-.435 20.553.888 29.848 3.648 15.098 4.482 36.72 7.589 60.796 8.19 45.982 1.148 79.396-17.336 83.781-18.828 3.65-1.243 20.303.259 31.619.542 45.982 1.148 83.492-7.282 83.78-18.828.288-11.547-36.755-21.837-82.737-22.985z" fill="#a6aff4"/></g><g><path d="m98.662 141.076c34.601 1.167 61.789 30.127 61.789 64.747v35.612l2.446 46.175 92.564.49c68.716.249 124.289 56.024 124.289 124.74h-292.209c-30.429 0-55.096-24.667-55.096-55.096v-152.703c0-36.083 29.859-65.192 66.217-63.965z" fill="#ffc5dd"/></g><g><g><path d="m281.461 290.917c19.266 16.722 33.489 50.434 15.196 62.978-15.605 10.7-221.048.079-221.048.079-23.838 0-43.163-19.325-43.163-43.164v46.933c0 30.429 24.667 55.096 55.096 55.096h292.208c0-59.797-42.084-109.786-98.289-121.922z" fill="#ff94de"/></g></g><g><ellipse cx="38.32" cy="58.085" fill="#ffc5dd" rx="28.26" ry="28.26" transform="matrix(.924 -.383 .383 .924 -19.311 19.086)"/></g><g><ellipse cx="150.246" cy="58.085" fill="#ffc5dd" rx="28.26" ry="28.26" transform="matrix(.973 -.23 .23 .973 -9.326 36.073)"/></g></g><g fill="#4e0325"><path d="m414.364 369.515c-7.792-.721-18.319-1.174-32.118-1.38-6.574-18.754-17.31-35.953-31.745-50.441-25.349-25.441-59.089-39.524-94.986-39.655l-83.073-.439-1.93-36.431v-35.345c0-19.386-7.345-37.798-20.684-51.846-4.649-4.896-9.859-9.055-15.475-12.452l14.289-45.161c.533.022 1.067.041 1.605.041 21.129 0 38.319-17.19 38.319-38.32s-17.19-38.319-38.319-38.319c-21.13 0-38.32 17.19-38.32 38.319 0 13.475 6.998 25.34 17.544 32.174l-13.699 43.298c-5.42-1.473-11.036-2.341-16.77-2.535-8.92-.301-17.637.965-25.845 3.674l-14.06-44.437c10.545-6.835 17.543-18.699 17.543-32.175 0-21.13-17.19-38.319-38.32-38.319s-38.32 17.189-38.32 38.319 17.19 38.32 38.32 38.32c.538 0 1.072-.019 1.605-.041l14.985 47.36c-3.498 2.381-6.829 5.061-9.938 8.067-14.566 14.083-22.587 32.994-22.587 53.25v152.702c0 23.457 12.464 44.053 31.113 55.528-.139 27.709 41.038 52.128 97.632 57.367 8.513.789 17.012 1.086 25.262.88 9.324-.234 18.769 2.284 27.249 7.275 18.118 10.665 43.143 17.931 70.466 20.461 3.626.336 7.193.493 10.703.493 42.859-.001 76.501-23.457 88.146-31.578.671-.468 1.396-.973 1.954-1.354 3.215-.144 11.325.983 16.841 1.748 4.495.624 9.143 1.268 13.289 1.652 25.969 2.404 50.956.185 70.356-6.249 22.139-7.342 35.096-19.644 36.484-34.642 2.658-28.705-39.266-54.417-97.516-59.809zm-264.117-329.63c10.035 0 18.2 8.165 18.2 18.2 0 10.036-8.165 18.201-18.2 18.201-10.036 0-18.201-8.165-18.201-18.201s8.164-18.2 18.201-18.2zm-130.128 18.2c0-10.036 8.165-18.2 18.201-18.2s18.201 8.165 18.201 18.2c0 10.036-8.165 18.201-18.201 18.201s-18.201-8.165-18.201-18.201zm22.386 146.956c0-14.753 5.843-28.528 16.453-38.786 10.152-9.816 23.398-15.157 37.48-15.157.627 0 1.256.01 1.885.031 28.71.969 52.069 25.504 52.069 54.694v35.612c0 .177.005.355.014.532l2.424 45.768c1.925 32.712 15.041 54.351 36.208 59.526.803.197 1.606.29 2.397.29 4.528 0 8.64-3.079 9.764-7.673 1.319-5.397-1.985-10.841-7.383-12.161-9.771-2.389-16.758-13.297-19.645-29.989l81.253.429c59.618.217 108.719 46.288 113.826 104.621h-281.709c-24.833 0-45.036-20.203-45.036-45.036zm449.343 222.428c-.581 6.265-9.31 12.932-22.784 17.4-16.823 5.58-38.902 7.468-62.168 5.312-3.69-.341-8.107-.954-12.379-1.547-14.76-2.048-22.719-2.983-28.218-.128-1.249.647-2.604 1.592-4.85 3.158-11.105 7.745-44.895 31.316-85.486 27.555-24.081-2.23-46.721-8.704-62.115-17.766-11.722-6.899-24.85-10.376-37.953-10.049-7.466.185-15.175-.084-22.909-.801-38.752-3.587-65.658-16.893-75.364-28.46 3.235.496 6.548.754 9.919.754h292.21c5.555 0 10.06-4.504 10.06-10.06 0-8.301-.755-16.486-2.215-24.484 10.448.229 18.809.629 24.914 1.194 50.143 4.643 80.481 25.561 79.338 37.922z"/><path d="m303.636 357.567c3.333 0 6.036-2.703 6.036-6.036v-10.253c0-3.333-2.703-6.036-6.036-6.036s-6.036 2.702-6.036 6.036v10.253c0 3.333 2.702 6.036 6.036 6.036z"/><path d="m245.288 338.135c3.333 0 6.036-2.703 6.036-6.036v-10.253c0-3.333-2.703-6.036-6.036-6.036s-6.036 2.702-6.036 6.036v10.253c0 3.333 2.702 6.036 6.036 6.036z"/><path d="m268.897 375.954c3.333 0 6.036-2.702 6.036-6.036v-10.252c0-3.333-2.702-6.036-6.036-6.036-3.333 0-6.036 2.703-6.036 6.036v10.252c0 3.334 2.702 6.036 6.036 6.036z"/><path d="m44.787 58.642c.308-3.319-2.133-6.259-5.452-6.567s-6.259 2.133-6.567 5.452 2.133 6.259 5.452 6.567c3.319.309 6.259-2.133 6.567-5.452z"/><path d="m150.346 64.095c3.319-.307 5.76-3.248 5.452-6.567-.307-3.319-3.248-5.76-6.567-5.452s-5.76 3.248-5.452 6.567c.308 3.318 3.248 5.76 6.567 5.452z"/></g><g><g><path d="m83.711 191.479c-2.423 0-4.853-.87-6.782-2.633-4.102-3.747-4.388-10.11-.642-14.212.56-.612 1.132-1.214 1.716-1.803 3.911-3.947 10.28-3.974 14.226-.064 3.946 3.911 3.975 10.28.064 14.227-.392.396-.777.8-1.152 1.212-1.984 2.171-4.703 3.273-7.43 3.273z" fill="#fff"/></g><g><path d="m67.579 254.306c-5.555 0-10.06-4.504-10.06-10.06v-24.658c0-2.365.138-4.749.408-7.088.638-5.519 5.632-9.476 11.148-8.838 5.519.638 9.476 5.629 8.838 11.148-.182 1.575-.274 3.182-.274 4.777v24.658c0 5.557-4.504 10.061-10.06 10.061z" fill="#fff"/></g></g></g><g><g><path d="m297.496 133.955-8.264 23.235c-.354.995-1.054 1.783-1.938 2.181l-20.644 9.301c-2.917 1.314-2.917 5.961 0 7.275l20.644 9.301c.884.398 1.584 1.187 1.938 2.181l8.264 23.235c1.167 3.283 5.296 3.283 6.463 0l8.263-23.235c.354-.995 1.054-1.783 1.938-2.181l20.644-9.301c2.917-1.314 2.917-5.961 0-7.275l-20.644-9.301c-.884-.398-1.584-1.187-1.938-2.181l-8.263-23.235c-1.167-3.283-5.296-3.283-6.463 0z" fill="#ffc5dd"/></g><g><path d="m444.42 84.572-6.13 17.236c-.262.738-.782 1.323-1.438 1.618l-15.313 6.899c-2.163.975-2.163 4.422 0 5.396l15.313 6.899c.656.295 1.175.88 1.438 1.618l6.13 17.236c.866 2.435 3.928 2.435 4.794 0l6.13-17.236c.262-.738.782-1.323 1.438-1.618l15.313-6.899c2.163-.975 2.163-4.422 0-5.396l-15.313-6.899c-.656-.295-1.175-.88-1.438-1.618l-6.13-17.236c-.866-2.435-3.929-2.435-4.794 0z" fill="#ffc5dd"/></g><g><path d="m268.897 30.298c0 9.965 8.078 18.044 18.044 18.044 9.965 0 18.044-8.078 18.044-18.044 0-9.965-8.078-18.044-18.044-18.044s-18.044 8.079-18.044 18.044z" fill="#ff8cc0"/></g><g><ellipse cx="454.361" cy="246.662" fill="#ff8cc0" rx="7.545" ry="7.545" transform="matrix(.973 -.23 .23 .973 -44.517 110.989)"/></g></g></g></svg>