<svg id="Capa_1" enable-background="new 0 0 512 512" height="512" viewBox="0 0 512 512" width="512" xmlns="http://www.w3.org/2000/svg"><g><g><g><g><path d="m240.438 241.803s-186.344-230.785-200.612-224.149c-14.269 6.636-13.247 158.252 37.861 202.984 0 0-102.271 58.634-51.391 106.089 22.968 21.422 156.313 9.952 199.727-13.198 52.758-28.133 14.415-71.726 14.415-71.726z" fill="#ff8cc0"/></g><g><path d="m240.438 241.803s-182.806-226.403-200.153-224.267c18.883 4.719 165.946 186.854 165.946 186.854s31.961 36.336-12.015 59.786c-36.187 19.297-147.337 28.858-166.482 11.001-2.085-1.945-3.939-3.909-5.594-5.885-12.095 17.995-16.043 38.594 4.157 57.434 22.969 21.422 156.313 9.952 199.727-13.198 52.757-28.132 14.414-71.725 14.414-71.725z" fill="#ff68c1"/></g><g><path d="m241.31 307.861s-204.192 16.919-188.698 98.542c9.808 51.671 48.058 27.397 34.513 95.546 0 0 53.108 3.383 38.724-49.896 0 0 72.146-30.34 90.692-90.807 18.546-60.469 24.769-53.385 24.769-53.385z" fill="#ff8cc0"/></g><g><g><path d="m239.339 308.041c1.282-.122 1.971-.18 1.971-.18s-.597-.677-1.971.18z" fill="#ff68c1"/></g><g><path d="m184.953 316.03c-2.515 5.882-5.656 14.502-9.525 27.117-13.662 44.543-66.808 66.893-66.808 66.893 10.596 39.248-28.526 36.756-28.526 36.756-1.109-.167-2.194-.337-3.268-.508 10.041 9.295 17.509 19.382 10.299 55.661 0 0 53.108 3.383 38.724-49.896 0 0 72.146-30.34 90.692-90.808 12.804-41.747 19.734-51.294 22.798-53.204-6.441.614-28.024 2.887-54.386 7.989z" fill="#ff68c1"/></g></g><g><path d="m239.339 308.041c1.282-.122 1.971-.18 1.971-.18s-.597-.677-1.971.18z" fill="#ff68c1"/></g><g><path d="m90.601 376.208c7.167 52.197 30.646 29.06 60.684 10.545 9.11-5.324 18.746-10.088 26.734-17.09 8.232-7.216 15.115-16.209 22.604-24.185 12.143-13.13 25.333-25.684 38.715-37.438-14.105 1.345-100.856 10.647-151.298 40.192.231 9.388 1.017 18.776 2.561 27.976z" fill="#ffa785"/></g><g><path d="m239.137 308.06c-18.124 1.804-36.144 4.505-54.184 7.97-15.241 52.642-35.598 73.405-71.634 91.801 10.37-2.031 23.396-12.098 37.966-21.078 9.11-5.324 18.746-10.088 26.734-17.09 20.303-20.516 39.007-43.139 61.319-61.623-.062.007-.135.014-.201.02z" fill="#ff7d87"/></g><g><path d="m174.266 167.449s-92.081-1.989-41.267 54.097 120.796 56.507 120.796 56.507" fill="#ffa785"/></g><g><path d="m253.795 278.053-36.831-51.222c1.993 11.773-1.571 26.052-22.749 37.345-.059.032-.124.063-.184.094 32.691 13.616 59.761 13.783 59.764 13.783z" fill="#ff7d87"/></g><g><path d="m271.562 241.803s186.344-230.785 200.612-224.149c14.269 6.636 13.247 158.252-37.862 202.984 0 0 102.271 58.634 51.391 106.089-22.968 21.422-156.313 9.952-199.727-13.198-52.758-28.133-14.414-71.726-14.414-71.726z" fill="#ff8cc0"/></g><g><g><path d="m443.575 226.469c10.079 14.793 13.499 31.78-3.147 47.305-18.77 17.506-127.739 8.133-163.217-10.785-5.619-2.996-9.963-6.208-13.287-9.527-7.627 14.894-13.664 41.021 22.053 60.067 43.414 23.15 176.758 34.62 199.727 13.198 41.25-38.474-18.162-84.292-42.129-100.258z" fill="#ff68c1"/></g></g><g><g><path d="m268.487 300.595c-.333-.358-.651-.717-.966-1.076.315.36.633.719.966 1.076z" fill="#ff68c1"/></g><g><path d="m274.726 306.289c-.391-.306-.759-.616-1.133-.924.374.309.742.618 1.133.924z" fill="#ff68c1"/></g><g><path d="m272.448 304.41c-.374-.324-.728-.651-1.084-.977.356.326.71.652 1.084.977z" fill="#ff68c1"/></g><g><path d="m270.372 302.511c-.355-.342-.692-.685-1.029-1.029.337.344.674.688 1.029 1.029z" fill="#ff68c1"/></g><g><path d="m266.788 298.665c-.311-.374-.609-.748-.901-1.123.292.375.59.75.901 1.123z" fill="#ff68c1"/></g><g><path d="m263.92 294.788c-.267-.41-.525-.82-.771-1.23.247.41.504.82.771 1.23z" fill="#ff68c1"/></g><g><path d="m265.268 296.729c-.289-.391-.568-.784-.837-1.176.27.392.548.784.837 1.176z" fill="#ff68c1"/></g><g><path d="m279.91 309.972c-.401-.258-.773-.52-1.16-.78.386.26.759.522 1.16.78z" fill="#ff68c1"/></g><g><path d="m290.527 315.763c-.246-.112-.484-.225-.725-.337.242.112.479.225.725.337z" fill="#ff68c1"/></g><g><path d="m293.559 317.08c-.42-.175-.838-.35-1.247-.526.408.176.829.351 1.247.526z" fill="#ff68c1"/></g><g><path d="m288.448 314.782c-.209-.102-.418-.204-.624-.306.206.102.415.204.624.306z" fill="#ff68c1"/></g><g><path d="m282.83 311.768c-.359-.21-.691-.425-1.04-.637.349.212.681.427 1.04.637z" fill="#ff68c1"/></g><g><path d="m262.736 292.847c-.245-.43-.482-.86-.706-1.291.224.431.461.861.706 1.291z" fill="#ff68c1"/></g><g><path d="m277.21 308.144c-.402-.286-.779-.575-1.166-.863.387.288.763.577 1.166.863z" fill="#ff68c1"/></g><g><path d="m285.899 313.485c.027.014.051.029.078.044.006.003.012.006.018.009-.006-.003-.012-.006-.018-.009-.027-.015-.051-.03-.078-.044z" fill="#ff68c1"/></g><g><path d="m259.495 285.233c-.16-.551-.311-1.102-.441-1.651.13.549.28 1.1.441 1.651z" fill="#ff68c1"/></g><g><path d="m260.831 288.992c-.201-.478-.396-.956-.573-1.434.176.478.371.956.573 1.434z" fill="#ff68c1"/></g><g><path d="m260.095 287.093c-.18-.51-.353-1.02-.506-1.529.153.51.326 1.019.506 1.529z" fill="#ff68c1"/></g><g><path d="m277.21 262.988c-5.619-2.996-9.963-6.208-13.287-9.527-4.003 7.818-7.558 18.733-4.876 30.093 15.261-3.096 30.71-5.91 45.388-10.896-10.992-2.795-20.451-6.058-27.225-9.67z" fill="#ff68c1"/></g><g><path d="m261.709 290.914c-.223-.453-.44-.906-.64-1.359.2.453.417.906.64 1.359z" fill="#ff68c1"/></g><g><path d="m294.277 317.377c-.241-.099-.48-.198-.717-.297.237.099.475.199.717.297z" fill="#ffa785"/></g><g><path d="m259.046 283.555c.002.009.005.018.007.027-.002-.009-.004-.018-.006-.027z" fill="#ffa785"/></g><g><path d="m281.79 311.131c-.635-.385-1.275-.77-1.88-1.16.604.391 1.244.775 1.88 1.16z" fill="#ffa785"/></g><g><path d="m278.749 309.192c-.519-.348-1.044-.696-1.539-1.048.495.352 1.02.699 1.539 1.048z" fill="#ffa785"/></g><g><path d="m289.802 315.426c-.458-.213-.911-.428-1.355-.644.444.216.896.43 1.355.644z" fill="#ffa785"/></g><g><path d="m287.824 314.476c-.624-.311-1.238-.623-1.829-.938.591.315 1.204.627 1.829.938z" fill="#ffa785"/></g><g><path d="m292.312 316.554c-.606-.262-1.203-.525-1.785-.791.584.265 1.178.529 1.785.791z" fill="#ffa785"/></g><g><path d="m410.016 282.309c-4.883-20.651-25.837-34.768-47.722-36.045-1.968-.115-3.017-1.597-3.168-3.132-.424.221-.854.443-1.271.659-10.833 5.602-20.722 12.821-31.242 18.958-7.089 4.136-14.531 7.312-22.177 9.91 31.49 8.008 75.602 12.169 105.58 9.65z" fill="#ffa785"/></g><g><path d="m285.899 313.485c-1.059-.566-2.082-1.139-3.069-1.717.986.578 2.009 1.151 3.069 1.717z" fill="#ffa785"/></g><g><path d="m276.044 307.281c-.444-.33-.894-.659-1.318-.992.424.333.874.662 1.318.992z" fill="#ffa785"/></g><g><path d="m261.069 289.555c-.083-.188-.16-.376-.239-.563.08.188.156.375.239.563z" fill="#ffa785"/></g><g><path d="m265.887 297.542c-.21-.271-.418-.542-.619-.813.201.271.409.542.619.813z" fill="#ffa785"/></g><g><path d="m263.149 293.557c-.142-.237-.278-.473-.413-.71.135.237.272.473.413.71z" fill="#ffa785"/></g><g><path d="m264.432 295.553c-.175-.255-.345-.51-.512-.765.166.255.337.51.512.765z" fill="#ffa785"/></g><g><path d="m267.522 299.519c-.249-.285-.497-.569-.734-.854.237.286.484.57.734.854z" fill="#ffa785"/></g><g><path d="m262.03 291.556c-.111-.214-.216-.428-.321-.642.106.214.211.428.321.642z" fill="#ffa785"/></g><g><path d="m271.363 303.432c-.335-.307-.672-.613-.992-.921.32.308.658.615.992.921z" fill="#ffa785"/></g><g><path d="m269.342 301.482c-.289-.295-.579-.59-.855-.887.277.297.566.592.855.887z" fill="#ffa785"/></g><g><path d="m259.588 285.565c-.033-.111-.062-.221-.094-.332.032.11.061.221.094.332z" fill="#ffa785"/></g><g><path d="m273.593 305.365c-.386-.318-.776-.635-1.145-.956.369.321.759.638 1.145.956z" fill="#ffa785"/></g><g><path d="m260.258 287.558c-.057-.155-.108-.31-.163-.464.055.154.106.309.163.464z" fill="#ffa785"/></g><g><path d="m354.234 317.022c17.853-3.885 62.624-8.289 55.782-34.714-29.978 2.519-74.091-1.642-105.581-9.65-14.679 4.987-30.127 7.801-45.388 10.896 3.876 16.203 18.769 26.656 33.265 32.999 19.371 7.165 41.874 2.408 61.922.469z" fill="#ff7d87"/></g></g><g><path d="m435.78 80.608c1.365 14.3-.593 28.909-4.026 42.798-3.343 13.526-8.872 26.697-18.627 36.882-4.112 4.294-9.861 7.371-13.384 12.173-4.624 6.303-2.907 14.73-5.099 21.886-4.155 13.566-12.495 25.375-17.055 38.801 1.643.395 3.25.929 4.821 1.574 11.875-.558 23.615-6.3 35.062-8.627 6.553-1.332 13.249-2.362 19.888-3.623-1.933-1.195-3.048-1.834-3.048-1.834 51.108-44.732 52.13-196.348 37.861-202.984-3.864-1.797-20.347 13.819-42.328 37.542 2.988 8.163 5.096 16.616 5.935 25.412z" fill="#ffa785"/></g><g><path d="m398.431 187.077s22.741 13.044 38.597 31.024c48.42-47.634 49.158-193.931 35.146-200.448-3.519-1.636-17.504 11.17-36.575 31.387 1.764 40.044-7.08 111.703-37.168 138.037z" fill="#ff7d87"/></g><g><path d="m270.689 307.861s204.192 16.919 188.698 98.542c-9.809 51.671-48.058 27.397-34.513 95.546 0 0-53.108 3.383-38.724-49.896 0 0-72.146-30.34-90.692-90.807-18.545-60.469-24.769-53.385-24.769-53.385z" fill="#ff8cc0"/></g><g><g><path d="m414.978 343.364c6.066 10.888 8.361 24.772 5.034 42.437-7.702 40.901-38.03 21.681-27.312 75.61 0 0-3.574.86-8.655 1.39-4.82 42.048 40.829 39.148 40.829 39.148-13.545-68.148 24.704-43.875 34.513-95.545 5.31-27.971-15.18-48.343-44.409-63.04z" fill="#ff68c1"/></g></g><g><path d="m15.589 312.673c25.235-7.393 50.381-15.66 74.732-25.314 11.069-4.388 13.484-16.428 22.236-23.637 7.679-6.325 19.866-10.236 25.25-19.061-20.911-5.35-39.799-17.673-60.384-23.87-5.084 2.974-82.437 49.109-61.834 91.882z" fill="#ffa785"/></g><g><g><path d="m13.521 287.382c.056-.209.106-.418.165-.627-.059.208-.108.418-.165.627z" fill="#ff68c1"/></g><g><path d="m14.057 285.544c.068-.217.132-.435.203-.651-.072.216-.135.434-.203.651z" fill="#ff68c1"/></g><g><path d="m12.421 302.168c-.057-.426-.109-.851-.15-1.276.041.425.093.85.15 1.276z" fill="#ff68c1"/></g><g><path d="m14.684 283.673c.075-.21.148-.42.226-.629-.078.21-.151.42-.226.629z" fill="#ff68c1"/></g><g><path d="m12.759 304.214c-.092-.465-.177-.929-.249-1.394.072.464.157.929.249 1.394z" fill="#ff68c1"/></g><g><path d="m12.213 300.17c-.03-.402-.053-.804-.069-1.206.015.403.039.805.069 1.206z" fill="#ff68c1"/></g><g><path d="m12.14 296.245c.014-.375.037-.749.063-1.124-.025.375-.049.749-.063 1.124z" fill="#ff68c1"/></g><g><path d="m15.393 281.806c.078-.197.157-.393.238-.589-.082.196-.16.392-.238.589z" fill="#ff68c1"/></g><g><path d="m12.264 294.301c.033-.365.077-.729.121-1.093-.045.364-.088.729-.121 1.093z" fill="#ff68c1"/></g><g><path d="m12.806 290.443c.06-.311.133-.621.2-.932-.067.311-.14.621-.2.932z" fill="#ff68c1"/></g><g><path d="m12.487 292.368c.05-.352.113-.704.172-1.055-.06.352-.122.703-.172 1.055z" fill="#ff68c1"/></g><g><path d="m17.964 276.258c.054-.103.11-.206.165-.309-.055.103-.111.206-.165.309z" fill="#ff68c1"/></g><g><path d="m14.692 310.66c-.543-1.325-.994-2.652-1.36-3.981.366 1.329.817 2.656 1.36 3.981z" fill="#ff68c1"/></g><g><path d="m12.121 298.199c-.006-.386-.005-.773 0-1.159-.005.386-.006.773 0 1.159z" fill="#ff68c1"/></g><g><path d="m17.036 278.096c.072-.148.145-.296.218-.444-.073.148-.146.296-.218.444z" fill="#ff68c1"/></g><g><path d="m18.955 274.438c.015-.027.031-.054.047-.081-.016.027-.032.054-.047.081z" fill="#ff68c1"/></g><g><path d="m16.178 279.945c.078-.176.157-.353.238-.529-.081.176-.16.353-.238.529z" fill="#ff68c1"/></g><g><path d="m13.264 306.41c-.148-.553-.283-1.106-.402-1.659.119.553.255 1.106.402 1.659z" fill="#ff68c1"/></g><g><path d="m15.553 312.592c-.301-.628-.582-1.258-.841-1.887.259.63.54 1.259.841 1.887z" fill="#ff68c1"/></g><g><path d="m15.589 312.673c.001 0 .003-.001.004-.001-.013-.027-.027-.053-.04-.08.013.027.023.054.036.081z" fill="#ffa785"/></g><g><path d="m12.144 298.965c-.01-.255-.017-.511-.022-.766.004.255.011.511.022.766z" fill="#ffa785"/></g><g><path d="m12.272 300.891c-.023-.24-.041-.48-.059-.721.018.241.036.481.059.721z" fill="#ffa785"/></g><g><path d="m13.332 306.679c-.025-.09-.044-.18-.068-.269.024.09.043.18.068.269z" fill="#ffa785"/></g><g><path d="m12.51 302.82c-.033-.217-.06-.435-.089-.652.029.217.056.434.089.652z" fill="#ffa785"/></g><g><path d="m12.863 304.751c-.038-.179-.068-.358-.104-.537.035.179.066.358.104.537z" fill="#ffa785"/></g><g><path d="m14.712 310.705c-.006-.015-.013-.03-.02-.045.006.015.014.03.02.045z" fill="#ffa785"/></g><g><path d="m12.659 291.313c.049-.29.092-.58.148-.87-.056.29-.099.58-.148.87z" fill="#ffa785"/></g><g><path d="m14.91 283.044c.154-.414.317-.826.483-1.238-.166.412-.329.824-.483 1.238z" fill="#ffa785"/></g><g><path d="m16.415 279.416c.201-.441.408-.881.621-1.32-.213.439-.419.879-.621 1.32z" fill="#ffa785"/></g><g><path d="m15.631 281.217c.176-.425.359-.849.547-1.272-.187.423-.371.847-.547 1.272z" fill="#ffa785"/></g><g><path d="m17.255 277.652c.23-.466.466-.93.709-1.394-.244.464-.479.928-.709 1.394z" fill="#ffa785"/></g><g><path d="m18.129 275.949c.269-.505.542-1.009.826-1.511-.284.502-.557 1.006-.826 1.511z" fill="#ffa785"/></g><g><path d="m12.122 297.04c.004-.265.009-.53.019-.795-.011.265-.015.53-.019.795z" fill="#ffa785"/></g><g><path d="m12.384 293.208c.034-.28.063-.56.103-.84-.04.28-.069.56-.103.84z" fill="#ffa785"/></g><g><path d="m14.26 284.892c.134-.407.279-.813.424-1.219-.145.406-.29.812-.424 1.219z" fill="#ffa785"/></g><g><path d="m12.203 295.121c.019-.273.036-.547.06-.82-.024.274-.041.547-.06.82z" fill="#ffa785"/></g><g><path d="m13.006 289.512c.154-.711.325-1.421.515-2.13-.19.708-.361 1.418-.515 2.13z" fill="#ffa785"/></g><g><path d="m13.687 286.755c.115-.405.243-.808.37-1.211-.127.403-.255.806-.37 1.211z" fill="#ffa785"/></g><g><path d="m95.737 284.164c-37.11.681-60.896 1.59-73.598-14.871-8.655 12.417-13.796 29.128-6.546 43.379 26.837-8.66 55.187-15.606 80.144-28.508z" fill="#ff7d87"/></g></g><g><path d="m378.557 420.427c4.988-1.908 12.578-5.083 15.412-9.92 1.987-3.392-1.056-5.085-3.672-6.718-2.994-1.869-5.802-3.813-8.593-5.972-13.355-10.329-28.162-18.576-41.527-28.857-6.561-5.048-12.911-10.357-19.147-15.8-6.683-5.833-13.027-12.221-20.19-17.468-6.21-4.549-12.85-8.394-18.522-13.639-.483-.446-.964-.896-1.444-1.347 3.659 7.92 8.446 20.528 14.583 40.537 8.861 28.892 29.958 50.9 49.577 66.013 11.454-.84 23.066-2.83 33.523-6.829z" fill="#ffa785"/></g><g><path d="m255.633 428.758c-14.545 0-26.214-10.733-25.787-30.517l6.203-179.612h39.168l6.203 179.612c.427 19.783-11.242 30.517-25.787 30.517z" fill="#fff2a5"/></g><g><ellipse cx="255.633" cy="193.877" fill="#ff8cc0" rx="34.195" ry="34.195" transform="matrix(.526 -.851 .851 .526 -43.683 309.404)"/></g><g><ellipse cx="255.633" cy="193.877" fill="#fff2a5" rx="34.195" ry="34.195" transform="matrix(.526 -.851 .851 .526 -43.683 309.404)"/></g></g><path d="m509.597 292.224c-2.11-18.264-14.812-37.443-37.756-57.004-8.018-6.836-15.861-12.483-21.84-16.503 19.242-23.452 29.076-59.38 34.035-87.121 6.999-39.158 7.148-77.58 4.191-98.286-2.061-14.438-5.6-21.836-11.832-24.734-7.49-3.486-15.035 2.028-21.517 7.472-5.534 4.647-12.584 11.434-21.556 20.75-14.927 15.5-34.917 37.798-59.417 66.274-26.476 30.773-53.874 63.725-74.139 88.344-.699-12.675-6.76-23.943-15.949-31.567.001-.056.008-.11.008-.167v-34.432c0-3.984 3.241-7.225 7.225-7.225 3.983 0 7.224 3.241 7.224 7.225 0 5.53 4.483 10.012 10.012 10.012s10.014-4.482 10.014-10.012c0-15.025-12.224-27.249-27.248-27.249-15.026 0-27.249 12.223-27.249 27.249v25.189c-2.65-.497-5.378-.769-8.17-.769s-5.521.272-8.171.769v-25.189c0-15.025-12.223-27.249-27.249-27.249-15.025 0-27.248 12.223-27.248 27.249 0 5.53 4.483 10.012 10.012 10.012s10.012-4.482 10.012-10.012c0-3.984 3.241-7.225 7.224-7.225 3.984 0 7.225 3.241 7.225 7.225v34.431c0 .056.007.111.008.167-9.002 7.469-14.992 18.438-15.89 30.797-20.84-25.283-47.628-57.433-73.72-87.742-24.515-28.478-44.496-50.76-59.388-66.228-8.924-9.271-15.934-16.025-21.429-20.648-6.447-5.425-13.95-10.921-21.418-7.451-6.231 2.899-9.769 10.296-11.831 24.734-2.956 20.707-2.806 59.128 4.193 98.286 4.959 27.741 14.793 63.67 34.035 87.121-5.98 4.02-13.822 9.667-21.84 16.503-22.943 19.561-35.646 38.74-37.756 57.004-1.793 15.52 3.949 29.592 17.064 41.825 9.619 8.971 29.934 12.602 51.216 13.685-4.96 3.708-9.295 7.568-12.959 11.574-13.321 14.564-18.351 31.037-14.947 48.962 4.769 25.129 15.836 35.081 24.729 43.077 9.946 8.944 16.517 14.853 9.8 48.649-.562 2.831.124 5.767 1.883 8.055 1.76 2.288 4.42 3.705 7.301 3.889.184.011 1.029.06 2.381.06 7.125 0 28.298-1.343 40.659-16.461 7.844-9.594 10.462-22.293 7.819-37.826 17.983-9.009 62.681-34.968 83.099-78.834l-.607 19.043c-.001.034-.002.069-.003.103-.27 12.523 3.445 23.084 10.742 30.542 6.439 6.58 15.337 10.203 25.055 10.203 9.717 0 18.616-3.623 25.054-10.203 7.298-7.457 11.012-18.018 10.742-30.542-.001-.034-.002-.069-.003-.103l-.664-20.811c20.026 44.933 65.667 71.473 83.889 80.602-2.643 15.533-.025 28.232 7.819 37.826 12.36 15.12 33.536 16.461 40.659 16.461 1.351 0 2.197-.048 2.381-.06 2.88-.184 5.541-1.601 7.301-3.889 1.759-2.288 2.445-5.224 1.883-8.055-6.717-33.796-.147-39.705 9.8-48.649 8.892-7.997 19.96-17.948 24.729-43.077 3.445-18.142-1.743-34.787-15.42-49.474-3.56-3.823-7.737-7.512-12.487-11.063 21.28-1.084 41.597-4.715 51.215-13.685 13.116-12.233 18.858-26.305 17.065-41.824zm-19.89 2.313c.317 2.755.198 5.431-.354 8.042l-72.621-18.644c-.132-2.821-.753-5.655-1.881-8.49-5.554-13.95-22.325-24.676-35.007-31.082l46.944-17.143c.72.823 1.568 1.541 2.541 2.1 15.748 9.054 57.299 38.419 60.378 65.217zm-96.94 52.29c2.164.16 4.458.315 6.841.459 6.29 2.684 11.999 5.462 17.121 8.332.618 7.805.874 29.761-13.499 44.937-.739.78-1.514 1.526-2.311 2.252-.384-.478-.846-.906-1.387-1.26-.691-.453-61.007-40.073-95.208-70.035 23.301 7.214 55.22 12.854 88.443 15.315zm-52.134-173.38c12.863.156 41.295 2.945 46.744 14.887 3.768 8.256-4.896 20.425-12.828 29.18-27.895 30.788-61.619 44.396-87.269 50.377l-.913-28.642c.365-.333.717-.688 1.038-1.083 9.812-12.09 29.688-36.464 53.228-64.719zm-34.86 137.521c-5.933-2.008-11.035-4.113-15.086-6.273-.732-.39-1.492-.669-2.262-.864l-.756-23.71c20.617-4.545 46.567-13.731 71.195-32.16.537.466 1.161.848 1.869 1.106 9.99 3.65 37.182 16.304 42.958 30.83 1.557 3.915 1.388 7.524-.528 11.357-8.124 16.251-59.419 20.567-97.39 19.714zm161.904-279.604c2.579 12.953 4.008 42.238-.619 78.747-6.212 49.009-20.551 86.548-39.34 102.994-.513.449-.96.952-1.364 1.485l-49.828 18.196c2.339-2.302 4.652-4.695 6.926-7.206 14.311-15.797 19.529-29.412 15.548-40.512 4.459-3.06 17.323-12.869 27.783-30.521 10.9-18.393 21.037-48.97 9.884-92.106 16.457-17.784 25.776-26.66 31.01-31.077zm-84.483 91.632c17.785-20.776 32.112-37.055 43.655-49.816 5.809 28.18 2.434 53.267-10.103 74.736-9.385 16.072-21.213 24.948-24.612 27.288-10.607-9.368-29.207-12.403-41.811-13.358 10.602-12.659 21.731-25.837 32.871-38.85zm-103.378 70.881c0 13.335-10.849 24.183-24.183 24.183-13.335 0-24.184-10.849-24.184-24.183 0-13.335 10.849-24.183 24.184-24.183 13.334 0 24.183 10.848 24.183 24.183zm-168.736 208.929c-.796-.725-1.571-1.471-2.31-2.251-14.373-15.176-14.117-37.128-13.498-44.933 5.105-2.862 10.777-5.635 17.043-8.311.016-.007.031-.016.047-.023 2.393-.145 4.697-.3 6.87-.461 33.223-2.46 65.143-8.101 88.444-15.315-34.202 29.962-94.518 69.581-95.209 70.035-.541.353-1.002.781-1.387 1.259zm-2.246-111.551c-1.916-3.834-2.083-7.442-.527-11.357 5.775-14.527 32.968-27.181 42.958-30.83.71-.259 1.337-.643 1.875-1.111 24.49 18.307 50.241 27.447 70.46 31.996l-.768 24.098c-.515.174-1.025.38-1.52.645-3.652 1.947-8.163 3.85-13.363 5.678-38.579 1.143-90.964-2.821-99.115-19.119zm116.087-52.687-.929 29.143c-25.213-6.003-58.796-19.574-86.541-50.198-7.93-8.753-16.593-20.92-12.831-29.175 4.938-10.835 30.118-14.781 46.662-14.9 23.005 27.586 42.807 51.813 53.639 65.13zm-63.325-76.717c-12.602.962-31.145 4.005-41.729 13.352-3.404-2.342-15.229-11.22-24.612-27.287-12.521-21.442-15.904-46.492-10.126-74.629 11.503 12.722 25.771 28.93 43.469 49.592 11.134 12.999 22.306 26.217 32.998 38.972zm-116.655-51.741c-4.621-36.456-3.202-65.709-.631-78.69 5.243 4.448 14.563 13.35 30.996 31.119-11.112 43.084-.981 73.628 9.91 92.007 10.46 17.651 23.323 27.46 27.782 30.521-3.982 11.1 1.235 24.715 15.548 40.512 2.276 2.512 4.591 4.906 6.932 7.208l-49.831-18.197c-.405-.533-.853-1.037-1.366-1.486-18.789-16.445-33.128-53.985-39.34-102.994zm-22.649 184.427c3.08-26.798 44.629-56.163 60.374-65.214.975-.559 1.826-1.277 2.547-2.102l46.942 17.142c-12.682 6.405-29.453 17.132-35.008 31.082-1.129 2.835-1.75 5.669-1.882 8.49l-72.62 18.644c-.551-2.61-.669-5.286-.353-8.042zm5.589 19.103 69.783-17.916c.138.301.275.603.425.903 6.812 13.626 28.199 21.703 65.316 24.652-14.329 2.476-29.891 4.411-45.652 5.578-48.782 3.615-78.064-1.331-84.629-7.453-2.034-1.896-3.777-3.816-5.243-5.764zm94.086 129.184c-4.619 1.943-7.09 7.001-5.784 11.839 3.433 12.715 2.722 22.185-2.113 28.148-3.637 4.485-9.539 6.872-14.991 8.078 3.916-31.557-5.198-42.752-18.185-54.43-7.681-6.907-14.936-13.431-18.446-31.923-2.856-15.049 4.058-28.794 20.581-41.067.285 12.181 3.281 30.783 16.938 45.263 11.115 11.784 27.018 18.48 47.448 20.032-14.174 9.199-25.179 13.946-25.448 14.06zm41.887-25.916c-17.253.879-31.397-1.455-42.295-6.967 11.508-7.623 58.594-39.192 89.956-65.87-1.475 4.425-2.99 9.166-4.546 14.239-7.654 24.957-25.646 44.572-43.115 58.598zm102.522-2.347c-3.385 3.459-7.71 4.185-10.743 4.185s-7.359-.726-10.744-4.185c-3.437-3.511-5.177-9.063-5.034-16.056l5.157-161.72c3.404.843 6.96 1.298 10.622 1.298 3.661 0 7.216-.455 10.62-1.298l2.526 79.216c-.021.497-.006.996.048 1.495l2.583 81.009c.143 6.993-1.598 12.545-5.035 16.056zm38.655-56.251c-1.557-5.074-3.072-9.815-4.546-14.239 31.362 26.679 78.449 58.249 89.956 65.871-10.898 5.512-25.041 7.847-42.294 6.967-17.471-14.027-35.462-33.642-43.116-58.599zm144.52 46.226c-3.51 18.491-10.766 25.015-18.447 31.922-12.986 11.678-22.1 22.871-18.185 54.429-5.418-1.202-11.311-3.575-14.947-8.022-4.874-5.962-5.599-15.45-2.157-28.202 1.304-4.83-1.167-9.885-5.775-11.834-.272-.115-11.28-4.864-25.457-14.064 20.43-1.553 36.335-8.249 47.449-20.032 13.657-14.479 16.653-33.081 16.938-45.262 16.52 12.269 23.439 26.011 20.581 41.065zm29.324-85.131c-6.564 6.122-35.846 11.065-84.628 7.453-15.235-1.128-30.284-2.975-44.214-5.333 36.194-3.217 57.116-11.375 63.877-24.897.151-.301.287-.603.425-.904l69.784 17.916c-1.466 1.948-3.21 3.868-5.244 5.765z" fill="#4e0325"/><g><g><path d="m118.921 152.711c-2.633 0-5.216-1.061-7.079-2.934-.461-.46-.881-.971-1.241-1.512-.361-.55-.671-1.131-.921-1.732s-.451-1.231-.571-1.872c-.13-.651-.2-1.301-.2-1.962 0-.651.07-1.301.2-1.952.12-.64.321-1.271.571-1.872s.56-1.182.921-1.732c.36-.541.78-1.061 1.241-1.522.461-.46.972-.881 1.522-1.242.541-.36 1.121-.671 1.731-.921.601-.25 1.232-.44 1.872-.57 1.282-.261 2.614-.261 3.905 0 .64.13 1.271.32 1.872.57.61.25 1.191.561 1.731.921.55.36 1.062.781 1.522 1.242.461.46.881.981 1.242 1.522.369.55.671 1.131.921 1.732s.45 1.231.57 1.872c.13.651.2 1.302.2 1.952 0 .661-.07 1.312-.2 1.962-.12.641-.32 1.271-.57 1.872s-.552 1.182-.921 1.732c-.361.541-.781 1.051-1.242 1.512-.461.471-.972.881-1.522 1.251-.541.361-1.121.671-1.731.922-.601.25-1.232.44-1.872.57-.639.131-1.3.191-1.951.191z" fill="#fff"/></g><g><path d="m171.661 222.056c-2.855 0-5.69-1.215-7.671-3.572l-12.994-15.469c-3.556-4.234-3.007-10.549 1.227-14.106 4.232-3.557 10.548-3.008 14.106 1.226l12.994 15.469c3.556 4.234 3.007 10.549-1.227 14.105-1.877 1.578-4.162 2.347-6.435 2.347z" fill="#fff"/></g></g></g><g><g><path d="m344.452 2.45-8.224 23.125c-.352.99-1.049 1.775-1.929 2.171l-20.546 9.256c-2.903 1.308-2.903 5.933 0 7.24l20.546 9.257c.88.396 1.577 1.181 1.929 2.171l8.224 23.125c1.162 3.267 5.271 3.267 6.433 0l8.224-23.125c.352-.99 1.049-1.775 1.929-2.171l20.546-9.257c2.903-1.308 2.903-5.933 0-7.24l-20.546-9.256c-.88-.396-1.577-1.181-1.929-2.171l-8.225-23.125c-1.161-3.267-5.27-3.267-6.432 0z" fill="#ffc5dd"/></g><g><path d="m161.304 28.092-6.101 17.154c-.261.735-.778 1.317-1.431 1.611l-15.241 6.866c-2.153.97-2.153 4.401 0 5.371l15.241 6.866c.652.294 1.169.876 1.431 1.61l6.101 17.154c.862 2.423 3.91 2.423 4.772 0l6.101-17.154c.261-.734.778-1.316 1.431-1.61l15.24-6.866c2.153-.97 2.153-4.4 0-5.371l-15.24-6.866c-.652-.294-1.17-.876-1.431-1.611l-6.101-17.154c-.862-2.423-3.91-2.423-4.772 0z" fill="#ffc5dd"/></g><g><path d="m240.608 26.275c0 4.147 3.362 7.509 7.509 7.509s7.509-3.362 7.509-7.509-3.362-7.509-7.509-7.509-7.509 3.362-7.509 7.509z" fill="#ff8cc0"/></g></g></g></svg>