<svg id="Capa_1" enable-background="new 0 0 512 512" height="512" viewBox="0 0 512 512" width="512" xmlns="http://www.w3.org/2000/svg"><g><g><g><g><path d="m475.347 158.028c0-41.749-34.329-75.479-76.299-74.503-39.086.909-71.159 32.447-72.69 71.513-.837 21.37 7.343 40.825 21.025 54.906v67.151c0 32.862-26.64 59.502-59.503 59.502h-178.093c-29.507 0-53.426 23.92-53.426 53.427 0 29.507 23.92 53.426 53.426 53.426h217.795c69.949 0 126.654-56.705 126.654-126.654v-106.823c13.057-13.424 21.111-31.739 21.111-51.945z" fill="#fff2a5"/></g><g><path d="m347.382 390.024v-112.926c-.001 32.861-26.641 59.5-59.502 59.5h-178.093c-29.506 0-53.426 23.92-53.426 53.427 0 29.507 23.92 53.427 53.426 53.427h184.169c29.506-.001 53.426-23.921 53.426-53.428z" fill="#ffe35c"/></g><g><path d="m399.047 83.525c-6.85.159-13.478 1.278-19.771 3.195 26.241 8.535 45.217 33.175 45.217 62.263 0 12.161-3.32 23.543-9.1 33.297-6.16 10.398-9.449 22.244-9.449 34.33v71.871c0 42.384-23.697 79.23-58.562 98.022v3.521c0 29.507-23.92 53.427-53.427 53.427h33.626c69.949 0 126.654-56.705 126.654-126.654v-106.824c13.057-13.424 21.111-31.739 21.111-51.945.001-41.748-34.329-75.479-76.299-74.503z" fill="#ffb7a9"/></g><g><path d="m347.382 390.024v-3.521c-15.691 8.457-33.644 13.26-52.719 13.26h-191.36c-19.553 0-36.307-11.958-43.366-28.956-.001.002-.001.003-.002.005-.274.71-.531 1.427-.775 2.151-.021.062-.042.123-.063.185-.225.677-.436 1.361-.636 2.05-.036.125-.071.25-.107.375-.179.638-.347 1.281-.503 1.929-.047.194-.09.39-.135.585-.136.594-.265 1.19-.381 1.791-.052.27-.097.542-.145.812-.096.54-.189 1.082-.268 1.627-.052.362-.094.727-.139 1.092-.059.471-.12.941-.167 1.416-.047.489-.078.984-.112 1.477-.025.364-.059.726-.077 1.092-.042.871-.066 1.747-.066 2.629 0 29.507 23.92 53.427 53.426 53.427h184.169c29.506.001 53.426-23.919 53.426-53.426z" fill="#ffac62"/></g><g><path d="m112.309 333.632 23.002-43.676c5.165-9.807 1.402-21.945-8.406-27.109-9.807-5.165-21.944-1.402-27.109 8.406l-16.428 31.053c-2.458 4.647-8.215 6.426-12.867 3.976l-31.01-16.331c-9.807-5.165-21.945-1.402-27.109 8.406-5.165 9.807-1.401 21.944 8.406 27.109l49.299 25.963" fill="#ffe35c"/></g></g><g fill="#4e0325"><path d="m496.626 347.999c-6.739 4.202-22.179 4.907-32.753-.44-.927-.469-1.893-.78-2.867-.945 1.904-8.523 3.017-17.342 3.241-26.378 5.53 1.549 11.432 2.322 17.225 2.322 9.631 0 18.964-2.136 25.789-6.388 4.713-2.937 6.153-9.138 3.217-13.851-2.936-4.712-9.138-6.154-13.851-3.217-6.654 4.145-21.776 4.874-32.336-.249v-27.503c5.517 1.541 11.403 2.311 17.182 2.311 9.631 0 18.964-2.137 25.79-6.389 4.713-2.937 6.152-9.139 3.215-13.852-2.936-4.713-9.138-6.153-13.852-3.216-6.652 4.148-21.776 4.877-32.335-.249v-36.045c13.644-15.463 21.111-35.147 21.111-55.882 0-22.964-9.047-44.451-25.475-60.501-7.471-7.3-16.039-13.025-25.317-17.07l-.061-41.24c.037-2.898 1.194-5.611 3.263-7.643 2.055-2.019 4.766-3.127 7.642-3.127.033 0 .066 0 .099.001 6.015.053 10.866 4.99 10.813 11.005-.049 5.553 4.413 10.094 9.965 10.143h.091c5.511 0 10.004-4.444 10.052-9.966.151-17.102-13.64-31.139-30.743-31.292-.093 0-.186-.001-.278-.001-16.977 0-30.864 13.735-31.014 30.746v.103l.052 35.376c-5.125-.826-10.363-1.21-15.677-1.088-2.211.051-4.394.212-6.561.431l-.148-35.219c0-.086-.002-.173-.004-.259-.513-17.094-14.83-30.624-31.936-30.074-17.096.514-30.587 14.839-30.074 31.935.167 5.551 4.804 9.959 10.352 9.748 5.551-.166 9.915-4.801 9.749-10.351-.18-6.012 4.565-11.052 10.576-11.232 5.989-.162 10.991 4.509 11.228 10.468l.167 39.546c-31.536 11.392-54.474 41.019-55.851 76.178-.862 21.999 6.576 42.874 21.016 59.236v63.215c0 27.265-22.182 49.448-49.448 49.448h-160.474l16.801-31.903c7.74-14.697 2.08-32.951-12.617-40.691-7.12-3.749-15.273-4.501-22.959-2.119-7.685 2.383-13.983 7.617-17.724 14.72l-16.183 30.591-30.548-16.088c-14.696-7.741-32.951-2.08-40.691 12.617-3.75 7.12-4.503 15.273-2.119 22.958 2.383 7.685 7.617 13.984 14.736 17.733l40.374 21.263c-6.424 9.92-10.171 21.727-10.171 34.4 0 31.582 23.185 57.842 53.426 62.677v40.909c0 5.553 4.502 10.055 10.055 10.055s10.055-4.502 10.055-10.055v-40.105h29.606v40.105c0 5.553 4.502 10.055 10.055 10.055s10.055-4.502 10.055-10.055v-40.105h29.606v40.105c0 5.553 4.502 10.055 10.055 10.055s10.055-4.502 10.055-10.055v-40.105h29.607v40.105c0 5.553 4.502 10.055 10.055 10.055s10.055-4.502 10.055-10.055v-40.105h29.606v40.105c0 5.553 4.502 10.055 10.055 10.055s10.055-4.502 10.055-10.055v-40.105h8.876c7.046 0 13.969-.537 20.731-1.57v41.674c0 5.553 4.502 10.055 10.055 10.055s10.055-4.502 10.055-10.055v-46.337c19.404-6.087 36.956-16.394 51.583-29.838 11.601 12.999 29.527 25.383 45.053 30.891 1.111.394 2.246.581 3.362.581 4.138 0 8.014-2.574 9.477-6.697 1.856-5.234-.881-10.981-6.115-12.838-12.995-4.609-28.687-15.687-37.938-26.671 8.947-11.046 16.209-23.507 21.394-36.993 7.776 3.829 17.134 5.748 26.235 5.748 9.631 0 18.964-2.137 25.79-6.389 4.713-2.937 6.152-9.139 3.215-13.852-2.938-4.714-9.14-6.154-13.853-3.216zm-476.052-37.326c-.792-2.555-.542-5.265.704-7.633 2.573-4.885 8.642-6.766 13.527-4.195l31.01 16.331c9.536 5.023 21.399 1.358 26.44-8.171l16.436-31.07c1.247-2.366 3.34-4.106 5.895-4.899 2.557-.792 5.266-.54 7.632.704 2.367 1.247 4.107 3.34 4.899 5.896.792 2.555.542 5.266-.705 7.632l-21.859 41.506c-12.819 1.052-24.566 5.924-34.105 13.48l-44.977-23.687c-2.365-1.245-4.105-3.339-4.897-5.894zm45.841 79.351c0-23.915 19.456-43.371 43.371-43.371h178.094c19.326 0 36.83-7.928 49.448-20.696v64.068c0 23.915-19.456 43.371-43.371 43.371h-184.17c-23.915 0-43.372-19.457-43.372-43.372zm377.766-180.051v106.824c0 59.761-45.195 109.156-103.199 115.824 10.22-11.272 16.456-26.219 16.456-42.597v-19.715c3.974.749 8.05 1.147 12.081 1.147 9.631 0 18.964-2.137 25.79-6.389 4.713-2.937 6.152-9.139 3.215-13.852-2.936-4.713-9.138-6.154-13.852-3.216-5.639 3.515-17.361 4.566-27.234 1.69v-28.277c3.974.749 8.05 1.146 12.081 1.146 9.631 0 18.964-2.136 25.789-6.388 4.713-2.937 6.153-9.138 3.217-13.851-2.936-4.712-9.137-6.154-13.851-3.217-5.64 3.513-17.361 4.564-27.235 1.69v-23.697-4.58c3.974.749 8.05 1.147 12.081 1.147 9.631 0 18.964-2.137 25.79-6.389 4.713-2.937 6.152-9.139 3.215-13.852-2.936-4.713-9.138-6.153-13.852-3.216-5.639 3.515-17.361 4.566-27.234 1.69v-41.951c0-2.617-1.02-5.13-2.844-7.007-12.428-12.79-18.887-29.662-18.189-47.505 1.328-33.896 28.947-61.066 62.876-61.854 17.539-.395 34.074 6.104 46.591 18.334 12.523 12.235 19.419 28.612 19.419 46.117 0 16.867-6.486 32.826-18.264 44.934-1.825 1.877-2.847 4.391-2.847 7.01z"/><path d="m366.488 149.446c-5.051-.785-9.781 2.674-10.566 7.724-.785 5.051 2.673 9.781 7.724 10.566s9.781-2.674 10.566-7.724c.785-5.051-2.673-9.781-7.724-10.566z"/><path d="m412.831 160.545c-3.335-.163-6.163 2.391-6.331 5.719-.09 1.774-1.602 3.154-3.382 3.054-.859-.044-1.65-.419-2.226-1.058-.577-.639-.871-1.464-.827-2.324.169-3.328-2.391-6.163-5.719-6.331-3.329-.164-6.163 2.391-6.331 5.719-.208 4.078 1.186 7.993 3.922 11.024 2.738 3.03 6.491 4.813 10.569 5.021.263.014.524.02.784.02 8.076 0 14.845-6.356 15.26-14.511.169-3.329-2.391-6.164-5.719-6.333z"/><path d="m438.884 147.206c-5.051-.785-9.781 2.673-10.566 7.724s2.673 9.781 7.724 10.566 9.781-2.673 10.566-7.724-2.673-9.782-7.724-10.566z"/><path d="m285.853 403.234c3.332 0 6.033-2.701 6.033-6.033v-11.776c0-3.332-2.701-6.033-6.033-6.033s-6.033 2.701-6.033 6.033v11.776c0 3.332 2.701 6.033 6.033 6.033z"/><path d="m254.388 388.304c3.332 0 6.033-2.701 6.033-6.033v-11.776c0-3.332-2.701-6.033-6.033-6.033s-6.033 2.701-6.033 6.033v11.776c0 3.332 2.701 6.033 6.033 6.033z"/><path d="m226.157 412.38c3.332 0 6.033-2.701 6.033-6.033v-11.777c0-3.332-2.701-6.033-6.033-6.033s-6.033 2.701-6.033 6.033v11.776c0 3.332 2.701 6.034 6.033 6.034z"/></g><g><g><path d="m187.456 380.549h-40.382c-5.553 0-10.055-4.502-10.055-10.055s4.502-10.055 10.055-10.055h40.382c5.553 0 10.055 4.502 10.055 10.055s-4.502 10.055-10.055 10.055z" fill="#fff"/></g><g><path d="m113.797 380.549h-2.428c-5.553 0-10.055-4.502-10.055-10.055s4.502-10.055 10.055-10.055h2.428c5.553 0 10.055 4.502 10.055 10.055s-4.502 10.055-10.055 10.055z" fill="#fff"/></g></g></g><g><g><path d="m43.082 78.85-8.26 23.224c-.354.994-1.054 1.782-1.937 2.18l-20.634 9.296c-2.915 1.313-2.915 5.958 0 7.271l20.634 9.296c.883.398 1.583 1.186 1.937 2.18l8.26 23.224c1.167 3.281 5.293 3.281 6.46 0l8.259-23.224c.354-.994 1.054-1.782 1.937-2.18l20.634-9.296c2.915-1.313 2.915-5.958 0-7.271l-20.634-9.296c-.883-.398-1.583-1.186-1.937-2.18l-8.258-23.224c-1.167-3.281-5.294-3.281-6.461 0z" fill="#fff2a5"/></g><g><path d="m218.028 158.176-6.127 17.227c-.262.738-.782 1.322-1.437 1.617l-15.306 6.896c-2.162.974-2.162 4.419 0 5.394l15.306 6.896c.655.295 1.175.88 1.437 1.617l6.127 17.228c.866 2.434 3.926 2.434 4.792 0l6.127-17.228c.262-.738.782-1.322 1.437-1.617l15.306-6.896c2.162-.974 2.162-4.419 0-5.394l-15.306-6.896c-.655-.295-1.175-.88-1.437-1.617l-6.127-17.227c-.866-2.434-3.927-2.434-4.792 0z" fill="#fff2a5"/></g><g><path d="m224.376 36.427c0 9.961 8.075 18.035 18.035 18.035s18.035-8.075 18.035-18.035c0-9.961-8.074-18.035-18.035-18.035s-18.035 8.075-18.035 18.035z" fill="#ffe35c"/></g><g><ellipse cx="154.615" cy="83.931" fill="#ffe35c" rx="7.541" ry="7.541" transform="matrix(.707 -.707 .707 .707 -14.063 133.912)"/></g></g></g></svg>