<svg id="Capa_1" enable-background="new 0 0 512 512" height="512" viewBox="0 0 512 512" width="512" xmlns="http://www.w3.org/2000/svg"><g><g><g><g><g><path d="m185.551 130.079c5.087-26.365 27.839-116.718-29.263-119.914-63.507-3.555-58.044 82.483-58.044 82.483s-63.677-8.569-64.907 36.065c-1.046 37.956 69.636 47.986 94.885 49.449" fill="#98e8f2"/></g><g><path d="m189.291 134.539c26.848-.42 122.052-8.757 115.258 48.029-7.555 63.157-91.328 42.799-91.328 42.799s-2.647 64.196-46.813 57.638c-37.559-5.577-36.729-72.452-33.774-97.57" fill="#98e8f2"/></g><g><path d="m189.291 134.539-7.019 6.306c19.673-.459 82.426-5.271 77.86 32.902-3.72 31.098-34.431 32.62-51.384 31.023-5.99-.564-11.417 3.437-12.688 9.317-2.743 12.693-10.242 31.428-30.5 28.42-25.221-3.745-25.157-47.86-23.236-65.775l-9.689 8.704c-2.955 25.118-3.784 91.993 33.774 97.57 44.166 6.558 46.813-57.638 46.813-57.638s83.774 20.358 91.329-42.799c6.792-56.788-88.412-48.45-115.26-48.03z" fill="#a6aff4"/></g></g><g><g><path d="m365.841 372.253c-11.472-22.766-46.791-103.869-91.56-73.144-49.791 34.172 4.23 95.663 4.23 95.663s-52.827 30.502-27.858 64.759c21.234 29.132 80.174-4.335 99.998-17.884" fill="#ffe35c"/></g><g><path d="m365.841 372.253c-11.472-22.766-46.791-103.869-91.56-73.144-49.791 34.172 4.23 95.663 4.23 95.663s-52.827 30.502-27.858 64.759" fill="#ffe35c"/></g><g><g><path d="m345.682 351.325c.839 1.714 1.589 3.246 2.243 4.543l-9.026 41.237c-2.292 10.469-8.974 19.463-18.376 24.609-21.242 11.628-53.272 23.965-66.74 5.487-1.483-2.035-2.68-4.042-3.64-6.016-6.892 10.931-9.71 24.323.512 38.347 21.234 29.133 80.174-4.335 99.998-17.884l15.19-69.395c-2.452-4.865-5.994-12.396-10.483-20.928z" fill="#ffac62"/></g></g><g><path d="m371.239 373.435c19.934-15.891 86.646-77.389 114.485-30.771 30.962 51.848-43.807 85.149-43.807 85.149s35.254 49.781-1.744 70.475c-31.462 17.598-69.636-33.142-81.987-53.734" fill="#ffe35c"/></g><g><path d="m480.131 349.662c-8.885-14.878-21.732-18.734-35.752-16.584 3.564 2.092 6.781 5.288 9.505 9.851 16.387 27.44-6.095 48.063-21.356 58.1-6.132 4.033-8.437 11.952-5.435 18.649 5.599 12.492 10.16 31.718-7.918 41.829-23.024 12.878-48.998-31.078-59.495-47.781l-5.384 28.73c12.351 20.591 54.413 73.43 85.876 55.832 36.998-20.694-.636-73.01-.636-73.01s71.557-23.768 40.595-75.616z" fill="#ffac62"/></g></g></g><g fill="#4e0325"><path d="m494.358 337.508c-7.193-12.045-17.15-19.241-29.597-21.389-27.083-4.672-58.643 16.558-80.875 34.06l3.356-15.332c1.188-5.426-2.248-10.788-7.674-11.975-5.424-1.191-10.787 2.248-11.975 7.673l-3.469 15.846c-12.701-24.095-32.821-55.914-59.077-62.814-12.433-3.265-24.698-.831-36.458 7.239-14.629 10.04-23.046 23.124-25.014 38.886-3.109 24.892 11.315 49.805 20.426 62.714-10.261 7.693-25.414 21.737-29.225 39.738-2.433 11.492.246 23.007 7.749 33.301 5.762 7.906 15.988 15.679 33.925 15.678 7.747-.001 16.937-1.452 27.821-4.969 12.983-4.194 25.301-10.261 34.865-15.621l-1.256 5.738c-1.188 5.426 2.248 10.788 7.674 11.975.724.159 1.448.235 2.16.235 4.623 0 8.786-3.208 9.814-7.908l1.469-6.709c7.286 9.994 16.499 20.836 26.415 29.457 16.172 14.061 29.871 18.669 40.884 18.668 7.546-.001 13.832-2.165 18.784-4.934 11.117-6.218 18.361-15.561 20.952-27.019 4.057-17.947-3.843-37.036-9.952-48.313 13.671-7.921 37.183-24.531 44.758-48.445 4.798-15.144 2.617-30.546-6.48-45.78zm-149.382 95.838c-11.446 7.823-29.774 18.151-46.888 23.68-19.775 6.389-32.999 5.239-39.309-3.418-4.155-5.701-5.573-11.344-4.333-17.249 3.129-14.903 22.072-28.791 29.092-32.877 2.605-1.504 4.395-4.1 4.888-7.067s-.373-6.004-2.352-8.27c-.259-.296-25.83-29.915-22.535-55.998 1.254-9.923 6.628-18.018 16.431-24.746 6.818-4.679 13.349-6.109 19.964-4.369 23.855 6.269 45.108 49.667 54.183 68.199 1.024 2.091 1.939 3.959 2.74 5.548.136.27.287.527.443.779l-12.193 55.706c-.041.029-.087.052-.131.082zm136.704-56.178c-7.903 25.075-43.509 41.303-43.855 41.458-2.752 1.226-4.81 3.62-5.607 6.525-.797 2.906-.25 6.016 1.491 8.474 4.68 6.609 16.085 27.034 12.706 41.986-1.334 5.903-4.982 10.449-11.151 13.9-20.939 11.711-53.1-24.533-68.454-50.13-.538-.897-1.195-1.68-1.937-2.341l12.12-55.372c.173-.121.348-.236.515-.37 1.739-1.387 3.751-3.049 6.081-4.974 16.116-13.319 53.849-44.497 77.751-40.385 6.583 1.136 11.587 4.912 15.749 11.881 6.096 10.208 7.598 19.808 4.591 29.348z"/><path d="m290.701 225.727c13.614-9.448 21.633-23.567 23.834-41.965 1.735-14.509-1.889-26.775-10.773-36.456-19.755-21.526-60.599-23.846-90.452-23.464l11.287-9.467c4.255-3.57 4.812-9.913 1.242-14.168-3.568-4.256-9.911-4.814-14.168-1.243l-11.686 9.801c5.023-28.259 9.145-68.55-8.474-91.42-8.163-10.597-19.825-16.391-34.661-17.222-18.492-1.031-33.799 4.404-45.473 16.165-18.712 18.854-22.567 49.246-23.204 65.664-13.353-.189-35.45 1.662-50.105 14.125-9.307 7.915-14.419 19.104-14.784 32.359-.402 14.573 6.946 34.755 44.234 48.152 13.957 5.014 28.613 7.905 40.202 9.562l-5.656 4.744c-4.256 3.57-4.812 9.913-1.242 14.168 1.989 2.372 4.84 3.595 7.711 3.595 2.28 0 4.573-.771 6.457-2.351l6.452-5.411c-.433 13.255.231 28.689 3.024 42.629 7.41 36.989 26.095 47.296 40.464 49.429 2.555.379 5.061.568 7.515.568 10.143-.001 19.343-3.223 26.924-9.493 14.824-12.262 20.491-33.699 22.632-46.881 16.277 2.231 46.877 3.726 68.7-11.42zm-161.897-57.605c-34.712-2.01-86.104-14.091-85.413-39.132.209-7.59 2.721-13.335 7.679-17.565 12.354-10.542 37.285-9.931 45.833-8.809 2.982.403 5.985-.56 8.188-2.608s3.374-4.98 3.191-7.983c-.025-.417-2.3-41.801 17.406-61.603 7.548-7.583 17.378-10.926 30.038-10.216 8.86.496 15.354 3.576 19.853 9.415 16.005 20.775 5.758 70.806 1.383 92.17-.492 2.4-.931 4.544-1.285 6.383-.071.369-.117.737-.147 1.103l-46.361 38.884c-.123-.011-.242-.032-.365-.039zm86.792 47.473c-2.92-.713-6.008-.068-8.413 1.737-2.404 1.806-3.875 4.6-4.009 7.605-.384 8.629-4.124 33.285-16.654 43.615-5.029 4.146-11.126 5.621-18.635 4.504-11.618-1.725-19.59-12.991-23.696-33.485-3.622-18.081-3.185-39.213-1.567-52.961.135-1.147.061-2.267-.174-3.335l46.152-38.709c.28.018.562.033.848.028 2.337-.037 5.083-.128 8.262-.234 22.082-.737 73.796-2.455 91.232 16.545 4.804 5.235 6.643 11.93 5.622 20.467-1.507 12.595-6.508 21.689-15.29 27.801-22.929 15.958-63.287 6.516-63.678 6.422z"/><path d="m84.108 223.916c-1.709-5.277-7.386-8.169-12.667-6.469 0 0-.444.143-1.264.441-5.22 1.898-7.914 7.667-6.016 12.887 1.485 4.087 5.343 6.624 9.453 6.624 1.14 0 2.301-.195 3.434-.608.359-.131.581-.206.646-.228 5.262-1.725 8.121-7.377 6.414-12.647z"/><path d="m95.122 368.792c-.644-.328-1.288-.652-1.932-.97-4.98-2.456-11.011-.413-13.469 4.568s-.413 11.012 4.567 13.47c.57.281 1.141.568 1.712.858 1.461.743 3.019 1.096 4.553 1.096 3.663 0 7.195-2.008 8.971-5.498 2.519-4.951.548-11.005-4.402-13.524z"/><path d="m18.337 297.717c4.845 0 9.115-3.512 9.915-8.45.093-.573.194-1.138.303-1.7 1.058-5.453-2.504-10.731-7.957-11.788-5.454-1.062-10.731 2.503-11.789 7.956-.148.764-.286 1.536-.412 2.315-.889 5.482 2.836 10.647 8.319 11.536.545.088 1.087.131 1.621.131z"/><path d="m31.993 324.418c-1.867-5.232-7.619-7.958-12.852-6.092-5.231 1.866-7.959 7.62-6.092 12.851.264.742.536 1.468.813 2.181 1.55 3.976 5.349 6.407 9.373 6.407 1.214 0 2.45-.222 3.65-.69 5.175-2.017 7.735-7.847 5.718-13.023-.208-.533-.411-1.079-.61-1.634z"/><path d="m131.68 397.745c-.353-.433-.712-.863-1.091-1.307l-.413-.481c-3.636-4.2-9.987-4.655-14.186-1.021-4.199 3.636-4.656 9.987-1.02 14.187l.331.385c.268.314.532.63.791.948 1.988 2.439 4.882 3.702 7.8 3.702 2.234 0 4.483-.74 6.35-2.263 4.304-3.511 4.948-9.846 1.438-14.15z"/><path d="m46.263 256.082c3.989-3.865 4.091-10.231.226-14.221-3.864-3.988-10.232-4.09-14.221-.226-.542.524-1.081 1.06-1.617 1.604-3.898 3.957-3.849 10.324.108 14.222 1.959 1.929 4.509 2.891 7.057 2.891 2.599 0 5.198-1.002 7.166-3 .424-.43.851-.854 1.281-1.27z"/><path d="m56.083 351.582c-.54-.285-1.074-.573-1.604-.866-4.858-2.696-10.979-.944-13.674 3.912-2.696 4.857-.944 10.978 3.912 13.674.656.364 1.318.721 1.985 1.072 1.496.789 3.1 1.163 4.682 1.163 3.612 0 7.103-1.952 8.904-5.368 2.591-4.914.708-10.996-4.205-13.587z"/><path d="m148.92 440.177c-.698-5.512-5.743-9.405-11.242-8.712-5.51.699-9.411 5.733-8.712 11.242.077.611.147 1.22.212 1.827.549 5.161 4.911 8.993 9.988 8.993.355 0 .715-.019 1.076-.057 5.523-.588 9.524-5.542 8.936-11.066-.077-.74-.163-1.482-.258-2.227z"/><path d="m138.686 474.503c-5.374-1.396-10.866 1.83-12.262 7.206-.107.409-.174.651-.186.69-1.547 5.329 1.518 10.891 6.845 12.445.938.274 1.884.405 2.815.405 4.353 0 8.37-2.854 9.657-7.241 0 0 .126-.43.337-1.242 1.397-5.378-1.829-10.868-7.206-12.263z"/><path d="m442.049 368.397c-3.251-.713-6.472 1.348-7.185 4.604l-2.446 11.175c-.712 3.256 1.349 6.472 4.605 7.185.435.095.868.14 1.296.14 2.774 0 5.271-1.924 5.889-4.745l2.446-11.175c.712-3.255-1.349-6.471-4.605-7.184z"/><path d="m402.965 391.837c-3.251-.712-6.472 1.349-7.185 4.604l-2.446 11.175c-.712 3.256 1.349 6.472 4.605 7.185.435.095.868.14 1.296.14 2.773 0 5.271-1.924 5.889-4.745l2.446-11.175c.713-3.254-1.349-6.471-4.605-7.184z"/><path d="m415.451 442.045c-3.251-.711-6.472 1.349-7.185 4.604l-2.446 11.175c-.712 3.256 1.349 6.472 4.605 7.185.435.095.868.14 1.296.14 2.773 0 5.271-1.924 5.889-4.745l2.446-11.175c.712-3.254-1.35-6.471-4.605-7.184z"/><path d="m174.994 189.02-8.764 7.35c-2.553 2.142-2.887 5.948-.746 8.501 1.193 1.423 2.904 2.157 4.626 2.157 1.368 0 2.744-.463 3.874-1.41l8.765-7.35c2.553-2.142 2.887-5.948.746-8.501-2.142-2.555-5.948-2.889-8.501-.747z"/><path d="m234.432 181.312-8.764 7.35c-2.553 2.142-2.887 5.948-.746 8.501 1.194 1.423 2.904 2.157 4.626 2.157 1.368 0 2.744-.462 3.874-1.41l8.764-7.35c2.554-2.142 2.887-5.948.746-8.501-2.142-2.554-5.948-2.888-8.5-.747z"/><path d="m141.475 108.775-8.764 7.351c-2.553 2.141-2.887 5.948-.745 8.5 1.194 1.423 2.904 2.157 4.626 2.157 1.369 0 2.745-.462 3.875-1.411l8.764-7.351c2.553-2.141 2.887-5.948.745-8.5-2.142-2.555-5.948-2.888-8.501-.746z"/></g><g><g><path d="m131.415 95.217c-5.263 0-9.689-4.093-10.027-9.42-.067-1.062-.576-10.665 2.312-20.84 1.516-5.343 7.078-8.444 12.42-6.93 5.343 1.516 8.446 7.077 6.929 12.42-1.973 6.954-1.592 14.005-1.588 14.075.352 5.543-3.856 10.322-9.399 10.674-.217.014-.433.021-.647.021z" fill="#fff"/></g><g><path d="m156.673 52.95c-.19 0-.38-.005-.572-.016-.043-.002-.085-.005-.127-.008-5.405-.008-9.865-4.307-10.032-9.749-.17-5.543 4.178-10.175 9.717-10.359.263-.018.525-.023.796-.022.445.006.884.04 1.314.102 5.256.6 9.213 5.207 8.913 10.556-.299 5.354-4.715 9.496-10.009 9.496zm-1.028-20.131c-2.253.104-4.324 1.016-5.943 2.454 1.619-1.404 3.685-2.302 5.943-2.454z" fill="#fff"/></g><g><path d="m286.43 352.754c-.602 0-1.212-.054-1.824-.167-5.464-1.001-9.081-6.241-8.079-11.705 1.614-8.809 6.801-16.438 15.001-22.063 4.578-3.144 10.839-1.977 13.982 2.602 3.142 4.58 1.978 10.841-2.603 13.983-5.052 3.467-6.184 6.857-6.596 9.105-.889 4.85-5.12 8.245-9.881 8.245z" fill="#fff"/></g></g></g><g><g><path d="m464.248 14.959-8.261 23.229c-.354.994-1.054 1.783-1.938 2.181l-20.638 9.298c-2.916 1.314-2.916 5.959 0 7.273l20.638 9.298c.884.398 1.584 1.186 1.938 2.181l8.261 23.229c1.167 3.282 5.295 3.282 6.462 0l8.261-23.229c.354-.994 1.054-1.783 1.938-2.181l20.638-9.298c2.916-1.314 2.916-5.959 0-7.273l-20.638-9.298c-.884-.398-1.584-1.186-1.938-2.181l-8.261-23.229c-1.167-3.281-5.295-3.281-6.462 0z" fill="#98e8f2"/></g><g><path d="m401.4 205.457-6.128 17.231c-.262.738-.782 1.322-1.437 1.618l-15.309 6.897c-2.163.975-2.163 4.42 0 5.395l15.309 6.897c.655.295 1.175.88 1.437 1.618l6.128 17.231c.866 2.434 3.927 2.434 4.793 0l6.128-17.231c.262-.738.782-1.322 1.437-1.618l15.309-6.897c2.163-.975 2.163-4.42 0-5.395l-15.309-6.897c-.655-.295-1.175-.88-1.437-1.618l-6.128-17.231c-.866-2.435-3.927-2.435-4.793 0z" fill="#98e8f2"/></g><g><path d="m298.527 58.392c0 9.963 8.076 18.039 18.039 18.039s18.039-8.076 18.039-18.039-8.076-18.039-18.039-18.039-18.039 8.077-18.039 18.039z" fill="#75b7f2"/></g><g><circle cx="403.796" cy="138.176" fill="#75b7f2" r="7.543"/></g></g></g></svg>