<svg id="Capa_1" enable-background="new 0 0 512 512" height="512" viewBox="0 0 512 512" width="512" xmlns="http://www.w3.org/2000/svg"><g><g><g><g><path d="m277.97 92.296h35.518v116.997h-35.518z" fill="#c37777" transform="matrix(-1 0 0 -1 591.458 301.589)"/></g><g><path d="m419.252 149.136c31.764 0 54.697-4.886 55.999-5.17.211-.045.421-.095.631-.146l7.845-1.41c12.862-3.167 20.72-16.16 17.554-29.021s-16.158-20.721-29.021-17.553l-7.431 1.309c-3.098.625-38.639 7.476-78.949 1.755-52.517-7.454-88.881-32.223-108.082-73.622-5.573-12.015-19.83-17.239-31.848-11.665-12.016 5.573-17.239 19.832-11.665 31.848 26.314 56.733 76.939 91.708 146.403 101.144 13.636 1.851 26.716 2.531 38.564 2.531z" fill="#c37777"/></g><g><path d="m295.885 178.887c-54.848 0-99.312 44.463-99.312 99.312 0 24.173-6.819 47.964-20.234 68.073-10.507 15.751-16.633 34.673-16.633 55.029 0 54.849 44.463 99.312 99.312 99.312 4.838 0 9.594-.353 14.247-1.021 50.148-6.428 90.479-46.307 96.375-97.735l14.248-124.303c6.026-52.574-35.086-98.667-88.003-98.667z" fill="#fff2a5"/></g><g><path d="m295.885 178.887c-3.895 0-7.736.232-11.515.668 39.169 5.274 68.022 41.131 63.384 81.592l-11.879 103.636c-4.915 42.878-38.54 76.125-80.351 81.485-3.879.557-7.844.851-11.878.851-40.673 0-74.471-29.334-81.454-67.995-1.627 7.13-2.486 14.552-2.486 22.176 0 54.849 44.463 99.312 99.312 99.312 4.838 0 9.593-.353 14.247-1.022 50.148-6.428 90.479-46.306 96.375-97.735l14.248-124.303c6.026-52.572-35.086-98.665-88.003-98.665z" fill="#ffb7a9"/></g><g><path d="m113.771 121.31c7.757 24.202 60.151 35.634 106.539 14.992 23.22-10.332 34.337-45.68 22.7-68.274-11.636-22.594-37.039-20.873-53.61-13.92-16.834 7.063-22.264 21.53-33.828 34.082s-45.103 22.818-41.801 33.12z" fill="#00ebc4"/></g><g><path d="m243.01 68.028c-11.636-22.594-37.039-20.873-53.61-13.92-2.996 1.257-5.626 2.752-7.999 4.426 9.552-3.153 22.461-2.961 28.663 9.082 6.784 13.173.303 33.782-13.235 39.806-25.082 11.161-53.162 6.233-60.715-5.796-12.264 6.917-24.391 13.294-22.343 19.684 7.757 24.202 60.151 35.634 106.539 14.992 23.22-10.331 34.336-45.679 22.7-68.274z" fill="#45b1c6"/></g></g><g fill="#4e0325"><path d="m511.01 110.992c-2.171-8.82-7.646-16.265-15.418-20.965-7.667-4.639-16.664-6.055-25.375-4.008l-7.128 1.255c-.081.015-.163.03-.246.047-1.47.296-36.458 7.203-75.557 1.657-48.94-6.947-82.719-29.798-100.399-67.917-7.89-17.009-28.147-24.428-45.155-16.541-8.24 3.822-14.499 10.623-17.622 19.153-2.018 5.509-2.563 11.311-1.673 16.95-12.016-2.594-25.255-.648-36.914 4.244-14.184 5.951-21.81 16.32-28.538 25.469-2.871 3.903-5.582 7.59-8.783 11.065-3.708 4.024-11.838 8.592-19.011 12.623-6.184 3.474-12.025 6.757-16.527 10.32-9.793 7.75-9.993 15.167-8.436 20.025 3.328 10.385 12.011 18.974 25.11 24.839 11.787 5.278 25.812 7.886 40.542 7.886 18.048 0 37.155-3.915 54.505-11.635 13.091-5.825 23.792-18.242 29.359-34.068 1.615-4.589 2.709-9.286 3.326-13.966 3.471 3.727 7.096 7.297 10.879 10.701v64.363c-46.796 12.377-81.397 55.077-81.397 105.71 0 22.704-6.414 44.321-18.549 62.512-11.984 17.964-18.318 38.915-18.318 60.59 0 60.286 49.047 109.333 109.333 109.333 5.185 0 10.432-.375 15.6-1.113 55.442-7.144 98.606-50.937 104.977-106.524l14.248-124.302c3.197-27.892-5.687-55.906-24.374-76.859-12.569-14.092-28.819-24.134-46.652-29.204v-30.683c17.213 6.917 36.093 11.811 56.518 14.585 12.817 1.742 26.247 2.625 39.917 2.625 33.066 0 57.131-5.182 58.085-5.391.203-.043.405-.088.607-.136l7.555-1.358c.208-.037.417-.081.622-.132 18.207-4.485 29.372-22.944 24.889-41.15zm-276.174-6.253c-3.745 10.648-10.525 18.814-18.601 22.407-30.187 13.434-61.282 11.573-78.708 3.769-6.365-2.85-10.929-6.443-13.157-10.303 3.024-2.59 9.854-6.428 14.638-9.115 8.885-4.992 18.072-10.154 23.933-16.517 3.951-4.288 7.122-8.6 10.189-12.77 6.186-8.41 11.072-15.053 20.146-18.861 3.596-1.509 17.894-6.826 29.528-1.708-3.377 11.944-15.519 40.971-54.38 45.562-3.298.391-5.655 3.379-5.266 6.677.361 3.058 2.958 5.308 5.964 5.308.235 0 .473-.015.713-.042 30.27-3.577 46.639-19.944 55.04-33.045 3.653-5.696 6.138-11.256 7.81-15.899.492.761.971 1.553 1.415 2.416 4.479 8.694 4.754 20.703.736 32.121zm-6.338 114.942c6.112 5.003 15.756 11.943 28.711 18.364 16.701 8.277 41.625 16.875 73.103 16.875 5.541 0 11.288-.268 17.227-.85-8.594 15.895-20.69 26.971-35.873 35.137-74.623-3.806-97.491-33.249-100.827-38.218 3.738-11.655 9.806-22.276 17.659-31.308zm-21.903 58.518c0-4.258.306-8.446.886-12.547 10.641 10.702 34.023 27.182 80.421 33.452-7.889 2.548-16.329 4.715-25.29 6.657-29.31 6.35-54.296 22.054-72.025 36.25 10.49-19.258 16.008-41.089 16.008-63.812zm-28.777 160.22c9.388-10.61 44.67-47.04 95.223-57.991 40.98-8.879 73.955-22.417 94.909-51.821l-5.417 47.259c-12.549 33.13-39.137 45.75-76.319 53.805-39.191 8.491-66.676 34.393-77.086 45.649-13.536-9.154-24.435-21.92-31.31-36.901zm94.174 51.232c-.05.007-.101.014-.151.021-4.249.611-8.563.92-12.822.92-14.037 0-27.325-3.26-39.154-9.056 10.715-11.017 35.441-32.864 68.895-40.112 29.501-6.392 53.697-15.883 70.144-35.316-7.393 43.842-42.413 77.839-86.912 83.543zm101.94-213.239-2.03 17.709c-15.798 46.477-51.253 63.686-101.408 74.553-48.557 10.52-83.106 41.924-97.381 57.015-2.205-7.755-3.385-15.936-3.385-24.388 0-9.393 1.469-18.612 4.296-27.392 9.641-10.526 45.318-46.469 91.133-56.394 18.882-4.091 35.899-9.271 50.582-16.852.048-.024.094-.048.141-.074 20.916-10.833 37.079-26.567 47.121-51.02.21-.384.377-.792.499-1.217 1.576-3.963 2.992-8.155 4.247-12.585 5.572 12.637 7.788 26.659 6.185 40.645zm-19.42-61.236c1.582 1.774 3.057 3.624 4.46 5.518-1.468 7.516-3.363 14.354-5.673 20.584-32.14 4.502-62.498-.128-90.282-13.778-11.554-5.676-20.313-11.859-25.978-16.398 15.725-13.808 36.323-22.194 58.846-22.194 22.369.001 43.738 9.575 58.627 26.268zm-51.737-80.615v34.555c-2.286-.161-4.583-.25-6.89-.25-2.655 0-5.286.1-7.894.287v-45.482c4.804 3.204 9.795 6.199 14.97 8.982-.119.618-.186 1.255-.186 1.908zm178.823-1.951-7.49 1.347c-.213.038-.426.083-.636.135-.103.025-.205.05-.364.084-.922.202-22.932 4.939-53.856 4.939-12.77 0-25.292-.822-37.219-2.443-65.907-8.952-113.855-41.952-138.66-95.431-1.569-3.383-1.727-7.174-.444-10.677 1.283-3.502 3.852-6.294 7.235-7.862 1.896-.88 3.889-1.296 5.853-1.296 5.271 0 10.327 2.998 12.687 8.087 20.721 44.675 59.67 71.365 115.765 79.327 41.349 5.87 77.596-.905 82.213-1.828l7.314-1.288c.22-.039.44-.085.659-.139 3.623-.893 7.373-.32 10.563 1.61s5.438 4.987 6.33 8.608c1.819 7.386-2.634 14.874-9.95 16.827z"/><path d="m252.997 426.496c3.32 0 6.013-2.692 6.013-6.013v-11.398c0-3.321-2.692-6.013-6.013-6.013s-6.013 2.692-6.013 6.013v11.398c0 3.321 2.692 6.013 6.013 6.013z"/><path d="m300.732 409.892c3.321 0 6.013-2.692 6.013-6.013v-11.398c0-3.321-2.692-6.013-6.013-6.013-3.32 0-6.013 2.692-6.013 6.013v11.398c.001 3.321 2.693 6.013 6.013 6.013z"/></g><g><g><path d="m290.61 343.642c-4.199 0-8.111-2.661-9.508-6.864-1.745-5.252 1.098-10.926 6.35-12.671.854-.284 1.702-.572 2.543-.864 5.228-1.82 10.939.946 12.757 6.174 1.817 5.227-.946 10.938-6.174 12.757-.927.322-1.862.641-2.805.954-1.05.349-2.115.514-3.163.514z" fill="#fff"/></g><g><path d="m210.498 377.126c-3.202 0-6.348-1.531-8.288-4.376-3.119-4.572-1.94-10.807 2.632-13.925 14.445-9.853 29.551-17.523 44.898-22.796 5.233-1.8 10.935.985 12.734 6.221 1.799 5.234-.987 10.935-6.221 12.733-13.654 4.692-27.151 11.555-40.117 20.398-1.727 1.181-3.693 1.745-5.638 1.745z" fill="#fff"/></g></g></g><g><g><path d="m32.907 236.809-8.232 23.147c-.352.991-1.05 1.776-1.931 2.173l-20.565 9.265c-2.905 1.309-2.905 5.938 0 7.247l20.565 9.265c.88.397 1.578 1.182 1.931 2.173l8.232 23.147c1.163 3.27 5.276 3.27 6.439 0l8.232-23.147c.353-.991 1.05-1.776 1.931-2.173l20.565-9.265c2.905-1.309 2.905-5.938 0-7.247l-20.565-9.265c-.881-.397-1.578-1.182-1.931-2.173l-8.232-23.147c-1.164-3.27-5.276-3.27-6.439 0z" fill="#fff2a5"/></g><g><path d="m69.864 410.013-6.106 17.17c-.261.735-.779 1.318-1.432 1.612l-15.255 6.873c-2.155.971-2.155 4.405 0 5.376l15.255 6.873c.653.294 1.171.877 1.432 1.612l6.106 17.17c.863 2.426 3.913 2.426 4.776 0l6.106-17.17c.261-.735.779-1.318 1.432-1.612l15.255-6.873c2.155-.971 2.155-4.405 0-5.376l-15.255-6.873c-.653-.294-1.171-.877-1.432-1.612l-6.106-17.17c-.863-2.426-3.913-2.426-4.776 0z" fill="#fff2a5"/></g><g><path d="m423.875 432.759c0 9.927 8.048 17.975 17.975 17.975s17.975-8.048 17.975-17.975-8.048-17.975-17.975-17.975-17.975 8.048-17.975 17.975z" fill="#ffe35c"/></g><g><ellipse cx="113.543" cy="321.529" fill="#ffe35c" rx="7.516" ry="7.516" transform="matrix(.987 -.16 .16 .987 -50.037 22.34)"/></g></g></g></svg>