<svg id="Capa_1" enable-background="new 0 0 512 512" height="512" viewBox="0 0 512 512" width="512" xmlns="http://www.w3.org/2000/svg"><g><g><g><g><ellipse cx="108.704" cy="402.115" fill="#ad84e6" rx="42.722" ry="42.722" transform="matrix(.851 -.526 .526 .851 -195.169 117.204)"/></g><g><path d="m108.704 359.393c-2.042 0-4.047.152-6.012.429 14.955 2.469 26.363 15.452 26.363 31.107 0 17.417-14.119 31.536-31.536 31.536-15.654 0-28.637-11.408-31.107-26.363-.277 1.965-.429 3.971-.429 6.013 0 23.595 19.127 42.722 42.722 42.722s42.722-19.127 42.722-42.722c-.002-23.595-19.129-42.722-42.723-42.722z" fill="#a862e6"/></g><g><circle cx="108.704" cy="455.419" fill="#ad84e6" r="20.35"/></g></g><path d="m508.086 6.455c-1.501-3.89-5.24-6.455-9.408-6.455h-459c-4.398 0-8.288 2.85-9.614 7.043s.218 8.762 3.816 11.291c51.943 36.51 72.563 86.423 63.036 152.594-.117.813-.127 1.627-.047 2.428-.023.277-.042.555-.042.838v176.481c-7.905 1.825-15.136 5.422-21.248 10.361l-17.479-9.24-3.763-23.637c-.875-5.5-6.046-9.242-11.544-8.373-5.5.876-9.249 6.044-8.373 11.544l4.555 28.612c.499 3.132 2.442 5.847 5.246 7.329l18.127 9.583c-2.499 4.567-4.341 9.54-5.402 14.794l-23.526-4.985-12.643-22.785c-2.703-4.87-8.843-6.625-13.709-3.925-4.87 2.702-6.627 8.84-3.925 13.709l14.873 26.804c1.417 2.553 3.871 4.367 6.727 4.973l32.138 6.811c.354 1.823.802 3.618 1.342 5.379l-29.28 15.4c-1.832.963-3.322 2.468-4.27 4.307l-14.459 28.072c-2.55 4.951-.605 11.032 4.347 13.581 1.477.761 3.055 1.122 4.609 1.122 3.655 0 7.183-1.994 8.972-5.468l13.003-25.244 26.57-13.974c1.667 2.051 3.494 3.98 5.467 5.772l-19.484 15.623c-2.387 1.914-3.775 4.807-3.775 7.867v19.157c0 2.185.71 4.312 2.024 6.059l13.587 18.076c1.981 2.636 5.005 4.026 8.068 4.026 2.108 0 4.235-.66 6.051-2.025 4.451-3.346 5.347-9.667 2.001-14.119l-11.564-15.383v-10.95l8.98-7.2c3.136 13.465 15.228 23.53 29.634 23.53 13.552 0 25.06-8.906 28.989-21.171l6.036 4.84v10.951l-11.564 15.383c-3.346 4.452-2.45 10.773 2.001 14.119 1.816 1.365 3.942 2.025 6.051 2.025 3.061-.001 6.087-1.389 8.068-4.026l13.587-18.076c1.314-1.747 2.024-3.874 2.024-6.059v-19.157c0-3.06-1.389-5.953-3.775-7.867l-17.61-14.121c2.195-1.828 4.225-3.826 6.082-5.965l24.082 12.665 13.001 25.244c1.79 3.474 5.318 5.468 8.973 5.468 1.555 0 3.132-.36 4.609-1.121 4.95-2.55 6.897-8.631 4.348-13.582l-14.458-28.072c-.948-1.84-2.439-3.344-4.272-4.307l-26.21-13.785c.864-2.524 1.535-5.126 2.011-7.786l28.4-6.018c2.857-.606 5.31-2.419 6.727-4.973l14.872-26.804c2.702-4.869.944-11.007-3.925-13.709-4.869-2.7-11.008-.944-13.709 3.925l-12.642 22.785-20.096 4.258c-1.203-5.548-3.281-10.771-6.08-15.523l15.374-8.128c2.803-1.482 4.746-4.197 5.246-7.329l4.555-28.612c.875-5.5-2.873-10.668-8.373-11.544-5.488-.863-10.667 2.872-11.544 8.373l-3.763 23.637-15.333 8.105c-6.735-5.067-14.716-8.56-23.393-9.934v-168.283c57.676-3.41 105.016 17.707 144.482 64.408 1.918 2.27 4.737 3.575 7.701 3.575.079 0 .158-.001.237-.003 3.05-.071 5.903-1.519 7.762-3.94 36.789-47.911 86.429-68.669 151.68-63.442.623.118 1.255.179 1.887.179.189 0 .377-.017.566-.027 2.723.039 5.373-1.014 7.31-2.967 2.106-2.125 3.162-5.075 2.878-8.054-5.645-59.413 15.275-109.74 63.954-153.858 3.088-2.799 4.135-7.211 2.636-11.1zm-319.003 14.273 16.386 39.559-37.432 36.133c-4.923-29.725-14.978-54.757-30.42-75.693h51.466zm80.094 52.573-44.047-18.245-14.069-33.964h116.232l-14.068 33.964zm-49.517 1.317 39.434 16.334v53.188c-25.415-17.383-51.333-28.375-77.428-32.846zm59.601 16.335 39.321-16.288 36.913 36.847c-27.861 4.638-53.377 15.215-76.234 31.605zm53.578-30.551 16.433-39.673h53.084c-16.202 23.568-26.908 49.39-31.984 77.139zm-264.784-40.235h42.812c22.249 23.422 35.089 54.147 39.146 93.653l-30.741 29.674c.54-49.386-16.605-90.698-51.217-123.327zm40.648 445.519c-5.661 0-10.267-4.605-10.267-10.267 0-5.661 4.605-10.267 10.267-10.267s10.268 4.605 10.268 10.267c0 5.661-4.606 10.267-10.268 10.267zm32.639-63.571c0 11.571-6.084 22.113-15.808 27.963-4.824-3.215-10.611-5.093-16.83-5.093-6.217 0-12.002 1.877-16.825 5.089-9.793-5.898-15.813-16.449-15.813-27.96 0-17.997 14.641-32.639 32.638-32.639s32.638 14.643 32.638 32.64zm-11.363-240.927 32.927-31.785c32.556 1.887 64.093 14.887 96.188 39.657v45.098c-36.548-34.85-79.811-52.6-129.115-52.97zm149.282 51.677v-44.138c27.312-23.419 58.259-36.258 94.339-39.142l31.874 31.817c-50.439 1.007-92.716 18.242-126.213 51.463zm141.274-64.924-32.35-32.293c3.696-35.67 16.723-66.984 39.728-95.481h46.31c-34.454 37.632-52.437 80.449-53.688 127.774z" fill="#4e0325"/><g><ellipse cx="100.556" cy="393.498" fill="#fff" rx="10.084" ry="10.084" transform="matrix(.707 -.707 .707 .707 -248.793 186.357)"/></g></g><g><g><path d="m469.664 345.003-8.465 23.804c-.362 1.019-1.08 1.827-1.986 2.235l-21.148 9.528c-2.988 1.346-2.988 6.107 0 7.453l21.148 9.528c.906.408 1.623 1.216 1.986 2.235l8.465 23.804c1.196 3.363 5.425 3.363 6.621 0l8.465-23.804c.362-1.019 1.08-1.827 1.986-2.235l21.148-9.528c2.988-1.346 2.988-6.107 0-7.453l-21.148-9.528c-.906-.408-1.623-1.216-1.986-2.235l-8.465-23.804c-1.195-3.363-5.425-3.363-6.621 0z" fill="#d3b5f2"/></g><g><path d="m344.136 277.279-6.28 17.657c-.269.756-.801 1.355-1.473 1.658l-15.688 7.068c-2.216.999-2.216 4.53 0 5.528l15.688 7.068c.672.303 1.204.902 1.473 1.658l6.28 17.657c.887 2.494 4.024 2.494 4.911 0l6.28-17.657c.269-.756.801-1.355 1.473-1.658l15.688-7.068c2.216-.999 2.216-4.53 0-5.528l-15.688-7.068c-.672-.303-1.204-.902-1.473-1.658l-6.28-17.657c-.887-2.494-4.024-2.494-4.911 0z" fill="#d3b5f2"/></g><g><path d="m300.549 465.969c0 10.209 8.276 18.485 18.485 18.485s18.485-8.276 18.485-18.485-8.276-18.485-18.485-18.485-18.485 8.276-18.485 18.485z" fill="#ad84e6"/></g><g><ellipse cx="448.337" cy="256.584" fill="#ad84e6" rx="7.729" ry="7.729" transform="matrix(.707 -.707 .707 .707 -50.117 392.174)"/></g></g></g></svg>