<svg id="Capa_1" enable-background="new 0 0 512 512" height="512" viewBox="0 0 512 512" width="512" xmlns="http://www.w3.org/2000/svg"><g><g><g><g><g><path d="m443.485 159.791c-32.808-32.428-91.225-38.346-116.875-12.396-25.65 25.951-3.655 89.281 12.96 105.704s80.197 37.679 105.848 11.728c25.65-25.95 30.875-72.608-1.933-105.036z" fill="#ff8cc0"/></g><g><path d="m443.485 159.791c-30.859-30.501-84.366-37.541-111.961-16.676 19.13-13.647 55.163-8.684 76.06 11.971 22.505 22.244 18.92 54.249 1.325 72.05s-61.21 3.22-72.607-8.045c-3.438-3.398-7.206-9.732-10.315-17.397-3.254-1.26-6.507-2.52-9.799-3.64 3.662 23.185 14.32 46.089 23.381 55.045 16.615 16.423 80.197 37.679 105.848 11.728 25.651-25.95 30.876-72.608-1.932-105.036z" fill="#ff68c1"/></g><g><path d="m61.542 159.791c32.808-32.428 91.225-38.346 116.875-12.396s3.655 89.281-12.96 105.704-80.197 37.679-105.848 11.728c-25.649-25.95-30.874-72.608 1.933-105.036z" fill="#ff8cc0"/></g><g><path d="m252.514 225.903c-16.636 0-84.143-42.213-84.143-80.15s37.672-57.233 84.143-57.233 84.143 19.296 84.143 57.233-67.507 80.15-84.143 80.15z" fill="#ff8cc0"/></g><g><ellipse cx="252.514" cy="285.188" fill="#ffddb6" rx="126.249" ry="99.967"/></g><g><path d="m252.514 185.221c-5.346 0-10.612.266-15.783.776 46.88 5.293 82.925 37.206 82.925 75.79 0 42.286-43.292 76.566-96.695 76.566-48.728 0-89.03-28.541-95.715-65.662-.645 4.094-.98 8.265-.98 12.497 0 55.21 56.524 99.967 126.249 99.967s126.249-44.757 126.249-99.967c-.001-55.21-56.525-99.967-126.25-99.967z" fill="#ffa7b8"/></g><g><path d="m487.595 385.155c31.128-42.639 6.986-98.588-26.74-123.21-33.727-24.622-83.209 21.309-98.973 42.903s-47.478 86.883-13.751 111.505 108.336 11.441 139.464-31.198z" fill="#ff8cc0"/></g><g><path d="m460.855 261.945c-33.727-24.622-83.209 21.309-98.973 42.903-.084.115-.171.238-.255.356 10.69-14.411 43.045-44.15 65.158-28.007 22.292 16.274 38.249 53.255 17.674 81.438-20.574 28.183-69.889 36.895-92.181 20.62-20.714-15.122-4.083-53.448 6.735-70.25-16.333 24.83-42.666 84.145-10.882 107.348 33.727 24.622 108.336 11.441 139.464-31.198 31.128-42.638 6.987-98.588-26.74-123.21z" fill="#ff68c1"/></g><g><path d="m252.514 492.75c-57.543 0-104.19-30.522-104.19-68.172s20.192-60.698 104.19-60.698 104.19 23.048 104.19 60.698-46.648 68.172-104.19 68.172z" fill="#ff68c1"/></g></g><g><ellipse cx="114.288" cy="413.641" fill="#ffe35c" rx="92.237" ry="79.777" transform="matrix(.618 -.787 .787 .618 -281.614 248.046)"/></g><g><path d="m83.102 337.421c-11.691 6.424-22.535 15.46-31.555 26.946-8.608 10.961-14.649 23.007-18.201 35.279 39.742 10.936 88.212 37.886 113.218 89.611 11.275-6.383 21.726-15.215 30.466-26.344 9.02-11.486 15.228-24.163 18.698-37.043z" fill="#ad84e6"/></g><g><path d="m121.092 451.832c-21.225 12.99-47.081 13.459-65.446-.963-15.027-11.801-21.544-30.84-19.266-50.354-1.015-.297-2.029-.591-3.034-.868-9.429 32.583-1.197 66.768 23.974 86.535 26.177 20.557 63.16 19.626 93.25.677-1.323.833-2.658 1.635-4.005 2.398-6.921-14.312-15.642-26.72-25.473-37.425z" fill="#ffac62"/></g><g><path d="m173.824 466.798c10.208-11.797 17.835-25.858 21.904-40.927l-39.598-31.097c-.847 21.573-15.689 45.782-35.039 57.059 9.831 10.705 18.552 23.113 25.472 37.426 10.293-5.838 19.506-13.528 27.261-22.461z" fill="#a862e6"/></g><g><ellipse cx="178.601" cy="327.837" fill="#ffe35c" rx="48.933" ry="48.933" transform="matrix(.707 -.707 .707 .707 -179.505 222.311)"/></g><g><path d="m262.633 465.401c-19.201 24.449-54.586 28.704-79.035 9.503s-59.364-78.664-40.164-103.113c19.201-24.449 85.246-4.625 109.695 14.575 24.45 19.201 28.705 54.586 9.504 79.035z" fill="#98e8f2"/></g><g><path d="m253.13 386.366c-24.449-19.201-90.495-39.025-109.695-14.575 13.331-16.975 59.185-3.211 76.16 10.12s19.929 37.898 6.598 54.873-37.898 19.929-54.873 6.598-41.216-54.616-27.885-71.59c-19.201 24.449 15.715 83.913 40.164 103.113 24.449 19.201 59.834 14.946 79.035-9.503 19.2-24.45 14.945-59.835-9.504-79.036z" fill="#a6aff4"/></g><g><path d="m24.235 278.181c19.201-24.449 54.586-28.704 79.035-9.503s59.364 78.664 40.164 103.113c-19.201 24.449-85.246 4.625-109.695-14.575-24.449-19.201-28.704-54.586-9.504-79.035z" fill="#98e8f2"/></g></g><g fill="#4e0325"><path d="m508.181 314.057c-6.723-23.67-22.206-46.176-41.42-60.202-.197-.144-.403-.285-.605-.428 15.101-28.061 16.339-69.163-15.63-100.761-27.895-27.573-74.187-38.567-107.615-26.763-10.861-29.047-44.485-47.401-90.398-47.401-45.91 0-79.532 18.35-90.396 47.393-14.808-5.254-32.475-6.215-50.739-2.611-21.874 4.315-42.075 14.749-56.879 29.382-32.021 31.651-30.73 72.827-15.559 100.894-8.702 4.324-16.405 10.565-22.584 18.433-10.939 13.93-15.798 31.285-13.684 48.869s10.949 33.292 24.879 44.23c2.296 1.803 4.891 3.589 7.718 5.336-11.785 19.71-17.244 42.121-15.392 63.801 2.083 24.389 13.183 45.637 31.256 59.829 14.45 11.348 32.257 17.302 51.188 17.302 4.52 0 9.106-.339 13.723-1.026 21.545-3.204 42.155-13.739 58.617-29.831.924.801 1.841 1.563 2.75 2.276 7.718 6.061 16.491 10.243 25.769 12.419 15.287 4.953 32.231 7.566 49.333 7.566 29.756 0 57.868-7.672 79.158-21.602 18.825-12.318 30.598-28.32 34.009-45.863 8.45 2.28 17.707 3.436 27.423 3.436 11.075 0 22.74-1.494 34.461-4.507 28.637-7.361 53.466-23.096 68.12-43.17 15.956-21.85 20.394-49.197 12.497-77.001zm-71.737-147.142c25.157 24.865 23.534 57.297 11.137 78.686-12.236-2.213-28.14-.069-48.092 11.869-4.418 2.644-8.671 5.569-12.729 8.634-4.822-22.51-18.166-43.152-38.757-59.456-7.029-5.566-14.688-10.441-22.839-14.591 11.224-12.123 21.51-27.866 21.51-44.847 0-.434-.029-.858-.037-1.289 26.244-11.222 66.496-2.047 89.807 20.994zm-108.798 186.812c-3.72 2.447-7.652 4.722-11.739 6.792-16.366-4.5-37.169-6.657-63.393-6.657-7.499 0-14.608.191-21.297.557 7.626-15.082 8.23-32.509 2.359-47.798l25.144-7.372c5.309-1.556 8.35-7.121 6.794-12.43-1.557-5.309-7.125-8.351-12.43-6.794l-30.243 8.867c-2.343-2.66-4.945-5.153-7.83-7.419s-5.924-4.203-9.063-5.849l1.445-31.483c.254-5.526-4.02-10.211-9.547-10.465-5.529-.285-10.212 4.02-10.465 9.547l-1.201 26.173c-17.983-2.301-36.632 3.727-49.858 17.362-.012-.524-.038-1.049-.038-1.572 0-49.599 52.142-89.95 116.232-89.95 62.659 0 113.887 38.571 116.145 86.642-6.206 6.197-11.307 12.184-14.867 17.061-8.14 11.149-19.83 32.478-26.148 54.788zm-168.726-1.656c-.234-11.072-3.604-23.929-10.105-38.005-1.033-2.236-2.138-4.475-3.3-6.707.762-1.226 1.585-2.419 2.48-3.558 13.253-16.878 37.765-19.825 54.642-6.572 16.876 13.254 19.824 37.767 6.572 54.642-.795 1.012-1.644 1.98-2.529 2.906-2.826-.714-5.648-1.351-8.441-1.897-15.218-2.98-28.507-3.206-39.319-.809zm39.568-240.042c13.341-8.701 32.528-13.492 54.026-13.492s40.685 4.791 54.026 13.492c13.337 8.697 20.1 20.534 20.1 35.181 0 10.469-7.557 23.337-21.364 36.498-16.492-5.572-34.355-8.503-52.762-8.503s-36.271 2.931-52.762 8.504c-13.807-13.162-21.364-26.03-21.364-36.499 0-14.647 6.762-26.484 20.1-35.181zm-129.904 54.886c23.271-23.001 63.574-32.2 89.807-20.997-.009.432-.037.856-.037 1.292 0 16.98 10.286 32.723 21.509 44.847-8.151 4.15-15.81 9.025-22.839 14.591-19.939 15.788-33.077 35.645-38.268 57.325-1.498.354-2.987.677-4.473.97-1.626-1.506-3.24-2.896-4.826-4.142-13.929-10.939-31.288-15.802-48.868-13.685-.69.083-1.371.194-2.055.298-13.376-21.339-15.829-54.919 10.05-80.499zm-46.02 151.556c-1.476-12.271 1.916-24.382 9.55-34.103s18.596-15.887 30.867-17.362c1.88-.226 3.753-.339 5.617-.339 10.306 0 20.255 3.423 28.487 9.888 11.401 8.954 25.195 27.833 33.543 45.91 8.998 19.485 10.841 35.611 4.929 43.138-5.911 7.528-22.016 9.561-43.078 5.439-19.541-3.825-41.152-12.751-52.554-21.704-9.72-7.634-15.886-18.596-17.361-30.867zm66.066 72.231c8.351 1.635 16.121 2.443 23.222 2.443 5.84 0 11.216-.556 16.096-1.639.233 11.073 3.603 23.932 10.104 38.01 5.928 12.837 14.151 25.829 22.813 36.475-4.674 4.608-9.673 8.611-14.888 11.992-25.165-42.137-59.178-69.395-101.187-81.097 2.113-5.893 4.885-11.696 8.325-17.284 11.137 4.808 23.583 8.765 35.515 11.1zm-25.124 87.603c-20.075-15.765-27.699-42.901-21.991-69.854 38.858 10.823 70.437 36.156 93.95 75.371-24.532 11.519-51.922 10.217-71.959-5.517zm92.735-57.189c-8.998-19.484-10.84-35.611-4.929-43.138 3.895-4.961 12.214-7.534 23.461-7.534 5.823 0 12.431.69 19.616 2.096 19.541 3.825 41.152 12.751 52.554 21.704 9.72 7.634 15.886 18.595 17.361 30.867 1.476 12.271-1.916 24.383-9.55 34.103-7.634 9.721-18.596 15.887-30.867 17.362-5.24.631-10.451.367-15.46-.73-1-.333-1.993-.675-2.974-1.031-.842-.306-1.699-.48-2.551-.555-4.674-1.662-9.102-4.079-13.118-7.234-11.401-8.954-25.195-27.832-33.543-45.91zm164.462 43.285c-16.402 10.732-37.878 17.068-61.077 18.148 3.992-3.185 7.652-6.844 10.885-10.962 10.939-13.93 15.798-31.285 13.684-48.869s-10.949-33.292-24.878-44.23c-1.971-1.548-4.164-3.083-6.531-4.591 86.643.053 93.902 25.063 93.902 50.68-.001 14.718-9.229 28.861-25.985 39.824zm158.802-85.152c-24.731 33.876-80.678 46.716-113.303 35.229-1.879-18.134-9.112-31.402-22.319-41.114 3.244-23.951 17.456-50.784 26.089-62.61 7.921-10.85 23.301-26.218 39.804-36.094 18.783-11.239 33.98-12.795 45.172-4.625 28.522 20.821 52.923 70.359 24.557 109.214z"/><path d="m411.993 219.478c3.319 0 6.01-2.691 6.01-6.01v-11.852c0-3.319-2.691-6.01-6.01-6.01s-6.01 2.691-6.01 6.01v11.852c0 3.319 2.691 6.01 6.01 6.01z"/><path d="m447.697 311.932c-3.319 0-6.01 2.691-6.01 6.01v11.852c0 3.319 2.691 6.01 6.01 6.01s6.01-2.691 6.01-6.01v-11.852c0-3.319-2.691-6.01-6.01-6.01z"/><path d="m410.253 347.659c-3.319 0-6.01 2.691-6.01 6.01v11.852c0 3.319 2.691 6.01 6.01 6.01s6.01-2.691 6.01-6.01v-11.852c0-3.319-2.691-6.01-6.01-6.01z"/></g><g><g><path d="m221.688 138.55c-3.746 0-7.339-2.111-9.054-5.719-2.374-4.997-.248-10.973 4.748-13.347 4.792-2.277 10.206-3.735 16.093-4.334 5.51-.542 10.419 3.449 10.978 8.954.56 5.503-3.449 10.419-8.952 10.978-3.601.366-6.805 1.205-9.521 2.496-1.388.66-2.851.972-4.292.972z" fill="#fff"/></g><g><path d="m77.507 212.587c-1.351 0-2.724-.275-4.039-.856-5.061-2.234-7.353-8.147-5.119-13.208 3.338-7.561 8.152-14.481 14.312-20.57 3.935-3.889 10.277-3.852 14.166.081 3.889 3.934 3.853 10.277-.082 14.165-4.363 4.314-7.751 9.163-10.068 14.413-1.654 3.746-5.323 5.975-9.17 5.975z" fill="#fff"/></g><g><path d="m123.455 176.541c-4.482 0-8.562-3.029-9.706-7.572-1.351-5.364 1.903-10.809 7.268-12.16 1.05-.264 2.103-.51 3.156-.735 5.411-1.156 10.732 2.295 11.888 7.704 1.155 5.41-2.294 10.732-7.705 11.887-.816.174-1.632.365-2.446.57-.823.207-1.646.306-2.455.306z" fill="#fff"/></g></g></g><g><g><path d="m471.72 25.987-8.228 23.136c-.352.991-1.05 1.776-1.93 2.172l-20.556 9.261c-2.904 1.308-2.904 5.935 0 7.244l20.556 9.261c.88.396 1.578 1.182 1.93 2.172l8.228 23.136c1.162 3.269 5.273 3.269 6.436 0l8.228-23.136c.352-.991 1.05-1.776 1.93-2.172l20.556-9.261c2.904-1.308 2.904-5.935 0-7.244l-20.556-9.261c-.88-.397-1.577-1.182-1.93-2.172l-8.228-23.136c-1.162-3.268-5.273-3.268-6.436 0z" fill="#ffc5dd"/></g><g><path d="m131.12 2.456-6.104 17.162c-.261.735-.779 1.317-1.431 1.611l-15.248 6.87c-2.154.971-2.154 4.403 0 5.373l15.248 6.87c.653.294 1.17.876 1.431 1.611l6.104 17.162c.862 2.424 3.912 2.424 4.774 0l6.104-17.162c.261-.735.779-1.317 1.432-1.611l15.248-6.87c2.154-.971 2.154-4.403 0-5.373l-15.248-6.87c-.653-.294-1.17-.877-1.432-1.611l-6.104-17.162c-.862-2.425-3.911-2.425-4.774 0z" fill="#ffc5dd"/></g><g><path d="m0 114.341c0 9.923 8.044 17.967 17.967 17.967s17.967-8.044 17.967-17.967-8.044-17.967-17.967-17.967-17.967 8.044-17.967 17.967z" fill="#ff8cc0"/></g><g><ellipse cx="355.695" cy="56.666" fill="#ff8cc0" rx="7.513" ry="7.513" transform="matrix(.973 -.23 .23 .973 -3.504 83.237)"/></g></g></g></svg>