<svg id="Capa_1" enable-background="new 0 0 512 512" height="512" viewBox="0 0 512 512" width="512" xmlns="http://www.w3.org/2000/svg"><g><g><g><g><path d="m319.84 61.77c-.244 1.187-.392 2.409-.411 3.665l-1.582 103.565h39.217l1.572-102.967c.022-1.463-.129-2.887-.412-4.264h-38.384z" fill="#ffa785"/></g><g><path d="m468.915 271.697h-261.637c-18.257 0-33.058 13.674-33.058 30.541 0 16.867 14.8 30.541 33.058 30.541h261.638c18.257 0 33.058-13.674 33.058-30.541-.001-16.868-14.801-30.541-33.059-30.541z" fill="#ffe35c"/></g><g><path d="m228.825 270.35h218.544c18.257 0 33.057-13.674 33.057-30.541 0-16.867-14.8-30.541-33.057-30.541h-218.544c-18.257 0-33.058 13.674-33.058 30.541 0 16.867 14.801 30.541 33.058 30.541z" fill="#ffe35c"/></g><g><path d="m258.306 207.92h159.582c18.257 0 33.058-13.674 33.058-30.541 0-16.867-14.801-30.541-33.058-30.541h-159.582c-18.257 0-33.058 13.674-33.058 30.541 0 16.868 14.8 30.541 33.058 30.541z" fill="#ffe35c"/></g><g><path d="m447.369 334.126h-218.544c-18.257 0-33.058 13.674-33.058 30.541 0 16.867 14.801 30.541 33.058 30.541h218.544c18.257 0 33.057-13.674 33.057-30.541 0-16.867-14.8-30.541-33.057-30.541z" fill="#ffe35c"/></g><g><path d="m417.888 396.555h-159.582c-18.257 0-33.058 13.674-33.058 30.541 0 16.867 14.8 30.541 33.058 30.541h159.582c18.257 0 33.058-13.674 33.058-30.541-.001-16.867-14.801-30.541-33.058-30.541z" fill="#ffe35c"/></g><g><path d="m501.973 302.238c0-16.867-14.8-30.541-33.058-30.541l-12.12-2.614c13.663-3.75 23.63-15.433 23.63-29.274 0-16.867-14.8-30.541-33.057-30.541l-16.009-3.999c11.54-4.766 19.586-15.456 19.586-27.889 0-16.867-14.801-30.541-33.058-30.541h-45.97c14.813 0 30.558 16.856 30.558 30.541 0 10.088-2.967 24.224-20.111 28.919l17.804 2.969c14.813 0 22.706 16.624 18.793 30.541-3.627 12.898-22.157 20.709-33.242 23.751 0 0 24.931 75.235 10.118 75.235l-23.919 1.093c14.813 0 26.821 11.094 26.821 24.779s-11.123 27.171-25.936 27.171l-127.478 7.164c-11.804 4.661-20.077 15.484-20.077 28.094 0 16.868 14.801 30.541 33.058 30.541h159.582c18.257 0 33.058-13.674 33.058-30.541s-14.801-30.541-33.058-30.541l-4.317-1.347h33.798c18.257 0 33.057-13.674 33.057-30.541s-14.8-30.541-33.057-30.541l-7.019-1.347h28.566c18.257 0 33.057-13.674 33.057-30.541z" fill="#ffac62"/></g><g><path d="m158.502 174.016c-4.811 0-9.631-1.76-13.414-5.311-7.895-7.411-8.287-19.818-.876-27.713l83.906-89.384c7.411-7.895 19.818-8.286 27.713-.876 7.895 7.411 8.286 19.818.876 27.713l-83.907 89.384c-3.859 4.111-9.073 6.187-14.298 6.187z" fill="#c37777"/></g><g><path d="m501.973 82.889h-391.57c-13.953 0-25.263-10.268-25.263-22.936s11.311-22.936 25.263-22.936h391.57" fill="#c37777"/></g><g><path d="m138.9 59.953c0 25.619-20.768 46.388-46.388 46.388s-82.486-20.769-82.486-46.388 56.866-46.388 82.485-46.388 46.389 20.768 46.389 46.388z" fill="#00ebc4"/></g><g><path d="m92.512 13.565c-4.199 0-9.241.561-14.731 1.607 12.973 4.242 22.348 16.435 22.348 30.825 0 17.912-14.521 32.432-32.433 32.432-15.734 0-48.321-11.204-56.013-26.07-1.068 2.471-1.657 5.007-1.657 7.593 0 25.619 56.866 46.388 82.485 46.388s46.388-20.769 46.388-46.388c.001-25.619-20.768-46.387-46.387-46.387z" fill="#45b1c6"/></g><g><path d="m166.658 145.129c15.813 14.844 16.599 39.697 1.755 55.511-14.844 15.813-60.613 38.88-76.426 24.036s4.316-61.978 19.161-77.792c14.843-15.814 39.696-16.599 55.51-1.755z" fill="#00ebc4"/></g><g><circle cx="338.097" cy="302.238" fill="#ffa785" r="58.757"/></g><g><circle cx="327.843" cy="285.622" fill="#ff7d87" r="42.141"/></g></g><path d="m512 302.238c0-18.385-12.297-33.943-29.095-38.906 4.744-6.641 7.548-14.758 7.548-23.523 0-20.847-15.809-38.065-36.067-40.312 4.158-6.367 6.586-13.962 6.586-22.117 0-22.369-18.199-40.568-40.568-40.568h-52.821l.67-43.896h133.719c5.538 0 10.027-4.49 10.027-10.027s-4.489-10.027-10.027-10.027h-354.554c.975-4.149 1.508-8.467 1.508-12.91 0-4.442-.532-8.76-1.507-12.908h354.554c5.538 0 10.027-4.489 10.027-10.027 0-5.537-4.489-10.027-10.027-10.027h-363.721c-10.255-14.191-26.932-23.452-45.74-23.452-27.461 0-92.512 21.894-92.512 56.414 0 15.605 12.901 30.071 37.309 41.834 18.097 8.721 40.281 14.581 55.203 14.581 18.807 0 35.483-9.26 45.739-23.451h37.337l-29.964 31.919c-15.021-1.776-30.666 3.336-41.789 15.186-8.789 9.364-18.166 26.689-23.331 43.113-7.072 22.484-5.475 39.376 4.619 48.851 5.335 5.007 12.588 7.516 21.488 7.516 7.939 0 17.189-1.995 27.557-5.992 16.065-6.192 32.764-16.645 41.554-26.008 10.87-11.58 15.04-27.064 12.685-41.65l68.467-72.936h52.107l-.67 43.896h-52.522c-22.369 0-40.568 18.199-40.568 40.568 0 8.155 2.428 15.75 6.586 22.117-20.258 2.247-36.067 19.465-36.067 40.312 0 8.765 2.803 16.883 7.548 23.523-16.798 4.962-29.095 20.521-29.095 38.906s12.297 33.943 29.095 38.905c-4.745 6.641-7.548 14.758-7.548 23.523 0 20.847 15.809 38.065 36.067 40.312-4.158 6.367-6.586 13.962-6.586 22.117 0 22.369 18.199 40.568 40.568 40.568h164.615c22.369 0 40.568-18.199 40.568-40.568 0-8.156-2.427-15.75-6.586-22.117 20.258-2.247 36.067-19.465 36.067-40.312 0-8.765-2.803-16.883-7.548-23.523 16.798-4.961 29.095-20.519 29.095-38.904zm-419.488-205.924c-10.121 0-29.343-4.325-46.497-12.592-15.771-7.6-25.962-16.931-25.962-23.769s10.191-16.168 25.962-23.768c17.154-8.267 36.376-12.593 46.497-12.593 18 0 32.978 13.15 35.854 30.345h-53.903c-3.322 0-6.016 2.694-6.016 6.016s2.694 6.016 6.016 6.016h53.903c-2.876 17.195-17.854 30.345-35.854 30.345zm196.854 205.924c0-26.87 21.86-48.731 48.73-48.731s48.731 21.861 48.731 48.731-21.861 48.73-48.731 48.73-48.73-21.86-48.73-48.73zm-128.264-108.461c-5.745 6.12-19.319 15.305-34.146 21.022-15.102 5.82-24.999 5.485-28.108 2.566-3.108-2.918-4.07-12.773.786-28.215 4.768-15.158 13.078-29.285 18.822-35.405 5.748-6.123 13.53-9.215 21.331-9.215 7.178 0 14.373 2.62 20.007 7.909 5.696 5.346 8.968 12.59 9.215 20.398.248 7.808-2.561 15.245-7.907 20.94zm19.003-48.38c-1.896-2.695-4.091-5.237-6.585-7.579-2.285-2.145-4.728-4.018-7.281-5.643l36.854-39.259h26.278zm148.932-52.481h19.161l-.67 43.896h-19.161zm-73.248 63.949h164.615c11.312 0 20.514 9.203 20.514 20.514s-9.203 20.514-20.514 20.514h-164.615c-11.312 0-20.514-9.203-20.514-20.514s9.202-20.514 20.514-20.514zm-29.481 62.429h223.577c11.312 0 20.515 9.203 20.515 20.514s-9.203 20.514-20.515 20.514h-57.305c-12.588-16.324-32.322-26.869-54.483-26.869s-41.895 10.545-54.483 26.869h-57.306c-11.312 0-20.514-9.203-20.514-20.514 0-11.31 9.202-20.514 20.514-20.514zm-42.061 82.944c0-11.312 9.203-20.515 20.514-20.515h67.678c-2.03 6.482-3.126 13.373-3.126 20.515s1.096 14.033 3.126 20.514h-67.677c-11.313.001-20.515-9.202-20.515-20.514zm236.157 145.373h-164.615c-11.312 0-20.514-9.203-20.514-20.514s9.203-20.514 20.514-20.514h164.615c11.312 0 20.514 9.203 20.514 20.514s-9.202 20.514-20.514 20.514zm29.481-62.43h-223.577c-11.312 0-20.514-9.203-20.514-20.514s9.203-20.514 20.514-20.514h57.306c12.588 16.324 32.322 26.869 54.483 26.869 22.203 0 41.971-10.584 54.556-26.961.423.055.852.092 1.291.092h55.941c11.312 0 20.515 9.203 20.515 20.514s-9.203 20.514-20.515 20.514zm21.547-62.428h-67.677c2.03-6.482 3.126-13.372 3.126-20.514s-1.096-14.033-3.126-20.515h67.677c11.312 0 20.515 9.203 20.515 20.515 0 11.311-9.203 20.514-20.515 20.514z" fill="#4e0325"/><g><g><path d="m338.096 187.406h-36.11c-5.538 0-10.027-4.49-10.027-10.027s4.489-10.027 10.027-10.027h36.11c5.538 0 10.027 4.49 10.027 10.027 0 5.538-4.489 10.027-10.027 10.027z" fill="#fff"/></g><g><path d="m265.258 187.406h-1.472c-5.538 0-10.027-4.49-10.027-10.027s4.489-10.027 10.027-10.027h1.472c5.538 0 10.027 4.49 10.027 10.027 0 5.538-4.489 10.027-10.027 10.027z" fill="#fff"/></g></g></g><g><g><path d="m143.146 429.55-8.236 23.159c-.353.992-1.051 1.777-1.932 2.174l-20.576 9.27c-2.907 1.31-2.907 5.941 0 7.251l20.576 9.27c.881.397 1.579 1.183 1.932 2.174l8.236 23.159c1.164 3.272 5.279 3.272 6.442 0l8.236-23.159c.353-.992 1.051-1.777 1.932-2.174l20.576-9.27c2.907-1.31 2.907-5.941 0-7.251l-20.576-9.27c-.881-.397-1.579-1.183-1.932-2.174l-8.236-23.159c-1.163-3.272-5.278-3.272-6.442 0z" fill="#fff2a5"/></g><g><path d="m26.974 283.538-6.11 17.179c-.262.736-.78 1.318-1.433 1.613l-15.263 6.876c-2.156.972-2.156 4.407 0 5.379l15.263 6.877c.653.294 1.171.877 1.433 1.613l6.11 17.179c.863 2.427 3.915 2.427 4.779 0l6.11-17.179c.262-.736.779-1.318 1.433-1.613l15.263-6.877c2.156-.972 2.156-4.407 0-5.379l-15.263-6.876c-.653-.294-1.171-.877-1.433-1.613l-6.11-17.179c-.864-2.427-3.916-2.427-4.779 0z" fill="#fff2a5"/></g><g><path d="m92.426 346.707c0 9.932 8.052 17.984 17.984 17.984s17.984-8.052 17.984-17.984c0-9.933-8.052-17.984-17.984-17.985-9.932 0-17.984 8.052-17.984 17.985z" fill="#ffe35c"/></g><g><ellipse cx="52.647" cy="416.954" fill="#ffe35c" rx="7.52" ry="7.52" transform="matrix(.707 -.707 .707 .707 -279.411 159.351)"/></g></g></g></svg>