<svg id="Capa_1" enable-background="new 0 0 512 512" height="512" viewBox="0 0 512 512" width="512" xmlns="http://www.w3.org/2000/svg"><g><g><g><g><path d="m470.065 354.058c-1.385.343-2.807.599-4.264.762-69.56 7.75-133.615 1.863-190.387-17.499-46.102-15.723-87.346-40.24-122.584-72.873-32.314-29.925-66.088-33.589-83.764-112.441-4.404-19.648-1.529-39.758 17.437-46.522 14.926-5.323 31.498.891 39.264 14.704 10.458 18.6 45.699 73.436 73.384 98.538 65.431 59.328 152.723 83.381 259.451 71.488 17.84-1.988 33.914 10.863 35.902 28.703 1.825 16.383-8.865 31.278-24.439 35.14z" fill="#e79d8e"/></g><g><path d="m494.504 318.918c-1.988-17.839-18.061-30.691-35.901-28.703-23.56 2.625-46.17 3.492-67.809 2.622-3.251 3.486-7.478 6.086-12.335 7.291-1.077.267-2.182.465-3.313.592-54.055 6.022-103.832 1.448-147.949-13.598-22.86-7.796-41.182-9.136-58.565-15.666v6.719c31.577 25.844 67.399 45.715 106.783 59.146 56.772 19.361 120.827 25.249 190.387 17.499 1.457-.163 2.879-.418 4.264-.761 15.573-3.863 26.263-18.758 24.438-35.141z" fill="#df768f"/></g></g><g fill="#4e0325"><path d="m407.781 368.187c-48.529 0-93.948-7.135-135.614-21.344-47.445-16.181-89.895-41.419-126.172-75.014-7.287-6.747-14.904-12.261-22.27-17.592-24.677-17.861-50.195-36.33-64.475-100.03-6.458-28.808 2.467-50.564 23.874-58.199 19.588-6.984 41.212 1.109 51.413 19.249 9.588 17.051 44.315 71.483 71.373 96.017 63.201 57.306 147.846 80.504 251.579 68.942 23.325-2.607 44.414 14.262 47.015 37.587 2.353 21.126-11.411 40.909-32.016 46.019-1.809.449-3.681.784-5.567.994-20.17 2.249-39.904 3.371-59.14 3.371zm-310.335-254.541c-2.517 0-5.07.425-7.563 1.315-15.155 5.405-13.397 24.152-11 34.846 12.614 56.267 33.015 71.034 56.639 88.131 7.85 5.682 15.967 11.556 24.145 19.13 34.196 31.669 74.233 55.467 118.994 70.732 55.361 18.88 117.949 24.606 186.026 17.022 1.004-.112 1.999-.29 2.952-.527.002 0 .003-.001.004-.001 10.854-2.691 18.104-13.122 16.863-24.263-1.371-12.297-12.477-21.185-24.789-19.817-109.718 12.226-199.66-12.682-267.323-74.033-28.344-25.701-63.644-80.162-75.396-101.061-4.083-7.262-11.635-11.474-19.552-11.474z"/><path d="m85.105 113.652c-3.394 0-6.707-1.717-8.602-4.828-.332-.546-8.163-13.586-10.287-33.006-1.954-17.855.6-44.887 23.863-72.272 3.597-4.233 9.946-4.75 14.181-1.153 4.234 3.597 4.751 9.945 1.153 14.181-35.43 41.707-11.966 81.388-11.725 81.784 2.889 4.745 1.386 10.936-3.359 13.826-1.635.995-3.441 1.468-5.224 1.468z"/><path d="m114.674 113.633c-.275 0-.552-.011-.831-.033-5.523-.454-9.641-5.271-9.208-10.795.147-1.877 4.093-46.546 46.262-96.187 3.597-4.233 9.945-4.75 14.181-1.153 4.234 3.597 4.751 9.945 1.153 14.181-37.676 44.351-41.506 84.371-41.539 84.77-.451 5.241-4.847 9.217-10.018 9.217z"/><path d="m434.947 511.997c-5.556 0-10.06-4.505-10.06-10.06l-.001-252.793-70.634 44.759c-4.694 2.972-10.909 1.58-13.883-3.113s-1.58-10.909 3.113-13.883l86.079-54.545c3.1-1.962 7.022-2.084 10.234-.316 3.215 1.768 5.211 5.146 5.211 8.815l.001 271.078c0 5.553-4.504 10.058-10.06 10.058z"/><path d="m358.988 289.167c6.856 1.479 13.629 3.282 20.347 5.286l-3.852-96.896c-.167-4.21-2.94-7.87-6.949-9.17-4.004-1.299-8.402.035-11.008 3.347l-60.857 77.299c-3.437 4.365-2.684 10.69 1.682 14.128 4.364 3.438 10.689 2.684 14.128-1.682l43.984-55.867z"/><path d="m361.711 357.661 4.26 107.152c.215 5.415 4.674 9.661 10.046 9.66.135 0 .27-.003.407-.008 5.552-.221 9.874-4.901 9.653-10.452l-4.147-104.306c-6.751-.588-13.495-1.228-20.219-2.046z"/><path d="m209.713 512c-.868 0-1.75-.114-2.628-.351-5.364-1.448-8.539-6.971-7.09-12.335l45.253-167.611c1.449-5.364 6.97-8.537 12.335-7.09 5.364 1.448 8.539 6.97 7.09 12.335l-45.253 167.611c-1.211 4.486-5.272 7.441-9.707 7.441z"/><path d="m30.828 370.333c-4.016 0-7.81-2.421-9.367-6.385-2.032-5.171.514-11.01 5.685-13.042 64.514-25.345 92.813-47.653 112.147-88.404 2.382-5.02 8.381-7.158 13.402-4.778 5.02 2.382 7.159 8.382 4.778 13.402-21.612 45.552-53.792 71.329-122.969 98.507-1.208.475-2.453.7-3.676.7z"/><path d="m17.291 291.481c-5.432 0-9.905-4.329-10.051-9.791-.149-5.554 4.232-10.177 9.787-10.326 53.252-1.428 75.158-5.416 108.442-27.572 4.623-3.077 10.87-1.826 13.949 2.8 3.079 4.625 1.825 10.87-2.8 13.949-36.868 24.542-63.244 29.44-119.052 30.936-.092.003-.185.004-.275.004z"/><path d="m148.375 474.475c-1.478 0-2.978-.326-4.396-1.017-4.996-2.433-7.073-8.454-4.641-13.45l71.137-146.096c2.432-4.995 8.451-7.074 13.45-4.641 4.996 2.433 7.073 8.454 4.641 13.45l-71.137 146.095c-1.742 3.578-5.325 5.659-9.054 5.659z"/><path d="m182.477 287.457c-1.217 0-2.445-.366-3.51-1.129-2.71-1.941-3.333-5.712-1.392-8.423l31.249-43.626c1.941-2.712 5.711-3.333 8.423-1.392 2.71 1.941 3.333 5.712 1.392 8.423l-31.249 43.626c-1.18 1.646-3.033 2.521-4.913 2.521z"/><path d="m319.964 355.478c-.352 0-.708-.03-1.068-.095-3.281-.586-5.467-3.721-4.881-7.003l10.785-60.427c.586-3.28 3.71-5.471 7.003-4.881 3.281.585 5.467 3.721 4.881 7.003l-10.786 60.427c-.521 2.922-3.065 4.976-5.934 4.976z"/></g><g><g><path d="m128.884 202.727c-3.121 0-6.197-1.447-8.164-4.171l-.799-1.104c-2.367-3.27-3.253-4.494-5.945-8.973-2.862-4.762-1.321-10.944 3.44-13.806 4.764-2.862 10.944-1.32 13.806 3.441 2.249 3.742 2.777 4.471 4.998 7.539l.811 1.121c3.254 4.505 2.239 10.793-2.265 14.046-1.781 1.287-3.841 1.907-5.882 1.907z" fill="#fff"/></g><g><path d="m106.941 165.894c-3.683 0-7.231-2.03-8.997-5.545-2.571-5.118-.906-9.659 1.511-12.202 2.949-3.105 7.583-4.027 11.527-2.294 3.894 1.712 6.16 5.59 6.007 9.598.142 3.815-1.904 7.544-5.538 9.371-1.449.727-2.992 1.072-4.51 1.072zm-4.056-1.622c.003.001.005.002.008.004-.003-.002-.005-.003-.008-.004z" fill="#fff"/></g></g></g><g><g><path d="m455.465 9.027-8.264 23.237c-.354.995-1.054 1.783-1.938 2.182l-20.645 9.301c-2.917 1.314-2.917 5.961 0 7.276l20.645 9.301c.884.398 1.584 1.187 1.938 2.182l8.264 23.237c1.168 3.283 5.296 3.283 6.464 0l8.264-23.237c.354-.995 1.054-1.783 1.938-2.182l20.645-9.301c2.917-1.314 2.917-5.961 0-7.276l-20.645-9.301c-.884-.398-1.584-1.187-1.938-2.182l-8.264-23.237c-1.167-3.283-5.296-3.283-6.464 0z" fill="#ffc8b7"/></g><g><path d="m242.439 86.069-6.13 17.237c-.262.738-.782 1.323-1.438 1.618l-15.314 6.9c-2.163.975-2.163 4.422 0 5.397l15.314 6.9c.656.295 1.175.88 1.438 1.618l6.13 17.237c.866 2.435 3.929 2.435 4.795 0l6.13-17.237c.262-.738.782-1.323 1.438-1.618l15.314-6.9c2.163-.975 2.163-4.422 0-5.397l-15.314-6.9c-.656-.296-1.175-.88-1.438-1.618l-6.13-17.237c-.866-2.435-3.929-2.435-4.795 0z" fill="#ffc8b7"/></g><g><path d="m358.55 115.228c0 9.966 8.079 18.045 18.045 18.045s18.045-8.079 18.045-18.045-8.079-18.045-18.045-18.045-18.045 8.079-18.045 18.045z" fill="#ffa785"/></g><g><circle cx="298.878" cy="28.526" fill="#ffa785" r="7.545"/></g></g></g></svg>