<svg id="Capa_1" enable-background="new 0 0 512 512" height="512" viewBox="0 0 512 512" width="512" xmlns="http://www.w3.org/2000/svg"><g><g><g><circle cx="346.472" cy="322.812" fill="#ba5677" r="155.474"/><ellipse cx="354.941" cy="295.882" fill="#c37777" rx="117.253" ry="98.791"/><path d="m123.494 425.397c-3.048 19.656-19.699 35.011-40.31 35.729-23.336.812-42.913-17.447-43.725-40.783-.609-17.502 9.509-32.89 24.452-39.832" fill="#8289f3"/><path d="m241.559 296.195c23.612 37.796-1.138 75.437-47.15 104.182-46.013 28.745-95.864 37.709-119.476-.087s-5.452-91.738 40.56-120.483 102.454-21.408 126.066 16.388z" fill="#75b7f2"/><path d="m241.559 296.195c-21.876-35.017-71.931-43.885-115.765-22.141 27.168-7.294 54.701.59 67.925 21.757 16.99 27.195-.819 54.279-33.926 74.962s-68.977 27.133-85.966-.063c-4.657-7.454-7.041-15.783-7.388-24.37-4.042 18.782-1.574 37.833 8.494 53.949 23.612 37.796 73.464 28.832 119.476.087 46.012-28.744 70.762-66.385 47.15-104.181z" fill="#8289f3"/></g><g fill="#4e0325"><path d="m346.472 157.285c-65.204 0-123.892 37.956-150.743 97.068-27.88-5.805-58.995.33-85.564 16.927-38.877 24.288-59.474 65.447-54.952 102.459-16.479 9.664-26.477 27.58-25.803 46.953.053 1.518.182 3.02.361 4.51h-19.601c-5.553 0-10.054 4.502-10.054 10.054s4.501 10.054 10.054 10.054h26.357c.812 1.384 1.686 2.734 2.628 4.043l-19.613 5.962c-5.313 1.614-8.31 7.23-6.695 12.543 1.318 4.339 5.305 7.133 9.616 7.133.968 0 1.953-.141 2.927-.438l31.53-9.584c7.543 4.074 15.993 6.238 24.749 6.238.62 0 1.244-.011 1.867-.032 22.284-.776 41.326-15.563 47.984-36.223 4.188-.427 8.487-1.132 12.878-2.109 6.111 4.062 14.779 11.614 14.602 17.942-.155 5.548-7.702 12.261-20.705 18.417-5.018 2.376-7.161 8.37-4.785 13.389 1.718 3.629 5.328 5.753 9.094 5.753 1.441 0 2.906-.311 4.295-.969 21.012-9.948 31.847-22.092 32.203-36.095.265-10.417-5.451-19.165-11.835-25.65 10.573-4.257 21.464-9.849 32.47-16.724 1.311-.819 2.588-1.645 3.858-2.472 13.342 22.764 31.96 42.078 54.38 56.288 26.445 16.76 57.048 25.62 88.499 25.62 91.271-.002 165.526-74.257 165.526-165.53 0-91.271-74.255-165.527-165.528-165.527zm-234.356 257.19c-7.404-1.336-13.82-4.236-19.226-8.665 3.845-6.655 16.677-27.442 37.815-47.766 32.213-30.976 68.148-46.934 106.894-47.516 2.185 5.563 3.181 11.139 2.982 16.772-33.251 1.081-66.183 17-95.681 46.391-15.942 15.883-27.056 31.785-32.784 40.784zm9.946-64.858c-19.437 18.754-31.989 37.494-37.637 46.789-.323-.48-.655-.946-.966-1.443-2.045-3.273-3.708-6.697-5.031-10.225 1.875-5.946 9.326-26.683 27.604-47.422 27.809-31.554 66.49-48.169 115.029-49.456 3.832 3.189 7.211 6.82 10.073 10.835-39.264 2.277-76.73 19.716-109.072 50.922zm-1.243-61.284c16.813-10.503 35.657-16.031 53.735-16.031 6.113 0 12.138.632 17.967 1.918 3.362.741 6.605 1.701 9.717 2.857-53.56 6.033-86.455 30.93-105.256 52.262-10.388 11.786-17.545 23.531-22.325 33.054.38-27.064 17.238-55.99 46.162-74.06zm-37.985 162.744c-6.771.253-13.283-1.613-18.82-5.274-.138-.096-.278-.187-.421-.276-1.351-.924-2.642-1.953-3.861-3.09-3.382-3.154-5.986-6.918-7.727-11.057-.011-.026-.022-.052-.033-.079-1.479-3.543-2.328-7.358-2.465-11.309-.346-9.937 3.875-19.242 11.154-25.518 1.593 3.822 3.499 7.546 5.745 11.141 10.103 16.173 24.956 25.975 43.496 28.9-5.363 9.643-15.509 16.16-27.068 16.562zm61.307-38.838c-.321.064-.639.142-.952.236-5.933 1.504-11.637 2.428-17.05 2.741 16.183-23.555 56.33-72.5 112.179-75.738-.84 2.534-1.888 5.084-3.192 7.656-7.742 15.273-23.664 30.736-46.044 44.716-15.727 9.824-30.96 16.713-44.941 20.389zm202.331 55.994c-41.084 0-79.031-16.895-106.051-45.795 3.593.648 7.448 1.028 11.561 1.028 9.094 0 19.434-1.849 30.892-6.713 5.111-2.17 7.495-8.072 5.326-13.183-2.17-5.112-8.072-7.494-13.183-5.326-25.948 11.015-43.539 1.661-52.37-5.778 13.816-11.495 24.017-23.622 30.413-36.24.537-1.06 1.037-2.121 1.518-3.184 3.287.461 7.643.878 12.695.878 17.46 0 43.069-4.98 60.275-30.341 3.118-4.595 1.92-10.847-2.675-13.964-4.594-3.117-10.846-1.919-13.964 2.676-14.712 21.683-38.773 22.397-50.699 21.202 1.817-14.491-1.568-28.929-10.124-42.624-8.264-13.229-20.406-23.596-35.092-30.254 24.008-50.754 74.954-83.222 131.479-83.222 80.185 0 145.42 65.236 145.42 145.42-.001 80.184-65.236 145.42-145.421 145.42z"/><path d="m405.329 311.756c-3.331 0-6.032 2.701-6.032 6.032v9.739c0 3.331 2.701 6.032 6.032 6.032s6.032-2.701 6.032-6.032v-9.739c0-3.331-2.701-6.032-6.032-6.032z"/><path d="m354.941 363.29c-3.331 0-6.032 2.701-6.032 6.032v9.739c0 3.331 2.701 6.032 6.032 6.032s6.032-2.701 6.032-6.032v-9.739c0-3.331-2.701-6.032-6.032-6.032z"/><path d="m399.574 394.383c-3.331 0-6.032 2.701-6.032 6.032v9.739c0 3.331 2.701 6.032 6.032 6.032s6.032-2.701 6.032-6.032v-9.739c.001-3.331-2.7-6.032-6.032-6.032z"/><path d="m433.429 268.865c-3.331 0-6.032 2.701-6.032 6.032v9.739c0 3.331 2.701 6.032 6.032 6.032s6.032-2.701 6.032-6.032v-9.739c0-3.331-2.701-6.032-6.032-6.032z"/><path d="m376.848 255.338c-3.331 0-6.032 2.701-6.032 6.032v9.739c0 3.331 2.701 6.032 6.032 6.032s6.032-2.701 6.032-6.032v-9.739c.001-3.331-2.7-6.032-6.032-6.032z"/></g><g fill="#fff"><path d="m334.131 232.661c-4.697 0-8.897-3.309-9.85-8.092-1.084-5.445 2.451-10.739 7.897-11.824.644-.128 1.29-.25 1.937-.367 5.461-.988 10.691 2.653 11.672 8.12.981 5.465-2.654 10.691-8.119 11.672-.523.093-1.044.193-1.563.297-.663.13-1.323.194-1.974.194z"/><path d="m278.31 264.164c-2.425 0-4.857-.872-6.787-2.639-4.095-3.75-4.375-10.109-.625-14.204 6.061-6.619 12.903-12.514 20.336-17.519 4.606-3.104 10.854-1.882 13.955 2.723 3.102 4.606 1.883 10.853-2.723 13.955-6.118 4.12-11.749 8.971-16.739 14.42-1.982 2.165-4.695 3.264-7.417 3.264z"/></g></g><g><path d="m33.013 26.119-8.258 23.221c-.354.994-1.054 1.782-1.937 2.18l-20.632 9.296c-2.915 1.313-2.915 5.957 0 7.271l20.632 9.295c.883.398 1.583 1.186 1.937 2.18l8.259 23.222c1.167 3.281 5.293 3.281 6.459 0l8.259-23.222c.354-.994 1.054-1.782 1.937-2.18l20.631-9.296c2.915-1.313 2.915-5.957 0-7.271l-20.632-9.295c-.883-.398-1.583-1.186-1.937-2.18l-8.259-23.222c-1.166-3.28-5.292-3.28-6.459.001z" fill="#98e8f2"/><path d="m311.555 55.743-6.126 17.225c-.262.738-.782 1.322-1.437 1.617l-15.304 6.895c-2.162.974-2.162 4.419 0 5.393l15.304 6.895c.655.295 1.174.88 1.437 1.617l6.126 17.226c.866 2.433 3.926 2.433 4.792 0l6.126-17.226c.262-.737.781-1.322 1.437-1.617l15.304-6.895c2.162-.974 2.162-4.419 0-5.393l-15.304-6.895c-.655-.295-1.174-.88-1.437-1.617l-6.126-17.225c-.866-2.434-3.926-2.434-4.792 0z" fill="#98e8f2"/><g fill="#75b7f2"><path d="m98.563 172.339c0 9.959 8.074 18.033 18.033 18.033s18.033-8.074 18.033-18.033c0-9.96-8.073-18.033-18.033-18.033-9.959-.001-18.033 8.073-18.033 18.033z"/><path d="m200.966 46.377c0 4.164 3.376 7.54 7.54 7.54 4.165 0 7.54-3.376 7.54-7.54s-3.376-7.54-7.54-7.54-7.54 3.376-7.54 7.54z"/></g></g></g></svg>