<svg id="Capa_1" enable-background="new 0 0 512 512" height="512" viewBox="0 0 512 512" width="512" xmlns="http://www.w3.org/2000/svg"><g><g><g><g><path d="m447.915 501.594h-157.306c-35.585 0-70.28-6.968-103.121-20.709-32.812-13.729-62.127-33.53-87.131-58.853-17.744-17.97-37.185-33.894-37.379-34.052-23.098-18.871-26.544-52.899-7.686-76.006 18.859-23.107 52.864-26.569 75.982-7.723.97.791 24.006 19.621 45.969 41.864 29.762 30.143 71.082 47.43 113.366 47.43h157.306c29.837 0 54.025 24.188 54.025 54.025 0 29.836-24.187 54.024-54.025 54.024z" fill="#e79d8e"/></g><g><path d="m447.915 393.544h-157.306c-42.284 0-83.604-17.287-113.366-47.43-11.079-11.22-28.778-24.018-43.69-34.037 3.158 2.121 5.724 8.844 7.529 12.125 2.363 4.295 4.307 8.827 6.357 13.293 4.484 9.764 8.967 19.528 13.451 29.291 6.316 13.754 24.122 32.309 35.423 42.613 10.731 9.785 23.717 17.074 37.705 21.005l78.015 18.803c16.863 4.74 26.692 22.252 21.952 39.116-1.449 5.154-4.095 9.646-7.546 13.27h121.476c29.838 0 54.025-24.188 54.025-54.025s-24.187-54.024-54.025-54.024z" fill="#df768f"/></g><g><path d="m485.377 265.541c0-14.785-6.732-26.186-16.764-30.789 18.366-32.127-13.215-79.197-31.406-75.943-18.988 3.396-15.547 25.501-31.213 35.349-10.277 6.46-24.663 17.418-28.535 32.165l-3.911 7.33c-.492-.324-.978-.649-1.431-.982-23.123-5.563-49.411 1.477-60.388 24.862-4.994 10.638-2.467 20.491-.08 27.807 0 0-12.015 3.135-21.518 6.761s-21.504 11.651-26.689 23.513c-3.531 8.078-5.07 18.284-6.314 26.333-20.99-.869-39.675 7.589-44.749 26.349-5.074 18.761 11.954 36.93 36.058 42.729l125.539 30.205c24.104 5.8 52.367 16.27 67.542-14.7 15.176-30.97-14.424-51.313-17.149-59.153 17.417.552 28.958-17.911 30.547-28.085.985-6.31-.337-24.602-8.212-34.607 12.248-1.63 38.673-12.585 38.673-39.144z" fill="#fff2a5"/></g><g><path d="m485.377 265.541c0-14.785-6.732-26.186-16.764-30.789 18.366-32.127-13.215-79.197-31.406-75.943-8.646 1.546-12.639 6.975-15.906 13.356 18.87 15.087 20.838 54.686 11.555 70.925 8.426 3.865 9.266 8.552 9.266 20.97 0 22.306-24.092 34.744-34.377 36.112 6.614 8.403 8.626 25.887 7.799 31.186-1.334 8.544-9.999 29.48-24.627 29.016 2.288 6.585 17.295 11.525 12.013 24.729-10.758 26.895-39.572 21.733-51.397 21.733-36.87-3.024-70.328-11.144-105.117-28.23-11.21-5.774-22.708-15.494-28.279-21.916-2.58 3.301-4.555 7.161-5.757 11.607-5.074 18.761 11.954 36.93 36.058 42.729l125.539 30.205c24.104 5.8 52.367 16.27 67.542-14.7 15.176-30.97-14.424-51.313-17.149-59.153 17.417.552 28.958-17.911 30.547-28.085.985-6.31-.337-24.602-8.212-34.607 12.247-1.631 38.672-12.586 38.672-39.145z" fill="#ffb7a9"/></g><g><circle cx="158.259" cy="204.273" fill="#e79d8e" r="29.876"/></g><g><circle cx="39.935" cy="204.273" fill="#e79d8e" r="29.876"/></g></g><g fill="#4e0325"><path d="m448.468 383.497c-2.253-3.891-4.741-7.322-7.043-10.245 13.045-6.997 21.708-21.369 23.432-32.409.947-6.064.398-18.505-3.557-29.734 16.472-6.488 34.138-21.26 34.138-45.567 0-17.049-7.433-31.085-19.184-38.145 9.565-20.154 4.418-41.714-4.671-56.412-9.654-15.612-23.841-24.281-36.147-22.078-15.686 2.806-21.274 14.674-25.355 23.34-2.677 5.685-4.989 10.596-9.441 13.395-17.288 10.867-28.131 22.987-32.294 36.053-11.869-1.828-23.902-.773-34.452 3.111-14.168 5.215-24.982 15.053-31.271 28.452-4.366 9.3-4.303 18.213-3.152 25.092-3.986 1.209-8.664 2.725-12.925 4.352-5.545 2.116-24.264 10.452-32.321 28.882-2.828 6.469-4.482 13.712-5.678 20.439-19.729 1.429-35.072 10.487-42.557 25.038-7.769-5.33-15.007-11.349-21.588-18.014-19.314-19.56-39.508-36.577-45.211-41.307l16.955-53.587c.7.037 1.405.057 2.114.057 22.02 0 39.935-17.915 39.935-39.935s-17.915-39.935-39.935-39.935-39.935 17.915-39.935 39.935c0 14.2 7.456 26.684 18.653 33.767l-15.45 48.829c-14.541-5.973-30.688-6.294-45.268-1.291l-15.041-47.538c11.197-7.083 18.653-19.567 18.653-33.767 0-22.02-17.915-39.935-39.935-39.935s-39.937 17.912-39.937 39.933 17.914 39.935 39.935 39.935c.709 0 1.414-.02 2.114-.057l16.166 51.093c-3.884 2.971-7.493 6.419-10.717 10.369-22.331 27.363-18.242 67.807 9.118 90.159.191.156 19.254 15.778 36.582 33.328 25.944 26.275 56.361 46.82 90.406 61.065 34.077 14.26 70.079 21.489 107.005 21.489h157.306c35.336 0 64.085-28.748 64.085-64.085 0-35.152-28.45-63.772-63.532-64.072zm-290.209-199.04c10.927 0 19.816 8.89 19.816 19.816s-8.889 19.816-19.816 19.816-19.816-8.89-19.816-19.816 8.889-19.816 19.816-19.816zm-138.14 19.816c0-10.926 8.889-19.816 19.815-19.816 10.927 0 19.816 8.89 19.816 19.816s-8.889 19.816-19.816 19.816c-10.925 0-19.815-8.89-19.815-19.816zm391.229-1.599c9.438-5.933 13.596-14.762 16.937-21.857 3.96-8.41 5.663-11.205 10.694-12.105 2.284-.414 9.419 3.034 15.492 12.855 7.057 11.412 10.746 28.777-.063 43.288-.128.172-.237.35-.352.527-13.475 12.713-47.599 11.307-66.982 3.865.038-.124.084-.242.117-.368 2.265-8.633 10.618-17.694 24.157-26.205zm-90.512 59.133c8.773-18.688 29.68-23.342 47.168-19.748 21.713 14.287 70.216 19.759 95.583 1.48 7.147 2.718 11.731 11.054 11.731 22.003 0 17.953-16.906 26.006-26.365 28.447-18.662-8.446-41.47-4.264-58.531-1.13-7.148 1.312-13.903 2.547-17.946 2.403-25.144-.933-43.212-9.186-51.524-13.855-1.865-5.872-3.385-12.637-.116-19.6zm-27.117 39.693c4.578-1.747 9.858-3.395 13.911-4.586 8.664 5.395 31.24 17.235 64.1 18.454 6.258.233 13.702-1.137 22.327-2.72 14.674-2.696 32.565-5.976 45.394-.845 5.065 7.437 6.217 21.522 5.527 25.936-.94 6.019-8.98 19.941-20.289 19.582-.485-.011-.965.022-1.44.077-29.437-5.546-49.778-2.289-67.889.619-9.192 1.475-17.86 2.868-26.797 2.851-26.612-.057-51.03-16.048-60.576-23.16 1.035-6.194 2.403-12.873 4.673-18.066 3.914-8.953 13.79-15.369 21.059-18.142zm-71.628 69.421c4.424-16.359 22.396-18.795 31.393-18.958 9.433 7.432 39.782 28.95 75.036 29.025h.231c10.455 0 19.854-1.509 29.798-3.105 16.994-2.73 34.511-5.541 59.952-.907 1.054 1.388 2.254 2.826 3.569 4.397 4.448 5.312 8.447 10.478 10.966 15.926.093.232.199.457.309.679 3.148 7.197 3.655 14.913-.859 24.125-9.772 19.945-25.249 17.158-49.689 10.959-2.179-.553-4.339-1.1-6.467-1.612l-125.539-30.205c-11.951-2.875-21.884-9.311-26.571-17.215-2.586-4.361-3.302-8.771-2.129-13.109zm225.824 120.613h-157.306c-34.245 0-67.634-6.705-99.239-19.929-31.577-13.213-59.79-32.27-83.855-56.642-18.298-18.531-37.984-34.621-38.172-34.774-18.771-15.335-21.577-43.083-6.257-61.855 15.321-18.773 43.058-21.591 61.83-6.289.954.779 23.625 19.318 45.169 41.137 9.414 9.534 19.982 17.931 31.475 25.017.499 5.496 2.291 10.927 5.354 16.093 7.512 12.668 21.789 22.332 39.17 26.514l125.539 30.205c2.049.493 4.128 1.021 6.227 1.553 9.726 2.467 20.532 5.208 31.146 5.207 2.126 0 4.247-.11 6.347-.354 15.651-1.82 27.497-10.723 35.208-26.461 4.77-9.734 5.952-18.669 5.079-26.661 20.574 3.66 36.249 21.665 36.249 43.274.001 24.243-19.721 43.965-43.964 43.965z"/><path d="m158.656 213.76c5.24-.486 9.094-5.127 8.608-10.367s-5.127-9.094-10.367-8.608-9.094 5.127-8.608 10.367c.485 5.24 5.127 9.094 10.367 8.608z"/><path d="m49.906 205.152c.486-5.24-3.368-9.882-8.608-10.367-5.24-.486-9.882 3.368-10.367 8.608-.486 5.24 3.368 9.882 8.608 10.367 5.24.486 9.881-3.368 10.367-8.608z"/><path d="m110.929 333.064c-3.333 0-6.036 2.703-6.036 6.036 0 4.332-3.525 7.856-7.856 7.857-4.332 0-7.856-3.525-7.856-7.856 0-3.334-2.703-6.036-6.036-6.036s-6.035 2.703-6.035 6.036c0 10.988 8.94 19.928 19.929 19.928 10.988-.001 19.927-8.942 19.927-19.929-.001-3.334-2.704-6.036-6.037-6.036z"/><path d="m267.537 441.942c-3.333 0-6.036 2.702-6.036 6.036v11.782c0 3.333 2.703 6.036 6.036 6.036s6.036-2.703 6.036-6.036v-11.782c0-3.334-2.702-6.036-6.036-6.036z"/><path d="m311.546 453.461c-3.333 0-6.036 2.703-6.036 6.036v11.782c0 3.333 2.702 6.036 6.036 6.036 3.333 0 6.036-2.703 6.036-6.036v-11.782c0-3.333-2.703-6.036-6.036-6.036z"/></g><g><g><path d="m373.775 283.798c-21.302 0-33.462-8.877-34.817-9.92l12.275-15.94-.109-.083c.35.254 8.755 6.199 24.204 5.803 5.551-.193 10.178 4.23 10.328 9.784.15 5.553-4.23 10.178-9.784 10.328-.707.019-1.409.028-2.097.028z" fill="#fff"/></g></g></g><g><g><path d="m327.693 2.808-8.264 23.236c-.354.995-1.054 1.783-1.938 2.181l-20.644 9.301c-2.916 1.314-2.916 5.961 0 7.275l20.644 9.301c.884.398 1.584 1.187 1.938 2.181l8.264 23.236c1.167 3.283 5.296 3.283 6.463 0l8.264-23.236c.354-.995 1.054-1.783 1.938-2.181l20.644-9.301c2.917-1.314 2.917-5.961 0-7.275l-20.644-9.301c-.884-.398-1.584-1.187-1.938-2.181l-8.264-23.236c-1.167-3.282-5.295-3.282-6.463 0z" fill="#fff2a5"/></g><g><path d="m121.54 42.99-6.13 17.236c-.262.738-.782 1.323-1.438 1.618l-15.313 6.899c-2.163.975-2.163 4.422 0 5.396l15.313 6.899c.656.295 1.175.88 1.438 1.618l6.13 17.236c.866 2.435 3.928 2.435 4.794 0l6.13-17.236c.262-.738.782-1.323 1.438-1.618l15.313-6.899c2.163-.975 2.163-4.422 0-5.396l-15.313-6.899c-.656-.295-1.175-.88-1.438-1.618l-6.13-17.236c-.866-2.435-3.928-2.435-4.794 0z" fill="#fff2a5"/></g><g><path d="m257.128 163.42c0 9.965 8.078 18.044 18.044 18.044 9.965 0 18.044-8.078 18.044-18.044 0-9.965-8.078-18.044-18.044-18.044-9.965 0-18.044 8.079-18.044 18.044z" fill="#ffe35c"/></g><g><circle cx="456.488" cy="71.441" fill="#ffe35c" r="7.545"/></g></g></g></svg>