<svg id="Capa_1" enable-background="new 0 0 512 512" height="512" viewBox="0 0 512 512" width="512" xmlns="http://www.w3.org/2000/svg"><g><g><g><g><path d="m368.671 429.324c27.031 28.934 58.422 23.863 77.541 6.001 19.12-17.862 26.446-56.173-.585-85.108l35.398-6.497c31.503 44.524 25.474 93.852-5.597 122.879-18.173 16.978-41.376 26.245-65.335 26.095-18.718-.117-46.525-6.138-72.697-34.153-1.242-1.329-2.281-2.774-3.12-4.298" fill="#75b7f2"/></g><g><path d="m200.126 300.593-31.842 29.748c-16.124 15.064-41.498 14.201-56.561-1.923l-8.8-9.42c6.866-16.876 3.831-36.938-9.424-51.126-14.68-15.714-37.398-19.409-55.85-10.683l24.26 25.968c5.545 5.935 5.228 15.242-.707 20.786-5.935 5.545-15.242 5.228-20.787-.707l-24.26-25.968c-10.203 18.252-7.704 41.858 7.965 57.588 13.163 13.215 32.416 17.173 49.228 11.694l8.838 9.46c30.278 32.41 81.279 34.144 113.69 3.866l31.842-29.748z" fill="#75b7f2"/></g><g><path d="m220.705 281.368 31.842-29.748c16.124-15.064 16.987-40.437 1.924-56.561l-8.8-9.42c-17.304 5.703-37.113 1.313-50.368-12.876-14.68-15.714-16.823-38.63-6.864-56.446l24.26 25.968c5.545 5.935 14.851 6.252 20.786.707 5.935-5.545 6.252-14.851.707-20.786l-24.26-25.968c18.903-8.94 42.285-4.842 56.913 11.859 12.29 14.031 14.931 33.507 8.322 49.908l8.838 9.46c30.278 32.41 28.543 83.411-3.867 113.69l-31.842 29.748z" fill="#75b7f2"/></g><g><path d="m134.257 340.044 10.813 41.346 34.751-13.127-18.211-32.376z" fill="#8289f3"/></g><g><path d="m300.847 280.649c56.246 60.206 81.848 135.575 52.333 163.148s-102.97-3.09-159.216-63.296c-56.246-60.207-47.126-98.408-17.611-125.982 29.515-27.573 68.248-34.077 124.494 26.13z" fill="#75b7f2"/></g><g><path d="m300.847 280.649c-56.246-60.206-94.979-53.703-124.494-26.13-1.844 1.722-3.608 3.486-5.281 5.294 21.784-17.185 49.997-18.434 89.693 24.058 42.732 45.74 62.182 103 39.759 123.948-6.045 5.647-14.523 8.066-24.51 7.709-1.993 1.226-15.035 12.272-20.362 15.463 39.909 23.924 78.17 30.892 97.528 12.807 29.515-27.574 3.913-102.943-52.333-163.149z" fill="#8289f3"/></g><g><path d="m496.521 315.824c1.336 20.704-14.364 38.57-35.068 39.907-20.704 1.336-38.57-14.364-39.906-35.068s22.364-85.785 32.066-86.412c9.703-.626 41.572 60.87 42.908 81.573z" fill="#ff8cc0"/></g><g><path d="m496.521 315.825c-1.336-20.704-33.205-82.199-42.908-81.573-2.833.183-6.858 5.863-11.105 14.325 9.011 9.833 24.571 41.579 25.345 53.573.926 14.345-9.953 26.725-24.298 27.651-8.829.57-16.909-3.336-22.037-9.766.008.212.015.426.028.629 1.336 20.704 19.203 36.404 39.906 35.068 20.705-1.337 36.406-19.204 35.069-39.907z" fill="#ff68c1"/></g></g><g fill="#4e0325"><path d="m495.949 348.327c7.34-9.001 11.443-20.675 10.638-33.151-.847-13.129-10.599-35.888-19.443-52.809-5.103-9.761-10.21-18.228-14.769-24.486-5.404-7.415-11.476-14.187-19.412-13.696-7.916.511-13.084 8.03-17.49 16.078-3.718 6.791-7.695 15.845-11.499 26.182-6.596 17.917-13.341 41.74-12.494 54.868.82 12.703 6.537 24.325 16.098 32.727 4.719 4.147 10.098 7.253 15.859 9.249.183.351.381.697.61 1.032 15.436 22.649 9.721 50.141-4.722 63.635-14.321 13.378-39.486 19.958-63.284-5.516-.379-.405-.789-.762-1.214-1.091 2.122-14.111.133-31.05-6.066-50.021-.952-2.913-1.994-5.843-3.118-8.786.554-.264 1.092-.577 1.606-.951l26.647-19.429c4.502-3.282 5.49-9.592 2.207-14.094s-9.594-5.488-14.094-2.208l-24.584 17.925c-3.143-6.371-6.647-12.756-10.483-19.111.105-.071.212-.136.316-.211l32.246-23.512c4.502-3.282 5.49-9.592 2.208-14.094-3.283-4.504-9.595-5.488-14.094-2.208l-31.719 23.128c-4.534-6.444-9.391-12.814-14.546-19.058l22.482-16.392c4.502-3.282 5.49-9.592 2.208-14.094-3.283-4.502-9.594-5.489-14.094-2.208l-23.974 17.48c-1.618-1.728-3.228-3.411-4.83-5.046 20.262-34.218 15.856-78.311-11.767-107.88l-4.724-5.057c5.298-18.925.858-39.142-12.22-54.073-17.093-19.515-45.389-25.409-68.814-14.332-2.912 1.377-4.99 4.062-5.595 7.226s.338 6.426 2.537 8.779l24.26 25.969c1.137 1.217 1.266 2.596 1.242 3.31-.025.714-.247 2.082-1.464 3.219-1.216 1.136-2.597 1.256-3.31 1.241-.714-.025-2.081-.247-3.218-1.465l-24.26-25.967c-2.2-2.352-5.393-3.517-8.587-3.127-3.198.388-6.018 2.279-7.589 5.091-12.421 22.219-9.087 49.647 8.296 68.255 13.946 14.925 34.751 21.365 54.485 17.282l4.682 5.013c7.509 8.037 9.865 19.423 6.625 29.57-8.113-3.636-16.078-5.919-23.945-6.865-12.539-1.51-24.733.499-36.464 5.974l-15.436-16.523c-3.803-4.072-10.187-4.288-14.257-.486-4.071 3.803-4.289 10.187-.486 14.257l12.789 13.69c-2.173 1.735-4.327 3.592-6.46 5.584-2.132 1.992-4.132 4.015-6.01 6.065l-12.789-13.689c-3.803-4.07-10.186-4.287-14.258-.485-4.07 3.803-4.287 10.187-.485 14.258l15.436 16.523c-6.258 11.329-9.09 23.357-8.437 35.973.409 7.909 2.144 16.008 5.218 24.346-10.398 2.556-21.577-.611-29.048-8.607l-4.683-5.013c5.412-19.416.403-40.607-13.541-55.532-17.383-18.608-44.524-23.798-67.534-12.916-2.912 1.377-4.99 4.061-5.595 7.226-.605 3.164.338 6.426 2.537 8.779l24.261 25.969c1.136 1.216 1.265 2.596 1.24 3.31-.024.714-.246 2.081-1.464 3.219-1.216 1.136-2.603 1.255-3.31 1.241-.714-.025-2.083-.247-3.218-1.463l-24.26-25.968c-2.2-2.354-5.392-3.521-8.587-3.128-3.198.388-6.018 2.28-7.589 5.091-12.644 22.617-8.687 51.249 9.623 69.629 14.009 14.063 33.875 19.867 53.118 15.865l4.724 5.055c17.606 18.847 41.707 28.759 66.157 28.757 13.818-.001 27.749-3.174 40.677-9.684 1.598 1.794 3.244 3.6 4.943 5.418.716.767 1.438 1.526 2.16 2.285l-15.305 19.557c-3.434 4.388-2.661 10.728 1.727 14.161 1.845 1.444 4.035 2.143 6.21 2.143 2.996 0 5.962-1.329 7.951-3.87l13.874-17.728c5.95 5.51 12.04 10.721 18.221 15.61l-20.587 26.307c-3.434 4.388-2.661 10.728 1.727 14.161 1.845 1.444 4.035 2.143 6.21 2.143 2.996 0 5.962-1.329 7.951-3.87l20.956-26.779c6.121 4.17 12.288 8.002 18.458 11.466l-14.605 18.663c-3.434 4.388-2.661 10.728 1.727 14.161 1.845 1.444 4.036 2.144 6.21 2.144 2.996 0 5.962-1.329 7.951-3.87l17.121-21.878c1.76.774 3.518 1.522 5.271 2.229 16.014 6.467 30.724 9.689 43.612 9.689 1.794 0 3.551-.066 5.273-.191.425.517.864 1.02 1.321 1.509 28.623 30.639 59.305 37.225 80.005 37.355.212.001.424.002.635.002 26.322 0 51.744-10.218 71.648-28.813 33.977-31.739 39.158-81.615 13.636-125.642zm-64.335-28.314c-.47-7.267 3.445-24.255 9.74-42.271 5.267-15.074 10.007-24.847 13.123-30.093 3.766 4.802 9.723 13.884 16.883 28.156 8.56 17.059 14.625 33.401 15.094 40.668.976 15.12-10.532 28.215-25.651 29.191-15.121.995-28.213-10.531-29.189-25.651zm-216.405 67.49c22.261-4.333 43.069-14.889 59.49-30.384 15.675-14.789 26.872-33.601 32.349-53.995 11.479 14.147 21.437 29.075 29.291 43.853-11.656 36.447-43.684 64.098-82.164 71.186-13.291-8.595-26.522-18.993-38.966-30.66zm-37.402-43.372c42.152-9.986 75.665-41.918 86.787-82.867 8.847 6.489 18.444 15.099 28.881 26.271 1.264 1.353 2.511 2.721 3.748 4.096-7.999 45.33-45.504 79.948-92.749 85.286-1.054-1.093-2.102-2.192-3.139-3.302-10.022-10.728-17.73-20.518-23.528-29.484zm84.036-155.957-8.8-9.419c-2.686-2.874-6.797-3.925-10.53-2.694-14.082 4.64-29.722.646-39.838-10.183-7.821-8.37-11.294-19.47-10.058-30.312l12.711 13.605c4.522 4.841 10.657 7.631 17.276 7.856 6.622.226 12.929-2.142 17.769-6.663 9.99-9.333 10.524-25.054 1.191-35.043l-12.664-13.557c11.287-.461 22.595 4.118 30.358 12.981 9.349 10.672 11.921 26.174 6.555 39.492-1.465 3.636-.691 7.791 1.985 10.656l8.837 9.46c20.403 21.84 24.504 53.87 11.349 79.819-5.57-4.801-11.05-9.011-16.455-12.646 7.384-17.893 3.843-38.871-9.686-53.352zm-7.958 66.04c-9.103 39.702-41.587 70.69-82.465 78.922-17.992-35.192-4.244-56.239 11.818-71.245 10.013-9.354 22.299-17.651 38.347-17.651 9.383 0 20.055 2.85 32.3 9.974zm-164.327 94.91-8.838-9.46c-2.676-2.864-6.767-3.918-10.496-2.704-13.651 4.449-28.944.829-38.955-9.222-8.316-8.348-12.11-19.924-10.888-31.17l12.665 13.557c4.521 4.839 10.656 7.629 17.275 7.853 6.627.216 12.929-2.141 17.768-6.662 4.84-4.521 7.63-10.656 7.854-17.275.226-6.62-2.141-12.93-6.661-17.769l-12.712-13.608c10.883-.509 21.738 3.723 29.558 12.095 10.116 10.827 13.041 26.7 7.452 40.437-1.481 3.643-.712 7.814 1.972 10.687l8.8 9.42c13.46 14.407 34.101 19.473 52.567 13.284 3.26 5.641 7.088 11.396 11.5 17.28-26.967 11.456-58.503 5.049-78.861-16.743zm197.815 86.589c-5.996-2.422-12.115-5.337-18.28-8.679 15.938-4.733 30.709-12.702 43.469-23.574 13.53-11.528 24.07-25.661 31.04-41.483 2.304 5.282 4.313 10.503 5.983 15.616 8.871 27.147 7.671 48.591-3.291 58.832-10.964 10.243-32.438 9.982-58.921-.712zm181.17 23.515c-16.154 15.091-36.688 23.382-57.879 23.381-.167 0-.339-.001-.507-.002-15.299-.095-37.443-4.672-59.255-24.852 3.332-1.812 6.398-4.002 9.164-6.587 2.846-2.658 5.296-5.661 7.366-8.97 16.116 14.336 31.938 17.669 42.89 17.763.164.001.328.002.493.002 15.355 0 30.353-6.12 42.284-17.267 10.575-9.879 17.772-24.526 19.744-40.182 1.629-12.926-.232-25.63-5.376-37.377 4.418-.792 8.61-2.185 12.497-4.092 19.006 35.031 14.784 73.702-11.421 98.183z"/><path d="m459.74 303.236c0-3.342-2.71-6.052-6.052-6.052s-6.052 2.71-6.052 6.052v11.815c0 3.342 2.71 6.052 6.052 6.052s6.052-2.71 6.052-6.052z"/></g><g><g><path d="m188.595 312.447c-.459 0-.922-.031-1.389-.096-5.52-.76-9.377-5.85-8.617-11.369.107-.779 1.147-7.817 4.594-15.078 2.389-5.034 8.406-7.177 13.439-4.788s7.176 8.406 4.788 13.439c-2.116 4.457-2.827 9.134-2.834 9.179-.696 5.053-5.021 8.713-9.981 8.713z" fill="#fff"/></g></g></g><g><g><path d="m418.278 80.439-8.286 23.299c-.355.998-1.057 1.788-1.943 2.188l-20.701 9.326c-2.924 1.318-2.924 5.977 0 7.295l20.701 9.326c.886.399 1.589 1.19 1.943 2.187l8.286 23.299c1.171 3.292 5.311 3.292 6.481 0l8.286-23.299c.355-.997 1.057-1.788 1.943-2.187l20.701-9.326c2.924-1.318 2.924-5.977 0-7.295l-20.701-9.326c-.886-.399-1.589-1.19-1.943-2.188l-8.286-23.299c-1.17-3.292-5.31-3.292-6.481 0z" fill="#98e8f2"/></g><g><path d="m100.965 37.518-6.146 17.283c-.263.74-.784 1.326-1.441 1.623l-15.355 6.918c-2.169.977-2.169 4.434 0 5.411l15.355 6.918c.657.296 1.178.883 1.441 1.623l6.146 17.283c.868 2.442 3.939 2.442 4.808 0l6.147-17.283c.263-.74.784-1.326 1.442-1.623l15.355-6.918c2.169-.978 2.169-4.434 0-5.411l-15.355-6.918c-.658-.296-1.178-.883-1.442-1.623l-6.147-17.283c-.869-2.441-3.939-2.441-4.808 0z" fill="#98e8f2"/></g><g><path d="m302.607 27.31c0 9.993 8.1 18.093 18.093 18.093s18.093-8.101 18.093-18.093c0-9.993-8.101-18.093-18.093-18.094-9.993 0-18.093 8.101-18.093 18.094z" fill="#75b7f2"/></g><g><path d="m36.075 152.691c0 4.178 3.387 7.565 7.565 7.565s7.566-3.387 7.566-7.565-3.387-7.565-7.566-7.565c-4.178 0-7.565 3.387-7.565 7.565z" fill="#75b7f2"/></g></g></g></svg>