<svg id="Capa_1" enable-background="new 0 0 512 512" height="512" viewBox="0 0 512 512" width="512" xmlns="http://www.w3.org/2000/svg"><g><g><g><g><path d="m193.801 227.797c-79.456 96.079-192.955 221.085-183.106 248.445 9.568 26.576 77.693 33.528 124.974 15.442 64.965-24.85 119.813-87.973 119.813-87.973" fill="#ff8cc0"/></g><g><path d="m213.78 377.66c-9.586 10.454-50.736 53.216-98.375 71.438-32.339 12.371-76.302 10.772-95.771-2.329-7.539 13.42-11.032 23.658-8.939 29.472 9.567 26.576 77.693 33.528 124.974 15.442 64.965-24.85 119.813-87.973 119.813-87.973l-9.134-26.05z" fill="#ff68c1"/></g><g><path d="m321.273 230.192c79.455 96.079 188.846 218.69 178.996 246.05-9.568 26.576-77.693 33.528-124.974 15.442-64.965-24.85-119.813-87.973-119.813-87.973" fill="#ff8cc0"/></g><g><path d="m331.823 278.65c0 47.666-33.599 125.061-76.341 125.061s-76.341-77.395-76.341-125.061 34.179-86.307 76.341-86.307c42.163-.001 76.341 38.64 76.341 86.307z" fill="#ffe35c"/></g><g><path d="m255.483 192.342c-3.827 0-7.586.328-11.262.942 26.123 5.117 45.996 30.849 45.996 61.845 0 34.677-24.443 90.981-55.537 90.981-27.879 0-50.407-45.26-54.769-79.614-.495 3.972-.768 8.026-.768 12.153 0 47.666 33.599 125.061 76.341 125.061s76.341-77.395 76.341-125.061c-.002-47.666-34.18-86.307-76.342-86.307z" fill="#ffac62"/></g><g><path d="m39.013 424.447 166.214-44.818-17.67-33.518-92.804 4.017" fill="#ffe35c"/></g><g><path d="m470.817 424.447-166.214-44.818 17.67-33.518 92.805 4.017" fill="#ffe35c"/></g><g><path d="m329.921 240.613c.347 4.414.461 8.781.53 12.879.14 8.305-.059 16.935-1.089 25.402 20.338 24.247 40.525 48.527 57.074 69.994l28.642 1.24 55.74 74.319-45.974-12.396c.247 1.935.153 3.597-.333 4.946-7.264 20.177-58.986 25.455-94.882 11.724-19.548-7.478-37.883-19.519-52.903-31.333-5.772 3.968-11.878 7.509-18.494 9.372 11.85 12.889 60.637 63.339 117.065 84.924 47.282 18.086 115.407 11.134 124.974-15.442 9.496-26.38-91.858-141.309-170.35-235.629z" fill="#ff68c1"/></g><g><path d="m415.078 350.128-28.642-1.24c21.504 27.894 36.857 51.03 38.408 63.162l45.974 12.396z" fill="#ffac62"/></g></g><g fill="#4e0325"><path d="m470.052 397.367c-26.184-34.928-62.318-77.644-97.263-118.952-11.245-13.294-22.746-26.893-33.798-40.096 19.122-24.933 41.31-25.082 42.27-25.093 0 0 11.502-.803 10.79-10.843s-10.339-9.233-10.339-9.233c-1.349-.045-30.777-.454-55.838 29.419-.303-.366-.614-.739-.915-1.104-10.12-15.257-24.177-27.074-40.483-33.574.577-2.841 1.717-7.567 3.772-13.185l8.247 7.19c1.903 1.658 4.253 2.472 6.594 2.472 2.801 0 5.588-1.166 7.573-3.443 3.644-4.18 3.21-10.522-.97-14.167l-12.157-10.599c2.093-3.152 4.492-6.277 7.245-9.252l11.2 15.041c1.971 2.646 4.996 4.045 8.061 4.045 2.085 0 4.188-.647 5.989-1.988 4.448-3.312 5.368-9.603 2.056-14.05l-11.544-15.502c3.242-1.807 6.763-3.387 10.588-4.674l9.135 18.27c1.76 3.519 5.305 5.553 8.989 5.553 1.508 0 3.041-.341 4.482-1.062 4.96-2.48 6.97-8.511 4.491-13.471l-6.473-12.946c2.963-.116 6.05-.088 9.272.108 5.533.338 10.296-3.874 10.635-9.409.338-5.535-3.875-10.297-9.41-10.635-44.552-2.72-69.007 19.877-81.673 39.315-9.622 14.768-13.875 29.802-15.547 37.392-3.136-.387-6.322-.592-9.549-.592-2.495 0-4.964.126-7.405.358-1.707-7.66-5.969-22.537-15.495-37.158-12.665-19.438-37.122-42.036-81.673-39.315-5.535.338-9.748 5.1-9.41 10.635.338 5.534 5.108 9.753 10.635 9.409 3.224-.198 6.311-.227 9.275-.112l-6.475 12.95c-2.48 4.96-.47 10.991 4.49 13.471 1.441.721 2.974 1.062 4.483 1.062 3.683 0 7.23-2.034 8.989-5.553l9.139-18.278c3.825 1.288 7.346 2.868 10.589 4.676l-11.549 15.509c-3.312 4.448-2.391 10.738 2.056 14.05 1.801 1.341 3.904 1.988 5.989 1.988 3.064 0 6.09-1.398 8.061-4.045l11.204-15.045c2.753 2.976 5.151 6.101 7.244 9.254l-12.159 10.6c-4.18 3.645-4.615 9.987-.97 14.167 1.985 2.278 4.771 3.443 7.573 3.443 2.34 0 4.691-.814 6.594-2.472l8.247-7.19c1.876 5.132 2.991 9.52 3.61 12.407-17.174 6.309-31.984 18.471-42.524 34.364-.299.361-.607.731-.907 1.093-25.061-29.873-54.488-29.458-55.839-29.42 0 0-9.986-.421-10.52 9.233s10.97 10.843 10.97 10.843c.966-.007 23.146.152 42.271 25.094-11.053 13.204-22.556 26.806-33.803 40.102-34.944 41.307-71.077 84.022-97.26 118.948-41.135 54.87-43.373 71.969-39.663 82.273 3.359 9.331 11.219 16.885 23.362 22.454 14.119 6.474 33.028 9.694 52.913 9.694 20.993-.001 43.073-3.591 61.733-10.728 53.027-20.284 98.693-64.19 116.226-82.534 17.532 18.345 63.199 62.25 116.226 82.534 18.662 7.138 40.737 10.728 61.733 10.728 19.882-.001 38.796-3.22 52.913-9.694 12.143-5.569 20.003-13.123 23.362-22.453 3.71-10.305 1.472-27.405-39.665-82.277zm-12.11 17.369-146.258-39.438c2.345-3.584 4.622-7.403 6.821-11.452 2.042-3.759 3.959-7.651 5.772-11.619l87.361 3.782c15.071 18.313 29.155 35.887 41.134 51.789 1.791 2.378 3.512 4.688 5.17 6.938zm-56.648-71.235-72.061-3.119c7.974-20.846 12.631-43.003 12.631-61.732 0-1.986-.061-3.957-.168-5.914 5.264 6.237 10.541 12.476 15.761 18.647 14.685 17.359 29.579 34.968 43.837 52.118zm-145.811-141.118c36.558 0 66.3 34.213 66.3 76.267 0 22.525-8.214 52.205-20.925 75.614-13.6 25.043-30.138 39.406-45.375 39.406s-31.775-14.363-45.375-39.406c-12.711-23.409-20.925-53.089-20.925-75.614 0-42.054 29.742-76.267 66.3-76.267zm-101.98 89.008c5.222-6.173 10.5-12.414 15.766-18.652-.107 1.956-.167 3.926-.167 5.911 0 18.715 4.65 40.852 12.613 61.684l-71.998 3.117c14.242-17.133 29.119-34.721 43.786-52.06zm-54.133 64.567 87.297-3.779c1.819 3.985 3.744 7.893 5.794 11.668 2.146 3.951 4.366 7.682 6.652 11.191l-145.809 39.316c1.571-2.128 3.199-4.311 4.888-6.553 11.991-15.918 26.09-33.511 41.178-51.843zm32.712 126.348c-31.321 11.982-74.853 12.656-99.101 1.536-6.819-3.127-11.365-7.008-12.814-10.935-.084-.462-.677-5.368 8.146-21.101 3.568-6.363 8.182-13.648 13.932-21.991l164.394-44.328c9.127 11.415 19.082 19.55 29.456 24.077-19.171 19.221-59.438 55.69-104.013 72.742zm358.716-9.399c-1.449 3.927-5.995 7.808-12.814 10.935-24.248 11.118-67.778 10.445-99.1-1.536-44.576-17.052-84.843-53.522-104.014-72.742 10.297-4.493 20.18-12.545 29.252-23.826l164.856 44.453c5.628 8.184 10.161 15.348 13.674 21.614 8.821 15.731 8.231 20.639 8.146 21.102z"/><path d="m252.349 354.988c3.327 0 6.025-2.698 6.025-6.025v-11.76c0-3.327-2.697-6.025-6.025-6.025-3.327 0-6.024 2.698-6.024 6.025v11.76c-.001 3.328 2.697 6.025 6.024 6.025z"/><path d="m282.794 325.812c3.327 0 6.025-2.698 6.025-6.025v-11.761c0-3.327-2.698-6.024-6.025-6.024s-6.025 2.697-6.025 6.024v11.761c0 3.328 2.698 6.025 6.025 6.025z"/><path d="m259.706 302.724c3.327 0 6.025-2.697 6.025-6.025v-11.76c0-3.327-2.698-6.024-6.025-6.024s-6.024 2.697-6.024 6.024v11.76c0 3.328 2.697 6.025 6.024 6.025z"/><path d="m288.122 270.249c3.327 0 6.025-2.697 6.025-6.025v-11.76c0-3.327-2.698-6.024-6.025-6.024s-6.025 2.697-6.025 6.024v11.76c0 3.328 2.698 6.025 6.025 6.025z"/></g><g><g><path d="m244.14 239.508c-4.318 0-8.306-2.807-9.612-7.155-1.595-5.312 1.417-10.91 6.728-12.505.658-.198 1.321-.383 1.989-.554 5.368-1.373 10.841 1.867 12.215 7.24 1.374 5.372-1.867 10.841-7.24 12.216-.398.102-.794.213-1.187.33-.964.29-1.937.428-2.893.428z" fill="#fff"/></g><g><path d="m212.343 277.751c-.583 0-1.174-.051-1.768-.157-5.46-.97-9.1-6.182-8.13-11.642 1.424-8.018 4.271-15.503 8.46-22.25 2.925-4.712 9.116-6.159 13.827-3.233 4.711 2.925 6.158 9.116 3.233 13.827-2.838 4.569-4.771 9.673-5.748 15.168-.864 4.865-5.099 8.287-9.874 8.287z" fill="#fff"/></g></g></g><g><g><path d="m472.578 95.471-8.248 23.192c-.353.993-1.052 1.78-1.934 2.177l-20.605 9.283c-2.911 1.312-2.911 5.95 0 7.261l20.605 9.283c.882.398 1.581 1.184 1.934 2.177l8.248 23.192c1.165 3.277 5.286 3.277 6.451 0l8.248-23.192c.353-.993 1.052-1.78 1.935-2.177l20.605-9.283c2.911-1.311 2.911-5.95 0-7.261l-20.605-9.283c-.882-.397-1.581-1.184-1.935-2.177l-8.248-23.192c-1.165-3.276-5.286-3.276-6.451 0z" fill="#ffc5dd"/></g><g><path d="m243.339 2.033-6.118 17.203c-.262.737-.781 1.32-1.435 1.615l-15.285 6.886c-2.159.973-2.159 4.413 0 5.386l15.285 6.886c.654.295 1.173.879 1.435 1.615l6.118 17.203c.864 2.43 3.921 2.43 4.785 0l6.118-17.203c.262-.736.781-1.32 1.435-1.615l15.285-6.886c2.159-.973 2.159-4.413 0-5.386l-15.285-6.886c-.654-.295-1.173-.879-1.435-1.615l-6.118-17.203c-.864-2.43-3.921-2.43-4.785 0z" fill="#ffc5dd"/></g><g><path d="m23.873 189.283c0 9.947 8.063 18.01 18.01 18.01s18.01-8.063 18.01-18.01-8.063-18.01-18.01-18.01-18.01 8.063-18.01 18.01z" fill="#ff8cc0"/></g><g><path d="m109.558 41.748c0 4.159 3.371 7.531 7.531 7.531 4.159 0 7.531-3.372 7.531-7.531s-3.372-7.531-7.531-7.531c-4.159.001-7.531 3.372-7.531 7.531z" fill="#ff8cc0"/></g></g></g></svg>