<svg id="Capa_1" enable-background="new 0 0 512 512" height="512" viewBox="0 0 512 512" width="512" xmlns="http://www.w3.org/2000/svg"><g><g><g><g><path d="m409.77 176.448-91.929 52.733-91.632-53.246.296-105.98 91.93-52.733 91.632 53.247z" fill="#ffe35c"/></g><g><path d="m367.961 46.002 1.63 12.66-.193 68.858c-.024 8.498-4.58 16.339-11.952 20.568l-47.816 27.428c-7.372 4.229-16.44 4.203-23.788-.066l-59.536-34.596-.098 35.081 91.632 53.247 91.929-52.733.297-105.979z" fill="#ffac62"/></g><g><path d="m501.996 230.231-91.633-53.246-91.929 52.733-.296 105.979 45.459 26.415v114.179c0 12.832 10.403 23.235 23.235 23.235 12.833 0 23.235-10.403 23.235-23.235v-87.518l45.458-26.076v46.928c0 12.833 10.403 23.235 23.236 23.235 12.832 0 23.235-10.403 23.235-23.235v-140.705h-.108z" fill="#ffe35c"/></g><g><g><path d="m501.996 230.231-91.633-53.246-9.52 5.46 63.44 36.864-.086 30.753h.086v46.4c0 14.836-7.998 28.52-20.925 35.801l-31.224 17.587c-12.927 7.281-20.241 13.495-20.241 28.331l-.684 36.717c0 10.2-8.269 18.469-18.469 18.469-3.33 0-6.447-.894-9.145-2.437v45.359c0 12.832 10.403 23.235 23.235 23.235 12.833 0 23.235-10.403 23.235-23.235v-87.518l23.222-13.321c-2-1.85 10.521 2.916 22.236 6.713v26.902c0 12.599 9.797 23.329 22.388 23.777 13.219.47 24.083-10.106 24.083-23.22v-140.702h-.108z" fill="#ffac62"/></g></g><g><path d="m317.841 336.21-91.929 52.733-91.632-53.246.296-105.98 91.929-52.733 91.633 53.247z" fill="#ffe35c"/></g><g><path d="m226.505 176.985-3.859 2.213 58.603 34.054-.237 84.664-73.44 42.127-73.185-42.527-.107 38.181 91.632 53.246 91.929-52.733.297-105.979z" fill="#ffac62"/></g><g><ellipse cx="164.101" cy="409.953" fill="#fff2a5" rx="78.866" ry="91.184" transform="matrix(1 -.002 .002 1 -.766 .308)"/></g><g><path d="m93.241 369.868c-5.144 12.143-8.032 25.794-8.005 40.232.026 13.778 2.708 26.828 7.462 38.528 37.547-15.834 91.67-24.576 142.74.275 4.847-11.856 7.555-25.109 7.529-39.098-.027-14.438-2.966-28.079-8.156-40.202z" fill="#ad84e6"/></g><g><g><path d="m85.872 398.282c-.019.173-.032.348-.05.521.017-.163.037-.326.055-.49-.002-.01-.004-.021-.005-.031z" fill="#ffb7a9"/></g><g><path d="m242.811 415.66c-.029.542-.059 1.083-.096 1.623.037-.54.068-1.081.096-1.623z" fill="#ffb7a9"/></g><g><path d="m242.14 396.803c.086.683.165 1.368.238 2.056-.072-.687-.152-1.372-.238-2.056z" fill="#ffb7a9"/></g><g><path d="m85.381 404.384c.017-.329.04-.656.06-.984-.019.328-.043.655-.06.984z" fill="#ffb7a9"/></g><g><path d="m242.832 404.708c.03.598.052 1.197.072 1.798-.02-.601-.042-1.201-.072-1.798z" fill="#ffb7a9"/></g><g><path d="m242.918 413.046c-.017.584-.035 1.168-.061 1.749.026-.581.044-1.165.061-1.749z" fill="#ffb7a9"/></g><g><path d="m242.447 399.536c.059.599.113 1.2.163 1.803-.05-.602-.104-1.203-.163-1.803z" fill="#ffb7a9"/></g><g><path d="m242.672 402.139c.042.573.079 1.149.112 1.725-.033-.576-.069-1.151-.112-1.725z" fill="#ffb7a9"/></g><g><path d="m85.567 401.566c.028-.362.062-.723.094-1.084-.033.361-.066.722-.094 1.084z" fill="#ffb7a9"/></g><g><path d="m85.27 407.232c.007-.274.021-.546.029-.82-.008.274-.022.546-.029.82z" fill="#ffb7a9"/></g><g><path d="m85.722 420.04c-.056-.589-.106-1.18-.153-1.773.047.593.097 1.184.153 1.773z" fill="#ffb7a9"/></g><g><path d="m86.34 425.159c-.104-.717-.201-1.436-.291-2.158.09.721.187 1.441.291 2.158z" fill="#ffb7a9"/></g><g><path d="m85.996 422.573c-.077-.639-.147-1.281-.213-1.925.066.643.136 1.285.213 1.925z" fill="#ffb7a9"/></g><g><path d="m85.27 412.567c-.019-.747-.028-1.496-.031-2.247.002.751.012 1.501.031 2.247z" fill="#ffb7a9"/></g><g><path d="m85.512 417.538c-.04-.561-.073-1.124-.105-1.687.031.563.065 1.126.105 1.687z" fill="#ffb7a9"/></g><g><path d="m85.361 415.049c-.027-.564-.046-1.131-.065-1.698.019.567.038 1.134.065 1.698z" fill="#ffb7a9"/></g><g><path d="m235.438 448.904c-15.43-7.508-31.136-11.934-46.582-14.04-10.891 13.604-26.451 22.141-43.753 22.174-13.737.026-26.393-5.32-36.503-14.308-5.563 1.799-10.884 3.783-15.902 5.899-2.962-7.292-5.12-15.107-6.332-23.296 6.352 43.094 38.84 75.876 77.906 75.803 38.251-.072 70.08-31.619 77.202-73.411-1.267 7.423-3.314 14.521-6.036 21.179z" fill="#ffb7a9"/></g><g><path d="m241.847 425.367c-.109.736-.224 1.469-.347 2.199.123-.729.239-1.462.347-2.199z" fill="#ffb7a9"/></g><g><path d="m242.168 422.988c-.078.628-.161 1.254-.25 1.877.089-.624.173-1.25.25-1.877z" fill="#ffb7a9"/></g><g><path d="m242.093 396.417c-5.685-44-38.541-77.722-78.163-77.647-3.464.006-6.875.273-10.22.78 23.6 4.011 42.724 23.969 48.916 50.114l32.184-.06c3.555 8.303 6.052 17.318 7.283 26.813z" fill="#ffb7a9"/></g><g><path d="m242.941 412.307c.018-.831.028-1.665.026-2.501-.002-.853-.015-1.703-.037-2.551.022.848.035 1.697.037 2.551.001.836-.008 1.67-.026 2.501z" fill="#ffb7a9"/></g><g><path d="m242.436 420.582c-.057.573-.119 1.144-.186 1.714.067-.569.129-1.141.186-1.714z" fill="#ffb7a9"/></g><g><path d="m242.65 418.148c-.042.545-.087 1.089-.137 1.631.051-.542.096-1.086.137-1.631z" fill="#ffb7a9"/></g><g><path d="m86.049 423c-.018-.142-.035-.285-.053-.428.018.143.035.286.053.428z" fill="#ad84e6"/></g><g><path d="m86.366 425.333c-.009-.058-.017-.116-.025-.174.008.058.016.116.025.174z" fill="#ad84e6"/></g><g><path d="m85.297 413.351c-.009-.262-.021-.522-.027-.784.006.262.018.523.027.784z" fill="#ad84e6"/></g><g><path d="m85.783 420.647c-.021-.202-.042-.404-.061-.607.02.203.041.405.061.607z" fill="#ad84e6"/></g><g><path d="m85.3 406.413c.022-.678.047-1.355.082-2.029-.036.674-.06 1.351-.082 2.029z" fill="#ad84e6"/></g><g><path d="m241.5 427.567c-.009.053-.017.106-.026.159.009-.053.017-.106.026-.159z" fill="#ad84e6"/></g><g><path d="m85.27 407.232c-.024.953-.037 1.908-.035 2.868 0 .074.003.147.003.22-.001-.073-.003-.146-.003-.22-.002-.959.011-1.915.035-2.868z" fill="#ad84e6"/></g><g><path d="m85.569 418.267c-.019-.243-.04-.486-.057-.73.017.245.038.487.057.73z" fill="#ad84e6"/></g><g><path d="m242.857 414.795c-.013.289-.03.577-.046.865.016-.288.033-.576.046-.865z" fill="#ad84e6"/></g><g><path d="m85.407 415.851c-.015-.268-.033-.534-.045-.802.012.268.03.534.045.802z" fill="#ad84e6"/></g><g><path d="m242.904 406.505c.008.25.019.499.026.75-.007-.251-.018-.5-.026-.75z" fill="#ad84e6"/></g><g><path d="m242.784 403.864c.016.281.034.562.048.843-.014-.281-.031-.562-.048-.843z" fill="#ad84e6"/></g><g><path d="m242.514 419.779c-.025.268-.051.536-.078.803.027-.267.053-.535.078-.803z" fill="#ad84e6"/></g><g><path d="m242.609 401.339c.022.266.043.533.063.8-.019-.267-.041-.534-.063-.8z" fill="#ad84e6"/></g><g><path d="m242.941 412.307c-.005.247-.016.493-.023.739.007-.246.017-.492.023-.739z" fill="#ad84e6"/></g><g><path d="m85.442 403.4c.037-.613.077-1.224.125-1.834-.049.61-.088 1.221-.125 1.834z" fill="#ad84e6"/></g><g><path d="m242.715 417.283c-.02.289-.043.577-.065.866.023-.289.045-.577.065-.866z" fill="#ad84e6"/></g><g><path d="m242.093 396.417c.017.129.031.258.047.386-.016-.128-.03-.257-.047-.386z" fill="#ad84e6"/></g><g><path d="m85.66 400.483c.05-.561.103-1.121.161-1.68-.058.558-.111 1.118-.161 1.68z" fill="#ad84e6"/></g><g><path d="m242.378 398.86c.024.225.046.451.068.677-.022-.226-.044-.452-.068-.677z" fill="#ad84e6"/></g><g><path d="m242.25 422.296c-.027.23-.054.461-.082.691.029-.23.055-.46.082-.691z" fill="#ad84e6"/></g><g><path d="m241.918 424.865c-.024.168-.046.335-.071.503.025-.168.048-.336.071-.503z" fill="#ad84e6"/></g><g><path d="m188.856 434.864c15.446 2.106 31.152 6.531 46.582 14.04 10.241-24.733 9.986-54.824-.627-79.3l-32.184.06c5.642 22.05-.171 48.953-13.771 65.2z" fill="#a862e6"/></g></g><g><ellipse cx="161.514" cy="303.978" fill="#fff2a5" rx="48.374" ry="48.374" transform="matrix(.557 -.831 .831 .557 -180.927 268.993)"/></g><g><path d="m310.946 359.345c.057 30.732-24.809 55.692-55.542 55.75-30.732.057-94.232-24.737-94.289-55.47-.057-30.732 63.349-55.764 94.081-55.822s55.692 24.81 55.75 55.542z" fill="#98e8f2"/></g><g><path d="m255.196 303.803c-3.75.007-7.99.388-12.539 1.105 18.956 4.291 33.13 21.209 33.168 41.468.044 23.533-18.998 42.647-42.531 42.691-21.469.04-63.815-15.76-71.113-36.4-.698 2.28-1.07 4.602-1.066 6.958.057 30.732 63.557 55.527 94.29 55.47 30.732-.057 55.599-25.018 55.542-55.75-.058-30.732-25.019-55.599-55.751-55.542z" fill="#a6aff4"/></g><g><path d="m11.283 359.905c-.057-30.732 24.809-55.692 55.542-55.75 30.732-.058 94.232 24.737 94.29 55.47.057 30.732-63.349 55.764-94.082 55.822-30.732.057-55.692-24.81-55.75-55.542z" fill="#98e8f2"/></g><g><path d="m66.825 304.155c-2.259.004-4.481.159-6.669.424 24.859 2.831 65.362 20.478 65.402 41.915.044 23.445-48.326 42.54-71.77 42.584-21.34.04-39.027-15.676-42.063-36.18-.285 2.297-.446 4.631-.441 7.005.057 30.732 25.017 55.599 55.75 55.542 30.732-.057 94.139-25.09 94.081-55.822-.058-30.73-63.558-55.525-94.29-55.468z" fill="#a6aff4"/></g></g><g fill="#4e0325"><path d="m512 230.259c.01-3.575-1.887-6.882-4.977-8.678l-87.233-50.689.281-100.395c.01-3.575-1.887-6.882-4.977-8.678l-91.633-53.246c-3.091-1.796-6.903-1.807-10.004-.027l-91.929 52.733c-3.1 1.778-5.016 5.075-5.026 8.649l-.284 101.426-84.699 48.586c-3.408-3.28-8.77-3.773-12.751-.921-4.491 3.218-5.523 9.467-2.306 13.958l8.071 11.263-.041 14.596c-1.499 1.234-2.945 2.547-4.333 3.94-10.19 10.229-16.117 23.567-16.918 37.865-13.088-4.078-26.067-6.49-36.312-6.49-.04 0-.082 0-.122 0-17.536.033-34.009 6.892-46.385 19.316-12.377 12.423-19.175 28.921-19.142 46.457.068 36.16 29.502 65.527 65.647 65.527h.125c2.857-.005 5.943-.216 9.169-.582 2.93 22.502 12.411 43.228 27.114 58.921 16.527 17.641 38.116 27.351 60.806 27.351h.15c22.529-.042 43.989-9.674 60.429-27.124 14.76-15.667 24.315-36.444 27.263-58.997 1.134.052 2.242.08 3.318.08h.123c17.536-.032 34.008-6.892 46.385-19.315 12.376-12.422 19.175-28.922 19.142-46.457-.007-3.718-.339-7.383-.948-10.976l33.591 19.52v108.418c0 18.328 14.911 33.24 33.239 33.24s33.24-14.912 33.24-33.24v-81.723l25.451-14.599v29.656c0 18.328 14.912 33.239 33.24 33.239s33.239-14.911 33.239-33.239v-140.704c0-.492-.035-.977-.105-1.451zm-275.507-154.5 81.91-46.986 81.645 47.442-.264 94.429-81.91 46.986-81.645-47.443zm-10.02 112.777 81.645 47.442-.235 84.155c-1.893-2.521-3.976-4.926-6.25-7.191-12.393-12.347-28.842-19.142-46.33-19.142-.042 0-.085 0-.126 0-10.007.018-22.635 2.356-35.425 6.313-.922-14.177-6.881-27.375-17.036-37.49-3.451-3.439-7.257-6.392-11.333-8.828l14.918-20.984c3.201-4.503 2.146-10.748-2.357-13.949-4.502-3.201-10.747-2.144-13.949 2.357l-18.008 25.33c-3.421-.616-6.919-.946-10.468-.946-.037 0-.077 0-.114 0-3.588.007-7.123.35-10.578.986l-6.27-8.75.007-2.316zm-103.329 115.514c-.019-10.249 3.954-19.892 11.188-27.152 7.234-7.261 16.862-11.27 27.111-11.289h.075c10.22 0 19.835 3.971 27.078 11.187 7.261 7.234 11.27 16.863 11.289 27.111.002 1.248-.062 2.496-.179 3.735-2.614 1.169-5.179 2.393-7.666 3.67-13.597 6.98-24.036 14.915-30.972 23.369-6.968-8.428-17.437-16.323-31.059-23.253-2.152-1.095-4.369-2.142-6.618-3.156-.156-1.399-.245-2.809-.247-4.222zm-56.13 101.393c-.029 0-.058 0-.087 0-25.127 0-45.593-20.419-45.64-45.557-.023-12.192 4.703-23.662 13.308-32.299 8.604-8.637 20.057-13.406 32.249-13.429h.093c14.321 0 36.507 6.202 54.001 15.101 18.876 9.602 30.156 20.96 30.174 30.383.039 21.464-54.833 45.747-84.098 45.801zm97.238 85.69c-.037 0-.073 0-.109 0-25.128 0-47.556-16.337-59.593-40.653 36.72-15.321 76.657-14.979 118.823 1.015-11.987 23.888-33.997 39.591-59.121 39.638zm63.757-50.718c-45.27-17.266-88.307-17.611-128.042-1.031-1.945-5.82-3.33-11.968-4.078-18.354 11.571-3.084 23.626-7.612 34.3-13.092 13.597-6.98 24.036-14.915 30.973-23.369 6.968 8.429 17.436 16.324 31.059 23.253 12.439 6.327 26.743 11.368 39.968 14.337-.806 6.378-2.223 12.49-4.18 18.256zm59.625-48.752c-8.605 8.636-20.058 13.405-32.249 13.428-.032 0-.061 0-.093 0-14.321 0-36.507-6.202-54.001-15.101-18.876-9.602-30.156-20.96-30.174-30.383-.04-21.463 54.831-45.745 84.096-45.8h.088c12.158 0 23.595 4.724 32.21 13.308 8.637 8.605 13.406 20.058 13.429 32.249.025 12.191-4.701 23.662-13.306 32.299zm204.359 17.962c0 7.296-5.936 13.231-13.231 13.231-7.297 0-13.232-5.936-13.232-13.231v-46.927c0-3.569-1.901-6.868-4.99-8.657-3.087-1.787-6.894-1.797-9.991-.02l-45.458 26.076c-3.108 1.783-5.026 5.093-5.026 8.677v87.517c0 7.297-5.936 13.232-13.232 13.232s-13.231-5.936-13.231-13.232v-114.179c0-3.564-1.896-6.859-4.977-8.65l-40.465-23.513.264-94.428 81.91-46.986 81.645 47.442-.092 32.914c-.001.504.035 1.005.108 1.498v139.236z"/><path d="m404.785 307.524c-3.315 0-6.002 2.688-6.002 6.002v12.926c0 3.315 2.688 6.002 6.002 6.002 3.315 0 6.002-2.688 6.002-6.002v-12.926c.001-3.314-2.687-6.002-6.002-6.002z"/><path d="m426.162 258.045c-3.315 0-6.002 2.688-6.002 6.002v12.927c0 3.315 2.688 6.002 6.002 6.002s6.002-2.688 6.002-6.002v-12.927c0-3.314-2.687-6.002-6.002-6.002z"/><path d="m449.978 289.383c-3.315 0-6.002 2.688-6.002 6.002v12.927c0 3.315 2.688 6.002 6.002 6.002 3.315 0 6.002-2.687 6.002-6.002v-12.927c0-3.315-2.688-6.002-6.002-6.002z"/></g><g><g><path d="m404.789 235.126c-.66 0-1.311-.07-1.962-.2-.64-.13-1.27-.32-1.87-.57-.601-.25-1.181-.56-1.731-.92-.54-.361-1.05-.781-1.51-1.241-.47-.46-.88-.97-1.25-1.52-.36-.54-.67-1.121-.92-1.731-.25-.6-.441-1.23-.57-1.871-.13-.64-.2-1.3-.2-1.95 0-.651.07-1.311.2-1.961.13-.631.32-1.261.57-1.871.25-.601.56-1.181.92-1.721.37-.55.781-1.06 1.25-1.52.46-.46.97-.88 1.51-1.251.55-.36 1.13-.67 1.731-.91.6-.25 1.23-.45 1.87-.57 1.29-.26 2.621-.27 3.911 0 .641.12 1.271.32 1.871.57.601.25 1.181.55 1.731.91.54.37 1.06.79 1.52 1.251.46.46.88.97 1.241 1.52.36.54.67 1.121.92 1.721.25.61.44 1.24.57 1.871.13.65.2 1.31.2 1.961 0 .65-.07 1.31-.2 1.95-.13.641-.32 1.271-.57 1.871-.25.611-.56 1.191-.92 1.731-.361.55-.781 1.06-1.241 1.52-1.859 1.86-4.44 2.931-7.071 2.931z" fill="#fff"/></g><g><path d="m364.116 258.622c-3.457 0-6.819-1.794-8.672-5.002-2.764-4.785-1.125-10.903 3.659-13.666l11.961-6.909c4.785-2.766 10.903-1.124 13.666 3.659 2.764 4.785 1.125 10.903-3.659 13.666l-11.961 6.909c-1.575.91-3.297 1.343-4.994 1.343z" fill="#fff"/></g><g><path d="m314.466 78.438c-.651 0-1.311-.069-1.961-.199-.631-.13-1.261-.32-1.871-.571-.601-.25-1.181-.56-1.721-.92-.55-.37-1.06-.78-1.52-1.25-1.871-1.861-2.931-4.431-2.931-7.073 0-.65.06-1.3.189-1.951.13-.64.321-1.27.571-1.87.25-.601.56-1.181.92-1.721.37-.55.781-1.06 1.25-1.53.46-.461.97-.87 1.52-1.241.54-.361 1.121-.67 1.721-.92.61-.25 1.24-.441 1.871-.571 1.289-.26 2.62-.26 3.911 0 .641.13 1.271.32 1.871.571.601.25 1.191.56 1.731.92.55.37 1.06.78 1.52 1.241.46.47.88.98 1.241 1.53.361.54.67 1.12.92 1.721.25.6.441 1.23.571 1.87.13.651.2 1.301.2 1.951 0 2.642-1.071 5.212-2.932 7.073-.46.47-.97.88-1.52 1.25-.54.361-1.13.67-1.731.92-.6.25-1.23.441-1.871.571-.638.13-1.299.199-1.949.199z" fill="#fff"/></g><g><path d="m273.794 101.931c-3.457 0-6.819-1.794-8.672-5.003-2.764-4.784-1.125-10.902 3.659-13.665l11.962-6.909c4.786-2.767 10.902-1.124 13.665 3.66 2.764 4.784 1.125 10.902-3.659 13.665l-11.962 6.909c-1.576.91-3.297 1.343-4.993 1.343z" fill="#fff"/></g></g></g><g><g><path d="m32.849 3.308-8.217 23.106c-.352.989-1.048 1.773-1.927 2.169l-20.53 9.25c-2.9 1.307-2.9 5.928 0 7.235l20.529 9.249c.879.396 1.576 1.18 1.927 2.169l8.217 23.106c1.161 3.264 5.266 3.264 6.427 0l8.217-23.106c.352-.989 1.048-1.773 1.927-2.169l20.529-9.249c2.9-1.307 2.9-5.928 0-7.235l-20.529-9.249c-.879-.396-1.575-1.18-1.927-2.169l-8.216-23.107c-1.161-3.264-5.266-3.264-6.427 0z" fill="#fff2a5"/></g><g><path d="m151.326 80.114-6.096 17.14c-.261.734-.778 1.315-1.43 1.609l-15.228 6.861c-2.151.969-2.151 4.397 0 5.366l15.228 6.861c.652.294 1.169.875 1.43 1.609l6.096 17.14c.861 2.421 3.906 2.421 4.768 0l6.096-17.14c.261-.734.778-1.315 1.43-1.609l15.228-6.861c2.151-.969 2.151-4.397 0-5.366l-15.228-6.861c-.652-.294-1.169-.875-1.43-1.609l-6.096-17.14c-.861-2.421-3.906-2.421-4.768 0z" fill="#fff2a5"/></g><g><path d="m11.283 227.604c0 9.91 8.033 17.943 17.943 17.943s17.943-8.033 17.943-17.943-8.033-17.943-17.943-17.943c-9.909 0-17.943 8.033-17.943 17.943z" fill="#ffe35c"/></g><g><circle cx="82.19" cy="123.202" fill="#ffe35c" r="7.503"/></g></g></g></svg>