<svg id="Capa_1" enable-background="new 0 0 512 512" height="512" viewBox="0 0 512 512" width="512" xmlns="http://www.w3.org/2000/svg"><g><g><g><g><path d="m204.742 159.411-36.983-48.256c-11.94-15.58-13.68-35.561-4.578-52.567l22.203-41.482c5.204-7.952 18.99-4.608 18.855 4.573l-.617 52.137c-.095 8.034 1.872 15.982 5.753 23.251l31.332 58.678" fill="#c37777"/></g><g><path d="m308.056 159.411 36.983-48.256c11.94-15.58 13.68-35.561 4.578-52.567l-22.203-41.482c-5.204-7.952-18.99-4.608-18.855 4.573l.617 52.137c.095 8.034-1.872 15.982-5.753 23.251l-31.332 58.678" fill="#c37777"/></g><g><path d="m312.465 280.821h-112.132c-25.078 0-45.408-20.33-45.408-45.408v-30.594c0-25.078 20.33-45.408 45.408-45.408h112.133c25.078 0 45.408 20.33 45.408 45.408v30.594c-.001 25.078-20.331 45.408-45.409 45.408z" fill="#c37777"/></g><g><path d="m312.466 159.411h-43.466c18.159 0 32.88 14.721 32.88 32.879v22.153c0 18.159-14.721 32.879-32.88 32.879h-81.195c-18.159 0-32.88-14.721-32.88-32.879v20.969c0 25.078 20.33 45.408 45.408 45.408h112.133c25.078 0 45.408-20.33 45.408-45.408v-30.594c-.001-25.077-20.331-45.407-45.408-45.407z" fill="#ba5677"/></g><g><path d="m264.488 471.653h-16.178c-51.575 0-93.385-41.81-93.385-93.385v-65.344c0-17.73 14.373-32.104 32.104-32.104h138.74c17.73 0 32.104 14.373 32.104 32.104v65.344c0 51.575-41.81 93.385-93.385 93.385z" fill="#c37777"/></g><g><path d="m325.769 280.821h-48.932c12.652 0 22.909 10.256 22.909 22.909v46.628c0 36.803-29.835 66.638-66.638 66.638h-11.545c-36.803 0-66.639-29.835-66.639-66.638v27.91c0 51.575 41.81 93.385 93.385 93.385h16.178c51.575 0 93.385-41.81 93.385-93.385v-65.344c.001-17.73-14.373-32.103-32.103-32.103z" fill="#ba5677"/></g></g><g fill="#4e0325"><path d="m432.223 231.722v-45.577l15.978-14.527c4.116-3.741 4.419-10.11.678-14.225-3.742-4.116-10.111-4.417-14.225-.678l-19.275 17.523c-2.1 1.909-3.296 4.614-3.296 7.451v50.032c0 14.11-8.878 26.912-22.093 31.855l-37.953 14.201c-.624.233-1.207.525-1.753.861-.56-.401-1.128-.788-1.708-1.162 11.844-10.182 19.368-25.256 19.368-42.064v-30.595c0-25.57-17.393-47.143-40.967-53.539l26.055-33.999c14.316-18.682 16.41-42.992 5.463-63.445l-22.203-41.482c-.14-.261-.29-.515-.452-.763-4.974-7.601-14.41-10.846-23.472-8.069-8.556 2.619-14.003 9.804-13.878 18.276l.618 52.135c.074 6.298-1.506 12.656-4.567 18.39l-30.447 57.019h-15.388l-30.447-57.02c-3.061-5.732-4.641-12.091-4.567-18.388l.618-52.108c.125-8.501-5.322-15.685-13.878-18.304-9.066-2.777-18.497.467-23.472 8.069-.162.248-.313.502-.452.763l-22.203 41.482c-10.947 20.453-8.854 44.763 5.463 63.445l26.056 33.999c-23.574 6.396-40.967 27.969-40.967 53.539v30.595c0 16.807 7.523 31.882 19.368 42.064-.579.374-1.148.761-1.708 1.162-.546-.336-1.13-.628-1.753-.861l-37.954-14.201c-13.214-4.944-22.092-17.746-22.092-31.855v-50.031c0-2.837-1.197-5.542-3.296-7.451l-19.275-17.523c-4.115-3.742-10.483-3.439-14.225.678-3.741 4.115-3.438 10.484.678 14.225l15.978 14.527v45.577c0 22.464 14.135 42.847 35.175 50.719l33.18 12.415c-2.609 5.48-4.075 11.605-4.075 18.068v13.378l-38.821 9.582c-9.878 2.438-17.352 10.861-18.597 20.959l-2.483 20.138-10.294 4.903c-5.02 2.392-7.152 8.401-4.761 13.422 1.726 3.623 5.336 5.741 9.098 5.741 1.451 0 2.926-.315 4.324-.98l15.281-7.279c3.107-1.48 5.243-4.444 5.663-7.859l3.16-25.622c.23-1.865 1.61-3.42 3.434-3.87l33.995-8.391v31.22c0 7.984.91 15.759 2.63 23.228l-17.444 9.696c-11.186 6.216-15.786 20.206-10.472 31.848l19.453 42.62-11.542 7.989c-4.574 3.165-5.716 9.438-2.55 14.011 1.955 2.825 5.095 4.341 8.289 4.341 1.977 0 3.974-.581 5.721-1.791l18.472-12.784c4.01-2.775 5.456-8.025 3.431-12.462l-22.953-50.287c-.98-2.15-.132-4.732 1.934-5.881l14.224-7.906c16.271 35.843 52.403 60.833 94.261 60.833h16.179c41.858 0 77.99-24.99 94.261-60.833l14.224 7.907c2.065 1.148 2.914 3.73 1.932 5.88l-22.952 50.287c-2.025 4.437-.579 9.686 3.431 12.462l18.472 12.784c1.748 1.211 3.745 1.791 5.721 1.791 3.193 0 6.334-1.515 8.289-4.341 3.166-4.573 2.024-10.846-2.55-14.011l-11.542-7.989 19.452-42.62c5.314-11.642.715-25.632-10.47-31.847l-17.446-9.697c1.72-7.469 2.631-15.244 2.631-23.228v-31.22l33.997 8.391c1.823.449 3.203 2.005 3.433 3.87l3.16 25.622c.421 3.415 2.557 6.379 5.664 7.859l15.281 7.279c1.398.666 2.873.98 4.324.98 3.763 0 7.373-2.118 9.099-5.741 2.392-5.021.26-11.031-4.761-13.422l-10.294-4.903-2.483-20.138c-1.245-10.099-8.719-18.522-18.596-20.959l-38.822-9.582v-13.378c0-6.463-1.465-12.588-4.075-18.068l33.179-12.415c21.038-7.873 35.174-28.256 35.174-50.72zm-119.917-129.912c4.654-8.714 7.053-18.436 6.939-28.114l-.604-50.987c.125-.011.248-.011.352.004l21.745 40.627c7.276 13.595 5.896 29.179-3.693 41.69l-33.959 44.312h-16.162zm-140.246-38.47 21.745-40.627c.104-.015.228-.015.352-.004l-.604 50.988c-.114 9.677 2.285 19.399 6.939 28.112l25.381 47.533h-16.162l-33.959-44.312c-9.587-12.512-10.968-28.096-3.692-41.69zm-7.065 141.479c0-19.485 15.853-35.337 35.338-35.337h4.398c.006 0 .012.001.017.001.008 0 .017-.001.025-.001h103.252c.008 0 .016.001.025.001.006 0 .012-.001.018-.001h4.398c19.485 0 35.338 15.852 35.338 35.337v30.595c0 19.484-15.852 35.337-35.338 35.337h-112.133c-19.485 0-35.338-15.853-35.338-35.337zm0 173.449v-65.344c0-12.15 9.884-22.034 22.034-22.034h13.303 45.996v170.642c-45.025-1.059-81.333-37.988-81.333-83.264zm101.474 83.265v-170.642h45.996 13.304c12.15 0 22.034 9.884 22.034 22.034v65.344c0 45.275-36.308 82.204-81.334 83.264z"/><path d="m314.996 338.716c-3.337 0-6.042 2.705-6.042 6.042v12.576c0 3.337 2.705 6.042 6.042 6.042s6.042-2.705 6.042-6.042v-12.576c.001-3.337-2.705-6.042-6.042-6.042z"/><path d="m297.483 390.951c-3.337 0-6.042 2.705-6.042 6.042v12.576c0 3.337 2.705 6.042 6.042 6.042s6.042-2.705 6.042-6.042v-12.576c0-3.336-2.705-6.042-6.042-6.042z"/><path d="m217.166 363.907c-3.337 0-6.042 2.705-6.042 6.042v12.576c0 3.337 2.705 6.042 6.042 6.042s6.042-2.705 6.042-6.042v-12.576c0-3.337-2.705-6.042-6.042-6.042z"/></g><g><g><path d="m256.399 209.344h-29.921c-5.561 0-10.07-4.509-10.07-10.07s4.509-10.07 10.07-10.07h29.921c5.561 0 10.07 4.509 10.07 10.07s-4.509 10.07-10.07 10.07z" fill="#fff"/></g><g><path d="m194.488 209.344h-2.592c-5.561 0-10.07-4.509-10.07-10.07s4.509-10.07 10.07-10.07h2.592c5.561 0 10.07 4.509 10.07 10.07s-4.509 10.07-10.07 10.07z" fill="#fff"/></g></g></g><g><g><path d="m33.266 2.464-8.272 23.26c-.354.996-1.055 1.785-1.94 2.184l-20.665 9.31c-2.92 1.316-2.92 5.967 0 7.283l20.665 9.31c.885.399 1.586 1.188 1.94 2.184l8.272 23.259c1.169 3.286 5.301 3.286 6.47 0l8.272-23.259c.354-.996 1.055-1.785 1.94-2.184l20.665-9.31c2.919-1.315 2.919-5.967 0-7.283l-20.665-9.31c-.885-.399-1.586-1.188-1.94-2.184l-8.272-23.26c-1.169-3.286-5.301-3.286-6.47 0z" fill="#ffc8b7"/></g><g><path d="m482.473 267.366-6.136 17.253c-.263.739-.783 1.324-1.439 1.62l-15.329 6.906c-2.166.976-2.166 4.426 0 5.402l15.329 6.906c.656.296 1.176.881 1.439 1.62l6.136 17.254c.867 2.437 3.932 2.437 4.799 0l6.136-17.254c.263-.739.783-1.324 1.439-1.62l15.329-6.906c2.165-.976 2.165-4.426 0-5.402l-15.329-6.906c-.656-.296-1.176-.881-1.439-1.62l-6.136-17.253c-.866-2.437-3.932-2.437-4.799 0z" fill="#ffc8b7"/></g><g><path d="m439.882 77.902c0 9.976 8.087 18.062 18.062 18.062s18.062-8.087 18.062-18.062c0-9.976-8.087-18.062-18.062-18.063-9.975 0-18.062 8.087-18.062 18.063z" fill="#ffa785"/></g><g><path d="m88.086 103.517c0 4.171 3.381 7.553 7.553 7.553 4.171 0 7.553-3.381 7.553-7.553 0-4.171-3.381-7.553-7.553-7.553s-7.553 3.382-7.553 7.553z" fill="#ffa785"/></g></g></g></svg>