<svg id="Capa_1" enable-background="new 0 0 512 512" height="512" viewBox="0 0 512 512" width="512" xmlns="http://www.w3.org/2000/svg"><g><g><g><g><path d="m225.989 318.976c-27.17 17.164-72.09 22.268-118.986 22.268-64.772 0-69.716-4.208-84.096-75.548-12.292-60.978-31.922-127.351 35.978-127.351 45.134 0 138.792 64.971 167.104 118.022" fill="#00ebc4"/></g><g><path d="m58.749 252.472c8.817-26.003 65.558-57.973 157.675-11.239-35.841-49.501-116.626-102.888-157.539-102.888-67.9 0-48.27 66.373-35.979 127.351 10.18 50.503 15.637 67.359 40.933 72.9-10.687-37.212-11.666-66.731-5.09-86.124z" fill="#ad84e6"/></g><g><path d="m215.952 240.594c.156.213.317.426.471.639-14.565-7.389-28.243-12.806-40.99-16.595 1.267 1.999 2.434 3.984 3.482 5.948l8.528 55.682c-8.469 7.094-64.87 10.654-101.522 10.654-12.974 0-22.871-.219-30.614-1.479 1.197 12.867 3.981 27.309 8.531 43.152-1.563-.342-3.049-.729-4.466-1.163 10.881 3.332 25.878 3.811 47.629 3.811 46.897 0 91.817-5.105 118.987-22.268v-62.609c-2.757-5.167-6.143-10.449-10.036-15.772z" fill="#45b1c6"/></g><g><path d="m10.642 181.867c.88 16.907 5.681 36.8 9.554 56.01 8.358 41.467 12.644 53.911 35.112 57.566-1.614-17.354-.335-31.835 3.441-42.971 7.422-21.892 48.816-48.007 116.685-27.834-24.494-38.627-88.22-82.666-122.99-86.073-41.425 2.868-45.443 34.104-40.045 72.533-1.462-10.412-2.233-20.296-1.757-29.231z" fill="#ad84e6"/></g><g><path d="m55.308 295.443c-10.664-1.735-17.229-5.458-22.08-13.316h-6.889c5.044 22.296 10.566 52.323 37.501 56.468-4.55-15.842-7.335-30.285-8.532-43.152z" fill="#a862e6"/></g><g><path d="m231.501 369.764c-15.18 35.356-59.016 101.595-74.289 115.541-24.437 22.314-64.056 22.314-88.492 0s-38.564-45.995-25.902-86.589c6.228-19.967 31.067-43.027 68.595-57.471 0 0 96.45-7.896 114.576-16.981z" fill="#00ebc4"/></g><g><path d="m101.13 345.555c-31.768 14.459-52.672 35.077-58.312 53.16-12.662 40.595 1.465 64.275 25.902 86.589s64.056 22.314 88.492 0c2.736-2.499 6.393-6.682 10.633-12.059-132.755-1.667-76.436-110.512-66.715-127.69z" fill="#ad84e6"/></g><g><path d="m231.501 369.764-5.512-45.5c-5.55 2.781-18.445 5.451-33.662 7.817l3.835 31.652c-11.451 26.67-44.518 76.637-56.039 87.157-7.571 6.913-17.075 10.981-26.923 12.216 13.015 6.075 30.773 9.841 54.645 10.141 19.43-24.638 51.195-74.461 63.656-103.483z" fill="#45b1c6"/></g><g><path d="m73.369 450.889c10.862 9.919 25.7 13.987 39.83 12.216-59.361-27.709-20.042-103.46-12.069-117.549-15.263 6.947-28.009 15.317-37.769 24.143-4.69 5.329-7.928 10.736-9.531 15.873-9.551 30.621 1.106 48.484 19.539 65.317z" fill="#ad84e6"/></g><g><path d="m160.589 481.885c2.523-2.76 4.852-5.598 7.256-8.639-23.873-.3-41.63-4.066-54.645-10.141-46.414 5.538-83.776-53.409-49.838-93.406-73.579 64.921 28.697 179.574 97.227 112.186z" fill="#a862e6"/></g><g><circle cx="60.553" cy="187.92" fill="#fff" r="21.067"/></g><g><path d="m286.011 318.976c27.17 17.164 72.09 22.268 118.986 22.268 64.772 0 69.716-4.208 84.096-75.548 12.291-60.978 31.921-127.351-35.979-127.351-45.134 0-138.792 64.971-167.104 118.022" fill="#00ebc4"/></g><g><path d="m453.251 252.472c-8.816-26.003-65.558-57.973-157.675-11.239 35.841-49.501 116.625-102.888 157.539-102.888 67.9 0 48.27 66.373 35.979 127.351-10.18 50.503-15.637 67.359-40.933 72.9 10.687-37.212 11.666-66.731 5.09-86.124z" fill="#ad84e6"/></g><g><path d="m453.251 252.472c-1.388-4.092-3.965-8.333-7.678-12.391-11.09 54.72-15.367 57.983-65.898 57.983-36.916 0-72.277-4.018-93.665-17.529v38.441c27.17 17.164 72.09 22.268 118.987 22.268 21.751 0 36.749-.479 47.629-3.811-1.418.434-2.904.82-4.466 1.163 10.687-37.212 11.667-66.731 5.091-86.124z" fill="#45b1c6"/></g><g><path d="m280.499 369.764c15.18 35.356 59.017 101.595 74.289 115.541 24.437 22.314 64.056 22.314 88.492 0s38.564-45.995 25.902-86.589c-6.228-19.967-31.067-43.027-68.595-57.471 0 0-96.45-7.896-114.576-16.981z" fill="#00ebc4"/></g><g><path d="m410.87 345.555c31.768 14.459 52.672 35.077 58.312 53.16 12.662 40.595-1.465 64.275-25.901 86.589-24.437 22.314-64.056 22.314-88.492 0-2.737-2.499-6.393-6.682-10.633-12.059 132.754-1.667 76.435-110.512 66.714-127.69z" fill="#a862e6"/></g><g><path d="m435.265 140.95c12.374 4.251 17.976 13.769 19.72 26.223 9.946 1.686 17.529 10.321 17.529 20.747 0 11.473-9.176 20.784-20.586 21.043-1.927 10.283-4.304 20.863-6.355 31.119 18.797 26.049 13.223 53.571 2.587 98.514 8.242-1.713 16.081-5.445 21.332-12.124 7.294-9.26 10.384-21.048 13.362-32.315 15.1-65.341 47.637-175.656-47.589-153.207z" fill="#a862e6"/></g><g><circle cx="451.447" cy="187.92" fill="#fff" r="21.067"/></g><g><path d="m472.514 187.92c0-10.427-7.583-19.061-17.529-20.747 1.669 11.918-.195 26.525-3.057 41.79 11.411-.259 20.586-9.571 20.586-21.043z" fill="#ffc0fe"/></g><g><path d="m285.428 243.952-9.778 192.585c-.529 10.467-9.17 18.683-19.651 18.683-10.48 0-19.122-8.215-19.65-18.683l-9.778-192.585" fill="#ad84e6"/></g><g><ellipse cx="256" cy="229.261" fill="#ad84e6" rx="32.963" ry="32.962" transform="matrix(.924 -.383 .383 .924 -68.248 115.418)"/></g></g><g fill="#4e0325"><path d="m87.654 187.92c0-14.943-12.158-27.101-27.101-27.101s-27.101 12.158-27.101 27.101 12.158 27.101 27.101 27.101 27.101-12.158 27.101-27.101zm-42.134 0c0-8.29 6.744-15.033 15.033-15.033 8.29 0 15.033 6.744 15.033 15.033 0 8.29-6.744 15.033-15.033 15.033-8.29 0-15.033-6.743-15.033-15.033z"/><path d="m499.732 146.379c-9.751-12.004-25.434-18.091-46.617-18.091-23.354 0-59.106 15.306-95.638 40.941-23.117 16.224-43.658 34.567-59.139 52.467-1.806-10.139-7.168-19.059-14.756-25.416v-33.173c0-3.616 2.942-6.558 6.558-6.558 3.617 0 6.559 2.942 6.559 6.558 0 5.554 4.503 10.056 10.056 10.056s10.056-4.503 10.056-10.056c0-14.706-11.965-26.671-26.672-26.671-14.706 0-26.671 11.965-26.671 26.671v23.796c-2.428-.427-4.922-.663-7.471-.663s-5.042.236-7.471.663v-23.796c0-14.706-11.965-26.671-26.671-26.671-14.707 0-26.672 11.965-26.672 26.671 0 5.554 4.503 10.056 10.056 10.056 5.554 0 10.056-4.503 10.056-10.056 0-3.616 2.942-6.558 6.559-6.558 3.616 0 6.558 2.942 6.558 6.558v33.173c-7.588 6.357-12.949 15.277-14.756 25.416-15.481-17.9-36.022-36.244-59.139-52.467-36.532-25.636-72.284-40.941-95.638-40.941-21.182 0-36.866 6.087-46.617 18.091-19.551 24.072-11.103 64.397-2.16 107.089.994 4.748 1.99 9.498 2.94 14.214 7.77 38.551 12.898 58.026 26.3 70.03 8.314 7.448 18.947 10.831 32.927 12.358-19.931 13.336-34.006 29.455-39.058 45.65-15.142 48.546 6.022 76.281 28.721 97.01 14.074 12.847 32.553 19.27 51.033 19.27 18.481 0 36.96-6.423 51.028-19.269 12.266-11.201 40.706-52.331 60.695-87.557l1.618 31.87c.799 15.831 13.842 28.232 29.694 28.232s28.894-12.401 29.694-28.229l1.618-31.872c19.989 35.226 48.429 76.355 60.695 87.557 14.068 12.845 32.548 19.268 51.027 19.268 18.481 0 36.96-6.423 51.028-19.269 22.699-20.729 43.862-48.464 28.72-97.01-5.051-16.194-19.126-32.314-39.057-45.65 13.98-1.527 24.613-4.91 32.927-12.358 13.402-12.004 18.53-31.479 26.3-70.03.951-4.717 1.947-9.466 2.94-14.214 8.944-42.692 17.391-83.017-2.16-107.09zm-194.443 98.742c31.862-16.957 57.065-23.423 76.565-24.437l-89.324 81.739 2.074-40.856c.094-.155.193-.304.279-.465 2.726-5.108 6.178-10.444 10.262-15.913.048-.024.097-.043.144-.068zm99.708 86.067c-48.77 0-84.797-5.764-107.289-17.145l18.998-17.385 132.682 8.296c-1.278 7.534-3.118 15.602-5.525 24.265-8.857 1.6-21.186 1.969-38.866 1.969zm1.415 23.393c1.139 1.754 6.04 9.502 10.9 20.145l-54.398-3.725c-.842-3.128-1.956-6.573-3.367-10.392-1.58-4.276-3.282-8.334-4.757-11.676 13.255 1.396 27.835 2.169 43.786 2.331 2.696 1.068 5.313 2.173 7.836 3.317zm-65.735-7.447c7.734 15.741 13.226 32.916 11.981 37.404-1.643.632-8.492 2.221-32.532-.801-9.325-1.172-18.224-2.671-23.559-3.624-2.638-5.123-4.952-9.949-6.827-14.316-.117-.273-.25-.535-.388-.792l1.617-31.858c13.282 6.334 29.787 10.98 49.708 13.987zm-19.977 48.831c4.41.528 8.322.908 11.827 1.169l25.234 69.79c-1.83.094-3.694.167-5.593.217-13.134-16.704-33.388-47.047-48.315-73.553 4.998.8 10.847 1.659 16.847 2.377zm49.457 69.924c-.057-.258-.124-.515-.216-.769l-24.438-67.59c4.108-.121 7.197-.536 9.565-1.151l55.065 56.52c-9.555 6.614-22.904 10.957-39.976 12.99zm48.901-21.121-54.975-56.427c.454-1.497.687-3.199.711-5.114l57.561 3.941c5.778 16.409 9.059 35.978.857 51.394-1.168 2.196-2.56 4.261-4.154 6.206zm-64.268-182.959c.788.376 1.665.592 2.591.592.083 0 .166-.002.249-.005l91.2-3.705c2.668 9.931 3.398 21.222 2.163 34.272l-121.918-7.622zm13.009-11.904 30.032-27.481c.394-.361.707-.771.983-1.201 7.359.902 13.578 2.614 18.732 4.657 14.439 5.724 22.238 14.413 26.304 20.936zm-88.893-20.644c0 3.356-.731 6.542-2.033 9.417-.311.502-.574 1.037-.794 1.595-3.9 7.083-11.437 11.895-20.078 11.895-8.639 0-16.175-4.81-20.076-11.891-.222-.563-.487-1.103-.801-1.61-1.299-2.872-2.028-6.055-2.028-9.406 0-12.63 10.275-22.906 22.906-22.906 12.628 0 22.904 10.276 22.904 22.906zm-119.073 237.88c-1.9-.05-3.764-.123-5.593-.217l25.234-69.791c3.506-.26 7.417-.641 11.827-1.168 6-.718 11.849-1.577 16.847-2.377-14.927 26.506-35.181 56.849-48.315 73.553zm-91.696-137.922c-2.407-8.663-4.247-16.731-5.525-24.265l132.682-8.296 18.998 17.385c-22.493 11.38-58.519 17.145-107.289 17.145-17.68 0-30.009-.369-38.866-1.969zm138.718-84.03c4.084 5.469 7.536 10.805 10.262 15.913.086.162.186.311.279.465l2.075 40.856-89.325-81.739c19.5 1.014 44.704 7.48 76.565 24.437.047.025.096.044.144.068zm8.578 134.924c-5.32.951-14.187 2.444-23.5 3.617-24.088 3.031-30.947 1.442-32.591.808-1.245-4.488 4.247-21.663 11.981-37.404 19.922-3.007 36.426-7.653 49.708-13.988l1.618 31.858c-.138.257-.271.519-.388.792-1.876 4.368-4.19 9.193-6.828 14.317zm-152.262-121.422 91.2 3.705c.083.003.166.005.248.005.926 0 1.803-.216 2.591-.592l25.716 23.532-121.918 7.622c-1.235-13.05-.505-24.342 2.163-34.272zm50.016-37.468c.276.429.589.84.983 1.201l30.032 27.481-76.05-3.09c4.065-6.523 11.865-15.212 26.304-20.936 5.153-2.042 11.372-3.754 18.731-4.656zm.237 130.042c15.951-.162 30.531-.936 43.786-2.331-1.476 3.342-3.177 7.4-4.757 11.676-1.411 3.819-2.525 7.264-3.368 10.392l-54.398 3.725c4.86-10.643 9.761-18.392 10.9-20.145 2.525-1.145 5.141-2.25 7.837-3.317zm-23.779 35.903 57.561-3.941c.024 1.915.257 3.617.71 5.114l-54.975 56.427c-1.594-1.945-2.985-4.01-4.154-6.206-8.201-15.416-4.919-34.985.858-51.394zm67.287 9.212c2.368.616 5.457 1.031 9.566 1.151l-24.438 67.59c-.092.255-.16.512-.216.769-17.072-2.033-30.422-6.376-39.976-12.99zm-124.168-132.67c-.96-4.767-1.966-9.566-2.972-14.365-7.584-36.207-15.427-73.646-1.913-90.285 5.826-7.172 15.967-10.658 31.005-10.658 19.086 0 51.305 14.29 84.085 37.292 16.502 11.581 31.526 24.195 44.051 36.789-46.59-19.152-78.011-15.353-97.013-7.821-17.889 7.091-31.677 20.441-36.918 35.729-.011.029-.022.058-.033.087-.007.019-.015.038-.022.057-6.591 19.441-6.227 43.055 1.25 73.428-.529-.39-1.035-.798-1.517-1.23-8.463-7.581-13.011-24.335-20.003-59.023zm42.736 214.168c-22.507-20.553-34.218-40.463-23.083-76.168 3.302-10.584 14.518-24.27 33.299-36.369-9.811 20.038-21.321 53.029-7.596 78.863 10.781 20.293 34.75 31.866 71.349 34.508-20.725 18.013-53.623 17.746-73.969-.834zm180.5-32.714c-5.128 0-9.348-4.012-9.607-9.136l-8.518-167.765c5.512 2.572 11.652 4.018 18.125 4.018s12.613-1.446 18.125-4.018l-8.518 167.768c-.259 5.121-4.479 9.133-9.607 9.133zm203.582-43.454c11.137 35.705-.574 55.616-23.082 76.168-20.343 18.579-53.242 18.848-73.97.834 36.599-2.642 60.568-14.215 71.349-34.508 13.725-25.834 2.216-58.825-7.596-78.863 18.781 12.099 29.998 25.785 33.299 36.369zm22.625-152.365c-1.006 4.798-2.011 9.598-2.972 14.365-6.991 34.688-11.539 51.442-20.003 59.022-.482.432-.988.84-1.517 1.23 7.477-30.372 7.84-53.987 1.25-73.428-5.204-15.348-19.027-28.759-36.973-35.873-19.002-7.532-50.423-11.331-97.013 7.821 12.525-12.594 27.548-25.208 44.051-36.789 32.779-23.002 64.998-37.292 84.085-37.292 15.037 0 25.179 3.486 31.005 10.658 13.515 16.64 5.672 54.079-1.913 90.286z"/><path d="m451.447 160.819c-14.943 0-27.101 12.158-27.101 27.101s12.158 27.101 27.101 27.101 27.101-12.158 27.101-27.101-12.158-27.101-27.101-27.101zm0 42.134c-8.29 0-15.034-6.744-15.034-15.033 0-8.29 6.744-15.033 15.034-15.033s15.033 6.744 15.033 15.033c0 8.29-6.743 15.033-15.033 15.033z"/></g></g><g><g><path d="m115.666 2.461-8.261 23.228c-.354.995-1.054 1.783-1.937 2.181l-20.637 9.298c-2.916 1.314-2.916 5.959 0 7.273l20.637 9.298c.883.398 1.584 1.186 1.937 2.181l8.261 23.228c1.167 3.282 5.294 3.282 6.461 0l8.261-23.228c.354-.994 1.054-1.783 1.938-2.181l20.637-9.298c2.915-1.314 2.915-5.959 0-7.273l-20.637-9.298c-.884-.398-1.584-1.186-1.938-2.181l-8.261-23.228c-1.167-3.281-5.294-3.281-6.461 0z" fill="#a2f4e3"/></g><g><path d="m356.384 60.667-6.128 17.23c-.262.738-.782 1.322-1.437 1.618l-15.308 6.897c-2.163.974-2.163 4.42 0 5.395l15.308 6.897c.655.295 1.175.88 1.437 1.618l6.128 17.23c.866 2.434 3.927 2.434 4.793 0l6.128-17.23c.262-.738.782-1.322 1.437-1.618l15.308-6.897c2.163-.975 2.163-4.42 0-5.395l-15.308-6.897c-.655-.295-1.175-.88-1.437-1.618l-6.128-17.23c-.866-2.434-3.927-2.434-4.793 0z" fill="#a2f4e3"/></g><g><path d="m451.455 35.743c0 9.962 8.076 18.038 18.038 18.038s18.038-8.076 18.038-18.038-8.076-18.038-18.038-18.038-18.038 8.076-18.038 18.038z" fill="#00ebc4"/></g><g><path d="m218.447 65.143c0 4.165 3.377 7.542 7.542 7.542 4.166 0 7.542-3.377 7.542-7.542 0-4.166-3.377-7.542-7.542-7.542-4.166 0-7.542 3.376-7.542 7.542z" fill="#00ebc4"/></g></g></g></svg>