<svg id="Capa_1" enable-background="new 0 0 512 512" height="512" viewBox="0 0 512 512" width="512" xmlns="http://www.w3.org/2000/svg"><g><g><g><g><path d="m124.681 115.933c-10.629-2.88-22.168 1.992-27.319 12.209-5.887 11.679-1.192 25.92 10.488 31.808l96.527 48.658c11.674 5.884 25.92 1.192 31.808-10.488 5.887-11.679 1.192-25.92-10.488-31.808l-96.527-48.658c-1.463-.737-2.968-1.309-4.489-1.721z" fill="#fff2a5"/></g><g><path d="m301.081 20.471c-9.214-9.215-24.151-9.255-33.416-.073-40.211 39.856-42.315 79.251-36.998 105.282 5.621 27.526 20.598 45.464 22.287 47.418l71.588 3.471-35.75-34.439.147.173c-.093-.112-9.302-11.36-12.17-27.703-3.624-20.651 4.531-41.027 24.239-60.561 9.29-9.208 9.356-24.202.149-33.492-.025-.025-.051-.051-.076-.076z" fill="#fff2a5"/></g><g><path d="m171.322 238.726c-1.955-1.689-19.893-16.665-47.419-22.286-26.03-5.316-65.426-3.213-105.282 36.998-9.182 9.264-9.141 24.202.073 33.416.025.026.051.051.076.076 9.29 9.207 24.284 9.141 33.492-.149 19.534-19.708 39.909-27.863 60.561-24.239 16.343 2.868 27.592 12.077 27.703 12.17l-.173-.147 35.39 28.627z" fill="#fff2a5"/></g><g><path d="m397.844 389.095c2.88 10.629-1.992 22.168-12.209 27.319-11.679 5.887-25.92 1.192-31.808-10.488l-48.658-96.526c-5.885-11.674-1.192-25.92 10.488-31.808 11.68-5.887 25.92-1.192 31.808 10.488l48.658 96.527c.736 1.462 1.308 2.967 1.721 4.488z" fill="#fff2a5"/></g><g><path d="m493.306 212.695c9.215 9.214 9.255 24.151.073 33.416-39.856 40.21-79.251 42.314-105.282 36.998-27.526-5.621-45.464-20.598-47.418-22.286l-3.471-71.588 34.439 35.75-.172-.147c.112.093 11.36 9.302 27.703 12.17 20.652 3.624 41.027-4.531 60.561-24.239 9.208-9.289 24.202-9.356 33.492-.149.023.024.05.05.075.075z" fill="#fff2a5"/></g><g><path d="m275.05 342.454c1.689 1.955 16.665 19.893 22.286 47.419 5.316 26.031 3.213 65.426-36.998 105.282-9.264 9.182-24.202 9.141-33.416-.073-.025-.026-.051-.051-.076-.076-9.207-9.29-9.141-24.284.149-33.492 19.708-19.534 27.863-39.909 24.239-60.56-2.868-16.343-12.077-27.592-12.17-27.703l.147.173-28.627-35.39z" fill="#fff2a5"/></g><g><circle cx="360.53" cy="153.247" fill="#fff2a5" r="62.336"/></g><g><path d="m404.608 109.168c-14.361-14.361-33.986-20.243-52.664-17.66 9.306 1.491 18.247 5.812 25.42 12.985 18.112 18.111 18.112 47.476 0 65.587-18.111 18.111-47.476 18.111-65.587 0-7.174-7.174-11.495-16.114-12.985-25.421-2.583 18.678 3.299 38.303 17.66 52.664 24.344 24.344 63.813 24.344 88.157 0 24.343-24.342 24.343-63.811-.001-88.155z" fill="#ffb7a9"/></g><g><path d="m309.808 345.1c-57.288 57.288-161.526 68.43-185.544 44.412s-12.876-128.255 44.412-185.544c57.288-57.288 124.075-60.888 163.047-21.915s35.373 105.759-21.915 163.047z" fill="#ffddb6"/></g><g><path d="m331.723 182.053c-27.973-27.973-70.276-34.012-113.11-14.009v6.747c25.415-6.598 49.361-.654 66.202 16.187 28.484 28.484 25.853 77.296-16.017 119.166s-118.054 50.013-135.608 32.459c-7.364-7.365-10.201-25.05-7.925-46.19h-6.437c-10.418 41.283-7.972 79.691 5.436 93.099 24.018 24.018 128.255 12.877 185.543-44.412 57.289-57.288 60.888-124.074 21.916-163.047z" fill="#ffa7b8"/></g></g><path d="m500.393 205.623c-.038-.038-.076-.077-.115-.115-13.197-13.08-34.571-12.982-47.65.211-17.089 17.24-34.492 24.454-51.72 21.426-6.555-1.15-12.184-3.554-16.238-5.717 10.064-3.564 19.331-9.336 27.019-17.024 17.726-17.727 24.305-42.438 19.752-65.356l32.908-10.936c5.247-1.743 8.088-7.41 6.344-12.658-1.743-5.248-7.416-8.091-12.658-6.343l-33.183 11.027c-3.342-6.504-7.722-12.609-13.163-18.05s-11.546-9.821-18.05-13.163l11.027-33.183c1.744-5.247-1.096-10.914-6.343-12.658-5.246-1.746-10.914 1.096-12.658 6.343l-10.936 32.908c-22.919-4.553-47.63 2.026-65.357 19.752-7.731 7.731-13.488 16.963-17.039 26.984-2.165-4.061-4.556-9.674-5.702-16.203-3.023-17.23 4.186-34.632 21.425-51.719 13.196-13.078 13.292-34.454.213-47.65-.022-.024-.046-.047-.069-.069-.013-.013-.025-.025-.038-.038-13.078-13.079-34.407-13.125-47.544-.105-43.388 43.006-45.57 85.947-39.76 114.396 1.77 8.669 4.536 17.146 8.209 25.337-1.088.37-2.176.751-3.262 1.15l-92.129-45.457c-2.042-1.03-4.189-1.852-6.376-2.444-15.356-4.156-31.707 3.141-38.878 17.366-4.051 8.036-4.73 17.169-1.912 25.717 2.818 8.547 8.796 15.485 16.833 19.537l57.36 28.915c-4.665 4.742-9.127 9.878-13.352 15.365-7.005-2.856-14.194-5.059-21.443-6.539-28.45-5.81-71.391-3.63-114.397 39.76-13.021 13.137-12.974 34.465.104 47.543l.108.108c6.559 6.502 15.139 9.748 23.718 9.747 8.678-.001 17.356-3.323 23.933-9.959 17.088-17.24 34.489-24.449 51.72-21.425 1.401.246 2.807.581 4.214.956-3.843 10.977-6.935 22.365-9.16 33.972-6.083 31.732-6.378 71.844 11.037 89.26 10.83 10.829 30.434 14.811 51.344 14.811 12.716 0 25.917-1.473 37.917-3.773 11.608-2.225 22.997-5.317 33.975-9.161.376 1.408.708 2.815.954 4.215 3.024 17.23-4.185 34.631-21.426 51.719-13.195 13.079-13.289 34.455-.211 47.65.01.01.097.097.107.108 6.558 6.558 15.19 9.839 23.824 9.839 8.583 0 17.169-3.243 23.72-9.734 43.389-43.006 45.57-85.947 39.759-114.396-1.481-7.251-3.682-14.44-6.539-21.444 5.488-4.226 10.623-8.688 15.365-13.352l28.914 57.359c4.052 8.037 10.99 14.016 19.538 16.833 3.469 1.144 7.034 1.712 10.583 1.711 5.197 0 10.36-1.216 15.135-3.623 14.222-7.171 21.525-23.52 17.364-38.879-.593-2.188-1.415-4.331-2.443-6.375l-45.877-91.01c.547-1.452 1.07-2.908 1.564-4.365 8.207 3.68 16.699 6.428 25.343 8.193 6.883 1.406 14.612 2.344 22.987 2.344 26.242 0 58.808-9.212 91.409-42.104 13.017-13.136 12.972-34.457-.098-47.535zm-186.233 119.978-125.985-125.984c12.548-10.591 25.593-18.776 38.812-24.389l110.702 110.702c-.231 1.046-.286 2.131-.171 3.214-5.566 12.413-13.397 24.655-23.358 36.457zm10.483-136.468c17.209 17.208 25.117 40.815 22.269 66.47-.691 6.231-1.982 12.48-3.848 18.713l-103.604-103.604c6.233-1.866 12.481-3.156 18.712-3.848 3.427-.38 6.818-.569 10.163-.569 21.686-.001 41.399 7.929 56.308 22.838zm-1.112-72.885c20.402-20.4 53.598-20.401 73.998 0 20.401 20.401 20.401 53.597 0 73.997-10.044 10.045-23.823 15.555-37.985 15.299-4.82-11.279-11.772-21.601-20.741-30.57-8.97-8.97-19.292-15.922-30.572-20.741-.271-14.197 5.181-27.866 15.3-37.985zm-83.054 7.429c-4.822-23.611-2.797-59.461 34.236-96.168 5.322-5.273 13.948-5.262 19.254.007.04.04.08.08.12.12 5.264 5.358 5.212 13.999-.128 19.291-22.174 21.978-31.275 45.329-27.052 69.402 2.643 15.057 9.907 26.343 12.946 30.547-7.746-.834-15.738-.819-23.891.085-2.385.265-4.77.611-7.153 1.02-3.822-7.821-6.63-15.966-8.332-24.304zm-134.951 19.405c-1.143-3.468-.868-7.174.776-10.433 2.91-5.773 9.538-8.741 15.764-7.051.888.24 1.761.575 2.674 1.035l77.867 38.421c-8.903 5.1-17.646 11.204-26.149 18.269l-64.101-32.313c-3.261-1.645-5.687-4.46-6.831-7.928zm117.225 240.038c-.103-.12-.184-.251-.298-.364l-91.782-91.783c4.836-16.607 11.541-32.346 19.729-46.451l118.853 118.853c-14.119 8.198-29.877 14.908-46.502 19.745zm-108.197-130.439c-24.071-4.222-47.423 4.877-69.402 27.052-5.306 5.354-13.98 5.394-19.302.117l-.077-.076c-5.306-5.305-5.324-13.958-.041-19.288 36.708-37.034 72.56-39.057 96.168-34.237 4.638.947 9.254 2.248 13.801 3.882-4.747 7.741-9.075 15.949-12.931 24.518-2.729-.825-5.473-1.487-8.216-1.968zm88.12 135.282c-36.247 6.949-63.323 2.478-71.331-5.531-8.008-8.008-12.48-35.082-5.531-71.331.425-2.216.888-4.421 1.38-6.617l82.098 82.099c-2.195.492-4.4.956-6.616 1.38zm84.853 3.913c4.823 23.611 2.797 59.461-34.236 96.167-5.331 5.284-13.983 5.266-19.221.028l-.112-.114c-5.307-5.353-5.268-14.026.085-19.332 22.175-21.978 31.277-45.328 27.052-69.402-.481-2.741-1.142-5.487-1.968-8.218 8.568-3.856 16.776-8.184 24.516-12.93 1.635 4.546 2.936 9.163 3.884 13.801zm-7.821-35.035-122.77-122.771c5.735-8.5 12.042-16.243 18.82-23.02 1.152-1.153 2.312-2.277 3.475-3.387l126.884 126.883c-1.111 1.163-2.234 2.323-3.387 3.475-6.778 6.777-14.521 13.084-23.022 18.82zm107.473 32.267c.422.839.76 1.717 1 2.606 1.686 6.222-1.28 12.85-7.051 15.76-3.261 1.644-6.966 1.918-10.435.776-3.468-1.143-6.283-3.569-7.926-6.829l-32.313-64.102c6.861-8.257 12.819-16.739 17.828-25.375zm99.089-150.046c-36.708 37.036-72.561 39.06-96.168 34.237-8.309-1.696-16.468-4.493-24.309-8.321.41-2.387.757-4.776 1.022-7.165.905-8.149.92-16.139.087-23.882 4.22 3.065 15.418 10.282 30.546 12.937 24.068 4.222 47.422-4.876 69.402-27.052 5.295-5.342 13.947-5.39 19.303-.115.024.025.05.05.074.075 5.307 5.304 5.325 13.957.043 19.286z" fill="#4e0325"/><g><path d="m357.935 132.527c0 5.724-4.64 10.364-10.364 10.364s-10.364-4.64-10.364-10.364 4.64-10.364 10.364-10.364 10.364 4.64 10.364 10.364z" fill="#fff"/></g></g><g><g><path d="m36.027 3.183-8.224 23.125c-.352.99-1.049 1.775-1.929 2.171l-20.546 9.257c-2.903 1.308-2.903 5.933 0 7.24l20.546 9.257c.88.396 1.577 1.181 1.929 2.171l8.224 23.125c1.162 3.267 5.271 3.267 6.433 0l8.224-23.125c.352-.99 1.049-1.775 1.929-2.171l20.546-9.257c2.903-1.308 2.903-5.933 0-7.24l-20.546-9.256c-.88-.396-1.577-1.181-1.929-2.171l-8.225-23.126c-1.161-3.267-5.27-3.267-6.432 0z" fill="#fff2a5"/></g><g><path d="m460.212 1.817-6.1 17.154c-.261.734-.778 1.316-1.431 1.611l-15.241 6.866c-2.153.97-2.153 4.401 0 5.371l15.241 6.866c.652.294 1.17.876 1.431 1.61l6.1 17.154c.862 2.423 3.91 2.423 4.772 0l6.101-17.154c.261-.734.778-1.316 1.431-1.61l15.24-6.866c2.153-.97 2.153-4.401 0-5.371l-15.24-6.866c-.653-.294-1.17-.876-1.431-1.611l-6.101-17.154c-.862-2.423-3.91-2.423-4.772 0z" fill="#fff2a5"/></g><g><path d="m142.142 64.021c0 9.918 8.04 17.958 17.958 17.958s17.958-8.04 17.958-17.958-8.04-17.958-17.958-17.958-17.958 8.04-17.958 17.958z" fill="#ffe35c"/></g><g><circle cx="491.152" cy="168.025" fill="#ffe35c" r="7.509"/></g></g></g></svg>