<svg id="Capa_1" enable-background="new 0 0 512 512" height="512" viewBox="0 0 512 512" width="512" xmlns="http://www.w3.org/2000/svg"><g><g><g><g><g><path d="m327.282 140.639c3.823 3.695 9.741 4.068 14.029.923 26.103-19.145 66.76-65.435 58.604-73.318-11.01-10.642-37.387-1.216-58.913 21.055-11.138 11.523-18.786 24.222-22.053 35.271-1.14 3.855.009 8.022 2.9 10.816z" fill="#ff8cc0"/></g><g><path d="m370.368 182.285c-3.823-3.695-4.396-9.597-1.4-13.989 18.247-26.739 63.128-68.945 71.284-61.062 11.01 10.642 2.486 37.324-19.041 59.595-11.138 11.523-23.57 19.599-34.502 23.239-3.814 1.27-8.018.263-10.908-2.53z" fill="#ff8cc0"/></g></g><g><path d="m265.193 271.54-23.539-22.752c-20.013-19.344-20.555-51.248-1.211-71.261l46.987-48.612c19.344-20.013 51.248-20.555 71.261-1.211l23.539 22.753c20.013 19.344 20.555 51.248 1.211 71.261l-46.987 48.612c-19.344 20.011-51.249 20.553-71.261 1.21z" fill="#ffa785"/></g><g><path d="m382.23 150.455-23.54-22.753c-20.013-19.344-51.917-18.801-71.261 1.211l-46.987 48.612c-19.344 20.013-18.801 51.917 1.211 71.261l23.539 22.753c20.013 19.344 51.917 18.802 71.261-1.211l46.987-48.612c19.344-20.012 18.802-51.917-1.21-71.261zm-39.061 48.179-31.153 32.23c-12.825 13.269-33.979 13.628-47.247.803l-15.607-15.085c-13.269-12.825-13.628-33.979-.803-47.247l31.153-32.23c12.825-13.269 33.978-13.628 47.247-.803l15.607 15.085c13.268 12.825 13.628 33.978.803 47.247z" fill="#ff7d87"/></g><g><path d="m241.33 399.657c-46.317 48.098-134.891 56.154-156.527 35.319s-16.928-109.65 29.389-157.748 103.231-50.239 138.339-16.431c35.109 33.807 35.116 90.762-11.201 138.86z" fill="#ff8cc0"/></g><g><path d="m252.531 260.797c-35.108-33.808-92.022-31.667-138.339 16.431-.487.506-.963 1.022-1.44 1.537 33.263-33.673 73.768-34.949 98.86-10.787 25.364 24.425 25.369 65.571-8.092 100.32-33.462 34.749-97.452 40.569-113.083 25.516-13.34-12.845-12.813-61.455 8.423-97.029-31.745 49.515-33.012 119.938-14.057 138.19 21.636 20.835 110.211 12.78 156.527-35.318 46.317-48.099 46.31-105.053 11.201-138.86z" fill="#ff68c1"/></g></g><path d="m301.244 295.701c16.133-.275 31.193-6.815 42.407-18.416l46.987-48.612c4.405-4.558 7.996-9.688 10.732-15.208 4.461.928 12.146 2.137 21.989 2.137 21.665 0 53.677-5.868 84.172-33.528 4.095-3.714 4.403-10.045.689-14.139-3.714-4.095-10.045-4.402-14.139-.689-36.106 32.752-74.221 29.317-86.938 26.969.13-1.061.23-2.128.305-3.2 7.283-4.62 14.48-10.524 20.961-17.228 11.459-11.856 20.004-25.376 24.059-38.069 4.816-15.076 2.949-27.747-5.258-35.68-2.667-2.578-6.335-3.892-10.343-3.767-15.742.586-43.238 28.037-54.687 40.215l-9.528-9.209c12.373-12.429 38.25-40.29 38.334-55.985.022-4.021-1.441-7.66-4.116-10.245-15.466-14.95-46.88-5.795-73.066 21.296-6.514 6.74-12.132 14.108-16.509 21.564-1.062.111-2.123.246-3.179.413-2.777-12.601-7.537-50.604 23.992-87.833 3.573-4.219 3.05-10.534-1.169-14.107-4.218-3.574-10.535-3.048-14.107 1.169-38.701 45.696-31.217 93.018-27.763 107.187-5.365 2.879-10.384 6.615-14.837 11.222l-46.987 48.613c-12.962 13.41-18.456 31.325-16.582 48.56l-20.416-19.53c-10.985-10.509-14.594-25.425-8.981-37.116l20.5-42.703c1.323-2.755 1.315-5.961-.021-8.708l-11.669-24.005c-2.417-4.972-8.408-7.039-13.379-4.627-4.971 2.417-7.043 8.407-4.626 13.379l9.556 19.656-18.407 38.343c-9.372 19.523-4.072 43.733 13.189 60.247l14.457 13.83c-3.386-.035-6.806.109-10.248.437-10.189.969-20.283 3.483-30.145 7.452l-39.545-31.882c-9.24-7.449-22.338-8.442-32.596-2.463l-23.927 13.939-14.457-7.452c-4.914-2.534-10.95-.603-13.484 4.311-2.533 4.914-.603 10.951 4.311 13.484l19.339 9.969c3.042 1.568 6.669 1.472 9.626-.248l28.671-16.707c3.132-1.824 7.13-1.524 9.952.752l32.576 26.263c-10.444 6.499-20.492 14.705-29.957 24.534-4.29 4.454-8.332 9.348-12.104 14.608l-7.875-9.509c-7.379-8.91-20.573-10.679-30.039-4.026l-31.235 21.951-7.488-7.422c-3.927-3.893-10.264-3.866-14.155.062-3.892 3.926-3.864 10.264.062 14.155l13.437 13.319c1.934 1.918 4.484 2.901 7.05 2.901 2.002 0 4.015-.598 5.753-1.82l38.088-26.767c.979-.688 2.346-.507 3.11.416l12.201 14.732c-9.75 18.452-16.602 39.774-19.685 62.07-3.775 27.296-2.143 61.918 13.759 77.232 10.333 9.951 28.581 13.572 47.542 13.572 10.22 0 20.651-1.053 30.154-2.734 22.122-3.915 43.135-11.544 61.184-21.954l13.465 10.401c.948.732 1.178 2.093.524 3.095l-25.457 38.977c-2.651 4.059-2.013 9.434 1.515 12.758l13.768 12.976c1.933 1.822 4.401 2.725 6.863 2.725 2.661 0 5.317-1.055 7.286-3.145 3.792-4.022 3.604-10.358-.419-14.149l-7.672-7.232 20.877-31.965c6.324-9.686 4.107-22.812-5.047-29.884l-8.151-6.296c5.155-3.993 9.93-8.244 14.25-12.73 9.325-9.684 17.054-19.875 23.115-30.389l26.061 30.165c2.369 2.743 2.807 6.729 1.09 9.921l-15.724 29.223c-1.621 3.013-1.59 6.643.079 9.629l10.621 18.989c1.834 3.279 5.237 5.125 8.745 5.125 1.654 0 3.331-.41 4.878-1.276 4.824-2.699 6.548-8.797 3.849-13.622l-7.94-14.195 13.123-24.387c5.624-10.453 4.189-23.511-3.571-32.493l-31.902-36.927c3.708-10.171 5.901-20.528 6.495-30.923.191-3.334.208-6.638.062-9.906l12.962 12.659c11.012 10.753 25.044 16.436 38.769 16.436 7.577 0 15.063-1.733 21.89-5.302l37.696-19.698 19.969 8.881c5.053 2.251 10.969-.026 13.213-5.078 2.247-5.051-.026-10.966-5.078-13.213l-24.388-10.846c-2.792-1.242-5.996-1.141-8.704.275l-41.982 21.939c-11.494 6.006-26.524 2.908-37.399-7.714l-18.782-18.342c1.492.109 2.99.182 4.5.182.35-.006.703-.009 1.054-.015zm133.527-178.263c.638 2.957.183 7.32-1.372 12.186-3.091 9.676-10.156 20.701-19.383 30.248-2.948 3.049-6.057 5.886-9.24 8.452-1.966-6.191-4.941-12.016-8.816-17.291 16.157-17.461 31.514-29.812 38.811-33.595zm-44.834-43.423c-3.488 7.418-15.319 23.193-32.296 39.993-5.476-3.73-11.421-6.469-17.591-8.197 2.457-3.272 5.18-6.484 8.149-9.556 16.53-17.1 33.935-23.805 41.738-22.24zm-142.298 110.468 46.987-48.613c7.911-8.185 18.472-12.3 29.045-12.3 10.111 0 20.235 3.763 28.062 11.329l23.539 22.752c16.012 15.477 16.448 41.096.971 57.107l-46.987 48.612c-7.497 7.757-17.566 12.13-28.352 12.314-10.788.164-20.999-3.844-28.754-11.342l-23.54-22.753c-7.757-7.497-12.13-17.567-12.313-28.352s3.845-20.997 11.342-28.754zm-51.518 63.408c18.221 0 35.444 6.612 49.467 20.116 15.342 14.774 23.114 34.765 21.883 56.29-.46 8.043-2.115 16.105-4.913 24.084l-95.22-95.22c9.662-3.498 19.356-5.27 28.783-5.27zm-15.316 177.802-89.526-89.526c5.199-15.591 12.464-29.817 21.336-41.634l109.177 109.177c-11.652 8.997-25.642 16.486-40.987 21.983zm-28.738 7.617c-30.259 5.356-53.251 1.264-60.321-5.544s-12.025-29.629-7.815-60.069c.862-6.233 2.046-12.372 3.528-18.364l80.427 80.427c-5.172 1.408-10.455 2.601-15.819 3.55zm82.054-40.597c-1.029 1.068-2.094 2.119-3.183 3.157l-110.584-110.583c.349-.373.695-.75 1.048-1.116 10.753-11.167 22.313-19.806 34.113-25.849l101.977 101.977c-5.584 11.174-13.417 22.078-23.371 32.414z" fill="#4e0325"/><g><g><path d="m304.766 173.755c-.661 0-1.311-.061-1.962-.191-.64-.13-1.271-.321-1.872-.571-.6-.25-1.181-.56-1.721-.921-.55-.37-1.062-.791-1.522-1.251-.47-.46-.881-.971-1.251-1.521-.36-.541-.671-1.121-.921-1.721-.25-.611-.44-1.241-.57-1.872-.13-.651-.191-1.301-.191-1.962 0-.651.061-1.312.191-1.952s.32-1.272.57-1.872c.25-.611.561-1.192.921-1.732.37-.55.781-1.061 1.251-1.521.46-.46.972-.881 1.522-1.241.54-.36 1.121-.671 1.721-.921.601-.25 1.232-.44 1.872-.571 1.291-.26 2.623-.26 3.914 0 .64.131 1.271.321 1.872.571.6.25 1.191.561 1.731.921.54.361 1.061.781 1.522 1.241.46.46.881.971 1.241 1.521.36.54.671 1.121.921 1.732.25.6.44 1.232.57 1.872s.2 1.301.2 1.952c0 .65-.07 1.311-.2 1.962-.13.63-.32 1.261-.57 1.872-.25.6-.561 1.181-.921 1.721-.361.55-.781 1.061-1.241 1.521s-.981.881-1.522 1.251c-.541.361-1.131.671-1.731.921-.601.25-1.232.441-1.872.571-.64.131-1.301.191-1.952.191z" fill="#fff"/></g><g><path d="m271.645 206.877c-2.562 0-5.123-.978-7.078-2.932-3.909-3.909-3.909-10.247 0-14.156l8.342-8.342c3.91-3.908 10.246-3.908 14.156 0 3.909 3.909 3.909 10.247 0 14.156l-8.342 8.342c-1.955 1.954-4.516 2.932-7.078 2.932z" fill="#fff"/></g></g></g><g><g><path d="m441.849 383.515-8.222 23.12c-.352.99-1.049 1.774-1.928 2.171l-20.541 9.254c-2.902 1.308-2.902 5.931 0 7.239l20.541 9.254c.879.396 1.576 1.181 1.928 2.171l8.222 23.12c1.162 3.266 5.27 3.266 6.431 0l8.222-23.12c.352-.99 1.049-1.774 1.928-2.171l20.541-9.254c2.902-1.307 2.902-5.931 0-7.239l-20.541-9.254c-.88-.396-1.576-1.181-1.928-2.171l-8.222-23.12c-1.161-3.266-5.269-3.266-6.431 0z" fill="#ffc5dd"/></g><g><path d="m127.245 1.817-6.099 17.15c-.261.734-.778 1.316-1.431 1.61l-15.237 6.865c-2.153.97-2.153 4.4 0 5.369l15.237 6.865c.652.294 1.169.876 1.431 1.61l6.099 17.15c.862 2.423 3.909 2.423 4.77 0l6.099-17.15c.261-.734.778-1.316 1.43-1.61l15.237-6.865c2.152-.97 2.152-4.399 0-5.369l-15.237-6.865c-.652-.294-1.169-.876-1.43-1.61l-6.099-17.15c-.861-2.423-3.908-2.423-4.77 0z" fill="#ffc5dd"/></g><g><path d="m23.408 113.543c0 9.916 8.038 17.954 17.954 17.954s17.954-8.038 17.954-17.954-8.038-17.954-17.954-17.954-17.954 8.038-17.954 17.954z" fill="#ff8cc0"/></g><g><ellipse cx="473.642" cy="282.699" fill="#ff8cc0" rx="7.507" ry="7.507" transform="matrix(.707 -.707 .707 .707 -61.172 417.716)"/></g></g></g></svg>