<svg id="Capa_1" enable-background="new 0 0 512 512" height="512" viewBox="0 0 512 512" width="512" xmlns="http://www.w3.org/2000/svg"><g><g><g><g><path d="m331.897 164.247c0 10.197-1.999 19.927-5.627 28.82-11.373 27.881-38.754 47.53-70.724 47.53-32.186 0-59.72-19.916-70.952-48.096-3.483-8.739-5.398-18.273-5.398-28.254 0-42.167 34.183-76.351 76.35-76.351 42.168 0 76.351 34.184 76.351 76.351z" fill="#75b7f2"/></g><g><path d="m331.512 178.3c-8.267-66.605-178.96-57.103-146.919 20.573 22.633 52.562 147.334 46.073 146.919-20.573z" fill="#8289f3"/></g><g><ellipse cx="255.547" cy="323.515" fill="#ff8cc0" rx="139.506" ry="153.383"/></g><g><path d="m279.399 172.374c43.449 17.715 74.415 63.693 74.415 117.627 0 69.268-51.072 125.421-114.073 125.421s-114.073-56.153-114.073-125.421c0-11.142 1.328-21.941 3.808-32.225-8.61 19.925-13.434 42.211-13.434 65.739 0 84.711 62.459 153.383 139.506 153.383s139.506-68.672 139.506-153.383c-.001-75.769-49.972-138.698-115.655-151.141z" fill="#ff68c1"/></g><g><ellipse cx="255.547" cy="271.855" fill="#75b7f2" rx="92.52" ry="101.723"/></g></g><g fill="#4e0325"><path d="m506.41 277.659c-35.357-23.097-65.459-24.614-84.486-21.819-11.897 1.748-21.137 5.375-27.039 8.281-10.141-28.313-27.31-52.801-49.149-70.898 23.192-6.357 68.626-22.971 89.991-59.35 13.553-23.078 15.144-49.928 4.726-79.804-1.829-5.245-7.565-8.015-12.808-6.186-5.245 1.829-8.015 7.563-6.186 12.808 8.376 24.022 7.351 45.2-3.047 62.942-17.306 29.533-56.332 44.026-76.962 49.851.324-3.053.504-6.131.504-9.236 0-35.115-21.066-65.383-51.214-78.887v-34.54c0-5.554-4.503-10.058-10.058-10.058-5.554 0-10.058 4.503-10.058 10.058v28.362c-4.901-.866-9.933-1.344-15.079-1.344-5.145 0-10.178.478-15.079 1.344v-28.362c0-5.554-4.503-10.058-10.058-10.058-5.554 0-10.058 4.503-10.058 10.058v34.539c-30.148 13.504-51.215 43.772-51.215 78.887 0 3.013.153 6.003.457 8.964-20.858-5.997-58.964-20.494-76.008-49.579-10.395-17.742-11.42-38.919-3.044-62.942 1.829-5.245-.941-10.979-6.186-12.808-5.248-1.829-10.979.942-12.808 6.186-10.417 29.877-8.827 56.727 4.726 79.804 21.156 36.024 65.916 52.668 89.308 59.163-21.85 18.036-39.049 42.459-49.243 70.71-5.922-2.837-14.871-6.232-26.263-7.906-19.026-2.794-49.13-1.28-84.486 21.819-4.651 3.038-5.958 9.271-2.92 13.921 1.93 2.954 5.147 4.558 8.43 4.558 1.886 0 3.794-.529 5.491-1.638 49.352-32.24 84.856-16.338 93.969-11.153-2.984 12.857-4.576 26.313-4.576 40.169 0 3.411.108 6.794.297 10.154-6.513.42-16.939 1.951-28.892 6.939-17.747 7.406-42.767 24.213-61.171 62.226-2.421 4.999-.331 11.014 4.669 13.435 1.411.684 2.905 1.007 4.376 1.007 3.734 0 7.322-2.089 9.059-5.677 25.243-52.133 62.969-57.542 74.22-57.952 3.772 22.023 11.595 42.505 22.596 60.481-5.77 2.243-12.963 5.752-20.519 11.175-15.624 11.214-36.215 33.224-45.585 74.405-1.233 5.417 2.16 10.806 7.576 12.039.751.171 1.502.252 2.24.252 4.591 0 8.737-3.163 9.798-7.828 12.562-55.212 46.809-69.608 58.493-72.966 27.433 34.152 67.652 55.75 112.407 55.75 44.841 0 85.131-21.681 112.567-55.949 10.734 2.951 46.425 16.854 59.237 73.165 1.062 4.665 5.208 7.828 9.798 7.828.739 0 1.489-.082 2.24-.252 5.416-1.233 8.807-6.622 7.576-12.039-9.369-41.182-29.96-63.192-45.584-74.405-7.883-5.658-15.366-9.229-21.256-11.455 10.914-17.915 18.679-38.305 22.43-60.223 9.975.163 49.153 4.337 75.121 57.974 1.737 3.588 5.324 5.678 9.06 5.677 1.47 0 2.964-.323 4.376-1.007 5-2.421 7.091-8.436 4.67-13.435-18.404-38.013-43.424-54.82-61.171-62.226-12.522-5.225-23.369-6.655-29.795-6.991.188-3.342.294-6.708.294-10.102 0-13.688-1.557-26.986-4.471-39.701 7.63-4.574 43.821-22.597 94.77 10.686 1.697 1.109 3.605 1.638 5.49 1.638 3.283 0 6.501-1.605 8.43-4.558 3.04-4.65 1.733-10.883-2.918-13.921zm-250.863-97.47c45.47 0 82.461 41.121 82.461 91.666s-36.992 91.666-82.461 91.666-82.462-41.121-82.462-91.666 36.992-91.666 82.462-91.666zm0-82.235c36.554 0 66.292 29.739 66.292 66.293 0 4.123-.381 8.191-1.121 12.179-18.963-10.074-40.153-15.889-62.525-16.316-.879-.024-1.762-.037-2.646-.037s-1.767.012-2.646.037c-22.368.427-43.556 6.239-62.516 16.31-.739-3.985-1.131-8.047-1.131-12.174 0-36.553 29.739-66.292 66.293-66.292zm0 368.887c-71.378 0-129.449-64.296-129.449-143.326 0-39.045 14.181-74.486 37.131-100.362-6.57 14.73-10.26 31.255-10.26 48.702 0 61.636 46.016 111.781 102.578 111.781 56.561 0 102.577-50.145 102.577-111.781 0-17.448-3.69-33.973-10.261-48.702 22.951 25.875 37.132 61.317 37.132 100.362 0 79.03-58.071 143.326-129.448 143.326z"/><path d="m303.829 283.7c3.333 0 6.035-2.702 6.035-6.035v-11.622c0-3.333-2.702-6.035-6.035-6.035s-6.035 2.702-6.035 6.035v11.622c0 3.333 2.702 6.035 6.035 6.035z"/><path d="m259.831 312.552c3.333 0 6.035-2.702 6.035-6.035v-11.623c0-3.333-2.702-6.035-6.035-6.035s-6.035 2.702-6.035 6.035v11.623c0 3.333 2.702 6.035 6.035 6.035z"/><path d="m287.961 326.256c3.333 0 6.035-2.702 6.035-6.035v-11.622c0-3.333-2.702-6.035-6.035-6.035s-6.035 2.702-6.035 6.035v11.622c0 3.333 2.702 6.035 6.035 6.035z"/></g><g><g><path d="m242.788 220.285c-4.433 0-8.491-2.952-9.703-7.435-1.45-5.363 1.722-10.885 7.084-12.334 1.147-.31 2.32-.589 3.486-.828 5.435-1.123 10.758 2.386 11.876 7.827 1.119 5.441-2.386 10.758-7.827 11.876-.764.157-1.532.34-2.284.543-.879.237-1.763.351-2.632.351z" fill="#fff"/></g><g><path d="m201.176 270.152c-.541 0-1.089-.044-1.641-.135-5.482-.901-9.195-6.074-8.296-11.555 1.969-11.992 6.639-23.348 13.502-32.839 3.255-4.501 9.546-5.508 14.043-2.257 4.501 3.255 5.512 9.543 2.257 14.043-5.046 6.977-8.487 15.383-9.953 24.311-.809 4.931-5.075 8.432-9.912 8.432z" fill="#fff"/></g></g></g><g><g><path d="m470.291 148.278-8.262 23.231c-.354.995-1.054 1.783-1.938 2.181l-20.64 9.299c-2.916 1.314-2.916 5.96 0 7.273l20.64 9.299c.884.398 1.584 1.186 1.938 2.181l8.262 23.231c1.167 3.282 5.295 3.282 6.462 0l8.262-23.231c.354-.995 1.054-1.783 1.938-2.181l20.64-9.299c2.916-1.314 2.916-5.96 0-7.273l-20.64-9.299c-.884-.398-1.584-1.186-1.938-2.181l-8.262-23.231c-1.167-3.282-5.295-3.282-6.462 0z" fill="#ffc5dd"/></g><g><path d="m143.138 1.826-6.128 17.232c-.262.738-.782 1.323-1.437 1.618l-15.31 6.898c-2.163.975-2.163 4.421 0 5.395l15.31 6.898c.655.295 1.175.88 1.437 1.618l6.128 17.232c.866 2.434 3.928 2.434 4.793 0l6.129-17.232c.262-.738.782-1.322 1.437-1.618l15.31-6.898c2.163-.975 2.163-4.421 0-5.395l-15.31-6.898c-.656-.295-1.175-.88-1.437-1.618l-6.129-17.232c-.866-2.435-3.927-2.435-4.793 0z" fill="#ffc5dd"/></g><g><path d="m7.229 188.443c0 9.963 8.077 18.04 18.04 18.04s18.04-8.077 18.04-18.04c0-9.964-8.077-18.04-18.04-18.04-9.963-.001-18.04 8.076-18.04 18.04z" fill="#ff8cc0"/></g><g><ellipse cx="366.465" cy="50.821" fill="#ff8cc0" rx="7.543" ry="7.543" transform="matrix(.707 -.707 .707 .707 71.4 274.015)"/></g></g></g></svg>