<svg id="Layer_1" enable-background="new 0 0 511.98 511.98" height="512" viewBox="0 0 511.98 511.98" width="512" xmlns="http://www.w3.org/2000/svg"><path d="m318.842 407.614c-7.106 2.56-32.785 11.501-50.158 15.045s-53.325 21.452-67.682 46.665c0 0 2.976-41.121 47.476-65.454s82.624-33.55 98.407-41.5z" fill="#f7890f"/><g><g><path d="m244.311 504.48v-264.431h-124.299c-41.673 89.204-24.43 182.377 24.37 264.431z" fill="#f7890f"/><g><path d="m120.064 239.938s-75.331 144.69 41.399 192.745l92.387-192.136z" fill="#f2ebeb"/><g><g><path d="m167.546 504.48c-30.159-211.94 86.304-263.933 86.304-263.933 34.433 42.962 89.16 92.396 104.992 146.336v117.487z" fill="#fd9e35"/><path d="m253.85 240.548s-10.893 4.864-25.152 17.677c33.601 38.661 76.441 81.972 90.144 128.659v117.486h40c1.458-17.587 0-117.486 0-117.486-15.832-53.94-70.559-103.374-104.992-146.336z" fill="#f7890f"/><g><path d="m187.477 243.016c148.259-35.912 181.005-98.739 181.005-98.739l-63.285-46.375c12.345-34.715 0-90.422 0-90.422-37.035 15.146-61.727 53.312-61.727 53.312-29.724-12.238-81.256-12.238-110.98 0 0 0-24.692-38.167-61.727-53.312 0 0-12.345 55.707 0 90.422l-63.285 46.375c37.835 65.063 97.774 77.507 179.999 98.739z" fill="#fd9e35"/><g><path d="m305.197 97.902c12.345-34.715 0-90.422 0-90.422-14.079 5.758-26.367 14.842-36.2 23.892-15.666 15.758-23.852 25.164-25.527 29.421 0 0-13.325-6.756-44.818-8.894 77.826 29.721 133.216 95.725 133.216 95.725l-144.391 109.746c148.259-35.912 181.005-113.092 181.005-113.092z" fill="#f7890f"/></g><path d="m7.478 144.277c109.349 0 167.073 81.524 167.073 81.524h26.858s61.586-81.524 167.073-81.524c0 0-33.572 83.759-181.005 118.129 0 0-129.666-22.468-179.999-118.129" fill="#f2ebeb"/></g><path d="m187.98 261.394 18.313-19.519c4.423-7.661-1.106-17.237-9.952-17.237h-16.721c-8.846 0-14.375 9.576-9.952 17.237z" fill="#9b592d"/><g fill="#f2ebeb"><path d="m70.3 98.431s15.359-11.071 32.112-21.061c0 0-10.49-25.833-34.975-49.889 0-.001-7.065 41.011 2.863 70.95z"/><path d="m305.813 98.431s-15.359-11.071-32.112-21.061c0 0 10.313-26.017 34.798-50.073 0 0 7.149 38.195-2.686 71.134z"/></g></g><path d="m343.319 396.652c-20.666 11.11-45.115 18.34-67.625 24.074-86.402 22.009-86.402 83.645-86.402 83.645h185.618c71.559 0 129.568-58.432 129.568-129.99s-58.01-129.567-129.568-129.567c-32.152 0-61.683 11.057-88.004 34.044 0 0 57.239 62.512 71.936 108.026 0 0-1.281 2.111-15.523 9.768z" fill="#fd9e35"/><path d="m374.91 244.813c-6.836 0-13.553.505-20.146 1.513 62.134 9.555 109.714 63.247 109.714 128.054 0 71.558-58.01 129.99-129.568 129.99h40c71.559 0 129.568-58.432 129.568-129.99s-58.01-129.567-129.568-129.567z" fill="#f7890f"/></g><g><path d="m280.398 463.416 11.734-23.514-23.448-17.242c-79.382 23.465-79.392 81.711-79.392 81.711h94.264l16.961-23.536z" fill="#f2ebeb"/></g></g><path d="m358.842 386.884s38.398-22.319 32.517-68.916c0 0-6.067 29.403-44.474 44.403 0 0 1.955 3.632 4.428 8.512s5.461 11.007 7.529 16.001z" fill="#f7890f"/></g><g fill="#060606"><path d="m149.075 140.687c-9.652 0-9.668 15 0 15 9.652 0 9.668-15 0-15z"/><path d="m226.885 155.687c9.652 0 9.668-15 0-15-9.652 0-9.668 15 0 15z"/><path d="m374.91 237.313c-32.017 0-61.322 10.47-87.218 31.127-7.708-8.689-15.087-17.026-21.868-25.126 33.996-15.861 57.469-33.52 72.882-47.967 26.696-25.021 35.774-45.941 36.677-48.13 1.35-3.146.292-6.966-2.468-8.989l-58.952-43.2c10.074-36.208-.945-86.924-1.443-89.17-.945-4.262-5.827-7.095-10.161-5.319-30.988 12.673-53.408 39.933-61.7 51.201-30.079-10.195-75.278-10.195-105.357 0-8.292-11.268-30.711-38.528-61.7-51.201-4.334-1.775-9.216 1.057-10.161 5.319-.498 2.247-11.517 52.962-1.443 89.17l-58.952 43.2c-3.048 2.236-3.948 6.553-2.05 9.82 9.025 15.52 19.62 29.707 31.493 42.167 6.473 6.795 17.629-3.243 10.859-10.348-7.999-8.395-15.372-17.654-22.037-27.615 47.36 3.197 83.325 22.281 105.845 38.525 18.593 13.412 31.117 26.968 37.139 34.146-5.178 7.132-4.747 17.257 1.299 23.571-33.369-10.13-66.236-23.681-94.541-44.371-7.575-5.542-16.774 6.319-8.852 12.109 14.078 10.291 29.816 19.397 47.733 27.556-18.872 42.028-24.42 86.421-19.113 132.025 5.115 43.953 20.967 88.533 47.116 132.501 1.352 2.273 3.801 3.667 6.446 3.667l230.528-.11c28.918 0 56.585-8.959 80.01-25.909 7.604-5.502-.843-17.905-8.793-12.152-20.851 15.086-45.477 23.061-71.217 23.061h-76.704l8.396-11.651c2.271-3.15 1.761-7.513-1.175-10.055l-15.718-13.607 9.134-18.306c1.629-3.265.672-7.229-2.268-9.391l-10.875-7.997c53.99-14.416 117.696-42.023 113.141-108.409-.641-9.357-15.637-8.766-14.965 1.026 1.648 24.016-6.797 41.848-21.489 55.58-13.002-33.776-39.359-65.546-64.738-94.369 23.044-18.168 48.998-27.378 77.26-27.378 67.309 0 122.068 54.759 122.068 122.067 0 27.688-9.515 54.85-26.792 76.481-5.916 7.408 5.767 16.814 11.721 9.361 19.392-24.279 30.071-54.766 30.071-85.843 0-75.579-61.489-137.067-137.068-137.067zm-213.967 135.097c-2.995 15.555-4.825 32.009-5.528 49.258-22.448-11.308-37.76-27.766-45.546-49.051-3.434-9.387-5.252-19.229-5.907-29.114.185-30.011 5.961-61.557 19.91-93.733 18.283 7.386 38.701 13.951 61.73 19.898 1.212.308 2.426.317 3.641.027 8.235-1.995 16.095-4.141 23.635-6.4-6.507 7.032-13.275 15.523-19.801 25.69-15.234 23.735-26.045 51.803-32.134 83.425zm15.22-138.276c.346-.6 1.376-1.996 3.457-1.996h16.722c2.759 0 4.74 2.832 3.743 5.394l-12.104 12.901-12.104-12.901c-.604-1.55-.023-2.865.286-3.398zm151.5-48.999c-34.838 32.315-79.569 51.712-117.141 63.194 5.856-6.278 6.277-16.186 1.259-23.246 6.348-7.202 19.44-20.793 38.386-34.238 23.012-16.332 59.3-35.526 105.449-38.623-5.098 8.048-13.893 19.87-27.953 32.913zm-26.88-99.337c-4.721-3.204-10.839-7.249-17.485-11.368 3.215-6.455 9.494-17.658 19.393-29.669.886 13.173.811 28.045-1.908 41.037zm-225.585.089c-2.741-13.051-2.807-28.028-1.908-41.274 9.932 12.038 16.273 23.33 19.516 29.822-6.704 4.156-12.872 8.236-17.608 11.452zm61.226 93.082c-23.18-16.813-59.619-36.443-107.455-41.141 25.336-18.567 50.27-37.906 77.285-54.016 3.154-1.881 4.482-5.77 3.138-9.188-.425-1.079-10.369-25.925-33.972-50.084.32-2.242.64-4.308.941-6.137 29.723 15.878 49.619 46.138 49.832 46.464 1.961 3.034 5.808 4.236 9.152 2.861 28.039-11.544 77.229-11.544 105.269 0 3.343 1.378 7.19.173 9.152-2.861.215-.332 20.02-30.565 49.835-46.47.309 1.866.636 3.98.964 6.275-23.51 24.118-33.42 48.874-33.845 49.952-1.344 3.418-.016 7.307 3.138 9.188 27.002 16.102 51.898 35.525 77.22 54.08-46.233 4.799-82.586 24.313-106.046 41.041-21.951 15.652-36.309 31.222-42.359 38.349-6.751-.81-14.478-.77-21.234-.015-5.843-7.238-19.557-22.735-41.015-38.298zm-25.172 226.497c10.836 13.619 25.49 24.544 43.839 32.647.016 18.779 1.301 38.425 3.884 58.867h-10.302c-14.946-25.746-29.173-56.871-37.421-91.514zm179.17 76.548-10.705 14.856h-81.919c1.172-5.673 3.707-13.988 9.183-22.969 11.966-19.624 32.225-34.046 60.293-42.97l15.328 11.272-8.914 17.864c-1.529 3.065-.788 6.777 1.802 9.019zm-16.58-68.557c-41.644 10.91-83.914 37.742-91.318 83.523h-8.416c-5.802-44.631-5.342-85.288 1.408-120.916 9.135-48.216 32.832-99.733 76.444-125.957 34.492 41.798 79.911 81.095 98.016 133.703-20.326 13.569-47.656 22.393-76.134 29.647z"/></g></g></svg>