<svg id="Parrot" enable-background="new 0 0 64 64" height="512" viewBox="0 0 64 64" width="512" xmlns="http://www.w3.org/2000/svg"><g><path d="m37.8006 45.0884c.3127-.0996 2.7957-.836 4.9237 1.1622.8035.7544 1.3016 1.6594 1.6095 2.442.318.8083-.3069 1.6784-1.1755 1.6784h-9.2555c-.8482 0-1.4501-.8267-1.1896-1.6339l.7684-2.3808c1.4397-.4227 2.8794-.8453 4.319-1.2679z" fill="#f7bc23"/><path d="m41.4847 48.6105c-.1813-.6266.1232-1.2895.7294-1.5303.3404-.1352.6847-.2802.9302-.3959-.1375-.1501-.275-.3001-.4249-.4375-2.125-1.9999-4.5999-1.2625-4.9124-1.1625-1.4318.4197-2.8511.8393-4.2705 1.259-.021.0056-.0391.0043-.0603.0106l-.7625 2.3874c-.2624.8.3375 1.625 1.1875 1.625h6.5624c1.2606 0 1.2547-.9481 1.0211-1.7558z" opacity=".09"/><path d="m38.8461 50.3654h-9.2407c-.848 0-1.4466-.823-1.1847-1.6336l.2245-.7108.5362-1.6585c1.4466-.424 2.8807-.848 4.3149-1.272.3118-.0998 2.7934-.8355 4.9134 1.1598.5362.5113.9353 1.0725 1.2221 1.6212.1621.2869.2868.5612.3866.8231.3491.9101-.1996 1.6708-1.1723 1.6708z" fill="#ffd731"/><path d="m38.4096 46.2501c-2.12-1.9953-4.6017-1.2595-4.9134-1.1598-1.2256.3624-2.454.7247-3.6874 1.0871-.0013-.0008-.0026-.0014-.0039-.0021-.1995.0623-.4116.1247-.6235.1871l-.5362 1.6585-.2245.7108c-.2619.8106.3367 1.6336 1.1847 1.6336h1.6461c-.9045-.2087-1.0862-.9613-1.0904-1.5163-.0026-.3395.2938-.6038.6318-.5721.7842.0735 2.2389.1929 3.4141.1929 1.9454 0 3.7536-.1996 5.4247-.5986-.2868-.5487-.6859-1.1098-1.2221-1.6211z" opacity=".09"/><path d="m19.3364 43.825c-8.0326 10.2424-15.2792 17.1532-14.1526 18.6991 2.7883 3.8264 19.7371-8.241 26.3998-19.4965-3.3579.3264-8.8894.4709-12.2472.7974z" fill="#f72121"/><path d="m30.032 43.147c-.3085.4358-.6515.8692-.9844 1.3035-.4963.2135-.9847.4001-1.4531.5339-1.0624.3-2.0375.4-2.8999.2875-1.225-.1625-1.9874-.85-2.35-1.675-1.0999.0625-2.1249.1375-3.0124.225-1.875 2.3999-3.7124 4.6124-5.3999 6.6248 2.3249-.0375 5.3999-2.5374 5.9624-3.1999-.1875 1.0875-.3125 2.4375.625 3.075.142.1135.7511.271 1.4437.3411.5378.0544.7494.7201.3511 1.0855-6.7135 6.1583-14.2379 10.4725-16.6944 8.9232-.5125.875-.6875 1.5-.4375 1.85 2.2375 3.0749 13.6622-4.1374 21.4996-12.9373 1.875-2.0999 3.55-4.2999 4.8374-6.4623.025-.0375.0375-.0625.0625-.1-.4751.05-1.0001.0874-1.5501.125z" opacity=".09"/><path d="m19.3801 42.1905c-10.3397 9.3009-15.9736 10.7748-14.4665 12.4101 2.4634 2.6731 17.4034-3.0556 24.9614-12.0156-2.393-.09-4.786-.1799-7.179-.2699-1.1053-.0415-2.2106-.0831-3.3159-.1246z" fill="#20abd1"/><path d="m29.8695 42.5845c-7.5498 8.9623-22.487 14.6872-24.9619 12.0122-.4625-.4999-.25-.9874.5624-1.6624 3.3624 1.475 15.1622-3.1249 22.5746-10.4248.6125.025 1.2124.05 1.8249.075z" opacity=".09"/><path d="m56.204 17.6558c-1.1517 1.4227-3.7261 2.9131-6.1755 3.1123-3.5169-1.2057-6.5384-4.0591-5.9949-6.3944.4885-2.0994 2.8008-3.0792 3.4177-3.3093 2.0674-.7711 4.9473-.5271 6.6728 1.4919 1.5284 1.7884 2.1329 4.63 2.0799 5.0995z" fill="#f7bc23"/><path d="m56.2055 17.659c-.4.5-.975 1.0125-1.675 1.4625-1.2-1.4625-3.15-3.4625-6.9624-4.825-.3625-.125.725-2.1499 2.2-3.6374 1.5625 0 3.1999.575 4.3499 1.9 1.5375 1.7875 2.1375 4.6249 2.0875 5.0999z" opacity=".09"/><path d="m57.661 19.8433c-1.2536.1492-2.1619-4.3005-8.9236-6.7153-.5634-.2012 2.4329-5.0662 4.9115-5.2374 8.1783 3.6226 5.5772 11.7664 4.0121 11.9527z" fill="#ffd731"/><path d="m39.5429 2.0739c6.6876-3.5945 12.203.9426 13.5655 3.9064.4182.9097.5405 1.9103.5405 1.9103-1.8812 1.3903-6.3871 6.8742-3.6204 12.8774.8847 2.2954 3.2785 11.6105-1.3123 19.163-7.6114 11.013-22.377 5.6142-25.8981 5.4383 9.0221-11.9671 4.0265-11.7913 8.1548-24.2752 1.5302-4.6271 1.8625-15.415 8.57-19.0202z" fill="#f72121"/><path d="m50.0303 20.7666c-2.1294-4.6136.0436-8.9283 2.0173-11.3005-.3521-5.2662-6.8554-6.8388-9.4397-3.4417-2.6254 3.4511-.7463 11.8657 7.4224 14.7422z" fill="#f4f4f4"/><path d="m53.6461 7.8886s-.125-1-.5375-1.9125c-1.1125-2.4124-4.9875-5.8873-10.0123-5.1123 3.6249.55 6.3124 3.1624 7.1999 5.1123.4366.9735.2147 2.0979-.5188 2.8727-2.071 2.1878-4.8893 6.87-2.5562 11.9145.6385 1.6808 2.0862 7.1054 1.024 12.8482-.7149 3.8649-3.3964 7.1766-7.1033 8.4834-.1616.057-.3238.1113-.4865.1629-1.1278.358-2.0774-.9004-1.4249-1.8875 1.9272-2.9152 3.4498-6.3597 4.1762-10.2426.2722-1.4549-.5504-2.9008-1.9246-3.4507l-10.0606-4.0263c-.3-.0375-.625-.025-.95.0375-2.9915 10.1861.4425 11.1685-6.1306 20.583-.4626.6608-.9572 1.349-1.5222 2.0997 3.5249.1749 18.2871 5.5748 25.8994-5.4374 2.4776-4.0712 2.9203-8.6743 2.6644-12.3916.0003-.0054.0011-.0288.0011-.0413-.225-3.1625-.95-5.6874-1.35-6.7374-2.7749-5.9997 1.7375-11.4871 3.6125-12.8746z" opacity=".09"/><path d="m31.4243 19.4274c-6.6568-.8088-19.3406 23.4941-17.6887 26.7661 1.7659 3.4978 7.3654-.9807 8.1418-1.8823-.2417 1.3661-.3738 3.1795 1.6365 3.4468 5.8109.7727 18.8923-8.5327 20.2402-23.3993" fill="#f72121"/><path d="m13.7401 46.1912c1.7613 3.4999 7.3589-.9759 8.1329-1.8846-.2355 1.3685-.3701 3.1858 1.6377 3.4551 5.452.7291 17.2867-7.415 19.8555-20.6855-4.7115 6.955-11.5379 10.852-15.2403 9.7662-1.6449-.4824-2.1585-1.5324-1.9228-2.8897-1.2464 2.1456-8.0068 3.7206-8.1329-.2356-3.04 5.6088-5.0591 11.0494-4.3301 12.4741z" fill="#63e763"/><path d="m13.7401 46.1912c1.7613 3.4999 7.3589-.9759 8.1329-1.8846-.2355 1.3685-.3701 3.1858 1.6377 3.4551 5.048.673 15.5816-6.2708 19.1488-17.8475-4.6105 8.3572-11.7676 12.9799-15.9855 12.419-2.0079-.2692-2.7818-1.9416-2.5462-3.3102-1.4972 1.6306-8.7179 4.1263-7.4485-2.6025-2.2324 4.5656-3.545 8.5816-2.9392 9.7707z" fill="#30c3e5"/><path d="m37.2444 39.8345c-4.5624 5.4374-10.3623 8.3748-13.7248 7.9249-2.0124-.2625-1.8874-2.0875-1.6375-3.4499-.775.8999-6.3748 5.3874-8.1498 1.8875-1.3875-2.75 7.3248-20.2996 14.0871-25.3995-5.8624 7.0998-11.6497 19.5371-10.4997 21.812 1.2103 2.4035 4.2304 1.0402 6.2548-.3414.6707-.4577 1.6368-.1661 1.867.6126.1921.6499.6614 1.1611 1.653 1.2913 2.525.3374 6.4374-1.2375 10.1499-4.3375z" opacity=".09"/><path d="m47.0436 7.003c.8168 0 1.4789.6621 1.4789 1.4789s-.6621 1.4789-1.4789 1.4789-1.4789-.6621-1.4789-1.4789.6621-1.4789 1.4789-1.4789zm7.2867.3848c-.0817-.415-.2454-1.0846-.5436-1.7252-.841-1.8267-3.048-4.1247-6.0851-5.1409-2.7648-.9247-5.7103-.6164-8.5142.8941-5.4113 2.9083-6.8828 10.081-7.9582 15.3183-.1408.6872-.2761 1.3297-.4127 1.9418-3.1576.2498-6.7843 4.4608-9.3442 8.1062-4.8178 6.862-9.6182 17.1346-8.4195 19.7055-2.155 1.6595-3.9957 2.9374-5.3565 3.8762-2.5042 1.7273-3.6468 2.5158-3.7615 3.551-.033.2954.0159.7422.4309 1.1914.5719.6238 1.5393.9033 2.7783.9033.3488 0 .7258-.0298 1.1146-.0728-3.2504 3.8815-4.5399 5.8429-3.6835 7.0306.3406.4675 1.0193 1.0254 2.3181 1.0327h.0262c4.5733 0 14.1134-6.772 20.752-14.4173.06.2478.1569.4882.3132.7043.3802.5249.9711.8252 1.6211.8252l13.5489.0122c.6702 0 1.2951-.3308 1.6711-.8862.3674-.5408.4419-1.2243.2039-1.8213-.2881-.7446-.8325-1.8188-1.7797-2.7075-.0076-.0073-.0165-.0133-.0242-.0206 2.4454-1.2084 4.4858-2.9897 6.1325-5.3736 4.1392-6.8119 2.8211-15.2205 1.669-18.9325 1.8167-.351 3.5125-1.2579 4.6834-2.2087.6225.7914 1.1393 1.4187 1.8725 1.4187.0525 0 .1062-.0031.1611-.0098 1.1902-.1416 1.9958-1.9537 2.2399-3.5778.232-1.5361.4716-6.6882-5.6538-9.6173zm-34.5431 29.3557c1.7694.448 4.2071-.1099 5.7811-1.1462.3271.9302 1.1236 1.6064 2.3468 1.9653.4993.1453 1.0339.2161 1.5979.2161 3.3691 0 7.7501-2.5317 11.4818-6.5352-4.4449 7.0153-10.6561 10.8275-14.221 10.3462-.6677-.0891-1.1993-.3796-1.5387-.841-.3259-.4443-.4639-1.0425-.368-1.5991.0562-.3271-.1099-.6531-.4083-.7995-.2978-.1477-.6579-.0781-.8832.1648-.8374.9106-3.847 2.1081-5.36 1.3549-.849-.4263-1.1164-1.5179-.8085-3.2323.1706-.348.3506-.7021.5331-1.0584.4224.5571 1.0453.9621 1.847 1.1644zm-3.7144 2.8095c.3352.8696.9102 1.376 1.4708 1.6569 1.7114.8606 4.2748.1721 5.9154-.7629.1135.4272.3046.8313.5676 1.1902.5859.7971 1.4673 1.2951 2.5488 1.4392.2521.0342.5139.05.7849.05 3.0768 0 7.2893-2.1553 11.1034-6.1716-2.0802 3.076-4.3657 5.1609-5.7337 6.2534-3.2708 2.6135-6.8474 4.1003-9.1172 3.8061-.4224-.0561-.7092-.1953-.8764-.4236-.3613-.4932-.2417-1.4624-.1202-2.1484.0586-.332-.1117-.6628-.4169-.8081-.3046-.1453-.6695-.0684-.8899.188-.5585.6482-3.7475 3.1713-5.7079 2.9223-.5438-.0671-.9241-.3491-1.1963-.8887-.3385-.6699.3125-3.1073 1.6676-6.3028zm-10.6481 14.5314c.0934-.3967 1.6339-1.4587 3.1231-2.4865 1.38-.9509 3.2475-2.2472 5.4425-3.9388.407.3089.8846.5077 1.4286.5746 1.8469.2209 4.1228-1.0803 5.5992-2.1862.0519.5115.1984 1.0071.5072 1.4282.2299.3141.5332.553.894.729-7.4422 5.129-15.6236 7.3323-16.9946 5.8797zm1.496 8.4154c-.0061 0-.0128 0-.0189 0-.8142-.0049-1.0406-.3149-1.0852-.3564-.1422-.8545 3.0841-4.6631 4.7816-6.6517 4.2534-1.0935 9.7009-3.8146 13.9443-6.964.7572-.0351 1.5781-.1897 2.4429-.4528-6.6618 7.8737-16.2656 14.426-20.0647 14.4249zm22.2785-13.093c-.0543-.0757-.1355-.2319-.0684-.4358l.5598-1.707c1.568.2034 3.0715.3264 4.481.3264 1.456-.0002 2.8113-.133 4.1025-.352.415.49.7766 1.0549 1.0426 1.7179.0757.1965.0757.365 0 .4748-.0793.1147-.2515.1819-.4736.1819h-9.2375c-.1634.0001-.3111-.0756-.4064-.2062zm13.018-2.6098c.7483.7019 1.1816 1.5625 1.416 2.1691.0793.1953.0024.354-.0488.4309-.0464.0684-.1807.2283-.4272.2283l-2.3388-.007c.0789-.3817.055-.795-.105-1.21-.2245-.5577-.5064-1.0557-.8185-1.5187.5968-.1533 1.1786-.3278 1.7374-.5339.2004.1359.4031.2674.5849.4413zm5.8836-7.2972c-3.4634 5.0108-8.9302 7.1279-16.6503 6.4565.7423-.4717 1.4852-.9924 2.2158-1.5762 2.926-2.3376 9.8387-8.961 10.8347-19.9538.0378-.4126-.2673-.7776-.6799-.8148-.3857-.0238-.7764.2661-.8142.6793-.0784.8651-.208 1.6911-.3584 2.4992-4.6221 6.7424-11.112 10.2683-14.3111 9.3322-1.167-.3418-1.5844-.9521-1.3952-2.041.0616-.3577-.141-.7092-.4828-.8331-.3406-.1221-.722.0153-.9045.3278-.6439 1.1084-3.5479 2.1777-5.4003 1.7138-.8185-.2071-1.227-.671-1.3067-1.4256 1.1282-2.059 2.4237-4.1862 3.8518-6.2201 3.504-4.9895 6.6484-7.7165 8.6345-7.4718.0632.0076.1031.0018.1337-.0096.3207-.022.6025-.2354.6799-.5635.1849-.7794.3625-1.6449.5511-2.5634 1.015-4.9474 2.4066-11.7228 7.1989-14.299 2.467-1.3281 4.9315-1.5948 7.3277-.7922 2.5976.8691 4.5153 2.8619 5.2001 4.3487.2148.4602.343.9558.4138 1.2909-.1051.0911-.2206.1984-.3393.3117-.61-1.9833-2.1129-3.5153-4.1919-4.1398-2.4304-.73-4.9047-.0195-6.2975 1.8145-1.3183 1.7328-1.6235 4.5269-.7947 7.2923 1.1555 3.8629 4.1471 6.9233 8.2193 8.4681 1.0886 3.0625 2.7236 11.4864-1.3345 18.1689zm2.1141-24.9419c2.1567 1.0408 3.5267 2.2858 4.5463 3.455-1.036.8401-2.6093 1.6638-4.2472 1.9274-.7484-1.9209-.724-3.7578-.2991-5.3824zm-1.4645 4.8493c-3.0068-1.4852-5.1938-3.9568-6.0974-6.9747-.6933-2.3144-.4822-4.5958.5517-5.9539 1.0132-1.3311 2.843-1.8347 4.6728-1.286 1.9194.5764 3.1629 2.0918 3.3868 4.0711-1.7699 2.2232-3.674 5.9254-2.5139 10.1435zm8.84-.3507c-.1807-.1459-1.2036-1.441-1.2036-1.441-1.1316-1.3918-2.802-3.1244-5.6846-4.4828.8702-2.0652 2.2436-3.6375 3.0584-4.3599 4.1294 2.0105 4.8008 5.138 4.8198 6.8597.0195 1.8182-.6348 3.1286-.99 3.424z"/></g></svg>