<svg id="Capa_1" enable-background="new 0 0 512 512" height="512" viewBox="0 0 512 512" width="512" xmlns="http://www.w3.org/2000/svg"><g><g><g><path d="m169.465 504.5c-6.175 0-12.359-2.271-17.196-6.851-10.033-9.499-10.464-25.333-.965-35.366 25.979-27.435 37.146-67.455 33.191-118.946-3.101-40.372-14.565-71.695-14.681-72.007-4.799-12.956 1.814-27.35 14.77-32.148 12.956-4.801 27.35 1.814 32.148 14.77.571 1.541 14.018 38.277 17.649 85.555 5.01 65.238-11.155 119.589-46.748 157.179-4.917 5.193-11.537 7.814-18.168 7.814z" fill="#ffb3dd"/></g><g><path d="m92.606 495.724c-11.113 0-21.258-7.459-24.191-18.715-16.463-63.183-.095-102.005 14.346-136.258 18.957-44.965 17.196-58.349 15.157-73.846-1.802-13.699 7.841-26.264 21.54-28.066 13.694-1.802 26.264 7.841 28.066 21.539 5.571 42.338-7.302 72.872-18.659 99.81-12.995 30.823-24.218 57.442-12.032 104.206 3.484 13.37-4.531 27.033-17.901 30.516-2.116.551-4.238.814-6.326.814z" fill="#ffb3dd"/></g><g><path d="m342.534 504.5c-6.631 0-13.249-2.621-18.169-7.816-35.592-37.589-51.757-91.941-46.747-157.179 3.63-47.277 17.078-84.014 17.648-85.555 4.799-12.956 19.193-19.568 32.148-14.77 12.947 4.796 19.56 19.173 14.779 32.122-.277.761-11.865 32.957-14.778 73.211-3.685 50.932 7.511 90.555 33.28 117.769 9.499 10.033 9.068 25.867-.965 35.366-4.836 4.58-11.022 6.852-17.196 6.852z" fill="#ffb3dd"/></g><g><path d="m419.394 495.724c-2.088 0-4.209-.263-6.324-.814-13.37-3.484-21.384-17.146-17.901-30.516 12.185-46.763.963-73.383-12.032-104.205-11.357-26.94-24.23-57.474-18.659-99.811 1.802-13.698 14.359-23.345 28.066-21.539 13.699 1.802 23.342 14.368 21.539 28.066-3.8 28.881 4.985 49.719 15.158 73.846 14.44 34.253 30.809 73.076 14.345 136.258-2.933 11.255-13.079 18.715-24.192 18.715z" fill="#ffb3dd"/></g><g fill="#ff9dd3"><path d="m414.083 266.905c1.803-13.699-7.84-26.264-21.539-28.067-13.707-1.806-26.264 7.841-28.066 21.539-4.062 30.869 1.684 55.46 9.495 76.961 4.659.718 9.382 1.096 14.137 1.096 12.776 0 25.339-2.639 36.957-7.691-8.218-20.134-14.251-39.016-10.984-63.838z"/><path d="m327.415 239.181c-12.955-4.798-27.349 1.814-32.148 14.77-.556 1.5-13.316 36.373-17.338 81.85 9.457-2.302 18.537-6.085 26.899-11.266 5.179-3.208 11.136-4.904 17.228-4.904 2.758 0 5.483.365 8.126 1.043 4.48-28.432 11.794-48.767 12.013-49.37 4.779-12.95-1.833-27.327-14.78-32.123z"/><path d="m184.585 239.181c-12.956 4.798-19.569 19.192-14.77 32.148.093.25 7.494 20.488 12.017 49.341 2.639-.676 5.36-1.041 8.113-1.041 6.092 0 12.049 1.696 17.227 4.904 8.362 5.181 17.442 8.965 26.9 11.267-4.023-45.477-16.783-80.35-17.339-81.85-4.798-12.955-19.192-19.57-32.148-14.769z"/><path d="m119.457 238.838c-13.699 1.802-23.342 14.368-21.54 28.067 1.879 14.275 3.507 26.778-11.064 63.804 11.64 5.076 24.233 7.725 37.038 7.725 4.754 0 9.477-.377 14.136-1.096 7.812-21.501 13.558-46.092 9.496-76.961-1.802-13.698-14.372-23.341-28.066-21.539z"/></g><path d="m442.384 241.546-15.153-47.629h-342.462l-15.153 47.629c-6.925 21.767 1.831 45.456 21.248 57.486 20.234 12.536 45.821 12.536 66.054 0 20.234-12.536 45.821-12.536 66.054 0 20.234 12.536 45.821 12.536 66.054 0 20.234-12.536 45.821-12.536 66.054 0 20.234 12.536 45.821 12.536 66.054 0 19.419-12.03 28.175-35.719 21.25-57.486z" fill="#ff88ca"/><path d="m104.113 193.917h-19.344l-15.153 47.629c-6.925 21.767 1.831 45.456 21.248 57.486 17.266 10.697 38.427 12.258 56.836 4.7-23.232-31.248-38.734-68.847-43.587-109.815z" fill="#ff75c0"/><path d="m256 7.5c-112.161 0-203.085 78.745-203.085 175.881 0 .26.001.519.002.779.194 38.642 34.545 68.112 72.855 63.054 41.053-5.42 84.812-8.347 130.229-8.347s89.176 2.926 130.229 8.347c38.31 5.058 72.661-24.413 72.855-63.054.001-.26.002-.519.002-.779-.002-97.136-90.926-175.881-203.087-175.881z" fill="#ffc8e5"/><g><g><g><ellipse cx="156.597" cy="158.037" fill="#ff9db0" rx="36.678" ry="29.208"/></g><g><ellipse cx="355.403" cy="158.037" fill="#ff9db0" rx="36.678" ry="29.208"/></g></g></g><path d="m102.475 166.279c0-47.401 14.185-91.404 38.433-127.813-53.148 31.719-87.993 84.789-87.993 144.915 0 .26.001.52.002.779.179 35.727 29.562 63.591 64.271 63.597-9.495-25.293-14.713-52.759-14.713-81.478z" fill="#ffb3dd"/></g><g><path d="m168.022 126.251c0-5.49 4.467-9.957 9.957-9.957s9.957 4.467 9.957 9.957c0 4.142 3.358 7.499 7.499 7.499s7.499-3.358 7.499-7.499c0-13.761-11.195-24.956-24.956-24.956s-24.956 11.195-24.956 24.956c0 4.142 3.358 7.499 7.499 7.499 4.144.001 7.501-3.357 7.501-7.499z"/><path d="m324.065 126.251c0-5.49 4.466-9.957 9.957-9.957 5.49 0 9.957 4.467 9.957 9.957 0 4.142 3.358 7.499 7.499 7.499 14.931 0 6.834-32.456-17.456-32.456-24.347 0-32.383 32.456-17.456 32.456 4.142.001 7.499-3.357 7.499-7.499z"/><path d="m280.172 151.582c2.721-3.123 2.396-7.86-.727-10.581-3.122-2.721-7.86-2.396-10.581.727-6.8 7.803-18.906 7.826-25.727 0-2.721-3.122-7.459-3.447-10.581-.726s-3.448 7.458-.726 10.581c12.767 14.648 35.538 14.69 48.342-.001z"/><path d="m404.504 53.348c-80.938-70.096-212.661-71.78-295.684-1.118-3.154 2.684-3.535 7.417-.851 10.572s7.418 3.534 10.572.851c36.858-31.37 85.676-48.646 137.46-48.646 107.839 0 195.572 75.53 195.572 168.369-.101.475 1.521 23.488-18.017 41.628-24.775 22.984-41.109 13.966-94.632 9.652-186.589-15.038-224.132 24.064-260.477-9.652-11.384-10.57-17.938-25.363-18.015-40.891l-.002-.737c0-36.02 13.046-70.386 37.728-99.383 2.684-3.154 2.304-7.887-.85-10.572-3.154-2.684-7.888-2.305-10.572.85-27.022 31.746-41.306 69.474-41.306 109.104l.002.817c.09 17.983 7.023 35.196 19.223 48.245l-2.171 6.826c-7.899 24.826 1.768 52.404 25.104 66.525-2.567 8.926-6.428 19.47-11.725 32.035-14.903 35.349-31.794 75.414-14.691 141.052 3.732 14.32 16.663 24.322 31.447 24.322 21.287 0 36.852-20.107 31.481-40.718-11.543-44.298-1.293-68.611 11.685-99.394 6.594-15.64 14.012-33.239 17.878-53.782 7.532-3.545 8.819-5.586 16.688-8.6 12.14 52.955 13.025 116.789-24.483 156.4-5.972 6.306-9.13 14.561-8.893 23.242.783 28.69 36.13 42.569 56.111 21.47 46.864-49.493 56.172-119.933 45.903-187.942 11.178 2.82 22.847 2.82 34.024 0-10.265 67.991-.972 138.437 45.903 187.943 12.125 12.801 32.703 13.806 45.965 1.252 13.018-12.326 13.581-32.947 1.253-45.965-7.66-8.09-14.034-17.522-18.944-28.036-1.753-3.753-6.217-5.373-9.969-3.621-3.753 1.753-5.374 6.216-3.621 9.969 5.592 11.974 12.875 22.741 21.643 32.001 6.64 7.013 6.337 18.121-.674 24.761-6.882 6.514-17.966 6.501-24.762-.674-45.643-48.206-52.101-118.558-40.568-183.953 7.381-3.993 18.302-12.026 37.821-10.206-2.821 12.293-5.828 28.653-7.128 46.614-1.639 22.65-.387 43.461 3.719 61.854.902 4.042 4.91 6.587 8.953 5.685 4.042-.902 6.587-4.911 5.685-8.953-3.788-16.966-4.931-36.312-3.398-57.503 1.235-17.055 4.097-32.619 6.784-44.327 7.851 3.01 9.135 5.045 16.664 8.591 3.865 20.542 11.284 38.141 17.878 53.783 12.977 30.781 23.227 55.094 11.684 99.393-5.368 20.6 10.179 40.718 31.481 40.718 14.784 0 27.716-10.001 31.447-24.322 17.102-65.635.213-105.7-14.688-141.048l-.013.005.01-.011c-4.607-10.924-8.982-21.333-11.88-31.941 23.357-14.031 33.206-41.638 25.259-66.616l-2.171-6.826c12.2-13.048 19.132-30.261 19.223-48.24-.382-1.673 4.783-72.958-62.065-130.852zm-282.542 303.91c-12.961 30.743-25.202 59.781-12.377 109.001 2.871 11.013-5.394 21.937-16.967 21.937-7.959 0-14.922-5.389-16.932-13.105-15.821-60.716.021-98.291 13.998-131.445 5.085-12.06 8.93-22.432 11.647-31.432 11.279 3.865 23.5 4.885 35.826 2.489-3.783 15.485-9.564 29.201-15.195 42.555zm60.233 134.242c-10.711 11.312-29.804 3.942-30.227-11.565-.128-4.677 1.574-9.124 4.791-12.521 41.294-43.61 41.614-111.587 28.21-170.074 20.332-1.884 32.668 7.435 37.794 10.208 11.533 65.392 5.078 135.746-40.568 183.952zm254.121-16.408c-2.011 7.716-8.973 13.105-16.933 13.105-11.543 0-19.843-10.898-16.966-21.937 12.825-49.223.583-78.26-12.378-109.003-5.629-13.353-11.411-27.069-15.193-42.553 11.833 2.3 24.085 1.493 35.623-2.421 3.103 10.617 7.378 20.759 11.85 31.364l.012.001-.01.004c13.975 33.152 29.815 70.726 13.995 131.44zm-19.141-182.449c-18.206 11.282-40.919 10.675-58.15 0-21.78-13.495-49.331-14.754-73.952.001-17.294 10.711-38.488 10.906-55.406 1.583-3.059-1.653-7.512-4.841-15.267-7.733-20.108-7.533-42.64-5.489-61.424 6.148-38.041 23.564-89.703-6.394-76.2-48.834l.263-.826c12.209 8.231 27.031 12.679 42.381 12.237 13.766-.418 123.358-19.389 265.818-.582 18.281 2.413 36.02-2.356 49.724-11.655l.263.827c5.892 18.519-1.531 38.6-18.05 48.834z"/></g></g></svg>