<svg id="Capa_1" enable-background="new 0 0 511.969 511.969" height="512" viewBox="0 0 511.969 511.969" width="512" xmlns="http://www.w3.org/2000/svg"><g><g><path d="m462.369 133.583c-7.23 5.06-14.95 8.8-22.83 11.25-9.96 3.11-19.79 6.57-29.44 10.45-17.4 6.99-34.23 15.3-50.2 25.17-32.81 20.28-58.51 38.27-58.51 38.27l-25.92-37s14.45-11.87 32.01-29.95c11.42-11.76 20.86-25.1 28.31-39.51 7.03-13.57 12.29-28.09 15.74-43.14 3.96-17.24 14.95-33.85 33.1-46.56 34.56-24.19 82.66-17.57 106.36 8.36l2.94 12.8 6.92 2.48c12.15 29.54-7.79 65.89-38.48 87.38z" fill="#7dce5c"/><path d="m410.099 155.283c-17.4 6.99-34.23 15.3-50.2 25.17-32.81 20.28-58.51 38.27-58.51 38.27l-25.92-37s14.45-11.87 32.01-29.95c11.42-11.76 20.86-25.1 28.31-39.51 24.78 1.7 58.71 10.39 74.31 43.02z" fill="#59c230"/><path d="m119.939 395.537c-22.461 31.991-60.352 44.668-95.421 36.392l-5.432-1.282c-11.794-2.783-15.596-17.672-6.573-25.761 12.095-10.843 26.598-25.271 37.144-40.292 21.634-30.814 35.263-76.436 35.263-76.436l61.628 43.268c.001.001-4.975 33.297-26.609 64.111z" fill="#48a024"/><path d="m330.968 285.598c-.019.105 20.774 105.136-77.617 158.253-9.97 5.383-22.083-1.809-22.126-13.157-.098-26.168-1.597-68.986-8.914-110.789-11.682-66.745-38.201-130.904-38.201-130.904l96.421-16.876s38.754 46.727 50.437 113.473z" fill="#59c230"/><path d="m280.529 371.163c-.51.36-1.03.73-1.55 1.09-78.43 54.77-157.37 63.99-189.41 31.26l-17.24-24.7 82.82-57.84 201.14-140.46 17.25 24.69c19.56 41.09-15.68 111.36-93.01 165.96z" fill="#c76d33"/><path d="m280.529 371.163c-.51.36-1.03.73-1.55 1.09-78.43 54.77-157.37 63.99-189.41 31.26l-17.24-24.7 82.82-57.84c23.18 28.75 61.76 50.38 125.38 50.19z" fill="#a05423"/><path d="m327.789 437.793c-9.947 5.365-22.085-1.804-22.12-13.17-.03-7.95-.19-17.44-.6-27.98l14.98-27.99-19.03-25.22c-1.62-14.004-3.723-27.258-5.6-36.8l7.02-14.99c-11.623-6.125-11.391-5.96-11.49-6.06-8.291-35.767-21.866-77.149-32.4-102.65l96.42-16.87s38.76 46.73 50.44 113.47c-.02.1 20.77 105.14-77.62 158.26z" fill="#7dce5c"/><path d="m353.433 359.851c.717 5.9-.967 12.052-5.036 16.787-6.346 7.383-17.96 17.177-36.067 19.369-2.424.302-4.858.502-7.266.634-.633-15.927-1.827-34.23-4.043-53.21 8.101.129 12.384-.646 28.06-2.593 11.978-1.485 22.881 7.038 24.352 19.013z" fill="#f1e12b"/><path d="m351.126 269.619c.754 6.205-1.148 12.271-5.03 16.795-6.346 7.383-17.966 17.169-36.067 19.369-4.911.6-9.866.84-14.607.845-3.667-19.223-8.454-38.042-13.347-54.97 17.561 3.059 27.751 1.061 44.705-1.044 11.969-1.479 22.875 7.03 24.346 19.005z" fill="#f1e12b"/><path d="m149.139 436.873c-10.17 37.75-41.44 62.62-77.22 66.84l-5.54.65c-12.04 1.42-20.7-11.28-14.99-21.96 2.4-4.48 4.89-9.37 7.33-14.52l19.38-21.72-3.69-22.2c7.51-34.97 5.1-76.01 5.1-76.01l72.71 19.58s6.71 32.98-3.08 69.34z" fill="#59c230"/><path d="m107.027 449.643c-4.285 8.392-23.715 20.465-45.781 18.505-.842-.071-1.682-.155-2.525-.262 6.849-14.412 12.409-28.697 15.688-43.924l19.297 1.661c11.744 1.013 18.623 13.636 13.321 24.02z" fill="#f3c23b"/><path d="m370.229 179.253c-30.65 69.6-99.48 134.44-175.66 173.79l-31.79 1.41-9.88 17.24v.01c-29.14 11.05-58.53 18-86.56 19.76-7.38.47-14.04-4.49-15.61-11.72-1.73-7.95-2.88-16.02-3.42-24.19l17-22.29-9.54-38.25c5.21-16.45 13.12-32.81 23.99-48.73l42.79-29.87 108.22-75.53c18.65-4.7 36.69-6.49 53.89-5.73l22.87 19.38 36.53-5.51c7.48 3.31 14.68 7.17 21.54 11.54 6.25 3.96 8.61 11.92 5.63 18.69z" fill="#df8a57"/><path d="m194.569 353.043c-42.23 21.83-86.73 35.81-128.23 38.42-7.38.47-14.04-4.49-15.61-11.72-1.73-7.95-2.88-16.02-3.42-24.19l17-22.29-9.54-38.25c5.21-16.45 13.12-32.81 23.99-48.73l42.79-29.87c.98 40.67 12.74 105.36 73.02 136.63z" fill="#c76d33"/><path d="m229.769 140.883-14.79 35.36c-4.4 10.34-11.63 19.24-20.85 25.68l-45.86 32.02c-7.33 5.12-15.68 8.52-24.44 9.98-2.26.38-4.55.63-6.85.75l-38.22 1.61 27.42-17.11 15.57-30.05c31.63-27.18 70.6-48.82 108.02-58.24z" fill="#c76d33"/><path d="m123.829 243.923c-2.26.38-4.55.63-6.85.75l-38.22 1.61c11.34-16.61 26.12-32.68 42.99-47.16-.55 11.48-.45 27.33 2.08 44.8z" fill="#a05423"/><path d="m250.432 249.704c7.684 5.284 8.732 16.212 2.204 22.872-16.574 16.907-35.814 30.539-58.181 40.63-8.5 3.835-18.398-.911-20.713-9.945l-7.847-30.623c-1.907-7.441 2.151-15.039 9.327-17.779 10.057-3.839 22.189-12.301 29.266-20.434 5.041-5.793 13.57-6.985 19.897-2.634z" fill="#c76d33"/><path d="m93.075 299.033 13.603 28.543c4.013 8.419-.54 18.404-9.524 20.909-17.056 4.751-33.677 6.931-49.84 7.069-1.309-19.882 1.016-40.289 7.458-60.546 6.737-.466 13.419-1.467 19.757-3.637 7.257-2.495 15.245.734 18.546 7.662z" fill="#a05423"/><path d="m343.058 149.026c-5.863 15.628-13.827 30.488-23.793 44.351-5.446 7.572-16.388 8.407-22.91 1.741l-22.113-22.6c-5.367-5.485-5.648-14.096-.805-20.051 4.088-5.04 7.682-11.445 10.22-17.31 21.241.95 41.186 5.793 59.401 13.869z" fill="#c76d33"/><g><g><path d="m447.488 76.115c7.323 10.557 2.513 26.569-10.743 35.764-13.256 9.196-29.939 8.093-37.262-2.464s-2.513-26.569 10.743-35.765c13.256-9.195 29.939-8.092 37.262 2.465z" fill="#fff"/></g></g></g><g><path d="m501.802 32.43c-23.686-33.813-80.756-44.518-121.475-16.01-18.741 13.124-31.564 31.245-36.107 51.024-5.442 23.689-15.59 45.81-29.448 64.269-46.239-10.415-93.329-.814-135.161 19.995-3.177 1.58-5.004 5.175-4.107 8.608 1.253 4.798 6.448 6.986 10.631 4.901 10.3-5.133 20.593-9.379 30.83-12.779l-8.887 20.866c-3.854 9.059-10.163 16.829-18.243 22.471l-45.855 32.022c-8.081 5.643-17.548 8.889-27.382 9.389l-22.662 1.156c16.139-20.261 37.045-39.089 62.416-55.861 3.207-2.12 4.583-6.298 2.874-9.741-2.046-4.122-7.147-5.41-10.866-2.957-86.447 57.024-115.097 130.225-107.776 194.522-8.2 10.848-19.584 22.9-33.071 34.991-13.552 12.142-7.797 34.487 9.841 38.643 7.688 1.826 15.837 3.953 28.273 3.953 5.481 0 10.949-.471 16.348-1.379-4.975 14.328-11.822 28.314-17.201 38.354-8.046 15.05 2.957 33.102 19.815 33.102 1.855 0 2.743-.166 8.208-.807 40.214-4.743 73.022-33.137 83.583-72.338.867-3.222 1.604-6.417 2.238-9.57 20.384-1.94 42.462-7.967 64.8-17.429.178 6.302.287 12.624.31 18.895.058 17.057 18.247 27.782 33.183 19.734 15.88-8.576 29.669-18.972 41.208-31.015l.049 5.205c.045 17.018 18.214 27.813 33.183 19.75 51.672-27.895 79.275-74.173 82.971-129.059.241-3.574-1.893-7.012-5.338-7.99-4.776-1.356-9.303 2.036-9.61 6.707-2.38 36.217-17.349 85.94-75.144 117.139-4.964 2.675-11.047-.881-11.063-6.596-.027-7.153-.15-14.175-.352-21.094 16.982-2.045 30.865-9.87 41.269-21.975 9.204-10.712 9.479-26.828.054-37.965-6.419-7.586-16.132-11.386-25.982-10.165-10.684 1.327-15.874 2.088-20.567 2.391-.973-7.443-2.076-14.755-3.308-21.949 2.285-.149 4.512-.347 6.651-.609 20.294-2.467 33.416-13.284 40.859-21.934 13.478-15.725 6.602-40.116-12.856-46.768 13.326-17.1 22.867-32.494 29.464-44.646 11.341 20.029 23.812 47.901 29.588 80.759.531 3.621 3.651 6.398 7.42 6.398 4.661 0 8.19-4.214 7.388-8.797-6.993-39.978-23.275-72.92-36.418-94.364.872-1.933 1.479-3.246 2.014-5.434 19.187-10.411 40.473-19.315 63.373-26.448 46.611-14.492 90.635-75.842 60.038-119.565zm-222.539 124.76c3.262-4.022 6.302-8.834 9.059-14.328 15.561 1.156 30.647 4.569 45.054 10.206-5.299 12.568-12.079 24.631-20.2 35.929-2.726 3.791-8.181 4.226-11.46.875l-22.113-22.601c-2.659-2.716-2.808-7.046-.34-10.081zm-218.898 144.851c6.116-.697 11.689-1.895 16.601-3.577 3.692-1.267 7.704.364 9.338 3.795l13.603 28.543c2.009 4.214-.253 9.199-4.767 10.458-13.356 3.72-27.018 5.918-40.706 6.578-.336-15.507 1.675-30.833 5.931-45.797zm-34.113 122.595-5.444-1.293c-5.9-1.389-7.814-8.816-3.283-12.876 10.215-9.159 19.1-18.096 26.568-26.706 3.221 9.437 12.56 15.832 22.718 15.187 1.193-.075 2.491-.169 3.882-.284-.955 9.366-2.302 17.91-4.028 25.531-13.145 3.432-27.05 3.595-40.413.441zm53.961 7.354 12.849 1.106c6.461.557 10.166 7.497 7.286 13.137-2.23 4.367-14.409 13.088-30.142 14.443 5.028-11.744 8.013-20.889 10.007-28.686zm-9.168 64.274-5.544.651c-6.035.715-10.35-5.639-7.501-10.97 1.638-3.057 3.409-6.479 5.225-10.151 23.507 1.079 44.862-11.732 50.483-22.74 7.721-15.121-2.325-33.434-19.358-34.902l-11.024-.949c1.082-6.34 1.964-13.104 2.619-20.297 15.384-2.241 36.15-6.599 60.513-15.032.951 12.29 1.073 32.13-4.559 53.05-8.958 33.242-36.771 57.32-70.854 61.34zm89.984-119.776c20.315-7.978 42.661-18.74 66.162-33.266 3.523-2.178 4.614-6.8 2.437-10.323s-6.798-4.614-10.323-2.437c-71.291 44.063-131.053 52.103-153.443 53.515-3.661.234-7.032-2.271-7.805-5.83-1.115-5.125-1.964-10.243-2.568-15.348 14.694-.733 29.352-3.099 43.679-7.09 13.471-3.756 20.294-18.743 14.28-31.36l-13.603-28.542c-4.917-10.322-16.85-15.276-27.747-11.531-1.929.66-4.021 1.224-6.245 1.7 4.376-10.943 9.977-21.648 16.778-32.038l34.728-1.772c12.644-.642 24.818-4.816 35.207-12.071l45.855-32.022c10.389-7.255 18.5-17.247 23.457-28.895l13.613-31.963c12.107-2.804 24.087-4.386 35.852-4.725-1.207 1.913-2.449 3.671-3.724 5.244-7.276 8.947-6.733 21.856 1.263 30.028l22.113 22.6c9.802 10.02 26.215 8.72 34.361-2.608 8.712-12.12 15.994-25.065 21.71-38.558 4.589 2.329 9.101 4.887 13.519 7.701 3.071 1.946 4.266 5.958 2.781 9.332-9.899 22.479-40.969 80.635-115.498 135.014-3.346 2.441-4.079 7.133-1.638 10.479 2.445 3.351 7.138 4.076 10.48 1.638 10.728-7.828 20.59-15.74 29.655-23.627 3.394 16.501 6.05 33.636 7.97 51.575-42.751 34.688-91.76 57.63-133.383 62.617 1.635-15.521.944-28.936.077-37.437zm88.762 60.762c-5.008 2.699-11.043-.917-11.062-6.584-.03-8.497-.211-17.084-.521-25.591 19.629-9.599 39.209-21.732 57.776-35.962.71 9.062 1.246 18.328 1.609 27.818-12.123 16.163-28.19 29.728-47.802 40.319zm80.213-88.968c12.842-1.59 21.21 13.57 12.705 23.467-5.597 6.512-15.404 14.617-30.479 16.692-.634-12.961-1.583-25.533-2.87-37.74 5.051-.37 10.519-1.163 20.644-2.419zm10.409-66.761c-5.705 6.63-15.764 14.929-31.294 16.817-2.411.294-4.959.498-7.596.629-.735-3.657-1.512-7.279-2.318-10.877 10.829-10.236 20.342-20.333 28.673-30.045 12.874-1.438 20.893 13.725 12.535 23.476zm96.895-143.849c-21.816 6.794-42.277 15.136-60.957 24.84-1.769-3.274-4.367-6.149-7.723-8.276-12.228-7.789-25.058-13.884-38.425-18.281 13.352-19.118 23.186-41.428 28.636-65.155 3.765-16.389 14.17-30.946 30.092-42.095 32.375-22.664 78.446-15.601 98.75 9.875-2.121 7.16-9.541 11.679-17.171 9.786-4.021-.997-8.087 1.454-9.084 5.474-.997 4.021 1.454 8.088 5.474 9.085 10.066 2.496 21.193-.45 28.7-8.67 8.384 33.014-25.754 73.299-58.292 83.417z"/><path d="m254.681 243.525-26.048-17.912c-9.422-6.479-22.236-4.807-29.804 3.89-6.281 7.217-17.334 14.935-26.283 18.351-10.773 4.112-16.757 15.568-13.917 26.647l7.847 30.623c3.469 13.54 18.315 20.67 31.063 14.919 22.688-10.236 43.027-24.44 60.453-42.217 9.771-9.968 8.231-26.365-3.311-34.301zm-7.401 23.801c-16.116 16.441-34.927 29.577-55.91 39.044-4.262 1.923-9.202-.437-10.364-4.97l-7.847-30.623c-.945-3.688 1.091-7.519 4.736-8.91 11.156-4.259 24.417-13.518 32.249-22.517 2.555-2.936 6.849-3.538 9.99-1.378 26.256 18.055 26.048 18.012 26.048 17.912 3.852 2.649 4.373 8.1 1.098 11.442z"/><path d="m410.846 44.674c-9.72 6.742-12.132 20.065-5.388 29.787 2.369 3.414 7.044 4.241 10.438 1.887 3.403-2.361 4.249-7.034 1.888-10.437-.975-1.406-1.345-3.107-1.04-4.79 1.012-5.6 8.334-7.167 11.564-2.51 2.362 3.403 7.034 4.249 10.438 1.887 3.403-2.361 4.249-7.034 1.888-10.437-6.728-9.697-20.091-12.114-29.788-5.387z"/></g></g></svg>