<svg id="Capa_1" enable-background="new 0 0 511.865 511.865" height="512" viewBox="0 0 511.865 511.865" width="512" xmlns="http://www.w3.org/2000/svg"><g><g><path d="m504.35 143.389v41.021c-67.55 8.485-133.25 28.594-194.745 60.31h-102.03c-15.39 0-30.52 4.021-43.54 11.21l-29.04 77.33c5.19 25.25 22.497 50.444 60.57 79.311 9.258 7.019 10.398 20.729 2.5 29.25-19.954 4.528-37.249-2.687-53.755-15.489-75.637-58.666-89.677-107.097-89.677-107.097-28.091-96.9 45.459-226.299 160.774-221.936l12.443-16.319 8.455-2.421c3.917 2.498 7.843 3.533 9.75 5.45 5.73 5.76 14.913 6.25 21.38 1.37 2.497-1.884 4.89-3.93 7.17-6.15 16.39-15.939 41.78-20.149 63.25-9.159 34.322 17.541 41.687 58.095 85.56 63.38l27.98 3.47c5.15.63 10.24-1.56 13.4-5.77 4.314-5.753 10.99-9.106 18.36-8.841 3.062.11 14.041 2.681 18.98 12.61.827 1.662 1.955 4.527 2.215 8.47z" fill="#55d47b"/><path d="m236.305 78.559c-9.427 4.223-10.767 11.628-15.53 24.771-2.88 7.97-11.182 11.175-18.28 8.149-12.133-5.172-11.66-4.989-12.47-5.279-9.22-3.32-18.58-.601-22.19 11.26-2.94 9.67-14.22 13.69-22.56 8.22-11.74-5-25.1 1.79-28.26 14.38-3.92 15.601-8.94 28.74-19.2 45.87-76.72 127.931 57.914 257.24 100.25 255.891-5.16 5.569-13.23 7.66-20.61 4.909-59.931-22.336-235.79-112.439-143.89-265.689 9.76-16.28 14.53-28.771 18.25-43.59 3.01-11.971 15.7-18.42 26.86-13.67 7.93 5.199 18.653 1.381 21.45-7.811 3.433-11.279 12.32-13.859 21.09-10.71.77.28.32.101 11.85 5.021 6.06 2.58 13.06.29 16.53-5.41l6.23-10.26c5.68-9.37 17.64-12.381 26.93-6.79l10.81 6.51c5.26 3.17 11.94 2.3 16.26-2.11l8.1-8.28c4.98-5.102 11.96-6.871 18.38-5.382z" fill="#00c755"/><g><ellipse cx="301.132" cy="143.517" fill="#ffa1ac" rx="23.515" ry="30.118" transform="matrix(.002 -1 1 .002 157.007 444.359)"/></g><path d="m504.325 184.799c-.04 33.101-26.89 59.92-60 59.92h-134.72l8.39-34.21c4.87-15.14 19.08-26.1 35.84-26.1 162.093.001 150.529-.216 150.49.39z" fill="#fcec78"/><path d="m361.365 282.289h-43.94v-.18c-28.206 5.374-52.507-15.614-53.115-38.102-.528-19.536 16.846-39.435 41.235-41.459 10.08 4.14 18.16 12.13 22.42 22.15 3.16 7.439 10.28 12.41 18.37 12.41h14.49c12.25 0 22.686 9.519 23.12 21.76.456 12.861-9.83 23.421-22.58 23.421z" fill="#00c755"/><path d="m317.425 282.11v.18h-31.35v-.18c-21.84-1.971-38.79-20.891-37.59-43.5 1.494-27.954 30.493-46.976 57.06-36.061-14.41 5.93-24.84 19.811-25.7 36.061-1.21 22.609 15.74 41.529 37.58 43.5z" fill="#00a62c"/><path d="m240.895 312.41c0 12.47-10.11 22.58-22.59 22.58h-47.81v-.17c-29.434 3.715-52.755-19.281-51.863-41.65.741-18.579 18.188-36.76 41.913-38.65 10.98 3.87 19.834 12.233 24.36 22.891 3.156 7.431 10.28 12.41 18.37 12.41h15.03c12.505-.001 22.59 10.133 22.59 22.589z" fill="#00c755"/><path d="m170.495 334.82v.17h-27.48v-.17c-21.84-1.971-38.79-20.891-37.59-43.511 1.445-27.023 28.801-46.09 55.12-36.79-15.4 5.45-26.73 19.841-27.63 36.79-1.21 22.62 15.74 41.54 37.58 43.511z" fill="#00a62c"/></g><g><path d="m511.863 142.92c-.956-15.203-13.443-27.549-28.429-28.105-9.6-.342-18.815 4.066-24.641 11.832-1.536 2.047-4.014 3.131-6.479 2.824l-27.999-3.472c-40.348-4.853-46.729-44.027-83.042-62.611-23.965-12.265-52.86-8.056-71.903 10.47-2.024 1.97-4.194 3.83-6.452 5.532-3.545 2.672-8.508 2.383-11.544-.672-10.776-10.846-28.131-10.949-38.815-.025-12.971 13.263-9.488 12.605-25.938 2.701-12.742-7.67-29.436-3.49-37.212 9.32l-6.227 10.261c-1.528 2.516-4.545 3.524-7.174 2.405 0 0-11.452-4.888-12.253-5.176-13.555-4.865-26.337.908-30.803 15.576-1.337 4.392-6.404 6.194-10.173 3.728-.37-.241-.76-.45-1.166-.624-15.359-6.549-32.927 2.272-37.067 18.738-2.221 8.835-4.621 15.983-7.783 23.177-1.667 3.792.057 8.217 3.849 9.884 3.794 1.668 8.217-.055 9.884-3.849 3.512-7.992 6.164-15.874 8.598-25.556 1.811-7.207 9.249-11.4 16.151-8.791 12.06 7.292 27.88 1.379 32.057-12.338 3.465-11.385 11.932-5.619 22.821-.973 9.561 4.079 20.445.538 25.882-8.419l6.227-10.261c3.56-5.863 10.874-7.731 16.653-4.252l10.817 6.512c8.248 4.969 18.728 3.612 25.483-3.296l8.098-8.28c4.793-4.9 12.543-4.829 17.451.109 8.292 8.346 21.71 9.239 31.214 2.078 2.758-2.079 5.411-4.354 7.883-6.759 14.43-14.037 36.376-17.199 54.61-7.868 32.394 16.577 40.743 58.457 88.057 64.147l27.971 3.469c7.782.959 15.57-2.373 20.324-8.709 2.919-3.892 7.333-6.018 12.084-5.844 7.312.271 13.401 6.332 13.98 13.841v33.259h-105.373c-4.142 0-7.5 3.357-7.5 7.5s3.358 7.5 7.5 7.5h104.838c-3.517 25.557-25.497 45.317-51.995 45.317h-63.279c-18.527-16.113-39.208.974-46.183-15.455-2.037-4.797-4.798-9.145-8.115-12.946 4.992-10.264 15.395-16.916 27.087-16.916h7.529c4.142 0 7.5-3.357 7.5-7.5s-3.358-7.5-7.5-7.5h-7.529c-16.244 0-30.839 8.572-38.833 22.089-31.716-19.054-71.302 2.844-73.931 38.229h-33.496c-15.272 0-30.401 3.615-43.988 10.471-31.337-11.537-63.956 11.414-65.652 43.222-1.151 21.586 11.648 40.581 30.704 48.118 6.982 27.235 26.924 52.621 62.389 79.514 4.646 3.522 6.13 9.94 3.528 15.262-2.662 5.445-8.893 7.977-14.488 5.892-12.777-4.764-125.734-48.911-157.066-131.124-13.543-35.535-9.826-73.602 11.046-113.141 1.934-3.663.532-8.2-3.131-10.134-3.662-1.93-8.201-.531-10.134 3.132-45.372 85.948-13.562 161.552 67.177 219.096 36.753 26.194 72.993 41.053 86.868 46.226 12.902 4.81 27.155-.988 33.203-13.357 5.743-11.743 2.404-25.96-7.939-33.804-29.325-22.235-46.986-42.871-54.697-64.101h72.91c16.591 0 30.088-13.497 30.088-30.088s-13.498-30.089-30.088-30.089h-15.036c-4.942 0-9.443-3.078-11.466-7.843-2.864-6.745-7.156-12.599-12.418-17.295 9.002-3.261 18.561-4.956 28.189-4.956h34.659c4.585 19.457 20.758 34.582 41.429 37.17 1.811.613.093.395 77.701.395 19.793 0 34.101-18.786 29.11-37.564h53.851c37.174 0 67.455-30.243 67.5-67.418.001-.001.047-41.725.037-41.885zm-308.591 154.396h15.036c8.32 0 15.088 6.769 15.088 15.089 0 8.319-6.769 15.088-15.088 15.088-76.855 0-74.265.53-80.737-1.27-.322-.118-.651-.218-.988-.291-14.512-4.517-24.512-18.359-23.667-34.219.908-17.031 14.96-31.085 31.992-31.993 14.221-.757 27.532 7.524 33.091 20.616 4.381 10.315 14.301 16.98 25.273 16.98zm158.095-22.529c-74.559 0-72.289.063-74.621-.147-18.232-1.644-31.748-17.295-30.771-35.633.908-17.031 14.96-31.084 31.991-31.992 14.243-.753 27.533 7.525 33.092 20.615 4.379 10.315 14.299 16.98 25.272 16.98h14.494c8.328 0 15.335 6.519 15.621 14.531.307 8.616-6.569 15.646-15.078 15.646z"/><path d="m323.69 125.274v-12c0-4.143-3.358-7.5-7.5-7.5s-7.5 3.357-7.5 7.5v12c0 4.143 3.358 7.5 7.5 7.5s7.5-3.358 7.5-7.5z"/><path d="m90.317 206.964c3.608 0 6.79-2.612 7.392-6.289.787-4.806 2.488-8.378 5.058-10.619 5.711-4.98 15.219-1.435 27.82-6.159 9.788-3.668 13.382-10.327 16.007-15.19 2.191-4.059 3.396-6.073 6.819-7.491 3.523-1.459 5.482-.967 9.386.018 4.548 1.146 10.778 2.715 19.801.299 15.871-4.251 20.617-15.165 27.81-14.812 3.258.159 6.683 1.976 10.18 5.398 2.96 2.896 7.709 2.847 10.606-.114s2.846-7.709-.114-10.606c-6.198-6.065-12.906-9.315-19.938-9.66-15.247-.753-19.415 11.821-32.425 15.305-5.259 1.41-8.347.631-12.256-.354-4.758-1.198-10.68-2.689-18.792.671-8.501 3.521-11.84 9.707-14.278 14.224-2.213 4.1-3.549 6.575-8.072 8.271-10.253 3.843-21.755-.397-32.415 8.899-5.271 4.597-8.635 11.157-10.001 19.5-.745 4.556 2.771 8.709 7.412 8.709z"/></g></g></svg>