<svg id="Capa_1" enable-background="new 0 0 512 512" height="512" viewBox="0 0 512 512" width="512" xmlns="http://www.w3.org/2000/svg"><g><g><g clip-rule="evenodd" fill-rule="evenodd"><path d="m73.39 332.962c-.312 22.192 17.254 40.35 38.993 40.35 7.975 0 15.39-2.445 21.567-6.638 23.985 18.432 57.146 13.804 76.071-9.686 12.868 11.283 28.992 17.547 45.98 17.547 17.461 0 33.477-6.584 45.979-17.547 10.382 12.886 25.786 21.052 42.983 21.052 12.354 0 23.782-4.215 33.088-11.367 6.177 4.193 13.592 6.638 21.567 6.638 21.74 0 39.305-18.159 38.993-40.35 24.158-11.906 33.937-41.912 23.757-66.646 26.295-11.162 42.132-38.008 42.132-66.176 0-31.101-19.419-60.449-49.994-68.923 9.156-32.969-24.216-64.312-54.418-46.1-8.562-42.639-52.346-68.409-91.623-50.58-12.251-16.469-31.198-27.036-52.464-27.036s-40.213 10.567-52.466 27.037c-39.276-17.829-83.061 7.942-91.623 50.58-29.725-17.925-63.736 12.547-54.418 46.1-30.729 8.516-49.994 37.91-49.994 69.132.081 29.929 17.504 55.512 42.132 65.967-10.179 24.734-.4 54.74 23.758 66.646z" fill="#7bdaa9"/><path d="m228.409 368.738-2.409 105.762c-.375 16.495-13.5 30-30 30h120c-16.5 0-29.625-13.504-30-30l-2.409-105.762c-8.503 3.736-17.82 5.798-27.591 5.798-9.618-.001-18.96-2.009-27.591-5.798z" fill="#d1a184"/><path d="m228.409 368.738-2.409 105.762c-.437 16.493-13.5 30-30 30h22.5c16.5 0 29.558-13.507 30-30l2.079-77.626c1.799.107 3.607.161 5.422.161 9.682 0 19.147-1.533 28.134-4.456l-.543-23.842c-8.503 3.736-17.82 5.798-27.591 5.798-9.619 0-18.961-2.008-27.592-5.797z" fill="#c97e67"/><path d="m73.391 334.125c.306 21.659 17.633 39.187 38.992 39.187 7.975 0 15.39-2.445 21.567-6.638 23.985 18.432 57.146 13.804 76.071-9.686 12.868 11.283 28.992 17.547 45.98 17.547s33.112-6.264 45.98-17.547c18.925 23.49 52.086 28.118 76.071 9.686 6.178 4.193 13.592 6.638 21.567 6.638 21.358 0 38.686-17.528 38.992-39.187-18.795 23.668-34.934 22.749-61.376 4.801l-12.893 9.908c-14.345 11.023-33.638 7.943-44.84-5.961l-14.717-18.267c-14.863 13.033-27.293 27.43-48.784 27.43s-33.921-14.397-48.784-27.43l-14.717 18.267c-11.202 13.904-30.496 16.984-44.84 5.961l-12.893-9.908c-26.442 17.949-42.581 18.868-61.376-4.801z" fill="#39c17b"/></g><g><path d="m368.5 92.271h-15v-15h15zm-30-15h-15v-15h15z" fill="#fff"/></g></g><g><path d="m56.568 269.17 2.823-6.859-6.828-2.899c-22.818-9.686-37.563-32.951-37.563-59.271 0-29.064 18.298-54.435 44.497-61.695l7.231-2.004-2.008-7.23c-3.758-13.533.89-27.651 11.842-35.97 9.505-7.217 21.271-7.854 31.476-1.7l9.128 5.504 2.099-10.45c3.88-19.324 15.804-35.374 32.715-44.033 15.481-7.928 32.689-8.35 48.454-1.194l5.507 2.5 3.61-4.853c11.355-15.263 28.284-24.016 46.45-24.016s35.095 8.753 46.448 24.014l3.61 4.853 5.508-2.5c15.765-7.157 32.973-6.733 48.454 1.194 16.91 8.659 28.834 24.709 32.715 44.033l2.099 10.45 9.128-5.504c10.362-6.25 21.777-5.674 31.32 1.573 9.052 6.874 16.272 20.702 11.997 36.097l-2.008 7.23 7.231 2.004c19.523 5.41 35.012 20.899 41.43 41.432l14.316-4.475c-7.212-23.073-23.817-41.04-45.113-49.226 2.103-17.094-4.966-34.517-18.781-45.009-11.813-8.971-25.967-11.236-39.287-6.637-6.376-19.745-19.944-35.968-38.211-45.321-17.587-9.006-37.703-10.277-56.036-3.713-14.08-16.272-33.761-25.495-54.82-25.495s-40.74 9.223-54.821 25.496c-18.33-6.565-38.448-5.293-56.036 3.713-18.28 9.36-31.855 25.601-38.225 45.366-13.289-4.473-27.732-2.162-39.427 6.72-13.971 10.61-20.883 27.67-18.651 44.894-29.078 11.22-48.84 40.65-48.84 73.951 0 29.882 15.639 56.636 40.382 70.036-2.564 9.153-2.95 18.826-1.09 28.349l14.722-2.875c-1.757-8.997-.874-18.153 2.553-26.48z"/><path d="m511.597 191.904-14.928 1.469c.44 4.482.44 9.036-.002 13.532l14.928 1.469c.538-5.471.539-11.012.002-16.47z"/><path d="m459.438 259.411-6.828 2.898 2.823 6.86c8.894 21.61-.14 47.209-20.137 57.064l-4.25 2.095.066 4.738c.124 8.857-3.194 17.171-9.345 23.408-5.938 6.021-13.804 9.337-22.149 9.337-6.203 0-12.205-1.848-17.355-5.344l-4.484-3.045-4.298 3.303c-8.354 6.421-18.215 9.814-28.517 9.814-14.257 0-27.795-6.655-37.143-18.258l-4.906-6.09-5.88 5.156c-11.535 10.115-26.108 15.686-41.035 15.686s-29.5-5.57-41.035-15.686l-5.879-5.156-4.906 6.09c-9.348 11.603-22.886 18.258-37.143 18.258-10.302 0-20.163-3.394-28.517-9.814l-4.298-3.303-4.485 3.045c-5.15 3.496-11.152 5.344-17.355 5.344-8.346 0-16.212-3.316-22.15-9.337-6.15-6.237-9.468-14.551-9.344-23.408l.066-4.738-4.25-2.095c-7.926-3.905-14.322-10.276-18.499-18.423l-13.349 6.842c4.938 9.634 12.209 17.454 21.186 22.839.897 11.152 5.603 21.497 13.509 29.515 8.778 8.903 20.438 13.806 32.831 13.806 7.441 0 14.684-1.787 21.221-5.205 6.068 3.935 12.654 6.732 19.545 8.337l2.495 9.67c3.402 13.192 10.078 17.192 21.205 19.958l11.694 2.908c3.386 9.513 12.463 13.701 19.364 16.886l11.409 5.266-.813 35.697c-.289 12.713-10.173 22.671-22.501 22.671v15h120v-15c-12.328 0-22.212-9.958-22.502-22.671l-.813-35.697 11.409-5.266c6.901-3.185 15.979-7.374 19.364-16.887l11.694-2.907c11.127-2.766 17.803-6.766 21.206-19.958l2.494-9.67c6.891-1.605 13.477-4.402 19.545-8.337 6.537 3.418 13.779 5.205 21.221 5.205 12.393 0 24.052-4.902 32.831-13.806 7.905-8.018 12.611-18.362 13.509-29.516 11.35-6.814 19.963-17.524 24.494-30.583 4.148-11.958 4.522-24.766 1.165-36.736 17.302-9.395 30.468-25.568 36.632-45.295l-14.316-4.475c-5.581 17.856-18.153 32.074-34.496 39.01zm-278.971 139.605c-7.31-1.817-8.607-2.587-10.299-9.147l-1.129-4.377c5.246-.172 10.399-1.014 15.36-2.487l1.828 17.444zm33.725 20.731c-8.423-3.888-11.492-6.017-11.933-10.221l-3.447-32.889c4.321-2.608 8.366-5.754 12.044-9.396 3.177 2.302 6.504 4.345 9.945 6.131l-1.114 48.911zm11.712 77.253c4.611-6.188 7.403-13.89 7.595-22.329l2.173-95.434c6.596 1.839 13.428 2.799 20.329 2.799 6.9 0 13.732-.96 20.328-2.798l2.173 95.434c.192 8.439 2.984 16.142 7.596 22.329h-60.194zm71.905-77.253-5.496 2.536-1.114-48.911c3.441-1.786 6.768-3.829 9.945-6.131 3.678 3.643 7.723 6.788 12.044 9.396l-3.447 32.889c-.44 4.204-3.509 6.333-11.932 10.221zm33.725-20.731-5.759 1.432 1.828-17.444c4.961 1.474 10.113 2.315 15.36 2.488l-1.129 4.377c-1.681 6.517-3.098 7.356-10.3 9.147z"/></g></g></svg>