<svg id="Layer_1" enable-background="new 0 0 511 511" height="512" viewBox="0 0 511 511" width="512" xmlns="http://www.w3.org/2000/svg"><g><path d="m191.5 486.402c8.837 0 16-7.163 16-16v-304h96v304c0 8.837 7.163 16 16 16" fill="#b89458"/><path d="m303.5 470.402v-304h-16v304c0 8.837 7.163 16 16 16h16c-8.837 0-16-7.164-16-16z" fill="#a0804c"/><path d="m244.186 141.833v-16.804c0-24.218-9.62-47.444-26.745-64.568-17.125-17.125-40.351-26.745-64.568-26.745h-16.804c-8.487 0-16.626-3.371-22.627-9.373l142.058 142.059-1.941-1.941c-6.001-6.002-9.373-14.141-9.373-22.628z" fill="#d7fc7e"/><g fill="#55e072"><path d="m255.5 166.399-1.941-1.941z"/><path d="m113.441 24.343 140.113 140.113c-5.996-5.996-9.369-14.135-9.369-22.62l.007-9.553-98.571-98.571-9.553.007c-8.492-.007-16.624-3.373-22.627-9.376z"/></g><path d="m388.186 285.833v-16.804c0-24.218-9.62-47.444-26.745-64.568-17.125-17.125-40.351-26.745-64.569-26.745h-16.804c-8.487 0-16.626-3.371-22.627-9.373l142.059 142.059-1.941-1.941c-6.001-6.002-9.373-14.141-9.373-22.628z" fill="#d7fc7e"/><g fill="#55e072"><path d="m399.5 310.402-1.941-1.942z"/><path d="m257.441 168.345 140.113 140.113c-5.996-5.996-9.369-14.135-9.369-22.62l.007-9.553-98.571-98.571-9.553.007c-8.492-.006-16.624-3.372-22.627-9.376z"/></g><g fill="#d7fc7e"><path d="m255.5 166.402 1.941-1.942z"/><path d="m374.931 33.715h-16.804c-24.218 0-47.444 9.621-64.569 26.745-17.125 17.125-26.745 40.351-26.745 64.568v16.804c0 8.487-3.371 16.626-9.373 22.627l140.119-140.116c-6.001 6.001-14.141 9.372-22.628 9.372z"/></g><g fill="#55e072"><path d="m255.5 166.399 1.941-1.941z"/><path d="m397.559 24.343-140.113 140.113c5.996-5.996 9.369-14.135 9.369-22.62l-.007-9.553 98.571-98.571 9.553.007c8.492-.007 16.623-3.373 22.627-9.376z"/></g><path d="m214.127 177.715c-24.218 0-47.444 9.621-64.568 26.745-17.125 17.125-26.745 40.351-26.745 64.568v16.804c0 8.487-3.371 16.626-9.373 22.627l-1.941 1.941 142.059-142.059c-6.001 6.001-14.141 9.373-22.627 9.373h-16.805z" fill="#d7fc7e"/><g fill="#55e072"><path d="m253.559 168.342-1.941 1.942z"/><path d="m111.503 310.402 140.113-140.113c-5.996 5.996-14.135 9.369-22.62 9.369l-9.553-.007-98.571 98.571.007 9.553c-.007 8.492-3.373 16.623-9.376 22.627z"/></g><circle cx="215.5" cy="206.402" fill="#ffe477" r="24"/><path d="m215.5 182.402c-2.806 0-5.497.486-8 1.371 9.32 3.295 16 12.18 16 22.629s-6.68 19.334-16 22.629c2.503.885 5.194 1.371 8 1.371 13.255 0 24-10.745 24-24s-10.745-24-24-24z" fill="#ffb655"/><circle cx="295.5" cy="206.402" fill="#ffe477" r="24"/><path d="m295.5 182.402c-2.806 0-5.497.486-8 1.371 9.32 3.295 16 12.18 16 22.629s-6.68 19.334-16 22.629c2.503.885 5.194 1.371 8 1.371 13.255 0 24-10.745 24-24s-10.745-24-24-24z" fill="#ffb655"/><circle cx="231.5" cy="230.402" fill="#ffe477" r="24"/><path d="m231.5 206.402c-2.806 0-5.497.486-8 1.371 9.32 3.295 16 12.18 16 22.629s-6.68 19.334-16 22.629c2.503.885 5.194 1.371 8 1.371 13.255 0 24-10.745 24-24s-10.745-24-24-24z" fill="#ffb655"/><circle cx="279.5" cy="230.402" fill="#ffe477" r="24"/><path d="m279.5 206.402c-2.806 0-5.497.486-8 1.371 9.32 3.295 16 12.18 16 22.629s-6.68 19.334-16 22.629c2.503.885 5.194 1.371 8 1.371 13.255 0 24-10.745 24-24s-10.745-24-24-24z" fill="#ffb655"/><path d="m219.784 146.686c-18.11-18.11-42.673-28.284-68.284-28.284-25.612 0-50.174 10.174-68.284 28.284l-10.343 10.343c-6.001 6.001-14.14 9.373-22.627 9.373h202.51c-8.487 0-16.626-3.371-22.627-9.373z" fill="#d7fc7e"/><path d="m252.75 166.402h-202.5c8.48 0 16.62-3.37 22.62-9.37l6.63-6.63h144l6.63 6.63c6 6 14.14 9.37 22.62 9.37z" fill="#55e072"/><path d="m427.784 146.686c-18.11-18.11-42.673-28.284-68.284-28.284-25.612 0-50.174 10.174-68.284 28.284l-10.343 10.343c-6.001 6.001-14.14 9.373-22.627 9.373h202.51c-8.487 0-16.626-3.371-22.627-9.373z" fill="#d7fc7e"/><path d="m460.75 166.402h-202.5c8.48 0 16.62-3.37 22.62-9.37l6.63-6.63h144l6.63 6.63c6 6 14.14 9.37 22.62 9.37z" fill="#55e072"/><circle cx="255.5" cy="198.402" fill="#ffe477" r="24"/><path d="m255.5 174.402c-2.806 0-5.497.486-8 1.371 9.32 3.295 16 12.18 16 22.629s-6.68 19.334-16 22.629c2.503.885 5.194 1.371 8 1.371 13.255 0 24-10.745 24-24s-10.745-24-24-24z" fill="#ffb655"/><g><path d="m231.5 286.902h16v15h-16z" fill="#fff"/></g><g><path d="m263.5 350.902h16v15h-16z" fill="#fff"/></g><g><path d="m231.5 414.902h16v15h-16z" fill="#fff"/></g><path d="m375.5 334.402v1.645c0 9.12 2.597 18.045 7.488 25.743 9.457 14.887 24.512 36.612 24.512 52.612 0 17.673-14.327 32-32 32s-32-14.327-32-32c0-16 15.055-37.725 24.512-52.612 4.89-7.698 7.488-16.623 7.488-25.743z" fill="#ffe477"/><path d="m382.988 361.789c-4.89-7.698-7.488-16.623-7.488-25.743 0 9.12-2.597 18.045-7.488 25.743-.168.264-.341.535-.512.803 9.478 14.858 24 36.093 24 51.809 0 14.911-10.198 27.44-24 30.992 2.557.658 5.238 1.008 8 1.008 17.673 0 32-14.327 32-32 0-15.999-15.055-37.724-24.512-52.612z" fill="#ffb655"/><path d="m471.5 198.402v1.645c0 9.12 2.597 18.045 7.488 25.743 9.457 14.887 24.512 36.612 24.512 52.612 0 17.673-14.327 32-32 32s-32-14.327-32-32c0-16 15.055-37.725 24.512-52.612 4.89-7.698 7.488-16.623 7.488-25.743z" fill="#ffe477"/><path d="m478.988 225.789c-4.89-7.698-7.488-16.623-7.488-25.743 0 9.12-2.597 18.045-7.488 25.743-.168.264-.341.535-.512.803 9.478 14.858 24 36.093 24 51.809 0 14.911-10.198 27.44-24 30.992 2.557.658 5.238 1.008 8 1.008 17.673 0 32-14.327 32-32 0-15.999-15.055-37.724-24.512-52.612z" fill="#ffb655"/><path d="m39.5 238.402v1.645c0 9.12 2.597 18.045 7.488 25.743 9.457 14.887 24.512 36.612 24.512 52.612 0 17.673-14.327 32-32 32s-32-14.327-32-32c0-16 15.055-37.725 24.512-52.612 4.89-7.698 7.488-16.623 7.488-25.743z" fill="#ffe477"/><path d="m46.988 265.789c-4.89-7.698-7.488-16.623-7.488-25.743 0 9.12-2.597 18.045-7.488 25.743-.168.264-.341.535-.512.803 9.478 14.858 24 36.093 24 51.809 0 14.911-10.198 27.44-24 30.992 2.557.658 5.238 1.008 8 1.008 17.673 0 32-14.327 32-32 0-15.999-15.055-37.724-24.512-52.612z" fill="#ffb655"/><g><path d="m311 470.402v-200h-15v16.5h-32.5v15h32.5v113h-32.5v15h32.5v40.5c0 2.996.564 5.863 1.591 8.5h-84.181c1.027-2.637 1.591-5.504 1.591-8.5v-104.5h32.5v-15h-32.501v-80.5h-15v200c0 4.687-3.813 8.5-8.5 8.5h-8v15h144v-15h-8c-4.687 0-8.5-3.813-8.5-8.5z"/><path d="m178.197 233.098-47.883 47.883v-11.953c0-22.388 8.718-43.435 24.549-59.265 9.789-9.789 21.573-16.859 34.436-20.829-3.345 5.002-5.298 11.01-5.298 17.467 0 11.548 6.335 22.052 16.198 27.539 1.764 15.709 15.129 27.961 31.302 27.961 9.604 0 18.218-4.321 24-11.12 5.782 6.799 14.396 11.12 24 11.12 16.173 0 29.538-12.251 31.302-27.961 9.862-5.487 16.197-15.99 16.197-27.538 0-6.456-1.953-12.465-5.298-17.467 12.862 3.97 24.647 11.04 34.436 20.829 15.831 15.83 24.549 36.877 24.549 59.265v11.953l-47.883-47.883-10.606 10.606 72 72 10.606-10.606-1.941-1.941c-4.627-4.627-7.176-10.78-7.176-17.324v-16.804c0-26.394-10.279-51.208-28.942-69.872-12.14-12.14-26.883-20.732-42.97-25.256h139.725v-15h-2.745c-6.544 0-12.697-2.548-17.324-7.176l-10.343-10.343c-19.656-19.656-45.79-30.481-73.587-30.481-18.334 0-35.943 4.709-51.448 13.555l96.751-96.751-10.606-10.606-1.941 1.941c-4.627 4.627-10.78 7.176-17.324 7.176h-16.804c-26.394 0-51.208 10.279-69.872 28.942s-28.942 43.478-28.942 69.872v16.804c0 4.728-1.33 9.251-3.813 13.143-2.483-3.892-3.813-8.415-3.813-13.143v-16.804c0-26.394-10.279-51.208-28.942-69.872s-43.478-28.942-69.872-28.942h-16.804c-6.544 0-12.697-2.548-17.324-7.176l-1.941-1.941-10.606 10.606 96.751 96.751c-15.505-8.845-33.115-13.555-51.448-13.555-27.798 0-53.932 10.825-73.587 30.481l-10.343 10.343c-4.627 4.627-10.78 7.176-17.324 7.176h-2.749v15h139.726c-16.087 4.523-30.83 13.116-42.97 25.256-18.664 18.663-28.942 43.478-28.942 69.872v16.804c0 6.544-2.548 12.697-7.176 17.324l-1.941 1.941 10.606 10.606 72-72zm77.303-18.196c-9.098 0-16.5-7.402-16.5-16.5s7.402-16.5 16.5-16.5 16.5 7.402 16.5 16.5-7.402 16.5-16.5 16.5zm-40-25c3.235 0 6.373.956 9.036 2.697-.352 1.881-.536 3.821-.536 5.803 0 .467.011.932.031 1.395-9.355 2.283-17.087 8.756-21.086 17.309-2.487-2.924-3.946-6.693-3.946-10.704.001-9.099 7.403-16.5 16.501-16.5zm16 57c-9.098 0-16.5-7.402-16.5-16.5 0-7.992 5.712-14.675 13.268-16.182 4.238 7.268 11.301 12.695 19.673 14.765.04.469.06.942.06 1.417-.001 9.098-7.403 16.5-16.501 16.5zm48 0c-9.098 0-16.5-7.402-16.5-16.5 0-.475.02-.948.06-1.417 8.372-2.07 15.435-7.497 19.672-14.765 7.556 1.507 13.268 8.19 13.268 16.182 0 9.098-7.402 16.5-16.5 16.5zm28.554-29.797c-3.999-8.553-11.73-15.026-21.086-17.309.02-.462.031-.927.031-1.395 0-1.982-.185-3.922-.536-5.803 2.663-1.742 5.801-2.697 9.036-2.697 9.098 0 16.5 7.402 16.5 16.5.001 4.011-1.457 7.781-3.945 10.704zm114.427-65.116 6.913 6.913h-139.788l6.913-6.913c16.823-16.823 39.19-26.087 62.981-26.087s46.158 9.264 62.981 26.087zm-123.619-86.225c15.83-15.831 36.877-24.549 59.265-24.549h11.953l-95.767 95.767v-11.953c0-22.388 8.719-43.435 24.549-59.265zm-145.989-24.549c22.388 0 43.435 8.718 59.265 24.549 15.831 15.83 24.549 36.877 24.549 59.265v11.953l-95.767-95.767zm-64.354 110.774c16.823-16.823 39.19-26.087 62.981-26.087s46.158 9.265 62.981 26.087l6.913 6.913h-139.788z"/><path d="m389.318 357.768c-4.133-6.507-6.318-14.019-6.318-21.722v-1.645h-15v1.645c0 7.703-2.185 15.214-6.318 21.722-.896 1.412-1.844 2.885-2.824 4.409-10.184 15.839-22.858 35.55-22.858 52.225 0 21.78 17.72 39.5 39.5 39.5s39.5-17.72 39.5-39.5c0-16.674-12.674-36.386-22.857-52.225-.98-1.524-1.928-2.998-2.825-4.409zm-13.818 81.134c-13.509 0-24.5-10.991-24.5-24.5 0-12.268 11.834-30.673 20.475-44.112.996-1.548 1.958-3.045 2.868-4.479.399-.628.785-1.263 1.157-1.904.372.641.758 1.276 1.157 1.904.911 1.434 1.873 2.93 2.868 4.479 8.641 13.438 20.475 31.844 20.475 44.112 0 13.509-10.991 24.5-24.5 24.5z"/><path d="m488.143 226.177c-.98-1.524-1.928-2.998-2.824-4.409-4.133-6.507-6.318-14.019-6.318-21.722v-1.645h-15v1.645c0 7.703-2.185 15.214-6.318 21.722-.896 1.412-1.844 2.885-2.824 4.409-10.185 15.839-22.859 35.55-22.859 52.225 0 21.78 17.72 39.5 39.5 39.5s39.5-17.72 39.5-39.5c0-16.675-12.674-36.386-22.857-52.225zm-16.643 76.725c-13.509 0-24.5-10.991-24.5-24.5 0-12.268 11.834-30.673 20.475-44.112.996-1.548 1.958-3.045 2.868-4.479.399-.628.785-1.263 1.157-1.904.372.641.758 1.276 1.157 1.904.911 1.434 1.873 2.93 2.868 4.479 8.641 13.438 20.475 31.844 20.475 44.112 0 13.509-10.991 24.5-24.5 24.5z"/><path d="m53.318 261.768c-4.133-6.508-6.318-14.019-6.318-21.722v-1.645h-15v1.645c0 7.703-2.185 15.214-6.318 21.722-.896 1.412-1.844 2.885-2.824 4.409-10.184 15.839-22.858 35.55-22.858 52.225 0 21.78 17.72 39.5 39.5 39.5s39.5-17.72 39.5-39.5c0-16.674-12.674-36.386-22.857-52.225-.98-1.524-1.928-2.998-2.825-4.409zm-13.818 81.134c-13.509 0-24.5-10.991-24.5-24.5 0-12.268 11.834-30.673 20.475-44.112.996-1.548 1.958-3.045 2.868-4.479.399-.628.785-1.263 1.157-1.904.372.641.758 1.276 1.157 1.904.911 1.434 1.873 2.93 2.868 4.479 8.641 13.438 20.475 31.844 20.475 44.112 0 13.509-10.991 24.5-24.5 24.5z"/></g></g></svg>