<svg id="Capa_1" enable-background="new 0 0 512.009 512.009" height="512" viewBox="0 0 512.009 512.009" width="512" xmlns="http://www.w3.org/2000/svg"><g><g><g clip-rule="evenodd" fill-rule="evenodd"><path d="m222.851 504.509h67.5l-5.495-102.681-8.635-161.348c-7.568-2.313-15.262-4.253-23.083-5.715-5.59 1.067-11 2.372-16.253 3.875z" fill="#8edf78"/><path d="m277.534 265.01-1.313-24.53c-7.568-2.313-15.262-4.253-23.083-5.715-5.59 1.067-11 2.372-16.253 3.875l-14.034 265.869h22.5l12.962-245.562c6.428 1.64 12.852 3.704 19.221 6.063z" fill="#6ad34d"/><path d="m57.337 310.663c70.928 1.659 123.942-62.186 195.802-75.898-12.67-8.575-26.452-15.342-40.685-21.179-67.625-10.152-151.549 7.453-155.117 97.077z" fill="#8edf78"/><path d="m223.466 243.347c9.58-3.655 19.435-6.629 29.673-8.582-12.67-8.575-26.452-15.342-40.685-21.179-21.583-3.24-44.824-3.645-66.586.208 19.489 6.779 39.369 12.948 58.049 20.609 6.618 2.714 13.175 5.658 19.549 8.944z" fill="#6ad34d"/><path d="m57.337 122.134c25.929 58.636 94.596 66.633 155.117 91.452 14.233 5.837 28.015 12.604 40.684 21.179-11.387-19.254-20.786-39.756-26.891-61.306-41.072-57.864-117.985-98.528-168.91-51.325z" fill="#8edf78"/><path d="m217.935 215.891c12.287 5.306 24.168 11.404 35.204 18.873-11.387-19.254-20.786-39.756-26.891-61.306-8.392-11.823-18.281-22.926-29.138-32.71 2.496 25.025 9.451 50.031 20.825 75.143z" fill="#6ad34d"/><path d="m250.663 8.893c-44.227 77.672-42.172 150.379 2.475 225.872 22.842-20.418 38.562-62.255 45.074-92.291 12.203-56.28 4.882-117.915-47.549-133.581z" fill="#8edf78"/><path d="m448.941 122.133c-45.168-41.866-107.811-26.732-150.728 20.34-6.512 30.036-22.232 71.873-45.074 92.291 14.251-9.645 29.442-18.673 44.931-27.258 56.836-31.502 117.688-57.055 150.871-85.373z" fill="#8edf78"/><path d="m324.6 119.248c-9.339 6.472-18.221 14.268-26.387 23.225-6.512 30.036-22.232 71.873-45.074 92.291 14.251-9.645 29.442-18.673 44.931-27.258.64-.355 1.28-.708 1.921-1.06 9.46-19.569 16.235-40.87 20.211-59.205 1.953-9.007 3.464-18.423 4.398-27.993z" fill="#6ad34d"/><path d="m455.865 319.719c-3.568-89.625-98.693-131.298-157.795-112.212-15.489 8.585-30.68 17.613-44.931 27.258 71.798 13.426 146.876 80.62 202.726 84.954z" fill="#8edf78"/><path d="m350.962 205.025c-18.581-3.38-37.034-2.64-52.892 2.481-15.489 8.585-30.68 17.613-44.931 27.258 9.636 1.802 19.332 4.579 29.032 8.036 8.803-5.432 17.77-10.606 26.807-15.615 13.848-7.675 27.895-14.958 41.984-22.16z" fill="#6ad34d"/><path d="m250.663 8.893c-44.227 77.672-42.172 150.379 2.475 225.872 4.919-4.397 9.507-9.789 13.745-15.842-34.582-67.223-34.87-132.652 1.781-201.834-5.295-3.415-11.274-6.186-18.001-8.196z" fill="#6ad34d"/></g><g><path d="m255.686 62.755h15v15h-15z" fill="#fff" transform="matrix(.061 -.998 .998 .061 176.99 328.66)"/></g></g><g><path d="m463.36 319.42c-1.592-39.984-20.862-74.841-54.26-98.15-21.832-15.236-47.842-24.079-72.809-25.587 6.764-3.484 13.524-6.927 20.239-10.345 38.105-19.396 74.099-37.716 97.278-57.498l6.414-5.474-6.184-5.732c-19.808-18.36-44.002-27.496-69.935-26.396-25.506 1.073-51.853 12.228-74.722 31.214 2.317-19.684 1.992-39.258-1.924-56.81-7.289-32.667-26.187-54.429-54.649-62.934l-5.712-1.708-2.951 5.183c-20.121 35.337-30.844 69.035-32.782 103.02-.704 12.351-.206 24.795 1.471 37.302-15.608-16.274-33.518-29.632-52.196-38.733l-6.57 13.484c23.697 11.547 46.981 31.559 64.305 55.147-29.206-19.838-64.833-36.679-102.75-48.376l-4.422 14.334c44.839 13.831 86.222 35.04 116.778 59.809 1.907 4.664 3.978 9.331 6.205 13.999-19.943-9.922-41.234-17.08-62.027-24.054-44.102-14.789-85.858-28.794-105.588-67.053 25.357-20.388 54.229-16.492 74.455-9.302l5.023-14.134c-35.674-12.682-68.99-6.996-93.809 16.007l-3.925 3.639 2.165 4.896c20.701 46.814 67.317 63.509 113.147 78.906-5.979.429-11.824 1.107-17.476 2.054-24.433 4.093-44.802 12.768-60.542 25.785-22.396 18.522-34.429 44.917-35.764 78.453l-.303 7.617 7.622.179c1.085.025 2.156.038 3.228.038 40.831-.003 72.006-18.237 104.954-37.514 19.864-11.622 40.228-23.536 63.481-31.621l-13.88 262.944h83.318l-1.629-30.433-14.979.802.783 14.631h-50.407c7.683-31.174 29.412-62.198 46.163-79.296l1.056 19.729 14.979-.801-9.931-185.562c28.195 10.02 54.849 24.896 79.148 38.465 32.648 18.231 63.487 35.452 91.839 37.652l8.41.652zm-78.625-214.196c19.029-.799 36.991 4.972 52.413 16.764-21.957 16.66-53.851 32.895-87.421 49.982-22.388 11.396-45.27 23.053-67.259 35.742 3.893-7.163 7.531-14.955 10.816-23.191 30.923-21.024 60.183-37.841 82.58-47.432l-5.904-13.789c-19.2 8.221-43.105 21.449-68.698 37.94 1.45-5.008 2.759-10.1 3.911-15.239 23.204-24.786 52.096-39.623 79.562-40.777zm-158.396 3.833c1.705-29.896 10.816-59.729 27.82-91.021 20.055 7.973 33.049 24.722 38.66 49.871 5.646 25.305 3.163 58.761-6.813 91.792-6.119 20.261-14.695 38.928-23.998 52.868l7.292-119.396-14.973-.914-7.054 115.517c-15.74-33.339-22.775-66.448-20.934-98.717zm-68.57 158.681c-29.699 17.376-57.867 33.855-92.388 35.35 2.563-25.342 12.562-45.372 29.785-59.616 23.908-19.772 56.135-24.771 82.019-24.921-38.815 15.47-59.428 28.656-72.172 37.884l8.798 12.148c14.924-10.807 41.319-27.365 98.366-46.971 7.339 3.084 14.526 6.431 21.455 10.161-28.728 8.397-52.627 22.371-75.863 35.965zm75.232 186.768 6.38-120.87c7.191-14.992 20.234-30.278 32.151-40.437l5.626 105.118c-12.093 9.955-30.388 30.876-44.157 56.189zm37.558-179.492c-9.276 6.438-20.188 16.644-29.586 28.475l3.114-58.998c2.977-.759 5.986-1.473 9.066-2.087 5.332 1.04 10.62 2.323 15.863 3.798zm100.201 1.433c-29.708-16.589-62.832-35.077-98.744-44.984 8.722-5.443 17.684-10.692 26.792-15.787 29.953 10.186 59.79 27.833 88.735 52.538l9.738-11.41c-23.207-19.806-47.05-35.323-71.164-46.369 24.851-.645 51.996 7.5 74.397 23.135 26.921 18.788 43.434 46.044 47.148 77.452-23.055-4.504-49.299-19.161-76.902-34.575z"/><path d="m280.443 452.009h15v15h-15z" transform="matrix(.999 -.053 .053 .999 -24.121 16.027)"/></g></g></svg>