<svg id="Capa_1" enable-background="new 0 0 512 512" height="512" viewBox="0 0 512 512" width="512" xmlns="http://www.w3.org/2000/svg"><g><g><g clip-rule="evenodd" fill-rule="evenodd"><path d="m7.5 287.487c0 39.267 46.59 58.974 74.985 33.348 14.204 17.351 41.709 14.693 52.247-5.234 8.231 10.239 20.858 16.795 35.018 16.795 11.22 0 21.942-4.144 30.243-11.711 7.692 9.513 20.123 13.69 31.954 10.822 3.905 9.814 13.496 16.137 24.052 15.879 10.556.257 20.147-6.066 24.052-15.879 11.832 2.868 24.263-1.309 31.954-10.822 8.301 7.567 19.023 11.711 30.243 11.711 14.16 0 26.787-6.556 35.018-16.795 10.539 19.927 38.043 22.585 52.247 5.234 28.394 25.626 74.985 5.919 74.985-33.348 0-19.221-12.077-35.618-29.056-42.025 5.351-6.243 8.585-14.354 8.585-23.221 0-18.787-14.512-34.185-32.939-35.595 12.602-19.469-1.321-45.888-25.107-45.703-2.304-19.035-21.853-30.718-39.582-24.238 1.477-24.72-26.039-39.835-46.051-26.418-7.669-20.332-33.934-25.616-48.939-10.231-5.09-14.658-19.021-25.181-35.412-25.181s-30.322 10.523-35.412 25.181c-15.005-15.385-41.27-10.101-48.939 10.231-20.012-13.418-47.528 1.697-46.051 26.418-17.728-6.48-37.277 5.204-39.582 24.238-23.786-.185-37.709 26.234-25.107 45.703-18.426 1.409-32.939 16.807-32.939 35.595 0 8.867 3.234 16.978 8.585 23.221-16.975 6.408-29.052 22.804-29.052 42.025z" fill="#8edf78"/><path d="m214.75 427.125c-2.921 16.24-13.5 30-30 30h142.5c-16.5 0-27.079-13.762-30-30l-17.198-95.617c-8.423 21.166-39.681 21.166-48.104 0z" fill="#d1a184"/><path d="m214.75 427.125c-2.921 16.24-13.5 30-30 30h22.5c16.5 0 27.079-13.76 30-30l10.407-57.859c13.15 2.158 26.868-.884 37.584-8.911l-5.189-28.848c-8.359 21.005-39.596 21.381-48.104 0z" fill="#c97e67"/><path d="m7.5 287.487c0 39.267 46.59 58.974 74.985 33.348 14.204 17.351 41.709 14.693 52.247-5.234 8.231 10.239 20.858 16.795 35.018 16.795 11.22 0 21.942-4.144 30.243-11.711 7.692 9.513 20.123 13.69 31.954 10.822 3.905 9.814 13.496 16.137 24.052 15.879 10.556.257 20.147-6.066 24.052-15.879 11.832 2.868 24.263-1.309 31.954-10.822 8.301 7.567 19.023 11.711 30.243 11.711 14.16 0 26.787-6.556 35.018-16.795 10.539 19.927 38.043 22.585 52.247 5.234 28.394 25.626 74.985 5.919 74.985-33.348 0-19.221-12.077-35.618-29.056-42.025 29.056 20.153 5.466 100.042-48.383 42.85-16.957 36.226-34.612 15.631-46.897-5.47l-20.433 18.662c-9.8 8.95-21.893 12.284-32.567 2.553l-17.644-16.084c-9.639 18.731-19.74 29.613-40.923 17.707-1.933 24.89-23.262 24.89-25.195 0-21.183 11.906-31.284 1.023-40.923-17.707l-17.644 16.084c-10.674 9.731-22.767 6.397-32.567-2.553l-20.433-18.662c-12.285 21.102-29.94 41.696-46.897 5.47-53.846 57.192-77.436-22.697-48.38-42.849-16.979 6.407-29.056 22.803-29.056 42.024z" fill="#6ad34d"/></g><g><path d="m349.75 142.442h-15v-15h15zm-30-15h-15v-15h15z" fill="#fff"/></g></g><g><path d="m248.5 449.625h15v15h-15z"/><path d="m512 287.487c0-18.533-9.959-35.626-25.52-44.979 3.291-6.198 5.049-13.156 5.049-20.267 0-18.922-12.447-35.34-29.752-41.05 2.782-9.371 1.772-19.646-3.108-28.536-5.643-10.278-15.285-17.003-26.512-18.756-2.578-8.683-8.256-16.129-16.157-20.973-6.953-4.262-14.908-6.091-22.768-5.377-2.066-10.324-8.458-19.359-17.913-24.772-9.91-5.672-21.488-6.493-31.745-2.56-5.318-8.035-13.612-13.731-23.329-15.763-9.093-1.901-18.314-.382-26.088 4.073-8.094-12.953-22.428-21.152-38.157-21.152s-30.063 8.199-38.157 21.15c-7.772-4.455-16.997-5.972-26.088-4.073-9.717 2.032-18.011 7.728-23.329 15.762-10.254-3.933-21.836-3.113-31.745 2.561-9.455 5.413-15.847 14.449-17.913 24.772-7.859-.714-15.814 1.115-22.768 5.377-7.901 4.844-13.579 12.29-16.157 20.973-11.226 1.754-20.87 8.479-26.512 18.756-4.881 8.89-5.891 19.165-3.108 28.536-17.305 5.71-29.752 22.128-29.752 41.05 0 7.111 1.758 14.069 5.049 20.267-15.561 9.355-25.52 26.448-25.52 44.981 0 10.968 3.354 21.474 9.7 30.38l12.217-8.704c-4.525-6.35-6.917-13.846-6.917-21.676 0-15.476 9.727-29.544 24.204-35.008l10.007-3.776-6.961-8.122c-4.371-5.101-6.779-11.614-6.779-18.34 0-14.65 11.426-27 26.011-28.117l12.579-.962-6.855-10.591c-4.468-6.902-4.738-15.387-.726-22.698 3.965-7.222 11.202-11.514 19.479-11.43l6.699.052.805-6.65c.813-6.706 4.595-12.586 10.378-16.131 5.829-3.574 12.823-4.29 19.184-1.964l10.744 3.927-.683-11.418c-.512-8.561 3.618-16.211 11.048-20.464 7.408-4.24 16.352-3.961 23.34.724l7.856 5.268 3.338-8.85c2.712-7.19 8.601-12.219 16.157-13.799 7.483-1.564 15.108.737 20.395 6.158l8.474 8.688 3.98-11.465c4.182-12.049 15.566-20.144 28.326-20.144s24.144 8.094 28.327 20.142l3.98 11.465 8.474-8.688c5.287-5.42 12.91-7.721 20.395-6.158 7.557 1.58 13.445 6.609 16.157 13.799l3.338 8.85 7.856-5.268c6.989-4.686 15.933-4.963 23.34-.724 7.43 4.253 11.56 11.903 11.048 20.464l-.683 11.418 10.744-3.927c6.36-2.327 13.353-1.609 19.184 1.964 5.783 3.545 9.565 9.425 10.378 16.131l.805 6.65 6.699-.052c.062 0 .121-.001.182-.001 8.157 0 15.362 4.263 19.297 11.431 4.013 7.311 3.742 15.795-.726 22.698l-6.855 10.591 12.579.962c14.585 1.116 26.011 13.466 26.011 28.117 0 6.726-2.408 13.24-6.779 18.34l-6.961 8.122 10.007 3.776c14.476 5.466 24.203 19.534 24.203 35.01 0 20.627-16.781 37.408-37.409 37.408-9.274 0-18.171-3.419-25.052-9.628l-5.843-5.273-4.985 6.09c-4.584 5.6-11.356 8.811-18.582 8.811-8.92 0-17.056-4.905-21.231-12.801l-5.331-10.08-7.145 8.887c-7.149 8.894-17.782 13.994-29.173 13.994-9.345 0-18.29-3.464-25.189-9.753l-5.881-5.362-5.004 6.188c-5.812 7.188-15.371 10.427-24.356 8.25l-6.328-1.534-2.407 6.05c-2.754 6.92-9.436 11.316-16.908 11.154l-.176-.003-.175.004c-7.467.157-14.154-4.234-16.908-11.154l-2.407-6.05-6.328 1.534c-8.987 2.176-18.544-1.062-24.356-8.25l-5.004-6.188-5.881 5.362c-6.899 6.289-15.845 9.753-25.189 9.753-11.391 0-22.023-5.101-29.173-13.994l-7.145-8.887-5.331 10.08c-4.176 7.896-12.312 12.801-21.231 12.801-7.226 0-13.998-3.211-18.582-8.811l-4.985-6.09-5.843 5.273c-6.881 6.209-15.777 9.628-25.052 9.628-7.83 0-15.326-2.392-21.679-6.917l-8.703 12.217c6.853 4.883 14.654 7.986 22.882 9.162v63.786h15v-63.789c5.245-.756 10.325-2.296 15.076-4.565v87.469h15v-86.2c3.728 1.791 7.738 2.988 11.902 3.519l8.136 17.99v45.576h15v-38.039l20.478 4.107v53.048h15v-50.04l20.478 4.107v26.818h15v-18.169l16.55 12.124-5.161 28.696c-1.977 10.992-9.087 23.828-22.618 23.828v15h48.75v-15h-20.039c4.174-5.726 7.183-12.898 8.671-21.172l14.31-79.56c5.398 3.828 11.953 6.003 18.929 6.003.21 0 .42-.002.629-.006.209.004.419.006.629.006 6.976 0 13.531-2.176 18.929-6.003l14.31 79.56c1.488 8.274 4.497 15.446 8.671 21.172h-20.04v15h48.75v-15c-13.531 0-20.642-12.836-22.618-23.828l-5.162-28.696 16.551-12.128v18.169h15v-26.818l20.478-4.107v50.04h15v-53.048l20.478-4.107v38.039h15v-45.576l8.136-17.99c4.163-.532 8.174-1.728 11.902-3.519v86.2h15v-87.469c4.751 2.269 9.831 3.81 15.076 4.565v63.789h15v-63.792c25.357-3.648 44.909-25.51 44.909-51.861zm-389.229 61.865-4.984-11.02c6.837-1.988 13.007-5.804 17.828-11.068 9.425 8.114 21.443 12.631 34.135 12.631 2.623 0 5.224-.197 7.783-.58l2.367 21.494zm72.801 16.727-3.436-31.203c2.514-1.189 4.94-2.574 7.249-4.159 6.603 5.536 14.889 8.725 23.445 9.115l-7.345 40.838zm93.598-26.247c8.557-.389 16.843-3.58 23.445-9.115 2.309 1.585 4.735 2.97 7.249 4.159l-3.436 31.203-19.913 14.591zm45.296-.516c2.56.383 5.16.58 7.783.58 12.691 0 24.71-4.517 34.135-12.631 4.821 5.264 10.991 9.08 17.828 11.068l-4.984 11.02-57.13 11.458z"/></g></g></svg>