<svg id="Capa_1" enable-background="new 0 0 512 512" height="512" viewBox="0 0 512 512" width="512" xmlns="http://www.w3.org/2000/svg"><g><g><g><g><path d="m481.869 233.388c0-30.019-16.053-56.283-40.038-70.695.151-2.252.235-4.523.235-6.814 0-55.372-44.878-100.261-100.245-100.28-17.926-28.508-49.658-47.459-85.821-47.459-36.165 0-67.899 18.953-85.825 47.464-.158-.001-.315-.006-.474-.006-55.383 0-100.28 44.897-100.28 100.28 0 2.279.083 4.538.233 6.779-24.019 14.404-40.1 40.686-40.1 70.731 0 27.889 13.865 52.524 35.062 67.439 2.267 31.716 28.697 56.747 60.99 56.747 15.804 0 30.206-5.995 41.061-15.833 10.995 16.254 29.599 26.94 50.7 26.94 14.947 0 28.636-5.368 39.261-14.273 10.625 8.905 24.313 14.273 39.26 14.273 20.57 0 38.755-10.165 49.843-25.734 10.682 9.114 24.528 14.627 39.669 14.627 32.188 0 58.549-24.867 60.967-56.435 21.448-14.882 35.502-39.669 35.502-67.751z" fill="#fec7d2"/></g><g><path d="m233.009 348.766c-21.101 0-37.742-2.766-54.192-28.468-10.855 9.838-25.257 15.833-41.061 15.833-32.293 0-55.232-19.228-57.499-50.944-21.198-14.915-35.062-39.551-35.062-67.439 0-18.773 6.288-36.071 16.856-49.929-19.745 15.058-32.496 38.82-32.496 65.569 0 27.889 13.865 52.524 35.062 67.439 2.267 31.716 28.697 56.747 60.99 56.747 15.804 0 30.206-5.995 41.061-15.833 10.995 16.254 29.599 26.94 50.7 26.94 20.887 0 39.318-10.476 50.354-26.453-9.863 6.813-21.818 6.538-34.713 6.538z" fill="#f88fa4"/></g><g><path d="m402.733 340.244c-27.575 0-50.881-18.25-58.517-43.329h-19.968c.274 33.547 27.543 60.659 61.154 60.659 21.323 0 40.089-10.917 51.036-27.461-9.665 6.397-21.247 10.131-33.705 10.131z" fill="#f88fa4"/></g><g><path d="m473.973 473.564h-435.399c-17.053 0-30.878 13.824-30.878 30.878h497.154c.001-17.054-13.823-30.878-30.877-30.878z" fill="#b6f600"/></g><g><path d="m61.451 473.564h-22.877c-17.053 0-30.878 13.824-30.878 30.878h22.876c.001-17.054 13.825-30.878 30.879-30.878z" fill="#abe700"/></g><g><path d="m333.453 326.708c-8.495 10.431-20.364 17.998-33.94 21.06v-67.274l-45 27.677v32.355c-6.61-3.983-12.419-9.164-17.093-15.267 3.228 10.495 9.21 19.779 17.093 27.027v.009c26.744 25.336 71.835 19.621 91.701-10.259z" fill="#f88fa4"/></g><g><path d="m278.5 377.382v-68.955l54.439-71.705-2.745-2.745-55.279 29.434-17.925-75h-1.979l-17.926 75-53.34-29.434-2.745 2.745 52.5 71.705v68.955c-.039 36.751-16.479 72.524-45 96.182h135c-28.517-23.804-45-59.036-45-96.182z" fill="#fcad42"/></g><g><g><path d="m303.434 452.372h-69.182c14.547-21.527 20.666-47.991 20.694-74.99v-76.725l-33.649-45.958-37.553-20.722-2.744 2.745 52.5 71.705v68.955c-.029 26.999-8.919 53.463-24.938 74.99-5.819 7.823-12.564 14.957-20.062 21.191h135c-7.567-6.316-14.277-13.443-20.066-21.191z" fill="#f69500"/></g><g><path d="m266.723 229.137-9.733-40.726h-1.98l-19.713 82.591 18.948 10.455z" fill="#f69500"/></g></g><g><path d="m371.405 137.734h-12.096v-12.096c0-3.638.599-7.134 1.689-10.406-13.07 4.356-22.498 16.68-22.498 31.214v12.096h12.096c14.534 0 26.859-9.428 31.214-22.498-3.271 1.091-6.767 1.69-10.405 1.69z" fill="#f88fa4"/></g><g><path d="m79.196 271.467h-10.074v-10.074h-2.022c-18.172 0-32.903 14.731-32.904 32.904v12.096h12.096c18.172 0 32.904-14.731 32.904-32.904z" fill="#fec7d2"/></g><g><path d="m66.973 285.713h-12.096v-12.096c0-3.673.611-7.202 1.722-10.501-13.021 4.384-22.403 16.683-22.403 31.182v12.096h12.096c14.499 0 26.798-9.382 31.182-22.403-3.299 1.111-6.827 1.722-10.501 1.722z" fill="#f88fa4"/></g><g><path d="m149.269 148.939c-1.141-.12-2.298-.183-3.47-.183h-2.023v10.074h-10.074v2.023c0 18.172 14.731 32.904 32.904 32.904h12.096v-12.096c0-1.172-.064-2.329-.183-3.47-15.4-1.617-27.636-13.852-29.25-29.252z" fill="#f88fa4"/></g><g><path d="m383.5 333.574h10.074v-10.074h2.023c18.172 0 32.903 14.731 32.904 32.904v12.096h-12.096c-18.172 0-32.904-14.731-32.904-32.904v-2.022z" fill="#fec7d2"/></g><g><path d="m399.066 323.683c-1.141-.12-2.298-.183-3.47-.183h-2.023v10.074h-10.073v2.023c0 18.172 14.731 32.904 32.904 32.904h12.096v-12.096c0-1.172-.064-2.329-.183-3.47-15.4-1.616-27.636-13.852-29.251-29.252z" fill="#f88fa4"/></g><g><path d="m128.5 91h15v15h-15z" fill="#fff"/></g><g><path d="m158.5 91h15v15h-15z" fill="#fff"/></g></g></g><g><path d="m473.634 466.064h-120.437v-.064c0-20.704 16.817-37.548 37.489-37.548v-15.019c-28.94 0-52.484 23.582-52.484 52.568v.064h-12.22c-26.164-22.851-40.837-56.029-40.264-90.877 22.066 4.045 47.077-5.269 60.041-23.475 12.118 9.039 26.735 13.467 42.181 12.696 7.28 7.094 17.207 11.475 28.142 11.475h19.591v-19.622c0-4.203-.645-8.259-1.838-12.073 10.608-10.567 17.19-24.188 18.852-39.129 49.536-35.092 47.546-113.373-3.387-146.215 3.045-57.067-46.627-110.13-103.703-110.644-10.169-15.987-24.472-28.774-41.593-37.137l-6.573 13.5c17.127 8.266 30.724 21.96 39.636 38.663 56.235-3.669 104.096 47.757 96.684 103.69 51.2 26.62 53.994 99.897 4.483 129.882-.083 12.388-4.15 24.24-11.975 33.536-10.924-12.838-23.841-15.309-40.496-14.528v10.087h-10.073c-.052 7.282-.383 16.523 2.382 23.216-11.244-1.385-20.457-6.547-28.975-14.209l.047-.05c-10.548-10.038-16.356-23.588-16.356-38.154h-14.995c0 16.698 5.953 32.347 16.854 44.691-10.305 15.278-30.313 22.752-48.929 18.5v-49.137l56.852-75.002-11.295-11.313-51.601 27.519-17.04-71.412h-13.814l-17.006 71.264-49.635-27.433-11.276 11.294 54.833 75.01v49.216c-20.502 4.621-42.749-5.039-51.72-23.383l-4.632-9.472s-7.421 7.483-7.42 7.482c-29.247 30.831-85.129 10.354-89.039-31.084 12.117-10.958 14.275-23.561 13.55-39.731h-10.07v-10.086c-12.576-.392-23.23.172-33.375 7.836-14.191-35.593.659-77.841 34.725-94.415-7.282-54.534 37.97-104.872 92.403-103.981v.116c18.395 0 36.181 5.365 51.432 15.514l8.298-12.51c-13.945-9.28-29.712-15.099-46.205-17.164 22.917-28.828 62.121-41.333 99.875-29.882l4.321-14.382c-44.433-13.919-97.484 3.388-121.985 43.449-57.029.519-106.687 53.501-103.704 110.532-37.045 22.509-49.55 76.754-30.186 114.978-3.498 5.986-5.513 12.943-5.513 20.366v19.621h19.59c4.495 0 8.815-.75 12.857-2.114 9.199 45.478 68.853 69.576 106.537 39.762 13.313 18.636 37.61 27.929 60.259 23.877.122 9.74-.877 19.51-3.112 28.986l14.599 3.431c2.328-9.937 3.509-20.156 3.509-30.372v-71.5l-39.101-53.489 40.189 22.212 13.907-58.279 13.871 58.132 41.777-22.28-40.653 53.632v71.572c0 33.098 12.18 64.562 33.928 88.796h-97.868c11.096-12.393 19.831-26.826 25.646-42.507l-14.057-5.229c-6.82 18.393-18.177 34.838-32.909 47.736h-12.209v-.064c0-28.986-23.544-52.568-52.484-52.568v15.019c20.672 0 37.489 16.844 37.489 37.548v.064h-119.89c-21.155.001-38.366 17.239-38.366 38.427v7.51h414.529v-15.019h-398.3c3.131-9.235 11.872-15.898 22.137-15.898h435.268c10.265 0 19.005 6.663 22.137 15.898h-36.255v15.019h52.484v-7.51c0-21.188-17.211-38.426-38.366-38.426zm-72.878-125.152v-9.492c13.679 3.124 21.175 15.468 19.92 29.444-13.952 1.26-26.284-6.26-29.397-19.952zm-359.269-42.234c-1.259-13.968 6.248-26.326 19.92-29.443v9.491h9.476c-3.119 13.698-15.437 21.208-29.396 19.952z"/><path d="m429.525 496.981h14.995v15.019h-14.995z"/><path d="m371.095 105.579c-22.272 0-40.391 18.148-40.391 40.456v19.621h19.591c22.272 0 40.391-18.148 40.391-40.455v-9.535h-10.071v-10.087zm-25.396 45.058c-.136-14.621 6.25-26.326 19.92-29.443v9.491h9.477c-2.511 11.398-12.277 19.952-29.397 19.952z"/><path d="m125.967 160.458c0 22.307 18.12 40.456 40.391 40.456h19.591v-19.622c0-22.307-18.12-40.455-40.392-40.455h-9.52v10.087h-10.071v9.534zm25.067 5.485v-9.491c13.679 3.124 21.175 15.467 19.92 29.443-13.952 1.26-26.284-6.259-29.396-19.952z"/></g></g></svg>