<svg id="Capa_1" enable-background="new 0 0 512.028 512.028" height="512" viewBox="0 0 512.028 512.028" width="512" xmlns="http://www.w3.org/2000/svg"><g><g><g clip-rule="evenodd" fill-rule="evenodd"><path d="m46.406 177.12 36.192 18.913 28.818-11.613 12.966-38.723-17.623 7.102 6.01-35.92-24.579 9.905-22.819-15.062-5.999 26.675-24.58 9.905 29.237 21.716z" fill="#7bdaa9"/><path d="m147.997 74.27 26.5 38.57h31.07l26.5-38.57h-19l19-38.57h-26.5l-15.535-22.5-15.535 22.5h-26.5l19 38.57z" fill="#7bdaa9"/><path d="m265.625 95.53 19.001 31.07h-19.001l26.5 38.57h31.07l26.5-38.57h-19l19-31.07h-26.5l-15.535-22.5-15.535 22.5z" fill="#7bdaa9"/><path d="m389.048 104.23 6.726 40.278 26.638 15.993 38.713-12.997-16.29-9.78 32.283-16.858-22.72-13.64-1.737-27.287-24.901 11.294-22.719-13.641.296 36.418z" fill="#7bdaa9"/><path d="m205.567 201.121v-88.281h-31.07v131.919l31.07 29.719 35.395 31.918z" fill="#d1a184"/><path d="m174.497 213.623v31.136l31.07 29.719 35.395 31.918-14.618-43.479z" fill="#c97e67"/><path d="m205.567 274.478-94.151-90.058-28.818 11.613 91.899 95.958 39.464 68.823v113.714c0 16.5-13.5 30-30 30h121.198c-16.5 0-30.145-13.515-30-30l1.198-136.214z" fill="#d1a184"/><path d="m288.626 207.535-47.664 98.861 76.452-54.791 6.287-46.678-.506-39.757h-31.07z" fill="#d1a184"/><path d="m261.354 264.1-20.392 42.296 76.452-54.791 6.287-46.678-22.32 30.487z" fill="#c97e67"/><path d="m317.414 251.605-76.452 54.791 35.394 31.918 67.576-69.775 78.48-108.038-26.638-15.993z" fill="#d1a184"/><path d="m259.681 292.98-18.719 13.416 35.394 31.918 15.663-16.172z" fill="#c97e67"/><path d="m213.005 482.028c-3.352 12.902-15.131 22.5-29.044 22.5h121.198c-13.911 0-25.791-9.606-29.091-22.5z" fill="#c97e67"/><path d="m159.038 90.34 15.459 22.5h31.07l15.459-22.5z" fill="#39c17b"/><path d="m55.12 181.674 27.478 14.359 28.818-11.613 9.845-29.4z" fill="#39c17b"/><path d="m451.808 150.632-29.396 9.869-26.638-15.993-5.108-30.587z" fill="#39c17b"/><path d="m276.667 142.67 15.458 22.5h31.07l15.459-22.5z" fill="#39c17b"/></g><g><path d="m252.68 405.814h-15v-15h15zm0-30h-15v-15h15z" fill="#fff"/></g></g><g><path d="m375.672 207.02h15v15.001h-15z" transform="matrix(.588 -.809 .809 .588 -15.587 398.451)"/><path d="m460.165 138.18 32.283-16.857-30.815-18.501-2.177-34.199-31.209 14.154-30.814-18.501.296 36.418-18.756-11.262 8.884 53.196-59.072 80.733 2.348-17.433.074-.546-.482-37.927 33.224-48.355h-19.875l19-31.069h-35.942l-19.471-28.2-19.471 28.2h-35.942l19.001 31.069h-19.876l33.058 48.115-3.165 38.317-39.063 81.021-29.136-86.659v-84.726l33.253-48.398h-21.198l19.001-38.57h-34.62l-19.471-28.2-19.471 28.2h-34.62l19 38.569h-21.197l33.253 48.398v27.671h15v-22.498h16.07v82.009l26.666 79.313-14.06-12.679-28.676-27.429v-83.714h-15v69.366l-46.958-44.917 16.616-49.623-20.291 8.177 6.01-35.921-33.337 13.435-28.599-18.878-7.52 33.434-33.338 13.433 29.236 21.717-20.291 8.177 49.509 25.871 90.412 94.406 38.015 66.296v111.716c0 12.406-10.094 22.5-22.5 22.5v15h121.197v-15c-6.046 0-11.743-2.388-16.041-6.725-4.217-4.254-6.511-9.833-6.459-15.709l1.172-133.216 65.858-68.003 26.327-36.243-12.137-8.816-25.704 35.386-62.171 64.195-23.101-20.832 68.879-49.365.976-.698 75.026-102.54 13.748 8.255-21.205 29.191 12.137 8.816 24.608-33.876 51.849-17.408zm-300.112-94.98h18.38l11.6-16.8 11.6 16.8h18.38l-19.002 38.57h16.804l-16.193 23.57h-23.178l-16.194-23.57h16.803zm118.95 59.83h17.058l11.6-16.8 11.6 16.8h17.058l-19 31.069h18.125l-16.193 23.57h-23.178l-16.193-23.57h18.126zm16.983 106.509 3.045-36.869h16.759l.403 31.802-5.781 42.922-49.931 35.786zm-245.982-59.281 15.82-6.375 4.48-19.918 17.038 11.247 15.821-6.376-6.01 35.919 14.955-6.026-6.706 20.028-22.399 9.026-18.719-9.782 14.955-6.026zm218.823 191.366-1.169 132.839c-.072 8.216 2.555 16.065 7.476 22.565h-61.19c4.718-6.271 7.518-14.065 7.518-22.5v-115.712l-40.458-70.556-.455-.795-84.869-88.618 14.05-5.662 90.653 86.712zm154.479-189.335-20.704-12.43-3.479-20.832 13.822 8.299-.296-36.418 14.625 8.78 18.592-8.432 1.298 20.373 14.624 8.78-32.283 16.857 13.824 8.3z"/></g></g></svg>