<svg id="Capa_1" enable-background="new 0 0 512 512" height="512" viewBox="0 0 512 512" width="512" xmlns="http://www.w3.org/2000/svg"><g><g><g><g><path d="m368.489 422.223v-414.723h-285.447v414.723c0 45.44-36.836 82.277-82.277 82.277h450c-45.44 0-82.276-36.836-82.276-82.277z" fill="#d9694b"/></g><g><path d="m394.103 481.847h-308.827c14.629-16.963 19.596-36.15 19.596-59.624v-414.723h-21.83v414.723c.428 45.325-38.016 82.712-82.277 82.277h450c-21.966 0-41.906-8.625-56.662-22.653z" fill="#c6573a"/></g><g><path d="m83.036 79.505c5.501-6.381 13.644-10.42 22.73-10.42 16.569 0 30 13.431 30 30 0-16.569 13.431-30 30-30s30 13.431 30 30c0-16.569 13.431-30 30-30s30 13.431 30 30c0-16.569 13.431-30 30-30s30 13.431 30 30c0-16.569 13.431-30 30-30 9.086 0 17.228 4.039 22.73 10.42v-72.005h-285.454z" fill="#ffdaaa"/></g><g><path d="m345.765 45.792c-16.569 0-30 13.431-30 30 0-16.569-13.431-30-30-30s-30 13.431-30 30c0-16.569-13.431-30-30-30s-30 13.431-30 30c0-16.569-13.431-30-30-30s-30 13.431-30 30c.032-16.865-14.026-30.538-30.89-29.975l.003-38.317h-21.836s-.004 48.709-.004 48.709l-.002 23.295c5.423-6.319 13.495-10.194 21.837-10.395 16.866-.564 30.924 13.11 30.893 29.975 0-16.568 13.431-30 30-30s30 13.431 30 30c0-16.568 13.431-30 30-30s30 13.431 30 30c0-16.568 13.431-30 30-30 16.568 0 30 13.431 30 30 0-16.568 13.431-30 30-30 9.086 0 17.229 4.039 22.73 10.42v-23.292c-5.502-6.381-13.645-10.42-22.731-10.42z" fill="#ffb680"/></g><g><path d="m437.452 135.844-69.729 69.729-7.085 50.429 7.085 76.85 133.369-133.369z" fill="#d9694b"/></g><g><path d="m367.723 205.573v127.279l22.595-22.595v-127.28z" fill="#c6573a"/></g><g><path d="m104.967 31h15v15h-15z" fill="#fff"/></g><g><path d="m134.967 31h15v15h-15z" fill="#fff"/></g></g></g><g><path d="m330.195 497h15.009v15h-15.009z"/><path d="m375.445 422.224v-86.265l136.555-136.476-74.289-74.246-62.266 62.229v-187.466h-300.625v422.224c0 41.232-33.564 74.776-74.82 74.776v15h315.186v-15h-172.602v-196h-15.009v196h-77.912c24.193-16.103 40.166-43.61 40.166-74.776v-339.701c4.135-3.798 9.556-5.938 15.233-5.938 12.414 0 22.513 10.093 22.513 22.5h15.009c0-12.407 10.1-22.5 22.513-22.5 12.414 0 22.513 10.093 22.513 22.5h15.009c0-12.407 10.1-22.5 22.513-22.5 12.414 0 22.513 10.093 22.513 22.5h15.009c0-12.407 10.1-22.5 22.513-22.5 12.414 0 22.513 10.093 22.513 22.5h15.009c0-12.407 10.1-22.5 22.513-22.5 5.677 0 11.098 2.14 15.233 5.938v158.477h15.009v-32.32l62.266-62.229 10.9 10.894-53.98 53.948 10.614 10.606 53.98-53.948 31.55 31.532-115.33 115.263v-43.746h-15.009v151.224c0 31.166 15.973 58.674 40.166 74.776h-40.39v15h90.053v-15c-41.254 0-74.819-33.544-74.819-74.776zm-30.242-360.639c-12.26 0-23.166 5.907-30.018 15.023-6.852-9.116-17.758-15.023-30.018-15.023s-23.166 5.907-30.018 15.023c-6.852-9.116-17.758-15.023-30.018-15.023s-23.166 5.907-30.018 15.023c-6.852-9.116-17.758-15.023-30.018-15.023s-23.166 5.907-30.018 15.023c-6.852-9.116-17.758-15.023-30.018-15.023-5.314 0-10.491 1.131-15.233 3.237v-49.822h270.607v49.822c-4.738-2.106-9.915-3.237-15.23-3.237z"/><path d="m127.575 121h15.009v165h-15.009z"/><path d="m187.611 241h15.009v210h-15.009z"/><path d="m187.611 151h15.009v75h-15.009z"/><path d="m247.646 121h15.009v225h-15.009z"/><path d="m307.681 121h15.009v60h-15.009z"/><path d="m307.681 196h15.009v210h-15.009z"/></g></g></svg>