<svg id="Layer_1" enable-background="new 0 0 512 512" viewBox="0 0 512 512" xmlns="http://www.w3.org/2000/svg"><g><g clip-rule="evenodd" fill-rule="evenodd"><path d="m256 502.001c-17.262 0-26.332-14.156-29.76-26.949-8.52-31.798-54.431-48.273-104.802-48.273h-30.09c-30.097 0-37.906-39.285-5.021-54.254l11.029-5.021c54.072-24.613 76.618-106.31-27.757-122.448l-32.473-5.02c-14.743-2.278-27.126-12.206-27.126-27.126s12.207-27.127 27.127-27.127h75.444c23.263 0 36.828-15.625 41.5-33.063 6.574-24.536 35.087-8.772 32.061-47.75-1.296-16.689 6.281-27.106 15.648-32.861 19.374-11.904 19.482-21.243 22.764-33.491 4.647-17.344 13.499-28.618 31.456-28.618s26.81 11.274 31.457 28.619c3.282 12.248 3.391 21.587 22.764 33.491 9.367 5.755 16.944 16.173 15.648 32.861-3.026 38.978 25.486 23.214 32.061 47.75 4.672 17.438 18.237 33.063 41.5 33.063h75.444c14.92 0 27.127 12.207 27.127 27.127s-12.383 24.847-27.127 27.127l-32.473 5.02c-104.375 16.137-81.828 97.835-27.757 122.448l11.029 5.021c32.886 14.969 25.077 54.254-5.02 54.254h-30.091c-50.372 0-96.283 16.474-104.802 48.273-3.428 12.791-12.498 26.947-29.76 26.947z" fill="#fde0be"/><path d="m349.9 430.653c-100.983-47.655-170.86-150.403-170.86-269.472 0-10.844.579-21.551 1.709-32.095-8.016 8.848-22.273 7.193-26.679 23.635-4.672 17.438-18.237 33.063-41.5 33.063h-75.443c-14.92 0-27.127 12.206-27.127 27.126s12.383 24.847 27.127 27.127l32.473 5.02c104.375 16.137 81.828 97.834 27.757 122.448l-11.029 5.021c-32.885 14.969-25.077 54.254 5.021 54.254h30.091c50.372 0 96.283 16.474 104.802 48.273 3.427 12.793 12.497 26.949 29.76 26.949 17.262 0 26.332-14.156 29.76-26.949 6.124-22.867 31.586-37.809 64.138-44.4z" fill="#f7b073"/></g><g><g><g><path d="m179.549 221.62c-1.057 0-2.132-.169-3.189-.525-5.234-1.761-8.051-7.432-6.289-12.667l5.021-14.923c1.76-5.234 7.428-8.053 12.666-6.29 5.234 1.761 8.051 7.432 6.289 12.667l-5.021 14.923c-1.405 4.177-5.3 6.815-9.477 6.815z" fill="#d46b5c"/></g><g><path d="m256 198.75c-5.522 0-10-4.477-10-10v-14.923c0-5.523 4.478-10 10-10s10 4.477 10 10v14.923c0 5.523-4.477 10-10 10z" fill="#d46b5c"/></g><g><path d="m332.452 221.62c-4.177 0-8.071-2.637-9.477-6.814l-5.021-14.923c-1.762-5.234 1.054-10.905 6.288-12.667 5.238-1.761 10.906 1.055 12.667 6.289l5.021 14.923c1.762 5.234-1.054 10.905-6.288 12.667-1.057.355-2.133.525-3.19.525z" fill="#d46b5c"/></g><g><path d="m219.718 275.534c-.309 0-.619-.015-.932-.043-5.5-.509-9.546-5.379-9.038-10.878l1.379-14.923c.509-5.5 5.396-9.546 10.878-9.038 5.5.508 9.546 5.378 9.038 10.877l-1.379 14.923c-.479 5.187-4.839 9.082-9.946 9.082z" fill="#d46b5c"/></g><g><path d="m292.283 275.534c-5.107 0-9.466-3.894-9.946-9.08l-1.38-14.923c-.508-5.5 3.538-10.37 9.037-10.878 5.487-.51 10.369 3.537 10.879 9.037l1.379 14.923c.509 5.5-3.537 10.37-9.036 10.878-.312.028-.625.043-.933.043z" fill="#d46b5c"/></g><g><path d="m179.549 352.318c-1.057 0-2.132-.169-3.189-.525-5.234-1.761-8.051-7.432-6.289-12.666l5.021-14.923c1.761-5.233 7.428-8.055 12.666-6.289 5.234 1.761 8.051 7.432 6.289 12.666l-5.021 14.923c-1.406 4.176-5.3 6.814-9.477 6.814z" fill="#d46b5c"/></g><g><path d="m256 329.45c-5.522 0-10-4.478-10-10v-14.924c0-5.522 4.478-10 10-10s10 4.478 10 10v14.924c0 5.522-4.477 10-10 10z" fill="#d46b5c"/></g><g><path d="m332.452 352.318c-4.177 0-8.071-2.637-9.477-6.813l-5.021-14.923c-1.762-5.234 1.054-10.906 6.288-12.667 5.238-1.765 10.906 1.055 12.667 6.288l5.021 14.923c1.762 5.234-1.054 10.906-6.288 12.667-1.057.356-2.133.525-3.19.525z" fill="#d46b5c"/></g><g><path d="m219.718 406.233c-.309 0-.619-.015-.932-.043-5.5-.509-9.546-5.379-9.038-10.878l1.379-14.923c.509-5.5 5.396-9.533 10.878-9.038 5.5.509 9.546 5.379 9.038 10.878l-1.379 14.923c-.479 5.186-4.839 9.081-9.946 9.081z" fill="#d46b5c"/></g><g><path d="m292.283 406.233c-5.107 0-9.466-3.894-9.946-9.08l-1.38-14.923c-.508-5.5 3.538-10.37 9.037-10.879 5.487-.496 10.369 3.537 10.879 9.037l1.379 14.923c.509 5.5-3.537 10.37-9.036 10.878-.312.029-.625.044-.933.044z" fill="#d46b5c"/></g></g><g><path d="m256 512c-18.636 0-33.74-13.166-39.419-34.36-6.548-24.439-44.783-40.86-95.143-40.86h-30.09c-17.708 0-31.997-11.025-35.556-27.435-3.332-15.361 3.537-35.518 26.393-45.921l11.029-5.021c25.485-11.602 42.399-37.085 39.343-59.277-3.105-22.545-26.007-38.237-64.485-44.186l-32.473-5.021c-21.292-3.291-35.599-18.164-35.599-37.009 0-20.472 16.655-37.126 37.127-37.126h75.443c22.535 0 29.774-17.938 31.841-25.651 3.96-14.778 13.997-19.581 21.326-23.088 7.996-3.826 11.646-5.572 10.425-21.3-1.417-18.238 5.822-33.209 20.382-42.156 13.611-8.362 14.896-13.621 17.23-23.168.349-1.428.707-2.888 1.109-4.39 6.407-23.908 20.24-36.031 41.117-36.031s34.71 12.123 41.116 36.03c.402 1.502.76 2.962 1.109 4.39 2.334 9.547 3.619 14.807 17.23 23.169 14.56 8.945 21.798 23.917 20.383 42.155-1.221 15.729 2.429 17.476 10.424 21.301 7.329 3.506 17.366 8.309 21.326 23.087 2.066 7.712 9.306 25.651 31.841 25.651h75.443c20.472 0 37.127 16.655 37.127 37.126 0 18.845-14.307 33.718-35.6 37.01l-32.472 5.021c-38.479 5.949-61.38 21.641-64.485 44.186-3.057 22.192 13.857 47.676 39.344 59.277l11.029 5.021c22.854 10.403 29.724 30.56 26.392 45.921-3.559 16.409-17.848 27.435-35.556 27.435h-30.09c-50.36 0-88.596 16.421-95.144 40.86-5.677 21.194-20.781 34.36-39.417 34.36zm-218.873-316.216c-9.443 0-17.127 7.683-17.127 17.126 0 10.6 10.049 15.914 18.654 17.244l32.474 5.021c24.587 3.802 44.133 11.333 58.095 22.387 13.068 10.346 21.072 23.774 23.146 38.835 4.285 31.108-17.108 64.842-50.87 80.21l-11.029 5.021c-13.586 6.185-16.643 16.513-15.132 23.479 1.224 5.644 6.072 11.674 16.01 11.674h30.091c27.298 0 52.21 4.504 72.042 13.023 22.91 9.843 37.579 24.595 42.419 42.661 1.574 5.873 6.683 19.535 20.1 19.535s18.526-13.662 20.101-19.536c4.841-18.067 19.509-32.818 42.419-42.661 19.833-8.52 44.745-13.023 72.043-13.023h30.09c9.938 0 14.786-6.03 16.01-11.674 1.511-6.966-1.546-17.294-15.132-23.479l-11.029-5.021c-33.761-15.368-55.155-49.102-50.87-80.21 2.074-15.061 10.078-28.489 23.146-38.835 13.962-11.054 33.508-18.585 58.095-22.387l32.473-5.02c8.605-1.33 18.654-6.644 18.654-17.244 0-9.443-7.684-17.126-17.127-17.126h-75.443c-24.867 0-44.471-15.509-51.159-40.475-1.517-5.66-4.193-7.138-10.64-10.222-12.151-5.814-23.838-13.76-21.731-40.89.828-10.679-2.844-18.608-10.914-23.567-20.616-12.667-23.448-24.254-26.188-35.46-.315-1.289-.637-2.607-1-3.962-4.994-18.639-13.428-21.208-21.798-21.208s-16.804 2.569-21.798 21.207c-.363 1.355-.685 2.674-1 3.963-2.739 11.206-5.571 22.793-26.188 35.46-8.069 4.958-11.741 12.887-10.912 23.566 2.106 27.13-9.581 35.076-21.732 40.89-6.446 3.084-9.123 4.562-10.64 10.222-6.688 24.966-26.292 40.475-51.159 40.475h-75.444z" fill="#052a75"/></g><g><g><path d="m230.902 123.582c-5.522 0-10.004-4.477-10.004-10s4.475-10 9.997-10h.007c5.522 0 10 4.477 10 10s-4.478 10-10 10z" fill="#6864f7"/></g><g><path d="m281.106 123.582c-5.522 0-10.003-4.477-10.003-10s4.474-10 9.996-10h.007c5.522 0 10 4.477 10 10s-4.478 10-10 10z" fill="#6864f7"/></g></g></g></g><g/><g/><g/><g/><g/><g/><g/><g/><g/><g/><g/><g/><g/><g/><g/></svg>