<svg id="Capa_1" enable-background="new 0 0 512 512" height="512" viewBox="0 0 512 512" width="512" xmlns="http://www.w3.org/2000/svg"><g><g><path d="m337.973 230.217 31.258 15.202c5.507 3.153 10.899 7.713 15.979 12.945 21.385 22.025 30.975 52.847 26.691 83.23-6.426 45.572-7.949 122.954 48.107 151.541l14.735 7.307c8.755 4.342 19.093 1.891 25.026-5.332 0 0 .187-3.357.896-4.787 5.038-10.169-1.288-18.945-11.482-24l-14.723-7.301c-28.085-12.894-29.38-68.751-22.642-110.722 7.485-46.62-3.924-90.089-35.708-125.035-7.06-7.762-14.476-14.349-21.961-18.634l-18.38-10.029c-25.121-13.708-48.407-32.863-62.303-57.862l-10.167-18.29c-4.342-7.448-10.987-14.81-18.806-21.808-35.203-31.507-76.316-42.165-122.932-34.365-41.968 7.023-98.709 3.682-111.812-24.282l-7.411-14.656c-5.131-10.149-11.174-14.024-21.319-8.92-1.512.761-6.27-.078-6.27-.078-7.027 6.002-9.319 16.23-4.955 24.861l7.417 14.668c29.006 55.796 106.458 53.738 152.033 47.003 30.385-4.49 61.305 4.876 83.502 26.084 5.272 5.038 9.875 10.392 13.069 15.871l15.434 31.118c12.156 24.509 32.105 44.299 56.724 56.271z" fill="#c6805d"/><path d="m504.448 482.1c0 3.06-.69 6.16-2.14 9.09-.71 1.43-1.56 2.74-2.54 3.92l-21.63-10.54-12.54-6.22c-19.32-9.02-30.66-28.97-33.7-59.29-1.91-18.97-.62-42.6 3.82-70.23 6.6-41.13-5.52-82.2-33.25-112.69-6.16-6.77-11.86-11.7-16.95-14.65l-18.18-9.91c-28.48-15.55-51.87-38.75-67.63-67.1l-10.05-18.09c-2.99-5.06-7.96-10.71-14.78-16.82-24.73-22.13-56.84-34.32-90.41-34.32-7.57 0-15.19.63-22.67 1.88-19.96 3.34-37.96 5.04-53.47 5.04-39.92 0-65.61-11.43-76.36-33.99l-17.22-33.84c1.23-1.06 2.61-1.98 4.12-2.74 10.14-5.1 22.53-1.01 27.66 9.14l7.41 14.65c13.1 27.97 66.6 25.04 108.56 18.02 46.62-7.8 94.52 5.75 129.72 37.26 7.82 7 14.46 14.36 18.81 21.81l10.16 18.29c13.9 24.99 34.61 45.54 59.73 59.25l18.38 10.03c7.49 4.28 14.9 10.87 21.96 18.63 31.79 34.95 45.69 82.7 38.2 129.32-6.74 41.97-9.3 95.42 18.79 108.32l14.72 7.3c7.27 3.6 11.48 10.9 11.48 18.48z" fill="#ba7052"/><g><g><path d="m402.176 223.264-26.703 26.676c-7.928 7.92-8.531 20.84-.87 29.018 8.007 8.547 21.434 8.713 29.661.505l23.42-23.396c-5.834-12.371-15.011-23.398-25.508-32.803z" fill="#fee07d"/></g></g><g><g><path d="m261.909 78.667-28.945 28.916c-7.928 7.92-8.531 20.84-.87 29.018 8.007 8.547 21.434 8.713 29.661.504l29.779-29.748c-7.806-11.633-18.233-20.645-29.625-28.69z" fill="#fee07d"/></g></g><g><g><path d="m445.318 238.45-5.46 5.45-18.64 18.63c-5.1-9.41-11.37-18.28-18.75-26.39-2.24-2.46-4.42-4.68-6.53-6.65l18.15-18.14 2.47-2.46c1.31-1.3 2.75-2.4 4.28-3.28 8.01-4.62 18.47-3.42 25.21 3.61 7.69 8.01 7.12 21.39-.73 29.23z" fill="#fed062"/></g></g><g><g><path d="m302.808 96.1-2.46 2.46-18.16 18.13c-2.13-2.3-4.57-4.67-7.31-7.12-7.91-7.08-16.57-13.14-25.79-18.1l18.69-18.67 6.27-6.26c1.31-1.31 2.75-2.41 4.28-3.29 8.02-4.62 18.47-3.42 25.21 3.61 7.69 8.01 7.12 21.39-.73 29.24z" fill="#fed062"/></g></g><path d="m71.559 440.68s.724 19.092 9.728 39.091c0 0 8.662 9.051 15.398 16.178.767.811 2.061.81 2.851.021l26.164-26.73c21.476-21.449 20.595-54.965-.105-82.529-24.933-24.91-62.555-27.716-84.031-6.267l-32.451 32.411c-.791.79-.792 2.087.021 2.854 24.963 23.55 62.425 24.971 62.425 24.971z" fill="#c3ddff"/><path d="m131.858 470.65-32.46 32.42c-.79.78-2.08.79-2.85-.02-6.73-7.13-11.662-15.279-15.262-23.279l29.862-29.821c14.23-14.21 17.8-35.5 11.34-55.5-.33-1.02 1.84-3.78 4.17-6.66 23.95 24.91 26.36 61.72 5.2 82.86z" fill="#a4ccff"/><path d="m69.632 442.605c-4.882-4.882-4.882-12.798 0-17.68l351.195-351.196 20.498-12.464c4.882-4.882 8.266-8.385 13.148-3.502 4.882 4.882 3.826 6.972-1.057 11.855l-14.849 21.732-351.255 351.255c-4.882 4.882-12.798 4.882-17.68 0z" fill="#f2f2f2"/><path d="m458.138 66.6c0 3.2-1.22 6.4-3.66 8.84l-15.91 15.91-5.249-10.994c-.626-.295-1.132-.797-1.43-1.422l-11.061-5.204 15.97-15.97c4.88-4.88 12.79-4.88 17.68 0 2.44 2.44 3.66 5.64 3.66 8.84z" fill="#e5e5e5"/><path d="m472.166 109.992-5.636-6.533-17.162-35.914c-.994-2.081-2.678-3.754-4.764-4.736l-50.439-23.738c-4.976-2.342-4.052-9.683 1.35-10.718l88.083-16.873 11.293.751c2.075-.398 3.9 1.417 3.514 3.494l-15.529 92.855c-1.004 5.407-8.338 6.374-10.71 1.412z" fill="#807782"/><path d="m503.538 11.82-19.41 104.63c-1.01 5.41-8.34 6.38-10.71 1.42l-6.89-14.41 17.07-91.98 16.43-3.15c2.07-.4 3.9 1.41 3.51 3.49z" fill="#6f6571"/></g><path d="m496.302 456.9-14.722-7.3c-.067-.034-.135-.066-.203-.098-18.388-8.442-23.541-44.068-14.51-100.315 2.203-13.718 2.651-27.702 1.334-41.563-.392-4.124-4.042-7.144-8.176-6.758-4.124.393-7.148 4.053-6.757 8.176 1.197 12.598.789 25.304-1.212 37.768-10.477 65.253-2.753 104.373 22.955 116.276l14.627 7.253c6.476 3.212 9.145 11.071 5.95 17.521-1.544 3.117-4.214 5.444-7.517 6.553-3.31 1.11-6.86.867-9.997-.689l-14.66-7.269c-52.247-26.645-50.048-101.539-44.087-143.812 2.882-20.445-.003-40.826-8.313-59.322l27.056-27.027c3.245 6.442 6.038 13.136 8.316 20.01 1.044 3.148 3.973 5.142 7.118 5.142.782 0 1.578-.123 2.361-.383 3.932-1.304 6.062-5.548 4.759-9.479-3.027-9.13-6.872-17.98-11.437-26.395l1.428-1.426c10.783-10.773 11.171-28.969.847-39.733-8.993-9.377-23.126-11.396-34.368-4.914v.001c-1.096.632-2.147 1.342-3.151 2.12-2.652-2.193-6.965-5.419-11.05-7.769l-18.38-10.029c-5.768-3.147-11.361-6.74-16.711-10.712l83.577-83.577 15.27 31.954c2.214 4.635 6.845 7.5 11.873 7.499.577 0 1.159-.038 1.743-.114 5.676-.749 10.19-5.034 11.235-10.663l20.216-108.958c.452-2.437-.329-4.939-2.086-6.687s-4.266-2.514-6.699-2.048l-35.322 6.769c-4.068.78-6.734 4.71-5.955 8.777.78 4.069 4.708 6.73 8.778 5.955l24.532-4.701-17.193 92.652-23.173-48.492c-.746-1.562-2.008-2.816-3.573-3.553l-48.605-22.874 33.012-6.325c4.068-.779 6.734-4.709 5.955-8.777-.78-4.069-4.707-6.729-8.778-5.955l-38.505 7.378c-5.623 1.078-9.881 5.618-10.596 11.298-.715 5.681 2.285 11.135 7.464 13.572l32.041 15.08-83.731 83.73c-4.282-5.583-8.152-11.456-11.536-17.544-.007-.009-10.03-18.05-10.243-18.424-1.902-3.263-4.266-6.606-7.044-9.988 8.417-10.916 8.002-27.129-1.507-37.043-8.995-9.378-23.126-11.396-34.368-4.914-2.116 1.22-4.077 2.724-5.835 4.477l-2.253 2.25c-31.955-17.311-69.086-23.516-105.232-17.472-56.25 9.414-91.956 4.512-100.535-13.798-.062-.142-7.217-14.275-7.509-14.859-6.986-13.815-23.909-19.401-37.725-12.451-6.692 3.367-11.667 9.136-14.011 16.248-2.346 7.122-1.773 14.735 1.616 21.437l7.455 14.742c15.013 28.88 43.918 46.687 84.497 52.409l140.143 139.017-120.255 120.255c-26.677-15.788-58.998-13.527-78.676 6.128l-33.89 33.849c-1.409 1.407-2.2 3.315-2.2 5.306s.791 3.899 2.199 5.307c20.606 20.587 49.416 26.379 62.287 27.98 1.603 12.863 7.399 41.642 28.004 62.228 1.464 1.463 3.382 2.194 5.301 2.194 1.918 0 3.836-.731 5.3-2.193l13.359-13.343c2.931-2.927 2.934-7.676.007-10.606-2.927-2.932-7.676-2.933-10.606-.007l-7.749 7.739c-10.973-13.825-15.717-30.757-17.746-41.751 5.07-.033 10.129-1.975 13.989-5.833l37.722-37.722c9.502 18.315 8.821 38.895-2.349 53.262-2.542 3.27-1.953 7.982 1.317 10.524 1.369 1.064 2.989 1.579 4.598 1.579 2.235 0 4.448-.995 5.926-2.896 15.69-20.179 16.103-49.081 1.53-73.492l120.332-120.332 140.011 138.886c5.012 33.865 19.388 66.864 53.068 84.04l14.735 7.307c3.945 1.957 8.197 2.944 12.473 2.944 3.008 0 6.028-.489 8.961-1.473 7.109-2.387 12.857-7.398 16.184-14.114 6.868-13.86 1.159-30.736-12.725-37.62zm-71.713-244.795c5.246-3.025 11.845-2.079 16.048 2.304 4.727 4.929 4.436 13.686-.622 18.739-2.636 2.277-39.73 40.353-42.924 42.551-2.234 1.533-4.878 2.342-7.64 2.294-3.586-.061-6.915-1.539-9.374-4.163-4.773-5.096-4.46-13.434.697-18.586.245-.245 40.896-40.854 41.083-41.04.824-.821 1.743-1.527 2.732-2.099zm-47.261-15.502 18.31 9.99c2.394 1.376 4.89 3.106 7.46 5.15l-28.299 28.271c-.672-.393.093.004-2.286-1.34l-31.258-15.202c-5.273-2.564-10.375-5.567-15.253-8.947l31.09-31.09c6.438 4.919 13.218 9.339 20.236 13.168zm-48.733-41.248-31.095 31.094c-3.609-5.045-6.808-10.342-9.532-15.835-.781-1.315-15.332-31.429-16.382-32.73l28.352-28.323c1.782 2.268 3.316 4.485 4.57 6.628l10.129 18.222c4.057 7.299 8.743 14.316 13.958 20.944zm-46.519-85.604c.001-.001.002-.002.004-.002 2.052-1.184 4.311-1.76 6.553-1.76 3.489 0 6.936 1.395 9.495 4.062 4.727 4.929 4.436 13.685-.623 18.738l-41.047 41.005c-2.543 2.538-5.911 3.866-9.517 3.842-3.585-.061-6.915-1.54-9.374-4.165-4.773-5.095-4.46-13.432.697-18.584l41.082-41.039c.827-.825 1.745-1.531 2.73-2.097zm-163.806 41.891c2.375.069 4.769.117 7.207.117 1.079 0 2.173-.007 3.264-.021 4.142-.052 7.458-3.451 7.406-7.593-.052-4.11-3.399-7.406-7.498-7.406-.032 0-.064 0-.096.001-53.14.693-88.362-14.923-104.65-46.256l-7.417-14.667c-1.578-3.121-1.846-6.663-.755-9.975 1.087-3.3 3.397-5.979 6.504-7.541 6.442-3.241 14.337-.63 17.599 5.819l7.362 14.562c12.094 25.596 51.303 33.041 116.544 22.123 31.359-5.249 63.534-.354 91.641 13.781l-27.101 27.074c-18.752-8.419-39.41-11.269-60.131-8.208-1.795.265-3.646.521-5.537.77-4.107.537-7.001 4.303-6.463 8.41.538 4.106 4.307 6.998 8.41 6.463 1.974-.258 3.906-.526 5.781-.804 16.957-2.502 34.474-.27 50.058 6.288-2.717 9.335-.684 19.775 6.223 27.147 5.259 5.614 12.386 8.778 20.067 8.908 3.492.055 8.398-.728 13.142-2.995l14.701 29.64c3.445 6.946 7.552 13.615 12.233 19.907l-40.962 40.962zm-71.405 274.108c14.008-13.991 36.972-15.968 57.037-5.703l-37.67 37.67c-3.861 3.861-5.802 8.923-5.837 13.992-11.008-2.027-27.957-6.767-41.797-17.726zm37.048 49.647c-1.937 1.938-5.091 1.939-7.001.029-.009-.01-.063-.064-.073-.074-1.938-1.938-1.938-5.091 0-7.028l225.26-225.26c.004-.005.009-.009.014-.014l135.325-135.325 4.779 2.249 2.302 4.817-135.283 135.283c-.003.003-.006.006-.009.009zm190.29-169.075 41.035-41.035c6.17 4.465 12.688 8.384 19.455 11.676l30.309 14.74c-5.416 10.439-4.107 23.592 4.128 32.384 5.259 5.613 12.386 8.776 20.068 8.906 2.3.013 4.809-.189 9.099-1.338 6.41 15.323 8.548 32.078 6.177 48.893-2.068 14.666-3.667 32.951-2.956 52.067z"/></g></svg>