<svg id="Layer_1" enable-background="new 0 0 512.092 512.092" height="512" viewBox="0 0 512.092 512.092" width="512" xmlns="http://www.w3.org/2000/svg"><g><g><path d="m329.524 203.518-296.415 296.752c-5.632 5.638-14.764 5.638-20.396 0s-5.632-14.78 0-20.419l296.416-296.751" fill="#f0b86c"/><g><path d="m503.566 7.499-110.816 55.13-25.494 60.236 21.075 21.099 60.167-25.523z" fill="#9197b8"/></g><path d="m329.178 203.172-19.716-19.738c-5.442-5.448-5.442-14.277 0-19.725 5.447-5.453 14.282-5.453 19.729 0l19.716 19.738c5.442 5.448 5.442 14.277 0 19.725-5.447 5.453-14.282 5.453-19.729 0z" fill="#cacee6"/><path d="m348.894 183.434-19.716-19.738c-5.442-5.448-5.442-14.277 0-19.725 5.447-5.453 14.282-5.453 19.729 0l19.716 19.738c5.442 5.448 5.442 14.277 0 19.725-5.448 5.453-14.283 5.453-19.729 0z" fill="#e6e8f7"/><path d="m368.609 163.696-19.716-19.738c-5.442-5.448-5.442-14.277 0-19.725 5.447-5.453 14.282-5.453 19.729 0l19.716 19.738c5.442 5.448 5.442 14.277 0 19.725-5.447 5.453-14.282 5.453-19.729 0z" fill="#cacee6"/><path d="m348.906 183.447-19.716-19.738c-.055-.055-.116-.101-.171-.155l5.387 5.393c5.443 5.449 5.443 14.276 0 19.725-5.391 5.397-14.1 5.443-19.558.154l14.329 14.346c5.446 5.452 14.282 5.452 19.729 0 5.443-5.449 5.443-14.277 0-19.725z" fill="#bfc4e0"/><path d="m368.622 163.708-19.716-19.738c-.055-.055-.115-.101-.171-.155l5.387 5.393c5.443 5.449 5.443 14.276 0 19.725-5.391 5.397-14.1 5.443-19.558.155l14.329 14.345c5.446 5.452 14.282 5.452 19.729 0 5.443-5.448 5.443-14.276 0-19.725z" fill="#dadcf0"/><path d="m388.338 143.97-19.716-19.738c-.055-.055-.115-.101-.17-.155l5.386 5.393c5.443 5.449 5.443 14.276 0 19.725-5.391 5.397-14.1 5.443-19.558.154l14.33 14.346c5.446 5.452 14.282 5.452 19.729 0 5.441-5.448 5.441-14.276-.001-19.725z" fill="#bfc4e0"/></g><path d="m508.868 2.193c-2.278-2.276-5.757-2.842-8.642-1.409l-110.816 55.131c-1.604.798-2.868 2.143-3.566 3.792l-22.607 53.413c-12.512-2.649-24.869 6.591-25.835 19.341-10.358.78-18.931 9.373-19.717 19.738-14.429 1.086-23.72 16.517-18.061 29.802l-233.17 233.43c-6.624 6.633 3.772 17.447 10.613 10.602l232.062-232.32 9.795 9.806-291.121 291.451c-6.342 6.347-16.108-3.488-9.783-9.817l30.065-30.101c6.633-6.64-3.68-17.544-10.613-10.6l-30.065 30.1c-19.746 19.769 10.803 51.24 31.009 31.02l292.201-292.533c13.142 5.62 28.698-3.778 29.782-18.095 10.359-.78 18.931-9.373 19.716-19.738 13.436-1.012 22.772-14.69 18.867-27.612l52.446-22.248c1.648-.699 2.993-1.966 3.789-3.569l10.387-20.925c4.173-8.407-9.072-15.46-13.436-6.67l-9.153 18.439-52.953 22.463-1.666-1.668 40.275-40.32c6.632-6.641-3.677-17.543-10.613-10.602l-40.263 40.308-1.662-1.664 22.444-53.028 88.351-43.954-17.177 34.604c-4.173 8.407 9.074 15.461 13.436 6.67l27.1-54.595c1.43-2.887.86-6.364-1.419-8.642zm-165.268 195.678c-3.038 2.521-6.077 2.521-9.115.001l-19.716-19.739c-5.888-5.893 3.219-15.027 9.115-9.125l19.703 19.726c2.285 2.753 2.77 6.377.013 9.137zm19.716-19.738c-3.038 2.521-6.077 2.521-9.115.001l-19.704-19.727c-4.445-6.083 2.782-15.468 9.104-9.137l19.716 19.739c2.512 2.515 2.512 6.609-.001 9.124zm19.715-19.738c-2.824 2.829-6.78 1.868-9.429-.314l-19.402-19.425c-5.887-5.892 3.221-15.029 9.116-9.124l19.716 19.739c2.512 2.515 2.512 6.608-.001 9.124z" fill="#060606"/></g></svg>