<svg id="Capa_1" enable-background="new 0 0 512.09 512.09" height="512" viewBox="0 0 512.09 512.09" width="512" xmlns="http://www.w3.org/2000/svg"><g><g><path d="m431.997 400.623c93.236-93.236 97.056-240.582 8.532-329.106s-235.87-84.704-329.106 8.532l18.078 18.078c36.287-36.287 81.779-57.462 128.048-63.279 3.074-.386 6.1 1.018 7.789 3.616l29.967 46.087c1.053 1.62 3.387 1.724 4.581.205l29.411-37.44c1.468-1.869 4.449-1.194 4.968 1.126l10.399 46.471c.419 1.871 2.543 2.788 4.191 1.808l40.891-24.299c2.053-1.22 4.598.505 4.225 2.864l-7.429 46.993c-.299 1.891 1.334 3.524 3.225 3.225l46.993-7.429c2.359-.373 4.084 2.172 2.864 4.225l-24.299 40.892c-.98 1.648-.063 3.773 1.808 4.191l46.471 10.399c2.32.519 2.995 3.5 1.126 4.968l-37.441 29.411c-1.519 1.194-1.415 3.527.205 4.581l46.086 29.967c2.598 1.689 4.002 4.715 3.616 7.789-5.817 46.268-26.992 91.76-63.278 128.047z" fill="#86a0af"/></g><g><path d="m400.581 432.04c-93.236 93.236-240.582 97.056-329.106 8.532s-84.704-235.87 8.532-329.106l18.078 18.078c-36.287 36.287-57.462 81.779-63.279 128.048-.386 3.074 1.018 6.1 3.616 7.789l46.087 29.967c1.62 1.053 1.724 3.387.205 4.581l-37.44 29.411c-1.869 1.468-1.194 4.449 1.126 4.968l46.471 10.399c1.871.419 2.788 2.543 1.808 4.191l-24.299 40.892c-1.22 2.053.505 4.598 2.864 4.225l46.993-7.429c1.891-.299 3.524 1.334 3.225 3.225l-7.429 46.993c-.373 2.359 2.172 4.084 4.225 2.864l40.892-24.299c1.648-.98 3.773-.063 4.191 1.808l10.399 46.471c.519 2.32 3.5 2.995 4.968 1.126l29.411-37.441c1.194-1.519 3.527-1.415 4.581.205l29.967 46.086c1.689 2.598 4.715 4.002 7.789 3.616 46.268-5.817 91.76-26.992 128.047-63.278z" fill="#86a0af"/></g><g><path d="m99.963 131.422-21.94-21.94c-1.908-1.908-1.908-5.001 0-6.909l24.508-24.508c1.908-1.908 5.001-1.908 6.909 0l21.94 21.94c1.908 1.908 1.908 5.001 0 6.909l-24.508 24.508c-1.908 1.908-5.001 1.908-6.909 0z" fill="#b4d0d5"/></g><g><circle cx="256.002" cy="256.045" fill="#b4d0d5" r="43.247"/></g><g><path d="m286.582 225.464c-7.724-7.724-17.644-11.915-27.75-12.574 14.602 16.991 13.853 42.632-2.25 58.734-9.165 9.165-21.419 13.355-33.41 12.574.713.83 1.463 1.64 2.25 2.426 16.889 16.889 44.271 16.889 61.161 0 16.888-16.888 16.888-44.271-.001-61.16z" fill="#9bb9c1"/></g><g><path d="m225.422 225.464c3.829-3.829 8.198-6.79 12.862-8.883l-108.286-108.285-21.745 21.745 108.285 108.285c2.093-4.664 5.054-9.032 8.884-12.862z" fill="#738b95"/></g><g><path d="m380.624 412.083 21.94 21.94c1.908 1.908 5.001 1.908 6.909 0l24.508-24.508c1.908-1.908 1.908-5.001 0-6.909l-21.94-21.94c-1.908-1.908-5.001-1.908-6.909 0l-24.508 24.508c-1.908 1.908-1.908 5.002 0 6.909z" fill="#b4d0d5"/></g><g><path d="m286.582 286.625c3.829-3.829 6.79-8.198 8.883-12.862l108.285 108.285-21.745 21.745-108.285-108.285c4.664-2.093 9.033-5.054 12.862-8.883z" fill="#738b95"/></g><path d="m493.363 157.22c-3.976 1.16-6.259 5.323-5.1 9.3 22.619 77.547 1.027 162.461-56.347 223.416l-7.477-7.478c32.999-35.215 54.291-80.038 60.199-127.024.74-5.886-1.995-11.779-6.969-15.013l-40.604-26.402 32.299-25.372c3.165-2.487 4.578-6.47 3.688-10.396s-3.883-6.91-7.811-7.789l-40.173-8.99 21.002-35.343c2.065-3.476 1.939-7.715-.33-11.062s-6.162-5.033-10.152-4.402l-40.634 6.424 6.424-40.633c.632-3.994-1.056-7.885-4.403-10.154s-7.586-2.395-11.061-.329l-35.343 21.001-8.989-40.174c-.879-3.927-3.864-6.92-7.789-7.809-3.928-.892-7.909.524-10.396 3.689l-25.369 32.3-26.402-40.605c-3.235-4.973-9.131-7.71-15.012-6.967-46.987 5.907-91.81 27.2-127.026 60.199l-7.477-7.477c90.38-85.055 229.339-87.086 313.115-3.309 16.891 16.891 30.647 36.344 40.889 57.817 1.775 3.721 6.243 5.333 9.998 3.541 3.738-1.783 5.324-6.259 3.541-9.998-10.978-23.018-25.721-43.866-43.82-61.967-44.285-44.283-104.067-67.749-168.285-66.088-61.936 1.606-120.876 26.409-166.698 70.006-4.514-1.921-9.946-1.043-13.623 2.632l-24.508 24.507c-3.675 3.676-4.552 9.108-2.63 13.622-43.596 45.822-68.4 104.761-70.006 166.698-1.665 64.236 21.806 124.001 66.088 168.284 42.813 42.812 100.093 66.171 161.897 66.171 63.931 0 125.462-24.779 173.085-70.089 4.537 1.931 9.962 1.028 13.623-2.631l24.508-24.508c3.675-3.676 4.552-9.108 2.63-13.622 61.702-64.883 84.982-155.798 60.75-238.876-1.162-3.977-5.327-6.261-9.302-5.1zm-363.365-38.317 17.143 17.143c2.93 2.929 7.678 2.929 10.607 0s2.929-7.678 0-10.606l-18.073-18.073c.907-2.743.831-5.742-.227-8.443 32.977-31.06 75.001-51.098 119.037-56.634.22-.027.444.076.564.262l29.967 46.086c1.81 2.785 4.872 4.536 8.19 4.685 3.323.139 6.524-1.323 8.575-3.934l23.319-29.683 8.245 36.846c.72 3.216 2.956 5.916 5.983 7.221 3.023 1.304 6.524 1.08 9.357-.604l32.32-19.206-5.872 37.145c-.514 3.25.569 6.581 2.896 8.908s5.66 3.408 8.907 2.896l37.146-5.873-19.206 32.321c-1.684 2.833-1.909 6.331-.604 9.357 1.306 3.027 4.005 5.264 7.223 5.984l36.845 8.245-29.682 23.316c-2.613 2.052-4.084 5.258-3.936 8.577.147 3.318 1.898 6.38 4.683 8.19l46.088 29.967c.187.122.29.344.262.566-5.536 44.035-25.575 86.059-56.634 119.035-2.7-1.058-5.699-1.133-8.442-.226l-100.45-100.452c5.73-17.468 1.778-37.638-12.343-51.758-14.148-14.148-34.34-18.058-51.759-12.343l-57.531-57.531c-2.93-2.929-7.678-2.929-10.607 0s-2.929 7.678 0 10.606l54.127 54.127c-4.112 3.009-7.93 6.754-11.138 11.137l-96.116-96.117zm161.888 173.025c1.882-1.883 3.598-3.888 5.141-5.996l96.116 96.117-11.137 11.138-96.117-96.117c2.109-1.544 4.114-3.259 5.997-5.142zm-10.607-10.607c-.001 0-.001 0 0 0-6.564 6.564-15.469 10.47-25.277 10.47-19.756 0-35.747-15.987-35.747-35.747 0-19.791 16.018-35.747 35.747-35.747 19.756 0 35.747 15.987 35.747 35.747 0 9.26-3.52 18.328-10.47 25.277zm-175.294-196.103c3.936 3.933 18.051 18.053 18.242 18.242l-20.809 20.81c-.273-.275-18.142-18.142-18.242-18.242zm-29.207 350.051c-83.777-83.777-81.747-222.735 3.309-313.115l7.477 7.477c-33 35.216-54.293 80.04-60.199 127.025-.74 5.887 1.995 11.78 6.969 15.013l40.604 26.401-32.298 25.371c-3.166 2.487-4.58 6.47-3.69 10.396s3.883 6.911 7.812 7.79l40.172 8.99-21.001 35.342c-2.066 3.476-1.939 7.715.329 11.062 2.27 3.347 6.16 5.03 10.152 4.402l40.634-6.423-6.424 40.632c-.632 3.994 1.056 7.884 4.402 10.153 3.348 2.269 7.585 2.396 11.062.33l35.344-21.002 8.989 40.174c.879 3.928 3.864 6.92 7.79 7.81 3.926.889 7.909-.524 10.395-3.689l25.371-32.297 26.402 40.604c3.253 5.002 9.166 7.706 15.013 6.968 26.481-3.329 52.035-11.356 75.951-23.856 3.671-1.919 5.091-6.45 3.172-10.121s-6.45-5.09-10.121-3.173c-22.326 11.67-46.171 19.162-70.874 22.268-.221.026-.444-.076-.565-.263l-29.967-46.085c-1.81-2.785-4.872-4.536-8.19-4.685-3.327-.151-6.524 1.323-8.575 3.934l-23.317 29.683-8.244-36.845c-.721-3.216-2.957-5.916-5.983-7.222-3.028-1.305-6.526-1.079-9.359.604l-32.32 19.206 5.872-37.146c.514-3.251-.569-6.582-2.896-8.908-2.327-2.327-5.655-3.408-8.907-2.895l-37.145 5.872 19.205-32.32c1.685-2.833 1.91-6.332.604-9.358s-4.006-5.263-7.223-5.983l-36.844-8.245 29.684-23.318c2.611-2.052 4.082-5.258 3.934-8.576-.149-3.318-1.9-6.379-4.685-8.189l-46.089-29.968c-.187-.122-.29-.344-.262-.566 5.536-44.034 25.573-86.058 56.634-119.036 2.698 1.057 5.691 1.136 8.443.227l100.451 100.451c-5.73 17.468-1.778 37.638 12.343 51.759 14.148 14.148 34.34 18.057 51.759 12.343l100.451 100.451c-.907 2.744-.831 5.744.228 8.444-6.436 6.067-13.239 11.751-20.287 16.945-3.335 2.457-4.046 7.152-1.589 10.487 2.458 3.335 7.154 4.045 10.487 1.588 7.378-5.437 14.502-11.373 21.25-17.703l7.476 7.476c-90.382 85.056-229.339 87.085-313.116 3.309zm329.24-8.398c-3.179-3.177-18.041-18.043-18.242-18.242l20.809-20.81c.93.935 17.788 17.787 18.242 18.242z"/></g></svg>