<svg id="Capa_1" enable-background="new 0 0 512 512" height="512" viewBox="0 0 512 512" width="512" xmlns="http://www.w3.org/2000/svg"><g><g><g><path d="m322.05 363.695c27.51-12.459 48.58-34.34 57.914-68.116l-40.704-128.168c-2.624-3.074-57.168-23.137-88.929-34.638-14.229-5.152-29.98-3.973-43.28 3.245l-155.948 84.627c-16.104 8.739-26.134 25.592-26.134 43.915v66.778l-12.96 21.61c-3.457 5.764-3.554 12.939-.255 18.795l39.928 70.872c2.613 4.637 7.522 7.506 12.845 7.506h27.351c3.814 0 6.328-3.971 4.697-7.418l-32.94-69.619c-1.327-2.804.436-6.095 3.508-6.525 11.326-1.585 35.435-6.798 51-23.339 48.051 23.784 106.053 37.519 155.714 32.688l3.809 22.387 58.113 48.412c2.649 2.207 5.988 3.416 9.436 3.416h23.503c4.431 0 6.829-5.189 3.957-8.564l-48.694-57.219z" fill="#8c818f"/><g fill="#766d78"><path d="m372.676 441.558c2.871 3.371.47 8.563-3.961 8.563h-22.418c4.432 0 6.832-5.192 3.961-8.563l-48.696-57.219-1.651-27.059c-.17-2.751 1.38-5.332 3.881-6.492 25.469-11.724 44.895-23.158 53.748-55.208l2.241-63.551 20.187 63.551c-9.343 33.771-30.41 55.659-57.919 68.113l1.931 20.647z"/><path d="m273.853 375.906c-49.667 4.831-107.656-8.903-155.712-32.681 5.182-5.502 9.413-12.254 11.914-20.547 43.865 19.577 94.552 31.1 139.657 28.89z"/><path d="m108.298 255.254-.013.006c-5.153 2.184-7.616 8.037-5.665 13.283 29.199 78.547-39.886 87.306-61.724 88.147-2.983.115-4.893 3.213-3.644 5.925l36.883 80.09c1.631 3.447-.883 7.418-4.697 7.418h22.441c3.814 0 6.328-3.971 4.697-7.418l-32.939-69.618c-1.33-2.811.447-6.096 3.527-6.528 21.947-3.074 91.729-19.749 54.754-105.856-2.258-5.253-8.358-7.68-13.62-5.449z"/></g><g><g fill="#766d78"><path d="m449.282 100.489-47.27 42.755 15.67 15.122s33.585 4.321 40.467-11.666c5.149-11.962.047-34.083-2.848-44.464-.736-2.639-3.986-3.585-6.019-1.747z"/><path d="m275.634 100.489 47.27 42.755-15.67 15.122s-33.585 4.321-40.467-11.666c-5.149-11.962-.047-34.083 2.848-44.464.737-2.639 3.987-3.585 6.019-1.747z"/></g><path d="m401.039 109.424c-1.638-2.397-4.988-2.856-7.211-.989l-14.222 11.95c-.991.833-2.5.519-3.078-.64l-9.677-19.421c-1.807-3.626-6.981-3.626-8.788 0l-9.677 19.421c-.577 1.159-2.087 1.472-3.078.64l-14.222-11.95c-2.223-1.868-5.573-1.409-7.211.989l-53.272 77.948c-4.848 7.094-5.662 16.196-2.15 24.038l20.655 46.118h146.697l20.655-46.118c3.512-7.841 2.698-16.944-2.15-24.038z" fill="#a29aa5"/><g fill="#f7f3f1"><path d="m482.008 201.258-3.442 20.855c-1.721 10.428-10.738 18.079-21.307 18.079h-54.029v38.336h56.313c24.829 0 44.958-20.128 44.958-44.958v-30.497c0-5.315-4.111-9.725-9.413-10.098l-2.382-.167c-5.213-.365-9.847 3.295-10.698 8.45z"/><path d="m242.908 201.258 3.442 20.855c1.721 10.428 10.738 18.079 21.307 18.079h54.029v38.336h-56.313c-24.829 0-44.958-20.128-44.958-44.958v-30.497c0-5.315 4.111-9.725 9.413-10.098l2.382-.167c5.213-.365 9.848 3.295 10.698 8.45z"/></g><path d="m397.978 206.52h-71.039l-22.845 20.612c-2.208 1.992-3.468 4.826-3.468 7.8v62.644h123.664v-62.644c0-2.974-1.26-5.808-3.468-7.8z" fill="#a29aa5"/><path d="m378.061 250.74h-31.206c-6.442 0-12.519 2.993-16.445 8.1l-29.784 38.735 21.137 16.793c3.154 2.506 7.064 3.87 11.093 3.87h59.204c4.029 0 7.939-1.364 11.093-3.87l21.137-16.793-29.784-38.735c-3.926-5.107-10.003-8.1-16.445-8.1z" fill="#cdb1b1"/></g><path d="m99.643 80.516c5.503 6.338 6.892 19.161.038 25.111s-19.354 2.775-24.857-3.563-18.901-32.993-12.047-38.944 31.363 11.058 36.866 17.396z" fill="#766d78"/></g></g><g><path d="m495.624 185.507-2.384-.17c-9.129-.64-17.142 5.677-18.63 14.711l-3.439 20.843c-1.135 6.841-6.985 11.807-13.911 11.807h-2.113l8.158-18.215c4.542-10.147 3.469-22.154-2.803-31.336l-13.193-19.305c10.763-3.295 15.589-9.197 17.729-14.167 5.664-13.153 1.758-34.148-2.51-49.425-1.042-3.769-3.907-6.669-7.664-7.76-3.754-1.087-7.725-.172-10.614 2.446l-27.214 24.606-9.811-14.356c-4.172-6.079-12.658-7.164-18.219-2.478l-8.875 7.458-6.564-13.175c-4.557-9.166-17.638-9.167-22.22-.003l-6.558 13.176-8.865-7.45c-5.586-4.704-14.062-3.597-18.235 2.484l-9.81 14.354-27.211-24.611c-2.895-2.624-6.863-3.538-10.614-2.452-3.755 1.089-6.619 3.99-7.656 7.741-2.264 8.106-4.41 17.808-5.099 27.1-.509-.185-4.415-1.604-4.415-1.604-16.233-5.875-34.243-4.522-49.409 3.71l-106.969 58.05c-3.641 1.976-4.99 6.528-3.015 10.169 1.966 3.623 6.511 5 10.169 3.015l106.97-58.05c11.401-6.189 24.942-7.208 37.14-2.792 0 0 7.716 2.804 10.259 3.73.446 2.169 1.041 4.231 1.854 6.117 2.14 4.97 6.966 10.873 17.729 14.168l-13.193 19.306c-6.275 9.186-7.353 21.193-2.812 31.336l8.158 18.214h-2.103c-6.932 0-12.782-4.963-13.91-11.801l-3.439-20.848c-1.489-9.036-9.504-15.362-18.635-14.712l-2.368.169c-9.189.642-16.387 8.36-16.387 17.572v30.5c0 28.926 23.529 52.459 52.45 52.459h27.758v11.547c0 2.326 1.115 4.501 2.834 5.873l21.135 16.791c4.462 3.545 10.059 5.498 15.758 5.498h24.817c-9.577 13.352-22.545 23.802-38.719 31.13-2.915 1.32-4.67 4.344-4.372 7.53l1.93 20.64c.144 1.535.757 2.989 1.756 4.163l45.465 53.418h-18.514c-1.693 0-3.344-.597-4.639-1.672l-55.984-46.639-3.342-19.655c-.005-.031-.014-.06-.02-.091l-8.17-47.99c-.695-4.083-4.571-6.83-8.652-6.135-4.083.695-6.83 4.569-6.135 8.652l6.803 39.958c-41.458 2.254-90.78-8.157-135.186-28.539 3.933-5.903 6.74-12.456 8.398-19.631 4.63-20.038-.069-44.554-13.968-72.867-1.825-3.719-6.317-5.253-10.038-3.427-3.718 1.825-5.252 6.319-3.427 10.038 16.879 34.384 23.785 71.104-8.562 91.956-13.282 8.479-28.956 11.541-36.196 12.557-3.79.531-7.137 2.858-8.954 6.227-1.822 3.377-1.929 7.467-.286 10.938l31.375 66.322h-23.705c-2.61 0-5.033-1.415-6.315-3.681l-39.927-70.879c-1.971-3.504-1.912-7.815.155-11.256l12.96-21.61c.699-1.166 1.068-2.499 1.068-3.857v-66.779c0-15.591 8.508-29.89 22.208-37.318l18.22-9.89c3.64-1.976 4.989-6.529 3.013-10.169s-6.53-4.99-10.169-3.013l-18.217 9.888c-14.112 7.652-24.147 20.695-28.139 35.793-2.692-4.477-4.322-9.784-4.386-15.077-.473-40.465 51.771-54.829 78.381-83.423 8.533-9.172 21.097-28.871 14.825-44.26 6.027-9.423 4.002-23.541-2.9-31.49-3.689-4.249-12.067-10.528-19.923-14.931-12.768-7.156-21.771-8.207-27.524-3.21-5.754 4.996-5.978 14.057-.686 27.702 3.257 8.396 8.298 17.573 11.986 21.822 5.803 6.684 16.32 10.633 25.721 8.865.276 7.479-6.176 18.505-12.482 25.284-7.758 8.336-18.55 15.624-29.975 23.339-24.763 16.723-52.831 35.677-52.424 70.48.166 13.676 7.04 27.08 17.469 34.774v59.538l-11.888 19.823c-4.834 8.048-4.975 18.136-.365 26.333l39.937 70.892c3.946 6.974 11.371 11.307 19.377 11.307h27.35c4.379 0 8.391-2.21 10.731-5.913 2.338-3.701 2.612-8.271.739-12.214l-31.277-66.115c16.948-2.932 34.593-9.571 47.536-21.11 45.039 21.392 99.693 34.67 148.003 31.661 2.745 12.463 1.416 16.929 5.25 20.127l58.125 48.424c3.992 3.314 9.046 5.14 14.231 5.14h23.5c5.009 0 9.426-2.826 11.527-7.374 2.1-4.546 1.389-9.738-1.855-13.547l-47.164-55.416-1.223-13.077c19.669-9.933 34.944-24.19 45.518-42.467h16.537c5.699 0 11.295-1.953 15.758-5.498l21.137-16.791c1.786-1.416 2.835-3.637 2.835-5.873v-11.547h27.75c4.142 0 7.5-3.358 7.5-7.5s-3.358-7.5-7.5-7.5h-27.75v-23.339h25.47c14.294 0 26.369-10.242 28.71-24.359l3.44-20.851c.221-1.344 1.407-2.285 2.765-2.188l2.392.171c1.364.095 2.433 1.241 2.433 2.608v30.5c0 10.004-3.897 19.411-10.973 26.486-2.929 2.929-2.929 7.678 0 10.607 1.464 1.465 3.384 2.197 5.303 2.197s3.839-.732 5.303-2.196c9.909-9.909 15.367-23.083 15.367-37.093v-30.5c-.001-9.214-7.199-16.932-16.377-17.573zm-415.133-88.351c-4.667-5.375-11.778-21.224-12.167-27.641 6.3 1.287 20.994 10.553 25.659 15.927 3.111 3.583 4.042 11.703.785 14.531-3.281 2.849-11.163.77-14.277-2.817zm369.147 13.13c3.565 14.926 4.216 27.436 1.624 33.457-1.398 3.247-6.059 5.659-13.014 6.838l-12.67-18.541zm-175.977 33.456c-2.592-6.018-1.943-18.518 1.622-33.447l24.055 21.756-12.663 18.53c-6.955-1.179-11.616-3.591-13.014-6.839zm1.636 64.611c-2.461-5.499-1.898-11.759 1.507-16.744l51.65-75.58 12.039 10.117c2.236 1.874 5.159 2.613 8.018 2.022 2.864-.59 5.261-2.424 6.594-5.068l7.352-14.772 7.377 14.807c1.316 2.609 3.713 4.444 6.578 5.033 2.861.589 5.783-.149 8.024-2.028l12.032-10.111 51.649 75.579c3.402 4.981 3.962 11.241 1.499 16.744l-10.904 24.346h-7.076c-.537-4.261-2.573-8.232-5.79-11.128l-22.84-20.61c-3.075-2.775-7.817-2.532-10.593.544-2.775 3.075-2.531 7.817.544 10.593l22.846 20.615c.628.565.988 1.377.988 2.226v40.587l-16.337-21.25c-5.31-6.905-13.68-11.028-22.391-11.028h-31.205c-8.711 0-17.082 4.123-22.391 11.028l-16.335 21.248v-35.307l.001-.019-.001-.019v-5.241c0-.852.362-1.667.984-2.23l22.85-20.61c3.076-2.774 3.32-7.517.546-10.593-2.775-3.075-7.517-3.32-10.593-.546l-22.858 20.617c-3.21 2.903-5.239 6.87-5.774 11.122h-7.087zm-9.925 62.684c-20.65 0-37.45-16.804-37.45-37.459v-30.5c0-1.367 1.068-2.513 2.444-2.609l2.377-.17c1.369-.098 2.547.845 2.769 2.19l3.44 20.849c2.327 14.115 14.401 24.36 28.709 24.36h25.469v23.339zm133.117 37.465c-1.82 1.446-4.103 2.243-6.428 2.243h-59.203c-2.325 0-4.607-.796-6.427-2.243l-15.355-12.199 25.282-32.885c2.49-3.238 6.415-5.171 10.5-5.171h31.205c4.085 0 8.01 1.933 10.5 5.171l25.284 32.885z"/><path d="m310.571 195.352c4.142 0 7.5-3.358 7.5-7.5v-6.523c0-4.142-3.358-7.5-7.5-7.5s-7.5 3.358-7.5 7.5v6.523c0 4.142 3.358 7.5 7.5 7.5z"/><path d="m414.348 195.352c4.142 0 7.5-3.358 7.5-7.5v-6.523c0-4.142-3.358-7.5-7.5-7.5s-7.5 3.358-7.5 7.5v6.523c0 4.142 3.358 7.5 7.5 7.5z"/><path d="m349.544 280.634c-2.696-3.145-7.432-3.508-10.576-.813-3.145 2.696-3.509 7.431-.813 10.576l2.208 2.576c1.484 1.73 3.584 2.619 5.698 2.619 1.728 0 3.464-.594 4.878-1.806 3.145-2.696 3.509-7.431.813-10.576z"/><path d="m385.95 279.821c-3.146-2.695-7.88-2.331-10.576.814l-2.208 2.576c-2.695 3.145-2.331 7.88.814 10.576 1.415 1.212 3.15 1.805 4.877 1.805 2.114 0 4.215-.889 5.698-2.619l2.208-2.576c2.696-3.146 2.332-7.88-.813-10.576z"/></g></g></svg>