<?xml version="1.0" encoding="iso-8859-1"?>
<!-- Generator: Adobe Illustrator 19.0.0, SVG Export Plug-In . SVG Version: 6.00 Build 0)  -->
<svg version="1.1" id="Capa_1" xmlns="http://www.w3.org/2000/svg" xmlns:xlink="http://www.w3.org/1999/xlink" x="0px" y="0px"
	 viewBox="0 0 512 512" style="enable-background:new 0 0 512 512;" xml:space="preserve">
<path style="fill:#4A4A4A;" d="M272.281,120.5h-32v-48c0-8.837,7.163-16,16-16l0,0c8.837,0,16,7.163,16,16V120.5z"/>
<path style="fill:#3F3D3E;" d="M272.281,96.669c-5.277-0.435-10.611-0.669-16-0.669s-10.723,0.233-16,0.669V121h32V96.669z"/>
<circle style="fill:#FFBE14;" cx="256.28" cy="312.5" r="192"/>
<circle style="fill:#A0F5F5;" cx="256.28" cy="312.5" r="160"/>
<path style="fill:#4BD2DC;" d="M288.281,448c-88.366,0-160-71.634-160-160c0-44.549,18.213-84.839,47.591-113.848
	c-47.596,27.723-79.591,79.296-79.591,138.348c0,88.366,71.634,160,160,160c43.817,0,83.514-17.62,112.409-46.152
	C345.063,440.11,317.595,448,288.281,448z"/>
<polygon style="fill:#FFE05F;" points="288.281,344.5 176.281,392.5 224.281,280.5 336.281,232.5 "/>
<polygon style="fill:#FFBE14;" points="336.281,232.5 288.281,344.5 176.281,392.5 "/>
<g>
	<circle style="fill:#FFFFFF;" cx="256.28" cy="312.5" r="16"/>
	<rect x="248.78" y="176" style="fill:#FFFFFF;" width="15" height="16"/>
	<rect x="248.78" y="432" style="fill:#FFFFFF;" width="15" height="16"/>
	<rect x="376.28" y="305" style="fill:#FFFFFF;" width="16" height="15"/>
	<rect x="120.28" y="305" style="fill:#FFFFFF;" width="16" height="15"/>
</g>
<path d="M279.281,114.391V88.786c15-8.383,24.25-24.088,24.25-41.286c0-26.191-21.184-47.5-47.375-47.5s-47.688,21.309-47.688,47.5
	c0,17.197,9.813,32.902,23.813,41.286v25.605c-98,11.667-175.75,96.055-175.75,198.109c0,110.005,89.62,199.5,199.625,199.5
	s199.313-89.495,199.313-199.5C455.469,210.446,378.281,126.058,279.281,114.391z M256.281,15c17.921,0,32.5,14.58,32.5,32.5
	c0,8.583-3.39,16.611-9.127,22.561C278.43,58.245,268.416,49,256.281,49s-22.149,9.245-23.373,21.061
	c-5.737-5.95-9.127-13.978-9.127-22.561C223.781,29.58,238.36,15,256.281,15z M247.281,72.5c0-4.687,3.814-8.5,8.5-8.5
	s8.5,3.813,8.5,8.5v40.693c-2-0.119-5.651-0.193-8.5-0.193s-5.5,0.075-8.5,0.193V72.5z M256.281,497
	c-101.733,0-184.5-82.766-184.5-184.5S154.548,128,256.281,128s184.5,82.766,184.5,184.5S358.015,497,256.281,497z"/>
<path d="M256.281,145c-92.359,0-167.5,75.14-167.5,167.5S163.922,480,256.281,480c44.113,0,85.753-17.005,117.25-47.881
	l-10.5-10.712C334.354,449.519,296.443,465,256.281,465c-84.089,0-152.5-68.411-152.5-152.5S172.192,160,256.281,160
	s152.5,68.411,152.5,152.5c0,29.765-8.576,58.602-24.8,83.394l12.551,8.214c17.826-27.239,27.249-58.917,27.249-91.607
	C423.781,220.14,348.641,145,256.281,145z"/>
<path d="M352.281,320v-15H313.37l36.941-86.78l-87.029,37.191V217h-15v44.84l-22.537,9.766l-52.853-52.978l-10.545,10.606
	l53.009,52.978L205.621,305h-45.34v15h38.912l-37.441,86.78l86.529-37.191V409h15v-45.84l23.037-9.766l53.102,52.978l10.67-10.607
	l-52.947-52.978L306.941,320H352.281z M303.439,254.735l-36.71,36.709c-3.207-1.595-6.762-2.445-10.448-2.445
	c-6.277,0-12.179,2.445-16.616,6.883c-4.439,4.438-6.884,10.34-6.884,16.617c0,3.687,0.849,7.241,2.445,10.448l-36.71,36.71
	l31.477-73.447L303.439,254.735z M250.271,318.51c-1.605-1.605-2.489-3.74-2.489-6.01s0.884-4.405,2.49-6.01
	c1.605-1.605,3.739-2.49,6.01-2.49c2.271,0,4.404,0.884,6.01,2.49l0.001,0.001c1.605,1.605,2.489,3.74,2.489,6.01
	s-0.884,4.405-2.49,6.01c-1.605,1.605-3.739,2.49-6.01,2.49C254.011,321,251.877,320.116,250.271,318.51z M209.124,370.265
	l36.709-36.709c3.207,1.595,6.762,2.445,10.448,2.445c6.277,0,12.179-2.445,16.616-6.883c4.439-4.438,6.884-10.34,6.884-16.617
	c0-3.687-0.849-7.241-2.445-10.448l36.71-36.71l-31.478,73.447L209.124,370.265z"/>
<g>
</g>
<g>
</g>
<g>
</g>
<g>
</g>
<g>
</g>
<g>
</g>
<g>
</g>
<g>
</g>
<g>
</g>
<g>
</g>
<g>
</g>
<g>
</g>
<g>
</g>
<g>
</g>
<g>
</g>
</svg>
