<?xml version="1.0" encoding="iso-8859-1"?>
<!-- Generator: Adobe Illustrator 19.0.0, SVG Export Plug-In . SVG Version: 6.00 Build 0)  -->
<svg version="1.1" id="Capa_1" xmlns="http://www.w3.org/2000/svg" xmlns:xlink="http://www.w3.org/1999/xlink" x="0px" y="0px"
	 viewBox="0 0 512 512" style="enable-background:new 0 0 512 512;" xml:space="preserve">
<path style="fill:#737887;" d="M272,504.5h-32c-8.837,0-16-7.163-16-16V320h64v168.5C288,497.337,280.837,504.5,272,504.5z"/>
<rect x="224" y="336" style="fill:#555A6E;" width="64" height="24.5"/>
<path style="fill:#FFFFFF;" d="M288,304h-64V71.5c0-35.346,28.654-64,64-64l0,0V304z"/>
<path style="fill:#BEC8D7;" d="M224,71.5V304h32V16.083C236.876,27.151,224,47.815,224,71.5z"/>
<path style="fill:#737887;" d="M304,336h-96c-8.837,0-16-7.163-16-16l0,0c0-8.837,7.163-16,16-16h96c8.837,0,16,7.163,16,16l0,0
	C320,328.837,312.837,336,304,336z"/>
<path d="M304,297h-73v-49h17v24h15V112h-15v25h-17V71.5c0-28.612,22-52.325,49-56.004V272h15V0h-7c-39.425,0-72,32.075-72,71.5V297
	h-8c-12.958,0-23.5,10.542-23.5,23.5S195.042,344,208,344h8v144.5c0,12.958,11.042,23.5,24,23.5h32c12.958,0,23-10.542,23-23.5V344
	h9c12.958,0,23.5-10.542,23.5-23.5S316.958,297,304,297z M231,233v-17h17v17H231z M231,201v-17h17v17H231z M248,152v17h-17v-17H248z
	 M253.893,344L231,365.893V344H253.893z M280,412.893l-49,49v-26.787l49-49V412.893z M231,488.5v-5.394l49-49v26.786L244.394,497
	H240C235.313,497,231,493.187,231,488.5z M272,497h-6.393L280,482.107v6.393C280,493.187,276.686,497,272,497z M280,364.893l-49,49
	v-26.787L275.107,344H280V364.893z M304,329h-96c-4.687,0-8.5-3.813-8.5-8.5s3.813-8.5,8.5-8.5h96c4.686,0,8.5,3.813,8.5,8.5
	S308.686,329,304,329z"/>
<g>
</g>
<g>
</g>
<g>
</g>
<g>
</g>
<g>
</g>
<g>
</g>
<g>
</g>
<g>
</g>
<g>
</g>
<g>
</g>
<g>
</g>
<g>
</g>
<g>
</g>
<g>
</g>
<g>
</g>
</svg>
