<?xml version="1.0" encoding="iso-8859-1"?>
<!-- Generator: Adobe Illustrator 19.0.0, SVG Export Plug-In . SVG Version: 6.00 Build 0)  -->
<svg version="1.1" id="Capa_1" xmlns="http://www.w3.org/2000/svg" xmlns:xlink="http://www.w3.org/1999/xlink" x="0px" y="0px"
	 viewBox="0 0 512 512" style="enable-background:new 0 0 512 512;" xml:space="preserve">
<rect x="224" y="7.5" style="fill:#C35A1E;" width="64" height="497"/>
<g>
	<rect x="224" y="144" style="fill:#874114;" width="64" height="32"/>
	<rect x="224" y="288" style="fill:#874114;" width="64" height="32"/>
</g>
<polygon style="fill:#F58C46;" points="96,144 96,48 400,48 448,96 400,144 "/>
<rect x="96" y="48" style="fill:#C35A1E;" width="32" height="96"/>
<polygon style="fill:#F58C46;" points="416,288 416,192 112,192 64,240 112,288 "/>
<rect x="384" y="192" style="fill:#C35A1E;" width="32" height="96"/>
<g>
	<rect x="352" y="232.5" style="fill:#FFFFFF;" width="16" height="15"/>
	<rect x="144" y="88.5" style="fill:#FFFFFF;" width="16" height="15"/>
	<rect x="176" y="88.5" style="fill:#FFFFFF;" width="16" height="15"/>
</g>
<path d="M295,152h108.106l55.5-55.5l-55.5-55.5H295V0h-79v41H88v111h128v33H108.894l-55.5,55.5l55.5,55.5H216v201h-40v15h160v-15
	H231V296h49v184h15V296h128V185H295V152z M437.394,96.5l-40.5,40.5H135V56h261.894L437.394,96.5z M231,15h49v26h-49V15z M103,56h17
	v81h-17V56z M231,152h49v33h-49V152z M74.606,240.5l40.5-40.5H376v81H115.106L74.606,240.5z M408,281h-17v-81h17V281z"/>
<rect x="192" y="233" width="144" height="15"/>
<rect x="144" y="233" width="32" height="15"/>
<rect x="208" y="89" width="160" height="15"/>
<g>
</g>
<g>
</g>
<g>
</g>
<g>
</g>
<g>
</g>
<g>
</g>
<g>
</g>
<g>
</g>
<g>
</g>
<g>
</g>
<g>
</g>
<g>
</g>
<g>
</g>
<g>
</g>
<g>
</g>
</svg>
