<?xml version="1.0" encoding="iso-8859-1"?>
<!-- Generator: Adobe Illustrator 19.0.0, SVG Export Plug-In . SVG Version: 6.00 Build 0)  -->
<svg version="1.1" id="Capa_1" xmlns="http://www.w3.org/2000/svg" xmlns:xlink="http://www.w3.org/1999/xlink" x="0px" y="0px"
	 viewBox="0 0 512 512" style="enable-background:new 0 0 512 512;" xml:space="preserve">
<path style="fill:#FF6955;" d="M256.016,240.161v6.311c0,6.318,1.87,12.494,5.374,17.75l47.876,71.814
	c7.009,10.513,10.749,22.866,10.749,35.5v28.622H192.017v-28.622c0-12.635,3.74-24.988,10.749-35.5l47.876-71.814
	c3.504-5.257,5.374-11.433,5.374-17.75V240.161"/>
<path style="fill:#F03C1E;" d="M208.017,387.372c0-12.635,3.74-24.988,10.749-35.5l47.876-71.814
	c0.923-1.384,1.725-2.835,2.417-4.333l-7.668-11.502c-3.504-5.257-5.374-11.433-5.374-17.75c0,6.318-1.87,12.494-5.374,17.75
	l-47.876,71.814c-7.009,10.513-10.749,22.866-10.749,35.5v28.457h16v-12.622H208.017z"/>
<path style="fill:#FFE05F;" d="M256.016,310.472c0,6.318,1.87,12.494,5.374,17.75l21.251,31.877
	c3.504,5.257,5.374,11.433,5.374,17.75v22.311h-63.999v-22.311c0-6.318,1.87-12.494,5.374-17.75l21.251-31.877
	C254.146,322.965,256.016,316.789,256.016,310.472"/>
<path style="fill:#FFBE14;" d="M282.642,360.098l-21.251-31.877c-3.504-5.257-5.374-11.433-5.374-17.75
	c0,6.318-1.87,12.494-5.374,17.75l-7.668,11.502c0.692,1.498,1.494,2.949,2.417,4.333l21.251,31.877
	c3.504,5.257,5.374,11.433,5.374,17.75v6.311h16v-22.146C288.016,371.531,286.146,365.355,282.642,360.098z"/>
<rect x="256.016" y="376.494" style="fill:#FFFFFF;" width="16" height="15"/>
<path style="fill:#C35A1E;" d="M448.013,481.438L448.013,481.438c0,15.36-14.746,26.419-29.491,22.118L80.608,404.997
	c-9.83-2.867-16.589-11.878-16.589-22.118l0,0c0-15.36,14.746-26.419,29.491-22.118l337.915,98.558
	C441.255,462.187,448.013,471.199,448.013,481.438z"/>
<path style="fill:#F58C46;" d="M64.019,481.438L64.019,481.438c0,15.36,14.746,26.419,29.491,22.118l337.915-98.558
	c9.83-2.867,16.589-11.878,16.589-22.118l0,0c0-15.36-14.746-26.419-29.491-22.118L80.608,459.32
	C70.778,462.187,64.019,471.199,64.019,481.438z"/>
<circle style="fill:#C35A1E;" cx="425.013" cy="382.824" r="23"/>
<circle style="fill:#874114;" cx="87.019" cy="382.824" r="23"/>
<g>
	<path style="fill:#BEC8D7;" d="M192.017,199.497h-24c-13.255,0-24-10.745-24-24l0,0c0-13.255,10.745-24,24-24h24"/>
	<path style="fill:#BEC8D7;" d="M288.016,151.498h24c13.255,0,24-10.745,24-24l0,0c0-13.255-10.745-24-24-24h-24"/>
	<path style="fill:#BEC8D7;" d="M208.017,103.498h-24c-13.255,0-24-10.745-24-24l0,0c0-13.255,10.745-24,24-24h24"/>
	<path style="fill:#BEC8D7;" d="M352.015,55.499h24c13.255,0,24-10.745,24-24l0,0c0-13.255-10.745-24-24-24h-24"/>
</g>
<path d="M433.524,452.12l-68.438-19.962l68.438-19.961l-0.024-0.083c12.7-3.686,22.013-15.417,22.013-29.29
	c0-16.818-13.682-30.5-30.5-30.5c-2.983,0-5.864,0.438-8.59,1.24l-0.251-0.004l-121.157,35.264v-10.978
	c0-7.824-2.044-15.401-6.384-21.911l-21.126-32.115c-2.692-4.038-3.99-8.829-3.99-13.829h-15c0,5-1.423,9.79-4.115,13.829
	l-21.501,31.996c-4.34,6.51-6.884,14.206-6.884,22.03v6.146h15v-6.146c0-4.853,1.673-9.552,4.365-13.59l20.51-30.578l20.198,30.578
	c2.692,4.038,3.927,8.737,3.927,13.59v15.353l-24.5,7.146l-56.499-16.479v-12.331c0-11.191,3.531-22.028,9.739-31.34l47.135-70.516
	l47.072,70.744c6.208,9.312,9.552,19.569,9.552,31.569h15c0-15-4.152-28.105-12.009-39.888l-48.125-71.929
	c-2.692-4.038-4.365-8.852-4.365-13.705v-6.476h-15v6.477c0,4.853-1.173,9.552-3.865,13.59l-48,71.814
	c-7.857,11.784-12.134,25.499-12.134,39.66v7.956L95.36,353.561l0.123,0.006c-10.355-3.021-21.944-0.459-30.094,7.691
	c-11.892,11.892-11.86,31.242,0.031,43.133c3.769,3.769,8.304,6.339,13.097,7.719l-0.018,0.087l68.442,19.961l-68.436,19.961
	c-12.947,3.776-21.988,15.832-21.988,29.319c0,9.704,4.453,18.609,12.216,24.432c5.382,4.037,11.739,6.131,18.238,6.13
	c2.875,0,5.78-0.41,8.638-1.244L338.3,439.97l91.024,26.549c6.588,1.921,11.189,8.056,11.189,14.918
	c0,4.938-2.266,9.469-6.216,12.432c-3.95,2.963-8.935,3.869-13.675,2.486l-130.506-38.062l-4.2,14.4l130.507,38.064
	c2.858,0.833,5.762,1.244,8.638,1.244c6.498,0,12.856-2.094,18.238-6.13c7.763-5.822,12.216-14.728,12.216-24.432
	C455.513,467.953,446.471,455.896,433.524,452.12z M440.513,382.825c0,8.547-6.953,15.5-15.5,15.5s-15.5-6.953-15.5-15.5
	c0-6.942,4.588-12.833,10.891-14.8l0.016-0.005c1.452-0.451,2.995-0.695,4.593-0.695
	C433.56,367.325,440.513,374.278,440.513,382.825z M76.059,371.865c3.022-3.022,6.991-4.532,10.96-4.532
	c3.969,0,7.939,1.511,10.96,4.532c6.043,6.043,6.043,15.877,0,21.921c-6.043,6.043-15.877,6.043-21.921,0
	C70.016,387.742,70.016,377.908,76.059,371.865z M107.817,405.122c0.258-0.241,0.517-0.479,0.768-0.73
	c7.872-7.873,10.528-19.012,7.977-29.094L229.23,408.16l-55.499,16.187L107.817,405.122z M91.41,496.356
	c-4.742,1.383-9.725,0.476-13.675-2.486c-3.95-2.963-6.216-7.494-6.216-12.432c0-6.862,4.601-12.997,11.189-14.918l312.747-91.218
	c-0.613,2.407-0.941,4.928-0.941,7.523c0,8.792,3.744,16.721,9.715,22.292l-65.928,19.229l-0.186-0.054l-0.035,0.119L91.41,496.356z
	"/>
<path d="M168.017,206.997h71.999v-15h-24c-9.098,0-16.5-7.402-16.5-16.5c0-9.098,7.402-16.5,16.5-16.5h95.999
	c17.369,0,31.5-14.131,31.5-31.5s-14.131-31.5-31.5-31.5h-79.999c-9.098,0-16.5-7.402-16.5-16.5s7.402-16.5,16.5-16.5h143.998
	c17.369,0,31.5-14.131,31.5-31.5S393.383,0,376.014,0h-71.999v15h24c9.098,0,16.5,7.402,16.5,16.5s-7.402,16.5-16.5,16.5H184.017
	c-17.369,0-31.5,14.131-31.5,31.5s14.131,31.5,31.5,31.5h79.999c9.098,0,16.5,7.402,16.5,16.5s-7.402,16.5-16.5,16.5h-95.998
	c-17.369,0-31.5,14.131-31.5,31.499S150.649,206.997,168.017,206.997z M354.834,15h21.181c9.098,0,16.5,7.402,16.5,16.5
	s-7.402,16.5-16.5,16.5h-21.181c2.965-4.802,4.681-10.454,4.681-16.5S357.798,19.802,354.834,15z M167.517,79.499
	c0-9.098,7.402-16.5,16.5-16.5h21.181c-2.965,4.802-4.681,10.454-4.681,16.5c0,6.046,1.716,11.698,4.681,16.5h-21.181
	C174.919,95.999,167.517,88.597,167.517,79.499z M290.835,110.998h21.181c9.098,0,16.5,7.402,16.5,16.5s-7.402,16.5-16.5,16.5
	h-21.181c2.965-4.802,4.681-10.454,4.681-16.5C295.515,121.452,293.799,115.8,290.835,110.998z M168.017,158.998h21.181
	c-2.965,4.802-4.681,10.454-4.681,16.5c0,6.046,1.716,11.698,4.681,16.5h-21.181c-9.098,0-16.5-7.402-16.5-16.5
	C151.518,166.399,158.92,158.998,168.017,158.998z"/>
<g>
</g>
<g>
</g>
<g>
</g>
<g>
</g>
<g>
</g>
<g>
</g>
<g>
</g>
<g>
</g>
<g>
</g>
<g>
</g>
<g>
</g>
<g>
</g>
<g>
</g>
<g>
</g>
<g>
</g>
</svg>
