<?xml version="1.0" encoding="iso-8859-1"?>
<!-- Generator: Adobe Illustrator 19.0.0, SVG Export Plug-In . SVG Version: 6.00 Build 0)  -->
<svg version="1.1" id="Capa_1" xmlns="http://www.w3.org/2000/svg" xmlns:xlink="http://www.w3.org/1999/xlink" x="0px" y="0px"
	 viewBox="0 0 512.001 512.001" style="enable-background:new 0 0 512.001 512.001;" xml:space="preserve">
<rect x="80.1" y="180.018" style="fill:#555A6E;" width="63.984" height="31.992"/>
<polygon style="fill:#BEC8D7;" points="336.043,212.013 176.082,212.013 192.078,164.024 320.047,164.024 "/>
<g>
	<circle style="fill:#555A6E;" cx="23.619" cy="323.982" r="15.996"/>
	<circle style="fill:#555A6E;" cx="488.501" cy="323.982" r="15.996"/>
</g>
<rect x="48.108" y="212.01" style="fill:#BEC8D7;" width="415.898" height="255.938"/>
<g>
	<rect x="48.108" y="212.01" style="fill:#737887;" width="31.992" height="255.938"/>
	<rect x="48.108" y="419.959" style="fill:#737887;" width="415.898" height="46.989"/>
</g>
<rect x="48.108" y="418.959" style="fill:#555A6E;" width="31.992" height="47.988"/>
<rect x="48.108" y="212.01" style="fill:#737887;" width="415.898" height="47.988"/>
<rect x="48.108" y="212.01" style="fill:#555A6E;" width="31.992" height="47.988"/>
<rect x="368.03" y="212.01" style="fill:#FFE05F;" width="63.984" height="47.988"/>
<rect x="368.03" y="212.01" style="fill:#FFBE14;" width="24.494" height="47.988"/>
<circle style="fill:#555A6E;" cx="256.057" cy="339.978" r="95.977"/>
<circle style="fill:#A0F5F5;" cx="256.057" cy="339.978" r="63.984"/>
<g>
	<circle style="fill:#FFFFFF;" cx="112.093" cy="259.998" r="15.996"/>
	<rect x="392.524" y="307.986" style="fill:#FFFFFF;" width="14.996" height="15.996"/>
	<rect x="392.524" y="355.975" style="fill:#FFFFFF;" width="14.996" height="15.996"/>
	<rect x="88.598" y="435.955" style="fill:#FFFFFF;" width="14.996" height="15.996"/>
</g>
<rect x="0.125" y="36.053" width="14.996" height="255.938"/>
<path d="M497.004,36.056v266.032c-2.637-1.028-5.752-1.598-8.748-1.598c-6.68,0-12.247,2.807-17.246,7.299V205.014H341.448
	l-15.996-47.988H186.674l-15.997,47.988h-19.589v-31.992H72.107v31.992H40.115V307.79c-3.999-4.492-10.066-7.299-16.746-7.299
	C10.414,300.491,0,311.03,0,323.985s10.351,23.494,23.307,23.494c6.68,0,12.81-2.807,16.809-7.299v135.768h343.916v-14.996H55.113
	V427.96h144.965v-0.675c16.996,10.233,35.085,16.171,55.486,16.171s39.49-5.938,55.486-16.171v0.675h144.965v32.992h-39.99v14.996
	h54.987V340.18c4.999,4.492,10.565,7.299,17.246,7.299c12.955,0,23.744-10.539,23.744-23.494V36.056L497.004,36.056L497.004,36.056z
	 M23.619,332.483c-4.686,0-8.498-3.813-8.498-8.498c0-4.685,3.812-8.498,8.498-8.498s8.498,3.813,8.498,8.498
	C32.117,328.67,28.305,332.483,23.619,332.483z M456.014,253.003h-16.996v-32.992h16.996V253.003z M375.033,253.003v-32.992h48.988
	v32.992H375.033z M197.482,172.023h117.161l10.997,32.992H186.485L197.482,172.023z M87.104,188.019h48.988v16.996H87.104V188.019z
	 M360.037,220.011v32.992h-48.988v-0.325c-15.996-10.233-35.085-16.171-55.486-16.171s-38.491,5.938-55.486,16.171v0.325h-65.718
	c-3.137-9.998-11.927-15.996-22.261-15.996s-19.123,5.999-22.261,15.996H55.112v-32.992H360.037z M120.596,260.001
	c0,4.685-3.812,8.498-8.498,8.498s-8.498-3.813-8.498-8.498c0-4.685,3.812-8.498,8.498-8.498S120.596,255.315,120.596,260.001z
	 M55.112,267.999h34.726c3.137,8.998,11.927,15.996,22.261,15.996s19.123-6.998,22.261-15.996h47.935
	c-18.361,17.996-29.706,44.281-29.706,72.482s11.345,53.487,29.706,72.482H55.112V267.999z M167.584,339.981
	c0-48.787,39.691-88.478,88.478-88.478s88.478,39.691,88.478,88.478s-39.691,88.478-88.478,88.478S167.584,388.768,167.584,339.981z
	 M329.831,412.964c18.36-18.995,29.706-44.281,29.706-72.482s-11.345-54.487-29.706-72.482h126.182v144.965H329.831z
	 M488.506,332.483c-4.685,0-8.498-3.813-8.498-8.498c0-4.685,3.813-8.498,8.498-8.498c4.685,0,8.498,3.813,8.498,8.498
	C497.004,328.67,493.191,332.483,488.506,332.483z"/>
<path d="M256.063,268.499c-39.415,0-71.483,32.067-71.483,71.483s32.067,71.483,71.483,71.483c39.415,0,71.483-32.067,71.483-71.483
	S295.478,268.499,256.063,268.499z M256.063,396.468c-31.146,0-56.486-25.34-56.486-56.486s25.34-56.486,56.486-56.486
	c31.146,0,56.486,25.34,56.486,56.486S287.209,396.468,256.063,396.468z"/>
<path d="M256.063,308.489c-17.365,0-31.492,14.128-31.492,31.492s14.128,31.492,31.492,31.492s31.492-14.128,31.492-31.492
	S273.427,308.489,256.063,308.489z M256.063,356.477c-9.096,0-16.496-7.4-16.496-16.496s7.4-16.496,16.496-16.496
	c9.096,0,16.496,7.4,16.496,16.496S265.158,356.477,256.063,356.477z"/>
<g>
</g>
<g>
</g>
<g>
</g>
<g>
</g>
<g>
</g>
<g>
</g>
<g>
</g>
<g>
</g>
<g>
</g>
<g>
</g>
<g>
</g>
<g>
</g>
<g>
</g>
<g>
</g>
<g>
</g>
</svg>
