<?xml version="1.0" encoding="iso-8859-1"?>
<!-- Generator: Adobe Illustrator 19.0.0, SVG Export Plug-In . SVG Version: 6.00 Build 0)  -->
<svg version="1.1" id="Capa_1" xmlns="http://www.w3.org/2000/svg" xmlns:xlink="http://www.w3.org/1999/xlink" x="0px" y="0px"
	 viewBox="0 0 512 512" style="enable-background:new 0 0 512 512;" xml:space="preserve">
<polygon style="fill:#F58C46;" points="256,89.769 255.36,89.769 88,220.769 88,472.769 424,472.769 424,221.189 "/>
<polygon style="fill:#C35A1E;" points="256,89.769 255.36,89.769 88,220.769 88,251.769 255.36,120.769 424,252.189 424,221.189 "/>
<g>
	<polygon style="fill:#874114;" points="480,264.769 256,88.769 32,264.769 32,216.769 256,40.769 480,216.769 	"/>
	<rect x="144" y="328.77" style="fill:#874114;" width="96" height="144"/>
</g>
<g>
	<circle style="fill:#C35A1E;" cx="88" cy="256.77" r="24"/>
	<circle style="fill:#C35A1E;" cx="88" cy="304.77" r="24"/>
	<circle style="fill:#C35A1E;" cx="88" cy="352.77" r="24"/>
	<circle style="fill:#C35A1E;" cx="88" cy="400.77" r="24"/>
	<circle style="fill:#C35A1E;" cx="88" cy="448.77" r="24"/>
	<circle style="fill:#C35A1E;" cx="424" cy="256.77" r="24"/>
	<circle style="fill:#C35A1E;" cx="424" cy="304.77" r="24"/>
	<circle style="fill:#C35A1E;" cx="424" cy="352.77" r="24"/>
	<circle style="fill:#C35A1E;" cx="424" cy="400.77" r="24"/>
	<circle style="fill:#C35A1E;" cx="424" cy="448.77" r="24"/>
</g>
<rect x="272" y="328.77" style="fill:#95A792;" width="96" height="64"/>
<g>
	<rect x="208" y="401.27" style="fill:#FFFFFF;" width="16" height="15"/>
	<circle style="fill:#FFFFFF;" cx="256" cy="184.77" r="24"/>
</g>
<path d="M450.819,465.769c2.965-5,4.681-10.704,4.681-16.75c0-9.607-4.328-18.342-11.131-24.125
	c6.803-5.783,11.131-14.456,11.131-24.063s-4.328-18.249-11.131-24.031c6.803-5.783,11.131-14.409,11.131-24.016
	s-4.328-18.225-11.131-24.008c6.803-5.783,11.131-14.397,11.131-24.004s-4.328-18.219-11.131-24.002
	c6.803-5.783,11.131-14.394,11.131-24.001c0-0.588-0.269-1.172-0.301-1.753L487,280.2v-67.076L255.5,31.231L24,213.124V280.2
	l32.301-25.183c-0.032,0.58,0.074,1.164,0.074,1.752c0,9.607,4.391,18.217,11.193,24c-6.803,5.783-11.1,14.393-11.1,24
	s4.344,18.217,11.146,24c-6.803,5.783-11.123,14.393-11.123,24s4.332,18.217,11.135,24c-6.803,5.783-11.129,14.393-11.129,24
	s4.329,18.217,11.132,24c-6.803,5.783-11.13,14.643-11.13,24.25c0,6.046,1.717,11.75,4.682,16.75H0v15h512v-15H450.819z
	 M440.5,448.769c0,9.098-7.402,16.5-16.5,16.5s-16.5-7.402-16.5-16.5s7.402-16.5,16.5-16.5S440.5,439.671,440.5,448.769z
	 M114.819,273.769c2.965-5,4.681-10.454,4.681-16.5c0-6.046-1.716-12.5-4.681-16.5h282.363c-2.965,4-4.681,10.454-4.681,16.5
	c0,6.046,1.716,11.5,4.681,16.5H176v15h221.181c-2.965,4-4.681,10.454-4.681,16.5s1.716,11.5,4.681,16.5H114.819
	c2.965-5,4.681-10.454,4.681-16.5s-1.716-12.5-4.681-16.5H144v-15H114.819z M264,369.769h-17v-33h17V369.769z M279,336.769h33v49
	h-33V336.769z M327,336.769h33v49h-33V336.769z M375,336.769h22.181c-2.965,4-4.681,10.454-4.681,16.5s1.716,11.5,4.681,16.5H375
	V336.769z M136,336.769v33h-21.181c2.965-5,4.681-10.454,4.681-16.5s-1.716-12.5-4.681-16.5H136z M136,384.769v33h-21.181
	c2.965-5,4.681-10.454,4.681-16.5s-1.716-12.5-4.681-16.5H136z M136,432.769v33h-21.181c2.965-5,4.681-10.454,4.681-16.5
	s-1.716-12.5-4.681-16.5H136z M151,336.769h81v129h-81V336.769z M247,432.769h121v-15H247v-33h17v16h111v-16h22.181
	c-2.965,4-4.681,10.204-4.681,16.25c0,9.607,4.328,18.092,11.131,23.875c-6.803,5.783-11.131,14.581-11.131,24.188
	c0,6.046,1.716,11.688,4.681,16.688H247V432.769z M440.5,400.769c0,9.098-7.402,16.5-16.5,16.5s-16.5-7.402-16.5-16.5
	s7.402-16.5,16.5-16.5S440.5,391.671,440.5,400.769z M440.5,352.769c0,9.098-7.402,16.5-16.5,16.5s-16.5-7.402-16.5-16.5
	s7.402-16.5,16.5-16.5S440.5,343.671,440.5,352.769z M440.5,304.769c0,9.098-7.402,16.5-16.5,16.5s-16.5-7.402-16.5-16.5
	s7.402-16.5,16.5-16.5S440.5,295.671,440.5,304.769z M407.5,256.769c0-9.098,7.402-16.5,16.5-16.5s16.5,7.402,16.5,16.5
	c0,9.098-7.402,16.5-16.5,16.5S407.5,265.867,407.5,256.769z M472,249.338L263,85.124V56.2l209,164.215V249.338z M286.591,177.769
	c-3.374-14-15.806-24-30.591-24s-27.216,10-30.591,24h-69.906l42-33h116.994l42,33H286.591z M272.5,184.769
	c0,9.098-7.402,16.5-16.5,16.5s-16.5-7.402-16.5-16.5s7.402-16.5,16.5-16.5C265.098,168.269,272.5,175.671,272.5,184.769z
	 M256,98.807l39.406,30.962h-78.812L256,98.807z M39,220.415L248,56.2v28.924L39,249.338V220.415z M136.412,192.769h88.997
	c3.374,13,15.806,24,30.591,24s27.216-11,30.591-24h88.997l42.678,33.283c-0.765,0.141-1.521,0.054-2.266,0.25v-0.532H96v0.532
	c-0.744-0.195-1.501-0.109-2.266-0.25L136.412,192.769z M71.5,256.769c0-9.098,7.402-16.5,16.5-16.5s16.5,7.402,16.5,16.5
	c0,9.098-7.402,16.5-16.5,16.5S71.5,265.867,71.5,256.769z M71.5,304.769c0-9.098,7.402-16.5,16.5-16.5s16.5,7.402,16.5,16.5
	s-7.402,16.5-16.5,16.5S71.5,313.867,71.5,304.769z M71.5,352.769c0-9.098,7.402-16.5,16.5-16.5s16.5,7.402,16.5,16.5
	s-7.402,16.5-16.5,16.5S71.5,361.867,71.5,352.769z M71.5,400.769c0-9.098,7.402-16.5,16.5-16.5s16.5,7.402,16.5,16.5
	s-7.402,16.5-16.5,16.5S71.5,409.867,71.5,400.769z M71.5,448.769c0-9.098,7.402-16.5,16.5-16.5s16.5,7.402,16.5,16.5
	s-7.402,16.5-16.5,16.5S71.5,457.867,71.5,448.769z"/>
<rect x="352" y="249.27" style="fill:#FFFFFF;" width="16" height="15"/>
<g>
</g>
<g>
</g>
<g>
</g>
<g>
</g>
<g>
</g>
<g>
</g>
<g>
</g>
<g>
</g>
<g>
</g>
<g>
</g>
<g>
</g>
<g>
</g>
<g>
</g>
<g>
</g>
<g>
</g>
</svg>
