<?xml version="1.0" encoding="iso-8859-1"?>
<!-- Generator: Adobe Illustrator 19.0.0, SVG Export Plug-In . SVG Version: 6.00 Build 0)  -->
<svg version="1.1" id="Capa_1" xmlns="http://www.w3.org/2000/svg" xmlns:xlink="http://www.w3.org/1999/xlink" x="0px" y="0px"
	 viewBox="0 0 512 512" style="enable-background:new 0 0 512 512;" xml:space="preserve">
<path style="fill:#F58C46;" d="M424.5,255.5H328v-176H184v304h144.5H504v-48C504,291.317,468.683,255.5,424.5,255.5z"/>
<rect x="184" y="79.5" style="fill:#C35A1E;" width="40" height="304"/>
<rect x="184" y="79.5" style="fill:#737887;" width="144.5" height="48"/>
<rect x="184" y="79.5" style="fill:#555A6E;" width="40" height="48"/>
<path style="fill:#FFE05F;" d="M184.5,303.5c44.183,0,80,35.817,80,80h-80V303.5z"/>
<path style="fill:#FFBE14;" d="M224,313.92v69.58h-40v-80C199,303.5,212.35,307.29,224,313.92z"/>
<rect x="328.5" y="95.5" style="fill:#FFE05F;" width="48" height="160"/>
<rect x="328.5" y="95.5" style="fill:#FFBE14;" width="23.5" height="160"/>
<polygon style="fill:#737887;" points="504.5,383.5 184.5,383.5 184.5,431.5 264.5,431.5 280.5,415.5 296.5,415.5 312.5,431.5 
	504.5,431.5 "/>
<rect x="184" y="383.5" style="fill:#555A6E;" width="40" height="48"/>
<path d="M424.5,248.5H384v-160h-48v-16H177v80H16v15h161v33H96v15h144v-15h-48v-33h16v-15h-16v-17h129v113h-41v15h144.5
	c39.977,0,72.5,32.023,72.5,72v41H271.675c-3.606-43-37.398-76.569-79.675-80.175V239.5h-15v200h90.606l16-16h9.787l16,16H432v-15
	H315.606l-16-16h-22.213l-16,16H192v-33h305v33h-33v15h48v-104C512,287.252,472.748,248.5,424.5,248.5z M336,167.5h33v17h-33V167.5z
	 M336,199.5h33v17h-33V199.5z M369,103.5v17h-33v-17H369z M192,120.5v-33h129v33H192z M369,135.5v17h-33v-17H369z M336,231.5h33v17
	h-33V231.5z M192,311.388c33.999,3.51,61.102,31.112,64.612,65.112H192V311.388z"/>
<rect x="48" y="200.5" width="16" height="15"/>
<rect y="248.5" width="16" height="15"/>
<rect x="32" y="248.5" width="112" height="15"/>
<g>
	<rect x="240" y="248" style="fill:#FFFFFF;" width="16" height="15"/>
	<rect x="208" y="96" style="fill:#FFFFFF;" width="16" height="15"/>
</g>
<g>
</g>
<g>
</g>
<g>
</g>
<g>
</g>
<g>
</g>
<g>
</g>
<g>
</g>
<g>
</g>
<g>
</g>
<g>
</g>
<g>
</g>
<g>
</g>
<g>
</g>
<g>
</g>
<g>
</g>
</svg>
