<?xml version="1.0" encoding="iso-8859-1"?>
<!-- Generator: Adobe Illustrator 19.0.0, SVG Export Plug-In . SVG Version: 6.00 Build 0)  -->
<svg version="1.1" id="Capa_1" xmlns="http://www.w3.org/2000/svg" xmlns:xlink="http://www.w3.org/1999/xlink" x="0px" y="0px"
	 viewBox="0 0 512 512" style="enable-background:new 0 0 512 512;" xml:space="preserve">
<rect x="344.281" y="304" style="fill:#555A6E;" width="32" height="32"/>
<path style="fill:#FF6955;" d="M320.282,368L320.282,368c-13.255,0-24-10.745-24-24v-48c0-13.255,10.745-24,24-24l0,0
	c13.255,0,24,10.745,24,24v48C344.282,357.255,333.537,368,320.282,368z"/>
<circle style="fill:#555A6E;" cx="296.281" cy="360" r="24"/>
<circle style="fill:#FFBE14;" cx="152.281" cy="288" r="32"/>
<path style="fill:#FFE05F;" d="M120.282,288c0-17.673,14.327-32,32-32s32,14.327,32,32"/>
<circle style="fill:#FFFFFF;" cx="152.281" cy="336" r="16"/>
<path style="fill:#737887;" d="M376.282,504.5L376.282,504.5c-8.837,0-16-7.163-16-16V384h32v104.5
	C392.282,497.337,385.119,504.5,376.282,504.5z"/>
<rect x="360.281" y="384" style="fill:#555A6E;" width="32" height="24.5"/>
<path d="M383.282,377V0h-15v24.633c-59,1.866-113.993,25.72-155.945,67.671c-42.119,42.119-65.874,97.61-67.572,156.899
	c-18.258,3.472-32.045,19.543-32.045,38.796c0,14.809,8.228,27.733,20.317,34.495c-2.696,3.824-4.27,8.481-4.27,13.505
	c0,12.958,10.55,23.5,23.508,23.5c4.687,0,8.504,3.814,8.504,8.5s-3.811,8.5-8.498,8.5c-4.687,0-8.499-3.814-8.499-8.503l-15,0.004
	c0,12.958,10.542,23.5,23.5,23.5s23.5-10.542,23.5-23.5c0-6.177-2.399-11.801-6.31-16c3.911-4.199,6.31-9.823,6.31-16
	c0-5.024-1.59-9.681-4.286-13.505c12.09-6.761,20.286-19.686,20.286-34.495c0-19.175-13.737-35.196-31.885-38.756
	c1.684-55.297,24.002-107.038,63.296-146.333c30.865-30.865,69.411-51.255,111.326-59.402c-8.543,9.764-13.737,22.529-13.737,36.491
	c0,20.474,11.152,38.38,27.692,48c-16.54,9.62-27.692,27.526-27.692,48s11.152,38.38,27.692,48
	c-14.492,8.428-24.833,23.22-27.175,40.526c-0.339-0.011-0.926-0.026-1.268-0.026c-17.369,0-31.75,14.131-31.75,31.5v24h15v-24
	c0-9.098,7.402-16.5,16.5-16.5s16.5,7.402,16.5,16.5v48c0,6.409-3.431,11.963-8.783,14.694
	c-0.688-16.766-14.41-30.194-31.342-30.194c-17.369,0-31.438,14.131-31.438,31.5s14.162,31.5,31.531,31.5
	c11.819,0,21.9-6.547,27.288-16.202c15.717-1.757,27.743-15.12,27.743-31.298h17v33h-16v111.5c0,12.958,10.542,23.5,23.5,23.5
	s23.5-10.542,23.5-23.5V377H383.282z M152.282,344.5c-4.687,0-8.5-3.814-8.5-8.5s3.813-8.5,8.5-8.5c4.687,0,8.5,3.814,8.5,8.5
	S156.969,344.5,152.282,344.5z M152.282,313c-10.894,0-20.145-8-23.321-17h46.643C172.428,305,163.176,313,152.282,313z
	 M175.604,281h-46.643c3.176-10,12.428-17,23.321-17S172.428,271,175.604,281z M296.282,376.5c-9.098,0-16.5-7.402-16.5-16.5
	s7.402-16.5,16.5-16.5s16.5,7.402,16.5,16.5S305.38,376.5,296.282,376.5z M335.282,80c0-19.769,15-36.264,33-39.792v79.585
	C350.282,116.264,335.282,99.769,335.282,80z M335.282,176c0-19.769,15-36.264,33-39.792v79.585
	C350.282,212.264,335.282,195.769,335.282,176z M335.43,268.679c1.491-18.272,15.853-33.143,32.853-36.471V297h-17v-1
	C351.282,284.324,344.892,274.119,335.43,268.679z M351.282,329v-17h17v17H351.282z M384.282,488.5c0,4.686-3.814,8.5-8.5,8.5
	s-8.5-3.814-8.5-8.5V392h17V488.5z"/>
<g>
</g>
<g>
</g>
<g>
</g>
<g>
</g>
<g>
</g>
<g>
</g>
<g>
</g>
<g>
</g>
<g>
</g>
<g>
</g>
<g>
</g>
<g>
</g>
<g>
</g>
<g>
</g>
<g>
</g>
</svg>
