<?xml version="1.0" encoding="iso-8859-1"?>
<!-- Generator: Adobe Illustrator 19.0.0, SVG Export Plug-In . SVG Version: 6.00 Build 0)  -->
<svg version="1.1" id="Capa_1" xmlns="http://www.w3.org/2000/svg" xmlns:xlink="http://www.w3.org/1999/xlink" x="0px" y="0px"
	 viewBox="0 0 512 512" style="enable-background:new 0 0 512 512;" xml:space="preserve">
<rect x="156.5" y="128" style="fill:#BEC8D7;" width="224" height="376.5"/>
<g>
	<rect x="156.5" y="128" style="fill:#737887;" width="32" height="377"/>
	<rect x="132" y="176" style="fill:#737887;" width="24.5" height="96"/>
</g>
<g>
	<rect x="132" y="240" style="fill:#555A6E;" width="24.5" height="32"/>
	<path style="fill:#555A6E;" d="M268.5,128h-32v-16c0-8.837,7.163-16,16-16l0,0c8.837,0,16,7.163,16,16V128z"/>
	<path style="fill:#555A6E;" d="M204.5,128h-32v-16c0-8.837,7.163-16,16-16l0,0c8.837,0,16,7.163,16,16V128z"/>
</g>
<path style="fill:#737887;" d="M364.5,128h-32V23.5c0-8.837,7.163-16,16-16l0,0c8.837,0,16,7.163,16,16V128z"/>
<g>
	<rect x="332.5" y="103.5" style="fill:#555A6E;" width="32" height="24.5"/>
	<circle style="fill:#555A6E;" cx="268.5" cy="240" r="80"/>
</g>
<g>
	<circle style="fill:#FFE05F;" cx="220.5" cy="424" r="24"/>
	<circle style="fill:#FFE05F;" cx="316.5" cy="424" r="24"/>
</g>
<path d="M356,240c0-48.248-39.252-87.5-87.5-87.5S181,191.752,181,240s39.252,87.5,87.5,87.5S356,288.248,356,240z M208.394,281
	c-3.53-6-6.378-11-8.463-17h137.138c-2.085,6-4.933,11-8.463,17H208.394z M196,240.5c0-2.877,0.187-6.5,0.515-8.5h143.97
	c0.328,2,0.515,5.623,0.515,8.5s-0.187,5.5-0.515,8.5h-143.97C196.187,246,196,243.377,196,240.5z M328.606,200
	c3.53,5,6.379,10,8.463,17H199.931c2.085-7,4.933-12,8.463-17H328.606z M315.079,185H221.92c12.608-11,28.857-17,46.579-17
	S302.471,174,315.079,185z M221.921,296h93.159c-12.608,10-28.857,17-46.579,17S234.529,306,221.921,296z"/>
<path d="M371.5,121V23.5C371.5,10.542,360.958,0,348,0s-23.5,10.542-23.5,23.5V112h15V23.5c0-4.687,3.813-8.5,8.5-8.5
	s8.5,3.813,8.5,8.5V121h-81v-9c0-12.958-10.542-23.5-23.5-23.5s-23.5,10.542-23.5,23.5v9h-17v-9c0-12.958-10.542-23.5-23.5-23.5
	s-23.5,10.542-23.5,23.5v9h-16v48h-24v111h24v232h239V121H371.5z M243.5,112c0-4.687,3.813-8.5,8.5-8.5c4.687,0,8.5,3.813,8.5,8.5v9
	h-17V112z M179.5,112c0-4.687,3.813-8.5,8.5-8.5s8.5,3.813,8.5,8.5v9h-17V112z M139.5,265v-81h9v81H139.5z M163.5,497V360h153v-15
	h-153V136h209v209h-24v15h24v137H163.5z"/>
<path d="M220.5,392.5c-17.369,0-31.5,14.131-31.5,31.5s14.131,31.5,31.5,31.5S252,441.369,252,424S237.869,392.5,220.5,392.5z
	 M220.5,440.5c-9.098,0-16.5-7.402-16.5-16.5s7.402-16.5,16.5-16.5S237,414.902,237,424S229.598,440.5,220.5,440.5z"/>
<path d="M316.5,392.5c-17.369,0-31.5,14.131-31.5,31.5s14.131,31.5,31.5,31.5S348,441.369,348,424S333.869,392.5,316.5,392.5z
	 M316.5,440.5c-9.098,0-16.5-7.402-16.5-16.5s7.402-16.5,16.5-16.5S333,414.902,333,424S325.598,440.5,316.5,440.5z"/>
<g>
	<rect x="181" y="144" style="fill:#FFFFFF;" width="15" height="16"/>
	<rect x="341" y="464" style="fill:#FFFFFF;" width="15" height="16"/>
</g>
<g>
</g>
<g>
</g>
<g>
</g>
<g>
</g>
<g>
</g>
<g>
</g>
<g>
</g>
<g>
</g>
<g>
</g>
<g>
</g>
<g>
</g>
<g>
</g>
<g>
</g>
<g>
</g>
<g>
</g>
</svg>
