<?xml version="1.0" encoding="iso-8859-1"?>
<!-- Generator: Adobe Illustrator 19.0.0, SVG Export Plug-In . SVG Version: 6.00 Build 0)  -->
<svg version="1.1" id="Capa_1" xmlns="http://www.w3.org/2000/svg" xmlns:xlink="http://www.w3.org/1999/xlink" x="0px" y="0px"
	 viewBox="0 0 512 512" style="enable-background:new 0 0 512 512;" xml:space="preserve">
<path style="fill:#FF6955;" d="M403.578,108.922c-81.229-81.229-212.927-81.229-294.156,0s-81.229,212.927,0,294.156
	s212.927,81.229,294.156,0S484.807,190.151,403.578,108.922z M335.696,335.196c-43.739,43.739-114.653,43.739-158.392,0
	s-43.739-114.653,0-158.392s114.653-43.739,158.392,0S379.435,291.457,335.696,335.196z"/>
<path style="fill:#F03C1E;" d="M256.5,48c-114.875,0-208,93.125-208,208s93.125,208,208,208s208-93.125,208-208S371.375,48,256.5,48
	z M256.5,432c-97.202,0-176-78.798-176-176s78.798-176,176-176s176,78.798,176,176S353.702,432,256.5,432z"/>
<g>
	<path style="fill:#FFFFFF;" d="M120.735,97.608l67.882,67.882c6.248,6.248,6.248,16.379,0,22.627l0,0
		c-6.248,6.248-16.379,6.248-22.627,0l-67.882-67.882c-6.248-6.248-6.248-16.379,0-22.627l0,0
		C104.356,91.36,114.487,91.36,120.735,97.608z"/>
	<path style="fill:#FFFFFF;" d="M347.01,323.882l67.882,67.882c6.248,6.248,6.248,16.379,0,22.627l0,0
		c-6.248,6.248-16.379,6.248-22.627,0l-67.882-67.882c-6.248-6.248-6.248-16.379,0-22.627l0,0
		C330.631,317.634,340.761,317.634,347.01,323.882z"/>
	<path style="fill:#FFFFFF;" d="M188.618,346.51l-67.882,67.882c-6.248,6.248-16.379,6.248-22.627,0l0,0
		c-6.248-6.248-6.248-16.379,0-22.627l67.882-67.882c6.248-6.248,16.379-6.248,22.627,0l0,0
		C194.867,330.131,194.867,340.261,188.618,346.51z"/>
	<path style="fill:#FFFFFF;" d="M414.892,120.236l-67.882,67.882c-6.248,6.248-16.379,6.248-22.627,0l0,0
		c-6.248-6.248-6.248-16.379,0-22.627l67.882-67.882c6.248-6.248,16.379-6.248,22.627,0l0,0
		C421.141,103.857,421.141,113.987,414.892,120.236z"/>
</g>
<path d="M512,256c0-27.608-20.449-50.523-46.996-54.411c-7.698-29.515-21.607-57.254-40.971-81.142
	c5.04-8.955,3.776-20.528-3.838-28.143c-7.614-7.614-19.187-8.878-28.143-3.838c-24.008-19.462-51.909-33.412-81.592-41.086
	C306.737,20.648,283.741,0,256,0c-27.832,0-50.886,20.785-54.494,47.645c-29.29,7.727-56.814,21.578-80.538,40.805
	c-3.484-1.972-7.433-3.028-11.546-3.028c-6.277,0-12.179,2.444-16.616,6.883c-4.439,4.438-6.884,10.34-6.884,16.617
	c0,4.113,1.056,8.062,3.028,11.546C69.624,144.315,55.733,172,48.03,201.457C20.984,204.895,0,228.035,0,256
	c0,27.964,20.984,51.104,48.029,54.543c7.705,29.466,21.602,57.159,40.938,81.01c-5.04,8.956-3.776,20.528,3.838,28.142
	c4.438,4.439,10.34,6.884,16.617,6.884c4.113,0,8.061-1.056,11.546-3.027c23.725,19.228,51.249,33.079,80.539,40.805
	C205.115,491.216,228.168,512,256,512c27.741,0,50.737-20.648,54.46-47.381c29.683-7.674,57.585-21.623,81.592-41.085
	c3.567,2.008,7.542,3.034,11.525,3.034c6.018,0,12.035-2.29,16.617-6.871c4.438-4.439,6.883-10.341,6.883-16.618
	c0-4.113-1.056-8.061-3.028-11.546c19.356-23.882,33.259-51.614,40.954-81.121C491.551,306.523,512,283.608,512,256z M497,256
	c0,18.038-12.005,33.319-28.442,38.29C470.829,281.719,472,268.906,472,256s-1.171-25.719-3.442-38.29
	C484.995,222.681,497,237.962,497,256z M413.923,380.189l-57.958-57.958c26.64-39.931,26.64-92.529,0-132.461l35.139-35.139
	C413.011,183.714,425,219.421,425,256c0,26.976-6.18,52.743-18.368,76.586l13.355,6.828C433.267,313.436,440,285.372,440,256
	c0-40.539-13.53-80.092-38.2-112.065l12.123-12.124C441.735,167.003,457,210.898,457,256
	C457,301.103,441.735,344.998,413.923,380.189z M144.435,401.3c31.973,24.67,71.526,38.2,112.065,38.2s80.092-13.53,112.065-38.2
	l12.123,12.124c-35.19,27.811-79.084,43.076-124.186,43.076c-45.103,0-88.999-15.265-124.191-43.076L144.435,401.3z M256.5,424.5
	c-36.579,0-72.286-11.989-101.369-33.896l35.138-35.139c19.968,13.321,43.091,20,66.231,20c23.135,0,46.266-6.681,66.231-20
	l35.138,35.139C328.786,412.511,293.079,424.5,256.5,424.5z M319.078,318.579c-6.714,6.715-8.487,16.509-5.36,24.873
	c-34.597,22.683-79.838,22.682-114.436,0c3.127-8.364,1.354-18.159-5.36-24.874c-6.72-6.719-16.522-8.489-24.889-5.354
	c-16.905-25.745-21.544-57.31-12.697-87.088l-14.379-4.271c-10.206,34.35-4.699,70.785,15.068,100.377l-35.129,35.128
	C99.989,328.287,88,292.58,88,256s11.989-72.287,33.896-101.37l38.792,38.792c4.581,4.58,10.599,6.871,16.616,6.871
	c6.019,0,12.036-2.291,16.618-6.872c6.713-6.714,8.486-16.508,5.36-24.872c34.598-22.684,79.839-22.683,114.436,0.001
	c-3.126,8.364-1.353,18.158,5.361,24.873c4.582,4.581,10.6,6.871,16.617,6.871c2.802,0,5.598-0.518,8.255-1.511
	c22.678,34.588,22.683,79.818,0.017,114.412c-2.61-0.98-5.401-1.497-8.272-1.497C329.419,311.696,323.518,314.141,319.078,318.579z
	 M368.566,110.7C336.592,86.03,297.039,72.5,256.5,72.5s-80.092,13.53-112.065,38.2l-12.123-12.123
	C167.503,70.765,211.399,55.5,256.503,55.5c45.102,0.001,88.996,15.266,124.186,43.076L368.566,110.7z M256.5,87.5
	c36.579,0,72.287,11.989,101.37,33.896l-35.139,35.139c-39.932-26.64-92.53-26.641-132.461-0.001l-35.139-35.139
	C184.214,99.489,219.921,87.5,256.5,87.5z M403.578,100.426c2.177,0,4.354,0.829,6.011,2.486c3.314,3.313,3.314,8.706,0,12.02
	l-67.883,67.883c-3.313,3.314-8.706,3.314-12.021,0c-3.314-3.313-3.314-8.707,0-12.021l67.883-67.882
	C399.225,101.255,401.401,100.426,403.578,100.426z M256,15c18.194,0,33.579,12.465,38.413,29.121
	C281.964,41.896,269.279,41,256.503,41c-0.003,0,0.001,0-0.002,0c-13.139,0-26.181,0.967-38.97,3.319
	C222.3,27.562,237.734,15,256,15z M103.412,102.911c1.605-1.605,3.739-2.489,6.01-2.489s4.404,0.884,6.01,2.489l67.883,67.882
	c3.314,3.314,3.314,8.708,0.001,12.021c-3.313,3.313-8.708,3.315-12.021,0l-67.883-67.883c-1.605-1.605-2.489-3.739-2.489-6.01
	S101.806,104.518,103.412,102.911z M15,256c0-18.422,12.522-33.966,29.498-38.591C42.192,230.076,41,242.989,41,255.998
	c0,13.01,1.191,25.925,3.498,38.593C27.522,289.966,15,274.422,15,256z M99.077,131.811l12.123,12.124
	C86.53,175.908,73,215.461,73,256s13.53,80.092,38.2,112.065l-12.123,12.123C71.265,344.998,56,301.102,56,255.999
	S71.266,167.001,99.077,131.811z M109.422,411.578c-2.271,0-4.404-0.884-6.01-2.49c-3.314-3.313-3.314-8.706,0-12.02l67.883-67.883
	c1.656-1.657,3.833-2.486,6.01-2.486s4.354,0.829,6.01,2.486c3.314,3.314,3.314,8.707,0,12.021l-67.882,67.882
	C113.827,410.694,111.692,411.578,109.422,411.578z M256,497c-18.266,0-33.7-12.311-38.469-29.069
	c12.789,2.352,25.831,3.569,38.971,3.569c12.776,0,25.461-1.146,37.911-3.372C289.579,484.785,274.194,497,256,497z
	 M409.588,409.089c-3.313,3.314-8.707,3.314-12.02,0l-67.883-67.883c-3.314-3.313-3.314-8.706,0-12.02
	c1.605-1.606,3.74-2.49,6.011-2.49s4.404,0.884,6.01,2.489l67.883,67.883c1.605,1.605,2.489,3.739,2.489,6.01
	S411.194,407.483,409.588,409.089z"/>
<g>
	<rect x="105" y="240" style="fill:#FFFFFF;" width="15" height="16"/>
	<rect x="393" y="240" style="fill:#FFFFFF;" width="15" height="16"/>
</g>
<g>
</g>
<g>
</g>
<g>
</g>
<g>
</g>
<g>
</g>
<g>
</g>
<g>
</g>
<g>
</g>
<g>
</g>
<g>
</g>
<g>
</g>
<g>
</g>
<g>
</g>
<g>
</g>
<g>
</g>
</svg>
