<?xml version="1.0" encoding="iso-8859-1"?>
<!-- Generator: Adobe Illustrator 19.0.0, SVG Export Plug-In . SVG Version: 6.00 Build 0)  -->
<svg version="1.1" id="Capa_1" xmlns="http://www.w3.org/2000/svg" xmlns:xlink="http://www.w3.org/1999/xlink" x="0px" y="0px"
	 viewBox="0 0 512 512" style="enable-background:new 0 0 512 512;" xml:space="preserve">
<rect x="224.499" y="120.5" style="fill:#737887;" width="64" height="32"/>
<path style="fill:#AADC96;" d="M368.5,504.5h-224c-8.837,0-16-7.163-16-16v-320c0-8.837,7.163-16,16-16h224c8.837,0,16,7.163,16,16
	v320C384.5,497.337,377.336,504.5,368.5,504.5z"/>
<path style="fill:#5AAA69;" d="M160.499,489V169c0-8.836,7.163-16,16-16h-32c-8.837,0-16,7.164-16,16v320c0,8.836,7.163,16,16,16h32
	C167.662,505,160.499,497.836,160.499,489z"/>
<g>
	<rect x="200.499" y="449" style="fill:#FFFFFF;" width="16" height="15"/>
	<rect x="248.499" y="449" style="fill:#FFFFFF;" width="16" height="15"/>
	<rect x="296.5" y="449" style="fill:#FFFFFF;" width="16" height="15"/>
	<rect x="128.499" y="248.5" style="fill:#FFFFFF;" width="256" height="160"/>
</g>
<g>
	<rect x="128.499" y="248.5" style="fill:#BEC8D7;" width="32" height="160"/>
	<rect x="192.499" y="81" style="fill:#BEC8D7;" width="128" height="39.5"/>
</g>
<path style="fill:#4BD2DC;" d="M283.167,349.833c0,14.728-11.939,26.667-26.667,26.667c-14.728,0-26.667-11.939-26.667-26.667
	S256.5,296.5,256.5,296.5S283.167,335.106,283.167,349.833z"/>
<g>
	<circle style="fill:#737887;" cx="112.499" cy="280.5" r="16"/>
	<circle style="fill:#737887;" cx="400.5" cy="280.5" r="16"/>
</g>
<path d="M256.5,283.304l-6.171,8.934c-4.675,6.769-27.996,41.353-27.996,57.596c0,18.84,15.327,34.167,34.167,34.167
	c18.84,0,34.167-15.327,34.167-34.167c0-16.243-23.321-50.828-27.996-57.596L256.5,283.304z M256.5,369
	c-10.568,0-19.167-8.599-19.167-19.167c0-4.488,5.999-19.266,19.168-39.807c13.167,20.531,19.165,35.313,19.165,39.807
	C275.667,360.401,267.068,369,256.5,369z"/>
<rect x="88.499" width="15" height="240"/>
<path d="M408.5,0v258.598c-2-1.028-5.503-1.598-8.5-1.598s-5.5,0.57-8.5,1.598V168.5c0-12.958-10.042-23.5-23-23.5h-73v-17h32V74
	h-143v54h32v17h-72c-12.958,0-24,10.542-24,23.5v90.098c-2-1.028-5.253-1.598-8.25-1.598c-12.958,0-23.375,10.542-23.375,23.5
	S99.228,304,112.188,304c2.997,0,6.313-0.57,8.313-1.598V488.5c0,12.958,11.042,23.5,24,23.5h224c12.958,0,23-10.542,23-23.5
	V302.402c3,1.028,5.503,1.598,8.5,1.598c12.958,0,23.5-10.542,23.5-23.5V0H408.5z M376.5,401h-17V256h17V401z M199.499,89h17v8h15
	v-8h17v8h15v-8h17v8h15v-8h17v24h-113V89z M231.499,128h49v17h-49V128z M144.499,160h224c4.686,0,8,3.814,8,8.5V241h-17v-24h-15v24
	h-209v-72.5C135.499,163.814,139.813,160,144.499,160z M112.499,289c-4.687,0-8.5-3.814-8.5-8.5s3.813-8.5,8.5-8.5
	s8.5,3.814,8.5,8.5S117.186,289,112.499,289z M368.5,497h-224c-4.687,0-9-3.814-9-8.5V416h185v-15h-185V256h209v185h15v-25h17v72.5
	C376.5,493.186,373.185,497,368.5,497z M400.5,289c-4.686,0-8.5-3.814-8.5-8.5s3.814-8.5,8.5-8.5c4.686,0,8.5,3.814,8.5,8.5
	S405.185,289,400.5,289z"/>
<g>
</g>
<g>
</g>
<g>
</g>
<g>
</g>
<g>
</g>
<g>
</g>
<g>
</g>
<g>
</g>
<g>
</g>
<g>
</g>
<g>
</g>
<g>
</g>
<g>
</g>
<g>
</g>
<g>
</g>
</svg>
