<?xml version="1.0" encoding="iso-8859-1"?>
<!-- Generator: Adobe Illustrator 19.0.0, SVG Export Plug-In . SVG Version: 6.00 Build 0)  -->
<svg version="1.1" id="Capa_1" xmlns="http://www.w3.org/2000/svg" xmlns:xlink="http://www.w3.org/1999/xlink" x="0px" y="0px"
	 viewBox="0 0 512 512" style="enable-background:new 0 0 512 512;" xml:space="preserve">
<path style="fill:#BEC8D7;" d="M141.349,325.355L96.5,505h32l40.011-160.17C158.838,339.235,149.745,332.625,141.349,325.355z"/>
<path style="fill:#737887;" d="M134.89,351.225c8.204,7.844,17.164,14.905,26.763,21.058l6.858-27.453
	c-9.673-5.595-18.766-12.205-27.163-19.475L134.89,351.225z"/>
<path style="fill:#BEC8D7;" d="M344.489,344.705L384.5,505h32l-44.849-179.52C363.255,332.75,354.162,339.11,344.489,344.705z"/>
<path style="fill:#737887;" d="M371.651,325.48c-8.396,7.27-17.49,13.63-27.163,19.225l6.88,27.563
	c9.582-6.144,18.527-13.192,26.719-21.022L371.651,325.48z"/>
<path style="fill:#FF6955;" d="M432.5,192c0,97.202-78.798,176-176,176s-176-78.798-176-176"/>
<path style="fill:#F03C1E;" d="M304.5,352c-91.807,0-167.183-70.298-175.269-160H80.5c0,97.202,78.798,176,176,176
	c28.443,0,55.305-6.756,79.083-18.737C325.493,351.061,315.106,352,304.5,352z"/>
<g>
	<rect x="112.5" y="216.5" style="fill:#FFFFFF;" width="16" height="15"/>
	<rect x="160.5" y="216.5" style="fill:#FFFFFF;" width="16" height="15"/>
</g>
<rect x="48.5" y="168.5" style="fill:#555A6E;" width="416" height="23.5"/>
<g>
	<path style="fill:#BEC8D7;" d="M208.5,120h-24c-13.255,0-24-10.745-24-24l0,0c0-13.255,10.745-24,24-24h24"/>
	<path style="fill:#BEC8D7;" d="M296.5,72h24c13.255,0,24-10.745,24-24l0,0c0-13.255-10.745-24-24-24h-24"/>
</g>
<path d="M439.834,200H471.5v-39h-327v15h312v9h-401v-9h57v-15h-72v39h32.666c2.047,50,24.711,95.829,59.821,127.84L86.894,512
	h47.462l15.999-64h212.29l15.999,64h47.461l-46.092-184.16C415.124,295.829,437.787,250,439.834,200z M88.175,200h336.649
	c-3.938,89-77.927,161-168.324,161S92.114,289,88.175,200z M122.644,497h-16.539l39.682-158.763c4.545,3.45,9.256,6.69,14.117,9.712
	L122.644,497z M406.894,497h-16.538l-32.703-130.818l-14.552,3.639L358.895,433h-204.79l19.348-77.396
	c24.951,12.717,53.176,19.896,83.048,19.896c41.553,0,79.918-13.892,110.713-37.263L406.894,497z"/>
<path d="M184.5,128h56c4.687,0,8,3.314,8,8v8h15v-8c0-12.958-10.042-23-23-23h-8c-9.098,0-16.5-7.402-16.5-16.5S223.402,80,232.5,80
	h88c17.369,0,31.5-14.131,31.5-31.5S337.869,17,320.5,17h-120C191.402,17,184,9.098,184,0h-15c0,17.369,14.131,32,31.5,32h72
	c9.098,0,16.5,7.402,16.5,16.5S281.598,65,272.5,65h-88C167.131,65,153,79.131,153,96.5S167.131,128,184.5,128z M299.319,32H320.5
	c9.098,0,16.5,7.402,16.5,16.5S329.598,65,320.5,65h-21.181C302.284,60,304,54.546,304,48.5S302.284,36,299.319,32z M184.5,80
	h21.181C202.716,84,201,90.454,201,96.5s1.716,11.5,4.681,16.5H184.5c-9.098,0-16.5-7.402-16.5-16.5S175.402,80,184.5,80z"/>
<g>
</g>
<g>
</g>
<g>
</g>
<g>
</g>
<g>
</g>
<g>
</g>
<g>
</g>
<g>
</g>
<g>
</g>
<g>
</g>
<g>
</g>
<g>
</g>
<g>
</g>
<g>
</g>
<g>
</g>
</svg>
