<?xml version="1.0" encoding="iso-8859-1"?>
<!-- Generator: Adobe Illustrator 19.0.0, SVG Export Plug-In . SVG Version: 6.00 Build 0)  -->
<svg version="1.1" id="Capa_1" xmlns="http://www.w3.org/2000/svg" xmlns:xlink="http://www.w3.org/1999/xlink" x="0px" y="0px"
	 viewBox="0 0 512 512" style="enable-background:new 0 0 512 512;" xml:space="preserve">
<g>
	<polyline style="fill:#555A6E;" points="336.5,80 336.5,7.5 400.5,7.5 400.5,144 	"/>
	<polyline style="fill:#555A6E;" points="112.5,144 112.5,7.5 176.5,7.5 176.5,80 	"/>
</g>
<path style="fill:#737887;" d="M368.5,504.5h-224c-26.51,0-48-21.49-48-48v-240c0-88.365,71.634-160,160-160l0,0
	c88.365,0,160,71.634,160,160v240C416.5,483.01,395.01,504.5,368.5,504.5z"/>
<path style="fill:#555A6E;" d="M400.5,480h-224c-26.51,0-48-21.49-48-48V192c0-44.549,18.213-84.838,47.59-113.848
	C128.495,105.876,96.5,157.448,96.5,216.5v240c0,26.51,21.49,48.5,48,48.5h224c18.442,0,34.446-10.656,42.484-25.912
	C407.608,479.84,404.103,480,400.5,480z"/>
<path style="fill:#FFFFFF;" d="M288.5,120.5h-64l-16-16c0-8.837,7.163-16,16-16h64c8.837,0,16,7.163,16,16L288.5,120.5z"/>
<path d="M375.5,99.257V64h-15v21.698c-5-4.327-11-8.328-17-11.97V15h49v97h15V0h-79v65.518C307.5,54.935,281.955,49,256,49
	s-50.5,5.935-72.5,16.518V0h-79v144h1.017C94.935,165.95,88.5,190.545,88.5,216.5v240c0,30.603,25.397,55.5,56,55.5h224
	c30.602,0,55-24.897,55-55.5v-240C423.5,170.893,405.5,129.493,375.5,99.257z M119.5,15h49v58.728c-5,3.642-11,7.643-17,11.97V64
	h-15v35.257c-6,6.295-11,13.066-17,20.267V15z M368.5,497h-224c-8.461,0-16.322-2.612-22.826-7.067l14.07-14.071
	c7.746-7.746,12.911-17.38,15.085-27.862h211.342c2.174,10.482,7.339,20.116,15.085,27.861l14.07,14.071
	C384.822,494.388,376.961,497,368.5,497z M408.5,456.5c0,8.461-2.362,16.322-6.817,22.826l-14.196-14.071
	c-7.649-7.649-11.987-17.819-11.987-28.637V269.906l33-11V456.5z M408.5,243.094l-33,11v-81.817
	c0-15.767-6.492-30.844-18.248-41.366l-10.129,11.178c8.581,7.68,13.377,18.683,13.377,30.188V433h-97v-81h-15v81h-97v-17h-15
	v20.618c0,10.817-3.963,20.987-11.612,28.637l-14.196,14.071c-4.455-6.504-7.192-14.365-7.192-22.826V258.906l33,11V384h15V172.277
	c0-11.506,5.171-22.509,13.752-30.188l-10.129-11.178c-11.756,10.522-18.623,25.6-18.623,41.366v81.817l-33-11V216.5
	C103.5,132.411,171.911,64,256,64s152.5,68.411,152.5,152.5V243.094z"/>
<polygon points="192.5,184 280.5,184 280.5,192 295.5,192 295.5,184 320.5,184 320.5,169 192.5,169 "/>
<path d="M291.606,128l19.894-20.394V104.5c0-12.958-10.042-23.5-23-23.5h-64c-12.958,0-24,10.542-24,23.5v3.106L221.394,128H291.606
	z M224.5,96h64c3.752,0,6.945,2.444,8.069,5.824L285.394,113h-57.787l-11.175-11.176C217.555,98.444,220.748,96,224.5,96z"/>
<g>
	<rect x="169" y="256" style="fill:#FFFFFF;" width="15" height="16"/>
	<rect x="169" y="304" style="fill:#FFFFFF;" width="15" height="16"/>
	<rect x="329" y="464" style="fill:#FFFFFF;" width="15" height="16"/>
</g>
<g>
</g>
<g>
</g>
<g>
</g>
<g>
</g>
<g>
</g>
<g>
</g>
<g>
</g>
<g>
</g>
<g>
</g>
<g>
</g>
<g>
</g>
<g>
</g>
<g>
</g>
<g>
</g>
<g>
</g>
</svg>
