<?xml version="1.0" encoding="iso-8859-1"?>
<!-- Generator: Adobe Illustrator 19.0.0, SVG Export Plug-In . SVG Version: 6.00 Build 0)  -->
<svg version="1.1" id="Capa_1" xmlns="http://www.w3.org/2000/svg" xmlns:xlink="http://www.w3.org/1999/xlink" x="0px" y="0px"
	 viewBox="0 0 512 512" style="enable-background:new 0 0 512 512;" xml:space="preserve">
<g>
	<polyline style="fill:#555A6E;" points="448,436 432,459.5 400,459.5 384,436 	"/>
	<polyline style="fill:#555A6E;" points="128,436 112,459.5 80,459.5 64,436 	"/>
	<rect x="192" y="52" style="fill:#555A6E;" width="128" height="32"/>
</g>
<rect x="7.5" y="132" style="fill:#F58C46;" width="497" height="304"/>
<g>
	<rect x="416" y="132" style="fill:#C35A1E;" width="32" height="304"/>
	<rect x="384" y="132" style="fill:#C35A1E;" width="32" height="304"/>
	<rect x="96" y="132" style="fill:#C35A1E;" width="32" height="304"/>
	<rect x="64" y="132" style="fill:#C35A1E;" width="32" height="304"/>
</g>
<g>
	<rect x="400" y="132" style="fill:#FFE05F;" width="32" height="304"/>
	<rect x="80" y="132" style="fill:#FFE05F;" width="32" height="304"/>
</g>
<g>
	<rect x="7.5" y="132" style="fill:#C35A1E;" width="32" height="304"/>
	<rect x="7.5" y="260" style="fill:#C35A1E;" width="32" height="176"/>
	<rect x="472.5" y="132" style="fill:#C35A1E;" width="32" height="304"/>
	<rect x="472.5" y="260" style="fill:#C35A1E;" width="32" height="176"/>
</g>
<g>
	<rect x="200" y="348.5" style="fill:#FFFFFF;" width="16" height="15"/>
	<rect x="248" y="348.5" style="fill:#FFFFFF;" width="16" height="15"/>
	<rect x="296" y="348.5" style="fill:#FFFFFF;" width="16" height="15"/>
</g>
<path d="M199,125V92h113v24h15V45H184v80H0v319h60.033l16,23h39.934l16-23h248.067l16,23h39.934l16-23H512V125H199z M199,60h113v17
	H199V60z M32,429H15V268h17V429z M32,253H15V140h17V253z M72,429H47V268h25V429z M72,253H47V140h25V253z M87,140h17v289H87V140z
	 M108.033,452H83.967l-5.787-8h35.641L108.033,452z M392,429H119V268h273V429z M392,253H119V140h129v40h15v-40h129V253z M407,140h17
	v289h-17V140z M428.033,452h-24.066l-5.787-8h35.641L428.033,452z M439,140h26v113h-26V140z M497,429h-58V268h26v136h15V268h17V429z
	 M497,253h-17V140h17V253z"/>
<rect x="160" y="397" width="192" height="15"/>
<g>
</g>
<g>
</g>
<g>
</g>
<g>
</g>
<g>
</g>
<g>
</g>
<g>
</g>
<g>
</g>
<g>
</g>
<g>
</g>
<g>
</g>
<g>
</g>
<g>
</g>
<g>
</g>
<g>
</g>
</svg>
