<?xml version="1.0" encoding="iso-8859-1"?>
<!-- Generator: Adobe Illustrator 19.0.0, SVG Export Plug-In . SVG Version: 6.00 Build 0)  -->
<svg version="1.1" id="Capa_1" xmlns="http://www.w3.org/2000/svg" xmlns:xlink="http://www.w3.org/1999/xlink" x="0px" y="0px"
	 viewBox="0 0 512 512" style="enable-background:new 0 0 512 512;" xml:space="preserve">
<polygon style="fill:#BEC8D7;" points="304.5,504.5 304.5,200.5 336.5,120.5 336.5,72.5 176.5,72.5 176.5,120.5 208.5,200.5 
	208.5,504.5 "/>
<g>
	<polyline style="fill:#737887;" points="240.5,200.5 208.5,121 176.5,121 208.5,200.5 	"/>
	<rect x="208.5" y="200.5" style="fill:#737887;" width="32" height="271"/>
</g>
<rect x="208.5" y="472.5" style="fill:#6EE1F0;" width="96" height="32"/>
<rect x="208.5" y="472.5" style="fill:#19BEC8;" width="32" height="32"/>
<rect x="176.5" y="72.5" style="fill:#6EE1F0;" width="160" height="48"/>
<rect x="176.5" y="72.5" style="fill:#19BEC8;" width="32" height="48"/>
<rect x="240.5" y="264.5" style="fill:#FFBE14;" width="32" height="64"/>
<rect x="240.5" y="296.5" style="fill:#FF6955;" width="32" height="32"/>
<path d="M168.5,65v56.944l32,80V512h111V201.944l32-80V65H168.5z M279.5,80h17v33h-17V80z M247.5,80h17v33h-17V80z M215.5,80h17v33
	h-17V80z M183.5,80h17v33h-17V80z M296.5,497h-81v-17h81V497z M296.5,465h-81V208h81V465z M318.622,145H224.5v15h88.122l-13.2,33
	h-85.844l-26-65h137.844L318.622,145z M328.5,113h-17V80h17V113z"/>
<path d="M279.5,257h-47v79h47V257z M264.5,321h-17v-17h17V321z M264.5,289h-17v-17h17V289z"/>
<rect x="200.5" y="16" width="15" height="32"/>
<rect x="296.5" y="16" width="15" height="32"/>
<rect x="248.5" width="15" height="48"/>
<g>
	<rect x="248.5" y="344.5" style="fill:#FFFFFF;" width="16" height="15"/>
	<rect x="248.5" y="232.5" style="fill:#FFFFFF;" width="16" height="15"/>
</g>
<g>
</g>
<g>
</g>
<g>
</g>
<g>
</g>
<g>
</g>
<g>
</g>
<g>
</g>
<g>
</g>
<g>
</g>
<g>
</g>
<g>
</g>
<g>
</g>
<g>
</g>
<g>
</g>
<g>
</g>
</svg>
