<?xml version="1.0" encoding="iso-8859-1"?>
<!-- Generator: Adobe Illustrator 19.0.0, SVG Export Plug-In . SVG Version: 6.00 Build 0)  -->
<svg version="1.1" id="Capa_1" xmlns="http://www.w3.org/2000/svg" xmlns:xlink="http://www.w3.org/1999/xlink" x="0px" y="0px"
	 viewBox="0 0 512 512" style="enable-background:new 0 0 512 512;" xml:space="preserve">
<polygon style="fill:#AADC96;" points="504.504,361.354 376.574,409.327 232.653,361.354 88.732,409.327 88.732,73.512 
	232.653,25.538 376.574,73.512 504.504,25.538 "/>
<g>
	<polygon style="fill:#5AAA69;" points="408.057,397.334 408.057,61.518 376.075,73.512 376.075,409.327 	"/>
	<polygon style="fill:#5AAA69;" points="232.154,361.354 264.136,372.014 264.136,36.198 232.154,25.538 	"/>
</g>
<g>
	<rect x="144.201" y="97.996" style="fill:#FFFFFF;" width="15.991" height="14.992"/>
	<rect x="464.025" y="177.952" style="fill:#FFFFFF;" width="15.991" height="14.992"/>
	<rect x="288.122" y="337.865" style="fill:#FFFFFF;" width="15.991" height="14.992"/>
</g>
<rect x="96.227" y="361.352" style="fill:#BEC8D7;" width="47.974" height="127.93"/>
<path style="fill:#737887;" d="M96.228,390.859c7.575,1.617,15.431,2.477,23.487,2.477c8.412,0,16.605-0.934,24.487-2.694v-29.289
	H96.228C96.228,361.354,96.228,390.859,96.228,390.859z"/>
<circle style="fill:#BEC8D7;" cx="119.714" cy="249.413" r="111.939"/>
<circle style="fill:#A0F5F5;" cx="119.714" cy="249.413" r="79.956"/>
<path style="fill:#4BD2DC;" d="M144.202,313.38c-44.159,0-79.956-35.797-79.956-79.956c0-22.771,9.535-43.302,24.81-57.864
	c-28.941,12.028-49.297,40.561-49.297,73.855c0,44.159,35.797,79.956,79.956,79.956c21.387,0,40.799-8.414,55.146-22.092
	C165.418,311.204,155.066,313.38,144.202,313.38z"/>
<path d="M376.427,65.561L232.654,17.637L81.237,68.11v53.376h14.992V78.914l127.93-42.81v69.39h14.992V35.771L368.08,78.749v96.135
	l-135.676-45.308l-51.689,17.271c-17.893-10.703-38.739-16.866-61.061-16.866C53.796,129.981,0,183.558,0,249.415
	c0,55.144,38.26,101.67,88.233,115.351v132.513h62.965V364.494c31.982-8.741,57.968-30.025,72.96-58.097v49.72l-50.594,16.948
	l4.866,14.222l54.16-18.033l144.1,48.024L512,366.547V14.721L376.427,65.561z M497.008,244.22l-113.937,42.54v-69.327h-14.992
	v69.389L239.15,243.845v-96.136L376.472,193.4l120.536-45.107V244.22z M368.079,398.76L239.15,355.785v-96.136l128.929,42.976
	V398.76z M497.008,132.281l-113.937,42.54V78.894l113.937-42.54V132.281z M136.206,482.287h-32.982V367.776
	c5.997,0.704,10.569,1.073,15.991,1.073c5.768,0,11.993-0.42,16.991-1.214V482.287z M119.715,353.858
	c-57.589,0-104.443-46.853-104.443-104.443s46.853-104.443,104.443-104.443c21.762,0,41.989,6.694,58.736,18.126l0.104,0.312
	l0.233-0.078c27.38,18.849,45.37,50.402,45.37,86.083C224.158,307.005,177.305,353.858,119.715,353.858z M195.506,157.594
	l28.653-9.551v44.39C217.162,179.076,207.117,167.258,195.506,157.594z M383.071,398.697v-95.926l113.937-42.54v95.927
	L383.071,398.697z"/>
<path d="M119.715,161.963c-22.748,0-44.294,8.689-60.671,24.468l10.402,10.797c13.569-13.073,31.421-20.273,50.268-20.273
	c39.955,0,72.46,32.505,72.46,72.46s-32.505,72.46-72.46,72.46s-72.46-32.505-72.46-72.46c0-10.08,2.027-19.831,6.026-28.981
	l-13.736-6.003c-4.831,11.055-7.281,22.825-7.281,34.984c0,48.222,39.23,87.452,87.452,87.452s87.452-39.23,87.452-87.452
	S167.937,161.963,119.715,161.963z"/>
<g>
</g>
<g>
</g>
<g>
</g>
<g>
</g>
<g>
</g>
<g>
</g>
<g>
</g>
<g>
</g>
<g>
</g>
<g>
</g>
<g>
</g>
<g>
</g>
<g>
</g>
<g>
</g>
<g>
</g>
</svg>
