<?xml version="1.0" encoding="iso-8859-1"?>
<!-- Generator: Adobe Illustrator 19.0.0, SVG Export Plug-In . SVG Version: 6.00 Build 0)  -->
<svg version="1.1" id="Capa_1" xmlns="http://www.w3.org/2000/svg" xmlns:xlink="http://www.w3.org/1999/xlink" x="0px" y="0px"
	 viewBox="0 0 512 512" style="enable-background:new 0 0 512 512;" xml:space="preserve">
<polyline style="fill:#BEC8D7;" points="324.57,164.07 256,95.5 48,95.5 48,191.5 80,191.5 80,127.5 240,127.5 288,175.5 "/>
<rect x="48" y="167" style="fill:#737887;" width="32" height="24.5"/>
<polygon style="fill:#FFE05F;" points="336,415.5 432,415.5 432,159.5 336,159.5 256,191.5 7.5,191.5 7.5,383.5 256,383.5 "/>
<g>
	<polyline style="fill:#FFBE14;" points="256,383.5 336,415.5 336,159.5 256,191.5 	"/>
	<path style="fill:#FFBE14;" d="M432,223.5h-48c-8.837,0-16-7.163-16-16l0,0c0-8.837,7.163-16,16-16h48V223.5z"/>
	<path style="fill:#FFBE14;" d="M432,383.5h-48c-8.837,0-16-7.163-16-16l0,0c0-8.837,7.163-16,16-16h48V383.5z"/>
	<path style="fill:#FFBE14;" d="M432,303.5h-48c-8.837,0-16-7.163-16-16l0,0c0-8.837,7.163-16,16-16h48V303.5z"/>
</g>
<path d="M326.378,155.771L259.106,88.5H40v96H0v207h254.556l80,32H439v-271H334.556L326.378,155.771z M55,103.5h197.894
	l58.331,58.082l-19.133,7.778l-48.986-48.86H72v39h15v-24h149.894l40.046,40.047l-22.384,8.953H55V103.5z M328,404.422
	L257.444,376.5H15v-177h233v152h15V196.578l65-26V404.422z M424,376.5h-40c-4.686,0-8.5-3.814-8.5-8.5s3.814-8.5,8.5-8.5h40V376.5z
	 M424,296.5h-40c-4.686,0-8.5-3.814-8.5-8.5s3.814-8.5,8.5-8.5h40V296.5z M424,216.5h-40c-4.686,0-8.5-3.814-8.5-8.5
	s3.814-8.5,8.5-8.5h40V216.5z M343,167.5h81v17h-40c-12.958,0-23.5,10.542-23.5,23.5s10.542,23.5,23.5,23.5h40v33h-40
	c-12.958,0-23.5,10.542-23.5,23.5s10.542,23.5,23.5,23.5h40v33h-40c-12.958,0-23.5,10.542-23.5,23.5s10.542,23.5,23.5,23.5h40v17
	h-81V167.5z"/>
<rect x="464" y="232.5" width="32" height="15"/>
<rect x="464" y="328.5" width="32" height="15"/>
<rect x="464" y="280.5" width="48" height="15"/>
<rect x="48" y="216.5" width="160" height="15"/>
<g>
	<rect x="208" y="344" style="fill:#FFFFFF;" width="16" height="15"/>
	<rect x="208" y="296" style="fill:#FFFFFF;" width="16" height="15"/>
</g>
<g>
</g>
<g>
</g>
<g>
</g>
<g>
</g>
<g>
</g>
<g>
</g>
<g>
</g>
<g>
</g>
<g>
</g>
<g>
</g>
<g>
</g>
<g>
</g>
<g>
</g>
<g>
</g>
<g>
</g>
</svg>
