<?xml version="1.0" encoding="iso-8859-1"?>
<!-- Generator: Adobe Illustrator 19.0.0, SVG Export Plug-In . SVG Version: 6.00 Build 0)  -->
<svg version="1.1" id="Capa_1" xmlns="http://www.w3.org/2000/svg" xmlns:xlink="http://www.w3.org/1999/xlink" x="0px" y="0px"
	 viewBox="0 0 512 512" style="enable-background:new 0 0 512 512;" xml:space="preserve">
<path style="fill:#555A6E;" d="M443.769,156.963h-0.28C409.796,86.956,338.619,39.601,256.25,39.601
	c-57.446,0-109.451,23.247-147.095,60.891c-16.222,16.222-29.783,35.107-39.954,55.949C88.713,71.082,165.041,7.457,256.32,7.457
	c53.025,0,101.13,21.598,135.874,56.352C417.327,88.93,435.769,120.96,443.769,156.963z"/>
<polyline style="fill:#FFBE14;" points="80.232,359.559 48.229,343.558 48.229,279.551 80.232,263.549 "/>
<path style="fill:#737887;" d="M120.236,407.564L120.236,407.564c-22.093,0-40.004-17.911-40.004-40.004V255.548
	c0-22.093,17.911-40.004,40.004-40.004l0,0c22.093,0,40.004,17.911,40.004,40.004V367.56
	C160.24,389.653,142.33,407.564,120.236,407.564z"/>
<path style="fill:#555A6E;" d="M120.236,383.987c-22.093,0-40.004-17.911-40.004-40.004v23.577
	c0,22.093,17.911,40.004,40.004,40.004s40.004-17.911,40.004-40.004v-23.577C160.24,366.076,142.33,383.987,120.236,383.987z"/>
<path style="fill:#FFE05F;" d="M80.232,255.543v112.022c0,19.352,13.741,35.494,32.003,39.204v-190.42
	C93.973,220.06,80.232,236.191,80.232,255.543z"/>
<polyline style="fill:#FFBE14;" points="432.268,359.559 464.272,343.558 464.272,279.551 432.268,263.549 "/>
<path style="fill:#4A4A4A;" d="M392.264,407.564L392.264,407.564c22.093,0,40.004-17.911,40.004-40.004V255.548
	c0-22.093-17.911-40.004-40.004-40.004l0,0c-22.093,0-40.004,17.911-40.004,40.004V367.56
	C352.26,389.653,370.171,407.564,392.264,407.564z"/>
<path style="fill:#737887;" d="M392.264,407.564L392.264,407.564c22.093,0,40.004-17.911,40.004-40.004V255.548
	c0-22.093-17.911-40.004-40.004-40.004l0,0c-22.093,0-40.004,17.911-40.004,40.004V367.56
	C352.26,389.653,370.171,407.564,392.264,407.564z"/>
<path style="fill:#555A6E;" d="M392.264,383.987c-22.093,0-40.004-17.911-40.004-40.004v23.577
	c0,22.093,17.911,40.004,40.004,40.004s40.004-17.911,40.004-40.004v-23.577C432.268,366.076,414.358,383.987,392.264,383.987z"/>
<path style="fill:#FFE05F;" d="M432.268,255.543v112.022c0,19.352-13.741,35.494-32.003,39.204v-190.42
	C418.527,220.06,432.268,236.191,432.268,255.543z"/>
<path d="M119.736,208.044c-26.194,0-47.505,21.311-47.505,47.505v3.365l-32.003,16.002v73.278l32.003,16.002v3.365
	c0,14.115,7.001,26.806,16.002,35.515V512h15.002v-99.895c6.001,1.911,10.701,2.96,16.502,2.96
	c26.194,0,47.505-21.311,47.505-47.505V255.548C167.241,229.355,145.931,208.044,119.736,208.044z M72.231,347.423l-17.002-8.501
	v-54.735l17.002-8.502V347.423z M104.234,395.834c-9.843-5.593-17.002-16.167-17.002-28.274V255.548
	c0-12.107,7.159-22.682,17.002-28.274V395.834z M152.239,367.56c0,17.923-14.331,32.503-32.253,32.503
	c-0.335,0-0.417-0.015-0.75-0.025V223.07c0.333-0.01,0.415-0.025,0.75-0.025c17.922,0,32.253,14.581,32.253,32.503V367.56z"/>
<path d="M439.269,255.548c0-26.194-21.311-47.505-47.505-47.505c-26.194,0-47.505,21.311-47.505,47.505V367.56
	c0,26.194,21.311,47.505,47.505,47.505c5.8,0,11.501-1.049,16.502-2.96V512h15.002V403.075
	c10.001-8.709,16.002-21.398,16.002-35.515v-3.365l32.003-16.002v-73.278l-32.003-16.002V255.548z M392.264,400.05
	c0,0.002-0.332,0.013-0.5,0.013c-17.922,0-32.503-14.581-32.503-32.503V255.548c0-17.923,14.582-32.503,32.503-32.503
	c0.168,0,0.5,0.01,0.5,0.013V400.05z M424.267,367.56c0,12.313-6.001,23.048-17.002,28.563V226.986
	c11.001,5.515,17.002,16.25,17.002,28.563V367.56z M456.271,284.187v54.735l-17.002,8.501v-71.736L456.271,284.187z"/>
<path d="M456.771,247.973h15.002c0-33.003-7.147-64.105-20.69-92.612c-8.114-36.344-26.643-69.895-53.585-96.827
	C359.797,20.822,309.659,0,256.318,0c-45.499,0-89.992,15.678-125.285,44.192C96.615,71.999,72.194,111.045,62.14,153.896
	c-14.004,28.899-21.412,61.073-21.412,94.077h15.002c0-111.011,89.953-200.521,200.521-200.521S456.771,136.961,456.771,247.973z
	 M104.81,94.215c9.957-14.337,21.943-27.307,35.65-38.382c32.632-26.365,73.778-40.885,115.857-40.885
	c49.333,0,95.704,19.208,130.573,54.088c8.124,8.121,15.405,16.888,21.809,26.167c-0.017-0.017-0.034-0.035-0.051-0.052
	c-40.707-40.706-94.83-63.125-152.398-63.125C199.129,32.025,145.408,54.107,104.81,94.215z"/>
<g>
</g>
<g>
</g>
<g>
</g>
<g>
</g>
<g>
</g>
<g>
</g>
<g>
</g>
<g>
</g>
<g>
</g>
<g>
</g>
<g>
</g>
<g>
</g>
<g>
</g>
<g>
</g>
<g>
</g>
</svg>
