<?xml version="1.0" encoding="iso-8859-1"?>
<!-- Generator: Adobe Illustrator 19.0.0, SVG Export Plug-In . SVG Version: 6.00 Build 0)  -->
<svg version="1.1" id="Capa_1" xmlns="http://www.w3.org/2000/svg" xmlns:xlink="http://www.w3.org/1999/xlink" x="0px" y="0px"
	 viewBox="0 0 512 512" style="enable-background:new 0 0 512 512;" xml:space="preserve">
<path style="fill:#A0F5F5;" d="M364,160H172V39.5c0-17.673,14.327-32,32-32h128c17.673,0,32,14.327,32,32V160z"/>
<path style="fill:#4BD2DC;" d="M236,8h-32c-17.673,0-32,13.827-32,31.5V160h32V39.5C204,21.827,218.327,8,236,8z"/>
<rect x="172" y="160" style="fill:#A0F5F5;" width="192" height="344.5"/>
<rect x="172" y="160" style="fill:#4BD2DC;" width="32" height="345"/>
<rect x="172" y="416" style="fill:#737887;" width="192" height="32"/>
<rect x="172" y="416" style="fill:#555A6E;" width="32" height="32"/>
<rect x="172" y="160" style="fill:#737887;" width="192" height="32"/>
<rect x="172" y="160" style="fill:#555A6E;" width="32" height="32"/>
<g>
	<rect x="204" y="216.5" style="fill:#FFFFFF;" width="16" height="15"/>
	<rect x="204" y="264.5" style="fill:#FFFFFF;" width="16" height="15"/>
</g>
<path d="M371,121V39.5C371,17.72,353.78,0,332,0H204c-21.78,0-40,17.72-40,39.5V121h-8v15h8v83.365l-17,8.5V208h-15v240h15v-19.865
	l17,8.5V512h207V256h-15v153H179V200h177v24h15v-88h9v-15H371z M164,419.865l-17-8.5v-166.73l17-8.5V419.865z M356,497H179v-41h177
	V497z M356,424v17H179v-17H356z M196,185h-17v-17h17V185z M228,185h-17v-17h17V185z M260,185h-17v-17h17V185z M292,185h-17v-17h17
	V185z M324,185h-17v-17h17V185z M356,185h-17v-17h17V185z M356,153H179v-17h177V153z M356,121H179V39.5c0-13.51,11.491-24.5,25-24.5
	h128c13.509,0,24,10.99,24,24.5V121z"/>
<path d="M308,41h-80c-4.687,0-8.5-4.313-8.5-9h-15c0,12.958,10.542,24,23.5,24h80c12.958,0,23.5-11.042,23.5-24h-15
	C316.5,36.687,312.687,41,308,41z"/>
<rect x="324" y="224" width="15" height="160"/>
<g>
</g>
<g>
</g>
<g>
</g>
<g>
</g>
<g>
</g>
<g>
</g>
<g>
</g>
<g>
</g>
<g>
</g>
<g>
</g>
<g>
</g>
<g>
</g>
<g>
</g>
<g>
</g>
<g>
</g>
</svg>
