<?xml version="1.0" encoding="iso-8859-1"?>
<!-- Generator: Adobe Illustrator 19.0.0, SVG Export Plug-In . SVG Version: 6.00 Build 0)  -->
<svg version="1.1" id="Capa_1" xmlns="http://www.w3.org/2000/svg" xmlns:xlink="http://www.w3.org/1999/xlink" x="0px" y="0px"
	 viewBox="0 0 512 512" style="enable-background:new 0 0 512 512;" xml:space="preserve">
<rect x="144.5" y="128" style="fill:#FFE05F;" width="224" height="112"/>
<rect x="144.5" y="215.5" style="fill:#FFBE14;" width="224" height="24.5"/>
<rect x="176.5" y="96" style="fill:#F58C46;" width="32" height="144"/>
<rect x="176.5" y="215.5" style="fill:#C35A1E;" width="32" height="24.5"/>
<ellipse style="fill:#737887;" cx="192.5" cy="55.5" rx="32" ry="48"/>
<path style="fill:#555A6E;" d="M191.072,7.546c-8.888,8.528-14.786,23.453-14.786,40.454c0,26.51,14.327,48,32,48
	c0.407,0,0.811-0.023,1.214-0.046c-4.971,4.77-10.875,7.546-17.214,7.546c-17.673,0-32-21.49-32-48
	C160.286,29.601,173.963,8.505,191.072,7.546z"/>
<rect x="240.5" y="96" style="fill:#F58C46;" width="32" height="144"/>
<rect x="240.5" y="215.5" style="fill:#C35A1E;" width="32" height="24.5"/>
<ellipse style="fill:#737887;" cx="256.5" cy="55.5" rx="32" ry="48"/>
<path style="fill:#555A6E;" d="M255.286,7.546C246.398,16.074,240.5,30.999,240.5,48c0,26.51,14.327,48,32,48
	c0.407,0,0.81-0.023,1.214-0.046c-4.971,4.77-10.875,7.546-17.214,7.546c-17.673,0-32-21.49-32-48
	C224.5,29.601,238.176,8.505,255.286,7.546z"/>
<rect x="304.5" y="96" style="fill:#F58C46;" width="32" height="144"/>
<rect x="304.5" y="215.5" style="fill:#C35A1E;" width="32" height="24.5"/>
<ellipse style="fill:#737887;" cx="320.5" cy="55.5" rx="32" ry="48"/>
<path style="fill:#555A6E;" d="M319.286,7.546C310.398,16.074,304.5,30.999,304.5,48c0,26.51,14.327,48,32,48
	c0.407,0,0.81-0.023,1.214-0.046c-4.971,4.77-10.875,7.546-17.214,7.546c-17.673,0-32-21.49-32-48
	C288.5,29.601,302.177,8.505,319.286,7.546z"/>
<rect x="128.5" y="240" style="fill:#FF6955;" width="256" height="264.5"/>
<rect x="160.5" y="240" style="fill:#F03C1E;" width="32" height="264.5"/>
<g>
	<rect x="216.5" y="272.5" style="fill:#FFFFFF;" width="16" height="15"/>
	<rect x="264.5" y="272.5" style="fill:#FFFFFF;" width="16" height="15"/>
	<rect x="312.5" y="272.5" style="fill:#FFFFFF;" width="16" height="15"/>
</g>
<rect x="128.5" y="240" style="fill:#F03C1E;" width="32" height="264.5"/>
<rect x="208.5" y="465" width="128" height="15"/>
<path d="M343.5,233v-97h17v72h15v-87h-32v-20.613c10-10.011,16.25-26.234,16.25-44.887c0-31.121-17.226-55.5-39.375-55.5
	c-13.309,0-24.817,8.809-31.938,22.587C281.317,8.809,269.778,0,256.469,0c-13.309,0-24.864,8.809-31.984,22.587
	C217.364,8.809,205.801,0,192.492,0c-22.149,0-39.746,24.379-39.746,55.5c0,18.653,6.754,34.876,15.754,44.887V121h-32v112h-16v279
	h271V233H343.5z M328.5,233h-17V109.751c3,0.811,5.572,1.249,8.5,1.249s6.5-0.438,8.5-1.249V233z M224,88.413
	c2.373,4.591,5.5,8.63,8.5,11.974V121h-17v-20.613C219.5,97.042,221.627,93.004,224,88.413z M215.5,136h17v97h-17V136z
	 M247.5,109.751c3,0.811,5.572,1.249,8.5,1.249c2.928,0,6.5-0.438,8.5-1.249V233h-17V109.751z M296.5,121h-17v-20.613
	c4-3.345,6.127-7.383,8.5-11.974c2.373,4.591,5.5,8.63,8.5,11.974V121z M279.5,136h17v97h-17V136z M320.5,15
	c13.28,0,24.5,18.547,24.5,40.5S333.78,96,320.5,96S296,77.453,296,55.5S307.22,15,320.5,15z M256.5,15
	c13.28,0,24.5,18.547,24.5,40.5S269.78,96,256.5,96S232,77.453,232,55.5S243.22,15,256.5,15z M168,55.5
	c0-21.953,11.22-40.5,24.5-40.5S217,33.547,217,55.5S205.78,96,192.5,96S168,77.453,168,55.5z M151.5,136h17v72h15v-98.249
	c3,0.811,5.572,1.249,8.5,1.249s6.5-0.438,8.5-1.249V233h-49V136z M135.5,248h17v249h-17V248z M376.5,497h-209V248h209V497z"/>
<g>
</g>
<g>
</g>
<g>
</g>
<g>
</g>
<g>
</g>
<g>
</g>
<g>
</g>
<g>
</g>
<g>
</g>
<g>
</g>
<g>
</g>
<g>
</g>
<g>
</g>
<g>
</g>
<g>
</g>
</svg>
