<?xml version="1.0" encoding="iso-8859-1"?>
<!-- Generator: Adobe Illustrator 19.0.0, SVG Export Plug-In . SVG Version: 6.00 Build 0)  -->
<svg version="1.1" id="Capa_1" xmlns="http://www.w3.org/2000/svg" xmlns:xlink="http://www.w3.org/1999/xlink" x="0px" y="0px"
	 viewBox="0 0 512 512" style="enable-background:new 0 0 512 512;" xml:space="preserve">
<circle style="fill:#737887;" cx="128" cy="111.749" r="88"/>
<rect x="32" y="183.749" style="fill:#FF6955;" width="192" height="304"/>
<rect x="32" y="183.749" style="fill:#F03C1E;" width="32" height="304"/>
<rect x="32" y="263.749" style="fill:#FFFFFF;" width="192" height="144"/>
<rect x="32" y="263.749" style="fill:#BEC8D7;" width="32" height="144"/>
<rect x="208" y="311.749" style="fill:#FFE05F;" width="272" height="128"/>
<rect x="208" y="311.749" style="fill:#FFBE14;" width="32" height="128"/>
<rect x="208" y="343.749" style="fill:#FFFFFF;" width="272" height="64"/>
<rect x="208" y="343.749" style="fill:#BEC8D7;" width="32" height="64"/>
<g>
	<rect x="64" y="208.249" style="fill:#FFFFFF;" width="16" height="15"/>
	<rect x="144" y="448.249" style="fill:#FFFFFF;" width="16" height="15"/>
</g>
<circle style="fill:#E8B844;" cx="128" cy="335.749" r="32"/>
<path d="M72.5,111.747c0,30.603,24.897,55.5,55.5,55.5s55.5-24.897,55.5-55.5s-24.898-55.5-55.5-55.5S72.5,81.145,72.5,111.747z
	 M168.5,111.747c0,22.332-18.168,40.5-40.5,40.5s-40.5-18.168-40.5-40.5s18.168-40.5,40.5-40.5S168.5,89.415,168.5,111.747z"/>
<path d="M512,319.747v-15h-49.051c5.346-7,8.551-15.5,8.551-24.75c0-21.78-17.72-39.625-39.5-39.625
	c-12.958,0-23.5,10.48-23.5,23.438s10.542,23.438,23.5,23.438v-15c-4.686,0-8.5-3.814-8.5-8.5s3.814-8.5,8.5-8.5
	c13.51,0,24.5,11.24,24.5,24.75s-10.99,24.75-24.5,24.75H231v-113h41v-15H79.828c-20.286-16-32.328-39.365-32.328-64.75
	c0-44.388,36.112-80.625,80.5-80.625s80.5,36.05,80.5,80.438c0,12.888-2.952,25.166-8.773,36.555l13.355,6.813
	c6.913-13.523,10.418-28.138,10.418-43.422c0-52.659-42.841-95.504-95.5-95.504S32.5,59.34,32.5,111.999
	c0,24.079,9.135,46.748,25.093,64.748H0v15h24v289H0v15h272v-15h-41v-33h281v-15h-25v-113H512z M216,191.747v65H39v-65H216
	L216,191.747z M216,480.747H39v-65h137v-15H39v-129h177v33h-40v15h24v113h-24v15h40V480.747z M215,432.747v-17h257v17H215z
	 M472,400.747H215v-17h41v-15h-41v-17h233v-15H215v-17h257V400.747z"/>
<path d="M128,296.247c-21.78,0-39.5,17.72-39.5,39.5s17.72,39.5,39.5,39.5s39.5-17.72,39.5-39.5S149.78,296.247,128,296.247z
	 M128,360.247c-13.51,0-24.5-10.99-24.5-24.5s10.99-24.5,24.5-24.5s24.5,10.99,24.5,24.5S141.51,360.247,128,360.247z"/>
<g>
</g>
<g>
</g>
<g>
</g>
<g>
</g>
<g>
</g>
<g>
</g>
<g>
</g>
<g>
</g>
<g>
</g>
<g>
</g>
<g>
</g>
<g>
</g>
<g>
</g>
<g>
</g>
<g>
</g>
</svg>
