<?xml version="1.0" encoding="iso-8859-1"?>
<!-- Generator: Adobe Illustrator 19.0.0, SVG Export Plug-In . SVG Version: 6.00 Build 0)  -->
<svg version="1.1" id="Capa_1" xmlns="http://www.w3.org/2000/svg" xmlns:xlink="http://www.w3.org/1999/xlink" x="0px" y="0px"
	 viewBox="0 0 512 512" style="enable-background:new 0 0 512 512;" xml:space="preserve">
<path style="fill:#FFFFFF;" d="M74.703,292.017l88.877-133.316c17.814-26.72,47.802-42.77,79.916-42.77h28.636l-117.39,176.086"/>
<polygon style="fill:#BEC8D7;" points="171.084,268.005 154.746,292.017 74.706,292.017 91.044,268.005 "/>
<path style="fill:#FF6955;" d="M7.504,356.048L7.504,356.048c0-35.363,28.668-64.031,64.031-64.031h369.18
	c35.363,0,64.031,28.668,64.031,64.031l0,0c0,35.363-28.668,64.031-64.031,64.031H71.535C36.172,420.08,7.504,391.412,7.504,356.048
	z"/>
<path style="fill:#F03C1E;" d="M440.715,292.017H71.535c-35.363,0-64.031,28.668-64.031,64.031l0,0
	c0,4.193,0.415,8.538,1.185,12.506c5.72-29.498,31.675-51.525,62.847-51.525h369.18c31.17,0,56.876,22.027,62.597,51.525
	c0.769-3.968,0.934-8.188,0.934-12.381v-0.063C504.246,320.747,476.078,292.017,440.715,292.017z"/>
<g>
	<rect x="208.102" y="348.54" style="fill:#FFFFFF;" width="16.008" height="15.007"/>
	<rect x="256.125" y="348.54" style="fill:#FFFFFF;" width="16.008" height="15.007"/>
	<rect x="304.148" y="348.54" style="fill:#FFFFFF;" width="16.008" height="15.007"/>
	<circle style="fill:#FFFFFF;" cx="72.035" cy="356.043" r="24.012"/>
	<circle style="fill:#FFFFFF;" cx="448.219" cy="356.043" r="16.008"/>
</g>
<path d="M455.222,286.11v-23.001l19.365-19.115l-15.883-16.008l16.071-16.008l-15.977-16.008l16.024-16.008l-16-16.008
	l16.012-16.008l-16.256-16.008l12.651-12.9V83.915h-15.007v28.908l-18.865,19.115l16.133,16.008l-15.946,16.008l16.039,16.008
	l-15.992,16.008l16.016,16.008l-16.004,16.008l15.76,16.008l-13.148,12.9v28.12H224.109v15.007h216.606
	c31.169,0,56.528,25.358,56.528,56.528s-25.358,56.528-56.528,56.528H71.535c-31.169,0-56.528-25.358-56.528-56.528
	s25.358-56.528,56.528-56.528h120.559v-15.007h-23.331l117.39-176.086h-42.657c-34.701,0-66.91,16.987-86.159,45.861L70.673,284.661
	C31.625,285.126,0,317.205,0,356.362c0,39.444,32.091,71.723,71.535,71.723h369.18c39.444,0,71.285-32.341,71.285-71.785
	C512,322.002,488.238,293.027,455.222,286.11z M169.824,163.363c16.459-24.689,44-39.428,73.672-39.428h14.616L150.727,285.014
	h-29.988l34.911-52.616l-12.486-8.199l-40.461,60.815h-13.98L169.824,163.363z"/>
<path d="M471.73,356.048c0-12.964-10.547-23.511-23.511-23.511c-12.964,0-23.512,10.547-23.512,23.511
	c0,12.964,10.547,23.511,23.512,23.511C461.183,379.56,471.73,369.013,471.73,356.048z M439.715,356.048
	c0-4.689,3.816-8.504,8.504-8.504c4.688,0,8.504,3.815,8.504,8.504s-3.816,8.504-8.504,8.504
	C443.531,364.553,439.715,360.738,439.715,356.048z"/>
<path d="M40.52,356.048c0,17.377,14.138,31.515,31.515,31.515s31.515-14.138,31.515-31.515s-14.138-31.515-31.515-31.515
	S40.52,338.671,40.52,356.048z M88.543,356.048c0,9.102-7.406,16.508-16.508,16.508s-16.508-7.406-16.508-16.508
	c0-9.102,7.406-16.508,16.508-16.508S88.543,346.946,88.543,356.048z"/>
<rect x="144.07" y="381.056" width="240.117" height="15.007"/>
<g>
</g>
<g>
</g>
<g>
</g>
<g>
</g>
<g>
</g>
<g>
</g>
<g>
</g>
<g>
</g>
<g>
</g>
<g>
</g>
<g>
</g>
<g>
</g>
<g>
</g>
<g>
</g>
<g>
</g>
</svg>
