<?xml version="1.0" encoding="iso-8859-1"?>
<!-- Generator: Adobe Illustrator 19.0.0, SVG Export Plug-In . SVG Version: 6.00 Build 0)  -->
<svg version="1.1" id="Capa_1" xmlns="http://www.w3.org/2000/svg" xmlns:xlink="http://www.w3.org/1999/xlink" x="0px" y="0px"
	 viewBox="0 0 512 512" style="enable-background:new 0 0 512 512;" xml:space="preserve">
<g>
	<polygon style="fill:#C35A1E;" points="440,407.5 400,407.5 272,199.5 312,199.5 	"/>
	<polygon style="fill:#C35A1E;" points="112,407.5 72,407.5 200,199.5 240,199.5 	"/>
</g>
<g>
	<rect x="80" y="151.5" style="fill:#F58C46;" width="352" height="48"/>
	<rect x="48" y="295.5" style="fill:#F58C46;" width="416" height="32"/>
</g>
<path style="fill:#FF6955;" d="M224,119.5v16c0,8.837-7.163,16-16,16h-64c-8.837,0-16-7.163-16-16v-16"/>
<path style="fill:#FFE05F;" d="M368,151.5h-16c-8.837,0-16-7.163-16-16v-32h48v32C384,144.337,376.837,151.5,368,151.5z"/>
<path d="M325.422,207.5H439v-63h-49.097c1.027-3,1.097-6.003,1.097-9v-8h9v-15h-9v-16h-63v39c0,2.997,1.07,6,2.097,9H229.903
	c1.027-3,1.097-6.003,1.097-9v-8h9v-15H112v15h8v8c0,2.997,1.07,6,2.097,9H72v63h114.578l-49.846,81H40v47h67.809l-49.231,80h57.613
	l49.23-80h181.157l49.23,80h57.613l-49.231-80H471v-47h-95.732L325.422,207.5z M357.655,288.5h-22.387l-49.846-81h22.387
	L357.655,288.5z M343,135.5v-24h33v24c0,4.686-3.314,9-8,9h-16C347.314,144.5,343,140.186,343,135.5z M135,135.5v-8h81v8
	c0,4.686-3.314,9-8,9h-64C139.314,144.5,135,140.186,135,135.5z M87,159.5h57h64h144h16h56v33H87V159.5z M204.191,207.5h22.387
	l-40.966,66.319l12.775,7.986l45.803-74.306h23.618l49.846,81h-163.31L204.191,207.5z M107.809,400.5H85.422l40-65h22.387
	L107.809,400.5z M426.578,400.5h-22.387l-40-65h22.386L426.578,400.5z M456,320.5H55v-17h401V320.5z"/>
<rect y="256.5" width="112" height="15"/>
<rect x="400" y="256.5" width="112" height="15"/>
<g>
	<rect x="144" y="168" style="fill:#FFFFFF;" width="16" height="15"/>
	<rect x="352" y="168" style="fill:#FFFFFF;" width="16" height="15"/>
</g>
<g>
</g>
<g>
</g>
<g>
</g>
<g>
</g>
<g>
</g>
<g>
</g>
<g>
</g>
<g>
</g>
<g>
</g>
<g>
</g>
<g>
</g>
<g>
</g>
<g>
</g>
<g>
</g>
<g>
</g>
</svg>
