<?xml version="1.0" encoding="iso-8859-1"?>
<!-- Generator: Adobe Illustrator 19.0.0, SVG Export Plug-In . SVG Version: 6.00 Build 0)  -->
<svg version="1.1" id="Capa_1" xmlns="http://www.w3.org/2000/svg" xmlns:xlink="http://www.w3.org/1999/xlink" x="0px" y="0px"
	 viewBox="0 0 512 512" style="enable-background:new 0 0 512 512;" xml:space="preserve">
<polygon style="fill:#FF6955;" points="480,327.5 480,279.5 352,247.5 48,247.5 48,327.5 32,327.5 32,359.5 496,359.5 496,327.5 "/>
<rect x="32" y="327.5" style="fill:#F03C1E;" width="464" height="32"/>
<g>
	<polygon style="fill:#A0F5F5;" points="352,247.5 192,247.5 192,167.5 304,167.5 	"/>
	<rect x="48" y="167.5" style="fill:#A0F5F5;" width="144" height="80"/>
</g>
<rect x="48" y="167.5" style="fill:#FF6955;" width="32" height="80"/>
<rect x="16" y="199.5" style="fill:#737887;" width="32" height="96"/>
<g>
	<rect x="16" y="271" style="fill:#555A6E;" width="32" height="24.5"/>
	<circle style="fill:#555A6E;" cx="112" cy="359.5" r="48"/>
</g>
<circle style="fill:#FFFFFF;" cx="112" cy="359.5" r="16"/>
<circle style="fill:#555A6E;" cx="384" cy="359.5" r="48"/>
<circle style="fill:#FFFFFF;" cx="384" cy="359.5" r="16"/>
<polygon style="fill:#737887;" points="208,143.5 64,143.5 64,103.5 176,103.5 208,127.5 "/>
<g>
	<rect x="160" y="272" style="fill:#FFFFFF;" width="16" height="15"/>
	<rect x="208" y="272" style="fill:#FFFFFF;" width="16" height="15"/>
</g>
<path d="M112,336c-12.958,0-23.5,10.542-23.5,23.5S99.042,383,112,383s23.5-10.542,23.5-23.5S124.958,336,112,336z M112,368
	c-4.687,0-8.5-3.814-8.5-8.5s3.813-8.5,8.5-8.5s8.5,3.814,8.5,8.5S116.687,368,112,368z"/>
<path d="M384,336c-12.958,0-23.5,10.542-23.5,23.5S371.042,383,384,383s23.5-10.542,23.5-23.5S396.958,336,384,336z M384,368
	c-4.686,0-8.5-3.814-8.5-8.5s3.814-8.5,8.5-8.5s8.5,3.814,8.5,8.5S388.686,368,384,368z"/>
<path d="M421.89,400.5c9.1-9,15.332-21,17.089-33H503v-47h-16v-46.855l-130.417-32.417L308.246,160.5H183v-9h32v-27.75L178.5,96.5
	H56v55h32v9H40v32H8v111h32v17H16v15h8v24h15v-24h23.217c-3.654,7-5.717,15.709-5.717,24.5c0,15.964,6.784,29.5,17.61,40.5H0v15h512
	v-15H421.89z M384,400c-22.332,0-40.5-18.168-40.5-40.5c0-13.002,6.165-24.585,15.719-32H359v-0.221
	c7-5.189,15.548-8.279,24.75-8.279c13.002,0,24.835,6.165,32.25,15.719v0.781h0.221c5.189,6,8.279,15.048,8.279,24.25
	C424.5,382.082,406.332,400,384,400z M329.021,352.5H199v-17h121v-15H199v-65h145v65.061C336,328.905,330.673,339.5,329.021,352.5z
	 M166.979,352.5c-0.818-7-2.6-12-5.196-17H184v17H166.979z M488,335.5v17h-49.021c-0.818-7-2.6-12-5.196-17H448v-15h-25.061
	c-10.026-10-24.03-16.25-39.189-16.25c-8.791,0-16.75,1.813-24.75,5.467v-52.612l113,28.25V335.5H488z M338.753,240.5H311v-25h-15
	v25h-97v-65h100.754L338.753,240.5z M184,240.5H87v-65h97V240.5z M71,111.5h102.5l26.5,19.75v5.25H71V111.5z M103,151.5h65v9h-65
	V151.5z M72,175.5v65H55v-65H72z M23,288.5v-81h17v81H23z M55,255.5h129v65h-33.061c-10.026-10-23.78-16-38.939-16
	s-28.912,6-38.939,16H55V255.5z M71.5,359.75c0-9.202,3.09-18.25,8.279-24.25H80v-0.78c7.415-9.554,18.998-15.72,32-15.72
	s24.585,6.166,32,15.72v0.78h0.221c5.189,6,8.279,15.048,8.279,24.25c0,22.332-18.169,40.5-40.5,40.5S71.5,382.082,71.5,359.75z
	 M149.89,400.5c9.1-9,15.332-21,17.089-33h162.042c1.757,12,7.989,24,17.089,33H149.89z"/>
<g>
</g>
<g>
</g>
<g>
</g>
<g>
</g>
<g>
</g>
<g>
</g>
<g>
</g>
<g>
</g>
<g>
</g>
<g>
</g>
<g>
</g>
<g>
</g>
<g>
</g>
<g>
</g>
<g>
</g>
</svg>
