<?xml version="1.0" encoding="iso-8859-1"?>
<!-- Generator: Adobe Illustrator 19.0.0, SVG Export Plug-In . SVG Version: 6.00 Build 0)  -->
<svg version="1.1" id="Capa_1" xmlns="http://www.w3.org/2000/svg" xmlns:xlink="http://www.w3.org/1999/xlink" x="0px" y="0px"
	 viewBox="0 0 512 512" style="enable-background:new 0 0 512 512;" xml:space="preserve">
<path style="fill:#FF6955;" d="M256,208.162v6.311c0,6.318,1.87,12.494,5.374,17.75l47.877,71.815
	C316.26,314.552,320,326.904,320,339.539v28.622H192v-28.622c0-12.635,3.74-24.988,10.749-35.501l47.877-71.815
	c3.504-5.257,5.374-11.433,5.374-17.75L256,208.162"/>
<path style="fill:#F03C1E;" d="M208,355.374c0-12.635,3.74-24.988,10.749-35.501l47.877-71.815c0.923-1.384,1.725-2.835,2.417-4.333
	l-7.668-11.502c-3.504-5.257-5.374-11.433-5.374-17.75c0,6.318-1.87,12.494-5.374,17.75l-47.877,71.815
	c-7.01,10.514-10.75,22.866-10.75,35.501v28.457h16V355.374z"/>
<path style="fill:#FFE05F;" d="M256,278.473c0,6.318,1.87,12.494,5.374,17.75l21.251,31.877c3.504,5.257,5.374,11.433,5.374,17.75
	v22.311h-64V345.85c0-6.318,1.87-12.494,5.374-17.75l21.251-31.877C254.13,290.967,256,284.79,256,278.473"/>
<path style="fill:#FFBE14;" d="M282.626,328.1l-21.251-31.877c-3.504-5.257-5.374-11.433-5.374-17.75
	c0,6.318-1.87,12.494-5.374,17.75l-7.668,11.502c0.692,1.498,1.494,2.949,2.417,4.333l21.251,31.877
	c3.504,5.257,5.374,11.433,5.374,17.75v6.311h16V345.85C288,339.533,286.13,333.357,282.626,328.1z"/>
<rect x="256" y="344.5" style="fill:#FFFFFF;" width="16" height="15"/>
<path style="fill:#C35A1E;" d="M448,449.442L448,449.442c0,15.36-14.746,26.419-29.491,22.118L80.589,373
	C70.758,370.133,64,361.122,64,350.882l0,0c0-15.36,14.746-26.419,29.491-22.118l337.92,98.56
	C441.242,430.19,448,439.202,448,449.442z"/>
<path style="fill:#F58C46;" d="M64,449.442L64,449.442c0,15.36,14.746,26.419,29.491,22.118L431.411,373
	c9.83-2.867,16.589-11.878,16.589-22.118l0,0c0-15.36-14.746-26.419-29.491-22.118l-337.92,98.56
	C70.758,430.19,64,439.202,64,449.442z"/>
<circle style="fill:#C35A1E;" cx="425" cy="350.83" r="23"/>
<circle style="fill:#874114;" cx="87" cy="350.83" r="23"/>
<rect x="144" y="240" style="fill:#F7E9B4;" width="64" height="64"/>
<rect x="144" y="272" style="fill:#FFD794;" width="64" height="32"/>
<g>
	<path style="fill:#BEC8D7;" d="M208,151.996h-24c-13.255,0-24-10.745-24-24l0,0c0-13.255,10.745-24,24-24h24"/>
	<path style="fill:#BEC8D7;" d="M296,103.996h24c13.255,0,24-10.745,24-24l0,0c0-13.255-10.745-24-24-24h-24"/>
</g>
<rect x="304" y="160" style="fill:#F7E9B4;" width="64" height="64"/>
<rect x="304" y="192" style="fill:#FFD794;" width="64" height="32"/>
<path d="M455.5,350.827c0-16.817-13.682-30.5-30.5-30.5c-2.983,0-5.864,0.438-8.59,1.24l-0.251-0.004L327,347.495v-7.956
	c0-14.162-3.902-27.876-11.759-39.661l-48.001-71.814c-2.692-4.038-4.24-8.738-4.24-13.591v-6.477h-15v6.477
	c0,4.852-1.173,9.553-3.865,13.591l-15.724,23.772l12.543,8.32l15.014-22.474l46.776,70.516c6.208,9.313,9.255,20.15,9.255,31.341
	v12.331l-17,4.958V345.85c0-7.824-2.044-15.4-6.384-21.911l-21.126-32.114c-2.692-4.038-3.99-8.829-3.99-13.829h-15
	c0,5-1.423,9.791-4.115,13.829l-21.501,31.995c-4.34,6.511-6.884,14.206-6.884,22.03v6.146h15v-6.146
	c0-4.852,1.673-9.553,4.365-13.591l20.51-30.577l20.198,30.577c2.692,4.038,3.927,8.738,3.927,13.591v15.353l-24.5,7.146L199,351.87
	v-12.331c0-1.041,0.279-2.093,0.336-3.126l-15.102-0.832c-0.073,1.309-0.235,2.641-0.235,3.958v7.956L95.34,321.563l0.123,0.006
	c-10.354-3.021-21.944-0.459-30.094,7.691c-11.892,11.892-11.86,31.241,0.031,43.134c3.769,3.769,8.304,6.339,13.097,7.719
	l-0.018,0.087l68.443,19.961l-68.437,19.962c-12.947,3.776-21.988,15.832-21.988,29.318c0,9.704,4.453,18.609,12.216,24.432
	c5.382,4.036,11.739,6.131,18.238,6.131c2.876-0.001,5.78-0.411,8.638-1.244l242.694-70.785l91.026,26.549
	c6.588,1.921,11.189,8.056,11.189,14.918c0,4.938-2.266,9.469-6.216,12.432s-8.935,3.87-13.675,2.486L290.1,426.295l-4.2,14.4
	l130.509,38.064c2.858,0.834,5.762,1.244,8.638,1.244c6.497,0,12.856-2.095,18.237-6.131c7.763-5.822,12.216-14.728,12.216-24.432
	c0-13.486-9.042-25.542-21.989-29.318l-68.44-19.962l68.44-19.961l-0.024-0.083C446.187,376.431,455.5,364.699,455.5,350.827z
	 M76.04,339.867c3.022-3.022,6.991-4.532,10.96-4.532s7.939,1.511,10.96,4.531c6.043,6.044,6.043,15.878,0,21.921
	c-6.044,6.045-15.878,6.042-21.921,0.001C69.997,355.744,69.997,345.91,76.04,339.867z M107.8,373.124
	c0.257-0.241,0.516-0.478,0.767-0.729v-0.001c7.872-7.872,10.528-19.011,7.977-29.093l112.669,32.862l-55.499,16.187L107.8,373.124z
	 M338.1,392.295l-0.035,0.118L91.391,464.359c-4.74,1.385-9.724,0.478-13.675-2.486c-3.95-2.963-6.216-7.494-6.216-12.432
	c0-6.862,4.601-12.997,11.189-14.918l312.752-91.219c-0.613,2.408-0.941,4.927-0.941,7.523c0,8.791,3.744,16.721,9.715,22.292
	l-65.93,19.23L338.1,392.295z M425,366.327c-8.547,0-15.5-6.953-15.5-15.5c0-6.94,4.585-12.829,10.884-14.798l0.037-0.011
	c1.448-0.448,2.985-0.691,4.579-0.691c8.547,0,15.5,6.953,15.5,15.5S433.547,366.327,425,366.327z"/>
<path d="M106.697,309.55l10.606-10.482l-19.196-19.071H136v32h79v-32h25v-15h-25v-32h-79v32H66.107l19.196-19.446l-10.606-10.482
	l-29.804,29.929H0v15h76.893L106.697,309.55z M151,247.996h49v49h-49V247.996z"/>
<path d="M184,159.996h56c4.687,0,8,3.314,8,8v8h15v-8c0-12.958-10.042-23-23-23h-8c-9.098,0-16.5-7.402-16.5-16.5
	s7.402-16.5,16.5-16.5h88c17.369,0,31.5-14.131,31.5-31.5s-14.131-31.5-31.5-31.5H200c-9.098,0-16.5-7.902-16.5-17h-15
	c0,17.369,14.131,32,31.5,32h72c9.098,0,16.5,7.402,16.5,16.5s-7.402,16.5-16.5,16.5h-88c-17.369,0-31.5,14.131-31.5,31.5
	S166.631,159.996,184,159.996z M298.819,63.996H320c9.098,0,16.5,7.402,16.5,16.5s-7.402,16.5-16.5,16.5h-21.181
	c2.965-5,4.681-10.454,4.681-16.5S301.784,67.996,298.819,63.996z M184,111.996h21.181c-2.965,4-4.681,10.454-4.681,16.5
	c0,6.046,1.716,11.5,4.681,16.5H184c-9.098,0-16.5-7.402-16.5-16.5S174.902,111.996,184,111.996z"/>
<path d="M467.107,184.996l-29.804-30.054l-10.606,10.732l19.196,19.321H375v-32h-79v32h-24v15h24v32h79v-32h38.893l-19.196,18.946
	l10.606,10.732l29.804-29.679H512v-15h-44.893V184.996z M360,216.996h-49v-49h49V216.996z"/>
<g>
</g>
<g>
</g>
<g>
</g>
<g>
</g>
<g>
</g>
<g>
</g>
<g>
</g>
<g>
</g>
<g>
</g>
<g>
</g>
<g>
</g>
<g>
</g>
<g>
</g>
<g>
</g>
<g>
</g>
</svg>
