<?xml version="1.0" encoding="iso-8859-1"?>
<!-- Generator: Adobe Illustrator 19.0.0, SVG Export Plug-In . SVG Version: 6.00 Build 0)  -->
<svg version="1.1" id="Capa_1" xmlns="http://www.w3.org/2000/svg" xmlns:xlink="http://www.w3.org/1999/xlink" x="0px" y="0px"
	 viewBox="0 0 512 512" style="enable-background:new 0 0 512 512;" xml:space="preserve">
<polygon style="fill:#AADC96;" points="504.5,375.56 376.5,423.56 232.5,375.56 88.5,423.56 88.5,87.559 232.5,39.56 376.5,87.559 
	504.5,39.56 "/>
<g>
	<polygon style="fill:#5AAA69;" points="408,411.56 408,75.559 376,87.559 376,423.56 	"/>
	<polygon style="fill:#5AAA69;" points="224,378.06 256,388.727 256,52.727 224,42.06 	"/>
</g>
<path style="fill:#FF6955;" d="M135.5,359.56c0,35.346-64,112-64,112s-64-76.654-64-112s28.654-64,64-64S135.5,324.214,135.5,359.56
	z"/>
<path style="fill:#F03C1E;" d="M32,359.56c0-31.155,22.266-57.098,51.75-62.815c-3.966-0.769-8.059-1.185-12.25-1.185
	c-35.346,0-64,28.654-64,64s64,112,64,112s5.022-6.015,12.25-15.449C65.169,431.861,32,385.007,32,359.56z"/>
<circle style="fill:#FFFFFF;" cx="71.5" cy="359.56" r="16"/>
<path d="M376.353,79.604L232.5,31.653L81,82.153V288.71c-3.111-0.415-6.278-0.65-9.5-0.65c-39.425,0-71.5,32.075-71.5,71.5
	c0,16.188,11.201,40.905,33.294,73.466c16.025,23.619,31.786,42.547,32.449,43.341l5.757,6.896l5.757-6.896
	c0.663-0.794,16.424-19.722,32.449-43.341C131.799,400.465,143,375.747,143,359.56c0-30.823-19.605-57.151-47-67.174v-87.42l129-43
	v96.188l-99.372,33.124l4.744,14.23L225,273.966v96.188l-83.372,27.791l4.744,14.23l86.128-28.709l144.147,48.049L512,380.757
	V28.737L376.353,79.604z M128,359.56c0,24.15-36.641,75.168-56.501,100.117C51.638,434.733,15,383.727,15,359.56
	c0-31.154,25.346-56.5,56.5-56.5S128,328.406,128,359.56z M96,189.154V92.965l129-43v69.594h15V49.965l129,43v96.189l-136.5-45.5
	L96,189.154z M369,413.155l-129-43v-96.188l129,43V413.155z M497,370.362l-113,42.375v-95.98l113-42.374V370.362z M497,258.362
	l-113,42.375v-69.177h-15v69.594l-129-43v-96.188l136.647,45.549L497,162.382V258.362z M497,146.361l-113,42.375v-95.98l113-42.375
	V146.361z"/>
<path d="M48,359.56c0,12.958,10.542,23.5,23.5,23.5S95,372.518,95,359.56s-10.542-23.5-23.5-23.5S48,346.602,48,359.56z M80,359.56
	c0,4.687-3.813,8.5-8.5,8.5s-8.5-3.813-8.5-8.5s3.813-8.5,8.5-8.5S80,354.872,80,359.56z"/>
<g>
	<rect x="144" y="112.059" style="fill:#FFFFFF;" width="16" height="15"/>
	<rect x="464" y="192.059" style="fill:#FFFFFF;" width="16" height="15"/>
	<rect x="288" y="352.06" style="fill:#FFFFFF;" width="16" height="15"/>
</g>
<g>
</g>
<g>
</g>
<g>
</g>
<g>
</g>
<g>
</g>
<g>
</g>
<g>
</g>
<g>
</g>
<g>
</g>
<g>
</g>
<g>
</g>
<g>
</g>
<g>
</g>
<g>
</g>
<g>
</g>
</svg>
