<?xml version="1.0" encoding="iso-8859-1"?>
<!-- Generator: Adobe Illustrator 19.0.0, SVG Export Plug-In . SVG Version: 6.00 Build 0)  -->
<svg version="1.1" id="Capa_1" xmlns="http://www.w3.org/2000/svg" xmlns:xlink="http://www.w3.org/1999/xlink" x="0px" y="0px"
	 viewBox="0 0 512 512" style="enable-background:new 0 0 512 512;" xml:space="preserve">
<rect x="144" style="fill:#A0F5F5;" width="224" height="512"/>
<rect x="144" style="fill:#4BD2DC;" width="32" height="512"/>
<g>
	<polygon style="fill:#FF6955;" points="480,208 416,208 384,240 416,272 480,272 	"/>
	<polygon style="fill:#FF6955;" points="32,208 96,208 128,240 96,272 32,272 	"/>
</g>
<path style="fill:#8E3343;" d="M336,256c0,123.712-80,224-80,224s-80-100.288-80-224s80-224,80-224S336,132.288,336,256z"/>
<path style="fill:#FFE05F;" d="M336,256c0,123.712-80,224-80,224s-80-100.288-80-224s80-224,80-224S336,132.288,336,256z"/>
<path style="fill:#FFBE14;" d="M208,224c0,103.366,55.84,190.363,74.21,216.188C267.734,465.282,256,480,256,480s-80-100.288-80-224
	s80-224,80-224s2.174,2.729,5.79,7.812C238.46,80.252,208,147.66,208,224z"/>
<circle style="fill:#E8B844;" cx="256" cy="256" r="48"/>
<circle style="fill:#FFFFFF;" cx="256" cy="240" r="32"/>
<circle style="fill:#737887;" cx="256" cy="240" r="32"/>
<path style="fill:#555A6E;" d="M272,256c-17.673,0-32-14.327-32-32c0-4.695,1.019-9.148,2.835-13.165
	C231.731,215.856,224,227.021,224,240c0,17.673,14.327,32,32,32c12.978,0,24.144-7.731,29.165-18.835
	C281.148,254.981,276.695,256,272,256z"/>
<g>
	<rect x="328.5" y="384" style="fill:#FFFFFF;" width="15" height="16"/>
	<rect x="328.5" y="32" style="fill:#FFFFFF;" width="15" height="16"/>
</g>
<path d="M496,233h-9v-32h-74.106L391,221.894V216h-15v17h-33.442c-4.4-56-23.492-105.341-39.833-138.46
	C282.6,53.747,262.7,28.498,261.863,27.448L256,20.036l-5.863,7.319c-0.837,1.049-20.736,26.408-40.862,67.201
	C182.156,149.52,172.285,197,169.461,233H135v-17h-15v5.894L99.106,201H24v32h-8v15h8v32h75.106L120,258.106V264h15v-16h33.634
	c-0.088,2-0.134,5.54-0.134,8.25c0,65.352,22.173,123.885,40.774,161.585c20.126,40.793,40.025,65.855,40.862,66.904l5.863,7.319
	l5.863-7.366c0.837-1.049,20.736-26.181,40.862-66.974c33.7-68.304,40.774-125.393,40.774-161.464c0-2.848-0.057-6.254-0.139-8.254
	H376v16h15v-5.894L412.894,280H487v-32h9V233z M39,216h53.894l17,17H39V216z M92.894,265H39v-17h70.894L92.894,265z
	 M222.552,101.529c13-26.408,26.126-46.177,33.44-56.517C272.75,68.771,320.12,143,327.52,233h-21.257
	c-8.866-19-28.057-32-50.263-32c-19.216,0-35.262,13-38.777,32h-32.736C188.862,180,207.007,133.106,222.552,101.529z M232.679,233
	c3.176-10,12.427-17.25,23.321-17.25c0.422,0,0.84,0.144,1.259,0.157c10.343,0.526,19.009,7.093,22.062,17.093H232.679z
	 M279.321,248c-3.176,9-12.427,17-23.321,17c-10.894,0-20.145-8-23.321-17H279.321z M328.5,256.25
	c0,62.312-21.236,118.406-39.052,154.596c-13,26.408-26.126,46.24-33.44,56.579C237.809,441.622,183.5,356.433,183.5,256.281
	c0-2.848,0.059-6.281,0.145-8.281h33.578c3.514,18,19.561,32,38.777,32s35.262-14,38.777-32h0.819c0.588,2,0.905,5.335,0.905,8.25
	c0,22.332-18.168,40.375-40.5,40.375S215.5,278.332,215.5,256h-15c0,30.603,24.898,55.5,55.5,55.5s55.5-24.647,55.5-55.25
	c0-2.89-0.223-6.25-0.651-8.25h17.516C328.45,250,328.5,253.404,328.5,256.25z M419.106,216H472v17h-69.894L419.106,216z M472,265
	h-52.894l-17-17H472V265z"/>
<rect x="224" y="361" width="64" height="15"/>
<rect x="224" y="137" width="64" height="15"/>
<rect x="136" width="15" height="176"/>
<rect x="136" y="368" width="15" height="144"/>
<rect x="360" y="288" width="15" height="144"/>
<rect x="360" y="464" width="15" height="48"/>
<rect x="360" width="15" height="112"/>
<rect x="360" y="144" width="15" height="16"/>
<rect x="136" y="320" width="15" height="16"/>
<rect x="184" y="32" width="15" height="64"/>
<rect x="184" y="416" width="15" height="96"/>
<rect x="328" y="432" width="15" height="48"/>
<g>
</g>
<g>
</g>
<g>
</g>
<g>
</g>
<g>
</g>
<g>
</g>
<g>
</g>
<g>
</g>
<g>
</g>
<g>
</g>
<g>
</g>
<g>
</g>
<g>
</g>
<g>
</g>
<g>
</g>
</svg>
