<?xml version="1.0" encoding="iso-8859-1"?>
<!-- Generator: Adobe Illustrator 19.0.0, SVG Export Plug-In . SVG Version: 6.00 Build 0)  -->
<svg version="1.1" id="Capa_1" xmlns="http://www.w3.org/2000/svg" xmlns:xlink="http://www.w3.org/1999/xlink" x="0px" y="0px"
	 viewBox="0 0 512 512" style="enable-background:new 0 0 512 512;" xml:space="preserve">
<path style="fill:#FF6955;" d="M312.5,407.5h-224v-384h224c17.673,0,32,14.327,32,32v320C344.5,393.173,330.173,407.5,312.5,407.5z"
	/>
<g>
	<rect x="232.501" y="23.5" style="fill:#F03C1E;" width="64" height="384"/>
	<rect x="88.501" y="23.5" style="fill:#F03C1E;" width="32" height="384"/>
</g>
<g>
	<rect x="305" y="208" style="fill:#FFFFFF;" width="15" height="16"/>
	<rect x="305" y="160" style="fill:#FFFFFF;" width="15" height="16"/>
	<rect x="305" y="256" style="fill:#FFFFFF;" width="15" height="16"/>
</g>
<g>
	<rect x="248.501" y="7.5" style="fill:#FFE05F;" width="32" height="416"/>
	<path style="fill:#FFE05F;" d="M407.5,504.5l-15-48v-256c0-8.837,7.163-16,16-16l0,0c8.837,0,16,7.163,16,16v256l-15,48H407.5z"/>
</g>
<rect x="392.5" y="264.5" style="fill:#FFBE14;" width="32" height="16"/>
<polyline style="fill:#F7E9B4;" points="424.5,456.5 409.5,504.5 407.5,504.5 392.5,456.5 "/>
<rect x="392.5" y="232.5" style="fill:#BEC8D7;" width="32" height="32"/>
<rect x="392.5" y="248.5" style="fill:#737887;" width="32" height="16"/>
<path style="fill:#FF6955;" d="M424.5,232.5h-32v-32c0-8.837,7.163-16,16-16l0,0c8.837,0,16,7.163,16,16V232.5z"/>
<rect x="392.5" y="216.5" style="fill:#F03C1E;" width="32" height="16"/>
<path d="M312.5,16h-25V0h-47v16h-160v399h136v-15h-121V31h145v400h47v-16h25c21.78,0,39-17.72,39-39.5v-320
	C351.5,33.72,334.28,16,312.5,16z M272.5,416h-17V15h17V416z M336.5,375.5c0,13.509-10.49,24.5-24,24.5h-25V31h25
	c13.51,0,24,10.991,24,24.5V375.5z"/>
<rect x="112.501" y="40" width="15" height="352"/>
<path d="M408,177c-12.958,0-23.5,10.542-23.5,23.5v257.145L401.986,512h13.027l16.486-54.355V200.5
	C431.5,187.542,420.958,177,408,177z M408,192c4.686,0,8.5,3.813,8.5,8.5V225h-17v-24.5C399.5,195.813,403.314,192,408,192z
	 M399.5,449V272h17v177H399.5z M399.5,257v-17h17v17H399.5z M402.701,464h11.597l-5.799,18.556L402.701,464z"/>
<g>
</g>
<g>
</g>
<g>
</g>
<g>
</g>
<g>
</g>
<g>
</g>
<g>
</g>
<g>
</g>
<g>
</g>
<g>
</g>
<g>
</g>
<g>
</g>
<g>
</g>
<g>
</g>
<g>
</g>
</svg>
