<?xml version="1.0" encoding="iso-8859-1"?>
<!-- Generator: Adobe Illustrator 19.0.0, SVG Export Plug-In . SVG Version: 6.00 Build 0)  -->
<svg version="1.1" id="Capa_1" xmlns="http://www.w3.org/2000/svg" xmlns:xlink="http://www.w3.org/1999/xlink" x="0px" y="0px"
	 viewBox="0 0 512 512" style="enable-background:new 0 0 512 512;" xml:space="preserve">
<path style="fill:#F58C46;" d="M128,391.5h264c48.601,0,88,39.399,88,88l0,0H128"/>
<path style="fill:#C35A1E;" d="M480,479.5L480,479.5c0-8.321-1.156-16.371-3.314-24h-264c2.158,7.629,3.314,15.68,3.314,24"/>
<path style="fill:#FF6955;" d="M256,231.5v6.311c0,6.318,1.87,12.494,5.374,17.75l47.877,71.815
	C316.26,337.89,320,350.242,320,362.878V391.5H192v-28.622c0-12.635,3.74-24.988,10.749-35.501l47.877-71.815
	c3.504-5.257,5.374-11.433,5.374-17.75L256,231.5"/>
<path style="fill:#FFE05F;" d="M256,301.811c0,6.318,1.87,12.494,5.374,17.75l21.251,31.877c3.504,5.257,5.374,11.433,5.374,17.75
	V391.5h-64v-22.311c0-6.318,1.87-12.494,5.374-17.75l21.251-31.877C254.13,314.305,256,308.129,256,301.811"/>
<path style="fill:#F03C1E;" d="M208,378.878c0-12.635,3.74-24.988,10.749-35.501l47.877-71.815c0.923-1.384,1.725-2.835,2.417-4.333
	l-7.668-11.502c-3.504-5.257-5.374-11.433-5.374-17.75c0,6.318-1.87,12.494-5.374,17.75l-47.877,71.815
	c-7.01,10.513-10.75,22.866-10.75,35.501V391.5h16V378.878z"/>
<path style="fill:#FFBE14;" d="M282.626,351.604l-21.251-31.877c-3.504-5.257-5.374-11.433-5.374-17.75
	c0,6.318-1.87,12.494-5.374,17.75l-7.668,11.502c0.692,1.498,1.494,2.949,2.417,4.333l21.251,31.877
	c3.504,5.257,5.374,11.433,5.374,17.75v6.311h16v-22.146C288,363.037,286.13,356.86,282.626,351.604z"/>
<path style="fill:#874114;" d="M40,479.5c0-48.601,39.399-88,88-88s88,39.399,88,88"/>
<path style="fill:#F58C46;" d="M352,447.5l46.185-80.824c7.938-13.892-2.093-31.176-18.092-31.176l0,0
	c-7.478,0-14.382,4.007-18.092,10.499L304,447.5"/>
<circle style="fill:#C35A1E;" cx="380.46" cy="356" r="20.5"/>
<g>
	<path style="fill:#BEC8D7;" d="M192,223.5h-24c-13.255,0-24-10.745-24-24l0,0c0-13.255,10.745-24,24-24h24"/>
	<path style="fill:#BEC8D7;" d="M288,175.5h24c13.255,0,24-10.745,24-24l0,0c0-13.255-10.745-24-24-24h-24"/>
	<path style="fill:#BEC8D7;" d="M208,127.5h-24c-13.255,0-24-10.745-24-24l0,0c0-13.255,10.745-24,24-24h24"/>
	<path style="fill:#BEC8D7;" d="M352,79.5h24c13.255,0,24-10.745,24-24l0,0c0-13.255-10.745-24-24-24h-24"/>
</g>
<path d="M487.206,472.5c-3.713-48-42.434-85.717-90.353-88.127l7.843-13.85l-0.174-0.162c2.498-4.188,3.939-9.108,3.939-14.329
	c0-15.44-12.607-28.016-28.046-28.016c-0.124,0-0.415-0.008-0.415-0.006V328c-10,0-19.525,5.721-24.558,14.528L331.648,384.5H295
	v-15.311c0-7.824-2.044-15.4-6.384-21.91l-21.126-32.033c-2.692-4.038-3.99-8.746-3.99-13.746h-15c0,5-1.423,9.708-4.115,13.746
	l-21.501,31.955c-4.34,6.51-6.884,14.164-6.884,21.988v6.311h15v-6.311c0-4.853,1.673-9.552,4.365-13.59l20.51-30.578l20.198,30.578
	c2.692,4.038,3.927,8.737,3.927,13.59V384.5h-81v-21.623c0-11.191,3.531-22.028,9.739-31.341l47.136-70.516l47.073,70.328
	c6.208,9.313,9.552,20.152,9.552,31.152h15c0-14-4.152-27.688-12.009-39.472l-48.126-71.721c-2.692-4.038-4.365-8.643-4.365-13.496
	V231.5h-15v6.311c0,4.853-1.173,9.552-3.865,13.59l-48.002,71.815c-7.856,11.785-12.133,25.5-12.133,39.661V384.5h-56
	c-50.135,0-91.369,38-95.206,88H0v15h256v-15h-32.794c-2.393-31-19.319-58-43.876-73h143.746l-25.588,44.529l13.023,7.317
	l46.069-80.683c4.796,7.816,13.321,13.071,23.079,13.347l-34.171,59.783l13.023,7.685l29.841-51.979H392
	c41.858,0,76.342,32,80.138,73H288v15h224v-15h-24.794V472.5z M128,448.5c-14.785,0-27.216,10-30.591,24H80.082
	c3.616-24,23.725-41,47.918-41s44.302,17,47.918,41h-17.327C155.216,458.5,142.785,448.5,128,448.5z M142.678,472.5h-29.357
	c2.737-6,8.282-9,14.679-9C134.397,463.5,139.942,466.5,142.678,472.5z M208.138,472.5h-17.096c-3.724-32-30.567-56-63.042-56
	s-59.318,24-63.042,56H47.861c3.797-41,38.281-73,80.139-73S204.342,431.5,208.138,472.5z M367.461,356c0-7.168,5.832-13,13-13
	s13,5.832,13,13s-5.832,13-13,13S367.461,363.168,367.461,356z"/>
<path d="M168,231.5h72v-15h-24c-9.098,0-16.5-7.402-16.5-16.5s7.402-16.5,16.5-16.5h96c17.369,0,31.5-14.131,31.5-31.5
	s-14.131-31.5-31.5-31.5h-80c-9.098,0-16.5-7.402-16.5-16.5s7.402-16.5,16.5-16.5h144c17.369,0,31.5-14.131,31.5-31.5
	S393.369,24.5,376,24.5h-72v15h24c9.098,0,16.5,7.402,16.5,16.5s-7.402,16.5-16.5,16.5H184c-17.369,0-31.5,14.131-31.5,31.5
	s14.131,31.5,31.5,31.5h80c9.098,0,16.5,7.402,16.5,16.5s-7.402,16.5-16.5,16.5h-96c-17.369,0-31.5,14.131-31.5,31.5
	S150.631,231.5,168,231.5z M354.819,39.5H376c9.098,0,16.5,7.402,16.5,16.5s-7.402,16.5-16.5,16.5h-21.181
	c2.965-5,4.681-10.454,4.681-16.5S357.784,43.5,354.819,39.5z M167.5,104c0-9.098,7.402-16.5,16.5-16.5h21.181
	c-2.965,4-4.681,10.454-4.681,16.5s1.716,11.5,4.681,16.5H184C174.902,120.5,167.5,113.098,167.5,104z M290.819,135.5H312
	c9.098,0,16.5,7.402,16.5,16.5s-7.402,16.5-16.5,16.5h-21.181c2.965-5,4.681-10.454,4.681-16.5S293.784,139.5,290.819,135.5z
	 M168,183.5h21.181c-2.965,4-4.681,10.454-4.681,16.5s1.716,11.5,4.681,16.5H168c-9.098,0-16.5-7.402-16.5-16.5
	S158.902,183.5,168,183.5z"/>
<g>
	<rect x="256" y="360" style="fill:#FFFFFF;" width="16" height="15"/>
	<rect x="400" y="440" style="fill:#FFFFFF;" width="16" height="15"/>
</g>
<g>
</g>
<g>
</g>
<g>
</g>
<g>
</g>
<g>
</g>
<g>
</g>
<g>
</g>
<g>
</g>
<g>
</g>
<g>
</g>
<g>
</g>
<g>
</g>
<g>
</g>
<g>
</g>
<g>
</g>
</svg>
