<?xml version="1.0" encoding="iso-8859-1"?>
<!-- Generator: Adobe Illustrator 19.0.0, SVG Export Plug-In . SVG Version: 6.00 Build 0)  -->
<svg version="1.1" id="Capa_1" xmlns="http://www.w3.org/2000/svg" xmlns:xlink="http://www.w3.org/1999/xlink" x="0px" y="0px"
	 viewBox="0 0 512 512" style="enable-background:new 0 0 512 512;" xml:space="preserve">
<polyline style="fill:#FFFFFF;" points="176.5,160 176.5,7.5 336.5,7.5 336.5,160 "/>
<polyline style="fill:#BEC8D7;" points="176.5,160 176.5,135.5 336.5,135.5 336.5,160 "/>
<polyline style="fill:#6EE1F0;" points="176.5,160 176.5,7.5 208.5,7.5 208.5,160 "/>
<polyline style="fill:#19BEC8;" points="176.5,160 176.5,135.5 208.5,135.5 208.5,160 "/>
<polyline style="fill:#6EE1F0;" points="304.5,160 304.5,7.5 336.5,7.5 336.5,160 "/>
<polyline style="fill:#19BEC8;" points="304.5,160 304.5,135.5 336.5,135.5 336.5,160 "/>
<path style="fill:#FF6955;" d="M360.5,504.5h-224V160h224c8.837,0,16,7.163,16,16v312.5C376.5,497.337,369.337,504.5,360.5,504.5z"
	/>
<rect x="136.5" y="160" style="fill:#F03C1E;" width="32" height="345"/>
<circle style="fill:#FFFFFF;" cx="272.5" cy="279.5" r="64"/>
<rect x="232.5" y="24" width="15" height="72"/>
<rect x="264.5" y="80" width="15" height="16"/>
<rect x="264.5" y="112" width="15" height="16"/>
<rect x="264.5" y="24" width="15" height="32"/>
<path d="M360.5,153h-49V15h17v113h15V0h-175v153h-40v359h232c12.958,0,23-10.542,23-23.5V176C383.5,163.042,373.458,153,360.5,153z
	 M215.5,15h81v138h-81V15z M183.5,15h17v138h-17V15z M368.5,488.5c0,4.687-3.313,8.5-8,8.5h-217V168h217c4.687,0,8,3.313,8,8V488.5z
	"/>
<rect x="160.5" y="192" width="15" height="281"/>
<path d="M272.5,351c39.425,0,71.5-32.075,71.5-71.5S311.925,208,272.5,208S201,240.075,201,279.5S233.075,351,272.5,351z
	 M328.487,272h-16.699c-0.837-15.212-4.212-29.399-9.72-40.621C316.191,240.089,326.199,254.839,328.487,272z M311.788,287h16.699
	c-2.288,17.161-12.296,31.911-26.419,40.621C307.575,316.399,310.95,302.212,311.788,287z M279.5,226.155
	c3,2.484,6.13,6.366,8.669,11.444c4.655,9.31,7.792,21.324,8.594,34.401H279.5V226.155z M279.5,287h17.263
	c-0.802,13.077-3.939,25.091-8.594,34.401c-2.539,5.078-5.669,8.96-8.669,11.444V287z M256.331,237.599
	c2.539-5.078,6.169-8.961,8.169-11.444V272h-16.263C249.039,258.923,251.676,246.909,256.331,237.599z M264.5,287v45.845
	c-2-2.484-5.63-6.366-8.169-11.444c-4.655-9.31-7.292-21.324-8.094-34.401H264.5z M242.931,231.38
	c-5.507,11.222-8.882,25.409-9.719,40.62h-16.699C218.8,254.839,228.808,240.09,242.931,231.38z M233.212,287
	c0.837,15.212,4.212,29.398,9.719,40.62c-14.123-8.71-24.131-23.46-26.418-40.62H233.212z"/>
<rect x="200.5" y="409" width="144" height="15"/>
<rect x="224.5" y="441" width="96" height="15"/>
<g>
	<rect x="216.5" y="376.5" style="fill:#FFFFFF;" width="16" height="15"/>
	<rect x="264.5" y="376.5" style="fill:#FFFFFF;" width="16" height="15"/>
	<rect x="312.5" y="376.5" style="fill:#FFFFFF;" width="16" height="15"/>
</g>
<g>
</g>
<g>
</g>
<g>
</g>
<g>
</g>
<g>
</g>
<g>
</g>
<g>
</g>
<g>
</g>
<g>
</g>
<g>
</g>
<g>
</g>
<g>
</g>
<g>
</g>
<g>
</g>
<g>
</g>
</svg>
