<?xml version="1.0" encoding="iso-8859-1"?>
<!-- Generator: Adobe Illustrator 19.0.0, SVG Export Plug-In . SVG Version: 6.00 Build 0)  -->
<svg version="1.1" id="Capa_1" xmlns="http://www.w3.org/2000/svg" xmlns:xlink="http://www.w3.org/1999/xlink" x="0px" y="0px"
	 viewBox="0 0 512 512" style="enable-background:new 0 0 512 512;" xml:space="preserve">
<polygon style="fill:#F58C46;" points="320,172 256,236 192,172 32,332 480,332 "/>
<polygon style="fill:#C35A1E;" points="192,172 112,332 32,332 "/>
<rect y="332" style="fill:#A0F5F5;" width="512" height="144"/>
<rect y="332" style="fill:#4BD2DC;" width="512" height="32"/>
<g>
	<rect x="32" y="372.5" style="fill:#FFFFFF;" width="16" height="15"/>
	<rect x="224" y="420.5" style="fill:#FFFFFF;" width="16" height="15"/>
	<rect x="272" y="420.5" style="fill:#FFFFFF;" width="16" height="15"/>
</g>
<circle style="fill:#FFBE14;" cx="256" cy="92" r="32"/>
<g>
	<path style="fill:#FFFFFF;" d="M80,172c0-17.673,14.327-32,32-32s32,14.327,32,32"/>
	<path style="fill:#FFFFFF;" d="M48,172c0-8.837,7.163-16,16-16s16,7.163,16,16"/>
	<path style="fill:#FFFFFF;" d="M384,124c0-17.673,14.327-32,32-32s32,14.327,32,32"/>
	<path style="fill:#FFFFFF;" d="M352,124c0-8.837,7.163-16,16-16s16,7.163,16,16"/>
</g>
<path d="M483.106,325L320,161.644l-64,63.875l-64-63.813L28.894,325H0v15h512v-15H483.106z M320,182.856L461.894,325H124.135
	l69.919-140.089l120.642,120.517l10.606-10.669l-58.697-58.603L320,182.856z M164.623,210.483L107.365,325H50.106L164.623,210.483z"
	/>
<rect x="128" y="469" width="384" height="15"/>
<rect y="469" width="96" height="15"/>
<rect x="80" y="373" width="160" height="15"/>
<rect x="368" y="373" width="64" height="15"/>
<rect x="464" y="373" width="16" height="15"/>
<rect y="421" width="64" height="15"/>
<rect x="320" y="421" width="192" height="15"/>
<path d="M223.284,114.36l-20.587,20.462l10.606,10.544l20.337-20.618c4.335,2.939,9.36,5.001,14.36,6.029V156h15v-25.223
	c6-1.028,10.525-3.121,14.86-6.061l20.712,20.587l10.669-10.606l-20.556-20.337c2.939-4.335,5.064-9.36,6.092-14.36H320V85h-25.223
	c-1.028-6-3.121-10.525-6.06-14.86l20.587-20.712l-10.606-10.669L277.86,59.315c-4.335-2.939-8.86-5.064-14.86-6.092V28h-15v25.223
	c-5,1.028-10.025,3.121-14.36,6.06l-20.462-20.587l-10.544,10.606l20.618,20.837c-2.939,4.335-5.001,8.86-6.029,14.86H192v15h25.223
	C218.251,105,220.345,110.025,223.284,114.36z M256,67.5c13.509,0,24.5,10.991,24.5,24.5s-10.991,24.5-24.5,24.5
	s-24.5-10.991-24.5-24.5S242.491,67.5,256,67.5z"/>
<path d="M64,163.5c4.687,0,8.5,3.813,8.5,8.5h15c0-13.509,10.991-24.5,24.5-24.5s24.5,10.991,24.5,24.5h15
	c0-21.78-17.72-39.5-39.5-39.5c-14.809,0-27.733,8.196-34.495,20.286C73.681,150.09,69.024,148.5,64,148.5
	c-12.958,0-23.5,10.542-23.5,23.5h15C55.5,167.313,59.313,163.5,64,163.5z"/>
<path d="M368,115.5c4.687,0,8.5,3.813,8.5,8.5h15c0-13.509,10.991-24.5,24.5-24.5s24.5,10.991,24.5,24.5h15
	c0-21.78-17.72-39.5-39.5-39.5c-14.809,0-27.733,8.196-34.495,20.286c-3.824-2.696-8.481-4.286-13.505-4.286
	c-12.958,0-23.5,10.542-23.5,23.5h15C359.5,119.313,363.313,115.5,368,115.5z"/>
<g>
</g>
<g>
</g>
<g>
</g>
<g>
</g>
<g>
</g>
<g>
</g>
<g>
</g>
<g>
</g>
<g>
</g>
<g>
</g>
<g>
</g>
<g>
</g>
<g>
</g>
<g>
</g>
<g>
</g>
</svg>
