<?xml version="1.0" encoding="iso-8859-1"?>
<!-- Generator: Adobe Illustrator 19.0.0, SVG Export Plug-In . SVG Version: 6.00 Build 0)  -->
<svg version="1.1" id="Capa_1" xmlns="http://www.w3.org/2000/svg" xmlns:xlink="http://www.w3.org/1999/xlink" x="0px" y="0px"
	 viewBox="0 0 512 512" style="enable-background:new 0 0 512 512;" xml:space="preserve">
<polygon style="fill:#AADC96;" points="432,417.303 80,417.303 80,273.303 256,97.303 432,273.303 "/>
<polygon style="fill:#5AAA69;" points="256,97.303 80,273.303 80,305.303 256,129.303 432,305.303 432,273.303 "/>
<polygon style="fill:#555A6E;" points="336,417.303 176,417.303 256,241.303 "/>
<g>
	<polyline style="fill:#FFBE14;" points="256,241.303 128,337.303 176,417.303 	"/>
	<polyline style="fill:#FFBE14;" points="256,241.303 384,337.303 336,417.303 	"/>
</g>
<path d="M487,410.303v-137h-15v29.893L255.5,86.697L39,303.196v-29.893H24v137H0v15h512v-15H487z M472,410.303h-33V291.41l33,33
	V410.303z M256,259.929l68.352,150.375H187.648L256,259.929z M175.083,401.196l-37.171-61.951l99.123-74.342L175.083,401.196z
	 M274.966,264.902l99.123,74.342l-37.171,61.951L274.966,264.902z M393.661,335.612L263,237.553V115.41l161,161v133.893h-74.753
	L393.661,335.612z M39,324.41l209-209v122.144l-130.161,98.059l44.914,74.691H87v-105H72v105H39V324.41z"/>
<g>
	<rect x="112" y="361.8" style="fill:#FFFFFF;" width="16" height="15"/>
	<rect x="384" y="361.8" style="fill:#FFFFFF;" width="16" height="15"/>
</g>
<g>
</g>
<g>
</g>
<g>
</g>
<g>
</g>
<g>
</g>
<g>
</g>
<g>
</g>
<g>
</g>
<g>
</g>
<g>
</g>
<g>
</g>
<g>
</g>
<g>
</g>
<g>
</g>
<g>
</g>
</svg>
