<?xml version="1.0" encoding="iso-8859-1"?>
<!-- Generator: Adobe Illustrator 19.0.0, SVG Export Plug-In . SVG Version: 6.00 Build 0)  -->
<svg version="1.1" id="Capa_1" xmlns="http://www.w3.org/2000/svg" xmlns:xlink="http://www.w3.org/1999/xlink" x="0px" y="0px"
	 viewBox="0 0 512 512" style="enable-background:new 0 0 512 512;" xml:space="preserve">
<rect x="256.5" y="256" style="fill:#737887;" width="96" height="48"/>
<rect x="256.5" y="256" style="fill:#555A6E;" width="32" height="48"/>
<path style="fill:#FFBE14;" d="M304.5,166.311c0,6.318,1.87,12.494,5.374,17.75l21.251,31.877
	c3.504,5.257,5.374,11.433,5.374,17.751l0,0c0,12.322-9.989,22.311-22.311,22.311H294.81c-12.322,0-22.311-9.989-22.311-22.311l0,0
	c0-6.318,1.87-12.494,5.374-17.75l21.251-31.877C302.63,178.805,304.5,172.629,304.5,166.311"/>
<path style="fill:#BEC8D7;" d="M400.5,504.5h-192c-8.837,0-16-7.163-16-16V304h224v184.5C416.5,497.337,409.337,504.5,400.5,504.5z"
	/>
<path style="fill:#737887;" d="M224.5,488.5V304h-32v184.5c0,8.837,7.163,16.5,16,16.5h32C231.663,505,224.5,497.337,224.5,488.5z"
	/>
<path style="fill:#BEC8D7;" d="M192.5,80v224h-64c-17.673,0-32-14.327-32-32V112c0-17.673,14.327-32,32-32H192.5z"/>
<path style="fill:#737887;" d="M96.5,240v32c0,17.673,14.327,32,32,32h64v-32h-64C110.827,272,96.5,257.673,96.5,240z"/>
<g>
	<circle style="fill:#4A4A4A;" cx="368.5" cy="256" r="16"/>
	<circle style="fill:#4A4A4A;" cx="192.5" cy="305" r="16"/>
</g>
<g>
	<rect x="248.5" y="440.5" style="fill:#FFFFFF;" width="16" height="15"/>
	<rect x="296.5" y="440.5" style="fill:#FFFFFF;" width="16" height="15"/>
	<rect x="344.5" y="440.5" style="fill:#FFFFFF;" width="16" height="15"/>
</g>
<g>
	<path style="fill:#BEC8D7;" d="M352.5,120h24c13.255,0,24-10.745,24-24l0,0c0-13.255-10.745-24-24-24h-24"/>
	<path style="fill:#BEC8D7;" d="M264.5,72h-24c-13.255,0-24-10.745-24-24l0,0c0-13.255,10.745-24,24-24h24"/>
</g>
<path d="M359.5,297v-19.097c3,1.027,5.753,1.597,8.75,1.597c12.958,0,23.625-10.542,23.625-23.5s-10.479-23.25-23.438-23.25
	c-10.336,0-19.065,6.25-22.203,16.25h-6.191c2.512-5,3.956-9.672,3.956-15.061c0-7.824-2.294-15.525-6.634-22.036l-21.252-32.095
	C313.423,175.77,312,171,312,166h-15c0,5-1.423,9.708-4.114,13.746l-21.252,32.11C267.294,218.366,265,226,265,234h15
	c0-5,1.423-9.708,4.114-13.746l20.386-30.655l20.386,30.539c2.691,4.038,4.114,8.968,4.114,13.821
	c0,8.167-6.645,15.042-14.811,15.042H248.5v48h-24v15h184v176.5c0,4.687-3.314,8.5-8,8.5h-192c-4.687,0-9-3.813-9-8.5V327.266
	c10-3.138,16.25-11.93,16.25-22.266c0-12.958-10.417-23.25-23.375-23.25c-9.961,0-18.363,6.25-21.778,15.25H128.5
	c-13.509,0-25-11.491-25-25V112c0-13.509,11.491-24,25-24h56v168h15V73h-71c-21.78,0-40,17.22-40,39v160c0,21.78,18.22,40,40,40
	h41.422c2.135,7,7.578,12.812,14.578,15.266V488.5c0,12.958,11.042,23.5,24,23.5h192c12.958,0,23-10.542,23-23.5V297H359.5z
	 M368.5,247.5c4.686,0,8.5,3.813,8.5,8.5c0,4.687-3.814,8.5-8.5,8.5s-8.5-3.813-8.5-8.5C360,251.313,363.814,247.5,368.5,247.5z
	 M263.5,264h81v33h-81V264z M192.5,296.5c4.687,0,8.5,3.813,8.5,8.5s-3.813,8.5-8.5,8.5s-8.5-3.813-8.5-8.5
	S187.813,296.5,192.5,296.5z"/>
<rect x="240.5" y="473" width="128" height="15"/>
<path d="M240.5,80h88c9.098,0,16.5,7.402,16.5,16.5s-7.402,16.5-16.5,16.5h-8c-12.958,0-24,10.042-24,23v8h15v-8
	c0-4.687,4.314-8,9-8h56c17.369,0,31.5-14.131,31.5-31.5S393.869,65,376.5,65h-88c-9.098,0-16.5-7.402-16.5-16.5
	S279.402,32,288.5,32h72C377.869,32,392,17.369,392,0h-15c0,9.098-7.402,17-16.5,17h-120C223.131,17,209,31.131,209,48.5
	S223.131,80,240.5,80z M393,96.5c0,9.098-7.402,16.5-16.5,16.5h-21.181c2.965-5,4.681-10.454,4.681-16.5S358.284,84,355.319,80
	H376.5C385.598,80,393,87.402,393,96.5z M240.5,32h21.181C258.716,36,257,42.454,257,48.5s1.716,11.5,4.681,16.5H240.5
	c-9.098,0-16.5-7.402-16.5-16.5S231.402,32,240.5,32z"/>
<g>
</g>
<g>
</g>
<g>
</g>
<g>
</g>
<g>
</g>
<g>
</g>
<g>
</g>
<g>
</g>
<g>
</g>
<g>
</g>
<g>
</g>
<g>
</g>
<g>
</g>
<g>
</g>
<g>
</g>
</svg>
