<?xml version="1.0" encoding="iso-8859-1"?>
<!-- Generator: Adobe Illustrator 19.0.0, SVG Export Plug-In . SVG Version: 6.00 Build 0)  -->
<svg version="1.1" id="Capa_1" xmlns="http://www.w3.org/2000/svg" xmlns:xlink="http://www.w3.org/1999/xlink" x="0px" y="0px"
	 viewBox="0 0 512 512" style="enable-background:new 0 0 512 512;" xml:space="preserve">
<path style="fill:#FFE05F;" d="M416,359.625H39.5c-17.673,0-32-14.327-32-32v-176c0-26.51,21.49-48,48-48H384
	c17.673,0,32,14.327,32,32V359.625z"/>
<path style="fill:#FFBE14;" d="M39,327.625v-176c0-26.51,21.99-48,48.5-48h-32c-26.51,0-48.5,21.49-48.5,48v176
	c0,17.673,14.827,32,32.5,32h32C53.827,359.625,39,345.298,39,327.625z"/>
<path style="fill:#AADC96;" d="M416,359.625H39.5c-17.673,0-32-14.327-32-32v-16H416V359.625z"/>
<path style="fill:#5AAA69;" d="M39,327.625v-16H7v16c0,17.673,14.827,32,32.5,32h32C53.827,359.625,39,345.298,39,327.625z"/>
<path style="fill:#6F6F6F;" d="M368,359.625h-96v-192c0-8.837,7.163-16,16-16h64c8.837,0,16,7.163,16,16V359.625z"/>
<circle style="fill:#4A4A4A;" cx="127.5" cy="359.62" r="48"/>
<path style="fill:#A0F5F5;" d="M199.5,231.625h-128c-8.837,0-16-7.163-16-16v-48c0-8.837,7.163-16,16-16h128c8.837,0,16,7.163,16,16
	v48C215.5,224.462,208.337,231.625,199.5,231.625z"/>
<g>
	<rect x="288" y="256.12" style="fill:#FFFFFF;" width="16" height="15"/>
	<circle style="fill:#FFFFFF;" cx="127.5" cy="359.62" r="16"/>
</g>
<path d="M512,352.625H375v-33h33v8h15v-192c0-21.78-17.22-39-39-39H55.5c-30.603,0-55.5,24.397-55.5,55v176
	c0,21.78,17.72,40,39.5,40h33.021c3.675,27,26.921,47.75,54.979,47.75c30.603,0,55.5-24.772,55.5-55.375
	c0-15.964-6.784-30.375-17.61-40.375H264v33h-56v15h248v24h15v-24h41V352.625z M375,175.625h33v33h-33V175.625z M375,304.625v-81h33
	v81H375z M55.5,111.625H384c13.509,0,24,10.491,24,24v25h-33.734c-3.138-10-11.93-16-22.266-16h-64c-10.336,0-19.128,6-22.266,16
	h-43.969c-3.138-10-11.93-16-22.266-16h-128c-10.336,0-19.128,6-22.266,16H15v-9C15,129.294,33.168,111.625,55.5,111.625z
	 M264,208.625h-41v-33h41V208.625z M71.5,224.625c-4.687,0-8.5-4.313-8.5-9v-48c0-4.687,3.813-8,8.5-8H128v65H71.5z M143,159.625
	h56.5c4.687,0,8.5,3.313,8.5,8v48c0,4.687-3.813,9-8.5,9H143V159.625z M48,208.625H15v-33h33V208.625z M15,327.625v-8h74.61
	c-9.1,8-15.332,20-17.089,33H39.5C25.991,352.625,15,341.134,15,327.625z M168,359.625c0,22.332-18.169,40.5-40.5,40.5
	c-22.332,0-40.5-18.168-40.5-40.5s18.168-40.5,40.5-40.5C149.831,319.125,168,337.293,168,359.625z M15,304.625v-17h17v-15H15v-17
	h17v-15H15v-17h34.234c3.138,9,11.93,16,22.266,16h128c10.336,0,19.128-7,22.266-16H264v81H15z M279,167.625c0-4.687,4.313-8,9-8h64
	c4.687,0,8,3.313,8,8v185h-81V167.625z"/>
<path d="M127.5,383.125c12.958,0,23.5-10.542,23.5-23.5s-10.542-23.5-23.5-23.5s-23.5,10.542-23.5,23.5
	S114.542,383.125,127.5,383.125z M127.5,351.125c4.687,0,8.5,3.813,8.5,8.5s-3.813,8.5-8.5,8.5s-8.5-3.813-8.5-8.5
	S122.813,351.125,127.5,351.125z"/>
<rect x="80" y="192.12" style="fill:#FFFFFF;" width="16" height="15"/>
<g>
</g>
<g>
</g>
<g>
</g>
<g>
</g>
<g>
</g>
<g>
</g>
<g>
</g>
<g>
</g>
<g>
</g>
<g>
</g>
<g>
</g>
<g>
</g>
<g>
</g>
<g>
</g>
<g>
</g>
</svg>
