<?xml version="1.0" encoding="iso-8859-1"?>
<!-- Generator: Adobe Illustrator 19.0.0, SVG Export Plug-In . SVG Version: 6.00 Build 0)  -->
<svg version="1.1" id="Capa_1" xmlns="http://www.w3.org/2000/svg" xmlns:xlink="http://www.w3.org/1999/xlink" x="0px" y="0px"
	 viewBox="0 0 512 512" style="enable-background:new 0 0 512 512;" xml:space="preserve">
<g>
	<rect x="200" y="352" style="fill:#BEC8D7;" width="112" height="160"/>
	<rect x="200" style="fill:#BEC8D7;" width="112" height="160"/>
</g>
<g>
	<rect x="200" style="fill:#737887;" width="112" height="32"/>
	<rect x="200" y="64" style="fill:#737887;" width="112" height="32"/>
	<rect x="200" y="128" style="fill:#737887;" width="112" height="32"/>
	<rect x="200" y="480" style="fill:#737887;" width="112" height="32"/>
	<rect x="200" y="416" style="fill:#737887;" width="112" height="32"/>
	<rect x="200" y="352" style="fill:#737887;" width="112" height="32"/>
</g>
<polygon style="fill:#BEC8D7;" points="336,352 176,352 160,336 160,176 176,160 336,160 352,176 352,336 "/>
<rect x="192" y="192" style="fill:#A0F5F5;" width="128" height="128"/>
<rect x="192" y="288" style="fill:#4BD2DC;" width="128" height="32"/>
<path d="M184,328h143V185H184V328z M199,200h113v113H199V200z"/>
<path d="M368,200v-15h-9v-12.106L339.106,153H319V0h-15v25h-97V0h-15v153h-19.106L152,172.894V185h-8v15h8v113h-8v15h8v11.106
	L172.894,360H192v152h15v-24h81v-15h-81v-17h97v56h15V360h20.106L359,339.106V328h9v-15h-9V200H368z M304,89h-80v15h80v17h-97V72h97
	V89z M304,40v17h-97V40H304z M207,136h97v17h-97V136z M207,392h97v17h-97V392z M207,441v-17h97v17H207z M304,377h-97v-17h97V377z
	 M344,332.894L332.894,345H179.106L167,332.894V179.106L179.106,168h153.787L344,179.106V332.894z"/>
<g>
	<rect x="216" y="280.5" style="fill:#FFFFFF;" width="16" height="15"/>
	<rect x="248" y="280.5" style="fill:#FFFFFF;" width="16" height="15"/>
	<rect x="280" y="280.5" style="fill:#FFFFFF;" width="16" height="15"/>
</g>
<g>
</g>
<g>
</g>
<g>
</g>
<g>
</g>
<g>
</g>
<g>
</g>
<g>
</g>
<g>
</g>
<g>
</g>
<g>
</g>
<g>
</g>
<g>
</g>
<g>
</g>
<g>
</g>
<g>
</g>
</svg>
