<?xml version="1.0" encoding="iso-8859-1"?>
<!-- Generator: Adobe Illustrator 19.0.0, SVG Export Plug-In . SVG Version: 6.00 Build 0)  -->
<svg version="1.1" id="Capa_1" xmlns="http://www.w3.org/2000/svg" xmlns:xlink="http://www.w3.org/1999/xlink" x="0px" y="0px"
	 viewBox="0 0 512 512" style="enable-background:new 0 0 512 512;" xml:space="preserve">
<rect x="112.5" y="160" style="fill:#6EE1F0;" width="192" height="344.5"/>
<rect x="112.5" y="160" style="fill:#19BEC8;" width="32" height="344.5"/>
<polygon style="fill:#AADC96;" points="304.5,160 112.5,160 160.5,103.5 256.5,103.5 "/>
<polygon style="fill:#5AAA69;" points="160.5,104 112.5,160 144.5,160 192.5,104 "/>
<rect x="112.5" y="192" style="fill:#AADC96;" width="192" height="280.5"/>
<rect x="112.5" y="192" style="fill:#5AAA69;" width="32" height="280.5"/>
<path style="fill:#AADC96;" d="M240.5,360.5h192v112c0,17.673-14.327,32-32,32h-128c-17.673,0-32-14.327-32-32V360.5z"/>
<path style="fill:#5AAA69;" d="M272.5,472.5V361h-32v111.5c0,17.673,14.327,32.5,32,32.5h32C286.827,505,272.5,490.173,272.5,472.5z
	"/>
<rect x="240.5" y="360.5" style="fill:#6EE1F0;" width="192" height="32"/>
<rect x="240.5" y="360.5" style="fill:#19BEC8;" width="32" height="32"/>
<polyline style="fill:#737887;" points="184.5,39.5 184.5,7.5 232.5,7.5 232.5,39.5 "/>
<rect x="160.5" y="39.5" style="fill:#6EE1F0;" width="96" height="64"/>
<rect x="160.5" y="39.5" style="fill:#19BEC8;" width="32" height="64"/>
<path d="M279.5,353V224h-15v129h-32v112h-113V200h177v129h15V157.244l-48-56.5V32h-24V0h-63v32h-24v68.744l-48,56.5V201h-8
	c-12.958,0-24,10.042-24,23v216.5c0,12.958,11.042,23.5,24,23.5h8v48h120v-15h-105v-17h114.223c3.515,18.205,19.561,32,38.777,32
	h128c21.78,0,39-17.72,39-39.5V353H279.5z M119.5,185v-17h177v17H119.5z M167.5,79h81v17h-81V79z M253.03,111l35.257,42H128.713
	l35.257-42H253.03z M191.5,15h33v17h-33V15z M248.5,47v17h-81V47H248.5z M96.5,449c-4.687,0-9-3.813-9-8.5V224c0-4.687,4.313-8,9-8
	h8v233H96.5z M424.5,368v17h-177v-17H424.5z M400.5,497h-128c-13.509,0-25-10.991-25-24.5V400h177v72.5
	C424.5,486.009,414.009,497,400.5,497z"/>
<g>
	<rect x="144.5" y="216.5" style="fill:#FFFFFF;" width="16" height="15"/>
	<rect x="144.5" y="264.5" style="fill:#FFFFFF;" width="16" height="15"/>
	<rect x="272.5" y="424.5" style="fill:#FFFFFF;" width="16" height="15"/>
</g>
<g>
</g>
<g>
</g>
<g>
</g>
<g>
</g>
<g>
</g>
<g>
</g>
<g>
</g>
<g>
</g>
<g>
</g>
<g>
</g>
<g>
</g>
<g>
</g>
<g>
</g>
<g>
</g>
<g>
</g>
</svg>
