<svg id="Layer_1" enable-background="new 0 0 500 500" viewBox="0 0 500 500" xmlns="http://www.w3.org/2000/svg"><g><path d="m154.307 409.022c-4.061 5.522-10.313 5.248-14.648 1.917-3.057-2.373-5.156-6.343-4.654-10.907.456-4.243 2.51-5.977 4.609-9.309.821-1.278 1.003-2.738 1.05-4.198.046-2.647-.548-5.293.593-7.255 4.289-5.887 12.366-.137 14.648 3.65 4.654 7.85 3.833 18.801-1.598 26.102z" fill="#fcd021"/><path d="m154.307 409.022c-4.061 5.522-10.313 5.248-14.648 1.917 13.233 6.662 15.104-15.88 15.104-15.88-1.095.456-9.628-4.107-14.1-8.533.046-2.647-.548-5.293.593-7.255 4.289-5.887 12.366-.137 14.648 3.65 4.655 7.849 3.834 18.8-1.597 26.101z" fill="#fc9d21"/><path d="m272.905 468.618c-1.323 2.829-3.514 4.609-6.114 5.567-3.696 1.369-8.169.959-12.093-.821-8.077-3.696-9.811-15.013-9.309-25.326.274-5.658 1.277-11.043 2.282-14.648 6.069-3.559 11.727-7.164 16.701-5.065 5.796 2.464 4.974 9.902 5.704 15.058 1.324 9.126 7.164 16.154 2.829 25.235z" fill="#fcd021"/><path d="m272.905 468.618c-1.323 2.829-3.514 4.609-6.114 5.567 8.031-8.989-3.012-17.112-3.012-17.112-4.335.274-12.594-4.061-18.389-9.035.274-5.658 1.277-11.043 2.282-14.648 6.069-3.559 11.727-7.164 16.701-5.065 5.796 2.464 4.974 9.902 5.704 15.058 1.323 9.126 7.163 16.154 2.828 25.235z" fill="#fc9d21"/><path d="m339.116 380.566c-2.82 10.125-5.447 34.277 7.068 40.002 6.659 3.046 14.989 2.058 18.204-4.739 4.311-9.115-1.54-16.142-2.846-25.275-.733-5.125.106-12.589-5.702-15.035-4.96-2.089-10.618 1.52-16.724 5.047z" fill="#fc9d21"/><path d="m263.779 326.885v127.861l-15.059-8.67-4.563-2.647-84.83-48.963-4.563-2.647-20.261-11.682v-127.907l20.261 11.682 4.563 2.647 84.83 49.009 4.563 2.6z" fill="#d46a2c"/><path d="m244.157 315.568v66.121l-84.83-48.964v-66.167l-4.563-2.646v127.907l4.563 2.647v-56.493l84.83 48.963v56.493l4.563 2.647v-127.908z" fill="#a64d19"/><path d="m367.018 267.273-103.221 59.593v127.901l103.221-59.594z" fill="#a64d19"/><path d="m209.047 321.726c3.927 6.801 2.087 15.214-4.108 18.791-6.196 3.577-14.401.964-18.328-5.837s-2.087-15.214 4.108-18.791c6.196-3.577 14.402-.964 18.328 5.837z" fill="#fcd021"/><path d="m187.251 321.572c-.38.191-.738.501-1.027.936-.559.844-.495 2.578.297 3.308 1.313 1.21 3.331-.78 3.464-2.192.183-1.936-1.409-2.717-2.734-2.052z" fill="#fffde3"/><path d="m209.047 376.84c3.927 6.801 2.087 15.214-4.108 18.791-6.196 3.577-14.401.964-18.328-5.837s-2.087-15.214 4.108-18.791c6.196-3.578 14.402-.964 18.328 5.837z" fill="#fcd021"/><path d="m187.251 376.685c-.38.191-.738.501-1.027.936-.559.845-.495 2.578.297 3.308 1.313 1.21 3.331-.78 3.464-2.192.183-1.936-1.409-2.717-2.734-2.052z" fill="#fffde3"/><path d="m138.982 395.27c-.38.191-.738.5-1.026.936-.559.845-.495 2.579.297 3.308 1.312 1.21 3.331-.78 3.464-2.191.183-1.936-1.41-2.718-2.735-2.053z" fill="#fffde3"/><path d="m266.791 304.936c-14.101 8.122-16.2 26.01-16.2 41.434l-130.142-75.156c-.639-16.656 1.916-33.175 16.2-41.434z" fill="#ffb74a"/><path d="m379.639 239.773v32.079l-129.048 74.518c0-15.424 2.099-33.311 16.2-41.434z" fill="#bf7623"/><path d="m249.51 164.645-112.84 65.147 130.13 75.128 112.84-65.147z" fill="#f7b148"/><path d="m248 455.9c-.134.273-.212.701-.205 1.287.014 1.138.718 3.391 1.466 4.293 1.241 1.496 1.634-1.148 1.121-3.011-.704-2.556-1.914-3.52-2.382-2.569z" fill="#fffde3"/><ellipse cx="253.501" cy="234.868" fill="#f7d8aa" rx="53.68" ry="30.993"/><ellipse cx="253.501" cy="214.5" fill="#f7dfbc" rx="22.827" ry="13.18"/><path d="m267.315 84.997v127.158c0 3.203-1.773 5.606-4.404 7.208-7.779 4.69-23.223 2.288-23.223-7.208v-127.158z" fill="#ccb98d"/><path d="m334.789 143.851c-8.013-28.81-16.206-57.571-24.319-86.349-2.922-10.364-7.589-17.385-17.166-22.927-8.579-4.964-18.418-7.641-28.208-8.826-19.507-2.361-43.496.477-58.747 14.058-7.135 6.354-8.91 14.48-11.387 23.266-2.006 7.117-3.993 14.24-5.998 21.358-4.012 14.236-8.027 28.472-12.04 42.709-2.096 7.437-5.27 15.299-6.162 22.979-1.007 8.665 2.283 17.014 7.705 23.666 12.91 15.838 34.901 23.078 54.441 25.959 22.969 3.386 47.665 1.434 69.202-7.584 18.653-7.81 40.652-25.438 32.679-48.309z" fill="#fcd828"/><path d="m293.304 34.575c21.983 12.692 21.983 33.27 0 45.962-21.982 12.692-57.623 12.692-79.606 0-21.982-12.692-21.982-33.27 0-45.962 21.983-12.692 57.624-12.692 79.606 0z" fill="#ffe255"/><path d="m291.204 79.33c-15.286 8.853-37.555 11.18-56.584 6.981-6.845-1.46-13.325-3.787-18.846-6.981-20.808-12.001-20.808-31.532 0-43.533 14.967-8.67 36.597-11.089 55.307-7.255 7.347 1.415 14.237 3.879 20.123 7.255 20.854 12.001 20.854 31.532 0 43.533z" fill="#f2b500"/><path d="m291.204 79.33c-6.115 3.514-13.324 6.024-20.99 7.438-10.815 2.099-22.542 2.099-33.357 0-.776-.137-1.506-.274-2.236-.457-6.753-19.85 26.786-56.812 36.461-57.77 7.347 1.415 14.237 3.879 20.123 7.255 20.853 12.002 20.853 31.533-.001 43.534z" fill="#fcca26"/><path d="m270.304 84.989c0 .593-.046 1.186-.091 1.78-10.815 2.099-22.542 2.099-33.357 0-.046-.593-.091-1.187-.091-1.78 0-9.263 7.484-16.747 16.746-16.747 9.264 0 16.793 7.483 16.793 16.747z" fill="#fffc69"/><path d="m244.26 76.002c-.423.041-.869.202-1.294.506-.825.588-1.387 2.229-.91 3.194.791 1.6 3.389.467 4.02-.802.865-1.742-.34-3.043-1.816-2.898z" fill="#fffde3"/></g></svg>