<svg id="Layer_1" enable-background="new 0 0 512 512" height="512" viewBox="0 0 512 512" width="512" xmlns="http://www.w3.org/2000/svg" xmlns:xlink="http://www.w3.org/1999/xlink"><linearGradient id="SVGID_1_" gradientUnits="userSpaceOnUse" x1="282.92" x2="255.058" y1="112.708" y2="112.708"><stop offset="0" stop-color="#28b0b9"/><stop offset="1" stop-color="#3cc9cd"/></linearGradient><path d="m123.155 382.975 95.997-55.423v-85.485l-95.997 55.423z" fill="#836948"/><path d="m123.155 382.975 163.414 94.349 95.997-55.425-163.414-94.347z" fill="#ae8c60"/><path d="m219.152 327.552 163.414 94.347v-85.485l-163.414-94.347z" fill="#635f5f"/><path d="m123.155 286.266 95.997-55.423v-85.486l-95.997 55.424z" fill="#836948"/><path d="m123.155 286.266 163.414 94.348 95.997-55.424-163.414-94.347z" fill="#ae8c60"/><path d="m219.152 230.843 163.414 94.347v-85.485l-163.414-94.348z" fill="#635f5f"/><path d="m123.155 189.558 95.997-55.425v-85.485l-95.997 55.425z" fill="#836948"/><g><path d="m141.366 281.408 38.601-22.286v-57.266l-38.946 22.485z" fill="#c27268"/><path d="m185.879 207.227-4.477-2.584c-1.035-.599-2.714-.599-3.749 0l-35.427 20.395c-1.034.598-1.034 1.567 0 2.165l4.478 2.584c1.036.598 2.713.598 3.749 0l35.425-20.396c1.038-.597 1.038-1.567.001-2.164z" fill="#f7f6f6"/><path d="m142.196 223.664c-.65-.374-1.175-.071-1.175.678v56.36c0 .75.443 1.209 1.094 1.584l7.083 4.089c.648.376 1.257.522 1.257-.227v-56.36c0-.749-.527-1.66-1.175-2.034z" fill="#e16564"/><path d="m150.366 286.176 39.034-22.515v-57.265l-39.233 22.494z" fill="#ea5a59"/></g><g><path d="m153.938 285.916 38.601-22.287v-57.265l-38.946 22.486z" fill="#eaa659"/><path d="m198.452 211.736-4.477-2.585c-1.036-.598-2.714-.598-3.749 0l-35.426 20.395c-1.035.597-1.035 1.567 0 2.164l4.478 2.586c1.035.598 2.712.598 3.749 0l35.425-20.396c1.035-.598 1.035-1.567 0-2.164z" fill="#f7f6f6"/><path d="m154.768 228.171c-.649-.374-1.175-.069-1.175.679v56.359c0 .749.445 1.21 1.094 1.584l7.083 4.088c.648.376 1.257.522 1.257-.227v-56.359c0-.749-.527-1.661-1.175-2.035z" fill="#eacb59"/><path d="m162.937 290.685 39.035-22.516v-57.266l-39.233 22.496z" fill="#eab859"/></g><g><path d="m161.604 295.788 38.601-22.286v-57.266l-38.945 22.486z" fill="#488660"/><path d="m206.118 221.608-4.478-2.586c-1.034-.598-2.713-.598-3.749 0l-35.425 20.396c-1.036.597-1.036 1.566 0 2.164l4.477 2.586c1.035.597 2.713.597 3.749 0l35.425-20.396c1.037-.598 1.037-1.567.001-2.164z" fill="#f7f6f6"/><path d="m162.435 238.044c-.648-.375-1.175-.071-1.175.678v56.36c0 .75.445 1.209 1.093 1.584l7.082 4.089c.649.375 1.258.522 1.258-.227v-56.359c0-.75-.527-1.66-1.176-2.035z" fill="#689589"/><path d="m170.604 300.557 39.034-22.516v-57.265l-39.233 22.495z" fill="#68a7a2"/></g><g><path d="m174.177 300.296 38.6-22.286v-57.266l-38.945 22.486z" fill="#ea8a59"/><path d="m218.69 226.115-4.478-2.585c-1.034-.598-2.713-.598-3.748 0l-35.427 20.396c-1.034.596-1.034 1.567 0 2.163l4.477 2.586c1.036.597 2.714.597 3.749 0l35.426-20.396c1.037-.597 1.037-1.566.001-2.164z" fill="#f7f6f6"/><path d="m175.007 242.551c-.649-.375-1.175-.071-1.175.678v56.359c0 .75.445 1.21 1.094 1.584l7.083 4.089c.649.375 1.256.522 1.256-.227v-56.359c0-.749-.526-1.661-1.175-2.036z" fill="#ea8259"/><path d="m183.176 305.064 39.033-22.515v-57.265l-39.232 22.495z" fill="#ea8e59"/></g><g><path d="m184.865 308.67 38.6-22.287v-57.265l-38.945 22.484z" fill="#5b684b"/><path d="m229.378 234.489-4.477-2.584c-1.034-.599-2.713-.599-3.747 0l-35.427 20.395c-1.034.598-1.034 1.568 0 2.165l4.478 2.584c1.036.598 2.713.598 3.749 0l35.425-20.396c1.035-.599 1.035-1.567-.001-2.164z" fill="#f7f6f6"/><path d="m185.694 250.924c-.648-.374-1.174-.071-1.174.677v56.36c0 .75.445 1.21 1.093 1.585l7.083 4.089c.649.375 1.256.521 1.256-.227v-56.36c0-.749-.525-1.66-1.175-2.034z" fill="#798b64"/><path d="m193.864 313.438 39.034-22.515v-57.266l-39.233 22.495z" fill="#7ea283"/></g><g><path d="m197.437 313.177 38.6-22.286v-57.266l-38.946 22.485z" fill="#835621"/><path d="m241.951 238.997-4.477-2.585c-1.036-.598-2.715-.598-3.749 0l-35.427 20.396c-1.034.596-1.034 1.566 0 2.164l4.478 2.586c1.035.597 2.714.597 3.749 0l35.427-20.397c1.034-.598 1.034-1.567-.001-2.164z" fill="#f7f6f6"/><path d="m198.267 255.432c-.65-.374-1.176-.069-1.176.678v56.36c0 .749.445 1.209 1.094 1.585l7.082 4.088c.649.375 1.257.521 1.257-.227v-56.359c0-.75-.525-1.661-1.175-2.036z" fill="#af722c"/><path d="m206.436 317.946 39.033-22.515v-57.266l-39.231 22.495z" fill="#bf8e56"/></g><g><path d="m205.103 323.05 38.601-22.287v-57.265l-38.946 22.484z" fill="#8f6b41"/><path d="m249.617 248.868-4.477-2.584c-1.035-.598-2.714-.598-3.749 0l-35.427 20.395c-1.035.598-1.035 1.567 0 2.165l4.478 2.584c1.034.598 2.713.598 3.747 0l35.427-20.395c1.036-.598 1.036-1.568.001-2.165z" fill="#f7f6f6"/><path d="m205.933 265.304c-.649-.375-1.175-.071-1.175.677v56.361c0 .75.444 1.209 1.094 1.584l7.081 4.089c.65.375 1.257.521 1.257-.227v-56.36c0-.749-.525-1.659-1.175-2.034z" fill="#a18a6f"/><path d="m214.103 327.818 39.034-22.516v-57.265l-39.233 22.494z" fill="#cfaa80"/></g><g><path d="m217.675 327.557 38.601-22.286v-57.265l-38.945 22.484z" fill="#ea8a59"/><path d="m262.189 253.376-4.478-2.585c-1.034-.597-2.713-.597-3.748 0l-35.426 20.396c-1.035.597-1.035 1.566 0 2.164l4.478 2.586c1.034.596 2.712.596 3.749 0l35.425-20.396c1.035-.598 1.035-1.567 0-2.165z" fill="#f7f6f6"/><path d="m218.506 269.812c-.65-.374-1.175-.071-1.175.678v56.359c0 .75.443 1.21 1.093 1.585l7.083 4.089c.648.375 1.257.521 1.257-.228v-56.358c0-.749-.526-1.661-1.176-2.036z" fill="#ea8259"/><path d="m226.675 332.325 39.033-22.514v-57.266l-39.232 22.495z" fill="#ea8e59"/></g><path d="m123.155 189.558 163.414 94.347 95.997-55.424-163.414-94.348z" fill="#ae8c60"/><path d="m219.152 134.133 163.414 94.348v-85.486l-163.414-94.347z" fill="#635f5f"/><g><path d="m146.438 190.312 38.601-22.287v-57.266l-38.945 22.486z" fill="#c27268"/><path d="m190.952 116.131-4.477-2.584c-1.034-.598-2.714-.598-3.748 0l-35.427 20.395c-1.035.597-1.035 1.566 0 2.163l4.478 2.586c1.035.598 2.714.598 3.749 0l35.426-20.395c1.035-.599 1.035-1.568-.001-2.165z" fill="#f7f6f6"/><path d="m147.269 132.567c-.649-.375-1.175-.071-1.175.678v56.359c0 .75.444 1.21 1.093 1.585l7.082 4.088c.65.376 1.258.522 1.258-.227v-56.36c0-.749-.526-1.66-1.176-2.034z" fill="#e16564"/><path d="m155.438 195.08 39.034-22.515v-57.266l-39.232 22.495z" fill="#ea5a59"/></g><g><path d="m159.01 194.819 38.6-22.286v-57.265l-38.945 22.485z" fill="#eaa659"/><path d="m203.525 120.64-4.478-2.586c-1.035-.598-2.714-.598-3.748 0l-35.427 20.396c-1.034.598-1.034 1.567 0 2.164l4.479 2.586c1.034.598 2.712.598 3.748 0l35.427-20.396c1.034-.599 1.034-1.568-.001-2.164z" fill="#f7f6f6"/><path d="m159.84 137.075c-.649-.374-1.175-.071-1.175.678v56.36c0 .75.445 1.209 1.095 1.584l7.082 4.089c.648.375 1.256.521 1.256-.228v-56.359c0-.75-.525-1.66-1.175-2.035z" fill="#eacb59"/><path d="m168.01 199.588 39.034-22.516v-57.265l-39.232 22.495z" fill="#eab859"/></g><g><path d="m166.677 204.692 38.601-22.287v-57.266l-38.946 22.486z" fill="#488660"/><path d="m211.19 130.511-4.477-2.584c-1.035-.598-2.714-.598-3.749 0l-35.427 20.395c-1.035.598-1.035 1.567 0 2.163l4.478 2.586c1.034.598 2.712.598 3.748 0l35.425-20.396c1.038-.598 1.038-1.567.002-2.164z" fill="#f7f6f6"/><path d="m167.507 146.947c-.649-.374-1.176-.071-1.176.678v56.359c0 .752.445 1.211 1.094 1.585l7.083 4.089c.649.376 1.257.522 1.257-.227v-56.36c0-.748-.525-1.66-1.175-2.035z" fill="#689589"/><path d="m175.676 209.46 39.035-22.516v-57.265l-39.233 22.495z" fill="#68a7a2"/></g><g><path d="m179.249 209.2 38.601-22.287v-57.266l-38.946 22.486z" fill="#ea8a59"/><path d="m223.763 135.019-4.477-2.585c-1.036-.599-2.714-.599-3.749 0l-35.426 20.396c-1.036.598-1.036 1.566 0 2.163l4.477 2.585c1.034.598 2.713.598 3.749 0l35.425-20.396c1.036-.597 1.036-1.566.001-2.163z" fill="#f7f6f6"/><path d="m180.079 151.454c-.649-.375-1.175-.07-1.175.678v56.36c0 .749.444 1.209 1.094 1.584l7.083 4.089c.648.375 1.257.522 1.257-.227v-56.359c0-.749-.527-1.661-1.176-2.034z" fill="#ea8259"/><path d="m188.248 213.968 39.035-22.516v-57.265l-39.234 22.495z" fill="#ea8e59"/></g><path d="m115.052 88.17v.957 10.266 85.486 11.224 85.484 11.224 85.486 11.224l8.103 4.678 171.517 99.025v-.957-10.267-85.485-11.224-85.485-11.224-85.485-11.223l-8.103-4.679zm171.517 389.154-163.415-94.348v-85.486l163.415 94.348zm0-96.71-163.415-94.348v-85.485l163.415 94.348zm0-96.709-163.415-94.347v-85.485l163.415 94.347z" fill="#dbb799"/><path d="m294.672 492.268 95.996-55.425v-300.394l-95.996 55.425z" fill="#a28561"/><path d="m115.052 88.17 179.62 103.704 95.996-55.425-179.618-103.703z" fill="#e3c293"/><path d="m232.94 127.117c-.182 5.54 3.387 11.114 10.71 15.343 14.29 8.25 37.457 8.25 51.746 0 7.18-4.146 10.752-9.587 10.717-15.019-.001-.189 9.688-50.672 9.688-50.672l-92.554.286c0-.001 9.7 49.874 9.693 50.062z" fill="url(#SVGID_1_)"/><path d="m301.652 58.452c-17.744-10.245-46.513-10.245-64.256 0-17.744 10.244-17.744 26.853 0 37.098 17.743 10.244 46.512 10.244 64.256 0 17.744-10.245 17.744-26.854 0-37.098z" fill="#065e60"/><path d="m297.274 66.143c-15.31-8.838-40.131-8.838-55.439 0-15.31 8.839-15.089 21.877.22 30.716 15.31 8.84 41.274 7.142 56.583-1.697s13.945-20.179-1.364-29.019z" fill="#3c3421"/><g><path d="m302.25 58.106c-18.073-10.434-47.377-10.434-65.449 0-18.074 10.435-18.074 27.352 0 37.787 18.073 10.435 47.376 10.435 65.449 0 18.073-10.434 18.073-27.352 0-37.787zm-3.532 35.748c-16.097 9.294-42.287 9.294-58.386 0-16.096-9.294-16.096-24.415 0-33.709 16.099-9.293 42.289-9.293 58.386 0 16.097 9.294 16.097 24.415 0 33.709z" fill="#9de4e6"/></g><path d="m267.416 83.88c.144.021.279.023.426.058.104.025.188.069.286.1 2.528-4.266 11.33-18.536 22.854-30.713 17.152-18.126 36.777-14.047 36.777-14.047-41.338-14.938-57.048 30.893-60.343 44.602z" fill="#2d7335"/><path d="m281.473 51.818c-11.349 17.614-11.947 22.586-13.764 31.873 5.301-13.284 25.966-54.491 60.049-44.414.001 0-28.396-11.936-46.285 12.541z" fill="#2f7f34"/><path d="m269.488 75.737 7.288-15.478c11.645-20.597 23.454-29.137 32.335-32.539-33.625 8.605-39.623 48.017-39.623 48.017z" fill="#2d7335"/><path d="m309.111 27.72c4.437-1.136 9.307-1.79 14.758-1.689 0 0-5.934-1.691-14.758 1.689z" fill="#2d7335"/><path d="m280.021 40.432c-13.145 20.773-10.907 24.716-10.533 35.305 0 0 3.504-17.506 18.954-35.149 7.24-8.184 20.067-14.243 35.427-14.557 0 0-30.702-6.373-43.848 14.401z" fill="#2f7f34"/><path d="m195.104 48.639c40.959-4.577 72.273 36.592 72.273 36.592l-11.916-17.158c-29.27-33.064-60.357-19.434-60.357-19.434z" fill="#2d7335"/><path d="m195.104 48.639c37.025-14.98 72.273 36.592 72.273 36.592.31-8.788-8.077-16.828-8.077-16.828-36.457-43.677-64.196-19.764-64.196-19.764z" fill="#2f7f34"/><path d="m214.758 40.318c5.449-.101 10.318.553 14.755 1.688-8.821-3.378-14.755-1.688-14.755-1.688z" fill="#2d7335"/><path d="m229.513 42.006c8.881 3.401 20.691 11.941 32.337 32.539l7.288 15.477c.001 0-5.998-39.414-39.625-48.016z" fill="#2d7335"/><path d="m214.758 40.318c15.361.314 28.187 6.373 35.427 14.557 15.45 17.642 18.954 35.147 18.954 35.147.375-10.589 2.613-14.531-10.533-35.306-13.145-20.771-43.848-14.398-43.848-14.398z" fill="#2f7f34"/><path d="m151.633 104.427c39.585-24.739 118.971-14.295 118.971-14.295l-13.759-10.279c-69.588-25.33-105.212 24.574-105.212 24.574z" fill="#2d7335"/><path d="m279.076 68.238-11.916 17.157s31.314-41.169 72.274-36.591c-.001 0-29.134-15.64-60.358 19.434z" fill="#2d7335"/><path d="m275.236 68.568s-8.387 8.039-8.077 16.827c0 0 35.249-51.572 72.274-36.591 0 0-27.74-23.913-64.197 19.764z" fill="#2f7f34"/><path d="m261.278 77.968c-74.61-28.666-109.644 26.459-109.644 26.459 43.762-40.893 118.971-14.295 118.971-14.295.358-8.967-9.327-12.164-9.327-12.164z" fill="#3f8d3e"/><path d="m272.24 74.926-12.507 11.197s72.149-28.471 120.639-5.075c0-.001-42.565-36.8-108.132-6.122z" fill="#2d7335"/><path d="m267.762 73.472s-9.154 3.95-8.03 12.651c0 0 75.87-36.78 120.639-5.075.001-.001-42.441-41.934-112.609-7.576z" fill="#3f8d3e"/><path d="m173.348 72.855s33.547-9.241 99.682 11.52c0 0-60.097-36.257-99.682-11.52z" fill="#2d7335"/><path d="m222.637 19.121s20.035.612 32.486 22.239c8.364 14.53 13.595 30.459 15.059 35.197.103-.007.194-.029.3-.029.153 0 .285.029.428.042-.006-14.1-4.593-62.332-48.273-57.449z" fill="#2d7335"/><path d="m262.653 70.261c-60.417-20.243-89.305 2.595-89.305 2.595 43.032-15.507 99.682 11.52 99.682 11.52 2.926-9.159-10.377-14.115-10.377-14.115z" fill="#3f8d3e"/><path d="m222.637 19.121c35.494-1.849 45.976 43.042 48.033 57.196.399-9.454.976-14.43-5.949-34.204-11.687-27.975-42.084-22.992-42.084-22.992z" fill="#2f7f34"/><path d="m273.384 80.75-9.044 8.096c.637.455 1.216.971 1.726 1.542 22.791-10.846 90.567-39.581 130.882-19.1 0 0-44.562-27.502-123.564 9.462z" fill="#2d7335"/><path d="m146.631 60.844c48.971-8.138 91.498 4.901 117.955 16.825.282-1.23.598-2.452.952-3.661-79.927-36.251-118.907-13.164-118.907-13.164z" fill="#2d7335"/><path d="m146.631 60.844c50.482-13.148 92.641.761 118.599 14.258.537-1.961 1.163-3.893 1.859-5.784-82.138-40.864-120.458-8.474-120.458-8.474z" fill="#3f8d3e"/><path d="m175.557 106.041c34.522-21.734 94.973-11.269 94.973-11.269l-6.407-5.108c-59.679-8.687-88.566 16.377-88.566 16.377z" fill="#2d7335"/><path d="m259.451 86.524c-68.226-10.86-83.893 19.517-83.893 19.517 47.301-30.612 92.466-11.542 92.466-11.542.431-10.807-8.573-7.975-8.573-7.975z" fill="#3f8d3e"/><path d="m262.75 92.902c65.712-62.242 106.293-55.283 106.293-55.283-55.008-17.687-106.293 55.283-106.293 55.283z" fill="#2d7335"/><path d="m264.098 82.669s-.659.848-1.142 2.635c.352.741.734 1.463 1.144 2.169.61-1.014 2.017-1.636 3.25-.718.127.094.252.189.376.284 14.54-16.37 58.631-60.656 101.316-49.42.001 0-40.124-27.814-104.944 45.05z" fill="#2f7f34"/><path d="m267.988 78.999s-6.495 2.809-8.902 8.855c1.341-.369 2.858-.422 4.07.24.96.524 1.828 1.168 2.572 1.921 21.555-11.688 85.616-42.102 131.22-18.726 0-.001-44.415-33.688-128.96 7.71z" fill="#3f8d3e"/><path d="m184.741 33.302s35.41-2.283 87.749 51.756c.162-.235.323-.472.49-.705.418-.818.805-1.657 1.168-2.509-17.203-22.758-50.2-56.732-89.407-48.542z" fill="#2f7f34"/><path d="m184.741 33.302c37.076-5.688 71.024 27.707 88.928 49.621.981-2.13 1.786-4.364 2.467-6.632-58.628-74.269-91.395-42.989-91.395-42.989z" fill="#388838"/><path d="m264.035 83.402c.836.856 1.696 1.689 2.607 2.474.033.028.066.056.098.083 23.086-16.493 60.662-36.651 108.211-38.544-.001 0-41.777-14.336-110.916 35.987z" fill="#2f7f34"/><path d="m267.935 75.491c-6.399 4.631-24.435 18.484-28.94 62.454 0 0 24.893-54.164 39.83-59.953 0 0-2.44-8.616-10.89-2.501z" fill="#2d7335"/><path d="m260.915 79.765c.456.583.906 1.173 1.348 1.768.826.897 1.665 1.779 2.536 2.633 22.235-17.981 59.634-39.294 110.151-36.752 0 .001-43.278-23.494-114.035 32.351z" fill="#388838"/><path d="m266.646 73.624c-6.399 4.63-23.146 20.351-27.651 64.321 0 0 18.354-55.338 39.83-59.953 0 0 1.205-6.215-12.179-4.368z" fill="#3f8d3e"/><path d="m274.506 75.378-6.407 5.109s60.45-10.466 94.971 11.269c0-.001-28.887-25.065-88.564-16.378z" fill="#2d7335"/><path d="m279.176 72.238s-9.004-2.831-8.572 7.974c0 0 45.165-19.07 92.465 11.544.001-.001-15.665-30.377-83.893-19.518z" fill="#3f8d3e"/><path d="m263.467 88.267c-7.031-2.932-4.729 2.946-4.729 2.946 19.7 4.526 52.169 40.412 52.169 40.412-13.58-54.097-38.611-38.732-47.44-43.358z" fill="#2d7335"/><path d="m264.74 85.702c-17.051.115-6.002 5.511-6.002 5.511 27.655 1.876 52.169 40.412 52.169 40.412-13.58-54.097-37.339-41.298-46.167-45.923z" fill="#3f8d3e"/><path d="m273.848 75.749-13.758 10.278s41.004 5.128 80.589 29.867c0 0-22.599-38.149-66.831-40.145z" fill="#2d7335"/><path d="m269.416 73.862s-9.685 3.198-9.326 12.165c0 0 36.827-11.025 80.589 29.867 0 0-8.43-42.632-71.263-42.032z" fill="#3f8d3e"/><path d="m265.329 78.967c-8.737 3.773-31.472-12.646-48.272 37.891 0 0 33.483-31.845 52.564-34.747 0-.001 2.613-5.433-4.292-3.144z" fill="#2d7335"/><path d="m264.301 76.434c-8.737 3.773-30.444-10.113-47.244 40.424 0 0 26.099-34.938 52.564-34.747 0-.001 10.906-4.349-5.32-5.677z" fill="#3f8d3e"/></svg>