<svg id="Layer_1" enable-background="new 0 0 512 512" height="512" viewBox="0 0 512 512" width="512" xmlns="http://www.w3.org/2000/svg"><g><path d="m113.437 142.587v288.369c2.162-1.239 193.204-111.307 195.861-112.646v-288.805l-188.327 108.73z" fill="#583722"/><path d="m301.762 312.105 89.266 51.537.001-126.346-89.267-23.234z" fill="#6d360d"/><path d="m120.97 416.485 89.266 51.538 180.792-104.381-89.266-51.537z" fill="#784019"/><path d="m301.762 175.321 89.266 51.539.001-131.029h-89.267z" fill="#6d360d"/><g><g><path d="m311.549 337.748 50.491 29.152 15.188-77.573-50.943-29.412z" fill="#488660"/><path d="m375.648 290.238-46.339-26.677c-1.353-.783-3.549-.783-4.903 0l-5.855 3.38c-1.354.782-1.354 2.049 0 2.831l46.338 26.679c1.355.783 3.549.783 4.902 0l5.857-3.382c1.354-.781 1.354-2.049 0-2.831z" fill="#f7f6f6"/><path d="m375.69 288.44-9.265 5.348c-.85.49-1.537 1.683-1.537 2.662l-14.736 76.648c0 .979.795.788 1.644.296l9.264-5.348c.849-.49 1.431-1.091 1.431-2.073l14.736-76.647c.001-.979-.689-1.375-1.537-.886z" fill="#689589"/><path d="m299.21 343.685 51.059 29.452 14.994-77.86-51.317-29.424z" fill="#68a7a2"/></g><g><path d="m301.818 346.342 50.491 29.151.45-74.645-50.941-29.41z" fill="#eb5e30"/><path d="m351.182 301.76-46.339-26.679c-1.354-.781-3.55-.781-4.903 0l-5.857 3.381c-1.354.782-1.354 2.05 0 2.831l46.338 26.679c1.355.781 3.55.781 4.903 0l5.858-3.382c1.354-.781 1.354-2.049 0-2.83z" fill="#f7f6f6"/><path d="m351.222 299.961-9.262 5.349c-.851.489-1.538 1.683-1.538 2.662v73.718c0 .98.797.789 1.644.298l9.264-5.348c.851-.49 1.429-1.092 1.429-2.073v-73.72c0-.979-.686-1.376-1.537-.886z" fill="#ff8242"/><path d="m289.48 352.281 51.057 29.45.26-74.932-51.317-29.424z" fill="#ff6c3c"/></g><g><path d="m283.284 357.445 50.492 29.151.45-74.645-50.942-29.413z" fill="#3786dd"/><path d="m332.648 312.863-46.34-26.678c-1.352-.782-3.549-.782-4.903 0l-5.856 3.381c-1.355.781-1.355 2.049 0 2.831l46.338 26.677c1.354.783 3.549.783 4.903 0l5.857-3.382c1.355-.781 1.355-2.048.001-2.829z" fill="#f7f6f6"/><path d="m332.689 311.064-9.264 5.349c-.849.49-1.538 1.682-1.538 2.661v73.721c0 .98.795.788 1.645.297l9.264-5.348c.849-.491 1.429-1.091 1.429-2.073v-73.72c.001-.979-.687-1.377-1.536-.887z" fill="#4bb7f0"/><path d="m270.945 363.383 51.058 29.45.26-74.933-51.318-29.423z" fill="#379cdd"/></g></g><path d="m120.97 279.702 89.266 51.538 180.792-104.38-89.266-51.539z" fill="#784019"/><g><g><path d="m315.867 197.087 50.49 29.151.451-74.645-50.941-29.411z" fill="#e5b309"/><path d="m365.231 152.504-46.34-26.678c-1.353-.783-3.549-.783-4.903 0l-5.857 3.383c-1.353.779-1.353 2.047 0 2.829l46.339 26.679c1.355.782 3.55.782 4.902 0l5.859-3.383c1.352-.78 1.352-2.048 0-2.83z" fill="#f2f2f2"/><path d="m365.272 150.706-9.265 5.348c-.849.49-1.537 1.682-1.537 2.662v73.719c0 .98.796.789 1.644.298l9.263-5.349c.851-.49 1.432-1.091 1.432-2.072v-73.72c-.001-.979-.688-1.376-1.537-.886z" fill="#ffde5e"/><path d="m303.528 203.024 51.057 29.452.259-74.932-51.316-29.425z" fill="#efbf13"/></g><g><path d="m295.352 206.74 46.666 34.952 9.326-74.063-47.081-35.263z" fill="#3786dd"/><path d="m306.832 136.345c-1.25-.937-3.431-1.198-4.868-.583l-6.217 2.66c-1.438.615-1.589 1.873-.337 2.811l42.836 32.001c1.251.938 3.431 1.199 4.868.583l6.218-2.661c1.437-.614 1.588-1.873.337-2.809z" fill="#f7f6f6"/><path d="m349.924 166.566-9.834 4.209c-.902.386-1.726 1.487-1.843 2.46l-8.77 73.197c-.116.973.696.877 1.598.49l9.834-4.207c.901-.387 1.549-.914 1.666-1.889l8.77-73.196c.116-.973-.52-1.449-1.421-1.064z" fill="#4bb7f0"/><path d="m282.395 211.168 47.191 35.315 9.172-74.369-47.452-35.32z" fill="#379cdd"/></g><g><path d="m279.301 219.076 50.492 29.152.45-74.645-50.942-29.413z" fill="#ea8a59"/><path d="m328.664 174.494-46.338-26.679c-1.354-.783-3.549-.783-4.903 0l-5.856 3.382c-1.355.781-1.355 2.048 0 2.829l46.338 26.679c1.355.783 3.551.783 4.904 0l5.856-3.381c1.354-.782 1.354-2.048-.001-2.83z" fill="#f7f6f6"/><path d="m328.706 172.695-9.263 5.349c-.85.489-1.539 1.682-1.539 2.661v73.72c0 .98.796.789 1.644.298l9.264-5.348c.85-.491 1.431-1.092 1.431-2.072v-73.72c0-.979-.689-1.378-1.537-.888z" fill="#ea8259"/><path d="m266.962 225.014 51.059 29.451.259-74.933-51.318-29.424z" fill="#ea8e59"/></g><g><path d="m263.317 230.81 50.491 29.152.451-74.647-50.942-29.41z" fill="#8f6b41"/><path d="m312.681 186.227-46.339-26.678c-1.353-.783-3.55-.783-4.904 0l-5.856 3.381c-1.354.781-1.354 2.048 0 2.831l46.339 26.677c1.353.783 3.549.783 4.902 0l5.858-3.38c1.354-.781 1.354-2.049 0-2.831z" fill="#f7f6f6"/><path d="m312.722 184.429-9.264 5.349c-.85.491-1.537 1.682-1.537 2.661v73.721c0 .978.795.788 1.644.297l9.262-5.348c.85-.492 1.431-1.092 1.431-2.072v-73.722c.001-.978-.687-1.375-1.536-.886z" fill="#cfaa80"/><path d="m250.978 236.747 51.058 29.453.26-74.934-51.318-29.423z" fill="#cfa06d"/></g><g><path d="m243.948 240.286 50.491 29.151.45-74.645-50.941-29.41z" fill="#eb5e30"/><path d="m293.312 195.704-46.338-26.679c-1.354-.781-3.55-.781-4.903 0l-5.857 3.381c-1.354.782-1.354 2.05 0 2.831l46.338 26.679c1.355.781 3.55.781 4.903 0l5.857-3.382c1.354-.781 1.354-2.049 0-2.83z" fill="#f7f6f6"/><path d="m293.353 193.906-9.263 5.349c-.85.49-1.538 1.683-1.538 2.662v73.718c0 .98.797.789 1.644.298l9.264-5.348c.85-.491 1.429-1.093 1.429-2.073v-73.72c0-.98-.686-1.377-1.536-.886z" fill="#ff8242"/><path d="m231.61 246.225 51.057 29.45.26-74.932-51.317-29.424z" fill="#ff6c3c"/></g></g><path d="m202.702 194.125v288.37c2.162-1.239 193.204-111.307 195.861-112.646v-288.805l-188.327 108.73zm188.327 169.517-180.793 104.381v-126.346l180.793-104.382zm0-136.783-180.793 104.38v-131.028l180.793-104.38z" fill="#b5714c"/><path d="m113.437 430.956 89.265 51.539v-288.37l-89.265-51.538z" fill="#8d4924"/><path d="m113.437 142.587 89.265 51.538 195.861-113.081-89.266-51.538z" fill="#a15d38"/></g></svg>