<svg id="Filloutline" enable-background="new 0 0 128 128" height="512" viewBox="0 0 128 128" width="512" xmlns="http://www.w3.org/2000/svg" xmlns:xlink="http://www.w3.org/1999/xlink"><linearGradient id="lg1"><stop offset="0" stop-color="#967e7f"/><stop offset="1" stop-color="#373638"/></linearGradient><linearGradient id="SVGID_1_" gradientUnits="userSpaceOnUse" x1="14" x2="14" xlink:href="#lg1" y1="87.972" y2="135.325"/><linearGradient id="SVGID_2_" gradientTransform="matrix(-1 0 0 1 -356 0)" gradientUnits="userSpaceOnUse" x1="-470" x2="-470" xlink:href="#lg1" y1="88.625" y2="133.919"/><linearGradient id="SVGID_3_" gradientUnits="userSpaceOnUse" x1="64" x2="64" y1="14.741" y2="121.138"><stop offset="0" stop-color="#93634d"/><stop offset="1" stop-color="#93634d"/></linearGradient><linearGradient id="lg2"><stop offset="0" stop-color="#dfb082"/><stop offset="1" stop-color="#cb936d"/></linearGradient><linearGradient id="SVGID_4_" gradientUnits="userSpaceOnUse" x1="34" x2="34" xlink:href="#lg2" y1="43.857" y2="46.302"/><linearGradient id="SVGID_5_" gradientUnits="userSpaceOnUse" x1="34" x2="34" xlink:href="#lg2" y1="67.857" y2="70.302"/><linearGradient id="lg3"><stop offset="0" stop-color="#58595b"/><stop offset="1" stop-color="#414042"/></linearGradient><linearGradient id="SVGID_6_" gradientUnits="userSpaceOnUse" x1="34" x2="34" xlink:href="#lg3" y1="57.571" y2="58.06"/><linearGradient id="SVGID_7_" gradientUnits="userSpaceOnUse" x1="34" x2="34" xlink:href="#lg3" y1="80.571" y2="81.06"/><linearGradient id="SVGID_8_" gradientUnits="userSpaceOnUse" x1="94" x2="94" xlink:href="#lg2" y1="43.857" y2="46.302"/><linearGradient id="SVGID_9_" gradientUnits="userSpaceOnUse" x1="94" x2="94" xlink:href="#lg2" y1="67.857" y2="70.302"/><linearGradient id="SVGID_10_" gradientUnits="userSpaceOnUse" x1="94" x2="94" xlink:href="#lg3" y1="57.571" y2="58.06"/><linearGradient id="SVGID_11_" gradientUnits="userSpaceOnUse" x1="94" x2="94" xlink:href="#lg3" y1="80.571" y2="81.06"/><linearGradient id="lg4"><stop offset="0" stop-color="#d69b61"/><stop offset="1" stop-color="#c17e51"/></linearGradient><linearGradient id="SVGID_12_" gradientUnits="userSpaceOnUse" x1="64" x2="64" xlink:href="#lg4" y1="94.333" y2="111.067"/><linearGradient id="SVGID_13_" gradientTransform="matrix(-1 0 0 1 -330 0)" gradientUnits="userSpaceOnUse" x1="-413" x2="-413" y1="36.75" y2="26.07"><stop offset="0" stop-color="#809000"/><stop offset="1" stop-color="#6b7f00"/></linearGradient><linearGradient id="SVGID_14_" gradientTransform="matrix(-1 0 0 1 -330 0)" gradientUnits="userSpaceOnUse" x1="-404.445" x2="-401.085" xlink:href="#lg3" y1="44" y2="44"/><linearGradient id="lg5"><stop offset="0" stop-color="#a6b046"/><stop offset="1" stop-color="#9ca728"/></linearGradient><linearGradient id="SVGID_15_" gradientTransform="matrix(-1 0 0 1 -330 0)" gradientUnits="userSpaceOnUse" x1="-416.5" x2="-416.5" xlink:href="#lg5" y1="32.594" y2="35.453"/><linearGradient id="SVGID_16_" gradientUnits="userSpaceOnUse" x1="79.5" x2="79.5" xlink:href="#lg5" y1="32.594" y2="35.453"/><linearGradient id="SVGID_17_" gradientTransform="matrix(-1 0 0 1 -330 0)" gradientUnits="userSpaceOnUse" x1="-437" x2="-437" y1=".583" y2="18.348"><stop offset="0" stop-color="#f1f2f2"/><stop offset="1" stop-color="#e6e7e8"/></linearGradient><linearGradient id="SVGID_18_" gradientTransform="matrix(-1 0 0 1 -330 0)" gradientUnits="userSpaceOnUse" x1="-437" x2="-437" y1="22.589" y2="58.219"><stop offset="0" stop-color="#7c7e82"/><stop offset="1" stop-color="#6d6e71"/></linearGradient><linearGradient id="SVGID_19_" gradientUnits="userSpaceOnUse" x1="87" x2="127" y1="24" y2="24"><stop offset="0" stop-color="#bcbec0"/><stop offset="1" stop-color="#808285"/></linearGradient><linearGradient id="SVGID_20_" gradientTransform="matrix(-1 0 0 1 -330 0)" gradientUnits="userSpaceOnUse" x1="-437" x2="-437" xlink:href="#lg4" y1="48.889" y2="52.969"/><linearGradient id="SVGID_21_" gradientUnits="userSpaceOnUse" x1="107" x2="107" y1="31.917" y2="33.921"><stop offset="0" stop-color="#ffd6a4"/><stop offset="1" stop-color="#ffbb76"/></linearGradient><linearGradient id="SVGID_22_" gradientUnits="userSpaceOnUse" x1="17" x2="17" y1="8.25" y2="20.503"><stop offset=".1197" stop-color="#9fc9f1"/><stop offset="1" stop-color="#65b4e2"/></linearGradient><g><g><g clip-rule="evenodd" fill-rule="evenodd"><path d="m10 126c-1.264 0-2-.736-2-2l4-21h8l-7 21c-1 2-1.985 2-3 2z" fill="url(#SVGID_1_)"/><path d="m118 126c1.264 0 2-.736 2-2l-4-21h-8l7 21c1 2 1.985 2 3 2z" fill="url(#SVGID_2_)"/><path d="m121 99h-114c-2.761 0-5-2.239-5-5v-42c0-2.761 2.239-5 5-5h114c2.761 0 5 2.239 5 5v42c0 2.761-2.239 5-5 5z" fill="url(#SVGID_3_)"/><path d="m59.008 71h-50.016c-1.646 0-2.992-1.346-2.992-2.992v-14.016c0-1.646 1.346-2.992 2.992-2.992h50.016c1.646 0 2.992 1.346 2.992 2.992v14.016c0 1.646-1.346 2.992-2.992 2.992z" fill="url(#SVGID_4_)"/><path d="m59.008 95h-50.016c-1.646 0-2.992-1.346-2.992-2.992v-14.016c0-1.646 1.346-2.992 2.992-2.992h50.016c1.646 0 2.992 1.346 2.992 2.992v14.016c0 1.646-1.346 2.992-2.992 2.992z" fill="url(#SVGID_5_)"/><path d="m41 63h-14c-1.105 0-2-.895-2-2 0-1.105.895-2 2-2h14c1.105 0 2 .895 2 2 0 1.105-.895 2-2 2z" fill="url(#SVGID_6_)"/><path d="m41 86h-14c-1.105 0-2-.895-2-2 0-1.105.895-2 2-2h14c1.105 0 2 .895 2 2 0 1.105-.895 2-2 2z" fill="url(#SVGID_7_)"/><path d="m119.008 71h-50.016c-1.646 0-2.992-1.346-2.992-2.992v-14.016c0-1.646 1.346-2.992 2.992-2.992h50.016c1.646 0 2.992 1.346 2.992 2.992v14.016c0 1.646-1.346 2.992-2.992 2.992z" fill="url(#SVGID_8_)"/><path d="m119.008 95h-50.016c-1.646 0-2.992-1.346-2.992-2.992v-14.016c0-1.646 1.346-2.992 2.992-2.992h50.016c1.646 0 2.992 1.346 2.992 2.992v14.016c0 1.646-1.346 2.992-2.992 2.992z" fill="url(#SVGID_9_)"/><path d="m101 63h-14c-1.105 0-2-.895-2-2 0-1.105.895-2 2-2h14c1.105 0 2 .895 2 2 0 1.105-.895 2-2 2z" fill="url(#SVGID_10_)"/><path d="m101 86h-14c-1.105 0-2-.895-2-2 0-1.105.895-2 2-2h14c1.105 0 2 .895 2 2 0 1.105-.895 2-2 2z" fill="url(#SVGID_11_)"/><path d="m118.962 103h-109.924c-.571 0-1.038-.467-1.038-1.038v-2.962h112v2.962c0 .571-.467 1.038-1.038 1.038z" fill="url(#SVGID_12_)"/></g><g><path d="m83 28c3 4 3 14 3 14h-3-3s0-10 3-14z" fill="url(#SVGID_13_)"/><path d="m77.128 47h11.744c.62 0 1.128-.508 1.128-1.128v-3.744c0-.62-.508-1.128-1.128-1.128h-11.744c-.62 0-1.128.508-1.128 1.128v3.744c0 .62.508 1.128 1.128 1.128z" fill="url(#SVGID_14_)"/><path d="m88 41s0-5 2-9c0 0-5 0-7 9 0 0 5.047 0 5 0z" fill="url(#SVGID_15_)"/><path d="m78 41s0-5-2-9c0 0 5 0 7 9z" fill="url(#SVGID_16_)"/><g><path d="m89 25h36l-7-21c-.48-1.104-1.796-2-3-2h-16c-1.204 0-2.52.896-3 2z" fill="url(#SVGID_17_)"/><path d="m104 43h6v-18h-6z" fill="url(#SVGID_18_)"/><path d="m89 26h36c1.1 0 2-.9 2-2 0-1.1-.9-2-2-2h-36c-1.1 0-2 .9-2 2 0 1.1.9 2 2 2z" fill="url(#SVGID_19_)"/><path d="m102 47h10v-15.004c0-1.102-.894-1.996-1.996-1.996h-6.008c-1.102 0-1.996.894-1.996 1.996z" fill="url(#SVGID_20_)"/></g></g><path d="m102 36h10v5h-10z" fill="url(#SVGID_21_)"/><path d="m19 29v-9c0-.55-.45-1-1-1h-2c-.55 0-1 .45-1 1v8.943c0 1.181-.843 1.82-2 2.057-3.488.716-5 2.795-5 8 0 4.418 4.029 8 9 8s9-3.582 9-8c0-5.205-1.512-7.284-5-8-1.157-.237-2-.819-2-2z" fill="url(#SVGID_22_)"/></g><g fill="#3a322b"><path d="m59.008 50h-50.016c-2.201 0-3.992 1.791-3.992 3.992v14.016c0 2.201 1.791 3.992 3.992 3.992h50.016c2.201 0 3.992-1.791 3.992-3.992v-14.016c0-2.201-1.791-3.992-3.992-3.992zm1.992 18.008c0 1.098-.894 1.992-1.992 1.992h-50.016c-1.098 0-1.992-.894-1.992-1.992v-14.016c0-1.098.894-1.992 1.992-1.992h50.016c1.098 0 1.992.894 1.992 1.992z"/><path d="m59.008 74h-50.016c-2.201 0-3.992 1.791-3.992 3.992v14.016c0 2.201 1.791 3.992 3.992 3.992h50.016c2.201 0 3.992-1.791 3.992-3.992v-14.016c0-2.201-1.791-3.992-3.992-3.992zm1.992 18.008c0 1.098-.894 1.992-1.992 1.992h-50.016c-1.098 0-1.992-.894-1.992-1.992v-14.016c0-1.098.894-1.992 1.992-1.992h50.016c1.098 0 1.992.894 1.992 1.992z"/><path d="m41 58h-14c-1.654 0-3 1.346-3 3s1.346 3 3 3h14c1.654 0 3-1.346 3-3s-1.346-3-3-3zm0 4h-14c-.552 0-1-.448-1-1s.448-1 1-1h14c.552 0 1 .448 1 1s-.448 1-1 1z"/><path d="m41 81h-14c-1.654 0-3 1.346-3 3s1.346 3 3 3h14c1.654 0 3-1.346 3-3s-1.346-3-3-3zm0 4h-14c-.552 0-1-.448-1-1s.448-1 1-1h14c.552 0 1 .448 1 1s-.448 1-1 1z"/><path d="m65 53.992v14.016c0 2.201 1.791 3.992 3.992 3.992h50.016c2.201 0 3.992-1.791 3.992-3.992v-14.016c0-2.201-1.791-3.992-3.992-3.992h-50.016c-2.201 0-3.992 1.791-3.992 3.992zm56 0v14.016c0 1.099-.894 1.992-1.992 1.992h-50.016c-1.098 0-1.992-.894-1.992-1.992v-14.016c0-1.098.894-1.992 1.992-1.992h50.016c1.098 0 1.992.894 1.992 1.992z"/><path d="m119.008 74h-50.016c-2.201 0-3.992 1.791-3.992 3.992v14.016c0 2.201 1.791 3.992 3.992 3.992h50.016c2.201 0 3.992-1.791 3.992-3.992v-14.016c0-2.201-1.791-3.992-3.992-3.992zm1.992 18.008c0 1.099-.894 1.992-1.992 1.992h-50.016c-1.098 0-1.992-.894-1.992-1.992v-14.016c0-1.098.894-1.992 1.992-1.992h50.016c1.099 0 1.992.894 1.992 1.992z"/><path d="m87 64h14c1.654 0 3-1.346 3-3s-1.346-3-3-3h-14c-1.654 0-3 1.346-3 3s1.346 3 3 3zm0-4h14c.552 0 1 .448 1 1s-.448 1-1 1h-14c-.552 0-1-.448-1-1s.448-1 1-1z"/><path d="m101 81h-14c-1.654 0-3 1.346-3 3s1.346 3 3 3h14c1.654 0 3-1.346 3-3s-1.346-3-3-3zm0 4h-14c-.552 0-1-.448-1-1s.448-1 1-1h14c.552 0 1 .448 1 1s-.448 1-1 1z"/><path d="m125 27c1.654 0 3-1.346 3-3s-1.346-3-3-3h-.28l-5.803-17.399c-.646-1.483-2.329-2.601-3.917-2.601h-16c-1.589 0-3.272 1.118-3.948 2.684l-5.772 17.316h-.28c-1.654 0-3 1.346-3 3s1.346 3 3 3h14v2.183c-1.161.413-2 1.512-2 2.813v14.004h-10.013c.003-.043.013-.084.013-.128v-3.744c0-1.114-.864-2.021-1.956-2.11.109-1.597.492-4.855 1.85-7.57.155-.31.139-.678-.044-.973s-.503-.475-.85-.475c-.135 0-2.008.043-3.991 1.862-.541-2.385-1.279-4.223-2.209-5.462-.377-.504-1.223-.504-1.6 0-.93 1.239-1.667 3.077-2.209 5.462-1.983-1.819-3.856-1.862-3.991-1.862-.347 0-.668.18-.851.475s-.199.663-.044.973c1.358 2.715 1.741 5.973 1.85 7.57-1.091.089-1.955.996-1.955 2.11v3.744c0 .044.01.085.013.128h-51.741c2.27-1.651 3.728-4.174 3.728-7 0-5.533-1.68-8.135-5.799-8.979-1.201-.247-1.201-.75-1.201-1.021v-9c0-1.103-.897-2-2-2h-2c-1.103 0-2 .897-2 2v8.943c0 .249 0 .831-1.201 1.077-4.119.845-5.799 3.447-5.799 8.98 0 2.826 1.458 5.349 3.728 7h-3.728c-3.309 0-6 2.691-6 6v42c0 3.309 2.691 6 6 6v1.962c0 1.124.914 2.038 2.038 2.038h1.753l-3.774 19.812c-.011.063-.017.126-.017.188 0 1.822 1.178 3 3 3 1.38 0 2.716-.195 3.895-2.553.021-.042.039-.086.054-.131l6.771-20.316h86.559l6.772 20.316c.015.045.032.089.054.131 1.179 2.358 2.515 2.553 3.895 2.553 1.822 0 3-1.178 3-3 0-.062-.006-.125-.018-.188l-3.773-19.812h1.753c1.124 0 2.038-.914 2.038-2.038v-1.962c3.309 0 6-2.691 6-6v-42c0-3.309-2.691-6-6-6h-8v-14.004c0-1.301-.839-2.4-2-2.813v-2.183zm-28.083-22.602c.324-.745 1.297-1.398 2.083-1.398h16c.785 0 1.759.654 2.052 1.316l5.561 16.684h-31.226zm-8.917 19.602c0-.552.448-1 1-1h36c.552 0 1 .448 1 1s-.448 1-1 1h-36c-.552 0-1-.448-1-1zm15.996 7h6.008c.549 0 .996.447.996.996v3.004h-8v-3.004c0-.549.447-.996.996-.996zm-.996 6h8v3h-8zm-14.759-3.358c-.855 2.516-1.121 5.016-1.203 6.358h-2.754c.534-1.909 1.205-3.3 1.901-4.309.031-.038.055-.077.081-.119.677-.953 1.371-1.553 1.975-1.93zm-5.241-3.654c.562 1.233 1.021 2.885 1.362 4.86-.484.743-.948 1.617-1.362 2.677-.414-1.06-.878-1.934-1.362-2.677.341-1.975.8-3.627 1.362-4.86zm-3.264 5.587c.024.04.047.078.077.114.696 1.009 1.369 2.401 1.902 4.311h-2.754c-.083-1.342-.348-3.841-1.202-6.356.606.378 1.3.978 1.977 1.931zm-2.736 10.297v-3.744c0-.068.06-.128.128-.128h.872.001 9.998.001.872c.068 0 .128.06.128.128v3.744c0 .068-.06.128-.128.128h-11.744c-.068 0-.128-.06-.128-.128zm-68-6.872c0-5.15 1.54-6.475 4.201-7.021 1.778-.364 2.799-1.471 2.799-3.036v-8.943h2v9c0 .898.363 2.48 2.799 2.979 2.661.546 4.201 1.871 4.201 7.021 0 3.859-3.589 7-8 7s-8-3.141-8-7zm3.074 84.614c-.706 1.386-1.196 1.386-2.074 1.386-.681 0-.976-.266-.998-.913l3.826-20.087h5.785zm106.924.473c-.022.647-.317.913-.998.913-.878 0-1.368 0-2.074-1.386l-6.539-19.614h5.785zm-.036-22.087-109.962-.038v-1.962h109.987zm6.038-50v42c0 2.206-1.794 4-4 4h-114c-2.206 0-4-1.794-4-4v-42c0-2.206 1.794-4 4-4h114c2.206 0 4 1.794 4 4zm-22-6v-4h8v4zm6-17h-4v-2h4z"/></g></g></svg>