<svg id="Layer_1" enable-background="new 0 0 500 500" viewBox="0 0 500 500" xmlns="http://www.w3.org/2000/svg"><g><g><g><path d="m474.337 379.576-165.327 95.424v-190.904l165.327-95.423z" fill="#8f5f37"/></g><g><g><path d="m474.337 213.652-165.327 95.426v-7.912l165.327-95.425z" fill="#825732"/></g><g><path d="m474.337 243.423-165.327 95.425v-7.911l165.327-95.425z" fill="#825732"/></g><g><path d="m474.337 273.194-165.327 95.425v-7.911l165.327-95.425z" fill="#825732"/></g><g><path d="m474.337 302.965-165.327 95.425v-7.911l165.327-95.426z" fill="#825732"/></g><g><path d="m474.337 332.735-165.327 95.426v-7.913l165.327-95.424z" fill="#825732"/></g><g><path d="m474.337 362.506-165.327 95.426v-7.913l165.327-95.424z" fill="#825732"/></g></g></g><g><g><path d="m309.01 284.043-283.347-163.59 165.327-95.453 283.347 163.591z" fill="#b57846"/></g><g><g><path d="m452.702 201.081-283.345-163.59 6.85-3.955 283.347 163.589z" fill="#a16b3e"/></g><g><path d="m426.921 215.967-283.347-163.591 6.852-3.956 283.345 163.591z" fill="#a16b3e"/></g><g><path d="m401.138 230.851-283.346-163.589 6.851-3.955 283.347 163.589z" fill="#a16b3e"/></g><g><path d="m375.355 245.738-283.345-163.591 6.852-3.956 283.345 163.591z" fill="#a16b3e"/></g><g><path d="m349.574 260.622-283.347-163.589 6.852-3.956 283.346 163.59z" fill="#a16b3e"/></g><g><path d="m323.791 275.508-283.345-163.59 6.852-3.956 283.345 163.589z" fill="#a16b3e"/></g></g></g><g><g><g><path d="m309.01 475-283.347-163.589v-190.904l283.347 163.589z" fill="#a06a3e"/></g><g><g><path d="m309.01 309.078-283.347-163.59v-7.912l283.347 163.59z" fill="#8f5f37"/></g><g><path d="m309.01 338.848-283.347-163.59v-7.912l283.347 163.591z" fill="#8f5f37"/></g><g><path d="m309.01 368.619-283.347-163.591v-7.911l283.347 163.591z" fill="#8f5f37"/></g><g><path d="m309.01 398.39-283.347-163.591v-7.911l283.347 163.591z" fill="#8f5f37"/></g><g><path d="m309.01 428.161-283.347-163.591v-7.911l283.347 163.589z" fill="#8f5f37"/></g><g><path d="m309.01 457.932-283.347-163.591v-7.911l283.347 163.589z" fill="#8f5f37"/></g></g></g><g><path d="m216.654 345.069-98.637-56.949v-37.682l98.637 56.949z" fill="#8f5f37"/></g><g><path d="m209.453 335.281-84.235-48.632v-26.423l84.235 48.632z" fill="#ababab"/></g><g><g><path d="m169.592 296.861-35.313-20.389v-5.084l35.313 20.387z" fill="#8a8a8a"/></g><g><path d="m157.983 299.634-23.704-13.685v-5.086l23.704 13.686z" fill="#8a8a8a"/></g></g><g><g><path d="m200.652 313.453-20.706-11.955v-2.122l20.706 11.956z" fill="#8a8a8a"/></g><g><path d="m200.652 318.05-20.706-11.956v-2.121l20.706 11.955z" fill="#8a8a8a"/></g><g><path d="m200.652 322.647-20.706-11.956v-2.122l20.706 11.956z" fill="#8a8a8a"/></g></g></g></g></svg>