<svg id="Layer_1" enable-background="new 0 0 512 512" height="512" viewBox="0 0 512 512" width="512" xmlns="http://www.w3.org/2000/svg"><g><path d="m300.763 492.123 99.279-57.319v-310.664l-100.124 57.806z" fill="#cca476"/><path d="m116.066 74.825 184.697 106.634 99.279-57.319-184.697-106.635z" fill="#d6b691"/><path d="m296.655 494.495 4.108-2.372v-310.664l-4.108 2.371z" fill="#997b59"/><path d="m116.066 74.825-4.108 2.371 184.697 106.634 4.108-2.371-92.349-53.318z" fill="#e6d3bd"/><path d="m111.958 387.86 92.348 53.318v-310.666l-92.348-53.316z" fill="#e0c8ad"/><path d="m204.306 441.178 92.349 53.317v-310.665l-92.349-53.318z" fill="#e0c8ad"/><path d="m203.126 440.496 2.477 1.43v-310.664l-2.477-1.43z" fill="#a89682"/><path clip-rule="evenodd" d="m183.25 242.706-.002-.002-2.835 1.689v3.591l4.4-2.592v-.004c.225-.104.368-.355.368-.732 0-.704-.495-1.56-1.104-1.913-.331-.189-.626-.187-.827-.037z" fill="#393c41" fill-rule="evenodd"/><path clip-rule="evenodd" d="m183.25 270.388h-.002l-2.835 1.689v3.591l4.4-2.592v-.003c.225-.104.368-.356.368-.731 0-.705-.495-1.561-1.104-1.913-.331-.191-.626-.189-.827-.041z" fill="#393c41" fill-rule="evenodd"/><path d="m176.432 281.009c0 .333.218.666.659.92.88.508 2.305.508 3.185 0 .44-.254.66-.586.66-.92v-42.755h-4.503v42.755z" fill="#707378"/><path d="m180.275 237.335c-.879-.508-2.305-.508-3.185 0s-.88 1.331 0 1.838c.88.508 2.305.508 3.185 0 .88-.507.88-1.33 0-1.838z" fill="#393c41"/><path clip-rule="evenodd" d="m228.628 268.905-.001-.001-2.836 1.689v3.591l4.401-2.593v-.002c.224-.105.368-.357.368-.733 0-.704-.494-1.559-1.104-1.913-.332-.19-.625-.188-.828-.038z" fill="#393c41" fill-rule="evenodd"/><path clip-rule="evenodd" d="m228.628 296.589-.001-.001-2.836 1.689v3.591l4.401-2.592v-.003c.224-.105.368-.357.368-.733 0-.704-.494-1.56-1.104-1.912-.332-.191-.625-.189-.828-.039z" fill="#4c5056" fill-rule="evenodd"/><path d="m221.81 307.209c0 .332.219.665.66.92.88.507 2.306.507 3.185 0 .439-.255.659-.587.659-.92v-42.756h-4.504z" fill="#707378"/><path d="m225.655 263.534c-.879-.507-2.305-.507-3.185 0-.879.508-.879 1.331 0 1.839.88.508 2.306.508 3.185 0s.879-1.331 0-1.839z" fill="#393c41"/></g></svg>