<svg id="Layer_1" enable-background="new 0 0 512 512" height="512" viewBox="0 0 512 512" width="512" xmlns="http://www.w3.org/2000/svg" xmlns:xlink="http://www.w3.org/1999/xlink"><linearGradient id="lg1"><stop offset="0" stop-color="#e4e4e4"/><stop offset="1" stop-color="#b7b7b7"/></linearGradient><linearGradient id="SVGID_1_" gradientUnits="userSpaceOnUse" x1="72.152" x2="93.582" xlink:href="#lg1" y1="305.564" y2="305.564"/><linearGradient id="SVGID_2_" gradientUnits="userSpaceOnUse" x1="422.715" x2="439.808" xlink:href="#lg1" y1="226.71" y2="226.71"/><linearGradient id="SVGID_3_" gradientUnits="userSpaceOnUse" x1="189.654" x2="211.017" xlink:href="#lg1" y1="363.335" y2="363.335"/><linearGradient id="SVGID_4_" gradientUnits="userSpaceOnUse" x1="308.142" x2="329.572" xlink:href="#lg1" y1="172.403" y2="172.403"/><linearGradient id="lg2"><stop offset="0" stop-color="#e0e0e0"/><stop offset=".2799" stop-color="#dadada"/><stop offset=".5692" stop-color="#cecece"/><stop offset="1" stop-color="#ccc"/></linearGradient><linearGradient id="SVGID_5_" gradientUnits="userSpaceOnUse" x1="237.128" x2="250.276" xlink:href="#lg2" y1="313.575" y2="313.575"/><linearGradient id="SVGID_6_" gradientUnits="userSpaceOnUse" x1="237.128" x2="250.276" xlink:href="#lg2" y1="371.325" y2="371.325"/><g><g clip-rule="evenodd" fill-rule="evenodd"><path d="m89.269 217.169c-5.702-.836-11.4-1.703-17.091-2.609 0 55.863.001 176.821.001 176.842 0 0-.964 5.164 8.544 5.164s8.547-5.266 8.547-5.266c0-.024-.001-116.765-.001-174.131z" fill="url(#SVGID_1_)"/><path d="m422.715 136.675c0 37.742.001 187.493.001 187.515 0 0 1.666 3.36 8.544 3.36 6.879 0 8.548-3.461 8.548-3.461 0-.028-.002-160.979-.003-198.219-5.62 3.724-11.308 7.345-17.09 10.805z" fill="url(#SVGID_2_)"/><path d="m195.379 266.251c-1.92-.71-3.815-1.485-5.725-2.219 0 37.702.001 194.518.002 194.541 0 0 .38 4.066 8.545 4.066s8.545-4.167 8.545-4.167c0-.026-.002-150.334-.003-188.075-3.812-1.397-7.619-2.762-11.364-4.146z" fill="url(#SVGID_3_)"/><path d="m325.259 84.621c-5.697-.044-11.394-.088-17.091-.133 0 58.11.001 170.644.001 170.665 0 0-.965 5.163 8.544 5.163 9.508 0 8.547-5.266 8.547-5.266.001-.022 0-111.899-.001-170.429z" fill="url(#SVGID_4_)"/></g><path d="m185.09 291.903-.261 17.948c1.655.122 3.387-.184 4.658-.918l274.948-158.741c.995-.575 1.536-1.312 1.622-2.063.017-.148.01-18.188.01-18.188z" fill="#f9ab5e"/><path d="m464.434 127.687-135.663-78.326-282.84 163.298 135.664 78.325c2.179 1.259 5.712 1.259 7.892 0l274.948-158.741c2.179-1.258 2.179-3.298-.001-4.556z" fill="#f9b46d"/><g><g><path d="m188.901 367.864 96.218-55.552v-56.734l-96.218 55.553z" fill="#f9a35e"/><path d="m186.73 371.623 100.558-58.058v-61.746l-100.558 58.058zm4.341-59.24 91.878-53.046v51.722l-91.878 53.046z" fill="#da7a3c"/></g><g><path d="m188.901 429.611 96.218-55.553v-56.735l-96.218 55.552z" fill="#f9a35e"/><path d="m186.73 433.369 100.558-58.058v-61.746l-100.558 58.058zm4.341-59.241 91.878-53.046v51.723l-91.878 53.046z" fill="#da7a3c"/></g></g><path d="m45.931 230.608.025.013-.025-.013v122.192l140.799 80.569v-123.492-17.949l-140.799-79.269z" fill="#ef9757"/><path clip-rule="evenodd" d="m242.454 306.448c-.556-.414-1.369-.418-2.28.106-1.681.973-3.045 3.333-3.045 5.275 0 1.038.395 1.732 1.016 2.017v.012l12.133 7.145v-9.901l-7.818-4.658z" fill="url(#SVGID_5_)" fill-rule="evenodd"/><path d="m247.916 306.899c-3.438 1.984-6.224 6.811-6.224 10.78 0 1.891.632 3.247 1.667 3.934.077.051 4.216 2.377 4.216 2.377s-1.338-1.749.34-2.717c3.437-1.985 6.224-6.812 6.224-10.781 0-1.831 2.302-1.653 2.302-1.653s-4.038-2.326-4.125-2.376c-1.124-.65-2.681-.556-4.4.436z" fill="#303031"/><path d="m251.696 309.039c-3.438 1.984-6.225 6.811-6.225 10.78 0 3.97 2.787 5.579 6.225 3.595 3.437-1.985 6.224-6.812 6.224-10.782 0-3.969-2.787-5.578-6.224-3.593z" fill="#404040"/><path clip-rule="evenodd" d="m242.454 364.197c-.556-.414-1.369-.419-2.28.106-1.681.973-3.045 3.333-3.045 5.275 0 1.038.395 1.732 1.016 2.017v.012l12.133 7.145v-9.901l-7.818-4.657z" fill="url(#SVGID_6_)" fill-rule="evenodd"/><path d="m247.916 364.649c-3.438 1.985-6.224 6.811-6.224 10.78 0 1.892.632 3.248 1.667 3.934.077.051 4.216 2.377 4.216 2.377s-1.338-1.748.34-2.717c3.437-1.985 6.224-6.812 6.224-10.781 0-1.831 2.302-1.654 2.302-1.654s-4.038-2.326-4.125-2.376c-1.124-.65-2.681-.555-4.4.437z" fill="#303031"/><path d="m251.696 366.789c-3.438 1.985-6.225 6.811-6.225 10.78 0 3.97 2.787 5.579 6.225 3.594 3.437-1.984 6.224-6.812 6.224-10.781s-2.787-5.578-6.224-3.593z" fill="#404040"/></g></svg>