<svg id="Layer_1" enable-background="new 0 0 500 500" viewBox="0 0 500 500" xmlns="http://www.w3.org/2000/svg"><g><g><g><path d="m331.211 402.547c-3.177 16.402-7.557 31.086-13.481 41.475-.086.172-.172.344-.258.516-.602 1.03-1.203 2.061-1.889 3.006h-.086c-3.693 5.409-9.103 10.39-16.659 14.768-29.281 16.918-76.768 16.918-106.048 0-7.557-4.378-13.224-9.359-16.83-14.768-.43-.602-.773-1.203-1.203-1.891-6.355-10.39-10.991-25.675-14.34-42.935 1.373 3.006 2.834 5.841 4.379 8.331.516.771.859 1.459 1.373 2.147 4.121 6.18 10.562 11.849 19.234 16.914 33.319 19.237 87.501 19.237 120.819 0 8.673-4.979 14.855-10.734 19.062-16.914h.086c.773-1.031 1.46-2.235 2.147-3.35.086-.258.172-.43.258-.601 1.204-2.061 2.32-4.293 3.436-6.698z" fill="#7f4d31"/></g></g><g><g><path d="m331.211 402.547c-1.116 2.405-2.233 4.637-3.435 6.698-.086.172-.172.344-.258.601-.687 1.115-1.373 2.319-2.147 3.35h-.086c-4.207 6.18-10.39 11.935-19.062 16.914-33.318 19.237-87.5 19.237-120.819 0-8.673-5.065-15.113-10.734-19.234-16.914-.515-.688-.858-1.375-1.373-2.147-1.545-2.491-3.006-5.325-4.379-8.331-10.046-52.121-8.329-121.504-8.329-121.504l93.683 42.161 93.769-42.161c0 .001 1.718 69.212-8.33 121.333z" fill="#996b3e"/></g></g><g><g><g><ellipse cx="245.796" cy="281.234" fill="#c99666" rx="93.739" ry="54.12"/></g></g><g><g><path d="m317.387 289.458c-.602 1.889-1.46 3.778-2.576 5.581-3.52 5.841-9.275 11.336-17.346 15.973-28.594 16.486-74.792 16.486-103.301 0-8.071-4.637-13.824-10.132-17.346-15.973-1.115-1.803-1.975-3.691-2.575-5.581-4.636-13.31 2.061-27.649 19.921-38.039 28.509-16.489 74.707-16.489 103.301 0 17.861 10.389 24.559 24.729 19.922 38.039z" fill="#996b3e"/></g></g><g><g><path d="m317.387 289.458c-.602 1.889-1.46 3.778-2.576 5.581-3.52 5.841-9.275 11.336-17.346 15.973-28.594 16.486-74.792 16.486-103.301 0-8.071-4.637-13.824-10.132-17.346-15.973-1.115-1.803-1.975-3.691-2.575-5.581 2.575-7.985 9.274-15.543 19.921-21.725 28.509-16.486 74.707-16.486 103.301 0 10.647 6.182 17.345 13.74 19.922 21.725z" fill="#5a4139"/></g></g><g><g><path d="m176.818 295.038c3.436-5.838 9.189-11.333 17.346-16.056 28.509-16.489 74.707-16.489 103.301 0 8.157 4.723 13.912 10.218 17.346 16.056-3.52 5.841-9.275 11.336-17.346 15.973-28.594 16.486-74.792 16.486-103.301 0-8.072-4.637-13.824-10.132-17.346-15.973z" fill="#886d62"/></g></g></g><g><g><g><path d="m245.815 298.653c-.344 0-.688-.042-1.023-.126-1.116-.269-111.798-28.327-100.905-108.352.319-2.356 2.516-4.075 4.83-3.673 2.348.319 3.992 2.482 3.673 4.83-9.266 68.083 81.559 95.329 93.232 98.532 11.782-4.36 106.464-41.878 99.253-116.435-.227-2.356 1.501-4.452 3.865-4.687 2.172-.109 4.461 1.501 4.688 3.866 8.293 85.861-105.089 125.424-106.23 125.819-.452.15-.913.226-1.383.226z" fill="#66b94b"/></g></g></g><g><g><g><g><path d="m392.22 144.071c-8.726 16.148-29.681 28.573-42.506 27.044-12.902-1.479-11.677-13.372-1.377-26.346 10.43-12.375 36.366-25.336 36.358-25.945-.319.111 16.079 9.268 7.525 25.247z" fill="#66b94b"/></g></g><g><g><path d="m373.097 145.646c-7.984 12.413-17.944 21.711-19.797 21.531-1.916-.187 5.127-9.421 13.298-21.438 8.255-11.958 16.046-22.513 16.065-22.531-.06-.044-1.549 10.02-9.566 22.438z" fill="#66b94b"/></g></g></g><g><g><g><path d="m333.299 150.461c16.314 2.918 25.107 11.006 16.416 20.654-8.589 9.651-32.52 14.205-49.76 7.882-16.987-6.307-10.776-24.026-11.08-23.9.4.462 28.415-7 44.424-4.636z" fill="#66b94b"/></g></g><g><g><path d="m320.258 163.279c14.089 3.592 25.482 5.853 24.163 7.259-1.267 1.366-14.895.988-29.094-3.025-14.232-3.991-22.019-10.556-22.028-10.48.024.006 12.852 2.75 26.959 6.246z" fill="#66b94b"/></g></g></g><g><g><g><path d="m301.104 187.865c15.901-9.986 35.896-17.724 48.611-16.751 12.591.934 14.146 12.901-.701 26.728-14.898 14.686-55.23 16.679-55.031 15.894-.349-.09-8.975-15.92 7.121-25.871z" fill="#66b94b"/></g></g><g><g><path d="m320.846 193.332c13.033-9.716 23.236-18.564 25.15-18.34 1.863.154-5.155 9.627-18.058 19.826-12.839 10.292-28.778 16.078-28.744 16.033-.046-.057 8.668-7.803 21.652-17.519z" fill="#66b94b"/></g></g></g><g><g><g><path d="m367.941 190.678c-20.286-.53-27.039-10.522-18.227-19.563 8.88-9.151 28.978-16.597 47.518-19.639 18.651-3.192 22.672 14.379 22.47 14.671.673.444-30.869 25.675-51.761 24.531z" fill="#66b94b"/></g></g><g><g><path d="m381.729 174.455c-16.424.904-27.946-1.554-26.66-2.898 1.295-1.425 14.794-1.565 30.99-2.912 16.164-1.309 27.828-1.283 27.827-1.213.058.017-15.72 6.235-32.157 7.023z" fill="#66b94b"/></g></g></g></g><g><g><g><g><path d="m195.21 176.658c-13.112 12.844-36.805 18.515-48.603 13.26-11.887-5.23-7.2-16.228 6.477-25.574 13.624-8.736 42.232-13.446 42.405-14.03-.338.012 12.618 13.611-.279 26.344z" fill="#66b94b"/></g></g><g><g><path d="m176.476 172.506c-11.299 9.496-23.563 15.432-25.28 14.711-1.774-.745 7.685-7.483 19.045-16.545 11.423-8.981 21.987-16.76 22.011-16.771-.046-.059-4.444 9.114-15.776 18.605z" fill="#66b94b"/></g></g></g><g><g><g><path d="m137.035 165.334c14.721 7.613 20.728 17.94 9.572 24.585-11.059 6.679-35.267 3.95-49.865-7.189-14.362-11.049-3.188-26.138-3.515-26.108.245.559 29.214 1.718 43.808 8.712z" fill="#66b94b"/></g></g><g><g><path d="m120.786 173.721c12.396 7.599 22.61 13.129 20.935 14.081-1.615.93-14.521-3.462-26.898-11.495-12.415-8.022-17.911-16.597-17.942-16.527.021.013 11.463 6.428 23.905 13.941z" fill="#66b94b"/></g></g></g><g><g><g><path d="m95.216 191.54c18.143-4.836 39.532-6.313 51.39-1.622 11.751 4.617 9.696 16.508-8.576 25.325-18.576 9.622-57.693-.404-57.27-1.095-.305-.189-3.863-17.863 14.456-22.608z" fill="#66b94b"/></g></g><g><g><path d="m112.458 202.603c15.324-5.426 27.687-10.861 29.45-10.08 1.734.697-7.772 7.67-23.115 13.597-15.309 6.034-32.246 6.846-32.2 6.813-.028-.068 10.588-4.89 25.865-10.33z" fill="#66b94b"/></g></g></g><g><g><g><path d="m158.231 213.998c-19.222-6.506-22.717-18.049-11.624-24.079 11.189-6.115 32.59-7.283 51.2-4.705 18.761 2.468 17.404 20.442 17.126 20.662.51.622-37.084 15.394-56.702 8.122z" fill="#66b94b"/></g></g><g><g><path d="m176.201 202.579c-15.956-3.995-26.236-9.75-24.61-10.654 1.659-.979 14.595 2.881 30.465 6.385 15.827 3.531 26.961 7.005 26.941 7.072.049.034-16.862 1.307-32.796-2.803z" fill="#66b94b"/></g></g></g></g><g><g><g><path d="m245.815 298.653c-.268 0-.536-.025-.805-.076-1.4-.268-2.574-1.208-3.136-2.516-2.457-5.694-59.949-140.259-37.752-205.097.755-2.231 3.212-3.446 5.451-2.666 2.239.763 3.438 3.203 2.667 5.451-18.515 54.105 23.832 165.206 34.943 192.677 14.473-16.981 58.842-76.46 45.106-153.315-.419-2.332 1.14-4.562 3.472-4.981 2.323-.394 4.562 1.132 4.981 3.472 17.056 95.437-51.195 165.097-51.89 165.793-.815.813-1.905 1.258-3.037 1.258z" fill="#6fd450"/></g></g></g><g><g><g><path d="m245.823 298.51c-.26 0-.511-.025-.771-.067-2.331-.419-3.882-2.65-3.463-4.989.252-1.409 25.207-142.514 5.493-233.675-.503-2.315.964-4.604 3.287-5.099 2.306-.486 4.612.964 5.099 3.287 20.083 92.83-5.165 235.579-5.425 237.012-.379 2.072-2.182 3.531-4.22 3.531z" fill="#7dea5d"/></g></g></g><g><g><g><g><path d="m344.311 138.228c-16.78 7.437-40.958 4.45-50.168-4.605-9.302-9.062-1.059-17.721 15.026-21.685 15.821-3.41 44.267 2.2 44.633 1.713-.322-.106 7.05 17.169-9.491 24.577z" fill="#6fd450"/></g></g><g><g><path d="m328.219 127.777c-13.908 4.936-27.475 6.2-28.832 4.924-1.401-1.319 9.819-4.317 23.634-8.826 13.845-4.411 26.465-7.996 26.491-7.999-.021-.07-7.355 6.981-21.293 11.901z" fill="#66b94b"/></g></g></g><g><g><g><path d="m293.789 107.243c11.122 12.287 13.131 24.064.354 26.38-12.698 2.382-34.416-8.653-44.187-24.201-9.581-15.38 6.17-25.599 5.853-25.686.034.612 26.761 11.845 37.98 23.507z" fill="#6fd450"/></g></g><g><g><path d="m275.632 109.407c8.95 11.459 16.579 20.217 14.676 20.522-1.839.305-12.388-8.329-21.167-20.189-8.818-11.862-10.962-21.819-11.016-21.765.015.02 8.485 10.037 17.507 21.432z" fill="#66b94b"/></g></g></g><g><g><g><path d="m245.44 117.141c18.688 1.826 39.238 7.935 48.702 16.482 9.389 8.44 3.3 18.859-16.903 20.717-20.77 2.505-53.895-20.588-53.257-21.087-.221-.285 2.638-18.085 21.458-16.112z" fill="#6fd450"/></g></g><g><g><path d="m257.715 133.542c16.254.286 29.737-.474 31.115.874 1.379 1.261-9.967 4.463-26.413 4.639-16.452.289-32.601-4.883-32.547-4.898-.002-.073 11.629-.871 27.845-.615z" fill="#66b94b"/></g></g></g><g><g><g><path d="m296.596 160.249c-15.725-12.827-14.955-24.863-2.453-26.626 12.623-1.808 33.076 4.595 49.605 13.528 16.708 8.884 9.141 25.244 8.803 25.351.259.764-40.128 1.43-55.955-12.253z" fill="#6fd450"/></g></g><g><g><path d="m317.427 155.849c-13.546-9.331-21.158-18.323-19.319-18.6 1.896-.335 12.661 7.812 26.298 16.652 13.587 8.851 22.799 16.006 22.756 16.062.035.048-16.25-4.684-29.735-14.114z" fill="#66b94b"/></g></g></g></g><g><g><g><g><path d="m240.087 252.568c-16.781 7.437-40.959 4.45-50.168-4.605-9.303-9.062-1.059-17.721 15.025-21.685 15.821-3.41 44.267 2.2 44.633 1.713-.321-.107 7.05 17.168-9.49 24.577z" fill="#6fd450"/></g></g><g><g><path d="m223.995 242.117c-13.909 4.936-27.476 6.2-28.832 4.924-1.401-1.32 9.818-4.318 23.633-8.826 13.845-4.411 26.465-7.996 26.492-7.998-.022-.071-7.355 6.98-21.293 11.9z" fill="#66b94b"/></g></g></g><g><g><g><path d="m189.564 221.583c11.122 12.287 13.131 24.064.355 26.38-12.698 2.382-34.416-8.653-44.187-24.2-9.581-15.38 6.17-25.599 5.853-25.686.033.61 26.761 11.843 37.979 23.506z" fill="#6fd450"/></g></g><g><g><path d="m171.407 223.747c8.95 11.459 16.579 20.217 14.676 20.522-1.838.306-12.388-8.329-21.167-20.188-8.818-11.862-10.962-21.819-11.016-21.765.015.019 8.485 10.036 17.507 21.431z" fill="#66b94b"/></g></g></g><g><g><g><path d="m141.216 231.48c18.688 1.826 39.239 7.935 48.703 16.482 9.389 8.441 3.299 18.859-16.904 20.717-20.77 2.505-53.896-20.588-53.257-21.087-.221-.284 2.637-18.084 21.458-16.112z" fill="#6fd450"/></g></g><g><g><path d="m153.49 247.882c16.254.286 29.737-.474 31.115.874 1.38 1.26-9.967 4.462-26.413 4.639-16.452.288-32.601-4.884-32.547-4.899-.002-.072 11.63-.87 27.845-.614z" fill="#66b94b"/></g></g></g><g><g><g><path d="m192.371 274.588c-15.724-12.827-14.955-24.863-2.452-26.626 12.622-1.808 33.076 4.595 49.604 13.529 16.708 8.884 9.141 25.243 8.803 25.351.259.764-40.127 1.43-55.955-12.254z" fill="#6fd450"/></g></g><g><g><path d="m213.202 270.188c-13.546-9.331-21.158-18.323-19.319-18.599 1.897-.336 12.661 7.811 26.298 16.652 13.588 8.852 22.799 16.006 22.756 16.062.035.048-16.25-4.684-29.735-14.115z" fill="#66b94b"/></g></g></g></g><g><g><g><g><path d="m247.807 57.063c-8.727 16.148-29.681 28.574-42.505 27.044-12.903-1.479-11.678-13.371-1.377-26.346 10.43-12.375 36.366-25.336 36.358-25.945-.321.112 16.077 9.269 7.524 25.247z" fill="#6fd450"/></g></g><g><g><path d="m228.684 58.639c-7.984 12.413-17.944 21.71-19.797 21.531-1.916-.187 5.127-9.421 13.298-21.438 8.255-11.958 16.046-22.514 16.065-22.532-.061-.043-1.549 10.021-9.566 22.439z" fill="#66b94b"/></g></g></g><g><g><g><path d="m188.885 63.454c16.314 2.918 25.107 11.006 16.416 20.653-8.589 9.652-32.52 14.205-49.76 7.882-16.987-6.307-10.776-24.026-11.08-23.9.4.463 28.415-7 44.424-4.635z" fill="#6fd450"/></g></g><g><g><path d="m175.844 76.272c14.089 3.591 25.482 5.853 24.163 7.258-1.267 1.366-14.895.988-29.094-3.024-14.232-3.991-22.019-10.556-22.028-10.48.025.006 12.852 2.75 26.959 6.246z" fill="#66b94b"/></g></g></g><g><g><g><path d="m156.69 100.857c15.901-9.986 35.896-17.723 48.611-16.751 12.59.935 14.145 12.901-.701 26.729-14.899 14.686-55.23 16.679-55.031 15.894-.348-.09-8.975-15.92 7.121-25.872z" fill="#6fd450"/></g></g><g><g><path d="m176.432 106.325c13.034-9.716 23.236-18.565 25.15-18.34 1.863.154-5.155 9.627-18.058 19.826-12.839 10.292-28.778 16.077-28.744 16.033-.046-.057 8.668-7.803 21.652-17.519z" fill="#66b94b"/></g></g></g><g><g><g><path d="m223.528 103.671c-20.286-.53-27.039-10.522-18.227-19.564 8.88-9.151 28.977-16.596 47.518-19.639 18.651-3.192 22.672 14.379 22.47 14.671.673.445-30.871 25.675-51.761 24.532z" fill="#6fd450"/></g></g><g><g><path d="m237.316 87.448c-16.424.904-27.946-1.554-26.66-2.897 1.295-1.425 14.794-1.565 30.99-2.912 16.164-1.309 27.827-1.283 27.827-1.213.058.016-15.721 6.234-32.157 7.022z" fill="#66b94b"/></g></g></g></g><g><g><g><g><path d="m308.091 69.179c-17.364 6.876-39.701 5.904-49.891-2.172-10.191-8.076-4.375-20.197 12.989-27.073 17.363-6.876 49.891 2.172 49.891 2.172s4.375 20.197-12.989 27.073z" fill="#7dea5d"/></g></g><g><g><path d="m292.367 56.718c-14.576 5.772-27.614 9.484-29.12 8.29s9.089-6.84 23.665-12.613c14.576-5.772 29.12-8.29 29.12-8.29s-9.089 6.841-23.665 12.613z" fill="#6fd450"/></g></g></g><g><g><g><path d="m253.585 37.335c14.637 11.6 16.703 24.884 4.614 29.671s-33.754-.735-48.392-12.335c-14.636-11.6-4.614-29.671-4.614-29.671s33.755.736 48.392 12.335z" fill="#7dea5d"/></g></g><g><g><path d="m234.932 44.722c12.288 9.737 20.8 18.205 19.013 18.913-1.787.707-13.196-6.613-25.483-16.35s-19.013-18.912-19.013-18.912 13.196 6.612 25.483 16.349z" fill="#6fd450"/></g></g></g><g><g><g><path d="m208.308 64.834c17.364-6.876 39.701-5.904 49.891 2.172s4.375 20.197-12.988 27.073c-17.364 6.876-49.891-2.172-49.891-2.172s-4.376-20.197 12.988-27.073z" fill="#7dea5d"/></g></g><g><g><path d="m224.032 77.296c14.576-5.772 27.613-9.484 29.12-8.29 1.506 1.194-9.089 6.84-23.665 12.613-14.576 5.772-29.12 8.29-29.12 8.29s9.089-6.841 23.665-12.613z" fill="#6fd450"/></g></g></g><g><g><g><path d="m262.814 96.678c-14.637-11.6-16.703-24.884-4.615-29.671 12.089-4.787 33.754.735 48.392 12.335 14.637 11.6 4.614 29.671 4.614 29.671s-33.754-.735-48.391-12.335z" fill="#7dea5d"/></g></g><g><g><path d="m281.467 89.291c-12.287-9.737-20.799-18.205-19.013-18.913 1.787-.707 13.196 6.613 25.484 16.35 12.287 9.737 19.012 18.912 19.012 18.912s-13.195-6.611-25.483-16.349z" fill="#6fd450"/></g></g></g></g><g><g><g><g><path d="m242.319 107.6c-6.564 17.484-22.284 33.383-35.111 35.511s-17.904-10.32-11.34-27.804 35.112-35.511 35.112-35.511 17.904 10.32 11.339 27.804z" fill="#7dea5d"/></g></g><g><g><path d="m222.527 110.884c-5.511 14.677-11.515 26.83-13.411 27.145-1.896.314 1.034-11.329 6.545-26.005 5.511-14.677 13.411-27.145 13.411-27.145s-1.034 11.328-6.545 26.005z" fill="#6fd450"/></g></g></g><g><g><g><path d="m182.123 126.606c18.424-3.057 29.655 4.333 25.085 16.505-4.57 12.173-23.212 24.518-41.636 27.575s-25.085-16.505-25.085-16.505 23.212-24.518 41.636-27.575z" fill="#7dea5d"/></g></g><g><g><path d="m175.071 145.388c15.466-2.566 27.457-3.188 26.781-1.389-.675 1.799-13.761 5.338-29.227 7.904-15.467 2.566-26.782 1.389-26.782 1.389s13.761-5.337 29.228-7.904z" fill="#6fd450"/></g></g></g><g><g><g><path d="m172.096 178.622c6.564-17.484 22.285-33.383 35.112-35.511s17.904 10.32 11.339 27.804c-6.564 17.484-35.112 35.511-35.112 35.511s-17.904-10.32-11.339-27.804z" fill="#7dea5d"/></g></g><g><g><path d="m191.889 175.338c5.511-14.677 11.515-26.83 13.411-27.145 1.896-.314-1.034 11.328-6.545 26.005s-13.411 27.145-13.411 27.145 1.034-11.328 6.545-26.005z" fill="#6fd450"/></g></g></g><g><g><g><path d="m232.293 159.616c-18.424 3.057-29.655-4.333-25.085-16.505 4.57-12.173 23.211-24.518 41.635-27.575s25.085 16.505 25.085 16.505-23.211 24.518-41.635 27.575z" fill="#7dea5d"/></g></g><g><g><path d="m239.345 140.833c-15.466 2.566-27.457 3.188-26.781 1.389s13.761-5.338 29.227-7.904c15.467-2.566 26.782-1.389 26.782-1.389s-13.762 5.338-29.228 7.904z" fill="#6fd450"/></g></g></g></g><g><g><g><g><path d="m293.788 169.026c-10.063 15.733-28.751 28.007-41.74 27.416s-15.361-13.824-5.298-29.556c10.063-15.733 41.74-27.416 41.74-27.416s15.361 13.823 5.298 29.556z" fill="#7dea5d"/></g></g><g><g><path d="m273.746 168.114c-8.448 13.207-16.852 23.842-18.772 23.755-1.92-.088 3.372-10.865 11.82-24.071 8.448-13.207 18.772-23.755 18.772-23.755s-3.373 10.865-11.82 24.071z" fill="#6fd450"/></g></g></g><g><g><g><path d="m230.953 175.073c18.657.848 28.102 10.416 21.096 21.369s-27.81 19.144-46.467 18.295-21.096-21.369-21.096-21.369 27.81-19.144 46.467-18.295z" fill="#7dea5d"/></g></g><g><g><path d="m220.142 191.974c15.661.713 27.518 2.603 26.483 4.222s-14.571 2.353-30.233 1.641c-15.662-.713-26.483-4.222-26.483-4.222s14.571-2.354 30.233-1.641z" fill="#6fd450"/></g></g></g><g><g><g><path d="m210.308 223.859c10.063-15.733 28.751-28.007 41.74-27.416s15.361 13.824 5.297 29.556c-10.063 15.732-41.74 27.416-41.74 27.416s-15.36-13.824-5.297-29.556z" fill="#7dea5d"/></g></g><g><g><path d="m230.351 224.771c8.448-13.207 16.852-23.842 18.772-23.755 1.92.088-3.372 10.865-11.82 24.071-8.448 13.207-18.772 23.755-18.772 23.755s3.372-10.865 11.82-24.071z" fill="#6fd450"/></g></g></g><g><g><g><path d="m273.144 217.811c-18.657-.848-28.102-10.416-21.096-21.369s27.81-19.144 46.467-18.295 21.096 21.369 21.096 21.369-27.81 19.144-46.467 18.295z" fill="#7dea5d"/></g></g><g><g><path d="m283.954 200.911c-15.661-.713-27.518-2.603-26.483-4.222s14.571-2.353 30.233-1.641c15.662.713 26.483 4.222 26.483 4.222s-14.571 2.353-30.233 1.641z" fill="#6fd450"/></g></g></g></g><g><g><g><g><path d="m368.536 185.339c-7.676 17.025-24.387 31.879-37.325 33.177-12.937 1.298-17.202-11.451-9.526-28.476 7.677-17.025 37.325-33.177 37.325-33.177s17.203 11.451 9.526 28.476z" fill="#7dea5d"/></g></g><g><g><path d="m348.573 187.343c-6.444 14.292-13.218 26.033-15.13 26.225-1.913.192 1.761-11.238 8.205-25.53s15.131-26.225 15.131-26.225-1.762 11.238-8.206 25.53z" fill="#6fd450"/></g></g></g><g><g><g><path d="m307.241 200.431c18.583-1.865 29.315 6.233 23.97 18.086-5.344 11.853-24.741 22.973-43.324 24.838s-23.97-18.085-23.97-18.085 24.741-22.974 43.324-24.839z" fill="#7dea5d"/></g></g><g><g><path d="m298.995 218.721c15.6-1.565 27.605-1.414 26.815.338s-14.076 4.441-29.676 6.006c-15.6 1.566-26.815-.338-26.815-.338s14.076-4.441 29.676-6.006z" fill="#6fd450"/></g></g></g><g><g><g><path d="m293.887 251.694c7.676-17.025 24.387-31.879 37.325-33.177s17.203 11.451 9.526 28.476-37.325 33.177-37.325 33.177-17.203-11.451-9.526-28.476z" fill="#7dea5d"/></g></g><g><g><path d="m313.85 249.691c6.444-14.292 13.218-26.033 15.13-26.225 1.913-.192-1.762 11.238-8.206 25.53s-15.13 26.225-15.13 26.225 1.762-11.239 8.206-25.53z" fill="#6fd450"/></g></g></g><g><g><g><path d="m355.182 236.602c-18.583 1.865-29.315-6.233-23.971-18.085 5.345-11.853 24.741-22.974 43.325-24.838 18.583-1.865 23.97 18.085 23.97 18.085s-24.741 22.974-43.324 24.838z" fill="#7dea5d"/></g></g><g><g><path d="m363.429 218.313c-15.6 1.566-27.605 1.414-26.815-.338s14.077-4.441 29.676-6.006 26.815.338 26.815.338-14.077 4.441-29.676 6.006z" fill="#6fd450"/></g></g></g></g></g></svg>