<svg id="Capa_1" enable-background="new 0 0 512 512" height="512" viewBox="0 0 512 512" width="512" xmlns="http://www.w3.org/2000/svg" xmlns:xlink="http://www.w3.org/1999/xlink"><linearGradient id="SVGID_1_" gradientTransform="matrix(-.866 -.5 -1 .577 743.926 228.694)" gradientUnits="userSpaceOnUse" x1="251.818" x2="251.818" y1="459.595" y2="94.385"><stop offset="0" stop-color="#0072bc"/><stop offset="1" stop-color="#59acf9"/></linearGradient><linearGradient id="lg1"><stop offset="0" stop-color="#59acf9"/><stop offset="1" stop-color="#79d3fe"/></linearGradient><linearGradient id="SVGID_00000121270527737310766370000003892715143971746484_" gradientTransform="matrix(-.866 -.5 -1 .577 743.926 228.694)" gradientUnits="userSpaceOnUse" x1="188.232" x2="188.232" xlink:href="#lg1" y1="459.593" y2="94.385"/><linearGradient id="SVGID_00000075876699194291845100000002514262169833839749_" gradientTransform="matrix(-.866 -.5 -1 .577 743.926 228.694)" gradientUnits="userSpaceOnUse" x1="315.342" x2="315.342" xlink:href="#lg1" y1="459.595" y2="94.387"/><g><path d="m333.089 114.017c56.215 32.455 112.429 64.911 168.644 97.367 8.032 4.827 7.06 12.919-1.483 18.731-24.75 16.744-48.324 33.615-76.824 48.349-22.641 11.705-46.939 22.195-68.488 34.636-21.538 12.435-39.783 26.446-59.992 39.541-25.436 16.483-54.764 30.076-83.742 44.354-10.066 4.932-24.082 5.493-32.443.856-56.214-32.456-112.429-64.911-168.644-97.367-8.113-4.684-6.951-12.783 3.062-17.819 28.979-14.278 58.306-27.872 83.743-44.354 20.209-13.095 38.454-27.107 59.992-39.541 21.549-12.442 45.847-22.931 68.488-34.636 28.499-14.734 52.074-31.605 76.824-48.349 8.723-5.782 22.75-6.453 30.863-1.768z" fill="url(#SVGID_1_)"/><g><path d="m454.617 184.181c11.889 6.864 23.778 13.728 35.667 20.592-29.481 18.463-55.361 38.696-87.478 55.751-24.183 12.842-50.767 24.012-74.055 37.457-23.279 13.44-42.704 28.762-64.876 42.755-29.442 18.581-64.599 33.493-96.563 50.506-11.889-6.864-23.778-13.728-35.667-20.592 31.963-17.012 67.121-31.924 96.563-50.505 22.172-13.993 41.597-29.315 64.876-42.755 23.287-13.445 49.872-24.615 74.055-37.457 32.117-17.057 57.997-37.289 87.478-55.752z" fill="url(#SVGID_00000121270527737310766370000003892715143971746484_)"/><path d="m344.538 120.627c11.889 6.864 23.778 13.728 35.667 20.592-29.481 18.463-55.361 38.696-87.478 55.75-24.183 12.842-50.767 24.012-74.055 37.457-23.279 13.44-42.704 28.762-64.876 42.755-29.442 18.581-64.599 33.493-96.563 50.505-11.889-6.864-23.778-13.728-35.667-20.592 31.963-17.012 67.121-31.924 96.563-50.506 22.172-13.993 41.597-29.315 64.876-42.755 23.288-13.445 49.872-24.615 74.055-37.456 32.117-17.055 57.997-37.287 87.478-55.75z" fill="url(#SVGID_00000075876699194291845100000002514262169833839749_)"/></g><g><path d="m193.134 405.805c-6.204.001-12.109-1.257-16.681-3.792l-168.715-97.407c-5.052-2.917-7.871-7.329-7.733-12.105.159-5.504 4.182-10.638 11.037-14.086 4.429-2.182 8.83-4.331 13.224-6.477 23.955-11.695 48.725-23.789 70.069-37.619 7.443-4.823 14.765-9.874 21.846-14.757 12.116-8.356 24.645-16.997 38.354-24.912 13.497-7.793 28.222-14.906 42.462-21.785 8.681-4.194 17.658-8.53 26.22-12.957 24.123-12.471 44.295-26.227 65.65-40.791 3.552-2.422 7.11-4.848 10.693-7.272 10.101-6.695 26.193-7.556 35.909-1.948l168.644 97.366c4.974 2.989 7.748 7.242 7.882 12.02.153 5.44-3.067 10.685-9.068 14.767-3.583 2.424-7.132 4.844-10.673 7.259-20.651 14.083-42.006 28.646-66.642 41.383-8.677 4.485-17.713 8.851-26.452 13.072-14.085 6.804-28.649 13.84-41.843 21.457-13.377 7.724-25.746 16.255-37.708 24.504-7.137 4.922-14.516 10.012-22.075 14.91-21.826 14.143-46.859 26.365-71.068 38.186-4.384 2.14-8.775 4.284-13.158 6.444-6.16 3.017-13.348 4.54-20.174 4.54zm126.764-290.131c-5.35 0-11 1.399-15.042 4.078-3.535 2.392-7.084 4.811-10.626 7.227-20.651 14.083-42.006 28.646-66.642 41.383-8.677 4.485-17.713 8.851-26.452 13.072-14.085 6.804-28.649 13.84-41.843 21.457-13.378 7.724-25.746 16.255-37.708 24.505-7.137 4.922-14.516 10.012-22.075 14.909-21.826 14.143-46.859 26.365-71.068 38.186-4.384 2.14-8.775 4.285-13.158 6.444-4.182 2.103-5.725 4.463-5.765 5.84-.048 1.659 2.067 3.062 2.978 3.588l168.644 97.366c6.785 3.763 19.103 3.338 27.97-1.008 4.384-2.16 8.785-4.309 13.179-6.455 23.955-11.695 48.726-23.79 70.069-37.62 7.443-4.823 14.765-9.873 21.846-14.757 12.116-8.357 24.645-16.997 38.354-24.912 13.497-7.793 28.222-14.906 42.462-21.785 8.681-4.194 17.658-8.53 26.221-12.957 24.123-12.471 44.295-26.227 65.65-40.791 3.552-2.422 7.11-4.848 10.693-7.272 3.119-2.122 4.954-4.601 4.897-6.623-.052-1.82-1.768-3.227-3.199-4.087l-168.573-97.324c-2.875-1.66-6.758-2.464-10.812-2.464z" fill="#0072bc"/></g></g></svg>