<svg id="Layer_1" enable-background="new 0 0 500 500" viewBox="0 0 500 500" xmlns="http://www.w3.org/2000/svg"><g><g><g><g enable-background="new"><g><path d="m61.455 257.637-.119 12.632-15.159 8.45.119-12.632z" fill="#3b2b28"/></g><g><path d="m46.296 266.087-.119 12.632-14.062-8.118.119-12.633z" fill="#57423a"/></g><g><path d="m61.455 257.637-15.159 8.45-14.062-8.119 15.159-8.45z" fill="#846e63"/></g></g></g><g><g enable-background="new"><g><path d="m153.983 203.889-.119 12.632-15.159 8.45.119-12.632z" fill="#3b2b28"/></g><g><path d="m138.824 212.339-.119 12.632-14.062-8.118.119-12.633z" fill="#57423a"/></g><g><path d="m153.983 203.889-15.159 8.45-14.062-8.119 15.159-8.45z" fill="#846e63"/></g></g></g><g><g enable-background="new"><g><path d="m171.825 106.491-.232 96.824-119.176 69.257.232-96.823z" fill="#8a8dbd"/></g><g><path d="m52.649 175.749-.232 96.823-27.417-15.829.232-96.823z" fill="#b0b5f1"/></g><g><path d="m171.825 106.491-119.176 69.258-27.417-15.829 119.176-69.258z" fill="#d9ddfd"/></g></g></g></g><g><g enable-background="new"><g><path d="m447.326 334.782-.078 27.286-119.114 69.222.077-27.286z" fill="#8a8dbd"/></g><g><path d="m328.203 404.013-.048 27.256-132.889-76.702-9.947-5.786-132.888-76.702.048-27.256 132.84 76.702 9.947 5.738z" fill="#b0b5f1"/></g><g><path d="m447.326 334.782-119.115 69.222-275.724-159.189 119.115-69.222z" fill="#d9ddfd"/></g></g></g><path d="m195.266 327.263v27.304l-9.947-5.786v-27.256z" fill="#8a8dbd"/><g><g enable-background="new"><g><path d="m447.326 310.787-.078 27.286-119.114 69.223.077-27.287z" fill="#8a8dbd"/></g><g><path d="m328.203 380.018-.048 27.256-132.889-76.702-9.947-5.786-132.888-76.701.048-27.257 132.84 76.702 9.947 5.738z" fill="#8a8dbd"/></g><g><path d="m447.326 310.787-119.115 69.222-275.724-159.189 119.115-69.222z" fill="#8a8dbd"/></g></g></g><g><g enable-background="new"><g><path d="m447.326 303.442-.078 27.286-119.114 69.222.077-27.287z" fill="#8a8dbd"/></g><g><path d="m328.203 372.672-.048 27.256-132.889-76.701-9.947-5.786-132.888-76.702.048-27.257 132.84 76.702 9.947 5.738z" fill="#b0b5f1"/></g><g><path d="m447.326 303.442-119.115 69.221-275.724-159.188 119.115-69.222z" fill="#d9ddfd"/></g></g></g><g><g><g enable-background="new"><g><path d="m475 205.749-.232 81.858-27.238 15.829.232-81.858z" fill="#8a8dbd"/></g><g><path d="m447.74 221.583-.191 81.866-132.794-76.653-9.946-5.739-132.984-76.797.191-81.866 132.793 76.654 9.946 5.738z" fill="#b0b5f1"/></g><g><path d="m475 205.749-27.238 15.829-275.724-159.189 27.238-15.829z" fill="#d9ddfd"/></g></g></g><path d="m314.755 144.786v82.01l-9.946-5.739v-82.009z" fill="#8a8dbd"/><g><path d="m341.993 128.957-27.238 15.829-9.946-5.738 27.238-15.829z" fill="#b0b5f1"/></g></g><path d="m195.266 295.922v27.305l-9.947-5.786v-27.257z" fill="#8a8dbd"/><g><path d="m314.381 226.701-119.115 69.221-9.947-5.738 119.115-69.222z" fill="#b0b5f1"/></g><g><g><g enable-background="new"><g><path d="m377.88 432.357-.119 12.633-15.159 8.45.119-12.633z" fill="#3b2b28"/></g><g><path d="m362.721 440.807-.119 12.633-14.062-8.119.119-12.632z" fill="#57423a"/></g><g><path d="m377.88 432.357-15.159 8.45-14.062-8.118 15.159-8.451z" fill="#846e63"/></g></g></g><g><g enable-background="new"><g><path d="m470.408 378.61-.119 12.632-15.159 8.45.119-12.632z" fill="#3b2b28"/></g><g><path d="m455.249 387.06-.119 12.632-14.062-8.118.119-12.633z" fill="#57423a"/></g><g><path d="m470.408 378.61-15.159 8.45-14.062-8.119 15.159-8.45z" fill="#846e63"/></g></g></g><g><g enable-background="new"><g><path d="m474.722 281.212-.232 96.823-119.176 69.258.232-96.823z" fill="#8a8dbd"/></g><g><path d="m355.546 350.47-.232 96.823-27.416-15.829.232-96.824z" fill="#b0b5f1"/></g><g><path d="m474.722 281.212-119.176 69.258-27.416-15.83 119.176-69.257z" fill="#d9ddfd"/></g></g></g></g></g></svg>