<svg id="Layer_1" enable-background="new 0 0 500 500" viewBox="0 0 500 500" xmlns="http://www.w3.org/2000/svg"><g><g><g><path d="m272.014 437.147v34.789c0 .782-.508 1.584-1.544 2.17-2.092 1.193-5.455 1.193-7.528 0-1.036-.586-1.564-1.388-1.564-2.17v-34.789z" fill="#57423a"/><path d="m270.461 439.311c-2.077 1.199-5.445 1.199-7.522 0-2.077-1.2-2.077-3.144 0-4.343s5.445-1.199 7.522 0 2.077 3.143 0 4.343z" fill="#846e63"/></g><g><path d="m362.38 385.17v34.789c0 .782-.509 1.584-1.545 2.17-2.092 1.193-5.455 1.193-7.528 0-1.036-.586-1.564-1.388-1.564-2.17v-34.789z" fill="#57423a"/><path d="m360.828 387.334c-2.077 1.199-5.445 1.199-7.522 0s-2.077-3.144 0-4.343 5.445-1.199 7.522 0 2.077 3.144 0 4.343z" fill="#846e63"/></g></g><g><g><path d="m141.116 361.246v34.789c0 .782-.509 1.584-1.545 2.17-2.092 1.193-5.455 1.193-7.528 0-1.036-.586-1.564-1.388-1.564-2.17v-34.789z" fill="#57423a"/><path d="m139.564 363.41c-2.077 1.199-5.445 1.199-7.522 0s-2.077-3.144 0-4.343 5.445-1.199 7.522 0 2.077 3.144 0 4.343z" fill="#846e63"/></g><g><path d="m231.482 309.269v34.789c0 .782-.508 1.584-1.544 2.17-2.092 1.193-5.455 1.193-7.528 0-1.036-.586-1.564-1.388-1.564-2.17v-34.789z" fill="#57423a"/><path d="m229.93 311.433c-2.077 1.199-5.445 1.199-7.522-.001-2.077-1.199-2.077-3.143 0-4.343 2.077-1.199 5.445-1.199 7.522 0 2.077 1.2 2.077 3.145 0 4.344z" fill="#846e63"/></g></g><g><g enable-background="new"><g><path d="m233.281 178.633-.174 99.901-86.295 50.149.174-99.9z" fill="#e58d21"/></g><g><path d="m107.196 319.125.175-99.9c-.01 3.456 2.274 6.918 6.845 9.557 9.084 5.244 23.747 5.244 32.771 0l-.175 99.901c-9.025 5.244-23.687 5.244-32.771 0-4.572-2.639-6.855-6.101-6.845-9.558z" fill="#ebb12a"/></g><g><path d="m233.281 178.633-86.295 50.149c-9.025 5.244-23.687 5.244-32.771 0s-9.132-13.738-.107-18.982l69.963-40.658c9.025-5.245 23.688-5.244 32.772 0z" fill="#f3d35a"/></g></g><g><g enable-background="new"><g><path d="m220.433 38.921 22.185-12.893c2.758-1.602 6.58-1.394 10.839 1.065l-22.185 12.893c-4.259-2.46-8.082-2.667-10.839-1.065z" fill="#f3d35a"/></g><g><path d="m367.395 138.33 22.185-12.893-18.056 148.902-22.185 12.892z" fill="#e58d21"/></g><g><path d="m231.273 39.986 22.184-12.893 121.065 69.897-22.185 12.893z" fill="#f3d35a"/></g><g><path d="m352.337 109.883 22.185-12.893c9.164 5.291 16.212 18.613 15.057 28.447l-22.185 12.893c1.156-9.835-5.892-23.156-15.057-28.447z" fill="#f3d35a"/></g><g><path d="m352.337 109.883c9.165 5.291 16.213 18.613 15.057 28.447l-18.056 148.902-116.081-67.019-17.154-169.23c-1.136-11.157 6.005-16.287 15.169-10.996z" fill="#ebb12a"/></g></g></g><g enable-background="new"><g><path d="m369.5 322.451-.175 61.582-86.295 50.149.175-61.582z" fill="#e58d21"/></g><g><path d="m283.205 372.6-.175 61.582-16.332 9.491.175-61.582z" fill="#e58d21"/></g><g><path d="m266.894 382.122-.188 61.569-136.233-78.693.062-14.984.126-46.585 136.171 78.693z" fill="#ebb12a"/></g><g><path d="m266.832 382.122-.126 46.524-136.171-78.632.126-46.585z" fill="#e58d21"/></g><g><path d="m369.5 322.451-86.295 50.149-16.332 9.491-136.219-78.645 102.627-59.641z" fill="#f3d35a"/></g></g><g enable-background="new"><g><path d="m369.5 298.949-.175 61.582-86.295 50.149.175-61.582z" fill="#e58d21"/></g><g><path d="m283.205 349.098-.175 61.582-16.332 9.491.175-61.581z" fill="#e58d21"/></g><g><path d="m266.873 358.59-.175 61.581-136.218-78.645.174-61.582z" fill="#ebb12a"/></g><g><path d="m369.5 298.949-86.295 50.149-16.332 9.492-136.219-78.646 102.627-59.641z" fill="#f3d35a"/></g></g><g enable-background="new"><g><path d="m392.804 276.363-.174 99.901c-.01 3.411-2.244 6.814-6.717 9.414l.175-99.901c4.472-2.601 6.706-6.004 6.716-9.414z" fill="#e58d21"/></g><g><path d="m386.087 285.776-.175 99.901-69.963 40.658.175-99.901z" fill="#e58d21"/></g><g><path d="m276.293 416.754.174-99.901c-.01 3.456 2.273 6.918 6.845 9.557 9.084 5.244 23.787 5.268 32.812.023l-.175 99.901c-9.025 5.244-23.728 5.221-32.812-.023-4.571-2.639-6.854-6.1-6.844-9.557z" fill="#ebb12a"/></g><g><path d="m385.939 266.77c9.084 5.244 9.172 13.761.148 19.006l-69.963 40.658c-9.025 5.245-23.728 5.221-32.812-.023-9.084-5.245-9.132-13.738-.107-18.982l86.295-50.149z" fill="#f3d35a"/></g></g></g></g></svg>