<svg id="Layer_1" enable-background="new 0 0 500 500" viewBox="0 0 500 500" xmlns="http://www.w3.org/2000/svg"><g><g fill="#3e4950"><path d="m283.898 413.934v46.59c-.063.848-.707 1.743-1.915 2.434l-18.915 10.925c-1.209.707-2.763 1.083-4.239 1.115-1.366.031-2.684-.235-3.658-.785l-20.046-11.569c-.973-.565-1.413-1.335-1.35-2.12h-.016v-46.59z"/><path d="m391.802 351.842v46.591c-.063.848-.706 1.742-1.915 2.434l-18.915 10.925c-1.209.707-2.763 1.083-4.239 1.115-1.366.031-2.684-.235-3.658-.785l-20.046-11.57c-.973-.565-1.413-1.334-1.35-2.119h-.016v-46.591z"/><path d="m125.854 351.842v46.591c.063.848.707 1.742 1.915 2.434l18.916 10.925c1.208.707 2.763 1.083 4.238 1.115 1.366.031 2.685-.235 3.658-.785l20.046-11.57c.973-.565 1.412-1.334 1.35-2.119h.015v-46.591z"/></g><path d="m391.802 129.607v247.129c-.333 4.497-3.746 9.243-10.158 12.907l-100.334 57.952c-6.411 3.747-14.655 5.745-22.481 5.912-7.244.166-14.239-1.25-19.401-4.164l-106.328-61.366c-5.163-2.998-7.494-7.078-7.161-11.241h-.083v-247.129z" fill="#784f36"/><path d="m391.802 115.965v247.129c-.333 4.497-3.746 9.243-10.158 12.907l-100.334 57.951c-6.411 3.747-14.655 5.745-22.481 5.912-7.244.166-14.239-1.249-19.401-4.163l-106.328-61.366c-5.163-2.998-7.494-7.078-7.161-11.241h-.083v-247.129z" fill="#946c45"/><path d="m391.802 115.965v247.129c-.333 4.497-3.746 9.243-10.158 12.907l-100.334 57.951c-6.411 3.747-14.655 5.745-22.481 5.912v-323.9h132.973z" fill="#784f36"/><path d="m391.802 101.81v12.657c-.333 4.496-3.746 9.242-10.158 12.906l-100.334 57.951c-6.411 3.747-14.655 5.745-22.481 5.912-7.244.166-14.239-1.25-19.401-4.164l-106.328-61.366c-5.163-2.997-7.494-7.077-7.161-11.24h-.083v-12.656z" fill="#3e4950"/><path d="m391.802 101.81v12.657c-.333 4.496-3.746 9.242-10.158 12.906l-100.334 57.951c-6.411 3.747-14.655 5.745-22.481 5.912v-89.426z" fill="#2e353a"/><g><path d="m239.432 174.387-106.301-61.372c-10.741-6.202-9.394-17.035 3.009-24.195l100.278-57.896c12.403-7.161 31.166-7.939 41.908-1.737l106.3 61.372c10.742 6.202 9.394 17.035-3.009 24.196l-100.277 57.895c-12.404 7.161-31.166 7.939-41.908 1.737z" fill="#61727f"/><path d="m258.881 165.914-111.074-64.128 111.07-64.127 111.074 64.129z" fill="#3e4950"/><path d="m227.388 147.733-48.089-27.765 111.071-64.127 48.089 27.765z" fill="#61727f"/></g><g><path d="m287.192 74.877v27.769c0 4.151-2.79 8.303-8.303 11.502-11.026 6.329-28.858 6.329-39.883 0-5.513-3.199-8.303-7.351-8.303-11.502h-.136v-27.769z" fill="#2e353a"/><path d="m278.896 86.372c-11.018 6.361-28.881 6.361-39.899 0s-11.018-16.675-.001-23.036 28.881-6.361 39.899.001c11.018 6.361 11.018 16.674.001 23.035z" fill="#3e4950"/><path d="m273.839 83.452c-8.225 4.749-21.56 4.749-29.785 0s-8.225-12.448 0-17.197c8.225-4.748 21.56-4.748 29.785.001 8.225 4.748 8.225 12.447 0 17.196z" fill="#2e353a"/></g><g fill="#946c45"><path d="m290.163 223.623-6.429 3.712v-31.385l6.429-3.712z"/><path d="m305.51 214.762-6.43 3.713v-31.386l6.43-3.712z"/><path d="m320.857 205.902-6.43 3.712v-31.385l6.43-3.712z"/><path d="m336.204 197.041-6.43 3.713v-31.386l6.43-3.712z"/><path d="m351.551 188.181-6.43 3.712v-31.385l6.43-3.712z"/><path d="m366.897 179.32-6.43 3.713v-31.386l6.43-3.712z"/></g><g fill="#784f36"><path d="m227.729 223.623 6.43 3.712v-31.385l-6.43-3.712z"/><path d="m212.382 214.762 6.43 3.713v-31.386l-6.43-3.712z"/><path d="m197.036 205.902 6.429 3.712v-31.385l-6.429-3.712z"/><path d="m181.689 197.041 6.429 3.713v-31.386l-6.429-3.712z"/><path d="m166.342 188.181 6.43 3.712v-31.385l-6.43-3.712z"/><path d="m150.995 179.32 6.43 3.713v-31.386l-6.43-3.712z"/></g><g><g><path d="m210.076 287.827v123.171l-101.954-58.864v-123.17z" fill="#3e4950"/><path d="m193.341 297.147c0 45.966-15.333 74.396-34.279 63.458-18.872-10.896-34.206-57.033-34.206-102.998 0-3.149.074-6.256.222-9.321l68.043 39.285c.147 3.235.22 6.427.22 9.576z" fill="#2e353a"/><path d="m184.816 290.67c0 38.398-11.516 62.894-25.744 54.679-14.174-8.183-25.69-45.977-25.69-84.375 0-2.631.056-5.23.167-7.797l51.102 29.503c.109 2.696.165 5.358.165 7.99z" fill="#f3d35a"/><path d="m177.356 284.073c0 27.26-8.176 44.651-18.277 38.819-10.062-5.809-18.238-32.64-18.238-59.9 0-1.868.039-3.713.118-5.535l36.279 20.945c.079 1.913.118 3.803.118 5.671z" fill="#ebb12a"/><path d="m202.557 293.019v9.449l-86.916-50.181v-9.449z" fill="#2e353a"/></g><path d="m210.076 287.827v123.171l33.478-19.329v-123.171z" fill="#2e353a"/><path d="m243.554 268.477-101.954-58.863-33.477 19.329 101.954 58.862z" fill="#61727f"/></g></g></svg>