<svg id="Capa_1" enable-background="new 0 0 512 512" height="512" viewBox="0 0 512 512" width="512" xmlns="http://www.w3.org/2000/svg" xmlns:xlink="http://www.w3.org/1999/xlink"><linearGradient id="lg1"><stop offset="0" stop-color="#cc8241"/><stop offset="1" stop-color="#dea861"/></linearGradient><linearGradient id="SVGID_1_" gradientTransform="matrix(-1 0 0 1 -864.503 0)" gradientUnits="userSpaceOnUse" x1="-1295.219" x2="-1279.801" xlink:href="#lg1" y1="241.679" y2="246.38"/><linearGradient id="SVGID_2_" gradientTransform="matrix(-1 0 0 1 -864.503 0)" gradientUnits="userSpaceOnUse" x1="-1218.973" x2="-1203.624" xlink:href="#lg1" y1="289.486" y2="289.486"/><linearGradient id="SVGID_3_" gradientTransform="matrix(-1 0 0 1 -864.503 0)" gradientUnits="userSpaceOnUse" x1="-1150.055" x2="-1134.707" xlink:href="#lg1" y1="249.671" y2="249.671"/><linearGradient id="SVGID_4_" gradientTransform="matrix(-1 0 0 1 -864.503 0)" gradientUnits="userSpaceOnUse" x1="-1223.006" x2="-1194.275" y1="212.339" y2="212.339"><stop offset="0" stop-color="#ab2c37"/><stop offset="1" stop-color="#ff4757"/></linearGradient><linearGradient id="lg2"><stop offset="0" stop-color="#43386b"/><stop offset="1" stop-color="#7662bd"/></linearGradient><linearGradient id="SVGID_5_" gradientTransform="matrix(-1 0 0 1 -864.503 0)" gradientUnits="userSpaceOnUse" x1="-1256.277" x2="-1276.813" xlink:href="#lg2" y1="90.154" y2="54.584"/><linearGradient id="SVGID_6_" gradientUnits="userSpaceOnUse" x1="407.557" x2="448.979" xlink:href="#lg2" y1="131.867" y2="131.867"/><linearGradient id="SVGID_7_" gradientTransform="matrix(-1 0 0 1 -864.503 0)" gradientUnits="userSpaceOnUse" x1="-1144.917" x2="-1245.234" y1="216.695" y2="158.777"><stop offset="0" stop-color="#ff4757"/><stop offset="1" stop-color="#ff7a85"/></linearGradient><linearGradient id="SVGID_8_" gradientUnits="userSpaceOnUse" x1="281.493" x2="291.136" xlink:href="#lg1" y1="425.761" y2="425.761"/><linearGradient id="SVGID_9_" gradientUnits="userSpaceOnUse" x1="437.108" x2="446.751" xlink:href="#lg1" y1="335.489" y2="335.489"/><linearGradient id="SVGID_10_" gradientUnits="userSpaceOnUse" x1="83.079" x2="92.722" xlink:href="#lg1" y1="310.57" y2="310.57"/><linearGradient id="SVGID_11_" gradientUnits="userSpaceOnUse" x1="69.543" x2="464.091" y1="257.852" y2="257.852"><stop offset="0" stop-color="#d7d1eb"/><stop offset="1" stop-color="#d7d1eb"/></linearGradient><linearGradient id="lg3"><stop offset="0" stop-color="#d7d1eb"/><stop offset="1" stop-color="#e9e5f6"/></linearGradient><linearGradient id="SVGID_12_" gradientUnits="userSpaceOnUse" x1="267.847" x2="317.179" xlink:href="#lg3" y1="372.819" y2="372.819"/><linearGradient id="SVGID_13_" gradientUnits="userSpaceOnUse" x1="-5.52" x2="78.459" xlink:href="#lg3" y1="238.683" y2="238.683"/><linearGradient id="SVGID_14_" gradientUnits="userSpaceOnUse" x1="538.777" x2="448.311" xlink:href="#lg3" y1="261.802" y2="261.802"/><linearGradient id="SVGID_15_" gradientUnits="userSpaceOnUse" x1="174.747" x2="174.747" xlink:href="#lg2" y1="285.707" y2="163.489"/><linearGradient id="SVGID_16_" gradientTransform="matrix(-1 0 0 1 -769.115 0)" gradientUnits="userSpaceOnUse" x1="-967.216" x2="-951.797" xlink:href="#lg1" y1="386.107" y2="390.808"/><linearGradient id="SVGID_17_" gradientTransform="matrix(-1 0 0 1 -769.115 0)" gradientUnits="userSpaceOnUse" x1="-890.97" x2="-875.621" xlink:href="#lg1" y1="433.914" y2="433.914"/><linearGradient id="SVGID_18_" gradientTransform="matrix(-1 0 0 1 -769.115 0)" gradientUnits="userSpaceOnUse" x1="-822.052" x2="-806.703" xlink:href="#lg1" y1="394.099" y2="394.099"/><linearGradient id="SVGID_19_" gradientTransform="matrix(-1 0 0 1 -769.115 0)" gradientUnits="userSpaceOnUse" x1="-837.37" x2="-949.275" xlink:href="#lg2" y1="360.166" y2="295.558"/><linearGradient id="SVGID_20_" gradientTransform="matrix(-1 0 0 1 -769.115 0)" gradientUnits="userSpaceOnUse" x1="-972.329" x2="-851.795" xlink:href="#lg2" y1="335.546" y2="335.546"/><g><g><path d="m406.02 205.523 21.289.233 9.748 75.396c0 .322-.16.645-.478.828l-5.694 3.287c-.527.305-1.177.305-1.704 0l-6.113-3.53c-.332-.192-.487-.533-.474-.869h-.005z" fill="url(#SVGID_1_)"/><path d="m362.325 242.704-21.29.233-6.328 88.986c0 .322.16.644.478.829l5.694 3.287c.527.304 1.177.304 1.704 0l6.113-3.53c.332-.192.487-.533.473-.869h.005z" fill="url(#SVGID_2_)"/><path d="m293.407 202.89-21.289.233-6.329 88.986c0 .322.159.644.478.829l5.694 3.287c.527.304 1.177.304 1.704 0l6.113-3.53c.332-.192.487-.533.474-.869h.005z" fill="url(#SVGID_3_)"/><path d="m435.941 173.403-3.459 23.749c-1.004 4.817-4.015 8.977-8.276 11.437l-16.65 9.613-52.191 30.132c-6.789 3.92-15.155 3.92-21.944 0l-56.584-32.803c-3.999-2.309-6.001-6.347-6.009-10.387h-.001v-26.014z" fill="url(#SVGID_4_)"/><path d="m324.68 143.273 19.467-97.131c2.734-8.815 8.681-16.28 16.662-20.916 1.355-.787 2.849-.554 3.903.253l.001-.002 82.559 47.665-39.715 117.999-82.883-47.853z" fill="url(#SVGID_5_)"/><path d="m435.941 173.403 12.927-96.431c.754-3.016-2.489-5.455-5.177-3.894-7.981 4.635-13.928 12.101-16.662 20.916l-19.472 97.147z" fill="url(#SVGID_6_)"/><path d="m407.556 191.142-52.191 30.132c-6.79 3.92-15.155 3.92-21.944 0l-57.935-33.449c-6.211-3.586-6.211-12.552 0-16.138l49.187-28.398z" fill="url(#SVGID_7_)"/></g><g><path d="m307.532 364.262-40.499.653v110.184c0 .902.446 1.804 1.339 2.319l15.938 9.202c1.476.852 3.294.852 4.77 0l17.112-9.88c.93-.537 1.364-1.492 1.325-2.431h.014v-110.047z" fill="url(#SVGID_8_)"/><path d="m463.147 273.99-40.499.653v110.184c0 .902.446 1.804 1.339 2.319l15.938 9.202c1.476.852 3.295.852 4.77 0l17.113-9.88c.93-.537 1.364-1.492 1.325-2.431h.014z" fill="url(#SVGID_9_)"/><path d="m109.118 249.071-40.499.653v110.184c0 .902.446 1.804 1.339 2.319l15.938 9.202c1.476.852 3.295.852 4.77 0l17.113-9.88c.93-.537 1.364-1.492 1.325-2.431l.014-.001z" fill="url(#SVGID_10_)"/><g><path d="m430.552 204.315-167.794-96.876c-10.169-5.871-22.698-5.871-32.867 0l-107.387 62.457-52.932 6.889v106.519c-.317 4.854 1.905 9.853 6.718 12.633l194.559 112.328c10.169 5.871 22.698 5.871 32.867 0l153.601-89.138c4.516-2.608 6.774-7.17 6.774-11.733v-107.443z" fill="url(#SVGID_11_)"/><path d="m303.716 300.821-16.434-7.906-16.433 7.906-31.583 88.299c-5.092 18.434 2.394 38.038 18.477 48.386l18.693 12.028c6.607 4.251 15.087 4.251 21.693 0l18.693-12.028c16.083-10.348 23.569-29.952 18.477-48.386z" fill="url(#SVGID_12_)"/><path d="m70.037 173.069-47.623 111.522c-2.945 8.508 3.182 17.438 12.18 17.751l56.176 1.954-13.68-124.556z" fill="url(#SVGID_13_)"/><path d="m463.631 196.188 47.623 111.522c2.945 8.508-3.182 17.438-12.18 17.751l-56.177 1.954 13.681-124.556z" fill="url(#SVGID_14_)"/><path d="m76.29 165.028 153.601-89.138c10.169-5.871 22.698-5.871 32.867 0l194.559 112.328c9.032 5.214 9.032 18.251 0 23.465l-153.601 89.138c-10.169 5.871-22.698 5.871-32.867 0l-194.559-112.328c-9.031-5.215-9.031-18.251 0-23.465z" fill="#e9e5f6"/></g><path d="m122.378 215.182 190.722-110.57 104.738 60.47-190.722 110.57z" fill="#7662bd"/><path d="m122.378 215.182v70.525l104.738 60.469v-70.524z" fill="url(#SVGID_15_)"/></g><g><path d="m173.404 349.951 21.29.234 9.748 75.396c0 .322-.16.645-.478.828l-5.694 3.287c-.527.305-1.177.305-1.704 0l-6.113-3.53c-.333-.192-.487-.533-.473-.868h-.005z" fill="url(#SVGID_16_)"/><path d="m129.709 387.132-21.29.233-6.328 88.986c0 .322.159.644.478.829l5.694 3.287c.527.304 1.177.304 1.704 0l6.113-3.53c.332-.192.487-.533.473-.869h.005z" fill="url(#SVGID_17_)"/><path d="m60.791 347.318-21.289.233-6.329 88.986c0 .322.159.644.478.829l5.694 3.287c.527.304 1.177.304 1.704 0l6.113-3.53c.332-.192.487-.533.473-.869h.005z" fill="url(#SVGID_18_)"/><g><path d="m197.173 333.526-58.121 33.693-82.884-47.853 63.472-36.794c7.9-4.58 17.645-4.588 25.553-.022l51.962 30c8.07 4.658 8.08 16.303.018 20.976z" fill="url(#SVGID_19_)"/><path d="m100.48 275.338s-81.459-47.32-83.204-47.969l-.079-.046.002.013c-.821-.301-1.663-.555-2.537-.723-10.096-1.947-16.344 6.325-14.263 13.9l25.712 93.601c1.615 5.88 5.565 10.324 10.473 12.821l.002.011 82.221 47.552z" fill="#43386b"/><path d="m97.342 274.393c6.221 1.199 11.195 5.9 13.283 11.881l28.231 80.877 55.356-31.96c4.597-2.654 7.865-7.122 9.002-12.307v27.18c0 4.124-2.192 7.938-5.756 10.013l-58.602 34.134c-11.636 6.741-26.502.65-30.064-12.317l-25.713-93.602c-2.081-7.574 4.167-15.845 14.263-13.899z" fill="url(#SVGID_20_)"/></g></g></g></svg>