<svg id="Capa_1" enable-background="new 0 0 512 512" height="512" viewBox="0 0 512 512" width="512" xmlns="http://www.w3.org/2000/svg"><g><g><path d="m409.323 478.999h-306.646c-54.676 0-97.414-47.183-92.023-101.592l2.329-23.501c4.688-47.308 44.483-83.354 92.023-83.354h301.92c47.437 0 87.18 35.894 91.996 83.086l2.398 23.501c5.56 54.5-37.213 101.86-91.997 101.86z" fill="#a183e2"/><path d="m363.134 120.579-51.793-27.946c-10.733-5.791-24.128-1.785-29.919 8.947l-165.597 306.904c-5.791 10.733-1.785 24.128 8.948 29.92l51.792 27.946c10.733 5.791 24.128 1.785 29.919-8.948l165.598-306.904c5.791-10.732 1.785-24.127-8.948-29.919zm-64.13 56.886c-7.149-3.858-9.818-12.78-5.96-19.93s12.781-9.818 19.93-5.96 9.818 12.78 5.96 19.93c-3.857 7.149-12.78 9.818-19.93 5.96z" fill="#78eac4"/><path d="m444.169 267.547-303.829 202.281c-11.581 7.71-26.701 5.354-33.772-5.262l-9.807-14.724c-7.071-10.616-3.415-25.473 8.165-33.182l303.83-202.28 44.344-4.294c10.318-.999 17.03 9.079 12.13 18.211z" fill="#ef8bbd"/><path d="m132.143 398.541-27.216 18.12c-11.581 7.71-15.236 22.566-8.166 33.182l9.807 14.724c7.071 10.616 22.191 12.972 33.772 5.262l27.417-18.253z" fill="#f7c4db"/><path d="m193.297 432.388-25.54 19.187-35.614-53.034 26.769-17.822z" fill="#b2e7f1"/><path d="m430.278 316.033h-348.556l-1.302 162.997 352.966-3.19z" fill="#a183e2"/><path d="m501.319 377.138-2.398-23.501c-3.884-38.065-30.493-68.78-65.535-79.236l-24.931 16.923c12.306 10.922 20.543 25.423 22.446 41.714l2.065 17.674c4.788 40.988-32.033 76.606-79.192 76.606h-263.969c-39.582 0-71.891-25.097-78.408-57.417l-.744 7.505c-5.391 54.41 37.347 101.593 92.024 101.593h306.647c54.783 0 97.556-47.36 91.995-101.861z" fill="#9762e2"/><path d="m66.744 322.123-20.062 37.181c-4.272 7.918.577 17.68 9.467 19.059l27.917 4.331c8.891 1.379 16.469-6.455 14.797-15.295l-7.854-41.512c-2.282-12.054-18.44-14.561-24.265-3.764z" fill="#b2e7f1"/></g><g><g fill="#440a29"><path d="m296.097 182.854c3.138 1.693 6.519 2.496 9.857 2.496 7.416 0 14.607-3.966 18.37-10.936v-.001c5.454-10.109 1.666-22.772-8.443-28.227s-22.771-1.666-28.226 8.441c-2.643 4.898-3.22 10.531-1.625 15.862 1.594 5.331 5.169 9.722 10.067 12.365zm2.336-22.412c1.089-2.017 2.898-3.49 5.096-4.148 2.185-.654 4.514-.423 6.536.67 4.167 2.249 5.728 7.467 3.48 11.634-2.249 4.166-7.467 5.727-11.633 3.478-4.167-2.248-5.727-7.467-3.479-11.634z"/><path d="m511.472 376.102-2.398-23.501c-1.982-19.425-9.4-37.779-21.451-53.076-9.299-11.805-21.013-21.363-34.295-28.097.82-1.122 1.571-2.293 2.227-3.516l20.391-38.001c3.694-6.887 3.387-15.072-.801-21.361-4.187-6.288-11.625-9.732-19.402-8.975l-42.93 4.156c-4.96.479-9.804 2.214-14.013 5.014l-72.646 48.365 54.911-101.767c8.454-15.668 2.584-35.293-13.083-43.748l-51.792-27.946c-15.666-8.452-35.292-2.586-43.749 13.082l-88.28 163.612h-79.154c-25.53 0-50.011 9.438-68.933 26.578-18.921 17.139-30.728 40.57-33.246 65.975l-2.33 23.504c-2.853 28.796 6.651 57.611 26.077 79.057 19.427 21.447 47.165 33.747 76.102 33.747h306.646c28.994 0 56.768-12.341 76.202-33.858 19.433-21.516 28.89-50.4 25.947-79.244zm-101.362-150.364c1.422-.947 3.036-1.53 4.667-1.688l42.932-4.157c.078-.007.146-.01.204-.01.084 0 .147.006.194.013-.019.079-.06.199-.15.366l-20.391 38.002c-.773 1.442-1.935 2.706-3.357 3.653l.001-.001-72.089 47.995h-78.439zm-119.706-119.31c2.145-3.975 6.243-6.235 10.472-6.235 1.903 0 3.831.458 5.619 1.423l51.792 27.946c5.764 3.11 7.923 10.329 4.813 16.091l-73.145 135.56-43.105 28.698h-29.075c1.499-2.953.383-6.577-2.547-8.158l-23.403-12.628 11.433-21.189 39.517 21.323c.925.499 1.921.736 2.903.736 2.178 0 4.287-1.165 5.394-3.216 1.606-2.977.495-6.692-2.481-8.297l-39.518-21.323 11.433-21.19 23.403 12.628c.924.499 1.92.736 2.902.736 2.178 0 4.288-1.165 5.394-3.217 1.606-2.976.495-6.691-2.482-8.296l-23.403-12.627 11.437-21.193 39.518 21.322c.924.499 1.921.735 2.902.735 2.178 0 4.287-1.165 5.394-3.217 1.606-2.976.495-6.691-2.482-8.296l-39.518-21.322zm-104.394 193.475 18.546 10.008h-23.946zm284.366 141.762c-15.57 17.24-37.823 27.128-61.053 27.128h-306.646c-23.185 0-45.408-9.855-60.973-27.039-15.564-17.183-23.18-40.27-20.893-63.342l2.328-23.5c4.19-42.275 39.384-74.154 81.867-74.154h68.141l-15.73 29.153h-73.923c-.765-.216-1.545-.401-2.349-.525-8.126-1.26-15.888 2.599-19.79 9.829l-20.062 37.181c-2.95 5.467-3.061 12.052-.298 17.614 2.764 5.562 8.077 9.453 14.215 10.404l27.917 4.331c.976.151 1.954.226 2.927.226 5.147 0 10.14-2.08 13.772-5.833 4.319-4.464 6.207-10.773 5.053-16.877l-7.855-41.511c-.169-.892-.404-1.753-.683-2.591h343.731c3.382 0 6.124-2.742 6.124-6.124s-2.742-6.124-6.124-6.124h-41.116l36.275-24.151c.015.005.028.013.043.018 29.324 10.77 50.322 37.813 53.493 68.895l2.398 23.501c2.359 23.11-5.219 46.252-20.789 63.491zm-391.534-120.228c.752.402 1.599.645 2.497.701 1.452.7 3.124 2.1 3.652 4.887l7.855 41.511c.423 2.233-.241 4.451-1.822 6.085-1.58 1.633-3.773 2.37-6.019 2.021l-27.917-4.331c-2.245-.349-4.113-1.716-5.125-3.751-1.011-2.035-.972-4.35.108-6.349l20.062-37.181c1.933-3.582 5.241-3.727 6.709-3.593z"/><path d="m351.77 412.066c-3.382 0-6.124 2.742-6.124 6.124v13.03c0 3.382 2.742 6.124 6.124 6.124s6.124-2.742 6.124-6.124v-13.03c0-3.382-2.742-6.124-6.124-6.124z"/><path d="m393.596 378.378c-3.382 0-6.124 2.742-6.124 6.124v13.03c0 3.382 2.742 6.124 6.124 6.124s6.124-2.742 6.124-6.124v-13.03c0-3.382-2.742-6.124-6.124-6.124z"/><path d="m435.027 395.565c-3.382 0-6.124 2.742-6.124 6.124v13.031c0 3.382 2.742 6.124 6.124 6.124s6.124-2.742 6.124-6.124v-13.031c0-3.382-2.742-6.124-6.124-6.124z"/></g><path d="m221.435 360.493c-.015 0-.028 0-.043 0l-33.869-.139c-5.636-.023-10.187-4.612-10.164-10.248.023-5.622 4.589-10.164 10.205-10.164h.043l33.869.138c5.636.023 10.187 4.612 10.164 10.248-.023 5.624-4.588 10.165-10.205 10.165z" fill="#fff"/><path d="m145.844 360.493h-8.978c-5.636 0-10.206-4.57-10.206-10.206s4.57-10.206 10.206-10.206h8.978c5.636 0 10.206 4.57 10.206 10.206s-4.57 10.206-10.206 10.206z" fill="#fff"/></g><g><ellipse cx="469.398" cy="100.091" fill="#a183e2" rx="18.929" ry="18.929" transform="matrix(.23 -.973 .973 .23 264.138 533.936)"/><ellipse cx="102.668" cy="94.337" fill="#a183e2" rx="8.016" ry="8.016" transform="matrix(.16 -.987 .987 .16 -6.896 180.569)"/><g fill="#cab4ef"><path d="m207.015 24.711 6.431 18.081c.275.774.82 1.388 1.508 1.698l16.064 7.238c2.269 1.022 2.269 4.639 0 5.661l-16.064 7.238c-.688.31-1.233.923-1.508 1.697l-6.431 18.081c-.908 2.554-4.121 2.554-5.03 0l-6.43-18.081c-.275-.774-.82-1.388-1.508-1.697l-16.064-7.238c-2.27-1.022-2.27-4.639 0-5.661l16.064-7.238c.688-.31 1.233-.924 1.508-1.698l6.43-18.081c.909-2.554 4.121-2.554 5.03 0z"/><path d="m118.913 138.996 8.836 24.375c.378 1.044 1.127 1.871 2.072 2.289l22.074 9.757c3.118 1.378 3.118 6.253 0 7.632l-22.074 9.757c-.945.418-1.694 1.245-2.072 2.288l-8.836 24.375c-1.248 3.444-5.663 3.444-6.911 0l-8.836-24.375c-.378-1.044-1.127-1.871-2.073-2.288l-22.074-9.757c-3.119-1.378-3.119-6.253 0-7.632l22.074-9.757c.945-.418 1.694-1.245 2.073-2.289l8.836-24.375c1.248-3.444 5.662-3.444 6.911 0z"/></g></g></g></svg>