<svg id="Capa_1" enable-background="new 0 0 512 512" height="512" viewBox="0 0 512 512" width="512" xmlns="http://www.w3.org/2000/svg"><g><g><path d="m302.032 65.192h-95.401c-20.198 0-36.572 16.373-36.572 36.571v42.149c0 20.198 16.374 36.571 36.572 36.571h95.401c20.198 0 36.571-16.374 36.571-36.571v-42.149c0-20.197-16.373-36.571-36.571-36.571zm-1.209 97.873c0 .838-.68 1.519-1.518 1.519h-89.946c-.839 0-1.518-.68-1.518-1.519v-60.567c0-.838.68-1.518 1.518-1.518h89.946c.839 0 1.518.68 1.518 1.518z" fill="#b07676"/><path d="m446.178 501.864h-382.637c-29.465 0-53.35-23.886-53.35-53.35v-250.679c0-29.465 23.886-53.35 53.35-53.35h382.637c29.465 0 53.35 23.886 53.35 53.35v250.678c0 29.465-23.885 53.351-53.35 53.351z" fill="#d49c8d"/><path d="m446.178 144.484h-39.493c12.842 0 23.253 10.411 23.253 23.253v252.294c0 12.842-10.411 23.253-23.253 23.253h-373.242c-12.842 0-23.253-10.41-23.253-23.253v28.481c0 29.465 23.886 53.351 53.35 53.351h382.637c29.465 0 53.35-23.886 53.35-53.351v-250.677c.001-29.465-23.884-53.351-53.349-53.351z" fill="#c7758d"/><path d="m120.778 443.284h-19.184c-13.194 0-23.889-10.695-23.889-23.889v-281.497c0-3.945 3.198-7.144 7.144-7.144h52.674c3.945 0 7.144 3.198 7.144 7.144v281.497c0 13.194-10.695 23.889-23.889 23.889z" fill="#b07676"/><path d="m136.171 378.312h-49.97c-8.291 0-15.011-6.721-15.011-15.012v-45.389c0-8.291 6.721-15.012 15.011-15.012h49.97c8.291 0 15.011 6.721 15.011 15.012v45.389c.001 8.291-6.72 15.012-15.011 15.012z" fill="#ffe266"/><path d="m125.117 354.561h-27.861c-.482 0-.872-.391-.872-.872v-26.166c0-.482.391-.872.872-.872h27.861c.482 0 .872.391.872.872v26.166c0 .482-.39.872-.872.872z" fill="#b07676"/><path d="m407.014 443.284h-19.184c-13.194 0-23.889-10.695-23.889-23.889v-281.497c0-3.945 3.198-7.144 7.144-7.144h52.674c3.945 0 7.144 3.198 7.144 7.144v281.497c0 13.194-10.696 23.889-23.889 23.889z" fill="#b07676"/><path d="m422.407 378.312h-49.97c-8.291 0-15.012-6.721-15.012-15.012v-45.389c0-8.291 6.721-15.012 15.012-15.012h49.97c8.291 0 15.012 6.721 15.012 15.012v45.389c-.001 8.291-6.722 15.012-15.012 15.012z" fill="#ffe266"/><path d="m411.353 354.561h-27.861c-.482 0-.872-.391-.872-.872v-26.166c0-.482.39-.872.872-.872h27.861c.482 0 .872.391.872.872v26.166c0 .482-.391.872-.872.872z" fill="#b07676"/></g><g><g fill="#440a29"><path d="m446.178 134.348h-9.692c-1.557-5.572-6.666-9.676-12.728-9.676h-52.674c-6.061 0-11.171 4.104-12.728 9.676h-9.617v-32.585c0-25.755-20.954-46.708-46.708-46.708h-95.401c-25.755 0-46.708 20.953-46.708 46.708v32.585h-9.672c-1.557-5.572-6.666-9.676-12.728-9.676h-52.673c-6.062 0-11.171 4.104-12.728 9.676h-8.58c-35.007 0-63.487 28.48-63.487 63.487v250.678c0 35.007 28.48 63.487 63.487 63.487h382.637c35.007 0 63.487-28.48 63.487-63.487v-250.678c0-35.007-28.48-63.487-63.487-63.487zm-395.63 202.943c4.672 1.373 9.543 2.268 14.56 2.638v23.371c0 5.976 2.509 11.367 6.515 15.208v40.886c0 16.526 13.445 29.971 29.971 29.971h19.184c16.526 0 29.971-13.445 29.971-29.971v-40.886c4.006-3.842 6.515-9.233 6.515-15.208v-23.157h194.079v23.157c0 5.976 2.509 11.367 6.515 15.208v40.886c0 16.526 13.445 29.971 29.971 29.971h19.184c16.526 0 29.97-13.445 29.97-29.971v-40.886c4.006-3.842 6.515-9.233 6.515-15.208v-23.287c5.41-.313 10.654-1.248 15.671-2.723v91.262c0 18.35-15.646 33.279-34.878 33.279h-338.865c-19.232 0-34.878-14.929-34.878-33.279zm240.138-202.943h-72.71v-23.233h72.71zm67.173 20.273v148.082c-4.006 3.842-6.515 9.233-6.515 15.208v1.959h-194.079v-1.959c0-5.976-2.509-11.367-6.515-15.208v-148.082zm12.163 229.624c.794.091 1.597.149 2.414.149h49.97c.817 0 1.621-.058 2.414-.149v35.15c0 9.819-7.988 17.807-17.807 17.807h-19.183c-9.82 0-17.808-7.988-17.808-17.807zm61.314-66.334v45.389c0 4.924-4.006 8.93-8.93 8.93h-49.97c-4.924 0-8.93-4.006-8.93-8.93v-45.389c0-4.924 4.006-8.93 8.93-8.93h49.97c4.924.001 8.93 4.007 8.93 8.93zm-347.549 66.334c.794.091 1.597.149 2.414.149h49.97c.818 0 1.621-.058 2.414-.149v35.15c0 9.819-7.988 17.807-17.807 17.807h-19.184c-9.819 0-17.807-7.988-17.807-17.807zm61.314-66.334v45.389c0 4.924-4.006 8.93-8.93 8.93h-49.97c-4.924 0-8.93-4.006-8.93-8.93v-45.389c0-4.924 4.006-8.93 8.93-8.93h49.97c4.924.001 8.93 4.007 8.93 8.93zm225.983-181.075h52.674c.586 0 1.062.477 1.062 1.062v159.069c-.794-.091-1.597-.149-2.414-.149h-49.97c-.818 0-1.621.058-2.414.149v-159.069c0-.586.476-1.062 1.062-1.062zm-190.888-35.072c0-14.576 11.859-26.435 26.435-26.435h95.401c14.577 0 26.436 11.859 26.436 26.435v32.585h-17.509v-31.851c0-6.426-5.229-11.655-11.655-11.655h-89.945c-6.427 0-11.655 5.229-11.655 11.655v31.851h-17.508zm-95.347 35.072h52.674c.585 0 1.062.477 1.062 1.062v159.069c-.794-.091-1.597-.149-2.414-.149h-49.97c-.818 0-1.621.058-2.414.149v-159.069c0-.586.477-1.062 1.062-1.062zm-64.522 60.999c0-23.828 19.386-43.214 43.215-43.214h8.082v148.082c-4.006 3.842-6.515 9.233-6.515 15.208v1.687c-25.127-2.617-44.782-23.918-44.782-49.725zm469.065 250.678c0 23.828-19.386 43.214-43.214 43.214h-382.637c-23.828 0-43.215-19.386-43.215-43.214v-129.323c5.25 5.322 11.344 9.802 18.058 13.243v96.119c0 25.057 21.103 45.443 47.042 45.443h338.866c25.939 0 47.042-20.385 47.042-45.443v-96.119c6.714-3.442 12.808-7.921 18.058-13.243zm-45.892-128.825v-1.777c0-5.976-2.509-11.367-6.515-15.208v-148.082h9.194c23.828 0 43.214 19.386 43.214 43.214v72.038c-.001 26.185-20.239 47.718-45.893 49.815z"/><path d="m125.117 320.569h-27.861c-3.835 0-6.954 3.12-6.954 6.954v26.166c0 3.835 3.12 6.954 6.954 6.954h27.862c3.834 0 6.954-3.12 6.954-6.954v-26.166c-.001-3.835-3.12-6.954-6.955-6.954zm-5.209 27.911h-17.443v-15.747h17.443z"/><path d="m411.353 320.569h-27.861c-3.835 0-6.955 3.12-6.955 6.954v26.166c0 3.835 3.12 6.954 6.955 6.954h27.861c3.835 0 6.954-3.12 6.954-6.954v-26.166c-.001-3.835-3.12-6.954-6.954-6.954zm-5.21 27.911h-17.443v-15.747h17.443z"/><path d="m278.83 440.093c3.359 0 6.082-2.723 6.082-6.082v-12.264c0-3.359-2.723-6.082-6.082-6.082s-6.082 2.723-6.082 6.082v12.264c0 3.359 2.723 6.082 6.082 6.082z"/><path d="m310.558 387.182c3.359 0 6.082-2.723 6.082-6.082v-12.264c0-3.359-2.723-6.082-6.082-6.082s-6.082 2.723-6.082 6.082v12.264c0 3.359 2.723 6.082 6.082 6.082z"/><path d="m331.567 424.384c3.359 0 6.082-2.723 6.082-6.082v-12.265c0-3.359-2.723-6.082-6.082-6.082s-6.082 2.723-6.082 6.082v12.265c0 3.359 2.723 6.082 6.082 6.082z"/></g><path d="m234.795 190.621c-5.479 0-9.988-4.37-10.128-9.879-.143-5.596 4.279-10.248 9.876-10.39 17.648-.449 34.944-.449 52.874-.001 5.597.14 10.02 4.79 9.88 10.387s-4.816 10.001-10.387 9.88c-17.59-.441-34.549-.441-51.853-.001-.087.003-.175.004-.262.004z" fill="#fff"/><path d="m195.015 190.621h-11.516c-5.598 0-10.136-4.538-10.136-10.136s4.538-10.136 10.136-10.136h11.516c5.598 0 10.136 4.538 10.136 10.136.001 5.598-4.537 10.136-10.136 10.136z" fill="#fff"/></g><g><ellipse cx="400.567" cy="23.585" fill="#ffa585" rx="18.8" ry="18.8" transform="matrix(.23 -.973 .973 .23 285.581 408.017)"/><path d="m136.22 77.093c0 4.397-3.564 7.961-7.961 7.961s-7.961-3.564-7.961-7.961 3.564-7.961 7.961-7.961 7.961 3.564 7.961 7.961z" fill="#ffa585"/><g fill="#ffc7b6"><path d="m486.416 60.21 6.387 17.958c.273.769.815 1.378 1.498 1.686l15.955 7.188c2.254 1.016 2.254 4.607 0 5.623l-15.956 7.188c-.683.308-1.225.917-1.498 1.686l-6.387 17.958c-.902 2.537-4.093 2.537-4.995 0l-6.387-17.958c-.273-.769-.815-1.378-1.498-1.686l-15.955-7.188c-2.254-1.016-2.254-4.607 0-5.623l15.955-7.188c.683-.308 1.224-.917 1.498-1.686l6.387-17.958c.903-2.537 4.094-2.537 4.996 0z"/><path d="m54.329 2.565 8.776 24.209c.376 1.037 1.12 1.858 2.058 2.273l21.923 9.691c3.097 1.369 3.097 6.211 0 7.58l-21.923 9.691c-.939.415-1.682 1.236-2.058 2.273l-8.776 24.209c-1.24 3.42-5.624 3.42-6.864 0l-8.776-24.211c-.376-1.036-1.12-1.858-2.058-2.273l-21.923-9.691c-3.097-1.369-3.097-6.211 0-7.58l21.923-9.691c.939-.415 1.683-1.236 2.058-2.273l8.776-24.209c1.239-3.418 5.624-3.418 6.864.002z"/></g></g></g></svg>