<svg id="Capa_1" enable-background="new 0 0 512 512" height="512" viewBox="0 0 512 512" width="512" xmlns="http://www.w3.org/2000/svg"><g><g><path d="m472.27 458.902h-432.54v-274.27c0-19.654 15.933-35.587 35.587-35.587h361.366c19.654 0 35.587 15.933 35.587 35.587z" fill="#8bb6ef"/><path d="m438.508 442.619h-365.016v-246.734c0-5.549 4.498-10.047 10.047-10.047h344.921c5.549 0 10.047 4.498 10.047 10.047v246.734z" fill="#b2e7f1"/><path d="m436.683 149.045h-65.589c15.535 0 28.128 12.593 28.128 28.128v178.339c0 14.603-11.838 26.441-26.441 26.441h-333.051v76.949h432.54v-274.27c0-19.654-15.933-35.587-35.587-35.587z" fill="#8388ef"/><path d="m438.508 195.885c0-5.549-4.498-10.047-10.047-10.047h-29.239v169.674c0 14.603-11.838 26.441-26.441 26.441h-299.289v60.667h365.016z" fill="#a7adf1"/><path d="m439.032 499.746h-366.064c-34.763 0-62.945-28.181-62.945-62.945 0-5.779 4.685-10.465 10.464-10.465h471.025c5.779 0 10.465 4.685 10.465 10.465 0 34.763-28.181 62.945-62.945 62.945z" fill="#8bb6ef"/><path d="m324.642 458.902h-137.284c-17.985 0-32.565-14.58-32.565-32.565h202.414c0 17.985-14.58 32.565-32.565 32.565z" fill="#b2e7f1"/><path d="m386.529 376.657h-155.551c-5.014 0-9.078-4.064-9.078-9.078v-127.21c0-5.014 4.065-9.078 9.078-9.078h155.551c5.014 0 9.078 4.064 9.078 9.078v127.21c.001 5.013-4.064 9.078-9.078 9.078z" fill="#fff"/><path d="m395.608 259.651v-19.282c0-5.014-4.065-9.078-9.078-9.078h-155.552c-5.014 0-9.079 4.064-9.079 9.078v19.282z" fill="#ffe266"/><path d="m138.025 264.857h-18.418c-3.209 0-5.93-2.361-6.382-5.538l-4.101-28.828c-.552-3.882 2.461-7.354 6.382-7.354h26.277c3.891 0 6.895 3.421 6.392 7.28l-3.759 28.828c-.418 3.21-3.154 5.612-6.391 5.612z" fill="#fff"/></g><g><g fill="#440a29"><path d="m491.513 416.314h-9.22v-231.682c0-25.149-20.461-45.609-45.609-45.609h-361.367c-25.149 0-45.61 20.461-45.61 45.609v231.682h-9.22c-11.296 0-20.487 9.191-20.487 20.487 0 40.234 32.734 72.967 72.968 72.967h366.065c40.234 0 72.967-32.733 72.967-72.967 0-11.296-9.191-20.487-20.487-20.487zm-441.76-231.682c0-14.096 11.468-25.564 25.564-25.564h361.366c14.096 0 25.564 11.468 25.564 25.564v231.682h-17.726v-220.429c0-8.856-7.205-16.061-16.061-16.061h-344.921c-8.856 0-16.061 7.205-16.061 16.061v220.429h-17.725zm299.465 251.727c-3.964 9.684-13.483 16.529-24.577 16.529h-137.283c-11.094 0-20.613-6.845-24.577-16.529zm-269.712-20.045v-220.429c0-2.224 1.809-4.034 4.034-4.034h344.921c2.224 0 4.034 1.809 4.034 4.034v220.429zm359.527 73.409h-366.065c-29.182 0-52.923-23.741-52.923-52.922 0-.244.198-.442.442-.442h129.62c4.425 16.427 19.445 28.556 37.25 28.556h137.284c17.806 0 32.825-12.129 37.25-28.556h129.621c.244 0 .441.198.441.442.001 29.182-23.739 52.922-52.92 52.922z"/><path d="m386.529 225.276h-155.551c-8.322 0-15.092 6.77-15.092 15.092v127.21c0 8.322 6.77 15.092 15.092 15.092h155.551c8.322 0 15.092-6.77 15.092-15.092v-127.21c0-8.322-6.77-15.092-15.092-15.092zm-155.551 12.028h155.551c1.689 0 3.065 1.375 3.065 3.065v14.21h-161.681v-14.21c0-1.69 1.375-3.065 3.065-3.065zm155.551 133.339h-155.551c-1.69 0-3.065-1.375-3.065-3.065v-100.973h161.681v100.973c0 1.69-1.375 3.065-3.065 3.065z"/><path d="m141.783 217.123h-26.277c-3.613 0-7.042 1.565-9.41 4.293s-3.434 6.344-2.926 9.921l4.101 28.828c.868 6.103 6.172 10.705 12.336 10.705h18.417c6.237 0 11.549-4.664 12.356-10.849l3.758-28.828c.464-3.555-.627-7.139-2.993-9.832-2.364-2.693-5.777-4.238-9.362-4.238zm-3.329 41.343c-.028.215-.212.377-.429.377h-18.417c-.214 0-.398-.16-.428-.371l-4.101-28.828c-.008-.053-.028-.196.101-.345.13-.149.273-.149.327-.149h26.277c.053 0 .196 0 .325.147s.111.289.104.342z"/><path d="m363.265 327.322c-3.321 0-6.014 2.693-6.014 6.014v12.797c0 3.321 2.693 6.014 6.014 6.014s6.014-2.693 6.014-6.014v-12.797c-.001-3.322-2.693-6.014-6.014-6.014z"/><path d="m333.552 306.306c-3.321 0-6.014 2.693-6.014 6.014v12.797c0 3.321 2.693 6.014 6.014 6.014s6.014-2.693 6.014-6.014v-12.797c-.001-3.321-2.693-6.014-6.014-6.014z"/></g><path d="m103.873 357.52c-5.536 0-10.023-4.487-10.023-10.023v-15.527c0-5.536 4.487-10.023 10.023-10.023 5.535 0 10.023 4.487 10.023 10.023v15.528c0 5.535-4.487 10.022-10.023 10.022z" fill="#fff"/><path d="m103.873 311.899c-5.536 0-10.023-4.487-10.023-10.023v-3.119c0-5.536 4.487-10.023 10.023-10.023 5.535 0 10.023 4.487 10.023 10.023v3.119c0 5.536-4.487 10.023-10.023 10.023z" fill="#fff"/></g><g><ellipse cx="45.457" cy="75.475" fill="#8bb6ef" rx="18.589" ry="18.589" transform="matrix(.23 -.973 .973 .23 -38.443 102.375)"/><path d="m355.599 33.424c0 4.348-3.525 7.872-7.872 7.872-4.348 0-7.872-3.525-7.872-7.872 0-4.348 3.524-7.872 7.872-7.872s7.872 3.524 7.872 7.872z" fill="#8bb6ef"/><g fill="#b2e7f1"><path d="m131.115 4.113 6.315 17.757c.27.76.806 1.363 1.481 1.667l15.776 7.108c2.229 1.004 2.229 4.555 0 5.559l-15.776 7.108c-.675.304-1.211.907-1.481 1.667l-6.315 17.757c-.892 2.509-4.047 2.509-4.939 0l-6.315-17.757c-.27-.76-.805-1.363-1.481-1.667l-15.776-7.108c-2.229-1.004-2.229-4.555 0-5.559l15.776-7.108c.676-.304 1.211-.907 1.481-1.667l6.315-17.757c.891-2.509 4.046-2.509 4.939 0z"/><path d="m426.115 25.102 8.677 23.938c.372 1.025 1.107 1.837 2.035 2.247l21.678 9.582c3.063 1.354 3.063 6.141 0 7.495l-21.678 9.582c-.928.41-1.664 1.222-2.035 2.247l-8.677 23.938c-1.226 3.382-5.561 3.382-6.787 0l-8.677-23.938c-.371-1.025-1.107-1.837-2.035-2.247l-21.678-9.582c-3.063-1.354-3.063-6.141 0-7.495l21.678-9.582c.928-.41 1.664-1.222 2.035-2.247l8.677-23.938c1.226-3.382 5.561-3.382 6.787 0z"/></g></g></g></svg>