<svg id="Capa_1" enable-background="new 0 0 512 512" height="512" viewBox="0 0 512 512" width="512" xmlns="http://www.w3.org/2000/svg"><g><g><path d="m107.934 438.705-32.579-32.579-55.415 55.415c-8.997 8.996-8.997 23.583 0 32.579 8.996 8.996 23.583 8.996 32.579 0z" fill="#8bb6ef"/><path d="m435.643 91.604-14.324-14.324c-6.975-6.975-6.975-18.284 0-25.26l35.656-35.656c6.975-6.975 18.284-6.975 25.26 0l14.324 14.324c6.975 6.975 6.975 18.284 0 25.26l-35.656 35.656c-6.976 6.976-18.285 6.976-25.26 0z" fill="#ef8bbd"/><path d="m58.011 454.913c-25.569-25.569-25.569-67.025 0-92.594l299.316-299.316c25.569-25.569 67.025-25.569 92.594 0 25.569 25.569 25.569 67.025 0 92.594l-299.316 299.316c-25.569 25.569-67.025 25.569-92.594 0z" fill="#ef8bbd"/><path d="m449.921 63.003c-24.292-24.292-62.912-25.487-88.637-3.623 11.861.18 23.666 4.784 32.716 13.834l4.812 4.812c18.468 18.468 18.468 48.411 0 66.879l-258.899 258.899c-18.468 18.468-48.411 18.468-66.88 0l-4.812-4.812c-9.05-9.05-13.653-20.856-13.834-32.716-21.864 25.724-20.668 64.345 3.624 88.637 25.569 25.569 67.025 25.569 92.594 0l299.316-299.316c25.569-25.569 25.569-67.025 0-92.594z" fill="#e068bd"/><path d="m325.169 313.62c-9.188-9.188-9.188-24.084 0-33.271l120.374-120.374c9.188-9.188 24.084-9.188 33.271 0 9.188 9.188 9.188 24.084 0 33.271l-120.373 120.374c-9.188 9.187-24.084 9.187-33.272 0z" fill="#b2e7f1"/><path d="m339.524 248.838c9.818 9.818 25.737 9.818 35.556 0l86.642-86.642c28.129-28.129 26.085-75.779-4.565-106.429-30.65-30.65-78.3-32.694-106.429-4.565l-86.642 86.642c-9.818 9.818-9.818 25.737 0 35.556z" fill="#ef8bbd"/><path d="m457.157 55.768c-20.556-20.556-48.753-28.223-73.585-22.573 10.35 3.919 20.291 10.203 28.903 18.816 28.452 28.452 31.668 71.366 7.183 95.85l-75.417 75.417c-7.449 7.449-19.28 8.051-28.231 2.048l23.513 23.514c9.818 9.818 25.737 9.818 35.556 0l86.642-86.642c28.129-28.13 26.086-75.78-4.564-106.43z" fill="#e068bd"/></g><g><g fill="#440a29"><path d="m503.788 23.46-14.324-14.324c-10.95-10.95-28.769-10.948-39.719 0l-18.062 18.062c-30.476-11.721-65.08-6.329-88.185 16.775l-86.642 86.642c-7.798 7.797-11.182 18.36-10.161 28.561l-195.914 195.914c-21.304 21.304-27.223 52.251-17.77 78.921l-20.3 20.3c-12.968 12.968-12.968 34.07 0 47.038 6.485 6.483 15.002 9.726 23.519 9.726s17.035-3.243 23.519-9.726l20.869-20.869c7.681 2.518 15.683 3.797 23.691 3.797 19.385 0 38.769-7.378 53.527-22.135l152.628-152.628c1.673 4.193 4.189 8.045 7.478 11.333 0 0 0 0 .001.001 6.374 6.375 14.849 9.885 23.864 9.885 9.014 0 17.491-3.51 23.865-9.885l120.374-120.374c6.375-6.375 9.885-14.85 9.885-23.866 0-9.015-3.51-17.491-9.885-23.863-.952-.953-1.962-1.823-3.004-2.645 6.261-12.191 9.279-26.056 8.655-40.613-.416-9.721-2.45-19.251-5.936-28.283l18.03-18.029c10.946-10.948 10.946-28.765-.003-39.715zm-232.473 121.614 86.642-86.642c11.265-11.265 26.276-16.815 41.793-16.815 17.676 0 36.005 7.207 50.178 21.38 26.615 26.615 28.663 67.872 4.565 91.97l-86.642 86.642c-2.817 2.817-6.563 4.369-10.548 4.369s-7.731-1.552-10.548-4.369l-75.439-75.438c-2.818-2.817-4.37-6.563-4.37-10.549-.002-3.985 1.551-7.731 4.369-10.548zm-14.459 35.555 75.439 75.438c.452.451.915.887 1.386 1.311l-171.211 171.212-78.136-78.137 171.211-171.21c.423.471.858.934 1.311 1.386zm-211.566 306.262c-4.995 4.996-13.124 4.996-18.12 0s-4.996-13.125 0-18.121l15.8-15.801c2.324 3.211 4.921 6.283 7.811 9.173 3.288 3.288 6.816 6.188 10.512 8.744zm19.949-39.207c-21.542-21.542-21.542-56.594 0-78.136l10.42-10.42 78.136 78.136-10.419 10.419c-21.542 21.544-56.594 21.544-78.137.001zm406.347-280.48c2.512 2.513 3.896 5.853 3.896 9.406s-1.384 6.894-3.897 9.407l-120.374 120.374c-2.513 2.512-5.853 3.896-9.406 3.896-3.554 0-6.894-1.384-9.407-3.896 0-.001 0-.001-.001-.001-2.512-2.513-3.896-5.852-3.896-9.407 0-3.552 1.383-6.89 3.894-9.403l21.334-21.334c1.179.118 2.37.178 3.571.178 9.446 0 18.327-3.678 25.007-10.357l86.642-86.642c.808-.809 1.584-1.641 2.352-2.48.095.089.194.168.285.259zm17.743-118.484-13.548 13.548c-3.325-4.86-7.128-9.461-11.396-13.73-4.301-4.301-8.907-8.097-13.735-11.389l13.554-13.554c1.443-1.443 3.361-2.237 5.401-2.237s3.958.794 5.4 2.237l14.324 14.324c2.978 2.977 2.978 7.823 0 10.801z"/><path d="m147.415 373.885c1.167 1.033 2.618 1.541 4.062 1.541 1.696 0 3.384-.699 4.596-2.069l8.65-9.775c2.245-2.537 2.009-6.414-.529-8.659-2.537-2.245-6.414-2.009-8.659.528l-8.651 9.775c-2.243 2.537-2.007 6.414.531 8.659z"/><path d="m195.272 362.884c1.168 1.033 2.618 1.54 4.063 1.54 1.696 0 3.384-.699 4.596-2.069l8.651-9.775c2.245-2.537 2.009-6.413-.528-8.659-2.537-2.247-6.414-2.009-8.659.528l-8.651 9.775c-2.246 2.538-2.009 6.415.528 8.66z"/></g><g fill="#fff"><path d="m311.012 158.346c-2.526 0-5.055-.929-7.033-2.805-4.097-3.885-4.269-10.356-.383-14.453 7.6-8.015 15.775-15.863 23.683-23.453 3.935-3.778 8.004-7.685 11.959-11.568 4.029-3.96 10.5-3.9 14.458.129 3.957 4.029 3.899 10.501-.129 14.458-4.038 3.967-8.151 7.914-12.128 11.732-8.092 7.768-15.736 15.107-23.006 22.772-2.01 2.119-4.713 3.188-7.421 3.188z"/><path d="m368.802 101.58c-2.648 0-5.292-1.021-7.294-3.059-3.957-4.027-3.9-10.5.129-14.458l4.6-4.518c4.031-3.957 10.502-3.896 14.458.133s3.896 10.502-.133 14.458l-4.595 4.514c-1.991 1.955-4.579 2.93-7.165 2.93z"/></g></g><g><ellipse cx="256.722" cy="31.779" fill="#ef8bbd" rx="18.961" ry="18.961" transform="matrix(.23 -.973 .973 .23 166.81 274.332)"/><path d="m64.115 113.36c0 4.435-3.595 8.03-8.03 8.03s-8.03-3.595-8.03-8.03 3.595-8.03 8.03-8.03 8.03 3.595 8.03 8.03z" fill="#ef8bbd"/><g fill="#f7c4db"><path d="m125.967 28.391 6.442 18.112c.276.775.822 1.39 1.511 1.7l16.092 7.25c2.273 1.024 2.273 4.646 0 5.671l-16.092 7.25c-.689.31-1.235.925-1.511 1.7l-6.442 18.112c-.91 2.559-4.128 2.559-5.038 0l-6.442-18.112c-.276-.776-.822-1.39-1.511-1.7l-16.092-7.25c-2.273-1.024-2.273-4.646 0-5.671l16.092-7.25c.689-.31 1.235-.925 1.511-1.7l6.442-18.112c.91-2.559 4.128-2.559 5.038 0z"/><path d="m42.305 185.694 8.851 24.417c.379 1.046 1.129 1.874 2.076 2.292l22.112 9.774c3.124 1.381 3.124 6.264 0 7.645l-22.112 9.774c-.947.418-1.697 1.247-2.076 2.292l-8.851 24.417c-1.25 3.45-5.673 3.45-6.923 0l-8.851-24.417c-.379-1.045-1.129-1.874-2.076-2.292l-22.112-9.774c-3.124-1.381-3.124-6.264 0-7.645l22.112-9.774c.947-.418 1.697-1.247 2.076-2.292l8.851-24.417c1.251-3.45 5.673-3.45 6.923 0z"/></g></g></g></svg>