<svg id="Capa_1" enable-background="new 0 0 512 512" height="512" viewBox="0 0 512 512" width="512" xmlns="http://www.w3.org/2000/svg"><g><g><path d="m328.932 282.253c-1.774 8.819-19.795 10.798-24.517 17.827-4.895 7.286-.021 24.662-7.217 29.448s-21.336-6.427-29.948-4.73c-8.308 1.637-17.1 17.492-25.919 15.718s-10.798-19.794-17.827-24.517c-7.286-4.895-24.662-.021-29.448-7.217s6.427-21.336 4.73-29.948c-1.638-8.308-17.492-17.1-15.719-25.919 1.774-8.819 19.795-10.798 24.517-17.827 4.895-7.286.021-24.662 7.217-29.448s21.336 6.427 29.948 4.73c8.308-1.637 17.1-17.492 25.919-15.718s10.798 19.794 17.827 24.517c7.286 4.895 24.662.021 29.448 7.217s-6.427 21.336-4.729 29.948c1.637 8.309 17.491 17.101 15.718 25.919z" fill="#ffe266"/><ellipse cx="256" cy="267.585" fill="#fef2a8" rx="37.249" ry="37.249" transform="matrix(.525 -.851 .851 .525 -106.106 345.155)"/><path d="m256 230.336c-1.827 0-3.622.137-5.378.391 12.882 2.183 22.695 13.388 22.695 26.891 0 15.068-12.215 27.283-27.283 27.283-13.503 0-24.708-9.812-26.891-22.695-.254 1.757-.392 3.551-.392 5.378 0 20.572 16.677 37.249 37.249 37.249s37.249-16.677 37.249-37.249c0-20.571-16.677-37.248-37.249-37.248z" fill="#eeb6a8"/><ellipse cx="91.433" cy="389.707" fill="#8bb6ef" rx="39.066" ry="39.066" transform="matrix(.972 -.234 .234 .972 -88.527 32.151)"/><path d="m91.434 350.642c-1.951 0-3.868.147-5.742.424 13.393 2.311 23.583 13.977 23.583 28.03 0 15.715-12.739 28.453-28.453 28.453-14.053 0-25.718-10.19-28.03-23.583-.276 1.874-.424 3.791-.424 5.742 0 21.576 17.491 39.066 39.066 39.066s39.066-17.49 39.066-39.066c-.001-21.576-17.491-39.066-39.066-39.066z" fill="#8388ef"/><circle cx="219.254" cy="104.447" fill="#78eac4" r="25.522"/><ellipse cx="419.56" cy="272.243" fill="#ef8bbd" rx="27.354" ry="27.354" transform="matrix(.924 -.383 .383 .924 -72.246 181.282)"/></g><g fill="#440a29"><path d="m256 224.298c-23.868 0-43.287 19.418-43.287 43.286 0 23.869 19.419 43.287 43.287 43.287 23.869 0 43.287-19.418 43.287-43.287 0-23.867-19.418-43.286-43.287-43.286zm0 74.499c-17.21 0-31.212-14.002-31.212-31.212s14.002-31.211 31.212-31.211 31.211 14.001 31.211 31.211-14.001 31.212-31.211 31.212z"/><path d="m319.137 255.167c-.431-2.19 1.264-6.8 2.626-10.505 2.601-7.074 5.55-15.09 1.207-21.619-4.343-6.528-12.875-6.91-20.404-7.245-3.943-.176-8.851-.395-10.704-1.64-1.663-1.117-3.628-5.421-5.206-8.879-3.197-7.003-6.821-14.941-14.797-16.545-7.974-1.604-14.387 4.315-20.043 9.538-2.792 2.579-6.268 5.788-8.234 6.175-2.189.424-6.801-1.264-10.504-2.626-7.075-2.602-15.092-5.549-21.62-1.208-6.529 4.343-6.909 12.876-7.245 20.406-.176 3.943-.395 8.85-1.639 10.703-1.118 1.664-5.421 3.628-8.879 5.206-7.004 3.198-14.942 6.821-16.546 14.797s4.315 14.387 9.538 20.042c2.579 2.793 5.788 6.269 6.176 8.235.431 2.189-1.264 6.799-2.626 10.504-2.601 7.074-5.55 15.09-1.207 21.619 4.343 6.53 12.876 6.91 20.406 7.246 3.943.176 8.85.395 10.702 1.639 1.663 1.117 3.628 5.421 5.206 8.879 3.197 7.004 6.821 14.942 14.797 16.545.907.183 1.793.268 2.661.268 6.763-.001 12.369-5.177 17.382-9.806 2.793-2.579 6.268-5.788 8.234-6.175 2.186-.428 6.799 1.263 10.505 2.627 7.074 2.599 15.091 5.548 21.62 1.207 6.529-4.343 6.91-12.876 7.246-20.405.176-3.944.395-8.85 1.64-10.704 1.117-1.664 5.421-3.628 8.879-5.206 7.003-3.197 14.941-6.82 16.545-14.796 1.604-7.977-4.316-14.388-9.539-20.044-2.58-2.792-5.789-6.267-6.177-8.233zm3.875 25.896c-.389 1.933-6.23 4.599-9.721 6.193-5.342 2.438-10.867 4.96-13.888 9.458-3.134 4.665-3.411 10.884-3.679 16.899-.155 3.474-.444 9.94-1.87 10.888-1.426.95-7.5-1.285-10.765-2.485-5.651-2.078-11.492-4.228-17.008-3.141-5.315 1.049-9.776 5.167-14.09 9.151-2.819 2.604-7.531 6.955-9.47 6.572-1.932-.389-4.599-6.231-6.193-9.722-2.439-5.342-4.961-10.866-9.457-13.888-4.665-3.134-10.884-3.411-16.898-3.679-3.474-.154-9.941-.443-10.889-1.87-.949-1.426 1.285-7.5 2.485-10.764 2.078-5.65 4.227-11.494 3.14-17.007-1.048-5.315-5.167-9.778-9.152-14.092-2.603-2.819-6.959-7.537-6.571-9.468.389-1.933 6.231-4.6 9.722-6.194 5.342-2.438 10.866-4.961 13.888-9.458 3.133-4.664 3.411-10.883 3.679-16.899.155-3.474.443-9.94 1.869-10.888.239-.159.609-.229 1.074-.229 2.31 0 6.974 1.716 9.691 2.714 5.651 2.079 11.493 4.227 17.007 3.141 5.315-1.048 9.776-5.167 14.091-9.151 2.819-2.604 7.533-6.948 9.47-6.572 1.932.389 4.599 6.231 6.193 9.722 2.439 5.342 4.96 10.867 9.457 13.888 4.665 3.134 10.885 3.412 16.9 3.68 3.474.154 9.94.443 10.888 1.869.948 1.425-1.285 7.5-2.486 10.764-2.078 5.65-4.227 11.495-3.14 17.008 1.048 5.315 5.167 9.777 9.151 14.091 2.604 2.819 6.961 7.537 6.572 9.469z"/><path d="m435.078 142.459c-47.975-32.3-111.573-50.088-179.078-50.088-1.09 0-2.175.024-3.263.034-4.947-13.712-18.087-23.543-33.483-23.543-17.905 0-32.757 13.295-35.219 30.529-39.988 7.976-76.698 22.59-107.113 43.067-49.198 33.122-76.292 77.56-76.292 125.127 0 36.83 16.26 71.777 46.431 101.054-3.046 6.389-4.756 13.532-4.756 21.069 0 27.089 22.039 49.128 49.129 49.128 15.607 0 29.526-7.324 38.532-18.705 37.992 14.772 81.139 22.667 126.035 22.667 67.505 0 131.103-17.788 179.078-50.088 49.198-33.121 76.292-77.559 76.292-125.126-.001-47.566-27.095-92.004-76.293-125.125zm-215.824-53.47c8.524 0 15.459 6.934 15.459 15.458s-6.935 15.459-15.459 15.459-15.459-6.935-15.459-15.459 6.935-15.458 15.459-15.458zm-127.821 329.721c-15.993 0-29.003-13.01-29.003-29.003s13.011-29.004 29.003-29.004c15.993 0 29.003 13.011 29.003 29.004.001 15.993-13.01 29.003-29.003 29.003zm332.406-42.693c-44.69 30.086-104.296 46.656-167.839 46.656-41.745 0-81.783-7.163-117.016-20.601 1.028-3.952 1.578-8.095 1.578-12.364 0-27.09-22.039-49.129-49.129-49.129-12.238 0-23.436 4.509-32.047 11.938-25.122-25.098-38.631-54.406-38.631-84.932 0-40.659 23.939-79.168 67.406-108.432 27.974-18.833 61.806-32.344 98.777-39.833 5.643 12.213 18.002 20.711 32.315 20.711 16.846 0 30.986-11.771 34.651-27.517.699-.004 1.395-.017 2.095-.017 63.543 0 123.149 16.569 167.839 46.656 43.467 29.264 67.406 67.772 67.406 108.432 0 40.659-23.938 79.168-67.405 108.432z"/><path d="m422.097 234.922c-8.427-17.728-23.765-33.824-45.174-46.98-32.455-19.943-75.4-30.927-120.923-30.927s-88.468 10.984-120.923 30.927c-33.984 20.883-52.7 49.168-52.7 79.642 0 30.475 18.716 58.759 52.7 79.643 32.455 19.943 75.4 30.927 120.923 30.927s88.468-10.984 120.923-30.927c17.596-10.813 31.094-23.611 40.024-37.668.865.06 1.734.101 2.613.101 20.632 0 37.417-16.786 37.417-37.418 0-19.778-15.428-36.01-34.88-37.32zm-55.711 95.158c-29.329 18.023-68.532 27.948-110.386 27.948s-81.057-9.925-110.386-27.948c-27.801-17.083-43.111-39.278-43.111-62.495s15.311-45.412 43.111-62.495c29.329-18.023 68.532-27.948 110.386-27.948s81.057 9.925 110.386 27.948c16.206 9.958 28.165 21.654 35.324 34.276-11.646 6.348-19.567 18.705-19.567 32.877 0 12.363 6.031 23.341 15.302 30.158-7.274 10.101-17.718 19.481-31.059 27.679zm53.174-40.546c-9.534 0-17.291-7.757-17.291-17.292 0-9.534 7.757-17.291 17.291-17.291s17.291 7.757 17.291 17.291c0 9.535-7.757 17.292-17.291 17.292z"/></g><g><ellipse cx="479.284" cy="92.479" fill="#ffe266" rx="18.664" ry="18.664" transform="matrix(.23 -.973 .973 .23 279.161 537.694)"/><circle cx="115.229" cy="39.222" fill="#ffa585" r="7.904"/><circle cx="151.955" cy="469.781" fill="#a183e2" r="7.904"/><path d="m34.451 63.264 6.34 17.828c.271.763.809 1.368 1.487 1.674l15.84 7.136c2.238 1.008 2.238 4.574 0 5.582l-15.84 7.136c-.678.306-1.216.91-1.487 1.674l-6.34 17.828c-.896 2.519-4.064 2.519-4.959 0l-6.34-17.828c-.271-.763-.809-1.368-1.487-1.674l-15.84-7.137c-2.238-1.008-2.238-4.574 0-5.582l15.839-7.136c.678-.306 1.216-.911 1.487-1.674l6.34-17.828c.896-2.518 4.064-2.518 4.96.001z" fill="#fef2a8"/><path d="m394.686 1.889 6.34 17.828c.271.763.809 1.368 1.487 1.674l15.839 7.136c2.238 1.008 2.238 4.574 0 5.582l-15.839 7.136c-.678.306-1.216.91-1.487 1.674l-6.34 17.828c-.896 2.519-4.064 2.519-4.959 0l-6.34-17.828c-.271-.763-.809-1.368-1.487-1.674l-15.839-7.136c-2.238-1.008-2.238-4.574 0-5.582l15.839-7.136c.678-.306 1.216-.91 1.487-1.674l6.34-17.828c.895-2.519 4.063-2.519 4.959 0z" fill="#b2e7f1"/><path d="m463.121 430.108 8.712 24.034c.373 1.029 1.112 1.844 2.043 2.256l21.765 9.62c3.075 1.359 3.075 6.166 0 7.525l-21.765 9.62c-.932.412-1.67 1.227-2.043 2.256l-8.712 24.034c-1.231 3.395-5.583 3.395-6.815 0l-8.712-24.034c-.373-1.029-1.112-1.845-2.043-2.256l-21.765-9.62c-3.075-1.359-3.075-6.166 0-7.525l21.765-9.62c.932-.412 1.67-1.227 2.043-2.256l8.712-24.034c1.232-3.396 5.584-3.396 6.815 0z" fill="#bdf4e3"/></g></g></svg>