<svg id="Capa_1" enable-background="new 0 0 512 512" height="512" viewBox="0 0 512 512" width="512" xmlns="http://www.w3.org/2000/svg"><g><g><path d="m468.637 501.934h-425.007c-18.34 0-33.207-14.867-33.207-33.207v-291.357c0-18.34 14.867-33.207 33.207-33.207h425.007c18.34 0 33.207 14.867 33.207 33.207v291.357c0 18.34-14.868 33.207-33.207 33.207z" fill="#78eac4"/><path d="m468.637 144.163h-76.788c15.266 0 27.642 12.376 27.642 27.642v242.53c0 15.267-12.376 27.642-27.642 27.642h-353.784c-15.266 0-27.642-12.376-27.642-27.642v54.391c0 18.341 14.867 33.207 33.207 33.207h425.007c18.34 0 33.207-14.867 33.207-33.207v-291.356c0-18.34-14.868-33.207-33.207-33.207z" fill="#71afc4"/></g><g><g fill="#440a29"><path d="m468.636 134.096h-425.006c-23.861 0-43.273 19.412-43.273 43.273v291.357c0 23.862 19.412 43.274 43.273 43.274h425.006c23.861 0 43.273-19.412 43.273-43.273v-291.357c.001-23.862-19.411-43.274-43.273-43.274zm23.141 233.258h-19.145c-1.507 0-2.486-.556-2.846-.887l-.317-71.488c.362-.33 1.34-.883 2.842-.883h19.465v73.258zm0-93.39h-19.465c-6.563 0-12.816 2.501-17.157 6.861-3.775 3.792-5.842 8.703-5.82 13.828l.32 72.31c.05 11.317 10.357 20.524 22.977 20.524h19.145v32.347h-42.491c-10.879 0-19.73-7.543-19.73-16.815v-144.588c0-9.271 8.85-16.814 19.73-16.814h42.491zm-245.71 112.348c-26.367-4.764-46.437-27.868-46.437-55.587s20.07-50.823 46.437-55.587zm20.133-111.174c26.367 4.764 46.437 27.868 46.437 55.587s-20.07 50.823-46.437 55.587zm-223.403 91.333c-.362.33-1.34.883-2.842.883h-19.466v-73.257h19.145c1.507 0 2.486.556 2.846.886zm-22.308 21.016h19.465c6.563 0 12.816-2.501 17.157-6.861 3.775-3.792 5.842-8.703 5.82-13.828l-.32-72.31c-.05-11.317-10.357-20.524-22.977-20.524h-19.145v-32.347h42.491c10.879 0 19.73 7.543 19.73 16.814v144.588c0 9.272-8.85 16.815-19.73 16.815h-42.491zm0 81.24v-28.76h42.491c21.98 0 39.862-16.575 39.862-36.948v-17.769c23.262-7.606 39.559-29.589 39.559-54.54 0-25.278-16.198-47.005-39.559-54.557v-17.722c0-20.373-17.882-36.947-39.862-36.947h-42.491v-44.114c0-12.76 10.381-23.141 23.141-23.141h202.437v100.542c-37.514 4.947-66.57 37.111-66.57 75.954s29.055 71.007 66.57 75.954v85.188h-202.437c-12.76 0-23.141-10.381-23.141-23.14zm82.354-170.763c11.723 6.342 19.426 18.698 19.426 32.746 0 13.859-7.74 26.308-19.426 32.707zm365.793 193.903h-202.436v-85.188c37.514-4.947 66.57-37.111 66.57-75.954s-29.055-71.007-66.57-75.954v-100.542h202.437c12.76 0 23.141 10.381 23.141 23.141v44.115h-42.491c-21.98 0-39.862 16.574-39.862 36.947v17.77c-23.262 7.606-39.559 29.589-39.559 54.54 0 25.276 16.198 47.004 39.559 54.557v17.721c0 20.373 17.883 36.948 39.862 36.948h42.491v28.76c-.001 12.758-10.382 23.139-23.142 23.139zm-59.212-128.381c-11.723-6.343-19.426-18.697-19.426-32.745 0-13.859 7.74-26.308 19.426-32.707z"/><path d="m322.703 442.474c-3.336 0-6.04 2.704-6.04 6.04v12.853c0 3.335 2.704 6.04 6.04 6.04 3.335 0 6.04-2.704 6.04-6.04v-12.853c0-3.335-2.705-6.04-6.04-6.04z"/><path d="m357.59 411.008c-3.335 0-6.04 2.704-6.04 6.04v12.852c0 3.336 2.704 6.04 6.04 6.04 3.335 0 6.04-2.704 6.04-6.04v-12.852c0-3.336-2.704-6.04-6.04-6.04z"/><path d="m385.598 436.048c-3.336 0-6.04 2.704-6.04 6.04v12.852c0 3.335 2.704 6.04 6.04 6.04s6.04-2.704 6.04-6.04v-12.852c0-3.335-2.705-6.04-6.04-6.04z"/></g><path d="m136.774 195.239c-8.357 0-16.667-.047-24.701-.141-5.559-.065-10.013-4.624-9.947-10.183.065-5.519 4.558-9.948 10.063-9.948.04 0 .08 0 .12.001 15.912.188 32.926.188 49.206 0 .039-.001.079-.001.118-.001 5.506 0 10.001 4.431 10.063 9.95.064 5.559-4.39 10.117-9.949 10.181-8.215.094-16.617.141-24.973.141z" fill="#fff"/><path d="m76.583 195.099h-8.901c-5.559 0-10.066-4.507-10.066-10.066s4.507-10.066 10.066-10.066h8.901c5.559 0 10.066 4.507 10.066 10.066s-4.507 10.066-10.066 10.066z" fill="#fff"/></g><g><path d="m376.26 21.246c0 10.311-8.359 18.67-18.67 18.67s-18.67-8.359-18.67-18.67 8.359-18.67 18.67-18.67c10.311 0 18.67 8.358 18.67 18.67z" fill="#78eac4"/><path d="m246.718 96.016c0 4.367-3.54 7.907-7.906 7.907-4.367 0-7.907-3.54-7.907-7.907s3.54-7.907 7.907-7.907c4.366 0 7.906 3.54 7.906 7.907z" fill="#78eac4"/><g fill="#bdf4e3"><path d="m185.582 1.89 6.342 17.834c.271.764.809 1.369 1.487 1.674l15.845 7.139c2.238 1.009 2.238 4.575 0 5.584l-15.845 7.139c-.678.306-1.216.911-1.487 1.674l-6.342 17.834c-.896 2.519-4.065 2.519-4.961 0l-6.342-17.834c-.271-.764-.809-1.369-1.488-1.674l-15.845-7.139c-2.239-1.009-2.239-4.575 0-5.584l15.845-7.139c.678-.306 1.216-.911 1.488-1.674l6.342-17.834c.896-2.52 4.065-2.52 4.961 0z"/><path d="m466.448 43.156 6.342 17.834c.271.764.809 1.369 1.487 1.674l15.845 7.139c2.238 1.009 2.238 4.575 0 5.584l-15.845 7.139c-.678.306-1.216.911-1.487 1.674l-6.342 17.834c-.896 2.52-4.065 2.52-4.961 0l-6.342-17.834c-.271-.764-.809-1.369-1.487-1.674l-15.845-7.139c-2.238-1.008-2.238-4.575 0-5.584l15.845-7.139c.678-.306 1.216-.911 1.487-1.674l6.342-17.834c.896-2.52 4.065-2.52 4.961 0z"/><path d="m41.745 33.876 8.715 24.042c.373 1.029 1.112 1.845 2.044 2.257l21.772 9.624c3.076 1.359 3.076 6.168 0 7.527l-21.772 9.624c-.932.412-1.671 1.228-2.044 2.257l-8.715 24.042c-1.231 3.397-5.585 3.397-6.817 0l-8.715-24.042c-.373-1.029-1.112-1.845-2.044-2.257l-21.772-9.624c-3.076-1.36-3.076-6.168 0-7.527l21.772-9.624c.932-.412 1.671-1.228 2.044-2.257l8.715-24.042c1.232-3.397 5.586-3.397 6.817 0z"/></g></g></g></svg>