<svg id="Capa_1" enable-background="new 0 0 512 512" height="512" viewBox="0 0 512 512" width="512" xmlns="http://www.w3.org/2000/svg"><g><g><path d="m501.916 86.281-485.223 161.221c-8.134 2.703-8.976 13.874-1.339 17.766l110.02 56.057 65.838 170.462c2.408 6.242 10.233 8.274 15.374 3.993l109.692-77.187 117.919 60.082c5.911 3.012 13.028-.698 13.946-7.268z" fill="#b2e7f1"/><path d="m150.74 391.873 34.649 86.453c7.309 18.237 20.959 21.688 36.057 9.116l94.832-68.849-64.11-37.602 249.748-294.71z" fill="#a7adf1"/></g><g><g fill="#440a29"><path d="m511.986 86.54c.378-6.758-6.892-12.127-13.248-9.826l-485.224 161.22c-7.575 2.517-12.857 9.287-13.457 17.246-.6 7.96 3.608 15.445 10.72 19.07l108.087 55.072 62.854 165.666c2.942 7.756 10.203 12.785 18.497 12.813h.07c5.586 0 10.707-2.278 14.367-6.131l102.431-71.352 112.538 57.34c5.674 2.891 12.432 2.86 18.08-.083 5.648-2.944 9.546-8.467 10.427-14.774l53.774-385.126c.031-.378.079-.756.084-1.135zm-89.358 36.709-300.62 185.046-101.168-51.548zm-284.872 199.029 315.564-194.245-208.843 246.44c-.727.857-1.305 1.83-1.711 2.878l-1.595 4.12c-.003.006-.005.013-.007.019l-40.88 105.595zm92.124 144.213 26.062-67.325 40.768 20.772zm208.361 2.93-117.398-59.816c-.023-.012-.046-.024-.069-.035l-55.602-28.33 221.951-261.91z"/><path d="m401.031 388.062c-3.34 0-6.049 2.708-6.049 6.049v13.204c0 3.34 2.708 6.049 6.049 6.049 3.34 0 6.049-2.708 6.049-6.049v-13.204c-.001-3.34-2.709-6.049-6.049-6.049z"/><path d="m422.958 336.43c-3.34 0-6.049 2.708-6.049 6.049v13.204c0 3.34 2.708 6.049 6.049 6.049 3.34 0 6.049-2.708 6.049-6.049v-13.204c0-3.341-2.708-6.049-6.049-6.049z"/><path d="m360.358 354.1c-3.34 0-6.049 2.708-6.049 6.049v13.204c0 3.34 2.708 6.049 6.049 6.049s6.049-2.708 6.049-6.049v-13.204c0-3.341-2.709-6.049-6.049-6.049z"/></g><path d="m163.491 247.486c-4.207 0-8.131-2.653-9.551-6.86-1.781-5.276 1.053-10.996 6.328-12.776l4.351-1.469c5.275-1.779 10.995 1.054 12.775 6.329 1.78 5.276-1.053 10.996-6.329 12.776-1.997.612-5.489 2.127-7.574 2z" fill="#fff"/><path d="m98.683 269.345c-4.207 0-8.132-2.654-9.552-6.862-1.78-5.275 1.054-10.995 6.33-12.775l26.598-8.972c5.276-1.779 10.994 1.054 12.775 6.33 1.78 5.275-1.054 10.995-6.33 12.775l-26.598 8.972c-1.068.361-2.155.532-3.223.532z" fill="#fff"/></g><g><path d="m336.243 27.798c0 10.326-8.371 18.698-18.698 18.698-10.326 0-18.698-8.371-18.698-18.698s8.371-18.698 18.698-18.698c10.326 0 18.698 8.372 18.698 18.698z" fill="#8bb6ef"/><circle cx="107.456" cy="117.256" fill="#8bb6ef" r="7.918"/><g fill="#b2e7f1"><path d="m237.119 59.31 6.352 17.86c.272.765.81 1.37 1.49 1.677l15.868 7.149c2.242 1.01 2.242 4.582 0 5.592l-15.868 7.149c-.68.306-1.218.912-1.49 1.677l-6.352 17.86c-.897 2.523-4.071 2.523-4.968 0l-6.352-17.86c-.272-.765-.81-1.371-1.49-1.677l-15.868-7.149c-2.242-1.01-2.242-4.582 0-5.592l15.868-7.149c.68-.306 1.218-.912 1.49-1.677l6.352-17.86c.897-2.523 4.07-2.523 4.968 0z"/><path d="m47.646 6.751 8.728 24.078c.374 1.031 1.114 1.848 2.047 2.261l21.804 9.638c3.081 1.361 3.081 6.177 0 7.538l-21.804 9.638c-.934.413-1.673 1.23-2.047 2.26l-8.728 24.078c-1.233 3.402-5.594 3.402-6.827 0l-8.728-24.078c-.374-1.031-1.114-1.848-2.047-2.26l-21.805-9.639c-3.08-1.362-3.08-6.177 0-7.538l21.805-9.638c.934-.413 1.673-1.23 2.047-2.261l8.728-24.078c1.233-3.401 5.594-3.401 6.827.001z"/></g></g></g></svg>