<svg id="Capa_1" enable-background="new 0 0 512 512" height="512" viewBox="0 0 512 512" width="512" xmlns="http://www.w3.org/2000/svg"><g><g><path d="m478.855 405.051h-184.595v-111.74h165.423c23.345 0 42.27 18.925 42.27 42.27v46.372c0 12.756-10.341 23.098-23.098 23.098z" fill="#ffe266"/><path d="m459.684 293.311h-18.649c11.455 0 20.741 9.286 20.741 20.741v32.358c0 9.959-8.073 18.032-18.032 18.032h-149.484v40.609h184.594c12.757 0 23.099-10.342 23.099-23.099v-46.372c0-23.345-18.924-42.269-42.269-42.269z" fill="#efaa66"/><path d="m389.344 405.051h-357.258c-12.172 0-22.04-9.868-22.04-22.04v-152.267c0-30.952 25.091-56.043 56.043-56.043h267.212c30.952 0 56.043 25.091 56.043 56.043z" fill="#ffe266"/><path d="m266.902 231.7h43.893c9.926 0 17.973 8.047 17.973 17.973v155.378h-79.838v-155.378c0-9.926 8.046-17.973 17.972-17.973z" fill="#b2e7f1"/><path d="m333.302 174.701h-50.039c25.799 0 46.714 20.915 46.714 46.714v118.247c0 13.686-11.095 24.781-24.781 24.781h-276.778c-10.146 0-18.371-8.225-18.371-18.371v36.94c0 12.172 9.868 22.04 22.04 22.04h314.096c23.838 0 43.162-19.324 43.162-43.162v-131.147c-.001-30.951-25.092-56.042-56.043-56.042z" fill="#efaa66"/><path d="m368.957 297.381h22.205v-76.955h-22.205c-6.637 0-12.018 5.38-12.018 12.017v52.92c0 6.637 5.381 12.018 12.018 12.018z" fill="#a7adf1"/><path d="m305.195 364.442h-56.265v40.609h79.839v-57.744c-3.224 9.943-12.557 17.135-23.574 17.135z" fill="#a7adf1"/><ellipse cx="418.585" cy="420.679" fill="#a183e2" rx="56.942" ry="56.942" transform="matrix(.16 -.987 .987 .16 -63.712 766.473)"/><circle cx="141.216" cy="421.384" fill="#a183e2" r="56.942"/><path d="m141.216 364.442c-3.292 0-6.515.295-9.654.832 17.802 3.716 31.175 19.495 31.175 38.4 0 21.667-17.564 39.232-39.231 39.232-18.905 0-34.684-13.374-38.4-31.175-.536 3.14-.832 6.362-.832 9.654 0 31.448 25.494 56.942 56.942 56.942s56.942-25.494 56.942-56.942c0-31.449-25.494-56.943-56.942-56.943z" fill="#9762e2"/><path d="m418.585 364.442c-3.292 0-6.515.295-9.654.832 17.802 3.716 31.175 19.495 31.175 38.4 0 21.667-17.564 39.232-39.231 39.232-18.905 0-34.684-13.374-38.4-31.175-.536 3.14-.832 6.362-.832 9.654 0 31.448 25.494 56.942 56.942 56.942s56.942-25.494 56.942-56.942c0-31.449-25.494-56.943-56.942-56.943z" fill="#9762e2"/><ellipse cx="141.216" cy="421.384" fill="#8bb6ef" rx="16.333" ry="16.333" transform="matrix(.924 -.383 .383 .924 -150.507 86.117)"/><ellipse cx="418.585" cy="421.384" fill="#8bb6ef" rx="16.333" ry="16.333" transform="matrix(.987 -.16 .16 .987 -62.093 72.49)"/><path d="m201.417 300.105h-39.129c-8.085 0-14.638-6.554-14.638-14.638v-39.129c0-8.085 6.554-14.639 14.638-14.639h39.129c8.085 0 14.638 6.554 14.638 14.639v39.129c0 8.084-6.554 14.638-14.638 14.638z" fill="#b2e7f1"/><path d="m102.77 300.105h-39.128c-8.085 0-14.638-6.554-14.638-14.638v-39.129c0-8.085 6.554-14.639 14.638-14.639h39.129c8.084 0 14.638 6.554 14.638 14.639v39.129c0 8.084-6.554 14.638-14.639 14.638z" fill="#b2e7f1"/><path d="m483.944 352.704h14.686v-37.79h-14.686c-10.436 0-18.895 8.46-18.895 18.895-.001 10.436 8.459 18.895 18.895 18.895z" fill="#fef2a8"/></g><g><g fill="#440a29"><path d="m459.684 283.264h-60.294v-52.52c0-36.441-29.647-66.089-66.089-66.089h-267.212c-36.442 0-66.089 29.647-66.089 66.088v152.267c0 17.693 14.393 32.086 32.086 32.086h42.446c-.194 2.071-.304 4.166-.304 6.287 0 36.938 30.05 66.988 66.988 66.988s66.988-30.051 66.988-66.988c0-2.121-.111-4.216-.304-6.287h143.947c-.153 1.842-.251 3.701-.251 5.582 0 36.937 30.051 66.987 66.988 66.987s66.987-30.051 66.987-66.987c0-2.096-.109-4.165-.299-6.212 15.216-2.997 26.728-16.434 26.728-32.514v-46.372c0-28.848-23.469-52.316-52.316-52.316zm24.26 37.677h4.432c2.252 4.396 3.532 9.369 3.532 14.639v11.096h-7.964c-7.095 0-12.868-5.772-12.868-12.867s5.773-12.868 12.868-12.868zm-104.646-90.198v60.609h-10.341c-3.302 0-5.99-2.687-5.99-5.99v-52.92c0-3.303 2.687-5.99 5.99-5.99h10.134c.131 1.415.207 2.844.207 4.291zm-238.082 237.536c-25.858 0-46.896-21.037-46.896-46.896 0-25.858 21.037-46.896 46.896-46.896s46.896 21.037 46.896 46.896-21.037 46.896-46.896 46.896zm0-113.884c-27.575 0-51.305 16.751-61.567 40.609h-47.563c-6.614 0-11.994-5.38-11.994-11.994v-49.276h222.809v61.27h-40.119c-10.261-23.858-33.99-40.609-61.566-40.609zm169.579-116.667c6.586 0 11.945 5.359 11.945 11.945v145.332h-27.864v-157.277zm-27.974 157.276h-27.864v-145.331c0-6.586 5.359-11.945 11.946-11.945h15.918zm135.764 72.57c-25.858 0-46.896-21.037-46.896-46.895s21.037-46.896 46.896-46.896c25.857 0 46.895 21.037 46.895 46.896 0 25.858-21.037 46.895-46.895 46.895zm61.823-72.671c-10.118-24.178-34.016-41.212-61.823-41.212-27.846 0-51.77 17.082-61.864 41.313h-21.926v-145.331c0-13.234-10.766-24-24-24h-43.893c-13.235 0-24.001 10.766-24.001 24v72.007h-222.808v-90.936c0-25.362 20.634-45.996 45.996-45.996h267.213c19.606 0 36.378 12.336 42.984 29.65h-7.329c-9.95 0-18.045 8.096-18.045 18.046v52.92c0 9.95 8.095 18.045 18.045 18.045h22.205c.255 0 .506-.021.753-.052h67.769c7.042 0 13.558 2.277 18.866 6.124-11.157 2.472-19.529 12.438-19.529 24.329 0 13.742 11.18 24.922 24.923 24.922h7.964v23.22c-.001 6.67-5.034 12.179-11.5 12.951z"/><path d="m141.216 399.023c-12.33 0-22.361 10.031-22.361 22.361s10.031 22.361 22.361 22.361 22.361-10.031 22.361-22.361c0-12.331-10.031-22.361-22.361-22.361zm0 32.666c-5.682 0-10.305-4.623-10.305-10.305s4.623-10.305 10.305-10.305c5.683 0 10.305 4.623 10.305 10.305s-4.622 10.305-10.305 10.305z"/><path d="m418.585 399.023c-12.33 0-22.361 10.031-22.361 22.361s10.031 22.361 22.361 22.361c12.329 0 22.36-10.031 22.36-22.361 0-12.331-10.031-22.361-22.36-22.361zm0 32.666c-5.682 0-10.305-4.623-10.305-10.305s4.623-10.305 10.305-10.305c5.681 0 10.304 4.623 10.304 10.305s-4.622 10.305-10.304 10.305z"/><path d="m201.416 225.672h-39.128c-11.395 0-20.667 9.27-20.667 20.666v39.129c0 11.395 9.271 20.665 20.667 20.665h39.128c11.395 0 20.667-9.27 20.667-20.665v-39.129c0-11.395-9.271-20.666-20.667-20.666zm8.611 59.795c0 4.747-3.863 8.61-8.611 8.61h-39.128c-4.749 0-8.611-3.863-8.611-8.61v-39.129c0-4.747 3.863-8.61 8.611-8.61h39.128c4.748 0 8.611 3.863 8.611 8.61z"/><path d="m102.77 225.672h-39.128c-11.395 0-20.667 9.27-20.667 20.666v39.129c0 11.395 9.271 20.665 20.667 20.665h39.129c11.395 0 20.666-9.27 20.666-20.665v-39.129c-.001-11.395-9.271-20.666-20.667-20.666zm8.61 59.795c0 4.747-3.863 8.61-8.61 8.61h-39.128c-4.749 0-8.611-3.863-8.611-8.61v-39.129c0-4.747 3.862-8.61 8.611-8.61h39.129c4.747 0 8.61 3.863 8.61 8.61v39.129z"/><path d="m190.631 259.875c-3.329 0-6.028 2.699-6.028 6.028v12.827c0 3.329 2.699 6.028 6.028 6.028s6.028-2.699 6.028-6.028v-12.827c0-3.329-2.699-6.028-6.028-6.028z"/><path d="m94.173 259.875c-3.329 0-6.028 2.699-6.028 6.028v12.827c0 3.329 2.699 6.028 6.028 6.028s6.028-2.699 6.028-6.028v-12.827c0-3.329-2.699-6.028-6.028-6.028z"/></g><path d="m109.579 212.979c-5.157 0-10.311-.01-15.447-.031-5.549-.023-10.028-4.54-10.005-10.088.023-5.534 4.517-10.005 10.045-10.005h.042c15.616.066 31.401.03 46.916-.102h.087c5.509 0 9.997 4.441 10.044 9.961.047 5.548-4.413 10.084-9.961 10.132-10.494.089-21.113.133-31.721.133z" fill="#fff"/><path d="m65.004 212.846h-4.712c-5.548 0-10.046-4.498-10.046-10.046s4.498-10.046 10.046-10.046h4.712c5.548 0 10.046 4.498 10.046 10.046 0 5.547-4.498 10.046-10.046 10.046z" fill="#fff"/></g><g><ellipse cx="112.433" cy="65.778" fill="#ffe266" rx="18.633" ry="18.633" transform="matrix(.23 -.973 .973 .23 22.583 160.09)"/><path d="m243.189 111.262c0 4.358-3.533 7.891-7.891 7.891s-7.891-3.533-7.891-7.891 3.533-7.891 7.891-7.891 7.891 3.533 7.891 7.891z" fill="#ffe266"/><g fill="#fef2a8"><path d="m308.511 25.514 6.33 17.798c.271.762.807 1.366 1.484 1.671l15.813 7.124c2.234 1.007 2.234 4.566 0 5.573l-15.813 7.124c-.677.305-1.214.909-1.484 1.671l-6.33 17.799c-.894 2.514-4.057 2.514-4.951 0l-6.33-17.799c-.271-.762-.807-1.366-1.484-1.671l-15.813-7.124c-2.234-1.007-2.234-4.566 0-5.573l15.813-7.124c.677-.305 1.214-.909 1.484-1.671l6.33-17.798c.894-2.515 4.057-2.515 4.951 0z"/><path d="m469.501 91.563 8.698 23.994c.372 1.027 1.11 1.841 2.04 2.253l21.729 9.604c3.07 1.357 3.07 6.155 0 7.512l-21.729 9.604c-.93.411-1.668 1.225-2.04 2.253l-8.698 23.994c-1.229 3.39-5.574 3.39-6.803 0l-8.698-23.994c-.372-1.027-1.109-1.841-2.04-2.253l-21.729-9.604c-3.07-1.357-3.07-6.156 0-7.512l21.729-9.604c.93-.411 1.668-1.225 2.04-2.253l8.698-23.994c1.229-3.39 5.574-3.39 6.803 0z"/></g></g></g></svg>