<svg id="Capa_1" enable-background="new 0 0 512 512" height="512" viewBox="0 0 512 512" width="512" xmlns="http://www.w3.org/2000/svg"><g><g><path d="m384.001 500.488h-261.649c-15.132 0-27.399-12.267-27.399-27.399v-381.656c0-15.132 12.267-27.399 27.399-27.399h261.649c15.132 0 27.399 12.267 27.399 27.399v381.656c0 15.132-12.267 27.399-27.399 27.399z" fill="#cab4ef"/><path d="m352.962 193.779h-199.57c-8.223 0-14.889-6.666-14.889-14.889v-54.589c0-8.223 6.666-14.889 14.889-14.889h199.57c8.223 0 14.889 6.666 14.889 14.889v54.589c0 8.223-6.666 14.889-14.889 14.889z" fill="#bdf4e3"/><g fill="#a183e2"><path d="m190.195 287.83h-42.772c-4.927 0-8.921-3.994-8.921-8.921v-42.772c0-4.927 3.994-8.921 8.921-8.921h42.772c4.927 0 8.921 3.994 8.921 8.921v42.772c0 4.927-3.994 8.921-8.921 8.921z"/><path d="m190.195 374.054h-42.772c-4.927 0-8.921-3.994-8.921-8.921v-42.772c0-4.927 3.994-8.921 8.921-8.921h42.772c4.927 0 8.921 3.994 8.921 8.921v42.772c0 4.927-3.994 8.921-8.921 8.921z"/><path d="m190.195 460.278h-42.772c-4.927 0-8.921-3.994-8.921-8.921v-42.772c0-4.927 3.994-8.921 8.921-8.921h42.772c4.927 0 8.921 3.994 8.921 8.921v42.772c0 4.927-3.994 8.921-8.921 8.921z"/><path d="m274.563 287.83h-42.772c-4.927 0-8.921-3.994-8.921-8.921v-42.772c0-4.927 3.994-8.921 8.921-8.921h42.772c4.927 0 8.921 3.994 8.921 8.921v42.772c-.001 4.927-3.994 8.921-8.921 8.921z"/><path d="m274.563 374.054h-42.772c-4.927 0-8.921-3.994-8.921-8.921v-42.772c0-4.927 3.994-8.921 8.921-8.921h42.772c4.927 0 8.921 3.994 8.921 8.921v42.772c-.001 4.927-3.994 8.921-8.921 8.921z"/><path d="m274.563 460.278h-42.772c-4.927 0-8.921-3.994-8.921-8.921v-42.772c0-4.927 3.994-8.921 8.921-8.921h42.772c4.927 0 8.921 3.994 8.921 8.921v42.772c-.001 4.927-3.994 8.921-8.921 8.921z"/><path d="m358.93 287.83h-42.772c-4.927 0-8.921-3.994-8.921-8.921v-42.772c0-4.927 3.994-8.921 8.921-8.921h42.772c4.927 0 8.921 3.994 8.921 8.921v42.772c0 4.927-3.994 8.921-8.921 8.921z"/></g><path d="m358.93 313.44h-42.772c-4.927 0-8.921 3.994-8.921 8.92v64.498 8.702 55.796c0 4.927 3.994 8.92 8.921 8.92h42.772c4.927 0 8.921-3.994 8.921-8.92v-55.796-8.702-64.498c0-4.926-3.994-8.92-8.921-8.92z" fill="#ef8bbd"/><path d="m384.001 64.034h-56.496c12.44 0 22.525 10.084 22.525 22.525v320.888c0 12.44-10.085 22.524-22.525 22.524h-210.028c-12.44 0-22.525-10.084-22.525-22.524v65.643c0 15.132 12.267 27.399 27.399 27.399h261.649c15.132 0 27.399-12.267 27.399-27.399v-381.657c.002-15.132-12.265-27.399-27.398-27.399z" fill="#be87ef"/><path d="m147.423 460.278h42.772c4.927 0 8.92-3.994 8.92-8.92v-21.387h-60.613v21.387c.001 4.926 3.994 8.92 8.921 8.92z" fill="#9762e2"/><path d="m231.791 460.278h42.772c4.927 0 8.921-3.994 8.921-8.92v-21.387h-60.614v21.387c0 4.926 3.994 8.92 8.921 8.92z" fill="#9762e2"/><path d="m358.93 313.44h-8.9v94.006c0 12.44-10.084 22.524-22.524 22.524h-20.268v21.387c0 4.927 3.994 8.92 8.921 8.92h42.772c4.927 0 8.921-3.994 8.921-8.92v-55.796-8.702-64.498c-.001-4.927-3.995-8.921-8.922-8.921z" fill="#e068bd"/><path d="m358.93 227.216h-8.9v60.613h8.9c4.927 0 8.921-3.994 8.921-8.921v-42.772c0-4.926-3.994-8.92-8.921-8.92z" fill="#9762e2"/><path d="m352.962 109.411h-2.932v84.368h2.932c8.223 0 14.889-6.667 14.889-14.889v-54.589c0-8.223-6.666-14.89-14.889-14.89z" fill="#b1b7e3"/></g><g><g fill="#440a29"><path d="m384.001 53.98h-261.649c-20.652 0-37.453 16.801-37.453 37.452v381.656c0 20.652 16.801 37.453 37.453 37.453h261.649c20.652 0 37.453-16.801 37.453-37.453v-381.655c0-20.652-16.801-37.453-37.453-37.453zm17.346 419.109c0 9.564-7.781 17.346-17.346 17.346h-261.649c-9.564 0-17.346-7.782-17.346-17.346v-381.656c0-9.564 7.782-17.346 17.346-17.346h261.649c9.564 0 17.346 7.782 17.346 17.346z"/><path d="m352.962 103.38h-199.57c-11.536 0-20.921 9.385-20.921 20.921v54.589c0 11.536 9.386 20.921 20.921 20.921h199.57c11.536 0 20.921-9.385 20.921-20.921v-54.59c0-11.535-9.386-20.92-20.921-20.92zm8.857 75.51c0 4.884-3.973 8.857-8.858 8.857h-199.57c-4.884 0-8.857-3.973-8.857-8.857v-54.59c0-4.884 3.973-8.857 8.857-8.857h199.57c4.884 0 8.858 3.973 8.858 8.857z"/><path d="m190.195 221.184h-42.772c-8.245 0-14.953 6.708-14.953 14.953v42.772c0 8.245 6.708 14.952 14.953 14.952h42.772c8.245 0 14.952-6.707 14.952-14.952v-42.772c.001-8.245-6.707-14.953-14.952-14.953zm2.889 57.725c0 1.592-1.296 2.888-2.888 2.888h-42.772c-1.593 0-2.889-1.296-2.889-2.888v-42.772c0-1.593 1.296-2.889 2.889-2.889h42.772c1.592 0 2.888 1.296 2.888 2.889z"/><path d="m190.195 307.409h-42.772c-8.245 0-14.953 6.707-14.953 14.952v42.772c0 8.245 6.708 14.953 14.953 14.953h42.772c8.245 0 14.952-6.708 14.952-14.953v-42.772c.001-8.245-6.707-14.952-14.952-14.952zm2.889 57.724c0 1.593-1.296 2.889-2.888 2.889h-42.772c-1.593 0-2.889-1.296-2.889-2.889v-42.772c0-1.592 1.296-2.888 2.889-2.888h42.772c1.592 0 2.888 1.296 2.888 2.888z"/><path d="m190.195 393.632h-42.772c-8.245 0-14.953 6.708-14.953 14.953v42.772c0 8.245 6.708 14.952 14.953 14.952h42.772c8.245 0 14.952-6.707 14.952-14.952v-42.772c.001-8.245-6.707-14.953-14.952-14.953zm2.889 57.725c0 1.592-1.296 2.888-2.888 2.888h-42.772c-1.593 0-2.889-1.296-2.889-2.888v-42.772c0-1.593 1.296-2.889 2.889-2.889h42.772c1.592 0 2.888 1.296 2.888 2.889z"/><path d="m274.563 221.184h-42.772c-8.245 0-14.953 6.708-14.953 14.953v42.772c0 8.245 6.708 14.952 14.953 14.952h42.772c8.245 0 14.952-6.707 14.952-14.952v-42.772c0-8.245-6.708-14.953-14.952-14.953zm2.888 57.725c0 1.592-1.296 2.888-2.888 2.888h-42.772c-1.593 0-2.889-1.296-2.889-2.888v-42.772c0-1.593 1.296-2.889 2.889-2.889h42.772c1.592 0 2.888 1.296 2.888 2.889z"/><path d="m274.563 307.409h-42.772c-8.245 0-14.953 6.707-14.953 14.952v42.772c0 8.245 6.708 14.953 14.953 14.953h42.772c8.245 0 14.952-6.708 14.952-14.953v-42.772c0-8.245-6.708-14.952-14.952-14.952zm2.888 57.724c0 1.593-1.296 2.889-2.888 2.889h-42.772c-1.593 0-2.889-1.296-2.889-2.889v-42.772c0-1.592 1.296-2.888 2.889-2.888h42.772c1.592 0 2.888 1.296 2.888 2.888z"/><path d="m274.563 393.632h-42.772c-8.245 0-14.953 6.708-14.953 14.953v42.772c0 8.245 6.708 14.952 14.953 14.952h42.772c8.245 0 14.952-6.707 14.952-14.952v-42.772c0-8.245-6.708-14.953-14.952-14.953zm2.888 57.725c0 1.592-1.296 2.888-2.888 2.888h-42.772c-1.593 0-2.889-1.296-2.889-2.888v-42.772c0-1.593 1.296-2.889 2.889-2.889h42.772c1.592 0 2.888 1.296 2.888 2.889z"/><path d="m358.93 221.184h-42.772c-8.245 0-14.952 6.708-14.952 14.953v42.772c0 8.245 6.707 14.952 14.952 14.952h42.772c8.245 0 14.953-6.707 14.953-14.952v-42.772c0-8.245-6.708-14.953-14.953-14.953zm2.889 57.725c0 1.592-1.296 2.888-2.889 2.888h-42.772c-1.592 0-2.888-1.296-2.888-2.888v-42.772c0-1.593 1.296-2.889 2.888-2.889h42.772c1.593 0 2.889 1.296 2.889 2.889z"/><path d="m358.93 307.409h-42.772c-8.245 0-14.952 6.707-14.952 14.952v128.996c0 8.245 6.707 14.952 14.952 14.952h42.772c8.245 0 14.953-6.707 14.953-14.952v-128.996c0-8.245-6.708-14.952-14.953-14.952zm2.889 143.948c0 1.592-1.296 2.888-2.889 2.888h-42.772c-1.592 0-2.888-1.296-2.888-2.888v-128.996c0-1.592 1.296-2.888 2.888-2.888h42.772c1.593 0 2.889 1.296 2.889 2.888z"/><path d="m329.59 356.702c-3.331 0-6.032 2.701-6.032 6.032v11.32c0 3.331 2.701 6.032 6.032 6.032s6.032-2.701 6.032-6.032v-11.32c0-3.331-2.701-6.032-6.032-6.032z"/><path d="m346.217 393.632c-3.331 0-6.032 2.701-6.032 6.032v11.32c0 3.331 2.701 6.032 6.032 6.032s6.032-2.701 6.032-6.032v-11.32c0-3.331-2.701-6.032-6.032-6.032z"/></g><path d="m249.633 152.379c-8.273 0-16.546-.068-25.111-.204-5.551-.088-9.981-4.66-9.892-10.211.088-5.551 4.616-9.96 10.212-9.892 16.914.269 32.67.269 49.586 0 .055-.001.109-.001.163-.001 5.478 0 9.962 4.396 10.049 9.894.087 5.551-4.341 10.124-9.892 10.211-8.568.134-16.841.203-25.115.203z" fill="#fff"/><path d="m184.625 152.176h-11.709c-5.552 0-10.053-4.501-10.053-10.053s4.501-10.053 10.053-10.053h11.709c5.552 0 10.053 4.501 10.053 10.053s-4.501 10.053-10.053 10.053z" fill="#fff"/></g><g><path d="m512 102.323c0 10.298-8.348 18.646-18.646 18.646s-18.646-8.348-18.646-18.646 8.348-18.646 18.646-18.646 18.646 8.348 18.646 18.646z" fill="#a183e2"/><ellipse cx="63.905" cy="32.746" fill="#a183e2" rx="7.896" ry="7.896" transform="matrix(.23 -.973 .973 .23 17.353 87.418)"/><g fill="#cab4ef"><path d="m458.162 3.345 6.334 17.811c.271.763.808 1.367 1.486 1.672l15.824 7.129c2.236 1.007 2.236 4.569 0 5.576l-15.824 7.129c-.678.305-1.214.91-1.486 1.672l-6.334 17.811c-.895 2.516-4.06 2.516-4.954 0l-6.334-17.811c-.271-.763-.808-1.367-1.486-1.672l-15.824-7.129c-2.236-1.007-2.236-4.569 0-5.576l15.824-7.129c.678-.305 1.214-.91 1.486-1.672l6.334-17.811c.894-2.516 4.059-2.516 4.954 0z"/><path d="m30.275 80.011 6.334 17.811c.271.762.808 1.367 1.486 1.672l15.824 7.129c2.235 1.007 2.235 4.569 0 5.576l-15.824 7.129c-.678.305-1.215.91-1.486 1.672l-6.334 17.811c-.895 2.516-4.06 2.516-4.955 0l-6.334-17.811c-.271-.763-.808-1.367-1.486-1.672l-15.823-7.128c-2.236-1.007-2.236-4.569 0-5.576l15.824-7.129c.678-.305 1.214-.91 1.486-1.672l6.334-17.811c.895-2.518 4.059-2.518 4.954-.001z"/></g></g></g></svg>