<svg id="Capa_1" enable-background="new 0 0 512 512" height="512" viewBox="0 0 512 512" width="512" xmlns="http://www.w3.org/2000/svg"><g><g><path d="m23.795 46.472h141.665c4.699 0 9.073 2.4 11.597 6.364l162.016 254.469-172.295 4.69-154.602-244.426c-5.79-9.154.787-21.097 11.619-21.097z" fill="#ffa585"/><path d="m214.898 291.277h52.855l-157.194-245.091h-52.855z" fill="#b2e7f1"/><path d="m15.003 59.988c-2.525-3.763-2.129-7.963.147-10.478-5.085 4.14-6.958 11.76-2.974 18.059l109.809 173.608z" fill="#cb2cff"/><path d="m177.057 52.837c-2.524-3.964-6.898-6.365-11.597-6.365h-141.665c-1.873 0-3.614.364-5.191 1.002.794-.195 1.653-.279 2.582-.204l88.273 7.095c2.928.235 5.774 1.968 7.545 4.593l62.917 93.68c25.358 37.757-1.691 88.524-47.173 88.537l-10.762.003 44.793 70.818 172.295-4.691z" fill="#ef7c85"/><g><path d="m185.907 164.129c8.435 21.812 2.076 45.647-13.47 60.943l42.462 66.205h52.855l-81.549-127.148z" fill="#a7adf1"/></g><path d="m488.204 46.472h-137.187c-4.62 0-8.932 2.321-11.476 6.178l-171.078 259.346h175.835l155.505-244.396c5.824-9.152-.751-21.128-11.599-21.128z" fill="#ffa585"/><path d="m488.204 46.472h-25.513l-162.589 224.442-120.748 24.57-10.891 16.511h175.835l155.505-244.395c5.824-9.152-.751-21.128-11.599-21.128z" fill="#ef7c85"/><path d="m297.811 291.277h-52.855l157.194-245.091h52.855z" fill="#b2e7f1"/><ellipse cx="256.039" cy="346.353" fill="#ffe266" rx="119.175" ry="119.175" transform="matrix(.707 -.707 .707 .707 -169.916 282.492)"/><path d="m256.039 227.178c-5.303 0-10.523.351-15.643 1.022 43.217 6.555 76.338 43.865 76.338 88.913 0 49.67-40.265 89.935-89.935 89.935-45.047 0-82.358-33.12-88.912-76.337-.671 5.12-1.022 10.34-1.022 15.642 0 65.819 53.356 119.175 119.175 119.175 65.818 0 119.175-53.356 119.175-119.175-.001-65.818-53.357-119.175-119.176-119.175z" fill="#efaa66"/></g><g fill="#440a29"><path d="m509.063 48.769c-4.18-7.614-12.172-12.344-20.858-12.344h-137.188c-8.021 0-15.448 3.998-19.864 10.693l-74.205 112.492-71.416-112.17c-4.392-6.897-11.895-11.016-20.072-11.016h-141.666c-8.673 0-16.659 4.72-20.843 12.317s-3.902 16.87.734 24.199l136.615 215.99c-8.623 17.309-13.483 36.808-13.483 57.423 0 71.253 57.968 129.223 129.222 129.223 71.253 0 129.223-57.969 129.223-129.223 0-20.929-5.007-40.708-13.877-58.212l136.895-215.147c4.663-7.328 4.963-16.611.783-24.225zm-212.82 174.773s106.615-166.26 107.286-167.023h39.12l-116.452 181.366c-9.242-5.998-19.294-10.844-29.954-14.343zm51.684-165.36c.687-1.042 1.842-1.663 3.09-1.663h38.142l-105.098 163.681c-9.026-2.004-18.402-3.069-28.022-3.069-4.531 0-9.008.237-13.421.694zm-160.391 178.65-115.777-180.313h38.267c.671.763 106.034 165.074 106.034 165.074l-1.579 2.394c-9.529 3.245-18.557 7.58-26.945 12.845zm-18.955-178.6 76.245 119.753-21.506 32.602-98.923-154.068h41.063c1.272 0 2.439.64 3.121 1.713zm-147.914 3.965c-1.018-1.607-.508-3.047-.115-3.763.395-.716 1.339-1.916 3.242-1.916h33.655c.637.765 120.178 187.196 120.178 187.196-9.725 7.447-18.365 16.24-25.638 26.103zm235.372 393.284c-60.173 0-109.128-48.955-109.128-109.128s48.955-109.127 109.128-109.127c60.174 0 109.129 48.955 109.129 109.127 0 60.174-48.955 109.128-109.129 109.128zm235.288-393.274-131.698 206.979c-6.783-9.082-14.731-17.244-23.62-24.267 0 0 120.383-187.711 120.951-188.4h31.244c1.905 0 2.85 1.203 3.244 1.92s.902 2.16-.121 3.768z"/><path d="m256.039 424.18c-42.913 0-77.826-34.913-77.826-77.827 0-42.913 34.913-77.826 77.826-77.826s77.826 34.913 77.826 77.826c0 42.914-34.913 77.827-77.826 77.827zm0-143.597c-36.266 0-65.77 29.504-65.77 65.77s29.504 65.77 65.77 65.77 65.77-29.504 65.77-65.77-29.504-65.77-65.77-65.77z"/><path d="m294.263 356.543c-3.329 0-6.028-2.699-6.028-6.028v-12.828c0-3.329 2.699-6.028 6.028-6.028s6.028 2.699 6.028 6.028v12.828c.001 3.329-2.699 6.028-6.028 6.028z"/><path d="m271.424 393.503c-3.329 0-6.028-2.699-6.028-6.028v-12.828c0-3.329 2.699-6.028 6.028-6.028s6.028 2.699 6.028 6.028v12.828c0 3.328-2.699 6.028-6.028 6.028z"/></g><g><ellipse cx="82.208" cy="412.164" fill="#ffe266" rx="18.634" ry="18.634" transform="matrix(.23 -.973 .973 .23 -337.817 397.476)"/><path d="m438.992 311.996c0 4.358-3.533 7.891-7.891 7.891s-7.891-3.533-7.891-7.891 3.533-7.891 7.891-7.891c4.358-.001 7.891 3.533 7.891 7.891z" fill="#ffe266"/><g fill="#fef2a8"><path d="m68.481 297.7 6.33 17.8c.271.762.807 1.366 1.485 1.671l15.815 7.125c2.234 1.007 2.234 4.566 0 5.573l-15.815 7.125c-.677.305-1.214.909-1.485 1.671l-6.33 17.8c-.894 2.515-4.057 2.515-4.951 0l-6.33-17.8c-.271-.762-.807-1.366-1.485-1.671l-15.815-7.125c-2.234-1.007-2.234-4.566 0-5.573l15.814-7.125c.677-.305 1.214-.909 1.485-1.671l6.33-17.8c.894-2.515 4.057-2.515 4.952 0z"/><path d="m456.068 372.553 8.698 23.996c.373 1.027 1.11 1.842 2.04 2.253l21.731 9.605c3.07 1.357 3.07 6.156 0 7.513l-21.731 9.605c-.93.411-1.668 1.225-2.04 2.253l-8.698 23.996c-1.229 3.39-5.575 3.39-6.804 0l-8.698-23.996c-.372-1.027-1.11-1.841-2.04-2.253l-21.731-9.605c-3.07-1.357-3.07-6.156 0-7.513l21.731-9.605c.931-.411 1.668-1.225 2.04-2.253l8.698-23.996c1.23-3.39 5.575-3.39 6.804 0z"/></g></g></g></svg>