<svg id="Capa_1" enable-background="new 0 0 512 512" height="512" viewBox="0 0 512 512" width="512" xmlns="http://www.w3.org/2000/svg"><g><g><path d="m208.099 395.976h59.466v69.718h-59.466z" fill="#ffe266"/><path d="m208.099 395.976h59.466v69.718h-59.466z" fill="#efaa66"/><path d="m421.948 383.686c-8.553 8.553-22.421 8.553-30.975 0l-336.226-336.226c-8.553-8.553-8.553-22.421 0-30.975 8.554-8.553 22.421-8.553 30.975 0l336.226 336.226c8.553 8.554 8.553 22.422 0 30.975z" fill="#ffe266"/><path d="m421.948 383.686c-8.553 8.553-22.421 8.553-30.975 0l-336.226-336.226c-8.553-8.553-8.553-22.421 0-30.975 8.554-8.553 22.421-8.553 30.975 0l336.226 336.226c8.553 8.554 8.553 22.422 0 30.975z" fill="#efaa66"/><path d="m388.542 273.404c-27.468 56.043-85.397 94.556-152.069 93.821-90.467-.997-164.27-74.801-165.265-165.268-.733-66.671 37.78-124.598 93.822-152.066 12.609-6.18 15.463-22.875 5.534-32.804-6.151-6.151-15.542-7.764-23.355-3.939-69.25 33.897-117.02 105.151-116.863 187.344.219 114.157 93.44 207.377 207.597 207.596 82.193.157 153.446-47.613 187.343-116.862 3.825-7.813 2.212-17.204-3.939-23.355-9.929-9.93-26.625-7.076-32.805 5.533z" fill="#ffe266"/><path d="m311.559 501.914h-147.366c-13.494 0-24.434-10.939-24.434-24.434 0-13.494 10.939-24.434 24.434-24.434h147.366c13.494 0 24.434 10.939 24.434 24.434 0 13.495-10.94 24.434-24.434 24.434z" fill="#ffe266"/><ellipse cx="238.342" cy="200.086" fill="#8bb6ef" rx="129.602" ry="129.602" transform="matrix(.707 -.707 .707 .707 -71.674 227.137)"/><g fill="#bdf4e3"><path d="m267.235 322.849c-24.752-39.312-68.431-32.031-77.167-39.312-12.765-10.638 9.319-31.4-5.824-41.495-21.84-14.56-61.879 9.464-61.879 9.464s7.74 38.928 52.242 62.069 92.628 9.274 92.628 9.274z"/><path d="m117.278 198.141c47.618-3.823 59.272-16.278 60.276-33.721s-42.018-30.127-42.018-30.127-16.705 1.866-22.045 25.601c-5.341 23.734 3.787 38.247 3.787 38.247z"/><path d="m357.962 228.503c-33.327 15.855-100.896 24.61-108.44-13.911-2.575-13.149 7.852-37.565 11.998-43.311 6.344-8.79 6.863-22.192-7.689-25.251-9.548-2.007-22.703-2.695-28.07-17.93-10.297-29.23 41.43-51.113 41.43-51.113s41.472-.201 80.301 52.907c38.83 53.109 10.47 98.609 10.47 98.609z"/></g><path d="m238.342 70.484c-3.952 0-7.86.187-11.722.533 54.137 5.384 96.416 51.061 96.416 106.615 0 59.176-47.972 107.148-107.148 107.148-55.554 0-101.231-42.28-106.615-96.417-.346 3.862-.533 7.77-.533 11.722 0 71.577 58.025 129.602 129.602 129.602s129.602-58.025 129.602-129.602c0-71.576-58.025-129.601-129.602-129.601z" fill="#8388ef"/><path d="m190.068 283.537c-.926-.772-1.65-1.602-2.236-2.472-21.661-5.862-40.597-18.345-54.507-35.145-6.611 2.977-10.96 5.585-10.96 5.585s1.952 9.807 9.521 22.502c13.613 19.568 32.48 35.201 54.561 44.862 40.788 15.5 80.789 3.978 80.789 3.978-24.753-39.31-68.432-32.03-77.168-39.31z" fill="#b1b7e3"/><path d="m357.962 228.503s8.518-13.67 9.825-34.768c-1.178-24.397-9.098-47.024-21.942-66.057-38.345-50.883-78.653-50.691-78.653-50.691s-2.669 1.13-6.668 3.215c36.89 16.928 62.511 54.184 62.511 97.43 0 24.112-7.966 46.363-21.408 64.268 20.031-.732 41.551-6.364 56.335-13.397z" fill="#b1b7e3"/><path d="m179.732 135.992c-2.217 0-4.448-.727-6.31-2.223-4.343-3.489-5.035-9.837-1.546-14.179 10.338-12.867 26.022-18.992 26.685-19.246 5.201-1.997 11.034.6 13.03 5.801 1.993 5.19-.592 11.012-5.773 13.019-.271.107-11.407 4.582-18.218 13.059-1.992 2.479-4.917 3.769-7.868 3.769z" fill="#fff"/></g><g fill="#440a29"><path d="m421.948 383.686h.01z"/><path d="m429.08 345.581-15.646-15.646c7.967-10.724 14.989-22.178 20.91-34.275 5.712-11.667 3.354-25.701-5.866-34.92-7.043-7.043-16.711-10.144-26.534-8.513-9.718 1.617-18.114 7.874-22.458 16.739-2.929 5.976-6.235 11.697-9.847 17.175l-12.56-12.56c13.271-21.364 20.949-46.548 20.949-73.495 0-77.023-62.663-139.687-139.688-139.687-26.947 0-52.131 7.678-73.494 20.949l-12.553-12.553c5.478-3.611 11.2-6.918 17.175-9.846 8.864-4.345 15.121-12.741 16.738-22.459 1.634-9.819-1.469-19.49-8.512-26.533-9.22-9.22-23.253-11.576-34.92-5.866-12.096 5.92-23.55 12.942-34.274 20.909l-15.646-15.646c-12.473-12.472-32.766-12.471-45.239 0-12.471 12.472-12.471 32.765 0 45.238l15.636 15.636c-3.149 4.238-6.161 8.59-9.01 13.065-22.31 35.044-34.06 75.577-33.98 117.218.203 106.161 76.921 194.915 177.752 213.898v28.552h-33.82c-19.034 0-34.519 15.485-34.519 34.519s15.485 34.52 34.519 34.52h147.366c19.034 0 34.519-15.485 34.519-34.52 0-19.034-15.485-34.519-34.519-34.519h-33.909v-28.355c27.443-5.022 53.731-15.289 77.491-30.416 4.475-2.849 8.827-5.86 13.064-9.009l15.636 15.636c6.042 6.042 14.074 9.37 22.619 9.37s16.577-3.328 22.619-9.369c12.473-12.473 12.472-32.766.001-45.237zm-71.723-43.198c-5.176 5.987-10.784 11.55-16.756 16.667l-12.241-12.242c6.028-5.092 11.619-10.684 16.71-16.711zm-250.215-188.264 12.465 12.465c-13.274 21.365-20.953 46.551-20.953 73.501 0 77.024 62.663 139.688 139.687 139.688 26.95 0 52.137-7.68 73.502-20.954l12.473 12.473c-25.665 16.823-56.128 26.204-87.732 25.847-84.697-.933-154.36-70.598-155.291-155.293-.348-31.607 9.032-62.067 25.849-87.727zm79.052 174.067c3.8 3.167 9.744 4.133 17.971 5.47 14.784 2.403 36.272 5.911 52.196 24.589-5.879.893-11.896 1.358-18.02 1.358-46.726 0-87.268-26.958-106.909-66.133 13.091-6.52 36.529-15.008 49.455-6.394 3.677 2.452 3.528 5.511 1.102 14.757-2.075 7.913-4.919 18.749 4.205 26.353zm-51.368-147.785c16.002 4.897 37.152 15.587 36.687 23.671-.471 8.179-1.343 23.3-52.402 27.839 1.266-18.66 6.829-36.159 15.715-51.51zm223.032 59.685c0 7.806-.761 15.437-2.197 22.829-.099.041-.2.077-.298.124-25.145 11.962-65.871 17.818-86.415 7.467-7.572-3.815-11.983-9.401-13.487-17.077-2.11-10.773 7.444-33.726 10.966-38.607 5.18-7.176 6.747-15.896 4.092-22.758-2.366-6.114-7.85-10.36-15.442-11.955-1.1-.231-2.248-.447-3.424-.667-10.311-1.929-16.815-3.791-20.184-13.353-6.928-19.664 25.052-37.185 35.126-42.137 52.31 12.728 91.263 59.964 91.263 116.134zm-110.619-119.185c-15.625 10.062-34.841 27.476-27.184 49.21 5.933 16.842 20.039 19.481 29.373 21.227 1.086.203 2.144.401 3.16.614 3.548.746 5.783 2.253 6.645 4.479 1.157 2.99.104 7.535-2.619 11.309-4.534 6.284-16.057 32.552-13.029 48.015 2.206 11.269 9.095 20.106 19.918 25.56 9.554 4.813 21.368 6.75 33.717 6.75 19.049 0 39.349-4.615 54.579-10.393-12.562 37.823-43.542 67.313-82.259 77.792-19.038-26.519-46.623-31.021-63.433-33.754-4.825-.784-10.831-1.76-12.165-2.821-2.908-2.424-2.309-6.123-.246-13.983 2.119-8.079 5.323-20.287-6.095-27.899-18.847-12.565-47.61-1.203-61.03 5.395-4.551-11.981-7.228-24.876-7.672-38.329 43.948-3.703 63.325-15.485 64.696-39.305 1.062-18.47-28.968-30.545-41.919-34.879 21.748-29.866 56.975-49.319 96.665-49.319 2.993 0 5.96.113 8.898.331zm-98.908 12.457c-6.028 5.092-11.62 10.683-16.712 16.711l-12.234-12.234c5.116-5.973 10.679-11.581 16.666-16.757zm-86.452-53.029c-4.607-4.607-4.607-12.104 0-16.712 2.304-2.304 5.329-3.455 8.356-3.455 3.025 0 6.052 1.152 8.356 3.455l14.197 14.197c-5.861 5.262-11.429 10.85-16.7 16.724zm264.029 437.152c0 7.912-6.437 14.348-14.348 14.348h-147.367c-7.912 0-14.348-6.436-14.348-14.348s6.436-14.348 14.348-14.348h147.366c7.912 0 14.349 6.436 14.349 14.348zm-68.428-34.519h-39.295v-25.733c6.504.601 13.085.931 19.739.944h.421c6.411 0 12.794-.283 19.136-.839v25.628zm-19.148-44.96c-.119 0-.25 0-.369 0-108.711-.209-197.323-88.82-197.531-197.53-.144-75.152 43.509-145.126 111.212-178.266 1.421-.696 2.948-1.033 4.466-1.033 2.678 0 5.328 1.051 7.323 3.046 2.381 2.38 3.43 5.646 2.878 8.96-.558 3.358-2.643 6.149-5.718 7.656-29.653 14.533-54.653 37.014-72.296 65.01-18.152 28.804-27.548 62.078-27.172 96.223.51 46.405 18.989 90.161 52.033 123.205 33.045 33.045 76.8 51.525 123.205 52.037 34.135.363 67.42-9.02 96.225-27.171 27.997-17.643 50.478-42.643 65.012-72.296 1.507-3.076 4.298-5.16 7.656-5.719 3.316-.552 6.579.498 8.961 2.878 3.125 3.125 3.934 7.863 2.012 11.789-33.088 67.594-102.881 111.211-177.897 111.211zm176.484-21.447c-2.232 2.231-5.199 3.461-8.356 3.461-3.156 0-6.123-1.229-8.355-3.461l-14.209-14.209c5.873-5.271 11.462-10.838 16.723-16.699l14.197 14.196c4.608 4.608 4.608 12.105 0 16.712z"/><path d="m291.082 143.122c-3.342 0-6.051-2.709-6.051-6.051v-8.514c0-3.342 2.71-6.051 6.051-6.051s6.051 2.71 6.051 6.051v8.514c0 3.341-2.709 6.051-6.051 6.051z"/><path d="m321.716 165.178c-3.342 0-6.051-2.71-6.051-6.051v-8.513c0-3.342 2.71-6.051 6.051-6.051 3.342 0 6.051 2.71 6.051 6.051v8.513c0 3.341-2.71 6.051-6.051 6.051z"/><path d="m297.514 192.136c-3.342 0-6.051-2.71-6.051-6.051v-8.513c0-3.342 2.71-6.051 6.051-6.051 3.342 0 6.051 2.71 6.051 6.051v8.513c.001 3.341-2.709 6.051-6.051 6.051z"/></g><g><ellipse cx="48.332" cy="421.838" fill="#ffe266" rx="18.705" ry="18.706" transform="matrix(.189 -.982 .982 .189 -375.034 389.525)"/><ellipse cx="313.794" cy="32.261" fill="#ffe266" rx="7.922" ry="7.921" transform="matrix(.16 -.987 .987 .16 231.685 336.836)"/><g fill="#fef2a8"><path d="m466.338 152.333 6.354 17.868c.272.765.81 1.371 1.49 1.678l15.875 7.152c2.243 1.011 2.243 4.584 0 5.594l-15.875 7.152c-.68.306-1.218.912-1.49 1.677l-6.354 17.868c-.898 2.524-4.073 2.524-4.97 0l-6.355-17.868c-.272-.765-.81-1.371-1.49-1.677l-15.875-7.152c-2.243-1.01-2.243-4.584 0-5.594l15.875-7.152c.68-.306 1.218-.913 1.49-1.678l6.355-17.868c.897-2.525 4.072-2.525 4.97 0z"/><path d="m430.759 16.634 8.732 24.088c.374 1.031 1.114 1.849 2.048 2.262l21.814 9.642c3.082 1.362 3.082 6.18 0 7.542l-21.814 9.642c-.934.413-1.674 1.23-2.048 2.261l-8.732 24.088c-1.234 3.403-5.596 3.403-6.83 0l-8.732-24.088c-.374-1.031-1.114-1.849-2.048-2.261l-21.814-9.642c-3.082-1.362-3.082-6.18 0-7.542l21.814-9.642c.934-.413 1.674-1.23 2.048-2.262l8.732-24.088c1.234-3.403 5.597-3.403 6.83 0z"/></g></g></g></svg>