<svg id="Capa_1" enable-background="new 0 0 512 512" height="512" viewBox="0 0 512 512" width="512" xmlns="http://www.w3.org/2000/svg"><g><g><path d="m71.222 280.661h46.652v188.73h-46.652z" fill="#cab4ef" transform="matrix(.886 -.464 .464 .886 -163.221 86.688)"/><path d="m86.735 66.593h46.652v263.683h-46.652z" fill="#cab4ef" transform="matrix(.896 .444 -.444 .896 99.421 -28.229)"/><path d="m383.344 197.682c-10.396 18.006-33.421 24.176-51.427 13.78l-40.4-23.325c-18.006-10.396-24.176-33.421-13.78-51.427 10.396-18.006 33.421-24.176 51.427-13.78l40.4 23.325c18.006 10.396 24.175 33.42 13.78 51.427z" fill="#fef2a8"/><path d="m225.686 64.689-35.439 61.383c-5.512 9.547-17.719 12.818-27.266 7.306l-39.549-22.833c-16.027-9.253-21.518-29.747-12.265-45.774l21.891-37.916c9.253-16.027 29.747-21.519 45.774-12.265l39.549 22.833c9.546 5.512 12.817 17.719 7.305 27.266z" fill="#a183e2"/><path d="m373.52 99.064c3.11-5.386 1.986-12.195-2.644-16.348-9.023-8.093-19.205-15.521-30.43-22.002-64.405-37.184-138.628-29.204-165.78 17.826-27.152 47.029 3.048 115.298 67.453 152.483 11.225 6.481 22.748 11.585 34.269 15.352 5.911 1.933 12.37-.498 15.48-5.884z" fill="#a183e2"/><path d="m370.876 82.716c-9.023-8.093-19.205-15.52-30.43-22.001-64.405-37.185-138.628-29.205-165.78 17.824 19.098-33.078 71.303-38.691 116.603-12.537 7.895 4.559 15.057 9.783 21.403 15.475 3.256 2.921 4.047 7.71 1.86 11.499l-57.431 99.473c-2.187 3.788-6.73 5.498-10.888 4.138-8.103-2.649-16.208-6.24-24.103-10.798-45.3-26.154-66.542-74.171-47.444-107.25-27.152 47.03 3.048 115.299 67.454 152.483 11.225 6.481 22.748 11.585 34.269 15.352 5.911 1.933 12.37-.498 15.48-5.884l81.651-141.426c3.11-5.386 1.986-12.195-2.644-16.348z" fill="#9762e2"/><circle cx="56.826" cy="303.013" fill="#ffe266" r="34.638"/><path d="m56.826 268.374c-1.85 0-3.666.149-5.437.428 11.43 2.14 20.082 12.163 20.082 24.213 0 13.609-11.032 24.642-24.641 24.642-12.05 0-22.074-8.652-24.213-20.082-.279 1.772-.428 3.587-.428 5.437 0 19.13 15.508 34.638 34.638 34.638s34.638-15.508 34.638-34.638-15.509-34.638-34.639-34.638z" fill="#efaa66"/><path d="m228.328 453.899h-11.99c-10.595 0-19.183-8.589-19.183-19.183v-11.99c0-10.595 8.589-19.183 19.183-19.183h11.99c10.595 0 19.183 8.589 19.183 19.183v11.99c0 10.594-8.589 19.183-19.183 19.183z" fill="#ffe266"/><path d="m317.006 501.919h-265.751c0-33.809 27.407-61.216 61.216-61.216h143.319c33.809-.001 61.216 27.407 61.216 61.216z" fill="#a183e2"/><path d="m255.79 440.702h-44.463c21.208 0 38.4 17.193 38.4 38.401h-194.061c-2.836 7.053-4.411 14.748-4.411 22.816h265.751c0-33.809-27.408-61.217-61.216-61.217z" fill="#9762e2"/></g><g><g fill="#440a29"><path d="m374.604 137.524-8.735-5.043 16.382-28.375c5.45-9.44 3.498-21.592-4.643-28.894-9.72-8.719-20.527-16.534-32.121-23.228-32.987-19.045-69.557-27.551-102.979-23.961-5.526.594-10.861 1.509-15.989 2.725-.977-.74-2.01-1.428-3.099-2.056l-39.547-22.833c-10.084-5.822-21.829-7.368-33.078-4.355-11.247 3.013-20.647 10.226-26.468 20.31l-21.891 37.916c-11.033 19.111-5.894 43.183 11.128 56.299l-71.669 144.836c-17.338 6.16-29.789 22.724-29.789 42.148 0 19.096 12.035 35.427 28.916 41.826l47.167 90.045c-27.394 9.954-47.016 36.244-47.016 67.034 0 5.568 4.514 10.082 10.082 10.082h265.751c5.568 0 10.082-4.514 10.082-10.082 0-38.709-31.013-70.289-69.495-71.252v-7.941c0-16.137-13.128-29.264-29.265-29.264h-11.991c-16.137 0-29.264 13.128-29.264 29.264v7.896h-25.69l-61.17-116.778c.866-3.469 1.333-7.096 1.333-10.829 0-3.374-.388-6.657-1.099-9.819l64.513-130.375c13.629 30.632 39.229 57.946 72.119 76.935 11.593 6.694 23.765 12.146 36.176 16.204 2.364.773 4.785 1.144 7.179 1.144 8.133 0 15.954-4.276 20.164-11.569l17.542-30.382 8.736 5.044c7.498 4.329 15.691 6.385 23.784 6.385 16.507 0 32.585-8.561 41.416-23.854 0-.001 0-.001 0-.001 13.157-22.795 5.32-52.043-17.472-65.202zm-254.706-67.713 21.891-37.916c3.129-5.419 8.18-9.295 14.225-10.915 2.019-.541 4.067-.808 6.102-.808 4.059 0 8.066 1.065 11.676 3.148l28.277 16.326c-15.415 7.895-27.764 19.357-36.133 33.852-7.585 13.137-11.37 27.861-11.368 43.38l-26.094-15.065c-11.188-6.458-15.035-20.815-8.576-32.002zm-63.072 208.645c13.54 0 24.556 11.016 24.556 24.556s-11.016 24.556-24.556 24.556-24.556-11.015-24.556-24.555c0-13.541 11.016-24.557 24.556-24.557zm249.1 213.381h-243.591c4.694-23.384 25.391-41.053 50.137-41.053h143.318c24.745 0 45.441 17.669 50.136 41.053zm-98.69-69.112c0-5.018 4.083-9.101 9.101-9.101h11.991c5.018 0 9.101 4.083 9.101 9.101v7.896h-30.193zm-94.765 7.895c-1.242 0-2.477.033-3.704.096l-43.859-83.73c9.063-1.662 17.183-6.054 23.459-12.304l50.254 95.938zm-47.206-171.518 65.62-132.614 22.988 13.272-65.244 131.851c-6.23-6.309-14.317-10.774-23.364-12.509zm217.87-23.652c-.722 1.251-2.207 1.803-3.614 1.341-11.086-3.625-21.974-8.503-32.361-14.501-29.313-16.924-51.999-41.037-63.882-67.897-11.405-25.78-11.363-50.929.118-70.814 13.787-23.878 41.655-36.262 74.044-36.262 24.77 0 52.186 7.243 77.965 22.127 10.387 5.997 20.055 12.987 28.739 20.776 1.102.988 1.366 2.551.645 3.801v.001zm91.478-42.81c-7.602 13.164-24.492 17.69-37.656 10.09l-8.736-5.044 27.566-47.745 8.735 5.043c13.164 7.602 17.691 24.494 10.091 37.656z"/><path d="m254.659 170.915c-3.341 0-6.049 2.708-6.049 6.049v12.872c0 3.34 2.708 6.049 6.049 6.049 3.34 0 6.049-2.708 6.049-6.049v-12.872c0-3.341-2.709-6.049-6.049-6.049z"/><path d="m279.703 143.1c-3.341 0-6.049 2.708-6.049 6.049v12.872c0 3.341 2.708 6.049 6.049 6.049s6.049-2.708 6.049-6.049v-12.872c0-3.34-2.708-6.049-6.049-6.049z"/></g><path d="m250.681 85.497c-.483 0-.973-.035-1.465-.107-1.725-.251-3.444-.407-5.11-.465-5.565-.193-9.919-4.859-9.727-10.424s4.838-9.914 10.424-9.728c2.401.083 4.864.306 7.317.664 5.509.802 9.327 5.919 8.524 11.429-.73 5.017-5.038 8.631-9.963 8.631z" fill="#fff"/><path d="m199.401 118.387c-1.119 0-2.257-.188-3.372-.583-5.247-1.862-7.992-7.626-6.129-12.873 3.308-9.323 8.698-17.927 15.587-24.882 3.917-3.956 10.3-3.987 14.257-.068 3.956 3.918 3.986 10.302.068 14.258-4.814 4.861-8.587 10.891-10.911 17.436-1.465 4.131-5.352 6.712-9.5 6.712z" fill="#fff"/></g><g><path d="m472.739 86.017c0 10.327-8.372 18.698-18.698 18.698-10.327 0-18.699-8.371-18.699-18.698s8.372-18.699 18.699-18.699c10.326.001 18.698 8.372 18.698 18.699z" fill="#ffe266"/><ellipse cx="423.033" cy="367.056" fill="#ffe266" rx="7.919" ry="7.919" transform="matrix(.23 -.973 .973 .23 -31.398 694.44)"/><g fill="#fef2a8"><path d="m474.502 177.123 6.352 17.861c.272.765.81 1.371 1.49 1.677l15.869 7.15c2.242 1.01 2.242 4.582 0 5.592l-15.869 7.15c-.68.306-1.218.912-1.49 1.677l-6.352 17.861c-.897 2.523-4.071 2.523-4.969 0l-6.352-17.861c-.272-.765-.81-1.371-1.49-1.677l-15.869-7.15c-2.242-1.01-2.242-4.582 0-5.592l15.869-7.15c.68-.306 1.218-.912 1.49-1.677l6.352-17.861c.897-2.524 4.071-2.524 4.969 0z"/><path d="m360.326 280.835 8.728 24.078c.374 1.031 1.114 1.848 2.047 2.261l21.805 9.638c3.081 1.362 3.081 6.177 0 7.539l-21.805 9.638c-.934.413-1.673 1.23-2.047 2.26l-8.728 24.078c-1.233 3.402-5.594 3.402-6.827 0l-8.728-24.078c-.374-1.031-1.113-1.848-2.047-2.26l-21.805-9.638c-3.081-1.362-3.081-6.177 0-7.539l21.805-9.638c.934-.413 1.674-1.23 2.047-2.261l8.728-24.078c1.233-3.402 5.594-3.402 6.827 0z"/></g></g></g></svg>