<svg id="Capa_1" enable-background="new 0 0 512 512" height="512" viewBox="0 0 512 512" width="512" xmlns="http://www.w3.org/2000/svg"><g><g><path d="m190.92 340.814h59.649v48.638h-59.649z" fill="#a183e2"/><g fill="#cab4ef"><path d="m192.758 343.187-40.151-18.421c0-37.631 30.506-68.138 68.137-68.138 37.631 0 68.137 30.506 68.137 68.138l-44.496 18.421z"/><path d="m239.973 285.281h-38.456c-47.787 0-86.527-38.739-86.527-86.527 0-47.787 38.739-86.527 86.527-86.527h38.456c47.787 0 86.527 38.739 86.527 86.527 0 47.787-38.74 86.527-86.527 86.527z"/><path d="m321.376 241.785c10.588-6.768 19.664-17.182 20.819-35.003v-10.743c0-59.496-46.707-107.726-104.323-107.726h-34.254c-57.616 0-104.323 48.231-104.323 107.726v10.743c.736 18.863 11.66 28.929 19.391 35.524l21.161-69.521 25.088 18.168 27.354-21.426 28.456 21.602 29.553-23.391 30.301 23.551 20.526-19.514z"/></g><path d="m245.301 88.349c24.758 15.822 41.174 43.548 41.174 75.11 0 49.195-39.88 89.074-89.074 89.074h-39.589c-14.254 0-27.724-3.354-39.67-9.307 17.808 25.426 47.319 42.055 80.717 42.055h43.771c54.391 0 98.484-44.093 98.484-98.484v-.001c0-53.498-42.657-97.031-95.813-98.447z" fill="#be87ef"/><path d="m122.228 405.996h201.154v95.989h-201.154z" fill="#d49c8d"/><path d="m322.151 426.039h-202.813c-11.07 0-20.044-8.974-20.044-20.044 0-11.07 8.974-20.044 20.044-20.044h202.813c11.07 0 20.044 8.974 20.044 20.044 0 11.07-8.974 20.044-20.044 20.044z" fill="#b07676"/><path d="m366.597 304.29-22.771 6.448c-5.684 1.61-10.932-3.638-9.322-9.323l6.448-22.77 92.613-92.613 25.645 25.645z" fill="#fef2a8"/><path d="m447.798 218.71-21.266-21.266c-7.388-7.388-7.388-19.367 0-26.755 7.388-7.388 19.367-7.388 26.755 0l21.266 21.266c7.388 7.388 7.388 19.367 0 26.755-7.388 7.388-19.367 7.388-26.755 0z" fill="#fef2a8"/><path d="m124.49 426.039h198.892v37.189h-198.892z" fill="#c7758d"/></g><g><g fill="#440a29"><path d="m322.151 375.937h-61.567v-28.617l32.13-13.301c3.743-1.549 6.184-5.202 6.184-9.253 0-15.301-4.433-29.579-12.065-41.643 15.067-8.403 27.667-20.716 36.405-35.569 1.055.363 2.16.55 3.271.55 2.226 0 4.466-.738 6.326-2.255 11.815-9.64 18.328-22.567 19.355-38.421.014-.215.021-.431.021-.647v-10.742c0-64.923-51.292-117.742-114.338-117.742h-34.254c-63.046 0-114.337 52.818-114.337 117.742v10.742c0 .13.002.26.008.39.514 13.192 5.124 24.436 14.092 34.376 3.265 3.619 8.569 4.296 12.593 1.871 8.751 16.695 22.243 30.524 38.676 39.695-7.632 12.066-12.057 26.351-12.057 41.653 0 3.915 2.281 7.47 5.839 9.102l32.475 14.899v27.17h-61.568c-16.574 0-30.058 13.484-30.058 30.058 0 14.119 9.788 25.99 22.934 29.198v66.792c0 5.531 4.484 10.015 10.015 10.015h201.153c5.531 0 10.015-4.484 10.015-10.015v-68.122c11.018-4.462 18.814-15.269 18.814-27.868-.003-16.574-13.488-30.058-30.062-30.058zm-212.842-169.362v-10.536c0-53.879 42.307-97.712 94.308-97.712h34.254c52.001 0 94.309 43.834 94.309 97.712v10.403c-.611 8.582-3.423 15.316-8.737 20.864l-16.547-57.2c-.583-2.016-2.176-3.581-4.201-4.13-2.022-.55-4.191-.002-5.711 1.445l-16.78 15.952-26.219-20.378c-2.184-1.697-5.247-1.684-7.417.032l-25.9 20.501-24.746-18.786c-2.174-1.651-5.188-1.629-7.338.056l-23.791 18.635-21.422-15.512c-1.572-1.138-3.598-1.448-5.439-.829s-3.269 2.089-3.834 3.946l-16.979 55.783c-4.977-5.991-7.472-12.47-7.81-20.246zm20.679 19.235 13.155-43.219 18.267 13.228c2.172 1.573 5.12 1.517 7.229-.136l23.706-18.569 24.766 18.801c2.184 1.658 5.214 1.626 7.362-.074l25.857-20.467 26.58 20.659c2.345 1.825 5.673 1.66 7.827-.389l13.361-12.702 12.837 44.376c-11.342 28.078-38.87 47.948-70.963 47.948h-38.457c-32.661 0-60.576-20.587-71.527-49.456zm43.416 65.302c8.898 2.715 18.336 4.183 28.112 4.183h38.457c9.776 0 19.212-1.471 28.111-4.186 5.585 7.828 9.29 17.085 10.419 27.116l-36.107 14.948h-47.45l-31.988-14.676c1.092-10.135 4.811-19.488 10.446-27.385zm27.531 62.09h39.619v22.736h-39.619zm-81.597 42.765h202.813c5.531 0 10.029 4.499 10.029 10.028 0 5.531-4.499 10.029-10.029 10.029h-202.813c-5.53 0-10.029-4.499-10.029-10.029 0-5.529 4.499-10.028 10.029-10.028zm12.905 96.004v-55.917h181.124v55.917z"/><path d="m481.634 184.873-21.266-21.267c-11.28-11.279-29.636-11.279-40.918 0-7.945 7.945-10.286 19.397-7.041 29.417l-78.539 78.539c-1.209 1.21-2.088 2.708-2.555 4.353l-6.448 22.771c-1.732 6.118-.015 12.711 4.481 17.207 3.338 3.338 7.831 5.143 12.427 5.143 1.595 0 3.203-.217 4.779-.663l22.771-6.448c1.645-.466 3.143-1.346 4.353-2.555l78.525-78.525c2.86.93 5.878 1.42 8.972 1.42 7.729 0 14.996-3.009 20.459-8.474 5.466-5.464 8.475-12.731 8.475-20.46 0-7.727-3.009-14.994-8.475-20.458zm-120.274 110.491-16.019 4.536 4.536-16.019 74.465-74.464 11.482 11.481zm106.111-83.735c-1.682 1.681-3.918 2.607-6.296 2.607s-4.613-.926-6.295-2.607c0-.001 0-.001 0-.001l-21.267-21.266c-1.682-1.682-2.608-3.918-2.608-6.296s.926-4.614 2.607-6.296c1.737-1.736 4.017-2.603 6.297-2.603s4.56.867 6.295 2.603l21.267 21.267c1.681 1.682 2.607 3.918 2.607 6.295.001 2.378-.925 4.614-2.607 6.297z"/><path d="m283.785 457.22c-3.318 0-6.009 2.69-6.009 6.009v12.786c0 3.318 2.69 6.009 6.009 6.009 3.318 0 6.009-2.69 6.009-6.009v-12.786c0-3.319-2.691-6.009-6.009-6.009z"/><path d="m248.214 444.432c-3.318 0-6.009 2.69-6.009 6.009v12.787c0 3.318 2.69 6.009 6.009 6.009 3.318 0 6.009-2.691 6.009-6.009v-12.787c0-3.318-2.691-6.009-6.009-6.009z"/><path d="m267.326 250.492c3.318 0 6.009-2.69 6.009-6.009v-12.786c0-3.318-2.69-6.009-6.009-6.009-3.318 0-6.009 2.69-6.009 6.009v12.786c.001 3.318 2.691 6.009 6.009 6.009z"/></g><path d="m152.6 156.667c-2.111 0-4.238-.665-6.048-2.039-4.405-3.345-5.265-9.626-1.921-14.032 6.045-7.963 13.423-14.6 21.927-19.727 4.736-2.856 10.891-1.33 13.747 3.406 2.856 4.737 1.331 10.892-3.406 13.748-6.322 3.811-11.811 8.752-16.315 14.684-1.97 2.595-4.96 3.96-7.984 3.96z" fill="#fff"/><path d="m201.082 129.747c-4.881 0-9.156-3.574-9.893-8.547-.812-5.471 2.966-10.564 8.437-11.375 1.586-.279 2.698-.371 4.234-.364 5.537-.061 10.103 4.281 10.215 9.81.111 5.531-4.281 10.104-9.811 10.215-.999-.041-2.139.293-3.182.261z" fill="#fff"/></g><g><path d="m335.788 18.574c0 10.258-8.316 18.574-18.574 18.574s-18.574-8.316-18.574-18.574c-.001-10.258 8.315-18.574 18.574-18.574 10.258 0 18.574 8.316 18.574 18.574z" fill="#a183e2"/><circle cx="57.448" cy="105.743" fill="#a183e2" r="7.866"/><g fill="#cab4ef"><path d="m52.05 265.1 6.31 17.742c.27.759.805 1.361 1.48 1.666l15.763 7.102c2.227 1.003 2.227 4.552 0 5.555l-15.763 7.102c-.675.304-1.21.906-1.48 1.666l-6.31 17.742c-.892 2.506-4.044 2.506-4.935 0l-6.31-17.742c-.27-.76-.805-1.362-1.48-1.666l-15.763-7.102c-2.227-1.003-2.227-4.552 0-5.555l15.763-7.102c.675-.304 1.21-.906 1.48-1.666l6.31-17.742c.891-2.506 4.043-2.506 4.935 0z"/><path d="m400.101 53.304 8.67 23.918c.371 1.024 1.106 1.836 2.034 2.246l21.66 9.574c3.06 1.353 3.06 6.136 0 7.489l-21.66 9.574c-.927.41-1.662 1.222-2.034 2.246l-8.67 23.919c-1.225 3.379-5.557 3.379-6.782 0l-8.67-23.919c-.371-1.024-1.106-1.836-2.034-2.246l-21.66-9.574c-3.06-1.353-3.06-6.136 0-7.489l21.66-9.574c.927-.41 1.662-1.221 2.034-2.246l8.67-23.918c1.225-3.38 5.557-3.38 6.782 0z"/></g></g></g></svg>