<svg id="Capa_1" enable-background="new 0 0 512 512" height="512" viewBox="0 0 512 512" width="512" xmlns="http://www.w3.org/2000/svg"><g><g><path d="m408.945 25.893c27.12 2.29 53.232 20.443 66.236 49.168 13.277 29.327 9.258 61.651-7.791 83.578" fill="#b2e7f1"/><path d="m48.96 234.797h75.921v34.358h-75.921z" fill="#b2e7f1" transform="matrix(.911 -.412 .412 .911 -96.185 58.276)"/><path d="m12.895 266.29 14.427 31.867c4.029 8.9 14.511 12.849 23.411 8.819 8.9-4.029 12.849-14.511 8.819-23.411l-14.427-31.867c-4.029-8.9-14.511-12.849-23.411-8.82-8.9 4.03-12.849 14.512-8.819 23.412z" fill="#ffe266"/><path d="m183.13 241.87-65.43 29.622c-7.247 3.281-15.781.066-19.062-7.181l-14.112-31.172c-3.281-7.247-.066-15.781 7.181-19.062l65.43-29.622c7.247-3.281 15.781-.066 19.062 7.181l14.112 31.172c3.281 7.247.066 15.781-7.181 19.062z" fill="#8bb6ef"/><path d="m183.13 241.87-65.43 29.622c-7.247 3.281-15.781.066-19.062-7.181l-14.112-31.172c-3.281-7.247-.066-15.781 7.181-19.062l65.43-29.622c7.247-3.281 15.781-.066 19.062 7.181l14.112 31.172c3.281 7.247.066 15.781-7.181 19.062z" fill="#8bb6ef"/><path d="m190.311 222.809-14.112-31.172c-1.576-3.481-4.369-6.018-7.644-7.366l6.097 13.468c3.281 7.247.066 15.781-7.181 19.062l-65.43 29.622c-3.766 1.705-7.874 1.642-11.418.185l8.015 17.703c3.281 7.246 11.815 10.461 19.062 7.181l65.43-29.622c7.247-3.281 10.462-11.815 7.181-19.061z" fill="#8388ef"/><path d="m329.35 204.807-117.535 53.211c-7.964 3.605-17.342.072-20.947-7.891l-34.829-76.932c-3.605-7.964-.072-17.342 7.891-20.947l117.535-53.211c7.963-3.605 17.342-.072 20.947 7.891l34.829 76.932c3.605 7.963.072 17.341-7.891 20.947z" fill="#b2e7f1"/><path d="m337.241 183.859-34.829-76.932c-3.605-7.964-12.984-11.497-20.947-7.891l-65.699 29.744c4.477-2.027 9.749-.04 11.776 4.436l22.14 48.905c2.027 4.477.041 9.749-4.436 11.776l-58.148 26.326c-4.477 2.027-9.749.04-11.776-4.436l-8.166-18.039 23.713 52.378c3.605 7.963 12.983 11.497 20.947 7.891l117.535-53.211c7.962-3.605 11.495-12.983 7.89-20.947z" fill="#a7adf1"/><path d="m451.139 165.667-138.08 63.115c-9.913 4.488-21.588.09-26.076-9.824l-44.106-97.423c-4.488-9.914-.09-21.588 9.824-26.076l138.08-63.115c9.913-4.488 21.588-.09 26.076 9.823l44.106 97.423c4.488 9.914.09 21.589-9.824 26.077z" fill="#8bb6ef"/><path d="m460.963 139.591-44.105-97.423c-4.488-9.913-16.163-14.311-26.076-9.823l-46.082 21.062c6.403-1.74 13.435 1.612 16.409 8.179l32.238 71.209c3.281 7.246.374 15.64-6.491 18.748l-95.617 43.729c-6.865 3.108-15.09-.246-18.37-7.492l14.115 31.178c4.488 9.913 16.163 14.312 26.076 9.823l138.08-63.115c9.913-4.487 14.311-16.162 9.823-26.075z" fill="#8388ef"/><path d="m464.737 182.522c-8.693 4.151-19.504-.57-23.989-10.477l-61.163-135.101c-4.372-9.657-1.085-20.636 7.389-24.683 8.693-4.151 19.504.57 23.989 10.477l61.163 135.1c4.372 9.658 1.085 20.638-7.389 24.684z" fill="#ffe266"/><path d="m132.282 484.347h-45.969l143.662-228.72h45.969z" fill="#cab4ef"/><path d="m371.968 484.347h45.969l-142.827-228.889h-45.969z" fill="#cab4ef"/><g fill="#ffe266"><path d="m135.472 501.515h-37.56c-10.928 0-19.788-8.859-19.788-19.788 0-10.928 8.859-19.788 19.788-19.788h37.561c10.928 0 19.788 8.859 19.788 19.788-.001 10.929-8.86 19.788-19.789 19.788z"/><path d="m368.778 501.515h37.561c10.928 0 19.788-8.859 19.788-19.788 0-10.928-8.859-19.788-19.788-19.788h-37.561c-10.928 0-19.788 8.859-19.788 19.788.001 10.929 8.86 19.788 19.788 19.788z"/><circle cx="252.125" cy="255.627" r="39.408"/></g><path d="m310.811 312.671-32.866 20.998-21.521-34.488 31.385-22.098z" fill="#be87ef"/><path d="m195.59 312.671 32.866 20.998 21.52-34.488-31.385-22.098z" fill="#be87ef"/></g><g><g fill="#440a29"><path d="m329.35 204.806h.01z"/><path d="m484.733 70.736c-12.724-28.104-37.051-48.012-64.947-53.822-3.597-6.963-9.603-12.367-16.694-14.956-6.9-2.519-14.228-2.22-20.638.841-10.825 5.169-16.506 16.734-15.129 28.737l-118.949 54.37c-10.168 4.604-16.544 14.179-17.579 24.56l-71.191 32.229c-6.403 2.898-11.294 8.117-13.772 14.694-2.478 6.578-2.247 13.727.652 20.129l.094.207-59.197 26.8c-9.433 4.271-14.913 13.729-14.608 23.486l-24.02 10.874c-2.762-2.714-6.08-4.852-9.812-6.258-7.044-2.653-14.697-2.405-21.553.699-14.153 6.407-20.456 23.135-14.049 37.287h.001l14.426 31.866c3.105 6.856 8.692 12.093 15.735 14.746 7.032 2.651 14.689 2.408 21.552-.699 6.856-3.104 12.093-8.692 14.746-15.734 1.406-3.733 1.989-7.637 1.772-11.503l24.897-11.271c7.141 5.617 17.273 6.872 25.552 3.025l59.198-26.8.093.206c4.248 9.381 13.349 15.052 23.001 15.424.449 1.504.969 2.978 1.553 4.419l-111.402 177.364c-15.074 1.718-26.826 14.545-26.826 30.071 0 16.693 13.58 30.273 30.273 30.273h37.561c16.692 0 30.272-13.58 30.272-30.272 0-7.438-2.702-14.254-7.169-19.531l93.913-149.516 93.251 149.439c-4.506 5.287-7.235 12.132-7.235 19.607 0 16.692 13.581 30.272 30.273 30.272h37.56c16.693 0 30.272-13.58 30.272-30.272 0-15.485-11.688-28.284-26.704-30.056l-111.2-178.203c2.131-5.544 3.311-11.556 3.311-17.842 0-5.247-.819-10.305-2.328-15.06 1.739.31 3.493.468 5.247.468 4.244 0 8.483-.908 12.481-2.718l118.688-54.25c3.398 3.951 7.704 7.003 12.512 8.758 3.097 1.131 6.28 1.694 9.428 1.694 3.865 0 7.677-.848 11.208-2.535h.001c13.303-6.353 18.843-22.362 13.054-36.977 13.825-24.652 15.007-56.48 2.425-84.27zm-19.104 8.649c7.233 15.978 8.72 33.555 4.788 49.255l-38.698-85.477c14.442 7.338 26.578 20.026 33.91 36.222zm-406.499 177.823 20.567-9.311 5.521 12.196-20.567 9.311zm-8.952 36.193c-.678 1.801-2.017 3.229-3.77 4.023-1.755.793-3.711.856-5.511.179-1.801-.678-3.229-2.017-4.024-3.771l-14.427-31.867h.001c-1.638-3.619-.027-7.896 3.592-9.535 3.622-1.639 7.896-.027 9.534 3.592l.125.276c.001.003.002.005.003.008l14.17 31.3.128.282c.795 1.754.858 3.712.179 5.513zm63.198-31.461c-1.288.583-2.431.311-2.998.097s-1.605-.764-2.187-2.05l-14.112-31.172c-.892-1.968-.015-4.295 1.953-5.186l59.198-26.8 17.344 38.311zm87.044-16.138-34.83-76.932c-.793-1.754-.423-3.313-.132-4.087.504-1.335 1.497-2.395 2.796-2.984l67.506-30.562 35.447 78.296c-5.882-2.444-12.326-3.8-19.082-3.8-25.018 0-45.789 18.511-49.349 42.554-1.003-.534-1.853-1.372-2.356-2.485zm168.359 205.652c-1.614 0-3.197.13-4.743.374l-93.502-149.842c5.673-2.261 10.84-5.524 15.271-9.584l99.25 159.053h-16.276zm-233.306 0h-16.118l99.612-158.588c4.466 3.981 9.65 7.168 15.331 9.35l-93.985 149.63c-1.577-.254-3.192-.392-4.84-.392zm145.575-195.827c0 15.948-12.975 28.923-28.923 28.923s-28.922-12.975-28.922-28.923 12.974-28.923 28.922-28.923 28.923 12.975 28.923 28.923zm-145.575 235.403h-37.561c-5.129 0-9.303-4.173-9.303-9.302s4.174-9.303 9.303-9.303h37.561c5.129 0 9.302 4.173 9.302 9.303-.001 5.128-4.174 9.302-9.302 9.302zm270.866 0h-37.56c-5.129 0-9.303-4.173-9.303-9.302s4.174-9.303 9.303-9.303h37.56c5.129 0 9.302 4.173 9.302 9.303 0 5.128-4.173 9.302-9.302 9.302zm-97.604-271.801c-2.244 1.016-4.749 1.097-7.052.229-2.304-.868-4.133-2.582-5.147-4.825l-44.105-97.423c-2.097-4.631-.036-10.104 4.629-12.216l117.507-53.71 51.71 114.219zm151.485-46.169c-1.646.785-3.304.469-4.408.066-2.333-.852-4.342-2.822-5.511-5.406l-61.165-135.1c-1.971-4.355-.893-9.345 2.355-10.896 1.404-.699 3.125-.555 4.408-.067 2.333.852 4.342 2.822 5.511 5.407l61.165 135.101c1.971 4.354.893 9.344-2.355 10.895z"/><ellipse cx="252.125" cy="255.627" rx="12.628" ry="12.628" transform="matrix(.16 -.987 .987 .16 -40.587 463.55)"/></g><path d="m338.045 106.752c-3.939 0-7.715-2.231-9.499-6.033-2.461-5.242-.206-11.486 5.037-13.947l2.811-1.319c5.241-2.464 11.486-.206 13.947 5.036s.206 11.486-5.037 13.947c-2.147 1.035-4.867 2.453-7.259 2.316z" fill="#fff"/><path d="m286.8 130.806c-3.939 0-7.713-2.23-9.498-6.032-2.462-5.242-.207-11.486 5.035-13.947l23.745-11.146c5.241-2.461 11.487-.206 13.947 5.036s.206 11.486-5.037 13.947l-23.743 11.146c-1.44.676-2.957.996-4.449.996z" fill="#fff"/></g><g><ellipse cx="97.571" cy="30.586" fill="#8bb6ef" rx="19.447" ry="19.447" transform="matrix(.23 -.973 .973 .23 45.386 118.519)"/><path d="m511.164 8.236c0 4.548-3.687 8.236-8.235 8.236s-8.236-3.687-8.236-8.236c0-4.548 3.687-8.236 8.236-8.236 4.548 0 8.235 3.687 8.235 8.236z" fill="#8bb6ef"/><g fill="#b2e7f1"><path d="m192.362 22.264 6.607 18.576c.283.795.843 1.425 1.549 1.744l16.504 7.436c2.331 1.051 2.331 4.766 0 5.816l-16.504 7.436c-.707.318-1.267.948-1.549 1.744l-6.607 18.576c-.933 2.624-4.234 2.624-5.167 0l-6.607-18.576c-.283-.795-.843-1.426-1.549-1.744l-16.504-7.436c-2.332-1.05-2.332-4.766 0-5.816l16.504-7.436c.707-.319 1.267-.949 1.549-1.744l6.607-18.576c.933-2.625 4.233-2.625 5.167 0z"/><path d="m55.79 94.92 9.078 25.042c.389 1.072 1.158 1.922 2.129 2.351l22.678 10.024c3.204 1.416 3.204 6.424 0 7.841l-22.678 10.024c-.971.429-1.74 1.279-2.129 2.351l-9.078 25.042c-1.283 3.538-5.818 3.538-7.101 0l-9.078-25.042c-.389-1.072-1.158-1.922-2.129-2.351l-22.678-10.024c-3.204-1.416-3.204-6.424 0-7.841l22.678-10.024c.971-.429 1.74-1.279 2.129-2.351l9.079-25.042c1.282-3.538 5.818-3.538 7.1 0z"/></g></g></g></svg>