<svg id="Capa_1" enable-background="new 0 0 512 512" height="512" viewBox="0 0 512 512" width="512" xmlns="http://www.w3.org/2000/svg"><g><g><path d="m408.124 501.856h-280.134c-14.16 0-25.639-11.479-25.639-25.639v-387.44c0-14.16 11.479-25.639 25.639-25.639h280.135c14.16 0 25.639 11.479 25.639 25.639v387.44c0 14.16-11.479 25.639-25.64 25.639z" fill="#fff"/><path d="m408.124 63.137h-41.728c12.228 0 22.141 9.913 22.141 22.141v334.567c0 12.228-9.913 22.14-22.141 22.14h-241.905c-12.228 0-22.141-9.912-22.141-22.14v56.372c0 14.16 11.479 25.639 25.639 25.639h280.135c14.16 0 25.639-11.479 25.639-25.639v-387.44c.001-14.161-11.478-25.64-25.639-25.64z" fill="#ffbffc"/><g fill="#78eac4"><path d="m338.843 217.916c-33.747 0-61.203-27.455-61.203-61.203 0-33.747 27.456-61.203 61.203-61.203s61.203 27.456 61.203 61.203c0 33.748-27.456 61.203-61.203 61.203zm0-110.234c-27.036 0-49.031 21.995-49.031 49.031 0 27.035 21.995 49.031 49.031 49.031s49.031-21.995 49.031-49.031c0-27.035-21.995-49.031-49.031-49.031z"/><path d="m366.929 179.602-21.106-55.927c-.021-.056-.043-.111-.066-.167-1.142-2.774-3.817-4.566-6.817-4.566-.003 0-.005 0-.007 0-3.003.003-5.678 1.801-6.816 4.58-.019.046-.037.092-.055.139l-21.299 55.924c-1.197 3.142.38 6.658 3.521 7.854 3.141 1.198 6.658-.381 7.854-3.521l3.812-10.008h25.82l3.77 9.991c.92 2.437 3.236 3.939 5.695 3.938.714 0 1.44-.126 2.148-.393 3.145-1.188 4.733-4.698 3.546-7.844zm-36.343-17.865 8.334-21.881 8.257 21.881z"/><path d="m158.608 310.895c-.006 0-.012 0-.019 0-2.592-.008-4.894-1.657-5.737-4.108l-9.99-29.07c-1.092-3.179.599-6.641 3.778-7.733 3.178-1.09 6.641.599 7.733 3.778l4.291 12.486 4.401-12.556c1.111-3.172 4.585-4.843 7.757-3.73 3.172 1.112 4.842 4.584 3.73 7.757l-10.201 29.104c-.855 2.439-3.158 4.072-5.743 4.072z"/><path d="m158.608 385.12c-.006 0-.012 0-.019 0-2.592-.008-4.894-1.657-5.737-4.108l-9.99-29.07c-1.092-3.179.599-6.641 3.778-7.733 3.178-1.091 6.641.599 7.733 3.778l4.291 12.486 4.401-12.556c1.111-3.172 4.585-4.843 7.757-3.73 3.172 1.112 4.842 4.584 3.73 7.757l-10.201 29.104c-.855 2.439-3.158 4.072-5.743 4.072z"/></g></g><g fill="#440a29"><path d="m408.124 52.994h-280.135c-19.731 0-35.783 16.052-35.783 35.783v387.441c0 19.731 16.052 35.783 35.783 35.783h280.135c19.731 0 35.783-16.052 35.783-35.783v-387.442c0-19.73-16.052-35.782-35.783-35.782zm15.496 423.223c0 8.545-6.951 15.496-15.496 15.496h-280.135c-8.544 0-15.496-6.951-15.496-15.496v-387.441c0-8.544 6.951-15.496 15.496-15.496h280.135c8.545 0 15.496 6.951 15.496 15.496z"/><path d="m304.586 435.899h-150.133c-3.361 0-6.086 2.725-6.086 6.086s2.725 6.086 6.086 6.086h150.133c3.361 0 6.086-2.725 6.086-6.086s-2.725-6.086-6.086-6.086z"/><path d="m154.453 131.114h83.48c3.361 0 6.086-2.725 6.086-6.086s-2.725-6.086-6.086-6.086h-83.48c-3.361 0-6.086 2.725-6.086 6.086s2.725 6.086 6.086 6.086z"/><path d="m154.453 169.764h83.48c3.361 0 6.086-2.725 6.086-6.086s-2.725-6.086-6.086-6.086h-83.48c-3.361 0-6.086 2.725-6.086 6.086s2.725 6.086 6.086 6.086z"/><path d="m381.661 397.25h-227.208c-3.361 0-6.086 2.725-6.086 6.086s2.725 6.086 6.086 6.086h227.208c3.361 0 6.086-2.725 6.086-6.086s-2.725-6.086-6.086-6.086z"/><path d="m381.661 358.6h-189.655c-3.361 0-6.086 2.725-6.086 6.086s2.725 6.086 6.086 6.086h189.655c3.361 0 6.086-2.725 6.086-6.086s-2.725-6.086-6.086-6.086z"/><path d="m381.661 319.95h-227.208c-3.361 0-6.086 2.725-6.086 6.086s2.725 6.086 6.086 6.086h227.208c3.361 0 6.086-2.725 6.086-6.086s-2.725-6.086-6.086-6.086z"/><path d="m381.661 281.3h-189.655c-3.361 0-6.086 2.725-6.086 6.086s2.725 6.086 6.086 6.086h189.655c3.361 0 6.086-2.725 6.086-6.086 0-3.36-2.725-6.086-6.086-6.086z"/><path d="m381.661 242.651h-227.208c-3.361 0-6.086 2.725-6.086 6.086s2.725 6.086 6.086 6.086h227.208c3.361 0 6.086-2.725 6.086-6.086s-2.725-6.086-6.086-6.086z"/></g><g><ellipse cx="27.196" cy="89.917" fill="#78eac4" rx="18.813" ry="18.813" transform="matrix(.231 -.973 .973 .231 -66.569 95.638)"/><circle cx="84.005" cy="31.568" fill="#78eac4" r="7.967"/><path d="m478.069 1.904 6.391 17.971c.273.769.815 1.379 1.499 1.687l15.966 7.193c2.256 1.016 2.256 4.61 0 5.626l-15.966 7.193c-.684.308-1.225.917-1.499 1.687l-6.391 17.971c-.903 2.539-4.096 2.539-4.999 0l-6.391-17.971c-.274-.77-.815-1.379-1.499-1.687l-15.966-7.193c-2.256-1.016-2.256-4.61 0-5.626l15.966-7.193c.684-.308 1.225-.918 1.499-1.687l6.391-17.971c.903-2.539 4.096-2.539 4.999 0z" fill="#bdf4e3"/></g></g></svg>