<svg id="Capa_1" enable-background="new 0 0 512 512" height="512" viewBox="0 0 512 512" width="512" xmlns="http://www.w3.org/2000/svg"><g><g><path d="m205.162 234.98v-92.564c0-14.806-12.003-26.809-26.809-26.809h-13.677c-14.806 0-26.809 12.003-26.809 26.809v92.564c0 7.443-3.057 14.59-8.542 19.622-43.242 39.672-93.223 120.74-93.223 175.402 3.728 71.832 60.626 71.817 135.412 71.817s135.412.016 135.412-71.817c0-54.662-49.981-135.73-93.223-175.402-5.483-5.032-8.541-12.179-8.541-19.622z" fill="#b2e7f1"/><path d="m103.697 339.386c-16.609 26.845-26.047 53.442-29.757 76.553-6.678 53.98 39.634 52.311 97.575 52.484 56.643.169 108.715 1.711 98.279-52.031-4.407-22.698-13.852-50.161-30.461-77.005h-135.636z" fill="#ef8bbd"/><path d="m213.704 254.602c-5.484-5.032-8.542-12.18-8.542-19.622v-92.564c0-14.806-12.003-26.809-26.809-26.809h-13.677c-2.511 0-4.938.352-7.243.998 8.773 2.762 14.784 15.111 14.784 24.795v74.719c0 6.008 2.468 11.778 6.895 15.839 34.905 32.024 75.603 93.31 75.603 137.434 0 57.984-48.938 57.971-109.306 57.971-49.726 0-89.649.002-103.863-32.402-3.477 12.365-5.442 24.223-5.442 35.044 3.728 71.832 60.626 71.817 135.412 71.817s135.412.016 135.412-71.817c-.001-54.664-49.982-135.731-93.224-175.403z" fill="#a7adf1"/><path d="m254.705 368.663c.002.242.01.487.01.728 0 57.984-48.938 57.971-109.306 57.971-28.072 0-53.016-.002-71.978-5.832-2.823 48.263 42.222 46.727 98.084 46.893 56.643.168 108.715 1.711 98.279-52.032-2.804-14.441-7.659-30.815-15.089-47.728z" fill="#e068bd"/><path d="m200.143 141.4h-57.256c-13.456 0-24.365-10.908-24.365-24.364 0-13.456 10.908-24.365 24.365-24.365h57.256c13.456 0 24.365 10.908 24.365 24.365 0 13.455-10.909 24.364-24.365 24.364z" fill="#8bb6ef"/><path d="m409.461 501.821c-21.501 0-38.931-17.43-38.931-38.931v-231.51h77.863v231.51c0 21.5-17.431 38.931-38.932 38.931z" fill="#b2e7f1"/><path d="m449.185 249.116h-79.636c-14.752 0-26.711-11.959-26.711-26.711 0-14.752 11.959-26.711 26.711-26.711h79.636c14.752 0 26.711 11.959 26.711 26.711.001 14.752-11.958 26.711-26.711 26.711z" fill="#8bb6ef"/><path d="m415.043 501.821h-5.676v-252.705h45.911v212.47c0 22.221-18.014 40.235-40.235 40.235z" fill="#a7adf1"/></g><g><g fill="#440a29"><path d="m98.503 336.173c-15.851 25.62-26.431 52.867-30.594 78.798-.011.072-.022.145-.031.218-2.198 17.764.828 31.04 9.25 40.587 16.406 18.598 50.011 18.665 88.923 18.742 5.754.011 13.808.048 19.461.05 35.7 0 68.257-1.412 83.325-19.62 7.993-9.659 10.267-22.652 6.953-39.722-3.683-18.966-12.096-48.076-31.263-79.055-1.113-1.799-3.078-2.894-5.194-2.894h-135.636c-2.116.002-4.081 1.097-5.194 2.896zm137.398 9.321c16.952 28.314 24.525 54.689 27.898 72.062 2.574 13.256 1.144 22.94-4.373 29.606-12.762 15.422-47.225 15.298-83.714 15.168l-9.637-.026c-35.961-.072-67.019-.133-79.787-14.608-5.959-6.755-8.02-16.862-6.301-30.897 3.767-23.353 13.131-47.939 27.141-71.304h128.773z"/><path d="m220.586 247.101c-3.333-3.058-5.244-7.476-5.244-12.121v-86.933c11.447-5.633 19.345-17.415 19.345-31.012 0-19.048-15.496-34.544-34.544-34.544h-57.256c-19.048 0-34.544 15.496-34.544 34.544 0 13.596 7.898 25.378 19.345 31.012v86.933c0 4.646-1.911 9.064-5.244 12.121-46.613 42.765-96.521 126.465-96.521 182.903 0 .176.004.352.014.527 1.925 37.088 17.51 60.589 47.646 71.848 25.754 9.621 59.179 9.621 97.982 9.621 37.556 0 73.029 0 99.221-9.599 31.17-11.423 46.321-35.104 46.321-72.397 0-56.438-49.908-140.138-96.521-182.903zm-77.699-144.251h57.256c7.822 0 14.185 6.364 14.185 14.185 0 7.822-6.364 14.185-14.185 14.185h-57.256c-7.822 0-14.185-6.364-14.185-14.185s6.364-14.185 14.185-14.185zm120.892 380.436c-22.799 8.355-56.517 8.355-92.314 8.355-36.729 0-68.45 0-90.756-8.333-22.249-8.312-32.874-24.839-34.426-53.564.162-50.337 47.464-128.686 89.924-167.641 7.524-6.903 11.84-16.789 11.84-27.123v-83.401h46.936v83.401c0 10.334 4.315 20.22 11.84 27.123 42.533 39.022 89.925 117.574 89.925 167.901 0 28.878-9.86 44.813-32.969 53.282z"/><path d="m486.076 222.405c0-20.342-16.549-36.891-36.891-36.891h-79.636c-20.342 0-36.891 16.549-36.891 36.891 0 17.167 11.787 31.632 27.692 35.729v204.755c0 27.08 22.031 49.111 49.111 49.111s49.111-22.031 49.111-49.111v-204.808c15.81-4.163 27.504-18.578 27.504-35.676zm-76.615 269.236c-15.854 0-28.752-12.898-28.752-28.752v-43.659h28.752c5.622 0 10.179-4.557 10.179-10.179s-4.557-10.179-10.179-10.179h-28.752v-22.093h28.752c5.622 0 10.179-4.557 10.179-10.179s-4.557-10.18-10.179-10.18h-28.752v-22.092h28.752c5.622 0 10.179-4.557 10.179-10.179s-4.557-10.179-10.179-10.179h-28.752v-54.674h57.504v203.594c0 15.853-12.898 28.751-28.752 28.751zm39.724-252.705h-79.636c-9.116 0-16.532-7.416-16.532-16.532s7.416-16.532 16.532-16.532h79.636c9.116 0 16.532 7.416 16.532 16.532s-7.416 16.532-16.532 16.532z"/><path d="m224.508 393.892c3.373 0 6.108-2.735 6.108-6.108v-12.317c0-3.373-2.735-6.108-6.108-6.108s-6.108 2.735-6.108 6.108v12.317c0 3.374 2.735 6.108 6.108 6.108z"/><path d="m191.789 437.843c3.373 0 6.108-2.735 6.108-6.108v-12.317c0-3.373-2.735-6.108-6.108-6.108s-6.108 2.735-6.108 6.108v12.317c0 3.373 2.735 6.108 6.108 6.108z"/><path d="m145.503 411.22c11.541 0 20.93-9.389 20.93-20.93 0-11.54-9.389-20.93-20.93-20.93-11.54 0-20.929 9.389-20.929 20.93s9.389 20.93 20.929 20.93zm0-29.644c4.805 0 8.715 3.909 8.715 8.714s-3.909 8.715-8.715 8.715c-4.805 0-8.714-3.909-8.714-8.715 0-4.805 3.909-8.714 8.714-8.714z"/></g><path d="m129.711 318.893c-2.128 0-4.274-.665-6.106-2.041-4.495-3.377-5.401-9.758-2.024-14.253 4.827-6.425 10.069-12.635 15.579-18.458 3.863-4.083 10.306-4.262 14.39-.396 4.083 3.865 4.26 10.307.396 14.39-4.983 5.265-9.723 10.88-14.088 16.691-2.001 2.664-5.055 4.067-8.147 4.067z" fill="#fff"/><path d="m165.208 282.556c-3.077 0-6.118-1.389-8.12-4.03-3.396-4.48-2.518-10.865 1.963-14.262.983-.745 1.956-1.452 2.894-2.101 4.621-3.202 10.962-2.051 14.164 2.57s2.051 10.963-2.57 14.164c-2.431 1.883-5.212 3.818-8.331 3.659z" fill="#fff"/></g><g><ellipse cx="243.387" cy="34.141" fill="#ef8bbd" rx="18.88" ry="18.88" transform="matrix(.66 -.751 .751 .66 57.104 194.458)"/><path d="m456.388 117.035c0 4.416-3.58 7.995-7.995 7.995-4.416 0-7.995-3.58-7.995-7.995 0-4.416 3.579-7.995 7.995-7.995 4.415 0 7.995 3.579 7.995 7.995z" fill="#ef8bbd"/><g fill="#f7c4db"><path d="m38.612 1.911 6.414 18.034c.274.772.818 1.384 1.504 1.693l16.023 7.219c2.263 1.02 2.263 4.626 0 5.646l-16.023 7.219c-.686.309-1.23.921-1.504 1.693l-6.414 18.035c-.906 2.548-4.111 2.548-5.017 0l-6.414-18.034c-.275-.772-.818-1.384-1.504-1.693l-16.023-7.219c-2.264-1.02-2.264-4.627 0-5.646l16.023-7.219c.686-.309 1.23-.921 1.504-1.693l6.414-18.034c.906-2.549 4.111-2.549 5.017-.001z"/><path d="m478.405 1.911 6.414 18.034c.274.772.818 1.384 1.504 1.693l16.023 7.219c2.263 1.02 2.263 4.626 0 5.646l-16.023 7.219c-.686.309-1.23.921-1.504 1.693l-6.414 18.034c-.906 2.548-4.111 2.548-5.017 0l-6.414-18.034c-.275-.772-.818-1.384-1.504-1.693l-16.023-7.219c-2.264-1.02-2.264-4.627 0-5.646l16.023-7.219c.686-.309 1.23-.921 1.504-1.693l6.414-18.034c.906-2.548 4.111-2.548 5.017 0z"/><path d="m346.284 67.867 8.813 24.312c.377 1.041 1.124 1.866 2.067 2.283l22.017 9.732c3.11 1.375 3.11 6.237 0 7.612l-22.017 9.732c-.943.417-1.69 1.242-2.067 2.282l-8.813 24.312c-1.245 3.435-5.648 3.435-6.893 0l-8.813-24.312c-.377-1.041-1.124-1.866-2.067-2.282l-22.017-9.732c-3.111-1.375-3.111-6.237 0-7.612l22.017-9.732c.943-.417 1.69-1.242 2.067-2.283l8.813-24.312c1.245-3.435 5.648-3.435 6.893 0z"/></g></g></g></svg>