<svg id="Capa_1" enable-background="new 0 0 512 512" height="512" viewBox="0 0 512 512" width="512" xmlns="http://www.w3.org/2000/svg"><g><g><path d="m232.384 501.882h-96.044c-14.575 0-26.391-11.815-26.391-26.39v-378.121c0-14.575 11.815-26.39 26.391-26.39h96.044c14.575 0 26.391 11.815 26.391 26.39v378.12c0 14.575-11.816 26.391-26.391 26.391z" fill="#8bb6ef"/><path d="m232.384 70.981h-25.77c12.166 0 22.029 9.863 22.029 22.029v332.396c0 12.166-9.863 22.029-22.029 22.029h-74.636c-12.166 0-22.029-9.862-22.029-22.029v50.086c0 14.575 11.815 26.391 26.391 26.391h96.044c14.575 0 26.391-11.815 26.391-26.391v-378.121c0-14.575-11.816-26.39-26.391-26.39z" fill="#8388ef"/><ellipse cx="184.362" cy="419.373" fill="#b2e7f1" rx="41.965" ry="41.965" transform="matrix(.92 -.393 .393 .92 -149.866 106.076)"/><ellipse cx="184.362" cy="419.373" fill="#a183e2" rx="19.592" ry="19.592" transform="matrix(.922 -.387 .387 .922 -148.033 104.133)"/><path d="m213.803 288.063h-58.881c-8.204 0-14.855-6.651-14.855-14.855v-120.747c0-8.204 6.651-14.855 14.855-14.855h58.881c8.204 0 14.855 6.651 14.855 14.855v120.747c-.001 8.204-6.651 14.855-14.855 14.855z" fill="#fff"/><path d="m228.658 178.075v-25.614c0-8.204-6.651-14.855-14.855-14.855h-58.881c-8.204 0-14.855 6.651-14.855 14.855v25.614z" fill="#b2e7f1"/><path d="m381.209 501.882h-96.044c-14.575 0-26.391-11.815-26.391-26.39v-378.121c0-14.575 11.815-26.39 26.391-26.39h96.044c14.575 0 26.391 11.815 26.391 26.39v378.12c0 14.575-11.816 26.391-26.391 26.391z" fill="#ffe266"/><path d="m381.209 70.981h-25.799c12.19 0 22.072 9.882 22.072 22.072v333.747c0 12.19-9.882 22.072-22.072 22.072h-74.564c-12.19 0-22.072-9.882-22.072-22.072v48.691c0 14.575 11.815 26.391 26.391 26.391h96.044c14.575 0 26.391-11.815 26.391-26.391v-378.12c0-14.575-11.815-26.39-26.391-26.39z" fill="#efaa66"/><ellipse cx="333.187" cy="419.373" fill="#b2e7f1" rx="41.965" ry="41.965" transform="matrix(.226 -.974 .974 .226 -150.563 649.314)"/><ellipse cx="333.187" cy="419.373" fill="#a183e2" rx="19.592" ry="19.592" transform="matrix(.378 -.926 .926 .378 -181.039 569.233)"/><path d="m362.628 288.063h-58.881c-8.204 0-14.855-6.651-14.855-14.855v-120.747c0-8.204 6.651-14.855 14.855-14.855h58.881c8.204 0 14.855 6.651 14.855 14.855v120.747c0 8.204-6.651 14.855-14.855 14.855z" fill="#fff"/><path d="m377.483 178.075v-25.614c0-8.204-6.651-14.855-14.855-14.855h-58.881c-8.204 0-14.855 6.651-14.855 14.855v25.614z" fill="#b2e7f1"/></g><g><g fill="#440a29"><path d="m184.362 371.336c-26.487 0-48.036 21.549-48.036 48.036s21.549 48.036 48.036 48.036 48.036-21.549 48.036-48.036-21.549-48.036-48.036-48.036zm0 83.931c-19.792 0-35.895-16.102-35.895-35.895 0-19.792 16.102-35.894 35.895-35.894s35.895 16.102 35.895 35.894c-.001 19.793-16.103 35.895-35.895 35.895z"/><path d="m184.362 393.71c-14.15 0-25.663 11.512-25.663 25.663s11.512 25.663 25.663 25.663 25.663-11.512 25.663-25.663-11.513-25.663-25.663-25.663zm0 39.184c-7.456 0-13.521-6.065-13.521-13.521s6.065-13.521 13.521-13.521 13.521 6.065 13.521 13.521c0 7.455-6.065 13.521-13.521 13.521z"/><path d="m213.803 131.535h-58.881c-11.538 0-20.926 9.387-20.926 20.926v120.747c0 11.538 9.387 20.926 20.926 20.926h58.881c11.538 0 20.926-9.387 20.926-20.926v-120.747c0-11.539-9.388-20.926-20.926-20.926zm-58.881 12.142h58.881c4.844 0 8.784 3.941 8.784 8.784v20.122h-76.449v-20.122c0-4.844 3.94-8.784 8.784-8.784zm58.881 138.315h-58.881c-4.844 0-8.784-3.94-8.784-8.784v-88.483h76.449v88.483c0 4.844-3.941 8.784-8.784 8.784z"/><path d="m381.209 60.863h-96.044c-10.371 0-19.738 4.354-26.391 11.321-6.653-6.967-16.02-11.321-26.391-11.321h-96.043c-20.131 0-36.509 16.378-36.509 36.509v378.12c0 20.131 16.378 36.509 36.509 36.509h96.044c10.371 0 19.738-4.354 26.391-11.321 6.653 6.967 16.02 11.321 26.391 11.321h96.044c20.131 0 36.509-16.378 36.509-36.509v-378.121c-.001-20.131-16.379-36.508-36.51-36.508zm-148.825 430.901h-96.044c-8.973 0-16.272-7.3-16.272-16.272v-378.121c0-8.973 7.3-16.272 16.272-16.272h96.044c8.973 0 16.272 7.299 16.272 16.272v378.12c.001 8.973-7.299 16.273-16.272 16.273zm165.098-16.273c0 8.972-7.299 16.272-16.272 16.272h-96.044c-8.973 0-16.272-7.3-16.272-16.272v-378.12c0-8.973 7.3-16.272 16.272-16.272h96.044c8.973 0 16.272 7.299 16.272 16.272z"/><path d="m333.187 371.336c-26.487 0-48.036 21.549-48.036 48.036s21.549 48.036 48.036 48.036 48.036-21.549 48.036-48.036-21.549-48.036-48.036-48.036zm0 83.931c-19.792 0-35.894-16.102-35.894-35.895 0-19.792 16.102-35.894 35.894-35.894 19.793 0 35.895 16.102 35.895 35.894 0 19.793-16.102 35.895-35.895 35.895z"/><path d="m333.187 393.71c-14.15 0-25.663 11.512-25.663 25.663s11.512 25.663 25.663 25.663 25.663-11.512 25.663-25.663-11.512-25.663-25.663-25.663zm0 39.184c-7.456 0-13.521-6.065-13.521-13.521s6.065-13.521 13.521-13.521 13.522 6.065 13.522 13.521c0 7.455-6.066 13.521-13.522 13.521z"/><path d="m362.628 131.535h-58.881c-11.538 0-20.926 9.387-20.926 20.926v120.747c0 11.538 9.387 20.926 20.926 20.926h58.881c11.539 0 20.926-9.387 20.926-20.926v-120.747c0-11.539-9.388-20.926-20.926-20.926zm-58.881 12.142h58.881c4.844 0 8.784 3.941 8.784 8.784v20.122h-76.449v-20.122c0-4.844 3.94-8.784 8.784-8.784zm58.881 138.315h-58.881c-4.844 0-8.784-3.94-8.784-8.784v-88.483h76.449v88.483c0 4.844-3.941 8.784-8.784 8.784z"/><path d="m203.954 214.331h-39.184c-3.353 0-6.071 2.718-6.071 6.071s2.718 6.071 6.071 6.071h39.184c3.353 0 6.071-2.718 6.071-6.071s-2.719-6.071-6.071-6.071z"/><path d="m203.954 235.614h-39.184c-3.353 0-6.071 2.718-6.071 6.071s2.718 6.071 6.071 6.071h39.184c3.353 0 6.071-2.718 6.071-6.071s-2.719-6.071-6.071-6.071z"/><path d="m352.78 214.331h-39.184c-3.353 0-6.071 2.718-6.071 6.071s2.718 6.071 6.071 6.071h39.184c3.353 0 6.071-2.718 6.071-6.071s-2.719-6.071-6.071-6.071z"/><path d="m352.78 235.614h-39.184c-3.353 0-6.071 2.718-6.071 6.071s2.718 6.071 6.071 6.071h39.184c3.353 0 6.071-2.718 6.071-6.071s-2.719-6.071-6.071-6.071z"/><path d="m347.797 329.944v-10.761c0-3.353-2.718-6.071-6.071-6.071s-6.071 2.718-6.071 6.071v10.761c0 3.353 2.718 6.071 6.071 6.071s6.071-2.718 6.071-6.071z"/><path d="m374.743 353.334v-10.761c0-3.353-2.718-6.071-6.071-6.071s-6.071 2.718-6.071 6.071v10.761c0 3.353 2.718 6.071 6.071 6.071s6.071-2.719 6.071-6.071z"/></g><path d="m177.275 116.766c-5.512 0-10.025-4.424-10.113-9.956-.09-5.587 4.367-10.189 9.955-10.279 8.632-.139 17.713-.139 26.988-.001 5.588.084 10.049 4.681 9.966 10.268-.082 5.536-4.597 9.967-10.114 9.967-.051 0-.102-.001-.154-.001-9.068-.135-17.937-.135-26.363-.001-.055.002-.11.003-.165.003z" fill="#fff"/><path d="m144.901 116.766h-4.835c-5.588 0-10.118-4.53-10.118-10.118s4.53-10.118 10.118-10.118h4.835c5.588 0 10.118 4.53 10.118 10.118s-4.529 10.118-10.118 10.118z" fill="#fff"/></g><g><ellipse cx="80.654" cy="34.66" fill="#ffe266" rx="18.766" ry="18.766" transform="matrix(.231 -.973 .973 .231 28.324 105.144)"/><ellipse cx="385.43" cy="7.947" fill="#ffe266" rx="7.947" ry="7.947" transform="matrix(.122 -.993 .993 .122 330.539 389.531)"/><g fill="#fef2a8"><path d="m36.042 90.144 6.375 17.926c.273.767.813 1.376 1.495 1.683l15.926 7.175c2.25 1.014 2.25 4.599 0 5.612l-15.926 7.175c-.682.307-1.222.915-1.495 1.683l-6.375 17.926c-.901 2.533-4.086 2.533-4.986 0l-6.375-17.926c-.273-.768-.813-1.376-1.495-1.683l-15.927-7.175c-2.25-1.014-2.25-4.599 0-5.612l15.926-7.175c.682-.307 1.222-.915 1.495-1.683l6.375-17.926c.901-2.533 4.086-2.533 4.987 0z"/><path d="m471.412 10.508 8.76 24.165c.375 1.035 1.118 1.855 2.055 2.269l21.884 9.673c3.092 1.367 3.092 6.2 0 7.566l-21.884 9.673c-.937.414-1.68 1.234-2.055 2.269l-8.76 24.165c-1.237 3.414-5.614 3.414-6.852 0l-8.76-24.165c-.375-1.035-1.118-1.855-2.055-2.269l-21.884-9.673c-3.092-1.367-3.092-6.199 0-7.566l21.884-9.673c.937-.414 1.68-1.234 2.055-2.269l8.76-24.165c1.238-3.414 5.614-3.414 6.852 0z"/></g></g></g></svg>