<svg id="Capa_1" enable-background="new 0 0 512 512" height="512" viewBox="0 0 512 512" width="512" xmlns="http://www.w3.org/2000/svg"><g><g><g fill="#ffe266"><path d="m248.344 413.636c-10.55 0-19.164-8.283-19.697-18.7-1.763-2.162-9.249-6.43-20.823-6.43s-19.06 4.268-20.824 6.43c-.533 10.418-9.147 18.7-19.697 18.7-10.893 0-19.723-8.83-19.723-19.723 0-13.591 7.725-26.176 21.196-34.531 10.733-6.656 24.599-10.322 39.047-10.322 14.447 0 28.314 3.666 39.047 10.322 13.471 8.354 21.196 20.94 21.196 34.531.001 10.893-8.829 19.723-19.722 19.723z"/><path d="m390.145 418.676c-2.31.41-4.743.34-7.162-.292-8.969-2.341-14.343-11.51-12.002-20.479l43.35-166.061c.663-2.371 7.012-23.437 25.221-32.709 7.115-3.623 18.763-6.768 33.831-1.168 14.92 5.547 21.834 15.112 25.006 22.16 7.199 15.994 1.383 32.03.696 33.806 0 0-6.469 14.331-21.571 9.8-14.63-4.389-9.748-22.231-9.806-22.061.312-.904.999-3.422.56-6.079-.229-1.383-.655-3.958-6.582-6.161-4.425-1.645-6.226-.728-6.902-.383-3.944 2.008-7.298 9.014-8.096 11.739l-43.224 165.596c-1.712 6.549-7.063 11.181-13.319 12.292z"/><path d="m29.738 418.676c-2.31.41-4.743.34-7.162-.292-8.969-2.341-14.343-11.51-12.002-20.479l43.35-166.061c.663-2.371 7.011-23.437 25.221-32.709 7.115-3.623 18.763-6.768 33.831-1.168 14.92 5.547 21.834 15.112 25.006 22.16 7.199 15.994 1.383 32.03.696 33.806 0 0-6.469 14.331-21.571 9.8-14.63-4.389-9.748-22.231-9.806-22.061.312-.904.999-3.422.56-6.079-.229-1.383-.655-3.958-6.582-6.161-4.425-1.645-6.226-.728-6.902-.383-3.944 2.008-7.298 9.014-8.096 11.739l-43.226 165.595c-1.709 6.55-7.061 11.182-13.317 12.293z"/></g><path d="m326.351 461.611h-32.212c-34.098 0-61.74-27.642-61.74-61.741 0-34.098 27.642-61.741 61.74-61.741h32.212c34.098 0 61.741 27.642 61.741 61.741 0 34.099-27.642 61.741-61.741 61.741z" fill="#b2e7f1"/><path d="m326.351 338.13h-21.491c26.298 0 47.617 21.319 47.617 47.617v.001c0 26.298-21.319 47.617-47.617 47.617h-24.843c-24.048 0-43.922-17.831-47.148-40.99-.298 2.459-.469 4.957-.469 7.496 0 34.099 27.642 61.741 61.741 61.741h32.212c34.099 0 61.741-27.642 61.741-61.741-.002-34.099-27.644-61.741-61.743-61.741z" fill="#a7adf1"/><path d="m123.684 461.611h-32.211c-34.098 0-61.741-27.642-61.741-61.741 0-34.098 27.642-61.741 61.741-61.741h32.212c34.098 0 61.741 27.642 61.741 61.741-.001 34.099-27.643 61.741-61.742 61.741z" fill="#b2e7f1"/><path d="m123.684 338.13h-21.492c26.298 0 47.617 21.319 47.617 47.617v.001c0 26.298-21.319 47.617-47.617 47.617h-24.843c-24.048 0-43.922-17.831-47.148-40.99-.298 2.459-.469 4.957-.469 7.496 0 34.099 27.642 61.741 61.741 61.741h32.212c34.099 0 61.741-27.642 61.741-61.741-.001-34.099-27.643-61.741-61.742-61.741z" fill="#a7adf1"/><path d="m29.753 418.932c-.07 0-.141 0-.212-.001-10.892-.115-19.628-9.038-19.514-19.93.227-21.577 8.798-41.826 24.134-57.016 15.35-15.204 35.703-23.578 57.31-23.578h32.212c16.14 0 31.746 4.717 45.131 13.641 9.063 6.042 11.512 18.287 5.47 27.35-6.041 9.063-18.288 11.512-27.35 5.47-6.885-4.59-14.925-7.016-23.251-7.016h-32.211c-22.918 0-41.76 18.646-42.001 41.565-.115 10.821-8.923 19.515-19.718 19.515z" fill="#ffe266"/><path d="m387.972 418.932c.07 0 .141 0 .212-.001 10.892-.115 19.628-9.038 19.514-19.93-.227-21.577-8.798-41.826-24.134-57.016-15.35-15.204-35.703-23.578-57.31-23.578h-32.214c-16.14 0-31.746 4.717-45.131 13.641-9.063 6.042-11.512 18.287-5.47 27.35 6.041 9.063 18.288 11.512 27.35 5.47 6.885-4.59 14.925-7.016 23.251-7.016h32.212c22.918 0 41.76 18.646 42.001 41.565.115 10.821 8.923 19.515 19.719 19.515z" fill="#ffe266"/></g><g><path d="m507.532 216.011c-3.957-8.791-12.486-20.689-30.656-27.443-18.478-6.867-32.969-2.903-41.874 1.631-21.573 10.985-29.048 34.368-30.328 38.944l-25.152 96.349c-15.434-11.103-33.898-17.112-53.269-17.112h-32.213c-18.126 0-35.655 5.299-50.693 15.325-6.228 4.152-10.579 10.355-12.366 17.573-7.432-1.464-15.232-2.244-23.157-2.244-7.23 0-14.357.646-21.195 1.868-1.783-6.8-5.956-12.999-12.251-17.196-15.037-10.026-32.566-15.325-50.693-15.325h-32.212c-4.288 0-8.528.309-12.705.887l15.885-60.858c2.718-10.187 3.25-9.627 1.83.537.252 10.579 5.41 20.69 17.743 24.39 18.594 5.577 30.104-7.555 33.59-15.279l.213-.505c1.374-3.549 7.786-22.232-.904-41.541-3.958-8.792-12.488-20.689-30.655-27.442-18.478-6.867-32.97-2.903-41.874 1.631-21.573 10.984-29.048 34.368-30.328 38.944l-33.124 126.882c-7.119 13.008-10.983 27.642-11.143 42.869-.16 15.141 11.083 27.788 25.749 29.781 11.118 25.27 36.391 42.961 65.722 42.961h32.212c39.467 0 71.59-32.026 71.759-71.455 2.935-.865 7.089-1.65 12.381-1.65 6.782 0 11.713 1.288 14.575 2.384.564 39.09 32.519 70.721 71.741 70.721h32.212c29.33 0 54.585-17.695 65.701-42.964 6.51-.888 12.509-3.882 17.179-8.652 5.56-5.678 8.575-13.181 8.49-21.126-.022-2.108-.141-4.2-.304-6.282l37.64-144.203c3.029-10.665 3.728-12.058 1.83.537.253 10.578 5.411 20.69 17.743 24.389 3.108.933 6.015 1.342 8.722 1.342 13.494-.001 21.965-10.187 24.869-16.621l.213-.51c1.374-3.552 7.781-22.242-.903-41.537zm-443.932 18.464c.412-1.436 5.736-19.095 20.094-26.406 5.33-2.713 14.129-5.037 25.788-.704 11.672 4.339 16.969 11.573 19.356 16.876 5.175 11.499 1.418 23.449.621 25.709-1.253 2.39-4.065 5.801-9.472 4.179-4.478-1.344-3.541-7.477-3.023-9.754.215-.693.807-10.304.787-10.422-1.08-6.522-5.326-11.075-12.979-13.919-5.754-2.139-10.643-2.113-14.947.08-7.655 3.898-12.102 14.212-13.168 17.856l-20.187 77.328c-5.69 2.356-11.131 5.305-16.265 8.794zm-22.382 114.634c13.46-13.332 31.307-20.675 50.255-20.675h32.212c14.155 0 27.837 4.135 39.569 11.957 4.448 2.966 5.655 8.997 2.69 13.446-1.436 2.155-3.627 3.621-6.166 4.129-2.539.509-5.125-.003-7.28-1.44-8.536-5.691-18.5-8.7-28.813-8.7h-32.212c-28.388 0-51.728 23.096-52.027 51.485-.057 5.29-4.404 9.594-9.693 9.594h-.106c-5.346-.056-9.65-4.452-9.594-9.798.2-18.922 7.716-36.678 21.165-49.998zm82.466 102.475h-32.211c-19.732 0-36.905-11.115-45.619-27.407 8.105-5.259 13.534-14.343 13.643-24.654.184-17.448 14.529-31.644 31.976-31.644h32.212c6.341 0 12.458 1.844 17.69 5.332 6.611 4.407 14.543 5.976 22.336 4.419 1.994-.399 3.916-.993 5.748-1.763 3.784 7.178 5.94 15.341 5.94 24.004-.001 28.514-23.199 51.713-51.715 51.713zm69.012-71.389c-1.873-6.556-4.651-12.735-8.201-18.384 7.293-1.78 15.202-2.724 23.328-2.724 8.837 0 17.417 1.115 25.225 3.213-3.503 5.669-6.234 11.858-8.057 18.424-4.893-1.361-10.698-2.245-17.167-2.245-5.591 0-10.687.66-15.128 1.716zm133.655 71.389h-32.211c-28.515 0-51.714-23.199-51.714-51.714 0-8.648 2.141-16.803 5.91-23.973 1.811.755 3.71 1.338 5.678 1.732 7.796 1.559 15.726-.011 22.336-4.418 5.233-3.488 11.349-5.332 17.69-5.332h32.213c17.447 0 31.792 14.196 31.976 31.644.109 10.344 5.573 19.452 13.721 24.703-8.723 16.267-25.886 27.358-45.599 27.358zm68.553-45.591c-1.812 1.851-4.237 2.885-6.792 2.912l-.141.001c-5.288 0-9.635-4.305-9.692-9.594-.3-28.389-23.639-51.486-52.027-51.486h-32.212c-10.312 0-20.275 3.008-28.814 8.7-2.154 1.436-4.739 1.948-7.278 1.439-2.54-.508-4.729-1.974-6.166-4.13-1.437-2.155-1.949-4.74-1.44-7.28.508-2.539 1.974-4.729 4.129-6.166 11.732-7.822 25.415-11.957 39.569-11.957h32.213c18.948 0 36.795 7.342 50.255 20.675 13.448 13.32 20.964 31.076 21.164 49.998.026 2.592-.957 5.037-2.768 6.888zm94.961-156.041c-1.254 2.389-4.059 5.799-9.471 4.177-4.478-1.344-3.542-7.477-3.024-9.754.215-.693.808-10.303.788-10.421-1.08-6.522-5.326-11.075-12.98-13.92-5.754-2.139-10.643-2.113-14.945.08-7.652 3.896-12.1 14.209-13.169 17.854l-30.716 117.66c-2.869-5.18-6.257-10.096-10.136-14.688l27.792-106.464c.412-1.436 5.736-19.095 20.094-26.406 5.33-2.713 14.13-5.037 25.788-.704 11.674 4.339 16.969 11.572 19.356 16.876 5.173 11.486 1.422 23.442.623 25.71z" fill="#440a29"/><g fill="#fff"><path d="m80.972 418.748c-5.534 0-10.023-4.484-10.027-10.019-.001-1.873.135-3.729.405-5.517.829-5.475 5.934-9.243 11.414-8.414 5.476.828 9.242 5.939 8.414 11.414-.12.793-.181 1.635-.18 2.502.004 5.538-4.482 10.03-10.02 10.034-.001 0-.004 0-.006 0z"/><path d="m267.921 418.748c-5.534 0-10.023-4.484-10.027-10.019-.001-1.873.135-3.729.405-5.517.829-5.475 5.937-9.243 11.414-8.414 5.475.828 9.242 5.939 8.414 11.414-.12.793-.181 1.635-.18 2.502.004 5.538-4.482 10.03-10.02 10.034-.002 0-.005 0-.006 0z"/><path d="m125.149 399.82c-.956 0-1.928-.138-2.891-.427-5.115-1.537-10.567-2.087-16.214-1.628-5.52.447-10.356-3.665-10.804-9.184-.447-5.52 3.665-10.357 9.185-10.804 8.139-.66 16.086.151 23.607 2.412 5.303 1.594 8.31 7.185 6.716 12.488-1.305 4.34-5.289 7.143-9.599 7.143z"/></g></g><g><ellipse cx="185.789" cy="58.959" fill="#ffe266" rx="18.596" ry="18.596" transform="matrix(.23 -.973 .973 .23 85.722 226.232)"/><ellipse cx="343.975" cy="96.302" fill="#ffe266" rx="7.875" ry="7.875" transform="matrix(.122 -.993 .993 .122 206.367 425.933)"/><g fill="#fef2a8"><path d="m76.456 68.316 6.317 17.764c.27.76.806 1.363 1.482 1.668l15.782 7.11c2.229 1.005 2.229 4.557 0 5.562l-15.782 7.11c-.676.304-1.211.907-1.482 1.668l-6.317 17.764c-.893 2.51-4.049 2.51-4.941 0l-6.317-17.764c-.271-.761-.806-1.363-1.482-1.668l-15.782-7.11c-2.23-1.005-2.23-4.557 0-5.562l15.782-7.11c.676-.304 1.211-.907 1.482-1.668l6.317-17.764c.892-2.51 4.048-2.51 4.941 0z"/><path d="m295.465 139.882 8.681 23.947c.372 1.025 1.108 1.838 2.036 2.248l21.686 9.586c3.064 1.354 3.064 6.143 0 7.498l-21.686 9.586c-.928.41-1.664 1.223-2.036 2.248l-8.681 23.947c-1.227 3.383-5.563 3.383-6.79 0l-8.681-23.947c-.372-1.025-1.107-1.838-2.036-2.248l-21.686-9.586c-3.064-1.354-3.064-6.143 0-7.498l21.686-9.586c.929-.41 1.664-1.223 2.036-2.248l8.681-23.947c1.226-3.383 5.563-3.383 6.79 0z"/><path d="m450.209 43.056 8.681 23.947c.372 1.025 1.108 1.838 2.036 2.248l21.686 9.586c3.064 1.354 3.064 6.143 0 7.498l-21.686 9.586c-.928.41-1.664 1.223-2.036 2.248l-8.681 23.947c-1.226 3.383-5.563 3.383-6.79 0l-8.681-23.947c-.372-1.025-1.108-1.838-2.036-2.248l-21.686-9.586c-3.064-1.354-3.064-6.143 0-7.498l21.686-9.586c.928-.41 1.664-1.223 2.036-2.248l8.681-23.947c1.226-3.383 5.563-3.383 6.79 0z"/></g></g></g></svg>