<svg id="Capa_1" enable-background="new 0 0 512 512" height="512" viewBox="0 0 512 512" width="512" xmlns="http://www.w3.org/2000/svg"><g><g><g fill="#cab4ef"><path d="m169.452 399.021h42.684c10.267 0 18.987-7.981 18.795-17.733-.186-9.457-8.315-17.069-18.315-17.069h-43.164c-5.519 0-9.994-4.251-9.994-9.494v-65.108c0-10.278-9.092-18.786-19.874-17.924-9.388.75-16.762 8.227-16.762 17.339v65.693c.001 24.464 20.878 44.296 46.63 44.296z"/><path d="m235.049 502.002h-1.014c-10.765 0-19.491-8.727-19.491-19.491v-188.119h39.996v188.118c0 10.765-8.726 19.492-19.491 19.492z"/><path d="m347.211 500.963h-1.014c-10.765 0-19.491-8.727-19.491-19.491v-188.119h39.996v188.118c.001 10.765-8.726 19.492-19.491 19.492z"/></g><path d="m381.185 304.185 18.521-128.592c6.68-46.379-31.266-87.694-80.545-87.694h-58.294c-49.567 0-87.597 41.776-80.444 88.369l19.637 127.916c2.865 13.497 15.349 23.204 29.843 23.204h121.438c14.495.001 26.98-9.706 29.844-23.203z" fill="#bdf4e3"/><path d="m319.161 87.9h-26.096c40.067 0 70.92 33.592 65.489 71.301l-15.059 104.555c-2.329 10.974-12.48 18.866-24.265 18.866h-98.738c-11.785 0-21.936-7.892-24.265-18.866l-15.967-104.005c-.124-.811-.209-1.615-.3-2.422-.648 6.156-.527 12.502.462 18.94l19.637 127.916c2.865 13.496 15.349 23.204 29.843 23.204h121.438c14.494 0 26.979-9.708 29.843-23.204l18.521-128.592c6.682-46.379-31.264-87.693-80.543-87.693z" fill="#b1b7e3"/><path d="m384.103 413.396h-186.96c-11.79 0-21.348-9.558-21.348-21.348 0-11.79 9.558-21.348 21.348-21.348h186.961c11.791 0 21.348 9.558 21.348 21.348 0 11.79-9.558 21.348-21.349 21.348z" fill="#bdf4e3"/><path d="m284.893 251.81h-152.973c-10.948 0-19.822 8.875-19.822 19.822 0 10.948 8.875 19.822 19.822 19.822h152.974c10.948 0 19.822-8.875 19.822-19.822 0-10.947-8.875-19.822-19.823-19.822z" fill="#78eac4"/></g><g><g fill="#440a29"><path d="m384.104 360.7h-7.402v-31.968c7.133-5.535 12.333-13.372 14.264-22.471.045-.216.084-.433.116-.65l18.521-128.592c3.477-24.139-3.849-48.74-20.098-67.497-17.409-20.096-43.048-31.621-70.344-31.621h-58.293c-27.459 0-53.196 11.638-70.611 31.932-16.252 18.937-23.438 43.706-19.716 67.954l9.829 64.025h-48.45c-16.443 0-29.821 13.377-29.821 29.821 0 9.184 4.176 17.409 10.725 22.884v60.209c0 29.938 25.403 54.294 56.628 54.294h1.356c5.588 8.641 15.301 14.375 26.335 14.375h7.402v59.116c0 16.261 13.229 29.49 29.49 29.49h1.014c16.261 0 29.49-13.229 29.49-29.49v-59.116h52.168v58.077c0 16.261 13.229 29.491 29.49 29.491h1.014c16.261 0 29.49-13.23 29.49-29.491v-58.077h7.402c17.285 0 31.347-14.062 31.347-31.347s-14.061-31.348-31.346-31.348zm-27.4 0h-19.999v-23.312h14.637c1.813 0 3.603-.119 5.362-.347zm-187.247-59.246h20.068l.652 4.249c.029.188.063.373.102.559 1.931 9.098 7.132 16.935 14.265 22.471v25.488h-35.088v-52.767zm55.085 35.588c1.76.228 3.55.347 5.362.347h14.637v23.311h-19.999zm39.997.346h52.168v23.312h-52.168zm-74.232-162.636c-2.878-18.747 2.494-37.177 15.126-51.896 13.612-15.86 33.817-24.957 55.436-24.957h58.293c21.491 0 41.621 9.009 55.229 24.718 12.631 14.58 18.107 32.889 15.419 51.551l-18.469 128.229c-1.999 8.706-10.359 14.994-19.999 14.994h-121.438c-9.655 0-18.026-6.308-20.008-15.035l-.138-.901h75.136c16.443 0 29.821-13.378 29.821-29.822s-13.378-29.821-29.821-29.821h-84.292zm-58.387 87.058h152.974c5.417 0 9.824 4.407 9.824 9.823 0 5.417-4.407 9.824-9.824 9.824h-152.974c-5.417 0-9.824-4.407-9.824-9.824s4.407-9.823 9.824-9.823zm.902 92.915v-53.271h16.638v53.271c0 10.749 8.969 19.493 19.993 19.493h1.928c-2.946 4.243-4.876 9.241-5.424 14.644-18.564-1.654-33.135-16.33-33.135-34.137zm111.719 127.785c0 5.234-4.258 9.492-9.492 9.492h-1.014c-5.234 0-9.493-4.258-9.493-9.492v-59.116h19.999zm112.163-1.038c0 5.235-4.258 9.493-9.492 9.493h-1.014c-5.234 0-9.492-4.258-9.492-9.493v-58.077h19.999v58.077zm27.4-78.075h-186.961c-6.258 0-11.35-5.091-11.35-11.349s5.092-11.35 11.35-11.35h186.961c6.258 0 11.35 5.092 11.35 11.35s-5.092 11.349-11.35 11.349z"/><ellipse cx="230.369" cy="174.116" rx="12.669" ry="12.668" transform="matrix(.998 -.056 .056 .998 -9.353 13.121)"/><ellipse cx="349.658" cy="174.116" rx="12.668" ry="12.669" transform="matrix(.062 -.998 .998 .062 154.119 512.26)"/><path d="m349.658 261.463c-3.313 0-5.999 2.686-5.999 5.999v12.766c0 3.313 2.686 5.999 5.999 5.999s5.999-2.686 5.999-5.999v-12.766c0-3.313-2.686-5.999-5.999-5.999z"/><path d="m331.095 250.011c3.313 0 5.999-2.686 5.999-5.999v-12.766c0-3.313-2.686-5.999-5.999-5.999s-5.999 2.686-5.999 5.999v12.766c0 3.313 2.686 5.999 5.999 5.999z"/></g><path d="m253.096 129.072c-4.551 0-8.666-3.127-9.734-7.751-1.243-5.38 2.112-10.75 7.493-11.992 1.352-.351 2.568-.562 3.952-.687 5.477-.645 10.453 3.276 11.1 8.761.646 5.484-3.276 10.454-8.76 11.1-1.328.106-2.726.628-4.051.569z" fill="#fff"/><path d="m214.535 156.195c-1.533 0-3.089-.354-4.547-1.099-4.916-2.516-6.861-8.541-4.346-13.456 2.368-4.627 7.305-13.185 13.765-18.508 4.262-3.512 10.564-2.904 14.075 1.357 3.512 4.261 2.904 10.563-1.357 14.074-2.569 2.117-5.976 6.901-8.682 12.187-1.768 3.457-5.273 5.445-8.908 5.445z" fill="#fff"/></g><g><path d="m487.763 219.085c0 10.242-8.303 18.544-18.545 18.544s-18.545-8.303-18.545-18.544c0-10.242 8.303-18.545 18.545-18.545s18.545 8.303 18.545 18.545z" fill="#78eac4"/><ellipse cx="95.113" cy="48.127" fill="#78eac4" rx="7.853" ry="7.853" transform="matrix(.16 -.987 .987 .16 32.407 134.328)"/><g fill="#bdf4e3"><path d="m175.511 1.877 6.3 17.714c.27.758.803 1.359 1.477 1.663l15.738 7.091c2.223 1.002 2.223 4.545 0 5.546l-15.738 7.091c-.674.304-1.208.904-1.477 1.663l-6.3 17.714c-.89 2.502-4.038 2.502-4.928 0l-6.3-17.714c-.27-.758-.804-1.359-1.478-1.663l-15.738-7.091c-2.224-1.002-2.224-4.545 0-5.546l15.738-7.091c.674-.304 1.208-.905 1.478-1.663l6.3-17.714c.891-2.503 4.038-2.503 4.928 0z"/><path d="m461.901 295.23 6.3 17.714c.27.758.803 1.359 1.477 1.663l15.738 7.091c2.223 1.002 2.223 4.544 0 5.546l-15.738 7.091c-.674.304-1.208.905-1.477 1.663l-6.3 17.714c-.89 2.503-4.038 2.503-4.928 0l-6.3-17.714c-.27-.759-.804-1.359-1.477-1.663l-15.738-7.091c-2.223-1.002-2.223-4.544 0-5.546l15.738-7.091c.674-.304 1.208-.905 1.477-1.663l6.3-17.714c.89-2.502 4.038-2.502 4.928 0z"/><path d="m65.612 112.976 8.657 23.881c.371 1.022 1.104 1.833 2.03 2.242l21.626 9.559c3.055 1.35 3.055 6.126 0 7.477l-21.626 9.559c-.926.409-1.66 1.22-2.03 2.242l-8.657 23.881c-1.223 3.374-5.548 3.374-6.771 0l-8.656-23.881c-.371-1.022-1.104-1.833-2.03-2.242l-21.626-9.559c-3.055-1.35-3.055-6.126 0-7.477l21.626-9.559c.926-.409 1.66-1.219 2.03-2.242l8.656-23.881c1.223-3.374 5.548-3.374 6.771 0z"/></g></g></g></svg>