<svg id="Capa_1" enable-background="new 0 0 501.218 501.218" height="512" viewBox="0 0 501.218 501.218" width="512" xmlns="http://www.w3.org/2000/svg"><g><g><g fill="#fef2a8"><path d="m131.018 456.03 23.768-46.797-62.977-62.976-46.797 23.768"/><path d="m220.487 37.203h89.34v397.364h-89.34z" transform="matrix(.707 .707 -.707 .707 244.458 -118.405)"/><path d="m442.81 136.33c8.578-8.579 13.732-19.28 15.486-30.412l32.922-43.754-51.987-51.987-44.108 32.568c-11.133 1.754-21.833 6.908-30.412 15.486-8.579 8.579-13.733 19.28-15.486 30.412l-38.338 38.338 63.173 63.173 38.338-38.338c11.132-1.753 21.833-6.907 30.412-15.486z"/></g><path d="m364.327 196.084-59.368-59.368c-8.422-8.422-8.422-22.077 0-30.499 8.422-8.422 22.077-8.422 30.499 0l59.368 59.368c8.422 8.422 8.422 22.077 0 30.499-8.422 8.422-22.077 8.422-30.499 0z" fill="#ffe266"/><path d="m152.982 407.429-59.368-59.368c-8.422-8.422-8.422-22.077 0-30.499 8.422-8.422 22.077-8.422 30.499 0l59.368 59.368c8.422 8.422 8.422 22.077 0 30.499-8.422 8.422-22.077 8.422-30.499 0z" fill="#ffe266"/><path d="m98.714 484.726-82.397-82.397c-8.422-8.422-8.422-22.077 0-30.499 8.422-8.422 22.077-8.422 30.499 0l82.397 82.397c8.422 8.422 8.422 22.077 0 30.499-8.422 8.422-22.077 8.422-30.499 0z" fill="#ffe266"/><path d="m439.231 10.177-19.387 14.315 20.753 20.753c7.363 7.363 8.183 19.024 1.922 27.345l-19.422 25.812c-1.616 10.258-6.365 20.119-14.27 28.023-7.905 7.906-21.288 14.247-31.546 15.863l-3.127 5.261c6.067 7.796 5.534 19.065-1.632 26.231s-18.435 7.7-26.231 1.632l-185.31 180.712c6.067 7.796 5.534 19.065-1.632 26.231-7.761 7.761-20.344 7.761-28.105 0l1.662 1.662-21.917 48.615s16.625 7.074 8.864 14.834c-7.761 7.761-20.344 7.761-28.105 0l-75.53-75.529c-8.319 8.43-8.29 22.004.098 30.392l82.397 82.397c20.04 19.858 50.35-10.475 30.5-30.499l1.804 1.804 23.768-46.797-1.804-1.804c8.422 8.422 22.077 8.422 30.499 0 7.776-7.776 8.355-20.005 1.771-28.466l181.109-181.109c8.461 6.584 20.689 6.005 28.466-1.771 7.777-7.777 8.355-20.005 1.771-28.466l15.801-15.801c11.133-1.754 21.833-6.908 30.412-15.487 8.579-8.578 13.732-19.279 15.486-30.412l32.922-43.754z" fill="#eeb6a8"/><path d="m134.774 463.877c-.908-3.576-2.804-6.869-5.56-9.65l.002.002c-.001-.001-.001-.002-.002-.003l-8.191-8.191c-.303.473-.689.951-1.169 1.431-7.761 7.761-20.344 7.761-28.105 0l-75.53-75.529c-4.159 4.214-6.231 9.715-6.216 15.21.004 5.638 2.323 11.198 6.314 15.182l82.397 82.397c14.644 15.697 42.375-.395 36.06-20.849z" fill="#efaa66"/><path d="m184.907 405.852c3.73-4.554 5.486-10.643 4.685-16.48-.488-3.705-1.928-7.309-4.338-10.407-.547-.703-1.126-1.389-1.773-2.035l-21.642-21.642-.858.837c6.067 7.796 5.534 19.065-1.632 26.231-7.761 7.761-20.344 7.761-28.105 0l1.662 1.662-1.037 2.299 21.112 21.112s.001.001.001.001l-.001-.001c1.569 1.566 3.295 2.835 5.22 3.849 8.138 4.277 18.436 2.994 25.279-3.849.505-.509.982-1.034 1.427-1.577z" fill="#efaa66"/><path d="m401.093 179.798c-.03-.592-.062-1.187-.156-1.773-.488-3.705-1.929-7.31-4.34-10.408-.547-.703-1.126-1.388-1.771-2.034l-19.689-19.688-.983 1.653c6.067 7.797 5.534 19.066-1.632 26.232s-18.435 7.7-26.231 1.632l-1.335 1.302 19.369 19.37c.648.648 1.335 1.228 2.039 1.775 3.096 2.408 6.698 3.847 10.399 4.335 12.869 2.04 25.312-9.4 24.33-22.396z" fill="#efaa66"/><path d="m393.708 87.229c-2.024 1.143-3.981 2.614-5.772 4.405-7.997 7.997-9.674 19.287-3.744 25.216 5.929 5.929 17.219 4.253 25.216-3.744 1.791-1.791 3.263-3.748 4.405-5.772z" fill="#b07676"/></g><g fill="#440a29"><path d="m498.29 55.093-51.988-51.987c-3.5-3.499-9.032-3.913-13.011-.974l-42.225 31.178c-12.704 2.502-24.216 8.641-33.426 17.851-9.012 9.013-15.083 20.229-17.685 32.61l-11.426 11.427c-9.496-2.991-20.3-.737-27.813 6.776s-9.767 18.317-6.777 27.813l-176.739 176.74c-2.662-.841-5.465-1.283-8.336-1.283-7.363 0-14.286 2.868-19.492 8.074-5.207 5.207-8.074 12.129-8.074 19.492 0 2.431.319 4.811.925 7.1l-36.923 18.754c-11.755-5.668-26.318-3.641-36.054 6.094-5.962 5.962-9.246 13.889-9.246 22.32 0 8.433 3.284 16.359 9.246 22.321l82.397 82.397c5.962 5.962 13.889 9.245 22.321 9.245s16.359-3.283 22.32-9.245c5.962-5.962 9.246-13.889 9.246-22.32 0-4.844-1.089-9.519-3.141-13.753l18.752-36.92c2.321.614 4.705.928 7.091.928 7.058 0 14.119-2.688 19.493-8.061 5.206-5.206 8.074-12.129 8.074-19.492 0-2.872-.442-5.674-1.283-8.336l176.724-176.725c2.662.841 5.465 1.283 8.336 1.283 7.363 0 14.286-2.868 19.493-8.075 5.207-5.206 8.074-12.129 8.074-19.492 0-2.872-.442-5.674-1.283-8.335l11.411-11.412c12.381-2.6 23.597-8.672 32.611-17.685 9.197-9.197 15.332-20.693 17.84-33.378l31.487-41.847c2.996-3.981 2.604-9.56-.919-13.083zm-364.766 263.395 172.36-172.361 49.031 49.03-172.361 172.362zm-71.695 54.212 31.792-16.147 50.869 50.869-16.147 31.792zm60.313 104.954c-4.509 4.51-11.848 4.51-16.356 0l-82.398-82.397c-2.185-2.185-3.388-5.089-3.388-8.179 0-3.089 1.203-5.993 3.388-8.178 2.254-2.255 5.216-3.383 8.178-3.383s5.924 1.128 8.179 3.383l82.397 82.398c2.185 2.184 3.388 5.089 3.388 8.179 0 3.088-1.203 5.993-3.388 8.177zm57.096-74.467c-6.069 6.068-15.944 6.068-22.014 0l-59.368-59.369c-2.94-2.94-4.56-6.849-4.56-11.007 0-4.157 1.619-8.066 4.56-11.007 2.94-2.94 6.849-4.56 11.007-4.56s8.067 1.619 11.007 4.56l59.368 59.369c2.94 2.939 4.56 6.849 4.56 11.006 0 4.158-1.619 8.067-4.56 11.008zm211.345-211.346c-2.94 2.94-6.849 4.56-11.007 4.56s-8.067-1.619-11.007-4.56l-59.368-59.367c-6.069-6.07-6.069-15.945 0-22.016 3.035-3.034 7.021-4.552 11.007-4.552s7.972 1.518 11.007 4.552l59.368 59.369c2.94 2.939 4.56 6.849 4.56 11.007 0 4.157-1.62 8.066-4.56 11.007zm59.723-91.936c-.984 1.309-1.633 2.839-1.887 4.456-1.495 9.488-5.879 18.098-12.679 24.897-6.801 6.801-15.41 11.186-24.897 12.68-2.089.328-4.02 1.311-5.516 2.807l-11.427 11.428-49.031-49.031 11.427-11.427c1.495-1.495 2.477-3.426 2.807-5.515 1.495-9.488 5.88-18.098 12.68-24.897 6.801-6.8 15.41-11.185 24.897-12.68 1.587-.25 3.091-.879 4.384-1.833l37.184-27.456 39.758 39.759z"/><path d="m312.829 188.213c-4.882-4.881-12.796-4.881-17.678 0-4.882 4.882-4.882 12.796 0 17.678s12.796 4.882 17.678 0c4.881-4.882 4.881-12.796 0-17.678z"/><path d="m255.66 227.705c-4.882 4.881-4.882 12.796 0 17.678 4.882 4.881 12.796 4.881 17.678 0 4.882-4.882 4.882-12.796 0-17.678s-12.797-4.882-17.678 0z"/><path d="m216.169 267.196c-4.882 4.882-4.882 12.796 0 17.678 4.882 4.881 12.796 4.881 17.678 0s4.882-12.796 0-17.678c-4.882-4.881-12.797-4.881-17.678 0z"/><path d="m176.677 306.688c-4.881 4.881-4.881 12.796 0 17.677 4.882 4.882 12.796 4.882 17.678 0 4.882-4.881 4.882-12.796 0-17.678-4.882-4.881-12.796-4.881-17.678.001z"/><path d="m397.951 82.986c-1.905-1.905-4.846-2.307-7.192-.983-2.556 1.442-4.933 3.256-7.065 5.388-10.499 10.499-12.144 25.303-3.744 33.703 3.603 3.603 8.385 5.357 13.501 5.357 6.808 0 14.206-3.108 20.201-9.104 2.131-2.13 3.943-4.507 5.387-7.063 1.325-2.346.923-5.288-.982-7.192zm7.215 25.877c-5.454 5.454-13.273 7.203-16.731 3.745-3.459-3.46-1.71-11.278 3.745-16.732.284-.283.573-.558.869-.822l12.94 12.94c-.266.296-.54.585-.823.869z"/></g><g><ellipse cx="147.215" cy="62.182" fill="#ffe266" rx="18.547" ry="18.547" transform="matrix(.231 -.973 .973 .231 52.751 191.084)"/><circle cx="139.36" cy="192.406" fill="#ffe266" r="7.854"/><g fill="#fef2a8"><path d="m253.073 22.623 6.301 17.716c.27.758.804 1.36 1.478 1.663l15.74 7.092c2.224 1.002 2.224 4.545 0 5.547l-15.74 7.092c-.674.304-1.208.905-1.478 1.663l-6.301 17.716c-.89 2.503-4.038 2.503-4.928 0l-6.301-17.716c-.27-.759-.804-1.36-1.478-1.663l-15.74-7.092c-2.224-1.002-2.224-4.545 0-5.547l15.74-7.092c.674-.304 1.208-.905 1.478-1.663l6.301-17.716c.89-2.503 4.038-2.503 4.928 0z"/><path d="m42.438 122.928 8.657 23.883c.371 1.023 1.105 1.833 2.031 2.242l21.629 9.56c3.056 1.351 3.056 6.127 0 7.478l-21.629 9.56c-.926.409-1.66 1.22-2.031 2.242l-8.657 23.883c-1.223 3.374-5.549 3.374-6.772 0l-8.657-23.883c-.371-1.023-1.105-1.833-2.031-2.242l-21.629-9.56c-3.056-1.351-3.056-6.127 0-7.478l21.629-9.56c.926-.409 1.66-1.22 2.031-2.242l8.657-23.883c1.223-3.374 5.549-3.374 6.772 0z"/></g></g></g></svg>