<svg id="Capa_1" enable-background="new 0 0 512 512" height="512" viewBox="0 0 512 512" width="512" xmlns="http://www.w3.org/2000/svg"><g><g><path d="m87.317 181.085c-12.848 0-23.264-10.415-23.264-23.264v-53.264c0-12.848 10.416-23.264 23.264-23.264 12.848 0 23.263 10.415 23.263 23.264v53.264c0 12.848-10.415 23.264-23.263 23.264z" fill="#ffe266"/><path d="m422.882 181.085c-12.848 0-23.264-10.415-23.264-23.264v-53.264c0-12.848 10.415-23.264 23.264-23.264 12.848 0 23.263 10.415 23.263 23.264v53.264c0 12.848-10.415 23.264-23.263 23.264z" fill="#ffe266"/><path d="m471.049 501.817h-430.097c-16.409 0-29.711-13.302-29.711-29.711v-295.885c0-16.409 13.302-29.711 29.711-29.711h430.097c16.409 0 29.711 13.302 29.711 29.711v295.885c-.001 16.409-13.303 29.711-29.711 29.711z" fill="#fef2a8"/><path d="m454.224 470.669h-121.826c-7.036 0-12.739-5.704-12.739-12.739v-253.873c0-7.036 5.703-12.739 12.739-12.739h121.826c7.036 0 12.739 5.704 12.739 12.739v253.873c0 7.036-5.703 12.739-12.739 12.739z" fill="#fff"/><path d="m51.374 247.202h230.592c4.602 0 8.332 3.73 8.332 8.332v201.351c0 4.602-3.73 8.332-8.332 8.332h-230.592c-4.602 0-8.332-3.73-8.332-8.332v-201.35c0-4.602 3.73-8.333 8.332-8.333z" fill="#fff"/><path d="m290.299 293.103v-37.569c0-4.602-3.731-8.332-8.332-8.332h-230.593c-4.602 0-8.332 3.73-8.332 8.332v37.569z" fill="#ef8bbd"/><path d="m471.049 146.51h-55.273c14.091 0 25.513 11.422 25.513 25.512v247.201c0 14.09-11.422 25.513-25.513 25.513h-379.022c-14.091 0-25.513-11.423-25.513-25.513v52.882c0 16.409 13.302 29.711 29.711 29.711h430.097c16.409 0 29.711-13.302 29.711-29.711v-295.884c-.001-16.409-13.303-29.711-29.711-29.711z" fill="#eeb6a8"/><g fill="#ffbffc"><path d="m51.374 465.218h230.592c4.602 0 8.332-3.73 8.332-8.332v-12.149h-247.256v12.149c0 4.602 3.73 8.332 8.332 8.332z"/><path d="m454.224 191.318h-12.935v227.906c0 14.09-11.422 25.513-25.513 25.513h-96.117v13.193c0 7.036 5.703 12.739 12.739 12.739h121.826c7.036 0 12.739-5.704 12.739-12.739v-253.873c0-7.035-5.704-12.739-12.739-12.739z"/></g></g><g><g fill="#440a29"><path d="m471.048 136.327h-14.719v-31.769c0-18.443-15.005-33.448-33.448-33.448s-33.447 15.005-33.447 33.448v31.769h-268.67v-31.769c0-18.443-15.005-33.448-33.447-33.448s-33.447 15.005-33.447 33.448v31.769h-12.918c-21.998 0-39.895 17.897-39.895 39.894v295.886c0 21.996 17.897 39.893 39.895 39.893h430.096c21.998 0 39.895-17.897 39.895-39.894v-295.886c0-21.997-17.897-39.893-39.895-39.893zm-61.246-31.769c0-7.213 5.867-13.081 13.079-13.081 7.213 0 13.08 5.868 13.08 13.081v31.769h-26.16v-31.769zm-335.565 0c0-7.213 5.867-13.081 13.079-13.081 7.213 0 13.08 5.868 13.08 13.081v31.769h-26.16v-31.769zm416.339 367.548c0 10.767-8.76 19.527-19.528 19.527h-430.096c-10.767 0-19.528-8.759-19.528-19.527v-295.886c0-10.767 8.76-19.527 19.528-19.527h430.096c10.767 0 19.528 8.759 19.528 19.527z"/><path d="m454.223 185.208h-121.826c-10.393 0-18.849 8.456-18.849 18.849v253.873c0 10.393 8.456 18.85 18.849 18.85h121.826c10.393 0 18.85-8.456 18.85-18.85v-253.873c0-10.393-8.456-18.849-18.85-18.849zm6.63 272.722c0 3.656-2.974 6.629-6.629 6.629h-121.827c-3.656 0-6.629-2.974-6.629-6.629v-253.873c0-3.656 2.974-6.629 6.629-6.629h121.826c3.656 0 6.629 2.973 6.629 6.629v253.873z"/><path d="m281.966 241.093h-230.592c-7.963 0-14.442 6.479-14.442 14.442v201.351c0 7.964 6.479 14.443 14.442 14.443h230.592c7.964 0 14.443-6.479 14.443-14.443v-201.352c0-7.962-6.479-14.441-14.443-14.441zm-230.592 12.22h230.592c1.225 0 2.223.997 2.223 2.222v32.427h-235.037v-32.427c0-1.226.997-2.222 2.222-2.222zm80.672 89.64h28.514v30.551h-28.514zm-12.22 30.55h-28.514v-30.551h28.514zm40.734 12.22v30.55h-28.514v-30.55zm12.221 0h28.514v30.55h-28.514zm0-12.22v-30.551h28.514v30.551zm40.734-30.55h28.514v30.551h-28.514zm0-12.221v-30.55h28.514v30.55zm-12.221 0h-28.514v-30.55h28.514zm-40.734 0h-28.514v-30.55h28.514zm-40.734 0h-28.514v-30.55h28.514zm-40.734 0h-29.94v-30.55h29.94zm0 12.221v30.551h-29.94v-30.551zm0 42.77v30.55h-29.94v-30.55zm12.22 0h28.514v30.55h-28.514zm28.514 42.771v30.614h-28.514v-30.614zm12.22 0h28.514v30.614h-28.514zm40.735 0h28.514v30.614h-28.514zm40.734 0h28.514v30.614h-28.514zm0-12.22v-30.55h28.514v30.55zm40.734-30.551h29.94v30.55h-29.94zm0-12.22v-30.551h29.94v30.551zm0-42.771v-30.55h29.94v30.55zm-205.097 126.154v-28.392h29.94v30.614h-27.718c-1.225 0-2.222-.997-2.222-2.222zm232.814 2.222h-27.717v-30.614h29.94v28.392c0 1.225-.998 2.222-2.223 2.222z"/><path d="m51.683 218.606h139.632c3.374 0 6.11-2.736 6.11-6.11s-2.736-6.11-6.11-6.11h-139.632c-3.374 0-6.11 2.736-6.11 6.11s2.736 6.11 6.11 6.11z"/><path d="m236.069 218.606h43.72c3.374 0 6.11-2.736 6.11-6.11s-2.736-6.11-6.11-6.11h-43.72c-3.374 0-6.11 2.736-6.11 6.11s2.736 6.11 6.11 6.11z"/><path d="m436.58 228.144h-86.539c-3.374 0-6.11 2.736-6.11 6.11s2.736 6.11 6.11 6.11h86.539c3.374 0 6.11-2.736 6.11-6.11s-2.735-6.11-6.11-6.11z"/><path d="m436.58 267.304h-86.539c-3.374 0-6.11 2.736-6.11 6.11s2.736 6.11 6.11 6.11h86.539c3.374 0 6.11-2.736 6.11-6.11s-2.735-6.11-6.11-6.11z"/><path d="m436.58 306.463h-86.539c-3.374 0-6.11 2.736-6.11 6.11s2.736 6.11 6.11 6.11h86.539c3.374 0 6.11-2.736 6.11-6.11s-2.735-6.11-6.11-6.11z"/><path d="m436.58 345.623h-86.539c-3.374 0-6.11 2.736-6.11 6.11s2.736 6.11 6.11 6.11h86.539c3.374 0 6.11-2.736 6.11-6.11s-2.735-6.11-6.11-6.11z"/><path d="m436.58 384.782h-86.539c-3.374 0-6.11 2.736-6.11 6.11s2.736 6.11 6.11 6.11h86.539c3.374 0 6.11-2.736 6.11-6.11s-2.735-6.11-6.11-6.11z"/><path d="m436.58 423.941h-86.539c-3.374 0-6.11 2.736-6.11 6.11s2.736 6.11 6.11 6.11h86.539c3.374 0 6.11-2.736 6.11-6.11s-2.735-6.11-6.11-6.11z"/></g><path d="m103.19 187.972c-5.536 0-10.075-4.436-10.178-9.995-.104-5.624 4.371-10.266 9.994-10.369 10.382-.192 19.548-.19 29.717 0 5.623.105 10.096 4.75 9.99 10.374-.105 5.623-4.777 10.088-10.374 9.989-9.906-.187-18.838-.187-28.957 0-.064 0-.129.001-.192.001z" fill="#fff"/><path d="m58.813 187.972h-6.113c-5.624 0-10.184-4.56-10.184-10.183 0-5.624 4.56-10.184 10.184-10.184h6.113c5.624 0 10.183 4.56 10.183 10.184 0 5.623-4.56 10.183-10.183 10.183z" fill="#fff"/></g><g><path d="m306.304 81.294c0 10.431-8.456 18.887-18.887 18.887s-18.887-8.456-18.887-18.887 8.456-18.887 18.887-18.887 18.887 8.456 18.887 18.887z" fill="#ffe266"/><path d="m51.421 23.694c0 4.418-3.581 7.999-7.998 7.999-4.418 0-7.999-3.581-7.999-7.999s3.581-7.998 7.999-7.998c4.417 0 7.998 3.581 7.998 7.998z" fill="#ffe266"/><g fill="#fef2a8"><path d="m376.082 1.912 6.416 18.042c.275.772.818 1.385 1.505 1.694l16.029 7.222c2.264 1.02 2.264 4.628 0 5.649l-16.029 7.222c-.686.309-1.23.921-1.505 1.694l-6.416 18.042c-.906 2.549-4.112 2.549-5.019 0l-6.416-18.042c-.275-.773-.818-1.385-1.505-1.694l-16.029-7.222c-2.264-1.02-2.264-4.628 0-5.649l16.029-7.222c.686-.309 1.23-.921 1.505-1.694l6.416-18.042c.907-2.549 4.113-2.549 5.019 0z"/><path d="m184.678 17.261 8.816 24.322c.378 1.041 1.125 1.867 2.068 2.284l22.025 9.736c3.112 1.375 3.112 6.24 0 7.615l-22.025 9.736c-.943.417-1.69 1.242-2.068 2.283l-8.816 24.322c-1.246 3.436-5.65 3.436-6.896 0l-8.816-24.322c-.378-1.041-1.125-1.867-2.068-2.283l-22.025-9.736c-3.112-1.375-3.112-6.24 0-7.615l22.025-9.736c.943-.417 1.69-1.242 2.068-2.284l8.816-24.322c1.246-3.436 5.651-3.436 6.896 0z"/></g></g></g></svg>