<svg id="Capa_1" enable-background="new 0 0 512 512" height="512" viewBox="0 0 512 512" width="512" xmlns="http://www.w3.org/2000/svg"><g><g><path d="m112.93 10.104h-73.665c-15.266 0-27.641 12.375-27.641 27.64v436.511c0 15.266 12.375 27.641 27.641 27.641h73.665c15.265 0 27.641-12.375 27.641-27.641v-436.511c0-15.265-12.375-27.64-27.641-27.64zm-36.832 100.783c-10.169 0-18.412-8.243-18.412-18.411 0-10.169 8.243-18.412 18.412-18.412s18.412 8.243 18.412 18.412c0 10.168-8.244 18.411-18.412 18.411z" fill="#fef2a8"/><path d="m112.93 10.104h-27.209c11.165 0 20.217 10.946 20.217 24.449v386.111c0 13.503-9.051 24.45-20.217 24.45h-53.88c-11.165 0-20.217-10.946-20.217-24.45v53.592c0 15.266 12.375 27.641 27.641 27.641h73.665c15.265 0 27.641-12.375 27.641-27.641v-436.512c0-15.265-12.375-27.64-27.641-27.64z" fill="#eeb6a8"/><path d="m496.147 483.206-278.303-454.146c-6.474-10.564-22.743-5.976-22.743 6.415v454.145c0 6.78 5.496 12.276 12.276 12.276h278.303c9.593 0 15.48-10.51 10.467-18.69zm-129.315-65.938h-100.869c-2.457 0-4.449-1.992-4.449-4.449v-164.602c0-4.49 5.897-6.154 8.243-2.325l100.869 164.602c1.816 2.965-.317 6.774-3.794 6.774z" fill="#78eac4"/><path d="m496.147 483.206-278.303-454.146c-3.028-4.942-8.2-6.567-12.846-5.63 1.971.575 3.824 2.172 5.1 4.98l183.504 404.001c3.305 7.277-.576 16.627-6.902 16.627h-183.504c-4.47 0-8.094-4.889-8.094-10.92v51.502c0 6.78 5.496 12.276 12.276 12.276h278.302c9.593 0 15.48-10.51 10.467-18.69z" fill="#71afc4"/></g><g><g fill="#440a29"><path d="m112.93 0h-73.665c-20.812 0-37.744 16.932-37.744 37.745v436.511c0 20.812 16.932 37.744 37.744 37.744h73.665c20.812 0 37.745-16.932 37.745-37.745v-436.51c0-20.813-16.933-37.745-37.745-37.745zm17.537 474.255c0 9.67-7.867 17.537-17.537 17.537h-73.665c-9.67 0-17.536-7.867-17.536-17.537v-26.529h58.878c3.348 0 6.062-2.714 6.062-6.062s-2.714-6.062-6.062-6.062h-58.878v-33.343h35.957c3.348 0 6.062-2.715 6.062-6.062s-2.714-6.062-6.062-6.062h-35.957v-33.343h58.878c3.348 0 6.062-2.714 6.062-6.062s-2.714-6.062-6.062-6.062h-58.878v-33.343h35.957c3.348 0 6.062-2.715 6.062-6.062s-2.714-6.062-6.062-6.062h-35.957v-33.343h58.878c3.348 0 6.062-2.714 6.062-6.062s-2.714-6.062-6.062-6.062h-58.878v-33.343h35.957c3.348 0 6.062-2.714 6.062-6.062s-2.714-6.062-6.062-6.062h-35.957v-33.347h58.878c3.348 0 6.062-2.714 6.062-6.062s-2.714-6.062-6.062-6.062h-58.878v-125.051c0-9.67 7.867-17.537 17.536-17.537h73.665c9.67 0 17.537 7.867 17.537 17.537z"/><path d="m76.097 68.001c-13.495 0-24.474 10.979-24.474 24.474s10.979 24.474 24.474 24.474 24.474-10.979 24.474-24.474c.001-13.495-10.978-24.474-24.474-24.474zm0 36.823c-6.809 0-12.349-5.54-12.349-12.35 0-6.809 5.54-12.349 12.349-12.349 6.81 0 12.35 5.54 12.35 12.349 0 6.81-5.54 12.35-12.35 12.35z"/><path d="m504.762 477.926-278.303-454.145c-5.295-8.639-15.405-12.597-25.157-9.846-9.753 2.751-16.305 11.407-16.305 21.54v454.145c0 12.34 10.04 22.38 22.38 22.38h278.303c8.213 0 15.513-4.278 19.526-11.444 4.014-7.167 3.847-15.626-.444-22.63zm-17.187 12.756c-.284.507-.844 1.111-1.895 1.111h-278.303c-1.198 0-2.172-.974-2.172-2.172v-454.146c0-.45 0-1.644 1.583-2.091.275-.077.522-.111.742-.111 1.046 0 1.506.75 1.7 1.067l278.302 454.146c.549.896.326 1.689.043 2.196z"/><path d="m278.372 240.613c-3.442-5.618-10.017-8.188-16.359-6.403-6.342 1.789-10.603 7.418-10.603 14.007v164.602c0 8.024 6.528 14.553 14.553 14.553h100.869c5.261 0 10.127-2.852 12.697-7.441 2.571-4.59 2.461-10.229-.288-14.716zm-6.754 166.551v-138.898l85.117 138.898z"/></g><path d="m233.418 204.911c-5.58 0-10.104-4.524-10.104-10.104v-24.999c0-5.58 4.524-10.104 10.104-10.104s10.104 4.524 10.104 10.104v24.999c0 5.58-4.524 10.104-10.104 10.104z" fill="#fff"/><path d="m233.418 148.092c-5.58 0-10.104-4.524-10.104-10.104v-4.429c0-5.58 4.524-10.104 10.104-10.104s10.104 4.524 10.104 10.104v4.429c0 5.58-4.524 10.104-10.104 10.104z" fill="#fff"/></g><g><ellipse cx="433.701" cy="90.763" fill="#78eac4" rx="18.74" ry="18.74" transform="matrix(.23 -.973 .973 .23 245.721 492.009)"/><path d="m480.026 299.8c0 4.383-3.553 7.936-7.936 7.936s-7.936-3.553-7.936-7.936 3.553-7.936 7.936-7.936 7.936 3.553 7.936 7.936z" fill="#78eac4"/><g fill="#bdf4e3"><path d="m309.739 10.058 6.366 17.9c.272.766.812 1.374 1.493 1.681l15.904 7.165c2.247 1.012 2.247 4.592 0 5.605l-15.904 7.165c-.681.307-1.221.914-1.493 1.68l-6.366 17.901c-.899 2.529-4.08 2.529-4.979 0l-6.366-17.901c-.273-.766-.812-1.374-1.493-1.68l-15.904-7.165c-2.247-1.012-2.247-4.592 0-5.605l15.904-7.165c.681-.307 1.22-.914 1.493-1.681l6.366-17.9c.899-2.529 4.08-2.529 4.979 0z"/><path d="m475.511 142.473 8.747 24.132c.375 1.033 1.116 1.852 2.052 2.266l21.853 9.66c3.087 1.365 3.087 6.191 0 7.555l-21.853 9.66c-.936.413-1.677 1.232-2.052 2.265l-8.747 24.132c-1.236 3.409-5.606 3.409-6.842 0l-8.748-24.132c-.375-1.033-1.116-1.852-2.052-2.265l-21.853-9.66c-3.087-1.365-3.087-6.191 0-7.555l21.853-9.66c.936-.414 1.677-1.232 2.052-2.266l8.748-24.132c1.236-3.41 5.606-3.41 6.842 0z"/></g></g></g></svg>