<svg id="Capa_1" enable-background="new 0 0 512 512" height="512" viewBox="0 0 512 512" width="512" xmlns="http://www.w3.org/2000/svg"><g><g><path d="m350.929 402.831h-65.935c-5.064 0-9.17 4.105-9.17 9.17v37.553c0 5.064 4.105 9.17 9.17 9.17h65.935c5.064 0 9.17-4.105 9.17-9.17v-37.553c0-5.065-4.106-9.17-9.17-9.17z" fill="#8bb6ef"/><path d="m205.32 393.662c-59.22 0-107.228-48.789-107.228-108.973s48.008-108.973 107.228-108.973l-4.521-43.504c-90.15 0-163.231 79.444-163.231 177.444s73.081 177.444 163.231 177.444" fill="#fff"/><path d="m363.3 360.888h-156.374c-14.148 0-25.617-11.469-25.617-25.617 0-14.148 11.469-25.617 25.617-25.617h156.374c14.148 0 25.617 11.469 25.617 25.617 0 14.148-11.469 25.617-25.617 25.617z" fill="#fff"/><path d="m127.481 463.553h88.44c9.709 0 17.58-7.871 17.58-17.579v-118.739c0-9.709-7.871-17.58-17.58-17.58h-56.746c-7.555 0-14.265 4.827-16.667 11.99l-31.695 118.738c-3.818 11.39 4.656 23.17 16.668 23.17z" fill="#cab4ef"/><path d="m215.922 309.655h-28.051c7.14 0 12.929 5.32 12.929 11.884v80.267c0 6.563-5.788 11.884-12.929 11.884h-65.044c-1.666 0-3.238-.284-4.675-.795l-7.338 27.489c-3.819 11.389 4.655 23.169 16.667 23.169h88.44c9.709 0 17.58-7.871 17.58-17.58v-118.739c0-9.708-7.87-17.579-17.579-17.579z" fill="#be87ef"/><path d="m394.516 501.97h-270.943c-16.72 0-30.274-13.554-30.274-30.274 0-16.72 13.554-30.274 30.274-30.274h270.943c16.72 0 30.274 13.554 30.274 30.274 0 16.72-13.554 30.274-30.274 30.274z" fill="#a183e2"/><path d="m394.516 441.421h-28.036c9.797 0 17.738 7.942 17.738 17.739s-7.942 17.738-17.738 17.738h-255.442c-7.906 0-14.598-5.175-16.889-12.321-.551 2.284-.85 4.666-.85 7.118 0 16.72 13.554 30.274 30.274 30.274h270.943c16.72 0 30.274-13.554 30.274-30.274 0-16.719-13.554-30.274-30.274-30.274z" fill="#9762e2"/><path d="m295.456 259.49-26.356 8.127c-11.345 3.498-23.378-2.863-26.876-14.208l-23.083-74.861 67.44-20.795 23.083 74.861c3.498 11.346-2.863 23.378-14.208 26.876z" fill="#a183e2"/><path d="m289.022 154.407h-67.975l-71.888-114.931c-8.016-12.816 1.197-29.446 16.314-29.446h22.582c6.632 0 12.797 3.415 16.314 9.038z" fill="#a183e2"/><path d="m299.604 190.068-73.027 22.517c-12.842 3.96-26.462-3.241-30.422-16.082l-22.517-73.026c-3.96-12.842 3.241-26.462 16.083-30.422l73.026-22.517c12.842-3.96 26.462 3.241 30.422 16.082l22.517 73.026c3.96 12.842-3.24 26.462-16.082 30.422z" fill="#cab4ef"/><path d="m315.686 159.646-22.517-73.026c-3.96-12.842-17.58-20.042-30.422-16.082l-24.616 7.59c9.558-2.947 19.696 2.412 22.643 11.971l16.76 54.354c2.947 9.559-2.412 19.696-11.97 22.644l-54.355 16.76c-9.558 2.947-19.696-2.413-22.643-11.971l-.834-2.704 8.424 27.32c3.96 12.842 17.58 20.042 30.422 16.082l73.026-22.517c12.842-3.959 20.042-17.579 16.082-30.421z" fill="#be87ef"/></g><g><path d="m394.516 431.392h-24.387v-19.391c0-10.587-8.613-19.199-19.2-19.199h-65.935c-10.587 0-19.199 8.612-19.199 19.199v19.391h-22.263v-60.474h119.768c19.655 0 35.646-15.991 35.646-35.647s-15.991-35.647-35.646-35.647h-204.124c-11.88 0-22.399 7.567-26.176 18.831-.067.199-.127.4-.181.602l-6.274 23.503c-11.579-16.286-18.423-36.277-18.423-57.873 0-46.794 32.087-86.072 75.032-96.312l3.416 11.08c4.548 14.748 18.174 24.242 32.857 24.242 1.026 0 2.058-.063 3.092-.158l10.121 32.823c2.481 8.047 7.948 14.647 15.392 18.582 7.46 3.947 16.015 4.729 24.023 2.255l26.356-8.127c16.611-5.123 25.958-22.804 20.837-39.415l-10.118-32.812c13.89-7.719 21.004-24.379 16.14-40.157l-22.517-73.027c-2.704-8.771-8.663-15.964-16.777-20.253-8.113-4.289-17.413-5.163-26.184-2.458l-14.582 4.496-32.337-51.7c-5.385-8.606-14.663-13.746-24.818-13.746h-22.583c-10.799 0-20.371 5.64-25.605 15.086-5.234 9.447-4.939 20.553.788 29.709l30.489 48.743c-1.782 2.022-3.341 4.266-4.632 6.709-4.289 8.114-5.162 17.414-2.458 26.184l.002.006c-77.946 18.284-136.518 93.483-136.518 183.218 0 56.973 23.619 108.079 60.807 142.49-3.229 5.795-5.076 12.46-5.076 19.551 0 22.224 18.08 40.304 40.304 40.304h270.943c22.224 0 40.304-18.08 40.304-40.304s-18.08-40.304-40.304-40.304zm-108.663-18.531h64.216v18.531h-64.216zm93.034-77.59c0 8.595-6.992 15.587-15.587 15.587h-119.769v-23.624c0-2.618-.374-5.149-1.058-7.551h120.827c8.594.001 15.587 6.994 15.587 15.588zm-226.786-10.672c1.098-2.95 3.91-4.915 7.075-4.915h56.746c4.163 0 7.55 3.387 7.55 7.551v104.157h-99.877zm149.01-178.185-100.272 31.238-12.853-41.684 100.272-31.238zm-95.371 47.133-1.355-4.393 100.272-31.238 1.445 4.685c2.324 7.537-1.917 15.559-9.453 17.883l-73.027 22.517c-3.649 1.125-7.52.762-10.898-1.023-3.378-1.786-5.858-4.781-6.984-8.431zm86.761 56.359-26.356 8.127c-5.852 1.938-12.641-1.653-14.335-7.579l-9.898-32.101 48.27-14.884 9.898 32.102c1.863 6.04-1.537 12.471-7.579 14.335zm-26.798-169.785c3.634-1.121 7.514-.767 10.899 1.024 3.377 1.785 5.857 4.779 6.983 8.429l1.127 3.656-100.272 31.237-1.217-3.946c-1.126-3.652-.762-7.521 1.023-10.9 1.786-3.377 4.779-5.857 8.43-6.984zm-108.289-55.314c.791-1.427 3.16-4.747 8.059-4.747h22.583c3.196 0 6.115 1.617 7.81 4.327l29.51 47.178-37.15 11.455-30.563-48.862c-2.599-4.154-1.04-7.923-.249-9.351zm-109.816 284.848c0-80.779 52.629-148.371 122.384-164l7.243 23.491c-51.132 12.809-89.162 59.751-89.162 115.544 0 31.619 12.224 60.387 32.116 81.721l-18.812 70.475c-32.881-30.73-53.769-76.357-53.769-127.231zm346.918 182.286h-270.943c-11.163 0-20.244-9.082-20.244-20.245s9.082-20.245 20.244-20.245h270.943c11.163 0 20.245 9.082 20.245 20.245s-9.082 20.245-20.245 20.245z" fill="#440a29"/><g fill="#fff"><path d="m161.081 395.049c-.775 0-1.562-.09-2.349-.279-5.386-1.293-8.704-6.707-7.412-12.093l3.247-13.528c1.293-5.386 6.709-8.704 12.093-7.412 5.386 1.293 8.704 6.707 7.412 12.093l-3.247 13.528c-1.103 4.6-5.213 7.691-9.744 7.691z"/><path d="m171.094 353.332c-.774 0-1.561-.09-2.347-.278-5.387-1.292-8.706-6.705-7.414-12.092l.61-2.542c1.294-5.386 6.711-8.7 12.095-7.41 5.386 1.294 8.704 6.709 7.41 12.095l-.609 2.534c-1.103 4.601-5.213 7.693-9.745 7.693z"/></g></g><g><path d="m474.812 114.6c0 10.274-8.328 18.602-18.602 18.602s-18.602-8.328-18.602-18.602 8.328-18.602 18.602-18.602c10.273-.001 18.602 8.328 18.602 18.602z" fill="#a183e2"/><path d="m387.832 183c0 4.351-3.527 7.878-7.878 7.878s-7.878-3.527-7.878-7.878 3.527-7.878 7.878-7.878 7.878 3.527 7.878 7.878z" fill="#a183e2"/><g fill="#cab4ef"><path d="m362.57 40.119 6.319 17.769c.27.761.806 1.364 1.482 1.668l15.787 7.113c2.23 1.005 2.23 4.558 0 5.563l-15.787 7.113c-.676.305-1.212.907-1.482 1.668l-6.319 17.769c-.893 2.51-4.05 2.51-4.943 0l-6.319-17.769c-.271-.761-.806-1.364-1.482-1.668l-15.787-7.113c-2.23-1.005-2.23-4.559 0-5.563l15.787-7.113c.676-.305 1.212-.908 1.482-1.668l6.319-17.769c.893-2.511 4.051-2.511 4.943 0z"/><path d="m449.75 195.707 8.683 23.954c.372 1.026 1.108 1.838 2.037 2.249l21.693 9.589c3.065 1.355 3.065 6.145 0 7.5l-21.693 9.589c-.929.41-1.665 1.223-2.037 2.249l-8.683 23.954c-1.227 3.384-5.565 3.384-6.792 0l-8.683-23.954c-.372-1.026-1.108-1.838-2.037-2.249l-21.693-9.589c-3.065-1.355-3.065-6.145 0-7.5l21.693-9.589c.929-.411 1.665-1.223 2.037-2.249l8.683-23.954c1.227-3.384 5.565-3.384 6.792 0z"/></g></g></g></svg>