<svg id="Capa_1" enable-background="new 0 0 512 512" height="512" viewBox="0 0 512 512" width="512" xmlns="http://www.w3.org/2000/svg"><g><g><path d="m491.564 306.977c13.773-6.059 13.773-21.208 0-27.267l-102.859-45.254-122.375-53.841c-6.392-2.812-14.267-2.812-20.659 0l-122.376 53.841-102.86 45.254c-13.773 6.059-13.773 21.208 0 27.267l102.859 45.254 122.376 53.841c6.392 2.812 14.267 2.812 20.659 0l122.375-53.841z" fill="#8bb6ef"/><path d="m392.04 444.278v-140.883c0-18.605-60.907-33.688-136.04-33.688s-136.04 15.083-136.04 33.688v140.883" fill="#8bb6ef"/><ellipse cx="256" cy="444.278" fill="#a183e2" rx="136.04" ry="33.688"/><path d="m256 269.707c-4.869 0-9.677.065-14.414.188 54.01 1.576 95.91 12.949 95.91 26.746v112.641c0 14.876-48.697 26.935-108.768 26.935s-108.768-12.059-108.768-26.935v34.996c0 18.606 60.907 33.688 136.04 33.688s136.04-15.082 136.04-33.688v-140.883c0-18.605-60.907-33.688-136.04-33.688z" fill="#8388ef"/><path d="m256 477.966c62.419 0 115.014-10.411 131.028-24.602 3.262-2.891 5.012-5.938 5.012-9.086v-.003c-.004-11.477-23.19-21.612-58.589-27.693-12.852 11.328-54.869 19.634-104.723 19.634-35.113 0-66.333-4.121-86.22-10.516-14.245 5.326-22.548 11.711-22.548 18.577 0 .582.06 1.16.177 1.734 3.643 17.801 63.078 31.955 135.863 31.955z" fill="#9762e2"/><path d="m453.79 447.371c-11.981 0-21.694-9.712-21.694-21.693v-38.331c0-4.355 3.531-7.886 7.886-7.886h27.616c4.355 0 7.886 3.531 7.886 7.886v38.331c0 11.981-9.712 21.693-21.694 21.693z" fill="#ffe266"/></g><g><g fill="#440a29"><path d="m495.634 270.459-225.234-99.095c-9.018-3.967-19.783-3.966-28.799 0l-225.236 99.095c-10.095 4.441-16.365 13.211-16.365 22.885s6.27 18.444 16.365 22.885l93.488 41.131v86.919c0 14.711 15.545 25.712 47.523 33.631 26.466 6.554 61.491 10.163 98.623 10.163 37.133 0 72.159-3.609 98.624-10.163 31.978-7.919 47.523-18.92 47.523-33.631v-86.919l41.537-18.275v30.27h-3.701c-9.921 0-17.992 8.071-17.992 17.992v38.331c0 17.535 14.266 31.8 31.8 31.8 17.535 0 31.8-14.266 31.8-31.8v-38.331c0-9.921-8.071-17.992-17.993-17.992h-3.701v-39.163l31.737-13.963c10.095-4.441 16.366-13.21 16.366-22.885.001-9.675-6.27-18.444-16.365-22.885zm-30.257 155.219c0 6.389-5.198 11.587-11.587 11.587s-11.587-5.198-11.587-11.587v-36.11h23.174zm-83.443-5.685c-7.164-3.501-16.253-6.608-27.31-9.346-26.466-6.554-61.491-10.163-98.624-10.163s-72.158 3.609-98.623 10.163c-11.056 2.738-20.145 5.845-27.31 9.346v-116.331c1.05-2.185 9.581-9.198 36.321-15.262 24.418-5.537 56.243-8.587 89.612-8.587 33.371 0 65.196 3.049 89.613 8.587 26.74 6.064 35.27 13.077 36.321 15.262zm-36.321 39.28c-24.419 5.537-56.244 8.587-89.613 8.587s-65.195-3.049-89.612-8.587c-25.733-5.836-34.602-12.55-36.17-14.995 1.567-2.444 10.435-9.159 36.17-14.995 24.418-5.537 56.243-8.587 89.612-8.587 33.371 0 65.196 3.049 89.613 8.587 25.734 5.835 34.602 12.55 36.17 14.995-1.568 2.445-10.437 9.16-36.17 14.995zm56.534-123.997v-31.881c0-14.712-15.545-25.713-47.523-33.631-26.466-6.554-61.491-10.163-98.624-10.163s-72.158 3.609-98.623 10.163c-31.978 7.918-47.523 18.919-47.523 33.631v31.881l-85.348-37.549c-2.608-1.147-4.292-2.868-4.292-4.383s1.685-3.235 4.292-4.383l225.236-99.095c1.901-.836 4.079-1.254 6.259-1.254 2.178 0 4.358.418 6.258 1.254l181.425 79.82v47.315zm85.346-37.549-23.597 10.382v-29.529l23.597 10.382c2.609 1.147 4.293 2.868 4.293 4.383.001 1.514-1.684 3.234-4.293 4.382z"/><path d="m304.91 344.477c-3.349 0-6.064 2.715-6.064 6.064v12.904c0 3.349 2.715 6.064 6.064 6.064s6.064-2.715 6.064-6.064v-12.904c0-3.349-2.715-6.064-6.064-6.064z"/><path d="m333.265 327.874c-3.349 0-6.064 2.715-6.064 6.064v12.904c0 3.349 2.715 6.064 6.064 6.064s6.064-2.715 6.064-6.064v-12.904c0-3.349-2.715-6.064-6.064-6.064z"/><path d="m354.268 370.23c-3.349 0-6.064 2.715-6.064 6.064v12.904c0 3.349 2.715 6.064 6.064 6.064s6.064-2.715 6.064-6.064v-12.904c0-3.349-2.716-6.064-6.064-6.064z"/></g><path d="m160.022 379.718c-5.581 0-10.107-4.525-10.107-10.107v-16.515c0-5.582 4.525-10.107 10.107-10.107 5.581 0 10.107 4.525 10.107 10.107v16.515c0 5.582-4.525 10.107-10.107 10.107z" fill="#fff"/><path d="m160.022 332.499c-5.581 0-10.107-4.525-10.107-10.107v-6.149c0-5.582 4.525-10.107 10.107-10.107 5.581 0 10.107 4.525 10.107 10.107v6.149c0 5.582-4.525 10.107-10.107 10.107z" fill="#fff"/></g><g><path d="m372.093 137.476c0 10.352-8.392 18.745-18.745 18.745s-18.745-8.392-18.745-18.745 8.392-18.745 18.745-18.745 18.745 8.393 18.745 18.745z" fill="#8bb6ef"/><path d="m89.181 68.101c0 4.384-3.554 7.938-7.938 7.938s-7.938-3.554-7.938-7.938 3.554-7.938 7.938-7.938 7.938 3.554 7.938 7.938z" fill="#8bb6ef"/><g fill="#b2e7f1"><path d="m215.275 25.824 6.368 17.905c.273.766.812 1.374 1.493 1.681l15.908 7.167c2.247 1.013 2.247 4.593 0 5.606l-15.908 7.167c-.681.307-1.221.914-1.493 1.681l-6.368 17.905c-.9 2.53-4.081 2.53-4.981 0l-6.368-17.905c-.273-.767-.812-1.374-1.493-1.681l-15.908-7.167c-2.247-1.013-2.247-4.593 0-5.606l15.908-7.167c.681-.307 1.221-.914 1.493-1.681l6.368-17.905c.9-2.53 4.082-2.53 4.981 0z"/><path d="m447.467 39.249 8.75 24.138c.375 1.034 1.116 1.852 2.052 2.266l21.859 9.662c3.088 1.365 3.088 6.192 0 7.557l-21.859 9.662c-.936.414-1.678 1.233-2.052 2.266l-8.75 24.138c-1.236 3.41-5.608 3.41-6.844 0l-8.75-24.138c-.375-1.033-1.116-1.853-2.052-2.266l-21.859-9.662c-3.088-1.365-3.088-6.192 0-7.557l21.859-9.662c.936-.414 1.678-1.233 2.052-2.266l8.75-24.138c1.236-3.411 5.608-3.411 6.844 0z"/><path d="m76.727 113.434 8.75 24.138c.375 1.034 1.116 1.852 2.052 2.266l21.859 9.662c3.088 1.365 3.088 6.192 0 7.557l-21.859 9.662c-.936.414-1.678 1.233-2.052 2.266l-8.75 24.138c-1.236 3.41-5.608 3.41-6.844 0l-8.75-24.138c-.375-1.033-1.116-1.853-2.052-2.266l-21.859-9.662c-3.088-1.365-3.088-6.193 0-7.557l21.859-9.662c.936-.414 1.678-1.233 2.052-2.266l8.75-24.138c1.236-3.41 5.608-3.41 6.844 0z"/></g></g></g></svg>