<svg height="511pt" viewBox="-45 0 511 511.99951" width="511pt" xmlns="http://www.w3.org/2000/svg"><path d="m28.109375 494.460938c-13.414063-13.410157-13.414063-35.15625-.003906-48.566407l209.910156-209.914062 48.5625 48.566406-209.90625 209.914063c-13.410156 13.410156-35.152344 13.410156-48.5625 0zm0 0" fill="#fc8978"/><path d="m177 297c21.867188 23.734375 44.285156 32.21875 63.265625 33.863281l46.3125-46.316406-48.5625-48.566406zm0 0" fill="#f2614a"/><path d="m367.003906 142.730469s-118.671875-188.488281-338.824218-120.398438c-27.289063 8.441407-26.734376 47.394531.871093 54.738281 76.878907 20.449219 181.734375 68.027344 225.523438 178.09375zm0 0" fill="#6a829a"/><path d="m254.574219 255.164062 112.433593-112.433593s-24.457031-38.835938-71.75-74.882813c-19.324218 8.390625-41.488281 22.214844-57.695312 44.699219-17.164062 23.808594-37.496094 36.238281-53.949219 42.730469 29.167969 25.652344 54.421875 58.308594 70.960938 99.886718zm0 0" fill="#516980"/><path d="m254.574219 255.164062 59.167969-59.167968c-104.222657-161.496094-305.671876-147.988282-305.671876-147.988282-.683593 12.402344 6.351563 25.171876 20.980469 29.0625 76.878907 20.453126 181.734375 68.027344 225.523438 178.09375zm0 0" fill="#889cb0"/><path d="m183.613281 155.28125c29.167969 25.648438 54.421875 58.304688 70.964844 99.882812l59.167969-59.171874c-22.351563-34.636719-49.175782-61.21875-77.527344-81.613282-16.871094 22.613282-36.582031 34.574219-52.605469 40.902344zm0 0" fill="#6a829a"/><path d="m258.875 290.679688-26.992188-26.992188c-9.703124-9.703125-9.703124-25.4375 0-35.144531l108.175782-108.175781c17.15625-17.15625 44.972656-17.15625 62.132812 0 17.15625 17.160156 17.15625 44.976562 0 62.132812l-108.175781 108.179688c-9.703125 9.703124-25.4375 9.703124-35.140625 0zm0 0" fill="#a7b6c5"/><path d="m52.390625 421.613281-24.28125 24.28125c-13.410156 13.410157-13.410156 35.15625 0 48.566407 13.410156 13.410156 35.152344 13.410156 48.5625 0l24.285156-24.28125zm0 0" fill="#889cb0"/><path d="m407.492188 115.0625c-16.226563-16.226562-40.683594-19.316406-60.050782-9.285156-21.097656-23.382813-54.460937-53.980469-99.679687-76.28125-3.714844-1.832032-8.015625-.203125-10.042969 3.410156-3.339844 5.949219 2.652344 9.667969 3.410156 10.042969 42.363282 20.890625 73.867188 49.476562 94.085938 71.675781-.152344.148438-41.816406 41.796875-41.816406 41.796875-24.207032-27.859375-53.355469-51.21875-86.773438-69.5-28.71875-15.710937-60.621094-27.726563-94.820312-35.707031-42.621094-9.945313-77.707032-11.121094-94.175782-10.992188 2.179688-4.59375 6.199219-8.695312 12.769532-10.726562 63.277343-19.570313 124.101562-19.304688 180.785156.792968 3.902344 1.386719 8.191406-.65625 9.574218-4.5625 1.386719-3.90625-.660156-8.191406-4.5625-9.574218-59.792968-21.203125-123.796874-21.53125-190.230468-.984375-15.777344 4.878906-26.136719 18.722656-25.429688 35.238281.953125 22.292969 20.128906 32.195312 26.589844 33.910156 65.253906 17.363282 152.640625 55.089844 201.972656 136.410156 0 0-13.78125 10.488282-11.972656 25.542969l-194.320312 194.324219c-16.3125 16.3125-16.3125 42.855469 0 59.171875 16.3125 16.3125 42.859374 16.3125 59.171874 0l113.511719-113.515625c2.929688-2.929688 2.929688-7.679688 0-10.609375-2.929687-2.929687-7.675781-2.929687-10.609375 0l-83.925781 83.929687-37.957031-37.957031 158.769531-158.773437c1.324219 2.191406 35.765625 36.632812 37.957031 37.957031l-52.847656 52.847656c-2.925781 2.929688-2.925781 7.679688 0 10.609375 2.929688 2.929688 7.679688 2.929688 10.609375 0l58.808594-58.8125c8.335937.035156 16.683593-3.113281 23.027343-9.457031l108.171876-108.179687c20.054687-20.054688 20.054687-52.6875 0-72.742188zm-317.144532 355.117188-18.976562 18.976562c-10.464844 10.464844-27.496094 10.464844-37.960938 0s-10.464844-27.492188 0-37.957031l18.980469-18.980469zm-59.367187-400.359376c-8.707031-2.3125-13.125-8.398437-14.726563-14.5625 14.875-.175781 49.90625.710938 92.140625 10.566407 32.878907 7.671875 63.503907 19.199219 91.03125 34.257812 32.164063 17.597657 60.171875 40.105469 83.34375 66.96875l-42.765625 42.765625c-52.210937-83.417968-141.914062-122.140625-209.023437-139.996094zm206.207031 188.566407c-6.765625-6.765625-6.765625-17.773438 0-24.539063l108.171875-108.175781c14.207031-14.207031 37.320313-14.207031 51.527344 0s14.207031 37.320313 0 51.527344l-108.175781 108.175781c-6.761719 6.765625-17.769532 6.765625-24.535157 0zm0 0"/></svg>