<svg height="512" viewBox="0 0 64 64" width="512" xmlns="http://www.w3.org/2000/svg"><g id="_6-watering_can" data-name="6-watering can"><path d="m2.18 8.194a12.526 12.526 0 0 0 .94 12.28l5.04 7.5 2.36-4.36-3.91-5.84a8.237 8.237 0 0 1 -1.38-4.55 8.16 8.16 0 0 1 11.64-7.39l2.64 1.24 1.97-3.63-2.67-1.25a12.5 12.5 0 0 0 -16.63 6z" fill="#bd7710"/><path d="m4.756 22.908 3.404 5.066 2.36-4.36-3.282-4.902z" fill="#8e590c"/><path d="m18.81 2.194a12.4 12.4 0 0 0 -1.465-.569l-2.151 3.636a8.16 8.16 0 0 1 1.676.573l2.64 1.24 1.97-3.63z" fill="#8e590c"/><path d="m6.7 30.654a3.881 3.881 0 0 0 1.76 5.37l18.65 8.76a3.88 3.88 0 0 0 5.26-2.08l1.13-2.83-25.34-11.9z" fill="#fc9e15"/><path d="m31.649 39.005-.279.7a3.88 3.88 0 0 1 -5.26 2.08l-18.65-8.761a3.872 3.872 0 0 1 -1.208-.9 3.878 3.878 0 0 0 2.208 3.9l18.65 8.76a3.88 3.88 0 0 0 5.26-2.08l1.13-2.83z" fill="#bd7710"/><path d="m58.81 21.474-5.16 5.44.73 6.14 6.28 4.09a1.485 1.485 0 0 0 1 .24 1.513 1.513 0 0 0 1.34-1.5c0-.06-1.59-13.55-1.59-13.55a1.509 1.509 0 0 0 -1.68-1.32 1.48 1.48 0 0 0 -.92.46z" fill="#fc9e15"/><path d="m59.81 24.952a1.5 1.5 0 0 1 1.879-.248c-.166-1.407-.279-2.37-.279-2.37a1.509 1.509 0 0 0 -1.68-1.32 1.48 1.48 0 0 0 -.92.46l-5.16 5.44.435 3.655z" fill="#fcbb29"/><path d="m33.5 39.874 20.88-6.82-.73-6.14-14.55-1.03h-.01z" fill="#bd7710"/><path d="m43.76 35.336a3.538 3.538 0 0 1 -2.867-4.68l1.593-4.533-3.386-.239h-.01l-5.59 13.99 12.834-4.192z" fill="#8e590c"/><path d="m21.48 3.444 13.06 6.13 2.62-5.59s-9.32-4.384-15.68-.54z" fill="#bd7710"/><path d="m10.52 23.614-2.36 4.36 25.34 11.9 3.99-9.97 1.6-4.02 4.77-11.93-9.32-4.38-13.06-6.13-1.97 3.63z" fill="#ffb600"/><path d="m57 40 3.5 6.172a3.872 3.872 0 0 1 -1 4.968 4.063 4.063 0 0 1 -5 0 3.872 3.872 0 0 1 -1-4.968z" fill="#57b9e7"/><path d="m53.5 46.176 1.011-1.776a2.756 2.756 0 0 0 .711 3.536 2.892 2.892 0 0 0 3.556 0 2.756 2.756 0 0 0 .711-3.536l1.011 1.776a3.872 3.872 0 0 1 -1 4.968 4.063 4.063 0 0 1 -5 0 3.871 3.871 0 0 1 -1-4.968z" fill="#2b96cc"/><path d="m42.5 45 3.059 5.143a3.125 3.125 0 0 1 -.873 4.14 3.691 3.691 0 0 1 -4.372 0 3.125 3.125 0 0 1 -.873-4.14z" fill="#3c9bd4"/><path d="m39.441 50.147.866-1.456a2.241 2.241 0 0 0 .626 2.968 2.65 2.65 0 0 0 3.134 0 2.241 2.241 0 0 0 .626-2.968l.866 1.456a3.125 3.125 0 0 1 -.873 4.14 3.691 3.691 0 0 1 -4.372 0 3.125 3.125 0 0 1 -.873-4.14z" fill="#0569a0"/><path d="m50.5 53 3.059 5.143a3.125 3.125 0 0 1 -.873 4.14 3.691 3.691 0 0 1 -4.372 0 3.125 3.125 0 0 1 -.873-4.14z" fill="#3c9bd4"/><path d="m47.441 58.147.866-1.456a2.241 2.241 0 0 0 .626 2.968 2.65 2.65 0 0 0 3.134 0 2.241 2.241 0 0 0 .626-2.968l.866 1.456a3.125 3.125 0 0 1 -.873 4.14 3.691 3.691 0 0 1 -4.372 0 3.125 3.125 0 0 1 -.873-4.14z" fill="#0569a0"/><path d="m13.615 25.115 8.812-16.715a1.027 1.027 0 0 1 1.315-.464l5 2.15a1.023 1.023 0 0 1 .054 1.856c-4.764 2.458-10.013 9.558-13.714 14.147a.885.885 0 0 1 -1.467-.974z" fill="#ffd366"/><g fill="#151515"><path d="m62.4 22.214a2.512 2.512 0 0 0 -2.788-2.194 2.469 2.469 0 0 0 -1.531.766l-4.834 5.1-12.72-.9 4.259-10.657a1 1 0 0 0 -.5-1.277l-8.418-3.952 2.2-4.688a1 1 0 0 0 -.479-1.329c-.392-.183-9.447-4.361-16.151-.76l-2.2-1.03a13.5 13.5 0 0 0 -16.948 19.738l4.7 6.994-1.169 2.151a4.883 4.883 0 0 0 2.214 6.753l18.655 8.762a4.878 4.878 0 0 0 6.61-2.617l.956-2.392 19.98-6.529 5.864 3.822a2.176 2.176 0 0 0 1.672.4 2.505 2.505 0 0 0 2.228-2.491c0-.079 0-.119-1.6-13.67zm-26.589-17.707-1.753 3.739-10.209-4.794c4.466-1.484 9.841.238 11.962 1.055zm-25.378 17.179-2.99-4.465a7.189 7.189 0 0 1 -.538-7.041 7.174 7.174 0 0 1 9.54-3.441l1.678.788zm-6.481-1.767a11.548 11.548 0 0 1 -1.952-6.425 11.49 11.49 0 0 1 16.386-10.394l1.708.8-1.014 1.867-1.78-.838a9.161 9.161 0 0 0 -13.067 8.3 9.205 9.205 0 0 0 1.55 5.106l3.576 5.341-1.292 2.366zm27.489 22.414a2.919 2.919 0 0 1 -3.906 1.545l-18.649-8.759a2.881 2.881 0 0 1 -1.308-3.987l1.01-1.853 4.347 2.042a1 1 0 1 0 .849-1.811l-4.239-1.991 12.363-22.769 20.674 9.708-9.616 24.06-15.083-7.083a1 1 0 0 0 -.85 1.811l15.19 7.132zm6.729-11.448 8.077-.222a1 1 0 0 0 -.026-2h-.029l-7.213.2.771-1.931 13.005.921.535 4.5-18.068 5.9zm23.377 5.5a.509.509 0 0 1 -.341-.084l-5.889-3.835-.618-5.21 4.845-5.108a.5.5 0 0 1 .306-.147.506.506 0 0 1 .567.445c.536 4.554 1.557 13.228 1.583 13.438a.511.511 0 0 1 -.453.506z"/><path d="m30.8 34.651a.988.988 0 0 0 .374.073 1 1 0 0 0 .926-.624l4.089-10.15a1 1 0 1 0 -1.855-.747l-4.09 10.15a1 1 0 0 0 .556 1.298z"/><path d="m36.436 20.671a.988.988 0 0 0 .374.073 1 1 0 0 0 .927-.626l1.311-3.25a1 1 0 0 0 -1.856-.748l-1.31 3.25a1 1 0 0 0 .554 1.301z"/><path d="m57.87 39.511a1.04 1.04 0 0 0 -1.74 0l-3.5 6.172a4.856 4.856 0 0 0 1.25 6.248 5.039 5.039 0 0 0 6.232 0 4.855 4.855 0 0 0 1.25-6.247zm1.012 10.846a3.084 3.084 0 0 1 -3.764 0 2.866 2.866 0 0 1 -.744-3.688l2.626-4.636 2.626 4.636a2.866 2.866 0 0 1 -.744 3.688z"/><path d="m46.419 49.636-3.06-5.143a1.038 1.038 0 0 0 -1.718 0l-3.06 5.143a4.105 4.105 0 0 0 1.134 5.453 4.681 4.681 0 0 0 5.57 0 4.1 4.1 0 0 0 1.134-5.453zm-2.331 3.85a2.7 2.7 0 0 1 -3.176 0 2.133 2.133 0 0 1 -.612-2.828l2.2-3.7 2.2 3.7a2.132 2.132 0 0 1 -.612 2.828z"/><path d="m51.359 52.493a1.038 1.038 0 0 0 -1.718 0l-3.06 5.143a4.105 4.105 0 0 0 1.134 5.453 4.681 4.681 0 0 0 5.57 0 4.1 4.1 0 0 0 1.134-5.452zm.729 8.993a2.7 2.7 0 0 1 -3.176 0 2.133 2.133 0 0 1 -.612-2.828l2.2-3.7 2.2 3.7a2.132 2.132 0 0 1 -.612 2.828z"/></g></g></svg>