<?xml version="1.0" encoding="iso-8859-1"?>
<!-- Generator: Adobe Illustrator 19.0.0, SVG Export Plug-In . SVG Version: 6.00 Build 0)  -->
<svg version="1.1" id="Capa_1" xmlns="http://www.w3.org/2000/svg" xmlns:xlink="http://www.w3.org/1999/xlink" x="0px" y="0px"
	 viewBox="0 0 512.005 512.005" style="enable-background:new 0 0 512.005 512.005;" xml:space="preserve">
<g>
	<path style="fill:#D8AD8F;" d="M428.034,170.948c0,0,60.748,4.631,74.447,71.583c13.699,66.952-46.218,31.267-56.968-12.458
		C434.762,186.349,428.034,170.948,428.034,170.948z"/>
	<polygon style="fill:#D8AD8F;" points="72.003,261.764 97.977,318.659 104.944,310.916 124.786,336.616 144.299,261.764 	"/>
	<path style="fill:#D8AD8F;" d="M402.071,243.125V416.33c0,7.811-6.32,14.131-14.131,14.131h-17.492
		c-7.811,0-14.131-6.32-14.131-14.131V243.125H402.071z"/>
</g>
<path style="fill:#FF8383;" d="M323.18,316.338c0,0,9.215,52.308,72.602,42.157v-42.157H323.18z"/>
<path style="fill:#D8AD8F;" d="M207.993,241.704v173.217c0,7.799-6.32,14.131-14.131,14.131H176.37
	c-7.811,0-14.131-6.332-14.131-14.131V241.704H207.993z"/>
<path style="fill:#F9E8D4;" d="M468.813,246.722c0,43.915-35.588,79.502-79.502,79.502h-95.197
	c-51.565,0-97.821-22.709-129.321-58.671c-26.464-30.229-42.512-69.823-42.512-113.163v-7.56l34.114-22.447
	c15.765,5.057,36.143,18.49,70.035,25.525c20.872,4.34,46.872,6.248,80.078,2.281c21.256-2.543,40.271-3.946,57.146-3.946
	C435.96,148.245,468.813,174.042,468.813,246.722z"/>
<g>
	<path style="fill:#EFCDB1;" d="M468.815,246.724c0,43.91-35.59,79.5-79.5,79.5h-95.2c-51.57,0-97.82-22.71-129.32-58.67
		c-5.21-5.95-10.02-12.27-14.38-18.91c1.17,1.44,2.37,2.85,3.59,4.24c31.5,35.97,77.75,58.68,129.32,58.68h95.19
		c43.92,0,79.51-35.59,79.51-79.51c0-24.98-3.89-44.43-11.92-59.19C461.475,188.494,468.815,212.374,468.815,246.724z"/>
	<path style="fill:#EFCDB1;" d="M234.968,215.373c-3.543,26.666-16.997,34.084-24.708,36.133c-2.231,0.585-4.542,0.888-6.873,0.888
		c-9.669,0-19.187-4.996-27.958-14.574l-2.513,10.345c-1.655,6.873-4.431,13.424-8.125,19.389
		c-26.464-30.229-42.512-69.823-42.512-113.163v-7.56l34.114-22.447c15.765,5.057,36.143,18.49,70.035,25.525
		c1.443,4.118,2.755,8.377,3.916,12.737C235.342,181.441,236.987,200.173,234.968,215.373z"/>
</g>
<g>
	<path style="fill:#F9E8D4;" d="M243.545,288.609v144.526c0,7.811-6.32,14.131-14.131,14.131h-17.492
		c-7.811,0-14.131-6.32-14.131-14.131v-154.31L243.545,288.609z"/>
	<path style="fill:#F9E8D4;" d="M431.209,273.035v157.474c0,7.799-6.32,14.131-14.131,14.131h-17.492
		c-7.811,0-14.131-6.332-14.131-14.131V294.956L431.209,273.035z"/>
	<path style="fill:#F9E8D4;" d="M206.375,236.871c-8.155,2.17-17.844-4.935-26.403-17.824c-0.444-0.666-0.878-1.352-1.322-2.059
		c-6.076-9.699-11.496-22.326-15.281-36.547c-9.306-35.002-5.117-66.493,9.336-70.338c3.674-0.989,7.661-0.071,11.728,2.392
		c3.654,2.231,7.358,5.723,10.951,10.265c8.074,10.214,15.523,25.697,20.327,43.773
		C225.017,201.536,220.838,233.026,206.375,236.871z"/>
</g>
<path style="fill:#EFCDB1;" d="M195.515,154.876l-15.543,64.171c-0.444-0.666-0.878-1.352-1.322-2.059
	c-6.076-9.699-11.496-22.326-15.281-36.547c-9.306-35.002-5.117-66.493,9.336-70.338c3.674-0.989,7.661-0.071,11.728,2.392
	c3.654,2.231,7.358,5.723,10.951,10.265C198.018,133.125,198.119,144.107,195.515,154.876z"/>
<path style="fill:#F9E8D4;" d="M64.064,179.483c-5.208,22.951-14.776,41.936-24.839,51.515c-5.42,5.178-10.991,7.6-16.108,6.439
	c-8.66-1.968-14.049-13.807-15.311-30.481c-0.878-11.415,0.182-25.111,3.442-39.464c2.008-8.862,4.673-17.138,7.762-24.506
	c9.225-21.993,22.255-35.931,33.186-33.458c3.704,0.848,6.813,3.502,9.265,7.57C68.616,129.038,70.049,153.15,64.064,179.483z"/>
<path style="fill:#EFCDB1;" d="M61.46,117.098c7.156,11.94,8.589,36.052,2.604,62.385c-5.208,22.951-14.776,41.936-24.839,51.515
	l-10.618-43.825l-7.822-32.308c-0.949-3.946-1.544-7.913-1.776-11.879c9.225-21.993,22.255-35.931,33.186-33.458
	C55.899,110.376,59.007,113.03,61.46,117.098z"/>
<path style="fill:#F9E8D4;" d="M180.805,151.304l-22.6,93.3c-2.8,11.55-9.36,21.4-18.21,28.35c-8.84,6.95-19.96,11.02-31.84,11.02
	c-3.88,0-7.68-0.43-11.34-1.26c-18.79-4.23-34.04-18.78-38.72-38.11l-14.78-61l-7.82-32.3c-2.09-8.61-1.88-17.14,0.17-25.03
	c5.65-21.77,25.4-38.6,49.89-38.6h45.2c23.53,0,42.69,15.55,49.16,36.09C182.625,132.324,183.115,141.764,180.805,151.304z"/>
<g>
	<path style="fill:#EFCDB1;" d="M87.885,132.004c-7.09,4.16-14.61,6.27-22.35,6.27c-8.05,0-15.98-2.31-23.58-6.86
		c-2.39-1.43-4.5-3.17-6.29-5.14c5.65-21.77,25.4-38.6,49.89-38.6h11.18l3.68,11.41C104.495,111.754,99.345,125.284,87.885,132.004z
		"/>
	<path style="fill:#EFCDB1;" d="M179.915,123.764c-2.28,3.27-5.28,6.1-8.93,8.24c-7.09,4.16-14.61,6.27-22.35,6.27
		c-8.05,0-15.98-2.31-23.57-6.86c-11.22-6.72-16.23-20.17-12.19-32.71l3.56-11.03h14.32
		C154.285,87.674,173.445,103.224,179.915,123.764z"/>
</g>
<g>
	<path style="fill:#B4732D;" d="M44.048,103.307l9.81-30.43c3.497-10.849,18.847-10.849,22.345,0l9.933,30.812
		c1.889,5.861-0.526,12.26-5.838,15.374c-7.005,4.108-17.831,7.149-30.631-0.518C44.468,115.433,42.189,109.073,44.048,103.307z"/>
	<path style="fill:#B4732D;" d="M127.15,103.307l9.81-30.43c3.497-10.849,18.847-10.849,22.345,0l9.933,30.812
		c1.889,5.861-0.526,12.26-5.838,15.374c-7.005,4.108-17.831,7.149-30.631-0.518C127.571,115.433,125.291,109.073,127.15,103.307z"
		/>
</g>
<path d="M294.115,318.724c-14.621,0-29.081-1.92-43.064-5.705v-24.404c0-4.142-3.358-7.5-7.5-7.5s-7.5,3.358-7.5,7.5v144.521
	c0,3.657-2.975,6.632-6.632,6.632H211.92c-3.657,0-6.632-2.975-6.632-6.632V278.831c0-4.142-3.358-7.5-7.5-7.5s-7.5,3.358-7.5,7.5
	v2.947c-10.109-8.241-19.182-17.639-27.099-28.07c0.924-2.388,1.699-4.838,2.305-7.339l6.335-26.155
	c9.612,15.604,20.953,24.528,31.636,24.528c1.629,0,3.245-0.208,4.834-0.63c5.815-1.544,13.574-6.544,17.51-21.59
	c1.048-4.007-1.35-8.106-5.357-9.154c-4.006-1.048-8.105,1.351-9.154,5.357c-1.597,6.104-4.157,10.175-6.851,10.89
	c-5.107,1.357-17.098-7.85-27.215-31.706l10.861-44.839c2.202-9.084,2.161-18.439,0.085-27.316
	c7.211,8.518,15.089,23.14,20.288,42.708c1.938,7.28,3.304,14.585,4.06,21.712c0.408,3.85,3.662,6.709,7.449,6.709
	c0.265,0,0.532-0.014,0.8-0.042c4.119-0.437,7.104-4.13,6.667-8.249c-0.837-7.893-2.344-15.963-4.479-23.985
	c-0.743-2.795-1.568-5.573-2.456-8.322c16.161,3.726,33.066,5.57,51.104,5.57c6.173,0,12.48-0.216,18.935-0.646
	c4.133-0.276,7.26-3.85,6.984-7.982c-0.275-4.133-3.858-7.259-7.982-6.984c-27.816,1.857-52.597-0.498-75.749-7.192
	c-9.508-20.55-22.869-36.205-37.073-36.81c-0.057-0.071-0.116-0.141-0.173-0.212c-0.062-0.213-0.108-0.428-0.177-0.641
	l-9.933-30.813c-2.612-8.101-9.799-13.335-18.311-13.335s-15.699,5.234-18.311,13.335l-3.094,9.598H86.434l-3.094-9.598
	c-2.611-8.101-9.798-13.336-18.31-13.336l0,0c-8.511,0-15.699,5.235-18.311,13.335l-9.81,30.43c-0.582,1.806-0.9,3.638-0.988,5.452
	c-13.416,9.266-25.774,32.039-31.99,59.363c-4.096,18.018-5.028,35.738-2.624,49.897c2.786,16.403,9.945,26.713,20.148,29.028
	c1.404,0.32,2.82,0.479,4.244,0.479c7.342,0,14.868-4.234,21.884-12.155l3.221,13.299c3.19,13.176,10.585,24.463,20.744,32.461
	l19.603,42.938c1.05,2.299,3.187,3.915,5.684,4.298c2.499,0.385,5.021-0.516,6.712-2.395l0.954-1.059l14.346,18.583
	c1.437,1.861,3.64,2.917,5.936,2.917c0.498,0,1-0.049,1.5-0.151c2.803-0.572,5.037-2.689,5.759-5.458l16.399-62.927
	c2.287-2.14,4.393-4.461,6.306-6.93c-0.003,0.092-0.014,0.183-0.014,0.276v145.994c0,11.928,9.704,21.632,21.632,21.632h14.195
	c1.642,10.311,10.594,18.219,21.36,18.219h17.499c11.928,0,21.632-9.704,21.632-21.632v-104.62
	c14.036,3.459,28.479,5.208,43.064,5.208h27.536c2.06,3.958,4.792,8.254,8.391,12.41c4.422,5.105,10.524,10.407,18.77,14.427v2.818
	c0,4.142,3.358,7.5,7.5,7.5c3.376,0,6.23-2.232,7.171-5.3c4.402,0.95,9.21,1.55,14.468,1.686v55.699h-7.506
	c-3.657,0-6.632-2.975-6.632-6.632v-21.703c0-4.142-3.358-7.5-7.5-7.5s-7.5,3.358-7.5,7.5v21.703
	c0,11.928,9.704,21.632,21.632,21.632h8.833c3.046,8.263,10.998,14.171,20.305,14.171h17.499c11.928,0,21.632-9.704,21.632-21.632
	V318.335c14.395-9.918,25.212-23.614,31.462-39.341c7.483,5.354,14.847,8.152,21.338,8.152c3.471,0,6.695-0.798,9.552-2.425
	c10.521-5.994,13.471-20.693,8.769-43.69c-8.681-42.441-34.849-61.904-55.953-70.802c-1.737-1.962-3.57-3.823-5.513-5.573
	c-18.117-16.313-45.035-23.912-84.711-23.912c-12.771,0-26.867,0.774-43.092,2.365c-4.122,0.405-7.136,4.074-6.732,8.197
	c0.405,4.122,4.067,7.134,8.197,6.732c15.733-1.543,29.35-2.294,41.627-2.294c35.748,0,59.477,6.374,74.674,20.059
	c1.887,1.699,3.649,3.523,5.295,5.471c0.011,0.014,0.024,0.027,0.035,0.041c12.011,14.245,17.656,35.296,17.656,65.41
	c0,20.187-8.258,38.946-22.603,52.406v-26.096c0-4.142-3.358-7.5-7.5-7.5s-7.5,3.358-7.5,7.5v157.468
	c0,3.657-2.975,6.632-6.632,6.632h-17.499c-3.657,0-6.632-2.975-6.632-6.632V294.955c0-4.142-3.358-7.5-7.5-7.5s-7.5,3.358-7.5,7.5
	v23.769H294.115z M148.132,72.24c0.928,0,3.179,0.286,4.034,2.938l9.933,30.813c0.808,2.505-0.241,5.282-2.494,6.603
	c-7.437,4.36-15.17,4.198-22.984-0.482c-2.151-1.289-3.132-4.023-2.333-6.503l9.81-30.43
	C144.953,72.527,147.204,72.24,148.132,72.24z M51.186,105.609l9.81-30.43c0.855-2.652,3.106-2.938,4.035-2.938
	c0.928,0,3.179,0.286,4.034,2.938l9.933,30.813c0.808,2.505-0.241,5.282-2.494,6.603c-7.437,4.36-15.17,4.198-22.984-0.482
	C51.368,110.823,50.387,108.088,51.186,105.609z M24.784,230.12c-2.79-0.633-6.74-5.442-8.688-16.913
	c-2.083-12.267-1.208-27.914,2.462-44.06c2.191-9.632,5.041-18.07,8.185-25.204c0.249,3.053,0.73,6.104,1.462,9.125l14.747,60.882
	C35.634,226.214,28.509,230.967,24.784,230.12z M65.384,242.838l-22.6-93.302c-2.08-8.578-1.513-17.476,1.481-25.584
	c0.497,0.362,1.011,0.706,1.547,1.027c6.417,3.844,13.117,5.768,19.766,5.768c6.315,0,12.584-1.737,18.514-5.214
	c8.401-4.927,12.177-14.855,9.182-24.145l-2.003-6.214h30.622l-1.88,5.832c-2.966,9.2,0.695,19.058,8.902,23.974
	c6.417,3.844,13.118,5.768,19.766,5.768c6.315,0,12.584-1.737,18.513-5.214c1.573-0.922,2.984-2.021,4.219-3.257
	c3.565,8.49,4.365,17.934,2.104,27.262l-11.462,47.318c-0.01,0.042-0.022,0.083-0.03,0.125l-11.107,45.855
	c-2.159,8.906-7.103,16.977-14.005,22.939c-0.067,0.057-0.133,0.113-0.198,0.172c-0.443,0.378-0.894,0.749-1.353,1.11
	c-7.724,6.072-17.386,9.416-27.205,9.416c-3.28,0-6.537-0.361-9.693-1.077C82.274,271.753,69.29,258.973,65.384,242.838z
	 M121.381,319.932l-10.5-13.601c-1.359-1.761-3.43-2.828-5.653-2.912c-1.883-0.063-3.726,0.575-5.148,1.786l-7.184-15.735
	c0.748,0.199,1.5,0.387,2.26,0.558c4.23,0.959,8.604,1.446,12.999,1.446c7.456,0,14.842-1.44,21.728-4.165L121.381,319.932z
	 M169.733,414.917V283.594c6.403,6.165,13.266,11.853,20.555,17.034v120.921h-13.923
	C172.708,421.549,169.733,418.574,169.733,414.917z M339.293,333.724h38.656v18.51C357.844,351.55,346.075,342.655,339.293,333.724z
	 M493.639,271.688c-2.847,1.623-10.371-0.752-18.921-8.223c1.053-5.447,1.597-11.047,1.597-16.741
	c0-19.381-2.347-35.824-7.099-49.54c11.248,9.818,21.368,24.597,25.921,46.852C499.011,262.983,496.018,270.332,493.639,271.688z"/>
<path d="M86.531,182.157v-0.918c0-4.142-3.358-7.5-7.5-7.5s-7.5,3.358-7.5,7.5v0.918c0,4.142,3.358,7.5,7.5,7.5
	S86.531,186.299,86.531,182.157z"/>
<path d="M137.271,189.657c4.142,0,7.5-3.358,7.5-7.5v-0.918c0-4.142-3.358-7.5-7.5-7.5s-7.5,3.358-7.5,7.5v0.918
	C129.771,186.299,133.129,189.657,137.271,189.657z"/>
<g>
</g>
<g>
</g>
<g>
</g>
<g>
</g>
<g>
</g>
<g>
</g>
<g>
</g>
<g>
</g>
<g>
</g>
<g>
</g>
<g>
</g>
<g>
</g>
<g>
</g>
<g>
</g>
<g>
</g>
</svg>
