<svg enable-background="new 0 0 512 512" viewBox="0 0 512 512" xmlns="http://www.w3.org/2000/svg"><g id="_x33_7_Cereal"><g><g><g fill="#fdb91c"><path d="m90.271 98.996c-5.71-4.15-19.507-3.902-28.055-2.27 2.66-7.838 14.4-14.151 21.28-16.634 11.247 5.626 14.581 11.847 6.775 18.904z"/><path d="m311.769 379.583v36.143c0 6.812-5.17 12.511-11.95 13.173l-32.513 3.173c-4.493.438-7.92 4.216-7.92 8.73 0 4.844 3.927 8.771 8.771 8.771h90.264c4.844 0 8.771-3.927 8.771-8.771v-2.643c0-4.378-3.228-8.086-7.565-8.688l-14.478-2.011c-6.543-.909-11.415-6.503-11.415-13.109v-30.946"/><path d="m225.508 404.455v44.696c0 6.812-5.17 12.511-11.95 13.173l-32.513 3.173c-4.493.438-7.92 4.216-7.92 8.73 0 4.844 3.927 8.771 8.771 8.771h90.264c4.844 0 8.771-3.927 8.771-8.771v-2.643c0-4.378-3.228-8.086-7.565-8.688l-14.478-2.011c-6.543-.909-11.415-6.503-11.415-13.109v-39.499"/></g><path d="m429.516 222.564c-6.029 5.285-13.194 9.186-20.819 11.597 6.774 4.221 15.428 5.569 23.018 3.051-3.689 16.882-14.79 31.779-29.367 40.823 1.454 31.176-10.392 62.954-32.417 85.086-20.323 20.394-48.803 32.169-77.461 32.878-5.781.142-14.719-2.554-20.145-.745-5.107 1.702-7.803 7.164-10.747 11.349-6.278 8.938-13.761 22.415-26.494 21.635-7.342-.497-13.407-6.207-16.811-12.733-3.405-6.491-4.717-13.868-6.881-20.89-4.54-14.648-13.052-27.984-24.153-38.588-35.042 1.915-70.119-21.174-82-54.23-21.422-59.585 29.012-127.115 8.406-186.983l26.21-56.677c36.957 9.825 65.969 44.37 69.268 82.497 1.064 12.414.142 26.387 8.441 35.715 6.81 7.59 18.088 9.612 28.197 8.228 10.073-1.347 19.507-5.604 29.225-8.725 24.047-7.696 50.257-8.476 74.765-2.341l-.922-.284c8.477-4.859 15.57-12.307 20.89-20.536 8.406-12.945 13.087-27.842 18.443-42.312 5.32-14.471 11.598-29.048 22.38-40.078 8.761 13.974 13.62 30.963 13.371 47.597 4.433-2.979 9.222-5.285 14.471-6.526 2.518 8.547 2.128 18.549-.355 27.771 3.299-1.596 6.703-3.05 10.108-4.362 2.873 15.96.319 32.807-6.171 47.881 2.802-2.163 5.391-4.611 7.732-7.271.814 17.664-6.811 35.539-20.182 47.173z" fill="#fff"/><path d="m429.53 222.578c-6.029 5.285-13.194 9.186-20.819 11.598 6.774 4.22 15.428 5.568 23.018 3.05-3.689 16.882-14.79 31.779-29.367 40.823 1.454 31.175-10.392 62.954-32.417 85.086-20.323 20.394-48.803 32.169-77.461 32.878-5.781.142-14.719-2.554-20.145-.745-5.107 1.702-7.803 7.164-10.747 11.35-6.278 8.937-13.761 22.415-26.494 21.635-7.342-.497-13.407-6.207-16.811-12.733-3.405-6.49-4.717-13.867-6.881-20.89-2.093-6.739-5.001-13.194-8.654-19.223 4.788-4.539 8.548-10.782 11.988-15.641 2.944-4.185 5.639-9.647 10.746-11.349 5.427-1.809 14.364.887 20.145.745 28.658-.709 57.138-12.485 77.461-32.878 22.025-22.132 33.871-53.91 32.417-85.086 14.577-9.044 25.678-23.94 29.367-40.823-7.59 2.518-16.244 1.171-23.018-3.05 7.626-2.412 14.79-6.313 20.819-11.598 13.371-11.633 20.997-29.509 20.181-47.172-2.341 2.66-4.93 5.107-7.732 7.271 6.491-15.074 9.044-31.921 6.171-47.881-1.419.532-2.837 1.135-4.256 1.702 3.618-7.058 7.98-13.655 13.513-19.329 8.761 13.974 13.62 30.963 13.371 47.597 4.433-2.98 9.221-5.285 14.471-6.526 2.518 8.548 2.128 18.55-.355 27.771 3.299-1.596 6.703-3.05 10.108-4.362 2.873 15.96.319 32.807-6.171 47.881 2.802-2.163 5.391-4.611 7.732-7.271.817 17.661-6.809 35.537-20.18 47.17z" opacity=".15"/><path d="m141.911 83.39c.674 3.937.142 8.441-2.837 11.066-3.795 3.369-9.825 2.412-14.151 5.072-7.661 4.717-5.746 17.486-12.662 23.267-4.504 3.76-11.633 3.05-16.138-.638-4.54-3.724-6.668-9.718-6.881-15.571-.213-5.816 2.483-11.243 3.44-17.024-2.589-3.972-12.981-15.322-13.584-20.004-.603-4.717 1.49-10.108 5.923-11.74 1.454-.532 3.121-.709 4.185-1.773 3.298-3.298-2.696-9.647.248-13.229 1.88-2.234 5.462-1.17 8.086.142 2.589 1.277 6.065 2.554 8.122.497 1.667-1.632 1.241-4.327 1.17-6.668-.107-2.341.922-5.32 3.227-5.356 2.057-.036 3.263 2.199 4.114 4.079.851 1.844 2.554 3.937 4.504 3.334 3.405-1.099.638-7.519 3.653-9.434 1.951-1.206 4.362.568 5.71 2.376 1.383 1.809 2.979 4.043 5.249 3.901 3.157-.177 4.469-4.788 7.626-5.214 1.702-.249 3.334.993 4.114 2.518.78 1.561.851 3.334.816 5.072-.178 6.774-1.951 13.477-5.178 19.401.532.993 1.028 2.128 1.49 3.37-3.086 2.518-3.76 7.022-3.157 10.959.606 3.936 2.237 7.66 2.911 11.597z" fill="#ff5556"/><path d="m279.266 212.007c-1.191-2.144-3.89-2.909-6.027-1.718-2.141 1.188-2.909 3.89-1.718 6.027 22.507 40.448 56.623 71.7 98.931 90.719-16.012 14.644-38.488 22.24-60.073 20.006-23.708-2.449-46.007-16.691-58.199-37.168-1.257-2.106-3.987-2.792-6.079-1.541-2.102 1.254-2.792 3.973-1.541 6.079 8.663 14.548 21.91 26.255 37.214 33.556-22.238 5.027-58.818.571-76.526-13.724-21.194-17.107-34.546-43.565-35.717-70.775-.107-2.449-2.196-4.302-4.62-4.239-2.445.107-4.343 2.175-4.239 4.62 1.282 29.718 15.863 58.611 39.007 77.294 22.845 18.442 72.475 22.351 95.09 11.818 4.8 1.404 9.72 2.386 14.696 2.899 2.785.287 5.576.43 8.372.43 23.764 0 47.548-10.221 63.637-27.733.977-1.067 1.375-2.542 1.063-3.955s-1.295-2.584-2.632-3.138c-43.247-17.93-78.046-48.863-100.639-89.457z"/><path d="m454.143 175.193c-.085-1.854-1.327-3.632-3.522-4.084 3.311-12.452 4.012-25.26 1.887-37.122-.236-1.306-1.039-2.438-2.199-3.086-1.157-.648-2.549-.745-3.779-.26-.896.351-1.687.695-2.535 1.043.981-7.65.542-15.097-1.362-21.571-.665-2.265-2.996-3.619-5.282-3.062-3.153.752-6.216 1.897-9.255 3.372-1.066-14.919-5.836-29.758-13.799-42.469-.724-1.15-1.933-1.908-3.283-2.054-1.337-.145-2.691.336-3.644 1.309-13.017 13.299-19.603 31.139-25.79 48.279-4.295 11.918-8.739 24.242-15.579 34.792-5.024 7.759-11.208 14.006-17.944 18.216-24.519-5.603-50.383-4.582-74.434 3.151-13.13 4.234-39.287 16.785-52.74 1.735-7.166-8.011-6.29-20.848-7.353-33.136-3.269-37.896-31.108-72.604-67.09-84.708 2.334-5.491 3.694-11.394 3.846-17.361.236-8.989-5.149-12.762-9.968-12.105-3.688.496-5.543 3.218-7.241 4.904-.44-.464-1.008-1.219-1.482-1.85-3.297-4.368-7.959-5.753-11.612-3.464-2.069 1.306-2.96 3.256-3.368 5.098-3.298-4.744-8.611-4.714-11.633-1.521-2.323 2.457-2.008 4.132-2.546 8.704.036.658.092 1.676.099 2.144-.459-.059-1.389-.291-3.022-1.105-8.044-4.039-12.095-.634-13.46 1.011-2.963 3.578-1.708 7.855-.876 10.685.203.689.483 1.645.585 2.272-.539.17-1.465.396-2.284.7-6.842 2.525-9.594 10.197-8.779 16.469.276 2.112 1.478 4.562 3.348 7.411-6.064 2.751-16.991 8.802-20.019 17.769-1.078 3.193 1.67 6.399 5.022 5.777 7.307-1.38 16.93-1.415 22.17.372-1.476 8.643 1.266 18.553 8.08 24.123 5.327 4.358 12.993 5.581 19.188 2.337 4.857 25.088-1.172 51.38-7.556 78.998-7.41 32.063-15.07 65.213-3.857 96.385 12.084 33.595 47.38 58.259 84.342 57.213 23.655 23.475 21.408 42.7 28.932 57.052 1.821 3.513 4.12 6.493 6.723 8.876v22.715c0 4.551-3.415 8.316-7.945 8.759l-32.516 3.173c-6.796.665-11.922 6.318-11.922 13.144 0 7.28 5.926 13.203 13.207 13.203h90.261c7.28 0 13.207-5.923 13.207-13.203v-2.643c0-6.557-4.894-12.178-11.388-13.082l-14.474-2.009c-4.329-.603-7.596-4.35-7.596-8.718v-21.707c4.951-4.435 9.711-11.356 14.949-19.361 8.361-12.759 9.678-5.977 25.731-6.28 4.954-.123 9.877-.59 14.748-1.326v16.624c0 4.551-3.415 8.316-7.946 8.759l-32.516 3.173c-6.796.665-11.922 6.318-11.922 13.144 0 7.28 5.926 13.203 13.207 13.203h90.265c7.28 0 13.203-5.923 13.203-13.203v-2.643c0-6.557-4.894-12.178-11.388-13.082l-14.474-2.009c-4.329-.603-7.596-4.35-7.596-8.718v-24.252c13.008-5.781 24.922-13.825 34.896-23.837 22.048-22.173 34.54-54.132 33.76-85.933 14.89-10.014 25.515-25.207 29.222-42.155.738-3.357-2.465-6.228-5.718-5.161-3.025.999-6.306 1.262-9.565.844 22.426-11.947 34.44-35.505 33.381-58.658zm-367.595-113.222c1.157-.432 3.788-.773 5.821-2.816 3.505-3.526 2.135-8.188 1.318-10.973-.18-.613-.442-1.507-.566-2.165.535.104 1.349.353 2.425.894 5.706 2.851 10.157 2.743 13.238-.312 2.165-2.147 2.568-4.853 2.575-7.128 2.237 3.204 5.455 4.607 8.643 3.588 4.257-1.347 4.87-5.434 5.045-7.894 1.647 2.161 4.286 5.157 8.507 4.96 3.335-.207 5.457-2.35 7.641-4.88.244.714.253 1.801.23 2.702-.128 5.043-1.262 10.055-3.304 14.668-10.625-1.5-21.909 1.015-30.814 6.955-7.326 4.891-13.12 12.164-16.443 20.369-2.8-3.55-7.033-9.082-7.367-10.962-.354-2.697.713-6.144 3.051-7.006zm-14.369 29.261c3.251-2.541 7.37-4.782 11.283-6.36 1.882 2.395 3.359 4.203 4.504 5.712-.17.734-.4 1.503-.609 2.256-4.583-1.402-10.112-1.768-15.178-1.608zm26.735 27.476c-6.601-5.393-5.688-14.069-3.535-21.568 2.428-8.447 3.111-21.025 16.847-30.192 6.932-4.624 15.673-6.636 23.951-5.649-4.411 8.363.335 16.738 1.366 22.825 1.182 7.015-1.985 7.943-6.929 8.929-2.52.509-5.374 1.081-7.994 2.691-5.476 3.356-7.215 9.22-8.749 14.395-1.122 3.786-2.182 7.364-4.458 9.258-2.586 2.169-7.397 1.85-10.499-.689zm159.366 346.568 14.478 2.009c2.134.294 3.741 2.144 3.741 4.298v2.643c0 2.39-1.947 4.336-4.34 4.336h-90.261c-2.393 0-4.34-1.947-4.34-4.336 0-2.244 1.687-4.101 3.917-4.319l32.513-3.173c9.095-.887 15.953-8.448 15.953-17.585v-17.481c4.483 1.433 8.839 1.342 13.099-.145v16.251c0 8.767 6.55 16.294 15.24 17.502zm86.261-33.423 14.478 2.009c2.134.294 3.741 2.144 3.741 4.298v2.643c0 2.39-1.947 4.336-4.336 4.336h-90.265c-2.393 0-4.34-1.947-4.34-4.336 0-2.244 1.687-4.101 3.917-4.319l32.513-3.173c9.095-.887 15.953-8.448 15.953-17.585v-18.299c4.444-1.018 8.816-2.293 13.099-3.802v20.726c0 8.766 6.55 16.293 15.24 17.502zm36.295-200.162c-2.456-.461-4.724 1.143-5.171 3.543-.45 2.407 1.14 4.724 3.543 5.171 9.236 1.724 19.088 1.397 29.085-1.47 5.367 2.848 11.36 4.242 17.202 3.929-6.451 18.138-22.4 33.732-42.578 38.598-2.38.572-3.845 2.968-3.27 5.348.587 2.441 3.049 3.839 5.348 3.27 4.468-1.075 8.799-2.669 12.981-4.661-.586 27.786-11.951 55.234-31.199 74.588-19.289 19.362-46.409 30.864-74.419 31.553-14.189.291-21.406-7.262-32.918 10.283-7.081 10.867-14.288 22.469-24.089 21.956-5.93-.381-10.668-5.58-13.134-10.339-6.535-12.468-5.588-35.513-31.914-60.623-11.115-10.654-24.588-18.492-38.967-22.662-2.348-.682-4.811.672-5.493 3.02-.682 2.352.672 4.811 3.024 5.493 8.963 2.601 17.523 6.815 25.294 12.328-28.534-3.568-54.949-23.499-64.74-50.722-10.332-28.717-3.296-59.158 4.151-91.387 6.819-29.508 13.832-59.947 6.212-88.971 1.135-2.387 1.888-4.912 2.589-7.279 1.237-4.17 2.305-7.776 4.885-9.355 1.278-.786 3.135-1.16 5.102-1.555 10.603-2.124 15.817-7.891 13.925-19.098-1.013-6.01-5.432-14.807-1.395-18.315 32.142 11.373 56.869 42.627 59.807 76.673 1.122 12.933.166 27.765 9.577 38.283 17.78 19.889 48.764 5.067 62.064.8 27.962-8.992 58.518-8.316 86.06 1.902 2.296.859 4.849-.319 5.698-2.615.852-2.296-.319-4.846-2.615-5.698-2.136-.793-4.293-1.515-6.461-2.2 5.365-4.435 10.265-9.96 14.42-16.379 7.395-11.402 12.015-24.214 16.48-36.607 5.076-14.053 10.467-29.043 19.846-40.652 6.139 11.62 9.492 24.78 9.671 37.81-6.26 4.579-12.229 10.711-18.181 18.705-1.462 1.964-1.053 4.738.911 6.203 1.96 1.462 4.738 1.056 6.203-.911 6.922-9.299 15.814-18.511 26.742-22.652.951 5.874.583 12.49-.971 19.169-15.102 7.551-29.04 17.986-40.395 30.343-1.656 1.805-1.538 4.607.267 6.266 1.801 1.649 4.603 1.545 6.266-.267 11.876-12.93 27.09-24.009 44.254-31.46 1.213 12.623-.96 26.167-6.235 38.814-9.51 7.057-21.137 10.708-32.211 9.732-2.463-.197-4.589 1.593-4.801 4.032-.215 2.438 1.593 4.589 4.032 4.801 13.664 1.191 27.934-3.387 39.36-12.244-5.012 31.64-34.597 50.966-63.842 45.509z"/><path d="m117.879 83.116 2.012-.862c2.251-.966 3.294-3.571 2.329-5.822-.965-2.255-3.58-3.287-5.821-2.331l-2.012.862c-2.251.966-3.294 3.571-2.329 5.822.72 1.683 2.357 2.688 4.077 2.688.584 0 1.176-.114 1.744-.357z"/></g></g></g><g id="Layer_1"/></svg>