<?xml version="1.0" encoding="iso-8859-1"?>
<!-- Generator: Adobe Illustrator 19.0.0, SVG Export Plug-In . SVG Version: 6.00 Build 0)  -->
<svg version="1.1" id="Capa_1" xmlns="http://www.w3.org/2000/svg" xmlns:xlink="http://www.w3.org/1999/xlink" x="0px" y="0px"
	 viewBox="0 0 512 512" style="enable-background:new 0 0 512 512;" xml:space="preserve">
<path style="fill:#CEBAB3;" d="M10.994,375.453l86.777,86.777c6.108,6.108,14.979,8.525,23.34,6.366l103.642-26.766
	c8.9-2.299,11.921-13.395,5.423-19.893l-86.769-86.769c-2.564-2.564-5.614-4.48-8.915-5.673c-4.553-1.665-9.578-1.945-14.426-0.693
	L16.424,355.568C7.524,357.865,4.503,368.961,10.994,375.453z"/>
<g>
	<path style="fill:#A59590;" d="M224.757,441.833L121.115,468.6c-8.367,2.157-17.234-0.26-23.34-6.367l-13.15-13.15
		c6.106,6.106,14.973,8.523,23.34,6.366l103.643-26.767c8.898-2.303,11.92-13.4,5.418-19.891l13.15,13.139
		C236.677,428.433,233.655,439.53,224.757,441.833z"/>
	<path style="fill:#A59590;" d="M134.492,329.493l-2.77,2.77c-12.061,12.061-12.069,31.681,0,43.749l39.395,39.395
		c12.061,12.061,31.688,12.061,43.749,0l4.391-4.391l-75.85-75.85C140.843,332.602,137.792,330.686,134.492,329.493z"/>
</g>
<path style="fill:#FF4D4D;" d="M471.052,48.371L192.785,326.638c-7.653,7.653-7.653,20.063-0.01,27.704
	c3.832,3.832,8.85,5.743,13.858,5.732c5.018,0,10.037-1.911,13.858-5.732L498.757,76.077c7.653-7.653,7.653-20.063,0-27.715
	c-3.821-3.821-8.84-5.732-13.858-5.732C479.891,42.639,474.873,44.55,471.052,48.371z"/>
<path style="fill:#FF1010;" d="M219.692,299.732l-26.907,26.907c-7.653,7.653-7.653,20.063-0.01,27.704
	c3.832,3.832,8.85,5.743,13.858,5.732c5.018,0,10.037-1.911,13.858-5.732l26.907-26.907L219.692,299.732z"/>
<path style="fill:#87776F;" d="M176.46,309.621l-33.689,33.689c-5.984,5.984-5.974,15.674,0,21.648l39.4,39.4
	c5.974,5.974,15.664,5.984,21.648,0l33.689-33.689c5.974-5.974,5.963-15.664-0.011-21.637l-39.4-39.4
	C192.123,303.658,182.433,303.648,176.46,309.621z"/>
<path d="M281.401,282.826l-49.746,49.747l-17.103-17.103l171.744-171.744c2.929-2.929,2.929-7.678,0-10.606
	c-2.93-2.929-7.678-2.929-10.607,0L203.946,304.864l-0.542-0.542c-8.892-8.89-23.354-8.891-32.246,0l-24.046,24.046
	c-7.871-6.84-18.753-9.458-28.919-6.831l-103.65,26.77c-6.813,1.763-11.986,6.868-13.839,13.657
	c-1.854,6.788,0.009,13.814,4.984,18.797l19.399,19.4c1.465,1.465,3.384,2.197,5.304,2.197c1.919,0,3.839-0.732,5.304-2.197
	c2.929-2.929,2.929-7.677,0-10.606l-19.396-19.396c-1.619-1.621-1.326-3.509-1.126-4.245c0.201-0.737,0.908-2.511,3.124-3.084
	l103.647-26.769c5.074-1.31,10.479-0.155,14.57,3.007c-7.9,8.944-7.599,22.641,0.952,31.191l11.429,11.429l-42.165,15.555
	c-3.886,1.434-5.874,5.746-4.44,9.632c1.117,3.03,3.985,4.906,7.037,4.906c0.862,0,1.738-0.15,2.595-0.465l48.654-17.948
	l16.294,16.294c4.445,4.445,10.284,6.668,16.123,6.668c5.438,0,10.861-1.953,15.173-5.808l16.715,16.716
	c1.619,1.621,1.326,3.508,1.125,4.245c-0.201,0.737-0.908,2.511-3.123,3.084l-103.648,26.769c-5.763,1.487-11.952-0.201-16.16-4.401
	l-45.278-45.289c-2.93-2.929-7.679-2.93-10.606-0.001c-2.93,2.928-2.93,7.677-0.001,10.606l45.283,45.294
	c6.041,6.03,14.24,9.317,22.6,9.317c2.644,0,5.303-0.329,7.915-1.003l103.651-26.77c6.813-1.763,11.986-6.868,13.839-13.657
	c1.854-6.788-0.009-13.813-4.984-18.797l-16.674-16.674l23.99-23.991c8.89-8.89,8.89-23.354,0-32.245l-0.545-0.545l49.747-49.747
	c2.929-2.929,2.929-7.678,0-10.606C289.079,279.898,284.331,279.898,281.401,282.826z M232.199,365.363l-29.24,29.24
	c-0.018,0.018-0.038,0.032-0.056,0.05c-0.018,0.018-0.033,0.038-0.051,0.056l-4.345,4.345c-3.041,3.041-7.991,3.042-11.032,0
	l-39.402-39.402c-3.042-3.042-3.042-7.991,0-11.033l4.394-4.394c0.001-0.001,0.003-0.002,0.004-0.004s0.003-0.003,0.004-0.004
	l29.289-29.289c1.521-1.521,3.519-2.281,5.516-2.281c1.998,0,3.996,0.76,5.517,2.281l39.402,39.402
	c1.474,1.474,2.285,3.433,2.285,5.517C234.484,361.93,233.673,363.889,232.199,365.363z"/>
<path d="M504.064,43.062c-10.564-10.564-27.753-10.564-38.317,0l-67.962,67.962c-2.929,2.929-2.929,7.678,0,10.606
	c2.93,2.929,7.678,2.929,10.607,0l67.962-67.962c4.715-4.715,12.388-4.717,17.104,0c2.284,2.284,3.542,5.321,3.542,8.552
	c0,3.23-1.258,6.268-3.543,8.552l-189.958,189.96c-2.929,2.929-2.929,7.678,0,10.606c1.465,1.464,3.385,2.197,5.304,2.197
	s3.839-0.732,5.304-2.197L504.064,81.378C509.181,76.261,512,69.458,512,62.22S509.181,48.179,504.064,43.062z"/>
<g>
</g>
<g>
</g>
<g>
</g>
<g>
</g>
<g>
</g>
<g>
</g>
<g>
</g>
<g>
</g>
<g>
</g>
<g>
</g>
<g>
</g>
<g>
</g>
<g>
</g>
<g>
</g>
<g>
</g>
</svg>
