<svg id="Layer_1" enable-background="new 0 0 500 500" viewBox="0 0 500 500" xmlns="http://www.w3.org/2000/svg"><g clip-rule="evenodd" fill-rule="evenodd"><path d="m183.646 262.497 36.936-69.111 168.495 72.084 36.243 62.825-102.421 56.294z" fill="#999"/><path d="m347.692 247.765 41.385 17.705 36.243 62.825-102.421 56.294 13.146-89.971z" fill="#999"/><path d="m389.077 265.47-115.462-101.233-53.033 29.149 115.463 101.232z" fill="#ccc"/><path d="m81.225 318.791 36.937-69.111 168.495 72.084 36.242 62.825-102.42 56.294z" fill="#999"/><path d="m245.272 304.059 41.385 17.705 36.242 62.825-102.42 56.294 13.145-89.97z" fill="#999"/><path d="m286.657 321.764-115.463-101.233-53.032 29.149 115.462 101.233z" fill="#ccc"/><path d="m306.509 241.881 49.386 41.827-91.006 50.02-115.71-101.096 30.559-53.783z" fill="#999"/><path d="m306.509 241.881 49.386 41.827-91.006 50.02 6.518-74.506 6.724-17.478z" fill="#999"/><path d="m306.509 241.881-88.573-79.9-38.199 16.868 91.67 80.373z" fill="#ccc"/><path d="m88.096 184.165-20.986-19.312c-2.734-2.528-2.918-6.795-.39-9.54 2.523-2.739 6.795-2.918 9.54-.39l20.98 19.318c4.527 4.173 1.523 11.716-4.58 11.716-1.63 0-3.265-.596-4.564-1.792zm379.269 67.79c-3.392.699-25.286 5.392-26.827 5.392-3.129 0-5.939-2.198-6.6-5.392-.753-3.644 1.592-7.217 5.246-7.975l25.457-5.246c3.644-.747 7.217 1.592 7.969 5.246.748 3.655-1.596 7.228-5.245 7.975zm-401.337-.282c-.771 3.695-4.367 5.984-7.98 5.23l-25.425-5.284c-3.644-.763-5.988-4.337-5.23-7.98.758-3.655 4.331-5.993 7.98-5.241l25.419 5.295c3.655.753 5.994 4.326 5.236 7.98zm366.546-86.82-20.98 19.312c-2.749 2.536-7.011 2.355-9.534-.384-2.528-2.745-2.35-7.011.39-9.54l20.98-19.318c2.745-2.528 7.017-2.35 9.54.39 2.528 2.745 2.349 7.011-.396 9.54zm-100.194-53.811 14.423-22.165c2.025-3.124 6.21-4.006 9.334-1.971 3.124 2.03 4.012 6.21 1.976 9.328l-14.418 22.171c-2.048 3.148-6.244 3.989-9.339 1.971-3.123-2.03-4.006-6.21-1.976-9.334zm-89.284-20.644v-31.278c0-3.725 3.021-6.751 6.751-6.751 3.725 0 6.746 3.026 6.746 6.751v31.278c0 3.725-3.021 6.746-6.746 6.746-3.73 0-6.751-3.021-6.751-6.746zm-101.179 6.307c-2.198-3.016-1.532-7.239 1.473-9.431 3.016-2.198 7.239-1.543 9.437 1.472l15.566 21.348c3.287 4.509-.083 10.731-5.441 10.731-2.09 0-4.142-.953-5.463-2.772zm88.012 331.29 9.946-72.804 44.26-24.336 29.491 51.131zm-109.798-167.632 106.333 93.226-10.189 74.612-126.55-110.952zm28.186-19.539-18.44 10.13 104.66 91.764 18.662-10.26zm33.215-51.44-23.741 41.792 64.109 56.004.07-.081 37.379 32.771 5.057-57.828zm35.149-19.464 77.947 70.308-22.138 10.942-80.324-70.427zm56.057 2.512 104.666 91.764-20.666 11.353-45.765-38.76-58.813-53.047zm58.825 199.7 84.487-46.431-29.496-51.131-44.298 24.347zm-53.735-108.542-5.089 58.131 71.326-39.203-38.516-32.626zm18.142 60.768 23.086 40.016 8.37-57.303zm98.976-62.263h-.011c-.363-.628-.823-1.213-1.386-1.711l-115.461-101.227c-2.133-1.873-5.214-2.209-7.704-.839l-28.835 15.847-19.074-17.195c-1.971-1.787-4.813-2.241-7.244-1.164l-38.191 16.865c-1.354.595-2.442 1.603-3.146 2.848v-.011l-29.621 52.127-29.339 16.129c-1.169.639-2.084 1.592-2.696 2.734l-.011-.005-36.935 69.122c-1.478 2.761-.855 6.177 1.5 8.251l139.257 122.094c2.148 1.882 5.213 2.197 7.704.834l204.843-112.586c3.302-1.82 4.49-6.004 2.593-9.291z" fill="#1e2f3f"/></g></svg>