<svg fill="none" height="24" viewBox="0 0 24 24" width="24" xmlns="http://www.w3.org/2000/svg"><path d="m8.9393 17.7059 2.5262 1.2631c.237.1185.5161.1185.7531 0l2.7053-1.3527c.1845-.0922.3287-.2489.4053-.4404l.6395-1.5989c.0548-.1369.0727-.2859.0518-.4318l-.3399-2.3791c-.0316-.2211.026-.4457.16-.6243l.8854-1.1806c.1093-.1457.1684-.323.1684-.5052v-3.40919c0-.31895-.1802-.61052-.4655-.75316l-4.2103-2.10514c-.237-.11853-.5161-.11853-.7531 0l-4.28118 2.14057c-.24714.12357-.41793.36053-.45701.63407l-.72012 5.04085c-.03748.2624.05076.5271.23817.7145l1.98183 1.9818c.15791.1579.24663.3721.24663.5954v1.657c0 .319.1802.6105.46548.7532z" fill="#4c2420"/><path clip-rule="evenodd" d="m11.995 4.63572c-.0963-.04815-.2096-.04815-.3059 0l-4.28116 2.14057c-.1004.0502-.16978.14646-.18565.25757l-.72012 5.04084c-.01523.1066.02062.2141.09675.2902l1.98182 1.9819c.25169.2517.39308.593.39308.9489v1.657c0 .1296.0732.248.18909.306l2.52619 1.263c.0963.0482.2096.0482.3059 0l2.7053-1.3526c.075-.0375.1335-.1011.1646-.1789l.6396-1.5989c.0222-.0556.0295-.1161.021-.1754l-.3398-2.3791c-.0504-.3524.0413-.7103.2549-.995l.8854-1.1806c.0444-.0592.0684-.1312.0684-.2052v-3.40919c0-.12956-.0732-.24801-.1891-.30595zm-.7531-.89443c.3778-.18891.8225-.18891 1.2003 0l4.2103 2.10515c.4547.22733.7419.69203.7419 1.20037v3.40919c0 .2904-.0942.5729-.2684.8052l-.8854 1.1806c-.0544.0725-.0778.1638-.065.2536l.3399 2.379c.0332.2327.0048.47-.0825.6883l-.6396 1.5989c-.1221.3052-.3519.5549-.6459.7019l-2.7053 1.3527c-.3778.1889-.8225.1889-1.2003 0l-2.52621-1.2631c-.45466-.2274-.74187-.6921-.74187-1.2004v-1.657c0-.0907-.03604-.1777-.10018-.2418l-1.98183-1.9818c-.2987-.2987-.43933-.7206-.37959-1.1388l.72012-5.04086c.06228-.43596.33449-.81363.72838-1.01057z" fill="#000" fill-rule="evenodd"/><path d="m7.21076 10.7353-1.26308.842-.84206-.421.42103-2.52616 1.26308-.84205.84206 1.26308z" fill="#a1625c"/><path d="m8.47383 6.94694-.84206-1.54377 1.49699-.56137 1.49704.28068.3742.84206-1.26308 1.40343z" fill="#a1625c"/><path d="m14.7892 4.8418h-1.6841l.4211 1.26308 1.263.84206h1.2631v-1.26309z" fill="#a1625c"/><path d="m14.4057 8.43826-1.1565-.57829c-.4966-.24831-1.0934.04357-1.2023.58802l-.1677.83841c-.0244.12226-.0214.24842.0088.36937l.3026 1.21043c.0469.1876.157.3533.3117.4694l.8607.6455c.3352.2514.8043.2181 1.1006-.0782l.4403-.4403c.1923-.1923.2799-.4656.2352-.7339l-.2793-1.67572c-.0443-.26574-.2131-.49424-.4541-.61472z" fill="#a1625c"/><path d="m10.4594 11.9097-1.05726-.793c-.24089-.1806-.58804-.0574-.66107.2347l-.2375.95c-.01942.0777-.01629.1593.00903.2353l.35083 1.0525c.02067.062.05549.1183.10171.1645l.82966.8297c.18787.1879.5006.1569.648-.0642l.4539-.6808c.0658-.0987.0869-.2205.0581-.3356l-.3396-1.3584c-.0234-.0938-.0785-.1767-.1558-.2347z" fill="#a1625c"/><path d="m14.5557 13.9797.8421-.5613c.1414-.0943.3256-.0943.4671 0l.842.5613c.1171.0781.1875.2096.1875.3504v1.2843c0 .1117-.0444.2188-.1233.2978l-1.1478 1.1477c-.2032.2032-.5457.1476-.6743-.1094l-.5363-1.0728c-.0293-.0584-.0445-.1229-.0445-.1882v-1.3594c0-.1408.0704-.2723.1875-.3504z" fill="#a1625c"/><path d="m10.3907 16.7261-1.19374.5969c-.17651.0882-.26803.2872-.22017.4787l.29215 1.1686c.02981.1192.11023.2195.22017.2744l1.34179.6709c.1076.0538.233.059.3447.0144l1.5047-.6019c.2287-.0915.3304-.3589.2202-.5793l-.5746-1.1493c-.0408-.0815-.1068-.1475-.1883-.1883l-1.3703-.6851c-.1186-.0593-.2581-.0593-.3766 0z" fill="#a1625c"/><g clip-rule="evenodd" fill="#000" fill-rule="evenodd"><path d="m6.88779 7.2978c.13003.026.24441.1026.31797.21294l.84205 1.26308c.07815.11722.10322.26195.06905.39862l-.42103 1.68416c-.03016.1206-.10423.2257-.20772.2947l-1.26308.8421c-.1493.0995-.34048.1114-.50096.0312l-.84206-.4211c-.19633-.0981-.30567-.3129-.26959-.5294l.42103-2.52615c.02272-.13633.10085-.25717.21585-.33383l1.26308-.84206c.11034-.07355.24538-.10027.37541-.07426zm-.90356 1.62821-.3247 1.94829.25222.1261.86082-.5739.3205-1.28201-.44201-.66303z"/><path d="m8.9532 4.37363c.08544-.03204.17802-.04009.26771-.02327l1.49699.28069c.1616.0303.298.13811.3648.28836l.3742.84206c.0801.18031.0467.39089-.0852.53755l-1.2631 1.40343c-.13309.14784-.34111.20275-.5298.13986l-1.26308-.42103c-.11995-.03998-.22029-.12392-.28084-.23491l-.84205-1.54378c-.06935-.12714-.08017-.27811-.02964-.41384.05052-.13574.15741-.24289.29302-.29375zm.22052.98531-.8273.31024.47216.86563.76577.25526.82695-.91889-.1358-.30566z"/><path d="m12.6995 4.54944c.094-.13038.2449-.20764.4056-.20764h1.6842c.0987 0 .1952.02922.2773.08397l1.2631.84206c.1391.09273.2226.24885.2226.41602v1.26309c0 .27614-.2238.5-.5.5h-1.263c-.0988 0-.1953-.02922-.2774-.08398l-1.2631-.84205c-.0925-.06168-.1618-.15243-.197-.25791l-.421-1.26309c-.0508-.15247-.0253-.32008.0687-.45047zm1.0993.79236.1475.44222.9943.66292h.6117v-.49549l-.9144-.60965z"/><path d="m11.5566 8.35027c.1735-.86774 1.1247-1.33292 1.9162-.93718l1.1566.57829c.384.19202.653.55621.7236.97974l.2793 1.67578c.0712.4275-.0684.8631-.3749 1.1696l-.4402.4403c-.4723.4722-1.2199.5253-1.7542.1246l-.8607-.6455c-.2466-.1849-.422-.4491-.4968-.7481l-.3026-1.21042c-.0482-.19278-.053-.39385-.014-.5887zm1.469-.04275c-.2018-.10087-.4442.0177-.4884.23886l-.1677.83842c-.0099.04966-.0087.10091.0036.15004l.3026 1.21036c.019.0762.0637.1436.1266.1907l.8607.6455c.1361.1022.3267.0886.4471-.0318l.4402-.4402c.0781-.0781.1137-.1892.0956-.2981l-.2793-1.67578c-.018-.10795-.0866-.20077-.1845-.24972z"/><path d="m8.256 11.2305c.15976-.639.91918-.9086 1.44614-.5134l1.05726.7929c.1692.1269.2896.3082.3409.5135l.3396 1.3584c.0629.2517.0168.5183-.1272.7342l-.4539.6808c-.3223.4836-1.00658.5514-1.41756.1404l-.82965-.8297c-.10111-.1011-.17729-.2243-.2225-.36l-.35083-1.0524c-.05539-.1662-.06225-.3447-.01976-.5147zm.94129.3579-.20307.8123.33766 1.013.74832.7484.3811-.5716-.3243-1.2973z"/><path d="m15.1204 13.0023c.3094-.2062.7124-.2062 1.0218 0l.8421.5614c.2562.1708.4101.4584.4101.7664v1.2843c0 .2443-.097.4786-.2698.6513l-1.1477 1.1478c-.4445.4445-1.1939.3229-1.4751-.2394l-.5363-1.0728c-.064-.1278-.0973-.2689-.0973-.4118v-1.3594c0-.308.1539-.5956.4102-.7664zm.5109.8613-.7631.5087v1.2985l.4791.9581 1.0471-1.0472v-1.2094z"/><path d="m10.1671 16.2789c.2593-.1297.5645-.1297.8238 0l1.3703.6851c.1782.0891.3227.2337.4119.4119l.5746 1.1493c.241.482.0186 1.067-.4817 1.2671l-1.5047.6019c-.2443.0977-.5187.0863-.754-.0314l-1.34181-.6709c-.24049-.1202-.41642-.3395-.48163-.6004l-.29215-1.1686c-.1047-.4188.09552-.8541.48163-1.0472zm.4119.9121-1.10178.5508.26797 1.0719 1.27761.6388 1.3921-.5568-.5245-1.049z"/></g></svg>