<svg id="Layer_1" enable-background="new 0 0 64 64" viewBox="0 0 64 64" xmlns="http://www.w3.org/2000/svg"><g><g><g><path d="m20.91 59.03 5.35-7 13.04-6.62 7.28 7.92 4.99 5.7z" fill="#b8d3fc"/></g></g><g><g><path d="m39.3 45.41 6.3-.79 9.98 4.08-9 4.63z" fill="#b8d3fc"/></g></g><g><g><path d="m43.51 44.88-5.25-6.57-6.94-1.83-11.74 3.35-5.78 8.87.49 10.33h10.31z" fill="#b8d3fc"/></g></g><g><g><path d="m3.89 59.03 3.78-9.38 6.13-.95 2.94 10.33z" fill="#b8d3fc"/></g></g><g><g><path d="m7.67 49.65v-9.72l7.57-6.65 4.34 6.55-2.33 7.93z" fill="#b8d3fc"/></g></g><g><g><path d="m15.24 33.28 4.34-6.9 9.88-2.89 6.78 6.07 1.14 8.52-17.57 2.75z" fill="#b8d3fc"/></g></g><g><g><path d="m36.74 33.28h11.17l4.24 5.74 3.43 2.08v7.6l4.2 10.33-11.18-.06-9.3-16.26z" fill="#b8d3fc"/></g></g><g><g><path d="m20.91 60.03c-.21 0-.43-.07-.61-.21-.44-.33-.52-.96-.19-1.4l5.35-6.99c.09-.12.21-.22.34-.28l13.04-6.63c.4-.2.89-.11 1.19.22l7.27 7.92 5 5.71c.36.42.32 1.05-.09 1.41-.42.36-1.05.32-1.41-.09l-4.99-5.7-6.74-7.35-12.16 6.18-5.21 6.81c-.19.26-.49.4-.79.4z"/></g></g><g><g><path d="m46.58 54.33c-.36 0-.71-.2-.89-.54-.25-.49-.06-1.09.43-1.35l7.07-3.64-7.73-3.15-6.03.75c-.54.08-1.05-.32-1.12-.87s.32-1.05.87-1.12l6.29-.78c.17-.02.34 0 .5.07l9.98 4.07c.36.15.6.49.62.88s-.19.75-.54.93l-9 4.63c-.14.09-.3.12-.45.12z"/></g></g><g><g><path d="m14.29 60.03c-.53 0-.97-.42-1-.95l-.49-10.33c-.01-.21.05-.42.16-.59l5.77-8.87c.13-.2.33-.35.56-.42l11.74-3.35c.17-.05.36-.05.53 0l6.95 1.83c.21.05.39.17.53.34l5.25 6.57c.34.43.27 1.06-.16 1.41s-1.06.27-1.41-.16l-5.04-6.31-6.36-1.67-11.12 3.17-5.39 8.28.47 10.01c.03.55-.4 1.02-.95 1.05-.01-.01-.02-.01-.04-.01z"/></g></g><g><g><path d="m61.74 60.03h-59.48c-.55 0-1-.45-1-1s.45-1 1-1h59.48c.55 0 1 .45 1 1s-.45 1-1 1z"/></g></g><g><g><path d="m3.89 60.03c-.12 0-.25-.02-.37-.07-.51-.21-.76-.79-.55-1.3l3.78-9.38c.13-.33.43-.56.77-.61l6.13-.95c.54-.08 1.06.29 1.14.83.08.55-.29 1.06-.84 1.14l-5.57.86-3.56 8.85c-.16.39-.53.63-.93.63z"/></g></g><g><g><path d="m7.67 50.65c-.55 0-1-.45-1-1v-9.72c0-.29.12-.56.34-.75l7.57-6.65c.22-.19.5-.28.79-.24s.54.2.7.44l4.34 6.55c.3.46.18 1.08-.28 1.39-.46.3-1.08.18-1.39-.28l-3.7-5.6-6.36 5.6v9.27c-.01.54-.45.99-1.01.99z"/></g></g><g><g><path d="m37.38 39.08c-.49 0-.92-.37-.99-.87l-1.09-8.15-6.09-5.45-8.98 2.63-4.14 6.57c-.29.47-.91.61-1.38.31-.47-.29-.61-.91-.31-1.38l4.34-6.89c.13-.21.33-.36.57-.43l9.88-2.89c.33-.09.69-.02.95.21l6.78 6.07c.18.16.29.38.32.61l1.14 8.52c.07.55-.31 1.05-.86 1.12-.05.02-.1.02-.14.02z"/></g></g><g><g><path d="m59.78 60.03c-.39 0-.77-.23-.93-.62l-4.21-10.33c-.05-.12-.07-.25-.07-.38v-7.03l-2.94-1.79c-.11-.07-.21-.16-.28-.26l-3.94-5.33h-10.67c-.55 0-1-.45-1-1s.45-1 1-1h11.18c.32 0 .62.15.8.41l4.12 5.58 3.26 1.99c.3.18.48.5.48.85v7.4l4.13 10.15c.21.51-.04 1.09-.55 1.3-.12.03-.25.06-.38.06z"/></g></g><g><g><path d="m10.48 29.92c-.16 0-.31-.04-.46-.11l-6.59-3.44c-.49-.26-.68-.86-.42-1.35s.86-.68 1.35-.42l6.59 3.44c.49.26.68.86.42 1.35-.18.33-.53.53-.89.53z"/></g></g><g><g><path d="m16.74 20.71c-.35 0-.68-.18-.87-.5l-6.26-10.89c-.27-.48-.11-1.09.37-1.37.48-.27 1.09-.11 1.37.37l6.26 10.89c.27.48.11 1.09-.37 1.37-.16.09-.33.13-.5.13z"/></g></g><g><g><path d="m29.26 18.04c-.01 0-.03 0-.04 0-.55-.02-.98-.49-.96-1.04l.52-12.07c.02-.55.5-.97 1.04-.96.55.02.98.49.96 1.04l-.52 12.07c-.02.54-.47.96-1 .96z"/></g></g><g><g><path d="m41.52 20.39c-.18 0-.37-.05-.53-.15-.47-.29-.61-.91-.31-1.38l7.24-11.48c.29-.47.91-.61 1.38-.31.47.29.61.91.31 1.38l-7.24 11.48c-.19.29-.52.46-.85.46z"/></g></g><g><g><path d="m49.32 26.47c-.32 0-.64-.16-.83-.44-.31-.46-.18-1.08.27-1.39l8.61-5.76c.46-.31 1.08-.18 1.39.28s.18 1.08-.27 1.39l-8.61 5.76c-.18.11-.37.16-.56.16z"/></g></g><g><g><path d="m55.58 35.12c-.44 0-.84-.29-.96-.73-.15-.53.17-1.08.7-1.23l4.73-1.3c.53-.15 1.08.17 1.23.7s-.17 1.08-.7 1.23l-4.73 1.3c-.1.02-.19.03-.27.03z"/></g></g><g><g><path d="m42.79 26.7c-.24 0-.49-.09-.68-.27-.41-.37-.43-1.01-.06-1.41l1.43-1.55c.38-.4 1.01-.43 1.41-.06.41.37.43 1.01.06 1.41l-1.43 1.55c-.19.22-.46.33-.73.33z"/></g></g><g><g><path d="m35.4 21.84c-.06 0-.13-.01-.19-.02-.54-.11-.9-.63-.79-1.17l.44-2.25c.11-.54.63-.9 1.17-.79s.9.63.79 1.17l-.44 2.25c-.09.48-.51.81-.98.81z"/></g></g><g><g><path d="m23.62 21.51c-.41 0-.8-.25-.94-.66l-.8-2.25c-.19-.52.09-1.09.61-1.28.52-.18 1.09.09 1.28.61l.8 2.25c.19.52-.09 1.09-.61 1.28-.12.03-.23.05-.34.05z"/></g></g><g><g><path d="m14.83 25.92c-.21 0-.43-.07-.61-.21l-1.66-1.28c-.44-.34-.52-.96-.18-1.4s.96-.52 1.4-.18l1.66 1.28c.44.34.52.96.18 1.4-.19.26-.49.39-.79.39z"/></g></g><g><g><path d="m8.13 35.19c-.09 0-.19-.01-.29-.04l-1.53-.46c-.53-.16-.83-.71-.67-1.24s.71-.83 1.24-.67l1.53.46c.53.16.83.71.67 1.24-.12.43-.52.71-.95.71z"/></g></g><g><g><path d="m51.31 31.61c-.35 0-.7-.19-.88-.52-.26-.49-.09-1.09.4-1.36l1.74-.95c.48-.26 1.09-.09 1.36.4.26.49.09 1.09-.4 1.36l-1.74.95c-.16.08-.32.12-.48.12z"/></g></g></g></svg>