<svg id="Layer_1" enable-background="new 0 0 70 70" viewBox="0 0 70 70" xmlns="http://www.w3.org/2000/svg"><g><g><g><g><path d="m62.0576591 31.8021812c.6749039-.3918724 1.2734604-.2586002 1.5090675.3258209l2.8282623 7.0323486c.3928604.9839478-.3737183 2.7211952-1.4986343 3.3743629l-15.2481651 8.8535995c-1.1162376.6481247-1.8987732-.1896553-1.5040474-1.6309013l2.7794342-10.2883682c.2315483-.8556671.8273964-1.6824532 1.493618-2.0692825z" fill="#fff"/></g></g><g><g><path d="m64.8959808 42.5318527-15.2500038 8.8599854c-1.1098633.6400146-1.8999023-.1900024-1.5-1.6300049l1.5100098-5.6099854c.6101074.1900024 1.2700195.289978 1.9501953.289978 3.7897949 0 6.869873-3.0700073 6.869873-6.8599854 0-1.1699829-.2900391-2.2700195-.8100586-3.2299805l4.3901367-2.5500488c.6799316-.3899536 1.2800293-.2600098 1.5100098.3300171l2.8298378 7.0300293c.3901368.9799806-.369873 2.7199708-1.5 3.3699952z" fill="#e9ecff"/></g></g><g><path d="m52.364975 37.4382935 9.6683197-5.5346222c.4352722-.2564716.8553429-.2814026 1.1389999-.1162395l-25.9974975-15.6474954c-.2968178-.1788807-.7036552-.1539593-1.1524925.10252l-9.668396 5.5481853c-.2519665.1429348-.4861717.3637619-.7029953.6126423l26.0031052 15.6508541c.2184714-.2474555.4546622-.4682731.7109565-.6158446z" fill="#a5b2ff"/></g><g><path d="m63.1760063 31.7918015c-.2900391-.1699829-.7099609-.1399536-1.1398926.1100464l-9.670166 5.539978c-.2597656.1400146-.4899902.3599854-.7099609.6099854l-26.0100098-15.6499635c.2199707-.25.4602051-.4700317.7102051-.6100464l9.6699219-5.5499878c.4499512-.2600088.8498535-.2799673 1.1499023-.0999756l2.25 1.3499756c-2.0100098 1.4200439-3.2600098 3.4100342-3.2600098 5.6100464 0 4.2799683 4.7299805 7.75 10.5500488 7.75 3.75 0 7.0400391-1.4400024 8.9099121-3.6000366z" fill="#8f9fff"/></g><g><g><g><g><path d="m43.6034012 42.6083336c.6749039-.3918724 1.2734604-.2585983 1.5090675.3258209l2.8282623 7.0323486c.3928642.9839478-.3737144 2.7211952-1.4986343 3.3743629l-15.248167 8.8535995c-1.1162338.6481247-1.8987713-.1896553-1.5040455-1.6309052l2.779438-10.2883682c.2315445-.8556633.8273926-1.6824493 1.4936142-2.0692787z" fill="#fff"/></g></g><g><g><path d="m46.4460258 53.3418503-15.25 8.8499756c-1.1201172.6500244-1.8999023-.1900024-1.5100098-1.6300049l1.420166-5.2600098c.5297852.1500244 1.0898438.2300415 1.6699219.2300415 3.2099609 0 5.8100586-2.5200195 5.8100586-5.6300049 0-1.3699951-.5-2.6199951-1.3500977-3.5900269l6.3701172-3.7000122c.6699219-.3999634 1.2697754-.2599487 1.5097656.3200073l2.8200684 7.0300293c.4001466.9899903-.369873 2.7299806-1.4899902 3.380005z" fill="#e9ecff"/></g></g><g><g><path d="m32.4646568 50.2715874c.1436157-.5350456.4377937-1.0411377.796833-1.452137l-26.0905756-15.5046005c-.3547359.4113312-.647922.9213371-.7912059 1.4553833l-2.7786512 10.2779464c-.2303133.8586845-.0542691 1.4993935.3659866 1.7447433l26.0849514 15.5149155c-.4202557-.2453499-.596632-.8859749-.3659878-1.7447433z" fill="#fff"/></g><g><path d="m29.6860161 60.561821c-.2299805.8599854-.0500488 1.5.3701172 1.75l-26.0900877-15.5200195c-.4199219-.2399902-.6000977-.8799438-.3598633-1.7399902l2.7697752-10.2799683c.1501465-.5400391.4401855-1.0499878.7900391-1.460022l6.3200684 3.7600098c-.8500977 1.2999878-1.3500977 2.8499756-1.3500977 4.5200195 0 4.5700073 3.7099609 8.2799683 8.2800293 8.2799683 3.1599121 0 5.9001465-1.7600098 7.2900391-4.3599854l5.5600586 3.3099976c-.3601074.4099731-.6599121.9099731-.8000488 1.4500122z" fill="#e9ecff"/></g><g><path d="m33.9689751 48.1996269 9.6370926-5.5888252c.4338226-.2589111.8537483-.2862015 1.1383286-.1226349l-26.0849496-15.5012703c-.2978191-.1772118-.7045078-.1500053-1.1518974.1089897l-9.6370916 5.6023865c-.2511606.1443481-.4841213.3664856-.6995435.6165771l26.0905762 15.5046005c.2170748-.2486762.452022-.4708175.7074847-.6198234z" fill="#a5b2ff"/></g><g><path d="m44.7460747 42.4918137c-.2900391-.1699829-.7099609-.1399536-1.1398926.1199951l-9.6401367 5.5900269c-.25.1500244-.4899902.3699951-.6999512.6199951l-26.1000976-15.5100098c.2199707-.25.4499512-.4699707.6999512-.6099854l9.6401367-5.6099854c.4499512-.25.8598633-.2800293 1.1499023-.1000366l2.0700684 1.2300415c-.6899414 1.25-1.0900879 2.6900024-1.0900879 4.2299805 0 4.7999878 3.9001465 8.7000122 8.7001953 8.7000122 3.0898438 0 5.8098145-1.6100464 7.3498535-4.0400391z" fill="#8f9fff"/></g></g></g></g></g><g><g><g><path d="m48.9250298 52.1118698c-.2958984 0-.5693359-.0893555-.8007813-.2680664-.5537109-.4257813-.7265625-1.2553711-.4628906-2.2182617l2.7802734-10.2871094c.2666016-.9868164.9433594-1.9174805 1.7246094-2.3710938l9.640625-5.5976563c.4951172-.2866211 1-.3647461 1.4228516-.2182617.3613281.1240234.6455078.4042969.8007851.7900391l2.828125 7.0322266c.4912109 1.2290039-.3564453 3.206543-1.7109375 3.9936523l-15.2480507 8.8535156c-.3339844.1938477-.6660157.2910157-.9746094.2910157zm13.8583984-20.0332031c-.1328125 0-.2988281.0537109-.4746094.1557617v.0004883l-9.640625 5.5976563c-.546875.3173828-1.0664063 1.0444336-1.2617188 1.7666016l-2.7802734 10.2885742c-.1689453.6171875-.0673828 1.0288086.1074219 1.1635742.1367188.1049805.3789063.0708008.6640625-.0957031l15.2480507-8.8535156c.9794922-.5688477 1.5634766-2.059082 1.2851563-2.7563477l-2.8281288-7.03125c-.0703125-.1733398-.1660156-.206543-.1982422-.2172852-.0361329-.0126953-.0761719-.0185547-.1210938-.0185547zm-.7255859-.2763672h.0097656z" fill="#2043dd"/></g></g><g><path d="m51.7160454 38.513237c-.0878906 0-.1757813-.0229492-.2558594-.0703125l-26.0908203-15.5043945c-.1269531-.0751953-.2138672-.2036133-.2373047-.3496094-.0244141-.1459961.0175781-.2949219.1142578-.4067383.2851563-.3295898.5556641-.5664063.828125-.7231445l9.6367188-5.6015615c.6015625-.3476563 1.1884766-.3852539 1.6582031-.1064453l26.0849609 15.5014639c.2353516.1401367.3144531.4448242.1757813.6821289-.1376953.237793-.4433594.3178711-.6806641.1806641-.1103516-.0625-.3476563-.050293-.6328125.1186523l-9.6425781 5.5922852c-.1806641.1054688-.3710938.2744141-.5810547.515625-.0976562.1123046-.2363281.1713866-.3769531.1713866zm-25.2744141-16.1005859 25.1875 14.9672852c.1816406-.1743164.3603516-.3125.5419922-.4179688 0-.0004883.0009766-.0004883.0009766-.0009766l9.5810547-5.5561523-24.8955079-14.7944336c-.1386719-.0830078-.3759766-.043457-.6455078.1118164l-9.6367188 5.6020508c-.0439452.0253906-.0878905.0546875-.133789.0883789z" fill="#2043dd"/></g><g><g><g><g><path d="m30.4709282 62.9180222c-.2958984 0-.5693359-.0893555-.8007813-.2680664-.5537109-.4257813-.7265625-1.2548828-.4628906-2.2182617l2.7792969-10.2871094c.2666016-.9863281.9443359-1.9169922 1.7255859-2.3710938l9.640625-5.5976563v.0004883c.4941406-.2861328 1.0009766-.3652344 1.4228516-.21875.3613281.1240234.6455078.4042969.8007813.7900391l2.828125 7.0322266c.4902344 1.2294998-.3574219 3.2070313-1.7119141 3.9936523l-15.2480469 8.8535156c-.3339844.1938477-.6660156.2910157-.9736328.2910157zm13.8583984-20.0332032c-.1328125 0-.2988281.0537109-.4746094.1557617v.0004883l-9.640625 5.5976563c-.5478516.3178711-1.0673828 1.0444336-1.2626953 1.7666016l-2.7792969 10.2885742c-.1689453.6171875-.0673828 1.0288086.1074219 1.1635742.1376953.1054688.3789063.0693359.6630859-.0952148l15.2480469-8.8540039c.9794922-.5683594 1.5634766-2.059082 1.2851563-2.7568359l-2.8271484-7.0307617c-.0703125-.1733398-.1660156-.206543-.1982422-.2172852-.0361328-.0126954-.0761719-.0185548-.1210938-.0185548zm-.7255859-.2763672h.0097656z" fill="#2043dd"/></g></g><g><g><path d="m30.0519829 62.8076706c-.0859375 0-.1728516-.0219727-.2519531-.0683594-.0048828-.0029297-.0107422-.0058594-.015625-.0092773l-26.073242-15.5073242c-.6445313-.3769531-.8730469-1.2607422-.5927734-2.3041992l2.7792966-10.2788087c.1523438-.5722656.4707031-1.1591797.8945313-1.6513672.1582031-.184082.4248047-.2260742.6347656-.1030273l26.0908203 15.5043945c.1269531.0756836.2148438.2041016.2382813.3510742.0234375.1464844-.0195313.2958984-.1181641.4077148-.3291016.3769531-.5742188.8217773-.6894531 1.2524414-.0009766.0004883-.0009766.0004883-.0009766.0009766l-2.7792969 10.2915039c-.1738281.6499023-.0546875 1.0654297.1308594 1.1796875l.0087891.0048828c.2363281.140625.3144531.4462891.1748047.6835938-.0927735.1582032-.2597657.2460938-.4306641.2460938zm-22.7548828-28.8359375c-.2001953.2963867-.3505859.6162109-.4335938.9272461l-2.7802734 10.2797851c-.175781.6547852-.0527344 1.0722656.1357422 1.1826172l24.8691406 14.7910156c.0097656-.2270508.0478516-.4682617.1142578-.71875l2.7792969-10.2915039c.109375-.40625.2939453-.8061523.5419922-1.1796875zm25.1679687 16.2998047h.0097656z" fill="#2043dd"/></g><g><path d="m33.2619438 49.3193893c-.0878906 0-.1757813-.0229492-.2558594-.0703125l-26.0908203-15.5043945c-.1269531-.0751953-.2138672-.203125-.2373047-.3486328-.0244141-.1459961.0175781-.2949219.1142578-.4067383.2822266-.3291016.5537109-.565918.828125-.7241211l9.6357422-5.6015625c.6005859-.3476563 1.1894531-.3852539 1.6591797-.1064453l26.0849609 15.5014648c.2353516.1401367.3144531.4448242.1757813.6821289-.1386719.237793-.4443359.3183594-.6806641.1806641-.1132813-.0629883-.3505859-.0507813-.6337891.1191406l-9.6416016 5.5917969c-.1796875.1044922-.3701172.2734375-.5810547.515625-.0976561.1123047-.236328.1713867-.376953.1713867zm-25.2734375-16.1005859 25.1865234 14.9672852c.1816406-.1748047.3613281-.3129883.5419922-.418457.0009766 0 .0009766-.0004883.0009766-.0004883l9.5810547-5.5561523-24.8955078-14.7944337c-.140625-.0834961-.3759766-.043457-.6464844.1123047l-9.6357422 5.6015625c-.0429687.0253906-.0878906.0546875-.1328125.0883789z" fill="#2043dd"/></g></g></g></g></g><g><path d="m39.4491234 30.9816284c.1436157-.5350475.4377937-1.0411396.796833-1.452137l-26.0905771-15.5046005c-.3547354.4113302-.6479216.9213343-.7912054 1.4553814l-2.7786512 10.2779465c-.2303133.8586864-.0542688 1.4993935.3659868 1.7447433l26.0849514 15.5149174c-.4202576-.2453499-.5966339-.8859749-.3659897-1.7447433z" fill="#fff"/></g><g><path d="m39.4491234 30.9816284c.1436157-.5350475.4377937-1.0411396.796833-1.452137l-26.0905771-15.5046005c-.3547354.4113302-.6479216.9213343-.7912054 1.4553814l-2.7786512 10.2779465c-.2303133.8586864-.0542688 1.4993935.3659868 1.7447433l26.0849514 15.5149174c-.4202576-.2453499-.5966339-.8859749-.3659897-1.7447433z" fill="#fff"/></g><g><path d="m36.6659966 41.271843c-.2299805.8599854-.0500488 1.5.3701172 1.75l-26.0800782-15.5200196c-.4199219-.2399902-.5998535-.8800049-.369873-1.7399902l2.7797852-10.2800283c.1401367-.539978.4301758-1.0499878.7900391-1.4599609l5.6401367 3.3499746c-.4899902 1.0499878-.75 2.1900024-.75 3.3900146 0 4.8400269 4.3100586 8.7700195 9.6298828 8.7700195 2.7399902 0 5.2199707-1.0500488 6.9699707-2.7300415l4.6000977 2.7300415c-.3601074.4099731-.6501465.9099731-.8000488 1.4499512z" fill="#e9ecff"/></g><g><path d="m40.9534416 28.9096661 9.6370926-5.5888252c.4338226-.2589111.8537445-.2861996 1.1383286-.122633l-26.0849495-15.5012722c-.2978191-.1772118-.7045078-.1500058-1.1518993.1089892l-9.6370907 5.602385c-.2511606.1443491-.4841213.3664875-.699544.616581l26.0905762 15.5046005c.2170763-.2486801.4520235-.4708175.7074861-.6198253z" fill="#fff"/></g><g><path d="m40.9534416 28.9096661 9.6370926-5.5888252c.4338226-.2589111.8537445-.2861996 1.1383286-.122633l-26.0849495-15.5012722c-.2978191-.1772118-.7045078-.1500058-1.1518993.1089892l-9.6370907 5.602385c-.2511606.1443491-.4841213.3664875-.699544.616581l26.0905762 15.5046005c.2170763-.2486801.4520235-.4708175.7074861-.6198253z" fill="#fff"/></g><g><path d="m37.0363579 43.5181198c-.0859375 0-.1728516-.0219727-.2519531-.0683594-.0058594-.0029297-.0107422-.0058594-.015625-.0087891l-26.0732422-15.5083007c-.6435547-.3764648-.8720703-1.2597656-.59375-2.3032227l2.7802734-10.2797842c.1523438-.5722656.4707031-1.1591797.8945313-1.6513672.1582031-.184082.4257813-.2260742.6347656-.1030273l26.0908203 15.5043936c.1269531.0756836.2148438.2041016.2382813.3510742.0234375.1464844-.0195313.2958984-.1181641.4077148-.3291016.3769531-.5742188.8217773-.6894531 1.2524414-.0009766.0004883-.0009766.0004883-.0009766.0009766l-2.7792969 10.2915039c-.1748047.6508789-.0537109 1.0673828.1328125 1.1806641l.0068359.0043945c.2363281.140625.3144531.4462891.1748047.6835938-.0927734.1582031-.2597656.2460937-.430664.2460937zm-22.7548828-28.8364248c-.2001953.2963867-.3505859.6162109-.4335938.9272461l-2.7802734 10.2797842c-.1748047.6552734-.0517578 1.0727539.1357422 1.1826172l24.8691406 14.7915039c.0097656-.2275391.0478516-.46875.1142578-.7192383l2.7802734-10.2924805c.1083984-.4057617.2929688-.8056641.5410156-1.1787109zm25.1679687 16.2998037h.0097656z" fill="#2043dd"/></g><g><path d="m37.0363579 43.5181198c-.0859375 0-.1728516-.0219727-.2519531-.0683594-.0058594-.0029297-.0107422-.0058594-.015625-.0087891l-26.0732422-15.5083007c-.6435547-.3764648-.8720703-1.2597656-.59375-2.3032227l2.7802734-10.2797842c.1523438-.5722656.4707031-1.1591797.8945313-1.6513672.1582031-.184082.4257813-.2260742.6347656-.1030273l26.0908203 15.5043936c.1269531.0756836.2148438.2041016.2382813.3510742.0234375.1464844-.0195313.2958984-.1181641.4077148-.3291016.3769531-.5742188.8217773-.6894531 1.2524414-.0009766.0004883-.0009766.0004883-.0009766.0009766l-2.7792969 10.2915039c-.1748047.6508789-.0537109 1.0673828.1328125 1.1806641l.0068359.0043945c.2363281.140625.3144531.4462891.1748047.6835938-.0927734.1582031-.2597656.2460937-.430664.2460937zm-22.7548828-28.8364248c-.2001953.2963867-.3505859.6162109-.4335938.9272461l-2.7802734 10.2797842c-.1748047.6552734-.0517578 1.0727539.1357422 1.1826172l24.8691406 14.7915039c.0097656-.2275391.0478516-.46875.1142578-.7192383l2.7802734-10.2924805c.1083984-.4057617.2929688-.8056641.5410156-1.1787109zm25.1679687 16.2998037h.0097656z" fill="#2043dd"/></g><g><path d="m40.9534416 28.9096661 9.6370926-5.5888252c.4338226-.2589111.8537445-.2861996 1.1383286-.122633l-26.0849495-15.5012722c-.2978191-.1772118-.7045078-.1500058-1.1518993.1089892l-9.6370907 5.602385c-.2511606.1443491-.4841213.3664875-.699544.616581l26.0905762 15.5046005c.2170763-.2486801.4520235-.4708175.7074861-.6198253z" fill="#a5b2ff"/></g><g><path d="m51.7260551 23.2018356c-.2800293-.1699829-.6999512-.1400146-1.1398926.1199951l-9.630127 5.5900269c-.2600098.1499634-.4899902.3699951-.7099609.6199951l-26.0900878-15.5100088c.2099609-.25.4501953-.4700317.7001953-.6099854l9.6398926-5.6100469c.4399414-.25.8498535-.2799683 1.1499023-.0999756l1.1101074.6599736c-.380127.9000244-.5800781 1.8900146-.5800781 2.9200439 0 4.3999634 3.7399902 7.9699697 8.3601074 7.9699697 2.4399414 0 4.6499023-1 6.1799316-2.5999756z" fill="#8f9fff"/></g><g><path d="m40.2463188 30.0293503c-.0878906 0-.1757813-.0229492-.2558594-.0703125l-26.0908203-15.5043936c-.1269531-.0751953-.2138672-.203125-.2373047-.3486328-.0244141-.1459961.0175781-.2949219.1142578-.4067383.2822266-.3291016.5537109-.565918.828125-.7241211l9.6367188-5.601563c.6005859-.3481445 1.1884766-.3857422 1.6582031-.1064453l26.0849609 15.5014648c.2353516.1401367.3144531.4448242.1757813.6821289-.1376953.2373047-.4433594.3188477-.6806641.1806641-.1132813-.0639648-.3505859-.0507813-.6337891.1191406l-9.6416016 5.5917969c-.1796875.1044922-.3701172.2734375-.5810547.515625-.0976561.1123042-.236328.1713863-.376953.1713863zm-25.2734375-16.100585 25.1865234 14.9672842c.1816406-.1748047.3613281-.3129883.5419922-.418457.0009766 0 .0009766-.0004883.0009766-.0004883l9.5810547-5.5561523-24.8955078-14.7944327c-.1386719-.0834961-.3759766-.0439453-.6455078.1118164l-9.6367188 5.6020508c-.0429687.0253906-.0878906.0546875-.1328125.0883789z" fill="#2043dd"/></g><g><g><path d="m50.5878677 23.3183727c.6749039-.3918724 1.2734604-.2586002 1.5090675.3258209l2.8282623 7.0323486c.3928604.9839478-.3737144 2.7211933-1.4986343 3.374361l-15.2481689 8.8535995c-1.1162338.6481247-1.8987694-.1896553-1.5040436-1.6309013l2.7794342-10.2883682c.2315483-.8556652.8273964-1.6824512 1.493618-2.0692806z" fill="#fff"/></g></g><g><g><path d="m53.4260063 34.0518112-15.25 8.8500366c-1.1098633.6499634-1.8999023-.1900024-1.5-1.6300049l1.3901367-5.1600342c.7199707.25 1.5.3800049 2.2998047.3800049 3.920166 0 7.1000977-3.0700073 7.1000977-6.8499756 0-1.4100342-.4399414-2.7200317-1.1999512-3.8099976l4.3200684-2.5100098c.6799316-.4000244 1.2797852-.2600098 1.5097656.3200073l2.8300781 7.0299683c.3901367.9900514-.369873 2.7300416-1.5 3.380005z" fill="#e9ecff"/></g></g><g><g><path d="m37.4553032 43.6279831c-.2958984 0-.5693359-.0893555-.8007813-.2680664-.5537109-.4257813-.7265625-1.2548828-.4628906-2.2182617l2.7792969-10.2866211c.2675781-.987793.9453125-1.918457 1.7255859-2.371582l9.640625-5.5976563v.0004883c.4941406-.2871094 1.0009766-.3647461 1.4228516-.21875.3613281.1240234.6455078.4042969.8007813.7900391l2.828125 7.0322266c.4902344 1.2294922-.3574219 3.206543-1.7109375 3.9931641l-15.2490235 8.8540038c-.3339844.1938476-.6660156.2910156-.9736328.2910156zm13.8583984-20.0332031c-.1328125 0-.2988281.0537109-.4746094.1557617v.0004883l-9.640625 5.5976563c-.546875.3173828-1.0664063 1.0444336-1.2626953 1.7675781l-2.7792968 10.2875976c-.1689453.6171875-.0673828 1.0288086.1074219 1.1635742.1367188.1069336.3789063.0693359.6630859-.0952148l15.2490234-8.8540039c.9785156-.5683594 1.5625-2.059082 1.2841797-2.7568359l-2.8271484-7.0307617c-.0703125-.1733398-.1660156-.206543-.1982422-.2172852-.0361328-.0126954-.0761719-.0185547-.1210938-.0185547zm-.7255859-.2763672h.0097656z" fill="#2043dd"/></g></g></g></svg>