<svg id="Layer_3" height="512" viewBox="0 0 64 64" width="512" xmlns="http://www.w3.org/2000/svg" data-name="Layer 3"><path d="m48 58-2.997-10h-.002l13.999-22h.004l2.996 8-13.997 24z" fill="#f6b940"/><path d="m59 26-13.999 22h-14l13.999-22h14.004z" fill="#f4a93c"/><path d="m48 58-2.997-10h-14.003l-3 10z" fill="#fad85d"/><path d="m22 58-2.997-10h-.002l13.999-22h.004l2.996 8-13.997 24z" fill="#f4a93c"/><path d="m33 26-13.999 22h-14l13.999-22h14.004z" fill="#f6b940"/><path d="m22 58-2.997-10h-14.003l-3 10z" fill="#fad85d"/><path d="m36 48-2.997-10h-.002l13.999-22h.004l2.996 8-13.997 24z" fill="#f6b940"/><path d="m47 16-13.999 22h-14l13.999-22h14.004z" fill="#fad85d"/><g fill="#fce797"><path d="m36 48-2.997-10h-14.003l-3 10z"/><path d="m14 27a6 6 0 0 0 -6 6 6 6 0 0 0 -6-6 6 6 0 0 0 6-6 6 6 0 0 0 6 6z"/><path d="m62 12a6 6 0 0 0 -6 6 6 6 0 0 0 -6-6 6 6 0 0 0 6-6 6 6 0 0 0 6 6z"/><path d="m29 15a6 6 0 0 0 -6 6 6 6 0 0 0 -6-6 6 6 0 0 0 6-6 6 6 0 0 0 6 6z"/></g><path d="m59.941 25.649a1 1 0 0 0 -.936-.649h-8.43l.289-.5a1 1 0 0 0 .073-.855l-3-8a1 1 0 0 0 -.932-.645h-14.005a1 1 0 0 0 -.844.463l-6.069 9.537h-7.087a1 1 0 0 0 -.844.463l-14 22a1.008 1.008 0 0 0 -.114.25l-3 10a1 1 0 0 0 .958 1.287h20a1 1 0 0 0 .8-.4.9.9 0 0 0 .045-.105l.02.012 5.545-9.507h1.246l-2.614 8.713a1 1 0 0 0 .958 1.287h20a1 1 0 0 0 .8-.4.9.9 0 0 0 .045-.105l.02.012 14-24a1 1 0 0 0 .073-.855zm-2.762 1.351-12.726 20h-6.709l11.665-20zm-39.834 20 2.4-8h12.514l2.4 8zm31.555-23.094-12.6 21.604-2.207-7.359 12.677-19.926zm-15.351-6.906h11.63l-12.725 20h-11.631zm-14 10h5.265l-6.658 10.463a1.008 1.008 0 0 0 -.114.25l-2.786 9.287h-8.433zm-16.204 30 2.4-8h12.514l2.4 8zm18.955-1.491-1.953-6.509h5.747zm7.044 1.491 2.4-8h12.515l2.4 8zm18.956-1.491-2.208-7.359 12.678-19.926 2.13 5.682z"/><path d="m2 28a5.006 5.006 0 0 1 5 5 1 1 0 0 0 2 0 5.006 5.006 0 0 1 5-5 1 1 0 0 0 0-2 5.006 5.006 0 0 1 -5-5 1 1 0 0 0 -2 0 5.006 5.006 0 0 1 -5 5 1 1 0 0 0 0 2zm6-3.4a7.066 7.066 0 0 0 2.4 2.4 7.066 7.066 0 0 0 -2.4 2.4 7.066 7.066 0 0 0 -2.4-2.4 7.066 7.066 0 0 0 2.4-2.4z"/><path d="m50 13a5.006 5.006 0 0 1 5 5 1 1 0 0 0 2 0 5.006 5.006 0 0 1 5-5 1 1 0 0 0 0-2 5.006 5.006 0 0 1 -5-5 1 1 0 0 0 -2 0 5.006 5.006 0 0 1 -5 5 1 1 0 0 0 0 2zm6-3.4a7.066 7.066 0 0 0 2.4 2.4 7.066 7.066 0 0 0 -2.4 2.4 7.066 7.066 0 0 0 -2.4-2.4 7.066 7.066 0 0 0 2.4-2.4z"/><path d="m17 16a5.006 5.006 0 0 1 5 5 1 1 0 0 0 2 0 5.006 5.006 0 0 1 5-5 1 1 0 0 0 0-2 5.006 5.006 0 0 1 -5-5 1 1 0 0 0 -2 0 5.006 5.006 0 0 1 -5 5 1 1 0 0 0 0 2zm6-3.4a7.066 7.066 0 0 0 2.4 2.4 7.066 7.066 0 0 0 -2.4 2.4 7.066 7.066 0 0 0 -2.4-2.4 7.066 7.066 0 0 0 2.4-2.4z"/></svg>