<svg id="Capa_1" enable-background="new 0 0 512 512" height="512" viewBox="0 0 512 512" width="512" xmlns="http://www.w3.org/2000/svg"><g><g><path d="m16.287 495.713c-11.716-11.716-11.716-30.711 0-42.426l387.112-387.112c11.716-11.716 30.711-11.716 42.426 0 11.716 11.716 11.716 30.711 0 42.426l-387.112 387.112c-11.715 11.716-30.71 11.716-42.426 0z" fill="#d99668"/></g><g><path d="m445.826 66.175c-11.716-11.716-30.711-11.716-42.426 0l-219.204 219.203c11.716-11.716 30.711-11.716 42.426 0 11.716 11.716 11.716 30.711 0 42.426l219.203-219.203c11.716-11.716 11.716-30.711.001-42.426z" fill="#d18a56"/></g><g><path d="m158.086 7.508c-11.477-.413-15.787 14.836-5.864 20.619 56.262 32.788 121.299 83.632 184.659 146.992s114.204 128.397 146.992 184.659c5.783 9.923 21.032 5.613 20.619-5.864-3.153-87.664-38.173-174.392-105.094-241.312-66.92-66.92-153.648-101.941-241.312-105.094z" fill="#70695b"/></g><g><path d="m422.986 223.747c12.631-12.631 30.628-16.62 46.653-11.978-17.136-35.856-40.539-69.465-70.241-99.166-29.702-29.702-63.311-53.105-99.166-70.241 4.642 16.026.653 34.022-11.978 46.653-8.554 8.554-19.569 13.139-30.765 13.771 26.251 21.669 52.966 45.908 79.392 72.334s50.664 53.141 72.334 79.392c.632-11.197 5.217-22.212 13.771-30.765z" fill="#635d50"/></g><g><path d="m339.76 214.667-42.426-42.426c-7.81-7.81-7.81-20.474 0-28.284l70.711-70.711c7.81-7.81 20.474-7.81 28.284 0l42.426 42.426c7.81 7.81 7.81 20.474 0 28.284l-70.711 70.711c-7.811 7.81-20.474 7.81-28.284 0z" fill="#80786a"/></g><g><path d="m332.689 179.312 70.711-70.711c7.81-7.81 20.474-7.81 28.284 0l-35.355-35.355c-7.81-7.81-20.474-7.81-28.284 0l-70.711 70.711c-7.81 7.81-7.81 20.474 0 28.284l35.355 35.355c-7.811-7.811-7.811-20.474 0-28.284z" fill="#70695b"/></g><g><path d="m279.656 281.842-49.499-49.499c-5.858-5.858-5.858-15.355 0-21.213 5.858-5.858 15.355-5.858 21.213 0l35.356 14.143 14.143 35.356c5.858 5.858 5.858 15.355 0 21.213-5.858 5.858-15.356 5.858-21.213 0z" fill="#ffe4c2"/></g><g><path d="m300.869 260.629-49.499-49.499c-5.858-5.858-5.858-15.355 0-21.213 5.858-5.858 15.355-5.858 21.213 0l49.499 49.499c5.858 5.858 5.858 15.355 0 21.213-5.858 5.858-15.355 5.858-21.213 0z" fill="#fff2de"/></g><g><path d="m286.726 225.273c5.858-5.858 15.355-5.858 21.213 0l-35.356-35.356c-5.858-5.858-15.355-5.858-21.213 0s-5.858 15.355 0 21.213l35.356 35.356c-5.858-5.858-5.858-15.355 0-21.213z" fill="#ffe4c2"/></g><path d="m499.136 269.508c-1.095-3.994-5.216-6.346-9.216-5.251-3.995 1.095-6.346 5.221-5.251 9.216 7.198 26.266 11.347 53.421 12.328 80.711.085 2.357-1.54 3.184-2.517 3.466-.816.236-2.848.547-4.128-1.647-26.612-45.665-64.052-95.531-108.494-144.543l49.584-49.584c18.473 25.735 33.352 53.802 44.259 83.551 1.114 3.037 3.985 4.92 7.043 4.92.857 0 1.729-.148 2.581-.46 3.889-1.426 5.886-5.734 4.46-9.624-11.658-31.797-27.661-61.752-47.597-89.133l1.87-1.87c8.883-8.884 10.399-22.38 4.562-32.847l2.508-2.508c14.621-14.621 14.621-38.412 0-53.032-7.083-7.083-16.5-10.984-26.517-10.984s-19.434 3.901-26.517 10.983l-2.509 2.509c-10.466-5.836-23.963-4.321-32.847 4.562l-1.87 1.87c-59.089-43.042-128.971-67.155-202.513-69.8-8.629-.31-16.015 5.05-18.414 13.336-2.415 8.344 1.003 16.887 8.504 21.258 44.65 26.022 93.489 62.687 141.596 106.265-3.927 4.869-6.065 10.883-6.065 17.227 0 4.772 1.214 9.355 3.484 13.407l-11.445 11.445c-3.974-3.187-8.87-4.928-14.038-4.928-6.011 0-11.661 2.341-15.909 6.59-3.961 3.96-6.237 9.142-6.531 14.693-5.346.29-10.609 2.447-14.683 6.521-8.174 8.176-8.722 21.123-1.662 29.949l-149.699 149.698c-2.929 2.93-2.929 7.678 0 10.607 1.465 1.464 3.385 2.196 5.304 2.196s3.839-.732 5.304-2.196l149.593-149.594 31.819 31.819-212.104 212.104c-4.249 4.249-9.899 6.59-15.909 6.59s-11.66-2.341-15.909-6.591c-8.773-8.772-8.773-23.046 0-31.818l41.297-41.297c2.929-2.93 2.929-7.678 0-10.607-2.93-2.928-7.678-2.928-10.607 0l-41.297 41.297c-7.083 7.082-10.984 16.499-10.984 26.516s3.901 19.434 10.983 26.517c7.083 7.082 16.5 10.983 26.517 10.983s19.434-3.901 26.517-10.983l212.208-212.207c3.974 3.186 8.87 4.926 14.037 4.926 6.011 0 11.661-2.34 15.911-6.59 4.077-4.077 6.234-9.344 6.521-14.693 5.348-.288 10.615-2.445 14.692-6.52 8.174-8.175 8.723-21.121 1.664-29.948l11.452-11.452c4.15 2.314 8.773 3.479 13.4 3.479 6.109 0 12.216-2.02 17.227-6.054 43.581 48.11 80.247 96.951 106.264 141.597 3.437 5.896 9.45 9.27 15.92 9.27 1.76 0 3.554-.249 5.339-.766 8.286-2.398 13.646-9.799 13.336-18.414-1.024-28.448-5.348-56.755-12.852-84.137zm-74.524-204.62c6.01 0 11.66 2.341 15.909 6.591 8.773 8.772 8.773 23.046 0 31.818l-1.767 1.767-31.819-31.818 1.768-1.768c4.249-4.249 9.9-6.59 15.909-6.59zm-270.261-47.368c.283-.977 1.117-2.583 3.466-2.517 69.744 2.509 136.05 25.148 192.309 65.553l-49.584 49.584c-49.009-44.439-98.875-81.878-144.543-108.494-2.196-1.278-1.885-3.312-1.648-4.126zm132.376 175.934 10.606-10.606 31.819 31.819-10.606 10.606zm8.838 83.084c-2.926 2.926-7.685 2.924-10.606 0l-49.499-49.499c-2.925-2.924-2.924-7.682-.001-10.605 2.924-2.923 7.677-2.923 10.603-.005.002.002.003.003.004.005l49.499 49.499c2.925 2.923 2.925 7.681 0 10.605zm21.214-21.213c-2.926 2.924-7.685 2.924-10.606 0l-49.5-49.499c-1.416-1.416-2.196-3.3-2.196-5.303s.78-3.887 2.197-5.304c1.416-1.416 3.3-2.196 5.303-2.196s3.887.78 5.303 2.197l49.499 49.499c2.924 2.925 2.924 7.682 0 10.606zm28.284-45.962-42.427-42.427c-4.874-4.873-4.874-12.804 0-17.677l70.71-70.711c2.438-2.438 5.638-3.655 8.84-3.655 3.2 0 6.401 1.219 8.838 3.655l42.427 42.427c4.874 4.873 4.874 12.804 0 17.677l-70.711 70.711c-4.873 4.874-12.803 4.875-17.677 0z"/></g></svg>