<svg clip-rule="evenodd" fill-rule="evenodd" stroke-linejoin="round" stroke-miterlimit="2" viewBox="0 0 510 510" xmlns="http://www.w3.org/2000/svg"><g><g><path d="m468.774 178.776v311.224c0 1.326-.526 2.598-1.464 3.536-.938.937-2.209 1.464-3.536 1.464h-66.192v-349.543l68.134 28.712c1.853.781 3.058 2.596 3.058 4.607z" fill="#e4e8eb"/><path d="m41.226 178.776c0-2.011 1.205-3.826 3.058-4.607l68.134-28.712v349.543h-66.192c-1.327 0-2.598-.527-3.536-1.464-.938-.938-1.464-2.21-1.464-3.536z" fill="#e4e8eb"/><path d="m106.272 98.489h297.457v313.023h-297.457z" fill="#636c77"/><path d="m255 27.935 148.728 70.554h-297.456z" fill="#cad0d7"/><g fill="#a9b0bb"><path d="m313.913 19.088v32.706c0 2.256-1.832 4.088-4.088 4.088h-109.65c-2.256 0-4.088-1.832-4.088-4.088v-32.706c0-2.256 1.832-4.088 4.088-4.088h109.65c2.256 0 4.088 1.832 4.088 4.088z"/><path d="m428.681 138.465v13.985c0 3.859-3.133 6.992-6.992 6.992h-333.378c-3.859 0-6.992-3.133-6.992-6.992v-13.985c0-3.859 3.133-6.992 6.992-6.992h333.378c3.859 0 6.992 3.133 6.992 6.992z"/><path d="m417.262 404.989v43.045h-324.524v-43.045c0-2.652 1.054-5.195 2.929-7.071 1.875-1.875 4.419-2.929 7.071-2.929h304.524c2.652 0 5.196 1.054 7.071 2.929 1.875 1.876 2.929 4.419 2.929 7.071z"/></g><path d="m387.041 495c-1.907 0-3.648-1.084-4.488-2.796l-11.896-24.22c-.841-1.711-2.581-2.796-4.488-2.796h-222.338c-1.907 0-3.647 1.085-4.488 2.796l-11.896 24.22c-.84 1.712-2.581 2.796-4.488 2.796h-41.137c-2.762 0-5-2.239-5-5v-56.966c0-2.762 2.238-5 5-5h346.356c2.762 0 5 2.238 5 5v56.966c0 2.761-2.238 5-5 5z" fill="#cad0d7"/><path d="m297.443 262.161c6.556-50.791-6.528-72.291-50.066-108.257-3.856 26.808-8.101 38.738-28.381 63.138-5.623-9.994-10.718-14.017-23.857-19.083-11.121 29.216-23.008 45.153-28.632 77.389-9.186 52.809 16.174 101.038 74.216 101.762 74.425.933 112.803-77.413 87.693-142.206-6.627 16.084-17.62 24.8-30.973 27.257z" fill="#fdcd56"/><path d="m276.824 304.935c-3.971 0-7.781 1.578-10.589 4.387-2.808 2.808-4.386 6.617-4.386 10.589v15.418c0 3.972 1.578 7.781 4.386 10.59 2.808 2.808 6.618 4.386 10.589 4.386h19.399v26.815h-96.093v-26.815h19.399c3.972 0 7.781-1.578 10.59-4.386 2.808-2.809 4.386-6.618 4.386-10.59v-15.418c0-3.972-1.578-7.781-4.386-10.589-2.809-2.809-6.618-4.387-10.59-4.387h-19.399v-26.815h96.093v26.815z" fill="#f76c82"/></g><path d="m122.959 502h-76.733c-3.183 0-6.235-1.264-8.486-3.515-2.25-2.25-3.514-5.302-3.514-8.485v-311.224c0-4.827 2.892-9.184 7.34-11.058l32.826-13.833c-.048-.472-.073-.951-.073-1.435v-13.985c0-7.723 6.27-13.992 13.992-13.992h10.961v-25.984c0-2.848 1.7-5.298 4.14-6.392l85.675-40.642v-32.367c0-6.12 4.968-11.088 11.088-11.088h109.65c6.12 0 11.088 4.968 11.088 11.088v32.367l85.675 40.642c2.44 1.094 4.14 3.544 4.14 6.392v25.984h10.961c7.722 0 13.992 6.269 13.992 13.992v13.985c0 .484-.025.963-.073 1.435l32.826 13.833c4.448 1.874 7.34 6.231 7.34 11.058v311.224c0 3.183-1.264 6.235-3.514 8.485-2.251 2.251-5.303 3.515-8.486 3.515h-76.733c-4.576 0-8.754-2.602-10.771-6.71l-11.347-23.102h-219.846l-11.347 23.102c-2.017 4.108-6.195 6.71-10.771 6.71zm-39.895-336.577-34.838 14.681v307.896h21.596v-54.966c0-6.628 5.372-12 12-12h3.916v-16.045c0-4.508 1.791-8.832 4.979-12.021 2.358-2.358 5.338-3.952 8.555-4.622v-221.904h-10.961c-1.855 0-3.627-.362-5.247-1.019zm30.208-40.95h283.456c0-7.696 0-18.984 0-18.984h-283.456zm313.664 40.95c-1.62.657-3.392 1.019-5.247 1.019h-10.961v221.904c3.217.67 6.197 2.264 8.555 4.622 3.188 3.189 4.979 7.513 4.979 12.021v16.045h3.916c6.628 0 12 5.372 12 12v54.966h21.596v-307.896zm-30.208 1.019h-124.632c15.263 14.81 24.808 28.258 29.768 43.915 3.795 11.978 4.934 25.303 3.676 41.629 6.881-3.754 12.501-10.277 16.404-19.748 1.091-2.647 3.683-4.364 6.546-4.333 2.863.03 5.419 1.8 6.453 4.47 18.438 47.576 4.523 101.947-31.72 130.881v13.864c0 3.866-3.134 7-7 7h-96.093c-3.866 0-7-3.134-7-7v-6.736c-28.696-19.271-40.44-56.452-33.519-96.235l.001-.004c5.713-32.756 17.684-48.99 28.985-78.677.662-1.74 1.99-3.144 3.691-3.902 1.7-.759 3.632-.808 5.369-.139 10.863 4.189 16.907 7.833 21.846 13.8 11.027-14.332 15.616-24.417 18.634-38.785h-124.865v221.547h283.456zm-140.187-14h165.14v-13.969h-333.362v13.969h152.212c.491-2.3 2.109-4.212 4.323-5.068 2.36-.912 5.03-.479 6.981 1.133 1.609 1.329 3.177 2.64 4.706 3.935zm-119.181-60.953h235.28l-60.72-28.805c-.679.13-1.379.198-2.095.198h-109.65c-.716 0-1.416-.068-2.095-.198zm-37.622 329.545h310.524v-16.045c0-.795-.316-1.559-.879-2.121-.562-.563-1.325-.879-2.121-.879h-304.524c-.796 0-1.559.316-2.121.879-.563.562-.879 1.326-.879 2.121zm201.918-75.144c22.968-23.088 32.6-59.224 24.777-93.591-7.404 9.371-16.946 14.764-27.723 16.746-2.199.405-4.459-.266-6.082-1.804s-2.413-3.759-2.127-5.976c2.463-19.083 2.107-33.77-1.983-46.679-5.366-16.936-17.084-30.679-36.232-47.358-3.878 20.255-9.887 32.608-27.907 54.288-1.472 1.771-3.721 2.705-6.015 2.497s-4.339-1.531-5.469-3.539c-3.716-6.604-7.228-10.036-13.893-13.266-10.139 24.632-20.515 40.201-25.598 69.341-5.211 29.957 1.259 58.463 19.726 75.969v-2.213c0-3.866 3.134-7 7-7h19.399c2.115 0 4.144-.84 5.64-2.336 1.495-1.496 2.336-3.524 2.336-5.64v-15.418c0-2.115-.841-4.144-2.336-5.64-1.496-1.495-3.525-2.336-5.64-2.336h-19.399c-3.866 0-7-3.134-7-7v-26.815c0-3.866 3.134-7 7-7h96.093c3.866 0 7 3.134 7 7v26.815c0 3.866-3.134 7-7 7h-19.399c-2.115 0-4.144.841-5.639 2.336-1.496 1.496-2.336 3.525-2.336 5.64v15.418c0 2.116.84 4.144 2.336 5.64 1.495 1.496 3.524 2.336 5.639 2.336h19.399c2.192 0 4.149 1.008 5.433 2.585zm-98.569-323.89v26.882h103.826v-26.882zm159.153 220.972c-3.101-2.305-3.747-6.693-1.442-9.794 2.305-3.1 6.694-3.746 9.794-1.441 0 0 2.851 2.1 5.032 5.267 2.394 3.476 3.401 7.022 3.196 12.377-.162 4.213-1.813 9.656-4.814 13.993-2.55 3.686-4.807 5.217-6.983 6.337-1.413.728-2.913.827-4.764 2.992-2.083 2.437-2.156 5.515-2.156 5.515-.054 3.863-3.234 6.955-7.097 6.901-3.863-.053-6.955-3.234-6.901-7.097 0 0 .082-8.063 5.513-14.416 2.714-3.175 4.992-4.478 7.121-5.478 1.203-.564 2.383-.737 3.754-2.719 1.413-2.042 2.261-4.581 2.337-6.564.064-1.663.008-2.821-.736-3.9-.811-1.177-1.854-1.973-1.854-1.973zm-214.711-46.232c-3.838-.446-6.591-3.923-6.145-7.761.446-3.837 3.923-6.591 7.761-6.145 0 0 3.518.393 6.991 2.045 3.812 1.814 6.456 4.381 8.956 9.122 1.967 3.728 3.258 9.268 2.828 14.525-.366 4.467-1.555 6.921-2.879 8.979-.86 1.337-2.109 2.173-2.63 4.973-.585 3.152.89 5.854.89 5.854 1.885 3.372.677 7.641-2.695 9.526-3.372 1.884-7.641.677-9.525-2.696 0 0-3.961-7.025-2.434-15.241.763-4.108 2.084-6.374 3.429-8.305.759-1.09 1.694-1.83 1.891-4.232.202-2.475-.333-5.097-1.258-6.853-.777-1.472-1.404-2.447-2.588-3.01-1.29-.614-2.592-.781-2.592-.781zm177.951-8.169c3.54-11.014 15.604-13.367 15.604-13.367 3.799-.701 7.453 1.814 8.154 5.614.701 3.799-1.815 7.453-5.614 8.154 0 0-3.783.569-4.827 3.922-1.165 3.737-3.707 6.288-6.926 8.329-1.062.673-2.207 1.289-3.289 1.982-.525.337-1.141.583-1.416 1.178-1.401 3.034-1.38 3.614-1.38 7.326 0 6.691-4.745 12.11-4.745 12.11-2.572 2.882-7.001 3.134-9.883.561-2.883-2.572-3.134-7.001-.562-9.883 0 0 1.19-1.229 1.19-2.788 0-6.704.139-7.716 2.67-13.197 1.56-3.376 4.22-5.664 7.245-7.515.822-.502 1.666-.974 2.47-1.471.429-.265 1.132-.815 1.309-.955zm-241.658 299.429h37.891l11.347-23.102c2.017-4.107 6.195-6.71 10.771-6.71h222.338c4.576 0 8.754 2.603 10.771 6.71l11.347 23.102h37.891v-52.966h-342.356zm193.002-190.065h12.399v-12.815h-82.093v12.815h12.399c5.829 0 11.418 2.316 15.539 6.437s6.437 9.711 6.437 15.539v15.418c0 5.829-2.316 11.418-6.437 15.539-4.121 4.122-9.71 6.437-15.539 6.437h-12.399v12.815h82.093v-12.815h-12.399c-5.828 0-11.417-2.315-15.539-6.437-4.121-4.121-6.436-9.71-6.436-15.539v-15.418c0-5.828 2.315-11.418 6.436-15.539 4.122-4.121 9.711-6.437 15.539-6.437z"/></g></svg>