<svg id="Capa_1" enable-background="new 0 0 512 512" height="512" viewBox="0 0 512 512" width="512" xmlns="http://www.w3.org/2000/svg"><g><g><g><g><path d="m308.258 128.521h-104.516l-22.742 22.743v209.483l22.742 22.742h104.516l22.742-22.742 4.143-172.321-4.143-37.162z" fill="#b6efbb"/></g><g><path d="m360.829 136.13-29.829 15.134v210.003l30.273 15.359z" fill="#54e072"/></g><g><path d="m331 338.192v23.075l30.273 15.359-.043-23.097z" fill="#00d43d"/></g><g><path d="m360.829 136.13v240.496l45.171 22.692v-286.105z" fill="#00ca0f"/></g><g><path d="m383.235 362.618v-237.855l-22.406 11.367v240.496l45.171 22.692v-25.264z" fill="#00ae0c"/></g><g><path d="m106 113.213v286.105l45.135-22.899 5.482-53.696-5.482-186.503z" fill="#00ca0f"/></g><g><path d="m127.497 364.339v-240.168l-21.497-10.958v286.105l45.135-22.899v-24.072z" fill="#00ae0c"/></g><g><path d="m151.135 136.22v240.199l29.865-15.152v-210.003z" fill="#54e072"/></g><g><path d="m151.135 376.419 29.865-15.152v-24.165l-29.865 15.151z" fill="#00d43d"/></g><g><path d="m165.468 53.745 22.441 43.843h136.182l22.441-43.843z" fill="#00ca0f"/></g><g><path d="m200.299 76.588-11.692-22.843h-23.139l22.441 43.843h136.182l10.749-21z" fill="#00ae0c"/></g><g><path d="m187.909 97.588 15.833 30.933h104.516l15.833-30.933z" fill="#54e072"/></g><g><path d="m187.909 97.588 15.833 30.933h23.091l-15.833-30.933z" fill="#00d43d"/></g><g><path d="m323.617 413.757-135.179-.108-22.97 44.877h181.064z" fill="#00ca0f"/></g><g><path d="m198.659 436.931 11.909-23.264-22.13-.018-22.97 44.877h181.064l-11.053-21.595z" fill="#00ae0c"/></g><g><path d="m308.258 383.75h-104.516l-15.304 29.899 135.179.108z" fill="#54e072"/></g><g><path d="m210.911 413.649 15.304-29.899h-22.473l-15.304 29.899z" fill="#00d43d"/></g><g><path d="m165.468 53.745-59.468 59.468 43.973 22.309 37.936-37.934z" fill="#54e072"/></g><g><path d="m166.036 119.459-43.973-22.309-16.063 16.063 43.973 22.309z" fill="#00d43d"/></g><g><path d="m187.909 97.588-37.936 37.934 31.027 15.742 22.742-22.743z" fill="#b6efbb"/></g><g><path d="m196.495 135.522-30.863-15.658-15.659 15.658 31.027 15.742z" fill="#8ae897"/></g><g><path d="m346.532 53.745-22.441 43.843 37.936 37.934 43.973-22.309z" fill="#54e072"/></g><g><path d="m334.375 77.495-10.284 20.093 37.936 37.934 20.153-10.224z" fill="#00d43d"/></g><g><path d="m324.091 97.588-15.833 30.933 22.742 22.743 31.027-15.742z" fill="#b6efbb"/></g><g><path d="m323.812 143.258 15.556-30.394-15.277-15.276-15.833 30.933z" fill="#8ae897"/></g><g><path d="m150.065 376.962-44.065 22.356 59.468 59.468 22.672-44.293z" fill="#54e072"/></g><g><path d="m126.763 388.784-20.763 10.534 59.468 59.468 10.596-20.701z" fill="#00d43d"/></g><g><path d="m181 361.267-30.935 15.695 38.075 37.531 15.602-30.483z" fill="#b6efbb"/></g><g><path d="m195.022 375.419-14.022-14.152-30.935 15.695 14.242 14.039z" fill="#8ae897"/></g><g><path d="m331 361.267-22.742 22.743 15.57 30.419 37.445-37.803z" fill="#b6efbb"/></g><g><path d="m323.617 368.899-15.359 15.111 15.57 30.419 15.226-15.371z" fill="#8ae897"/></g><g><path d="m361.273 376.626-37.445 37.803 22.704 44.357 59.468-59.468z" fill="#54e072"/></g><g><path d="m340.296 397.961-16.468 16.468 22.704 44.357 16.468-16.468z" fill="#00d43d"/></g><g><path d="m60 401.773c0 27.74 22.487 50.227 50.227 50.227h9.773-9.773c-27.74 0-50.227 22.487-50.227 50.227v9.773-9.773c0-27.74-22.487-50.227-50.227-50.227h-9.773 9.773c27.74 0 50.227-22.487 50.227-50.227v-9.773z" fill="#feef8f"/></g><g><g><path d="m41.852 440.418c-8.701 7.231-19.881 11.582-32.079 11.582 27.74 0 50.227 22.487 50.227 50.227 0-12.198 4.351-23.378 11.582-32.079-5.075-13.743-15.987-24.655-29.73-29.73z" fill="#fee95d"/></g></g><g><path d="m467.097 8.19c0 20.276 16.437 36.713 36.713 36.713h8.19-8.19c-20.276 0-36.713 16.437-36.713 36.713v8.19-8.19c0-20.276-16.437-36.713-36.713-36.713h-8.19 8.19c20.277 0 36.713-16.437 36.713-36.713v-8.19z" fill="#fee95d"/></g><g><path d="m214.238 361.047-10.735-10.735v-221.491l.3-.3h-.061l-22.742 22.743v209.483l22.742 22.742h104.516l22.442-22.442z" fill="#8ae897"/></g><g><path d="m203.5 158.5h15v15h-15z" fill="#fff"/></g><g><path d="m233.5 158.5h15v15h-15z" fill="#fff"/></g></g></g><g><path d="m162.362 46.245-63.862 63.861v292.318l63.862 63.861h93.638v-15h-78.306l15.319-30.137h125.974l15.319 30.137h-33.306v15h48.638l63.862-63.861v-292.318l-63.862-63.862h-187.276zm170.095 95.869-15.036-15.036 8.651-16.901 23.336 23.336zm-152.914 0-16.952-8.6 23.336-23.336 8.651 16.901zm28.786-21.093-7.71-15.064h110.764l-7.71 15.064zm110.73-30.063h-126.118l-15.208-29.713h156.535zm-140.313 5.188-30.228 30.228-29.902-15.171 44.87-44.87zm-35.246 44.502v175.437h15v-167.826l15 7.61v200.302l-15 7.714v-32.863h-15v40.578l-30 15.429v-261.6zm5.12 245.185 30.178 30.178-15.333 30.165-44.891-44.891zm14.008-7.204 16.937-8.71 15.025 15.025-8.643 17.004zm44.221-2.64-18.349-18.348v-203.271l18.349-18.349h98.303l18.348 18.349v26.906h15v-25.408l15-7.61v215.626l-15-7.714v-160.34h-15v161.811l-18.349 18.349h-98.302zm110.561 8.954 15.025-15.025 16.937 8.71-23.318 23.318zm45.97.89 30.046 15.452-44.891 44.891-15.333-30.165zm5.12-14.234v-230.951l30-15.22v261.6zm-5.018-245.225-30.228-30.228 15.26-29.813 44.87 44.87zm-162.844 279.775 7.706-15.16h95.313l7.706 15.16z"/><path d="m271 451.286h15v15h-15z"/><path d="m67.5 401.773v-9.773h-15v9.773c0 23.56-19.167 42.727-42.727 42.727h-9.773v15h9.773c23.56 0 42.727 19.167 42.727 42.727v9.773h15v-9.773c0-23.56 19.167-42.727 42.727-42.727h9.773v-15h-9.773c-23.56 0-42.727-19.167-42.727-42.727zm-7.5 72.021c-5.161-9.082-12.712-16.633-21.794-21.794 9.082-5.161 16.633-12.712 21.794-21.794 5.161 9.082 12.712 16.633 21.794 21.794-9.082 5.161-16.633 12.712-21.794 21.794z"/><path d="m503.81 37.403c-16.108 0-29.213-13.105-29.213-29.213v-8.19h-15v8.19c0 16.108-13.104 29.213-29.212 29.213h-8.19v15h8.19c16.108 0 29.212 13.104 29.212 29.212v8.19h15v-8.19c0-16.108 13.105-29.212 29.213-29.212h8.19v-15zm-36.713 19.6c-3.21-4.773-7.328-8.89-12.101-12.101 4.773-3.21 8.89-7.328 12.101-12.101 3.21 4.773 7.328 8.89 12.101 12.101-4.773 3.211-8.89 7.328-12.101 12.101z"/></g></g></svg>