<?xml version="1.0" encoding="iso-8859-1"?>
<!-- Generator: Adobe Illustrator 19.0.0, SVG Export Plug-In . SVG Version: 6.00 Build 0)  -->
<svg version="1.1" id="Layer_1" xmlns="http://www.w3.org/2000/svg" xmlns:xlink="http://www.w3.org/1999/xlink" x="0px" y="0px"
	 viewBox="0 0 512 512" style="enable-background:new 0 0 512 512;" xml:space="preserve">
<polygon style="fill:#00C3FF;" points="401.369,59.323 110.63,59.323 8.016,161.937 256,452.676 503.983,161.937 "/>
<polygon style="fill:#87DAFF;" points="401.369,59.323 256,452.676 503.983,161.937 "/>
<polygon style="fill:#00AAF0;" points="110.63,59.323 148.557,161.937 8.016,161.937 "/>
<polygon style="fill:#87DAFF;" points="256,59.323 148.557,161.937 363.443,161.937 "/>
<polygon style="fill:#A5E9FF;" points="363.443,161.937 503.983,161.937 401.369,59.323 "/>
<polygon style="fill:#0096DC;" points="8.016,161.937 148.557,161.937 256,452.676 "/>
<path d="M509.651,156.269L407.038,53.655c-1.503-1.504-3.542-2.348-5.668-2.348H110.63c-2.126,0-4.165,0.844-5.668,2.348
	L2.348,156.269c-2.957,2.957-3.145,7.69-0.431,10.871l247.983,290.739c1.523,1.786,3.752,2.814,6.099,2.814
	c2.347,0,4.576-1.028,6.099-2.814l247.983-290.739C512.796,163.958,512.608,159.225,509.651,156.269z M107.449,73.842l29.593,80.078
	H27.37L107.449,73.842z M122.14,67.34h113.933l-84.097,80.734L122.14,67.34z M142.969,169.954l10.705,28.965
	c1.196,3.237,4.261,5.24,7.521,5.24c0.922,0,1.862-0.16,2.778-0.499c4.153-1.535,6.275-6.146,4.741-10.299l-8.651-23.407h155.796
	c4.427,0,8.017-3.589,8.017-8.017c0-4.427-3.589-8.017-8.017-8.017H169.037L256,70.436l97.961,94.042L256,429.55l-74.648-201.991
	c-1.535-4.153-6.147-6.275-10.299-4.741c-4.154,1.535-6.275,6.145-4.742,10.299l66.551,180.08L25.39,169.954H142.969z
	 M369.031,169.954h117.578L279.137,413.197L369.031,169.954z M374.957,153.92l8.651-23.407c1.535-4.153-0.588-8.764-4.741-10.299
	c-4.155-1.535-8.764,0.588-10.299,4.741l-8.544,23.118L275.926,67.34h113.933l-8.652,23.41c-1.535,4.153,0.588,8.764,4.741,10.299
	c0.917,0.338,1.854,0.499,2.778,0.499c3.26,0,6.325-2.003,7.521-5.24l8.303-22.466l80.079,80.078H374.957z"/>
<g>
</g>
<g>
</g>
<g>
</g>
<g>
</g>
<g>
</g>
<g>
</g>
<g>
</g>
<g>
</g>
<g>
</g>
<g>
</g>
<g>
</g>
<g>
</g>
<g>
</g>
<g>
</g>
<g>
</g>
</svg>
