<svg height="512" viewBox="0 0 64 64" width="512" xmlns="http://www.w3.org/2000/svg"><g id="_05-cook" data-name="05-cook"><path d="m1 60h62v3h-62z" fill="#da684e"/><path d="m9 27h46v4h-46z" fill="#da684e"/><path d="m9 35v4h-1.76a2 2 0 0 1 -1.79-1.11l-1.45-2.89z" fill="#423e35"/><path d="m60 35-1.45 2.89a2 2 0 0 1 -1.79 1.11h-1.76v-4z" fill="#423e35"/><path d="m9 31v4h-7a1 1 0 0 1 -1-1v-2a1 1 0 0 1 1-1z" fill="#a0968c"/><path d="m63 32v2a1 1 0 0 1 -1 1h-7v-4h7a1 1 0 0 1 1 1z" fill="#a0968c"/><path d="m55 53a4 4 0 0 1 -3.52 3.97 3.994 3.994 0 0 0 .52-1.97c0-2.21-1-6-2-6s-6 4.79-6 7a3.129 3.129 0 0 0 .14.96l-.14.04h-8.54a3.989 3.989 0 0 0 .54-2c0-2.21-3-6-4-6s-4 3.79-4 6a3.989 3.989 0 0 0 .54 2h-8.54l-.14-.04a3.129 3.129 0 0 0 .14-.96c0-2.21-5-7-6-7s-2 3.79-2 6a3.994 3.994 0 0 0 .52 1.97 4 4 0 0 1 -3.52-3.97v-22h46z" fill="#e8e4dc"/><path d="m58.491 57.5h-52.982a.474.474 0 0 0 -.509.429v2.071h1.019v-1.643h9.981v1.643h1v-1.643h14.5v1.643h1v-1.643h14.5v1.643h1v-1.643h9.981v1.643h1.019v-2.071a.474.474 0 0 0 -.509-.429z" fill="#635d50"/><path d="m3 60a2 2 0 0 0 2 2h54a2 2 0 0 0 2-2h2v3h-62v-3z" fill="#85392b"/><path d="m62 33h-4a1 1 0 0 1 -1-1v-1h-2v4h7a1 1 0 0 0 1-1v-2a1 1 0 0 1 -1 1z" fill="#80786a"/><path d="m55 35v4h1v-1a2 2 0 0 1 2-2h1.5l.5-1z" fill="#292721"/><path d="m2 33h4a1 1 0 0 0 1-1v-1h2v4h-7a1 1 0 0 1 -1-1v-2a1 1 0 0 0 1 1z" fill="#80786a"/><path d="m9 35v4h-1v-1a2 2 0 0 0 -2-2h-1.5l-.5-1z" fill="#292721"/><path d="m9 27h3a2 2 0 0 0 2 2h36a2 2 0 0 0 2-2h3v4h-46z" fill="#bd4c3d"/><path d="m38 55c-.677 0-1.346-.035-2.008-.095 0 .031.008.065.008.095a3.989 3.989 0 0 1 -.54 2h8.54l.14-.04a3.129 3.129 0 0 1 -.14-.96 2.692 2.692 0 0 1 .247-1z" fill="#d6cec1"/><path d="m53 55h-1a3.994 3.994 0 0 1 -.52 1.97 4 4 0 0 0 3.52-3.97 2 2 0 0 1 -2 2z" fill="#d6cec1"/><path d="m16 31h-7v22a4 4 0 0 0 3.52 3.97 3.994 3.994 0 0 1 -.52-1.97c0-2.21 1-6 2-6s6 4.79 6 7a3.129 3.129 0 0 1 -.14.96l.14.04h8.54a3.989 3.989 0 0 1 -.54-2 5.172 5.172 0 0 1 .6-2.107 22.091 22.091 0 0 1 -10.364-10.224 6.011 6.011 0 0 1 5.383-8.669h31.381v-3z" fill="#d6cec1"/><path d="m51.48 56.97a4.007 4.007 0 0 1 -3.48 2.03c-1.85 0-3.41-.56-3.86-2.04a3.129 3.129 0 0 1 -.14-.96c0-2.21 5-7 6-7s2 3.79 2 6a3.994 3.994 0 0 1 -.52 1.97z" fill="#d84f27"/><path d="m35.46 57a4 4 0 0 1 -7.46-2c0-2.21 3-6 4-6s4 3.79 4 6a3.989 3.989 0 0 1 -.54 2z" fill="#d84f27"/><path d="m12.52 56.97a3.994 3.994 0 0 1 -.52-1.97c0-2.21 1-6 2-6s6 4.79 6 7a3.129 3.129 0 0 1 -.14.96c-.45 1.48-2.01 2.04-3.86 2.04a4.007 4.007 0 0 1 -3.48-2.03z" fill="#d84f27"/><rect fill="#ea735c" height="2" rx="1" width="30" x="14" y="27"/><rect fill="#ea735c" height="2" rx="1" width="5" x="45" y="27"/><path d="m53 40a2 2 0 0 0 -2 2v8.154a12.058 12.058 0 0 1 .714 2.366 1.99 1.99 0 0 0 3.286-1.52v-9a2 2 0 0 0 -2-2z" fill="#f7f3eb"/><rect fill="#f7f3eb" height="5" rx="2" width="4" x="51" y="34"/><path d="m34.6 57.4a2.9 2.9 0 0 1 -5.19 0 3.356 3.356 0 0 1 -.41-1.6c0-1.768 2.25-4.8 3-4.8s3 3.032 3 4.8a3.356 3.356 0 0 1 -.4 1.6z" fill="#65adaf"/><path d="m34.163 57.8a2.549 2.549 0 0 1 -4.326 0 2.325 2.325 0 0 1 -.337-1.2c0-1.326 1.875-3.6 2.5-3.6s2.5 2.274 2.5 3.6a2.325 2.325 0 0 1 -.337 1.2z" fill="#a3c7b9"/><path d="m50.6 57.4a2.9 2.9 0 0 1 -5.19 0 3.356 3.356 0 0 1 -.41-1.6c0-1.768 4.25-4.8 5-4.8s1 3.032 1 4.8a3.356 3.356 0 0 1 -.4 1.6z" fill="#65adaf"/><path d="m50.153 57.8a2.54 2.54 0 0 1 -4.316 0 2.325 2.325 0 0 1 -.337-1.2c0-1.326 3.867-3.6 4.491-3.6s.5 2.274.5 3.6a2.325 2.325 0 0 1 -.338 1.2z" fill="#a3c7b9"/><path d="m13.405 57.4a2.9 2.9 0 0 0 5.19 0 3.356 3.356 0 0 0 .405-1.6c0-1.768-4.25-4.8-5-4.8s-1 3.032-1 4.8a3.356 3.356 0 0 0 .405 1.6z" fill="#65adaf"/><path d="m13.847 57.8a2.54 2.54 0 0 0 4.316 0 2.325 2.325 0 0 0 .337-1.2c0-1.326-3.867-3.6-4.491-3.6s-.5 2.274-.5 3.6a2.325 2.325 0 0 0 .338 1.2z" fill="#a3c7b9"/><path d="m33.3 58.2a1.453 1.453 0 0 1 -2.6 0 1.683 1.683 0 0 1 -.2-.8 3.476 3.476 0 0 1 1.5-2.4 3.476 3.476 0 0 1 1.5 2.4 1.683 1.683 0 0 1 -.2.8z" fill="#d7dbbe"/><path d="m49.292 58.2a1.448 1.448 0 0 1 -2.59 0 1.683 1.683 0 0 1 -.2-.8c0-.884 2.32-2.4 2.7-2.4s.3 1.516.3 2.4a1.683 1.683 0 0 1 -.21.8z" fill="#d7dbbe"/><path d="m14.708 58.2a1.448 1.448 0 0 0 2.59 0 1.683 1.683 0 0 0 .2-.8c0-.884-2.32-2.4-2.695-2.4s-.3 1.516-.3 2.4a1.683 1.683 0 0 0 .205.8z" fill="#d7dbbe"/><path d="m32 23v1h-8v-1a4 4 0 0 1 8 0z" fill="#e84655"/><path d="m28 19a3.995 3.995 0 0 0 -4 4v1a4 4 0 0 1 8 0v-1a4 4 0 0 0 -4-4z" fill="#ff6976"/><path d="m47.76 3.238a4.264 4.264 0 0 1 0 6.012l-.75.75-6.01-6.012.75-.75a4.265 4.265 0 0 1 6.01 0z" fill="#ffd669"/><path d="m37 20c0-6 6-6 6-6 0 6-6 6-6 6z" fill="#869f3c"/><path d="m35 7s-6 0-6-6c0 0 6 0 6 6z" fill="#869f3c"/><path d="m62.17 1.31a1.849 1.849 0 0 1 .58 2.47l-10.68 18.23c.33.05 1.93.52 1.93 4.99h-13c.83-5 5.81-5.83 7.46-5.97l11.07-19.1a1.864 1.864 0 0 1 2.64-.62z" fill="#da684e"/><path d="m4.412 4.412a2 2 0 1 1 2.829 0l2.679 2.679a3.211 3.211 0 0 0 -1.979.85 3.211 3.211 0 0 0 -.85 1.979l-2.679-2.679a2 2 0 1 1 0-2.829z" fill="#ede9e1"/><path d="m9.92 7.091c2.97-.31 7.478 1.84 9.318 3.679a5.988 5.988 0 0 1 -8.468 8.468c-1.839-1.838-3.989-6.348-3.679-9.318a3.211 3.211 0 0 1 .85-1.979 3.211 3.211 0 0 1 1.979-.85z" fill="#fad5c3"/><g fill="#70695b"><circle cx="31" cy="10" r="1"/><circle cx="31" cy="14" r="1"/><circle cx="28" cy="10" r="1"/><circle cx="28" cy="14" r="1"/><circle cx="25" cy="10" r="1"/><circle cx="25" cy="14" r="1"/></g><path d="m47.76 3.238a4.265 4.265 0 0 0 -6.01 0l-.75.75.026.026a4.225 4.225 0 0 1 5.957 5.959l.027.027.75-.75a4.264 4.264 0 0 0 0-6.012z" fill="#ffe399"/><path d="m20.238 16.238a5.969 5.969 0 0 1 -8.468 0 15.079 15.079 0 0 1 -3.7-8.406c-.043.038-.092.068-.133.109a3.211 3.211 0 0 0 -.85 1.979c-.31 2.97 1.84 7.478 3.679 9.318a5.972 5.972 0 0 0 10.2-3.888 6.022 6.022 0 0 1 -.728.888z" fill="#f3c0a5"/><path d="m62.17 1.309a1.841 1.841 0 0 0 -1.147-.3 1.991 1.991 0 0 1 -.072 1.827l-10.427 18.246a1 1 0 0 0 .421 1.391l.372.185a1.236 1.236 0 0 1 -.553 2.342h-9.112a6.912 6.912 0 0 0 -.652 2h13c0-4.47-1.6-4.94-1.93-4.99l10.68-18.231a1.849 1.849 0 0 0 -.58-2.47z" fill="#bd4c3d"/><path d="m8.415 5.585-.708.708a1 1 0 0 1 -1.414 0l-1.881-1.881a2 2 0 1 0 0 2.829l2.679 2.679a3.211 3.211 0 0 1 .85-1.979 3.211 3.211 0 0 1 1.979-.85z" fill="#ded9d0"/><path d="m11.4 8.056a1.787 1.787 0 0 0 -1.12.444 1.261 1.261 0 0 0 -.176 1.31 2.972 2.972 0 0 0 .862 1.087c1.049.918 2.3 1.6 3.33 2.533a15.983 15.983 0 0 0 2.413 2.165 2.465 2.465 0 0 0 1.59.387 2 2 0 0 0 1.434-1.1 2.877 2.877 0 0 0 .209-1.812 4.72 4.72 0 0 0 -1.464-2.528 9 9 0 0 0 -7.078-2.486z" fill="#fce2d1"/><path d="m35 7-6-6c0 6 6 6 6 6z" fill="#658f41"/><path d="m43 14-6 6s6 0 6-6z" fill="#658f41"/><path d="m48.933 22.276c-.358-.867-1.673-.853-2.4-.687a7.313 7.313 0 0 0 -2.617 1.318 1.806 1.806 0 0 0 -.916 1.349 1.746 1.746 0 0 0 1.239.229l1.361-.085a6.388 6.388 0 0 0 2.438-.489 1.9 1.9 0 0 0 .774-.644 1.1 1.1 0 0 0 .121-.991z" fill="#ea735c"/><ellipse cx="19.016" cy="12.75" fill="#fff3eb" rx=".413" ry=".574"/><ellipse cx="14.016" cy="16.75" fill="#f3c0a5" rx=".413" ry=".574" transform="matrix(.707 -.707 .707 .707 -7.738 14.81)"/><ellipse cx="10.016" cy="15.75" fill="#f3ac86" rx=".413" ry=".574"/><ellipse cx="17.271" cy="11.25" fill="#fff3eb" rx=".825" ry="1.148" transform="matrix(.707 -.707 .707 .707 -2.895 15.514)"/><ellipse cx="12.271" cy="18.25" fill="#f3ac86" rx=".825" ry="1.148" transform="matrix(.707 -.707 .707 .707 -9.312 14.029)"/><ellipse cx="12.271" cy="15.25" fill="#f3c0a5" rx=".825" ry="1.148" transform="matrix(.707 -.707 .707 .707 -7.19 13.15)"/><ellipse cx="28.016" cy="22.75" fill="#ff858f" rx=".413" ry=".574"/><ellipse cx="26.016" cy="22.75" fill="#ff858f" rx=".413" ry=".574" transform="matrix(.849 -.529 .529 .849 -8.096 17.204)"/><ellipse cx="27.016" cy="21.75" fill="#ff858f" rx=".413" ry=".574" transform="matrix(.849 -.529 .529 .849 -7.416 17.581)"/><ellipse cx="30.016" cy="22.75" fill="#ff858f" rx=".574" ry=".413" transform="matrix(.529 -.849 .849 .529 -5.167 36.191)"/><ellipse cx="29.016" cy="21.75" fill="#ff858f" rx=".574" ry=".413" transform="matrix(.529 -.849 .849 .529 -4.79 34.871)"/><path d="m25 10a.985.985 0 0 1 -.847-.5.977.977 0 0 0 -.153.5 1 1 0 0 0 2 0 .977.977 0 0 0 -.153-.5.985.985 0 0 1 -.847.5z" fill="#38352d"/><path d="m28 10a.985.985 0 0 1 -.847-.5.977.977 0 0 0 -.153.5 1 1 0 0 0 2 0 .977.977 0 0 0 -.153-.5.985.985 0 0 1 -.847.5z" fill="#38352d"/><path d="m31 10a.985.985 0 0 1 -.847-.5.977.977 0 0 0 -.153.5 1 1 0 0 0 2 0 .977.977 0 0 0 -.153-.5.985.985 0 0 1 -.847.5z" fill="#38352d"/><path d="m25 14a.985.985 0 0 1 -.847-.5.977.977 0 0 0 -.153.5 1 1 0 0 0 2 0 .977.977 0 0 0 -.153-.5.985.985 0 0 1 -.847.5z" fill="#38352d"/><path d="m28 14a.985.985 0 0 1 -.847-.5.977.977 0 0 0 -.153.5 1 1 0 0 0 2 0 .977.977 0 0 0 -.153-.5.985.985 0 0 1 -.847.5z" fill="#38352d"/><path d="m31 14a.985.985 0 0 1 -.847-.5.977.977 0 0 0 -.153.5 1 1 0 0 0 2 0 .977.977 0 0 0 -.153-.5.985.985 0 0 1 -.847.5z" fill="#38352d"/></g></svg>