<svg id="Capa_1" enable-background="new 0 0 512 512" height="512" viewBox="0 0 512 512" width="512" xmlns="http://www.w3.org/2000/svg"><g><g><g><g><path d="m333.264 124.137h-113.32c-1.707 0-3.091-1.384-3.091-3.091v-83.444c0-1.707 1.384-3.091 3.091-3.091h113.32c1.707 0 3.091 1.384 3.091 3.091v83.445c-.001 1.706-1.385 3.09-3.091 3.09z" fill="#f6a96c"/></g><path d="m247.759 121.046v-15.164h-2.06c-5.84 0-10.591-4.751-10.591-10.59v-31.936c0-5.84 4.751-10.591 10.591-10.591h2.06v-15.163c0-1.707 1.384-3.091 3.091-3.091h-30.905c-1.707 0-3.091 1.384-3.091 3.091v83.445c0 1.707 1.384 3.09 3.091 3.09h30.905c-1.708 0-3.091-1.384-3.091-3.091z" fill="#ea9b58"/><path d="m249.107 66.766h54.992v25.116h-54.992z" fill="#eaf6ff"/><path d="m249.107 66.766h14.104v25.116h-14.104z" fill="#d8ecfe"/><g><path d="m307.509 105.882h-61.811c-5.84 0-10.591-4.751-10.591-10.59v-31.936c0-5.84 4.751-10.591 10.591-10.591h61.811c5.84 0 10.591 4.751 10.591 10.591v31.936c0 5.839-4.751 10.59-10.591 10.59zm-57.402-15h52.993v-23.116h-52.992v23.116z" fill="#ffbd86"/></g></g><g><g><path d="m333.264 298.237h-113.32c-1.707 0-3.091-1.384-3.091-3.091v-139.074c0-1.707 1.384-3.091 3.091-3.091h113.32c1.707 0 3.091 1.384 3.091 3.091v139.074c-.001 1.708-1.385 3.091-3.091 3.091z" fill="#f6a96c"/></g><path d="m247.759 295.147v-15.164h-2.06c-5.84 0-10.591-4.751-10.591-10.59v-87.565c0-5.84 4.751-10.591 10.591-10.591h2.06v-15.164c0-1.707 1.384-3.091 3.091-3.091h-30.905c-1.707 0-3.091 1.384-3.091 3.091v139.074c0 1.707 1.384 3.091 3.091 3.091h30.905c-1.708-.001-3.091-1.384-3.091-3.091z" fill="#ea9b58"/><g><path d="m242.608 269.392v-87.565c0-1.707 1.384-3.091 3.091-3.091h61.811c1.707 0 3.091 1.384 3.091 3.091v87.565c0 1.707-1.384 3.091-3.091 3.091h-61.811c-1.708 0-3.091-1.384-3.091-3.091z" fill="#fff"/></g><path d="m249.107 185.236h54.992v80.746h-54.992z" fill="#fff"/><path d="m249.107 185.236h14.104v80.746h-14.104z" fill="#f3f0f3"/><path d="m249.107 246.213h54.992v19.769h-54.992z" fill="#00c27a"/><path d="m249.107 246.213h14.104v19.769h-14.104z" fill="#09a755"/><g><path d="m307.509 279.982h-61.811c-5.84 0-10.591-4.751-10.591-10.59v-87.565c0-5.84 4.751-10.591 10.591-10.591h61.811c5.84 0 10.591 4.751 10.591 10.591v87.565c0 5.839-4.751 10.59-10.591 10.59zm-57.402-15h52.993v-78.746h-52.992v78.746z" fill="#ffbd86"/></g></g></g><g><g><path d="m114.277 309.188c9.319-23.092 14.907-52.498 14.907-84.531 0-38.457-8.048-73.136-20.945-97.636-1.171-2.224-4.327-2.224-5.498 0-12.897 24.5-20.945 59.179-20.945 97.636 0 32.034 5.588 61.44 14.907 84.531z" fill="#00c27a"/><path d="m98.942 266.694c2.621 7.661 4.783 15.277 6.548 22.787.587-2.498 1.22-5.008 1.901-7.528-4.09-17.383-6.39-36.796-6.39-57.297 0-31.08 5.258-59.689 14.083-82.454-2.092-5.398-4.373-10.487-6.844-15.182-1.171-2.224-4.327-2.224-5.498 0-12.897 24.5-20.945 59.179-20.945 97.636 0 1.178.008 2.353.023 3.524 6.541 11.654 12.359 24.594 17.122 38.514z" fill="#09a755"/><g><path d="m65.285 309.188h43.922c-1.932-13.695-5.315-28.021-10.266-42.493-11.793-34.47-30.054-62.941-49.782-80.704-1.821-1.639-4.704-.653-5.139 1.758-4.713 26.125-1.708 59.815 10.085 94.285 3.265 9.545 7.029 18.628 11.18 27.154z" fill="#00c27a"/><path d="m64.805 308.188h21.471c-3.962-8.237-7.567-16.978-10.706-26.154-9.82-28.702-13.526-56.847-11.777-80.551-4.73-5.8-9.634-10.992-14.633-15.493-1.821-1.639-4.704-.653-5.139 1.758-4.713 26.125-1.708 59.815 10.085 94.285 3.137 9.175 6.738 17.919 10.699 26.155z" fill="#09a755"/><path d="m145.694 309.188c4.151-8.525 7.915-17.608 11.181-27.154 11.793-34.47 14.798-68.16 10.085-94.285-.435-2.411-3.319-3.397-5.139-1.758-19.728 17.763-37.99 46.234-49.782 80.704-4.951 14.472-8.333 28.798-10.266 42.493z" fill="#00c27a"/><path d="m123.317 308.188c1.939-9.321 4.529-18.846 7.81-28.437 9.385-27.433 22.869-51.059 37.927-68.519-.091-8.313-.782-16.2-2.096-23.484-.435-2.411-3.319-3.398-5.139-1.758-19.728 17.763-37.99 46.234-49.782 80.704-4.831 14.121-8.163 28.101-10.118 41.493h21.398z" fill="#09a755"/></g><path d="m182.509 308.188h-154.039c-3.33 0-5.785 3.112-5.009 6.351l23.476 98.02h117.105l23.476-98.02c.776-3.239-1.679-6.351-5.009-6.351z" fill="#f6a96c"/><g><path d="m46.697 411.557h43.13l-23.237-97.019c-.776-3.238 1.679-6.351 5.009-6.351h-43.129c-3.33 0-5.785 3.112-5.009 6.351z" fill="#ea9b58"/></g><path d="m23.39 419.452c1.935 10.525 7.483 19.61 15.22 26.072h133.758c7.738-6.462 13.286-15.547 15.22-26.072l.333-1.812c.582-3.165-1.848-6.082-5.066-6.082h-154.732c-3.218 0-5.648 2.917-5.066 6.082z" fill="#e2dee2"/><g><path d="m23.39 419.452c1.837 9.994 6.935 18.687 14.07 25.072h53.778c-7.134-6.385-12.233-15.078-14.07-25.072l-.333-1.812c-.582-3.165 1.848-6.082 5.066-6.082h-53.778c-3.218 0-5.648 2.917-5.066 6.082z" fill="#cbc4cc"/></g></g></g><g><g><g><path d="m481.61 251.879h-113.32c-1.707 0-3.091-1.384-3.091-3.091v-139.074c0-1.707 1.384-3.091 3.091-3.091h113.32c1.707 0 3.091 1.384 3.091 3.091v139.074c-.001 1.708-1.384 3.091-3.091 3.091z" fill="#f6a96c"/></g><g><path d="m400.225 248.789v-15.164h-6.181c-5.839 0-10.59-4.751-10.59-10.591v-87.565c0-5.84 4.751-10.591 10.59-10.591h6.181v-15.164c0-1.707 1.384-3.091 3.091-3.091h-35.026c-1.707 0-3.091 1.384-3.091 3.091v139.074c0 1.707 1.384 3.091 3.091 3.091h35.026c-1.707 0-3.091-1.383-3.091-3.09z" fill="#ea9b58"/></g><path d="m397.454 138.878h54.991v80.747h-54.991z" fill="#fe6c55"/><path d="m397.454 138.878v78.284l54.991-75.821v-2.463z" fill="#fed402"/><path d="m397.454 140.274v76.888l29.646-40.876z" fill="#fff"/></g></g><g><g><path d="m394.31 352.859h36.515c2.344-14.425-2.03-29.727-13.153-40.85-11.812-11.812-28.339-16.02-43.522-12.646-1.2.267-2.131 1.198-2.398 2.398-3.374 15.183.833 31.709 12.646 43.522 3.026 3.028 6.367 5.548 9.912 7.576z" fill="#00c27a"/><path d="m392.673 351.86h38.292c.147-1.083.26-2.169.337-3.258-10.814-.822-21.397-5.35-29.668-13.621-10.034-10.034-14.559-23.469-13.633-36.593-4.63-.352-9.302-.036-13.853.975-1.2.267-2.131 1.198-2.398 2.398-3.374 15.183.833 31.709 12.646 43.522 2.556 2.556 5.342 4.733 8.277 6.577z" fill="#09a755"/><path d="m466.507 352.859c3.545-2.029 6.885-4.549 9.913-7.576 11.812-11.812 16.02-28.339 12.646-43.522-.267-1.2-1.198-2.131-2.398-2.398-15.183-3.374-31.709.833-43.522 12.646-11.123 11.123-15.497 26.426-13.153 40.85z" fill="#00c27a"/><path d="m447.255 351.86c1.559-9.311 5.914-18.243 13.1-25.428 8.309-8.309 18.952-12.838 29.818-13.63.061-3.702-.3-7.41-1.107-11.041-.267-1.2-1.198-2.131-2.398-2.398-15.183-3.374-31.709.833-43.522 12.646-10.867 10.867-15.279 25.721-13.292 39.851z" fill="#09a755"/></g><path d="m387.632 445.523h85.552l20.912-87.313c.776-3.238-1.679-6.351-5.009-6.351h-117.358c-3.33 0-5.785 3.112-5.009 6.351z" fill="#f6a96c"/><g><path d="m387.393 444.523h37.172l-20.672-86.313c-.776-3.238 1.679-6.351 5.009-6.351h-37.172c-3.33 0-5.785 3.112-5.009 6.351z" fill="#ea9b58"/></g></g><g><path d="m506.849 477.489h-501.698c-2.845 0-5.151-2.306-5.151-5.151v-22.664c0-2.845 2.306-5.151 5.151-5.151h501.698c2.845 0 5.151 2.306 5.151 5.151v22.664c0 2.845-2.306 5.151-5.151 5.151z" fill="#a79ba7"/></g><g><path d="m72.628 472.338v-22.664c0-2.845 2.306-5.151 5.151-5.151h-72.628c-2.845 0-5.151 2.306-5.151 5.151v22.664c0 2.845 2.306 5.151 5.151 5.151h72.628c-2.845 0-5.151-2.306-5.151-5.151z" fill="#918291"/></g><g><path d="m455.855 233.625h-61.812c-5.839 0-10.59-4.751-10.59-10.591v-87.565c0-5.84 4.751-10.591 10.59-10.591h61.812c5.839 0 10.59 4.751 10.59 10.591v87.565c0 5.84-4.751 10.591-10.59 10.591zm-57.401-15h52.991v-78.747h-52.991z" fill="#ffbd86"/></g></g></svg>