<svg id="Pond" enable-background="new 0 0 400 400" height="512" viewBox="0 0 400 400" width="512" xmlns="http://www.w3.org/2000/svg"><g><path d="m80.677 176.713h25.824c-.287-1.33-.581-2.615-.897-3.899-3.828-15.89-9.294-28.918-15.322-39.331-15.962-27.702-36.247-35.314-38.922-32.548s10.091 26.55 15.771 64.236c1.035 6.871 6.498 11.542 13.546 11.542z" fill="#45c941"/><path d="m114.448 176.713h26.998c6.181 0 10.921-4.14 11.592-10.1 4.591-40.777 20.51-65.788 16.692-68.449s-23.285 5.059-39.117 32.867c-6.525 11.477-12.334 26.096-15.868 44.194-.107.483-.211.985-.297 1.488z" fill="#45c941"/><path d="m85.188 176.713h49.01c-2.219-17.001-2.432-32.216-1.591-45.683 2.749-44.213 14.338-74.291 10.003-77.08s-34.225 16.517-48.99 67.575c-4.304 14.843-7.375 32.16-8.301 51.969-.051 1.061-.102 2.122-.131 3.219z" fill="#5ce259"/><path d="m35.316 186.765c-10.781 16.095 23.52 16.078 20.287 28.792-3.378 13.287-56.275 25.461-55.597 54.379.781 33.326 69.082 71.803 193.606 68.883s202.795-40.246 201.776-83.709c-2.794-119.177-328.113-116.055-360.072-68.345z" fill="#5ab5ff"/><path d="m194.992 224.793h23.211c2.546 0 4.617-2.072 4.617-4.618s-2.071-4.617-4.617-4.617h-23.211c-2.546 0-4.617 2.071-4.617 4.617s2.071 4.618 4.617 4.618zm-39.559-25.149h23.211c2.546 0 4.617-2.071 4.617-4.617s-2.071-4.617-4.617-4.617h-23.211c-2.546 0-4.617 2.071-4.617 4.617s2.071 4.617 4.617 4.617zm85.682 3.17h23.211c2.546 0 4.617-2.071 4.617-4.617s-2.071-4.617-4.617-4.617h-23.211c-2.546 0-4.618 2.071-4.618 4.617s2.072 4.617 4.618 4.617zm31.411 29.498h23.211c2.546 0 4.618-2.072 4.618-4.618s-2.072-4.617-4.618-4.617h-23.211c-2.546 0-4.617 2.071-4.617 4.617s2.071 4.618 4.617 4.618z" fill="#2398d8"/><path d="m395.385 255.113c1.032 43.455-77.24 80.786-201.771 83.719-19.825.451-38.201-.129-55.126-1.547 146.545-30.012 179.764-139.466 130.366-172.984 68.44 12.831 125.371 41.232 126.531 90.812z" opacity=".1"/><ellipse cx="161.696" cy="284.593" fill="#7af476" rx="58.008" ry="22.68"/><path d="m219.694 284.578c0 12.54-25.95 22.695-57.993 22.695-8.705 0-16.957-.741-24.371-2.095 35.17-6.318 55.931-24.049 48.71-41.166 19.889 3.577 33.654 11.443 33.654 20.566z" opacity=".1"/><path d="m384.222 330.595v.164c-.029 8.675-7.41 15.546-16.085 15.546h-72.922c-8.633 0-16.04-6.803-16.086-15.436 0-.092-.001-.183-.001-.275 0-27.982 23.52-50.618 52.571-50.618 29.003.002 52.523 22.638 52.523 50.619z" fill="#5e5e5e"/><path d="m318.253 335.41v.114c-.02 6.016-5.139 10.782-11.156 10.782h-50.575c-5.987 0-11.124-4.719-11.156-10.706 0-.064-.001-.127-.001-.191 0-19.407 16.312-35.106 36.46-35.106 20.116.001 36.428 15.701 36.428 35.107z" fill="#777776"/><path d="m318.243 335.415v.097c0 6.028-5.126 10.799-11.154 10.799h-39.781c20.986-6.061 34.719-26.499 20.729-45.486 17.149 2.837 30.206 17.214 30.206 34.59z" opacity=".1"/><path d="m400 254.998v.001z" fill="#0f0f0f"/></g></svg>