<svg height="512" viewBox="0 0 48 48" width="512" xmlns="http://www.w3.org/2000/svg"><g id="Yoga_pose" data-name="Yoga pose"><path d="m38.49 28.17-5.05 1.68-1.44-3.85v11h-16v-11l-1.44 3.85-5.05-1.68 1.4-4.61a6 6 0 0 1 4.72-4.16c6.49-1.09 3.88-.91 11.33-.91l5.37.9a6 6 0 0 1 4.76 4.17c1.54 5.06 1.28 4.2 1.4 4.61z" fill="#db5669"/><path d="m38.49 28.17-5.05 1.68-1.44-3.85v10h-12a2 2 0 0 1 -2-2v-6.76a1.38 1.38 0 0 0 -2-1.24c-.93 2.49-.74 2-1 2.6a4.17 4.17 0 0 1 -2.42-5.07 6.9 6.9 0 0 1 2-3.7l1-.43c6.52-1.09 3.9-.91 11.35-.91l5.37.9a6 6 0 0 1 4.76 4.17c1.57 5.06 1.31 4.2 1.43 4.61z" fill="#f26674"/><path d="m27 16.19c0 1.66.18 2.73-.76 3.79a3 3 0 0 1 -5.24-1.98v-1.81z" fill="#f6ccaf"/><path d="m27 16.19c0 1.66.18 2.73-.76 3.79a3 3 0 0 1 -3.24-2.98v-.81z" fill="#ffdec7"/><path d="m30 7c0 3.64.52 6.58-2.37 8.77a6 6 0 0 1 -9.63-4.77v-4a6 6 0 0 1 12 0z" fill="#f6ccaf"/><path d="m30 7c0 3.64.52 6.58-2.37 8.77a6 6 0 0 1 -7.63-5.77c0-3.64-.52-6.58 2.37-8.77a6 6 0 0 1 7.63 5.77z" fill="#ffdec7"/><path d="m30 7v1c-2.37 0-4.72.28-7-2-1.11 2.26-3.27 2-5 2v-1a6 6 0 0 1 12 0z" fill="#a87e6b"/><path d="m30 7v1c-2.37 0-4.72.28-7-2a3.55 3.55 0 0 1 -3 2v-1a6 6 0 0 1 5-5.91 6 6 0 0 1 5 5.91z" fill="#be927c"/><path d="m32 41v6h-14.88a2.12 2.12 0 0 1 -.25-4.22c5.44-.78-10.21 1.22 15.13-1.78z" fill="#f6ccaf"/><path d="m32 41v4h-12.88a2.12 2.12 0 0 1 -2.12-2.24z" fill="#ffdec7"/><path d="m37.7 47h-5.7v-6c5.52-.63 5.74-.79 6.81-.43a3.29 3.29 0 0 1 -1.11 6.43z" fill="#6fabe6"/><path d="m17.12 47c-7 0-7.89.31-9.15-1a3.29 3.29 0 0 1 1.22-5.4c1-.36.3-.32 14.8 1.36l-7.12.82a2.12 2.12 0 0 0 .25 4.22z" fill="#6fabe6"/><path d="m24 42-7.12.82a2.13 2.13 0 0 0 -1.88 2.06c0 .17.33.12-2.7.12a3.3 3.3 0 0 1 -3.11-4.4c1.09-.38.61-.28 14.81 1.4z" fill="#82bcf4"/><path d="m39 41.7a3.3 3.3 0 0 1 -3.3 3.3h-3.7v-4c5.52-.63 5.74-.79 6.81-.43a3.53 3.53 0 0 1 .19 1.13z" fill="#82bcf4"/><path d="m38 40.42c-.41-.06.44-.13-14 1.54-.1 0 .14 0-13.32-1.54-.8-.07-2 .78 5.32-3.42h16z" fill="#6fabe6"/><path d="m36.74 39.72c-11.02 1.28-10.65 1.28-10.74 1.28l-9-1.2a1 1 0 0 1 -.37-1.86l1.62-.94h13.75z" fill="#82bcf4"/><path d="m14.56 29.85c-1.48 4-1.6 4.62-2.47 5.65-5.09 6.15-4.88 6-5.59 6.28a2.51 2.51 0 0 1 -2.82-4c5.45-6.54 4.24-4.4 5.83-9.6 2.29.74 1.16.37 5.05 1.67z" fill="#f6ccaf"/><path d="m14.56 29.85c-1.48 4-1.6 4.62-2.47 5.65-5.09 6.15-4.88 6-5.59 6.28a2.56 2.56 0 0 1 -.82-4c5.49-6.58 4.29-4.58 5.65-9z" fill="#ffdec7"/><path d="m42.5 42c-1.5 0-1.5-.46-6.59-6.5-.88-1-1-1.68-2.47-5.65l5.05-1.68c1.58 5.18.34 3 5.83 9.6a2.53 2.53 0 0 1 -1.82 4.23z" fill="#f6ccaf"/><path d="m43.5 41.78a2.26 2.26 0 0 1 -.92-.68c-6.22-7.45-4.79-5.1-7.48-11.8l3.39-1.13c1.58 5.18.34 3 5.83 9.6a2.57 2.57 0 0 1 -.82 4.01z" fill="#ffdec7"/></g></svg>