<?xml version="1.0" encoding="iso-8859-1"?>
<!-- Generator: Adobe Illustrator 19.0.0, SVG Export Plug-In . SVG Version: 6.00 Build 0)  -->
<svg version="1.1" id="Capa_1" xmlns="http://www.w3.org/2000/svg" xmlns:xlink="http://www.w3.org/1999/xlink" x="0px" y="0px"
	 viewBox="0 0 512 512" style="enable-background:new 0 0 512 512;" xml:space="preserve">
<path style="fill:#BF8E5E;" d="M87.954,303.092H8.016v50.098h99.042C97.751,337.889,91.182,321.007,87.954,303.092z"/>
<path style="fill:#FF5352;" d="M391.215,182.857c-0.101,3.511-0.363,6.986-0.778,10.418c-4.104,33.966-54.281,30.983-54.281-3.231
	l0,0c0-6.5,2.327-12.785,6.562-17.716c14.717-17.131,23.497-38.731,23.497-62.206c0-23.061-8.475-44.308-22.723-61.292
	c-0.02,0.707-0.051,1.413-0.091,2.115c-2.153,37.515-66.24,34.649-58.344-2.088c5.01-23.308,14.027-41.343,14.027-41.343h-14.027
	c-31.542,0-57.112,25.57-57.112,57.112v10.964c0,24.345-31.313,34.449-45.41,14.602c-8.496-11.962-13.59-26.13-14.028-41.362
	c-14.249,16.983-22.723,38.231-22.723,61.292c0,23.476,8.779,45.075,23.497,62.206c4.235,4.931,6.562,11.215,6.562,17.716l0,0
	c0,34.214-50.177,37.198-54.281,3.231c-0.415-3.433-0.676-6.907-0.778-10.418c-22.019,26.247-35.117,59.084-35.117,94.723
	c0,86.027,76.261,155.766,170.333,155.766s170.333-69.739,170.333-155.766C426.333,241.942,413.235,209.104,391.215,182.857z"/>
<path style="fill:#A87547;" d="M67.609,303.092c2.731,17.489,8.257,34.339,16.392,50.098h23.058
	c-9.308-15.301-15.876-32.183-19.104-50.098H67.609z"/>
<path style="fill:#D84315;" d="M161.816,298.082c-27.001,0-50.908,13.433-65.44,33.953C120.525,391.206,182.877,433.346,256,433.346
	c86.472,0,157.886-58.927,168.863-135.264H161.816z"/>
<path style="fill:#FDD844;" d="M256,403.288c-77.347,0-140.274-56.392-140.274-125.708c0-12.54,2.03-24.797,5.991-36.502
	c7.907,4.037,16.974,6.261,26.738,6.261c0.004,0,0.004,0,0.007,0c32.747-0.004,57.441-24.635,57.441-57.295
	c0-13.679-4.907-26.927-13.818-37.301c-7.227-8.412-12.136-17.922-14.537-28.027c7.597,3.95,16.118,6.061,25.041,6.06
	c30.557,0,55.416-24.757,55.416-55.187v-1.315c1.836,4.559,4.35,8.849,7.52,12.773c10.673,13.212,27.611,20.789,46.471,20.789
	c8.537,0,16.565-1.484,23.829-4.219c0.222,2.15,0.334,4.32,0.334,6.505c0,15.515-5.615,30.253-16.239,42.62
	c-8.913,10.376-13.82,23.623-13.82,37.302c0,16.886,6.618,32.077,18.636,42.776c10.518,9.363,24.3,14.519,38.81,14.519
	c9.763,0,18.832-2.226,26.739-6.262c3.961,11.705,5.991,23.964,5.991,36.503C396.274,346.896,333.347,403.288,256,403.288z"/>
<path style="fill:#FDAB08;" d="M161.816,298.082c-15.162,0-29.351,4.232-41.455,11.576c15.864,53.827,70.659,93.63,135.639,93.63
	c69.558,0,127.442-45.609,138.398-105.205H161.816z"/>
<circle style="fill:#DCCD9B;" cx="161.816" cy="378.239" r="60.117"/>
<path style="fill:#CCBB8B;" d="M101.699,378.239c0,33.202,26.916,60.117,60.117,60.117s60.117-26.916,60.117-60.117
	c0-4.832-0.586-9.526-1.662-14.027h-116.91C102.285,368.713,101.699,373.406,101.699,378.239z"/>
<path style="fill:#BF8E5E;" d="M444.368,318.121H161.816c33.202,0,60.117,26.916,60.117,60.117s-26.916,60.117-60.117,60.117
	h282.552c16.602,0,31.632-6.733,42.513-17.604c10.871-10.881,17.604-25.911,17.604-42.513
	C504.485,345.034,477.573,318.121,444.368,318.121z"/>
<path style="fill:#A87547;" d="M350.184,364.211H220.271c1.077,4.502,1.662,9.195,1.662,14.027
	c0,33.202-26.916,60.117-60.117,60.117H430.12C427.034,396.955,392.356,364.211,350.184,364.211z"/>
<circle style="fill:#DCCD9B;" cx="67.632" cy="444.368" r="60.117"/>
<path style="fill:#BF8E5E;" d="M350.184,384.25H67.632c33.202,0,60.117,26.916,60.117,60.117s-26.916,60.117-60.117,60.117h282.552
	c33.202,0,60.117-26.916,60.117-60.117l0,0C410.301,411.166,383.386,384.25,350.184,384.25z"/>
<path style="fill:#A87547;" d="M404.379,470.419H121.827c-9.707,20.156-30.326,34.067-54.195,34.067h282.552
	C374.053,504.485,394.672,490.575,404.379,470.419z"/>
<path d="M444.368,310.607h-14.176c2.42-10.82,3.655-21.888,3.655-33.027c0-36.372-12.752-70.796-36.875-99.552l-12.697-15.134
	l-0.572,19.747c-0.094,3.248-0.339,6.524-0.727,9.735c-1.541,12.757-11.538,17.912-20.788,17.35
	c-9.217-0.555-18.517-6.855-18.517-19.68c0-4.702,1.686-9.254,4.747-12.818c16.559-19.278,25.311-42.482,25.311-67.105
	c0-24.167-8.466-47.031-24.481-66.121l-12.696-15.132l-0.573,19.744c-0.019,0.637-0.046,1.272-0.081,1.903
	c-0.584,10.167-6.961,15.054-12.209,17.366c-8.867,3.906-20.406,2.898-26.835-2.345c-4.347-3.542-5.843-8.622-4.452-15.099
	c4.733-22.019,13.318-39.393,13.402-39.561L311.243,0h-26.186c-35.635,0-64.626,28.992-64.626,64.626v10.964
	c0,9.456-6.331,14.846-12.257,16.736c-5.871,1.874-14.086,1.154-19.51-6.486c-7.889-11.109-12.262-23.982-12.644-37.227
	l-0.569-19.75l-12.7,15.137c-16.015,19.089-24.481,41.954-24.481,66.121c0,24.624,8.752,47.827,25.311,67.103
	c3.062,3.565,4.747,8.117,4.747,12.819c0,12.825-9.3,19.125-18.517,19.68c-9.271,0.554-19.247-4.595-20.788-17.351
	c-0.389-3.211-0.633-6.486-0.727-9.734l-0.572-19.747l-12.697,15.134c-24.123,28.756-36.875,63.181-36.875,99.553
	c0,6.025,0.386,12.033,1.106,17.997H0.501v65.127h96.002c-1.379,5.131-2.159,10.501-2.28,16.031h-26.59
	C30.339,376.736,0,407.075,0,444.368S30.339,512,67.632,512h282.552c36.789,0,66.789-29.531,67.594-66.129h26.59
	c37.293,0,67.632-30.339,67.632-67.632S481.661,310.607,444.368,310.607z M15.53,345.675v-35.068h66.315
	c2.711,12.086,6.895,23.865,12.488,35.068H15.53z M93.182,277.58c0-26.944,7.786-52.73,22.667-75.501
	c5.542,16.607,21.111,23.478,34.865,22.649c15.722-0.946,32.644-12.204,32.644-34.683c0-8.292-2.975-16.323-8.375-22.612
	c-14.186-16.513-21.683-36.331-21.683-57.311c0-14.619,3.654-28.699,10.683-41.488c2.571,9.167,6.753,17.92,12.426,25.91
	c8.333,11.734,22.595,16.483,36.332,12.102c13.802-4.403,22.719-16.591,22.719-31.055V64.626c0-27.347,22.249-49.597,49.597-49.597
	h2.547c-3.107,7.799-7.088,19.197-9.894,32.249c-2.6,12.096,0.828,22.717,9.651,29.908c10.839,8.835,28.271,10.666,42.388,4.45
	c7.576-3.336,13.379-8.624,16.986-15.259c7.866,13.38,11.966,28.261,11.966,43.744c0,20.98-7.498,40.798-21.683,57.311
	c-5.402,6.288-8.375,14.319-8.375,22.611c0,22.48,16.922,33.737,32.644,34.683c13.745,0.822,29.324-6.039,34.865-22.649
	c14.881,22.771,22.667,48.559,22.667,75.502c0,11.163-1.374,22.244-4.067,33.027H161.816c-22.3,0-42.105,10.853-54.432,27.55
	C98.077,319.209,93.182,298.489,93.182,277.58z M161.816,340.665c-20.214,0-36.743,16.047-37.535,36.07h-15.029
	c0.801-28.311,24.064-51.1,52.565-51.1s51.764,22.788,52.565,51.1h-15.029C198.559,356.713,182.031,340.665,161.816,340.665z
	 M184.304,376.736h-44.977c0.777-11.732,10.564-21.041,22.488-21.041C173.739,355.695,183.527,365.004,184.304,376.736z
	 M67.632,496.971c-29.005,0-52.603-23.597-52.603-52.603c0-29.006,23.598-52.603,52.603-52.603s52.603,23.597,52.603,52.603
	C120.235,473.374,96.637,496.971,67.632,496.971z M350.184,496.971H110.076c15.349-12.408,25.188-31.374,25.188-52.603
	c0-21.228-9.839-40.194-25.188-52.603h240.108c29.005,0,52.603,23.597,52.603,52.603
	C402.787,473.374,379.189,496.971,350.184,496.971z M444.368,430.841h-27.913c-6.283-30.833-33.61-54.106-66.271-54.106H229.41
	c-0.454-20.618-10.166-38.986-25.15-51.1h240.108c29.005,0,52.603,23.597,52.603,52.603
	C496.971,407.244,473.373,430.841,444.368,430.841z"/>
<path d="M90.176,444.368c0,12.431-10.114,22.544-22.544,22.544v15.029c20.718,0,37.573-16.855,37.573-37.573H90.176z"/>
<path d="M67.632,406.795c-20.718,0-37.573,16.855-37.573,37.573h15.029c0-12.431,10.114-22.544,22.544-22.544V406.795z"/>
<g>
	<path style="fill:#FFFFFF;" d="M202.588,138.292v-15.029c15.222,0,29.694-7.338,38.712-19.628l12.118,8.891
		C241.579,128.659,222.578,138.291,202.588,138.292z M261.532,97.565l-14.064-5.297c2.007-5.327,3.024-10.937,3.023-16.675
		l15.029-0.002C265.52,83.143,264.178,90.537,261.532,97.565z"/>
	<path style="fill:#FFFFFF;" d="M148.462,254.854l-0.008-15.029h0.007c18.513-0.002,34.736-9.088,43.396-24.303l13.063,7.435
		C193.552,242.926,172.447,254.852,148.462,254.854z M211.272,207.223l-14.553-3.752c1.108-4.298,1.67-8.815,1.669-13.425
		l15.029-0.003C213.418,195.919,212.696,201.699,211.272,207.223z"/>
	<path style="fill:#FFFFFF;" d="M123.241,277.58h-15.029c0-13.293,2.149-26.385,6.386-38.91l14.237,4.816
		C125.122,254.458,123.241,265.928,123.241,277.58z"/>
	<path style="fill:#FFFFFF;" d="M403.789,277.58h-15.029c0-8.924-1.105-17.743-3.288-26.311c-6.91,2.382-14.254,3.585-21.927,3.585
		v-15.029c8.403,0,16.25-1.832,23.323-5.441l7.746-3.954l2.787,8.239C401.639,251.194,403.789,264.286,403.789,277.58z"/>
	<path style="fill:#FFFFFF;" d="M319.736,238.433c-13.641-12.145-21.153-29.329-21.153-48.388h15.029
		c0,14.712,5.724,27.91,16.118,37.164L319.736,238.433z"/>
	<path style="fill:#FFFFFF;" d="M325.618,157.639l-11.401-9.793c9.436-10.986,14.425-24.031,14.425-37.724
		c0-1.917-0.099-3.845-0.294-5.733l14.949-1.544c0.248,2.399,0.374,4.846,0.374,7.277
		C343.671,127.458,337.429,143.889,325.618,157.639z"/>
	<rect x="224.438" y="258.004" style="fill:#FFFFFF;" width="15.029" height="34.067"/>
	<rect x="251.491" y="171.836" style="fill:#FFFFFF;" width="15.029" height="59.115"/>
	<rect x="293.573" y="271.029" style="fill:#FFFFFF;" width="15.029" height="24.047"/>
	<path style="fill:#FFFFFF;" d="M235.961,421.824h-15.029v-15.029h15.029V421.824z M205.902,421.824H153.8v-15.029h52.102V421.824z"
		/>
	<rect x="263.014" y="438.857" style="fill:#FFFFFF;" width="71.139" height="15.029"/>
	<rect x="318.121" y="406.795" style="fill:#FFFFFF;" width="49.096" height="15.029"/>
	<rect x="157.808" y="465.91" style="fill:#FFFFFF;" width="24.047" height="15.029"/>
	<rect x="259.006" y="341.667" style="fill:#FFFFFF;" width="15.029" height="15.029"/>
	<path style="fill:#FFFFFF;" d="M390.262,358.701h-20.039v-15.029h20.039V358.701z M355.194,358.701h-52.102v-15.029h52.102V358.701
		z"/>
	<rect x="424.329" y="353.691" style="fill:#FFFFFF;" width="38.074" height="15.029"/>
	<rect x="430.341" y="391.765" style="fill:#FFFFFF;" width="38.074" height="15.029"/>
	<rect x="228.947" y="469.918" style="fill:#FFFFFF;" width="25.049" height="15.029"/>
</g>
<g>
</g>
<g>
</g>
<g>
</g>
<g>
</g>
<g>
</g>
<g>
</g>
<g>
</g>
<g>
</g>
<g>
</g>
<g>
</g>
<g>
</g>
<g>
</g>
<g>
</g>
<g>
</g>
<g>
</g>
</svg>
