<svg id="Capa_1" enable-background="new 0 0 512 512" height="512" viewBox="0 0 512 512" width="512" xmlns="http://www.w3.org/2000/svg"><g><g><g><g><path d="m316 413.5h-120c-16.569 0-30 13.431-30 30v30.027h180v-30.027c0-16.569-13.431-30-30-30z" fill="#00d43d"/></g><g><path d="m188.507 451.02v-30.027c0-2.314.271-4.563.767-6.727-13.329 3.056-23.274 14.979-23.274 29.234v30.027h180v-22.507z" fill="#00ca0f"/></g><g><path d="m196 383.5h120v30h-120z" fill="#8ae897"/></g><g><path d="m196 383.5h21.766v30h-21.766z" fill="#54e072"/></g><g><path d="m151 472.959h210v30h-210z" fill="#8ae897"/></g><g><path d="m151 472.959h22.596v30h-22.596z" fill="#54e072"/></g><g><path d="m323.809 158.5h-135.618l-31.547 121.199c-9.728 37.372 2.381 77.379 31.986 102.174.657.55 1.321 1.093 1.991 1.627h130.757c.67-.534 1.334-1.077 1.991-1.627 29.605-24.795 41.713-64.803 31.986-102.174z" fill="#b6e6fa"/></g><g><path d="m358.021 294.145c-2.821 25.801-15.672 50.233-36.643 66.842h-128.686c-15.587-23.51-20.65-53.145-13.324-81.288l31.547-121.199h-22.723l-31.547 121.199c-10.09 37.423 3.288 79.879 33.977 103.801h130.757c27.047-21.424 40.444-55.614 36.642-89.355z" fill="#8ad8f6"/></g><g><path d="m300.856 113.543h-89.648l-22.676 22.457v22.5h135v-22.5z" fill="#00d43d"/></g><g><path d="m207.936 139.096v-22.314l-19.404 19.218v22.5h135v-19.404z" fill="#00ca0f"/></g><g><path d="m203.5 181h15v15h-15z" fill="#fff"/></g><g><path d="m233.5 181h15v15h-15z" fill="#fff"/></g><g><path d="m188.5 436.013h15v15h-15z" fill="#fff"/></g></g></g><g><path d="m293.436 496.981h15.019v15.019h-15.019z"/><path d="m402.791 193.507c-2.618-22.254-20.013-39.529-41.672-42.488v-45.82c0-58.007-47.192-105.199-105.199-105.199s-105.2 47.192-105.2 105.199v45.965c-21.221 3.324-38.154 20.412-40.734 42.343l-14.282 121.395 14.916 1.755 14.282-121.395c1.991-16.918 16.337-29.676 33.373-29.676h20.002l-29.14 111.954c-11.058 42.236 4.399 87.449 38.66 113.336h.504v15.019h-37.836c-26.024.585-48.083-24.223-44.462-49.998l2.849-24.221-14.916-1.755-2.849 24.221c-4.839 34.426 24.624 67.554 59.377 66.772h15.327c-4.725 6.28-7.53 14.083-7.53 22.529v22.555h-15.019v46.002h135.174v-15.019h-120.154v-15.962h195.251v15.962h-30.039v15.019h45.058v-46.001h-15.019v-22.555c0-8.446-2.805-16.249-7.53-22.529h16.329c34.755.782 64.216-32.348 59.377-66.772zm-237.052-88.308c0-49.726 40.454-90.18 90.181-90.18 49.725 0 90.18 40.454 90.18 90.18v45.367h-15.083v-18.151l-27.126-26.864h-95.944l-27.124 26.864v18.151h-15.084zm151.057 167.802 23.123-23.122 8.185 31.444c9.03 34.694-2.436 71.664-29.218 94.344l-52.378-52.377 38.912-38.912-10.621-10.62-38.911 38.911-79.645-79.645 17.554-67.438h124.181l17.554 67.439-29.357 29.356zm-18.961 102.855h-83.895l41.947-41.947zm18.162-225.29h-120.155v-11.887l18.283-18.109h83.587l18.284 18.109v11.887zm-152.326 130.757 8.185-31.445 73.411 73.411-52.378 52.378c-26.779-22.677-38.248-59.65-29.218-94.344zm144.784 109.553v15.019h-105.135v-15.019zm30.039 75.123h-165.213v-22.555c0-12.423 10.107-22.529 22.529-22.529h120.155c12.422 0 22.529 10.106 22.529 22.529zm57.273-75.123c-8.488 9.545-20.682 15.019-33.455 15.019h-38.837v-15.019h.504c34.262-25.891 49.717-71.102 38.66-113.336l-29.14-111.954h21.005c17.035 0 31.381 12.758 33.372 29.676l18.898 160.635c1.491 12.685-2.521 25.434-11.007 34.979z"/><path d="m435.673 210.516h31.04v15.02h-31.04z" transform="matrix(.707 -.707 .707 .707 -22.009 382.922)"/><path d="m443.186 277.857h15.02v31.04h-15.02z" transform="matrix(.707 -.707 .707 .707 -75.442 404.624)"/><path d="m451.513 248.495h31.04v15.019h-31.04z"/><path d="m53.298 202.506h15.02v31.04h-15.02z" transform="matrix(.707 -.707 .707 .707 -136.359 106.858)"/><path d="m45.785 285.868h31.04v15.02h-31.04z" transform="matrix(.707 -.707 .707 .707 -189.501 129.289)"/><path d="m29.447 248.495h31.04v15.019h-31.04z"/></g></g></svg>