<svg id="Capa_1" enable-background="new 0 0 511.221 511.221" height="512" viewBox="0 0 511.221 511.221" width="512" xmlns="http://www.w3.org/2000/svg"><g><g><path d="m343.621 96.81s32.708-5.674 72.797-27.3 77.768-56.875 77.768-56.875c20.457 44.41 7.565 98.535-33.427 128.514l-200.482 146.621-17.71-24.215-24.215 17.71-44.237-60.487z" fill="#8ca3b7"/><path d="m466.976 35.618c16.309-12.787 27.209-22.983 27.209-22.983 20.457 44.41 7.565 98.535-33.427 128.514l-200.481 146.621-17.71-24.215 189.988-138.946c31.028-22.693 37.869-53.315 34.421-88.991z" fill="#fff"/><path d="m466.976 35.618c.088-.069.173-.136.26-.205-5.959 4.679-12.654 9.711-19.804 14.723-1.879 24.83-11.529 46.396-34.877 63.472l-189.988 138.947-16.426 12.013 12.211 16.697 24.215-17.709 189.988-138.946c31.028-22.694 37.869-53.316 34.421-88.992z" fill="#6987a0"/><path d="m135.587 254.49 14.53-10.625-20.348-27.822 26.637-19.481 79.656 108.918-26.637 19.48-20.347-27.822-14.529 10.626z" fill="#ffc277"/><path d="m181.647 188.317h16.143v134.938h-16.143z" fill="#f69500" transform="matrix(.807 -.59 .59 .807 -114.412 161.317)"/><path d="m102.908 378.646c-1.133-10.639 3.486-21.076 12.122-27.392l59.5-43.515-38.943-53.248-79.91 58.442c-26.747 19.561-32.573 57.102-13.011 83.849z" fill="#c67f80"/><path d="m162.268 290.971-67.238 50.283c-8.636 6.316-13.255 16.753-12.122 27.392l1.773 15.487 18.227-5.487c-1.133-10.639 3.486-21.076 12.122-27.392l59.5-43.515z" fill="#a95759"/><circle cx="327.923" cy="433.832" fill="#ffc277" r="22.531"/></g><g><path d="m500.998 9.498-4.348-9.434-7.588 7.094c-.37.346-37.473 34.857-76.205 55.752-38.408 20.72-70.208 26.457-70.519 26.511l-1.729.3-33.844 24.752 8.855 12.107 31.066-22.721c7.53-1.522 37.418-8.396 73.29-27.748 14.307-7.718 28.21-17.041 40.283-25.938.129 14.493-2.046 26.812-6.595 37.372l13.775 5.935c6.542-15.187 8.955-33.036 7.352-54.452 6.631-5.286 12.228-10.021 16.396-13.648 13.366 39.713-.395 84.51-34.86 109.716l-194.424 142.193-8.855-12.107 183.935-134.52c9.132-6.679 16.703-14.34 22.502-22.769l-12.357-8.502c-4.841 7.036-11.232 13.483-19 19.164l-208.149 152.228-35.382-48.38 20.68-15.124 15.218 20.808 12.107-8.854-15.218-20.808 16.591-12.133 15.575 21.296 12.107-8.854-15.575-21.296 18.865-13.797 15.423 21.088 12.107-8.854-15.423-21.088 26.001-19.016-8.855-12.107-118.458 86.634-17.709-24.215-38.744 28.335 20.348 27.822-88.386 64.641c-4.608 3.371-8.767 7.297-12.356 11.67l11.592 9.52c2.792-3.399 6.028-6.456 9.62-9.083l73.856-54.014 30.087 41.14-53.448 39.086c-9.033 6.606-14.575 16.916-15.284 27.897l-49.468 14.893c-8.741-14.844-9.689-33.166-2.27-48.98l-13.58-6.371c-9.189 19.586-8.389 42.166 1.735 60.858-4.652 2.528-10.519 6.433-15.931 12.127-10.299 10.835-20.93 30.301-13.093 61.504 5.149 20.502 19.573 35.069 40.614 41.018 7.116 2.012 14.771 3.012 22.839 3.012 13.317 0 27.754-2.728 42.713-8.136 24.95-9.021 49.667-25.05 71.417-46.296.663-.633 64.35-60.46 119.334-32.947-1.121 3.145-1.737 6.529-1.737 10.054 0 16.559 13.472 30.031 30.031 30.031 8.139 0 15.527-3.259 20.941-8.535l39.872 22.504 7.373-13.062-39.439-22.259c.209-.691.39-1.393.55-2.104l45.308-6.75-2.211-14.836-43.601 6.496c-3.681-12.423-15.192-21.516-28.794-21.516-7.58 0-14.507 2.828-19.797 7.477-26.432-14.034-58.013-12.96-91.85 3.26-23.422 11.228-40.652 26.149-45.226 30.307-18.163 7.139-66.42 21.789-91.278 11.224-6.574-2.795-10.955-7.1-13.391-13.161-7.827-19.473-2.746-35.663 3.728-46.555l40.914-12.317-.658-6.183c-.847-7.951 2.637-15.823 9.092-20.544l67.994-49.688 20.348 27.822 38.744-28.335-17.71-24.215 12.107-8.855 17.71 24.215 206.534-151.048c43.018-31.461 58.079-89.375 35.816-137.708zm-173.075 409.303c8.288 0 15.031 6.743 15.031 15.031s-6.743 15.031-15.031 15.031-15.031-6.743-15.031-15.031 6.743-15.031 15.031-15.031zm-275.459 29.7c3.942 9.809 11.156 17 21.44 21.372 8.289 3.524 18.068 4.892 28.26 4.892 12.9 0 26.458-2.193 38.488-4.982-32.416 21.848-67.222 31.288-93.246 23.929-15.882-4.49-26.307-14.946-30.146-30.238-11.542-45.954 25.6-58.863 27.644-59.533l6.125-1.844c-4.169 12.168-5.89 28.179 1.435 46.404zm158.587-134.022-20.348-27.822-14.529 10.625-30.106-41.165 14.529-10.626-20.348-27.822 14.529-10.626 70.801 96.81z"/><path d="m64.238 340.097h15v15h-15z" transform="matrix(.807 -.59 .59 .807 -191.358 109.373)"/></g></g></svg>