<svg id="Capa_1" enable-background="new 0 0 512 512" height="512" viewBox="0 0 512 512" width="512" xmlns="http://www.w3.org/2000/svg"><g><g><g clip-rule="evenodd" fill-rule="evenodd"><path d="m177.776 194.291v-30h30v30h96.449v-30h30v30h92.225v-100c0-16.5-13.5-30-30-30h-280.899c-16.5 0-30 13.5-30 30v100z" fill="#d56a4e"/><path d="m130.551 312h250.898v147.5c0 8.247-6.753 15-15 15h-220.898c-8.247 0-15-6.75-15-15zm-30 192.5h310.898v-310.209h-77.225v30h-30v-30h-96.449v30h-30v-30h-77.225v310.209z" fill="#ecc87d"/><path d="m42.999 474.5c0 16.5 13.503 30 30 30h27.552v-147.5c0 8.247-6.754 15-15 15h-42.552z" fill="#ecc87d"/><path d="m42.999 371.999h42.552c8.246 0 15-6.753 15-15v-44.999h-27.552c-16.5 0-30 13.5-30 30z" fill="#d56a4e"/><path d="m145.551 474.5h220.899c8.247 0 15-6.753 15-15v-102.5c0 8.247-6.753 15-15 15h-95.45v15h-30v-15h-95.45c-8.247 0-15-6.75-15-15v102.5c.001 8.25 6.754 15 15.001 15z" fill="#ecc87d"/><path d="m145.551 371.999h95.449v-15h30v15h95.45c8.247 0 15-6.753 15-15v-44.999h-250.899v45c0 8.25 6.753 14.999 15 14.999z" fill="#d56a4e"/><path d="m426.449 371.999h42.552v-29.999c0-16.497-13.5-30-30-30h-27.552v45c0 8.246 6.753 14.999 15 14.999z" fill="#d56a4e"/><path d="m411.449 504.5h27.552c16.497 0 30-13.503 30-30v-102.5h-42.552c-8.246 0-15-6.753-15-15z" fill="#ecc87d"/><path d="m241 386.999h30v-30h-30zm63.224-162.708h30v-60h-30zm-126.448 0h30v-60h-30z" fill="#f9ee92"/><path d="m138.051 64.291h-22.5c-16.5 0-30 13.5-30 30v100h22.5v-100c0-16.5 13.5-30 30-30z" fill="#ce3f29"/><path d="m100.551 194.291h22.5v310.209h-22.5z" fill="#d99460"/><path d="m145.551 474.5h22.5c-8.247 0-15-6.75-15-15v-87.501h-7.5c-8.247 0-15-6.75-15-15v102.501c0 8.25 6.753 15 15 15z" fill="#d99460"/><path d="m145.551 371.999h7.5v-59.999h-22.5v45c0 8.25 6.753 14.999 15 14.999z" fill="#ce3f29"/><path d="m42.999 474.5c0 16.5 13.503 30 30 30h22.5c-16.497 0-30-13.5-30-30v-102.5h-22.5z" fill="#d99460"/><path d="m42.999 371.999h22.5v-29.999c0-16.5 13.5-30 30-30h-22.5c-16.5 0-30 13.5-30 30z" fill="#ce3f29"/></g><g><path d="m396.449 139.291h-15v-15.001h15zm0-30.001h-15v-15h15z" fill="#fff"/></g></g><g><path d="m439.001 304.5h-20.052v-102.709h15v-107.5c0-20.678-16.822-37.5-37.5-37.5h-84.724v-4.291c0-28.948-23.551-52.5-52.5-52.5h-6.45c-28.948 0-52.5 23.552-52.5 52.5v4.291h-84.724c-20.678 0-37.5 16.822-37.5 37.5v29.999h15v-29.999c0-12.406 10.093-22.5 22.5-22.5h280.897c12.407 0 22.5 10.094 22.5 22.5v92.5h-77.225v-30h-45v30h-81.449v-30h-45v30h-77.223v-47.501h-15v62.501h15v102.709h-20.052c-20.677 0-37.5 16.822-37.5 37.5v132.5c0 20.678 16.822 37.5 37.5 37.5h255.95v-15h-220.898v-295.209h62.225v30h45v-30h81.449v30h45v-30h62.225v295.209h-30v15h65.052c20.677 0 37.5-16.822 37.5-37.5v-132.5c-.002-20.678-16.824-37.5-37.501-37.5zm-223.726-252c0-20.678 16.822-37.5 37.5-37.5h6.45c20.678 0 37.5 16.822 37.5 37.5v4.291h-81.449v-4.291zm-142.276 444.5c-12.406 0-22.5-10.094-22.5-22.5v-95.001h35.052c2.629 0 5.153-.458 7.5-1.29v118.791zm12.552-132.501h-35.051v-22.499c0-12.406 10.093-22.5 22.5-22.5h20.052v37.5c-.001 4.135-3.365 7.499-7.501 7.499zm114.724-147.708h-15v-45h15zm126.449 0h-15v-45h15zm92.225 102.709h20.052c12.406 0 22.5 10.094 22.5 22.5v22.499h-35.052c-4.136 0-7.5-3.364-7.5-7.499zm20.052 177.5h-20.052v-118.791c2.347.833 4.871 1.29 7.5 1.29h35.051v95.001c0 12.406-10.093 22.5-22.499 22.5z"/><path d="m343.949 497h15v15h-15z"/><path d="m162.551 94.291h186.897v15h-186.897z"/><path d="m388.949 459.5v-155h-265.898v155c0 12.406 10.094 22.5 22.5 22.5h220.898c12.406 0 22.5-10.094 22.5-22.5zm-250.898-140h235.898v37.5c0 4.135-3.364 7.499-7.5 7.499h-87.949v-15h-45v15h-87.949c-4.136 0-7.5-3.364-7.5-7.499zm125.449 44.999v15h-15v-15zm102.949 102.501h-220.898c-4.136 0-7.5-3.364-7.5-7.5v-81.291c2.347.833 4.871 1.29 7.5 1.29h87.949v15h45v-15h87.949c2.629 0 5.153-.458 7.5-1.29v81.291c0 4.136-3.364 7.5-7.5 7.5z"/></g></g></svg>