<svg id="Capa_1" enable-background="new 0 0 512 512" height="512" viewBox="0 0 512 512" width="512" xmlns="http://www.w3.org/2000/svg"><g><g><g clip-rule="evenodd" fill-rule="evenodd"><path d="m209.374 205.579c0 20.562 10.699 41.687 26.94 54.171h62.267c16.194-12.448 26.939-33.554 26.939-54.171 0-32.474-24.537-56.541-58.073-50.814-33.626-5.742-58.073 18.379-58.073 50.814z" fill="#ff5477"/><path d="m319.472 179.495c3.907 7.621 6.048 16.518 6.048 26.084 0 20.617-10.745 41.723-26.939 54.171h104.795c22.243-24.68 19.298-59.57-9.819-77.254-5.639-6.878-12.102-11.799-18.949-14.901-18.452-8.358-39.696-3.499-55.136 11.9z" fill="#ff5477"/><path d="m319.472 179.495c3.907 7.621 6.048 16.518 6.048 26.084 0 20.617-10.745 41.723-26.939 54.171h31.113c11.527-15.613 18.326-34.936 18.326-54.171 0-14.334-3.515-27.484-9.735-38.603-6.766 2.682-13.176 6.898-18.813 12.519z" fill="#ff0e42"/><path d="m212.306 186.939-76.933-65.217-20.28-.352c-10.162 11.269-10.583 34.104-1.5 43.259l-19.712 4.781c-6.987 13.471-1.627 35.671 9.473 42.235l-18.02 9.311c-3.6 14.741 6.861 35.043 19.2 38.793h131.78c-16.247-12.488-26.94-33.615-26.94-54.171 0-6.597 1.018-12.876 2.932-18.639z" fill="#ffee89"/><path d="m212.306 186.939-18.083-15.329c-4.724 10.073-7.349 21.576-7.349 33.969 0 19.235 6.799 38.558 18.326 54.171h31.113c-16.247-12.488-26.94-33.615-26.94-54.171.001-6.598 1.019-12.877 2.933-18.64z" fill="#ffe200"/><path d="m67.937 259.75 187.501 172.499 187.499-172.499z" fill="#fff"/><g fill="#ffaa81"><path d="m457.937 117.25v142.5h30v-142.5c0-49.5-40.5-90-90-90h-285c-49.5 0-90 40.5-90 90v142.5h30v-142.5c0-32.941 27.059-60 60-60h285c32.941 0 60 27.059 60 60z"/><path d="m116.85 304.749-48.913-45h-61v45zm326.087-44.999-48.913 45h109.912v-45z"/><path d="m116.85 304.749h-87.413l30 165.001c1.475 8.115 6.755 15 15 15h362.002c8.245 0 13.524-6.883 15-15l30-165.001h-87.413l-138.587 127.5z"/></g><path d="m390.323 129.174c-17.876 7.052-21.576 25.591-15.715 38.421 6.847 3.101 13.309 8.023 18.949 14.901 10.063-12.92 18.204-38.996-3.234-53.322zm-99.937 26.437c13.063-3.482 21.959-23.568 14.459-38.992-23.885-.154-37.398 15.474-37.398 38.146 8.308-1.419 16.023-1.026 22.939.846z" fill="#8ae897"/><path d="m6.937 259.75h22.5v45h-22.5z" fill="#ff905b"/><path d="m22.937 237.25v22.5h30v-22.5zm435 0v22.5h30v-22.5z" fill="#ff905b"/><path d="m51.937 304.749h-22.5l30 165.001c1.475 8.115 6.755 15 15 15h22.5c-8.245 0-13.524-6.885-15-15z" fill="#ff905b"/><path d="m67.937 259.75 187.501 172.499 14.999-13.799-172.5-158.7z" fill="#9ee6fa"/><path d="m209.374 205.579c0 20.562 10.699 41.687 26.94 54.171h22.5c-16.241-12.484-26.94-33.609-26.94-54.171 0-20.736 9.993-41.138 25.987-51.658-28.586-.097-48.487 22.395-48.487 51.658z" fill="#ff0e42"/></g></g><g><path d="m512 252.25h-16v-135c0-53.762-43.738-97.5-97.5-97.5h-285c-53.762 0-97.5 43.738-97.5 97.5v135h-16v60h23.741l28.88 158.842c2.3 12.655 11.294 21.158 22.379 21.158h158.5v-15h-21.201c-.328-1.721-.672-4.295-.844-7.862l-1.793-37.139h35.26l11.078 10.191 11.077-10.191h35.26l-1.793 37.139c-.172 3.567-.516 6.141-.843 7.861h-21.201v15h158.5c11.085 0 20.079-8.503 22.379-21.158l28.88-158.842h23.741zm-481-135c0-45.491 37.009-82.5 82.5-82.5h285c45.491 0 82.5 37.009 82.5 82.5v135h-15v-135c0-37.22-30.28-67.5-67.5-67.5h-247.5v15h247.5c28.949 0 52.5 23.551 52.5 52.5v135h-32.552c6.31-11.391 8.868-24.064 7.069-36.318-1.93-13.152-8.613-24.858-19.102-33.783l25.147-20.5-9.478-11.626-10.41 8.487c.343-3.546.294-7.175-.293-10.808-1.639-10.157-7.285-18.72-16.329-24.763l-3.266-2.183-3.654 1.442c-9.688 3.822-16.753 10.666-20.433 19.792-1.875 4.65-2.719 9.734-2.557 14.784-1.988-.335-3.998-.564-6.027-.665-13.239-.666-26.23 3.556-37.374 11.987-2.49-3.361-5.34-6.422-8.528-9.112-2.155-1.818-4.438-3.436-6.823-4.867 2.217-2.542 4.137-5.522 5.665-8.865 4.738-10.363 4.774-22.292.097-31.911l-2.037-4.19-4.659-.03c-13.124-.125-24.331 4.069-32.327 12.013-3.132 3.112-5.701 6.719-7.686 10.749-4.464-6.262-9.655-11.623-14.236-15.772l-10.07 11.117c6.957 6.302 12.314 12.886 15.744 19.228-12.823.285-24.63 4.56-34.074 12.529-5.177 4.368-9.454 9.718-12.743 15.747l-71.32-60.459-26.371-.457-2.286 2.535c-9.746 10.808-12.326 29.749-7.438 43.355l-13.29 3.224-1.572 3.031c-6.675 12.87-4.43 31.751 3.66 43.689l-12.027 6.21-.81 3.317c-2.588 10.596.54 23.302 6.796 33.073h-24.406v-135c0-28.949 23.551-52.5 52.5-52.5h22.5v-15h-22.5c-37.22 0-67.5 30.28-67.5 67.5v135h-15zm75.402 135c-7.061-2.98-14.364-15.899-13.691-26.373l12.269-6.339 107.402 22.77c1.937 3.474 4.128 6.805 6.548 9.942zm12.919-123.314 13.808.239 71.225 60.378c-.74 3.026-1.28 6.138-1.589 9.324l-83.996-40.352c-4.712-6.049-4.973-20.748.552-29.589zm-6 43.613 89.889 43.183c.49 3.273 1.209 6.534 2.14 9.751l-98.467-20.875c-6.111-4.628-10.103-18.829-6.982-28.804zm126.23 79.701c-13.494-11.353-22.114-29.389-22.114-46.671 0-14.261 5.483-27.066 15.042-35.132 9.119-7.693 20.969-10.56 34.269-8.289l1.262.215 1.262-.215c13.301-2.271 25.149.595 34.268 8.289 9.56 8.066 15.042 20.871 15.042 35.132 0 17.282-8.621 35.319-22.114 46.671zm58.862-113.237c-1.924 4.208-4.8 7.382-7.896 8.803-4.565-1.018-9.332-1.475-14.233-1.359 1.176-5.977 3.68-10.971 7.418-14.684 4.162-4.135 9.692-6.61 16.488-7.388.99 4.68.393 9.882-1.777 14.628zm35.17 66.566c0-8.558-1.573-16.749-4.504-24.174 8.725-7.196 18.962-10.838 29.288-10.316 11.394.57 21.752 6.159 29.953 16.162l.812.99 1.095.665c11.443 6.95 18.705 17.321 20.45 29.204 1.703 11.6-2.013 23.878-10.218 34.14h-83.37c10.318-13.379 16.494-30.293 16.494-46.671zm48.029-57.98c1.627-4.037 4.486-7.32 8.368-9.653 3.648 3.328 5.816 7.331 6.593 12.144 1.08 6.692-.766 14.078-3.742 20.254-3.644-3.244-7.57-5.967-11.703-8.142-1.509-4.72-1.365-10.019.484-14.603zm-366.612 119.651h50.575l32.608 30h-83.183zm177.309 116.595 1.612 33.405h-55.411l-5.417-45h46.613zm-142.414-11.595h68.089l5.417 45h-65.324zm81.392-15-4-33.225 36.114 33.225zm-20.526-45 5.418 45h-69.011l-8.182-45zm-43.383 156.158-6.574-36.159h64.404l4.623 38.397c.285 2.37.737 4.571 1.328 6.604h-56.159c-5.724 0-7.353-7.365-7.622-8.842zm129.095 1.703c.096 2.004.283 4.554.635 7.139h-49.502c-.768-.736-2.29-3.477-2.882-8.396l-4.407-36.604h54.329zm12.466-52.861-.915-18.947 20.595 18.947zm-121.209-150h336.54l-168.27 154.808zm285.76 150h-55.411l1.612-33.404 12.604-11.595h46.612zm20.526-45h68.09l-8.182 45h-65.325zm-45.417-15 36.114-33.224-4 33.224zm-65.217 60 20.594-18.946-.914 18.946zm88.302 15-4.407 36.604c-.592 4.919-2.114 7.661-2.882 8.396h-49.503c.352-2.584.538-5.135.635-7.138l1.828-37.862zm65.317 45h-56.159c.59-2.032 1.043-4.234 1.328-6.604l4.622-38.397h64.404l-6.574 36.159c-.268 1.477-1.897 8.842-7.621 8.842zm27.831-120h-69.011l5.417-45h71.775zm32.168-60h-83.183l32.608-30h50.575z"/><path d="m248.5 477.25h15v15h-15z"/><path d="m233.5 282.25h15v15h-15z"/><path d="m263.5 282.25h15v15h-15z"/></g></g></svg>