<svg id="Capa_1" enable-background="new 0 0 510.203 510.203" height="512" viewBox="0 0 510.203 510.203" width="512" xmlns="http://www.w3.org/2000/svg"><g><g><g><g><path d="m367.657 247.755v15.067h-75.064v89.203h135v-104.27z" fill="#78777c"/></g><g><path d="m315.123 329.495v-66.673h-22.53v89.203h135v-22.53z" fill="#58575b"/></g><g><path d="m142.561 262.822v-15.067h-59.984v104.27h135v-89.203z" fill="#78777c"/></g><g><path d="m105.108 329.495v-81.74h-22.531v104.27h135v-22.53z" fill="#58575b"/></g><g><path d="m292.593 97.742v45.176h75.064v14.84h59.936v-60.016z" fill="#78777c"/></g><g><path d="m389.777 135.638v-14.84h-75.064v-23.056h-22.12v45.176h75.064v14.84h59.936v-22.12z" fill="#58575b"/></g><g><path d="m142.561 142.918h75.016v-45.176h-135v60.016h59.984z" fill="#78777c"/></g><g><path d="m135.101 120.128v14.84h-29.733v-37.226h-22.791v60.016h59.984v-14.84h75.016v-22.79z" fill="#58575b"/></g><g><path d="m277.637 37.776h165v59.911h-165z" fill="#7bdaa9"/></g><g><path d="m300.102 75.283v-37.457l-22.509.018v59.911l165-.136v-22.453z" fill="#5fa6b0"/></g><g><path d="m322.609 472.639h75.016v30.063h-75.016z" fill="#c18d4b"/></g><g><path d="m112.593 472.639h75.016v30.063h-75.016z" fill="#c18d4b"/></g><g><path d="m112.593 472.639h21.423v30.063h-21.423z" fill="#9e5e28"/></g><g><path d="m322.609 472.639h21.423v30.063h-21.423z" fill="#9e5e28"/></g><g><path d="m97.633 352.695h104.976v119.944h-104.976z" fill="#78777c"/></g><g><path d="m120.423 449.85v-97.155h-22.79v119.944h104.976v-22.789z" fill="#58575b"/></g><g><path d="m307.933 352.695h104.976v119.944h-104.976z" fill="#78777c"/></g><g><path d="m330.395 449.85v-97.155h-22.79v119.944h104.976v-22.789z" fill="#58575b"/></g><g><path d="m82.577 157.759h59.984v89.904h-59.984z" fill="#7bdaa9"/></g><g><path d="m105.066 225.175v-67.417h-22.489v89.905h59.984v-22.488z" fill="#5fa6b0"/></g><g><path d="m367.632 157.759h59.961v89.904h-59.961z" fill="#7bdaa9"/></g><g><path d="m187.522 7.748h-74.697c-16.546 0-29.96 13.414-29.96 29.96h134.617c0-16.546-13.414-29.96-29.96-29.96z" fill="#c4e5f9"/></g><g><path d="m389.95 225.175v-67.417h-22.488v89.905h59.984v-22.488z" fill="#5fa6b0"/></g><g><path d="m135.061 7.748h-22.236c-16.546 0-29.96 13.414-29.96 29.96h22.236c0-16.546 13.414-29.96 29.96-29.96z" fill="#a4d7f5"/></g><g><path d="m397.485 7.748h-74.697c-16.546 0-29.96 13.414-29.96 29.96h134.617c.001-16.546-13.413-29.96-29.96-29.96z" fill="#c4e5f9"/></g><g><path d="m345.077 7.748h-22.236c-16.546 0-29.96 13.414-29.96 29.96h22.236c0-16.546 13.414-29.96 29.96-29.96z" fill="#a4d7f5"/></g><g><path d="m67.593 37.776h165v59.911h-165z" fill="#7bdaa9"/></g><g><path d="m90.101 75.283v-37.457l-22.508.018v59.911l165-.136v-22.453z" fill="#5fa6b0"/></g><g><path d="m142.561 142.918h225.096v119.904h-225.096z" fill="#6e91ef"/></g><g><path d="m165.098 240.286v-97.368h-22.537v119.904h225.096v-22.536z" fill="#194ed7"/></g><g><path d="m90.101 60.262h15v15h-15z" fill="#fff"/></g><g><path d="m120.101 60.262h15v15h-15z" fill="#fff"/></g><g><path d="m300.117 60.262h15v15h-15z" fill="#fff"/></g><g><path d="m330.117 60.262h15v15h-15z" fill="#fff"/></g></g></g><g><path d="m450.109 30.203-15.865.013c-4.187-20.638-23.385-32.074-44.143-29.968v15c12.928-.918 23.762 2.303 28.611 15.077h-117.078c3.062-8.767 11.409-15.077 21.207-15.077h52.261v-15h-52.261c-18.132 0-33.294 12.952-36.728 30.089l-16.004.013v74.91l14.984-.012v30.169h-60.017v-30.292l15.017-.012v-74.91l-15.866.013c-3.481-17.078-18.616-29.968-36.706-29.968h-74.696c-18.132 0-33.294 12.952-36.728 30.089l-16.003.013v74.91l14.983-.012v254.947h15.057v119.943h14.96v30.064h90.016v-30.064h15v-119.943h14.968v-89.873h60.017v89.873h15.056v119.943h14.96v30.064h90.017v-30.064h15v-44.88h-15v29.88h-89.977v-104.943h89.977v30.063h15v-30.063h14.968v-255.069l15.016-.012v-74.911zm-59.983 465h-60.017v-15.064h60.017zm-255.065-299.945v44.904h-44.984v-74.904h44.984v15h15v-29.841h210.096v104.904h-210.096v-60.063zm-22.236-180.01h74.696c9.763 0 18.086 6.359 21.174 15.077h-117.077c3.062-8.768 11.409-15.077 21.207-15.077zm-37.731 30.091 150-.124v44.911l-150 .123zm134.983 59.799v30.279h-75.016v14.841h-44.984v-45.022zm-29.968 390.065h-60.016v-15.064h60.016zm15-30.065h-89.976v-104.943h89.976zm14.968-119.943h-120v-90.032h44.984v15.159h75.016zm90.017-74.873h75.063v-15.159h44.937v90.032h-120zm75.063-105.064h44.937v74.904h-44.937zm44.937-15h-44.937v-14.841h-75.063v-30.182l120-.098zm15.015-60.132-150 .123v-44.91l150-.124z"/><path d="m405.126 405.258h15v15h-15z"/></g></g></svg>