<svg id="Capa_1" enable-background="new 0 0 490.927 490.927" height="512" viewBox="0 0 490.927 490.927" width="512" xmlns="http://www.w3.org/2000/svg"><g><g><path d="m251.839 396.268c-8.966-10.777-13.875-24.354-13.875-38.373v-350.395h-90v191l15.099 21.138c9.691 13.568 14.901 29.825 14.901 46.499v113.453c0 14.019 4.909 27.596 13.875 38.373l53.625 62.474 46.125-38.373z" fill="#c67f80"/><path d="m251.839 396.268c-8.966-10.777-13.875-24.354-13.875-38.373v-350.395h-20v350.395c0 18.653 6.57 36.823 18.5 51.164l.271.318 26.363 30.374-30.662 25.509 13.028 15.178 46.125-38.373z" fill="#a95759"/><path d="m356.963 38.5h-239v105.063h134.5l93.543 43.089s26.957-32.654 26.957-74.076c0-52.938-16-74.076-16-74.076z" fill="#bcbcc0"/><path d="m356.963 38.5h-19.108l6.838 20c3.572 9.272 8.27 26.678 8.27 54.076 0 19.701-7.756 37.468-14.136 48.749l-81.979-37.763h-138.885v20h134.5l93.543 43.089s26.957-32.654 26.957-74.076c0-52.937-16-74.075-16-74.075z" fill="#9c9a9f"/><path d="m356.963 38.5h-40s17 18.138 17 71.076c0 24.904-13.229 48.481-21 61.855l33.043 15.221s26.957-32.654 26.957-74.076c0-52.938-16-74.076-16-74.076z" fill="#fcad42"/><path d="m356.963 38.5h-19.108l6.838 20c3.572 9.272 8.27 26.678 8.27 54.076 0 19.701-7.756 37.468-14.136 48.749l-16.387-7.548c-3.291 6.9-6.725 12.919-9.477 17.654l33.043 15.221s26.957-32.654 26.957-74.076c0-52.938-16-74.076-16-74.076z" fill="#fe7732"/><path d="m177.963 270.437h60v90h-60z" fill="#d8fc7e"/><path d="m237.963 357.894v-87.457h-20v87.457c0 .849.029 1.696.056 2.543h19.944z" fill="#8ae897"/></g><g><g><path d="m362.944 33.974-2.251-2.974h-115.23v-31h-105v31h-30v120.063h30v49.841l16.496 23.094c8.834 12.369 13.504 26.94 13.504 42.14v101.801 11.652c0 5.451.663 10.897 1.97 16.188l14.563-3.598c-1.017-4.114-1.532-8.351-1.532-12.59v-11.652h45.771c1.831 12.123 6.932 23.623 14.839 33.127l34.831 40.133-34.56 28.751-48.775-56.825c-2.227-2.682-4.193-5.599-5.844-8.67l-13.212 7.104c2.135 3.97 4.678 7.739 7.561 11.203l58.509 68.167 57.69-47.995-44.717-51.519c-7.799-9.401-12.093-21.302-12.093-33.519v-206.833h5.355l97.295 44.817 3.677-4.454c1.17-1.418 28.673-35.234 28.673-78.851-.001-54.825-16.805-77.656-17.52-78.601zm-207.481-18.974h75v16h-75zm75 262.938v15h-45v-15zm0 45h-45v-15h45zm-45 15h45v15h-45zm45-75h-45.062c-.617-17.185-6.196-33.602-16.237-47.659l-13.702-19.182v-45.034h75v111.875zm113.126-85.658-20.057-9.239c7.58-13.679 17.931-35.321 17.931-58.466 0-12.719-.963-24.583-2.862-35.264l-14.768 2.625c1.745 9.817 2.63 20.798 2.63 32.639 0 20.079-9.691 39.82-16.597 52.171l-55.759-25.684h-128.644v-90.062h187.714c1.772 2.783 4.661 8.142 7.292 16.753l14.346-4.383c-1.501-4.915-3.109-9.009-4.653-12.37h22.594c1.394 2.588 3.414 6.881 5.423 13.055 3.323 10.217 7.285 27.795 7.285 53.521-.001 29.516-15.001 54.71-21.875 64.704z"/><path d="m237.963 428h14.875v15h-14.875z"/></g><path d="m238.088 97h-15v-15h15zm-30 0h-15v-15h15zm-30 0h-15v-15h15z" fill="#fff"/></g></g></svg>