<svg id="icons" height="512" viewBox="0 0 340 340" width="512" xmlns="http://www.w3.org/2000/svg" xmlns:xlink="http://www.w3.org/1999/xlink"><linearGradient id="linear-gradient" gradientUnits="userSpaceOnUse" x1="179.942" x2="219.408" y1="185.541" y2="68.094"><stop offset="0" stop-color="#737cd3"/><stop offset="1" stop-color="#98a1f1"/></linearGradient><linearGradient id="linear-gradient-2" x1="135.114" x2="174.579" xlink:href="#linear-gradient" y1="170.477" y2="53.031"/><linearGradient id="linear-gradient-3" gradientUnits="userSpaceOnUse" x1="135.31" x2="159.067" y1="214.322" y2="14.126"><stop offset="0" stop-color="#a5aeff"/><stop offset=".5" stop-color="#bee6ff"/><stop offset="1" stop-color="#f5ffff"/></linearGradient><linearGradient id="linear-gradient-4" x1="90.361" x2="82.662" xlink:href="#linear-gradient-3" y1="35.034" y2="198.263"/><linearGradient id="linear-gradient-5" x1="99.183" x2="60.6" xlink:href="#linear-gradient" y1="250.786" y2="185.493"/><linearGradient id="linear-gradient-6" x1="125.122" x2="42.266" xlink:href="#linear-gradient-3" y1="299.417" y2="252.916"/><linearGradient id="linear-gradient-7" x1="236.842" x2="292.638" xlink:href="#linear-gradient" y1="293.716" y2="246.824"/><linearGradient id="linear-gradient-8" x1="319.112" x2="249.405" xlink:href="#linear-gradient-3" y1="105.174" y2="187.095"/><linearGradient id="linear-gradient-9" x1="173.409" x2="255.33" xlink:href="#linear-gradient-3" y1="272.218" y2="174.211"/><linearGradient id="linear-gradient-10" x1="210.096" x2="260.945" xlink:href="#linear-gradient-3" y1="199.05" y2="369.95"/><linearGradient id="linear-gradient-11" x1="207.813" x2="141.843" xlink:href="#linear-gradient-3" y1="254.355" y2="275.609"/><linearGradient id="linear-gradient-12" x1="111.356" x2="190.299" xlink:href="#linear-gradient-3" y1="284.455" y2="288.044"/><linearGradient id="linear-gradient-13" x1="118.284" x2="130.296" xlink:href="#linear-gradient-3" y1="129.789" y2="266.817"/><path d="m210.671 33.552 30.594 123.103-67.015 87.046-31.2-101.979z" fill="url(#linear-gradient)"/><path d="m132.731 89.641 77.94-56.089-45.162 120.189-25.858-43.341z" fill="url(#linear-gradient-2)"/><path d="m102.137 30.639 69.475 81.582 16.478 120.553-56.843 34.829-43.678-96.744z" fill="url(#linear-gradient-3)"/><path d="m104.322 249.528-44.069-86.682 41.884-132.207 3.862 136.725z" fill="url(#linear-gradient-4)"/><path d="m37.672 162.846 69.2 54.632-9.834 41.975-30.593-17.749z" fill="url(#linear-gradient-5)"/><path d="m128.151 309.362h-51.508l-44.641-80.463 84.704 28.642z" fill="url(#linear-gradient-6)"/><path d="m206.874 309.362h14.636l72.095-24.954 14.392-38.75-54.954-3.954z" fill="url(#linear-gradient-7)"/><path d="m206.874 164.92 21.664 63.979 53.636-8.156v-112.868z" fill="url(#linear-gradient-8)"/><path d="m206.874 164.92-47.267 91.6 4.238 52.842h34.739l34.694-88.619z" fill="url(#linear-gradient-9)"/><path d="m233.278 220.743h48.896l-75.3 88.619h-29.58z" fill="url(#linear-gradient-10)"/><path d="m163.845 225.226-49.205 45.267 33.232 38.869h23.588z" fill="url(#linear-gradient-11)"/><path d="m92.456 259.453 38.791 8.15 4.564 6.519 16.951 35.24h-24.611z" fill="url(#linear-gradient-12)"/><path d="m111.509 172.876-19.053 86.577 43.355 14.669 28.034-48.896z" fill="url(#linear-gradient-13)"/><path d="m177.294 312.468h44.215a3.109 3.109 0 0 0 1.016-.171l72.1-24.954a3.112 3.112 0 0 0 1.9-1.854l14.385-38.749a3.107 3.107 0 0 0 -2.69-4.18l-38.174-2.747 14.5-17.059a3.1 3.1 0 0 0 .738-2.01v-112.869a3.106 3.106 0 0 0 -4.984-2.475l-40.875 30.966-25.739-103.566h-.007a3.1 3.1 0 0 0 -4.822-1.772l-63.433 45.651-40.924-48.054a3.1 3.1 0 0 0 -5.324 1.075l-41.884 132.208a3.108 3.108 0 0 0 .192 2.346l8.727 17.165-26.611-21.01a3.106 3.106 0 0 0 -4.843 3.5l26.072 71.455-27.829-9.408a3.106 3.106 0 0 0 -3.711 4.449l44.64 80.463a3.106 3.106 0 0 0 2.717 1.6zm-42.907-42.107-38.299-12.961 17.236-78.319 46.644 46.658zm-20.681-99.681a3.1 3.1 0 0 0 -4.5.12l-3.715-131.432 63.166 74.175 12.779 93.9-13.682 26.515-.816-9.012-.008-.007a3.087 3.087 0 0 0 -.889-1.909zm93.046 1.249 22.988 48.6-54.157 85.727h-1.283l-5.5-60.771zm96.891 76.53-12.443 33.493-70.216 24.3h-7.4l51.469-60.572zm-98.206 57.8h-22.507l52.06-82.406h40.469zm73.631-88.618h-43.823l-24.485-51.768 68.308-51.748zm-74.068-55.197c-.011.009-.019.02-.03.028a3.11 3.11 0 0 0 -.4.371c-.031.035-.058.072-.088.107a3.3 3.3 0 0 0 -.242.339c-.028.045-.057.09-.083.136-.013.025-.03.046-.043.071l-17.676 34.254-9.109-66.634 32.737-87.116 23.97 96.451zm-.846-120.373-28.593 76.1-.87-6.365a3.1 3.1 0 0 0 -.712-1.593l-24.514-28.788zm-126.668 147.817-13.886-27.316 35.951-113.484 4.1 145.06-3.155 14.336-22.777-17.979a3.084 3.084 0 0 0 -.233-.617zm-33.141-17.816 54.664 43.156-6.77 30.761-23.869-8.072zm-5.731 62.341 52.286 17.679-1.473 6.694a3.089 3.089 0 0 0 .51 2.458v.017l32.18 44.994h-43.646zm93.257 71.842h-2.123l-29.16-40.771 32.99 11.162 14.243 29.609zm22.843 0-15.4-32.006 22.32-38.932 6.421 70.938z" fill="#3c3c4f"/></svg>