<svg id="Capa_1" enable-background="new 0 0 512 512" height="512" viewBox="0 0 512 512" width="512" xmlns="http://www.w3.org/2000/svg"><g><g><path d="m301.427 228.669-77.347 110.589h-14.23c-96.175-46.452-102.472-177.25-40.41-221.169h54.64z" fill="#e4996d"/><path d="m209.85 339.258h-93.46c-12.38 0-23.82-6.61-30.01-17.33l-43.84-75.93c-6.19-10.72-6.19-23.93 0-34.66l43.84-75.93c6.19-10.72 17.63-17.32 30.01-17.32h53.05c-40.369 63.391-33.229 163.051 40.41 221.17z" fill="#df8a57"/><path d="m237.67 239.319-29.49 51.09h-40.64c-43.8-30.109-43.8-103.242-15.44-134.129h37.63c7.61 0 14.64 4.06 18.45 10.65l29.49 51.09c3.81 6.589 3.81 14.709 0 21.299z" fill="#fdc072"/><path d="m167.54 290.409h-55.25l-29.5-51.09c-3.8-6.59-3.8-14.71 0-21.3l29.5-51.09c3.8-6.59 10.84-10.65 18.45-10.65h21.36c-12.729 42.38-8.759 91.94 15.44 134.13z" fill="#fab658"/><path d="m210.31 282.589c0 2.61-.67 5.29-2.13 7.82-3.81 6.59-10.84 10.65-18.45 10.65h-18.43c-7.79 0-14.09 6.31-14.09 14.09v36.73c0 3.08-.71 5.98-1.99 8.56-36.78-19.463-33.076-79.313-8.1-93.58h47.46c9.17 0 15.73 7.53 15.73 15.73z" fill="#fbf198"/><path d="m155.22 360.438c-.94 1.92-2.19 3.65-3.69 5.15-3.51 3.51-8.35 5.68-13.71 5.68-10.71 0-19.38-8.68-19.38-19.39v-50.82l-6.15-10.65c-6.05-10.46 1.51-23.55 13.59-23.55h21.24c-17.109 26.111-16.549 66 8.1 93.58z" fill="#fad989"/><path d="m469.459 135.409-53.84 93.26-1.786 1.347-2.373-1.347c-93.69-38.678-104.67-176.294-42.021-221.169h26.17c12.38 0 23.82 6.61 30.01 17.33l43.84 75.93c6.19 10.719 6.19 23.929 0 34.649z" fill="#e4996d"/><path d="m411.459 228.669-59.84 14.969-63.7-14.969-63.84-110.579 53.84-93.26c6.19-10.72 17.63-17.33 30.01-17.33h61.51c-39.959 63.75-32.289 163.419 42.02 221.169z" fill="#df8a57"/><path d="m469.459 356.578-43.84 75.93c-6.19 10.73-17.63 17.33-30.01 17.33h-6.11c-94.315-40.054-107.772-171.986-42.03-221.169h68.15l53.84 93.26c6.19 10.719 6.19 23.929 0 34.649z" fill="#e4996d"/><path d="m389.499 449.838h-81.57c-12.38 0-23.82-6.6-30.01-17.33l-53.84-93.25 63.84-110.589h59.55c-39.949 63.74-32.279 163.419 42.03 221.169z" fill="#df8a57"/><path d="m429.209 349.908-32.82 56.84h-46.28c-43.32-31.19-50.245-109.882-19.69-139.889h50.84c7.61 0 14.65 4.07 18.45 10.66l29.5 51.08c3.8 6.599 3.8 14.719 0 21.309z" fill="#fdc072"/><path d="m350.11 406.748h-42.96l-32.82-56.84c-3.81-6.59-3.81-14.71 0-21.31l29.49-51.08c3.81-6.59 10.84-10.66 18.45-10.66h8.15c-13.07 44.43-7.86 96.61 19.69 139.89z" fill="#fab658"/><path d="m398.909 397.488c0 3.09-.79 6.27-2.52 9.26-1.85 3.21-2.83 6.85-2.83 10.55v67.81c0 10.95-9.06 19.77-20.09 19.38-10.5-.38-18.68-9.33-18.68-19.84v-8.79c0-4.46-2.58-8.33-6.33-10.18-32.203-21.164-20.334-72.312 3.16-86.79h28.69c10.84 0 18.6 8.9 18.6 18.6z" fill="#fbf198"/><path d="m348.46 465.678c-1.52-.76-3.23-1.18-5.03-1.18h-6.7c-14.78 0-26.76-11.98-26.76-26.76v-20.44c0-3.7-.97-7.34-2.82-10.55-7.15-12.38 1.78-27.86 16.08-27.86h28.39c-15.77 23.71-21.06 59.81-3.16 86.79z" fill="#fad989"/><path d="m429.209 128.739-29.5 51.08h-31.15c-44.974-23.54-48.544-101.566-16.17-134.129h28.87c7.61 0 14.65 4.06 18.45 10.66l29.5 51.08c3.8 6.589 3.8 14.719 0 21.309z" fill="#fdc072"/><path d="m368.559 179.819h-64.74l-29.49-51.08c-3.81-6.59-3.81-14.72 0-21.31l29.49-51.08c3.81-6.6 10.84-10.66 18.45-10.66h30.12c-12.509 42.481-8.299 92.04 16.17 134.13z" fill="#fab658"/><path d="m402.099 171.019c0 2.94-.75 5.96-2.39 8.8-1.9 3.3-4.61 5.96-7.8 7.8-3.18 1.84-6.85 2.86-10.65 2.86-4.85 0-8.78 3.93-8.78 8.78v15.83c0 6.23-2.75 11.81-7.1 15.6-29.588-15.451-31.976-62.159-12.75-77.37h31.78c10.31 0 17.69 8.47 17.69 17.7z" fill="#fbf198"/><path d="m365.379 230.689c-3.81 3.34-8.86 5.3-14.37 5.1-11.22-.4-19.95-9.97-19.95-21.2v-15.33c0-2.42-.98-4.62-2.58-6.21-1.59-1.59-3.78-2.57-6.21-2.57-7.61 0-14.64-4.06-18.45-10.66-6.8-11.77 1.7-26.5 15.3-26.5h33.51c-12.239 22.92-9.709 55.75 12.75 77.37z" fill="#fad989"/></g><path d="m475.942 318.163-51.674-89.503 51.674-89.503c7.506-13.001 7.506-29.154 0-42.155l-13.931-24.13c-2.071-3.587-6.658-4.817-10.245-2.745-3.587 2.071-4.816 6.657-2.745 10.245l13.931 24.13c4.835 8.375 4.835 18.781 0 27.156l-51.674 89.503h-31.96c.43-1.973.658-4.007.658-6.081v-15.831c0-.706.575-1.281 1.281-1.281 10.257 0 19.816-5.518 24.945-14.402l29.493-51.084c5.129-8.884 5.129-19.921 0-28.804l-29.493-51.084c-5.129-8.883-14.688-14.401-24.945-14.401h-58.986c-10.258 0-19.816 5.518-24.945 14.402l-29.493 51.084c-5.129 8.883-5.129 19.92 0 28.804l29.493 51.084c5.13 8.884 14.688 14.402 24.945 14.402.707 0 1.281.575 1.281 1.281v15.335c0 2.256.272 4.458.773 6.577h-32.075l-59.513-103.082 51.674-89.503c4.835-8.375 13.847-13.578 23.517-13.578h87.671c9.67 0 18.682 5.203 23.517 13.578l12.405 21.485c2.071 3.588 6.657 4.817 10.245 2.745 3.587-2.071 4.816-6.657 2.745-10.245l-12.405-21.485c-7.505-13.001-21.494-21.077-36.507-21.077h-87.671c-15.013 0-29.001 8.076-36.507 21.078l-51.674 89.503h-103.347c-15.012 0-29.001 8.076-36.507 21.078l-43.835 75.925c-7.506 13.001-7.506 29.154 0 42.155l14.833 25.691c2.083 3.621 6.721 4.797 10.245 2.745 3.587-2.071 4.816-6.657 2.745-10.245l-14.833-25.691c-4.835-8.375-4.835-18.78 0-27.156l43.835-75.925c4.835-8.375 13.847-13.578 23.517-13.578h103.347l59.514 103.081-59.514 103.08h-55.037v-16.604c0-3.633 2.955-6.589 6.589-6.589h18.429c10.256 0 19.811-5.516 24.941-14.395.005-.008 29.498-51.09 29.498-51.09 5.129-8.883 5.129-19.92 0-28.804l-29.493-51.083c-5.128-8.884-14.687-14.403-24.945-14.403h-58.986c-10.258 0-19.817 5.519-24.945 14.402l-29.493 51.084c-5.129 8.884-5.129 19.921 0 28.804l34.638 59.994v28.123c-7.576-1.572-14.162-6.204-18.06-13.017l-11.503-19.924c-2.071-3.587-6.658-4.817-10.245-2.745-3.587 2.071-4.816 6.657-2.745 10.245l11.488 19.898c6.582 11.505 18.066 19.037 31.064 20.763v5.466c0 14.824 12.06 26.884 26.884 26.884s26.884-12.06 26.884-26.884v-5.126h55.037l51.674 89.503c7.62 13.221 21.983 21.332 37.235 21.077 6.2 8.853 16.468 14.658 28.072 14.658h6.695c2.131 0 3.865 1.734 3.865 3.865v8.785c0 14.809 11.381 26.815 25.911 27.331 14.773.865 28.193-12.054 27.858-26.866v-28.113c12.997-1.726 24.48-9.254 31.049-20.737l43.835-75.925c7.507-13.001 7.507-29.154.001-42.155zm-386.648-96.405 29.493-51.084c2.458-4.257 7.039-6.902 11.956-6.902h58.986c4.916 0 9.498 2.645 11.956 6.903l29.493 51.083c2.458 4.258 2.458 9.548 0 13.806l-18.645 32.293c-4.363-5.376-10.835-8.504-17.946-8.504h-68.701c-7.111 0-13.584 3.127-17.946 8.503l-18.645-32.294c-2.459-4.257-2.459-9.547-.001-13.804zm60.417 130.108c0 6.553-5.331 11.885-11.885 11.885s-11.885-5.331-11.885-11.885v-50.819c0-1.316-.347-2.61-1.005-3.75l-6.146-10.643c-2.137-3.711-.715-6.972-.004-8.203.711-1.232 2.828-4.098 7.098-4.098h68.701c4.271 0 6.386 2.866 7.098 4.098.711 1.232 2.135 4.497.001 8.195-2.459 4.258-7.04 6.903-11.956 6.903h-18.429c-11.904 0-21.588 9.685-21.588 21.588zm131.112-240.688 29.493-51.084c2.458-4.257 7.039-6.902 11.956-6.902h58.986c4.916 0 9.497 2.645 11.956 6.902l29.493 51.084c2.458 4.257 2.458 9.547 0 13.805l-17.987 31.154c-4.718-6.503-12.125-10.32-20.312-10.32h-65.287c-8.186 0-15.593 3.817-20.312 10.32l-17.986-31.153c-2.458-4.259-2.458-9.549 0-13.806zm41.448 71.791c-4.916 0-9.497-2.645-11.956-6.903-1.838-3.182-1.838-6.984 0-10.167s5.13-5.084 8.805-5.084h65.287c3.676 0 6.967 1.9 8.805 5.084 1.838 3.183 1.838 6.984 0 10.167-2.458 4.258-7.04 6.903-11.956 6.903-8.977 0-16.28 7.303-16.28 16.28v15.831c.158 7.291-6.419 13.618-13.701 13.204-7.016-.25-12.724-6.396-12.724-13.701v-15.335c.001-8.976-7.303-16.279-16.28-16.279zm79.416 199.581c-4.867-7.031-12.705-11.173-21.386-11.173h-57.072c-8.681 0-16.519 4.142-21.386 11.173l-21.02-36.407c-2.458-4.258-2.458-9.547 0-13.805l29.493-51.084c2.458-4.258 7.039-6.903 11.956-6.903h58.986c4.916 0 9.497 2.645 11.956 6.903l29.493 51.084c2.458 4.258 2.458 9.547 0 13.805zm-15.629 102.542c.141 6.56-5.771 12.247-12.325 11.877-6.311-.225-11.445-5.761-11.445-12.342v-8.785c0-10.401-8.462-18.864-18.864-18.864h-6.695c-10.619 0-19.258-8.639-19.258-19.258v-20.439c0-5.013-1.325-9.957-3.831-14.298-2.001-3.467-2.001-7.606 0-11.072 2.001-3.467 5.586-5.536 9.588-5.536h57.072c4.003 0 7.587 2.069 9.588 5.536 2.001 3.466 2.001 7.605 0 11.072-2.506 4.341-3.831 9.285-3.831 14.298v67.811zm76.894-132.274-43.85 75.951c-3.887 6.793-10.47 11.425-18.045 12.995v-24.483c0-2.384.63-4.734 1.821-6.798.001-.002 32.817-56.841 32.817-56.841 5.129-8.883 5.129-19.92 0-28.804l-29.493-51.084c-5.13-8.883-14.688-14.402-24.945-14.402h-58.986c-10.258 0-19.816 5.519-24.945 14.402l-29.493 51.084c-5.129 8.883-5.129 19.92 0 28.804l32.817 56.841c1.191 2.064 1.821 4.414 1.821 6.798v20.439c0 1.384.092 2.747.253 4.089-7.614-1.497-14.36-6.219-18.313-13.066l-51.674-89.503 59.514-103.08h41.032c4.727 4.216 10.818 6.877 17.46 7.113 7.296.269 14.331-2.258 19.765-7.113h40.77l51.674 89.503c4.836 8.375 4.836 18.78 0 27.155z"/></g></svg>