<svg id="Layer_1" viewBox="0 0 128 128" xmlns="http://www.w3.org/2000/svg" data-name="Layer 1"><path d="m43.94 98.94c-.41-.59-.79-1.18-1.17-1.76a29.01285 29.01285 0 0 0 -6.25-2.81c-.74-.24-1.51-.46-2.31-.67a24.21987 24.21987 0 0 1 -8.11-3.4c-3-2.12-4.08-3.88-4.1-4.81a2.05314 2.05314 0 0 1 .02-.35.80048.80048 0 0 1 .03-.15 1.11473 1.11473 0 0 1 .08-.3 1.62613 1.62613 0 0 1 .11-.31 4.77607 4.77607 0 0 1 1.48-1.77 10.62386 10.62386 0 0 1 1.74-1.13h.01a34.7978 34.7978 0 0 0 9.88 2.01 9.81766 9.81766 0 0 1 .57 1.13 22.55481 22.55481 0 0 0 -3.67-1.13 1.9996 1.9996 0 0 0 -.84 3.91 23.351 23.351 0 0 1 7.41 3.19q-.285-.50995-.54-1.02c.75 1.42 1.61 2.95 2.59 4.56.68 1.12 1.42 2.29 2.21 3.5z" fill="#98e07e"/><path d="m100.59 87.4c-6.18 1.33-11.85 6.17-15.31 9.71a86.45239 86.45239 0 0 0 5.56-9.78 27.61743 27.61743 0 0 1 8.91-3.84 1.98393 1.98393 0 0 1 2.37 1.53 2.00654 2.00654 0 0 1 -1.53 2.38z" fill="#2d4356"/><path d="m38.82 90.59a23.351 23.351 0 0 0 -7.41-3.19 1.9996 1.9996 0 0 1 .84-3.91 22.92139 22.92139 0 0 1 3.7 1.14c.04.1.09.2.13.31.07.16.15.33.24.52a52.97257 52.97257 0 0 0 2.5 5.13z" fill="#2d4356"/><path d="m23.99 44.32a10.18439 10.18439 0 0 1 -1.07-1.54 7.34665 7.34665 0 0 1 -.83-4.51 2.00814 2.00814 0 0 1 2.25-1.71c.02 0 .03.01.05.01a47.681 47.681 0 0 0 -.4 7.75z" fill="#2d4356"/><path d="m105.08 42.78a9.67961 9.67961 0 0 1 -1.11 1.57 46.86839 46.86839 0 0 0 -.39-7.77.23622.23622 0 0 1 .08-.02 2.0026 2.0026 0 0 1 2.25 1.71 7.34665 7.34665 0 0 1 -.83 4.51z" fill="#2d4356"/><path d="m58.14 20.07c-.16.84-.29 1.65-.37 2.42a.17555.17555 0 0 1 -.04.05 3.46078 3.46078 0 0 0 -1.06 1.81 8.91119 8.91119 0 0 0 -.11 1.54 12.5679 12.5679 0 0 1 -.2 2.28 7.07242 7.07242 0 0 1 -2.67 4.01l-.38.34c-.97.88-2.79 2.52-2.83 3.64a30.57125 30.57125 0 0 0 .27 4.22c.16-.14.32-.28.47-.41.5-.41 1.01-.76 1.5-1.09a9.52231 9.52231 0 0 0 1.58-1.23 4.24279 4.24279 0 0 0 1.05-2.38 1.98277 1.98277 0 0 1 2.16-1.74c-.1.57-.42 1.61-.42 1.61a21.96825 21.96825 0 0 0 -1.09 6.32c-.35.27-.71.51-1.04.73-.43.29-.83.57-1.17.85-1.89 1.58-2.14 2.44-2.12 2.82a24.01473 24.01473 0 0 1 .33 4.09 2.28563 2.28563 0 0 1 -.01.37 14.10311 14.10311 0 0 1 -.43 3.07 2.02747 2.02747 0 0 1 -2.45 1.42 2.00672 2.00672 0 0 1 -1.42-2.45 9.69528 9.69528 0 0 0 .3-2.16 3.779 3.779 0 0 0 -1.95-2.4c-.36-.25-.71-.49-1.02-.75-.35-.29-.75-.56-1.18-.85a13.64569 13.64569 0 0 1 -2.25-1.8 8.26112 8.26112 0 0 1 -2.1-4.63 1.99675 1.99675 0 0 1 1.73-2.24 2.017 2.017 0 0 1 2.24 1.74 4.27089 4.27089 0 0 0 1.04 2.38 10.09106 10.09106 0 0 0 1.59 1.24c.37.25.75.52 1.12994.81-.24-1.33-.48-2.85-.62-4.47-.02-.98-1.81995-2.56-2.78-3.42l-.71-.63a7.12131 7.12131 0 0 1 -2.67-4.01 12.57338 12.57338 0 0 1 -.2-2.28 8.98744 8.98744 0 0 0 -.11-1.54 3.3964 3.3964 0 0 0 -1.06-1.81 2.00057 2.00057 0 0 1 2.67-2.98 7.44368 7.44368 0 0 1 2.3 3.96 11.18677 11.18677 0 0 1 .2 2.3 7.91884 7.91884 0 0 0 .12 1.53c.14.69.54 1.06 1.42 1.85l.68994.62c.07.06.16.14.23.21.06-.4.11-.79.18-1.19 1.69-9.07-2.43-17.29-2.47-17.37a1.9947 1.9947 0 1 1 3.55-1.82 34.63764 34.63764 0 0 1 3.27 16.36 3.04437 3.04437 0 0 0 1.21-1.66 7.96017 7.96017 0 0 0 .12-1.54 11.899 11.899 0 0 1 .2-2.29 7.4073 7.4073 0 0 1 2.3-3.96 2.00633 2.00633 0 0 1 2.83.15 2.11955 2.11955 0 0 1 .25012.36z" fill="#2d4356"/><path d="m90.49 57.5a31.51729 31.51729 0 0 1 -7.99 5.17 2.64641 2.64641 0 0 0 -.64.4c-1.27 1.11-5.61 5.8-6.68 15.88 0 .02-3.91 28.50995-1.18 42.9a.953.953 0 0 1 -.52 1.04 32.96166 32.96166 0 0 1 -3.46 1.11.94588.94588 0 0 1 -.94-.97c.13-7.89.41-39.81 4.87-53.12a.94274.94274 0 0 1 .03-.09c.09-.49005 1.86-4.97.22-8.17a4.19292 4.19292 0 0 0 -1.37-1.53c-2.61-1.85-11.32-12.9-8.14-22.45 0 0 1.53-3.65.98-10.3 0 0-.87-7.74 3.39-12.28 0 0 6.36-6.65 9.38-10.71a.97469.97469 0 0 1 .94-.36c2.32.48 10.76 2.72 13.02 10.1a.9682.9682 0 0 1 .04.38c-.16 1.45-1.05 10.84 1.75 16.05a.67817.67817 0 0 1 .03.08c.33.87 5.6 19.25-3.73 26.87z" fill="#98e07e"/><path d="m86.25911 22.55722a7.42179 7.42179 0 0 0 -2.30374 3.961 11.863 11.863 0 0 0 -.20117 2.29838 8.6483 8.6483 0 0 1 -.11426 1.53665c-.14258.68507-.53809 1.06105-1.418 1.8472l-.69141.61671c-.07465.066-.15808.14148-.2359.21064-.05237-.39588-.103-.79164-.17719-1.19063-1.68068-9.03825 2.40823-17.23468 2.47366-17.36408a1.99972 1.99972 0 0 0 -3.55766-1.82718c-.19629.38184-4.79107 9.47819-2.84866 19.92271a24.78366 24.78366 0 0 1 .06018 7.812c-.15839-.14-.31745-.28022-.46937-.40705a18.192 18.192 0 0 0 -1.49318-1.09035 9.61417 9.61417 0 0 1 -1.583-1.23147 4.25154 4.25154 0 0 1 -1.04884-2.38627 2 2 0 1 0 -3.96879.49806 8.26769 8.26769 0 0 0 2.10647 4.63192 12.95152 12.95152 0 0 0 2.249 1.79788c.42676.28956.83009.563 1.17482.85109 1.888 1.57559 2.14022 2.43565 2.11593 2.81939a18.14285 18.14285 0 0 0 .11359 7.52552 2.00024 2.00024 0 1 0 3.86531-1.03134c-.67286-2.522-.14453-5.36338.36621-8.11147l.09375-.50538c.24793-1.34322.48639-2.87462.62818-4.51577.02747-.97273 1.82235-2.55937 2.78592-3.41211l.70606-.62989a7.09532 7.09532 0 0 0 2.668-4.00984 11.93321 11.93321 0 0 0 .19824-2.28324 8.68734 8.68734 0 0 1 .11426-1.54153 3.45051 3.45051 0 0 1 1.05763-1.81009 1.99982 1.99982 0 0 0 -2.666-2.9815z" fill="#2d4356"/><path d="m37.55 67.46c-.02.02-.02.04-.03.05a2.08554 2.08554 0 0 1 -.8.68 1.97259 1.97259 0 0 1 -.86.2 2.00151 2.00151 0 0 1 -1.12-.35 18.12312 18.12312 0 0 1 -5.01-5.64c-.23-.31-.98-.81-3.49-.77-.45 0-.94.06-1.45.11a13.02592 13.02592 0 0 1 -2.9.1 8.35392 8.35392 0 0 1 -4.63-2.15 2.00023 2.00023 0 0 1 2.68-2.97 4.32931 4.32931 0 0 0 2.38 1.14c.61.07 4.31-.22 4.52-.22a29.65115 29.65115 0 0 0 -2.56-3.39c-.75-.81-3.23-.88-4.56006-.91l-.5-.02a7.13869 7.13869 0 0 1 -4.66-1.31 11.37465 11.37465 0 0 1 -1.64-1.6 8.63193 8.63193 0 0 0 -1.1-1.09 3.51586 3.51586 0 0 0 -2.01-.7 1.9915 1.9915 0 0 1 -1.95-2.04 1.96856 1.96856 0 0 1 2.04006-1.96 7.49855 7.49855 0 0 1 4.34 1.51 12.19326 12.19326 0 0 1 1.66 1.61 8.73535 8.73535 0 0 0 1.09 1.1 3.17748 3.17748 0 0 0 2.03.48 34.485 34.485 0 0 1 -8.18-14.53 1.99979 1.99979 0 1 1 3.89-.93c.02.09 2.24 8.99 9.46 14.78a.83179.83179 0 0 1 .34.42 4.48163 4.48163 0 0 1 .06.64c.06.41.14.81.23 1.22a26.84378 26.84378 0 0 0 2.55 6.74 21.32458 21.32458 0 0 0 4.47 5.52 52.85425 52.85425 0 0 0 4.38 3.41c.43.3.88.6 1.33.87z" fill="#2d4356"/><path d="m46.94 107.23a24.36514 24.36514 0 0 0 -2.45-3.49c-2.48-2.84-6.17-4.86-11.27-6.17a27.354 27.354 0 0 1 -9.42-4.01c-3.81-2.68-5.76-5.38-5.8-8.01a7.49345 7.49345 0 0 1 3.04-5.9c.96.47 1.93.89 2.89 1.26.52.21 1.02.4 1.53.57a10.62386 10.62386 0 0 0 -1.74 1.13 4.77607 4.77607 0 0 0 -1.48 1.77 1.62613 1.62613 0 0 0 -.11.31 1.11473 1.11473 0 0 0 -.08.3.80048.80048 0 0 0 -.03.15 2.05314 2.05314 0 0 0 -.02.35c.02.93 1.1 2.69 4.1 4.81a24.21987 24.21987 0 0 0 8.11 3.4c.8.21 1.57.43 2.31.67a29.01285 29.01285 0 0 1 6.25 2.81c.38.58.76 1.17 1.17 1.76.92 1.4 1.9 2.82 2.91 4.25.02.67.04 1.33.06 1.99.01.69.02 1.37.03 2.05z" fill="#2d4356"/><path d="m120.14 46.58a1.9915 1.9915 0 0 1 -1.95 2.04 3.51586 3.51586 0 0 0 -2.01.7c-1.02.77-1.72 1.91-2.74 2.7-1.54 1.17-3.31 1.27-5.16 1.32-1.33.03-3.81006.1-4.58.93a29.29864 29.29864 0 0 0 -2.54 3.37c.21 0 .44-.01.64-.01a17.85008 17.85008 0 0 1 1.85.14 9.527 9.527 0 0 0 2.03.09 4.32931 4.32931 0 0 0 2.38-1.14 1.99687 1.99687 0 0 1 2.67 2.97 8.2923 8.2923 0 0 1 -4.63 2.15 12.95861 12.95861 0 0 1 -2.89-.1c-.51-.05-1-.11-1.46-.11-2.47-.04-3.25.47-3.48.77a18.12312 18.12312 0 0 1 -5.01 5.64 2.61494 2.61494 0 0 1 -1.94-.09 2.73042 2.73042 0 0 1 -.87-.5c.43-.27.87-.56 1.29-.85 2.29-1.58 4.29-3.33 4.4-3.42a22.30362 22.30362 0 0 0 6.31-9.8 22.44731 22.44731 0 0 0 .82-3.02c.12-.65-.02-1.27.54-1.72 7.26-5.82 9.44-14.69 9.46-14.78a1.99979 1.99979 0 1 1 3.89.93 34.56762 34.56762 0 0 1 -8.19 14.53 3.19163 3.19163 0 0 0 2.04-.48c1.02-.78 1.71-1.92 2.75-2.71a7.49855 7.49855 0 0 1 4.34-1.51 1.98655 1.98655 0 0 1 2.04 1.96z" fill="#2d4356"/><g fill="#98e07e"><path d="m59.35 55.3c.31.63.64 1.24.98 1.84a6.51571 6.51571 0 0 1 -1.33 1.58l.06-2.99v-.01c.1-.14.19-.28.29-.42z"/><path d="m60.29 13.8c-.12.23-.24.46-.34.69l.05-2.32s.11.59.29 1.63z"/><path d="m62.19 51.77-.39-.96a24.9933 24.9933 0 0 1 -1.74-7.17 17.92 17.92 0 0 1 .93-7.49 21.63354 21.63354 0 0 0 .7-8.4 22.64319 22.64319 0 0 1 -.01-4.33c1.08 8.72 2.02 20.59.51 28.35z"/><path d="m88.75 76.19-1.08 3.46-5.67 10.17c.11-1.18.23-2.32.34-3.41.02-.04.05-.09.06995-.13.24005-.45.51-.99.77-1.53.07-.15.14-.3.22-.45.11-.23.21-.46.31995-.67.39-.86.69-1.53.7-1.54.2201-.39 1.5501-4.2 4.3301-5.9z"/><path d="m90.45 67.45c.43-.27.87-.56 1.29-.85l-.42 1.35a2.73042 2.73042 0 0 1 -.87-.5z"/><path d="m108 81.17-.73.74a14.63523 14.63523 0 0 0 -2.59-1.24c.73-.3 1.46-.63 2.18-.98a3.51191 3.51191 0 0 1 1.14 1.48z"/><path d="m36.22 66.59c.43005.3.88.6 1.33.87-.02.02-.02.04-.03.05a2.08554 2.08554 0 0 1 -.8.68z"/><path d="m46.01 90.27c-2.52.43005-3.68-4.1-3.68-4.1l-3.12-10.01c2.81 1.69 4.15 5.54 4.37 5.93.01.03.03.06.04.09a42.89348 42.89348 0 0 0 2 4.17c.13 1.25.26 2.56.39 3.92z"/><path d="m109.99 85.29a.57.57 0 0 0 -.01-.13.681.681 0 0 0 -.03-.19.10861.10861 0 0 0 -.01-.05c-.02-.08-.04-.15-.06-.22a2.084 2.084 0 0 0 -.12-.32 6.15421 6.15421 0 0 0 -2.49-2.47 14.63523 14.63523 0 0 0 -2.59-1.24 36.93685 36.93685 0 0 1 -11.8 2.81c-.89 1.48-2.32 4.12-3.34 6.01-1.65 3.05-3.35 6.2-4.65 8.19l-4.21 6.45a15.32063 15.32063 0 0 0 .36 2.32c.01.03.01.06.02.09-.01-.14 0-.28 0-.42l.03-.06a33.78353 33.78353 0 0 1 3.4-4.95 23.24759 23.24759 0 0 1 10.38-6.54c.93-.32 1.9-.61 2.92-.87a24.067 24.067 0 0 0 8.1-3.4c3.01-2.12 4.09-3.88 4.11-4.81v-.09a.37467.37467 0 0 0 -.01-.11zm-19.15 2.04a27.61743 27.61743 0 0 1 8.91-3.84 1.98393 1.98393 0 0 1 2.37 1.53 2.00654 2.00654 0 0 1 -1.53 2.38c-6.18 1.33-11.85 6.17-15.31 9.71a86.45239 86.45239 0 0 0 5.56-9.78z"/><path d="m45.37 83.88v-.01c-.16-1.36-.32-2.65-.48-3.83-.39-1.13-.8-2.31-1.22-3.54a58.59134 58.59134 0 0 0 -3.54-7.58c-.94-.49-1.8-.99-2.58-1.46-.02.02-.02.04-.03.05a2.08554 2.08554 0 0 1 -.8.68 1.97259 1.97259 0 0 1 -.86.2 2.00151 2.00151 0 0 1 -1.12-.35 18.12312 18.12312 0 0 1 -5.01-5.64c-.23-.31-.98-.81-3.49-.77-.45 0-.94.06-1.45.11a13.02592 13.02592 0 0 1 -2.9.1 8.35392 8.35392 0 0 1 -4.63-2.15 2.00023 2.00023 0 0 1 2.68-2.97 4.32931 4.32931 0 0 0 2.38 1.14c.61.07 4.31-.22 4.52-.22a29.65115 29.65115 0 0 0 -2.56-3.39c-.75-.81-3.23-.88-4.56006-.91l-.5-.02a7.13869 7.13869 0 0 1 -4.66-1.31 11.37465 11.37465 0 0 1 -1.64-1.6 8.63193 8.63193 0 0 0 -1.1-1.09 3.51586 3.51586 0 0 0 -2.01-.7 1.9915 1.9915 0 0 1 -1.95-2.04 1.96856 1.96856 0 0 1 2.04006-1.96 7.49855 7.49855 0 0 1 4.34 1.51 12.19326 12.19326 0 0 1 1.66 1.61 8.73535 8.73535 0 0 0 1.09 1.1 3.17748 3.17748 0 0 0 2.03.48 34.485 34.485 0 0 1 -8.18-14.53 1.99979 1.99979 0 1 1 3.89-.93c.02.09 2.24 8.99 9.46 14.78a.50258.50258 0 0 1 .08.06995l.08.08a.82909.82909 0 0 1 .13.18v-.04l-.01-.01a39.76108 39.76108 0 0 1 -.4-8.71 50.83377 50.83377 0 0 1 .68-5.91v-.02l.07-.38c.06-.37.13-.72.2-1.06l.16-.79c.04-.17.07-.34.11-.51l-.01-.02995c-.08.34-.16.71-.24005 1.1a49.34713 49.34713 0 0 1 -3.5-4.45 1.02434 1.02434 0 0 0 -.28-.27 12.54951 12.54951 0 0 0 -6.82995-1.89 21.7338 21.7338 0 0 0 -9.75 2.66.9048.9048 0 0 0 -.48.89c.02.25.03.5.04.76.09 1.81.09 4.03.04 6.13 0 .15 0 .29-.01.44 0 .29-.01.58-.02.87-.01.28-.01.56-.02.84 0 .14-.01.28-.01.41-.00995.23-.02.46-.03.68-.02.7-.05 1.34-.07 1.89-.02.3-.03.57-.04.82-.01.29-.03.54-.03.74-.03.4-.04.62-.04.62-.3 6.2 5.44 11.52 5.44 11.52 4.76 4.68005 5.98 8.45 5.98 8.45 3.64 8.88 16.46 11.78 20.42 11.78a6.50677 6.50677 0 0 1 2.56.25 5.47612 5.47612 0 0 1 .8.41c2.81 1.69 4.15 5.54 4.37 5.93.01.03.03.06.04.09a42.89348 42.89348 0 0 0 2 4.17c.13 1.25.26 2.56.39 3.92.01 0 .01 0 .02-.00995-.21-2.25005-.43-4.39005-.66-6.38005zm-23.28-45.61a2.00814 2.00814 0 0 1 2.25-1.71c.02 0 .03.01.05.01a47.681 47.681 0 0 0 -.4 7.75 10.18439 10.18439 0 0 1 -1.07-1.54 7.34665 7.34665 0 0 1 -.83-4.51z"/><path d="m32.24915 63.53241-.02258-.0202c-.22369-.18542-.43262-.38232-.64337-.57861.08856.08044.16632.16705.25684.2464.02513.02264.1704.15008.40911.35241z"/><path d="m24.59 49.7c.06.41.14.81.23 1.22a26.84378 26.84378 0 0 0 2.55 6.74 21.581 21.581 0 0 0 3.63776 4.72162 23.60671 23.60671 0 0 1 -6.42876-12.87124 1.81161 1.81161 0 0 0 .011.18962z"/><path d="m56.91809 35.73566c.08929-.29315.181-.585.28308-.87042a18.5881 18.5881 0 0 0 .50684-6.73145 26.619 26.619 0 0 1 -.0127-5.06152c.01544-.18109.035-.3692.05481-.55743a.24683.24683 0 0 1 -.02012.02516 3.46078 3.46078 0 0 0 -1.06 1.81 8.91119 8.91119 0 0 0 -.11 1.54 12.5679 12.5679 0 0 1 -.2 2.28 7.07242 7.07242 0 0 1 -2.67 4.01l-.38.34c-.97.88-2.79 2.52-2.83 3.64a30.57125 30.57125 0 0 0 .27 4.22c.16-.14.32-.28.47-.41.5-.41 1.01-.76 1.5-1.09a9.52231 9.52231 0 0 0 1.58-1.23 4.24279 4.24279 0 0 0 1.05-2.38 1.98277 1.98277 0 0 1 2.16-1.74c-.1.57-.42 1.61-.42 1.61-.06577.19844-.11252.39711-.17191.59566z"/><path d="m60.34 57.13a.0098.0098 0 0 0 -.01.01c-.34-.6-.67-1.21-.98-1.84-.1.14-.19.28-.29.42v.01a20.20507 20.20507 0 0 1 -3.89 4.39 4.31173 4.31173 0 0 0 -1.38 1.53c-1.63 3.2.13 7.68.23 8.17a.47406.47406 0 0 0 .03.09c4.45 13.31 4.74 45.23 4.87 53.12a.95749.95749 0 0 1 -1.34.88c-.71-.35-2.49-.74-3.06-1.02a.953.953 0 0 1 -.52-1.04c2.73-14.39-1.18-42.88-1.19-42.9-1.06-10.08-5.4-14.77-6.68-15.88a2.5872 2.5872 0 0 0 -.63-.4 31.27947 31.27947 0 0 1 -7.99-5.17c-3.04-2.48-4.53-6.1-5.14-9.89a26.22043 26.22043 0 0 0 -.32-3 43.57611 43.57611 0 0 1 1.73-13.98.67817.67817 0 0 1 .03-.08c2.32-4.32 2.11-11.51 1.87-14.67-.03-.46-.06-.83-.09-1.09a.77613.77613 0 0 0 -.02-.16c0-.05-.01-.09-.01-.13a.9682.9682 0 0 1 .04-.38c2.26-7.38 10.7-9.62 13.02-10.1a.935.935 0 0 1 .94.36c3.01 4.06 9.38 10.71 9.38 10.71.18.19.32.38.48.57-.19.47-.36.93-.51 1.4a24.94655 24.94655 0 0 0 -.79 2.98 1.78665 1.78665 0 0 0 -.23-.33 2.00633 2.00633 0 0 0 -2.83-.15 7.4073 7.4073 0 0 0 -2.3 3.96 11.899 11.899 0 0 0 -.2 2.29 7.96017 7.96017 0 0 1 -.12 1.54 3.04437 3.04437 0 0 1 -1.21 1.66 34.63764 34.63764 0 0 0 -3.27-16.36 1.9947 1.9947 0 1 0 -3.55 1.82c.04.08 4.16 8.3 2.47 17.37-.07.4-.12.79-.18 1.19-.07-.07-.16-.15-.23-.21l-.69-.62c-.88-.79-1.28-1.16-1.42-1.85a7.91884 7.91884 0 0 1 -.12-1.53 11.18677 11.18677 0 0 0 -.2-2.3 7.44368 7.44368 0 0 0 -2.3-3.96 2.00057 2.00057 0 0 0 -2.67 2.98 3.3964 3.3964 0 0 1 1.06 1.81 8.98744 8.98744 0 0 1 .11 1.54 12.57338 12.57338 0 0 0 .2 2.28 7.12131 7.12131 0 0 0 2.67 4.01l.71.63c.96.86 2.76 2.44 2.78 3.42.14 1.62.38 3.14.62 4.47-.37994-.29-.75995-.56-1.12994-.81a10.09106 10.09106 0 0 1 -1.59006-1.24 4.27089 4.27089 0 0 1 -1.04-2.38 2.017 2.017 0 0 0 -2.24-1.74 1.99675 1.99675 0 0 0 -1.73 2.24 8.26112 8.26112 0 0 0 2.1 4.63 13.64569 13.64569 0 0 0 2.25 1.8c.43.29.83.56 1.18.85.31.26.66.5 1.02.75a3.779 3.779 0 0 1 1.95 2.4 9.69528 9.69528 0 0 1 -.3 2.16 2.00672 2.00672 0 0 0 1.42 2.45 2.02747 2.02747 0 0 0 2.45-1.42 14.10311 14.10311 0 0 0 .43-3.07 2.28563 2.28563 0 0 0 .01-.37 24.01473 24.01473 0 0 0 -.33-4.09c-.02-.38.23-1.24 2.12-2.82.34-.28.74005-.56 1.17-.85.33-.22.69-.46 1.04-.73.01-.21.03-.42.04-.62a23.23532 23.23532 0 0 0 .03 3.12 28.95794 28.95794 0 0 0 2.02 8.35l.42 1.02c.5 1.18 1.11 2.47 1.83 3.8z"/><path d="m56.58386 36.96033c.06171-.26074.13239-.51691.20374-.77271-.0708.25763-.14331.51508-.20374.77271z"/><path d="m56.07581 40.23346c.01929-.2406.04352-.47949.07025-.71777-.02692.23956-.05106.47869-.07025.71777z"/><path d="m56.2403 38.79926c.032-.22064.061-.44238.09961-.66046-.03891.22039-.06769.4402-.09961.66046z"/><path d="m103.28741 50.23834a28.79 28.79 0 0 1 -.75348 2.8703 21.55853 21.55853 0 0 0 .73607-2.74864c.00753-.04085.01168-.08113.01741-.12166z"/><path d="m97.30273 62.06183c-.09113.09406-.18512.1853-.27808.27759.09284-.09253.1872-.18342.27808-.27759z"/><path d="m98.142 61.13953c.02771-.03241.05676-.06372.08429-.09631-.02762.03252-.05649.06396-.08429.09631z"/><path d="m123.99 43.75c.3 6.2-5.44 11.52-5.44 11.52-4.77 4.68005-5.98 8.45-5.98 8.45-3.64 8.88-16.47 11.78-20.42 11.78a6.32645 6.32645 0 0 0 -2.56.25 5.15515 5.15515 0 0 0 -.84.44c-2.78 1.7-4.11 5.51-4.33 5.9-.01.01-.31.68-.7 1.54-.11.21-.21.44-.31995.67-.08.15-.15.3-.22.45-.26.54-.53 1.08-.77 1.53.02-.26.05-.53.08-.78.3-.99.62-2.11.99-3.38.51-1.74 1.11-3.77 1.8-6.12.62-2.11 1.37-4.44 2.21-6.89 1.03-.53 2.03-1.08 2.96-1.66a2.73042 2.73042 0 0 0 .87.5 2.61494 2.61494 0 0 0 1.94.09 18.12312 18.12312 0 0 0 5.01-5.64c.23-.3 1.01-.81 3.48-.77.46 0 .95.06 1.46.11a12.95861 12.95861 0 0 0 2.89.1 8.2923 8.2923 0 0 0 4.63-2.15 1.99687 1.99687 0 0 0 -2.67-2.97 4.32931 4.32931 0 0 1 -2.38 1.14 9.527 9.527 0 0 1 -2.03-.09 17.85008 17.85008 0 0 0 -1.85-.14c-.2 0-.43.01-.64.01a29.29864 29.29864 0 0 1 2.53995-3.37c.77-.83 3.25-.9 4.58-.93 1.85-.05 3.62-.15 5.16-1.32 1.02-.79 1.72-1.93 2.74-2.7a3.51586 3.51586 0 0 1 2.01-.7 2.00051 2.00051 0 0 0 -.09-4 7.49855 7.49855 0 0 0 -4.34 1.51c-1.04.79-1.73 1.93-2.75 2.71a3.19163 3.19163 0 0 1 -2.04.48 34.56762 34.56762 0 0 0 8.19-14.53 1.99979 1.99979 0 1 0 -3.89-.93c-.02.09-2.2 8.96-9.46 14.78a1.14916 1.14916 0 0 0 -.29.35 37.81218 37.81218 0 0 0 .45-4.64 9.67961 9.67961 0 0 0 1.11-1.57 7.34665 7.34665 0 0 0 .83-4.51 2.0026 2.0026 0 0 0 -2.25-1.71.2557.2557 0 0 0 -.06995.02c-.1-.8-.22-1.56995-.35-2.3-.09-.58-.2-1.13-.3-1.65.46-.51.88-1.02 1.27-1.49.48-.6.91-1.14 1.25995-1.61.17-.23.33-.44.46-.63.14-.19.25-.35.35-.48.06995-.1.12994-.19.18-.26a1.02434 1.02434 0 0 1 .28-.27 12.54951 12.54951 0 0 1 6.83-1.89 21.7338 21.7338 0 0 1 9.75 2.66.9048.9048 0 0 1 .48.89c-.05.7-.08 1.47-.09 2.29 0 .19-.01.39-.01.6-.06 4.07.17 8.99.25 10.69.03.4.04.62.04.62z"/><path d="m101.84644 54.99738c.03644-.08905.0769-.17621.1123-.26575-.03546.09021-.07599.17627-.1123.26575z"/><path d="m102.47949 53.28467c-.07391.22675-.1582.44519-.23749.66772.06836-.19122.14423-.37939.208-.57239.01051-.03125.01906-.064.02949-.09533z"/></g><path d="m114 85.55c-.05 2.63-2 5.33-5.8 8.01a27.354 27.354 0 0 1 -9.42 4.01c-5.11 1.31-8.8 3.33-11.28 6.17-1.12 1.29-4.96 7.38-6.37 9.5-.09-2.11-.12-4.37-.07-6.7-.01-.14 0-.28 0-.42l.03-.06a33.78353 33.78353 0 0 1 3.4-4.95 23.24759 23.24759 0 0 1 10.38-6.54c.93-.32 1.9-.61 2.92-.87a24.067 24.067 0 0 0 8.1-3.4c3.01-2.12 4.09-3.88 4.11-4.81.02-1.4-1.19-2.64-2.73-3.58a14.63523 14.63523 0 0 0 -2.59-1.24c.73-.3 1.46-.63 2.18-.98.8-.39 1.59-.81 2.38-1.27 2.61 1.58 4.81 3.94 4.76 7.13z" fill="#2d4356"/><path d="m46.43 95.44a75.32624 75.32624 0 0 1 -6.46-11.62 20.78565 20.78565 0 0 0 -1.44-2.77c-.41-.58-1.02-1.56-1.82-1.61-.28-.01-.6.06-.86.06-4.88 0-19.66-3.38-24.12-14.27l-.1-.26a21.08038 21.08038 0 0 0 -4.95-6.82c-.93-.87-7.03-6.91-6.66-14.63 0-.09.51-8.98.19-13.7a4.94735 4.94735 0 0 1 2.56-4.68 25.83976 25.83976 0 0 1 11.66-3.14 16.543 16.543 0 0 1 8.96 2.5 5.01955 5.01955 0 0 1 1.44 1.39c.44.62994.92 1.28 1.43 1.93994-.05.15-.32.98-.66 2.31006-.1.41-.21.87-.31995 1.37-.08.34-.16.71-.24005 1.1a49.34713 49.34713 0 0 1 -3.5-4.45 1.02434 1.02434 0 0 0 -.28-.27 12.54951 12.54951 0 0 0 -6.83-1.89 21.7338 21.7338 0 0 0 -9.75 2.66.9048.9048 0 0 0 -.48.89c.02.25.03.5.04.76.09 1.81.09 4.03.04 6.13 0 .15 0 .29-.01.44 0 .29-.01.58-.02.87-.01.28-.01.56-.02.84 0 .14-.01.28-.01.41-.00995.23-.02.46-.03.68-.02.7-.05 1.34-.07 1.89-.02.3-.03.57-.04.82-.01.29-.03.54-.03.74-.03.4-.04.62-.04.62-.3 6.2 5.44 11.52 5.44 11.52 4.76 4.68005 5.98 8.45 5.98 8.45 3.64 8.88 16.46 11.78 20.42 11.78a6.50677 6.50677 0 0 1 2.56.25 5.47612 5.47612 0 0 1 .8.41c2.81 1.69 4.15 5.54 4.37 5.93.01.03.03.06.04.09a42.89348 42.89348 0 0 0 2 4.17c.13 1.25.26 2.56.39 3.92.09.94.17 1.91.25 2.9.06.75.11 1.51.17 2.27z" fill="#2d4356"/><path d="m127.98 43.56c.37 7.68-5.73 13.72-6.66 14.59a23.56181 23.56181 0 0 0 -5.05 7.08c-4.46 10.89-19.24 14.27-24.12 14.27-.47 0-.96-.14-1.37.13-1.24005.8-6.46 11.6-9.24005 15.86.05-.76.11-1.52.17-2.27.02-.21.04-.41.05-.61q.06-.72.12-1.41t.12005-1.38c.11-1.18.23-2.32.34-3.41.02-.04.05-.09.06995-.13.24005-.45.51-.99.77-1.53.07-.15.14-.3.22-.45.11-.23.21-.46.31995-.67.39-.86.69-1.53.7-1.54.22-.39 1.55-4.2 4.33-5.9a5.15515 5.15515 0 0 1 .84-.44 6.32645 6.32645 0 0 1 2.56-.25c3.95 0 16.78-2.9 20.42-11.78 0 0 1.21-3.77 5.98-8.45 0 0 5.74-5.31995 5.44-11.52 0 0-.01-.22-.04-.62-.08-1.7-.31-6.62-.25-10.69 0-.21.01-.41.01-.6.00995-.82.04-1.59.09-2.29a.9048.9048 0 0 0 -.48-.89 21.7338 21.7338 0 0 0 -9.7499-2.66 12.54951 12.54951 0 0 0 -6.83 1.89 1.02434 1.02434 0 0 0 -.28.27c-.05.07-.11.16-.18.26-.09.13-.21.3-.35.48-.13.19-.29.4-.46.63-.35.47-.78 1.01-1.25995 1.61-.39.47-.81.97-1.27 1.49l-.01.01c-.08-.4-.16-.78-.24-1.13-.04-.18005-.08-.35-.12-.52-.41-1.76-.76-2.89-.85-3.14.52-.66 1.01-1.32 1.45-1.96a4.74189 4.74189 0 0 1 1.44-1.38 16.441 16.441 0 0 1 8.95995-2.51 25.88158 25.88158 0 0 1 11.66 3.14 4.94735 4.94735 0 0 1 2.56 4.68c-.32 4.72.19 13.61.19 13.74z" fill="#2d4356"/><path d="m61.07 122.9a8.87415 8.87415 0 0 0 .61 3.4c-.06.07-.11.15-.18.22a4.926 4.926 0 0 1 -5.62 1.01c-.2-.08-.76-.25-1.11-.35a12.99427 12.99427 0 0 1 -1.98-.68 4.96566 4.96566 0 0 1 -2.72-5.4c2.04-10.77.1-31.92-1.22-41.6l-.01-.07v-.06c-.91-8.61-4.45-12.44-5.19-13.16a38.32431 38.32431 0 0 1 -7.09-4.29c-.87-.67-1.44-1.18-1.71-1.43-.25995-.21-.5-.43-.74-.66-5.46-5.12-6.42-12.94-6.05-19.39a49.74765 49.74765 0 0 1 .63-5.48 45.1597 45.1597 0 0 1 1.34-5.75 4.63224 4.63224 0 0 1 .25995-.55c1.59-2.97 1.79-9.2 1.3-13.73a4.90154 4.90154 0 0 1 .18-1.98c2.89005-9.43 13.00005-12.22 16.03005-12.85a4.75388 4.75388 0 0 1 1.13-.1 4.96359 4.96359 0 0 1 3.83 2c2.41 3.23 7.22 8.37 8.66 9.89a19.89715 19.89715 0 0 0 -1.13 1.91c-.12.23-.24.46-.34.69-.19.39-.36.79-.52 1.18-.16-.19-.31-.39-.49-.58 0 0-6.37-6.65-9.38-10.71a.935.935 0 0 0 -.94-.36c-2.32.48-10.76 2.72-13.02 10.1a.9682.9682 0 0 0 -.04.38c.16 1.45 1.05 10.84-1.75 16.05a.67817.67817 0 0 0 -.03.08 43.57611 43.57611 0 0 0 -1.73 13.98 25.22722 25.22722 0 0 0 .32 3c.61 3.79 2.1 7.41 5.14 9.89a31.27947 31.27947 0 0 0 7.99 5.17 2.5872 2.5872 0 0 1 .63.4c1.28 1.11 5.62 5.8 6.68 15.88.01.02 3.92 28.50995 1.19 42.9a.953.953 0 0 0 .52 1.04c.57.28 2.35.67 3.06 1.02a.95749.95749 0 0 0 1.34-.88c-.13-7.89-.42-39.81-4.87-53.12a.47406.47406 0 0 1 -.03-.09c-.1-.49005-1.86-4.97-.23-8.17a4.31173 4.31173 0 0 1 1.38-1.53 20.20507 20.20507 0 0 0 3.89-4.39v-.01c.1-.14.19-.28.29-.42.31.63.64 1.24.98 1.84.38.67.78 1.31995 1.18 1.95a22.47128 22.47128 0 0 1 -4.03 4.29 1.50054 1.50054 0 0 1 -.13.1c-.25995.51-.54 1.81.39 4.79.05.19.1.34.14.51 2.21 6.68 3.43 17.47 4.11 27.82-.56 8.65-.92 26.3-.92 26.3z" fill="#2d4356"/><path d="m99.93 40.36c-.05-.9-.13-1.78-.22-2.62a48.43535 48.43535 0 0 0 -1.75-8.53 3.99258 3.99258 0 0 0 -.25-.56c-1.59-2.96-1.79-9.19-1.3-13.72a4.73578 4.73578 0 0 0 -.19-1.98c-2.88-9.43-12.99-12.22-16.02-12.85a5.0134 5.0134 0 0 0 -4.97 1.9c-2.83 3.8-9 10.26-9.06 10.32-3.18 3.38-4.21 7.82-4.49 11.1a22.64319 22.64319 0 0 0 .01 4.33 21.63354 21.63354 0 0 1 -.7 8.4 17.92 17.92 0 0 0 -.93 7.49 24.9933 24.9933 0 0 0 1.74 7.17l.39.96c1.79 4.21 4.61 8.98 8.32 11.61.47.33.4 1.06.39 1.56a12.87818 12.87818 0 0 1 -.79 3.83c-4.4 13.36-4.86 43.14-5.01 52.95l-.02 1.24a4.87949 4.87949 0 0 0 1.42 3.56 4.94927 4.94927 0 0 0 3.52 1.48 19.34073 19.34073 0 0 0 3.21-.82 12.99427 12.99427 0 0 0 1.98-.68 4.93383 4.93383 0 0 0 2.72-5.4c-2.55-12.54 1.23-41.74 1.23-41.74.91-8.6 4.45-12.43 5.19-13.15a38.83018 38.83018 0 0 0 5.22-2.95 28.27876 28.27876 0 0 0 3.57-2.77c.25-.21.47-.41.7-.63h.01c5.51-5.14 6.47-13.02 6.08-19.5zm-3.99294 3.63854q-.004.12146-.0087.24245c-.17928 4.61032-1.65047 10.17235-5.43836 13.25901a31.51729 31.51729 0 0 1 -7.99 5.17 2.64641 2.64641 0 0 0 -.64.4c-1.27 1.11-5.61 5.8-6.68 15.88 0 .02-3.91 28.50995-1.18 42.9a.953.953 0 0 1 -.52 1.04 32.96166 32.96166 0 0 1 -3.46 1.11.94588.94588 0 0 1 -.94-.97c.13-7.89.41-39.81 4.87-53.12a.94274.94274 0 0 1 .03-.09c.09-.49005 1.86-4.97.22-8.17a4.19292 4.19292 0 0 0 -1.37-1.53c-2.61-1.85-11.32-12.9-8.14-22.45 0 0 1.53-3.65.98-10.3 0 0-.87-7.74 3.39-12.28 0 0 6.36-6.65 9.38-10.71a.97469.97469 0 0 1 .94-.36c2.32.48 10.76 2.72 13.02 10.1a.9682.9682 0 0 1 .04.38c-.16 1.45-1.05 10.84 1.75 16.05a.63708.63708 0 0 1 .02851.07563 38.86821 38.86821 0 0 1 1.71855 13.37289z" fill="#2d4356"/><path d="m43.94 98.94c-.41-.59-.79-1.18-1.17-1.76a29.01285 29.01285 0 0 0 -6.25-2.81c-.74-.24-1.51-.46-2.31-.67a24.21987 24.21987 0 0 1 -8.11-3.4c-3-2.12-4.08-3.88-4.1-4.81a2.05314 2.05314 0 0 1 .02-.35.80048.80048 0 0 1 .03-.15 1.11473 1.11473 0 0 1 .08-.3 1.62613 1.62613 0 0 1 .11-.31 11.67334 11.67334 0 0 0 3.86 3.92 24.21987 24.21987 0 0 0 8.11 3.4c.8.21 1.57.43 2.31.67a30.34122 30.34122 0 0 1 4.35 1.76c.68 1.12 1.42 2.29 2.21 3.5z" fill="#528440" opacity=".3"/><path d="m110 85.49c-.02.93-1.1 2.69-4.11 4.81a24.067 24.067 0 0 1 -8.1 3.4c-1.02.25995-1.99.55-2.92.87a23.24759 23.24759 0 0 0 -10.38 6.54 33.78353 33.78353 0 0 0 -3.4 4.95l-.03.06c0 .14-.01.28 0 .42-.01.38-.02.76-.01 1.13-.02-1.03-.01-2.07.01-3.13-.01-.14 0-.28 0-.42l.03-.06a33.78353 33.78353 0 0 1 3.4-4.95 23.24759 23.24759 0 0 1 10.38-6.54c.93-.32 1.9-.61 2.92-.87a24.067 24.067 0 0 0 8.1-3.4 11.63082 11.63082 0 0 0 3.87-3.92 2.52454 2.52454 0 0 1 .24 1.11z" fill="#528440" opacity=".3"/><path d="m46.03 90.26c-.01.00995-.01.00995-.02.00995-.13-1.36-.26-2.67-.39-3.92a42.89348 42.89348 0 0 1 -2-4.17c-.01-.03-.03-.06-.04-.09-.22-.39-1.56-4.24-4.37-5.93a5.47612 5.47612 0 0 0 -.8-.41 6.50677 6.50677 0 0 0 -2.56-.25c-3.96 0-16.78-2.9-20.42-11.78 0 0-1.22-3.77-5.98-8.45 0 0-5.74-5.31995-5.44-11.52 0 0 .01-.22.04-.62.49 5.59 5.4 10.14 5.4 10.14 4.76 4.68005 5.98 8.45 5.98 8.45 3.64 8.88005 16.46 11.78005 20.42 11.78005a6.50677 6.50677 0 0 1 2.56.25 5.47612 5.47612 0 0 1 .8.41c2.81 1.69 4.15 5.54 4.37 5.93.01.03.03.06.04.09a38.549 38.549 0 0 0 1.75 3.69v.01c.23 1.99.45 4.13.66 6.38z" fill="#528440" opacity=".3"/><path d="m123.99 43.75c.3 6.2-5.44 11.52-5.44 11.52-4.77 4.68005-5.98 8.45-5.98 8.45-3.64 8.88-16.47 11.78-20.42 11.78a6.32645 6.32645 0 0 0 -2.56.25 5.15515 5.15515 0 0 0 -.84.44c-2.78 1.7-4.11 5.51-4.33 5.9-.01.01-.31.68-.7 1.54-.11.21-.21.44-.31995.67-.08.15-.15.3-.22.45-.26.54-.53 1.08-.77 1.53.02-.26.05-.53.08-.78.3-.99.62-2.11.99-3.38.51-1.08.93-2.01.94-2.03.22-.39 1.55-4.2 4.33-5.9a5.15515 5.15515 0 0 1 .84-.44 6.32645 6.32645 0 0 1 2.56-.25c3.95 0 16.78-2.9 20.42-11.78 0 0 1.21-3.77 5.98-8.45 0 0 4.91-4.55 5.4-10.14.02995.4.03995.62.03995.62z" fill="#528440" opacity=".3"/><path d="m58.92 123.03a.95749.95749 0 0 1 -1.34.88c-.71-.35-2.49-.74-3.06-1.02a.953.953 0 0 1 -.52-1.04c.07-.39.14-.79.21-1.21a.951.951 0 0 0 .31.25c.57.28 2.35.67 3.06 1.02a.96152.96152 0 0 0 1.31-.63c.01.67.02 1.26.03 1.75z" fill="#528440" opacity=".3"/><path d="m25.28 31.51c-.08.34-.16.71-.24 1.1a49.35622 49.35622 0 0 1 -3.5-4.45 1.0256 1.0256 0 0 0 -.28-.27 12.54959 12.54959 0 0 0 -6.83-1.89 21.73365 21.73365 0 0 0 -9.75 2.66.90488.90488 0 0 0 -.48.89c.02.25.03.5.04.76.02.26.02.53.03.81a.80423.80423 0 0 1 .41-.46 21.73365 21.73365 0 0 1 9.75-2.66 12.54959 12.54959 0 0 1 6.83 1.89 1.0256 1.0256 0 0 1 .28.27 49.84106 49.84106 0 0 0 3.21 4.12z" fill="#cbe0c3" opacity=".6"/><path d="m123.8 29.55c-.02.25-.03.5-.04.76-.02.26-.02.53-.03.81a.80429.80429 0 0 0 -.41-.46 21.7338 21.7338 0 0 0 -9.75-2.66 12.54951 12.54951 0 0 0 -6.83 1.89 1.02434 1.02434 0 0 0 -.28.27 48.52366 48.52366 0 0 1 -3.22 4.12c-.09-.58-.2-1.13-.3-1.65.46-.52.88-1.02 1.27-1.49 1.16-1.43005 1.97-2.58 2.25-2.98a1.02434 1.02434 0 0 1 .28-.27 12.54951 12.54951 0 0 1 6.83-1.89 21.7338 21.7338 0 0 1 9.75 2.66.9048.9048 0 0 1 .48.89z" fill="#cbe0c3" opacity=".6"/><path d="m59.42 15.66c-.19.47-.36.93-.51 1.4-.43-.45-6.45-6.77-9.35-10.68a.935.935 0 0 0 -.94-.36c-2.29.47-10.57 2.67-12.94 9.86-.03-.46-.06-.83-.09-1.09a.77613.77613 0 0 0 -.02-.16c0-.05-.01-.09-.01-.13a.9682.9682 0 0 1 .04-.38c2.26-7.38 10.7-9.62 13.02-10.1a.935.935 0 0 1 .94.36c3.01 4.06 9.38 10.71 9.38 10.71.18.19.32.38.48.57z" fill="#cbe0c3" opacity=".6"/><path d="m73.48 122.89a32.96166 32.96166 0 0 1 -3.46 1.11.94588.94588 0 0 1 -.94-.97c.01-.5.02-1.09.03-1.76a.94729.94729 0 0 0 .91.73 32.96166 32.96166 0 0 0 3.46-1.11.951.951 0 0 0 .31-.25c.07.42.14.81995.21 1.21a.953.953 0 0 1 -.52 1.04z" fill="#528440" opacity=".3"/><path d="m92.44 14.5c-.03.25-.08.73-.12 1.38-2.37-7.19-10.65-9.39-12.94-9.86a.97469.97469 0 0 0 -.94.36c-3.02 4.06-9.38 10.71-9.38 10.71-2.64 2.82-3.31 6.88-3.44 9.54-.1-2.03-.03-7.85 3.44-11.54 0 0 6.36-6.65 9.38-10.71a.97469.97469 0 0 1 .94-.36c2.32.48 10.76 2.72 13.02 10.1a.9682.9682 0 0 1 .04.38z" fill="#cbe0c3" opacity=".6"/></svg>