<svg id="_x33_0" enable-background="new 0 0 64 64" height="512" viewBox="0 0 64 64" width="512" xmlns="http://www.w3.org/2000/svg"><path d="m34.93 42.09c-.33-2.49-1.93-4.09-1.93-4.09 0-2.5 1.95-4.21 3.9-5.16 0 0 0 .01.01 0 .35.11.71.16 1.09.16.76 0 1.46-.21 2.07-.58.15.94.52 3.35.74 5.6.11 1.1.19 2.15.19 2.98 0 5-2 9-4 13l2 5-4-1-4 3v-4l-4-2 5-3c1-2 3-6 3-9 0-.31-.02-.62-.07-.91z" fill="#a0d468"/><path d="m60 29c-2 0-3 3-3 3-2.62 0-4.29-.77-5.43-1.79l.43-.21s3-2 6-6c1.5-2 2.5-4.5 3.12-6.88.63-2.37.88-4.62.88-6.12 0-2.27-1.72-4.17-3.98-4.4l-6.02-.6-.31.11c.2.59.31 1.23.31 1.89 0 3.31-2.69 6-6 6s-6-2.69-6-6c0-.34.03-.67.09-.99l-.09-.01c-5.2 1.3-9.97 5.98-13.5 11.29 1.67 1.06 2.5 2.88 2.5 4.71 0 2.76-2.24 5-5 5-.71 0-1.39-.15-2-.42l-.19-.07c-2.81 7.53-2.88 8.56-5.81 11.49-.74.74-2.87 2.46-5.25 4.73l.25.27 3 2 .2.19c-1.83 1.92-3.97 4.4-5.57 6.81l-.63 1 .83-.14c1.27-.23 2.62-.64 4.04-1.2 2.39-.92 5-2.26 7.84-3.94 2.62-1.55 4.83-3.14 6.53-4.48 2.39-1.87 3.76-3.24 3.76-3.24l3 2 .08.07c.49-.52.75-.84.85-.98-.33-2.49-1.93-4.09-1.93-4.09 0-2.5 1.95-4.21 3.9-5.16l3.17-.43v.01c.15.94.52 3.35.74 5.6l.19-.02s5.1-3.4 6.68-4.72c3.58 3.44 9.32 2.72 9.32 2.72s1 1 2 1c2 0 3-3 3-5s-1-3-2-3z" fill="#b4dd7f"/><circle cx="38" cy="29" fill="#8cc152" r="4"/><path d="m34 43-3-2s-1.37 1.37-3.76 3.24c-1.7 1.34-3.91 2.93-6.53 4.48-2.84 1.68-5.45 3.02-7.84 3.94-1.42.56-2.77.97-4.04 1.2-.28.06-.56.1-.83.14.2-.33.41-.67.63-1 1.6-2.41 3.74-4.89 5.57-6.81l-.2-.19-3-2-.25-.27c-2.7 2.57-5.72 5.86-7.41 9.27-.83 1.66-1.34 3.35-1.34 5 0 0 2.43.22 6.06-.28 1.78-.24 3.84-.65 6.05-1.36 1.87-.59 3.84-1.39 5.82-2.47 1.02-.55 2.05-1.18 3.07-1.89 2.92-2.04 5.16-3.74 6.86-5.14 2.17-1.75 3.47-3 4.22-3.79z" fill="#a0d468"/><path d="m51.69 6.11c.2.59.31 1.23.31 1.89 0 3.31-2.69 6-6 6s-6-2.69-6-6c0-.34.03-.67.09-.99.47-2.84 2.94-5.01 5.91-5.01 2.65 0 4.91 1.73 5.69 4.11z" fill="#aab2bd"/><circle cx="46" cy="8" fill="#969faa" r="2"/><circle cx="35" cy="19" fill="#8cc152" r="3"/><path d="m26.5 18.29c1.67 1.06 2.5 2.88 2.5 4.71 0 2.76-2.24 5-5 5-.71 0-1.39-.15-2-.42l-.19-.07c.06-.16.12-.34.19-.51 1.05-2.8 2.59-5.85 4.5-8.71z" fill="#8cc152"/><path d="m46 11c1.654 0 3-1.346 3-3s-1.346-3-3-3-3 1.346-3 3 1.346 3 3 3zm0-4c.552 0 1 .448 1 1s-.448 1-1 1-1-.448-1-1 .448-1 1-1z"/><path d="m38 24c-3.49 0-5 3.311-5 5h2c0-.394.56-3 3-3s3 2.606 3 3h2c0-1.689-1.51-5-5-5z"/><path d="m35 17c1.103 0 2 .897 2 2s-.897 2-2 2v2c2.206 0 4-1.794 4-4s-1.794-4-4-4-4 1.794-4 4h2c0-1.103.897-2 2-2z"/><path d="m60 28c-2.003 0-3.165 1.897-3.666 2.981-1.244-.071-2.207-.345-2.974-.745 1.127-.883 3.277-2.752 5.44-5.637 3.322-4.429 4.2-10.832 4.2-13.599 0-2.796-2.099-5.114-4.881-5.394l-5.791-.579c-1.12-2.375-3.532-4.027-6.328-4.027-3.232 0-5.953 2.206-6.754 5.19-8.092 2.354-15.071 12.16-18.183 20.458-.485 1.295-.893 2.407-1.246 3.374-1.835 5.009-2.165 5.911-4.524 8.271-.281.28-.812.744-1.486 1.33-4.158 3.616-12.807 11.143-12.807 18.377v.913l.909.083c.101.009.696.059 1.671.059 3.527 0 12.017-.651 19.993-6.235 5.366-3.756 8.459-6.382 10.203-8.043-.501 2.339-1.767 4.965-2.54 6.516l-6.312 3.788 5.076 2.537v5.382l5.219-3.914 5.437 1.358-2.56-6.398c1.953-3.913 3.904-7.984 3.904-13.046 0-.683-.05-1.51-.127-2.381 1.042-.698 4.053-2.73 5.771-4.036 3.249 2.589 7.597 2.551 9.019 2.451.483.387 1.366.966 2.337.966 2.729 0 4-3.58 4-6 0-2.626-1.509-4-3-4zm-14-25c2.757 0 5 2.243 5 5s-2.243 5-5 5-5-2.243-5-5 2.243-5 5-5zm-19.271 16.774c.8.835 1.271 1.976 1.271 3.226 0 2.206-1.794 4-4 4-.3 0-.594-.039-.881-.103.924-2.369 2.151-4.807 3.61-7.123zm-7.831 17.36 1.742 1.161c-.601.87-1.356 1.659-2.374 2.68l-1.7-1.133c.047-.045.101-.095.141-.135.963-.963 1.635-1.738 2.191-2.573zm-3.876 4.082 1.725 1.15c-.103.09-.204.178-.314.274-.63.548-1.442 1.316-2.335 2.223l-1.809-1.206c1.033-.955 1.981-1.786 2.733-2.441zm-4.218 3.855 1.893 1.262c-.776.84-1.573 1.751-2.348 2.697l-2.032-1.355c.815-.917 1.659-1.792 2.487-2.604zm6.495 6.681 1.174 1.761c-1.259.625-2.508 1.147-3.725 1.572l-.618-1.853c1.003-.42 2.055-.91 3.169-1.48zm-5.035 2.202.578 1.734c-1.239.353-2.423.622-3.524.817l.361-1.803c.823-.185 1.681-.432 2.585-.748zm-7.221-1.954c.58-.947 1.248-1.881 1.973-2.787l2.092 1.395c-.348.462-.685.927-1.004 1.392zm-1.981 5.042c.128-1.001.46-2.022.918-3.042h2.853l-.766 1.272 1.499-.204-.35 1.75c-1.813.213-3.264.24-4.154.224zm19.365-5.861c-.723.506-1.454.956-2.185 1.38l-1.17-1.754c.693-.382 1.404-.786 2.142-1.223.419-.248.812-.496 1.209-.745l1.371 1.371c-.441.316-.888.635-1.367.971zm4.731-5.609 1.209 1.209c-.853.676-1.831 1.424-2.934 2.238l-1.292-1.292c1.116-.749 2.125-1.475 3.017-2.155zm1.584-1.244c1.065-.869 1.87-1.588 2.369-2.052l1.406.937c-.627.602-1.481 1.371-2.591 2.298zm7.363 9.225-.201.401 1.44 3.602-2.563-.642-2.781 2.086v-2.618l-2.924-1.462 3.688-2.212.13-.261c1.085-2.171 3.106-6.211 3.106-9.447 0-2.648-1.354-4.596-1.982-5.357.262-2.587 3.319-4.127 5.146-4.533.275 1.792.836 5.706.836 7.89 0 4.764-1.892 8.547-3.895 12.553zm22.895-17.553c-.392 0-1.005-.424-1.293-.707l-.346-.345-.483.06c-.074.009-7.342.828-9.983-4.455l-1.789.895c.322.644.699 1.206 1.108 1.713-1.174.874-3.016 2.151-4.578 3.208-.281-2.308-.624-4.387-.648-4.532l-.141-.837h-.847c-2.203 0-8 2.152-8 7v.414l.293.293c.014.014 1.128 1.172 1.543 2.982l-2.963-1.976-.58.58c-.039.039-3.981 3.952-10.096 7.569-4.014 2.373-7.264 3.89-10.018 4.658 2.561-3.56 6.037-7.041 7.565-8.372.789-.686 1.358-1.182 1.79-1.613 1.521-1.521 2.505-2.552 3.338-4.049l.45-.806-3.454-2.303c.537-1.151 1.063-2.583 1.826-4.668.214-.585.451-1.232.71-1.932.518.144 1.051.223 1.596.223 3.309 0 6-2.691 6-6 0-1.938-.797-3.708-2.146-4.927 3.119-4.461 7.056-8.22 11.164-9.718.186 3.694 3.242 6.645 6.982 6.645 3.859 0 7-3.141 7-7 0-.306-.026-.606-.065-.901l4.985.498c1.756.175 3.08 1.638 3.08 3.403 0 2.948-1.012 8.683-3.8 12.4-2.307 3.076-4.633 4.939-5.449 5.548-.682-.805-1.101-1.738-1.48-2.586-.131-.292-.254-.564-.376-.81l-1.789.895c.11.222.221.469.339.732.975 2.177 2.606 5.821 8.555 5.821h.721l.228-.684c.162-.489.989-2.316 2.051-2.316.484 0 1 .701 1 2 0 1.812-.893 4-2 4z"/></svg>