<svg id="Layer_1" enable-background="new 0 0 50 50" viewBox="0 0 50 50" xmlns="http://www.w3.org/2000/svg"><g><path d="m27.201 31.873s-1.119 2.977-2.745 6.663c-1.42 3.219 2.058 6.378 5.148 4.694 1.71-.932 3.419-1.973 4.913-3.083 1.856-1.379 2.646-3.778 2.093-6.022-.627-2.543-1.529-5.894-2.364-7.862" fill="#515151"/><path d="m27.812 44.194c-1.021 0-2.024-.381-2.827-1.119-1.33-1.224-1.717-3.085-.985-4.741 1.601-3.63 2.722-6.607 2.733-6.637.097-.258.388-.392.644-.292.259.097.39.385.292.644-.011.03-1.142 3.032-2.755 6.689-.674 1.527-.056 2.861.749 3.602.813.748 2.216 1.263 3.702.45 1.878-1.022 3.511-2.048 4.854-3.045 1.674-1.244 2.423-3.404 1.906-5.502-.61-2.475-1.512-5.835-2.339-7.785-.108-.254.011-.548.265-.656.252-.106.548.01.655.265.854 2.012 1.771 5.427 2.39 7.937.613 2.49-.282 5.059-2.281 6.544-1.379 1.025-3.052 2.075-4.971 3.121-.649.352-1.345.525-2.032.525z" fill="#3f3f3d"/></g><g><path d="m27.415 40.082c-.078 0-.157-.019-.231-.057-.245-.128-.34-.43-.212-.675 1.516-2.9.039-5.235.024-5.259-.15-.231-.085-.542.146-.691.23-.15.54-.085.691.146.075.115 1.807 2.854.024 6.267-.088.171-.262.269-.442.269z" fill="#3f3f3d"/></g><g><path d="m30.455 38.93c-.071 0-.145-.016-.213-.048-.25-.117-.357-.415-.239-.665 1.606-3.413.59-5.423.546-5.506-.128-.243-.037-.546.205-.676.242-.129.542-.042.675.2.055.101 1.316 2.503-.521 6.407-.086.181-.265.288-.453.288z" fill="#3f3f3d"/></g><g><path d="m33.771 38.93c-.064 0-.131-.013-.194-.039-.254-.107-.374-.4-.267-.655 1.169-2.774-.626-6.83-.645-6.871-.113-.252-.001-.548.251-.661.251-.116.549-.002.661.251.082.183 1.99 4.498.654 7.67-.081.189-.265.305-.46.305z" fill="#3f3f3d"/></g><g><g><path d="m20.314 16.398s2.269-2.111.58-5.172c0 0 2.797.211 1.847-3.694 0 0 3.46.897 1.387-2.744 0 0 3.784 2.744 4.207-2.322 0 0 4.222 4.327 4.38-.633 0 0 2.347 1.681 3.654 4.693-6.74 8.598-13.35 16.698-16.055 9.872z" fill="#515151"/><path d="m23.173 19.449c-.147 0-.292-.01-.436-.031-1.242-.18-2.213-1.134-2.888-2.836-.075-.191-.027-.408.123-.549.08-.076 1.956-1.898.484-4.565-.089-.161-.082-.357.017-.512.1-.155.28-.242.459-.228-.001-.002.715.037 1.141-.473.413-.495.477-1.396.183-2.604-.042-.17.01-.35.134-.474.125-.123.31-.171.476-.129.444.114 1.162.137 1.352-.112.155-.203.099-.809-.522-1.9-.116-.204-.074-.461.101-.619.175-.159.436-.171.627-.034.378.272 1.534.901 2.321.536.762-.351 1.015-1.55 1.094-2.494.016-.195.145-.362.329-.429.184-.065.39-.018.526.121.786.805 2.197 1.821 2.875 1.557.385-.149.614-.809.647-1.856.006-.184.113-.351.278-.432.166-.082.364-.066.513.042.101.072 2.475 1.797 3.821 4.9.072.168.048.363-.065.508-5.589 7.127-10.17 12.613-13.59 12.613zm-2.276-2.952c.521 1.182 1.172 1.814 1.983 1.932 3.094.439 8.516-6.372 12.907-11.973-.804-1.717-1.946-2.956-2.672-3.63-.175.944-.572 1.542-1.187 1.78-1.063.414-2.409-.461-3.231-1.134-.249 1.21-.765 2.001-1.54 2.357-.668.307-1.398.218-2.002.022.22.721.171 1.28-.146 1.693-.399.522-1.097.608-1.642.583.183 1.21.002 2.145-.539 2.783-.359.422-.807.628-1.186.728.973 2.394-.204 4.203-.745 4.859z" fill="#3f3f3d"/></g></g><g><path d="m13.665 35.818c-2.454 1.979-9.089 2.747-12.665 7.757 0 0 4.534-2.816 6.174 1.266 2.066 5.143 7.781 4.935 11.029-5.013" fill="#515151"/><path d="m11.149 48.666c-1.867 0-3.521-1.35-4.439-3.638-.377-.938-.927-1.516-1.679-1.764-1.666-.545-3.748.723-3.767.736-.203.126-.465.091-.629-.083-.162-.174-.18-.438-.042-.632 2.426-3.398 6.151-4.891 9.145-6.089 1.516-.607 2.824-1.131 3.614-1.769.213-.173.528-.141.703.076.173.215.14.529-.076.703-.906.73-2.279 1.28-3.87 1.917-2.354.942-5.179 2.074-7.363 4.191.791-.202 1.717-.288 2.594-.002 1.038.34 1.812 1.128 2.299 2.342.771 1.92 2.047 3.011 3.51 3.011.032 0 .065 0 .099-.001 2.451-.082 4.874-3.069 6.481-7.992.086-.263.367-.404.631-.32.263.086.405.368.32.631-1.77 5.419-4.467 8.583-7.399 8.681-.046.002-.089.002-.132.002z" fill="#3f3f3d"/></g><g><path d="m40.203 25.523s.786.175.456 3.289c-.212 2.004 1.194 3.861 3.177 4.213 5.33.947 8.819-3.513-1.351-10.143" fill="#515151"/><path d="m45.209 33.65c-.466 0-.955-.043-1.461-.133-2.252-.4-3.827-2.49-3.586-4.759.228-2.151-.109-2.7-.175-2.785-.206-.098-.324-.328-.272-.56.06-.268.324-.438.597-.379.456.102 1.172.734.845 3.83-.186 1.748 1.03 3.36 2.768 3.669 2.177.384 3.96-.174 4.444-1.396.581-1.469-.73-4.299-6.156-7.835-.23-.151-.296-.46-.146-.692.151-.231.46-.294.692-.146 7.259 4.732 6.991 7.898 6.539 9.041-.537 1.357-2.102 2.145-4.089 2.145zm-5.116-7.639h.002c-.001 0-.001 0-.002 0z" fill="#3f3f3d"/></g><g><path d="m22.351 18.067-3.641-4.29c-.981-1.156-2.804-1.022-3.606.265l-3.763 6.045c-1.632 2.622.613 6.194 3.618 5.481 1.382-.328 4.456-1.778 5.935-3.182" fill="#515151"/><path d="m14.199 26.158c-1.2 0-2.334-.584-3.089-1.634-1.016-1.412-1.092-3.258-.193-4.701l3.763-6.045c.468-.751 1.242-1.219 2.125-1.284.874-.068 1.714.285 2.287.959l3.641 4.29c.179.21.153.526-.058.705-.209.178-.526.153-.704-.058l-3.642-4.29c-.364-.428-.897-.648-1.451-.609-.561.041-1.052.338-1.349.815l-3.763 6.045c-.684 1.098-.622 2.507.156 3.589.705.98 1.793 1.407 2.921 1.142 1.334-.316 4.317-1.74 5.706-3.059.201-.19.518-.183.707.019.19.2.183.517-.018.707-1.558 1.478-4.742 2.969-6.165 3.306-.292.069-.585.103-.874.103z" fill="#3f3f3d"/></g><g><g><path d="m13.665 35.818c1.583-1.478 1.96-2.603 2.639-4.538 5.62-16.024 13.709-27.074 28.179-25.119-1.451.844 0 2.744-.976 5.277l3.483-2.533c-.395 9.679-3.351 18.892-26.992 29.05-.72.309-1.425.792-1.794 1.873-2.847-.181-4.237-1.624-4.539-4.01z" fill="#686868"/><path d="m18.203 40.328c-.011 0-.021 0-.032-.001-2.97-.189-4.652-1.686-5.002-4.447-.021-.159.037-.318.155-.428 1.467-1.37 1.825-2.392 2.476-4.246 6.731-19.197 15.856-27.281 28.75-25.541.211.029.381.188.423.398s-.054.422-.238.53c-.465.271-.48.665-.406 1.723.038.557.083 1.198-.006 1.911l2.372-1.727c.154-.113.361-.127.53-.037s.271.27.264.461c-.374 9.148-2.79 18.959-27.295 29.489-.568.245-1.193.623-1.518 1.575-.069.205-.26.34-.473.34zm-4.006-4.327c.331 2.008 1.509 3.064 3.679 3.298.492-1.079 1.319-1.543 1.924-1.803 23.085-9.92 26.108-18.728 26.638-27.572l-2.637 1.918c-.18.13-.423.127-.599-.008s-.241-.369-.162-.576c.415-1.078.349-2.031.29-2.873-.044-.639-.09-1.292.148-1.838-11.836-1.152-20.354 6.791-26.703 24.897-.661 1.887-1.087 3.102-2.578 4.557z" fill="#3f3f3d"/></g></g><g><path d="m20.894 11.227s2.352 1.342 3.445 3.916" fill="#686868"/><path d="m24.34 15.643c-.194 0-.379-.114-.46-.305-1.012-2.38-3.212-3.665-3.233-3.678-.239-.138-.322-.443-.186-.682.138-.24.44-.325.682-.186.102.058 2.511 1.456 3.657 4.155.108.254-.011.547-.265.655-.063.028-.13.041-.195.041z" fill="#3f3f3d"/></g><g><path d="m22.741 7.533s2.814 2.164 3.94 4.644" fill="#686868"/><path d="m26.682 12.677c-.189 0-.371-.109-.455-.293-1.063-2.34-3.763-4.433-3.79-4.454-.219-.168-.26-.482-.092-.701.169-.218.483-.26.701-.092.119.091 2.927 2.269 4.091 4.834.114.251.003.548-.248.662-.068.03-.138.044-.207.044z" fill="#3f3f3d"/></g><g><path d="m24.129 4.789s3.696 2.53 5.007 5.355" fill="#686868"/><path d="m29.135 10.644c-.188 0-.369-.107-.453-.29-1.239-2.67-4.8-5.128-4.835-5.153-.229-.156-.286-.467-.13-.695.157-.228.469-.285.694-.13.155.106 3.824 2.641 5.177 5.557.116.25.008.548-.243.664-.068.032-.14.047-.21.047z" fill="#3f3f3d"/></g><g><path d="m28.335 2.467s3.284 3.487 3.463 5.886" fill="#686868"/><path d="m31.797 8.853c-.259 0-.479-.2-.498-.463-.136-1.823-2.448-4.646-3.328-5.581-.189-.201-.18-.518.021-.707.201-.19.517-.18.707.021.139.147 3.407 3.646 3.598 6.192.021.275-.187.515-.462.536-.013.002-.025.002-.038.002z" fill="#3f3f3d"/></g><g><path d="m13.981 23.383c-.194 0-.379-.114-.46-.304-.108-.254.01-.548.264-.656 2.767-1.18 5.979-.061 6.115-.011.26.092.396.378.303.638-.092.26-.377.396-.639.304-.028-.01-2.983-1.036-5.387-.011-.064.027-.13.04-.196.04z" fill="#3f3f3d"/></g><g><path d="m20.313 22.207c-.122 0-.243-.044-.34-.133-.018-.017-1.831-1.657-4.924-1.905-.275-.022-.48-.263-.458-.539s.266-.474.538-.458c3.456.277 5.441 2.093 5.524 2.17.201.188.213.503.025.705-.097.106-.231.16-.365.16z" fill="#3f3f3d"/></g><g><path d="m21.099 20.72c-.202 0-.392-.124-.468-.323-.046-.12-1.153-2.939-4.643-3.885-.267-.072-.424-.347-.352-.613.073-.266.344-.425.613-.352 4.001 1.084 5.266 4.36 5.317 4.499.096.258-.035.545-.293.642-.056.021-.116.032-.174.032z" fill="#3f3f3d"/></g><g><path d="m7.411 41.463c-.183 0-.359-.102-.447-.276-.123-.247-.023-.547.224-.671 2.04-1.02 6.789-3.271 6.837-3.293.247-.116.546-.013.666.238.118.249.012.548-.238.666-.048.022-4.787 2.268-6.817 3.283-.073.036-.15.053-.225.053z" fill="#3f3f3d"/></g><g><path d="m9.602 43.838c-.208 0-.401-.13-.473-.338-.09-.261.049-.545.311-.635 3.281-1.128 5.804-4.026 5.829-4.056.18-.208.495-.231.705-.053.209.18.233.495.053.705-.109.127-2.719 3.131-6.263 4.349-.054.019-.109.028-.162.028z" fill="#3f3f3d"/></g><g><path d="m12.241 45.896c-.158 0-.313-.075-.411-.215-.157-.226-.102-.537.124-.695.026-.019 2.664-1.889 4.452-5.589.119-.249.419-.354.668-.232.248.12.353.419.232.668-1.908 3.948-4.665 5.894-4.781 5.975-.087.058-.186.088-.284.088z" fill="#3f3f3d"/></g><g><path d="m35.512 17.058s-3.404 1.586-5.846 4.077c-1.237 1.262-.806 3.35.834 4.008 1.201.482 2.735.862 4.453.736.888-.065 1.673-.654 1.931-1.506.294-.97.642-2.567.843-5.048" fill="#686868"/><path d="m34.278 26.403c-1.316 0-2.647-.268-3.965-.797-.923-.371-1.595-1.168-1.798-2.134-.203-.969.094-1.974.793-2.688 2.477-2.527 5.85-4.113 5.992-4.18.248-.115.547-.009.664.242.116.25.009.548-.242.665-.033.016-3.354 1.58-5.699 3.974-.473.482-.665 1.131-.529 1.782.136.647.57 1.162 1.192 1.412 1.413.568 2.842.805 4.229.701.698-.052 1.297-.515 1.49-1.152.263-.867.619-2.429.824-4.944.021-.275.252-.478.539-.458.274.022.479.264.457.539-.212 2.604-.586 4.239-.863 5.153-.312 1.031-1.266 1.779-2.373 1.86-.236.017-.473.025-.711.025z" fill="#3f3f3d"/></g><g><path d="m38.124 14.208s2.604 4.885 6.843 4.501" fill="#686868"/><path d="m44.483 19.231c-4.198 0-6.692-4.584-6.801-4.787-.13-.244-.037-.546.206-.676.242-.128.545-.039.677.205.024.046 2.481 4.594 6.356 4.238.254-.022.519.178.543.453s-.178.519-.453.543c-.178.016-.355.024-.528.024z" fill="#3f3f3d"/></g><g><circle cx="39.35" cy="9.975" fill="#e5e5e5" r="1.622"/><path d="m39.35 12.096c-1.17 0-2.121-.952-2.121-2.122s.951-2.122 2.121-2.122 2.122.952 2.122 2.122-.952 2.122-2.122 2.122zm0-3.243c-.618 0-1.121.503-1.121 1.122s.503 1.122 1.121 1.122c.619 0 1.122-.503 1.122-1.122s-.503-1.122-1.122-1.122z" fill="#3f3f3d"/></g></svg>