<?xml version="1.0" encoding="UTF-8"?>
<svg xmlns="http://www.w3.org/2000/svg" id="Filled" viewBox="0 0 512 512" width="512" height="512"><path d="M336,96H304a48,48,0,0,0-96,0H176a80,80,0,0,1,160,0Z" style="fill:#ab6643"/><path d="M416,248V488H96V248s80-32,80-152H336C336,216,416,248,416,248Z" style="fill:#d28e73"/><path d="M96,248,40.459,278.856A32,32,0,0,0,24,306.829V416H56V321.059a16,16,0,0,1,7.768-13.72L96,288Z" style="fill:#ab6643"/><path d="M176,296H336a0,0,0,0,1,0,0v64a32,32,0,0,1-32,32H208a32,32,0,0,1-32-32V296A0,0,0,0,1,176,296Z" style="fill:#c2846a"/><rect x="176" y="296" width="160" height="32" style="fill:#ab6643"/><path d="M416,248l55.541,30.856A32,32,0,0,1,488,306.829V416H456V321.059a16,16,0,0,0-7.768-13.72L416,288Z" style="fill:#ab6643"/><path d="M336,288H176a8,8,0,0,0-8,8v64a40.045,40.045,0,0,0,40,40h96a40.045,40.045,0,0,0,40-40V296A8,8,0,0,0,336,288Zm-8,16v16H184V304Zm-24,80H208a24.028,24.028,0,0,1-24-24V336H328v24A24.028,24.028,0,0,1,304,384Z"/><path d="M475.426,271.863S419.687,240.9,419.6,240.853c-.191-.1-19.22-9.878-37.935-32.56C356.671,178.006,344,140.225,344,96a88,88,0,0,0-176,0c0,44.225-12.671,82.006-37.661,112.293-18.714,22.682-37.744,32.464-37.917,32.552-.1.051-55.848,31.018-55.848,31.018A40.022,40.022,0,0,0,16,306.829V416a8,8,0,0,0,8,8H56a8,8,0,0,0,8-8V321.059a8.039,8.039,0,0,1,3.884-6.86L88,302.129V488a8,8,0,0,0,8,8H416a8,8,0,0,0,8-8V302.13L444.115,314.2a8.04,8.04,0,0,1,3.885,6.86V416a8,8,0,0,0,8,8h32a8,8,0,0,0,8-8V306.829A40.024,40.024,0,0,0,475.426,271.863ZM256,24a72.1,72.1,0,0,1,71.545,64H311.419a55.992,55.992,0,0,0-110.838,0H184.455A72.1,72.1,0,0,1,256,24ZM295.2,88h-78.39a40,40,0,0,1,78.39,0ZM59.652,300.479A24.122,24.122,0,0,0,48,321.059V408H32V306.829a24.014,24.014,0,0,1,12.345-20.98L88,261.6v21.875ZM408,480H104V252.654a157.516,157.516,0,0,0,38.146-33.532c18.236-21.884,39.816-59.314,41.719-115.122H328.136c1.9,55.808,23.482,93.238,41.718,115.122A157.539,157.539,0,0,0,408,252.654Zm72-72H464V321.059a24.124,24.124,0,0,0-11.652-20.58L424,283.47V261.6l43.655,24.253A24.014,24.014,0,0,1,480,306.829Z"/></svg>
