<svg id="Filled" height="512" viewBox="0 0 512 512" width="512" xmlns="http://www.w3.org/2000/svg"><path d="m125.029 472 82.971-264h32l-82.971 264z" fill="#edc"/><path d="m240 208-20.11 64h-32l20.11-64z" fill="#e1d1c0"/><path d="m320 208 88 280h32l-88-280z" fill="#edc"/><path d="m352 208 20.11 64h-32l-20.11-64z" fill="#e1d1c0"/><path d="m440 488h-32l-15.09-48h32z" fill="#e1d1c0"/><circle cx="152" cy="432" fill="#7e8387" r="56"/><circle cx="152" cy="432" fill="#6a7073" r="24"/><path d="m464 64c0 97.2-82.38 176-184 176s-184-78.8-184-176z" fill="#fdb432"/><ellipse cx="280" cy="64" fill="#de9d2c" rx="184" ry="40"/><path d="m152 400a32 32 0 1 0 32 32 32.036 32.036 0 0 0 -32-32zm0 48a16 16 0 1 1 16-16 16.019 16.019 0 0 1 -16 16z"/><path d="m472 64c0-15.487-19.689-27.3-60.193-36.1-35.294-7.674-82.107-11.9-131.807-11.9s-96.513 4.226-131.807 11.9c-33.22 7.22-52.428 16.465-58.266 28.1h-17.927a32 32 0 0 0 0 64h25.1c15.742 47.111 50.787 86.02 96.183 108.136l-43.976 139.932a64.077 64.077 0 1 0 44.02 15.12l24.887-79.188h123.572l58.582 186.4a8 8 0 0 0 7.632 5.6h32a8 8 0 0 0 7.632-10.4l-80.918-257.464c62.419-30.409 105.286-92.563 105.286-164.136zm-56-18.7c14.6 3.6 24.458 7.4 30.732 10.7h-30.732zm-16 10.7h-16v-16.921q8.3 1.264 16 2.741zm-32 0h-16v-20.8q8.184.765 16 1.706zm-32 0h-16v-23.05q8.118.393 16 .946zm-32 0h-16v-23.961q8.071.075 16 .3zm-32 0h-16v-23.66q7.925-.225 16-.3zm-32 0h-16v-22.1q7.878-.55 16-.946zm-32 0h-16v-19.093q7.808-.939 16-1.706zm-32 0h-16v-14.18q7.688-1.474 16-2.741zm-32 0h-30.732c6.274-3.3 16.137-7.1 30.732-10.7zm0 16v10.7c-14.595-3.6-24.458-7.4-30.732-10.7zm16 0h16v16.921q-8.3-1.265-16-2.741zm32 0h16v20.8q-8.184-.765-16-1.706zm32 0h16v23.05q-8.118-.393-16-.946zm32 0h16v23.961q-8.071-.075-16-.3zm32 0h16v23.66q-7.925.225-16 .3zm32 0h16v22.1q-7.878.551-16 .946zm32 0h16v19.093q-7.808.939-16 1.706zm32 0h16v14.18q-7.687 1.474-16 2.741zm32 0h30.732c-6.274 3.3-16.132 7.1-30.732 10.7zm-344 32a16 16 0 0 1 0-32h16.192a176.28 176.28 0 0 0 4.391 32zm149.765 135.339-7.751 24.661h-15.229l9.248-29.425q6.744 2.625 13.732 4.764zm-21.765 192.661a48 48 0 1 1 -48-48 48.054 48.054 0 0 1 48 48zm-34.364-62.523 28.121-89.477h15.229l-29.6 94.17a63.512 63.512 0 0 0 -13.75-4.693zm57.607-81.477 14.017-44.6a200.813 200.813 0 0 0 85.48 0l14.017 44.6zm190.771 144h-15.228l-47.772-152h15.229zm-.142 48-10.058-32h15.229l10.057 32zm-52.657-216h-15.229l-7.751-24.661q6.986-2.136 13.732-4.764zm-81.215-32c-89.225 0-163.143-63.706-174.481-145.968 9.928 5.364 24.107 10.034 42.674 14.07 35.294 7.672 82.107 11.898 131.807 11.898s96.513-4.226 131.807-11.9c18.567-4.036 32.746-8.706 42.674-14.07-11.338 82.264-85.256 145.97-174.481 145.97z"/><path d="m280 200a149.563 149.563 0 0 1 -76.95-21.1 139.9 139.9 0 0 1 -52.115-54.628 8 8 0 0 0 -14.161 7.448 155.9 155.9 0 0 0 58.047 60.9 165.571 165.571 0 0 0 85.179 23.38 8 8 0 0 0 0-16z"/></svg>