<svg id="Filled" height="512" viewBox="0 0 512 512" width="512" xmlns="http://www.w3.org/2000/svg"><path d="m216 24h48a16 16 0 0 1 16 16v32a0 0 0 0 1 0 0h-80a0 0 0 0 1 0 0v-32a16 16 0 0 1 16-16z" fill="#e8423f"/><g fill="#edc"><path d="m104 88 56 64v-64z"/><path d="m394.215 233.544-90.215 62.456v-40l64.875-43.25a16 16 0 0 0 7.125-13.313v-63.437a16 16 0 0 0 -16-16h-56v-32h72a32 32 0 0 1 32 32v87.234a32 32 0 0 1 -13.785 26.31z"/><path d="m144 56h192v48h-192z"/></g><path d="m344 417v71h-208v-71a64.007 64.007 0 0 1 8.432-31.753l23.568-41.247h144l23.568 41.243a64.007 64.007 0 0 1 8.432 31.757z" fill="#e8423f"/><circle cx="240" cy="408" fill="#edc" r="32"/><path d="m144 120s0 120 24 192v32h144v-32c24-72 24-192 24-192z" fill="#f9e7d6"/><path d="m144 88h192v32h-192z" fill="#e1d1c0"/><path d="m240 416a8 8 0 0 1 -5.657-13.657l22.628-22.627a8 8 0 0 1 11.313 11.313l-22.627 22.628a7.976 7.976 0 0 1 -5.657 2.343z" fill="#e1d1c0"/><path d="m168 312h144v32h-144z" fill="#e1d1c0"/><path d="m336 48h-48v-8a24.027 24.027 0 0 0 -24-24h-48a24.027 24.027 0 0 0 -24 24v8h-48a8 8 0 0 0 -8 8v24h-32a8 8 0 0 0 -6.146 13.122l38.477 46.172c1.049 36.874 5.429 118.235 23.669 173.973v28.609l-22.513 39.4a72.112 72.112 0 0 0 -9.487 35.724v71a8 8 0 0 0 8 8h208a8 8 0 0 0 8-8v-71a72.116 72.116 0 0 0 -9.486-35.722l-22.514-39.403v-28.607c2.394-7.315 4.551-15.068 6.491-23.109l72.278-50.038a40.006 40.006 0 0 0 17.231-32.888v-87.233a40.045 40.045 0 0 0 -40-40h-32v-24a8 8 0 0 0 -8-8zm-162.152 256c-18.232-59.523-21.248-148.992-21.748-176h175.8c-.5 27.009-3.519 116.477-21.75 176zm130.152 16v16h-128v-16zm-152-208v-16h176v16zm191.923 16h16.077a8.009 8.009 0 0 1 8 8v63.437a7.986 7.986 0 0 1 -3.563 6.657l-26.683 17.789c4.797-41.459 5.912-79.693 6.169-95.883zm-135.923-88a8.009 8.009 0 0 1 8-8h48a8.009 8.009 0 0 1 8 8v8h-64zm120 24v16h-176v-16zm-192 32v17.9l-14.919-17.9zm200 321v63h-192v-63a56.094 56.094 0 0 1 7.378-27.784l21.265-37.216h134.714l21.264 37.212a56.092 56.092 0 0 1 7.379 27.788zm40-321a24.028 24.028 0 0 1 24 24v87.233a24 24 0 0 1 -10.339 19.733l-58.34 40.389c1.375-7.4 2.6-14.909 3.693-22.416l38.3-25.533a23.952 23.952 0 0 0 10.686-19.969v-63.437a24.027 24.027 0 0 0 -24-24h-16v-16z"/><path d="m268.284 379.716c-.166-.166-.34-.319-.516-.467a40.067 40.067 0 1 0 .985.985c-.153-.177-.302-.352-.469-.518zm-28.284 52.284a24 24 0 1 1 10.341-45.654l-16 16a8 8 0 0 0 11.314 11.314l16-16a23.993 23.993 0 0 1 -21.655 34.34z"/><path d="m264 224a8 8 0 0 0 0-16h-32v-16h16a8 8 0 0 0 0-16h-16v-16h32a8 8 0 0 0 0-16h-40a8 8 0 0 0 -8 8v128a8 8 0 0 0 8 8h40a8 8 0 0 0 0-16h-32v-16h16a8 8 0 0 0 0-16h-16v-16z"/></svg>