<svg id="Filled" height="512" viewBox="0 0 512 512" width="512" xmlns="http://www.w3.org/2000/svg"><path d="m359.911 280h-208c-136-80-128-240-128-240h464s8 160-128 240z" fill="#757c80"/><path d="m360.089 360h-208c-136-80-128-240-128-240h464s8 160-128 240z" fill="#6a7073"/><path d="m488 200h-464s-8 160 128 240v16a16 16 0 0 0 16 16h176a16 16 0 0 0 16-16v-16c136-80 128-240 128-240z" fill="#757c80"/><path d="m360 440v16a16 16 0 0 1 -16 16h-176a16 16 0 0 1 -16-16v-16z" fill="#6a7073"/><path d="m488.109 192.005c9.4-40.883 8.038-71.044 7.97-72.4a8 8 0 0 0 -7.99-7.6h-.157c9.395-40.881 8.037-71.039 7.969-72.4a8 8 0 0 0 -7.99-7.6h-464a8 8 0 0 0 -7.99 7.6c-.068 1.361-1.425 31.523 7.971 72.409a7.994 7.994 0 0 0 -7.792 7.586c-.068 1.361-1.426 31.519 7.969 72.4h-.069a8 8 0 0 0 -7.99 7.6c-.084 1.689-1.894 41.96 13.328 92.7a282.261 282.261 0 0 0 38.733 81.039 253.356 253.356 0 0 0 75.929 71.167v11.494a24.028 24.028 0 0 0 24 24h176a24.028 24.028 0 0 0 24-24v-11.494a253.356 253.356 0 0 0 75.929-71.168 282.261 282.261 0 0 0 38.733-81.038c15.222-50.738 13.412-91.009 13.328-92.7a8 8 0 0 0 -7.881-7.595zm-8.136-144.005a299.366 299.366 0 0 1 -8.475 64h-431.173a300.669 300.669 0 0 1 -8.468-64zm-447.938 80h448.107a300.6 300.6 0 0 1 -8.467 64h-431.175a300.582 300.582 0 0 1 -8.465-64zm311.965 336h-176a8.009 8.009 0 0 1 -8-8v-8h192v8a8.009 8.009 0 0 1 -8 8zm123.338-176.3a266.317 266.317 0 0 1 -36.517 76.461 237.64 237.64 0 0 1 -73.021 67.839h-203.6a237.636 237.636 0 0 1 -72.822-67.559 266.011 266.011 0 0 1 -36.551-76.2 303.935 303.935 0 0 1 -12.879-80.241h448.112a302.865 302.865 0 0 1 -12.722 79.7z"/><path d="m75.312 278.506c15.561 51.865 44.5 92.285 86.024 120.138a8 8 0 1 0 8.914-13.288c-38.36-25.732-65.146-63.229-79.611-111.447a260.5 260.5 0 0 1 -6.6-27.364 8 8 0 1 0 -15.732 2.91 276.3 276.3 0 0 0 7.005 29.051z"/></svg>