<svg id="Filled" height="512" viewBox="0 0 512 512" width="512" xmlns="http://www.w3.org/2000/svg"><path d="m184 40h144v32h-144z" fill="#e1d1c0"/><path d="m168 24a16 16 0 0 1 16 16v64a0 0 0 0 1 0 0h-32a0 0 0 0 1 0 0v-64a16 16 0 0 1 16-16z" fill="#f9e7d6"/><path d="m152 104h208v32h-208z" fill="#e1d1c0"/><path d="m400 456h-288l40-320h208z" fill="#f9e7d6"/><rect fill="#e1d1c0" height="32" rx="16" width="336" x="88" y="456"/><path d="m328 24h32a0 0 0 0 1 0 0v64a16 16 0 0 1 -16 16 16 16 0 0 1 -16-16v-64a0 0 0 0 1 0 0z" fill="#f9e7d6" transform="matrix(-1 0 0 -1 688 128)"/><circle cx="192" cy="184" r="8"/><circle cx="224" cy="184" r="8"/><circle cx="256" cy="184" r="8"/><circle cx="192" cy="248" r="8"/><circle cx="224" cy="248" r="8"/><circle cx="256" cy="248" r="8"/><circle cx="192" cy="312" r="8"/><circle cx="160" cy="312" r="8"/><circle cx="224" cy="312" r="8"/><circle cx="256" cy="312" r="8"/><circle cx="192" cy="376" r="8"/><circle cx="160" cy="376" r="8"/><circle cx="224" cy="376" r="8"/><circle cx="256" cy="376" r="8"/><circle cx="176" cy="216" r="8"/><circle cx="208" cy="216" r="8"/><circle cx="240" cy="216" r="8"/><circle cx="176" cy="280" r="8"/><circle cx="208" cy="280" r="8"/><circle cx="240" cy="280" r="8"/><circle cx="176" cy="344" r="8"/><circle cx="208" cy="344" r="8"/><circle cx="240" cy="344" r="8"/><circle cx="176" cy="408" r="8"/><circle cx="208" cy="408" r="8"/><circle cx="240" cy="408" r="8"/><path d="m368 40a24 24 0 0 0 -46.624-8h-130.752a24 24 0 0 0 -46.624 8v95.5l-39.062 312.5h-.938a24 24 0 0 0 0 48h304a24 24 0 0 0 0-48h-.938l-39.062-312.5zm-208 72h192v16h-192zm160-48h-128v-16h128zm0 16v16h-128v-16zm16-40a8 8 0 0 1 16 0v56h-16zm-176 0a8 8 0 0 1 16 0v56h-16zm256 432a8.009 8.009 0 0 1 -8 8h-304a8 8 0 0 1 0-16h304a8.009 8.009 0 0 1 8 8zm-294.938-24 38-304h193.876l38 304z"/><circle cx="320" cy="184" r="8"/><circle cx="288" cy="184" r="8"/><circle cx="320" cy="248" r="8"/><circle cx="288" cy="248" r="8"/><circle cx="320" cy="312" r="8"/><circle cx="352" cy="312" r="8"/><circle cx="288" cy="312" r="8"/><circle cx="320" cy="376" r="8"/><circle cx="352" cy="376" r="8"/><circle cx="288" cy="376" r="8"/><circle cx="336" cy="216" r="8"/><circle cx="304" cy="216" r="8"/><circle cx="272" cy="216" r="8"/><circle cx="336" cy="280" r="8"/><circle cx="304" cy="280" r="8"/><circle cx="272" cy="280" r="8"/><circle cx="336" cy="344" r="8"/><circle cx="304" cy="344" r="8"/><circle cx="272" cy="344" r="8"/><circle cx="336" cy="408" r="8"/><circle cx="304" cy="408" r="8"/><circle cx="272" cy="408" r="8"/></svg>