<svg id="Filled" height="512" viewBox="0 0 512 512" width="512" xmlns="http://www.w3.org/2000/svg"><path d="m64 328s-40-32-40-104 88-152 192-152c136 0 272 88 272 184 0 136-112 104-112 104h-312z" fill="#f9e7d6"/><path d="m64 328h312v112h-312z" fill="#f9e7d6"/><path d="m64 328h312v32h-312z" fill="#e1d1c0"/><path d="m407.438 121.344c-54.665-36.444-124.438-57.344-191.438-57.344-50.044 0-101.11 18.53-140.1 50.84-18.14 15.03-33.182 32.709-43.5 51.125-10.731 19.144-16.4 39.212-16.4 58.035 0 64.132 30.169 98.176 40 107.567v108.433a8 8 0 0 0 8 8h312a8 8 0 0 0 8-8v-70.188a123.633 123.633 0 0 0 19.092 1.5c16.494 0 37.32-3.44 55.293-17 24.959-18.824 37.615-51.902 37.615-98.312 0-48.055-32.28-97.135-88.562-134.656zm-39.438 214.656v16h-296v-16zm-296 96v-64h296v64zm376.839-90.526c-22.688 17.179-52.449 14.29-64.839 12.08v-25.554a8 8 0 0 0 -8-8h-41.884c0-.02.007-.036.012-.057 1.041-4.013 6.81-15.265 37.841-33 24-13.714 41.175-26.39 51.052-37.678 7.812-8.926 8.979-14.649 8.979-17.265a8 8 0 0 0 -15.954-.861c-.434 1.34-6 15.624-52.015 41.915-29.022 16.584-44.052 31.54-45.952 45.723-.056.419-.088.821-.119 1.223h-54.7c-1.764-24.507-2.7-108.627 61.326-153.446a8 8 0 1 0 -9.176-13.108c-34.5 24.149-57.078 62.256-65.3 110.2a242.662 242.662 0 0 0 -2.91 56.354h-58.06c-8.323-19.165-37.745-96.67 1.516-155.562a8 8 0 0 0 -13.312-8.876c-20.8 31.2-27.444 71.612-19.215 116.869a253.418 253.418 0 0 0 13.662 47.569h-37.291c-11.663-46.964-57.921-62.906-59.973-63.59a8 8 0 0 0 -5.06 15.18c.4.133 37.176 12.792 48.409 48.41h-50.8a100.239 100.239 0 0 1 -16.594-21.762c-15.275-26.379-18.482-54.931-18.482-74.238 0-32.567 20.226-68.77 54.1-96.84 36.176-29.971 83.521-47.16 129.9-47.16 63.918 0 130.46 19.922 182.562 54.656 51.755 34.503 81.438 78.732 81.438 121.344 0 41.06-10.484 69.816-31.161 85.474z"/></svg>