<svg id="Filled" height="512" viewBox="0 0 512 512" width="512" xmlns="http://www.w3.org/2000/svg"><path d="m392 208-48-96h-320v288h344l48-96h72v-96z" fill="#d28e73"/><path d="m24 368v32h344l48-96h72v-32h-96l-48 96z" fill="#b17a60"/><path d="m488 200h-91.056l-45.789-91.578a8 8 0 0 0 -7.155-4.422h-320a8 8 0 0 0 -8 8v288a8 8 0 0 0 8 8h344a8 8 0 0 0 7.155-4.422l45.789-91.578h67.056a8 8 0 0 0 8-8v-96a8 8 0 0 0 -8-8zm-148.944-80 45.789 91.578a8 8 0 0 0 7.155 4.422h88v48h-88a8 8 0 0 0 -7.155 4.422l-45.789 91.578h-307.056v-64h104a8 8 0 0 0 0-16h-104v-160zm76.944 176a8 8 0 0 0 -7.155 4.422l-45.789 91.578h-331.056v-16h312a8 8 0 0 0 7.155-4.422l45.789-91.578h83.056v16z"/><path d="m56 152h160a8 8 0 0 0 0-16h-160a8 8 0 0 0 0 16z"/><path d="m248 328h-160a8 8 0 0 0 0 16h160a8 8 0 0 0 0-16z"/><path d="m184 192a8 8 0 0 0 8 8h112a8 8 0 0 0 0-16h-112a8 8 0 0 0 -8 8z"/><path d="m248 232h-128a8 8 0 0 0 0 16h128a8 8 0 0 0 0-16z"/><path d="m272 272a8 8 0 0 0 8 8h64a8 8 0 0 0 0-16h-64a8 8 0 0 0 -8 8z"/><circle cx="456" cy="240" r="8"/></svg>