<svg id="Filled" height="512" viewBox="0 0 512 512" width="512" xmlns="http://www.w3.org/2000/svg"><path d="m376 120c-74.667-10.667-165.333-10.667-240 0v-96c74.667 10.667 165.333 10.667 240 0z" fill="#6a7073"/><path d="m223.7 488h-15.39a16 16 0 0 1 -16-16.3l7.4-392a16 16 0 0 1 16-15.7h.6a16 16 0 0 1 16 15.7l7.4 392a16 16 0 0 1 -16.01 16.3z" fill="#d28e73"/><path d="m303.7 488h-15.39a16 16 0 0 1 -16-16.3l7.4-392a16 16 0 0 1 16-15.7h.6a16 16 0 0 1 16 15.7l7.4 392a16 16 0 0 1 -16.01 16.3z" fill="#d28e73"/><path d="m223.7 488h-15.4a16 16 0 0 1 -16-16.3l1.66-87.7h44.08l1.653 87.7a16 16 0 0 1 -15.993 16.3z" fill="#6a7073"/><path d="m303.7 488h-15.4a16 16 0 0 1 -16-16.3l1.66-87.7h44.08l1.653 87.7a16 16 0 0 1 -15.993 16.3z" fill="#6a7073"/><path d="m376 128a8 8 0 0 0 8-8v-96a8 8 0 0 0 -9.132-7.92c-74.431 10.635-163.3 10.635-237.736 0a8 8 0 0 0 -9.132 7.92v96a8 8 0 0 0 9.131 7.92c17-2.429 35.055-4.324 53.768-5.652l-6.59 349.279a24 24 0 0 0 24 24.453h15.391a24 24 0 0 0 24-24.453l-6.63-351.413c9.95-.156 19.94-.159 29.878 0l-6.63 351.417a24 24 0 0 0 24 24.453h15.382a24 24 0 0 0 24-24.453l-6.6-349.281c18.7 1.328 36.754 3.22 53.768 5.65a7.976 7.976 0 0 0 1.132.08zm-146.595 349.6a7.944 7.944 0 0 1 -5.71 2.4h-15.39a8 8 0 0 1 -8-8.15l1.508-79.85h28.374l1.506 79.85a7.938 7.938 0 0 1 -2.288 5.75zm-27.29-101.6 5.585-296.151a8.039 8.039 0 0 1 8-7.849h.6a8.04 8.04 0 0 1 8 7.85l5.585 296.15zm107.285 101.6a7.944 7.944 0 0 1 -5.71 2.4h-15.39a8 8 0 0 1 -8-8.15l1.513-79.85h28.374l1.506 79.85a7.938 7.938 0 0 1 -2.293 5.75zm-27.285-101.6 5.585-296.151a8.039 8.039 0 0 1 8-7.849h.6a8.04 8.04 0 0 1 8 7.85l5.585 296.15zm85.885-265.161c-15.106-1.953-30.92-3.5-47.2-4.63l-.5-26.661a24.121 24.121 0 0 0 -24-23.548h-.6a24.121 24.121 0 0 0 -24 23.547l-.464 24.587c-10.14-.16-20.332-.158-30.482 0l-.454-24.586a24.121 24.121 0 0 0 -24-23.548h-.6a24.121 24.121 0 0 0 -24 23.547l-.5 26.659c-16.287 1.129-32.1 2.68-47.2 4.633v-77.676c70.84 9.176 153.16 9.176 224 0z"/></svg>