<?xml version="1.0" encoding="UTF-8"?>
<svg xmlns="http://www.w3.org/2000/svg" id="Filled" viewBox="0 0 512 512" width="512" height="512"><path d="M480,176v18.9a64,64,0,0,1-42.473,60.271L373.05,278.2,400,232l26.119-8.706A32,32,0,0,0,448,192.936V176a32,32,0,0,0-32-32H400V112h16A64,64,0,0,1,480,176Z" style="fill:#606669"/><path d="M400,88V232c0,56-56,96-56,96H152s-56-40-56-96V88Z" style="fill:#6a7073"/><path d="M464,328c0,64-80,64-80,64H112s-80,0-80-64Z" style="fill:#757c80"/><path d="M360,392v16a16,16,0,0,1-16,16H152a16,16,0,0,1-16-16V392Z" style="fill:#6a7073"/><path d="M144,160a8,8,0,0,0,8-8V136a8,8,0,0,0-16,0v16A8,8,0,0,0,144,160Z"/><path d="M152,232V184a8,8,0,0,0-16,0v48c0,22.424,17.616,43.256,28.117,53.678a8,8,0,1,0,11.271-11.356C168.356,267.343,152,249.248,152,232Z"/><path d="M378.175,306.085a147.042,147.042,0,0,0,18.21-27.725L440.218,262.7A72.153,72.153,0,0,0,488,194.9V176a72.081,72.081,0,0,0-72-72h-8V88a8,8,0,0,0-8-8H96a8,8,0,0,0-8,8V232c0,39.343,24.942,70.753,42.509,88H32a8,8,0,0,0-8,8c0,29.711,15.571,51.645,45.029,63.428A128.5,128.5,0,0,0,112,400h16v8a24.027,24.027,0,0,0,24,24H344a24.027,24.027,0,0,0,24-24v-8h16a128.5,128.5,0,0,0,42.971-8.572C456.429,379.645,472,357.711,472,328a8,8,0,0,0-8-8H365.423A181.417,181.417,0,0,0,378.175,306.085ZM416,120a56.064,56.064,0,0,1,56,56v18.9a56.121,56.121,0,0,1-37.164,52.738l-30.7,10.965a98.087,98.087,0,0,0,3.665-20.77l20.846-6.949A39.949,39.949,0,0,0,456,192.936V176a40.045,40.045,0,0,0-40-40h-8V120Zm-8,100.9V152h8a24.027,24.027,0,0,1,24,24v16.936A23.97,23.97,0,0,1,423.589,215.7ZM352,408a8.009,8.009,0,0,1-8,8H152a8.009,8.009,0,0,1-8-8v-8H352Zm69.4-31.578C403.053,383.862,384.178,384,384,384H112.011c-.189,0-19.064-.138-37.413-7.578C54.419,368.24,42.984,354.664,40.511,336H455.489C453.016,354.664,441.581,368.24,421.4,376.422ZM341.307,320H154.692C145.146,312.51,104,277.57,104,232V96H392V232c0,26.415-14.093,49.165-25.916,63.6A165.162,165.162,0,0,1,341.307,320Z"/></svg>
