<svg id="Filled" height="512" viewBox="0 0 512 512" width="512" xmlns="http://www.w3.org/2000/svg"><path d="m344 200h48v32h-48z" fill="#edc"/><path d="m392 200h80a16 16 0 0 1 16 16 16 16 0 0 1 -16 16h-80a0 0 0 0 1 0 0v-32a0 0 0 0 1 0 0z" fill="#606669"/><path d="m264 184h96v64h-96z" fill="#757c80"/><path d="m248 152h144v48h-144z" fill="#6a7073"/><path d="m24 24h400v144h-400z" fill="#757c80"/><path d="m216 408v-384h-192v464h432v-48a32 32 0 0 0 -32-32z" fill="#6a7073"/><path d="m24 456h432v32h-432z" fill="#606669"/><circle cx="320" cy="96" fill="#6a7073" r="40"/><path d="m336 408c-96 0-88-112-88-112h176s8 112-88 112z" fill="#f9e7d6"/><path d="m422.06 328c-5.37 33.1-23.94 80-86.06 80s-80.69-46.9-86.06-80z" fill="#b17a60"/><path d="m286.059 118.627a8 8 0 0 0 11.314 11.314l.565-.565a40.012 40.012 0 0 0 55.438-55.438l.565-.565a8 8 0 0 0 -11.314-11.314l-.565.565a40.012 40.012 0 0 0 -55.438 55.438zm57.941-22.627a23.845 23.845 0 0 1 -7.029 16.97 24.037 24.037 0 0 1 -27.32 4.694l32.014-32.014a23.915 23.915 0 0 1 2.335 10.35zm-48 0a24.02 24.02 0 0 1 34.35-21.665l-32.015 32.015a23.915 23.915 0 0 1 -2.335-10.35z"/><path d="m472 192h-72v-16h24a8 8 0 0 0 8-8v-144a8 8 0 0 0 -8-8h-400a8 8 0 0 0 -8 8v464a8 8 0 0 0 8 8h432a8 8 0 0 0 8-8v-48a40.045 40.045 0 0 0 -40-40h-33.031a80.49 80.49 0 0 0 12.16-10.665q2.415-2.594 4.566-5.335h32.305a24.028 24.028 0 0 0 24-24v-24a24.028 24.028 0 0 0 -24-24h-8.106a138.011 138.011 0 0 0 .085-16.57 8 8 0 0 0 -7.979-7.43h-176a8 8 0 0 0 -7.979 7.43c-.171 2.386-3.8 58.841 28.85 93.9a80.49 80.49 0 0 0 12.16 10.67h-57.031v-224h16v24a8 8 0 0 0 8 8h8v40a8 8 0 0 0 8 8h40v8a8 8 0 0 0 16 0v-8h40a8 8 0 0 0 8-8v-8h104a24 24 0 0 0 0-48zm-56-32h-192v-128h192zm-384 320v-16h416v16zm398.2-152h9.8a8.009 8.009 0 0 1 8 8v24a8.009 8.009 0 0 1 -8 8h-22.146c6.826-13.449 10.454-27.708 12.346-40zm-14.056-24a158.031 158.031 0 0 1 -1.047 16h-158.167a159.659 159.659 0 0 1 -1.065-16zm-135.512 74.486c-11.393-12.208-17.6-28.017-20.948-42.486h152.666c-3.344 14.428-9.539 30.2-20.931 42.432-13.326 14.311-31.972 21.568-55.419 21.568-23.418 0-42.047-7.238-55.368-21.514zm143.368 37.514a24.028 24.028 0 0 1 24 24v8h-416v-416h176v376a8 8 0 0 0 8 8zm-40-240v16h-128v-16zm-32 64h-80v-32h80zm16-32h16v16h-16zm104 16h-72v-16h72a8 8 0 0 1 0 16z"/></svg>