<?xml version="1.0" encoding="UTF-8"?>
<svg xmlns="http://www.w3.org/2000/svg" id="Filled" viewBox="0 0 512 512" width="512" height="512"><polygon points="232 104 280 104 280 256 256 280 232 256 232 104" style="fill:#f9e7d6"/><path d="M336,24a60,60,0,0,0-48,24H224a60,60,0,0,0-48-24c-32,0-56,24-104,0v96c48-24,72,0,104,0a60,60,0,0,0,48-24h64a60,60,0,0,0,48,24c32,0,56-24,104,0V24C392,48,368,24,336,24Z" style="fill:#c2846a"/><rect x="224" y="40" width="64" height="64" style="fill:#b17a60"/><path d="M444.206,17.194a8,8,0,0,0-7.784-.349c-29.716,14.858-48.628,9.848-68.651,4.545C357.77,18.74,347.428,16,336,16a67.255,67.255,0,0,0-44.681,16.728A7.952,7.952,0,0,0,288,32H224a7.952,7.952,0,0,0-3.319.728A67.255,67.255,0,0,0,176,16c-11.428,0-21.77,2.74-31.771,5.39-20.024,5.3-38.936,10.312-68.651-4.545A8,8,0,0,0,64,24v96a8,8,0,0,0,11.578,7.155c29.717-14.858,48.628-9.847,68.651-4.545,10,2.65,20.343,5.39,31.771,5.39a67.255,67.255,0,0,0,44.681-16.728A7.952,7.952,0,0,0,224,112V256a8,8,0,0,0,2.343,5.657L249.4,284.714c2.818,5.87,6.52,15.195,6.6,19.161-.5,2.387-5.92,8.4-8.246,10.982C243.084,320.039,240,323.462,240,328c0,7.313,5.5,12.809,10.343,17.657,1.833,1.832,4.809,4.809,5.556,6.343-.747,1.534-3.723,4.511-5.556,6.343C245.5,363.191,240,368.687,240,376s5.5,12.809,10.343,17.657c1.833,1.832,4.809,4.809,5.556,6.343-.747,1.534-3.723,4.511-5.556,6.343C245.5,411.191,240,416.687,240,424s5.5,12.809,10.343,17.657c1.927,1.926,5.114,5.114,5.653,6.566-.144,4.291-4.316,14.519-7.151,20.2A7.994,7.994,0,0,0,248,472v16a8,8,0,0,0,16,0V473.846c2.422-5.075,8-17.657,8-25.846,0-7.313-5.5-12.809-10.343-17.657-1.833-1.832-4.809-4.809-5.556-6.343.747-1.534,3.723-4.511,5.556-6.343C266.505,412.809,272,407.313,272,400s-5.5-12.809-10.343-17.657c-1.833-1.832-4.809-4.809-5.556-6.343.747-1.534,3.723-4.511,5.556-6.343C266.505,364.809,272,359.313,272,352s-5.5-12.809-10.343-17.657a56.608,56.608,0,0,1-4.979-5.421c.872-1.034,2.021-2.311,2.962-3.354C265.433,319.139,272,311.851,272,304c0-6.667-3.695-16.24-6.377-22.309l20.034-20.034A8,8,0,0,0,288,256V112a7.952,7.952,0,0,0,3.319-.728A67.255,67.255,0,0,0,336,128c11.428,0,21.77-2.74,31.771-5.39,20.023-5.3,38.936-10.312,68.651,4.545A8,8,0,0,0,448,120V24A8,8,0,0,0,444.206,17.194ZM280,48V96H232V48ZM176,112c-9.344,0-18.248-2.358-27.675-4.856-18.6-4.927-39.393-10.437-68.325.59V36.266c28.933,11.024,49.729,5.516,68.325.59C157.752,34.358,166.656,32,176,32a51.868,51.868,0,0,1,40,18.684V93.312A52.057,52.057,0,0,1,176,112Zm96,140.687-16,16-16-16V112h32ZM432,107.734c-28.932-11.025-49.729-5.516-68.325-.59C354.248,109.642,345.344,112,336,112a51.874,51.874,0,0,1-40-18.68V50.688A52.057,52.057,0,0,1,336,32c9.344,0,18.248,2.358,27.675,4.856,18.6,4.925,39.391,10.435,68.325-.59Z"/></svg>
