<?xml version="1.0" encoding="UTF-8"?>
<svg xmlns="http://www.w3.org/2000/svg" id="Filled" viewBox="0 0 512 512" width="512" height="512"><path d="M416,240l-27.777,62.5A16,16,0,0,1,373.6,312H138.4a16,16,0,0,1-14.621-9.5L96,240Z" style="fill:#7e8387"/><rect x="160" y="24" width="192" height="208" style="fill:#7e8387"/><path d="M488,248v40s-80-40-232-40S24,288,24,288V248s80-40,232-40S488,248,488,248Z" style="fill:#606669"/><path d="M491.578,240.845c-2.468-1.234-46.974-23-131.578-34.24V24a8,8,0,0,0-8-8H160a8,8,0,0,0-8,8V206.605c-84.6,11.241-129.11,33.006-131.578,34.24A8,8,0,0,0,16,248v40a8,8,0,0,0,11.57,7.159c.442-.219,25.685-12.5,73.856-23.253l15.041,33.84A24.017,24.017,0,0,0,138.4,320H373.6a24.018,24.018,0,0,0,21.931-14.253l15.04-33.841c48.17,10.75,73.412,23.032,73.849,23.249A8,8,0,0,0,496,288V248A8,8,0,0,0,491.578,240.845ZM168,32H344V204.665A805.717,805.717,0,0,0,256,200a805.717,805.717,0,0,0-88,4.665ZM380.912,299.25A8.005,8.005,0,0,1,373.6,304H138.4a8,8,0,0,1-7.31-4.751L117.453,268.57C153.381,261.6,199.749,256,256,256s102.619,5.6,138.547,12.57ZM480,275.8C452.577,264.828,377.115,240,256,240S59.423,264.828,32,275.8V253.167C50.636,245.188,127.606,216,256,216s205.364,29.188,224,37.167Z"/><circle cx="224" cy="280" r="8"/><circle cx="256" cy="280" r="8"/><circle cx="288" cy="280" r="8"/><path d="M262.311,386.733a24.114,24.114,0,0,1,0-21.465l8.844-17.69a8,8,0,1,0-14.31-7.156L248,358.112a40.189,40.189,0,0,0,0,35.777l8,16a23.864,23.864,0,0,1-2.267,25.132L241.6,451.2a8,8,0,1,0,12.8,9.6l12.134-16.179a39.784,39.784,0,0,0,3.777-41.889Z"/><path d="M198.311,418.733a24.114,24.114,0,0,1,0-21.465l8.844-17.69a8,8,0,0,0-14.31-7.156L184,390.112a40.189,40.189,0,0,0,0,35.777l8,16a23.864,23.864,0,0,1-2.267,25.132L177.6,483.2a8,8,0,1,0,12.8,9.6l12.134-16.179a39.784,39.784,0,0,0,3.777-41.889Z"/><path d="M326.311,418.733a24.114,24.114,0,0,1,0-21.465l8.844-17.69a8,8,0,1,0-14.31-7.156L312,390.112a40.189,40.189,0,0,0,0,35.777l8,16a23.864,23.864,0,0,1-2.267,25.132L305.6,483.2a8,8,0,1,0,12.8,9.6l12.134-16.179a39.784,39.784,0,0,0,3.777-41.889Z"/></svg>
