<svg id="Filled" height="512" viewBox="0 0 512 512" width="512" xmlns="http://www.w3.org/2000/svg"><path d="m168 40h176v112h-176z" fill="#6a7073"/><path d="m200 136h112a64 64 0 0 1 64 64v224a32 32 0 0 1 -32 32h-176a32 32 0 0 1 -32-32v-224a64 64 0 0 1 64-64z" fill="#7e8387"/><path d="m152 456h208a16 16 0 0 1 16 16v16a0 0 0 0 1 0 0h-240a0 0 0 0 1 0 0v-16a16 16 0 0 1 16-16z" fill="#6a7073"/><path d="m224 104h64v32h-64z" fill="#e1d1c0"/><circle cx="256" cy="80" fill="#f9e7d6" r="24"/><path d="m152 24h32v128h-32z" fill="#757c80"/><path d="m328 24h32v128h-32z" fill="#757c80"/><path d="m256 408s-72-16-72-112 83.355-112 83.355-112-25.007 40-8.336 72 50.013-8 50.013-8 18.968 28.071 18.968 64c0 32-16 80-72 96z" fill="#fdb432"/><path d="m280 376c0 26.51-24 32-24 32s-24-5.49-24-32 24-64 24-64 24 37.49 24 64z" fill="#e9a52f"/><path d="m128 472v16a8 8 0 0 0 8 8h240a8 8 0 0 0 8-8v-16a24 24 0 0 0 -11.2-20.286 39.851 39.851 0 0 0 11.2-27.714v-224a72.052 72.052 0 0 0 -16.346-45.674 8.011 8.011 0 0 0 .346-2.326v-128a8 8 0 0 0 -8-8h-32a8 8 0 0 0 -8 8v8h-128v-8a8 8 0 0 0 -8-8h-32a8 8 0 0 0 -8 8v128a7.977 7.977 0 0 0 .346 2.326 72.046 72.046 0 0 0 -16.346 45.674v224a39.851 39.851 0 0 0 11.2 27.714 24 24 0 0 0 -11.2 20.286zm240 8h-224v-8a8.009 8.009 0 0 1 8-8h208a8.009 8.009 0 0 1 8 8zm-32-448h16v112h-16zm-80 16h64v80.45c-2.65-.294-24-.45-24-.45v-24a8 8 0 0 0 -8-8h-4.3a32 32 0 1 0 -55.39 0h-4.31a8 8 0 0 0 -8 8v24s-21.35.156-24 .45v-80.45zm-16 32a16 16 0 1 1 16 16 16.019 16.019 0 0 1 -16-16zm40 32v16h-48v-16zm-120-80h16v112h-16zm-16 168a56.045 56.045 0 0 1 16.811-40h23.189a8 8 0 0 0 8-8v-7.411c2.641-.378 125.359-.378 128 0v7.411a8 8 0 0 0 8 8h23.19a56.048 56.048 0 0 1 16.81 40v224a24.027 24.027 0 0 1 -24 24h-176a24.027 24.027 0 0 1 -24-24z"/><path d="m315.661 243.521a8.007 8.007 0 0 0 -12.767-.652 79.189 79.189 0 0 1 -10.3 9.859c-6.818 5.4-12.994 8.109-17.406 7.626-1.281-.14-5.178-.565-9.078-8.05-14.319-27.486 7.806-63.711 8.025-64.063a8 8 0 0 0 -8.292-12.1c-.927.177-22.954 4.551-45.041 21.51-20.437 15.698-44.802 45.499-44.802 98.349 0 52.56 21.037 82.292 38.685 97.979 19.33 17.182 38.762 21.649 39.58 21.831a8.006 8.006 0 0 0 3.933-.118c26.8-7.656 48.109-23.4 61.628-45.52 14.074-23.028 16.174-46.331 16.174-58.172 0-37.943-19.509-67.25-20.339-68.479zm-59.655 156.125c-4.697-1.696-16.006-7.46-16.006-23.646 0-15.315 9.3-35.449 16-47.979 1.5 2.811 3.135 6.008 4.766 9.458 7.35 15.537 11.234 28.857 11.234 38.521 0 16.213-11.347 21.97-15.994 23.646zm31.418-16.3a46.977 46.977 0 0 0 .576-7.346c0-28.523-24.231-66.7-25.262-68.313a8 8 0 0 0 -13.476 0c-1.031 1.613-25.262 39.79-25.262 68.313a48.038 48.038 0 0 0 .27 5.067c-21.41-19.639-32.27-48.253-32.27-85.067 0-36.933 12.8-65.616 38.032-85.255a106.42 106.42 0 0 1 21.947-13.1c-6.1 16.049-11.374 40.321-.054 62.048 6.5 12.473 15.314 15.894 21.566 16.567 13.03 1.407 25.876-7.766 33.836-15.031 5.206 10.404 12.673 29.101 12.673 50.771 0 9.026-1.946 46.641-32.576 71.342z"/></svg>