<svg id="Filled" height="512" viewBox="0 0 512 512" width="512" xmlns="http://www.w3.org/2000/svg"><path d="m184 256 228.686-228.686a16 16 0 0 1 22.628 0l1.372 1.372a16 16 0 0 1 0 22.628l-228.686 228.686z" fill="#c2846a"/><path d="m72 376v72a16 16 0 0 0 16 16 16 16 0 0 0 16-16 16 16 0 0 1 16-16 16 16 0 0 1 16 16v24a16 16 0 0 0 16 16 16 16 0 0 0 16-16v-48a16 16 0 0 1 16-16 16 16 0 0 0 16-16v-80h-88v32h-40z" fill="#e9a52f"/><path d="m201.137 296.8a16 16 0 0 0 22.628-22.627l-33.942-33.942a16 16 0 0 0 -22.623 22.632l-11.314-11.314a16 16 0 1 0 -22.627 22.628l-5.659-5.657a16 16 0 1 0 -22.627 22.627l5.656 5.657a16 16 0 1 0 -22.629 22.627l11.314 11.314a16 16 0 1 0 -22.628 22.628l33.941 33.941a16 16 0 1 0 22.628-22.628l11.314 11.314a16 16 0 1 0 22.631-22.627l5.657 5.656a16 16 0 1 0 22.623-22.629l-5.657-5.657a16 16 0 1 0 22.628-22.627z" fill="#fdb432"/><rect fill="#f5ae31" height="32" rx="16" transform="matrix(.707 .707 -.707 .707 256.5 -36.95)" width="112" x="116.853" y="275.147"/><rect fill="#f5ae31" height="32" rx="16" transform="matrix(.707 .707 -.707 .707 275.245 8.304)" width="112" x="71.598" y="320.402"/><path d="m64 448a24 24 0 0 0 48 0 8 8 0 0 1 16 0v24a24 24 0 0 0 48 0v-48a8.009 8.009 0 0 1 8-8 24.027 24.027 0 0 0 24-24v-49.576a24 24 0 0 0 13.979-34.9 23.99 23.99 0 0 0 8.094-38.284l212.271-212.269a24.029 24.029 0 0 0 0-33.942l-1.373-1.373a24.029 24.029 0 0 0 -33.942 0l-212.27 212.271a23.93 23.93 0 0 0 -38.273 8.132 23.983 23.983 0 0 0 -35.041 14.364 23.939 23.939 0 0 0 -28.565 28.595 23.933 23.933 0 0 0 -14.37 35.017 23.919 23.919 0 0 0 -14.51 22.024zm120-48a24.027 24.027 0 0 0 -24 24v48a8 8 0 0 1 -16 0v-24a24 24 0 0 0 -48 0 8 8 0 0 1 -16 0v-80l24.971 24.971a24.014 24.014 0 0 0 39.017-7.467 23.982 23.982 0 0 0 35.019-14.377 23.522 23.522 0 0 0 12.993-.758v21.631a8.009 8.009 0 0 1 -8 8zm-90.343-63.6 33.943 33.944a8 8 0 1 1 -11.313 11.313l-33.94-33.939a8 8 0 0 1 11.31-11.318zm324.687-303.429a8.007 8.007 0 0 1 11.312 0l1.373 1.373a8.007 8.007 0 0 1 0 11.312l-212.235 212.236-12.686-12.686zm-245.491 212.922a8.008 8.008 0 0 1 11.314 0l33.941 33.941a8 8 0 0 1 -11.314 11.313l-33.953-33.952a8.01 8.01 0 0 1 .012-11.302zm-33.941 11.313a8.011 8.011 0 0 1 11.314 0l56.568 56.569a8 8 0 1 1 -11.314 11.313l-56.573-56.573a8 8 0 0 1 0-11.309zm-28.285 16.971a8.008 8.008 0 0 1 11.314 0l67.883 67.883a7.949 7.949 0 0 1 2.176 4.058v3.2a7.992 7.992 0 0 1 -13.49 4.058l-67.882-67.881a8.011 8.011 0 0 1 -.001-11.318zm-16.97 28.284a8.01 8.01 0 0 1 11.309 0l56.573 56.573a8 8 0 1 1 -11.314 11.313l-56.568-56.572a8.01 8.01 0 0 1 0-11.314z"/></svg>