<svg id="Filled" height="512" viewBox="0 0 512 512" width="512" xmlns="http://www.w3.org/2000/svg"><path d="m368 24h32a16 16 0 0 1 16 16v32a0 0 0 0 1 0 0h-64a0 0 0 0 1 0 0v-32a16 16 0 0 1 16-16z" fill="#7e8387"/><path d="m464 120v131.979a64 64 0 0 1 -20.59 47.027l-83.41 76.994h-80v-48h64l61.26-54.453a32 32 0 0 0 10.74-23.917v-113.63a32 32 0 0 0 -32-32h-104v-48h120a64 64 0 0 1 64 64z" fill="#edc"/><path d="m104 224-56-96s40-32 88-8z" fill="#edc"/><path d="m384 456v-64c0-375.986-128-367.987-152-367.987s-152-7.999-152 367.987v64l-16 32h336z" fill="#f9e7d6"/><path d="m400 488h-336l16-32h304z" fill="#6a7073"/><path d="m80 392h304v64h-304z" fill="#7e8387"/><path d="m320.73 72h-177.46c35.99-50.136 76.3-47.987 88.73-47.987s52.74-2.149 88.73 47.987z" fill="#7e8387"/><path d="m424 52.128v-12.128a24.028 24.028 0 0 0 -24-24h-32a24.028 24.028 0 0 0 -24 24v8h-34.6c-.292-.284-.578-.586-.872-.866-21.636-20.659-47.382-31.134-76.528-31.134s-54.892 10.475-76.525 31.134c-14.958 14.284-28.059 33.629-39.111 57.674-41.148-8.3-72.011 15.865-73.364 16.945a8 8 0 0 0 -1.912 10.278l44.8 76.8c-9.227 51.601-13.888 112.858-13.888 183.169v62.111l-15.155 30.311a8 8 0 0 0 7.155 11.578h336a8 8 0 0 0 7.155-11.578l-15.155-30.311v-62.111q0-17.528-.393-34.288l57.229-52.827a72.2 72.2 0 0 0 23.164-52.906v-131.979a72.114 72.114 0 0 0 -48-67.872zm-64-12.128a8.009 8.009 0 0 1 8-8h32a8.009 8.009 0 0 1 8 8v8.455a72.383 72.383 0 0 0 -8-.455h-40zm-2.474 89.072q-3.2-8.88-6.714-17.072h33.188a24.027 24.027 0 0 1 24 24v113.63a24.016 24.016 0 0 1 -8.055 17.937l-12.645 11.238c-5.364-59.48-15.312-109.605-29.774-149.733zm-15.052 5.428c21.7 60.211 32.959 144.13 33.5 249.5h-287.948c.541-105.373 11.8-189.292 33.5-249.5q11.648-32.319 27.074-54.5h166.8q15.407 22.178 27.074 54.5zm33.526 313.5h-288v-48h288zm-144-416c27.2 0 50.786 10.731 70.583 32h-141.166c19.797-21.269 43.383-32 70.583-32zm-173.3 98.47c9.061-5.351 28.107-14.1 51.246-10.565-1.183 3-2.348 6.042-3.474 9.167a451.867 451.867 0 0 0 -15.872 56.072zm18.244 349.53 8-16h294.112l8 16zm379.056-228.021a56.151 56.151 0 0 1 -18.016 41.148l-47.029 43.411q-.751-19.421-2.05-37.75l21.67-19.262a40.034 40.034 0 0 0 13.425-29.896v-113.63a40.045 40.045 0 0 0 -40-40h-40.621a203.1 203.1 0 0 0 -19.839-32h76.46a56.063 56.063 0 0 1 56 56z"/><path d="m180.438 105.344a8 8 0 0 0 -11.094 2.218 205.748 205.748 0 0 0 -25.1 58.5 8 8 0 1 0 15.522 3.88 192.925 192.925 0 0 1 22.9-53.508 8 8 0 0 0 -2.228-11.09z"/><path d="m145.431 192.129a8 8 0 0 0 -9.3 6.44c-.163.887-16.131 89.541-16.131 161.431a8 8 0 0 0 16 0c0-70.426 15.712-157.7 15.871-158.569a8 8 0 0 0 -6.44-9.302z"/></svg>