<svg id="Filled" height="512" viewBox="0 0 512 512" width="512" xmlns="http://www.w3.org/2000/svg"><rect fill="#f9e7d6" height="320" rx="16" width="464" x="24" y="80"/><path d="m48 400h64a0 0 0 0 1 0 0v16a16 16 0 0 1 -16 16h-32a16 16 0 0 1 -16-16v-16a0 0 0 0 1 0 0z" fill="#7e8387"/><path d="m400 400h64a0 0 0 0 1 0 0v16a16 16 0 0 1 -16 16h-32a16 16 0 0 1 -16-16v-16a0 0 0 0 1 0 0z" fill="#7e8387"/><path d="m72 128h272v224h-272z" fill="#7e8387"/><g fill="#e1d1c0"><path d="m104 160h192v160h-192z"/><rect height="256" rx="16" width="32" x="328" y="112"/><circle cx="424" cy="176" r="32"/><circle cx="424" cy="304" r="32"/></g><path d="m472 72h-432a24.028 24.028 0 0 0 -24 24v288a24.028 24.028 0 0 0 24 24v8a24.028 24.028 0 0 0 24 24h32a24.028 24.028 0 0 0 24-24v-8h272v8a24.028 24.028 0 0 0 24 24h32a24.028 24.028 0 0 0 24-24v-8a24.028 24.028 0 0 0 24-24v-288a24.028 24.028 0 0 0 -24-24zm-368 344a8.009 8.009 0 0 1 -8 8h-32a8.009 8.009 0 0 1 -8-8v-8h48zm352 0a8.009 8.009 0 0 1 -8 8h-32a8.009 8.009 0 0 1 -8-8v-8h48zm24-32a8.009 8.009 0 0 1 -8 8h-432a8.009 8.009 0 0 1 -8-8v-288a8.009 8.009 0 0 1 8-8h432a8.009 8.009 0 0 1 8 8z"/><path d="m296 152h-192a8 8 0 0 0 -8 8v160a8 8 0 0 0 8 8h192a8 8 0 0 0 8-8v-160a8 8 0 0 0 -8-8zm-8 160h-176v-144h176z"/><path d="m344 104a24.039 24.039 0 0 0 -22.624 16h-249.376a8 8 0 0 0 -8 8v224a8 8 0 0 0 8 8h249.376a24 24 0 0 0 46.624-8v-224a24.028 24.028 0 0 0 -24-24zm-264 32h240v208h-240zm272 216a8 8 0 0 1 -16 0v-224a8 8 0 0 1 16 0z"/><path d="m424 136a40 40 0 1 0 40 40 40.045 40.045 0 0 0 -40-40zm0 64a24 24 0 0 1 -8-46.624v14.624a8 8 0 0 0 16 0v-14.624a24 24 0 0 1 -8 46.624z"/><path d="m424 264a40 40 0 1 0 40 40 40.045 40.045 0 0 0 -40-40zm0 64a24 24 0 0 1 -8-46.624v14.624a8 8 0 0 0 16 0v-14.624a24 24 0 0 1 -8 46.624z"/></svg>