<?xml version="1.0" encoding="UTF-8"?>
<svg xmlns="http://www.w3.org/2000/svg" id="Filled" viewBox="0 0 512 512" width="512" height="512"><path d="M352,416c-128,0-120-128-120-184H472C472,288,480,416,352,416Z" style="fill:#f9e7d6"/><path d="M72,24H392a64,64,0,0,1,64,64v32a0,0,0,0,1,0,0H40a0,0,0,0,1,0,0V56A32,32,0,0,1,72,24Z" style="fill:#e8423f"/><path d="M456,120l-43.339,72.232A16,16,0,0,1,398.941,200H305.889a16,16,0,0,1-14.311-8.845L280,168H200V416H448a32,32,0,0,1,32,32v40H40V440l32-32L88,168H72a32,32,0,0,1-32-32V120Z" style="fill:#e8423f"/><rect x="40" y="456" width="440" height="32" style="fill:#cf3330"/><path d="M456,120l-43.339,72.232A16,16,0,0,1,398.941,200H305.889a16,16,0,0,1-14.311-8.845L280,168H200v32L84.05,227.28,88,168H72a32,32,0,0,1-32-32V120Z" style="fill:#cf3330"/><circle cx="136" cy="360" r="32" style="fill:#cf3330"/><path d="M34.343,434.343A8,8,0,0,0,32,440v48a8,8,0,0,0,8,8H480a8,8,0,0,0,8-8V448a40.045,40.045,0,0,0-40-40H419.66a98.835,98.835,0,0,0,20.923-16.062c40.236-40.519,39.752-109.427,39.462-150.6-.023-3.292-.045-6.415-.045-9.34a8,8,0,0,0-8-8H360V208h38.941a24.122,24.122,0,0,0,20.58-11.652l43.339-72.232A7.992,7.992,0,0,0,463.994,120H464V88a72.081,72.081,0,0,0-72-72H72A40.045,40.045,0,0,0,32,56v80a40.045,40.045,0,0,0,40,40h7.449L64.218,404.469ZM48,480V464H472v16ZM464.036,240q0,.72.009,1.453c.272,38.68.728,103.418-34.815,139.212C411.219,398.8,385.235,408,352,408s-59.219-9.2-77.23-27.335c-35.543-35.794-35.087-100.532-34.815-139.212q0-.732.009-1.453H344v32H272a8,8,0,0,0-7.956,8.837c5.643,53.644,34.26,90.861,85.056,110.619a8,8,0,0,0,5.8,0c50.8-19.758,79.413-56.975,85.056-110.619A8,8,0,0,0,432,272H360V240ZM296.363,330.549q-11.3-18.408-15.226-42.549h53.048Zm22.1-.776,41.888,41.889q-4.049,1.947-8.348,3.723c-19.146-7.86-34.429-18.357-45.966-31.633Zm56.412,33.786-45.764-45.765,10.735-12.077,68.909,22.97A103.148,103.148,0,0,1,374.872,363.559Zm40.918-49.392-64.382-21.46L355.592,288h67.271A126.7,126.7,0,0,1,415.79,314.167ZM344,224H232a8,8,0,0,0-8,8c0,2.925-.022,6.048-.045,9.34-.29,41.171-.774,110.079,39.462,150.6A98.835,98.835,0,0,0,284.34,408H208V176h67.056l9.366,18.733A23.869,23.869,0,0,0,305.889,208H344ZM72,32H392a56.064,56.064,0,0,1,56,56v24H48V56A24.027,24.027,0,0,1,72,32Zm0,128a24.028,24.028,0,0,1-24-24v-8H441.871L405.8,188.116a8.04,8.04,0,0,1-6.86,3.884H305.889a7.958,7.958,0,0,1-7.156-4.422l-11.578-23.156A8,8,0,0,0,280,160H200a8,8,0,0,0-8,8v25.664l-99.25,23.35,3.232-48.482A8,8,0,0,0,88,160Zm7.982,248.532L91.637,233.713,192,210.1V416a8,8,0,0,0,8,8H448a24.028,24.028,0,0,1,24,24H48v-4.687l29.657-29.656A8,8,0,0,0,79.982,408.532Z"/><path d="M136,400a39.97,39.97,0,0,0,28.753-67.766c-.149-.177-.3-.352-.469-.518s-.34-.319-.516-.467A39.988,39.988,0,1,0,136,400Zm0-64a23.858,23.858,0,0,1,10.341,2.345l-16,16a8,8,0,0,0,11.314,11.314l16-16A24,24,0,1,1,136,336Z"/></svg>
