<?xml version="1.0" encoding="UTF-8"?>
<svg xmlns="http://www.w3.org/2000/svg" id="Filled" viewBox="0 0 512 512" width="512" height="512"><path d="M352,168,324.777,317.724A32,32,0,0,1,293.294,344H90.706a32,32,0,0,1-31.483-26.276L32,168Z" style="fill:#7e8387"/><path d="M304,40a48,48,0,0,0-43.572,27.866A39.945,39.945,0,0,0,225.352,56.56,59.995,59.995,0,0,0,115.259,64.5a47.993,47.993,0,1,0,14.892,62.479,59.953,59.953,0,0,0,80.539,2.868A39.983,39.983,0,0,0,265.914,117.2,48,48,0,1,0,304,40Z" style="fill:#a1d3f5"/><rect x="24" y="112" width="336" height="64" style="fill:#6a7073"/><path d="M460.686,27.314,208,280l24,24L484.686,51.314a16,16,0,0,0,0-22.628l-1.372-1.372A16,16,0,0,0,460.686,27.314Z" style="fill:#e1d1c0"/><path d="M484.686,51.314,456,80,432,56l28.686-28.686a16,16,0,0,1,22.628,0l1.372,1.372A16,16,0,0,1,484.686,51.314Z" style="fill:#6a7073"/><path d="M168,296S88,320,88,408s136,80,136,80H328l64-96H256s-40,0-40-48Z" style="fill:#f9e7d6"/><path d="M456,408h0a16,16,0,0,1-16,16h-8a16,16,0,0,0-16,16h0a16,16,0,0,0,16,16h40a16,16,0,0,1,16,16h0a16,16,0,0,1-16,16H328V392H440A16,16,0,0,1,456,408Z" style="fill:#a1d3f5"/><circle cx="192" cy="216" r="16" style="fill:#6a7073"/><path d="M88,56c17.767,0,31.7,9.653,40,24" style="fill:#a1d3f5"/><polygon points="232 304 216 344 168 296 208 280 232 304" style="fill:#6a7073"/><path d="M472,15.029a24.808,24.808,0,0,0-17.657,7.314L367.486,109.2A8,8,0,0,0,360,104h-2.333a55.993,55.993,0,0,0-99.474-48.192A47.7,47.7,0,0,0,232,48c-.768,0-1.531.022-2.291.058a67.976,67.976,0,0,0-118.4,5.305A52.364,52.364,0,0,0,88,48a56.064,56.064,0,0,0-56,56H24a8,8,0,0,0-8,8v64a8,8,0,0,0,8,8h2.778l13.906,76.485-11.327,3.964a8,8,0,1,0,5.286,15.1l8.939-3.129,7.77,42.733A39.98,39.98,0,0,0,90.707,352h1.6C85,367.032,80,385.523,80,408c0,21.934,7.695,40.31,22.87,54.619,32.219,30.379,89.3,33.592,112,33.592C219.848,496.211,472,496,472,496a24,24,0,0,0,0-48H432a8,8,0,0,1,0-16h8a24,24,0,0,0,0-48H256.051c-3.036-.039-27.874-1.339-31.574-32h68.817a39.981,39.981,0,0,0,39.354-32.845l23.22-127.71L489.657,57.657A24.971,24.971,0,0,0,472,15.029ZM195.412,421.554C205.733,428.778,219.484,432,240,432h80v16H232c-15.387,0-38.641,0-57.357-6.551C153.737,434.132,144,420.961,144,400c0-34.018,19.427-60.991,37.8-78.89l7.136,7.137C182.507,341.071,176,358.4,176,376,176,397.509,182.35,412.41,195.412,421.554ZM182.236,298.922l23.837-9.535,16.54,16.54-9.535,23.837ZM232,292.686,219.314,280,432,67.314,444.686,80ZM304,48a39.982,39.982,0,0,1,36.651,56H279.327A48.336,48.336,0,0,0,280,96a47.74,47.74,0,0,0-9.912-29.163A40.148,40.148,0,0,1,304,48ZM201.008,104a32,32,0,1,1,61.984,0ZM88,64c13.866,0,25.612,7.105,33.075,20.006a8,8,0,0,0,13.85-8.012A59.974,59.974,0,0,0,124.572,62.7a51.984,51.984,0,0,1,88.372-10.746A47.973,47.973,0,0,0,184.673,104H48A40.045,40.045,0,0,1,88,64ZM32,120H352v4.686L308.686,168H32ZM90.707,336a23.989,23.989,0,0,1-23.613-19.707l-8.222-45.222L173.3,231.021a23.984,23.984,0,1,0-5.3-15.1L55.974,255.134,43.04,184H292.686l-89.181,89.182-38.186,15.274a132.645,132.645,0,0,0-42.5,24.448A123.169,123.169,0,0,0,101.73,336ZM184,216a8,8,0,1,1,8,8A8.009,8.009,0,0,1,184,216Zm39.534,264.014c-.744.041-74.776,3.916-109.711-29.059C101.83,439.635,96,425.584,96,408c0-33.817,12.354-61.577,36.72-82.51a122.019,122.019,0,0,1,33.225-20.231l4.552,4.551C152.348,327.65,128,359.187,128,400c0,27.526,14.3,47.081,41.357,56.551C190.641,464,215.53,464,232,464h88v16S223.688,480.005,223.534,480.014ZM440,400a8,8,0,0,1,0,16h-8a24,24,0,0,0,0,48h40a8,8,0,0,1,0,16H336V400Zm-184,0h64v16H240c-16.8,0-28.05-2.4-35.412-7.554C196.118,402.517,192,391.9,192,376c0-12.562,4.189-25.331,8.928-35.759l7.14,7.141C209.968,399.378,255.53,400,256,400Zm60.906-83.707A23.988,23.988,0,0,1,293.294,336H227.816l11-27.5,97.174-97.173ZM478.343,46.343,456,68.686,443.314,56l22.343-22.343a8.97,8.97,0,1,1,12.686,12.686Z"/></svg>
