<svg id="Filled" height="512" viewBox="0 0 512 512" width="512" xmlns="http://www.w3.org/2000/svg"><path d="m59.016 392h32a0 0 0 0 1 0 0v32a0 0 0 0 1 0 0h-32a16 16 0 0 1 -16-16 16 16 0 0 1 16-16z" fill="#ab6643"/><path d="m91.016 424s-8-128-48-216 40-112 64-48v-40a96 96 0 0 1 96-96h16a96 96 0 0 1 96 96v304z" fill="#e83c3f"/><g fill="#cf3030"><path d="m87.982 392h43.034l-68.706-131.325c14.467 48.725 22.018 99.566 25.672 131.325z"/><path d="m43.843 132.044 135.173 259.956h48l-120-232c-13.716-36.586-45.731-44.4-63.173-27.956z"/><path d="m315.016 392h-40l-160.64-308.92a96.088 96.088 0 0 1 28.35-37.78z"/><path d="m315.016 192-87.15-167.59c-2.915-.266-5.865-.41-8.85-.41h-16a96.27 96.27 0 0 0 -22.042 2.546l134.042 257.764z"/></g><path d="m315.016 392v32h-224s-.77-12.34-3.04-32z" fill="#d28e73"/><path d="m255.992 487.871c-.008-.122-.023-.339-.043-.638.021.303.035.517.043.638z" fill="#d28e73"/><path d="m255.912 486.707c-.034-.489-.08-1.114-.137-1.865.057.751.103 1.376.137 1.865z" fill="#d28e73"/><path d="m224 456h32a0 0 0 0 1 0 0v32a0 0 0 0 1 0 0h-32a16 16 0 0 1 -16-16 16 16 0 0 1 16-16z" fill="#ab6643"/><path d="m256 488s-8-128-48-216 40-112 64-48v-40a96 96 0 0 1 96-96h16a96 96 0 0 1 96 96v304z" fill="#e8423f"/><path d="m252.966 456h43.034l-68.706-131.325c14.466 48.725 22.018 99.566 25.672 131.325z" fill="#cf3330"/><path d="m208.827 196.044 135.173 259.956h48l-120-232c-13.72-36.586-45.731-44.4-63.173-27.956z" fill="#cf3330"/><path d="m480 456h-40l-160.64-308.92a96.088 96.088 0 0 1 28.35-37.78z" fill="#cf3330"/><path d="m480 256-87.15-167.59c-2.915-.266-5.866-.41-8.85-.41h-16a96.27 96.27 0 0 0 -22.042 2.546l134.042 257.764z" fill="#cf3330"/><path d="m480 456v32h-224s-.77-12.34-3.04-32z" fill="#d28e73"/><path d="m384 80h-16a103.345 103.345 0 0 0 -48.78 12.174 103.981 103.981 0 0 0 -100.204-76.174h-16a104.118 104.118 0 0 0 -104 104v11.771c-8.116-8.528-17.964-13.988-28.607-15.512a38.376 38.376 0 0 0 -36.661 15.111c-13.59 18.13-12.866 47.268 1.985 79.941 25.235 55.516 37.595 128.139 43.19 172.689h-19.907a24 24 0 0 0 0 48h182.743c.808 5.647 1.52 11 2.149 16h-19.908a24 24 0 0 0 0 48h256a8 8 0 0 0 8-8v-304a104.118 104.118 0 0 0 -104-104zm-152.115 304-116.869-225.947v-38.053a88.177 88.177 0 0 1 1.4-15.662l75.161 144.539a140.319 140.319 0 0 0 9.143 26.434c15.146 33.321 25.654 72.808 32.846 108.689zm-9.795-203.421-69.12-132.92a87.755 87.755 0 0 1 23.887-11.69l79.658 153.182a46.658 46.658 0 0 0 -21.122-8.892 39.676 39.676 0 0 0 -13.303.32zm78.767 267.421-66.592-128.061a416.785 416.785 0 0 0 -18.982-51.25c-13.428-29.54-11.264-47.482-7.393-57.107l122.933 236.418zm-18.034 0h-22.7c-2.112-17.324-5.261-39.055-9.848-62.586zm66.034 0-129.771-249.568a22.674 22.674 0 0 1 14.039-2.335c13.146 1.882 24.878 13.363 31.384 30.712a8.025 8.025 0 0 0 .391.863h-.006l113.961 220.328zm48.012 0-116.869-225.947v-38.053a88.177 88.177 0 0 1 1.4-15.662l145.423 279.662zm47.988 0-156.61-301.169a88.4 88.4 0 0 1 17.16-24.621l166.593 320.366v5.424zm-126.9-336.341a87.741 87.741 0 0 1 23.887-11.69l130.156 250.297v57.634zm154.043 72.341v39.276l-64.531-124.093a88.155 88.155 0 0 1 64.531 84.817zm-88-88c1.282 0 2.557.034 3.826.088l84.174 161.868v57.63l-113.9-219.026a88.424 88.424 0 0 1 9.9-.56zm-78.985 5.3a104.834 104.834 0 0 0 -18.626 18.307l-43.897-84.407a87.984 87.984 0 0 1 62.523 66.1zm-86-69.3q1.917 0 3.825.085l53.483 102.85a103.2 103.2 0 0 0 -11.454 35.6l-71.751-137.975a88.424 88.424 0 0 1 9.9-.56zm-78.592 26.21 66.939 128.728a39.287 39.287 0 0 0 -8.631 8.432 47.093 47.093 0 0 0 -7.957 17.288l-67.511-129.827a88.4 88.4 0 0 1 17.16-24.621zm-72.282 73.89c13.146 1.882 24.879 13.363 31.384 30.712a8.025 8.025 0 0 0 .391.863h-.006l113.961 220.325h-30l-129.771-249.568a22.669 22.669 0 0 1 14.041-2.332zm-25.235 15.482 122.933 236.418h-29.966l-66.592-128.06a416.7 416.7 0 0 0 -18.981-51.251c-13.429-29.54-11.265-47.483-7.394-57.107zm42.388 173.832 32.545 62.586h-22.7c-2.108-17.324-5.258-39.055-9.845-62.586zm-34.278 86.586a8.009 8.009 0 0 1 8-8h21.777c.7 6.515 1.212 11.925 1.567 16h-23.344a8.009 8.009 0 0 1 -8-8zm47.427 8c-.327-3.984-.812-9.412-1.5-16h139.657c.985 5.475 1.892 10.819 2.725 16zm117.557 56a8.009 8.009 0 0 1 8-8h21.778c.7 6.515 1.212 11.925 1.566 16h-23.344a8.009 8.009 0 0 1 -8-8zm256 8h-208.573c-.327-3.984-.812-9.412-1.5-16h210.073z"/></svg>