<svg id="Filled" height="512" viewBox="0 0 512 512" width="512" xmlns="http://www.w3.org/2000/svg"><path d="m303.992 312a8 8 0 0 1 -6.648-12.439c.75-1.124 18.878-27.561 62.656-27.561a8 8 0 0 1 0 16c-35.311 0-49.207 20.233-49.344 20.438a7.992 7.992 0 0 1 -6.664 3.562z" fill="#596063"/><path d="m287.992 248a8 8 0 0 1 -6.648-12.438c.75-1.126 18.878-27.562 62.656-27.562a8 8 0 0 1 0 16c-35.311 0-49.207 20.233-49.344 20.438a7.992 7.992 0 0 1 -6.664 3.562z" fill="#596063"/><path d="m263.992 184a8 8 0 0 1 -6.648-12.439c.75-1.124 18.878-27.561 62.656-27.561a8 8 0 0 1 0 16c-35.311 0-49.207 20.233-49.344 20.438a7.992 7.992 0 0 1 -6.664 3.562z" fill="#596063"/><g fill="#7e8387"><path d="m40 232h256a0 0 0 0 1 0 0v16a48 48 0 0 1 -48 48h-160a48 48 0 0 1 -48-48v-16a0 0 0 0 1 0 0z"/><path d="m64 168h208a0 0 0 0 1 0 0v16a48 48 0 0 1 -48 48h-112a48 48 0 0 1 -48-48v-16a0 0 0 0 1 0 0z"/><path d="m24 296h288a0 0 0 0 1 0 0v16a64 64 0 0 1 -64 64h-160a64 64 0 0 1 -64-64v-16a0 0 0 0 1 0 0z"/><path d="m360 264h32v32h-32z"/></g><path d="m472 296h-80v-32h80a16 16 0 0 1 16 16 16 16 0 0 1 -16 16z" fill="#596063"/><path d="m344 200h32v32h-32z" fill="#7e8387"/><path d="m376 200h64a16 16 0 0 1 16 16 16 16 0 0 1 -16 16h-64a0 0 0 0 1 0 0v-32a0 0 0 0 1 0 0z" fill="#596063"/><path d="m320 136h32v32h-32z" fill="#757c80"/><path d="m352 136h48a16 16 0 0 1 16 16 16 16 0 0 1 -16 16h-48a0 0 0 0 1 0 0v-32a0 0 0 0 1 0 0z" fill="#596063"/><path d="m472 256h-112a8 8 0 0 0 -8 8v8.22c-26.543 1.484-38.764 10.233-43.913 15.78h-20.949a55.82 55.82 0 0 0 16.862-40v-13.316c2.619-2.685 11-9.1 32-10.434v7.75a8 8 0 0 0 8 8h96a24 24 0 0 0 0-48h-96a8 8 0 0 0 -8 8v8.22c-26.543 1.484-38.764 10.233-43.913 15.78h-28.949a55.82 55.82 0 0 0 16.862-40v-13.316c2.619-2.685 11-9.1 32-10.434v7.75a8 8 0 0 0 8 8h80a24 24 0 0 0 0-48h-80a8 8 0 0 0 -8 8v8.22c-26.543 1.484-38.764 10.233-43.913 15.78h-204.087a8 8 0 0 0 -8 8v16a55.82 55.82 0 0 0 16.862 40h-32.862a8 8 0 0 0 -8 8v16a55.82 55.82 0 0 0 16.862 40h-24.862a8 8 0 0 0 -8 8v16a72.081 72.081 0 0 0 72 72h160a72.081 72.081 0 0 0 72-72v-13.316c2.619-2.685 11-9.1 32-10.434v7.75a8 8 0 0 0 8 8h112a24 24 0 0 0 0-48zm-24-40a8.009 8.009 0 0 1 -8 8h-56v-16h56a8.009 8.009 0 0 1 8 8zm-96-8h16v16h-16zm56-56a8.009 8.009 0 0 1 -8 8h-40v-16h40a8.009 8.009 0 0 1 8 8zm-80-8h16v16h-16zm-256 40v-8h192v8a40.045 40.045 0 0 1 -40 40h-112a40.045 40.045 0 0 1 -40-40zm-24 64v-8h240v8a40.045 40.045 0 0 1 -40 40h-160a40.045 40.045 0 0 1 -40-40zm256 64a56.063 56.063 0 0 1 -56 56h-160a56.063 56.063 0 0 1 -56-56v-8h272zm64-40h16v16h-16zm104 16h-72v-16h72a8 8 0 0 1 0 16z"/></svg>