<svg id="Filled" height="512" viewBox="0 0 512 512" width="512" xmlns="http://www.w3.org/2000/svg"><path d="m440 184h32a16 16 0 0 1 16 16v32a16 16 0 0 1 -16 16h-32a0 0 0 0 1 0 0v-64a0 0 0 0 1 0 0z" fill="#edc"/><path d="m48 320h48a0 0 0 0 1 0 0v32a0 0 0 0 1 0 0h-48a16 16 0 0 1 -16-16 16 16 0 0 1 16-16z" fill="#b17a60"/><path d="m152 152h272v80h-272z" fill="#edc"/><path d="m152 152h32v80h-32z" fill="#c2846a"/><path d="m392 152h32v80h-32z" fill="#c2846a"/><path d="m208 72h160v80h-160z" fill="#fdb432"/><path d="m208 232h160v144h-160z" fill="#fdb432"/><path d="m424 168h16a16 16 0 0 1 16 16v240a0 0 0 0 1 0 0h-32a0 0 0 0 1 0 0v-256a0 0 0 0 1 0 0z" fill="#b17a60"/><path d="m136 168h16a0 0 0 0 1 0 0v256a0 0 0 0 1 0 0h-32a0 0 0 0 1 0 0v-240a16 16 0 0 1 16-16z" fill="#b17a60"/><path d="m104 408h368a16 16 0 0 1 16 16v16a0 0 0 0 1 0 0h-400a0 0 0 0 1 0 0v-16a16 16 0 0 1 16-16z" fill="#c2846a"/><path d="m240 232h32v144h-32z" fill="#e9a52f"/><path d="m304 232h32v144h-32z" fill="#e9a52f"/><path d="m472 176h-9.376a24.039 24.039 0 0 0 -22.624-16h-8v-8a8 8 0 0 0 -8-8h-48v-72a8 8 0 0 0 -8-8h-160a8 8 0 0 0 -8 8v72h-48a8 8 0 0 0 -8 8v8h-8a24.039 24.039 0 0 0 -22.624 16h-9.376a24.027 24.027 0 0 0 -24 24v112h-40a24 24 0 0 0 0 48h48a8 8 0 0 0 8-8v-152a8.009 8.009 0 0 1 8-8h8v208h-8a24.027 24.027 0 0 0 -24 24v16a8 8 0 0 0 8 8h400a8 8 0 0 0 8-8v-16a24.027 24.027 0 0 0 -24-24h-8v-144h8a24.028 24.028 0 0 0 24-24v-32a24.028 24.028 0 0 0 -24-24zm-392 168h-40a8 8 0 0 1 0-16h40zm320-184h16v64h-16zm-16 64h-192v-64h192zm-168 16h16v128h-16zm32 0h16v128h-16zm32 0h16v128h-16zm32 0h16v128h-16zm32 0h16v128h-16zm-128-160h144v64h-144zm-16 160v136a8 8 0 0 0 8 8h160a8 8 0 0 0 8-8v-136h40v160h-256v-160zm-40-80h16v64h-16zm-32 24a8.009 8.009 0 0 1 8-8h8v224h-16zm352 240v8h-384v-8a8.009 8.009 0 0 1 8-8h368a8.009 8.009 0 0 1 8 8zm-48-24v-224h8a8.009 8.009 0 0 1 8 8v216zm48-168a8.009 8.009 0 0 1 -8 8h-8v-48h8a8.009 8.009 0 0 1 8 8z"/></svg>