<svg id="Filled" height="512" viewBox="0 0 512 512" width="512" xmlns="http://www.w3.org/2000/svg"><path d="m176 272c2.082-.895-2.147-34.034 48-72l40 32c.277.192-47.485 32.357-40 64z" fill="#edc"/><circle cx="144" cy="368" fill="#edc" r="120"/><circle cx="144" cy="368" fill="#f9e7d6" r="88"/><path d="m144 408a40 40 0 1 1 40-40 40.045 40.045 0 0 1 -40 40z" fill="#e1d1c0"/><path d="m171.214 198.025c25.626 14.229 64.972 38.722 98.48 70.87a19.175 19.175 0 0 0 30.458-5.2 19.158 19.158 0 0 0 .652-15.685l-12.804-32.01s-10.421-57.116 64-72c80-16 136-16 136-72 0-80-112-24-112-24s-72 32-160 120l-31.415-6.283a19.582 19.582 0 0 0 -15.585 3.536 19.575 19.575 0 0 0 2.214 32.772z" fill="#e8423f"/><path d="m144 272a96 96 0 1 0 96 96 96.108 96.108 0 0 0 -96-96zm0 176a80 80 0 1 1 80-80 80.091 80.091 0 0 1 -80 80z"/><path d="m144 328a40 40 0 1 0 40 40 40.045 40.045 0 0 0 -40-40zm0 64a24 24 0 1 1 24-24 24.028 24.028 0 0 1 -24 24z"/><circle cx="144" cy="368" r="8"/><path d="m475.69 28.28c-34.045-21.044-98.577 10.241-103.107 12.485-4.8 2.156-73.805 34.027-159.2 118.553l-27.228-5.446a27.581 27.581 0 0 0 -18.824 51.147c7.318 4.063 15.559 8.855 24.342 14.325a109.51 109.51 0 0 0 -15.844 24.663 128.3 128.3 0 1 0 58.133 33.031c2.492-5.8 6.656-12.029 12.308-18.393 6.075 5.1 12.071 10.444 17.886 16.023a26.985 26.985 0 0 0 18.782 7.613 27.782 27.782 0 0 0 4.736-.409 26.866 26.866 0 0 0 19.635-14.6 27.191 27.191 0 0 0 .924-22.234l-12.27-30.676a61.853 61.853 0 0 1 5.844-25.092c8.885-18.951 26.379-31.56 52-37.476 15.015-3.468 28.964-6.144 42.452-8.732 28.249-5.418 52.646-10.1 70.013-19.471 20.28-10.948 29.728-27.342 29.728-51.591 0-20.682-6.833-35.391-20.31-43.72zm-219.69 339.72a112 112 0 1 1 -112-112 112.127 112.127 0 0 1 112 112zm-34.57-101.852a127.973 127.973 0 0 0 -30.269-17.143 96.672 96.672 0 0 1 14.087-20.918c9.29 6.181 18.935 13.028 28.554 20.5a91.2 91.2 0 0 0 -12.372 17.561zm171.808-138.8c-13 2.493-27.73 5.319-43.039 8.854-38.174 8.817-55.264 30.03-62.88 46.274a75.46 75.46 0 0 0 -7.3 34.064 8 8 0 0 0 .553 2.429l12.805 32.009a11.171 11.171 0 0 1 -.381 9.138 11.017 11.017 0 0 1 -8.049 5.987 11.169 11.169 0 0 1 -9.715-2.983c-33.719-32.352-73.065-57.061-100.134-72.093a11.575 11.575 0 0 1 -1.3-19.377 11.585 11.585 0 0 1 9.222-2.091l31.414 6.283a8 8 0 0 0 7.226-2.188c85.74-85.746 156.886-118.03 157.589-118.343.108-.048.22-.1.325-.154 16.807-8.385 65.326-27.114 87.714-13.257 8.554 5.288 12.712 15.135 12.712 30.1 0 37.143-26.6 43.81-86.762 55.351z"/></svg>