<svg id="Filled" height="512" viewBox="0 0 512 512" width="512" xmlns="http://www.w3.org/2000/svg"><g fill="#cf3330"><path d="m104 264v48h-40l-8-16h-16a16 16 0 0 1 -16-16 16 16 0 0 1 16-16z"/><path d="m408 264v48h40l8-16h16a16 16 0 0 0 16-16 16 16 0 0 0 -16-16z"/><path d="m216 96h80v48h-80z"/></g><path d="m424 200v176a64 64 0 0 1 -64 64h-208a64 64 0 0 1 -64-64v-176z" fill="#e8423f"/><rect fill="#cf3330" height="32" rx="16" width="368" x="72" y="200"/><path d="m424 200h-336l128-64h80z" fill="#f9e7d6"/><path d="m312 88v16h-112v-16a16 16 0 0 1 16-16h80a16 16 0 0 1 16 16z" fill="#e8423f"/><path d="m472 256h-40v-17.376a23.994 23.994 0 0 0 -5.919-46.528l-122.081-61.04v-19.056h8a8 8 0 0 0 8-8v-16a24.028 24.028 0 0 0 -24-24h-80a24.028 24.028 0 0 0 -24 24v16a8 8 0 0 0 8 8h8v19.056l-122.081 61.044a23.994 23.994 0 0 0 -5.919 46.524v17.376h-40a24 24 0 0 0 0 48h11.056l5.789 11.578a8 8 0 0 0 7.155 4.422h16v56a72.081 72.081 0 0 0 72 72h208a72.081 72.081 0 0 0 72-72v-56h16a8 8 0 0 0 7.155-4.422l5.789-11.578h11.056a24 24 0 0 0 0-48zm-254.111-112h76.222l96 48h-268.222zm-9.889-56a8.009 8.009 0 0 1 8-8h80a8.009 8.009 0 0 1 8 8v8h-96zm80 24v16h-64v-16zm-200 96h335.96.034.019a8 8 0 0 1 -.013 16h-336a8 8 0 0 1 0-16zm-19.056 96-5.789-11.578a8 8 0 0 0 -7.155-4.422h-16a8 8 0 0 1 0-16h40v32zm347.056 72a56.063 56.063 0 0 1 -56 56h-208a56.063 56.063 0 0 1 -56-56v-136h320zm56-88h-16a8 8 0 0 0 -7.155 4.422l-5.789 11.578h-11.056v-32h40a8 8 0 0 1 0 16z"/><path d="m136 272a8 8 0 0 0 -8 8v16a8 8 0 0 0 16 0v-16a8 8 0 0 0 -8-8z"/><path d="m136 320a8 8 0 0 0 -8 8v48a8 8 0 0 0 16 0v-48a8 8 0 0 0 -8-8z"/></svg>