<svg id="Filled" height="512" viewBox="0 0 512 512" width="512" xmlns="http://www.w3.org/2000/svg"><path d="m144 24h224a16 16 0 0 1 16 16v144a0 0 0 0 1 0 0h-256a0 0 0 0 1 0 0v-144a16 16 0 0 1 16-16z" fill="#e8423f"/><path d="m128 184h256a0 0 0 0 1 0 0v256a16 16 0 0 1 -16 16h-224a16 16 0 0 1 -16-16v-256a0 0 0 0 1 0 0z" fill="#e8423f"/><path d="m144 456h64v32h-64z" fill="#7e8387"/><path d="m304 456h64v32h-64z" fill="#7e8387"/><path d="m192 184h-32v-96a16 16 0 0 1 16-16 16 16 0 0 1 16 16z" fill="#c5312e"/><path d="m160 184h32a0 0 0 0 1 0 0v128a16 16 0 0 1 -16 16 16 16 0 0 1 -16-16v-128a0 0 0 0 1 0 0z" fill="#c5312e"/><path d="m304 496h64a8 8 0 0 0 8-8v-25.376a24.039 24.039 0 0 0 16-22.624v-400a24.028 24.028 0 0 0 -24-24h-224a24.027 24.027 0 0 0 -24 24v400a24.039 24.039 0 0 0 16 22.624v25.376a8 8 0 0 0 8 8h64a8 8 0 0 0 8-8v-24h80v24a8 8 0 0 0 8 8zm8-16v-16h48v16zm56-32h-224a8.009 8.009 0 0 1 -8-8v-248h16v120a24 24 0 0 0 48 0v-120h176v248a8.009 8.009 0 0 1 -8 8zm-200-256h16v120a8 8 0 0 1 -16 0zm16-16h-16v-88a8 8 0 0 1 16 0zm-40-144h224a8.009 8.009 0 0 1 8 8v136h-176v-88a24 24 0 0 0 -48 0v88h-16v-136a8.009 8.009 0 0 1 8-8zm56 448h-48v-16h48z"/></svg>