<svg id="Filled" height="512" viewBox="0 0 512 512" width="512" xmlns="http://www.w3.org/2000/svg"><path d="m483.129 59.262-51.129 44.738-24-24 44.738-51.129a16 16 0 0 1 23.355-.778l7.814 7.814a16 16 0 0 1 -.778 23.355z" fill="#d28e73"/><path d="m59.262 483.129 44.738-51.129-24-24-51.129 44.738a16 16 0 0 0 -.778 23.355l7.814 7.814a16 16 0 0 0 23.355-.778z" fill="#d28e73"/><rect fill="#ab6643" height="79.196" rx="16" transform="matrix(.707 -.707 .707 .707 -106.039 256)" width="463.862" x="24.069" y="216.402"/><path d="m58.01 182.461h395.98v147.078h-395.98z" fill="#d28e73" transform="matrix(.707 -.707 .707 .707 -106.039 256)"/><path d="m481.75 22.437a24 24 0 0 0 -35.032 1.163l-39.172 44.77a24.017 24.017 0 0 0 -32.517 1.287l-7.029 7.029-18.343-18.343a8 8 0 0 0 -11.314 0l-280 280a8 8 0 0 0 0 11.314l18.343 18.343-7.03 7.03a24.017 24.017 0 0 0 -1.286 32.517l-44.77 39.17a24 24 0 0 0 -1.167 35.033l7.813 7.813a24.083 24.083 0 0 0 16.979 7.03c.263 0 .527 0 .79-.013a24.083 24.083 0 0 0 17.267-8.18l39.172-44.767a23.992 23.992 0 0 0 32.517-1.287l7.029-7.032 18.343 18.343a8 8 0 0 0 11.314 0l280-280a8 8 0 0 0 0-11.314l-18.343-18.343 7.03-7.03a24.017 24.017 0 0 0 1.286-32.517l44.77-39.17a24 24 0 0 0 1.167-35.033zm-428.509 455.424a8 8 0 0 1 -11.678.389l-7.813-7.813a8 8 0 0 1 .389-11.678l45.5-39.81 13.416 13.416zm72.415-46.831a8.007 8.007 0 0 1 -11.312 0l-33.373-33.373a8.01 8.01 0 0 1 0-11.314l7.029-7.029 44.686 44.686zm42.344 5.656-92.687-92.686 268.687-268.686 92.687 92.686zm211.314-348.686 7.03-7.03a8.007 8.007 0 0 1 11.312 0l33.373 33.373a8.01 8.01 0 0 1 0 11.314l-7.029 7.029zm98.547-34.759-45.5 39.81-13.412-13.416 39.81-45.5a8 8 0 0 1 11.678-.389l7.813 7.813a8 8 0 0 1 -.389 11.678z"/><path d="m146.343 298.343-40 40a8 8 0 0 0 11.314 11.314l40-40a8 8 0 1 0 -11.314-11.314z"/><path d="m338.343 106.343-168 168a8 8 0 0 0 11.314 11.314l168-168a8 8 0 0 0 -11.314-11.314z"/></svg>