<svg id="Filled" height="512" viewBox="0 0 512 512" width="512" xmlns="http://www.w3.org/2000/svg"><path d="m304 240h80v48h-80z" fill="#6a7073"/><path d="m136 24 8 32v16h32v-16l8-32z" fill="#b17a60"/><path d="m208 408s16-16 16-56-24-56-24-88 8-40 8-40v-80h-96v80s8 8 8 40-24 48-24 88 16 56 16 56v32l-16 48h128l-16-48z" fill="#b17a60"/><g fill="#c2846a"><path d="m232 120c0 29.538-24 40-24 40h-96s-24-10.462-24-40 56-64 56-64h32s56 34.462 56 64z"/><rect height="32" rx="16" width="128" x="96" y="192"/><rect height="32" rx="16" width="128" x="96" y="408"/></g><path d="m392 488h-96s-40-48-24-88 16-88 16-88l16-32h80l16 32s0 48 16 88-24 88-24 88z" fill="#edc"/><path d="m384 248h-80s-8-8-8-24c0-16.031 8-40 48-40s48 23.969 48 40c0 16-8 24-8 24z" fill="#7e8387"/><path d="m360 488s32-48 16-96c-10.431-31.292-8-72-8-72l-16-40h-16l-16 40s2.431 40.708-8 72c-16 48 16 96 16 96z" fill="#f9e7d6"/><path d="m80 120c0 26 15.787 39.441 24 44.678v20.7a24 24 0 0 0 3.234 46.147c1.745 3.849 4.766 13.287 4.766 32.475 0 13.345-4.753 23.6-10.256 35.471-6.444 13.898-13.744 29.65-13.744 52.529 0 25.375 6.178 42.062 11.368 51.605a23.987 23.987 0 0 0 2.311 42.059l-13.268 39.806a8 8 0 0 0 7.589 10.53h128a8 8 0 0 0 7.589-10.53l-13.268-39.806a23.987 23.987 0 0 0 2.311-42.059c5.19-9.543 11.368-26.23 11.368-51.605 0-22.879-7.3-38.631-13.744-52.529-5.503-11.871-10.256-22.126-10.256-35.471 0-19.188 3.021-28.626 4.766-32.477a24 24 0 0 0 3.234-46.147v-20.7c8.213-5.235 24-18.676 24-44.676 0-14.651-10.335-31.166-30.718-49.085a242.456 242.456 0 0 0 -24.137-18.515l6.616-26.464a8 8 0 0 0 -7.761-9.936h-48a8 8 0 0 0 -7.761 9.94l6.616 26.46a242.456 242.456 0 0 0 -24.137 18.511c-20.383 17.923-30.718 34.438-30.718 49.089zm120 64h-80v-16h80zm8 232a8 8 0 0 1 0 16h-96a8 8 0 0 1 0-16zm-100.9 64 10.666-32h84.468l10.666 32zm108.9-128c0 18.673-3.752 31.41-6.9 38.808a52.018 52.018 0 0 1 -4.957 9.192h-88.283a51.834 51.834 0 0 1 -4.96-9.192c-3.148-7.4-6.9-20.135-6.9-38.808 0-19.351 6.233-32.8 12.26-45.8 5.772-12.452 11.74-25.328 11.74-42.2 0-4.066-.238-19.549-3.612-32h71.224c-3.374 12.451-3.612 27.934-3.612 32 0 16.872 5.968 29.748 11.74 42.2 6.027 13 12.26 26.449 12.26 45.8zm-8-136h-96a8 8 0 0 1 0-16h96a8 8 0 0 1 0 16zm-34.246-184-4 16h-19.508l-4-16zm-52.629 51.07a228.931 228.931 0 0 1 25.21-19.07h27.333a228.1 228.1 0 0 1 25.05 18.932c16.303 14.333 25.282 27.497 25.282 37.068 0 20.334-13.6 29.579-17.915 32h-92.174c-4.3-2.415-17.911-11.669-17.911-32 0-9.537 8.923-22.652 25.125-36.93z"/><path d="m400 224c0-11.261-4.038-48-56-48s-56 36.739-56 48c0 13.67 4.915 22.573 8 26.824v27.287l-15.155 30.311a8.008 8.008 0 0 0 -.845 3.578c0 .466-.212 46.993-15.428 85.032-17.572 43.92 23.528 93.98 25.282 96.089a8 8 0 0 0 6.146 2.879h96a8 8 0 0 0 6.146-2.879c1.758-2.109 42.851-52.169 25.282-96.092-15.216-38.039-15.428-84.566-15.428-85.029a7.994 7.994 0 0 0 -.845-3.578l-15.155-30.311v-27.287c3.085-4.251 8-13.154 8-26.824zm-56-32c33.061 0 40 17.4 40 32a30.836 30.836 0 0 1 -4.01 16h-71.98a30.836 30.836 0 0 1 -4.01-16c0-14.6 6.939-32 40-32zm15.925 129.354c-.355 8.519-1.158 44.245 8.486 73.176 12.168 36.505-6.395 73.98-12.931 85.47h-22.972c-6.555-11.466-25.134-48.823-12.919-85.47 9.644-28.931 8.841-64.657 8.486-73.176l13.341-33.354h5.168zm-47.925-49.354v-16h64v16zm-32.572 130.971c14.746-36.865 16.372-79.423 16.551-89.039l12.965-25.932h15.24l-11.612 29.029a8.016 8.016 0 0 0 -.558 3.445c.023.392 2.2 39.585-7.6 69-12.163 36.486.948 72.267 9.96 90.53h-14.459c-7.767-10.414-32.482-47.045-20.487-77.033zm129.144 0c11.956 29.889-12.744 66.6-20.5 77.029h-14.443c9.012-18.263 22.123-54.044 9.96-90.53-9.8-29.411-7.626-68.6-7.6-68.993a8 8 0 0 0 -.558-3.448l-11.615-29.029h15.24l12.965 25.932c.179 9.616 1.805 52.174 16.551 89.039z"/><circle cx="328" cy="216" r="8"/><circle cx="360" cy="216" r="8"/></svg>