<svg id="Filled" height="512" viewBox="0 0 512 512" width="512" xmlns="http://www.w3.org/2000/svg"><circle cx="96" cy="136" fill="#f9e7d6" r="64"/><circle cx="96" cy="136" fill="#e1d1c0" r="32"/><path d="m352 80h-32a24 24 0 0 0 -48 0v72h-32v-72a56 56 0 0 1 112 0z" fill="#f9e7d6"/><path d="m24 200h464v288h-464z" fill="#d28e73"/><path d="m24 312h464v176h-464z" fill="#6a7073"/><path d="m400 312h88v176h-88z" fill="#7e8387"/><path d="m24 312h88v176h-88z" fill="#7e8387"/><path d="m280 200h-48l8-48h32z" fill="#e1d1c0"/><path d="m208 120h32v32h-32z" fill="#e1d1c0"/><path d="m320 200h80v80h-80z" fill="#f9e7d6"/><path d="m320 248h80v32h-80z" fill="#e1d1c0"/><path d="m416 120h32a16 16 0 0 1 16 16v64a0 0 0 0 1 0 0h-64a0 0 0 0 1 0 0v-64a16 16 0 0 1 16-16z" fill="#f9e7d6"/><path d="m128 344h120v112h-120z" fill="#7e8387"/><path d="m264 344h120v112h-120z" fill="#7e8387"/><path d="m488 192h-16v-56a24.027 24.027 0 0 0 -24-24h-8v-24h8a8 8 0 0 0 0-16h-32a8 8 0 0 0 -5.657 2.343l-8 8a8 8 0 0 0 11.314 11.314l5.656-5.657h4.687v24h-8a24.027 24.027 0 0 0 -24 24v56h-105.223l-6.777-40.662v-71.338a16 16 0 0 1 32 0 8 8 0 0 0 8 8h32a8 8 0 0 0 8-8 64 64 0 0 0 -128 0v32h-16v-24a8 8 0 0 0 -16 0v64a8 8 0 0 0 8 8h22.556l-5.333 32h-50.161l-7.078-56.622a71.987 71.987 0 0 0 -143.968 0l-7.954 63.63h.006a7.9 7.9 0 0 0 -.068.992v288a8 8 0 0 0 8 8h464a8 8 0 0 0 8-8v-288a8 8 0 0 0 -8-8zm-8 112h-448v-96h280v72a8 8 0 0 0 8 8h80a8 8 0 0 0 8-8v-72h72zm-232 16v16h-120v-16zm136 128h-120v-96h120zm-136 0h-120v-96h120zm-120 16h120v16h-120zm136 0h120v16h-120zm120-128h-120v-16h120zm-327.195-192a40 40 0 0 0 78.39 0h16.224a55.992 55.992 0 0 1 -110.838 0zm61.819 0a24 24 0 0 1 -45.248 0zm-45.248-16a24 24 0 0 1 45.248 0zm-22.561 64h-17.753l2.18-17.441a72.552 72.552 0 0 0 15.573 17.441zm277.185 64h64v16h-64zm64-16h-64v-32h64zm24-112h32a8.009 8.009 0 0 1 8 8v56h-48v-56a8.009 8.009 0 0 1 8-8zm-168-48a48 48 0 0 1 95.333-8h-16.345a32 32 0 0 0 -62.988 8v64h-16zm-32 48h16v16h-16zm30.777 32h18.446l5.333 32h-29.112zm-105.592 32a72.552 72.552 0 0 0 15.573-17.441l2.18 17.441zm-45.185-112a56.078 56.078 0 0 1 55.419 48h-16.219a40 40 0 0 0 -78.39 0h-16.229a56.078 56.078 0 0 1 55.419-48zm-64 240h80v160h-80zm368 160v-160h80v160z"/><path d="m224 416a8 8 0 0 0 8-8v-16a8 8 0 0 0 -16 0v16a8 8 0 0 0 8 8z"/><path d="m288 416a8 8 0 0 0 8-8v-16a8 8 0 0 0 -16 0v16a8 8 0 0 0 8 8z"/></svg>