<svg id="Filled" height="512" viewBox="0 0 512 512" width="512" xmlns="http://www.w3.org/2000/svg"><path d="m400 128h32v224h-32z" fill="#f9e7d6" transform="matrix(-1 0 0 -1 832 480)"/><path d="m88 176h32v176h-32z" fill="#f9e7d6"/><path d="m487.83 120s7.183-96-71.83-96-71.83 96-71.83 96z" fill="#7e8387"/><path d="m80 344h48a0 0 0 0 1 0 0v120a24 24 0 0 1 -24 24 24 24 0 0 1 -24-24v-120a0 0 0 0 1 0 0z" fill="#6a7073"/><path d="m392 344h48a0 0 0 0 1 0 0v120a24 24 0 0 1 -24 24 24 24 0 0 1 -24-24v-120a0 0 0 0 1 0 0z" fill="#6a7073"/><path d="m184 40-16 104-48 40h-32l-48-40-16-104s16-16 80-16 80 16 80 16z" fill="#7e8387"/><ellipse cx="416" cy="120" fill="#606669" rx="72" ry="24"/><path d="m232 344h48a0 0 0 0 1 0 0v120a24 24 0 0 1 -24 24 24 24 0 0 1 -24-24v-120a0 0 0 0 1 0 0z" fill="#6a7073"/><path d="m471.242 38.211c-13.677-14.738-32.263-22.211-55.242-22.211s-41.565 7.473-55.242 22.211c-25.189 27.144-25.088 70.081-24.681 80.242-.046.509-.077 1.024-.077 1.547 0 17.418 26.027 27.32 56 30.684v185.316a8 8 0 0 0 -8 8v120a32 32 0 0 0 64 0v-120a8 8 0 0 0 -8-8v-185.316c29.973-3.364 56-13.266 56-30.684 0-.523-.031-1.038-.077-1.547.407-10.161.508-53.098-24.681-80.242zm-98.713 10.837c10.523-11.312 25.149-17.048 43.471-17.048s32.948 5.736 43.471 17.048c13.332 14.333 18.094 35.068 19.721 50.319-15.633-7.72-39.946-11.367-63.192-11.367s-47.558 3.647-63.192 11.367c1.627-15.251 6.392-35.986 19.721-50.319zm59.471 414.952a16 16 0 0 1 -32 0v-112h32zm-8-128h-16v-184.145q4.006.144 8 .145t8-.145zm40.382-206.619c-12.805 4.268-29.982 6.619-48.382 6.619s-35.577-2.351-48.382-6.619c-11.253-3.751-14.756-7.571-15.468-8.943a8.068 8.068 0 0 0 0-.88c.716-1.374 4.222-5.191 15.466-8.939 12.807-4.268 29.989-6.619 48.384-6.619s35.577 2.351 48.382 6.619c11.243 3.748 14.75 7.564 15.466 8.939a8.126 8.126 0 0 0 0 .883c-.714 1.373-4.219 5.191-15.466 8.94z"/><path d="m104 16c-65.425 0-83.779 16.466-85.657 18.343a8 8 0 0 0 -2.25 6.873l16 104a8 8 0 0 0 2.785 4.93l45.122 37.601v148.253a8 8 0 0 0 -8 8v120a32 32 0 0 0 64 0v-120a8 8 0 0 0 -8-8v-148.253l45.122-37.6a8 8 0 0 0 2.785-4.93l16-104a8 8 0 0 0 -2.25-6.873c-1.878-1.878-20.232-18.344-85.657-18.344zm16 448a16 16 0 0 1 -32 0v-112h32zm-24-128v-144h16v144zm64.553-196.208-43.453 36.208h-26.2l-43.453-36.208-14.775-96.033a63.49 63.49 0 0 1 11.875-4.816c10.292-3.167 28.96-6.943 59.453-6.943s49.161 3.776 59.453 6.943a63.49 63.49 0 0 1 11.875 4.816z"/><path d="m104 48a8 8 0 0 0 -8 8v80a8 8 0 0 0 16 0v-80a8 8 0 0 0 -8-8z"/><path d="m71.938 63.008a8 8 0 0 0 -15.876 1.984l8 64a8 8 0 0 0 7.928 7.008 8.084 8.084 0 0 0 1-.063 8 8 0 0 0 6.946-8.93z"/><path d="m144.992 56.062a8 8 0 0 0 -8.93 6.946l-8 64a8 8 0 0 0 6.946 8.93 8.1 8.1 0 0 0 1 .063 8 8 0 0 0 7.928-7.009l8-64a8 8 0 0 0 -6.944-8.93z"/><path d="m306.4 107.2c-13.155-17.54-31.054-27.2-50.4-27.2s-37.245 9.66-50.4 27.2c-14.131 18.841-21.6 45.4-21.6 76.8 0 52.474 40.018 123.524 57.461 152h-9.461a8 8 0 0 0 -8 8v120a32 32 0 0 0 64 0v-120a8 8 0 0 0 -8-8h-9.461c17.443-28.476 57.461-99.526 57.461-152 0-31.4-7.469-57.959-21.6-76.8zm-12.8 9.6c12.038 16.05 18.4 39.287 18.4 67.2 0 27.961-13.112 62.892-27.339 92.568 22.867-96.687 6.586-149.553-8.033-175.032a55.349 55.349 0 0 1 16.972 15.264zm-17.973 27.882c9.957 45.638 1.448 100.164-11.627 147.795v-180.512a126.251 126.251 0 0 1 11.627 32.717zm-27.627-32.717v180.511c-13.075-47.63-21.584-102.156-11.627-147.794a126.237 126.237 0 0 1 11.627-32.717zm-29.6 4.835a55.349 55.349 0 0 1 16.972-15.264c-14.621 25.483-30.9 78.36-8.023 175.074-14.231-29.675-27.349-64.617-27.349-92.61 0-27.913 6.363-51.15 18.4-67.2zm53.6 347.2a16 16 0 0 1 -32 0v-112h32z"/></svg>