<svg id="Filled" height="512" viewBox="0 0 512 512" width="512" xmlns="http://www.w3.org/2000/svg"><path d="m248 40s-96 8-96 144v32h192v-32c0-136-96-144-96-144z" fill="#fdb432"/><path d="m80 184h336v96h-336z" fill="#e9a52f"/><g fill="#f9e7d6"><path d="m80 216s-32-5.429-56 16c0 0 40 16 56 48z"/><path d="m416 216h40a32 32 0 0 1 32 32v128a16 16 0 0 1 -16 16 16 16 0 0 1 -16-16v-112a16 16 0 0 0 -16-16h-24z"/><path d="m80 216h336a0 0 0 0 1 0 0v192a64 64 0 0 1 -64 64h-208a64 64 0 0 1 -64-64v-192a0 0 0 0 1 0 0z"/></g><path d="m416 352v56a64 64 0 0 1 -64 64h-208a64 64 0 0 1 -64-64v-48l66.539-24.2a64 64 0 0 1 43.014-.26l116.894 40.912a64 64 0 0 0 43.014-.26z" fill="#fdb432"/><path d="m80 216h336v64h-336z" fill="#edc"/><path d="m456 208h-32v-24a8 8 0 0 0 -8-8h-64.125c-.813-28.819-6.036-54.084-15.587-75.175-8.494-18.758-20.378-34.266-35.322-46.1-25.6-20.267-51.224-22.611-52.3-22.7a7.958 7.958 0 0 0 -1.328 0c-1.078.09-26.7 2.434-52.3 22.7-14.944 11.831-26.828 27.339-35.322 46.1-9.551 21.091-14.774 46.356-15.587 75.175h-64.129a8 8 0 0 0 -8 8v23.393c-12.394-.2-34.815 2.11-53.328 18.639a8 8 0 0 0 2.348 13.392c.366.147 36.032 14.786 50.98 42.566v126.01a72.081 72.081 0 0 0 72 72h208a72.081 72.081 0 0 0 72-72v-152h16a8.009 8.009 0 0 1 8 8v112a24 24 0 0 0 48 0v-128a40.045 40.045 0 0 0 -40-40zm-368 80h320v58.4l-61.273 22.282a56.14 56.14 0 0 1 -37.638.227l-116.889-40.916a72.2 72.2 0 0 0 -48.391.292l-55.809 20.293zm320-16h-320v-48h320zm-86.288-164.575c8.623 19.041 13.366 42.087 14.156 68.575h-31.949c-1.128-62.167-15.319-98.436-28.649-118.9a97.475 97.475 0 0 1 15.764 10.177c12.925 10.228 23.247 23.737 30.678 40.148zm-81.712-49.634v118.209h-31.919c.621-31.761 5.2-72.973 22-103.485a92.824 92.824 0 0 1 9.919-14.724zm16 0a92.824 92.824 0 0 1 9.921 14.724c16.8 30.512 21.377 71.724 22 103.485h-31.921zm-51.7 10.014a96.71 96.71 0 0 1 16.408-10.674c-13.328 20.476-27.499 56.739-28.627 118.869h-31.956c1.433-49.322 16.269-85.7 44.175-108.195zm203.7 124.195v16h-320v-16zm-368.343 38.764c12.132-6.492 24.843-7.464 32.343-7.343v31.808c-10.762-11.313-23.243-19.429-32.343-24.465zm312.343 233.236h-208a56.063 56.063 0 0 1 -56-56v-42.4l61.273-22.282a56.158 56.158 0 0 1 37.638-.227l116.889 40.916a72.188 72.188 0 0 0 48.391-.292l55.809-20.293v44.578a56.063 56.063 0 0 1 -56 56zm128-88a8 8 0 0 1 -16 0v-112a24.028 24.028 0 0 0 -24-24h-16v-16h32a24.028 24.028 0 0 1 24 24z"/><circle cx="192" cy="424" r="8"/><circle cx="168" cy="392" r="8"/><circle cx="144" cy="424" r="8"/></svg>