<svg id="Filled" height="512" viewBox="0 0 512 512" width="512" xmlns="http://www.w3.org/2000/svg"><path d="m24 320h464v128h-464z" fill="#f9e7d6"/><g fill="#7e8387"><path d="m56 352h400v64h-400z"/><path d="m24 448h64v32h-64z"/><path d="m424 448h64v32h-64z"/></g><circle cx="136" cy="384" fill="#f9e7d6" r="32"/><circle cx="376" cy="384" fill="#f9e7d6" r="32"/><path d="m296 144h160a0 0 0 0 1 0 0v96a16 16 0 0 1 -16 16h-128a16 16 0 0 1 -16-16v-96a0 0 0 0 1 0 0z" fill="#e8423f"/><path d="m280 144h16a0 0 0 0 1 0 0v32a0 0 0 0 1 0 0h-16a16 16 0 0 1 -16-16 16 16 0 0 1 16-16z" fill="#cf3330"/><path d="m456 144h16a16 16 0 0 1 16 16 16 16 0 0 1 -16 16h-16a0 0 0 0 1 0 0v-32a0 0 0 0 1 0 0z" fill="#cf3330"/><path d="m456 424a8 8 0 0 0 8-8v-64a8 8 0 0 0 -8-8h-400a8 8 0 0 0 -8 8v64a8 8 0 0 0 8 8zm-90.351-18.336 32.016-32.014a24.037 24.037 0 0 1 -4.694 27.32 24.037 24.037 0 0 1 -27.322 4.693zm20.7-43.328-32.014 32.014a24.019 24.019 0 0 1 32.016-32.014zm-42.349 45.664h-176.022a39.912 39.912 0 0 0 0-48h176.022a40.008 40.008 0 0 0 0 48zm-200-1.376v-45.248a24 24 0 0 1 0 45.248zm-16-45.248v45.248a24 24 0 0 1 0-45.248zm320 46.624h-40a40.008 40.008 0 0 0 0-48h40zm-384-48h40.022a39.912 39.912 0 0 0 0 48h-40.022z"/><path d="m368 272v8h-40a8 8 0 0 0 -8 8v24h-32v-32h16a8 8 0 0 0 0-16h-24a8 8 0 0 0 -8 8v40h-32v-40a8 8 0 0 0 -8-8h-24a8 8 0 0 0 0 16h16v32h-32v-24a8 8 0 0 0 -8-8h-40v-8a8 8 0 0 0 -16 0v8h-40a8 8 0 0 0 -8 8v24h-32v-32h16a8 8 0 0 0 0-16h-24a8 8 0 0 0 -8 8v40h-8a8 8 0 0 0 -8 8v160a8 8 0 0 0 8 8h64a8 8 0 0 0 8-8v-24h320v24a8 8 0 0 0 8 8h64a8 8 0 0 0 8-8v-160a8 8 0 0 0 -8-8h-8v-40a8 8 0 0 0 -8-8h-24a8 8 0 0 0 0 16h16v32h-32v-24a8 8 0 0 0 -8-8h-40v-8a8 8 0 0 0 -16 0zm-32 24h32v16h-32zm-160 0v16h-32v-16zm-80 0h32v16h-32zm-64 32h448v112h-448zm48 144h-48v-16h48zm352 0v-16h48v16zm-16-176v16h-32v-16z"/><path d="m464 240v-56h8a24 24 0 0 0 0-48h-192a24 24 0 0 0 0 48h8v56a24.028 24.028 0 0 0 24 24h128a24.028 24.028 0 0 0 24-24zm16-80a8.009 8.009 0 0 1 -8 8h-8v-16h8a8.009 8.009 0 0 1 8 8zm-200 8a8 8 0 0 1 0-16h8v16zm32 80a8.009 8.009 0 0 1 -8-8v-88h144v88a8.009 8.009 0 0 1 -8 8z"/><path d="m328 168a8 8 0 0 0 -8 8v48a8 8 0 0 0 16 0v-48a8 8 0 0 0 -8-8z"/><path d="m389.657 37.657a8 8 0 0 0 -11.314-11.314l-6.725 6.725a24.067 24.067 0 0 0 -3 30.284l2.808 4.21a7.981 7.981 0 0 1 0 8.876l-10.082 15.124a8 8 0 1 0 13.312 8.876l10.083-15.126a23.934 23.934 0 0 0 0-26.624l-2.808-4.211a8.022 8.022 0 0 1 1-10.095z"/><path d="m341.657 53.657a8 8 0 0 0 -11.314-11.314l-6.725 6.725a24.067 24.067 0 0 0 -3 30.284l2.808 4.21a7.981 7.981 0 0 1 0 8.876l-10.083 15.124a8 8 0 1 0 13.312 8.876l10.083-15.126a23.934 23.934 0 0 0 0-26.624l-2.808-4.211a8.022 8.022 0 0 1 1-10.1z"/><path d="m437.657 53.657a8 8 0 0 0 -11.314-11.314l-6.725 6.725a24.067 24.067 0 0 0 -3 30.284l2.808 4.21a7.981 7.981 0 0 1 0 8.876l-10.083 15.124a8 8 0 1 0 13.312 8.876l10.083-15.126a23.934 23.934 0 0 0 0-26.624l-2.808-4.211a8.022 8.022 0 0 1 1-10.1z"/></svg>