<svg id="Filled" height="512" viewBox="0 0 512 512" width="512" xmlns="http://www.w3.org/2000/svg"><circle cx="384" cy="168" fill="#f9e7d6" r="104"/><path d="m136 56a112 112 0 1 0 112 112 112 112 0 0 0 -112-112zm56.569 168.569a80 80 0 1 1 0-113.138 80 80 0 0 1 0 113.138z" fill="#f9e7d6"/><path d="m136 488a24 24 0 0 1 -24-24v-120l24-24 24 24v120a24 24 0 0 1 -24 24z" fill="#7e8387"/><path d="m368 264h32v144h-32z" fill="#e1d1c0"/><path d="m390.816 488h-13.632a16 16 0 0 1 -15.96-17.14l6.776-94.86h32l6.776 94.86a16 16 0 0 1 -15.96 17.14z" fill="#7e8387"/><path d="m128 287.727v28.959l-21.657 21.657a8 8 0 0 0 -2.343 5.657v120a32 32 0 0 0 64 0v-120a8 8 0 0 0 -2.343-5.657l-21.657-21.657v-28.959a120 120 0 0 0 28.487-234.049l-13.059-32.649a8 8 0 0 0 -7.428-5.029h-32a8 8 0 0 0 -7.428 5.029l-13.059 32.649a120 120 0 0 0 28.487 234.049zm24 176.273a16 16 0 0 1 -32 0v-116.687l16-16 16 16zm-26.584-432h21.168l6.916 17.279a120.307 120.307 0 0 0 -34.992 0zm10.584 32a104 104 0 1 1 -104 104 104.118 104.118 0 0 1 104-104z"/><path d="m384 56a112 112 0 0 0 -24 221.4v98.314l-6.755 94.573a24 24 0 0 0 23.939 25.713h13.632a24 24 0 0 0 23.939-25.71l-6.755-94.573v-98.317a112 112 0 0 0 -24-221.4zm12.672 421.451a7.919 7.919 0 0 1 -5.856 2.549h-13.632a8 8 0 0 1 -7.98-8.569l6.245-87.431h17.1l6.245 87.431a7.919 7.919 0 0 1 -2.122 6.02zm-4.672-109.451h-16v-88.289c2.643.188 5.31.289 8 .289s5.357-.1 8-.289zm-8-104a96 96 0 1 1 96-96 96.108 96.108 0 0 1 -96 96z"/><path d="m73.774 230.226a88 88 0 1 0 -25.774-62.226 87.426 87.426 0 0 0 25.774 62.226zm76.291-132.859a71.16 71.16 0 0 1 16.986 5.639l-8.424 8.424-11.313-11.313zm-25.379 2.75-11.313 11.313-8.424-8.424a71.16 71.16 0 0 1 16.986-5.639zm11.314 11.315 11.313 11.313-11.313 11.313-11.313-11.313zm70.633 70.633a71.16 71.16 0 0 1 -5.639 16.986l-8.424-8.424 11.313-11.313zm-2.75-25.379-11.313-11.313 8.424-8.424a71.16 71.16 0 0 1 5.639 16.986zm-11.315 11.314-11.313 11.313-11.313-11.313 11.313-11.313zm-70.633 70.633a71.16 71.16 0 0 1 -16.986-5.639l8.424-8.424 11.313 11.313zm25.379-2.75 11.313-11.313 8.424 8.424a71.16 71.16 0 0 1 -16.986 5.639zm-11.314-11.315-11.313-11.313 11.313-11.313 11.313 11.313zm-11.314-33.94-11.313 11.313-11.314-11.314 11.313-11.313zm0-22.628 11.314-11.313 11.313 11.313-11.313 11.313zm22.627 22.628 11.314-11.314 11.313 11.313-11.314 11.314zm11.314-33.942-11.314-11.314 11.313-11.313 11.314 11.314zm-33.942-11.314-11.314 11.314-11.313-11.313 11.314-11.314zm-22.627 22.628-11.313 11.313-11.313-11.313 11.313-11.313zm-33.941 11.314 11.313 11.313-8.424 8.424a71.16 71.16 0 0 1 -5.639-16.986zm0-22.628-2.75-2.751a71.16 71.16 0 0 1 5.639-16.986l8.424 8.424zm11.635 56.249 10.993-10.993 11.313 11.313-10.993 10.993a71.038 71.038 0 0 1 -11.313-11.313zm101.183 11.313-10.993-10.993 11.313-11.313 10.993 10.993a71.038 71.038 0 0 1 -11.313 11.313zm11.313-101.183-10.993 10.993-11.313-11.313 10.993-10.993a71.038 71.038 0 0 1 11.313 11.313zm-101.183-11.313 10.993 10.993-11.313 11.313-10.993-10.993a71.038 71.038 0 0 1 11.313-11.313z"/><circle cx="384" cy="168" r="8"/><circle cx="352" cy="168" r="8"/><circle cx="416" cy="200" r="8"/><circle cx="352" cy="200" r="8"/><circle cx="416" cy="136" r="8"/><circle cx="440" cy="112" r="8"/><circle cx="328" cy="112" r="8"/><circle cx="352" cy="136" r="8"/><circle cx="440" cy="224" r="8"/><circle cx="328" cy="224" r="8"/><circle cx="320" cy="168" r="8"/><circle cx="416" cy="168" r="8"/><circle cx="448" cy="168" r="8"/><circle cx="384" cy="136" r="8"/><circle cx="384" cy="104" r="8"/><circle cx="384" cy="232" r="8"/><circle cx="384" cy="200" r="8"/></svg>