<svg id="Filled" height="512" viewBox="0 0 512 512" width="512" xmlns="http://www.w3.org/2000/svg"><path d="m488 208v20.145a48 48 0 0 1 -24.185 41.675l-87.815 50.18h-56v-32h40l84.093-49.054a24 24 0 0 0 11.907-20.731v-2.215a24 24 0 0 0 -24-24h-112v-32h120a48 48 0 0 1 48 48z" fill="#edc"/><path d="m24 176s24-40 56-16 64 128 64 128l16 96s-40 16-72-16c-40-40 0-72-16-136-8.677-34.709-48-56-48-56z" fill="#edc"/><path d="m400 328c0-48-32-80-56-120s0-80 0-80l-80-48-80 48s24 40 0 80-56 72-56 120 56 104 56 104l-24 32h208l-24-32s56-56 56-104z" fill="#f9e7d6"/><g fill="#edc"><path d="m368 464h-208l24-32h160z"/><circle cx="264" cy="64" r="16"/><path d="m344 128h-160l80-48z"/><circle cx="264" cy="64" r="16"/></g><path d="m440 152h-96.685a75.937 75.937 0 0 1 7.545-19.884 7.986 7.986 0 0 0 -2.747-10.971l-67.081-40.255a24 24 0 1 0 -34.064 0l-67.084 40.25.006.011a8 8 0 0 0 -2.762 10.945c.874 1.476 21.157 36.546.012 71.788-5.611 9.351-11.787 18.431-17.76 27.213-5.886 8.653-11.829 17.4-17.255 26.471-26.015-72.203-46.835-96.1-57.325-103.968s-21.445-10.752-32.553-8.578c-21.274 4.168-34.547 25.937-35.107 26.862a8.007 8.007 0 0 0 3.042 11.146c.362.2 36.36 20.12 44.057 50.91 6.47 25.882 3.175 46.5.268 64.682-4.054 25.361-7.883 49.316 17.836 75.035a74.145 74.145 0 0 0 53.7 22.333 83.443 83.443 0 0 0 8.613-.452 290.7 290.7 0 0 0 28.889 37.071l-19.945 26.591a8 8 0 0 0 6.4 12.8h208a8 8 0 0 0 6.4-12.8l-19.943-26.591c14.035-15.254 53.543-61.981 53.543-104.609a112.029 112.029 0 0 0 -1.21-16.38l60.993-34.854a56.121 56.121 0 0 0 28.217-48.621v-20.145a56.063 56.063 0 0 0 -56-56zm-71.38 79.1c-5.973-8.782-12.149-17.862-17.76-27.213-.777-1.295-1.492-2.591-2.16-3.884h83.3a16.019 16.019 0 0 1 16 16v2.215a16.057 16.057 0 0 1 -7.938 13.821l-51.54 30.061c-6.105-10.71-13.043-20.919-19.902-31zm-53.503-111.1h-102.234l51.117-30.67zm-51.117-64a8 8 0 0 1 0 16 8 8 0 0 1 0-16zm-170.343 306.343c-19.945-19.945-17.321-36.355-13.35-61.2 2.993-18.726 6.718-42.031-.546-71.087-7.013-28.054-31.4-47.671-44.136-56.257 4.339-5.012 11.333-11.44 19.7-13.079 6.57-1.287 13.07.571 19.877 5.676 16.136 12.1 37.251 53.26 56.691 110.371-7.125 15.47-11.893 32.211-11.893 51.233 0 17.47 6.637 35.629 15.436 52.029-12.886-.07-28.107-4.013-41.779-17.686zm82.343 93.657 12-16h152l12 16zm164.589-32h-153.189a283.981 283.981 0 0 1 -24.85-30.588c-17.367-24.812-26.55-47.435-26.55-65.412 0-34.082 17.782-60.226 36.609-87.9 6.1-8.967 12.407-18.239 18.251-27.98 18.126-30.211 11.661-60.037 5.615-76.116h135.05c-6.046 16.079-12.511 45.905 5.615 76.116 5.844 9.741 12.152 19.013 18.251 27.98 18.827 27.674 36.609 53.818 36.609 87.9 0 38.847-41.235 85.164-51.411 96zm139.411-195.855a40.089 40.089 0 0 1 -20.154 34.73l-56.7 32.4a139.761 139.761 0 0 0 -7.248-18.953l52.222-30.463a32.109 32.109 0 0 0 15.88-27.644v-2.215a32.036 32.036 0 0 0 -32-32h-89.13a67.745 67.745 0 0 1 -1.587-16h98.717a40.045 40.045 0 0 1 40 40z"/></svg>