<svg id="Filled" height="512" viewBox="0 0 512 512" width="512" xmlns="http://www.w3.org/2000/svg"><path d="m400 88c0 32-16 48-16 48v64h-192v-64s-16-16-16-48c0-56 56-64 112-64s112 8 112 64z" fill="#b17a60"/><g fill="#edc"><path d="m368 88c0 24-16 40-16 40v72h-128v-72s-16-16-16-40c0-32 40-32 80-32s80 0 80 32z"/><path d="m56 232h64a0 0 0 0 1 0 0v32a0 0 0 0 1 0 0h-64a16 16 0 0 1 -16-16 16 16 0 0 1 16-16z"/><path d="m88 328h32a0 0 0 0 1 0 0v64a0 0 0 0 1 0 0h-32a16 16 0 0 1 -16-16v-32a16 16 0 0 1 16-16z"/></g><path d="m384 440h80v48h-80z" fill="#de9d2c" transform="matrix(-1 0 0 -1 848 928)"/><path d="m112 440h80v48h-80z" fill="#de9d2c"/><path d="m104 408h368v48h-368z" fill="#edc"/><path d="m136 184h304a32 32 0 0 1 32 32v192a0 0 0 0 1 0 0h-368a0 0 0 0 1 0 0v-192a32 32 0 0 1 32-32z" fill="#fdb432"/><path d="m136 184h16a0 0 0 0 1 0 0v224a0 0 0 0 1 0 0h-48a0 0 0 0 1 0 0v-192a32 32 0 0 1 32-32z" fill="#de9d2c"/><path d="m424 184h16a32 32 0 0 1 32 32v192a0 0 0 0 1 0 0h-48a0 0 0 0 1 0 0v-224a0 0 0 0 1 0 0z" fill="#de9d2c"/><path d="m32 248a24.028 24.028 0 0 0 24 24h40v48h-8a24.028 24.028 0 0 0 -24 24v32a24.028 24.028 0 0 0 24 24h8v56a8 8 0 0 0 8 8v24a8 8 0 0 0 8 8h80a8 8 0 0 0 8-8v-24h176v24a8 8 0 0 0 8 8h80a8 8 0 0 0 8-8v-24a8 8 0 0 0 8-8v-240a40.045 40.045 0 0 0 -40-40h-48v-37.045c4.963-6.263 16-23.3 16-50.955 0-28.715-13.407-49.021-39.849-60.353-24.087-10.323-55.486-11.647-80.151-11.647s-56.064 1.324-80.151 11.647c-26.442 11.332-39.849 31.638-39.849 60.353 0 27.652 11.037 44.692 16 50.955v37.045h-48a40.045 40.045 0 0 0 -40 40v8h-40a24.028 24.028 0 0 0 -24 24zm56 136a8.009 8.009 0 0 1 -8-8v-32a8.009 8.009 0 0 1 8-8h8v48zm141.681-261.632c-.137-.139-13.681-14.158-13.681-34.368 0-7.51 2.265-15.791 19.062-20.27 13.986-3.73 33.788-3.73 52.938-3.73s38.952 0 52.938 3.73c16.797 4.479 19.062 12.76 19.062 20.27 0 20.21-13.544 34.229-13.657 34.343a8 8 0 0 0 -2.343 5.657v48h-112v-48a8.082 8.082 0 0 0 -2.319-5.632zm186.319 69.632v208h-256v-208zm48 224v32h-352v-32zm-280 64h-64v-16h64zm272 0h-64v-16h64zm8-264v184h-32v-208h8a24.027 24.027 0 0 1 24 24zm-266.3-85.613c-.559-.577-13.7-14.458-13.7-42.387 0-22.326 9.581-36.831 30.151-45.647 21.412-9.176 50.714-10.353 73.849-10.353s52.437 1.177 73.849 10.353c20.57 8.816 30.151 23.321 30.151 45.647 0 27.929-13.141 41.81-13.657 42.343a8 8 0 0 0 -2.343 5.657v40h-16v-44.964c4.963-5.968 16-21.648 16-43.036 0-18.234-10.409-30.255-30.938-35.73-16.014-4.27-36.881-4.27-57.062-4.27s-41.048 0-57.062 4.27c-20.529 5.475-30.938 17.496-30.938 35.73 0 21.388 11.037 37.068 16 43.036v44.964h-16v-40a7.858 7.858 0 0 0 -2.3-5.613zm-61.7 61.613h8v208h-32v-184a24.027 24.027 0 0 1 24-24zm-80 48h40v16h-40a8 8 0 0 1 0-16z"/></svg>