<svg id="Filled" height="512" viewBox="0 0 512 512" width="512" xmlns="http://www.w3.org/2000/svg"><path d="m408 136h-72l-22.5-33.75a32 32 0 0 0 -26.626-14.25h-61.748a32 32 0 0 0 -26.626 14.25l-22.5 33.75h-72l-80 224v64h464v-64zm-200 16 16-32h64l16 32z" fill="#b17a60"/><g fill="#c2846a"><path d="m411.36 145.4-44.7 67.04a8 8 0 1 1 -13.32-8.88l45.04-67.56h9.62z"/><path d="m156.44 214.66a8.016 8.016 0 0 1 -11.1-2.22l-44.7-67.04v-.01l3.36-9.39h9.62l45.04 67.56a8.013 8.013 0 0 1 -2.22 11.1z"/><path d="m136 184-80 240h400l-80-240z"/></g><path d="m352 360-30.4-36.486a32 32 0 0 0 -24.588-11.514h-82.024a32 32 0 0 0 -24.583 11.514l-30.405 36.486h-136v64h464v-64zm-160 16 24-32h80l24 32z" fill="#d28e73"/><path d="m495.534 357.309-80-224a7.951 7.951 0 0 0 -7.534-5.309h-67.719l-20.125-30.188a39.919 39.919 0 0 0 -33.282-17.812h-61.748a39.919 39.919 0 0 0 -33.282 17.812l-20.125 30.188h-67.719a7.951 7.951 0 0 0 -7.529 5.311h-.005l-80 224h.007a7.953 7.953 0 0 0 -.473 2.689v64a8 8 0 0 0 8 8h464a8 8 0 0 0 8-8v-64a7.953 7.953 0 0 0 -.473-2.688zm-389.356-203.62 21 31.493-55.61 166.818h-36.216zm35.588 38.311h228.468l53.333 160h-67.82l-28.006-33.607a39.893 39.893 0 0 0 -30.729-14.393h-82.024a39.893 39.893 0 0 0 -30.729 14.393l-28.006 33.607h-67.82zm298.666 160-55.605-166.818 21-31.493 70.821 198.311zm-264.432-208a8 8 0 0 0 6.656-3.562l22.5-33.751a23.951 23.951 0 0 1 19.97-10.687h61.748a23.951 23.951 0 0 1 19.969 10.687l22.5 33.751a8 8 0 0 0 6.657 3.562h57.052l-21.333 32h-231.438l-21.333-32zm304 272h-448v-48h128a8 8 0 0 0 6.146-2.878l30.4-36.486a23.935 23.935 0 0 1 18.442-8.636h82.024a23.932 23.932 0 0 1 18.437 8.636l30.4 36.486a8 8 0 0 0 6.151 2.878h128z"/><path d="m302.4 339.2a8 8 0 0 0 -6.4-3.2h-80a8 8 0 0 0 -6.4 3.2l-24 32a8 8 0 0 0 6.4 12.8h128a8 8 0 0 0 6.4-12.8zm-94.4 28.8 12-16h72l12 16z"/><path d="m208 160h96a8 8 0 0 0 7.155-11.578l-16-32a8 8 0 0 0 -7.155-4.422h-64a8 8 0 0 0 -7.155 4.422l-16 32a8 8 0 0 0 7.155 11.578zm20.944-32h54.112l8 16h-70.112z"/></svg>